<svg xmlns="http://www.w3.org/2000/svg" xmlns:xlink="http://www.w3.org/1999/xlink" width="300pt" height="300pt" viewBox="0 0 300 300"><defs><symbol overflow="visible"><path d="M.453 1.594v-7.938h4.5v7.938zm.5-.5h3.5v-6.938h-3.5zm0 0"/></symbol><symbol overflow="visible" id="a"><path d="M3.547-5.953c-.65 0-1.164.242-1.547.72-.375.48-.563 1.13-.563 1.952 0 .835.188 1.49.563 1.967.383.48.898.72 1.547.72.644 0 1.156-.24 1.53-.72.376-.476.564-1.132.564-1.968 0-.822-.187-1.474-.562-1.954-.375-.477-.887-.72-1.53-.72zm0-.734c.914 0 1.648.312 2.203.937.55.617.828 1.438.828 2.47 0 1.042-.277 1.87-.828 2.483-.555.617-1.29.922-2.203.922-.93 0-1.668-.305-2.22-.922C.774-1.41.5-2.237.5-3.28c0-1.033.273-1.853.828-2.47.55-.625 1.29-.938 2.22-.938zm0 0"/></symbol><symbol overflow="visible" id="b"><path d="M.89-6.563H2.08l2.906 5.485v-5.484h.86V0H4.656L1.75-5.484V0H.89zm0 0"/></symbol><symbol overflow="visible" id="c"><path d="M.89-6.563h.876v2.688H5v-2.688h.89V0H5v-3.125H1.766V0H.89zm0 0"/></symbol><symbol overflow="visible"><path d="M.406 1.422V-5.64h4V1.42zM.844.97h3.11v-6.157H.843zm0 0"/></symbol><symbol overflow="visible" id="d"><path d="M1.53-.672h2.767V0H.594v-.672c.29-.3.695-.71 1.22-1.234.518-.532.842-.867.967-1.016.26-.28.44-.52.533-.72.1-.194.156-.39.156-.577 0-.31-.11-.565-.33-.764-.218-.196-.5-.297-.843-.297-.25 0-.516.046-.797.14-.273.085-.563.214-.875.39v-.797c.32-.133.617-.234.89-.297.282-.062.536-.093.766-.093.603 0 1.083.152 1.44.453.362.304.546.703.546 1.203 0 .24-.047.468-.14.686-.095.22-.26.477-.485.766-.074.074-.288.293-.64.656-.344.356-.836.856-1.47 1.5zm0 0"/></symbol><symbol overflow="visible" id="e"><path d="M3.688-5.016v2.172h2.17v.672H3.69V0H3.03v-2.172H.845v-.672H3.03v-2.172zm0 0"/></symbol></defs><g><path fill="#fff" d="M0 0h300v300H0z"/><path d="M187.266 148.05h-8.282" stroke-width="1.2" stroke="#f00" stroke-miterlimit="10" fill="none"/><path d="M178.984 148.05h-8.28" stroke-width="1.2" stroke="#000" stroke-miterlimit="10" fill="none"/><path d="M187.266 151.95h-8.282" stroke-width="1.2" stroke="#f00" stroke-miterlimit="10" fill="none"/><path d="M178.984 151.95h-8.28" stroke-width="1.2" stroke="#000" stroke-miterlimit="10" fill="none"/><path d="M183.266 144.5h8v11h-8zm0 0" fill="#fff"/><use xlink:href="#a" x="183.266" y="153.163" fill="#f00"/><path d="M170.703 150l-8.28 14.344M170.703 150l-8.28-14.344M162.422 164.344H145.86M162.422 164.344l8.28 14.344M159.875 167.727l6.625 11.476M145.86 164.344L137.577 150M137.578 150l8.28-14.344M145.86 135.656h16.562M162.422 135.656l8.28-14.344M166.625 136.172l6.625-11.477M170.703 121.313l-8.28-14.344M162.422 106.97l8.28-14.345M159.875 103.586L166.5 92.11M145.86 106.97h16.562M170.703 92.625l-8.28-14.344M162.422 78.28H145.86M160.766 82.18h-13.25M145.86 78.28l-8.282 14.345M145.86 78.28l-8.282-14.343M137.578 92.625l8.28 14.344M141.78 92.11l6.626 11.476M137.578 63.938h-8.28" stroke-width="1.2" stroke="#000" stroke-miterlimit="10" fill="none"/><path d="M129.297 63.938h-8.28" stroke-width="1.2" stroke="#00f" stroke-miterlimit="10" fill="none"/><path d="M137.578 63.938l8.28-14.344" stroke-width="1.2" stroke="#000" stroke-miterlimit="10" fill="none"/><path d="M121.016 63.938l-4.14-7.172" stroke-width="1.2" stroke="#00f" stroke-miterlimit="10" fill="none"/><path d="M116.875 56.766l-4.14-7.172" stroke-width="1.2" stroke="#000" stroke-miterlimit="10" fill="none"/><path d="M108.016 54.438h26v19h-26zm0 0" fill="#fff"/><g fill="#00f"><use xlink:href="#b" x="108.016" y="66.539"/><use xlink:href="#c" x="114.993" y="66.539"/></g><use xlink:href="#d" x="122.008" y="71.422" fill="#00f"/><use xlink:href="#e" x="126.958" y="61.656" fill="#00f"/><path d="M145.86 49.594l-4.14-7.172" stroke-width="1.2" stroke="#000" stroke-miterlimit="10" fill="none"/><path d="M141.72 42.422l-4.142-7.172" stroke-width="1.2" stroke="#f00" stroke-miterlimit="10" fill="none"/><path d="M122.578 29.75h15v11h-15zm0 0" fill="#fff"/><g fill="#f00"><use xlink:href="#c" x="122.578" y="38.413"/><use xlink:href="#a" x="129.593" y="38.413"/></g><path d="M170.703 178.688l-8.28 14.343M162.422 193.03H145.86M160.766 196.93h-13.25M170.703 207.375l-8.28-14.344M145.86 193.03l-8.282 14.345M137.578 207.375l8.28 14.344M141.78 206.86l6.626 11.476M145.86 221.72h16.562M145.86 221.72l-8.282 14.343M162.422 221.72l8.28-14.345M159.875 218.336l6.625-11.477M137.578 236.063l4.14 7.17" stroke-width="1.2" stroke="#000" stroke-miterlimit="10" fill="none"/><path d="M141.72 243.234l4.14 7.172" stroke-width="1.2" stroke="#00f" stroke-miterlimit="10" fill="none"/><path d="M137.578 236.063h-16.562" stroke-width="1.2" stroke="#000" stroke-miterlimit="10" fill="none"/><path d="M145.86 250.406l-4.14 7.172" stroke-width="1.2" stroke="#00f" stroke-miterlimit="10" fill="none"/><path d="M141.72 257.578l-4.142 7.172" stroke-width="1.2" stroke="#000" stroke-miterlimit="10" fill="none"/><path d="M132.86 240.906h26v19h-26zm0 0" fill="#fff"/><g fill="#00f"><use xlink:href="#b" x="132.859" y="253.008"/><use xlink:href="#c" x="139.837" y="253.008"/></g><use xlink:href="#d" x="146.852" y="257.891" fill="#00f"/><use xlink:href="#e" x="151.802" y="248.125" fill="#00f"/><path d="M121.016 236.063l-4.14 7.17" stroke-width="1.2" stroke="#000" stroke-miterlimit="10" fill="none"/><path d="M116.875 243.234l-4.14 7.172" stroke-width="1.2" stroke="#f00" stroke-miterlimit="10" fill="none"/><path d="M97.734 244.906h15v11h-15zm0 0" fill="#fff"/><g fill="#f00"><use xlink:href="#c" x="97.734" y="253.569"/><use xlink:href="#a" x="104.749" y="253.569"/></g></g></svg>