<svg xmlns="http://www.w3.org/2000/svg" xmlns:xlink="http://www.w3.org/1999/xlink" width="300pt" height="300pt" viewBox="0 0 300 300"><defs><symbol overflow="visible"><path d="M.453 1.594v-7.938h4.5v7.938zm.5-.5h3.5v-6.938h-3.5zm0 0"/></symbol><symbol overflow="visible" id="a"><path d="M4.813-6.344v.86c-.336-.157-.653-.27-.954-.344-.294-.082-.58-.125-.86-.125-.492 0-.867.094-1.125.28-.262.19-.39.454-.39.798 0 .293.085.512.265.656.176.15.504.267.984.36l.547.11c.658.125 1.142.352 1.454.672.32.312.485.734.485 1.265 0 .637-.216 1.122-.642 1.454-.43.325-1.055.485-1.875.485-.312 0-.648-.04-1-.11C1.36-.046 1-.147.625-.296v-.906c.352.2.703.35 1.047.453.35.105.695.156 1.03.156.5 0 .884-.097 1.157-.297.28-.196.42-.485.42-.86 0-.32-.1-.57-.296-.75-.2-.176-.523-.313-.968-.406l-.547-.11C1.81-3.148 1.33-3.36 1.03-3.64.74-3.923.595-4.313.595-4.813c0-.57.203-1.024.61-1.36.405-.344.968-.516 1.687-.516.313 0 .626.032.938.094.32.055.65.137.985.25zm0 0"/></symbol><symbol overflow="visible" id="b"><path d="M3.547-5.953c-.65 0-1.164.242-1.547.72-.375.48-.563 1.13-.563 1.952 0 .835.188 1.49.563 1.967.383.48.898.72 1.547.72.644 0 1.156-.24 1.53-.72.376-.476.564-1.132.564-1.968 0-.822-.187-1.474-.562-1.954-.375-.477-.887-.72-1.53-.72zm0-.734c.914 0 1.648.312 2.203.937.55.617.828 1.438.828 2.47 0 1.042-.277 1.87-.828 2.483-.555.617-1.29.922-2.203.922-.93 0-1.668-.305-2.22-.922C.774-1.41.5-2.237.5-3.28c0-1.033.273-1.853.828-2.47.55-.625 1.29-.938 2.22-.938zm0 0"/></symbol><symbol overflow="visible" id="c"><path d="M.89-6.563h.876v2.688H5v-2.688h.89V0H5v-3.125H1.766V0H.89zm0 0"/></symbol></defs><g><path fill="#fff" d="M0 0h300v300H0z"/><path d="M55.258 163.625l3.668 11.336" stroke-width="1.2" stroke="#cc0" stroke-miterlimit="10" fill="none"/><path d="M58.926 174.96l3.672 11.337" stroke-width="1.2" stroke="#f00" stroke-miterlimit="10" fill="none"/><path d="M60.59 161.898l3.672 11.336" stroke-width="1.2" stroke="#cc0" stroke-miterlimit="10" fill="none"/><path d="M64.262 173.234l3.672 11.336" stroke-width="1.2" stroke="#f00" stroke-miterlimit="10" fill="none"/><path d="M60.59 161.898l-3.668-11.34" stroke-width="1.2" stroke="#cc0" stroke-miterlimit="10" fill="none"/><path d="M56.922 150.56l-3.672-11.337" stroke-width="1.2" stroke="#f00" stroke-miterlimit="10" fill="none"/><path d="M55.258 163.625l-3.672-11.336" stroke-width="1.2" stroke="#cc0" stroke-miterlimit="10" fill="none"/><path d="M51.586 152.29l-3.672-11.34" stroke-width="1.2" stroke="#f00" stroke-miterlimit="10" fill="none"/><path d="M57.926 162.762l-11.34 3.668" stroke-width="1.2" stroke="#cc0" stroke-miterlimit="10" fill="none"/><path d="M46.586 166.43l-11.336 3.672" stroke-width="1.2" stroke="#000" stroke-miterlimit="10" fill="none"/><path d="M57.926 162.762l11.336-3.672" stroke-width="1.2" stroke="#cc0" stroke-miterlimit="10" fill="none"/><path d="M69.262 159.09l11.336-3.672" stroke-width="1.2" stroke="#000" stroke-miterlimit="10" fill="none"/><path d="M54.926 157.262h6v11h-6zm0 0" fill="#fff"/><use xlink:href="#a" x="54.926" y="165.925" fill="#cc0"/><path d="M61.266 179.934h8v11h-8zm0 0" fill="#fff"/><use xlink:href="#b" x="61.266" y="188.597" fill="#f00"/><path d="M42.582 134.586h8v11h-8zm0 0" fill="#fff"/><use xlink:href="#b" x="42.582" y="143.249" fill="#f00"/><path d="M80.598 155.418l4.98-23.305M86.582 154.258l3.98-18.645M98.293 171.383l-17.695-15.965M85.578 132.113l22.672-7.343M108.25 124.77l17.695 15.964M106.266 130.53l14.156 12.77M125.945 140.734l-4.976 23.31M125.945 140.734l22.676-7.34M120.97 164.043l-22.677 7.34M116.973 159.44l-18.14 5.876M148.62 133.395l22.677-7.344M152.617 137.996l18.137-5.875M149.16 127.324l18.14-5.875M171.297 126.05l22.672-7.34M196.71 119.297l2.49-11.656" stroke-width="1.2" stroke="#000" stroke-miterlimit="10" fill="none"/><path d="M199.2 107.64l2.49-11.652" stroke-width="1.2" stroke="#f00" stroke-miterlimit="10" fill="none"/><path d="M191.227 118.125l2.488-11.656" stroke-width="1.2" stroke="#000" stroke-miterlimit="10" fill="none"/><path d="M193.715 106.47l2.492-11.654" stroke-width="1.2" stroke="#f00" stroke-miterlimit="10" fill="none"/><path d="M193.97 118.71l17.694 15.966" stroke-width="1.2" stroke="#000" stroke-miterlimit="10" fill="none"/><path d="M194.95 89.902h8v11h-8zm0 0" fill="#fff"/><use xlink:href="#b" x="194.949" y="98.565" fill="#f00"/><path d="M211.664 134.676l-4.98 23.308M216.652 138.176l-3.984 18.648M234.34 127.332l-22.676 7.344M206.684 157.984l17.695 15.965M224.38 173.95l-2.49 11.652" stroke-width="1.2" stroke="#000" stroke-miterlimit="10" fill="none"/><path d="M221.89 185.602l-2.488 11.652" stroke-width="1.2" stroke="#f00" stroke-miterlimit="10" fill="none"/><path d="M224.38 173.95l22.675-7.345M224.922 167.88l18.137-5.876" stroke-width="1.2" stroke="#000" stroke-miterlimit="10" fill="none"/><path d="M219.402 197.254l-11.336 3.672" stroke-width="1.2" stroke="#f00" stroke-miterlimit="10" fill="none"/><path d="M208.066 200.926l-11.34 3.672" stroke-width="1.2" stroke="#000" stroke-miterlimit="10" fill="none"/><path d="M215.402 191.754h8v11h-8zm0 0" fill="#fff"/><use xlink:href="#b" x="215.402" y="200.417" fill="#f00"/><path d="M247.055 166.605l8.847 7.985" stroke-width="1.2" stroke="#000" stroke-miterlimit="10" fill="none"/><path d="M255.902 174.59l8.848 7.98" stroke-width="1.2" stroke="#f00" stroke-miterlimit="10" fill="none"/><path d="M247.055 166.605l4.98-23.304" stroke-width="1.2" stroke="#000" stroke-miterlimit="10" fill="none"/><path d="M257.75 177.07h15v11h-15zm0 0" fill="#fff"/><g fill="#f00"><use xlink:href="#b" x="257.75" y="185.733"/><use xlink:href="#c" x="265.092" y="185.733"/></g><path d="M252.035 143.3l-17.695-15.968M246.508 145.867l-14.156-12.773" stroke-width="1.2" stroke="#000" stroke-miterlimit="10" fill="none"/></g></svg>