<svg xmlns="http://www.w3.org/2000/svg" xmlns:xlink="http://www.w3.org/1999/xlink" width="300pt" height="300pt" viewBox="0 0 300 300"><defs><symbol overflow="visible"><path d="M.453 1.594v-7.938h4.5v7.938zm.5-.5h3.5v-6.938h-3.5zm0 0"/></symbol><symbol overflow="visible" id="a"><path d="M5.797-6.063v.938c-.305-.27-.625-.473-.97-.61-.335-.144-.686-.218-1.06-.218-.75 0-1.33.23-1.736.687-.397.46-.592 1.12-.592 1.985 0 .866.195 1.526.593 1.983.408.46.986.688 1.736.688.375 0 .726-.066 1.062-.203.344-.132.664-.343.97-.625V-.5c-.314.21-.642.367-.986.47-.343.1-.714.155-1.11.155-.99 0-1.772-.3-2.343-.906C.784-1.396.5-2.228.5-3.28c0-1.052.285-1.88.86-2.486.57-.613 1.35-.92 2.343-.92.395-.002.766.053 1.11.155.35.104.68.26.984.468zm0 0"/></symbol><symbol overflow="visible" id="b"><path d="M.844-6.844h.812V0H.844zm0 0"/></symbol><symbol overflow="visible" id="c"><path d="M3.547-5.953c-.65 0-1.164.242-1.547.72-.375.48-.563 1.13-.563 1.952 0 .835.188 1.49.563 1.967.383.48.898.72 1.547.72.644 0 1.156-.24 1.53-.72.376-.476.564-1.132.564-1.968 0-.822-.187-1.474-.562-1.954-.375-.477-.887-.72-1.53-.72zm0-.734c.914 0 1.648.312 2.203.937.55.617.828 1.438.828 2.47 0 1.042-.277 1.87-.828 2.483-.555.617-1.29.922-2.203.922-.93 0-1.668-.305-2.22-.922C.774-1.41.5-2.237.5-3.28c0-1.033.273-1.853.828-2.47.55-.625 1.29-.938 2.22-.938zm0 0"/></symbol><symbol overflow="visible" id="d"><path d="M.89-6.563H2.08l2.906 5.485v-5.484h.86V0H4.656L1.75-5.484V0H.89zm0 0"/></symbol></defs><g><path fill="#fff" d="M0 0h300v300H0z"/><path d="M264.75 130.445l-11.867-3.906" stroke-width="1.2" stroke="#0c0" stroke-miterlimit="10" fill="none"/><path d="M252.883 126.54l-11.867-3.91" stroke-width="1.2" stroke="#000" stroke-miterlimit="10" fill="none"/><path d="M259.75 124.945h10v11h-10zm0 0" fill="#fff"/><g fill="#0c0"><use xlink:href="#a" x="259.75" y="133.608"/><use xlink:href="#b" x="266.264" y="133.608"/></g><path d="M241.016 122.63l-18.633 16.647M235.238 119.91l-14.91 13.317M235.918 98.168l5.098 24.46M222.383 139.277l-23.735-7.816M198.648 131.46L193.55 107M203.895 127.813l-4.08-19.567M193.55 107l18.637-16.648M193.55 107l-23.734-7.816M212.188 90.352l23.73 7.816M212.72 96.72l18.987 6.253M172.695 98.582l-2.547-12.23" stroke-width="1.2" stroke="#000" stroke-miterlimit="10" fill="none"/><path d="M170.148 86.352l-2.55-12.23" stroke-width="1.2" stroke="#f00" stroke-miterlimit="10" fill="none"/><path d="M166.94 99.78l-2.55-12.23" stroke-width="1.2" stroke="#000" stroke-miterlimit="10" fill="none"/><path d="M164.39 87.55l-2.546-12.23" stroke-width="1.2" stroke="#f00" stroke-miterlimit="10" fill="none"/><path d="M169.816 99.184l-9.316 8.32" stroke-width="1.2" stroke="#000" stroke-miterlimit="10" fill="none"/><path d="M160.5 107.504l-9.316 8.324" stroke-width="1.2" stroke="#00f" stroke-miterlimit="10" fill="none"/><path d="M160.72 69.223h8v11h-8zm0 0" fill="#fff"/><use xlink:href="#c" x="160.719" y="77.886" fill="#f00"/><path d="M151.184 115.828l1.254 12.43" stroke-width="1.2" stroke="#00f" stroke-miterlimit="10" fill="none"/><path d="M152.438 128.258l1.257 12.43M126.762 110.535l12.21 2.65" stroke-width="1.2" stroke="#000" stroke-miterlimit="10" fill="none"/><path d="M138.973 113.184l12.21 2.644" stroke-width="1.2" stroke="#00f" stroke-miterlimit="10" fill="none"/><path d="M148.184 110.328h7v11h-7zm0 0" fill="#fff"/><use xlink:href="#d" x="148.184" y="118.991" fill="#00f"/><path d="M153.695 140.688l-22.867 10.074M173.852 155.457l-20.157-14.77M168.363 158.723l-16.125-11.817M130.828 150.762l-2.71 24.84M136.402 153.883l-2.168 19.87M130.828 150.762l-16.644-18.637M128.117 175.602l20.156 14.765M148.273 190.367l-1.355 12.418" stroke-width="1.2" stroke="#000" stroke-miterlimit="10" fill="none"/><path d="M146.918 202.785l-1.356 12.422" stroke-width="1.2" stroke="#f00" stroke-miterlimit="10" fill="none"/><path d="M148.273 190.367l22.868-10.074M148.19 183.98l18.294-8.058" stroke-width="1.2" stroke="#000" stroke-miterlimit="10" fill="none"/><path d="M145.563 215.207l-11.434 5.035" stroke-width="1.2" stroke="#f00" stroke-miterlimit="10" fill="none"/><path d="M134.13 220.242l-11.435 5.035" stroke-width="1.2" stroke="#000" stroke-miterlimit="10" fill="none"/><path d="M141.563 209.707h8v11h-8zm0 0" fill="#fff"/><use xlink:href="#c" x="141.563" y="218.37" fill="#f00"/><path d="M171.14 180.293l2.712-24.836M114.184 132.125l-24.86 2.512M114.184 132.125l12.578-21.59M120.52 132.926l10.066-17.27M89.324 134.637l-14.61-20.274M74.715 114.363l-12.43 1.258" stroke-width="1.2" stroke="#000" stroke-miterlimit="10" fill="none"/><path d="M62.285 115.62l-12.43 1.26" stroke-width="1.2" stroke="#f00" stroke-miterlimit="10" fill="none"/><path d="M77.398 115.57l5.125-11.39" stroke-width="1.2" stroke="#000" stroke-miterlimit="10" fill="none"/><path d="M82.523 104.18l5.13-11.395" stroke-width="1.2" stroke="#f00" stroke-miterlimit="10" fill="none"/><path d="M72.035 113.16l5.13-11.394" stroke-width="1.2" stroke="#000" stroke-miterlimit="10" fill="none"/><path d="M77.164 101.766L82.29 90.37M49.855 116.88l-7.3-10.138" stroke-width="1.2" stroke="#f00" stroke-miterlimit="10" fill="none"/><path d="M42.555 106.742L35.25 96.605" stroke-width="1.2" stroke="#000" stroke-miterlimit="10" fill="none"/><path d="M45.855 111.38h8v11h-8zm0 0" fill="#fff"/><use xlink:href="#c" x="45.855" y="120.042" fill="#f00"/><path d="M80.97 86.078h8v11h-8zm0 0" fill="#fff"/><use xlink:href="#c" x="80.969" y="94.741" fill="#f00"/><path d="M126.762 110.535l-10.07-22.867" stroke-width="1.2" stroke="#000" stroke-miterlimit="10" fill="none"/></g></svg>