<svg xmlns="http://www.w3.org/2000/svg" xmlns:xlink="http://www.w3.org/1999/xlink" width="300pt" height="300pt" viewBox="0 0 300 300"><defs><symbol overflow="visible"><path d="M.64 2.297v-11.47h6.5v11.47zm.735-.72h5.047V-8.436H1.375zm0 0"/></symbol><symbol overflow="visible" id="a"><path d="M8.375-8.75v1.36c-.438-.407-.902-.708-1.39-.907-.48-.195-.997-.297-1.548-.297-1.085 0-1.917.336-2.5 1-.574.657-.86 1.61-.86 2.86 0 1.25.286 2.21.86 2.875.583.657 1.415.985 2.5.985.55 0 1.067-.098 1.547-.297.49-.195.954-.492 1.39-.89v1.328c-.448.312-.92.546-1.42.703-.5.143-1.032.217-1.595.217-1.438 0-2.57-.437-3.39-1.312C1.144-2.008.733-3.21.733-4.735c0-1.52.41-2.718 1.235-3.593.82-.883 1.952-1.328 3.39-1.328.562 0 1.093.078 1.593.234.508.15.984.37 1.422.672zm0 0"/></symbol><symbol overflow="visible" id="b"><path d="M1.22-9.875h1.17V0H1.22zm0 0"/></symbol><symbol overflow="visible" id="c"><path d="M1.28-9.484H3l4.203 7.937v-7.937h1.25V0H6.72L2.515-7.922V0H1.28zm0 0"/></symbol><symbol overflow="visible" id="d"><path d="M6.953-9.172v1.25c-.48-.226-.937-.398-1.375-.516-.43-.113-.844-.17-1.25-.17-.7 0-1.242.135-1.625.405-.375.273-.562.656-.562 1.156 0 .418.126.734.376.953.257.21.738.383 1.437.516l.78.156c.947.188 1.65.512 2.11.97.458.46.688 1.073.688 1.843 0 .92-.307 1.618-.92 2.094-.618.47-1.524.704-2.72.704-.45 0-.93-.055-1.437-.157C1.953-.07 1.43-.222.89-.42v-1.312c.52.293 1.032.51 1.532.656.5.148.988.22 1.47.22.737 0 1.303-.142 1.702-.423.394-.29.593-.704.593-1.236 0-.468-.148-.832-.437-1.093-.28-.257-.746-.456-1.39-.593l-.782-.156c-.96-.187-1.652-.484-2.078-.89-.43-.406-.64-.97-.64-1.688 0-.843.288-1.503.874-1.984.594-.488 1.41-.734 2.454-.734.437 0 .882.043 1.343.125.47.085.943.202 1.423.358zm0 0"/></symbol><symbol overflow="visible" id="e"><path d="M5.125-8.61c-.938 0-1.684.352-2.234 1.047-.542.688-.812 1.633-.812 2.83 0 1.198.27 2.147.813 2.842.55.687 1.297 1.03 2.235 1.03.926 0 1.66-.343 2.203-1.03.55-.696.828-1.645.828-2.844 0-1.196-.277-2.14-.828-2.829-.543-.695-1.277-1.046-2.203-1.046zm0-1.046c1.32 0 2.38.45 3.172 1.344.8.898 1.203 2.09 1.203 3.578 0 1.5-.402 2.7-1.203 3.593C7.504-.255 6.445.186 5.125.186c-1.336 0-2.402-.44-3.203-1.328C1.13-2.036.734-3.235.734-4.735c0-1.49.395-2.68 1.188-3.579.8-.894 1.867-1.343 3.203-1.343zm0 0"/></symbol><symbol overflow="visible" id="f"><path d="M1.28-9.484h1.282v3.89H7.22v-3.89H8.5V0H7.22v-4.516H2.562V0H1.28zm0 0"/></symbol><symbol overflow="visible"><path d="M.547 1.938V-7.75h5.5v9.688zm.625-.61h4.266v-8.47H1.171zm0 0"/></symbol><symbol overflow="visible" id="g"><path d="M2.11-.906h3.78V0H.814v-.906c.406-.426.96-1 1.67-1.72.72-.718 1.165-1.18 1.345-1.39.344-.394.582-.726.72-1 .143-.27.218-.535.218-.796 0-.426-.153-.77-.454-1.032-.292-.27-.683-.406-1.17-.406-.337 0-.697.063-1.08.188-.374.117-.777.292-1.203.53v-1.093c.437-.176.843-.313 1.218-.406.383-.095.735-.142 1.047-.142.832 0 1.492.21 1.984.625.5.418.75.977.75 1.672 0 .336-.063.648-.188.938-.125.292-.352.64-.672 1.046-.094.105-.383.406-.86.906L2.11-.906zm0 0"/></symbol></defs><g><path fill="#fff" d="M0 0h300v300H0z"/><path d="M262.07 252.086l-7.527-14.586" stroke-width="1.2" stroke="#0c0" stroke-miterlimit="10" fill="none"/><path d="M254.543 237.5l-7.527-14.582" stroke-width="1.2" stroke="#000" stroke-miterlimit="10" fill="none"/><path d="M255.07 244.086h14v16h-14zm0 0" fill="#fff"/><g fill="#0c0"><use xlink:href="#a" x="255.07" y="256.462"/><use xlink:href="#b" x="264.377" y="256.462"/></g><path d="M247.016 222.918l-32.786-1.547M244.102 215.047l-26.227-1.238M264.75 195.297l-17.734 27.62M214.23 221.37l-15.05-29.167M199.18 192.203l17.73-27.62M207.45 193.613l14.187-22.093M199.18 192.203l-32.785-1.547M216.91 164.582l16.395.773" stroke-width="1.2" stroke="#000" stroke-miterlimit="10" fill="none"/><path d="M233.305 165.355l16.39.774" stroke-width="1.2" stroke="#00f" stroke-miterlimit="10" fill="none"/><path d="M216.91 164.582l-15.05-29.164" stroke-width="1.2" stroke="#000" stroke-miterlimit="10" fill="none"/><path d="M249.695 166.13l7.528 14.585" stroke-width="1.2" stroke="#00f" stroke-miterlimit="10" fill="none"/><path d="M257.223 180.715l7.527 14.582" stroke-width="1.2" stroke="#000" stroke-miterlimit="10" fill="none"/><path d="M244.34 172.59l6.02 11.668" stroke-width="1.2" stroke="#00f" stroke-miterlimit="10" fill="none"/><path d="M250.36 184.258l6.023 11.664" stroke-width="1.2" stroke="#000" stroke-miterlimit="10" fill="none"/><path d="M244.695 158.13h10v16h-10zm0 0" fill="#fff"/><use xlink:href="#c" x="244.695" y="170.505" fill="#00f"/><path d="M201.86 135.418l17.73-27.62M197.133 128.48l14.187-22.093M169.074 133.87l32.785 1.548M219.59 107.797L204.54 78.63M204.54 78.63l-32.786-1.548M200.895 86.19l-26.227-1.237M171.754 77.082l-8.867 13.813" stroke-width="1.2" stroke="#000" stroke-miterlimit="10" fill="none"/><path d="M162.887 90.895l-8.867 13.808" stroke-width="1.2" stroke="#00f" stroke-miterlimit="10" fill="none"/><path d="M171.754 77.082L156.7 47.914" stroke-width="1.2" stroke="#000" stroke-miterlimit="10" fill="none"/><path d="M154.02 104.703l7.527 14.582" stroke-width="1.2" stroke="#00f" stroke-miterlimit="10" fill="none"/><path d="M161.547 119.285l7.527 14.586" stroke-width="1.2" stroke="#000" stroke-miterlimit="10" fill="none"/><path d="M162.387 104.078l6.023 11.664" stroke-width="1.2" stroke="#00f" stroke-miterlimit="10" fill="none"/><path d="M168.41 115.742l6.02 11.668" stroke-width="1.2" stroke="#000" stroke-miterlimit="10" fill="none"/><path d="M149.02 96.703h10v16h-10zm0 0" fill="#fff"/><use xlink:href="#c" x="149.02" y="109.079" fill="#00f"/><path d="M166.395 190.656l-15.055-29.168M158.023 191.28l-12.04-23.33M148.66 218.277l17.735-27.62M151.34 161.488l-32.785-1.547M118.555 159.94l-17.735 27.623M123.28 166.875l-14.186 22.098M100.82 187.563l-16.39-.774" stroke-width="1.2" stroke="#000" stroke-miterlimit="10" fill="none"/><path d="M84.43 186.79l-16.395-.774" stroke-width="1.2" stroke="#cc0" stroke-miterlimit="10" fill="none"/><path d="M100.82 187.563l15.055 29.164" stroke-width="1.2" stroke="#000" stroke-miterlimit="10" fill="none"/><path d="M71.895 186.195l.773-16.39" stroke-width="1.2" stroke="#cc0" stroke-miterlimit="10" fill="none"/><path d="M72.668 169.805l.773-16.395" stroke-width="1.2" stroke="#f00" stroke-miterlimit="10" fill="none"/><path d="M64.18 185.832l.773-16.394" stroke-width="1.2" stroke="#cc0" stroke-miterlimit="10" fill="none"/><path d="M64.953 169.438l.774-16.39" stroke-width="1.2" stroke="#f00" stroke-miterlimit="10" fill="none"/><path d="M64.18 185.832l-.774 16.395" stroke-width="1.2" stroke="#cc0" stroke-miterlimit="10" fill="none"/><path d="M63.406 202.227l-.773 16.39" stroke-width="1.2" stroke="#f00" stroke-miterlimit="10" fill="none"/><path d="M71.895 186.195l-.774 16.395" stroke-width="1.2" stroke="#cc0" stroke-miterlimit="10" fill="none"/><path d="M71.12 202.59l-.776 16.39" stroke-width="1.2" stroke="#f00" stroke-miterlimit="10" fill="none"/><path d="M68.035 186.016l-16.39-.774" stroke-width="1.2" stroke="#cc0" stroke-miterlimit="10" fill="none"/><path d="M51.645 185.242l-16.395-.773" stroke-width="1.2" stroke="#00f" stroke-miterlimit="10" fill="none"/><path d="M64.035 178.016h9v16h-9zm0 0" fill="#fff"/><use xlink:href="#d" x="64.035" y="190.392" fill="#cc0"/><path d="M64.582 145.23h11v16h-11zm0 0" fill="#fff"/><use xlink:href="#e" x="64.582" y="157.606" fill="#f00"/><path d="M61.488 210.8h11v16h-11zm0 0" fill="#fff"/><use xlink:href="#e" x="61.488" y="223.177" fill="#f00"/><path d="M7.25 174.47h28v20h-28zm0 0" fill="#fff"/><use xlink:href="#f" x="7.25" y="186.845" fill="#00f"/><use xlink:href="#g" x="17.272" y="191.728" fill="#00f"/><use xlink:href="#c" x="24.341" y="186.845" fill="#00f"/><path d="M115.875 216.727l32.785 1.55M119.516 209.168l26.23 1.238" stroke-width="1.2" stroke="#000" stroke-miterlimit="10" fill="none"/></g></svg>