<svg xmlns="http://www.w3.org/2000/svg" xmlns:xlink="http://www.w3.org/1999/xlink" width="300pt" height="300pt" viewBox="0 0 300 300"><defs><symbol overflow="visible"><path d="M.594 2.125V-8.47h6V2.126zm.672-.672h4.671V-7.78h-4.67zm0 0"/></symbol><symbol overflow="visible" id="a"><path d="M7.734-8.078v1.25c-.406-.375-.836-.65-1.28-.828-.45-.188-.93-.282-1.438-.282-1 0-1.766.31-2.297.922-.533.618-.798 1.5-.798 2.657 0 1.15.266 2.028.797 2.64.53.618 1.296.923 2.296.923.507 0 .988-.094 1.437-.28.445-.19.875-.462 1.28-.83V-.67c-.417.28-.858.496-1.327.64-.46.134-.945.204-1.453.204-1.336 0-2.383-.406-3.14-1.22-.762-.81-1.14-1.913-1.14-3.31 0-1.408.378-2.517 1.14-3.33.757-.812 1.804-1.218 3.14-1.218.52 0 1.008.074 1.47.22.468.135.905.338 1.31.608zm0 0"/></symbol><symbol overflow="visible" id="b"><path d="M1.125-9.125h1.078V0H1.125zm0 0"/></symbol><symbol overflow="visible" id="c"><path d="M4.734-7.953c-.867 0-1.554.324-2.062.97-.5.635-.75 1.51-.75 2.624 0 1.094.25 1.965.75 2.61.508.637 1.195.953 2.062.953.852 0 1.532-.316 2.032-.953.507-.645.765-1.516.765-2.61 0-1.113-.257-1.988-.764-2.624-.5-.645-1.18-.97-2.032-.97zm0-.953c1.22 0 2.192.414 2.922 1.234.74.824 1.11 1.93 1.11 3.313 0 1.376-.37 2.477-1.11 3.298C6.926-.24 5.953.17 4.734.17c-1.23 0-2.214-.41-2.953-1.234C1.04-1.882.673-2.984.673-4.36c0-1.382.367-2.488 1.11-3.312.738-.82 1.722-1.234 2.952-1.234zm0 0"/></symbol><symbol overflow="visible" id="d"><path d="M6.422-8.47v1.158c-.45-.208-.875-.364-1.28-.47-.4-.113-.78-.17-1.142-.17-.648 0-1.148.124-1.5.374-.344.25-.516.61-.516 1.078 0 .387.114.68.344.875.227.2.672.355 1.328.47L4.36-5c.882.168 1.535.465 1.952.89.426.42.64.98.64 1.688 0 .856-.288 1.5-.858 1.938-.563.437-1.4.656-2.5.656-.406 0-.844-.047-1.313-.14C1.814-.064 1.33-.204.83-.392v-1.22c.477.274.945.477 1.406.61.47.137.922.203 1.36.203.676 0 1.195-.13 1.562-.39.375-.27.563-.65.563-1.14 0-.427-.138-.76-.407-1-.262-.25-.696-.43-1.297-.548l-.72-.14c-.886-.176-1.526-.454-1.92-.83-.388-.374-.58-.893-.58-1.56 0-.782.27-1.392.813-1.83.538-.445 1.288-.67 2.25-.67.413 0 .83.038 1.25.108.425.074.863.184 1.312.328zm0 0"/></symbol></defs><g><path fill="#fff" d="M0 0h300v300H0z"/><path d="M264.75 99.477l-14.305 5.187" stroke-width="1.2" stroke="#0c0" stroke-miterlimit="10" fill="none"/><path d="M250.445 104.664l-14.304 5.188" stroke-width="1.2" stroke="#000" stroke-miterlimit="10" fill="none"/><path d="M258.75 92.477h12v14h-12zm0 0" fill="#fff"/><g fill="#0c0"><use xlink:href="#a" x="258.75" y="103.615"/><use xlink:href="#b" x="267.129" y="103.615"/></g><path d="M236.14 109.852l-5.316 29.968M228.56 111.598l-4.255 23.972M212.848 90.266l23.293 19.586M230.824 139.82l-28.613 10.375M202.21 150.195l-23.288-19.59M204.492 142.758l-18.633-15.672M202.21 150.195l-5.315 29.965M178.922 130.605l5.316-29.964M184.238 100.64l28.61-10.374M189.543 106.336l22.887-8.3M212.848 90.266l2.66-14.985" stroke-width="1.2" stroke="#000" stroke-miterlimit="10" fill="none"/><path d="M215.508 75.28l2.66-14.98M218.168 60.3l-11.648-9.796" stroke-width="1.2" stroke="#f00" stroke-miterlimit="10" fill="none"/><path d="M206.52 50.504l-11.645-9.793" stroke-width="1.2" stroke="#000" stroke-miterlimit="10" fill="none"/><path d="M213.168 53.3h10v14h-10zm0 0" fill="#fff"/><use xlink:href="#c" x="213.168" y="64.439" fill="#f00"/><path d="M196.895 180.16l21.117 21.918M193.848 187.32l16.894 17.532M169.527 193.473l27.368-13.313M218.012 202.078l-14.317 26.852M203.695 228.93l-29.968-5.317M203.695 228.93l25.21 17.047M201.535 259.29l2.16-30.36M173.727 223.613l-4.2-30.14M180.398 219.61l-3.36-24.114M169.527 193.473l-26.855-14.32M142.672 179.152l-1.027-30.414M135.41 176.355l-.82-24.335M116.844 195.254l25.828-16.102M141.645 148.738l-26.856-14.316M114.79 134.422L88.96 150.52M115.992 142.105l-20.66 12.88M88.96 150.52l-13.43-7.16" stroke-width="1.2" stroke="#000" stroke-miterlimit="10" fill="none"/><path d="M75.53 143.36l-13.425-7.157" stroke-width="1.2" stroke="#cc0" stroke-miterlimit="10" fill="none"/><path d="M88.96 150.52l1.028 30.414" stroke-width="1.2" stroke="#000" stroke-miterlimit="10" fill="none"/><path d="M58.945 134.516l-7.16 13.43" stroke-width="1.2" stroke="#cc0" stroke-miterlimit="10" fill="none"/><path d="M51.785 147.945L44.63 161.37" stroke-width="1.2" stroke="#f00" stroke-miterlimit="10" fill="none"/><path d="M65.266 137.887l-7.16 13.425" stroke-width="1.2" stroke="#cc0" stroke-miterlimit="10" fill="none"/><path d="M58.105 151.313l-7.16 13.43" stroke-width="1.2" stroke="#f00" stroke-miterlimit="10" fill="none"/><path d="M65.266 137.887l7.156-13.43" stroke-width="1.2" stroke="#cc0" stroke-miterlimit="10" fill="none"/><path d="M72.422 124.457l7.16-13.426" stroke-width="1.2" stroke="#f00" stroke-miterlimit="10" fill="none"/><path d="M58.945 134.516l7.16-13.426" stroke-width="1.2" stroke="#cc0" stroke-miterlimit="10" fill="none"/><path d="M66.105 121.09l7.157-13.43" stroke-width="1.2" stroke="#f00" stroke-miterlimit="10" fill="none"/><path d="M62.105 136.203l-13.43-7.16" stroke-width="1.2" stroke="#cc0" stroke-miterlimit="10" fill="none"/><path d="M48.676 129.043l-13.426-7.16" stroke-width="1.2" stroke="#000" stroke-miterlimit="10" fill="none"/><path d="M58.105 129.203h8v14h-8zm0 0" fill="#fff"/><use xlink:href="#d" x="58.105" y="140.342" fill="#cc0"/><path d="M37.79 156.055h10v14h-10zm0 0" fill="#fff"/><use xlink:href="#c" x="37.789" y="167.193" fill="#f00"/><path d="M71.422 102.348h10v14h-10zm0 0" fill="#fff"/><use xlink:href="#c" x="71.422" y="113.486" fill="#f00"/><path d="M89.988 180.934l26.856 14.32M96.043 176.047l21.484 11.453M228.906 245.977l-27.37 13.312" stroke-width="1.2" stroke="#000" stroke-miterlimit="10" fill="none"/></g></svg>