<svg xmlns="http://www.w3.org/2000/svg" xmlns:xlink="http://www.w3.org/1999/xlink" width="300pt" height="300pt" viewBox="0 0 300 300"><defs><symbol overflow="visible"><path d="M.453 1.594v-7.938h4.5v7.938zm.5-.5h3.5v-6.938h-3.5zm0 0"/></symbol><symbol overflow="visible" id="a"><path d="M4.813-6.344v.86c-.336-.157-.653-.27-.954-.344-.294-.082-.58-.125-.86-.125-.492 0-.867.094-1.125.28-.262.19-.39.454-.39.798 0 .293.085.512.265.656.176.15.504.267.984.36l.547.11c.658.125 1.142.352 1.454.672.32.312.485.734.485 1.265 0 .637-.216 1.122-.642 1.454-.43.325-1.055.485-1.875.485-.312 0-.648-.04-1-.11C1.36-.046 1-.147.625-.296v-.906c.352.2.703.35 1.047.453.35.105.695.156 1.03.156.5 0 .884-.097 1.157-.297.28-.196.42-.485.42-.86 0-.32-.1-.57-.296-.75-.2-.176-.523-.313-.968-.406l-.547-.11C1.81-3.148 1.33-3.36 1.03-3.64.74-3.923.595-4.313.595-4.813c0-.57.203-1.024.61-1.36.405-.344.968-.516 1.687-.516.313 0 .626.032.938.094.32.055.65.137.985.25zm0 0"/></symbol><symbol overflow="visible" id="b"><path d="M.89-6.563H2.08l2.906 5.485v-5.484h.86V0H4.656L1.75-5.484V0H.89zm0 0"/></symbol><symbol overflow="visible" id="c"><path d="M.89-6.563h3.766v.75h-2.89v1.938h2.61v.734h-2.61V0H.89zm0 0"/></symbol><symbol overflow="visible" id="d"><path d="M3.547-5.953c-.65 0-1.164.242-1.547.72-.375.48-.563 1.13-.563 1.952 0 .835.188 1.49.563 1.967.383.48.898.72 1.547.72.644 0 1.156-.24 1.53-.72.376-.476.564-1.132.564-1.968 0-.822-.187-1.474-.562-1.954-.375-.477-.887-.72-1.53-.72zm0-.734c.914 0 1.648.312 2.203.937.55.617.828 1.438.828 2.47 0 1.042-.277 1.87-.828 2.483-.555.617-1.29.922-2.203.922-.93 0-1.668-.305-2.22-.922C.774-1.41.5-2.237.5-3.28c0-1.033.273-1.853.828-2.47.55-.625 1.29-.938 2.22-.938zm0 0"/></symbol></defs><g><path fill="#fff" d="M0 0h300v300H0z"/><path d="M179.523 164.29l-7.57-6.72" stroke-width="1.2" stroke="#cc0" stroke-miterlimit="10" fill="none"/><path d="M171.953 157.57l-7.566-6.722" stroke-width="1.2" stroke="#000" stroke-miterlimit="10" fill="none"/><path d="M179.523 164.29l9.602-3.196" stroke-width="1.2" stroke="#cc0" stroke-miterlimit="10" fill="none"/><path d="M189.125 161.094l9.605-3.196" stroke-width="1.2" stroke="#000" stroke-miterlimit="10" fill="none"/><path d="M176.523 158.79h6v11h-6zm0 0" fill="#fff"/><use xlink:href="#a" x="176.523" y="167.452" fill="#cc0"/><path d="M164.387 150.848l-19.207 6.39M145.18 157.238l-3.063 9.65" stroke-width="1.2" stroke="#000" stroke-miterlimit="10" fill="none"/><path d="M142.117 166.887l-3.058 9.644" stroke-width="1.2" stroke="#00f" stroke-miterlimit="10" fill="none"/><path d="M128.72 145.453l16.46 11.785M127.594 150.504l13.168 9.43" stroke-width="1.2" stroke="#000" stroke-miterlimit="10" fill="none"/><path d="M139.06 176.53l-20.244.142M137 171.785l-16.19.11" stroke-width="1.2" stroke="#00f" stroke-miterlimit="10" fill="none"/><path d="M136.06 171.03h7v11h-7zm0 0" fill="#fff"/><use xlink:href="#b" x="136.059" y="179.694" fill="#00f"/><path d="M118.816 176.672l-6.386-19.207" stroke-width="1.2" stroke="#00f" stroke-miterlimit="10" fill="none"/><path d="M115.816 171.172h7v11h-7zm0 0" fill="#fff"/><use xlink:href="#b" x="115.816" y="179.835" fill="#00f"/><path d="M112.43 157.465l8.144-6.004" stroke-width="1.2" stroke="#00f" stroke-miterlimit="10" fill="none"/><path d="M120.574 151.46l8.145-6.007" stroke-width="1.2" stroke="#000" stroke-miterlimit="10" fill="none"/><path d="M112.43 157.465l-9.65-3.06" stroke-width="1.2" stroke="#00f" stroke-miterlimit="10" fill="none"/><path d="M102.78 154.406l-9.647-3.062" stroke-width="1.2" stroke="#000" stroke-miterlimit="10" fill="none"/><path d="M109.43 151.965h7v11h-7zm0 0" fill="#fff"/><use xlink:href="#b" x="109.43" y="160.628" fill="#00f"/><path d="M93.133 151.344l-4.348-19.77M88.047 150.39l-3.477-15.816M78.184 164.996l14.95-13.652M88.785 131.574l-19.293-6.12M69.492 125.453l-14.95 13.65M71.21 130.336l-11.96 10.918M54.543 139.102l-9.645-3.06" stroke-width="1.2" stroke="#000" stroke-miterlimit="10" fill="none"/><path d="M44.898 136.043l-9.648-3.06" stroke-width="1.2" stroke="#3cc" stroke-miterlimit="10" fill="none"/><path d="M54.543 139.102l4.348 19.773" stroke-width="1.2" stroke="#000" stroke-miterlimit="10" fill="none"/><path d="M29.25 127.484h6v11h-6zm0 0" fill="#fff"/><use xlink:href="#c" x="29.25" y="136.147" fill="#3cc"/><path d="M58.89 158.875l19.294 6.12M62.262 154.945l15.433 4.9M198.73 157.898l3.06-9.648" stroke-width="1.2" stroke="#000" stroke-miterlimit="10" fill="none"/><path d="M201.79 148.25l3.062-9.645" stroke-width="1.2" stroke="#f00" stroke-miterlimit="10" fill="none"/><path d="M215.188 169.684l-8.227-5.895" stroke-width="1.2" stroke="#00f" stroke-miterlimit="10" fill="none"/><path d="M206.96 163.79l-8.23-5.892" stroke-width="1.2" stroke="#000" stroke-miterlimit="10" fill="none"/><path d="M216.316 164.633l-6.582-4.715" stroke-width="1.2" stroke="#00f" stroke-miterlimit="10" fill="none"/><path d="M209.734 159.918l-6.586-4.715" stroke-width="1.2" stroke="#000" stroke-miterlimit="10" fill="none"/><path d="M204.852 138.605l10.12-.07" stroke-width="1.2" stroke="#f00" stroke-miterlimit="10" fill="none"/><path d="M214.973 138.535l10.12-.07" stroke-width="1.2" stroke="#000" stroke-miterlimit="10" fill="none"/><path d="M200.852 133.105h8v11h-8zm0 0" fill="#fff"/><use xlink:href="#d" x="200.852" y="141.769" fill="#f00"/><path d="M225.094 138.465l6.386 19.207M230.25 138.883l5.113 15.363M238.53 123.328l-13.436 15.137M231.48 157.672l-8.144 6.004" stroke-width="1.2" stroke="#000" stroke-miterlimit="10" fill="none"/><path d="M223.336 163.676l-8.15 6.008" stroke-width="1.2" stroke="#00f" stroke-miterlimit="10" fill="none"/><path d="M231.48 157.672l19.833 4.07" stroke-width="1.2" stroke="#000" stroke-miterlimit="10" fill="none"/><path d="M212.188 164.184h7v11h-7zm0 0" fill="#fff"/><use xlink:href="#b" x="212.188" y="172.847" fill="#00f"/><path d="M251.313 161.742l13.437-15.137M249.094 157.066l10.75-12.11M264.75 146.605l-6.39-19.207M258.36 127.398l-19.83-4.07M255.422 131.656l-15.863-3.258" stroke-width="1.2" stroke="#000" stroke-miterlimit="10" fill="none"/></g></svg>