<svg xmlns="http://www.w3.org/2000/svg" xmlns:xlink="http://www.w3.org/1999/xlink" width="300pt" height="300pt" viewBox="0 0 300 300"><defs><symbol overflow="visible"><path d="M.547 1.938V-7.75h5.5v9.688zm.625-.61h4.266v-8.47H1.171zm0 0"/></symbol><symbol overflow="visible" id="a"><path d="M7.078-7.406v1.156c-.367-.344-.758-.598-1.172-.766-.406-.164-.843-.25-1.312-.25-.918 0-1.62.282-2.11.844-.48.555-.718 1.36-.718 2.422 0 1.055.238 1.86.718 2.422.49.562 1.192.844 2.11.844.468 0 .906-.082 1.312-.25.414-.164.805-.422 1.172-.766v1.125c-.375.262-.777.46-1.203.594-.418.124-.867.186-1.344.186-1.21 0-2.163-.367-2.858-1.11C.972-1.703.625-2.718.625-4c0-1.29.348-2.305 1.047-3.047.695-.75 1.648-1.125 2.86-1.125.476 0 .93.07 1.36.203.424.126.82.314 1.186.564zm0 0"/></symbol><symbol overflow="visible" id="b"><path d="M1.03-8.36h1V0h-1zm0 0"/></symbol><symbol overflow="visible" id="c"><path d="M1.078-8.016h1.47l3.546 6.704v-6.704h1.062V0H5.688L2.124-6.703V0H1.078zm0 0"/></symbol><symbol overflow="visible" id="d"><path d="M4.328-7.28c-.78 0-1.406.296-1.875.89-.46.585-.687 1.382-.687 2.39 0 1.012.226 1.813.687 2.406.47.586 1.094.875 1.875.875.79 0 1.414-.288 1.875-.874.457-.593.688-1.394.688-2.406 0-1.008-.23-1.805-.687-2.39-.46-.594-1.086-.89-1.875-.89zm0-.892c1.125 0 2.024.383 2.703 1.14C7.708-6.28 8.048-5.27 8.048-4c0 1.262-.34 2.273-1.016 3.03C6.353-.22 5.454.157 4.33.157S2.3-.22 1.625-.97c-.668-.75-1-1.757-1-3.03 0-1.27.332-2.28 1-3.03.676-.76 1.578-1.142 2.703-1.142zm0 0"/></symbol><symbol overflow="visible" id="e"><path d="M1.078-8.016h4.61v.907H2.171v2.36h3.172v.922H2.172V0H1.078zm0 0"/></symbol></defs><g><path fill="#fff" d="M0 0h300v300H0z"/><path d="M206.137 232.3l-9.43-10.718" stroke-width="1.2" stroke="#0c0" stroke-miterlimit="10" fill="none"/><path d="M196.707 221.582l-9.43-10.723" stroke-width="1.2" stroke="#000" stroke-miterlimit="10" fill="none"/><path d="M201.137 225.8h11v13h-11zm0 0" fill="#fff"/><g fill="#0c0"><use xlink:href="#a" x="201.137" y="235.702"/><use xlink:href="#b" x="208.588" y="235.702"/></g><path d="M187.277 210.86l-27.996 5.61M183.16 204.832l-22.398 4.488M196.418 183.81l-9.14 27.05M159.28 216.47l-18.858-21.443M140.422 195.027l9.14-27.05M147.703 194.473l7.313-21.64M149.563 167.977l-9.426-10.723" stroke-width="1.2" stroke="#000" stroke-miterlimit="10" fill="none"/><path d="M140.137 157.254l-9.43-10.72" stroke-width="1.2" stroke="#00f" stroke-miterlimit="10" fill="none"/><path d="M149.563 167.977l28-5.61" stroke-width="1.2" stroke="#000" stroke-miterlimit="10" fill="none"/><path d="M130.707 146.535l-28.43 2.653" stroke-width="1.2" stroke="#00f" stroke-miterlimit="10" fill="none"/><path d="M136.97 118.676l-3.13 13.93" stroke-width="1.2" stroke="#000" stroke-miterlimit="10" fill="none"/><path d="M133.84 132.605l-3.133 13.93" stroke-width="1.2" stroke="#00f" stroke-miterlimit="10" fill="none"/><path d="M126.707 140.035h8v13h-8zm0 0" fill="#fff"/><use xlink:href="#c" x="126.707" y="149.937" fill="#00f"/><path d="M102.277 149.188l-5.656-13.11" stroke-width="1.2" stroke="#00f" stroke-miterlimit="10" fill="none"/><path d="M96.62 136.078l-5.65-13.11" stroke-width="1.2" stroke="#000" stroke-miterlimit="10" fill="none"/><path d="M107.316 143.906l-4.523-10.488" stroke-width="1.2" stroke="#00f" stroke-miterlimit="10" fill="none"/><path d="M102.793 133.418L98.27 122.93" stroke-width="1.2" stroke="#000" stroke-miterlimit="10" fill="none"/><path d="M98.277 142.688h8v13h-8zm0 0" fill="#fff"/><use xlink:href="#c" x="98.277" y="152.589" fill="#00f"/><path d="M90.97 122.97l21.44-18.86M90.97 122.97l-27.86-6.263M112.41 104.11l24.56 14.566M111.438 111.348L131.085 123M136.97 118.676l26.218-11.31M163.188 107.367l22.906 17.055M169.492 103.684l18.32 13.64M166.504 79.008l-3.316 28.36M186.094 124.422l26.22-11.31M212.313 113.113l3.316-28.363M205.97 109.496l2.65-22.687M215.63 84.75l13.108-5.652" stroke-width="1.2" stroke="#000" stroke-miterlimit="10" fill="none"/><path d="M228.738 79.098l13.11-5.657" stroke-width="1.2" stroke="#f00" stroke-miterlimit="10" fill="none"/><path d="M215.63 84.75L192.722 67.7" stroke-width="1.2" stroke="#000" stroke-miterlimit="10" fill="none"/><path d="M241.848 73.44l11.45 8.53" stroke-width="1.2" stroke="#f00" stroke-miterlimit="10" fill="none"/><path d="M253.297 81.97l11.453 8.526" stroke-width="1.2" stroke="#000" stroke-miterlimit="10" fill="none"/><path d="M237.848 66.94h9v13h-9zm0 0" fill="#fff"/><use xlink:href="#d" x="237.848" y="76.843" fill="#f00"/><path d="M192.723 67.7l-26.22 11.308M192.762 75l-20.973 9.047M63.11 116.707l-13.93-3.133" stroke-width="1.2" stroke="#000" stroke-miterlimit="10" fill="none"/><path d="M49.18 113.574l-13.93-3.133" stroke-width="1.2" stroke="#3cc" stroke-miterlimit="10" fill="none"/><path d="M63.11 116.707l3.128-13.93" stroke-width="1.2" stroke="#000" stroke-miterlimit="10" fill="none"/><path d="M66.238 102.777l3.133-13.93" stroke-width="1.2" stroke="#3cc" stroke-miterlimit="10" fill="none"/><path d="M63.11 116.707l-3.133 13.93" stroke-width="1.2" stroke="#000" stroke-miterlimit="10" fill="none"/><path d="M59.977 130.637l-3.13 13.925" stroke-width="1.2" stroke="#3cc" stroke-miterlimit="10" fill="none"/><path d="M28.25 103.94h7v13h-7zm0 0" fill="#fff"/><use xlink:href="#e" x="28.25" y="113.843" fill="#3cc"/><path d="M66.37 82.348h7v13h-7zm0 0" fill="#fff"/><use xlink:href="#e" x="66.371" y="92.249" fill="#3cc"/><path d="M53.848 138.063h7v13h-7zm0 0" fill="#fff"/><use xlink:href="#e" x="53.848" y="147.964" fill="#3cc"/><path d="M177.563 162.367l18.855 21.442M174.402 168.95l15.086 17.152" stroke-width="1.2" stroke="#000" stroke-miterlimit="10" fill="none"/></g></svg>