<svg xmlns="http://www.w3.org/2000/svg" xmlns:xlink="http://www.w3.org/1999/xlink" width="300pt" height="300pt" viewBox="0 0 300 300"><defs><symbol overflow="visible"><path d="M.547 1.938V-7.75h5.5v9.688zm.625-.61h4.266v-8.47H1.171zm0 0"/></symbol><symbol overflow="visible" id="a"><path d="M7.078-7.406v1.156c-.367-.344-.758-.598-1.172-.766-.406-.164-.843-.25-1.312-.25-.918 0-1.62.282-2.11.844-.48.555-.718 1.36-.718 2.422 0 1.055.238 1.86.718 2.422.49.562 1.192.844 2.11.844.468 0 .906-.082 1.312-.25.414-.164.805-.422 1.172-.766v1.125c-.375.262-.777.46-1.203.594-.418.124-.867.186-1.344.186-1.21 0-2.163-.367-2.858-1.11C.972-1.703.625-2.718.625-4c0-1.29.348-2.305 1.047-3.047.695-.75 1.648-1.125 2.86-1.125.476 0 .93.07 1.36.203.424.126.82.314 1.186.564zm0 0"/></symbol><symbol overflow="visible" id="b"><path d="M1.03-8.36h1V0h-1zm0 0"/></symbol><symbol overflow="visible" id="c"><path d="M1.078-8.016h1.47l3.546 6.704v-6.704h1.062V0H5.688L2.124-6.703V0H1.078zm0 0"/></symbol><symbol overflow="visible" id="d"><path d="M5.89-7.75v1.047c-.417-.195-.808-.344-1.17-.438-.368-.094-.72-.14-1.064-.14-.586 0-1.04.116-1.36.343-.323.23-.483.554-.483.968 0 .357.1.626.312.814.22.18.625.324 1.22.437L4-4.593c.813.157 1.41.434 1.797.828.383.387.578.903.578 1.547 0 .783-.262 1.376-.78 1.783-.525.398-1.29.593-2.298.593-.375 0-.78-.047-1.22-.14C1.648-.066 1.208-.19.75-.36v-1.11c.445.25.88.44 1.297.564.426.125.844.187 1.25.187.625 0 1.1-.116 1.437-.358.332-.25.5-.598.5-1.047 0-.395-.12-.703-.36-.922-.24-.226-.636-.398-1.186-.515l-.657-.126c-.81-.156-1.4-.406-1.764-.75C.898-4.78.72-5.258.72-5.875c0-.707.25-1.266.75-1.672.5-.414 1.19-.625 2.077-.625.375 0 .754.04 1.14.11.395.074.797.18 1.204.312zm0 0"/></symbol><symbol overflow="visible" id="e"><path d="M4.328-7.28c-.78 0-1.406.296-1.875.89-.46.585-.687 1.382-.687 2.39 0 1.012.226 1.813.687 2.406.47.586 1.094.875 1.875.875.79 0 1.414-.288 1.875-.874.457-.593.688-1.394.688-2.406 0-1.008-.23-1.805-.687-2.39-.46-.594-1.086-.89-1.875-.89zm0-.892c1.125 0 2.024.383 2.703 1.14C7.708-6.28 8.048-5.27 8.048-4c0 1.262-.34 2.273-1.016 3.03C6.353-.22 5.454.157 4.33.157S2.3-.22 1.625-.97c-.668-.75-1-1.757-1-3.03 0-1.27.332-2.28 1-3.03.676-.76 1.578-1.142 2.703-1.142zm0 0"/></symbol><symbol overflow="visible" id="f"><path d="M1.078-8.016h4.61v.907H2.171v2.36h3.172v.922H2.172V0H1.078zm0 0"/></symbol></defs><g><path fill="#fff" d="M0 0h300v300H0z"/><path d="M194.45 239.375l-8.548-10.992" stroke-width="1.2" stroke="#0c0" stroke-miterlimit="10" fill="none"/><path d="M185.902 228.383l-8.55-10.992" stroke-width="1.2" stroke="#000" stroke-miterlimit="10" fill="none"/><path d="M189.45 232.875h11v13h-11zm0 0" fill="#fff"/><g fill="#0c0"><use xlink:href="#a" x="189.449" y="242.776"/><use xlink:href="#b" x="196.9" y="242.776"/></g><path d="M177.352 217.39l-27.586 3.817M173.695 211.28l-22.07 3.052M187.84 191.594l-10.488 25.797M149.766 221.207l-17.098-21.984M132.668 199.223l10.488-25.8M139.785 199.11l8.395-20.637M143.156 173.422l27.586-3.813M143.156 173.422l-17.097-21.98M170.742 169.61l17.098 21.984M167.28 175.828l13.68 17.59M187.84 191.594l13.797-1.91" stroke-width="1.2" stroke="#000" stroke-miterlimit="10" fill="none"/><path d="M201.637 189.684l13.793-1.907M215.43 187.777l8.547 10.993" stroke-width="1.2" stroke="#00f" stroke-miterlimit="10" fill="none"/><path d="M223.977 198.77l8.55 10.992" stroke-width="1.2" stroke="#000" stroke-miterlimit="10" fill="none"/><path d="M215.43 187.777l5.242-12.898" stroke-width="1.2" stroke="#00f" stroke-miterlimit="10" fill="none"/><path d="M220.672 174.88l5.246-12.903" stroke-width="1.2" stroke="#000" stroke-miterlimit="10" fill="none"/><path d="M211.43 181.277h8v13h-8zm0 0" fill="#fff"/><use xlink:href="#c" x="211.43" y="191.179" fill="#00f"/><path d="M126.06 151.44l-13.92.455" stroke-width="1.2" stroke="#000" stroke-miterlimit="10" fill="none"/><path d="M112.14 151.895l-13.913.457" stroke-width="1.2" stroke="#00f" stroke-miterlimit="10" fill="none"/><path d="M123.063 144.98l-11.133.368" stroke-width="1.2" stroke="#000" stroke-miterlimit="10" fill="none"/><path d="M111.93 145.348l-11.137.363M133.797 124.688l-3.87 13.374" stroke-width="1.2" stroke="#00f" stroke-miterlimit="10" fill="none"/><path d="M129.926 138.063l-3.867 13.378" stroke-width="1.2" stroke="#000" stroke-miterlimit="10" fill="none"/><path d="M98.227 152.352l-4.735-13.098" stroke-width="1.2" stroke="#00f" stroke-miterlimit="10" fill="none"/><path d="M93.492 139.254l-4.734-13.094" stroke-width="1.2" stroke="#000" stroke-miterlimit="10" fill="none"/><path d="M94.227 145.852h8v13h-8zm0 0" fill="#fff"/><use xlink:href="#c" x="94.227" y="155.753" fill="#00f"/><path d="M88.758 126.16l21.984-17.097M94.98 129.62l17.586-13.675M88.758 126.16l-26.754-7.734M110.742 109.063l11.528 7.812" stroke-width="1.2" stroke="#000" stroke-miterlimit="10" fill="none"/><path d="M122.27 116.875l11.527 7.813M133.797 124.688l13.094-4.735" stroke-width="1.2" stroke="#00f" stroke-miterlimit="10" fill="none"/><path d="M146.89 119.953l13.094-4.734" stroke-width="1.2" stroke="#000" stroke-miterlimit="10" fill="none"/><path d="M129.797 118.188h8v13h-8zm0 0" fill="#fff"/><use xlink:href="#c" x="129.797" y="128.089" fill="#00f"/><path d="M159.984 115.22l21.297 17.948M166.34 112.004l17.035 14.36M164.883 87.805l-4.9 27.414M181.28 133.168l26.193-9.47M207.473 123.7l4.894-27.415M201.512 119.805l3.914-21.93M212.367 96.285l13.098-4.734" stroke-width="1.2" stroke="#000" stroke-miterlimit="10" fill="none"/><path d="M225.465 91.55l13.094-4.734" stroke-width="1.2" stroke="#cc0" stroke-miterlimit="10" fill="none"/><path d="M212.367 96.285l-21.293-17.95" stroke-width="1.2" stroke="#000" stroke-miterlimit="10" fill="none"/><path d="M241.64 85.703l-4.734-13.094" stroke-width="1.2" stroke="#cc0" stroke-miterlimit="10" fill="none"/><path d="M236.906 72.61l-4.734-13.098" stroke-width="1.2" stroke="#f00" stroke-miterlimit="10" fill="none"/><path d="M235.477 87.93l-4.735-13.094" stroke-width="1.2" stroke="#cc0" stroke-miterlimit="10" fill="none"/><path d="M230.742 74.836l-4.73-13.098" stroke-width="1.2" stroke="#f00" stroke-miterlimit="10" fill="none"/><path d="M235.477 87.93l4.734 13.097" stroke-width="1.2" stroke="#cc0" stroke-miterlimit="10" fill="none"/><path d="M240.21 101.027l4.735 13.094" stroke-width="1.2" stroke="#f00" stroke-miterlimit="10" fill="none"/><path d="M241.64 85.703l4.735 13.094" stroke-width="1.2" stroke="#cc0" stroke-miterlimit="10" fill="none"/><path d="M246.375 98.797l4.734 13.098" stroke-width="1.2" stroke="#f00" stroke-miterlimit="10" fill="none"/><path d="M238.56 86.816l13.096-4.734" stroke-width="1.2" stroke="#cc0" stroke-miterlimit="10" fill="none"/><path d="M251.656 82.082l13.094-4.734" stroke-width="1.2" stroke="#000" stroke-miterlimit="10" fill="none"/><path d="M235.56 80.316h7v13h-7zm0 0" fill="#fff"/><use xlink:href="#d" x="235.559" y="90.218" fill="#cc0"/><path d="M220.09 54.125h9v13h-9zm0 0" fill="#fff"/><use xlink:href="#e" x="220.09" y="64.026" fill="#f00"/><path d="M244.027 106.508h9v13h-9zm0 0" fill="#fff"/><use xlink:href="#e" x="244.027" y="116.409" fill="#f00"/><path d="M191.074 78.336l-26.19 9.47M190.684 85.445L169.73 93.02M62.004 118.426l-13.38-3.87" stroke-width="1.2" stroke="#000" stroke-miterlimit="10" fill="none"/><path d="M48.625 114.555l-13.375-3.868" stroke-width="1.2" stroke="#3cc" stroke-miterlimit="10" fill="none"/><path d="M62.004 118.426l3.867-13.38" stroke-width="1.2" stroke="#000" stroke-miterlimit="10" fill="none"/><path d="M65.87 105.047l3.868-13.375" stroke-width="1.2" stroke="#3cc" stroke-miterlimit="10" fill="none"/><path d="M62.004 118.426L58.137 131.8" stroke-width="1.2" stroke="#000" stroke-miterlimit="10" fill="none"/><path d="M58.137 131.8l-3.867 13.38" stroke-width="1.2" stroke="#3cc" stroke-miterlimit="10" fill="none"/><path d="M28.25 104.188h7v13h-7zm0 0" fill="#fff"/><use xlink:href="#f" x="28.25" y="114.089" fill="#3cc"/><path d="M66.738 85.172h7v13h-7zm0 0" fill="#fff"/><use xlink:href="#f" x="66.738" y="95.073" fill="#3cc"/><path d="M51.27 138.68h7v13h-7zm0 0" fill="#fff"/><use xlink:href="#f" x="51.27" y="148.581" fill="#3cc"/></g></svg>