<svg xmlns="http://www.w3.org/2000/svg" xmlns:xlink="http://www.w3.org/1999/xlink" width="300pt" height="300pt" viewBox="0 0 300 300"><defs><symbol overflow="visible"><path d="M.547 1.938V-7.75h5.5v9.688zm.625-.61h4.266v-8.47H1.171zm0 0"/></symbol><symbol overflow="visible" id="a"><path d="M5.89-7.75v1.047c-.417-.195-.808-.344-1.17-.438-.368-.094-.72-.14-1.064-.14-.586 0-1.04.116-1.36.343-.323.23-.483.554-.483.968 0 .357.1.626.312.814.22.18.625.324 1.22.437L4-4.593c.813.157 1.41.434 1.797.828.383.387.578.903.578 1.547 0 .783-.262 1.376-.78 1.783-.525.398-1.29.593-2.298.593-.375 0-.78-.047-1.22-.14C1.648-.066 1.208-.19.75-.36v-1.11c.445.25.88.44 1.297.564.426.125.844.187 1.25.187.625 0 1.1-.116 1.437-.358.332-.25.5-.598.5-1.047 0-.395-.12-.703-.36-.922-.24-.226-.636-.398-1.186-.515l-.657-.126c-.81-.156-1.4-.406-1.764-.75C.898-4.78.72-5.258.72-5.875c0-.707.25-1.266.75-1.672.5-.414 1.19-.625 2.077-.625.375 0 .754.04 1.14.11.395.074.797.18 1.204.312zm0 0"/></symbol><symbol overflow="visible" id="b"><path d="M4.328-7.28c-.78 0-1.406.296-1.875.89-.46.585-.687 1.382-.687 2.39 0 1.012.226 1.813.687 2.406.47.586 1.094.875 1.875.875.79 0 1.414-.288 1.875-.874.457-.593.688-1.394.688-2.406 0-1.008-.23-1.805-.687-2.39-.46-.594-1.086-.89-1.875-.89zm0-.892c1.125 0 2.024.383 2.703 1.14C7.708-6.28 8.048-5.27 8.048-4c0 1.262-.34 2.273-1.016 3.03C6.353-.22 5.454.157 4.33.157S2.3-.22 1.625-.97c-.668-.75-1-1.757-1-3.03 0-1.27.332-2.28 1-3.03.676-.76 1.578-1.142 2.703-1.142zm0 0"/></symbol><symbol overflow="visible" id="c"><path d="M1.078-8.016h1.47l3.546 6.704v-6.704h1.062V0H5.688L2.124-6.703V0H1.078zm0 0"/></symbol><symbol overflow="visible" id="d"><path d="M1.078-8.016h4.61v.907H2.171v2.36h3.172v.922H2.172V0H1.078zm0 0"/></symbol></defs><g><path fill="#fff" d="M0 0h300v300H0z"/><path d="M242.262 232.945l6.44-12.742" stroke-width="1.2" stroke="#cc0" stroke-miterlimit="10" fill="none"/><path d="M248.703 220.203l6.445-12.746" stroke-width="1.2" stroke="#f00" stroke-miterlimit="10" fill="none"/><path d="M236.262 229.914l6.445-12.746" stroke-width="1.2" stroke="#cc0" stroke-miterlimit="10" fill="none"/><path d="M242.707 217.168l6.445-12.742" stroke-width="1.2" stroke="#f00" stroke-miterlimit="10" fill="none"/><path d="M236.262 229.914l-6.442 12.742" stroke-width="1.2" stroke="#cc0" stroke-miterlimit="10" fill="none"/><path d="M229.82 242.656l-6.445 12.746" stroke-width="1.2" stroke="#f00" stroke-miterlimit="10" fill="none"/><path d="M242.262 232.945l-6.446 12.746" stroke-width="1.2" stroke="#cc0" stroke-miterlimit="10" fill="none"/><path d="M235.816 245.69l-6.445 12.744" stroke-width="1.2" stroke="#f00" stroke-miterlimit="10" fill="none"/><path d="M239.262 231.43l12.746 6.445" stroke-width="1.2" stroke="#cc0" stroke-miterlimit="10" fill="none"/><path d="M252.008 237.875l12.742 6.44" stroke-width="1.2" stroke="#000" stroke-miterlimit="10" fill="none"/><path d="M239.262 231.43l-12.742-6.446" stroke-width="1.2" stroke="#cc0" stroke-miterlimit="10" fill="none"/><path d="M226.52 224.984l-12.747-6.44" stroke-width="1.2" stroke="#000" stroke-miterlimit="10" fill="none"/><path d="M236.262 224.93h7v13h-7zm0 0" fill="#fff"/><use xlink:href="#a" x="236.262" y="234.831" fill="#cc0"/><path d="M248.148 199.44h9v13h-9zm0 0" fill="#fff"/><use xlink:href="#b" x="248.148" y="209.343" fill="#f00"/><path d="M217.375 250.418h9v13h-9zm0 0" fill="#fff"/><use xlink:href="#b" x="217.375" y="260.319" fill="#f00"/><path d="M213.773 218.543l-23.906 15.63M207.707 214.48l-19.125 12.504M212.19 190.023l1.583 28.52M189.867 234.172l-25.488-12.89M164.38 221.28l-1.583-28.514M170.93 218.06l-1.266-22.818M162.797 192.766l-12.742-6.446" stroke-width="1.2" stroke="#000" stroke-miterlimit="10" fill="none"/><path d="M150.055 186.32l-12.746-6.445" stroke-width="1.2" stroke="#00f" stroke-miterlimit="10" fill="none"/><path d="M162.797 192.766l23.906-15.63" stroke-width="1.2" stroke="#000" stroke-miterlimit="10" fill="none"/><path d="M137.31 179.875l-12.705 6.523" stroke-width="1.2" stroke="#00f" stroke-miterlimit="10" fill="none"/><path d="M124.605 186.398l-12.707 6.524M132.754 151.68l2.277 14.097" stroke-width="1.2" stroke="#000" stroke-miterlimit="10" fill="none"/><path d="M135.03 165.777l2.28 14.098" stroke-width="1.2" stroke="#00f" stroke-miterlimit="10" fill="none"/><path d="M133.31 173.375h8v13h-8zm0 0" fill="#fff"/><use xlink:href="#c" x="133.309" y="183.276" fill="#00f"/><path d="M111.898 192.922L91.64 172.785M114.613 186.14l-16.207-16.105M91.64 172.785l6.446-12.742" stroke-width="1.2" stroke="#000" stroke-miterlimit="10" fill="none"/><path d="M98.086 160.043l6.445-12.746" stroke-width="1.2" stroke="#00f" stroke-miterlimit="10" fill="none"/><path d="M91.64 172.785l-28.195 4.555" stroke-width="1.2" stroke="#000" stroke-miterlimit="10" fill="none"/><path d="M104.53 147.297l14.11 2.19" stroke-width="1.2" stroke="#00f" stroke-miterlimit="10" fill="none"/><path d="M118.64 149.488l14.114 2.192" stroke-width="1.2" stroke="#000" stroke-miterlimit="10" fill="none"/><path d="M106.32 154.38l11.293 1.75" stroke-width="1.2" stroke="#00f" stroke-miterlimit="10" fill="none"/><path d="M117.613 156.13l11.29 1.753" stroke-width="1.2" stroke="#000" stroke-miterlimit="10" fill="none"/><path d="M100.53 140.797h8v13h-8zm0 0" fill="#fff"/><use xlink:href="#c" x="100.531" y="150.698" fill="#00f"/><path d="M132.754 151.68l20.133-20.258M152.887 131.422l27.613 7.308M157.367 125.656l22.09 5.844M145.41 103.855l7.477 27.567M180.5 138.73l20.133-20.257M200.633 118.473l13.804 3.652" stroke-width="1.2" stroke="#000" stroke-miterlimit="10" fill="none"/><path d="M214.438 122.125l13.804 3.652" stroke-width="1.2" stroke="#3cc" stroke-miterlimit="10" fill="none"/><path d="M200.633 118.473l-7.477-27.567M193.398 117.473l-5.98-22.05" stroke-width="1.2" stroke="#000" stroke-miterlimit="10" fill="none"/><path d="M225.242 119.277h7v13h-7zm0 0" fill="#fff"/><use xlink:href="#d" x="225.242" y="129.179" fill="#3cc"/><path d="M193.156 90.906l10.067-10.13" stroke-width="1.2" stroke="#000" stroke-miterlimit="10" fill="none"/><path d="M203.223 80.777l10.066-10.13" stroke-width="1.2" stroke="#00f" stroke-miterlimit="10" fill="none"/><path d="M193.156 90.906l-27.61-7.308" stroke-width="1.2" stroke="#000" stroke-miterlimit="10" fill="none"/><path d="M213.29 70.648l-3.74-13.785" stroke-width="1.2" stroke="#00f" stroke-miterlimit="10" fill="none"/><path d="M209.55 56.863l-3.738-13.78" stroke-width="1.2" stroke="#000" stroke-miterlimit="10" fill="none"/><path d="M213.29 70.648l13.804 3.653" stroke-width="1.2" stroke="#00f" stroke-miterlimit="10" fill="none"/><path d="M227.094 74.3l13.808 3.657" stroke-width="1.2" stroke="#000" stroke-miterlimit="10" fill="none"/><path d="M209.29 64.148h8v13h-8zm0 0" fill="#fff"/><use xlink:href="#c" x="209.289" y="74.05" fill="#00f"/><path d="M165.547 83.598l-20.137 20.257M168.297 90.36l-16.106 16.206M63.445 177.34l-14.097 2.277" stroke-width="1.2" stroke="#000" stroke-miterlimit="10" fill="none"/><path d="M49.348 179.617l-14.098 2.278" stroke-width="1.2" stroke="#3cc" stroke-miterlimit="10" fill="none"/><path d="M63.445 177.34l-2.277-14.098" stroke-width="1.2" stroke="#000" stroke-miterlimit="10" fill="none"/><path d="M61.168 163.242l-2.277-14.097" stroke-width="1.2" stroke="#3cc" stroke-miterlimit="10" fill="none"/><path d="M63.445 177.34l2.278 14.097" stroke-width="1.2" stroke="#000" stroke-miterlimit="10" fill="none"/><path d="M65.723 191.438l2.277 14.1" stroke-width="1.2" stroke="#3cc" stroke-miterlimit="10" fill="none"/><path d="M28.25 175.395h7v13h-7zm0 0" fill="#fff"/><use xlink:href="#d" x="28.25" y="185.296" fill="#3cc"/><path d="M55.89 142.645h7v13h-7zm0 0" fill="#fff"/><use xlink:href="#d" x="55.891" y="152.546" fill="#3cc"/><path d="M65 199.04h7v13h-7zm0 0" fill="#fff"/><use xlink:href="#d" x="65" y="208.94" fill="#3cc"/><path d="M186.703 177.137l25.488 12.886M186.22 184.422l20.39 10.308" stroke-width="1.2" stroke="#000" stroke-miterlimit="10" fill="none"/></g></svg>