<svg xmlns="http://www.w3.org/2000/svg" xmlns:xlink="http://www.w3.org/1999/xlink" width="300pt" height="300pt" viewBox="0 0 300 300"><defs><symbol overflow="visible"><path d="M.547 1.938V-7.75h5.5v9.688zm.625-.61h4.266v-8.47H1.171zm0 0"/></symbol><symbol overflow="visible" id="a"><path d="M5.89-7.75v1.047c-.417-.195-.808-.344-1.17-.438-.368-.094-.72-.14-1.064-.14-.586 0-1.04.116-1.36.343-.323.23-.483.554-.483.968 0 .357.1.626.312.814.22.18.625.324 1.22.437L4-4.593c.813.157 1.41.434 1.797.828.383.387.578.903.578 1.547 0 .783-.262 1.376-.78 1.783-.525.398-1.29.593-2.298.593-.375 0-.78-.047-1.22-.14C1.648-.066 1.208-.19.75-.36v-1.11c.445.25.88.44 1.297.564.426.125.844.187 1.25.187.625 0 1.1-.116 1.437-.358.332-.25.5-.598.5-1.047 0-.395-.12-.703-.36-.922-.24-.226-.636-.398-1.186-.515l-.657-.126c-.81-.156-1.4-.406-1.764-.75C.898-4.78.72-5.258.72-5.875c0-.707.25-1.266.75-1.672.5-.414 1.19-.625 2.077-.625.375 0 .754.04 1.14.11.395.074.797.18 1.204.312zm0 0"/></symbol><symbol overflow="visible" id="b"><path d="M4.328-7.28c-.78 0-1.406.296-1.875.89-.46.585-.687 1.382-.687 2.39 0 1.012.226 1.813.687 2.406.47.586 1.094.875 1.875.875.79 0 1.414-.288 1.875-.874.457-.593.688-1.394.688-2.406 0-1.008-.23-1.805-.687-2.39-.46-.594-1.086-.89-1.875-.89zm0-.892c1.125 0 2.024.383 2.703 1.14C7.708-6.28 8.048-5.27 8.048-4c0 1.262-.34 2.273-1.016 3.03C6.353-.22 5.454.157 4.33.157S2.3-.22 1.625-.97c-.668-.75-1-1.757-1-3.03 0-1.27.332-2.28 1-3.03.676-.76 1.578-1.142 2.703-1.142zm0 0"/></symbol><symbol overflow="visible" id="c"><path d="M1.078-8.016h1.094v3.282H6.11v-3.282h1.077V0H6.11v-3.813H2.17V0H1.078zm0 0"/></symbol><symbol overflow="visible" id="e"><path d="M1.078-8.016h1.47l3.546 6.704v-6.704h1.062V0H5.688L2.124-6.703V0H1.078zm0 0"/></symbol><symbol overflow="visible" id="f"><path d="M1.078-8.016h4.61v.907H2.171v2.36h3.172v.922H2.172V0H1.078zm0 0"/></symbol><symbol overflow="visible"><path d="M.453 1.594v-7.938h4.5v7.938zm.5-.5h3.5v-6.938h-3.5zm0 0"/></symbol><symbol overflow="visible" id="d"><path d="M1.734-.75h3.094V0H.656v-.75c.344-.344.8-.805 1.375-1.39.583-.594.954-.973 1.11-1.14.282-.322.473-.595.58-.814.112-.226.17-.445.17-.656 0-.352-.12-.64-.36-.86-.24-.218-.557-.327-.952-.327-.28 0-.578.054-.89.156-.305.093-.633.24-.985.436v-.906c.352-.133.688-.238 1-.313.313-.082.598-.125.86-.125.675 0 1.218.172 1.624.516.407.344.61.797.61 1.36 0 .273-.055.53-.156.78-.105.243-.288.524-.546.845-.074.085-.31.328-.703.734-.398.406-.95.976-1.656 1.703zm0 0"/></symbol></defs><g><path fill="#fff" d="M0 0h300v300H0z"/><path d="M65.22 90.832l3.214-13.406" stroke-width="1.2" stroke="#cc0" stroke-miterlimit="10" fill="none"/><path d="M68.434 77.426l3.21-13.41" stroke-width="1.2" stroke="#f00" stroke-miterlimit="10" fill="none"/><path d="M58.91 89.32l3.215-13.406" stroke-width="1.2" stroke="#cc0" stroke-miterlimit="10" fill="none"/><path d="M62.125 75.914l3.21-13.41" stroke-width="1.2" stroke="#f00" stroke-miterlimit="10" fill="none"/><path d="M58.91 89.32l-3.21 13.407" stroke-width="1.2" stroke="#cc0" stroke-miterlimit="10" fill="none"/><path d="M55.7 102.727l-3.216 13.41" stroke-width="1.2" stroke="#f00" stroke-miterlimit="10" fill="none"/><path d="M65.22 90.832l-3.212 13.406" stroke-width="1.2" stroke="#cc0" stroke-miterlimit="10" fill="none"/><path d="M62.008 104.238l-3.21 13.41" stroke-width="1.2" stroke="#f00" stroke-miterlimit="10" fill="none"/><path d="M62.066 90.078l-13.41-3.215" stroke-width="1.2" stroke="#cc0" stroke-miterlimit="10" fill="none"/><path d="M48.656 86.863l-13.406-3.21" stroke-width="1.2" stroke="#00f" stroke-miterlimit="10" fill="none"/><path d="M62.066 90.078l13.407 3.21" stroke-width="1.2" stroke="#cc0" stroke-miterlimit="10" fill="none"/><path d="M75.473 93.29l13.41 3.21" stroke-width="1.2" stroke="#000" stroke-miterlimit="10" fill="none"/><path d="M59.066 83.578h7v13h-7zm0 0" fill="#fff"/><use xlink:href="#a" x="59.066" y="93.479" fill="#cc0"/><path d="M64.492 56.762h9v13h-9zm0 0" fill="#fff"/><use xlink:href="#b" x="64.492" y="66.663" fill="#f00"/><path d="M51.64 110.39h9v13h-9zm0 0" fill="#fff"/><use xlink:href="#b" x="51.641" y="120.292" fill="#f00"/><path d="M13.25 75.152h22v17h-22zm0 0" fill="#fff"/><use xlink:href="#c" x="13.25" y="85.054" fill="#00f"/><use xlink:href="#d" x="21.274" y="89.937" fill="#00f"/><use xlink:href="#e" x="26.931" y="85.054" fill="#00f"/><path d="M88.883 96.5l18.972-20.008M95.488 98.965l15.176-16.008M96.727 122.938L88.883 96.5M107.855 76.492l26.817 6.426M134.672 82.918l7.84 26.434M129.234 87.406l6.274 21.15M142.512 109.352l13.41 3.214" stroke-width="1.2" stroke="#000" stroke-miterlimit="10" fill="none"/><path d="M155.922 112.566l13.406 3.21" stroke-width="1.2" stroke="#00f" stroke-miterlimit="10" fill="none"/><path d="M142.512 109.352l-18.97 20.01" stroke-width="1.2" stroke="#000" stroke-miterlimit="10" fill="none"/><path d="M169.328 115.777l20.96-17.918" stroke-width="1.2" stroke="#00f" stroke-miterlimit="10" fill="none"/><path d="M179.895 141.25l-5.282-12.738" stroke-width="1.2" stroke="#000" stroke-miterlimit="10" fill="none"/><path d="M174.613 128.512l-5.285-12.735" stroke-width="1.2" stroke="#00f" stroke-miterlimit="10" fill="none"/><path d="M165.328 109.277h8v13h-8zm0 0" fill="#fff"/><use xlink:href="#e" x="165.328" y="119.179" fill="#00f"/><path d="M190.29 97.86l11.757 7.2" stroke-width="1.2" stroke="#00f" stroke-miterlimit="10" fill="none"/><path d="M202.047 105.06l11.762 7.198" stroke-width="1.2" stroke="#000" stroke-miterlimit="10" fill="none"/><path d="M189.254 104.832l9.406 5.762" stroke-width="1.2" stroke="#00f" stroke-miterlimit="10" fill="none"/><path d="M198.66 110.594l9.406 5.758" stroke-width="1.2" stroke="#000" stroke-miterlimit="10" fill="none"/><path d="M186.29 91.36h8v13h-8zm0 0" fill="#fff"/><use xlink:href="#e" x="186.289" y="101.261" fill="#00f"/><path d="M213.81 112.258l-6.427 26.816M213.81 112.258l25.467-10.563M207.383 139.074l-27.488 2.176M204.12 132.824l-21.99 1.738M179.895 141.25l-14.4 23.516M165.496 164.766l13.168 24.23M161.113 170.29l10.535 19.382M137.93 164.06l27.566.706M178.664 188.996l-14.398 23.516M164.266 212.512l-27.567-.71M161.676 205.957l-22.05-.57M164.266 212.512l13.168 24.226M136.7 211.8l-9.485 10.01" stroke-width="1.2" stroke="#000" stroke-miterlimit="10" fill="none"/><path d="M127.215 221.81l-9.488 10.002" stroke-width="1.2" stroke="#f00" stroke-miterlimit="10" fill="none"/><path d="M123.53 187.574L136.7 211.8" stroke-width="1.2" stroke="#000" stroke-miterlimit="10" fill="none"/><path d="M117.727 231.813l-12.446-5.93" stroke-width="1.2" stroke="#f00" stroke-miterlimit="10" fill="none"/><path d="M105.28 225.883l-12.444-5.93" stroke-width="1.2" stroke="#000" stroke-miterlimit="10" fill="none"/><path d="M113.727 225.313h9v13h-9zm0 0" fill="#fff"/><use xlink:href="#b" x="113.727" y="235.214" fill="#f00"/><path d="M92.836 219.953l1.793-13.672" stroke-width="1.2" stroke="#000" stroke-miterlimit="10" fill="none"/><path d="M94.63 206.28l1.792-13.667M96.422 192.613l13.555-2.52" stroke-width="1.2" stroke="#f00" stroke-miterlimit="10" fill="none"/><path d="M109.977 190.094l13.554-2.52" stroke-width="1.2" stroke="#000" stroke-miterlimit="10" fill="none"/><path d="M92.422 186.113h9v13h-9zm0 0" fill="#fff"/><use xlink:href="#b" x="92.422" y="196.015" fill="#f00"/><path d="M123.53 187.574l14.4-23.515M130.508 188.61l11.515-18.813M239.277 101.695l12.74-5.285" stroke-width="1.2" stroke="#000" stroke-miterlimit="10" fill="none"/><path d="M252.016 96.41l12.734-5.28" stroke-width="1.2" stroke="#3cc" stroke-miterlimit="10" fill="none"/><path d="M239.277 101.695l5.286 12.735" stroke-width="1.2" stroke="#000" stroke-miterlimit="10" fill="none"/><path d="M244.563 114.43l5.28 12.734" stroke-width="1.2" stroke="#3cc" stroke-miterlimit="10" fill="none"/><path d="M239.277 101.695l-5.28-12.738" stroke-width="1.2" stroke="#000" stroke-miterlimit="10" fill="none"/><path d="M233.996 88.957l-5.28-12.734" stroke-width="1.2" stroke="#3cc" stroke-miterlimit="10" fill="none"/><path d="M261.75 84.63h7v13h-7zm0 0" fill="#fff"/><use xlink:href="#f" x="261.75" y="94.53" fill="#3cc"/><path d="M246.844 120.664h7v13h-7zm0 0" fill="#fff"/><use xlink:href="#f" x="246.844" y="130.565" fill="#3cc"/><path d="M221.715 69.723h7v13h-7zm0 0" fill="#fff"/><use xlink:href="#f" x="221.715" y="79.624" fill="#3cc"/><path d="M123.543 129.363l-26.816-6.425M122.37 122.41l-21.452-5.14" stroke-width="1.2" stroke="#000" stroke-miterlimit="10" fill="none"/></g></svg>