<svg xmlns="http://www.w3.org/2000/svg" xmlns:xlink="http://www.w3.org/1999/xlink" width="300pt" height="300pt" viewBox="0 0 300 300"><defs><symbol overflow="visible"><path d="M.547 1.938V-7.75h5.5v9.688zm.625-.61h4.266v-8.47H1.171zm0 0"/></symbol><symbol overflow="visible" id="a"><path d="M5.89-7.75v1.047c-.417-.195-.808-.344-1.17-.438-.368-.094-.72-.14-1.064-.14-.586 0-1.04.116-1.36.343-.323.23-.483.554-.483.968 0 .357.1.626.312.814.22.18.625.324 1.22.437L4-4.593c.813.157 1.41.434 1.797.828.383.387.578.903.578 1.547 0 .783-.262 1.376-.78 1.783-.525.398-1.29.593-2.298.593-.375 0-.78-.047-1.22-.14C1.648-.066 1.208-.19.75-.36v-1.11c.445.25.88.44 1.297.564.426.125.844.187 1.25.187.625 0 1.1-.116 1.437-.358.332-.25.5-.598.5-1.047 0-.395-.12-.703-.36-.922-.24-.226-.636-.398-1.186-.515l-.657-.126c-.81-.156-1.4-.406-1.764-.75C.898-4.78.72-5.258.72-5.875c0-.707.25-1.266.75-1.672.5-.414 1.19-.625 2.077-.625.375 0 .754.04 1.14.11.395.074.797.18 1.204.312zm0 0"/></symbol><symbol overflow="visible" id="b"><path d="M4.328-7.28c-.78 0-1.406.296-1.875.89-.46.585-.687 1.382-.687 2.39 0 1.012.226 1.813.687 2.406.47.586 1.094.875 1.875.875.79 0 1.414-.288 1.875-.874.457-.593.688-1.394.688-2.406 0-1.008-.23-1.805-.687-2.39-.46-.594-1.086-.89-1.875-.89zm0-.892c1.125 0 2.024.383 2.703 1.14C7.708-6.28 8.048-5.27 8.048-4c0 1.262-.34 2.273-1.016 3.03C6.353-.22 5.454.157 4.33.157S2.3-.22 1.625-.97c-.668-.75-1-1.757-1-3.03 0-1.27.332-2.28 1-3.03.676-.76 1.578-1.142 2.703-1.142zm0 0"/></symbol><symbol overflow="visible" id="c"><path d="M1.078-8.016h1.47l3.546 6.704v-6.704h1.062V0H5.688L2.124-6.703V0H1.078zm0 0"/></symbol><symbol overflow="visible" id="d"><path d="M1.078-8.016h1.094v3.282H6.11v-3.282h1.077V0H6.11v-3.813H2.17V0H1.078zm0 0"/></symbol><symbol overflow="visible" id="f"><path d="M1.078-8.016h4.61v.907H2.171v2.36h3.172v.922H2.172V0H1.078zm0 0"/></symbol><symbol overflow="visible"><path d="M.453 1.594v-7.938h4.5v7.938zm.5-.5h3.5v-6.938h-3.5zm0 0"/></symbol><symbol overflow="visible" id="e"><path d="M1.734-.75h3.094V0H.656v-.75c.344-.344.8-.805 1.375-1.39.583-.594.954-.973 1.11-1.14.282-.322.473-.595.58-.814.112-.226.17-.445.17-.656 0-.352-.12-.64-.36-.86-.24-.218-.557-.327-.952-.327-.28 0-.578.054-.89.156-.305.093-.633.24-.985.436v-.906c.352-.133.688-.238 1-.313.313-.082.598-.125.86-.125.675 0 1.218.172 1.624.516.407.344.61.797.61 1.36 0 .273-.055.53-.156.78-.105.243-.288.524-.546.845-.074.085-.31.328-.703.734-.398.406-.95.976-1.656 1.703zm0 0"/></symbol></defs><g><path fill="#fff" d="M0 0h300v300H0z"/><path d="M233.746 197.863l-.242 13.867" stroke-width="1.2" stroke="#cc0" stroke-miterlimit="10" fill="none"/><path d="M233.504 211.73l-.246 13.872" stroke-width="1.2" stroke="#f00" stroke-miterlimit="10" fill="none"/><path d="M240.273 197.977l-.242 13.87" stroke-width="1.2" stroke="#cc0" stroke-miterlimit="10" fill="none"/><path d="M240.03 211.848l-.245 13.87" stroke-width="1.2" stroke="#f00" stroke-miterlimit="10" fill="none"/><path d="M240.273 197.977l.247-13.868" stroke-width="1.2" stroke="#cc0" stroke-miterlimit="10" fill="none"/><path d="M240.52 184.11l.242-13.872" stroke-width="1.2" stroke="#f00" stroke-miterlimit="10" fill="none"/><path d="M233.746 197.863l.246-13.87" stroke-width="1.2" stroke="#cc0" stroke-miterlimit="10" fill="none"/><path d="M233.992 183.992l.242-13.87" stroke-width="1.2" stroke="#f00" stroke-miterlimit="10" fill="none"/><path d="M237.012 197.922l13.867.242" stroke-width="1.2" stroke="#cc0" stroke-miterlimit="10" fill="none"/><path d="M250.88 198.164l13.87.246" stroke-width="1.2" stroke="#00f" stroke-miterlimit="10" fill="none"/><path d="M237.012 197.922l-13.87-.246" stroke-width="1.2" stroke="#cc0" stroke-miterlimit="10" fill="none"/><path d="M223.14 197.676l-13.87-.246" stroke-width="1.2" stroke="#000" stroke-miterlimit="10" fill="none"/><path d="M234.012 191.422h7v13h-7zm0 0" fill="#fff"/><use xlink:href="#a" x="234.012" y="201.323" fill="#cc0"/><path d="M232.523 219.16h9v13h-9zm0 0" fill="#fff"/><use xlink:href="#b" x="232.523" y="229.062" fill="#f00"/><path d="M233.5 163.68h9v13h-9zm0 0" fill="#fff"/><use xlink:href="#b" x="233.5" y="173.581" fill="#f00"/><path d="M253.75 189.91h22v17h-22zm0 0" fill="#fff"/><g fill="#00f"><use xlink:href="#c" x="253.75" y="199.812"/><use xlink:href="#d" x="261.733" y="199.812"/></g><use xlink:href="#e" x="269.758" y="204.694" fill="#00f"/><path d="M209.27 197.43l-14.293 23.78M202.246 196.445l-11.434 19.024M195.824 173.164l13.446 24.266M194.977 221.21l-27.74-.49M167.238 220.72l-13.445-24.267M171.605 215.13l-10.757-19.415M153.793 196.453l-13.87-.246" stroke-width="1.2" stroke="#000" stroke-miterlimit="10" fill="none"/><path d="M139.922 196.207l-13.87-.242" stroke-width="1.2" stroke="#00f" stroke-miterlimit="10" fill="none"/><path d="M153.793 196.453l14.293-23.777" stroke-width="1.2" stroke="#000" stroke-miterlimit="10" fill="none"/><path d="M126.05 195.965l-16.698 22.152" stroke-width="1.2" stroke="#00f" stroke-miterlimit="10" fill="none"/><path d="M110.145 173.234l7.953 11.368" stroke-width="1.2" stroke="#000" stroke-miterlimit="10" fill="none"/><path d="M118.098 184.602l7.953 11.363" stroke-width="1.2" stroke="#00f" stroke-miterlimit="10" fill="none"/><path d="M122.05 189.465h8v13h-8zm0 0" fill="#fff"/><use xlink:href="#c" x="122.051" y="199.366" fill="#00f"/><path d="M109.352 218.117l-13.114-4.515" stroke-width="1.2" stroke="#00f" stroke-miterlimit="10" fill="none"/><path d="M96.238 213.602l-13.117-4.52" stroke-width="1.2" stroke="#000" stroke-miterlimit="10" fill="none"/><path d="M108.855 211.043l-10.492-3.613" stroke-width="1.2" stroke="#00f" stroke-miterlimit="10" fill="none"/><path d="M98.363 207.43l-10.492-3.618" stroke-width="1.2" stroke="#000" stroke-miterlimit="10" fill="none"/><path d="M105.352 211.617h8v13h-8zm0 0" fill="#fff"/><use xlink:href="#c" x="105.352" y="221.519" fill="#00f"/><path d="M83.12 209.082l.49-27.738M83.12 209.082l-22.73 15.91M83.61 181.344l26.535-8.11M88.172 186.773l21.226-6.484M110.145 173.234l9.035-26.23M119.18 147.004l27.234-5.29M120.66 140.066l21.79-4.23M100.98 126.063l18.2 20.94M146.414 141.715l9.04-26.23M155.453 115.484l13.617-2.644" stroke-width="1.2" stroke="#000" stroke-miterlimit="10" fill="none"/><path d="M169.07 112.84l13.618-2.645" stroke-width="1.2" stroke="#3cc" stroke-miterlimit="10" fill="none"/><path d="M155.453 115.484l-18.2-20.94M148.703 117.672l-14.555-16.754" stroke-width="1.2" stroke="#000" stroke-miterlimit="10" fill="none"/><path d="M179.688 103.695h7v13h-7zm0 0" fill="#fff"/><use xlink:href="#f" x="179.688" y="113.597" fill="#3cc"/><path d="M137.254 94.543l4.52-13.117" stroke-width="1.2" stroke="#000" stroke-miterlimit="10" fill="none"/><path d="M141.773 81.426l4.52-13.114" stroke-width="1.2" stroke="#f00" stroke-miterlimit="10" fill="none"/><path d="M137.254 94.543l-27.234 5.29" stroke-width="1.2" stroke="#000" stroke-miterlimit="10" fill="none"/><path d="M146.293 68.313L137.19 57.84" stroke-width="1.2" stroke="#f00" stroke-miterlimit="10" fill="none"/><path d="M137.19 57.84l-9.096-10.47" stroke-width="1.2" stroke="#000" stroke-miterlimit="10" fill="none"/><path d="M142.293 61.813h9v13h-9zm0 0" fill="#fff"/><use xlink:href="#b" x="142.293" y="71.714" fill="#f00"/><path d="M110.02 99.832l-9.04 26.23M115.29 104.582l-7.23 20.984M60.39 224.992l-12.57-5.867" stroke-width="1.2" stroke="#000" stroke-miterlimit="10" fill="none"/><path d="M47.82 219.125l-12.57-5.863" stroke-width="1.2" stroke="#3cc" stroke-miterlimit="10" fill="none"/><path d="M60.39 224.992L61.6 238.81" stroke-width="1.2" stroke="#000" stroke-miterlimit="10" fill="none"/><path d="M61.598 238.81l1.207 13.82" stroke-width="1.2" stroke="#3cc" stroke-miterlimit="10" fill="none"/><path d="M28.25 206.762h7v13h-7zm0 0" fill="#fff"/><use xlink:href="#f" x="28.25" y="216.663" fill="#3cc"/><path d="M59.805 246.13h7v13h-7zm0 0" fill="#fff"/><use xlink:href="#f" x="59.805" y="256.03" fill="#3cc"/><path d="M168.086 172.676l27.738.488M170.746 179.25l22.19.39" stroke-width="1.2" stroke="#000" stroke-miterlimit="10" fill="none"/></g></svg>