<svg xmlns="http://www.w3.org/2000/svg" xmlns:xlink="http://www.w3.org/1999/xlink" width="300pt" height="300pt" viewBox="0 0 300 300"><defs><symbol overflow="visible"><path d="M.594 2.125V-8.47h6V2.126zm.672-.672h4.671V-7.78h-4.67zm0 0"/></symbol><symbol overflow="visible" id="a"><path d="M6.422-8.47v1.158c-.45-.208-.875-.364-1.28-.47-.4-.113-.78-.17-1.142-.17-.648 0-1.148.124-1.5.374-.344.25-.516.61-.516 1.078 0 .387.114.68.344.875.227.2.672.355 1.328.47L4.36-5c.882.168 1.535.465 1.952.89.426.42.64.98.64 1.688 0 .856-.288 1.5-.858 1.938-.563.437-1.4.656-2.5.656-.406 0-.844-.047-1.313-.14C1.814-.064 1.33-.204.83-.392v-1.22c.477.274.945.477 1.406.61.47.137.922.203 1.36.203.676 0 1.195-.13 1.562-.39.375-.27.563-.65.563-1.14 0-.427-.138-.76-.407-1-.262-.25-.696-.43-1.297-.548l-.72-.14c-.886-.176-1.526-.454-1.92-.83-.388-.374-.58-.893-.58-1.56 0-.782.27-1.392.813-1.83.538-.445 1.288-.67 2.25-.67.413 0 .83.038 1.25.108.425.074.863.184 1.312.328zm0 0"/></symbol><symbol overflow="visible" id="b"><path d="M4.734-7.953c-.867 0-1.554.324-2.062.97-.5.635-.75 1.51-.75 2.624 0 1.094.25 1.965.75 2.61.508.637 1.195.953 2.062.953.852 0 1.532-.316 2.032-.953.507-.645.765-1.516.765-2.61 0-1.113-.257-1.988-.764-2.624-.5-.645-1.18-.97-2.032-.97zm0-.953c1.22 0 2.192.414 2.922 1.234.74.824 1.11 1.93 1.11 3.313 0 1.376-.37 2.477-1.11 3.298C6.926-.24 5.953.17 4.734.17c-1.23 0-2.214-.41-2.953-1.234C1.04-1.882.673-2.984.673-4.36c0-1.382.367-2.488 1.11-3.312.738-.82 1.722-1.234 2.952-1.234zm0 0"/></symbol><symbol overflow="visible" id="c"><path d="M1.172-8.75h1.594l3.89 7.313V-8.75h1.14V0H6.204L2.328-7.313V0H1.172zm0 0"/></symbol><symbol overflow="visible" id="d"><path d="M1.172-8.75h5.03v1H2.36v2.578h3.468v1h-3.47V0H1.173zm0 0"/></symbol></defs><g><path fill="#fff" d="M0 0h300v300H0z"/><path d="M60.488 135.727l1.137 14.304" stroke-width="1.2" stroke="#cc0" stroke-miterlimit="10" fill="none"/><path d="M61.625 150.03l1.137 14.302" stroke-width="1.2" stroke="#f00" stroke-miterlimit="10" fill="none"/><path d="M67.22 135.19l1.135 14.306" stroke-width="1.2" stroke="#cc0" stroke-miterlimit="10" fill="none"/><path d="M68.355 149.496l1.137 14.3" stroke-width="1.2" stroke="#f00" stroke-miterlimit="10" fill="none"/><path d="M67.22 135.19l-1.138-14.3" stroke-width="1.2" stroke="#cc0" stroke-miterlimit="10" fill="none"/><path d="M66.082 120.89l-1.137-14.3" stroke-width="1.2" stroke="#f00" stroke-miterlimit="10" fill="none"/><path d="M60.488 135.727l-1.136-14.3" stroke-width="1.2" stroke="#cc0" stroke-miterlimit="10" fill="none"/><path d="M59.352 121.426l-1.137-14.3" stroke-width="1.2" stroke="#f00" stroke-miterlimit="10" fill="none"/><path d="M63.852 135.46l-14.3 1.138" stroke-width="1.2" stroke="#cc0" stroke-miterlimit="10" fill="none"/><path d="M49.55 136.598l-14.3 1.136" stroke-width="1.2" stroke="#000" stroke-miterlimit="10" fill="none"/><path d="M63.852 135.46l14.3-1.136" stroke-width="1.2" stroke="#cc0" stroke-miterlimit="10" fill="none"/><path d="M78.152 134.324l14.305-1.137" stroke-width="1.2" stroke="#000" stroke-miterlimit="10" fill="none"/><path d="M59.852 128.46h8v14h-8zm0 0" fill="#fff"/><use xlink:href="#a" x="59.852" y="139.6" fill="#cc0"/><path d="M61.125 157.063h10v14h-10zm0 0" fill="#fff"/><use xlink:href="#b" x="61.125" y="168.201" fill="#f00"/><path d="M56.578 99.86h10v14h-10zm0 0" fill="#fff"/><use xlink:href="#b" x="56.578" y="110.998" fill="#f00"/><path d="M92.457 133.188l12.332-25.907M99.785 133.5l9.867-20.727M108.727 156.82l-16.27-23.632M104.79 107.28l28.6-2.272M133.39 105.008l16.27 23.633M129.457 111.2l13.016 18.905M149.66 128.64l14.3-1.136" stroke-width="1.2" stroke="#000" stroke-miterlimit="10" fill="none"/><path d="M163.96 127.504l14.306-1.137" stroke-width="1.2" stroke="#00f" stroke-miterlimit="10" fill="none"/><path d="M149.66 128.64l-12.332 25.907" stroke-width="1.2" stroke="#000" stroke-miterlimit="10" fill="none"/><path d="M178.266 126.367l7.484-12.238" stroke-width="1.2" stroke="#00f" stroke-miterlimit="10" fill="none"/><path d="M185.75 114.13l7.488-12.24M196.914 148.172l-9.324-10.902" stroke-width="1.2" stroke="#000" stroke-miterlimit="10" fill="none"/><path d="M187.59 137.27l-9.324-10.903" stroke-width="1.2" stroke="#00f" stroke-miterlimit="10" fill="none"/><path d="M174.266 119.367h9v14h-9zm0 0" fill="#fff"/><use xlink:href="#c" x="174.266" y="130.506" fill="#00f"/><path d="M193.238 101.89l27.903 6.676M194.457 109.125l22.324 5.34M221.14 108.566l1.137 14.305" stroke-width="1.2" stroke="#000" stroke-miterlimit="10" fill="none"/><path d="M222.277 122.87l1.137 14.302" stroke-width="1.2" stroke="#00f" stroke-miterlimit="10" fill="none"/><path d="M221.14 108.566l21.805-18.648" stroke-width="1.2" stroke="#000" stroke-miterlimit="10" fill="none"/><path d="M223.414 137.172l-13.25 5.5" stroke-width="1.2" stroke="#00f" stroke-miterlimit="10" fill="none"/><path d="M210.164 142.672l-13.25 5.5" stroke-width="1.2" stroke="#000" stroke-miterlimit="10" fill="none"/><path d="M218.176 132.035l-10.598 4.403" stroke-width="1.2" stroke="#00f" stroke-miterlimit="10" fill="none"/><path d="M207.578 136.438l-10.6 4.398" stroke-width="1.2" stroke="#000" stroke-miterlimit="10" fill="none"/><path d="M219.414 130.172h9v14h-9zm0 0" fill="#fff"/><use xlink:href="#c" x="219.414" y="141.311" fill="#00f"/><path d="M196.914 148.172l-6.676 27.906M190.238 176.078l-27.504 8.168M189.41 183.367l-22.004 6.535M211.066 195.813l-20.828-19.735M162.734 184.246l-6.675 27.906M156.06 212.152l20.827 19.735M162.78 209.227l16.665 15.785M176.887 231.887l27.504-8.168M204.39 223.72l6.676-27.907M198.492 219.355l5.34-22.324M211.066 195.813l13.754-4.086" stroke-width="1.2" stroke="#000" stroke-miterlimit="10" fill="none"/><path d="M224.82 191.727l13.75-4.086M238.57 187.64l10.414 9.868" stroke-width="1.2" stroke="#f00" stroke-miterlimit="10" fill="none"/><path d="M248.984 197.508l10.414 9.867" stroke-width="1.2" stroke="#000" stroke-miterlimit="10" fill="none"/><path d="M233.57 180.64h10v14h-10zm0 0" fill="#fff"/><use xlink:href="#b" x="233.57" y="191.779" fill="#f00"/><path d="M242.945 89.918l10.903-9.328" stroke-width="1.2" stroke="#000" stroke-miterlimit="10" fill="none"/><path d="M253.848 80.59l10.902-9.324" stroke-width="1.2" stroke="#3cc" stroke-miterlimit="10" fill="none"/><path d="M242.945 89.918l9.328 10.902" stroke-width="1.2" stroke="#000" stroke-miterlimit="10" fill="none"/><path d="M252.273 100.82l9.325 10.9" stroke-width="1.2" stroke="#3cc" stroke-miterlimit="10" fill="none"/><path d="M242.945 89.918l-9.324-10.902" stroke-width="1.2" stroke="#000" stroke-miterlimit="10" fill="none"/><path d="M233.62 79.016l-9.327-10.903" stroke-width="1.2" stroke="#3cc" stroke-miterlimit="10" fill="none"/><path d="M261.75 64.266h7v14h-7zm0 0" fill="#fff"/><use xlink:href="#d" x="261.75" y="75.404" fill="#3cc"/><path d="M258.598 104.72h7v14h-7zm0 0" fill="#fff"/><use xlink:href="#d" x="258.598" y="115.857" fill="#3cc"/><path d="M217.293 61.113h7v14h-7zm0 0" fill="#fff"/><use xlink:href="#d" x="217.293" y="72.252" fill="#3cc"/><path d="M137.328 154.547l-28.6 2.273M133.934 148.047l-22.883 1.816" stroke-width="1.2" stroke="#000" stroke-miterlimit="10" fill="none"/></g></svg>