<svg xmlns="http://www.w3.org/2000/svg" xmlns:xlink="http://www.w3.org/1999/xlink" width="300pt" height="300pt" viewBox="0 0 300 300"><defs><symbol overflow="visible"><path d="M.64 2.297v-11.47h6.5v11.47zm.735-.72h5.047V-8.436H1.375zm0 0"/></symbol><symbol overflow="visible" id="a"><path d="M5.125-8.61c-.938 0-1.684.352-2.234 1.047-.542.688-.812 1.633-.812 2.83 0 1.198.27 2.147.813 2.842.55.687 1.297 1.03 2.235 1.03.926 0 1.66-.343 2.203-1.03.55-.696.828-1.645.828-2.844 0-1.196-.277-2.14-.828-2.829-.543-.695-1.277-1.046-2.203-1.046zm0-1.046c1.32 0 2.38.45 3.172 1.344.8.898 1.203 2.09 1.203 3.578 0 1.5-.402 2.7-1.203 3.593C7.504-.255 6.445.186 5.125.186c-1.336 0-2.402-.44-3.203-1.328C1.13-2.036.734-3.235.734-4.735c0-1.49.395-2.68 1.188-3.579.8-.894 1.867-1.343 3.203-1.343zm0 0"/></symbol></defs><g><path fill="#fff" d="M0 0h300v300H0z"/><path d="M72.04 88.242l16.487-1.89" stroke-width="1.2" stroke="#f00" stroke-miterlimit="10" fill="none"/><path d="M88.527 86.352l16.49-1.887M65.445 120.773l3.297-16.265" stroke-width="1.2" stroke="#000" stroke-miterlimit="10" fill="none"/><path d="M68.742 104.508l3.297-16.266" stroke-width="1.2" stroke="#f00" stroke-miterlimit="10" fill="none"/><path d="M67.04 80.242h11v16h-11zm0 0" fill="#fff"/><use xlink:href="#a" x="67.039" y="92.618" fill="#f00"/><path d="M105.016 84.465l13.785 30.19M113.5 84.238l11.027 24.157M124.273 57.43l-19.257 27.035M118.8 114.656l33.04 3.16M118.8 114.656l-24.456 22.442M151.84 117.816l19.258-27.035M147.406 110.582l15.406-21.63M171.098 90.78l16.52 1.58" stroke-width="1.2" stroke="#000" stroke-miterlimit="10" fill="none"/><path d="M187.617 92.36l16.524 1.58" stroke-width="1.2" stroke="#f00" stroke-miterlimit="10" fill="none"/><path d="M171.098 90.78l-13.786-30.194" stroke-width="1.2" stroke="#000" stroke-miterlimit="10" fill="none"/><path d="M204.14 93.94l6.89 15.095" stroke-width="1.2" stroke="#f00" stroke-miterlimit="10" fill="none"/><path d="M211.03 109.035l6.896 15.098" stroke-width="1.2" stroke="#000" stroke-miterlimit="10" fill="none"/><path d="M199.14 85.94h11v16h-11zm0 0" fill="#fff"/><use xlink:href="#a" x="199.141" y="98.317" fill="#f00"/><path d="M217.926 124.133l-19.258 27.035M222.36 131.367l-15.407 21.63M250.965 127.293l-33.04-3.16M198.668 151.168l13.785 30.195M212.453 181.363l33.04 3.16M216.5 173.906l26.434 2.528M245.492 184.523l19.258-27.035M245.492 184.523l13.785 30.192M264.75 157.488l-13.785-30.195M256.266 157.71l-11.028-24.155M157.313 60.586l-33.04-3.156M153.266 68.047l-26.434-2.527M94.344 137.098l3.78 32.976M94.344 137.098l-28.9-16.325M95.297 128.664l-23.12-13.06M98.125 170.074l-13.336 9.88" stroke-width="1.2" stroke="#000" stroke-miterlimit="10" fill="none"/><path d="M84.79 179.953l-13.333 9.883" stroke-width="1.2" stroke="#f00" stroke-miterlimit="10" fill="none"/><path d="M96.57 173.656l15.223 6.606" stroke-width="1.2" stroke="#000" stroke-miterlimit="10" fill="none"/><path d="M111.793 180.262l15.223 6.61" stroke-width="1.2" stroke="#f00" stroke-miterlimit="10" fill="none"/><path d="M99.68 166.492l15.222 6.606" stroke-width="1.2" stroke="#000" stroke-miterlimit="10" fill="none"/><path d="M114.902 173.098l15.223 6.61M71.457 189.836l1.887 16.488" stroke-width="1.2" stroke="#f00" stroke-miterlimit="10" fill="none"/><path d="M73.344 206.324l1.89 16.488" stroke-width="1.2" stroke="#000" stroke-miterlimit="10" fill="none"/><path d="M66.457 181.836h11v16h-11zm0 0" fill="#fff"/><use xlink:href="#a" x="66.457" y="194.212" fill="#f00"/><path d="M75.234 222.813L48.566 242.57" stroke-width="1.2" stroke="#000" stroke-miterlimit="10" fill="none"/><path d="M123.57 175.29h11v16h-11zm0 0" fill="#fff"/><use xlink:href="#a" x="123.57" y="187.665" fill="#f00"/><path d="M65.445 120.773L35.25 134.56" stroke-width="1.2" stroke="#000" stroke-miterlimit="10" fill="none"/></g></svg>