<svg xmlns="http://www.w3.org/2000/svg" xmlns:xlink="http://www.w3.org/1999/xlink" width="300pt" height="300pt" viewBox="0 0 300 300"><defs><symbol overflow="visible"><path d="M.453 1.594v-7.938h4.5v7.938zm.5-.5h3.5v-6.938h-3.5zm0 0"/></symbol><symbol overflow="visible" id="a"><path d="M3.547-5.953c-.65 0-1.164.242-1.547.72-.375.48-.563 1.13-.563 1.952 0 .835.188 1.49.563 1.967.383.48.898.72 1.547.72.644 0 1.156-.24 1.53-.72.376-.476.564-1.132.564-1.968 0-.822-.187-1.474-.562-1.954-.375-.477-.887-.72-1.53-.72zm0-.734c.914 0 1.648.312 2.203.937.55.617.828 1.438.828 2.47 0 1.042-.277 1.87-.828 2.483-.555.617-1.29.922-2.203.922-.93 0-1.668-.305-2.22-.922C.774-1.41.5-2.237.5-3.28c0-1.033.273-1.853.828-2.47.55-.625 1.29-.938 2.22-.938zm0 0"/></symbol></defs><g><path fill="#fff" d="M0 0h300v300H0z"/><path d="M115.574 112.586l8.4 6.57" stroke-width="1.2" stroke="#f00" stroke-miterlimit="10" fill="none"/><path d="M123.973 119.156l8.394 6.57M97.89 124.496l8.844-5.957" stroke-width="1.2" stroke="#000" stroke-miterlimit="10" fill="none"/><path d="M106.734 118.54l8.84-5.954" stroke-width="1.2" stroke="#f00" stroke-miterlimit="10" fill="none"/><path d="M111.574 107.086h8v11h-8zm0 0" fill="#fff"/><use xlink:href="#a" x="111.574" y="115.749" fill="#f00"/><path d="M132.367 125.727l-7.308 20.027M136.348 129.45l-5.844 16.023M153.367 122.04l-21 3.687M125.06 145.754l13.69 16.344M125.06 145.754l-21.31-.762M138.75 162.098l21-3.684M139.984 156.79l16.8-2.95M159.75 158.414l6.848 8.172" stroke-width="1.2" stroke="#000" stroke-miterlimit="10" fill="none"/><path d="M166.598 166.586l6.843 8.172" stroke-width="1.2" stroke="#f00" stroke-miterlimit="10" fill="none"/><path d="M159.75 158.414l7.31-20.03" stroke-width="1.2" stroke="#000" stroke-miterlimit="10" fill="none"/><path d="M173.44 174.758l10.5-1.844" stroke-width="1.2" stroke="#f00" stroke-miterlimit="10" fill="none"/><path d="M183.94 172.914l10.5-1.844" stroke-width="1.2" stroke="#000" stroke-miterlimit="10" fill="none"/><path d="M169.44 169.258h8v11h-8zm0 0" fill="#fff"/><use xlink:href="#a" x="169.441" y="177.921" fill="#f00"/><path d="M194.44 171.07l7.31-20.027M199.887 170.79l5.843-16.024M208.133 187.414L194.44 171.07M201.75 151.043l21-3.688M222.75 147.355l13.69 16.344M227.965 145.77l10.953 13.074M230.06 127.328l-7.31 20.027M236.44 163.7l-7.307 20.027M236.44 163.7l21-3.688M229.133 183.727l-21 3.687M226.168 179.156l-16.8 2.95M257.44 160.012l7.31-20.028M253.46 156.29l5.845-16.024M264.75 139.984l-13.69-16.343M251.06 123.64l-21 3.688M249.824 128.95l-16.797 2.948M167.06 138.383l-13.693-16.344M161.844 139.97l-10.953-13.075M103.75 144.992l-13.137 16.793M103.75 144.992l-5.86-20.496M107.988 141.566l-4.687-16.402M90.613 161.785l-10.558-1.492" stroke-width="1.2" stroke="#000" stroke-miterlimit="10" fill="none"/><path d="M80.055 160.293L69.5 158.8" stroke-width="1.2" stroke="#f00" stroke-miterlimit="10" fill="none"/><path d="M88.285 162.723l3.985 9.886" stroke-width="1.2" stroke="#000" stroke-miterlimit="10" fill="none"/><path d="M92.27 172.61l3.988 9.886" stroke-width="1.2" stroke="#f00" stroke-miterlimit="10" fill="none"/><path d="M92.938 160.848l3.988 9.886" stroke-width="1.2" stroke="#000" stroke-miterlimit="10" fill="none"/><path d="M96.926 170.734l3.984 9.887M69.5 158.8l-6.57 8.395" stroke-width="1.2" stroke="#f00" stroke-miterlimit="10" fill="none"/><path d="M62.93 167.195l-6.57 8.395" stroke-width="1.2" stroke="#000" stroke-miterlimit="10" fill="none"/><path d="M65.5 153.3h8v11h-8zm0 0" fill="#fff"/><use xlink:href="#a" x="65.5" y="161.964" fill="#f00"/><path d="M56.36 175.59l-21.11-2.98" stroke-width="1.2" stroke="#000" stroke-miterlimit="10" fill="none"/><path d="M94.582 176.06h8v11h-8zm0 0" fill="#fff"/><use xlink:href="#a" x="94.582" y="184.722" fill="#f00"/><path d="M97.89 124.496l-20.027-7.308" stroke-width="1.2" stroke="#000" stroke-miterlimit="10" fill="none"/></g></svg>