<svg xmlns="http://www.w3.org/2000/svg" xmlns:xlink="http://www.w3.org/1999/xlink" width="300pt" height="300pt" viewBox="0 0 300 300"><defs><symbol overflow="visible"><path d="M.547 1.938V-7.75h5.5v9.688zm.625-.61h4.266v-8.47H1.171zm0 0"/></symbol><symbol overflow="visible" id="a"><path d="M5.89-7.75v1.047c-.417-.195-.808-.344-1.17-.438-.368-.094-.72-.14-1.064-.14-.586 0-1.04.116-1.36.343-.323.23-.483.554-.483.968 0 .357.1.626.312.814.22.18.625.324 1.22.437L4-4.593c.813.157 1.41.434 1.797.828.383.387.578.903.578 1.547 0 .783-.262 1.376-.78 1.783-.525.398-1.29.593-2.298.593-.375 0-.78-.047-1.22-.14C1.648-.066 1.208-.19.75-.36v-1.11c.445.25.88.44 1.297.564.426.125.844.187 1.25.187.625 0 1.1-.116 1.437-.358.332-.25.5-.598.5-1.047 0-.395-.12-.703-.36-.922-.24-.226-.636-.398-1.186-.515l-.657-.126c-.81-.156-1.4-.406-1.764-.75C.898-4.78.72-5.258.72-5.875c0-.707.25-1.266.75-1.672.5-.414 1.19-.625 2.077-.625.375 0 .754.04 1.14.11.395.074.797.18 1.204.312zm0 0"/></symbol><symbol overflow="visible" id="b"><path d="M4.328-7.28c-.78 0-1.406.296-1.875.89-.46.585-.687 1.382-.687 2.39 0 1.012.226 1.813.687 2.406.47.586 1.094.875 1.875.875.79 0 1.414-.288 1.875-.874.457-.593.688-1.394.688-2.406 0-1.008-.23-1.805-.687-2.39-.46-.594-1.086-.89-1.875-.89zm0-.892c1.125 0 2.024.383 2.703 1.14C7.708-6.28 8.048-5.27 8.048-4c0 1.262-.34 2.273-1.016 3.03C6.353-.22 5.454.157 4.33.157S2.3-.22 1.625-.97c-.668-.75-1-1.757-1-3.03 0-1.27.332-2.28 1-3.03.676-.76 1.578-1.142 2.703-1.142zm0 0"/></symbol><symbol overflow="visible" id="c"><path d="M1.078-8.016h1.47l3.546 6.704v-6.704h1.062V0H5.688L2.124-6.703V0H1.078zm0 0"/></symbol><symbol overflow="visible" id="d"><path d="M1.078-8.016h1.094v3.282H6.11v-3.282h1.077V0H6.11v-3.813H2.17V0H1.078zm0 0"/></symbol><symbol overflow="visible" id="f"><path d="M1.078-8.016h4.61v.907H2.171v2.36h3.172v.922H2.172V0H1.078zm0 0"/></symbol><symbol overflow="visible"><path d="M.453 1.594v-7.938h4.5v7.938zm.5-.5h3.5v-6.938h-3.5zm0 0"/></symbol><symbol overflow="visible" id="e"><path d="M1.734-.75h3.094V0H.656v-.75c.344-.344.8-.805 1.375-1.39.583-.594.954-.973 1.11-1.14.282-.322.473-.595.58-.814.112-.226.17-.445.17-.656 0-.352-.12-.64-.36-.86-.24-.218-.557-.327-.952-.327-.28 0-.578.054-.89.156-.305.093-.633.24-.985.436v-.906c.352-.133.688-.238 1-.313.313-.082.598-.125.86-.125.675 0 1.218.172 1.624.516.407.344.61.797.61 1.36 0 .273-.055.53-.156.78-.105.243-.288.524-.546.845-.074.085-.31.328-.703.734-.398.406-.95.976-1.656 1.703zm0 0"/></symbol></defs><g><path fill="#fff" d="M0 0h300v300H0z"/><path d="M234.97 216.34l-3.626 13.324" stroke-width="1.2" stroke="#cc0" stroke-miterlimit="10" fill="none"/><path d="M231.344 229.664l-3.62 13.324" stroke-width="1.2" stroke="#f00" stroke-miterlimit="10" fill="none"/><path d="M241.238 218.047l-3.62 13.32" stroke-width="1.2" stroke="#cc0" stroke-miterlimit="10" fill="none"/><path d="M237.617 231.367l-3.625 13.324" stroke-width="1.2" stroke="#f00" stroke-miterlimit="10" fill="none"/><path d="M241.238 218.047l3.62-13.324" stroke-width="1.2" stroke="#cc0" stroke-miterlimit="10" fill="none"/><path d="M244.86 204.723l3.62-13.325" stroke-width="1.2" stroke="#f00" stroke-miterlimit="10" fill="none"/><path d="M234.97 216.34l3.62-13.324" stroke-width="1.2" stroke="#cc0" stroke-miterlimit="10" fill="none"/><path d="M238.59 203.016l3.62-13.325" stroke-width="1.2" stroke="#f00" stroke-miterlimit="10" fill="none"/><path d="M238.102 217.19l13.324 3.626" stroke-width="1.2" stroke="#cc0" stroke-miterlimit="10" fill="none"/><path d="M251.426 220.816l13.324 3.62" stroke-width="1.2" stroke="#00f" stroke-miterlimit="10" fill="none"/><path d="M238.102 217.19l-13.325-3.62" stroke-width="1.2" stroke="#cc0" stroke-miterlimit="10" fill="none"/><path d="M224.777 213.57l-13.324-3.62" stroke-width="1.2" stroke="#000" stroke-miterlimit="10" fill="none"/><path d="M235.102 210.69h7v13h-7zm0 0" fill="#fff"/><use xlink:href="#a" x="235.102" y="220.593" fill="#cc0"/><path d="M226.86 237.34h9v13h-9zm0 0" fill="#fff"/><use xlink:href="#b" x="226.859" y="247.241" fill="#f00"/><path d="M241.348 184.047h9v13h-9zm0 0" fill="#fff"/><use xlink:href="#b" x="241.348" y="193.948" fill="#f00"/><path d="M253.75 215.938h22v17h-22zm0 0" fill="#fff"/><g fill="#00f"><use xlink:href="#c" x="253.75" y="225.839"/><use xlink:href="#d" x="261.733" y="225.839"/></g><use xlink:href="#e" x="269.758" y="230.722" fill="#00f"/><path d="M211.453 209.95l-19.598 19.456M204.918 207.28l-15.68 15.568M204.402 183.25l7.05 26.7M191.855 229.406l-26.644-7.246M165.21 222.16l-7.05-26.7M170.785 217.832l-5.64-21.36M158.16 195.46l-13.324-3.62" stroke-width="1.2" stroke="#000" stroke-miterlimit="10" fill="none"/><path d="M144.836 191.84l-13.324-3.625" stroke-width="1.2" stroke="#00f" stroke-miterlimit="10" fill="none"/><path d="M158.16 195.46l19.598-19.456" stroke-width="1.2" stroke="#000" stroke-miterlimit="10" fill="none"/><path d="M131.512 188.215l-21.524 17.3" stroke-width="1.2" stroke="#00f" stroke-miterlimit="10" fill="none"/><path d="M121.707 162.398l4.902 12.91" stroke-width="1.2" stroke="#000" stroke-miterlimit="10" fill="none"/><path d="M126.61 175.31l4.902 12.905" stroke-width="1.2" stroke="#00f" stroke-miterlimit="10" fill="none"/><path d="M127.512 181.715h8v13h-8zm0 0" fill="#fff"/><use xlink:href="#c" x="127.512" y="191.616" fill="#00f"/><path d="M109.988 205.516l-11.554-7.56" stroke-width="1.2" stroke="#00f" stroke-miterlimit="10" fill="none"/><path d="M98.434 197.957l-11.55-7.562" stroke-width="1.2" stroke="#000" stroke-miterlimit="10" fill="none"/><path d="M111.234 198.566l-9.242-6.046" stroke-width="1.2" stroke="#00f" stroke-miterlimit="10" fill="none"/><path d="M101.992 192.52l-9.242-6.05" stroke-width="1.2" stroke="#000" stroke-miterlimit="10" fill="none"/><path d="M105.988 199.016h8v13h-8zm0 0" fill="#fff"/><use xlink:href="#c" x="105.988" y="208.917" fill="#00f"/><path d="M86.883 190.395l7.242-26.65M86.883 190.395l-25.817 9.8M94.125 163.746l27.582-1.348M97.203 170.102l22.063-1.08M121.707 162.398l15.125-23.1M136.832 139.297l-4.902-12.91" stroke-width="1.2" stroke="#000" stroke-miterlimit="10" fill="none"/><path d="M131.93 126.387l-4.9-12.907" stroke-width="1.2" stroke="#f00" stroke-miterlimit="10" fill="none"/><path d="M164.414 137.95l-27.582 1.347M161.34 131.594l-22.067 1.078" stroke-width="1.2" stroke="#000" stroke-miterlimit="10" fill="none"/><path d="M127.03 113.48l10.763-8.652" stroke-width="1.2" stroke="#f00" stroke-miterlimit="10" fill="none"/><path d="M137.793 104.828l10.762-8.648" stroke-width="1.2" stroke="#000" stroke-miterlimit="10" fill="none"/><path d="M123.03 106.98h9v13h-9zm0 0" fill="#fff"/><use xlink:href="#b" x="123.031" y="116.882" fill="#f00"/><path d="M148.555 96.18l23.105 15.12M154.422 92.254l18.484 12.1M150.098 68.605l-1.543 27.575M171.66 111.3l-7.246 26.65M171.66 111.3l24.65-12.445M196.31 98.855l1.545-27.57M189.977 95.734l1.234-22.058M197.855 71.285L174.75 56.16M174.75 56.16l-24.652 12.445M175.215 63.203l-19.723 9.96M61.066 200.195l-12.91 4.903" stroke-width="1.2" stroke="#000" stroke-miterlimit="10" fill="none"/><path d="M48.156 205.098L35.25 210" stroke-width="1.2" stroke="#3cc" stroke-miterlimit="10" fill="none"/><path d="M61.066 200.195l-4.902-12.906" stroke-width="1.2" stroke="#000" stroke-miterlimit="10" fill="none"/><path d="M56.164 187.29l-4.898-12.91" stroke-width="1.2" stroke="#3cc" stroke-miterlimit="10" fill="none"/><path d="M61.066 200.195l4.903 12.91" stroke-width="1.2" stroke="#000" stroke-miterlimit="10" fill="none"/><path d="M65.97 213.105l4.897 12.907" stroke-width="1.2" stroke="#3cc" stroke-miterlimit="10" fill="none"/><path d="M28.25 203.5h7v13h-7zm0 0" fill="#fff"/><use xlink:href="#f" x="28.25" y="213.401" fill="#3cc"/><path d="M44.266 167.88h7v13h-7zm0 0" fill="#fff"/><use xlink:href="#f" x="44.266" y="177.78" fill="#3cc"/><path d="M67.867 219.512h7v13h-7zm0 0" fill="#fff"/><use xlink:href="#f" x="67.867" y="229.413" fill="#3cc"/><path d="M177.758 176.004l26.644 7.246M178.715 183l21.32 5.793" stroke-width="1.2" stroke="#000" stroke-miterlimit="10" fill="none"/></g></svg>