<svg xmlns="http://www.w3.org/2000/svg" xmlns:xlink="http://www.w3.org/1999/xlink" width="300pt" height="300pt" viewBox="0 0 300 300"><defs><symbol overflow="visible"><path d="M.547 1.938V-7.75h5.5v9.688zm.625-.61h4.266v-8.47H1.171zm0 0"/></symbol><symbol overflow="visible" id="a"><path d="M5.89-7.75v1.047c-.417-.195-.808-.344-1.17-.438-.368-.094-.72-.14-1.064-.14-.586 0-1.04.116-1.36.343-.323.23-.483.554-.483.968 0 .357.1.626.312.814.22.18.625.324 1.22.437L4-4.593c.813.157 1.41.434 1.797.828.383.387.578.903.578 1.547 0 .783-.262 1.376-.78 1.783-.525.398-1.29.593-2.298.593-.375 0-.78-.047-1.22-.14C1.648-.066 1.208-.19.75-.36v-1.11c.445.25.88.44 1.297.564.426.125.844.187 1.25.187.625 0 1.1-.116 1.437-.358.332-.25.5-.598.5-1.047 0-.395-.12-.703-.36-.922-.24-.226-.636-.398-1.186-.515l-.657-.126c-.81-.156-1.4-.406-1.764-.75C.898-4.78.72-5.258.72-5.875c0-.707.25-1.266.75-1.672.5-.414 1.19-.625 2.077-.625.375 0 .754.04 1.14.11.395.074.797.18 1.204.312zm0 0"/></symbol><symbol overflow="visible" id="b"><path d="M4.328-7.28c-.78 0-1.406.296-1.875.89-.46.585-.687 1.382-.687 2.39 0 1.012.226 1.813.687 2.406.47.586 1.094.875 1.875.875.79 0 1.414-.288 1.875-.874.457-.593.688-1.394.688-2.406 0-1.008-.23-1.805-.687-2.39-.46-.594-1.086-.89-1.875-.89zm0-.892c1.125 0 2.024.383 2.703 1.14C7.708-6.28 8.048-5.27 8.048-4c0 1.262-.34 2.273-1.016 3.03C6.353-.22 5.454.157 4.33.157S2.3-.22 1.625-.97c-.668-.75-1-1.757-1-3.03 0-1.27.332-2.28 1-3.03.676-.76 1.578-1.142 2.703-1.142zm0 0"/></symbol><symbol overflow="visible" id="c"><path d="M1.078-8.016h1.47l3.546 6.704v-6.704h1.062V0H5.688L2.124-6.703V0H1.078zm0 0"/></symbol><symbol overflow="visible" id="d"><path d="M1.078-8.016h1.094v3.282H6.11v-3.282h1.077V0H6.11v-3.813H2.17V0H1.078zm0 0"/></symbol><symbol overflow="visible" id="f"><path d="M1.078-8.016h4.61v.907H2.171v2.36h3.172v.922H2.172V0H1.078zm0 0"/></symbol><symbol overflow="visible"><path d="M.453 1.594v-7.938h4.5v7.938zm.5-.5h3.5v-6.938h-3.5zm0 0"/></symbol><symbol overflow="visible" id="e"><path d="M1.734-.75h3.094V0H.656v-.75c.344-.344.8-.805 1.375-1.39.583-.594.954-.973 1.11-1.14.282-.322.473-.595.58-.814.112-.226.17-.445.17-.656 0-.352-.12-.64-.36-.86-.24-.218-.557-.327-.952-.327-.28 0-.578.054-.89.156-.305.093-.633.24-.985.436v-.906c.352-.133.688-.238 1-.313.313-.082.598-.125.86-.125.675 0 1.218.172 1.624.516.407.344.61.797.61 1.36 0 .273-.055.53-.156.78-.105.243-.288.524-.546.845-.074.085-.31.328-.703.734-.398.406-.95.976-1.656 1.703zm0 0"/></symbol></defs><g><path fill="#fff" d="M0 0h300v300H0z"/><path d="M234.188 191.824l-1.926 13.672" stroke-width="1.2" stroke="#cc0" stroke-miterlimit="10" fill="none"/><path d="M232.262 205.496l-1.926 13.672" stroke-width="1.2" stroke="#f00" stroke-miterlimit="10" fill="none"/><path d="M240.62 192.73l-1.925 13.672" stroke-width="1.2" stroke="#cc0" stroke-miterlimit="10" fill="none"/><path d="M238.695 206.402l-1.922 13.672" stroke-width="1.2" stroke="#f00" stroke-miterlimit="10" fill="none"/><path d="M240.62 192.73l1.927-13.675" stroke-width="1.2" stroke="#cc0" stroke-miterlimit="10" fill="none"/><path d="M242.547 179.055l1.926-13.672" stroke-width="1.2" stroke="#f00" stroke-miterlimit="10" fill="none"/><path d="M234.188 191.824l1.925-13.676" stroke-width="1.2" stroke="#cc0" stroke-miterlimit="10" fill="none"/><path d="M236.113 178.148l1.926-13.67" stroke-width="1.2" stroke="#f00" stroke-miterlimit="10" fill="none"/><path d="M237.406 192.277l13.672 1.922" stroke-width="1.2" stroke="#cc0" stroke-miterlimit="10" fill="none"/><path d="M251.078 194.2l13.672 1.925" stroke-width="1.2" stroke="#00f" stroke-miterlimit="10" fill="none"/><path d="M237.406 192.277l-13.672-1.925" stroke-width="1.2" stroke="#cc0" stroke-miterlimit="10" fill="none"/><path d="M223.734 190.352l-13.675-1.926" stroke-width="1.2" stroke="#000" stroke-miterlimit="10" fill="none"/><path d="M234.406 185.777h7v13h-7zm0 0" fill="#fff"/><use xlink:href="#a" x="234.406" y="195.679" fill="#cc0"/><path d="M229.555 213.12h9v13h-9zm0 0" fill="#fff"/><use xlink:href="#b" x="229.555" y="223.022" fill="#f00"/><path d="M237.258 158.43h9v13h-9zm0 0" fill="#fff"/><use xlink:href="#b" x="237.258" y="168.331" fill="#f00"/><path d="M253.75 187.625h22v17h-22zm0 0" fill="#fff"/><g fill="#00f"><use xlink:href="#c" x="253.75" y="197.526"/><use xlink:href="#d" x="261.733" y="197.526"/></g><use xlink:href="#e" x="269.758" y="202.409" fill="#00f"/><path d="M210.06 188.426l-17.005 21.754M203.242 186.598l-13.605 17.406M199.723 162.816l10.336 25.61M193.055 210.18l-27.348-3.852M165.707 206.328l-10.336-25.605M170.7 201.336l-8.27-20.484M155.37 180.723l-13.67-1.926" stroke-width="1.2" stroke="#000" stroke-miterlimit="10" fill="none"/><path d="M141.7 178.797l-13.673-1.926" stroke-width="1.2" stroke="#00f" stroke-miterlimit="10" fill="none"/><path d="M155.37 180.723l17.01-21.754" stroke-width="1.2" stroke="#000" stroke-miterlimit="10" fill="none"/><path d="M128.027 176.87l-19.187 19.86" stroke-width="1.2" stroke="#00f" stroke-miterlimit="10" fill="none"/><path d="M115.07 152.488l6.477 12.192" stroke-width="1.2" stroke="#000" stroke-miterlimit="10" fill="none"/><path d="M121.547 164.68l6.48 12.19" stroke-width="1.2" stroke="#00f" stroke-miterlimit="10" fill="none"/><path d="M124.027 170.37h8v13h-8zm0 0" fill="#fff"/><use xlink:href="#c" x="124.027" y="180.272" fill="#00f"/><path d="M108.84 196.73l-12.41-6.054" stroke-width="1.2" stroke="#00f" stroke-miterlimit="10" fill="none"/><path d="M96.43 190.676l-12.407-6.055" stroke-width="1.2" stroke="#000" stroke-miterlimit="10" fill="none"/><path d="M109.207 189.68l-9.926-4.844" stroke-width="1.2" stroke="#00f" stroke-miterlimit="10" fill="none"/><path d="M99.28 184.836l-9.928-4.844" stroke-width="1.2" stroke="#000" stroke-miterlimit="10" fill="none"/><path d="M104.84 190.23h8v13h-8zm0 0" fill="#fff"/><use xlink:href="#c" x="104.84" y="200.132" fill="#00f"/><path d="M84.023 184.62l3.848-27.347M84.023 184.62L59.637 197.58M87.87 157.273l27.2-4.785M91.72 163.195l21.757-3.832M115.07 152.488l12.11-24.816M127.18 127.672l27.55-1.922M129.484 120.996l22.04-1.535M111.746 104.773l15.434 22.9M154.73 125.75l12.11-24.816M166.84 100.934L151.406 78.04M159.91 102.277L147.563 83.96M166.84 100.934l27.55-1.918M151.406 78.04l-27.547 1.917M123.86 79.957l-12.114 24.816M128.484 85.29l-9.687 19.85M59.637 197.578l-12.196 6.477" stroke-width="1.2" stroke="#000" stroke-miterlimit="10" fill="none"/><path d="M47.44 204.055l-12.19 6.48" stroke-width="1.2" stroke="#3cc" stroke-miterlimit="10" fill="none"/><path d="M59.637 197.578l-6.48-12.195" stroke-width="1.2" stroke="#000" stroke-miterlimit="10" fill="none"/><path d="M53.156 185.383L46.68 173.19" stroke-width="1.2" stroke="#3cc" stroke-miterlimit="10" fill="none"/><path d="M59.637 197.578l6.476 12.192" stroke-width="1.2" stroke="#000" stroke-miterlimit="10" fill="none"/><path d="M66.113 209.77l6.48 12.19" stroke-width="1.2" stroke="#3cc" stroke-miterlimit="10" fill="none"/><path d="M28.25 204.035h7v13h-7zm0 0" fill="#fff"/><use xlink:href="#f" x="28.25" y="213.937" fill="#3cc"/><path d="M39.68 166.69h7v13h-7zm0 0" fill="#fff"/><use xlink:href="#f" x="39.68" y="176.593" fill="#3cc"/><path d="M69.594 215.46h7v13h-7zm0 0" fill="#fff"/><use xlink:href="#f" x="69.594" y="225.362" fill="#3cc"/><path d="M172.38 158.97l27.343 3.846M174.207 165.785l21.875 3.082" stroke-width="1.2" stroke="#000" stroke-miterlimit="10" fill="none"/></g></svg>