<svg xmlns="http://www.w3.org/2000/svg" xmlns:xlink="http://www.w3.org/1999/xlink" width="300pt" height="300pt" viewBox="0 0 300 300"><defs><symbol overflow="visible"><path d="M.453 1.594v-7.938h4.5v7.938zm.5-.5h3.5v-6.938h-3.5zm0 0"/></symbol><symbol overflow="visible" id="a"><path d="M4.813-6.344v.86c-.336-.157-.653-.27-.954-.344-.294-.082-.58-.125-.86-.125-.492 0-.867.094-1.125.28-.262.19-.39.454-.39.798 0 .293.085.512.265.656.176.15.504.267.984.36l.547.11c.658.125 1.142.352 1.454.672.32.312.485.734.485 1.265 0 .637-.216 1.122-.642 1.454-.43.325-1.055.485-1.875.485-.312 0-.648-.04-1-.11C1.36-.046 1-.147.625-.296v-.906c.352.2.703.35 1.047.453.35.105.695.156 1.03.156.5 0 .884-.097 1.157-.297.28-.196.42-.485.42-.86 0-.32-.1-.57-.296-.75-.2-.176-.523-.313-.968-.406l-.547-.11C1.81-3.148 1.33-3.36 1.03-3.64.74-3.923.595-4.313.595-4.813c0-.57.203-1.024.61-1.36.405-.344.968-.516 1.687-.516.313 0 .626.032.938.094.32.055.65.137.985.25zm0 0"/></symbol><symbol overflow="visible" id="b"><path d="M3.547-5.953c-.65 0-1.164.242-1.547.72-.375.48-.563 1.13-.563 1.952 0 .835.188 1.49.563 1.967.383.48.898.72 1.547.72.644 0 1.156-.24 1.53-.72.376-.476.564-1.132.564-1.968 0-.822-.187-1.474-.562-1.954-.375-.477-.887-.72-1.53-.72zm0-.734c.914 0 1.648.312 2.203.937.55.617.828 1.438.828 2.47 0 1.042-.277 1.87-.828 2.483-.555.617-1.29.922-2.203.922-.93 0-1.668-.305-2.22-.922C.774-1.41.5-2.237.5-3.28c0-1.033.273-1.853.828-2.47.55-.625 1.29-.938 2.22-.938zm0 0"/></symbol><symbol overflow="visible" id="c"><path d="M.89-6.563H2.08l2.906 5.485v-5.484h.86V0H4.656L1.75-5.484V0H.89zm0 0"/></symbol><symbol overflow="visible" id="d"><path d="M.89-6.563h3.766v.75h-2.89v1.938h2.61v.734h-2.61V0H.89zm0 0"/></symbol></defs><g><path fill="#fff" d="M0 0h300v300H0z"/><path d="M55.375 211.008l5.52 11.406" stroke-width="1.2" stroke="#cc0" stroke-miterlimit="10" fill="none"/><path d="M60.895 222.414l5.52 11.406" stroke-width="1.2" stroke="#f00" stroke-miterlimit="10" fill="none"/><path d="M60.742 208.41l5.52 11.406" stroke-width="1.2" stroke="#cc0" stroke-miterlimit="10" fill="none"/><path d="M66.262 219.816l5.52 11.407" stroke-width="1.2" stroke="#f00" stroke-miterlimit="10" fill="none"/><path d="M60.742 208.41l-5.52-11.406" stroke-width="1.2" stroke="#cc0" stroke-miterlimit="10" fill="none"/><path d="M55.223 197.004l-5.52-11.402" stroke-width="1.2" stroke="#f00" stroke-miterlimit="10" fill="none"/><path d="M55.375 211.008l-5.52-11.406" stroke-width="1.2" stroke="#cc0" stroke-miterlimit="10" fill="none"/><path d="M49.855 199.602l-5.52-11.403" stroke-width="1.2" stroke="#f00" stroke-miterlimit="10" fill="none"/><path d="M58.06 209.71l-11.404 5.52" stroke-width="1.2" stroke="#cc0" stroke-miterlimit="10" fill="none"/><path d="M46.656 215.23l-11.406 5.52" stroke-width="1.2" stroke="#000" stroke-miterlimit="10" fill="none"/><path d="M58.06 209.71l11.405-5.52" stroke-width="1.2" stroke="#cc0" stroke-miterlimit="10" fill="none"/><path d="M69.465 204.19l11.406-5.518" stroke-width="1.2" stroke="#000" stroke-miterlimit="10" fill="none"/><path d="M55.06 204.21h6v11h-6zm0 0" fill="#fff"/><use xlink:href="#a" x="55.059" y="212.874" fill="#cc0"/><path d="M65.098 227.02h8v11h-8zm0 0" fill="#fff"/><use xlink:href="#b" x="65.098" y="235.683" fill="#f00"/><path d="M39.02 181.398h8v11h-8zm0 0" fill="#fff"/><use xlink:href="#b" x="39.02" y="190.062" fill="#f00"/><path d="M80.87 198.672l1.845-25.274M87 196.578l1.477-20.22M101.836 212.906L80.87 198.672M82.715 173.398l22.812-11.04M105.527 162.36l20.965 14.234M104.273 168.715l16.774 11.387M126.492 176.594l-1.847 25.273M126.492 176.594l22.81-11.04M124.645 201.867l-22.81 11.04M119.77 197.602l-18.25 8.832M149.3 165.555l2.24-12.473" stroke-width="1.2" stroke="#000" stroke-miterlimit="10" fill="none"/><path d="M151.54 153.082l2.237-12.473" stroke-width="1.2" stroke="#00f" stroke-miterlimit="10" fill="none"/><path d="M171.64 177.52l-22.34-11.965M172.223 171.066l-17.87-9.574" stroke-width="1.2" stroke="#000" stroke-miterlimit="10" fill="none"/><path d="M153.777 140.61l12.555-1.723" stroke-width="1.2" stroke="#00f" stroke-miterlimit="10" fill="none"/><path d="M166.332 138.887l12.55-1.727" stroke-width="1.2" stroke="#000" stroke-miterlimit="10" fill="none"/><path d="M153.777 140.61l-8.773-9.14" stroke-width="1.2" stroke="#00f" stroke-miterlimit="10" fill="none"/><path d="M145.004 131.47l-8.774-9.142" stroke-width="1.2" stroke="#000" stroke-miterlimit="10" fill="none"/><path d="M150.777 135.11h7v11h-7zm0 0" fill="#fff"/><use xlink:href="#c" x="150.777" y="143.772" fill="#00f"/><path d="M178.883 137.16l11.965-22.336M178.883 137.16l11.04 22.813M174.62 142.04l8.833 18.25M189.922 159.973l-18.28 17.547M189.922 159.973l24.94 4.476M214.863 164.45l4.297 11.917" stroke-width="1.2" stroke="#000" stroke-miterlimit="10" fill="none"/><path d="M219.16 176.367l4.3 11.918M223.46 188.285l12.47 2.242" stroke-width="1.2" stroke="#f00" stroke-miterlimit="10" fill="none"/><path d="M235.93 190.527l12.472 2.24" stroke-width="1.2" stroke="#000" stroke-miterlimit="10" fill="none"/><path d="M219.46 182.785h8v11h-8zm0 0" fill="#fff"/><use xlink:href="#b" x="219.461" y="191.448" fill="#f00"/><path d="M250.68 194.688l8.175-9.68" stroke-width="1.2" stroke="#000" stroke-miterlimit="10" fill="none"/><path d="M258.855 185.008l8.172-9.684" stroke-width="1.2" stroke="#f00" stroke-miterlimit="10" fill="none"/><path d="M246.125 190.84l8.172-9.68" stroke-width="1.2" stroke="#000" stroke-miterlimit="10" fill="none"/><path d="M254.297 181.16l8.176-9.683" stroke-width="1.2" stroke="#f00" stroke-miterlimit="10" fill="none"/><path d="M248.402 192.766l8.594 23.836" stroke-width="1.2" stroke="#000" stroke-miterlimit="10" fill="none"/><path d="M260.75 167.902h8v11h-8zm0 0" fill="#fff"/><use xlink:href="#b" x="260.75" y="176.565" fill="#f00"/><path d="M136.23 122.328l7.06-24.34M131.21 118.234l5.65-19.472M111.625 128.383l24.605-6.055M143.29 97.988l-17.548-18.28M125.742 79.707l-24.605 6.055M124.707 86.102l-19.687 4.843M101.137 85.762l-8.774-9.14" stroke-width="1.2" stroke="#000" stroke-miterlimit="10" fill="none"/><path d="M92.363 76.62l-8.773-9.14" stroke-width="1.2" stroke="#3cc" stroke-miterlimit="10" fill="none"/><path d="M101.137 85.762l-7.06 24.34" stroke-width="1.2" stroke="#000" stroke-miterlimit="10" fill="none"/><path d="M77.59 61.98h6v11h-6zm0 0" fill="#fff"/><use xlink:href="#d" x="77.59" y="70.644" fill="#3cc"/><path d="M94.078 110.102l17.547 18.28M100.133 107.8l14.04 14.626" stroke-width="1.2" stroke="#000" stroke-miterlimit="10" fill="none"/></g></svg>