<svg xmlns="http://www.w3.org/2000/svg" xmlns:xlink="http://www.w3.org/1999/xlink" width="300pt" height="300pt" viewBox="0 0 300 300"><defs><symbol overflow="visible"><path d="M.453 1.594v-7.938h4.5v7.938zm.5-.5h3.5v-6.938h-3.5zm0 0"/></symbol><symbol overflow="visible" id="a"><path d="M4.813-6.344v.86c-.336-.157-.653-.27-.954-.344-.294-.082-.58-.125-.86-.125-.492 0-.867.094-1.125.28-.262.19-.39.454-.39.798 0 .293.085.512.265.656.176.15.504.267.984.36l.547.11c.658.125 1.142.352 1.454.672.32.312.485.734.485 1.265 0 .637-.216 1.122-.642 1.454-.43.325-1.055.485-1.875.485-.312 0-.648-.04-1-.11C1.36-.046 1-.147.625-.296v-.906c.352.2.703.35 1.047.453.35.105.695.156 1.03.156.5 0 .884-.097 1.157-.297.28-.196.42-.485.42-.86 0-.32-.1-.57-.296-.75-.2-.176-.523-.313-.968-.406l-.547-.11C1.81-3.148 1.33-3.36 1.03-3.64.74-3.923.595-4.313.595-4.813c0-.57.203-1.024.61-1.36.405-.344.968-.516 1.687-.516.313 0 .626.032.938.094.32.055.65.137.985.25zm0 0"/></symbol><symbol overflow="visible" id="b"><path d="M3.547-5.953c-.65 0-1.164.242-1.547.72-.375.48-.563 1.13-.563 1.952 0 .835.188 1.49.563 1.967.383.48.898.72 1.547.72.644 0 1.156-.24 1.53-.72.376-.476.564-1.132.564-1.968 0-.822-.187-1.474-.562-1.954-.375-.477-.887-.72-1.53-.72zm0-.734c.914 0 1.648.312 2.203.937.55.617.828 1.438.828 2.47 0 1.042-.277 1.87-.828 2.483-.555.617-1.29.922-2.203.922-.93 0-1.668-.305-2.22-.922C.774-1.41.5-2.237.5-3.28c0-1.033.273-1.853.828-2.47.55-.625 1.29-.938 2.22-.938zm0 0"/></symbol><symbol overflow="visible" id="c"><path d="M.89-6.563H2.08l2.906 5.485v-5.484h.86V0H4.656L1.75-5.484V0H.89zm0 0"/></symbol><symbol overflow="visible" id="d"><path d="M.89-6.563h.876v2.688H5v-2.688h.89V0H5v-3.125H1.766V0H.89zm0 0"/></symbol><symbol overflow="visible"><path d="M.406 1.422V-5.64h4V1.42zM.844.97h3.11v-6.157H.843zm0 0"/></symbol><symbol overflow="visible" id="e"><path d="M1.53-.672h2.767V0H.594v-.672c.29-.3.695-.71 1.22-1.234.518-.532.842-.867.967-1.016.26-.28.44-.52.533-.72.1-.194.156-.39.156-.577 0-.31-.11-.565-.33-.764-.218-.196-.5-.297-.843-.297-.25 0-.516.046-.797.14-.273.085-.563.214-.875.39v-.797c.32-.133.617-.234.89-.297.282-.062.536-.093.766-.093.603 0 1.083.152 1.44.453.362.304.546.703.546 1.203 0 .24-.047.468-.14.686-.095.22-.26.477-.485.766-.074.074-.288.293-.64.656-.344.356-.836.856-1.47 1.5zm0 0"/></symbol></defs><g><path fill="#fff" d="M0 0h300v300H0z"/><path d="M239.523 188.332l-2.414 11.285" stroke-width="1.2" stroke="#cc0" stroke-miterlimit="10" fill="none"/><path d="M237.11 199.617l-2.415 11.285" stroke-width="1.2" stroke="#f00" stroke-miterlimit="10" fill="none"/><path d="M244.836 189.47l-2.414 11.284" stroke-width="1.2" stroke="#cc0" stroke-miterlimit="10" fill="none"/><path d="M242.422 200.754l-2.418 11.28" stroke-width="1.2" stroke="#f00" stroke-miterlimit="10" fill="none"/><path d="M244.836 189.47l2.414-11.286" stroke-width="1.2" stroke="#cc0" stroke-miterlimit="10" fill="none"/><path d="M247.25 178.184l2.414-11.286" stroke-width="1.2" stroke="#f00" stroke-miterlimit="10" fill="none"/><path d="M239.523 188.332l2.418-11.285" stroke-width="1.2" stroke="#cc0" stroke-miterlimit="10" fill="none"/><path d="M241.94 177.047l2.415-11.285" stroke-width="1.2" stroke="#f00" stroke-miterlimit="10" fill="none"/><path d="M242.18 188.898l11.285 2.415" stroke-width="1.2" stroke="#cc0" stroke-miterlimit="10" fill="none"/><path d="M253.465 191.313l11.285 2.417" stroke-width="1.2" stroke="#00f" stroke-miterlimit="10" fill="none"/><path d="M242.18 188.898l-11.285-2.414" stroke-width="1.2" stroke="#cc0" stroke-miterlimit="10" fill="none"/><path d="M230.895 186.484l-11.286-2.414" stroke-width="1.2" stroke="#000" stroke-miterlimit="10" fill="none"/><path d="M239.18 183.398h6v11h-6zm0 0" fill="#fff"/><use xlink:href="#a" x="239.18" y="192.062" fill="#cc0"/><path d="M233.352 205.97h8v11h-8zm0 0" fill="#fff"/><use xlink:href="#b" x="233.352" y="214.632" fill="#f00"/><path d="M243.012 160.828h8v11h-8zm0 0" fill="#fff"/><use xlink:href="#b" x="243.012" y="169.491" fill="#f00"/><path d="M255.75 185.73h19v16h-19zm0 0" fill="#fff"/><g fill="#00f"><use xlink:href="#c" x="255.75" y="194.394"/><use xlink:href="#d" x="262.728" y="194.394"/></g><use xlink:href="#e" x="269.742" y="199.276" fill="#00f"/><path d="M219.61 184.07l-15.465 17.13M214.03 182.145l-12.37 13.703M212.508 162.11l7.1 21.96M204.145 201.2l-22.57-4.83M181.574 196.37l-7.1-21.96M186.03 192.504l-5.682-17.57M174.473 174.41l-11.286-2.414" stroke-width="1.2" stroke="#000" stroke-miterlimit="10" fill="none"/><path d="M163.188 171.996l-11.286-2.418" stroke-width="1.2" stroke="#00f" stroke-miterlimit="10" fill="none"/><path d="M174.473 174.41l15.464-17.133" stroke-width="1.2" stroke="#000" stroke-miterlimit="10" fill="none"/><path d="M151.902 169.578L134.727 185" stroke-width="1.2" stroke="#00f" stroke-miterlimit="10" fill="none"/><path d="M142.543 148.48l4.68 10.55" stroke-width="1.2" stroke="#000" stroke-miterlimit="10" fill="none"/><path d="M147.223 159.03l4.68 10.548" stroke-width="1.2" stroke="#00f" stroke-miterlimit="10" fill="none"/><path d="M148.902 164.078h7v11h-7zm0 0" fill="#fff"/><use xlink:href="#c" x="148.902" y="172.741" fill="#00f"/><path d="M134.727 185l-9.985-5.785" stroke-width="1.2" stroke="#00f" stroke-miterlimit="10" fill="none"/><path d="M124.742 179.215l-9.988-5.78" stroke-width="1.2" stroke="#000" stroke-miterlimit="10" fill="none"/><path d="M135.453 179.145l-7.992-4.63" stroke-width="1.2" stroke="#00f" stroke-miterlimit="10" fill="none"/><path d="M127.46 174.516l-7.987-4.625" stroke-width="1.2" stroke="#000" stroke-miterlimit="10" fill="none"/><path d="M131.727 179.5h7v11h-7zm0 0" fill="#fff"/><use xlink:href="#c" x="131.727" y="188.163" fill="#00f"/><path d="M114.754 173.434l2.414-11.286" stroke-width="1.2" stroke="#000" stroke-miterlimit="10" fill="none"/><path d="M117.168 162.148l2.418-11.285" stroke-width="1.2" stroke="#00f" stroke-miterlimit="10" fill="none"/><path d="M114.754 173.434l-21.098 9.355" stroke-width="1.2" stroke="#000" stroke-miterlimit="10" fill="none"/><path d="M119.586 150.863l11.477-1.19" stroke-width="1.2" stroke="#00f" stroke-miterlimit="10" fill="none"/><path d="M131.063 149.672l11.48-1.192" stroke-width="1.2" stroke="#000" stroke-miterlimit="10" fill="none"/><path d="M122.44 156.027l9.185-.953" stroke-width="1.2" stroke="#00f" stroke-miterlimit="10" fill="none"/><path d="M131.625 155.074l9.184-.953" stroke-width="1.2" stroke="#000" stroke-miterlimit="10" fill="none"/><path d="M116.586 145.363h7v11h-7zm0 0" fill="#fff"/><use xlink:href="#c" x="116.586" y="154.026" fill="#00f"/><path d="M142.543 148.48l11.566-19.972M154.11 128.508l23.08.03M156.426 123.082l18.465.023M142.598 108.504l11.51 20.004M177.19 128.54l11.568-19.974M188.758 108.566l-11.512-20.004M182.902 109.277l-9.21-16.004M177.246 88.563l-23.082-.032M154.164 88.53l-11.566 19.974M157.707 93.25l-9.254 15.98M90.957 182.504l-1.223 11.473" stroke-width="1.2" stroke="#000" stroke-miterlimit="10" fill="none"/><path d="M89.734 193.977l-1.222 11.476" stroke-width="1.2" stroke="#f00" stroke-miterlimit="10" fill="none"/><path d="M96.355 183.078l-1.222 11.477" stroke-width="1.2" stroke="#000" stroke-miterlimit="10" fill="none"/><path d="M95.133 194.555l-1.22 11.472" stroke-width="1.2" stroke="#f00" stroke-miterlimit="10" fill="none"/><path d="M93.656 182.79l-9.328-6.794" stroke-width="1.2" stroke="#000" stroke-miterlimit="10" fill="none"/><path d="M84.328 175.996l-9.324-6.797" stroke-width="1.2" stroke="#00f" stroke-miterlimit="10" fill="none"/><path d="M87.21 200.242h8v11h-8zm0 0" fill="#fff"/><use xlink:href="#b" x="87.211" y="208.905" fill="#f00"/><path d="M75.004 169.2l-10.55 4.68" stroke-width="1.2" stroke="#00f" stroke-miterlimit="10" fill="none"/><path d="M64.453 173.88l-10.55 4.68" stroke-width="1.2" stroke="#000" stroke-miterlimit="10" fill="none"/><path d="M68.004 163.7h14v11h-14zm0 0" fill="#fff"/><g fill="#00f"><use xlink:href="#c" x="68.004" y="172.362"/><use xlink:href="#d" x="74.981" y="172.362"/></g><path d="M53.902 178.56L35.25 164.964M53.902 178.56l-2.44 22.948M189.938 157.277l22.57 4.832M191.06 163.07l18.053 3.868" stroke-width="1.2" stroke="#000" stroke-miterlimit="10" fill="none"/></g></svg>