<svg xmlns="http://www.w3.org/2000/svg" xmlns:xlink="http://www.w3.org/1999/xlink" width="300pt" height="300pt" viewBox="0 0 300 300"><defs><symbol overflow="visible"><path d="M.547 1.938V-7.75h5.5v9.688zm.625-.61h4.266v-8.47H1.171zm0 0"/></symbol><symbol overflow="visible" id="a"><path d="M4.328-7.28c-.78 0-1.406.296-1.875.89-.46.585-.687 1.382-.687 2.39 0 1.012.226 1.813.687 2.406.47.586 1.094.875 1.875.875.79 0 1.414-.288 1.875-.874.457-.593.688-1.394.688-2.406 0-1.008-.23-1.805-.687-2.39-.46-.594-1.086-.89-1.875-.89zm0-.892c1.125 0 2.024.383 2.703 1.14C7.708-6.28 8.048-5.27 8.048-4c0 1.262-.34 2.273-1.016 3.03C6.353-.22 5.454.157 4.33.157S2.3-.22 1.625-.97c-.668-.75-1-1.757-1-3.03 0-1.27.332-2.28 1-3.03.676-.76 1.578-1.142 2.703-1.142zm0 0"/></symbol></defs><g><path fill="#fff" d="M0 0h300v300H0z"/><path d="M254.82 138.97l-2.63-13.74" stroke-width="1.2" stroke="#f00" stroke-miterlimit="10" fill="none"/><path d="M252.19 125.23l-2.627-13.734M230.316 152.457l12.25-6.746" stroke-width="1.2" stroke="#000" stroke-miterlimit="10" fill="none"/><path d="M242.566 145.71l12.254-6.74" stroke-width="1.2" stroke="#f00" stroke-miterlimit="10" fill="none"/><path d="M250.82 132.47h9v13h-9zm0 0" fill="#fff"/><use xlink:href="#a" x="250.82" y="142.37" fill="#f00"/><path d="M249.563 111.496l-27.754-3.488M221.81 108.008l-11.896 25.316M221.81 108.008l-26.423-9.184M221.81 108.008l6.37-27.238M209.914 133.324l20.402 19.133M207.453 140.035l16.32 15.31M183.145 141.422l26.77-8.098M230.316 152.457l-6.37 27.234M223.945 179.69l-26.77 8.103M219.363 174.203l-21.418 6.48M223.945 179.69l20.403 19.138M197.176 187.793l-20.403-19.133M176.773 168.66l6.372-27.238M183.816 167.434l5.098-21.79M176.773 168.66L150 176.762M146.797 176.012l-3.188 13.617" stroke-width="1.2" stroke="#000" stroke-miterlimit="10" fill="none"/><path d="M143.61 189.63l-3.184 13.616" stroke-width="1.2" stroke="#f00" stroke-miterlimit="10" fill="none"/><path d="M153.203 177.512l-3.183 13.617" stroke-width="1.2" stroke="#000" stroke-miterlimit="10" fill="none"/><path d="M150.02 191.13l-3.188 13.616" stroke-width="1.2" stroke="#f00" stroke-miterlimit="10" fill="none"/><path d="M150 176.762l-20.402-19.137" stroke-width="1.2" stroke="#000" stroke-miterlimit="10" fill="none"/><path d="M139.63 197.496h9v13h-9zm0 0" fill="#fff"/><use xlink:href="#a" x="139.629" y="207.397" fill="#f00"/><path d="M129.598 157.625l-26.774 8.102M102.824 165.727L82.426 146.59M82.426 146.59l-26.774 8.1M55.652 154.69L35.25 135.56M55.652 154.69l-6.37 27.24M244.348 198.828l-19.133 20.402M244.348 198.828l19.136-20.402M244.348 198.828l20.402 19.137" stroke-width="1.2" stroke="#000" stroke-miterlimit="10" fill="none"/></g></svg>