<svg xmlns="http://www.w3.org/2000/svg" xmlns:xlink="http://www.w3.org/1999/xlink" width="300pt" height="300pt" viewBox="0 0 300 300"><defs><symbol overflow="visible"><path d="M.453 1.594v-7.938h4.5v7.938zm.5-.5h3.5v-6.938h-3.5zm0 0"/></symbol><symbol overflow="visible" id="a"><path d="M4.813-6.344v.86c-.336-.157-.653-.27-.954-.344-.294-.082-.58-.125-.86-.125-.492 0-.867.094-1.125.28-.262.19-.39.454-.39.798 0 .293.085.512.265.656.176.15.504.267.984.36l.547.11c.658.125 1.142.352 1.454.672.32.312.485.734.485 1.265 0 .637-.216 1.122-.642 1.454-.43.325-1.055.485-1.875.485-.312 0-.648-.04-1-.11C1.36-.046 1-.147.625-.296v-.906c.352.2.703.35 1.047.453.35.105.695.156 1.03.156.5 0 .884-.097 1.157-.297.28-.196.42-.485.42-.86 0-.32-.1-.57-.296-.75-.2-.176-.523-.313-.968-.406l-.547-.11C1.81-3.148 1.33-3.36 1.03-3.64.74-3.923.595-4.313.595-4.813c0-.57.203-1.024.61-1.36.405-.344.968-.516 1.687-.516.313 0 .626.032.938.094.32.055.65.137.985.25zm0 0"/></symbol><symbol overflow="visible" id="b"><path d="M3.547-5.953c-.65 0-1.164.242-1.547.72-.375.48-.563 1.13-.563 1.952 0 .835.188 1.49.563 1.967.383.48.898.72 1.547.72.644 0 1.156-.24 1.53-.72.376-.476.564-1.132.564-1.968 0-.822-.187-1.474-.562-1.954-.375-.477-.887-.72-1.53-.72zm0-.734c.914 0 1.648.312 2.203.937.55.617.828 1.438.828 2.47 0 1.042-.277 1.87-.828 2.483-.555.617-1.29.922-2.203.922-.93 0-1.668-.305-2.22-.922C.774-1.41.5-2.237.5-3.28c0-1.033.273-1.853.828-2.47.55-.625 1.29-.938 2.22-.938zm0 0"/></symbol></defs><g><path fill="#fff" d="M0 0h300v300H0z"/><path d="M202.516 145.234l-10.7-5.61" stroke-width="1.2" stroke="#cc0" stroke-miterlimit="10" fill="none"/><path d="M191.816 139.625l-10.7-5.613" stroke-width="1.2" stroke="#000" stroke-miterlimit="10" fill="none"/><path d="M202.516 145.234l10.207-6.457" stroke-width="1.2" stroke="#cc0" stroke-miterlimit="10" fill="none"/><path d="M212.723 138.777l10.21-6.46" stroke-width="1.2" stroke="#000" stroke-miterlimit="10" fill="none"/><path d="M199.516 139.734h6v11h-6zm0 0" fill="#fff"/><use xlink:href="#a" x="199.516" y="148.397" fill="#cc0"/><path d="M181.117 134.012L160.7 146.934M160.7 146.934l-21.4-11.227M139.3 135.707l-20.417 12.922M118.883 148.63l-21.4-11.228M97.484 137.402l-10.207 6.46" stroke-width="1.2" stroke="#000" stroke-miterlimit="10" fill="none"/><path d="M87.277 143.863l-10.21 6.46M77.066 150.324l-10.7-5.613" stroke-width="1.2" stroke="#f00" stroke-miterlimit="10" fill="none"/><path d="M66.367 144.71l-10.7-5.608" stroke-width="1.2" stroke="#000" stroke-miterlimit="10" fill="none"/><path d="M73.066 144.824h8v11h-8zm0 0" fill="#fff"/><use xlink:href="#b" x="73.066" y="153.487" fill="#f00"/><path d="M58.508 138.984l-.488-12.07" stroke-width="1.2" stroke="#000" stroke-miterlimit="10" fill="none"/><path d="M58.02 126.914l-.49-12.07" stroke-width="1.2" stroke="#f00" stroke-miterlimit="10" fill="none"/><path d="M52.828 139.215l-.488-12.07" stroke-width="1.2" stroke="#000" stroke-miterlimit="10" fill="none"/><path d="M52.34 127.145l-.492-12.075" stroke-width="1.2" stroke="#f00" stroke-miterlimit="10" fill="none"/><path d="M55.668 139.102L35.25 152.02" stroke-width="1.2" stroke="#000" stroke-miterlimit="10" fill="none"/><path d="M50.69 109.457h8v11h-8zm0 0" fill="#fff"/><use xlink:href="#b" x="50.691" y="118.12" fill="#f00"/><path d="M222.934 132.316l-.98-24.14M228.516 129.672l-.782-19.313M244.332 143.54l-21.398-11.224M221.953 108.176l20.422-12.922M242.375 95.254l21.395 11.226M241.87 101.414l17.122 8.977M263.77 106.48l.98 24.14M264.75 130.62l-20.418 12.92M259.668 127.11l-16.336 10.335M244.332 143.54l.488 12.073" stroke-width="1.2" stroke="#000" stroke-miterlimit="10" fill="none"/><path d="M244.82 155.613l.49 12.07M245.31 167.684l-10.208 6.46" stroke-width="1.2" stroke="#f00" stroke-miterlimit="10" fill="none"/><path d="M235.102 174.145l-10.21 6.457" stroke-width="1.2" stroke="#000" stroke-miterlimit="10" fill="none"/><path d="M241.31 162.184h8v11h-8zm0 0" fill="#fff"/><use xlink:href="#b" x="241.309" y="170.847" fill="#f00"/><path d="M226.21 178.086l-10.698-5.613" stroke-width="1.2" stroke="#000" stroke-miterlimit="10" fill="none"/><path d="M215.512 172.473l-10.696-5.61" stroke-width="1.2" stroke="#f00" stroke-miterlimit="10" fill="none"/><path d="M223.57 183.12l-10.7-5.612" stroke-width="1.2" stroke="#000" stroke-miterlimit="10" fill="none"/><path d="M212.87 177.508l-10.698-5.613" stroke-width="1.2" stroke="#f00" stroke-miterlimit="10" fill="none"/><path d="M224.89 180.602l.98 24.144" stroke-width="1.2" stroke="#000" stroke-miterlimit="10" fill="none"/><path d="M195.492 163.88h8v11h-8zm0 0" fill="#fff"/><use xlink:href="#b" x="195.492" y="172.542" fill="#f00"/></g></svg>