<svg xmlns="http://www.w3.org/2000/svg" xmlns:xlink="http://www.w3.org/1999/xlink" width="300pt" height="300pt" viewBox="0 0 300 300"><defs><symbol overflow="visible"><path d="M.453 1.594v-7.938h4.5v7.938zm.5-.5h3.5v-6.938h-3.5zm0 0"/></symbol><symbol overflow="visible" id="a"><path d="M5.797-6.063v.938c-.305-.27-.625-.473-.97-.61-.335-.144-.686-.218-1.06-.218-.75 0-1.33.23-1.736.687-.397.46-.592 1.12-.592 1.985 0 .866.195 1.526.593 1.983.408.46.986.688 1.736.688.375 0 .726-.066 1.062-.203.344-.132.664-.343.97-.625V-.5c-.314.21-.642.367-.986.47-.343.1-.714.155-1.11.155-.99 0-1.772-.3-2.343-.906C.784-1.396.5-2.228.5-3.28c0-1.052.285-1.88.86-2.486.57-.613 1.35-.92 2.343-.92.395-.002.766.053 1.11.155.35.104.68.26.984.468zm0 0"/></symbol><symbol overflow="visible" id="b"><path d="M.844-6.844h.812V0H.844zm0 0"/></symbol><symbol overflow="visible" id="c"><path d="M.89-6.563h3.766v.75h-2.89v1.938h2.61v.734h-2.61V0H.89zm0 0"/></symbol><symbol overflow="visible" id="d"><path d="M.89-6.563H2.08l2.906 5.485v-5.484h.86V0H4.656L1.75-5.484V0H.89zm0 0"/></symbol><symbol overflow="visible" id="e"><path d="M.89-6.563h.876v2.688H5v-2.688h.89V0H5v-3.125H1.766V0H.89zm0 0"/></symbol><symbol overflow="visible" id="f"><path d="M3.547-5.953c-.65 0-1.164.242-1.547.72-.375.48-.563 1.13-.563 1.952 0 .835.188 1.49.563 1.967.383.48.898.72 1.547.72.644 0 1.156-.24 1.53-.72.376-.476.564-1.132.564-1.968 0-.822-.187-1.474-.562-1.954-.375-.477-.887-.72-1.53-.72zm0-.734c.914 0 1.648.312 2.203.937.55.617.828 1.438.828 2.47 0 1.042-.277 1.87-.828 2.483-.555.617-1.29.922-2.203.922-.93 0-1.668-.305-2.22-.922C.774-1.41.5-2.237.5-3.28c0-1.033.273-1.853.828-2.47.55-.625 1.29-.938 2.22-.938zm0 0"/></symbol></defs><g><path fill="#fff" d="M0 0h300v300H0z"/><path d="M77.012 95.777l-5.227 9.028" stroke-width="1.2" stroke="#0c0" stroke-miterlimit="10" fill="none"/><path d="M71.785 104.805l-5.222 9.03" stroke-width="1.2" stroke="#000" stroke-miterlimit="10" fill="none"/><path d="M72.012 90.277h10v11h-10zm0 0" fill="#fff"/><g fill="#0c0"><use xlink:href="#a" x="72.012" y="98.94"/><use xlink:href="#b" x="78.525" y="98.94"/></g><path d="M66.563 113.836l10.414 18.078M63.352 118.094l8.332 14.46M45.7 113.816l20.862.02M76.977 131.914l-10.45 18.06M66.527 149.973l-20.863-.02M64.445 145.06l-16.687-.013" stroke-width="1.2" stroke="#000" stroke-miterlimit="10" fill="none"/><path d="M76.945 168.05m-1.023-2.82l-.906.52m-.118-3.34l-1.808 1.04m.785-3.86l-2.71 1.562m1.687-4.382l-3.614 2.082m2.59-4.903l-4.516 2.6m3.493-5.42l-5.422 3.12m4.398-5.94l-6.323 3.643m6.262-3.82l-6.38 3.676" stroke="#000" stroke-miterlimit="10" fill="none"/><path d="M45.664 149.953L35.25 131.875M35.25 131.875l10.45-18.06M40.543 132.527l8.36-14.45M45.7 113.816l-5.208-9.04" stroke-width="1.2" stroke="#000" stroke-miterlimit="10" fill="none"/><path d="M40.492 104.777l-5.21-9.04" stroke-width="1.2" stroke="#3cc" stroke-miterlimit="10" fill="none"/><path d="M29.28 90.238h6v11h-6zm0 0" fill="#fff"/><use xlink:href="#c" x="29.281" y="98.901" fill="#3cc"/><path d="M76.945 168.05l10.43.01" stroke-width="1.2" stroke="#000" stroke-miterlimit="10" fill="none"/><path d="M87.375 168.06l10.434.01" stroke-width="1.2" stroke="#00f" stroke-miterlimit="10" fill="none"/><path d="M76.945 168.05l-10.45 18.06" stroke-width="1.2" stroke="#000" stroke-miterlimit="10" fill="none"/><path d="M97.81 168.07l5.206 9.04" stroke-width="1.2" stroke="#00f" stroke-miterlimit="10" fill="none"/><path d="M103.016 177.11l5.207 9.035" stroke-width="1.2" stroke="#000" stroke-miterlimit="10" fill="none"/><path d="M90.81 162.57h14v11h-14zm0 0" fill="#fff"/><g fill="#00f"><use xlink:href="#d" x="90.809" y="171.233"/><use xlink:href="#e" x="97.786" y="171.233"/></g><path d="M106.098 184.918l-5.223 9.027" stroke-width="1.2" stroke="#000" stroke-miterlimit="10" fill="none"/><path d="M100.875 193.945l-5.227 9.032" stroke-width="1.2" stroke="#f00" stroke-miterlimit="10" fill="none"/><path d="M110.348 187.375l-5.223 9.03" stroke-width="1.2" stroke="#000" stroke-miterlimit="10" fill="none"/><path d="M105.125 196.406l-5.227 9.028" stroke-width="1.2" stroke="#f00" stroke-miterlimit="10" fill="none"/><path d="M108.223 186.145l10.433.01" stroke-width="1.2" stroke="#000" stroke-miterlimit="10" fill="none"/><path d="M118.656 186.156l10.43.008" stroke-width="1.2" stroke="#00f" stroke-miterlimit="10" fill="none"/><path d="M89.773 198.707h8v11h-8zm0 0" fill="#fff"/><use xlink:href="#f" x="89.773" y="207.37" fill="#f00"/><path d="M129.086 186.164l5.207 9.04" stroke-width="1.2" stroke="#00f" stroke-miterlimit="10" fill="none"/><path d="M134.293 195.203l5.207 9.04M139.535 168.105l-5.222 9.032" stroke-width="1.2" stroke="#000" stroke-miterlimit="10" fill="none"/><path d="M134.313 177.137l-5.227 9.027" stroke-width="1.2" stroke="#00f" stroke-miterlimit="10" fill="none"/><path d="M126.086 180.664h7v11h-7zm0 0" fill="#fff"/><use xlink:href="#d" x="126.086" y="189.327" fill="#00f"/><path d="M139.5 204.242l20.867.02M160.367 204.262l10.446-18.06M170.813 186.203l-10.415-18.078M174.027 181.945l-8.332-14.46M191.676 186.223l-20.863-.02M160.398 168.125l5.223-9.027" stroke-width="1.2" stroke="#000" stroke-miterlimit="10" fill="none"/><path d="M165.62 159.098l5.228-9.032" stroke-width="1.2" stroke="#00f" stroke-miterlimit="10" fill="none"/><path d="M160.398 168.125l-20.863-.02" stroke-width="1.2" stroke="#000" stroke-miterlimit="10" fill="none"/><path d="M170.848 150.066l10.43.012" stroke-width="1.2" stroke="#00f" stroke-miterlimit="10" fill="none"/><path d="M181.277 150.078l10.434.008" stroke-width="1.2" stroke="#000" stroke-miterlimit="10" fill="none"/><path d="M172.93 154.977l8.343.007" stroke-width="1.2" stroke="#00f" stroke-miterlimit="10" fill="none"/><path d="M181.273 154.984l8.348.008" stroke-width="1.2" stroke="#000" stroke-miterlimit="10" fill="none"/><path d="M167.848 144.566h7v11h-7zm0 0" fill="#fff"/><use xlink:href="#d" x="167.848" y="153.229" fill="#00f"/><path d="M191.71 150.086l5.208 9.04" stroke-width="1.2" stroke="#000" stroke-miterlimit="10" fill="none"/><path d="M196.918 159.125l5.207 9.04" stroke-width="1.2" stroke="#00f" stroke-miterlimit="10" fill="none"/><path d="M191.71 150.086l5.224-9.027" stroke-width="1.2" stroke="#000" stroke-miterlimit="10" fill="none"/><path d="M196.934 141.06l5.226-9.033M202.125 168.164l-5.223 9.03" stroke-width="1.2" stroke="#00f" stroke-miterlimit="10" fill="none"/><path d="M196.902 177.195l-5.226 9.028" stroke-width="1.2" stroke="#000" stroke-miterlimit="10" fill="none"/><path d="M196.832 167.512l-4.18 7.222" stroke-width="1.2" stroke="#00f" stroke-miterlimit="10" fill="none"/><path d="M192.652 174.734l-4.18 7.223" stroke-width="1.2" stroke="#000" stroke-miterlimit="10" fill="none"/><path d="M199.125 162.664h7v11h-7zm0 0" fill="#fff"/><use xlink:href="#d" x="199.125" y="171.327" fill="#00f"/><path d="M202.16 132.027l10.43.008" stroke-width="1.2" stroke="#00f" stroke-miterlimit="10" fill="none"/><path d="M212.59 132.035l10.433.012" stroke-width="1.2" stroke="#000" stroke-miterlimit="10" fill="none"/><path d="M195.16 126.527h14v11h-14zm0 0" fill="#fff"/><g fill="#00f"><use xlink:href="#d" x="195.16" y="135.19"/><use xlink:href="#e" x="202.138" y="135.19"/></g><path d="M223.023 132.047l10.415 18.078M233.473 113.988l-10.45 18.06M233.438 150.125l20.863.02M254.3 150.145l5.227-9.032" stroke-width="1.2" stroke="#000" stroke-miterlimit="10" fill="none"/><path d="M259.527 141.113l5.223-9.027M264.75 132.086l-5.207-9.04" stroke-width="1.2" stroke="#f00" stroke-miterlimit="10" fill="none"/><path d="M259.543 123.047l-5.207-9.04" stroke-width="1.2" stroke="#000" stroke-miterlimit="10" fill="none"/><path d="M260.75 126.586h8v11h-8zm0 0" fill="#fff"/><use xlink:href="#f" x="260.75" y="135.249" fill="#f00"/><path d="M254.336 114.008l-20.863-.02M66.496 186.11l-10.433-.012" stroke-width="1.2" stroke="#000" stroke-miterlimit="10" fill="none"/><path d="M56.063 186.098l-10.43-.008" stroke-width="1.2" stroke="#f00" stroke-miterlimit="10" fill="none"/><path d="M30.633 180.59h15v11h-15zm0 0" fill="#fff"/><g fill="#f00"><use xlink:href="#e" x="30.633" y="189.253"/><use xlink:href="#f" x="37.647" y="189.253"/></g></g></svg>