<svg xmlns="http://www.w3.org/2000/svg" xmlns:xlink="http://www.w3.org/1999/xlink" width="300pt" height="300pt" viewBox="0 0 300 300"><defs><symbol overflow="visible"><path d="M.594 2.125V-8.47h6V2.126zm.672-.672h4.671V-7.78h-4.67zm0 0"/></symbol><symbol overflow="visible" id="a"><path d="M6.422-8.47v1.158c-.45-.208-.875-.364-1.28-.47-.4-.113-.78-.17-1.142-.17-.648 0-1.148.124-1.5.374-.344.25-.516.61-.516 1.078 0 .387.114.68.344.875.227.2.672.355 1.328.47L4.36-5c.882.168 1.535.465 1.952.89.426.42.64.98.64 1.688 0 .856-.288 1.5-.858 1.938-.563.437-1.4.656-2.5.656-.406 0-.844-.047-1.313-.14C1.814-.064 1.33-.204.83-.392v-1.22c.477.274.945.477 1.406.61.47.137.922.203 1.36.203.676 0 1.195-.13 1.562-.39.375-.27.563-.65.563-1.14 0-.427-.138-.76-.407-1-.262-.25-.696-.43-1.297-.548l-.72-.14c-.886-.176-1.526-.454-1.92-.83-.388-.374-.58-.893-.58-1.56 0-.782.27-1.392.813-1.83.538-.445 1.288-.67 2.25-.67.413 0 .83.038 1.25.108.425.074.863.184 1.312.328zm0 0"/></symbol><symbol overflow="visible" id="b"><path d="M4.734-7.953c-.867 0-1.554.324-2.062.97-.5.635-.75 1.51-.75 2.624 0 1.094.25 1.965.75 2.61.508.637 1.195.953 2.062.953.852 0 1.532-.316 2.032-.953.507-.645.765-1.516.765-2.61 0-1.113-.257-1.988-.764-2.624-.5-.645-1.18-.97-2.032-.97zm0-.953c1.22 0 2.192.414 2.922 1.234.74.824 1.11 1.93 1.11 3.313 0 1.376-.37 2.477-1.11 3.298C6.926-.24 5.953.17 4.734.17c-1.23 0-2.214-.41-2.953-1.234C1.04-1.882.673-2.984.673-4.36c0-1.382.367-2.488 1.11-3.312.738-.82 1.722-1.234 2.952-1.234zm0 0"/></symbol><symbol overflow="visible"><path d="M.5 1.766v-8.813h5v8.813zm.563-.547h3.875v-7.704H1.063zm0 0"/></symbol><symbol overflow="visible" id="c"><path d="M.484-3.14h2.64v.796H.485zm0 0"/></symbol></defs><g><path fill="#fff" d="M0 0h300v300H0z"/><path d="M188.676 144.28l-13.106-6.823" stroke-width="1.2" stroke="#cc0" stroke-miterlimit="10" fill="none"/><path d="M175.57 137.457l-13.105-6.828" stroke-width="1.2" stroke="#000" stroke-miterlimit="10" fill="none"/><path d="M188.676 144.28l12.465-7.932" stroke-width="1.2" stroke="#cc0" stroke-miterlimit="10" fill="none"/><path d="M201.14 136.348l12.47-7.938" stroke-width="1.2" stroke="#000" stroke-miterlimit="10" fill="none"/><path d="M184.676 137.28h8v14h-8zm0 0" fill="#fff"/><use xlink:href="#a" x="184.676" y="148.42" fill="#cc0"/><path d="M162.465 130.63l-24.93 15.87M137.535 146.5l-26.21-13.652M111.324 132.848l-24.933 15.87M86.39 148.72l-26.21-13.654M63.656 134.914l-.64-14.762" stroke-width="1.2" stroke="#000" stroke-miterlimit="10" fill="none"/><path d="M63.016 120.152l-.64-14.765" stroke-width="1.2" stroke="#f00" stroke-miterlimit="10" fill="none"/><path d="M56.707 135.22l-.64-14.767" stroke-width="1.2" stroke="#000" stroke-miterlimit="10" fill="none"/><path d="M56.066 120.453l-.64-14.762" stroke-width="1.2" stroke="#f00" stroke-miterlimit="10" fill="none"/><path d="M60.18 135.066l-12.465 7.938" stroke-width="1.2" stroke="#000" stroke-miterlimit="10" fill="none"/><path d="M47.715 143.004l-12.465 7.934" stroke-width="1.2" stroke="#f00" stroke-miterlimit="10" fill="none"/><path d="M53.898 98.54h10v14h-10zm0 0" fill="#fff"/><use xlink:href="#b" x="53.898" y="109.678" fill="#f00"/><path d="M21.25 142.438h14v17h-14zm0 0" fill="#fff"/><use xlink:href="#c" x="21.25" y="151.72" fill="#f00"/><use xlink:href="#b" x="24.858" y="156.603" fill="#f00"/><path d="M213.61 128.41l-1.282-29.527M220.426 125.156l-1.024-23.62M239.82 142.063l-26.21-13.653M212.328 98.883l24.93-15.875M237.258 83.008l26.21 13.656M236.664 90.543l20.973 10.922M263.47 96.664l1.28 29.527M264.75 126.19l-24.93 15.873M258.523 121.91l-19.945 12.7M239.82 142.063l.64 14.765" stroke-width="1.2" stroke="#000" stroke-miterlimit="10" fill="none"/><path d="M240.46 156.828l.642 14.762M241.102 171.59l-12.465 7.937" stroke-width="1.2" stroke="#f00" stroke-miterlimit="10" fill="none"/><path d="M228.637 179.527l-12.47 7.938" stroke-width="1.2" stroke="#000" stroke-miterlimit="10" fill="none"/><path d="M236.102 164.59h10v14h-10zm0 0" fill="#fff"/><use xlink:href="#b" x="236.102" y="175.729" fill="#f00"/><path d="M217.777 184.38l-13.105-6.825" stroke-width="1.2" stroke="#000" stroke-miterlimit="10" fill="none"/><path d="M204.672 177.555l-13.106-6.828" stroke-width="1.2" stroke="#f00" stroke-miterlimit="10" fill="none"/><path d="M214.563 190.547l-13.106-6.828" stroke-width="1.2" stroke="#000" stroke-miterlimit="10" fill="none"/><path d="M201.457 183.72l-13.105-6.825" stroke-width="1.2" stroke="#f00" stroke-miterlimit="10" fill="none"/><path d="M216.168 187.465l1.28 29.527" stroke-width="1.2" stroke="#000" stroke-miterlimit="10" fill="none"/><path d="M179.957 166.81h10v14h-10zm0 0" fill="#fff"/><use xlink:href="#b" x="179.957" y="177.947" fill="#f00"/></g></svg>