<svg xmlns="http://www.w3.org/2000/svg" xmlns:xlink="http://www.w3.org/1999/xlink" width="300pt" height="300pt" viewBox="0 0 300 300"><defs><symbol overflow="visible"><path d="M.594 2.125V-8.47h6V2.126zm.672-.672h4.671V-7.78h-4.67zm0 0"/></symbol><symbol overflow="visible" id="a"><path d="M6.422-8.47v1.158c-.45-.208-.875-.364-1.28-.47-.4-.113-.78-.17-1.142-.17-.648 0-1.148.124-1.5.374-.344.25-.516.61-.516 1.078 0 .387.114.68.344.875.227.2.672.355 1.328.47L4.36-5c.882.168 1.535.465 1.952.89.426.42.64.98.64 1.688 0 .856-.288 1.5-.858 1.938-.563.437-1.4.656-2.5.656-.406 0-.844-.047-1.313-.14C1.814-.064 1.33-.204.83-.392v-1.22c.477.274.945.477 1.406.61.47.137.922.203 1.36.203.676 0 1.195-.13 1.562-.39.375-.27.563-.65.563-1.14 0-.427-.138-.76-.407-1-.262-.25-.696-.43-1.297-.548l-.72-.14c-.886-.176-1.526-.454-1.92-.83-.388-.374-.58-.893-.58-1.56 0-.782.27-1.392.813-1.83.538-.445 1.288-.67 2.25-.67.413 0 .83.038 1.25.108.425.074.863.184 1.312.328zm0 0"/></symbol><symbol overflow="visible" id="b"><path d="M4.734-7.953c-.867 0-1.554.324-2.062.97-.5.635-.75 1.51-.75 2.624 0 1.094.25 1.965.75 2.61.508.637 1.195.953 2.062.953.852 0 1.532-.316 2.032-.953.507-.645.765-1.516.765-2.61 0-1.113-.257-1.988-.764-2.624-.5-.645-1.18-.97-2.032-.97zm0-.953c1.22 0 2.192.414 2.922 1.234.74.824 1.11 1.93 1.11 3.313 0 1.376-.37 2.477-1.11 3.298C6.926-.24 5.953.17 4.734.17c-1.23 0-2.214-.41-2.953-1.234C1.04-1.882.673-2.984.673-4.36c0-1.382.367-2.488 1.11-3.312.738-.82 1.722-1.234 2.952-1.234zm0 0"/></symbol><symbol overflow="visible" id="c"><path d="M1.172-8.75h1.594l3.89 7.313V-8.75h1.14V0H6.204L2.328-7.313V0H1.172zm0 0"/></symbol><symbol overflow="visible" id="d"><path d="M1.172-8.75H2.36v3.594h4.296V-8.75h1.188V0H6.656v-4.172H2.36V0H1.17zm0 0"/></symbol></defs><g><path fill="#fff" d="M0 0h300v300H0z"/><path d="M192.953 128.5l-11.664-10.828" stroke-width="1.2" stroke="#cc0" stroke-miterlimit="10" fill="none"/><path d="M181.29 117.672l-11.665-10.828" stroke-width="1.2" stroke="#f00" stroke-miterlimit="10" fill="none"/><path d="M187.86 133.988l-11.665-10.828" stroke-width="1.2" stroke="#cc0" stroke-miterlimit="10" fill="none"/><path d="M176.195 123.16l-11.664-10.828" stroke-width="1.2" stroke="#f00" stroke-miterlimit="10" fill="none"/><path d="M187.86 133.988l11.663 10.828" stroke-width="1.2" stroke="#cc0" stroke-miterlimit="10" fill="none"/><path d="M199.523 144.816l11.665 10.83" stroke-width="1.2" stroke="#f00" stroke-miterlimit="10" fill="none"/><path d="M192.953 128.5l11.664 10.828" stroke-width="1.2" stroke="#cc0" stroke-miterlimit="10" fill="none"/><path d="M204.617 139.328l11.664 10.828" stroke-width="1.2" stroke="#f00" stroke-miterlimit="10" fill="none"/><path d="M190.406 131.246l-10.828 11.664" stroke-width="1.2" stroke="#cc0" stroke-miterlimit="10" fill="none"/><path d="M179.578 142.91l-10.828 11.664" stroke-width="1.2" stroke="#000" stroke-miterlimit="10" fill="none"/><path d="M190.406 131.246l10.828-11.664" stroke-width="1.2" stroke="#cc0" stroke-miterlimit="10" fill="none"/><path d="M201.234 119.582l10.828-11.664" stroke-width="1.2" stroke="#000" stroke-miterlimit="10" fill="none"/><path d="M186.406 124.246h8v14h-8zm0 0" fill="#fff"/><use xlink:href="#a" x="186.406" y="135.385" fill="#cc0"/><path d="M157.078 102.59h10v14h-10zm0 0" fill="#fff"/><use xlink:href="#b" x="157.078" y="113.729" fill="#f00"/><path d="M208.734 145.902h10v14h-10zm0 0" fill="#fff"/><use xlink:href="#b" x="208.734" y="157.041" fill="#f00"/><path d="M168.75 154.574l9.375 30.418M168.75 154.574l-31.03-7.09M163.98 161.168l-24.828-5.676M178.125 184.992L156.47 208.32M209.156 192.082l-31.03-7.09M204.387 198.676l-24.828-5.672M156.47 208.32l9.374 30.422M164.563 209.156l7.5 24.336M156.47 208.32l-31.032-7.09M165.844 238.742l31.03 7.09M196.875 245.832l21.656-23.328M193.55 238.402l17.33-18.664M218.53 222.504l-9.374-30.422M122.69 198.684l-10.823 11.664" stroke-width="1.2" stroke="#000" stroke-miterlimit="10" fill="none"/><path d="M111.867 210.348l-10.828 11.664" stroke-width="1.2" stroke="#f00" stroke-miterlimit="10" fill="none"/><path d="M128.184 203.777l-10.83 11.664" stroke-width="1.2" stroke="#000" stroke-miterlimit="10" fill="none"/><path d="M117.355 215.44l-10.828 11.67" stroke-width="1.2" stroke="#f00" stroke-miterlimit="10" fill="none"/><path d="M125.438 201.23l-4.688-15.207" stroke-width="1.2" stroke="#000" stroke-miterlimit="10" fill="none"/><path d="M120.75 186.023l-4.688-15.21" stroke-width="1.2" stroke="#00f" stroke-miterlimit="10" fill="none"/><path d="M93.78 217.56h10v14h-10zm0 0" fill="#fff"/><use xlink:href="#b" x="93.781" y="228.697" fill="#f00"/><path d="M116.063 170.813l-15.516-3.547" stroke-width="1.2" stroke="#00f" stroke-miterlimit="10" fill="none"/><path d="M100.547 167.266l-15.516-3.543" stroke-width="1.2" stroke="#000" stroke-miterlimit="10" fill="none"/><path d="M116.063 170.813l10.828-11.665" stroke-width="1.2" stroke="#00f" stroke-miterlimit="10" fill="none"/><path d="M126.89 159.148l10.83-11.664" stroke-width="1.2" stroke="#000" stroke-miterlimit="10" fill="none"/><path d="M112.063 163.813h9v14h-9zm0 0" fill="#fff"/><use xlink:href="#c" x="112.063" y="174.951" fill="#00f"/><path d="M85.03 163.723L75.657 133.3M75.656 133.3l21.656-23.327M72.332 125.875l17.324-18.664M44.625 126.21l31.03 7.09M97.313 109.973l-9.376-30.418M87.938 79.555l-31.032-7.09M83.164 86.148l-24.824-5.67M56.906 72.465L35.25 95.793M35.25 95.793l9.375 30.418M43.344 96.63l7.5 24.335M137.72 147.484l-4.69-15.21" stroke-width="1.2" stroke="#000" stroke-miterlimit="10" fill="none"/><path d="M133.03 132.273l-4.686-15.21" stroke-width="1.2" stroke="#f00" stroke-miterlimit="10" fill="none"/><path d="M109.344 110.063h19v14h-19zm0 0" fill="#fff"/><g fill="#f00"><use xlink:href="#d" x="109.344" y="121.201"/><use xlink:href="#b" x="118.367" y="121.201"/></g><path d="M212.063 107.918l31.03 7.09M216.836 101.324l24.824 5.672M202.688 77.496l9.375 30.422M243.094 115.008L264.75 91.68M264.75 91.68l-9.375-30.422M256.656 90.844l-7.5-24.336M255.375 61.258l-31.03-7.09M224.344 54.168l-21.656 23.328M227.668 61.598l-17.324 18.664" stroke-width="1.2" stroke="#000" stroke-miterlimit="10" fill="none"/></g></svg>