<svg xmlns="http://www.w3.org/2000/svg" xmlns:xlink="http://www.w3.org/1999/xlink" width="300pt" height="300pt" viewBox="0 0 300 300"><defs><symbol overflow="visible"><path d="M.594 2.125V-8.47h6V2.126zm.672-.672h4.671V-7.78h-4.67zm0 0"/></symbol><symbol overflow="visible" id="a"><path d="M7.734-8.078v1.25c-.406-.375-.836-.65-1.28-.828-.45-.188-.93-.282-1.438-.282-1 0-1.766.31-2.297.922-.533.618-.798 1.5-.798 2.657 0 1.15.266 2.028.797 2.64.53.618 1.296.923 2.296.923.507 0 .988-.094 1.437-.28.445-.19.875-.462 1.28-.83V-.67c-.417.28-.858.496-1.327.64-.46.134-.945.204-1.453.204-1.336 0-2.383-.406-3.14-1.22-.762-.81-1.14-1.913-1.14-3.31 0-1.408.378-2.517 1.14-3.33.757-.812 1.804-1.218 3.14-1.218.52 0 1.008.074 1.47.22.468.135.905.338 1.31.608zm0 0"/></symbol><symbol overflow="visible" id="b"><path d="M1.125-9.125h1.078V0H1.125zm0 0"/></symbol><symbol overflow="visible" id="c"><path d="M4.734-7.953c-.867 0-1.554.324-2.062.97-.5.635-.75 1.51-.75 2.624 0 1.094.25 1.965.75 2.61.508.637 1.195.953 2.062.953.852 0 1.532-.316 2.032-.953.507-.645.765-1.516.765-2.61 0-1.113-.257-1.988-.764-2.624-.5-.645-1.18-.97-2.032-.97zm0-.953c1.22 0 2.192.414 2.922 1.234.74.824 1.11 1.93 1.11 3.313 0 1.376-.37 2.477-1.11 3.298C6.926-.24 5.953.17 4.734.17c-1.23 0-2.214-.41-2.953-1.234C1.04-1.882.673-2.984.673-4.36c0-1.382.367-2.488 1.11-3.312.738-.82 1.722-1.234 2.952-1.234zm0 0"/></symbol><symbol overflow="visible" id="d"><path d="M1.172-8.75h1.594l3.89 7.313V-8.75h1.14V0H6.204L2.328-7.313V0H1.172zm0 0"/></symbol><symbol overflow="visible" id="e"><path d="M1.172-8.75H2.36v3.594h4.296V-8.75h1.188V0H6.656v-4.172H2.36V0H1.17zm0 0"/></symbol><symbol overflow="visible" id="f"><path d="M6.422-8.47v1.158c-.45-.208-.875-.364-1.28-.47-.4-.113-.78-.17-1.142-.17-.648 0-1.148.124-1.5.374-.344.25-.516.61-.516 1.078 0 .387.114.68.344.875.227.2.672.355 1.328.47L4.36-5c.882.168 1.535.465 1.952.89.426.42.64.98.64 1.688 0 .856-.288 1.5-.858 1.938-.563.437-1.4.656-2.5.656-.406 0-.844-.047-1.313-.14C1.814-.064 1.33-.204.83-.392v-1.22c.477.274.945.477 1.406.61.47.137.922.203 1.36.203.676 0 1.195-.13 1.562-.39.375-.27.563-.65.563-1.14 0-.427-.138-.76-.407-1-.262-.25-.696-.43-1.297-.548l-.72-.14c-.886-.176-1.526-.454-1.92-.83-.388-.374-.58-.893-.58-1.56 0-.782.27-1.392.813-1.83.538-.445 1.288-.67 2.25-.67.413 0 .83.038 1.25.108.425.074.863.184 1.312.328zm0 0"/></symbol></defs><g><path fill="#fff" d="M0 0h300v300H0z"/><path d="M65.715 222.895l12.254-7.934" stroke-width="1.2" stroke="#0c0" stroke-miterlimit="10" fill="none"/><path d="M77.97 214.96l12.253-7.933" stroke-width="1.2" stroke="#000" stroke-miterlimit="10" fill="none"/><path d="M53.715 215.895h12v14h-12zm0 0" fill="#fff"/><g fill="#0c0"><use xlink:href="#a" x="53.715" y="227.033"/><use xlink:href="#b" x="62.094" y="227.033"/></g><path d="M90.223 207.027l-1.49-29.16M96.934 203.762l-1.192-23.328M116.22 220.316l-25.997-13.29M88.734 177.867L113.238 162M113.238 162l25.996 13.29M118.965 157.21l20.797 10.634M111.75 132.84l1.488 29.16M139.234 175.29l1.493 29.155M139.234 175.29l24.508-15.872M140.727 204.445l-24.508 15.87M134.543 200.266l-19.606 12.695M162.18 162.477l13 6.644" stroke-width="1.2" stroke="#000" stroke-miterlimit="10" fill="none"/><path d="M175.18 169.12l12.996 6.646" stroke-width="1.2" stroke="#f00" stroke-miterlimit="10" fill="none"/><path d="M165.305 156.36l13 6.644" stroke-width="1.2" stroke="#000" stroke-miterlimit="10" fill="none"/><path d="M178.305 163.004l13 6.644" stroke-width="1.2" stroke="#f00" stroke-miterlimit="10" fill="none"/><path d="M163.742 159.418L163 144.84" stroke-width="1.2" stroke="#000" stroke-miterlimit="10" fill="none"/><path d="M163 144.84l-.746-14.578" stroke-width="1.2" stroke="#00f" stroke-miterlimit="10" fill="none"/><path d="M184.738 165.707h10v14h-10zm0 0" fill="#fff"/><use xlink:href="#c" x="184.738" y="176.846" fill="#f00"/><path d="M162.254 130.262l12.254-7.934" stroke-width="1.2" stroke="#00f" stroke-miterlimit="10" fill="none"/><path d="M174.508 122.328l12.254-7.937" stroke-width="1.2" stroke="#000" stroke-miterlimit="10" fill="none"/><path d="M162.254 130.262l-13-6.645" stroke-width="1.2" stroke="#00f" stroke-miterlimit="10" fill="none"/><path d="M149.254 123.617l-12.996-6.644" stroke-width="1.2" stroke="#000" stroke-miterlimit="10" fill="none"/><path d="M158.254 123.262h9v14h-9zm0 0" fill="#fff"/><use xlink:href="#d" x="158.254" y="134.4" fill="#00f"/><path d="M186.762 114.39l25.996 13.29M212.758 127.68l1.488 29.16M219.766 130.246l1.19 23.328M237.266 111.813l-24.508 15.867M214.246 156.84l25.996 13.29M240.242 170.13l24.508-15.872M238.96 162.773l19.606-12.695M264.75 154.258l-1.488-29.156M263.262 125.102l-25.996-13.29M257.535 129.887l-20.797-10.63M136.258 116.973l-.746-14.578" stroke-width="1.2" stroke="#000" stroke-miterlimit="10" fill="none"/><path d="M135.512 102.395l-.746-14.582" stroke-width="1.2" stroke="#f00" stroke-miterlimit="10" fill="none"/><path d="M136.258 116.973L111.75 132.84M137.54 124.324l-19.606 12.696" stroke-width="1.2" stroke="#000" stroke-miterlimit="10" fill="none"/><path d="M125.766 80.813h19v14h-19zm0 0" fill="#fff"/><g fill="#f00"><use xlink:href="#e" x="125.766" y="91.951"/><use xlink:href="#c" x="134.789" y="91.951"/></g><path d="M111.75 132.84l-13-6.645" stroke-width="1.2" stroke="#000" stroke-miterlimit="10" fill="none"/><path d="M98.75 126.195l-12.996-6.644M82.695 117.988l-6.644 13" stroke-width="1.2" stroke="#cc0" stroke-miterlimit="10" fill="none"/><path d="M76.05 130.988l-6.644 12.996" stroke-width="1.2" stroke="#f00" stroke-miterlimit="10" fill="none"/><path d="M88.813 121.113l-6.645 13" stroke-width="1.2" stroke="#cc0" stroke-miterlimit="10" fill="none"/><path d="M82.168 134.113l-6.645 13" stroke-width="1.2" stroke="#f00" stroke-miterlimit="10" fill="none"/><path d="M88.813 121.113l6.644-12.996" stroke-width="1.2" stroke="#cc0" stroke-miterlimit="10" fill="none"/><path d="M95.457 108.117l6.645-13" stroke-width="1.2" stroke="#f00" stroke-miterlimit="10" fill="none"/><path d="M82.695 117.988l6.645-13" stroke-width="1.2" stroke="#cc0" stroke-miterlimit="10" fill="none"/><path d="M89.34 104.988l6.644-12.996" stroke-width="1.2" stroke="#f00" stroke-miterlimit="10" fill="none"/><path d="M85.754 119.55l-13-6.644" stroke-width="1.2" stroke="#cc0" stroke-miterlimit="10" fill="none"/><path d="M72.754 112.906l-12.996-6.644" stroke-width="1.2" stroke="#000" stroke-miterlimit="10" fill="none"/><path d="M81.754 112.55h8v14h-8zm0 0" fill="#fff"/><use xlink:href="#f" x="81.754" y="123.689" fill="#cc0"/><path d="M62.465 138.547h10v14h-10zm0 0" fill="#fff"/><use xlink:href="#c" x="62.465" y="149.686" fill="#f00"/><path d="M94.043 86.555h10v14h-10zm0 0" fill="#fff"/><use xlink:href="#c" x="94.043" y="97.693" fill="#f00"/><path d="M59.758 106.262l-24.508 15.87M59.758 106.262l-1.492-29.157" stroke-width="1.2" stroke="#000" stroke-miterlimit="10" fill="none"/></g></svg>