<svg xmlns="http://www.w3.org/2000/svg" xmlns:xlink="http://www.w3.org/1999/xlink" width="300pt" height="300pt" viewBox="0 0 300 300"><defs><symbol overflow="visible"><path d="M.453 1.594v-7.938h4.5v7.938zm.5-.5h3.5v-6.938h-3.5zm0 0"/></symbol><symbol overflow="visible" id="a"><path d="M4.813-6.344v.86c-.336-.157-.653-.27-.954-.344-.294-.082-.58-.125-.86-.125-.492 0-.867.094-1.125.28-.262.19-.39.454-.39.798 0 .293.085.512.265.656.176.15.504.267.984.36l.547.11c.658.125 1.142.352 1.454.672.32.312.485.734.485 1.265 0 .637-.216 1.122-.642 1.454-.43.325-1.055.485-1.875.485-.312 0-.648-.04-1-.11C1.36-.046 1-.147.625-.296v-.906c.352.2.703.35 1.047.453.35.105.695.156 1.03.156.5 0 .884-.097 1.157-.297.28-.196.42-.485.42-.86 0-.32-.1-.57-.296-.75-.2-.176-.523-.313-.968-.406l-.547-.11C1.81-3.148 1.33-3.36 1.03-3.64.74-3.923.595-4.313.595-4.813c0-.57.203-1.024.61-1.36.405-.344.968-.516 1.687-.516.313 0 .626.032.938.094.32.055.65.137.985.25zm0 0"/></symbol><symbol overflow="visible" id="b"><path d="M.89-6.563H2.08l2.906 5.485v-5.484h.86V0H4.656L1.75-5.484V0H.89zm0 0"/></symbol><symbol overflow="visible" id="c"><path d="M.89-6.563h.876v2.688H5v-2.688h.89V0H5v-3.125H1.766V0H.89zm0 0"/></symbol><symbol overflow="visible" id="d"><path d="M3.547-5.953c-.65 0-1.164.242-1.547.72-.375.48-.563 1.13-.563 1.952 0 .835.188 1.49.563 1.967.383.48.898.72 1.547.72.644 0 1.156-.24 1.53-.72.376-.476.564-1.132.564-1.968 0-.822-.187-1.474-.562-1.954-.375-.477-.887-.72-1.53-.72zm0-.734c.914 0 1.648.312 2.203.937.55.617.828 1.438.828 2.47 0 1.042-.277 1.87-.828 2.483-.555.617-1.29.922-2.203.922-.93 0-1.668-.305-2.22-.922C.774-1.41.5-2.237.5-3.28c0-1.033.273-1.853.828-2.47.55-.625 1.29-.938 2.22-.938zm0 0"/></symbol></defs><g><path fill="#fff" d="M0 0h300v300H0z"/><path d="M143.96 153.82l-8.597 7.34" stroke-width="1.2" stroke="#cc0" stroke-miterlimit="10" fill="none"/><path d="M135.363 161.16l-8.6 7.34M163.238 165.64l-9.64-5.91" stroke-width="1.2" stroke="#000" stroke-miterlimit="10" fill="none"/><path d="M153.598 159.73l-9.637-5.91" stroke-width="1.2" stroke="#cc0" stroke-miterlimit="10" fill="none"/><path d="M140.96 148.32h6v11h-6zm0 0" fill="#fff"/><use xlink:href="#a" x="140.961" y="156.983" fill="#cc0"/><path d="M126.762 168.5l4.324 10.445" stroke-width="1.2" stroke="#000" stroke-miterlimit="10" fill="none"/><path d="M131.086 178.945l4.324 10.45" stroke-width="1.2" stroke="#00f" stroke-miterlimit="10" fill="none"/><path d="M132.543 168.555L136 176.91" stroke-width="1.2" stroke="#000" stroke-miterlimit="10" fill="none"/><path d="M136 176.91l3.46 8.36" stroke-width="1.2" stroke="#00f" stroke-miterlimit="10" fill="none"/><path d="M126.762 168.5l-21.985-5.285" stroke-width="1.2" stroke="#000" stroke-miterlimit="10" fill="none"/><path d="M135.41 189.395l22.543-1.77" stroke-width="1.2" stroke="#00f" stroke-miterlimit="10" fill="none"/><path d="M132.41 183.895h7v11h-7zm0 0" fill="#fff"/><use xlink:href="#b" x="132.41" y="192.558" fill="#00f"/><path d="M157.953 187.625l2.64-10.992" stroke-width="1.2" stroke="#00f" stroke-miterlimit="10" fill="none"/><path d="M160.594 176.633l2.644-10.992" stroke-width="1.2" stroke="#000" stroke-miterlimit="10" fill="none"/><path d="M153.31 184.184l2.112-8.793" stroke-width="1.2" stroke="#00f" stroke-miterlimit="10" fill="none"/><path d="M155.422 175.39l2.113-8.796" stroke-width="1.2" stroke="#000" stroke-miterlimit="10" fill="none"/><path d="M154.953 182.125h7v11h-7zm0 0" fill="#fff"/><use xlink:href="#b" x="154.953" y="190.788" fill="#00f"/><path d="M163.238 165.64l10.446-4.324" stroke-width="1.2" stroke="#000" stroke-miterlimit="10" fill="none"/><path d="M173.684 161.316l10.45-4.324M184.133 156.992l8.97 6.887" stroke-width="1.2" stroke="#cc0" stroke-miterlimit="10" fill="none"/><path d="M193.102 163.88l8.964 6.882" stroke-width="1.2" stroke="#000" stroke-miterlimit="10" fill="none"/><path d="M181.133 151.492h6v11h-6zm0 0" fill="#fff"/><use xlink:href="#a" x="181.133" y="160.155" fill="#cc0"/><path d="M202.066 170.762l20.895-8.645M222.96 162.117l17.938 13.77M227.996 159.273l14.348 11.016M225.922 139.7l-2.96 22.417M240.898 175.887l20.895-8.65M261.793 167.238l2.957-22.418M256.813 164.3l2.367-17.933M264.75 144.82l-17.938-13.77M246.813 131.05l-20.89 8.65M246.758 136.832l-16.715 6.918M104.777 163.215L98.36 141.53M99.03 162.555L93.9 145.207M89.203 179.613l15.574-16.398M98.36 141.53l-21.985-5.284M76.375 136.246l-6.418-21.684M76.375 136.246l-15.574 16.4M78.676 141.547l-12.457 13.12M69.957 114.563L63.543 92.88M69.957 114.563l21.684-6.418M69.957 114.563l-21.684 6.414M60.8 152.645L49.81 150" stroke-width="1.2" stroke="#000" stroke-miterlimit="10" fill="none"/><path d="M49.81 150l-10.994-2.645" stroke-width="1.2" stroke="#f00" stroke-miterlimit="10" fill="none"/><path d="M60.8 152.645l6.42 21.683" stroke-width="1.2" stroke="#000" stroke-miterlimit="10" fill="none"/><path d="M23.816 141.855h15v11h-15zm0 0" fill="#fff"/><g fill="#f00"><use xlink:href="#c" x="23.816" y="150.519"/><use xlink:href="#d" x="30.831" y="150.519"/></g><path d="M67.22 174.328l21.983 5.285M70.66 169.68l17.59 4.23M67.22 174.328l-15.572 16.395M51.648 190.723l-15.57 16.398M51.648 190.723l16.4 15.57M51.648 190.723l-16.398-15.57" stroke-width="1.2" stroke="#000" stroke-miterlimit="10" fill="none"/></g></svg>