<svg xmlns="http://www.w3.org/2000/svg" xmlns:xlink="http://www.w3.org/1999/xlink" width="300pt" height="300pt" viewBox="0 0 300 300"><defs><symbol overflow="visible"><path d="M.594 2.125V-8.47h6V2.126zm.672-.672h4.671V-7.78h-4.67zm0 0"/></symbol><symbol overflow="visible" id="a"><path d="M6.422-8.47v1.158c-.45-.208-.875-.364-1.28-.47-.4-.113-.78-.17-1.142-.17-.648 0-1.148.124-1.5.374-.344.25-.516.61-.516 1.078 0 .387.114.68.344.875.227.2.672.355 1.328.47L4.36-5c.882.168 1.535.465 1.952.89.426.42.64.98.64 1.688 0 .856-.288 1.5-.858 1.938-.563.437-1.4.656-2.5.656-.406 0-.844-.047-1.313-.14C1.814-.064 1.33-.204.83-.392v-1.22c.477.274.945.477 1.406.61.47.137.922.203 1.36.203.676 0 1.195-.13 1.562-.39.375-.27.563-.65.563-1.14 0-.427-.138-.76-.407-1-.262-.25-.696-.43-1.297-.548l-.72-.14c-.886-.176-1.526-.454-1.92-.83-.388-.374-.58-.893-.58-1.56 0-.782.27-1.392.813-1.83.538-.445 1.288-.67 2.25-.67.413 0 .83.038 1.25.108.425.074.863.184 1.312.328zm0 0"/></symbol><symbol overflow="visible" id="b"><path d="M1.172-8.75h1.594l3.89 7.313V-8.75h1.14V0H6.204L2.328-7.313V0H1.172zm0 0"/></symbol><symbol overflow="visible" id="c"><path d="M4.734-7.953c-.867 0-1.554.324-2.062.97-.5.635-.75 1.51-.75 2.624 0 1.094.25 1.965.75 2.61.508.637 1.195.953 2.062.953.852 0 1.532-.316 2.032-.953.507-.645.765-1.516.765-2.61 0-1.113-.257-1.988-.764-2.624-.5-.645-1.18-.97-2.032-.97zm0-.953c1.22 0 2.192.414 2.922 1.234.74.824 1.11 1.93 1.11 3.313 0 1.376-.37 2.477-1.11 3.298C6.926-.24 5.953.17 4.734.17c-1.23 0-2.214-.41-2.953-1.234C1.04-1.882.673-2.984.673-4.36c0-1.382.367-2.488 1.11-3.312.738-.82 1.722-1.234 2.952-1.234zm0 0"/></symbol><symbol overflow="visible" id="d"><path d="M1.172-8.75H2.36v3.594h4.296V-8.75h1.188V0H6.656v-4.172H2.36V0H1.17zm0 0"/></symbol></defs><g><path fill="#fff" d="M0 0h300v300H0z"/><path d="M118.336 160.758l10.62-11.598" stroke-width="1.2" stroke="#cc0" stroke-miterlimit="10" fill="none"/><path d="M128.957 149.16l10.617-11.594M89.715 147.723l14.312 6.515" stroke-width="1.2" stroke="#000" stroke-miterlimit="10" fill="none"/><path d="M104.027 154.238l14.31 6.52" stroke-width="1.2" stroke="#cc0" stroke-miterlimit="10" fill="none"/><path d="M114.336 153.758h8v14h-8zm0 0" fill="#fff"/><use xlink:href="#a" x="114.336" y="164.896" fill="#cc0"/><path d="M139.574 137.566l-7.746-13.683" stroke-width="1.2" stroke="#000" stroke-miterlimit="10" fill="none"/><path d="M131.828 123.883l-7.746-13.684" stroke-width="1.2" stroke="#00f" stroke-miterlimit="10" fill="none"/><path d="M131.586 138.477l-6.195-10.95" stroke-width="1.2" stroke="#000" stroke-miterlimit="10" fill="none"/><path d="M125.39 127.527l-6.2-10.945" stroke-width="1.2" stroke="#00f" stroke-miterlimit="10" fill="none"/><path d="M139.574 137.566l31.246 3.55" stroke-width="1.2" stroke="#000" stroke-miterlimit="10" fill="none"/><path d="M124.082 110.2l-30.812 6.277" stroke-width="1.2" stroke="#00f" stroke-miterlimit="10" fill="none"/><path d="M120.082 103.2h9v14h-9zm0 0" fill="#fff"/><use xlink:href="#b" x="120.082" y="114.338" fill="#00f"/><path d="M93.27 116.477l-1.778 15.625" stroke-width="1.2" stroke="#00f" stroke-miterlimit="10" fill="none"/><path d="M91.492 132.102l-1.777 15.62" stroke-width="1.2" stroke="#000" stroke-miterlimit="10" fill="none"/><path d="M100.266 120.438l-1.422 12.496" stroke-width="1.2" stroke="#00f" stroke-miterlimit="10" fill="none"/><path d="M98.844 132.934l-1.422 12.5" stroke-width="1.2" stroke="#000" stroke-miterlimit="10" fill="none"/><path d="M89.27 109.477h9v14h-9zm0 0" fill="#fff"/><use xlink:href="#b" x="89.27" y="120.615" fill="#00f"/><path d="M89.715 147.723L76.03 155.47" stroke-width="1.2" stroke="#000" stroke-miterlimit="10" fill="none"/><path d="M76.03 155.47l-13.678 7.745M62.352 163.215l-13.55-7.977" stroke-width="1.2" stroke="#f00" stroke-miterlimit="10" fill="none"/><path d="M48.8 155.238l-13.55-7.976" stroke-width="1.2" stroke="#000" stroke-miterlimit="10" fill="none"/><path d="M57.352 156.215h10v14h-10zm0 0" fill="#fff"/><use xlink:href="#c" x="57.352" y="167.354" fill="#f00"/><path d="M170.82 141.117l12.547 28.836M178.86 141.05l10.038 23.07M189.52 115.836l-18.7 25.28M183.367 169.953l31.246 3.555M214.613 173.508l12.547 28.836M214.613 173.508l18.7-25.285M210.535 166.578l14.96-20.226M227.16 202.344l12.547 28.836M227.16 202.344l-28.836 12.547M227.16 202.344l28.836-12.547M233.313 148.223L248.938 150" stroke-width="1.2" stroke="#000" stroke-miterlimit="10" fill="none"/><path d="M248.938 150l15.62 1.777" stroke-width="1.2" stroke="#f00" stroke-miterlimit="10" fill="none"/><path d="M233.313 148.223l-12.547-28.836" stroke-width="1.2" stroke="#000" stroke-miterlimit="10" fill="none"/><path d="M255.56 144.777h19v14h-19zm0 0" fill="#fff"/><g fill="#f00"><use xlink:href="#c" x="255.559" y="155.916"/><use xlink:href="#d" x="265.004" y="155.916"/></g><path d="M220.766 119.387l-31.246-3.55M216.805 126.383l-24.996-2.84M220.766 119.387l18.7-25.282M239.465 94.105l18.7-25.285M239.465 94.105l-25.28-18.7M239.465 94.105l25.285 18.7" stroke-width="1.2" stroke="#000" stroke-miterlimit="10" fill="none"/></g></svg>