<svg xmlns="http://www.w3.org/2000/svg" xmlns:xlink="http://www.w3.org/1999/xlink" width="300pt" height="300pt" viewBox="0 0 300 300"><defs><symbol overflow="visible"><path d="M.594 2.125V-8.47h6V2.126zm.672-.672h4.671V-7.78h-4.67zm0 0"/></symbol><symbol overflow="visible" id="a"><path d="M6.422-8.47v1.158c-.45-.208-.875-.364-1.28-.47-.4-.113-.78-.17-1.142-.17-.648 0-1.148.124-1.5.374-.344.25-.516.61-.516 1.078 0 .387.114.68.344.875.227.2.672.355 1.328.47L4.36-5c.882.168 1.535.465 1.952.89.426.42.64.98.64 1.688 0 .856-.288 1.5-.858 1.938-.563.437-1.4.656-2.5.656-.406 0-.844-.047-1.313-.14C1.814-.064 1.33-.204.83-.392v-1.22c.477.274.945.477 1.406.61.47.137.922.203 1.36.203.676 0 1.195-.13 1.562-.39.375-.27.563-.65.563-1.14 0-.427-.138-.76-.407-1-.262-.25-.696-.43-1.297-.548l-.72-.14c-.886-.176-1.526-.454-1.92-.83-.388-.374-.58-.893-.58-1.56 0-.782.27-1.392.813-1.83.538-.445 1.288-.67 2.25-.67.413 0 .83.038 1.25.108.425.074.863.184 1.312.328zm0 0"/></symbol><symbol overflow="visible" id="b"><path d="M4.734-7.953c-.867 0-1.554.324-2.062.97-.5.635-.75 1.51-.75 2.624 0 1.094.25 1.965.75 2.61.508.637 1.195.953 2.062.953.852 0 1.532-.316 2.032-.953.507-.645.765-1.516.765-2.61 0-1.113-.257-1.988-.764-2.624-.5-.645-1.18-.97-2.032-.97zm0-.953c1.22 0 2.192.414 2.922 1.234.74.824 1.11 1.93 1.11 3.313 0 1.376-.37 2.477-1.11 3.298C6.926-.24 5.953.17 4.734.17c-1.23 0-2.214-.41-2.953-1.234C1.04-1.882.673-2.984.673-4.36c0-1.382.367-2.488 1.11-3.312.738-.82 1.722-1.234 2.952-1.234zm0 0"/></symbol><symbol overflow="visible"><path d="M.5 1.766v-8.813h5v8.813zm.563-.547h3.875v-7.704H1.063zm0 0"/></symbol><symbol overflow="visible" id="c"><path d="M.484-3.14h2.64v.796H.485zm0 0"/></symbol></defs><g><path fill="#fff" d="M0 0h300v300H0z"/><path d="M257.203 161.508l-5.387 13.683" stroke-width="1.2" stroke="#cc0" stroke-miterlimit="10" fill="none"/><path d="M251.816 175.19l-5.386 13.69" stroke-width="1.2" stroke="#000" stroke-miterlimit="10" fill="none"/><path d="M257.203 161.508L248.043 150" stroke-width="1.2" stroke="#cc0" stroke-miterlimit="10" fill="none"/><path d="M248.043 150l-9.16-11.508" stroke-width="1.2" stroke="#000" stroke-miterlimit="10" fill="none"/><path d="M253.203 154.508h8v14h-8zm0 0" fill="#fff"/><use xlink:href="#a" x="253.203" y="165.646" fill="#cc0"/><path d="M246.43 188.88l18.32 23.015M238.883 138.492l-29.09 4.36M234.95 132.082l-23.274 3.488M249.656 111.12l-10.773 27.372M209.793 142.852l-18.32-23.016M191.473 119.836l10.773-27.37M198.992 119.633l8.617-21.9M191.473 119.836l-29.09 4.36M202.246 92.465l29.09-4.36M231.336 88.105l18.32 23.016M227.754 94.72l14.652 18.41M162.383 124.195l-18.317-23.015M155.137 126.203L140.48 107.79M151.613 151.566l10.77-27.37M144.066 101.18l-29.093 4.355M114.973 105.535l-10.77 27.375M120.336 110.81l-8.617 21.897M104.203 132.91l18.32 23.012M104.203 132.91l-29.09 4.356M122.523 155.922l29.09-4.356M124.406 148.64l23.27-3.484M75.113 137.266l-10.773 27.37M75.113 137.266l-18.32-23.016M61.633 166.793l9.16 11.508" stroke-width="1.2" stroke="#000" stroke-miterlimit="10" fill="none"/><path d="M70.793 178.3l9.16 11.51" stroke-width="1.2" stroke="#f00" stroke-miterlimit="10" fill="none"/><path d="M67.047 162.484l9.16 11.504" stroke-width="1.2" stroke="#000" stroke-miterlimit="10" fill="none"/><path d="M76.207 173.988l9.16 11.508" stroke-width="1.2" stroke="#f00" stroke-miterlimit="10" fill="none"/><path d="M64.34 164.637l-14.543 2.18" stroke-width="1.2" stroke="#000" stroke-miterlimit="10" fill="none"/><path d="M49.797 166.816l-14.547 2.18" stroke-width="1.2" stroke="#f00" stroke-miterlimit="10" fill="none"/><path d="M77.66 180.652h10v14h-10zm0 0" fill="#fff"/><use xlink:href="#b" x="77.66" y="191.791" fill="#f00"/><path d="M21.25 160.496h14v17h-14zm0 0" fill="#fff"/><use xlink:href="#c" x="21.25" y="169.778" fill="#f00"/><use xlink:href="#b" x="24.858" y="174.661" fill="#f00"/></g></svg>