<svg xmlns="http://www.w3.org/2000/svg" xmlns:xlink="http://www.w3.org/1999/xlink" width="300pt" height="300pt" viewBox="0 0 300 300"><defs><symbol overflow="visible"><path d="M.547 1.938V-7.75h5.5v9.688zm.625-.61h4.266v-8.47H1.171zm0 0"/></symbol><symbol overflow="visible" id="a"><path d="M7.078-7.406v1.156c-.367-.344-.758-.598-1.172-.766-.406-.164-.843-.25-1.312-.25-.918 0-1.62.282-2.11.844-.48.555-.718 1.36-.718 2.422 0 1.055.238 1.86.718 2.422.49.562 1.192.844 2.11.844.468 0 .906-.082 1.312-.25.414-.164.805-.422 1.172-.766v1.125c-.375.262-.777.46-1.203.594-.418.124-.867.186-1.344.186-1.21 0-2.163-.367-2.858-1.11C.972-1.703.625-2.718.625-4c0-1.29.348-2.305 1.047-3.047.695-.75 1.648-1.125 2.86-1.125.476 0 .93.07 1.36.203.424.126.82.314 1.186.564zm0 0"/></symbol><symbol overflow="visible" id="b"><path d="M1.03-8.36h1V0h-1zm0 0"/></symbol><symbol overflow="visible" id="c"><path d="M1.078-8.016h1.47l3.546 6.704v-6.704h1.062V0H5.688L2.124-6.703V0H1.078zm0 0"/></symbol></defs><g><path fill="#fff" d="M0 0h300v300H0z"/><path d="M35.25 191.094l13.512-3.14" stroke-width="1.2" stroke="#0c0" stroke-miterlimit="10" fill="none"/><path d="M48.762 187.953l13.515-3.14" stroke-width="1.2" stroke="#000" stroke-miterlimit="10" fill="none"/><path d="M24.25 184.594h11v13h-11zm0 0" fill="#fff"/><g fill="#0c0"><use xlink:href="#a" x="24.25" y="194.495"/><use xlink:href="#b" x="31.701" y="194.495"/></g><path d="M62.277 184.813l8.07-26.543M69.328 184.06l6.46-21.24M81.227 205.078l-18.95-20.266M70.348 158.27l27.027-6.282M97.375 151.988l18.953 20.262M94.5 158.473l15.164 16.21M116.328 172.25l-8.074 26.547M116.328 172.25l27.024-6.28M108.254 198.797l-27.027 6.28M104.074 193.066l-21.62 5.024M143.352 165.97l10.484 9.085" stroke-width="1.2" stroke="#000" stroke-miterlimit="10" fill="none"/><path d="M153.836 175.055l10.484 9.086" stroke-width="1.2" stroke="#00f" stroke-miterlimit="10" fill="none"/><path d="M149.727 162.852l8.386 7.27" stroke-width="1.2" stroke="#000" stroke-miterlimit="10" fill="none"/><path d="M158.113 170.12l8.387 7.27" stroke-width="1.2" stroke="#00f" stroke-miterlimit="10" fill="none"/><path d="M154.156 140.414l-10.804 25.555" stroke-width="1.2" stroke="#000" stroke-miterlimit="10" fill="none"/><path d="M164.32 184.14l23.762-14.324" stroke-width="1.2" stroke="#00f" stroke-miterlimit="10" fill="none"/><path d="M160.32 177.64h8v13h-8zm0 0" fill="#fff"/><use xlink:href="#c" x="160.32" y="187.542" fill="#00f"/><path d="M188.082 169.816l-3.14-13.51" stroke-width="1.2" stroke="#00f" stroke-miterlimit="10" fill="none"/><path d="M184.94 156.305l-3.14-13.516" stroke-width="1.2" stroke="#000" stroke-miterlimit="10" fill="none"/><path d="M188.082 169.816l12.777 5.403" stroke-width="1.2" stroke="#00f" stroke-miterlimit="10" fill="none"/><path d="M200.86 175.22l12.777 5.397" stroke-width="1.2" stroke="#000" stroke-miterlimit="10" fill="none"/><path d="M184.082 163.316h8v13h-8zm0 0" fill="#fff"/><use xlink:href="#c" x="184.082" y="173.218" fill="#00f"/><path d="M181.8 142.79l-27.644-2.376M179.594 136.047l-22.114-1.902M200.895 122.66L181.8 142.79M154.156 140.414l-15.38-23.098M138.777 117.316l8.47-26.42M147.246 90.895l25.938-9.852M173.184 81.043L197.06 95.18M197.06 95.18l3.835 27.48M213.637 180.617l3.422 27.535M220.457 182.566l2.738 22.028M235.773 163.887l-22.136 16.73M217.06 208.152l25.557 10.805M242.617 218.957l22.133-16.73M240.895 212.074l17.707-13.383M264.75 202.227l-3.422-27.536M261.328 174.69l-25.555-10.803M256.23 179.625l-20.445-8.645" stroke-width="1.2" stroke="#000" stroke-miterlimit="10" fill="none"/></g></svg>