<svg xmlns="http://www.w3.org/2000/svg" xmlns:xlink="http://www.w3.org/1999/xlink" width="300pt" height="300pt" viewBox="0 0 300 300"><defs><symbol overflow="visible"><path d="M.453 1.594v-7.938h4.5v7.938zm.5-.5h3.5v-6.938h-3.5zm0 0"/></symbol><symbol overflow="visible" id="a"><path d="M5.797-6.063v.938c-.305-.27-.625-.473-.97-.61-.335-.144-.686-.218-1.06-.218-.75 0-1.33.23-1.736.687-.397.46-.592 1.12-.592 1.985 0 .866.195 1.526.593 1.983.408.46.986.688 1.736.688.375 0 .726-.066 1.062-.203.344-.132.664-.343.97-.625V-.5c-.314.21-.642.367-.986.47-.343.1-.714.155-1.11.155-.99 0-1.772-.3-2.343-.906C.784-1.396.5-2.228.5-3.28c0-1.052.285-1.88.86-2.486.57-.613 1.35-.92 2.343-.92.395-.002.766.053 1.11.155.35.104.68.26.984.468zm0 0"/></symbol><symbol overflow="visible" id="b"><path d="M.844-6.844h.812V0H.844zm0 0"/></symbol><symbol overflow="visible" id="c"><path d="M3.547-5.953c-.65 0-1.164.242-1.547.72-.375.48-.563 1.13-.563 1.952 0 .835.188 1.49.563 1.967.383.48.898.72 1.547.72.644 0 1.156-.24 1.53-.72.376-.476.564-1.132.564-1.968 0-.822-.187-1.474-.562-1.954-.375-.477-.887-.72-1.53-.72zm0-.734c.914 0 1.648.312 2.203.937.55.617.828 1.438.828 2.47 0 1.042-.277 1.87-.828 2.483-.555.617-1.29.922-2.203.922-.93 0-1.668-.305-2.22-.922C.774-1.41.5-2.237.5-3.28c0-1.033.273-1.853.828-2.47.55-.625 1.29-.938 2.22-.938zm0 0"/></symbol><symbol overflow="visible" id="d"><path d="M.89-6.563H2.08l2.906 5.485v-5.484h.86V0H4.656L1.75-5.484V0H.89zm0 0"/></symbol></defs><g><path fill="#fff" d="M0 0h300v300H0z"/><path d="M264.75 129.88l-10.758-3.27" stroke-width="1.2" stroke="#0c0" stroke-miterlimit="10" fill="none"/><path d="M253.992 126.61l-10.758-3.266" stroke-width="1.2" stroke="#000" stroke-miterlimit="10" fill="none"/><path d="M259.75 124.38h10v11h-10zm0 0" fill="#fff"/><g fill="#0c0"><use xlink:href="#a" x="259.75" y="133.042"/><use xlink:href="#b" x="266.264" y="133.042"/></g><path d="M243.234 123.344l-16.418 15.363M237.977 121.016l-13.133 12.293M238.137 101.44l5.097 21.904M226.816 138.707l-21.515-6.535M205.3 132.172l-5.097-21.902M209.945 128.78l-4.078-17.518M200.203 110.27l16.418-15.364M200.203 110.27l-21.516-6.536M216.62 94.906l21.517 6.535M217.234 100.62l17.215 5.232M181.266 103.137l-2.55-10.953" stroke-width="1.2" stroke="#000" stroke-miterlimit="10" fill="none"/><path d="M178.715 92.184l-2.547-10.95" stroke-width="1.2" stroke="#f00" stroke-miterlimit="10" fill="none"/><path d="M176.11 104.336l-2.548-10.953" stroke-width="1.2" stroke="#000" stroke-miterlimit="10" fill="none"/><path d="M173.563 93.383l-2.55-10.95" stroke-width="1.2" stroke="#f00" stroke-miterlimit="10" fill="none"/><path d="M178.688 103.734l-8.21 7.684" stroke-width="1.2" stroke="#000" stroke-miterlimit="10" fill="none"/><path d="M170.477 111.418l-8.207 7.684" stroke-width="1.2" stroke="#00f" stroke-miterlimit="10" fill="none"/><path d="M169.59 76.332h8v11h-8zm0 0" fill="#fff"/><use xlink:href="#c" x="169.59" y="84.995" fill="#f00"/><path d="M162.27 119.102l1.39 11.156" stroke-width="1.2" stroke="#00f" stroke-miterlimit="10" fill="none"/><path d="M163.66 130.258l1.39 11.156M140.188 114.848l11.042 2.125" stroke-width="1.2" stroke="#000" stroke-miterlimit="10" fill="none"/><path d="M151.23 116.973l11.04 2.13" stroke-width="1.2" stroke="#00f" stroke-miterlimit="10" fill="none"/><path d="M159.27 113.602h7v11h-7zm0 0" fill="#fff"/><use xlink:href="#d" x="159.27" y="122.265" fill="#00f"/><path d="M165.05 141.414l-20.363 9.54M183.492 154.277l-18.44-12.863M178.62 157.332l-14.753-10.293M144.688 150.953l-1.922 22.406M149.766 153.645l-1.536 17.925M144.688 150.953l-15.368-16.418M142.766 173.36l18.445 12.863M161.21 186.223l-.96 11.203" stroke-width="1.2" stroke="#000" stroke-miterlimit="10" fill="none"/><path d="M160.25 197.426l-.96 11.2" stroke-width="1.2" stroke="#f00" stroke-miterlimit="10" fill="none"/><path d="M161.21 186.223l20.364-9.54M161 180.477l16.293-7.633" stroke-width="1.2" stroke="#000" stroke-miterlimit="10" fill="none"/><path d="M159.29 208.625l-10.18 4.773" stroke-width="1.2" stroke="#f00" stroke-miterlimit="10" fill="none"/><path d="M149.11 213.398l-10.184 4.77" stroke-width="1.2" stroke="#000" stroke-miterlimit="10" fill="none"/><path d="M155.29 203.125h8v11h-8zm0 0" fill="#fff"/><use xlink:href="#c" x="155.289" y="211.788" fill="#f00"/><path d="M181.574 176.684l1.918-22.407M129.32 134.535l-22.312 2.78M129.32 134.535l10.868-19.687M135.04 135.125l8.694-15.75M107.008 137.316L93.44 119.383M95.88 120.41l4.374-10.355" stroke-width="1.2" stroke="#000" stroke-miterlimit="10" fill="none"/><path d="M100.254 110.055l4.375-10.36" stroke-width="1.2" stroke="#f00" stroke-miterlimit="10" fill="none"/><path d="M91.004 118.352l4.375-10.356" stroke-width="1.2" stroke="#000" stroke-miterlimit="10" fill="none"/><path d="M95.38 107.996l4.374-10.36" stroke-width="1.2" stroke="#f00" stroke-miterlimit="10" fill="none"/><path d="M93.44 119.383l-11.155 1.387" stroke-width="1.2" stroke="#000" stroke-miterlimit="10" fill="none"/><path d="M82.285 120.77l-11.156 1.39" stroke-width="1.2" stroke="#00f" stroke-miterlimit="10" fill="none"/><path d="M98.19 93.168h8v11h-8zm0 0" fill="#fff"/><use xlink:href="#c" x="98.191" y="101.831" fill="#f00"/><path d="M71.13 122.16l-6.782-8.965" stroke-width="1.2" stroke="#00f" stroke-miterlimit="10" fill="none"/><path d="M64.348 113.195l-6.785-8.968" stroke-width="1.2" stroke="#000" stroke-miterlimit="10" fill="none"/><path d="M71.13 122.16l-4.376 10.36" stroke-width="1.2" stroke="#00f" stroke-miterlimit="10" fill="none"/><path d="M66.754 132.52l-4.375 10.355" stroke-width="1.2" stroke="#000" stroke-miterlimit="10" fill="none"/><path d="M68.13 116.66h7v11h-7zm0 0" fill="#fff"/><use xlink:href="#d" x="68.129" y="125.323" fill="#00f"/><path d="M57.563 104.227l-22.313 2.78M62.38 142.875l-22.314 2.78M140.188 114.848l-9.54-20.364" stroke-width="1.2" stroke="#000" stroke-miterlimit="10" fill="none"/></g></svg>