<svg xmlns="http://www.w3.org/2000/svg" xmlns:xlink="http://www.w3.org/1999/xlink" width="300pt" height="300pt" viewBox="0 0 300 300"><defs><symbol overflow="visible"><path d="M.547 1.938V-7.75h5.5v9.688zm.625-.61h4.266v-8.47H1.171zm0 0"/></symbol><symbol overflow="visible" id="a"><path d="M5.89-7.75v1.047c-.417-.195-.808-.344-1.17-.438-.368-.094-.72-.14-1.064-.14-.586 0-1.04.116-1.36.343-.323.23-.483.554-.483.968 0 .357.1.626.312.814.22.18.625.324 1.22.437L4-4.593c.813.157 1.41.434 1.797.828.383.387.578.903.578 1.547 0 .783-.262 1.376-.78 1.783-.525.398-1.29.593-2.298.593-.375 0-.78-.047-1.22-.14C1.648-.066 1.208-.19.75-.36v-1.11c.445.25.88.44 1.297.564.426.125.844.187 1.25.187.625 0 1.1-.116 1.437-.358.332-.25.5-.598.5-1.047 0-.395-.12-.703-.36-.922-.24-.226-.636-.398-1.186-.515l-.657-.126c-.81-.156-1.4-.406-1.764-.75C.898-4.78.72-5.258.72-5.875c0-.707.25-1.266.75-1.672.5-.414 1.19-.625 2.077-.625.375 0 .754.04 1.14.11.395.074.797.18 1.204.312zm0 0"/></symbol><symbol overflow="visible" id="b"><path d="M4.328-7.28c-.78 0-1.406.296-1.875.89-.46.585-.687 1.382-.687 2.39 0 1.012.226 1.813.687 2.406.47.586 1.094.875 1.875.875.79 0 1.414-.288 1.875-.874.457-.593.688-1.394.688-2.406 0-1.008-.23-1.805-.687-2.39-.46-.594-1.086-.89-1.875-.89zm0-.892c1.125 0 2.024.383 2.703 1.14C7.708-6.28 8.048-5.27 8.048-4c0 1.262-.34 2.273-1.016 3.03C6.353-.22 5.454.157 4.33.157S2.3-.22 1.625-.97c-.668-.75-1-1.757-1-3.03 0-1.27.332-2.28 1-3.03.676-.76 1.578-1.142 2.703-1.142zm0 0"/></symbol><symbol overflow="visible" id="c"><path d="M1.078-8.016h1.47l3.546 6.704v-6.704h1.062V0H5.688L2.124-6.703V0H1.078zm0 0"/></symbol><symbol overflow="visible" id="d"><path d="M1.078-8.016h1.094v3.282H6.11v-3.282h1.077V0H6.11v-3.813H2.17V0H1.078zm0 0"/></symbol><symbol overflow="visible" id="f"><path d="M1.078-8.016h4.61v.907H2.171v2.36h3.172v.922H2.172V0H1.078zm0 0"/></symbol><symbol overflow="visible"><path d="M.453 1.594v-7.938h4.5v7.938zm.5-.5h3.5v-6.938h-3.5zm0 0"/></symbol><symbol overflow="visible" id="e"><path d="M1.734-.75h3.094V0H.656v-.75c.344-.344.8-.805 1.375-1.39.583-.594.954-.973 1.11-1.14.282-.322.473-.595.58-.814.112-.226.17-.445.17-.656 0-.352-.12-.64-.36-.86-.24-.218-.557-.327-.952-.327-.28 0-.578.054-.89.156-.305.093-.633.24-.985.436v-.906c.352-.133.688-.238 1-.313.313-.082.598-.125.86-.125.675 0 1.218.172 1.624.516.407.344.61.797.61 1.36 0 .273-.055.53-.156.78-.105.243-.288.524-.546.845-.074.085-.31.328-.703.734-.398.406-.95.976-1.656 1.703zm0 0"/></symbol></defs><g><path fill="#fff" d="M0 0h300v300H0z"/><path d="M233.422 177.133l-.258 14.015" stroke-width="1.2" stroke="#cc0" stroke-miterlimit="10" fill="none"/><path d="M233.164 191.148l-.262 14.016" stroke-width="1.2" stroke="#f00" stroke-miterlimit="10" fill="none"/><path d="M240.02 177.258l-.262 14.012" stroke-width="1.2" stroke="#cc0" stroke-miterlimit="10" fill="none"/><path d="M239.758 191.27l-.262 14.015" stroke-width="1.2" stroke="#f00" stroke-miterlimit="10" fill="none"/><path d="M240.02 177.258l.26-14.016" stroke-width="1.2" stroke="#cc0" stroke-miterlimit="10" fill="none"/><path d="M240.28 163.242l.26-14.015" stroke-width="1.2" stroke="#f00" stroke-miterlimit="10" fill="none"/><path d="M233.422 177.133l.262-14.012" stroke-width="1.2" stroke="#cc0" stroke-miterlimit="10" fill="none"/><path d="M233.684 163.12l.26-14.015" stroke-width="1.2" stroke="#f00" stroke-miterlimit="10" fill="none"/><path d="M236.723 177.195l14.01.262" stroke-width="1.2" stroke="#cc0" stroke-miterlimit="10" fill="none"/><path d="M250.734 177.457l14.016.258" stroke-width="1.2" stroke="#00f" stroke-miterlimit="10" fill="none"/><path d="M236.723 177.195l-14.016-.26" stroke-width="1.2" stroke="#cc0" stroke-miterlimit="10" fill="none"/><path d="M222.707 176.934l-14.016-.258" stroke-width="1.2" stroke="#000" stroke-miterlimit="10" fill="none"/><path d="M233.723 170.695h7v13h-7zm0 0" fill="#fff"/><use xlink:href="#a" x="233.723" y="180.597" fill="#cc0"/><path d="M232.2 198.723h9v13h-9zm0 0" fill="#fff"/><use xlink:href="#b" x="232.199" y="208.624" fill="#f00"/><path d="M233.242 142.668h9v13h-9zm0 0" fill="#fff"/><use xlink:href="#b" x="233.242" y="152.569" fill="#f00"/><path d="M253.75 169.215h22v17h-22zm0 0" fill="#fff"/><g fill="#00f"><use xlink:href="#c" x="253.75" y="179.116"/><use xlink:href="#d" x="261.733" y="179.116"/></g><use xlink:href="#e" x="269.758" y="183.999" fill="#00f"/><path d="M208.69 176.676l-14.463 24.012M201.598 175.672l-11.575 19.21M195.13 152.14l13.56 24.536M194.227 200.688l-28.028-.52M166.2 200.168l-13.563-24.535M170.613 194.523l-10.847-19.628M152.637 175.633l-14.016-.262" stroke-width="1.2" stroke="#000" stroke-miterlimit="10" fill="none"/><path d="M138.62 175.37l-14.015-.26" stroke-width="1.2" stroke="#00f" stroke-miterlimit="10" fill="none"/><path d="M152.637 175.633l14.465-24.016" stroke-width="1.2" stroke="#000" stroke-miterlimit="10" fill="none"/><path d="M124.605 175.11l-8.45 11.187" stroke-width="1.2" stroke="#00f" stroke-miterlimit="10" fill="none"/><path d="M116.156 186.297l-8.445 11.183M108.555 152.13l8.023 11.49" stroke-width="1.2" stroke="#000" stroke-miterlimit="10" fill="none"/><path d="M116.578 163.62l8.027 11.49" stroke-width="1.2" stroke="#00f" stroke-miterlimit="10" fill="none"/><path d="M120.605 168.61h8v13h-8zm0 0" fill="#fff"/><use xlink:href="#c" x="120.605" y="178.511" fill="#00f"/><path d="M107.71 197.48l-26.495-9.156M107.215 190.332l-21.195-7.328M81.215 188.324l.262-14.015" stroke-width="1.2" stroke="#000" stroke-miterlimit="10" fill="none"/><path d="M81.477 174.31l.257-14.017" stroke-width="1.2" stroke="#00f" stroke-miterlimit="10" fill="none"/><path d="M81.215 188.324l-22.985 16.05" stroke-width="1.2" stroke="#000" stroke-miterlimit="10" fill="none"/><path d="M81.734 160.293l13.41-4.082" stroke-width="1.2" stroke="#00f" stroke-miterlimit="10" fill="none"/><path d="M95.145 156.21l13.41-4.08" stroke-width="1.2" stroke="#000" stroke-miterlimit="10" fill="none"/><path d="M86.34 165.79l10.726-3.267" stroke-width="1.2" stroke="#00f" stroke-miterlimit="10" fill="none"/><path d="M97.066 162.523l10.727-3.27" stroke-width="1.2" stroke="#000" stroke-miterlimit="10" fill="none"/><path d="M77.734 153.793h8v13h-8zm0 0" fill="#fff"/><use xlink:href="#c" x="77.734" y="163.694" fill="#00f"/><path d="M108.555 152.13l9.156-26.497M117.71 125.633l27.524-5.317M119.21 118.625l22.02-4.254M99.344 104.453l18.367 21.18M145.234 120.316l4.578-13.25" stroke-width="1.2" stroke="#000" stroke-miterlimit="10" fill="none"/><path d="M149.813 107.066l4.578-13.246M154.39 93.82l-9.183-10.59" stroke-width="1.2" stroke="#00f" stroke-miterlimit="10" fill="none"/><path d="M145.207 83.23l-9.184-10.59" stroke-width="1.2" stroke="#000" stroke-miterlimit="10" fill="none"/><path d="M147.57 96.023l-7.343-8.472" stroke-width="1.2" stroke="#00f" stroke-miterlimit="10" fill="none"/><path d="M140.227 87.55l-7.348-8.468" stroke-width="1.2" stroke="#000" stroke-miterlimit="10" fill="none"/><path d="M150.39 87.32h8v13h-8zm0 0" fill="#fff"/><use xlink:href="#c" x="150.391" y="97.222" fill="#00f"/><path d="M136.023 72.64L108.5 77.96M108.5 77.96l-9.156 26.493M113.816 82.762l-7.324 21.2M99.344 104.453l-27.528 5.32M58.23 204.375l-11.488 8.027" stroke-width="1.2" stroke="#000" stroke-miterlimit="10" fill="none"/><path d="M46.742 212.402L35.25 220.43" stroke-width="1.2" stroke="#3cc" stroke-miterlimit="10" fill="none"/><path d="M58.23 204.375l-8.023-11.488" stroke-width="1.2" stroke="#000" stroke-miterlimit="10" fill="none"/><path d="M50.207 192.887l-8.027-11.492" stroke-width="1.2" stroke="#3cc" stroke-miterlimit="10" fill="none"/><path d="M58.23 204.375l8.028 11.492" stroke-width="1.2" stroke="#000" stroke-miterlimit="10" fill="none"/><path d="M66.258 215.867l8.027 11.492" stroke-width="1.2" stroke="#3cc" stroke-miterlimit="10" fill="none"/><path d="M28.25 213.93h7v13h-7zm0 0" fill="#fff"/><use xlink:href="#f" x="28.25" y="223.831" fill="#3cc"/><path d="M35.18 174.895h7v13h-7zm0 0" fill="#fff"/><use xlink:href="#f" x="35.18" y="184.796" fill="#3cc"/><path d="M71.285 220.86h7v13h-7zm0 0" fill="#fff"/><use xlink:href="#f" x="71.285" y="230.761" fill="#3cc"/><path d="M167.102 151.617l28.027.524M169.78 158.266l22.423.418" stroke-width="1.2" stroke="#000" stroke-miterlimit="10" fill="none"/></g></svg>