<svg xmlns="http://www.w3.org/2000/svg" xmlns:xlink="http://www.w3.org/1999/xlink" width="300pt" height="300pt" viewBox="0 0 300 300"><defs><symbol overflow="visible"><path d="M.64 2.297v-11.47h6.5v11.47zm.735-.72h5.047V-8.436H1.375zm0 0"/></symbol><symbol overflow="visible" id="a"><path d="M8.375-8.75v1.36c-.438-.407-.902-.708-1.39-.907-.48-.195-.997-.297-1.548-.297-1.085 0-1.917.336-2.5 1-.574.657-.86 1.61-.86 2.86 0 1.25.286 2.21.86 2.875.583.657 1.415.985 2.5.985.55 0 1.067-.098 1.547-.297.49-.195.954-.492 1.39-.89v1.328c-.448.312-.92.546-1.42.703-.5.143-1.032.217-1.595.217-1.438 0-2.57-.437-3.39-1.312C1.144-2.008.733-3.21.733-4.735c0-1.52.41-2.718 1.235-3.593.82-.883 1.952-1.328 3.39-1.328.562 0 1.093.078 1.593.234.508.15.984.37 1.422.672zm0 0"/></symbol><symbol overflow="visible" id="b"><path d="M1.22-9.875h1.17V0H1.22zm0 0"/></symbol><symbol overflow="visible" id="c"><path d="M1.28-9.484H3l4.203 7.937v-7.937h1.25V0H6.72L2.515-7.922V0H1.28zm0 0"/></symbol><symbol overflow="visible" id="d"><path d="M5.125-8.61c-.938 0-1.684.352-2.234 1.047-.542.688-.812 1.633-.812 2.83 0 1.198.27 2.147.813 2.842.55.687 1.297 1.03 2.235 1.03.926 0 1.66-.343 2.203-1.03.55-.696.828-1.645.828-2.844 0-1.196-.277-2.14-.828-2.829-.543-.695-1.277-1.046-2.203-1.046zm0-1.046c1.32 0 2.38.45 3.172 1.344.8.898 1.203 2.09 1.203 3.578 0 1.5-.402 2.7-1.203 3.593C7.504-.255 6.445.186 5.125.186c-1.336 0-2.402-.44-3.203-1.328C1.13-2.036.734-3.235.734-4.735c0-1.49.395-2.68 1.188-3.579.8-.894 1.867-1.343 3.203-1.343zm0 0"/></symbol><symbol overflow="visible" id="f"><path d="M6.953-9.172v1.25c-.48-.226-.937-.398-1.375-.516-.43-.113-.844-.17-1.25-.17-.7 0-1.242.135-1.625.405-.375.273-.562.656-.562 1.156 0 .418.126.734.376.953.257.21.738.383 1.437.516l.78.156c.947.188 1.65.512 2.11.97.458.46.688 1.073.688 1.843 0 .92-.307 1.618-.92 2.094-.618.47-1.524.704-2.72.704-.45 0-.93-.055-1.437-.157C1.953-.07 1.43-.222.89-.42v-1.312c.52.293 1.032.51 1.532.656.5.148.988.22 1.47.22.737 0 1.303-.142 1.702-.423.394-.29.593-.704.593-1.236 0-.468-.148-.832-.437-1.093-.28-.257-.746-.456-1.39-.593l-.782-.156c-.96-.187-1.652-.484-2.078-.89-.43-.406-.64-.97-.64-1.688 0-.843.288-1.503.874-1.984.594-.488 1.41-.734 2.454-.734.437 0 .882.043 1.343.125.47.085.943.202 1.423.358zm0 0"/></symbol><symbol overflow="visible"><path d="M.547 1.938V-7.75h5.5v9.688zm.625-.61h4.266v-8.47H1.171zm0 0"/></symbol><symbol overflow="visible" id="e"><path d="M.53-3.453h2.907v.875H.53zm0 0"/></symbol></defs><g><path fill="#fff" d="M0 0h300v300H0z"/><path d="M264.75 204.227l-13.06-9.52" stroke-width="1.2" stroke="#0c0" stroke-miterlimit="10" fill="none"/><path d="M251.69 194.707l-13.053-9.52" stroke-width="1.2" stroke="#000" stroke-miterlimit="10" fill="none"/><path d="M257.75 196.227h14v16h-14zm0 0" fill="#fff"/><g fill="#0c0"><use xlink:href="#a" x="257.75" y="208.603"/><use xlink:href="#b" x="267.057" y="208.603"/></g><path d="M238.637 185.188l-29.547 13.097M232.598 179.547l-23.633 10.476M242.066 153.05l-3.43 32.137M209.09 198.285l-26.113-19.04M182.977 179.246l3.43-32.137M190.88 176.84l2.745-25.707M182.977 179.246l-29.547 13.098M186.406 147.11l14.774-6.548" stroke-width="1.2" stroke="#000" stroke-miterlimit="10" fill="none"/><path d="M201.18 140.563l14.77-6.547" stroke-width="1.2" stroke="#00f" stroke-miterlimit="10" fill="none"/><path d="M186.406 147.11l-26.113-19.04" stroke-width="1.2" stroke="#000" stroke-miterlimit="10" fill="none"/><path d="M215.95 134.016l13.058 9.515" stroke-width="1.2" stroke="#00f" stroke-miterlimit="10" fill="none"/><path d="M229.008 143.53l13.058 9.52" stroke-width="1.2" stroke="#000" stroke-miterlimit="10" fill="none"/><path d="M214.082 142.063l10.445 7.613" stroke-width="1.2" stroke="#00f" stroke-miterlimit="10" fill="none"/><path d="M224.527 149.676l10.446 7.617" stroke-width="1.2" stroke="#000" stroke-miterlimit="10" fill="none"/><path d="M210.95 126.016h10v16h-10zm0 0" fill="#fff"/><use xlink:href="#c" x="210.949" y="138.392" fill="#00f"/><path d="M160.293 128.07l3.43-32.132M153.074 124.05l2.742-25.706M130.746 141.168l29.547-13.098M163.723 95.938l-26.118-19.04M137.605 76.898l-29.542 13.098M137.734 85.16l-23.636 10.477M108.063 89.996l-1.715 16.067" stroke-width="1.2" stroke="#000" stroke-miterlimit="10" fill="none"/><path d="M106.348 106.063l-1.715 16.066" stroke-width="1.2" stroke="#00f" stroke-miterlimit="10" fill="none"/><path d="M108.063 89.996l-26.118-19.04" stroke-width="1.2" stroke="#000" stroke-miterlimit="10" fill="none"/><path d="M104.633 122.13l13.055 9.518" stroke-width="1.2" stroke="#00f" stroke-miterlimit="10" fill="none"/><path d="M117.688 131.648l13.058 9.52" stroke-width="1.2" stroke="#000" stroke-miterlimit="10" fill="none"/><path d="M111.723 117.89l10.445 7.614" stroke-width="1.2" stroke="#00f" stroke-miterlimit="10" fill="none"/><path d="M122.168 125.504l10.445 7.617" stroke-width="1.2" stroke="#000" stroke-miterlimit="10" fill="none"/><path d="M99.633 114.13h10v16h-10zm0 0" fill="#fff"/><use xlink:href="#c" x="99.633" y="126.505" fill="#00f"/><path d="M80.406 67.48l-14.773 6.55" stroke-width="1.2" stroke="#000" stroke-miterlimit="10" fill="none"/><path d="M65.633 74.03L50.86 80.58" stroke-width="1.2" stroke="#f00" stroke-miterlimit="10" fill="none"/><path d="M83.488 74.434L68.715 80.98" stroke-width="1.2" stroke="#000" stroke-miterlimit="10" fill="none"/><path d="M68.715 80.98L53.94 87.53" stroke-width="1.2" stroke="#f00" stroke-miterlimit="10" fill="none"/><path d="M81.945 70.957L83.66 54.89" stroke-width="1.2" stroke="#000" stroke-miterlimit="10" fill="none"/><path d="M83.66 54.89l1.72-16.07" stroke-width="1.2" stroke="#f00" stroke-miterlimit="10" fill="none"/><path d="M41.402 76.055h11v16h-11zm0 0" fill="#fff"/><use xlink:href="#d" x="41.402" y="88.431" fill="#f00"/><path d="M78.38 29.32h15v19h-15zm0 0" fill="#fff"/><use xlink:href="#d" x="78.379" y="44.516" fill="#f00"/><use xlink:href="#e" x="88.869" y="39.633" fill="#f00"/><path d="M153.43 192.344l-26.114-19.04M146.34 196.582l-20.89-15.23M150 224.477l3.43-32.133M127.316 173.305L97.77 186.402M97.77 186.402l-3.43 32.133M104.988 190.422l-2.742 25.707M94.34 218.535l-14.774 6.55" stroke-width="1.2" stroke="#000" stroke-miterlimit="10" fill="none"/><path d="M79.566 225.086l-14.77 6.547" stroke-width="1.2" stroke="#cc0" stroke-miterlimit="10" fill="none"/><path d="M94.34 218.535l26.113 19.04" stroke-width="1.2" stroke="#000" stroke-miterlimit="10" fill="none"/><path d="M61.32 233.176l6.547 14.77" stroke-width="1.2" stroke="#cc0" stroke-miterlimit="10" fill="none"/><path d="M67.867 247.945l6.55 14.774" stroke-width="1.2" stroke="#f00" stroke-miterlimit="10" fill="none"/><path d="M68.27 230.094l6.55 14.77" stroke-width="1.2" stroke="#cc0" stroke-miterlimit="10" fill="none"/><path d="M74.82 244.863l6.547 14.774" stroke-width="1.2" stroke="#f00" stroke-miterlimit="10" fill="none"/><path d="M68.27 230.094l-6.547-14.774" stroke-width="1.2" stroke="#cc0" stroke-miterlimit="10" fill="none"/><path d="M61.723 215.32l-6.547-14.773" stroke-width="1.2" stroke="#f00" stroke-miterlimit="10" fill="none"/><path d="M61.32 233.176l-6.55-14.774" stroke-width="1.2" stroke="#cc0" stroke-miterlimit="10" fill="none"/><path d="M54.77 218.402l-6.547-14.773" stroke-width="1.2" stroke="#f00" stroke-miterlimit="10" fill="none"/><path d="M64.797 231.633l-14.774 6.547" stroke-width="1.2" stroke="#cc0" stroke-miterlimit="10" fill="none"/><path d="M50.023 238.18l-14.773 6.55" stroke-width="1.2" stroke="#000" stroke-miterlimit="10" fill="none"/><path d="M60.797 223.633h9v16h-9zm0 0" fill="#fff"/><use xlink:href="#f" x="60.797" y="236.009" fill="#cc0"/><path d="M72.89 253.18h11v16h-11zm0 0" fill="#fff"/><use xlink:href="#d" x="72.891" y="265.556" fill="#f00"/><path d="M40.7 194.09h11v16h-11zm0 0" fill="#fff"/><use xlink:href="#d" x="40.699" y="206.466" fill="#f00"/><path d="M120.453 237.574L150 224.477M120.328 229.313l23.637-10.477" stroke-width="1.2" stroke="#000" stroke-miterlimit="10" fill="none"/></g></svg>