<svg xmlns="http://www.w3.org/2000/svg" xmlns:xlink="http://www.w3.org/1999/xlink" width="300pt" height="300pt" viewBox="0 0 300 300"><defs><symbol overflow="visible"><path d="M.453 1.594v-7.938h4.5v7.938zm.5-.5h3.5v-6.938h-3.5zm0 0"/></symbol><symbol overflow="visible" id="a"><path d="M4.813-6.344v.86c-.336-.157-.653-.27-.954-.344-.294-.082-.58-.125-.86-.125-.492 0-.867.094-1.125.28-.262.19-.39.454-.39.798 0 .293.085.512.265.656.176.15.504.267.984.36l.547.11c.658.125 1.142.352 1.454.672.32.312.485.734.485 1.265 0 .637-.216 1.122-.642 1.454-.43.325-1.055.485-1.875.485-.312 0-.648-.04-1-.11C1.36-.046 1-.147.625-.296v-.906c.352.2.703.35 1.047.453.35.105.695.156 1.03.156.5 0 .884-.097 1.157-.297.28-.196.42-.485.42-.86 0-.32-.1-.57-.296-.75-.2-.176-.523-.313-.968-.406l-.547-.11C1.81-3.148 1.33-3.36 1.03-3.64.74-3.923.595-4.313.595-4.813c0-.57.203-1.024.61-1.36.405-.344.968-.516 1.687-.516.313 0 .626.032.938.094.32.055.65.137.985.25zm0 0"/></symbol><symbol overflow="visible" id="b"><path d="M3.547-5.953c-.65 0-1.164.242-1.547.72-.375.48-.563 1.13-.563 1.952 0 .835.188 1.49.563 1.967.383.48.898.72 1.547.72.644 0 1.156-.24 1.53-.72.376-.476.564-1.132.564-1.968 0-.822-.187-1.474-.562-1.954-.375-.477-.887-.72-1.53-.72zm0-.734c.914 0 1.648.312 2.203.937.55.617.828 1.438.828 2.47 0 1.042-.277 1.87-.828 2.483-.555.617-1.29.922-2.203.922-.93 0-1.668-.305-2.22-.922C.774-1.41.5-2.237.5-3.28c0-1.033.273-1.853.828-2.47.55-.625 1.29-.938 2.22-.938zm0 0"/></symbol><symbol overflow="visible" id="c"><path d="M.89-6.563H2.08l2.906 5.485v-5.484h.86V0H4.656L1.75-5.484V0H.89zm0 0"/></symbol><symbol overflow="visible" id="d"><path d="M.89-6.563h3.766v.75h-2.89v1.938h2.61v.734h-2.61V0H.89zm0 0"/></symbol></defs><g><path fill="#fff" d="M0 0h300v300H0z"/><path d="M57.39 194.066l-.105 12.547" stroke-width="1.2" stroke="#cc0" stroke-miterlimit="10" fill="none"/><path d="M57.285 206.613l-.11 12.547" stroke-width="1.2" stroke="#f00" stroke-miterlimit="10" fill="none"/><path d="M63.297 194.117l-.11 12.547" stroke-width="1.2" stroke="#cc0" stroke-miterlimit="10" fill="none"/><path d="M63.188 206.664l-.11 12.547" stroke-width="1.2" stroke="#f00" stroke-miterlimit="10" fill="none"/><path d="M63.297 194.117l.11-12.547" stroke-width="1.2" stroke="#cc0" stroke-miterlimit="10" fill="none"/><path d="M63.406 181.57l.106-12.547" stroke-width="1.2" stroke="#f00" stroke-miterlimit="10" fill="none"/><path d="M57.39 194.066l.11-12.546" stroke-width="1.2" stroke="#cc0" stroke-miterlimit="10" fill="none"/><path d="M57.5 181.52l.11-12.547" stroke-width="1.2" stroke="#f00" stroke-miterlimit="10" fill="none"/><path d="M60.344 194.09l-12.547-.106" stroke-width="1.2" stroke="#cc0" stroke-miterlimit="10" fill="none"/><path d="M47.797 193.984l-12.547-.11" stroke-width="1.2" stroke="#000" stroke-miterlimit="10" fill="none"/><path d="M60.344 194.09l12.547.11" stroke-width="1.2" stroke="#cc0" stroke-miterlimit="10" fill="none"/><path d="M72.89 194.2l12.547.11" stroke-width="1.2" stroke="#000" stroke-miterlimit="10" fill="none"/><path d="M57.344 188.59h6v11h-6zm0 0" fill="#fff"/><use xlink:href="#a" x="57.344" y="197.253" fill="#cc0"/><path d="M56.13 213.688h8v11h-8zm0 0" fill="#fff"/><use xlink:href="#b" x="56.129" y="222.351" fill="#f00"/><path d="M56.563 163.496h8v11h-8zm0 0" fill="#fff"/><use xlink:href="#b" x="56.563" y="172.159" fill="#f00"/><path d="M85.438 194.31l12.734-21.626M91.8 195.14l10.188-17.296M97.797 216.148l-12.36-21.84M98.172 172.684l25.094.218M123.266 172.902l12.36 21.84M119.363 177.992l9.887 17.473M135.625 194.742l-12.734 21.62M135.625 194.742l25.098.215M122.89 216.363l-25.093-.215M120.434 210.438l-20.075-.172M160.723 194.957l7.285 10.215" stroke-width="1.2" stroke="#000" stroke-miterlimit="10" fill="none"/><path d="M168.008 205.172l7.29 10.215" stroke-width="1.2" stroke="#00f" stroke-miterlimit="10" fill="none"/><path d="M166.984 193.57l5.832 8.172" stroke-width="1.2" stroke="#000" stroke-miterlimit="10" fill="none"/><path d="M172.816 201.742l5.83 8.172" stroke-width="1.2" stroke="#00f" stroke-miterlimit="10" fill="none"/><path d="M175.645 174.785l-14.922 20.172" stroke-width="1.2" stroke="#000" stroke-miterlimit="10" fill="none"/><path d="M175.297 215.387l23.933-7.547" stroke-width="1.2" stroke="#00f" stroke-miterlimit="10" fill="none"/><path d="M172.297 209.887h7v11h-7zm0 0" fill="#fff"/><use xlink:href="#c" x="172.297" y="218.55" fill="#00f"/><path d="M199.23 207.84l10.81 6.367" stroke-width="1.2" stroke="#00f" stroke-miterlimit="10" fill="none"/><path d="M210.04 214.207l10.812 6.367M199.445 182.742l-.11 12.55" stroke-width="1.2" stroke="#000" stroke-miterlimit="10" fill="none"/><path d="M199.336 195.293l-.106 12.547" stroke-width="1.2" stroke="#00f" stroke-miterlimit="10" fill="none"/><path d="M196.23 202.34h7v11h-7zm0 0" fill="#fff"/><use xlink:href="#c" x="196.23" y="211.003" fill="#00f"/><path d="M220.852 220.574l21.84-12.36M220.13 214.2l17.472-9.89M242.69 208.215l21.626 12.734M242.69 208.215l.22-25.094M242.91 183.12l-10.812-6.37" stroke-width="1.2" stroke="#000" stroke-miterlimit="10" fill="none"/><path d="M232.098 176.75l-10.813-6.367" stroke-width="1.2" stroke="#00f" stroke-miterlimit="10" fill="none"/><path d="M237.75 186.934l-8.648-5.094" stroke-width="1.2" stroke="#000" stroke-miterlimit="10" fill="none"/><path d="M229.102 181.84l-8.65-5.094" stroke-width="1.2" stroke="#00f" stroke-miterlimit="10" fill="none"/><path d="M242.91 183.12l21.84-12.362" stroke-width="1.2" stroke="#000" stroke-miterlimit="10" fill="none"/><path d="M221.285 170.383l-10.918 6.18" stroke-width="1.2" stroke="#00f" stroke-miterlimit="10" fill="none"/><path d="M210.367 176.563l-10.922 6.18" stroke-width="1.2" stroke="#000" stroke-miterlimit="10" fill="none"/><path d="M218.285 164.883h7v11h-7zm0 0" fill="#fff"/><use xlink:href="#c" x="218.285" y="173.546" fill="#00f"/><path d="M199.445 182.742l-23.8-7.957M195.19 187.547l-19.038-6.367M175.645 174.785l-7.547-23.933M168.098 150.852l16.953-18.504M165.438 145.012L179 130.207M143.598 145.422l24.5 5.43M185.05 132.348l-7.55-23.934M177.5 108.414l-24.5-5.43M173.773 113.637l-19.6-4.344M153 102.984l-3.773-11.964" stroke-width="1.2" stroke="#000" stroke-miterlimit="10" fill="none"/><path d="M149.227 91.02l-3.774-11.97" stroke-width="1.2" stroke="#3cc" stroke-miterlimit="10" fill="none"/><path d="M153 102.984l-16.953 18.504" stroke-width="1.2" stroke="#000" stroke-miterlimit="10" fill="none"/><path d="M139.453 73.55h6v11h-6zm0 0" fill="#fff"/><use xlink:href="#d" x="139.453" y="82.214" fill="#3cc"/><path d="M136.047 121.488l7.55 23.934M142.434 122.105l6.04 19.15" stroke-width="1.2" stroke="#000" stroke-miterlimit="10" fill="none"/></g></svg>