<svg xmlns="http://www.w3.org/2000/svg" xmlns:xlink="http://www.w3.org/1999/xlink" width="300pt" height="300pt" viewBox="0 0 300 300"><defs><symbol overflow="visible"><path d="M.547 1.938V-7.75h5.5v9.688zm.625-.61h4.266v-8.47H1.171zm0 0"/></symbol><symbol overflow="visible" id="a"><path d="M5.89-7.75v1.047c-.417-.195-.808-.344-1.17-.438-.368-.094-.72-.14-1.064-.14-.586 0-1.04.116-1.36.343-.323.23-.483.554-.483.968 0 .357.1.626.312.814.22.18.625.324 1.22.437L4-4.593c.813.157 1.41.434 1.797.828.383.387.578.903.578 1.547 0 .783-.262 1.376-.78 1.783-.525.398-1.29.593-2.298.593-.375 0-.78-.047-1.22-.14C1.648-.066 1.208-.19.75-.36v-1.11c.445.25.88.44 1.297.564.426.125.844.187 1.25.187.625 0 1.1-.116 1.437-.358.332-.25.5-.598.5-1.047 0-.395-.12-.703-.36-.922-.24-.226-.636-.398-1.186-.515l-.657-.126c-.81-.156-1.4-.406-1.764-.75C.898-4.78.72-5.258.72-5.875c0-.707.25-1.266.75-1.672.5-.414 1.19-.625 2.077-.625.375 0 .754.04 1.14.11.395.074.797.18 1.204.312zm0 0"/></symbol><symbol overflow="visible" id="b"><path d="M4.328-7.28c-.78 0-1.406.296-1.875.89-.46.585-.687 1.382-.687 2.39 0 1.012.226 1.813.687 2.406.47.586 1.094.875 1.875.875.79 0 1.414-.288 1.875-.874.457-.593.688-1.394.688-2.406 0-1.008-.23-1.805-.687-2.39-.46-.594-1.086-.89-1.875-.89zm0-.892c1.125 0 2.024.383 2.703 1.14C7.708-6.28 8.048-5.27 8.048-4c0 1.262-.34 2.273-1.016 3.03C6.353-.22 5.454.157 4.33.157S2.3-.22 1.625-.97c-.668-.75-1-1.757-1-3.03 0-1.27.332-2.28 1-3.03.676-.76 1.578-1.142 2.703-1.142zm0 0"/></symbol><symbol overflow="visible" id="c"><path d="M1.078-8.016h1.47l3.546 6.704v-6.704h1.062V0H5.688L2.124-6.703V0H1.078zm0 0"/></symbol><symbol overflow="visible" id="d"><path d="M1.078-8.016h4.61v.907H2.171v2.36h3.172v.922H2.172V0H1.078zm0 0"/></symbol></defs><g><path fill="#fff" d="M0 0h300v300H0z"/><path d="M59.734 113.695l-.007 13.87" stroke-width="1.2" stroke="#cc0" stroke-miterlimit="10" fill="none"/><path d="M59.727 127.566l-.004 13.875" stroke-width="1.2" stroke="#f00" stroke-miterlimit="10" fill="none"/><path d="M66.262 113.695l-.004 13.875" stroke-width="1.2" stroke="#cc0" stroke-miterlimit="10" fill="none"/><path d="M66.258 127.57l-.008 13.875" stroke-width="1.2" stroke="#f00" stroke-miterlimit="10" fill="none"/><path d="M66.262 113.695l.004-13.87" stroke-width="1.2" stroke="#cc0" stroke-miterlimit="10" fill="none"/><path d="M66.266 99.824l.007-13.875" stroke-width="1.2" stroke="#f00" stroke-miterlimit="10" fill="none"/><path d="M59.734 113.695l.004-13.875" stroke-width="1.2" stroke="#cc0" stroke-miterlimit="10" fill="none"/><path d="M59.738 99.82l.004-13.875" stroke-width="1.2" stroke="#f00" stroke-miterlimit="10" fill="none"/><path d="M62.996 113.695l-13.87-.004" stroke-width="1.2" stroke="#cc0" stroke-miterlimit="10" fill="none"/><path d="M49.125 113.69l-13.875-.006" stroke-width="1.2" stroke="#000" stroke-miterlimit="10" fill="none"/><path d="M62.996 113.695l13.875.004" stroke-width="1.2" stroke="#cc0" stroke-miterlimit="10" fill="none"/><path d="M76.87 113.7l13.876.007" stroke-width="1.2" stroke="#000" stroke-miterlimit="10" fill="none"/><path d="M59.996 107.195h7v13h-7zm0 0" fill="#fff"/><use xlink:href="#a" x="59.996" y="117.097" fill="#cc0"/><path d="M58.988 134.94h9v13h-9zm0 0" fill="#fff"/><use xlink:href="#b" x="58.988" y="144.843" fill="#f00"/><path d="M59.008 79.45h9v13h-9zm0 0" fill="#fff"/><use xlink:href="#b" x="59.008" y="89.351" fill="#f00"/><path d="M90.746 113.707L104.63 89.68M97.785 114.57l11.106-19.222M104.61 137.742l-13.864-24.035M104.63 89.68l27.745.01M132.375 89.69l13.863 24.037M128.105 95.355l11.094 19.23M146.238 113.727l-13.883 24.023M146.238 113.727l27.75.007M132.355 137.75l-27.746-.008M129.586 131.22l-22.2-.01M173.988 113.734l8.157-11.218" stroke-width="1.2" stroke="#000" stroke-miterlimit="10" fill="none"/><path d="M182.145 102.516l8.16-11.223" stroke-width="1.2" stroke="#00f" stroke-miterlimit="10" fill="none"/><path d="M180.898 115.332l6.528-8.977" stroke-width="1.2" stroke="#000" stroke-miterlimit="10" fill="none"/><path d="M187.426 106.355l6.527-8.976" stroke-width="1.2" stroke="#00f" stroke-miterlimit="10" fill="none"/><path d="M190.29 136.19l-16.302-22.456" stroke-width="1.2" stroke="#000" stroke-miterlimit="10" fill="none"/><path d="M190.305 91.293l26.386 8.586" stroke-width="1.2" stroke="#00f" stroke-miterlimit="10" fill="none"/><path d="M186.305 84.793h8v13h-8zm0 0" fill="#fff"/><use xlink:href="#c" x="186.305" y="94.694" fill="#00f"/><path d="M216.69 99.88l-.006 13.87" stroke-width="1.2" stroke="#00f" stroke-miterlimit="10" fill="none"/><path d="M216.684 113.75l-.004 13.875M240.727 86.012l-12.02 6.933" stroke-width="1.2" stroke="#000" stroke-miterlimit="10" fill="none"/><path d="M228.707 92.945L216.69 99.88" stroke-width="1.2" stroke="#00f" stroke-miterlimit="10" fill="none"/><path d="M212.69 93.38h8v13h-8zm0 0" fill="#fff"/><use xlink:href="#c" x="212.691" y="103.28" fill="#00f"/><path d="M216.68 127.625l12.01 6.94" stroke-width="1.2" stroke="#000" stroke-miterlimit="10" fill="none"/><path d="M228.69 134.566l12.013 6.942" stroke-width="1.2" stroke="#00f" stroke-miterlimit="10" fill="none"/><path d="M216.68 127.625l-26.39 8.566M212.027 122.273l-21.117 6.852" stroke-width="1.2" stroke="#000" stroke-miterlimit="10" fill="none"/><path d="M240.703 141.508l12.02-6.934" stroke-width="1.2" stroke="#00f" stroke-miterlimit="10" fill="none"/><path d="M252.723 134.574l12.015-6.93" stroke-width="1.2" stroke="#000" stroke-miterlimit="10" fill="none"/><path d="M239.848 134.465l9.613-5.547" stroke-width="1.2" stroke="#00f" stroke-miterlimit="10" fill="none"/><path d="M249.46 128.918l9.614-5.543" stroke-width="1.2" stroke="#000" stroke-miterlimit="10" fill="none"/><path d="M236.703 135.008h8v13h-8zm0 0" fill="#fff"/><use xlink:href="#c" x="236.703" y="144.909" fill="#00f"/><path d="M264.738 127.645l.012-27.75M264.75 99.895l-24.023-13.883M259.082 104.16L239.86 93.055M240.727 86.012l.007-27.746M190.29 136.19l-8.587 26.384M181.703 162.574l-27.14 5.762M180.344 169.54l-21.715 4.605M200.262 183.203l-18.56-20.63M154.563 168.336l-8.586 26.387M145.977 194.723l18.558 20.625M152.688 192.418l14.843 16.5M164.535 215.348l-4.293 13.195" stroke-width="1.2" stroke="#000" stroke-miterlimit="10" fill="none"/><path d="M160.242 228.543l-4.29 13.19" stroke-width="1.2" stroke="#3cc" stroke-miterlimit="10" fill="none"/><path d="M164.535 215.348l27.145-5.758" stroke-width="1.2" stroke="#000" stroke-miterlimit="10" fill="none"/><path d="M148.953 235.234h7v13h-7zm0 0" fill="#fff"/><use xlink:href="#d" x="148.953" y="245.136" fill="#3cc"/><path d="M191.68 209.59l8.582-26.387M186.328 204.93l6.867-21.11" stroke-width="1.2" stroke="#000" stroke-miterlimit="10" fill="none"/></g></svg>