<svg xmlns="http://www.w3.org/2000/svg" xmlns:xlink="http://www.w3.org/1999/xlink" width="300pt" height="300pt" viewBox="0 0 300 300"><defs><symbol overflow="visible"><path d="M.453 1.594v-7.938h4.5v7.938zm.5-.5h3.5v-6.938h-3.5zm0 0"/></symbol><symbol overflow="visible" id="a"><path d="M5.797-6.063v.938c-.305-.27-.625-.473-.97-.61-.335-.144-.686-.218-1.06-.218-.75 0-1.33.23-1.736.687-.397.46-.592 1.12-.592 1.985 0 .866.195 1.526.593 1.983.408.46.986.688 1.736.688.375 0 .726-.066 1.062-.203.344-.132.664-.343.97-.625V-.5c-.314.21-.642.367-.986.47-.343.1-.714.155-1.11.155-.99 0-1.772-.3-2.343-.906C.784-1.396.5-2.228.5-3.28c0-1.052.285-1.88.86-2.486.57-.613 1.35-.92 2.343-.92.395-.002.766.053 1.11.155.35.104.68.26.984.468zm0 0"/></symbol><symbol overflow="visible" id="b"><path d="M.844-6.844h.812V0H.844zm0 0"/></symbol><symbol overflow="visible" id="c"><path d="M3.547-5.953c-.65 0-1.164.242-1.547.72-.375.48-.563 1.13-.563 1.952 0 .835.188 1.49.563 1.967.383.48.898.72 1.547.72.644 0 1.156-.24 1.53-.72.376-.476.564-1.132.564-1.968 0-.822-.187-1.474-.562-1.954-.375-.477-.887-.72-1.53-.72zm0-.734c.914 0 1.648.312 2.203.937.55.617.828 1.438.828 2.47 0 1.042-.277 1.87-.828 2.483-.555.617-1.29.922-2.203.922-.93 0-1.668-.305-2.22-.922C.774-1.41.5-2.237.5-3.28c0-1.033.273-1.853.828-2.47.55-.625 1.29-.938 2.22-.938zm0 0"/></symbol><symbol overflow="visible" id="d"><path d="M.89-6.563H2.08l2.906 5.485v-5.484h.86V0H4.656L1.75-5.484V0H.89zm0 0"/></symbol><symbol overflow="visible" id="e"><path d="M4.813-6.344v.86c-.336-.157-.653-.27-.954-.344-.294-.082-.58-.125-.86-.125-.492 0-.867.094-1.125.28-.262.19-.39.454-.39.798 0 .293.085.512.265.656.176.15.504.267.984.36l.547.11c.658.125 1.142.352 1.454.672.32.312.485.734.485 1.265 0 .637-.216 1.122-.642 1.454-.43.325-1.055.485-1.875.485-.312 0-.648-.04-1-.11C1.36-.046 1-.147.625-.296v-.906c.352.2.703.35 1.047.453.35.105.695.156 1.03.156.5 0 .884-.097 1.157-.297.28-.196.42-.485.42-.86 0-.32-.1-.57-.296-.75-.2-.176-.523-.313-.968-.406l-.547-.11C1.81-3.148 1.33-3.36 1.03-3.64.74-3.923.595-4.313.595-4.813c0-.57.203-1.024.61-1.36.405-.344.968-.516 1.687-.516.313 0 .626.032.938.094.32.055.65.137.985.25zm0 0"/></symbol></defs><g><path fill="#fff" d="M0 0h300v300H0z"/><path d="M264.75 88.758l-9.598 3.133" stroke-width="1.2" stroke="#0c0" stroke-miterlimit="10" fill="none"/><path d="M255.152 91.89l-9.597 3.13" stroke-width="1.2" stroke="#000" stroke-miterlimit="10" fill="none"/><path d="M259.75 83.258h10v11h-10zm0 0" fill="#fff"/><g fill="#0c0"><use xlink:href="#a" x="259.75" y="91.921"/><use xlink:href="#b" x="266.264" y="91.921"/></g><path d="M245.555 95.02l-4.176 19.757M240.488 96.016l-3.34 15.8M230.535 81.527l15.02 13.493M241.38 114.777l-19.196 6.262M222.184 121.04l-15.02-13.493M223.855 116.156L211.84 105.36M207.164 107.547l4.172-19.758M207.164 107.547l-19.195 6.262M211.336 87.79l19.2-6.263M214.73 91.68l15.356-5.008M189.555 112.04l-7.512-6.747" stroke-width="1.2" stroke="#000" stroke-miterlimit="10" fill="none"/><path d="M182.043 105.293l-7.508-6.746" stroke-width="1.2" stroke="#f00" stroke-miterlimit="10" fill="none"/><path d="M186.38 115.574l-7.51-6.746" stroke-width="1.2" stroke="#000" stroke-miterlimit="10" fill="none"/><path d="M178.87 108.828l-7.51-6.746" stroke-width="1.2" stroke="#f00" stroke-miterlimit="10" fill="none"/><path d="M187.97 113.81l-2.09 9.874" stroke-width="1.2" stroke="#000" stroke-miterlimit="10" fill="none"/><path d="M185.88 123.684l-2.087 9.88" stroke-width="1.2" stroke="#00f" stroke-miterlimit="10" fill="none"/><path d="M164.945 94.813h8v11h-8zm0 0" fill="#fff"/><use xlink:href="#c" x="164.945" y="103.476" fill="#f00"/><path d="M183.793 133.563l6.766 7.492" stroke-width="1.2" stroke="#00f" stroke-miterlimit="10" fill="none"/><path d="M190.56 141.055l6.76 7.496M165.355 141.797l9.22-4.117" stroke-width="1.2" stroke="#000" stroke-miterlimit="10" fill="none"/><path d="M174.574 137.68l9.22-4.118" stroke-width="1.2" stroke="#00f" stroke-miterlimit="10" fill="none"/><path d="M180.793 128.063h7v11h-7zm0 0" fill="#fff"/><use xlink:href="#d" x="180.793" y="136.726" fill="#00f"/><path d="M197.32 148.55l-10.074 17.5M217.512 148.527l-20.192.024M215.5 153.28l-16.156.02M187.246 166.05l10.117 17.473M192.367 165.418l8.094 13.977M187.246 166.05l-19.754-4.175M197.363 183.523l20.192-.023M217.555 183.5l5.054 8.738" stroke-width="1.2" stroke="#000" stroke-miterlimit="10" fill="none"/><path d="M222.61 192.238l5.058 8.735" stroke-width="1.2" stroke="#f00" stroke-miterlimit="10" fill="none"/><path d="M217.555 183.5L227.63 166M214.445 179.38l8.06-14" stroke-width="1.2" stroke="#000" stroke-miterlimit="10" fill="none"/><path d="M227.668 200.973l-5.035 8.75" stroke-width="1.2" stroke="#f00" stroke-miterlimit="10" fill="none"/><path d="M222.633 209.723l-5.04 8.75" stroke-width="1.2" stroke="#000" stroke-miterlimit="10" fill="none"/><path d="M223.668 195.473h8v11h-8zm0 0" fill="#fff"/><use xlink:href="#c" x="223.668" y="204.136" fill="#f00"/><path d="M227.63 166l-10.118-17.473M167.492 161.875L152.5 175.402M167.492 161.875l-2.137-20.078M172 159.363l-1.707-16.062M152.5 175.402l-19.207-6.214M133.293 169.188l-8.16 5.94" stroke-width="1.2" stroke="#000" stroke-miterlimit="10" fill="none"/><path d="M125.133 175.13l-8.164 5.944" stroke-width="1.2" stroke="#cc0" stroke-miterlimit="10" fill="none"/><path d="M127.03 149.988l3.13 9.598" stroke-width="1.2" stroke="#00f" stroke-miterlimit="10" fill="none"/><path d="M130.16 159.586l3.133 9.6" stroke-width="1.2" stroke="#000" stroke-miterlimit="10" fill="none"/><path d="M123.14 153.383l2.505 7.68" stroke-width="1.2" stroke="#00f" stroke-miterlimit="10" fill="none"/><path d="M125.645 161.063l2.503 7.675" stroke-width="1.2" stroke="#000" stroke-miterlimit="10" fill="none"/><path d="M116.97 181.074l-8.173-5.926" stroke-width="1.2" stroke="#cc0" stroke-miterlimit="10" fill="none"/><path d="M108.797 175.148l-8.176-5.925" stroke-width="1.2" stroke="#000" stroke-miterlimit="10" fill="none"/><path d="M113.97 175.574h6v11h-6zm0 0" fill="#fff"/><use xlink:href="#e" x="113.969" y="184.237" fill="#cc0"/><path d="M100.62 169.223l6.22-19.21M105.762 168.766l4.976-15.368M106.84 150.012l10.094-.012" stroke-width="1.2" stroke="#000" stroke-miterlimit="10" fill="none"/><path d="M116.934 150l10.097-.012" stroke-width="1.2" stroke="#00f" stroke-miterlimit="10" fill="none"/><path d="M106.84 150.012l-11.89-16.32" stroke-width="1.2" stroke="#000" stroke-miterlimit="10" fill="none"/><path d="M124.03 144.488h7v11h-7zm0 0" fill="#fff"/><use xlink:href="#d" x="124.031" y="153.151" fill="#00f"/><path d="M94.95 133.69l-20.188.025M101.168 114.48l-6.22 19.21M96.027 114.94l-4.976 15.37M74.762 133.715l-6.266-19.195M69.617 133.27l-5.012-15.356M61.266 148.738l13.496-15.023M68.496 114.52l8.164-5.942" stroke-width="1.2" stroke="#000" stroke-miterlimit="10" fill="none"/><path d="M76.66 108.578l8.16-5.945" stroke-width="1.2" stroke="#cc0" stroke-miterlimit="10" fill="none"/><path d="M68.496 114.52l-19.754-4.172" stroke-width="1.2" stroke="#000" stroke-miterlimit="10" fill="none"/><path d="M84.82 102.633l8.172 5.926" stroke-width="1.2" stroke="#cc0" stroke-miterlimit="10" fill="none"/><path d="M92.992 108.56l8.176 5.92" stroke-width="1.2" stroke="#000" stroke-miterlimit="10" fill="none"/><path d="M81.82 97.133h6v11h-6zm0 0" fill="#fff"/><use xlink:href="#e" x="81.82" y="105.796" fill="#cc0"/><path d="M48.742 110.348l-13.492 15.02M50.93 115.023L40.133 127.04M35.25 125.367l6.262 19.195M41.512 144.563l19.754 4.175M44.47 140.332l15.803 3.34M165.355 141.797l-17.496-10.074" stroke-width="1.2" stroke="#000" stroke-miterlimit="10" fill="none"/></g></svg>