<svg xmlns="http://www.w3.org/2000/svg" xmlns:xlink="http://www.w3.org/1999/xlink" width="300pt" height="300pt" viewBox="0 0 300 300"><defs><symbol overflow="visible"><path d="M.453 1.594v-7.938h4.5v7.938zm.5-.5h3.5v-6.938h-3.5zm0 0"/></symbol><symbol overflow="visible" id="a"><path d="M5.797-6.063v.938c-.305-.27-.625-.473-.97-.61-.335-.144-.686-.218-1.06-.218-.75 0-1.33.23-1.736.687-.397.46-.592 1.12-.592 1.985 0 .866.195 1.526.593 1.983.408.46.986.688 1.736.688.375 0 .726-.066 1.062-.203.344-.132.664-.343.97-.625V-.5c-.314.21-.642.367-.986.47-.343.1-.714.155-1.11.155-.99 0-1.772-.3-2.343-.906C.784-1.396.5-2.228.5-3.28c0-1.052.285-1.88.86-2.486.57-.613 1.35-.92 2.343-.92.395-.002.766.053 1.11.155.35.104.68.26.984.468zm0 0"/></symbol><symbol overflow="visible" id="b"><path d="M.844-6.844h.812V0H.844zm0 0"/></symbol><symbol overflow="visible" id="c"><path d="M.89-6.563H2.08l2.906 5.485v-5.484h.86V0H4.656L1.75-5.484V0H.89zm0 0"/></symbol><symbol overflow="visible" id="d"><path d="M.89-6.563h.876v2.688H5v-2.688h.89V0H5v-3.125H1.766V0H.89zm0 0"/></symbol><symbol overflow="visible" id="e"><path d="M3.547-5.953c-.65 0-1.164.242-1.547.72-.375.48-.563 1.13-.563 1.952 0 .835.188 1.49.563 1.967.383.48.898.72 1.547.72.644 0 1.156-.24 1.53-.72.376-.476.564-1.132.564-1.968 0-.822-.187-1.474-.562-1.954-.375-.477-.887-.72-1.53-.72zm0-.734c.914 0 1.648.312 2.203.937.55.617.828 1.438.828 2.47 0 1.042-.277 1.87-.828 2.483-.555.617-1.29.922-2.203.922-.93 0-1.668-.305-2.22-.922C.774-1.41.5-2.237.5-3.28c0-1.033.273-1.853.828-2.47.55-.625 1.29-.938 2.22-.938zm0 0"/></symbol></defs><g><path fill="#fff" d="M0 0h300v300H0z"/><path d="M206.89 199.547l8.977-7.492" stroke-width="1.2" stroke="#0c0" stroke-miterlimit="10" fill="none"/><path d="M215.867 192.055l8.977-7.493" stroke-width="1.2" stroke="#000" stroke-miterlimit="10" fill="none"/><path d="M196.89 194.047h10v11h-10zm0 0" fill="#fff"/><g fill="#0c0"><use xlink:href="#a" x="196.891" y="202.71"/><use xlink:href="#b" x="203.404" y="202.71"/></g><path d="M224.844 184.563l-4.004-23.043M229.863 181.316l-3.203-18.433M246.797 192.617l-21.953-8.054M220.84 161.52l-10.977-4.028" stroke-width="1.2" stroke="#000" stroke-miterlimit="10" fill="none"/><path d="M209.863 157.492l-10.98-4.027" stroke-width="1.2" stroke="#00f" stroke-miterlimit="10" fill="none"/><path d="M220.84 161.52l17.953-14.985" stroke-width="1.2" stroke="#000" stroke-miterlimit="10" fill="none"/><path d="M198.883 153.465l-2-11.52" stroke-width="1.2" stroke="#00f" stroke-miterlimit="10" fill="none"/><path d="M196.883 141.945l-2-11.52" stroke-width="1.2" stroke="#000" stroke-miterlimit="10" fill="none"/><path d="M191.883 147.965h14v11h-14zm0 0" fill="#fff"/><g fill="#00f"><use xlink:href="#c" x="191.883" y="156.628"/><use xlink:href="#d" x="198.86" y="156.628"/></g><path d="M194.883 130.426l17.953-14.988M193.152 124.703l14.36-11.988M172.926 122.37l21.957 8.056M212.836 115.438l-4.004-23.04M208.832 92.398l-21.957-8.054M204.742 96.758l-17.566-6.442M186.875 84.344l-17.953 14.988M168.922 99.332l4.004 23.04M174.746 100.69l3.203 18.435M172.926 122.37l-17.953 14.99M152.262 137.828l2.004 11.524" stroke-width="1.2" stroke="#000" stroke-miterlimit="10" fill="none"/><path d="M154.266 149.352l2 11.52" stroke-width="1.2" stroke="#f00" stroke-miterlimit="10" fill="none"/><path d="M157.684 136.887l2.004 11.52" stroke-width="1.2" stroke="#000" stroke-miterlimit="10" fill="none"/><path d="M159.688 148.406l2 11.524" stroke-width="1.2" stroke="#f00" stroke-miterlimit="10" fill="none"/><path d="M154.973 137.36l-10.977-4.028" stroke-width="1.2" stroke="#000" stroke-miterlimit="10" fill="none"/><path d="M143.996 133.332l-10.976-4.027" stroke-width="1.2" stroke="#00f" stroke-miterlimit="10" fill="none"/><path d="M154.977 154.898h8v11h-8zm0 0" fill="#fff"/><use xlink:href="#e" x="154.977" y="163.562" fill="#f00"/><path d="M133.02 129.305l-17.954 14.988" stroke-width="1.2" stroke="#00f" stroke-miterlimit="10" fill="none"/><path d="M126.02 123.805h14v11h-14zm0 0" fill="#fff"/><g fill="#00f"><use xlink:href="#c" x="126.02" y="132.468"/><use xlink:href="#d" x="132.997" y="132.468"/></g><path d="M115.066 144.293l-10.976-4.027" stroke-width="1.2" stroke="#00f" stroke-miterlimit="10" fill="none"/><path d="M104.09 140.266l-10.98-4.028" stroke-width="1.2" stroke="#000" stroke-miterlimit="10" fill="none"/><path d="M108.066 138.793h14v11h-14zm0 0" fill="#fff"/><g fill="#00f"><use xlink:href="#c" x="108.066" y="147.456"/><use xlink:href="#d" x="115.044" y="147.456"/></g><path d="M93.11 136.238l-17.954 14.985M75.156 151.223l-21.953-8.055M71.066 155.586l-17.562-6.445M79.16 174.266l-4.004-23.043M53.203 143.168L35.25 158.156M35.25 158.156l4.004 23.043M41.07 159.52l3.203 18.433M39.254 181.2l21.953 8.05M61.207 189.25l17.953-14.984M59.477 183.527L73.84 171.54M238.793 146.535l-2.004-11.523" stroke-width="1.2" stroke="#000" stroke-miterlimit="10" fill="none"/><path d="M236.79 135.012l-2-11.52" stroke-width="1.2" stroke="#0c0" stroke-miterlimit="10" fill="none"/><path d="M238.793 146.535l21.953 8.05M239.094 152.504l17.562 6.445" stroke-width="1.2" stroke="#000" stroke-miterlimit="10" fill="none"/><path d="M229.79 117.992h10v11h-10zm0 0" fill="#fff"/><g fill="#0c0"><use xlink:href="#a" x="229.789" y="126.655"/><use xlink:href="#b" x="236.303" y="126.655"/></g><path d="M260.746 154.586l4.004 23.043M264.75 177.63l-17.953 14.987M259.43 174.902l-14.364 11.99M246.797 192.617l4.004 23.04" stroke-width="1.2" stroke="#000" stroke-miterlimit="10" fill="none"/></g></svg>