<svg xmlns="http://www.w3.org/2000/svg" xmlns:xlink="http://www.w3.org/1999/xlink" width="300pt" height="300pt" viewBox="0 0 300 300"><defs><symbol overflow="visible"><path d="M.547 1.938V-7.75h5.5v9.688zm.625-.61h4.266v-8.47H1.171zm0 0"/></symbol><symbol overflow="visible" id="a"><path d="M5.89-7.75v1.047c-.417-.195-.808-.344-1.17-.438-.368-.094-.72-.14-1.064-.14-.586 0-1.04.116-1.36.343-.323.23-.483.554-.483.968 0 .357.1.626.312.814.22.18.625.324 1.22.437L4-4.593c.813.157 1.41.434 1.797.828.383.387.578.903.578 1.547 0 .783-.262 1.376-.78 1.783-.525.398-1.29.593-2.298.593-.375 0-.78-.047-1.22-.14C1.648-.066 1.208-.19.75-.36v-1.11c.445.25.88.44 1.297.564.426.125.844.187 1.25.187.625 0 1.1-.116 1.437-.358.332-.25.5-.598.5-1.047 0-.395-.12-.703-.36-.922-.24-.226-.636-.398-1.186-.515l-.657-.126c-.81-.156-1.4-.406-1.764-.75C.898-4.78.72-5.258.72-5.875c0-.707.25-1.266.75-1.672.5-.414 1.19-.625 2.077-.625.375 0 .754.04 1.14.11.395.074.797.18 1.204.312zm0 0"/></symbol><symbol overflow="visible" id="b"><path d="M4.328-7.28c-.78 0-1.406.296-1.875.89-.46.585-.687 1.382-.687 2.39 0 1.012.226 1.813.687 2.406.47.586 1.094.875 1.875.875.79 0 1.414-.288 1.875-.874.457-.593.688-1.394.688-2.406 0-1.008-.23-1.805-.687-2.39-.46-.594-1.086-.89-1.875-.89zm0-.892c1.125 0 2.024.383 2.703 1.14C7.708-6.28 8.048-5.27 8.048-4c0 1.262-.34 2.273-1.016 3.03C6.353-.22 5.454.157 4.33.157S2.3-.22 1.625-.97c-.668-.75-1-1.757-1-3.03 0-1.27.332-2.28 1-3.03.676-.76 1.578-1.142 2.703-1.142zm0 0"/></symbol><symbol overflow="visible" id="c"><path d="M1.078-8.016h1.47l3.546 6.704v-6.704h1.062V0H5.688L2.124-6.703V0H1.078zm0 0"/></symbol><symbol overflow="visible" id="d"><path d="M1.078-8.016h1.094v3.282H6.11v-3.282h1.077V0H6.11v-3.813H2.17V0H1.078zm0 0"/></symbol><symbol overflow="visible"><path d="M.453 1.594v-7.938h4.5v7.938zm.5-.5h3.5v-6.938h-3.5zm0 0"/></symbol><symbol overflow="visible" id="e"><path d="M1.734-.75h3.094V0H.656v-.75c.344-.344.8-.805 1.375-1.39.583-.594.954-.973 1.11-1.14.282-.322.473-.595.58-.814.112-.226.17-.445.17-.656 0-.352-.12-.64-.36-.86-.24-.218-.557-.327-.952-.327-.28 0-.578.054-.89.156-.305.093-.633.24-.985.436v-.906c.352-.133.688-.238 1-.313.313-.082.598-.125.86-.125.675 0 1.218.172 1.624.516.407.344.61.797.61 1.36 0 .273-.055.53-.156.78-.105.243-.288.524-.546.845-.074.085-.31.328-.703.734-.398.406-.95.976-1.656 1.703zm0 0"/></symbol></defs><g><path fill="#fff" d="M0 0h300v300H0z"/><path d="M235.063 189.71l-2.153 13.282" stroke-width="1.2" stroke="#cc0" stroke-miterlimit="10" fill="none"/><path d="M232.91 202.992l-2.148 13.28" stroke-width="1.2" stroke="#f00" stroke-miterlimit="10" fill="none"/><path d="M241.313 190.723l-2.153 13.28" stroke-width="1.2" stroke="#cc0" stroke-miterlimit="10" fill="none"/><path d="M239.16 204.004l-2.152 13.28" stroke-width="1.2" stroke="#f00" stroke-miterlimit="10" fill="none"/><path d="M241.313 190.723l2.152-13.278" stroke-width="1.2" stroke="#cc0" stroke-miterlimit="10" fill="none"/><path d="M243.465 177.445l2.152-13.28" stroke-width="1.2" stroke="#f00" stroke-miterlimit="10" fill="none"/><path d="M235.063 189.71l2.152-13.28" stroke-width="1.2" stroke="#cc0" stroke-miterlimit="10" fill="none"/><path d="M237.215 176.43l2.152-13.282" stroke-width="1.2" stroke="#f00" stroke-miterlimit="10" fill="none"/><path d="M238.188 190.22l13.28 2.15" stroke-width="1.2" stroke="#cc0" stroke-miterlimit="10" fill="none"/><path d="M251.47 192.37l13.28 2.153" stroke-width="1.2" stroke="#00f" stroke-miterlimit="10" fill="none"/><path d="M238.188 190.22l-13.282-2.154" stroke-width="1.2" stroke="#cc0" stroke-miterlimit="10" fill="none"/><path d="M224.906 188.066l-13.277-2.152" stroke-width="1.2" stroke="#000" stroke-miterlimit="10" fill="none"/><path d="M235.188 183.72h7v13h-7zm0 0" fill="#fff"/><use xlink:href="#a" x="235.188" y="193.62" fill="#cc0"/><path d="M229.883 210.28h9v13h-9zm0 0" fill="#fff"/><use xlink:href="#b" x="229.883" y="220.183" fill="#f00"/><path d="M238.492 157.156h9v13h-9zm0 0" fill="#fff"/><use xlink:href="#b" x="238.492" y="167.058" fill="#f00"/><path d="M253.75 186.023h22v17h-22zm0 0" fill="#fff"/><g fill="#00f"><use xlink:href="#c" x="253.75" y="195.925"/><use xlink:href="#d" x="261.733" y="195.925"/></g><use xlink:href="#e" x="269.758" y="200.808" fill="#00f"/><path d="M211.63 185.914l-9.556-25.156M216.59 181.152l-7.64-20.125M202.074 160.758l-26.562-4.3M175.512 156.457l-17.008 20.852M168.906 154.54l-13.61 16.68M165.957 131.3l9.555 25.157M158.504 177.31l-26.563-4.306M131.94 173.004l-9.55-25.156M136.906 168.238l-7.644-20.12M131.94 173.004l-17.006 20.85M122.39 147.848l17.008-20.852M139.398 126.996l26.56 4.305M141.04 133.676l21.25 3.445M139.398 126.996l-9.554-25.152M129.844 101.844l8.504-10.426" stroke-width="1.2" stroke="#000" stroke-miterlimit="10" fill="none"/><path d="M138.348 91.418l8.504-10.426" stroke-width="1.2" stroke="#f00" stroke-miterlimit="10" fill="none"/><path d="M138.852 74.492h17v13h-17zm0 0" fill="#fff"/><g fill="#f00"><use xlink:href="#b" x="138.852" y="84.394"/><use xlink:href="#d" x="147.252" y="84.394"/></g><path d="M111.977 194.977l4.773 12.578" stroke-width="1.2" stroke="#000" stroke-miterlimit="10" fill="none"/><path d="M116.75 207.555l4.777 12.578" stroke-width="1.2" stroke="#f00" stroke-miterlimit="10" fill="none"/><path d="M117.895 192.73l4.777 12.58" stroke-width="1.2" stroke="#000" stroke-miterlimit="10" fill="none"/><path d="M122.672 205.31l4.777 12.577" stroke-width="1.2" stroke="#f00" stroke-miterlimit="10" fill="none"/><path d="M114.934 193.855L88.37 189.55" stroke-width="1.2" stroke="#000" stroke-miterlimit="10" fill="none"/><path d="M120.488 212.508h9v13h-9zm0 0" fill="#fff"/><use xlink:href="#b" x="120.488" y="222.409" fill="#f00"/><path d="M88.37 189.55l-9.55-25.155M81.5 189.28l-7.645-20.12M71.363 210.402l17.008-20.85M78.82 164.395l-26.562-4.305M52.258 160.09L35.25 180.94M55.465 166.18l-13.61 16.68M35.25 180.94l9.555 25.158M44.805 206.098l26.558 4.304M48.473 200.277l21.25 3.446" stroke-width="1.2" stroke="#000" stroke-miterlimit="10" fill="none"/></g></svg>