<svg xmlns="http://www.w3.org/2000/svg" xmlns:xlink="http://www.w3.org/1999/xlink" width="300pt" height="300pt" viewBox="0 0 300 300"><defs><symbol overflow="visible"><path d="M.453 1.594v-7.938h4.5v7.938zm.5-.5h3.5v-6.938h-3.5zm0 0"/></symbol><symbol overflow="visible" id="a"><path d="M3.547-5.953c-.65 0-1.164.242-1.547.72-.375.48-.563 1.13-.563 1.952 0 .835.188 1.49.563 1.967.383.48.898.72 1.547.72.644 0 1.156-.24 1.53-.72.376-.476.564-1.132.564-1.968 0-.822-.187-1.474-.562-1.954-.375-.477-.887-.72-1.53-.72zm0-.734c.914 0 1.648.312 2.203.937.55.617.828 1.438.828 2.47 0 1.042-.277 1.87-.828 2.483-.555.617-1.29.922-2.203.922-.93 0-1.668-.305-2.22-.922C.774-1.41.5-2.237.5-3.28c0-1.033.273-1.853.828-2.47.55-.625 1.29-.938 2.22-.938zm0 0"/></symbol></defs><g><path fill="#fff" d="M0 0h300v300H0z"/><path d="M228.574 191.984l12.086.043" stroke-width="1.2" stroke="#f00" stroke-miterlimit="10" fill="none"/><path d="M240.66 192.027l12.082.043" stroke-width="1.2" stroke="#000" stroke-miterlimit="10" fill="none"/><path d="M228.574 191.984L222.57 181.5" stroke-width="1.2" stroke="#f00" stroke-miterlimit="10" fill="none"/><path d="M222.57 181.5l-6.004-10.484" stroke-width="1.2" stroke="#000" stroke-miterlimit="10" fill="none"/><path d="M224.574 186.484h8v11h-8zm0 0" fill="#fff"/><use xlink:href="#a" x="224.574" y="195.147" fill="#f00"/><path d="M252.742 192.07l12.008 20.973M219.023 172.445l6.08-10.445" stroke-width="1.2" stroke="#000" stroke-miterlimit="10" fill="none"/><path d="M225.102 162l6.078-10.44" stroke-width="1.2" stroke="#f00" stroke-miterlimit="10" fill="none"/><path d="M214.11 169.582l6.077-10.44" stroke-width="1.2" stroke="#000" stroke-miterlimit="10" fill="none"/><path d="M220.188 159.14l6.078-10.44" stroke-width="1.2" stroke="#f00" stroke-miterlimit="10" fill="none"/><path d="M216.566 171.016l-24.164-.086" stroke-width="1.2" stroke="#000" stroke-miterlimit="10" fill="none"/><path d="M224.723 144.63h8v11h-8zm0 0" fill="#fff"/><use xlink:href="#a" x="224.723" y="153.292" fill="#f00"/><path d="M192.402 170.93l-12.01-20.973M196.133 166.004l-9.606-16.774M180.39 149.957l-24.163-.086M156.227 149.87L144.07 170.76M150.098 149.102l-9.727 16.707M144.22 128.902l12.007 20.97M144.07 170.758l-24.168-.086M119.902 170.672L107.895 149.7M123.637 165.75l-9.606-16.777M119.902 170.672l-12.156 20.883M107.895 149.7l12.156-20.884M120.05 128.816l24.17.086M122.45 134.508l19.33.07M120.05 128.816l-12.007-20.972M108.043 107.844L120.2 86.957M105.28 192.97l6.005 10.483" stroke-width="1.2" stroke="#000" stroke-miterlimit="10" fill="none"/><path d="M111.285 203.453l6.004 10.488" stroke-width="1.2" stroke="#f00" stroke-miterlimit="10" fill="none"/><path d="M110.215 190.145l6.004 10.484" stroke-width="1.2" stroke="#000" stroke-miterlimit="10" fill="none"/><path d="M116.22 200.63l6.003 10.483" stroke-width="1.2" stroke="#f00" stroke-miterlimit="10" fill="none"/><path d="M107.746 191.555l-24.164-.082" stroke-width="1.2" stroke="#000" stroke-miterlimit="10" fill="none"/><path d="M115.754 207.027h8v11h-8zm0 0" fill="#fff"/><use xlink:href="#a" x="115.754" y="215.69" fill="#f00"/><path d="M83.582 191.473L71.574 170.5M77.445 192.2L67.84 175.42M71.426 212.355l12.156-20.882M71.574 170.5l-24.168-.086M47.406 170.414L35.25 191.3M51.105 175.363L41.38 192.07M35.25 191.3l12.008 20.97M47.258 212.27l24.168.085M49.695 206.594l19.332.066" stroke-width="1.2" stroke="#000" stroke-miterlimit="10" fill="none"/></g></svg>