<svg xmlns="http://www.w3.org/2000/svg" xmlns:xlink="http://www.w3.org/1999/xlink" width="300pt" height="300pt" viewBox="0 0 300 300"><defs><symbol overflow="visible"><path d="M.64 2.297v-11.47h6.5v11.47zm.735-.72h5.047V-8.436H1.375zm0 0"/></symbol><symbol overflow="visible" id="a"><path d="M8.375-8.75v1.36c-.438-.407-.902-.708-1.39-.907-.48-.195-.997-.297-1.548-.297-1.085 0-1.917.336-2.5 1-.574.657-.86 1.61-.86 2.86 0 1.25.286 2.21.86 2.875.583.657 1.415.985 2.5.985.55 0 1.067-.098 1.547-.297.49-.195.954-.492 1.39-.89v1.328c-.448.312-.92.546-1.42.703-.5.143-1.032.217-1.595.217-1.438 0-2.57-.437-3.39-1.312C1.144-2.008.733-3.21.733-4.735c0-1.52.41-2.718 1.235-3.593.82-.883 1.952-1.328 3.39-1.328.562 0 1.093.078 1.593.234.508.15.984.37 1.422.672zm0 0"/></symbol><symbol overflow="visible" id="b"><path d="M1.22-9.875h1.17V0H1.22zm0 0"/></symbol><symbol overflow="visible" id="c"><path d="M1.28-9.484H3l4.203 7.937v-7.937h1.25V0H6.72L2.515-7.922V0H1.28zm0 0"/></symbol><symbol overflow="visible" id="d"><path d="M5.125-8.61c-.938 0-1.684.352-2.234 1.047-.542.688-.812 1.633-.812 2.83 0 1.198.27 2.147.813 2.842.55.687 1.297 1.03 2.235 1.03.926 0 1.66-.343 2.203-1.03.55-.696.828-1.645.828-2.844 0-1.196-.277-2.14-.828-2.829-.543-.695-1.277-1.046-2.203-1.046zm0-1.046c1.32 0 2.38.45 3.172 1.344.8.898 1.203 2.09 1.203 3.578 0 1.5-.402 2.7-1.203 3.593C7.504-.255 6.445.186 5.125.186c-1.336 0-2.402-.44-3.203-1.328C1.13-2.036.734-3.235.734-4.735c0-1.49.395-2.68 1.188-3.579.8-.894 1.867-1.343 3.203-1.343zm0 0"/></symbol><symbol overflow="visible" id="f"><path d="M6.953-9.172v1.25c-.48-.226-.937-.398-1.375-.516-.43-.113-.844-.17-1.25-.17-.7 0-1.242.135-1.625.405-.375.273-.562.656-.562 1.156 0 .418.126.734.376.953.257.21.738.383 1.437.516l.78.156c.947.188 1.65.512 2.11.97.458.46.688 1.073.688 1.843 0 .92-.307 1.618-.92 2.094-.618.47-1.524.704-2.72.704-.45 0-.93-.055-1.437-.157C1.953-.07 1.43-.222.89-.42v-1.312c.52.293 1.032.51 1.532.656.5.148.988.22 1.47.22.737 0 1.303-.142 1.702-.423.394-.29.593-.704.593-1.236 0-.468-.148-.832-.437-1.093-.28-.257-.746-.456-1.39-.593l-.782-.156c-.96-.187-1.652-.484-2.078-.89-.43-.406-.64-.97-.64-1.688 0-.843.288-1.503.874-1.984.594-.488 1.41-.734 2.454-.734.437 0 .882.043 1.343.125.47.085.943.202 1.423.358zm0 0"/></symbol><symbol overflow="visible"><path d="M.547 1.938V-7.75h5.5v9.688zm.625-.61h4.266v-8.47H1.171zm0 0"/></symbol><symbol overflow="visible" id="e"><path d="M.53-3.453h2.907v.875H.53zm0 0"/></symbol></defs><g><path fill="#fff" d="M0 0h300v300H0z"/><path d="M49.62 35.863l4.6 16.262" stroke-width="1.2" stroke="#0c0" stroke-miterlimit="10" fill="none"/><path d="M54.22 52.125l4.596 16.262" stroke-width="1.2" stroke="#000" stroke-miterlimit="10" fill="none"/><path d="M42.62 27.863h14v16h-14zm0 0" fill="#fff"/><g fill="#0c0"><use xlink:href="#a" x="42.621" y="40.239"/><use xlink:href="#b" x="51.928" y="40.239"/></g><path d="M58.816 68.387l32.766 8.297M60.14 76.926l26.215 6.636M35.25 92.613l23.566-24.226M91.582 76.684l9.2 32.523M100.78 109.207l-23.565 24.227M92.723 106.086l-18.852 19.38M77.215 133.434l-32.766-8.297M77.215 133.434l9.195 32.523M44.45 125.137l-9.2-32.524M51.18 119.723l-7.356-26.02M86.41 165.957l16.383 4.148" stroke-width="1.2" stroke="#000" stroke-miterlimit="10" fill="none"/><path d="M102.793 170.105l16.383 4.15M119.176 174.254l12.988-10.816" stroke-width="1.2" stroke="#00f" stroke-miterlimit="10" fill="none"/><path d="M132.164 163.438l12.984-10.817M131.723 205.637l-6.274-15.692" stroke-width="1.2" stroke="#000" stroke-miterlimit="10" fill="none"/><path d="M125.45 189.945l-6.274-15.69" stroke-width="1.2" stroke="#00f" stroke-miterlimit="10" fill="none"/><path d="M114.176 166.254h10v16h-10zm0 0" fill="#fff"/><use xlink:href="#c" x="114.176" y="178.63" fill="#00f"/><path d="M145.148 152.62l28.598 18.017M152.246 147.695l22.88 14.41M146.45 118.848l-1.302 33.773M173.746 170.637l-8.297 32.765M173.746 170.637l29.9-15.758M165.45 203.402l-33.727 2.235M161.55 195.69l-26.98 1.79M131.723 205.637l-18.012 28.597M110.19 236.09l7.88 14.95" stroke-width="1.2" stroke="#000" stroke-miterlimit="10" fill="none"/><path d="M118.07 251.04l7.88 14.952" stroke-width="1.2" stroke="#f00" stroke-miterlimit="10" fill="none"/><path d="M117.227 232.383l7.878 14.95" stroke-width="1.2" stroke="#000" stroke-miterlimit="10" fill="none"/><path d="M125.105 247.332l7.88 14.95" stroke-width="1.2" stroke="#f00" stroke-miterlimit="10" fill="none"/><path d="M113.71 234.234l-16.89-.648" stroke-width="1.2" stroke="#000" stroke-miterlimit="10" fill="none"/><path d="M96.82 233.586l-16.886-.652" stroke-width="1.2" stroke="#f00" stroke-miterlimit="10" fill="none"/><path d="M124.47 256.137h11v16h-11zm0 0" fill="#fff"/><use xlink:href="#d" x="124.469" y="268.513" fill="#f00"/><path d="M64.934 223.434h15v19h-15zm0 0" fill="#fff"/><use xlink:href="#e" x="64.934" y="233.746" fill="#f00"/><use xlink:href="#d" x="68.942" y="238.629" fill="#f00"/><path d="M203.645 154.88l1.304-33.775M195.828 151.195l1.043-27.02M204.95 121.105l14.948-7.878" stroke-width="1.2" stroke="#000" stroke-miterlimit="10" fill="none"/><path d="M219.898 113.227l14.95-7.883" stroke-width="1.2" stroke="#cc0" stroke-miterlimit="10" fill="none"/><path d="M204.95 121.105L176.35 103.09" stroke-width="1.2" stroke="#000" stroke-miterlimit="10" fill="none"/><path d="M238.367 103.492l-7.88-14.953" stroke-width="1.2" stroke="#cc0" stroke-miterlimit="10" fill="none"/><path d="M230.488 88.54l-7.88-14.95" stroke-width="1.2" stroke="#f00" stroke-miterlimit="10" fill="none"/><path d="M231.332 107.2l-7.88-14.95" stroke-width="1.2" stroke="#cc0" stroke-miterlimit="10" fill="none"/><path d="M223.453 92.25l-7.88-14.953" stroke-width="1.2" stroke="#f00" stroke-miterlimit="10" fill="none"/><path d="M231.332 107.2l7.88 14.948" stroke-width="1.2" stroke="#cc0" stroke-miterlimit="10" fill="none"/><path d="M239.21 122.148l7.88 14.954" stroke-width="1.2" stroke="#f00" stroke-miterlimit="10" fill="none"/><path d="M238.367 103.492l7.88 14.95" stroke-width="1.2" stroke="#cc0" stroke-miterlimit="10" fill="none"/><path d="M246.246 118.44l7.88 14.95" stroke-width="1.2" stroke="#f00" stroke-miterlimit="10" fill="none"/><path d="M234.848 105.344l14.953-7.88" stroke-width="1.2" stroke="#cc0" stroke-miterlimit="10" fill="none"/><path d="M249.8 97.465l14.95-7.88" stroke-width="1.2" stroke="#000" stroke-miterlimit="10" fill="none"/><path d="M230.848 97.344h9v16h-9zm0 0" fill="#fff"/><use xlink:href="#f" x="230.848" y="109.72" fill="#cc0"/><path d="M208.09 67.445h11v16h-11zm0 0" fill="#fff"/><use xlink:href="#d" x="208.09" y="79.821" fill="#f00"/><path d="M245.61 127.246h11v16h-11zm0 0" fill="#fff"/><use xlink:href="#d" x="245.609" y="139.622" fill="#f00"/><path d="M176.352 103.09l-29.903 15.758M177.07 111.7l-23.922 12.61" stroke-width="1.2" stroke="#000" stroke-miterlimit="10" fill="none"/></g></svg>