<svg xmlns="http://www.w3.org/2000/svg" xmlns:xlink="http://www.w3.org/1999/xlink" width="300pt" height="300pt" viewBox="0 0 300 300"><defs><symbol overflow="visible"><path d="M.594 2.125V-8.47h6V2.126zm.672-.672h4.671V-7.78h-4.67zm0 0"/></symbol><symbol overflow="visible" id="a"><path d="M6.422-8.47v1.158c-.45-.208-.875-.364-1.28-.47-.4-.113-.78-.17-1.142-.17-.648 0-1.148.124-1.5.374-.344.25-.516.61-.516 1.078 0 .387.114.68.344.875.227.2.672.355 1.328.47L4.36-5c.882.168 1.535.465 1.952.89.426.42.64.98.64 1.688 0 .856-.288 1.5-.858 1.938-.563.437-1.4.656-2.5.656-.406 0-.844-.047-1.313-.14C1.814-.064 1.33-.204.83-.392v-1.22c.477.274.945.477 1.406.61.47.137.922.203 1.36.203.676 0 1.195-.13 1.562-.39.375-.27.563-.65.563-1.14 0-.427-.138-.76-.407-1-.262-.25-.696-.43-1.297-.548l-.72-.14c-.886-.176-1.526-.454-1.92-.83-.388-.374-.58-.893-.58-1.56 0-.782.27-1.392.813-1.83.538-.445 1.288-.67 2.25-.67.413 0 .83.038 1.25.108.425.074.863.184 1.312.328zm0 0"/></symbol><symbol overflow="visible" id="b"><path d="M4.734-7.953c-.867 0-1.554.324-2.062.97-.5.635-.75 1.51-.75 2.624 0 1.094.25 1.965.75 2.61.508.637 1.195.953 2.062.953.852 0 1.532-.316 2.032-.953.507-.645.765-1.516.765-2.61 0-1.113-.257-1.988-.764-2.624-.5-.645-1.18-.97-2.032-.97zm0-.953c1.22 0 2.192.414 2.922 1.234.74.824 1.11 1.93 1.11 3.313 0 1.376-.37 2.477-1.11 3.298C6.926-.24 5.953.17 4.734.17c-1.23 0-2.214-.41-2.953-1.234C1.04-1.882.673-2.984.673-4.36c0-1.382.367-2.488 1.11-3.312.738-.82 1.722-1.234 2.952-1.234zm0 0"/></symbol><symbol overflow="visible" id="c"><path d="M1.172-8.75h5.03v1H2.36v2.578h3.468v1h-3.47V0H1.173zm0 0"/></symbol></defs><g><path fill="#fff" d="M0 0h300v300H0z"/><path d="M238.285 183.8l4.184-15" stroke-width="1.2" stroke="#cc0" stroke-miterlimit="10" fill="none"/><path d="M242.47 168.8l4.186-14.995" stroke-width="1.2" stroke="#f00" stroke-miterlimit="10" fill="none"/><path d="M231.227 181.828l4.187-14.996" stroke-width="1.2" stroke="#cc0" stroke-miterlimit="10" fill="none"/><path d="M235.414 166.832l4.184-14.996" stroke-width="1.2" stroke="#f00" stroke-miterlimit="10" fill="none"/><path d="M231.227 181.828l-4.184 15" stroke-width="1.2" stroke="#cc0" stroke-miterlimit="10" fill="none"/><path d="M227.043 196.828l-4.188 14.996" stroke-width="1.2" stroke="#f00" stroke-miterlimit="10" fill="none"/><path d="M238.285 183.8l-4.187 14.997" stroke-width="1.2" stroke="#cc0" stroke-miterlimit="10" fill="none"/><path d="M234.098 198.797l-4.184 14.996" stroke-width="1.2" stroke="#f00" stroke-miterlimit="10" fill="none"/><path d="M234.754 182.816l15 4.184" stroke-width="1.2" stroke="#cc0" stroke-miterlimit="10" fill="none"/><path d="M249.754 187l14.996 4.188" stroke-width="1.2" stroke="#000" stroke-miterlimit="10" fill="none"/><path d="M234.754 182.816l-14.996-4.187" stroke-width="1.2" stroke="#cc0" stroke-miterlimit="10" fill="none"/><path d="M219.758 178.63l-14.996-4.185" stroke-width="1.2" stroke="#000" stroke-miterlimit="10" fill="none"/><path d="M230.754 175.816h8v14h-8zm0 0" fill="#fff"/><use xlink:href="#a" x="230.754" y="186.955" fill="#cc0"/><path d="M238.125 145.82h10v14h-10zm0 0" fill="#fff"/><use xlink:href="#b" x="238.125" y="156.959" fill="#f00"/><path d="M221.383 205.81h10v14h-10zm0 0" fill="#fff"/><use xlink:href="#b" x="221.383" y="216.947" fill="#f00"/><path d="M204.762 174.445l-22.246 21.79M197.41 171.387l-17.797 17.433M197.012 144.28l7.75 30.165M182.516 196.234l-29.996-8.37M152.52 187.863l-7.747-30.16M158.844 183.023l-6.2-24.128M144.773 157.703l22.247-21.793M144.773 157.703l-29.996-8.37M167.02 135.91l29.992 8.37M168.05 143.805l23.993 6.7M114.777 149.332l-24.402 19.344M107.785 145.523L88.265 161M103.922 120.145l10.855 29.187M90.375 168.676l.656 15.558" stroke-width="1.2" stroke="#000" stroke-miterlimit="10" fill="none"/><path d="M91.03 184.234l.654 15.555" stroke-width="1.2" stroke="#f00" stroke-miterlimit="10" fill="none"/><path d="M90.375 168.676l-25.938-17.23" stroke-width="1.2" stroke="#000" stroke-miterlimit="10" fill="none"/><path d="M91.684 199.79l-13.145 8.343" stroke-width="1.2" stroke="#f00" stroke-miterlimit="10" fill="none"/><path d="M78.54 208.133l-13.15 8.347" stroke-width="1.2" stroke="#000" stroke-miterlimit="10" fill="none"/><path d="M86.684 192.79h10v14h-10zm0 0" fill="#fff"/><use xlink:href="#b" x="86.684" y="203.928" fill="#f00"/><path d="M65.39 216.48l1.31 31.11M65.39 216.48l-27.597-14.425M64.438 151.445l4.183-14.996" stroke-width="1.2" stroke="#000" stroke-miterlimit="10" fill="none"/><path d="M68.62 136.45l4.19-14.997" stroke-width="1.2" stroke="#f00" stroke-miterlimit="10" fill="none"/><path d="M63.16 148.012l-14.594 5.43" stroke-width="1.2" stroke="#000" stroke-miterlimit="10" fill="none"/><path d="M48.566 153.44l-14.593 5.43" stroke-width="1.2" stroke="#f00" stroke-miterlimit="10" fill="none"/><path d="M65.715 154.88l-14.594 5.43" stroke-width="1.2" stroke="#000" stroke-miterlimit="10" fill="none"/><path d="M51.12 160.31l-14.593 5.428M72.81 121.453l15.553-.656" stroke-width="1.2" stroke="#f00" stroke-miterlimit="10" fill="none"/><path d="M88.363 120.797l15.56-.652" stroke-width="1.2" stroke="#000" stroke-miterlimit="10" fill="none"/><path d="M67.81 114.453h10v14h-10zm0 0" fill="#fff"/><use xlink:href="#b" x="67.809" y="125.592" fill="#f00"/><path d="M103.922 120.145l30.16-7.747M103.922 120.145L99.367 89.34M134.082 112.398l8.37-29.996M142.453 82.402l4.184-14.996" stroke-width="1.2" stroke="#000" stroke-miterlimit="10" fill="none"/><path d="M146.637 67.406l4.187-14.996" stroke-width="1.2" stroke="#3cc" stroke-miterlimit="10" fill="none"/><path d="M142.453 82.402l14.996 4.188" stroke-width="1.2" stroke="#000" stroke-miterlimit="10" fill="none"/><path d="M157.45 86.59l14.995 4.183" stroke-width="1.2" stroke="#3cc" stroke-miterlimit="10" fill="none"/><path d="M142.453 82.402l-14.996-4.183" stroke-width="1.2" stroke="#000" stroke-miterlimit="10" fill="none"/><path d="M127.457 78.22l-15-4.19" stroke-width="1.2" stroke="#3cc" stroke-miterlimit="10" fill="none"/><path d="M147.824 45.41h7v14h-7zm0 0" fill="#fff"/><use xlink:href="#c" x="147.824" y="56.549" fill="#3cc"/><path d="M169.445 83.773h7v14h-7zm0 0" fill="#fff"/><use xlink:href="#c" x="169.445" y="94.912" fill="#3cc"/><path d="M105.457 67.03h7v14h-7zm0 0" fill="#fff"/><use xlink:href="#c" x="105.457" y="78.17" fill="#3cc"/><path d="M25.25 155.305h10v14h-10zm0 0" fill="#fff"/><use xlink:href="#b" x="25.25" y="166.443" fill="#f00"/></g></svg>