<svg xmlns="http://www.w3.org/2000/svg" xmlns:xlink="http://www.w3.org/1999/xlink" width="300pt" height="300pt" viewBox="0 0 300 300"><defs><symbol overflow="visible"><path d="M.547 1.938V-7.75h5.5v9.688zm.625-.61h4.266v-8.47H1.171zm0 0"/></symbol><symbol overflow="visible" id="a"><path d="M5.89-7.75v1.047c-.417-.195-.808-.344-1.17-.438-.368-.094-.72-.14-1.064-.14-.586 0-1.04.116-1.36.343-.323.23-.483.554-.483.968 0 .357.1.626.312.814.22.18.625.324 1.22.437L4-4.593c.813.157 1.41.434 1.797.828.383.387.578.903.578 1.547 0 .783-.262 1.376-.78 1.783-.525.398-1.29.593-2.298.593-.375 0-.78-.047-1.22-.14C1.648-.066 1.208-.19.75-.36v-1.11c.445.25.88.44 1.297.564.426.125.844.187 1.25.187.625 0 1.1-.116 1.437-.358.332-.25.5-.598.5-1.047 0-.395-.12-.703-.36-.922-.24-.226-.636-.398-1.186-.515l-.657-.126c-.81-.156-1.4-.406-1.764-.75C.898-4.78.72-5.258.72-5.875c0-.707.25-1.266.75-1.672.5-.414 1.19-.625 2.077-.625.375 0 .754.04 1.14.11.395.074.797.18 1.204.312zm0 0"/></symbol><symbol overflow="visible" id="b"><path d="M4.328-7.28c-.78 0-1.406.296-1.875.89-.46.585-.687 1.382-.687 2.39 0 1.012.226 1.813.687 2.406.47.586 1.094.875 1.875.875.79 0 1.414-.288 1.875-.874.457-.593.688-1.394.688-2.406 0-1.008-.23-1.805-.687-2.39-.46-.594-1.086-.89-1.875-.89zm0-.892c1.125 0 2.024.383 2.703 1.14C7.708-6.28 8.048-5.27 8.048-4c0 1.262-.34 2.273-1.016 3.03C6.353-.22 5.454.157 4.33.157S2.3-.22 1.625-.97c-.668-.75-1-1.757-1-3.03 0-1.27.332-2.28 1-3.03.676-.76 1.578-1.142 2.703-1.142zm0 0"/></symbol><symbol overflow="visible" id="c"><path d="M1.078-8.016h1.47l3.546 6.704v-6.704h1.062V0H5.688L2.124-6.703V0H1.078zm0 0"/></symbol></defs><g><path fill="#fff" d="M0 0h300v300H0z"/><path d="M242.25 121.797l.313-12.75" stroke-width="1.2" stroke="#cc0" stroke-miterlimit="10" fill="none"/><path d="M242.563 109.047l.316-12.75" stroke-width="1.2" stroke="#f00" stroke-miterlimit="10" fill="none"/><path d="M236.25 121.648l.313-12.75" stroke-width="1.2" stroke="#cc0" stroke-miterlimit="10" fill="none"/><path d="M236.563 108.898l.316-12.75" stroke-width="1.2" stroke="#f00" stroke-miterlimit="10" fill="none"/><path d="M236.25 121.648l-.313 12.75" stroke-width="1.2" stroke="#cc0" stroke-miterlimit="10" fill="none"/><path d="M235.938 134.398l-.317 12.75" stroke-width="1.2" stroke="#f00" stroke-miterlimit="10" fill="none"/><path d="M242.25 121.797l-.313 12.75" stroke-width="1.2" stroke="#cc0" stroke-miterlimit="10" fill="none"/><path d="M241.938 134.547l-.317 12.75" stroke-width="1.2" stroke="#f00" stroke-miterlimit="10" fill="none"/><path d="M239.25 121.723l12.75.312" stroke-width="1.2" stroke="#cc0" stroke-miterlimit="10" fill="none"/><path d="M252 122.035l12.75.317" stroke-width="1.2" stroke="#000" stroke-miterlimit="10" fill="none"/><path d="M239.25 121.723l-12.75-.313" stroke-width="1.2" stroke="#cc0" stroke-miterlimit="10" fill="none"/><path d="M226.5 121.41l-12.75-.316" stroke-width="1.2" stroke="#000" stroke-miterlimit="10" fill="none"/><path d="M236.25 115.223h7v13h-7zm0 0" fill="#fff"/><use xlink:href="#a" x="236.25" y="125.124" fill="#cc0"/><path d="M235.88 89.723h9v13h-9zm0 0" fill="#fff"/><use xlink:href="#b" x="235.879" y="99.624" fill="#f00"/><path d="M234.62 140.723h9v13h-9zm0 0" fill="#fff"/><use xlink:href="#b" x="234.621" y="150.624" fill="#f00"/><path d="M213.75 121.094l-13.293 21.77M207.297 120.145l-10.633 17.414M201.543 98.695l12.207 22.4M200.457 142.863l-25.5-.625M174.957 142.238L162.75 119.84M179.004 137.125l-9.762-17.918M162.75 119.84l13.293-21.77M162.75 119.84l-25.5-.63M176.043 98.07l25.5.625M178.445 104.133l20.403.5M137.25 119.21l-12.207-22.397M137.25 119.21l-13.293 21.77M130.797 118.258l-10.633 17.418M125.043 96.813l-12.75-.313" stroke-width="1.2" stroke="#000" stroke-miterlimit="10" fill="none"/><path d="M112.293 96.5l-12.75-.316" stroke-width="1.2" stroke="#00f" stroke-miterlimit="10" fill="none"/><path d="M122.348 102.75l-10.203-.25" stroke-width="1.2" stroke="#000" stroke-miterlimit="10" fill="none"/><path d="M112.145 102.5l-10.2-.254M99.543 96.184l-13.293 21.77" stroke-width="1.2" stroke="#00f" stroke-miterlimit="10" fill="none"/><path d="M95.543 89.684h8v13h-8zm0 0" fill="#fff"/><use xlink:href="#c" x="95.543" y="99.585" fill="#00f"/><path d="M86.25 117.953l-12.75-.312" stroke-width="1.2" stroke="#00f" stroke-miterlimit="10" fill="none"/><path d="M73.5 117.64l-12.75-.312" stroke-width="1.2" stroke="#000" stroke-miterlimit="10" fill="none"/><path d="M86.25 117.953l6.102 11.2" stroke-width="1.2" stroke="#00f" stroke-miterlimit="10" fill="none"/><path d="M92.352 129.152l6.105 11.2" stroke-width="1.2" stroke="#000" stroke-miterlimit="10" fill="none"/><path d="M82.25 111.453h8v13h-8zm0 0" fill="#fff"/><use xlink:href="#c" x="82.25" y="121.354" fill="#00f"/><path d="M60.75 117.328l.63-25.5M60.75 117.328l-.63 25.5M60.75 117.328l-25.5-.63M95.895 138.79l-6.65 10.882" stroke-width="1.2" stroke="#000" stroke-miterlimit="10" fill="none"/><path d="M89.246 149.672l-6.644 10.887" stroke-width="1.2" stroke="#f00" stroke-miterlimit="10" fill="none"/><path d="M101.016 141.918L94.37 152.8" stroke-width="1.2" stroke="#000" stroke-miterlimit="10" fill="none"/><path d="M94.37 152.8l-6.647 10.887" stroke-width="1.2" stroke="#f00" stroke-miterlimit="10" fill="none"/><path d="M98.457 140.352l25.5.628" stroke-width="1.2" stroke="#000" stroke-miterlimit="10" fill="none"/><path d="M76.164 155.62h9v13h-9zm0 0" fill="#fff"/><use xlink:href="#b" x="76.164" y="165.522" fill="#f00"/><path d="M123.957 140.98l12.207 22.4M136.164 163.38l-13.297 21.768M139.953 168.684l-10.633 17.414M161.664 164.008l-25.5-.63M122.867 185.148l12.207 22.4M135.074 207.547l25.5.625M137.773 201.61l20.4.5M160.574 208.172l13.293-21.77M173.867 186.402l-12.203-22.394M167.38 187.035l-9.767-17.918" stroke-width="1.2" stroke="#000" stroke-miterlimit="10" fill="none"/></g></svg>