<svg xmlns="http://www.w3.org/2000/svg" xmlns:xlink="http://www.w3.org/1999/xlink" width="300pt" height="300pt" viewBox="0 0 300 300"><defs><symbol overflow="visible"><path d="M.547 1.938V-7.75h5.5v9.688zm.625-.61h4.266v-8.47H1.171zm0 0"/></symbol><symbol overflow="visible" id="a"><path d="M5.89-7.75v1.047c-.417-.195-.808-.344-1.17-.438-.368-.094-.72-.14-1.064-.14-.586 0-1.04.116-1.36.343-.323.23-.483.554-.483.968 0 .357.1.626.312.814.22.18.625.324 1.22.437L4-4.593c.813.157 1.41.434 1.797.828.383.387.578.903.578 1.547 0 .783-.262 1.376-.78 1.783-.525.398-1.29.593-2.298.593-.375 0-.78-.047-1.22-.14C1.648-.066 1.208-.19.75-.36v-1.11c.445.25.88.44 1.297.564.426.125.844.187 1.25.187.625 0 1.1-.116 1.437-.358.332-.25.5-.598.5-1.047 0-.395-.12-.703-.36-.922-.24-.226-.636-.398-1.186-.515l-.657-.126c-.81-.156-1.4-.406-1.764-.75C.898-4.78.72-5.258.72-5.875c0-.707.25-1.266.75-1.672.5-.414 1.19-.625 2.077-.625.375 0 .754.04 1.14.11.395.074.797.18 1.204.312zm0 0"/></symbol><symbol overflow="visible" id="b"><path d="M4.328-7.28c-.78 0-1.406.296-1.875.89-.46.585-.687 1.382-.687 2.39 0 1.012.226 1.813.687 2.406.47.586 1.094.875 1.875.875.79 0 1.414-.288 1.875-.874.457-.593.688-1.394.688-2.406 0-1.008-.23-1.805-.687-2.39-.46-.594-1.086-.89-1.875-.89zm0-.892c1.125 0 2.024.383 2.703 1.14C7.708-6.28 8.048-5.27 8.048-4c0 1.262-.34 2.273-1.016 3.03C6.353-.22 5.454.157 4.33.157S2.3-.22 1.625-.97c-.668-.75-1-1.757-1-3.03 0-1.27.332-2.28 1-3.03.676-.76 1.578-1.142 2.703-1.142zm0 0"/></symbol><symbol overflow="visible" id="c"><path d="M1.078-8.016h1.47l3.546 6.704v-6.704h1.062V0H5.688L2.124-6.703V0H1.078zm0 0"/></symbol><symbol overflow="visible" id="d"><path d="M1.078-8.016h4.61v.907H2.171v2.36h3.172v.922H2.172V0H1.078zm0 0"/></symbol></defs><g><path fill="#fff" d="M0 0h300v300H0z"/><path d="M241.926 107.31l.137-12.94" stroke-width="1.2" stroke="#cc0" stroke-miterlimit="10" fill="none"/><path d="M242.063 94.37l.14-12.933" stroke-width="1.2" stroke="#f00" stroke-miterlimit="10" fill="none"/><path d="M235.836 107.242l.14-12.933" stroke-width="1.2" stroke="#cc0" stroke-miterlimit="10" fill="none"/><path d="M235.977 94.31l.14-12.94" stroke-width="1.2" stroke="#f00" stroke-miterlimit="10" fill="none"/><path d="M235.836 107.242l-.137 12.934" stroke-width="1.2" stroke="#cc0" stroke-miterlimit="10" fill="none"/><path d="M235.7 120.176l-.14 12.933" stroke-width="1.2" stroke="#f00" stroke-miterlimit="10" fill="none"/><path d="M241.926 107.31l-.14 12.932" stroke-width="1.2" stroke="#cc0" stroke-miterlimit="10" fill="none"/><path d="M241.785 120.242l-.14 12.934" stroke-width="1.2" stroke="#f00" stroke-miterlimit="10" fill="none"/><path d="M238.88 107.273l12.936.14" stroke-width="1.2" stroke="#cc0" stroke-miterlimit="10" fill="none"/><path d="M251.816 107.414l12.934.14" stroke-width="1.2" stroke="#000" stroke-miterlimit="10" fill="none"/><path d="M238.88 107.273l-12.935-.136" stroke-width="1.2" stroke="#cc0" stroke-miterlimit="10" fill="none"/><path d="M225.945 107.137l-12.933-.14" stroke-width="1.2" stroke="#000" stroke-miterlimit="10" fill="none"/><path d="M235.88 100.773h7v13h-7zm0 0" fill="#fff"/><use xlink:href="#a" x="235.879" y="110.675" fill="#cc0"/><path d="M235.16 74.906h9v13h-9zm0 0" fill="#fff"/><use xlink:href="#b" x="235.16" y="84.808" fill="#f00"/><path d="M234.602 126.645h9v13h-9zm0 0" fill="#fff"/><use xlink:href="#b" x="234.602" y="136.546" fill="#f00"/><path d="M213.012 106.996l-13.176 22.262M206.453 106.12l-10.54 17.814M200.316 84.453l12.696 22.543M199.836 129.258l-25.87-.278M173.965 128.98l-12.692-22.542M178 123.738l-10.156-18.035M161.273 106.438l13.176-22.266M161.273 106.438l-25.87-.282M174.45 84.172l25.866.28M176.97 90.29l20.694.222M135.402 106.156l-12.69-22.543M135.402 106.156l-13.175 22.266M128.848 105.285l-10.543 17.81M122.71 83.613l-12.937-.14" stroke-width="1.2" stroke="#000" stroke-miterlimit="10" fill="none"/><path d="M109.773 83.473l-12.933-.137" stroke-width="1.2" stroke="#00f" stroke-miterlimit="10" fill="none"/><path d="M120.055 89.672l-10.348-.11" stroke-width="1.2" stroke="#000" stroke-miterlimit="10" fill="none"/><path d="M109.707 89.563l-10.348-.114M96.84 83.336l-13.176 22.262" stroke-width="1.2" stroke="#00f" stroke-miterlimit="10" fill="none"/><path d="M92.84 76.836h8v13h-8zm0 0" fill="#fff"/><use xlink:href="#c" x="92.84" y="86.737" fill="#00f"/><path d="M83.664 105.598l6.344 11.273" stroke-width="1.2" stroke="#00f" stroke-miterlimit="10" fill="none"/><path d="M90.008 116.87l6.347 11.27" stroke-width="1.2" stroke="#000" stroke-miterlimit="10" fill="none"/><path d="M83.664 105.598l-12.937-.137" stroke-width="1.2" stroke="#00f" stroke-miterlimit="10" fill="none"/><path d="M70.727 105.46l-12.934-.14" stroke-width="1.2" stroke="#000" stroke-miterlimit="10" fill="none"/><path d="M79.664 99.098h8v13h-8zm0 0" fill="#fff"/><use xlink:href="#c" x="79.664" y="108.999" fill="#00f"/><path d="M93.738 126.594l-6.59 11.13" stroke-width="1.2" stroke="#000" stroke-miterlimit="10" fill="none"/><path d="M87.148 137.723l-6.59 11.132" stroke-width="1.2" stroke="#f00" stroke-miterlimit="10" fill="none"/><path d="M98.977 129.69l-6.59 11.134" stroke-width="1.2" stroke="#000" stroke-miterlimit="10" fill="none"/><path d="M92.387 140.824l-6.59 11.133" stroke-width="1.2" stroke="#f00" stroke-miterlimit="10" fill="none"/><path d="M96.355 128.14l25.872.282" stroke-width="1.2" stroke="#000" stroke-miterlimit="10" fill="none"/><path d="M74.18 143.906h9v13h-9zm0 0" fill="#fff"/><use xlink:href="#b" x="74.18" y="153.808" fill="#f00"/><path d="M122.227 128.422l12.69 22.543M134.918 150.965l-13.176 22.265M138.84 156.293l-10.543 17.81M160.79 151.246l-25.872-.28M121.742 173.23l12.692 22.543M134.434 195.773l25.87.278M137.086 189.715l20.695.222M160.305 196.05l6.347 11.274" stroke-width="1.2" stroke="#000" stroke-miterlimit="10" fill="none"/><path d="M166.652 207.324l6.344 11.27" stroke-width="1.2" stroke="#3cc" stroke-miterlimit="10" fill="none"/><path d="M160.305 196.05l13.175-22.26" stroke-width="1.2" stroke="#000" stroke-miterlimit="10" fill="none"/><path d="M169.996 212.094h7v13h-7zm0 0" fill="#fff"/><use xlink:href="#d" x="169.996" y="221.995" fill="#3cc"/><path d="M173.48 173.79l-12.69-22.544M166.906 174.52l-10.152-18.036M57.793 105.32L35.25 118.012M35.527 92.145l22.266 13.175M35.25 118.012l.277-25.867" stroke-width="1.2" stroke="#000" stroke-miterlimit="10" fill="none"/></g></svg>