<svg xmlns="http://www.w3.org/2000/svg" xmlns:xlink="http://www.w3.org/1999/xlink" width="300pt" height="300pt" viewBox="0 0 300 300"><defs><symbol overflow="visible"><path d="M.547 1.938V-7.75h5.5v9.688zm.625-.61h4.266v-8.47H1.171zm0 0"/></symbol><symbol overflow="visible" id="a"><path d="M7.078-7.406v1.156c-.367-.344-.758-.598-1.172-.766-.406-.164-.843-.25-1.312-.25-.918 0-1.62.282-2.11.844-.48.555-.718 1.36-.718 2.422 0 1.055.238 1.86.718 2.422.49.562 1.192.844 2.11.844.468 0 .906-.082 1.312-.25.414-.164.805-.422 1.172-.766v1.125c-.375.262-.777.46-1.203.594-.418.124-.867.186-1.344.186-1.21 0-2.163-.367-2.858-1.11C.972-1.703.625-2.718.625-4c0-1.29.348-2.305 1.047-3.047.695-.75 1.648-1.125 2.86-1.125.476 0 .93.07 1.36.203.424.126.82.314 1.186.564zm0 0"/></symbol><symbol overflow="visible" id="b"><path d="M1.03-8.36h1V0h-1zm0 0"/></symbol><symbol overflow="visible" id="c"><path d="M1.078-8.016h1.47l3.546 6.704v-6.704h1.062V0H5.688L2.124-6.703V0H1.078zm0 0"/></symbol><symbol overflow="visible" id="d"><path d="M5.89-7.75v1.047c-.417-.195-.808-.344-1.17-.438-.368-.094-.72-.14-1.064-.14-.586 0-1.04.116-1.36.343-.323.23-.483.554-.483.968 0 .357.1.626.312.814.22.18.625.324 1.22.437L4-4.593c.813.157 1.41.434 1.797.828.383.387.578.903.578 1.547 0 .783-.262 1.376-.78 1.783-.525.398-1.29.593-2.298.593-.375 0-.78-.047-1.22-.14C1.648-.066 1.208-.19.75-.36v-1.11c.445.25.88.44 1.297.564.426.125.844.187 1.25.187.625 0 1.1-.116 1.437-.358.332-.25.5-.598.5-1.047 0-.395-.12-.703-.36-.922-.24-.226-.636-.398-1.186-.515l-.657-.126c-.81-.156-1.4-.406-1.764-.75C.898-4.78.72-5.258.72-5.875c0-.707.25-1.266.75-1.672.5-.414 1.19-.625 2.077-.625.375 0 .754.04 1.14.11.395.074.797.18 1.204.312zm0 0"/></symbol><symbol overflow="visible" id="e"><path d="M4.328-7.28c-.78 0-1.406.296-1.875.89-.46.585-.687 1.382-.687 2.39 0 1.012.226 1.813.687 2.406.47.586 1.094.875 1.875.875.79 0 1.414-.288 1.875-.874.457-.593.688-1.394.688-2.406 0-1.008-.23-1.805-.687-2.39-.46-.594-1.086-.89-1.875-.89zm0-.892c1.125 0 2.024.383 2.703 1.14C7.708-6.28 8.048-5.27 8.048-4c0 1.262-.34 2.273-1.016 3.03C6.353-.22 5.454.157 4.33.157S2.3-.22 1.625-.97c-.668-.75-1-1.757-1-3.03 0-1.27.332-2.28 1-3.03.676-.76 1.578-1.142 2.703-1.142zm0 0"/></symbol></defs><g><path fill="#fff" d="M0 0h300v300H0z"/><path d="M165.89 64.277l-12.37 6.56" stroke-width="1.2" stroke="#0c0" stroke-miterlimit="10" fill="none"/><path d="M153.52 70.836l-12.372 6.56" stroke-width="1.2" stroke="#000" stroke-miterlimit="10" fill="none"/><path d="M160.89 57.777h11v13h-11zm0 0" fill="#fff"/><g fill="#0c0"><use xlink:href="#a" x="160.891" y="67.679"/><use xlink:href="#b" x="168.342" y="67.679"/></g><path d="M141.148 77.395l-12.578-6.157" stroke-width="1.2" stroke="#000" stroke-miterlimit="10" fill="none"/><path d="M128.57 71.238l-12.578-6.152" stroke-width="1.2" stroke="#00f" stroke-miterlimit="10" fill="none"/><path d="M137.22 105.12l3.928-27.725M131.086 101.422l3.144-22.18" stroke-width="1.2" stroke="#000" stroke-miterlimit="10" fill="none"/><path d="M115.992 65.086l-9.738 10.06" stroke-width="1.2" stroke="#00f" stroke-miterlimit="10" fill="none"/><path d="M106.254 75.145l-9.738 10.062" stroke-width="1.2" stroke="#000" stroke-miterlimit="10" fill="none"/><path d="M118.78 71.68l-7.792 8.05" stroke-width="1.2" stroke="#00f" stroke-miterlimit="10" fill="none"/><path d="M110.988 79.73l-7.79 8.047" stroke-width="1.2" stroke="#000" stroke-miterlimit="10" fill="none"/><path d="M111.992 58.586h8v13h-8zm0 0" fill="#fff"/><use xlink:href="#c" x="111.992" y="68.487" fill="#00f"/><path d="M96.516 85.207l6.558 12.37" stroke-width="1.2" stroke="#000" stroke-miterlimit="10" fill="none"/><path d="M103.074 97.578l6.56 12.37M109.633 109.95l13.793-2.415" stroke-width="1.2" stroke="#00f" stroke-miterlimit="10" fill="none"/><path d="M123.426 107.535l13.793-2.414" stroke-width="1.2" stroke="#000" stroke-miterlimit="10" fill="none"/><path d="M109.633 109.95l-6.153 12.577" stroke-width="1.2" stroke="#00f" stroke-miterlimit="10" fill="none"/><path d="M103.48 122.527l-6.156 12.578" stroke-width="1.2" stroke="#000" stroke-miterlimit="10" fill="none"/><path d="M105.633 103.45h8v13h-8zm0 0" fill="#fff"/><use xlink:href="#c" x="105.633" y="113.351" fill="#00f"/><path d="M137.22 105.12l20.116 19.478M157.336 124.598l-6.805 27.164M163.047 128.914l-5.445 21.734M184.266 116.91l-26.93 7.688M150.53 151.762l20.122 19.476M170.652 171.238l26.926-7.683M171.535 164.133l21.543-6.15M197.578 163.555l10.063 9.738" stroke-width="1.2" stroke="#000" stroke-miterlimit="10" fill="none"/><path d="M207.64 173.293l10.06 9.738" stroke-width="1.2" stroke="#00f" stroke-miterlimit="10" fill="none"/><path d="M197.578 163.555l6.81-27.164" stroke-width="1.2" stroke="#000" stroke-miterlimit="10" fill="none"/><path d="M217.7 183.03l-3.403 13.583" stroke-width="1.2" stroke="#00f" stroke-miterlimit="10" fill="none"/><path d="M214.297 196.613l-3.406 13.582" stroke-width="1.2" stroke="#000" stroke-miterlimit="10" fill="none"/><path d="M217.7 183.03l13.464-3.843" stroke-width="1.2" stroke="#00f" stroke-miterlimit="10" fill="none"/><path d="M231.164 179.188l13.465-3.844" stroke-width="1.2" stroke="#000" stroke-miterlimit="10" fill="none"/><path d="M213.7 176.53h8v13h-8zm0 0" fill="#fff"/><use xlink:href="#c" x="213.699" y="186.433" fill="#00f"/><path d="M210.89 210.195l20.122 19.477M244.63 175.344l20.12 19.48M204.387 136.39l-20.12-19.48M197.793 139.176l-16.098-15.582M97.324 135.105l-27.937 1.918M94.984 141.87l-22.35 1.536M112.957 158.34l-15.633-23.235M69.387 137.023L57.082 162.18M57.082 162.18l15.63 23.234M64.11 160.824l12.507 18.59M72.71 185.414l-6.15 12.578" stroke-width="1.2" stroke="#000" stroke-miterlimit="10" fill="none"/><path d="M66.56 197.992l-6.154 12.578" stroke-width="1.2" stroke="#cc0" stroke-miterlimit="10" fill="none"/><path d="M72.71 185.414l27.938-1.918" stroke-width="1.2" stroke="#000" stroke-miterlimit="10" fill="none"/><path d="M58.957 213.527l12.578 6.157" stroke-width="1.2" stroke="#cc0" stroke-miterlimit="10" fill="none"/><path d="M71.535 219.684l12.578 6.152" stroke-width="1.2" stroke="#f00" stroke-miterlimit="10" fill="none"/><path d="M61.852 207.61l12.578 6.152" stroke-width="1.2" stroke="#cc0" stroke-miterlimit="10" fill="none"/><path d="M74.43 213.762l12.578 6.156" stroke-width="1.2" stroke="#f00" stroke-miterlimit="10" fill="none"/><path d="M61.852 207.61l-12.58-6.153" stroke-width="1.2" stroke="#cc0" stroke-miterlimit="10" fill="none"/><path d="M49.273 201.457L36.7 195.305" stroke-width="1.2" stroke="#f00" stroke-miterlimit="10" fill="none"/><path d="M58.957 213.527l-12.578-6.152" stroke-width="1.2" stroke="#cc0" stroke-miterlimit="10" fill="none"/><path d="M46.38 207.375l-12.58-6.152" stroke-width="1.2" stroke="#f00" stroke-miterlimit="10" fill="none"/><path d="M60.406 210.57l-6.156 12.578" stroke-width="1.2" stroke="#cc0" stroke-miterlimit="10" fill="none"/><path d="M54.25 223.148l-6.152 12.575" stroke-width="1.2" stroke="#000" stroke-miterlimit="10" fill="none"/><path d="M57.406 204.07h7v13h-7zm0 0" fill="#fff"/><use xlink:href="#d" x="57.406" y="213.972" fill="#cc0"/><path d="M81.56 216.375h9v13h-9zm0 0" fill="#fff"/><use xlink:href="#e" x="81.559" y="226.276" fill="#f00"/><path d="M26.25 191.762h9v13h-9zm0 0" fill="#fff"/><use xlink:href="#e" x="26.25" y="201.663" fill="#f00"/><path d="M100.648 183.496l12.31-25.156M95.96 178.082l9.85-20.12" stroke-width="1.2" stroke="#000" stroke-miterlimit="10" fill="none"/></g></svg>