<svg xmlns="http://www.w3.org/2000/svg" xmlns:xlink="http://www.w3.org/1999/xlink" width="300pt" height="300pt" viewBox="0 0 300 300"><defs><symbol overflow="visible"><path d="M.64 2.297v-11.47h6.5v11.47zm.735-.72h5.047V-8.436H1.375zm0 0"/></symbol><symbol overflow="visible" id="a"><path d="M6.953-9.172v1.25c-.48-.226-.937-.398-1.375-.516-.43-.113-.844-.17-1.25-.17-.7 0-1.242.135-1.625.405-.375.273-.562.656-.562 1.156 0 .418.126.734.376.953.257.21.738.383 1.437.516l.78.156c.947.188 1.65.512 2.11.97.458.46.688 1.073.688 1.843 0 .92-.307 1.618-.92 2.094-.618.47-1.524.704-2.72.704-.45 0-.93-.055-1.437-.157C1.953-.07 1.43-.222.89-.42v-1.312c.52.293 1.032.51 1.532.656.5.148.988.22 1.47.22.737 0 1.303-.142 1.702-.423.394-.29.593-.704.593-1.236 0-.468-.148-.832-.437-1.093-.28-.257-.746-.456-1.39-.593l-.782-.156c-.96-.187-1.652-.484-2.078-.89-.43-.406-.64-.97-.64-1.688 0-.843.288-1.503.874-1.984.594-.488 1.41-.734 2.454-.734.437 0 .882.043 1.343.125.47.085.943.202 1.423.358zm0 0"/></symbol><symbol overflow="visible" id="b"><path d="M5.125-8.61c-.938 0-1.684.352-2.234 1.047-.542.688-.812 1.633-.812 2.83 0 1.198.27 2.147.813 2.842.55.687 1.297 1.03 2.235 1.03.926 0 1.66-.343 2.203-1.03.55-.696.828-1.645.828-2.844 0-1.196-.277-2.14-.828-2.829-.543-.695-1.277-1.046-2.203-1.046zm0-1.046c1.32 0 2.38.45 3.172 1.344.8.898 1.203 2.09 1.203 3.578 0 1.5-.402 2.7-1.203 3.593C7.504-.255 6.445.186 5.125.186c-1.336 0-2.402-.44-3.203-1.328C1.13-2.036.734-3.235.734-4.735c0-1.49.395-2.68 1.188-3.579.8-.894 1.867-1.343 3.203-1.343zm0 0"/></symbol><symbol overflow="visible" id="c"><path d="M1.28-9.484h1.282v3.89H7.22v-3.89H8.5V0H7.22v-4.516H2.562V0H1.28zm0 0"/></symbol></defs><g><path fill="#fff" d="M0 0h300v300H0z"/><path d="M257.066 159.148l3.844 16.797" stroke-width="1.2" stroke="#cc0" stroke-miterlimit="10" fill="none"/><path d="M260.91 175.945l3.84 16.793" stroke-width="1.2" stroke="#000" stroke-miterlimit="10" fill="none"/><path d="M257.066 159.148l-16.464-5.074" stroke-width="1.2" stroke="#cc0" stroke-miterlimit="10" fill="none"/><path d="M240.602 154.074l-16.465-5.07" stroke-width="1.2" stroke="#000" stroke-miterlimit="10" fill="none"/><path d="M253.066 151.148h9v16h-9zm0 0" fill="#fff"/><use xlink:href="#a" x="253.066" y="163.524" fill="#cc0"/><path d="M224.137 149.004l-25.254 23.45M216.094 145.406l-20.203 18.758M216.453 115.41l7.684 33.594M198.883 172.453l-32.93-10.144M165.953 162.31l-7.683-33.595M173.086 157.14l-6.145-26.87M158.27 128.715l25.25-23.45M158.27 128.715l-32.934-10.145M183.52 105.266l32.933 10.144M184.426 114.03l26.347 8.115M125.336 118.57l-27.563 20.684M117.715 114.156L95.665 130.7M114.188 85.965l11.148 32.605M97.773 139.254l-3.074 34.32M69.586 119.43l28.187 19.824M94.7 173.574l-31.263 14.5M94.984 182.38l-25.01 11.6M122.883 193.398L94.7 173.574M63.438 188.074L35.25 168.25M63.438 188.074l-3.075 34.32M35.25 168.25l3.074-34.324M38.324 133.926l31.262-14.496M69.586 119.43l5.07-16.47" stroke-width="1.2" stroke="#000" stroke-miterlimit="10" fill="none"/><path d="M74.656 102.96l5.074-16.464" stroke-width="1.2" stroke="#f00" stroke-miterlimit="10" fill="none"/><path d="M69.586 119.43l-12.98-11.332" stroke-width="1.2" stroke="#000" stroke-miterlimit="10" fill="none"/><path d="M56.605 108.098l-12.98-11.332M79.73 86.496l17.227-.266" stroke-width="1.2" stroke="#f00" stroke-miterlimit="10" fill="none"/><path d="M96.957 86.23l17.23-.265" stroke-width="1.2" stroke="#000" stroke-miterlimit="10" fill="none"/><path d="M74.73 78.496h11v16h-11zm0 0" fill="#fff"/><use xlink:href="#b" x="74.73" y="90.872" fill="#f00"/><path d="M117.5 88.3l9.914-14.093" stroke-width="1.2" stroke="#000" stroke-miterlimit="10" fill="none"/><path d="M127.414 74.207l9.91-14.094" stroke-width="1.2" stroke="#f00" stroke-miterlimit="10" fill="none"/><path d="M110.87 83.633l9.91-14.09" stroke-width="1.2" stroke="#000" stroke-miterlimit="10" fill="none"/><path d="M120.78 69.543l9.915-14.094" stroke-width="1.2" stroke="#f00" stroke-miterlimit="10" fill="none"/><path d="M129.008 49.78h11v16h-11zm0 0" fill="#fff"/><use xlink:href="#b" x="129.008" y="62.157" fill="#f00"/><path d="M22.625 88.766h21v16h-21zm0 0" fill="#fff"/><g fill="#f00"><use xlink:href="#c" x="22.625" y="101.142"/><use xlink:href="#b" x="32.647" y="101.142"/></g><path d="M60.363 222.395l28.184 19.824M67.844 217.746l22.55 15.86M88.547 242.22l31.262-14.497M119.81 227.723l3.073-34.325M112.043 223.566l2.457-27.457" stroke-width="1.2" stroke="#000" stroke-miterlimit="10" fill="none"/></g></svg>