<svg xmlns="http://www.w3.org/2000/svg" xmlns:xlink="http://www.w3.org/1999/xlink" width="300pt" height="300pt" viewBox="0 0 300 300"><defs><symbol overflow="visible"><path d="M.547 1.938V-7.75h5.5v9.688zm.625-.61h4.266v-8.47H1.171zm0 0"/></symbol><symbol overflow="visible" id="a"><path d="M5.89-7.75v1.047c-.417-.195-.808-.344-1.17-.438-.368-.094-.72-.14-1.064-.14-.586 0-1.04.116-1.36.343-.323.23-.483.554-.483.968 0 .357.1.626.312.814.22.18.625.324 1.22.437L4-4.593c.813.157 1.41.434 1.797.828.383.387.578.903.578 1.547 0 .783-.262 1.376-.78 1.783-.525.398-1.29.593-2.298.593-.375 0-.78-.047-1.22-.14C1.648-.066 1.208-.19.75-.36v-1.11c.445.25.88.44 1.297.564.426.125.844.187 1.25.187.625 0 1.1-.116 1.437-.358.332-.25.5-.598.5-1.047 0-.395-.12-.703-.36-.922-.24-.226-.636-.398-1.186-.515l-.657-.126c-.81-.156-1.4-.406-1.764-.75C.898-4.78.72-5.258.72-5.875c0-.707.25-1.266.75-1.672.5-.414 1.19-.625 2.077-.625.375 0 .754.04 1.14.11.395.074.797.18 1.204.312zm0 0"/></symbol><symbol overflow="visible" id="b"><path d="M4.328-7.28c-.78 0-1.406.296-1.875.89-.46.585-.687 1.382-.687 2.39 0 1.012.226 1.813.687 2.406.47.586 1.094.875 1.875.875.79 0 1.414-.288 1.875-.874.457-.593.688-1.394.688-2.406 0-1.008-.23-1.805-.687-2.39-.46-.594-1.086-.89-1.875-.89zm0-.892c1.125 0 2.024.383 2.703 1.14C7.708-6.28 8.048-5.27 8.048-4c0 1.262-.34 2.273-1.016 3.03C6.353-.22 5.454.157 4.33.157S2.3-.22 1.625-.97c-.668-.75-1-1.757-1-3.03 0-1.27.332-2.28 1-3.03.676-.76 1.578-1.142 2.703-1.142zm0 0"/></symbol><symbol overflow="visible" id="c"><path d="M1.078-8.016h1.47l3.546 6.704v-6.704h1.062V0H5.688L2.124-6.703V0H1.078zm0 0"/></symbol><symbol overflow="visible" id="d"><path d="M1.078-8.016h4.61v.907H2.171v2.36h3.172v.922H2.172V0H1.078zm0 0"/></symbol></defs><g><path fill="#fff" d="M0 0h300v300H0z"/><path d="M57.184 148.996l5.492 12.43" stroke-width="1.2" stroke="#cc0" stroke-miterlimit="10" fill="none"/><path d="M62.676 161.426l5.492 12.426" stroke-width="1.2" stroke="#f00" stroke-miterlimit="10" fill="none"/><path d="M63.035 146.41l5.488 12.43" stroke-width="1.2" stroke="#cc0" stroke-miterlimit="10" fill="none"/><path d="M68.523 158.84l5.493 12.43" stroke-width="1.2" stroke="#f00" stroke-miterlimit="10" fill="none"/><path d="M63.035 146.41l-5.492-12.43" stroke-width="1.2" stroke="#cc0" stroke-miterlimit="10" fill="none"/><path d="M57.543 133.98l-5.492-12.43" stroke-width="1.2" stroke="#f00" stroke-miterlimit="10" fill="none"/><path d="M57.184 148.996l-5.493-12.43" stroke-width="1.2" stroke="#cc0" stroke-miterlimit="10" fill="none"/><path d="M51.69 136.566l-5.49-12.43" stroke-width="1.2" stroke="#f00" stroke-miterlimit="10" fill="none"/><path d="M60.11 147.703l-12.43 5.492" stroke-width="1.2" stroke="#cc0" stroke-miterlimit="10" fill="none"/><path d="M47.68 153.195l-12.43 5.493" stroke-width="1.2" stroke="#000" stroke-miterlimit="10" fill="none"/><path d="M60.11 147.703l12.43-5.492" stroke-width="1.2" stroke="#cc0" stroke-miterlimit="10" fill="none"/><path d="M72.54 142.21l12.43-5.49" stroke-width="1.2" stroke="#000" stroke-miterlimit="10" fill="none"/><path d="M57.11 141.203h7v13h-7zm0 0" fill="#fff"/><use xlink:href="#a" x="57.109" y="151.104" fill="#cc0"/><path d="M67.094 166.063h9v13h-9zm0 0" fill="#fff"/><use xlink:href="#b" x="67.094" y="175.964" fill="#f00"/><path d="M40.125 116.344h9v13h-9zm0 0" fill="#fff"/><use xlink:href="#b" x="40.125" y="126.245" fill="#f00"/><path d="M84.97 136.72l2.913-27.02M91.617 134.703l2.332-21.617M106.91 152.754L84.97 136.72M87.883 109.7l24.86-10.985M112.742 98.715l21.942 16.035M111.164 105.48l17.555 12.83M134.684 114.75l12.43-5.492" stroke-width="1.2" stroke="#000" stroke-miterlimit="10" fill="none"/><path d="M147.113 109.258l12.43-5.492" stroke-width="1.2" stroke="#00f" stroke-miterlimit="10" fill="none"/><path d="M134.684 114.75l-2.914 27.02" stroke-width="1.2" stroke="#000" stroke-miterlimit="10" fill="none"/><path d="M159.543 103.766l2.863-13.286" stroke-width="1.2" stroke="#00f" stroke-miterlimit="10" fill="none"/><path d="M162.406 90.48l2.864-13.28M183.043 117.422l-11.75-6.828" stroke-width="1.2" stroke="#000" stroke-miterlimit="10" fill="none"/><path d="M171.293 110.594l-11.75-6.828" stroke-width="1.2" stroke="#00f" stroke-miterlimit="10" fill="none"/><path d="M155.543 97.266h8v13h-8zm0 0" fill="#fff"/><use xlink:href="#c" x="155.543" y="107.167" fill="#00f"/><path d="M165.27 77.2l13.52-1.384" stroke-width="1.2" stroke="#000" stroke-miterlimit="10" fill="none"/><path d="M178.79 75.816l13.515-1.382" stroke-width="1.2" stroke="#00f" stroke-miterlimit="10" fill="none"/><path d="M168.625 83.285l10.813-1.11" stroke-width="1.2" stroke="#000" stroke-miterlimit="10" fill="none"/><path d="M179.438 82.176l10.816-1.106M192.305 74.434l5.492 12.43" stroke-width="1.2" stroke="#00f" stroke-miterlimit="10" fill="none"/><path d="M197.797 86.863l5.492 12.43" stroke-width="1.2" stroke="#000" stroke-miterlimit="10" fill="none"/><path d="M188.305 67.934h8v13h-8zm0 0" fill="#fff"/><use xlink:href="#c" x="188.305" y="77.835" fill="#00f"/><path d="M203.29 99.293l26.565 5.727M203.29 99.293l-20.247 18.13M197 96.34l-16.2 14.504M229.855 105.02l8.33 25.867M237.508 134.016l26.57 5.722M238.855 127.762l26.567 5.726M183.043 117.422l2.762 27.035M185.805 144.457l-22.032 15.914M187.348 151.23l-17.625 12.73M210.602 155.582l-24.797-11.125M163.773 160.37l2.766 27.036M166.54 187.406l24.796 11.125M171.637 182.684l19.836 8.898M191.336 198.53l1.383 13.517" stroke-width="1.2" stroke="#000" stroke-miterlimit="10" fill="none"/><path d="M192.72 212.047l1.382 13.52" stroke-width="1.2" stroke="#3cc" stroke-miterlimit="10" fill="none"/><path d="M191.336 198.53l22.03-15.913" stroke-width="1.2" stroke="#000" stroke-miterlimit="10" fill="none"/><path d="M191.102 219.066h7v13h-7zm0 0" fill="#fff"/><use xlink:href="#d" x="191.102" y="228.968" fill="#3cc"/><path d="M213.367 182.617l-2.765-27.035M206.73 180.563l-2.21-21.63M131.77 141.77l-24.86 10.984M126.7 137.02l-19.888 8.79" stroke-width="1.2" stroke="#000" stroke-miterlimit="10" fill="none"/></g></svg>