<svg xmlns="http://www.w3.org/2000/svg" xmlns:xlink="http://www.w3.org/1999/xlink" width="300pt" height="300pt" viewBox="0 0 300 300"><defs><symbol overflow="visible"><path d="M.64 2.297v-11.47h6.5v11.47zm.735-.72h5.047V-8.436H1.375zm0 0"/></symbol><symbol overflow="visible" id="a"><path d="M6.953-9.172v1.25c-.48-.226-.937-.398-1.375-.516-.43-.113-.844-.17-1.25-.17-.7 0-1.242.135-1.625.405-.375.273-.562.656-.562 1.156 0 .418.126.734.376.953.257.21.738.383 1.437.516l.78.156c.947.188 1.65.512 2.11.97.458.46.688 1.073.688 1.843 0 .92-.307 1.618-.92 2.094-.618.47-1.524.704-2.72.704-.45 0-.93-.055-1.437-.157C1.953-.07 1.43-.222.89-.42v-1.312c.52.293 1.032.51 1.532.656.5.148.988.22 1.47.22.737 0 1.303-.142 1.702-.423.394-.29.593-.704.593-1.236 0-.468-.148-.832-.437-1.093-.28-.257-.746-.456-1.39-.593l-.782-.156c-.96-.187-1.652-.484-2.078-.89-.43-.406-.64-.97-.64-1.688 0-.843.288-1.503.874-1.984.594-.488 1.41-.734 2.454-.734.437 0 .882.043 1.343.125.47.085.943.202 1.423.358zm0 0"/></symbol><symbol overflow="visible" id="b"><path d="M5.125-8.61c-.938 0-1.684.352-2.234 1.047-.542.688-.812 1.633-.812 2.83 0 1.198.27 2.147.813 2.842.55.687 1.297 1.03 2.235 1.03.926 0 1.66-.343 2.203-1.03.55-.696.828-1.645.828-2.844 0-1.196-.277-2.14-.828-2.829-.543-.695-1.277-1.046-2.203-1.046zm0-1.046c1.32 0 2.38.45 3.172 1.344.8.898 1.203 2.09 1.203 3.578 0 1.5-.402 2.7-1.203 3.593C7.504-.255 6.445.186 5.125.186c-1.336 0-2.402-.44-3.203-1.328C1.13-2.036.734-3.235.734-4.735c0-1.49.395-2.68 1.188-3.579.8-.894 1.867-1.343 3.203-1.343zm0 0"/></symbol></defs><g><path fill="#fff" d="M0 0h300v300H0z"/><path d="M237.145 120.207l13.8 7.965" stroke-width="1.2" stroke="#cc0" stroke-miterlimit="10" fill="none"/><path d="M250.945 128.172l13.805 7.97" stroke-width="1.2" stroke="#000" stroke-miterlimit="10" fill="none"/><path d="M237.145 120.207l-13.805 7.97" stroke-width="1.2" stroke="#cc0" stroke-miterlimit="10" fill="none"/><path d="M223.34 128.176l-13.8 7.972" stroke-width="1.2" stroke="#000" stroke-miterlimit="10" fill="none"/><path d="M233.145 112.207h9v16h-9zm0 0" fill="#fff"/><use xlink:href="#a" x="233.145" y="124.583" fill="#cc0"/><path d="M209.54 136.148l.003 31.875M202.04 139.336l.003 25.5M181.934 120.215l27.605 15.933M209.543 168.023l-27.602 15.942M181.94 183.965l-27.604-15.934M182.93 175.875l-22.086-12.746M154.336 168.03l-.008-31.874M154.336 168.03l-27.606 15.943M154.328 136.156l27.606-15.94M160.84 141.055l22.082-12.754M126.73 183.973l-29.12-12.96M120.77 189.527L97.473 179.16M123.402 215.672l3.328-31.7M97.61 171.012l-21.325 23.69M87.754 140.695l9.855 30.317M76.285 194.703l7.97 13.8" stroke-width="1.2" stroke="#000" stroke-miterlimit="10" fill="none"/><path d="M84.254 208.504l7.973 13.8" stroke-width="1.2" stroke="#f00" stroke-miterlimit="10" fill="none"/><path d="M76.285 194.703l-31.18-6.625" stroke-width="1.2" stroke="#000" stroke-miterlimit="10" fill="none"/><path d="M92.227 222.305l15.59-3.317" stroke-width="1.2" stroke="#f00" stroke-miterlimit="10" fill="none"/><path d="M107.816 218.988l15.586-3.316" stroke-width="1.2" stroke="#000" stroke-miterlimit="10" fill="none"/><path d="M87.227 214.305h11v16h-11zm0 0" fill="#fff"/><use xlink:href="#b" x="87.227" y="226.681" fill="#f00"/><path d="M120.895 218.46l11.843 10.665" stroke-width="1.2" stroke="#000" stroke-miterlimit="10" fill="none"/><path d="M132.738 229.125l11.848 10.66" stroke-width="1.2" stroke="#f00" stroke-miterlimit="10" fill="none"/><path d="M125.914 212.887l11.844 10.664" stroke-width="1.2" stroke="#000" stroke-miterlimit="10" fill="none"/><path d="M137.758 223.55l11.844 10.66" stroke-width="1.2" stroke="#f00" stroke-miterlimit="10" fill="none"/><path d="M142.094 229h11v16h-11zm0 0" fill="#fff"/><use xlink:href="#b" x="142.094" y="241.376" fill="#f00"/><path d="M45.105 188.078l-9.855-30.312M35.25 157.766l21.324-23.692M56.574 134.074l31.18 6.62M61.254 127.398l24.94 5.3M46.723 103.758l9.85 30.316M87.754 140.695l21.328-23.687M109.082 117.008L99.227 86.69M100.965 116.293l-7.887-24.25M99.227 86.69l-31.18-6.62M99.227 86.69L120.555 63M68.047 80.07l-21.324 23.688M71.488 87.457L54.43 106.41" stroke-width="1.2" stroke="#000" stroke-miterlimit="10" fill="none"/></g></svg>