<svg xmlns="http://www.w3.org/2000/svg" xmlns:xlink="http://www.w3.org/1999/xlink" width="300pt" height="300pt" viewBox="0 0 300 300"><defs><symbol overflow="visible"><path d="M.594 2.125V-8.47h6V2.126zm.672-.672h4.671V-7.78h-4.67zm0 0"/></symbol><symbol overflow="visible" id="a"><path d="M6.422-8.47v1.158c-.45-.208-.875-.364-1.28-.47-.4-.113-.78-.17-1.142-.17-.648 0-1.148.124-1.5.374-.344.25-.516.61-.516 1.078 0 .387.114.68.344.875.227.2.672.355 1.328.47L4.36-5c.882.168 1.535.465 1.952.89.426.42.64.98.64 1.688 0 .856-.288 1.5-.858 1.938-.563.437-1.4.656-2.5.656-.406 0-.844-.047-1.313-.14C1.814-.064 1.33-.204.83-.392v-1.22c.477.274.945.477 1.406.61.47.137.922.203 1.36.203.676 0 1.195-.13 1.562-.39.375-.27.563-.65.563-1.14 0-.427-.138-.76-.407-1-.262-.25-.696-.43-1.297-.548l-.72-.14c-.886-.176-1.526-.454-1.92-.83-.388-.374-.58-.893-.58-1.56 0-.782.27-1.392.813-1.83.538-.445 1.288-.67 2.25-.67.413 0 .83.038 1.25.108.425.074.863.184 1.312.328zm0 0"/></symbol><symbol overflow="visible" id="b"><path d="M4.734-7.953c-.867 0-1.554.324-2.062.97-.5.635-.75 1.51-.75 2.624 0 1.094.25 1.965.75 2.61.508.637 1.195.953 2.062.953.852 0 1.532-.316 2.032-.953.507-.645.765-1.516.765-2.61 0-1.113-.257-1.988-.764-2.624-.5-.645-1.18-.97-2.032-.97zm0-.953c1.22 0 2.192.414 2.922 1.234.74.824 1.11 1.93 1.11 3.313 0 1.376-.37 2.477-1.11 3.298C6.926-.24 5.953.17 4.734.17c-1.23 0-2.214-.41-2.953-1.234C1.04-1.882.673-2.984.673-4.36c0-1.382.367-2.488 1.11-3.312.738-.82 1.722-1.234 2.952-1.234zm0 0"/></symbol></defs><g><path fill="#fff" d="M0 0h300v300H0z"/><path d="M239.184 134.78l-5.71-14.487" stroke-width="1.2" stroke="#cc0" stroke-miterlimit="10" fill="none"/><path d="M233.473 120.293l-5.71-14.488" stroke-width="1.2" stroke="#f00" stroke-miterlimit="10" fill="none"/><path d="M232.363 137.47l-5.707-14.49" stroke-width="1.2" stroke="#cc0" stroke-miterlimit="10" fill="none"/><path d="M226.656 122.98l-5.71-14.488" stroke-width="1.2" stroke="#f00" stroke-miterlimit="10" fill="none"/><path d="M232.363 137.47l5.71 14.487" stroke-width="1.2" stroke="#cc0" stroke-miterlimit="10" fill="none"/><path d="M238.074 151.957l5.71 14.488" stroke-width="1.2" stroke="#f00" stroke-miterlimit="10" fill="none"/><path d="M239.184 134.78l5.71 14.49" stroke-width="1.2" stroke="#cc0" stroke-miterlimit="10" fill="none"/><path d="M244.895 149.27l5.707 14.488" stroke-width="1.2" stroke="#f00" stroke-miterlimit="10" fill="none"/><path d="M235.773 136.125l14.49-5.71" stroke-width="1.2" stroke="#cc0" stroke-miterlimit="10" fill="none"/><path d="M250.262 130.414l14.488-5.707" stroke-width="1.2" stroke="#000" stroke-miterlimit="10" fill="none"/><path d="M235.773 136.125l-14.488 5.71" stroke-width="1.2" stroke="#cc0" stroke-miterlimit="10" fill="none"/><path d="M221.285 141.836l-14.488 5.71" stroke-width="1.2" stroke="#000" stroke-miterlimit="10" fill="none"/><path d="M231.773 129.125h8v14h-8zm0 0" fill="#fff"/><use xlink:href="#a" x="231.773" y="140.264" fill="#cc0"/><path d="M214.355 100.148h10v14h-10zm0 0" fill="#fff"/><use xlink:href="#b" x="214.355" y="111.287" fill="#f00"/><path d="M242.195 158.102h10v14h-10zm0 0" fill="#fff"/><use xlink:href="#b" x="242.195" y="169.24" fill="#f00"/><path d="M206.797 147.547l-4.598 30.8M199.09 149.543l-3.68 24.644M182.422 128.16l24.375 19.387M202.2 178.348l-28.977 11.422M173.223 189.77l-24.375-19.383M175.348 182.094l-19.504-15.508M148.848 170.387l4.597-30.805M148.848 170.387l-28.977 11.418M153.445 139.582l28.977-11.422M159.027 145.258l23.184-9.137M119.87 181.805L93.6 165.075M113.31 186.313L92.29 172.93M112.078 211.96l7.793-30.155M93.598 165.074L69.57 184.89M88.453 134.36l5.145 30.714M69.57 184.89l5.71 14.49" stroke-width="1.2" stroke="#000" stroke-miterlimit="10" fill="none"/><path d="M75.28 199.38l5.712 14.487" stroke-width="1.2" stroke="#f00" stroke-miterlimit="10" fill="none"/><path d="M69.57 184.89L40.395 173.99" stroke-width="1.2" stroke="#000" stroke-miterlimit="10" fill="none"/><path d="M80.992 213.867l15.543-.953" stroke-width="1.2" stroke="#f00" stroke-miterlimit="10" fill="none"/><path d="M96.535 212.914l15.543-.953" stroke-width="1.2" stroke="#000" stroke-miterlimit="10" fill="none"/><path d="M75.992 206.867h10v14h-10zm0 0" fill="#fff"/><use xlink:href="#b" x="75.992" y="218.006" fill="#f00"/><path d="M109.25 214.293l9.906 12.012" stroke-width="1.2" stroke="#000" stroke-miterlimit="10" fill="none"/><path d="M119.156 226.305l9.91 12.015" stroke-width="1.2" stroke="#f00" stroke-miterlimit="10" fill="none"/><path d="M114.906 209.63l9.906 12.015" stroke-width="1.2" stroke="#000" stroke-miterlimit="10" fill="none"/><path d="M124.813 221.645l9.906 12.01" stroke-width="1.2" stroke="#f00" stroke-miterlimit="10" fill="none"/><path d="M126.895 228.988h10v14h-10zm0 0" fill="#fff"/><use xlink:href="#b" x="126.895" y="240.127" fill="#f00"/><path d="M40.395 173.988l-5.145-30.715M35.25 143.273l24.027-19.816M59.277 123.457l29.176 10.902M64.762 117.684l23.34 8.718M54.133 92.738l5.144 30.72M88.453 134.36l24.027-19.817M112.48 114.543l-5.144-30.715M104.742 112.684l-4.117-24.575M107.336 83.828L78.16 72.926M107.336 83.828l24.03-19.816M78.16 72.926L54.133 92.738M80.422 80.56L61.2 96.41" stroke-width="1.2" stroke="#000" stroke-miterlimit="10" fill="none"/></g></svg>