<svg xmlns="http://www.w3.org/2000/svg" xmlns:xlink="http://www.w3.org/1999/xlink" width="300pt" height="300pt" viewBox="0 0 300 300"><defs><symbol overflow="visible"><path d="M.64 2.297v-11.47h6.5v11.47zm.735-.72h5.047V-8.436H1.375zm0 0"/></symbol><symbol overflow="visible" id="a"><path d="M8.375-8.75v1.36c-.438-.407-.902-.708-1.39-.907-.48-.195-.997-.297-1.548-.297-1.085 0-1.917.336-2.5 1-.574.657-.86 1.61-.86 2.86 0 1.25.286 2.21.86 2.875.583.657 1.415.985 2.5.985.55 0 1.067-.098 1.547-.297.49-.195.954-.492 1.39-.89v1.328c-.448.312-.92.546-1.42.703-.5.143-1.032.217-1.595.217-1.438 0-2.57-.437-3.39-1.312C1.144-2.008.733-3.21.733-4.735c0-1.52.41-2.718 1.235-3.593.82-.883 1.952-1.328 3.39-1.328.562 0 1.093.078 1.593.234.508.15.984.37 1.422.672zm0 0"/></symbol><symbol overflow="visible" id="b"><path d="M1.22-9.875h1.17V0H1.22zm0 0"/></symbol><symbol overflow="visible" id="c"><path d="M1.28-9.484H3l4.203 7.937v-7.937h1.25V0H6.72L2.515-7.922V0H1.28zm0 0"/></symbol><symbol overflow="visible" id="d"><path d="M5.125-8.61c-.938 0-1.684.352-2.234 1.047-.542.688-.812 1.633-.812 2.83 0 1.198.27 2.147.813 2.842.55.687 1.297 1.03 2.235 1.03.926 0 1.66-.343 2.203-1.03.55-.696.828-1.645.828-2.844 0-1.196-.277-2.14-.828-2.829-.543-.695-1.277-1.046-2.203-1.046zm0-1.046c1.32 0 2.38.45 3.172 1.344.8.898 1.203 2.09 1.203 3.578 0 1.5-.402 2.7-1.203 3.593C7.504-.255 6.445.186 5.125.186c-1.336 0-2.402-.44-3.203-1.328C1.13-2.036.734-3.235.734-4.735c0-1.49.395-2.68 1.188-3.579.8-.894 1.867-1.343 3.203-1.343zm0 0"/></symbol><symbol overflow="visible" id="e"><path d="M1.28-9.484h5.44v1.093H2.562v2.78h3.75v1.08h-3.75V0H1.28zm0 0"/></symbol><symbol overflow="visible" id="f"><path d="M6.953-9.172v1.25c-.48-.226-.937-.398-1.375-.516-.43-.113-.844-.17-1.25-.17-.7 0-1.242.135-1.625.405-.375.273-.562.656-.562 1.156 0 .418.126.734.376.953.257.21.738.383 1.437.516l.78.156c.947.188 1.65.512 2.11.97.458.46.688 1.073.688 1.843 0 .92-.307 1.618-.92 2.094-.618.47-1.524.704-2.72.704-.45 0-.93-.055-1.437-.157C1.953-.07 1.43-.222.89-.42v-1.312c.52.293 1.032.51 1.532.656.5.148.988.22 1.47.22.737 0 1.303-.142 1.702-.423.394-.29.593-.704.593-1.236 0-.468-.148-.832-.437-1.093-.28-.257-.746-.456-1.39-.593l-.782-.156c-.96-.187-1.652-.484-2.078-.89-.43-.406-.64-.97-.64-1.688 0-.843.288-1.503.874-1.984.594-.488 1.41-.734 2.454-.734.437 0 .882.043 1.343.125.47.085.943.202 1.423.358zm0 0"/></symbol></defs><g><path fill="#fff" d="M0 0h300v300H0z"/><path d="M41.934 216.773l15.855 2.04" stroke-width="1.2" stroke="#0c0" stroke-miterlimit="10" fill="none"/><path d="M57.79 218.813l15.855 2.042" stroke-width="1.2" stroke="#000" stroke-miterlimit="10" fill="none"/><path d="M27.934 208.773h14v16h-14zm0 0" fill="#fff"/><g fill="#0c0"><use xlink:href="#a" x="27.934" y="221.149"/><use xlink:href="#b" x="37.24" y="221.149"/></g><path d="M73.645 220.855l7.668 14.028" stroke-width="1.2" stroke="#000" stroke-miterlimit="10" fill="none"/><path d="M81.313 234.883l7.667 14.027" stroke-width="1.2" stroke="#00f" stroke-miterlimit="10" fill="none"/><path d="M95.586 197.602l-21.94 23.253M98.863 205.09l-17.554 18.6" stroke-width="1.2" stroke="#000" stroke-miterlimit="10" fill="none"/><path d="M88.98 248.91l15.707-2.957" stroke-width="1.2" stroke="#00f" stroke-miterlimit="10" fill="none"/><path d="M104.688 245.953l15.71-2.96" stroke-width="1.2" stroke="#000" stroke-miterlimit="10" fill="none"/><path d="M90.73 240.926l12.567-2.367" stroke-width="1.2" stroke="#00f" stroke-miterlimit="10" fill="none"/><path d="M103.297 238.56l12.566-2.37" stroke-width="1.2" stroke="#000" stroke-miterlimit="10" fill="none"/><path d="M83.98 240.91h10v16h-10zm0 0" fill="#fff"/><use xlink:href="#c" x="83.98" y="253.286" fill="#00f"/><path d="M120.398 242.992l2.043-15.855" stroke-width="1.2" stroke="#000" stroke-miterlimit="10" fill="none"/><path d="M122.44 227.137l2.04-15.852M124.48 211.285l-14.445-6.844" stroke-width="1.2" stroke="#00f" stroke-miterlimit="10" fill="none"/><path d="M110.035 204.44l-14.45-6.838" stroke-width="1.2" stroke="#000" stroke-miterlimit="10" fill="none"/><path d="M124.48 211.285l14.028-7.668" stroke-width="1.2" stroke="#00f" stroke-miterlimit="10" fill="none"/><path d="M138.508 203.617l14.027-7.668" stroke-width="1.2" stroke="#000" stroke-miterlimit="10" fill="none"/><path d="M119.48 203.285h10v16h-10zm0 0" fill="#fff"/><use xlink:href="#c" x="119.48" y="215.661" fill="#00f"/><path d="M95.586 197.602l-5.914-31.418M89.672 166.184l24.25-20.836M87.195 158.39l19.4-16.663M59.504 155.594l30.168 10.59M113.922 145.348l-5.914-31.418M108.008 113.93L77.84 103.344M102.5 119.97l-24.137-8.47M77.84 103.344l-2.957-15.71" stroke-width="1.2" stroke="#000" stroke-miterlimit="10" fill="none"/><path d="M74.883 87.633l-2.957-15.71" stroke-width="1.2" stroke="#f00" stroke-miterlimit="10" fill="none"/><path d="M77.84 103.344l-24.254 20.832" stroke-width="1.2" stroke="#000" stroke-miterlimit="10" fill="none"/><path d="M71.926 71.922L84.05 61.508" stroke-width="1.2" stroke="#f00" stroke-miterlimit="10" fill="none"/><path d="M84.05 61.508L96.177 51.09" stroke-width="1.2" stroke="#000" stroke-miterlimit="10" fill="none"/><path d="M66.926 63.922h11v16h-11zm0 0" fill="#fff"/><use xlink:href="#d" x="66.926" y="76.298" fill="#f00"/><path d="M53.586 124.176l5.918 31.418M61.57 125.926l4.735 25.136M59.504 155.594l-12.13 10.418" stroke-width="1.2" stroke="#000" stroke-miterlimit="10" fill="none"/><path d="M47.375 166.012L35.25 176.43" stroke-width="1.2" stroke="#3cc" stroke-miterlimit="10" fill="none"/><path d="M27.25 168.43h8v16h-8zm0 0" fill="#fff"/><use xlink:href="#e" x="27.25" y="180.806" fill="#3cc"/><path d="M152.535 195.95l27.31 16.628M159.18 191.188l21.843 13.3M153.28 163.984l-.745 31.965M179.844 212.578l28.05-15.336M207.895 197.242l.746-31.965M200.45 193.87l.597-25.57M208.64 165.277l14.028-7.668" stroke-width="1.2" stroke="#000" stroke-miterlimit="10" fill="none"/><path d="M222.668 157.61l14.027-7.665" stroke-width="1.2" stroke="#cc0" stroke-miterlimit="10" fill="none"/><path d="M208.64 165.277l-27.304-16.625" stroke-width="1.2" stroke="#000" stroke-miterlimit="10" fill="none"/><path d="M239.996 148.14l-7.668-14.027" stroke-width="1.2" stroke="#cc0" stroke-miterlimit="10" fill="none"/><path d="M232.328 134.113l-7.668-14.027" stroke-width="1.2" stroke="#f00" stroke-miterlimit="10" fill="none"/><path d="M233.395 151.746l-7.668-14.023" stroke-width="1.2" stroke="#cc0" stroke-miterlimit="10" fill="none"/><path d="M225.727 137.723l-7.665-14.028" stroke-width="1.2" stroke="#f00" stroke-miterlimit="10" fill="none"/><path d="M233.395 151.746l7.667 14.027" stroke-width="1.2" stroke="#cc0" stroke-miterlimit="10" fill="none"/><path d="M241.063 165.773l7.667 14.028" stroke-width="1.2" stroke="#f00" stroke-miterlimit="10" fill="none"/><path d="M239.996 148.14l7.668 14.028" stroke-width="1.2" stroke="#cc0" stroke-miterlimit="10" fill="none"/><path d="M247.664 162.168l7.668 14.027" stroke-width="1.2" stroke="#f00" stroke-miterlimit="10" fill="none"/><path d="M236.695 149.945l14.028-7.668" stroke-width="1.2" stroke="#cc0" stroke-miterlimit="10" fill="none"/><path d="M250.723 142.277l14.027-7.668" stroke-width="1.2" stroke="#000" stroke-miterlimit="10" fill="none"/><path d="M232.695 141.945h9v16h-9zm0 0" fill="#fff"/><use xlink:href="#f" x="232.695" y="154.321" fill="#cc0"/><path d="M210.36 113.89h11v16h-11zm0 0" fill="#fff"/><use xlink:href="#d" x="210.359" y="126.267" fill="#f00"/><path d="M247.03 169.996h11v16h-11zm0 0" fill="#fff"/><use xlink:href="#d" x="247.031" y="182.372" fill="#f00"/><path d="M181.336 148.652l-28.055 15.332M182.137 156.785l-22.442 12.27" stroke-width="1.2" stroke="#000" stroke-miterlimit="10" fill="none"/></g></svg>