<svg xmlns="http://www.w3.org/2000/svg" xmlns:xlink="http://www.w3.org/1999/xlink" width="300pt" height="300pt" viewBox="0 0 300 300"><defs><symbol overflow="visible"><path d="M.547 1.938V-7.75h5.5v9.688zm.625-.61h4.266v-8.47H1.171zm0 0"/></symbol><symbol overflow="visible" id="a"><path d="M7.078-7.406v1.156c-.367-.344-.758-.598-1.172-.766-.406-.164-.843-.25-1.312-.25-.918 0-1.62.282-2.11.844-.48.555-.718 1.36-.718 2.422 0 1.055.238 1.86.718 2.422.49.562 1.192.844 2.11.844.468 0 .906-.082 1.312-.25.414-.164.805-.422 1.172-.766v1.125c-.375.262-.777.46-1.203.594-.418.124-.867.186-1.344.186-1.21 0-2.163-.367-2.858-1.11C.972-1.703.625-2.718.625-4c0-1.29.348-2.305 1.047-3.047.695-.75 1.648-1.125 2.86-1.125.476 0 .93.07 1.36.203.424.126.82.314 1.186.564zm0 0"/></symbol><symbol overflow="visible" id="b"><path d="M1.03-8.36h1V0h-1zm0 0"/></symbol><symbol overflow="visible" id="c"><path d="M1.078-8.016h1.47l3.546 6.704v-6.704h1.062V0H5.688L2.124-6.703V0H1.078zm0 0"/></symbol><symbol overflow="visible" id="d"><path d="M1.078-8.016h4.61v.907H2.171v2.36h3.172v.922H2.172V0H1.078zm0 0"/></symbol><symbol overflow="visible" id="e"><path d="M5.89-7.75v1.047c-.417-.195-.808-.344-1.17-.438-.368-.094-.72-.14-1.064-.14-.586 0-1.04.116-1.36.343-.323.23-.483.554-.483.968 0 .357.1.626.312.814.22.18.625.324 1.22.437L4-4.593c.813.157 1.41.434 1.797.828.383.387.578.903.578 1.547 0 .783-.262 1.376-.78 1.783-.525.398-1.29.593-2.298.593-.375 0-.78-.047-1.22-.14C1.648-.066 1.208-.19.75-.36v-1.11c.445.25.88.44 1.297.564.426.125.844.187 1.25.187.625 0 1.1-.116 1.437-.358.332-.25.5-.598.5-1.047 0-.395-.12-.703-.36-.922-.24-.226-.636-.398-1.186-.515l-.657-.126c-.81-.156-1.4-.406-1.764-.75C.898-4.78.72-5.258.72-5.875c0-.707.25-1.266.75-1.672.5-.414 1.19-.625 2.077-.625.375 0 .754.04 1.14.11.395.074.797.18 1.204.312zm0 0"/></symbol><symbol overflow="visible" id="f"><path d="M4.328-7.28c-.78 0-1.406.296-1.875.89-.46.585-.687 1.382-.687 2.39 0 1.012.226 1.813.687 2.406.47.586 1.094.875 1.875.875.79 0 1.414-.288 1.875-.874.457-.593.688-1.394.688-2.406 0-1.008-.23-1.805-.687-2.39-.46-.594-1.086-.89-1.875-.89zm0-.892c1.125 0 2.024.383 2.703 1.14C7.708-6.28 8.048-5.27 8.048-4c0 1.262-.34 2.273-1.016 3.03C6.353-.22 5.454.157 4.33.157S2.3-.22 1.625-.97c-.668-.75-1-1.757-1-3.03 0-1.27.332-2.28 1-3.03.676-.76 1.578-1.142 2.703-1.142zm0 0"/></symbol></defs><g><path fill="#fff" d="M0 0h300v300H0z"/><path d="M61.715 158.047l10.844-8.762" stroke-width="1.2" stroke="#0c0" stroke-miterlimit="10" fill="none"/><path d="M72.56 149.285l10.842-8.758" stroke-width="1.2" stroke="#000" stroke-miterlimit="10" fill="none"/><path d="M50.715 151.547h11v13h-11zm0 0" fill="#fff"/><g fill="#0c0"><use xlink:href="#a" x="50.715" y="161.448"/><use xlink:href="#b" x="58.166" y="161.448"/></g><path d="M83.402 140.527l26.922 7.246M87.8 134.918l21.536 5.797M81.977 112.684l1.425 27.843M110.324 147.773l7.606-11.68" stroke-width="1.2" stroke="#000" stroke-miterlimit="10" fill="none"/><path d="M117.93 136.094l7.605-11.684" stroke-width="1.2" stroke="#00f" stroke-miterlimit="10" fill="none"/><path d="M110.324 147.773l9.96 26.04" stroke-width="1.2" stroke="#000" stroke-miterlimit="10" fill="none"/><path d="M125.535 124.41l-17.52-21.687M125.535 124.41l13.922-.715" stroke-width="1.2" stroke="#00f" stroke-miterlimit="10" fill="none"/><path d="M139.457 123.695l13.922-.71" stroke-width="1.2" stroke="#000" stroke-miterlimit="10" fill="none"/><path d="M121.535 117.91h8v13h-8zm0 0" fill="#fff"/><use xlink:href="#c" x="121.535" y="127.812" fill="#00f"/><path d="M108.016 102.723l-13.02 4.98" stroke-width="1.2" stroke="#00f" stroke-miterlimit="10" fill="none"/><path d="M94.996 107.703l-13.02 4.98" stroke-width="1.2" stroke="#000" stroke-miterlimit="10" fill="none"/><path d="M107.758 109.848l-10.418 3.984" stroke-width="1.2" stroke="#00f" stroke-miterlimit="10" fill="none"/><path d="M97.34 113.832l-10.414 3.98" stroke-width="1.2" stroke="#000" stroke-miterlimit="10" fill="none"/><path d="M104.016 96.223h8v13h-8zm0 0" fill="#fff"/><use xlink:href="#c" x="104.016" y="106.124" fill="#00f"/><path d="M81.977 112.684l-23.364-15.21M58.613 97.473l-11.68-7.606" stroke-width="1.2" stroke="#000" stroke-miterlimit="10" fill="none"/><path d="M46.934 89.867l-11.684-7.61" stroke-width="1.2" stroke="#3cc" stroke-miterlimit="10" fill="none"/><path d="M58.613 97.473L66.22 85.79" stroke-width="1.2" stroke="#000" stroke-miterlimit="10" fill="none"/><path d="M66.22 85.79l7.604-11.68" stroke-width="1.2" stroke="#3cc" stroke-miterlimit="10" fill="none"/><path d="M58.613 97.473l-7.605 11.68" stroke-width="1.2" stroke="#000" stroke-miterlimit="10" fill="none"/><path d="M51.008 109.152l-7.606 11.684" stroke-width="1.2" stroke="#3cc" stroke-miterlimit="10" fill="none"/><path d="M28.25 75.758h7v13h-7zm0 0" fill="#fff"/><use xlink:href="#d" x="28.25" y="85.659" fill="#3cc"/><path d="M70.824 67.61h7v13h-7zm0 0" fill="#fff"/><use xlink:href="#d" x="70.824" y="77.511" fill="#3cc"/><path d="M36.402 114.336h7v13h-7zm0 0" fill="#fff"/><use xlink:href="#d" x="36.402" y="124.237" fill="#3cc"/><path d="M153.38 122.984l7.577 11.7" stroke-width="1.2" stroke="#000" stroke-miterlimit="10" fill="none"/><path d="M160.957 134.684l7.578 11.7" stroke-width="1.2" stroke="#00f" stroke-miterlimit="10" fill="none"/><path d="M160.398 121.758l6.063 9.36" stroke-width="1.2" stroke="#000" stroke-miterlimit="10" fill="none"/><path d="M166.46 131.117l6.063 9.36" stroke-width="1.2" stroke="#00f" stroke-miterlimit="10" fill="none"/><path d="M166.066 98.16l-12.687 24.824" stroke-width="1.2" stroke="#000" stroke-miterlimit="10" fill="none"/><path d="M168.535 146.383l13.922-.71" stroke-width="1.2" stroke="#00f" stroke-miterlimit="10" fill="none"/><path d="M182.457 145.672l13.922-.715" stroke-width="1.2" stroke="#000" stroke-miterlimit="10" fill="none"/><path d="M164.535 139.883h8v13h-8zm0 0" fill="#fff"/><use xlink:href="#c" x="164.535" y="149.784" fill="#00f"/><path d="M196.38 144.957l12.683-24.824M191.805 139.488l10.148-19.86M209.063 120.133l13.92-.715" stroke-width="1.2" stroke="#000" stroke-miterlimit="10" fill="none"/><path d="M222.984 119.418l13.922-.71" stroke-width="1.2" stroke="#cc0" stroke-miterlimit="10" fill="none"/><path d="M209.063 120.133l-15.157-23.4" stroke-width="1.2" stroke="#000" stroke-miterlimit="10" fill="none"/><path d="M240.184 118.54l-.715-13.923" stroke-width="1.2" stroke="#cc0" stroke-miterlimit="10" fill="none"/><path d="M239.47 104.617l-.712-13.922" stroke-width="1.2" stroke="#f00" stroke-miterlimit="10" fill="none"/><path d="M233.633 118.875l-.715-13.922" stroke-width="1.2" stroke="#cc0" stroke-miterlimit="10" fill="none"/><path d="M232.918 104.953l-.71-13.922" stroke-width="1.2" stroke="#f00" stroke-miterlimit="10" fill="none"/><path d="M233.633 118.875l.71 13.922" stroke-width="1.2" stroke="#cc0" stroke-miterlimit="10" fill="none"/><path d="M234.344 132.797l.715 13.918" stroke-width="1.2" stroke="#f00" stroke-miterlimit="10" fill="none"/><path d="M240.184 118.54l.71 13.92" stroke-width="1.2" stroke="#cc0" stroke-miterlimit="10" fill="none"/><path d="M240.895 132.46l.714 13.923" stroke-width="1.2" stroke="#f00" stroke-miterlimit="10" fill="none"/><path d="M236.906 118.707l13.922-.715" stroke-width="1.2" stroke="#cc0" stroke-miterlimit="10" fill="none"/><path d="M250.828 117.992l13.922-.71" stroke-width="1.2" stroke="#000" stroke-miterlimit="10" fill="none"/><path d="M233.906 112.207h7v13h-7zm0 0" fill="#fff"/><use xlink:href="#e" x="233.906" y="122.108" fill="#cc0"/><path d="M231.48 84.363h9v13h-9zm0 0" fill="#fff"/><use xlink:href="#f" x="231.48" y="94.265" fill="#f00"/><path d="M234.332 140.047h9v13h-9zm0 0" fill="#fff"/><use xlink:href="#f" x="234.332" y="149.948" fill="#f00"/><path d="M193.906 96.734l-27.84 1.426M191.46 103.426l-22.276 1.14M120.285 173.813l-17.57 21.644M123.62 180.113l-14.058 17.317M147.816 178.207l-27.53-4.394M102.715 195.457l9.957 26.043M112.672 221.5l27.53 4.39M116.46 215.46l22.024 3.517M140.203 225.89l17.57-21.644M157.773 204.246l-9.957-26.04M150.652 203.984l-7.968-20.828" stroke-width="1.2" stroke="#000" stroke-miterlimit="10" fill="none"/></g></svg>