<svg xmlns="http://www.w3.org/2000/svg" xmlns:xlink="http://www.w3.org/1999/xlink" width="300pt" height="300pt" viewBox="0 0 300 300"><defs><symbol overflow="visible"><path d="M.547 1.938V-7.75h5.5v9.688zm.625-.61h4.266v-8.47H1.171zm0 0"/></symbol><symbol overflow="visible" id="a"><path d="M5.89-7.75v1.047c-.417-.195-.808-.344-1.17-.438-.368-.094-.72-.14-1.064-.14-.586 0-1.04.116-1.36.343-.323.23-.483.554-.483.968 0 .357.1.626.312.814.22.18.625.324 1.22.437L4-4.593c.813.157 1.41.434 1.797.828.383.387.578.903.578 1.547 0 .783-.262 1.376-.78 1.783-.525.398-1.29.593-2.298.593-.375 0-.78-.047-1.22-.14C1.648-.066 1.208-.19.75-.36v-1.11c.445.25.88.44 1.297.564.426.125.844.187 1.25.187.625 0 1.1-.116 1.437-.358.332-.25.5-.598.5-1.047 0-.395-.12-.703-.36-.922-.24-.226-.636-.398-1.186-.515l-.657-.126c-.81-.156-1.4-.406-1.764-.75C.898-4.78.72-5.258.72-5.875c0-.707.25-1.266.75-1.672.5-.414 1.19-.625 2.077-.625.375 0 .754.04 1.14.11.395.074.797.18 1.204.312zm0 0"/></symbol><symbol overflow="visible" id="b"><path d="M4.328-7.28c-.78 0-1.406.296-1.875.89-.46.585-.687 1.382-.687 2.39 0 1.012.226 1.813.687 2.406.47.586 1.094.875 1.875.875.79 0 1.414-.288 1.875-.874.457-.593.688-1.394.688-2.406 0-1.008-.23-1.805-.687-2.39-.46-.594-1.086-.89-1.875-.89zm0-.892c1.125 0 2.024.383 2.703 1.14C7.708-6.28 8.048-5.27 8.048-4c0 1.262-.34 2.273-1.016 3.03C6.353-.22 5.454.157 4.33.157S2.3-.22 1.625-.97c-.668-.75-1-1.757-1-3.03 0-1.27.332-2.28 1-3.03.676-.76 1.578-1.142 2.703-1.142zm0 0"/></symbol><symbol overflow="visible" id="c"><path d="M1.078-8.016h1.47l3.546 6.704v-6.704h1.062V0H5.688L2.124-6.703V0H1.078zm0 0"/></symbol><symbol overflow="visible" id="d"><path d="M1.078-8.016h4.61v.907H2.171v2.36h3.172v.922H2.172V0H1.078zm0 0"/></symbol></defs><g><path fill="#fff" d="M0 0h300v300H0z"/><path d="M241.625 227.047l4.688-13.106" stroke-width="1.2" stroke="#cc0" stroke-miterlimit="10" fill="none"/><path d="M246.313 213.94l4.69-13.104" stroke-width="1.2" stroke="#f00" stroke-miterlimit="10" fill="none"/><path d="M235.457 224.84l4.69-13.106" stroke-width="1.2" stroke="#cc0" stroke-miterlimit="10" fill="none"/><path d="M240.148 211.734l4.688-13.1" stroke-width="1.2" stroke="#f00" stroke-miterlimit="10" fill="none"/><path d="M235.457 224.84l-4.687 13.105" stroke-width="1.2" stroke="#cc0" stroke-miterlimit="10" fill="none"/><path d="M230.77 237.945l-4.692 13.106" stroke-width="1.2" stroke="#f00" stroke-miterlimit="10" fill="none"/><path d="M241.625 227.047l-4.69 13.105" stroke-width="1.2" stroke="#cc0" stroke-miterlimit="10" fill="none"/><path d="M236.934 240.152l-4.688 13.106" stroke-width="1.2" stroke="#f00" stroke-miterlimit="10" fill="none"/><path d="M238.54 225.945l13.105 4.688" stroke-width="1.2" stroke="#cc0" stroke-miterlimit="10" fill="none"/><path d="M251.645 230.633l13.105 4.69" stroke-width="1.2" stroke="#000" stroke-miterlimit="10" fill="none"/><path d="M238.54 225.945l-13.102-4.69" stroke-width="1.2" stroke="#cc0" stroke-miterlimit="10" fill="none"/><path d="M225.438 221.254l-13.106-4.688" stroke-width="1.2" stroke="#000" stroke-miterlimit="10" fill="none"/><path d="M235.54 219.445h7v13h-7zm0 0" fill="#fff"/><use xlink:href="#a" x="235.539" y="229.347" fill="#cc0"/><path d="M243.918 193.234h9v13h-9zm0 0" fill="#fff"/><use xlink:href="#b" x="243.918" y="203.136" fill="#f00"/><path d="M220.164 245.652h9v13h-9zm0 0" fill="#fff"/><use xlink:href="#b" x="220.164" y="255.554" fill="#f00"/><path d="M212.332 216.566l-21.227 18.008M205.973 213.37l-16.985 14.407M207.348 189.18l4.984 27.386M191.105 234.574l-26.21-9.38M164.895 225.195l-4.98-27.386M170.84 221.285l-3.985-21.91M159.914 197.81l10.613-9.005" stroke-width="1.2" stroke="#000" stroke-miterlimit="10" fill="none"/><path d="M170.527 188.805l10.614-9.004" stroke-width="1.2" stroke="#00f" stroke-miterlimit="10" fill="none"/><path d="M159.914 197.81l-13.105-4.693" stroke-width="1.2" stroke="#000" stroke-miterlimit="10" fill="none"/><path d="M146.81 193.117l-13.107-4.687M181.14 179.8l13.106 4.688" stroke-width="1.2" stroke="#00f" stroke-miterlimit="10" fill="none"/><path d="M194.246 184.488l13.102 4.692" stroke-width="1.2" stroke="#000" stroke-miterlimit="10" fill="none"/><path d="M181.555 186.902l10.484 3.754" stroke-width="1.2" stroke="#00f" stroke-miterlimit="10" fill="none"/><path d="M192.04 190.656l10.48 3.75" stroke-width="1.2" stroke="#000" stroke-miterlimit="10" fill="none"/><path d="M177.14 173.3h8v13h-8zm0 0" fill="#fff"/><use xlink:href="#c" x="177.141" y="183.202" fill="#00f"/><path d="M133.703 188.43l-22.992 15.69" stroke-width="1.2" stroke="#00f" stroke-miterlimit="10" fill="none"/><path d="M125.887 161.715l3.906 13.355" stroke-width="1.2" stroke="#000" stroke-miterlimit="10" fill="none"/><path d="M129.793 175.07l3.91 13.36" stroke-width="1.2" stroke="#00f" stroke-miterlimit="10" fill="none"/><path d="M129.703 181.93h8v13h-8zm0 0" fill="#fff"/><use xlink:href="#c" x="129.703" y="191.831" fill="#00f"/><path d="M110.71 204.12l-11.015-8.51" stroke-width="1.2" stroke="#00f" stroke-miterlimit="10" fill="none"/><path d="M99.695 195.61l-11.01-8.508" stroke-width="1.2" stroke="#000" stroke-miterlimit="10" fill="none"/><path d="M112.512 197.234l-8.81-6.804" stroke-width="1.2" stroke="#00f" stroke-miterlimit="10" fill="none"/><path d="M103.703 190.43l-8.812-6.81" stroke-width="1.2" stroke="#000" stroke-miterlimit="10" fill="none"/><path d="M106.71 197.62h8v13h-8zm0 0" fill="#fff"/><use xlink:href="#c" x="106.711" y="207.522" fill="#00f"/><path d="M88.684 187.102l9.38-26.207M88.684 187.102l-26.72 7.816M98.063 160.895l27.824.82M100.652 167.523l22.258.657M125.887 161.715l17.02-22.03M142.906 139.684l27.586 3.726M146.54 133.566l22.07 2.98M132.336 113.934l10.57 25.75M170.492 143.41l17.016-22.027M187.508 121.383L176.94 95.63M180.395 121.293l-8.458-20.602M176.94 95.63l8.51-11.017" stroke-width="1.2" stroke="#000" stroke-miterlimit="10" fill="none"/><path d="M185.45 84.613l8.51-11.01" stroke-width="1.2" stroke="#00f" stroke-miterlimit="10" fill="none"/><path d="M176.94 95.63L149.356 91.9" stroke-width="1.2" stroke="#000" stroke-miterlimit="10" fill="none"/><path d="M193.96 73.602l13.794 1.86" stroke-width="1.2" stroke="#00f" stroke-miterlimit="10" fill="none"/><path d="M207.754 75.46l13.793 1.864" stroke-width="1.2" stroke="#000" stroke-miterlimit="10" fill="none"/><path d="M193.96 73.602l-5.284-12.88" stroke-width="1.2" stroke="#00f" stroke-miterlimit="10" fill="none"/><path d="M188.676 60.723l-5.28-12.875" stroke-width="1.2" stroke="#000" stroke-miterlimit="10" fill="none"/><path d="M189.96 67.102h8v13h-8zm0 0" fill="#fff"/><use xlink:href="#c" x="189.961" y="77.003" fill="#00f"/><path d="M149.355 91.902l-17.02 22.032M152.836 98.11l-13.613 17.624M61.965 194.918l-13.356 3.91" stroke-width="1.2" stroke="#000" stroke-miterlimit="10" fill="none"/><path d="M48.61 198.828l-13.36 3.91" stroke-width="1.2" stroke="#3cc" stroke-miterlimit="10" fill="none"/><path d="M61.965 194.918l-3.906-13.356" stroke-width="1.2" stroke="#000" stroke-miterlimit="10" fill="none"/><path d="M58.06 181.563l-3.912-13.36" stroke-width="1.2" stroke="#3cc" stroke-miterlimit="10" fill="none"/><path d="M61.965 194.918l3.91 13.36" stroke-width="1.2" stroke="#000" stroke-miterlimit="10" fill="none"/><path d="M65.875 208.277l3.91 13.36" stroke-width="1.2" stroke="#3cc" stroke-miterlimit="10" fill="none"/><path d="M28.25 196.238h7v13h-7zm0 0" fill="#fff"/><use xlink:href="#d" x="28.25" y="206.14" fill="#3cc"/><path d="M51.148 161.703h7v13h-7zm0 0" fill="#fff"/><use xlink:href="#d" x="51.148" y="171.604" fill="#3cc"/><path d="M66.785 215.137h7v13h-7zm0 0" fill="#fff"/><use xlink:href="#d" x="66.785" y="225.038" fill="#3cc"/></g></svg>