<svg xmlns="http://www.w3.org/2000/svg" xmlns:xlink="http://www.w3.org/1999/xlink" width="300pt" height="300pt" viewBox="0 0 300 300"><defs><symbol overflow="visible"><path d="M.547 1.938V-7.75h5.5v9.688zm.625-.61h4.266v-8.47H1.171zm0 0"/></symbol><symbol overflow="visible" id="a"><path d="M5.89-7.75v1.047c-.417-.195-.808-.344-1.17-.438-.368-.094-.72-.14-1.064-.14-.586 0-1.04.116-1.36.343-.323.23-.483.554-.483.968 0 .357.1.626.312.814.22.18.625.324 1.22.437L4-4.593c.813.157 1.41.434 1.797.828.383.387.578.903.578 1.547 0 .783-.262 1.376-.78 1.783-.525.398-1.29.593-2.298.593-.375 0-.78-.047-1.22-.14C1.648-.066 1.208-.19.75-.36v-1.11c.445.25.88.44 1.297.564.426.125.844.187 1.25.187.625 0 1.1-.116 1.437-.358.332-.25.5-.598.5-1.047 0-.395-.12-.703-.36-.922-.24-.226-.636-.398-1.186-.515l-.657-.126c-.81-.156-1.4-.406-1.764-.75C.898-4.78.72-5.258.72-5.875c0-.707.25-1.266.75-1.672.5-.414 1.19-.625 2.077-.625.375 0 .754.04 1.14.11.395.074.797.18 1.204.312zm0 0"/></symbol><symbol overflow="visible" id="b"><path d="M4.328-7.28c-.78 0-1.406.296-1.875.89-.46.585-.687 1.382-.687 2.39 0 1.012.226 1.813.687 2.406.47.586 1.094.875 1.875.875.79 0 1.414-.288 1.875-.874.457-.593.688-1.394.688-2.406 0-1.008-.23-1.805-.687-2.39-.46-.594-1.086-.89-1.875-.89zm0-.892c1.125 0 2.024.383 2.703 1.14C7.708-6.28 8.048-5.27 8.048-4c0 1.262-.34 2.273-1.016 3.03C6.353-.22 5.454.157 4.33.157S2.3-.22 1.625-.97c-.668-.75-1-1.757-1-3.03 0-1.27.332-2.28 1-3.03.676-.76 1.578-1.142 2.703-1.142zm0 0"/></symbol><symbol overflow="visible" id="c"><path d="M1.078-8.016h1.47l3.546 6.704v-6.704h1.062V0H5.688L2.124-6.703V0H1.078zm0 0"/></symbol><symbol overflow="visible" id="d"><path d="M1.078-8.016h4.61v.907H2.171v2.36h3.172v.922H2.172V0H1.078zm0 0"/></symbol></defs><g><path fill="#fff" d="M0 0h300v300H0z"/><path d="M240.672 207.176l2.066-13.645" stroke-width="1.2" stroke="#cc0" stroke-miterlimit="10" fill="none"/><path d="M242.738 193.53l2.063-13.643" stroke-width="1.2" stroke="#f00" stroke-miterlimit="10" fill="none"/><path d="M234.254 206.203l2.062-13.64" stroke-width="1.2" stroke="#cc0" stroke-miterlimit="10" fill="none"/><path d="M236.316 192.563l2.063-13.645" stroke-width="1.2" stroke="#f00" stroke-miterlimit="10" fill="none"/><path d="M234.254 206.203l-2.066 13.645" stroke-width="1.2" stroke="#cc0" stroke-miterlimit="10" fill="none"/><path d="M232.188 219.848l-2.063 13.644" stroke-width="1.2" stroke="#f00" stroke-miterlimit="10" fill="none"/><path d="M240.672 207.176l-2.063 13.644" stroke-width="1.2" stroke="#cc0" stroke-miterlimit="10" fill="none"/><path d="M238.61 220.82l-2.067 13.645" stroke-width="1.2" stroke="#f00" stroke-miterlimit="10" fill="none"/><path d="M237.46 206.69l13.645 2.064" stroke-width="1.2" stroke="#cc0" stroke-miterlimit="10" fill="none"/><path d="M251.105 208.754l13.645 2.066" stroke-width="1.2" stroke="#000" stroke-miterlimit="10" fill="none"/><path d="M237.46 206.69l-13.64-2.065" stroke-width="1.2" stroke="#cc0" stroke-miterlimit="10" fill="none"/><path d="M223.82 204.625l-13.644-2.063" stroke-width="1.2" stroke="#000" stroke-miterlimit="10" fill="none"/><path d="M234.46 200.19h7v13h-7zm0 0" fill="#fff"/><use xlink:href="#a" x="234.461" y="210.093" fill="#cc0"/><path d="M237.59 172.902h9v13h-9zm0 0" fill="#fff"/><use xlink:href="#b" x="237.59" y="182.804" fill="#f00"/><path d="M229.332 227.477h9v13h-9zm0 0" fill="#fff"/><use xlink:href="#b" x="229.332" y="237.378" fill="#f00"/><path d="M210.176 202.563l-17.22 21.566M203.38 200.668L189.6 217.922M200.105 176.867l10.07 25.696M192.957 224.13l-27.29-4.13M165.668 220l-10.07-25.695M170.707 215.063l-8.055-20.56M155.598 194.305l8.613-10.785" stroke-width="1.2" stroke="#000" stroke-miterlimit="10" fill="none"/><path d="M164.21 183.52l8.61-10.782" stroke-width="1.2" stroke="#00f" stroke-miterlimit="10" fill="none"/><path d="M155.598 194.305l-13.64-2.067" stroke-width="1.2" stroke="#000" stroke-miterlimit="10" fill="none"/><path d="M141.957 192.238l-13.644-2.062M172.82 172.738l13.64 2.063" stroke-width="1.2" stroke="#00f" stroke-miterlimit="10" fill="none"/><path d="M186.46 174.8l13.645 2.067" stroke-width="1.2" stroke="#000" stroke-miterlimit="10" fill="none"/><path d="M174.574 179.57l10.918 1.653" stroke-width="1.2" stroke="#00f" stroke-miterlimit="10" fill="none"/><path d="M185.492 181.223l10.914 1.652" stroke-width="1.2" stroke="#000" stroke-miterlimit="10" fill="none"/><path d="M168.82 166.238h8v13h-8zm0 0" fill="#fff"/><use xlink:href="#c" x="168.82" y="176.14" fill="#00f"/><path d="M128.313 190.176l-19.38 19.648" stroke-width="1.2" stroke="#00f" stroke-miterlimit="10" fill="none"/><path d="M115.613 165.672l6.348 12.25" stroke-width="1.2" stroke="#000" stroke-miterlimit="10" fill="none"/><path d="M121.96 177.922l6.353 12.254" stroke-width="1.2" stroke="#00f" stroke-miterlimit="10" fill="none"/><path d="M124.313 183.676h8v13h-8zm0 0" fill="#fff"/><use xlink:href="#c" x="124.313" y="193.577" fill="#00f"/><path d="M108.934 209.824l-12.34-6.18" stroke-width="1.2" stroke="#00f" stroke-miterlimit="10" fill="none"/><path d="M96.594 203.645l-12.336-6.18" stroke-width="1.2" stroke="#000" stroke-miterlimit="10" fill="none"/><path d="M109.37 202.78l-9.866-4.94" stroke-width="1.2" stroke="#00f" stroke-miterlimit="10" fill="none"/><path d="M99.504 197.84l-9.87-4.945" stroke-width="1.2" stroke="#000" stroke-miterlimit="10" fill="none"/><path d="M104.934 203.324h8v13h-8zm0 0" fill="#fff"/><use xlink:href="#c" x="104.934" y="213.226" fill="#00f"/><path d="M84.258 197.465l4.125-27.285M84.258 197.465l-24.504 12.7M88.383 170.18l27.23-4.508M92.168 176.133l21.78-3.602M115.613 165.672l12.36-24.676M127.973 140.996l27.547-1.637M130.344 134.352l22.04-1.31M112.78 117.953l15.193 23.043M155.52 139.36l12.36-24.676M167.88 114.684l-15.19-23.04M160.94 115.953l-12.15-18.43M152.69 91.645l6.18-12.34" stroke-width="1.2" stroke="#000" stroke-miterlimit="10" fill="none"/><path d="M158.87 79.305l6.177-12.336" stroke-width="1.2" stroke="#f00" stroke-miterlimit="10" fill="none"/><path d="M152.69 91.645l-27.55 1.632" stroke-width="1.2" stroke="#000" stroke-miterlimit="10" fill="none"/><path d="M165.047 66.97l13.777-.822" stroke-width="1.2" stroke="#f00" stroke-miterlimit="10" fill="none"/><path d="M178.824 66.148l13.774-.816" stroke-width="1.2" stroke="#000" stroke-miterlimit="10" fill="none"/><path d="M161.047 60.47h9v13h-9zm0 0" fill="#fff"/><use xlink:href="#b" x="161.047" y="70.37" fill="#f00"/><path d="M125.14 93.277l-12.36 24.676M129.71 98.652l-9.886 19.743M112.78 117.953l-13.772.82" stroke-width="1.2" stroke="#000" stroke-miterlimit="10" fill="none"/><path d="M99.008 118.773l-13.778.817" stroke-width="1.2" stroke="#3cc" stroke-miterlimit="10" fill="none"/><path d="M78.23 113.09h7v13h-7zm0 0" fill="#fff"/><use xlink:href="#d" x="78.23" y="122.991" fill="#3cc"/><path d="M59.754 210.164L47.5 216.516" stroke-width="1.2" stroke="#000" stroke-miterlimit="10" fill="none"/><path d="M47.5 216.516l-12.25 6.347" stroke-width="1.2" stroke="#3cc" stroke-miterlimit="10" fill="none"/><path d="M59.754 210.164l-6.352-12.25" stroke-width="1.2" stroke="#000" stroke-miterlimit="10" fill="none"/><path d="M53.402 197.914l-6.347-12.254" stroke-width="1.2" stroke="#3cc" stroke-miterlimit="10" fill="none"/><path d="M59.754 210.164l6.348 12.254" stroke-width="1.2" stroke="#000" stroke-miterlimit="10" fill="none"/><path d="M66.102 222.418l6.35 12.25" stroke-width="1.2" stroke="#3cc" stroke-miterlimit="10" fill="none"/><path d="M28.25 216.363h7v13h-7zm0 0" fill="#fff"/><use xlink:href="#d" x="28.25" y="226.265" fill="#3cc"/><path d="M40.055 179.16h7v13h-7zm0 0" fill="#fff"/><use xlink:href="#d" x="40.055" y="189.062" fill="#3cc"/><path d="M69.453 228.168h7v13h-7zm0 0" fill="#fff"/><use xlink:href="#d" x="69.453" y="238.069" fill="#3cc"/></g></svg>