<svg xmlns="http://www.w3.org/2000/svg" xmlns:xlink="http://www.w3.org/1999/xlink" width="300pt" height="300pt" viewBox="0 0 300 300"><defs><symbol overflow="visible"><path d="M.547 1.938V-7.75h5.5v9.688zm.625-.61h4.266v-8.47H1.171zm0 0"/></symbol><symbol overflow="visible" id="a"><path d="M5.89-7.75v1.047c-.417-.195-.808-.344-1.17-.438-.368-.094-.72-.14-1.064-.14-.586 0-1.04.116-1.36.343-.323.23-.483.554-.483.968 0 .357.1.626.312.814.22.18.625.324 1.22.437L4-4.593c.813.157 1.41.434 1.797.828.383.387.578.903.578 1.547 0 .783-.262 1.376-.78 1.783-.525.398-1.29.593-2.298.593-.375 0-.78-.047-1.22-.14C1.648-.066 1.208-.19.75-.36v-1.11c.445.25.88.44 1.297.564.426.125.844.187 1.25.187.625 0 1.1-.116 1.437-.358.332-.25.5-.598.5-1.047 0-.395-.12-.703-.36-.922-.24-.226-.636-.398-1.186-.515l-.657-.126c-.81-.156-1.4-.406-1.764-.75C.898-4.78.72-5.258.72-5.875c0-.707.25-1.266.75-1.672.5-.414 1.19-.625 2.077-.625.375 0 .754.04 1.14.11.395.074.797.18 1.204.312zm0 0"/></symbol><symbol overflow="visible" id="b"><path d="M4.328-7.28c-.78 0-1.406.296-1.875.89-.46.585-.687 1.382-.687 2.39 0 1.012.226 1.813.687 2.406.47.586 1.094.875 1.875.875.79 0 1.414-.288 1.875-.874.457-.593.688-1.394.688-2.406 0-1.008-.23-1.805-.687-2.39-.46-.594-1.086-.89-1.875-.89zm0-.892c1.125 0 2.024.383 2.703 1.14C7.708-6.28 8.048-5.27 8.048-4c0 1.262-.34 2.273-1.016 3.03C6.353-.22 5.454.157 4.33.157S2.3-.22 1.625-.97c-.668-.75-1-1.757-1-3.03 0-1.27.332-2.28 1-3.03.676-.76 1.578-1.142 2.703-1.142zm0 0"/></symbol><symbol overflow="visible" id="c"><path d="M1.078-8.016h1.47l3.546 6.704v-6.704h1.062V0H5.688L2.124-6.703V0H1.078zm0 0"/></symbol><symbol overflow="visible" id="d"><path d="M1.078-8.016h4.61v.907H2.171v2.36h3.172v.922H2.172V0H1.078zm0 0"/></symbol></defs><g><path fill="#fff" d="M0 0h300v300H0z"/><path d="M240.957 220.848l2.844-13.48" stroke-width="1.2" stroke="#cc0" stroke-miterlimit="10" fill="none"/><path d="M243.8 207.367l2.848-13.484" stroke-width="1.2" stroke="#f00" stroke-miterlimit="10" fill="none"/><path d="M234.61 219.512l2.847-13.485" stroke-width="1.2" stroke="#cc0" stroke-miterlimit="10" fill="none"/><path d="M237.457 206.027l2.844-13.484" stroke-width="1.2" stroke="#f00" stroke-miterlimit="10" fill="none"/><path d="M234.61 219.512l-2.844 13.48" stroke-width="1.2" stroke="#cc0" stroke-miterlimit="10" fill="none"/><path d="M231.766 232.992l-2.844 13.485" stroke-width="1.2" stroke="#f00" stroke-miterlimit="10" fill="none"/><path d="M240.957 220.848l-2.848 13.484" stroke-width="1.2" stroke="#cc0" stroke-miterlimit="10" fill="none"/><path d="M238.11 234.332l-2.844 13.484" stroke-width="1.2" stroke="#f00" stroke-miterlimit="10" fill="none"/><path d="M237.785 220.18l13.48 2.843" stroke-width="1.2" stroke="#cc0" stroke-miterlimit="10" fill="none"/><path d="M251.266 223.023l13.484 2.848" stroke-width="1.2" stroke="#000" stroke-miterlimit="10" fill="none"/><path d="M237.785 220.18l-13.484-2.844" stroke-width="1.2" stroke="#cc0" stroke-miterlimit="10" fill="none"/><path d="M224.3 217.336l-13.484-2.848" stroke-width="1.2" stroke="#000" stroke-miterlimit="10" fill="none"/><path d="M234.785 213.68h7v13h-7zm0 0" fill="#fff"/><use xlink:href="#a" x="234.785" y="223.581" fill="#cc0"/><path d="M239.473 186.71h9v13h-9zm0 0" fill="#fff"/><use xlink:href="#b" x="239.473" y="196.612" fill="#f00"/><path d="M228.094 240.645h9v13h-9zm0 0" fill="#fff"/><use xlink:href="#b" x="228.094" y="250.546" fill="#f00"/><path d="M210.816 214.488l-18.41 20.508M204.148 212.207l-14.726 16.406M202.262 188.29l8.554 26.198M192.406 234.996l-26.97-5.687M165.438 229.31l-8.555-26.2M170.746 224.676l-6.844-20.96M156.883 203.11l9.207-10.258" stroke-width="1.2" stroke="#000" stroke-miterlimit="10" fill="none"/><path d="M166.09 192.852l9.203-10.254" stroke-width="1.2" stroke="#00f" stroke-miterlimit="10" fill="none"/><path d="M156.883 203.11l-13.485-2.848" stroke-width="1.2" stroke="#000" stroke-miterlimit="10" fill="none"/><path d="M143.398 200.262l-13.48-2.844M175.293 182.598l13.484 2.847" stroke-width="1.2" stroke="#00f" stroke-miterlimit="10" fill="none"/><path d="M188.777 185.445l13.485 2.844" stroke-width="1.2" stroke="#000" stroke-miterlimit="10" fill="none"/><path d="M176.652 189.512l10.786 2.277" stroke-width="1.2" stroke="#00f" stroke-miterlimit="10" fill="none"/><path d="M187.438 191.79l10.79 2.276" stroke-width="1.2" stroke="#000" stroke-miterlimit="10" fill="none"/><path d="M171.293 176.098h8v13h-8zm0 0" fill="#fff"/><use xlink:href="#c" x="171.293" y="185.999" fill="#00f"/><path d="M129.918 197.418l-20.457 18.47" stroke-width="1.2" stroke="#00f" stroke-miterlimit="10" fill="none"/><path d="M118.668 172.254l5.625 12.582" stroke-width="1.2" stroke="#000" stroke-miterlimit="10" fill="none"/><path d="M124.293 184.836l5.625 12.582" stroke-width="1.2" stroke="#00f" stroke-miterlimit="10" fill="none"/><path d="M125.918 190.918h8v13h-8zm0 0" fill="#fff"/><use xlink:href="#c" x="125.918" y="200.819" fill="#00f"/><path d="M109.46 215.887l-11.944-6.87" stroke-width="1.2" stroke="#00f" stroke-miterlimit="10" fill="none"/><path d="M97.516 209.016l-11.942-6.87" stroke-width="1.2" stroke="#000" stroke-miterlimit="10" fill="none"/><path d="M110.31 208.895l-9.56-5.5" stroke-width="1.2" stroke="#00f" stroke-miterlimit="10" fill="none"/><path d="M100.75 203.395l-9.555-5.497" stroke-width="1.2" stroke="#000" stroke-miterlimit="10" fill="none"/><path d="M105.46 209.387h8v13h-8zm0 0" fill="#fff"/><use xlink:href="#c" x="105.461" y="219.288" fill="#00f"/><path d="M85.574 202.145l5.692-26.97M85.574 202.145L60.41 213.39M91.266 175.176l27.402-2.922M94.69 181.332l21.927-2.336M118.668 172.254l13.746-23.887M132.414 148.367l27.563-.04M135.16 141.88l22.05-.036M118.598 124.52l13.816 23.847M159.977 148.328l13.742-23.89M173.72 124.438l13.78-.02" stroke-width="1.2" stroke="#000" stroke-miterlimit="10" fill="none"/><path d="M187.5 124.418l13.78-.02" stroke-width="1.2" stroke="#3cc" stroke-miterlimit="10" fill="none"/><path d="M173.72 124.438l-13.814-23.848M166.727 125.305l-11.05-19.078" stroke-width="1.2" stroke="#000" stroke-miterlimit="10" fill="none"/><path d="M198.28 117.898h7v13h-7zm0 0" fill="#fff"/><use xlink:href="#d" x="198.281" y="127.8" fill="#3cc"/><path d="M159.906 100.59l6.87-11.945" stroke-width="1.2" stroke="#000" stroke-miterlimit="10" fill="none"/><path d="M166.777 88.645l6.875-11.942" stroke-width="1.2" stroke="#f00" stroke-miterlimit="10" fill="none"/><path d="M159.906 100.59l-27.562.04" stroke-width="1.2" stroke="#000" stroke-miterlimit="10" fill="none"/><path d="M173.652 76.703l-6.91-11.926" stroke-width="1.2" stroke="#f00" stroke-miterlimit="10" fill="none"/><path d="M166.742 64.777l-6.906-11.922" stroke-width="1.2" stroke="#000" stroke-miterlimit="10" fill="none"/><path d="M169.652 70.203h9v13h-9zm0 0" fill="#fff"/><use xlink:href="#b" x="169.652" y="80.104" fill="#f00"/><path d="M132.344 100.63l-13.746 23.89M136.59 106.254l-10.996 19.11M60.41 213.39l-12.578 5.622" stroke-width="1.2" stroke="#000" stroke-miterlimit="10" fill="none"/><path d="M47.832 219.012l-12.582 5.625" stroke-width="1.2" stroke="#3cc" stroke-miterlimit="10" fill="none"/><path d="M60.41 213.39l-5.62-12.58" stroke-width="1.2" stroke="#000" stroke-miterlimit="10" fill="none"/><path d="M54.79 200.81l-5.626-12.583" stroke-width="1.2" stroke="#3cc" stroke-miterlimit="10" fill="none"/><path d="M60.41 213.39l5.625 12.58" stroke-width="1.2" stroke="#000" stroke-miterlimit="10" fill="none"/><path d="M66.035 225.97l5.625 12.58" stroke-width="1.2" stroke="#3cc" stroke-miterlimit="10" fill="none"/><path d="M28.25 218.137h7v13h-7zm0 0" fill="#fff"/><use xlink:href="#d" x="28.25" y="228.038" fill="#3cc"/><path d="M42.164 181.727h7v13h-7zm0 0" fill="#fff"/><use xlink:href="#d" x="42.164" y="191.628" fill="#3cc"/><path d="M68.66 232.05h7v13h-7zm0 0" fill="#fff"/><use xlink:href="#d" x="68.66" y="241.952" fill="#3cc"/></g></svg>