<svg xmlns="http://www.w3.org/2000/svg" xmlns:xlink="http://www.w3.org/1999/xlink" width="300pt" height="300pt" viewBox="0 0 300 300"><defs><symbol overflow="visible"><path d="M.64 2.297v-11.47h6.5v11.47zm.735-.72h5.047V-8.436H1.375zm0 0"/></symbol><symbol overflow="visible" id="a"><path d="M8.375-8.75v1.36c-.438-.407-.902-.708-1.39-.907-.48-.195-.997-.297-1.548-.297-1.085 0-1.917.336-2.5 1-.574.657-.86 1.61-.86 2.86 0 1.25.286 2.21.86 2.875.583.657 1.415.985 2.5.985.55 0 1.067-.098 1.547-.297.49-.195.954-.492 1.39-.89v1.328c-.448.312-.92.546-1.42.703-.5.143-1.032.217-1.595.217-1.438 0-2.57-.437-3.39-1.312C1.144-2.008.733-3.21.733-4.735c0-1.52.41-2.718 1.235-3.593.82-.883 1.952-1.328 3.39-1.328.562 0 1.093.078 1.593.234.508.15.984.37 1.422.672zm0 0"/></symbol><symbol overflow="visible" id="b"><path d="M1.22-9.875h1.17V0H1.22zm0 0"/></symbol><symbol overflow="visible" id="c"><path d="M5.125-8.61c-.938 0-1.684.352-2.234 1.047-.542.688-.812 1.633-.812 2.83 0 1.198.27 2.147.813 2.842.55.687 1.297 1.03 2.235 1.03.926 0 1.66-.343 2.203-1.03.55-.696.828-1.645.828-2.844 0-1.196-.277-2.14-.828-2.829-.543-.695-1.277-1.046-2.203-1.046zm0-1.046c1.32 0 2.38.45 3.172 1.344.8.898 1.203 2.09 1.203 3.578 0 1.5-.402 2.7-1.203 3.593C7.504-.255 6.445.186 5.125.186c-1.336 0-2.402-.44-3.203-1.328C1.13-2.036.734-3.235.734-4.735c0-1.49.395-2.68 1.188-3.579.8-.894 1.867-1.343 3.203-1.343zm0 0"/></symbol><symbol overflow="visible" id="d"><path d="M1.28-9.484H3l4.203 7.937v-7.937h1.25V0H6.72L2.515-7.922V0H1.28zm0 0"/></symbol><symbol overflow="visible" id="e"><path d="M1.28-9.484h1.282v3.89H7.22v-3.89H8.5V0H7.22v-4.516H2.562V0H1.28zm0 0"/></symbol><symbol overflow="visible" id="f"><path d="M6.953-9.172v1.25c-.48-.226-.937-.398-1.375-.516-.43-.113-.844-.17-1.25-.17-.7 0-1.242.135-1.625.405-.375.273-.562.656-.562 1.156 0 .418.126.734.376.953.257.21.738.383 1.437.516l.78.156c.947.188 1.65.512 2.11.97.458.46.688 1.073.688 1.843 0 .92-.307 1.618-.92 2.094-.618.47-1.524.704-2.72.704-.45 0-.93-.055-1.437-.157C1.953-.07 1.43-.222.89-.42v-1.312c.52.293 1.032.51 1.532.656.5.148.988.22 1.47.22.737 0 1.303-.142 1.702-.423.394-.29.593-.704.593-1.236 0-.468-.148-.832-.437-1.093-.28-.257-.746-.456-1.39-.593l-.782-.156c-.96-.187-1.652-.484-2.078-.89-.43-.406-.64-.97-.64-1.688 0-.843.288-1.503.874-1.984.594-.488 1.41-.734 2.454-.734.437 0 .882.043 1.343.125.47.085.943.202 1.423.358zm0 0"/></symbol></defs><g><path fill="#fff" d="M0 0h300v300H0z"/><path d="M35.25 168.137l10.422-12.47" stroke-width="1.2" stroke="#0c0" stroke-miterlimit="10" fill="none"/><path d="M45.672 155.668l10.418-12.473" stroke-width="1.2" stroke="#000" stroke-miterlimit="10" fill="none"/><path d="M21.25 160.137h14v16h-14zm0 0" fill="#fff"/><g fill="#0c0"><use xlink:href="#a" x="21.25" y="172.513"/><use xlink:href="#b" x="30.557" y="172.513"/></g><path d="M56.09 143.195L44.91 112.68M62.152 137.516l-8.94-24.418M88.11 148.773l-32.02-5.578M44.91 112.68l20.84-24.942M65.75 87.738l-5.59-15.26" stroke-width="1.2" stroke="#000" stroke-miterlimit="10" fill="none"/><path d="M60.16 72.477L54.57 57.22" stroke-width="1.2" stroke="#0c0" stroke-miterlimit="10" fill="none"/><path d="M65.75 87.738l32.02 5.578M67.64 95.828l25.614 4.46" stroke-width="1.2" stroke="#000" stroke-miterlimit="10" fill="none"/><path d="M40.57 49.22h14v16h-14zm0 0" fill="#fff"/><g fill="#0c0"><use xlink:href="#a" x="40.57" y="61.595"/><use xlink:href="#b" x="49.877" y="61.595"/></g><path d="M97.77 93.316l11.18 30.516M108.95 123.832l-20.84 24.94M100.996 121.422l-16.672 19.953M88.11 148.773l5.59 15.258" stroke-width="1.2" stroke="#000" stroke-miterlimit="10" fill="none"/><path d="M93.7 164.03l5.59 15.263M99.29 179.293l16.007 2.79" stroke-width="1.2" stroke="#f00" stroke-miterlimit="10" fill="none"/><path d="M115.297 182.082l16.012 2.79" stroke-width="1.2" stroke="#000" stroke-miterlimit="10" fill="none"/><path d="M94.29 171.293h11v16h-11zm0 0" fill="#fff"/><use xlink:href="#c" x="94.289" y="183.669" fill="#f00"/><path d="M131.31 184.87l23.33-22.628M145.617 214.05l-14.308-29.18M151.05 207.766l-11.445-23.344M154.64 162.242l28.73 15.2M161.09 157.004l22.984 12.16M153.44 129.766l1.2 32.476M183.37 177.44l-2.788 16.013" stroke-width="1.2" stroke="#000" stroke-miterlimit="10" fill="none"/><path d="M180.582 193.453l-2.79 16.008" stroke-width="1.2" stroke="#00f" stroke-miterlimit="10" fill="none"/><path d="M183.37 177.44l27.528-17.276" stroke-width="1.2" stroke="#000" stroke-miterlimit="10" fill="none"/><path d="M177.793 209.46l-16.09 2.298" stroke-width="1.2" stroke="#00f" stroke-miterlimit="10" fill="none"/><path d="M161.703 211.758l-16.086 2.293" stroke-width="1.2" stroke="#000" stroke-miterlimit="10" fill="none"/><path d="M167.793 201.46h20v16h-20zm0 0" fill="#fff"/><g fill="#00f"><use xlink:href="#d" x="167.793" y="213.837"/><use xlink:href="#e" x="177.763" y="213.837"/></g><path d="M145.617 214.05l-15.2 28.73M210.898 160.164l-1.203-32.48M203.137 157.195l-.965-25.98M209.695 127.684l13.766-8.64" stroke-width="1.2" stroke="#000" stroke-miterlimit="10" fill="none"/><path d="M223.46 119.043l13.763-8.64" stroke-width="1.2" stroke="#cc0" stroke-miterlimit="10" fill="none"/><path d="M209.695 127.684l-28.726-15.2" stroke-width="1.2" stroke="#000" stroke-miterlimit="10" fill="none"/><path d="M240.46 108.37l-8.64-13.765" stroke-width="1.2" stroke="#cc0" stroke-miterlimit="10" fill="none"/><path d="M231.82 94.605l-8.64-13.76" stroke-width="1.2" stroke="#f00" stroke-miterlimit="10" fill="none"/><path d="M233.984 112.438l-8.64-13.766" stroke-width="1.2" stroke="#cc0" stroke-miterlimit="10" fill="none"/><path d="M225.344 98.672l-8.64-13.762" stroke-width="1.2" stroke="#f00" stroke-miterlimit="10" fill="none"/><path d="M233.984 112.438l8.64 13.76" stroke-width="1.2" stroke="#cc0" stroke-miterlimit="10" fill="none"/><path d="M242.625 126.2l8.64 13.76" stroke-width="1.2" stroke="#f00" stroke-miterlimit="10" fill="none"/><path d="M240.46 108.37l8.642 13.763" stroke-width="1.2" stroke="#cc0" stroke-miterlimit="10" fill="none"/><path d="M249.102 122.133l8.64 13.765" stroke-width="1.2" stroke="#f00" stroke-miterlimit="10" fill="none"/><path d="M237.223 110.402l13.765-8.64" stroke-width="1.2" stroke="#cc0" stroke-miterlimit="10" fill="none"/><path d="M250.988 101.762l13.762-8.64" stroke-width="1.2" stroke="#000" stroke-miterlimit="10" fill="none"/><path d="M233.223 102.402h9v16h-9zm0 0" fill="#fff"/><use xlink:href="#f" x="233.223" y="114.778" fill="#cc0"/><path d="M208.94 74.875h11v16h-11zm0 0" fill="#fff"/><use xlink:href="#c" x="208.941" y="87.251" fill="#f00"/><path d="M249.504 129.93h11v16h-11zm0 0" fill="#fff"/><use xlink:href="#c" x="249.504" y="142.306" fill="#f00"/><path d="M180.97 112.484l-27.53 17.282M182.28 120.688l-22.022 13.824" stroke-width="1.2" stroke="#000" stroke-miterlimit="10" fill="none"/></g></svg>