<svg xmlns="http://www.w3.org/2000/svg" xmlns:xlink="http://www.w3.org/1999/xlink" width="300pt" height="300pt" viewBox="0 0 300 300"><defs><symbol overflow="visible"><path d="M.594 2.125V-8.47h6V2.126zm.672-.672h4.671V-7.78h-4.67zm0 0"/></symbol><symbol overflow="visible" id="a"><path d="M7.734-8.078v1.25c-.406-.375-.836-.65-1.28-.828-.45-.188-.93-.282-1.438-.282-1 0-1.766.31-2.297.922-.533.618-.798 1.5-.798 2.657 0 1.15.266 2.028.797 2.64.53.618 1.296.923 2.296.923.507 0 .988-.094 1.437-.28.445-.19.875-.462 1.28-.83V-.67c-.417.28-.858.496-1.327.64-.46.134-.945.204-1.453.204-1.336 0-2.383-.406-3.14-1.22-.762-.81-1.14-1.913-1.14-3.31 0-1.408.378-2.517 1.14-3.33.757-.812 1.804-1.218 3.14-1.218.52 0 1.008.074 1.47.22.468.135.905.338 1.31.608zm0 0"/></symbol><symbol overflow="visible" id="b"><path d="M1.125-9.125h1.078V0H1.125zm0 0"/></symbol><symbol overflow="visible" id="c"><path d="M6.422-8.47v1.158c-.45-.208-.875-.364-1.28-.47-.4-.113-.78-.17-1.142-.17-.648 0-1.148.124-1.5.374-.344.25-.516.61-.516 1.078 0 .387.114.68.344.875.227.2.672.355 1.328.47L4.36-5c.882.168 1.535.465 1.952.89.426.42.64.98.64 1.688 0 .856-.288 1.5-.858 1.938-.563.437-1.4.656-2.5.656-.406 0-.844-.047-1.313-.14C1.814-.064 1.33-.204.83-.392v-1.22c.477.274.945.477 1.406.61.47.137.922.203 1.36.203.676 0 1.195-.13 1.562-.39.375-.27.563-.65.563-1.14 0-.427-.138-.76-.407-1-.262-.25-.696-.43-1.297-.548l-.72-.14c-.886-.176-1.526-.454-1.92-.83-.388-.374-.58-.893-.58-1.56 0-.782.27-1.392.813-1.83.538-.445 1.288-.67 2.25-.67.413 0 .83.038 1.25.108.425.074.863.184 1.312.328zm0 0"/></symbol><symbol overflow="visible" id="d"><path d="M1.172-8.75h1.594l3.89 7.313V-8.75h1.14V0H6.204L2.328-7.313V0H1.172zm0 0"/></symbol><symbol overflow="visible" id="e"><path d="M1.172-8.75H2.36v3.594h4.296V-8.75h1.188V0H6.656v-4.172H2.36V0H1.17zm0 0"/></symbol><symbol overflow="visible" id="f"><path d="M4.734-7.953c-.867 0-1.554.324-2.062.97-.5.635-.75 1.51-.75 2.624 0 1.094.25 1.965.75 2.61.508.637 1.195.953 2.062.953.852 0 1.532-.316 2.032-.953.507-.645.765-1.516.765-2.61 0-1.113-.257-1.988-.764-2.624-.5-.645-1.18-.97-2.032-.97zm0-.953c1.22 0 2.192.414 2.922 1.234.74.824 1.11 1.93 1.11 3.313 0 1.376-.37 2.477-1.11 3.298C6.926-.24 5.953.17 4.734.17c-1.23 0-2.214-.41-2.953-1.234C1.04-1.882.673-2.984.673-4.36c0-1.382.367-2.488 1.11-3.312.738-.82 1.722-1.234 2.952-1.234zm0 0"/></symbol></defs><g><path fill="#fff" d="M0 0h300v300H0z"/><path d="M35.25 126.555l12.527-9.102" stroke-width="1.2" stroke="#0c0" stroke-miterlimit="10" fill="none"/><path d="M47.777 117.453l12.524-9.105" stroke-width="1.2" stroke="#000" stroke-miterlimit="10" fill="none"/><path d="M23.25 119.555h12v14h-12zm0 0" fill="#fff"/><g fill="#0c0"><use xlink:href="#a" x="23.25" y="130.693"/><use xlink:href="#b" x="31.629" y="130.693"/></g><path d="M60.3 108.348L57.06 77.55M67.223 104.508l-2.594-24.64M88.594 120.94L60.3 108.35M57.06 77.55l25.05-18.206M82.11 59.344L110.4 71.937M81.977 67.262l22.632 10.074M110.402 71.938l3.243 30.796M113.645 102.734l-25.05 18.207M106.855 98.66l-20.04 14.567M88.594 120.94l1.62 15.4" stroke-width="1.2" stroke="#000" stroke-miterlimit="10" fill="none"/><path d="M90.215 136.34l1.62 15.398M91.836 151.738l14.144 6.297" stroke-width="1.2" stroke="#cc0" stroke-miterlimit="10" fill="none"/><path d="M105.98 158.035l14.15 6.297" stroke-width="1.2" stroke="#000" stroke-miterlimit="10" fill="none"/><path d="M87.836 144.738h8v14h-8zm0 0" fill="#fff"/><use xlink:href="#c" x="87.836" y="155.877" fill="#cc0"/><path d="M120.13 164.332l26.815-15.488M126.57 194.62l-6.44-30.288M133.055 190.074l-5.157-24.23M146.945 148.844l23.016 20.72M154.12 145.5l18.415 16.574M153.38 118.55l-6.435 30.294M169.96 169.563l-6.292 14.144" stroke-width="1.2" stroke="#000" stroke-miterlimit="10" fill="none"/><path d="M163.668 183.707l-6.297 14.145" stroke-width="1.2" stroke="#00f" stroke-miterlimit="10" fill="none"/><path d="M169.96 169.563l29.454-9.575" stroke-width="1.2" stroke="#000" stroke-miterlimit="10" fill="none"/><path d="M157.37 197.852l-15.397-1.614" stroke-width="1.2" stroke="#00f" stroke-miterlimit="10" fill="none"/><path d="M141.973 196.238l-15.403-1.617" stroke-width="1.2" stroke="#000" stroke-miterlimit="10" fill="none"/><path d="M148.37 190.852h18v14h-18zm0 0" fill="#fff"/><g fill="#00f"><use xlink:href="#d" x="148.371" y="201.99"/><use xlink:href="#e" x="157.348" y="201.99"/></g><path d="M126.57 194.62l-20.715 23.017M105.855 217.637l-10.36 11.51" stroke-width="1.2" stroke="#000" stroke-miterlimit="10" fill="none"/><path d="M95.496 229.148l-10.36 11.508" stroke-width="1.2" stroke="#00f" stroke-miterlimit="10" fill="none"/><path d="M98.367 215.066l-8.29 9.207" stroke-width="1.2" stroke="#000" stroke-miterlimit="10" fill="none"/><path d="M90.078 224.273l-8.285 9.207" stroke-width="1.2" stroke="#00f" stroke-miterlimit="10" fill="none"/><path d="M109.2 224.816l-8.29 9.207" stroke-width="1.2" stroke="#000" stroke-miterlimit="10" fill="none"/><path d="M100.91 234.023l-8.29 9.207" stroke-width="1.2" stroke="#00f" stroke-miterlimit="10" fill="none"/><path d="M76.137 233.656h9v14h-9zm0 0" fill="#fff"/><use xlink:href="#d" x="76.137" y="244.795" fill="#00f"/><path d="M199.414 159.988l6.434-30.293M192.93 155.44l5.148-24.23M205.848 129.695l14.726-4.79" stroke-width="1.2" stroke="#000" stroke-miterlimit="10" fill="none"/><path d="M220.574 124.906l14.727-4.785" stroke-width="1.2" stroke="#cc0" stroke-miterlimit="10" fill="none"/><path d="M205.848 129.695l-23.016-20.718" stroke-width="1.2" stroke="#000" stroke-miterlimit="10" fill="none"/><path d="M238.766 118.992l-4.79-14.722" stroke-width="1.2" stroke="#cc0" stroke-miterlimit="10" fill="none"/><path d="M233.977 104.27l-4.786-14.727" stroke-width="1.2" stroke="#f00" stroke-miterlimit="10" fill="none"/><path d="M231.836 121.246l-4.79-14.726" stroke-width="1.2" stroke="#cc0" stroke-miterlimit="10" fill="none"/><path d="M227.047 106.52l-4.785-14.727" stroke-width="1.2" stroke="#f00" stroke-miterlimit="10" fill="none"/><path d="M231.836 121.246l4.785 14.727" stroke-width="1.2" stroke="#cc0" stroke-miterlimit="10" fill="none"/><path d="M236.62 135.973l4.79 14.722" stroke-width="1.2" stroke="#f00" stroke-miterlimit="10" fill="none"/><path d="M238.766 118.992l4.785 14.727" stroke-width="1.2" stroke="#cc0" stroke-miterlimit="10" fill="none"/><path d="M243.55 133.72l4.79 14.725" stroke-width="1.2" stroke="#f00" stroke-miterlimit="10" fill="none"/><path d="M235.3 120.12l14.723-4.788" stroke-width="1.2" stroke="#cc0" stroke-miterlimit="10" fill="none"/><path d="M250.023 115.332l14.727-4.785" stroke-width="1.2" stroke="#000" stroke-miterlimit="10" fill="none"/><path d="M231.3 113.12h8v14h-8zm0 0" fill="#fff"/><use xlink:href="#c" x="231.301" y="124.26" fill="#cc0"/><path d="M215.727 83.668h10v14h-10zm0 0" fill="#fff"/><use xlink:href="#f" x="215.727" y="94.807" fill="#f00"/><path d="M239.875 142.57h10v14h-10zm0 0" fill="#fff"/><use xlink:href="#f" x="239.875" y="153.709" fill="#f00"/><path d="M182.832 108.977l-29.453 9.574M182.137 116.863l-23.56 7.66" stroke-width="1.2" stroke="#000" stroke-miterlimit="10" fill="none"/></g></svg>