<svg xmlns="http://www.w3.org/2000/svg" xmlns:xlink="http://www.w3.org/1999/xlink" width="300pt" height="300pt" viewBox="0 0 300 300"><defs><symbol overflow="visible"><path d="M.547 1.938V-7.75h5.5v9.688zm.625-.61h4.266v-8.47H1.171zm0 0"/></symbol><symbol overflow="visible" id="a"><path d="M5.89-7.75v1.047c-.417-.195-.808-.344-1.17-.438-.368-.094-.72-.14-1.064-.14-.586 0-1.04.116-1.36.343-.323.23-.483.554-.483.968 0 .357.1.626.312.814.22.18.625.324 1.22.437L4-4.593c.813.157 1.41.434 1.797.828.383.387.578.903.578 1.547 0 .783-.262 1.376-.78 1.783-.525.398-1.29.593-2.298.593-.375 0-.78-.047-1.22-.14C1.648-.066 1.208-.19.75-.36v-1.11c.445.25.88.44 1.297.564.426.125.844.187 1.25.187.625 0 1.1-.116 1.437-.358.332-.25.5-.598.5-1.047 0-.395-.12-.703-.36-.922-.24-.226-.636-.398-1.186-.515l-.657-.126c-.81-.156-1.4-.406-1.764-.75C.898-4.78.72-5.258.72-5.875c0-.707.25-1.266.75-1.672.5-.414 1.19-.625 2.077-.625.375 0 .754.04 1.14.11.395.074.797.18 1.204.312zm0 0"/></symbol><symbol overflow="visible" id="b"><path d="M4.328-7.28c-.78 0-1.406.296-1.875.89-.46.585-.687 1.382-.687 2.39 0 1.012.226 1.813.687 2.406.47.586 1.094.875 1.875.875.79 0 1.414-.288 1.875-.874.457-.593.688-1.394.688-2.406 0-1.008-.23-1.805-.687-2.39-.46-.594-1.086-.89-1.875-.89zm0-.892c1.125 0 2.024.383 2.703 1.14C7.708-6.28 8.048-5.27 8.048-4c0 1.262-.34 2.273-1.016 3.03C6.353-.22 5.454.157 4.33.157S2.3-.22 1.625-.97c-.668-.75-1-1.757-1-3.03 0-1.27.332-2.28 1-3.03.676-.76 1.578-1.142 2.703-1.142zm0 0"/></symbol></defs><g><path fill="#fff" d="M0 0h300v300H0z"/><path d="M244.27 187.738l6.324-11.605" stroke-width="1.2" stroke="#cc0" stroke-miterlimit="10" fill="none"/><path d="M250.594 176.133l6.324-11.606" stroke-width="1.2" stroke="#f00" stroke-miterlimit="10" fill="none"/><path d="M238.81 184.762l6.323-11.602" stroke-width="1.2" stroke="#cc0" stroke-miterlimit="10" fill="none"/><path d="M245.133 173.16l6.324-11.605" stroke-width="1.2" stroke="#f00" stroke-miterlimit="10" fill="none"/><path d="M238.81 184.762l-6.326 11.605" stroke-width="1.2" stroke="#cc0" stroke-miterlimit="10" fill="none"/><path d="M232.484 196.367l-6.324 11.606" stroke-width="1.2" stroke="#f00" stroke-miterlimit="10" fill="none"/><path d="M244.27 187.738l-6.325 11.606" stroke-width="1.2" stroke="#cc0" stroke-miterlimit="10" fill="none"/><path d="M237.945 199.344l-6.324 11.605" stroke-width="1.2" stroke="#f00" stroke-miterlimit="10" fill="none"/><path d="M241.54 186.25l11.605 6.324" stroke-width="1.2" stroke="#cc0" stroke-miterlimit="10" fill="none"/><path d="M253.145 192.574l11.605 6.324" stroke-width="1.2" stroke="#000" stroke-miterlimit="10" fill="none"/><path d="M241.54 186.25l-11.606-6.324" stroke-width="1.2" stroke="#cc0" stroke-miterlimit="10" fill="none"/><path d="M229.934 179.926l-11.606-6.324" stroke-width="1.2" stroke="#000" stroke-miterlimit="10" fill="none"/><path d="M238.54 179.75h7v13h-7zm0 0" fill="#fff"/><use xlink:href="#a" x="238.539" y="189.651" fill="#cc0"/><path d="M250.188 156.54h9v13h-9zm0 0" fill="#fff"/><use xlink:href="#b" x="250.188" y="166.44" fill="#f00"/><path d="M219.89 202.96h9v13h-9zm0 0" fill="#fff"/><use xlink:href="#b" x="219.891" y="212.862" fill="#f00"/><path d="M218.328 173.602L195.77 187.38M212.832 169.672l-18.047 11.023M217.676 147.18l.652 26.422M195.77 187.38l-23.21-12.65M172.56 174.73l-.654-26.42M178.71 171.938l-.52-21.14M171.906 148.31l22.56-13.78M171.906 148.31l-23.21-12.65M194.465 134.53l23.21 12.65M193.813 141.258l18.566 10.117M148.695 135.66l-.324-13.215" stroke-width="1.2" stroke="#000" stroke-miterlimit="10" fill="none"/><path d="M148.37 122.445l-.323-13.21" stroke-width="1.2" stroke="#f00" stroke-miterlimit="10" fill="none"/><path d="M148.695 135.66l-22.558 13.778M143.2 131.727L125.15 142.75" stroke-width="1.2" stroke="#000" stroke-miterlimit="10" fill="none"/><path d="M148.047 109.234l-11.606-6.324" stroke-width="1.2" stroke="#f00" stroke-miterlimit="10" fill="none"/><path d="M136.44 102.91l-11.604-6.324" stroke-width="1.2" stroke="#000" stroke-miterlimit="10" fill="none"/><path d="M144.047 102.734h9v13h-9zm0 0" fill="#fff"/><use xlink:href="#b" x="144.047" y="112.636" fill="#f00"/><path d="M124.836 96.586l-22.563 13.777M125.82 103.27l-18.047 11.023M124.836 96.586l-.652-26.426M102.273 110.363l.653 26.426M101.305 134.133l-11.278 6.89" stroke-width="1.2" stroke="#000" stroke-miterlimit="10" fill="none"/><path d="M90.027 141.023l-11.28 6.887" stroke-width="1.2" stroke="#f00" stroke-miterlimit="10" fill="none"/><path d="M104.547 139.44L93.27 146.33" stroke-width="1.2" stroke="#000" stroke-miterlimit="10" fill="none"/><path d="M93.27 146.328l-11.282 6.89" stroke-width="1.2" stroke="#f00" stroke-miterlimit="10" fill="none"/><path d="M102.926 136.79l23.21 12.648" stroke-width="1.2" stroke="#000" stroke-miterlimit="10" fill="none"/><path d="M71.367 144.063h9v13h-9zm0 0" fill="#fff"/><use xlink:href="#b" x="71.367" y="153.964" fill="#f00"/><path d="M126.137 149.438l.328 13.21" stroke-width="1.2" stroke="#000" stroke-miterlimit="10" fill="none"/><path d="M126.465 162.648l.324 13.21M126.79 175.86l-11.278 6.89" stroke-width="1.2" stroke="#f00" stroke-miterlimit="10" fill="none"/><path d="M115.512 182.75l-11.282 6.887" stroke-width="1.2" stroke="#000" stroke-miterlimit="10" fill="none"/><path d="M122.79 169.36h9v13h-9zm0 0" fill="#fff"/><use xlink:href="#b" x="122.789" y="179.261" fill="#f00"/><path d="M104.23 189.637l-23.21-12.65M98.934 193.836l-18.57-10.12M104.883 216.063l-.653-26.426M81.02 176.988l-22.56 13.778M58.46 190.766l.653 26.425M64.742 193.254l.524 21.14M58.46 190.766l-23.21-12.65M59.113 217.19l23.21 12.65M82.324 229.84l22.56-13.778M81.336 223.152l18.047-11.02" stroke-width="1.2" stroke="#000" stroke-miterlimit="10" fill="none"/></g></svg>