<svg xmlns="http://www.w3.org/2000/svg" xmlns:xlink="http://www.w3.org/1999/xlink" width="300pt" height="300pt" viewBox="0 0 300 300"><defs><symbol overflow="visible"><path d="M.594 2.125V-8.47h6V2.126zm.672-.672h4.671V-7.78h-4.67zm0 0"/></symbol><symbol overflow="visible" id="a"><path d="M6.422-8.47v1.158c-.45-.208-.875-.364-1.28-.47-.4-.113-.78-.17-1.142-.17-.648 0-1.148.124-1.5.374-.344.25-.516.61-.516 1.078 0 .387.114.68.344.875.227.2.672.355 1.328.47L4.36-5c.882.168 1.535.465 1.952.89.426.42.64.98.64 1.688 0 .856-.288 1.5-.858 1.938-.563.437-1.4.656-2.5.656-.406 0-.844-.047-1.313-.14C1.814-.064 1.33-.204.83-.392v-1.22c.477.274.945.477 1.406.61.47.137.922.203 1.36.203.676 0 1.195-.13 1.562-.39.375-.27.563-.65.563-1.14 0-.427-.138-.76-.407-1-.262-.25-.696-.43-1.297-.548l-.72-.14c-.886-.176-1.526-.454-1.92-.83-.388-.374-.58-.893-.58-1.56 0-.782.27-1.392.813-1.83.538-.445 1.288-.67 2.25-.67.413 0 .83.038 1.25.108.425.074.863.184 1.312.328zm0 0"/></symbol><symbol overflow="visible" id="b"><path d="M4.734-7.953c-.867 0-1.554.324-2.062.97-.5.635-.75 1.51-.75 2.624 0 1.094.25 1.965.75 2.61.508.637 1.195.953 2.062.953.852 0 1.532-.316 2.032-.953.507-.645.765-1.516.765-2.61 0-1.113-.257-1.988-.764-2.624-.5-.645-1.18-.97-2.032-.97zm0-.953c1.22 0 2.192.414 2.922 1.234.74.824 1.11 1.93 1.11 3.313 0 1.376-.37 2.477-1.11 3.298C6.926-.24 5.953.17 4.734.17c-1.23 0-2.214-.41-2.953-1.234C1.04-1.882.673-2.984.673-4.36c0-1.382.367-2.488 1.11-3.312.738-.82 1.722-1.234 2.952-1.234zm0 0"/></symbol><symbol overflow="visible" id="c"><path d="M1.172-8.75h5.03v1H2.36v2.578h3.468v1h-3.47V0H1.173zm0 0"/></symbol></defs><g><path fill="#fff" d="M0 0h300v300H0z"/><path d="M239.438 118.793l2.242-14.344" stroke-width="1.2" stroke="#cc0" stroke-miterlimit="10" fill="none"/><path d="M241.68 104.45l2.246-14.345" stroke-width="1.2" stroke="#f00" stroke-miterlimit="10" fill="none"/><path d="M232.688 117.738l2.242-14.343" stroke-width="1.2" stroke="#cc0" stroke-miterlimit="10" fill="none"/><path d="M234.93 103.395l2.246-14.344" stroke-width="1.2" stroke="#f00" stroke-miterlimit="10" fill="none"/><path d="M232.688 117.738l-2.243 14.344" stroke-width="1.2" stroke="#cc0" stroke-miterlimit="10" fill="none"/><path d="M230.445 132.082l-2.246 14.344" stroke-width="1.2" stroke="#f00" stroke-miterlimit="10" fill="none"/><path d="M239.438 118.793l-2.243 14.344" stroke-width="1.2" stroke="#cc0" stroke-miterlimit="10" fill="none"/><path d="M237.195 133.137l-2.246 14.343" stroke-width="1.2" stroke="#f00" stroke-miterlimit="10" fill="none"/><path d="M236.063 118.266l14.343 2.242" stroke-width="1.2" stroke="#cc0" stroke-miterlimit="10" fill="none"/><path d="M250.406 120.508l14.344 2.246" stroke-width="1.2" stroke="#000" stroke-miterlimit="10" fill="none"/><path d="M236.063 118.266l-14.344-2.246" stroke-width="1.2" stroke="#cc0" stroke-miterlimit="10" fill="none"/><path d="M221.72 116.02l-14.345-2.243" stroke-width="1.2" stroke="#000" stroke-miterlimit="10" fill="none"/><path d="M232.063 111.266h8v14h-8zm0 0" fill="#fff"/><use xlink:href="#a" x="232.063" y="122.404" fill="#cc0"/><path d="M235.55 82.578h10v14h-10zm0 0" fill="#fff"/><use xlink:href="#b" x="235.551" y="93.717" fill="#f00"/><path d="M226.574 139.953h10v14h-10zm0 0" fill="#fff"/><use xlink:href="#b" x="226.574" y="151.092" fill="#f00"/><path d="M207.375 113.777l-18.23 22.598M200.234 111.746l-14.586 18.082M196.918 86.688l10.457 27.09M189.145 136.375l-28.688-4.488M160.457 131.887L150 104.8M165.785 126.72l-8.367-21.673M150 104.8l18.23-22.6M150 104.8l-28.688-4.487M168.23 82.2l28.688 4.487M170.043 89.398l22.95 3.59M121.313 100.313l-10.458-27.09M113.895 100.063l-8.368-21.668M103.082 122.91l18.23-22.597M110.855 73.223l-28.687-4.49M82.168 68.734l-18.23 22.602M85.664 75.285L71.078 93.363M63.938 91.336L49.593 89.09" stroke-width="1.2" stroke="#000" stroke-miterlimit="10" fill="none"/><path d="M49.594 89.09L35.25 86.848" stroke-width="1.2" stroke="#3cc" stroke-miterlimit="10" fill="none"/><path d="M63.938 91.336l10.457 27.086" stroke-width="1.2" stroke="#000" stroke-miterlimit="10" fill="none"/><path d="M28.25 79.848h7v14h-7zm0 0" fill="#fff"/><use xlink:href="#c" x="28.25" y="90.986" fill="#3cc"/><path d="M74.395 118.422l-9.118 11.3" stroke-width="1.2" stroke="#000" stroke-miterlimit="10" fill="none"/><path d="M65.277 129.723l-9.113 11.3" stroke-width="1.2" stroke="#3cc" stroke-miterlimit="10" fill="none"/><path d="M74.395 118.422l28.687 4.488M78.32 112.12l22.95 3.595" stroke-width="1.2" stroke="#000" stroke-miterlimit="10" fill="none"/><path d="M49.164 134.023h7v14h-7zm0 0" fill="#fff"/><use xlink:href="#c" x="49.164" y="145.162" fill="#3cc"/><path d="M103.082 122.91L113.54 150M113.54 150l-18.23 22.602M117.035 156.55l-14.586 18.08M142.227 154.488L113.54 150M95.31 172.602l10.456 27.085M105.766 199.688l28.687 4.488M109.69 193.387l22.95 3.59M134.453 204.176l5.227 13.543" stroke-width="1.2" stroke="#000" stroke-miterlimit="10" fill="none"/><path d="M139.68 217.72l5.23 13.546" stroke-width="1.2" stroke="#3cc" stroke-miterlimit="10" fill="none"/><path d="M134.453 204.176l18.23-22.598" stroke-width="1.2" stroke="#000" stroke-miterlimit="10" fill="none"/><path d="M141.91 224.266h7v14h-7zm0 0" fill="#fff"/><use xlink:href="#c" x="141.91" y="235.404" fill="#3cc"/><path d="M152.684 181.578l-10.457-27.09M145.266 181.328l-8.368-21.672" stroke-width="1.2" stroke="#000" stroke-miterlimit="10" fill="none"/></g></svg>