<svg xmlns="http://www.w3.org/2000/svg" xmlns:xlink="http://www.w3.org/1999/xlink" width="300pt" height="300pt" viewBox="0 0 300 300"><defs><symbol overflow="visible"><path d="M.64 2.297v-11.47h6.5v11.47zm.735-.72h5.047V-8.436H1.375zm0 0"/></symbol><symbol overflow="visible" id="a"><path d="M5.125-8.61c-.938 0-1.684.352-2.234 1.047-.542.688-.812 1.633-.812 2.83 0 1.198.27 2.147.813 2.842.55.687 1.297 1.03 2.235 1.03.926 0 1.66-.343 2.203-1.03.55-.696.828-1.645.828-2.844 0-1.196-.277-2.14-.828-2.829-.543-.695-1.277-1.046-2.203-1.046zm0-1.046c1.32 0 2.38.45 3.172 1.344.8.898 1.203 2.09 1.203 3.578 0 1.5-.402 2.7-1.203 3.593C7.504-.255 6.445.186 5.125.186c-1.336 0-2.402-.44-3.203-1.328C1.13-2.036.734-3.235.734-4.735c0-1.49.395-2.68 1.188-3.579.8-.894 1.867-1.343 3.203-1.343zm0 0"/></symbol><symbol overflow="visible" id="b"><path d="M1.28-9.484H3l4.203 7.937v-7.937h1.25V0H6.72L2.515-7.922V0H1.28zm0 0"/></symbol></defs><g><path fill="#fff" d="M0 0h300v300H0z"/><path d="M98.906 225.074l15.832-6.45" stroke-width="1.2" stroke="#f00" stroke-miterlimit="10" fill="none"/><path d="M114.738 218.625l15.828-6.445" stroke-width="1.2" stroke="#00f" stroke-miterlimit="10" fill="none"/><path d="M76.863 198.945l11.02 13.063" stroke-width="1.2" stroke="#000" stroke-miterlimit="10" fill="none"/><path d="M87.883 212.008l11.023 13.066" stroke-width="1.2" stroke="#f00" stroke-miterlimit="10" fill="none"/><path d="M93.906 217.074h11v16h-11zm0 0" fill="#fff"/><use xlink:href="#a" x="93.906" y="229.45" fill="#f00"/><path d="M130.566 212.18l-1.238-17.047" stroke-width="1.2" stroke="#00f" stroke-miterlimit="10" fill="none"/><path d="M129.328 195.133l-1.238-17.047" stroke-width="1.2" stroke="#000" stroke-miterlimit="10" fill="none"/><path d="M122.297 209.355l-.992-13.64" stroke-width="1.2" stroke="#00f" stroke-miterlimit="10" fill="none"/><path d="M121.305 195.715l-.99-13.637" stroke-width="1.2" stroke="#000" stroke-miterlimit="10" fill="none"/><path d="M125.566 204.18h10v16h-10zm0 0" fill="#fff"/><use xlink:href="#b" x="125.566" y="216.556" fill="#00f"/><path d="M128.09 178.086l-33.192-8.18M128.09 178.086l26.125-22.043M94.898 169.906l-12.89-31.66M94.898 169.906l-18.035 29.04M99.926 177.055L85.5 200.285M82.008 138.246l-33.867-4.664M79.72 129.813l-27.095-3.73M102.98 111.254l-20.972 26.992M48.14 133.582l-12.89-31.66M35.25 101.922l20.973-26.996M43.7 104.156l16.777-21.594M56.223 74.926l33.863 4.668M90.086 79.594l12.894 31.66M83.926 85.793l10.312 25.328M76.863 198.945l-34.093 2.477M154.215 156.043l32.156 11.602M160.16 149.637l25.727 9.285M148.188 122.395l6.027 33.648M186.37 167.645l3.013 16.824" stroke-width="1.2" stroke="#000" stroke-miterlimit="10" fill="none"/><path d="M189.383 184.47l3.015 16.823" stroke-width="1.2" stroke="#f00" stroke-miterlimit="10" fill="none"/><path d="M186.37 167.645l26.126-22.043" stroke-width="1.2" stroke="#000" stroke-miterlimit="10" fill="none"/><path d="M192.398 201.293l16.08 5.805" stroke-width="1.2" stroke="#f00" stroke-miterlimit="10" fill="none"/><path d="M208.477 207.098l16.074 5.8" stroke-width="1.2" stroke="#000" stroke-miterlimit="10" fill="none"/><path d="M187.398 193.293h11v16h-11zm0 0" fill="#fff"/><use xlink:href="#a" x="187.398" y="205.669" fill="#f00"/><path d="M212.496 145.602l-6.027-33.65M203.977 143.656l-4.82-26.918M206.47 111.953l13.06-11.023" stroke-width="1.2" stroke="#000" stroke-miterlimit="10" fill="none"/><path d="M219.53 100.93l13.064-11.02" stroke-width="1.2" stroke="#f00" stroke-miterlimit="10" fill="none"/><path d="M206.47 111.953l-32.154-11.605" stroke-width="1.2" stroke="#000" stroke-miterlimit="10" fill="none"/><path d="M232.594 89.91l16.078 5.8" stroke-width="1.2" stroke="#f00" stroke-miterlimit="10" fill="none"/><path d="M248.672 95.71l16.078 5.802" stroke-width="1.2" stroke="#000" stroke-miterlimit="10" fill="none"/><path d="M227.594 81.91h11v16h-11zm0 0" fill="#fff"/><use xlink:href="#a" x="227.594" y="94.286" fill="#f00"/><path d="M174.316 100.348l-26.13 22.047M176.89 108.7l-20.902 17.636M148.188 122.395l-16.08-5.805" stroke-width="1.2" stroke="#000" stroke-miterlimit="10" fill="none"/><path d="M132.11 116.59l-16.075-5.8M116.035 110.79l-3.015-16.825" stroke-width="1.2" stroke="#f00" stroke-miterlimit="10" fill="none"/><path d="M113.02 93.965l-3.012-16.824" stroke-width="1.2" stroke="#000" stroke-miterlimit="10" fill="none"/><path d="M111.035 102.79h11v16h-11zm0 0" fill="#fff"/><use xlink:href="#a" x="111.035" y="115.165" fill="#f00"/></g></svg>