<svg xmlns="http://www.w3.org/2000/svg" xmlns:xlink="http://www.w3.org/1999/xlink" width="300pt" height="300pt" viewBox="0 0 300 300"><defs><symbol overflow="visible"><path d="M.797 2.828v-14.11h8V2.83zm.906-.89h6.203v-12.33H1.703zm0 0"/></symbol><symbol overflow="visible" id="a"><path d="M6.313-10.594c-1.15 0-2.06.43-2.735 1.28-.68.857-1.015 2.017-1.015 3.486 0 1.47.335 2.633 1.015 3.484.676.856 1.586 1.28 2.735 1.28 1.144.002 2.05-.424 2.718-1.28.665-.85 1-2.015 1-3.484 0-1.47-.335-2.63-1-3.484-.667-.852-1.573-1.282-2.717-1.282zm0-1.28c1.632 0 2.94.546 3.92 1.64.978 1.093 1.47 2.562 1.47 4.406 0 1.844-.492 3.32-1.47 4.422-.98 1.093-2.288 1.64-3.92 1.64-1.65 0-2.96-.546-3.938-1.64-.98-1.102-1.47-2.578-1.47-4.422 0-1.844.49-3.313 1.47-4.406.977-1.094 2.29-1.64 3.938-1.64zm0 0"/></symbol><symbol overflow="visible" id="b"><path d="M1.578-11.672h2.125l5.172 9.766v-9.766h1.53V0H8.282L3.11-9.766V0H1.577zm0 0"/></symbol></defs><g><path fill="#fff" d="M0 0h300v300H0z"/><path d="M110.855 237.145l19.106-.852" stroke-width="1.2" stroke="#f00" stroke-miterlimit="10" fill="none"/><path d="M129.96 236.293l19.106-.852" stroke-width="1.2" stroke="#00f" stroke-miterlimit="10" fill="none"/><path d="M97.426 201.332l6.715 17.906" stroke-width="1.2" stroke="#000" stroke-miterlimit="10" fill="none"/><path d="M104.14 219.238l6.715 17.907" stroke-width="1.2" stroke="#f00" stroke-miterlimit="10" fill="none"/><path d="M104.855 227.645h13v19h-13zm0 0" fill="#fff"/><use xlink:href="#a" x="104.855" y="242.496" fill="#f00"/><path d="M149.066 235.44l5.094-18.432" stroke-width="1.2" stroke="#00f" stroke-miterlimit="10" fill="none"/><path d="M154.16 217.008l5.094-18.438" stroke-width="1.2" stroke="#000" stroke-miterlimit="10" fill="none"/><path d="M141.41 229.355l4.074-14.746" stroke-width="1.2" stroke="#00f" stroke-miterlimit="10" fill="none"/><path d="M145.484 214.61l4.078-14.747" stroke-width="1.2" stroke="#000" stroke-miterlimit="10" fill="none"/><path d="M143.066 225.94h12v19h-12zm0 0" fill="#fff"/><use xlink:href="#b" x="143.066" y="240.793" fill="#00f"/><path d="M159.254 198.57l-31.914-21.078M159.254 198.57l35.816-13.43M127.34 177.492l-1.707-38.215M127.34 177.492l-29.914 23.84M129.957 186.914l-23.93 19.07M125.633 139.277l32.242-20.582M124.016 129.633l25.79-16.465M91.688 121.648l33.945 17.63M157.875 118.695l-1.707-38.21M156.168 80.484l-33.945-17.63M148.625 86.707L121.47 72.605M122.223 62.855l-32.24 20.583M89.984 83.438l1.704 38.21M99.145 86.855l1.363 30.57M97.426 201.332L60.56 191.145M60.56 191.145L33.3 217.98M195.07 185.14l29.535 24.305M203.742 180.62l23.63 19.442M201.348 147.41l-6.278 37.73M224.605 209.445l35.817-13.43M260.422 196.016l6.277-37.735M252.172 190.766l5.02-30.188M266.7 158.28l-29.54-24.3M237.16 133.98l-35.812 13.43M236.738 143.75l-28.652 10.746" stroke-width="1.2" stroke="#000" stroke-miterlimit="10" fill="none"/></g></svg>