<svg xmlns="http://www.w3.org/2000/svg" xmlns:xlink="http://www.w3.org/1999/xlink" width="300pt" height="300pt" viewBox="0 0 300 300"><defs><symbol overflow="visible"><path d="M.594 2.125V-8.47h6V2.126zm.672-.672h4.671V-7.78h-4.67zm0 0"/></symbol><symbol overflow="visible" id="a"><path d="M6.422-8.47v1.158c-.45-.208-.875-.364-1.28-.47-.4-.113-.78-.17-1.142-.17-.648 0-1.148.124-1.5.374-.344.25-.516.61-.516 1.078 0 .387.114.68.344.875.227.2.672.355 1.328.47L4.36-5c.882.168 1.535.465 1.952.89.426.42.64.98.64 1.688 0 .856-.288 1.5-.858 1.938-.563.437-1.4.656-2.5.656-.406 0-.844-.047-1.313-.14C1.814-.064 1.33-.204.83-.392v-1.22c.477.274.945.477 1.406.61.47.137.922.203 1.36.203.676 0 1.195-.13 1.562-.39.375-.27.563-.65.563-1.14 0-.427-.138-.76-.407-1-.262-.25-.696-.43-1.297-.548l-.72-.14c-.886-.176-1.526-.454-1.92-.83-.388-.374-.58-.893-.58-1.56 0-.782.27-1.392.813-1.83.538-.445 1.288-.67 2.25-.67.413 0 .83.038 1.25.108.425.074.863.184 1.312.328zm0 0"/></symbol><symbol overflow="visible" id="b"><path d="M4.734-7.953c-.867 0-1.554.324-2.062.97-.5.635-.75 1.51-.75 2.624 0 1.094.25 1.965.75 2.61.508.637 1.195.953 2.062.953.852 0 1.532-.316 2.032-.953.507-.645.765-1.516.765-2.61 0-1.113-.257-1.988-.764-2.624-.5-.645-1.18-.97-2.032-.97zm0-.953c1.22 0 2.192.414 2.922 1.234.74.824 1.11 1.93 1.11 3.313 0 1.376-.37 2.477-1.11 3.298C6.926-.24 5.953.17 4.734.17c-1.23 0-2.214-.41-2.953-1.234C1.04-1.882.673-2.984.673-4.36c0-1.382.367-2.488 1.11-3.312.738-.82 1.722-1.234 2.952-1.234zm0 0"/></symbol><symbol overflow="visible" id="c"><path d="M1.172-8.75h1.594l3.89 7.313V-8.75h1.14V0H6.204L2.328-7.313V0H1.172zm0 0"/></symbol></defs><g><path fill="#fff" d="M0 0h300v300H0z"/><path d="M62.566 115.637l-1.742 15.476" stroke-width="1.2" stroke="#cc0" stroke-miterlimit="10" fill="none"/><path d="M60.824 131.113l-1.738 15.48" stroke-width="1.2" stroke="#f00" stroke-miterlimit="10" fill="none"/><path d="M69.848 116.457l-1.74 15.477" stroke-width="1.2" stroke="#cc0" stroke-miterlimit="10" fill="none"/><path d="M68.11 131.934l-1.743 15.48" stroke-width="1.2" stroke="#f00" stroke-miterlimit="10" fill="none"/><path d="M69.848 116.457l1.742-15.48" stroke-width="1.2" stroke="#cc0" stroke-miterlimit="10" fill="none"/><path d="M71.59 100.977L73.332 85.5" stroke-width="1.2" stroke="#f00" stroke-miterlimit="10" fill="none"/><path d="M62.566 115.637l1.74-15.48" stroke-width="1.2" stroke="#cc0" stroke-miterlimit="10" fill="none"/><path d="M64.305 100.156l1.742-15.476" stroke-width="1.2" stroke="#f00" stroke-miterlimit="10" fill="none"/><path d="M66.207 116.047l-15.477-1.742" stroke-width="1.2" stroke="#cc0" stroke-miterlimit="10" fill="none"/><path d="M50.73 114.305l-15.48-1.74" stroke-width="1.2" stroke="#000" stroke-miterlimit="10" fill="none"/><path d="M66.207 116.047l15.48 1.738" stroke-width="1.2" stroke="#cc0" stroke-miterlimit="10" fill="none"/><path d="M81.688 117.785l15.476 1.742" stroke-width="1.2" stroke="#000" stroke-miterlimit="10" fill="none"/><path d="M62.207 109.047h8v14h-8zm0 0" fill="#fff"/><use xlink:href="#a" x="62.207" y="120.186" fill="#cc0"/><path d="M57.727 140.004h10v14h-10zm0 0" fill="#fff"/><use xlink:href="#b" x="57.727" y="151.143" fill="#f00"/><path d="M64.688 78.09h10v14h-10zm0 0" fill="#fff"/><use xlink:href="#b" x="64.688" y="89.229" fill="#f00"/><path d="M97.164 119.527l18.492-25.07M104.914 121.37l14.793-20.054M109.63 148.078l-12.466-28.55M115.656 94.457l30.957 3.48M146.613 97.938l12.465 28.55M141.145 103.727l9.968 22.84M159.078 126.488l-18.492 25.07M159.078 126.488l30.957 3.48M140.586 151.56l-30.957-3.482M138.31 143.926l-24.767-2.785M190.035 129.97l21.012-22.997M197.55 132.613l16.81-18.398M205.418 157.063l-15.383-27.094M211.047 106.973l14.183 6.437" stroke-width="1.2" stroke="#000" stroke-miterlimit="10" fill="none"/><path d="M225.23 113.41l14.184 6.438" stroke-width="1.2" stroke="#00f" stroke-miterlimit="10" fill="none"/><path d="M208.016 75.97l3.03 31.003" stroke-width="1.2" stroke="#000" stroke-miterlimit="10" fill="none"/><path d="M239.414 119.848l-3.48 30.957M239.414 119.848l25.336-18.125" stroke-width="1.2" stroke="#00f" stroke-miterlimit="10" fill="none"/><path d="M235.414 112.848h9v14h-9zm0 0" fill="#fff"/><use xlink:href="#c" x="235.414" y="123.986" fill="#00f"/><path d="M235.934 150.805l-15.258 3.13" stroke-width="1.2" stroke="#00f" stroke-miterlimit="10" fill="none"/><path d="M220.676 153.934l-15.258 3.13" stroke-width="1.2" stroke="#000" stroke-miterlimit="10" fill="none"/><path d="M231.41 144.25l-12.207 2.504" stroke-width="1.2" stroke="#00f" stroke-miterlimit="10" fill="none"/><path d="M219.203 146.754l-12.207 2.5" stroke-width="1.2" stroke="#000" stroke-miterlimit="10" fill="none"/><path d="M231.934 143.805h9v14h-9zm0 0" fill="#fff"/><use xlink:href="#c" x="231.934" y="154.943" fill="#00f"/><path d="M205.418 157.063l-12.88 28.367M192.54 185.43l-31.005 3.03M190.152 193.027l-24.804 2.422M210.668 210.762l-18.13-25.332M161.535 188.46l-12.88 28.364M148.656 216.824l18.13 25.336M156.43 215.094l14.504 20.27M166.785 242.16l31.004-3.03M197.79 239.13l12.878-28.368M192.402 233.262l10.3-22.692" stroke-width="1.2" stroke="#000" stroke-miterlimit="10" fill="none"/><path d="M264.75 101.723l-1.516-15.504" stroke-width="1.2" stroke="#00f" stroke-miterlimit="10" fill="none"/><path d="M263.234 86.22l-1.515-15.505" stroke-width="1.2" stroke="#000" stroke-miterlimit="10" fill="none"/><path d="M257.152 99.332l-1.214-12.398" stroke-width="1.2" stroke="#00f" stroke-miterlimit="10" fill="none"/><path d="M255.938 86.934l-1.21-12.403" stroke-width="1.2" stroke="#000" stroke-miterlimit="10" fill="none"/><path d="M260.75 94.723h9v14h-9zm0 0" fill="#fff"/><use xlink:href="#c" x="260.75" y="105.861" fill="#00f"/><path d="M261.72 70.715L233.35 57.84M233.352 57.84l-25.336 18.13M235.086 65.613l-20.27 14.504" stroke-width="1.2" stroke="#000" stroke-miterlimit="10" fill="none"/></g></svg>