<svg xmlns="http://www.w3.org/2000/svg" xmlns:xlink="http://www.w3.org/1999/xlink" width="300pt" height="300pt" viewBox="0 0 300 300"><defs><symbol overflow="visible"><path d="M.453 1.594v-7.938h4.5v7.938zm.5-.5h3.5v-6.938h-3.5zm0 0"/></symbol><symbol overflow="visible" id="a"><path d="M4.813-6.344v.86c-.336-.157-.653-.27-.954-.344-.294-.082-.58-.125-.86-.125-.492 0-.867.094-1.125.28-.262.19-.39.454-.39.798 0 .293.085.512.265.656.176.15.504.267.984.36l.547.11c.658.125 1.142.352 1.454.672.32.312.485.734.485 1.265 0 .637-.216 1.122-.642 1.454-.43.325-1.055.485-1.875.485-.312 0-.648-.04-1-.11C1.36-.046 1-.147.625-.296v-.906c.352.2.703.35 1.047.453.35.105.695.156 1.03.156.5 0 .884-.097 1.157-.297.28-.196.42-.485.42-.86 0-.32-.1-.57-.296-.75-.2-.176-.523-.313-.968-.406l-.547-.11C1.81-3.148 1.33-3.36 1.03-3.64.74-3.923.595-4.313.595-4.813c0-.57.203-1.024.61-1.36.405-.344.968-.516 1.687-.516.313 0 .626.032.938.094.32.055.65.137.985.25zm0 0"/></symbol><symbol overflow="visible" id="b"><path d="M3.547-5.953c-.65 0-1.164.242-1.547.72-.375.48-.563 1.13-.563 1.952 0 .835.188 1.49.563 1.967.383.48.898.72 1.547.72.644 0 1.156-.24 1.53-.72.376-.476.564-1.132.564-1.968 0-.822-.187-1.474-.562-1.954-.375-.477-.887-.72-1.53-.72zm0-.734c.914 0 1.648.312 2.203.937.55.617.828 1.438.828 2.47 0 1.042-.277 1.87-.828 2.483-.555.617-1.29.922-2.203.922-.93 0-1.668-.305-2.22-.922C.774-1.41.5-2.237.5-3.28c0-1.033.273-1.853.828-2.47.55-.625 1.29-.938 2.22-.938zm0 0"/></symbol><symbol overflow="visible" id="c"><path d="M.89-6.563H2.08l2.906 5.485v-5.484h.86V0H4.656L1.75-5.484V0H.89zm0 0"/></symbol><symbol overflow="visible" id="d"><path d="M.89-6.563h3.766v.75h-2.89v1.938h2.61v.734h-2.61V0H.89zm0 0"/></symbol></defs><g><path fill="#fff" d="M0 0h300v300H0z"/><path d="M247.887 183.79l2.773-9.556" stroke-width="1.2" stroke="#cc0" stroke-miterlimit="10" fill="none"/><path d="M250.66 174.234l2.77-9.554" stroke-width="1.2" stroke="#f00" stroke-miterlimit="10" fill="none"/><path d="M243.39 182.484l2.77-9.554" stroke-width="1.2" stroke="#cc0" stroke-miterlimit="10" fill="none"/><path d="M246.16 172.93l2.774-9.555" stroke-width="1.2" stroke="#f00" stroke-miterlimit="10" fill="none"/><path d="M243.39 182.484l-2.77 9.555" stroke-width="1.2" stroke="#cc0" stroke-miterlimit="10" fill="none"/><path d="M240.62 192.04l-2.772 9.554" stroke-width="1.2" stroke="#f00" stroke-miterlimit="10" fill="none"/><path d="M247.887 183.79l-2.77 9.554" stroke-width="1.2" stroke="#cc0" stroke-miterlimit="10" fill="none"/><path d="M245.117 193.344l-2.77 9.554" stroke-width="1.2" stroke="#f00" stroke-miterlimit="10" fill="none"/><path d="M245.64 183.137l9.555 2.77" stroke-width="1.2" stroke="#cc0" stroke-miterlimit="10" fill="none"/><path d="M255.195 185.906l9.555 2.774" stroke-width="1.2" stroke="#000" stroke-miterlimit="10" fill="none"/><path d="M245.64 183.137l-9.554-2.77" stroke-width="1.2" stroke="#cc0" stroke-miterlimit="10" fill="none"/><path d="M236.086 180.367l-9.56-2.773" stroke-width="1.2" stroke="#000" stroke-miterlimit="10" fill="none"/><path d="M242.64 177.637h6v11h-6zm0 0" fill="#fff"/><use xlink:href="#a" x="242.641" y="186.3" fill="#cc0"/><path d="M247.18 158.527h8v11h-8zm0 0" fill="#fff"/><use xlink:href="#b" x="247.18" y="167.19" fill="#f00"/><path d="M236.098 196.746h8v11h-8zm0 0" fill="#fff"/><use xlink:href="#b" x="236.098" y="205.409" fill="#f00"/><path d="M226.527 177.594l-14.35 13.78M221.852 175.594l-11.485 11.027M221.773 158.273l4.754 19.32M212.176 191.375l-19.113-5.543M193.063 185.832l-4.754-19.32M197.133 182.78l-3.805-15.456M188.31 166.512l-9.556-2.77" stroke-width="1.2" stroke="#000" stroke-miterlimit="10" fill="none"/><path d="M178.754 163.742l-9.56-2.77" stroke-width="1.2" stroke="#00f" stroke-miterlimit="10" fill="none"/><path d="M188.31 166.512l14.35-13.778" stroke-width="1.2" stroke="#000" stroke-miterlimit="10" fill="none"/><path d="M169.195 160.973l-15.715 12.203" stroke-width="1.2" stroke="#00f" stroke-miterlimit="10" fill="none"/><path d="M162.445 142.254l3.375 9.36" stroke-width="1.2" stroke="#000" stroke-miterlimit="10" fill="none"/><path d="M165.82 151.613l3.375 9.36" stroke-width="1.2" stroke="#00f" stroke-miterlimit="10" fill="none"/><path d="M166.195 155.473h7v11h-7zm0 0" fill="#fff"/><use xlink:href="#c" x="166.195" y="164.136" fill="#00f"/><path d="M153.48 173.176l-8.23-5.59" stroke-width="1.2" stroke="#00f" stroke-miterlimit="10" fill="none"/><path d="M145.25 167.586L137.02 162" stroke-width="1.2" stroke="#000" stroke-miterlimit="10" fill="none"/><path d="M154.465 168.184l-6.586-4.473" stroke-width="1.2" stroke="#00f" stroke-miterlimit="10" fill="none"/><path d="M147.88 163.71l-6.587-4.468" stroke-width="1.2" stroke="#000" stroke-miterlimit="10" fill="none"/><path d="M150.48 167.676h7v11h-7zm0 0" fill="#fff"/><use xlink:href="#c" x="150.48" y="176.339" fill="#00f"/><path d="M137.02 162l5.54-19.113M137.02 162l-18.72 6.75M142.56 142.887l19.885-.633M144.7 147.504l15.91-.508M162.445 142.254l11.176-16.465M173.62 125.79l19.85 1.448M175.95 121.266l15.874 1.156M164.953 107.88l8.668 17.91M193.47 127.238l11.175-16.465M204.645 110.773l-8.672-17.91M199.563 111.023l-6.934-14.328M195.973 92.863l-19.844-1.445M176.13 91.418l-11.177 16.46M178.887 95.69l-8.942 13.173M118.3 168.75l-7.6-6.418" stroke-width="1.2" stroke="#000" stroke-miterlimit="10" fill="none"/><path d="M110.7 162.332l-7.606-6.418M103.094 155.914l-9.36 3.375" stroke-width="1.2" stroke="#f00" stroke-miterlimit="10" fill="none"/><path d="M93.734 159.29l-9.355 3.374" stroke-width="1.2" stroke="#000" stroke-miterlimit="10" fill="none"/><path d="M99.094 150.414h8v11h-8zm0 0" fill="#fff"/><use xlink:href="#b" x="99.094" y="159.077" fill="#f00"/><path d="M84.38 162.664L69.17 149.828M79.836 164.957l-12.164-10.27M80.863 182.25l3.516-19.586M69.172 149.828l-18.72 6.75M50.453 156.578l-7.6-6.418" stroke-width="1.2" stroke="#000" stroke-miterlimit="10" fill="none"/><path d="M42.852 150.16l-7.602-6.418" stroke-width="1.2" stroke="#f00" stroke-miterlimit="10" fill="none"/><path d="M50.453 156.578l-3.512 19.586M54.71 159.363l-2.808 15.668" stroke-width="1.2" stroke="#000" stroke-miterlimit="10" fill="none"/><path d="M35.25 143.742l1.758-9.793" stroke-width="1.2" stroke="#f00" stroke-miterlimit="10" fill="none"/><path d="M37.008 133.95l1.754-9.794" stroke-width="1.2" stroke="#000" stroke-miterlimit="10" fill="none"/><path d="M31.25 138.242h8v11h-8zm0 0" fill="#fff"/><use xlink:href="#b" x="31.25" y="146.905" fill="#f00"/><path d="M46.94 176.164l15.205 12.832M62.145 188.996l-1.754 9.793" stroke-width="1.2" stroke="#000" stroke-miterlimit="10" fill="none"/><path d="M60.39 198.79l-1.757 9.792" stroke-width="1.2" stroke="#3cc" stroke-miterlimit="10" fill="none"/><path d="M62.145 188.996l18.718-6.746M62.43 183.918l14.972-5.398" stroke-width="1.2" stroke="#000" stroke-miterlimit="10" fill="none"/><path d="M55.633 203.082h6v11h-6zm0 0" fill="#fff"/><use xlink:href="#d" x="55.633" y="211.745" fill="#3cc"/><path d="M202.66 152.734l19.113 5.54M203.27 157.785l15.29 4.43" stroke-width="1.2" stroke="#000" stroke-miterlimit="10" fill="none"/></g></svg>