<svg xmlns="http://www.w3.org/2000/svg" xmlns:xlink="http://www.w3.org/1999/xlink" width="300pt" height="300pt" viewBox="0 0 300 300"><defs><symbol overflow="visible"><path d="M.64 2.297v-11.47h6.5v11.47zm.735-.72h5.047V-8.436H1.375zm0 0"/></symbol><symbol overflow="visible" id="a"><path d="M6.953-9.172v1.25c-.48-.226-.937-.398-1.375-.516-.43-.113-.844-.17-1.25-.17-.7 0-1.242.135-1.625.405-.375.273-.562.656-.562 1.156 0 .418.126.734.376.953.257.21.738.383 1.437.516l.78.156c.947.188 1.65.512 2.11.97.458.46.688 1.073.688 1.843 0 .92-.307 1.618-.92 2.094-.618.47-1.524.704-2.72.704-.45 0-.93-.055-1.437-.157C1.953-.07 1.43-.222.89-.42v-1.312c.52.293 1.032.51 1.532.656.5.148.988.22 1.47.22.737 0 1.303-.142 1.702-.423.394-.29.593-.704.593-1.236 0-.468-.148-.832-.437-1.093-.28-.257-.746-.456-1.39-.593l-.782-.156c-.96-.187-1.652-.484-2.078-.89-.43-.406-.64-.97-.64-1.688 0-.843.288-1.503.874-1.984.594-.488 1.41-.734 2.454-.734.437 0 .882.043 1.343.125.47.085.943.202 1.423.358zm0 0"/></symbol><symbol overflow="visible" id="b"><path d="M5.125-8.61c-.938 0-1.684.352-2.234 1.047-.542.688-.812 1.633-.812 2.83 0 1.198.27 2.147.813 2.842.55.687 1.297 1.03 2.235 1.03.926 0 1.66-.343 2.203-1.03.55-.696.828-1.645.828-2.844 0-1.196-.277-2.14-.828-2.829-.543-.695-1.277-1.046-2.203-1.046zm0-1.046c1.32 0 2.38.45 3.172 1.344.8.898 1.203 2.09 1.203 3.578 0 1.5-.402 2.7-1.203 3.593C7.504-.255 6.445.186 5.125.186c-1.336 0-2.402-.44-3.203-1.328C1.13-2.036.734-3.235.734-4.735c0-1.49.395-2.68 1.188-3.579.8-.894 1.867-1.343 3.203-1.343zm0 0"/></symbol><symbol overflow="visible" id="c"><path d="M1.28-9.484H3l4.203 7.937v-7.937h1.25V0H6.72L2.515-7.922V0H1.28zm0 0"/></symbol><symbol overflow="visible" id="d"><path d="M1.28-9.484h1.282v3.89H7.22v-3.89H8.5V0H7.22v-4.516H2.562V0H1.28zm0 0"/></symbol><symbol overflow="visible" id="f"><path d="M1.28-9.484h5.44v1.093H2.562v2.78h3.75v1.08h-3.75V0H1.28zm0 0"/></symbol><symbol overflow="visible"><path d="M.547 1.938V-7.75h5.5v9.688zm.625-.61h4.266v-8.47H1.171zm0 0"/></symbol><symbol overflow="visible" id="e"><path d="M5.063-6.89v2.984h2.984v.922H5.062V0h-.906v-2.984H1.172v-.922h2.984V-6.89zm0 0"/></symbol></defs><g><path fill="#fff" d="M0 0h300v300H0z"/><path d="M118.29 154.875l10.007-12.55" stroke-width="1.2" stroke="#cc0" stroke-miterlimit="10" fill="none"/><path d="M128.297 142.324l10.004-12.55" stroke-width="1.2" stroke="#f00" stroke-miterlimit="10" fill="none"/><path d="M112.383 150.164l10.008-12.55" stroke-width="1.2" stroke="#cc0" stroke-miterlimit="10" fill="none"/><path d="M122.39 137.613l10.005-12.55" stroke-width="1.2" stroke="#f00" stroke-miterlimit="10" fill="none"/><path d="M112.383 150.164l-10.008 12.555" stroke-width="1.2" stroke="#cc0" stroke-miterlimit="10" fill="none"/><path d="M102.375 162.72L92.37 175.27" stroke-width="1.2" stroke="#f00" stroke-miterlimit="10" fill="none"/><path d="M118.29 154.875l-10.01 12.55" stroke-width="1.2" stroke="#cc0" stroke-miterlimit="10" fill="none"/><path d="M108.28 167.426l-10.003 12.55" stroke-width="1.2" stroke="#f00" stroke-miterlimit="10" fill="none"/><path d="M115.336 152.52l12.55 10.007" stroke-width="1.2" stroke="#cc0" stroke-miterlimit="10" fill="none"/><path d="M127.887 162.527l12.55 10.008" stroke-width="1.2" stroke="#000" stroke-miterlimit="10" fill="none"/><path d="M115.336 152.52l-12.55-10.004" stroke-width="1.2" stroke="#cc0" stroke-miterlimit="10" fill="none"/><path d="M102.785 142.516l-12.55-10.008" stroke-width="1.2" stroke="#000" stroke-miterlimit="10" fill="none"/><path d="M111.336 144.52h9v16h-9zm0 0" fill="#fff"/><use xlink:href="#a" x="111.336" y="156.896" fill="#cc0"/><path d="M130.348 119.418h11v16h-11zm0 0" fill="#fff"/><use xlink:href="#b" x="130.348" y="131.794" fill="#f00"/><path d="M84.324 169.62h11v16h-11zm0 0" fill="#fff"/><use xlink:href="#b" x="84.324" y="181.997" fill="#f00"/><path d="M140.438 172.535l-4.782 31.742M147.43 176.832l-3.825 25.398M170.32 160.8l-29.882 11.735M135.656 204.277l12.55 10.008" stroke-width="1.2" stroke="#000" stroke-miterlimit="10" fill="none"/><path d="M148.207 214.285l12.55 10.008M160.758 224.293l14.94-5.867" stroke-width="1.2" stroke="#00f" stroke-miterlimit="10" fill="none"/><path d="M175.7 218.426l14.94-5.867" stroke-width="1.2" stroke="#000" stroke-miterlimit="10" fill="none"/><path d="M160.988 216.086l11.953-4.69" stroke-width="1.2" stroke="#00f" stroke-miterlimit="10" fill="none"/><path d="M172.94 211.395l11.955-4.692" stroke-width="1.2" stroke="#000" stroke-miterlimit="10" fill="none"/><path d="M145.758 214.793h30v19h-30zm0 0" fill="#fff"/><g fill="#00f"><use xlink:href="#c" x="145.758" y="229.988"/><use xlink:href="#d" x="155.728" y="229.988"/></g><use xlink:href="#e" x="165.75" y="225.105" fill="#00f"/><path d="M190.64 212.56l4.782-31.748M195.422 180.813L170.32 160.8M188.203 184.72l-20.082-16.013M170.32 160.8l2.39-15.87" stroke-width="1.2" stroke="#000" stroke-miterlimit="10" fill="none"/><path d="M172.71 144.93l2.392-15.875M175.102 129.055l14.94-5.864" stroke-width="1.2" stroke="#00f" stroke-miterlimit="10" fill="none"/><path d="M190.043 123.19l14.94-5.866" stroke-width="1.2" stroke="#cc0" stroke-miterlimit="10" fill="none"/><path d="M165.102 121.055h20v16h-20zm0 0" fill="#fff"/><g fill="#00f"><use xlink:href="#c" x="165.102" y="133.431"/><use xlink:href="#d" x="175.071" y="133.431"/></g><path d="M201.47 118.703l5.866 14.942" stroke-width="1.2" stroke="#cc0" stroke-miterlimit="10" fill="none"/><path d="M207.336 133.645l5.867 14.94" stroke-width="1.2" stroke="#f00" stroke-miterlimit="10" fill="none"/><path d="M208.5 115.94l5.867 14.943" stroke-width="1.2" stroke="#cc0" stroke-miterlimit="10" fill="none"/><path d="M214.367 130.883l5.867 14.94" stroke-width="1.2" stroke="#f00" stroke-miterlimit="10" fill="none"/><path d="M208.5 115.94L202.633 101" stroke-width="1.2" stroke="#cc0" stroke-miterlimit="10" fill="none"/><path d="M202.633 101l-5.863-14.94" stroke-width="1.2" stroke="#f00" stroke-miterlimit="10" fill="none"/><path d="M201.47 118.703l-5.868-14.94" stroke-width="1.2" stroke="#cc0" stroke-miterlimit="10" fill="none"/><path d="M195.602 103.762l-5.864-14.942" stroke-width="1.2" stroke="#f00" stroke-miterlimit="10" fill="none"/><path d="M204.984 117.324l14.942-5.867" stroke-width="1.2" stroke="#cc0" stroke-miterlimit="10" fill="none"/><path d="M219.926 111.457l14.94-5.867" stroke-width="1.2" stroke="#000" stroke-miterlimit="10" fill="none"/><path d="M200.984 109.324h9v16h-9zm0 0" fill="#fff"/><use xlink:href="#a" x="200.984" y="121.7" fill="#cc0"/><path d="M211.72 139.207h11v16h-11zm0 0" fill="#fff"/><use xlink:href="#b" x="211.719" y="151.583" fill="#f00"/><path d="M182.254 79.44h11v16h-11zm0 0" fill="#fff"/><use xlink:href="#b" x="182.254" y="91.817" fill="#f00"/><path d="M234.867 105.59l5.867 14.94" stroke-width="1.2" stroke="#000" stroke-miterlimit="10" fill="none"/><path d="M240.734 120.53l5.868 14.943" stroke-width="1.2" stroke="#3cc" stroke-miterlimit="10" fill="none"/><path d="M234.867 105.59L229 90.648" stroke-width="1.2" stroke="#000" stroke-miterlimit="10" fill="none"/><path d="M229 90.648l-5.863-14.94" stroke-width="1.2" stroke="#3cc" stroke-miterlimit="10" fill="none"/><path d="M234.867 105.59l14.942-5.863" stroke-width="1.2" stroke="#000" stroke-miterlimit="10" fill="none"/><path d="M249.81 99.727l14.94-5.868" stroke-width="1.2" stroke="#3cc" stroke-miterlimit="10" fill="none"/><path d="M242.602 127.473h8v16h-8zm0 0" fill="#fff"/><use xlink:href="#f" x="242.602" y="139.849" fill="#3cc"/><path d="M215.137 67.707h8v16h-8zm0 0" fill="#fff"/><use xlink:href="#f" x="215.137" y="80.083" fill="#3cc"/><path d="M260.75 85.86h8v16h-8zm0 0" fill="#fff"/><use xlink:href="#f" x="260.75" y="98.235" fill="#3cc"/><path d="M90.234 132.508l4.782-31.746M83.242 128.207l3.824-25.394M60.352 144.238l29.882-11.73M95.016 100.762L69.914 80.75M69.914 80.75L40.03 92.48M69.688 88.953L45.78 98.34M40.03 92.48l-4.78 31.747M35.25 124.227l25.102 20.01M42.47 120.32l20.08 16.012" stroke-width="1.2" stroke="#000" stroke-miterlimit="10" fill="none"/></g></svg>