<svg xmlns="http://www.w3.org/2000/svg" xmlns:xlink="http://www.w3.org/1999/xlink" width="300pt" height="300pt" viewBox="0 0 300 300"><defs><symbol overflow="visible"><path d="M.453 1.594v-7.938h4.5v7.938zm.5-.5h3.5v-6.938h-3.5zm0 0"/></symbol><symbol overflow="visible" id="a"><path d="M4.813-6.344v.86c-.336-.157-.653-.27-.954-.344-.294-.082-.58-.125-.86-.125-.492 0-.867.094-1.125.28-.262.19-.39.454-.39.798 0 .293.085.512.265.656.176.15.504.267.984.36l.547.11c.658.125 1.142.352 1.454.672.32.312.485.734.485 1.265 0 .637-.216 1.122-.642 1.454-.43.325-1.055.485-1.875.485-.312 0-.648-.04-1-.11C1.36-.046 1-.147.625-.296v-.906c.352.2.703.35 1.047.453.35.105.695.156 1.03.156.5 0 .884-.097 1.157-.297.28-.196.42-.485.42-.86 0-.32-.1-.57-.296-.75-.2-.176-.523-.313-.968-.406l-.547-.11C1.81-3.148 1.33-3.36 1.03-3.64.74-3.923.595-4.313.595-4.813c0-.57.203-1.024.61-1.36.405-.344.968-.516 1.687-.516.313 0 .626.032.938.094.32.055.65.137.985.25zm0 0"/></symbol><symbol overflow="visible" id="b"><path d="M3.547-5.953c-.65 0-1.164.242-1.547.72-.375.48-.563 1.13-.563 1.952 0 .835.188 1.49.563 1.967.383.48.898.72 1.547.72.644 0 1.156-.24 1.53-.72.376-.476.564-1.132.564-1.968 0-.822-.187-1.474-.562-1.954-.375-.477-.887-.72-1.53-.72zm0-.734c.914 0 1.648.312 2.203.937.55.617.828 1.438.828 2.47 0 1.042-.277 1.87-.828 2.483-.555.617-1.29.922-2.203.922-.93 0-1.668-.305-2.22-.922C.774-1.41.5-2.237.5-3.28c0-1.033.273-1.853.828-2.47.55-.625 1.29-.938 2.22-.938zm0 0"/></symbol><symbol overflow="visible" id="c"><path d="M.89-6.563H2.08l2.906 5.485v-5.484h.86V0H4.656L1.75-5.484V0H.89zm0 0"/></symbol><symbol overflow="visible" id="e"><path d="M.89-6.563h3.766v.75h-2.89v1.938h2.61v.734h-2.61V0H.89zm0 0"/></symbol><symbol overflow="visible"><path d="M.406 1.422V-5.64h4V1.42zM.844.97h3.11v-6.157H.843zm0 0"/></symbol><symbol overflow="visible" id="d"><path d="M.39-2.516H2.5v.64H.39zm0 0"/></symbol></defs><g><path fill="#fff" d="M0 0h300v300H0z"/><path d="M106.57 222.133l10.46 7.133" stroke-width="1.2" stroke="#cc0" stroke-miterlimit="10" fill="none"/><path d="M117.03 229.266l10.462 7.136" stroke-width="1.2" stroke="#f00" stroke-miterlimit="10" fill="none"/><path d="M109.93 217.21l10.46 7.134" stroke-width="1.2" stroke="#cc0" stroke-miterlimit="10" fill="none"/><path d="M120.39 224.344l10.462 7.136" stroke-width="1.2" stroke="#f00" stroke-miterlimit="10" fill="none"/><path d="M109.93 217.21l-10.46-7.136" stroke-width="1.2" stroke="#cc0" stroke-miterlimit="10" fill="none"/><path d="M99.47 210.074l-10.462-7.133" stroke-width="1.2" stroke="#f00" stroke-miterlimit="10" fill="none"/><path d="M106.57 222.133l-10.46-7.137" stroke-width="1.2" stroke="#cc0" stroke-miterlimit="10" fill="none"/><path d="M96.11 214.996l-10.462-7.133" stroke-width="1.2" stroke="#f00" stroke-miterlimit="10" fill="none"/><path d="M108.25 219.672l-7.137 10.46" stroke-width="1.2" stroke="#cc0" stroke-miterlimit="10" fill="none"/><path d="M101.113 230.133l-7.133 10.46" stroke-width="1.2" stroke="#000" stroke-miterlimit="10" fill="none"/><path d="M108.25 219.672l7.133-10.46" stroke-width="1.2" stroke="#cc0" stroke-miterlimit="10" fill="none"/><path d="M115.383 209.21l7.137-10.46" stroke-width="1.2" stroke="#000" stroke-miterlimit="10" fill="none"/><path d="M105.25 214.172h6v11h-6zm0 0" fill="#fff"/><use xlink:href="#a" x="105.25" y="222.835" fill="#cc0"/><path d="M125.172 228.44h8v11h-8zm0 0" fill="#fff"/><use xlink:href="#b" x="125.172" y="237.104" fill="#f00"/><path d="M79.328 199.902h8v11h-8zm0 0" fill="#fff"/><use xlink:href="#b" x="79.328" y="208.565" fill="#f00"/><path d="M122.52 198.75l-10.985-22.82M126.79 193.883l-8.786-18.258M147.773 200.645l-25.253-1.895M111.535 175.93l14.27-20.922M125.805 155.008l25.254 1.894M127.883 161.137l20.203 1.52M151.06 156.902l10.983 22.82M151.06 156.902l14.268-20.922M162.043 179.723l-14.27 20.922M155.695 178.457l-11.418 16.738M165.328 135.98l-4.27-11.92" stroke-width="1.2" stroke="#000" stroke-miterlimit="10" fill="none"/><path d="M161.06 124.06l-4.27-11.92" stroke-width="1.2" stroke="#00f" stroke-miterlimit="10" fill="none"/><path d="M190.645 135.227l-25.317.753M187.934 129.348l-20.25.6" stroke-width="1.2" stroke="#000" stroke-miterlimit="10" fill="none"/><path d="M156.79 112.14l10.02-7.745" stroke-width="1.2" stroke="#00f" stroke-miterlimit="10" fill="none"/><path d="M166.81 104.395l10.018-7.747" stroke-width="1.2" stroke="#000" stroke-miterlimit="10" fill="none"/><path d="M156.79 112.14l-12.153-3.554" stroke-width="1.2" stroke="#00f" stroke-miterlimit="10" fill="none"/><path d="M144.637 108.586l-12.157-3.555" stroke-width="1.2" stroke="#000" stroke-miterlimit="10" fill="none"/><path d="M153.79 106.64h7v11h-7zm0 0" fill="#fff"/><use xlink:href="#c" x="153.789" y="115.304" fill="#00f"/><path d="M176.828 96.648l-.754-25.312M176.828 96.648l20.922 14.27M175.563 103l16.738 11.414M197.75 110.918l-7.105 24.31M197.75 110.918l23.84-8.535M221.59 102.383l19.316 16.375M237.977 118.227l-2.262 12.46" stroke-width="1.2" stroke="#000" stroke-miterlimit="10" fill="none"/><path d="M235.715 130.688l-2.266 12.457" stroke-width="1.2" stroke="#f00" stroke-miterlimit="10" fill="none"/><path d="M243.84 119.293l-2.266 12.457" stroke-width="1.2" stroke="#000" stroke-miterlimit="10" fill="none"/><path d="M241.574 131.75l-2.262 12.46" stroke-width="1.2" stroke="#f00" stroke-miterlimit="10" fill="none"/><path d="M240.906 118.758l11.922-4.27" stroke-width="1.2" stroke="#000" stroke-miterlimit="10" fill="none"/><path d="M252.828 114.488l11.922-4.27" stroke-width="1.2" stroke="#f00" stroke-miterlimit="10" fill="none"/><path d="M232.383 138.176h8v11h-8zm0 0" fill="#fff"/><use xlink:href="#b" x="232.383" y="146.839" fill="#f00"/><path d="M259.75 102.72h11v15h-11zm0 0" fill="#fff"/><use xlink:href="#b" x="259.75" y="114.82" fill="#f00"/><use xlink:href="#d" x="267.092" y="109.938" fill="#f00"/><path d="M132.48 105.03l-6-24.6M126.094 103.984l-4.8-19.683M114.176 122.53l18.304-17.5M126.48 80.43l-24.304-7.106M102.176 73.324L83.866 90.82M104.46 79.38l-14.647 14M83.867 90.82l6 24.606M83.867 90.82L59.56 83.715M89.867 115.426l24.31 7.105M93.97 110.418l19.444 5.684M59.56 83.715L47.4 80.16" stroke-width="1.2" stroke="#000" stroke-miterlimit="10" fill="none"/><path d="M47.402 80.16L35.25 76.61" stroke-width="1.2" stroke="#3cc" stroke-miterlimit="10" fill="none"/><path d="M59.56 83.715l3.55-12.153" stroke-width="1.2" stroke="#000" stroke-miterlimit="10" fill="none"/><path d="M63.11 71.563l3.554-12.157" stroke-width="1.2" stroke="#3cc" stroke-miterlimit="10" fill="none"/><path d="M59.56 83.715l-3.556 12.152" stroke-width="1.2" stroke="#000" stroke-miterlimit="10" fill="none"/><path d="M56.004 95.867l-3.55 12.156" stroke-width="1.2" stroke="#3cc" stroke-miterlimit="10" fill="none"/><path d="M29.25 71.11h6v11h-6zm0 0" fill="#fff"/><use xlink:href="#e" x="29.25" y="79.772" fill="#3cc"/><path d="M63.664 53.906h6v11h-6zm0 0" fill="#fff"/><use xlink:href="#e" x="63.664" y="62.569" fill="#3cc"/><path d="M49.453 102.523h6v11h-6zm0 0" fill="#fff"/><use xlink:href="#e" x="49.453" y="111.187" fill="#3cc"/></g></svg>