<svg xmlns="http://www.w3.org/2000/svg" xmlns:xlink="http://www.w3.org/1999/xlink" width="300pt" height="300pt" viewBox="0 0 300 300"><defs><symbol overflow="visible"><path d="M.453 1.594v-7.938h4.5v7.938zm.5-.5h3.5v-6.938h-3.5zm0 0"/></symbol><symbol overflow="visible" id="a"><path d="M5.797-6.063v.938c-.305-.27-.625-.473-.97-.61-.335-.144-.686-.218-1.06-.218-.75 0-1.33.23-1.736.687-.397.46-.592 1.12-.592 1.985 0 .866.195 1.526.593 1.983.408.46.986.688 1.736.688.375 0 .726-.066 1.062-.203.344-.132.664-.343.97-.625V-.5c-.314.21-.642.367-.986.47-.343.1-.714.155-1.11.155-.99 0-1.772-.3-2.343-.906C.784-1.396.5-2.228.5-3.28c0-1.052.285-1.88.86-2.486.57-.613 1.35-.92 2.343-.92.395-.002.766.053 1.11.155.35.104.68.26.984.468zm0 0"/></symbol><symbol overflow="visible" id="b"><path d="M.844-6.844h.812V0H.844zm0 0"/></symbol><symbol overflow="visible" id="c"><path d="M.89-6.563H2.08l2.906 5.485v-5.484h.86V0H4.656L1.75-5.484V0H.89zm0 0"/></symbol><symbol overflow="visible" id="d"><path d="M4.813-6.344v.86c-.336-.157-.653-.27-.954-.344-.294-.082-.58-.125-.86-.125-.492 0-.867.094-1.125.28-.262.19-.39.454-.39.798 0 .293.085.512.265.656.176.15.504.267.984.36l.547.11c.658.125 1.142.352 1.454.672.32.312.485.734.485 1.265 0 .637-.216 1.122-.642 1.454-.43.325-1.055.485-1.875.485-.312 0-.648-.04-1-.11C1.36-.046 1-.147.625-.296v-.906c.352.2.703.35 1.047.453.35.105.695.156 1.03.156.5 0 .884-.097 1.157-.297.28-.196.42-.485.42-.86 0-.32-.1-.57-.296-.75-.2-.176-.523-.313-.968-.406l-.547-.11C1.81-3.148 1.33-3.36 1.03-3.64.74-3.923.595-4.313.595-4.813c0-.57.203-1.024.61-1.36.405-.344.968-.516 1.687-.516.313 0 .626.032.938.094.32.055.65.137.985.25zm0 0"/></symbol><symbol overflow="visible" id="e"><path d="M3.547-5.953c-.65 0-1.164.242-1.547.72-.375.48-.563 1.13-.563 1.952 0 .835.188 1.49.563 1.967.383.48.898.72 1.547.72.644 0 1.156-.24 1.53-.72.376-.476.564-1.132.564-1.968 0-.822-.187-1.474-.562-1.954-.375-.477-.887-.72-1.53-.72zm0-.734c.914 0 1.648.312 2.203.937.55.617.828 1.438.828 2.47 0 1.042-.277 1.87-.828 2.483-.555.617-1.29.922-2.203.922-.93 0-1.668-.305-2.22-.922C.774-1.41.5-2.237.5-3.28c0-1.033.273-1.853.828-2.47.55-.625 1.29-.938 2.22-.938zm0 0"/></symbol><symbol overflow="visible" id="f"><path d="M.89-6.563h.876v2.688H5v-2.688h.89V0H5v-3.125H1.766V0H.89zm0 0"/></symbol><symbol overflow="visible"><path d="M.406 1.422V-5.64h4V1.42zM.844.97h3.11v-6.157H.843zm0 0"/></symbol><symbol overflow="visible" id="g"><path d="M1.53-.672h2.767V0H.594v-.672c.29-.3.695-.71 1.22-1.234.518-.532.842-.867.967-1.016.26-.28.44-.52.533-.72.1-.194.156-.39.156-.577 0-.31-.11-.565-.33-.764-.218-.196-.5-.297-.843-.297-.25 0-.516.046-.797.14-.273.085-.563.214-.875.39v-.797c.32-.133.617-.234.89-.297.282-.062.536-.093.766-.093.603 0 1.083.152 1.44.453.362.304.546.703.546 1.203 0 .24-.047.468-.14.686-.095.22-.26.477-.485.766-.074.074-.288.293-.64.656-.344.356-.836.856-1.47 1.5zm0 0"/></symbol></defs><g><path fill="#fff" d="M0 0h300v300H0z"/><path d="M248.418 180.434l-7.8-9.22" stroke-width="1.2" stroke="#0c0" stroke-miterlimit="10" fill="none"/><path d="M240.617 171.215l-7.8-9.215" stroke-width="1.2" stroke="#000" stroke-miterlimit="10" fill="none"/><path d="M243.418 174.934h10v11h-10zm0 0" fill="#fff"/><g fill="#0c0"><use xlink:href="#a" x="243.418" y="183.597"/><use xlink:href="#b" x="249.932" y="183.597"/></g><path d="M232.816 162l-23.765 4.29M229.43 156.836l-19.012 3.434M240.984 139.27L232.816 162M209.05 166.29l-15.6-18.435M193.45 147.855L181.565 150" stroke-width="1.2" stroke="#000" stroke-miterlimit="10" fill="none"/><path d="M181.566 150l-11.882 2.145" stroke-width="1.2" stroke="#00f" stroke-miterlimit="10" fill="none"/><path d="M193.45 147.855l8.167-22.73M199.613 147.504l6.535-18.184" stroke-width="1.2" stroke="#000" stroke-miterlimit="10" fill="none"/><path d="M169.684 152.145l-15.602-18.434M172.46 146.633l-12.48-14.75" stroke-width="1.2" stroke="#00f" stroke-miterlimit="10" fill="none"/><path d="M166.684 146.645h7v11h-7zm0 0" fill="#fff"/><use xlink:href="#c" x="166.684" y="155.308" fill="#00f"/><path d="M154.082 133.71l-11.883 2.145" stroke-width="1.2" stroke="#00f" stroke-miterlimit="10" fill="none"/><path d="M142.2 135.855L130.315 138" stroke-width="1.2" stroke="#000" stroke-miterlimit="10" fill="none"/><path d="M151.082 128.21h7v11h-7zm0 0" fill="#fff"/><use xlink:href="#c" x="151.082" y="136.874" fill="#00f"/><path d="M130.316 138l-15.6-18.434M124.418 139.828l-12.48-14.75M122.148 160.73l8.168-22.73M114.715 119.566l-23.766 4.29M90.95 123.855l-8.165 22.73M95.48 128.05l-6.53 18.184M82.785 146.586l-11.887 2.144" stroke-width="1.2" stroke="#000" stroke-miterlimit="10" fill="none"/><path d="M70.898 148.73l-11.882 2.15" stroke-width="1.2" stroke="#cc0" stroke-miterlimit="10" fill="none"/><path d="M82.785 146.586l15.598 18.437" stroke-width="1.2" stroke="#000" stroke-miterlimit="10" fill="none"/><path d="M61.813 150.37l-2.145-11.882" stroke-width="1.2" stroke="#cc0" stroke-miterlimit="10" fill="none"/><path d="M59.668 138.488l-2.148-11.883" stroke-width="1.2" stroke="#f00" stroke-miterlimit="10" fill="none"/><path d="M56.22 151.383L54.073 139.5" stroke-width="1.2" stroke="#cc0" stroke-miterlimit="10" fill="none"/><path d="M54.074 139.5l-2.144-11.883" stroke-width="1.2" stroke="#f00" stroke-miterlimit="10" fill="none"/><path d="M56.22 151.383l2.147 11.883" stroke-width="1.2" stroke="#cc0" stroke-miterlimit="10" fill="none"/><path d="M58.367 163.266l2.145 11.882" stroke-width="1.2" stroke="#f00" stroke-miterlimit="10" fill="none"/><path d="M61.813 150.37l2.144 11.888" stroke-width="1.2" stroke="#cc0" stroke-miterlimit="10" fill="none"/><path d="M63.957 162.258l2.148 11.883" stroke-width="1.2" stroke="#f00" stroke-miterlimit="10" fill="none"/><path d="M59.016 150.88l-11.883 2.143" stroke-width="1.2" stroke="#cc0" stroke-miterlimit="10" fill="none"/><path d="M47.133 153.023l-11.883 2.145" stroke-width="1.2" stroke="#00f" stroke-miterlimit="10" fill="none"/><path d="M56.016 145.38h6v11h-6zm0 0" fill="#fff"/><use xlink:href="#d" x="56.016" y="154.042" fill="#cc0"/><path d="M50.723 121.61h8v11h-8zm0 0" fill="#fff"/><use xlink:href="#e" x="50.723" y="130.272" fill="#f00"/><path d="M59.31 169.145h8v11h-8zm0 0" fill="#fff"/><use xlink:href="#e" x="59.309" y="177.808" fill="#f00"/><path d="M16.25 147.168h19v16h-19zm0 0" fill="#fff"/><use xlink:href="#f" x="16.25" y="155.831" fill="#00f"/><use xlink:href="#g" x="23.265" y="160.714" fill="#00f"/><use xlink:href="#c" x="28.215" y="155.831" fill="#00f"/><path d="M98.383 165.023l23.765-4.293M99.75 159l19.016-3.434M201.617 125.125l23.766-4.293M225.383 120.832l15.6 18.438M222.605 126.348l12.48 14.75M240.984 139.27l11.883-2.145" stroke-width="1.2" stroke="#000" stroke-miterlimit="10" fill="none"/><path d="M252.867 137.125l11.883-2.148" stroke-width="1.2" stroke="#f00" stroke-miterlimit="10" fill="none"/><path d="M257.75 129.477h15v11h-15zm0 0" fill="#fff"/><g fill="#f00"><use xlink:href="#e" x="257.75" y="138.14"/><use xlink:href="#f" x="265.092" y="138.14"/></g></g></svg>