<svg xmlns="http://www.w3.org/2000/svg" xmlns:xlink="http://www.w3.org/1999/xlink" width="300pt" height="300pt" viewBox="0 0 300 300"><defs><symbol overflow="visible"><path d="M.453 1.594v-7.938h4.5v7.938zm.5-.5h3.5v-6.938h-3.5zm0 0"/></symbol><symbol overflow="visible" id="a"><path d="M3.547-5.953c-.65 0-1.164.242-1.547.72-.375.48-.563 1.13-.563 1.952 0 .835.188 1.49.563 1.967.383.48.898.72 1.547.72.644 0 1.156-.24 1.53-.72.376-.476.564-1.132.564-1.968 0-.822-.187-1.474-.562-1.954-.375-.477-.887-.72-1.53-.72zm0-.734c.914 0 1.648.312 2.203.937.55.617.828 1.438.828 2.47 0 1.042-.277 1.87-.828 2.483-.555.617-1.29.922-2.203.922-.93 0-1.668-.305-2.22-.922C.774-1.41.5-2.237.5-3.28c0-1.033.273-1.853.828-2.47.55-.625 1.29-.938 2.22-.938zm0 0"/></symbol><symbol overflow="visible" id="b"><path d="M.89-6.563h.876v2.688H5v-2.688h.89V0H5v-3.125H1.766V0H.89zm0 0"/></symbol></defs><g><path fill="#fff" d="M0 0h300v300H0z"/><path d="M77.64 135.398l-2.273 2.532" stroke-width="1.2" stroke="#f00" stroke-miterlimit="10" fill="none"/><path d="M75.367 137.93l-2.27 2.535M84.3 136.797l-3.33-.7" stroke-width="1.2" stroke="#000" stroke-miterlimit="10" fill="none"/><path d="M80.97 136.098l-3.33-.7" stroke-width="1.2" stroke="#f00" stroke-miterlimit="10" fill="none"/><path d="M73.64 129.898h8v11h-8zm0 0" fill="#fff"/><use xlink:href="#a" x="73.641" y="138.562" fill="#f00"/><path d="M73.098 140.465l-6.414-2.574-.496 2.348zm0 0"/><path d="M73.098 140.465l2.117 6.47M66.434 139.066l-2.27 2.532" stroke-width="1.2" stroke="#000" stroke-miterlimit="10" fill="none"/><path d="M64.164 141.598l-2.273 2.535" stroke-width="1.2" stroke="#f00" stroke-miterlimit="10" fill="none"/><path d="M55.23 142.734m2.786 1.118l.214-1.02m2.57 2.137l.43-2.04m.415 2.38l.496-2.353" stroke="#000" stroke-miterlimit="10" fill="none"/><path d="M57.89 138.633h8v11h-8zm0 0" fill="#fff"/><use xlink:href="#a" x="57.891" y="147.296" fill="#f00"/><path d="M55.23 142.734l-2.27 2.532" stroke-width="1.2" stroke="#000" stroke-miterlimit="10" fill="none"/><path d="M52.96 145.266l-2.273 2.535" stroke-width="1.2" stroke="#f00" stroke-miterlimit="10" fill="none"/><path d="M53.113 136.266l2.117 6.468" stroke-width="1.2" stroke="#000" stroke-miterlimit="10" fill="none"/><path d="M50.688 147.8l-3.33-.698" stroke-width="1.2" stroke="#f00" stroke-miterlimit="10" fill="none"/><path d="M47.36 147.102l-3.333-.7" stroke-width="1.2" stroke="#000" stroke-miterlimit="10" fill="none"/><path d="M46.688 142.3h8v11h-8zm0 0" fill="#fff"/><use xlink:href="#a" x="46.688" y="150.964" fill="#f00"/><path d="M44.027 146.402l-5.437 4.266 1.79 1.602zm0 0"/><path d="M44.027 146.402l-2.117-6.468" stroke-width="1.2" stroke="#000" stroke-miterlimit="10" fill="none"/><path d="M41.91 139.934m-2.785-1.12l-.21 1.022m-2.57-2.14l-.43 2.042m-.42-2.383l-.49 2.352" stroke="#000" stroke-miterlimit="10" fill="none"/><path d="M41.91 139.934l4.543-5.07" stroke-width="1.2" stroke="#000" stroke-miterlimit="10" fill="none"/><path d="M20.25 133.03h15v11h-15zm0 0" fill="#fff"/><g fill="#f00"><use xlink:href="#b" x="20.25" y="141.694"/><use xlink:href="#a" x="27.265" y="141.694"/></g><path d="M46.453 134.863l-.976-6.84-2.282.747zm0 0"/><path d="M46.453 134.863l6.66 1.403" stroke-width="1.2" stroke="#000" stroke-miterlimit="10" fill="none"/><path d="M29.336 122.895h15v11h-15zm0 0" fill="#fff"/><g fill="#f00"><use xlink:href="#b" x="29.336" y="131.558"/><use xlink:href="#a" x="36.351" y="131.558"/></g><path d="M53.113 136.266l5.438-4.27-1.788-1.6zm0 0"/><path d="M50.656 125.695h15v11h-15zm0 0" fill="#fff"/><g fill="#f00"><use xlink:href="#a" x="50.656" y="134.358"/><use xlink:href="#b" x="57.998" y="134.358"/></g><path d="M75.215 146.934m-2.363 1.85l.777.696m-3.138 1.157l1.555 1.39m-2.27-.828l1.79 1.605" stroke="#000" stroke-miterlimit="10" fill="none"/><path d="M75.215 146.934l6.66 1.398" stroke-width="1.2" stroke="#000" stroke-miterlimit="10" fill="none"/><path d="M55.672 146.5h15v11h-15zm0 0" fill="#fff"/><g fill="#f00"><use xlink:href="#b" x="55.672" y="155.163"/><use xlink:href="#a" x="62.687" y="155.163"/></g><path d="M81.875 148.332l.977 6.844 2.28-.746zm0 0"/><path d="M81.875 148.332l4.543-5.066" stroke-width="1.2" stroke="#000" stroke-miterlimit="10" fill="none"/><path d="M83.992 154.8l3.328.7" stroke-width="1.2" stroke="#f00" stroke-miterlimit="10" fill="none"/><path d="M87.32 155.5l3.332.703" stroke-width="1.2" stroke="#000" stroke-miterlimit="10" fill="none"/><path d="M79.992 149.3h8v11h-8zm0 0" fill="#fff"/><use xlink:href="#a" x="79.992" y="157.964" fill="#f00"/><path d="M91.25 156.738l2.27-2.535" stroke-width="1.2" stroke="#000" stroke-miterlimit="10" fill="none"/><path d="M93.52 154.203l2.273-2.535" stroke-width="1.2" stroke="#f00" stroke-miterlimit="10" fill="none"/><path d="M90.055 155.668l2.273-2.535" stroke-width="1.2" stroke="#000" stroke-miterlimit="10" fill="none"/><path d="M92.328 153.133l2.27-2.535" stroke-width="1.2" stroke="#f00" stroke-miterlimit="10" fill="none"/><path d="M90.652 156.203l2.118 6.47" stroke-width="1.2" stroke="#000" stroke-miterlimit="10" fill="none"/><path d="M91.195 145.633h8v11h-8zm0 0" fill="#fff"/><use xlink:href="#a" x="91.195" y="154.296" fill="#f00"/><path d="M92.77 162.672l6.66 1.398M93.105 164.38l5.33 1.116M99.43 164.07l2.117 6.47M101.547 170.54l6.66 1.398M101.887 172.246l5.328 1.12M97.004 175.605l4.543-5.066M108.207 171.938l2.12 6.468M110.328 178.406l3.328.703" stroke-width="1.2" stroke="#000" stroke-miterlimit="10" fill="none"/><path d="M113.656 179.11l3.332.7" stroke-width="1.2" stroke="#f00" stroke-miterlimit="10" fill="none"/><path d="M110.328 178.406l-4.543 5.07M108.68 177.844l-3.633 4.054" stroke-width="1.2" stroke="#000" stroke-miterlimit="10" fill="none"/><path d="M109.988 174.31h15v11h-15zm0 0" fill="#fff"/><g fill="#f00"><use xlink:href="#a" x="109.988" y="182.972"/><use xlink:href="#b" x="117.33" y="182.972"/></g><path d="M105.785 183.477l1.06 3.234" stroke-width="1.2" stroke="#000" stroke-miterlimit="10" fill="none"/><path d="M106.844 186.71l1.058 3.235" stroke-width="1.2" stroke="#f00" stroke-miterlimit="10" fill="none"/><path d="M105.785 183.477l-6.664-1.403" stroke-width="1.2" stroke="#000" stroke-miterlimit="10" fill="none"/><path d="M107.902 189.945l-2.273 2.532" stroke-width="1.2" stroke="#f00" stroke-miterlimit="10" fill="none"/><path d="M105.63 192.477l-2.27 2.535" stroke-width="1.2" stroke="#000" stroke-miterlimit="10" fill="none"/><path d="M103.902 184.445h8v11h-8zm0 0" fill="#fff"/><use xlink:href="#a" x="103.902" y="193.108" fill="#f00"/><path d="M99.12 182.074l-2.116-6.47M100.434 180.93l-1.696-5.176" stroke-width="1.2" stroke="#000" stroke-miterlimit="10" fill="none"/><path d="M86.418 143.266m2.78 1.117l.216-1.02m2.57 2.137l.43-2.04m.418 2.38l.492-2.352" stroke="#000" stroke-miterlimit="10" fill="none"/><path d="M86.418 143.266l-2.117-6.47" stroke-width="1.2" stroke="#000" stroke-miterlimit="10" fill="none"/><path d="M86.078 139.164h15v11h-15zm0 0" fill="#fff"/><g fill="#f00"><use xlink:href="#a" x="86.078" y="147.827"/><use xlink:href="#b" x="93.42" y="147.827"/></g><path d="M84.3 136.797l5.438-4.266-1.79-1.604zm0 0M86.723 125.262l.976 6.84 2.284-.747zm0 0"/><path d="M84.844 126.23h8v11h-8zm0 0" fill="#fff"/><use xlink:href="#a" x="84.844" y="134.894" fill="#f00"/><path d="M86.723 125.262l-6.66-1.403M91.266 120.19l-4.543 5.072" stroke-width="1.2" stroke="#000" stroke-miterlimit="10" fill="none"/><path d="M80.063 123.86m-2.36 1.85l.777.7m-3.136 1.153l1.554 1.394m-2.273-.832l1.79 1.605" stroke="#000" stroke-miterlimit="10" fill="none"/><path d="M80.063 123.86l-2.118-6.47" stroke-width="1.2" stroke="#000" stroke-miterlimit="10" fill="none"/><path d="M60.52 123.43h15v11h-15zm0 0" fill="#fff"/><g fill="#f00"><use xlink:href="#b" x="60.52" y="132.093"/><use xlink:href="#a" x="67.534" y="132.093"/></g><path d="M77.945 117.39l2.274-2.53" stroke-width="1.2" stroke="#000" stroke-miterlimit="10" fill="none"/><path d="M80.22 114.86l2.268-2.536" stroke-width="1.2" stroke="#f00" stroke-miterlimit="10" fill="none"/><path d="M77.945 117.39l-6.414-2.574-.49 2.352zm0 0"/><path d="M82.488 112.324l3.332.7" stroke-width="1.2" stroke="#f00" stroke-miterlimit="10" fill="none"/><path d="M85.82 113.023l3.328.7" stroke-width="1.2" stroke="#000" stroke-miterlimit="10" fill="none"/><path d="M78.488 106.824h8v11h-8zm0 0" fill="#fff"/><use xlink:href="#a" x="78.488" y="115.487" fill="#f00"/><path d="M89.148 113.723l5.438-4.266-1.79-1.602zm0 0"/><path d="M89.148 113.723l2.118 6.468" stroke-width="1.2" stroke="#000" stroke-miterlimit="10" fill="none"/><path d="M100.352 110.055m-2.782-1.118l-.215 1.02m-2.57-2.137l-.43 2.04m-.414-2.38l-.495 2.352" stroke="#000" stroke-miterlimit="10" fill="none"/><path d="M89.69 103.156h8v11h-8zm0 0" fill="#fff"/><use xlink:href="#a" x="89.691" y="111.819" fill="#f00"/><path d="M100.352 110.055l4.543-5.067M102.473 116.523l-2.12-6.468M104.895 104.988l3.332.7" stroke-width="1.2" stroke="#000" stroke-miterlimit="10" fill="none"/><path d="M108.227 105.688l3.332.7M111.56 106.387l1.057 3.234" stroke-width="1.2" stroke="#f00" stroke-miterlimit="10" fill="none"/><path d="M112.617 109.62l1.06 3.235" stroke-width="1.2" stroke="#000" stroke-miterlimit="10" fill="none"/><path d="M107.56 100.887h8v11h-8zm0 0" fill="#fff"/><use xlink:href="#a" x="107.559" y="109.55" fill="#f00"/><path d="M113.676 112.855l6.41 2.58.496-2.353zm0 0"/><path d="M113.676 112.855l-4.543 5.07" stroke-width="1.2" stroke="#000" stroke-miterlimit="10" fill="none"/><path d="M122.453 120.727m-.426-2.973l-.988.324m.565-3.293l-1.98.65m1.852-1.552l-2.282.746" stroke="#000" stroke-miterlimit="10" fill="none"/><path d="M116.336 108.758h8v11h-8zm0 0" fill="#fff"/><use xlink:href="#a" x="116.336" y="117.421" fill="#f00"/><path d="M122.453 120.727l6.66 1.398M117.91 125.793l4.543-5.066" stroke-width="1.2" stroke="#000" stroke-miterlimit="10" fill="none"/><path d="M129.113 122.125l5.438-4.266-1.788-1.606zm0 0"/><path d="M129.113 122.125l2.117 6.47" stroke-width="1.2" stroke="#000" stroke-miterlimit="10" fill="none"/><path d="M126.656 111.56h15v11h-15zm0 0" fill="#fff"/><g fill="#f00"><use xlink:href="#a" x="126.656" y="120.222"/><use xlink:href="#b" x="133.998" y="120.222"/></g><path d="M131.23 128.594l-2.27 2.535" stroke-width="1.2" stroke="#000" stroke-miterlimit="10" fill="none"/><path d="M128.96 131.13l-2.273 2.53" stroke-width="1.2" stroke="#f00" stroke-miterlimit="10" fill="none"/><path d="M131.23 128.594m2.786 1.117l.214-1.02m2.567 2.138l.43-2.04m.418 2.38l.492-2.348" stroke="#000" stroke-miterlimit="10" fill="none"/><path d="M126.688 133.66l-3.33-.7" stroke-width="1.2" stroke="#f00" stroke-miterlimit="10" fill="none"/><path d="M123.36 132.96l-3.333-.698" stroke-width="1.2" stroke="#000" stroke-miterlimit="10" fill="none"/><path d="M122.688 128.16h8v11h-8zm0 0" fill="#fff"/><use xlink:href="#a" x="122.688" y="136.823" fill="#f00"/><path d="M120.027 132.262l-5.437 4.265 1.79 1.606zm0 0"/><path d="M120.027 132.262l-2.117-6.47" stroke-width="1.2" stroke="#000" stroke-miterlimit="10" fill="none"/><path d="M117.602 143.797l-.977-6.84-2.28.746zm0 0"/><path d="M111.484 131.828h8v11h-8zm0 0" fill="#fff"/><use xlink:href="#a" x="111.484" y="140.491" fill="#f00"/><path d="M117.602 143.797l-4.543 5.07M124.262 145.2l-6.66-1.403" stroke-width="1.2" stroke="#000" stroke-miterlimit="10" fill="none"/><path d="M113.06 148.867m-2.787-1.117l-.21 1.02m-2.57-2.14l-.43 2.042m-.418-2.383l-.493 2.35" stroke="#000" stroke-miterlimit="10" fill="none"/><path d="M113.06 148.867l2.116 6.47" stroke-width="1.2" stroke="#000" stroke-miterlimit="10" fill="none"/><path d="M91.398 141.965h15v11h-15zm0 0" fill="#fff"/><g fill="#f00"><use xlink:href="#b" x="91.398" y="150.628"/><use xlink:href="#a" x="98.413" y="150.628"/></g><path d="M115.176 155.336m-2.36 1.85l.778.697m-3.137 1.156l1.55 1.39m-2.27-.828l1.79 1.6" stroke="#000" stroke-miterlimit="10" fill="none"/><path d="M115.176 155.336l6.66 1.398" stroke-width="1.2" stroke="#000" stroke-miterlimit="10" fill="none"/><path d="M95.633 154.902h15v11h-15zm0 0" fill="#fff"/><g fill="#f00"><use xlink:href="#b" x="95.633" y="163.565"/><use xlink:href="#a" x="102.647" y="163.565"/></g><path d="M121.836 156.734l2.273-2.535" stroke-width="1.2" stroke="#000" stroke-miterlimit="10" fill="none"/><path d="M124.11 154.2l2.27-2.532M126.38 151.668l-1.06-3.234" stroke-width="1.2" stroke="#f00" stroke-miterlimit="10" fill="none"/><path d="M125.32 148.434l-1.058-3.235" stroke-width="1.2" stroke="#000" stroke-miterlimit="10" fill="none"/><path d="M122.38 146.168h8v11h-8zm0 0" fill="#fff"/><use xlink:href="#a" x="122.379" y="154.831" fill="#f00"/><path d="M124.262 145.2m2.36-1.852l-.774-.7m3.136-1.152l-1.554-1.394m2.27.832l-1.79-1.606M135.465 141.53m-2.78-1.116l-.216 1.02m-2.572-2.14l-.43 2.042m-.413-2.383l-.496 2.352" stroke="#000" stroke-miterlimit="10" fill="none"/><path d="M124.805 134.63h8v11h-8zm0 0" fill="#fff"/><use xlink:href="#a" x="124.805" y="143.292" fill="#f00"/><path d="M135.465 141.53l2.117 6.47M140.008 136.46l-4.543 5.07M137.582 148l6.664 1.398M144.246 149.398l4.543-5.066M148.79 144.332l-2.122-6.47" stroke-width="1.2" stroke="#000" stroke-miterlimit="10" fill="none"/><path d="M148.79 144.332m.42 2.97l.993-.325m-.566 3.293l1.98-.65m-1.855 1.552l2.285-.746" stroke="#000" stroke-miterlimit="10" fill="none"/><path d="M155.45 145.73l-6.66-1.398" stroke-width="1.2" stroke="#000" stroke-miterlimit="10" fill="none"/><path d="M146.668 137.863m2.363-1.85l-.776-.697m3.137-1.156l-1.554-1.394m2.27.832l-1.79-1.606" stroke="#000" stroke-miterlimit="10" fill="none"/><path d="M146.668 137.863l-6.66-1.402M151.21 132.793l6.665 1.402M157.875 134.195l2.117 6.47M159.992 140.664l-4.543 5.066" stroke-width="1.2" stroke="#000" stroke-miterlimit="10" fill="none"/><path d="M159.992 140.664m2.293-1.934l-1.277-.89m2.523-.153l-1.97-1.375" stroke="#000" stroke-miterlimit="10" fill="none"/><path d="M166.652 142.063l-6.66-1.4" stroke-width="1.2" stroke="#000" stroke-miterlimit="10" fill="none"/><path d="M155.45 145.73m.42 2.97l.993-.325m-.566 3.297l1.98-.65m-1.85 1.552l2.28-.75" stroke="#000" stroke-miterlimit="10" fill="none"/><path d="M157.566 152.2l6.66 1.398M164.227 153.598l4.543-5.067M163.488 152.023l3.633-4.054" stroke-width="1.2" stroke="#000" stroke-miterlimit="10" fill="none"/><path d="M175.43 149.93l-6.414-2.575-.493 2.352zm0 0"/><path d="M166.652 142.063l2.118 6.468M175.43 149.93l2.117 6.468M179.973 144.863l-4.543 5.067M177.547 156.398l6.66 1.403M184.207 157.8l4.543-5.07M184.207 157.8l5.78 3.595M184.207 157.8l-2.535 6.317M188.75 152.73l-2.117-6.464M186.633 146.266l-6.66-1.403M179.973 144.863l-2.118-6.468" stroke-width="1.2" stroke="#000" stroke-miterlimit="10" fill="none"/><path d="M179.973 144.863m2.36-1.85l-.778-.697m3.136-1.156l-1.55-1.39m2.27.828l-1.79-1.606" stroke="#000" stroke-miterlimit="10" fill="none"/><path d="M177.855 138.395l-6.66-1.4M171.195 136.996l-4.543 5.066" stroke-width="1.2" stroke="#000" stroke-miterlimit="10" fill="none"/><path d="M166.652 142.063l.317-4.614-2.36.464zm0 0"/><path d="M184.516 139.797l3.332.7" stroke-width="1.2" stroke="#000" stroke-miterlimit="10" fill="none"/><path d="M187.848 140.496l3.328.7" stroke-width="1.2" stroke="#f00" stroke-miterlimit="10" fill="none"/><path d="M185.277 139.547l-1.058-3.234" stroke-width="1.2" stroke="#000" stroke-miterlimit="10" fill="none"/><path d="M184.22 136.313l-1.06-3.235" stroke-width="1.2" stroke="#f00" stroke-miterlimit="10" fill="none"/><path d="M183.754 140.043l-1.06-3.234" stroke-width="1.2" stroke="#000" stroke-miterlimit="10" fill="none"/><path d="M182.695 136.81l-1.058-3.236" stroke-width="1.2" stroke="#f00" stroke-miterlimit="10" fill="none"/><path d="M195.72 136.13l-5.44 4.265 1.79 1.6zm0 0"/><path d="M187.176 135.695h8v11h-8zm0 0" fill="#fff"/><use xlink:href="#a" x="187.176" y="144.358" fill="#f00"/><path d="M195.72 136.13l3.33.698" stroke-width="1.2" stroke="#000" stroke-miterlimit="10" fill="none"/><path d="M199.05 136.828l3.33.7" stroke-width="1.2" stroke="#f00" stroke-miterlimit="10" fill="none"/><path d="M193.602 129.66l2.117 6.47" stroke-width="1.2" stroke="#000" stroke-miterlimit="10" fill="none"/><path d="M202.38 137.527l2.272-2.535" stroke-width="1.2" stroke="#f00" stroke-miterlimit="10" fill="none"/><path d="M204.652 134.992l2.27-2.53" stroke-width="1.2" stroke="#000" stroke-miterlimit="10" fill="none"/><path d="M198.38 132.027h8v11h-8zm0 0" fill="#fff"/><use xlink:href="#a" x="198.379" y="140.69" fill="#f00"/><path d="M206.922 132.46l6.414 2.575.496-2.35zm0 0"/><path d="M206.922 132.46l-2.117-6.468M213.582 133.86l1.06 3.234" stroke-width="1.2" stroke="#000" stroke-miterlimit="10" fill="none"/><path d="M214.64 137.094l1.06 3.234" stroke-width="1.2" stroke="#f00" stroke-miterlimit="10" fill="none"/><path d="M222.36 141.727l-6.41-2.575-.497 2.352zm0 0"/><path d="M211.7 134.828h8v11h-8zm0 0" fill="#fff"/><use xlink:href="#a" x="211.699" y="143.491" fill="#f00"/><path d="M222.36 141.727l1.062 3.234" stroke-width="1.2" stroke="#000" stroke-miterlimit="10" fill="none"/><path d="M223.422 144.96l1.058 3.235" stroke-width="1.2" stroke="#f00" stroke-miterlimit="10" fill="none"/><path d="M226.902 136.66l-4.543 5.067" stroke-width="1.2" stroke="#000" stroke-miterlimit="10" fill="none"/><path d="M224.48 148.195l3.33.703" stroke-width="1.2" stroke="#f00" stroke-miterlimit="10" fill="none"/><path d="M227.81 148.898l3.33.7" stroke-width="1.2" stroke="#000" stroke-miterlimit="10" fill="none"/><path d="M220.48 142.695h8v11h-8zm0 0" fill="#fff"/><use xlink:href="#a" x="220.48" y="151.358" fill="#f00"/><path d="M231.14 149.598l.977 6.84 2.28-.747zm0 0"/><path d="M231.14 149.598l4.544-5.07M233.258 156.066l-2.274 2.532" stroke-width="1.2" stroke="#000" stroke-miterlimit="10" fill="none"/><path d="M230.984 158.598l-2.27 2.535" stroke-width="1.2" stroke="#f00" stroke-miterlimit="10" fill="none"/><path d="M213.715 155.633h15v11h-15zm0 0" fill="#fff"/><g fill="#f00"><use xlink:href="#b" x="213.715" y="164.296"/><use xlink:href="#a" x="220.729" y="164.296"/></g><path d="M235.684 144.527m2.78 1.12l.216-1.022m2.57 2.14l.43-2.042m.418 2.382l.492-2.35" stroke="#000" stroke-miterlimit="10" fill="none"/><path d="M235.684 144.527l-2.118-6.468" stroke-width="1.2" stroke="#000" stroke-miterlimit="10" fill="none"/><path d="M246.887 140.86m-2.36 1.85l.774.7m-3.136 1.156l1.555 1.39m-2.27-.827l1.788 1.6" stroke="#000" stroke-miterlimit="10" fill="none"/><path d="M238.344 140.43h8v11h-8zm0 0" fill="#fff"/><use xlink:href="#a" x="238.344" y="149.093" fill="#f00"/><path d="M246.887 140.86l-1.06-3.235" stroke-width="1.2" stroke="#000" stroke-miterlimit="10" fill="none"/><path d="M245.828 137.625l-1.058-3.234" stroke-width="1.2" stroke="#f00" stroke-miterlimit="10" fill="none"/><path d="M253.547 142.262l-6.66-1.403" stroke-width="1.2" stroke="#000" stroke-miterlimit="10" fill="none"/><path d="M244.77 134.39l2.27-2.53" stroke-width="1.2" stroke="#f00" stroke-miterlimit="10" fill="none"/><path d="M247.04 131.86l2.273-2.536" stroke-width="1.2" stroke="#000" stroke-miterlimit="10" fill="none"/><path d="M240.77 128.89h8v11h-8zm0 0" fill="#fff"/><use xlink:href="#a" x="240.77" y="137.554" fill="#f00"/><path d="M249.313 129.324l-.977-6.844-2.285.75zm0 0"/><path d="M249.313 129.324l6.66 1.4" stroke-width="1.2" stroke="#000" stroke-miterlimit="10" fill="none"/><path d="M255.973 130.723m2.36-1.852l-.778-.694m3.136-1.156l-1.55-1.39m2.27.827l-1.79-1.602" stroke="#000" stroke-miterlimit="10" fill="none"/><path d="M255.973 130.723l2.117 6.468" stroke-width="1.2" stroke="#000" stroke-miterlimit="10" fill="none"/><path d="M253.516 120.156h15v11h-15zm0 0" fill="#fff"/><g fill="#f00"><use xlink:href="#a" x="253.516" y="128.819"/><use xlink:href="#b" x="260.857" y="128.819"/></g><path d="M258.09 137.19l6.414 2.58.492-2.352zm0 0"/><path d="M258.09 137.19l-4.543 5.072" stroke-width="1.2" stroke="#000" stroke-miterlimit="10" fill="none"/><path d="M257.75 133.094h15v11h-15zm0 0" fill="#fff"/><g fill="#f00"><use xlink:href="#a" x="257.75" y="141.757"/><use xlink:href="#b" x="265.092" y="141.757"/></g><path d="M253.547 142.262l.976 6.84 2.282-.747zm0 0"/><path d="M248.664 143.23h15v11h-15zm0 0" fill="#fff"/><g fill="#f00"><use xlink:href="#a" x="248.664" y="151.894"/><use xlink:href="#b" x="256.006" y="151.894"/></g><path d="M233.566 138.06l5.438-4.267-1.79-1.602zm0 0"/><path d="M233.566 138.06l-6.664-1.4" stroke-width="1.2" stroke="#000" stroke-miterlimit="10" fill="none"/><path d="M231.11 127.492h15v11h-15zm0 0" fill="#fff"/><g fill="#f00"><use xlink:href="#a" x="231.109" y="136.155"/><use xlink:href="#b" x="238.451" y="136.155"/></g><path d="M226.902 136.66m-.422-2.97l-.992.326m.57-3.297l-1.984.65m1.856-1.554l-2.285.75" stroke="#000" stroke-miterlimit="10" fill="none"/><path d="M209.785 124.69h15v11h-15zm0 0" fill="#fff"/><g fill="#f00"><use xlink:href="#b" x="209.785" y="133.354"/><use xlink:href="#a" x="216.8" y="133.354"/></g><path d="M204.805 125.992m2.36-1.85l-.778-.7m3.136-1.153l-1.55-1.395m2.27.832l-1.79-1.606" stroke="#000" stroke-miterlimit="10" fill="none"/><path d="M204.805 125.992l-6.66-1.402" stroke-width="1.2" stroke="#000" stroke-miterlimit="10" fill="none"/><path d="M202.348 115.422h15v11h-15zm0 0" fill="#fff"/><g fill="#f00"><use xlink:href="#a" x="202.348" y="124.085"/><use xlink:href="#b" x="209.689" y="124.085"/></g><path d="M198.145 124.59l-.977-6.84-2.28.746zm0 0"/><path d="M198.145 124.59l-4.543 5.07" stroke-width="1.2" stroke="#000" stroke-miterlimit="10" fill="none"/><path d="M181.027 112.62h15v11h-15zm0 0" fill="#fff"/><g fill="#f00"><use xlink:href="#b" x="181.027" y="121.284"/><use xlink:href="#a" x="188.042" y="121.284"/></g><path d="M193.602 129.66m-2.786-1.117l-.214 1.02m-2.567-2.14l-.43 2.042m-.417-2.383l-.493 2.352" stroke="#000" stroke-miterlimit="10" fill="none"/><path d="M171.94 122.758h15v11h-15zm0 0" fill="#fff"/><g fill="#f00"><use xlink:href="#b" x="171.941" y="131.421"/><use xlink:href="#a" x="178.956" y="131.421"/></g><path d="M174.398 127.828h8v11h-8zm0 0" fill="#fff"/><use xlink:href="#a" x="174.398" y="136.491" fill="#f00"/><path d="M140.008 136.46l-5.778-3.593M140.008 136.46l2.535-6.315" stroke-width="1.2" stroke="#000" stroke-miterlimit="10" fill="none"/><path d="M117.91 125.793m-2.82-1.023l-.133 1.554m-1.394-2.105l-.204 2.39" stroke="#000" stroke-miterlimit="10" fill="none"/><path d="M98.46 119.914h15v11h-15zm0 0" fill="#fff"/><g fill="#f00"><use xlink:href="#b" x="98.461" y="128.577"/><use xlink:href="#a" x="105.476" y="128.577"/></g><path d="M109.133 117.926m-.207 2.992l1.53-.3m-1.64 1.92l2.356-.464" stroke="#000" stroke-miterlimit="10" fill="none"/><path d="M109.133 117.926l-6.66-1.403" stroke-width="1.2" stroke="#000" stroke-miterlimit="10" fill="none"/><path d="M102.992 116.805h15v11h-15zm0 0" fill="#fff"/><g fill="#f00"><use xlink:href="#a" x="102.992" y="125.468"/><use xlink:href="#b" x="110.334" y="125.468"/></g><path d="M102.473 116.523m-2.297 1.934l1.277.89m-2.52.153l1.97 1.375" stroke="#000" stroke-miterlimit="10" fill="none"/><path d="M84.918 114.688h15v11h-15zm0 0" fill="#fff"/><g fill="#f00"><use xlink:href="#b" x="84.918" y="123.351"/><use xlink:href="#a" x="91.933" y="123.351"/></g><path d="M91.266 120.19m2.492 1.677l.504-1.476m.843 2.383l.778-2.273" stroke="#000" stroke-miterlimit="10" fill="none"/><path d="M88.492 116.137h15v11h-15zm0 0" fill="#fff"/><g fill="#f00"><use xlink:href="#a" x="88.492" y="124.8"/><use xlink:href="#b" x="95.834" y="124.8"/></g><path d="M71.285 115.992l-1.058-3.234" stroke-width="1.2" stroke="#000" stroke-miterlimit="10" fill="none"/><path d="M70.227 112.758l-1.06-3.235" stroke-width="1.2" stroke="#f00" stroke-miterlimit="10" fill="none"/><path d="M54.168 104.023h15v11h-15zm0 0" fill="#fff"/><g fill="#f00"><use xlink:href="#b" x="54.168" y="112.687"/><use xlink:href="#a" x="61.183" y="112.687"/></g></g></svg>