<svg xmlns="http://www.w3.org/2000/svg" xmlns:xlink="http://www.w3.org/1999/xlink" width="300pt" height="300pt" viewBox="0 0 300 300"><defs><symbol overflow="visible"><path d="M.594 2.125V-8.47h6V2.126zm.672-.672h4.671V-7.78h-4.67zm0 0"/></symbol><symbol overflow="visible" id="a"><path d="M4.734-7.953c-.867 0-1.554.324-2.062.97-.5.635-.75 1.51-.75 2.624 0 1.094.25 1.965.75 2.61.508.637 1.195.953 2.062.953.852 0 1.532-.316 2.032-.953.507-.645.765-1.516.765-2.61 0-1.113-.257-1.988-.764-2.624-.5-.645-1.18-.97-2.032-.97zm0-.953c1.22 0 2.192.414 2.922 1.234.74.824 1.11 1.93 1.11 3.313 0 1.376-.37 2.477-1.11 3.298C6.926-.24 5.953.17 4.734.17c-1.23 0-2.214-.41-2.953-1.234C1.04-1.882.673-2.984.673-4.36c0-1.382.367-2.488 1.11-3.312.738-.82 1.722-1.234 2.952-1.234zm0 0"/></symbol><symbol overflow="visible" id="b"><path d="M1.172-8.75H2.36v3.594h4.296V-8.75h1.188V0H6.656v-4.172H2.36V0H1.17zm0 0"/></symbol></defs><g><path fill="#fff" d="M0 0h300v300H0z"/><path d="M154.31 129.55l-13.42 6.15" stroke-width="1.2" stroke="#f00" stroke-miterlimit="10" fill="none"/><path d="M140.89 135.7l-13.413 6.144M180.652 142.87l-13.172-6.66" stroke-width="1.2" stroke="#000" stroke-miterlimit="10" fill="none"/><path d="M167.48 136.21l-13.17-6.66" stroke-width="1.2" stroke="#f00" stroke-miterlimit="10" fill="none"/><path d="M149.31 122.55h10v14h-10zm0 0" fill="#fff"/><use xlink:href="#a" x="149.309" y="133.689" fill="#f00"/><path d="M127.477 141.844l-7.125 28.644M120.023 143.035l-5.7 22.914M106.227 121.355l21.25 20.49M120.352 170.488l17.957 23.43M120.352 170.488l-28.368 8.157M138.31 193.918l29.51.566M167.82 194.484l18.844-22.718M186.664 171.766l28.035 9.242M191.645 166.098l22.425 7.39M180.652 142.87l6.012 28.896M214.7 181.008l22.02-19.656M236.72 161.352l14.014 4.62" stroke-width="1.2" stroke="#000" stroke-miterlimit="10" fill="none"/><path d="M250.734 165.973l14.016 4.62" stroke-width="1.2" stroke="#f00" stroke-miterlimit="10" fill="none"/><path d="M236.72 161.352l-6.017-28.895M229.316 159.88l-4.808-23.118" stroke-width="1.2" stroke="#000" stroke-miterlimit="10" fill="none"/><path d="M255.75 163.594h19v14h-19zm0 0" fill="#fff"/><g fill="#f00"><use xlink:href="#a" x="255.75" y="174.732"/><use xlink:href="#b" x="265.195" y="174.732"/></g><path d="M230.703 132.457l-28.03-9.242M202.672 123.215l-22.02 19.656M205.094 130.36l-17.614 15.726M88.617 177.81l-3.562 14.32" stroke-width="1.2" stroke="#000" stroke-miterlimit="10" fill="none"/><path d="M85.055 192.13l-3.56 14.323" stroke-width="1.2" stroke="#f00" stroke-miterlimit="10" fill="none"/><path d="M95.355 179.484l-3.558 14.32" stroke-width="1.2" stroke="#000" stroke-miterlimit="10" fill="none"/><path d="M91.797 193.805l-3.563 14.324" stroke-width="1.2" stroke="#f00" stroke-miterlimit="10" fill="none"/><path d="M91.984 178.645l-21.246-20.49" stroke-width="1.2" stroke="#000" stroke-miterlimit="10" fill="none"/><path d="M79.863 200.29h10v14h-10zm0 0" fill="#fff"/><use xlink:href="#a" x="79.863" y="211.428" fill="#f00"/><path d="M70.738 158.156l-14.183 4.078" stroke-width="1.2" stroke="#000" stroke-miterlimit="10" fill="none"/><path d="M56.555 162.234L42.37 166.31" stroke-width="1.2" stroke="#f00" stroke-miterlimit="10" fill="none"/><path d="M70.738 158.156l7.12-28.644M78.19 156.965l5.697-22.914" stroke-width="1.2" stroke="#000" stroke-miterlimit="10" fill="none"/><path d="M42.37 166.31l-3.557 14.323" stroke-width="1.2" stroke="#f00" stroke-miterlimit="10" fill="none"/><path d="M38.813 180.633l-3.563 14.324" stroke-width="1.2" stroke="#000" stroke-miterlimit="10" fill="none"/><path d="M37.37 159.31h10v14h-10zm0 0" fill="#fff"/><use xlink:href="#a" x="37.371" y="170.447" fill="#f00"/><path d="M77.86 129.512L56.612 109.02M77.86 129.512l28.367-8.157M109.598 122.19l3.562-14.32" stroke-width="1.2" stroke="#000" stroke-miterlimit="10" fill="none"/><path d="M113.16 107.87l3.56-14.323" stroke-width="1.2" stroke="#f00" stroke-miterlimit="10" fill="none"/><path d="M102.86 120.516l3.558-14.32" stroke-width="1.2" stroke="#000" stroke-miterlimit="10" fill="none"/><path d="M106.418 106.195l3.562-14.324" stroke-width="1.2" stroke="#f00" stroke-miterlimit="10" fill="none"/><path d="M108.348 85.71h10v14h-10zm0 0" fill="#fff"/><use xlink:href="#a" x="108.348" y="96.85" fill="#f00"/></g></svg>