<svg xmlns="http://www.w3.org/2000/svg" xmlns:xlink="http://www.w3.org/1999/xlink" width="300pt" height="300pt" viewBox="0 0 300 300"><defs><symbol overflow="visible"><path d="M.797 2.828v-14.11h8V2.83zm.906-.89h6.203v-12.33H1.703zm0 0"/></symbol><symbol overflow="visible" id="a"><path d="M6.313-10.594c-1.15 0-2.06.43-2.735 1.28-.68.857-1.015 2.017-1.015 3.486 0 1.47.335 2.633 1.015 3.484.676.856 1.586 1.28 2.735 1.28 1.144.002 2.05-.424 2.718-1.28.665-.85 1-2.015 1-3.484 0-1.47-.335-2.63-1-3.484-.667-.852-1.573-1.282-2.717-1.282zm0-1.28c1.632 0 2.94.546 3.92 1.64.978 1.093 1.47 2.562 1.47 4.406 0 1.844-.492 3.32-1.47 4.422-.98 1.093-2.288 1.64-3.92 1.64-1.65 0-2.96-.546-3.938-1.64-.98-1.102-1.47-2.578-1.47-4.422 0-1.844.49-3.313 1.47-4.406.977-1.094 2.29-1.64 3.938-1.64zm0 0"/></symbol></defs><g><path fill="#fff" d="M0 0h300v300H0z"/><path d="M98.473 187.14l-11.328 15.407" stroke-width="1.2" stroke="#f00" stroke-miterlimit="10" fill="none"/><path d="M87.145 202.547l-11.332 15.41" stroke-width="1.2" stroke="#000" stroke-miterlimit="10" fill="none"/><path d="M98.473 187.14l-7.676-17.515" stroke-width="1.2" stroke="#f00" stroke-miterlimit="10" fill="none"/><path d="M90.797 169.625l-7.68-17.516" stroke-width="1.2" stroke="#000" stroke-miterlimit="10" fill="none"/><path d="M92.473 177.64h13v19h-13zm0 0" fill="#fff"/><use xlink:href="#a" x="92.473" y="192.492" fill="#f00"/><path d="M83.117 152.11l-38.015-4.22M80.31 142.742l-30.415-3.375M105.78 121.293L83.118 152.11M45.102 147.89l-15.356-35.03M29.746 112.86l22.66-30.817M39.262 115.11l18.13-24.653M52.406 82.043l38.02 4.22M90.426 86.262l15.355 35.03M83.72 93.38L96 121.405M105.78 121.293l38.017 4.22M143.797 125.512l25.758-28.278M143.797 125.512l18.933 33.238M153.508 124.383l15.148 26.586M169.555 97.234l34.85 15.762M204.406 112.996l-4.22 38.016M212.93 117.79l-3.375 30.413M239.44 97.64l-35.034 15.356M200.188 151.012l-37.458 7.738M200.188 151.012l30.816 22.664M231.004 173.676l35.03-15.356M230.895 163.895l28.023-12.286M266.035 158.32l4.22-38.02M270.254 120.3L239.44 97.64M261.84 125.285l-24.652-18.13" stroke-width="1.2" stroke="#000" stroke-miterlimit="10" fill="none"/></g></svg>