<svg xmlns="http://www.w3.org/2000/svg" xmlns:xlink="http://www.w3.org/1999/xlink" width="300pt" height="300pt" viewBox="0 0 300 300"><defs><symbol overflow="visible"><path d="M.594 2.125V-8.47h6V2.126zm.672-.672h4.671V-7.78h-4.67zm0 0"/></symbol><symbol overflow="visible" id="a"><path d="M4.734-7.953c-.867 0-1.554.324-2.062.97-.5.635-.75 1.51-.75 2.624 0 1.094.25 1.965.75 2.61.508.637 1.195.953 2.062.953.852 0 1.532-.316 2.032-.953.507-.645.765-1.516.765-2.61 0-1.113-.257-1.988-.764-2.624-.5-.645-1.18-.97-2.032-.97zm0-.953c1.22 0 2.192.414 2.922 1.234.74.824 1.11 1.93 1.11 3.313 0 1.376-.37 2.477-1.11 3.298C6.926-.24 5.953.17 4.734.17c-1.23 0-2.214-.41-2.953-1.234C1.04-1.882.673-2.984.673-4.36c0-1.382.367-2.488 1.11-3.312.738-.82 1.722-1.234 2.952-1.234zm0 0"/></symbol></defs><g><path fill="#fff" d="M0 0h300v300H0z"/><path d="M58.602 121.668l11.96 8.39" stroke-width="1.2" stroke="#f00" stroke-miterlimit="10" fill="none"/><path d="M70.563 130.06l11.964 8.385M35.25 139.238l11.676-8.785" stroke-width="1.2" stroke="#000" stroke-miterlimit="10" fill="none"/><path d="M46.926 130.453l11.676-8.785" stroke-width="1.2" stroke="#f00" stroke-miterlimit="10" fill="none"/><path d="M53.602 114.668h10v14h-10zm0 0" fill="#fff"/><use xlink:href="#a" x="53.602" y="125.807" fill="#f00"/><path d="M82.527 138.445l28.477-6.554M86.918 144.492l22.78-5.246M73.965 166.387l8.562-27.942M111.004 131.89l19.918 21.387M130.922 153.277l-8.563 27.942M123.492 154.055l-6.85 22.355M130.922 153.277l28.476-6.554M122.36 181.22l-28.48 6.553M93.88 187.773l-19.915-21.386M96.922 180.945L80.988 163.84M73.965 166.387l-14.61.246" stroke-width="1.2" stroke="#000" stroke-miterlimit="10" fill="none"/><path d="M59.355 166.633l-14.61.242M44.746 166.875l-4.75-13.816" stroke-width="1.2" stroke="#f00" stroke-miterlimit="10" fill="none"/><path d="M39.996 153.06l-4.746-13.822" stroke-width="1.2" stroke="#000" stroke-miterlimit="10" fill="none"/><path d="M39.746 159.875h10v14h-10zm0 0" fill="#fff"/><use xlink:href="#a" x="39.746" y="171.014" fill="#f00"/><path d="M159.398 146.723l8.563-27.942M159.398 146.723l19.918 21.386M166.422 144.176l15.933 17.11M167.96 118.78l28.48-6.553M196.44 112.227l19.915 21.386M216.355 133.613l-8.562 27.942M222.074 138.422l-6.85 22.35M244.836 127.06l-28.48 6.553M207.793 161.555l-28.477 6.554M207.793 161.555l19.914 21.386M227.707 182.94l28.48-6.553M229.016 175.582l22.78-5.242M256.188 176.387l8.562-27.942M264.75 148.445l-19.914-21.386M257.727 150.992l-15.934-17.11" stroke-width="1.2" stroke="#000" stroke-miterlimit="10" fill="none"/></g></svg>