<svg xmlns="http://www.w3.org/2000/svg" xmlns:xlink="http://www.w3.org/1999/xlink" width="300pt" height="300pt" viewBox="0 0 300 300"><defs><symbol overflow="visible"><path d="M.594 2.125V-8.47h6V2.126zm.672-.672h4.671V-7.78h-4.67zm0 0"/></symbol><symbol overflow="visible" id="a"><path d="M6.422-8.47v1.158c-.45-.208-.875-.364-1.28-.47-.4-.113-.78-.17-1.142-.17-.648 0-1.148.124-1.5.374-.344.25-.516.61-.516 1.078 0 .387.114.68.344.875.227.2.672.355 1.328.47L4.36-5c.882.168 1.535.465 1.952.89.426.42.64.98.64 1.688 0 .856-.288 1.5-.858 1.938-.563.437-1.4.656-2.5.656-.406 0-.844-.047-1.313-.14C1.814-.064 1.33-.204.83-.392v-1.22c.477.274.945.477 1.406.61.47.137.922.203 1.36.203.676 0 1.195-.13 1.562-.39.375-.27.563-.65.563-1.14 0-.427-.138-.76-.407-1-.262-.25-.696-.43-1.297-.548l-.72-.14c-.886-.176-1.526-.454-1.92-.83-.388-.374-.58-.893-.58-1.56 0-.782.27-1.392.813-1.83.538-.445 1.288-.67 2.25-.67.413 0 .83.038 1.25.108.425.074.863.184 1.312.328zm0 0"/></symbol><symbol overflow="visible" id="b"><path d="M4.734-7.953c-.867 0-1.554.324-2.062.97-.5.635-.75 1.51-.75 2.624 0 1.094.25 1.965.75 2.61.508.637 1.195.953 2.062.953.852 0 1.532-.316 2.032-.953.507-.645.765-1.516.765-2.61 0-1.113-.257-1.988-.764-2.624-.5-.645-1.18-.97-2.032-.97zm0-.953c1.22 0 2.192.414 2.922 1.234.74.824 1.11 1.93 1.11 3.313 0 1.376-.37 2.477-1.11 3.298C6.926-.24 5.953.17 4.734.17c-1.23 0-2.214-.41-2.953-1.234C1.04-1.882.673-2.984.673-4.36c0-1.382.367-2.488 1.11-3.312.738-.82 1.722-1.234 2.952-1.234zm0 0"/></symbol><symbol overflow="visible" id="c"><path d="M1.172-8.75H2.36v3.594h4.296V-8.75h1.188V0H6.656v-4.172H2.36V0H1.17zm0 0"/></symbol></defs><g><path fill="#fff" d="M0 0h300v300H0z"/><path d="M230.68 194.84l-2.496 15.07" stroke-width="1.2" stroke="#cc0" stroke-miterlimit="10" fill="none"/><path d="M228.184 209.91l-2.493 15.07" stroke-width="1.2" stroke="#f00" stroke-miterlimit="10" fill="none"/><path d="M237.77 196.016l-2.493 15.066" stroke-width="1.2" stroke="#cc0" stroke-miterlimit="10" fill="none"/><path d="M235.277 211.082l-2.496 15.07" stroke-width="1.2" stroke="#f00" stroke-miterlimit="10" fill="none"/><path d="M237.77 196.016l2.492-15.07" stroke-width="1.2" stroke="#cc0" stroke-miterlimit="10" fill="none"/><path d="M240.262 180.945l2.496-15.07" stroke-width="1.2" stroke="#f00" stroke-miterlimit="10" fill="none"/><path d="M230.68 194.84l2.492-15.067" stroke-width="1.2" stroke="#cc0" stroke-miterlimit="10" fill="none"/><path d="M233.172 179.773l2.492-15.07" stroke-width="1.2" stroke="#f00" stroke-miterlimit="10" fill="none"/><path d="M234.223 195.43l15.07 2.492" stroke-width="1.2" stroke="#cc0" stroke-miterlimit="10" fill="none"/><path d="M249.293 197.922l15.07 2.492" stroke-width="1.2" stroke="#000" stroke-miterlimit="10" fill="none"/><path d="M234.223 195.43l-15.067-2.496" stroke-width="1.2" stroke="#cc0" stroke-miterlimit="10" fill="none"/><path d="M219.156 192.934l-15.07-2.493" stroke-width="1.2" stroke="#000" stroke-miterlimit="10" fill="none"/><path d="M230.223 188.43h8v14h-8zm0 0" fill="#fff"/><use xlink:href="#a" x="230.223" y="199.568" fill="#cc0"/><path d="M224.238 218.566h10v14h-10zm0 0" fill="#fff"/><use xlink:href="#b" x="224.238" y="229.705" fill="#f00"/><path d="M234.21 158.29h10v14h-10zm0 0" fill="#fff"/><use xlink:href="#b" x="234.211" y="169.428" fill="#f00"/><path d="M204.086 190.44l-10.75-28.592M196.28 190.113l-8.596-22.875M184.7 214.047l19.386-23.606M193.336 161.848l-30.14-4.99M163.195 156.86l-19.386 23.61M166.813 163.785l-15.508 18.883M143.81 180.47l10.75 28.593" stroke-width="1.2" stroke="#000" stroke-miterlimit="10" fill="none"/><path d="M113.672 175.48l29.258 10.305 1.76-10.637zm0 0"/><path d="M154.56 209.063l30.14 4.984M158.746 202.47l24.113 3.987M113.672 175.48l-.906 15.247" stroke-width="1.2" stroke="#000" stroke-miterlimit="10" fill="none"/><path d="M112.766 190.727l-.903 15.25" stroke-width="1.2" stroke="#f00" stroke-miterlimit="10" fill="none"/><path d="M113.672 175.48l-30.516 1.39M121.78 146.027l-8.108 29.453" stroke-width="1.2" stroke="#000" stroke-miterlimit="10" fill="none"/><path d="M102.863 198.977h19v14h-19zm0 0" fill="#fff"/><g fill="#f00"><use xlink:href="#c" x="102.863" y="210.115"/><use xlink:href="#b" x="111.887" y="210.115"/></g><path d="M83.156 176.87l-10.75-28.593M72.406 148.277l11.934-9.53" stroke-width="1.2" stroke="#000" stroke-miterlimit="10" fill="none"/><path d="M84.34 138.746l11.937-9.53" stroke-width="1.2" stroke="#f00" stroke-miterlimit="10" fill="none"/><path d="M72.406 148.277m-2.71-1.29l-.278 1.005m-2.434-2.29l-.554 2.01m-2.157-3.298l-.828 3.016m-1.88-4.3l-1.108 4.018m-1.602-5.308l-1.382 5.027m-1.328-6.312l-1.66 6.03m-1.05-7.32l-1.94 7.04m-.768-8.325l-2.215 8.043m-.496-9.332l-2.493 9.052m-.218-10.336l-2.77 10.05m1.848-10.487l-2.86 10.393" stroke="#000" stroke-miterlimit="10" fill="none"/><path d="M96.277 129.215l12.75 8.406" stroke-width="1.2" stroke="#f00" stroke-miterlimit="10" fill="none"/><path d="M109.027 137.62l12.754 8.407" stroke-width="1.2" stroke="#000" stroke-miterlimit="10" fill="none"/><path d="M91.277 122.215h10v14h-10zm0 0" fill="#fff"/><use xlink:href="#b" x="91.277" y="133.354" fill="#f00"/><path d="M121.78 146.027m2.95-.55l-.367-.977m3.317.426l-.735-1.953m3.684 1.402l-1.103-2.93m4.05 2.38l-1.468-3.907m4.413 3.352l-1.832-4.88m4.783 4.33l-2.2-5.857m5.15 5.305l-2.568-6.832m5.516 6.28l-2.933-7.807m5.883 7.252l-3.3-8.78m6.25 8.23l-3.668-9.758m4.67 9.57l-3.795-10.09" stroke="#000" stroke-miterlimit="10" fill="none"/><path d="M150.375 135.277l23.605 19.39M157.297 131.664l18.887 15.508M155.363 105.14l-4.988 30.137M173.98 154.668l28.594-10.75M202.574 143.918l4.988-30.14M195.984 139.73l3.99-24.113M207.563 113.777l14.296-5.375" stroke-width="1.2" stroke="#000" stroke-miterlimit="10" fill="none"/><path d="M221.86 108.402l14.296-5.375" stroke-width="1.2" stroke="#cc0" stroke-miterlimit="10" fill="none"/><path d="M207.563 113.777L183.957 94.39" stroke-width="1.2" stroke="#000" stroke-miterlimit="10" fill="none"/><path d="M232.793 104.293l5.375 14.297" stroke-width="1.2" stroke="#cc0" stroke-miterlimit="10" fill="none"/><path d="M238.168 118.59l5.375 14.297" stroke-width="1.2" stroke="#f00" stroke-miterlimit="10" fill="none"/><path d="M239.52 101.762l5.375 14.297" stroke-width="1.2" stroke="#cc0" stroke-miterlimit="10" fill="none"/><path d="M244.895 116.06l5.375 14.295" stroke-width="1.2" stroke="#f00" stroke-miterlimit="10" fill="none"/><path d="M239.52 101.762l-5.375-14.297" stroke-width="1.2" stroke="#cc0" stroke-miterlimit="10" fill="none"/><path d="M234.145 87.465l-5.375-14.297" stroke-width="1.2" stroke="#f00" stroke-miterlimit="10" fill="none"/><path d="M232.793 104.293l-5.375-14.297" stroke-width="1.2" stroke="#cc0" stroke-miterlimit="10" fill="none"/><path d="M227.418 89.996L222.043 75.7" stroke-width="1.2" stroke="#f00" stroke-miterlimit="10" fill="none"/><path d="M236.156 103.027l14.297-5.375" stroke-width="1.2" stroke="#cc0" stroke-miterlimit="10" fill="none"/><path d="M250.453 97.652l14.297-5.375" stroke-width="1.2" stroke="#000" stroke-miterlimit="10" fill="none"/><path d="M232.156 96.027h8v14h-8zm0 0" fill="#fff"/><use xlink:href="#a" x="232.156" y="107.166" fill="#cc0"/><path d="M241.906 124.62h10v14h-10zm0 0" fill="#fff"/><use xlink:href="#b" x="241.906" y="135.76" fill="#f00"/><path d="M215.406 67.434h10v14h-10zm0 0" fill="#fff"/><use xlink:href="#b" x="215.406" y="78.572" fill="#f00"/><path d="M183.957 94.39l-28.594 10.75M183.625 102.19l-22.875 8.603M42.953 140.164l-3.85-14.777" stroke-width="1.2" stroke="#000" stroke-miterlimit="10" fill="none"/><path d="M39.102 125.387l-3.852-14.782" stroke-width="1.2" stroke="#f00" stroke-miterlimit="10" fill="none"/><path d="M26.25 103.605h19v14h-19zm0 0" fill="#fff"/><g fill="#f00"><use xlink:href="#c" x="26.25" y="114.744"/><use xlink:href="#b" x="35.273" y="114.744"/></g></g></svg>