<svg xmlns="http://www.w3.org/2000/svg" xmlns:xlink="http://www.w3.org/1999/xlink" width="300pt" height="300pt" viewBox="0 0 300 300"><defs><symbol overflow="visible"><path d="M.453 1.594v-7.938h4.5v7.938zm.5-.5h3.5v-6.938h-3.5zm0 0"/></symbol><symbol overflow="visible" id="a"><path d="M.89-6.563h3.766v.75h-2.89v1.938h2.61v.734h-2.61V0H.89zm0 0"/></symbol><symbol overflow="visible" id="b"><path d="M.89-6.563H2.08l2.906 5.485v-5.484h.86V0H4.656L1.75-5.484V0H.89zm0 0"/></symbol><symbol overflow="visible" id="c"><path d="M.89-6.563h.876v2.688H5v-2.688h.89V0H5v-3.125H1.766V0H.89zm0 0"/></symbol><symbol overflow="visible" id="d"><path d="M3.547-5.953c-.65 0-1.164.242-1.547.72-.375.48-.563 1.13-.563 1.952 0 .835.188 1.49.563 1.967.383.48.898.72 1.547.72.644 0 1.156-.24 1.53-.72.376-.476.564-1.132.564-1.968 0-.822-.187-1.474-.562-1.954-.375-.477-.887-.72-1.53-.72zm0-.734c.914 0 1.648.312 2.203.937.55.617.828 1.438.828 2.47 0 1.042-.277 1.87-.828 2.483-.555.617-1.29.922-2.203.922-.93 0-1.668-.305-2.22-.922C.774-1.41.5-2.237.5-3.28c0-1.033.273-1.853.828-2.47.55-.625 1.29-.938 2.22-.938zm0 0"/></symbol><symbol overflow="visible"><path d="M.406 1.422V-5.64h4V1.42zM.844.97h3.11v-6.157H.843zm0 0"/></symbol><symbol overflow="visible" id="e"><path d="M3.688-5.016v2.172h2.17v.672H3.69V0H3.03v-2.172H.845v-.672H3.03v-2.172zm0 0"/></symbol></defs><g><path fill="#fff" d="M0 0h300v300H0z"/><path d="M125.457 133.926l1.71 10.22" stroke-width="1.2" stroke="#3cc" stroke-miterlimit="10" fill="none"/><path d="M127.168 144.145l1.71 10.218" stroke-width="1.2" stroke="#000" stroke-miterlimit="10" fill="none"/><path d="M122.457 128.426h6v11h-6zm0 0" fill="#fff"/><use xlink:href="#a" x="122.457" y="137.089" fill="#3cc"/><path d="M128.88 154.363l19.41 7.258M129.113 159.656l15.528 5.805M112.89 167.547l15.99-13.184M148.29 161.62l3.42 20.44M151.71 182.06l9.704 3.627" stroke-width="1.2" stroke="#000" stroke-miterlimit="10" fill="none"/><path d="M161.414 185.688l9.707 3.628" stroke-width="1.2" stroke="#00f" stroke-miterlimit="10" fill="none"/><path d="M151.71 182.06l-15.987 13.178M147.012 179.613L134.22 190.16" stroke-width="1.2" stroke="#000" stroke-miterlimit="10" fill="none"/><path d="M171.12 189.316l7.993-6.593" stroke-width="1.2" stroke="#00f" stroke-miterlimit="10" fill="none"/><path d="M179.113 182.723l7.996-6.59" stroke-width="1.2" stroke="#000" stroke-miterlimit="10" fill="none"/><path d="M164.12 183.816h14v11h-14zm0 0" fill="#fff"/><g fill="#00f"><use xlink:href="#b" x="164.121" y="192.479"/><use xlink:href="#c" x="171.099" y="192.479"/></g><path d="M187.11 176.133l19.41 7.258M187.344 181.426l15.527 5.804M206.52 183.39l15.988-13.183M206.52 183.39l3.42 20.438M222.508 170.207l19.41 7.258M219.09 149.77l3.418 20.437M224.238 151.012l2.74 16.347M241.918 177.465l15.992-13.18M240.418 172.387l12.79-10.547M241.918 177.465l3.422 20.437M257.91 164.285l-3.422-20.437M254.488 143.848l-19.41-7.258M250.84 147.688l-15.528-5.805M235.078 136.59l-15.988 13.18M235.078 136.59l-3.422-20.438M231.656 116.152l-18.543-9.246M246.18 101.37l-14.524 14.782M241.25 99.434l-11.617 11.824M213.113 106.906l3.063-20.496M218.238 105.578l2.453-16.398M216.176 86.41l10.22-1.71" stroke-width="1.2" stroke="#000" stroke-miterlimit="10" fill="none"/><path d="M226.395 84.7l10.218-1.708M236.613 82.992l4.782 9.188" stroke-width="1.2" stroke="#f00" stroke-miterlimit="10" fill="none"/><path d="M241.395 92.18l4.785 9.19" stroke-width="1.2" stroke="#000" stroke-miterlimit="10" fill="none"/><path d="M232.613 77.492h8v11h-8zm0 0" fill="#fff"/><use xlink:href="#d" x="232.613" y="86.155" fill="#f00"/><path d="M244.484 200.188l9.707 3.628" stroke-width="1.2" stroke="#000" stroke-miterlimit="10" fill="none"/><path d="M254.19 203.816l9.705 3.625" stroke-width="1.2" stroke="#f00" stroke-miterlimit="10" fill="none"/><path d="M246.195 195.62l9.703 3.626" stroke-width="1.2" stroke="#000" stroke-miterlimit="10" fill="none"/><path d="M255.898 199.246l9.707 3.63" stroke-width="1.2" stroke="#f00" stroke-miterlimit="10" fill="none"/><path d="M245.34 197.902l-7.996 6.59" stroke-width="1.2" stroke="#000" stroke-miterlimit="10" fill="none"/><path d="M237.344 204.492l-7.992 6.594" stroke-width="1.2" stroke="#00f" stroke-miterlimit="10" fill="none"/><path d="M260.75 199.66h8v11h-8zm0 0" fill="#fff"/><use xlink:href="#d" x="260.75" y="208.323" fill="#f00"/><path d="M229.352 211.086l-9.707-3.63" stroke-width="1.2" stroke="#00f" stroke-miterlimit="10" fill="none"/><path d="M219.645 207.457l-9.704-3.63" stroke-width="1.2" stroke="#000" stroke-miterlimit="10" fill="none"/><path d="M222.352 205.586h14v11h-14zm0 0" fill="#fff"/><g fill="#00f"><use xlink:href="#b" x="222.352" y="214.249"/><use xlink:href="#c" x="229.329" y="214.249"/></g><path d="M208.39 201.945l-7.995 6.594" stroke-width="1.2" stroke="#000" stroke-miterlimit="10" fill="none"/><path d="M200.395 208.54l-7.993 6.59" stroke-width="1.2" stroke="#f00" stroke-miterlimit="10" fill="none"/><path d="M211.492 205.71l-7.996 6.59" stroke-width="1.2" stroke="#000" stroke-miterlimit="10" fill="none"/><path d="M203.496 212.3l-7.992 6.59" stroke-width="1.2" stroke="#f00" stroke-miterlimit="10" fill="none"/><path d="M185.953 211.508h8v11h-8zm0 0" fill="#fff"/><use xlink:href="#d" x="185.953" y="220.171" fill="#f00"/><path d="M135.723 195.238l-19.41-7.254M116.313 187.984l-3.422-20.437M120.777 185.137l-2.734-16.352M112.89 167.547l-9.706-3.63" stroke-width="1.2" stroke="#000" stroke-miterlimit="10" fill="none"/><path d="M103.184 163.918l-9.704-3.63M93.48 160.29l-1.71-10.22" stroke-width="1.2" stroke="#00f" stroke-miterlimit="10" fill="none"/><path d="M91.77 150.07l-1.71-10.218M77.492 173.47l7.992-6.59" stroke-width="1.2" stroke="#000" stroke-miterlimit="10" fill="none"/><path d="M85.484 166.88l7.996-6.59" stroke-width="1.2" stroke="#00f" stroke-miterlimit="10" fill="none"/><path d="M90.48 154.79h7v11h-7zm0 0" fill="#fff"/><use xlink:href="#b" x="90.48" y="163.452" fill="#00f"/><path d="M90.06 139.852l-19.412-7.258M70.648 132.594l-7.992 6.594" stroke-width="1.2" stroke="#000" stroke-miterlimit="10" fill="none"/><path d="M62.656 139.188l-7.996 6.59M54.66 145.777l1.71 10.22" stroke-width="1.2" stroke="#00f" stroke-miterlimit="10" fill="none"/><path d="M56.37 155.996l1.712 10.22" stroke-width="1.2" stroke="#000" stroke-miterlimit="10" fill="none"/><path d="M54.66 145.777l-9.707-3.63" stroke-width="1.2" stroke="#00f" stroke-miterlimit="10" fill="none"/><path d="M44.953 142.148l-9.703-3.628" stroke-width="1.2" stroke="#000" stroke-miterlimit="10" fill="none"/><path d="M44.66 138.277h21v15h-21zm0 0" fill="#fff"/><g fill="#00f"><use xlink:href="#b" x="44.66" y="150.379"/><use xlink:href="#c" x="51.638" y="150.379"/></g><use xlink:href="#e" x="58.652" y="145.496" fill="#00f"/><path d="M58.082 166.215l19.41 7.254" stroke-width="1.2" stroke="#000" stroke-miterlimit="10" fill="none"/></g></svg>