<svg xmlns="http://www.w3.org/2000/svg" xmlns:xlink="http://www.w3.org/1999/xlink" width="300pt" height="300pt" viewBox="0 0 300 300"><defs><symbol overflow="visible"><path d="M.453 1.594v-7.938h4.5v7.938zm.5-.5h3.5v-6.938h-3.5zm0 0"/></symbol><symbol overflow="visible" id="a"><path d="M3.547-5.953c-.65 0-1.164.242-1.547.72-.375.48-.563 1.13-.563 1.952 0 .835.188 1.49.563 1.967.383.48.898.72 1.547.72.644 0 1.156-.24 1.53-.72.376-.476.564-1.132.564-1.968 0-.822-.187-1.474-.562-1.954-.375-.477-.887-.72-1.53-.72zm0-.734c.914 0 1.648.312 2.203.937.55.617.828 1.438.828 2.47 0 1.042-.277 1.87-.828 2.483-.555.617-1.29.922-2.203.922-.93 0-1.668-.305-2.22-.922C.774-1.41.5-2.237.5-3.28c0-1.033.273-1.853.828-2.47.55-.625 1.29-.938 2.22-.938zm0 0"/></symbol><symbol overflow="visible" id="b"><path d="M.89-6.563H2.08l2.906 5.485v-5.484h.86V0H4.656L1.75-5.484V0H.89zm0 0"/></symbol><symbol overflow="visible" id="c"><path d="M.89-6.563h.876v2.688H5v-2.688h.89V0H5v-3.125H1.766V0H.89zm0 0"/></symbol></defs><g><path fill="#fff" d="M0 0h300v300H0z"/><path d="M153.504 185.836l-2.086-9.56" stroke-width="1.2" stroke="#f00" stroke-miterlimit="10" fill="none"/><path d="M151.418 176.277l-2.082-9.558" stroke-width="1.2" stroke="#000" stroke-miterlimit="10" fill="none"/><path d="M149.004 186.816l-2.082-9.558" stroke-width="1.2" stroke="#f00" stroke-miterlimit="10" fill="none"/><path d="M146.922 177.258l-2.086-9.56" stroke-width="1.2" stroke="#000" stroke-miterlimit="10" fill="none"/><path d="M147.254 180.824h8v11h-8zm0 0" fill="#fff"/><use xlink:href="#a" x="147.254" y="189.487" fill="#f00"/><path d="M147.086 167.207l7.238-6.582" stroke-width="1.2" stroke="#000" stroke-miterlimit="10" fill="none"/><path d="M154.324 160.625l7.235-6.582" stroke-width="1.2" stroke="#00f" stroke-miterlimit="10" fill="none"/><path d="M147.086 167.207l-18.637-5.95" stroke-width="1.2" stroke="#000" stroke-miterlimit="10" fill="none"/><path d="M161.56 154.043l9.32 2.973" stroke-width="1.2" stroke="#00f" stroke-miterlimit="10" fill="none"/><path d="M170.88 157.016l9.32 2.976" stroke-width="1.2" stroke="#000" stroke-miterlimit="10" fill="none"/><path d="M154.56 148.543h14v11h-14zm0 0" fill="#fff"/><g fill="#00f"><use xlink:href="#b" x="154.559" y="157.206"/><use xlink:href="#c" x="161.536" y="157.206"/></g><path d="M180.2 159.992l14.472-13.168M194.672 146.824l18.64 5.953M213.313 152.777l15.77-11.582M219.453 171.352l-6.14-18.575M223.21 168.05l-4.913-14.863M229.082 141.195l15.89 11.418M233.36 138.598l12.71 9.136M231.027 121.723l-1.945 19.472M244.973 152.613l-2.977 9.32" stroke-width="1.2" stroke="#000" stroke-miterlimit="10" fill="none"/><path d="M241.996 161.934l-2.976 9.32" stroke-width="1.2" stroke="#00f" stroke-miterlimit="10" fill="none"/><path d="M244.973 152.613l17.832-8.05" stroke-width="1.2" stroke="#000" stroke-miterlimit="10" fill="none"/><path d="M239.02 171.254l-9.782.05" stroke-width="1.2" stroke="#00f" stroke-miterlimit="10" fill="none"/><path d="M229.238 171.305l-9.785.047" stroke-width="1.2" stroke="#000" stroke-miterlimit="10" fill="none"/><path d="M232.02 165.754h14v11h-14zm0 0" fill="#fff"/><g fill="#00f"><use xlink:href="#b" x="232.02" y="174.417"/><use xlink:href="#c" x="238.997" y="174.417"/></g><path d="M262.805 144.563l1.945-19.47M258.418 142.16l1.555-15.578M264.75 125.094l-15.887-11.418M248.863 113.676l-17.836 8.047M248.973 118.676l-14.266 6.44M128.45 161.258l-4.17-19.117M123.53 160.324l-3.33-15.293M113.973 174.426l14.476-13.168M124.28 142.14l-18.64-5.952M105.64 136.188L91.17 149.355M107.293 140.91l-11.578 10.535M91.168 149.355l4.168 19.118M91.168 149.355l-18.64-5.95M95.336 168.473l18.637 5.953M98.598 164.684l14.914 4.757M72.527 143.406l-4.164-19.117M67.613 142.473L64.28 127.18M58.055 156.57l14.472-13.164M68.363 124.29l-18.64-5.954M49.723 118.336L35.25 131.504M51.375 123.06l-11.578 10.534M35.25 131.504l4.168 19.117M39.418 150.62l18.637 5.95M42.68 146.832l14.914 4.758" stroke-width="1.2" stroke="#000" stroke-miterlimit="10" fill="none"/></g></svg>