<svg xmlns="http://www.w3.org/2000/svg" xmlns:xlink="http://www.w3.org/1999/xlink" width="300pt" height="300pt" viewBox="0 0 300 300"><defs><symbol overflow="visible"><path d="M.453 1.594v-7.938h4.5v7.938zm.5-.5h3.5v-6.938h-3.5zm0 0"/></symbol><symbol overflow="visible" id="a"><path d="M4.813-6.344v.86c-.336-.157-.653-.27-.954-.344-.294-.082-.58-.125-.86-.125-.492 0-.867.094-1.125.28-.262.19-.39.454-.39.798 0 .293.085.512.265.656.176.15.504.267.984.36l.547.11c.658.125 1.142.352 1.454.672.32.312.485.734.485 1.265 0 .637-.216 1.122-.642 1.454-.43.325-1.055.485-1.875.485-.312 0-.648-.04-1-.11C1.36-.046 1-.147.625-.296v-.906c.352.2.703.35 1.047.453.35.105.695.156 1.03.156.5 0 .884-.097 1.157-.297.28-.196.42-.485.42-.86 0-.32-.1-.57-.296-.75-.2-.176-.523-.313-.968-.406l-.547-.11C1.81-3.148 1.33-3.36 1.03-3.64.74-3.923.595-4.313.595-4.813c0-.57.203-1.024.61-1.36.405-.344.968-.516 1.687-.516.313 0 .626.032.938.094.32.055.65.137.985.25zm0 0"/></symbol><symbol overflow="visible" id="b"><path d="M3.547-5.953c-.65 0-1.164.242-1.547.72-.375.48-.563 1.13-.563 1.952 0 .835.188 1.49.563 1.967.383.48.898.72 1.547.72.644 0 1.156-.24 1.53-.72.376-.476.564-1.132.564-1.968 0-.822-.187-1.474-.562-1.954-.375-.477-.887-.72-1.53-.72zm0-.734c.914 0 1.648.312 2.203.937.55.617.828 1.438.828 2.47 0 1.042-.277 1.87-.828 2.483-.555.617-1.29.922-2.203.922-.93 0-1.668-.305-2.22-.922C.774-1.41.5-2.237.5-3.28c0-1.033.273-1.853.828-2.47.55-.625 1.29-.938 2.22-.938zm0 0"/></symbol><symbol overflow="visible" id="c"><path d="M.89-6.563H2.08l2.906 5.485v-5.484h.86V0H4.656L1.75-5.484V0H.89zm0 0"/></symbol><symbol overflow="visible" id="d"><path d="M.89-6.563h3.766v.75h-2.89v1.938h2.61v.734h-2.61V0H.89zm0 0"/></symbol></defs><g><path fill="#fff" d="M0 0h300v300H0z"/><path d="M52.832 209.2l6.47 9.964" stroke-width="1.2" stroke="#cc0" stroke-miterlimit="10" fill="none"/><path d="M59.3 219.164l6.466 9.96" stroke-width="1.2" stroke="#f00" stroke-miterlimit="10" fill="none"/><path d="M57.52 206.156l6.468 9.96" stroke-width="1.2" stroke="#cc0" stroke-miterlimit="10" fill="none"/><path d="M63.988 216.117l6.47 9.965" stroke-width="1.2" stroke="#f00" stroke-miterlimit="10" fill="none"/><path d="M57.52 206.156l-6.465-9.965" stroke-width="1.2" stroke="#cc0" stroke-miterlimit="10" fill="none"/><path d="M51.055 196.19l-6.47-9.963" stroke-width="1.2" stroke="#f00" stroke-miterlimit="10" fill="none"/><path d="M52.832 209.2l-6.47-9.966" stroke-width="1.2" stroke="#cc0" stroke-miterlimit="10" fill="none"/><path d="M46.363 199.234l-6.465-9.96" stroke-width="1.2" stroke="#f00" stroke-miterlimit="10" fill="none"/><path d="M55.176 207.676l-9.96 6.47" stroke-width="1.2" stroke="#cc0" stroke-miterlimit="10" fill="none"/><path d="M45.215 214.145l-9.965 6.468" stroke-width="1.2" stroke="#000" stroke-miterlimit="10" fill="none"/><path d="M55.176 207.676l9.965-6.465" stroke-width="1.2" stroke="#cc0" stroke-miterlimit="10" fill="none"/><path d="M65.14 201.21l9.965-6.468" stroke-width="1.2" stroke="#000" stroke-miterlimit="10" fill="none"/><path d="M52.176 202.176h6v11h-6zm0 0" fill="#fff"/><use xlink:href="#a" x="52.176" y="210.839" fill="#cc0"/><path d="M64.113 222.105h8v11h-8zm0 0" fill="#fff"/><use xlink:href="#b" x="64.113" y="230.769" fill="#f00"/><path d="M34.242 182.25h8v11h-8zm0 0" fill="#fff"/><use xlink:href="#b" x="34.242" y="190.913" fill="#f00"/><path d="M75.105 194.742l-1.238-23.722M80.563 192.078l-.993-18.98M96.27 205.53l-21.165-10.788M73.867 171.02l19.926-12.938M93.793 158.082l21.164 10.79M93.37 164.14l16.93 8.633M114.957 168.87l1.238 23.728M114.957 168.87l19.926-12.933M116.195 192.598L96.27 205.53M111.16 189.203L95.22 199.55M134.883 155.938l.625-11.86" stroke-width="1.2" stroke="#000" stroke-miterlimit="10" fill="none"/><path d="M135.508 144.078l.625-11.863" stroke-width="1.2" stroke="#00f" stroke-miterlimit="10" fill="none"/><path d="M157.063 164.457l-22.18-8.52M156.848 158.387l-17.743-6.817" stroke-width="1.2" stroke="#000" stroke-miterlimit="10" fill="none"/><path d="M136.133 132.215l11.472-3.074" stroke-width="1.2" stroke="#00f" stroke-miterlimit="10" fill="none"/><path d="M147.605 129.14l11.477-3.07" stroke-width="1.2" stroke="#000" stroke-miterlimit="10" fill="none"/><path d="M136.133 132.215l-9.23-7.477" stroke-width="1.2" stroke="#00f" stroke-miterlimit="10" fill="none"/><path d="M126.902 124.738l-9.23-7.48" stroke-width="1.2" stroke="#000" stroke-miterlimit="10" fill="none"/><path d="M133.133 126.715h7v11h-7zm0 0" fill="#fff"/><use xlink:href="#c" x="133.133" y="135.378" fill="#00f"/><path d="M159.082 126.07l8.52-22.175M159.082 126.07l12.934 19.926M155.688 131.105l10.347 15.942M172.016 145.996l-14.953 18.46M172.016 145.996l23.722 1.25M195.738 147.246l10.782 21.168M206.52 168.414l11.863.625" stroke-width="1.2" stroke="#000" stroke-miterlimit="10" fill="none"/><path d="M218.383 169.04l11.863.624M230.246 169.664l5.39 10.586" stroke-width="1.2" stroke="#f00" stroke-miterlimit="10" fill="none"/><path d="M235.637 180.25l5.39 10.582" stroke-width="1.2" stroke="#000" stroke-miterlimit="10" fill="none"/><path d="M226.246 164.164h8v11h-8zm0 0" fill="#fff"/><use xlink:href="#b" x="226.246" y="172.827" fill="#f00"/><path d="M241.027 190.832l23.723 1.25M117.672 117.258l3.723-23.46M112.523 114.04l2.977-18.774M95.492 125.77l22.18-8.512M121.395 93.797l-18.46-14.957M102.934 78.84l-22.18 8.512M102.72 84.91l-17.743 6.81M80.754 87.352l-9.23-7.477" stroke-width="1.2" stroke="#000" stroke-miterlimit="10" fill="none"/><path d="M71.523 79.875l-9.226-7.48" stroke-width="1.2" stroke="#3cc" stroke-miterlimit="10" fill="none"/><path d="M80.754 87.352l-3.72 23.46" stroke-width="1.2" stroke="#000" stroke-miterlimit="10" fill="none"/><path d="M56.297 66.895h6v11h-6zm0 0" fill="#fff"/><use xlink:href="#d" x="56.297" y="75.558" fill="#3cc"/><path d="M77.035 110.813l18.457 14.957M82.398 107.965l14.766 11.965" stroke-width="1.2" stroke="#000" stroke-miterlimit="10" fill="none"/></g></svg>