<svg xmlns="http://www.w3.org/2000/svg" xmlns:xlink="http://www.w3.org/1999/xlink" width="300pt" height="300pt" viewBox="0 0 300 300"><defs><symbol overflow="visible"><path d="M.453 1.594v-7.938h4.5v7.938zm.5-.5h3.5v-6.938h-3.5zm0 0"/></symbol><symbol overflow="visible" id="a"><path d="M.89-6.563h3.766v.75h-2.89v1.938h2.61v.734h-2.61V0H.89zm0 0"/></symbol><symbol overflow="visible" id="b"><path d="M.89-6.563H2.08l2.906 5.485v-5.484h.86V0H4.656L1.75-5.484V0H.89zm0 0"/></symbol><symbol overflow="visible" id="c"><path d="M.89-6.563h.876v2.688H5v-2.688h.89V0H5v-3.125H1.766V0H.89zm0 0"/></symbol><symbol overflow="visible" id="d"><path d="M3.547-5.953c-.65 0-1.164.242-1.547.72-.375.48-.563 1.13-.563 1.952 0 .835.188 1.49.563 1.967.383.48.898.72 1.547.72.644 0 1.156-.24 1.53-.72.376-.476.564-1.132.564-1.968 0-.822-.187-1.474-.562-1.954-.375-.477-.887-.72-1.53-.72zm0-.734c.914 0 1.648.312 2.203.937.55.617.828 1.438.828 2.47 0 1.042-.277 1.87-.828 2.483-.555.617-1.29.922-2.203.922-.93 0-1.668-.305-2.22-.922C.774-1.41.5-2.237.5-3.28c0-1.033.273-1.853.828-2.47.55-.625 1.29-.938 2.22-.938zm0 0"/></symbol></defs><g><path fill="#fff" d="M0 0h300v300H0z"/><path d="M35.25 149.422l8.73-7.113" stroke-width="1.2" stroke="#3cc" stroke-miterlimit="10" fill="none"/><path d="M43.98 142.31l8.727-7.12" stroke-width="1.2" stroke="#000" stroke-miterlimit="10" fill="none"/><path d="M29.25 143.922h6v11h-6zm0 0" fill="#fff"/><use xlink:href="#a" x="29.25" y="152.585" fill="#3cc"/><path d="M52.707 135.19l-3.594-22.23M57.578 132.125l-2.875-17.79M73.758 143.195l-21.05-8.004M49.113 112.96l8.727-7.116" stroke-width="1.2" stroke="#000" stroke-miterlimit="10" fill="none"/><path d="M57.84 105.844l8.73-7.114M66.57 98.73l10.528 4.004" stroke-width="1.2" stroke="#00f" stroke-miterlimit="10" fill="none"/><path d="M77.098 102.734l10.523 4" stroke-width="1.2" stroke="#000" stroke-miterlimit="10" fill="none"/><path d="M66.793 104.484l8.418 3.204" stroke-width="1.2" stroke="#00f" stroke-miterlimit="10" fill="none"/><path d="M75.21 107.688l8.423 3.2" stroke-width="1.2" stroke="#000" stroke-miterlimit="10" fill="none"/><path d="M63.57 93.23h7v11h-7zm0 0" fill="#fff"/><use xlink:href="#b" x="63.57" y="101.894" fill="#00f"/><path d="M87.62 106.734l1.798 11.118" stroke-width="1.2" stroke="#000" stroke-miterlimit="10" fill="none"/><path d="M89.418 117.852l1.797 11.117" stroke-width="1.2" stroke="#00f" stroke-miterlimit="10" fill="none"/><path d="M87.62 106.734l8.732-7.113" stroke-width="1.2" stroke="#000" stroke-miterlimit="10" fill="none"/><path d="M96.352 99.62l8.726-7.112M91.215 128.97l-8.727 7.112" stroke-width="1.2" stroke="#00f" stroke-miterlimit="10" fill="none"/><path d="M82.488 136.082l-8.73 7.113" stroke-width="1.2" stroke="#000" stroke-miterlimit="10" fill="none"/><path d="M86.12 126.28l-6.98 5.693" stroke-width="1.2" stroke="#00f" stroke-miterlimit="10" fill="none"/><path d="M79.14 131.973l-6.984 5.69" stroke-width="1.2" stroke="#000" stroke-miterlimit="10" fill="none"/><path d="M88.215 123.47h7v11h-7zm0 0" fill="#fff"/><use xlink:href="#b" x="88.215" y="132.132" fill="#00f"/><path d="M73.758 143.195l3.594 22.235M77.352 165.43l10.05 5.078" stroke-width="1.2" stroke="#000" stroke-miterlimit="10" fill="none"/><path d="M87.402 170.508l10.05 5.082" stroke-width="1.2" stroke="#00f" stroke-miterlimit="10" fill="none"/><path d="M61.477 181.406l15.875-15.976M66.824 183.543l12.7-12.78" stroke-width="1.2" stroke="#000" stroke-miterlimit="10" fill="none"/><path d="M97.453 175.59l10.016-5.145" stroke-width="1.2" stroke="#00f" stroke-miterlimit="10" fill="none"/><path d="M107.47 170.445l10.014-5.144" stroke-width="1.2" stroke="#000" stroke-miterlimit="10" fill="none"/><path d="M97.453 175.59l-1.726 11.13" stroke-width="1.2" stroke="#00f" stroke-miterlimit="10" fill="none"/><path d="M95.727 186.72L94 197.843" stroke-width="1.2" stroke="#000" stroke-miterlimit="10" fill="none"/><path d="M94.453 170.09h7v11h-7zm0 0" fill="#fff"/><use xlink:href="#b" x="94.453" y="178.753" fill="#00f"/><path d="M117.484 165.3l18.93 12.208M117.484 165.3l1.11-22.49M94 197.844l-11.117 1.797" stroke-width="1.2" stroke="#000" stroke-miterlimit="10" fill="none"/><path d="M82.883 199.64l-11.117 1.798" stroke-width="1.2" stroke="#00f" stroke-miterlimit="10" fill="none"/><path d="M90.93 192.973l-8.89 1.437" stroke-width="1.2" stroke="#000" stroke-miterlimit="10" fill="none"/><path d="M82.04 194.41l-8.895 1.438" stroke-width="1.2" stroke="#00f" stroke-miterlimit="10" fill="none"/><path d="M94 197.844l15.977 15.875" stroke-width="1.2" stroke="#000" stroke-miterlimit="10" fill="none"/><path d="M71.766 201.438l-5.145-10.016" stroke-width="1.2" stroke="#00f" stroke-miterlimit="10" fill="none"/><path d="M66.62 191.422l-5.143-10.016" stroke-width="1.2" stroke="#000" stroke-miterlimit="10" fill="none"/><path d="M68.766 195.938h7v11h-7zm0 0" fill="#fff"/><use xlink:href="#b" x="68.766" y="204.601" fill="#00f"/><path d="M105.078 92.508l10.527 4" stroke-width="1.2" stroke="#00f" stroke-miterlimit="10" fill="none"/><path d="M115.605 96.508l10.524 4.004" stroke-width="1.2" stroke="#000" stroke-miterlimit="10" fill="none"/><path d="M98.078 87.008h14v11h-14zm0 0" fill="#fff"/><g fill="#00f"><use xlink:href="#b" x="98.078" y="95.671"/><use xlink:href="#c" x="105.056" y="95.671"/></g><path d="M126.13 100.512l3.593 22.23M131.72 101.887l2.874 17.785M143.586 86.28l-17.457 14.232M129.723 122.742l21.05 8.004M150.773 130.746l17.457-14.226M149.172 125.215l13.965-11.383M168.23 116.52l10.528 4" stroke-width="1.2" stroke="#000" stroke-miterlimit="10" fill="none"/><path d="M178.758 120.52l10.523 4.003" stroke-width="1.2" stroke="#00f" stroke-miterlimit="10" fill="none"/><path d="M168.23 116.52l-3.593-22.235" stroke-width="1.2" stroke="#000" stroke-miterlimit="10" fill="none"/><path d="M189.28 124.523l4.615 10.27" stroke-width="1.2" stroke="#00f" stroke-miterlimit="10" fill="none"/><path d="M193.895 134.793l4.613 10.273M209.828 115.297l-10.273 4.613" stroke-width="1.2" stroke="#000" stroke-miterlimit="10" fill="none"/><path d="M199.555 119.91l-10.274 4.613" stroke-width="1.2" stroke="#00f" stroke-miterlimit="10" fill="none"/><path d="M186.28 119.023h7v11h-7zm0 0" fill="#fff"/><use xlink:href="#b" x="186.281" y="127.687" fill="#00f"/><path d="M198.508 145.066l20.547-9.226M219.055 135.84l10.523 4.004" stroke-width="1.2" stroke="#000" stroke-miterlimit="10" fill="none"/><path d="M229.578 139.844l10.527 4" stroke-width="1.2" stroke="#00f" stroke-miterlimit="10" fill="none"/><path d="M219.055 135.84l-9.227-20.543" stroke-width="1.2" stroke="#000" stroke-miterlimit="10" fill="none"/><path d="M240.105 143.844l1.797 11.117" stroke-width="1.2" stroke="#00f" stroke-miterlimit="10" fill="none"/><path d="M241.902 154.96l1.797 11.118" stroke-width="1.2" stroke="#000" stroke-miterlimit="10" fill="none"/><path d="M233.105 138.344h14v11h-14zm0 0" fill="#fff"/><g fill="#00f"><use xlink:href="#b" x="233.105" y="147.007"/><use xlink:href="#c" x="240.083" y="147.007"/></g><path d="M242.023 164.023l-8.726 7.114" stroke-width="1.2" stroke="#000" stroke-miterlimit="10" fill="none"/><path d="M233.297 171.137l-8.73 7.117" stroke-width="1.2" stroke="#f00" stroke-miterlimit="10" fill="none"/><path d="M245.37 168.133l-8.725 7.113" stroke-width="1.2" stroke="#000" stroke-miterlimit="10" fill="none"/><path d="M236.645 175.246l-8.73 7.113" stroke-width="1.2" stroke="#f00" stroke-miterlimit="10" fill="none"/><path d="M243.7 166.078l21.05 8.004" stroke-width="1.2" stroke="#000" stroke-miterlimit="10" fill="none"/><path d="M218.242 174.805h8v11h-8zm0 0" fill="#fff"/><use xlink:href="#d" x="218.242" y="183.468" fill="#f00"/><path d="M164.637 94.285l-21.05-8.004M160.648 98.438l-16.84-6.403" stroke-width="1.2" stroke="#000" stroke-miterlimit="10" fill="none"/></g></svg>