<svg xmlns="http://www.w3.org/2000/svg" xmlns:xlink="http://www.w3.org/1999/xlink" width="300pt" height="300pt" viewBox="0 0 300 300"><defs><symbol overflow="visible"><path d="M.453 1.594v-7.938h4.5v7.938zm.5-.5h3.5v-6.938h-3.5zm0 0"/></symbol><symbol overflow="visible" id="a"><path d="M4.813-6.344v.86c-.336-.157-.653-.27-.954-.344-.294-.082-.58-.125-.86-.125-.492 0-.867.094-1.125.28-.262.19-.39.454-.39.798 0 .293.085.512.265.656.176.15.504.267.984.36l.547.11c.658.125 1.142.352 1.454.672.32.312.485.734.485 1.265 0 .637-.216 1.122-.642 1.454-.43.325-1.055.485-1.875.485-.312 0-.648-.04-1-.11C1.36-.046 1-.147.625-.296v-.906c.352.2.703.35 1.047.453.35.105.695.156 1.03.156.5 0 .884-.097 1.157-.297.28-.196.42-.485.42-.86 0-.32-.1-.57-.296-.75-.2-.176-.523-.313-.968-.406l-.547-.11C1.81-3.148 1.33-3.36 1.03-3.64.74-3.923.595-4.313.595-4.813c0-.57.203-1.024.61-1.36.405-.344.968-.516 1.687-.516.313 0 .626.032.938.094.32.055.65.137.985.25zm0 0"/></symbol><symbol overflow="visible" id="b"><path d="M3.547-5.953c-.65 0-1.164.242-1.547.72-.375.48-.563 1.13-.563 1.952 0 .835.188 1.49.563 1.967.383.48.898.72 1.547.72.644 0 1.156-.24 1.53-.72.376-.476.564-1.132.564-1.968 0-.822-.187-1.474-.562-1.954-.375-.477-.887-.72-1.53-.72zm0-.734c.914 0 1.648.312 2.203.937.55.617.828 1.438.828 2.47 0 1.042-.277 1.87-.828 2.483-.555.617-1.29.922-2.203.922-.93 0-1.668-.305-2.22-.922C.774-1.41.5-2.237.5-3.28c0-1.033.273-1.853.828-2.47.55-.625 1.29-.938 2.22-.938zm0 0"/></symbol><symbol overflow="visible" id="c"><path d="M.89-6.563H2.08l2.906 5.485v-5.484h.86V0H4.656L1.75-5.484V0H.89zm0 0"/></symbol><symbol overflow="visible"><path d="M.406 1.422V-5.64h4V1.42zM.844.97h3.11v-6.157H.843zm0 0"/></symbol><symbol overflow="visible" id="d"><path d="M3.688-5.016v2.172h2.17v.672H3.69V0H3.03v-2.172H.845v-.672H3.03v-2.172zm0 0"/></symbol><symbol overflow="visible" id="e"><path d="M.39-2.516H2.5v.64H.39zm0 0"/></symbol></defs><g><path fill="#fff" d="M0 0h300v300H0z"/><path d="M65.512 126.445l-5.973-7.69" stroke-width="1.2" stroke="#cc0" stroke-miterlimit="10" fill="none"/><path d="M59.54 118.754l-5.974-7.688M54.578 142.555l5.465-8.055" stroke-width="1.2" stroke="#000" stroke-miterlimit="10" fill="none"/><path d="M60.043 134.5l5.47-8.055" stroke-width="1.2" stroke="#cc0" stroke-miterlimit="10" fill="none"/><path d="M62.512 120.945h6v11h-6zm0 0" fill="#fff"/><use xlink:href="#a" x="62.512" y="129.608" fill="#cc0"/><path d="M53.566 111.066l-18.316 6.61M53.29 116.035l-14.653 5.29M35.25 117.676l.625 19.46M35.875 137.137l18.703 5.418M39.02 133.277l14.964 4.336M54.578 142.555l6.61 18.316M59.438 159.395l-6.282 7.44" stroke-width="1.2" stroke="#000" stroke-miterlimit="10" fill="none"/><path d="M53.156 166.836l-6.277 7.44" stroke-width="1.2" stroke="#f00" stroke-miterlimit="10" fill="none"/><path d="M62.938 162.352l-6.278 7.437" stroke-width="1.2" stroke="#000" stroke-miterlimit="10" fill="none"/><path d="M56.66 169.79l-6.28 7.44" stroke-width="1.2" stroke="#f00" stroke-miterlimit="10" fill="none"/><path d="M61.188 160.87l19.164 3.44" stroke-width="1.2" stroke="#000" stroke-miterlimit="10" fill="none"/><path d="M40.63 170.254h8v11h-8zm0 0" fill="#fff"/><use xlink:href="#b" x="40.629" y="178.917" fill="#f00"/><path d="M80.352 164.31l6.61 18.315M85.324 164.582l5.285 14.656M92.91 149.426L80.352 164.31M86.96 182.625l19.17 3.434M106.13 186.06l12.558-14.884M103.883 181.613l10.047-11.902M118.688 171.176l-6.61-18.317M118.688 171.176l19.164 3.433M112.078 152.86l-19.168-3.434M109.352 157.027l-15.332-2.75M137.852 174.61l12.558-14.88M137.852 174.61l6.61 18.316M150.41 159.73l9.582 1.715" stroke-width="1.2" stroke="#000" stroke-miterlimit="10" fill="none"/><path d="M159.992 161.445l9.586 1.72" stroke-width="1.2" stroke="#f00" stroke-miterlimit="10" fill="none"/><path d="M152.566 158.953l-3.304-9.16" stroke-width="1.2" stroke="#000" stroke-miterlimit="10" fill="none"/><path d="M149.262 149.793l-3.305-9.156" stroke-width="1.2" stroke="#f00" stroke-miterlimit="10" fill="none"/><path d="M148.254 160.508l-3.3-9.16" stroke-width="1.2" stroke="#000" stroke-miterlimit="10" fill="none"/><path d="M144.953 151.348l-3.305-9.157M169.578 163.164l6.277-7.44" stroke-width="1.2" stroke="#f00" stroke-miterlimit="10" fill="none"/><path d="M175.855 155.723l6.282-7.442" stroke-width="1.2" stroke="#000" stroke-miterlimit="10" fill="none"/><path d="M165.578 157.664h8v11h-8zm0 0" fill="#fff"/><use xlink:href="#b" x="165.578" y="166.327" fill="#f00"/><path d="M182.137 148.28l19.164 3.44M201.3 151.72l3.305 9.155" stroke-width="1.2" stroke="#000" stroke-miterlimit="10" fill="none"/><path d="M204.605 160.875l3.305 9.16" stroke-width="1.2" stroke="#f00" stroke-miterlimit="10" fill="none"/><path d="M201.3 151.72l12.56-14.884" stroke-width="1.2" stroke="#000" stroke-miterlimit="10" fill="none"/><path d="M207.91 170.035l9.582 1.715" stroke-width="1.2" stroke="#f00" stroke-miterlimit="10" fill="none"/><path d="M217.492 171.75l9.586 1.72" stroke-width="1.2" stroke="#00f" stroke-miterlimit="10" fill="none"/><path d="M203.91 164.535h8v11h-8zm0 0" fill="#fff"/><use xlink:href="#b" x="203.91" y="173.198" fill="#f00"/><path d="M228.828 174.945l6.277-7.44" stroke-width="1.2" stroke="#00f" stroke-miterlimit="10" fill="none"/><path d="M235.105 167.504l6.282-7.44" stroke-width="1.2" stroke="#f00" stroke-miterlimit="10" fill="none"/><path d="M225.324 171.992l6.28-7.44" stroke-width="1.2" stroke="#00f" stroke-miterlimit="10" fill="none"/><path d="M231.605 164.55l6.278-7.44" stroke-width="1.2" stroke="#f00" stroke-miterlimit="10" fill="none"/><path d="M227.078 173.47l3.305 9.155" stroke-width="1.2" stroke="#00f" stroke-miterlimit="10" fill="none"/><path d="M230.383 182.625l3.304 9.16" stroke-width="1.2" stroke="#f00" stroke-miterlimit="10" fill="none"/><path d="M220.078 165.97h14v15h-14zm0 0" fill="#fff"/><use xlink:href="#c" x="220.078" y="178.07" fill="#00f"/><use xlink:href="#d" x="227.056" y="173.188" fill="#00f"/><path d="M235.633 153.086h8v11h-8zm0 0" fill="#fff"/><use xlink:href="#b" x="235.633" y="161.749" fill="#f00"/><path d="M228.688 184.285h11v15h-11zm0 0" fill="#fff"/><use xlink:href="#b" x="228.688" y="196.387" fill="#f00"/><use xlink:href="#e" x="236.029" y="191.504" fill="#f00"/><path d="M213.86 136.836l9.58 1.72" stroke-width="1.2" stroke="#000" stroke-miterlimit="10" fill="none"/><path d="M223.44 138.555l9.587 1.715M233.027 140.27l6.278-7.442" stroke-width="1.2" stroke="#f00" stroke-miterlimit="10" fill="none"/><path d="M239.305 132.828l6.277-7.437" stroke-width="1.2" stroke="#00f" stroke-miterlimit="10" fill="none"/><path d="M229.027 134.77h8v11h-8zm0 0" fill="#fff"/><use xlink:href="#b" x="229.027" y="143.433" fill="#f00"/><path d="M247.738 124.613l-3.304-9.16" stroke-width="1.2" stroke="#00f" stroke-miterlimit="10" fill="none"/><path d="M244.434 115.453l-3.305-9.156" stroke-width="1.2" stroke="#f00" stroke-miterlimit="10" fill="none"/><path d="M243.43 126.168l-3.305-9.16" stroke-width="1.2" stroke="#00f" stroke-miterlimit="10" fill="none"/><path d="M240.125 117.008l-3.305-9.156" stroke-width="1.2" stroke="#f00" stroke-miterlimit="10" fill="none"/><path d="M245.582 125.39l9.586 1.715" stroke-width="1.2" stroke="#00f" stroke-miterlimit="10" fill="none"/><path d="M255.168 127.105l9.582 1.72" stroke-width="1.2" stroke="#f00" stroke-miterlimit="10" fill="none"/><path d="M238.582 117.89h14v15h-14zm0 0" fill="#fff"/><use xlink:href="#c" x="238.582" y="129.992" fill="#00f"/><use xlink:href="#d" x="245.56" y="125.109" fill="#00f"/><path d="M230.977 101.574h8v11h-8zm0 0" fill="#fff"/><use xlink:href="#b" x="230.977" y="110.237" fill="#f00"/><path d="M259.75 121.324h11v15h-11zm0 0" fill="#fff"/><use xlink:href="#b" x="259.75" y="133.426" fill="#f00"/><use xlink:href="#e" x="267.092" y="128.543" fill="#f00"/><path d="M135.8 135.914h8v11h-8zm0 0" fill="#fff"/><use xlink:href="#b" x="135.801" y="144.577" fill="#f00"/></g></svg>