<svg xmlns="http://www.w3.org/2000/svg" xmlns:xlink="http://www.w3.org/1999/xlink" width="300pt" height="300pt" viewBox="0 0 300 300"><defs><symbol overflow="visible"><path d="M.453 1.594v-7.938h4.5v7.938zm.5-.5h3.5v-6.938h-3.5zm0 0"/></symbol><symbol overflow="visible" id="a"><path d="M.89-6.563h3.766v.75h-2.89v1.938h2.61v.734h-2.61V0H.89zm0 0"/></symbol><symbol overflow="visible" id="b"><path d="M.89-6.563H2.08l2.906 5.485v-5.484h.86V0H4.656L1.75-5.484V0H.89zm0 0"/></symbol><symbol overflow="visible" id="c"><path d="M.89-6.563h.876v2.688H5v-2.688h.89V0H5v-3.125H1.766V0H.89zm0 0"/></symbol><symbol overflow="visible" id="d"><path d="M3.547-5.953c-.65 0-1.164.242-1.547.72-.375.48-.563 1.13-.563 1.952 0 .835.188 1.49.563 1.967.383.48.898.72 1.547.72.644 0 1.156-.24 1.53-.72.376-.476.564-1.132.564-1.968 0-.822-.187-1.474-.562-1.954-.375-.477-.887-.72-1.53-.72zm0-.734c.914 0 1.648.312 2.203.937.55.617.828 1.438.828 2.47 0 1.042-.277 1.87-.828 2.483-.555.617-1.29.922-2.203.922-.93 0-1.668-.305-2.22-.922C.774-1.41.5-2.237.5-3.28c0-1.033.273-1.853.828-2.47.55-.625 1.29-.938 2.22-.938zm0 0"/></symbol><symbol overflow="visible"><path d="M.406 1.422V-5.64h4V1.42zM.844.97h3.11v-6.157H.843zm0 0"/></symbol><symbol overflow="visible" id="e"><path d="M3.688-5.016v2.172h2.17v.672H3.69V0H3.03v-2.172H.845v-.672H3.03v-2.172zm0 0"/></symbol></defs><g><path fill="#fff" d="M0 0h300v300H0z"/><path d="M35.25 154.918l7.797-7.223" stroke-width="1.2" stroke="#3cc" stroke-miterlimit="10" fill="none"/><path d="M43.047 147.695l7.793-7.218" stroke-width="1.2" stroke="#000" stroke-miterlimit="10" fill="none"/><path d="M29.25 149.418h6v11h-6zm0 0" fill="#fff"/><use xlink:href="#a" x="29.25" y="158.081" fill="#3cc"/><path d="M50.84 140.477l-4.71-20.727M55.246 137.293l-3.77-16.578M71.145 146.758l-20.305-6.28M46.13 119.75l7.796-7.22" stroke-width="1.2" stroke="#000" stroke-miterlimit="10" fill="none"/><path d="M53.926 112.53l7.797-7.22M61.723 105.31l10.148 3.14" stroke-width="1.2" stroke="#00f" stroke-miterlimit="10" fill="none"/><path d="M71.87 108.45l10.153 3.14" stroke-width="1.2" stroke="#000" stroke-miterlimit="10" fill="none"/><path d="M62.273 110.715l8.122 2.512" stroke-width="1.2" stroke="#00f" stroke-miterlimit="10" fill="none"/><path d="M70.395 113.227l8.12 2.51" stroke-width="1.2" stroke="#000" stroke-miterlimit="10" fill="none"/><path d="M58.723 99.81h7v11h-7zm0 0" fill="#fff"/><use xlink:href="#b" x="58.723" y="108.472" fill="#00f"/><path d="M82.023 111.59l2.356 10.363" stroke-width="1.2" stroke="#000" stroke-miterlimit="10" fill="none"/><path d="M84.38 121.953l2.354 10.363" stroke-width="1.2" stroke="#00f" stroke-miterlimit="10" fill="none"/><path d="M82.023 111.59l7.797-7.22" stroke-width="1.2" stroke="#000" stroke-miterlimit="10" fill="none"/><path d="M89.82 104.37l7.797-7.222M86.734 132.316l-7.793 7.22" stroke-width="1.2" stroke="#00f" stroke-miterlimit="10" fill="none"/><path d="M78.94 139.535l-7.795 7.223" stroke-width="1.2" stroke="#000" stroke-miterlimit="10" fill="none"/><path d="M81.777 130.09l-6.234 5.777" stroke-width="1.2" stroke="#00f" stroke-miterlimit="10" fill="none"/><path d="M75.543 135.867l-6.238 5.778" stroke-width="1.2" stroke="#000" stroke-miterlimit="10" fill="none"/><path d="M83.734 126.816h7v11h-7zm0 0" fill="#fff"/><use xlink:href="#b" x="83.734" y="135.479" fill="#00f"/><path d="M71.145 146.758l4.71 20.722M75.855 167.48l9.77 4.184" stroke-width="1.2" stroke="#000" stroke-miterlimit="10" fill="none"/><path d="M85.625 171.664l9.766 4.188" stroke-width="1.2" stroke="#00f" stroke-miterlimit="10" fill="none"/><path d="M61.86 183.473l13.995-15.993M67.023 185.168L78.22 172.37" stroke-width="1.2" stroke="#000" stroke-miterlimit="10" fill="none"/><path d="M95.39 175.852l9.126-5.446" stroke-width="1.2" stroke="#00f" stroke-miterlimit="10" fill="none"/><path d="M104.516 170.406l9.13-5.44" stroke-width="1.2" stroke="#000" stroke-miterlimit="10" fill="none"/><path d="M95.39 175.852l-.96 10.582" stroke-width="1.2" stroke="#00f" stroke-miterlimit="10" fill="none"/><path d="M94.43 186.434l-.96 10.582" stroke-width="1.2" stroke="#000" stroke-miterlimit="10" fill="none"/><path d="M92.39 170.352h7v11h-7zm0 0" fill="#fff"/><use xlink:href="#b" x="92.391" y="179.015" fill="#00f"/><path d="M113.645 164.965l18.554 10.367M113.645 164.965l-.3-21.25M93.47 197.016l-10.365 2.355" stroke-width="1.2" stroke="#000" stroke-miterlimit="10" fill="none"/><path d="M83.105 199.37l-10.363 2.357" stroke-width="1.2" stroke="#00f" stroke-miterlimit="10" fill="none"/><path d="M90.285 192.61l-8.29 1.886" stroke-width="1.2" stroke="#000" stroke-miterlimit="10" fill="none"/><path d="M81.996 194.496l-8.29 1.883" stroke-width="1.2" stroke="#00f" stroke-miterlimit="10" fill="none"/><path d="M93.47 197.016l15.99 13.996" stroke-width="1.2" stroke="#000" stroke-miterlimit="10" fill="none"/><path d="M72.742 201.727l-5.44-9.13" stroke-width="1.2" stroke="#00f" stroke-miterlimit="10" fill="none"/><path d="M67.3 192.598l-5.44-9.125" stroke-width="1.2" stroke="#000" stroke-miterlimit="10" fill="none"/><path d="M69.742 196.227h7v11h-7zm0 0" fill="#fff"/><use xlink:href="#b" x="69.742" y="204.89" fill="#00f"/><path d="M97.617 97.148l10.15 3.14" stroke-width="1.2" stroke="#00f" stroke-miterlimit="10" fill="none"/><path d="M107.766 100.29l10.152 3.14" stroke-width="1.2" stroke="#000" stroke-miterlimit="10" fill="none"/><path d="M90.617 91.648h14v11h-14zm0 0" fill="#fff"/><g fill="#00f"><use xlink:href="#b" x="90.617" y="100.312"/><use xlink:href="#c" x="97.595" y="100.312"/></g><path d="M117.918 103.43l4.71 20.722M123.266 104.395l3.77 16.578M133.512 88.988l-15.594 14.442M122.63 124.152l20.304 6.285M142.934 130.438l15.59-14.446M141.094 125.324l12.472-11.554M158.523 115.992l-4.71-20.722M158.523 115.992l20.305 6.285M153.813 95.27l-20.3-6.282M150.305 99.418l-16.243-5.023M180.527 124.11l7.793-7.22" stroke-width="1.2" stroke="#000" stroke-miterlimit="10" fill="none"/><path d="M188.32 116.89l7.797-7.222" stroke-width="1.2" stroke="#f00" stroke-miterlimit="10" fill="none"/><path d="M177.13 120.44l7.792-7.22" stroke-width="1.2" stroke="#000" stroke-miterlimit="10" fill="none"/><path d="M184.922 113.22l7.797-7.22" stroke-width="1.2" stroke="#f00" stroke-miterlimit="10" fill="none"/><path d="M178.828 122.277l2.356 10.36" stroke-width="1.2" stroke="#000" stroke-miterlimit="10" fill="none"/><path d="M181.184 132.637L183.54 143" stroke-width="1.2" stroke="#00f" stroke-miterlimit="10" fill="none"/><path d="M190.418 102.332h8v11h-8zm0 0" fill="#fff"/><use xlink:href="#d" x="190.418" y="110.995" fill="#f00"/><path d="M183.54 143l10.15 3.14" stroke-width="1.2" stroke="#00f" stroke-miterlimit="10" fill="none"/><path d="M193.69 146.14l10.15 3.14" stroke-width="1.2" stroke="#000" stroke-miterlimit="10" fill="none"/><path d="M176.54 137.5h14v11h-14zm0 0" fill="#fff"/><g fill="#00f"><use xlink:href="#b" x="176.539" y="146.163"/><use xlink:href="#c" x="183.517" y="146.163"/></g><path d="M203.84 149.28l4.715 20.724M219.434 134.84l-15.594 14.44M208.555 170.004l20.3 6.28M228.855 176.285l7.797-7.22" stroke-width="1.2" stroke="#000" stroke-miterlimit="10" fill="none"/><path d="M236.652 169.066l7.793-7.222M244.445 161.844l-2.355-10.364" stroke-width="1.2" stroke="#00f" stroke-miterlimit="10" fill="none"/><path d="M242.09 151.48l-2.356-10.36" stroke-width="1.2" stroke="#000" stroke-miterlimit="10" fill="none"/><path d="M244.445 161.844l10.153 3.14" stroke-width="1.2" stroke="#00f" stroke-miterlimit="10" fill="none"/><path d="M254.598 164.984l10.152 3.14" stroke-width="1.2" stroke="#000" stroke-miterlimit="10" fill="none"/><path d="M234.445 154.344h21v15h-21zm0 0" fill="#fff"/><g fill="#00f"><use xlink:href="#b" x="234.445" y="166.445"/><use xlink:href="#c" x="241.423" y="166.445"/></g><use xlink:href="#e" x="248.438" y="161.563" fill="#00f"/><path d="M239.734 141.12l-20.3-6.28" stroke-width="1.2" stroke="#000" stroke-miterlimit="10" fill="none"/></g></svg>