<svg xmlns="http://www.w3.org/2000/svg" xmlns:xlink="http://www.w3.org/1999/xlink" width="300pt" height="300pt" viewBox="0 0 300 300"><defs><symbol overflow="visible"><path d="M.594 2.125V-8.47h6V2.126zm.672-.672h4.671V-7.78h-4.67zm0 0"/></symbol><symbol overflow="visible" id="a"><path d="M6.422-8.47v1.158c-.45-.208-.875-.364-1.28-.47-.4-.113-.78-.17-1.142-.17-.648 0-1.148.124-1.5.374-.344.25-.516.61-.516 1.078 0 .387.114.68.344.875.227.2.672.355 1.328.47L4.36-5c.882.168 1.535.465 1.952.89.426.42.64.98.64 1.688 0 .856-.288 1.5-.858 1.938-.563.437-1.4.656-2.5.656-.406 0-.844-.047-1.313-.14C1.814-.064 1.33-.204.83-.392v-1.22c.477.274.945.477 1.406.61.47.137.922.203 1.36.203.676 0 1.195-.13 1.562-.39.375-.27.563-.65.563-1.14 0-.427-.138-.76-.407-1-.262-.25-.696-.43-1.297-.548l-.72-.14c-.886-.176-1.526-.454-1.92-.83-.388-.374-.58-.893-.58-1.56 0-.782.27-1.392.813-1.83.538-.445 1.288-.67 2.25-.67.413 0 .83.038 1.25.108.425.074.863.184 1.312.328zm0 0"/></symbol><symbol overflow="visible" id="b"><path d="M4.734-7.953c-.867 0-1.554.324-2.062.97-.5.635-.75 1.51-.75 2.624 0 1.094.25 1.965.75 2.61.508.637 1.195.953 2.062.953.852 0 1.532-.316 2.032-.953.507-.645.765-1.516.765-2.61 0-1.113-.257-1.988-.764-2.624-.5-.645-1.18-.97-2.032-.97zm0-.953c1.22 0 2.192.414 2.922 1.234.74.824 1.11 1.93 1.11 3.313 0 1.376-.37 2.477-1.11 3.298C6.926-.24 5.953.17 4.734.17c-1.23 0-2.214-.41-2.953-1.234C1.04-1.882.673-2.984.673-4.36c0-1.382.367-2.488 1.11-3.312.738-.82 1.722-1.234 2.952-1.234zm0 0"/></symbol></defs><g><path fill="#fff" d="M0 0h300v300H0z"/><path d="M107.348 79.176l-31.465-.778" stroke-width="1.2" stroke="#cc0" stroke-miterlimit="10" fill="none"/><path d="M116.328 109.344l-4.488-15.082" stroke-width="1.2" stroke="#000" stroke-miterlimit="10" fill="none"/><path d="M111.84 94.262l-4.492-15.086" stroke-width="1.2" stroke="#cc0" stroke-miterlimit="10" fill="none"/><path d="M103.348 72.176h8v14h-8zm0 0" fill="#fff"/><use xlink:href="#a" x="103.348" y="83.314" fill="#cc0"/><path d="M75.883 78.398l-5.235 14.84" stroke-width="1.2" stroke="#cc0" stroke-miterlimit="10" fill="none"/><path d="M70.648 93.238l-5.23 14.844" stroke-width="1.2" stroke="#000" stroke-miterlimit="10" fill="none"/><path d="M71.883 71.398h8v14h-8zm0 0" fill="#fff"/><use xlink:href="#a" x="71.883" y="82.537" fill="#cc0"/><path d="M64.36 104.53l-15.083 4.493" stroke-width="1.2" stroke="#000" stroke-miterlimit="10" fill="none"/><path d="M49.277 109.023l-15.082 4.49" stroke-width="1.2" stroke="#cc0" stroke-miterlimit="10" fill="none"/><path d="M66.473 111.63l-15.082 4.49" stroke-width="1.2" stroke="#000" stroke-miterlimit="10" fill="none"/><path d="M51.39 116.12l-15.085 4.49" stroke-width="1.2" stroke="#cc0" stroke-miterlimit="10" fill="none"/><path d="M65.418 108.082l24.996 19.125" stroke-width="1.2" stroke="#000" stroke-miterlimit="10" fill="none"/><path d="M27.25 110.063h8v14h-8zm0 0" fill="#fff"/><use xlink:href="#a" x="27.25" y="121.201" fill="#cc0"/><path d="M90.414 127.207l25.914-17.863M88.8 119.324l20.735-14.293M90.414 127.207l-.78 31.465M116.328 109.344l29.684 10.465M146.012 119.81l5.78 30.94M153.87 121.543l4.622 24.754M169.918 99.336l-23.906 20.473M151.793 150.75l29.684 10.465M181.477 161.215l23.906-20.477M179.05 153.543l19.122-16.38M205.383 140.738l14.84 5.235" stroke-width="1.2" stroke="#000" stroke-miterlimit="10" fill="none"/><path d="M220.223 145.973l14.843 5.23" stroke-width="1.2" stroke="#cc0" stroke-miterlimit="10" fill="none"/><path d="M205.383 140.738l-5.78-30.937" stroke-width="1.2" stroke="#000" stroke-miterlimit="10" fill="none"/><path d="M238.56 152.438l5.23-14.844" stroke-width="1.2" stroke="#cc0" stroke-miterlimit="10" fill="none"/><path d="M243.79 137.594l5.233-14.844" stroke-width="1.2" stroke="#f00" stroke-miterlimit="10" fill="none"/><path d="M231.574 149.973l5.23-14.84" stroke-width="1.2" stroke="#cc0" stroke-miterlimit="10" fill="none"/><path d="M236.805 135.133l5.234-14.844" stroke-width="1.2" stroke="#f00" stroke-miterlimit="10" fill="none"/><path d="M231.574 149.973l-5.234 14.843" stroke-width="1.2" stroke="#cc0" stroke-miterlimit="10" fill="none"/><path d="M226.34 164.816l-5.23 14.84" stroke-width="1.2" stroke="#f00" stroke-miterlimit="10" fill="none"/><path d="M238.56 152.438l-5.236 14.84" stroke-width="1.2" stroke="#cc0" stroke-miterlimit="10" fill="none"/><path d="M233.324 167.277l-5.23 14.844" stroke-width="1.2" stroke="#f00" stroke-miterlimit="10" fill="none"/><path d="M235.066 151.203l14.84 5.234" stroke-width="1.2" stroke="#cc0" stroke-miterlimit="10" fill="none"/><path d="M249.906 156.438l14.844 5.234" stroke-width="1.2" stroke="#000" stroke-miterlimit="10" fill="none"/><path d="M231.066 144.203h8v14h-8zm0 0" fill="#fff"/><use xlink:href="#a" x="231.066" y="155.342" fill="#cc0"/><path d="M240.53 114.52h10v14h-10zm0 0" fill="#fff"/><use xlink:href="#b" x="240.531" y="125.658" fill="#f00"/><path d="M214.602 173.89h10v14h-10zm0 0" fill="#fff"/><use xlink:href="#b" x="214.602" y="185.029" fill="#f00"/><path d="M199.602 109.8l-29.684-10.464M194.172 115.738l-23.746-8.375M89.633 158.672l-27.64 15.058M90.414 166.684L68.3 178.727M116.492 175.082l-26.86-16.41M61.992 173.73l-.777 31.465M61.215 205.195l26.86 16.407M67.762 200.516L89.25 213.64M88.074 221.602l27.64-15.055M115.715 206.547l.777-31.465M108.387 203.215l.625-25.172" stroke-width="1.2" stroke="#000" stroke-miterlimit="10" fill="none"/></g></svg>