<svg xmlns="http://www.w3.org/2000/svg" xmlns:xlink="http://www.w3.org/1999/xlink" width="300pt" height="300pt" viewBox="0 0 300 300"><defs><symbol overflow="visible"><path d="M.64 2.297v-11.47h6.5v11.47zm.735-.72h5.047V-8.436H1.375zm0 0"/></symbol><symbol overflow="visible" id="a"><path d="M1.28-9.484H3l4.203 7.937v-7.937h1.25V0H6.72L2.515-7.922V0H1.28zm0 0"/></symbol><symbol overflow="visible" id="b"><path d="M1.28-9.484h1.282v3.89H7.22v-3.89H8.5V0H7.22v-4.516H2.562V0H1.28zm0 0"/></symbol></defs><g><path fill="#fff" d="M0 0h300v300H0z"/><path d="M179.71 176.5l-9.007 14.84" stroke-width="1.2" stroke="#00f" stroke-miterlimit="10" fill="none"/><path d="M170.703 191.34l-9.008 14.836M157.055 150.2l11.328 13.148" stroke-width="1.2" stroke="#000" stroke-miterlimit="10" fill="none"/><path d="M168.383 163.348L179.71 176.5" stroke-width="1.2" stroke="#00f" stroke-miterlimit="10" fill="none"/><path d="M214.418 177.266l-17.356-.383" stroke-width="1.2" stroke="#000" stroke-miterlimit="10" fill="none"/><path d="M197.063 176.883l-17.352-.383" stroke-width="1.2" stroke="#00f" stroke-miterlimit="10" fill="none"/><path d="M174.71 168.5h10v16h-10zm0 0" fill="#fff"/><use xlink:href="#a" x="174.711" y="180.876" fill="#00f"/><path d="M161.695 206.176l-16.894-3.98" stroke-width="1.2" stroke="#000" stroke-miterlimit="10" fill="none"/><path d="M144.8 202.195l-16.894-3.98" stroke-width="1.2" stroke="#00f" stroke-miterlimit="10" fill="none"/><path d="M160.19 197.43l-13.514-3.188" stroke-width="1.2" stroke="#000" stroke-miterlimit="10" fill="none"/><path d="M146.676 194.242l-13.516-3.183" stroke-width="1.2" stroke="#00f" stroke-miterlimit="10" fill="none"/><path d="M161.695 206.176l16.692 30.437" stroke-width="1.2" stroke="#000" stroke-miterlimit="10" fill="none"/><path d="M127.906 198.215l-1.433-17.3" stroke-width="1.2" stroke="#00f" stroke-miterlimit="10" fill="none"/><path d="M126.473 180.914l-1.434-17.297" stroke-width="1.2" stroke="#000" stroke-miterlimit="10" fill="none"/><path d="M122.906 190.215h10v16h-10zm0 0" fill="#fff"/><use xlink:href="#a" x="122.906" y="202.591" fill="#00f"/><path d="M125.04 163.617l-29.677-18.015M125.04 163.617l32.015-13.418M131.398 169.81l25.614-10.736M95.363 145.602l.383-17.352" stroke-width="1.2" stroke="#000" stroke-miterlimit="10" fill="none"/><path d="M95.746 128.25l.383-17.355" stroke-width="1.2" stroke="#00f" stroke-miterlimit="10" fill="none"/><path d="M87.273 141.953l.305-13.883" stroke-width="1.2" stroke="#000" stroke-miterlimit="10" fill="none"/><path d="M87.578 128.07l.305-13.882" stroke-width="1.2" stroke="#00f" stroke-miterlimit="10" fill="none"/><path d="M64.926 162.293l30.437-16.69" stroke-width="1.2" stroke="#000" stroke-miterlimit="10" fill="none"/><path d="M96.13 110.895l-14.84-9.008" stroke-width="1.2" stroke="#00f" stroke-miterlimit="10" fill="none"/><path d="M81.29 101.887L66.452 92.88" stroke-width="1.2" stroke="#000" stroke-miterlimit="10" fill="none"/><path d="M91.13 102.895h10v16h-10zm0 0" fill="#fff"/><use xlink:href="#a" x="91.129" y="115.271" fill="#00f"/><path d="M66.453 92.88l-30.44 16.694M67.336 101.71l-24.352 13.356M36.012 109.574l-.762 34.707M35.25 144.28l29.676 18.013M42.457 139.098l23.738 14.414M157.055 150.2l3.98-16.895" stroke-width="1.2" stroke="#000" stroke-miterlimit="10" fill="none"/><path d="M161.035 133.305l3.985-16.895M165.02 116.41l16.62-5" stroke-width="1.2" stroke="#00f" stroke-miterlimit="10" fill="none"/><path d="M181.64 111.41l16.622-5" stroke-width="1.2" stroke="#000" stroke-miterlimit="10" fill="none"/><path d="M155.02 108.41h20v16h-20zm0 0" fill="#fff"/><g fill="#00f"><use xlink:href="#a" x="155.02" y="120.786"/><use xlink:href="#b" x="164.989" y="120.786"/></g><path d="M198.262 106.41l25.28 23.79M206.387 102.84l20.226 19.035M206.227 72.62l-7.965 33.79M223.543 130.2l33.246-9.997M256.79 120.203l7.96-33.79M249.633 114.95l6.37-27.032M264.75 86.414L239.47 62.62M239.47 62.62l-33.243 10M238.496 71.445l-26.594 7.996M178.387 236.613l34.707.766M182.04 228.523l27.765.614M213.094 237.38l18.015-29.677M231.11 207.703l-16.692-30.437M222.277 208.586l-13.35-24.352" stroke-width="1.2" stroke="#000" stroke-miterlimit="10" fill="none"/></g></svg>