<svg xmlns="http://www.w3.org/2000/svg" xmlns:xlink="http://www.w3.org/1999/xlink" width="300pt" height="300pt" viewBox="0 0 300 300"><defs><symbol overflow="visible"><path d="M.594 2.125V-8.47h6V2.126zm.672-.672h4.671V-7.78h-4.67zm0 0"/></symbol><symbol overflow="visible" id="a"><path d="M4.734-7.953c-.867 0-1.554.324-2.062.97-.5.635-.75 1.51-.75 2.624 0 1.094.25 1.965.75 2.61.508.637 1.195.953 2.062.953.852 0 1.532-.316 2.032-.953.507-.645.765-1.516.765-2.61 0-1.113-.257-1.988-.764-2.624-.5-.645-1.18-.97-2.032-.97zm0-.953c1.22 0 2.192.414 2.922 1.234.74.824 1.11 1.93 1.11 3.313 0 1.376-.37 2.477-1.11 3.298C6.926-.24 5.953.17 4.734.17c-1.23 0-2.214-.41-2.953-1.234C1.04-1.882.673-2.984.673-4.36c0-1.382.367-2.488 1.11-3.312.738-.82 1.722-1.234 2.952-1.234zm0 0"/></symbol></defs><g><path fill="#fff" d="M0 0h300v300H0z"/><path d="M159.78 165.37l-14.237-3.073" stroke-width="1.2" stroke="#f00" stroke-miterlimit="10" fill="none"/><path d="M145.543 162.297l-14.234-3.074M179.34 143.79l-9.78 10.788" stroke-width="1.2" stroke="#000" stroke-miterlimit="10" fill="none"/><path d="M169.56 154.578l-9.78 10.793" stroke-width="1.2" stroke="#f00" stroke-miterlimit="10" fill="none"/><path d="M154.78 158.37h10v14h-10zm0 0" fill="#fff"/><use xlink:href="#a" x="154.781" y="169.51" fill="#f00"/><path d="M131.31 159.223l-8.912-27.73M123.895 158.547l-7.13-22.184M111.75 180.805l19.56-21.582M122.398 131.492l-28.468-6.148M122.398 131.492l19.56-21.582M93.93 125.344l-19.563 21.582M97.05 132.105L81.403 149.37M93.93 125.344l-8.914-27.73M74.367 146.926l8.914 27.73M83.28 174.656l28.47 6.15M87.574 168.57l22.774 4.918M83.28 174.656l-19.56 21.582M60.457 197.285l4.457 13.867" stroke-width="1.2" stroke="#000" stroke-miterlimit="10" fill="none"/><path d="M64.914 211.152l4.453 13.864" stroke-width="1.2" stroke="#f00" stroke-miterlimit="10" fill="none"/><path d="M66.984 195.19l4.454 13.865" stroke-width="1.2" stroke="#000" stroke-miterlimit="10" fill="none"/><path d="M71.438 209.055l4.457 13.863" stroke-width="1.2" stroke="#f00" stroke-miterlimit="10" fill="none"/><path d="M63.72 196.238l-28.47-6.148" stroke-width="1.2" stroke="#000" stroke-miterlimit="10" fill="none"/><path d="M67.633 216.97h10v14h-10zm0 0" fill="#fff"/><use xlink:href="#a" x="67.633" y="228.107" fill="#f00"/><path d="M87.555 99.914l9.78-10.79" stroke-width="1.2" stroke="#000" stroke-miterlimit="10" fill="none"/><path d="M97.336 89.125l9.78-10.793" stroke-width="1.2" stroke="#f00" stroke-miterlimit="10" fill="none"/><path d="M82.477 95.313l9.78-10.79" stroke-width="1.2" stroke="#000" stroke-miterlimit="10" fill="none"/><path d="M92.258 84.523l9.78-10.793" stroke-width="1.2" stroke="#f00" stroke-miterlimit="10" fill="none"/><path d="M85.016 97.613l-28.47-6.148" stroke-width="1.2" stroke="#000" stroke-miterlimit="10" fill="none"/><path d="M99.578 69.03h10v14h-10zm0 0" fill="#fff"/><use xlink:href="#a" x="99.578" y="80.17" fill="#f00"/><path d="M145.22 108.86l-4.454-13.864" stroke-width="1.2" stroke="#000" stroke-miterlimit="10" fill="none"/><path d="M140.766 94.996l-4.457-13.863" stroke-width="1.2" stroke="#f00" stroke-miterlimit="10" fill="none"/><path d="M138.695 110.957l-4.457-13.863" stroke-width="1.2" stroke="#000" stroke-miterlimit="10" fill="none"/><path d="M134.238 97.094l-4.453-13.867" stroke-width="1.2" stroke="#f00" stroke-miterlimit="10" fill="none"/><path d="M141.957 109.91l28.473 6.15" stroke-width="1.2" stroke="#000" stroke-miterlimit="10" fill="none"/><path d="M123.047 75.18h10v14h-10zm0 0" fill="#fff"/><use xlink:href="#a" x="123.047" y="86.318" fill="#f00"/><path d="M170.43 116.06l8.91 27.73M164.793 120.926l7.13 22.183M179.34 143.79l28.47 6.144M207.81 149.934l8.91 27.73M215.227 150.613l7.128 22.184M227.367 128.352l-19.558 21.582M216.72 177.664l28.47 6.15M245.19 183.813l19.56-21.583M242.07 177.05l15.645-17.265M264.75 162.23l-8.91-27.73M255.84 134.5l-28.473-6.148M251.547 140.586l-22.777-4.918" stroke-width="1.2" stroke="#000" stroke-miterlimit="10" fill="none"/></g></svg>