<svg xmlns="http://www.w3.org/2000/svg" xmlns:xlink="http://www.w3.org/1999/xlink" width="300pt" height="300pt" viewBox="0 0 300 300"><defs><symbol overflow="visible"><path d="M.547 1.938V-7.75h5.5v9.688zm.625-.61h4.266v-8.47H1.171zm0 0"/></symbol><symbol overflow="visible" id="a"><path d="M7.078-7.406v1.156c-.367-.344-.758-.598-1.172-.766-.406-.164-.843-.25-1.312-.25-.918 0-1.62.282-2.11.844-.48.555-.718 1.36-.718 2.422 0 1.055.238 1.86.718 2.422.49.562 1.192.844 2.11.844.468 0 .906-.082 1.312-.25.414-.164.805-.422 1.172-.766v1.125c-.375.262-.777.46-1.203.594-.418.124-.867.186-1.344.186-1.21 0-2.163-.367-2.858-1.11C.972-1.703.625-2.718.625-4c0-1.29.348-2.305 1.047-3.047.695-.75 1.648-1.125 2.86-1.125.476 0 .93.07 1.36.203.424.126.82.314 1.186.564zm0 0"/></symbol><symbol overflow="visible" id="b"><path d="M1.03-8.36h1V0h-1zm0 0"/></symbol><symbol overflow="visible" id="c"><path d="M1.078-8.016h1.47l3.546 6.704v-6.704h1.062V0H5.688L2.124-6.703V0H1.078zm0 0"/></symbol><symbol overflow="visible" id="d"><path d="M1.078-8.016h4.61v.907H2.171v2.36h3.172v.922H2.172V0H1.078zm0 0"/></symbol><symbol overflow="visible" id="e"><path d="M5.89-7.75v1.047c-.417-.195-.808-.344-1.17-.438-.368-.094-.72-.14-1.064-.14-.586 0-1.04.116-1.36.343-.323.23-.483.554-.483.968 0 .357.1.626.312.814.22.18.625.324 1.22.437L4-4.593c.813.157 1.41.434 1.797.828.383.387.578.903.578 1.547 0 .783-.262 1.376-.78 1.783-.525.398-1.29.593-2.298.593-.375 0-.78-.047-1.22-.14C1.648-.066 1.208-.19.75-.36v-1.11c.445.25.88.44 1.297.564.426.125.844.187 1.25.187.625 0 1.1-.116 1.437-.358.332-.25.5-.598.5-1.047 0-.395-.12-.703-.36-.922-.24-.226-.636-.398-1.186-.515l-.657-.126c-.81-.156-1.4-.406-1.764-.75C.898-4.78.72-5.258.72-5.875c0-.707.25-1.266.75-1.672.5-.414 1.19-.625 2.077-.625.375 0 .754.04 1.14.11.395.074.797.18 1.204.312zm0 0"/></symbol><symbol overflow="visible" id="f"><path d="M4.328-7.28c-.78 0-1.406.296-1.875.89-.46.585-.687 1.382-.687 2.39 0 1.012.226 1.813.687 2.406.47.586 1.094.875 1.875.875.79 0 1.414-.288 1.875-.874.457-.593.688-1.394.688-2.406 0-1.008-.23-1.805-.687-2.39-.46-.594-1.086-.89-1.875-.89zm0-.892c1.125 0 2.024.383 2.703 1.14C7.708-6.28 8.048-5.27 8.048-4c0 1.262-.34 2.273-1.016 3.03C6.353-.22 5.454.157 4.33.157S2.3-.22 1.625-.97c-.668-.75-1-1.757-1-3.03 0-1.27.332-2.28 1-3.03.676-.76 1.578-1.142 2.703-1.142zm0 0"/></symbol></defs><g><path fill="#fff" d="M0 0h300v300H0z"/><path d="M215.324 236.137l-9.62-10.336" stroke-width="1.2" stroke="#0c0" stroke-miterlimit="10" fill="none"/><path d="M205.703 225.8l-9.62-10.33" stroke-width="1.2" stroke="#000" stroke-miterlimit="10" fill="none"/><path d="M210.324 229.637h11v13h-11zm0 0" fill="#fff"/><g fill="#0c0"><use xlink:href="#a" x="210.324" y="239.538"/><use xlink:href="#b" x="217.775" y="239.538"/></g><path d="M196.082 215.47l-13.762 3.167" stroke-width="1.2" stroke="#000" stroke-miterlimit="10" fill="none"/><path d="M182.32 218.637l-13.757 3.164" stroke-width="1.2" stroke="#00f" stroke-miterlimit="10" fill="none"/><path d="M191.84 209.63l-11.008 2.53" stroke-width="1.2" stroke="#000" stroke-miterlimit="10" fill="none"/><path d="M180.832 212.16l-11.008 2.53" stroke-width="1.2" stroke="#00f" stroke-miterlimit="10" fill="none"/><path d="M204.355 188.473l-8.273 26.996" stroke-width="1.2" stroke="#000" stroke-miterlimit="10" fill="none"/><path d="M168.563 221.8l-9.622-10.33" stroke-width="1.2" stroke="#00f" stroke-miterlimit="10" fill="none"/><path d="M158.94 211.47l-9.62-10.333" stroke-width="1.2" stroke="#000" stroke-miterlimit="10" fill="none"/><path d="M164.563 215.3h8v13h-8zm0 0" fill="#fff"/><use xlink:href="#c" x="164.563" y="225.202" fill="#00f"/><path d="M149.32 201.137l8.278-26.996M156.5 200.383l6.62-21.598M157.598 174.14l27.515-6.33M185.113 167.81l19.242 20.663M182.176 174.402l15.394 16.532M185.113 167.81l8.278-26.998M193.39 140.813l-8.488-11.286" stroke-width="1.2" stroke="#000" stroke-miterlimit="10" fill="none"/><path d="M184.902 129.527l-8.488-11.28" stroke-width="1.2" stroke="#00f" stroke-miterlimit="10" fill="none"/><path d="M220.094 131.637l-26.703 9.175M215.266 126.273l-21.364 7.336" stroke-width="1.2" stroke="#000" stroke-miterlimit="10" fill="none"/><path d="M176.414 118.246l16.21-23.117M176.414 118.246l-14.117.238" stroke-width="1.2" stroke="#00f" stroke-miterlimit="10" fill="none"/><path d="M162.297 118.484l-14.117.235" stroke-width="1.2" stroke="#000" stroke-miterlimit="10" fill="none"/><path d="M172.414 111.746h8v13h-8zm0 0" fill="#fff"/><use xlink:href="#c" x="172.414" y="121.647" fill="#00f"/><path d="M192.625 95.13l13.5 4.136" stroke-width="1.2" stroke="#00f" stroke-miterlimit="10" fill="none"/><path d="M206.125 99.266l13.5 4.14" stroke-width="1.2" stroke="#000" stroke-miterlimit="10" fill="none"/><path d="M193.38 102.31l10.796 3.31" stroke-width="1.2" stroke="#00f" stroke-miterlimit="10" fill="none"/><path d="M204.176 105.62l10.8 3.31" stroke-width="1.2" stroke="#000" stroke-miterlimit="10" fill="none"/><path d="M188.625 88.63h8v13h-8zm0 0" fill="#fff"/><use xlink:href="#c" x="188.625" y="98.53" fill="#00f"/><path d="M219.625 103.406l.47 28.23M219.625 103.406l22.563-16.976M242.188 86.43l11.28-8.49" stroke-width="1.2" stroke="#000" stroke-miterlimit="10" fill="none"/><path d="M253.47 77.94l11.28-8.487" stroke-width="1.2" stroke="#3cc" stroke-miterlimit="10" fill="none"/><path d="M242.188 86.43l8.488 11.28" stroke-width="1.2" stroke="#000" stroke-miterlimit="10" fill="none"/><path d="M250.676 97.71l8.488 11.282" stroke-width="1.2" stroke="#3cc" stroke-miterlimit="10" fill="none"/><path d="M242.188 86.43l-8.49-11.282" stroke-width="1.2" stroke="#000" stroke-miterlimit="10" fill="none"/><path d="M233.7 75.148l-8.49-11.285" stroke-width="1.2" stroke="#3cc" stroke-miterlimit="10" fill="none"/><path d="M261.75 62.953h7v13h-7zm0 0" fill="#fff"/><use xlink:href="#d" x="261.75" y="72.854" fill="#3cc"/><path d="M256.164 102.492h7v13h-7zm0 0" fill="#fff"/><use xlink:href="#d" x="256.164" y="112.394" fill="#3cc"/><path d="M218.21 57.363h7v13h-7zm0 0" fill="#fff"/><use xlink:href="#d" x="218.211" y="67.265" fill="#3cc"/><path d="M148.18 118.72l-14.524-24.216M141.03 119.715l-11.62-19.37M134.473 143.406l13.707-24.687M133.656 94.504l-28.234.473M105.422 94.977l-13.707 24.687M109.86 100.672l-10.965 19.746M91.715 119.664l-14.117.234" stroke-width="1.2" stroke="#000" stroke-miterlimit="10" fill="none"/><path d="M77.598 119.898l-14.114.235" stroke-width="1.2" stroke="#cc0" stroke-miterlimit="10" fill="none"/><path d="M91.715 119.664l14.527 24.215" stroke-width="1.2" stroke="#000" stroke-miterlimit="10" fill="none"/><path d="M60.16 120.19l.238 14.115" stroke-width="1.2" stroke="#cc0" stroke-miterlimit="10" fill="none"/><path d="M60.398 134.305l.235 14.117" stroke-width="1.2" stroke="#f00" stroke-miterlimit="10" fill="none"/><path d="M66.805 120.078l.234 14.117" stroke-width="1.2" stroke="#cc0" stroke-miterlimit="10" fill="none"/><path d="M67.04 134.195l.237 14.118" stroke-width="1.2" stroke="#f00" stroke-miterlimit="10" fill="none"/><path d="M66.805 120.078l-.24-14.117" stroke-width="1.2" stroke="#cc0" stroke-miterlimit="10" fill="none"/><path d="M66.566 105.96l-.234-14.112" stroke-width="1.2" stroke="#f00" stroke-miterlimit="10" fill="none"/><path d="M60.16 120.19l-.234-14.116" stroke-width="1.2" stroke="#cc0" stroke-miterlimit="10" fill="none"/><path d="M59.926 106.074l-.24-14.117" stroke-width="1.2" stroke="#f00" stroke-miterlimit="10" fill="none"/><path d="M63.484 120.133l-14.117.238" stroke-width="1.2" stroke="#cc0" stroke-miterlimit="10" fill="none"/><path d="M49.367 120.37l-14.117.235" stroke-width="1.2" stroke="#000" stroke-miterlimit="10" fill="none"/><path d="M60.484 113.633h7v13h-7zm0 0" fill="#fff"/><use xlink:href="#e" x="60.484" y="123.534" fill="#cc0"/><path d="M59.953 141.867h9v13h-9zm0 0" fill="#fff"/><use xlink:href="#f" x="59.953" y="151.769" fill="#f00"/><path d="M59.012 85.402h9v13h-9zm0 0" fill="#fff"/><use xlink:href="#f" x="59.012" y="95.304" fill="#f00"/><path d="M106.242 143.88l28.23-.474M108.953 137.188l22.586-.38" stroke-width="1.2" stroke="#000" stroke-miterlimit="10" fill="none"/></g></svg>