<svg xmlns="http://www.w3.org/2000/svg" xmlns:xlink="http://www.w3.org/1999/xlink" width="300pt" height="300pt" viewBox="0 0 300 300"><defs><symbol overflow="visible"><path d="M.547 1.938V-7.75h5.5v9.688zm.625-.61h4.266v-8.47H1.171zm0 0"/></symbol><symbol overflow="visible" id="a"><path d="M5.89-7.75v1.047c-.417-.195-.808-.344-1.17-.438-.368-.094-.72-.14-1.064-.14-.586 0-1.04.116-1.36.343-.323.23-.483.554-.483.968 0 .357.1.626.312.814.22.18.625.324 1.22.437L4-4.593c.813.157 1.41.434 1.797.828.383.387.578.903.578 1.547 0 .783-.262 1.376-.78 1.783-.525.398-1.29.593-2.298.593-.375 0-.78-.047-1.22-.14C1.648-.066 1.208-.19.75-.36v-1.11c.445.25.88.44 1.297.564.426.125.844.187 1.25.187.625 0 1.1-.116 1.437-.358.332-.25.5-.598.5-1.047 0-.395-.12-.703-.36-.922-.24-.226-.636-.398-1.186-.515l-.657-.126c-.81-.156-1.4-.406-1.764-.75C.898-4.78.72-5.258.72-5.875c0-.707.25-1.266.75-1.672.5-.414 1.19-.625 2.077-.625.375 0 .754.04 1.14.11.395.074.797.18 1.204.312zm0 0"/></symbol><symbol overflow="visible" id="b"><path d="M4.328-7.28c-.78 0-1.406.296-1.875.89-.46.585-.687 1.382-.687 2.39 0 1.012.226 1.813.687 2.406.47.586 1.094.875 1.875.875.79 0 1.414-.288 1.875-.874.457-.593.688-1.394.688-2.406 0-1.008-.23-1.805-.687-2.39-.46-.594-1.086-.89-1.875-.89zm0-.892c1.125 0 2.024.383 2.703 1.14C7.708-6.28 8.048-5.27 8.048-4c0 1.262-.34 2.273-1.016 3.03C6.353-.22 5.454.157 4.33.157S2.3-.22 1.625-.97c-.668-.75-1-1.757-1-3.03 0-1.27.332-2.28 1-3.03.676-.76 1.578-1.142 2.703-1.142zm0 0"/></symbol><symbol overflow="visible" id="d"><path d="M1.078-8.016h4.61v.907H2.171v2.36h3.172v.922H2.172V0H1.078zm0 0"/></symbol><symbol overflow="visible"><path d="M.453 1.594v-7.938h4.5v7.938zm.5-.5h3.5v-6.938h-3.5zm0 0"/></symbol><symbol overflow="visible" id="c"><path d="M.438-2.828h2.374v.72H.438zm0 0"/></symbol></defs><g><path fill="#fff" d="M0 0h300v300H0z"/><path d="M123.672 167.82l12.594-2.336" stroke-width="1.2" stroke="#cc0" stroke-miterlimit="10" fill="none"/><path d="M136.266 165.484l12.593-2.336M111.445 145.313l6.114 11.253" stroke-width="1.2" stroke="#000" stroke-miterlimit="10" fill="none"/><path d="M117.56 156.566l6.112 11.254" stroke-width="1.2" stroke="#cc0" stroke-miterlimit="10" fill="none"/><path d="M120.672 161.32h7v13h-7zm0 0" fill="#fff"/><use xlink:href="#a" x="120.672" y="171.222" fill="#cc0"/><path d="M148.86 163.148l3.34-25.398M143.22 159.824l2.667-20.32M148.86 163.148l18.585 17.63M152.2 137.75l-23.126-11.023M152.2 137.75l22.507-12.227M129.074 126.727l-17.63 18.585M131.684 132.734l-14.102 14.868M111.445 145.313l-25.398-3.34M86.047 141.973l-9.81-23.668M76.238 118.305L50.84 114.97M48.45 113.133l-7.798 10.164" stroke-width="1.2" stroke="#000" stroke-miterlimit="10" fill="none"/><path d="M40.652 123.297L32.86 133.46" stroke-width="1.2" stroke="#f00" stroke-miterlimit="10" fill="none"/><path d="M53.23 116.8l-7.792 10.165" stroke-width="1.2" stroke="#000" stroke-miterlimit="10" fill="none"/><path d="M45.438 126.965L37.64 137.13" stroke-width="1.2" stroke="#f00" stroke-miterlimit="10" fill="none"/><path d="M50.84 114.97l-4.903-11.833" stroke-width="1.2" stroke="#000" stroke-miterlimit="10" fill="none"/><path d="M45.938 103.137L41.035 91.3" stroke-width="1.2" stroke="#f00" stroke-miterlimit="10" fill="none"/><path d="M26.25 128.793h9v13h-9zm0 0" fill="#fff"/><use xlink:href="#b" x="26.25" y="138.694" fill="#f00"/><path d="M29.035 83.3h12v16h-12zm0 0" fill="#fff"/><use xlink:href="#c" x="29.035" y="91.551" fill="#f00"/><use xlink:href="#b" x="32.243" y="96.434" fill="#f00"/><path d="M174.707 125.523l21.848 13.38M180.043 121.723l17.473 10.703M175.375 99.914l-.668 25.61M196.555 138.902l22.507-12.226M219.063 126.676l.667-25.606M213.105 123.96l.532-20.487M219.73 101.07l11.254-6.117" stroke-width="1.2" stroke="#000" stroke-miterlimit="10" fill="none"/><path d="M230.984 94.953l11.254-6.113" stroke-width="1.2" stroke="#cc0" stroke-miterlimit="10" fill="none"/><path d="M219.73 101.07l-21.843-13.382" stroke-width="1.2" stroke="#000" stroke-miterlimit="10" fill="none"/><path d="M244.887 87.402l-6.114-11.254" stroke-width="1.2" stroke="#cc0" stroke-miterlimit="10" fill="none"/><path d="M238.773 76.148L232.66 64.89" stroke-width="1.2" stroke="#f00" stroke-miterlimit="10" fill="none"/><path d="M239.59 90.28l-6.113-11.257" stroke-width="1.2" stroke="#cc0" stroke-miterlimit="10" fill="none"/><path d="M233.477 79.023l-6.114-11.253" stroke-width="1.2" stroke="#f00" stroke-miterlimit="10" fill="none"/><path d="M239.59 90.28l6.113 11.255" stroke-width="1.2" stroke="#cc0" stroke-miterlimit="10" fill="none"/><path d="M245.703 101.535l6.117 11.254" stroke-width="1.2" stroke="#f00" stroke-miterlimit="10" fill="none"/><path d="M244.887 87.402L251 98.656" stroke-width="1.2" stroke="#cc0" stroke-miterlimit="10" fill="none"/><path d="M251 98.656l6.113 11.258" stroke-width="1.2" stroke="#f00" stroke-miterlimit="10" fill="none"/><path d="M242.238 88.84l11.258-6.113" stroke-width="1.2" stroke="#cc0" stroke-miterlimit="10" fill="none"/><path d="M253.496 82.727l11.254-6.114" stroke-width="1.2" stroke="#000" stroke-miterlimit="10" fill="none"/><path d="M239.238 82.34h7v13h-7zm0 0" fill="#fff"/><use xlink:href="#a" x="239.238" y="92.241" fill="#cc0"/><path d="M221.012 59.832h9v13h-9zm0 0" fill="#fff"/><use xlink:href="#b" x="221.012" y="69.733" fill="#f00"/><path d="M250.47 104.852h9v13h-9zm0 0" fill="#fff"/><use xlink:href="#b" x="250.469" y="114.753" fill="#f00"/><path d="M197.887 87.688l-22.512 12.226M198.512 94.207l-18.008 9.78M167.445 180.777l-5.976 24.91M172.707 184.676l-4.78 19.93M192.004 173.5l-24.56 7.277M161.47 205.688l18.585 17.632M180.055 223.32l24.558-7.28M180.797 216.813l19.648-5.825M204.613 216.04l9.293 8.815" stroke-width="1.2" stroke="#000" stroke-miterlimit="10" fill="none"/><path d="M213.906 224.855l9.293 8.813" stroke-width="1.2" stroke="#3cc" stroke-miterlimit="10" fill="none"/><path d="M204.613 216.04l5.977-24.91" stroke-width="1.2" stroke="#000" stroke-miterlimit="10" fill="none"/><path d="M220.2 227.168h7v13h-7zm0 0" fill="#fff"/><use xlink:href="#d" x="220.199" y="237.069" fill="#3cc"/><path d="M210.59 191.13l-18.586-17.63M204.582 193.738l-14.867-14.105" stroke-width="1.2" stroke="#000" stroke-miterlimit="10" fill="none"/></g></svg>