<svg xmlns="http://www.w3.org/2000/svg" xmlns:xlink="http://www.w3.org/1999/xlink" width="300pt" height="300pt" viewBox="0 0 300 300"><defs><symbol overflow="visible"><path d="M.594 2.125V-8.47h6V2.126zm.672-.672h4.671V-7.78h-4.67zm0 0"/></symbol><symbol overflow="visible" id="a"><path d="M6.422-8.47v1.158c-.45-.208-.875-.364-1.28-.47-.4-.113-.78-.17-1.142-.17-.648 0-1.148.124-1.5.374-.344.25-.516.61-.516 1.078 0 .387.114.68.344.875.227.2.672.355 1.328.47L4.36-5c.882.168 1.535.465 1.952.89.426.42.64.98.64 1.688 0 .856-.288 1.5-.858 1.938-.563.437-1.4.656-2.5.656-.406 0-.844-.047-1.313-.14C1.814-.064 1.33-.204.83-.392v-1.22c.477.274.945.477 1.406.61.47.137.922.203 1.36.203.676 0 1.195-.13 1.562-.39.375-.27.563-.65.563-1.14 0-.427-.138-.76-.407-1-.262-.25-.696-.43-1.297-.548l-.72-.14c-.886-.176-1.526-.454-1.92-.83-.388-.374-.58-.893-.58-1.56 0-.782.27-1.392.813-1.83.538-.445 1.288-.67 2.25-.67.413 0 .83.038 1.25.108.425.074.863.184 1.312.328zm0 0"/></symbol><symbol overflow="visible" id="b"><path d="M1.172-8.75h1.594l3.89 7.313V-8.75h1.14V0H6.204L2.328-7.313V0H1.172zm0 0"/></symbol><symbol overflow="visible" id="c"><path d="M4.734-7.953c-.867 0-1.554.324-2.062.97-.5.635-.75 1.51-.75 2.624 0 1.094.25 1.965.75 2.61.508.637 1.195.953 2.062.953.852 0 1.532-.316 2.032-.953.507-.645.765-1.516.765-2.61 0-1.113-.257-1.988-.764-2.624-.5-.645-1.18-.97-2.032-.97zm0-.953c1.22 0 2.192.414 2.922 1.234.74.824 1.11 1.93 1.11 3.313 0 1.376-.37 2.477-1.11 3.298C6.926-.24 5.953.17 4.734.17c-1.23 0-2.214-.41-2.953-1.234C1.04-1.882.673-2.984.673-4.36c0-1.382.367-2.488 1.11-3.312.738-.82 1.722-1.234 2.952-1.234zm0 0"/></symbol><symbol overflow="visible" id="d"><path d="M1.172-8.75h5.03v1H2.36v2.578h3.468v1h-3.47V0H1.173zm0 0"/></symbol></defs><g><path fill="#fff" d="M0 0h300v300H0z"/><path d="M111.758 88.227l-14.61 1" stroke-width="1.2" stroke="#cc0" stroke-miterlimit="10" fill="none"/><path d="M97.148 89.227l-14.613 1M122.69 115.402l-5.463-13.586" stroke-width="1.2" stroke="#000" stroke-miterlimit="10" fill="none"/><path d="M117.227 101.816l-5.47-13.59" stroke-width="1.2" stroke="#cc0" stroke-miterlimit="10" fill="none"/><path d="M107.758 81.227h8v14h-8zm0 0" fill="#fff"/><use xlink:href="#a" x="107.758" y="92.365" fill="#cc0"/><path d="M82.535 90.227l-3.562 14.207" stroke-width="1.2" stroke="#000" stroke-miterlimit="10" fill="none"/><path d="M78.973 104.434l-3.567 14.203M57.72 74.668l12.405 7.777" stroke-width="1.2" stroke="#00f" stroke-miterlimit="10" fill="none"/><path d="M70.125 82.445l12.41 7.782" stroke-width="1.2" stroke="#000" stroke-miterlimit="10" fill="none"/><path d="M56.54 82.063l9.925 6.222" stroke-width="1.2" stroke="#00f" stroke-miterlimit="10" fill="none"/><path d="M66.465 88.285l9.926 6.227" stroke-width="1.2" stroke="#000" stroke-miterlimit="10" fill="none"/><path d="M75.406 118.637l-29.222 2M75.406 118.637l12.41 7.78" stroke-width="1.2" stroke="#00f" stroke-miterlimit="10" fill="none"/><path d="M87.816 126.418l12.41 7.78" stroke-width="1.2" stroke="#000" stroke-miterlimit="10" fill="none"/><path d="M71.406 111.637h9v14h-9zm0 0" fill="#fff"/><use xlink:href="#b" x="71.406" y="122.775" fill="#00f"/><path d="M46.184 120.637l-5.47-13.586" stroke-width="1.2" stroke="#00f" stroke-miterlimit="10" fill="none"/><path d="M40.715 107.05L35.25 93.46" stroke-width="1.2" stroke="#000" stroke-miterlimit="10" fill="none"/><path d="M51.484 115.348l-4.375-10.87" stroke-width="1.2" stroke="#00f" stroke-miterlimit="10" fill="none"/><path d="M47.11 104.477l-4.372-10.872" stroke-width="1.2" stroke="#000" stroke-miterlimit="10" fill="none"/><path d="M42.184 113.637h9v14h-9zm0 0" fill="#fff"/><use xlink:href="#b" x="42.184" y="124.775" fill="#00f"/><path d="M35.25 93.46l11.234-9.397" stroke-width="1.2" stroke="#000" stroke-miterlimit="10" fill="none"/><path d="M46.484 84.063l11.235-9.395" stroke-width="1.2" stroke="#00f" stroke-miterlimit="10" fill="none"/><path d="M53.72 67.668h9v14h-9zm0 0" fill="#fff"/><use xlink:href="#b" x="53.719" y="78.807" fill="#00f"/><path d="M100.227 134.2L122.69 115.4M98.05 127.03l17.973-15.034M100.227 134.2l1.996 29.222M122.69 115.402l28.415 7.13M151.105 122.53l8.032 28.17M158.535 123.457l6.426 22.535M171.484 101.492l-20.38 21.04M159.137 150.7l28.41 7.128M187.547 157.828l20.38-21.04M184.633 150.93l16.304-16.832M207.926 136.79l14.207 3.565" stroke-width="1.2" stroke="#000" stroke-miterlimit="10" fill="none"/><path d="M222.133 140.355l14.207 3.563" stroke-width="1.2" stroke="#cc0" stroke-miterlimit="10" fill="none"/><path d="M207.926 136.79l-8.03-28.17" stroke-width="1.2" stroke="#000" stroke-miterlimit="10" fill="none"/><path d="M239.68 144.758l3.566-14.207" stroke-width="1.2" stroke="#cc0" stroke-miterlimit="10" fill="none"/><path d="M243.246 130.55l3.563-14.206" stroke-width="1.2" stroke="#f00" stroke-miterlimit="10" fill="none"/><path d="M232.996 143.078l3.563-14.203" stroke-width="1.2" stroke="#cc0" stroke-miterlimit="10" fill="none"/><path d="M236.56 128.875l3.565-14.207" stroke-width="1.2" stroke="#f00" stroke-miterlimit="10" fill="none"/><path d="M232.996 143.078l-3.566 14.207" stroke-width="1.2" stroke="#cc0" stroke-miterlimit="10" fill="none"/><path d="M229.43 157.285l-3.563 14.207" stroke-width="1.2" stroke="#f00" stroke-miterlimit="10" fill="none"/><path d="M239.68 144.758l-3.563 14.203" stroke-width="1.2" stroke="#cc0" stroke-miterlimit="10" fill="none"/><path d="M236.117 158.96l-3.566 14.208" stroke-width="1.2" stroke="#f00" stroke-miterlimit="10" fill="none"/><path d="M236.34 143.918l14.203 3.566" stroke-width="1.2" stroke="#cc0" stroke-miterlimit="10" fill="none"/><path d="M250.543 147.484l14.207 3.563" stroke-width="1.2" stroke="#000" stroke-miterlimit="10" fill="none"/><path d="M232.34 136.918h8v14h-8zm0 0" fill="#fff"/><use xlink:href="#a" x="232.34" y="148.057" fill="#cc0"/><path d="M238.47 108.508h10v14h-10zm0 0" fill="#fff"/><use xlink:href="#c" x="238.469" y="119.646" fill="#f00"/><path d="M224.21 165.328h10v14h-10zm0 0" fill="#fff"/><use xlink:href="#c" x="224.211" y="176.467" fill="#f00"/><path d="M199.895 108.62l-28.41-7.128M195.375 114.59l-22.727-5.703M102.223 163.422l-24.31 16.344M103.64 170.777l-19.45 13.075M128.53 176.3l-26.307-12.878M77.914 179.766l2 29.222M79.914 208.988l-12.152 8.172" stroke-width="1.2" stroke="#000" stroke-miterlimit="10" fill="none"/><path d="M67.762 217.16l-12.157 8.172" stroke-width="1.2" stroke="#3cc" stroke-miterlimit="10" fill="none"/><path d="M79.914 208.988l26.31 12.883M85.578 204.086l21.047 10.305" stroke-width="1.2" stroke="#000" stroke-miterlimit="10" fill="none"/><path d="M48.605 218.332h7v14h-7zm0 0" fill="#fff"/><use xlink:href="#d" x="48.605" y="229.471" fill="#3cc"/><path d="M106.223 221.87l24.308-16.343M130.53 205.527l-2-29.226M123.457 203.074l-1.602-23.38" stroke-width="1.2" stroke="#000" stroke-miterlimit="10" fill="none"/></g></svg>