<svg xmlns="http://www.w3.org/2000/svg" xmlns:xlink="http://www.w3.org/1999/xlink" width="300pt" height="300pt" viewBox="0 0 300 300"><defs><symbol overflow="visible"><path d="M.547 1.938V-7.75h5.5v9.688zm.625-.61h4.266v-8.47H1.171zm0 0"/></symbol><symbol overflow="visible" id="a"><path d="M5.89-7.75v1.047c-.417-.195-.808-.344-1.17-.438-.368-.094-.72-.14-1.064-.14-.586 0-1.04.116-1.36.343-.323.23-.483.554-.483.968 0 .357.1.626.312.814.22.18.625.324 1.22.437L4-4.593c.813.157 1.41.434 1.797.828.383.387.578.903.578 1.547 0 .783-.262 1.376-.78 1.783-.525.398-1.29.593-2.298.593-.375 0-.78-.047-1.22-.14C1.648-.066 1.208-.19.75-.36v-1.11c.445.25.88.44 1.297.564.426.125.844.187 1.25.187.625 0 1.1-.116 1.437-.358.332-.25.5-.598.5-1.047 0-.395-.12-.703-.36-.922-.24-.226-.636-.398-1.186-.515l-.657-.126c-.81-.156-1.4-.406-1.764-.75C.898-4.78.72-5.258.72-5.875c0-.707.25-1.266.75-1.672.5-.414 1.19-.625 2.077-.625.375 0 .754.04 1.14.11.395.074.797.18 1.204.312zm0 0"/></symbol><symbol overflow="visible" id="b"><path d="M1.078-8.016h1.47l3.546 6.704v-6.704h1.062V0H5.688L2.124-6.703V0H1.078zm0 0"/></symbol><symbol overflow="visible" id="c"><path d="M1.078-8.016h4.61v.907H2.171v2.36h3.172v.922H2.172V0H1.078zm0 0"/></symbol><symbol overflow="visible" id="d"><path d="M4.328-7.28c-.78 0-1.406.296-1.875.89-.46.585-.687 1.382-.687 2.39 0 1.012.226 1.813.687 2.406.47.586 1.094.875 1.875.875.79 0 1.414-.288 1.875-.874.457-.593.688-1.394.688-2.406 0-1.008-.23-1.805-.687-2.39-.46-.594-1.086-.89-1.875-.89zm0-.892c1.125 0 2.024.383 2.703 1.14C7.708-6.28 8.048-5.27 8.048-4c0 1.262-.34 2.273-1.016 3.03C6.353-.22 5.454.157 4.33.157S2.3-.22 1.625-.97c-.668-.75-1-1.757-1-3.03 0-1.27.332-2.28 1-3.03.676-.76 1.578-1.142 2.703-1.142zm0 0"/></symbol></defs><g><path fill="#fff" d="M0 0h300v300H0z"/><path d="M126.48 111.234l-8.554 11.227" stroke-width="1.2" stroke="#cc0" stroke-miterlimit="10" fill="none"/><path d="M117.926 122.46l-8.56 11.228M153.125 120.57l-13.32-4.668" stroke-width="1.2" stroke="#000" stroke-miterlimit="10" fill="none"/><path d="M139.805 115.902l-13.325-4.668" stroke-width="1.2" stroke="#cc0" stroke-miterlimit="10" fill="none"/><path d="M123.48 104.734h7v13h-7zm0 0" fill="#fff"/><use xlink:href="#a" x="123.48" y="114.636" fill="#cc0"/><path d="M109.367 133.688l8.035 11.605" stroke-width="1.2" stroke="#000" stroke-miterlimit="10" fill="none"/><path d="M117.402 145.293l8.035 11.61M82.324 141.793l13.524-4.05" stroke-width="1.2" stroke="#00f" stroke-miterlimit="10" fill="none"/><path d="M95.848 137.742l13.52-4.054" stroke-width="1.2" stroke="#000" stroke-miterlimit="10" fill="none"/><path d="M86.938 147.348l10.816-3.243" stroke-width="1.2" stroke="#00f" stroke-miterlimit="10" fill="none"/><path d="M97.754 144.105l10.816-3.246" stroke-width="1.2" stroke="#000" stroke-miterlimit="10" fill="none"/><path d="M125.438 156.902l-17.114 22.453M125.438 156.902l13.52-4.054" stroke-width="1.2" stroke="#00f" stroke-miterlimit="10" fill="none"/><path d="M138.957 152.848l13.523-4.055" stroke-width="1.2" stroke="#000" stroke-miterlimit="10" fill="none"/><path d="M121.438 150.402h8v13h-8zm0 0" fill="#fff"/><use xlink:href="#b" x="121.438" y="160.304" fill="#00f"/><path d="M108.324 179.355L95 174.688" stroke-width="1.2" stroke="#00f" stroke-miterlimit="10" fill="none"/><path d="M95 174.688l-13.32-4.668" stroke-width="1.2" stroke="#000" stroke-miterlimit="10" fill="none"/><path d="M107.855 172.152L97.2 168.418" stroke-width="1.2" stroke="#00f" stroke-miterlimit="10" fill="none"/><path d="M97.2 168.418l-10.66-3.734" stroke-width="1.2" stroke="#000" stroke-miterlimit="10" fill="none"/><path d="M104.324 172.855h8v13h-8zm0 0" fill="#fff"/><use xlink:href="#b" x="104.324" y="182.757" fill="#00f"/><path d="M81.68 170.02l.324-14.114" stroke-width="1.2" stroke="#000" stroke-miterlimit="10" fill="none"/><path d="M82.004 155.906l.32-14.113" stroke-width="1.2" stroke="#00f" stroke-miterlimit="10" fill="none"/><path d="M81.68 170.02l-23.215 16.066" stroke-width="1.2" stroke="#000" stroke-miterlimit="10" fill="none"/><path d="M78.324 135.293h8v13h-8zm0 0" fill="#fff"/><use xlink:href="#b" x="78.324" y="145.194" fill="#00f"/><path d="M58.465 186.086l-11.61 8.03" stroke-width="1.2" stroke="#000" stroke-miterlimit="10" fill="none"/><path d="M46.855 194.117l-11.605 8.035" stroke-width="1.2" stroke="#3cc" stroke-miterlimit="10" fill="none"/><path d="M58.465 186.086l-8.035-11.61" stroke-width="1.2" stroke="#000" stroke-miterlimit="10" fill="none"/><path d="M50.43 174.477l-8.032-11.606" stroke-width="1.2" stroke="#3cc" stroke-miterlimit="10" fill="none"/><path d="M58.465 186.086l8.03 11.605" stroke-width="1.2" stroke="#000" stroke-miterlimit="10" fill="none"/><path d="M66.496 197.69l8.035 11.61" stroke-width="1.2" stroke="#3cc" stroke-miterlimit="10" fill="none"/><path d="M28.25 195.652h7v13h-7zm0 0" fill="#fff"/><use xlink:href="#c" x="28.25" y="205.554" fill="#3cc"/><path d="M35.398 156.37h7v13h-7zm0 0" fill="#fff"/><use xlink:href="#c" x="35.398" y="166.272" fill="#3cc"/><path d="M71.53 202.8h7v13h-7zm0 0" fill="#fff"/><use xlink:href="#c" x="71.531" y="212.702" fill="#3cc"/><path d="M152.48 148.793l.645-28.223M145.902 145.82l.516-22.582M152.48 148.793l22.454 17.113M153.125 120.57l23.215-16.066M176.34 104.504l25.523 12.07M181.73 99.703l20.418 9.66M174.03 76.363l2.31 28.14M201.863 116.574l23.21-16.066M225.074 100.508l-2.304-28.14M218.227 98.234l-1.848-22.507M222.77 72.367l-25.524-12.07M197.246 60.297L174.03 76.363M198.707 67.367L180.133 80.22M174.934 165.906l-3.594 28.004M181.164 169.555l-2.875 22.402M200.98 155.02l-26.046 10.886M171.34 193.91l22.453 17.113M193.793 211.023l26.047-10.89M193.836 203.805l20.84-8.71M219.84 200.133l11.23 8.558" stroke-width="1.2" stroke="#000" stroke-miterlimit="10" fill="none"/><path d="M231.07 208.69l11.227 8.556" stroke-width="1.2" stroke="#cc0" stroke-miterlimit="10" fill="none"/><path d="M219.84 200.133l3.594-28" stroke-width="1.2" stroke="#000" stroke-miterlimit="10" fill="none"/><path d="M244.938 219.262l8.554-11.227" stroke-width="1.2" stroke="#cc0" stroke-miterlimit="10" fill="none"/><path d="M253.492 208.035l8.56-11.226" stroke-width="1.2" stroke="#f00" stroke-miterlimit="10" fill="none"/><path d="M239.652 215.234l8.56-11.226" stroke-width="1.2" stroke="#cc0" stroke-miterlimit="10" fill="none"/><path d="M248.21 204.008l8.556-11.227" stroke-width="1.2" stroke="#f00" stroke-miterlimit="10" fill="none"/><path d="M239.652 215.234l-8.554 11.227" stroke-width="1.2" stroke="#cc0" stroke-miterlimit="10" fill="none"/><path d="M231.098 226.46l-8.56 11.227" stroke-width="1.2" stroke="#f00" stroke-miterlimit="10" fill="none"/><path d="M244.938 219.262l-8.56 11.226" stroke-width="1.2" stroke="#cc0" stroke-miterlimit="10" fill="none"/><path d="M236.38 230.488l-8.556 11.227" stroke-width="1.2" stroke="#f00" stroke-miterlimit="10" fill="none"/><path d="M242.297 217.246l11.226 8.56" stroke-width="1.2" stroke="#cc0" stroke-miterlimit="10" fill="none"/><path d="M253.523 225.805l11.227 8.554" stroke-width="1.2" stroke="#000" stroke-miterlimit="10" fill="none"/><path d="M239.297 210.746h7v13h-7zm0 0" fill="#fff"/><use xlink:href="#a" x="239.297" y="220.647" fill="#cc0"/><path d="M255.41 188.293h9v13h-9zm0 0" fill="#fff"/><use xlink:href="#d" x="255.41" y="198.194" fill="#f00"/><path d="M216.184 233.203h9v13h-9zm0 0" fill="#fff"/><use xlink:href="#d" x="216.184" y="243.104" fill="#f00"/><path d="M223.434 172.133L200.98 155.02M217.164 175.703l-17.965-13.69" stroke-width="1.2" stroke="#000" stroke-miterlimit="10" fill="none"/></g></svg>