<svg xmlns="http://www.w3.org/2000/svg" xmlns:xlink="http://www.w3.org/1999/xlink" width="300pt" height="300pt" viewBox="0 0 300 300"><defs><symbol overflow="visible"><path d="M.453 1.594v-7.938h4.5v7.938zm.5-.5h3.5v-6.938h-3.5zm0 0"/></symbol><symbol overflow="visible" id="a"><path d="M4.813-6.344v.86c-.336-.157-.653-.27-.954-.344-.294-.082-.58-.125-.86-.125-.492 0-.867.094-1.125.28-.262.19-.39.454-.39.798 0 .293.085.512.265.656.176.15.504.267.984.36l.547.11c.658.125 1.142.352 1.454.672.32.312.485.734.485 1.265 0 .637-.216 1.122-.642 1.454-.43.325-1.055.485-1.875.485-.312 0-.648-.04-1-.11C1.36-.046 1-.147.625-.296v-.906c.352.2.703.35 1.047.453.35.105.695.156 1.03.156.5 0 .884-.097 1.157-.297.28-.196.42-.485.42-.86 0-.32-.1-.57-.296-.75-.2-.176-.523-.313-.968-.406l-.547-.11C1.81-3.148 1.33-3.36 1.03-3.64.74-3.923.595-4.313.595-4.813c0-.57.203-1.024.61-1.36.405-.344.968-.516 1.687-.516.313 0 .626.032.938.094.32.055.65.137.985.25zm0 0"/></symbol><symbol overflow="visible" id="b"><path d="M3.547-5.953c-.65 0-1.164.242-1.547.72-.375.48-.563 1.13-.563 1.952 0 .835.188 1.49.563 1.967.383.48.898.72 1.547.72.644 0 1.156-.24 1.53-.72.376-.476.564-1.132.564-1.968 0-.822-.187-1.474-.562-1.954-.375-.477-.887-.72-1.53-.72zm0-.734c.914 0 1.648.312 2.203.937.55.617.828 1.438.828 2.47 0 1.042-.277 1.87-.828 2.483-.555.617-1.29.922-2.203.922-.93 0-1.668-.305-2.22-.922C.774-1.41.5-2.237.5-3.28c0-1.033.273-1.853.828-2.47.55-.625 1.29-.938 2.22-.938zm0 0"/></symbol><symbol overflow="visible" id="c"><path d="M.89-6.563H2.08l2.906 5.485v-5.484h.86V0H4.656L1.75-5.484V0H.89zm0 0"/></symbol><symbol overflow="visible" id="d"><path d="M.89-6.563h3.766v.75h-2.89v1.938h2.61v.734h-2.61V0H.89zm0 0"/></symbol><symbol overflow="visible" id="e"><path d="M.89-6.563h.876v2.688H5v-2.688h.89V0H5v-3.125H1.766V0H.89zm0 0"/></symbol></defs><g><path fill="#fff" d="M0 0h300v300H0z"/><path d="M54.414 195.87l3.55 10.86" stroke-width="1.2" stroke="#cc0" stroke-miterlimit="10" fill="none"/><path d="M57.965 206.73l3.547 10.864" stroke-width="1.2" stroke="#f00" stroke-miterlimit="10" fill="none"/><path d="M59.527 194.203l3.547 10.86" stroke-width="1.2" stroke="#cc0" stroke-miterlimit="10" fill="none"/><path d="M63.074 205.063l3.547 10.86" stroke-width="1.2" stroke="#f00" stroke-miterlimit="10" fill="none"/><path d="M59.527 194.203l-3.55-10.863" stroke-width="1.2" stroke="#cc0" stroke-miterlimit="10" fill="none"/><path d="M55.977 183.34l-3.547-10.86" stroke-width="1.2" stroke="#f00" stroke-miterlimit="10" fill="none"/><path d="M54.414 195.87l-3.547-10.858" stroke-width="1.2" stroke="#cc0" stroke-miterlimit="10" fill="none"/><path d="M50.867 185.012l-3.547-10.86" stroke-width="1.2" stroke="#f00" stroke-miterlimit="10" fill="none"/><path d="M56.973 195.035l-10.864 3.55" stroke-width="1.2" stroke="#cc0" stroke-miterlimit="10" fill="none"/><path d="M46.11 198.586l-10.86 3.547" stroke-width="1.2" stroke="#000" stroke-miterlimit="10" fill="none"/><path d="M56.973 195.035l10.86-3.547" stroke-width="1.2" stroke="#cc0" stroke-miterlimit="10" fill="none"/><path d="M67.832 191.488l10.86-3.547" stroke-width="1.2" stroke="#000" stroke-miterlimit="10" fill="none"/><path d="M53.973 189.535h6v11h-6zm0 0" fill="#fff"/><use xlink:href="#a" x="53.973" y="198.198" fill="#cc0"/><path d="M60.066 211.258h8v11h-8zm0 0" fill="#fff"/><use xlink:href="#b" x="60.066" y="219.921" fill="#f00"/><path d="M41.875 167.816h8v11h-8zm0 0" fill="#fff"/><use xlink:href="#b" x="41.875" y="176.479" fill="#f00"/><path d="M78.69 187.94l4.716-22.358M84.426 186.813l3.77-17.887M95.7 203.203L78.69 187.94M83.406 165.582l21.723-7.098M105.13 158.484l17.003 15.266M103.238 164.012l13.606 12.21M122.133 173.75l-4.715 22.355M122.133 173.75l21.722-7.098M117.418 196.105l-21.72 7.098M113.578 191.707l-17.38 5.676M143.855 166.652l17.004 15.262M149.145 164.176l13.605 12.21M148.57 144.293l-4.715 22.36M160.86 181.914l10.863-3.547" stroke-width="1.2" stroke="#000" stroke-miterlimit="10" fill="none"/><path d="M171.723 178.367l10.86-3.547M182.582 174.82l2.356-11.18" stroke-width="1.2" stroke="#00f" stroke-miterlimit="10" fill="none"/><path d="M184.938 163.64l2.36-11.18" stroke-width="1.2" stroke="#000" stroke-miterlimit="10" fill="none"/><path d="M177.793 171.473l1.887-8.942" stroke-width="1.2" stroke="#00f" stroke-miterlimit="10" fill="none"/><path d="M179.68 162.53l1.882-8.944" stroke-width="1.2" stroke="#000" stroke-miterlimit="10" fill="none"/><path d="M179.582 169.32h7v11h-7zm0 0" fill="#fff"/><use xlink:href="#c" x="179.582" y="177.983" fill="#00f"/><path d="M187.297 152.46l-8.504-7.632" stroke-width="1.2" stroke="#000" stroke-miterlimit="10" fill="none"/><path d="M178.793 144.828l-8.504-7.633" stroke-width="1.2" stroke="#00f" stroke-miterlimit="10" fill="none"/><path d="M187.297 152.46l21.72-7.097" stroke-width="1.2" stroke="#000" stroke-miterlimit="10" fill="none"/><path d="M170.29 137.195l-10.86 3.55" stroke-width="1.2" stroke="#00f" stroke-miterlimit="10" fill="none"/><path d="M159.43 140.746l-10.86 3.547" stroke-width="1.2" stroke="#000" stroke-miterlimit="10" fill="none"/><path d="M169.79 143.02l-8.688 2.835" stroke-width="1.2" stroke="#00f" stroke-miterlimit="10" fill="none"/><path d="M161.102 145.855l-8.692 2.84" stroke-width="1.2" stroke="#000" stroke-miterlimit="10" fill="none"/><path d="M167.29 131.695h7v11h-7zm0 0" fill="#fff"/><use xlink:href="#c" x="167.289" y="140.358" fill="#00f"/><path d="M148.57 144.293l-17.007-15.262M131.563 129.03l4.714-22.358M126.773 125.684l3.774-17.887M109.844 136.125l21.72-7.094M136.277 106.672L119.273 91.41M119.273 91.41L97.55 98.504M118.77 97.23l-17.375 5.676M97.55 98.504l-8.5-7.63" stroke-width="1.2" stroke="#000" stroke-miterlimit="10" fill="none"/><path d="M89.05 90.875l-8.503-7.633" stroke-width="1.2" stroke="#3cc" stroke-miterlimit="10" fill="none"/><path d="M97.55 98.504l-4.714 22.36" stroke-width="1.2" stroke="#000" stroke-miterlimit="10" fill="none"/><path d="M74.547 77.742h6v11h-6zm0 0" fill="#fff"/><use xlink:href="#d" x="74.547" y="86.405" fill="#3cc"/><path d="M92.836 120.863l17.008 15.262M98.13 118.39l13.604 12.208M209.016 145.363l2.36-11.18" stroke-width="1.2" stroke="#000" stroke-miterlimit="10" fill="none"/><path d="M211.375 134.184l2.355-11.18" stroke-width="1.2" stroke="#f00" stroke-miterlimit="10" fill="none"/><path d="M209.016 145.363l17.007 15.262" stroke-width="1.2" stroke="#000" stroke-miterlimit="10" fill="none"/><path d="M206.73 117.504h15v11h-15zm0 0" fill="#fff"/><g fill="#f00"><use xlink:href="#b" x="206.73" y="126.167"/><use xlink:href="#e" x="214.072" y="126.167"/></g><path d="M226.023 160.625l-4.714 22.36M230.813 163.973l-3.774 17.886M247.742 153.53l-21.72 7.095M221.31 182.984l17.002 15.266M238.313 198.25l21.722-7.098M238.816 192.43l17.375-5.68M260.035 191.152l4.715-22.36M264.75 168.793l-17.008-15.262M259.457 171.27l-13.605-12.21" stroke-width="1.2" stroke="#000" stroke-miterlimit="10" fill="none"/></g></svg>