<svg xmlns="http://www.w3.org/2000/svg" xmlns:xlink="http://www.w3.org/1999/xlink" width="300pt" height="300pt" viewBox="0 0 300 300"><defs><symbol overflow="visible"><path d="M.594 2.125V-8.47h6V2.126zm.672-.672h4.671V-7.78h-4.67zm0 0"/></symbol><symbol overflow="visible" id="a"><path d="M6.422-8.47v1.158c-.45-.208-.875-.364-1.28-.47-.4-.113-.78-.17-1.142-.17-.648 0-1.148.124-1.5.374-.344.25-.516.61-.516 1.078 0 .387.114.68.344.875.227.2.672.355 1.328.47L4.36-5c.882.168 1.535.465 1.952.89.426.42.64.98.64 1.688 0 .856-.288 1.5-.858 1.938-.563.437-1.4.656-2.5.656-.406 0-.844-.047-1.313-.14C1.814-.064 1.33-.204.83-.392v-1.22c.477.274.945.477 1.406.61.47.137.922.203 1.36.203.676 0 1.195-.13 1.562-.39.375-.27.563-.65.563-1.14 0-.427-.138-.76-.407-1-.262-.25-.696-.43-1.297-.548l-.72-.14c-.886-.176-1.526-.454-1.92-.83-.388-.374-.58-.893-.58-1.56 0-.782.27-1.392.813-1.83.538-.445 1.288-.67 2.25-.67.413 0 .83.038 1.25.108.425.074.863.184 1.312.328zm0 0"/></symbol><symbol overflow="visible" id="b"><path d="M4.734-7.953c-.867 0-1.554.324-2.062.97-.5.635-.75 1.51-.75 2.624 0 1.094.25 1.965.75 2.61.508.637 1.195.953 2.062.953.852 0 1.532-.316 2.032-.953.507-.645.765-1.516.765-2.61 0-1.113-.257-1.988-.764-2.624-.5-.645-1.18-.97-2.032-.97zm0-.953c1.22 0 2.192.414 2.922 1.234.74.824 1.11 1.93 1.11 3.313 0 1.376-.37 2.477-1.11 3.298C6.926-.24 5.953.17 4.734.17c-1.23 0-2.214-.41-2.953-1.234C1.04-1.882.673-2.984.673-4.36c0-1.382.367-2.488 1.11-3.312.738-.82 1.722-1.234 2.952-1.234zm0 0"/></symbol><symbol overflow="visible" id="c"><path d="M1.172-8.75h1.594l3.89 7.313V-8.75h1.14V0H6.204L2.328-7.313V0H1.172zm0 0"/></symbol><symbol overflow="visible" id="d"><path d="M1.172-8.75h5.03v1H2.36v2.578h3.468v1h-3.47V0H1.173zm0 0"/></symbol><symbol overflow="visible" id="e"><path d="M1.172-8.75H2.36v3.594h4.296V-8.75h1.188V0H6.656v-4.172H2.36V0H1.17zm0 0"/></symbol><symbol overflow="visible"><path d="M.5 1.766v-8.813h5v8.813zm.563-.547h3.875v-7.704H1.063zm0 0"/></symbol><symbol overflow="visible" id="f"><path d="M1.922-.828H5.36V0H.733v-.828c.375-.383.883-.906 1.532-1.563.644-.657 1.05-1.08 1.218-1.266.313-.352.532-.65.657-.89.126-.25.188-.493.188-.735 0-.384-.137-.697-.406-.94-.274-.25-.625-.374-1.063-.374-.313 0-.64.06-.985.172-.336.106-.7.266-1.094.484v-1c.396-.156.767-.273 1.11-.36.344-.08.66-.124.954-.124.75 0 1.347.188 1.797.563.458.376.688.883.688 1.516 0 .305-.058.59-.172.86-.117.26-.32.574-.61.937-.085.094-.343.37-.78.828-.438.45-1.055 1.08-1.844 1.892zm0 0"/></symbol></defs><g><path fill="#fff" d="M0 0h300v300H0z"/><path d="M239.63 166.305l2.245-14.24" stroke-width="1.2" stroke="#cc0" stroke-miterlimit="10" fill="none"/><path d="M241.875 152.066l2.25-14.234" stroke-width="1.2" stroke="#f00" stroke-miterlimit="10" fill="none"/><path d="M232.93 165.246l2.246-14.238" stroke-width="1.2" stroke="#cc0" stroke-miterlimit="10" fill="none"/><path d="M235.176 151.008l2.25-14.235" stroke-width="1.2" stroke="#f00" stroke-miterlimit="10" fill="none"/><path d="M232.93 165.246l-2.25 14.234" stroke-width="1.2" stroke="#cc0" stroke-miterlimit="10" fill="none"/><path d="M230.68 179.48l-2.246 14.24" stroke-width="1.2" stroke="#f00" stroke-miterlimit="10" fill="none"/><path d="M239.63 166.305l-2.25 14.234" stroke-width="1.2" stroke="#cc0" stroke-miterlimit="10" fill="none"/><path d="M237.38 180.54l-2.247 14.233" stroke-width="1.2" stroke="#f00" stroke-miterlimit="10" fill="none"/><path d="M236.277 165.773l14.24 2.25" stroke-width="1.2" stroke="#cc0" stroke-miterlimit="10" fill="none"/><path d="M250.516 168.023l14.234 2.247" stroke-width="1.2" stroke="#000" stroke-miterlimit="10" fill="none"/><path d="M236.277 165.773l-14.234-2.246" stroke-width="1.2" stroke="#cc0" stroke-miterlimit="10" fill="none"/><path d="M222.043 163.527l-14.238-2.25" stroke-width="1.2" stroke="#000" stroke-miterlimit="10" fill="none"/><path d="M232.277 158.773h8v14h-8zm0 0" fill="#fff"/><use xlink:href="#a" x="232.277" y="169.912" fill="#cc0"/><path d="M235.773 130.3h10v14h-10zm0 0" fill="#fff"/><use xlink:href="#b" x="235.773" y="141.439" fill="#f00"/><path d="M226.78 187.246h10v14h-10zm0 0" fill="#fff"/><use xlink:href="#b" x="226.781" y="198.385" fill="#f00"/><path d="M207.805 161.277l-18.13 22.41M200.72 159.254l-14.505 17.926M197.465 134.37l10.34 26.907M189.676 183.688l-28.473-4.497M161.203 179.19l-10.34-26.905M166.5 174.066l-8.273-21.523M150.863 152.285l18.13-22.41M150.863 152.285l-28.472-4.496M168.992 129.875l28.473 4.496M170.78 137.023l22.78 3.598M122.39 147.79l-5.17-13.454" stroke-width="1.2" stroke="#000" stroke-miterlimit="10" fill="none"/><path d="M117.22 134.336l-5.17-13.453" stroke-width="1.2" stroke="#00f" stroke-miterlimit="10" fill="none"/><path d="M115.027 147.53l-4.136-10.76" stroke-width="1.2" stroke="#000" stroke-miterlimit="10" fill="none"/><path d="M110.89 136.77l-4.136-10.762" stroke-width="1.2" stroke="#00f" stroke-miterlimit="10" fill="none"/><path d="M104.262 170.2l18.13-22.41" stroke-width="1.2" stroke="#000" stroke-miterlimit="10" fill="none"/><path d="M112.05 120.883l-14.237-2.25" stroke-width="1.2" stroke="#00f" stroke-miterlimit="10" fill="none"/><path d="M97.813 118.633l-14.235-2.246" stroke-width="1.2" stroke="#000" stroke-miterlimit="10" fill="none"/><path d="M108.05 113.883h9v14h-9zm0 0" fill="#fff"/><use xlink:href="#c" x="108.051" y="125.021" fill="#00f"/><path d="M83.578 116.387l-9.066 11.203" stroke-width="1.2" stroke="#000" stroke-miterlimit="10" fill="none"/><path d="M74.512 127.59l-9.067 11.207" stroke-width="1.2" stroke="#00f" stroke-miterlimit="10" fill="none"/><path d="M87.035 122.895l-7.25 8.96" stroke-width="1.2" stroke="#000" stroke-miterlimit="10" fill="none"/><path d="M79.785 131.855l-7.254 8.965" stroke-width="1.2" stroke="#00f" stroke-miterlimit="10" fill="none"/><path d="M83.578 116.387l-5.172-13.453" stroke-width="1.2" stroke="#000" stroke-miterlimit="10" fill="none"/><path d="M78.406 102.934L73.234 89.48M65.445 138.797l5.172 13.453" stroke-width="1.2" stroke="#00f" stroke-miterlimit="10" fill="none"/><path d="M70.617 152.25l5.172 13.45" stroke-width="1.2" stroke="#000" stroke-miterlimit="10" fill="none"/><path d="M61.445 131.797h9v14h-9zm0 0" fill="#fff"/><use xlink:href="#c" x="61.445" y="142.936" fill="#00f"/><path d="M75.79 165.7l28.472 4.5M79.695 159.453l22.778 3.594M75.79 165.7l-18.13 22.41M57.66 188.11l-9.066 11.206" stroke-width="1.2" stroke="#000" stroke-miterlimit="10" fill="none"/><path d="M48.594 199.316l-9.067 11.204" stroke-width="1.2" stroke="#3cc" stroke-miterlimit="10" fill="none"/><path d="M57.66 188.11l-11.207-9.063" stroke-width="1.2" stroke="#000" stroke-miterlimit="10" fill="none"/><path d="M46.453 179.047L35.25 169.98" stroke-width="1.2" stroke="#3cc" stroke-miterlimit="10" fill="none"/><path d="M57.66 188.11l11.203 9.066" stroke-width="1.2" stroke="#000" stroke-miterlimit="10" fill="none"/><path d="M68.863 197.176l11.203 9.062" stroke-width="1.2" stroke="#3cc" stroke-miterlimit="10" fill="none"/><path d="M32.527 203.52h7v14h-7zm0 0" fill="#fff"/><use xlink:href="#d" x="32.527" y="214.658" fill="#3cc"/><path d="M28.25 162.98h7v14h-7zm0 0" fill="#fff"/><use xlink:href="#d" x="28.25" y="174.119" fill="#3cc"/><path d="M77.066 199.238h7v14h-7zm0 0" fill="#fff"/><use xlink:href="#d" x="77.066" y="210.377" fill="#3cc"/><path d="M48.234 79.98h25v19h-25zm0 0" fill="#fff"/><use xlink:href="#e" x="48.234" y="91.119" fill="#00f"/><use xlink:href="#f" x="57.258" y="96.002" fill="#00f"/><use xlink:href="#c" x="63.62" y="91.119" fill="#00f"/></g></svg>