<svg xmlns="http://www.w3.org/2000/svg" xmlns:xlink="http://www.w3.org/1999/xlink" width="300pt" height="300pt" viewBox="0 0 300 300"><defs><symbol overflow="visible"><path d="M.594 2.125V-8.47h6V2.126zm.672-.672h4.671V-7.78h-4.67zm0 0"/></symbol><symbol overflow="visible" id="a"><path d="M6.422-8.47v1.158c-.45-.208-.875-.364-1.28-.47-.4-.113-.78-.17-1.142-.17-.648 0-1.148.124-1.5.374-.344.25-.516.61-.516 1.078 0 .387.114.68.344.875.227.2.672.355 1.328.47L4.36-5c.882.168 1.535.465 1.952.89.426.42.64.98.64 1.688 0 .856-.288 1.5-.858 1.938-.563.437-1.4.656-2.5.656-.406 0-.844-.047-1.313-.14C1.814-.064 1.33-.204.83-.392v-1.22c.477.274.945.477 1.406.61.47.137.922.203 1.36.203.676 0 1.195-.13 1.562-.39.375-.27.563-.65.563-1.14 0-.427-.138-.76-.407-1-.262-.25-.696-.43-1.297-.548l-.72-.14c-.886-.176-1.526-.454-1.92-.83-.388-.374-.58-.893-.58-1.56 0-.782.27-1.392.813-1.83.538-.445 1.288-.67 2.25-.67.413 0 .83.038 1.25.108.425.074.863.184 1.312.328zm0 0"/></symbol><symbol overflow="visible" id="b"><path d="M4.734-7.953c-.867 0-1.554.324-2.062.97-.5.635-.75 1.51-.75 2.624 0 1.094.25 1.965.75 2.61.508.637 1.195.953 2.062.953.852 0 1.532-.316 2.032-.953.507-.645.765-1.516.765-2.61 0-1.113-.257-1.988-.764-2.624-.5-.645-1.18-.97-2.032-.97zm0-.953c1.22 0 2.192.414 2.922 1.234.74.824 1.11 1.93 1.11 3.313 0 1.376-.37 2.477-1.11 3.298C6.926-.24 5.953.17 4.734.17c-1.23 0-2.214-.41-2.953-1.234C1.04-1.882.673-2.984.673-4.36c0-1.382.367-2.488 1.11-3.312.738-.82 1.722-1.234 2.952-1.234zm0 0"/></symbol><symbol overflow="visible" id="c"><path d="M1.172-8.75h1.594l3.89 7.313V-8.75h1.14V0H6.204L2.328-7.313V0H1.172zm0 0"/></symbol><symbol overflow="visible" id="d"><path d="M1.172-8.75H2.36v3.594h4.296V-8.75h1.188V0H6.656v-4.172H2.36V0H1.17zm0 0"/></symbol></defs><g><path fill="#fff" d="M0 0h300v300H0z"/><path d="M57.648 182.25l7.45 12.695" stroke-width="1.2" stroke="#cc0" stroke-miterlimit="10" fill="none"/><path d="M65.098 194.945l7.445 12.692" stroke-width="1.2" stroke="#f00" stroke-miterlimit="10" fill="none"/><path d="M63.62 178.746l7.45 12.695" stroke-width="1.2" stroke="#cc0" stroke-miterlimit="10" fill="none"/><path d="M71.07 191.44l7.446 12.693" stroke-width="1.2" stroke="#f00" stroke-miterlimit="10" fill="none"/><path d="M63.62 178.746l-7.444-12.69" stroke-width="1.2" stroke="#cc0" stroke-miterlimit="10" fill="none"/><path d="M56.176 166.055L48.73 153.36" stroke-width="1.2" stroke="#f00" stroke-miterlimit="10" fill="none"/><path d="M57.648 182.25l-7.445-12.69" stroke-width="1.2" stroke="#cc0" stroke-miterlimit="10" fill="none"/><path d="M50.203 169.56l-7.45-12.693" stroke-width="1.2" stroke="#f00" stroke-miterlimit="10" fill="none"/><path d="M60.637 180.5l-12.696 7.445" stroke-width="1.2" stroke="#cc0" stroke-miterlimit="10" fill="none"/><path d="M47.94 187.945l-12.69 7.45" stroke-width="1.2" stroke="#000" stroke-miterlimit="10" fill="none"/><path d="M60.637 180.5l12.69-7.45" stroke-width="1.2" stroke="#cc0" stroke-miterlimit="10" fill="none"/><path d="M73.328 173.05l12.695-7.445" stroke-width="1.2" stroke="#000" stroke-miterlimit="10" fill="none"/><path d="M56.637 173.5h8v14h-8zm0 0" fill="#fff"/><use xlink:href="#a" x="56.637" y="184.639" fill="#cc0"/><path d="M70.53 198.887h10v14h-10zm0 0" fill="#fff"/><use xlink:href="#b" x="70.531" y="210.025" fill="#f00"/><path d="M35.742 148.113h10v14h-10zm0 0" fill="#fff"/><use xlink:href="#b" x="35.742" y="159.252" fill="#f00"/><path d="M86.023 165.605l-.207-29.433M92.926 162.613l-.164-23.543M111.613 180.145l-25.59-14.54M85.816 136.172l25.387-14.89M111.203 121.28l25.59 14.536M110.34 128.754l20.472 11.633M136.793 135.816L137 165.25M136.793 135.816l25.387-14.89M137 165.25l-25.387 14.895M130.957 160.766l-20.31 11.914M162.18 120.926l12.797 7.265" stroke-width="1.2" stroke="#000" stroke-miterlimit="10" fill="none"/><path d="M174.977 128.19l12.793 7.27" stroke-width="1.2" stroke="#00f" stroke-miterlimit="10" fill="none"/><path d="M168.16 116.355l10.235 5.817" stroke-width="1.2" stroke="#000" stroke-miterlimit="10" fill="none"/><path d="M178.395 122.172l10.238 5.816" stroke-width="1.2" stroke="#00f" stroke-miterlimit="10" fill="none"/><path d="M161.973 91.492l.207 29.434" stroke-width="1.2" stroke="#000" stroke-miterlimit="10" fill="none"/><path d="M187.77 135.46l12.695-7.444" stroke-width="1.2" stroke="#00f" stroke-miterlimit="10" fill="none"/><path d="M200.465 128.016l12.69-7.45" stroke-width="1.2" stroke="#000" stroke-miterlimit="10" fill="none"/><path d="M183.77 128.46h9v14h-9zm0 0" fill="#fff"/><use xlink:href="#c" x="183.77" y="139.6" fill="#00f"/><path d="M213.156 120.566l-.1-14.714" stroke-width="1.2" stroke="#000" stroke-miterlimit="10" fill="none"/><path d="M213.055 105.852l-.102-14.715" stroke-width="1.2" stroke="#00f" stroke-miterlimit="10" fill="none"/><path d="M206.21 117.672l-.08-11.77" stroke-width="1.2" stroke="#000" stroke-miterlimit="10" fill="none"/><path d="M206.13 105.902l-.083-11.773" stroke-width="1.2" stroke="#00f" stroke-miterlimit="10" fill="none"/><path d="M213.156 120.566l12.797 7.27" stroke-width="1.2" stroke="#000" stroke-miterlimit="10" fill="none"/><path d="M225.953 127.836l12.793 7.27M212.953 91.137l-12.797-7.27" stroke-width="1.2" stroke="#00f" stroke-miterlimit="10" fill="none"/><path d="M200.156 83.867l-12.797-7.27" stroke-width="1.2" stroke="#000" stroke-miterlimit="10" fill="none"/><path d="M208.953 84.137h9v14h-9zm0 0" fill="#fff"/><use xlink:href="#c" x="208.953" y="95.275" fill="#00f"/><path d="M187.36 76.598l-25.387 14.894M188.324 84.063l-20.308 11.914M161.973 91.492l-25.59-14.54" stroke-width="1.2" stroke="#000" stroke-miterlimit="10" fill="none"/><path d="M238.746 135.105l.106 14.715" stroke-width="1.2" stroke="#00f" stroke-miterlimit="10" fill="none"/><path d="M238.852 149.82l.1 14.72" stroke-width="1.2" stroke="#000" stroke-miterlimit="10" fill="none"/><path d="M229.746 128.105h18v14h-18zm0 0" fill="#fff"/><g fill="#00f"><use xlink:href="#c" x="229.746" y="139.244"/><use xlink:href="#d" x="238.723" y="139.244"/></g><path d="M238.953 164.54l-25.387 14.894M264.543 179.074l-25.59-14.535M213.566 179.434l.207 29.43M213.773 208.863l25.59 14.54M239.363 223.402l25.387-14.894M264.75 208.508l-.207-29.434" stroke-width="1.2" stroke="#000" stroke-miterlimit="10" fill="none"/></g></svg>