<svg xmlns="http://www.w3.org/2000/svg" xmlns:xlink="http://www.w3.org/1999/xlink" width="300pt" height="300pt" viewBox="0 0 300 300"><defs><symbol overflow="visible"><path d="M.453 1.594v-7.938h4.5v7.938zm.5-.5h3.5v-6.938h-3.5zm0 0"/></symbol><symbol overflow="visible" id="a"><path d="M4.813-6.344v.86c-.336-.157-.653-.27-.954-.344-.294-.082-.58-.125-.86-.125-.492 0-.867.094-1.125.28-.262.19-.39.454-.39.798 0 .293.085.512.265.656.176.15.504.267.984.36l.547.11c.658.125 1.142.352 1.454.672.32.312.485.734.485 1.265 0 .637-.216 1.122-.642 1.454-.43.325-1.055.485-1.875.485-.312 0-.648-.04-1-.11C1.36-.046 1-.147.625-.296v-.906c.352.2.703.35 1.047.453.35.105.695.156 1.03.156.5 0 .884-.097 1.157-.297.28-.196.42-.485.42-.86 0-.32-.1-.57-.296-.75-.2-.176-.523-.313-.968-.406l-.547-.11C1.81-3.148 1.33-3.36 1.03-3.64.74-3.923.595-4.313.595-4.813c0-.57.203-1.024.61-1.36.405-.344.968-.516 1.687-.516.313 0 .626.032.938.094.32.055.65.137.985.25zm0 0"/></symbol><symbol overflow="visible" id="b"><path d="M3.547-5.953c-.65 0-1.164.242-1.547.72-.375.48-.563 1.13-.563 1.952 0 .835.188 1.49.563 1.967.383.48.898.72 1.547.72.644 0 1.156-.24 1.53-.72.376-.476.564-1.132.564-1.968 0-.822-.187-1.474-.562-1.954-.375-.477-.887-.72-1.53-.72zm0-.734c.914 0 1.648.312 2.203.937.55.617.828 1.438.828 2.47 0 1.042-.277 1.87-.828 2.483-.555.617-1.29.922-2.203.922-.93 0-1.668-.305-2.22-.922C.774-1.41.5-2.237.5-3.28c0-1.033.273-1.853.828-2.47.55-.625 1.29-.938 2.22-.938zm0 0"/></symbol><symbol overflow="visible" id="c"><path d="M.89-6.563H2.08l2.906 5.485v-5.484h.86V0H4.656L1.75-5.484V0H.89zm0 0"/></symbol><symbol overflow="visible" id="d"><path d="M.89-6.563h3.766v.75h-2.89v1.938h2.61v.734h-2.61V0H.89zm0 0"/></symbol></defs><g><path fill="#fff" d="M0 0h300v300H0z"/><path d="M52.086 225.69l8.52 8.904" stroke-width="1.2" stroke="#cc0" stroke-miterlimit="10" fill="none"/><path d="M60.605 234.594l8.52 8.902" stroke-width="1.2" stroke="#f00" stroke-miterlimit="10" fill="none"/><path d="M56.273 221.684l8.524 8.902" stroke-width="1.2" stroke="#cc0" stroke-miterlimit="10" fill="none"/><path d="M64.797 230.586l8.52 8.902" stroke-width="1.2" stroke="#f00" stroke-miterlimit="10" fill="none"/><path d="M56.273 221.684l-8.52-8.903" stroke-width="1.2" stroke="#cc0" stroke-miterlimit="10" fill="none"/><path d="M47.754 212.78l-8.52-8.9" stroke-width="1.2" stroke="#f00" stroke-miterlimit="10" fill="none"/><path d="M52.086 225.69l-8.52-8.9" stroke-width="1.2" stroke="#cc0" stroke-miterlimit="10" fill="none"/><path d="M43.566 216.79l-8.52-8.903" stroke-width="1.2" stroke="#f00" stroke-miterlimit="10" fill="none"/><path d="M54.18 223.688l-8.903 8.52" stroke-width="1.2" stroke="#cc0" stroke-miterlimit="10" fill="none"/><path d="M45.277 232.207l-8.902 8.52" stroke-width="1.2" stroke="#000" stroke-miterlimit="10" fill="none"/><path d="M54.18 223.688l8.902-8.52" stroke-width="1.2" stroke="#cc0" stroke-miterlimit="10" fill="none"/><path d="M63.082 215.168l8.902-8.52" stroke-width="1.2" stroke="#000" stroke-miterlimit="10" fill="none"/><path d="M51.18 218.188h6v11h-6zm0 0" fill="#fff"/><use xlink:href="#a" x="51.18" y="226.851" fill="#cc0"/><path d="M67.22 235.992h8v11h-8zm0 0" fill="#fff"/><use xlink:href="#b" x="67.219" y="244.655" fill="#f00"/><path d="M29.14 200.383h8v11h-8zm0 0" fill="#fff"/><use xlink:href="#b" x="29.141" y="209.046" fill="#f00"/><path d="M71.984 206.648l-5.85-23.937M77.03 202.88l-4.682-19.153M95.645 213.547l-23.66-6.9M66.133 182.71l17.805-17.042M83.938 165.668l23.656 6.902M84.68 171.926l18.925 5.52M107.594 172.57l5.855 23.938M107.594 172.57l17.808-17.04M113.45 196.508l-17.805 17.04M107.66 194.023l-14.242 13.633M125.402 155.53l-1.66-12.21" stroke-width="1.2" stroke="#000" stroke-miterlimit="10" fill="none"/><path d="M123.742 143.32l-1.66-12.21" stroke-width="1.2" stroke="#00f" stroke-miterlimit="10" fill="none"/><path d="M149.652 159.918l-24.25-4.387M148.258 153.773l-19.4-3.51" stroke-width="1.2" stroke="#000" stroke-miterlimit="10" fill="none"/><path d="M122.082 131.11l11.098-5.352" stroke-width="1.2" stroke="#00f" stroke-miterlimit="10" fill="none"/><path d="M133.18 125.758l11.1-5.352" stroke-width="1.2" stroke="#000" stroke-miterlimit="10" fill="none"/><path d="M122.082 131.11l-10.855-5.833" stroke-width="1.2" stroke="#00f" stroke-miterlimit="10" fill="none"/><path d="M111.227 125.277l-10.856-5.836" stroke-width="1.2" stroke="#000" stroke-miterlimit="10" fill="none"/><path d="M119.082 125.61h7v11h-7zm0 0" fill="#fff"/><use xlink:href="#c" x="119.082" y="134.272" fill="#00f"/><path d="M144.28 120.406l4.388-24.25M144.28 120.406l17.04 17.805M141.793 126.195l13.633 14.246M161.32 138.21l-11.668 21.708M161.32 138.21l24.418-3.32M185.738 134.89l15.086 19.49M200.824 154.38l12.21-1.66" stroke-width="1.2" stroke="#000" stroke-miterlimit="10" fill="none"/><path d="M213.035 152.72l12.21-1.66" stroke-width="1.2" stroke="#f00" stroke-miterlimit="10" fill="none"/><path d="M198.14 153.28l-4.667 11.407" stroke-width="1.2" stroke="#000" stroke-miterlimit="10" fill="none"/><path d="M193.473 164.688l-4.668 11.402" stroke-width="1.2" stroke="#f00" stroke-miterlimit="10" fill="none"/><path d="M203.508 155.477l-4.668 11.406" stroke-width="1.2" stroke="#000" stroke-miterlimit="10" fill="none"/><path d="M198.84 166.883l-4.668 11.402M225.246 151.06l7.543 9.745" stroke-width="1.2" stroke="#f00" stroke-miterlimit="10" fill="none"/><path d="M232.79 160.805l7.538 9.742" stroke-width="1.2" stroke="#000" stroke-miterlimit="10" fill="none"/><path d="M221.246 145.56h8v11h-8zm0 0" fill="#fff"/><use xlink:href="#b" x="221.246" y="154.222" fill="#f00"/><path d="M240.328 170.547l24.422-3.32M240.328 170.547l-9.332 22.808" stroke-width="1.2" stroke="#000" stroke-miterlimit="10" fill="none"/><path d="M183.488 171.688h8v11h-8zm0 0" fill="#fff"/><use xlink:href="#b" x="183.488" y="180.351" fill="#f00"/><path d="M100.37 119.44l-.745-24.63M94.504 117.156l-.602-19.707M79.414 132.406l20.957-12.965M99.625 94.81L77.918 83.14M77.918 83.14l-.375-12.316" stroke-width="1.2" stroke="#000" stroke-miterlimit="10" fill="none"/><path d="M77.543 70.824l-.375-12.316" stroke-width="1.2" stroke="#3cc" stroke-miterlimit="10" fill="none"/><path d="M77.918 83.14l-20.96 12.965M78.87 89.367L62.106 99.742" stroke-width="1.2" stroke="#000" stroke-miterlimit="10" fill="none"/><path d="M74.168 53.008h6v11h-6zm0 0" fill="#fff"/><use xlink:href="#d" x="74.168" y="61.671" fill="#3cc"/><path d="M56.957 96.105l-10.852-5.832" stroke-width="1.2" stroke="#000" stroke-miterlimit="10" fill="none"/><path d="M46.105 90.273L35.25 84.438" stroke-width="1.2" stroke="#3cc" stroke-miterlimit="10" fill="none"/><path d="M56.957 96.105l.75 24.633" stroke-width="1.2" stroke="#000" stroke-miterlimit="10" fill="none"/><path d="M29.25 78.938h6v11h-6zm0 0" fill="#fff"/><use xlink:href="#d" x="29.25" y="87.601" fill="#3cc"/><path d="M57.707 120.738l21.707 11.668M62.62 116.797l17.368 9.336" stroke-width="1.2" stroke="#000" stroke-miterlimit="10" fill="none"/></g></svg>