<svg xmlns="http://www.w3.org/2000/svg" xmlns:xlink="http://www.w3.org/1999/xlink" width="300pt" height="300pt" viewBox="0 0 300 300"><defs><symbol overflow="visible"><path d="M.453 1.594v-7.938h4.5v7.938zm.5-.5h3.5v-6.938h-3.5zm0 0"/></symbol><symbol overflow="visible" id="a"><path d="M4.813-6.344v.86c-.336-.157-.653-.27-.954-.344-.294-.082-.58-.125-.86-.125-.492 0-.867.094-1.125.28-.262.19-.39.454-.39.798 0 .293.085.512.265.656.176.15.504.267.984.36l.547.11c.658.125 1.142.352 1.454.672.32.312.485.734.485 1.265 0 .637-.216 1.122-.642 1.454-.43.325-1.055.485-1.875.485-.312 0-.648-.04-1-.11C1.36-.046 1-.147.625-.296v-.906c.352.2.703.35 1.047.453.35.105.695.156 1.03.156.5 0 .884-.097 1.157-.297.28-.196.42-.485.42-.86 0-.32-.1-.57-.296-.75-.2-.176-.523-.313-.968-.406l-.547-.11C1.81-3.148 1.33-3.36 1.03-3.64.74-3.923.595-4.313.595-4.813c0-.57.203-1.024.61-1.36.405-.344.968-.516 1.687-.516.313 0 .626.032.938.094.32.055.65.137.985.25zm0 0"/></symbol><symbol overflow="visible" id="b"><path d="M3.547-5.953c-.65 0-1.164.242-1.547.72-.375.48-.563 1.13-.563 1.952 0 .835.188 1.49.563 1.967.383.48.898.72 1.547.72.644 0 1.156-.24 1.53-.72.376-.476.564-1.132.564-1.968 0-.822-.187-1.474-.562-1.954-.375-.477-.887-.72-1.53-.72zm0-.734c.914 0 1.648.312 2.203.937.55.617.828 1.438.828 2.47 0 1.042-.277 1.87-.828 2.483-.555.617-1.29.922-2.203.922-.93 0-1.668-.305-2.22-.922C.774-1.41.5-2.237.5-3.28c0-1.033.273-1.853.828-2.47.55-.625 1.29-.938 2.22-.938zm0 0"/></symbol><symbol overflow="visible" id="c"><path d="M.89-6.563H2.08l2.906 5.485v-5.484h.86V0H4.656L1.75-5.484V0H.89zm0 0"/></symbol></defs><g><path fill="#fff" d="M0 0h300v300H0z"/><path d="M62.188 222.09l8.785 8.117" stroke-width="1.2" stroke="#cc0" stroke-miterlimit="10" fill="none"/><path d="M70.973 230.207l8.785 8.117" stroke-width="1.2" stroke="#f00" stroke-miterlimit="10" fill="none"/><path d="M66.008 217.953l8.785 8.117" stroke-width="1.2" stroke="#cc0" stroke-miterlimit="10" fill="none"/><path d="M74.793 226.07l8.785 8.118" stroke-width="1.2" stroke="#f00" stroke-miterlimit="10" fill="none"/><path d="M66.008 217.953l-8.79-8.117" stroke-width="1.2" stroke="#cc0" stroke-miterlimit="10" fill="none"/><path d="M57.22 209.836l-8.786-8.117" stroke-width="1.2" stroke="#f00" stroke-miterlimit="10" fill="none"/><path d="M62.188 222.09l-8.786-8.117" stroke-width="1.2" stroke="#cc0" stroke-miterlimit="10" fill="none"/><path d="M53.402 213.973l-8.79-8.118" stroke-width="1.2" stroke="#f00" stroke-miterlimit="10" fill="none"/><path d="M64.098 220.02l-8.118 8.79" stroke-width="1.2" stroke="#cc0" stroke-miterlimit="10" fill="none"/><path d="M55.98 228.81l-8.117 8.784" stroke-width="1.2" stroke="#000" stroke-miterlimit="10" fill="none"/><path d="M64.098 220.02l8.117-8.786" stroke-width="1.2" stroke="#cc0" stroke-miterlimit="10" fill="none"/><path d="M72.215 211.234l8.117-8.785" stroke-width="1.2" stroke="#000" stroke-miterlimit="10" fill="none"/><path d="M61.098 214.52h6v11h-6zm0 0" fill="#fff"/><use xlink:href="#a" x="61.098" y="223.183" fill="#cc0"/><path d="M77.668 230.754h8v11h-8zm0 0" fill="#fff"/><use xlink:href="#b" x="77.668" y="239.417" fill="#f00"/><path d="M38.523 198.285h8v11h-8zm0 0" fill="#fff"/><use xlink:href="#b" x="38.523" y="206.948" fill="#f00"/><path d="M80.332 202.45L73.23 179.6M84.996 198.492l-5.68-18.273M103.668 207.723l-23.336-5.274M73.23 179.602l16.235-17.57M89.465 162.03l23.336 5.275M90.56 168.05l18.667 4.22M112.8 167.305l7.102 22.843M112.8 167.305l16.235-17.575M119.902 190.148l-16.234 17.575M114.145 188.086l-12.99 14.06M129.035 149.73L126.7 138" stroke-width="1.2" stroke="#000" stroke-miterlimit="10" fill="none"/><path d="M126.7 138l-2.337-11.73" stroke-width="1.2" stroke="#00f" stroke-miterlimit="10" fill="none"/><path d="M152.793 152.54l-23.758-2.81M151.078 146.668l-19.008-2.246" stroke-width="1.2" stroke="#000" stroke-miterlimit="10" fill="none"/><path d="M124.363 126.27l10.434-5.848" stroke-width="1.2" stroke="#00f" stroke-miterlimit="10" fill="none"/><path d="M134.797 120.422l10.433-5.848" stroke-width="1.2" stroke="#000" stroke-miterlimit="10" fill="none"/><path d="M124.363 126.27l-10.867-5.004" stroke-width="1.2" stroke="#00f" stroke-miterlimit="10" fill="none"/><path d="M113.496 121.266l-10.863-5.008" stroke-width="1.2" stroke="#000" stroke-miterlimit="10" fill="none"/><path d="M121.363 120.77h7v11h-7zm0 0" fill="#fff"/><use xlink:href="#c" x="121.363" y="129.433" fill="#00f"/><path d="M145.23 114.574l2.805-23.758M145.23 114.574l17.575 16.235M143.168 120.332l14.06 12.988M162.805 130.81l-10.012 21.73M162.805 130.81l23.46-4.673M186.266 126.137l15.78 17.98M202.047 144.117l11.73-2.336" stroke-width="1.2" stroke="#000" stroke-miterlimit="10" fill="none"/><path d="M213.777 141.78l11.73-2.335" stroke-width="1.2" stroke="#f00" stroke-miterlimit="10" fill="none"/><path d="M199.38 143.215l-3.84 11.328" stroke-width="1.2" stroke="#000" stroke-miterlimit="10" fill="none"/><path d="M195.54 154.543l-3.845 11.328" stroke-width="1.2" stroke="#f00" stroke-miterlimit="10" fill="none"/><path d="M204.71 145.02l-3.843 11.328" stroke-width="1.2" stroke="#000" stroke-miterlimit="10" fill="none"/><path d="M200.867 156.348l-3.84 11.328M225.508 139.445l7.89 8.99" stroke-width="1.2" stroke="#f00" stroke-miterlimit="10" fill="none"/><path d="M233.398 148.434l7.89 8.992" stroke-width="1.2" stroke="#000" stroke-miterlimit="10" fill="none"/><path d="M221.508 133.945h8v11h-8zm0 0" fill="#fff"/><use xlink:href="#b" x="221.508" y="142.608" fill="#f00"/><path d="M241.29 157.426l23.46-4.672M241.29 157.426l-7.688 22.656" stroke-width="1.2" stroke="#000" stroke-miterlimit="10" fill="none"/><path d="M186.363 161.273h8v11h-8zm0 0" fill="#fff"/><use xlink:href="#b" x="186.363" y="169.937" fill="#f00"/><path d="M102.633 116.258l-2.195-23.82M96.81 114.395l-1.76-19.06M83.098 130.07l19.535-13.812M100.438 92.438l-21.73-10.012M78.707 82.426l-19.53 13.812M80.004 88.402L64.38 99.452M59.176 96.238L48.31 91.234" stroke-width="1.2" stroke="#000" stroke-miterlimit="10" fill="none"/><path d="M48.31 91.234L37.444 86.23" stroke-width="1.2" stroke="#f00" stroke-miterlimit="10" fill="none"/><path d="M59.176 96.238l2.195 23.825" stroke-width="1.2" stroke="#000" stroke-miterlimit="10" fill="none"/><path d="M37.445 86.23l-1.097-11.914" stroke-width="1.2" stroke="#f00" stroke-miterlimit="10" fill="none"/><path d="M36.348 74.316l-1.098-11.91" stroke-width="1.2" stroke="#000" stroke-miterlimit="10" fill="none"/><path d="M33.445 80.73h8v11h-8zm0 0" fill="#fff"/><use xlink:href="#b" x="33.445" y="89.394" fill="#f00"/><path d="M61.37 120.063L83.1 130.07M65.898 115.95l17.383 8.007" stroke-width="1.2" stroke="#000" stroke-miterlimit="10" fill="none"/></g></svg>