<svg xmlns="http://www.w3.org/2000/svg" xmlns:xlink="http://www.w3.org/1999/xlink" width="300pt" height="300pt" viewBox="0 0 300 300"><defs><symbol overflow="visible"><path d="M.453 1.594v-7.938h4.5v7.938zm.5-.5h3.5v-6.938h-3.5zm0 0"/></symbol><symbol overflow="visible" id="a"><path d="M3.547-5.953c-.65 0-1.164.242-1.547.72-.375.48-.563 1.13-.563 1.952 0 .835.188 1.49.563 1.967.383.48.898.72 1.547.72.644 0 1.156-.24 1.53-.72.376-.476.564-1.132.564-1.968 0-.822-.187-1.474-.562-1.954-.375-.477-.887-.72-1.53-.72zm0-.734c.914 0 1.648.312 2.203.937.55.617.828 1.438.828 2.47 0 1.042-.277 1.87-.828 2.483-.555.617-1.29.922-2.203.922-.93 0-1.668-.305-2.22-.922C.774-1.41.5-2.237.5-3.28c0-1.033.273-1.853.828-2.47.55-.625 1.29-.938 2.22-.938zm0 0"/></symbol><symbol overflow="visible" id="b"><path d="M.89-6.563H2.08l2.906 5.485v-5.484h.86V0H4.656L1.75-5.484V0H.89zm0 0"/></symbol><symbol overflow="visible" id="c"><path d="M.89-6.563h.876v2.688H5v-2.688h.89V0H5v-3.125H1.766V0H.89zm0 0"/></symbol></defs><g><path fill="#fff" d="M0 0h300v300H0z"/><path d="M83.328 117.305l4.875 1.793" stroke-width="1.2" stroke="#f00" stroke-miterlimit="10" fill="none"/><path d="M88.203 119.098l4.87 1.797M76.902 125.47l3.21-4.083" stroke-width="1.2" stroke="#000" stroke-miterlimit="10" fill="none"/><path d="M80.113 121.387l3.215-4.082" stroke-width="1.2" stroke="#f00" stroke-miterlimit="10" fill="none"/><path d="M79.328 111.805h8v11h-8zm0 0" fill="#fff"/><use xlink:href="#a" x="79.328" y="120.468" fill="#f00"/><path d="M92.676 131.273l2.23-10.308-3.664-.145zm0 0"/><path d="M92.676 131.273l-9.996 2.83M100.12 138.516l-7.444-7.243M82.68 134.102l-2.55 10.07" stroke-width="1.2" stroke="#000" stroke-miterlimit="10" fill="none"/><path d="M82.68 134.102m-1.21-2.747l-.868.58m-.34-3.326l-1.735 1.16m.524-3.907l-2.6 1.742m1.976-3.156l-3.047 2.038" stroke="#000" stroke-miterlimit="10" fill="none"/><path d="M80.13 144.172l7.448 7.242" stroke-width="1.2" stroke="#000" stroke-miterlimit="10" fill="none"/><path d="M80.13 144.172m-2.985.3l.285 1.005m-3.27-.704l.567 2.008m-3.55-1.702l.85 3.008m-2.39-2.852l.996 3.528" stroke="#000" stroke-miterlimit="10" fill="none"/><path d="M87.578 151.414l9.996-2.828M89.242 153.484l7.996-2.26M85.027 161.484l2.55-10.07M97.574 148.586l7.446 7.242M97.574 148.586l2.547-10.07M105.02 155.828l-2.55 10.07M102.395 156.238l-2.04 8.055M102.47 165.898l2.89 4.317" stroke-width="1.2" stroke="#000" stroke-miterlimit="10" fill="none"/><path d="M105.36 170.215l2.886 4.316" stroke-width="1.2" stroke="#f00" stroke-miterlimit="10" fill="none"/><path d="M92.473 168.727l9.996-2.83" stroke-width="1.2" stroke="#000" stroke-miterlimit="10" fill="none"/><path d="M108.246 174.53l-3.21 4.083" stroke-width="1.2" stroke="#f00" stroke-miterlimit="10" fill="none"/><path d="M105.035 178.613l-3.215 4.082" stroke-width="1.2" stroke="#000" stroke-miterlimit="10" fill="none"/><path d="M104.246 169.03h8v11h-8zm0 0" fill="#fff"/><use xlink:href="#a" x="104.246" y="177.694" fill="#f00"/><path d="M101.82 182.695l-4.87-1.793" stroke-width="1.2" stroke="#000" stroke-miterlimit="10" fill="none"/><path d="M96.95 180.902l-4.876-1.797M92.074 179.105l.2-5.187" stroke-width="1.2" stroke="#f00" stroke-miterlimit="10" fill="none"/><path d="M92.273 173.918l.2-5.19" stroke-width="1.2" stroke="#000" stroke-miterlimit="10" fill="none"/><path d="M88.074 173.605h8v11h-8zm0 0" fill="#fff"/><use xlink:href="#a" x="88.074" y="182.269" fill="#f00"/><path d="M92.473 168.727l-7.446-7.243M93.434 166.25l-5.957-5.793" stroke-width="1.2" stroke="#000" stroke-miterlimit="10" fill="none"/><path d="M100.12 138.516m2.985-.3l-.28-1.005m3.265.7l-.567-2.004m3.55 1.703l-.846-3.012m2.39 2.855l-1-3.527" stroke="#000" stroke-miterlimit="10" fill="none"/><path d="M110.117 135.688l3.723 3.62" stroke-width="1.2" stroke="#f00" stroke-miterlimit="10" fill="none"/><path d="M113.84 139.31l3.722 3.624" stroke-width="1.2" stroke="#000" stroke-miterlimit="10" fill="none"/><path d="M106.117 130.188h8v11h-8zm0 0" fill="#fff"/><use xlink:href="#a" x="106.117" y="138.851" fill="#f00"/><path d="M116.38 142.633l-1.275 5.035" stroke-width="1.2" stroke="#000" stroke-miterlimit="10" fill="none"/><path d="M115.105 147.668l-1.277 5.035" stroke-width="1.2" stroke="#f00" stroke-miterlimit="10" fill="none"/><path d="M118.75 143.23l-1.277 5.036" stroke-width="1.2" stroke="#000" stroke-miterlimit="10" fill="none"/><path d="M117.473 148.266L116.2 153.3" stroke-width="1.2" stroke="#f00" stroke-miterlimit="10" fill="none"/><path d="M117.563 142.934l9.996-2.83" stroke-width="1.2" stroke="#000" stroke-miterlimit="10" fill="none"/><path d="M111.016 147.504h8v11h-8zm0 0" fill="#fff"/><use xlink:href="#a" x="111.016" y="156.167" fill="#f00"/><path d="M127.56 140.105l7.448 7.243M135.008 147.348l9.996-2.828M146.188 144.82l1.273-5.035" stroke-width="1.2" stroke="#000" stroke-miterlimit="10" fill="none"/><path d="M147.46 139.785l1.274-5.035" stroke-width="1.2" stroke="#f00" stroke-miterlimit="10" fill="none"/><path d="M143.816 144.22l1.278-5.036" stroke-width="1.2" stroke="#000" stroke-miterlimit="10" fill="none"/><path d="M145.094 139.184l1.273-5.036" stroke-width="1.2" stroke="#f00" stroke-miterlimit="10" fill="none"/><path d="M145.004 144.52l3.723 3.62" stroke-width="1.2" stroke="#000" stroke-miterlimit="10" fill="none"/><path d="M148.727 148.14l3.722 3.622" stroke-width="1.2" stroke="#00f" stroke-miterlimit="10" fill="none"/><path d="M143.55 128.95h8v11h-8zm0 0" fill="#fff"/><use xlink:href="#a" x="143.551" y="137.612" fill="#f00"/><path d="M152.45 151.762l4.995-1.41" stroke-width="1.2" stroke="#00f" stroke-miterlimit="10" fill="none"/><path d="M157.445 150.352l5-1.415" stroke-width="1.2" stroke="#000" stroke-miterlimit="10" fill="none"/><path d="M145.45 146.262h14v11h-14zm0 0" fill="#fff"/><g fill="#00f"><use xlink:href="#b" x="145.449" y="154.925"/><use xlink:href="#c" x="152.427" y="154.925"/></g><path d="M162.445 148.938l7.446 7.242M169.89 156.18l9.997-2.828M179.887 153.352l7.445 7.242M187.332 160.594l5-1.414" stroke-width="1.2" stroke="#000" stroke-miterlimit="10" fill="none"/><path d="M192.332 159.18l4.996-1.41M197.328 157.77l3.723 3.62" stroke-width="1.2" stroke="#00f" stroke-miterlimit="10" fill="none"/><path d="M201.05 161.39l3.723 3.622" stroke-width="1.2" stroke="#000" stroke-miterlimit="10" fill="none"/><path d="M190.328 152.27h14v11h-14zm0 0" fill="#fff"/><g fill="#00f"><use xlink:href="#b" x="190.328" y="160.933"/><use xlink:href="#c" x="197.306" y="160.933"/></g><path d="M203.59 164.71l-1.274 5.036" stroke-width="1.2" stroke="#000" stroke-miterlimit="10" fill="none"/><path d="M202.316 169.746l-1.277 5.035" stroke-width="1.2" stroke="#f00" stroke-miterlimit="10" fill="none"/><path d="M205.96 165.313l-1.276 5.035" stroke-width="1.2" stroke="#000" stroke-miterlimit="10" fill="none"/><path d="M204.684 170.348l-1.274 5.035" stroke-width="1.2" stroke="#f00" stroke-miterlimit="10" fill="none"/><path d="M214.77 162.184m-2.985.3l.285 1.004m-3.27-.7l.567 2.01m-3.55-1.708l.85 3.012m-2.39-2.856l.996 3.527" stroke="#000" stroke-miterlimit="10" fill="none"/><path d="M198.227 169.582h8v11h-8zm0 0" fill="#fff"/><use xlink:href="#a" x="198.227" y="178.245" fill="#f00"/><path d="M214.77 162.184l7.45 7.242M214.77 162.184l2.55-10.07M217.32 152.113l9.996-2.828M217.656 149.48l7.996-2.26M209.875 144.87l7.445 7.243M227.316 149.285l2.55-10.07M229.867 139.215l-7.45-7.242M227.418 140.242l-5.957-5.793M229.867 139.215l9.996-2.824M222.418 131.973l-9.996 2.828M212.422 134.8l-2.547 10.07M214.54 136.406l-2.04 8.06M241.047 136.688l1.273-5.036" stroke-width="1.2" stroke="#000" stroke-miterlimit="10" fill="none"/><path d="M242.32 131.652l1.274-5.035" stroke-width="1.2" stroke="#f00" stroke-miterlimit="10" fill="none"/><path d="M238.676 136.09l1.277-5.035" stroke-width="1.2" stroke="#000" stroke-miterlimit="10" fill="none"/><path d="M239.953 131.055l1.274-5.035" stroke-width="1.2" stroke="#f00" stroke-miterlimit="10" fill="none"/><path d="M239.863 136.39l7.446 7.243" stroke-width="1.2" stroke="#000" stroke-miterlimit="10" fill="none"/><path d="M238.41 120.82h8v11h-8zm0 0" fill="#fff"/><use xlink:href="#a" x="238.41" y="129.483" fill="#f00"/><path d="M247.31 143.633l-2.552 10.07M249.422 145.238l-2.04 8.055M257.305 140.805l-9.996 2.828M244.758 153.703l7.445 7.242M252.203 160.945l9.996-2.828M252.54 158.31l7.995-2.263M262.2 158.117l2.55-10.07M264.75 148.047l-7.445-7.242M262.3 149.074l-5.956-5.793M70.133 146.996l-7.445-7.242M67.684 148.027l-5.957-5.797M67.586 157.066l2.547-10.07M62.688 139.754l-9.997 2.828M52.69 142.582l-3.72-3.62" stroke-width="1.2" stroke="#000" stroke-miterlimit="10" fill="none"/><path d="M48.97 138.96l-3.724-3.62" stroke-width="1.2" stroke="#f00" stroke-miterlimit="10" fill="none"/><path d="M52.69 142.582l-2.545 10.07M54.81 144.188l-2.044 8.058" stroke-width="1.2" stroke="#000" stroke-miterlimit="10" fill="none"/><path d="M45.246 135.34l-5 1.414" stroke-width="1.2" stroke="#f00" stroke-miterlimit="10" fill="none"/><path d="M40.246 136.754l-4.996 1.414" stroke-width="1.2" stroke="#000" stroke-miterlimit="10" fill="none"/><path d="M41.246 129.84h8v11h-8zm0 0" fill="#fff"/><use xlink:href="#a" x="41.246" y="138.503" fill="#f00"/><path d="M50.145 152.652l-5 1.414" stroke-width="1.2" stroke="#000" stroke-miterlimit="10" fill="none"/><path d="M45.145 154.066l-4.997 1.414" stroke-width="1.2" stroke="#f00" stroke-miterlimit="10" fill="none"/><path d="M50.145 152.652l7.445 7.243" stroke-width="1.2" stroke="#000" stroke-miterlimit="10" fill="none"/><path d="M40.148 155.48l-1.277 5.036" stroke-width="1.2" stroke="#f00" stroke-miterlimit="10" fill="none"/><path d="M38.87 160.516L37.6 165.55" stroke-width="1.2" stroke="#000" stroke-miterlimit="10" fill="none"/><path d="M36.148 149.98h8v11h-8zm0 0" fill="#fff"/><use xlink:href="#a" x="36.148" y="158.644" fill="#f00"/><path d="M57.59 159.895l-1.278 5.035" stroke-width="1.2" stroke="#000" stroke-miterlimit="10" fill="none"/><path d="M56.313 164.93l-1.274 5.035" stroke-width="1.2" stroke="#f00" stroke-miterlimit="10" fill="none"/><path d="M57.59 159.895l9.996-2.83M57.922 157.262l8-2.262" stroke-width="1.2" stroke="#000" stroke-miterlimit="10" fill="none"/><path d="M55.04 169.965l3.722 3.62" stroke-width="1.2" stroke="#f00" stroke-miterlimit="10" fill="none"/><path d="M58.762 173.586l3.722 3.62" stroke-width="1.2" stroke="#000" stroke-miterlimit="10" fill="none"/><path d="M51.04 164.465h8v11h-8zm0 0" fill="#fff"/><use xlink:href="#a" x="51.039" y="173.128" fill="#f00"/><path d="M76.95 124.246l-5.192-.2" stroke-width="1.2" stroke="#000" stroke-miterlimit="10" fill="none"/><path d="M71.758 124.047l-5.188-.2" stroke-width="1.2" stroke="#f00" stroke-miterlimit="10" fill="none"/><path d="M76.855 126.688l-5.19-.2" stroke-width="1.2" stroke="#000" stroke-miterlimit="10" fill="none"/><path d="M71.664 126.488l-5.187-.2" stroke-width="1.2" stroke="#f00" stroke-miterlimit="10" fill="none"/><path d="M58.523 119.566h8v11h-8zm0 0" fill="#fff"/><use xlink:href="#a" x="58.523" y="128.229" fill="#f00"/></g></svg>