<svg xmlns="http://www.w3.org/2000/svg" xmlns:xlink="http://www.w3.org/1999/xlink" width="300pt" height="300pt" viewBox="0 0 300 300"><defs><symbol overflow="visible"><path d="M.453 1.594v-7.938h4.5v7.938zm.5-.5h3.5v-6.938h-3.5zm0 0"/></symbol><symbol overflow="visible" id="a"><path d="M3.547-5.953c-.65 0-1.164.242-1.547.72-.375.48-.563 1.13-.563 1.952 0 .835.188 1.49.563 1.967.383.48.898.72 1.547.72.644 0 1.156-.24 1.53-.72.376-.476.564-1.132.564-1.968 0-.822-.187-1.474-.562-1.954-.375-.477-.887-.72-1.53-.72zm0-.734c.914 0 1.648.312 2.203.937.55.617.828 1.438.828 2.47 0 1.042-.277 1.87-.828 2.483-.555.617-1.29.922-2.203.922-.93 0-1.668-.305-2.22-.922C.774-1.41.5-2.237.5-3.28c0-1.033.273-1.853.828-2.47.55-.625 1.29-.938 2.22-.938zm0 0"/></symbol><symbol overflow="visible" id="b"><path d="M.89-6.563h.876v2.688H5v-2.688h.89V0H5v-3.125H1.766V0H.89zm0 0"/></symbol></defs><g><path fill="#fff" d="M0 0h300v300H0z"/><path d="M114.777 138.602l2.133-3.856" stroke-width="1.2" stroke="#f00" stroke-miterlimit="10" fill="none"/><path d="M116.91 134.746l2.133-3.85M105.973 138.758l4.402-.078" stroke-width="1.2" stroke="#000" stroke-miterlimit="10" fill="none"/><path d="M110.375 138.68l4.402-.078" stroke-width="1.2" stroke="#f00" stroke-miterlimit="10" fill="none"/><path d="M110.777 133.102h8v11h-8zm0 0" fill="#fff"/><use xlink:href="#a" x="110.777" y="141.765" fill="#f00"/><path d="M119.043 130.895l8.832 1.398-.055-3.11zm0 0"/><path d="M119.043 130.895l-4.54-7.547M127.848 130.738l2.27 3.774" stroke-width="1.2" stroke="#000" stroke-miterlimit="10" fill="none"/><path d="M130.117 134.512l2.27 3.773" stroke-width="1.2" stroke="#f00" stroke-miterlimit="10" fill="none"/><path d="M125.387 132.785h15v11h-15zm0 0" fill="#fff"/><g fill="#f00"><use xlink:href="#a" x="125.387" y="141.448"/><use xlink:href="#b" x="132.729" y="141.448"/></g><path d="M114.504 123.348m1.887-2.332l-.913-.504m2.8-1.828l-1.824-1.008m3.676-1.28l-2.72-1.505" stroke="#000" stroke-miterlimit="10" fill="none"/><path d="M114.504 123.348l-8.81.16" stroke-width="1.2" stroke="#000" stroke-miterlimit="10" fill="none"/><path d="M111.77 110.145h15v11h-15zm0 0" fill="#fff"/><g fill="#f00"><use xlink:href="#a" x="111.77" y="118.808"/><use xlink:href="#b" x="119.111" y="118.808"/></g><path d="M105.695 123.508l-3.207-8.352-2.664 1.606zm0 0"/><path d="M105.695 123.508l-4.265 7.703" stroke-width="1.2" stroke="#000" stroke-miterlimit="10" fill="none"/><path d="M105.422 108.254l-5.625 6.953 2.72 1.504zm0 0"/><path d="M97.156 110.46h8v11h-8zm0 0" fill="#fff"/><use xlink:href="#a" x="97.156" y="119.124" fill="#f00"/><path d="M105.422 108.254l4.402-.078" stroke-width="1.2" stroke="#000" stroke-miterlimit="10" fill="none"/><path d="M109.824 108.176l4.406-.078" stroke-width="1.2" stroke="#f00" stroke-miterlimit="10" fill="none"/><path d="M100.883 100.707l4.54 7.547" stroke-width="1.2" stroke="#000" stroke-miterlimit="10" fill="none"/><path d="M114.23 108.098l2.133-3.856" stroke-width="1.2" stroke="#f00" stroke-miterlimit="10" fill="none"/><path d="M116.363 104.242l2.133-3.85" stroke-width="1.2" stroke="#000" stroke-miterlimit="10" fill="none"/><path d="M110.23 102.598h8v11h-8zm0 0" fill="#fff"/><use xlink:href="#a" x="110.23" y="111.261" fill="#f00"/><path d="M118.496 100.39l8.832 1.395-.055-3.105zm0 0"/><path d="M118.496 100.39l-4.543-7.546M127.3 100.234l2.134-3.855" stroke-width="1.2" stroke="#000" stroke-miterlimit="10" fill="none"/><path d="M129.434 96.38l2.132-3.853" stroke-width="1.2" stroke="#f00" stroke-miterlimit="10" fill="none"/><path d="M140.37 92.37l-8.83-1.397.054 3.11zm0 0"/><path d="M127.566 87.027h8v11h-8zm0 0" fill="#fff"/><use xlink:href="#a" x="127.566" y="95.69" fill="#f00"/><path d="M140.37 92.37l2.27 3.775" stroke-width="1.2" stroke="#000" stroke-miterlimit="10" fill="none"/><path d="M142.64 96.145l2.274 3.773" stroke-width="1.2" stroke="#f00" stroke-miterlimit="10" fill="none"/><path d="M144.637 84.664l-4.266 7.707" stroke-width="1.2" stroke="#000" stroke-miterlimit="10" fill="none"/><path d="M144.914 99.918l4.402-.082" stroke-width="1.2" stroke="#f00" stroke-miterlimit="10" fill="none"/><path d="M149.316 99.836l4.403-.078" stroke-width="1.2" stroke="#000" stroke-miterlimit="10" fill="none"/><path d="M140.914 94.418h8v11h-8zm0 0" fill="#fff"/><use xlink:href="#a" x="140.914" y="103.081" fill="#f00"/><path d="M153.72 99.758m1.073 2.8l.894-.538m.184 3.34l1.786-1.075m-.73 3.82l2.664-1.6" stroke="#000" stroke-miterlimit="10" fill="none"/><path d="M153.72 99.758l4.264-7.703" stroke-width="1.2" stroke="#000" stroke-miterlimit="10" fill="none"/><path d="M157.984 92.055l8.832 1.394-.054-3.11zm0 0"/><path d="M157.984 92.055l-4.54-7.547" stroke-width="1.2" stroke="#000" stroke-miterlimit="10" fill="none"/><path d="M159.79 86.395h15v11h-15zm0 0" fill="#fff"/><g fill="#f00"><use xlink:href="#a" x="159.789" y="95.058"/><use xlink:href="#b" x="167.131" y="95.058"/></g><path d="M153.445 84.508m1.887-2.332l-.914-.508m2.8-1.824l-1.823-1.012m3.675-1.277l-2.718-1.508" stroke="#000" stroke-miterlimit="10" fill="none"/><path d="M153.445 84.508l-8.808.156" stroke-width="1.2" stroke="#000" stroke-miterlimit="10" fill="none"/><path d="M150.71 71.3h15v11h-15zm0 0" fill="#fff"/><g fill="#f00"><use xlink:href="#a" x="150.711" y="79.964"/><use xlink:href="#b" x="158.053" y="79.964"/></g><path d="M144.637 84.664m-1.075-2.8l-.894.538m-.184-3.34l-1.785 1.075m.73-3.82l-2.664 1.6" stroke="#000" stroke-miterlimit="10" fill="none"/><path d="M125.098 71.617h15v11h-15zm0 0" fill="#fff"/><g fill="#f00"><use xlink:href="#b" x="125.098" y="80.28"/><use xlink:href="#a" x="132.112" y="80.28"/></g><path d="M113.953 92.844m1.89-2.332l-.913-.504m2.8-1.828l-1.824-1.012m3.676-1.277l-2.723-1.503" stroke="#000" stroke-miterlimit="10" fill="none"/><path d="M113.953 92.844l-8.805.16" stroke-width="1.2" stroke="#000" stroke-miterlimit="10" fill="none"/><path d="M111.223 79.637h15v11h-15zm0 0" fill="#fff"/><g fill="#f00"><use xlink:href="#a" x="111.223" y="88.3"/><use xlink:href="#b" x="118.564" y="88.3"/></g><path d="M105.148 93.004l-3.207-8.352-2.663 1.606zm0 0"/><path d="M105.148 93.004l-4.265 7.703" stroke-width="1.2" stroke="#000" stroke-miterlimit="10" fill="none"/><path d="M85.61 79.953h15v11h-15zm0 0" fill="#fff"/><g fill="#f00"><use xlink:href="#b" x="85.609" y="88.616"/><use xlink:href="#a" x="92.624" y="88.616"/></g><path d="M100.883 100.707m-2.965-.47l.02 1.044m-2.98-1.51l.034 2.085m-2.94-2.543l.053 3.106" stroke="#000" stroke-miterlimit="10" fill="none"/><path d="M77.078 95.367h15v11h-15zm0 0" fill="#fff"/><g fill="#f00"><use xlink:href="#b" x="77.078" y="104.03"/><use xlink:href="#a" x="84.093" y="104.03"/></g><path d="M101.43 131.21m-2.96-.468l.018 1.043m-2.984-1.512l.04 2.086m-2.946-2.544l.054 3.106" stroke="#000" stroke-miterlimit="10" fill="none"/><path d="M101.43 131.21l4.543 7.548" stroke-width="1.2" stroke="#000" stroke-miterlimit="10" fill="none"/><path d="M92.625 131.37l-2.27-3.772" stroke-width="1.2" stroke="#f00" stroke-miterlimit="10" fill="none"/><path d="M90.355 127.598l-2.27-3.774" stroke-width="1.2" stroke="#000" stroke-miterlimit="10" fill="none"/><path d="M88.625 125.87h8v11h-8zm0 0" fill="#fff"/><use xlink:href="#a" x="88.625" y="134.534" fill="#f00"/><path d="M88.992 124.324l2.133-3.85" stroke-width="1.2" stroke="#000" stroke-miterlimit="10" fill="none"/><path d="M91.125 120.473l2.133-3.852" stroke-width="1.2" stroke="#f00" stroke-miterlimit="10" fill="none"/><path d="M87.18 123.32l2.132-3.85" stroke-width="1.2" stroke="#000" stroke-miterlimit="10" fill="none"/><path d="M89.313 119.47l2.132-3.853" stroke-width="1.2" stroke="#f00" stroke-miterlimit="10" fill="none"/><path d="M88.086 123.824l-8.81.156" stroke-width="1.2" stroke="#000" stroke-miterlimit="10" fill="none"/><path d="M88.352 110.617h8v11h-8zm0 0" fill="#fff"/><use xlink:href="#a" x="88.352" y="119.28" fill="#f00"/><path d="M79.277 123.98l-4.54-7.546M80.602 122.156l-3.633-6.035M74.738 116.434l-8.804.16M65.934 116.594l-4.266 7.703M63.695 116.36l-3.414 6.163M61.395 109.043l4.54 7.55M61.668 124.297l-8.805.16M52.863 124.457l-2.133 3.852" stroke-width="1.2" stroke="#000" stroke-miterlimit="10" fill="none"/><path d="M50.73 128.31l-2.132 3.85" stroke-width="1.2" stroke="#f00" stroke-miterlimit="10" fill="none"/><path d="M52.863 124.457l-4.543-7.55M54.184 122.633l-3.633-6.04" stroke-width="1.2" stroke="#000" stroke-miterlimit="10" fill="none"/><path d="M33.598 126.66h15v11h-15zm0 0" fill="#fff"/><g fill="#f00"><use xlink:href="#b" x="33.598" y="135.323"/><use xlink:href="#a" x="40.612" y="135.323"/></g><path d="M48.32 116.906l-4.402.082" stroke-width="1.2" stroke="#000" stroke-miterlimit="10" fill="none"/><path d="M43.918 116.988l-4.402.078" stroke-width="1.2" stroke="#f00" stroke-miterlimit="10" fill="none"/><path d="M48.32 116.906l4.266-7.703" stroke-width="1.2" stroke="#000" stroke-miterlimit="10" fill="none"/><path d="M39.516 117.066l-2.133 3.852" stroke-width="1.2" stroke="#f00" stroke-miterlimit="10" fill="none"/><path d="M37.383 120.918l-2.133 3.852" stroke-width="1.2" stroke="#000" stroke-miterlimit="10" fill="none"/><path d="M35.516 111.566h8v11h-8zm0 0" fill="#fff"/><use xlink:href="#a" x="35.516" y="120.229" fill="#f00"/><path d="M52.586 109.203l8.81-.16M53.504 111.258l7.047-.125" stroke-width="1.2" stroke="#000" stroke-miterlimit="10" fill="none"/><path d="M105.973 138.758l-5.63 6.953 2.723 1.505zm0 0"/><path d="M92.898 146.62m2.965.47l-.02-1.043m2.98 1.512l-.034-2.087m2.944 2.547l-.058-3.11" stroke="#000" stroke-miterlimit="10" fill="none"/><path d="M97.703 140.965h8v11h-8zm0 0" fill="#fff"/><use xlink:href="#a" x="97.703" y="149.628" fill="#f00"/><path d="M92.898 146.62l-4.54-7.546M88.633 154.328l4.265-7.707" stroke-width="1.2" stroke="#000" stroke-miterlimit="10" fill="none"/><path d="M88.36 139.074l2.71-4.12-3.004-.802zm0 0"/><path d="M88.36 139.074l-8.805.16" stroke-width="1.2" stroke="#000" stroke-miterlimit="10" fill="none"/><path d="M82.566 129.055h15v11h-15zm0 0" fill="#fff"/><g fill="#f00"><use xlink:href="#a" x="82.566" y="137.718"/><use xlink:href="#b" x="89.908" y="137.718"/></g><path d="M79.555 139.234m-1.078-2.8l-.895.535m-.18-3.337l-1.79 1.074m.732-3.824l-2.664 1.605" stroke="#000" stroke-miterlimit="10" fill="none"/><path d="M79.555 139.234l-4.266 7.703" stroke-width="1.2" stroke="#000" stroke-miterlimit="10" fill="none"/><path d="M60.012 126.188h15v11h-15zm0 0" fill="#fff"/><g fill="#f00"><use xlink:href="#b" x="60.012" y="134.851"/><use xlink:href="#a" x="67.026" y="134.851"/></g><path d="M75.29 146.938l2.27 3.773" stroke-width="1.2" stroke="#000" stroke-miterlimit="10" fill="none"/><path d="M77.56 150.71l2.268 3.774" stroke-width="1.2" stroke="#f00" stroke-miterlimit="10" fill="none"/><path d="M75.29 146.938l-8.837-1.395.055 3.105zm0 0"/><path d="M79.828 154.484l4.402-.078" stroke-width="1.2" stroke="#f00" stroke-miterlimit="10" fill="none"/><path d="M84.23 154.406l4.403-.078" stroke-width="1.2" stroke="#000" stroke-miterlimit="10" fill="none"/><path d="M75.828 148.984h8v11h-8zm0 0" fill="#fff"/><use xlink:href="#a" x="75.828" y="157.647" fill="#f00"/><path d="M88.633 154.328l3.207 8.348 2.664-1.602zm0 0"/><path d="M93.172 161.875l-2.133 3.852" stroke-width="1.2" stroke="#000" stroke-miterlimit="10" fill="none"/><path d="M91.04 165.727l-2.134 3.85" stroke-width="1.2" stroke="#f00" stroke-miterlimit="10" fill="none"/><path d="M73.906 164.078h15v11h-15zm0 0" fill="#fff"/><g fill="#f00"><use xlink:href="#b" x="73.906" y="172.741"/><use xlink:href="#a" x="80.921" y="172.741"/></g><path d="M62.215 154.8l5.625-6.952-2.72-1.504zm0 0"/><path d="M62.48 141.598h8v11h-8zm0 0" fill="#fff"/><use xlink:href="#a" x="62.48" y="150.261" fill="#f00"/><path d="M62.215 154.8l-8.805.16M66.754 162.348l-4.54-7.547M53.41 154.96l-2.133 3.852" stroke-width="1.2" stroke="#000" stroke-miterlimit="10" fill="none"/><path d="M51.277 158.813l-2.132 3.85M49.145 162.664l2.27 3.774" stroke-width="1.2" stroke="#f00" stroke-miterlimit="10" fill="none"/><path d="M51.414 166.438l2.27 3.773" stroke-width="1.2" stroke="#000" stroke-miterlimit="10" fill="none"/><path d="M45.145 157.164h8v11h-8zm0 0" fill="#fff"/><use xlink:href="#a" x="45.145" y="165.827" fill="#f00"/><path d="M53.684 170.21m-1.887 2.333l.91.508m-2.797 1.825l1.824 1.012m-3.675 1.277l2.717 1.504" stroke="#000" stroke-miterlimit="10" fill="none"/><path d="M53.684 170.21l8.804-.155" stroke-width="1.2" stroke="#000" stroke-miterlimit="10" fill="none"/><path d="M53.957 185.465l-3.207-8.348-2.664 1.602zm0 0"/><path d="M45.418 172.418h8v11h-8zm0 0" fill="#fff"/><use xlink:href="#a" x="45.418" y="181.081" fill="#f00"/><path d="M53.957 185.465l-4.266 7.703M62.762 185.305l-8.805.16" stroke-width="1.2" stroke="#000" stroke-miterlimit="10" fill="none"/><path d="M49.69 193.168m-2.963-.47l.02 1.044m-2.98-1.508l.034 2.082m-2.94-2.543l.054 3.11" stroke="#000" stroke-miterlimit="10" fill="none"/><path d="M49.69 193.168l4.54 7.547" stroke-width="1.2" stroke="#000" stroke-miterlimit="10" fill="none"/><path d="M25.887 187.828h15v11h-15zm0 0" fill="#fff"/><g fill="#f00"><use xlink:href="#b" x="25.887" y="196.491"/><use xlink:href="#a" x="32.901" y="196.491"/></g><path d="M54.23 200.715l4.403-.078" stroke-width="1.2" stroke="#000" stroke-miterlimit="10" fill="none"/><path d="M58.633 200.637l4.402-.078" stroke-width="1.2" stroke="#f00" stroke-miterlimit="10" fill="none"/><path d="M54.23 200.715l-5.625 6.953 2.72 1.508zm0 0"/><path d="M63.035 200.56l2.137-3.853" stroke-width="1.2" stroke="#f00" stroke-miterlimit="10" fill="none"/><path d="M65.172 196.707l2.133-3.855" stroke-width="1.2" stroke="#000" stroke-miterlimit="10" fill="none"/><path d="M59.035 195.06h8v11h-8zm0 0" fill="#fff"/><use xlink:href="#a" x="59.035" y="203.722" fill="#f00"/><path d="M67.305 192.852m2.96.468l-.02-1.043m2.985 1.512l-.04-2.087m2.947 2.547l-.055-3.11" stroke="#000" stroke-miterlimit="10" fill="none"/><path d="M67.305 192.852l-4.543-7.547" stroke-width="1.2" stroke="#000" stroke-miterlimit="10" fill="none"/><path d="M80.648 200.242l-3.207-8.347-2.663 1.6zm0 0"/><path d="M72.11 187.195h8v11h-8zm0 0" fill="#fff"/><use xlink:href="#a" x="72.109" y="195.858" fill="#f00"/><path d="M80.648 200.242l-4.265 7.703M89.453 200.082l-8.805.16" stroke-width="1.2" stroke="#000" stroke-miterlimit="10" fill="none"/><path d="M76.383 207.945m-2.965-.465l.02 1.04m-2.98-1.508l.034 2.082m-2.94-2.543l.053 3.11" stroke="#000" stroke-miterlimit="10" fill="none"/><path d="M76.383 207.945l4.54 7.547" stroke-width="1.2" stroke="#000" stroke-miterlimit="10" fill="none"/><path d="M52.578 202.605h15v11h-15zm0 0" fill="#fff"/><g fill="#f00"><use xlink:href="#b" x="52.578" y="211.269"/><use xlink:href="#a" x="59.593" y="211.269"/></g><path d="M80.922 215.492m-1.887 2.332l.914.508m-2.802 1.824l1.825 1.012m-3.676 1.277l2.72 1.508" stroke="#000" stroke-miterlimit="10" fill="none"/><path d="M80.922 215.492l8.805-.156" stroke-width="1.2" stroke="#000" stroke-miterlimit="10" fill="none"/><path d="M61.656 217.7h15v11h-15zm0 0" fill="#fff"/><g fill="#f00"><use xlink:href="#b" x="61.656" y="226.362"/><use xlink:href="#a" x="68.671" y="226.362"/></g><path d="M89.727 215.336l2.136-3.852" stroke-width="1.2" stroke="#000" stroke-miterlimit="10" fill="none"/><path d="M91.863 211.484l2.133-3.855M93.996 207.63l-2.273-3.775" stroke-width="1.2" stroke="#f00" stroke-miterlimit="10" fill="none"/><path d="M91.723 203.855l-2.27-3.773" stroke-width="1.2" stroke="#000" stroke-miterlimit="10" fill="none"/><path d="M89.996 202.13h8v11h-8zm0 0" fill="#fff"/><use xlink:href="#a" x="89.996" y="210.792" fill="#f00"/><path d="M89.453 200.082m1.887-2.332l-.91-.504m2.8-1.828l-1.824-1.008m3.676-1.277l-2.723-1.508M102.527 192.22m-2.965-.466l.02 1.04m-2.98-1.51l.035 2.083m-2.946-2.543l.06 3.11" stroke="#000" stroke-miterlimit="10" fill="none"/><path d="M89.72 186.88h8v11h-8zm0 0" fill="#fff"/><use xlink:href="#a" x="89.719" y="195.542" fill="#f00"/><path d="M102.527 192.22l4.54 7.546M106.793 184.516l-4.266 7.703M107.066 199.766l8.805-.157M115.87 199.61l4.267-7.708M120.137 191.902l-4.54-7.547" stroke-width="1.2" stroke="#000" stroke-miterlimit="10" fill="none"/><path d="M120.137 191.902m1.078 2.8l.894-.534m.18 3.336l1.788-1.074m-.73 3.824l2.664-1.606" stroke="#000" stroke-miterlimit="10" fill="none"/><path d="M128.945 191.746l-8.808.156" stroke-width="1.2" stroke="#000" stroke-miterlimit="10" fill="none"/><path d="M115.598 184.355m1.886-2.332l-.91-.503m2.797-1.83l-1.823-1.006m3.676-1.278l-2.72-1.508" stroke="#000" stroke-miterlimit="10" fill="none"/><path d="M115.598 184.355l-8.805.16M119.863 176.652l8.81-.16M128.672 176.492l4.54 7.547M133.21 184.04l-4.265 7.706" stroke-width="1.2" stroke="#000" stroke-miterlimit="10" fill="none"/><path d="M133.21 184.04m1.587-2.544l-.965-.39m2.555-2.153l-1.934-.78m3.492-1.72l-2.882-1.16" stroke="#000" stroke-miterlimit="10" fill="none"/><path d="M142.016 183.883l-8.805.156" stroke-width="1.2" stroke="#000" stroke-miterlimit="10" fill="none"/><path d="M128.945 191.746m1.075 2.8l.894-.538m.184 3.34l1.785-1.075m-.73 3.82l2.663-1.6" stroke="#000" stroke-miterlimit="10" fill="none"/><path d="M133.484 199.293l8.805-.16M142.29 199.133l4.265-7.703M140.902 197.36l3.414-6.165" stroke-width="1.2" stroke="#000" stroke-miterlimit="10" fill="none"/><path d="M155.363 191.27l-8.836-1.395.055 3.11zm0 0"/><path d="M142.016 183.883l4.54 7.547M155.363 191.27l4.54 7.55M159.63 183.566l-4.267 7.704M159.902 198.82l8.805-.16M168.707 198.66l4.266-7.703M168.707 198.66l8.328 2.863M168.707 198.66l-1.375 8.7M172.973 190.957l-4.54-7.55M168.434 183.406l-8.805.16M159.63 183.566l-4.544-7.546" stroke-width="1.2" stroke="#000" stroke-miterlimit="10" fill="none"/><path d="M159.63 183.566m1.886-2.332l-.914-.504m2.8-1.828l-1.824-1.01m3.676-1.28l-2.72-1.503" stroke="#000" stroke-miterlimit="10" fill="none"/><path d="M155.086 176.02l-8.805.156M146.28 176.176l-4.264 7.707" stroke-width="1.2" stroke="#000" stroke-miterlimit="10" fill="none"/><path d="M142.016 183.883l-2.168-8.676-2.836 1.266zm0 0"/><path d="M163.895 175.86l4.402-.08" stroke-width="1.2" stroke="#000" stroke-miterlimit="10" fill="none"/><path d="M168.297 175.78l4.402-.077" stroke-width="1.2" stroke="#f00" stroke-miterlimit="10" fill="none"/><path d="M164.78 175.328l-2.268-3.773" stroke-width="1.2" stroke="#000" stroke-miterlimit="10" fill="none"/><path d="M162.512 171.555l-2.27-3.774" stroke-width="1.2" stroke="#f00" stroke-miterlimit="10" fill="none"/><path d="M163.004 176.395l-2.27-3.774" stroke-width="1.2" stroke="#000" stroke-miterlimit="10" fill="none"/><path d="M160.734 172.62l-2.27-3.772" stroke-width="1.2" stroke="#f00" stroke-miterlimit="10" fill="none"/><path d="M176.965 167.996l-5.625 6.953 2.72 1.507zm0 0"/><path d="M168.7 170.203h8v11h-8zm0 0" fill="#fff"/><use xlink:href="#a" x="168.699" y="178.866" fill="#f00"/><path d="M176.965 167.996l4.402-.078" stroke-width="1.2" stroke="#000" stroke-miterlimit="10" fill="none"/><path d="M181.367 167.918l4.403-.078" stroke-width="1.2" stroke="#f00" stroke-miterlimit="10" fill="none"/><path d="M172.426 160.45l4.54 7.546" stroke-width="1.2" stroke="#000" stroke-miterlimit="10" fill="none"/><path d="M185.77 167.84l2.132-3.852" stroke-width="1.2" stroke="#f00" stroke-miterlimit="10" fill="none"/><path d="M187.902 163.988l2.137-3.855" stroke-width="1.2" stroke="#000" stroke-miterlimit="10" fill="none"/><path d="M181.77 162.34h8v11h-8zm0 0" fill="#fff"/><use xlink:href="#a" x="181.77" y="171.003" fill="#f00"/><path d="M190.04 160.133l8.83 1.398-.054-3.108zm0 0"/><path d="M190.04 160.133l-4.544-7.547M198.844 159.977l2.27 3.773" stroke-width="1.2" stroke="#000" stroke-miterlimit="10" fill="none"/><path d="M201.113 163.75l2.27 3.773" stroke-width="1.2" stroke="#f00" stroke-miterlimit="10" fill="none"/><path d="M212.188 167.367l-8.833-1.398.055 3.108zm0 0"/><path d="M199.383 162.023h8v11h-8zm0 0" fill="#fff"/><use xlink:href="#a" x="199.383" y="170.687" fill="#f00"/><path d="M212.188 167.367l2.27 3.774" stroke-width="1.2" stroke="#000" stroke-miterlimit="10" fill="none"/><path d="M214.457 171.14l2.273 3.774" stroke-width="1.2" stroke="#f00" stroke-miterlimit="10" fill="none"/><path d="M216.453 159.66l-4.266 7.707" stroke-width="1.2" stroke="#000" stroke-miterlimit="10" fill="none"/><path d="M216.73 174.914l4.403-.082" stroke-width="1.2" stroke="#f00" stroke-miterlimit="10" fill="none"/><path d="M221.133 174.832l4.402-.078" stroke-width="1.2" stroke="#000" stroke-miterlimit="10" fill="none"/><path d="M212.73 169.414h8v11h-8zm0 0" fill="#fff"/><use xlink:href="#a" x="212.73" y="178.077" fill="#f00"/><path d="M225.535 174.754l3.207 8.348 2.664-1.602zm0 0"/><path d="M225.535 174.754l4.266-7.703M230.074 182.3l-2.133 3.852" stroke-width="1.2" stroke="#000" stroke-miterlimit="10" fill="none"/><path d="M227.94 186.152l-2.13 3.856" stroke-width="1.2" stroke="#f00" stroke-miterlimit="10" fill="none"/><path d="M210.81 184.508h15v11h-15zm0 0" fill="#fff"/><g fill="#f00"><use xlink:href="#b" x="210.809" y="193.171"/><use xlink:href="#a" x="217.823" y="193.171"/></g><path d="M229.8 167.05m2.966.466l-.02-1.04m2.98 1.508l-.035-2.082m2.943 2.543l-.055-3.11" stroke="#000" stroke-miterlimit="10" fill="none"/><path d="M229.8 167.05l-4.538-7.546" stroke-width="1.2" stroke="#000" stroke-miterlimit="10" fill="none"/><path d="M242.87 159.188l-5.624 6.95 2.72 1.507zm0 0"/><path d="M234.605 161.39h8v11h-8zm0 0" fill="#fff"/><use xlink:href="#a" x="234.605" y="170.054" fill="#f00"/><path d="M242.87 159.188l4.403-.083" stroke-width="1.2" stroke="#000" stroke-miterlimit="10" fill="none"/><path d="M247.273 159.105l4.407-.078" stroke-width="1.2" stroke="#f00" stroke-miterlimit="10" fill="none"/><path d="M238.332 151.64l4.54 7.548" stroke-width="1.2" stroke="#000" stroke-miterlimit="10" fill="none"/><path d="M251.68 159.027l2.132-3.85" stroke-width="1.2" stroke="#f00" stroke-miterlimit="10" fill="none"/><path d="M253.813 155.176l2.132-3.852" stroke-width="1.2" stroke="#000" stroke-miterlimit="10" fill="none"/><path d="M247.68 153.527h8v11h-8zm0 0" fill="#fff"/><use xlink:href="#a" x="247.68" y="162.19" fill="#f00"/><path d="M255.945 151.324m2.96.465l-.018-1.04m2.984 1.508l-.038-2.082m2.945 2.543l-.054-3.11" stroke="#000" stroke-miterlimit="10" fill="none"/><path d="M255.945 151.324l-4.543-7.547" stroke-width="1.2" stroke="#000" stroke-miterlimit="10" fill="none"/><path d="M251.402 143.777l5.63-6.953-2.723-1.508zm0 0"/><path d="M251.402 143.777l-8.804.157" stroke-width="1.2" stroke="#000" stroke-miterlimit="10" fill="none"/><path d="M248.672 130.57h15v11h-15zm0 0" fill="#fff"/><g fill="#f00"><use xlink:href="#a" x="248.672" y="139.233"/><use xlink:href="#b" x="256.014" y="139.233"/></g><path d="M242.598 143.934m-1.075-2.8l-.894.538m-.185-3.34l-1.785 1.074m.73-3.82l-2.663 1.6" stroke="#000" stroke-miterlimit="10" fill="none"/><path d="M242.598 143.934l-4.266 7.707" stroke-width="1.2" stroke="#000" stroke-miterlimit="10" fill="none"/><path d="M223.06 130.887h15v11h-15zm0 0" fill="#fff"/><g fill="#f00"><use xlink:href="#b" x="223.059" y="139.55"/><use xlink:href="#a" x="230.073" y="139.55"/></g><path d="M238.332 151.64m-2.883-.827l-.11 1.04m-2.778-1.865l-.214 2.075m-2.614-2.887l-.324 3.094" stroke="#000" stroke-miterlimit="10" fill="none"/><path d="M214.574 145.223h15v11h-15zm0 0" fill="#fff"/><g fill="#f00"><use xlink:href="#b" x="214.574" y="153.886"/><use xlink:href="#a" x="221.589" y="153.886"/></g><path d="M225.262 159.504l4.734-7.59-2.883-1.16zm0 0"/><path d="M225.262 159.504l-8.81.156" stroke-width="1.2" stroke="#000" stroke-miterlimit="10" fill="none"/><path d="M221.555 145.836h15v11h-15zm0 0" fill="#fff"/><g fill="#f00"><use xlink:href="#a" x="221.555" y="154.499"/><use xlink:href="#b" x="228.896" y="154.499"/></g><path d="M216.453 159.66m-1.074-2.8l-.896.538m-.183-3.34l-1.784 1.075m.73-3.82l-2.664 1.6" stroke="#000" stroke-miterlimit="10" fill="none"/><path d="M196.914 146.613h15v11h-15zm0 0" fill="#fff"/><g fill="#f00"><use xlink:href="#b" x="196.914" y="155.276"/><use xlink:href="#a" x="203.929" y="155.276"/></g><path d="M185.496 152.586m1.887-2.332l-.91-.504m2.8-1.828l-1.828-1.008m3.676-1.277l-2.718-1.508" stroke="#000" stroke-miterlimit="10" fill="none"/><path d="M185.496 152.586l-8.805.16" stroke-width="1.2" stroke="#000" stroke-miterlimit="10" fill="none"/><path d="M182.762 139.383h15v11h-15zm0 0" fill="#fff"/><g fill="#f00"><use xlink:href="#a" x="182.762" y="148.046"/><use xlink:href="#b" x="190.104" y="148.046"/></g><path d="M176.69 152.746l-3.206-8.348L170.82 146zm0 0"/><path d="M176.69 152.746l-4.264 7.703" stroke-width="1.2" stroke="#000" stroke-miterlimit="10" fill="none"/><path d="M157.152 139.7h15v11h-15zm0 0" fill="#fff"/><g fill="#f00"><use xlink:href="#b" x="157.152" y="148.362"/><use xlink:href="#a" x="164.167" y="148.362"/></g><path d="M172.426 160.45m-2.965-.466l.02 1.04m-2.98-1.508l.035 2.082m-2.945-2.543l.058 3.11" stroke="#000" stroke-miterlimit="10" fill="none"/><path d="M148.62 155.11h15v11h-15zm0 0" fill="#fff"/><g fill="#f00"><use xlink:href="#b" x="148.621" y="163.772"/><use xlink:href="#a" x="155.636" y="163.772"/></g><path d="M151.355 162.813h8v11h-8zm0 0" fill="#fff"/><use xlink:href="#a" x="151.355" y="171.476" fill="#f00"/><path d="M106.793 184.516l-8.328-2.864M106.793 184.516l1.37-8.7" stroke-width="1.2" stroke="#000" stroke-miterlimit="10" fill="none"/><path d="M62.762 185.305l6.433-6.215-2.515-1.824zm0 0"/><path d="M60.938 172.68h15v11h-15zm0 0" fill="#fff"/><g fill="#f00"><use xlink:href="#a" x="60.938" y="181.343"/><use xlink:href="#b" x="68.279" y="181.343"/></g><path d="M62.488 170.055l4.203 7.894 2.45-1.915zm0 0"/><path d="M62.488 170.055l4.266-7.707" stroke-width="1.2" stroke="#000" stroke-miterlimit="10" fill="none"/><path d="M60.914 171.492h15v11h-15zm0 0" fill="#fff"/><g fill="#f00"><use xlink:href="#a" x="60.914" y="180.155"/><use xlink:href="#b" x="68.256" y="180.155"/></g><path d="M66.754 162.348l8.836 1.398-.06-3.11zm0 0"/><path d="M68.563 156.69h15v11h-15zm0 0" fill="#fff"/><g fill="#f00"><use xlink:href="#a" x="68.563" y="165.354"/><use xlink:href="#b" x="75.904" y="165.354"/></g><path d="M134.43 171.84h8v8h-8zm0 0M225.574 146.723h8v8h-8zm0 0M63.938 174.18h8v8h-8zm0 0" stroke-width="1.2" stroke="#f00" stroke-miterlimit="10" fill="none"/></g></svg>