<svg xmlns="http://www.w3.org/2000/svg" xmlns:xlink="http://www.w3.org/1999/xlink" width="300pt" height="300pt" viewBox="0 0 300 300"><defs><symbol overflow="visible"><path d="M.453 1.594v-7.938h4.5v7.938zm.5-.5h3.5v-6.938h-3.5zm0 0"/></symbol><symbol overflow="visible" id="a"><path d="M4.813-6.344v.86c-.336-.157-.653-.27-.954-.344-.294-.082-.58-.125-.86-.125-.492 0-.867.094-1.125.28-.262.19-.39.454-.39.798 0 .293.085.512.265.656.176.15.504.267.984.36l.547.11c.658.125 1.142.352 1.454.672.32.312.485.734.485 1.265 0 .637-.216 1.122-.642 1.454-.43.325-1.055.485-1.875.485-.312 0-.648-.04-1-.11C1.36-.046 1-.147.625-.296v-.906c.352.2.703.35 1.047.453.35.105.695.156 1.03.156.5 0 .884-.097 1.157-.297.28-.196.42-.485.42-.86 0-.32-.1-.57-.296-.75-.2-.176-.523-.313-.968-.406l-.547-.11C1.81-3.148 1.33-3.36 1.03-3.64.74-3.923.595-4.313.595-4.813c0-.57.203-1.024.61-1.36.405-.344.968-.516 1.687-.516.313 0 .626.032.938.094.32.055.65.137.985.25zm0 0"/></symbol><symbol overflow="visible" id="b"><path d="M3.547-5.953c-.65 0-1.164.242-1.547.72-.375.48-.563 1.13-.563 1.952 0 .835.188 1.49.563 1.967.383.48.898.72 1.547.72.644 0 1.156-.24 1.53-.72.376-.476.564-1.132.564-1.968 0-.822-.187-1.474-.562-1.954-.375-.477-.887-.72-1.53-.72zm0-.734c.914 0 1.648.312 2.203.937.55.617.828 1.438.828 2.47 0 1.042-.277 1.87-.828 2.483-.555.617-1.29.922-2.203.922-.93 0-1.668-.305-2.22-.922C.774-1.41.5-2.237.5-3.28c0-1.033.273-1.853.828-2.47.55-.625 1.29-.938 2.22-.938zm0 0"/></symbol><symbol overflow="visible" id="c"><path d="M.89-6.563H2.08l2.906 5.485v-5.484h.86V0H4.656L1.75-5.484V0H.89zm0 0"/></symbol><symbol overflow="visible" id="f"><path d="M.89-6.563h3.766v.75h-2.89v1.938h2.61v.734h-2.61V0H.89zm0 0"/></symbol><symbol overflow="visible"><path d="M.406 1.422V-5.64h4V1.42zM.844.97h3.11v-6.157H.843zm0 0"/></symbol><symbol overflow="visible" id="d"><path d="M3.688-5.016v2.172h2.17v.672H3.69V0H3.03v-2.172H.845v-.672H3.03v-2.172zm0 0"/></symbol><symbol overflow="visible" id="e"><path d="M.39-2.516H2.5v.64H.39zm0 0"/></symbol></defs><g><path fill="#fff" d="M0 0h300v300H0z"/><path d="M151.45 209.238l8.14-6.113" stroke-width="1.2" stroke="#cc0" stroke-miterlimit="10" fill="none"/><path d="M159.59 203.125l8.137-6.11" stroke-width="1.2" stroke="#f00" stroke-miterlimit="10" fill="none"/><path d="M148.574 205.41l8.137-6.113" stroke-width="1.2" stroke="#cc0" stroke-miterlimit="10" fill="none"/><path d="M156.71 199.297l8.142-6.113" stroke-width="1.2" stroke="#f00" stroke-miterlimit="10" fill="none"/><path d="M148.574 205.41l-8.137 6.113" stroke-width="1.2" stroke="#cc0" stroke-miterlimit="10" fill="none"/><path d="M140.438 211.523l-8.14 6.11" stroke-width="1.2" stroke="#f00" stroke-miterlimit="10" fill="none"/><path d="M151.45 209.238l-8.137 6.114" stroke-width="1.2" stroke="#cc0" stroke-miterlimit="10" fill="none"/><path d="M143.313 215.352l-8.137 6.113" stroke-width="1.2" stroke="#f00" stroke-miterlimit="10" fill="none"/><path d="M150.012 207.324l6.113 8.137" stroke-width="1.2" stroke="#cc0" stroke-miterlimit="10" fill="none"/><path d="M156.125 215.46l6.113 8.142" stroke-width="1.2" stroke="#000" stroke-miterlimit="10" fill="none"/><path d="M150.012 207.324l-6.114-8.137" stroke-width="1.2" stroke="#cc0" stroke-miterlimit="10" fill="none"/><path d="M143.898 199.188l-6.11-8.14" stroke-width="1.2" stroke="#000" stroke-miterlimit="10" fill="none"/><path d="M147.012 201.824h6v11h-6zm0 0" fill="#fff"/><use xlink:href="#a" x="147.012" y="210.487" fill="#cc0"/><path d="M162.29 189.602h8v11h-8zm0 0" fill="#fff"/><use xlink:href="#b" x="162.289" y="198.265" fill="#f00"/><path d="M125.734 214.047h8v11h-8zm0 0" fill="#fff"/><use xlink:href="#b" x="125.734" y="222.71" fill="#f00"/><path d="M137.79 191.047l-20.212 2.45M135.19 186.54l-16.167 1.956M145.77 172.324l-7.98 18.723M117.578 193.496l-12.223-16.277M105.355 177.22l7.985-18.724M110.56 177.227l6.385-14.98M113.34 158.496l-6.113-8.14" stroke-width="1.2" stroke="#000" stroke-miterlimit="10" fill="none"/><path d="M107.227 150.355l-6.114-8.136" stroke-width="1.2" stroke="#00f" stroke-miterlimit="10" fill="none"/><path d="M113.34 158.496l20.207-2.45" stroke-width="1.2" stroke="#000" stroke-miterlimit="10" fill="none"/><path d="M101.113 142.22l-20.35.32" stroke-width="1.2" stroke="#00f" stroke-miterlimit="10" fill="none"/><path d="M107.098 122.762l-2.993 9.726" stroke-width="1.2" stroke="#000" stroke-miterlimit="10" fill="none"/><path d="M104.105 132.488l-2.992 9.73" stroke-width="1.2" stroke="#00f" stroke-miterlimit="10" fill="none"/><path d="M98.113 136.72h7v11h-7zm0 0" fill="#fff"/><use xlink:href="#c" x="98.113" y="145.382" fill="#00f"/><path d="M80.762 142.54l-3.3-9.626" stroke-width="1.2" stroke="#00f" stroke-miterlimit="10" fill="none"/><path d="M77.46 132.914l-3.296-9.63" stroke-width="1.2" stroke="#000" stroke-miterlimit="10" fill="none"/><path d="M84.633 139.063l-2.64-7.704" stroke-width="1.2" stroke="#00f" stroke-miterlimit="10" fill="none"/><path d="M81.992 131.36l-2.637-7.704" stroke-width="1.2" stroke="#000" stroke-miterlimit="10" fill="none"/><path d="M77.762 137.04h7v11h-7zm0 0" fill="#fff"/><use xlink:href="#c" x="77.762" y="145.702" fill="#00f"/><path d="M74.164 123.285L90.44 111.06M74.164 123.285L54.707 117.3M90.44 111.06L107.1 122.76M89.352 116.148l13.324 9.364M107.098 122.762l19.257-6.598M126.355 116.164l15.34 13.38M131.035 113.895l12.274 10.703M130.27 96.188l-3.915 19.976M141.695 129.543l19.258-6.594M160.953 122.95l3.914-19.977M156.645 120.027l3.132-15.98M164.867 102.973l9.63-3.3" stroke-width="1.2" stroke="#000" stroke-miterlimit="10" fill="none"/><path d="M174.496 99.672l9.63-3.297" stroke-width="1.2" stroke="#00f" stroke-miterlimit="10" fill="none"/><path d="M164.867 102.973l-15.34-13.38" stroke-width="1.2" stroke="#000" stroke-miterlimit="10" fill="none"/><path d="M184.125 96.375l1.96-9.988" stroke-width="1.2" stroke="#00f" stroke-miterlimit="10" fill="none"/><path d="M186.086 86.387l1.957-9.99" stroke-width="1.2" stroke="#f00" stroke-miterlimit="10" fill="none"/><path d="M184.125 96.375l15.344 13.38M182.512 101.324l12.273 10.703" stroke-width="1.2" stroke="#00f" stroke-miterlimit="10" fill="none"/><path d="M177.125 88.875h14v15h-14zm0 0" fill="#fff"/><use xlink:href="#c" x="177.125" y="100.977" fill="#00f"/><use xlink:href="#d" x="184.103" y="96.094" fill="#00f"/><path d="M183.043 68.898h11v15h-11zm0 0" fill="#fff"/><use xlink:href="#b" x="183.043" y="81" fill="#f00"/><use xlink:href="#e" x="190.385" y="76.117" fill="#f00"/><path d="M199.47 109.754l9.628-3.297" stroke-width="1.2" stroke="#00f" stroke-miterlimit="10" fill="none"/><path d="M209.098 106.457l9.63-3.3" stroke-width="1.2" stroke="#f00" stroke-miterlimit="10" fill="none"/><path d="M196.47 104.254h7v11h-7zm0 0" fill="#fff"/><use xlink:href="#c" x="196.469" y="112.917" fill="#00f"/><path d="M218.727 103.156l7.668 6.692" stroke-width="1.2" stroke="#f00" stroke-miterlimit="10" fill="none"/><path d="M226.395 109.848l7.67 6.687" stroke-width="1.2" stroke="#000" stroke-miterlimit="10" fill="none"/><path d="M214.727 97.656h8v11h-8zm0 0" fill="#fff"/><use xlink:href="#b" x="214.727" y="106.319" fill="#f00"/><path d="M234.066 116.535l-1.957 9.988" stroke-width="1.2" stroke="#000" stroke-miterlimit="10" fill="none"/><path d="M232.11 126.523l-1.958 9.99" stroke-width="1.2" stroke="#f00" stroke-miterlimit="10" fill="none"/><path d="M234.066 116.535l19.258-6.594" stroke-width="1.2" stroke="#000" stroke-miterlimit="10" fill="none"/><path d="M230.152 136.512l7.668 6.69" stroke-width="1.2" stroke="#f00" stroke-miterlimit="10" fill="none"/><path d="M237.82 143.203l7.672 6.688" stroke-width="1.2" stroke="#000" stroke-miterlimit="10" fill="none"/><path d="M226.152 131.012h8v11h-8zm0 0" fill="#fff"/><use xlink:href="#b" x="226.152" y="139.675" fill="#f00"/><path d="M246.27 152.156l9.628-3.297" stroke-width="1.2" stroke="#000" stroke-miterlimit="10" fill="none"/><path d="M255.898 148.86l9.63-3.298" stroke-width="1.2" stroke="#f00" stroke-miterlimit="10" fill="none"/><path d="M244.715 147.625l9.63-3.297" stroke-width="1.2" stroke="#000" stroke-miterlimit="10" fill="none"/><path d="M254.344 144.328l9.63-3.297" stroke-width="1.2" stroke="#f00" stroke-miterlimit="10" fill="none"/><path d="M245.492 149.89l-3.914 19.977" stroke-width="1.2" stroke="#000" stroke-miterlimit="10" fill="none"/><path d="M260.75 137.797h8v11h-8zm0 0" fill="#fff"/><use xlink:href="#b" x="260.75" y="146.46" fill="#f00"/><path d="M149.527 89.594l-19.257 6.594M149.152 94.78l-15.406 5.28M54.707 117.3l-9.73-2.99" stroke-width="1.2" stroke="#000" stroke-miterlimit="10" fill="none"/><path d="M44.977 114.31l-9.727-2.994" stroke-width="1.2" stroke="#3cc" stroke-miterlimit="10" fill="none"/><path d="M54.707 117.3l2.992-9.726" stroke-width="1.2" stroke="#000" stroke-miterlimit="10" fill="none"/><path d="M57.7 107.574l2.99-9.73" stroke-width="1.2" stroke="#3cc" stroke-miterlimit="10" fill="none"/><path d="M54.707 117.3l-2.992 9.73" stroke-width="1.2" stroke="#000" stroke-miterlimit="10" fill="none"/><path d="M51.715 127.03l-2.992 9.728" stroke-width="1.2" stroke="#3cc" stroke-miterlimit="10" fill="none"/><path d="M29.25 105.816h6v11h-6zm0 0" fill="#fff"/><use xlink:href="#f" x="29.25" y="114.479" fill="#3cc"/><path d="M57.69 92.344h6v11h-6zm0 0" fill="#fff"/><use xlink:href="#f" x="57.691" y="101.007" fill="#3cc"/><path d="M42.723 131.258h6v11h-6zm0 0" fill="#fff"/><use xlink:href="#f" x="42.723" y="139.921" fill="#3cc"/><path d="M133.547 156.047l12.223 16.277M130.938 160.55l9.78 13.02" stroke-width="1.2" stroke="#000" stroke-miterlimit="10" fill="none"/></g></svg>