<svg xmlns="http://www.w3.org/2000/svg" xmlns:xlink="http://www.w3.org/1999/xlink" width="300pt" height="300pt" viewBox="0 0 300 300"><defs><symbol overflow="visible"><path d="M.453 1.594v-7.938h4.5v7.938zm.5-.5h3.5v-6.938h-3.5zm0 0"/></symbol><symbol overflow="visible" id="a"><path d="M3.547-5.953c-.65 0-1.164.242-1.547.72-.375.48-.563 1.13-.563 1.952 0 .835.188 1.49.563 1.967.383.48.898.72 1.547.72.644 0 1.156-.24 1.53-.72.376-.476.564-1.132.564-1.968 0-.822-.187-1.474-.562-1.954-.375-.477-.887-.72-1.53-.72zm0-.734c.914 0 1.648.312 2.203.937.55.617.828 1.438.828 2.47 0 1.042-.277 1.87-.828 2.483-.555.617-1.29.922-2.203.922-.93 0-1.668-.305-2.22-.922C.774-1.41.5-2.237.5-3.28c0-1.033.273-1.853.828-2.47.55-.625 1.29-.938 2.22-.938zm0 0"/></symbol><symbol overflow="visible" id="b"><path d="M.89-6.563h.876v2.688H5v-2.688h.89V0H5v-3.125H1.766V0H.89zm0 0"/></symbol></defs><g><path fill="#fff" d="M0 0h300v300H0z"/><path d="M237.43 124.383l5.683-.633" stroke-width="1.2" stroke="#f00" stroke-miterlimit="10" fill="none"/><path d="M243.113 123.75l5.684-.633M230.652 115.172l3.39 4.605" stroke-width="1.2" stroke="#000" stroke-miterlimit="10" fill="none"/><path d="M234.043 119.777l3.387 4.606" stroke-width="1.2" stroke="#f00" stroke-miterlimit="10" fill="none"/><path d="M233.43 118.883h8v11h-8zm0 0" fill="#fff"/><use xlink:href="#a" x="233.43" y="127.546" fill="#f00"/><path d="M248.797 123.117m1.328 2.692l.84-.62m.492 3.306l1.68-1.234m-.348 3.922l2.52-1.852m-1.365 4.195l3.25-2.394" stroke="#000" stroke-miterlimit="10" fill="none"/><path d="M248.797 123.117l4.586-10.472" stroke-width="1.2" stroke="#000" stroke-miterlimit="10" fill="none"/><path d="M253.383 112.645l11.59.742-.446-4.012zm0 0"/><path d="M253.383 112.645l-6.774-9.21" stroke-width="1.2" stroke="#000" stroke-miterlimit="10" fill="none"/><path d="M257.75 105.883h15v11h-15zm0 0" fill="#fff"/><g fill="#f00"><use xlink:href="#a" x="257.75" y="114.546"/><use xlink:href="#b" x="265.092" y="114.546"/></g><path d="M246.61 103.434m1.66-2.496l-.954-.418m2.618-2.08l-1.91-.838m3.574-1.66l-2.868-1.254m4.317-.918l-3.7-1.622" stroke="#000" stroke-miterlimit="10" fill="none"/><path d="M246.61 103.434l-11.368 1.26" stroke-width="1.2" stroke="#000" stroke-miterlimit="10" fill="none"/><path d="M244.195 87.457h15v11h-15zm0 0" fill="#fff"/><g fill="#f00"><use xlink:href="#a" x="244.195" y="96.12"/><use xlink:href="#b" x="251.537" y="96.12"/></g><path d="M235.242 104.695m-1.332-2.687l-.84.617m-.488-3.305l-1.68 1.235m.348-3.926l-2.52 1.854m1.36-4.195l-3.25 2.39" stroke="#000" stroke-miterlimit="10" fill="none"/><path d="M235.242 104.695l-4.59 10.477" stroke-width="1.2" stroke="#000" stroke-miterlimit="10" fill="none"/><path d="M213.465 89.984h15v11h-15zm0 0" fill="#fff"/><g fill="#f00"><use xlink:href="#b" x="213.465" y="98.647"/><use xlink:href="#a" x="220.479" y="98.647"/></g><path d="M230.652 115.172l-11.586-.746.446 4.01zm0 0"/><path d="M214.7 126.906m1.663-2.496l-.957-.418m2.617-2.078l-1.91-.836m3.575-1.66l-2.864-1.258m4.313-.918l-3.7-1.617" stroke="#000" stroke-miterlimit="10" fill="none"/><path d="M215.29 110.934h8v11h-8zm0 0" fill="#fff"/><use xlink:href="#a" x="215.289" y="119.597" fill="#f00"/><path d="M214.7 126.906l-11.368 1.266M221.477 136.117l-6.778-9.21" stroke-width="1.2" stroke="#000" stroke-miterlimit="10" fill="none"/><path d="M203.332 128.172l-5.148-10.41-3.254 2.394zm0 0"/><path d="M203.332 128.172l-4.59 10.473" stroke-width="1.2" stroke="#000" stroke-miterlimit="10" fill="none"/><path d="M181.555 113.457h15v11h-15zm0 0" fill="#fff"/><g fill="#f00"><use xlink:href="#b" x="181.555" y="122.12"/><use xlink:href="#a" x="188.569" y="122.12"/></g><path d="M198.742 138.645m-2.992-.192l.113 1.035m-3.11-1.226l.23 2.07m-3.22-2.262l.342 3.11m-2.95-3.278l.447 4.012" stroke="#000" stroke-miterlimit="10" fill="none"/><path d="M198.742 138.645l6.778 9.21" stroke-width="1.2" stroke="#000" stroke-miterlimit="10" fill="none"/><path d="M172.38 134.406h15v11h-15zm0 0" fill="#fff"/><g fill="#f00"><use xlink:href="#b" x="172.379" y="143.069"/><use xlink:href="#a" x="179.394" y="143.069"/></g><path d="M205.52 147.855l5.683-.628" stroke-width="1.2" stroke="#000" stroke-miterlimit="10" fill="none"/><path d="M211.203 147.227l5.684-.633" stroke-width="1.2" stroke="#f00" stroke-miterlimit="10" fill="none"/><path d="M205.52 147.855l-6.438 9.665 3.695 1.62zm0 0"/><path d="M216.887 146.594l2.293-5.24" stroke-width="1.2" stroke="#f00" stroke-miterlimit="10" fill="none"/><path d="M219.18 141.355l2.297-5.238" stroke-width="1.2" stroke="#000" stroke-miterlimit="10" fill="none"/><path d="M212.887 141.094h8v11h-8zm0 0" fill="#fff"/><use xlink:href="#a" x="212.887" y="149.757" fill="#f00"/><path d="M221.477 136.117l11.585.746-.445-4.01zm0 0"/><path d="M232.84 134.855l3.39 4.606" stroke-width="1.2" stroke="#000" stroke-miterlimit="10" fill="none"/><path d="M236.23 139.46l3.387 4.606" stroke-width="1.2" stroke="#f00" stroke-miterlimit="10" fill="none"/><path d="M232.617 138.566h15v11h-15zm0 0" fill="#fff"/><g fill="#f00"><use xlink:href="#a" x="232.617" y="147.229"/><use xlink:href="#b" x="239.959" y="147.229"/></g><path d="M200.93 158.332l-5.684.63" stroke-width="1.2" stroke="#f00" stroke-miterlimit="10" fill="none"/><path d="M195.246 158.96l-5.68.634" stroke-width="1.2" stroke="#000" stroke-miterlimit="10" fill="none"/><path d="M196.93 152.832h8v11h-8zm0 0" fill="#fff"/><use xlink:href="#a" x="196.93" y="161.495" fill="#f00"/><path d="M184.977 170.066m1.664-2.496l-.956-.418m2.617-2.078l-1.91-.836m3.575-1.66l-2.863-1.258m4.312-.918l-3.7-1.617" stroke="#000" stroke-miterlimit="10" fill="none"/><path d="M184.977 170.066l-5.684.633" stroke-width="1.2" stroke="#000" stroke-miterlimit="10" fill="none"/><path d="M179.293 170.7l-5.684.632" stroke-width="1.2" stroke="#f00" stroke-miterlimit="10" fill="none"/><path d="M191.754 179.277l-6.777-9.21" stroke-width="1.2" stroke="#000" stroke-miterlimit="10" fill="none"/><path d="M173.61 171.332l-2.294 5.234" stroke-width="1.2" stroke="#f00" stroke-miterlimit="10" fill="none"/><path d="M171.316 176.566l-2.296 5.24" stroke-width="1.2" stroke="#000" stroke-miterlimit="10" fill="none"/><path d="M169.61 165.832h8v11h-8zm0 0" fill="#fff"/><use xlink:href="#a" x="169.609" y="174.495" fill="#f00"/><path d="M169.02 181.805m-2.993-.192l.114 1.035m-3.105-1.226l.227 2.07m-3.223-2.262l.347 3.11m-2.953-3.278l.445 4.012" stroke="#000" stroke-miterlimit="10" fill="none"/><path d="M169.02 181.805l6.777 9.21" stroke-width="1.2" stroke="#000" stroke-miterlimit="10" fill="none"/><path d="M157.656 183.066l-3.39-4.605" stroke-width="1.2" stroke="#f00" stroke-miterlimit="10" fill="none"/><path d="M154.266 178.46l-3.387-4.605" stroke-width="1.2" stroke="#000" stroke-miterlimit="10" fill="none"/><path d="M153.656 177.566h8v11h-8zm0 0" fill="#fff"/><use xlink:href="#a" x="153.656" y="186.229" fill="#f00"/><path d="M152.11 174.395l2.296-5.235" stroke-width="1.2" stroke="#000" stroke-miterlimit="10" fill="none"/><path d="M154.406 169.16l2.293-5.238" stroke-width="1.2" stroke="#f00" stroke-miterlimit="10" fill="none"/><path d="M149.648 173.316l2.293-5.238" stroke-width="1.2" stroke="#000" stroke-miterlimit="10" fill="none"/><path d="M151.94 168.078l2.294-5.234" stroke-width="1.2" stroke="#f00" stroke-miterlimit="10" fill="none"/><path d="M139.512 175.117m2.996.196l-.117-1.04m3.11 1.23l-.23-2.073m3.226 2.265l-.348-3.11m2.954 3.278l-.446-4.01" stroke="#000" stroke-miterlimit="10" fill="none"/><path d="M151.47 157.883h8v11h-8zm0 0" fill="#fff"/><use xlink:href="#a" x="151.469" y="166.546" fill="#f00"/><path d="M139.512 175.117l-11.364 1.266M146.29 184.332l-6.778-9.215M144.102 164.645l-4.59 10.472" stroke-width="1.2" stroke="#000" stroke-miterlimit="10" fill="none"/><path d="M128.148 176.383l-6.437 9.664 3.696 1.617zm0 0"/><path d="M128.148 176.383l-6.777-9.21M123.56 186.855l6.776 9.21M130.336 196.066l11.363-1.26M130.336 196.066l3.215 10.977M130.336 196.066l-10.25 5.075M141.7 194.805l4.59-10.473M121.37 167.172l-11.366 1.262M119.938 164.62l-9.094 1.013M125.96 156.695l-4.59 10.477M110.004 168.434l-6.774-9.21" stroke-width="1.2" stroke="#000" stroke-miterlimit="10" fill="none"/><path d="M107.82 148.746m-1.664 2.496l.953.422m-2.618 2.078l1.91.836m-3.574 1.66l2.867 1.254m-4.316.918l3.698 1.62" stroke="#000" stroke-miterlimit="10" fill="none"/><path d="M107.82 148.746l11.364-1.262M101.043 139.535l6.777 9.21M119.184 147.484l4.59-10.472" stroke-width="1.2" stroke="#000" stroke-miterlimit="10" fill="none"/><path d="M119.184 147.484m3 .09l-.36-1.515m3.356 1.604l-.72-3.03m2.49 3.08l-.93-3.925" stroke="#000" stroke-miterlimit="10" fill="none"/><path d="M119.184 147.484l6.777 9.21M123.773 137.012l-6.777-9.215" stroke-width="1.2" stroke="#000" stroke-miterlimit="10" fill="none"/><path d="M105.633 129.063m2.992.19l-.113-1.034m3.105 1.225l-.23-2.074m3.226 2.267l-.347-3.11m2.953 3.278l-.447-4.012" stroke="#000" stroke-miterlimit="10" fill="none"/><path d="M105.633 129.063l-6.778-9.21M101.043 139.535l4.59-10.472" stroke-width="1.2" stroke="#000" stroke-miterlimit="10" fill="none"/><path d="M98.855 119.852L110 116.586l-1.793-3.617zm0 0"/><path d="M98.855 119.852l-3.218-10.977M98.855 119.852l-11.367 1.26M109.102 114.777l.367-5.707" stroke-width="1.2" stroke="#000" stroke-miterlimit="10" fill="none"/><path d="M109.47 109.07l.362-5.707" stroke-width="1.2" stroke="#f00" stroke-miterlimit="10" fill="none"/><path d="M102.832 97.863h15v11h-15zm0 0" fill="#fff"/><g fill="#f00"><use xlink:href="#a" x="102.832" y="106.526"/><use xlink:href="#b" x="110.174" y="106.526"/></g><path d="M87.488 121.113m-1.328-2.687l-.84.617m-.492-3.31l-1.68 1.24m.348-3.926l-2.52 1.85m1.364-4.19l-3.254 2.39" stroke="#000" stroke-miterlimit="10" fill="none"/><path d="M87.488 121.113l-4.59 10.473" stroke-width="1.2" stroke="#000" stroke-miterlimit="10" fill="none"/><path d="M69.348 113.164l11.586.742-.446-4.01zm0 0"/><path d="M76.71 106.402h8v11h-8zm0 0" fill="#fff"/><use xlink:href="#a" x="76.711" y="115.065" fill="#f00"/><path d="M69.348 113.164l-3.39-4.605" stroke-width="1.2" stroke="#000" stroke-miterlimit="10" fill="none"/><path d="M65.957 108.56l-3.387-4.607" stroke-width="1.2" stroke="#f00" stroke-miterlimit="10" fill="none"/><path d="M64.758 123.637l4.59-10.473" stroke-width="1.2" stroke="#000" stroke-miterlimit="10" fill="none"/><path d="M62.57 103.953l-5.683.63" stroke-width="1.2" stroke="#f00" stroke-miterlimit="10" fill="none"/><path d="M56.887 104.582l-5.684.633" stroke-width="1.2" stroke="#000" stroke-miterlimit="10" fill="none"/><path d="M58.57 98.453h8v11h-8zm0 0" fill="#fff"/><use xlink:href="#a" x="58.57" y="107.116" fill="#f00"/><path d="M51.203 105.215l-4.586 10.476" stroke-width="1.2" stroke="#000" stroke-miterlimit="10" fill="none"/><path d="M46.617 115.69l-11.59-.745.446 4.012zm0 0"/><path d="M46.617 115.69l6.774 9.212" stroke-width="1.2" stroke="#000" stroke-miterlimit="10" fill="none"/><path d="M20.25 111.453h15v11h-15zm0 0" fill="#fff"/><g fill="#f00"><use xlink:href="#b" x="20.25" y="120.116"/><use xlink:href="#a" x="27.265" y="120.116"/></g><path d="M53.39 124.902l-6.437 9.664 3.7 1.618zm0 0"/><path d="M53.39 124.902l11.368-1.265" stroke-width="1.2" stroke="#000" stroke-miterlimit="10" fill="none"/><path d="M33.805 129.875h15v11h-15zm0 0" fill="#fff"/><g fill="#f00"><use xlink:href="#b" x="33.805" y="138.538"/><use xlink:href="#a" x="40.819" y="138.538"/></g><path d="M64.758 123.637m1.332 2.69l.84-.616m.488 3.306l1.68-1.235m-.348 3.923l2.52-1.85m-1.36 4.194l3.25-2.395" stroke="#000" stroke-miterlimit="10" fill="none"/><path d="M64.535 127.352h15v11h-15zm0 0" fill="#fff"/><g fill="#f00"><use xlink:href="#a" x="64.535" y="136.015"/><use xlink:href="#b" x="71.877" y="136.015"/></g><path d="M82.898 131.586l6.778 9.21M89.676 140.797l11.367-1.262" stroke-width="1.2" stroke="#000" stroke-miterlimit="10" fill="none"/><path d="M101.043 139.535m-1.664 2.496l.952.42m-2.617 2.077l1.91.84m-3.574 1.66l2.868 1.254m-4.313.92l3.696 1.62" stroke="#000" stroke-miterlimit="10" fill="none"/><path d="M125.96 156.695l11.364-1.26" stroke-width="1.2" stroke="#000" stroke-miterlimit="10" fill="none"/><path d="M125.96 156.695l5.563-5.425-3.472-2.06zm0 0"/><path d="M137.324 155.434l6.778 9.21" stroke-width="1.2" stroke="#000" stroke-miterlimit="10" fill="none"/><path d="M175.797 191.016l-6.438 9.664 3.7 1.62zm0 0"/><path d="M175.797 191.016l11.367-1.262" stroke-width="1.2" stroke="#000" stroke-miterlimit="10" fill="none"/><path d="M156.207 195.992h15v11h-15zm0 0" fill="#fff"/><g fill="#f00"><use xlink:href="#b" x="156.207" y="204.655"/><use xlink:href="#a" x="163.222" y="204.655"/></g><path d="M187.164 189.754m1.328 2.687l.84-.616m.492 3.31l1.68-1.24m-.348 3.926l2.52-1.855m-1.363 4.195l3.253-2.39" stroke="#000" stroke-miterlimit="10" fill="none"/><path d="M187.164 189.754l4.59-10.477" stroke-width="1.2" stroke="#000" stroke-miterlimit="10" fill="none"/><path d="M186.94 193.465h15v11h-15zm0 0" fill="#fff"/><g fill="#f00"><use xlink:href="#a" x="186.941" y="202.128"/><use xlink:href="#b" x="194.283" y="202.128"/></g><path d="M191.754 179.277l11.586.746-.445-4.01zm0 0"/><path d="M196.117 172.516h15v11h-15zm0 0" fill="#fff"/><g fill="#f00"><use xlink:href="#a" x="196.117" y="181.179"/><use xlink:href="#b" x="203.459" y="181.179"/></g></g></svg>