<svg xmlns="http://www.w3.org/2000/svg" xmlns:xlink="http://www.w3.org/1999/xlink" width="300pt" height="300pt" viewBox="0 0 300 300"><defs><symbol overflow="visible"><path d="M.547 1.938V-7.75h5.5v9.688zm.625-.61h4.266v-8.47H1.171zm0 0"/></symbol><symbol overflow="visible" id="a"><path d="M5.89-7.75v1.047c-.417-.195-.808-.344-1.17-.438-.368-.094-.72-.14-1.064-.14-.586 0-1.04.116-1.36.343-.323.23-.483.554-.483.968 0 .357.1.626.312.814.22.18.625.324 1.22.437L4-4.593c.813.157 1.41.434 1.797.828.383.387.578.903.578 1.547 0 .783-.262 1.376-.78 1.783-.525.398-1.29.593-2.298.593-.375 0-.78-.047-1.22-.14C1.648-.066 1.208-.19.75-.36v-1.11c.445.25.88.44 1.297.564.426.125.844.187 1.25.187.625 0 1.1-.116 1.437-.358.332-.25.5-.598.5-1.047 0-.395-.12-.703-.36-.922-.24-.226-.636-.398-1.186-.515l-.657-.126c-.81-.156-1.4-.406-1.764-.75C.898-4.78.72-5.258.72-5.875c0-.707.25-1.266.75-1.672.5-.414 1.19-.625 2.077-.625.375 0 .754.04 1.14.11.395.074.797.18 1.204.312zm0 0"/></symbol><symbol overflow="visible" id="b"><path d="M4.328-7.28c-.78 0-1.406.296-1.875.89-.46.585-.687 1.382-.687 2.39 0 1.012.226 1.813.687 2.406.47.586 1.094.875 1.875.875.79 0 1.414-.288 1.875-.874.457-.593.688-1.394.688-2.406 0-1.008-.23-1.805-.687-2.39-.46-.594-1.086-.89-1.875-.89zm0-.892c1.125 0 2.024.383 2.703 1.14C7.708-6.28 8.048-5.27 8.048-4c0 1.262-.34 2.273-1.016 3.03C6.353-.22 5.454.157 4.33.157S2.3-.22 1.625-.97c-.668-.75-1-1.757-1-3.03 0-1.27.332-2.28 1-3.03.676-.76 1.578-1.142 2.703-1.142zm0 0"/></symbol><symbol overflow="visible" id="c"><path d="M1.078-8.016h4.61v.907H2.171v2.36h3.172v.922H2.172V0H1.078zm0 0"/></symbol></defs><g><path fill="#fff" d="M0 0h300v300H0z"/><path d="M241.145 138.016l1.21-13.375" stroke-width="1.2" stroke="#cc0" stroke-miterlimit="10" fill="none"/><path d="M242.355 124.64l1.21-13.374" stroke-width="1.2" stroke="#f00" stroke-miterlimit="10" fill="none"/><path d="M234.848 137.45l1.214-13.38" stroke-width="1.2" stroke="#cc0" stroke-miterlimit="10" fill="none"/><path d="M236.063 124.07l1.21-13.375" stroke-width="1.2" stroke="#f00" stroke-miterlimit="10" fill="none"/><path d="M234.848 137.45l-1.21 13.374" stroke-width="1.2" stroke="#cc0" stroke-miterlimit="10" fill="none"/><path d="M233.637 150.824l-1.21 13.375" stroke-width="1.2" stroke="#f00" stroke-miterlimit="10" fill="none"/><path d="M241.145 138.016l-1.21 13.38" stroke-width="1.2" stroke="#cc0" stroke-miterlimit="10" fill="none"/><path d="M239.934 151.395l-1.21 13.375" stroke-width="1.2" stroke="#f00" stroke-miterlimit="10" fill="none"/><path d="M237.996 137.734l13.38 1.21" stroke-width="1.2" stroke="#cc0" stroke-miterlimit="10" fill="none"/><path d="M251.375 138.945l13.375 1.21" stroke-width="1.2" stroke="#000" stroke-miterlimit="10" fill="none"/><path d="M237.996 137.734l-13.375-1.214" stroke-width="1.2" stroke="#cc0" stroke-miterlimit="10" fill="none"/><path d="M224.62 136.52l-13.378-1.21" stroke-width="1.2" stroke="#000" stroke-miterlimit="10" fill="none"/><path d="M234.996 131.234h7v13h-7zm0 0" fill="#fff"/><use xlink:href="#a" x="234.996" y="141.136" fill="#cc0"/><path d="M236.418 104.48h9v13h-9zm0 0" fill="#fff"/><use xlink:href="#b" x="236.418" y="114.382" fill="#f00"/><path d="M231.574 157.984h9v13h-9zm0 0" fill="#fff"/><use xlink:href="#b" x="231.574" y="167.886" fill="#f00"/><path d="M211.242 135.31l-15.472 21.96M204.53 133.863L192.15 151.43M199.965 110.93l11.277 24.38M195.77 157.27l-26.754-2.426M169.016 154.844l-11.278-24.38M173.625 149.754l-9.023-19.504M157.738 130.465l15.473-21.957M157.738 130.465l-26.754-2.422M173.21 108.508l26.755 2.422M175.316 115.043l21.403 1.937M130.984 128.043L115.508 150M124.27 126.598l-12.38 17.566M130.984 128.043l-11.277-24.38M115.508 150l-26.75-2.422M115.508 150l11.28 24.38M88.758 147.578l-11.28-24.38M81.89 147.793l-9.023-19.504M73.28 169.535l15.478-21.957M77.477 123.2l-26.754-2.427M50.723 120.773L35.25 142.73M54.344 126.613l-12.38 17.563M35.25 142.73l11.277 24.383M46.527 167.113l26.754 2.422M49.773 161.06l21.403 1.936M126.79 174.38l-15.478 21.956M130.406 180.22l-12.38 17.56M153.543 176.8l-26.754-2.42M111.313 196.336l11.28 24.383M122.594 220.72l26.75 2.42M125.836 214.664l21.402 1.938M149.344 223.14l15.476-21.956M164.82 201.184L153.543 176.8M157.957 201.398l-9.023-19.503M119.707 103.664l-26.754-2.426M92.953 101.238l-5.64-12.187" stroke-width="1.2" stroke="#000" stroke-miterlimit="10" fill="none"/><path d="M87.313 89.05l-5.64-12.19" stroke-width="1.2" stroke="#3cc" stroke-miterlimit="10" fill="none"/><path d="M74.672 70.36h7v13h-7zm0 0" fill="#fff"/><use xlink:href="#c" x="74.672" y="80.261" fill="#3cc"/></g></svg>