<svg xmlns="http://www.w3.org/2000/svg" xmlns:xlink="http://www.w3.org/1999/xlink" width="300pt" height="300pt" viewBox="0 0 300 300"><defs><symbol overflow="visible"><path d="M.547 1.938V-7.75h5.5v9.688zm.625-.61h4.266v-8.47H1.171zm0 0"/></symbol><symbol overflow="visible" id="a"><path d="M5.89-7.75v1.047c-.417-.195-.808-.344-1.17-.438-.368-.094-.72-.14-1.064-.14-.586 0-1.04.116-1.36.343-.323.23-.483.554-.483.968 0 .357.1.626.312.814.22.18.625.324 1.22.437L4-4.593c.813.157 1.41.434 1.797.828.383.387.578.903.578 1.547 0 .783-.262 1.376-.78 1.783-.525.398-1.29.593-2.298.593-.375 0-.78-.047-1.22-.14C1.648-.066 1.208-.19.75-.36v-1.11c.445.25.88.44 1.297.564.426.125.844.187 1.25.187.625 0 1.1-.116 1.437-.358.332-.25.5-.598.5-1.047 0-.395-.12-.703-.36-.922-.24-.226-.636-.398-1.186-.515l-.657-.126c-.81-.156-1.4-.406-1.764-.75C.898-4.78.72-5.258.72-5.875c0-.707.25-1.266.75-1.672.5-.414 1.19-.625 2.077-.625.375 0 .754.04 1.14.11.395.074.797.18 1.204.312zm0 0"/></symbol><symbol overflow="visible" id="b"><path d="M4.328-7.28c-.78 0-1.406.296-1.875.89-.46.585-.687 1.382-.687 2.39 0 1.012.226 1.813.687 2.406.47.586 1.094.875 1.875.875.79 0 1.414-.288 1.875-.874.457-.593.688-1.394.688-2.406 0-1.008-.23-1.805-.687-2.39-.46-.594-1.086-.89-1.875-.89zm0-.892c1.125 0 2.024.383 2.703 1.14C7.708-6.28 8.048-5.27 8.048-4c0 1.262-.34 2.273-1.016 3.03C6.353-.22 5.454.157 4.33.157S2.3-.22 1.625-.97c-.668-.75-1-1.757-1-3.03 0-1.27.332-2.28 1-3.03.676-.76 1.578-1.142 2.703-1.142zm0 0"/></symbol></defs><g><path fill="#fff" d="M0 0h300v300H0z"/><path d="M240.61 200.367l1.76-13.68" stroke-width="1.2" stroke="#cc0" stroke-miterlimit="10" fill="none"/><path d="M242.37 186.688l1.76-13.68" stroke-width="1.2" stroke="#f00" stroke-miterlimit="10" fill="none"/><path d="M234.172 199.54l1.762-13.68" stroke-width="1.2" stroke="#cc0" stroke-miterlimit="10" fill="none"/><path d="M235.934 185.86l1.757-13.68" stroke-width="1.2" stroke="#f00" stroke-miterlimit="10" fill="none"/><path d="M234.172 199.54l-1.758 13.68" stroke-width="1.2" stroke="#cc0" stroke-miterlimit="10" fill="none"/><path d="M232.414 213.22l-1.758 13.675" stroke-width="1.2" stroke="#f00" stroke-miterlimit="10" fill="none"/><path d="M240.61 200.367l-1.758 13.68" stroke-width="1.2" stroke="#cc0" stroke-miterlimit="10" fill="none"/><path d="M238.852 214.047l-1.762 13.676" stroke-width="1.2" stroke="#f00" stroke-miterlimit="10" fill="none"/><path d="M237.39 199.953l13.68 1.758" stroke-width="1.2" stroke="#cc0" stroke-miterlimit="10" fill="none"/><path d="M251.07 201.71l13.68 1.76" stroke-width="1.2" stroke="#000" stroke-miterlimit="10" fill="none"/><path d="M237.39 199.953l-13.68-1.762" stroke-width="1.2" stroke="#cc0" stroke-miterlimit="10" fill="none"/><path d="M223.71 198.19l-13.68-1.756" stroke-width="1.2" stroke="#000" stroke-miterlimit="10" fill="none"/><path d="M234.39 193.453h7v13h-7zm0 0" fill="#fff"/><use xlink:href="#a" x="234.391" y="203.354" fill="#cc0"/><path d="M236.91 166.094h9v13h-9zm0 0" fill="#fff"/><use xlink:href="#b" x="236.91" y="175.995" fill="#f00"/><path d="M229.87 220.81h9v13h-9zm0 0" fill="#fff"/><use xlink:href="#b" x="229.871" y="230.71" fill="#f00"/><path d="M210.03 196.434l-16.72 21.933M203.2 194.69l-13.38 17.548M199.402 170.98l10.63 25.454M193.31 218.367l-27.36-3.52M165.95 214.848l-10.634-25.453M170.875 209.8l-8.508-20.36M155.316 189.395l16.727-21.934M155.316 189.395l-27.36-3.516M172.043 167.46l27.36 3.52M173.95 174.25l21.886 2.816M127.957 185.88l-10.633-25.454M132.883 180.832l-8.504-20.363M127.957 185.88l-16.727 21.933M117.324 160.426l16.727-21.934M117.324 160.426l-27.355-3.52M134.05 138.492l27.36 3.52M137.617 132.406l21.887 2.817M123.418 113.04l10.633 25.452M161.41 142.012l16.727-21.938M178.137 120.074l-10.633-25.45M171.086 120.03l-8.508-20.358M167.504 94.625l8.363-10.97" stroke-width="1.2" stroke="#000" stroke-miterlimit="10" fill="none"/><path d="M175.867 83.656l8.363-10.965" stroke-width="1.2" stroke="#f00" stroke-miterlimit="10" fill="none"/><path d="M167.504 94.625l-27.36-3.52" stroke-width="1.2" stroke="#000" stroke-miterlimit="10" fill="none"/><path d="M184.23 72.69l13.68 1.76" stroke-width="1.2" stroke="#f00" stroke-miterlimit="10" fill="none"/><path d="M197.91 74.45l13.68 1.757" stroke-width="1.2" stroke="#000" stroke-miterlimit="10" fill="none"/><path d="M180.23 66.19h9v13h-9zm0 0" fill="#fff"/><use xlink:href="#b" x="180.23" y="76.093" fill="#f00"/><path d="M140.145 91.105l-16.727 21.934M143.633 97.234l-13.38 17.547M89.97 156.906l-10.634-25.453M82.914 156.863L74.41 136.5M73.242 178.84l16.727-21.934M79.336 131.453l-27.36-3.516M51.977 127.938L35.25 149.87M55.465 134.066l-13.383 17.547M35.25 149.87l10.633 25.45M45.883 175.32l27.36 3.52M49.445 169.238l21.887 2.813M111.23 207.813l-27.36-3.52M83.87 204.293l-16.725 21.934M67.145 226.227l-27.356-3.52" stroke-width="1.2" stroke="#000" stroke-miterlimit="10" fill="none"/></g></svg>