<svg xmlns="http://www.w3.org/2000/svg" xmlns:xlink="http://www.w3.org/1999/xlink" width="300pt" height="300pt" viewBox="0 0 300 300"><defs><symbol overflow="visible"><path d="M.594 2.125V-8.47h6V2.126zm.672-.672h4.671V-7.78h-4.67zm0 0"/></symbol><symbol overflow="visible" id="a"><path d="M1.172-8.75h5.03v1H2.36v2.578h3.468v1h-3.47V0H1.173zm0 0"/></symbol><symbol overflow="visible" id="b"><path d="M4.734-7.953c-.867 0-1.554.324-2.062.97-.5.635-.75 1.51-.75 2.624 0 1.094.25 1.965.75 2.61.508.637 1.195.953 2.062.953.852 0 1.532-.316 2.032-.953.507-.645.765-1.516.765-2.61 0-1.113-.257-1.988-.764-2.624-.5-.645-1.18-.97-2.032-.97zm0-.953c1.22 0 2.192.414 2.922 1.234.74.824 1.11 1.93 1.11 3.313 0 1.376-.37 2.477-1.11 3.298C6.926-.24 5.953.17 4.734.17c-1.23 0-2.214-.41-2.953-1.234C1.04-1.882.673-2.984.673-4.36c0-1.382.367-2.488 1.11-3.312.738-.82 1.722-1.234 2.952-1.234zm0 0"/></symbol><symbol overflow="visible"><path d="M.5 1.766v-8.813h5v8.813zm.563-.547h3.875v-7.704H1.063zm0 0"/></symbol><symbol overflow="visible" id="c"><path d="M.484-3.14h2.64v.796H.485zm0 0"/></symbol></defs><g><path fill="#fff" d="M0 0h300v300H0z"/><path d="M264.75 164.746l-14.434-2.457" stroke-width="1.2" stroke="#3cc" stroke-miterlimit="10" fill="none"/><path d="M250.316 162.29l-14.43-2.458" stroke-width="1.2" stroke="#000" stroke-miterlimit="10" fill="none"/><path d="M261.75 157.746h7v14h-7zm0 0" fill="#fff"/><use xlink:href="#a" x="261.75" y="168.885" fill="#3cc"/><path d="M235.887 159.832l-2.457 14.43" stroke-width="1.2" stroke="#000" stroke-miterlimit="10" fill="none"/><path d="M233.43 174.262l-2.457 14.433" stroke-width="1.2" stroke="#3cc" stroke-miterlimit="10" fill="none"/><path d="M235.887 159.832l2.457-14.434" stroke-width="1.2" stroke="#000" stroke-miterlimit="10" fill="none"/><path d="M238.344 145.398l2.457-14.43" stroke-width="1.2" stroke="#3cc" stroke-miterlimit="10" fill="none"/><path d="M235.887 159.832l-28.864-4.918" stroke-width="1.2" stroke="#000" stroke-miterlimit="10" fill="none"/><path d="M227.973 181.695h7v14h-7zm0 0" fill="#fff"/><use xlink:href="#a" x="227.973" y="192.834" fill="#3cc"/><path d="M237.8 123.97h7v14h-7zm0 0" fill="#fff"/><use xlink:href="#a" x="237.801" y="135.107" fill="#3cc"/><path d="M207.023 154.914l-9.343 11.27" stroke-width="1.2" stroke="#000" stroke-miterlimit="10" fill="none"/><path d="M197.68 166.184l-9.344 11.27" stroke-width="1.2" stroke="#f00" stroke-miterlimit="10" fill="none"/><path d="M196.848 127.46l10.175 27.454" stroke-width="1.2" stroke="#000" stroke-miterlimit="10" fill="none"/><path d="M188.336 177.453l-14.434-2.457" stroke-width="1.2" stroke="#f00" stroke-miterlimit="10" fill="none"/><path d="M173.902 174.996l-14.433-2.457" stroke-width="1.2" stroke="#000" stroke-miterlimit="10" fill="none"/><path d="M183.336 170.453h10v14h-10zm0 0" fill="#fff"/><use xlink:href="#b" x="183.336" y="181.592" fill="#f00"/><path d="M159.47 172.54l-10.173-27.454M151.992 172.188l-8.14-21.965M140.78 195.078l18.69-22.54M149.297 145.086l18.687-22.54M149.297 145.086l-28.863-4.918M167.984 122.547l28.864 4.914M169.715 129.828l23.09 3.934M196.848 127.46l18.687-22.538M218.766 103.727l-5.086-13.73" stroke-width="1.2" stroke="#000" stroke-miterlimit="10" fill="none"/><path d="M213.68 89.996l-5.09-13.726" stroke-width="1.2" stroke="#f00" stroke-miterlimit="10" fill="none"/><path d="M212.305 106.117L207.22 92.39" stroke-width="1.2" stroke="#000" stroke-miterlimit="10" fill="none"/><path d="M207.22 92.39l-5.087-13.726" stroke-width="1.2" stroke="#f00" stroke-miterlimit="10" fill="none"/><path d="M215.535 104.922l14.434 2.457" stroke-width="1.2" stroke="#000" stroke-miterlimit="10" fill="none"/><path d="M229.97 107.38l14.428 2.456" stroke-width="1.2" stroke="#f00" stroke-miterlimit="10" fill="none"/><path d="M195.36 70.47h10v14h-10zm0 0" fill="#fff"/><use xlink:href="#b" x="195.359" y="81.607" fill="#f00"/><path d="M237.398 101.336h14v17h-14zm0 0" fill="#fff"/><use xlink:href="#b" x="237.398" y="115.501" fill="#f00"/><use xlink:href="#c" x="246.844" y="110.618" fill="#f00"/><path d="M120.434 140.168l-18.692 22.54M123.867 146.82l-14.953 18.032M101.742 162.707l-14.43-2.457" stroke-width="1.2" stroke="#000" stroke-miterlimit="10" fill="none"/><path d="M87.313 160.25l-14.434-2.457" stroke-width="1.2" stroke="#f00" stroke-miterlimit="10" fill="none"/><path d="M101.742 162.707l10.176 27.457" stroke-width="1.2" stroke="#000" stroke-miterlimit="10" fill="none"/><path d="M72.88 157.793l-5.087-13.727" stroke-width="1.2" stroke="#f00" stroke-miterlimit="10" fill="none"/><path d="M67.793 144.066l-5.09-13.726" stroke-width="1.2" stroke="#000" stroke-miterlimit="10" fill="none"/><path d="M67.88 150.793h10v14h-10zm0 0" fill="#fff"/><use xlink:href="#b" x="67.879" y="161.932" fill="#f00"/><path d="M62.703 130.34l-5.086-13.727" stroke-width="1.2" stroke="#000" stroke-miterlimit="10" fill="none"/><path d="M57.617 116.613l-5.09-13.73" stroke-width="1.2" stroke="#3cc" stroke-miterlimit="10" fill="none"/><path d="M62.703 130.34l-13.726 5.086" stroke-width="1.2" stroke="#000" stroke-miterlimit="10" fill="none"/><path d="M48.977 135.426l-13.727 5.09" stroke-width="1.2" stroke="#3cc" stroke-miterlimit="10" fill="none"/><path d="M62.703 130.34l13.727-5.09" stroke-width="1.2" stroke="#000" stroke-miterlimit="10" fill="none"/><path d="M76.43 125.25l13.73-5.086" stroke-width="1.2" stroke="#3cc" stroke-miterlimit="10" fill="none"/><path d="M45.527 95.883h7v14h-7zm0 0" fill="#fff"/><use xlink:href="#a" x="45.527" y="107.021" fill="#3cc"/><path d="M28.25 133.516h7v14h-7zm0 0" fill="#fff"/><use xlink:href="#a" x="28.25" y="144.654" fill="#3cc"/><path d="M87.16 113.164h7v14h-7zm0 0" fill="#fff"/><use xlink:href="#a" x="87.16" y="124.303" fill="#3cc"/><path d="M111.918 190.164l28.863 4.914M115.96 183.863l23.09 3.934M140.78 195.078l10.177 27.453" stroke-width="1.2" stroke="#000" stroke-miterlimit="10" fill="none"/></g></svg>