<svg xmlns="http://www.w3.org/2000/svg" xmlns:xlink="http://www.w3.org/1999/xlink" width="300pt" height="300pt" viewBox="0 0 300 300"><defs><symbol overflow="visible"><path d="M.453 1.594v-7.938h4.5v7.938zm.5-.5h3.5v-6.938h-3.5zm0 0"/></symbol><symbol overflow="visible" id="a"><path d="M5.797-6.063v.938c-.305-.27-.625-.473-.97-.61-.335-.144-.686-.218-1.06-.218-.75 0-1.33.23-1.736.687-.397.46-.592 1.12-.592 1.985 0 .866.195 1.526.593 1.983.408.46.986.688 1.736.688.375 0 .726-.066 1.062-.203.344-.132.664-.343.97-.625V-.5c-.314.21-.642.367-.986.47-.343.1-.714.155-1.11.155-.99 0-1.772-.3-2.343-.906C.784-1.396.5-2.228.5-3.28c0-1.052.285-1.88.86-2.486.57-.613 1.35-.92 2.343-.92.395-.002.766.053 1.11.155.35.104.68.26.984.468zm0 0"/></symbol><symbol overflow="visible" id="b"><path d="M.844-6.844h.812V0H.844zm0 0"/></symbol><symbol overflow="visible" id="c"><path d="M.89-6.563H2.08l2.906 5.485v-5.484h.86V0H4.656L1.75-5.484V0H.89zm0 0"/></symbol><symbol overflow="visible" id="d"><path d="M.89-6.563h.876v2.688H5v-2.688h.89V0H5v-3.125H1.766V0H.89zm0 0"/></symbol><symbol overflow="visible" id="e"><path d="M4.813-6.344v.86c-.336-.157-.653-.27-.954-.344-.294-.082-.58-.125-.86-.125-.492 0-.867.094-1.125.28-.262.19-.39.454-.39.798 0 .293.085.512.265.656.176.15.504.267.984.36l.547.11c.658.125 1.142.352 1.454.672.32.312.485.734.485 1.265 0 .637-.216 1.122-.642 1.454-.43.325-1.055.485-1.875.485-.312 0-.648-.04-1-.11C1.36-.046 1-.147.625-.296v-.906c.352.2.703.35 1.047.453.35.105.695.156 1.03.156.5 0 .884-.097 1.157-.297.28-.196.42-.485.42-.86 0-.32-.1-.57-.296-.75-.2-.176-.523-.313-.968-.406l-.547-.11C1.81-3.148 1.33-3.36 1.03-3.64.74-3.923.595-4.313.595-4.813c0-.57.203-1.024.61-1.36.405-.344.968-.516 1.687-.516.313 0 .626.032.938.094.32.055.65.137.985.25zm0 0"/></symbol><symbol overflow="visible" id="f"><path d="M3.547-5.953c-.65 0-1.164.242-1.547.72-.375.48-.563 1.13-.563 1.952 0 .835.188 1.49.563 1.967.383.48.898.72 1.547.72.644 0 1.156-.24 1.53-.72.376-.476.564-1.132.564-1.968 0-.822-.187-1.474-.562-1.954-.375-.477-.887-.72-1.53-.72zm0-.734c.914 0 1.648.312 2.203.937.55.617.828 1.438.828 2.47 0 1.042-.277 1.87-.828 2.483-.555.617-1.29.922-2.203.922-.93 0-1.668-.305-2.22-.922C.774-1.41.5-2.237.5-3.28c0-1.033.273-1.853.828-2.47.55-.625 1.29-.938 2.22-.938zm0 0"/></symbol><symbol overflow="visible" id="h"><path d="M.89-6.563h3.766v.75h-2.89v1.938h2.61v.734h-2.61V0H.89zm0 0"/></symbol><symbol overflow="visible"><path d="M.406 1.422V-5.64h4V1.42zM.844.97h3.11v-6.157H.843zm0 0"/></symbol><symbol overflow="visible" id="g"><path d="M.39-2.516H2.5v.64H.39zm0 0"/></symbol></defs><g><path fill="#fff" d="M0 0h300v300H0z"/><path d="M183.39 180.22l-1.386-7.83" stroke-width="1.2" stroke="#0c0" stroke-miterlimit="10" fill="none"/><path d="M182.004 172.39l-1.387-7.827" stroke-width="1.2" stroke="#000" stroke-miterlimit="10" fill="none"/><path d="M178.39 174.72h10v11h-10zm0 0" fill="#fff"/><g fill="#0c0"><use xlink:href="#a" x="178.391" y="183.382"/><use xlink:href="#b" x="184.904" y="183.382"/></g><path d="M180.617 164.563l-14.95-5.426M180.398 160.504l-11.957-4.344M192.79 154.332l-12.173 10.23M165.668 159.137l-2.773-15.66M162.895 143.477l-7.473-2.71" stroke-width="1.2" stroke="#000" stroke-miterlimit="10" fill="none"/><path d="M155.422 140.766l-7.473-2.715" stroke-width="1.2" stroke="#00f" stroke-miterlimit="10" fill="none"/><path d="M162.895 143.477l12.17-10.23M166.52 145.32l9.738-8.187" stroke-width="1.2" stroke="#000" stroke-miterlimit="10" fill="none"/><path d="M147.95 138.05l-1.387-7.827" stroke-width="1.2" stroke="#00f" stroke-miterlimit="10" fill="none"/><path d="M146.563 130.223l-1.39-7.828" stroke-width="1.2" stroke="#000" stroke-miterlimit="10" fill="none"/><path d="M140.95 132.55h14v11h-14zm0 0" fill="#fff"/><g fill="#00f"><use xlink:href="#c" x="140.949" y="141.214"/><use xlink:href="#d" x="147.927" y="141.214"/></g><path d="M145.172 122.395l6.09-5.118" stroke-width="1.2" stroke="#000" stroke-miterlimit="10" fill="none"/><path d="M151.262 117.277l6.086-5.117" stroke-width="1.2" stroke="#00f" stroke-miterlimit="10" fill="none"/><path d="M143.984 118.508l4.868-4.094" stroke-width="1.2" stroke="#000" stroke-miterlimit="10" fill="none"/><path d="M148.852 114.414l4.87-4.094" stroke-width="1.2" stroke="#00f" stroke-miterlimit="10" fill="none"/><path d="M130.227 116.97l14.945 5.425" stroke-width="1.2" stroke="#000" stroke-miterlimit="10" fill="none"/><path d="M157.348 112.16l-1.387-7.828" stroke-width="1.2" stroke="#00f" stroke-miterlimit="10" fill="none"/><path d="M155.96 104.332l-1.386-7.828" stroke-width="1.2" stroke="#000" stroke-miterlimit="10" fill="none"/><path d="M154.348 106.66h7v11h-7zm0 0" fill="#fff"/><use xlink:href="#c" x="154.348" y="115.323" fill="#00f"/><path d="M154.574 96.504l-7.476-2.71" stroke-width="1.2" stroke="#000" stroke-miterlimit="10" fill="none"/><path d="M147.098 93.793l-7.473-2.715" stroke-width="1.2" stroke="#00f" stroke-miterlimit="10" fill="none"/><path d="M151.8 99.48l-5.98-2.17" stroke-width="1.2" stroke="#000" stroke-miterlimit="10" fill="none"/><path d="M145.82 97.31l-5.976-2.173M139.625 91.078l-6.086 5.117" stroke-width="1.2" stroke="#00f" stroke-miterlimit="10" fill="none"/><path d="M133.54 96.195l-6.087 5.114" stroke-width="1.2" stroke="#000" stroke-miterlimit="10" fill="none"/><path d="M136.625 85.578h7v11h-7zm0 0" fill="#fff"/><use xlink:href="#c" x="136.625" y="94.241" fill="#00f"/><path d="M127.453 101.31l2.774 15.66M124.047 103.527l2.22 12.528M112.504 95.883l14.95 5.426M130.227 116.97l-12.172 10.23M118.055 127.2l-14.95-5.427M117.836 123.137l-11.957-4.34M103.105 121.773l-2.773-15.66M103.105 121.773l-12.17 10.23M100.332 106.113l12.172-10.23M103.957 107.957l9.738-8.187M90.934 132.004l.562 7.93" stroke-width="1.2" stroke="#000" stroke-miterlimit="10" fill="none"/><path d="M91.496 139.934l.56 7.93" stroke-width="1.2" stroke="#cc0" stroke-miterlimit="10" fill="none"/><path d="M75.5 128.168l15.434 3.836M76.14 132.184l12.348 3.066" stroke-width="1.2" stroke="#000" stroke-miterlimit="10" fill="none"/><path d="M92.055 147.863l-7.368 2.985" stroke-width="1.2" stroke="#cc0" stroke-miterlimit="10" fill="none"/><path d="M84.688 150.848l-7.372 2.984" stroke-width="1.2" stroke="#000" stroke-miterlimit="10" fill="none"/><path d="M89.055 142.363h6v11h-6zm0 0" fill="#fff"/><use xlink:href="#e" x="89.055" y="151.026" fill="#cc0"/><path d="M77.316 153.832l-10.23-12.172M79.156 150.21l-8.183-9.737M77.316 153.832l-3.832 15.434M67.086 141.66l8.414-13.492M73.484 169.266L58.2 173.66M70.922 166.11l-12.227 3.515M58.2 173.66l-3.833 15.434M53.066 190.44l5.727 5.52" stroke-width="1.2" stroke="#000" stroke-miterlimit="10" fill="none"/><path d="M58.793 195.96l5.723 5.517" stroke-width="1.2" stroke="#f00" stroke-miterlimit="10" fill="none"/><path d="M55.664 187.746l5.723 5.52" stroke-width="1.2" stroke="#000" stroke-miterlimit="10" fill="none"/><path d="M61.387 193.266l5.726 5.52" stroke-width="1.2" stroke="#f00" stroke-miterlimit="10" fill="none"/><path d="M54.367 189.094l-7.64 2.2" stroke-width="1.2" stroke="#000" stroke-miterlimit="10" fill="none"/><path d="M46.727 191.293l-7.64 2.195" stroke-width="1.2" stroke="#00f" stroke-miterlimit="10" fill="none"/><path d="M61.813 194.633h8v11h-8zm0 0" fill="#fff"/><use xlink:href="#f" x="61.813" y="203.296" fill="#f00"/><path d="M39.086 193.488l-1.918 7.72" stroke-width="1.2" stroke="#00f" stroke-miterlimit="10" fill="none"/><path d="M37.168 201.207l-1.918 7.715" stroke-width="1.2" stroke="#f00" stroke-miterlimit="10" fill="none"/><path d="M32.086 187.988h14v11h-14zm0 0" fill="#fff"/><g fill="#00f"><use xlink:href="#c" x="32.086" y="196.651"/><use xlink:href="#d" x="39.063" y="196.651"/></g><path d="M30.25 201.422h11v15h-11zm0 0" fill="#fff"/><use xlink:href="#g" x="30.25" y="208.641" fill="#f00"/><use xlink:href="#f" x="33.058" y="213.523" fill="#f00"/><path d="M175.066 133.246l14.95 5.426M190.016 138.672l2.773 15.66M186.61 140.89l2.218 12.528M192.79 154.332l7.472 2.71" stroke-width="1.2" stroke="#000" stroke-miterlimit="10" fill="none"/><path d="M200.262 157.043l7.472 2.715M207.734 159.758l6.09-5.117" stroke-width="1.2" stroke="#f00" stroke-miterlimit="10" fill="none"/><path d="M213.824 154.64l6.086-5.113" stroke-width="1.2" stroke="#000" stroke-miterlimit="10" fill="none"/><path d="M203.734 154.258h8v11h-8zm0 0" fill="#fff"/><use xlink:href="#f" x="203.734" y="162.921" fill="#f00"/><path d="M219.91 149.527l14.945 5.426M234.855 154.953l2.774 15.656M238.816 155.863l2.22 12.528M247.027 144.72l-12.172 10.233M237.63 170.61l14.948 5.425M252.578 176.035l1.387 7.828" stroke-width="1.2" stroke="#000" stroke-miterlimit="10" fill="none"/><path d="M253.965 183.863l1.387 7.832" stroke-width="1.2" stroke="#3cc" stroke-miterlimit="10" fill="none"/><path d="M252.578 176.035l12.172-10.23M251.387 172.148l9.738-8.183" stroke-width="1.2" stroke="#000" stroke-miterlimit="10" fill="none"/><path d="M252.352 186.195h6v11h-6zm0 0" fill="#fff"/><use xlink:href="#h" x="252.352" y="194.858" fill="#3cc"/><path d="M264.75 165.805l-2.773-15.657M261.977 150.148l-14.95-5.43M259.203 153.12l-11.957-4.34" stroke-width="1.2" stroke="#000" stroke-miterlimit="10" fill="none"/></g></svg>