<svg xmlns="http://www.w3.org/2000/svg" xmlns:xlink="http://www.w3.org/1999/xlink" width="300pt" height="300pt" viewBox="0 0 300 300"><defs><symbol overflow="visible"><path d="M.453 1.594v-7.938h4.5v7.938zm.5-.5h3.5v-6.938h-3.5zm0 0"/></symbol><symbol overflow="visible" id="a"><path d="M4.813-6.344v.86c-.336-.157-.653-.27-.954-.344-.294-.082-.58-.125-.86-.125-.492 0-.867.094-1.125.28-.262.19-.39.454-.39.798 0 .293.085.512.265.656.176.15.504.267.984.36l.547.11c.658.125 1.142.352 1.454.672.32.312.485.734.485 1.265 0 .637-.216 1.122-.642 1.454-.43.325-1.055.485-1.875.485-.312 0-.648-.04-1-.11C1.36-.046 1-.147.625-.296v-.906c.352.2.703.35 1.047.453.35.105.695.156 1.03.156.5 0 .884-.097 1.157-.297.28-.196.42-.485.42-.86 0-.32-.1-.57-.296-.75-.2-.176-.523-.313-.968-.406l-.547-.11C1.81-3.148 1.33-3.36 1.03-3.64.74-3.923.595-4.313.595-4.813c0-.57.203-1.024.61-1.36.405-.344.968-.516 1.687-.516.313 0 .626.032.938.094.32.055.65.137.985.25zm0 0"/></symbol><symbol overflow="visible" id="b"><path d="M3.547-5.953c-.65 0-1.164.242-1.547.72-.375.48-.563 1.13-.563 1.952 0 .835.188 1.49.563 1.967.383.48.898.72 1.547.72.644 0 1.156-.24 1.53-.72.376-.476.564-1.132.564-1.968 0-.822-.187-1.474-.562-1.954-.375-.477-.887-.72-1.53-.72zm0-.734c.914 0 1.648.312 2.203.937.55.617.828 1.438.828 2.47 0 1.042-.277 1.87-.828 2.483-.555.617-1.29.922-2.203.922-.93 0-1.668-.305-2.22-.922C.774-1.41.5-2.237.5-3.28c0-1.033.273-1.853.828-2.47.55-.625 1.29-.938 2.22-.938zm0 0"/></symbol><symbol overflow="visible" id="c"><path d="M.89-6.563H2.08l2.906 5.485v-5.484h.86V0H4.656L1.75-5.484V0H.89zm0 0"/></symbol><symbol overflow="visible" id="d"><path d="M.89-6.563h3.766v.75h-2.89v1.938h2.61v.734h-2.61V0H.89zm0 0"/></symbol></defs><g><path fill="#fff" d="M0 0h300v300H0z"/><path d="M52.746 176.168l2.852 9.914" stroke-width="1.2" stroke="#cc0" stroke-miterlimit="10" fill="none"/><path d="M55.598 186.082l2.85 9.918" stroke-width="1.2" stroke="#f00" stroke-miterlimit="10" fill="none"/><path d="M57.414 174.828l2.852 9.914" stroke-width="1.2" stroke="#cc0" stroke-miterlimit="10" fill="none"/><path d="M60.266 184.742l2.85 9.914" stroke-width="1.2" stroke="#f00" stroke-miterlimit="10" fill="none"/><path d="M57.414 174.828l-2.852-9.918" stroke-width="1.2" stroke="#cc0" stroke-miterlimit="10" fill="none"/><path d="M54.563 164.91l-2.852-9.914" stroke-width="1.2" stroke="#f00" stroke-miterlimit="10" fill="none"/><path d="M52.746 176.168l-2.848-9.914" stroke-width="1.2" stroke="#cc0" stroke-miterlimit="10" fill="none"/><path d="M49.898 166.254l-2.85-9.918" stroke-width="1.2" stroke="#f00" stroke-miterlimit="10" fill="none"/><path d="M55.082 175.496l-9.918 2.852" stroke-width="1.2" stroke="#cc0" stroke-miterlimit="10" fill="none"/><path d="M45.164 178.348l-9.914 2.85" stroke-width="1.2" stroke="#000" stroke-miterlimit="10" fill="none"/><path d="M55.082 175.496l9.914-2.85" stroke-width="1.2" stroke="#cc0" stroke-miterlimit="10" fill="none"/><path d="M64.996 172.645l9.918-2.848" stroke-width="1.2" stroke="#000" stroke-miterlimit="10" fill="none"/><path d="M52.082 169.996h6v11h-6zm0 0" fill="#fff"/><use xlink:href="#a" x="52.082" y="178.659" fill="#cc0"/><path d="M56.785 189.828h8v11h-8zm0 0" fill="#fff"/><use xlink:href="#b" x="56.785" y="198.491" fill="#f00"/><path d="M45.38 150.168h8v11h-8zm0 0" fill="#fff"/><use xlink:href="#b" x="45.379" y="158.831" fill="#f00"/><path d="M74.914 169.797l4.977-20.027M80.12 168.965l3.985-16.02M89.766 184.117l-14.852-14.32M79.89 149.77l19.83-5.704M99.72 144.066l14.854 14.325M97.836 148.996l11.883 11.457M114.574 158.39l-4.976 20.028M114.574 158.39l19.832-5.702M109.598 178.418l-19.832 5.7M106.273 174.32l-15.867 4.563M134.406 152.688l3.52-9.696" stroke-width="1.2" stroke="#000" stroke-miterlimit="10" fill="none"/><path d="M137.926 142.992l3.523-9.7" stroke-width="1.2" stroke="#00f" stroke-miterlimit="10" fill="none"/><path d="M139.672 152.406l2.82-7.758" stroke-width="1.2" stroke="#000" stroke-miterlimit="10" fill="none"/><path d="M142.492 144.648l2.817-7.757" stroke-width="1.2" stroke="#00f" stroke-miterlimit="10" fill="none"/><path d="M150.676 165.38l-16.27-12.692" stroke-width="1.2" stroke="#000" stroke-miterlimit="10" fill="none"/><path d="M141.45 133.293l20.62.707" stroke-width="1.2" stroke="#00f" stroke-miterlimit="10" fill="none"/><path d="M138.45 127.793h7v11h-7zm0 0" fill="#fff"/><use xlink:href="#c" x="138.449" y="136.456" fill="#00f"/><path d="M162.07 134l6.348-8.137" stroke-width="1.2" stroke="#00f" stroke-miterlimit="10" fill="none"/><path d="M168.418 125.863l6.344-8.133" stroke-width="1.2" stroke="#000" stroke-miterlimit="10" fill="none"/><path d="M162.07 134l2.852 9.914" stroke-width="1.2" stroke="#00f" stroke-miterlimit="10" fill="none"/><path d="M164.922 143.914l2.85 9.914" stroke-width="1.2" stroke="#000" stroke-miterlimit="10" fill="none"/><path d="M159.07 128.5h7v11h-7zm0 0" fill="#fff"/><use xlink:href="#c" x="159.07" y="137.163" fill="#00f"/><path d="M177.012 116.816l-3.87-9.562" stroke-width="1.2" stroke="#000" stroke-miterlimit="10" fill="none"/><path d="M173.14 107.254l-3.87-9.563" stroke-width="1.2" stroke="#f00" stroke-miterlimit="10" fill="none"/><path d="M172.512 118.64l-3.87-9.562" stroke-width="1.2" stroke="#000" stroke-miterlimit="10" fill="none"/><path d="M168.64 109.078l-3.87-9.566" stroke-width="1.2" stroke="#f00" stroke-miterlimit="10" fill="none"/><path d="M174.762 117.73l20.437 2.856" stroke-width="1.2" stroke="#000" stroke-miterlimit="10" fill="none"/><path d="M159.02 93.102h8v11h-8zm0 0" fill="#fff"/><use xlink:href="#b" x="159.02" y="101.765" fill="#f00"/><path d="M167.773 153.828l-17.097 11.55M167.773 153.828l19.395 7.043M187.168 160.87l3.598 20.32M192.31 162.06l2.877 16.252M202.965 147.598l-15.797 13.273M190.766 181.19l19.394 7.044M210.16 188.234l15.8-13.273M208.617 183.19l12.64-10.62M225.96 174.96l-3.6-20.32M225.96 174.96l19.395 7.044M222.36 154.64l-19.395-7.042M218.766 158.5l-15.516-5.633M245.355 182.004l9.696 3.52" stroke-width="1.2" stroke="#000" stroke-miterlimit="10" fill="none"/><path d="M255.05 185.523l9.7 3.524" stroke-width="1.2" stroke="#3cc" stroke-miterlimit="10" fill="none"/><path d="M245.355 182.004l-3.523 9.695" stroke-width="1.2" stroke="#000" stroke-miterlimit="10" fill="none"/><path d="M241.832 191.7l-3.52 9.698" stroke-width="1.2" stroke="#3cc" stroke-miterlimit="10" fill="none"/><path d="M245.355 182.004l3.52-9.7" stroke-width="1.2" stroke="#000" stroke-miterlimit="10" fill="none"/><path d="M248.875 172.305l3.523-9.7" stroke-width="1.2" stroke="#3cc" stroke-miterlimit="10" fill="none"/><path d="M261.75 183.547h6v11h-6zm0 0" fill="#fff"/><use xlink:href="#d" x="261.75" y="192.21" fill="#3cc"/><path d="M232.313 195.898h6v11h-6zm0 0" fill="#fff"/><use xlink:href="#d" x="232.313" y="204.562" fill="#3cc"/><path d="M249.398 157.105h6v11h-6zm0 0" fill="#fff"/><use xlink:href="#d" x="249.398" y="165.769" fill="#3cc"/></g></svg>