<svg xmlns="http://www.w3.org/2000/svg" xmlns:xlink="http://www.w3.org/1999/xlink" width="300pt" height="300pt" viewBox="0 0 300 300"><defs><symbol overflow="visible"><path d="M.594 2.125V-8.47h6V2.126zm.672-.672h4.671V-7.78h-4.67zm0 0"/></symbol><symbol overflow="visible" id="a"><path d="M4.734-7.953c-.867 0-1.554.324-2.062.97-.5.635-.75 1.51-.75 2.624 0 1.094.25 1.965.75 2.61.508.637 1.195.953 2.062.953.852 0 1.532-.316 2.032-.953.507-.645.765-1.516.765-2.61 0-1.113-.257-1.988-.764-2.624-.5-.645-1.18-.97-2.032-.97zm0-.953c1.22 0 2.192.414 2.922 1.234.74.824 1.11 1.93 1.11 3.313 0 1.376-.37 2.477-1.11 3.298C6.926-.24 5.953.17 4.734.17c-1.23 0-2.214-.41-2.953-1.234C1.04-1.882.673-2.984.673-4.36c0-1.382.367-2.488 1.11-3.312.738-.82 1.722-1.234 2.952-1.234zm0 0"/></symbol><symbol overflow="visible" id="b"><path d="M1.172-8.75H2.36v3.594h4.296V-8.75h1.188V0H6.656v-4.172H2.36V0H1.17zm0 0"/></symbol></defs><g><path fill="#fff" d="M0 0h300v300H0z"/><path d="M214.246 194.406l-13.742-5.363" stroke-width="1.2" stroke="#f00" stroke-miterlimit="10" fill="none"/><path d="M200.504 189.043l-13.738-5.363M237.273 175.97l-11.515 9.218" stroke-width="1.2" stroke="#000" stroke-miterlimit="10" fill="none"/><path d="M225.758 185.188l-11.512 9.218" stroke-width="1.2" stroke="#f00" stroke-miterlimit="10" fill="none"/><path d="M209.246 187.406h10v14h-10zm0 0" fill="#fff"/><use xlink:href="#a" x="209.246" y="198.545" fill="#f00"/><path d="M186.766 183.68l-4.45-29.16M179.46 181.813l-3.562-23.33M163.738 202.117l23.028-18.437M182.316 154.52l-27.48-10.723M182.316 154.52l23.024-18.434M154.836 143.797l-2.227-14.578" stroke-width="1.2" stroke="#000" stroke-miterlimit="10" fill="none"/><path d="M152.61 129.22l-2.227-14.583" stroke-width="1.2" stroke="#f00" stroke-miterlimit="10" fill="none"/><path d="M154.836 143.797L131.81 162.23M156.87 151.06l-18.42 14.745" stroke-width="1.2" stroke="#000" stroke-miterlimit="10" fill="none"/><path d="M141.383 107.637h19v14h-19zm0 0" fill="#fff"/><g fill="#f00"><use xlink:href="#b" x="141.383" y="118.775"/><use xlink:href="#a" x="150.406" y="118.775"/></g><path d="M131.81 162.23l-13.74-5.36" stroke-width="1.2" stroke="#000" stroke-miterlimit="10" fill="none"/><path d="M118.07 156.87l-13.738-5.362" stroke-width="1.2" stroke="#f00" stroke-miterlimit="10" fill="none"/><path d="M131.81 162.23l4.452 29.16" stroke-width="1.2" stroke="#000" stroke-miterlimit="10" fill="none"/><path d="M104.332 151.508l-2.227-14.582" stroke-width="1.2" stroke="#f00" stroke-miterlimit="10" fill="none"/><path d="M102.105 136.926l-2.226-14.578" stroke-width="1.2" stroke="#000" stroke-miterlimit="10" fill="none"/><path d="M99.332 144.508h10v14h-10zm0 0" fill="#fff"/><use xlink:href="#a" x="99.332" y="155.646" fill="#f00"/><path d="M99.88 122.348L72.4 111.625M75.832 111.098L71.38 81.94M68.97 112.148l-4.45-29.16M136.262 191.39l-11.516 9.22" stroke-width="1.2" stroke="#000" stroke-miterlimit="10" fill="none"/><path d="M124.746 200.61l-11.512 9.214" stroke-width="1.2" stroke="#f00" stroke-miterlimit="10" fill="none"/><path d="M136.262 191.39l27.476 10.727M141.53 185.996l21.986 8.582" stroke-width="1.2" stroke="#000" stroke-miterlimit="10" fill="none"/><path d="M113.234 209.824l-13.738-5.36" stroke-width="1.2" stroke="#f00" stroke-miterlimit="10" fill="none"/><path d="M99.496 204.465l-13.742-5.363" stroke-width="1.2" stroke="#000" stroke-miterlimit="10" fill="none"/><path d="M108.234 202.824h10v14h-10zm0 0" fill="#fff"/><use xlink:href="#a" x="108.234" y="213.963" fill="#f00"/><path d="M85.754 199.102l-23.027 18.433M63.988 214.305l-27.476-10.727M61.465 220.77l-27.477-10.727M208.773 135.563l-2.226-14.58" stroke-width="1.2" stroke="#000" stroke-miterlimit="10" fill="none"/><path d="M206.547 120.984l-2.227-14.582" stroke-width="1.2" stroke="#f00" stroke-miterlimit="10" fill="none"/><path d="M201.91 136.61l-2.226-14.58" stroke-width="1.2" stroke="#000" stroke-miterlimit="10" fill="none"/><path d="M199.684 122.03l-2.223-14.58" stroke-width="1.2" stroke="#f00" stroke-miterlimit="10" fill="none"/><path d="M205.34 136.086l27.48 10.726" stroke-width="1.2" stroke="#000" stroke-miterlimit="10" fill="none"/><path d="M195.89 99.926h10v14h-10zm0 0" fill="#fff"/><use xlink:href="#a" x="195.891" y="111.064" fill="#f00"/><path d="M232.82 146.813l4.453 29.156M226.402 150.773l3.563 23.33M237.273 175.97l27.477 10.725" stroke-width="1.2" stroke="#000" stroke-miterlimit="10" fill="none"/></g></svg>