<svg xmlns="http://www.w3.org/2000/svg" xmlns:xlink="http://www.w3.org/1999/xlink" width="300pt" height="300pt" viewBox="0 0 300 300"><defs><symbol overflow="visible"><path d="M.453 1.594v-7.938h4.5v7.938zm.5-.5h3.5v-6.938h-3.5zm0 0"/></symbol><symbol overflow="visible" id="a"><path d="M4.813-6.344v.86c-.336-.157-.653-.27-.954-.344-.294-.082-.58-.125-.86-.125-.492 0-.867.094-1.125.28-.262.19-.39.454-.39.798 0 .293.085.512.265.656.176.15.504.267.984.36l.547.11c.658.125 1.142.352 1.454.672.32.312.485.734.485 1.265 0 .637-.216 1.122-.642 1.454-.43.325-1.055.485-1.875.485-.312 0-.648-.04-1-.11C1.36-.046 1-.147.625-.296v-.906c.352.2.703.35 1.047.453.35.105.695.156 1.03.156.5 0 .884-.097 1.157-.297.28-.196.42-.485.42-.86 0-.32-.1-.57-.296-.75-.2-.176-.523-.313-.968-.406l-.547-.11C1.81-3.148 1.33-3.36 1.03-3.64.74-3.923.595-4.313.595-4.813c0-.57.203-1.024.61-1.36.405-.344.968-.516 1.687-.516.313 0 .626.032.938.094.32.055.65.137.985.25zm0 0"/></symbol><symbol overflow="visible" id="b"><path d="M3.547-5.953c-.65 0-1.164.242-1.547.72-.375.48-.563 1.13-.563 1.952 0 .835.188 1.49.563 1.967.383.48.898.72 1.547.72.644 0 1.156-.24 1.53-.72.376-.476.564-1.132.564-1.968 0-.822-.187-1.474-.562-1.954-.375-.477-.887-.72-1.53-.72zm0-.734c.914 0 1.648.312 2.203.937.55.617.828 1.438.828 2.47 0 1.042-.277 1.87-.828 2.483-.555.617-1.29.922-2.203.922-.93 0-1.668-.305-2.22-.922C.774-1.41.5-2.237.5-3.28c0-1.033.273-1.853.828-2.47.55-.625 1.29-.938 2.22-.938zm0 0"/></symbol><symbol overflow="visible" id="c"><path d="M.89-6.563H2.08l2.906 5.485v-5.484h.86V0H4.656L1.75-5.484V0H.89zm0 0"/></symbol><symbol overflow="visible" id="d"><path d="M.89-6.563h.876v2.688H5v-2.688h.89V0H5v-3.125H1.766V0H.89zm0 0"/></symbol></defs><g><path fill="#fff" d="M0 0h300v300H0z"/><path d="M249.82 183.242l2.563-8.46" stroke-width="1.2" stroke="#cc0" stroke-miterlimit="10" fill="none"/><path d="M252.383 174.78l2.558-8.456" stroke-width="1.2" stroke="#f00" stroke-miterlimit="10" fill="none"/><path d="M245.84 182.035l2.562-8.457" stroke-width="1.2" stroke="#cc0" stroke-miterlimit="10" fill="none"/><path d="M248.402 173.578l2.56-8.46" stroke-width="1.2" stroke="#f00" stroke-miterlimit="10" fill="none"/><path d="M245.84 182.035l-2.56 8.46" stroke-width="1.2" stroke="#cc0" stroke-miterlimit="10" fill="none"/><path d="M243.28 190.496l-2.56 8.457" stroke-width="1.2" stroke="#f00" stroke-miterlimit="10" fill="none"/><path d="M249.82 183.242l-2.558 8.457" stroke-width="1.2" stroke="#cc0" stroke-miterlimit="10" fill="none"/><path d="M247.262 191.7l-2.56 8.46" stroke-width="1.2" stroke="#f00" stroke-miterlimit="10" fill="none"/><path d="M247.832 182.637l8.457 2.562" stroke-width="1.2" stroke="#cc0" stroke-miterlimit="10" fill="none"/><path d="M256.29 185.2l8.46 2.558" stroke-width="1.2" stroke="#000" stroke-miterlimit="10" fill="none"/><path d="M247.832 182.637l-8.46-2.56" stroke-width="1.2" stroke="#cc0" stroke-miterlimit="10" fill="none"/><path d="M239.37 180.078l-8.456-2.558" stroke-width="1.2" stroke="#000" stroke-miterlimit="10" fill="none"/><path d="M244.832 177.137h6v11h-6zm0 0" fill="#fff"/><use xlink:href="#a" x="244.832" y="185.8" fill="#cc0"/><path d="M248.953 160.22h8v11h-8zm0 0" fill="#fff"/><use xlink:href="#b" x="248.953" y="168.882" fill="#f00"/><path d="M234.71 194.06h8v11h-8zm0 0" fill="#fff"/><use xlink:href="#b" x="234.711" y="202.722" fill="#f00"/><path d="M230.914 177.52l-12.894 12.09M226.78 175.69l-10.315 9.677M226.89 160.305l4.024 17.215M218.02 189.61l-16.918-5.122M201.102 184.488l-4.024-17.21M204.75 181.82l-3.22-13.77M197.078 167.277l-8.46-2.562" stroke-width="1.2" stroke="#000" stroke-miterlimit="10" fill="none"/><path d="M188.617 164.715l-8.457-2.56" stroke-width="1.2" stroke="#00f" stroke-miterlimit="10" fill="none"/><path d="M197.078 167.277l12.895-12.093" stroke-width="1.2" stroke="#000" stroke-miterlimit="10" fill="none"/><path d="M180.16 162.156l-14.09 10.676" stroke-width="1.2" stroke="#00f" stroke-miterlimit="10" fill="none"/><path d="M174.36 145.457l2.898 8.348" stroke-width="1.2" stroke="#000" stroke-miterlimit="10" fill="none"/><path d="M177.258 153.805l2.902 8.35" stroke-width="1.2" stroke="#00f" stroke-miterlimit="10" fill="none"/><path d="M177.16 156.656h7v11h-7zm0 0" fill="#fff"/><use xlink:href="#c" x="177.16" y="165.319" fill="#00f"/><path d="M166.07 172.832l-7.254-5.05" stroke-width="1.2" stroke="#00f" stroke-miterlimit="10" fill="none"/><path d="M158.816 167.78l-7.25-5.046" stroke-width="1.2" stroke="#000" stroke-miterlimit="10" fill="none"/><path d="M166.996 168.41l-5.8-4.043" stroke-width="1.2" stroke="#00f" stroke-miterlimit="10" fill="none"/><path d="M161.195 164.367l-5.804-4.04" stroke-width="1.2" stroke="#000" stroke-miterlimit="10" fill="none"/><path d="M163.07 167.332h7v11h-7zm0 0" fill="#fff"/><use xlink:href="#c" x="163.07" y="175.995" fill="#00f"/><path d="M151.566 162.734l5.118-16.918M151.566 162.734l-16.7 5.8M156.684 145.816l17.675-.36M158.535 149.938l14.14-.286M174.36 145.457l10.097-14.508M184.457 130.95l17.613 1.49M186.57 126.953l14.09 1.195M176.94 114.95l7.517 16M202.07 132.44l10.098-14.506M212.168 117.934l-7.516-16M207.652 118.102l-6.01-12.797M204.652 101.934l-17.613-1.493M187.04 100.44l-10.1 14.51M189.445 104.27l-8.082 11.605M134.867 168.535l-6.687-5.78" stroke-width="1.2" stroke="#000" stroke-miterlimit="10" fill="none"/><path d="M128.18 162.754l-6.684-5.777M121.496 156.977l-8.35 2.898" stroke-width="1.2" stroke="#00f" stroke-miterlimit="10" fill="none"/><path d="M113.145 159.875l-8.348 2.902" stroke-width="1.2" stroke="#000" stroke-miterlimit="10" fill="none"/><path d="M114.496 151.477h14v11h-14zm0 0" fill="#fff"/><g fill="#00f"><use xlink:href="#c" x="114.496" y="160.14"/><use xlink:href="#d" x="121.474" y="160.14"/></g><path d="M102.754 162.387l-1.66 8.68" stroke-width="1.2" stroke="#000" stroke-miterlimit="10" fill="none"/><path d="M101.094 171.066l-1.664 8.68" stroke-width="1.2" stroke="#f00" stroke-miterlimit="10" fill="none"/><path d="M106.84 163.168l-1.66 8.68" stroke-width="1.2" stroke="#000" stroke-miterlimit="10" fill="none"/><path d="M105.18 171.848l-1.664 8.68" stroke-width="1.2" stroke="#f00" stroke-miterlimit="10" fill="none"/><path d="M104.797 162.777l-6.684-5.78" stroke-width="1.2" stroke="#000" stroke-miterlimit="10" fill="none"/><path d="M98.113 156.996l-6.687-5.777" stroke-width="1.2" stroke="#00f" stroke-miterlimit="10" fill="none"/><path d="M97.473 174.637h8v11h-8zm0 0" fill="#fff"/><use xlink:href="#b" x="97.473" y="183.3" fill="#f00"/><path d="M91.426 151.22l-8.348 2.897" stroke-width="1.2" stroke="#00f" stroke-miterlimit="10" fill="none"/><path d="M83.078 154.117l-8.35 2.903" stroke-width="1.2" stroke="#000" stroke-miterlimit="10" fill="none"/><path d="M84.426 145.72h14v11h-14zm0 0" fill="#fff"/><g fill="#00f"><use xlink:href="#c" x="84.426" y="154.382"/><use xlink:href="#d" x="91.403" y="154.382"/></g><path d="M74.727 157.02l-2.016 17.558M62.258 144.492l12.47 12.528M72.71 174.578l-14.987 9.37M57.723 183.95l-16.672-5.876M41.05 178.074l-5.8-16.695M35.25 161.38l9.438-14.946M44.688 146.434l17.57-1.942M209.973 155.184l16.918 5.12M210.457 159.676l13.535 4.097" stroke-width="1.2" stroke="#000" stroke-miterlimit="10" fill="none"/></g></svg>