<svg xmlns="http://www.w3.org/2000/svg" xmlns:xlink="http://www.w3.org/1999/xlink" width="300pt" height="300pt" viewBox="0 0 300 300"><defs><symbol overflow="visible"><path d="M.453 1.594v-7.938h4.5v7.938zm.5-.5h3.5v-6.938h-3.5zm0 0"/></symbol><symbol overflow="visible" id="a"><path d="M4.813-6.344v.86c-.336-.157-.653-.27-.954-.344-.294-.082-.58-.125-.86-.125-.492 0-.867.094-1.125.28-.262.19-.39.454-.39.798 0 .293.085.512.265.656.176.15.504.267.984.36l.547.11c.658.125 1.142.352 1.454.672.32.312.485.734.485 1.265 0 .637-.216 1.122-.642 1.454-.43.325-1.055.485-1.875.485-.312 0-.648-.04-1-.11C1.36-.046 1-.147.625-.296v-.906c.352.2.703.35 1.047.453.35.105.695.156 1.03.156.5 0 .884-.097 1.157-.297.28-.196.42-.485.42-.86 0-.32-.1-.57-.296-.75-.2-.176-.523-.313-.968-.406l-.547-.11C1.81-3.148 1.33-3.36 1.03-3.64.74-3.923.595-4.313.595-4.813c0-.57.203-1.024.61-1.36.405-.344.968-.516 1.687-.516.313 0 .626.032.938.094.32.055.65.137.985.25zm0 0"/></symbol><symbol overflow="visible" id="b"><path d="M3.547-5.953c-.65 0-1.164.242-1.547.72-.375.48-.563 1.13-.563 1.952 0 .835.188 1.49.563 1.967.383.48.898.72 1.547.72.644 0 1.156-.24 1.53-.72.376-.476.564-1.132.564-1.968 0-.822-.187-1.474-.562-1.954-.375-.477-.887-.72-1.53-.72zm0-.734c.914 0 1.648.312 2.203.937.55.617.828 1.438.828 2.47 0 1.042-.277 1.87-.828 2.483-.555.617-1.29.922-2.203.922-.93 0-1.668-.305-2.22-.922C.774-1.41.5-2.237.5-3.28c0-1.033.273-1.853.828-2.47.55-.625 1.29-.938 2.22-.938zm0 0"/></symbol><symbol overflow="visible" id="c"><path d="M.89-6.563h.876v2.688H5v-2.688h.89V0H5v-3.125H1.766V0H.89zm0 0"/></symbol><symbol overflow="visible" id="e"><path d="M.89-6.563H2.08l2.906 5.485v-5.484h.86V0H4.656L1.75-5.484V0H.89zm0 0"/></symbol><symbol overflow="visible"><path d="M.406 1.422V-5.64h4V1.42zM.844.97h3.11v-6.157H.843zm0 0"/></symbol><symbol overflow="visible" id="d"><path d="M1.53-.672h2.767V0H.594v-.672c.29-.3.695-.71 1.22-1.234.518-.532.842-.867.967-1.016.26-.28.44-.52.533-.72.1-.194.156-.39.156-.577 0-.31-.11-.565-.33-.764-.218-.196-.5-.297-.843-.297-.25 0-.516.046-.797.14-.273.085-.563.214-.875.39v-.797c.32-.133.617-.234.89-.297.282-.062.536-.093.766-.093.603 0 1.083.152 1.44.453.362.304.546.703.546 1.203 0 .24-.047.468-.14.686-.095.22-.26.477-.485.766-.074.074-.288.293-.64.656-.344.356-.836.856-1.47 1.5zm0 0"/></symbol></defs><g><path fill="#fff" d="M0 0h300v300H0z"/><path d="M52.617 123.188l1.758-7.77" stroke-width="1.2" stroke="#cc0" stroke-miterlimit="10" fill="none"/><path d="M54.375 115.418l1.758-7.77" stroke-width="1.2" stroke="#f00" stroke-miterlimit="10" fill="none"/><path d="M48.96 122.36l1.76-7.77" stroke-width="1.2" stroke="#cc0" stroke-miterlimit="10" fill="none"/><path d="M50.72 114.59l1.757-7.77" stroke-width="1.2" stroke="#f00" stroke-miterlimit="10" fill="none"/><path d="M48.96 122.36l-1.757 7.77" stroke-width="1.2" stroke="#cc0" stroke-miterlimit="10" fill="none"/><path d="M47.203 130.13l-1.758 7.768" stroke-width="1.2" stroke="#f00" stroke-miterlimit="10" fill="none"/><path d="M52.617 123.188l-1.758 7.77" stroke-width="1.2" stroke="#cc0" stroke-miterlimit="10" fill="none"/><path d="M50.86 130.957l-1.758 7.77" stroke-width="1.2" stroke="#f00" stroke-miterlimit="10" fill="none"/><path d="M50.79 122.773l-7.77-1.757" stroke-width="1.2" stroke="#cc0" stroke-miterlimit="10" fill="none"/><path d="M43.02 121.016l-7.77-1.758" stroke-width="1.2" stroke="#00f" stroke-miterlimit="10" fill="none"/><path d="M50.79 122.773l7.77 1.758" stroke-width="1.2" stroke="#cc0" stroke-miterlimit="10" fill="none"/><path d="M58.56 124.53l7.768 1.76" stroke-width="1.2" stroke="#000" stroke-miterlimit="10" fill="none"/><path d="M47.79 117.273h6v11h-6zm0 0" fill="#fff"/><use xlink:href="#a" x="47.789" y="125.937" fill="#cc0"/><path d="M50.305 101.734h8v11h-8zm0 0" fill="#fff"/><use xlink:href="#b" x="50.305" y="110.397" fill="#f00"/><path d="M43.273 132.813h8v11h-8zm0 0" fill="#fff"/><use xlink:href="#b" x="43.273" y="141.476" fill="#f00"/><path d="M16.25 111.258h19v16h-19zm0 0" fill="#fff"/><use xlink:href="#c" x="16.25" y="119.921" fill="#00f"/><use xlink:href="#d" x="23.265" y="124.804" fill="#00f"/><use xlink:href="#e" x="28.215" y="119.921" fill="#00f"/><path d="M66.328 126.29l10.817-11.7M70.164 127.664l8.652-9.36M71.055 141.508l-4.727-15.22M77.145 114.59l15.54 3.52M92.684 118.11l4.726 15.214M89.578 120.742l3.777 12.172M97.41 133.324l7.77 1.758" stroke-width="1.2" stroke="#000" stroke-miterlimit="10" fill="none"/><path d="M105.18 135.082l7.77 1.758" stroke-width="1.2" stroke="#00f" stroke-miterlimit="10" fill="none"/><path d="M97.41 133.324l-10.816 11.7" stroke-width="1.2" stroke="#000" stroke-miterlimit="10" fill="none"/><path d="M112.95 136.84l11.976-10.504" stroke-width="1.2" stroke="#00f" stroke-miterlimit="10" fill="none"/><path d="M119.238 151.48l-3.144-7.32" stroke-width="1.2" stroke="#000" stroke-miterlimit="10" fill="none"/><path d="M116.094 144.16l-3.145-7.32" stroke-width="1.2" stroke="#00f" stroke-miterlimit="10" fill="none"/><path d="M109.95 131.34h7v11h-7zm0 0" fill="#fff"/><use xlink:href="#e" x="109.949" y="140.003" fill="#00f"/><path d="M124.926 126.336l6.847 4.074" stroke-width="1.2" stroke="#00f" stroke-miterlimit="10" fill="none"/><path d="M131.773 130.41l6.848 4.07" stroke-width="1.2" stroke="#000" stroke-miterlimit="10" fill="none"/><path d="M124.38 130.37l5.475 3.26" stroke-width="1.2" stroke="#00f" stroke-miterlimit="10" fill="none"/><path d="M129.855 133.63l5.477 3.26" stroke-width="1.2" stroke="#000" stroke-miterlimit="10" fill="none"/><path d="M121.926 120.836h7v11h-7zm0 0" fill="#fff"/><use xlink:href="#e" x="121.926" y="129.499" fill="#00f"/><path d="M138.62 134.48l-3.518 15.543M138.62 134.48l14.638-6.285M135.102 150.023l-15.864 1.457M133.172 146.434l-12.692 1.168M119.238 151.48l-8.148 13.692M111.09 165.172l-15.93-.207M109.45 168.898l-12.747-.168M118.875 179.074l-7.785-13.902M95.16 164.965l-8.148 13.69M87.012 178.656l7.785 13.9M91.063 178.215l6.226 11.12M94.797 192.555l15.933.21M110.73 192.766l8.145-13.692M108.32 189.48l6.52-10.953M153.258 128.195l12.765 9.532M166.023 137.727l14.64-6.29M180.664 131.438l6.383 4.765" stroke-width="1.2" stroke="#000" stroke-miterlimit="10" fill="none"/><path d="M187.047 136.203l6.383 4.77M193.43 140.973l7.32-3.145" stroke-width="1.2" stroke="#00f" stroke-miterlimit="10" fill="none"/><path d="M200.75 137.828l7.316-3.144" stroke-width="1.2" stroke="#000" stroke-miterlimit="10" fill="none"/><path d="M186.43 135.473h14v11h-14zm0 0" fill="#fff"/><g fill="#00f"><use xlink:href="#e" x="186.43" y="144.136"/><use xlink:href="#c" x="193.407" y="144.136"/></g><path d="M209.93 134.902l.937-7.91" stroke-width="1.2" stroke="#000" stroke-miterlimit="10" fill="none"/><path d="M210.867 126.992l.934-7.914" stroke-width="1.2" stroke="#f00" stroke-miterlimit="10" fill="none"/><path d="M206.207 134.46l.938-7.91" stroke-width="1.2" stroke="#000" stroke-miterlimit="10" fill="none"/><path d="M207.145 126.55l.933-7.91" stroke-width="1.2" stroke="#f00" stroke-miterlimit="10" fill="none"/><path d="M208.066 134.684l6.383 4.765" stroke-width="1.2" stroke="#000" stroke-miterlimit="10" fill="none"/><path d="M214.45 139.45l6.382 4.765" stroke-width="1.2" stroke="#00f" stroke-miterlimit="10" fill="none"/><path d="M205.94 113.36h8v11h-8zm0 0" fill="#fff"/><use xlink:href="#b" x="205.941" y="122.022" fill="#f00"/><path d="M220.832 144.215l7.32-3.145" stroke-width="1.2" stroke="#00f" stroke-miterlimit="10" fill="none"/><path d="M228.152 141.07l7.32-3.144" stroke-width="1.2" stroke="#000" stroke-miterlimit="10" fill="none"/><path d="M213.832 138.715h14v11h-14zm0 0" fill="#fff"/><g fill="#00f"><use xlink:href="#e" x="213.832" y="147.378"/><use xlink:href="#c" x="220.81" y="147.378"/></g><path d="M235.473 137.926l12.765 9.535M237.344 122.105l-1.87 15.82M233.598 153.746l1.875-15.82M248.238 147.46l14.64-6.288M262.88 141.172l1.87-15.824M261.004 156.992l1.875-15.82M264.75 125.348l-12.766-9.532M251.984 115.816l-14.64 6.29M251.984 115.816l-11.91 32.825M240.074 148.64l6.29 14.64M246.363 163.28l-12.765-9.534M246.363 163.28l14.64-6.288M86.594 145.023l-15.54-3.515M85.867 141.016l-12.433-2.813" stroke-width="1.2" stroke="#000" stroke-miterlimit="10" fill="none"/></g></svg>