<svg xmlns="http://www.w3.org/2000/svg" xmlns:xlink="http://www.w3.org/1999/xlink" width="300pt" height="300pt" viewBox="0 0 300 300"><defs><symbol overflow="visible"><path d="M.453 1.594v-7.938h4.5v7.938zm.5-.5h3.5v-6.938h-3.5zm0 0"/></symbol><symbol overflow="visible" id="a"><path d="M4.813-6.344v.86c-.336-.157-.653-.27-.954-.344-.294-.082-.58-.125-.86-.125-.492 0-.867.094-1.125.28-.262.19-.39.454-.39.798 0 .293.085.512.265.656.176.15.504.267.984.36l.547.11c.658.125 1.142.352 1.454.672.32.312.485.734.485 1.265 0 .637-.216 1.122-.642 1.454-.43.325-1.055.485-1.875.485-.312 0-.648-.04-1-.11C1.36-.046 1-.147.625-.296v-.906c.352.2.703.35 1.047.453.35.105.695.156 1.03.156.5 0 .884-.097 1.157-.297.28-.196.42-.485.42-.86 0-.32-.1-.57-.296-.75-.2-.176-.523-.313-.968-.406l-.547-.11C1.81-3.148 1.33-3.36 1.03-3.64.74-3.923.595-4.313.595-4.813c0-.57.203-1.024.61-1.36.405-.344.968-.516 1.687-.516.313 0 .626.032.938.094.32.055.65.137.985.25zm0 0"/></symbol><symbol overflow="visible" id="b"><path d="M3.547-5.953c-.65 0-1.164.242-1.547.72-.375.48-.563 1.13-.563 1.952 0 .835.188 1.49.563 1.967.383.48.898.72 1.547.72.644 0 1.156-.24 1.53-.72.376-.476.564-1.132.564-1.968 0-.822-.187-1.474-.562-1.954-.375-.477-.887-.72-1.53-.72zm0-.734c.914 0 1.648.312 2.203.937.55.617.828 1.438.828 2.47 0 1.042-.277 1.87-.828 2.483-.555.617-1.29.922-2.203.922-.93 0-1.668-.305-2.22-.922C.774-1.41.5-2.237.5-3.28c0-1.033.273-1.853.828-2.47.55-.625 1.29-.938 2.22-.938zm0 0"/></symbol><symbol overflow="visible" id="c"><path d="M.89-6.563H2.08l2.906 5.485v-5.484h.86V0H4.656L1.75-5.484V0H.89zm0 0"/></symbol><symbol overflow="visible" id="d"><path d="M.89-6.563h.876v2.688H5v-2.688h.89V0H5v-3.125H1.766V0H.89zm0 0"/></symbol><symbol overflow="visible"><path d="M.406 1.422V-5.64h4V1.42zM.844.97h3.11v-6.157H.843zm0 0"/></symbol><symbol overflow="visible" id="e"><path d="M3.688-5.016v2.172h2.17v.672H3.69V0H3.03v-2.172H.845v-.672H3.03v-2.172zm0 0"/></symbol></defs><g><path fill="#fff" d="M0 0h300v300H0z"/><path d="M56.62 169.645l-2.71-9.56" stroke-width="1.2" stroke="#cc0" stroke-miterlimit="10" fill="none"/><path d="M53.91 160.086l-2.715-9.563" stroke-width="1.2" stroke="#f00" stroke-miterlimit="10" fill="none"/><path d="M52.125 170.922l-2.715-9.56" stroke-width="1.2" stroke="#cc0" stroke-miterlimit="10" fill="none"/><path d="M49.41 161.363l-2.715-9.562" stroke-width="1.2" stroke="#f00" stroke-miterlimit="10" fill="none"/><path d="M52.125 170.922l2.71 9.562" stroke-width="1.2" stroke="#cc0" stroke-miterlimit="10" fill="none"/><path d="M54.836 180.484l2.715 9.563" stroke-width="1.2" stroke="#f00" stroke-miterlimit="10" fill="none"/><path d="M56.62 169.645l2.716 9.562" stroke-width="1.2" stroke="#cc0" stroke-miterlimit="10" fill="none"/><path d="M59.336 179.207l2.715 9.563" stroke-width="1.2" stroke="#f00" stroke-miterlimit="10" fill="none"/><path d="M54.37 170.285l9.564-2.715" stroke-width="1.2" stroke="#cc0" stroke-miterlimit="10" fill="none"/><path d="M63.934 167.57l9.562-2.71" stroke-width="1.2" stroke="#00f" stroke-miterlimit="10" fill="none"/><path d="M54.37 170.285L44.814 173" stroke-width="1.2" stroke="#cc0" stroke-miterlimit="10" fill="none"/><path d="M44.813 173l-9.563 2.71" stroke-width="1.2" stroke="#000" stroke-miterlimit="10" fill="none"/><path d="M51.37 164.785h6v11h-6zm0 0" fill="#fff"/><use xlink:href="#a" x="51.371" y="173.448" fill="#cc0"/><path d="M44.945 145.66h8v11h-8zm0 0" fill="#fff"/><use xlink:href="#b" x="44.945" y="154.323" fill="#f00"/><path d="M55.8 183.906h8v11h-8zm0 0" fill="#fff"/><use xlink:href="#b" x="55.801" y="192.569" fill="#f00"/><path d="M73.496 164.86l7.13 6.92" stroke-width="1.2" stroke="#00f" stroke-miterlimit="10" fill="none"/><path d="M80.625 171.78l7.133 6.923" stroke-width="1.2" stroke="#cc0" stroke-miterlimit="10" fill="none"/><path d="M73.496 164.86l2.43-9.64" stroke-width="1.2" stroke="#00f" stroke-miterlimit="10" fill="none"/><path d="M75.926 155.22l2.43-9.638" stroke-width="1.2" stroke="#000" stroke-miterlimit="10" fill="none"/><path d="M70.496 159.36h7v11h-7zm0 0" fill="#fff"/><use xlink:href="#c" x="70.496" y="168.022" fill="#00f"/><path d="M89.434 180.332l6.925-7.13" stroke-width="1.2" stroke="#cc0" stroke-miterlimit="10" fill="none"/><path d="M96.36 173.203l6.92-7.133" stroke-width="1.2" stroke="#f00" stroke-miterlimit="10" fill="none"/><path d="M86.078 177.074l6.926-7.13" stroke-width="1.2" stroke="#cc0" stroke-miterlimit="10" fill="none"/><path d="M93.004 169.945l6.922-7.132" stroke-width="1.2" stroke="#f00" stroke-miterlimit="10" fill="none"/><path d="M86.078 177.074l-6.922 7.133" stroke-width="1.2" stroke="#cc0" stroke-miterlimit="10" fill="none"/><path d="M79.156 184.207l-6.922 7.13" stroke-width="1.2" stroke="#f00" stroke-miterlimit="10" fill="none"/><path d="M89.434 180.332l-6.922 7.133" stroke-width="1.2" stroke="#cc0" stroke-miterlimit="10" fill="none"/><path d="M82.512 187.465l-6.922 7.13" stroke-width="1.2" stroke="#f00" stroke-miterlimit="10" fill="none"/><path d="M87.758 178.703l7.13 6.926" stroke-width="1.2" stroke="#cc0" stroke-miterlimit="10" fill="none"/><path d="M94.887 185.63l7.133 6.92" stroke-width="1.2" stroke="#000" stroke-miterlimit="10" fill="none"/><path d="M84.758 173.203h6v11h-6zm0 0" fill="#fff"/><use xlink:href="#a" x="84.758" y="181.866" fill="#cc0"/><path d="M97.605 158.94h8v11h-8zm0 0" fill="#fff"/><use xlink:href="#b" x="97.605" y="167.604" fill="#f00"/><path d="M65.91 187.465h8v11h-8zm0 0" fill="#fff"/><use xlink:href="#b" x="65.91" y="196.128" fill="#f00"/><path d="M78.355 145.582l-14.26-13.848M80.188 140.844L68.78 129.766M97.48 140.156l-19.125 5.426M64.094 131.734l4.863-19.273M68.957 112.46l19.12-5.425M72.145 116.418l15.3-4.344M88.078 107.035l14.262 13.844M102.34 120.88l-4.86 19.276M97.32 121.664l-3.89 15.422M97.48 140.156l7.13 6.922" stroke-width="1.2" stroke="#000" stroke-miterlimit="10" fill="none"/><path d="M104.61 147.078l7.132 6.926M111.742 154.004l9.563-2.715" stroke-width="1.2" stroke="#f00" stroke-miterlimit="10" fill="none"/><path d="M121.305 151.29l9.558-2.716" stroke-width="1.2" stroke="#000" stroke-miterlimit="10" fill="none"/><path d="M107.742 148.504h8v11h-8zm0 0" fill="#fff"/><use xlink:href="#b" x="107.742" y="157.167" fill="#f00"/><path d="M130.863 148.574l14.262 13.848M135.55 146.605l11.407 11.08M135.727 129.3l-4.864 19.274M145.125 162.422l19.125-5.426M164.25 156.996l4.86-19.277M160.2 153.922l3.89-15.418M169.11 137.72l9.562-2.712" stroke-width="1.2" stroke="#000" stroke-miterlimit="10" fill="none"/><path d="M178.672 135.008l9.562-2.715" stroke-width="1.2" stroke="#f00" stroke-miterlimit="10" fill="none"/><path d="M169.11 137.72l-14.262-13.845" stroke-width="1.2" stroke="#000" stroke-miterlimit="10" fill="none"/><path d="M188.234 132.293l7.13 6.922" stroke-width="1.2" stroke="#f00" stroke-miterlimit="10" fill="none"/><path d="M195.363 139.215l7.133 6.926" stroke-width="1.2" stroke="#000" stroke-miterlimit="10" fill="none"/><path d="M184.234 126.793h8v11h-8zm0 0" fill="#fff"/><use xlink:href="#b" x="184.234" y="135.456" fill="#f00"/><path d="M202.496 146.14l19.12-5.43M221.617 140.71l7.133 6.927" stroke-width="1.2" stroke="#000" stroke-miterlimit="10" fill="none"/><path d="M228.75 147.637l7.13 6.922M235.88 154.56l9.792-1.7" stroke-width="1.2" stroke="#00f" stroke-miterlimit="10" fill="none"/><path d="M245.672 152.86l9.793-1.7M233.06 174.238l1.41-9.84" stroke-width="1.2" stroke="#000" stroke-miterlimit="10" fill="none"/><path d="M234.47 164.398l1.41-9.84" stroke-width="1.2" stroke="#00f" stroke-miterlimit="10" fill="none"/><path d="M225.88 147.06h21v15h-21zm0 0" fill="#fff"/><g fill="#00f"><use xlink:href="#c" x="225.879" y="159.16"/><use xlink:href="#d" x="232.856" y="159.16"/></g><use xlink:href="#e" x="239.871" y="154.277" fill="#00f"/><path d="M255.465 151.16l9.285 17.578M264.75 168.738L250.902 183M250.902 183l-17.843-8.762M154.848 123.875l-19.12 5.426M154.215 128.914l-15.3 4.344" stroke-width="1.2" stroke="#000" stroke-miterlimit="10" fill="none"/></g></svg>