<svg xmlns="http://www.w3.org/2000/svg" xmlns:xlink="http://www.w3.org/1999/xlink" width="300pt" height="300pt" viewBox="0 0 300 300"><defs><symbol overflow="visible"><path d="M.547 1.938V-7.75h5.5v9.688zm.625-.61h4.266v-8.47H1.171zm0 0"/></symbol><symbol overflow="visible" id="a"><path d="M1.078-8.016h4.61v.907H2.171v2.36h3.172v.922H2.172V0H1.078zm0 0"/></symbol><symbol overflow="visible" id="b"><path d="M4.328-7.28c-.78 0-1.406.296-1.875.89-.46.585-.687 1.382-.687 2.39 0 1.012.226 1.813.687 2.406.47.586 1.094.875 1.875.875.79 0 1.414-.288 1.875-.874.457-.593.688-1.394.688-2.406 0-1.008-.23-1.805-.687-2.39-.46-.594-1.086-.89-1.875-.89zm0-.892c1.125 0 2.024.383 2.703 1.14C7.708-6.28 8.048-5.27 8.048-4c0 1.262-.34 2.273-1.016 3.03C6.353-.22 5.454.157 4.33.157S2.3-.22 1.625-.97c-.668-.75-1-1.757-1-3.03 0-1.27.332-2.28 1-3.03.676-.76 1.578-1.142 2.703-1.142zm0 0"/></symbol><symbol overflow="visible"><path d="M.453 1.594v-7.938h4.5v7.938zm.5-.5h3.5v-6.938h-3.5zm0 0"/></symbol><symbol overflow="visible" id="c"><path d="M.438-2.828h2.374v.72H.438zm0 0"/></symbol></defs><g><path fill="#fff" d="M0 0h300v300H0z"/><path d="M35.25 186.598l11.883 5.88" stroke-width="1.2" stroke="#3cc" stroke-miterlimit="10" fill="none"/><path d="M47.133 192.477l11.887 5.875" stroke-width="1.2" stroke="#000" stroke-miterlimit="10" fill="none"/><path d="M28.25 180.098h7v13h-7zm0 0" fill="#fff"/><use xlink:href="#a" x="28.25" y="189.999" fill="#3cc"/><path d="M59.02 198.352l-5.88 11.882" stroke-width="1.2" stroke="#000" stroke-miterlimit="10" fill="none"/><path d="M53.14 210.234l-5.874 11.887" stroke-width="1.2" stroke="#3cc" stroke-miterlimit="10" fill="none"/><path d="M59.02 198.352l5.875-11.883" stroke-width="1.2" stroke="#000" stroke-miterlimit="10" fill="none"/><path d="M64.895 186.47l5.875-11.888" stroke-width="1.2" stroke="#3cc" stroke-miterlimit="10" fill="none"/><path d="M59.02 198.352l11.882 5.875" stroke-width="1.2" stroke="#000" stroke-miterlimit="10" fill="none"/><path d="M70.902 204.227l11.883 5.878" stroke-width="1.2" stroke="#f00" stroke-miterlimit="10" fill="none"/><path d="M40.266 215.62h7v13h-7zm0 0" fill="#fff"/><use xlink:href="#a" x="40.266" y="225.522" fill="#3cc"/><path d="M67.77 168.082h7v13h-7zm0 0" fill="#fff"/><use xlink:href="#a" x="67.77" y="177.983" fill="#3cc"/><path d="M82.785 210.105l11.03-7.355" stroke-width="1.2" stroke="#f00" stroke-miterlimit="10" fill="none"/><path d="M93.816 202.75l11.032-7.352" stroke-width="1.2" stroke="#000" stroke-miterlimit="10" fill="none"/><path d="M78.785 203.605h9v13h-9zm0 0" fill="#fff"/><use xlink:href="#b" x="78.785" y="213.507" fill="#f00"/><path d="M104.848 195.398l-1.703-26.46M110.902 192.352l-1.363-21.172M128.617 207.148l-23.77-11.75M103.145 168.938l22.062-14.708M125.207 154.23l23.766 11.754M124.816 160.996l19.016 9.402M148.973 165.984l1.707 26.457M148.973 165.984l22.062-14.71M150.68 192.44l-22.063 14.708M145.012 188.723l-17.65 11.765M171.035 151.273l23.77 11.754M176.18 146.86l19.01 9.402M169.332 124.816l1.703 26.457M194.805 163.027l22.062-14.707M216.867 148.32l-1.707-26.46M210.47 146.078l-1.365-21.172M216.867 148.32l23.77 11.754M215.16 121.86l-23.765-11.75M191.395 110.11l-22.063 14.706M192.648 116.77l-17.652 11.765M169.332 124.816l-23.77-11.754M145.563 113.063l-1.708-26.46M145.563 113.063L123.5 127.77M145.586 89.195l11.03-7.35" stroke-width="1.2" stroke="#000" stroke-miterlimit="10" fill="none"/><path d="M156.617 81.844l11.03-7.356" stroke-width="1.2" stroke="#f00" stroke-miterlimit="10" fill="none"/><path d="M142.125 84.008l11.03-7.356" stroke-width="1.2" stroke="#000" stroke-miterlimit="10" fill="none"/><path d="M153.156 76.652l11.03-7.355" stroke-width="1.2" stroke="#f00" stroke-miterlimit="10" fill="none"/><path d="M143.855 86.602l-11.882-5.875" stroke-width="1.2" stroke="#000" stroke-miterlimit="10" fill="none"/><path d="M131.973 80.727l-11.883-5.88" stroke-width="1.2" stroke="#f00" stroke-miterlimit="10" fill="none"/><path d="M161.918 65.395h9v13h-9zm0 0" fill="#fff"/><use xlink:href="#b" x="161.918" y="75.296" fill="#f00"/><path d="M108.09 66.848h12v16h-12zm0 0" fill="#fff"/><use xlink:href="#c" x="108.09" y="75.098" fill="#f00"/><use xlink:href="#b" x="111.298" y="79.98" fill="#f00"/><path d="M240.637 160.074l1.703 26.46M242.34 186.535l22.41 14.172M221.938 203.47l20.402-16.935M264.75 200.707l-6.555 25.69M258.195 226.398l-26.46 1.707M231.734 228.105l-9.797-24.636M222.707 200.445l-12.848-3.277" stroke-width="1.2" stroke="#000" stroke-miterlimit="10" fill="none"/><path d="M209.86 197.168l-12.844-3.277" stroke-width="1.2" stroke="#f00" stroke-miterlimit="10" fill="none"/><path d="M221.164 206.488l-12.844-3.277" stroke-width="1.2" stroke="#000" stroke-miterlimit="10" fill="none"/><path d="M208.32 203.21l-12.847-3.276" stroke-width="1.2" stroke="#f00" stroke-miterlimit="10" fill="none"/><path d="M187.242 190.414h9v13h-9zm0 0" fill="#fff"/><use xlink:href="#b" x="187.242" y="200.315" fill="#f00"/></g></svg>