<svg xmlns="http://www.w3.org/2000/svg" xmlns:xlink="http://www.w3.org/1999/xlink" width="300pt" height="300pt" viewBox="0 0 300 300"><defs><symbol overflow="visible"><path d="M.453 1.594v-7.938h4.5v7.938zm.5-.5h3.5v-6.938h-3.5zm0 0"/></symbol><symbol overflow="visible" id="a"><path d="M3.547-5.953c-.65 0-1.164.242-1.547.72-.375.48-.563 1.13-.563 1.952 0 .835.188 1.49.563 1.967.383.48.898.72 1.547.72.644 0 1.156-.24 1.53-.72.376-.476.564-1.132.564-1.968 0-.822-.187-1.474-.562-1.954-.375-.477-.887-.72-1.53-.72zm0-.734c.914 0 1.648.312 2.203.937.55.617.828 1.438.828 2.47 0 1.042-.277 1.87-.828 2.483-.555.617-1.29.922-2.203.922-.93 0-1.668-.305-2.22-.922C.774-1.41.5-2.237.5-3.28c0-1.033.273-1.853.828-2.47.55-.625 1.29-.938 2.22-.938zm0 0"/></symbol><symbol overflow="visible" id="b"><path d="M.89-6.563H2.08l2.906 5.485v-5.484h.86V0H4.656L1.75-5.484V0H.89zm0 0"/></symbol><symbol overflow="visible" id="c"><path d="M.89-6.563h.876v2.688H5v-2.688h.89V0H5v-3.125H1.766V0H.89zm0 0"/></symbol><symbol overflow="visible"><path d="M.406 1.422V-5.64h4V1.42zM.844.97h3.11v-6.157H.843zm0 0"/></symbol><symbol overflow="visible" id="d"><path d="M3.688-5.016v2.172h2.17v.672H3.69V0H3.03v-2.172H.845v-.672H3.03v-2.172zm0 0"/></symbol></defs><g><path fill="#fff" d="M0 0h300v300H0z"/><path d="M148.973 191.953l-.977-7.605" stroke-width="1.2" stroke="#f00" stroke-miterlimit="10" fill="none"/><path d="M147.996 184.348l-.976-7.606" stroke-width="1.2" stroke="#000" stroke-miterlimit="10" fill="none"/><path d="M145.39 192.41l-.972-7.6" stroke-width="1.2" stroke="#f00" stroke-miterlimit="10" fill="none"/><path d="M144.418 184.81l-.977-7.607" stroke-width="1.2" stroke="#000" stroke-miterlimit="10" fill="none"/><path d="M143.184 186.684h8v11h-8zm0 0" fill="#fff"/><use xlink:href="#a" x="143.184" y="195.347" fill="#f00"/><path d="M145.23 176.973l6.102-4.645" stroke-width="1.2" stroke="#000" stroke-miterlimit="10" fill="none"/><path d="M151.332 172.328l6.098-4.648" stroke-width="1.2" stroke="#00f" stroke-miterlimit="10" fill="none"/><path d="M145.23 176.973l-14.144-5.914" stroke-width="1.2" stroke="#000" stroke-miterlimit="10" fill="none"/><path d="M157.43 167.68l7.07 2.957" stroke-width="1.2" stroke="#00f" stroke-miterlimit="10" fill="none"/><path d="M164.5 170.637l7.074 2.96M155.48 152.47l.973 7.604" stroke-width="1.2" stroke="#000" stroke-miterlimit="10" fill="none"/><path d="M156.453 160.074l.977 7.606" stroke-width="1.2" stroke="#00f" stroke-miterlimit="10" fill="none"/><path d="M154.43 162.18h7v11h-7zm0 0" fill="#fff"/><use xlink:href="#b" x="154.43" y="170.843" fill="#00f"/><path d="M171.574 173.598l12.2-9.297M183.773 164.3l-.976-7.6" stroke-width="1.2" stroke="#000" stroke-miterlimit="10" fill="none"/><path d="M182.797 156.7l-.977-7.606M181.82 149.094l-7.07-2.957" stroke-width="1.2" stroke="#00f" stroke-miterlimit="10" fill="none"/><path d="M174.75 146.137l-7.074-2.96" stroke-width="1.2" stroke="#000" stroke-miterlimit="10" fill="none"/><path d="M181.82 149.094l6.102-4.65" stroke-width="1.2" stroke="#00f" stroke-miterlimit="10" fill="none"/><path d="M187.922 144.445l6.098-4.644" stroke-width="1.2" stroke="#000" stroke-miterlimit="10" fill="none"/><path d="M171.82 141.594h21v15h-21zm0 0" fill="#fff"/><g fill="#00f"><use xlink:href="#b" x="171.82" y="153.695"/><use xlink:href="#c" x="178.798" y="153.695"/></g><use xlink:href="#d" x="185.813" y="148.813" fill="#00f"/><path d="M167.676 143.176l-12.196 9.293M194.02 139.8l14.144 5.915M208.164 145.715l1.95 15.21M211.938 146.777l1.562 12.168M220.363 136.422l-12.2 9.293M210.113 160.926l14.15 5.914M224.262 166.84l12.195-9.293M223.293 163.043l9.758-7.434M236.457 157.547l-1.95-15.207M236.457 157.547l14.148 5.918M234.508 142.34l-14.145-5.918M231.7 145.078l-11.317-4.734M250.605 163.465l-5.917 14.144M250.605 163.465l5.915-14.145M250.605 163.465l14.145 5.914M131.086 171.06l-12.195 9.292M118.89 180.352l-14.148-5.918M104.742 174.434l-6.55 3.984" stroke-width="1.2" stroke="#000" stroke-miterlimit="10" fill="none"/><path d="M98.19 178.418l-6.55 3.984" stroke-width="1.2" stroke="#00f" stroke-miterlimit="10" fill="none"/><path d="M101.56 172.148l-5.244 3.188" stroke-width="1.2" stroke="#000" stroke-miterlimit="10" fill="none"/><path d="M96.316 175.336l-5.238 3.187" stroke-width="1.2" stroke="#00f" stroke-miterlimit="10" fill="none"/><path d="M101.215 159.512l3.527 14.922" stroke-width="1.2" stroke="#000" stroke-miterlimit="10" fill="none"/><path d="M91.64 182.402l-11.624-10" stroke-width="1.2" stroke="#00f" stroke-miterlimit="10" fill="none"/><path d="M88.64 176.902h7v11h-7zm0 0" fill="#fff"/><use xlink:href="#b" x="88.641" y="185.565" fill="#00f"/><path d="M80.016 172.402l2.957-7.074" stroke-width="1.2" stroke="#00f" stroke-miterlimit="10" fill="none"/><path d="M82.973 165.328l2.96-7.07" stroke-width="1.2" stroke="#000" stroke-miterlimit="10" fill="none"/><path d="M80.016 172.402l-7.46 1.766" stroke-width="1.2" stroke="#00f" stroke-miterlimit="10" fill="none"/><path d="M72.555 174.168l-7.46 1.766" stroke-width="1.2" stroke="#000" stroke-miterlimit="10" fill="none"/><path d="M77.016 166.902h7v11h-7zm0 0" fill="#fff"/><use xlink:href="#b" x="77.016" y="175.565" fill="#00f"/><path d="M85.934 158.258l15.28 1.254M87.164 161.977l12.227 1.003M85.934 158.258l-7.97-13.102M77.965 145.156l7.363-13.45M75.535 142.078l5.89-10.762M62.637 145.504l15.328-.348M85.328 131.707l-7.97-13.102M77.36 118.605l-15.33.348M75.91 122.246l-12.265.277M62.03 118.953l-7.362 13.45M62.03 118.953l-7.968-13.1M54.668 132.402l7.97 13.102M58.547 131.84l6.375 10.48M65.094 175.934l-10.516-11.16M61.418 177.29l-8.414-8.927M60.688 190.617l4.406-14.683M54.578 164.773L39.656 168.3M39.656 168.3L35.25 182.99M42.672 170.81l-3.527 11.75M35.25 182.988l10.516 11.16M45.766 194.148l14.922-3.53M46.43 190.285l11.937-2.824" stroke-width="1.2" stroke="#000" stroke-miterlimit="10" fill="none"/></g></svg>