<svg xmlns="http://www.w3.org/2000/svg" xmlns:xlink="http://www.w3.org/1999/xlink" width="300pt" height="300pt" viewBox="0 0 300 300"><defs><symbol overflow="visible"><path d="M.453 1.594v-7.938h4.5v7.938zm.5-.5h3.5v-6.938h-3.5zm0 0"/></symbol><symbol overflow="visible" id="a"><path d="M.89-6.563h3.766v.75h-2.89v1.938h2.61v.734h-2.61V0H.89zm0 0"/></symbol><symbol overflow="visible" id="b"><path d="M3.547-5.953c-.65 0-1.164.242-1.547.72-.375.48-.563 1.13-.563 1.952 0 .835.188 1.49.563 1.967.383.48.898.72 1.547.72.644 0 1.156-.24 1.53-.72.376-.476.564-1.132.564-1.968 0-.822-.187-1.474-.562-1.954-.375-.477-.887-.72-1.53-.72zm0-.734c.914 0 1.648.312 2.203.937.55.617.828 1.438.828 2.47 0 1.042-.277 1.87-.828 2.483-.555.617-1.29.922-2.203.922-.93 0-1.668-.305-2.22-.922C.774-1.41.5-2.237.5-3.28c0-1.033.273-1.853.828-2.47.55-.625 1.29-.938 2.22-.938zm0 0"/></symbol><symbol overflow="visible" id="c"><path d="M.89-6.563H2.08l2.906 5.485v-5.484h.86V0H4.656L1.75-5.484V0H.89zm0 0"/></symbol><symbol overflow="visible" id="d"><path d="M.89-6.563h.876v2.688H5v-2.688h.89V0H5v-3.125H1.766V0H.89zm0 0"/></symbol><symbol overflow="visible"><path d="M.406 1.422V-5.64h4V1.42zM.844.97h3.11v-6.157H.843zm0 0"/></symbol><symbol overflow="visible" id="e"><path d="M.39-2.516H2.5v.64H.39zm0 0"/></symbol></defs><g><path fill="#fff" d="M0 0h300v300H0z"/><path d="M35.25 166.027l11.29-1.066" stroke-width="1.2" stroke="#3cc" stroke-miterlimit="10" fill="none"/><path d="M46.54 164.96l11.288-1.07" stroke-width="1.2" stroke="#000" stroke-miterlimit="10" fill="none"/><path d="M29.25 160.527h6v11h-6zm0 0" fill="#fff"/><use xlink:href="#a" x="29.25" y="169.19" fill="#3cc"/><path d="M57.828 163.89l9.442-20.624M63.625 164.05l7.55-16.5M70.97 182.375L57.827 163.89M67.27 143.266l22.578-2.137M89.848 141.13l13.14 18.487M86.813 146.07l10.51 14.79M102.988 159.617l-9.437 20.62M102.988 159.617l22.582-2.137M93.55 180.238l-22.58 2.137M90.79 175.14l-18.063 1.712M127.996 158.59l4.72-10.313" stroke-width="1.2" stroke="#000" stroke-miterlimit="10" fill="none"/><path d="M132.715 148.277l4.72-10.308" stroke-width="1.2" stroke="#f00" stroke-miterlimit="10" fill="none"/><path d="M123.145 156.367l4.718-10.308" stroke-width="1.2" stroke="#000" stroke-miterlimit="10" fill="none"/><path d="M127.863 146.06l4.72-10.314" stroke-width="1.2" stroke="#f00" stroke-miterlimit="10" fill="none"/><path d="M125.57 157.48l6.57 9.243" stroke-width="1.2" stroke="#000" stroke-miterlimit="10" fill="none"/><path d="M132.14 166.723l6.57 9.242" stroke-width="1.2" stroke="#00f" stroke-miterlimit="10" fill="none"/><path d="M131.008 131.355h8v11h-8zm0 0" fill="#fff"/><use xlink:href="#b" x="131.008" y="140.019" fill="#f00"/><path d="M161.29 173.828m-2.99-.238l.098 1.035m-3.09-1.277l.196 2.074m-3.184-2.317l.293 3.118m-3.285-3.356l.395 4.153m-3.383-4.395l.488 5.19m-3.48-5.432l.59 6.23m-3.58-6.468l.69 7.265m-2.716-7.43l.754 7.97" stroke="#000" stroke-miterlimit="10" fill="none"/><path d="M131.71 170.465h14v11h-14zm0 0" fill="#fff"/><g fill="#00f"><use xlink:href="#c" x="131.711" y="179.128"/><use xlink:href="#d" x="138.688" y="179.128"/></g><path d="M161.29 173.828l13.14 18.488M161.29 173.828l9.44-20.62M174.43 192.316l22.582-2.136M197.012 190.18l13.14 18.484M202.676 188.934l10.512 14.79M206.45 169.555l-9.438 20.625M210.152 208.664l22.578-2.137M232.73 206.527l9.442-20.625M228.824 202.242l7.55-16.496M242.172 185.902l11.29-1.066" stroke-width="1.2" stroke="#000" stroke-miterlimit="10" fill="none"/><path d="M253.46 184.836l11.29-1.07" stroke-width="1.2" stroke="#f00" stroke-miterlimit="10" fill="none"/><path d="M242.172 185.902l-13.14-18.484" stroke-width="1.2" stroke="#000" stroke-miterlimit="10" fill="none"/><path d="M257.75 178.266h15v11h-15zm0 0" fill="#fff"/><g fill="#f00"><use xlink:href="#b" x="257.75" y="186.929"/><use xlink:href="#d" x="265.092" y="186.929"/></g><path d="M229.03 167.418l-22.58 2.137M227.273 172.945l-18.062 1.707M172.902 151.66l-6.57-9.242" stroke-width="1.2" stroke="#000" stroke-miterlimit="10" fill="none"/><path d="M166.332 142.418l-6.57-9.246" stroke-width="1.2" stroke="#f00" stroke-miterlimit="10" fill="none"/><path d="M168.555 154.75l-6.57-9.242" stroke-width="1.2" stroke="#000" stroke-miterlimit="10" fill="none"/><path d="M161.984 145.508l-6.57-9.242" stroke-width="1.2" stroke="#f00" stroke-miterlimit="10" fill="none"/><path d="M170.73 153.207l11.29-1.07" stroke-width="1.2" stroke="#000" stroke-miterlimit="10" fill="none"/><path d="M182.02 152.137l11.29-1.067" stroke-width="1.2" stroke="#00f" stroke-miterlimit="10" fill="none"/><path d="M149.59 129.22h8v11h-8zm0 0" fill="#fff"/><use xlink:href="#b" x="149.59" y="137.882" fill="#f00"/><path d="M202.75 130.445m-1.707 2.47l.95.433m-2.653 2.035l1.898.867m-3.6 1.602l2.842 1.304m-4.546 1.168l3.793 1.735m-5.497.733l4.743 2.168m-6.446.302l5.688 2.6m-7.39-.132l6.636 3.04m-7.792-1.368l7.28 3.332" stroke="#000" stroke-miterlimit="10" fill="none"/><path d="M186.31 145.57h14v11h-14zm0 0" fill="#fff"/><g fill="#00f"><use xlink:href="#c" x="186.309" y="154.233"/><use xlink:href="#d" x="193.286" y="154.233"/></g><path d="M202.75 130.445l-13.14-18.484M202.75 130.445l22.578-2.136M189.355 109.3l-11.29 1.07" stroke-width="1.2" stroke="#000" stroke-miterlimit="10" fill="none"/><path d="M178.066 110.37l-11.29 1.07" stroke-width="1.2" stroke="#f00" stroke-miterlimit="10" fill="none"/><path d="M189.86 114.617l-11.29 1.067" stroke-width="1.2" stroke="#000" stroke-miterlimit="10" fill="none"/><path d="M178.57 115.684l-11.293 1.07" stroke-width="1.2" stroke="#f00" stroke-miterlimit="10" fill="none"/><path d="M189.61 111.96l4.718-10.312" stroke-width="1.2" stroke="#000" stroke-miterlimit="10" fill="none"/><path d="M194.328 101.648l4.72-10.312" stroke-width="1.2" stroke="#f00" stroke-miterlimit="10" fill="none"/><path d="M159.027 108.598h8v11h-8zm0 0" fill="#fff"/><use xlink:href="#b" x="159.027" y="117.261" fill="#f00"/><path d="M194.047 83.836h11v15h-11zm0 0" fill="#fff"/><use xlink:href="#b" x="194.047" y="95.938" fill="#f00"/><use xlink:href="#e" x="201.389" y="91.055" fill="#f00"/><path d="M225.328 128.31l4.72-10.314" stroke-width="1.2" stroke="#000" stroke-miterlimit="10" fill="none"/><path d="M230.047 117.996l4.72-10.312" stroke-width="1.2" stroke="#f00" stroke-miterlimit="10" fill="none"/><path d="M227.766 102.184h15v11h-15zm0 0" fill="#fff"/><g fill="#f00"><use xlink:href="#b" x="227.766" y="110.847"/><use xlink:href="#d" x="235.107" y="110.847"/></g></g></svg>