<svg xmlns="http://www.w3.org/2000/svg" xmlns:xlink="http://www.w3.org/1999/xlink" width="300pt" height="300pt" viewBox="0 0 300 300"><defs><symbol overflow="visible"><path d="M.453 1.594v-7.938h4.5v7.938zm.5-.5h3.5v-6.938h-3.5zm0 0"/></symbol><symbol overflow="visible" id="a"><path d="M.89-6.563H2.08l2.906 5.485v-5.484h.86V0H4.656L1.75-5.484V0H.89zm0 0"/></symbol><symbol overflow="visible" id="b"><path d="M.89-6.563h.876v2.688H5v-2.688h.89V0H5v-3.125H1.766V0H.89zm0 0"/></symbol></defs><g><path fill="#fff" d="M0 0h300v300H0z"/><path d="M150 178.14l-10.063-7.312" stroke-width="1.2" stroke="#00f" stroke-miterlimit="10" fill="none"/><path d="M139.938 170.828l-10.063-7.308M170.125 163.52l-10.063 7.308" stroke-width="1.2" stroke="#000" stroke-miterlimit="10" fill="none"/><path d="M160.063 170.828L150 178.14" stroke-width="1.2" stroke="#00f" stroke-miterlimit="10" fill="none"/><path d="M143 172.64h14v11h-14zm0 0" fill="#fff"/><g fill="#00f"><use xlink:href="#a" x="143" y="181.304"/><use xlink:href="#b" x="149.978" y="181.304"/></g><path d="M129.875 163.52l7.688-23.657M136.21 162.96l6.15-18.925M129.875 163.52l-23.656 7.683M137.563 139.863h24.875M125.125 118.32l12.438 21.543M162.438 139.863l12.437-21.543M162.438 139.863l7.687 23.657M157.64 144.035l6.15 18.926M174.875 118.32l-12.438-21.543M162.438 96.777h-24.875M137.563 96.777l-12.438 21.543M170.125 163.52l23.656 7.683M193.78 171.203l5.173 24.332M200.023 172.422l4.137 19.465M212.266 154.563l-18.485 16.64M198.953 195.535l23.656 7.688M222.61 203.223l18.484-16.645M220.54 197.207l14.788-13.312M241.094 186.578l-5.172-24.332M241.094 186.578l23.656 7.688M235.922 162.246l-23.656-7.684M231.746 167.043l-18.926-6.148M106.22 171.203l-18.486-16.64M100.457 173.89l-14.79-13.316M101.047 195.535l5.172-24.332M87.734 154.563l-23.656 7.683M64.078 162.246l-5.172 24.332M69.285 165.898l-4.137 19.465M58.906 186.578l18.485 16.645M58.906 186.578l-23.656 7.688M77.39 203.223l23.657-7.688M77.95 196.887l18.925-6.15" stroke-width="1.2" stroke="#000" stroke-miterlimit="10" fill="none"/></g></svg>