<svg xmlns="http://www.w3.org/2000/svg" xmlns:xlink="http://www.w3.org/1999/xlink" width="300pt" height="300pt" viewBox="0 0 300 300"><defs><symbol overflow="visible"><path d="M.453 1.594v-7.938h4.5v7.938zm.5-.5h3.5v-6.938h-3.5zm0 0"/></symbol><symbol overflow="visible" id="a"><path d="M.89-6.563h3.766v.75h-2.89v1.938h2.61v.734h-2.61V0H.89zm0 0"/></symbol><symbol overflow="visible" id="b"><path d="M.89-6.563H2.08l2.906 5.485v-5.484h.86V0H4.656L1.75-5.484V0H.89zm0 0"/></symbol><symbol overflow="visible" id="c"><path d="M.89-6.563h.876v2.688H5v-2.688h.89V0H5v-3.125H1.766V0H.89zm0 0"/></symbol></defs><g><path fill="#fff" d="M0 0h300v300H0z"/><path d="M264.75 108.14l-11.828 3.84" stroke-width="1.2" stroke="#3cc" stroke-miterlimit="10" fill="none"/><path d="M252.922 111.98l-11.828 3.844" stroke-width="1.2" stroke="#000" stroke-miterlimit="10" fill="none"/><path d="M261.75 102.64h6v11h-6zm0 0" fill="#fff"/><use xlink:href="#a" x="261.75" y="111.304" fill="#3cc"/><path d="M241.094 115.824l-5.172 24.332M234.852 117.043l-4.137 19.465M222.61 99.18l18.484 16.644M235.922 140.156l-23.656 7.688M212.266 147.844L193.78 131.2M214.332 141.828l-14.79-13.316M193.78 131.2l5.173-24.333M193.78 131.2l-23.655 7.687M198.953 106.867l23.656-7.687M203.125 111.664l18.926-6.148M170.125 138.887l-10.063-7.313" stroke-width="1.2" stroke="#000" stroke-miterlimit="10" fill="none"/><path d="M160.063 131.574L150 124.266" stroke-width="1.2" stroke="#00f" stroke-miterlimit="10" fill="none"/><path d="M162.438 162.543l7.687-23.656M157.64 158.367l6.15-18.926" stroke-width="1.2" stroke="#000" stroke-miterlimit="10" fill="none"/><path d="M150 124.266l-10.063 7.308" stroke-width="1.2" stroke="#00f" stroke-miterlimit="10" fill="none"/><path d="M139.938 131.574l-10.063 7.313" stroke-width="1.2" stroke="#000" stroke-miterlimit="10" fill="none"/><path d="M143 118.766h14v11h-14zm0 0" fill="#fff"/><g fill="#00f"><use xlink:href="#b" x="143" y="127.429"/><use xlink:href="#c" x="149.978" y="127.429"/></g><path d="M129.875 138.887l7.688 23.656M136.21 139.44l6.15 18.927M129.875 138.887L106.22 131.2M137.563 162.543h24.875M129.875 186.2l7.688-23.657M162.438 162.543l7.687 23.656M170.125 186.2L150 200.82M150 200.82l-20.125-14.62M106.22 131.2l-5.173-24.333M99.977 129.98l-4.137-19.46M87.734 147.844L106.22 131.2M101.047 106.867L77.39 99.18M77.39 99.18l-18.484 16.644M79.46 105.195l-14.788 13.317M58.906 115.824l-11.828-3.844" stroke-width="1.2" stroke="#000" stroke-miterlimit="10" fill="none"/><path d="M47.078 111.98l-11.828-3.84" stroke-width="1.2" stroke="#3cc" stroke-miterlimit="10" fill="none"/><path d="M58.906 115.824l5.172 24.332" stroke-width="1.2" stroke="#000" stroke-miterlimit="10" fill="none"/><path d="M29.25 102.64h6v11h-6zm0 0" fill="#fff"/><use xlink:href="#a" x="29.25" y="111.304" fill="#3cc"/><path d="M64.078 140.156l23.656 7.688M68.254 135.36l18.926 6.148" stroke-width="1.2" stroke="#000" stroke-miterlimit="10" fill="none"/></g></svg>