<svg xmlns="http://www.w3.org/2000/svg" xmlns:xlink="http://www.w3.org/1999/xlink" width="300pt" height="300pt" viewBox="0 0 300 300"><defs><symbol overflow="visible"><path d="M.64 2.297v-11.47h6.5v11.47zm.735-.72h5.047V-8.436H1.375zm0 0"/></symbol><symbol overflow="visible" id="a"><path d="M5.125-8.61c-.938 0-1.684.352-2.234 1.047-.542.688-.812 1.633-.812 2.83 0 1.198.27 2.147.813 2.842.55.687 1.297 1.03 2.235 1.03.926 0 1.66-.343 2.203-1.03.55-.696.828-1.645.828-2.844 0-1.196-.277-2.14-.828-2.829-.543-.695-1.277-1.046-2.203-1.046zm0-1.046c1.32 0 2.38.45 3.172 1.344.8.898 1.203 2.09 1.203 3.578 0 1.5-.402 2.7-1.203 3.593C7.504-.255 6.445.186 5.125.186c-1.336 0-2.402-.44-3.203-1.328C1.13-2.036.734-3.235.734-4.735c0-1.49.395-2.68 1.188-3.579.8-.894 1.867-1.343 3.203-1.343zm0 0"/></symbol><symbol overflow="visible" id="b"><path d="M1.28-9.484H3l4.203 7.937v-7.937h1.25V0H6.72L2.515-7.922V0H1.28zm0 0"/></symbol><symbol overflow="visible"><path d="M.547 1.938V-7.75h5.5v9.688zm.625-.61h4.266v-8.47H1.171zm0 0"/></symbol><symbol overflow="visible" id="c"><path d="M.53-3.453h2.907v.875H.53zm0 0"/></symbol></defs><g><path fill="#fff" d="M0 0h300v300H0z"/><path d="M91.66 183.402l-17.265 2.668" stroke-width="1.2" stroke="#f00" stroke-miterlimit="10" fill="none"/><path d="M74.395 186.07l-17.262 2.668M104.305 150.836l-6.32 16.285" stroke-width="1.2" stroke="#000" stroke-miterlimit="10" fill="none"/><path d="M97.984 167.12l-6.324 16.282" stroke-width="1.2" stroke="#f00" stroke-miterlimit="10" fill="none"/><path d="M86.66 175.402h11v16h-11zm0 0" fill="#fff"/><use xlink:href="#a" x="86.66" y="187.778" fill="#f00"/><path d="M57.133 188.738L35.25 161.5M35.25 161.5l6.324-16.285" stroke-width="1.2" stroke="#000" stroke-miterlimit="10" fill="none"/><path d="M41.574 145.215l6.32-16.28M47.895 128.934l17.265-2.668" stroke-width="1.2" stroke="#f00" stroke-miterlimit="10" fill="none"/><path d="M65.16 126.266l17.266-2.664" stroke-width="1.2" stroke="#000" stroke-miterlimit="10" fill="none"/><path d="M42.895 120.934h11v16h-11zm0 0" fill="#fff"/><use xlink:href="#a" x="42.895" y="133.31" fill="#f00"/><path d="M82.426 123.602l21.88 27.234M91.02 121.176l17.507 21.79M95.07 91.03l-12.644 32.572M104.305 150.836l34.53-5.332M138.836 145.504l12.644-32.57M132.434 139.27l10.117-26.055M151.48 112.934l17.262-2.664" stroke-width="1.2" stroke="#000" stroke-miterlimit="10" fill="none"/><path d="M168.742 110.27l17.266-2.668" stroke-width="1.2" stroke="#00f" stroke-miterlimit="10" fill="none"/><path d="M151.48 112.934L129.598 85.7" stroke-width="1.2" stroke="#000" stroke-miterlimit="10" fill="none"/><path d="M186.008 107.602L194 92.07" stroke-width="1.2" stroke="#00f" stroke-miterlimit="10" fill="none"/><path d="M194 92.07l7.988-15.535M210.617 132.402l-12.304-12.398" stroke-width="1.2" stroke="#000" stroke-miterlimit="10" fill="none"/><path d="M198.313 120.004l-12.305-12.402" stroke-width="1.2" stroke="#00f" stroke-miterlimit="10" fill="none"/><path d="M181.008 99.602h10v16h-10zm0 0" fill="#fff"/><use xlink:href="#b" x="181.008" y="111.978" fill="#00f"/><path d="M201.988 76.535l34.49 5.598M204.12 85.207l27.59 4.48M236.477 82.133l5.332 34.527M241.81 116.66l-31.193 15.742M234.984 110.895l-24.953 12.593M210.617 132.402l-5.597 34.485M205.02 166.887l27.066 22.093M233.543 192.824l16.332-6.2" stroke-width="1.2" stroke="#000" stroke-miterlimit="10" fill="none"/><path d="M249.875 186.625l16.332-6.2" stroke-width="1.2" stroke="#f00" stroke-miterlimit="10" fill="none"/><path d="M230.63 185.137l16.33-6.2" stroke-width="1.2" stroke="#000" stroke-miterlimit="10" fill="none"/><path d="M246.96 178.938l16.333-6.196" stroke-width="1.2" stroke="#f00" stroke-miterlimit="10" fill="none"/><path d="M232.086 188.98l-2.8 17.243" stroke-width="1.2" stroke="#000" stroke-miterlimit="10" fill="none"/><path d="M229.285 206.223l-2.797 17.242" stroke-width="1.2" stroke="#f00" stroke-miterlimit="10" fill="none"/><path d="M259.75 168.586h11v16h-11zm0 0" fill="#fff"/><use xlink:href="#a" x="259.75" y="180.962" fill="#f00"/><path d="M219.488 213.965h15v19h-15zm0 0" fill="#fff"/><use xlink:href="#c" x="219.488" y="224.277" fill="#f00"/><use xlink:href="#a" x="223.497" y="229.16" fill="#f00"/><path d="M129.598 85.7L95.07 91.03M127.398 94.355l-27.62 4.266" stroke-width="1.2" stroke="#000" stroke-miterlimit="10" fill="none"/></g></svg>