<svg xmlns="http://www.w3.org/2000/svg" xmlns:xlink="http://www.w3.org/1999/xlink" width="300pt" height="300pt" viewBox="0 0 300 300"><defs><symbol overflow="visible"><path d="M.453 1.594v-7.938h4.5v7.938zm.5-.5h3.5v-6.938h-3.5zm0 0"/></symbol><symbol overflow="visible" id="a"><path d="M5.797-6.063v.938c-.305-.27-.625-.473-.97-.61-.335-.144-.686-.218-1.06-.218-.75 0-1.33.23-1.736.687-.397.46-.592 1.12-.592 1.985 0 .866.195 1.526.593 1.983.408.46.986.688 1.736.688.375 0 .726-.066 1.062-.203.344-.132.664-.343.97-.625V-.5c-.314.21-.642.367-.986.47-.343.1-.714.155-1.11.155-.99 0-1.772-.3-2.343-.906C.784-1.396.5-2.228.5-3.28c0-1.052.285-1.88.86-2.486.57-.613 1.35-.92 2.343-.92.395-.002.766.053 1.11.155.35.104.68.26.984.468zm0 0"/></symbol><symbol overflow="visible" id="b"><path d="M.844-6.844h.812V0H.844zm0 0"/></symbol><symbol overflow="visible" id="c"><path d="M3.547-5.953c-.65 0-1.164.242-1.547.72-.375.48-.563 1.13-.563 1.952 0 .835.188 1.49.563 1.967.383.48.898.72 1.547.72.644 0 1.156-.24 1.53-.72.376-.476.564-1.132.564-1.968 0-.822-.187-1.474-.562-1.954-.375-.477-.887-.72-1.53-.72zm0-.734c.914 0 1.648.312 2.203.937.55.617.828 1.438.828 2.47 0 1.042-.277 1.87-.828 2.483-.555.617-1.29.922-2.203.922-.93 0-1.668-.305-2.22-.922C.774-1.41.5-2.237.5-3.28c0-1.033.273-1.853.828-2.47.55-.625 1.29-.938 2.22-.938zm0 0"/></symbol><symbol overflow="visible" id="d"><path d="M.89-6.563H2.08l2.906 5.485v-5.484h.86V0H4.656L1.75-5.484V0H.89zm0 0"/></symbol><symbol overflow="visible" id="e"><path d="M.89-6.563h.876v2.688H5v-2.688h.89V0H5v-3.125H1.766V0H.89zm0 0"/></symbol><symbol overflow="visible"><path d="M.406 1.422V-5.64h4V1.42zM.844.97h3.11v-6.157H.843zm0 0"/></symbol><symbol overflow="visible" id="f"><path d="M3.688-5.016v2.172h2.17v.672H3.69V0H3.03v-2.172H.845v-.672H3.03v-2.172zm0 0"/></symbol><symbol overflow="visible" id="g"><path d="M.39-2.516H2.5v.64H.39zm0 0"/></symbol></defs><g><path fill="#fff" d="M0 0h300v300H0z"/><path d="M264.75 121.906l-8.43-.547" stroke-width="1.2" stroke="#0c0" stroke-miterlimit="10" fill="none"/><path d="M256.32 121.36l-8.43-.544" stroke-width="1.2" stroke="#000" stroke-miterlimit="10" fill="none"/><path d="M259.75 116.406h10v11h-10zm0 0" fill="#fff"/><g fill="#0c0"><use xlink:href="#a" x="259.75" y="125.069"/><use xlink:href="#b" x="266.264" y="125.069"/></g><path d="M247.89 120.816l-9.374 14.055M243.645 120.016l-7.5 11.242M240.402 105.668l7.49 15.148M238.516 134.87l-16.86-1.09M221.656 133.78l-7.488-15.147M224.47 130.504l-5.99-12.117M214.168 118.633l9.375-14.055M214.168 118.633l-16.86-1.09M223.543 104.578l16.86 1.09M224.973 108.652l13.488.875M199.09 116.664l-3.742-7.574" stroke-width="1.2" stroke="#000" stroke-miterlimit="10" fill="none"/><path d="M195.348 109.09l-3.743-7.574" stroke-width="1.2" stroke="#f00" stroke-miterlimit="10" fill="none"/><path d="M195.527 118.426l-3.746-7.574" stroke-width="1.2" stroke="#000" stroke-miterlimit="10" fill="none"/><path d="M191.78 110.852l-3.74-7.575" stroke-width="1.2" stroke="#f00" stroke-miterlimit="10" fill="none"/><path d="M197.31 117.543l-4.69 7.027" stroke-width="1.2" stroke="#000" stroke-miterlimit="10" fill="none"/><path d="M192.62 124.57l-4.686 7.032" stroke-width="1.2" stroke="#00f" stroke-miterlimit="10" fill="none"/><path d="M181.82 96.898h8v11h-8zm0 0" fill="#fff"/><use xlink:href="#c" x="181.82" y="105.562" fill="#f00"/><path d="M187.934 131.602l2.93 7.92" stroke-width="1.2" stroke="#00f" stroke-miterlimit="10" fill="none"/><path d="M190.863 139.523l2.934 7.922M171.05 132.277l8.442-.336" stroke-width="1.2" stroke="#000" stroke-miterlimit="10" fill="none"/><path d="M179.492 131.94l8.442-.338" stroke-width="1.2" stroke="#00f" stroke-miterlimit="10" fill="none"/><path d="M184.934 126.102h7v11h-7zm0 0" fill="#fff"/><use xlink:href="#d" x="184.934" y="134.765" fill="#00f"/><path d="M193.797 147.445l-13.262 10.473M209.492 153.695l-15.695-6.25M206.453 156.762l-12.558-4.996M180.535 157.918l2.442 16.72M184.715 159.016l1.95 13.375M180.535 157.918l-14.055-9.375M182.977 174.637l15.695 6.246M198.672 180.883l1.223 8.36" stroke-width="1.2" stroke="#000" stroke-miterlimit="10" fill="none"/><path d="M199.895 189.242l1.218 8.36" stroke-width="1.2" stroke="#f00" stroke-miterlimit="10" fill="none"/><path d="M198.672 180.883l13.262-10.47M197.535 176.72l10.61-8.38" stroke-width="1.2" stroke="#000" stroke-miterlimit="10" fill="none"/><path d="M194.113 192.102h15v11h-15zm0 0" fill="#fff"/><g fill="#f00"><use xlink:href="#c" x="194.113" y="200.765"/><use xlink:href="#e" x="201.455" y="200.765"/></g><path d="M211.934 170.414l-2.442-16.72M166.48 148.543l-15.847 5.863M166.48 148.543l4.57-16.266M170.766 147.992l3.656-13.012M150.633 154.406l-13-10.793M139.594 143.95l1.422-8.33" stroke-width="1.2" stroke="#000" stroke-miterlimit="10" fill="none"/><path d="M141.016 135.62l1.425-8.327" stroke-width="1.2" stroke="#f00" stroke-miterlimit="10" fill="none"/><path d="M135.676 143.277l1.422-8.324" stroke-width="1.2" stroke="#000" stroke-miterlimit="10" fill="none"/><path d="M137.098 134.953l1.422-8.328" stroke-width="1.2" stroke="#f00" stroke-miterlimit="10" fill="none"/><path d="M137.633 143.613l-7.922 2.93" stroke-width="1.2" stroke="#000" stroke-miterlimit="10" fill="none"/><path d="M129.71 146.543l-7.92 2.934" stroke-width="1.2" stroke="#00f" stroke-miterlimit="10" fill="none"/><path d="M136.48 121.46h8v11h-8zm0 0" fill="#fff"/><use xlink:href="#c" x="136.48" y="130.124" fill="#f00"/><path d="M121.79 149.477l-6.5-5.4" stroke-width="1.2" stroke="#00f" stroke-miterlimit="10" fill="none"/><path d="M115.29 144.078l-6.5-5.394" stroke-width="1.2" stroke="#000" stroke-miterlimit="10" fill="none"/><path d="M114.79 143.977h14v11h-14zm0 0" fill="#fff"/><g fill="#00f"><use xlink:href="#d" x="114.789" y="152.64"/><use xlink:href="#e" x="121.767" y="152.64"/></g><path d="M108.79 138.684l-15.85 5.86M92.94 144.543l-13-10.79M79.94 133.754l-7.92 2.93" stroke-width="1.2" stroke="#000" stroke-miterlimit="10" fill="none"/><path d="M72.02 136.684l-7.922 2.93M64.098 139.613l-6.5-5.394" stroke-width="1.2" stroke="#f00" stroke-miterlimit="10" fill="none"/><path d="M57.598 134.22l-6.5-5.4" stroke-width="1.2" stroke="#00f" stroke-miterlimit="10" fill="none"/><path d="M60.098 134.113h8v11h-8zm0 0" fill="#fff"/><use xlink:href="#c" x="60.098" y="142.776" fill="#f00"/><path d="M53.055 129.156l1.425-8.328" stroke-width="1.2" stroke="#00f" stroke-miterlimit="10" fill="none"/><path d="M54.48 120.828l1.422-8.324" stroke-width="1.2" stroke="#f00" stroke-miterlimit="10" fill="none"/><path d="M49.137 128.488l1.422-8.328" stroke-width="1.2" stroke="#00f" stroke-miterlimit="10" fill="none"/><path d="M50.56 120.16l1.424-8.328" stroke-width="1.2" stroke="#f00" stroke-miterlimit="10" fill="none"/><path d="M51.098 128.82l-7.926 2.934" stroke-width="1.2" stroke="#00f" stroke-miterlimit="10" fill="none"/><path d="M43.172 131.754l-7.922 2.93" stroke-width="1.2" stroke="#f00" stroke-miterlimit="10" fill="none"/><path d="M44.098 121.32h14v15h-14zm0 0" fill="#fff"/><use xlink:href="#d" x="44.098" y="133.422" fill="#00f"/><use xlink:href="#f" x="51.075" y="128.539" fill="#00f"/><path d="M49.94 106.668h8v11h-8zm0 0" fill="#fff"/><use xlink:href="#c" x="49.941" y="115.331" fill="#f00"/><path d="M24.25 127.184h11v15h-11zm0 0" fill="#fff"/><use xlink:href="#g" x="24.25" y="134.402" fill="#f00"/><use xlink:href="#c" x="27.058" y="139.285" fill="#f00"/><path d="M171.05 132.277L160.58 119.02" stroke-width="1.2" stroke="#000" stroke-miterlimit="10" fill="none"/></g></svg>