<svg xmlns="http://www.w3.org/2000/svg" xmlns:xlink="http://www.w3.org/1999/xlink" width="300pt" height="300pt" viewBox="0 0 300 300"><defs><symbol overflow="visible"><path d="M.453 1.594v-7.938h4.5v7.938zm.5-.5h3.5v-6.938h-3.5zm0 0"/></symbol><symbol overflow="visible" id="a"><path d="M5.797-6.063v.938c-.305-.27-.625-.473-.97-.61-.335-.144-.686-.218-1.06-.218-.75 0-1.33.23-1.736.687-.397.46-.592 1.12-.592 1.985 0 .866.195 1.526.593 1.983.408.46.986.688 1.736.688.375 0 .726-.066 1.062-.203.344-.132.664-.343.97-.625V-.5c-.314.21-.642.367-.986.47-.343.1-.714.155-1.11.155-.99 0-1.772-.3-2.343-.906C.784-1.396.5-2.228.5-3.28c0-1.052.285-1.88.86-2.486.57-.613 1.35-.92 2.343-.92.395-.002.766.053 1.11.155.35.104.68.26.984.468zm0 0"/></symbol><symbol overflow="visible" id="b"><path d="M.844-6.844h.812V0H.844zm0 0"/></symbol><symbol overflow="visible" id="c"><path d="M3.547-5.953c-.65 0-1.164.242-1.547.72-.375.48-.563 1.13-.563 1.952 0 .835.188 1.49.563 1.967.383.48.898.72 1.547.72.644 0 1.156-.24 1.53-.72.376-.476.564-1.132.564-1.968 0-.822-.187-1.474-.562-1.954-.375-.477-.887-.72-1.53-.72zm0-.734c.914 0 1.648.312 2.203.937.55.617.828 1.438.828 2.47 0 1.042-.277 1.87-.828 2.483-.555.617-1.29.922-2.203.922-.93 0-1.668-.305-2.22-.922C.774-1.41.5-2.237.5-3.28c0-1.033.273-1.853.828-2.47.55-.625 1.29-.938 2.22-.938zm0 0"/></symbol><symbol overflow="visible" id="d"><path d="M.89-6.563H2.08l2.906 5.485v-5.484h.86V0H4.656L1.75-5.484V0H.89zm0 0"/></symbol><symbol overflow="visible" id="e"><path d="M.89-6.563h.876v2.688H5v-2.688h.89V0H5v-3.125H1.766V0H.89zm0 0"/></symbol></defs><g><path fill="#fff" d="M0 0h300v300H0z"/><path d="M264.75 124.836l-9.516-1.438" stroke-width="1.2" stroke="#0c0" stroke-miterlimit="10" fill="none"/><path d="M255.234 123.398l-9.52-1.437" stroke-width="1.2" stroke="#000" stroke-miterlimit="10" fill="none"/><path d="M259.75 119.336h10v11h-10zm0 0" fill="#fff"/><g fill="#0c0"><use xlink:href="#a" x="259.75" y="127.999"/><use xlink:href="#b" x="266.264" y="127.999"/></g><path d="M245.715 121.96L233.71 137.01M240.977 120.64l-9.606 12.036M238.688 104.04l7.027 17.92M233.71 137.008l-19.034-2.875M214.676 134.133l-7.028-17.922M218.188 130.688l-5.622-14.34M207.648 116.21l12.008-15.046M207.648 116.21l-19.035-2.874M219.656 101.164l19.03 2.875M220.883 105.93l15.226 2.3M190.723 112.508l-3.512-8.96" stroke-width="1.2" stroke="#000" stroke-miterlimit="10" fill="none"/><path d="M187.21 103.547l-3.515-8.96" stroke-width="1.2" stroke="#f00" stroke-miterlimit="10" fill="none"/><path d="M186.508 114.16l-3.516-8.96" stroke-width="1.2" stroke="#000" stroke-miterlimit="10" fill="none"/><path d="M182.992 105.2l-3.512-8.958" stroke-width="1.2" stroke="#f00" stroke-miterlimit="10" fill="none"/><path d="M188.613 113.336l-6.004 7.523" stroke-width="1.2" stroke="#000" stroke-miterlimit="10" fill="none"/><path d="M182.61 120.86l-6.005 7.523" stroke-width="1.2" stroke="#00f" stroke-miterlimit="10" fill="none"/><path d="M173.586 89.914h8v11h-8zm0 0" fill="#fff"/><use xlink:href="#c" x="173.586" y="98.577" fill="#f00"/><path d="M176.605 128.383l2.56 9.277" stroke-width="1.2" stroke="#00f" stroke-miterlimit="10" fill="none"/><path d="M179.164 137.66l2.56 9.278M157.38 127.512l9.612.433" stroke-width="1.2" stroke="#000" stroke-miterlimit="10" fill="none"/><path d="M166.992 127.945l9.613.438" stroke-width="1.2" stroke="#00f" stroke-miterlimit="10" fill="none"/><path d="M173.605 122.883h7v11h-7zm0 0" fill="#fff"/><use xlink:href="#d" x="173.605" y="131.546" fill="#00f"/><path d="M181.723 146.938l-16.07 10.6M198.938 155.555l-17.215-8.618M195.188 158.742l-13.77-6.89M165.652 157.54l1.15 19.214M170.29 159.19l.917 15.373M165.652 157.54l-15.043-12.01M166.8 176.754l17.212 8.617M184.012 185.37l.574 9.607" stroke-width="1.2" stroke="#000" stroke-miterlimit="10" fill="none"/><path d="M184.586 194.977l.57 9.61" stroke-width="1.2" stroke="#f00" stroke-miterlimit="10" fill="none"/><path d="M184.012 185.37l16.07-10.6M183.125 180.53l12.855-8.48" stroke-width="1.2" stroke="#000" stroke-miterlimit="10" fill="none"/><path d="M178.156 199.086h15v11h-15zm0 0" fill="#fff"/><g fill="#f00"><use xlink:href="#c" x="178.156" y="207.749"/><use xlink:href="#e" x="185.498" y="207.749"/></g><path d="M200.082 174.77l-1.144-19.215M150.61 145.53l-18.56 5.118M150.61 145.53l6.77-18.018M155.523 145.324l5.418-14.418M132.05 150.648l-13.71-13.515M120.53 137.703l2.427-9.312" stroke-width="1.2" stroke="#000" stroke-miterlimit="10" fill="none"/><path d="M122.957 128.39l2.426-9.316" stroke-width="1.2" stroke="#f00" stroke-miterlimit="10" fill="none"/><path d="M116.148 136.563l2.426-9.317" stroke-width="1.2" stroke="#000" stroke-miterlimit="10" fill="none"/><path d="M118.574 127.246l2.426-9.312" stroke-width="1.2" stroke="#f00" stroke-miterlimit="10" fill="none"/><path d="M118.34 137.133l-9.278 2.558" stroke-width="1.2" stroke="#000" stroke-miterlimit="10" fill="none"/><path d="M109.063 139.69l-9.282 2.56" stroke-width="1.2" stroke="#00f" stroke-miterlimit="10" fill="none"/><path d="M119.19 113.004h8v11h-8zm0 0" fill="#fff"/><use xlink:href="#c" x="119.191" y="121.667" fill="#f00"/><path d="M99.78 142.25l-6.85-6.758" stroke-width="1.2" stroke="#00f" stroke-miterlimit="10" fill="none"/><path d="M92.93 135.492l-6.856-6.758" stroke-width="1.2" stroke="#000" stroke-miterlimit="10" fill="none"/><path d="M92.78 136.75h14v11h-14zm0 0" fill="#fff"/><g fill="#00f"><use xlink:href="#d" x="92.781" y="145.413"/><use xlink:href="#e" x="99.759" y="145.413"/></g><path d="M86.074 128.734l-18.558 5.114M67.516 133.848L53.81 120.336M53.81 120.336l-9.283 2.56" stroke-width="1.2" stroke="#000" stroke-miterlimit="10" fill="none"/><path d="M44.527 122.895l-9.277 2.554" stroke-width="1.2" stroke="#f00" stroke-miterlimit="10" fill="none"/><path d="M20.25 119.95h15v11h-15zm0 0" fill="#fff"/><g fill="#f00"><use xlink:href="#e" x="20.25" y="128.612"/><use xlink:href="#c" x="27.265" y="128.612"/></g><path d="M157.38 127.512l-10.603-16.07" stroke-width="1.2" stroke="#000" stroke-miterlimit="10" fill="none"/></g></svg>