<svg xmlns="http://www.w3.org/2000/svg" xmlns:xlink="http://www.w3.org/1999/xlink" width="300pt" height="300pt" viewBox="0 0 300 300"><defs><symbol overflow="visible"><path d="M.453 1.594v-7.938h4.5v7.938zm.5-.5h3.5v-6.938h-3.5zm0 0"/></symbol><symbol overflow="visible" id="a"><path d="M5.797-6.063v.938c-.305-.27-.625-.473-.97-.61-.335-.144-.686-.218-1.06-.218-.75 0-1.33.23-1.736.687-.397.46-.592 1.12-.592 1.985 0 .866.195 1.526.593 1.983.408.46.986.688 1.736.688.375 0 .726-.066 1.062-.203.344-.132.664-.343.97-.625V-.5c-.314.21-.642.367-.986.47-.343.1-.714.155-1.11.155-.99 0-1.772-.3-2.343-.906C.784-1.396.5-2.228.5-3.28c0-1.052.285-1.88.86-2.486.57-.613 1.35-.92 2.343-.92.395-.002.766.053 1.11.155.35.104.68.26.984.468zm0 0"/></symbol><symbol overflow="visible" id="b"><path d="M.844-6.844h.812V0H.844zm0 0"/></symbol><symbol overflow="visible" id="c"><path d="M3.547-5.953c-.65 0-1.164.242-1.547.72-.375.48-.563 1.13-.563 1.952 0 .835.188 1.49.563 1.967.383.48.898.72 1.547.72.644 0 1.156-.24 1.53-.72.376-.476.564-1.132.564-1.968 0-.822-.187-1.474-.562-1.954-.375-.477-.887-.72-1.53-.72zm0-.734c.914 0 1.648.312 2.203.937.55.617.828 1.438.828 2.47 0 1.042-.277 1.87-.828 2.483-.555.617-1.29.922-2.203.922-.93 0-1.668-.305-2.22-.922C.774-1.41.5-2.237.5-3.28c0-1.033.273-1.853.828-2.47.55-.625 1.29-.938 2.22-.938zm0 0"/></symbol><symbol overflow="visible" id="d"><path d="M.89-6.563H2.08l2.906 5.485v-5.484h.86V0H4.656L1.75-5.484V0H.89zm0 0"/></symbol><symbol overflow="visible" id="e"><path d="M.89-6.563h.876v2.688H5v-2.688h.89V0H5v-3.125H1.766V0H.89zm0 0"/></symbol><symbol overflow="visible"><path d="M.406 1.422V-5.64h4V1.42zM.844.97h3.11v-6.157H.843zm0 0"/></symbol><symbol overflow="visible" id="f"><path d="M3.688-5.016v2.172h2.17v.672H3.69V0H3.03v-2.172H.845v-.672H3.03v-2.172zm0 0"/></symbol><symbol overflow="visible" id="g"><path d="M.39-2.516H2.5v.64H.39zm0 0"/></symbol></defs><g><path fill="#fff" d="M0 0h300v300H0z"/><path d="M264.75 125.47l-7.66-1.157" stroke-width="1.2" stroke="#0c0" stroke-miterlimit="10" fill="none"/><path d="M257.09 124.313l-7.66-1.157" stroke-width="1.2" stroke="#000" stroke-miterlimit="10" fill="none"/><path d="M259.75 119.97h10v11h-10zm0 0" fill="#fff"/><g fill="#0c0"><use xlink:href="#a" x="259.75" y="128.632"/><use xlink:href="#b" x="266.264" y="128.632"/></g><path d="M249.43 123.156l-9.66 12.114M245.617 122.094l-7.73 9.69M243.773 108.734l5.657 14.422M239.77 135.27l-15.317-2.313M224.453 132.957l-5.66-14.422M227.28 130.184l-4.526-11.536M218.793 118.535l9.66-12.11M218.793 118.535l-15.316-2.308M228.453 106.426l15.32 2.308M229.44 110.262l12.26 1.847M205.172 115.56l-2.828-7.212" stroke-width="1.2" stroke="#000" stroke-miterlimit="10" fill="none"/><path d="M202.344 108.348l-2.828-7.21" stroke-width="1.2" stroke="#f00" stroke-miterlimit="10" fill="none"/><path d="M201.777 116.89l-2.828-7.21" stroke-width="1.2" stroke="#000" stroke-miterlimit="10" fill="none"/><path d="M198.95 109.68l-2.83-7.21" stroke-width="1.2" stroke="#f00" stroke-miterlimit="10" fill="none"/><path d="M203.477 116.227l-4.832 6.054" stroke-width="1.2" stroke="#000" stroke-miterlimit="10" fill="none"/><path d="M198.645 122.28l-4.83 6.056" stroke-width="1.2" stroke="#00f" stroke-miterlimit="10" fill="none"/><path d="M189.816 96.305h8v11h-8zm0 0" fill="#fff"/><use xlink:href="#c" x="189.816" y="104.968" fill="#f00"/><path d="M193.816 128.336l2.06 7.47" stroke-width="1.2" stroke="#00f" stroke-miterlimit="10" fill="none"/><path d="M195.875 135.805l2.06 7.465M178.34 127.64l7.738.348" stroke-width="1.2" stroke="#000" stroke-miterlimit="10" fill="none"/><path d="M186.078 127.988l7.738.348" stroke-width="1.2" stroke="#00f" stroke-miterlimit="10" fill="none"/><path d="M190.816 122.836h7v11h-7zm0 0" fill="#fff"/><use xlink:href="#d" x="190.816" y="131.499" fill="#00f"/><path d="M197.934 143.27l-12.93 8.535M211.79 150.203l-13.856-6.933M208.773 152.77l-11.085-5.547M185.004 151.805l.926 15.465M188.734 153.133l.743 12.37M185.004 151.805l-12.11-9.66M185.93 167.27l13.855 6.93M199.785 174.2l.46 7.73" stroke-width="1.2" stroke="#000" stroke-miterlimit="10" fill="none"/><path d="M200.246 181.93l.465 7.734" stroke-width="1.2" stroke="#f00" stroke-miterlimit="10" fill="none"/><path d="M199.785 174.2l12.93-8.536M199.07 170.305l10.344-6.828" stroke-width="1.2" stroke="#000" stroke-miterlimit="10" fill="none"/><path d="M200.71 189.664l-6.468 4.266" stroke-width="1.2" stroke="#f00" stroke-miterlimit="10" fill="none"/><path d="M194.242 193.93l-6.465 4.265" stroke-width="1.2" stroke="#000" stroke-miterlimit="10" fill="none"/><path d="M196.71 184.164h8v11h-8zm0 0" fill="#fff"/><use xlink:href="#c" x="196.711" y="192.827" fill="#f00"/><path d="M212.715 165.664l-.926-15.46M172.895 142.145l-14.934 4.117M172.895 142.145l5.445-14.504M176.852 141.973l4.355-11.602M157.96 146.262l-11.034-10.87M146.926 135.39l-7.47 2.06" stroke-width="1.2" stroke="#000" stroke-miterlimit="10" fill="none"/><path d="M139.457 137.45l-7.465 2.058M131.992 139.508l-5.52-5.434" stroke-width="1.2" stroke="#00f" stroke-miterlimit="10" fill="none"/><path d="M126.473 134.074l-5.516-5.437" stroke-width="1.2" stroke="#000" stroke-miterlimit="10" fill="none"/><path d="M124.992 134.008h14v11h-14zm0 0" fill="#fff"/><g fill="#00f"><use xlink:href="#d" x="124.992" y="142.671"/><use xlink:href="#e" x="131.97" y="142.671"/></g><path d="M122.72 129.094l1.948-7.496" stroke-width="1.2" stroke="#000" stroke-miterlimit="10" fill="none"/><path d="M124.668 121.598l1.95-7.496" stroke-width="1.2" stroke="#f00" stroke-miterlimit="10" fill="none"/><path d="M119.19 128.176l1.95-7.496" stroke-width="1.2" stroke="#000" stroke-miterlimit="10" fill="none"/><path d="M121.14 120.68l1.95-7.496" stroke-width="1.2" stroke="#f00" stroke-miterlimit="10" fill="none"/><path d="M120.957 128.637l-14.937 4.117" stroke-width="1.2" stroke="#000" stroke-miterlimit="10" fill="none"/><path d="M120.855 108.145h8v11h-8zm0 0" fill="#fff"/><use xlink:href="#c" x="120.855" y="116.808" fill="#f00"/><path d="M106.02 132.754l-11.032-10.87M102.36 134.266l-8.83-8.7M102.12 147.75l3.9-14.996M94.988 121.883l-14.937 4.12M80.05 126.004l-3.898 14.992M83.19 128.418l-3.12 11.996M76.152 140.996l-7.465 2.06" stroke-width="1.2" stroke="#000" stroke-miterlimit="10" fill="none"/><path d="M68.688 143.055l-7.47 2.058" stroke-width="1.2" stroke="#f00" stroke-miterlimit="10" fill="none"/><path d="M76.152 140.996l11.035 10.87" stroke-width="1.2" stroke="#000" stroke-miterlimit="10" fill="none"/><path d="M61.22 145.113l-5.517-5.433" stroke-width="1.2" stroke="#f00" stroke-miterlimit="10" fill="none"/><path d="M55.703 139.68l-5.52-5.438" stroke-width="1.2" stroke="#00f" stroke-miterlimit="10" fill="none"/><path d="M57.22 139.613h8v11h-8zm0 0" fill="#fff"/><use xlink:href="#c" x="57.219" y="148.276" fill="#f00"/><path d="M51.95 134.7l1.948-7.497" stroke-width="1.2" stroke="#00f" stroke-miterlimit="10" fill="none"/><path d="M53.898 127.203l1.95-7.496" stroke-width="1.2" stroke="#f00" stroke-miterlimit="10" fill="none"/><path d="M48.422 133.78l1.95-7.495" stroke-width="1.2" stroke="#00f" stroke-miterlimit="10" fill="none"/><path d="M50.37 126.285l1.95-7.496" stroke-width="1.2" stroke="#f00" stroke-miterlimit="10" fill="none"/><path d="M50.184 134.242l-7.465 2.06" stroke-width="1.2" stroke="#00f" stroke-miterlimit="10" fill="none"/><path d="M42.72 136.3l-7.47 2.063" stroke-width="1.2" stroke="#f00" stroke-miterlimit="10" fill="none"/><path d="M43.184 126.742h14v15h-14zm0 0" fill="#fff"/><use xlink:href="#d" x="43.184" y="138.844" fill="#00f"/><use xlink:href="#f" x="50.161" y="133.961" fill="#00f"/><path d="M50.082 113.75h8v11h-8zm0 0" fill="#fff"/><use xlink:href="#c" x="50.082" y="122.413" fill="#f00"/><path d="M24.25 130.863h11v15h-11zm0 0" fill="#fff"/><use xlink:href="#g" x="24.25" y="138.082" fill="#f00"/><use xlink:href="#c" x="27.058" y="142.965" fill="#f00"/><path d="M87.188 151.867l14.933-4.117M87.71 147.94l11.95-3.292M178.34 127.64l-8.535-12.93" stroke-width="1.2" stroke="#000" stroke-miterlimit="10" fill="none"/></g></svg>