<svg xmlns="http://www.w3.org/2000/svg" xmlns:xlink="http://www.w3.org/1999/xlink" width="300pt" height="300pt" viewBox="0 0 300 300"><defs><symbol overflow="visible"><path d="M.453 1.594v-7.938h4.5v7.938zm.5-.5h3.5v-6.938h-3.5zm0 0"/></symbol><symbol overflow="visible" id="a"><path d="M4.813-6.344v.86c-.336-.157-.653-.27-.954-.344-.294-.082-.58-.125-.86-.125-.492 0-.867.094-1.125.28-.262.19-.39.454-.39.798 0 .293.085.512.265.656.176.15.504.267.984.36l.547.11c.658.125 1.142.352 1.454.672.32.312.485.734.485 1.265 0 .637-.216 1.122-.642 1.454-.43.325-1.055.485-1.875.485-.312 0-.648-.04-1-.11C1.36-.046 1-.147.625-.296v-.906c.352.2.703.35 1.047.453.35.105.695.156 1.03.156.5 0 .884-.097 1.157-.297.28-.196.42-.485.42-.86 0-.32-.1-.57-.296-.75-.2-.176-.523-.313-.968-.406l-.547-.11C1.81-3.148 1.33-3.36 1.03-3.64.74-3.923.595-4.313.595-4.813c0-.57.203-1.024.61-1.36.405-.344.968-.516 1.687-.516.313 0 .626.032.938.094.32.055.65.137.985.25zm0 0"/></symbol><symbol overflow="visible" id="b"><path d="M3.547-5.953c-.65 0-1.164.242-1.547.72-.375.48-.563 1.13-.563 1.952 0 .835.188 1.49.563 1.967.383.48.898.72 1.547.72.644 0 1.156-.24 1.53-.72.376-.476.564-1.132.564-1.968 0-.822-.187-1.474-.562-1.954-.375-.477-.887-.72-1.53-.72zm0-.734c.914 0 1.648.312 2.203.937.55.617.828 1.438.828 2.47 0 1.042-.277 1.87-.828 2.483-.555.617-1.29.922-2.203.922-.93 0-1.668-.305-2.22-.922C.774-1.41.5-2.237.5-3.28c0-1.033.273-1.853.828-2.47.55-.625 1.29-.938 2.22-.938zm0 0"/></symbol><symbol overflow="visible" id="c"><path d="M.89-6.563H2.08l2.906 5.485v-5.484h.86V0H4.656L1.75-5.484V0H.89zm0 0"/></symbol><symbol overflow="visible" id="d"><path d="M.89-6.563h.876v2.688H5v-2.688h.89V0H5v-3.125H1.766V0H.89zm0 0"/></symbol></defs><g><path fill="#fff" d="M0 0h300v300H0z"/><path d="M52.434 218.215l7.093 9.738" stroke-width="1.2" stroke="#cc0" stroke-miterlimit="10" fill="none"/><path d="M59.527 227.953l7.09 9.738" stroke-width="1.2" stroke="#f00" stroke-miterlimit="10" fill="none"/><path d="M57.016 214.88l7.093 9.737" stroke-width="1.2" stroke="#cc0" stroke-miterlimit="10" fill="none"/><path d="M64.11 224.617l7.09 9.735" stroke-width="1.2" stroke="#f00" stroke-miterlimit="10" fill="none"/><path d="M57.016 214.88l-7.094-9.74" stroke-width="1.2" stroke="#cc0" stroke-miterlimit="10" fill="none"/><path d="M49.922 205.14l-7.09-9.738" stroke-width="1.2" stroke="#f00" stroke-miterlimit="10" fill="none"/><path d="M52.434 218.215l-7.094-9.735" stroke-width="1.2" stroke="#cc0" stroke-miterlimit="10" fill="none"/><path d="M45.34 208.48l-7.09-9.738" stroke-width="1.2" stroke="#f00" stroke-miterlimit="10" fill="none"/><path d="M54.723 216.547l-9.735 7.094" stroke-width="1.2" stroke="#cc0" stroke-miterlimit="10" fill="none"/><path d="M44.988 223.64l-9.738 7.09" stroke-width="1.2" stroke="#000" stroke-miterlimit="10" fill="none"/><path d="M54.723 216.547l9.738-7.094" stroke-width="1.2" stroke="#cc0" stroke-miterlimit="10" fill="none"/><path d="M64.46 209.453l9.74-7.09" stroke-width="1.2" stroke="#000" stroke-miterlimit="10" fill="none"/><path d="M51.723 211.047h6v11h-6zm0 0" fill="#fff"/><use xlink:href="#a" x="51.723" y="219.71" fill="#cc0"/><path d="M64.91 230.523h8v11h-8zm0 0" fill="#fff"/><use xlink:href="#b" x="64.91" y="239.187" fill="#f00"/><path d="M32.54 191.574h8v11h-8zm0 0" fill="#fff"/><use xlink:href="#b" x="32.539" y="200.237" fill="#f00"/><path d="M74.2 202.363l-2.548-23.957M79.582 199.367l-2.04-19.164M96.22 212.137l-22.02-9.774M71.652 178.406l19.473-14.187M91.125 164.22l22.023 9.772M91.027 170.38l17.618 7.82M113.148 173.992l2.547 23.957M113.148 173.992l19.473-14.183M115.695 197.95L96.22 212.136M110.41 194.79l-15.582 11.347M132.62 159.81l11.013 4.885" stroke-width="1.2" stroke="#000" stroke-miterlimit="10" fill="none"/><path d="M143.633 164.695l11.012 4.887" stroke-width="1.2" stroke="#00f" stroke-miterlimit="10" fill="none"/><path d="M137.125 155.605l8.81 3.907" stroke-width="1.2" stroke="#000" stroke-miterlimit="10" fill="none"/><path d="M145.934 159.512l8.808 3.91M130.074 135.852l1.274 11.976" stroke-width="1.2" stroke="#00f" stroke-miterlimit="10" fill="none"/><path d="M131.348 147.828l1.273 11.98" stroke-width="1.2" stroke="#000" stroke-miterlimit="10" fill="none"/><path d="M154.645 169.582l9.734-7.094" stroke-width="1.2" stroke="#00f" stroke-miterlimit="10" fill="none"/><path d="M164.38 162.488l9.737-7.09" stroke-width="1.2" stroke="#000" stroke-miterlimit="10" fill="none"/><path d="M151.645 164.082h7v11h-7zm0 0" fill="#fff"/><use xlink:href="#c" x="151.645" y="172.745" fill="#00f"/><path d="M174.117 155.398l11.012 4.887" stroke-width="1.2" stroke="#000" stroke-miterlimit="10" fill="none"/><path d="M185.13 160.285l11.007 4.883" stroke-width="1.2" stroke="#00f" stroke-miterlimit="10" fill="none"/><path d="M174.117 155.398l-2.547-23.96M168.227 153.602l-2.04-19.168" stroke-width="1.2" stroke="#000" stroke-miterlimit="10" fill="none"/><path d="M196.137 165.168l1.277 11.98" stroke-width="1.2" stroke="#00f" stroke-miterlimit="10" fill="none"/><path d="M197.414 177.148l1.274 11.98" stroke-width="1.2" stroke="#000" stroke-miterlimit="10" fill="none"/><path d="M189.137 159.668h14v11h-14zm0 0" fill="#fff"/><g fill="#00f"><use xlink:href="#c" x="189.137" y="168.331"/><use xlink:href="#d" x="196.114" y="168.331"/></g><path d="M198.688 189.13l22.02 9.768M220.707 198.898l2.547 23.96M226.598 200.695l2.04 19.168M240.18 184.715l-19.473 14.183M223.254 222.86l22.023 9.77M245.277 232.63l19.473-14.185M243.887 226.63l15.578-11.35M264.75 218.445l-2.547-23.957M262.203 194.488l-22.023-9.773M257.703 198.69l-17.617-7.815M171.57 131.438l-22.023-9.77M149.547 121.668l-1.274-11.98" stroke-width="1.2" stroke="#000" stroke-miterlimit="10" fill="none"/><path d="M148.273 109.688L147 97.707" stroke-width="1.2" stroke="#cc0" stroke-miterlimit="10" fill="none"/><path d="M149.547 121.668l-9.734 7.09" stroke-width="1.2" stroke="#000" stroke-miterlimit="10" fill="none"/><path d="M139.813 128.758l-9.74 7.094" stroke-width="1.2" stroke="#00f" stroke-miterlimit="10" fill="none"/><path d="M150.938 127.668l-7.79 5.672" stroke-width="1.2" stroke="#000" stroke-miterlimit="10" fill="none"/><path d="M143.148 133.34l-7.79 5.676" stroke-width="1.2" stroke="#00f" stroke-miterlimit="10" fill="none"/><path d="M146.703 94.89l-11.98 1.274" stroke-width="1.2" stroke="#cc0" stroke-miterlimit="10" fill="none"/><path d="M134.723 96.164l-11.977 1.273" stroke-width="1.2" stroke="#f00" stroke-miterlimit="10" fill="none"/><path d="M147.3 100.527l-11.976 1.274" stroke-width="1.2" stroke="#cc0" stroke-miterlimit="10" fill="none"/><path d="M135.324 101.8l-11.98 1.274" stroke-width="1.2" stroke="#f00" stroke-miterlimit="10" fill="none"/><path d="M147.3 100.527l11.98-1.273" stroke-width="1.2" stroke="#cc0" stroke-miterlimit="10" fill="none"/><path d="M159.28 99.254l11.978-1.274" stroke-width="1.2" stroke="#f00" stroke-miterlimit="10" fill="none"/><path d="M146.703 94.89l11.977-1.273" stroke-width="1.2" stroke="#cc0" stroke-miterlimit="10" fill="none"/><path d="M158.68 93.617l11.98-1.273" stroke-width="1.2" stroke="#f00" stroke-miterlimit="10" fill="none"/><path d="M147 97.707l-1.273-11.977" stroke-width="1.2" stroke="#cc0" stroke-miterlimit="10" fill="none"/><path d="M145.727 85.73l-1.274-11.98" stroke-width="1.2" stroke="#000" stroke-miterlimit="10" fill="none"/><path d="M144 92.207h6v11h-6zm0 0" fill="#fff"/><use xlink:href="#a" x="144" y="100.87" fill="#cc0"/><path d="M115.043 94.758h8v11h-8zm0 0" fill="#fff"/><use xlink:href="#b" x="115.043" y="103.421" fill="#f00"/><path d="M166.96 89.66h8v11h-8zm0 0" fill="#fff"/><use xlink:href="#b" x="166.961" y="98.323" fill="#f00"/><path d="M144.453 73.75l-22.02-9.773" stroke-width="1.2" stroke="#000" stroke-miterlimit="10" fill="none"/><path d="M127.074 130.352h7v11h-7zm0 0" fill="#fff"/><use xlink:href="#c" x="127.074" y="139.015" fill="#00f"/></g></svg>