<svg xmlns="http://www.w3.org/2000/svg" xmlns:xlink="http://www.w3.org/1999/xlink" width="300pt" height="300pt" viewBox="0 0 300 300"><defs><symbol overflow="visible"><path d="M.453 1.594v-7.938h4.5v7.938zm.5-.5h3.5v-6.938h-3.5zm0 0"/></symbol><symbol overflow="visible" id="a"><path d="M4.813-6.344v.86c-.336-.157-.653-.27-.954-.344-.294-.082-.58-.125-.86-.125-.492 0-.867.094-1.125.28-.262.19-.39.454-.39.798 0 .293.085.512.265.656.176.15.504.267.984.36l.547.11c.658.125 1.142.352 1.454.672.32.312.485.734.485 1.265 0 .637-.216 1.122-.642 1.454-.43.325-1.055.485-1.875.485-.312 0-.648-.04-1-.11C1.36-.046 1-.147.625-.296v-.906c.352.2.703.35 1.047.453.35.105.695.156 1.03.156.5 0 .884-.097 1.157-.297.28-.196.42-.485.42-.86 0-.32-.1-.57-.296-.75-.2-.176-.523-.313-.968-.406l-.547-.11C1.81-3.148 1.33-3.36 1.03-3.64.74-3.923.595-4.313.595-4.813c0-.57.203-1.024.61-1.36.405-.344.968-.516 1.687-.516.313 0 .626.032.938.094.32.055.65.137.985.25zm0 0"/></symbol><symbol overflow="visible" id="b"><path d="M.89-6.563H2.08l2.906 5.485v-5.484h.86V0H4.656L1.75-5.484V0H.89zm0 0"/></symbol><symbol overflow="visible" id="c"><path d="M.89-6.563h.876v2.688H5v-2.688h.89V0H5v-3.125H1.766V0H.89zm0 0"/></symbol><symbol overflow="visible" id="d"><path d="M3.547-5.953c-.65 0-1.164.242-1.547.72-.375.48-.563 1.13-.563 1.952 0 .835.188 1.49.563 1.967.383.48.898.72 1.547.72.644 0 1.156-.24 1.53-.72.376-.476.564-1.132.564-1.968 0-.822-.187-1.474-.562-1.954-.375-.477-.887-.72-1.53-.72zm0-.734c.914 0 1.648.312 2.203.937.55.617.828 1.438.828 2.47 0 1.042-.277 1.87-.828 2.483-.555.617-1.29.922-2.203.922-.93 0-1.668-.305-2.22-.922C.774-1.41.5-2.237.5-3.28c0-1.033.273-1.853.828-2.47.55-.625 1.29-.938 2.22-.938zm0 0"/></symbol></defs><g><path fill="#fff" d="M0 0h300v300H0z"/><path d="M47.73 184.316l-6.242 9.133" stroke-width="1.2" stroke="#cc0" stroke-miterlimit="10" fill="none"/><path d="M41.488 193.45l-6.238 9.132M68.96 190.54l-10.616-3.114" stroke-width="1.2" stroke="#000" stroke-miterlimit="10" fill="none"/><path d="M58.344 187.426l-10.614-3.11" stroke-width="1.2" stroke="#cc0" stroke-miterlimit="10" fill="none"/><path d="M44.73 178.816h6v11h-6zm0 0" fill="#fff"/><use xlink:href="#a" x="44.73" y="187.479" fill="#cc0"/><path d="M35.25 202.582l13.52 17.516M40.723 201.152l10.812 14.012M48.77 220.098l20.832-7.446M69.602 212.652l-.64-22.113M64.336 210.594l-.516-17.692M68.96 190.54l17.517-13.52M86.477 177.02l10.23 4.207" stroke-width="1.2" stroke="#000" stroke-miterlimit="10" fill="none"/><path d="M96.707 181.227l10.23 4.203M106.938 185.43l8.757-6.758" stroke-width="1.2" stroke="#00f" stroke-miterlimit="10" fill="none"/><path d="M115.695 178.672l8.758-6.758" stroke-width="1.2" stroke="#000" stroke-miterlimit="10" fill="none"/><path d="M99.938 179.93h14v11h-14zm0 0" fill="#fff"/><g fill="#00f"><use xlink:href="#b" x="99.938" y="188.593"/><use xlink:href="#c" x="106.915" y="188.593"/></g><path d="M124.453 171.914l10.23 4.203" stroke-width="1.2" stroke="#000" stroke-miterlimit="10" fill="none"/><path d="M134.684 176.117l10.234 4.203" stroke-width="1.2" stroke="#00f" stroke-miterlimit="10" fill="none"/><path d="M128.477 167.938l8.187 3.363" stroke-width="1.2" stroke="#000" stroke-miterlimit="10" fill="none"/><path d="M136.664 171.3l8.184 3.364" stroke-width="1.2" stroke="#00f" stroke-miterlimit="10" fill="none"/><path d="M121.504 149.984l2.95 21.93" stroke-width="1.2" stroke="#000" stroke-miterlimit="10" fill="none"/><path d="M144.918 180.32l8.758-6.757" stroke-width="1.2" stroke="#00f" stroke-miterlimit="10" fill="none"/><path d="M153.676 173.563l8.754-6.758" stroke-width="1.2" stroke="#000" stroke-miterlimit="10" fill="none"/><path d="M141.918 174.82h7v11h-7zm0 0" fill="#fff"/><use xlink:href="#b" x="141.918" y="183.483" fill="#00f"/><path d="M162.43 166.805l-1.473-10.965" stroke-width="1.2" stroke="#000" stroke-miterlimit="10" fill="none"/><path d="M160.957 155.84l-1.477-10.965" stroke-width="1.2" stroke="#00f" stroke-miterlimit="10" fill="none"/><path d="M156.977 165.305l-1.18-8.77" stroke-width="1.2" stroke="#000" stroke-miterlimit="10" fill="none"/><path d="M155.797 156.535l-1.18-8.773" stroke-width="1.2" stroke="#00f" stroke-miterlimit="10" fill="none"/><path d="M162.43 166.805l20.465 8.406" stroke-width="1.2" stroke="#000" stroke-miterlimit="10" fill="none"/><path d="M159.48 144.875l-10.23-4.203" stroke-width="1.2" stroke="#00f" stroke-miterlimit="10" fill="none"/><path d="M149.25 140.672l-10.23-4.203" stroke-width="1.2" stroke="#000" stroke-miterlimit="10" fill="none"/><path d="M156.48 139.375h7v11h-7zm0 0" fill="#fff"/><use xlink:href="#b" x="156.48" y="148.038" fill="#00f"/><path d="M139.02 136.47l-1.477-10.966" stroke-width="1.2" stroke="#000" stroke-miterlimit="10" fill="none"/><path d="M137.543 125.504l-1.477-10.96" stroke-width="1.2" stroke="#00f" stroke-miterlimit="10" fill="none"/><path d="M139.02 136.47l-17.516 13.514M140.445 141.94l-14.01 10.814" stroke-width="1.2" stroke="#000" stroke-miterlimit="10" fill="none"/><path d="M136.066 114.543l8.758-6.762" stroke-width="1.2" stroke="#00f" stroke-miterlimit="10" fill="none"/><path d="M144.824 107.78l8.758-6.757" stroke-width="1.2" stroke="#000" stroke-miterlimit="10" fill="none"/><path d="M129.066 109.043h14v11h-14zm0 0" fill="#fff"/><g fill="#00f"><use xlink:href="#b" x="129.066" y="117.706"/><use xlink:href="#c" x="136.044" y="117.706"/></g><path d="M153.582 101.023l-2.95-21.925M153.582 101.023l20.465 8.41M182.895 175.21l2.95 21.93M188.348 176.71l2.36 17.544M200.41 161.695l-17.515 13.516M185.844 197.14l20.465 8.407M206.31 205.547l17.514-13.516M204.88 200.074l14.01-10.812M223.824 192.03l10.23 4.204" stroke-width="1.2" stroke="#000" stroke-miterlimit="10" fill="none"/><path d="M234.055 196.234l10.23 4.203" stroke-width="1.2" stroke="#cc0" stroke-miterlimit="10" fill="none"/><path d="M223.824 192.03l-2.953-21.925" stroke-width="1.2" stroke="#000" stroke-miterlimit="10" fill="none"/><path d="M246.695 201.43l4.203-10.235" stroke-width="1.2" stroke="#cc0" stroke-miterlimit="10" fill="none"/><path d="M250.898 191.195l4.204-10.23" stroke-width="1.2" stroke="#f00" stroke-miterlimit="10" fill="none"/><path d="M241.88 199.45l4.202-10.23" stroke-width="1.2" stroke="#cc0" stroke-miterlimit="10" fill="none"/><path d="M246.082 189.22l4.207-10.236" stroke-width="1.2" stroke="#f00" stroke-miterlimit="10" fill="none"/><path d="M241.88 199.45l-4.204 10.234" stroke-width="1.2" stroke="#cc0" stroke-miterlimit="10" fill="none"/><path d="M237.676 209.684l-4.207 10.23" stroke-width="1.2" stroke="#f00" stroke-miterlimit="10" fill="none"/><path d="M246.695 201.43l-4.207 10.23" stroke-width="1.2" stroke="#cc0" stroke-miterlimit="10" fill="none"/><path d="M242.488 211.66l-4.203 10.23" stroke-width="1.2" stroke="#f00" stroke-miterlimit="10" fill="none"/><path d="M244.285 200.438l10.235 4.207" stroke-width="1.2" stroke="#cc0" stroke-miterlimit="10" fill="none"/><path d="M254.52 204.645l10.23 4.203" stroke-width="1.2" stroke="#000" stroke-miterlimit="10" fill="none"/><path d="M241.285 194.938h6v11h-6zm0 0" fill="#fff"/><use xlink:href="#a" x="241.285" y="203.601" fill="#cc0"/><path d="M248.695 174.477h8v11h-8zm0 0" fill="#fff"/><use xlink:href="#d" x="248.695" y="183.14" fill="#f00"/><path d="M227.88 215.402h8v11h-8zm0 0" fill="#fff"/><use xlink:href="#d" x="227.879" y="224.065" fill="#f00"/><path d="M220.87 170.105l-20.46-8.41M216.848 174.078l-16.37-6.726" stroke-width="1.2" stroke="#000" stroke-miterlimit="10" fill="none"/></g></svg>