<svg xmlns="http://www.w3.org/2000/svg" xmlns:xlink="http://www.w3.org/1999/xlink" width="300pt" height="300pt" viewBox="0 0 300 300"><defs><symbol overflow="visible"><path d="M.453 1.594v-7.938h4.5v7.938zm.5-.5h3.5v-6.938h-3.5zm0 0"/></symbol><symbol overflow="visible" id="a"><path d="M4.813-6.344v.86c-.336-.157-.653-.27-.954-.344-.294-.082-.58-.125-.86-.125-.492 0-.867.094-1.125.28-.262.19-.39.454-.39.798 0 .293.085.512.265.656.176.15.504.267.984.36l.547.11c.658.125 1.142.352 1.454.672.32.312.485.734.485 1.265 0 .637-.216 1.122-.642 1.454-.43.325-1.055.485-1.875.485-.312 0-.648-.04-1-.11C1.36-.046 1-.147.625-.296v-.906c.352.2.703.35 1.047.453.35.105.695.156 1.03.156.5 0 .884-.097 1.157-.297.28-.196.42-.485.42-.86 0-.32-.1-.57-.296-.75-.2-.176-.523-.313-.968-.406l-.547-.11C1.81-3.148 1.33-3.36 1.03-3.64.74-3.923.595-4.313.595-4.813c0-.57.203-1.024.61-1.36.405-.344.968-.516 1.687-.516.313 0 .626.032.938.094.32.055.65.137.985.25zm0 0"/></symbol><symbol overflow="visible" id="b"><path d="M3.547-5.953c-.65 0-1.164.242-1.547.72-.375.48-.563 1.13-.563 1.952 0 .835.188 1.49.563 1.967.383.48.898.72 1.547.72.644 0 1.156-.24 1.53-.72.376-.476.564-1.132.564-1.968 0-.822-.187-1.474-.562-1.954-.375-.477-.887-.72-1.53-.72zm0-.734c.914 0 1.648.312 2.203.937.55.617.828 1.438.828 2.47 0 1.042-.277 1.87-.828 2.483-.555.617-1.29.922-2.203.922-.93 0-1.668-.305-2.22-.922C.774-1.41.5-2.237.5-3.28c0-1.033.273-1.853.828-2.47.55-.625 1.29-.938 2.22-.938zm0 0"/></symbol><symbol overflow="visible" id="c"><path d="M.89-6.563H2.08l2.906 5.485v-5.484h.86V0H4.656L1.75-5.484V0H.89zm0 0"/></symbol><symbol overflow="visible" id="d"><path d="M.89-6.563h.876v2.688H5v-2.688h.89V0H5v-3.125H1.766V0H.89zm0 0"/></symbol><symbol overflow="visible" id="e"><path d="M.89-6.563h3.766v.75h-2.89v1.938h2.61v.734h-2.61V0H.89zm0 0"/></symbol></defs><g><path fill="#fff" d="M0 0h300v300H0z"/><path d="M247.79 182.676l2.605-9.61" stroke-width="1.2" stroke="#cc0" stroke-miterlimit="10" fill="none"/><path d="M250.395 173.066l2.605-9.613" stroke-width="1.2" stroke="#f00" stroke-miterlimit="10" fill="none"/><path d="M243.266 181.45l2.605-9.61" stroke-width="1.2" stroke="#cc0" stroke-miterlimit="10" fill="none"/><path d="M245.87 171.84l2.607-9.61" stroke-width="1.2" stroke="#f00" stroke-miterlimit="10" fill="none"/><path d="M243.266 181.45l-2.606 9.613" stroke-width="1.2" stroke="#cc0" stroke-miterlimit="10" fill="none"/><path d="M240.66 191.063l-2.605 9.61" stroke-width="1.2" stroke="#f00" stroke-miterlimit="10" fill="none"/><path d="M247.79 182.676l-2.606 9.613" stroke-width="1.2" stroke="#cc0" stroke-miterlimit="10" fill="none"/><path d="M245.184 192.29l-2.606 9.608" stroke-width="1.2" stroke="#f00" stroke-miterlimit="10" fill="none"/><path d="M245.527 182.063l9.614 2.61" stroke-width="1.2" stroke="#cc0" stroke-miterlimit="10" fill="none"/><path d="M255.14 184.672l9.61 2.605" stroke-width="1.2" stroke="#000" stroke-miterlimit="10" fill="none"/><path d="M245.527 182.063l-9.61-2.606" stroke-width="1.2" stroke="#cc0" stroke-miterlimit="10" fill="none"/><path d="M235.918 179.457l-9.613-2.605" stroke-width="1.2" stroke="#000" stroke-miterlimit="10" fill="none"/><path d="M242.527 176.563h6v11h-6zm0 0" fill="#fff"/><use xlink:href="#a" x="242.527" y="185.226" fill="#cc0"/><path d="M246.738 157.34h8v11h-8zm0 0" fill="#fff"/><use xlink:href="#b" x="246.738" y="166.003" fill="#f00"/><path d="M236.316 195.785h8v11h-8zm0 0" fill="#fff"/><use xlink:href="#b" x="236.316" y="204.448" fill="#f00"/><path d="M226.305 176.852l-14.125 14.043M221.59 174.934l-11.3 11.234M221.207 157.602l5.098 19.25M212.18 190.895l-19.223-5.21M192.957 185.684l-5.098-19.254M196.977 182.56l-4.08-15.404M187.86 166.43l14.124-14.04M187.86 166.43l-19.223-5.21M201.984 152.39l19.223 5.212M202.68 157.434l15.38 4.168M168.637 161.22l-2.547-9.626" stroke-width="1.2" stroke="#000" stroke-miterlimit="10" fill="none"/><path d="M166.09 151.594l-2.55-9.63" stroke-width="1.2" stroke="#00f" stroke-miterlimit="10" fill="none"/><path d="M163.598 160.492l-2.04-7.7" stroke-width="1.2" stroke="#000" stroke-miterlimit="10" fill="none"/><path d="M161.56 152.793l-2.04-7.703M154.512 175.262l7.062-7.024" stroke-width="1.2" stroke="#00f" stroke-miterlimit="10" fill="none"/><path d="M161.574 168.238l7.063-7.02" stroke-width="1.2" stroke="#000" stroke-miterlimit="10" fill="none"/><path d="M163.54 141.965l-9.61-2.606" stroke-width="1.2" stroke="#00f" stroke-miterlimit="10" fill="none"/><path d="M153.93 139.36l-9.614-2.606" stroke-width="1.2" stroke="#000" stroke-miterlimit="10" fill="none"/><path d="M160.54 136.465h7v11h-7zm0 0" fill="#fff"/><use xlink:href="#c" x="160.539" y="145.128" fill="#00f"/><path d="M144.316 136.754l-14.125 14.043M146.207 141.48l-11.297 11.235M144.316 136.754L139.22 117.5M130.19 150.797l5.1 19.254M135.29 170.05l9.612 2.606" stroke-width="1.2" stroke="#000" stroke-miterlimit="10" fill="none"/><path d="M144.902 172.656l9.61 2.606" stroke-width="1.2" stroke="#00f" stroke-miterlimit="10" fill="none"/><path d="M138.438 166.047l7.69 2.086" stroke-width="1.2" stroke="#000" stroke-miterlimit="10" fill="none"/><path d="M146.13 168.133l7.686 2.082" stroke-width="1.2" stroke="#00f" stroke-miterlimit="10" fill="none"/><path d="M135.29 170.05l-7.063 7.02" stroke-width="1.2" stroke="#000" stroke-miterlimit="10" fill="none"/><path d="M128.227 177.07l-7.06 7.02" stroke-width="1.2" stroke="#00f" stroke-miterlimit="10" fill="none"/><path d="M151.512 169.762h7v11h-7zm0 0" fill="#fff"/><use xlink:href="#c" x="151.512" y="178.425" fill="#00f"/><path d="M121.168 184.09l-9.613-2.606" stroke-width="1.2" stroke="#00f" stroke-miterlimit="10" fill="none"/><path d="M111.555 181.484l-9.61-2.605" stroke-width="1.2" stroke="#000" stroke-miterlimit="10" fill="none"/><path d="M114.168 178.59h14v11h-14zm0 0" fill="#fff"/><g fill="#00f"><use xlink:href="#c" x="114.168" y="187.253"/><use xlink:href="#d" x="121.146" y="187.253"/></g><path d="M101.945 178.88L87.82 192.92M87.82 192.922l-19.222-5.21M68.598 187.71l-14.125 14.04M54.473 201.75l-19.223-5.21M139.22 117.5l-2.552-9.625" stroke-width="1.2" stroke="#000" stroke-miterlimit="10" fill="none"/><path d="M136.668 107.875l-2.547-9.625" stroke-width="1.2" stroke="#3cc" stroke-miterlimit="10" fill="none"/><path d="M139.22 117.5l9.624-2.547" stroke-width="1.2" stroke="#000" stroke-miterlimit="10" fill="none"/><path d="M148.844 114.953l9.63-2.55" stroke-width="1.2" stroke="#3cc" stroke-miterlimit="10" fill="none"/><path d="M139.22 117.5l-9.626 2.55" stroke-width="1.2" stroke="#000" stroke-miterlimit="10" fill="none"/><path d="M129.594 120.05l-9.63 2.552" stroke-width="1.2" stroke="#3cc" stroke-miterlimit="10" fill="none"/><path d="M131.12 92.75h6v11h-6zm0 0" fill="#fff"/><use xlink:href="#e" x="131.121" y="101.413" fill="#3cc"/><path d="M155.473 106.902h6v11h-6zm0 0" fill="#fff"/><use xlink:href="#e" x="155.473" y="115.565" fill="#3cc"/><path d="M113.965 117.102h6v11h-6zm0 0" fill="#fff"/><use xlink:href="#e" x="113.965" y="125.765" fill="#3cc"/></g></svg>