<svg xmlns="http://www.w3.org/2000/svg" xmlns:xlink="http://www.w3.org/1999/xlink" width="300pt" height="300pt" viewBox="0 0 300 300"><defs><symbol overflow="visible"><path d="M.453 1.594v-7.938h4.5v7.938zm.5-.5h3.5v-6.938h-3.5zm0 0"/></symbol><symbol overflow="visible" id="a"><path d="M4.813-6.344v.86c-.336-.157-.653-.27-.954-.344-.294-.082-.58-.125-.86-.125-.492 0-.867.094-1.125.28-.262.19-.39.454-.39.798 0 .293.085.512.265.656.176.15.504.267.984.36l.547.11c.658.125 1.142.352 1.454.672.32.312.485.734.485 1.265 0 .637-.216 1.122-.642 1.454-.43.325-1.055.485-1.875.485-.312 0-.648-.04-1-.11C1.36-.046 1-.147.625-.296v-.906c.352.2.703.35 1.047.453.35.105.695.156 1.03.156.5 0 .884-.097 1.157-.297.28-.196.42-.485.42-.86 0-.32-.1-.57-.296-.75-.2-.176-.523-.313-.968-.406l-.547-.11C1.81-3.148 1.33-3.36 1.03-3.64.74-3.923.595-4.313.595-4.813c0-.57.203-1.024.61-1.36.405-.344.968-.516 1.687-.516.313 0 .626.032.938.094.32.055.65.137.985.25zm0 0"/></symbol><symbol overflow="visible" id="b"><path d="M3.547-5.953c-.65 0-1.164.242-1.547.72-.375.48-.563 1.13-.563 1.952 0 .835.188 1.49.563 1.967.383.48.898.72 1.547.72.644 0 1.156-.24 1.53-.72.376-.476.564-1.132.564-1.968 0-.822-.187-1.474-.562-1.954-.375-.477-.887-.72-1.53-.72zm0-.734c.914 0 1.648.312 2.203.937.55.617.828 1.438.828 2.47 0 1.042-.277 1.87-.828 2.483-.555.617-1.29.922-2.203.922-.93 0-1.668-.305-2.22-.922C.774-1.41.5-2.237.5-3.28c0-1.033.273-1.853.828-2.47.55-.625 1.29-.938 2.22-.938zm0 0"/></symbol><symbol overflow="visible" id="c"><path d="M.89-6.563H2.08l2.906 5.485v-5.484h.86V0H4.656L1.75-5.484V0H.89zm0 0"/></symbol><symbol overflow="visible" id="d"><path d="M.89-6.563h.876v2.688H5v-2.688h.89V0H5v-3.125H1.766V0H.89zm0 0"/></symbol><symbol overflow="visible" id="e"><path d="M.89-6.563h3.766v.75h-2.89v1.938h2.61v.734h-2.61V0H.89zm0 0"/></symbol></defs><g><path fill="#fff" d="M0 0h300v300H0z"/><path d="M246.578 190.262l4.03-10.297" stroke-width="1.2" stroke="#cc0" stroke-miterlimit="10" fill="none"/><path d="M250.61 179.965l4.03-10.297" stroke-width="1.2" stroke="#f00" stroke-miterlimit="10" fill="none"/><path d="M241.73 188.367l4.036-10.297" stroke-width="1.2" stroke="#cc0" stroke-miterlimit="10" fill="none"/><path d="M245.766 178.07l4.03-10.3" stroke-width="1.2" stroke="#f00" stroke-miterlimit="10" fill="none"/><path d="M241.73 188.367l-4.03 10.297" stroke-width="1.2" stroke="#cc0" stroke-miterlimit="10" fill="none"/><path d="M237.7 198.664l-4.032 10.297" stroke-width="1.2" stroke="#f00" stroke-miterlimit="10" fill="none"/><path d="M246.578 190.262l-4.03 10.3" stroke-width="1.2" stroke="#cc0" stroke-miterlimit="10" fill="none"/><path d="M242.547 200.563l-4.03 10.296" stroke-width="1.2" stroke="#f00" stroke-miterlimit="10" fill="none"/><path d="M244.156 189.316l10.297 4.032" stroke-width="1.2" stroke="#cc0" stroke-miterlimit="10" fill="none"/><path d="M254.453 193.348l10.297 4.03" stroke-width="1.2" stroke="#000" stroke-miterlimit="10" fill="none"/><path d="M244.156 189.316l-10.297-4.035" stroke-width="1.2" stroke="#cc0" stroke-miterlimit="10" fill="none"/><path d="M233.86 185.28l-10.3-4.03" stroke-width="1.2" stroke="#000" stroke-miterlimit="10" fill="none"/><path d="M241.156 183.816h6v11h-6zm0 0" fill="#fff"/><use xlink:href="#a" x="241.156" y="192.479" fill="#cc0"/><path d="M248.22 163.22h8v11h-8zm0 0" fill="#fff"/><use xlink:href="#b" x="248.219" y="171.882" fill="#f00"/><path d="M228.09 204.41h8v11h-8zm0 0" fill="#fff"/><use xlink:href="#b" x="228.09" y="213.073" fill="#f00"/><path d="M223.56 181.25l-17.28 13.805M218.586 178.566l-13.824 11.043M220.246 159.383l3.313 21.867M206.28 195.055l-20.596-8.063M185.684 186.992l-3.313-21.867M190.5 184.023l-2.652-17.492M182.37 165.125l17.282-13.805M182.37 165.125l-20.593-8.066M199.652 151.32l20.594 8.063M199.813 156.973l16.476 6.45M161.777 157.06l-1.656-10.935" stroke-width="1.2" stroke="#000" stroke-miterlimit="10" fill="none"/><path d="M160.12 146.125l-1.66-10.934" stroke-width="1.2" stroke="#00f" stroke-miterlimit="10" fill="none"/><path d="M156.3 155.652l-1.327-8.746" stroke-width="1.2" stroke="#000" stroke-miterlimit="10" fill="none"/><path d="M154.973 146.906l-1.325-8.746M144.496 170.863l8.64-6.902" stroke-width="1.2" stroke="#00f" stroke-miterlimit="10" fill="none"/><path d="M153.137 163.96l8.64-6.9" stroke-width="1.2" stroke="#000" stroke-miterlimit="10" fill="none"/><path d="M158.46 135.19l-10.296-4.03" stroke-width="1.2" stroke="#00f" stroke-miterlimit="10" fill="none"/><path d="M148.164 131.16l-10.297-4.03" stroke-width="1.2" stroke="#000" stroke-miterlimit="10" fill="none"/><path d="M155.46 129.69h7v11h-7zm0 0" fill="#fff"/><use xlink:href="#c" x="155.461" y="138.354" fill="#00f"/><path d="M137.867 127.13l-17.28 13.804M139.387 132.574l-13.825 11.043M137.867 127.13l-3.312-21.868M120.586 140.934l3.316 21.867M123.902 162.8l10.297 4.032" stroke-width="1.2" stroke="#000" stroke-miterlimit="10" fill="none"/><path d="M134.2 166.832l10.296 4.03" stroke-width="1.2" stroke="#00f" stroke-miterlimit="10" fill="none"/><path d="M127.86 158.762l8.234 3.222" stroke-width="1.2" stroke="#000" stroke-miterlimit="10" fill="none"/><path d="M136.094 161.984l8.238 3.227" stroke-width="1.2" stroke="#00f" stroke-miterlimit="10" fill="none"/><path d="M123.902 162.8l-8.64 6.903" stroke-width="1.2" stroke="#000" stroke-miterlimit="10" fill="none"/><path d="M115.262 169.703l-8.64 6.9" stroke-width="1.2" stroke="#00f" stroke-miterlimit="10" fill="none"/><path d="M141.496 165.363h7v11h-7zm0 0" fill="#fff"/><use xlink:href="#c" x="141.496" y="174.026" fill="#00f"/><path d="M106.62 176.602l-10.296-4.032" stroke-width="1.2" stroke="#00f" stroke-miterlimit="10" fill="none"/><path d="M96.324 172.57l-10.3-4.03" stroke-width="1.2" stroke="#000" stroke-miterlimit="10" fill="none"/><path d="M99.62 171.102h14v11h-14zm0 0" fill="#fff"/><g fill="#00f"><use xlink:href="#c" x="99.621" y="179.765"/><use xlink:href="#d" x="106.599" y="179.765"/></g><path d="M86.023 168.54l-17.277 13.804M68.746 182.344l.504 11.047" stroke-width="1.2" stroke="#000" stroke-miterlimit="10" fill="none"/><path d="M69.25 193.39l.504 11.048" stroke-width="1.2" stroke="#00f" stroke-miterlimit="10" fill="none"/><path d="M47.418 176.477l21.328 5.867M48.172 182.082l17.058 4.69" stroke-width="1.2" stroke="#000" stroke-miterlimit="10" fill="none"/><path d="M69.754 204.438l-10.352 3.894" stroke-width="1.2" stroke="#00f" stroke-miterlimit="10" fill="none"/><path d="M59.402 208.332l-10.347 3.895" stroke-width="1.2" stroke="#000" stroke-miterlimit="10" fill="none"/><path d="M69.754 204.438l9.234 6.085" stroke-width="1.2" stroke="#00f" stroke-miterlimit="10" fill="none"/><path d="M78.988 210.523l9.235 6.082" stroke-width="1.2" stroke="#000" stroke-miterlimit="10" fill="none"/><path d="M66.754 198.938h7v11h-7zm0 0" fill="#fff"/><use xlink:href="#c" x="66.754" y="207.601" fill="#00f"/><path d="M49.055 212.227L35.25 194.945M51.738 207.25l-11.043-13.824M35.25 194.945l12.168-18.468M134.555 105.262l-1.657-10.934" stroke-width="1.2" stroke="#000" stroke-miterlimit="10" fill="none"/><path d="M132.898 94.328l-1.66-10.933" stroke-width="1.2" stroke="#3cc" stroke-miterlimit="10" fill="none"/><path d="M134.555 105.262l10.933-1.657" stroke-width="1.2" stroke="#000" stroke-miterlimit="10" fill="none"/><path d="M145.488 103.605l10.934-1.66" stroke-width="1.2" stroke="#3cc" stroke-miterlimit="10" fill="none"/><path d="M134.555 105.262l-10.934 1.656" stroke-width="1.2" stroke="#000" stroke-miterlimit="10" fill="none"/><path d="M123.62 106.918l-10.933 1.656" stroke-width="1.2" stroke="#3cc" stroke-miterlimit="10" fill="none"/><path d="M128.238 77.895h6v11h-6zm0 0" fill="#fff"/><use xlink:href="#e" x="128.238" y="86.558" fill="#3cc"/><path d="M153.422 96.445h6v11h-6zm0 0" fill="#fff"/><use xlink:href="#e" x="153.422" y="105.108" fill="#3cc"/><path d="M106.688 103.074h6v11h-6zm0 0" fill="#fff"/><use xlink:href="#e" x="106.688" y="111.737" fill="#3cc"/></g></svg>