<svg xmlns="http://www.w3.org/2000/svg" xmlns:xlink="http://www.w3.org/1999/xlink" width="300pt" height="300pt" viewBox="0 0 300 300"><defs><symbol overflow="visible"><path d="M.547 1.938V-7.75h5.5v9.688zm.625-.61h4.266v-8.47H1.171zm0 0"/></symbol><symbol overflow="visible" id="a"><path d="M4.328-7.28c-.78 0-1.406.296-1.875.89-.46.585-.687 1.382-.687 2.39 0 1.012.226 1.813.687 2.406.47.586 1.094.875 1.875.875.79 0 1.414-.288 1.875-.874.457-.593.688-1.394.688-2.406 0-1.008-.23-1.805-.687-2.39-.46-.594-1.086-.89-1.875-.89zm0-.892c1.125 0 2.024.383 2.703 1.14C7.708-6.28 8.048-5.27 8.048-4c0 1.262-.34 2.273-1.016 3.03C6.353-.22 5.454.157 4.33.157S2.3-.22 1.625-.97c-.668-.75-1-1.757-1-3.03 0-1.27.332-2.28 1-3.03.676-.76 1.578-1.142 2.703-1.142zm0 0"/></symbol><symbol overflow="visible" id="b"><path d="M1.078-8.016h1.47l3.546 6.704v-6.704h1.062V0H5.688L2.124-6.703V0H1.078zm0 0"/></symbol><symbol overflow="visible"><path d="M.453 1.594v-7.938h4.5v7.938zm.5-.5h3.5v-6.938h-3.5zm0 0"/></symbol><symbol overflow="visible" id="c"><path d="M.438-2.828h2.374v.72H.438zm0 0"/></symbol></defs><g><path fill="#fff" d="M0 0h300v300H0z"/><path d="M107.688 222.96l12.878 2.04" stroke-width="1.2" stroke="#f00" stroke-miterlimit="10" fill="none"/><path d="M120.566 225l12.883 2.04" stroke-width="1.2" stroke="#00f" stroke-miterlimit="10" fill="none"/><path d="M103.605 197.2l2.04 12.878" stroke-width="1.2" stroke="#000" stroke-miterlimit="10" fill="none"/><path d="M105.645 210.078l2.043 12.883" stroke-width="1.2" stroke="#f00" stroke-miterlimit="10" fill="none"/><path d="M103.688 216.46h9v13h-9zm0 0" fill="#fff"/><use xlink:href="#a" x="103.688" y="226.362" fill="#f00"/><path d="M133.45 227.04l5.917-11.622" stroke-width="1.2" stroke="#00f" stroke-miterlimit="10" fill="none"/><path d="M139.367 215.418l5.922-11.617" stroke-width="1.2" stroke="#000" stroke-miterlimit="10" fill="none"/><path d="M129.164 221.93l4.734-9.297" stroke-width="1.2" stroke="#00f" stroke-miterlimit="10" fill="none"/><path d="M133.898 212.633l4.74-9.297" stroke-width="1.2" stroke="#000" stroke-miterlimit="10" fill="none"/><path d="M129.45 220.54h8v13h-8zm0 0" fill="#fff"/><use xlink:href="#b" x="129.449" y="230.44" fill="#00f"/><path d="M145.29 203.8l-18.446-18.445M145.29 203.8l25.76-4.08M126.844 185.355l4.082-25.76M126.844 185.355l-23.24 11.844M127.31 192.008l-18.595 9.472M130.926 159.594l24.347-9.348M131.16 152.93l19.48-7.477M110.652 143.18l20.274 16.414M155.273 150.246l4.082-25.762M159.355 124.484l-20.273-16.414M153.465 127.613L137.25 114.48M139.082 108.07l2.043-12.88" stroke-width="1.2" stroke="#000" stroke-miterlimit="10" fill="none"/><path d="M141.125 95.19l2.04-12.88" stroke-width="1.2" stroke="#f00" stroke-miterlimit="10" fill="none"/><path d="M139.082 108.07l-24.348 9.348" stroke-width="1.2" stroke="#000" stroke-miterlimit="10" fill="none"/><path d="M143.164 82.31l12.176-4.673" stroke-width="1.2" stroke="#f00" stroke-miterlimit="10" fill="none"/><path d="M155.34 77.637l12.176-4.676" stroke-width="1.2" stroke="#000" stroke-miterlimit="10" fill="none"/><path d="M139.164 75.81h9v13h-9zm0 0" fill="#fff"/><use xlink:href="#a" x="139.164" y="85.71" fill="#f00"/><path d="M114.734 117.418l-4.082 25.762M120.387 120.953l-3.262 20.61M103.605 197.2l-23.242-11.845M80.363 185.355l-21.87 14.208M55.426 199.723l.683 13.023" stroke-width="1.2" stroke="#000" stroke-miterlimit="10" fill="none"/><path d="M56.11 212.746l.683 13.024" stroke-width="1.2" stroke="#f00" stroke-miterlimit="10" fill="none"/><path d="M61.555 199.402l.683 13.024" stroke-width="1.2" stroke="#000" stroke-miterlimit="10" fill="none"/><path d="M62.238 212.426l.684 13.023" stroke-width="1.2" stroke="#f00" stroke-miterlimit="10" fill="none"/><path d="M58.492 199.563l-11.62-5.918" stroke-width="1.2" stroke="#000" stroke-miterlimit="10" fill="none"/><path d="M46.87 193.645l-11.62-5.922" stroke-width="1.2" stroke="#f00" stroke-miterlimit="10" fill="none"/><path d="M55.855 219.11h9v13h-9zm0 0" fill="#fff"/><use xlink:href="#a" x="55.855" y="229.011" fill="#f00"/><path d="M23.25 179.723h12v16h-12zm0 0" fill="#fff"/><use xlink:href="#c" x="23.25" y="187.973" fill="#f00"/><use xlink:href="#a" x="26.458" y="192.855" fill="#f00"/><path d="M171.05 199.72l16.415 20.268M177.46 197.883l13.134 16.215M180.398 175.367l-9.347 24.352M187.465 219.988l25.762-4.082M213.227 215.906l9.347-24.35M208.434 211.273l7.476-19.48M222.574 191.555l12.88-2.04" stroke-width="1.2" stroke="#000" stroke-miterlimit="10" fill="none"/><path d="M235.453 189.516l12.883-2.04" stroke-width="1.2" stroke="#f00" stroke-miterlimit="10" fill="none"/><path d="M222.574 191.555l-16.414-20.27" stroke-width="1.2" stroke="#000" stroke-miterlimit="10" fill="none"/><path d="M248.336 187.477l8.207 10.132" stroke-width="1.2" stroke="#f00" stroke-miterlimit="10" fill="none"/><path d="M256.543 197.61l8.207 10.136" stroke-width="1.2" stroke="#000" stroke-miterlimit="10" fill="none"/><path d="M244.336 180.977h9v13h-9zm0 0" fill="#fff"/><use xlink:href="#a" x="244.336" y="190.878" fill="#f00"/><path d="M206.16 171.285l-25.762 4.082M204.543 177.758l-20.61 3.262" stroke-width="1.2" stroke="#000" stroke-miterlimit="10" fill="none"/></g></svg>