<svg xmlns="http://www.w3.org/2000/svg" xmlns:xlink="http://www.w3.org/1999/xlink" width="300pt" height="300pt" viewBox="0 0 300 300"><defs><symbol overflow="visible"><path d="M.75 2.656v-13.234h7.5V2.656zm.844-.844h5.812V-9.733H1.594zm0 0"/></symbol><symbol overflow="visible" id="a"><path d="M5.906-9.938c-1.074 0-1.93.403-2.562 1.204-.625.804-.938 1.898-.938 3.28 0 1.376.313 2.466.938 3.266.633.805 1.488 1.204 2.562 1.204 1.07 0 1.922-.4 2.547-1.204.633-.8.953-1.89.953-3.265 0-1.383-.32-2.477-.953-3.28-.625-.802-1.476-1.204-2.547-1.204zm0-1.203c1.532 0 2.754.515 3.672 1.546.926 1.03 1.39 2.414 1.39 4.14 0 1.72-.464 3.095-1.39 4.126C8.66-.298 7.438.22 5.906.22c-1.53 0-2.76-.51-3.687-1.532C1.3-2.345.843-3.723.843-5.452c0-1.728.457-3.11 1.375-4.142.925-1.03 2.155-1.547 3.686-1.547zm0 0"/></symbol><symbol overflow="visible" id="b"><path d="M1.47-10.938h1.483v4.485h5.375v-4.484h1.485V0H8.328v-5.203H2.953V0H1.47zm0 0"/></symbol></defs><g><path fill="#fff" d="M0 0h300v300H0z"/><path d="M125.707 180.426l-36.363 3.492 3.394 12.234zm0 0"/><path d="M71.19 160.035l9.927 15" stroke-width="1.2" stroke="#000" stroke-miterlimit="10" fill="none"/><path d="M81.117 175.035l9.926 15" stroke-width="1.2" stroke="#f00" stroke-miterlimit="10" fill="none"/><path d="M85.043 181.035h12v18h-12zm0 0" fill="#fff"/><use xlink:href="#a" x="85.043" y="194.649" fill="#f00"/><path d="M125.707 180.426l1.574-35.938M152.824 204.066l-27.117-23.64" stroke-width="1.2" stroke="#000" stroke-miterlimit="10" fill="none"/><path d="M127.28 144.488L160.1 128.44l-7.473-10.26zm0 0"/><path d="M127.28 144.488l-33.694-12.6M156.363 123.31l34.688 9.534M191.05 132.844l14.177 33.062" stroke-width="1.2" stroke="#000" stroke-miterlimit="10" fill="none"/><path d="M191.05 132.844l-1.86-36.485-12.374 2.84zm0 0"/><path d="M218.113 109.145l-27.062 23.7" stroke-width="1.2" stroke="#000" stroke-miterlimit="10" fill="none"/><path d="M205.227 165.906l-22.606 28.696 11.19 6.003zm0 0"/><path d="M205.227 165.906l35.824-3.265M188.215 197.602l-35.39 6.464" stroke-width="1.2" stroke="#000" stroke-miterlimit="10" fill="none"/><path d="M188.215 197.602l16.047 32.816 10.26-7.473zm0 0"/><path d="M241.05 162.64m1.555 2.567l.786-.687m.77 3.253l1.567-1.375m-.012 3.942l2.35-2.063m-.8 4.63l3.14-2.75m-1.585 5.316l3.922-3.438m-2.367 6l4.707-4.12m-3.152 6.687l5.492-4.81m-3.938 7.376l6.274-5.492m-4.72 8.058l7.06-6.18m-5.508 8.747l7.848-6.866m-6.293 9.433l8.628-7.554m-7.074 10.12l9.413-8.242m-9.14 8.697l9.554-8.364" stroke="#000" stroke-miterlimit="10" fill="none"/><path d="M241.05 162.64l7.966-35.08" stroke-width="1.2" stroke="#000" stroke-miterlimit="10" fill="none"/><path d="M253.75 180.703h23v18h-23zm0 0" fill="#fff"/><g fill="#f00"><use xlink:href="#a" x="253.75" y="194.317"/><use xlink:href="#b" x="265.299" y="194.317"/></g><path d="M249.016 127.56l-30.903-18.415M222.328 108.758l-1.633-17.91" stroke-width="1.2" stroke="#000" stroke-miterlimit="10" fill="none"/><path d="M220.695 90.848l-1.632-17.914" stroke-width="1.2" stroke="#f00" stroke-miterlimit="10" fill="none"/><path d="M213.898 109.527l-1.632-17.914" stroke-width="1.2" stroke="#000" stroke-miterlimit="10" fill="none"/><path d="M212.266 91.613l-1.633-17.91" stroke-width="1.2" stroke="#f00" stroke-miterlimit="10" fill="none"/><path d="M208.848 64.316h12v18h-12zm0 0" fill="#fff"/><use xlink:href="#a" x="208.848" y="77.931" fill="#f00"/><path d="M97.664 130.754L88.06 96.086M89.508 133.016l-9.61-34.668M93.586 131.887L71.19 160.035M71.375 155.81l-17.97-.79" stroke-width="1.2" stroke="#000" stroke-miterlimit="10" fill="none"/><path d="M53.406 155.02l-17.972-.786" stroke-width="1.2" stroke="#f00" stroke-miterlimit="10" fill="none"/><path d="M71.004 164.266l-17.97-.79" stroke-width="1.2" stroke="#000" stroke-miterlimit="10" fill="none"/><path d="M53.035 163.477l-17.97-.786" stroke-width="1.2" stroke="#f00" stroke-miterlimit="10" fill="none"/><path d="M23.25 149.46h12v18h-12zm0 0" fill="#fff"/><use xlink:href="#a" x="23.25" y="163.075" fill="#f00"/></g></svg>