<svg xmlns="http://www.w3.org/2000/svg" xmlns:xlink="http://www.w3.org/1999/xlink" width="300pt" height="300pt" viewBox="0 0 300 300"><defs><symbol overflow="visible"><path d="M.797 2.828v-14.11h8V2.83zm.906-.89h6.203v-12.33H1.703zm0 0"/></symbol><symbol overflow="visible" id="a"><path d="M6.313-10.594c-1.15 0-2.06.43-2.735 1.28-.68.857-1.015 2.017-1.015 3.486 0 1.47.335 2.633 1.015 3.484.676.856 1.586 1.28 2.735 1.28 1.144.002 2.05-.424 2.718-1.28.665-.85 1-2.015 1-3.484 0-1.47-.335-2.63-1-3.484-.667-.852-1.573-1.282-2.717-1.282zm0-1.28c1.632 0 2.94.546 3.92 1.64.978 1.093 1.47 2.562 1.47 4.406 0 1.844-.492 3.32-1.47 4.422-.98 1.093-2.288 1.64-3.92 1.64-1.65 0-2.96-.546-3.938-1.64-.98-1.102-1.47-2.578-1.47-4.422 0-1.844.49-3.313 1.47-4.406.977-1.094 2.29-1.64 3.938-1.64zm0 0"/></symbol><symbol overflow="visible" id="b"><path d="M1.578-11.672h2.125l5.172 9.766v-9.766h1.53V0H8.282L3.11-9.766V0H1.577zm0 0"/></symbol><symbol overflow="visible"><path d="M.64 2.297v-11.47h6.5v11.47zm.735-.72h5.047V-8.436H1.375zm0 0"/></symbol><symbol overflow="visible" id="c"><path d="M5.984-8.156v3.547h3.532v1.08H5.984V0H4.906v-3.53h-3.53v-1.08h3.53v-3.546zm0 0"/></symbol><symbol overflow="visible" id="d"><path d="M.64-4.078h3.422v1.03H.643zm0 0"/></symbol></defs><g><path fill="#fff" d="M0 0h300v300H0z"/><path d="M159.445 50.316l-7.132 17.746" stroke-width="1.2" stroke="#f00" stroke-miterlimit="10" fill="none"/><path d="M152.313 68.063l-7.13 17.746M197.605 52.914l-19.078-1.3" stroke-width="1.2" stroke="#000" stroke-miterlimit="10" fill="none"/><path d="M178.527 51.613l-19.082-1.297" stroke-width="1.2" stroke="#f00" stroke-miterlimit="10" fill="none"/><path d="M153.445 40.816h13v19h-13zm0 0" fill="#fff"/><use xlink:href="#a" x="153.445" y="55.668" fill="#f00"/><path d="M145.184 85.81l-35.918 13.147M144.684 95.574l-28.735 10.52M174.53 110.34l-29.346-24.53M109.266 98.957l-6.575 37.684M102.69 136.64l29.35 24.532M111.398 132.188l23.48 19.625M102.69 136.64l-35.917 13.15M132.04 161.172l35.92-13.152M125.47 198.852l6.57-37.68M167.96 148.02l29.35 24.53M167.96 148.02l6.57-37.68M159.75 142.707l5.258-30.144M197.31 172.55l-6.576 37.684M205.516 177.867l-5.258 30.145M233.227 159.402l-35.918 13.15M190.734 210.234l-35.918 13.15M190.734 210.234l29.348 24.532M154.816 223.383l-29.347-24.53M157.656 214.023l-23.48-19.625M125.47 198.852l-17.958 6.574" stroke-width="1.2" stroke="#000" stroke-miterlimit="10" fill="none"/><path d="M107.512 205.426l-17.96 6.578M91.996 208.223l-10.54-6.813" stroke-width="1.2" stroke="#00f" stroke-miterlimit="10" fill="none"/><path d="M81.457 201.41l-10.535-6.816" stroke-width="1.2" stroke="#f00" stroke-miterlimit="10" fill="none"/><path d="M87.105 215.78l-10.535-6.81" stroke-width="1.2" stroke="#00f" stroke-miterlimit="10" fill="none"/><path d="M76.57 208.97l-10.535-6.818" stroke-width="1.2" stroke="#f00" stroke-miterlimit="10" fill="none"/><path d="M89.55 212.004l-3.284 18.84" stroke-width="1.2" stroke="#00f" stroke-miterlimit="10" fill="none"/><path d="M86.266 230.844l-3.286 18.84" stroke-width="1.2" stroke="#f00" stroke-miterlimit="10" fill="none"/><path d="M77.55 201.004h24v22h-24zm0 0" fill="#fff"/><use xlink:href="#b" x="77.551" y="218.263" fill="#00f"/><use xlink:href="#c" x="89.52" y="213.38" fill="#00f"/><path d="M55.477 188.875h13v19h-13zm0 0" fill="#fff"/><use xlink:href="#a" x="55.477" y="203.727" fill="#f00"/><path d="M73.98 238.684h18v22h-18zm0 0" fill="#fff"/><use xlink:href="#d" x="73.98" y="251.06" fill="#f00"/><use xlink:href="#a" x="78.79" y="255.942" fill="#f00"/><path d="M220.082 234.766L256 221.616M220.582 225l28.734-10.52M256 221.617l6.574-37.683M262.574 183.934l-29.347-24.532M253.867 188.387l-23.48-19.625M174.53 110.34l16.2-10.164" stroke-width="1.2" stroke="#000" stroke-miterlimit="10" fill="none"/><path d="M190.73 100.176l16.2-10.168M206.93 90.008l-4.66-18.547" stroke-width="1.2" stroke="#f00" stroke-miterlimit="10" fill="none"/><path d="M202.27 71.46l-4.665-18.546" stroke-width="1.2" stroke="#000" stroke-miterlimit="10" fill="none"/><path d="M200.93 80.508h13v19h-13zm0 0" fill="#fff"/><use xlink:href="#a" x="200.93" y="95.359" fill="#f00"/><path d="M69.66 146.336L54.988 134.07" stroke-width="1.2" stroke="#000" stroke-miterlimit="10" fill="none"/><path d="M54.988 134.07l-14.675-12.265" stroke-width="1.2" stroke="#f00" stroke-miterlimit="10" fill="none"/><path d="M63.89 153.242l-14.675-12.265" stroke-width="1.2" stroke="#000" stroke-miterlimit="10" fill="none"/><path d="M49.215 140.977L34.543 128.71" stroke-width="1.2" stroke="#f00" stroke-miterlimit="10" fill="none"/><path d="M66.773 149.79l-3.644 12.007" stroke-width="1.2" stroke="#000" stroke-miterlimit="10" fill="none"/><path d="M63.13 161.797L59.48 173.8" stroke-width="1.2" stroke="#f00" stroke-miterlimit="10" fill="none"/><path d="M24.426 115.758h13v19h-13zm0 0" fill="#fff"/><use xlink:href="#a" x="24.426" y="130.609" fill="#f00"/><path d="M41.48 162.8h18v22h-18zm0 0" fill="#fff"/><use xlink:href="#d" x="41.48" y="175.177" fill="#f00"/><use xlink:href="#a" x="46.29" y="180.06" fill="#f00"/></g></svg>