<svg xmlns="http://www.w3.org/2000/svg" xmlns:xlink="http://www.w3.org/1999/xlink" width="300pt" height="300pt" viewBox="0 0 300 300"><defs><symbol overflow="visible"><path d="M.797 2.828v-14.11h8V2.83zm.906-.89h6.203v-12.33H1.703zm0 0"/></symbol><symbol overflow="visible" id="a"><path d="M6.313-10.594c-1.15 0-2.06.43-2.735 1.28-.68.857-1.015 2.017-1.015 3.486 0 1.47.335 2.633 1.015 3.484.676.856 1.586 1.28 2.735 1.28 1.144.002 2.05-.424 2.718-1.28.665-.85 1-2.015 1-3.484 0-1.47-.335-2.63-1-3.484-.667-.852-1.573-1.282-2.717-1.282zm0-1.28c1.632 0 2.94.546 3.92 1.64.978 1.093 1.47 2.562 1.47 4.406 0 1.844-.492 3.32-1.47 4.422-.98 1.093-2.288 1.64-3.92 1.64-1.65 0-2.96-.546-3.938-1.64-.98-1.102-1.47-2.578-1.47-4.422 0-1.844.49-3.313 1.47-4.406.977-1.094 2.29-1.64 3.938-1.64zm0 0"/></symbol><symbol overflow="visible" id="b"><path d="M1.578-11.672h2.125l5.172 9.766v-9.766h1.53V0H8.282L3.11-9.766V0H1.577zm0 0"/></symbol><symbol overflow="visible" id="c"><path d="M1.578-11.672h1.578v4.78H8.89v-4.78h1.58V0H8.89v-5.563H3.157V0H1.578zm0 0"/></symbol></defs><g><path fill="#fff" d="M0 0h300v300H0z"/><path d="M63.234 207.55l1.332-19.08" stroke-width="1.2" stroke="#f00" stroke-miterlimit="10" fill="none"/><path d="M64.566 188.47l1.332-19.08" stroke-width="1.2" stroke="#000" stroke-miterlimit="10" fill="none"/><path d="M54.254 206.922l1.332-19.078" stroke-width="1.2" stroke="#f00" stroke-miterlimit="10" fill="none"/><path d="M55.586 187.844l1.332-19.078" stroke-width="1.2" stroke="#000" stroke-miterlimit="10" fill="none"/><path d="M52.746 197.734h13v19h-13zm0 0" fill="#fff"/><use xlink:href="#a" x="52.746" y="212.586" fill="#f00"/><path d="M61.406 169.078l-15.855-10.69" stroke-width="1.2" stroke="#000" stroke-miterlimit="10" fill="none"/><path d="M45.55 158.387L29.696 147.69" stroke-width="1.2" stroke="#00f" stroke-miterlimit="10" fill="none"/><path d="M95.785 152.31l-34.38 16.768" stroke-width="1.2" stroke="#000" stroke-miterlimit="10" fill="none"/><path d="M29.695 147.69l1.332-19.077" stroke-width="1.2" stroke="#00f" stroke-miterlimit="10" fill="none"/><path d="M31.027 128.613l1.332-19.078" stroke-width="1.2" stroke="#000" stroke-miterlimit="10" fill="none"/><path d="M17.695 138.19h24v19h-24zm0 0" fill="#fff"/><g fill="#00f"><use xlink:href="#b" x="17.695" y="153.043"/><use xlink:href="#c" x="29.664" y="153.043"/></g><path d="M32.36 109.535l34.374-16.77M66.734 92.766l31.715 21.382M98.45 114.148l18.554-4.628" stroke-width="1.2" stroke="#000" stroke-miterlimit="10" fill="none"/><path d="M117.004 109.52l18.558-4.63" stroke-width="1.2" stroke="#00f" stroke-miterlimit="10" fill="none"/><path d="M95.785 152.31l2.664-38.162M87.074 147.863l2.13-30.523" stroke-width="1.2" stroke="#000" stroke-miterlimit="10" fill="none"/><path d="M135.563 104.89l10.136 16.22" stroke-width="1.2" stroke="#00f" stroke-miterlimit="10" fill="none"/><path d="M145.7 121.11l10.136 16.218" stroke-width="1.2" stroke="#000" stroke-miterlimit="10" fill="none"/><path d="M123.563 95.39h24v19h-24zm0 0" fill="#fff"/><g fill="#00f"><use xlink:href="#b" x="123.563" y="110.242"/><use xlink:href="#c" x="135.531" y="110.242"/></g><path d="M155.836 137.328l-24.586 29.305M146.48 134.473l-19.667 23.445M155.836 137.328l38.156 2.664M131.25 166.633L95.785 152.31M193.992 139.992l16.77 34.375M203.758 139.48l13.418 27.504M215.375 108.277l-21.383 31.715M210.762 174.367l38.16 2.664M248.922 177.03l10.69-15.854" stroke-width="1.2" stroke="#000" stroke-miterlimit="10" fill="none"/><path d="M259.613 161.176l10.692-15.86" stroke-width="1.2" stroke="#00f" stroke-miterlimit="10" fill="none"/><path d="M243.598 168.828l8.554-12.687" stroke-width="1.2" stroke="#000" stroke-miterlimit="10" fill="none"/><path d="M252.152 156.14l8.555-12.683M270.305 145.316l-8.387-17.187" stroke-width="1.2" stroke="#00f" stroke-miterlimit="10" fill="none"/><path d="M261.918 128.13l-8.383-17.19" stroke-width="1.2" stroke="#000" stroke-miterlimit="10" fill="none"/><path d="M264.305 135.816h12v19h-12zm0 0" fill="#fff"/><use xlink:href="#b" x="264.305" y="150.668" fill="#00f"/><path d="M253.535 110.94l-38.16-2.663M249.09 119.652l-30.524-2.13" stroke-width="1.2" stroke="#000" stroke-miterlimit="10" fill="none"/></g></svg>