<svg xmlns="http://www.w3.org/2000/svg" xmlns:xlink="http://www.w3.org/1999/xlink" width="300pt" height="300pt" viewBox="0 0 300 300"><defs><symbol overflow="visible"><path d="M.453 1.594v-7.938h4.5v7.938zm.5-.5h3.5v-6.938h-3.5zm0 0"/></symbol><symbol overflow="visible" id="a"><path d="M4.813-6.344v.86c-.336-.157-.653-.27-.954-.344-.294-.082-.58-.125-.86-.125-.492 0-.867.094-1.125.28-.262.19-.39.454-.39.798 0 .293.085.512.265.656.176.15.504.267.984.36l.547.11c.658.125 1.142.352 1.454.672.32.312.485.734.485 1.265 0 .637-.216 1.122-.642 1.454-.43.325-1.055.485-1.875.485-.312 0-.648-.04-1-.11C1.36-.046 1-.147.625-.296v-.906c.352.2.703.35 1.047.453.35.105.695.156 1.03.156.5 0 .884-.097 1.157-.297.28-.196.42-.485.42-.86 0-.32-.1-.57-.296-.75-.2-.176-.523-.313-.968-.406l-.547-.11C1.81-3.148 1.33-3.36 1.03-3.64.74-3.923.595-4.313.595-4.813c0-.57.203-1.024.61-1.36.405-.344.968-.516 1.687-.516.313 0 .626.032.938.094.32.055.65.137.985.25zm0 0"/></symbol><symbol overflow="visible" id="b"><path d="M3.547-5.953c-.65 0-1.164.242-1.547.72-.375.48-.563 1.13-.563 1.952 0 .835.188 1.49.563 1.967.383.48.898.72 1.547.72.644 0 1.156-.24 1.53-.72.376-.476.564-1.132.564-1.968 0-.822-.187-1.474-.562-1.954-.375-.477-.887-.72-1.53-.72zm0-.734c.914 0 1.648.312 2.203.937.55.617.828 1.438.828 2.47 0 1.042-.277 1.87-.828 2.483-.555.617-1.29.922-2.203.922-.93 0-1.668-.305-2.22-.922C.774-1.41.5-2.237.5-3.28c0-1.033.273-1.853.828-2.47.55-.625 1.29-.938 2.22-.938zm0 0"/></symbol><symbol overflow="visible" id="c"><path d="M.89-6.563H2.08l2.906 5.485v-5.484h.86V0H4.656L1.75-5.484V0H.89zm0 0"/></symbol><symbol overflow="visible" id="d"><path d="M.89-6.563h.876v2.688H5v-2.688h.89V0H5v-3.125H1.766V0H.89zm0 0"/></symbol><symbol overflow="visible" id="f"><path d="M.89-6.563h3.766v.75h-2.89v1.938h2.61v.734h-2.61V0H.89zm0 0"/></symbol><symbol overflow="visible"><path d="M.406 1.422V-5.64h4V1.42zM.844.97h3.11v-6.157H.843zm0 0"/></symbol><symbol overflow="visible" id="e"><path d="M3.688-5.016v2.172h2.17v.672H3.69V0H3.03v-2.172H.845v-.672H3.03v-2.172zm0 0"/></symbol></defs><g><path fill="#fff" d="M0 0h300v300H0z"/><path d="M47.043 179.95l.207 6.683" stroke-width="1.2" stroke="#cc0" stroke-miterlimit="10" fill="none"/><path d="M47.25 186.633l.207 6.683" stroke-width="1.2" stroke="#f00" stroke-miterlimit="10" fill="none"/><path d="M50.188 179.855l.207 6.68" stroke-width="1.2" stroke="#cc0" stroke-miterlimit="10" fill="none"/><path d="M50.395 186.535l.207 6.684" stroke-width="1.2" stroke="#f00" stroke-miterlimit="10" fill="none"/><path d="M50.188 179.855l-.208-6.683" stroke-width="1.2" stroke="#cc0" stroke-miterlimit="10" fill="none"/><path d="M49.98 173.172l-.207-6.684" stroke-width="1.2" stroke="#f00" stroke-miterlimit="10" fill="none"/><path d="M47.043 179.95l-.207-6.68" stroke-width="1.2" stroke="#cc0" stroke-miterlimit="10" fill="none"/><path d="M46.836 173.27l-.207-6.684" stroke-width="1.2" stroke="#f00" stroke-miterlimit="10" fill="none"/><path d="M48.617 179.902l-6.683.207" stroke-width="1.2" stroke="#cc0" stroke-miterlimit="10" fill="none"/><path d="M41.934 180.11l-6.684.206" stroke-width="1.2" stroke="#000" stroke-miterlimit="10" fill="none"/><path d="M48.617 179.902l6.684-.207" stroke-width="1.2" stroke="#cc0" stroke-miterlimit="10" fill="none"/><path d="M55.3 179.695l6.684-.207" stroke-width="1.2" stroke="#000" stroke-miterlimit="10" fill="none"/><path d="M45.617 174.402h6v11h-6zm0 0" fill="#fff"/><use xlink:href="#a" x="45.617" y="183.065" fill="#cc0"/><path d="M45.03 187.77h8v11h-8zm0 0" fill="#fff"/><use xlink:href="#b" x="45.031" y="196.433" fill="#f00"/><path d="M44.203 161.035h8v11h-8zm0 0" fill="#fff"/><use xlink:href="#b" x="44.203" y="169.698" fill="#f00"/><path d="M61.984 179.488l6.325-11.78M65.387 179.797l5.062-9.426M69.023 190.86l-7.04-11.372M68.31 167.707l13.366-.414M81.676 167.293l7.04 11.367M79.703 170.086l5.633 9.094M88.715 178.66l-6.324 11.785M88.715 178.66l13.367-.414M82.39 190.445l-13.367.414M80.957 187.34l-10.69.332M102.082 178.246l3.164-5.89" stroke-width="1.2" stroke="#000" stroke-miterlimit="10" fill="none"/><path d="M105.246 172.355l3.16-5.89M108.406 166.465l6.625-.903" stroke-width="1.2" stroke="#00f" stroke-miterlimit="10" fill="none"/><path d="M115.03 165.563l6.626-.907M102.594 154.422l2.906 6.023" stroke-width="1.2" stroke="#000" stroke-miterlimit="10" fill="none"/><path d="M105.5 160.445l2.906 6.02" stroke-width="1.2" stroke="#00f" stroke-miterlimit="10" fill="none"/><path d="M105.406 160.965h7v11h-7zm0 0" fill="#fff"/><use xlink:href="#c" x="105.406" y="169.628" fill="#00f"/><path d="M121.656 164.656l10.21 8.637M124.03 151.496l-2.374 13.16M120.7 152.254l-1.903 10.527M131.867 173.293l12.586-4.523M144.453 168.77l1.188-6.583" stroke-width="1.2" stroke="#000" stroke-miterlimit="10" fill="none"/><path d="M145.64 162.188l1.188-6.58M146.828 155.61l-5.105-4.32" stroke-width="1.2" stroke="#00f" stroke-miterlimit="10" fill="none"/><path d="M141.723 151.29l-5.106-4.317" stroke-width="1.2" stroke="#000" stroke-miterlimit="10" fill="none"/><path d="M146.828 155.61l6.29-2.262" stroke-width="1.2" stroke="#00f" stroke-miterlimit="10" fill="none"/><path d="M153.117 153.348l6.293-2.262" stroke-width="1.2" stroke="#000" stroke-miterlimit="10" fill="none"/><path d="M136.828 148.11h21v15h-21zm0 0" fill="#fff"/><g fill="#00f"><use xlink:href="#c" x="136.828" y="160.211"/><use xlink:href="#d" x="143.806" y="160.211"/></g><use xlink:href="#e" x="150.82" y="155.328" fill="#00f"/><path d="M136.617 146.973l-12.586 4.523M124.03 151.496l-11.78-6.324M112.25 145.172l-3.184-12.988M108.875 144.62l-2.547-10.39M102.594 154.422l9.656-9.25M109.066 132.184l-12.84-3.74M96.227 128.445l-1.594-6.492" stroke-width="1.2" stroke="#000" stroke-miterlimit="10" fill="none"/><path d="M94.633 121.953l-1.59-6.496" stroke-width="1.2" stroke="#f00" stroke-miterlimit="10" fill="none"/><path d="M96.227 128.445l-9.657 9.25M97.438 131.645l-7.727 7.398" stroke-width="1.2" stroke="#000" stroke-miterlimit="10" fill="none"/><path d="M93.043 115.457l4.828-4.625" stroke-width="1.2" stroke="#f00" stroke-miterlimit="10" fill="none"/><path d="M97.87 110.832l4.83-4.625" stroke-width="1.2" stroke="#000" stroke-miterlimit="10" fill="none"/><path d="M89.043 109.957h8v11h-8zm0 0" fill="#fff"/><use xlink:href="#b" x="89.043" y="118.62" fill="#f00"/><path d="M86.57 137.695l3.184 12.993M89.754 150.688l12.84 3.734M91.918 148.04l10.27 2.987M159.41 151.086l10.21 8.637M169.62 159.723l12.587-4.524M182.207 155.2l5.102 4.316" stroke-width="1.2" stroke="#000" stroke-miterlimit="10" fill="none"/><path d="M187.31 159.516l5.104 4.32M192.414 163.836l6.293-2.262" stroke-width="1.2" stroke="#f00" stroke-miterlimit="10" fill="none"/><path d="M198.707 161.574l6.293-2.262" stroke-width="1.2" stroke="#000" stroke-miterlimit="10" fill="none"/><path d="M188.414 158.336h8v11h-8zm0 0" fill="#fff"/><use xlink:href="#b" x="188.414" y="166.999" fill="#f00"/><path d="M205 159.313l10.21 8.632M208.055 157.773l8.168 6.907M207.375 146.148L205 159.313M215.21 167.945l12.583-4.523M227.793 163.422l2.375-13.16M224.934 161.547l1.902-10.527M227.793 163.422l10.21 8.637M230.168 150.262l-10.21-8.637M219.957 141.625l1.188-6.578" stroke-width="1.2" stroke="#000" stroke-miterlimit="10" fill="none"/><path d="M221.145 135.047l1.187-6.582" stroke-width="1.2" stroke="#3cc" stroke-miterlimit="10" fill="none"/><path d="M219.957 141.625l-12.582 4.523M219.766 145.04l-10.07 3.62" stroke-width="1.2" stroke="#000" stroke-miterlimit="10" fill="none"/><path d="M219.332 122.965h6v11h-6zm0 0" fill="#fff"/><use xlink:href="#f" x="219.332" y="131.628" fill="#3cc"/><path d="M238.004 172.06l-5.137 4.276" stroke-width="1.2" stroke="#000" stroke-miterlimit="10" fill="none"/><path d="M232.867 176.336l-5.14 4.277" stroke-width="1.2" stroke="#f00" stroke-miterlimit="10" fill="none"/><path d="M238.004 172.06l6.734-11.556M244.645 183.668l-6.64-11.61" stroke-width="1.2" stroke="#000" stroke-miterlimit="10" fill="none"/><path d="M227.727 180.613l1.132 6.59" stroke-width="1.2" stroke="#f00" stroke-miterlimit="10" fill="none"/><path d="M228.86 187.203l1.136 6.59" stroke-width="1.2" stroke="#000" stroke-miterlimit="10" fill="none"/><path d="M223.727 175.113h8v11h-8zm0 0" fill="#fff"/><use xlink:href="#b" x="223.727" y="183.776" fill="#f00"/><path d="M244.738 160.504l13.37.055M258.11 160.56l3.32 5.803" stroke-width="1.2" stroke="#000" stroke-miterlimit="10" fill="none"/><path d="M261.43 166.363l3.32 5.8M264.75 172.164l-3.367 5.777" stroke-width="1.2" stroke="#f00" stroke-miterlimit="10" fill="none"/><path d="M261.383 177.94l-3.363 5.78" stroke-width="1.2" stroke="#000" stroke-miterlimit="10" fill="none"/><path d="M260.75 166.664h8v11h-8zm0 0" fill="#fff"/><use xlink:href="#b" x="260.75" y="175.327" fill="#f00"/><path d="M258.02 183.72l-13.375-.052" stroke-width="1.2" stroke="#000" stroke-miterlimit="10" fill="none"/></g></svg>