<svg xmlns="http://www.w3.org/2000/svg" xmlns:xlink="http://www.w3.org/1999/xlink" width="300pt" height="300pt" viewBox="0 0 300 300"><defs><symbol overflow="visible"><path d="M.453 1.594v-7.938h4.5v7.938zm.5-.5h3.5v-6.938h-3.5zm0 0"/></symbol><symbol overflow="visible" id="a"><path d="M4.813-6.344v.86c-.336-.157-.653-.27-.954-.344-.294-.082-.58-.125-.86-.125-.492 0-.867.094-1.125.28-.262.19-.39.454-.39.798 0 .293.085.512.265.656.176.15.504.267.984.36l.547.11c.658.125 1.142.352 1.454.672.32.312.485.734.485 1.265 0 .637-.216 1.122-.642 1.454-.43.325-1.055.485-1.875.485-.312 0-.648-.04-1-.11C1.36-.046 1-.147.625-.296v-.906c.352.2.703.35 1.047.453.35.105.695.156 1.03.156.5 0 .884-.097 1.157-.297.28-.196.42-.485.42-.86 0-.32-.1-.57-.296-.75-.2-.176-.523-.313-.968-.406l-.547-.11C1.81-3.148 1.33-3.36 1.03-3.64.74-3.923.595-4.313.595-4.813c0-.57.203-1.024.61-1.36.405-.344.968-.516 1.687-.516.313 0 .626.032.938.094.32.055.65.137.985.25zm0 0"/></symbol><symbol overflow="visible" id="b"><path d="M.89-6.563H2.08l2.906 5.485v-5.484h.86V0H4.656L1.75-5.484V0H.89zm0 0"/></symbol><symbol overflow="visible" id="c"><path d="M.89-6.563h.876v2.688H5v-2.688h.89V0H5v-3.125H1.766V0H.89zm0 0"/></symbol><symbol overflow="visible" id="d"><path d="M3.547-5.953c-.65 0-1.164.242-1.547.72-.375.48-.563 1.13-.563 1.952 0 .835.188 1.49.563 1.967.383.48.898.72 1.547.72.644 0 1.156-.24 1.53-.72.376-.476.564-1.132.564-1.968 0-.822-.187-1.474-.562-1.954-.375-.477-.887-.72-1.53-.72zm0-.734c.914 0 1.648.312 2.203.937.55.617.828 1.438.828 2.47 0 1.042-.277 1.87-.828 2.483-.555.617-1.29.922-2.203.922-.93 0-1.668-.305-2.22-.922C.774-1.41.5-2.237.5-3.28c0-1.033.273-1.853.828-2.47.55-.625 1.29-.938 2.22-.938zm0 0"/></symbol></defs><g><path fill="#fff" d="M0 0h300v300H0z"/><path d="M165.922 85.242l-8.86 7.414" stroke-width="1.2" stroke="#cc0" stroke-miterlimit="10" fill="none"/><path d="M157.063 92.656l-8.86 7.414M185.504 97.508l-9.793-6.133" stroke-width="1.2" stroke="#000" stroke-miterlimit="10" fill="none"/><path d="M175.71 91.375l-9.788-6.133" stroke-width="1.2" stroke="#cc0" stroke-miterlimit="10" fill="none"/><path d="M162.922 79.742h6v11h-6zm0 0" fill="#fff"/><use xlink:href="#a" x="162.922" y="88.405" fill="#cc0"/><path d="M148.203 100.07l4.317 10.72" stroke-width="1.2" stroke="#000" stroke-miterlimit="10" fill="none"/><path d="M152.52 110.79l4.312 10.714" stroke-width="1.2" stroke="#00f" stroke-miterlimit="10" fill="none"/><path d="M154.11 100.184l3.452 8.574" stroke-width="1.2" stroke="#000" stroke-miterlimit="10" fill="none"/><path d="M157.563 108.758l3.453 8.574" stroke-width="1.2" stroke="#00f" stroke-miterlimit="10" fill="none"/><path d="M148.203 100.07l-22.41-5.617" stroke-width="1.2" stroke="#000" stroke-miterlimit="10" fill="none"/><path d="M156.832 121.504l23.055-1.582" stroke-width="1.2" stroke="#00f" stroke-miterlimit="10" fill="none"/><path d="M153.832 116.004h7v11h-7zm0 0" fill="#fff"/><use xlink:href="#b" x="153.832" y="124.667" fill="#00f"/><path d="M179.887 119.922l2.808-11.207" stroke-width="1.2" stroke="#00f" stroke-miterlimit="10" fill="none"/><path d="M182.695 108.715l2.81-11.207" stroke-width="1.2" stroke="#000" stroke-miterlimit="10" fill="none"/><path d="M175.172 116.36l2.25-8.965" stroke-width="1.2" stroke="#00f" stroke-miterlimit="10" fill="none"/><path d="M177.422 107.395l2.246-8.965" stroke-width="1.2" stroke="#000" stroke-miterlimit="10" fill="none"/><path d="M176.887 114.422h7v11h-7zm0 0" fill="#fff"/><use xlink:href="#b" x="176.887" y="123.085" fill="#00f"/><path d="M185.504 97.508l10.715-4.313" stroke-width="1.2" stroke="#000" stroke-miterlimit="10" fill="none"/><path d="M196.22 93.195l10.718-4.316M206.938 88.88l9.093 7.124" stroke-width="1.2" stroke="#00f" stroke-miterlimit="10" fill="none"/><path d="M216.03 96.004l9.095 7.125" stroke-width="1.2" stroke="#000" stroke-miterlimit="10" fill="none"/><path d="M199.938 83.38h14v11h-14zm0 0" fill="#fff"/><g fill="#00f"><use xlink:href="#b" x="199.938" y="92.042"/><use xlink:href="#c" x="206.915" y="92.042"/></g><path d="M225.125 103.13l-3.242 22.874M230.184 106.18l-2.594 18.3M246.56 94.5l-21.435 8.63M221.883 126.004l18.187 14.25M240.07 140.254l21.438-8.63M240.184 134.348l17.148-6.903M261.508 131.625l3.242-22.88M264.75 108.746L246.56 94.5M259.578 111.602l-14.55-11.4M125.793 94.453l-8.035 8.3" stroke-width="1.2" stroke="#000" stroke-miterlimit="10" fill="none"/><path d="M117.758 102.754l-8.035 8.3M109.723 111.055l6.34 22.218" stroke-width="1.2" stroke="#00f" stroke-miterlimit="10" fill="none"/><path d="M87.31 105.438l11.206 2.808" stroke-width="1.2" stroke="#000" stroke-miterlimit="10" fill="none"/><path d="M98.516 108.246l11.207 2.81" stroke-width="1.2" stroke="#00f" stroke-miterlimit="10" fill="none"/><path d="M106.723 105.555h7v11h-7zm0 0" fill="#fff"/><use xlink:href="#b" x="106.723" y="114.218" fill="#00f"/><path d="M116.063 133.273l-8.036 8.3" stroke-width="1.2" stroke="#00f" stroke-miterlimit="10" fill="none"/><path d="M108.027 141.574l-8.035 8.3" stroke-width="1.2" stroke="#000" stroke-miterlimit="10" fill="none"/><path d="M110.55 131.152l-6.43 6.64" stroke-width="1.2" stroke="#00f" stroke-miterlimit="10" fill="none"/><path d="M104.12 137.793l-6.43 6.64" stroke-width="1.2" stroke="#000" stroke-miterlimit="10" fill="none"/><path d="M113.063 127.773h7v11h-7zm0 0" fill="#fff"/><use xlink:href="#b" x="113.063" y="136.437" fill="#00f"/><path d="M99.992 149.875l-22.414-5.617M99.992 149.875l6.34 22.22M77.578 144.258l-9.586 6.45" stroke-width="1.2" stroke="#000" stroke-miterlimit="10" fill="none"/><path d="M67.992 150.707l-9.586 6.445" stroke-width="1.2" stroke="#f00" stroke-miterlimit="10" fill="none"/><path d="M71.238 122.04l6.34 22.218M77.098 122.77l5.074 17.773" stroke-width="1.2" stroke="#000" stroke-miterlimit="10" fill="none"/><path d="M58.406 157.152l-9.093-7.12" stroke-width="1.2" stroke="#f00" stroke-miterlimit="10" fill="none"/><path d="M49.313 150.03l-9.094-7.124" stroke-width="1.2" stroke="#00f" stroke-miterlimit="10" fill="none"/><path d="M54.406 151.652h8v11h-8zm0 0" fill="#fff"/><use xlink:href="#d" x="54.406" y="160.315" fill="#f00"/><path d="M40.22 142.906l3.964-10.85" stroke-width="1.2" stroke="#00f" stroke-miterlimit="10" fill="none"/><path d="M44.184 132.055l3.964-10.852" stroke-width="1.2" stroke="#000" stroke-miterlimit="10" fill="none"/><path d="M46.117 142.602l3.172-8.68" stroke-width="1.2" stroke="#00f" stroke-miterlimit="10" fill="none"/><path d="M49.29 133.922l3.17-8.684" stroke-width="1.2" stroke="#000" stroke-miterlimit="10" fill="none"/><path d="M37.22 137.406h7v11h-7zm0 0" fill="#fff"/><use xlink:href="#b" x="37.219" y="146.069" fill="#00f"/><path d="M48.148 121.203l23.09.836M48.148 121.203L35.25 102.03M71.238 122.04l16.07-16.603M89.922 104.69L86.75 93.583" stroke-width="1.2" stroke="#000" stroke-miterlimit="10" fill="none"/><path d="M86.75 93.582l-3.168-11.11" stroke-width="1.2" stroke="#f00" stroke-miterlimit="10" fill="none"/><path d="M84.695 106.184l-3.172-11.11" stroke-width="1.2" stroke="#000" stroke-miterlimit="10" fill="none"/><path d="M81.523 95.074l-3.17-11.11" stroke-width="1.2" stroke="#f00" stroke-miterlimit="10" fill="none"/><path d="M76.97 77.72h8v11h-8zm0 0" fill="#fff"/><use xlink:href="#d" x="76.969" y="86.382" fill="#f00"/><path d="M106.332 172.094l22.414 5.617M128.746 177.71l6.34 22.22M134.605 178.44l5.075 17.775M144.816 161.11l-16.07 16.6M135.086 199.93l22.414 5.617M157.5 205.547l16.07-16.602M155.2 200.105l12.855-13.28M173.57 188.945l11.207 2.81" stroke-width="1.2" stroke="#000" stroke-miterlimit="10" fill="none"/><path d="M184.777 191.754l11.203 2.81" stroke-width="1.2" stroke="#f00" stroke-miterlimit="10" fill="none"/><path d="M173.57 188.945l-6.343-22.218" stroke-width="1.2" stroke="#000" stroke-miterlimit="10" fill="none"/><path d="M195.98 194.563l3.172 11.11" stroke-width="1.2" stroke="#f00" stroke-miterlimit="10" fill="none"/><path d="M199.152 205.672l3.172 11.11" stroke-width="1.2" stroke="#000" stroke-miterlimit="10" fill="none"/><path d="M191.98 189.063h8v11h-8zm0 0" fill="#fff"/><use xlink:href="#d" x="191.98" y="197.726" fill="#f00"/><path d="M167.227 166.727l-22.41-5.618M163.664 171.438l-17.93-4.493" stroke-width="1.2" stroke="#000" stroke-miterlimit="10" fill="none"/></g></svg>