<svg xmlns="http://www.w3.org/2000/svg" xmlns:xlink="http://www.w3.org/1999/xlink" width="300pt" height="300pt" viewBox="0 0 300 300"><defs><symbol overflow="visible"><path d="M.594 2.125V-8.47h6V2.126zm.672-.672h4.671V-7.78h-4.67zm0 0"/></symbol><symbol overflow="visible" id="a"><path d="M6.422-8.47v1.158c-.45-.208-.875-.364-1.28-.47-.4-.113-.78-.17-1.142-.17-.648 0-1.148.124-1.5.374-.344.25-.516.61-.516 1.078 0 .387.114.68.344.875.227.2.672.355 1.328.47L4.36-5c.882.168 1.535.465 1.952.89.426.42.64.98.64 1.688 0 .856-.288 1.5-.858 1.938-.563.437-1.4.656-2.5.656-.406 0-.844-.047-1.313-.14C1.814-.064 1.33-.204.83-.392v-1.22c.477.274.945.477 1.406.61.47.137.922.203 1.36.203.676 0 1.195-.13 1.562-.39.375-.27.563-.65.563-1.14 0-.427-.138-.76-.407-1-.262-.25-.696-.43-1.297-.548l-.72-.14c-.886-.176-1.526-.454-1.92-.83-.388-.374-.58-.893-.58-1.56 0-.782.27-1.392.813-1.83.538-.445 1.288-.67 2.25-.67.413 0 .83.038 1.25.108.425.074.863.184 1.312.328zm0 0"/></symbol><symbol overflow="visible" id="b"><path d="M1.172-8.75h1.594l3.89 7.313V-8.75h1.14V0H6.204L2.328-7.313V0H1.172zm0 0"/></symbol><symbol overflow="visible" id="d"><path d="M4.734-7.953c-.867 0-1.554.324-2.062.97-.5.635-.75 1.51-.75 2.624 0 1.094.25 1.965.75 2.61.508.637 1.195.953 2.062.953.852 0 1.532-.316 2.032-.953.507-.645.765-1.516.765-2.61 0-1.113-.257-1.988-.764-2.624-.5-.645-1.18-.97-2.032-.97zm0-.953c1.22 0 2.192.414 2.922 1.234.74.824 1.11 1.93 1.11 3.313 0 1.376-.37 2.477-1.11 3.298C6.926-.24 5.953.17 4.734.17c-1.23 0-2.214-.41-2.953-1.234C1.04-1.882.673-2.984.673-4.36c0-1.382.367-2.488 1.11-3.312.738-.82 1.722-1.234 2.952-1.234zm0 0"/></symbol><symbol overflow="visible"><path d="M.5 1.766v-8.813h5v8.813zm.563-.547h3.875v-7.704H1.063zm0 0"/></symbol><symbol overflow="visible" id="c"><path d="M.484-3.14h2.64v.796H.485zm0 0"/></symbol></defs><g><path fill="#fff" d="M0 0h300v300H0z"/><path d="M263.54 89.246l-14.524 5.145" stroke-width="1.2" stroke="#cc0" stroke-miterlimit="10" fill="none"/><path d="M249.016 94.39l-14.524 5.14" stroke-width="1.2" stroke="#000" stroke-miterlimit="10" fill="none"/><path d="M265.96 96.082l-14.522 5.14" stroke-width="1.2" stroke="#cc0" stroke-miterlimit="10" fill="none"/><path d="M251.438 101.223l-14.524 5.144" stroke-width="1.2" stroke="#000" stroke-miterlimit="10" fill="none"/><path d="M260.75 85.664h8v14h-8zm0 0" fill="#fff"/><use xlink:href="#a" x="260.75" y="96.803" fill="#cc0"/><path d="M235.703 102.95l-12.695-8.73" stroke-width="1.2" stroke="#000" stroke-miterlimit="10" fill="none"/><path d="M223.008 94.22l-12.7-8.728M226.95 132.492l4.374-14.773" stroke-width="1.2" stroke="#00f" stroke-miterlimit="10" fill="none"/><path d="M231.324 117.72l4.38-14.77" stroke-width="1.2" stroke="#000" stroke-miterlimit="10" fill="none"/><path d="M210.31 85.492l-.404-15.402" stroke-width="1.2" stroke="#00f" stroke-miterlimit="10" fill="none"/><path d="M209.906 70.09l-.402-15.4" stroke-width="1.2" stroke="#000" stroke-miterlimit="10" fill="none"/><path d="M210.31 85.492l-12.224 9.38" stroke-width="1.2" stroke="#00f" stroke-miterlimit="10" fill="none"/><path d="M198.086 94.87l-12.223 9.38" stroke-width="1.2" stroke="#000" stroke-miterlimit="10" fill="none"/><path d="M206.31 78.492h9v14h-9zm0 0" fill="#fff"/><use xlink:href="#b" x="206.309" y="89.631" fill="#00f"/><path d="M185.863 104.25l5.14 14.523" stroke-width="1.2" stroke="#000" stroke-miterlimit="10" fill="none"/><path d="M191.004 118.773l5.14 14.524" stroke-width="1.2" stroke="#00f" stroke-miterlimit="10" fill="none"/><path d="M193.727 104.734l4.113 11.618" stroke-width="1.2" stroke="#000" stroke-miterlimit="10" fill="none"/><path d="M197.84 116.352l4.113 11.62" stroke-width="1.2" stroke="#00f" stroke-miterlimit="10" fill="none"/><path d="M185.863 104.25l-29.547-8.754" stroke-width="1.2" stroke="#000" stroke-miterlimit="10" fill="none"/><path d="M196.145 133.297l30.804-.805" stroke-width="1.2" stroke="#00f" stroke-miterlimit="10" fill="none"/><path d="M192.145 126.297h9v14h-9zm0 0" fill="#fff"/><use xlink:href="#b" x="192.145" y="137.436" fill="#00f"/><path d="M220.95 123.992h13v17h-13zm0 0" fill="#fff"/><use xlink:href="#b" x="220.949" y="138.157" fill="#00f"/><use xlink:href="#c" x="229.926" y="133.274" fill="#00f"/><path d="M156.316 95.496l-11.175 10.606" stroke-width="1.2" stroke="#000" stroke-miterlimit="10" fill="none"/><path d="M145.14 106.102l-11.175 10.6M133.965 116.703l7.19 29.965" stroke-width="1.2" stroke="#00f" stroke-miterlimit="10" fill="none"/><path d="M104.422 107.95l14.77 4.378" stroke-width="1.2" stroke="#000" stroke-miterlimit="10" fill="none"/><path d="M119.19 112.328l14.775 4.375" stroke-width="1.2" stroke="#00f" stroke-miterlimit="10" fill="none"/><path d="M129.965 109.703h9v14h-9zm0 0" fill="#fff"/><use xlink:href="#b" x="129.965" y="120.842" fill="#00f"/><path d="M141.156 146.668l-11.176 10.605" stroke-width="1.2" stroke="#00f" stroke-miterlimit="10" fill="none"/><path d="M129.98 157.273l-11.18 10.602" stroke-width="1.2" stroke="#000" stroke-miterlimit="10" fill="none"/><path d="M133.93 143.527l-8.942 8.485" stroke-width="1.2" stroke="#00f" stroke-miterlimit="10" fill="none"/><path d="M124.988 152.012l-8.94 8.484" stroke-width="1.2" stroke="#000" stroke-miterlimit="10" fill="none"/><path d="M137.156 139.668h9v14h-9zm0 0" fill="#fff"/><use xlink:href="#b" x="137.156" y="150.807" fill="#00f"/><path d="M118.8 167.875L89.26 159.12M118.8 167.875l7.192 29.965M89.258 159.12l-13.137 8.052" stroke-width="1.2" stroke="#000" stroke-miterlimit="10" fill="none"/><path d="M76.12 167.172l-13.136 8.05" stroke-width="1.2" stroke="#f00" stroke-miterlimit="10" fill="none"/><path d="M82.066 129.16l7.192 29.96M89.836 130.465l5.754 23.97" stroke-width="1.2" stroke="#000" stroke-miterlimit="10" fill="none"/><path d="M62.984 175.223L51.27 165.215" stroke-width="1.2" stroke="#f00" stroke-miterlimit="10" fill="none"/><path d="M51.27 165.215l-11.715-10.008" stroke-width="1.2" stroke="#00f" stroke-miterlimit="10" fill="none"/><path d="M57.984 168.223h10v14h-10zm0 0" fill="#fff"/><use xlink:href="#d" x="57.984" y="179.361" fill="#f00"/><path d="M39.555 155.207l5.894-14.234" stroke-width="1.2" stroke="#00f" stroke-miterlimit="10" fill="none"/><path d="M45.45 140.973l5.898-14.235" stroke-width="1.2" stroke="#000" stroke-miterlimit="10" fill="none"/><path d="M47.434 155.137l4.714-11.387" stroke-width="1.2" stroke="#00f" stroke-miterlimit="10" fill="none"/><path d="M52.148 143.75l4.72-11.387" stroke-width="1.2" stroke="#000" stroke-miterlimit="10" fill="none"/><path d="M35.555 148.207h9v14h-9zm0 0" fill="#fff"/><use xlink:href="#b" x="35.555" y="159.346" fill="#00f"/><path d="M51.348 126.738l30.718 2.422M51.348 126.738L35.25 100.465M82.066 129.16l22.356-21.21M107.945 107.105l-3.593-14.98" stroke-width="1.2" stroke="#000" stroke-miterlimit="10" fill="none"/><path d="M104.352 92.125l-3.598-14.984" stroke-width="1.2" stroke="#f00" stroke-miterlimit="10" fill="none"/><path d="M100.895 108.797L97.3 93.817" stroke-width="1.2" stroke="#000" stroke-miterlimit="10" fill="none"/><path d="M97.3 93.816l-3.597-14.984" stroke-width="1.2" stroke="#f00" stroke-miterlimit="10" fill="none"/><path d="M92.23 70.988h10v14h-10zm0 0" fill="#fff"/><use xlink:href="#d" x="92.23" y="82.127" fill="#f00"/><path d="M125.992 197.84l29.547 8.754M155.54 206.594l7.19 29.965M163.31 207.898l5.75 23.97M177.89 185.383l-22.35 21.21M162.73 236.56l29.543 8.75M192.273 245.31l22.352-21.208M189.52 237.93l17.882-16.97M214.625 224.102l-7.19-29.965M207.434 194.137l-29.543-8.754M202.422 200.215l-23.637-7.004" stroke-width="1.2" stroke="#000" stroke-miterlimit="10" fill="none"/></g></svg>