<svg xmlns="http://www.w3.org/2000/svg" xmlns:xlink="http://www.w3.org/1999/xlink" width="300pt" height="300pt" viewBox="0 0 300 300"><defs><symbol overflow="visible"><path d="M.594 2.125V-8.47h6V2.126zm.672-.672h4.671V-7.78h-4.67zm0 0"/></symbol><symbol overflow="visible" id="a"><path d="M6.422-8.47v1.158c-.45-.208-.875-.364-1.28-.47-.4-.113-.78-.17-1.142-.17-.648 0-1.148.124-1.5.374-.344.25-.516.61-.516 1.078 0 .387.114.68.344.875.227.2.672.355 1.328.47L4.36-5c.882.168 1.535.465 1.952.89.426.42.64.98.64 1.688 0 .856-.288 1.5-.858 1.938-.563.437-1.4.656-2.5.656-.406 0-.844-.047-1.313-.14C1.814-.064 1.33-.204.83-.392v-1.22c.477.274.945.477 1.406.61.47.137.922.203 1.36.203.676 0 1.195-.13 1.562-.39.375-.27.563-.65.563-1.14 0-.427-.138-.76-.407-1-.262-.25-.696-.43-1.297-.548l-.72-.14c-.886-.176-1.526-.454-1.92-.83-.388-.374-.58-.893-.58-1.56 0-.782.27-1.392.813-1.83.538-.445 1.288-.67 2.25-.67.413 0 .83.038 1.25.108.425.074.863.184 1.312.328zm0 0"/></symbol><symbol overflow="visible" id="b"><path d="M1.172-8.75h1.594l3.89 7.313V-8.75h1.14V0H6.204L2.328-7.313V0H1.172zm0 0"/></symbol><symbol overflow="visible" id="d"><path d="M4.734-7.953c-.867 0-1.554.324-2.062.97-.5.635-.75 1.51-.75 2.624 0 1.094.25 1.965.75 2.61.508.637 1.195.953 2.062.953.852 0 1.532-.316 2.032-.953.507-.645.765-1.516.765-2.61 0-1.113-.257-1.988-.764-2.624-.5-.645-1.18-.97-2.032-.97zm0-.953c1.22 0 2.192.414 2.922 1.234.74.824 1.11 1.93 1.11 3.313 0 1.376-.37 2.477-1.11 3.298C6.926-.24 5.953.17 4.734.17c-1.23 0-2.214-.41-2.953-1.234C1.04-1.882.673-2.984.673-4.36c0-1.382.367-2.488 1.11-3.312.738-.82 1.722-1.234 2.952-1.234zm0 0"/></symbol><symbol overflow="visible"><path d="M.5 1.766v-8.813h5v8.813zm.563-.547h3.875v-7.704H1.063zm0 0"/></symbol><symbol overflow="visible" id="c"><path d="M.484-3.14h2.64v.796H.485zm0 0"/></symbol></defs><g><path fill="#fff" d="M0 0h300v300H0z"/><path d="M221.195 209.285l-12.656-7.738" stroke-width="1.2" stroke="#cc0" stroke-miterlimit="10" fill="none"/><path d="M208.54 201.547l-12.657-7.734" stroke-width="1.2" stroke="#000" stroke-miterlimit="10" fill="none"/><path d="M217.555 215.238l-12.657-7.734" stroke-width="1.2" stroke="#cc0" stroke-miterlimit="10" fill="none"/><path d="M204.898 207.504l-12.656-7.734" stroke-width="1.2" stroke="#000" stroke-miterlimit="10" fill="none"/><path d="M215.375 205.262h8v14h-8zm0 0" fill="#fff"/><use xlink:href="#a" x="215.375" y="216.4" fill="#cc0"/><path d="M194.063 196.79l-1.18-14.786" stroke-width="1.2" stroke="#000" stroke-miterlimit="10" fill="none"/><path d="M192.883 182.004l-1.18-14.785M166.672 208.172l13.695-5.692" stroke-width="1.2" stroke="#00f" stroke-miterlimit="10" fill="none"/><path d="M180.367 202.48l13.696-5.69" stroke-width="1.2" stroke="#000" stroke-miterlimit="10" fill="none"/><path d="M191.703 167.22l-14.426-3.447" stroke-width="1.2" stroke="#00f" stroke-miterlimit="10" fill="none"/><path d="M177.277 163.773l-14.425-3.445" stroke-width="1.2" stroke="#000" stroke-miterlimit="10" fill="none"/><path d="M191.703 167.22l11.27-9.646" stroke-width="1.2" stroke="#00f" stroke-miterlimit="10" fill="none"/><path d="M202.973 157.574l11.265-9.644" stroke-width="1.2" stroke="#000" stroke-miterlimit="10" fill="none"/><path d="M187.703 160.22h9v14h-9zm0 0" fill="#fff"/><use xlink:href="#b" x="187.703" y="171.357" fill="#00f"/><path d="M162.852 160.328l-7.735 12.652" stroke-width="1.2" stroke="#000" stroke-miterlimit="10" fill="none"/><path d="M155.117 172.98l-7.738 12.657" stroke-width="1.2" stroke="#00f" stroke-miterlimit="10" fill="none"/><path d="M167.258 166.496l-6.188 10.125" stroke-width="1.2" stroke="#000" stroke-miterlimit="10" fill="none"/><path d="M161.07 176.62l-6.187 10.126" stroke-width="1.2" stroke="#00f" stroke-miterlimit="10" fill="none"/><path d="M162.852 160.328l-11.383-27.394" stroke-width="1.2" stroke="#000" stroke-miterlimit="10" fill="none"/><path d="M147.38 185.637l19.292 22.535" stroke-width="1.2" stroke="#00f" stroke-miterlimit="10" fill="none"/><path d="M143.38 178.637h9v14h-9zm0 0" fill="#fff"/><use xlink:href="#b" x="143.379" y="189.775" fill="#00f"/><path d="M160.672 199.672h13v17h-13zm0 0" fill="#fff"/><use xlink:href="#b" x="160.672" y="213.837" fill="#00f"/><use xlink:href="#c" x="169.648" y="208.954" fill="#00f"/><path d="M151.47 132.934l-14.708-1.922" stroke-width="1.2" stroke="#000" stroke-miterlimit="10" fill="none"/><path d="M136.762 131.012l-14.707-1.918M122.055 129.094l-18.035 23.554" stroke-width="1.2" stroke="#00f" stroke-miterlimit="10" fill="none"/><path d="M110.672 101.7l5.69 13.695" stroke-width="1.2" stroke="#000" stroke-miterlimit="10" fill="none"/><path d="M116.363 115.395l5.692 13.7" stroke-width="1.2" stroke="#00f" stroke-miterlimit="10" fill="none"/><path d="M118.055 122.094h9v14h-9zm0 0" fill="#fff"/><use xlink:href="#b" x="118.055" y="133.232" fill="#00f"/><path d="M104.02 152.648l-14.707-1.92" stroke-width="1.2" stroke="#00f" stroke-miterlimit="10" fill="none"/><path d="M89.313 150.727l-14.708-1.918" stroke-width="1.2" stroke="#000" stroke-miterlimit="10" fill="none"/><path d="M101.984 145.344l-11.765-1.54" stroke-width="1.2" stroke="#00f" stroke-miterlimit="10" fill="none"/><path d="M90.22 143.805l-11.767-1.535" stroke-width="1.2" stroke="#000" stroke-miterlimit="10" fill="none"/><path d="M100.02 145.648h9v14h-9zm0 0" fill="#fff"/><use xlink:href="#b" x="100.02" y="156.787" fill="#00f"/><path d="M74.605 148.81l-11.382-27.396M74.605 148.81l-18.03 23.553M63.223 121.414l-13.985-4.937" stroke-width="1.2" stroke="#000" stroke-miterlimit="10" fill="none"/><path d="M49.238 116.477l-13.988-4.934" stroke-width="1.2" stroke="#f00" stroke-miterlimit="10" fill="none"/><path d="M81.258 97.86l-18.035 23.554M84.996 104.457L70.57 123.3" stroke-width="1.2" stroke="#000" stroke-miterlimit="10" fill="none"/><path d="M35.25 111.543l.37-14.828" stroke-width="1.2" stroke="#f00" stroke-miterlimit="10" fill="none"/><path d="M35.62 96.715l.372-14.828" stroke-width="1.2" stroke="#00f" stroke-miterlimit="10" fill="none"/><path d="M30.25 104.543h10v14h-10zm0 0" fill="#fff"/><use xlink:href="#d" x="30.25" y="115.682" fill="#f00"/><path d="M35.992 81.887l14.22-4.227" stroke-width="1.2" stroke="#00f" stroke-miterlimit="10" fill="none"/><path d="M50.21 77.66l14.216-4.23" stroke-width="1.2" stroke="#000" stroke-miterlimit="10" fill="none"/><path d="M40.828 87.73l11.37-3.382" stroke-width="1.2" stroke="#00f" stroke-miterlimit="10" fill="none"/><path d="M52.2 84.348l11.374-3.383" stroke-width="1.2" stroke="#000" stroke-miterlimit="10" fill="none"/><path d="M31.992 74.887h9v14h-9zm0 0" fill="#fff"/><use xlink:href="#b" x="31.992" y="86.025" fill="#00f"/><path d="M64.426 73.43l16.832 24.43M64.426 73.43L74.3 45.457M81.258 97.86l29.414 3.84M113.44 103.82l9.02-11.777" stroke-width="1.2" stroke="#000" stroke-miterlimit="10" fill="none"/><path d="M122.46 92.043l9.017-11.777" stroke-width="1.2" stroke="#f00" stroke-miterlimit="10" fill="none"/><path d="M107.902 99.578l9.016-11.777" stroke-width="1.2" stroke="#000" stroke-miterlimit="10" fill="none"/><path d="M116.918 87.8l9.016-11.777" stroke-width="1.2" stroke="#f00" stroke-miterlimit="10" fill="none"/><path d="M123.703 71.145h10v14h-10zm0 0" fill="#fff"/><use xlink:href="#d" x="123.703" y="82.283" fill="#f00"/><path d="M56.574 172.363l11.383 27.39M67.957 199.754L49.922 223.31M71.695 206.355L57.27 225.2M97.37 203.594l-29.413-3.84M49.922 223.31l11.383 27.393M61.305 250.703l29.414 3.84M65.148 244.168l23.536 3.07M90.72 254.543l18.034-23.555M108.754 230.988L97.37 203.594M101.168 230.93l-9.106-21.918M214.238 147.93l27.977 9.87M219.36 142.336l22.378 7.894M208.8 118.766l5.438 29.164M242.215 157.8l22.535-19.288M264.75 138.512l-5.438-29.164M257.344 136.875l-4.348-23.332M259.313 109.348l-27.973-9.87M231.34 99.477l-22.54 19.29M233.625 106.707l-18.03 15.434" stroke-width="1.2" stroke="#000" stroke-miterlimit="10" fill="none"/></g></svg>