<svg xmlns="http://www.w3.org/2000/svg" xmlns:xlink="http://www.w3.org/1999/xlink" width="300pt" height="300pt" viewBox="0 0 300 300"><defs><symbol overflow="visible"><path d="M.453 1.594v-7.938h4.5v7.938zm.5-.5h3.5v-6.938h-3.5zm0 0"/></symbol><symbol overflow="visible" id="a"><path d="M3.547-5.953c-.65 0-1.164.242-1.547.72-.375.48-.563 1.13-.563 1.952 0 .835.188 1.49.563 1.967.383.48.898.72 1.547.72.644 0 1.156-.24 1.53-.72.376-.476.564-1.132.564-1.968 0-.822-.187-1.474-.562-1.954-.375-.477-.887-.72-1.53-.72zm0-.734c.914 0 1.648.312 2.203.937.55.617.828 1.438.828 2.47 0 1.042-.277 1.87-.828 2.483-.555.617-1.29.922-2.203.922-.93 0-1.668-.305-2.22-.922C.774-1.41.5-2.237.5-3.28c0-1.033.273-1.853.828-2.47.55-.625 1.29-.938 2.22-.938zm0 0"/></symbol><symbol overflow="visible" id="b"><path d="M.89-6.563H2.08l2.906 5.485v-5.484h.86V0H4.656L1.75-5.484V0H.89zm0 0"/></symbol><symbol overflow="visible" id="c"><path d="M.89-6.563h.876v2.688H5v-2.688h.89V0H5v-3.125H1.766V0H.89zm0 0"/></symbol><symbol overflow="visible"><path d="M.406 1.422V-5.64h4V1.42zM.844.97h3.11v-6.157H.843zm0 0"/></symbol><symbol overflow="visible" id="d"><path d="M3.688-5.016v2.172h2.17v.672H3.69V0H3.03v-2.172H.845v-.672H3.03v-2.172zm0 0"/></symbol></defs><g><path fill="#fff" d="M0 0h300v300H0z"/><path d="M261.215 162.8l-7.613 2.356" stroke-width="1.2" stroke="#f00" stroke-miterlimit="10" fill="none"/><path d="M253.602 165.156l-7.614 2.352M264.75 147.258l-1.77 7.77" stroke-width="1.2" stroke="#000" stroke-miterlimit="10" fill="none"/><path d="M262.98 155.027l-1.765 7.774" stroke-width="1.2" stroke="#f00" stroke-miterlimit="10" fill="none"/><path d="M257.215 157.3h8v11h-8zm0 0" fill="#fff"/><use xlink:href="#a" x="257.215" y="165.964" fill="#f00"/><path d="M245.988 167.508l-11.695-10.832M234.293 156.676l1.77-7.77" stroke-width="1.2" stroke="#000" stroke-miterlimit="10" fill="none"/><path d="M236.063 148.906l1.77-7.773M237.832 141.133l7.613-2.352" stroke-width="1.2" stroke="#00f" stroke-miterlimit="10" fill="none"/><path d="M245.445 138.78l7.614-2.354" stroke-width="1.2" stroke="#000" stroke-miterlimit="10" fill="none"/><path d="M237.832 141.133l-5.848-5.414" stroke-width="1.2" stroke="#00f" stroke-miterlimit="10" fill="none"/><path d="M231.984 135.72l-5.847-5.42" stroke-width="1.2" stroke="#000" stroke-miterlimit="10" fill="none"/><path d="M227.832 133.633h21v15h-21zm0 0" fill="#fff"/><g fill="#00f"><use xlink:href="#b" x="227.832" y="145.734"/><use xlink:href="#c" x="234.81" y="145.734"/></g><use xlink:href="#d" x="241.824" y="140.852" fill="#00f"/><path d="M253.06 136.426l11.69 10.832M226.137 130.3l-15.227 4.712M210.91 135.012l-5.847-5.418" stroke-width="1.2" stroke="#000" stroke-miterlimit="10" fill="none"/><path d="M205.063 129.594l-5.844-5.414M199.22 124.18l-7.615 2.35" stroke-width="1.2" stroke="#00f" stroke-miterlimit="10" fill="none"/><path d="M191.605 126.53l-7.613 2.357" stroke-width="1.2" stroke="#000" stroke-miterlimit="10" fill="none"/><path d="M192.22 118.68h14v11h-14zm0 0" fill="#fff"/><g fill="#00f"><use xlink:href="#b" x="192.219" y="127.343"/><use xlink:href="#c" x="199.196" y="127.343"/></g><path d="M182.16 128.473l-1.765 7.77" stroke-width="1.2" stroke="#000" stroke-miterlimit="10" fill="none"/><path d="M180.395 136.242l-1.77 7.774" stroke-width="1.2" stroke="#f00" stroke-miterlimit="10" fill="none"/><path d="M185.82 129.305l-1.77 7.77" stroke-width="1.2" stroke="#000" stroke-miterlimit="10" fill="none"/><path d="M184.05 137.074l-1.765 7.774" stroke-width="1.2" stroke="#f00" stroke-miterlimit="10" fill="none"/><path d="M183.992 128.887l-5.847-5.414" stroke-width="1.2" stroke="#000" stroke-miterlimit="10" fill="none"/><path d="M178.145 123.473l-5.848-5.418" stroke-width="1.2" stroke="#00f" stroke-miterlimit="10" fill="none"/><path d="M176.457 138.93h8v11h-8zm0 0" fill="#fff"/><use xlink:href="#a" x="176.457" y="147.593" fill="#f00"/><path d="M172.297 118.055l-7.613 2.355" stroke-width="1.2" stroke="#00f" stroke-miterlimit="10" fill="none"/><path d="M164.684 120.41l-7.614 2.356" stroke-width="1.2" stroke="#000" stroke-miterlimit="10" fill="none"/><path d="M165.297 112.555h14v11h-14zm0 0" fill="#fff"/><g fill="#00f"><use xlink:href="#b" x="165.297" y="121.218"/><use xlink:href="#c" x="172.274" y="121.218"/></g><path d="M157.07 122.766l-11.69-10.836M153.352 124.434L144 115.766M153.535 138.305l3.535-15.54M145.38 111.93l-15.228 4.71M130.152 116.64l-5.847-5.413" stroke-width="1.2" stroke="#000" stroke-miterlimit="10" fill="none"/><path d="M124.305 111.227l-5.848-5.418" stroke-width="1.2" stroke="#00f" stroke-miterlimit="10" fill="none"/><path d="M130.152 116.64l-3.535 15.544M133.453 119.027l-2.828 12.434" stroke-width="1.2" stroke="#000" stroke-miterlimit="10" fill="none"/><path d="M118.457 105.81l-7.613 2.354" stroke-width="1.2" stroke="#00f" stroke-miterlimit="10" fill="none"/><path d="M110.844 108.164l-7.614 2.356" stroke-width="1.2" stroke="#000" stroke-miterlimit="10" fill="none"/><path d="M111.457 100.31h14v11h-14zm0 0" fill="#fff"/><g fill="#00f"><use xlink:href="#b" x="111.457" y="108.972"/><use xlink:href="#c" x="118.435" y="108.972"/></g><path d="M103.23 110.52l-1.765 7.77" stroke-width="1.2" stroke="#000" stroke-miterlimit="10" fill="none"/><path d="M101.465 118.29l-1.77 7.77" stroke-width="1.2" stroke="#00f" stroke-miterlimit="10" fill="none"/><path d="M99.22 111.238l-1.415 6.22" stroke-width="1.2" stroke="#000" stroke-miterlimit="10" fill="none"/><path d="M97.805 117.457l-1.414 6.215M91.54 99.684l5.847 5.418" stroke-width="1.2" stroke="#00f" stroke-miterlimit="10" fill="none"/><path d="M97.387 105.102l5.843 5.418" stroke-width="1.2" stroke="#000" stroke-miterlimit="10" fill="none"/><path d="M99.695 126.06l-7.613 2.354" stroke-width="1.2" stroke="#00f" stroke-miterlimit="10" fill="none"/><path d="M92.082 128.414l-7.613 2.356" stroke-width="1.2" stroke="#000" stroke-miterlimit="10" fill="none"/><path d="M96.695 120.56h7v11h-7zm0 0" fill="#fff"/><use xlink:href="#b" x="96.695" y="129.222" fill="#00f"/><path d="M84.47 130.77l-11.693-10.833M85.848 126.934l-9.356-8.664M84.47 130.77l-3.536 15.542M72.777 119.938l-7.937.718" stroke-width="1.2" stroke="#000" stroke-miterlimit="10" fill="none"/><path d="M64.84 120.656l-7.938.723" stroke-width="1.2" stroke="#00f" stroke-miterlimit="10" fill="none"/><path d="M76.313 104.395l-3.536 15.543" stroke-width="1.2" stroke="#000" stroke-miterlimit="10" fill="none"/><path d="M56.902 121.38l-3.136-7.33" stroke-width="1.2" stroke="#00f" stroke-miterlimit="10" fill="none"/><path d="M53.766 114.05l-3.14-7.323" stroke-width="1.2" stroke="#000" stroke-miterlimit="10" fill="none"/><path d="M49.902 115.88h14v11h-14zm0 0" fill="#fff"/><g fill="#00f"><use xlink:href="#b" x="49.902" y="124.542"/><use xlink:href="#c" x="56.88" y="124.542"/></g><path d="M50.625 106.727l6-5.25" stroke-width="1.2" stroke="#000" stroke-miterlimit="10" fill="none"/><path d="M56.625 101.477l5.996-5.247" stroke-width="1.2" stroke="#00f" stroke-miterlimit="10" fill="none"/><path d="M54.297 108.496l4.797-4.195" stroke-width="1.2" stroke="#000" stroke-miterlimit="10" fill="none"/><path d="M59.094 104.3l4.797-4.198M62.62 96.23l6.845 4.082" stroke-width="1.2" stroke="#00f" stroke-miterlimit="10" fill="none"/><path d="M69.465 100.313l6.847 4.082" stroke-width="1.2" stroke="#000" stroke-miterlimit="10" fill="none"/><path d="M59.62 90.73h7v11h-7zm0 0" fill="#fff"/><use xlink:href="#b" x="59.621" y="99.394" fill="#00f"/><path d="M76.313 104.395l7.613-2.356" stroke-width="1.2" stroke="#000" stroke-miterlimit="10" fill="none"/><path d="M83.926 102.04l7.613-2.356" stroke-width="1.2" stroke="#00f" stroke-miterlimit="10" fill="none"/><path d="M78.94 107.508l6.09-1.887" stroke-width="1.2" stroke="#000" stroke-miterlimit="10" fill="none"/><path d="M85.03 105.62l6.095-1.882" stroke-width="1.2" stroke="#00f" stroke-miterlimit="10" fill="none"/><path d="M88.54 94.184h7v11h-7zm0 0" fill="#fff"/><use xlink:href="#b" x="88.539" y="102.847" fill="#00f"/><path d="M80.934 146.313l-15.227 4.707M80.52 150.367l-12.184 3.766M92.625 157.145l-11.69-10.833M65.707 151.02l-3.54 15.542M62.168 166.563l-7.613 2.355" stroke-width="1.2" stroke="#000" stroke-miterlimit="10" fill="none"/><path d="M54.555 168.918l-7.614 2.355" stroke-width="1.2" stroke="#f00" stroke-miterlimit="10" fill="none"/><path d="M62.168 166.563l11.695 10.832M65.887 164.895l9.355 8.667" stroke-width="1.2" stroke="#000" stroke-miterlimit="10" fill="none"/><path d="M46.94 171.273l-5.842-5.418" stroke-width="1.2" stroke="#f00" stroke-miterlimit="10" fill="none"/><path d="M41.098 165.855l-5.848-5.414" stroke-width="1.2" stroke="#000" stroke-miterlimit="10" fill="none"/><path d="M42.94 165.773h8v11h-8zm0 0" fill="#fff"/><use xlink:href="#a" x="42.941" y="174.437" fill="#f00"/><path d="M73.863 177.395l-1.77 7.773" stroke-width="1.2" stroke="#000" stroke-miterlimit="10" fill="none"/><path d="M72.094 185.168l-1.766 7.77" stroke-width="1.2" stroke="#f00" stroke-miterlimit="10" fill="none"/><path d="M73.863 177.395l15.227-4.708" stroke-width="1.2" stroke="#000" stroke-miterlimit="10" fill="none"/><path d="M70.328 192.938l5.844 5.417" stroke-width="1.2" stroke="#f00" stroke-miterlimit="10" fill="none"/><path d="M76.172 198.355l5.848 5.415" stroke-width="1.2" stroke="#000" stroke-miterlimit="10" fill="none"/><path d="M66.328 187.438h8v11h-8zm0 0" fill="#fff"/><use xlink:href="#a" x="66.328" y="196.101" fill="#f00"/><path d="M89.09 172.688l3.535-15.543M85.785 170.3l2.828-12.433M126.617 132.184l11.692 10.832M138.31 143.016l15.225-4.71M138.723 138.96l12.183-3.765" stroke-width="1.2" stroke="#000" stroke-miterlimit="10" fill="none"/></g></svg>