<svg xmlns="http://www.w3.org/2000/svg" xmlns:xlink="http://www.w3.org/1999/xlink" width="300pt" height="300pt" viewBox="0 0 300 300"><defs><symbol overflow="visible"><path d="M.64 2.297v-11.47h6.5v11.47zm.735-.72h5.047V-8.436H1.375zm0 0"/></symbol><symbol overflow="visible" id="a"><path d="M5.125-8.61c-.938 0-1.684.352-2.234 1.047-.542.688-.812 1.633-.812 2.83 0 1.198.27 2.147.813 2.842.55.687 1.297 1.03 2.235 1.03.926 0 1.66-.343 2.203-1.03.55-.696.828-1.645.828-2.844 0-1.196-.277-2.14-.828-2.829-.543-.695-1.277-1.046-2.203-1.046zm0-1.046c1.32 0 2.38.45 3.172 1.344.8.898 1.203 2.09 1.203 3.578 0 1.5-.402 2.7-1.203 3.593C7.504-.255 6.445.186 5.125.186c-1.336 0-2.402-.44-3.203-1.328C1.13-2.036.734-3.235.734-4.735c0-1.49.395-2.68 1.188-3.579.8-.894 1.867-1.343 3.203-1.343zm0 0"/></symbol><symbol overflow="visible" id="c"><path d="M1.28-9.484H3l4.203 7.937v-7.937h1.25V0H6.72L2.515-7.922V0H1.28zm0 0"/></symbol><symbol overflow="visible" id="d"><path d="M1.28-9.484h1.282v3.89H7.22v-3.89H8.5V0H7.22v-4.516H2.562V0H1.28zm0 0"/></symbol><symbol overflow="visible"><path d="M.547 1.938V-7.75h5.5v9.688zm.625-.61h4.266v-8.47H1.171zm0 0"/></symbol><symbol overflow="visible" id="b"><path d="M.53-3.453h2.907v.875H.53zm0 0"/></symbol></defs><g><path fill="#fff" d="M0 0h300v300H0z"/><path d="M76.31 228.238l-3.486-15.558" stroke-width="1.2" stroke="#f00" stroke-miterlimit="10" fill="none"/><path d="M72.824 212.68l-3.484-15.555" stroke-width="1.2" stroke="#000" stroke-miterlimit="10" fill="none"/><path d="M68.984 229.88l-3.48-15.56" stroke-width="1.2" stroke="#f00" stroke-miterlimit="10" fill="none"/><path d="M65.504 214.32l-3.484-15.558" stroke-width="1.2" stroke="#000" stroke-miterlimit="10" fill="none"/><path d="M67.645 221.06h11v16h-11zm0 0" fill="#fff"/><use xlink:href="#a" x="67.645" y="233.435" fill="#f00"/><path d="M65.68 197.94l-30.43-9.522M65.68 197.94l23.46-21.588M89.14 176.352l-6.964-31.114M95.766 171.602l-5.575-24.89M119.57 185.875l-30.43-9.523M82.176 145.238l23.46-21.59M105.637 123.648l-6.965-31.113M105.637 123.648l30.43 9.524M106.438 131.758l24.343 7.62M99.79 88.953L84.573 84.19" stroke-width="1.2" stroke="#000" stroke-miterlimit="10" fill="none"/><path d="M84.574 84.19L69.36 79.43" stroke-width="1.2" stroke="#f00" stroke-miterlimit="10" fill="none"/><path d="M97.55 96.113l-15.214-4.76" stroke-width="1.2" stroke="#000" stroke-miterlimit="10" fill="none"/><path d="M82.336 91.352L67.12 86.59" stroke-width="1.2" stroke="#f00" stroke-miterlimit="10" fill="none"/><path d="M98.672 92.535l11.73-10.797" stroke-width="1.2" stroke="#000" stroke-miterlimit="10" fill="none"/><path d="M110.402 81.738l11.73-10.797" stroke-width="1.2" stroke="#f00" stroke-miterlimit="10" fill="none"/><path d="M57.242 75.008h11v16h-11zm0 0" fill="#fff"/><use xlink:href="#a" x="57.242" y="87.384" fill="#f00"/><path d="M115.133 61.44h15v19h-15zm0 0" fill="#fff"/><use xlink:href="#a" x="115.133" y="76.637" fill="#f00"/><use xlink:href="#b" x="125.623" y="71.754" fill="#f00"/><path d="M136.066 133.172l11.73-10.797" stroke-width="1.2" stroke="#000" stroke-miterlimit="10" fill="none"/><path d="M147.797 122.375l11.73-10.793" stroke-width="1.2" stroke="#00f" stroke-miterlimit="10" fill="none"/><path d="M136.066 133.172l6.965 31.113" stroke-width="1.2" stroke="#000" stroke-miterlimit="10" fill="none"/><path d="M159.527 111.582l15.215 4.762" stroke-width="1.2" stroke="#00f" stroke-miterlimit="10" fill="none"/><path d="M174.742 116.344l15.215 4.76" stroke-width="1.2" stroke="#000" stroke-miterlimit="10" fill="none"/><path d="M149.527 103.582h20v16h-20zm0 0" fill="#fff"/><g fill="#00f"><use xlink:href="#c" x="149.527" y="115.958"/><use xlink:href="#d" x="159.497" y="115.958"/></g><path d="M189.957 121.105l6.97 31.114M197.977 122.578l5.574 24.89M213.422 99.512l-23.465 21.593M196.926 152.22l30.43 9.522M227.355 161.742l23.46-21.59M224.62 154.063l18.77-17.274M227.355 161.742l6.965 31.113M250.816 140.152l-6.968-31.117M243.848 109.035l-30.426-9.523M238.566 115.246l-24.343-7.62M233.2 196.438l15.214 4.76" stroke-width="1.2" stroke="#000" stroke-miterlimit="10" fill="none"/><path d="M248.414 201.2l15.215 4.76" stroke-width="1.2" stroke="#f00" stroke-miterlimit="10" fill="none"/><path d="M235.44 189.277l15.216 4.762" stroke-width="1.2" stroke="#000" stroke-miterlimit="10" fill="none"/><path d="M250.656 194.04l15.215 4.76" stroke-width="1.2" stroke="#f00" stroke-miterlimit="10" fill="none"/><path d="M234.32 192.855l-11.73 10.797" stroke-width="1.2" stroke="#000" stroke-miterlimit="10" fill="none"/><path d="M222.59 203.652l-11.73 10.793" stroke-width="1.2" stroke="#f00" stroke-miterlimit="10" fill="none"/><path d="M259.75 194.38h11v16h-11zm0 0" fill="#fff"/><use xlink:href="#a" x="259.75" y="206.755" fill="#f00"/><path d="M195.86 204.945h15v19h-15zm0 0" fill="#fff"/><use xlink:href="#b" x="195.859" y="215.258" fill="#f00"/><use xlink:href="#a" x="199.868" y="220.141" fill="#f00"/><path d="M143.03 164.285l-23.46 21.59M135.605 160.926l-18.77 17.27" stroke-width="1.2" stroke="#000" stroke-miterlimit="10" fill="none"/></g></svg>