<svg xmlns="http://www.w3.org/2000/svg" xmlns:xlink="http://www.w3.org/1999/xlink" width="300pt" height="300pt" viewBox="0 0 300 300"><defs><symbol overflow="visible"><path d="M.594 2.125V-8.47h6V2.126zm.672-.672h4.671V-7.78h-4.67zm0 0"/></symbol><symbol overflow="visible" id="a"><path d="M1.172-8.75h5.03v1H2.36v2.578h3.468v1h-3.47V0H1.173zm0 0"/></symbol><symbol overflow="visible" id="b"><path d="M4.734-7.953c-.867 0-1.554.324-2.062.97-.5.635-.75 1.51-.75 2.624 0 1.094.25 1.965.75 2.61.508.637 1.195.953 2.062.953.852 0 1.532-.316 2.032-.953.507-.645.765-1.516.765-2.61 0-1.113-.257-1.988-.764-2.624-.5-.645-1.18-.97-2.032-.97zm0-.953c1.22 0 2.192.414 2.922 1.234.74.824 1.11 1.93 1.11 3.313 0 1.376-.37 2.477-1.11 3.298C6.926-.24 5.953.17 4.734.17c-1.23 0-2.214-.41-2.953-1.234C1.04-1.882.673-2.984.673-4.36c0-1.382.367-2.488 1.11-3.312.738-.82 1.722-1.234 2.952-1.234zm0 0"/></symbol><symbol overflow="visible"><path d="M.5 1.766v-8.813h5v8.813zm.563-.547h3.875v-7.704H1.063zm0 0"/></symbol><symbol overflow="visible" id="c"><path d="M.484-3.14h2.64v.796H.485zm0 0"/></symbol></defs><g><path fill="#fff" d="M0 0h300v300H0z"/><path d="M182.87 195l-9.58-11.816" stroke-width="1.2" stroke="#3cc" stroke-miterlimit="10" fill="none"/><path d="M173.29 183.184l-9.58-11.82" stroke-width="1.2" stroke="#000" stroke-miterlimit="10" fill="none"/><path d="M179.87 188h7v14h-7zm0 0" fill="#fff"/><use xlink:href="#a" x="179.871" y="199.139" fill="#3cc"/><path d="M163.71 171.363l-30.046 4.774M159.582 164.77l-24.04 3.82M174.602 142.953l-10.89 28.41M133.664 176.137l-19.16-23.637M114.504 152.5l10.894-28.41M122.277 152.22l8.715-22.728M114.504 152.5l-30.047 4.77M125.398 124.09l30.047-4.774M155.445 119.316l19.157 23.637M151.8 126.188l15.325 18.91M174.602 142.953l30.05-4.773M204.652 138.18l19.157 23.64M212.13 136.04l15.327 18.905M215.543 109.773l-10.89 28.407M223.81 161.82l30.05-4.773M253.86 157.047l10.89-28.41M248.262 151.64l8.715-22.726M264.75 128.637L245.594 105M245.594 105l-30.05 4.773M243.71 112.547l-24.038 3.82M84.457 157.27L65.3 133.633M68.64 134.914l5.446-14.203" stroke-width="1.2" stroke="#000" stroke-miterlimit="10" fill="none"/><path d="M74.086 120.71l5.445-14.202" stroke-width="1.2" stroke="#f00" stroke-miterlimit="10" fill="none"/><path d="M61.957 132.352l5.445-14.204" stroke-width="1.2" stroke="#000" stroke-miterlimit="10" fill="none"/><path d="M67.402 118.148l5.446-14.203" stroke-width="1.2" stroke="#f00" stroke-miterlimit="10" fill="none"/><path d="M65.3 133.633l-15.027 2.387" stroke-width="1.2" stroke="#000" stroke-miterlimit="10" fill="none"/><path d="M50.273 136.02l-15.023 2.386" stroke-width="1.2" stroke="#f00" stroke-miterlimit="10" fill="none"/><path d="M71.19 98.227h10v14h-10zm0 0" fill="#fff"/><use xlink:href="#b" x="71.191" y="109.365" fill="#f00"/><path d="M21.25 129.906h14v17h-14zm0 0" fill="#fff"/><use xlink:href="#c" x="21.25" y="139.188" fill="#f00"/><use xlink:href="#b" x="24.858" y="144.071" fill="#f00"/></g></svg>