<svg xmlns="http://www.w3.org/2000/svg" xmlns:xlink="http://www.w3.org/1999/xlink" width="300pt" height="300pt" viewBox="0 0 300 300"><defs><symbol overflow="visible"><path d="M.547 1.938V-7.75h5.5v9.688zm.625-.61h4.266v-8.47H1.171zm0 0"/></symbol><symbol overflow="visible" id="a"><path d="M1.078-8.016h4.61v.907H2.171v2.36h3.172v.922H2.172V0H1.078zm0 0"/></symbol><symbol overflow="visible" id="b"><path d="M1.078-8.016h1.47l3.546 6.704v-6.704h1.062V0H5.688L2.124-6.703V0H1.078zm0 0"/></symbol><symbol overflow="visible" id="c"><path d="M1.078-8.016h1.094v3.282H6.11v-3.282h1.077V0H6.11v-3.813H2.17V0H1.078zm0 0"/></symbol><symbol overflow="visible" id="d"><path d="M4.328-7.28c-.78 0-1.406.296-1.875.89-.46.585-.687 1.382-.687 2.39 0 1.012.226 1.813.687 2.406.47.586 1.094.875 1.875.875.79 0 1.414-.288 1.875-.874.457-.593.688-1.394.688-2.406 0-1.008-.23-1.805-.687-2.39-.46-.594-1.086-.89-1.875-.89zm0-.892c1.125 0 2.024.383 2.703 1.14C7.708-6.28 8.048-5.27 8.048-4c0 1.262-.34 2.273-1.016 3.03C6.353-.22 5.454.157 4.33.157S2.3-.22 1.625-.97c-.668-.75-1-1.757-1-3.03 0-1.27.332-2.28 1-3.03.676-.76 1.578-1.142 2.703-1.142zm0 0"/></symbol></defs><g><path fill="#fff" d="M0 0h300v300H0z"/><path d="M57.988 185.805l3.617-12.832" stroke-width="1.2" stroke="#3cc" stroke-miterlimit="10" fill="none"/><path d="M61.605 172.973l3.622-12.832" stroke-width="1.2" stroke="#000" stroke-miterlimit="10" fill="none"/><path d="M54.988 179.305h7v13h-7zm0 0" fill="#fff"/><use xlink:href="#a" x="54.988" y="189.206" fill="#3cc"/><path d="M65.227 160.14l-18.61-19.1M67.86 153.852l-14.887-15.278M91.07 153.578l-25.843 6.563M46.617 141.04l7.238-25.665M53.855 115.375l-9.3-9.55" stroke-width="1.2" stroke="#000" stroke-miterlimit="10" fill="none"/><path d="M44.555 105.824l-9.305-9.55" stroke-width="1.2" stroke="#3cc" stroke-miterlimit="10" fill="none"/><path d="M53.855 115.375l25.848-6.563M57.984 120.8l20.68-5.25" stroke-width="1.2" stroke="#000" stroke-miterlimit="10" fill="none"/><path d="M28.25 89.773h7v13h-7zm0 0" fill="#fff"/><use xlink:href="#a" x="28.25" y="99.675" fill="#3cc"/><path d="M79.703 108.813l18.606 19.1M98.31 127.914l-7.24 25.664M91.547 128.777l-5.79 20.532M91.07 153.578l9.305 9.55" stroke-width="1.2" stroke="#000" stroke-miterlimit="10" fill="none"/><path d="M100.375 163.13l9.305 9.55M109.68 172.68l12.922-3.285" stroke-width="1.2" stroke="#00f" stroke-miterlimit="10" fill="none"/><path d="M122.602 169.395l12.92-3.282" stroke-width="1.2" stroke="#000" stroke-miterlimit="10" fill="none"/><path d="M101.68 166.18h17v13h-17zm0 0" fill="#fff"/><g fill="#00f"><use xlink:href="#b" x="101.68" y="176.081"/><use xlink:href="#c" x="109.663" y="176.081"/></g><path d="M138.543 166.965l3.617-12.832" stroke-width="1.2" stroke="#000" stroke-miterlimit="10" fill="none"/><path d="M142.16 154.133l3.62-12.832" stroke-width="1.2" stroke="#f00" stroke-miterlimit="10" fill="none"/><path d="M132.504 165.262l3.62-12.832" stroke-width="1.2" stroke="#000" stroke-miterlimit="10" fill="none"/><path d="M136.125 152.43l3.617-12.832" stroke-width="1.2" stroke="#f00" stroke-miterlimit="10" fill="none"/><path d="M135.523 166.113l18.606 19.102" stroke-width="1.2" stroke="#000" stroke-miterlimit="10" fill="none"/><path d="M138.762 133.95h9v13h-9zm0 0" fill="#fff"/><use xlink:href="#d" x="138.762" y="143.851" fill="#f00"/><path d="M154.13 185.215l12.925-3.28" stroke-width="1.2" stroke="#000" stroke-miterlimit="10" fill="none"/><path d="M167.055 181.934l12.922-3.282" stroke-width="1.2" stroke="#f00" stroke-miterlimit="10" fill="none"/><path d="M154.13 185.215l-7.24 25.664" stroke-width="1.2" stroke="#000" stroke-miterlimit="10" fill="none"/><path d="M179.977 178.652l3.617-12.832" stroke-width="1.2" stroke="#f00" stroke-miterlimit="10" fill="none"/><path d="M183.594 165.82l3.62-12.832" stroke-width="1.2" stroke="#000" stroke-miterlimit="10" fill="none"/><path d="M175.977 172.152h9v13h-9zm0 0" fill="#fff"/><use xlink:href="#d" x="175.977" y="182.054" fill="#f00"/><path d="M187.215 152.988l-18.61-19.1M189.848 146.7l-14.887-15.282M213.06 146.422l-25.845 6.566M168.605 133.887l7.24-25.664M175.844 108.223l12.926-3.285" stroke-width="1.2" stroke="#000" stroke-miterlimit="10" fill="none"/><path d="M188.77 104.938l12.92-3.282" stroke-width="1.2" stroke="#f00" stroke-miterlimit="10" fill="none"/><path d="M178.094 106.03l-9.305-9.55" stroke-width="1.2" stroke="#000" stroke-miterlimit="10" fill="none"/><path d="M168.79 96.48l-9.306-9.55" stroke-width="1.2" stroke="#f00" stroke-miterlimit="10" fill="none"/><path d="M173.598 110.41l-9.305-9.55" stroke-width="1.2" stroke="#000" stroke-miterlimit="10" fill="none"/><path d="M164.293 100.86l-9.3-9.55M201.69 101.656l9.302 9.55" stroke-width="1.2" stroke="#f00" stroke-miterlimit="10" fill="none"/><path d="M210.992 111.207l9.305 9.55" stroke-width="1.2" stroke="#000" stroke-miterlimit="10" fill="none"/><path d="M197.69 95.156h9v13h-9zm0 0" fill="#fff"/><use xlink:href="#d" x="197.691" y="105.058" fill="#f00"/><path d="M220.297 120.758l-7.238 25.664M225.613 125.027l-5.793 20.532M246.145 114.195l-25.848 6.563M213.06 146.422l18.608 19.1M231.668 165.523l25.844-6.562M232.707 158.785l20.676-5.25M257.512 158.96l7.238-25.663M264.75 133.297l-18.605-19.102M258.395 135.762l-14.887-15.278" stroke-width="1.2" stroke="#000" stroke-miterlimit="10" fill="none"/><path d="M148.238 82.62h9v13h-9zm0 0" fill="#fff"/><use xlink:href="#d" x="148.238" y="92.522" fill="#f00"/></g></svg>