<svg xmlns="http://www.w3.org/2000/svg" xmlns:xlink="http://www.w3.org/1999/xlink" width="300pt" height="300pt" viewBox="0 0 300 300"><defs><symbol overflow="visible"><path d="M.453 1.594v-7.938h4.5v7.938zm.5-.5h3.5v-6.938h-3.5zm0 0"/></symbol><symbol overflow="visible" id="a"><path d="M5.797-6.063v.938c-.305-.27-.625-.473-.97-.61-.335-.144-.686-.218-1.06-.218-.75 0-1.33.23-1.736.687-.397.46-.592 1.12-.592 1.985 0 .866.195 1.526.593 1.983.408.46.986.688 1.736.688.375 0 .726-.066 1.062-.203.344-.132.664-.343.97-.625V-.5c-.314.21-.642.367-.986.47-.343.1-.714.155-1.11.155-.99 0-1.772-.3-2.343-.906C.784-1.396.5-2.228.5-3.28c0-1.052.285-1.88.86-2.486.57-.613 1.35-.92 2.343-.92.395-.002.766.053 1.11.155.35.104.68.26.984.468zm0 0"/></symbol><symbol overflow="visible" id="b"><path d="M.844-6.844h.812V0H.844zm0 0"/></symbol><symbol overflow="visible" id="c"><path d="M.89-6.563H2.08l2.906 5.485v-5.484h.86V0H4.656L1.75-5.484V0H.89zm0 0"/></symbol><symbol overflow="visible" id="d"><path d="M3.547-5.953c-.65 0-1.164.242-1.547.72-.375.48-.563 1.13-.563 1.952 0 .835.188 1.49.563 1.967.383.48.898.72 1.547.72.644 0 1.156-.24 1.53-.72.376-.476.564-1.132.564-1.968 0-.822-.187-1.474-.562-1.954-.375-.477-.887-.72-1.53-.72zm0-.734c.914 0 1.648.312 2.203.937.55.617.828 1.438.828 2.47 0 1.042-.277 1.87-.828 2.483-.555.617-1.29.922-2.203.922-.93 0-1.668-.305-2.22-.922C.774-1.41.5-2.237.5-3.28c0-1.033.273-1.853.828-2.47.55-.625 1.29-.938 2.22-.938zm0 0"/></symbol><symbol overflow="visible"><path d="M.406 1.422V-5.64h4V1.42zM.844.97h3.11v-6.157H.843zm0 0"/></symbol><symbol overflow="visible" id="e"><path d="M.39-2.516H2.5v.64H.39zm0 0"/></symbol></defs><g><path fill="#fff" d="M0 0h300v300H0z"/><path d="M178.082 206.31l-4.254-9.01" stroke-width="1.2" stroke="#0c0" stroke-miterlimit="10" fill="none"/><path d="M173.828 197.3l-4.25-9.007" stroke-width="1.2" stroke="#000" stroke-miterlimit="10" fill="none"/><path d="M173.082 200.81h10v11h-10zm0 0" fill="#fff"/><g fill="#0c0"><use xlink:href="#a" x="173.082" y="209.472"/><use xlink:href="#b" x="179.596" y="209.472"/></g><path d="M169.578 188.293l-19.85-1.64M167.977 183.46l-15.88-1.315M180.926 171.926l-11.348 16.367M149.727 186.652l-8.504-18.01M141.223 168.64l-19.078-5.734M152.57 152.27l-11.347 16.37M155.285 156.578l-9.078 13.094M122.145 162.906l-.442-19.914M117.414 161.02l-.352-15.934M105.12 173.246l17.025-10.34M121.703 142.992l9.402-3.285" stroke-width="1.2" stroke="#000" stroke-miterlimit="10" fill="none"/><path d="M131.105 139.707l9.403-3.29" stroke-width="1.2" stroke="#00f" stroke-miterlimit="10" fill="none"/><path d="M121.703 142.992l-17.47-9.574" stroke-width="1.2" stroke="#000" stroke-miterlimit="10" fill="none"/><path d="M140.508 136.418l6.03 7.926" stroke-width="1.2" stroke="#00f" stroke-miterlimit="10" fill="none"/><path d="M146.54 144.344l6.03 7.926" stroke-width="1.2" stroke="#000" stroke-miterlimit="10" fill="none"/><path d="M140.508 136.418l2.863-9.54" stroke-width="1.2" stroke="#00f" stroke-miterlimit="10" fill="none"/><path d="M143.37 126.88l2.868-9.54" stroke-width="1.2" stroke="#000" stroke-miterlimit="10" fill="none"/><path d="M137.508 130.918h7v11h-7zm0 0" fill="#fff"/><use xlink:href="#c" x="137.508" y="139.581" fill="#00f"/><path d="M152.57 152.27l19.852 1.64M172.422 153.91l8.504 18.016M169.03 157.715l6.806 14.41M147.945 115.734l-6.828-7.25" stroke-width="1.2" stroke="#000" stroke-miterlimit="10" fill="none"/><path d="M141.117 108.484l-6.824-7.254" stroke-width="1.2" stroke="#f00" stroke-miterlimit="10" fill="none"/><path d="M144.53 118.95l-6.823-7.255" stroke-width="1.2" stroke="#000" stroke-miterlimit="10" fill="none"/><path d="M137.707 111.695l-6.828-7.25" stroke-width="1.2" stroke="#f00" stroke-miterlimit="10" fill="none"/><path d="M146.238 117.34l9.696-2.285" stroke-width="1.2" stroke="#000" stroke-miterlimit="10" fill="none"/><path d="M155.934 115.055l9.69-2.285" stroke-width="1.2" stroke="#00f" stroke-miterlimit="10" fill="none"/><path d="M124.586 97.34h8v11h-8zm0 0" fill="#fff"/><use xlink:href="#d" x="124.586" y="106.003" fill="#f00"/><path d="M165.625 112.77l6.828 7.25" stroke-width="1.2" stroke="#00f" stroke-miterlimit="10" fill="none"/><path d="M172.453 120.02l6.828 7.253" stroke-width="1.2" stroke="#000" stroke-miterlimit="10" fill="none"/><path d="M165.625 112.77l2.867-9.54" stroke-width="1.2" stroke="#00f" stroke-miterlimit="10" fill="none"/><path d="M168.492 103.23l2.867-9.54" stroke-width="1.2" stroke="#000" stroke-miterlimit="10" fill="none"/><path d="M162.625 107.27h7v11h-7zm0 0" fill="#fff"/><use xlink:href="#c" x="162.625" y="115.933" fill="#00f"/><path d="M179.28 127.273l19.388-4.574M198.668 122.7l13.652 14.503M212.32 137.203l19.387-4.574M231.707 132.63l13.656 14.503M245.363 147.133l19.387-4.574M104.234 133.418l-17.023 10.34M104.965 138.457l-13.62 8.273M87.21 143.758l.442 19.914M87.21 143.758l-17.468-9.574M87.652 163.672l17.47 9.574M91.652 160.52l13.973 7.66M69.742 134.184l-17.023 10.34M69.742 134.184l-.44-19.914M50.375 144.574l.22 9.957" stroke-width="1.2" stroke="#000" stroke-miterlimit="10" fill="none"/><path d="M50.594 154.53l.222 9.962" stroke-width="1.2" stroke="#f00" stroke-miterlimit="10" fill="none"/><path d="M55.06 144.473l.22 9.957" stroke-width="1.2" stroke="#000" stroke-miterlimit="10" fill="none"/><path d="M55.28 154.43l.224 9.957" stroke-width="1.2" stroke="#f00" stroke-miterlimit="10" fill="none"/><path d="M52.72 144.523l-8.736-4.785" stroke-width="1.2" stroke="#000" stroke-miterlimit="10" fill="none"/><path d="M43.984 139.738l-8.734-4.79" stroke-width="1.2" stroke="#f00" stroke-miterlimit="10" fill="none"/><path d="M49.16 158.938h8v11h-8zm0 0" fill="#fff"/><use xlink:href="#d" x="49.16" y="167.601" fill="#f00"/><path d="M24.25 127.45h11v15h-11zm0 0" fill="#fff"/><use xlink:href="#e" x="24.25" y="134.668" fill="#f00"/><use xlink:href="#d" x="27.058" y="139.551" fill="#f00"/></g></svg>