<svg xmlns="http://www.w3.org/2000/svg" xmlns:xlink="http://www.w3.org/1999/xlink" width="300pt" height="300pt" viewBox="0 0 300 300"><defs><symbol overflow="visible"><path d="M.594 2.125V-8.47h6V2.126zm.672-.672h4.671V-7.78h-4.67zm0 0"/></symbol><symbol overflow="visible" id="a"><path d="M7.734-8.078v1.25c-.406-.375-.836-.65-1.28-.828-.45-.188-.93-.282-1.438-.282-1 0-1.766.31-2.297.922-.533.618-.798 1.5-.798 2.657 0 1.15.266 2.028.797 2.64.53.618 1.296.923 2.296.923.507 0 .988-.094 1.437-.28.445-.19.875-.462 1.28-.83V-.67c-.417.28-.858.496-1.327.64-.46.134-.945.204-1.453.204-1.336 0-2.383-.406-3.14-1.22-.762-.81-1.14-1.913-1.14-3.31 0-1.408.378-2.517 1.14-3.33.757-.812 1.804-1.218 3.14-1.218.52 0 1.008.074 1.47.22.468.135.905.338 1.31.608zm0 0"/></symbol><symbol overflow="visible" id="b"><path d="M1.125-9.125h1.078V0H1.125zm0 0"/></symbol><symbol overflow="visible" id="c"><path d="M4.734-7.953c-.867 0-1.554.324-2.062.97-.5.635-.75 1.51-.75 2.624 0 1.094.25 1.965.75 2.61.508.637 1.195.953 2.062.953.852 0 1.532-.316 2.032-.953.507-.645.765-1.516.765-2.61 0-1.113-.257-1.988-.764-2.624-.5-.645-1.18-.97-2.032-.97zm0-.953c1.22 0 2.192.414 2.922 1.234.74.824 1.11 1.93 1.11 3.313 0 1.376-.37 2.477-1.11 3.298C6.926-.24 5.953.17 4.734.17c-1.23 0-2.214-.41-2.953-1.234C1.04-1.882.673-2.984.673-4.36c0-1.382.367-2.488 1.11-3.312.738-.82 1.722-1.234 2.952-1.234zm0 0"/></symbol><symbol overflow="visible" id="d"><path d="M1.172-8.75h1.594l3.89 7.313V-8.75h1.14V0H6.204L2.328-7.313V0H1.172zm0 0"/></symbol><symbol overflow="visible" id="e"><path d="M6.422-8.47v1.158c-.45-.208-.875-.364-1.28-.47-.4-.113-.78-.17-1.142-.17-.648 0-1.148.124-1.5.374-.344.25-.516.61-.516 1.078 0 .387.114.68.344.875.227.2.672.355 1.328.47L4.36-5c.882.168 1.535.465 1.952.89.426.42.64.98.64 1.688 0 .856-.288 1.5-.858 1.938-.563.437-1.4.656-2.5.656-.406 0-.844-.047-1.313-.14C1.814-.064 1.33-.204.83-.392v-1.22c.477.274.945.477 1.406.61.47.137.922.203 1.36.203.676 0 1.195-.13 1.562-.39.375-.27.563-.65.563-1.14 0-.427-.138-.76-.407-1-.262-.25-.696-.43-1.297-.548l-.72-.14c-.886-.176-1.526-.454-1.92-.83-.388-.374-.58-.893-.58-1.56 0-.782.27-1.392.813-1.83.538-.445 1.288-.67 2.25-.67.413 0 .83.038 1.25.108.425.074.863.184 1.312.328zm0 0"/></symbol></defs><g><path fill="#fff" d="M0 0h300v300H0z"/><path d="M264.75 199.852l-14.344-2.29" stroke-width="1.2" stroke="#0c0" stroke-miterlimit="10" fill="none"/><path d="M250.406 197.563l-14.344-2.286" stroke-width="1.2" stroke="#000" stroke-miterlimit="10" fill="none"/><path d="M258.75 192.852h12v14h-12zm0 0" fill="#fff"/><g fill="#0c0"><use xlink:href="#a" x="258.75" y="203.99"/><use xlink:href="#b" x="267.129" y="203.99"/></g><path d="M236.063 195.277l-18.31 22.555M228.926 193.223l-14.65 18.047M225.684 168.145l10.38 27.132M217.754 217.832l-14.344-2.29" stroke-width="1.2" stroke="#000" stroke-miterlimit="10" fill="none"/><path d="M203.41 215.543l-14.344-2.29M189.066 213.254l-5.187-13.566" stroke-width="1.2" stroke="#f00" stroke-miterlimit="10" fill="none"/><path d="M183.88 199.688l-5.192-13.567" stroke-width="1.2" stroke="#000" stroke-miterlimit="10" fill="none"/><path d="M184.066 206.254h10v14h-10zm0 0" fill="#fff"/><use xlink:href="#c" x="184.066" y="217.393" fill="#f00"/><path d="M178.688 186.12l18.308-22.554M185.824 188.176l14.65-18.047M178.688 186.12L150 181.548M196.996 163.566l28.688 4.58M196.996 163.566l-10.383-27.132M228.336 170.297l9.152-11.277" stroke-width="1.2" stroke="#000" stroke-miterlimit="10" fill="none"/><path d="M237.488 159.02l9.157-11.278" stroke-width="1.2" stroke="#f00" stroke-miterlimit="10" fill="none"/><path d="M223.027 165.988l9.157-11.277" stroke-width="1.2" stroke="#000" stroke-miterlimit="10" fill="none"/><path d="M232.184 154.71l9.152-11.276" stroke-width="1.2" stroke="#f00" stroke-miterlimit="10" fill="none"/><path d="M238.988 138.586h10v14h-10zm0 0" fill="#fff"/><use xlink:href="#c" x="238.988" y="149.725" fill="#f00"/><path d="M186.613 136.434l18.31-22.555M183.137 129.87l14.648-18.046M157.926 131.855l28.687 4.58M204.922 113.88l-10.38-27.134M194.543 86.746l-28.688-4.578M190.598 93.04l-22.95-3.665M165.855 82.168L156.7 93.445" stroke-width="1.2" stroke="#000" stroke-miterlimit="10" fill="none"/><path d="M156.7 93.445l-9.153 11.278M147.547 104.723l5.19 13.566" stroke-width="1.2" stroke="#00f" stroke-miterlimit="10" fill="none"/><path d="M152.738 118.29l5.188 13.565" stroke-width="1.2" stroke="#000" stroke-miterlimit="10" fill="none"/><path d="M154.97 104.996l4.15 10.852" stroke-width="1.2" stroke="#00f" stroke-miterlimit="10" fill="none"/><path d="M159.12 115.848l4.153 10.855" stroke-width="1.2" stroke="#000" stroke-miterlimit="10" fill="none"/><path d="M143.547 97.723h9v14h-9zm0 0" fill="#fff"/><use xlink:href="#d" x="143.547" y="108.861" fill="#00f"/><path d="M150 181.547l-10.38-27.133M142.578 181.273l-8.305-21.707M131.69 204.102L150 181.547M139.62 154.414l-28.686-4.578M110.934 149.836l-18.31 22.555M114.41 156.398L99.762 174.44M92.625 172.39l-14.344-2.288" stroke-width="1.2" stroke="#000" stroke-miterlimit="10" fill="none"/><path d="M78.28 170.102l-14.343-2.29" stroke-width="1.2" stroke="#cc0" stroke-miterlimit="10" fill="none"/><path d="M92.625 172.39l10.38 27.133" stroke-width="1.2" stroke="#000" stroke-miterlimit="10" fill="none"/><path d="M60.563 167.277l-2.29 14.344" stroke-width="1.2" stroke="#cc0" stroke-miterlimit="10" fill="none"/><path d="M58.273 181.62l-2.29 14.345" stroke-width="1.2" stroke="#f00" stroke-miterlimit="10" fill="none"/><path d="M67.313 168.352l-2.29 14.343" stroke-width="1.2" stroke="#cc0" stroke-miterlimit="10" fill="none"/><path d="M65.023 182.695l-2.29 14.344" stroke-width="1.2" stroke="#f00" stroke-miterlimit="10" fill="none"/><path d="M67.313 168.352l2.29-14.344" stroke-width="1.2" stroke="#cc0" stroke-miterlimit="10" fill="none"/><path d="M69.602 154.008l2.29-14.344" stroke-width="1.2" stroke="#f00" stroke-miterlimit="10" fill="none"/><path d="M60.563 167.277l2.29-14.343" stroke-width="1.2" stroke="#cc0" stroke-miterlimit="10" fill="none"/><path d="M62.852 152.934l2.29-14.344" stroke-width="1.2" stroke="#f00" stroke-miterlimit="10" fill="none"/><path d="M63.938 167.813l-14.344-2.286" stroke-width="1.2" stroke="#cc0" stroke-miterlimit="10" fill="none"/><path d="M49.594 165.527l-14.344-2.29" stroke-width="1.2" stroke="#000" stroke-miterlimit="10" fill="none"/><path d="M59.938 160.813h8v14h-8zm0 0" fill="#fff"/><use xlink:href="#e" x="59.938" y="171.951" fill="#cc0"/><path d="M54.36 189.5h10v14h-10zm0 0" fill="#fff"/><use xlink:href="#c" x="54.359" y="200.639" fill="#f00"/><path d="M63.516 132.125h10v14h-10zm0 0" fill="#fff"/><use xlink:href="#c" x="63.516" y="143.264" fill="#f00"/><path d="M103.004 199.523l28.687 4.58M106.95 193.23l22.952 3.665" stroke-width="1.2" stroke="#000" stroke-miterlimit="10" fill="none"/></g></svg>