<svg xmlns="http://www.w3.org/2000/svg" xmlns:xlink="http://www.w3.org/1999/xlink" width="300pt" height="300pt" viewBox="0 0 300 300"><defs><symbol overflow="visible"><path d="M.594 2.125V-8.47h6V2.126zm.672-.672h4.671V-7.78h-4.67zm0 0"/></symbol><symbol overflow="visible" id="a"><path d="M6.422-8.47v1.158c-.45-.208-.875-.364-1.28-.47-.4-.113-.78-.17-1.142-.17-.648 0-1.148.124-1.5.374-.344.25-.516.61-.516 1.078 0 .387.114.68.344.875.227.2.672.355 1.328.47L4.36-5c.882.168 1.535.465 1.952.89.426.42.64.98.64 1.688 0 .856-.288 1.5-.858 1.938-.563.437-1.4.656-2.5.656-.406 0-.844-.047-1.313-.14C1.814-.064 1.33-.204.83-.392v-1.22c.477.274.945.477 1.406.61.47.137.922.203 1.36.203.676 0 1.195-.13 1.562-.39.375-.27.563-.65.563-1.14 0-.427-.138-.76-.407-1-.262-.25-.696-.43-1.297-.548l-.72-.14c-.886-.176-1.526-.454-1.92-.83-.388-.374-.58-.893-.58-1.56 0-.782.27-1.392.813-1.83.538-.445 1.288-.67 2.25-.67.413 0 .83.038 1.25.108.425.074.863.184 1.312.328zm0 0"/></symbol><symbol overflow="visible" id="b"><path d="M1.172-8.75h1.594l3.89 7.313V-8.75h1.14V0H6.204L2.328-7.313V0H1.172zm0 0"/></symbol><symbol overflow="visible" id="c"><path d="M1.172-8.75h5.03v1H2.36v2.578h3.468v1h-3.47V0H1.173zm0 0"/></symbol><symbol overflow="visible" id="d"><path d="M4.734-7.953c-.867 0-1.554.324-2.062.97-.5.635-.75 1.51-.75 2.624 0 1.094.25 1.965.75 2.61.508.637 1.195.953 2.062.953.852 0 1.532-.316 2.032-.953.507-.645.765-1.516.765-2.61 0-1.113-.257-1.988-.764-2.624-.5-.645-1.18-.97-2.032-.97zm0-.953c1.22 0 2.192.414 2.922 1.234.74.824 1.11 1.93 1.11 3.313 0 1.376-.37 2.477-1.11 3.298C6.926-.24 5.953.17 4.734.17c-1.23 0-2.214-.41-2.953-1.234C1.04-1.882.673-2.984.673-4.36c0-1.382.367-2.488 1.11-3.312.738-.82 1.722-1.234 2.952-1.234zm0 0"/></symbol></defs><g><path fill="#fff" d="M0 0h300v300H0z"/><path d="M255.664 174.004l-13.777 6.207" stroke-width="1.2" stroke="#cc0" stroke-miterlimit="10" fill="none"/><path d="M241.887 180.21l-13.782 6.208M258.695 143.926l-1.515 15.04" stroke-width="1.2" stroke="#000" stroke-miterlimit="10" fill="none"/><path d="M257.18 158.965l-1.516 15.04" stroke-width="1.2" stroke="#cc0" stroke-miterlimit="10" fill="none"/><path d="M251.664 167.004h8v14h-8zm0 0" fill="#fff"/><use xlink:href="#a" x="251.664" y="178.143" fill="#cc0"/><path d="M228.105 186.418l-24.53-17.66M221.496 190.426l-19.625-14.13M218.89 215.207l9.215-28.79M203.574 168.758l-12.19 8.937" stroke-width="1.2" stroke="#000" stroke-miterlimit="10" fill="none"/><path d="M191.383 177.695l-12.188 8.938" stroke-width="1.2" stroke="#00f" stroke-miterlimit="10" fill="none"/><path d="M203.574 168.758l3.028-30.074" stroke-width="1.2" stroke="#000" stroke-miterlimit="10" fill="none"/><path d="M179.195 186.633l9.465 28.707M179.195 186.633l-14.394-4.61" stroke-width="1.2" stroke="#00f" stroke-miterlimit="10" fill="none"/><path d="M164.8 182.023l-14.394-4.605" stroke-width="1.2" stroke="#000" stroke-miterlimit="10" fill="none"/><path d="M175.195 179.633h9v14h-9zm0 0" fill="#fff"/><use xlink:href="#b" x="175.195" y="190.771" fill="#00f"/><path d="M188.66 215.34l15.117-.067" stroke-width="1.2" stroke="#00f" stroke-miterlimit="10" fill="none"/><path d="M203.777 215.273l15.114-.066" stroke-width="1.2" stroke="#000" stroke-miterlimit="10" fill="none"/><path d="M191.652 208.215l12.094-.055" stroke-width="1.2" stroke="#00f" stroke-miterlimit="10" fill="none"/><path d="M203.746 208.16l12.09-.05" stroke-width="1.2" stroke="#000" stroke-miterlimit="10" fill="none"/><path d="M184.66 208.34h9v14h-9zm0 0" fill="#fff"/><use xlink:href="#b" x="184.66" y="219.479" fill="#00f"/><path d="M218.89 215.207l17.876 24.38M236.766 239.586l8.937 12.187" stroke-width="1.2" stroke="#000" stroke-miterlimit="10" fill="none"/><path d="M245.703 251.773l8.934 12.188" stroke-width="1.2" stroke="#3cc" stroke-miterlimit="10" fill="none"/><path d="M236.766 239.586l-12.192 8.937" stroke-width="1.2" stroke="#000" stroke-miterlimit="10" fill="none"/><path d="M224.574 248.523l-12.187 8.934" stroke-width="1.2" stroke="#3cc" stroke-miterlimit="10" fill="none"/><path d="M236.766 239.586l12.187-8.938" stroke-width="1.2" stroke="#000" stroke-miterlimit="10" fill="none"/><path d="M248.953 230.648l12.188-8.937" stroke-width="1.2" stroke="#3cc" stroke-miterlimit="10" fill="none"/><path d="M251.637 256.96h7v14h-7zm0 0" fill="#fff"/><use xlink:href="#c" x="251.637" y="268.1" fill="#3cc"/><path d="M205.387 250.457h7v14h-7zm0 0" fill="#fff"/><use xlink:href="#c" x="205.387" y="261.596" fill="#3cc"/><path d="M258.14 214.71h7v14h-7zm0 0" fill="#fff"/><use xlink:href="#c" x="258.141" y="225.85" fill="#3cc"/><path d="M150.406 177.418l-6.414-29.54M142.813 175.973l-5.13-23.633M128.03 197.742l22.376-20.324M143.992 147.88l-28.79-9.216M115.203 138.664l-22.375 20.324M117.746 145.96l-17.898 16.26M92.828 158.988l-14.394-4.61" stroke-width="1.2" stroke="#000" stroke-miterlimit="10" fill="none"/><path d="M78.434 154.38l-14.395-4.607" stroke-width="1.2" stroke="#cc0" stroke-miterlimit="10" fill="none"/><path d="M92.828 158.988l6.414 29.54" stroke-width="1.2" stroke="#000" stroke-miterlimit="10" fill="none"/><path d="M60.652 148.688l-4.61 14.394" stroke-width="1.2" stroke="#cc0" stroke-miterlimit="10" fill="none"/><path d="M56.043 163.082l-4.605 14.395" stroke-width="1.2" stroke="#f00" stroke-miterlimit="10" fill="none"/><path d="M67.426 150.855L62.82 165.25" stroke-width="1.2" stroke="#cc0" stroke-miterlimit="10" fill="none"/><path d="M62.82 165.25l-4.61 14.395" stroke-width="1.2" stroke="#f00" stroke-miterlimit="10" fill="none"/><path d="M67.426 150.855l4.61-14.394" stroke-width="1.2" stroke="#cc0" stroke-miterlimit="10" fill="none"/><path d="M72.035 136.46l4.606-14.394" stroke-width="1.2" stroke="#f00" stroke-miterlimit="10" fill="none"/><path d="M60.652 148.688l4.606-14.395" stroke-width="1.2" stroke="#cc0" stroke-miterlimit="10" fill="none"/><path d="M65.258 134.293l4.61-14.395" stroke-width="1.2" stroke="#f00" stroke-miterlimit="10" fill="none"/><path d="M64.04 149.773l-14.395-4.61" stroke-width="1.2" stroke="#cc0" stroke-miterlimit="10" fill="none"/><path d="M49.645 145.164l-14.395-4.61" stroke-width="1.2" stroke="#000" stroke-miterlimit="10" fill="none"/><path d="M60.04 142.773h8v14h-8zm0 0" fill="#fff"/><use xlink:href="#a" x="60.039" y="153.912" fill="#cc0"/><path d="M44.824 171.563h10v14h-10zm0 0" fill="#fff"/><use xlink:href="#d" x="44.824" y="182.701" fill="#f00"/><path d="M68.254 113.984h10v14h-10zm0 0" fill="#fff"/><use xlink:href="#d" x="68.254" y="125.123" fill="#f00"/><path d="M99.242 188.527l28.79 9.215M104.29 182.676l23.03 7.37M206.602 138.684l27.558-12.418M206.434 130.957l22.05-9.934M182.066 121.02l24.536 17.664M234.16 126.266l24.535 17.66M234.16 126.266l3.028-30.075M237.188 96.19l13.78-6.206" stroke-width="1.2" stroke="#000" stroke-miterlimit="10" fill="none"/><path d="M250.97 89.984l13.78-6.21" stroke-width="1.2" stroke="#3cc" stroke-miterlimit="10" fill="none"/><path d="M237.188 96.19l-24.532-17.66M230.582 100.195l-19.63-14.125" stroke-width="1.2" stroke="#000" stroke-miterlimit="10" fill="none"/><path d="M261.75 76.773h7v14h-7zm0 0" fill="#fff"/><use xlink:href="#c" x="261.75" y="87.912" fill="#3cc"/><path d="M212.656 78.53l1.516-15.038" stroke-width="1.2" stroke="#000" stroke-miterlimit="10" fill="none"/><path d="M214.172 63.492l1.512-15.04" stroke-width="1.2" stroke="#f00" stroke-miterlimit="10" fill="none"/><path d="M212.656 78.53l-27.558 12.415" stroke-width="1.2" stroke="#000" stroke-miterlimit="10" fill="none"/><path d="M215.684 48.453l13.78-6.207" stroke-width="1.2" stroke="#f00" stroke-miterlimit="10" fill="none"/><path d="M229.465 42.246l13.78-6.207" stroke-width="1.2" stroke="#000" stroke-miterlimit="10" fill="none"/><path d="M210.684 41.453h10v14h-10zm0 0" fill="#fff"/><use xlink:href="#d" x="210.684" y="52.592" fill="#f00"/><path d="M185.098 90.945l-3.032 30.075M191.87 94.664l-2.42 24.063" stroke-width="1.2" stroke="#000" stroke-miterlimit="10" fill="none"/></g></svg>