<svg xmlns="http://www.w3.org/2000/svg" xmlns:xlink="http://www.w3.org/1999/xlink" width="300pt" height="300pt" viewBox="0 0 300 300"><defs><symbol overflow="visible"><path d="M.453 1.594v-7.938h4.5v7.938zm.5-.5h3.5v-6.938h-3.5zm0 0"/></symbol><symbol overflow="visible" id="a"><path d="M5.797-6.063v.938c-.305-.27-.625-.473-.97-.61-.335-.144-.686-.218-1.06-.218-.75 0-1.33.23-1.736.687-.397.46-.592 1.12-.592 1.985 0 .866.195 1.526.593 1.983.408.46.986.688 1.736.688.375 0 .726-.066 1.062-.203.344-.132.664-.343.97-.625V-.5c-.314.21-.642.367-.986.47-.343.1-.714.155-1.11.155-.99 0-1.772-.3-2.343-.906C.784-1.396.5-2.228.5-3.28c0-1.052.285-1.88.86-2.486.57-.613 1.35-.92 2.343-.92.395-.002.766.053 1.11.155.35.104.68.26.984.468zm0 0"/></symbol><symbol overflow="visible" id="b"><path d="M.844-6.844h.812V0H.844zm0 0"/></symbol><symbol overflow="visible" id="c"><path d="M.89-6.563H2.08l2.906 5.485v-5.484h.86V0H4.656L1.75-5.484V0H.89zm0 0"/></symbol><symbol overflow="visible" id="d"><path d="M3.547-5.953c-.65 0-1.164.242-1.547.72-.375.48-.563 1.13-.563 1.952 0 .835.188 1.49.563 1.967.383.48.898.72 1.547.72.644 0 1.156-.24 1.53-.72.376-.476.564-1.132.564-1.968 0-.822-.187-1.474-.562-1.954-.375-.477-.887-.72-1.53-.72zm0-.734c.914 0 1.648.312 2.203.937.55.617.828 1.438.828 2.47 0 1.042-.277 1.87-.828 2.483-.555.617-1.29.922-2.203.922-.93 0-1.668-.305-2.22-.922C.774-1.41.5-2.237.5-3.28c0-1.033.273-1.853.828-2.47.55-.625 1.29-.938 2.22-.938zm0 0"/></symbol><symbol overflow="visible" id="e"><path d="M.89-6.563h.876v2.688H5v-2.688h.89V0H5v-3.125H1.766V0H.89zm0 0"/></symbol></defs><g><path fill="#fff" d="M0 0h300v300H0z"/><path d="M264.75 161.344l-9.203-4.184" stroke-width="1.2" stroke="#0c0" stroke-miterlimit="10" fill="none"/><path d="M255.547 157.16l-9.2-4.183" stroke-width="1.2" stroke="#000" stroke-miterlimit="10" fill="none"/><path d="M259.75 155.844h10v11h-10zm0 0" fill="#fff"/><g fill="#0c0"><use xlink:href="#a" x="259.75" y="164.507"/><use xlink:href="#b" x="266.264" y="164.507"/></g><path d="M246.348 152.977l-16.45 11.75M241.938 150.28l-13.16 9.404M244.395 132.852l1.953 20.125M229.898 164.727l-18.402-8.368M211.496 156.36l-9.27 4.035" stroke-width="1.2" stroke="#000" stroke-miterlimit="10" fill="none"/><path d="M202.227 160.395l-9.266 4.04" stroke-width="1.2" stroke="#00f" stroke-miterlimit="10" fill="none"/><path d="M209.543 136.234l1.953 20.125M214.473 137.79l1.562 16.097" stroke-width="1.2" stroke="#000" stroke-miterlimit="10" fill="none"/><path d="M192.96 164.434l-6.702-7.567" stroke-width="1.2" stroke="#00f" stroke-miterlimit="10" fill="none"/><path d="M186.258 156.867l-6.703-7.566" stroke-width="1.2" stroke="#000" stroke-miterlimit="10" fill="none"/><path d="M195.18 159.766l-5.364-6.05" stroke-width="1.2" stroke="#00f" stroke-miterlimit="10" fill="none"/><path d="M189.816 153.715l-5.363-6.055" stroke-width="1.2" stroke="#000" stroke-miterlimit="10" fill="none"/><path d="M189.96 158.934h7v11h-7zm0 0" fill="#fff"/><use xlink:href="#c" x="189.961" y="167.597" fill="#00f"/><path d="M179.555 149.3l5.12-8.71" stroke-width="1.2" stroke="#000" stroke-miterlimit="10" fill="none"/><path d="M184.676 140.59l5.125-8.715" stroke-width="1.2" stroke="#f00" stroke-miterlimit="10" fill="none"/><path d="M179.555 149.3l-10.063.977" stroke-width="1.2" stroke="#000" stroke-miterlimit="10" fill="none"/><path d="M169.492 150.277l-10.058.977" stroke-width="1.2" stroke="#00f" stroke-miterlimit="10" fill="none"/><path d="M189.8 131.875l9.872 2.18" stroke-width="1.2" stroke="#f00" stroke-miterlimit="10" fill="none"/><path d="M199.672 134.055l9.87 2.18" stroke-width="1.2" stroke="#000" stroke-miterlimit="10" fill="none"/><path d="M185.8 126.375h8v11h-8zm0 0" fill="#fff"/><use xlink:href="#d" x="185.801" y="135.038" fill="#f00"/><path d="M209.543 136.234l16.45-11.75M225.992 124.484l18.403 8.368M225.863 129.652l14.723 6.696" stroke-width="1.2" stroke="#000" stroke-miterlimit="10" fill="none"/><path d="M159.434 151.254l-5.88-8.223" stroke-width="1.2" stroke="#00f" stroke-miterlimit="10" fill="none"/><path d="M153.555 143.03l-5.875-8.225M151.063 169.656l4.183-9.2" stroke-width="1.2" stroke="#000" stroke-miterlimit="10" fill="none"/><path d="M155.246 160.457l4.188-9.203" stroke-width="1.2" stroke="#00f" stroke-miterlimit="10" fill="none"/><path d="M156.434 145.754h7v11h-7zm0 0" fill="#fff"/><use xlink:href="#c" x="156.434" y="154.417" fill="#00f"/><path d="M147.68 134.805l-20.12 1.953M127.56 136.758l-8.373 18.402M119.188 155.16l11.753 16.45M119.188 155.16l-20.122 1.953M130.94 171.61l20.123-1.954M96.902 156.13l-4.187 9.202" stroke-width="1.2" stroke="#000" stroke-miterlimit="10" fill="none"/><path d="M92.715 165.332l-4.184 9.2" stroke-width="1.2" stroke="#f00" stroke-miterlimit="10" fill="none"/><path d="M101.23 158.098l-4.183 9.203" stroke-width="1.2" stroke="#000" stroke-miterlimit="10" fill="none"/><path d="M97.047 167.3l-4.188 9.2" stroke-width="1.2" stroke="#f00" stroke-miterlimit="10" fill="none"/><path d="M99.066 157.113l-5.88-8.222" stroke-width="1.2" stroke="#000" stroke-miterlimit="10" fill="none"/><path d="M93.188 148.89l-5.876-8.226" stroke-width="1.2" stroke="#00f" stroke-miterlimit="10" fill="none"/><path d="M82.695 170.016h8v11h-8zm0 0" fill="#fff"/><use xlink:href="#d" x="82.695" y="178.679" fill="#f00"/><path d="M87.313 140.664l-10.06.977" stroke-width="1.2" stroke="#00f" stroke-miterlimit="10" fill="none"/><path d="M77.254 141.64l-10.063.977" stroke-width="1.2" stroke="#000" stroke-miterlimit="10" fill="none"/><path d="M80.313 135.164h14v11h-14zm0 0" fill="#fff"/><g fill="#00f"><use xlink:href="#c" x="80.313" y="143.827"/><use xlink:href="#e" x="87.29" y="143.827"/></g><path d="M67.19 142.617l-10.245 17.426M53.785 127.484l13.406 15.133M56.945 160.043l-19.742-4.36M37.203 155.684l-1.953-20.12M35.25 135.563l18.535-8.08" stroke-width="1.2" stroke="#000" stroke-miterlimit="10" fill="none"/></g></svg>