<svg xmlns="http://www.w3.org/2000/svg" xmlns:xlink="http://www.w3.org/1999/xlink" width="300pt" height="300pt" viewBox="0 0 300 300"><defs><symbol overflow="visible"><path d="M.453 1.594v-7.938h4.5v7.938zm.5-.5h3.5v-6.938h-3.5zm0 0"/></symbol><symbol overflow="visible" id="a"><path d="M4.813-6.344v.86c-.336-.157-.653-.27-.954-.344-.294-.082-.58-.125-.86-.125-.492 0-.867.094-1.125.28-.262.19-.39.454-.39.798 0 .293.085.512.265.656.176.15.504.267.984.36l.547.11c.658.125 1.142.352 1.454.672.32.312.485.734.485 1.265 0 .637-.216 1.122-.642 1.454-.43.325-1.055.485-1.875.485-.312 0-.648-.04-1-.11C1.36-.046 1-.147.625-.296v-.906c.352.2.703.35 1.047.453.35.105.695.156 1.03.156.5 0 .884-.097 1.157-.297.28-.196.42-.485.42-.86 0-.32-.1-.57-.296-.75-.2-.176-.523-.313-.968-.406l-.547-.11C1.81-3.148 1.33-3.36 1.03-3.64.74-3.923.595-4.313.595-4.813c0-.57.203-1.024.61-1.36.405-.344.968-.516 1.687-.516.313 0 .626.032.938.094.32.055.65.137.985.25zm0 0"/></symbol><symbol overflow="visible" id="b"><path d="M3.547-5.953c-.65 0-1.164.242-1.547.72-.375.48-.563 1.13-.563 1.952 0 .835.188 1.49.563 1.967.383.48.898.72 1.547.72.644 0 1.156-.24 1.53-.72.376-.476.564-1.132.564-1.968 0-.822-.187-1.474-.562-1.954-.375-.477-.887-.72-1.53-.72zm0-.734c.914 0 1.648.312 2.203.937.55.617.828 1.438.828 2.47 0 1.042-.277 1.87-.828 2.483-.555.617-1.29.922-2.203.922-.93 0-1.668-.305-2.22-.922C.774-1.41.5-2.237.5-3.28c0-1.033.273-1.853.828-2.47.55-.625 1.29-.938 2.22-.938zm0 0"/></symbol><symbol overflow="visible" id="c"><path d="M.89-6.563H2.08l2.906 5.485v-5.484h.86V0H4.656L1.75-5.484V0H.89zm0 0"/></symbol><symbol overflow="visible" id="d"><path d="M.89-6.563h.876v2.688H5v-2.688h.89V0H5v-3.125H1.766V0H.89zm0 0"/></symbol></defs><g><path fill="#fff" d="M0 0h300v300H0z"/><path d="M242.5 183.918l.316-12.606" stroke-width="1.2" stroke="#cc0" stroke-miterlimit="10" fill="none"/><path d="M242.816 171.313l.313-12.61" stroke-width="1.2" stroke="#f00" stroke-miterlimit="10" fill="none"/><path d="M236.57 183.773l.313-12.61" stroke-width="1.2" stroke="#cc0" stroke-miterlimit="10" fill="none"/><path d="M236.883 171.164l.312-12.605" stroke-width="1.2" stroke="#f00" stroke-miterlimit="10" fill="none"/><path d="M236.57 183.773l-.312 12.606" stroke-width="1.2" stroke="#cc0" stroke-miterlimit="10" fill="none"/><path d="M236.258 196.38l-.317 12.604" stroke-width="1.2" stroke="#f00" stroke-miterlimit="10" fill="none"/><path d="M242.5 183.918l-.313 12.61" stroke-width="1.2" stroke="#cc0" stroke-miterlimit="10" fill="none"/><path d="M242.188 196.527l-.313 12.606" stroke-width="1.2" stroke="#f00" stroke-miterlimit="10" fill="none"/><path d="M239.535 183.844l12.61.312" stroke-width="1.2" stroke="#cc0" stroke-miterlimit="10" fill="none"/><path d="M252.145 184.156l12.605.317" stroke-width="1.2" stroke="#000" stroke-miterlimit="10" fill="none"/><path d="M239.535 183.844l-12.605-.313" stroke-width="1.2" stroke="#cc0" stroke-miterlimit="10" fill="none"/><path d="M226.93 183.53l-12.61-.31" stroke-width="1.2" stroke="#000" stroke-miterlimit="10" fill="none"/><path d="M236.535 178.344h6v11h-6zm0 0" fill="#fff"/><use xlink:href="#a" x="236.535" y="187.007" fill="#cc0"/><path d="M236.16 153.13h8v11h-8zm0 0" fill="#fff"/><use xlink:href="#b" x="236.16" y="161.792" fill="#f00"/><path d="M234.91 203.56h8v11h-8zm0 0" fill="#fff"/><use xlink:href="#b" x="234.91" y="212.222" fill="#f00"/><path d="M214.32 183.22l-13.148 21.522M207.94 182.277l-10.518 17.22M202.258 161.07l12.062 22.15M201.172 204.742l-25.215-.625M175.957 204.117L163.89 181.97M179.96 199.063l-9.65-17.72M163.89 181.97l13.153-21.525M163.89 181.97l-25.214-.63M177.043 160.445l25.215.625M179.414 166.438l20.172.503M138.676 181.34l-7.66 10.015" stroke-width="1.2" stroke="#000" stroke-miterlimit="10" fill="none"/><path d="M131.016 191.355l-7.664 10.016" stroke-width="1.2" stroke="#00f" stroke-miterlimit="10" fill="none"/><path d="M124.363 160.574l14.313 20.766M120.91 166.02l11.45 16.613" stroke-width="1.2" stroke="#000" stroke-miterlimit="10" fill="none"/><path d="M123.352 201.37l-11.895-4.19" stroke-width="1.2" stroke="#00f" stroke-miterlimit="10" fill="none"/><path d="M111.457 197.18l-11.894-4.196" stroke-width="1.2" stroke="#000" stroke-miterlimit="10" fill="none"/><path d="M116.352 195.87h14v11h-14zm0 0" fill="#fff"/><g fill="#00f"><use xlink:href="#c" x="116.352" y="204.534"/><use xlink:href="#d" x="123.329" y="204.534"/></g><path d="M99.563 192.984L89.18 200.14" stroke-width="1.2" stroke="#000" stroke-miterlimit="10" fill="none"/><path d="M89.18 200.14l-10.383 7.16" stroke-width="1.2" stroke="#cc0" stroke-miterlimit="10" fill="none"/><path d="M99.563 192.984l.312-12.605" stroke-width="1.2" stroke="#000" stroke-miterlimit="10" fill="none"/><path d="M99.875 180.38l.316-12.61" stroke-width="1.2" stroke="#00f" stroke-miterlimit="10" fill="none"/><path d="M105.56 190.61l.25-10.087" stroke-width="1.2" stroke="#000" stroke-miterlimit="10" fill="none"/><path d="M105.81 180.523l.25-10.082" stroke-width="1.2" stroke="#00f" stroke-miterlimit="10" fill="none"/><path d="M78.797 207.3l-11.39-5.413" stroke-width="1.2" stroke="#cc0" stroke-miterlimit="10" fill="none"/><path d="M67.406 201.887l-11.39-5.414" stroke-width="1.2" stroke="#000" stroke-miterlimit="10" fill="none"/><path d="M75.797 201.8h6v11h-6zm0 0" fill="#fff"/><use xlink:href="#a" x="75.797" y="210.464" fill="#cc0"/><path d="M56.016 196.473L35.25 210.785" stroke-width="1.2" stroke="#000" stroke-miterlimit="10" fill="none"/><path d="M100.19 167.77l12.087-3.598" stroke-width="1.2" stroke="#00f" stroke-miterlimit="10" fill="none"/><path d="M112.277 164.172l12.086-3.598" stroke-width="1.2" stroke="#000" stroke-miterlimit="10" fill="none"/><path d="M97.19 162.27h7v11h-7zm0 0" fill="#fff"/><use xlink:href="#c" x="97.191" y="170.933" fill="#00f"/><path d="M124.363 160.574l8.387-23.785M132.75 136.79l24.793-4.634M134.14 130.492l19.837-3.707M116.344 117.63l16.406 19.16M157.543 132.156l8.387-23.785M165.93 108.37l-16.407-19.155M159.78 110.316l-13.124-15.328M149.523 89.215l-24.793 4.63M124.73 93.844l-8.386 23.785M129.488 98.195l-6.707 19.032" stroke-width="1.2" stroke="#000" stroke-miterlimit="10" fill="none"/></g></svg>