<svg xmlns="http://www.w3.org/2000/svg" xmlns:xlink="http://www.w3.org/1999/xlink" width="300pt" height="300pt" viewBox="0 0 300 300"><defs><symbol overflow="visible"><path d="M.453 1.594v-7.938h4.5v7.938zm.5-.5h3.5v-6.938h-3.5zm0 0"/></symbol><symbol overflow="visible" id="a"><path d="M4.813-6.344v.86c-.336-.157-.653-.27-.954-.344-.294-.082-.58-.125-.86-.125-.492 0-.867.094-1.125.28-.262.19-.39.454-.39.798 0 .293.085.512.265.656.176.15.504.267.984.36l.547.11c.658.125 1.142.352 1.454.672.32.312.485.734.485 1.265 0 .637-.216 1.122-.642 1.454-.43.325-1.055.485-1.875.485-.312 0-.648-.04-1-.11C1.36-.046 1-.147.625-.296v-.906c.352.2.703.35 1.047.453.35.105.695.156 1.03.156.5 0 .884-.097 1.157-.297.28-.196.42-.485.42-.86 0-.32-.1-.57-.296-.75-.2-.176-.523-.313-.968-.406l-.547-.11C1.81-3.148 1.33-3.36 1.03-3.64.74-3.923.595-4.313.595-4.813c0-.57.203-1.024.61-1.36.405-.344.968-.516 1.687-.516.313 0 .626.032.938.094.32.055.65.137.985.25zm0 0"/></symbol><symbol overflow="visible" id="b"><path d="M3.547-5.953c-.65 0-1.164.242-1.547.72-.375.48-.563 1.13-.563 1.952 0 .835.188 1.49.563 1.967.383.48.898.72 1.547.72.644 0 1.156-.24 1.53-.72.376-.476.564-1.132.564-1.968 0-.822-.187-1.474-.562-1.954-.375-.477-.887-.72-1.53-.72zm0-.734c.914 0 1.648.312 2.203.937.55.617.828 1.438.828 2.47 0 1.042-.277 1.87-.828 2.483-.555.617-1.29.922-2.203.922-.93 0-1.668-.305-2.22-.922C.774-1.41.5-2.237.5-3.28c0-1.033.273-1.853.828-2.47.55-.625 1.29-.938 2.22-.938zm0 0"/></symbol><symbol overflow="visible" id="c"><path d="M.89-6.563H2.08l2.906 5.485v-5.484h.86V0H4.656L1.75-5.484V0H.89zm0 0"/></symbol><symbol overflow="visible" id="d"><path d="M.89-6.563h.876v2.688H5v-2.688h.89V0H5v-3.125H1.766V0H.89zm0 0"/></symbol><symbol overflow="visible" id="e"><path d="M.89-6.563h3.766v.75h-2.89v1.938h2.61v.734h-2.61V0H.89zm0 0"/></symbol></defs><g><path fill="#fff" d="M0 0h300v300H0z"/><path d="M50.758 208.223l7.38 8.785" stroke-width="1.2" stroke="#cc0" stroke-miterlimit="10" fill="none"/><path d="M58.137 217.008l7.38 8.79" stroke-width="1.2" stroke="#f00" stroke-miterlimit="10" fill="none"/><path d="M54.89 204.75l7.383 8.785" stroke-width="1.2" stroke="#cc0" stroke-miterlimit="10" fill="none"/><path d="M62.273 213.535l7.38 8.79" stroke-width="1.2" stroke="#f00" stroke-miterlimit="10" fill="none"/><path d="M54.89 204.75l-7.378-8.79" stroke-width="1.2" stroke="#cc0" stroke-miterlimit="10" fill="none"/><path d="M47.512 195.96l-7.38-8.788" stroke-width="1.2" stroke="#f00" stroke-miterlimit="10" fill="none"/><path d="M50.758 208.223l-7.38-8.79" stroke-width="1.2" stroke="#cc0" stroke-miterlimit="10" fill="none"/><path d="M43.38 199.434l-7.38-8.79" stroke-width="1.2" stroke="#f00" stroke-miterlimit="10" fill="none"/><path d="M52.824 206.484l-8.785 7.38" stroke-width="1.2" stroke="#cc0" stroke-miterlimit="10" fill="none"/><path d="M44.04 213.863l-8.79 7.38" stroke-width="1.2" stroke="#000" stroke-miterlimit="10" fill="none"/><path d="M52.824 206.484l8.79-7.38" stroke-width="1.2" stroke="#cc0" stroke-miterlimit="10" fill="none"/><path d="M61.613 199.105l8.785-7.378" stroke-width="1.2" stroke="#000" stroke-miterlimit="10" fill="none"/><path d="M49.824 200.984h6v11h-6zm0 0" fill="#fff"/><use xlink:href="#a" x="49.824" y="209.647" fill="#cc0"/><path d="M63.582 218.56h8v11h-8zm0 0" fill="#fff"/><use xlink:href="#b" x="63.582" y="227.222" fill="#f00"/><path d="M30.066 183.41h8v11h-8zm0 0" fill="#fff"/><use xlink:href="#b" x="30.066" y="192.073" fill="#f00"/><path d="M70.398 191.727l-3.992-22.602M75.316 188.527l-3.195-18.082M91.97 199.566l-21.572-7.84M66.406 169.125l17.574-14.758M83.98 154.367l21.57 7.84M84.293 160.227l17.254 6.273M105.55 162.207l3.993 22.602M105.55 162.207l17.575-14.758M109.543 184.81L91.97 199.565M104.313 182.148l-14.06 11.81M123.125 147.45l-.805-11.446" stroke-width="1.2" stroke="#000" stroke-miterlimit="10" fill="none"/><path d="M122.32 136.004l-.804-11.45" stroke-width="1.2" stroke="#00f" stroke-miterlimit="10" fill="none"/><path d="M145.395 152.992l-22.27-5.543M144.473 147.2l-17.817-4.434" stroke-width="1.2" stroke="#000" stroke-miterlimit="10" fill="none"/><path d="M121.516 124.555l10.636-4.3" stroke-width="1.2" stroke="#00f" stroke-miterlimit="10" fill="none"/><path d="M132.152 120.254l10.637-4.305" stroke-width="1.2" stroke="#000" stroke-miterlimit="10" fill="none"/><path d="M121.516 124.555l-9.735-6.075" stroke-width="1.2" stroke="#00f" stroke-miterlimit="10" fill="none"/><path d="M111.78 118.48l-9.733-6.078" stroke-width="1.2" stroke="#000" stroke-miterlimit="10" fill="none"/><path d="M118.516 119.055h7v11h-7zm0 0" fill="#fff"/><use xlink:href="#c" x="118.516" y="127.718" fill="#00f"/><path d="M142.79 115.95l5.542-22.27M142.79 115.95l14.757 17.577M140.13 121.18l11.808 14.062M157.547 133.527l-12.152 19.465M157.547 133.527l22.894-1.613M180.44 131.914l12.84 19.024M193.28 150.938l11.45-.805" stroke-width="1.2" stroke="#000" stroke-miterlimit="10" fill="none"/><path d="M204.73 150.133l11.446-.805M216.176 149.328l6.418 9.512" stroke-width="1.2" stroke="#f00" stroke-miterlimit="10" fill="none"/><path d="M222.594 158.84l6.422 9.508" stroke-width="1.2" stroke="#000" stroke-miterlimit="10" fill="none"/><path d="M212.176 143.828h8v11h-8zm0 0" fill="#fff"/><use xlink:href="#b" x="212.176" y="152.491" fill="#f00"/><path d="M229.016 168.348l22.894-1.61M251.91 166.738l6.418 9.512" stroke-width="1.2" stroke="#000" stroke-miterlimit="10" fill="none"/><path d="M258.328 176.25l6.422 9.512" stroke-width="1.2" stroke="#f00" stroke-miterlimit="10" fill="none"/><path d="M257.75 180.262h15v11h-15zm0 0" fill="#fff"/><g fill="#f00"><use xlink:href="#b" x="257.75" y="188.925"/><use xlink:href="#d" x="265.092" y="188.925"/></g><path d="M102.047 112.402l.793-22.937M96.73 109.922l.633-18.348M81.79 123.184l20.257-10.782M102.84 89.465L83.37 77.312M83.37 77.313l-20.257 10.78M83.883 83.156l-16.207 8.63M63.113 88.094L53.38 82.02" stroke-width="1.2" stroke="#000" stroke-miterlimit="10" fill="none"/><path d="M53.38 82.02l-9.735-6.08" stroke-width="1.2" stroke="#3cc" stroke-miterlimit="10" fill="none"/><path d="M63.113 88.094l-.793 22.937" stroke-width="1.2" stroke="#000" stroke-miterlimit="10" fill="none"/><path d="M37.645 70.44h6v11h-6zm0 0" fill="#fff"/><use xlink:href="#e" x="37.645" y="79.104" fill="#3cc"/><path d="M62.32 111.03l19.47 12.154M67.125 107.664L82.7 117.39" stroke-width="1.2" stroke="#000" stroke-miterlimit="10" fill="none"/></g></svg>