<svg xmlns="http://www.w3.org/2000/svg" xmlns:xlink="http://www.w3.org/1999/xlink" width="300pt" height="300pt" viewBox="0 0 300 300"><defs><symbol overflow="visible"><path d="M.453 1.594v-7.938h4.5v7.938zm.5-.5h3.5v-6.938h-3.5zm0 0"/></symbol><symbol overflow="visible" id="a"><path d="M5.797-6.063v.938c-.305-.27-.625-.473-.97-.61-.335-.144-.686-.218-1.06-.218-.75 0-1.33.23-1.736.687-.397.46-.592 1.12-.592 1.985 0 .866.195 1.526.593 1.983.408.46.986.688 1.736.688.375 0 .726-.066 1.062-.203.344-.132.664-.343.97-.625V-.5c-.314.21-.642.367-.986.47-.343.1-.714.155-1.11.155-.99 0-1.772-.3-2.343-.906C.784-1.396.5-2.228.5-3.28c0-1.052.285-1.88.86-2.486.57-.613 1.35-.92 2.343-.92.395-.002.766.053 1.11.155.35.104.68.26.984.468zm0 0"/></symbol><symbol overflow="visible" id="b"><path d="M.844-6.844h.812V0H.844zm0 0"/></symbol><symbol overflow="visible" id="c"><path d="M.89-6.563H2.08l2.906 5.485v-5.484h.86V0H4.656L1.75-5.484V0H.89zm0 0"/></symbol><symbol overflow="visible" id="d"><path d="M.89-6.563h.876v2.688H5v-2.688h.89V0H5v-3.125H1.766V0H.89zm0 0"/></symbol><symbol overflow="visible" id="e"><path d="M3.547-5.953c-.65 0-1.164.242-1.547.72-.375.48-.563 1.13-.563 1.952 0 .835.188 1.49.563 1.967.383.48.898.72 1.547.72.644 0 1.156-.24 1.53-.72.376-.476.564-1.132.564-1.968 0-.822-.187-1.474-.562-1.954-.375-.477-.887-.72-1.53-.72zm0-.734c.914 0 1.648.312 2.203.937.55.617.828 1.438.828 2.47 0 1.042-.277 1.87-.828 2.483-.555.617-1.29.922-2.203.922-.93 0-1.668-.305-2.22-.922C.774-1.41.5-2.237.5-3.28c0-1.033.273-1.853.828-2.47.55-.625 1.29-.938 2.22-.938zm0 0"/></symbol></defs><g><path fill="#fff" d="M0 0h300v300H0z"/><path d="M264.75 225.28l-9.906-.948" stroke-width="1.2" stroke="#0c0" stroke-miterlimit="10" fill="none"/><path d="M254.844 224.332l-9.906-.95" stroke-width="1.2" stroke="#000" stroke-miterlimit="10" fill="none"/><path d="M259.75 219.78h10v11h-10zm0 0" fill="#fff"/><g fill="#0c0"><use xlink:href="#a" x="259.75" y="228.444"/><use xlink:href="#b" x="266.264" y="228.444"/></g><path d="M244.938 223.383l-8.266-18.11M236.672 205.273l-19.813-1.898M216.86 203.375l-4.133-9.055" stroke-width="1.2" stroke="#000" stroke-miterlimit="10" fill="none"/><path d="M212.727 194.32l-4.13-9.054M208.598 185.266l-9.907-.95" stroke-width="1.2" stroke="#00f" stroke-miterlimit="10" fill="none"/><path d="M198.69 184.316l-9.905-.95" stroke-width="1.2" stroke="#000" stroke-miterlimit="10" fill="none"/><path d="M201.598 179.766h14v11h-14zm0 0" fill="#fff"/><g fill="#00f"><use xlink:href="#c" x="201.598" y="188.429"/><use xlink:href="#d" x="208.575" y="188.429"/></g><path d="M186.875 182.012l-5.773 8.1" stroke-width="1.2" stroke="#000" stroke-miterlimit="10" fill="none"/><path d="M181.102 190.113l-5.778 8.106" stroke-width="1.2" stroke="#f00" stroke-miterlimit="10" fill="none"/><path d="M190.69 184.727l-5.776 8.105" stroke-width="1.2" stroke="#000" stroke-miterlimit="10" fill="none"/><path d="M184.914 192.832l-5.773 8.106" stroke-width="1.2" stroke="#f00" stroke-miterlimit="10" fill="none"/><path d="M188.785 183.367l-8.265-18.105" stroke-width="1.2" stroke="#000" stroke-miterlimit="10" fill="none"/><path d="M169.234 194.078h8v11h-8zm0 0" fill="#fff"/><use xlink:href="#e" x="169.234" y="202.741" fill="#f00"/><path d="M180.52 165.262l-19.813-1.9M178.984 160.41l-15.847-1.52M160.707 163.363l-8.262-18.11M152.445 145.254l-19.816-1.9M150.91 140.402l-15.85-1.52M163.996 129.043l-11.55 16.21M132.63 143.355l-8.263-18.105M132.63 143.355l-11.552 16.21M124.367 125.25l11.55-16.21M129.336 126.344l9.242-12.965M135.918 109.04l-4.133-9.056" stroke-width="1.2" stroke="#000" stroke-miterlimit="10" fill="none"/><path d="M131.785 99.984l-4.13-9.054" stroke-width="1.2" stroke="#f00" stroke-miterlimit="10" fill="none"/><path d="M135.918 109.04l19.812 1.897" stroke-width="1.2" stroke="#000" stroke-miterlimit="10" fill="none"/><path d="M127.656 90.93l5.774-8.106" stroke-width="1.2" stroke="#f00" stroke-miterlimit="10" fill="none"/><path d="M133.43 82.824l5.777-8.105" stroke-width="1.2" stroke="#000" stroke-miterlimit="10" fill="none"/><path d="M123.656 85.43h8v11h-8zm0 0" fill="#fff"/><use xlink:href="#e" x="123.656" y="94.093" fill="#f00"/><path d="M155.73 110.938l8.266 18.105M152.297 114.69l6.61 14.49M163.996 129.043l9.906.95" stroke-width="1.2" stroke="#000" stroke-miterlimit="10" fill="none"/><path d="M173.902 129.992l9.907.95M183.81 130.94l5.772-8.104" stroke-width="1.2" stroke="#f00" stroke-miterlimit="10" fill="none"/><path d="M189.582 122.836l5.777-8.102" stroke-width="1.2" stroke="#000" stroke-miterlimit="10" fill="none"/><path d="M179.81 125.44h8v11h-8zm0 0" fill="#fff"/><use xlink:href="#e" x="179.809" y="134.104" fill="#f00"/><path d="M121.078 159.566l-19.812-1.898M119.547 154.715l-15.852-1.52M101.266 157.668l-11.55 16.21M89.715 173.88l-19.813-1.9M87.29 178.352l-15.853-1.52M97.977 191.988l-8.262-18.11M69.902 171.98l-11.55 16.21M58.352 188.19l8.26 18.107M63.438 188.055l6.61 14.488M66.613 206.297l-5.773 8.105" stroke-width="1.2" stroke="#000" stroke-miterlimit="10" fill="none"/><path d="M60.84 214.402l-5.778 8.106" stroke-width="1.2" stroke="#f00" stroke-miterlimit="10" fill="none"/><path d="M66.613 206.297l19.817 1.898" stroke-width="1.2" stroke="#000" stroke-miterlimit="10" fill="none"/><path d="M55.063 222.508l-9.907-.95" stroke-width="1.2" stroke="#f00" stroke-miterlimit="10" fill="none"/><path d="M45.156 221.56l-9.906-.95" stroke-width="1.2" stroke="#000" stroke-miterlimit="10" fill="none"/><path d="M51.063 217.008h8v11h-8zm0 0" fill="#fff"/><use xlink:href="#e" x="51.063" y="225.671" fill="#f00"/><path d="M86.43 208.195l11.547-16.207M83.77 203.86l9.238-12.97" stroke-width="1.2" stroke="#000" stroke-miterlimit="10" fill="none"/></g></svg>