<svg xmlns="http://www.w3.org/2000/svg" xmlns:xlink="http://www.w3.org/1999/xlink" width="300pt" height="300pt" viewBox="0 0 300 300"><defs><symbol overflow="visible"><path d="M.453 1.594v-7.938h4.5v7.938zm.5-.5h3.5v-6.938h-3.5zm0 0"/></symbol><symbol overflow="visible" id="a"><path d="M3.547-5.953c-.65 0-1.164.242-1.547.72-.375.48-.563 1.13-.563 1.952 0 .835.188 1.49.563 1.967.383.48.898.72 1.547.72.644 0 1.156-.24 1.53-.72.376-.476.564-1.132.564-1.968 0-.822-.187-1.474-.562-1.954-.375-.477-.887-.72-1.53-.72zm0-.734c.914 0 1.648.312 2.203.937.55.617.828 1.438.828 2.47 0 1.042-.277 1.87-.828 2.483-.555.617-1.29.922-2.203.922-.93 0-1.668-.305-2.22-.922C.774-1.41.5-2.237.5-3.28c0-1.033.273-1.853.828-2.47.55-.625 1.29-.938 2.22-.938zm0 0"/></symbol><symbol overflow="visible" id="b"><path d="M.89-6.563H2.08l2.906 5.485v-5.484h.86V0H4.656L1.75-5.484V0H.89zm0 0"/></symbol></defs><g><path fill="#fff" d="M0 0h300v300H0z"/><path d="M163.594 97.656l-5.696-9.062" stroke-width="1.2" stroke="#f00" stroke-miterlimit="10" fill="none"/><path d="M157.898 88.594l-5.7-9.06" stroke-width="1.2" stroke="#000" stroke-miterlimit="10" fill="none"/><path d="M163.594 97.656l10.695-.406" stroke-width="1.2" stroke="#f00" stroke-miterlimit="10" fill="none"/><path d="M174.29 97.25l10.694-.402" stroke-width="1.2" stroke="#000" stroke-miterlimit="10" fill="none"/><path d="M159.594 92.156h8v11h-8zm0 0" fill="#fff"/><use xlink:href="#a" x="159.594" y="100.819" fill="#f00"/><path d="M184.984 96.848l9.996-18.93M190.438 97.31l8-15.146M196.38 114.97l-11.396-18.122M194.98 77.918l21.39-.805M216.37 77.113l5-9.465" stroke-width="1.2" stroke="#000" stroke-miterlimit="10" fill="none"/><path d="M221.37 67.648l4.997-9.464" stroke-width="1.2" stroke="#f00" stroke-miterlimit="10" fill="none"/><path d="M216.37 77.113l11.396 18.12M213.25 81.605l9.113 14.497" stroke-width="1.2" stroke="#000" stroke-miterlimit="10" fill="none"/><path d="M226.367 58.184l10.696-.407" stroke-width="1.2" stroke="#f00" stroke-miterlimit="10" fill="none"/><path d="M237.063 57.777l10.695-.402" stroke-width="1.2" stroke="#000" stroke-miterlimit="10" fill="none"/><path d="M222.367 52.684h8v11h-8zm0 0" fill="#fff"/><use xlink:href="#a" x="222.367" y="61.347" fill="#f00"/><path d="M227.766 95.234l-9.993 18.926M217.773 114.16l11.395 18.12M217.773 114.16l-21.394.81M215.44 109.21l-17.112.645M229.168 132.28l-9.996 18.93M223.715 131.824l-8 15.14M219.172 151.21l11.394 18.122M230.566 169.332l-9.996 18.93M234.02 173.578l-7.997 15.14M251.957 168.523l-21.39.81M220.57 188.262l11.395 18.12M231.965 206.383l21.39-.81M233.914 201.27l17.113-.65M253.355 205.574l5.696 9.063" stroke-width="1.2" stroke="#000" stroke-miterlimit="10" fill="none"/><path d="M259.05 214.637l5.7 9.058" stroke-width="1.2" stroke="#f00" stroke-miterlimit="10" fill="none"/><path d="M253.355 205.574l9.997-18.93" stroke-width="1.2" stroke="#000" stroke-miterlimit="10" fill="none"/><path d="M264.75 223.695l-4.996 9.465" stroke-width="1.2" stroke="#f00" stroke-miterlimit="10" fill="none"/><path d="M259.754 233.16l-5 9.465" stroke-width="1.2" stroke="#000" stroke-miterlimit="10" fill="none"/><path d="M260.75 218.195h8v11h-8zm0 0" fill="#fff"/><use xlink:href="#a" x="260.75" y="226.858" fill="#f00"/><path d="M263.352 186.645l-11.395-18.122M257.95 187.516l-9.118-14.496M196.38 114.97l-9.997 18.928M186.383 133.898l-21.39.81M184.055 128.945l-17.114.65M164.992 134.707l-9.996 18.926M152.867 154.977l5.696 9.058" stroke-width="1.2" stroke="#000" stroke-miterlimit="10" fill="none"/><path d="M158.563 164.035l5.7 9.063" stroke-width="1.2" stroke="#f00" stroke-miterlimit="10" fill="none"/><path d="M157.13 152.293l5.698 9.062" stroke-width="1.2" stroke="#000" stroke-miterlimit="10" fill="none"/><path d="M162.828 161.355l5.695 9.06" stroke-width="1.2" stroke="#f00" stroke-miterlimit="10" fill="none"/><path d="M154.996 153.633l-10.695.406" stroke-width="1.2" stroke="#000" stroke-miterlimit="10" fill="none"/><path d="M144.3 154.04l-10.695.4" stroke-width="1.2" stroke="#00f" stroke-miterlimit="10" fill="none"/><path d="M162.395 166.254h8v11h-8zm0 0" fill="#fff"/><use xlink:href="#a" x="162.395" y="174.917" fill="#f00"/><path d="M133.605 154.44l-4.996 9.466" stroke-width="1.2" stroke="#00f" stroke-miterlimit="10" fill="none"/><path d="M128.61 163.906l-5 9.465" stroke-width="1.2" stroke="#000" stroke-miterlimit="10" fill="none"/><path d="M133.605 154.44l-5.695-9.057" stroke-width="1.2" stroke="#00f" stroke-miterlimit="10" fill="none"/><path d="M127.91 145.383l-5.7-9.063" stroke-width="1.2" stroke="#000" stroke-miterlimit="10" fill="none"/><path d="M130.605 148.94h7v11h-7zm0 0" fill="#fff"/><use xlink:href="#b" x="130.605" y="157.604" fill="#00f"/><path d="M123.61 173.37l-21.39.81M102.22 174.18l-9.997 18.93M92.223 193.11l-21.39.804M70.832 193.914l-9.996 18.93M60.836 212.844l-21.39.808M122.21 136.32l-21.39.81M100.82 137.13l-11.394-18.122M89.426 119.008l-21.39.808M68.035 119.816l-11.394-18.12M56.64 101.695l-21.39.805" stroke-width="1.2" stroke="#000" stroke-miterlimit="10" fill="none"/></g></svg>