<svg xmlns="http://www.w3.org/2000/svg" xmlns:xlink="http://www.w3.org/1999/xlink" width="300pt" height="300pt" viewBox="0 0 300 300"><defs><symbol overflow="visible"><path d="M.453 1.594v-7.938h4.5v7.938zm.5-.5h3.5v-6.938h-3.5zm0 0"/></symbol><symbol overflow="visible" id="a"><path d="M4.813-6.344v.86c-.336-.157-.653-.27-.954-.344-.294-.082-.58-.125-.86-.125-.492 0-.867.094-1.125.28-.262.19-.39.454-.39.798 0 .293.085.512.265.656.176.15.504.267.984.36l.547.11c.658.125 1.142.352 1.454.672.32.312.485.734.485 1.265 0 .637-.216 1.122-.642 1.454-.43.325-1.055.485-1.875.485-.312 0-.648-.04-1-.11C1.36-.046 1-.147.625-.296v-.906c.352.2.703.35 1.047.453.35.105.695.156 1.03.156.5 0 .884-.097 1.157-.297.28-.196.42-.485.42-.86 0-.32-.1-.57-.296-.75-.2-.176-.523-.313-.968-.406l-.547-.11C1.81-3.148 1.33-3.36 1.03-3.64.74-3.923.595-4.313.595-4.813c0-.57.203-1.024.61-1.36.405-.344.968-.516 1.687-.516.313 0 .626.032.938.094.32.055.65.137.985.25zm0 0"/></symbol><symbol overflow="visible" id="b"><path d="M3.547-5.953c-.65 0-1.164.242-1.547.72-.375.48-.563 1.13-.563 1.952 0 .835.188 1.49.563 1.967.383.48.898.72 1.547.72.644 0 1.156-.24 1.53-.72.376-.476.564-1.132.564-1.968 0-.822-.187-1.474-.562-1.954-.375-.477-.887-.72-1.53-.72zm0-.734c.914 0 1.648.312 2.203.937.55.617.828 1.438.828 2.47 0 1.042-.277 1.87-.828 2.483-.555.617-1.29.922-2.203.922-.93 0-1.668-.305-2.22-.922C.774-1.41.5-2.237.5-3.28c0-1.033.273-1.853.828-2.47.55-.625 1.29-.938 2.22-.938zm0 0"/></symbol><symbol overflow="visible" id="c"><path d="M.89-6.563H2.08l2.906 5.485v-5.484h.86V0H4.656L1.75-5.484V0H.89zm0 0"/></symbol><symbol overflow="visible" id="f"><path d="M.89-6.563h3.766v.75h-2.89v1.938h2.61v.734h-2.61V0H.89zm0 0"/></symbol><symbol overflow="visible"><path d="M.406 1.422V-5.64h4V1.42zM.844.97h3.11v-6.157H.843zm0 0"/></symbol><symbol overflow="visible" id="d"><path d="M3.688-5.016v2.172h2.17v.672H3.69V0H3.03v-2.172H.845v-.672H3.03v-2.172zm0 0"/></symbol><symbol overflow="visible" id="e"><path d="M.39-2.516H2.5v.64H.39zm0 0"/></symbol></defs><g><path fill="#fff" d="M0 0h300v300H0z"/><path d="M48.402 207.55l7.266 5.852" stroke-width="1.2" stroke="#cc0" stroke-miterlimit="10" fill="none"/><path d="M55.668 213.402l7.262 5.848" stroke-width="1.2" stroke="#f00" stroke-miterlimit="10" fill="none"/><path d="M51.156 204.133l7.262 5.85" stroke-width="1.2" stroke="#cc0" stroke-miterlimit="10" fill="none"/><path d="M58.418 209.984l7.266 5.848" stroke-width="1.2" stroke="#f00" stroke-miterlimit="10" fill="none"/><path d="M51.156 204.133l-7.265-5.848" stroke-width="1.2" stroke="#cc0" stroke-miterlimit="10" fill="none"/><path d="M43.89 198.285l-7.265-5.847" stroke-width="1.2" stroke="#f00" stroke-miterlimit="10" fill="none"/><path d="M48.402 207.55l-7.265-5.847" stroke-width="1.2" stroke="#cc0" stroke-miterlimit="10" fill="none"/><path d="M41.137 201.703l-7.262-5.848" stroke-width="1.2" stroke="#f00" stroke-miterlimit="10" fill="none"/><path d="M49.777 205.844l-5.847 7.265" stroke-width="1.2" stroke="#cc0" stroke-miterlimit="10" fill="none"/><path d="M43.93 213.11l-5.848 7.26" stroke-width="1.2" stroke="#000" stroke-miterlimit="10" fill="none"/><path d="M49.777 205.844l5.852-7.266" stroke-width="1.2" stroke="#cc0" stroke-miterlimit="10" fill="none"/><path d="M55.63 198.578l5.847-7.262" stroke-width="1.2" stroke="#000" stroke-miterlimit="10" fill="none"/><path d="M46.777 200.344h6v11h-6zm0 0" fill="#fff"/><use xlink:href="#a" x="46.777" y="209.007" fill="#cc0"/><path d="M60.31 212.04h8v11h-8zm0 0" fill="#fff"/><use xlink:href="#b" x="60.309" y="220.702" fill="#f00"/><path d="M27.25 188.645h8v11h-8zm0 0" fill="#fff"/><use xlink:href="#b" x="27.25" y="197.308" fill="#f00"/><path d="M61.477 191.316l-6.735-17.394M64.895 187.992l-5.387-13.918M79.906 194.18l-18.43-2.864M54.742 173.922l11.696-14.53M66.438 159.39l18.433 2.868M67.61 164.016l14.742 2.293M84.87 162.258l6.732 17.394M84.87 162.258l11.696-14.528M91.602 179.652L79.906 194.18M87.016 178.352l-9.36 11.625M96.566 147.73l-2.437-9.003" stroke-width="1.2" stroke="#000" stroke-miterlimit="10" fill="none"/><path d="M94.13 138.727l-2.442-9" stroke-width="1.2" stroke="#00f" stroke-miterlimit="10" fill="none"/><path d="M115.195 148.652l-18.63-.922M113.55 144.176l-14.902-.738" stroke-width="1.2" stroke="#000" stroke-miterlimit="10" fill="none"/><path d="M91.688 129.727l7.808-5.102" stroke-width="1.2" stroke="#00f" stroke-miterlimit="10" fill="none"/><path d="M99.496 124.625l7.81-5.102" stroke-width="1.2" stroke="#000" stroke-miterlimit="10" fill="none"/><path d="M91.688 129.727l-8.715-3.317" stroke-width="1.2" stroke="#00f" stroke-miterlimit="10" fill="none"/><path d="M82.973 126.41l-8.715-3.32" stroke-width="1.2" stroke="#000" stroke-miterlimit="10" fill="none"/><path d="M88.688 124.227h7v11h-7zm0 0" fill="#fff"/><use xlink:href="#c" x="88.688" y="132.89" fill="#00f"/><path d="M107.305 119.523l.922-18.628M107.305 119.523l14.527 11.7M106.004 124.113l11.62 9.356M121.832 131.223l-6.637 17.43M121.832 131.223l18.004-4.88M139.836 126.344l13.223 13.152M153.06 139.496l9.002-2.44" stroke-width="1.2" stroke="#000" stroke-miterlimit="10" fill="none"/><path d="M162.063 137.055l9-2.438M171.063 134.617l6.613 6.574" stroke-width="1.2" stroke="#f00" stroke-miterlimit="10" fill="none"/><path d="M177.676 141.19l6.613 6.58" stroke-width="1.2" stroke="#000" stroke-miterlimit="10" fill="none"/><path d="M167.063 129.117h8v11h-8zm0 0" fill="#fff"/><use xlink:href="#b" x="167.063" y="137.78" fill="#f00"/><path d="M184.29 147.77l18.003-4.88M202.293 142.89l13.227 13.153M215.52 156.043l9-2.44" stroke-width="1.2" stroke="#000" stroke-miterlimit="10" fill="none"/><path d="M224.52 153.602l9-2.438M233.52 151.164l6.613 6.574" stroke-width="1.2" stroke="#f00" stroke-miterlimit="10" fill="none"/><path d="M240.133 157.738l6.613 6.578" stroke-width="1.2" stroke="#00f" stroke-miterlimit="10" fill="none"/><path d="M229.52 145.664h8v11h-8zm0 0" fill="#fff"/><use xlink:href="#b" x="229.52" y="154.327" fill="#f00"/><path d="M244.625 163.754l-2.387 9.012" stroke-width="1.2" stroke="#00f" stroke-miterlimit="10" fill="none"/><path d="M242.238 172.766l-2.39 9.015" stroke-width="1.2" stroke="#f00" stroke-miterlimit="10" fill="none"/><path d="M248.867 164.875l-2.387 9.016" stroke-width="1.2" stroke="#00f" stroke-miterlimit="10" fill="none"/><path d="M246.48 173.89l-2.39 9.016" stroke-width="1.2" stroke="#f00" stroke-miterlimit="10" fill="none"/><path d="M246.746 164.316l9.004-2.44" stroke-width="1.2" stroke="#00f" stroke-miterlimit="10" fill="none"/><path d="M255.75 161.875l9-2.438" stroke-width="1.2" stroke="#f00" stroke-miterlimit="10" fill="none"/><path d="M239.746 156.816h14v15h-14zm0 0" fill="#fff"/><use xlink:href="#c" x="239.746" y="168.918" fill="#00f"/><use xlink:href="#d" x="246.724" y="164.035" fill="#00f"/><path d="M237.97 176.844h8v11h-8zm0 0" fill="#fff"/><use xlink:href="#b" x="237.969" y="185.507" fill="#f00"/><path d="M259.75 151.938h11v15h-11zm0 0" fill="#fff"/><use xlink:href="#b" x="259.75" y="164.039" fill="#f00"/><use xlink:href="#e" x="267.092" y="159.156" fill="#f00"/><path d="M74.258 123.09l-2.973-18.414M69.63 121.95l-2.38-14.73M59.793 134.87l14.465-11.78M71.285 104.676l-17.43-6.633M53.855 98.043l-1.484-9.207" stroke-width="1.2" stroke="#000" stroke-miterlimit="10" fill="none"/><path d="M52.37 88.836l-1.483-9.207" stroke-width="1.2" stroke="#3cc" stroke-miterlimit="10" fill="none"/><path d="M53.855 98.043l-14.46 11.777M55.18 102.625l-11.57 9.422" stroke-width="1.2" stroke="#000" stroke-miterlimit="10" fill="none"/><path d="M47.887 74.13h6v11h-6zm0 0" fill="#fff"/><use xlink:href="#f" x="47.887" y="82.792" fill="#3cc"/><path d="M39.395 109.82l2.968 18.414M42.363 128.234l17.43 6.637M45.668 124.797l13.945 5.308" stroke-width="1.2" stroke="#000" stroke-miterlimit="10" fill="none"/></g></svg>