<svg xmlns="http://www.w3.org/2000/svg" xmlns:xlink="http://www.w3.org/1999/xlink" width="300pt" height="300pt" viewBox="0 0 300 300"><defs><symbol overflow="visible"><path d="M.547 1.938V-7.75h5.5v9.688zm.625-.61h4.266v-8.47H1.171zm0 0"/></symbol><symbol overflow="visible" id="a"><path d="M4.328-7.28c-.78 0-1.406.296-1.875.89-.46.585-.687 1.382-.687 2.39 0 1.012.226 1.813.687 2.406.47.586 1.094.875 1.875.875.79 0 1.414-.288 1.875-.874.457-.593.688-1.394.688-2.406 0-1.008-.23-1.805-.687-2.39-.46-.594-1.086-.89-1.875-.89zm0-.892c1.125 0 2.024.383 2.703 1.14C7.708-6.28 8.048-5.27 8.048-4c0 1.262-.34 2.273-1.016 3.03C6.353-.22 5.454.157 4.33.157S2.3-.22 1.625-.97c-.668-.75-1-1.757-1-3.03 0-1.27.332-2.28 1-3.03.676-.76 1.578-1.142 2.703-1.142zm0 0"/></symbol><symbol overflow="visible" id="b"><path d="M1.078-8.016h1.47l3.546 6.704v-6.704h1.062V0H5.688L2.124-6.703V0H1.078zm0 0"/></symbol></defs><g><path fill="#fff" d="M0 0h300v300H0z"/><path d="M264.75 219.938l-10.434-26.7M254.316 193.238l-28.34-4.316M225.977 188.922l-10.434-26.7M218.648 188.707l-8.343-21.36M208.07 211.31l17.907-22.388M215.543 162.223l17.906-22.387" stroke-width="1.2" stroke="#000" stroke-miterlimit="10" fill="none"/><path d="M187.203 157.91m2.84.957l.156-1.03m2.687 1.99l.312-2.06m2.527 3.022l.472-3.095m2.37 4.055l.63-4.125m2.214 5.082l.785-5.152m2.054 6.113l.94-6.184m1.904 7.145l1.097-7.216m1.746 8.176l1.255-8.246m1.586 9.207l1.415-9.28m.586 9.953l1.525-10" stroke="#000" stroke-miterlimit="10" fill="none"/><path d="M233.45 139.836l-10.434-26.7" stroke-width="1.2" stroke="#000" stroke-miterlimit="10" fill="none"/><path d="M194.676 108.82m2.84.96l.156-1.03m2.687 1.992l.312-2.062m2.527 3.023l.472-3.094m2.37 4.05l.63-4.12m2.215 5.08l.785-5.15m2.055 6.112l.94-6.184m1.903 7.145l1.098-7.22m1.746 8.177l1.254-8.246m1.586 9.207l1.414-9.276m.586 9.953l1.523-10.004" stroke="#000" stroke-miterlimit="10" fill="none"/><path d="M194.676 108.82l-17.906 22.387M178.918 84.875l15.758 23.945M176.77 131.207l10.433 26.703" stroke-width="1.2" stroke="#000" stroke-miterlimit="10" fill="none"/><path d="M176.77 131.207m-2.583-1.527l-.367.972m-2.215-2.504l-.734 1.95m-1.843-3.48l-1.105 2.925m-1.477-4.457l-1.472 3.906m-1.106-5.433l-1.84 4.877m-.742-6.41l-2.207 5.856m-.375-7.387l-2.574 6.832m-.005-8.36l-2.945 7.805m.363-9.335l-3.31 8.78m1.494-9.855l-3.567 9.465" stroke="#000" stroke-miterlimit="10" fill="none"/><path d="M187.203 157.91l-17.906 22.383M169.297 180.293l-28.62 1.676" stroke-width="1.2" stroke="#000" stroke-miterlimit="10" fill="none"/><path d="M169.297 180.293l-8.676-27.785-8.987 4.648zm0 0"/><path d="M179.73 206.996l-5.218-13.35" stroke-width="1.2" stroke="#00f" stroke-miterlimit="10" fill="none"/><path d="M174.512 193.645l-5.215-13.352M142.69 179.262l-9.315-6.93" stroke-width="1.2" stroke="#000" stroke-miterlimit="10" fill="none"/><path d="M133.375 172.332l-9.313-6.934" stroke-width="1.2" stroke="#f00" stroke-miterlimit="10" fill="none"/><path d="M138.664 184.672l-9.316-6.93" stroke-width="1.2" stroke="#000" stroke-miterlimit="10" fill="none"/><path d="M129.348 177.742l-9.313-6.93" stroke-width="1.2" stroke="#f00" stroke-miterlimit="10" fill="none"/><path d="M140.676 181.97l-3.625 13.866" stroke-width="1.2" stroke="#000" stroke-miterlimit="10" fill="none"/><path d="M137.05 195.836l-3.624 13.863" stroke-width="1.2" stroke="#00f" stroke-miterlimit="10" fill="none"/><path d="M113.047 161.605h9v13h-9zm0 0" fill="#fff"/><use xlink:href="#a" x="113.047" y="171.507" fill="#f00"/><path d="M133.426 209.7l12.066 7.734" stroke-width="1.2" stroke="#00f" stroke-miterlimit="10" fill="none"/><path d="M145.492 217.434l12.067 7.734" stroke-width="1.2" stroke="#000" stroke-miterlimit="10" fill="none"/><path d="M133.426 209.7l-13.352 5.218" stroke-width="1.2" stroke="#00f" stroke-miterlimit="10" fill="none"/><path d="M120.074 214.918l-13.35 5.22" stroke-width="1.2" stroke="#000" stroke-miterlimit="10" fill="none"/><path d="M129.426 203.2h8v13h-8zm0 0" fill="#fff"/><use xlink:href="#b" x="129.426" y="213.101" fill="#00f"/><path d="M154.19 225.367l.837 14.31" stroke-width="1.2" stroke="#000" stroke-miterlimit="10" fill="none"/><path d="M155.027 239.676l.836 14.308" stroke-width="1.2" stroke="#f00" stroke-miterlimit="10" fill="none"/><path d="M160.926 224.973l.836 14.308" stroke-width="1.2" stroke="#000" stroke-miterlimit="10" fill="none"/><path d="M161.762 239.28l.836 14.31" stroke-width="1.2" stroke="#f00" stroke-miterlimit="10" fill="none"/><path d="M157.56 225.168l11.085-9.086" stroke-width="1.2" stroke="#000" stroke-miterlimit="10" fill="none"/><path d="M168.645 216.082l11.085-9.086" stroke-width="1.2" stroke="#00f" stroke-miterlimit="10" fill="none"/><path d="M155.23 247.29h9v13h-9zm0 0" fill="#fff"/><use xlink:href="#a" x="155.23" y="257.19" fill="#f00"/><path d="M179.73 206.996l14.168 2.156" stroke-width="1.2" stroke="#00f" stroke-miterlimit="10" fill="none"/><path d="M193.898 209.152l14.172 2.157" stroke-width="1.2" stroke="#000" stroke-miterlimit="10" fill="none"/><path d="M175.73 200.496h8v13h-8zm0 0" fill="#fff"/><use xlink:href="#b" x="175.73" y="210.397" fill="#00f"/><path d="M204.93 212.54l5.215 13.347" stroke-width="1.2" stroke="#000" stroke-miterlimit="10" fill="none"/><path d="M210.145 225.887l5.218 13.35" stroke-width="1.2" stroke="#f00" stroke-miterlimit="10" fill="none"/><path d="M211.21 210.082l5.216 13.352" stroke-width="1.2" stroke="#000" stroke-miterlimit="10" fill="none"/><path d="M216.426 223.434l5.22 13.347" stroke-width="1.2" stroke="#f00" stroke-miterlimit="10" fill="none"/><path d="M214.504 231.512h9v13h-9zm0 0" fill="#fff"/><use xlink:href="#a" x="214.504" y="241.413" fill="#f00"/><path d="M106.723 220.137l-22.387-17.91M84.336 202.227l4.316-28.34M78.102 198.38l3.45-22.673M57.637 212.664l26.7-10.437M88.652 173.887L66.266 155.98M66.266 155.98l-26.704 10.434M66.05 163.31l-21.36 8.346M39.563 166.414l-4.313 28.34M35.25 194.754l22.387 17.91M41.703 191.277l17.906 14.328M156.13 154.832l-28.638-1.328M127.492 153.504l-13.168-25.465M120.184 154.055l-10.536-20.37M112.023 177.637l15.47-24.133M114.324 128.04l-28.636-1.33M85.688 126.71l-15.47 24.138M89.82 132.762L77.445 152.07M70.22 150.848l13.167 25.46M83.387 176.31l28.636 1.327M86.563 169.703l22.91 1.063M148.828 117.914L135.3 122.66" stroke-width="1.2" stroke="#000" stroke-miterlimit="10" fill="none"/><path d="M135.3 122.66l-13.523 4.746" stroke-width="1.2" stroke="#f00" stroke-miterlimit="10" fill="none"/><path d="M151.063 124.277l-13.528 4.746" stroke-width="1.2" stroke="#000" stroke-miterlimit="10" fill="none"/><path d="M137.535 129.023l-13.523 4.75" stroke-width="1.2" stroke="#f00" stroke-miterlimit="10" fill="none"/><path d="M149.945 121.094l.664-14.317" stroke-width="1.2" stroke="#000" stroke-miterlimit="10" fill="none"/><path d="M150.61 106.777l.663-14.316" stroke-width="1.2" stroke="#00f" stroke-miterlimit="10" fill="none"/><path d="M113.895 124.09h9v13h-9zm0 0" fill="#fff"/><use xlink:href="#a" x="113.895" y="133.991" fill="#f00"/><path d="M151.273 92.46l13.82-3.792" stroke-width="1.2" stroke="#00f" stroke-miterlimit="10" fill="none"/><path d="M165.094 88.668l13.824-3.793" stroke-width="1.2" stroke="#000" stroke-miterlimit="10" fill="none"/><path d="M151.273 92.46l-11.195-8.952" stroke-width="1.2" stroke="#00f" stroke-miterlimit="10" fill="none"/><path d="M140.078 83.508l-11.19-8.953" stroke-width="1.2" stroke="#000" stroke-miterlimit="10" fill="none"/><path d="M147.273 85.96h8v13h-8zm0 0" fill="#fff"/><use xlink:href="#b" x="147.273" y="95.862" fill="#00f"/><path d="M182.074 86.063l5.055-13.41" stroke-width="1.2" stroke="#000" stroke-miterlimit="10" fill="none"/><path d="M187.13 72.652l5.054-13.414" stroke-width="1.2" stroke="#f00" stroke-miterlimit="10" fill="none"/><path d="M175.762 83.684l5.054-13.41" stroke-width="1.2" stroke="#000" stroke-miterlimit="10" fill="none"/><path d="M180.816 70.273l5.06-13.414" stroke-width="1.2" stroke="#f00" stroke-miterlimit="10" fill="none"/><path d="M185.03 51.55h9v13h-9zm0 0" fill="#fff"/><use xlink:href="#a" x="185.031" y="61.452" fill="#f00"/><path d="M128.887 74.555L133.2 46.21" stroke-width="1.2" stroke="#000" stroke-miterlimit="10" fill="none"/></g></svg>