<svg xmlns="http://www.w3.org/2000/svg" xmlns:xlink="http://www.w3.org/1999/xlink" width="300pt" height="300pt" viewBox="0 0 300 300"><defs><symbol overflow="visible"><path d="M.453 1.594v-7.938h4.5v7.938zm.5-.5h3.5v-6.938h-3.5zm0 0"/></symbol><symbol overflow="visible" id="a"><path d="M.89-6.563H2.08l2.906 5.485v-5.484h.86V0H4.656L1.75-5.484V0H.89zm0 0"/></symbol><symbol overflow="visible" id="b"><path d="M1.766-5.828v2.47H2.89c.407 0 .723-.11.954-.33.226-.218.344-.52.344-.906 0-.394-.118-.695-.344-.906-.23-.22-.547-.328-.953-.328zM.89-6.562h2c.727 0 1.282.167 1.657.5.383.335.578.824.578 1.468 0 .65-.195 1.137-.578 1.47-.375.323-.93.483-1.656.483H1.767V0H.89zm0 0"/></symbol><symbol overflow="visible" id="c"><path d="M3.547-5.953c-.65 0-1.164.242-1.547.72-.375.48-.563 1.13-.563 1.952 0 .835.188 1.49.563 1.967.383.48.898.72 1.547.72.644 0 1.156-.24 1.53-.72.376-.476.564-1.132.564-1.968 0-.822-.187-1.474-.562-1.954-.375-.477-.887-.72-1.53-.72zm0-.734c.914 0 1.648.312 2.203.937.55.617.828 1.438.828 2.47 0 1.042-.277 1.87-.828 2.483-.555.617-1.29.922-2.203.922-.93 0-1.668-.305-2.22-.922C.774-1.41.5-2.237.5-3.28c0-1.033.273-1.853.828-2.47.55-.625 1.29-.938 2.22-.938zm0 0"/></symbol><symbol overflow="visible" id="d"><path d="M5.797-6.063v.938c-.305-.27-.625-.473-.97-.61-.335-.144-.686-.218-1.06-.218-.75 0-1.33.23-1.736.687-.397.46-.592 1.12-.592 1.985 0 .866.195 1.526.593 1.983.408.46.986.688 1.736.688.375 0 .726-.066 1.062-.203.344-.132.664-.343.97-.625V-.5c-.314.21-.642.367-.986.47-.343.1-.714.155-1.11.155-.99 0-1.772-.3-2.343-.906C.784-1.396.5-2.228.5-3.28c0-1.052.285-1.88.86-2.486.57-.613 1.35-.92 2.343-.92.395-.002.766.053 1.11.155.35.104.68.26.984.468zm0 0"/></symbol><symbol overflow="visible" id="e"><path d="M.844-6.844h.812V0H.844zm0 0"/></symbol></defs><g><path fill="#fff" d="M0 0h300v300H0z"/><path d="M164.875 144.836m1.59 2.543l.773-.696m.817 3.242l1.55-1.4m.04 3.943l2.324-2.095m-.736 4.637l3.098-2.79m-1.508 5.337l3.87-3.49m-2.284 6.032l4.653-4.188m-3.063 6.73l5.426-4.882m-4.473 6.41l5.887-5.305" stroke="#000" stroke-miterlimit="10" fill="none"/><path d="M200.406 152.39l-10.254 4.563" stroke-width="1.2" stroke="#00f" stroke-miterlimit="10" fill="none"/><path d="M190.152 156.953l-10.254 4.567M164.875 144.836l-21.957-4.668M176.102 125.395l-11.227 19.44M142.918 140.168l2.13-21.375M142.918 140.168l-16.684 15.02M145.047 118.793l12.226 18.828M145.047 118.793l-21.96-4.672M163.875 106.566l-18.828 12.227M157.273 137.62l18.83-12.225M176.102 125.395l-12.227-18.83M176.102 125.395l21.96 4.668M198.063 130.063l1.17 11.164" stroke-width="1.2" stroke="#000" stroke-miterlimit="10" fill="none"/><path d="M199.234 141.227l1.172 11.164" stroke-width="1.2" stroke="#00f" stroke-miterlimit="10" fill="none"/><path d="M198.063 130.063l19.332-12.08-5.3-5.885zm0 0"/><path d="M200.406 152.39l9.723 5.61" stroke-width="1.2" stroke="#00f" stroke-miterlimit="10" fill="none"/><path d="M210.13 158l9.718 5.613" stroke-width="1.2" stroke="#ff7f00" stroke-miterlimit="10" fill="none"/><path d="M197.406 146.89h7v11h-7zm0 0" fill="#fff"/><use xlink:href="#a" x="197.406" y="155.554" fill="#00f"/><path d="M218.527 165.902l9.723 5.614" stroke-width="1.2" stroke="#ff7f00" stroke-miterlimit="10" fill="none"/><path d="M228.25 171.516l9.72 5.613" stroke-width="1.2" stroke="#f00" stroke-miterlimit="10" fill="none"/><path d="M221.168 161.328l9.723 5.613" stroke-width="1.2" stroke="#ff7f00" stroke-miterlimit="10" fill="none"/><path d="M230.89 166.94l9.72 5.61" stroke-width="1.2" stroke="#f00" stroke-miterlimit="10" fill="none"/><path d="M219.848 163.613l-5.614 9.723" stroke-width="1.2" stroke="#ff7f00" stroke-miterlimit="10" fill="none"/><path d="M214.234 173.336l-5.61 9.72" stroke-width="1.2" stroke="#000" stroke-miterlimit="10" fill="none"/><path d="M219.848 163.613l5.613-9.718" stroke-width="1.2" stroke="#ff7f00" stroke-miterlimit="10" fill="none"/><path d="M225.46 153.895l5.614-9.723" stroke-width="1.2" stroke="#000" stroke-miterlimit="10" fill="none"/><path d="M216.848 158.113h6v11h-6zm0 0" fill="#fff"/><use xlink:href="#b" x="216.848" y="166.776" fill="#ff7f00"/><path d="M235.29 169.34h8v11h-8zm0 0" fill="#fff"/><use xlink:href="#c" x="235.289" y="178.003" fill="#f00"/><path d="M208.625 183.055l11.223 19.445M205.172 187.64l8.976 15.555M186.172 183.055h22.453M219.848 202.5l-11.227 19.44M208.62 221.94h-22.448M206.38 216.66l-17.962-.004M186.172 221.94l-11.223-19.444M174.95 202.496l11.222-19.44M180.645 203.195l8.98-15.554M231.074 144.172l-11.222-19.442M234.527 139.586l-8.98-15.555M253.523 144.172h-22.45M219.852 124.73l11.222-19.44M231.074 105.29h22.453M233.32 110.57h17.96M253.527 105.29l11.223 19.44M264.75 124.73l-11.227 19.442M259.055 124.035l-8.98 15.55M214.746 115.04l-4.668-21.958M219.445 111.746L215.71 94.18M236.098 121.977l-21.352-6.938M210.078 93.082l16.684-15.023M226.762 78.06l21.35 6.936M227.266 83.777l17.078 5.55M248.113 84.996l4.668 21.96M252.78 106.957l-16.682 15.02M247.578 104.535L234.23 116.55M123.086 114.12l-6.938-21.347M117.37 113.62l-5.55-17.08M108.066 130.805l15.02-16.684M116.148 92.773l-21.957-4.67M94.19 88.102L79.17 104.785M96.613 93.305l-12.015 13.347M79.168 104.785l6.937 21.352M79.168 104.785l-21.957-4.668M86.105 126.137l21.96 4.668M89.398 121.438l17.57 3.734M57.21 100.117l-10.98-2.332" stroke-width="1.2" stroke="#000" stroke-miterlimit="10" fill="none"/><path d="M46.23 97.785L35.25 95.45" stroke-width="1.2" stroke="#00f" stroke-miterlimit="10" fill="none"/><path d="M56.113 94.484l-8.785-1.867" stroke-width="1.2" stroke="#000" stroke-miterlimit="10" fill="none"/><path d="M47.328 92.617l-8.785-1.867" stroke-width="1.2" stroke="#00f" stroke-miterlimit="10" fill="none"/><path d="M53.914 104.816l-8.78-1.867" stroke-width="1.2" stroke="#000" stroke-miterlimit="10" fill="none"/><path d="M45.133 102.95l-8.785-1.868" stroke-width="1.2" stroke="#00f" stroke-miterlimit="10" fill="none"/><path d="M28.25 89.95h7v11h-7zm0 0" fill="#fff"/><use xlink:href="#a" x="28.25" y="98.612" fill="#00f"/><path d="M126.234 155.188l-21.35-6.938M122.465 159.52l-17.082-5.55M130.898 177.148l-4.664-21.96M104.883 148.25l-8.344 7.512" stroke-width="1.2" stroke="#000" stroke-miterlimit="10" fill="none"/><path d="M96.54 155.762l-8.34 7.51M88.2 163.273l2.33 10.977" stroke-width="1.2" stroke="#00f" stroke-miterlimit="10" fill="none"/><path d="M90.53 174.25l2.333 10.98" stroke-width="1.2" stroke="#000" stroke-miterlimit="10" fill="none"/><path d="M93.832 164.37l1.867 8.782" stroke-width="1.2" stroke="#00f" stroke-miterlimit="10" fill="none"/><path d="M95.7 173.152l1.866 8.786" stroke-width="1.2" stroke="#000" stroke-miterlimit="10" fill="none"/><path d="M85.2 157.773h7v11h-7zm0 0" fill="#fff"/><use xlink:href="#a" x="85.199" y="166.437" fill="#00f"/><path d="M92.863 185.23l21.352 6.938M92.863 185.23l-8.34 7.512" stroke-width="1.2" stroke="#000" stroke-miterlimit="10" fill="none"/><path d="M84.523 192.742l-8.343 7.512" stroke-width="1.2" stroke="#0c0" stroke-miterlimit="10" fill="none"/><path d="M114.215 192.168l16.683-15.02M112.348 186.742l13.347-12.02" stroke-width="1.2" stroke="#000" stroke-miterlimit="10" fill="none"/><path d="M66.18 194.754h10v11h-10zm0 0" fill="#fff"/><g fill="#0c0"><use xlink:href="#d" x="66.18" y="203.417"/><use xlink:href="#e" x="72.693" y="203.417"/></g><path d="M249.527 101.29h8v8h-8zm0 0" stroke-width="1.2" stroke="#f00" stroke-miterlimit="10" fill="none"/></g></svg>