<svg xmlns="http://www.w3.org/2000/svg" xmlns:xlink="http://www.w3.org/1999/xlink" width="300pt" height="300pt" viewBox="0 0 300 300"><defs><symbol overflow="visible"><path d="M.453 1.594v-7.938h4.5v7.938zm.5-.5h3.5v-6.938h-3.5zm0 0"/></symbol><symbol overflow="visible" id="a"><path d="M3.547-5.953c-.65 0-1.164.242-1.547.72-.375.48-.563 1.13-.563 1.952 0 .835.188 1.49.563 1.967.383.48.898.72 1.547.72.644 0 1.156-.24 1.53-.72.376-.476.564-1.132.564-1.968 0-.822-.187-1.474-.562-1.954-.375-.477-.887-.72-1.53-.72zm0-.734c.914 0 1.648.312 2.203.937.55.617.828 1.438.828 2.47 0 1.042-.277 1.87-.828 2.483-.555.617-1.29.922-2.203.922-.93 0-1.668-.305-2.22-.922C.774-1.41.5-2.237.5-3.28c0-1.033.273-1.853.828-2.47.55-.625 1.29-.938 2.22-.938zm0 0"/></symbol><symbol overflow="visible" id="b"><path d="M.89-6.563H2.08l2.906 5.485v-5.484h.86V0H4.656L1.75-5.484V0H.89zm0 0"/></symbol><symbol overflow="visible" id="c"><path d="M5.797-6.063v.938c-.305-.27-.625-.473-.97-.61-.335-.144-.686-.218-1.06-.218-.75 0-1.33.23-1.736.687-.397.46-.592 1.12-.592 1.985 0 .866.195 1.526.593 1.983.408.46.986.688 1.736.688.375 0 .726-.066 1.062-.203.344-.132.664-.343.97-.625V-.5c-.314.21-.642.367-.986.47-.343.1-.714.155-1.11.155-.99 0-1.772-.3-2.343-.906C.784-1.396.5-2.228.5-3.28c0-1.052.285-1.88.86-2.486.57-.613 1.35-.92 2.343-.92.395-.002.766.053 1.11.155.35.104.68.26.984.468zm0 0"/></symbol><symbol overflow="visible" id="d"><path d="M.844-6.844h.812V0H.844zm0 0"/></symbol></defs><g><path fill="#fff" d="M0 0h300v300H0z"/><path d="M35.25 123.5l10.563-.777" stroke-width="1.2" stroke="#000" stroke-miterlimit="10" fill="none"/><path d="M45.813 122.723l10.562-.778M56.375 121.945l5.953 8.758" stroke-width="1.2" stroke="#f00" stroke-miterlimit="10" fill="none"/><path d="M62.328 130.703l5.953 8.758" stroke-width="1.2" stroke="#000" stroke-miterlimit="10" fill="none"/><path d="M52.375 116.445h8v11h-8zm0 0" fill="#fff"/><use xlink:href="#a" x="52.375" y="125.108" fill="#f00"/><path d="M66.04 138.38l-4.61 9.534" stroke-width="1.2" stroke="#000" stroke-miterlimit="10" fill="none"/><path d="M61.43 147.914l-4.606 9.535" stroke-width="1.2" stroke="#f00" stroke-miterlimit="10" fill="none"/><path d="M70.527 140.547l-4.61 9.535" stroke-width="1.2" stroke="#000" stroke-miterlimit="10" fill="none"/><path d="M65.918 150.082l-4.606 9.535" stroke-width="1.2" stroke="#f00" stroke-miterlimit="10" fill="none"/><path d="M68.28 139.46l21.126-1.554" stroke-width="1.2" stroke="#000" stroke-miterlimit="10" fill="none"/><path d="M51.066 153.035h8v11h-8zm0 0" fill="#fff"/><use xlink:href="#a" x="51.066" y="161.698" fill="#f00"/><path d="M89.406 137.906l9.215-19.07M94.816 138.168l7.37-15.258M101.316 155.422l-11.91-17.516M98.62 118.836l21.126-1.555M119.746 117.28l11.91 17.517M116.816 121.836l9.528 14.012M131.656 134.797l-9.22 19.07M131.656 134.797l21.12-1.555M122.438 153.867l-21.122 1.555M119.96 149.055l-16.897 1.242M152.777 133.242l16.04 13.84M166.617 117.207l-13.84 16.035M156.48 153.168l-3.703-19.926M168.816 147.082l13.836-16.04M182.652 131.043l-16.035-13.836M182.652 131.043l-5.047 20.57M203.777 129.488l-21.125 1.555M177.605 151.613l-21.125 1.555" stroke-width="1.2" stroke="#000" stroke-miterlimit="10" fill="none"/><path d="M177.605 151.613m2.235 2l.55-.886m1.688 2.886l1.098-1.773m1.137 3.773l1.648-2.66m.59 4.66l2.196-3.547m.04 5.547l2.745-4.433m-.507 6.433l3.297-5.32m-1.062 7.316l3.847-6.204m-3.468 6.543l3.94-6.352" stroke="#000" stroke-miterlimit="10" fill="none"/><path d="M156.48 153.168l-11.16 18.004M145.32 171.172l-21.172-.66M143.047 176.09l-16.934-.53M155.332 189.84l-10.012-18.668M124.148 170.512l-5.578 9" stroke-width="1.2" stroke="#000" stroke-miterlimit="10" fill="none"/><path d="M118.57 179.512l-5.578 9.004M112.992 188.516l5.004 9.332" stroke-width="1.2" stroke="#00f" stroke-miterlimit="10" fill="none"/><path d="M117.996 197.848l5.008 9.332" stroke-width="1.2" stroke="#000" stroke-miterlimit="10" fill="none"/><path d="M118.387 188.027l4.004 7.465" stroke-width="1.2" stroke="#00f" stroke-miterlimit="10" fill="none"/><path d="M122.39 195.492l4.005 7.465" stroke-width="1.2" stroke="#000" stroke-miterlimit="10" fill="none"/><path d="M109.992 183.016h7v11h-7zm0 0" fill="#fff"/><use xlink:href="#b" x="109.992" y="191.679" fill="#00f"/><path d="M123.004 207.18l21.172.664M123.004 207.18l-5.578 9.004" stroke-width="1.2" stroke="#000" stroke-miterlimit="10" fill="none"/><path d="M117.426 216.184l-5.578 9" stroke-width="1.2" stroke="#0c0" stroke-miterlimit="10" fill="none"/><path d="M144.176 207.844l11.156-18.004M141.055 203.414l8.925-14.402" stroke-width="1.2" stroke="#000" stroke-miterlimit="10" fill="none"/><path d="M101.848 219.684h10v11h-10zm0 0" fill="#fff"/><g fill="#0c0"><use xlink:href="#c" x="101.848" y="228.347"/><use xlink:href="#d" x="108.361" y="228.347"/></g><path d="M195.605 162.773l8.09-6.835" stroke-width="1.2" stroke="#000" stroke-miterlimit="10" fill="none"/><path d="M203.695 155.938l8.086-6.84M211.78 149.098l-4-9.805" stroke-width="1.2" stroke="#00f" stroke-miterlimit="10" fill="none"/><path d="M207.78 139.293l-4.003-9.805" stroke-width="1.2" stroke="#000" stroke-miterlimit="10" fill="none"/><path d="M211.78 149.098l10.29 2.523" stroke-width="1.2" stroke="#00f" stroke-miterlimit="10" fill="none"/><path d="M222.07 151.62l10.285 2.528" stroke-width="1.2" stroke="#000" stroke-miterlimit="10" fill="none"/><path d="M208.78 143.598h7v11h-7zm0 0" fill="#fff"/><use xlink:href="#b" x="208.781" y="152.261" fill="#00f"/><path d="M203.777 129.488l14.336-16.035-6.355-3.937zm0 0"/><path d="M214.934 111.484l21.17.664M217.207 106.57l16.938.528M204.922 92.82l10.012 18.664M236.105 112.148l11.16-18.003M247.266 94.145l-10.012-18.668M241.87 94.633L233.864 79.7M237.254 75.477l-21.172-.66M216.082 74.816l-11.16 18.004M219.203 79.242l-8.93 14.403M232.355 154.148l5.91 20.34M238.266 174.488l-14.657 15.29M258.836 179.535l-20.57-5.047M223.61 189.777l5.913 20.34M229.523 210.117l20.57 5.047M250.094 215.164l14.656-15.29M264.75 199.875l-5.914-20.34" stroke-width="1.2" stroke="#000" stroke-miterlimit="10" fill="none"/></g></svg>