<svg xmlns="http://www.w3.org/2000/svg" xmlns:xlink="http://www.w3.org/1999/xlink" width="300pt" height="300pt" viewBox="0 0 300 300"><defs><symbol overflow="visible"><path d="M.453 1.594v-7.938h4.5v7.938zm.5-.5h3.5v-6.938h-3.5zm0 0"/></symbol><symbol overflow="visible" id="a"><path d="M3.547-5.953c-.65 0-1.164.242-1.547.72-.375.48-.563 1.13-.563 1.952 0 .835.188 1.49.563 1.967.383.48.898.72 1.547.72.644 0 1.156-.24 1.53-.72.376-.476.564-1.132.564-1.968 0-.822-.187-1.474-.562-1.954-.375-.477-.887-.72-1.53-.72zm0-.734c.914 0 1.648.312 2.203.937.55.617.828 1.438.828 2.47 0 1.042-.277 1.87-.828 2.483-.555.617-1.29.922-2.203.922-.93 0-1.668-.305-2.22-.922C.774-1.41.5-2.237.5-3.28c0-1.033.273-1.853.828-2.47.55-.625 1.29-.938 2.22-.938zm0 0"/></symbol><symbol overflow="visible" id="b"><path d="M5.797-6.063v.938c-.305-.27-.625-.473-.97-.61-.335-.144-.686-.218-1.06-.218-.75 0-1.33.23-1.736.687-.397.46-.592 1.12-.592 1.985 0 .866.195 1.526.593 1.983.408.46.986.688 1.736.688.375 0 .726-.066 1.062-.203.344-.132.664-.343.97-.625V-.5c-.314.21-.642.367-.986.47-.343.1-.714.155-1.11.155-.99 0-1.772-.3-2.343-.906C.784-1.396.5-2.228.5-3.28c0-1.052.285-1.88.86-2.486.57-.613 1.35-.92 2.343-.92.395-.002.766.053 1.11.155.35.104.68.26.984.468zm0 0"/></symbol><symbol overflow="visible" id="c"><path d="M.844-6.844h.812V0H.844zm0 0"/></symbol><symbol overflow="visible" id="d"><path d="M.89-6.563h.876v2.688H5v-2.688h.89V0H5v-3.125H1.766V0H.89zm0 0"/></symbol></defs><g><path fill="#fff" d="M0 0h300v300H0z"/><path d="M35.25 126.383l13.2 14.457M48.45 140.84l19.116-4.2M69.832 137.063l1.8-9.622" stroke-width="1.2" stroke="#000" stroke-miterlimit="10" fill="none"/><path d="M71.633 127.44l1.8-9.616" stroke-width="1.2" stroke="#f00" stroke-miterlimit="10" fill="none"/><path d="M65.305 136.215l1.8-9.62" stroke-width="1.2" stroke="#000" stroke-miterlimit="10" fill="none"/><path d="M67.105 126.594l1.8-9.62" stroke-width="1.2" stroke="#f00" stroke-miterlimit="10" fill="none"/><path d="M67.566 136.64l6.602 7.227" stroke-width="1.2" stroke="#000" stroke-miterlimit="10" fill="none"/><path d="M74.168 143.867l6.598 7.23" stroke-width="1.2" stroke="#f00" stroke-miterlimit="10" fill="none"/><path d="M67.172 111.898h8v11h-8zm0 0" fill="#fff"/><use xlink:href="#a" x="67.172" y="120.562" fill="#f00"/><path d="M80.766 151.098l9.558-2.102" stroke-width="1.2" stroke="#f00" stroke-miterlimit="10" fill="none"/><path d="M90.324 148.996l9.56-2.098" stroke-width="1.2" stroke="#000" stroke-miterlimit="10" fill="none"/><path d="M76.766 145.598h8v11h-8zm0 0" fill="#fff"/><use xlink:href="#a" x="76.766" y="154.261" fill="#f00"/><path d="M99.883 146.898l13.2 14.457M110.887 160.66l-2.96 9.328" stroke-width="1.2" stroke="#000" stroke-miterlimit="10" fill="none"/><path d="M107.926 169.988l-2.96 9.328" stroke-width="1.2" stroke="#f00" stroke-miterlimit="10" fill="none"/><path d="M115.277 162.05l-2.96 9.333" stroke-width="1.2" stroke="#000" stroke-miterlimit="10" fill="none"/><path d="M112.316 171.383l-2.96 9.328" stroke-width="1.2" stroke="#f00" stroke-miterlimit="10" fill="none"/><path d="M132.203 157.156m-3 .125l.227 1.017m-3.223-.89l.45 2.034m-3.446-1.913l.673 3.06m-3.672-2.935l.895 4.075m-3.89-3.95l1.117 5.094m-4.113-4.968l1.34 6.114m-3.22-6.036l1.484 6.75" stroke="#000" stroke-miterlimit="10" fill="none"/><path d="M99.16 174.516h8v11h-8zm0 0" fill="#fff"/><use xlink:href="#a" x="99.16" y="183.179" fill="#f00"/><path d="M132.203 157.156l2.176 19.453M132.203 157.156l-3.09-9.29" stroke-width="1.2" stroke="#000" stroke-miterlimit="10" fill="none"/><path d="M129.113 147.867l-3.086-9.29" stroke-width="1.2" stroke="#f00" stroke-miterlimit="10" fill="none"/><path d="M150.03 149.07l-17.827 8.086M134.38 176.61l19.175 3.94" stroke-width="1.2" stroke="#000" stroke-miterlimit="10" fill="none"/><path d="M134.38 176.61l-16.786 10.644 4.656 5.105zm0 0M163.227 163.53l-12.676 15.314 6.01 3.41zm0 0"/><path d="M163.227 163.53l-13.196-14.46M182.348 159.328l-19.12 4.203M150.03 149.07l5.923-18.656" stroke-width="1.2" stroke="#000" stroke-miterlimit="10" fill="none"/><path d="M150.03 149.07m-1.237-2.73l-.86.59m-.378-3.325l-1.723 1.18m.484-3.91l-2.582 1.766m1.344-4.5l-3.44 2.356m2.202-5.086l-4.305 2.942m3.067-5.676l-5.165 3.535m4.387-5.245l-5.7 3.902" stroke="#000" stroke-miterlimit="10" fill="none"/><path d="M155.953 130.414l19.12-4.203" stroke-width="1.2" stroke="#000" stroke-miterlimit="10" fill="none"/><path d="M175.074 126.21m1.606 2.536l.77-.703m.835 3.238l1.543-1.405m.067 3.938l2.308-2.11m-.703 4.645l3.082-2.813m-1.477 5.344l3.852-3.517m-2.242 6.05l4.617-4.218M185.72 143l5.1-4.656M175.074 126.21m1.39-2.655l-.995-.317m2.385-2.343l-1.988-.63m3.38-2.027l-2.985-.945m4.375-1.715l-3.977-1.262m5.367-1.394l-4.968-1.578m6.358-1.082l-5.965-1.89m6.836.226l-6.587-2.09" stroke="#000" stroke-miterlimit="10" fill="none"/><path d="M188.27 140.672l-5.922 18.656M207.39 136.47l-19.12 4.202" stroke-width="1.2" stroke="#000" stroke-miterlimit="10" fill="none"/><path d="M182.348 159.328m1.605 2.535l.774-.703m.835 3.235l1.54-1.403m.066 3.938l2.312-2.11m-.707 4.645l3.082-2.813m-1.472 5.344l3.847-3.516m-2.242 6.05l4.62-4.218m-3.612 5.805l5.102-4.66" stroke="#000" stroke-miterlimit="10" fill="none"/><path d="M195.547 173.79l19.117-4.204" stroke-width="1.2" stroke="#000" stroke-miterlimit="10" fill="none"/><path d="M195.547 173.79m-1.39 2.655l.99.317m-2.38 2.343l1.987.63m-3.38 2.027l2.98.945m-4.37 1.715l3.973 1.262m-5.363 1.394l4.97 1.578m-6.36 1.082l5.96 1.89m-6.832-.226l6.582 2.09" stroke="#000" stroke-miterlimit="10" fill="none"/><path d="M214.664 169.586l5.926-18.656M220.59 150.93l19.117-4.203M221.512 146.012l15.297-3.364M207.39 136.47l13.2 14.46M239.707 146.727l5.922-18.657M246.125 130.32l9.56-2.1" stroke-width="1.2" stroke="#000" stroke-miterlimit="10" fill="none"/><path d="M255.684 128.22l9.562-2.103" stroke-width="1.2" stroke="#f00" stroke-miterlimit="10" fill="none"/><path d="M245.137 125.82l9.558-2.1" stroke-width="1.2" stroke="#000" stroke-miterlimit="10" fill="none"/><path d="M254.695 123.72l9.56-2.1" stroke-width="1.2" stroke="#f00" stroke-miterlimit="10" fill="none"/><path d="M245.63 128.07l-13.196-14.457" stroke-width="1.2" stroke="#000" stroke-miterlimit="10" fill="none"/><path d="M260.75 118.37h8v11h-8zm0 0" fill="#fff"/><use xlink:href="#a" x="260.75" y="127.034" fill="#f00"/><path d="M232.434 113.613l-19.12 4.2M231.508 118.53l-15.293 3.36M213.313 117.813l-5.922 18.656" stroke-width="1.2" stroke="#000" stroke-miterlimit="10" fill="none"/><path d="M207.39 136.47l-10.644-16.786-5.105 4.656zm0 0"/><path d="M179.625 186.945h10v11h-10zm0 0" fill="#fff"/><g fill="#0c0"><use xlink:href="#b" x="179.625" y="195.608"/><use xlink:href="#c" x="186.139" y="195.608"/></g><path d="M173.996 102.055h15v11h-15zm0 0" fill="#fff"/><g fill="#f00"><use xlink:href="#a" x="173.996" y="110.718"/><use xlink:href="#d" x="181.338" y="110.718"/></g><path d="M126.027 138.578l-9.59-1.97" stroke-width="1.2" stroke="#f00" stroke-miterlimit="10" fill="none"/><path d="M116.438 136.61l-9.586-1.97" stroke-width="1.2" stroke="#000" stroke-miterlimit="10" fill="none"/><path d="M122.027 133.078h8v11h-8zm0 0" fill="#fff"/><use xlink:href="#a" x="122.027" y="141.741" fill="#f00"/><path d="M105.55 132.738l-4.292 2.938" stroke-width="1.2" stroke="#000" stroke-miterlimit="10" fill="none"/><path d="M101.258 135.676l-4.293 2.937" stroke-width="1.2" stroke="#f00" stroke-miterlimit="10" fill="none"/><path d="M108.152 136.54l-4.293 2.937" stroke-width="1.2" stroke="#000" stroke-miterlimit="10" fill="none"/><path d="M103.86 139.477l-4.294 2.937" stroke-width="1.2" stroke="#f00" stroke-miterlimit="10" fill="none"/><path d="M106.852 134.64l-6.176-18.577" stroke-width="1.2" stroke="#000" stroke-miterlimit="10" fill="none"/><path d="M90.266 135.016h8v11h-8zm0 0" fill="#fff"/><use xlink:href="#a" x="90.266" y="143.679" fill="#f00"/><path d="M100.676 116.063l-18.555-6.247" stroke-width="1.2" stroke="#000" stroke-miterlimit="10" fill="none"/></g></svg>