<svg xmlns="http://www.w3.org/2000/svg" xmlns:xlink="http://www.w3.org/1999/xlink" width="300pt" height="300pt" viewBox="0 0 300 300"><defs><symbol overflow="visible"><path d="M.547 1.938V-7.75h5.5v9.688zm.625-.61h4.266v-8.47H1.171zm0 0"/></symbol><symbol overflow="visible" id="a"><path d="M4.328-7.28c-.78 0-1.406.296-1.875.89-.46.585-.687 1.382-.687 2.39 0 1.012.226 1.813.687 2.406.47.586 1.094.875 1.875.875.79 0 1.414-.288 1.875-.874.457-.593.688-1.394.688-2.406 0-1.008-.23-1.805-.687-2.39-.46-.594-1.086-.89-1.875-.89zm0-.892c1.125 0 2.024.383 2.703 1.14C7.708-6.28 8.048-5.27 8.048-4c0 1.262-.34 2.273-1.016 3.03C6.353-.22 5.454.157 4.33.157S2.3-.22 1.625-.97c-.668-.75-1-1.757-1-3.03 0-1.27.332-2.28 1-3.03.676-.76 1.578-1.142 2.703-1.142zm0 0"/></symbol><symbol overflow="visible" id="b"><path d="M1.078-8.016h4.61v.907H2.171v2.36h3.172v.922H2.172V0H1.078zm0 0"/></symbol><symbol overflow="visible" id="c"><path d="M1.078-8.016h1.47l3.546 6.704v-6.704h1.062V0H5.688L2.124-6.703V0H1.078zm0 0"/></symbol><symbol overflow="visible" id="d"><path d="M1.078-8.016h1.094v3.282H6.11v-3.282h1.077V0H6.11v-3.813H2.17V0H1.078zm0 0"/></symbol></defs><g><path fill="#fff" d="M0 0h300v300H0z"/><path d="M119.914 213.16L144.648 203M142.727 205.492l10.582 8.168" stroke-width="1.2" stroke="#000" stroke-miterlimit="10" fill="none"/><path d="M153.31 213.66l10.58 8.172" stroke-width="1.2" stroke="#f00" stroke-miterlimit="10" fill="none"/><path d="M146.57 200.512l10.582 8.168" stroke-width="1.2" stroke="#000" stroke-miterlimit="10" fill="none"/><path d="M157.152 208.68l10.586 8.172" stroke-width="1.2" stroke="#f00" stroke-miterlimit="10" fill="none"/><path d="M144.648 203l3.567-26.5" stroke-width="1.2" stroke="#000" stroke-miterlimit="10" fill="none"/><path d="M161.813 212.84h9v13h-9zm0 0" fill="#fff"/><use xlink:href="#a" x="161.813" y="222.741" fill="#f00"/><path d="M148.215 176.5l24.734-10.16M148.215 176.5l-21.164-16.34M172.95 166.34l3.57-26.5M172.95 166.34l10.58 8.172" stroke-width="1.2" stroke="#000" stroke-miterlimit="10" fill="none"/><path d="M183.53 174.512l10.587 8.168" stroke-width="1.2" stroke="#00f" stroke-miterlimit="10" fill="none"/><path d="M176.52 139.84l-21.168-16.34M178.246 133.227l-16.934-13.075M201.25 129.68l-24.73 10.16M155.352 123.5l3.566-26.5M158.918 97l24.734-10.16M163.785 101.805l19.785-8.13M158.918 97l-10.582-8.172" stroke-width="1.2" stroke="#000" stroke-miterlimit="10" fill="none"/><path d="M148.336 88.828l-10.582-8.168" stroke-width="1.2" stroke="#3cc" stroke-miterlimit="10" fill="none"/><path d="M183.652 86.84l21.168 16.34M204.82 103.18l-3.57 26.5M198.227 104.988l-2.852 21.203" stroke-width="1.2" stroke="#000" stroke-miterlimit="10" fill="none"/><path d="M130.754 74.16h7v13h-7zm0 0" fill="#fff"/><use xlink:href="#b" x="130.754" y="84.062" fill="#3cc"/><path d="M194.117 182.68l12.367-5.078" stroke-width="1.2" stroke="#00f" stroke-miterlimit="10" fill="none"/><path d="M206.484 177.602l12.368-5.082" stroke-width="1.2" stroke="#000" stroke-miterlimit="10" fill="none"/><path d="M186.117 176.18h17v13h-17zm0 0" fill="#fff"/><g fill="#00f"><use xlink:href="#c" x="186.117" y="186.081"/><use xlink:href="#d" x="194.101" y="186.081"/></g><path d="M221.97 172.94l1.78-13.252" stroke-width="1.2" stroke="#000" stroke-miterlimit="10" fill="none"/><path d="M223.75 159.688l1.785-13.25" stroke-width="1.2" stroke="#f00" stroke-miterlimit="10" fill="none"/><path d="M215.73 172.102l1.786-13.25" stroke-width="1.2" stroke="#000" stroke-miterlimit="10" fill="none"/><path d="M217.516 158.852l1.785-13.25" stroke-width="1.2" stroke="#f00" stroke-miterlimit="10" fill="none"/><path d="M218.852 172.52l10.582 8.17" stroke-width="1.2" stroke="#000" stroke-miterlimit="10" fill="none"/><path d="M229.434 180.69l10.582 8.17" stroke-width="1.2" stroke="#f00" stroke-miterlimit="10" fill="none"/><path d="M218.418 139.52h9v13h-9zm0 0" fill="#fff"/><use xlink:href="#a" x="218.418" y="149.421" fill="#f00"/><path d="M240.016 188.86l12.367-5.08" stroke-width="1.2" stroke="#f00" stroke-miterlimit="10" fill="none"/><path d="M252.383 183.78l12.367-5.08" stroke-width="1.2" stroke="#000" stroke-miterlimit="10" fill="none"/><path d="M236.016 182.36h9v13h-9zm0 0" fill="#fff"/><use xlink:href="#a" x="236.016" y="192.261" fill="#f00"/><path d="M130.168 160.578l1.785-13.25" stroke-width="1.2" stroke="#000" stroke-miterlimit="10" fill="none"/><path d="M131.953 147.328l1.78-13.25" stroke-width="1.2" stroke="#f00" stroke-miterlimit="10" fill="none"/><path d="M123.934 159.742l1.78-13.25" stroke-width="1.2" stroke="#000" stroke-miterlimit="10" fill="none"/><path d="M125.715 146.492l1.785-13.254" stroke-width="1.2" stroke="#f00" stroke-miterlimit="10" fill="none"/><path d="M127.05 160.16l-12.366 5.082" stroke-width="1.2" stroke="#000" stroke-miterlimit="10" fill="none"/><path d="M114.684 165.242l-12.368 5.078" stroke-width="1.2" stroke="#f00" stroke-miterlimit="10" fill="none"/><path d="M126.617 127.16h9v13h-9zm0 0" fill="#fff"/><use xlink:href="#a" x="126.617" y="137.062" fill="#f00"/><path d="M102.316 170.32l-10.582-8.168" stroke-width="1.2" stroke="#f00" stroke-miterlimit="10" fill="none"/><path d="M91.734 162.152l-10.586-8.172" stroke-width="1.2" stroke="#000" stroke-miterlimit="10" fill="none"/><path d="M98.316 163.82h9v13h-9zm0 0" fill="#fff"/><use xlink:href="#a" x="98.316" y="173.722" fill="#f00"/><path d="M81.148 153.98l-24.73 10.16M58.34 161.652l-21.168-16.34M54.492 166.633L33.328 150.29" stroke-width="1.2" stroke="#000" stroke-miterlimit="10" fill="none"/></g></svg>