<svg xmlns="http://www.w3.org/2000/svg" xmlns:xlink="http://www.w3.org/1999/xlink" width="300pt" height="300pt" viewBox="0 0 300 300"><defs><symbol overflow="visible"><path d="M.547 1.938V-7.75h5.5v9.688zm.625-.61h4.266v-8.47H1.171zm0 0"/></symbol><symbol overflow="visible" id="a"><path d="M4.328-7.28c-.78 0-1.406.296-1.875.89-.46.585-.687 1.382-.687 2.39 0 1.012.226 1.813.687 2.406.47.586 1.094.875 1.875.875.79 0 1.414-.288 1.875-.874.457-.593.688-1.394.688-2.406 0-1.008-.23-1.805-.687-2.39-.46-.594-1.086-.89-1.875-.89zm0-.892c1.125 0 2.024.383 2.703 1.14C7.708-6.28 8.048-5.27 8.048-4c0 1.262-.34 2.273-1.016 3.03C6.353-.22 5.454.157 4.33.157S2.3-.22 1.625-.97c-.668-.75-1-1.757-1-3.03 0-1.27.332-2.28 1-3.03.676-.76 1.578-1.142 2.703-1.142zm0 0"/></symbol><symbol overflow="visible" id="b"><path d="M1.078-8.016h1.47l3.546 6.704v-6.704h1.062V0H5.688L2.124-6.703V0H1.078zm0 0"/></symbol><symbol overflow="visible" id="c"><path d="M2.172-3.828V-.89h1.734c.582 0 1.016-.118 1.297-.36.28-.238.422-.61.422-1.11 0-.5-.14-.867-.422-1.11-.28-.237-.715-.358-1.297-.358zm0-3.297v2.422h1.594c.53 0 .925-.098 1.187-.297.258-.207.39-.516.39-.922s-.132-.707-.39-.906c-.262-.195-.656-.297-1.187-.297zm-1.094-.89h2.766c.832 0 1.472.17 1.922.515.445.344.67.836.67 1.47.002.49-.116.882-.342 1.17-.23.282-.57.462-1.016.532.53.117.942.355 1.234.72.3.366.454.82.454 1.358 0 .72-.246 1.277-.735 1.672C5.55-.19 4.86 0 3.954 0H1.078zm0 0"/></symbol><symbol overflow="visible" id="d"><path d="M4.516-5.094c-.106-.062-.227-.11-.36-.14-.125-.032-.265-.047-.422-.047-.562 0-.996.182-1.296.546C2.144-4.367 2-3.848 2-3.172V0H1v-6.016h1v.938c.195-.363.46-.633.797-.813.332-.176.738-.266 1.22-.266.07 0 .143.008.217.015.082 0 .176.01.282.03zm0 0"/></symbol></defs><g><path fill="#fff" d="M0 0h300v300H0z"/><path d="M232.594 198.215l-25.45-7.477M207.145 190.738l-19.2 18.297M200.898 164.957l6.247 25.78M187.945 209.035l-25.45-7.476M162.496 201.56l-6.25-25.783M156.246 175.777l-25.45-7.476" stroke-width="1.2" stroke="#000" stroke-miterlimit="10" fill="none"/><path d="M175.45 157.48l-9.602 9.15" stroke-width="1.2" stroke="#00f" stroke-miterlimit="10" fill="none"/><path d="M165.848 166.63l-9.602 9.147M128.645 166.04l-9.602 9.15" stroke-width="1.2" stroke="#000" stroke-miterlimit="10" fill="none"/><path d="M119.043 175.19l-9.598 9.15" stroke-width="1.2" stroke="#f00" stroke-miterlimit="10" fill="none"/><path d="M132.953 170.56l-9.6 9.147" stroke-width="1.2" stroke="#000" stroke-miterlimit="10" fill="none"/><path d="M123.352 179.707l-9.602 9.152" stroke-width="1.2" stroke="#f00" stroke-miterlimit="10" fill="none"/><path d="M130.797 168.3l-3.12-12.89" stroke-width="1.2" stroke="#000" stroke-miterlimit="10" fill="none"/><path d="M127.676 155.41l-3.125-12.89" stroke-width="1.2" stroke="#00f" stroke-miterlimit="10" fill="none"/><path d="M102.598 180.102h9v13h-9zm0 0" fill="#fff"/><use xlink:href="#a" x="102.598" y="190.003" fill="#f00"/><path d="M124.55 142.52l9.602-9.15" stroke-width="1.2" stroke="#00f" stroke-miterlimit="10" fill="none"/><path d="M134.152 133.37l9.602-9.147M99.102 135.043l12.726 3.738" stroke-width="1.2" stroke="#000" stroke-miterlimit="10" fill="none"/><path d="M111.828 138.78l12.723 3.74" stroke-width="1.2" stroke="#00f" stroke-miterlimit="10" fill="none"/><path d="M120.55 136.02h8v13h-8zm0 0" fill="#fff"/><use xlink:href="#b" x="120.551" y="145.921" fill="#00f"/><path d="M143.754 124.223l-6.25-25.782M143.754 124.223l25.45 7.476M137.504 98.44l-25.45-7.475M112.055 90.965l-19.2 18.297M92.855 109.262l6.247 25.78M92.855 109.262l-25.45-7.477M99.102 135.043l-19.2 18.297M79.902 153.34l6.246 25.78M74.46 157.39l4.997 20.622M54.453 145.863l25.45 7.477M86.148 179.12l-19.203 18.302M66.945 197.422l-25.45-7.48M66.16 190.684l-20.36-5.98M41.496 189.94l-6.246-25.776M35.25 164.164l19.203-18.3M41.477 166.852l15.36-14.64M54.453 145.863l-3.125-12.89" stroke-width="1.2" stroke="#000" stroke-miterlimit="10" fill="none"/><path d="M51.328 132.973l-3.125-12.89" stroke-width="1.2" stroke="#7f4d1a" stroke-miterlimit="10" fill="none"/><path d="M42.203 113.582h12v13h-12zm0 0" fill="#fff"/><g fill="#7f4d1a"><use xlink:href="#c" x="42.203" y="123.483"/><use xlink:href="#d" x="49.524" y="123.483"/></g><path d="M171.355 133.96l9.602-9.15" stroke-width="1.2" stroke="#000" stroke-miterlimit="10" fill="none"/><path d="M180.957 124.81l9.598-9.15" stroke-width="1.2" stroke="#f00" stroke-miterlimit="10" fill="none"/><path d="M167.047 129.44l9.6-9.147" stroke-width="1.2" stroke="#000" stroke-miterlimit="10" fill="none"/><path d="M176.648 120.293l9.602-9.152" stroke-width="1.2" stroke="#f00" stroke-miterlimit="10" fill="none"/><path d="M169.203 131.7l3.12 12.89" stroke-width="1.2" stroke="#000" stroke-miterlimit="10" fill="none"/><path d="M172.324 144.59l3.125 12.89" stroke-width="1.2" stroke="#00f" stroke-miterlimit="10" fill="none"/><path d="M184.402 106.898h9v13h-9zm0 0" fill="#fff"/><use xlink:href="#a" x="184.402" y="116.8" fill="#f00"/><path d="M175.45 157.48l12.722 3.74" stroke-width="1.2" stroke="#00f" stroke-miterlimit="10" fill="none"/><path d="M188.172 161.22l12.726 3.737" stroke-width="1.2" stroke="#000" stroke-miterlimit="10" fill="none"/><path d="M171.45 150.98h8v13h-8zm0 0" fill="#fff"/><use xlink:href="#b" x="171.449" y="160.882" fill="#00f"/><path d="M200.898 164.957m2.497-1.66l-.72-.754m3.22-.906l-1.438-1.512m3.938-.148l-2.16-2.266m4.656.606l-2.874-3.02m5.375 1.356l-3.597-3.773m6.094 2.112l-4.317-4.527m6.817 2.867l-5.035-5.285m7.53 3.625l-5.753-6.04m8.198 4.415l-6.457-6.777" stroke="#000" stroke-miterlimit="10" fill="none"/><path d="M220.098 146.66l-6.246-25.78M225.54 142.61l-4.997-20.622M245.547 154.137l-25.45-7.477M213.852 120.88l19.203-18.302M233.055 102.578l25.45 7.48M233.84 109.316l20.36 5.98M258.504 110.06l6.246 25.776M264.75 135.836l-19.203 18.3M258.523 133.148l-15.36 14.64M245.547 154.137l3.125 12.89" stroke-width="1.2" stroke="#000" stroke-miterlimit="10" fill="none"/><path d="M248.672 167.027l3.125 12.89" stroke-width="1.2" stroke="#7f4d1a" stroke-miterlimit="10" fill="none"/><path d="M245.797 173.418h12v13h-12zm0 0" fill="#fff"/><g fill="#7f4d1a"><use xlink:href="#c" x="245.797" y="183.319"/><use xlink:href="#d" x="253.118" y="183.319"/></g></g></svg>