<svg xmlns="http://www.w3.org/2000/svg" xmlns:xlink="http://www.w3.org/1999/xlink" width="300pt" height="300pt" viewBox="0 0 300 300"><defs><symbol overflow="visible"><path d="M.547 1.938V-7.75h5.5v9.688zm.625-.61h4.266v-8.47H1.171zm0 0"/></symbol><symbol overflow="visible" id="a"><path d="M4.328-7.28c-.78 0-1.406.296-1.875.89-.46.585-.687 1.382-.687 2.39 0 1.012.226 1.813.687 2.406.47.586 1.094.875 1.875.875.79 0 1.414-.288 1.875-.874.457-.593.688-1.394.688-2.406 0-1.008-.23-1.805-.687-2.39-.46-.594-1.086-.89-1.875-.89zm0-.892c1.125 0 2.024.383 2.703 1.14C7.708-6.28 8.048-5.27 8.048-4c0 1.262-.34 2.273-1.016 3.03C6.353-.22 5.454.157 4.33.157S2.3-.22 1.625-.97c-.668-.75-1-1.757-1-3.03 0-1.27.332-2.28 1-3.03.676-.76 1.578-1.142 2.703-1.142zm0 0"/></symbol><symbol overflow="visible" id="b"><path d="M2.172-3.828V-.89h1.734c.582 0 1.016-.118 1.297-.36.28-.238.422-.61.422-1.11 0-.5-.14-.867-.422-1.11-.28-.237-.715-.358-1.297-.358zm0-3.297v2.422h1.594c.53 0 .925-.098 1.187-.297.258-.207.39-.516.39-.922s-.132-.707-.39-.906c-.262-.195-.656-.297-1.187-.297zm-1.094-.89h2.766c.832 0 1.472.17 1.922.515.445.344.67.836.67 1.47.002.49-.116.882-.342 1.17-.23.282-.57.462-1.016.532.53.117.942.355 1.234.72.3.366.454.82.454 1.358 0 .72-.246 1.277-.735 1.672C5.55-.19 4.86 0 3.954 0H1.078zm0 0"/></symbol><symbol overflow="visible" id="c"><path d="M4.516-5.094c-.106-.062-.227-.11-.36-.14-.125-.032-.265-.047-.422-.047-.562 0-.996.182-1.296.546C2.144-4.367 2-3.848 2-3.172V0H1v-6.016h1v.938c.195-.363.46-.633.797-.813.332-.176.738-.266 1.22-.266.07 0 .143.008.217.015.082 0 .176.01.282.03zm0 0"/></symbol></defs><g><path fill="#fff" d="M0 0h300v300H0z"/><path d="M145.668 250l13.953-21.664M159.62 228.336l25.743 1.25M159.62 228.336l-11.784-22.918M185.363 229.586l13.953-21.668M199.316 207.918l25.74 1.25M202.184 201.988l20.593 1M187.527 185l11.79 22.918M225.055 209.168l13.953-21.664M239.008 187.504l-11.785-22.918M232.438 187.984l-9.43-18.336M239.008 187.504l12.87.625" stroke-width="1.2" stroke="#000" stroke-miterlimit="10" fill="none"/><path d="M251.88 188.13l12.87.624" stroke-width="1.2" stroke="#7f4d1a" stroke-miterlimit="10" fill="none"/><path d="M227.223 164.586l-25.743-1.25M201.48 163.336L187.527 185M205.184 168.785l-11.164 17.332M201.48 163.336l-5.894-11.46" stroke-width="1.2" stroke="#000" stroke-miterlimit="10" fill="none"/><path d="M195.586 151.875l-5.89-11.457" stroke-width="1.2" stroke="#f00" stroke-miterlimit="10" fill="none"/><path d="M187.527 185l-12.87-.625" stroke-width="1.2" stroke="#000" stroke-miterlimit="10" fill="none"/><path d="M174.656 184.375l-12.867-.625M161.79 183.75l-5.895-11.457" stroke-width="1.2" stroke="#f00" stroke-miterlimit="10" fill="none"/><path d="M155.895 172.293L150 160.833" stroke-width="1.2" stroke="#000" stroke-miterlimit="10" fill="none"/><path d="M157.79 177.25h9v13h-9zm0 0" fill="#fff"/><use xlink:href="#a" x="157.789" y="187.151" fill="#f00"/><path d="M189.695 140.418l6.977-10.836" stroke-width="1.2" stroke="#f00" stroke-miterlimit="10" fill="none"/><path d="M196.672 129.582l6.976-10.832" stroke-width="1.2" stroke="#000" stroke-miterlimit="10" fill="none"/><path d="M185.695 133.918h9v13h-9zm0 0" fill="#fff"/><use xlink:href="#a" x="185.695" y="143.819" fill="#f00"/><path d="M203.648 118.75l-11.79-22.918M191.86 95.832l13.952-21.664M188.156 90.383L199.32 73.05M166.117 94.582l25.742 1.25M205.813 74.168L194.026 51.25M194.027 51.25L168.285 50M191.156 57.18l-20.59-1M168.285 50l-13.953 21.664M154.332 71.664l11.785 22.918M160.902 71.184l9.43 18.332" stroke-width="1.2" stroke="#000" stroke-miterlimit="10" fill="none"/><path d="M258.75 182.254h12v13h-12zm0 0" fill="#fff"/><g fill="#7f4d1a"><use xlink:href="#b" x="258.75" y="192.155"/><use xlink:href="#c" x="266.071" y="192.155"/></g><path d="M147.836 205.418l-25.742-1.25M145.555 199.234l-20.594-1M122.094 204.168l-11.79-22.918M110.305 181.25L84.565 180M110.305 181.25l6.976-10.832" stroke-width="1.2" stroke="#000" stroke-miterlimit="10" fill="none"/><path d="M117.28 170.418l6.978-10.836" stroke-width="1.2" stroke="#f00" stroke-miterlimit="10" fill="none"/><path d="M86.848 178l-4.516-5.148" stroke-width="1.2" stroke="#000" stroke-miterlimit="10" fill="none"/><path d="M82.332 172.852L77.82 167.7" stroke-width="1.2" stroke="#f00" stroke-miterlimit="10" fill="none"/><path d="M82.285 181.996l-4.512-5.148" stroke-width="1.2" stroke="#000" stroke-miterlimit="10" fill="none"/><path d="M77.773 176.848l-4.51-5.153" stroke-width="1.2" stroke="#f00" stroke-miterlimit="10" fill="none"/><path d="M84.566 180l-6.976 10.832" stroke-width="1.2" stroke="#000" stroke-miterlimit="10" fill="none"/><path d="M77.59 190.832l-6.977 10.836" stroke-width="1.2" stroke="#f00" stroke-miterlimit="10" fill="none"/><path d="M66.54 163.2h9v13h-9zm0 0" fill="#fff"/><use xlink:href="#a" x="66.539" y="173.101" fill="#f00"/><path d="M70.613 201.668l-12.87-.625" stroke-width="1.2" stroke="#f00" stroke-miterlimit="10" fill="none"/><path d="M57.742 201.043l-12.87-.63" stroke-width="1.2" stroke="#000" stroke-miterlimit="10" fill="none"/><path d="M66.613 195.168h9v13h-9zm0 0" fill="#fff"/><use xlink:href="#a" x="66.613" y="205.069" fill="#f00"/><path d="M124.258 159.582l-5.89-11.457" stroke-width="1.2" stroke="#f00" stroke-miterlimit="10" fill="none"/><path d="M118.367 148.125l-5.894-11.46" stroke-width="1.2" stroke="#000" stroke-miterlimit="10" fill="none"/><path d="M120.258 153.082h9v13h-9zm0 0" fill="#fff"/><use xlink:href="#a" x="120.258" y="162.983" fill="#f00"/><path d="M112.473 136.664l-25.743-1.25M86.73 135.414l-13.953 21.668M80.238 134.3l-11.164 17.333M74.945 112.496l11.785 22.918M72.777 157.082l-25.738-1.25M47.04 155.832l-11.79-22.918M51.25 150.766l-9.43-18.332M35.25 132.914l13.953-21.668M49.203 111.246l25.742 1.25M51.484 117.43l20.59 1" stroke-width="1.2" stroke="#000" stroke-miterlimit="10" fill="none"/></g></svg>