<svg xmlns="http://www.w3.org/2000/svg" xmlns:xlink="http://www.w3.org/1999/xlink" width="300pt" height="300pt" viewBox="0 0 300 300"><defs><symbol overflow="visible"><path d="M.453 1.594v-7.938h4.5v7.938zm.5-.5h3.5v-6.938h-3.5zm0 0"/></symbol><symbol overflow="visible" id="a"><path d="M3.547-5.953c-.65 0-1.164.242-1.547.72-.375.48-.563 1.13-.563 1.952 0 .835.188 1.49.563 1.967.383.48.898.72 1.547.72.644 0 1.156-.24 1.53-.72.376-.476.564-1.132.564-1.968 0-.822-.187-1.474-.562-1.954-.375-.477-.887-.72-1.53-.72zm0-.734c.914 0 1.648.312 2.203.937.55.617.828 1.438.828 2.47 0 1.042-.277 1.87-.828 2.483-.555.617-1.29.922-2.203.922-.93 0-1.668-.305-2.22-.922C.774-1.41.5-2.237.5-3.28c0-1.033.273-1.853.828-2.47.55-.625 1.29-.938 2.22-.938zm0 0"/></symbol></defs><g><path fill="#fff" d="M0 0h300v300H0z"/><path d="M212.13 238.672l-19.42-10.395M192.71 228.277l-.35-11.01" stroke-width="1.2" stroke="#000" stroke-miterlimit="10" fill="none"/><path d="M192.36 217.266l-.352-11.008M192.008 206.258l-9.71-5.2" stroke-width="1.2" stroke="#f00" stroke-miterlimit="10" fill="none"/><path d="M182.297 201.06l-9.71-5.197" stroke-width="1.2" stroke="#000" stroke-miterlimit="10" fill="none"/><path d="M188.008 200.758h8v11h-8zm0 0" fill="#fff"/><use xlink:href="#a" x="188.008" y="209.421" fill="#f00"/><path d="M171.223 193.66l-9.36 5.81" stroke-width="1.2" stroke="#000" stroke-miterlimit="10" fill="none"/><path d="M161.863 199.47l-9.355 5.807" stroke-width="1.2" stroke="#f00" stroke-miterlimit="10" fill="none"/><path d="M173.953 198.063l-9.355 5.808" stroke-width="1.2" stroke="#000" stroke-miterlimit="10" fill="none"/><path d="M164.598 203.87l-9.356 5.81" stroke-width="1.2" stroke="#f00" stroke-miterlimit="10" fill="none"/><path d="M172.586 195.863l-.352-11.008" stroke-width="1.2" stroke="#000" stroke-miterlimit="10" fill="none"/><path d="M172.234 184.855l-.35-11.01" stroke-width="1.2" stroke="#f00" stroke-miterlimit="10" fill="none"/><path d="M145.875 201.98h8v11h-8zm0 0" fill="#fff"/><use xlink:href="#a" x="145.875" y="210.644" fill="#f00"/><path d="M171.883 173.844l-9.707-5.196" stroke-width="1.2" stroke="#f00" stroke-miterlimit="10" fill="none"/><path d="M162.176 168.648l-9.71-5.2" stroke-width="1.2" stroke="#000" stroke-miterlimit="10" fill="none"/><path d="M167.883 168.344h8v11h-8zm0 0" fill="#fff"/><use xlink:href="#a" x="167.883" y="177.007" fill="#f00"/><path d="M152.465 163.45l-.703-22.016M151.762 141.434l-19.418-10.4" stroke-width="1.2" stroke="#000" stroke-miterlimit="10" fill="none"/><path d="M170.477 129.813l-9.36 5.808" stroke-width="1.2" stroke="#f00" stroke-miterlimit="10" fill="none"/><path d="M161.117 135.62l-9.355 5.814M132.344 131.035l-.707-22.015M132.344 131.035l-9.36 5.81" stroke-width="1.2" stroke="#000" stroke-miterlimit="10" fill="none"/><path d="M122.984 136.844l-9.355 5.808" stroke-width="1.2" stroke="#f00" stroke-miterlimit="10" fill="none"/><path d="M131.637 109.02l18.715-11.622M150.352 97.398l19.418 10.4M169.77 107.797l.35 11.008" stroke-width="1.2" stroke="#000" stroke-miterlimit="10" fill="none"/><path d="M170.12 118.805l.357 11.007" stroke-width="1.2" stroke="#f00" stroke-miterlimit="10" fill="none"/><path d="M169.77 107.797l18.714-11.617" stroke-width="1.2" stroke="#000" stroke-miterlimit="10" fill="none"/><path d="M166.477 124.313h8v11h-8zm0 0" fill="#fff"/><use xlink:href="#a" x="166.477" y="132.976" fill="#f00"/><path d="M188.484 96.18l19.418 10.398M207.902 106.578l18.715-11.617M226.617 94.96l19.418 10.4M231.004 91.43l15.535 8.32M225.914 72.945l.703 22.016M246.035 105.36L264.75 93.74M264.75 93.742l-.703-22.02M259.5 91.703l-.563-17.61M264.047 71.723L244.63 61.328M244.63 61.328l-18.716 11.617M245.488 66.89l-14.968 9.297" stroke-width="1.2" stroke="#000" stroke-miterlimit="10" fill="none"/><path d="M113.63 142.652l-9.712-5.2" stroke-width="1.2" stroke="#f00" stroke-miterlimit="10" fill="none"/><path d="M103.918 137.453l-9.707-5.2" stroke-width="1.2" stroke="#000" stroke-miterlimit="10" fill="none"/><path d="M109.63 137.152h8v11h-8zm0 0" fill="#fff"/><use xlink:href="#a" x="109.629" y="145.815" fill="#f00"/><path d="M94.21 132.254l-.706-22.016M88.957 130.22l-.562-17.615M75.496 143.87l18.715-11.616M93.504 110.238L74.086 99.84M74.086 99.84L55.37 111.457M74.95 105.406L59.976 114.7M55.37 111.457l.708 22.016M55.37 111.457l-9.706-5.2" stroke-width="1.2" stroke="#000" stroke-miterlimit="10" fill="none"/><path d="M45.664 106.258l-9.71-5.2" stroke-width="1.2" stroke="#f00" stroke-miterlimit="10" fill="none"/><path d="M56.078 133.473l19.418 10.398M60.465 129.945L76 138.262" stroke-width="1.2" stroke="#000" stroke-miterlimit="10" fill="none"/><path d="M35.953 101.06l-.35-11.01" stroke-width="1.2" stroke="#f00" stroke-miterlimit="10" fill="none"/><path d="M35.602 90.05l-.352-11.007" stroke-width="1.2" stroke="#000" stroke-miterlimit="10" fill="none"/><path d="M31.953 95.56h8v11h-8zm0 0" fill="#fff"/><use xlink:href="#a" x="31.953" y="104.222" fill="#f00"/></g></svg>