<svg xmlns="http://www.w3.org/2000/svg" xmlns:xlink="http://www.w3.org/1999/xlink" width="300pt" height="300pt" viewBox="0 0 300 300"><defs><symbol overflow="visible"><path d="M.797 2.828v-14.11h8V2.83zm.906-.89h6.203v-12.33H1.703zm0 0"/></symbol><symbol overflow="visible" id="a"><path d="M6.313-10.594c-1.15 0-2.06.43-2.735 1.28-.68.857-1.015 2.017-1.015 3.486 0 1.47.335 2.633 1.015 3.484.676.856 1.586 1.28 2.735 1.28 1.144.002 2.05-.424 2.718-1.28.665-.85 1-2.015 1-3.484 0-1.47-.335-2.63-1-3.484-.667-.852-1.573-1.282-2.717-1.282zm0-1.28c1.632 0 2.94.546 3.92 1.64.978 1.093 1.47 2.562 1.47 4.406 0 1.844-.492 3.32-1.47 4.422-.98 1.093-2.288 1.64-3.92 1.64-1.65 0-2.96-.546-3.938-1.64-.98-1.102-1.47-2.578-1.47-4.422 0-1.844.49-3.313 1.47-4.406.977-1.094 2.29-1.64 3.938-1.64zm0 0"/></symbol><symbol overflow="visible" id="b"><path d="M1.578-11.672h2.125l5.172 9.766v-9.766h1.53V0H8.282L3.11-9.766V0H1.577zm0 0"/></symbol><symbol overflow="visible" id="c"><path d="M3.156-5.578v4.28h2.531c.844 0 1.47-.175 1.875-.53.415-.352.625-.89.625-1.61 0-.726-.21-1.265-.624-1.61-.407-.35-1.032-.53-1.875-.53zm0-4.797v3.516h2.328c.77 0 1.344-.14 1.72-.42.382-.29.577-.736.577-1.33 0-.593-.194-1.035-.577-1.328-.375-.29-.95-.437-1.72-.437zm-1.578-1.297h4.03c1.197 0 2.12.25 2.767.75.656.5.984 1.215.984 2.14 0 .712-.17 1.278-.5 1.704-.337.418-.825.68-1.47.78.782.17 1.383.517 1.813 1.048.426.53.64 1.195.64 1.984 0 1.043-.355 1.852-1.062 2.422C8.07-.28 7.067 0 5.767 0H1.578zm0 0"/></symbol><symbol overflow="visible" id="d"><path d="M6.578-7.406c-.156-.094-.336-.16-.53-.203-.19-.05-.4-.077-.626-.077-.813 0-1.438.265-1.875.796-.43.53-.64 1.292-.64 2.28V0H1.452v-8.75h1.453v1.36c.3-.532.692-.926 1.172-1.188.488-.258 1.078-.39 1.766-.39.1 0 .21.01.328.03.125.012.258.028.406.047zm0 0"/></symbol></defs><g><path fill="#fff" d="M0 0h300v300H0z"/><path d="M64.71 224.906l.91-38.242M65.62 186.664l-32.663-19.906M99.19 168.332l-33.57 18.332M32.957 166.758l.91-38.238M33.867 128.52l33.57-18.333M67.438 110.188l.906-38.24" stroke-width="1.2" stroke="#000" stroke-miterlimit="10" fill="none"/><path d="M100.098 130.094L83.77 120.14" stroke-width="1.2" stroke="#00f" stroke-miterlimit="10" fill="none"/><path d="M83.77 120.14l-16.332-9.953M70.688 68.105l-16.333-9.953" stroke-width="1.2" stroke="#000" stroke-miterlimit="10" fill="none"/><path d="M54.355 58.152L38.027 48.2" stroke-width="1.2" stroke="#f00" stroke-miterlimit="10" fill="none"/><path d="M66.004 75.79l-16.332-9.954" stroke-width="1.2" stroke="#000" stroke-miterlimit="10" fill="none"/><path d="M49.672 65.836L33.34 55.883" stroke-width="1.2" stroke="#f00" stroke-miterlimit="10" fill="none"/><path d="M68.344 71.95l16.785-9.17" stroke-width="1.2" stroke="#000" stroke-miterlimit="10" fill="none"/><path d="M85.13 62.78l16.784-9.167" stroke-width="1.2" stroke="#f00" stroke-miterlimit="10" fill="none"/><path d="M22.684 42.543h13v19h-13zm0 0" fill="#fff"/><use xlink:href="#a" x="22.684" y="57.395" fill="#f00"/><path d="M101.914 53.613l16.332 9.957" stroke-width="1.2" stroke="#f00" stroke-miterlimit="10" fill="none"/><path d="M118.246 63.57l16.332 9.953" stroke-width="1.2" stroke="#000" stroke-miterlimit="10" fill="none"/><path d="M95.914 44.113h13v19h-13zm0 0" fill="#fff"/><use xlink:href="#a" x="95.914" y="58.965" fill="#f00"/><path d="M134.578 73.523l-.91 38.24M134.578 73.523l33.57-18.335M133.668 111.762l-16.785 9.164" stroke-width="1.2" stroke="#000" stroke-miterlimit="10" fill="none"/><path d="M116.883 120.926l-16.785 9.168M100.098 130.094l-.453 19.12" stroke-width="1.2" stroke="#00f" stroke-miterlimit="10" fill="none"/><path d="M99.645 149.215l-.454 19.117" stroke-width="1.2" stroke="#000" stroke-miterlimit="10" fill="none"/><path d="M94.098 120.594h12v19h-12zm0 0" fill="#fff"/><use xlink:href="#b" x="94.098" y="135.445" fill="#00f"/><path d="M99.19 168.332l32.662 19.906M131.852 188.238l-.907 38.24M140.758 192.277l-.727 30.59M165.422 169.906l-33.57 18.332M130.945 226.477l32.66 19.91M163.605 246.387l33.57-18.336M162.648 236.652l26.856-14.664M197.176 228.05l.91-38.238M197.176 228.05l16.332 9.954" stroke-width="1.2" stroke="#000" stroke-miterlimit="10" fill="none"/><path d="M213.508 238.004l16.328 9.953" stroke-width="1.2" stroke="#7f4d1a" stroke-miterlimit="10" fill="none"/><path d="M198.086 189.813l-32.664-19.907M190.133 195.508l-26.13-15.926" stroke-width="1.2" stroke="#000" stroke-miterlimit="10" fill="none"/><path d="M220.836 238.457h18v19h-18zm0 0" fill="#fff"/><g fill="#7f4d1a"><use xlink:href="#c" x="220.836" y="253.309"/><use xlink:href="#d" x="231.813" y="253.309"/></g><path d="M168.148 55.188l32.66 19.906M200.81 75.094l-.908 38.242M209.715 79.133l-.727 30.59M234.38 56.762l-33.57 18.332M199.902 113.336l32.66 19.906M232.563 133.242l33.57-18.336M231.605 123.508l26.86-14.664M266.133 114.906l.91-38.238M267.043 76.668L234.38 56.762M259.094 82.363L232.96 66.438" stroke-width="1.2" stroke="#000" stroke-miterlimit="10" fill="none"/></g></svg>