<svg xmlns="http://www.w3.org/2000/svg" xmlns:xlink="http://www.w3.org/1999/xlink" width="300pt" height="300pt" viewBox="0 0 300 300"><defs><symbol overflow="visible"><path d="M.797 2.828v-14.11h8V2.83zm.906-.89h6.203v-12.33H1.703zm0 0"/></symbol><symbol overflow="visible" id="a"><path d="M6.313-10.594c-1.15 0-2.06.43-2.735 1.28-.68.857-1.015 2.017-1.015 3.486 0 1.47.335 2.633 1.015 3.484.676.856 1.586 1.28 2.735 1.28 1.144.002 2.05-.424 2.718-1.28.665-.85 1-2.015 1-3.484 0-1.47-.335-2.63-1-3.484-.667-.852-1.573-1.282-2.717-1.282zm0-1.28c1.632 0 2.94.546 3.92 1.64.978 1.093 1.47 2.562 1.47 4.406 0 1.844-.492 3.32-1.47 4.422-.98 1.093-2.288 1.64-3.92 1.64-1.65 0-2.96-.546-3.938-1.64-.98-1.102-1.47-2.578-1.47-4.422 0-1.844.49-3.313 1.47-4.406.977-1.094 2.29-1.64 3.938-1.64zm0 0"/></symbol><symbol overflow="visible" id="c"><path d="M1.578-11.672h2.125l5.172 9.766v-9.766h1.53V0H8.282L3.11-9.766V0H1.577zm0 0"/></symbol><symbol overflow="visible" id="d"><path d="M5.484-4.406c-1.156 0-1.96.136-2.406.406-.45.262-.672.715-.672 1.36 0 .51.164.917.5 1.218.332.293.79.438 1.375.438.79 0 1.427-.282 1.907-.844.49-.563.735-1.313.735-2.25v-.328zM8.36-5v5H6.92v-1.328c-.336.53-.746.93-1.234 1.187-.493.25-1.09.374-1.797.374-.898 0-1.61-.25-2.14-.75-.523-.507-.78-1.187-.78-2.03 0-.99.327-1.735.983-2.235.656-.5 1.64-.75 2.953-.75h2.016v-.142c0-.656-.22-1.164-.656-1.53-.438-.364-1.047-.548-1.829-.548-.5 0-.992.063-1.468.188-.47.117-.923.292-1.36.53v-1.327c.52-.195 1.023-.347 1.515-.453.5-.1.984-.156 1.453-.156 1.27 0 2.22.33 2.844.986.625.656.937 1.652.937 2.984zm0 0"/></symbol><symbol overflow="visible"><path d="M.64 2.297v-11.47h6.5v11.47zm.735-.72h5.047V-8.436H1.375zm0 0"/></symbol><symbol overflow="visible" id="b"><path d="M.64-4.078h3.422v1.03H.643zm0 0"/></symbol><symbol overflow="visible" id="e"><path d="M5.984-8.156v3.547h3.532v1.08H5.984V0H4.906v-3.53h-3.53v-1.08h3.53v-3.546zm0 0"/></symbol></defs><g><path fill="#fff" d="M0 0h300v300H0z"/><path d="M50.625 201l33.125-19.125M83.75 181.875L116.875 201M116.875 201L150 181.875M150 181.875L183.125 201M150 181.875v-38.25M183.125 201l33.125-19.125M216.25 181.875L249.375 201M152.25 139.727l-16.563-9.563" stroke-width="1.2" stroke="#000" stroke-miterlimit="10" fill="none"/><path d="M135.688 130.164l-16.563-9.562" stroke-width="1.2" stroke="#f00" stroke-miterlimit="10" fill="none"/><path d="M147.75 147.523l-16.563-9.562" stroke-width="1.2" stroke="#000" stroke-miterlimit="10" fill="none"/><path d="M131.188 137.96l-16.563-9.562" stroke-width="1.2" stroke="#f00" stroke-miterlimit="10" fill="none"/><path d="M150 143.625l16.563-9.563" stroke-width="1.2" stroke="#000" stroke-miterlimit="10" fill="none"/><path d="M166.563 134.063l16.562-9.563" stroke-width="1.2" stroke="#f00" stroke-miterlimit="10" fill="none"/><path d="M103.875 115h13v19h-13zm0 0" fill="#fff"/><use xlink:href="#a" x="103.875" y="129.852" fill="#f00"/><path d="M174.125 113.5h18v22h-18zm0 0" fill="#fff"/><use xlink:href="#a" x="174.125" y="130.759" fill="#f00"/><use xlink:href="#b" x="186.719" y="125.876" fill="#f00"/><path d="M134 88h33v22h-33zm0 0" fill="#fff"/><use xlink:href="#c" x="134" y="105.259"/><use xlink:href="#d" x="145.969" y="105.259"/><use xlink:href="#e" x="155.773" y="100.376"/></g></svg>