<svg xmlns="http://www.w3.org/2000/svg" xmlns:xlink="http://www.w3.org/1999/xlink" width="300pt" height="300pt" viewBox="0 0 300 300"><defs><symbol overflow="visible"><path d="M.453 1.594v-7.938h4.5v7.938zm.5-.5h3.5v-6.938h-3.5zm0 0"/></symbol><symbol overflow="visible" id="a"><path d="M3.547-5.953c-.65 0-1.164.242-1.547.72-.375.48-.563 1.13-.563 1.952 0 .835.188 1.49.563 1.967.383.48.898.72 1.547.72.644 0 1.156-.24 1.53-.72.376-.476.564-1.132.564-1.968 0-.822-.187-1.474-.562-1.954-.375-.477-.887-.72-1.53-.72zm0-.734c.914 0 1.648.312 2.203.937.55.617.828 1.438.828 2.47 0 1.042-.277 1.87-.828 2.483-.555.617-1.29.922-2.203.922-.93 0-1.668-.305-2.22-.922C.774-1.41.5-2.237.5-3.28c0-1.033.273-1.853.828-2.47.55-.625 1.29-.938 2.22-.938zm0 0"/></symbol><symbol overflow="visible" id="b"><path d="M.89-6.563H2.08l2.906 5.485v-5.484h.86V0H4.656L1.75-5.484V0H.89zm0 0"/></symbol><symbol overflow="visible" id="c"><path d="M.89-6.563h.876v2.688H5v-2.688h.89V0H5v-3.125H1.766V0H.89zm0 0"/></symbol><symbol overflow="visible" id="d"><path d="M4.813-6.344v.86c-.336-.157-.653-.27-.954-.344-.294-.082-.58-.125-.86-.125-.492 0-.867.094-1.125.28-.262.19-.39.454-.39.798 0 .293.085.512.265.656.176.15.504.267.984.36l.547.11c.658.125 1.142.352 1.454.672.32.312.485.734.485 1.265 0 .637-.216 1.122-.642 1.454-.43.325-1.055.485-1.875.485-.312 0-.648-.04-1-.11C1.36-.046 1-.147.625-.296v-.906c.352.2.703.35 1.047.453.35.105.695.156 1.03.156.5 0 .884-.097 1.157-.297.28-.196.42-.485.42-.86 0-.32-.1-.57-.296-.75-.2-.176-.523-.313-.968-.406l-.547-.11C1.81-3.148 1.33-3.36 1.03-3.64.74-3.923.595-4.313.595-4.813c0-.57.203-1.024.61-1.36.405-.344.968-.516 1.687-.516.313 0 .626.032.938.094.32.055.65.137.985.25zm0 0"/></symbol></defs><g><path fill="#fff" d="M0 0h300v300H0z"/><path d="M122.898 179.617m-2.378 1.824l.765.708m-3.148 1.122l1.54 1.41m-3.92.418l2.31 2.113m-4.688-.284l3.077 2.816m-5.457-.988l3.848 3.52m-4.567-2.97l4.08 3.73" stroke="#000" stroke-miterlimit="10" fill="none"/><path d="M122.898 179.617l-9.273-12.63M122.898 179.617l13.395 8.117M113.625 166.988l-3.73-15.21" stroke-width="1.2" stroke="#000" stroke-miterlimit="10" fill="none"/><path d="M113.625 166.988l-15.36 4.125 2.34 5.008zm0 0"/><path d="M109.895 151.777l1.187-7.742" stroke-width="1.2" stroke="#000" stroke-miterlimit="10" fill="none"/><path d="M111.082 144.035l1.184-7.742M112.266 136.293l4.058-6.7" stroke-width="1.2" stroke="#f00" stroke-miterlimit="10" fill="none"/><path d="M116.324 129.594l4.06-6.696" stroke-width="1.2" stroke="#000" stroke-miterlimit="10" fill="none"/><path d="M108.266 130.793h8v11h-8zm0 0" fill="#fff"/><use xlink:href="#a" x="108.266" y="139.456" fill="#f00"/><path d="M121.63 121.54l-5.778-5.29" stroke-width="1.2" stroke="#000" stroke-miterlimit="10" fill="none"/><path d="M115.852 116.25l-5.778-5.29" stroke-width="1.2" stroke="#f00" stroke-miterlimit="10" fill="none"/><path d="M119.14 124.258l-5.777-5.29" stroke-width="1.2" stroke="#000" stroke-miterlimit="10" fill="none"/><path d="M113.363 118.97l-5.777-5.29" stroke-width="1.2" stroke="#f00" stroke-miterlimit="10" fill="none"/><path d="M120.383 122.898l12.63-9.273" stroke-width="1.2" stroke="#000" stroke-miterlimit="10" fill="none"/><path d="M100.828 106.82h8v11h-8zm0 0" fill="#fff"/><use xlink:href="#a" x="100.828" y="115.483" fill="#f00"/><path d="M133.012 113.625l15.21-3.73M148.223 109.895l15.484 2.37M149.215 113.773l12.387 1.9M163.707 112.266l13.395 8.117M177.102 120.383l9.273 12.63" stroke-width="1.2" stroke="#000" stroke-miterlimit="10" fill="none"/><path d="M177.102 120.383m2.378-1.824l-.765-.708m3.148-1.122l-1.54-1.41m3.92-.418l-2.31-2.113m4.688.284l-3.077-2.816m5.457.988l-3.848-3.52m4.567 2.97l-4.08-3.73" stroke="#000" stroke-miterlimit="10" fill="none"/><path d="M186.375 133.012l3.73 15.21" stroke-width="1.2" stroke="#000" stroke-miterlimit="10" fill="none"/><path d="M186.375 133.012l15.36-4.125-2.34-5.008zm0 0"/><path d="M190.105 148.223l-1.187 7.742" stroke-width="1.2" stroke="#000" stroke-miterlimit="10" fill="none"/><path d="M188.918 155.965l-1.184 7.742M187.734 163.707l-4.058 6.7" stroke-width="1.2" stroke="#f00" stroke-miterlimit="10" fill="none"/><path d="M183.676 170.406l-4.06 6.696" stroke-width="1.2" stroke="#000" stroke-miterlimit="10" fill="none"/><path d="M183.734 158.207h8v11h-8zm0 0" fill="#fff"/><use xlink:href="#a" x="183.734" y="166.87" fill="#f00"/><path d="M178.37 178.46l5.778 5.29" stroke-width="1.2" stroke="#000" stroke-miterlimit="10" fill="none"/><path d="M184.148 183.75l5.778 5.29" stroke-width="1.2" stroke="#f00" stroke-miterlimit="10" fill="none"/><path d="M180.86 175.742l5.777 5.29" stroke-width="1.2" stroke="#000" stroke-miterlimit="10" fill="none"/><path d="M186.637 181.03l5.777 5.29" stroke-width="1.2" stroke="#f00" stroke-miterlimit="10" fill="none"/><path d="M179.617 177.102l-12.63 9.273" stroke-width="1.2" stroke="#000" stroke-miterlimit="10" fill="none"/><path d="M187.172 182.18h8v11h-8zm0 0" fill="#fff"/><use xlink:href="#a" x="187.172" y="190.843" fill="#f00"/><path d="M166.988 186.375l-15.21 3.73M151.777 190.105l-15.484-2.37M150.785 186.227l-12.387-1.9" stroke-width="1.2" stroke="#000" stroke-miterlimit="10" fill="none"/><path d="M200.566 126.383l6.418 4.488" stroke-width="1.2" stroke="#00f" stroke-miterlimit="10" fill="none"/><path d="M206.984 130.87l6.418 4.49" stroke-width="1.2" stroke="#cc0" stroke-miterlimit="10" fill="none"/><path d="M193.566 120.883h14v11h-14zm0 0" fill="#fff"/><g fill="#00f"><use xlink:href="#b" x="193.566" y="129.546"/><use xlink:href="#c" x="200.544" y="129.546"/></g><path d="M211.89 134.3l-4.488 6.423" stroke-width="1.2" stroke="#cc0" stroke-miterlimit="10" fill="none"/><path d="M207.402 140.723l-4.488 6.418" stroke-width="1.2" stroke="#f00" stroke-miterlimit="10" fill="none"/><path d="M214.914 136.414l-4.488 6.418" stroke-width="1.2" stroke="#cc0" stroke-miterlimit="10" fill="none"/><path d="M210.426 142.832l-4.488 6.418" stroke-width="1.2" stroke="#f00" stroke-miterlimit="10" fill="none"/><path d="M214.914 136.414l4.488-6.418" stroke-width="1.2" stroke="#cc0" stroke-miterlimit="10" fill="none"/><path d="M219.402 129.996l4.49-6.418" stroke-width="1.2" stroke="#f00" stroke-miterlimit="10" fill="none"/><path d="M211.89 134.3l4.49-6.417" stroke-width="1.2" stroke="#cc0" stroke-miterlimit="10" fill="none"/><path d="M216.38 127.883l4.487-6.418" stroke-width="1.2" stroke="#f00" stroke-miterlimit="10" fill="none"/><path d="M213.402 135.36l6.418 4.488" stroke-width="1.2" stroke="#cc0" stroke-miterlimit="10" fill="none"/><path d="M219.82 139.848l6.418 4.488" stroke-width="1.2" stroke="#000" stroke-miterlimit="10" fill="none"/><path d="M210.402 129.86h6v11h-6zm0 0" fill="#fff"/><use xlink:href="#d" x="210.402" y="138.522" fill="#cc0"/><path d="M196.426 142.695h8v11h-8zm0 0" fill="#fff"/><use xlink:href="#a" x="196.426" y="151.358" fill="#f00"/><path d="M218.38 117.02h8v11h-8zm0 0" fill="#fff"/><use xlink:href="#a" x="218.379" y="125.683" fill="#f00"/><path d="M226.238 144.336l-1.355 15.605M229.777 146.215L228.69 158.7M240.43 137.707l-14.192 6.63M224.883 159.94l12.84 8.978M237.723 168.918l14.19-6.63M237.582 164.914l11.352-5.305M251.914 162.29l1.356-15.606M251.914 162.29l12.836 8.976M253.27 146.684l-12.84-8.977M249.87 148.805l-10.268-7.18" stroke-width="1.2" stroke="#000" stroke-miterlimit="10" fill="none"/><path d="M99.434 173.617l-6.418-4.488" stroke-width="1.2" stroke="#00f" stroke-miterlimit="10" fill="none"/><path d="M93.016 169.13l-6.418-4.49" stroke-width="1.2" stroke="#cc0" stroke-miterlimit="10" fill="none"/><path d="M92.434 168.117h14v11h-14zm0 0" fill="#fff"/><g fill="#00f"><use xlink:href="#b" x="92.434" y="176.78"/><use xlink:href="#c" x="99.411" y="176.78"/></g><path d="M88.11 165.7l4.488-6.423" stroke-width="1.2" stroke="#cc0" stroke-miterlimit="10" fill="none"/><path d="M92.598 159.277l4.488-6.418" stroke-width="1.2" stroke="#f00" stroke-miterlimit="10" fill="none"/><path d="M85.086 163.586l4.488-6.418" stroke-width="1.2" stroke="#cc0" stroke-miterlimit="10" fill="none"/><path d="M89.574 157.168l4.49-6.418" stroke-width="1.2" stroke="#f00" stroke-miterlimit="10" fill="none"/><path d="M85.086 163.586l-4.488 6.418" stroke-width="1.2" stroke="#cc0" stroke-miterlimit="10" fill="none"/><path d="M80.598 170.004l-4.49 6.418" stroke-width="1.2" stroke="#f00" stroke-miterlimit="10" fill="none"/><path d="M88.11 165.7l-4.49 6.417" stroke-width="1.2" stroke="#cc0" stroke-miterlimit="10" fill="none"/><path d="M83.62 172.117l-4.487 6.418" stroke-width="1.2" stroke="#f00" stroke-miterlimit="10" fill="none"/><path d="M86.598 164.64l-6.418-4.488" stroke-width="1.2" stroke="#cc0" stroke-miterlimit="10" fill="none"/><path d="M80.18 160.152l-6.418-4.488" stroke-width="1.2" stroke="#000" stroke-miterlimit="10" fill="none"/><path d="M83.598 159.14h6v11h-6zm0 0" fill="#fff"/><use xlink:href="#d" x="83.598" y="167.804" fill="#cc0"/><path d="M91.574 146.305h8v11h-8zm0 0" fill="#fff"/><use xlink:href="#a" x="91.574" y="154.968" fill="#f00"/><path d="M69.62 171.98h8v11h-8zm0 0" fill="#fff"/><use xlink:href="#a" x="69.621" y="180.644" fill="#f00"/><path d="M73.762 155.664l1.355-15.605M70.223 153.785L71.31 141.3M59.57 162.293l14.192-6.63M75.117 140.06l-12.84-8.978M62.277 131.082l-14.19 6.63M62.418 135.086l-11.352 5.305M48.086 137.71l-1.356 15.606M48.086 137.71l-12.836-8.976M46.73 153.316l12.84 8.977M50.13 151.195l10.268 7.18" stroke-width="1.2" stroke="#000" stroke-miterlimit="10" fill="none"/></g></svg>