<svg xmlns="http://www.w3.org/2000/svg" xmlns:xlink="http://www.w3.org/1999/xlink" width="300pt" height="300pt" viewBox="0 0 300 300"><defs><symbol overflow="visible"><path d="M.453 1.594v-7.938h4.5v7.938zm.5-.5h3.5v-6.938h-3.5zm0 0"/></symbol><symbol overflow="visible" id="a"><path d="M3.547-5.953c-.65 0-1.164.242-1.547.72-.375.48-.563 1.13-.563 1.952 0 .835.188 1.49.563 1.967.383.48.898.72 1.547.72.644 0 1.156-.24 1.53-.72.376-.476.564-1.132.564-1.968 0-.822-.187-1.474-.562-1.954-.375-.477-.887-.72-1.53-.72zm0-.734c.914 0 1.648.312 2.203.937.55.617.828 1.438.828 2.47 0 1.042-.277 1.87-.828 2.483-.555.617-1.29.922-2.203.922-.93 0-1.668-.305-2.22-.922C.774-1.41.5-2.237.5-3.28c0-1.033.273-1.853.828-2.47.55-.625 1.29-.938 2.22-.938zm0 0"/></symbol><symbol overflow="visible" id="b"><path d="M.89-6.563h.876v2.688H5v-2.688h.89V0H5v-3.125H1.766V0H.89zm0 0"/></symbol></defs><g><path fill="#fff" d="M0 0h300v300H0z"/><path d="M143.19 164.316l-12.15-.843" stroke-width="1.2" stroke="#f00" stroke-miterlimit="10" fill="none"/><path d="M131.04 163.473l-12.157-.84M156.81 144.102L150 154.207" stroke-width="1.2" stroke="#000" stroke-miterlimit="10" fill="none"/><path d="M150 154.207l-6.81 10.11" stroke-width="1.2" stroke="#f00" stroke-miterlimit="10" fill="none"/><path d="M139.19 158.816h8v11h-8zm0 0" fill="#fff"/><use xlink:href="#a" x="139.191" y="167.479" fill="#f00"/><path d="M118.883 162.633l-10.7-21.9M112.66 162.96l-8.558-17.52M105.27 182.844l13.613-20.21M108.184 140.734L83.87 139.05M108.184 140.734l13.613-20.21M83.87 139.05l-5.347-10.945" stroke-width="1.2" stroke="#000" stroke-miterlimit="10" fill="none"/><path d="M78.523 128.105l-5.347-10.95" stroke-width="1.2" stroke="#f00" stroke-miterlimit="10" fill="none"/><path d="M83.87 139.05L70.26 159.267M87.266 144.277l-10.89 16.168" stroke-width="1.2" stroke="#000" stroke-miterlimit="10" fill="none"/><path d="M58.176 111.656h15v11h-15zm0 0" fill="#fff"/><g fill="#f00"><use xlink:href="#b" x="58.176" y="120.319"/><use xlink:href="#a" x="65.19" y="120.319"/></g><path d="M70.258 159.266l-12.156-.844" stroke-width="1.2" stroke="#000" stroke-miterlimit="10" fill="none"/><path d="M58.102 158.422l-12.153-.84" stroke-width="1.2" stroke="#f00" stroke-miterlimit="10" fill="none"/><path d="M70.258 159.266l10.7 21.894" stroke-width="1.2" stroke="#000" stroke-miterlimit="10" fill="none"/><path d="M45.95 157.582l-5.352-10.95" stroke-width="1.2" stroke="#f00" stroke-miterlimit="10" fill="none"/><path d="M40.598 146.633l-5.348-10.95" stroke-width="1.2" stroke="#000" stroke-miterlimit="10" fill="none"/><path d="M41.95 152.082h8v11h-8zm0 0" fill="#fff"/><use xlink:href="#a" x="41.949" y="160.745" fill="#f00"/><path d="M80.957 181.16l-6.81 10.106" stroke-width="1.2" stroke="#000" stroke-miterlimit="10" fill="none"/><path d="M74.148 191.266l-6.804 10.105" stroke-width="1.2" stroke="#f00" stroke-miterlimit="10" fill="none"/><path d="M80.957 181.16l24.313 1.684M83.785 175.61l19.45 1.347" stroke-width="1.2" stroke="#000" stroke-miterlimit="10" fill="none"/><path d="M52.344 195.87h15v11h-15zm0 0" fill="#fff"/><g fill="#f00"><use xlink:href="#b" x="52.344" y="204.534"/><use xlink:href="#a" x="59.358" y="204.534"/></g><path d="M124.375 119.266l-5.352-10.95" stroke-width="1.2" stroke="#000" stroke-miterlimit="10" fill="none"/><path d="M119.023 108.316l-5.347-10.95" stroke-width="1.2" stroke="#f00" stroke-miterlimit="10" fill="none"/><path d="M119.223 121.78l-5.352-10.948" stroke-width="1.2" stroke="#000" stroke-miterlimit="10" fill="none"/><path d="M113.87 110.832l-5.347-10.945" stroke-width="1.2" stroke="#f00" stroke-miterlimit="10" fill="none"/><path d="M121.797 120.523l24.312 1.684" stroke-width="1.2" stroke="#000" stroke-miterlimit="10" fill="none"/><path d="M103.102 93.13h8v11h-8zm0 0" fill="#fff"/><use xlink:href="#a" x="103.102" y="101.792" fill="#f00"/><path d="M146.11 122.207l10.7 21.895M142.027 126.914l8.56 17.516M156.81 144.102l24.307 1.683M181.117 145.785l10.7 21.9M187.34 145.457l8.558 17.52M194.73 125.574l-13.613 20.21M191.816 167.684l24.313 1.683M216.13 169.367l13.612-20.215M212.734 164.14l10.89-16.167M229.742 149.152l12.156.844" stroke-width="1.2" stroke="#000" stroke-miterlimit="10" fill="none"/><path d="M241.898 149.996l12.153.84" stroke-width="1.2" stroke="#f00" stroke-miterlimit="10" fill="none"/><path d="M229.742 149.152l-10.7-21.894" stroke-width="1.2" stroke="#000" stroke-miterlimit="10" fill="none"/><path d="M254.05 150.836l5.352 10.95" stroke-width="1.2" stroke="#f00" stroke-miterlimit="10" fill="none"/><path d="M259.402 161.785l5.348 10.945" stroke-width="1.2" stroke="#000" stroke-miterlimit="10" fill="none"/><path d="M250.05 145.336h8v11h-8zm0 0" fill="#fff"/><use xlink:href="#a" x="250.051" y="153.999" fill="#f00"/><path d="M219.043 127.258l-24.313-1.684M216.215 132.81l-19.45-1.35" stroke-width="1.2" stroke="#000" stroke-miterlimit="10" fill="none"/></g></svg>