<svg xmlns="http://www.w3.org/2000/svg" xmlns:xlink="http://www.w3.org/1999/xlink" width="300pt" height="300pt" viewBox="0 0 300 300"><defs><symbol overflow="visible"><path d="M.594 2.125V-8.47h6V2.126zm.672-.672h4.671V-7.78h-4.67zm0 0"/></symbol><symbol overflow="visible" id="a"><path d="M4.734-7.953c-.867 0-1.554.324-2.062.97-.5.635-.75 1.51-.75 2.624 0 1.094.25 1.965.75 2.61.508.637 1.195.953 2.062.953.852 0 1.532-.316 2.032-.953.507-.645.765-1.516.765-2.61 0-1.113-.257-1.988-.764-2.624-.5-.645-1.18-.97-2.032-.97zm0-.953c1.22 0 2.192.414 2.922 1.234.74.824 1.11 1.93 1.11 3.313 0 1.376-.37 2.477-1.11 3.298C6.926-.24 5.953.17 4.734.17c-1.23 0-2.214-.41-2.953-1.234C1.04-1.882.673-2.984.673-4.36c0-1.382.367-2.488 1.11-3.312.738-.82 1.722-1.234 2.952-1.234zm0 0"/></symbol><symbol overflow="visible" id="b"><path d="M1.172-8.75H2.36v3.594h4.296V-8.75h1.188V0H6.656v-4.172H2.36V0H1.17zm0 0"/></symbol></defs><g><path fill="#fff" d="M0 0h300v300H0z"/><path d="M129.402 166.984l-14.71-1.695" stroke-width="1.2" stroke="#f00" stroke-miterlimit="10" fill="none"/><path d="M114.69 165.29l-14.713-1.7M147.055 143.2l-8.828 11.894" stroke-width="1.2" stroke="#000" stroke-miterlimit="10" fill="none"/><path d="M138.227 155.094l-8.825 11.89" stroke-width="1.2" stroke="#f00" stroke-miterlimit="10" fill="none"/><path d="M124.402 159.984h10v14h-10zm0 0" fill="#fff"/><use xlink:href="#a" x="124.402" y="171.123" fill="#f00"/><path d="M99.977 163.59l-11.77-27.18M92.406 163.64L82.988 141.9M82.324 187.375l17.653-23.785M88.207 136.41l17.652-23.785M88.207 136.41l-29.426-3.394M105.86 112.625l29.42 3.395" stroke-width="1.2" stroke="#000" stroke-miterlimit="10" fill="none"/><path d="M135.28 116.02l21.853-20.668-8.395-6.23zm0 0"/><path d="M135.28 116.02l11.775 27.18" stroke-width="1.2" stroke="#000" stroke-miterlimit="10" fill="none"/><path d="M143.934 85.234h19v14h-19zm0 0" fill="#fff"/><g fill="#f00"><use xlink:href="#a" x="143.934" y="96.373"/><use xlink:href="#b" x="153.379" y="96.373"/></g><path d="M147.055 143.2l28.824 8.59 1.198-10.388zm0 0"/><path d="M176.477 146.594l11.773 27.18M184.05 146.543l9.42 21.742M194.13 122.813l-17.653 23.78M188.25 173.773l29.426 3.395M217.676 177.168l5.883 13.59" stroke-width="1.2" stroke="#000" stroke-miterlimit="10" fill="none"/><path d="M223.56 190.758l5.885 13.59" stroke-width="1.2" stroke="#f00" stroke-miterlimit="10" fill="none"/><path d="M217.676 177.168l17.648-23.78M213.844 170.637l14.12-19.028" stroke-width="1.2" stroke="#000" stroke-miterlimit="10" fill="none"/><path d="M220.445 197.348h19v14h-19zm0 0" fill="#fff"/><g fill="#f00"><use xlink:href="#a" x="220.445" y="208.486"/><use xlink:href="#b" x="229.891" y="208.486"/></g><path d="M235.324 153.387l14.715 1.695" stroke-width="1.2" stroke="#000" stroke-miterlimit="10" fill="none"/><path d="M250.04 155.082l14.71 1.7" stroke-width="1.2" stroke="#f00" stroke-miterlimit="10" fill="none"/><path d="M235.324 153.387l-11.77-27.18" stroke-width="1.2" stroke="#000" stroke-miterlimit="10" fill="none"/><path d="M255.75 149.78h19v14h-19zm0 0" fill="#fff"/><g fill="#f00"><use xlink:href="#a" x="255.75" y="160.92"/><use xlink:href="#b" x="265.195" y="160.92"/></g><path d="M223.555 126.207l-29.426-3.394M219.813 132.79l-23.54-2.716M58.78 133.016l-5.885-13.59" stroke-width="1.2" stroke="#000" stroke-miterlimit="10" fill="none"/><path d="M52.895 119.426l-5.883-13.59" stroke-width="1.2" stroke="#f00" stroke-miterlimit="10" fill="none"/><path d="M58.78 133.016L41.13 156.8M62.613 139.547l-14.12 19.027" stroke-width="1.2" stroke="#000" stroke-miterlimit="10" fill="none"/><path d="M28.012 98.836h19v14h-19zm0 0" fill="#fff"/><g fill="#f00"><use xlink:href="#b" x="28.012" y="109.975"/><use xlink:href="#a" x="37.035" y="109.975"/></g><path d="M41.13 156.8L52.9 183.98M52.902 183.98l-8.828 11.89" stroke-width="1.2" stroke="#000" stroke-miterlimit="10" fill="none"/><path d="M44.074 195.87l-8.824 11.896" stroke-width="1.2" stroke="#f00" stroke-miterlimit="10" fill="none"/><path d="M52.902 183.98l29.422 3.395M56.645 177.395l23.54 2.718" stroke-width="1.2" stroke="#000" stroke-miterlimit="10" fill="none"/><path d="M16.25 200.766h19v14h-19zm0 0" fill="#fff"/><g fill="#f00"><use xlink:href="#b" x="16.25" y="211.904"/><use xlink:href="#a" x="25.273" y="211.904"/></g></g></svg>