<svg xmlns="http://www.w3.org/2000/svg" xmlns:xlink="http://www.w3.org/1999/xlink" width="300pt" height="300pt" viewBox="0 0 300 300"><defs><symbol overflow="visible"><path d="M.547 1.938V-7.75h5.5v9.688zm.625-.61h4.266v-8.47H1.171zm0 0"/></symbol><symbol overflow="visible" id="a"><path d="M4.328-7.28c-.78 0-1.406.296-1.875.89-.46.585-.687 1.382-.687 2.39 0 1.012.226 1.813.687 2.406.47.586 1.094.875 1.875.875.79 0 1.414-.288 1.875-.874.457-.593.688-1.394.688-2.406 0-1.008-.23-1.805-.687-2.39-.46-.594-1.086-.89-1.875-.89zm0-.892c1.125 0 2.024.383 2.703 1.14C7.708-6.28 8.048-5.27 8.048-4c0 1.262-.34 2.273-1.016 3.03C6.353-.22 5.454.157 4.33.157S2.3-.22 1.625-.97c-.668-.75-1-1.757-1-3.03 0-1.27.332-2.28 1-3.03.676-.76 1.578-1.142 2.703-1.142zm0 0"/></symbol><symbol overflow="visible" id="b"><path d="M1.078-8.016h1.094v3.282H6.11v-3.282h1.077V0H6.11v-3.813H2.17V0H1.078zm0 0"/></symbol></defs><g><path fill="#fff" d="M0 0h300v300H0z"/><path d="M148.402 165.19l-12.75-.92" stroke-width="1.2" stroke="#f00" stroke-miterlimit="10" fill="none"/><path d="M135.652 164.27l-12.75-.922M162.75 144.027l-7.172 10.582" stroke-width="1.2" stroke="#000" stroke-miterlimit="10" fill="none"/><path d="M155.578 154.61l-7.176 10.58" stroke-width="1.2" stroke="#f00" stroke-miterlimit="10" fill="none"/><path d="M144.402 158.69h9v13h-9zm0 0" fill="#fff"/><use xlink:href="#a" x="144.402" y="168.593" fill="#f00"/><path d="M122.902 163.348L111.75 140.34M116.375 163.672l-8.922-18.406M108.555 184.508l14.347-21.16M111.75 140.34l14.348-21.16M111.75 140.34l-25.5-1.844M128.805 117.867l-5.578-11.504" stroke-width="1.2" stroke="#000" stroke-miterlimit="10" fill="none"/><path d="M123.227 106.363l-5.58-11.5" stroke-width="1.2" stroke="#f00" stroke-miterlimit="10" fill="none"/><path d="M123.39 120.492l-5.578-11.504" stroke-width="1.2" stroke="#000" stroke-miterlimit="10" fill="none"/><path d="M117.813 108.988l-5.575-11.504" stroke-width="1.2" stroke="#f00" stroke-miterlimit="10" fill="none"/><path d="M126.098 119.18l25.5 1.843" stroke-width="1.2" stroke="#000" stroke-miterlimit="10" fill="none"/><path d="M105.945 89.672h9v13h-9zm0 0" fill="#fff"/><use xlink:href="#a" x="105.945" y="99.573" fill="#f00"/><path d="M151.598 121.023l7.172-10.582" stroke-width="1.2" stroke="#000" stroke-miterlimit="10" fill="none"/><path d="M158.77 110.44l7.175-10.58" stroke-width="1.2" stroke="#f00" stroke-miterlimit="10" fill="none"/><path d="M151.598 121.023l11.152 23.004M147.3 125.95l8.923 18.402" stroke-width="1.2" stroke="#000" stroke-miterlimit="10" fill="none"/><path d="M157.945 93.36h17v13h-17zm0 0" fill="#fff"/><g fill="#f00"><use xlink:href="#a" x="157.945" y="103.261"/><use xlink:href="#b" x="166.346" y="103.261"/></g><path d="M162.75 144.027l25.5 1.844M188.25 145.87l11.152 23.01M194.777 145.547l8.922 18.406M202.598 124.71l-14.348 21.16M199.402 168.88l25.5 1.843M224.902 170.723l5.578 11.5" stroke-width="1.2" stroke="#000" stroke-miterlimit="10" fill="none"/><path d="M230.48 182.223l5.575 11.504" stroke-width="1.2" stroke="#f00" stroke-miterlimit="10" fill="none"/><path d="M224.902 170.723l14.348-21.164M221.36 165.23l11.476-16.93" stroke-width="1.2" stroke="#000" stroke-miterlimit="10" fill="none"/><path d="M228.055 187.227h17v13h-17zm0 0" fill="#fff"/><g fill="#f00"><use xlink:href="#a" x="228.055" y="197.128"/><use xlink:href="#b" x="236.455" y="197.128"/></g><path d="M239.25 149.56l12.75.92" stroke-width="1.2" stroke="#000" stroke-miterlimit="10" fill="none"/><path d="M252 150.48l12.75.922" stroke-width="1.2" stroke="#f00" stroke-miterlimit="10" fill="none"/><path d="M239.25 149.56l-11.152-23.005" stroke-width="1.2" stroke="#000" stroke-miterlimit="10" fill="none"/><path d="M256.75 144.902h17v13h-17zm0 0" fill="#fff"/><g fill="#f00"><use xlink:href="#a" x="256.75" y="154.804"/><use xlink:href="#b" x="265.15" y="154.804"/></g><path d="M228.098 126.555l-25.5-1.844M225.113 132.37l-20.398-1.475M86.25 138.496l-5.578-11.5" stroke-width="1.2" stroke="#000" stroke-miterlimit="10" fill="none"/><path d="M80.672 126.996l-5.574-11.504" stroke-width="1.2" stroke="#f00" stroke-miterlimit="10" fill="none"/><path d="M86.25 138.496L71.902 159.66M89.793 143.988l-11.477 16.93" stroke-width="1.2" stroke="#000" stroke-miterlimit="10" fill="none"/><path d="M58.098 108.992h17v13h-17zm0 0" fill="#fff"/><g fill="#f00"><use xlink:href="#b" x="58.098" y="118.894"/><use xlink:href="#a" x="66.122" y="118.894"/></g><path d="M71.902 159.66l-12.75-.922" stroke-width="1.2" stroke="#000" stroke-miterlimit="10" fill="none"/><path d="M59.152 158.738l-12.75-.922" stroke-width="1.2" stroke="#f00" stroke-miterlimit="10" fill="none"/><path d="M71.902 159.66l11.153 23.004" stroke-width="1.2" stroke="#000" stroke-miterlimit="10" fill="none"/><path d="M46.402 157.816l-5.574-11.504" stroke-width="1.2" stroke="#f00" stroke-miterlimit="10" fill="none"/><path d="M40.828 146.313L35.25 134.81" stroke-width="1.2" stroke="#000" stroke-miterlimit="10" fill="none"/><path d="M42.402 151.316h9v13h-9zm0 0" fill="#fff"/><use xlink:href="#a" x="42.402" y="161.218" fill="#f00"/><path d="M83.055 182.664l-7.172 10.582" stroke-width="1.2" stroke="#000" stroke-miterlimit="10" fill="none"/><path d="M75.883 193.246l-7.172 10.582" stroke-width="1.2" stroke="#f00" stroke-miterlimit="10" fill="none"/><path d="M83.055 182.664l25.5 1.844M86.04 176.848l20.4 1.476" stroke-width="1.2" stroke="#000" stroke-miterlimit="10" fill="none"/><path d="M51.71 197.328h17v13h-17zm0 0" fill="#fff"/><g fill="#f00"><use xlink:href="#b" x="51.711" y="207.229"/><use xlink:href="#a" x="59.735" y="207.229"/></g></g></svg>