<svg xmlns="http://www.w3.org/2000/svg" xmlns:xlink="http://www.w3.org/1999/xlink" width="300pt" height="300pt" viewBox="0 0 300 300"><defs><symbol overflow="visible"><path d="M.797 2.828v-14.11h8V2.83zm.906-.89h6.203v-12.33H1.703zm0 0"/></symbol><symbol overflow="visible" id="a"><path d="M1.578-11.672h2.125l5.172 9.766v-9.766h1.53V0H8.282L3.11-9.766V0H1.577zm0 0"/></symbol><symbol overflow="visible" id="b"><path d="M6.313-10.594c-1.15 0-2.06.43-2.735 1.28-.68.857-1.015 2.017-1.015 3.486 0 1.47.335 2.633 1.015 3.484.676.856 1.586 1.28 2.735 1.28 1.144.002 2.05-.424 2.718-1.28.665-.85 1-2.015 1-3.484 0-1.47-.335-2.63-1-3.484-.667-.852-1.573-1.282-2.717-1.282zm0-1.28c1.632 0 2.94.546 3.92 1.64.978 1.093 1.47 2.562 1.47 4.406 0 1.844-.492 3.32-1.47 4.422-.98 1.093-2.288 1.64-3.92 1.64-1.65 0-2.96-.546-3.938-1.64-.98-1.102-1.47-2.578-1.47-4.422 0-1.844.49-3.313 1.47-4.406.977-1.094 2.29-1.64 3.938-1.64zm0 0"/></symbol><symbol overflow="visible" id="c"><path d="M1.578-11.672h1.578v4.78H8.89v-4.78h1.58V0H8.89v-5.563H3.157V0H1.578zm0 0"/></symbol><symbol overflow="visible" id="d"><path d="M10.313-10.766v1.657c-.532-.488-1.102-.85-1.704-1.093-.606-.25-1.247-.375-1.922-.375-1.336 0-2.356.406-3.063 1.22-.71.81-1.063 1.99-1.063 3.53 0 1.543.352 2.72 1.063 3.53.707.814 1.727 1.22 3.063 1.22.675 0 1.316-.117 1.92-.36.603-.25 1.173-.617 1.704-1.11v1.642c-.554.375-1.14.664-1.765.86-.617.187-1.266.28-1.953.28-1.762 0-3.153-.54-4.172-1.625C1.41-2.474.906-3.954.906-5.83c0-1.875.504-3.348 1.516-4.422 1.02-1.082 2.41-1.625 4.172-1.625.695 0 1.35.094 1.968.28.626.18 1.208.454 1.75.83zm0 0"/></symbol><symbol overflow="visible" id="e"><path d="M1.516-12.156h1.437V0H1.516zm0 0"/></symbol></defs><g><path fill="#fff" d="M0 0h300v300H0z"/><path d="M30.945 148.047l19.094 1.07" stroke-width="1.2" stroke="#000" stroke-miterlimit="10" fill="none"/><path d="M50.04 149.117l19.093 1.07M69.133 150.188l10.36 16.078" stroke-width="1.2" stroke="#00f" stroke-miterlimit="10" fill="none"/><path d="M79.492 166.266l10.36 16.074M93.313 120.547l-12.09 14.82" stroke-width="1.2" stroke="#000" stroke-miterlimit="10" fill="none"/><path d="M81.223 135.367l-12.09 14.82" stroke-width="1.2" stroke="#00f" stroke-miterlimit="10" fill="none"/><path d="M63.133 140.688h12v19h-12zm0 0" fill="#fff"/><use xlink:href="#a" x="63.133" y="155.539" fill="#00f"/><path d="M89.852 182.34l36.98-9.766M91.254 172.664l29.582-7.816M126.832 172.574l2.14-38.19M126.832 172.574l29.64 24.176M128.973 134.383l29.812-23.965M126.316 124.973l23.848-19.172M93.313 120.547l35.66 13.836M158.785 110.418l-5.85-37.8M152.934 72.617l-35.66-13.836M146.113 79.625l-28.527-11.07M117.273 58.78L87.465 82.747M87.465 82.746l5.847 37.8M96.94 85.152l4.68 30.24M156.473 196.75l36.984-9.766M162.47 204.477l29.585-7.817M154.336 234.94l2.137-38.19M193.457 186.984l20.715 32.153M193.457 186.984l13.832-35.66M213.922 223.63l19.094 1.07" stroke-width="1.2" stroke="#000" stroke-miterlimit="10" fill="none"/><path d="M233.016 224.7l19.097 1.066" stroke-width="1.2" stroke="#f00" stroke-miterlimit="10" fill="none"/><path d="M214.426 214.645l19.094 1.066" stroke-width="1.2" stroke="#000" stroke-miterlimit="10" fill="none"/><path d="M233.52 215.71l19.093 1.07" stroke-width="1.2" stroke="#f00" stroke-miterlimit="10" fill="none"/><path d="M214.172 219.137l-12.086 14.82" stroke-width="1.2" stroke="#000" stroke-miterlimit="10" fill="none"/><path d="M202.086 233.957l-12.09 14.82" stroke-width="1.2" stroke="#00f" stroke-miterlimit="10" fill="none"/><path d="M246.363 211.773h13v19h-13zm0 0" fill="#fff"/><use xlink:href="#b" x="246.363" y="226.625" fill="#f00"/><path d="M189.996 248.777l-17.832-6.918" stroke-width="1.2" stroke="#00f" stroke-miterlimit="10" fill="none"/><path d="M172.164 241.86l-17.828-6.92" stroke-width="1.2" stroke="#000" stroke-miterlimit="10" fill="none"/><path d="M177.996 239.277h24v19h-24zm0 0" fill="#fff"/><g fill="#00f"><use xlink:href="#a" x="177.996" y="254.129"/><use xlink:href="#c" x="189.965" y="254.129"/></g><path d="M151.898 231.156l-16.078 10.36" stroke-width="1.2" stroke="#000" stroke-miterlimit="10" fill="none"/><path d="M135.82 241.516l-16.074 10.36" stroke-width="1.2" stroke="#f00" stroke-miterlimit="10" fill="none"/><path d="M156.773 238.723l-16.078 10.36" stroke-width="1.2" stroke="#000" stroke-miterlimit="10" fill="none"/><path d="M140.695 249.082l-16.078 10.36" stroke-width="1.2" stroke="#f00" stroke-miterlimit="10" fill="none"/><path d="M109.184 246.16h13v19h-13zm0 0" fill="#fff"/><use xlink:href="#b" x="109.184" y="261.012" fill="#f00"/><path d="M207.29 151.324l37.8-5.85M209.695 141.844l30.24-4.68M183.324 121.512l23.965 29.812M245.09 145.473l13.836-35.66M245.09 145.473l11.984 14.906" stroke-width="1.2" stroke="#000" stroke-miterlimit="10" fill="none"/><path d="M257.074 160.38l11.98 14.905" stroke-width="1.2" stroke="#0c0" stroke-miterlimit="10" fill="none"/><path d="M258.926 109.813l-23.965-29.81M249.516 112.473L230.344 88.62M234.96 80.004l-37.8 5.848M234.96 80.004l6.92-17.832" stroke-width="1.2" stroke="#000" stroke-miterlimit="10" fill="none"/><path d="M241.88 62.172l6.917-17.832" stroke-width="1.2" stroke="#0c0" stroke-miterlimit="10" fill="none"/><path d="M197.16 85.852l-13.836 35.66M204.168 92.672l-11.07 28.527" stroke-width="1.2" stroke="#000" stroke-miterlimit="10" fill="none"/><path d="M240.797 34.84h16v19h-16zm0 0" fill="#fff"/><g fill="#0c0"><use xlink:href="#d" x="240.797" y="49.691"/><use xlink:href="#e" x="251.969" y="49.691"/></g><path d="M261.055 165.785h16v19h-16zm0 0" fill="#fff"/><g fill="#0c0"><use xlink:href="#d" x="261.055" y="180.637"/><use xlink:href="#e" x="272.227" y="180.637"/></g></g></svg>