<svg xmlns="http://www.w3.org/2000/svg" xmlns:xlink="http://www.w3.org/1999/xlink" width="300pt" height="300pt" viewBox="0 0 300 300"><defs><symbol overflow="visible"><path d="M.453 1.594v-7.938h4.5v7.938zm.5-.5h3.5v-6.938h-3.5zm0 0"/></symbol><symbol overflow="visible" id="a"><path d="M3.547-5.953c-.65 0-1.164.242-1.547.72-.375.48-.563 1.13-.563 1.952 0 .835.188 1.49.563 1.967.383.48.898.72 1.547.72.644 0 1.156-.24 1.53-.72.376-.476.564-1.132.564-1.968 0-.822-.187-1.474-.562-1.954-.375-.477-.887-.72-1.53-.72zm0-.734c.914 0 1.648.312 2.203.937.55.617.828 1.438.828 2.47 0 1.042-.277 1.87-.828 2.483-.555.617-1.29.922-2.203.922-.93 0-1.668-.305-2.22-.922C.774-1.41.5-2.237.5-3.28c0-1.033.273-1.853.828-2.47.55-.625 1.29-.938 2.22-.938zm0 0"/></symbol><symbol overflow="visible" id="b"><path d="M.89-6.563h.876v2.688H5v-2.688h.89V0H5v-3.125H1.766V0H.89zm0 0"/></symbol></defs><g><path fill="#fff" d="M0 0h300v300H0z"/><path d="M264.75 162.645l-15.13-6.325M249.62 156.32l-13.034 9.942M245.98 154.246l-10.43 7.953M247.535 140.06l2.086 16.26M236.586 166.262l-15.13-6.32M236.586 166.262l2.086 16.26M220.29 158.406l-6.52 4.97" stroke-width="1.2" stroke="#000" stroke-miterlimit="10" fill="none"/><path d="M213.77 163.375l-6.52 4.97" stroke-width="1.2" stroke="#f00" stroke-miterlimit="10" fill="none"/><path d="M222.63 161.473l-6.52 4.968" stroke-width="1.2" stroke="#000" stroke-miterlimit="10" fill="none"/><path d="M216.11 166.44l-6.52 4.974" stroke-width="1.2" stroke="#f00" stroke-miterlimit="10" fill="none"/><path d="M221.457 159.94l-2.09-16.26" stroke-width="1.2" stroke="#000" stroke-miterlimit="10" fill="none"/><path d="M200.418 164.38h8v11h-8zm0 0" fill="#fff"/><use xlink:href="#a" x="200.418" y="173.042" fill="#f00"/><path d="M219.367 143.68l13.04-9.942M223.012 145.754l10.43-7.953M219.367 143.68l-15.125-6.325M232.406 133.738l15.13 6.32M232.406 133.738l-2.09-16.26M248.703 141.594l6.52-4.97" stroke-width="1.2" stroke="#000" stroke-miterlimit="10" fill="none"/><path d="M255.223 136.625l6.52-4.97" stroke-width="1.2" stroke="#f00" stroke-miterlimit="10" fill="none"/><path d="M246.363 138.527l6.52-4.968" stroke-width="1.2" stroke="#000" stroke-miterlimit="10" fill="none"/><path d="M252.883 133.56l6.52-4.974" stroke-width="1.2" stroke="#f00" stroke-miterlimit="10" fill="none"/><path d="M256.574 124.62h8v11h-8zm0 0" fill="#fff"/><use xlink:href="#a" x="256.574" y="133.284" fill="#f00"/><path d="M204.242 137.355l-13.04 9.942M191.203 147.297l-15.125-6.32M176.078 140.977l-13.04 9.937M163.04 150.914l-15.13-6.32M147.91 144.594l-15.125-6.324M147.887 140.402l-12.102-5.058M144.91 147.52l-12.1-5.06M132.785 138.27l-15.13-6.32M117.656 131.95l-13.04 9.94M104.617 141.89l-15.125-6.324M89.492 135.566l-13.04 9.942M76.453 145.508l-13.04 9.937M72.813 143.434l-10.434 7.953M77.488 149.57l-10.43 7.95M63.414 155.445l-13.035 9.942M50.38 165.387l-7.568-3.16" stroke-width="1.2" stroke="#000" stroke-miterlimit="10" fill="none"/><path d="M42.813 162.227l-7.563-3.16" stroke-width="1.2" stroke="#f00" stroke-miterlimit="10" fill="none"/><path d="M20.25 153.566h15v11h-15zm0 0" fill="#fff"/><g fill="#f00"><use xlink:href="#b" x="20.25" y="162.229"/><use xlink:href="#a" x="27.265" y="162.229"/></g></g></svg>