<svg xmlns="http://www.w3.org/2000/svg" xmlns:xlink="http://www.w3.org/1999/xlink" width="300pt" height="300pt" viewBox="0 0 300 300"><defs><symbol overflow="visible"><path d="M.547 1.938V-7.75h5.5v9.688zm.625-.61h4.266v-8.47H1.171zm0 0"/></symbol><symbol overflow="visible" id="a"><path d="M2.172-3.828V-.89h1.734c.582 0 1.016-.118 1.297-.36.28-.238.422-.61.422-1.11 0-.5-.14-.867-.422-1.11-.28-.237-.715-.358-1.297-.358zm0-3.297v2.422h1.594c.53 0 .925-.098 1.187-.297.258-.207.39-.516.39-.922s-.132-.707-.39-.906c-.262-.195-.656-.297-1.187-.297zm-1.094-.89h2.766c.832 0 1.472.17 1.922.515.445.344.67.836.67 1.47.002.49-.116.882-.342 1.17-.23.282-.57.462-1.016.532.53.117.942.355 1.234.72.3.366.454.82.454 1.358 0 .72-.246 1.277-.735 1.672C5.55-.19 4.86 0 3.954 0H1.078zm0 0"/></symbol><symbol overflow="visible" id="b"><path d="M4.516-5.094c-.106-.062-.227-.11-.36-.14-.125-.032-.265-.047-.422-.047-.562 0-.996.182-1.296.546C2.144-4.367 2-3.848 2-3.172V0H1v-6.016h1v.938c.195-.363.46-.633.797-.813.332-.176.738-.266 1.22-.266.07 0 .143.008.217.015.082 0 .176.01.282.03zm0 0"/></symbol><symbol overflow="visible" id="c"><path d="M1.078-8.016h1.47l3.546 6.704v-6.704h1.062V0H5.688L2.124-6.703V0H1.078zm0 0"/></symbol><symbol overflow="visible" id="d"><path d="M1.078-8.016h1.094v3.282H6.11v-3.282h1.077V0H6.11v-3.813H2.17V0H1.078zm0 0"/></symbol><symbol overflow="visible" id="e"><path d="M4.328-7.28c-.78 0-1.406.296-1.875.89-.46.585-.687 1.382-.687 2.39 0 1.012.226 1.813.687 2.406.47.586 1.094.875 1.875.875.79 0 1.414-.288 1.875-.874.457-.593.688-1.394.688-2.406 0-1.008-.23-1.805-.687-2.39-.46-.594-1.086-.89-1.875-.89zm0-.892c1.125 0 2.024.383 2.703 1.14C7.708-6.28 8.048-5.27 8.048-4c0 1.262-.34 2.273-1.016 3.03C6.353-.22 5.454.157 4.33.157S2.3-.22 1.625-.97c-.668-.75-1-1.757-1-3.03 0-1.27.332-2.28 1-3.03.676-.76 1.578-1.142 2.703-1.142zm0 0"/></symbol></defs><g><path fill="#fff" d="M0 0h300v300H0z"/><path d="M35.25 215.047l10.848-7.707" stroke-width="1.2" stroke="#7f4d1a" stroke-miterlimit="10" fill="none"/><path d="M46.098 207.34l10.85-7.71" stroke-width="1.2" stroke="#000" stroke-miterlimit="10" fill="none"/><path d="M23.25 208.547h12v13h-12zm0 0" fill="#fff"/><g fill="#7f4d1a"><use xlink:href="#a" x="23.25" y="218.448"/><use xlink:href="#b" x="30.571" y="218.448"/></g><path d="M56.95 199.63l-2.505-26.5M62.934 196.39L60.93 175.19M81.148 210.71l-24.2-11.08M54.445 173.13l21.696-15.42M76.14 157.71l24.204 11.08M75.953 164.512l19.363 8.867M100.344 168.79l2.504 26.503M100.344 168.79l21.7-15.42M102.848 195.293l-21.7 15.418M97.05 191.727l-17.36 12.335M122.043 153.37l24.2 11.083M122.043 153.37l-2.504-26.5M128.027 150.133l-2.004-21.2M146.242 164.453l21.7-15.418M144.785 157.805l17.36-12.332M167.94 149.035l-1.252-13.25" stroke-width="1.2" stroke="#000" stroke-miterlimit="10" fill="none"/><path d="M166.688 135.785l-1.25-13.25" stroke-width="1.2" stroke="#00f" stroke-miterlimit="10" fill="none"/><path d="M167.94 149.035l24.205 11.082" stroke-width="1.2" stroke="#000" stroke-miterlimit="10" fill="none"/><path d="M165.438 122.535l-12.102-5.543" stroke-width="1.2" stroke="#00f" stroke-miterlimit="10" fill="none"/><path d="M153.336 116.992l-12.102-5.54" stroke-width="1.2" stroke="#000" stroke-miterlimit="10" fill="none"/><path d="M157.438 116.035h17v13h-17zm0 0" fill="#fff"/><g fill="#00f"><use xlink:href="#c" x="157.438" y="125.937"/><use xlink:href="#d" x="165.421" y="125.937"/></g><path d="M144.352 111.156l-1.25-13.25" stroke-width="1.2" stroke="#000" stroke-miterlimit="10" fill="none"/><path d="M143.102 97.906l-1.254-13.25" stroke-width="1.2" stroke="#f00" stroke-miterlimit="10" fill="none"/><path d="M138.117 111.746l-1.25-13.25" stroke-width="1.2" stroke="#000" stroke-miterlimit="10" fill="none"/><path d="M136.867 98.496l-1.254-13.25" stroke-width="1.2" stroke="#f00" stroke-miterlimit="10" fill="none"/><path d="M141.234 111.453L119.54 126.87" stroke-width="1.2" stroke="#000" stroke-miterlimit="10" fill="none"/><path d="M134.73 78.453h9v13h-9zm0 0" fill="#fff"/><use xlink:href="#e" x="134.73" y="88.354" fill="#f00"/><path d="M119.54 126.87l-24.204-11.08M95.336 115.79l-12.102-5.54" stroke-width="1.2" stroke="#000" stroke-miterlimit="10" fill="none"/><path d="M83.234 110.25l-12.1-5.543" stroke-width="1.2" stroke="#00f" stroke-miterlimit="10" fill="none"/><path d="M95.523 108.988l-9.683-4.433" stroke-width="1.2" stroke="#000" stroke-miterlimit="10" fill="none"/><path d="M85.84 104.555l-9.68-4.434" stroke-width="1.2" stroke="#00f" stroke-miterlimit="10" fill="none"/><path d="M90.31 120.375l-9.685-4.43" stroke-width="1.2" stroke="#000" stroke-miterlimit="10" fill="none"/><path d="M80.625 115.945l-9.68-4.433" stroke-width="1.2" stroke="#00f" stroke-miterlimit="10" fill="none"/><path d="M63.133 98.207h8v13h-8zm0 0" fill="#fff"/><use xlink:href="#c" x="63.133" y="108.108" fill="#00f"/><path d="M192.145 160.117l2.503 26.5M198.63 162.176l2.003 21.203M213.84 144.695l-21.695 15.422M194.648 186.617l24.204 11.082M218.852 197.7l21.695-15.423M217.39 191.05l17.36-12.335M240.547 182.277l12.1 5.543" stroke-width="1.2" stroke="#000" stroke-miterlimit="10" fill="none"/><path d="M252.648 187.82l12.102 5.54" stroke-width="1.2" stroke="#7f4d1a" stroke-miterlimit="10" fill="none"/><path d="M240.547 182.277l-2.504-26.5" stroke-width="1.2" stroke="#000" stroke-miterlimit="10" fill="none"/><path d="M258.75 186.86h12v13h-12zm0 0" fill="#fff"/><g fill="#7f4d1a"><use xlink:href="#a" x="258.75" y="196.761"/><use xlink:href="#b" x="266.071" y="196.761"/></g><path d="M238.043 155.777l-24.203-11.082M233.016 160.363l-19.36-8.863" stroke-width="1.2" stroke="#000" stroke-miterlimit="10" fill="none"/></g></svg>