<svg xmlns="http://www.w3.org/2000/svg" xmlns:xlink="http://www.w3.org/1999/xlink" width="300pt" height="300pt" viewBox="0 0 300 300"><defs><symbol overflow="visible"><path d="M.594 2.125V-8.47h6V2.126zm.672-.672h4.671V-7.78h-4.67zm0 0"/></symbol><symbol overflow="visible" id="a"><path d="M2.36-4.172V-.97h1.906c.632 0 1.1-.128 1.406-.39.312-.27.47-.675.47-1.218 0-.55-.158-.953-.47-1.203-.305-.26-.774-.392-1.406-.392zm0-3.61v2.64h1.75c.58 0 1.015-.108 1.296-.327.282-.218.422-.546.422-.983 0-.445-.14-.78-.422-1-.28-.22-.715-.328-1.297-.328zM1.17-8.75h3.03c.907 0 1.6.188 2.08.563.488.374.734.906.734 1.593 0 .543-.125.977-.375 1.297-.25.313-.617.508-1.093.578.582.126 1.035.388 1.36.782.32.4.484.89.484 1.485 0 .78-.265 1.387-.796 1.812C6.062-.21 5.3 0 4.312 0h-3.14zm0 0"/></symbol><symbol overflow="visible" id="b"><path d="M4.938-5.563c-.125-.062-.262-.11-.407-.14-.135-.04-.292-.063-.468-.063-.605 0-1.074.2-1.406.594-.324.4-.484.97-.484 1.72V0H1.094v-6.563h1.078v1.016c.226-.394.523-.687.89-.875.364-.195.805-.297 1.33-.297.07 0 .147.01.233.017.094.012.19.027.297.047zm0 0"/></symbol><symbol overflow="visible" id="c"><path d="M1.172-8.75h1.594l3.89 7.313V-8.75h1.14V0H6.204L2.328-7.313V0H1.172zm0 0"/></symbol><symbol overflow="visible" id="d"><path d="M1.172-8.75H2.36v3.594h4.296V-8.75h1.188V0H6.656v-4.172H2.36V0H1.17zm0 0"/></symbol><symbol overflow="visible" id="f"><path d="M4.734-7.953c-.867 0-1.554.324-2.062.97-.5.635-.75 1.51-.75 2.624 0 1.094.25 1.965.75 2.61.508.637 1.195.953 2.062.953.852 0 1.532-.316 2.032-.953.507-.645.765-1.516.765-2.61 0-1.113-.257-1.988-.764-2.624-.5-.645-1.18-.97-2.032-.97zm0-.953c1.22 0 2.192.414 2.922 1.234.74.824 1.11 1.93 1.11 3.313 0 1.376-.37 2.477-1.11 3.298C6.926-.24 5.953.17 4.734.17c-1.23 0-2.214-.41-2.953-1.234C1.04-1.882.673-2.984.673-4.36c0-1.382.367-2.488 1.11-3.312.738-.82 1.722-1.234 2.952-1.234zm0 0"/></symbol><symbol overflow="visible"><path d="M.5 1.766v-8.813h5v8.813zm.563-.547h3.875v-7.704H1.063zm0 0"/></symbol><symbol overflow="visible" id="e"><path d="M1.922-.828H5.36V0H.733v-.828c.375-.383.883-.906 1.532-1.563.644-.657 1.05-1.08 1.218-1.266.313-.352.532-.65.657-.89.126-.25.188-.493.188-.735 0-.384-.137-.697-.406-.94-.274-.25-.625-.374-1.063-.374-.313 0-.64.06-.985.172-.336.106-.7.266-1.094.484v-1c.396-.156.767-.273 1.11-.36.344-.08.66-.124.954-.124.75 0 1.347.188 1.797.563.458.376.688.883.688 1.516 0 .305-.058.59-.172.86-.117.26-.32.574-.61.937-.085.094-.343.37-.78.828-.438.45-1.055 1.08-1.844 1.892zm0 0"/></symbol></defs><g><path fill="#fff" d="M0 0h300v300H0z"/><path d="M264.75 179.867l-13.84-5.36" stroke-width="1.2" stroke="#7f4d1a" stroke-miterlimit="10" fill="none"/><path d="M250.91 174.508l-13.836-5.356" stroke-width="1.2" stroke="#000" stroke-miterlimit="10" fill="none"/><path d="M257.75 172.867h14v14h-14zm0 0" fill="#fff"/><g fill="#7f4d1a"><use xlink:href="#a" x="257.75" y="184.006"/><use xlink:href="#b" x="265.982" y="184.006"/></g><path d="M237.074 169.152l-23.117 18.61M230.383 165.574l-18.496 14.887M232.516 139.824l4.558 29.328M213.957 187.762l-27.68-10.715M186.277 177.047l-4.558-29.324M192.723 173.043l-3.65-23.46M181.72 147.723l23.116-18.614M181.72 147.723l-27.677-10.715M204.836 129.11l27.68 10.714M205.082 136.695l22.145 8.57M154.043 137.008l-2.28-14.664" stroke-width="1.2" stroke="#000" stroke-miterlimit="10" fill="none"/><path d="M151.762 122.344l-2.278-14.664" stroke-width="1.2" stroke="#00f" stroke-miterlimit="10" fill="none"/><path d="M146.688 135.148l-1.825-11.73" stroke-width="1.2" stroke="#000" stroke-miterlimit="10" fill="none"/><path d="M144.863 123.418l-1.824-11.73" stroke-width="1.2" stroke="#00f" stroke-miterlimit="10" fill="none"/><path d="M130.926 155.617l23.117-18.61" stroke-width="1.2" stroke="#000" stroke-miterlimit="10" fill="none"/><path d="M149.484 107.68l-13.84-5.356" stroke-width="1.2" stroke="#00f" stroke-miterlimit="10" fill="none"/><path d="M135.645 102.324l-13.84-5.36" stroke-width="1.2" stroke="#000" stroke-miterlimit="10" fill="none"/><path d="M145.484 100.68h9v14h-9zm0 0" fill="#fff"/><use xlink:href="#c" x="145.484" y="111.818" fill="#00f"/><path d="M121.805 96.965l-2.278-14.66" stroke-width="1.2" stroke="#000" stroke-miterlimit="10" fill="none"/><path d="M119.527 82.305l-2.28-14.664" stroke-width="1.2" stroke="#00f" stroke-miterlimit="10" fill="none"/><path d="M121.805 96.965l-23.118 18.613M123.875 104.266l-18.496 14.89" stroke-width="1.2" stroke="#000" stroke-miterlimit="10" fill="none"/><path d="M105.246 58.14h25v19h-25zm0 0" fill="#fff"/><use xlink:href="#d" x="105.246" y="69.279" fill="#00f"/><use xlink:href="#e" x="114.27" y="74.162" fill="#00f"/><use xlink:href="#c" x="120.632" y="69.279" fill="#00f"/><path d="M98.688 115.578L71.01 104.863M98.688 115.578l4.558 29.324M71.012 104.863l-13.84-5.36" stroke-width="1.2" stroke="#000" stroke-miterlimit="10" fill="none"/><path d="M57.172 99.504l-13.836-5.356" stroke-width="1.2" stroke="#00f" stroke-miterlimit="10" fill="none"/><path d="M70.766 97.28l-11.07-4.288" stroke-width="1.2" stroke="#000" stroke-miterlimit="10" fill="none"/><path d="M59.695 92.992l-11.07-4.285" stroke-width="1.2" stroke="#00f" stroke-miterlimit="10" fill="none"/><path d="M65.723 110.305l-11.07-4.285" stroke-width="1.2" stroke="#000" stroke-miterlimit="10" fill="none"/><path d="M54.652 106.02l-11.07-4.29" stroke-width="1.2" stroke="#00f" stroke-miterlimit="10" fill="none"/><path d="M34.336 87.148h9v14h-9zm0 0" fill="#fff"/><use xlink:href="#c" x="34.336" y="98.287" fill="#00f"/><path d="M103.246 144.902l27.68 10.715M108.535 139.465l22.145 8.57M103.246 144.902L80.13 163.516M80.13 163.516l.733 14.82" stroke-width="1.2" stroke="#000" stroke-miterlimit="10" fill="none"/><path d="M80.863 178.336l.735 14.82" stroke-width="1.2" stroke="#f00" stroke-miterlimit="10" fill="none"/><path d="M51.484 155.754l28.645 7.762M52.523 163.27l22.914 6.21" stroke-width="1.2" stroke="#000" stroke-miterlimit="10" fill="none"/><path d="M81.598 193.156l-13.868 5.28" stroke-width="1.2" stroke="#f00" stroke-miterlimit="10" fill="none"/><path d="M67.73 198.438l-13.867 5.277" stroke-width="1.2" stroke="#000" stroke-miterlimit="10" fill="none"/><path d="M76.598 186.156h10v14h-10zm0 0" fill="#fff"/><use xlink:href="#f" x="76.598" y="197.295" fill="#f00"/><path d="M53.863 203.715L35.25 180.598M57.44 197.023L42.55 178.53M53.863 203.715l-7.765 28.644M35.25 180.598l16.234-24.844" stroke-width="1.2" stroke="#000" stroke-miterlimit="10" fill="none"/></g></svg>