<svg xmlns="http://www.w3.org/2000/svg" xmlns:xlink="http://www.w3.org/1999/xlink" width="300pt" height="300pt" viewBox="0 0 300 300"><defs><symbol overflow="visible"><path d="M.594 2.125V-8.47h6V2.126zm.672-.672h4.671V-7.78h-4.67zm0 0"/></symbol><symbol overflow="visible" id="a"><path d="M4.734-7.953c-.867 0-1.554.324-2.062.97-.5.635-.75 1.51-.75 2.624 0 1.094.25 1.965.75 2.61.508.637 1.195.953 2.062.953.852 0 1.532-.316 2.032-.953.507-.645.765-1.516.765-2.61 0-1.113-.257-1.988-.764-2.624-.5-.645-1.18-.97-2.032-.97zm0-.953c1.22 0 2.192.414 2.922 1.234.74.824 1.11 1.93 1.11 3.313 0 1.376-.37 2.477-1.11 3.298C6.926-.24 5.953.17 4.734.17c-1.23 0-2.214-.41-2.953-1.234C1.04-1.882.673-2.984.673-4.36c0-1.382.367-2.488 1.11-3.312.738-.82 1.722-1.234 2.952-1.234zm0 0"/></symbol><symbol overflow="visible" id="b"><path d="M1.172-8.75H2.36v3.594h4.296V-8.75h1.188V0H6.656v-4.172H2.36V0H1.17zm0 0"/></symbol></defs><g><path fill="#fff" d="M0 0h300v300H0z"/><path d="M166.137 239.07l12.457-7.8" stroke-width="1.2" stroke="#000" stroke-miterlimit="10" fill="none"/><path d="M178.594 231.27l12.457-7.8M191.05 223.47l-.523-14.69" stroke-width="1.2" stroke="#f00" stroke-miterlimit="10" fill="none"/><path d="M190.527 208.78L190 194.095" stroke-width="1.2" stroke="#000" stroke-miterlimit="10" fill="none"/><path d="M186.05 216.47h10v14h-10zm0 0" fill="#fff"/><use xlink:href="#a" x="186.051" y="227.607" fill="#f00"/><path d="M190 194.094l-25.965-13.78M190.648 186.605l-20.777-11.023M214.918 178.492L190 194.094M164.035 180.313l-1.05-29.375M162.984 150.938l24.914-15.602M169.145 155.238l19.933-12.476M162.984 150.938l-25.968-13.782M187.898 135.336l25.97 13.78M213.867 149.117l1.05 29.375M207.06 152.3l.838 23.505M213.867 149.117l12.457-7.8" stroke-width="1.2" stroke="#000" stroke-miterlimit="10" fill="none"/><path d="M226.324 141.316l12.457-7.8" stroke-width="1.2" stroke="#f00" stroke-miterlimit="10" fill="none"/><path d="M214.918 178.492l12.984 6.89" stroke-width="1.2" stroke="#000" stroke-miterlimit="10" fill="none"/><path d="M227.902 185.383l12.98 6.89M240.883 192.273l.527 14.688" stroke-width="1.2" stroke="#f00" stroke-miterlimit="10" fill="none"/><path d="M241.41 206.96l.524 14.688" stroke-width="1.2" stroke="#000" stroke-miterlimit="10" fill="none"/><path d="M235.883 185.273h10v14h-10zm0 0" fill="#fff"/><use xlink:href="#a" x="235.883" y="196.412" fill="#f00"/><path d="M238.78 133.516l12.986 6.89" stroke-width="1.2" stroke="#f00" stroke-miterlimit="10" fill="none"/><path d="M251.766 140.406l12.984 6.89" stroke-width="1.2" stroke="#000" stroke-miterlimit="10" fill="none"/><path d="M233.78 126.516h10v14h-10zm0 0" fill="#fff"/><use xlink:href="#a" x="233.781" y="137.654" fill="#f00"/><path d="M137.016 137.156l-1.05-29.375M112.102 152.758l24.914-15.602M135.965 107.78L110 94M157.094 87.34l-21.13 20.44M110 94l-24.918 15.602M110 94l5.078-28.953M85.082 109.602l1.05 29.375M86.133 138.977L61.22 154.574M87.313 146.398l-19.934 12.48M112.102 152.758l-25.97-13.78M61.22 154.574l1.05 29.38M61.22 154.574l-12.986-6.887" stroke-width="1.2" stroke="#000" stroke-miterlimit="10" fill="none"/><path d="M48.234 147.688l-12.984-6.89" stroke-width="1.2" stroke="#f00" stroke-miterlimit="10" fill="none"/><path d="M62.27 183.953l25.964 13.777M61.62 191.44l20.775 11.025" stroke-width="1.2" stroke="#000" stroke-miterlimit="10" fill="none"/><path d="M41.14 204.39l10.563-10.218" stroke-width="1.2" stroke="#f00" stroke-miterlimit="10" fill="none"/><path d="M51.703 194.172l10.567-10.22M88.234 197.73l24.918-15.597M88.234 197.73l-2.54 14.48" stroke-width="1.2" stroke="#000" stroke-miterlimit="10" fill="none"/><path d="M85.695 212.21l-2.54 14.477" stroke-width="1.2" stroke="#f00" stroke-miterlimit="10" fill="none"/><path d="M113.152 182.133l-1.05-29.375M106.133 179.44l-.84-23.5" stroke-width="1.2" stroke="#000" stroke-miterlimit="10" fill="none"/><path d="M83.156 226.688l-14.554 2.054" stroke-width="1.2" stroke="#f00" stroke-miterlimit="10" fill="none"/><path d="M68.602 228.742l-14.555 2.06" stroke-width="1.2" stroke="#000" stroke-miterlimit="10" fill="none"/><path d="M78.156 219.688h10v14h-10zm0 0" fill="#fff"/><use xlink:href="#a" x="78.156" y="230.826" fill="#f00"/><path d="M54.047 230.8L47.594 217.6" stroke-width="1.2" stroke="#000" stroke-miterlimit="10" fill="none"/><path d="M47.594 217.598L41.14 204.39" stroke-width="1.2" stroke="#f00" stroke-miterlimit="10" fill="none"/><path d="M36.14 197.39h10v14h-10zm0 0" fill="#fff"/><use xlink:href="#a" x="36.141" y="208.529" fill="#f00"/><path d="M16.25 133.797h19v14h-19zm0 0" fill="#fff"/><g fill="#f00"><use xlink:href="#b" x="16.25" y="144.936"/><use xlink:href="#a" x="25.273" y="144.936"/></g><path d="M115.078 65.047l14.555-2.06" stroke-width="1.2" stroke="#000" stroke-miterlimit="10" fill="none"/><path d="M129.633 62.988l14.554-2.058M144.188 60.93l6.453 13.207" stroke-width="1.2" stroke="#f00" stroke-miterlimit="10" fill="none"/><path d="M150.64 74.137l6.454 13.203" stroke-width="1.2" stroke="#000" stroke-miterlimit="10" fill="none"/><path d="M139.188 53.93h10v14h-10zm0 0" fill="#fff"/><use xlink:href="#a" x="139.188" y="65.068" fill="#f00"/><path d="M156.496 90.75l14.477 2.54" stroke-width="1.2" stroke="#000" stroke-miterlimit="10" fill="none"/><path d="M170.973 93.29l14.476 2.538" stroke-width="1.2" stroke="#f00" stroke-miterlimit="10" fill="none"/><path d="M157.69 83.934l14.478 2.543" stroke-width="1.2" stroke="#000" stroke-miterlimit="10" fill="none"/><path d="M172.168 86.477l14.477 2.54" stroke-width="1.2" stroke="#f00" stroke-miterlimit="10" fill="none"/><path d="M181.047 85.422h10v14h-10zm0 0" fill="#fff"/><use xlink:href="#a" x="181.047" y="96.561" fill="#f00"/></g></svg>