<svg xmlns="http://www.w3.org/2000/svg" xmlns:xlink="http://www.w3.org/1999/xlink" width="300pt" height="300pt" viewBox="0 0 300 300"><defs><symbol overflow="visible"><path d="M.453 1.594v-7.938h4.5v7.938zm.5-.5h3.5v-6.938h-3.5zm0 0"/></symbol><symbol overflow="visible" id="a"><path d="M3.547-5.953c-.65 0-1.164.242-1.547.72-.375.48-.563 1.13-.563 1.952 0 .835.188 1.49.563 1.967.383.48.898.72 1.547.72.644 0 1.156-.24 1.53-.72.376-.476.564-1.132.564-1.968 0-.822-.187-1.474-.562-1.954-.375-.477-.887-.72-1.53-.72zm0-.734c.914 0 1.648.312 2.203.937.55.617.828 1.438.828 2.47 0 1.042-.277 1.87-.828 2.483-.555.617-1.29.922-2.203.922-.93 0-1.668-.305-2.22-.922C.774-1.41.5-2.237.5-3.28c0-1.033.273-1.853.828-2.47.55-.625 1.29-.938 2.22-.938zm0 0"/></symbol><symbol overflow="visible" id="b"><path d="M.89-6.563H2.08l2.906 5.485v-5.484h.86V0H4.656L1.75-5.484V0H.89zm0 0"/></symbol><symbol overflow="visible" id="c"><path d="M.89-6.563h.876v2.688H5v-2.688h.89V0H5v-3.125H1.766V0H.89zm0 0"/></symbol><symbol overflow="visible" id="d"><path d="M4.813-6.344v.86c-.336-.157-.653-.27-.954-.344-.294-.082-.58-.125-.86-.125-.492 0-.867.094-1.125.28-.262.19-.39.454-.39.798 0 .293.085.512.265.656.176.15.504.267.984.36l.547.11c.658.125 1.142.352 1.454.672.32.312.485.734.485 1.265 0 .637-.216 1.122-.642 1.454-.43.325-1.055.485-1.875.485-.312 0-.648-.04-1-.11C1.36-.046 1-.147.625-.296v-.906c.352.2.703.35 1.047.453.35.105.695.156 1.03.156.5 0 .884-.097 1.157-.297.28-.196.42-.485.42-.86 0-.32-.1-.57-.296-.75-.2-.176-.523-.313-.968-.406l-.547-.11C1.81-3.148 1.33-3.36 1.03-3.64.74-3.923.595-4.313.595-4.813c0-.57.203-1.024.61-1.36.405-.344.968-.516 1.687-.516.313 0 .626.032.938.094.32.055.65.137.985.25zm0 0"/></symbol><symbol overflow="visible" id="f"><path d="M.89-6.563h.876v2.782L4.72-6.564h1.14L2.61-3.5 6.093 0H4.922L1.766-3.156V0H.89zm0 0"/></symbol><symbol overflow="visible"><path d="M.406 1.422V-5.64h4V1.42zM.844.97h3.11v-6.157H.843zm0 0"/></symbol><symbol overflow="visible" id="e"><path d="M.39-2.516H2.5v.64H.39zm0 0"/></symbol><symbol overflow="visible" id="g"><path d="M3.688-5.016v2.172h2.17v.672H3.69V0H3.03v-2.172H.845v-.672H3.03v-2.172zm0 0"/></symbol></defs><g><path fill="#fff" d="M0 0h300v300H0z"/><path d="M201.102 193.66l-13.633-18.375M187.47 175.285l-22.728 2.62M187.47 175.285l4.55-10.496" stroke-width="1.2" stroke="#000" stroke-miterlimit="10" fill="none"/><path d="M192.02 164.79l4.546-10.497" stroke-width="1.2" stroke="#f00" stroke-miterlimit="10" fill="none"/><path d="M162.273 176.836l-4.55 10.496" stroke-width="1.2" stroke="#000" stroke-miterlimit="10" fill="none"/><path d="M157.723 187.332l-4.547 10.496" stroke-width="1.2" stroke="#f00" stroke-miterlimit="10" fill="none"/><path d="M167.21 178.977l-4.546 10.496" stroke-width="1.2" stroke="#000" stroke-miterlimit="10" fill="none"/><path d="M162.664 189.473l-4.547 10.496" stroke-width="1.2" stroke="#f00" stroke-miterlimit="10" fill="none"/><path d="M164.742 177.906l-6.816-9.187" stroke-width="1.2" stroke="#000" stroke-miterlimit="10" fill="none"/><path d="M157.926 168.72l-6.817-9.19" stroke-width="1.2" stroke="#00f" stroke-miterlimit="10" fill="none"/><path d="M147.645 193.398h8v11h-8zm0 0" fill="#fff"/><use xlink:href="#a" x="147.645" y="202.062" fill="#f00"/><path d="M151.11 159.53l-11.364 1.31" stroke-width="1.2" stroke="#00f" stroke-miterlimit="10" fill="none"/><path d="M139.746 160.84l-11.363 1.308" stroke-width="1.2" stroke="#000" stroke-miterlimit="10" fill="none"/><path d="M144.11 154.03h14v11h-14zm0 0" fill="#fff"/><g fill="#00f"><use xlink:href="#b" x="144.109" y="162.694"/><use xlink:href="#c" x="151.087" y="162.694"/></g><path d="M110.457 147.93l15.414 17.382 5.02-6.324zm0 0"/><path d="M114.164 180.074l14.22-17.926M110.457 147.93l-7.11 8.96" stroke-width="1.2" stroke="#000" stroke-miterlimit="10" fill="none"/><path d="M103.348 156.89l-7.11 8.965" stroke-width="1.2" stroke="#00f" stroke-miterlimit="10" fill="none"/><path d="M97.81 128.867l6.323 9.53" stroke-width="1.2" stroke="#cc0" stroke-miterlimit="10" fill="none"/><path d="M104.133 138.398l6.324 9.532" stroke-width="1.2" stroke="#000" stroke-miterlimit="10" fill="none"/><path d="M96.238 165.855l8.96 7.11" stroke-width="1.2" stroke="#00f" stroke-miterlimit="10" fill="none"/><path d="M105.2 172.965l8.964 7.11" stroke-width="1.2" stroke="#000" stroke-miterlimit="10" fill="none"/><path d="M96.238 165.855L85.52 161.86" stroke-width="1.2" stroke="#00f" stroke-miterlimit="10" fill="none"/><path d="M85.52 161.86l-10.72-3.993" stroke-width="1.2" stroke="#000" stroke-miterlimit="10" fill="none"/><path d="M93.238 160.355h7v11h-7zm0 0" fill="#fff"/><use xlink:href="#b" x="93.238" y="169.019" fill="#00f"/><path d="M111.488 180.383l1.31 11.363" stroke-width="1.2" stroke="#000" stroke-miterlimit="10" fill="none"/><path d="M112.797 191.746l1.308 11.363" stroke-width="1.2" stroke="#f00" stroke-miterlimit="10" fill="none"/><path d="M116.836 179.766l1.31 11.363" stroke-width="1.2" stroke="#000" stroke-miterlimit="10" fill="none"/><path d="M118.145 191.13l1.308 11.362" stroke-width="1.2" stroke="#f00" stroke-miterlimit="10" fill="none"/><path d="M112.78 197.3h8v11h-8zm0 0" fill="#fff"/><use xlink:href="#a" x="112.781" y="205.964" fill="#f00"/><path d="M74.8 157.867l.97-22.855M74.8 157.867L55.74 170.52M75.77 135.012l11.02-3.07" stroke-width="1.2" stroke="#000" stroke-miterlimit="10" fill="none"/><path d="M86.79 131.94l11.02-3.073" stroke-width="1.2" stroke="#cc0" stroke-miterlimit="10" fill="none"/><path d="M75.77 135.012l-22.836 1.425M75.77 135.012l-3.805-22.563" stroke-width="1.2" stroke="#000" stroke-miterlimit="10" fill="none"/><path d="M94.81 123.367h6v11h-6zm0 0" fill="#fff"/><use xlink:href="#d" x="94.809" y="132.03" fill="#cc0"/><path d="M53.05 170.688l.716 11.417" stroke-width="1.2" stroke="#000" stroke-miterlimit="10" fill="none"/><path d="M53.766 182.105l.71 11.418" stroke-width="1.2" stroke="#f00" stroke-miterlimit="10" fill="none"/><path d="M58.426 170.352l.71 11.418" stroke-width="1.2" stroke="#000" stroke-miterlimit="10" fill="none"/><path d="M59.137 181.77l.715 11.417" stroke-width="1.2" stroke="#f00" stroke-miterlimit="10" fill="none"/><path d="M55.738 170.52l-10.246-5.09" stroke-width="1.2" stroke="#000" stroke-miterlimit="10" fill="none"/><path d="M45.492 165.43l-10.242-5.09" stroke-width="1.2" stroke="#f00" stroke-miterlimit="10" fill="none"/><path d="M53.164 187.855h8v11h-8zm0 0" fill="#fff"/><use xlink:href="#a" x="53.164" y="196.519" fill="#f00"/><path d="M24.25 152.84h11v15h-11zm0 0" fill="#fff"/><use xlink:href="#e" x="24.25" y="160.059" fill="#f00"/><use xlink:href="#a" x="27.058" y="164.941" fill="#f00"/><path d="M196.566 154.293l11.364-1.31" stroke-width="1.2" stroke="#f00" stroke-miterlimit="10" fill="none"/><path d="M207.93 152.984l11.363-1.308" stroke-width="1.2" stroke="#000" stroke-miterlimit="10" fill="none"/><path d="M192.566 148.793h8v11h-8zm0 0" fill="#fff"/><use xlink:href="#a" x="192.566" y="157.456" fill="#f00"/><path d="M219.293 151.676l13.633 18.37M224.98 150.305l10.907 14.7M228.39 130.684l-9.097 20.992M232.926 170.047l22.726-2.617M255.652 167.43l9.098-20.993M251.625 163.19l7.277-16.795M264.75 146.438l-13.633-18.375M251.117 128.063l-22.726 2.62M249.46 133.672l-18.183 2.098" stroke-width="1.2" stroke="#000" stroke-miterlimit="10" fill="none"/><path d="M137.848 89.7h13v15h-13zm0 0" fill="#fff"/><use xlink:href="#f" x="137.848" y="101.801"/><use xlink:href="#g" x="143.965" y="96.918"/></g></svg>