<svg xmlns="http://www.w3.org/2000/svg" xmlns:xlink="http://www.w3.org/1999/xlink" width="300pt" height="300pt" viewBox="0 0 300 300"><defs><symbol overflow="visible"><path d="M.453 1.594v-7.938h4.5v7.938zm.5-.5h3.5v-6.938h-3.5zm0 0"/></symbol><symbol overflow="visible" id="a"><path d="M.89-6.563h3.766v.75h-2.89v1.938h2.61v.734h-2.61V0H.89zm0 0"/></symbol><symbol overflow="visible" id="b"><path d="M.89-6.563H2.08l2.906 5.485v-5.484h.86V0H4.656L1.75-5.484V0H.89zm0 0"/></symbol><symbol overflow="visible" id="c"><path d="M3.547-5.953c-.65 0-1.164.242-1.547.72-.375.48-.563 1.13-.563 1.952 0 .835.188 1.49.563 1.967.383.48.898.72 1.547.72.644 0 1.156-.24 1.53-.72.376-.476.564-1.132.564-1.968 0-.822-.187-1.474-.562-1.954-.375-.477-.887-.72-1.53-.72zm0-.734c.914 0 1.648.312 2.203.937.55.617.828 1.438.828 2.47 0 1.042-.277 1.87-.828 2.483-.555.617-1.29.922-2.203.922-.93 0-1.668-.305-2.22-.922C.774-1.41.5-2.237.5-3.28c0-1.033.273-1.853.828-2.47.55-.625 1.29-.938 2.22-.938zm0 0"/></symbol><symbol overflow="visible" id="d"><path d="M.89-6.563h.876v2.688H5v-2.688h.89V0H5v-3.125H1.766V0H.89zm0 0"/></symbol></defs><g><path fill="#fff" d="M0 0h300v300H0z"/><path d="M35.25 111.477l9.203 5.468" stroke-width="1.2" stroke="#3cc" stroke-miterlimit="10" fill="none"/><path d="M44.453 116.945l9.207 5.47" stroke-width="1.2" stroke="#000" stroke-miterlimit="10" fill="none"/><path d="M29.25 105.977h6v11h-6zm0 0" fill="#fff"/><use xlink:href="#a" x="29.25" y="114.64" fill="#3cc"/><path d="M53.66 122.414l18.68-10.473M57.992 125.762l14.946-8.38M53.39 143.828l.27-21.414M72.34 111.94l18.41 10.943M90.75 122.883l-.27 21.414M85.684 124.96l-.215 17.13M90.75 122.883l18.68-10.473M90.48 144.297L71.8 154.77M71.8 154.77l-.136 10.707" stroke-width="1.2" stroke="#000" stroke-miterlimit="10" fill="none"/><path d="M71.664 165.477l-.133 10.707" stroke-width="1.2" stroke="#00f" stroke-miterlimit="10" fill="none"/><path d="M71.8 154.77l-18.41-10.942M72.53 149.344l-14.725-8.754" stroke-width="1.2" stroke="#000" stroke-miterlimit="10" fill="none"/><path d="M71.53 176.184l-9.34 5.234" stroke-width="1.2" stroke="#00f" stroke-miterlimit="10" fill="none"/><path d="M62.19 181.418l-9.338 5.238M89.94 187.125l-9.206-5.473" stroke-width="1.2" stroke="#000" stroke-miterlimit="10" fill="none"/><path d="M80.734 181.652l-9.203-5.468" stroke-width="1.2" stroke="#00f" stroke-miterlimit="10" fill="none"/><path d="M68.53 170.684h7v11h-7zm0 0" fill="#fff"/><use xlink:href="#b" x="68.531" y="179.347" fill="#00f"/><path d="M52.852 186.656l-.27 21.414M52.582 208.07l9.203 5.47" stroke-width="1.2" stroke="#000" stroke-miterlimit="10" fill="none"/><path d="M61.785 213.54l9.207 5.472M70.992 219.012l9.34-5.24" stroke-width="1.2" stroke="#f00" stroke-miterlimit="10" fill="none"/><path d="M80.332 213.773l9.34-5.238" stroke-width="1.2" stroke="#000" stroke-miterlimit="10" fill="none"/><path d="M66.992 213.512h8v11h-8zm0 0" fill="#fff"/><use xlink:href="#c" x="66.992" y="222.175" fill="#f00"/><path d="M89.672 208.535l.27-21.41M111.95 112.44l.132-10.706" stroke-width="1.2" stroke="#000" stroke-miterlimit="10" fill="none"/><path d="M112.082 101.734l.137-10.707" stroke-width="1.2" stroke="#f00" stroke-miterlimit="10" fill="none"/><path d="M106.91 112.38l.133-10.708" stroke-width="1.2" stroke="#000" stroke-miterlimit="10" fill="none"/><path d="M107.043 101.672l.137-10.707" stroke-width="1.2" stroke="#f00" stroke-miterlimit="10" fill="none"/><path d="M109.43 112.41l9.203 5.47" stroke-width="1.2" stroke="#000" stroke-miterlimit="10" fill="none"/><path d="M118.633 117.88l9.207 5.472" stroke-width="1.2" stroke="#00f" stroke-miterlimit="10" fill="none"/><path d="M105.7 85.496h8v11h-8zm0 0" fill="#fff"/><use xlink:href="#c" x="105.699" y="94.159" fill="#f00"/><path d="M127.84 123.352l9.34-5.24" stroke-width="1.2" stroke="#00f" stroke-miterlimit="10" fill="none"/><path d="M137.18 118.113l9.34-5.238" stroke-width="1.2" stroke="#000" stroke-miterlimit="10" fill="none"/><path d="M120.84 117.852h14v11h-14zm0 0" fill="#fff"/><g fill="#00f"><use xlink:href="#b" x="120.84" y="126.515"/><use xlink:href="#d" x="127.817" y="126.515"/></g><path d="M146.52 112.875l18.406 10.94M150.934 109.64l14.726 8.75M146.79 91.465l-.27 21.41M164.926 123.816l18.68-10.472M183.605 113.344l.274-21.414M188.672 111.266l.215-17.13M203.89 120.22l-20.285-6.876M183.88 91.93l10.222-3.18" stroke-width="1.2" stroke="#000" stroke-miterlimit="10" fill="none"/><path d="M194.102 88.75l10.222-3.18" stroke-width="1.2" stroke="#00f" stroke-miterlimit="10" fill="none"/><path d="M183.88 91.93l-18.41-10.942" stroke-width="1.2" stroke="#000" stroke-miterlimit="10" fill="none"/><path d="M204.324 85.57l6.188 8.743" stroke-width="1.2" stroke="#00f" stroke-miterlimit="10" fill="none"/><path d="M210.512 94.313l6.183 8.738" stroke-width="1.2" stroke="#000" stroke-miterlimit="10" fill="none"/><path d="M197.324 80.07h14v11h-14zm0 0" fill="#fff"/><g fill="#00f"><use xlink:href="#b" x="197.324" y="88.733"/><use xlink:href="#d" x="204.302" y="88.733"/></g><path d="M216.695 103.05l-12.804 17.17M211.375 101.758l-10.242 13.73M203.89 120.22l6.36 20.448M210.25 140.668l20.89 4.715M231.14 145.383l6.36 20.45M237.5 165.832l-14.527 15.73M239.75 170.824l-11.625 12.586M258.39 170.547l-20.89-4.715M222.973 181.563l6.36 20.45M229.332 202.012l10.445 2.36" stroke-width="1.2" stroke="#000" stroke-miterlimit="10" fill="none"/><path d="M239.777 204.37l10.446 2.36" stroke-width="1.2" stroke="#00f" stroke-miterlimit="10" fill="none"/><path d="M232.53 197.57l8.357 1.887" stroke-width="1.2" stroke="#000" stroke-miterlimit="10" fill="none"/><path d="M240.887 199.457l8.355 1.887M250.223 206.73l7.26-7.867" stroke-width="1.2" stroke="#00f" stroke-miterlimit="10" fill="none"/><path d="M257.484 198.863l7.266-7.867" stroke-width="1.2" stroke="#000" stroke-miterlimit="10" fill="none"/><path d="M247.223 201.23h7v11h-7zm0 0" fill="#fff"/><use xlink:href="#b" x="247.223" y="209.894" fill="#00f"/><path d="M264.75 190.996l-6.36-20.45M259.3 190.45l-5.085-16.36M165.47 80.988l-18.68 10.477M166.063 86.434l-14.942 8.38" stroke-width="1.2" stroke="#000" stroke-miterlimit="10" fill="none"/></g></svg>