<svg xmlns="http://www.w3.org/2000/svg" xmlns:xlink="http://www.w3.org/1999/xlink" width="300pt" height="300pt" viewBox="0 0 300 300"><defs><symbol overflow="visible"><path d="M.453 1.594v-7.938h4.5v7.938zm.5-.5h3.5v-6.938h-3.5zm0 0"/></symbol><symbol overflow="visible" id="a"><path d="M3.547-5.953c-.65 0-1.164.242-1.547.72-.375.48-.563 1.13-.563 1.952 0 .835.188 1.49.563 1.967.383.48.898.72 1.547.72.644 0 1.156-.24 1.53-.72.376-.476.564-1.132.564-1.968 0-.822-.187-1.474-.562-1.954-.375-.477-.887-.72-1.53-.72zm0-.734c.914 0 1.648.312 2.203.937.55.617.828 1.438.828 2.47 0 1.042-.277 1.87-.828 2.483-.555.617-1.29.922-2.203.922-.93 0-1.668-.305-2.22-.922C.774-1.41.5-2.237.5-3.28c0-1.033.273-1.853.828-2.47.55-.625 1.29-.938 2.22-.938zm0 0"/></symbol><symbol overflow="visible" id="b"><path d="M.89-6.563h.876v2.688H5v-2.688h.89V0H5v-3.125H1.766V0H.89zm0 0"/></symbol><symbol overflow="visible" id="c"><path d="M.89-6.563H2.08l2.906 5.485v-5.484h.86V0H4.656L1.75-5.484V0H.89zm0 0"/></symbol></defs><g><path fill="#fff" d="M0 0h300v300H0z"/><path d="M254.242 172.22l-5.117-9.63" stroke-width="1.2" stroke="#f00" stroke-miterlimit="10" fill="none"/><path d="M249.125 162.59l-5.12-9.633" stroke-width="1.2" stroke="#000" stroke-miterlimit="10" fill="none"/><path d="M247.242 166.72h15v11h-15zm0 0" fill="#fff"/><g fill="#f00"><use xlink:href="#a" x="247.242" y="175.382"/><use xlink:href="#b" x="254.584" y="175.382"/></g><path d="M244.004 152.957l-17.19 13.43M244.004 152.957l20.746-6.738M240.97 131.355l3.034 21.602M226.813 166.387l-20.223-8.176M206.59 158.21l-3.03-21.6M203.56 136.61l17.186-13.426M203.56 136.61l-18.5 11.558M198.28 115.445l5.28 21.164M220.746 123.184l20.223 8.17M185.06 148.168l-16.712-14.023M180.086 150.7l-13.363-11.22M181.266 169.648l3.793-21.48M168.348 134.145l4.09-10.11" stroke-width="1.2" stroke="#000" stroke-miterlimit="10" fill="none"/><path d="M172.438 124.035l4.085-10.113" stroke-width="1.2" stroke="#00f" stroke-miterlimit="10" fill="none"/><path d="M168.348 134.145l-20.496 7.46" stroke-width="1.2" stroke="#000" stroke-miterlimit="10" fill="none"/><path d="M176.523 113.922l10.88.762" stroke-width="1.2" stroke="#00f" stroke-miterlimit="10" fill="none"/><path d="M187.402 114.684l10.88.76" stroke-width="1.2" stroke="#000" stroke-miterlimit="10" fill="none"/><path d="M169.523 108.422h14v11h-14zm0 0" fill="#fff"/><g fill="#00f"><use xlink:href="#c" x="169.523" y="117.085"/><use xlink:href="#b" x="176.501" y="117.085"/></g><path d="M200.246 117.094l7.012-8.352" stroke-width="1.2" stroke="#000" stroke-miterlimit="10" fill="none"/><path d="M207.258 108.742l7.012-8.355" stroke-width="1.2" stroke="#f00" stroke-miterlimit="10" fill="none"/><path d="M196.316 113.797l7.012-8.356" stroke-width="1.2" stroke="#000" stroke-miterlimit="10" fill="none"/><path d="M203.328 105.44l7.012-8.35" stroke-width="1.2" stroke="#f00" stroke-miterlimit="10" fill="none"/><path d="M208.305 93.238h8v11h-8zm0 0" fill="#fff"/><use xlink:href="#a" x="208.305" y="101.901" fill="#f00"/><path d="M147.852 141.605l-3.79 21.48M152.527 144.645l-3.03 17.183M144.063 163.086l16.707 14.02M144.063 163.086l-20.5 7.457M160.77 177.105l20.496-7.457M161.063 171.54l16.398-5.97M123.563 170.543l-16.708-14.023M118.594 173.07l-13.367-11.215M119.773 192.023l3.79-21.48M106.855 156.52l-20.5 7.457M86.355 163.977l-3.79 21.484M91.03 167.02L88 184.203M86.355 163.977l-16.707-14.02M82.566 185.46l16.707 14.02M99.273 199.48l20.5-7.457M99.57 193.914l16.4-5.97M119.773 192.023l16.707 14.024M68.77 147.543l-10.247 3.73" stroke-width="1.2" stroke="#000" stroke-miterlimit="10" fill="none"/><path d="M58.523 151.273l-10.25 3.73" stroke-width="1.2" stroke="#f00" stroke-miterlimit="10" fill="none"/><path d="M70.527 152.367l-10.25 3.73" stroke-width="1.2" stroke="#000" stroke-miterlimit="10" fill="none"/><path d="M60.277 156.098l-10.25 3.726" stroke-width="1.2" stroke="#f00" stroke-miterlimit="10" fill="none"/><path d="M69.648 149.957l1.895-10.742" stroke-width="1.2" stroke="#000" stroke-miterlimit="10" fill="none"/><path d="M71.543 139.215l1.894-10.742" stroke-width="1.2" stroke="#00f" stroke-miterlimit="10" fill="none"/><path d="M41.152 151.914h8v11h-8zm0 0" fill="#fff"/><use xlink:href="#a" x="41.152" y="160.577" fill="#f00"/><path d="M73.438 128.473l-8.352-7.008" stroke-width="1.2" stroke="#00f" stroke-miterlimit="10" fill="none"/><path d="M65.086 121.465l-8.356-7.012" stroke-width="1.2" stroke="#000" stroke-miterlimit="10" fill="none"/><path d="M66.438 122.973h14v11h-14zm0 0" fill="#fff"/><g fill="#00f"><use xlink:href="#c" x="66.438" y="131.636"/><use xlink:href="#b" x="73.415" y="131.636"/></g><path d="M56.73 114.453l-21.48-3.793M49.273 93.953l7.457 20.5M35.25 110.66l14.023-16.707" stroke-width="1.2" stroke="#000" stroke-miterlimit="10" fill="none"/></g></svg>