<svg xmlns="http://www.w3.org/2000/svg" xmlns:xlink="http://www.w3.org/1999/xlink" width="300pt" height="300pt" viewBox="0 0 300 300"><defs><symbol overflow="visible"><path d="M.453 1.594v-7.938h4.5v7.938zm.5-.5h3.5v-6.938h-3.5zm0 0"/></symbol><symbol overflow="visible" id="a"><path d="M3.547-5.953c-.65 0-1.164.242-1.547.72-.375.48-.563 1.13-.563 1.952 0 .835.188 1.49.563 1.967.383.48.898.72 1.547.72.644 0 1.156-.24 1.53-.72.376-.476.564-1.132.564-1.968 0-.822-.187-1.474-.562-1.954-.375-.477-.887-.72-1.53-.72zm0-.734c.914 0 1.648.312 2.203.937.55.617.828 1.438.828 2.47 0 1.042-.277 1.87-.828 2.483-.555.617-1.29.922-2.203.922-.93 0-1.668-.305-2.22-.922C.774-1.41.5-2.237.5-3.28c0-1.033.273-1.853.828-2.47.55-.625 1.29-.938 2.22-.938zm0 0"/></symbol><symbol overflow="visible" id="b"><path d="M.89-6.563H2.08l2.906 5.485v-5.484h.86V0H4.656L1.75-5.484V0H.89zm0 0"/></symbol></defs><g><path fill="#fff" d="M0 0h300v300H0z"/><path d="M35.25 142.305l2.277 10.433" stroke-width="1.2" stroke="#000" stroke-miterlimit="10" fill="none"/><path d="M37.527 152.738l2.282 10.43M53.684 131.523l-9.215 5.39" stroke-width="1.2" stroke="#f00" stroke-miterlimit="10" fill="none"/><path d="M44.47 136.914l-9.22 5.39" stroke-width="1.2" stroke="#000" stroke-miterlimit="10" fill="none"/><path d="M39.81 163.168l10.624 1.06" stroke-width="1.2" stroke="#f00" stroke-miterlimit="10" fill="none"/><path d="M50.434 164.227l10.625 1.054" stroke-width="1.2" stroke="#000" stroke-miterlimit="10" fill="none"/><path d="M35.81 157.668h8v11h-8zm0 0" fill="#fff"/><use xlink:href="#a" x="35.809" y="166.331" fill="#f00"/><path d="M61.06 165.28l8.577-19.557M66.52 165.344l6.86-15.645M73.707 182.488L61.06 165.28M69.637 145.723l-7.977-7.098" stroke-width="1.2" stroke="#000" stroke-miterlimit="10" fill="none"/><path d="M61.66 138.625l-7.976-7.102" stroke-width="1.2" stroke="#f00" stroke-miterlimit="10" fill="none"/><path d="M69.637 145.723l21.226-2.352" stroke-width="1.2" stroke="#000" stroke-miterlimit="10" fill="none"/><path d="M49.684 126.023h8v11h-8zm0 0" fill="#fff"/><use xlink:href="#a" x="49.684" y="134.687" fill="#f00"/><path d="M90.863 143.37l12.65 17.208M88.078 148.07l10.12 13.766M103.512 160.578l-8.578 19.56M103.512 160.578l21.226-2.348M94.934 180.137l-21.227 2.35M92.258 175.38l-16.98 1.882M124.738 158.23l6.325 8.602" stroke-width="1.2" stroke="#000" stroke-miterlimit="10" fill="none"/><path d="M131.063 166.832l6.328 8.606" stroke-width="1.2" stroke="#00f" stroke-miterlimit="10" fill="none"/><path d="M121.957 162.926l5.06 6.883" stroke-width="1.2" stroke="#000" stroke-miterlimit="10" fill="none"/><path d="M127.016 169.81l5.058 6.88M137.39 175.438l10.614-1.176" stroke-width="1.2" stroke="#00f" stroke-miterlimit="10" fill="none"/><path d="M148.004 174.262l10.613-1.176" stroke-width="1.2" stroke="#000" stroke-miterlimit="10" fill="none"/><path d="M134.39 169.938h7v11h-7zm0 0" fill="#fff"/><use xlink:href="#b" x="134.391" y="178.601" fill="#00f"/><path d="M158.617 173.086l8.574-19.56M164.074 173.148l6.863-15.648M171.266 190.293l-12.65-17.207M167.19 153.527l21.228-2.35M188.418 151.176l12.652 17.207M193.734 149.922l10.118 13.766" stroke-width="1.2" stroke="#000" stroke-miterlimit="10" fill="none"/><path d="M196.996 131.617l-4.29 9.778" stroke-width="1.2" stroke="#f00" stroke-miterlimit="10" fill="none"/><path d="M192.707 141.395l-4.29 9.78M201.07 168.383l-8.578 19.558M201.07 168.383l21.227-2.352M192.492 187.94l-21.226 2.353M189.816 183.184l-16.98 1.88M222.297 166.03l12.648 17.208M227.61 164.777l10.12 13.766M230.875 146.473l-8.578 19.558M234.945 183.238l21.227-2.35M256.172 180.887l8.578-19.56M252.43 176.914l6.86-15.648M264.75 161.328l-12.648-17.207M252.102 144.12l-21.227 2.353M250.53 149.352l-16.98 1.882M230.875 146.473l-12.652-17.207M220.523 130.273l4.29-9.777" stroke-width="1.2" stroke="#000" stroke-miterlimit="10" fill="none"/><path d="M224.813 120.496l4.29-9.78" stroke-width="1.2" stroke="#f00" stroke-miterlimit="10" fill="none"/><path d="M215.922 128.258l4.29-9.78" stroke-width="1.2" stroke="#000" stroke-miterlimit="10" fill="none"/><path d="M220.21 118.477l4.29-9.778" stroke-width="1.2" stroke="#f00" stroke-miterlimit="10" fill="none"/><path d="M218.223 129.266l-10.614 1.175" stroke-width="1.2" stroke="#000" stroke-miterlimit="10" fill="none"/><path d="M207.61 130.44l-10.614 1.177" stroke-width="1.2" stroke="#f00" stroke-miterlimit="10" fill="none"/><path d="M222.8 104.207h8v11h-8zm0 0" fill="#fff"/><use xlink:href="#a" x="222.801" y="112.87" fill="#f00"/><path d="M192.996 126.117h8v11h-8zm0 0" fill="#fff"/><use xlink:href="#a" x="192.996" y="134.78" fill="#f00"/></g></svg>