<svg xmlns="http://www.w3.org/2000/svg" xmlns:xlink="http://www.w3.org/1999/xlink" width="300pt" height="300pt" viewBox="0 0 300 300"><defs><symbol overflow="visible"><path d="M.453 1.594v-7.938h4.5v7.938zm.5-.5h3.5v-6.938h-3.5zm0 0"/></symbol><symbol overflow="visible" id="a"><path d="M5.797-6.063v.938c-.305-.27-.625-.473-.97-.61-.335-.144-.686-.218-1.06-.218-.75 0-1.33.23-1.736.687-.397.46-.592 1.12-.592 1.985 0 .866.195 1.526.593 1.983.408.46.986.688 1.736.688.375 0 .726-.066 1.062-.203.344-.132.664-.343.97-.625V-.5c-.314.21-.642.367-.986.47-.343.1-.714.155-1.11.155-.99 0-1.772-.3-2.343-.906C.784-1.396.5-2.228.5-3.28c0-1.052.285-1.88.86-2.486.57-.613 1.35-.92 2.343-.92.395-.002.766.053 1.11.155.35.104.68.26.984.468zm0 0"/></symbol><symbol overflow="visible" id="b"><path d="M.844-6.844h.812V0H.844zm0 0"/></symbol><symbol overflow="visible" id="c"><path d="M.89-6.563H2.08l2.906 5.485v-5.484h.86V0H4.656L1.75-5.484V0H.89zm0 0"/></symbol><symbol overflow="visible" id="d"><path d="M.89-6.563h.876v2.688H5v-2.688h.89V0H5v-3.125H1.766V0H.89zm0 0"/></symbol><symbol overflow="visible" id="e"><path d="M3.547-5.953c-.65 0-1.164.242-1.547.72-.375.48-.563 1.13-.563 1.952 0 .835.188 1.49.563 1.967.383.48.898.72 1.547.72.644 0 1.156-.24 1.53-.72.376-.476.564-1.132.564-1.968 0-.822-.187-1.474-.562-1.954-.375-.477-.887-.72-1.53-.72zm0-.734c.914 0 1.648.312 2.203.937.55.617.828 1.438.828 2.47 0 1.042-.277 1.87-.828 2.483-.555.617-1.29.922-2.203.922-.93 0-1.668-.305-2.22-.922C.774-1.41.5-2.237.5-3.28c0-1.033.273-1.853.828-2.47.55-.625 1.29-.938 2.22-.938zm0 0"/></symbol></defs><g><path fill="#fff" d="M0 0h300v300H0z"/><path d="M35.25 133.285l7.727-.992" stroke-width="1.2" stroke="#0c0" stroke-miterlimit="10" fill="none"/><path d="M42.977 132.293l7.726-.992" stroke-width="1.2" stroke="#000" stroke-miterlimit="10" fill="none"/><path d="M25.25 127.785h10v11h-10zm0 0" fill="#fff"/><g fill="#0c0"><use xlink:href="#a" x="25.25" y="136.448"/><use xlink:href="#b" x="31.764" y="136.448"/></g><path d="M50.703 131.3l9.442 12.39M54.563 130.32l7.554 9.91M56.71 116.93l-6.007 14.37M60.145 143.69l15.453-1.983M75.598 141.707l4.722 6.195" stroke-width="1.2" stroke="#000" stroke-miterlimit="10" fill="none"/><path d="M80.32 147.902l4.723 6.196" stroke-width="1.2" stroke="#00f" stroke-miterlimit="10" fill="none"/><path d="M75.598 141.707l6.007-14.37M72.816 138.86l4.81-11.5" stroke-width="1.2" stroke="#000" stroke-miterlimit="10" fill="none"/><path d="M85.043 154.098l-4.473 14.925" stroke-width="1.2" stroke="#00f" stroke-miterlimit="10" fill="none"/><path d="M100.617 153.742l-7.79.18" stroke-width="1.2" stroke="#000" stroke-miterlimit="10" fill="none"/><path d="M92.828 153.922l-7.785.176" stroke-width="1.2" stroke="#00f" stroke-miterlimit="10" fill="none"/><path d="M82.043 148.598h7v11h-7zm0 0" fill="#fff"/><use xlink:href="#c" x="82.043" y="157.261" fill="#00f"/><path d="M80.57 169.023l6.403 4.43" stroke-width="1.2" stroke="#00f" stroke-miterlimit="10" fill="none"/><path d="M86.973 173.453l6.406 4.434" stroke-width="1.2" stroke="#000" stroke-miterlimit="10" fill="none"/><path d="M83.934 166.895l5.125 3.546" stroke-width="1.2" stroke="#00f" stroke-miterlimit="10" fill="none"/><path d="M89.06 170.44l5.124 3.548" stroke-width="1.2" stroke="#000" stroke-miterlimit="10" fill="none"/><path d="M77.57 163.523h7v11h-7zm0 0" fill="#fff"/><use xlink:href="#c" x="77.57" y="172.187" fill="#00f"/><path d="M93.38 177.887l12.39-9.442M93.38 177.887l.354 15.574M105.77 168.445l-5.153-14.703M101.793 168.188l-4.12-11.762M100.617 153.742l4.434-6.406" stroke-width="1.2" stroke="#000" stroke-miterlimit="10" fill="none"/><path d="M105.05 147.336l4.43-6.406M109.48 140.93l7.766.636" stroke-width="1.2" stroke="#00f" stroke-miterlimit="10" fill="none"/><path d="M117.246 141.566l7.762.637" stroke-width="1.2" stroke="#000" stroke-miterlimit="10" fill="none"/><path d="M102.48 135.43h14v11h-14zm0 0" fill="#fff"/><g fill="#00f"><use xlink:href="#c" x="102.48" y="144.093"/><use xlink:href="#d" x="109.458" y="144.093"/></g><path d="M123.352 142.988l3.332 7.04" stroke-width="1.2" stroke="#000" stroke-miterlimit="10" fill="none"/><path d="M126.684 150.027l3.328 7.043" stroke-width="1.2" stroke="#f00" stroke-miterlimit="10" fill="none"/><path d="M126.664 141.422l3.332 7.04" stroke-width="1.2" stroke="#000" stroke-miterlimit="10" fill="none"/><path d="M129.996 148.46l3.332 7.044" stroke-width="1.2" stroke="#f00" stroke-miterlimit="10" fill="none"/><path d="M125.008 142.203l4.433-6.402" stroke-width="1.2" stroke="#000" stroke-miterlimit="10" fill="none"/><path d="M129.44 135.8l4.435-6.405" stroke-width="1.2" stroke="#00f" stroke-miterlimit="10" fill="none"/><path d="M127.672 150.785h8v11h-8zm0 0" fill="#fff"/><use xlink:href="#e" x="127.672" y="159.448" fill="#f00"/><path d="M133.875 129.395l7.762.636" stroke-width="1.2" stroke="#00f" stroke-miterlimit="10" fill="none"/><path d="M141.637 130.03l7.765.638" stroke-width="1.2" stroke="#000" stroke-miterlimit="10" fill="none"/><path d="M126.875 123.895h14v11h-14zm0 0" fill="#fff"/><g fill="#00f"><use xlink:href="#c" x="126.875" y="132.558"/><use xlink:href="#d" x="133.853" y="132.558"/></g><path d="M149.402 130.668l8.864-12.813M156.063 144.75l-6.66-14.082M158.71 141.773l-5.327-11.265M158.266 117.855l15.527 1.274M151.605 103.773l6.66 14.082M155.586 103.613l5.328 11.266M173.793 119.13l8.867-12.81M171.664 115.762l7.094-10.25M173.793 119.13l6.66 14.08M182.66 106.32l-6.664-14.086M175.996 92.234l-15.523-1.27M174.145 95.762l-12.422-1.02M160.473 90.965l-8.868 12.808M180.453 133.21l7.766.638" stroke-width="1.2" stroke="#000" stroke-miterlimit="10" fill="none"/><path d="M188.22 133.848l7.76.636" stroke-width="1.2" stroke="#f00" stroke-miterlimit="10" fill="none"/><path d="M180.453 133.21l-8.863 12.813M176.555 132.406l-7.094 10.25" stroke-width="1.2" stroke="#000" stroke-miterlimit="10" fill="none"/><path d="M195.98 134.484l3.333 7.043" stroke-width="1.2" stroke="#f00" stroke-miterlimit="10" fill="none"/><path d="M199.313 141.527l3.332 7.04" stroke-width="1.2" stroke="#000" stroke-miterlimit="10" fill="none"/><path d="M191.98 128.984h8v11h-8zm0 0" fill="#fff"/><use xlink:href="#e" x="191.98" y="137.647" fill="#f00"/><path d="M202.645 148.566l15.523 1.274M203.895 152.348l12.42 1.02M193.777 161.38l8.868-12.814M218.168 149.84l4.434-6.406" stroke-width="1.2" stroke="#000" stroke-miterlimit="10" fill="none"/><path d="M222.602 143.434l4.433-6.403" stroke-width="1.2" stroke="#00f" stroke-miterlimit="10" fill="none"/><path d="M224.832 163.922l-6.664-14.082" stroke-width="1.2" stroke="#000" stroke-miterlimit="10" fill="none"/><path d="M227.035 137.03l7.762.638" stroke-width="1.2" stroke="#00f" stroke-miterlimit="10" fill="none"/><path d="M234.797 137.668l7.766.633" stroke-width="1.2" stroke="#000" stroke-miterlimit="10" fill="none"/><path d="M228.29 140.813l6.21.507" stroke-width="1.2" stroke="#00f" stroke-miterlimit="10" fill="none"/><path d="M234.5 141.32l6.21.508" stroke-width="1.2" stroke="#000" stroke-miterlimit="10" fill="none"/><path d="M224.035 131.53h7v11h-7zm0 0" fill="#fff"/><use xlink:href="#c" x="224.035" y="140.194" fill="#00f"/><path d="M242.563 138.3l6.66 14.087M249.074 154.21l7.762.638" stroke-width="1.2" stroke="#000" stroke-miterlimit="10" fill="none"/><path d="M256.836 154.848l7.766.636" stroke-width="1.2" stroke="#f00" stroke-miterlimit="10" fill="none"/><path d="M249.37 150.56l7.767.635" stroke-width="1.2" stroke="#000" stroke-miterlimit="10" fill="none"/><path d="M257.137 151.195l7.76.637" stroke-width="1.2" stroke="#f00" stroke-miterlimit="10" fill="none"/><path d="M249.223 152.387l-4.434 6.402" stroke-width="1.2" stroke="#000" stroke-miterlimit="10" fill="none"/><path d="M244.79 158.79l-4.43 6.405" stroke-width="1.2" stroke="#00f" stroke-miterlimit="10" fill="none"/><path d="M260.75 148.16h8v11h-8zm0 0" fill="#fff"/><use xlink:href="#e" x="260.75" y="156.823" fill="#f00"/><path d="M240.36 165.195l-7.766-.636" stroke-width="1.2" stroke="#00f" stroke-miterlimit="10" fill="none"/><path d="M232.594 164.56l-7.762-.638" stroke-width="1.2" stroke="#000" stroke-miterlimit="10" fill="none"/><path d="M233.36 159.695h14v11h-14zm0 0" fill="#fff"/><g fill="#00f"><use xlink:href="#c" x="233.359" y="168.358"/><use xlink:href="#d" x="240.337" y="168.358"/></g><path d="M224.832 163.922l-4.434 6.406" stroke-width="1.2" stroke="#000" stroke-miterlimit="10" fill="none"/><path d="M220.398 170.328l-4.433 6.406" stroke-width="1.2" stroke="#00f" stroke-miterlimit="10" fill="none"/><path d="M220.93 163.117l-3.547 5.125" stroke-width="1.2" stroke="#000" stroke-miterlimit="10" fill="none"/><path d="M217.383 168.242l-3.547 5.125M215.965 176.734l-7.762-.636" stroke-width="1.2" stroke="#00f" stroke-miterlimit="10" fill="none"/><path d="M208.203 176.098l-7.766-.637" stroke-width="1.2" stroke="#000" stroke-miterlimit="10" fill="none"/><path d="M212.965 171.234h7v11h-7zm0 0" fill="#fff"/><use xlink:href="#c" x="212.965" y="179.897" fill="#00f"/><path d="M200.438 175.46l-6.66-14.08M203.086 172.484l-5.328-11.265M171.59 146.023l-15.528-1.273M93.734 193.46l15.58-.355M93.734 193.46l-15.574.36M93.734 193.46l.36 15.575M81.605 127.336l-9.44-12.39M72.164 114.945L56.71 116.93M71.086 118.777l-12.363 1.59M56.71 116.93l-4.722-6.196" stroke-width="1.2" stroke="#000" stroke-miterlimit="10" fill="none"/><path d="M51.988 110.734l-4.722-6.195" stroke-width="1.2" stroke="#0c0" stroke-miterlimit="10" fill="none"/><path d="M37.266 99.04h10v11h-10zm0 0" fill="#fff"/><g fill="#0c0"><use xlink:href="#a" x="37.266" y="107.702"/><use xlink:href="#b" x="43.779" y="107.702"/></g></g></svg>