<svg xmlns="http://www.w3.org/2000/svg" xmlns:xlink="http://www.w3.org/1999/xlink" width="300pt" height="300pt" viewBox="0 0 300 300"><defs><symbol overflow="visible"><path d="M.797 2.828v-14.11h8V2.83zm.906-.89h6.203v-12.33H1.703zm0 0"/></symbol><symbol overflow="visible" id="a"><path d="M6.313-10.594c-1.15 0-2.06.43-2.735 1.28-.68.857-1.015 2.017-1.015 3.486 0 1.47.335 2.633 1.015 3.484.676.856 1.586 1.28 2.735 1.28 1.144.002 2.05-.424 2.718-1.28.665-.85 1-2.015 1-3.484 0-1.47-.335-2.63-1-3.484-.667-.852-1.573-1.282-2.717-1.282zm0-1.28c1.632 0 2.94.546 3.92 1.64.978 1.093 1.47 2.562 1.47 4.406 0 1.844-.492 3.32-1.47 4.422-.98 1.093-2.288 1.64-3.92 1.64-1.65 0-2.96-.546-3.938-1.64-.98-1.102-1.47-2.578-1.47-4.422 0-1.844.49-3.313 1.47-4.406.977-1.094 2.29-1.64 3.938-1.64zm0 0"/></symbol><symbol overflow="visible" id="b"><path d="M10.313-10.766v1.657c-.532-.488-1.102-.85-1.704-1.093-.606-.25-1.247-.375-1.922-.375-1.336 0-2.356.406-3.063 1.22-.71.81-1.063 1.99-1.063 3.53 0 1.543.352 2.72 1.063 3.53.707.814 1.727 1.22 3.063 1.22.675 0 1.316-.117 1.92-.36.603-.25 1.173-.617 1.704-1.11v1.642c-.554.375-1.14.664-1.765.86-.617.187-1.266.28-1.953.28-1.762 0-3.153-.54-4.172-1.625C1.41-2.474.906-3.954.906-5.83c0-1.875.504-3.348 1.516-4.422 1.02-1.082 2.41-1.625 4.172-1.625.695 0 1.35.094 1.968.28.626.18 1.208.454 1.75.83zm0 0"/></symbol><symbol overflow="visible" id="c"><path d="M1.516-12.156h1.437V0H1.516zm0 0"/></symbol></defs><g><path fill="#fff" d="M0 0h300v300H0z"/><path d="M140.88 190.95l-5.423 18.34" stroke-width="1.2" stroke="#000" stroke-miterlimit="10" fill="none"/><path d="M135.457 209.29l-5.426 18.335" stroke-width="1.2" stroke="#f00" stroke-miterlimit="10" fill="none"/><path d="M149.512 193.5l-5.426 18.34" stroke-width="1.2" stroke="#000" stroke-miterlimit="10" fill="none"/><path d="M144.086 211.84l-5.422 18.34" stroke-width="1.2" stroke="#f00" stroke-miterlimit="10" fill="none"/><path d="M145.195 192.223l36.05-12.782M121.898 161.887l23.297 30.336" stroke-width="1.2" stroke="#000" stroke-miterlimit="10" fill="none"/><path d="M128.348 219.402h13v19h-13zm0 0" fill="#fff"/><use xlink:href="#a" x="128.348" y="234.254" fill="#f00"/><path d="M181.246 179.44l-1.016-38.237M181.246 179.44l3.492 18.806" stroke-width="1.2" stroke="#000" stroke-miterlimit="10" fill="none"/><path d="M184.738 198.246l3.492 18.8" stroke-width="1.2" stroke="#0c0" stroke-miterlimit="10" fill="none"/><path d="M219.484 178.426l-38.238 1.015M180.23 141.203l-36.68-10.848M180.23 141.203l-1.156-10.098" stroke-width="1.2" stroke="#000" stroke-miterlimit="10" fill="none"/><path d="M179.074 131.105l-1.152-10.097" stroke-width="1.2" stroke="#0c0" stroke-miterlimit="10" fill="none"/><path d="M218.47 140.188l-38.24 1.015M143.55 130.355L121.9 161.887M143.55 130.355l7.407-15.54" stroke-width="1.2" stroke="#000" stroke-miterlimit="10" fill="none"/><path d="M150.957 114.816l7.402-15.54" stroke-width="1.2" stroke="#0c0" stroke-miterlimit="10" fill="none"/><path d="M112.02 108.703l31.53 21.652M121.898 161.887l-31.53-21.653M121.898 161.887l-13.16 13.88" stroke-width="1.2" stroke="#000" stroke-miterlimit="10" fill="none"/><path d="M108.738 175.766l-13.156 13.88" stroke-width="1.2" stroke="#0c0" stroke-miterlimit="10" fill="none"/><path d="M90.367 140.234l129.117 38.192M90.367 140.234l-18.805 3.493" stroke-width="1.2" stroke="#000" stroke-miterlimit="10" fill="none"/><path d="M71.563 143.727l-18.8 3.492" stroke-width="1.2" stroke="#0c0" stroke-miterlimit="10" fill="none"/><path d="M112.02 108.703l-21.653 31.53M219.484 178.426l-1.015-38.238M219.484 178.426l13.88 13.16" stroke-width="1.2" stroke="#000" stroke-miterlimit="10" fill="none"/><path d="M233.363 191.586l13.875 13.156" stroke-width="1.2" stroke="#0c0" stroke-miterlimit="10" fill="none"/><path d="M218.47 140.188l-23.302-30.336M218.47 140.188l13.155-13.875" stroke-width="1.2" stroke="#000" stroke-miterlimit="10" fill="none"/><path d="M231.625 126.313l13.16-13.88" stroke-width="1.2" stroke="#0c0" stroke-miterlimit="10" fill="none"/><path d="M195.168 109.852l-83.148-1.15M195.168 109.852l16.305-10" stroke-width="1.2" stroke="#000" stroke-miterlimit="10" fill="none"/><path d="M211.473 99.852l16.3-9.997" stroke-width="1.2" stroke="#0c0" stroke-miterlimit="10" fill="none"/><path d="M195.168 109.852l-8.238-17.258" stroke-width="1.2" stroke="#000" stroke-miterlimit="10" fill="none"/><path d="M186.93 92.594l-8.243-17.258" stroke-width="1.2" stroke="#0c0" stroke-miterlimit="10" fill="none"/><path d="M112.02 108.703l-3.493-18.805" stroke-width="1.2" stroke="#000" stroke-miterlimit="10" fill="none"/><path d="M108.527 89.898l-3.492-18.8" stroke-width="1.2" stroke="#0c0" stroke-miterlimit="10" fill="none"/><path d="M97.035 61.598h16v19h-16zm0 0" fill="#fff"/><g fill="#0c0"><use xlink:href="#b" x="97.035" y="76.449"/><use xlink:href="#c" x="108.207" y="76.449"/></g><path d="M219.773 80.355h16v19h-16zm0 0" fill="#fff"/><g fill="#0c0"><use xlink:href="#b" x="219.773" y="95.207"/><use xlink:href="#c" x="230.945" y="95.207"/></g><path d="M162.688 65.836h16v19h-16zm0 0" fill="#fff"/><g fill="#0c0"><use xlink:href="#b" x="162.688" y="80.688"/><use xlink:href="#c" x="173.859" y="80.688"/></g><path d="M236.785 102.934h16v19h-16zm0 0" fill="#fff"/><g fill="#0c0"><use xlink:href="#b" x="236.785" y="117.785"/><use xlink:href="#c" x="247.957" y="117.785"/></g><path d="M239.238 195.242h16v19h-16zm0 0" fill="#fff"/><g fill="#0c0"><use xlink:href="#b" x="239.238" y="210.094"/><use xlink:href="#c" x="250.41" y="210.094"/></g><path d="M36.762 137.72h16v19h-16zm0 0" fill="#fff"/><g fill="#0c0"><use xlink:href="#b" x="36.762" y="152.57"/><use xlink:href="#c" x="47.934" y="152.57"/></g><path d="M79.582 180.145h16v19h-16zm0 0" fill="#fff"/><g fill="#0c0"><use xlink:href="#b" x="79.582" y="194.996"/><use xlink:href="#c" x="90.754" y="194.996"/></g><path d="M150.36 89.777h16v19h-16zm0 0" fill="#fff"/><g fill="#0c0"><use xlink:href="#b" x="150.359" y="104.629"/><use xlink:href="#c" x="161.531" y="104.629"/></g><path d="M169.922 111.508h16v19h-16zm0 0" fill="#fff"/><g fill="#0c0"><use xlink:href="#b" x="169.922" y="126.359"/><use xlink:href="#c" x="181.094" y="126.359"/></g><path d="M180.23 207.547h16v19h-16zm0 0" fill="#fff"/><g fill="#0c0"><use xlink:href="#b" x="180.23" y="222.398"/><use xlink:href="#c" x="191.402" y="222.398"/></g></g></svg>