<svg xmlns="http://www.w3.org/2000/svg" xmlns:xlink="http://www.w3.org/1999/xlink" width="300pt" height="300pt" viewBox="0 0 300 300"><defs><symbol overflow="visible"><path d="M.594 2.125V-8.47h6V2.126zm.672-.672h4.671V-7.78h-4.67zm0 0"/></symbol><symbol overflow="visible" id="a"><path d="M7.734-8.078v1.25c-.406-.375-.836-.65-1.28-.828-.45-.188-.93-.282-1.438-.282-1 0-1.766.31-2.297.922-.533.618-.798 1.5-.798 2.657 0 1.15.266 2.028.797 2.64.53.618 1.296.923 2.296.923.507 0 .988-.094 1.437-.28.445-.19.875-.462 1.28-.83V-.67c-.417.28-.858.496-1.327.64-.46.134-.945.204-1.453.204-1.336 0-2.383-.406-3.14-1.22-.762-.81-1.14-1.913-1.14-3.31 0-1.408.378-2.517 1.14-3.33.757-.812 1.804-1.218 3.14-1.218.52 0 1.008.074 1.47.22.468.135.905.338 1.31.608zm0 0"/></symbol><symbol overflow="visible" id="b"><path d="M1.125-9.125h1.078V0H1.125zm0 0"/></symbol><symbol overflow="visible" id="c"><path d="M1.172-8.75h1.594l3.89 7.313V-8.75h1.14V0H6.204L2.328-7.313V0H1.172zm0 0"/></symbol><symbol overflow="visible" id="d"><path d="M4.734-7.953c-.867 0-1.554.324-2.062.97-.5.635-.75 1.51-.75 2.624 0 1.094.25 1.965.75 2.61.508.637 1.195.953 2.062.953.852 0 1.532-.316 2.032-.953.507-.645.765-1.516.765-2.61 0-1.113-.257-1.988-.764-2.624-.5-.645-1.18-.97-2.032-.97zm0-.953c1.22 0 2.192.414 2.922 1.234.74.824 1.11 1.93 1.11 3.313 0 1.376-.37 2.477-1.11 3.298C6.926-.24 5.953.17 4.734.17c-1.23 0-2.214-.41-2.953-1.234C1.04-1.882.673-2.984.673-4.36c0-1.382.367-2.488 1.11-3.312.738-.82 1.722-1.234 2.952-1.234zm0 0"/></symbol><symbol overflow="visible" id="e"><path d="M1.172-8.75H2.36v3.594h4.296V-8.75h1.188V0H6.656v-4.172H2.36V0H1.17zm0 0"/></symbol></defs><g><path fill="#fff" d="M0 0h300v300H0z"/><path d="M64.2 155.375l-.778-14.473" stroke-width="1.2" stroke="#0c0" stroke-miterlimit="10" fill="none"/><path d="M63.422 140.902l-.774-14.472" stroke-width="1.2" stroke="#000" stroke-miterlimit="10" fill="none"/><path d="M58.2 148.375h12v14h-12zm0 0" fill="#fff"/><g fill="#0c0"><use xlink:href="#a" x="58.199" y="159.514"/><use xlink:href="#b" x="66.578" y="159.514"/></g><path d="M62.648 126.43L36.8 113.3M63.152 119.035L42.477 108.53M86.94 110.613L62.65 126.43M36.8 113.3l-1.55-28.945M35.25 84.355l24.293-15.82M41.402 88.488l19.434-12.656M59.543 68.535l25.844 13.13M85.387 81.664l1.554 28.95M78.73 84.926l1.243 23.156M86.94 110.613l25.845 13.13M112.785 123.742l1.55 28.945M119.75 126.27l1.242 23.16M137.078 107.922l-24.293 15.82M114.336 152.688l25.848 13.128M140.184 165.816L164.477 150M138.89 158.52l19.434-12.653M140.184 165.816l1.55 28.95M164.477 150l-1.555-28.945M162.922 121.055l12.148-7.91" stroke-width="1.2" stroke="#000" stroke-miterlimit="10" fill="none"/><path d="M175.07 113.145l12.145-7.91" stroke-width="1.2" stroke="#00f" stroke-miterlimit="10" fill="none"/><path d="M137.078 107.922l25.844 13.133M136.574 115.316l20.676 10.504" stroke-width="1.2" stroke="#000" stroke-miterlimit="10" fill="none"/><path d="M187.215 105.234l12.922 6.567" stroke-width="1.2" stroke="#00f" stroke-miterlimit="10" fill="none"/><path d="M200.137 111.8l12.922 6.563" stroke-width="1.2" stroke="#000" stroke-miterlimit="10" fill="none"/><path d="M187.215 105.234l-.778-14.472" stroke-width="1.2" stroke="#00f" stroke-miterlimit="10" fill="none"/><path d="M186.438 90.762l-.774-14.473" stroke-width="1.2" stroke="#000" stroke-miterlimit="10" fill="none"/><path d="M183.215 98.234h9v14h-9zm0 0" fill="#fff"/><use xlink:href="#c" x="183.215" y="109.373" fill="#00f"/><path d="M213.06 118.363l1.553 28.95M220.027 120.895l1.243 23.156M237.352 102.547l-24.293 15.816M214.613 147.313l-12.148 7.906" stroke-width="1.2" stroke="#000" stroke-miterlimit="10" fill="none"/><path d="M202.465 155.22l-12.145 7.91" stroke-width="1.2" stroke="#0c0" stroke-miterlimit="10" fill="none"/><path d="M214.613 147.313l25.844 13.128" stroke-width="1.2" stroke="#000" stroke-miterlimit="10" fill="none"/><path d="M178.32 156.13h12v14h-12zm0 0" fill="#fff"/><g fill="#0c0"><use xlink:href="#a" x="178.32" y="167.268"/><use xlink:href="#b" x="186.699" y="167.268"/></g><path d="M240.457 160.44l24.293-15.815M239.164 153.145l19.434-12.657M264.75 144.625l-1.55-28.95M263.2 115.676l-25.848-13.13M257.523 120.445l-20.675-10.504M237.352 102.547l-.774-14.473" stroke-width="1.2" stroke="#000" stroke-miterlimit="10" fill="none"/><path d="M236.578 88.074l-.777-14.472" stroke-width="1.2" stroke="#0c0" stroke-miterlimit="10" fill="none"/><path d="M229.8 66.602h12v14h-12zm0 0" fill="#fff"/><g fill="#0c0"><use xlink:href="#a" x="229.801" y="77.74"/><use xlink:href="#b" x="238.18" y="77.74"/></g><path d="M187.523 79.145l12.15-7.907" stroke-width="1.2" stroke="#000" stroke-miterlimit="10" fill="none"/><path d="M199.672 71.238l12.144-7.91" stroke-width="1.2" stroke="#f00" stroke-miterlimit="10" fill="none"/><path d="M183.8 73.43l12.15-7.91" stroke-width="1.2" stroke="#000" stroke-miterlimit="10" fill="none"/><path d="M195.95 65.52l12.144-7.907" stroke-width="1.2" stroke="#f00" stroke-miterlimit="10" fill="none"/><path d="M185.664 76.29l-12.922-6.567" stroke-width="1.2" stroke="#000" stroke-miterlimit="10" fill="none"/><path d="M172.742 69.723l-12.926-6.563" stroke-width="1.2" stroke="#00f" stroke-miterlimit="10" fill="none"/><path d="M204.957 53.47h10v14h-10zm0 0" fill="#fff"/><use xlink:href="#d" x="204.957" y="64.607" fill="#f00"/><path d="M159.816 63.16l-12.144 7.906" stroke-width="1.2" stroke="#00f" stroke-miterlimit="10" fill="none"/><path d="M147.672 71.066l-12.15 7.91" stroke-width="1.2" stroke="#000" stroke-miterlimit="10" fill="none"/><path d="M150.816 56.16h18v14h-18zm0 0" fill="#fff"/><g fill="#00f"><use xlink:href="#c" x="150.816" y="67.299"/><use xlink:href="#e" x="159.793" y="67.299"/></g><path d="M135.523 78.977l1.555 28.945M141.734 194.766l-12.148 7.906" stroke-width="1.2" stroke="#000" stroke-miterlimit="10" fill="none"/><path d="M129.586 202.672l-12.145 7.91" stroke-width="1.2" stroke="#f00" stroke-miterlimit="10" fill="none"/><path d="M140.19 197.805l12.923 6.566" stroke-width="1.2" stroke="#000" stroke-miterlimit="10" fill="none"/><path d="M153.113 204.37l12.922 6.564" stroke-width="1.2" stroke="#f00" stroke-miterlimit="10" fill="none"/><path d="M143.277 191.723l12.926 6.566" stroke-width="1.2" stroke="#000" stroke-miterlimit="10" fill="none"/><path d="M156.203 198.29l12.922 6.562M117.44 210.582l.78 14.473" stroke-width="1.2" stroke="#f00" stroke-miterlimit="10" fill="none"/><path d="M118.22 225.055l.772 14.476" stroke-width="1.2" stroke="#000" stroke-miterlimit="10" fill="none"/><path d="M112.44 203.582h10v14h-10zm0 0" fill="#fff"/><use xlink:href="#d" x="112.441" y="214.721" fill="#f00"/><path d="M162.578 200.895h10v14h-10zm0 0" fill="#fff"/><use xlink:href="#d" x="162.578" y="212.033" fill="#f00"/></g></svg>