<svg xmlns="http://www.w3.org/2000/svg" xmlns:xlink="http://www.w3.org/1999/xlink" width="300pt" height="300pt" viewBox="0 0 300 300"><defs><symbol overflow="visible"><path d="M.453 1.594v-7.938h4.5v7.938zm.5-.5h3.5v-6.938h-3.5zm0 0"/></symbol><symbol overflow="visible" id="a"><path d="M3.547-5.953c-.65 0-1.164.242-1.547.72-.375.48-.563 1.13-.563 1.952 0 .835.188 1.49.563 1.967.383.48.898.72 1.547.72.644 0 1.156-.24 1.53-.72.376-.476.564-1.132.564-1.968 0-.822-.187-1.474-.562-1.954-.375-.477-.887-.72-1.53-.72zm0-.734c.914 0 1.648.312 2.203.937.55.617.828 1.438.828 2.47 0 1.042-.277 1.87-.828 2.483-.555.617-1.29.922-2.203.922-.93 0-1.668-.305-2.22-.922C.774-1.41.5-2.237.5-3.28c0-1.033.273-1.853.828-2.47.55-.625 1.29-.938 2.22-.938zm0 0"/></symbol><symbol overflow="visible" id="b"><path d="M.89-6.563H2.08l2.906 5.485v-5.484h.86V0H4.656L1.75-5.484V0H.89zm0 0"/></symbol><symbol overflow="visible" id="c"><path d="M.89-6.563h.876v2.688H5v-2.688h.89V0H5v-3.125H1.766V0H.89zm0 0"/></symbol><symbol overflow="visible"><path d="M.406 1.422V-5.64h4V1.42zM.844.97h3.11v-6.157H.843zm0 0"/></symbol><symbol overflow="visible" id="d"><path d="M3.688-5.016v2.172h2.17v.672H3.69V0H3.03v-2.172H.845v-.672H3.03v-2.172zm0 0"/></symbol></defs><g><path fill="#fff" d="M0 0h300v300H0z"/><path d="M228.086 177.078l1.19-7.285" stroke-width="1.2" stroke="#f00" stroke-miterlimit="10" fill="none"/><path d="M229.277 169.793l1.192-7.285" stroke-width="1.2" stroke="#000" stroke-miterlimit="10" fill="none"/><path d="M228.086 177.078l5.715 4.672" stroke-width="1.2" stroke="#f00" stroke-miterlimit="10" fill="none"/><path d="M233.8 181.75l5.716 4.676" stroke-width="1.2" stroke="#000" stroke-miterlimit="10" fill="none"/><path d="M224.086 171.578h8v11h-8zm0 0" fill="#fff"/><use xlink:href="#a" x="224.086" y="180.241" fill="#f00"/><path d="M231.082 164.133l6.906-2.613" stroke-width="1.2" stroke="#000" stroke-miterlimit="10" fill="none"/><path d="M237.988 161.52l6.903-2.61" stroke-width="1.2" stroke="#f00" stroke-miterlimit="10" fill="none"/><path d="M229.855 160.883l6.903-2.613" stroke-width="1.2" stroke="#000" stroke-miterlimit="10" fill="none"/><path d="M236.758 158.27l6.906-2.61" stroke-width="1.2" stroke="#f00" stroke-miterlimit="10" fill="none"/><path d="M230.47 162.508l-5.712-4.676" stroke-width="1.2" stroke="#000" stroke-miterlimit="10" fill="none"/><path d="M224.758 157.832l-5.715-4.672" stroke-width="1.2" stroke="#00f" stroke-miterlimit="10" fill="none"/><path d="M240.277 151.785h8v11h-8zm0 0" fill="#fff"/><use xlink:href="#a" x="240.277" y="160.448" fill="#f00"/><path d="M219.043 153.16l1.19-7.285" stroke-width="1.2" stroke="#00f" stroke-miterlimit="10" fill="none"/><path d="M220.234 145.875l1.192-7.285" stroke-width="1.2" stroke="#000" stroke-miterlimit="10" fill="none"/><path d="M219.043 153.16l-6.906 2.61" stroke-width="1.2" stroke="#00f" stroke-miterlimit="10" fill="none"/><path d="M212.137 155.77l-6.903 2.613" stroke-width="1.2" stroke="#000" stroke-miterlimit="10" fill="none"/><path d="M216.043 147.66h7v11h-7zm0 0" fill="#fff"/><use xlink:href="#b" x="216.043" y="156.323" fill="#00f"/><path d="M221.426 138.59l13.808-5.223M221.578 134.82l11.047-4.18M209.996 129.242l11.43 9.348M235.234 133.367l2.38-14.57M237.613 118.797l-11.425-9.348M234.273 120.55l-9.14-7.476M226.188 109.45l1.19-7.286" stroke-width="1.2" stroke="#000" stroke-miterlimit="10" fill="none"/><path d="M227.38 102.164l1.19-7.28" stroke-width="1.2" stroke="#f00" stroke-miterlimit="10" fill="none"/><path d="M226.188 109.45l-13.81 5.222" stroke-width="1.2" stroke="#000" stroke-miterlimit="10" fill="none"/><path d="M228.57 94.883l6.903-2.613" stroke-width="1.2" stroke="#f00" stroke-miterlimit="10" fill="none"/><path d="M235.473 92.27l6.906-2.61" stroke-width="1.2" stroke="#000" stroke-miterlimit="10" fill="none"/><path d="M224.57 89.383h8v11h-8zm0 0" fill="#fff"/><use xlink:href="#a" x="224.57" y="98.046" fill="#f00"/><path d="M212.38 114.672l-2.384 14.57M215.57 116.69l-1.906 11.658M209.996 129.242l-6.902 2.61" stroke-width="1.2" stroke="#000" stroke-miterlimit="10" fill="none"/><path d="M203.094 131.852l-6.906 2.613M196.188 134.465l-5.71-4.676" stroke-width="1.2" stroke="#f00" stroke-miterlimit="10" fill="none"/><path d="M190.477 129.79l-5.715-4.673" stroke-width="1.2" stroke="#000" stroke-miterlimit="10" fill="none"/><path d="M192.188 128.965h8v11h-8zm0 0" fill="#fff"/><use xlink:href="#a" x="192.188" y="137.628" fill="#f00"/><path d="M205.234 158.383l-5.714-4.676" stroke-width="1.2" stroke="#000" stroke-miterlimit="10" fill="none"/><path d="M199.52 153.707l-5.71-4.672" stroke-width="1.2" stroke="#00f" stroke-miterlimit="10" fill="none"/><path d="M201.89 160.137l-4.57-3.74" stroke-width="1.2" stroke="#000" stroke-miterlimit="10" fill="none"/><path d="M197.32 156.398l-4.57-3.742" stroke-width="1.2" stroke="#00f" stroke-miterlimit="10" fill="none"/><path d="M202.852 172.953l2.382-14.57" stroke-width="1.2" stroke="#000" stroke-miterlimit="10" fill="none"/><path d="M193.81 149.035l-6.908 2.61" stroke-width="1.2" stroke="#00f" stroke-miterlimit="10" fill="none"/><path d="M186.902 151.645L180 154.258" stroke-width="1.2" stroke="#000" stroke-miterlimit="10" fill="none"/><path d="M190.81 143.535h7v11h-7zm0 0" fill="#fff"/><use xlink:href="#b" x="190.809" y="152.198" fill="#00f"/><path d="M180 154.258l-1.19 7.285" stroke-width="1.2" stroke="#000" stroke-miterlimit="10" fill="none"/><path d="M178.81 161.543l-1.193 7.28" stroke-width="1.2" stroke="#00f" stroke-miterlimit="10" fill="none"/><path d="M183.188 156.273l-.954 5.83" stroke-width="1.2" stroke="#000" stroke-miterlimit="10" fill="none"/><path d="M182.234 162.102l-.95 5.828" stroke-width="1.2" stroke="#00f" stroke-miterlimit="10" fill="none"/><path d="M180 154.258l-5.715-4.676" stroke-width="1.2" stroke="#000" stroke-miterlimit="10" fill="none"/><path d="M174.285 149.582l-5.715-4.672M177.617 168.824l5.715 4.676" stroke-width="1.2" stroke="#00f" stroke-miterlimit="10" fill="none"/><path d="M183.332 173.5l5.71 4.672" stroke-width="1.2" stroke="#000" stroke-miterlimit="10" fill="none"/><path d="M174.617 163.324h7v11h-7zm0 0" fill="#fff"/><use xlink:href="#b" x="174.617" y="171.987" fill="#00f"/><path d="M189.043 178.172l13.81-5.22M189.195 174.402l11.047-4.18" stroke-width="1.2" stroke="#000" stroke-miterlimit="10" fill="none"/><path d="M168.57 144.91l-6.902 2.61" stroke-width="1.2" stroke="#00f" stroke-miterlimit="10" fill="none"/><path d="M161.668 147.52l-6.906 2.613" stroke-width="1.2" stroke="#000" stroke-miterlimit="10" fill="none"/><path d="M161.57 139.41h14v11h-14zm0 0" fill="#fff"/><g fill="#00f"><use xlink:href="#b" x="161.57" y="148.073"/><use xlink:href="#c" x="168.548" y="148.073"/></g><path d="M154.762 150.133l-11.426-9.348M151.422 151.887l-9.14-7.48M152.383 164.7l2.38-14.567M143.336 140.785l-13.81 5.22M129.527 146.004l-2.382 14.57M132.72 148.023l-1.907 11.657M127.145 160.574l-6.903 2.613" stroke-width="1.2" stroke="#000" stroke-miterlimit="10" fill="none"/><path d="M120.242 163.188l-6.906 2.61" stroke-width="1.2" stroke="#f00" stroke-miterlimit="10" fill="none"/><path d="M127.145 160.574l11.43 9.348" stroke-width="1.2" stroke="#000" stroke-miterlimit="10" fill="none"/><path d="M113.336 165.797l-5.71-4.672" stroke-width="1.2" stroke="#f00" stroke-miterlimit="10" fill="none"/><path d="M107.625 161.125l-5.715-4.676" stroke-width="1.2" stroke="#000" stroke-miterlimit="10" fill="none"/><path d="M109.336 160.297h8v11h-8zm0 0" fill="#fff"/><use xlink:href="#a" x="109.336" y="168.96" fill="#f00"/><path d="M101.91 156.45l-13.808 5.222M88.102 161.672l-11.426-9.348M76.676 152.324l-6.906 2.613" stroke-width="1.2" stroke="#000" stroke-miterlimit="10" fill="none"/><path d="M69.77 154.938l-6.903 2.61M62.867 157.547l-5.715-4.672" stroke-width="1.2" stroke="#00f" stroke-miterlimit="10" fill="none"/><path d="M57.152 152.875l-5.71-4.676M60.484 172.117l1.192-7.285" stroke-width="1.2" stroke="#000" stroke-miterlimit="10" fill="none"/><path d="M61.676 164.832l1.19-7.285" stroke-width="1.2" stroke="#00f" stroke-miterlimit="10" fill="none"/><path d="M52.867 150.047h21v15h-21zm0 0" fill="#fff"/><g fill="#00f"><use xlink:href="#b" x="52.867" y="162.148"/><use xlink:href="#c" x="59.845" y="162.148"/></g><use xlink:href="#d" x="66.859" y="157.266" fill="#00f"/><path d="M51.44 148.2l-13.807 5.222M37.633 153.422l-2.383 14.57M35.25 167.992l11.426 9.348M46.676 177.34l13.808-5.223M138.574 169.922l13.81-5.223M138.727 166.152l11.046-4.18M239.516 186.426l-2.383 14.566M242.703 188.44L240.8 200.1M253.324 181.203l-13.808 5.223M237.133 200.992l11.426 9.348M237.133 200.992l-13.81 5.223M248.56 210.34l13.807-5.223M248.71 206.57l11.048-4.18M262.367 205.117l2.383-14.566M264.75 190.55l-11.426-9.347M261.406 192.305l-9.14-7.48M253.324 181.203l2.38-14.57" stroke-width="1.2" stroke="#000" stroke-miterlimit="10" fill="none"/></g></svg>