<svg xmlns="http://www.w3.org/2000/svg" xmlns:xlink="http://www.w3.org/1999/xlink" width="300pt" height="300pt" viewBox="0 0 300 300"><defs><symbol overflow="visible"><path d="M.453 1.594v-7.938h4.5v7.938zm.5-.5h3.5v-6.938h-3.5zm0 0"/></symbol><symbol overflow="visible" id="a"><path d="M3.547-5.953c-.65 0-1.164.242-1.547.72-.375.48-.563 1.13-.563 1.952 0 .835.188 1.49.563 1.967.383.48.898.72 1.547.72.644 0 1.156-.24 1.53-.72.376-.476.564-1.132.564-1.968 0-.822-.187-1.474-.562-1.954-.375-.477-.887-.72-1.53-.72zm0-.734c.914 0 1.648.312 2.203.937.55.617.828 1.438.828 2.47 0 1.042-.277 1.87-.828 2.483-.555.617-1.29.922-2.203.922-.93 0-1.668-.305-2.22-.922C.774-1.41.5-2.237.5-3.28c0-1.033.273-1.853.828-2.47.55-.625 1.29-.938 2.22-.938zm0 0"/></symbol><symbol overflow="visible" id="b"><path d="M.89-6.563H2.08l2.906 5.485v-5.484h.86V0H4.656L1.75-5.484V0H.89zm0 0"/></symbol></defs><g><path fill="#fff" d="M0 0h300v300H0z"/><path d="M35.25 114.262l3.598 11.48" stroke-width="1.2" stroke="#000" stroke-miterlimit="10" fill="none"/><path d="M38.848 125.742l3.597 11.477M42.445 137.22l11.742 2.624" stroke-width="1.2" stroke="#f00" stroke-miterlimit="10" fill="none"/><path d="M54.188 139.844l11.738 2.62" stroke-width="1.2" stroke="#000" stroke-miterlimit="10" fill="none"/><path d="M38.445 131.72h8v11h-8zm0 0" fill="#fff"/><use xlink:href="#a" x="38.445" y="140.382" fill="#f00"/><path d="M65.926 142.465l16.285-17.71M71.723 144.527l13.027-14.172M73.125 165.426l-7.2-22.96M82.21 124.754L105.69 130M105.69 130l7.2 22.957M101.012 133.988l5.754 18.367M112.89 152.957l-16.285 17.715M112.89 152.957l23.48 5.25M96.605 170.672l-23.48-5.246M95.492 164.62l-18.785-4.198M136.37 158.207l3.6 11.477" stroke-width="1.2" stroke="#000" stroke-miterlimit="10" fill="none"/><path d="M139.97 169.684l3.596 11.48" stroke-width="1.2" stroke="#00f" stroke-miterlimit="10" fill="none"/><path d="M142.492 158.81l2.88 9.182" stroke-width="1.2" stroke="#000" stroke-miterlimit="10" fill="none"/><path d="M145.37 167.992l2.88 9.184" stroke-width="1.2" stroke="#00f" stroke-miterlimit="10" fill="none"/><path d="M152.652 140.492l-16.28 17.715" stroke-width="1.2" stroke="#000" stroke-miterlimit="10" fill="none"/><path d="M143.566 181.164l11.74 2.62" stroke-width="1.2" stroke="#00f" stroke-miterlimit="10" fill="none"/><path d="M155.305 183.785l11.742 2.625" stroke-width="1.2" stroke="#000" stroke-miterlimit="10" fill="none"/><path d="M140.566 175.664h7v11h-7zm0 0" fill="#fff"/><use xlink:href="#b" x="140.566" y="184.327" fill="#00f"/><path d="M167.047 186.41l7.195 22.957M173.168 187.012l5.758 18.367M183.332 168.7l-16.285 17.71M174.242 209.367l11.742 2.625" stroke-width="1.2" stroke="#000" stroke-miterlimit="10" fill="none"/><path d="M185.984 211.992l11.74 2.62M197.723 214.613l8.144-8.855" stroke-width="1.2" stroke="#00f" stroke-miterlimit="10" fill="none"/><path d="M205.867 205.758l8.14-8.856" stroke-width="1.2" stroke="#000" stroke-miterlimit="10" fill="none"/><path d="M195.184 209.012l6.515-7.086" stroke-width="1.2" stroke="#00f" stroke-miterlimit="10" fill="none"/><path d="M201.7 201.926l6.51-7.082" stroke-width="1.2" stroke="#000" stroke-miterlimit="10" fill="none"/><path d="M194.723 209.113h7v11h-7zm0 0" fill="#fff"/><use xlink:href="#b" x="194.723" y="217.776" fill="#00f"/><path d="M214.008 196.902l-3.598-11.48" stroke-width="1.2" stroke="#000" stroke-miterlimit="10" fill="none"/><path d="M210.41 185.422l-3.597-11.477" stroke-width="1.2" stroke="#00f" stroke-miterlimit="10" fill="none"/><path d="M214.008 196.902l11.742 2.625" stroke-width="1.2" stroke="#000" stroke-miterlimit="10" fill="none"/><path d="M225.75 199.527l11.738 2.62" stroke-width="1.2" stroke="#f00" stroke-miterlimit="10" fill="none"/><path d="M206.813 173.945l-11.743-2.625" stroke-width="1.2" stroke="#00f" stroke-miterlimit="10" fill="none"/><path d="M195.07 171.32l-11.738-2.62" stroke-width="1.2" stroke="#000" stroke-miterlimit="10" fill="none"/><path d="M203.23 178.945l-9.394-2.097" stroke-width="1.2" stroke="#00f" stroke-miterlimit="10" fill="none"/><path d="M193.836 176.848l-9.39-2.102" stroke-width="1.2" stroke="#000" stroke-miterlimit="10" fill="none"/><path d="M203.813 168.445h7v11h-7zm0 0" fill="#fff"/><use xlink:href="#b" x="203.813" y="177.108" fill="#00f"/><path d="M183.332 168.7l-3.602-11.48" stroke-width="1.2" stroke="#000" stroke-miterlimit="10" fill="none"/><path d="M179.73 157.22l-3.597-11.482M176.133 145.738l-11.738-2.62" stroke-width="1.2" stroke="#00f" stroke-miterlimit="10" fill="none"/><path d="M164.395 143.117l-11.743-2.625" stroke-width="1.2" stroke="#000" stroke-miterlimit="10" fill="none"/><path d="M176.133 145.738l8.144-8.855" stroke-width="1.2" stroke="#00f" stroke-miterlimit="10" fill="none"/><path d="M184.277 136.883l8.14-8.856" stroke-width="1.2" stroke="#000" stroke-miterlimit="10" fill="none"/><path d="M173.133 140.238h7v11h-7zm0 0" fill="#fff"/><use xlink:href="#b" x="173.133" y="148.901" fill="#00f"/><path d="M155.355 139.648l-3.6-11.48" stroke-width="1.2" stroke="#000" stroke-miterlimit="10" fill="none"/><path d="M151.754 128.168l-3.598-11.48" stroke-width="1.2" stroke="#f00" stroke-miterlimit="10" fill="none"/><path d="M149.953 141.34l-3.598-11.48" stroke-width="1.2" stroke="#000" stroke-miterlimit="10" fill="none"/><path d="M146.355 129.86l-3.6-11.477" stroke-width="1.2" stroke="#f00" stroke-miterlimit="10" fill="none"/><path d="M137.457 112.035h8v11h-8zm0 0" fill="#fff"/><use xlink:href="#a" x="137.457" y="120.698" fill="#f00"/><path d="M192.418 128.027l23.48 5.246M196 123.027l18.785 4.2M185.223 105.07l7.195 22.957M215.898 133.273l16.286-17.71M232.184 115.563l-7.2-22.958M226.063 114.96l-5.758-18.366M224.984 92.605l-23.48-5.246M224.984 92.605l8.145-8.855" stroke-width="1.2" stroke="#000" stroke-miterlimit="10" fill="none"/><path d="M233.13 83.75l8.14-8.855" stroke-width="1.2" stroke="#f00" stroke-miterlimit="10" fill="none"/><path d="M201.504 87.36l-16.28 17.71M204.043 92.96l-13.027 14.17" stroke-width="1.2" stroke="#000" stroke-miterlimit="10" fill="none"/><path d="M241.27 74.895l11.738 2.62" stroke-width="1.2" stroke="#f00" stroke-miterlimit="10" fill="none"/><path d="M253.008 77.516l11.742 2.625" stroke-width="1.2" stroke="#000" stroke-miterlimit="10" fill="none"/><path d="M237.27 69.395h8v11h-8zm0 0" fill="#fff"/><use xlink:href="#a" x="237.27" y="78.058" fill="#f00"/><path d="M237.488 202.148l3.598 11.48" stroke-width="1.2" stroke="#f00" stroke-miterlimit="10" fill="none"/><path d="M241.086 213.63l3.6 11.475" stroke-width="1.2" stroke="#000" stroke-miterlimit="10" fill="none"/><path d="M233.488 196.648h8v11h-8zm0 0" fill="#fff"/><use xlink:href="#a" x="233.488" y="205.312" fill="#f00"/></g></svg>