<svg xmlns="http://www.w3.org/2000/svg" xmlns:xlink="http://www.w3.org/1999/xlink" width="300pt" height="300pt" viewBox="0 0 300 300"><defs><symbol overflow="visible"><path d="M.453 1.594v-7.938h4.5v7.938zm.5-.5h3.5v-6.938h-3.5zm0 0"/></symbol><symbol overflow="visible" id="a"><path d="M.89-6.563H2.08l2.906 5.485v-5.484h.86V0H4.656L1.75-5.484V0H.89zm0 0"/></symbol><symbol overflow="visible" id="b"><path d="M3.547-5.953c-.65 0-1.164.242-1.547.72-.375.48-.563 1.13-.563 1.952 0 .835.188 1.49.563 1.967.383.48.898.72 1.547.72.644 0 1.156-.24 1.53-.72.376-.476.564-1.132.564-1.968 0-.822-.187-1.474-.562-1.954-.375-.477-.887-.72-1.53-.72zm0-.734c.914 0 1.648.312 2.203.937.55.617.828 1.438.828 2.47 0 1.042-.277 1.87-.828 2.483-.555.617-1.29.922-2.203.922-.93 0-1.668-.305-2.22-.922C.774-1.41.5-2.237.5-3.28c0-1.033.273-1.853.828-2.47.55-.625 1.29-.938 2.22-.938zm0 0"/></symbol></defs><g><path fill="#fff" d="M0 0h300v300H0z"/><path d="M35.25 196.906l9.563.278" stroke-width="1.2" stroke="#000" stroke-miterlimit="10" fill="none"/><path d="M44.813 197.184l9.562.277M54.375 197.46l5.023-8.14" stroke-width="1.2" stroke="#00f" stroke-miterlimit="10" fill="none"/><path d="M59.398 189.32l5.02-8.14M63.457 214.305l-4.543-8.422" stroke-width="1.2" stroke="#000" stroke-miterlimit="10" fill="none"/><path d="M58.914 205.883l-4.54-8.422" stroke-width="1.2" stroke="#00f" stroke-miterlimit="10" fill="none"/><path d="M51.375 191.96h7v11h-7zm0 0" fill="#fff"/><use xlink:href="#a" x="51.375" y="200.624" fill="#00f"/><path d="M64.418 181.18l19.125.554M83.543 181.734l4.543 8.422" stroke-width="1.2" stroke="#000" stroke-miterlimit="10" fill="none"/><path d="M88.086 190.156l4.54 8.418M92.625 198.574l-5.023 8.145" stroke-width="1.2" stroke="#00f" stroke-miterlimit="10" fill="none"/><path d="M87.602 206.72l-5.02 8.14" stroke-width="1.2" stroke="#000" stroke-miterlimit="10" fill="none"/><path d="M92.625 198.574l9.563.28" stroke-width="1.2" stroke="#00f" stroke-miterlimit="10" fill="none"/><path d="M102.188 198.855l9.562.278" stroke-width="1.2" stroke="#000" stroke-miterlimit="10" fill="none"/><path d="M89.625 193.074h7v11h-7zm0 0" fill="#fff"/><use xlink:href="#a" x="89.625" y="201.737" fill="#00f"/><path d="M82.582 214.86l-19.125-.555M111.75 199.133l4.54 8.418" stroke-width="1.2" stroke="#000" stroke-miterlimit="10" fill="none"/><path d="M116.29 207.55l4.542 8.423" stroke-width="1.2" stroke="#00f" stroke-miterlimit="10" fill="none"/><path d="M116.62 198.68l3.634 6.734" stroke-width="1.2" stroke="#000" stroke-miterlimit="10" fill="none"/><path d="M120.254 205.414l3.633 6.738M121.793 182.848l-5.02 8.14" stroke-width="1.2" stroke="#00f" stroke-miterlimit="10" fill="none"/><path d="M116.773 190.988l-5.023 8.145" stroke-width="1.2" stroke="#000" stroke-miterlimit="10" fill="none"/><path d="M120.832 215.973l9.563.277" stroke-width="1.2" stroke="#00f" stroke-miterlimit="10" fill="none"/><path d="M130.395 216.25l9.562.277" stroke-width="1.2" stroke="#000" stroke-miterlimit="10" fill="none"/><path d="M117.832 210.473h7v11h-7zm0 0" fill="#fff"/><use xlink:href="#a" x="117.832" y="219.136" fill="#00f"/><path d="M139.957 216.527L150 200.247M137.13 212.54l8.034-13.032M150 200.246l-9.082-16.844" stroke-width="1.2" stroke="#000" stroke-miterlimit="10" fill="none"/><path d="M169.125 200.8l-9.563-.277" stroke-width="1.2" stroke="#00f" stroke-miterlimit="10" fill="none"/><path d="M159.563 200.523l-9.563-.277M140.918 183.402l-9.563-.277" stroke-width="1.2" stroke="#000" stroke-miterlimit="10" fill="none"/><path d="M131.355 183.125l-9.562-.277" stroke-width="1.2" stroke="#00f" stroke-miterlimit="10" fill="none"/><path d="M138.875 187.848l-7.648-.223" stroke-width="1.2" stroke="#000" stroke-miterlimit="10" fill="none"/><path d="M131.227 187.625l-7.653-.223" stroke-width="1.2" stroke="#00f" stroke-miterlimit="10" fill="none"/><path d="M140.918 183.402l5.023-8.14" stroke-width="1.2" stroke="#000" stroke-miterlimit="10" fill="none"/><path d="M145.94 175.262l5.025-8.145" stroke-width="1.2" stroke="#00f" stroke-miterlimit="10" fill="none"/><path d="M118.793 177.348h7v11h-7zm0 0" fill="#fff"/><use xlink:href="#a" x="118.793" y="186.011" fill="#00f"/><path d="M150.965 167.117l9.562.28" stroke-width="1.2" stroke="#00f" stroke-miterlimit="10" fill="none"/><path d="M160.527 167.398l9.563.278" stroke-width="1.2" stroke="#000" stroke-miterlimit="10" fill="none"/><path d="M150.965 167.117l-4.543-8.418" stroke-width="1.2" stroke="#00f" stroke-miterlimit="10" fill="none"/><path d="M146.422 158.7l-4.54-8.423" stroke-width="1.2" stroke="#000" stroke-miterlimit="10" fill="none"/><path d="M147.965 161.617h7v11h-7zm0 0" fill="#fff"/><use xlink:href="#a" x="147.965" y="170.28" fill="#00f"/><path d="M172.004 168.855l5.023-8.14" stroke-width="1.2" stroke="#000" stroke-miterlimit="10" fill="none"/><path d="M177.027 160.715l5.02-8.14" stroke-width="1.2" stroke="#f00" stroke-miterlimit="10" fill="none"/><path d="M168.172 166.492l5.023-8.14" stroke-width="1.2" stroke="#000" stroke-miterlimit="10" fill="none"/><path d="M173.195 158.352l5.024-8.14" stroke-width="1.2" stroke="#f00" stroke-miterlimit="10" fill="none"/><path d="M170.09 167.676l9.078 16.84" stroke-width="1.2" stroke="#000" stroke-miterlimit="10" fill="none"/><path d="M176.133 145.89h8v11h-8zm0 0" fill="#fff"/><use xlink:href="#b" x="176.133" y="154.554" fill="#f00"/><path d="M179.168 184.516l-5.02 8.144" stroke-width="1.2" stroke="#000" stroke-miterlimit="10" fill="none"/><path d="M174.148 192.66l-5.023 8.14" stroke-width="1.2" stroke="#00f" stroke-miterlimit="10" fill="none"/><path d="M174.332 183.78l-4.016 6.517" stroke-width="1.2" stroke="#000" stroke-miterlimit="10" fill="none"/><path d="M170.316 190.297l-4.02 6.512" stroke-width="1.2" stroke="#00f" stroke-miterlimit="10" fill="none"/><path d="M179.168 184.516l19.125.558" stroke-width="1.2" stroke="#000" stroke-miterlimit="10" fill="none"/><path d="M166.125 195.3h7v11h-7zm0 0" fill="#fff"/><use xlink:href="#a" x="166.125" y="203.964" fill="#00f"/><path d="M198.293 185.074l9.082 16.84M203.164 184.62l7.266 13.474M208.34 168.79l-10.047 16.284M207.375 201.914l19.125.555M226.5 202.47l10.043-16.286M223.672 198.477l8.035-13.028M236.543 186.184l-9.078-16.84M236.543 186.184l9.562.28" stroke-width="1.2" stroke="#000" stroke-miterlimit="10" fill="none"/><path d="M246.105 186.465l9.563.277" stroke-width="1.2" stroke="#f00" stroke-miterlimit="10" fill="none"/><path d="M227.465 169.344l-19.125-.555M225.422 173.79l-15.3-.446" stroke-width="1.2" stroke="#000" stroke-miterlimit="10" fill="none"/><path d="M255.668 186.742l4.543 8.422" stroke-width="1.2" stroke="#f00" stroke-miterlimit="10" fill="none"/><path d="M260.21 195.164l4.54 8.418" stroke-width="1.2" stroke="#000" stroke-miterlimit="10" fill="none"/><path d="M251.668 181.242h8v11h-8zm0 0" fill="#fff"/><use xlink:href="#b" x="251.668" y="189.905" fill="#f00"/><path d="M141.883 150.277l10.043-16.285M151.926 133.992l-9.078-16.84M142.848 117.152l10.043-16.285M140.02 113.16l8.035-13.027M123.723 116.598l19.125.554M152.89 100.867l-9.08-16.84M143.81 84.027l-19.126-.554M141.766 88.473l-15.297-.446M124.684 83.473l-10.043 16.28M114.64 99.754l9.083 16.844M119.512 99.305l7.265 13.472" stroke-width="1.2" stroke="#000" stroke-miterlimit="10" fill="none"/></g></svg>