<svg xmlns="http://www.w3.org/2000/svg" xmlns:xlink="http://www.w3.org/1999/xlink" width="300pt" height="300pt" viewBox="0 0 300 300"><defs><symbol overflow="visible"><path d="M.547 1.938V-7.75h5.5v9.688zm.625-.61h4.266v-8.47H1.171zm0 0"/></symbol><symbol overflow="visible" id="a"><path d="M4.328-7.28c-.78 0-1.406.296-1.875.89-.46.585-.687 1.382-.687 2.39 0 1.012.226 1.813.687 2.406.47.586 1.094.875 1.875.875.79 0 1.414-.288 1.875-.874.457-.593.688-1.394.688-2.406 0-1.008-.23-1.805-.687-2.39-.46-.594-1.086-.89-1.875-.89zm0-.892c1.125 0 2.024.383 2.703 1.14C7.708-6.28 8.048-5.27 8.048-4c0 1.262-.34 2.273-1.016 3.03C6.353-.22 5.454.157 4.33.157S2.3-.22 1.625-.97c-.668-.75-1-1.757-1-3.03 0-1.27.332-2.28 1-3.03.676-.76 1.578-1.142 2.703-1.142zm0 0"/></symbol><symbol overflow="visible" id="b"><path d="M1.078-8.016h1.47l3.546 6.704v-6.704h1.062V0H5.688L2.124-6.703V0H1.078zm0 0"/></symbol><symbol overflow="visible" id="c"><path d="M1.078-8.016h4.61v.907H2.171v2.36h3.172v.922H2.172V0H1.078zm0 0"/></symbol></defs><g><path fill="#fff" d="M0 0h300v300H0z"/><path d="M264.75 228.027l-.266-13.156" stroke-width="1.2" stroke="#000" stroke-miterlimit="10" fill="none"/><path d="M264.484 214.87l-.265-13.16M264.22 201.71l-11.53-6.347" stroke-width="1.2" stroke="#f00" stroke-miterlimit="10" fill="none"/><path d="M252.69 195.363l-11.53-6.347" stroke-width="1.2" stroke="#000" stroke-miterlimit="10" fill="none"/><path d="M260.22 195.21h9v13h-9zm0 0" fill="#fff"/><use xlink:href="#a" x="260.219" y="205.112" fill="#f00"/><path d="M241.16 189.016l-22.523 13.617M235.707 185.074l-18.023 10.895M240.63 162.7l.53 26.316M218.637 202.633l-23.055-12.7M195.582 189.934l-.53-26.317M201.72 187.18l-.427-21.055M195.05 163.617L217.575 150M195.05 163.617l-11.53-6.347" stroke-width="1.2" stroke="#000" stroke-miterlimit="10" fill="none"/><path d="M183.52 157.27l-11.528-6.348" stroke-width="1.2" stroke="#00f" stroke-miterlimit="10" fill="none"/><path d="M217.574 150l23.055 12.7M216.89 156.695l18.446 10.157" stroke-width="1.2" stroke="#000" stroke-miterlimit="10" fill="none"/><path d="M171.992 150.922l-.265-13.16" stroke-width="1.2" stroke="#00f" stroke-miterlimit="10" fill="none"/><path d="M171.727 137.762l-.266-13.157M149.47 164.54l11.26-6.81" stroke-width="1.2" stroke="#000" stroke-miterlimit="10" fill="none"/><path d="M160.73 157.73l11.262-6.808" stroke-width="1.2" stroke="#00f" stroke-miterlimit="10" fill="none"/><path d="M167.992 144.422h8v13h-8zm0 0" fill="#fff"/><use xlink:href="#b" x="167.992" y="154.323" fill="#00f"/><path d="M171.46 124.605l11.263-6.808" stroke-width="1.2" stroke="#000" stroke-miterlimit="10" fill="none"/><path d="M182.723 117.797l11.26-6.813" stroke-width="1.2" stroke="#00f" stroke-miterlimit="10" fill="none"/><path d="M170.508 117.94l9.012-5.444" stroke-width="1.2" stroke="#000" stroke-miterlimit="10" fill="none"/><path d="M179.52 112.496l9.01-5.45" stroke-width="1.2" stroke="#00f" stroke-miterlimit="10" fill="none"/><path d="M148.406 111.906l23.055 12.7" stroke-width="1.2" stroke="#000" stroke-miterlimit="10" fill="none"/><path d="M193.984 110.984l-.265-13.156" stroke-width="1.2" stroke="#00f" stroke-miterlimit="10" fill="none"/><path d="M193.72 97.828l-.267-13.16" stroke-width="1.2" stroke="#000" stroke-miterlimit="10" fill="none"/><path d="M189.984 104.484h8v13h-8zm0 0" fill="#fff"/><use xlink:href="#b" x="189.984" y="114.386" fill="#00f"/><path d="M193.453 84.668l-11.527-6.348" stroke-width="1.2" stroke="#000" stroke-miterlimit="10" fill="none"/><path d="M181.926 78.32l-11.528-6.347" stroke-width="1.2" stroke="#00f" stroke-miterlimit="10" fill="none"/><path d="M188.16 88.824l-9.222-5.078" stroke-width="1.2" stroke="#000" stroke-miterlimit="10" fill="none"/><path d="M178.938 83.746l-9.223-5.078M170.398 71.973l-11.26 6.808" stroke-width="1.2" stroke="#00f" stroke-miterlimit="10" fill="none"/><path d="M159.137 78.78l-11.262 6.81" stroke-width="1.2" stroke="#000" stroke-miterlimit="10" fill="none"/><path d="M166.398 65.473h8v13h-8zm0 0" fill="#fff"/><use xlink:href="#b" x="166.398" y="75.374" fill="#00f"/><path d="M147.875 85.59l.53 26.316M154.117 88.098l.426 21.05M148.406 111.906l-11.26 6.81" stroke-width="1.2" stroke="#000" stroke-miterlimit="10" fill="none"/><path d="M137.145 118.715l-11.266 6.808M125.88 125.523l.265 13.16" stroke-width="1.2" stroke="#00f" stroke-miterlimit="10" fill="none"/><path d="M126.145 138.684l.265 13.156" stroke-width="1.2" stroke="#000" stroke-miterlimit="10" fill="none"/><path d="M132.125 128.03l.215 10.53" stroke-width="1.2" stroke="#00f" stroke-miterlimit="10" fill="none"/><path d="M132.34 138.56l.21 10.526" stroke-width="1.2" stroke="#000" stroke-miterlimit="10" fill="none"/><path d="M121.88 119.023h8v13h-8zm0 0" fill="#fff"/><use xlink:href="#b" x="121.879" y="128.925" fill="#00f"/><path d="M126.41 151.84l23.06 12.7M126.41 151.84l-22.523 13.62M146.37 164.602l.267 13.16" stroke-width="1.2" stroke="#000" stroke-miterlimit="10" fill="none"/><path d="M146.637 177.762l.265 13.156" stroke-width="1.2" stroke="#f00" stroke-miterlimit="10" fill="none"/><path d="M152.563 164.477l.27 13.16" stroke-width="1.2" stroke="#000" stroke-miterlimit="10" fill="none"/><path d="M152.832 177.637l.266 13.156" stroke-width="1.2" stroke="#f00" stroke-miterlimit="10" fill="none"/><path d="M146 184.355h9v13h-9zm0 0" fill="#fff"/><use xlink:href="#a" x="146" y="194.257" fill="#f00"/><path d="M103.887 165.46l-23.055-12.698M98.594 169.617l-18.446-10.16M104.418 191.777l-.53-26.316M80.832 152.762L58.305 166.38M58.305 166.38l.535 26.315M64.55 168.887l.427 21.054M58.305 166.38l-11.528-6.35" stroke-width="1.2" stroke="#000" stroke-miterlimit="10" fill="none"/><path d="M46.777 160.03l-11.527-6.346" stroke-width="1.2" stroke="#3cc" stroke-miterlimit="10" fill="none"/><path d="M58.84 192.695l23.055 12.7M58.84 192.695l-11.266 6.813" stroke-width="1.2" stroke="#000" stroke-miterlimit="10" fill="none"/><path d="M47.574 199.508l-11.26 6.808" stroke-width="1.2" stroke="#3cc" stroke-miterlimit="10" fill="none"/><path d="M81.895 205.395l22.523-13.618M80.94 198.734l18.02-10.894" stroke-width="1.2" stroke="#000" stroke-miterlimit="10" fill="none"/><path d="M29.313 199.816h7v13h-7zm0 0" fill="#fff"/><use xlink:href="#c" x="29.313" y="209.718" fill="#3cc"/><path d="M28.25 147.184h7v13h-7zm0 0" fill="#fff"/><use xlink:href="#c" x="28.25" y="157.085" fill="#3cc"/></g></svg>