<svg xmlns="http://www.w3.org/2000/svg" xmlns:xlink="http://www.w3.org/1999/xlink" width="300pt" height="300pt" viewBox="0 0 300 300"><defs><symbol overflow="visible"><path d="M.797 2.828v-14.11h8V2.83zm.906-.89h6.203v-12.33H1.703zm0 0"/></symbol><symbol overflow="visible" id="a"><path d="M8.563-11.28v1.53c-.594-.28-1.157-.488-1.688-.625-.53-.145-1.047-.22-1.547-.22-.855 0-1.516.17-1.984.5-.47.337-.703.81-.703 1.423 0 .512.157.902.47 1.172.312.262.898.47 1.765.625l.953.203c1.176.22 2.04.617 2.594 1.188.562.562.844 1.32.844 2.265 0 1.126-.383 1.986-1.14 2.58-.75.585-1.86.874-3.33.874-.554 0-1.14-.07-1.765-.203-.616-.124-1.257-.303-1.92-.546V-2.14c.632.355 1.257.624 1.874.812.614.18 1.22.266 1.813.266.906 0 1.6-.176 2.094-.532.49-.35.735-.86.735-1.515 0-.57-.18-1.02-.53-1.343-.357-.32-.935-.563-1.736-.72l-.954-.186c-1.18-.238-2.03-.61-2.562-1.11-.524-.5-.782-1.19-.782-2.077 0-1.03.36-1.844 1.08-2.437.725-.594 1.733-.89 3.014-.89.54 0 1.094.054 1.657.155.57.095 1.156.243 1.75.44zm0 0"/></symbol><symbol overflow="visible" id="b"><path d="M6.313-10.594c-1.15 0-2.06.43-2.735 1.28-.68.857-1.015 2.017-1.015 3.486 0 1.47.335 2.633 1.015 3.484.676.856 1.586 1.28 2.735 1.28 1.144.002 2.05-.424 2.718-1.28.665-.85 1-2.015 1-3.484 0-1.47-.335-2.63-1-3.484-.667-.852-1.573-1.282-2.717-1.282zm0-1.28c1.632 0 2.94.546 3.92 1.64.978 1.093 1.47 2.562 1.47 4.406 0 1.844-.492 3.32-1.47 4.422-.98 1.093-2.288 1.64-3.92 1.64-1.65 0-2.96-.546-3.938-1.64-.98-1.102-1.47-2.578-1.47-4.422 0-1.844.49-3.313 1.47-4.406.977-1.094 2.29-1.64 3.938-1.64zm0 0"/></symbol><symbol overflow="visible" id="c"><path d="M1.578-11.672h2.125l5.172 9.766v-9.766h1.53V0H8.282L3.11-9.766V0H1.577zm0 0"/></symbol></defs><g><path fill="#fff" d="M0 0h300v300H0z"/><path d="M70.555 236.176l1.738-19.043" stroke-width="1.2" stroke="#000" stroke-miterlimit="10" fill="none"/><path d="M72.293 217.133l1.738-19.047M73.62 202.566l19.048 1.74" stroke-width="1.2" stroke="#cc0" stroke-miterlimit="10" fill="none"/><path d="M92.668 204.305l19.043 1.734" stroke-width="1.2" stroke="#f00" stroke-miterlimit="10" fill="none"/><path d="M74.438 193.605l19.046 1.735" stroke-width="1.2" stroke="#cc0" stroke-miterlimit="10" fill="none"/><path d="M93.484 195.34l19.047 1.738" stroke-width="1.2" stroke="#f00" stroke-miterlimit="10" fill="none"/><path d="M74.438 193.605l-19.047-1.738" stroke-width="1.2" stroke="#cc0" stroke-miterlimit="10" fill="none"/><path d="M55.39 191.867L36.35 190.13" stroke-width="1.2" stroke="#f00" stroke-miterlimit="10" fill="none"/><path d="M73.62 202.566l-19.046-1.734" stroke-width="1.2" stroke="#cc0" stroke-miterlimit="10" fill="none"/><path d="M54.574 200.832l-19.047-1.738" stroke-width="1.2" stroke="#f00" stroke-miterlimit="10" fill="none"/><path d="M74.03 198.086l1.736-19.047" stroke-width="1.2" stroke="#cc0" stroke-miterlimit="10" fill="none"/><path d="M75.766 179.04l1.738-19.048" stroke-width="1.2" stroke="#00f" stroke-miterlimit="10" fill="none"/><path d="M69.03 188.586h11v19h-11zm0 0" fill="#fff"/><use xlink:href="#a" x="69.031" y="203.438" fill="#cc0"/><path d="M106.12 192.06h13v19h-13zm0 0" fill="#fff"/><use xlink:href="#b" x="106.121" y="206.91" fill="#f00"/><path d="M22.938 185.113h13v19h-13zm0 0" fill="#fff"/><use xlink:href="#b" x="22.938" y="199.965" fill="#f00"/><path d="M77.504 159.992L61.88 148.965" stroke-width="1.2" stroke="#00f" stroke-miterlimit="10" fill="none"/><path d="M61.88 148.965L46.25 137.94M112.23 143.957l-17.363 8.02" stroke-width="1.2" stroke="#000" stroke-miterlimit="10" fill="none"/><path d="M94.867 151.977l-17.363 8.015" stroke-width="1.2" stroke="#00f" stroke-miterlimit="10" fill="none"/><path d="M71.504 150.492h12v19h-12zm0 0" fill="#fff"/><use xlink:href="#c" x="71.504" y="165.344" fill="#00f"/><path d="M46.25 137.94l3.477-38.092M49.727 99.848l34.722-16.04" stroke-width="1.2" stroke="#000" stroke-miterlimit="10" fill="none"/><path d="M115.703 105.863m-2.113-2.13l-.602.853m-1.51-2.98l-1.205 1.703m-.91-3.833l-1.804 2.554m-.31-4.682l-2.406 3.406m.293-5.535l-3.008 4.257m.893-6.387l-3.61 5.11m1.497-7.243l-4.207 5.965m2.094-8.094l-4.81 6.817m2.697-8.946l-5.41 7.667m3.296-9.797l-6.01 8.52m3.897-10.65l-6.613 9.373m4.5-11.5L83.13 90.534m5.214-12.238L80.56 89.324" stroke="#000" stroke-miterlimit="10" fill="none"/><path d="M115.703 105.863l-3.473 38.094M115.703 105.863l7.438-37.52M149.09 124.53l-33.387-18.667M123.14 68.344l37.98-4.52M161.12 63.824l8.02 17.36" stroke-width="1.2" stroke="#000" stroke-miterlimit="10" fill="none"/><path d="M169.14 81.184l8.02 17.363M177.16 98.547l-14.035 12.992" stroke-width="1.2" stroke="#00f" stroke-miterlimit="10" fill="none"/><path d="M163.125 111.54l-14.035 12.99" stroke-width="1.2" stroke="#000" stroke-miterlimit="10" fill="none"/><path d="M177.16 98.547l18.758 3.72" stroke-width="1.2" stroke="#00f" stroke-miterlimit="10" fill="none"/><path d="M195.918 102.266l18.762 3.718" stroke-width="1.2" stroke="#000" stroke-miterlimit="10" fill="none"/><path d="M171.16 89.047h12v19h-12zm0 0" fill="#fff"/><use xlink:href="#c" x="171.16" y="103.898" fill="#00f"/><path d="M214.68 105.984l12.32 36.21M227 142.195l18.266 5.66" stroke-width="1.2" stroke="#000" stroke-miterlimit="10" fill="none"/><path d="M245.266 147.855l18.27 5.657" stroke-width="1.2" stroke="#00f" stroke-miterlimit="10" fill="none"/><path d="M227.988 151.926l14.617 4.527" stroke-width="1.2" stroke="#000" stroke-miterlimit="10" fill="none"/><path d="M242.605 156.453l14.614 4.527" stroke-width="1.2" stroke="#00f" stroke-miterlimit="10" fill="none"/><path d="M204.945 173.45l11.028-15.63" stroke-width="1.2" stroke="#cc0" stroke-miterlimit="10" fill="none"/><path d="M215.973 157.82L227 142.195" stroke-width="1.2" stroke="#000" stroke-miterlimit="10" fill="none"/><path d="M263.535 153.512l.266 19.125" stroke-width="1.2" stroke="#00f" stroke-miterlimit="10" fill="none"/><path d="M263.8 172.637l.262 19.125" stroke-width="1.2" stroke="#000" stroke-miterlimit="10" fill="none"/><path d="M257.535 144.012h12v19h-12zm0 0" fill="#fff"/><use xlink:href="#c" x="257.535" y="158.863" fill="#00f"/><path d="M264.063 191.762l-36.21 12.316M257.543 184.473l-28.97 9.855M227.852 204.078l-11.454-15.316" stroke-width="1.2" stroke="#000" stroke-miterlimit="10" fill="none"/><path d="M216.398 188.762l-11.453-15.313" stroke-width="1.2" stroke="#cc0" stroke-miterlimit="10" fill="none"/><path d="M199.945 163.95h11v19h-11zm0 0" fill="#fff"/><use xlink:href="#a" x="199.945" y="178.801" fill="#cc0"/></g></svg>