<svg xmlns="http://www.w3.org/2000/svg" xmlns:xlink="http://www.w3.org/1999/xlink" width="300pt" height="300pt" viewBox="0 0 300 300"><defs><symbol overflow="visible"><path d="M.594 2.125V-8.47h6V2.126zm.672-.672h4.671V-7.78h-4.67zm0 0"/></symbol><symbol overflow="visible" id="a"><path d="M1.172-8.75h1.594l3.89 7.313V-8.75h1.14V0H6.204L2.328-7.313V0H1.172zm0 0"/></symbol><symbol overflow="visible" id="b"><path d="M4.734-7.953c-.867 0-1.554.324-2.062.97-.5.635-.75 1.51-.75 2.624 0 1.094.25 1.965.75 2.61.508.637 1.195.953 2.062.953.852 0 1.532-.316 2.032-.953.507-.645.765-1.516.765-2.61 0-1.113-.257-1.988-.764-2.624-.5-.645-1.18-.97-2.032-.97zm0-.953c1.22 0 2.192.414 2.922 1.234.74.824 1.11 1.93 1.11 3.313 0 1.376-.37 2.477-1.11 3.298C6.926-.24 5.953.17 4.734.17c-1.23 0-2.214-.41-2.953-1.234C1.04-1.882.673-2.984.673-4.36c0-1.382.367-2.488 1.11-3.312.738-.82 1.722-1.234 2.952-1.234zm0 0"/></symbol><symbol overflow="visible" id="c"><path d="M1.172-8.75h5.03v1H2.36v2.578h3.468v1h-3.47V0H1.173zm0 0"/></symbol></defs><g><path fill="#fff" d="M0 0h300v300H0z"/><path d="M258.867 216.813l-27.46 9.062M253.988 211.258l-21.968 7.25M264.75 188.5l-5.883 28.313M231.406 225.875l-21.578-19.25M209.828 206.625l5.883-28.313M217.078 205.18l4.707-22.653M215.71 178.313l27.462-9.063M215.71 178.313l-10.788-9.625" stroke-width="1.2" stroke="#000" stroke-miterlimit="10" fill="none"/><path d="M204.922 168.688l-10.79-9.625" stroke-width="1.2" stroke="#00f" stroke-miterlimit="10" fill="none"/><path d="M243.172 169.25l21.578 19.25M240.8 176.254l17.262 15.398" stroke-width="1.2" stroke="#000" stroke-miterlimit="10" fill="none"/><path d="M194.133 159.063l2.94-14.157" stroke-width="1.2" stroke="#00f" stroke-miterlimit="10" fill="none"/><path d="M197.074 144.906l2.942-14.156M166.672 168.125l13.73-4.53" stroke-width="1.2" stroke="#000" stroke-miterlimit="10" fill="none"/><path d="M180.402 163.594l13.73-4.53" stroke-width="1.2" stroke="#00f" stroke-miterlimit="10" fill="none"/><path d="M190.133 152.063h9v14h-9zm0 0" fill="#fff"/><use xlink:href="#a" x="190.133" y="163.201" fill="#00f"/><path d="M200.016 130.75l13.73-4.53" stroke-width="1.2" stroke="#000" stroke-miterlimit="10" fill="none"/><path d="M213.746 126.22l13.73-4.532" stroke-width="1.2" stroke="#00f" stroke-miterlimit="10" fill="none"/><path d="M200.63 123.383l10.983-3.625" stroke-width="1.2" stroke="#000" stroke-miterlimit="10" fill="none"/><path d="M211.613 119.758l10.985-3.625" stroke-width="1.2" stroke="#00f" stroke-miterlimit="10" fill="none"/><path d="M178.438 111.5l21.578 19.25" stroke-width="1.2" stroke="#000" stroke-miterlimit="10" fill="none"/><path d="M227.477 121.688l2.94-14.157" stroke-width="1.2" stroke="#00f" stroke-miterlimit="10" fill="none"/><path d="M230.418 107.53l2.94-14.155" stroke-width="1.2" stroke="#000" stroke-miterlimit="10" fill="none"/><path d="M223.477 114.688h9v14h-9zm0 0" fill="#fff"/><use xlink:href="#a" x="223.477" y="125.826" fill="#00f"/><path d="M233.36 93.375l-10.79-9.625" stroke-width="1.2" stroke="#000" stroke-miterlimit="10" fill="none"/><path d="M222.57 83.75l-10.79-9.625" stroke-width="1.2" stroke="#00f" stroke-miterlimit="10" fill="none"/><path d="M226.672 96.527l-8.633-7.7" stroke-width="1.2" stroke="#000" stroke-miterlimit="10" fill="none"/><path d="M218.04 88.828l-8.63-7.703M211.78 74.125l-13.73 4.53" stroke-width="1.2" stroke="#00f" stroke-miterlimit="10" fill="none"/><path d="M198.05 78.656l-13.73 4.53" stroke-width="1.2" stroke="#000" stroke-miterlimit="10" fill="none"/><path d="M207.78 67.125h9v14h-9zm0 0" fill="#fff"/><use xlink:href="#a" x="207.781" y="78.264" fill="#00f"/><path d="M184.32 83.188l-5.882 28.312M190.395 87.402l-4.708 22.65M178.438 111.5l-13.73 4.527" stroke-width="1.2" stroke="#000" stroke-miterlimit="10" fill="none"/><path d="M164.707 116.027l-13.73 4.532M150.977 120.56l-2.942 14.155" stroke-width="1.2" stroke="#00f" stroke-miterlimit="10" fill="none"/><path d="M148.035 134.715l-2.94 14.156" stroke-width="1.2" stroke="#000" stroke-miterlimit="10" fill="none"/><path d="M157.05 124.777l-2.355 11.325" stroke-width="1.2" stroke="#00f" stroke-miterlimit="10" fill="none"/><path d="M154.695 136.102l-2.35 11.324" stroke-width="1.2" stroke="#000" stroke-miterlimit="10" fill="none"/><path d="M146.977 113.56h9v14h-9zm0 0" fill="#fff"/><use xlink:href="#a" x="146.977" y="124.697" fill="#00f"/><path d="M145.094 148.87l21.578 19.255M145.094 148.87l-27.46 9.064M163.34 167.434l-2.942 14.156" stroke-width="1.2" stroke="#000" stroke-miterlimit="10" fill="none"/><path d="M160.398 181.59l-2.94 14.156" stroke-width="1.2" stroke="#f00" stroke-miterlimit="10" fill="none"/><path d="M170.004 168.816l-2.94 14.157" stroke-width="1.2" stroke="#000" stroke-miterlimit="10" fill="none"/><path d="M167.063 182.973l-2.942 14.156" stroke-width="1.2" stroke="#f00" stroke-miterlimit="10" fill="none"/><path d="M155.79 189.438h10v14h-10zm0 0" fill="#fff"/><use xlink:href="#b" x="155.789" y="200.576" fill="#f00"/><path d="M117.633 157.934l-21.578-19.25M110.945 161.086l-17.26-15.4M111.75 186.246l5.883-28.312M96.055 138.684l-27.46 9.062M68.594 147.746L62.71 176.06M74.668 151.96l-4.707 22.653M68.594 147.746l-10.79-9.625" stroke-width="1.2" stroke="#000" stroke-miterlimit="10" fill="none"/><path d="M57.805 138.12l-10.79-9.624" stroke-width="1.2" stroke="#3cc" stroke-miterlimit="10" fill="none"/><path d="M62.71 176.06l21.58 19.25M62.71 176.06l-13.73 4.53" stroke-width="1.2" stroke="#000" stroke-miterlimit="10" fill="none"/><path d="M48.98 180.59l-13.73 4.53" stroke-width="1.2" stroke="#3cc" stroke-miterlimit="10" fill="none"/><path d="M84.29 195.31l27.46-9.064M84.902 187.94l21.97-7.25" stroke-width="1.2" stroke="#000" stroke-miterlimit="10" fill="none"/><path d="M28.25 178.12h7v14h-7zm0 0" fill="#fff"/><use xlink:href="#c" x="28.25" y="189.26" fill="#3cc"/><path d="M40.016 121.496h7v14h-7zm0 0" fill="#fff"/><use xlink:href="#c" x="40.016" y="132.635" fill="#3cc"/></g></svg>