<svg xmlns="http://www.w3.org/2000/svg" xmlns:xlink="http://www.w3.org/1999/xlink" width="300pt" height="300pt" viewBox="0 0 300 300"><defs><symbol overflow="visible"><path d="M.547 1.938V-7.75h5.5v9.688zm.625-.61h4.266v-8.47H1.171zm0 0"/></symbol><symbol overflow="visible" id="a"><path d="M1.078-8.016h1.47l3.546 6.704v-6.704h1.062V0H5.688L2.124-6.703V0H1.078zm0 0"/></symbol><symbol overflow="visible" id="b"><path d="M1.078-8.016h1.094v3.282H6.11v-3.282h1.077V0H6.11v-3.813H2.17V0H1.078zm0 0"/></symbol></defs><g><path fill="#fff" d="M0 0h300v300H0z"/><path d="M216.934 227.473l-25.985 9.96M211.992 222.355l-20.785 7.97M221.3 199.988l-4.366 27.485M190.95 237.434L169.33 219.91M169.332 219.91l4.363-27.484M176.234 218.188l3.493-21.985M173.695 192.426l25.99-9.96" stroke-width="1.2" stroke="#000" stroke-miterlimit="10" fill="none"/><path d="M152.078 174.902l10.81 8.762" stroke-width="1.2" stroke="#00f" stroke-miterlimit="10" fill="none"/><path d="M162.887 183.664l10.808 8.762M199.684 182.465l21.617 17.523M197.723 189.305l17.293 14.02M199.684 182.465l4.363-27.485M204.047 154.98l-10.81-8.76" stroke-width="1.2" stroke="#000" stroke-miterlimit="10" fill="none"/><path d="M193.238 146.22l-10.808-8.763" stroke-width="1.2" stroke="#00f" stroke-miterlimit="10" fill="none"/><path d="M197.762 158.316l-8.645-7.01" stroke-width="1.2" stroke="#000" stroke-miterlimit="10" fill="none"/><path d="M189.117 151.305l-8.648-7.008" stroke-width="1.2" stroke="#00f" stroke-miterlimit="10" fill="none"/><path d="M204.047 154.98L217.04 150" stroke-width="1.2" stroke="#000" stroke-miterlimit="10" fill="none"/><path d="M217.04 150l12.99-4.98M182.43 137.457l-12.993 4.98" stroke-width="1.2" stroke="#00f" stroke-miterlimit="10" fill="none"/><path d="M169.438 142.438l-12.993 4.98" stroke-width="1.2" stroke="#000" stroke-miterlimit="10" fill="none"/><path d="M178.43 130.957h8v13h-8zm0 0" fill="#fff"/><use xlink:href="#a" x="178.43" y="140.858" fill="#00f"/><path d="M156.445 147.418l-2.183 13.742" stroke-width="1.2" stroke="#000" stroke-miterlimit="10" fill="none"/><path d="M154.262 161.16l-2.184 13.742" stroke-width="1.2" stroke="#00f" stroke-miterlimit="10" fill="none"/><path d="M162.473 151.195l-1.746 10.993" stroke-width="1.2" stroke="#000" stroke-miterlimit="10" fill="none"/><path d="M160.727 162.188l-1.747 10.996" stroke-width="1.2" stroke="#00f" stroke-miterlimit="10" fill="none"/><path d="M156.445 147.418l-21.62-17.523" stroke-width="1.2" stroke="#000" stroke-miterlimit="10" fill="none"/><path d="M148.078 168.402h8v13h-8zm0 0" fill="#fff"/><use xlink:href="#a" x="148.078" y="178.304" fill="#00f"/><path d="M134.824 129.895l4.367-27.485M128.793 126.12l3.492-21.987M108.84 139.855l25.984-9.96M139.19 102.41l-21.62-17.523M117.57 84.887l-25.984 9.96M117.316 92l-20.79 7.97M91.586 94.848l-4.367 27.484M87.22 122.332l21.62 17.523M93.504 119l17.297 14.016M87.22 122.332l-25.986 9.96M61.234 132.293l-12.992 4.984" stroke-width="1.2" stroke="#000" stroke-miterlimit="10" fill="none"/><path d="M48.242 137.277l-12.992 4.98" stroke-width="1.2" stroke="#00f" stroke-miterlimit="10" fill="none"/><path d="M56.293 127.176l-10.395 3.984" stroke-width="1.2" stroke="#000" stroke-miterlimit="10" fill="none"/><path d="M45.898 131.16l-10.394 3.985" stroke-width="1.2" stroke="#00f" stroke-miterlimit="10" fill="none"/><path d="M60.98 139.406l-10.394 3.985" stroke-width="1.2" stroke="#000" stroke-miterlimit="10" fill="none"/><path d="M50.586 143.39l-10.395 3.985" stroke-width="1.2" stroke="#00f" stroke-miterlimit="10" fill="none"/><path d="M27.25 135.758h8v13h-8zm0 0" fill="#fff"/><use xlink:href="#a" x="27.25" y="145.659" fill="#00f"/><path d="M230.03 145.02l2.185-13.743" stroke-width="1.2" stroke="#00f" stroke-miterlimit="10" fill="none"/><path d="M232.215 131.277l2.183-13.742" stroke-width="1.2" stroke="#000" stroke-miterlimit="10" fill="none"/><path d="M222.03 138.52h17v13h-17zm0 0" fill="#fff"/><g fill="#00f"><use xlink:href="#a" x="222.031" y="148.421"/><use xlink:href="#b" x="230.015" y="148.421"/></g><path d="M234.398 117.535l25.985-9.96M234.652 110.426l20.79-7.97M212.78 100.012l21.618 17.523M260.383 107.574l4.367-27.484M264.75 80.09l-10.81-8.762" stroke-width="1.2" stroke="#000" stroke-miterlimit="10" fill="none"/><path d="M253.94 71.328l-10.81-8.762" stroke-width="1.2" stroke="#00f" stroke-miterlimit="10" fill="none"/><path d="M258.465 83.426l-8.65-7.012" stroke-width="1.2" stroke="#000" stroke-miterlimit="10" fill="none"/><path d="M249.816 76.414l-8.648-7.008M243.13 62.566l-12.993 4.98" stroke-width="1.2" stroke="#00f" stroke-miterlimit="10" fill="none"/><path d="M230.137 67.547l-12.992 4.98" stroke-width="1.2" stroke="#000" stroke-miterlimit="10" fill="none"/><path d="M239.13 56.066h8v13h-8zm0 0" fill="#fff"/><use xlink:href="#a" x="239.129" y="65.968" fill="#00f"/><path d="M217.145 72.527l-4.364 27.485M223.176 76.305l-3.492 21.984" stroke-width="1.2" stroke="#000" stroke-miterlimit="10" fill="none"/></g></svg>