<svg xmlns="http://www.w3.org/2000/svg" xmlns:xlink="http://www.w3.org/1999/xlink" width="300pt" height="300pt" viewBox="0 0 300 300"><defs><symbol overflow="visible"><path d="M.797 2.828v-14.11h8V2.83zm.906-.89h6.203v-12.33H1.703zm0 0"/></symbol><symbol overflow="visible" id="a"><path d="M1.578-11.672h2.125l5.172 9.766v-9.766h1.53V0H8.282L3.11-9.766V0H1.577zm0 0"/></symbol><symbol overflow="visible" id="b"><path d="M6.313-10.594c-1.15 0-2.06.43-2.735 1.28-.68.857-1.015 2.017-1.015 3.486 0 1.47.335 2.633 1.015 3.484.676.856 1.586 1.28 2.735 1.28 1.144.002 2.05-.424 2.718-1.28.665-.85 1-2.015 1-3.484 0-1.47-.335-2.63-1-3.484-.667-.852-1.573-1.282-2.717-1.282zm0-1.28c1.632 0 2.94.546 3.92 1.64.978 1.093 1.47 2.562 1.47 4.406 0 1.844-.492 3.32-1.47 4.422-.98 1.093-2.288 1.64-3.92 1.64-1.65 0-2.96-.546-3.938-1.64-.98-1.102-1.47-2.578-1.47-4.422 0-1.844.49-3.313 1.47-4.406.977-1.094 2.29-1.64 3.938-1.64zm0 0"/></symbol></defs><g><path fill="#fff" d="M0 0h300v300H0z"/><path d="M269.43 154.28l-18.317-5.503" stroke-width="1.2" stroke="#000" stroke-miterlimit="10" fill="none"/><path d="M251.113 148.777l-18.316-5.5M232.797 143.277l-13.926 13.11" stroke-width="1.2" stroke="#00f" stroke-miterlimit="10" fill="none"/><path d="M218.87 156.387L204.95 169.5" stroke-width="1.2" stroke="#000" stroke-miterlimit="10" fill="none"/><path d="M232.797 143.277l-4.395-18.613" stroke-width="1.2" stroke="#00f" stroke-miterlimit="10" fill="none"/><path d="M228.402 124.664l-4.39-18.617" stroke-width="1.2" stroke="#000" stroke-miterlimit="10" fill="none"/><path d="M226.797 133.777h12v19h-12zm0 0" fill="#fff"/><use xlink:href="#a" x="226.797" y="148.629" fill="#00f"/><path d="M204.95 169.5l8.784 37.227M213.734 206.727l35.282 14.773M213.79 216.504l28.222 11.82" stroke-width="1.2" stroke="#000" stroke-miterlimit="10" fill="none"/><path d="M188.78 235.715l12.478-14.496" stroke-width="1.2" stroke="#f00" stroke-miterlimit="10" fill="none"/><path d="M201.258 221.22l12.476-14.493M249.016 221.5l-3.145 38.12M245.87 259.62l-37.23 8.786M240.078 251.738l-29.78 7.032M208.64 268.406l-9.93-16.344" stroke-width="1.2" stroke="#000" stroke-miterlimit="10" fill="none"/><path d="M198.71 252.063l-9.93-16.348" stroke-width="1.2" stroke="#f00" stroke-miterlimit="10" fill="none"/><path d="M182.78 226.215h13v19h-13zm0 0" fill="#fff"/><use xlink:href="#b" x="182.781" y="241.066" fill="#f00"/><path d="M224.012 106.047l13.922-13.11" stroke-width="1.2" stroke="#000" stroke-miterlimit="10" fill="none"/><path d="M237.934 92.938l13.92-13.11" stroke-width="1.2" stroke="#00f" stroke-miterlimit="10" fill="none"/><path d="M220.625 96.875l11.137-10.488" stroke-width="1.2" stroke="#000" stroke-miterlimit="10" fill="none"/><path d="M231.762 86.387l11.14-10.492" stroke-width="1.2" stroke="#00f" stroke-miterlimit="10" fill="none"/><path d="M187.38 95.043l36.632 11.004" stroke-width="1.2" stroke="#000" stroke-miterlimit="10" fill="none"/><path d="M251.855 79.828l-4.39-18.617" stroke-width="1.2" stroke="#00f" stroke-miterlimit="10" fill="none"/><path d="M247.465 61.21L243.07 42.6" stroke-width="1.2" stroke="#000" stroke-miterlimit="10" fill="none"/><path d="M245.855 70.328h12v19h-12zm0 0" fill="#fff"/><use xlink:href="#a" x="245.855" y="85.18" fill="#00f"/><path d="M243.07 42.598l-18.316-5.5" stroke-width="1.2" stroke="#000" stroke-miterlimit="10" fill="none"/><path d="M224.754 37.098l-18.316-5.504" stroke-width="1.2" stroke="#00f" stroke-miterlimit="10" fill="none"/><path d="M236.816 50.117l-14.652-4.402" stroke-width="1.2" stroke="#000" stroke-miterlimit="10" fill="none"/><path d="M222.164 45.715l-14.652-4.403M206.438 31.594l-13.922 13.113" stroke-width="1.2" stroke="#00f" stroke-miterlimit="10" fill="none"/><path d="M192.516 44.707l-13.926 13.11" stroke-width="1.2" stroke="#000" stroke-miterlimit="10" fill="none"/><path d="M200.438 22.094h12v19h-12zm0 0" fill="#fff"/><use xlink:href="#a" x="200.438" y="36.945" fill="#00f"/><path d="M178.59 57.816l8.79 37.227M170.71 63.605l7.028 29.786M141.957 46.813l36.633 11.003M187.38 95.043l-27.85 26.223M159.53 121.266L122.9 110.262M158.457 111.547l-29.31-8.805M122.898 110.262l-8.785-37.227M122.898 110.262L95.05 136.484M114.113 73.035l27.844-26.222M123.066 76.965l22.278-20.977M95.05 136.484L58.42 125.48M88.797 144.004L59.492 135.2M103.836 173.71l-8.785-37.226M58.418 125.48L30.57 151.703M30.57 151.703l8.79 37.227M40.21 153.36l7.028 29.78M39.36 188.93l36.628 11.004M75.988 199.934l27.848-26.223M72.605 190.762l22.278-20.98M103.836 173.71l18.316 5.505" stroke-width="1.2" stroke="#000" stroke-miterlimit="10" fill="none"/><path d="M122.152 179.215l18.317 5.5M140.47 184.715l4.393 18.617" stroke-width="1.2" stroke="#f00" stroke-miterlimit="10" fill="none"/><path d="M144.863 203.332l4.39 18.613" stroke-width="1.2" stroke="#000" stroke-miterlimit="10" fill="none"/><path d="M134.47 175.215h13v19h-13zm0 0" fill="#fff"/><use xlink:href="#b" x="134.469" y="190.066" fill="#f00"/></g></svg>