<svg xmlns="http://www.w3.org/2000/svg" xmlns:xlink="http://www.w3.org/1999/xlink" width="300pt" height="300pt" viewBox="0 0 300 300"><defs><symbol overflow="visible"><path d="M.594 2.125V-8.47h6V2.126zm.672-.672h4.671V-7.78h-4.67zm0 0"/></symbol><symbol overflow="visible" id="a"><path d="M1.172-8.75h1.594l3.89 7.313V-8.75h1.14V0H6.204L2.328-7.313V0H1.172zm0 0"/></symbol><symbol overflow="visible" id="b"><path d="M4.734-7.953c-.867 0-1.554.324-2.062.97-.5.635-.75 1.51-.75 2.624 0 1.094.25 1.965.75 2.61.508.637 1.195.953 2.062.953.852 0 1.532-.316 2.032-.953.507-.645.765-1.516.765-2.61 0-1.113-.257-1.988-.764-2.624-.5-.645-1.18-.97-2.032-.97zm0-.953c1.22 0 2.192.414 2.922 1.234.74.824 1.11 1.93 1.11 3.313 0 1.376-.37 2.477-1.11 3.298C6.926-.24 5.953.17 4.734.17c-1.23 0-2.214-.41-2.953-1.234C1.04-1.882.673-2.984.673-4.36c0-1.382.367-2.488 1.11-3.312.738-.82 1.722-1.234 2.952-1.234zm0 0"/></symbol><symbol overflow="visible" id="c"><path d="M1.172-8.75H2.36v3.594h4.296V-8.75h1.188V0H6.656v-4.172H2.36V0H1.17zm0 0"/></symbol><symbol overflow="visible" id="d"><path d="M6.422-8.47v1.158c-.45-.208-.875-.364-1.28-.47-.4-.113-.78-.17-1.142-.17-.648 0-1.148.124-1.5.374-.344.25-.516.61-.516 1.078 0 .387.114.68.344.875.227.2.672.355 1.328.47L4.36-5c.882.168 1.535.465 1.952.89.426.42.64.98.64 1.688 0 .856-.288 1.5-.858 1.938-.563.437-1.4.656-2.5.656-.406 0-.844-.047-1.313-.14C1.814-.064 1.33-.204.83-.392v-1.22c.477.274.945.477 1.406.61.47.137.922.203 1.36.203.676 0 1.195-.13 1.562-.39.375-.27.563-.65.563-1.14 0-.427-.138-.76-.407-1-.262-.25-.696-.43-1.297-.548l-.72-.14c-.886-.176-1.526-.454-1.92-.83-.388-.374-.58-.893-.58-1.56 0-.782.27-1.392.813-1.83.538-.445 1.288-.67 2.25-.67.413 0 .83.038 1.25.108.425.074.863.184 1.312.328zm0 0"/></symbol></defs><g><path fill="#fff" d="M0 0h300v300H0z"/><path d="M35.25 135.043l16.852-24.434M52.102 110.61l29.67-.73M54.898 103.555l23.74-.586" stroke-width="1.2" stroke="#000" stroke-miterlimit="10" fill="none"/><path d="M42.238 82.613l4.93 13.996" stroke-width="1.2" stroke="#f00" stroke-miterlimit="10" fill="none"/><path d="M47.168 96.61l4.934 14M81.773 109.88l8.477-28.446M81.773 109.88l18.032 23.577M90.25 81.434l-12.22-8.426" stroke-width="1.2" stroke="#000" stroke-miterlimit="10" fill="none"/><path d="M78.03 73.008l-12.218-8.426" stroke-width="1.2" stroke="#00f" stroke-miterlimit="10" fill="none"/><path d="M83.84 85.496l-9.774-6.738" stroke-width="1.2" stroke="#000" stroke-miterlimit="10" fill="none"/><path d="M74.066 78.758l-9.773-6.742" stroke-width="1.2" stroke="#00f" stroke-miterlimit="10" fill="none"/><path d="M90.25 81.434l27.996-9.864" stroke-width="1.2" stroke="#000" stroke-miterlimit="10" fill="none"/><path d="M65.813 64.582l-11.786 9.016" stroke-width="1.2" stroke="#00f" stroke-miterlimit="10" fill="none"/><path d="M54.027 73.598l-11.79 9.015" stroke-width="1.2" stroke="#f00" stroke-miterlimit="10" fill="none"/><path d="M61.813 57.582h9v14h-9zm0 0" fill="#fff"/><use xlink:href="#a" x="61.813" y="68.721" fill="#00f"/><path d="M37.238 75.613h10v14h-10zm0 0" fill="#fff"/><use xlink:href="#b" x="37.238" y="86.752" fill="#f00"/><path d="M99.805 133.457l-5.7 13.7" stroke-width="1.2" stroke="#000" stroke-miterlimit="10" fill="none"/><path d="M94.105 147.156l-5.703 13.703" stroke-width="1.2" stroke="#00f" stroke-miterlimit="10" fill="none"/><path d="M105.113 138.88l-4.562 10.96" stroke-width="1.2" stroke="#000" stroke-miterlimit="10" fill="none"/><path d="M100.55 149.84l-4.558 10.96M129.238 129.63l-14.715 1.913" stroke-width="1.2" stroke="#00f" stroke-miterlimit="10" fill="none"/><path d="M114.523 131.543l-14.718 1.914" stroke-width="1.2" stroke="#000" stroke-miterlimit="10" fill="none"/><path d="M88.402 160.86l9.016 11.788" stroke-width="1.2" stroke="#00f" stroke-miterlimit="10" fill="none"/><path d="M97.418 172.648l9.016 11.79" stroke-width="1.2" stroke="#000" stroke-miterlimit="10" fill="none"/><path d="M84.402 153.86h9v14h-9zm0 0" fill="#fff"/><use xlink:href="#a" x="84.402" y="164.998" fill="#00f"/><path d="M106.434 184.438L95.03 211.84M111.742 189.86l-9.12 21.925M135.867 180.61l-29.433 3.827M95.03 211.84l18.032 23.578M113.063 235.418l29.437-3.828M115.105 228.11l23.547-3.063M142.5 231.59l11.402-27.403M153.902 204.188l-18.035-23.58M146.55 206.07l-14.425-18.86M135.867 180.61l11.403-27.403M147.27 153.207l-9.016-11.79" stroke-width="1.2" stroke="#000" stroke-miterlimit="10" fill="none"/><path d="M138.254 141.418l-9.016-11.79" stroke-width="1.2" stroke="#00f" stroke-miterlimit="10" fill="none"/><path d="M139.922 155.09l-7.215-9.43" stroke-width="1.2" stroke="#000" stroke-miterlimit="10" fill="none"/><path d="M132.707 145.66l-7.21-9.43" stroke-width="1.2" stroke="#00f" stroke-miterlimit="10" fill="none"/><path d="M147.27 153.207l14.718-1.914" stroke-width="1.2" stroke="#000" stroke-miterlimit="10" fill="none"/><path d="M161.988 151.293l14.72-1.914" stroke-width="1.2" stroke="#00f" stroke-miterlimit="10" fill="none"/><path d="M125.238 122.63h9v14h-9zm0 0" fill="#fff"/><use xlink:href="#a" x="125.238" y="133.768" fill="#00f"/><path d="M176.707 149.38l5.7-13.704" stroke-width="1.2" stroke="#00f" stroke-miterlimit="10" fill="none"/><path d="M182.406 135.676l5.703-13.703" stroke-width="1.2" stroke="#000" stroke-miterlimit="10" fill="none"/><path d="M167.707 142.38h18v14h-18zm0 0" fill="#fff"/><g fill="#00f"><use xlink:href="#a" x="167.707" y="153.518"/><use xlink:href="#c" x="176.684" y="153.518"/></g><path d="M188.11 121.973l29.433-3.828M217.543 118.145l14.203-26.063M225.094 118.883l11.363-20.852" stroke-width="1.2" stroke="#000" stroke-miterlimit="10" fill="none"/><path d="M237.938 139.707l-10.196-10.78" stroke-width="1.2" stroke="#cc0" stroke-miterlimit="10" fill="none"/><path d="M227.742 128.926l-10.2-10.78M231.746 92.082l29.176 5.457M260.922 97.54l3.828 29.433M254.38 101.383l3.06 23.547M264.75 126.973l-13.406 6.367" stroke-width="1.2" stroke="#000" stroke-miterlimit="10" fill="none"/><path d="M251.344 133.34l-13.406 6.367" stroke-width="1.2" stroke="#cc0" stroke-miterlimit="10" fill="none"/><path d="M233.938 132.707h8v14h-8zm0 0" fill="#fff"/><use xlink:href="#d" x="233.938" y="143.846" fill="#cc0"/></g></svg>