<svg xmlns="http://www.w3.org/2000/svg" xmlns:xlink="http://www.w3.org/1999/xlink" width="300pt" height="300pt" viewBox="0 0 300 300"><defs><symbol overflow="visible"><path d="M.797 2.828v-14.11h8V2.83zm.906-.89h6.203v-12.33H1.703zm0 0"/></symbol><symbol overflow="visible" id="a"><path d="M1.578-11.672h2.125l5.172 9.766v-9.766h1.53V0H8.282L3.11-9.766V0H1.577zm0 0"/></symbol><symbol overflow="visible" id="b"><path d="M6.313-10.594c-1.15 0-2.06.43-2.735 1.28-.68.857-1.015 2.017-1.015 3.486 0 1.47.335 2.633 1.015 3.484.676.856 1.586 1.28 2.735 1.28 1.144.002 2.05-.424 2.718-1.28.665-.85 1-2.015 1-3.484 0-1.47-.335-2.63-1-3.484-.667-.852-1.573-1.282-2.717-1.282zm0-1.28c1.632 0 2.94.546 3.92 1.64.978 1.093 1.47 2.562 1.47 4.406 0 1.844-.492 3.32-1.47 4.422-.98 1.093-2.288 1.64-3.92 1.64-1.65 0-2.96-.546-3.938-1.64-.98-1.102-1.47-2.578-1.47-4.422 0-1.844.49-3.313 1.47-4.406.977-1.094 2.29-1.64 3.938-1.64zm0 0"/></symbol><symbol overflow="visible" id="c"><path d="M8.563-11.28v1.53c-.594-.28-1.157-.488-1.688-.625-.53-.145-1.047-.22-1.547-.22-.855 0-1.516.17-1.984.5-.47.337-.703.81-.703 1.423 0 .512.157.902.47 1.172.312.262.898.47 1.765.625l.953.203c1.176.22 2.04.617 2.594 1.188.562.562.844 1.32.844 2.265 0 1.126-.383 1.986-1.14 2.58-.75.585-1.86.874-3.33.874-.554 0-1.14-.07-1.765-.203-.616-.124-1.257-.303-1.92-.546V-2.14c.632.355 1.257.624 1.874.812.614.18 1.22.266 1.813.266.906 0 1.6-.176 2.094-.532.49-.35.735-.86.735-1.515 0-.57-.18-1.02-.53-1.343-.357-.32-.935-.563-1.736-.72l-.954-.186c-1.18-.238-2.03-.61-2.562-1.11-.524-.5-.782-1.19-.782-2.077 0-1.03.36-1.844 1.08-2.437.725-.594 1.733-.89 3.014-.89.54 0 1.094.054 1.657.155.57.095 1.156.243 1.75.44zm0 0"/></symbol></defs><g><path fill="#fff" d="M0 0h300v300H0z"/><path d="M35.676 162.934l38.246.48M73.922 163.414l9.35 16.68" stroke-width="1.2" stroke="#000" stroke-miterlimit="10" fill="none"/><path d="M83.273 180.094l9.356 16.683" stroke-width="1.2" stroke="#00f" stroke-miterlimit="10" fill="none"/><path d="M83.64 162.348l7.485 13.343" stroke-width="1.2" stroke="#000" stroke-miterlimit="10" fill="none"/><path d="M91.125 175.69l7.484 13.35" stroke-width="1.2" stroke="#00f" stroke-miterlimit="10" fill="none"/><path d="M93.46 130.53l-19.538 32.884" stroke-width="1.2" stroke="#000" stroke-miterlimit="10" fill="none"/><path d="M92.63 196.777l19.124.24" stroke-width="1.2" stroke="#00f" stroke-miterlimit="10" fill="none"/><path d="M111.754 197.016l19.12.238" stroke-width="1.2" stroke="#000" stroke-miterlimit="10" fill="none"/><path d="M86.63 187.277h12v19h-12zm0 0" fill="#fff"/><use xlink:href="#a" x="86.629" y="202.129" fill="#00f"/><path d="M130.875 197.254l18.71 33.363M140.598 196.19l14.964 26.69M150.414 164.37l-19.54 32.884M149.586 230.617l19.12.238" stroke-width="1.2" stroke="#000" stroke-miterlimit="10" fill="none"/><path d="M168.707 230.855l19.125.243M187.832 231.098l9.77-16.442" stroke-width="1.2" stroke="#00f" stroke-miterlimit="10" fill="none"/><path d="M197.602 214.656l9.77-16.44" stroke-width="1.2" stroke="#000" stroke-miterlimit="10" fill="none"/><path d="M182.047 223.21l7.816-13.15" stroke-width="1.2" stroke="#00f" stroke-miterlimit="10" fill="none"/><path d="M189.863 210.06l7.817-13.154" stroke-width="1.2" stroke="#000" stroke-miterlimit="10" fill="none"/><path d="M181.832 221.598h12v19h-12zm0 0" fill="#fff"/><use xlink:href="#a" x="181.832" y="236.449" fill="#00f"/><path d="M207.37 198.215l-9.354-16.684" stroke-width="1.2" stroke="#000" stroke-miterlimit="10" fill="none"/><path d="M198.016 181.53l-9.356-16.678" stroke-width="1.2" stroke="#00f" stroke-miterlimit="10" fill="none"/><path d="M207.37 198.215l19.122.238" stroke-width="1.2" stroke="#000" stroke-miterlimit="10" fill="none"/><path d="M226.492 198.453l19.125.238" stroke-width="1.2" stroke="#f00" stroke-miterlimit="10" fill="none"/><path d="M188.66 164.852l-19.12-.24" stroke-width="1.2" stroke="#00f" stroke-miterlimit="10" fill="none"/><path d="M169.54 164.613l-19.126-.242" stroke-width="1.2" stroke="#000" stroke-miterlimit="10" fill="none"/><path d="M184.723 173.8l-15.297-.19" stroke-width="1.2" stroke="#00f" stroke-miterlimit="10" fill="none"/><path d="M169.426 173.61l-15.3-.192" stroke-width="1.2" stroke="#000" stroke-miterlimit="10" fill="none"/><path d="M182.66 155.352h12v19h-12zm0 0" fill="#fff"/><use xlink:href="#a" x="182.66" y="170.203" fill="#00f"/><path d="M150.414 164.37l-9.35-16.68" stroke-width="1.2" stroke="#000" stroke-miterlimit="10" fill="none"/><path d="M141.063 147.69l-9.356-16.682M131.707 131.008l-19.125-.238" stroke-width="1.2" stroke="#00f" stroke-miterlimit="10" fill="none"/><path d="M112.582 130.77l-19.12-.24" stroke-width="1.2" stroke="#000" stroke-miterlimit="10" fill="none"/><path d="M131.707 131.008l9.77-16.442" stroke-width="1.2" stroke="#00f" stroke-miterlimit="10" fill="none"/><path d="M141.477 114.566l9.77-16.44" stroke-width="1.2" stroke="#000" stroke-miterlimit="10" fill="none"/><path d="M125.707 121.508h12v19h-12zm0 0" fill="#fff"/><use xlink:href="#a" x="125.707" y="136.359" fill="#00f"/><path d="M97.383 128.328l-9.352-16.68" stroke-width="1.2" stroke="#000" stroke-miterlimit="10" fill="none"/><path d="M88.03 111.648l-9.354-16.68" stroke-width="1.2" stroke="#f00" stroke-miterlimit="10" fill="none"/><path d="M89.535 132.73l-9.355-16.68" stroke-width="1.2" stroke="#000" stroke-miterlimit="10" fill="none"/><path d="M80.18 116.05l-9.356-16.683" stroke-width="1.2" stroke="#f00" stroke-miterlimit="10" fill="none"/><path d="M61.75 87.668h13v19h-13zm0 0" fill="#fff"/><use xlink:href="#b" x="61.75" y="102.52" fill="#f00"/><path d="M151.246 98.125l38.246.48M189.492 98.605l22.867-30.66M198.992 100.922l18.297-24.53" stroke-width="1.2" stroke="#000" stroke-miterlimit="10" fill="none"/><path d="M211.586 129.828l-11.047-15.61" stroke-width="1.2" stroke="#cc0" stroke-miterlimit="10" fill="none"/><path d="M200.54 114.22L189.49 98.604M212.36 67.945l36.226 12.274M248.586 80.22l-.477 38.245M239.54 83.93l-.384 30.597M248.11 118.465l-18.262 5.683" stroke-width="1.2" stroke="#000" stroke-miterlimit="10" fill="none"/><path d="M229.848 124.148l-18.262 5.68" stroke-width="1.2" stroke="#cc0" stroke-miterlimit="10" fill="none"/><path d="M206.586 120.328h11v19h-11zm0 0" fill="#fff"/><use xlink:href="#c" x="206.586" y="135.18" fill="#cc0"/><path d="M245.617 198.69l9.356 16.685" stroke-width="1.2" stroke="#f00" stroke-miterlimit="10" fill="none"/><path d="M254.973 215.375l9.35 16.68" stroke-width="1.2" stroke="#000" stroke-miterlimit="10" fill="none"/><path d="M239.617 189.19h13v19h-13zm0 0" fill="#fff"/><use xlink:href="#b" x="239.617" y="204.043" fill="#f00"/></g></svg>