<svg xmlns="http://www.w3.org/2000/svg" xmlns:xlink="http://www.w3.org/1999/xlink" width="300pt" height="300pt" viewBox="0 0 300 300"><defs><symbol overflow="visible"><path d="M.594 2.125V-8.47h6V2.126zm.672-.672h4.671V-7.78h-4.67zm0 0"/></symbol><symbol overflow="visible" id="a"><path d="M1.172-8.75h1.594l3.89 7.313V-8.75h1.14V0H6.204L2.328-7.313V0H1.172zm0 0"/></symbol><symbol overflow="visible" id="b"><path d="M4.734-7.953c-.867 0-1.554.324-2.062.97-.5.635-.75 1.51-.75 2.624 0 1.094.25 1.965.75 2.61.508.637 1.195.953 2.062.953.852 0 1.532-.316 2.032-.953.507-.645.765-1.516.765-2.61 0-1.113-.257-1.988-.764-2.624-.5-.645-1.18-.97-2.032-.97zm0-.953c1.22 0 2.192.414 2.922 1.234.74.824 1.11 1.93 1.11 3.313 0 1.376-.37 2.477-1.11 3.298C6.926-.24 5.953.17 4.734.17c-1.23 0-2.214-.41-2.953-1.234C1.04-1.882.673-2.984.673-4.36c0-1.382.367-2.488 1.11-3.312.738-.82 1.722-1.234 2.952-1.234zm0 0"/></symbol></defs><g><path fill="#fff" d="M0 0h300v300H0z"/><path d="M35.25 194.438l29.457-9.903M64.707 184.535l11.652 10.278" stroke-width="1.2" stroke="#000" stroke-miterlimit="10" fill="none"/><path d="M76.36 194.813l11.652 10.28" stroke-width="1.2" stroke="#00f" stroke-miterlimit="10" fill="none"/><path d="M71.875 181.105l9.32 8.227" stroke-width="1.2" stroke="#000" stroke-miterlimit="10" fill="none"/><path d="M81.195 189.332l9.325 8.223" stroke-width="1.2" stroke="#00f" stroke-miterlimit="10" fill="none"/><path d="M70.86 154.074l-6.153 30.46" stroke-width="1.2" stroke="#000" stroke-miterlimit="10" fill="none"/><path d="M88.012 205.094l14.726-4.953" stroke-width="1.2" stroke="#00f" stroke-miterlimit="10" fill="none"/><path d="M102.738 200.14l14.73-4.95" stroke-width="1.2" stroke="#000" stroke-miterlimit="10" fill="none"/><path d="M84.012 198.094h9v14h-9zm0 0" fill="#fff"/><use xlink:href="#a" x="84.012" y="209.232" fill="#00f"/><path d="M117.47 195.19l23.303 20.56M124.637 191.762l18.64 16.45M123.62 164.727l-6.15 30.464M140.773 215.75l14.727-4.953" stroke-width="1.2" stroke="#000" stroke-miterlimit="10" fill="none"/><path d="M155.5 210.797l14.73-4.953M170.23 205.844l3.075-15.23" stroke-width="1.2" stroke="#00f" stroke-miterlimit="10" fill="none"/><path d="M173.305 190.613l3.074-15.23" stroke-width="1.2" stroke="#000" stroke-miterlimit="10" fill="none"/><path d="M163.676 201.352l2.46-12.184" stroke-width="1.2" stroke="#00f" stroke-miterlimit="10" fill="none"/><path d="M166.137 189.168l2.46-12.188" stroke-width="1.2" stroke="#000" stroke-miterlimit="10" fill="none"/><path d="M166.23 198.844h9v14h-9zm0 0" fill="#fff"/><use xlink:href="#a" x="166.23" y="209.982" fill="#00f"/><path d="M176.38 175.383l-11.653-10.278" stroke-width="1.2" stroke="#000" stroke-miterlimit="10" fill="none"/><path d="M164.727 165.105l-11.653-10.28" stroke-width="1.2" stroke="#00f" stroke-miterlimit="10" fill="none"/><path d="M176.38 175.383l14.73-4.953" stroke-width="1.2" stroke="#000" stroke-miterlimit="10" fill="none"/><path d="M191.11 170.43l14.726-4.95M153.074 154.824l-14.726 4.953" stroke-width="1.2" stroke="#00f" stroke-miterlimit="10" fill="none"/><path d="M138.348 159.777l-14.727 4.95" stroke-width="1.2" stroke="#000" stroke-miterlimit="10" fill="none"/><path d="M152.46 162.746l-11.78 3.96" stroke-width="1.2" stroke="#00f" stroke-miterlimit="10" fill="none"/><path d="M140.68 166.707l-11.785 3.96" stroke-width="1.2" stroke="#000" stroke-miterlimit="10" fill="none"/><path d="M149.074 147.824h9v14h-9zm0 0" fill="#fff"/><use xlink:href="#a" x="149.074" y="158.963" fill="#00f"/><path d="M123.62 164.727l-11.65-10.278" stroke-width="1.2" stroke="#000" stroke-miterlimit="10" fill="none"/><path d="M111.97 154.45l-11.654-10.282M100.316 144.168l-14.73 4.953" stroke-width="1.2" stroke="#00f" stroke-miterlimit="10" fill="none"/><path d="M85.586 149.12l-14.727 4.954" stroke-width="1.2" stroke="#000" stroke-miterlimit="10" fill="none"/><path d="M100.316 144.168l3.075-15.23" stroke-width="1.2" stroke="#00f" stroke-miterlimit="10" fill="none"/><path d="M103.39 128.938l3.075-15.23" stroke-width="1.2" stroke="#000" stroke-miterlimit="10" fill="none"/><path d="M96.316 137.168h9v14h-9zm0 0" fill="#fff"/><use xlink:href="#a" x="96.316" y="148.307" fill="#00f"/><path d="M73.277 151.332l-11.652-10.28" stroke-width="1.2" stroke="#000" stroke-miterlimit="10" fill="none"/><path d="M61.625 141.05l-11.652-10.277" stroke-width="1.2" stroke="#f00" stroke-miterlimit="10" fill="none"/><path d="M68.44 156.816l-11.655-10.28" stroke-width="1.2" stroke="#000" stroke-miterlimit="10" fill="none"/><path d="M56.785 146.535l-11.652-10.277" stroke-width="1.2" stroke="#f00" stroke-miterlimit="10" fill="none"/><path d="M37.555 126.516h10v14h-10zm0 0" fill="#fff"/><use xlink:href="#b" x="37.555" y="137.654" fill="#f00"/><path d="M106.465 113.707L96.562 84.25M127.023 90.402l-20.558 23.305M96.563 84.25l30.46 6.152" stroke-width="1.2" stroke="#000" stroke-miterlimit="10" fill="none"/><path d="M205.836 165.48l11.652 10.278" stroke-width="1.2" stroke="#00f" stroke-miterlimit="10" fill="none"/><path d="M217.488 175.758l11.653 10.28M211.988 135.02l-3.074 15.23" stroke-width="1.2" stroke="#000" stroke-miterlimit="10" fill="none"/><path d="M208.914 150.25l-3.078 15.23" stroke-width="1.2" stroke="#00f" stroke-miterlimit="10" fill="none"/><path d="M201.836 158.48h9v14h-9zm0 0" fill="#fff"/><use xlink:href="#a" x="201.836" y="169.619" fill="#00f"/><path d="M229.14 186.04l29.458-9.903M258.598 176.137l3.078-15.235" stroke-width="1.2" stroke="#000" stroke-miterlimit="10" fill="none"/><path d="M261.676 160.902l3.074-15.23M264.75 145.672l-11.652-10.277" stroke-width="1.2" stroke="#f00" stroke-miterlimit="10" fill="none"/><path d="M253.098 135.395l-11.653-10.282" stroke-width="1.2" stroke="#000" stroke-miterlimit="10" fill="none"/><path d="M259.75 138.672h10v14h-10zm0 0" fill="#fff"/><use xlink:href="#b" x="259.75" y="149.811" fill="#f00"/><path d="M241.445 125.113l-29.457 9.907" stroke-width="1.2" stroke="#000" stroke-miterlimit="10" fill="none"/></g></svg>