<svg xmlns="http://www.w3.org/2000/svg" xmlns:xlink="http://www.w3.org/1999/xlink" width="300pt" height="300pt" viewBox="0 0 300 300"><defs><symbol overflow="visible"><path d="M.453 1.594v-7.938h4.5v7.938zm.5-.5h3.5v-6.938h-3.5zm0 0"/></symbol><symbol overflow="visible" id="a"><path d="M.89-6.563H2.08l2.906 5.485v-5.484h.86V0H4.656L1.75-5.484V0H.89zm0 0"/></symbol><symbol overflow="visible" id="b"><path d="M.89-6.563h.876v2.688H5v-2.688h.89V0H5v-3.125H1.766V0H.89zm0 0"/></symbol><symbol overflow="visible" id="c"><path d="M3.547-5.953c-.65 0-1.164.242-1.547.72-.375.48-.563 1.13-.563 1.952 0 .835.188 1.49.563 1.967.383.48.898.72 1.547.72.644 0 1.156-.24 1.53-.72.376-.476.564-1.132.564-1.968 0-.822-.187-1.474-.562-1.954-.375-.477-.887-.72-1.53-.72zm0-.734c.914 0 1.648.312 2.203.937.55.617.828 1.438.828 2.47 0 1.042-.277 1.87-.828 2.483-.555.617-1.29.922-2.203.922-.93 0-1.668-.305-2.22-.922C.774-1.41.5-2.237.5-3.28c0-1.033.273-1.853.828-2.47.55-.625 1.29-.938 2.22-.938zm0 0"/></symbol></defs><g><path fill="#fff" d="M0 0h300v300H0z"/><path d="M229.36 223.992l5.183-11.453" stroke-width="1.2" stroke="#000" stroke-miterlimit="10" fill="none"/><path d="M234.543 212.54l5.184-11.458M239.727 201.082l12.51-1.234" stroke-width="1.2" stroke="#00f" stroke-miterlimit="10" fill="none"/><path d="M252.238 199.848l12.512-1.24" stroke-width="1.2" stroke="#000" stroke-miterlimit="10" fill="none"/><path d="M239.727 201.082l-7.33-10.215" stroke-width="1.2" stroke="#00f" stroke-miterlimit="10" fill="none"/><path d="M232.398 190.867l-7.328-10.22" stroke-width="1.2" stroke="#000" stroke-miterlimit="10" fill="none"/><path d="M236.727 195.582h7v11h-7zm0 0" fill="#fff"/><use xlink:href="#a" x="236.727" y="204.245" fill="#00f"/><path d="M225.07 180.648l-25.023 2.477M221.984 175.012l-20.015 1.976M235.438 157.742l-10.368 22.906M200.047 183.125L185.39 162.69M185.39 162.69l10.372-22.905M191.82 162.84l8.293-18.324M195.762 139.785l25.023-2.476M195.762 139.785l-14.657-20.433M220.785 137.31l14.653 20.432M217.44 142.8l11.724 16.345M181.105 119.352l10.368-22.91M176.75 114.62l8.297-18.327M156.082 121.824l25.023-2.472M191.473 96.44l-7.328-10.217" stroke-width="1.2" stroke="#000" stroke-miterlimit="10" fill="none"/><path d="M184.145 86.223l-7.33-10.215M176.816 76.008l-12.51 1.238" stroke-width="1.2" stroke="#00f" stroke-miterlimit="10" fill="none"/><path d="M164.305 77.246l-12.512 1.238" stroke-width="1.2" stroke="#000" stroke-miterlimit="10" fill="none"/><path d="M174.898 82.145l-10.01.988" stroke-width="1.2" stroke="#00f" stroke-miterlimit="10" fill="none"/><path d="M164.887 83.133l-10.008.992" stroke-width="1.2" stroke="#000" stroke-miterlimit="10" fill="none"/><path d="M173.816 70.508h7v11h-7zm0 0" fill="#fff"/><use xlink:href="#a" x="173.816" y="79.171" fill="#00f"/><path d="M151.793 78.484l-5.184 11.454" stroke-width="1.2" stroke="#000" stroke-miterlimit="10" fill="none"/><path d="M146.61 89.938l-5.184 11.453M141.426 101.39l7.328 10.22" stroke-width="1.2" stroke="#00f" stroke-miterlimit="10" fill="none"/><path d="M148.754 111.61l7.328 10.214" stroke-width="1.2" stroke="#000" stroke-miterlimit="10" fill="none"/><path d="M147.7 99.988l5.863 8.172" stroke-width="1.2" stroke="#00f" stroke-miterlimit="10" fill="none"/><path d="M153.563 108.16l5.86 8.172" stroke-width="1.2" stroke="#000" stroke-miterlimit="10" fill="none"/><path d="M138.426 95.89h7v11h-7zm0 0" fill="#fff"/><use xlink:href="#a" x="138.426" y="104.554" fill="#00f"/><path d="M156.082 121.824l-5.184 11.457" stroke-width="1.2" stroke="#000" stroke-miterlimit="10" fill="none"/><path d="M150.898 133.28l-5.187 11.454M145.71 144.734l-12.51 1.24" stroke-width="1.2" stroke="#00f" stroke-miterlimit="10" fill="none"/><path d="M133.2 145.973l-12.512 1.238" stroke-width="1.2" stroke="#000" stroke-miterlimit="10" fill="none"/><path d="M138.71 139.234h14v11h-14zm0 0" fill="#fff"/><g fill="#00f"><use xlink:href="#a" x="138.711" y="147.897"/><use xlink:href="#b" x="145.688" y="147.897"/></g><path d="M120.688 147.21l-10.368 22.907M110.32 170.117l-12.51 1.238" stroke-width="1.2" stroke="#000" stroke-miterlimit="10" fill="none"/><path d="M97.81 171.355l-12.513 1.24M85.297 172.594l-7.328-10.22" stroke-width="1.2" stroke="#00f" stroke-miterlimit="10" fill="none"/><path d="M77.97 162.375l-7.33-10.215M74.93 195.5l5.183-11.453" stroke-width="1.2" stroke="#000" stroke-miterlimit="10" fill="none"/><path d="M80.113 184.047l5.184-11.453" stroke-width="1.2" stroke="#00f" stroke-miterlimit="10" fill="none"/><path d="M82.297 167.094h7v11h-7zm0 0" fill="#fff"/><use xlink:href="#a" x="82.297" y="175.757" fill="#00f"/><path d="M70.64 152.16l-25.023 2.477M45.617 154.637l-5.183 11.453" stroke-width="1.2" stroke="#000" stroke-miterlimit="10" fill="none"/><path d="M40.434 166.09l-5.184 11.453M35.25 177.543l7.328 10.22" stroke-width="1.2" stroke="#f00" stroke-miterlimit="10" fill="none"/><path d="M42.578 187.762l7.328 10.215" stroke-width="1.2" stroke="#000" stroke-miterlimit="10" fill="none"/><path d="M31.25 172.043h8v11h-8zm0 0" fill="#fff"/><use xlink:href="#c" x="31.25" y="180.706" fill="#f00"/><path d="M49.906 197.977L74.93 195.5" stroke-width="1.2" stroke="#000" stroke-miterlimit="10" fill="none"/></g></svg>