<svg xmlns="http://www.w3.org/2000/svg" xmlns:xlink="http://www.w3.org/1999/xlink" width="300pt" height="300pt" viewBox="0 0 300 300"><defs><symbol overflow="visible"><path d="M.453 1.594v-7.938h4.5v7.938zm.5-.5h3.5v-6.938h-3.5zm0 0"/></symbol><symbol overflow="visible" id="a"><path d="M.89-6.563H2.08l2.906 5.485v-5.484h.86V0H4.656L1.75-5.484V0H.89zm0 0"/></symbol><symbol overflow="visible" id="b"><path d="M3.547-5.953c-.65 0-1.164.242-1.547.72-.375.48-.563 1.13-.563 1.952 0 .835.188 1.49.563 1.967.383.48.898.72 1.547.72.644 0 1.156-.24 1.53-.72.376-.476.564-1.132.564-1.968 0-.822-.187-1.474-.562-1.954-.375-.477-.887-.72-1.53-.72zm0-.734c.914 0 1.648.312 2.203.937.55.617.828 1.438.828 2.47 0 1.042-.277 1.87-.828 2.483-.555.617-1.29.922-2.203.922-.93 0-1.668-.305-2.22-.922C.774-1.41.5-2.237.5-3.28c0-1.033.273-1.853.828-2.47.55-.625 1.29-.938 2.22-.938zm0 0"/></symbol><symbol overflow="visible" id="c"><path d="M.89-6.563h.876v2.688H5v-2.688h.89V0H5v-3.125H1.766V0H.89zm0 0"/></symbol><symbol overflow="visible" id="d"><path d="M4.813-6.344v.86c-.336-.157-.653-.27-.954-.344-.294-.082-.58-.125-.86-.125-.492 0-.867.094-1.125.28-.262.19-.39.454-.39.798 0 .293.085.512.265.656.176.15.504.267.984.36l.547.11c.658.125 1.142.352 1.454.672.32.312.485.734.485 1.265 0 .637-.216 1.122-.642 1.454-.43.325-1.055.485-1.875.485-.312 0-.648-.04-1-.11C1.36-.046 1-.147.625-.296v-.906c.352.2.703.35 1.047.453.35.105.695.156 1.03.156.5 0 .884-.097 1.157-.297.28-.196.42-.485.42-.86 0-.32-.1-.57-.296-.75-.2-.176-.523-.313-.968-.406l-.547-.11C1.81-3.148 1.33-3.36 1.03-3.64.74-3.923.595-4.313.595-4.813c0-.57.203-1.024.61-1.36.405-.344.968-.516 1.687-.516.313 0 .626.032.938.094.32.055.65.137.985.25zm0 0"/></symbol></defs><g><path fill="#fff" d="M0 0h300v300H0z"/><path d="M203.98 192.22l-23.484 5.05M211.348 169.352l-7.368 22.867" stroke-width="1.2" stroke="#000" stroke-miterlimit="10" fill="none"/><path d="M164.375 179.457m1.598 2.543l.773-.703m.82 3.242l1.547-1.4m.05 3.938l2.317-2.098m-.722 4.64l3.094-2.8m-1.497 5.34l3.864-3.5m-2.27 6.04l4.64-4.196m-3.043 6.738l5.41-4.898m-3.816 7.437l6.188-5.596m-5.976 5.933l6.29-5.69" stroke="#000" stroke-miterlimit="10" fill="none"/><path d="M164.375 179.457l-9.715 21.973M164.375 179.457l7.367-22.867M146.48 163.426l17.895 16.03M154.66 201.43l-23.898-2.453M130.762 198.977l-2.528-11.743" stroke-width="1.2" stroke="#000" stroke-miterlimit="10" fill="none"/><path d="M128.234 187.234l-2.527-11.742M125.707 175.492l10.387-6.03" stroke-width="1.2" stroke="#00f" stroke-miterlimit="10" fill="none"/><path d="M136.094 169.46l10.386-6.034" stroke-width="1.2" stroke="#000" stroke-miterlimit="10" fill="none"/><path d="M125.707 175.492l-10.984-4.86" stroke-width="1.2" stroke="#00f" stroke-miterlimit="10" fill="none"/><path d="M114.723 170.633l-10.99-4.86" stroke-width="1.2" stroke="#000" stroke-miterlimit="10" fill="none"/><path d="M122.707 169.992h7v11h-7zm0 0" fill="#fff"/><use xlink:href="#a" x="122.707" y="178.655" fill="#00f"/><path d="M102.066 163.492l-9.7 7.086" stroke-width="1.2" stroke="#000" stroke-miterlimit="10" fill="none"/><path d="M92.367 170.578l-9.7 7.086" stroke-width="1.2" stroke="#f00" stroke-miterlimit="10" fill="none"/><path d="M105.402 168.06l-9.7 7.08" stroke-width="1.2" stroke="#000" stroke-miterlimit="10" fill="none"/><path d="M95.703 175.14l-9.7 7.087" stroke-width="1.2" stroke="#f00" stroke-miterlimit="10" fill="none"/><path d="M103.734 165.773l-1.285-11.94" stroke-width="1.2" stroke="#000" stroke-miterlimit="10" fill="none"/><path d="M102.45 153.832l-1.286-11.94" stroke-width="1.2" stroke="#00f" stroke-miterlimit="10" fill="none"/><path d="M76.336 174.445h8v11h-8zm0 0" fill="#fff"/><use xlink:href="#b" x="76.336" y="183.108" fill="#f00"/><path d="M101.164 141.89l-10.984-4.86" stroke-width="1.2" stroke="#00f" stroke-miterlimit="10" fill="none"/><path d="M90.18 137.03l-10.99-4.858" stroke-width="1.2" stroke="#000" stroke-miterlimit="10" fill="none"/><path d="M94.164 136.39h14v11h-14zm0 0" fill="#fff"/><g fill="#00f"><use xlink:href="#a" x="94.164" y="145.054"/><use xlink:href="#c" x="101.142" y="145.054"/></g><path d="M79.19 132.172l-2.57-23.887M73.316 130.39l-2.058-19.11M59.793 146.344l19.398-14.172M76.62 108.285L54.65 98.57M54.648 98.57L35.25 112.738M56.043 104.55l-15.52 11.337M35.25 112.738l2.57 23.887M37.82 136.625l21.973 9.72M42.305 132.43l17.578 7.773M171.742 156.59l11.742-2.528" stroke-width="1.2" stroke="#000" stroke-miterlimit="10" fill="none"/><path d="M183.484 154.063l11.743-2.524M195.227 151.54l8.062 8.905" stroke-width="1.2" stroke="#00f" stroke-miterlimit="10" fill="none"/><path d="M203.29 160.445l8.058 8.907" stroke-width="1.2" stroke="#000" stroke-miterlimit="10" fill="none"/><path d="M195.227 151.54l3.683-11.435" stroke-width="1.2" stroke="#00f" stroke-miterlimit="10" fill="none"/><path d="M198.91 140.105l3.684-11.433" stroke-width="1.2" stroke="#000" stroke-miterlimit="10" fill="none"/><path d="M192.227 146.04h7v11h-7zm0 0" fill="#fff"/><use xlink:href="#a" x="192.227" y="154.702" fill="#00f"/><path d="M204.69 126.773l-8.06-8.906" stroke-width="1.2" stroke="#000" stroke-miterlimit="10" fill="none"/><path d="M196.63 117.867l-8.06-8.906" stroke-width="1.2" stroke="#f00" stroke-miterlimit="10" fill="none"/><path d="M200.5 130.566l-8.063-8.906" stroke-width="1.2" stroke="#000" stroke-miterlimit="10" fill="none"/><path d="M192.438 121.66l-8.06-8.906" stroke-width="1.2" stroke="#f00" stroke-miterlimit="10" fill="none"/><path d="M202.594 128.672l23.488-5.055" stroke-width="1.2" stroke="#000" stroke-miterlimit="10" fill="none"/><path d="M178.477 105.36h8v11h-8zm0 0" fill="#fff"/><use xlink:href="#b" x="178.477" y="114.022" fill="#f00"/><path d="M226.082 123.617l9.715-21.972M232.223 123.707l7.773-17.578" stroke-width="1.2" stroke="#000" stroke-miterlimit="10" fill="none"/><path d="M243.977 139.648l-8.95-8.015" stroke-width="1.2" stroke="#00f" stroke-miterlimit="10" fill="none"/><path d="M235.027 131.633l-8.945-8.016M235.797 101.645l11.95 1.226" stroke-width="1.2" stroke="#000" stroke-miterlimit="10" fill="none"/><path d="M247.746 102.87l11.95 1.228M259.695 104.098l2.528 11.742" stroke-width="1.2" stroke="#cc0" stroke-miterlimit="10" fill="none"/><path d="M262.223 115.84l2.527 11.742" stroke-width="1.2" stroke="#00f" stroke-miterlimit="10" fill="none"/><path d="M256.695 98.598h6v11h-6zm0 0" fill="#fff"/><use xlink:href="#d" x="256.695" y="107.261" fill="#cc0"/><path d="M264.75 127.582l-20.773 12.066M259.832 123.902l-16.617 9.653" stroke-width="1.2" stroke="#00f" stroke-miterlimit="10" fill="none"/><path d="M261.75 122.082h7v11h-7zm0 0" fill="#fff"/><use xlink:href="#a" x="261.75" y="130.745" fill="#00f"/><path d="M240.977 134.148h7v11h-7zm0 0" fill="#fff"/><use xlink:href="#a" x="240.977" y="142.812" fill="#00f"/></g></svg>