<svg xmlns="http://www.w3.org/2000/svg" xmlns:xlink="http://www.w3.org/1999/xlink" width="300pt" height="300pt" viewBox="0 0 300 300"><defs><symbol overflow="visible"><path d="M.547 1.938V-7.75h5.5v9.688zm.625-.61h4.266v-8.47H1.171zm0 0"/></symbol><symbol overflow="visible" id="a"><path d="M1.078-8.016h1.47l3.546 6.704v-6.704h1.062V0H5.688L2.124-6.703V0H1.078zm0 0"/></symbol><symbol overflow="visible" id="b"><path d="M1.078-8.016h1.094v3.282H6.11v-3.282h1.077V0H6.11v-3.813H2.17V0H1.078zm0 0"/></symbol><symbol overflow="visible" id="c"><path d="M5.89-7.75v1.047c-.417-.195-.808-.344-1.17-.438-.368-.094-.72-.14-1.064-.14-.586 0-1.04.116-1.36.343-.323.23-.483.554-.483.968 0 .357.1.626.312.814.22.18.625.324 1.22.437L4-4.593c.813.157 1.41.434 1.797.828.383.387.578.903.578 1.547 0 .783-.262 1.376-.78 1.783-.525.398-1.29.593-2.298.593-.375 0-.78-.047-1.22-.14C1.648-.066 1.208-.19.75-.36v-1.11c.445.25.88.44 1.297.564.426.125.844.187 1.25.187.625 0 1.1-.116 1.437-.358.332-.25.5-.598.5-1.047 0-.395-.12-.703-.36-.922-.24-.226-.636-.398-1.186-.515l-.657-.126c-.81-.156-1.4-.406-1.764-.75C.898-4.78.72-5.258.72-5.875c0-.707.25-1.266.75-1.672.5-.414 1.19-.625 2.077-.625.375 0 .754.04 1.14.11.395.074.797.18 1.204.312zm0 0"/></symbol><symbol overflow="visible" id="d"><path d="M1.078-8.016h4.61v.907H2.171v2.36h3.172v.922H2.172V0H1.078zm0 0"/></symbol></defs><g><path fill="#fff" d="M0 0h300v300H0z"/><path d="M36.71 158.984l-1.46-26.85M42.883 155.953l-1.168-21.48M60.7 171.14l-23.99-12.156M35.25 132.133l22.523-14.696M57.773 117.438l23.985 12.16M57.31 124.297l19.19 9.726M81.758 129.598l1.465 26.85M81.758 129.598l22.523-14.692M83.223 156.45L60.7 171.14M77.512 152.617l-18.02 11.754M83.223 156.45l23.984 12.16M107.207 168.61l.73 13.425" stroke-width="1.2" stroke="#000" stroke-miterlimit="10" fill="none"/><path d="M107.938 182.035l.73 13.426" stroke-width="1.2" stroke="#00f" stroke-miterlimit="10" fill="none"/><path d="M113.672 170.95l.582 10.738" stroke-width="1.2" stroke="#000" stroke-miterlimit="10" fill="none"/><path d="M114.254 181.688l.586 10.742M129.73 153.914l-11.26 7.348" stroke-width="1.2" stroke="#00f" stroke-miterlimit="10" fill="none"/><path d="M118.47 161.262l-11.263 7.347" stroke-width="1.2" stroke="#000" stroke-miterlimit="10" fill="none"/><path d="M108.668 195.46l11.992 6.08" stroke-width="1.2" stroke="#00f" stroke-miterlimit="10" fill="none"/><path d="M120.66 201.54l11.996 6.077" stroke-width="1.2" stroke="#000" stroke-miterlimit="10" fill="none"/><path d="M104.668 188.96h8v13h-8zm0 0" fill="#fff"/><use xlink:href="#a" x="104.668" y="198.862" fill="#00f"/><path d="M132.656 207.617l22.52-14.69M131.45 200.848l18.02-11.754M155.176 192.926l-1.46-26.852M153.715 166.074l-11.992-6.078" stroke-width="1.2" stroke="#000" stroke-miterlimit="10" fill="none"/><path d="M141.723 159.996l-11.993-6.082" stroke-width="1.2" stroke="#00f" stroke-miterlimit="10" fill="none"/><path d="M148.453 170.5l-9.594-4.863" stroke-width="1.2" stroke="#000" stroke-miterlimit="10" fill="none"/><path d="M138.86 165.637l-9.594-4.864" stroke-width="1.2" stroke="#00f" stroke-miterlimit="10" fill="none"/><path d="M153.715 166.074l11.262-7.347" stroke-width="1.2" stroke="#000" stroke-miterlimit="10" fill="none"/><path d="M164.977 158.727l11.26-7.344" stroke-width="1.2" stroke="#00f" stroke-miterlimit="10" fill="none"/><path d="M125.73 147.414h8v13h-8zm0 0" fill="#fff"/><use xlink:href="#a" x="125.73" y="157.315" fill="#00f"/><path d="M176.238 151.383l11.992 6.078" stroke-width="1.2" stroke="#00f" stroke-miterlimit="10" fill="none"/><path d="M188.23 157.46l11.993 6.08" stroke-width="1.2" stroke="#000" stroke-miterlimit="10" fill="none"/><path d="M168.238 144.883h17v13h-17zm0 0" fill="#fff"/><g fill="#00f"><use xlink:href="#a" x="168.238" y="154.784"/><use xlink:href="#b" x="176.222" y="154.784"/></g><path d="M200.223 163.54l22.523-14.692M222.746 148.848l1.352-26.856M229.2 146.48l1.08-21.488" stroke-width="1.2" stroke="#000" stroke-miterlimit="10" fill="none"/><path d="M247.87 158.434l-12.56-4.793" stroke-width="1.2" stroke="#cc0" stroke-miterlimit="10" fill="none"/><path d="M235.31 153.64l-12.564-4.792M224.098 121.992l25.96-7.015M250.06 114.977l14.69 22.523M246.227 120.688l11.753 18.015M264.75 137.5l-8.44 10.465" stroke-width="1.2" stroke="#000" stroke-miterlimit="10" fill="none"/><path d="M256.31 147.965l-8.44 10.47" stroke-width="1.2" stroke="#cc0" stroke-miterlimit="10" fill="none"/><path d="M244.87 151.934h7v13h-7zm0 0" fill="#fff"/><use xlink:href="#c" x="244.871" y="161.835" fill="#cc0"/><path d="M104.28 114.906l11.263-7.347" stroke-width="1.2" stroke="#000" stroke-miterlimit="10" fill="none"/><path d="M115.543 107.56l11.262-7.35" stroke-width="1.2" stroke="#3cc" stroke-miterlimit="10" fill="none"/><path d="M104.28 114.906l7.345 11.262" stroke-width="1.2" stroke="#000" stroke-miterlimit="10" fill="none"/><path d="M111.625 126.168l7.348 11.258" stroke-width="1.2" stroke="#3cc" stroke-miterlimit="10" fill="none"/><path d="M104.28 114.906l-7.346-11.26" stroke-width="1.2" stroke="#000" stroke-miterlimit="10" fill="none"/><path d="M96.934 103.645L89.59 92.383" stroke-width="1.2" stroke="#3cc" stroke-miterlimit="10" fill="none"/><path d="M123.805 93.71h7v13h-7zm0 0" fill="#fff"/><use xlink:href="#d" x="123.805" y="103.612" fill="#3cc"/><path d="M115.973 130.926h7v13h-7zm0 0" fill="#fff"/><use xlink:href="#d" x="115.973" y="140.827" fill="#3cc"/><path d="M82.59 85.883h7v13h-7zm0 0" fill="#fff"/><use xlink:href="#d" x="82.59" y="95.784" fill="#3cc"/></g></svg>