<svg xmlns="http://www.w3.org/2000/svg" xmlns:xlink="http://www.w3.org/1999/xlink" width="300pt" height="300pt" viewBox="0 0 300 300"><defs><symbol overflow="visible"><path d="M.453 1.594v-7.938h4.5v7.938zm.5-.5h3.5v-6.938h-3.5zm0 0"/></symbol><symbol overflow="visible" id="a"><path d="M3.547-5.953c-.65 0-1.164.242-1.547.72-.375.48-.563 1.13-.563 1.952 0 .835.188 1.49.563 1.967.383.48.898.72 1.547.72.644 0 1.156-.24 1.53-.72.376-.476.564-1.132.564-1.968 0-.822-.187-1.474-.562-1.954-.375-.477-.887-.72-1.53-.72zm0-.734c.914 0 1.648.312 2.203.937.55.617.828 1.438.828 2.47 0 1.042-.277 1.87-.828 2.483-.555.617-1.29.922-2.203.922-.93 0-1.668-.305-2.22-.922C.774-1.41.5-2.237.5-3.28c0-1.033.273-1.853.828-2.47.55-.625 1.29-.938 2.22-.938zm0 0"/></symbol><symbol overflow="visible" id="b"><path d="M.89-6.563H2.08l2.906 5.485v-5.484h.86V0H4.656L1.75-5.484V0H.89zm0 0"/></symbol><symbol overflow="visible" id="c"><path d="M4.813-6.344v.86c-.336-.157-.653-.27-.954-.344-.294-.082-.58-.125-.86-.125-.492 0-.867.094-1.125.28-.262.19-.39.454-.39.798 0 .293.085.512.265.656.176.15.504.267.984.36l.547.11c.658.125 1.142.352 1.454.672.32.312.485.734.485 1.265 0 .637-.216 1.122-.642 1.454-.43.325-1.055.485-1.875.485-.312 0-.648-.04-1-.11C1.36-.046 1-.147.625-.296v-.906c.352.2.703.35 1.047.453.35.105.695.156 1.03.156.5 0 .884-.097 1.157-.297.28-.196.42-.485.42-.86 0-.32-.1-.57-.296-.75-.2-.176-.523-.313-.968-.406l-.547-.11C1.81-3.148 1.33-3.36 1.03-3.64.74-3.923.595-4.313.595-4.813c0-.57.203-1.024.61-1.36.405-.344.968-.516 1.687-.516.313 0 .626.032.938.094.32.055.65.137.985.25zm0 0"/></symbol></defs><g><path fill="#fff" d="M0 0h300v300H0z"/><path d="M44.36 109.305l-4.555 10.85" stroke-width="1.2" stroke="#000" stroke-miterlimit="10" fill="none"/><path d="M39.805 120.156l-4.555 10.852M35.25 131.008l7.117 9.367" stroke-width="1.2" stroke="#f00" stroke-miterlimit="10" fill="none"/><path d="M42.367 140.375l7.12 9.37" stroke-width="1.2" stroke="#000" stroke-miterlimit="10" fill="none"/><path d="M31.25 125.508h8v11h-8zm0 0" fill="#fff"/><use xlink:href="#a" x="31.25" y="134.171" fill="#f00"/><path d="M49.488 149.746l23.348-2.96M52.52 154.945l18.68-2.37M40.38 171.445l9.108-21.7M72.836 146.785l14.238 18.742M87.074 165.527l-9.11 21.7M81.06 165.55l-7.29 17.364M77.965 187.227l-23.348 2.96M77.965 187.227l7.117 9.37" stroke-width="1.2" stroke="#000" stroke-miterlimit="10" fill="none"/><path d="M85.082 196.598l7.12 9.367" stroke-width="1.2" stroke="#f00" stroke-miterlimit="10" fill="none"/><path d="M54.617 190.188L40.38 171.445M57.602 184.965l-11.39-14.992" stroke-width="1.2" stroke="#000" stroke-miterlimit="10" fill="none"/><path d="M92.203 205.965l11.672-1.48" stroke-width="1.2" stroke="#f00" stroke-miterlimit="10" fill="none"/><path d="M103.875 204.484l11.676-1.48" stroke-width="1.2" stroke="#000" stroke-miterlimit="10" fill="none"/><path d="M88.203 200.465h8v11h-8zm0 0" fill="#fff"/><use xlink:href="#a" x="88.203" y="209.128" fill="#f00"/><path d="M115.55 203.004l7.118 9.37" stroke-width="1.2" stroke="#000" stroke-miterlimit="10" fill="none"/><path d="M122.668 212.375l7.12 9.37" stroke-width="1.2" stroke="#00f" stroke-miterlimit="10" fill="none"/><path d="M121.383 201.527l5.695 7.496" stroke-width="1.2" stroke="#000" stroke-miterlimit="10" fill="none"/><path d="M127.078 209.023l5.695 7.497M124.66 181.305l-4.555 10.85" stroke-width="1.2" stroke="#00f" stroke-miterlimit="10" fill="none"/><path d="M120.105 192.156l-4.554 10.848" stroke-width="1.2" stroke="#000" stroke-miterlimit="10" fill="none"/><path d="M129.79 221.746l11.675-1.48" stroke-width="1.2" stroke="#00f" stroke-miterlimit="10" fill="none"/><path d="M141.465 220.266l11.672-1.48" stroke-width="1.2" stroke="#000" stroke-miterlimit="10" fill="none"/><path d="M126.79 216.246h7v11h-7zm0 0" fill="#fff"/><use xlink:href="#b" x="126.789" y="224.909" fill="#00f"/><path d="M153.137 218.785l9.11-21.7M148.94 214.473l7.29-17.364M162.246 197.086l-14.238-18.742" stroke-width="1.2" stroke="#000" stroke-miterlimit="10" fill="none"/><path d="M185.594 194.125l-11.672 1.48" stroke-width="1.2" stroke="#00f" stroke-miterlimit="10" fill="none"/><path d="M173.922 195.605l-11.676 1.48M148.008 178.344l-11.672 1.48" stroke-width="1.2" stroke="#000" stroke-miterlimit="10" fill="none"/><path d="M136.336 179.824l-11.676 1.48" stroke-width="1.2" stroke="#00f" stroke-miterlimit="10" fill="none"/><path d="M146.37 184.133l-9.34 1.183" stroke-width="1.2" stroke="#000" stroke-miterlimit="10" fill="none"/><path d="M137.03 185.316l-9.34 1.188" stroke-width="1.2" stroke="#00f" stroke-miterlimit="10" fill="none"/><path d="M148.008 178.344l4.554-10.852" stroke-width="1.2" stroke="#000" stroke-miterlimit="10" fill="none"/><path d="M152.563 167.492l4.554-10.847" stroke-width="1.2" stroke="#00f" stroke-miterlimit="10" fill="none"/><path d="M121.66 175.805h7v11h-7zm0 0" fill="#fff"/><use xlink:href="#b" x="121.66" y="184.468" fill="#00f"/><path d="M157.117 156.645l11.676-1.48" stroke-width="1.2" stroke="#00f" stroke-miterlimit="10" fill="none"/><path d="M168.793 155.164l11.676-1.48" stroke-width="1.2" stroke="#000" stroke-miterlimit="10" fill="none"/><path d="M157.117 156.645L150 147.273" stroke-width="1.2" stroke="#00f" stroke-miterlimit="10" fill="none"/><path d="M150 147.273l-7.117-9.37" stroke-width="1.2" stroke="#000" stroke-miterlimit="10" fill="none"/><path d="M154.117 151.145h7v11h-7zm0 0" fill="#fff"/><use xlink:href="#b" x="154.117" y="159.808" fill="#00f"/><path d="M183.02 154.754l4.554-10.848" stroke-width="1.2" stroke="#000" stroke-miterlimit="10" fill="none"/><path d="M187.574 143.906l4.555-10.85" stroke-width="1.2" stroke="#f00" stroke-miterlimit="10" fill="none"/><path d="M177.914 152.61l4.555-10.848" stroke-width="1.2" stroke="#000" stroke-miterlimit="10" fill="none"/><path d="M182.47 141.762l4.553-10.852" stroke-width="1.2" stroke="#f00" stroke-miterlimit="10" fill="none"/><path d="M180.47 153.684l14.237 18.738" stroke-width="1.2" stroke="#000" stroke-miterlimit="10" fill="none"/><path d="M185.578 126.484h8v11h-8zm0 0" fill="#fff"/><use xlink:href="#a" x="185.578" y="135.147" fill="#f00"/><path d="M194.707 172.422l-4.56 10.85" stroke-width="1.2" stroke="#000" stroke-miterlimit="10" fill="none"/><path d="M190.148 183.273l-4.554 10.852" stroke-width="1.2" stroke="#00f" stroke-miterlimit="10" fill="none"/><path d="M188.688 172.45l-3.645 8.68" stroke-width="1.2" stroke="#000" stroke-miterlimit="10" fill="none"/><path d="M185.043 181.13l-3.645 8.68" stroke-width="1.2" stroke="#00f" stroke-miterlimit="10" fill="none"/><path d="M194.707 172.422l23.348-2.96" stroke-width="1.2" stroke="#000" stroke-miterlimit="10" fill="none"/><path d="M182.594 188.625h7v11h-7zm0 0" fill="#fff"/><use xlink:href="#b" x="182.594" y="197.288" fill="#00f"/><path d="M218.055 169.46l14.238 18.743M223.887 167.984l11.39 14.993M227.164 147.762l-9.11 21.7M232.293 188.203l23.348-2.96M255.64 185.242l9.11-21.703M251.445 180.926l7.29-17.36M264.75 163.54l-14.238-18.74M250.512 144.8l-23.348 2.962M248.875 150.59l-18.68 2.37M142.883 137.902l9.11-21.7M151.992 116.203L139.79 96.078M155.508 111.32l-9.762-16.1" stroke-width="1.2" stroke="#000" stroke-miterlimit="10" fill="none"/><path d="M174.902 110.82l-11.457 2.692" stroke-width="1.2" stroke="#cc0" stroke-miterlimit="10" fill="none"/><path d="M163.445 113.512l-11.453 2.69M139.79 96.078l15.37-17.824M155.16 78.254l21.7 9.11M155.188 84.273l17.36 7.286M176.86 87.363l-.977 11.727" stroke-width="1.2" stroke="#000" stroke-miterlimit="10" fill="none"/><path d="M175.883 99.09l-.98 11.73" stroke-width="1.2" stroke="#cc0" stroke-miterlimit="10" fill="none"/><path d="M171.902 105.32h6v11h-6zm0 0" fill="#fff"/><use xlink:href="#c" x="171.902" y="113.983" fill="#cc0"/></g></svg>