<svg xmlns="http://www.w3.org/2000/svg" xmlns:xlink="http://www.w3.org/1999/xlink" width="300pt" height="300pt" viewBox="0 0 300 300"><defs><symbol overflow="visible"><path d="M.547 1.938V-7.75h5.5v9.688zm.625-.61h4.266v-8.47H1.171zm0 0"/></symbol><symbol overflow="visible" id="a"><path d="M1.078-8.016h1.47l3.546 6.704v-6.704h1.062V0H5.688L2.124-6.703V0H1.078zm0 0"/></symbol><symbol overflow="visible" id="b"><path d="M1.078-8.016h1.094v3.282H6.11v-3.282h1.077V0H6.11v-3.813H2.17V0H1.078zm0 0"/></symbol><symbol overflow="visible" id="c"><path d="M4.328-7.28c-.78 0-1.406.296-1.875.89-.46.585-.687 1.382-.687 2.39 0 1.012.226 1.813.687 2.406.47.586 1.094.875 1.875.875.79 0 1.414-.288 1.875-.874.457-.593.688-1.394.688-2.406 0-1.008-.23-1.805-.687-2.39-.46-.594-1.086-.89-1.875-.89zm0-.892c1.125 0 2.024.383 2.703 1.14C7.708-6.28 8.048-5.27 8.048-4c0 1.262-.34 2.273-1.016 3.03C6.353-.22 5.454.157 4.33.157S2.3-.22 1.625-.97c-.668-.75-1-1.757-1-3.03 0-1.27.332-2.28 1-3.03.676-.76 1.578-1.142 2.703-1.142zm0 0"/></symbol></defs><g><path fill="#fff" d="M0 0h300v300H0z"/><path d="M264.75 136.477l-26.367.015M238.383 136.492l-13.168 22.848M231.69 135.68l-10.534 18.277" stroke-width="1.2" stroke="#000" stroke-miterlimit="10" fill="none"/><path d="M225.184 113.668l6.597 11.414" stroke-width="1.2" stroke="#00f" stroke-miterlimit="10" fill="none"/><path d="M231.78 125.082l6.603 11.41M225.215 159.34l-13.184.008" stroke-width="1.2" stroke="#000" stroke-miterlimit="10" fill="none"/><path d="M212.03 159.348l-13.182.007M198.848 159.355l-6.602-11.41" stroke-width="1.2" stroke="#00f" stroke-miterlimit="10" fill="none"/><path d="M192.246 147.945l-6.598-11.414" stroke-width="1.2" stroke="#000" stroke-miterlimit="10" fill="none"/><path d="M202.898 153.97l-5.28-9.134" stroke-width="1.2" stroke="#00f" stroke-miterlimit="10" fill="none"/><path d="M197.617 144.836l-5.28-9.13" stroke-width="1.2" stroke="#000" stroke-miterlimit="10" fill="none"/><path d="M194.848 152.855h8v13h-8zm0 0" fill="#fff"/><use xlink:href="#a" x="194.848" y="162.757" fill="#00f"/><path d="M185.648 136.53l13.168-22.843M185.648 136.53l-26.37.02M198.816 113.688l13.184-.012" stroke-width="1.2" stroke="#000" stroke-miterlimit="10" fill="none"/><path d="M212 113.676l13.184-.008" stroke-width="1.2" stroke="#00f" stroke-miterlimit="10" fill="none"/><path d="M201.457 119.89l10.547-.007" stroke-width="1.2" stroke="#000" stroke-miterlimit="10" fill="none"/><path d="M212.004 119.883l10.547-.008" stroke-width="1.2" stroke="#00f" stroke-miterlimit="10" fill="none"/><path d="M221.184 107.168h8v13h-8zm0 0" fill="#fff"/><use xlink:href="#a" x="221.184" y="117.069" fill="#00f"/><path d="M159.277 136.55l-6.582 11.423" stroke-width="1.2" stroke="#000" stroke-miterlimit="10" fill="none"/><path d="M152.695 147.973l-6.586 11.422M146.11 159.395l-13.184.007" stroke-width="1.2" stroke="#00f" stroke-miterlimit="10" fill="none"/><path d="M132.926 159.402l-13.184.012" stroke-width="1.2" stroke="#000" stroke-miterlimit="10" fill="none"/><path d="M138.11 152.895h17v13h-17zm0 0" fill="#fff"/><g fill="#00f"><use xlink:href="#a" x="138.109" y="162.796"/><use xlink:href="#b" x="146.093" y="162.796"/></g><path d="M119.742 159.414L113.145 148" stroke-width="1.2" stroke="#000" stroke-miterlimit="10" fill="none"/><path d="M113.145 148l-6.602-11.414" stroke-width="1.2" stroke="#00f" stroke-miterlimit="10" fill="none"/><path d="M113.05 160.234l-5.277-9.13" stroke-width="1.2" stroke="#000" stroke-miterlimit="10" fill="none"/><path d="M107.773 151.105l-5.28-9.128" stroke-width="1.2" stroke="#00f" stroke-miterlimit="10" fill="none"/><path d="M106.574 182.258l13.168-22.844" stroke-width="1.2" stroke="#000" stroke-miterlimit="10" fill="none"/><path d="M106.543 136.586l-13.184.012" stroke-width="1.2" stroke="#00f" stroke-miterlimit="10" fill="none"/><path d="M93.36 136.598l-13.184.007" stroke-width="1.2" stroke="#000" stroke-miterlimit="10" fill="none"/><path d="M102.543 130.086h8v13h-8zm0 0" fill="#fff"/><use xlink:href="#a" x="102.543" y="139.987" fill="#00f"/><path d="M80.176 136.605l-6.586 11.422" stroke-width="1.2" stroke="#000" stroke-miterlimit="10" fill="none"/><path d="M73.59 148.027l-6.582 11.422" stroke-width="1.2" stroke="#00f" stroke-miterlimit="10" fill="none"/><path d="M84.234 141.988l-5.265 9.137" stroke-width="1.2" stroke="#000" stroke-miterlimit="10" fill="none"/><path d="M78.97 151.125l-5.27 9.137" stroke-width="1.2" stroke="#00f" stroke-miterlimit="10" fill="none"/><path d="M80.176 136.605l-13.2-22.824" stroke-width="1.2" stroke="#000" stroke-miterlimit="10" fill="none"/><path d="M67.008 159.45l6.6 11.413" stroke-width="1.2" stroke="#00f" stroke-miterlimit="10" fill="none"/><path d="M73.61 170.863l6.597 11.414" stroke-width="1.2" stroke="#000" stroke-miterlimit="10" fill="none"/><path d="M63.008 152.95h8v13h-8zm0 0" fill="#fff"/><use xlink:href="#a" x="63.008" y="162.851" fill="#00f"/><path d="M80.207 182.277L67.04 205.12M84.266 187.66L73.73 205.934M106.574 182.258l-26.367.02M67.04 205.12l13.198 22.825M80.238 227.945l26.37-.02M82.87 221.738l21.095-.01M106.61 227.926l13.167-22.844M119.777 205.082l-13.203-22.824M113.086 205.906l-10.563-18.26M66.977 113.78l-26.227-2.737M64.996 107.336l-20.98-2.19M77.684 89.684L66.977 113.78M40.75 111.043L38 98.148" stroke-width="1.2" stroke="#000" stroke-miterlimit="10" fill="none"/><path d="M38 98.148l-2.75-12.894M35.25 85.254l11.414-6.602" stroke-width="1.2" stroke="#f00" stroke-miterlimit="10" fill="none"/><path d="M46.664 78.652l11.41-6.597" stroke-width="1.2" stroke="#000" stroke-miterlimit="10" fill="none"/><path d="M31.25 78.754h9v13h-9zm0 0" fill="#fff"/><use xlink:href="#c" x="31.25" y="88.655" fill="#f00"/><path d="M58.074 72.055l19.61 17.63M55.887 78.43l15.687 14.105" stroke-width="1.2" stroke="#000" stroke-miterlimit="10" fill="none"/></g></svg>