<svg xmlns="http://www.w3.org/2000/svg" xmlns:xlink="http://www.w3.org/1999/xlink" width="300pt" height="300pt" viewBox="0 0 300 300"><defs><symbol overflow="visible"><path d="M.453 1.594v-7.938h4.5v7.938zm.5-.5h3.5v-6.938h-3.5zm0 0"/></symbol><symbol overflow="visible" id="a"><path d="M.89-6.563H2.08l2.906 5.485v-5.484h.86V0H4.656L1.75-5.484V0H.89zm0 0"/></symbol><symbol overflow="visible" id="b"><path d="M.89-6.563h.876v2.688H5v-2.688h.89V0H5v-3.125H1.766V0H.89zm0 0"/></symbol><symbol overflow="visible" id="c"><path d="M3.547-5.953c-.65 0-1.164.242-1.547.72-.375.48-.563 1.13-.563 1.952 0 .835.188 1.49.563 1.967.383.48.898.72 1.547.72.644 0 1.156-.24 1.53-.72.376-.476.564-1.132.564-1.968 0-.822-.187-1.474-.562-1.954-.375-.477-.887-.72-1.53-.72zm0-.734c.914 0 1.648.312 2.203.937.55.617.828 1.438.828 2.47 0 1.042-.277 1.87-.828 2.483-.555.617-1.29.922-2.203.922-.93 0-1.668-.305-2.22-.922C.774-1.41.5-2.237.5-3.28c0-1.033.273-1.853.828-2.47.55-.625 1.29-.938 2.22-.938zm0 0"/></symbol><symbol overflow="visible" id="d"><path d="M4.813-6.344v.86c-.336-.157-.653-.27-.954-.344-.294-.082-.58-.125-.86-.125-.492 0-.867.094-1.125.28-.262.19-.39.454-.39.798 0 .293.085.512.265.656.176.15.504.267.984.36l.547.11c.658.125 1.142.352 1.454.672.32.312.485.734.485 1.265 0 .637-.216 1.122-.642 1.454-.43.325-1.055.485-1.875.485-.312 0-.648-.04-1-.11C1.36-.046 1-.147.625-.296v-.906c.352.2.703.35 1.047.453.35.105.695.156 1.03.156.5 0 .884-.097 1.157-.297.28-.196.42-.485.42-.86 0-.32-.1-.57-.296-.75-.2-.176-.523-.313-.968-.406l-.547-.11C1.81-3.148 1.33-3.36 1.03-3.64.74-3.923.595-4.313.595-4.813c0-.57.203-1.024.61-1.36.405-.344.968-.516 1.687-.516.313 0 .626.032.938.094.32.055.65.137.985.25zm0 0"/></symbol></defs><g><path fill="#fff" d="M0 0h300v300H0z"/><path d="M151.172 164.508l-4.606 15.922 5.727.613zm0 0"/><path d="M151.172 164.508l14.93-6.606M151.172 164.508l-13.18-9.625" stroke-width="1.2" stroke="#000" stroke-miterlimit="10" fill="none"/><path d="M166.102 157.902l15.918 4.61.617-5.73zm0 0"/><path d="M175.723 144.72l-9.62 13.182M182.328 159.645l-6.605-14.926" stroke-width="1.2" stroke="#000" stroke-miterlimit="10" fill="none"/><path d="M175.723 144.72l-9.235-13.763-4.152 3.992zm0 0"/><path d="M175.723 144.72l13.554-9.095" stroke-width="1.2" stroke="#000" stroke-miterlimit="10" fill="none"/><path d="M189.277 135.625m.32-2.984l-1.042.07m1.363-3.054l-2.082.14m2.402-3.12l-3.12.21m3.44-3.195l-4.16.283m4.48-3.262l-5.198.353m5.367-1.918l-5.746.386" stroke="#000" stroke-miterlimit="10" fill="none"/><path d="M189.277 135.625l7.325 3.594" stroke-width="1.2" stroke="#000" stroke-miterlimit="10" fill="none"/><path d="M196.602 139.22l7.328 3.593" stroke-width="1.2" stroke="#00f" stroke-miterlimit="10" fill="none"/><path d="M188.176 119.34l13.55-9.098M187.39 115.238l10.84-7.277M173.52 112.148l14.656 7.192M201.727 110.242l-1.102-16.285M200.625 93.957l-14.652-7.187M197.47 96.684l-11.724-5.75M185.973 86.77l-13.555 9.093M172.418 95.863l1.102 16.285M176.36 97.234l.882 13.028" stroke-width="1.2" stroke="#000" stroke-miterlimit="10" fill="none"/><path d="M203.93 142.813l.55 8.14" stroke-width="1.2" stroke="#00f" stroke-miterlimit="10" fill="none"/><path d="M204.48 150.953l.55 8.145" stroke-width="1.2" stroke="#000" stroke-miterlimit="10" fill="none"/><path d="M196.93 137.313h14v11h-14zm0 0" fill="#fff"/><g fill="#00f"><use xlink:href="#a" x="196.93" y="145.976"/><use xlink:href="#b" x="203.907" y="145.976"/></g><path d="M203.96 157.504l-6.776 4.547" stroke-width="1.2" stroke="#000" stroke-miterlimit="10" fill="none"/><path d="M197.184 162.05l-6.774 4.548" stroke-width="1.2" stroke="#f00" stroke-miterlimit="10" fill="none"/><path d="M206.102 160.69l-6.778 4.548" stroke-width="1.2" stroke="#000" stroke-miterlimit="10" fill="none"/><path d="M199.324 165.238l-6.773 4.55" stroke-width="1.2" stroke="#f00" stroke-miterlimit="10" fill="none"/><path d="M205.03 159.098l7.33 3.593" stroke-width="1.2" stroke="#000" stroke-miterlimit="10" fill="none"/><path d="M212.36 162.69l7.327 3.595" stroke-width="1.2" stroke="#f00" stroke-miterlimit="10" fill="none"/><path d="M183.48 162.69h8v11h-8zm0 0" fill="#fff"/><use xlink:href="#c" x="183.48" y="171.354" fill="#f00"/><path d="M219.688 166.285l.55 8.14" stroke-width="1.2" stroke="#f00" stroke-miterlimit="10" fill="none"/><path d="M220.238 174.426l.55 8.144" stroke-width="1.2" stroke="#000" stroke-miterlimit="10" fill="none"/><path d="M215.688 160.785h8v11h-8zm0 0" fill="#fff"/><use xlink:href="#c" x="215.688" y="169.448" fill="#f00"/><path d="M220.79 182.57l14.65 7.188M235.44 189.758l1.103 16.285M239.383 191.13l.883 13.026M248.996 180.66l-13.555 9.098M236.543 206.043l14.656 7.187M251.2 213.23l13.55-9.093M250.414 209.133l10.84-7.278M264.75 204.137l-1.102-16.285M263.648 187.852l-14.652-7.192M260.492 190.578l-11.722-5.75M139.898 155.09l.872-8.113" stroke-width="1.2" stroke="#000" stroke-miterlimit="10" fill="none"/><path d="M140.77 146.977l.87-8.118" stroke-width="1.2" stroke="#f00" stroke-miterlimit="10" fill="none"/><path d="M136.082 154.68l.87-8.114" stroke-width="1.2" stroke="#000" stroke-miterlimit="10" fill="none"/><path d="M136.953 146.566l.87-8.117" stroke-width="1.2" stroke="#f00" stroke-miterlimit="10" fill="none"/><path d="M137.992 154.883l-7.465 3.304" stroke-width="1.2" stroke="#000" stroke-miterlimit="10" fill="none"/><path d="M130.527 158.188l-7.464 3.3" stroke-width="1.2" stroke="#00f" stroke-miterlimit="10" fill="none"/><path d="M135.734 133.156h8v11h-8zm0 0" fill="#fff"/><use xlink:href="#c" x="135.734" y="141.819" fill="#f00"/><path d="M123.063 161.488l-6.59-4.812" stroke-width="1.2" stroke="#00f" stroke-miterlimit="10" fill="none"/><path d="M116.473 156.676l-6.59-4.813" stroke-width="1.2" stroke="#000" stroke-miterlimit="10" fill="none"/><path d="M116.063 155.988h14v11h-14zm0 0" fill="#fff"/><g fill="#00f"><use xlink:href="#a" x="116.063" y="164.651"/><use xlink:href="#b" x="123.04" y="164.651"/></g><path d="M109.883 151.863l-14.93 6.606M94.953 158.47l-13.183-9.622M91.37 160.61l-10.546-7.7M93.21 174.7l1.743-16.23M81.77 148.848l-14.926 6.605M66.844 155.453l-1.742 16.227M70.488 157.484l-1.394 12.985M65.102 171.68l13.183 9.625M65.102 171.68l-7.46 3.304" stroke-width="1.2" stroke="#000" stroke-miterlimit="10" fill="none"/><path d="M57.64 174.984l-7.464 3.3" stroke-width="1.2" stroke="#cc0" stroke-miterlimit="10" fill="none"/><path d="M78.285 181.305L93.21 174.7M78.223 177.133l11.94-5.285" stroke-width="1.2" stroke="#000" stroke-miterlimit="10" fill="none"/><path d="M48.422 179.063l3.3 7.464" stroke-width="1.2" stroke="#cc0" stroke-miterlimit="10" fill="none"/><path d="M51.723 186.527l3.3 7.46" stroke-width="1.2" stroke="#f00" stroke-miterlimit="10" fill="none"/><path d="M51.934 177.508l3.3 7.465" stroke-width="1.2" stroke="#cc0" stroke-miterlimit="10" fill="none"/><path d="M55.234 184.973l3.305 7.46" stroke-width="1.2" stroke="#f00" stroke-miterlimit="10" fill="none"/><path d="M51.934 177.508l-3.305-7.46" stroke-width="1.2" stroke="#cc0" stroke-miterlimit="10" fill="none"/><path d="M48.63 170.047l-3.302-7.465" stroke-width="1.2" stroke="#f00" stroke-miterlimit="10" fill="none"/><path d="M48.422 179.063l-3.305-7.465" stroke-width="1.2" stroke="#cc0" stroke-miterlimit="10" fill="none"/><path d="M45.117 171.598l-3.3-7.46" stroke-width="1.2" stroke="#f00" stroke-miterlimit="10" fill="none"/><path d="M50.176 178.285l-7.46 3.305" stroke-width="1.2" stroke="#cc0" stroke-miterlimit="10" fill="none"/><path d="M42.715 181.59l-7.465 3.3" stroke-width="1.2" stroke="#000" stroke-miterlimit="10" fill="none"/><path d="M47.176 172.785h6v11h-6zm0 0" fill="#fff"/><use xlink:href="#d" x="47.176" y="181.448" fill="#cc0"/><path d="M52.78 187.71h8v11h-8zm0 0" fill="#fff"/><use xlink:href="#c" x="52.781" y="196.374" fill="#f00"/><path d="M35.57 157.86h8v11h-8zm0 0" fill="#fff"/><use xlink:href="#c" x="35.57" y="166.522" fill="#f00"/></g></svg>