<svg xmlns="http://www.w3.org/2000/svg" xmlns:xlink="http://www.w3.org/1999/xlink" width="300pt" height="300pt" viewBox="0 0 300 300"><defs><symbol overflow="visible"><path d="M.453 1.594v-7.938h4.5v7.938zm.5-.5h3.5v-6.938h-3.5zm0 0"/></symbol><symbol overflow="visible" id="a"><path d="M.89-6.563H2.08l2.906 5.485v-5.484h.86V0H4.656L1.75-5.484V0H.89zm0 0"/></symbol><symbol overflow="visible" id="b"><path d="M3.547-5.953c-.65 0-1.164.242-1.547.72-.375.48-.563 1.13-.563 1.952 0 .835.188 1.49.563 1.967.383.48.898.72 1.547.72.644 0 1.156-.24 1.53-.72.376-.476.564-1.132.564-1.968 0-.822-.187-1.474-.562-1.954-.375-.477-.887-.72-1.53-.72zm0-.734c.914 0 1.648.312 2.203.937.55.617.828 1.438.828 2.47 0 1.042-.277 1.87-.828 2.483-.555.617-1.29.922-2.203.922-.93 0-1.668-.305-2.22-.922C.774-1.41.5-2.237.5-3.28c0-1.033.273-1.853.828-2.47.55-.625 1.29-.938 2.22-.938zm0 0"/></symbol></defs><g><path fill="#fff" d="M0 0h300v300H0z"/><path d="M179.996 179.328l7.738-13.867M187.734 165.46l-8.14-13.632M190.125 162.184l-6.512-10.907M203.61 165.23l-15.876.23M179.594 151.828l7.734-13.863M179.594 151.828l-15.88.234M187.328 137.965l15.88-.235M188.973 141.676l12.7-.188M203.207 137.73l8.137 13.633M211.344 151.363l-7.735 13.867M207.31 150.93l-6.19 11.093M211.344 151.363l15.88-.234M227.223 151.13l4.57-6.49" stroke-width="1.2" stroke="#000" stroke-miterlimit="10" fill="none"/><path d="M231.793 144.64l4.57-6.492" stroke-width="1.2" stroke="#00f" stroke-miterlimit="10" fill="none"/><path d="M231.19 151.984l3.658-5.195" stroke-width="1.2" stroke="#000" stroke-miterlimit="10" fill="none"/><path d="M234.848 146.79l3.656-5.192M236.742 163.836l-4.762-6.352" stroke-width="1.2" stroke="#00f" stroke-miterlimit="10" fill="none"/><path d="M231.98 157.484l-4.757-6.355" stroke-width="1.2" stroke="#000" stroke-miterlimit="10" fill="none"/><path d="M236.363 138.148l7.586 2.344" stroke-width="1.2" stroke="#00f" stroke-miterlimit="10" fill="none"/><path d="M243.95 140.492l7.585 2.34" stroke-width="1.2" stroke="#f00" stroke-miterlimit="10" fill="none"/><path d="M233.363 132.648h7v11h-7zm0 0" fill="#fff"/><use xlink:href="#a" x="233.363" y="141.312" fill="#00f"/><path d="M251.535 142.832l.117 7.938" stroke-width="1.2" stroke="#f00" stroke-miterlimit="10" fill="none"/><path d="M251.652 150.77l.118 7.94" stroke-width="1.2" stroke="#000" stroke-miterlimit="10" fill="none"/><path d="M247.535 137.332h8v11h-8zm0 0" fill="#fff"/><use xlink:href="#b" x="247.535" y="145.995" fill="#f00"/><path d="M251.77 158.71l-7.516 2.563" stroke-width="1.2" stroke="#000" stroke-miterlimit="10" fill="none"/><path d="M244.254 161.273l-7.512 2.563" stroke-width="1.2" stroke="#00f" stroke-miterlimit="10" fill="none"/><path d="M249.06 155.688l-6.013 2.05" stroke-width="1.2" stroke="#000" stroke-miterlimit="10" fill="none"/><path d="M243.047 157.738l-6.008 2.05" stroke-width="1.2" stroke="#00f" stroke-miterlimit="10" fill="none"/><path d="M251.77 158.71l12.98 9.142" stroke-width="1.2" stroke="#000" stroke-miterlimit="10" fill="none"/><path d="M233.742 158.336h7v11h-7zm0 0" fill="#fff"/><use xlink:href="#a" x="233.742" y="166.999" fill="#00f"/><path d="M163.715 152.063l-8.137-13.633M159.695 152.613l-6.51-10.906M155.98 165.93l7.735-13.868M155.578 138.43l-15.88.234M139.7 138.664l-7.735 13.863M142.188 141.87L136 152.96M131.965 152.527l8.14 13.633M131.965 152.527l-15.875.235M140.105 166.16l15.875-.23M141.637 162.402l12.703-.187M117.69 151.805l-4.07-6.817" stroke-width="1.2" stroke="#000" stroke-miterlimit="10" fill="none"/><path d="M113.62 144.988l-4.07-6.816" stroke-width="1.2" stroke="#f00" stroke-miterlimit="10" fill="none"/><path d="M114.484 153.72l-4.07-6.818" stroke-width="1.2" stroke="#000" stroke-miterlimit="10" fill="none"/><path d="M110.414 146.902l-4.07-6.816" stroke-width="1.2" stroke="#f00" stroke-miterlimit="10" fill="none"/><path d="M116.09 152.762l-3.87 6.933" stroke-width="1.2" stroke="#000" stroke-miterlimit="10" fill="none"/><path d="M112.22 159.695l-3.868 6.934" stroke-width="1.2" stroke="#00f" stroke-miterlimit="10" fill="none"/><path d="M99.95 133.63h8v11h-8zm0 0" fill="#fff"/><use xlink:href="#b" x="99.949" y="142.292" fill="#f00"/><path d="M108.352 166.63l3.335 7.202" stroke-width="1.2" stroke="#00f" stroke-miterlimit="10" fill="none"/><path d="M111.688 173.832l3.335 7.203M92.586 168.52l7.883-.946" stroke-width="1.2" stroke="#000" stroke-miterlimit="10" fill="none"/><path d="M100.47 167.574l7.882-.945" stroke-width="1.2" stroke="#00f" stroke-miterlimit="10" fill="none"/><path d="M105.352 161.13h7v11h-7zm0 0" fill="#fff"/><use xlink:href="#a" x="105.352" y="169.792" fill="#00f"/><path d="M115.023 181.035l-11.644 10.797M103.38 191.832l-13.864-7.734M89.516 184.098l3.07-15.578M86.156 181.816l2.457-12.46M74.488 189.227l15.028-5.13M92.586 168.52l-11.953-10.45M80.633 158.07l-15.028 5.13M80.336 162.117l-12.02 4.102M65.605 163.2l-3.074 15.573M51.738 155.46l13.867 7.74M62.53 178.773l11.958 10.454M66.188 177.008l9.562 8.36M62.53 178.773l-7.878.95" stroke-width="1.2" stroke="#000" stroke-miterlimit="10" fill="none"/><path d="M54.652 179.723l-7.882.945M46.77 180.668l-3.336-7.207" stroke-width="1.2" stroke="#f00" stroke-miterlimit="10" fill="none"/><path d="M43.434 173.46l-3.336-7.202" stroke-width="1.2" stroke="#000" stroke-miterlimit="10" fill="none"/><path d="M42.77 175.168h8v11h-8zm0 0" fill="#fff"/><use xlink:href="#b" x="42.77" y="183.831" fill="#f00"/><path d="M40.098 166.258l11.64-10.797M51.738 155.46l12.707-9.52M37.14 149.215l14.598 6.246M64.445 145.94l-1.89-15.764M62.555 130.176l-7.297-3.12" stroke-width="1.2" stroke="#000" stroke-miterlimit="10" fill="none"/><path d="M55.258 127.055l-7.3-3.125M47.957 123.93l-6.352 4.76" stroke-width="1.2" stroke="#00f" stroke-miterlimit="10" fill="none"/><path d="M41.605 128.69l-6.355 4.763" stroke-width="1.2" stroke="#000" stroke-miterlimit="10" fill="none"/><path d="M47.957 123.93l-.945-7.88" stroke-width="1.2" stroke="#00f" stroke-miterlimit="10" fill="none"/><path d="M47.012 116.05l-.946-7.882" stroke-width="1.2" stroke="#000" stroke-miterlimit="10" fill="none"/><path d="M44.957 118.43h7v11h-7zm0 0" fill="#fff"/><use xlink:href="#a" x="44.957" y="127.093" fill="#00f"/><path d="M35.25 133.453l1.89 15.762" stroke-width="1.2" stroke="#000" stroke-miterlimit="10" fill="none"/></g></svg>