<svg xmlns="http://www.w3.org/2000/svg" xmlns:xlink="http://www.w3.org/1999/xlink" width="300pt" height="300pt" viewBox="0 0 300 300"><defs><symbol overflow="visible"><path d="M.797 2.828v-14.11h8V2.83zm.906-.89h6.203v-12.33H1.703zm0 0"/></symbol><symbol overflow="visible" id="a"><path d="M1.578-11.672h2.125l5.172 9.766v-9.766h1.53V0H8.282L3.11-9.766V0H1.577zm0 0"/></symbol><symbol overflow="visible" id="b"><path d="M6.313-10.594c-1.15 0-2.06.43-2.735 1.28-.68.857-1.015 2.017-1.015 3.486 0 1.47.335 2.633 1.015 3.484.676.856 1.586 1.28 2.735 1.28 1.144.002 2.05-.424 2.718-1.28.665-.85 1-2.015 1-3.484 0-1.47-.335-2.63-1-3.484-.667-.852-1.573-1.282-2.717-1.282zm0-1.28c1.632 0 2.94.546 3.92 1.64.978 1.093 1.47 2.562 1.47 4.406 0 1.844-.492 3.32-1.47 4.422-.98 1.093-2.288 1.64-3.92 1.64-1.65 0-2.96-.546-3.938-1.64-.98-1.102-1.47-2.578-1.47-4.422 0-1.844.49-3.313 1.47-4.406.977-1.094 2.29-1.64 3.938-1.64zm0 0"/></symbol><symbol overflow="visible" id="c"><path d="M1.578-11.672h1.578v4.78H8.89v-4.78h1.58V0H8.89v-5.563H3.157V0H1.578zm0 0"/></symbol><symbol overflow="visible"><path d="M.64 2.297v-11.47h6.5v11.47zm.735-.72h5.047V-8.436H1.375zm0 0"/></symbol><symbol overflow="visible" id="d"><path d="M2.5-1.078h4.47V0H.952v-1.078c.488-.5 1.15-1.172 1.985-2.016C3.78-3.944 4.312-4.5 4.53-4.75c.407-.457.69-.848.845-1.172.164-.32.25-.633.25-.937 0-.507-.18-.92-.53-1.234-.345-.312-.806-.47-1.376-.47-.408.002-.837.072-1.283.205-.437.137-.914.352-1.42.64v-1.296c.518-.207 1.003-.363 1.452-.468.444-.114.85-.172 1.217-.172.99 0 1.774.25 2.36.75.582.492.875 1.148.875 1.97 0 .385-.074.756-.22 1.108-.147.344-.413.75-.796 1.22-.105.124-.445.483-1.015 1.077-.562.585-1.36 1.4-2.39 2.452zm0 0"/></symbol></defs><g><path fill="#fff" d="M0 0h300v300H0z"/><path d="M164.242 208.773l26.91-27.183M126.21 204.684l38.032 4.09M191.152 181.59l35.133 15.117M198.223 174.836l28.105 12.094M186.676 143.602l4.476 37.988M226.285 196.707l30.66-22.867M256.945 173.84l-4.472-37.988M247.563 171.094l-3.583-30.39M252.473 135.852l-35.137-15.118M217.336 120.734l-30.66 22.868M219.652 130.234l-24.53 18.297M186.676 143.602l-16.246-10.094" stroke-width="1.2" stroke="#000" stroke-miterlimit="10" fill="none"/><path d="M170.43 133.508l-16.243-10.09M154.188 123.418l-18.02 6.406" stroke-width="1.2" stroke="#00f" stroke-miterlimit="10" fill="none"/><path d="M136.168 129.824l-18.02 6.406" stroke-width="1.2" stroke="#000" stroke-miterlimit="10" fill="none"/><path d="M154.188 123.418l2.042-19.016" stroke-width="1.2" stroke="#00f" stroke-miterlimit="10" fill="none"/><path d="M156.23 104.402l2.047-19.015" stroke-width="1.2" stroke="#000" stroke-miterlimit="10" fill="none"/><path d="M148.188 113.918h12v19h-12zm0 0" fill="#fff"/><use xlink:href="#a" x="148.188" y="128.77" fill="#00f"/><path d="M118.148 136.23L93.05 107.367M108.844 139.25L88.77 116.156M105.695 172.398l12.453-36.168M93.05 107.367l-37.546 7.3M55.504 114.668l-12.45 36.164M62.77 121.215l-9.96 28.933M43.055 150.832L68.148 179.7M68.148 179.7l37.547-7.302M70.188 170.137l30.035-5.844M105.695 172.398l20.516 32.286M122.387 202.31l-10.094 16.24" stroke-width="1.2" stroke="#000" stroke-miterlimit="10" fill="none"/><path d="M112.293 218.55l-10.09 16.247" stroke-width="1.2" stroke="#f00" stroke-miterlimit="10" fill="none"/><path d="M130.03 207.06l-10.093 16.24" stroke-width="1.2" stroke="#000" stroke-miterlimit="10" fill="none"/><path d="M119.938 223.3l-10.09 16.247" stroke-width="1.2" stroke="#f00" stroke-miterlimit="10" fill="none"/><path d="M93.023 227.672h13v19h-13zm0 0" fill="#fff"/><use xlink:href="#b" x="93.023" y="242.523" fill="#f00"/><path d="M160.93 81.75l-15.446-11.277" stroke-width="1.2" stroke="#000" stroke-miterlimit="10" fill="none"/><path d="M145.484 70.473L130.04 59.195" stroke-width="1.2" stroke="#f00" stroke-miterlimit="10" fill="none"/><path d="M155.62 89.02l-15.444-11.278" stroke-width="1.2" stroke="#000" stroke-miterlimit="10" fill="none"/><path d="M140.176 77.742l-15.446-11.28" stroke-width="1.2" stroke="#f00" stroke-miterlimit="10" fill="none"/><path d="M158.277 85.387l17.49-7.74" stroke-width="1.2" stroke="#000" stroke-miterlimit="10" fill="none"/><path d="M175.766 77.648l17.492-7.734" stroke-width="1.2" stroke="#00f" stroke-miterlimit="10" fill="none"/><path d="M114.387 53.328h13v19h-13zm0 0" fill="#fff"/><use xlink:href="#b" x="114.387" y="68.18" fill="#f00"/><path d="M177.258 58.414h33v23h-33zm0 0" fill="#fff"/><g fill="#00f"><use xlink:href="#a" x="177.258" y="73.266"/><use xlink:href="#c" x="189.227" y="73.266"/></g><use xlink:href="#d" x="201.258" y="78.148" fill="#00f"/></g></svg>