<svg xmlns="http://www.w3.org/2000/svg" xmlns:xlink="http://www.w3.org/1999/xlink" width="300pt" height="300pt" viewBox="0 0 300 300"><defs><symbol overflow="visible"><path d="M.453 1.594v-7.938h4.5v7.938zm.5-.5h3.5v-6.938h-3.5zm0 0"/></symbol><symbol overflow="visible" id="a"><path d="M5.797-6.063v.938c-.305-.27-.625-.473-.97-.61-.335-.144-.686-.218-1.06-.218-.75 0-1.33.23-1.736.687-.397.46-.592 1.12-.592 1.985 0 .866.195 1.526.593 1.983.408.46.986.688 1.736.688.375 0 .726-.066 1.062-.203.344-.132.664-.343.97-.625V-.5c-.314.21-.642.367-.986.47-.343.1-.714.155-1.11.155-.99 0-1.772-.3-2.343-.906C.784-1.396.5-2.228.5-3.28c0-1.052.285-1.88.86-2.486.57-.613 1.35-.92 2.343-.92.395-.002.766.053 1.11.155.35.104.68.26.984.468zm0 0"/></symbol><symbol overflow="visible" id="b"><path d="M.844-6.844h.812V0H.844zm0 0"/></symbol><symbol overflow="visible" id="c"><path d="M.89-6.563H2.08l2.906 5.485v-5.484h.86V0H4.656L1.75-5.484V0H.89zm0 0"/></symbol><symbol overflow="visible" id="d"><path d="M.89-6.563h.876v2.688H5v-2.688h.89V0H5v-3.125H1.766V0H.89zm0 0"/></symbol></defs><g><path fill="#fff" d="M0 0h300v300H0z"/><path d="M35.25 161.57l11-5.04" stroke-width="1.2" stroke="#0c0" stroke-miterlimit="10" fill="none"/><path d="M46.25 156.53l11-5.034" stroke-width="1.2" stroke="#000" stroke-miterlimit="10" fill="none"/><path d="M25.25 156.07h10v11h-10zm0 0" fill="#fff"/><g fill="#0c0"><use xlink:href="#a" x="25.25" y="164.733"/><use xlink:href="#b" x="31.764" y="164.733"/></g><path d="M57.25 151.496l2.273-24.094M63.145 149.62l1.82-19.272M76.977 165.508L57.25 151.496M59.523 127.402l21.997-10.078M81.52 117.324l19.73 14.016M80.195 123.367l15.785 11.21M101.25 131.34l-2.273 24.09M101.25 131.34l22-10.078M98.977 155.43l-22 10.078M94.406 151.262l-17.6 8.062M123.25 121.262l2.387-11.864" stroke-width="1.2" stroke="#000" stroke-miterlimit="10" fill="none"/><path d="M125.637 109.398l2.39-11.86" stroke-width="1.2" stroke="#00f" stroke-miterlimit="10" fill="none"/><path d="M129.31 120.012l1.91-9.49" stroke-width="1.2" stroke="#000" stroke-miterlimit="10" fill="none"/><path d="M131.22 110.523l1.91-9.488" stroke-width="1.2" stroke="#00f" stroke-miterlimit="10" fill="none"/><path d="M144.332 133.137l-21.082-11.875" stroke-width="1.2" stroke="#000" stroke-miterlimit="10" fill="none"/><path d="M128.027 97.54l24.036-2.786" stroke-width="1.2" stroke="#00f" stroke-miterlimit="10" fill="none"/><path d="M125.027 92.04h7v11h-7zm0 0" fill="#fff"/><use xlink:href="#c" x="125.027" y="100.702" fill="#00f"/><path d="M152.063 94.754l5.04 11" stroke-width="1.2" stroke="#00f" stroke-miterlimit="10" fill="none"/><path d="M157.102 105.754l5.04 11" stroke-width="1.2" stroke="#000" stroke-miterlimit="10" fill="none"/><path d="M145.063 89.254h14v11h-14zm0 0" fill="#fff"/><g fill="#00f"><use xlink:href="#c" x="145.063" y="97.917"/><use xlink:href="#d" x="152.04" y="97.917"/></g><path d="M162.14 116.754L174 119.14" stroke-width="1.2" stroke="#000" stroke-miterlimit="10" fill="none"/><path d="M174 119.14l11.863 2.39" stroke-width="1.2" stroke="#00f" stroke-miterlimit="10" fill="none"/><path d="M162.14 116.754l-17.808 16.383M156.504 114.2l-14.246 13.11" stroke-width="1.2" stroke="#000" stroke-miterlimit="10" fill="none"/><path d="M185.863 121.53l8-9.077" stroke-width="1.2" stroke="#00f" stroke-miterlimit="10" fill="none"/><path d="M193.863 112.453l7.996-9.078M193.586 144.465l-3.863-11.47" stroke-width="1.2" stroke="#000" stroke-miterlimit="10" fill="none"/><path d="M189.723 132.996l-3.86-11.465" stroke-width="1.2" stroke="#00f" stroke-miterlimit="10" fill="none"/><path d="M182.863 116.03h7v11h-7zm0 0" fill="#fff"/><use xlink:href="#c" x="182.863" y="124.694" fill="#00f"/><path d="M201.86 103.375l23.722 4.78M225.582 108.156l7.723 22.93M233.305 131.086l-15.996 18.156M235.977 136.668L223.18 151.19M257.027 135.863l-23.722-4.777M217.31 149.242l-23.724-4.777M217.31 149.242l7.72 22.93M225.03 172.172l23.72 4.78M228.527 167.07l18.977 3.82M248.75 176.953l16-18.156M264.75 158.797l-7.723-22.934M258.582 158.32l-6.18-18.343M144.332 133.137l2.785 24.035M147.117 157.172l-19.422 14.433M148.57 163.188l-15.54 11.542M169.328 166.777l-22.21-9.605M127.695 171.605l2.785 24.036M130.48 195.64l11.106 4.805" stroke-width="1.2" stroke="#000" stroke-miterlimit="10" fill="none"/><path d="M141.586 200.445l11.105 4.8" stroke-width="1.2" stroke="#00f" stroke-miterlimit="10" fill="none"/><path d="M134.96 191.375l8.888 3.844" stroke-width="1.2" stroke="#000" stroke-miterlimit="10" fill="none"/><path d="M143.848 195.22l8.882 3.84M152.69 205.246l9.712-7.215" stroke-width="1.2" stroke="#00f" stroke-miterlimit="10" fill="none"/><path d="M162.402 198.03l9.71-7.214" stroke-width="1.2" stroke="#000" stroke-miterlimit="10" fill="none"/><path d="M149.69 199.746h7v11h-7zm0 0" fill="#fff"/><use xlink:href="#c" x="149.691" y="208.409" fill="#00f"/><path d="M172.113 190.816l-2.785-24.04M166.18 189.066l-2.23-19.23" stroke-width="1.2" stroke="#000" stroke-miterlimit="10" fill="none"/></g></svg>