<svg xmlns="http://www.w3.org/2000/svg" xmlns:xlink="http://www.w3.org/1999/xlink" width="300pt" height="300pt" viewBox="0 0 300 300"><defs><symbol overflow="visible"><path d="M.453 1.594v-7.938h4.5v7.938zm.5-.5h3.5v-6.938h-3.5zm0 0"/></symbol><symbol overflow="visible" id="a"><path d="M.89-6.563H2.08l2.906 5.485v-5.484h.86V0H4.656L1.75-5.484V0H.89zm0 0"/></symbol><symbol overflow="visible" id="b"><path d="M.89-6.563h.876v2.688H5v-2.688h.89V0H5v-3.125H1.766V0H.89zm0 0"/></symbol><symbol overflow="visible" id="c"><path d="M3.547-5.953c-.65 0-1.164.242-1.547.72-.375.48-.563 1.13-.563 1.952 0 .835.188 1.49.563 1.967.383.48.898.72 1.547.72.644 0 1.156-.24 1.53-.72.376-.476.564-1.132.564-1.968 0-.822-.187-1.474-.562-1.954-.375-.477-.887-.72-1.53-.72zm0-.734c.914 0 1.648.312 2.203.937.55.617.828 1.438.828 2.47 0 1.042-.277 1.87-.828 2.483-.555.617-1.29.922-2.203.922-.93 0-1.668-.305-2.22-.922C.774-1.41.5-2.237.5-3.28c0-1.033.273-1.853.828-2.47.55-.625 1.29-.938 2.22-.938zm0 0"/></symbol><symbol overflow="visible" id="d"><path d="M.89-6.563h3.766v.75h-2.89v1.938h2.61v.734h-2.61V0H.89zm0 0"/></symbol></defs><g><path fill="#fff" d="M0 0h300v300H0z"/><path d="M103.438 207.38l-4.805-21.622M98.633 185.758l-10.567-3.324" stroke-width="1.2" stroke="#000" stroke-miterlimit="10" fill="none"/><path d="M88.066 182.434l-10.562-3.33" stroke-width="1.2" stroke="#00f" stroke-miterlimit="10" fill="none"/><path d="M98.082 180.12l-8.45-2.66" stroke-width="1.2" stroke="#000" stroke-miterlimit="10" fill="none"/><path d="M89.633 177.46l-8.453-2.66" stroke-width="1.2" stroke="#00f" stroke-miterlimit="10" fill="none"/><path d="M114.953 170.785l-16.32 14.973" stroke-width="1.2" stroke="#000" stroke-miterlimit="10" fill="none"/><path d="M77.504 179.105l-2.402-10.808" stroke-width="1.2" stroke="#00f" stroke-miterlimit="10" fill="none"/><path d="M75.102 168.297L72.7 157.484" stroke-width="1.2" stroke="#000" stroke-miterlimit="10" fill="none"/><path d="M74.504 173.605h7v11h-7zm0 0" fill="#fff"/><use xlink:href="#a" x="74.504" y="182.269" fill="#00f"/><path d="M72.7 157.484l-21.13-6.648M72.152 151.852l-16.902-5.32M89.02 142.516L72.7 157.484M51.57 150.836l-4.804-21.62M51.57 150.836l-8.16 7.488" stroke-width="1.2" stroke="#000" stroke-miterlimit="10" fill="none"/><path d="M43.41 158.324l-8.16 7.485" stroke-width="1.2" stroke="#3cc" stroke-miterlimit="10" fill="none"/><path d="M46.766 129.215l16.324-14.973M51.922 131.56L64.98 119.58M63.09 114.242l21.125 6.653M63.09 114.242l-2.403-10.808" stroke-width="1.2" stroke="#000" stroke-miterlimit="10" fill="none"/><path d="M60.688 103.434L58.285 92.62" stroke-width="1.2" stroke="#3cc" stroke-miterlimit="10" fill="none"/><path d="M84.215 120.895l4.805 21.62M79.61 124.184l3.843 17.3M89.02 142.516l21.128 6.648M110.148 149.164l4.805 21.62M105.543 152.457l3.844 17.297M110.148 149.164l8.16-7.488" stroke-width="1.2" stroke="#000" stroke-miterlimit="10" fill="none"/><path d="M118.31 141.676l8.16-7.485M126.47 134.19l10.565 3.326" stroke-width="1.2" stroke="#00f" stroke-miterlimit="10" fill="none"/><path d="M137.035 137.516l10.563 3.324" stroke-width="1.2" stroke="#000" stroke-miterlimit="10" fill="none"/><path d="M119.47 128.69h14v11h-14zm0 0" fill="#fff"/><g fill="#00f"><use xlink:href="#a" x="119.469" y="137.354"/><use xlink:href="#b" x="126.446" y="137.354"/></g><path d="M145.055 141.406l2.402 10.813" stroke-width="1.2" stroke="#000" stroke-miterlimit="10" fill="none"/><path d="M147.457 152.22l2.402 10.807" stroke-width="1.2" stroke="#f00" stroke-miterlimit="10" fill="none"/><path d="M150.14 140.277l2.403 10.81" stroke-width="1.2" stroke="#000" stroke-miterlimit="10" fill="none"/><path d="M152.543 151.086l2.402 10.812" stroke-width="1.2" stroke="#f00" stroke-miterlimit="10" fill="none"/><path d="M147.598 140.84l8.16-7.485" stroke-width="1.2" stroke="#000" stroke-miterlimit="10" fill="none"/><path d="M155.758 133.355l8.16-7.488" stroke-width="1.2" stroke="#00f" stroke-miterlimit="10" fill="none"/><path d="M148.402 156.96h8v11h-8zm0 0" fill="#fff"/><use xlink:href="#c" x="148.402" y="165.624" fill="#f00"/><path d="M163.918 125.867l10.566 3.328" stroke-width="1.2" stroke="#00f" stroke-miterlimit="10" fill="none"/><path d="M174.484 129.195l10.563 3.325" stroke-width="1.2" stroke="#000" stroke-miterlimit="10" fill="none"/><path d="M156.918 120.367h14v11h-14zm0 0" fill="#fff"/><g fill="#00f"><use xlink:href="#a" x="156.918" y="129.03"/><use xlink:href="#b" x="163.896" y="129.03"/></g><path d="M185.047 132.52l4.805 21.62M190.613 133.55l3.844 17.298M201.367 117.547l-16.32 14.973M189.852 154.14l21.128 6.65M210.98 160.79l16.32-14.974M209.09 155.453l13.055-11.98M227.3 145.816l-4.804-21.62M227.3 145.816l10.563 3.325" stroke-width="1.2" stroke="#000" stroke-miterlimit="10" fill="none"/><path d="M237.863 149.14l10.567 3.325" stroke-width="1.2" stroke="#00f" stroke-miterlimit="10" fill="none"/><path d="M222.496 124.195l-21.13-6.648M218.82 128.504l-16.902-5.32" stroke-width="1.2" stroke="#000" stroke-miterlimit="10" fill="none"/><path d="M248.43 152.465l2.402 10.812" stroke-width="1.2" stroke="#00f" stroke-miterlimit="10" fill="none"/><path d="M250.832 163.277l2.402 10.81" stroke-width="1.2" stroke="#000" stroke-miterlimit="10" fill="none"/><path d="M248.43 152.465l8.16-7.485" stroke-width="1.2" stroke="#00f" stroke-miterlimit="10" fill="none"/><path d="M256.59 144.98l8.16-7.484" stroke-width="1.2" stroke="#000" stroke-miterlimit="10" fill="none"/><path d="M245.43 146.965h7v11h-7zm0 0" fill="#fff"/><use xlink:href="#a" x="245.43" y="155.628" fill="#00f"/><path d="M55.285 87.12h6v11h-6zm0 0" fill="#fff"/><use xlink:href="#d" x="55.285" y="95.784" fill="#3cc"/><path d="M29.25 160.31h6v11h-6zm0 0" fill="#fff"/><use xlink:href="#d" x="29.25" y="168.972" fill="#3cc"/></g></svg>