<svg xmlns="http://www.w3.org/2000/svg" xmlns:xlink="http://www.w3.org/1999/xlink" width="300pt" height="300pt" viewBox="0 0 300 300"><defs><symbol overflow="visible"><path d="M.453 1.594v-7.938h4.5v7.938zm.5-.5h3.5v-6.938h-3.5zm0 0"/></symbol><symbol overflow="visible" id="a"><path d="M.89-6.563H2.08l2.906 5.485v-5.484h.86V0H4.656L1.75-5.484V0H.89zm0 0"/></symbol><symbol overflow="visible" id="b"><path d="M.89-6.563h.876v2.688H5v-2.688h.89V0H5v-3.125H1.766V0H.89zm0 0"/></symbol><symbol overflow="visible" id="c"><path d="M3.547-5.953c-.65 0-1.164.242-1.547.72-.375.48-.563 1.13-.563 1.952 0 .835.188 1.49.563 1.967.383.48.898.72 1.547.72.644 0 1.156-.24 1.53-.72.376-.476.564-1.132.564-1.968 0-.822-.187-1.474-.562-1.954-.375-.477-.887-.72-1.53-.72zm0-.734c.914 0 1.648.312 2.203.937.55.617.828 1.438.828 2.47 0 1.042-.277 1.87-.828 2.483-.555.617-1.29.922-2.203.922-.93 0-1.668-.305-2.22-.922C.774-1.41.5-2.237.5-3.28c0-1.033.273-1.853.828-2.47.55-.625 1.29-.938 2.22-.938zm0 0"/></symbol><symbol overflow="visible"><path d="M.406 1.422V-5.64h4V1.42zM.844.97h3.11v-6.157H.843zm0 0"/></symbol><symbol overflow="visible" id="d"><path d="M1.53-.672h2.767V0H.594v-.672c.29-.3.695-.71 1.22-1.234.518-.532.842-.867.967-1.016.26-.28.44-.52.533-.72.1-.194.156-.39.156-.577 0-.31-.11-.565-.33-.764-.218-.196-.5-.297-.843-.297-.25 0-.516.046-.797.14-.273.085-.563.214-.875.39v-.797c.32-.133.617-.234.89-.297.282-.062.536-.093.766-.093.603 0 1.083.152 1.44.453.362.304.546.703.546 1.203 0 .24-.047.468-.14.686-.095.22-.26.477-.485.766-.074.074-.288.293-.64.656-.344.356-.836.856-1.47 1.5zm0 0"/></symbol><symbol overflow="visible" id="e"><path d="M3.688-5.016v2.172h2.17v.672H3.69V0H3.03v-2.172H.845v-.672H3.03v-2.172zm0 0"/></symbol></defs><g><path fill="#fff" d="M0 0h300v300H0z"/><path d="M51.086 135.684l-7.63-4.57" stroke-width="1.2" stroke="#00f" stroke-miterlimit="10" fill="none"/><path d="M43.457 131.113l-7.633-4.57" stroke-width="1.2" stroke="#000" stroke-miterlimit="10" fill="none"/><path d="M51.086 135.684l-.145 8.894" stroke-width="1.2" stroke="#00f" stroke-miterlimit="10" fill="none"/><path d="M50.94 144.578l-.143 8.895M66.633 127.043l-7.774 4.32" stroke-width="1.2" stroke="#000" stroke-miterlimit="10" fill="none"/><path d="M58.86 131.363l-7.774 4.32" stroke-width="1.2" stroke="#00f" stroke-miterlimit="10" fill="none"/><path d="M48.086 130.184h7v11h-7zm0 0" fill="#fff"/><use xlink:href="#a" x="48.086" y="138.847" fill="#00f"/><path d="M35.824 126.543l.29-17.785M36.113 108.758l15.547-8.645M51.66 100.113l15.262 9.14" stroke-width="1.2" stroke="#000" stroke-miterlimit="10" fill="none"/><path d="M66.922 109.254m2.836-.977l-.508-.914m3.344-.066l-1.016-1.824m3.848.843l-1.52-2.734m4.356 1.754l-2.028-3.645m4.864 2.665L78.566 99.8m5.368 3.575l-3.04-5.47m3.098 5.45l-3.05-5.488" stroke="#000" stroke-miterlimit="10" fill="none"/><path d="M66.922 109.254l-.29 17.79" stroke-width="1.2" stroke="#000" stroke-miterlimit="10" fill="none"/><path d="M82.47 100.613l7.628 4.57" stroke-width="1.2" stroke="#00f" stroke-miterlimit="10" fill="none"/><path d="M90.098 105.184l7.63 4.57" stroke-width="1.2" stroke="#000" stroke-miterlimit="10" fill="none"/><path d="M75.47 95.113h14v11h-14zm0 0" fill="#fff"/><g fill="#00f"><use xlink:href="#a" x="75.469" y="103.776"/><use xlink:href="#b" x="82.446" y="103.776"/></g><path d="M97.727 109.754l15.546-8.645M95.637 109.72l-.145 8.893" stroke-width="1.2" stroke="#000" stroke-miterlimit="10" fill="none"/><path d="M95.492 118.613l-.144 8.895" stroke-width="1.2" stroke="#f00" stroke-miterlimit="10" fill="none"/><path d="M99.82 109.79l-.144 8.89" stroke-width="1.2" stroke="#000" stroke-miterlimit="10" fill="none"/><path d="M99.676 118.68l-.145 8.894" stroke-width="1.2" stroke="#f00" stroke-miterlimit="10" fill="none"/><path d="M113.273 101.11l7.633 4.574" stroke-width="1.2" stroke="#000" stroke-miterlimit="10" fill="none"/><path d="M120.906 105.684l7.63 4.57M128.535 110.254l7.774-4.324" stroke-width="1.2" stroke="#00f" stroke-miterlimit="10" fill="none"/><path d="M136.31 105.93l7.772-4.32" stroke-width="1.2" stroke="#000" stroke-miterlimit="10" fill="none"/><path d="M121.535 104.754h14v11h-14zm0 0" fill="#fff"/><g fill="#00f"><use xlink:href="#a" x="121.535" y="113.417"/><use xlink:href="#b" x="128.513" y="113.417"/></g><path d="M146.176 101.645l.144-8.895" stroke-width="1.2" stroke="#000" stroke-miterlimit="10" fill="none"/><path d="M146.32 92.75l.14-8.895" stroke-width="1.2" stroke="#f00" stroke-miterlimit="10" fill="none"/><path d="M141.988 101.574l.145-8.89" stroke-width="1.2" stroke="#000" stroke-miterlimit="10" fill="none"/><path d="M142.133 92.684l.144-8.895" stroke-width="1.2" stroke="#f00" stroke-miterlimit="10" fill="none"/><path d="M159.34 110.754l-13.645-11.836-3.226 5.383zm0 0"/><path d="M140.37 78.324h8v11h-8zm0 0" fill="#fff"/><use xlink:href="#c" x="140.371" y="86.987" fill="#f00"/><path d="M159.34 110.754l15.55-8.645M159.34 110.754l-.14 8.89" stroke-width="1.2" stroke="#000" stroke-miterlimit="10" fill="none"/><path d="M159.2 119.645l-.145 8.894" stroke-width="1.2" stroke="#00f" stroke-miterlimit="10" fill="none"/><path d="M174.89 102.11l15.258 9.14M190.148 111.25l7.774-4.32" stroke-width="1.2" stroke="#000" stroke-miterlimit="10" fill="none"/><path d="M197.922 106.93l7.773-4.325M205.695 102.605l7.63 4.575" stroke-width="1.2" stroke="#00f" stroke-miterlimit="10" fill="none"/><path d="M213.324 107.18l7.633 4.57" stroke-width="1.2" stroke="#000" stroke-miterlimit="10" fill="none"/><path d="M198.695 97.105h14v11h-14zm0 0" fill="#fff"/><g fill="#00f"><use xlink:href="#a" x="198.695" y="105.769"/><use xlink:href="#b" x="205.673" y="105.769"/></g><path d="M218.863 111.715l-.144 8.894" stroke-width="1.2" stroke="#000" stroke-miterlimit="10" fill="none"/><path d="M218.72 120.61l-.146 8.894" stroke-width="1.2" stroke="#f00" stroke-miterlimit="10" fill="none"/><path d="M223.047 111.785l-.145 8.89" stroke-width="1.2" stroke="#000" stroke-miterlimit="10" fill="none"/><path d="M222.902 120.676l-.14 8.894" stroke-width="1.2" stroke="#f00" stroke-miterlimit="10" fill="none"/><path d="M220.957 111.75l15.547-8.645" stroke-width="1.2" stroke="#000" stroke-miterlimit="10" fill="none"/><path d="M216.668 124.035h8v11h-8zm0 0" fill="#fff"/><use xlink:href="#c" x="216.668" y="132.698" fill="#f00"/><path d="M236.504 103.105l2.144-17.66M252.633 110.602l-16.13-7.497M252.785 106.06l-12.906-6M238.648 85.445l8.73-1.707" stroke-width="1.2" stroke="#000" stroke-miterlimit="10" fill="none"/><path d="M247.38 83.738l8.725-1.707" stroke-width="1.2" stroke="#00f" stroke-miterlimit="10" fill="none"/><path d="M241.2 89.215l6.98-1.367" stroke-width="1.2" stroke="#000" stroke-miterlimit="10" fill="none"/><path d="M248.18 87.848l6.984-1.368M256.105 82.03l8.645 15.548" stroke-width="1.2" stroke="#00f" stroke-miterlimit="10" fill="none"/><path d="M253.105 76.53h7v11h-7zm0 0" fill="#fff"/><use xlink:href="#a" x="253.105" y="85.194" fill="#00f"/><path d="M264.75 97.578l-6.06 6.512" stroke-width="1.2" stroke="#00f" stroke-miterlimit="10" fill="none"/><path d="M258.69 104.09l-6.057 6.512" stroke-width="1.2" stroke="#000" stroke-miterlimit="10" fill="none"/><path d="M257.75 92.078h14v11h-14zm0 0" fill="#fff"/><g fill="#00f"><use xlink:href="#a" x="257.75" y="100.741"/><use xlink:href="#b" x="264.728" y="100.741"/></g><path d="M159.055 128.54l7.63 4.57" stroke-width="1.2" stroke="#00f" stroke-miterlimit="10" fill="none"/><path d="M166.684 133.11l7.63 4.57" stroke-width="1.2" stroke="#000" stroke-miterlimit="10" fill="none"/><path d="M152.055 123.04h14v11h-14zm0 0" fill="#fff"/><g fill="#00f"><use xlink:href="#a" x="152.055" y="131.702"/><use xlink:href="#b" x="159.032" y="131.702"/></g><path d="M174.313 137.68l-.145 8.894" stroke-width="1.2" stroke="#000" stroke-miterlimit="10" fill="none"/><path d="M174.168 146.574l-.145 8.895" stroke-width="1.2" stroke="#f00" stroke-miterlimit="10" fill="none"/><path d="M175.328 139.512l7.777-4.325" stroke-width="1.2" stroke="#000" stroke-miterlimit="10" fill="none"/><path d="M183.105 135.188l7.774-4.32" stroke-width="1.2" stroke="#f00" stroke-miterlimit="10" fill="none"/><path d="M173.297 135.852l7.773-4.32" stroke-width="1.2" stroke="#000" stroke-miterlimit="10" fill="none"/><path d="M181.07 131.53l7.774-4.323M174.023 155.47l7.633 4.57" stroke-width="1.2" stroke="#f00" stroke-miterlimit="10" fill="none"/><path d="M181.656 160.04l7.63 4.57" stroke-width="1.2" stroke="#000" stroke-miterlimit="10" fill="none"/><path d="M170.023 149.97h8v11h-8zm0 0" fill="#fff"/><use xlink:href="#c" x="170.023" y="158.632" fill="#f00"/><path d="M189.285 164.61l-.29 17.785M188.996 182.395l-15.547 8.644M189.477 186.918l-12.438 6.918M204.258 191.54l-15.262-9.145M173.45 191.04l-.29 17.788M173.16 208.828l15.262 9.14M176.84 206.148l12.207 7.317M188.422 217.97l15.547-8.646M203.97 209.324l.288-17.785M199.813 207.48l.23-14.23" stroke-width="1.2" stroke="#000" stroke-miterlimit="10" fill="none"/><path d="M185.86 123.54h8v11h-8zm0 0" fill="#fff"/><use xlink:href="#c" x="185.859" y="132.202" fill="#f00"/><path d="M93.44 122.04h8v11h-8zm0 0" fill="#fff"/><use xlink:href="#c" x="93.441" y="130.702" fill="#f00"/><path d="M66.633 127.043l13.644 11.836 3.227-5.388zm0 0"/><path d="M74.89 130.684h15v11h-15zm0 0" fill="#fff"/><g fill="#f00"><use xlink:href="#c" x="74.891" y="139.347"/><use xlink:href="#b" x="82.232" y="139.347"/></g><path d="M50.797 153.473l-7.774 4.32" stroke-width="1.2" stroke="#000" stroke-miterlimit="10" fill="none"/><path d="M43.023 157.793l-7.773 4.324" stroke-width="1.2" stroke="#00f" stroke-miterlimit="10" fill="none"/><path d="M49.723 155.266l7.63 4.574" stroke-width="1.2" stroke="#000" stroke-miterlimit="10" fill="none"/><path d="M57.352 159.84l7.628 4.57" stroke-width="1.2" stroke="#00f" stroke-miterlimit="10" fill="none"/><path d="M51.875 151.676l7.63 4.57" stroke-width="1.2" stroke="#000" stroke-miterlimit="10" fill="none"/><path d="M59.504 156.246l7.63 4.574" stroke-width="1.2" stroke="#00f" stroke-miterlimit="10" fill="none"/><path d="M16.25 154.117h19v16h-19zm0 0" fill="#fff"/><use xlink:href="#b" x="16.25" y="162.78" fill="#00f"/><use xlink:href="#d" x="23.265" y="167.663" fill="#00f"/><use xlink:href="#a" x="28.215" y="162.78" fill="#00f"/><path d="M53.06 153.113h26v19h-26zm0 0" fill="#fff"/><g fill="#00f"><use xlink:href="#a" x="53.059" y="165.215"/><use xlink:href="#b" x="60.036" y="165.215"/></g><use xlink:href="#d" x="67.051" y="170.098" fill="#00f"/><use xlink:href="#e" x="72.001" y="160.332" fill="#00f"/></g></svg>