<svg xmlns="http://www.w3.org/2000/svg" xmlns:xlink="http://www.w3.org/1999/xlink" width="300pt" height="300pt" viewBox="0 0 300 300"><defs><symbol overflow="visible"><path d="M.453 1.594v-7.938h4.5v7.938zm.5-.5h3.5v-6.938h-3.5zm0 0"/></symbol><symbol overflow="visible" id="a"><path d="M.89-6.563H2.08l2.906 5.485v-5.484h.86V0H4.656L1.75-5.484V0H.89zm0 0"/></symbol><symbol overflow="visible" id="b"><path d="M3.547-5.953c-.65 0-1.164.242-1.547.72-.375.48-.563 1.13-.563 1.952 0 .835.188 1.49.563 1.967.383.48.898.72 1.547.72.644 0 1.156-.24 1.53-.72.376-.476.564-1.132.564-1.968 0-.822-.187-1.474-.562-1.954-.375-.477-.887-.72-1.53-.72zm0-.734c.914 0 1.648.312 2.203.937.55.617.828 1.438.828 2.47 0 1.042-.277 1.87-.828 2.483-.555.617-1.29.922-2.203.922-.93 0-1.668-.305-2.22-.922C.774-1.41.5-2.237.5-3.28c0-1.033.273-1.853.828-2.47.55-.625 1.29-.938 2.22-.938zm0 0"/></symbol><symbol overflow="visible" id="c"><path d="M.89-6.563h.876v2.688H5v-2.688h.89V0H5v-3.125H1.766V0H.89zm0 0"/></symbol><symbol overflow="visible" id="d"><path d="M4.813-6.344v.86c-.336-.157-.653-.27-.954-.344-.294-.082-.58-.125-.86-.125-.492 0-.867.094-1.125.28-.262.19-.39.454-.39.798 0 .293.085.512.265.656.176.15.504.267.984.36l.547.11c.658.125 1.142.352 1.454.672.32.312.485.734.485 1.265 0 .637-.216 1.122-.642 1.454-.43.325-1.055.485-1.875.485-.312 0-.648-.04-1-.11C1.36-.046 1-.147.625-.296v-.906c.352.2.703.35 1.047.453.35.105.695.156 1.03.156.5 0 .884-.097 1.157-.297.28-.196.42-.485.42-.86 0-.32-.1-.57-.296-.75-.2-.176-.523-.313-.968-.406l-.547-.11C1.81-3.148 1.33-3.36 1.03-3.64.74-3.923.595-4.313.595-4.813c0-.57.203-1.024.61-1.36.405-.344.968-.516 1.687-.516.313 0 .626.032.938.094.32.055.65.137.985.25zm0 0"/></symbol></defs><g><path fill="#fff" d="M0 0h300v300H0z"/><path d="M140.184 156.918l19.324-4.797" stroke-width="1.2" stroke="#000" stroke-miterlimit="10" fill="none"/><path d="M134.676 176.055l2.754-9.567" stroke-width="1.2" stroke="#00f" stroke-miterlimit="10" fill="none"/><path d="M137.43 166.488l2.754-9.57M159.508 152.12l6.91 7.17" stroke-width="1.2" stroke="#000" stroke-miterlimit="10" fill="none"/><path d="M166.418 159.29l6.91 7.167M173.328 166.457l-2.754 9.566" stroke-width="1.2" stroke="#00f" stroke-miterlimit="10" fill="none"/><path d="M170.574 176.023l-2.754 9.57" stroke-width="1.2" stroke="#000" stroke-miterlimit="10" fill="none"/><path d="M173.328 166.457l9.66-2.398" stroke-width="1.2" stroke="#00f" stroke-miterlimit="10" fill="none"/><path d="M182.988 164.06l9.664-2.4" stroke-width="1.2" stroke="#000" stroke-miterlimit="10" fill="none"/><path d="M170.328 160.957h7v11h-7zm0 0" fill="#fff"/><use xlink:href="#a" x="170.328" y="169.62" fill="#00f"/><path d="M167.82 185.594l-19.324 4.797M148.496 190.39l-6.91-7.167" stroke-width="1.2" stroke="#000" stroke-miterlimit="10" fill="none"/><path d="M141.586 183.223l-6.91-7.168M134.676 176.055l-9.66 2.398" stroke-width="1.2" stroke="#00f" stroke-miterlimit="10" fill="none"/><path d="M125.016 178.453l-9.664 2.4" stroke-width="1.2" stroke="#000" stroke-miterlimit="10" fill="none"/><path d="M131.676 170.555h7v11h-7zm0 0" fill="#fff"/><use xlink:href="#a" x="131.676" y="179.218" fill="#00f"/><path d="M115.352 180.852l-13.817-14.336M101.535 166.516l-9.664 2.402" stroke-width="1.2" stroke="#000" stroke-miterlimit="10" fill="none"/><path d="M91.87 168.918l-9.66 2.398M82.21 171.316l-6.91-7.168" stroke-width="1.2" stroke="#f00" stroke-miterlimit="10" fill="none"/><path d="M75.3 164.148l-6.91-7.168" stroke-width="1.2" stroke="#000" stroke-miterlimit="10" fill="none"/><path d="M78.21 165.816h8v11h-8zm0 0" fill="#fff"/><use xlink:href="#b" x="78.211" y="174.479" fill="#f00"/><path d="M68.39 156.98l-19.324 4.797M49.066 161.777l-6.906-7.168" stroke-width="1.2" stroke="#000" stroke-miterlimit="10" fill="none"/><path d="M42.16 154.61l-6.91-7.17" stroke-width="1.2" stroke="#f00" stroke-miterlimit="10" fill="none"/><path d="M20.25 141.94h15v11h-15zm0 0" fill="#fff"/><g fill="#f00"><use xlink:href="#c" x="20.25" y="150.604"/><use xlink:href="#b" x="27.265" y="150.604"/></g><path d="M192.652 161.66l6.352 7.664" stroke-width="1.2" stroke="#000" stroke-miterlimit="10" fill="none"/><path d="M199.004 169.324l6.355 7.664" stroke-width="1.2" stroke="#00f" stroke-miterlimit="10" fill="none"/><path d="M197.527 160.2l5.086 6.132" stroke-width="1.2" stroke="#000" stroke-miterlimit="10" fill="none"/><path d="M202.613 166.332l5.082 6.133" stroke-width="1.2" stroke="#00f" stroke-miterlimit="10" fill="none"/><path d="M196.71 142.164l-4.058 19.496" stroke-width="1.2" stroke="#000" stroke-miterlimit="10" fill="none"/><path d="M205.36 176.988l9.952-.19" stroke-width="1.2" stroke="#00f" stroke-miterlimit="10" fill="none"/><path d="M215.313 176.797l9.953-.188" stroke-width="1.2" stroke="#000" stroke-miterlimit="10" fill="none"/><path d="M202.36 171.488h7v11h-7zm0 0" fill="#fff"/><use xlink:href="#a" x="202.359" y="180.151" fill="#00f"/><path d="M225.266 176.61l7.625 18.394M230.355 176.652l6.102 14.715M237.383 160.81l-12.117 15.8M232.89 195.004l19.743 2.59M252.633 197.594l12.117-15.8M250.13 193.164l9.69-12.64M264.75 181.793l-7.625-18.39M257.125 163.402l-19.742-2.593M254.54 167.79l-15.794-2.08M237.383 160.81l-2.4-9.665" stroke-width="1.2" stroke="#000" stroke-miterlimit="10" fill="none"/><path d="M234.984 151.145l-2.398-9.66M232.586 141.484l-9.05-4.148" stroke-width="1.2" stroke="#cc0" stroke-miterlimit="10" fill="none"/><path d="M223.535 137.336l-9.05-4.15" stroke-width="1.2" stroke="#000" stroke-miterlimit="10" fill="none"/><path d="M229.586 135.984h6v11h-6zm0 0" fill="#fff"/><use xlink:href="#d" x="229.586" y="144.647" fill="#cc0"/><path d="M214.484 133.188l1.11-19.88M209.918 130.938l.887-15.903M196.71 142.164l17.774-8.976M215.594 113.31l-16.66-10.904M198.934 102.406l-17.774 8.977M199.27 107.484l-14.22 7.184M181.16 111.383l-1.11 19.883M180.05 131.266l16.66 10.898M184.28 128.434l13.33 8.722" stroke-width="1.2" stroke="#000" stroke-miterlimit="10" fill="none"/></g></svg>