<svg xmlns="http://www.w3.org/2000/svg" xmlns:xlink="http://www.w3.org/1999/xlink" width="300pt" height="300pt" viewBox="0 0 300 300"><defs><symbol overflow="visible"><path d="M.453 1.594v-7.938h4.5v7.938zm.5-.5h3.5v-6.938h-3.5zm0 0"/></symbol><symbol overflow="visible" id="a"><path d="M.89-6.563H2.08l2.906 5.485v-5.484h.86V0H4.656L1.75-5.484V0H.89zm0 0"/></symbol><symbol overflow="visible" id="b"><path d="M3.547-5.953c-.65 0-1.164.242-1.547.72-.375.48-.563 1.13-.563 1.952 0 .835.188 1.49.563 1.967.383.48.898.72 1.547.72.644 0 1.156-.24 1.53-.72.376-.476.564-1.132.564-1.968 0-.822-.187-1.474-.562-1.954-.375-.477-.887-.72-1.53-.72zm0-.734c.914 0 1.648.312 2.203.937.55.617.828 1.438.828 2.47 0 1.042-.277 1.87-.828 2.483-.555.617-1.29.922-2.203.922-.93 0-1.668-.305-2.22-.922C.774-1.41.5-2.237.5-3.28c0-1.033.273-1.853.828-2.47.55-.625 1.29-.938 2.22-.938zm0 0"/></symbol><symbol overflow="visible" id="c"><path d="M.89-6.563h.876v2.688H5v-2.688h.89V0H5v-3.125H1.766V0H.89zm0 0"/></symbol><symbol overflow="visible"><path d="M.406 1.422V-5.64h4V1.42zM.844.97h3.11v-6.157H.843zm0 0"/></symbol><symbol overflow="visible" id="d"><path d="M1.53-.672h2.767V0H.594v-.672c.29-.3.695-.71 1.22-1.234.518-.532.842-.867.967-1.016.26-.28.44-.52.533-.72.1-.194.156-.39.156-.577 0-.31-.11-.565-.33-.764-.218-.196-.5-.297-.843-.297-.25 0-.516.046-.797.14-.273.085-.563.214-.875.39v-.797c.32-.133.617-.234.89-.297.282-.062.536-.093.766-.093.603 0 1.083.152 1.44.453.362.304.546.703.546 1.203 0 .24-.047.468-.14.686-.095.22-.26.477-.485.766-.074.074-.288.293-.64.656-.344.356-.836.856-1.47 1.5zm0 0"/></symbol><symbol overflow="visible" id="e"><path d="M3.688-5.016v2.172h2.17v.672H3.69V0H3.03v-2.172H.845v-.672H3.03v-2.172zm0 0"/></symbol></defs><g><path fill="#fff" d="M0 0h300v300H0z"/><path d="M112.012 160.254l-.973-7.992" stroke-width="1.2" stroke="#00f" stroke-miterlimit="10" fill="none"/><path d="M111.04 152.262l-.97-7.99" stroke-width="1.2" stroke="#000" stroke-miterlimit="10" fill="none"/><path d="M126.078 168.078L113.39 157.77l-2.76 4.968zm0 0"/><path d="M100.223 171.22l5.894-5.486" stroke-width="1.2" stroke="#000" stroke-miterlimit="10" fill="none"/><path d="M106.117 165.734l5.895-5.48" stroke-width="1.2" stroke="#00f" stroke-miterlimit="10" fill="none"/><path d="M109.012 154.754h7v11h-7zm0 0" fill="#fff"/><use xlink:href="#a" x="109.012" y="163.417" fill="#00f"/><path d="M110.07 144.273l6.434-4.835" stroke-width="1.2" stroke="#000" stroke-miterlimit="10" fill="none"/><path d="M116.504 139.438l6.433-4.836" stroke-width="1.2" stroke="#f00" stroke-miterlimit="10" fill="none"/><path d="M110.813 142.53l-7.407-3.155" stroke-width="1.2" stroke="#000" stroke-miterlimit="10" fill="none"/><path d="M103.406 139.375L96 136.223" stroke-width="1.2" stroke="#f00" stroke-miterlimit="10" fill="none"/><path d="M109.328 146.016l-7.406-3.157" stroke-width="1.2" stroke="#000" stroke-miterlimit="10" fill="none"/><path d="M101.922 142.86l-7.406-3.153M122.938 134.602l-.97-7.99" stroke-width="1.2" stroke="#f00" stroke-miterlimit="10" fill="none"/><path d="M121.97 126.613l-.974-7.992" stroke-width="1.2" stroke="#000" stroke-miterlimit="10" fill="none"/><path d="M118.938 129.102h8v11h-8zm0 0" fill="#fff"/><use xlink:href="#b" x="118.938" y="137.765" fill="#f00"/><path d="M120.996 118.62l12.87-9.67M133.867 108.95l-1.94-15.98M131.926 92.97l12.867-9.673M144.793 83.297l14.812 6.312M147.762 80.445l11.847 5.047M142.852 67.316l1.94 15.98M159.605 89.61l12.868-9.672M172.473 79.938l-1.942-15.98M168.52 78.797l-1.555-12.785M170.53 63.957l-14.807-6.31M155.723 57.648l-12.87 9.668M156.71 61.64l-10.296 7.74" stroke-width="1.2" stroke="#000" stroke-miterlimit="10" fill="none"/><path d="M87.258 132.465h8v11h-8zm0 0" fill="#fff"/><use xlink:href="#b" x="87.258" y="141.128" fill="#f00"/><path d="M126.078 168.078l-3.09 15.797M142.06 166.137l-15.982 1.94" stroke-width="1.2" stroke="#000" stroke-miterlimit="10" fill="none"/><path d="M122.988 183.875m2.328 1.89l.508-.91m1.82 2.8l1.012-1.82m1.317 3.712l1.52-2.73m.808 4.624l2.028-3.647m.3 5.54l2.536-4.56m-1.488 5.407l2.762-4.965" stroke="#000" stroke-miterlimit="10" fill="none"/><path d="M122.988 183.875l-15.98 1.94M137.055 191.7l3.6 15.687M141.11 192.418l2.878 12.555M137.055 191.7l11.79-10.966M140.656 207.387l15.39 4.726M156.047 212.113l11.785-10.96M154.645 208.246l9.43-8.773M167.832 201.152l15.39 4.727M167.832 201.152l-3.598-15.69M183.223 205.88l3.6 15.686M187.273 206.602l2.88 12.55M183.223 205.88l11.785-10.966M186.824 221.566l15.387 4.727M202.21 226.293l11.79-10.96M200.81 222.426l9.428-8.774M214 215.332l-3.602-15.69M210.398 199.64l11.786-10.96M195.008 194.914l15.39 4.727M195.438 199.008l12.308 3.78M224.03 188.254l-1.8-7.844" stroke-width="1.2" stroke="#000" stroke-miterlimit="10" fill="none"/><path d="M222.23 180.41l-1.8-7.847" stroke-width="1.2" stroke="#f00" stroke-miterlimit="10" fill="none"/><path d="M220.34 189.102l-1.8-7.844" stroke-width="1.2" stroke="#000" stroke-miterlimit="10" fill="none"/><path d="M218.54 181.258l-1.802-7.848" stroke-width="1.2" stroke="#f00" stroke-miterlimit="10" fill="none"/><path d="M222.184 188.68l7.695 2.363" stroke-width="1.2" stroke="#000" stroke-miterlimit="10" fill="none"/><path d="M229.88 191.043l7.694 2.363" stroke-width="1.2" stroke="#00f" stroke-miterlimit="10" fill="none"/><path d="M214.586 167.488h8v11h-8zm0 0" fill="#fff"/><use xlink:href="#b" x="214.586" y="176.151" fill="#f00"/><path d="M237.574 193.406l5.895-5.484" stroke-width="1.2" stroke="#00f" stroke-miterlimit="10" fill="none"/><path d="M243.47 187.922l5.893-5.48" stroke-width="1.2" stroke="#000" stroke-miterlimit="10" fill="none"/><path d="M237.574 193.406l1.8 7.844" stroke-width="1.2" stroke="#00f" stroke-miterlimit="10" fill="none"/><path d="M239.375 201.25l1.8 7.844" stroke-width="1.2" stroke="#000" stroke-miterlimit="10" fill="none"/><path d="M234.574 187.906h7v11h-7zm0 0" fill="#fff"/><use xlink:href="#a" x="234.574" y="196.569" fill="#00f"/><path d="M249.363 182.44l15.387 4.728M241.176 209.094l15.387 4.726M148.844 180.734l15.39 4.727M149.27 184.828l12.312 3.78M148.844 180.734l-6.785-14.597" stroke-width="1.2" stroke="#000" stroke-miterlimit="10" fill="none"/><path d="M107.008 185.816l-10.31 12.688 4.97 2.762zm0 0"/><path d="M107.008 185.816l-6.785-14.597M99.184 199.887l-16.098.258M83.086 200.145l-7.82 14.07M75.266 214.215l-16.098.258M59.168 214.473l-7.82 14.07M51.348 228.543l-8.05.13" stroke-width="1.2" stroke="#000" stroke-miterlimit="10" fill="none"/><path d="M43.297 228.672l-8.047.133" stroke-width="1.2" stroke="#00f" stroke-miterlimit="10" fill="none"/><path d="M49.723 229.516l4.136 6.906" stroke-width="1.2" stroke="#000" stroke-miterlimit="10" fill="none"/><path d="M53.86 236.422l4.136 6.906" stroke-width="1.2" stroke="#00f" stroke-miterlimit="10" fill="none"/><path d="M52.97 227.57l4.135 6.907" stroke-width="1.2" stroke="#000" stroke-miterlimit="10" fill="none"/><path d="M57.105 234.477l4.137 6.902" stroke-width="1.2" stroke="#00f" stroke-miterlimit="10" fill="none"/><path d="M16.25 220.805h19v16h-19zm0 0" fill="#fff"/><use xlink:href="#c" x="16.25" y="229.468" fill="#00f"/><use xlink:href="#d" x="23.265" y="234.351" fill="#00f"/><use xlink:href="#a" x="28.215" y="229.468" fill="#00f"/><path d="M46.617 232.852h26v19h-26zm0 0" fill="#fff"/><g fill="#00f"><use xlink:href="#a" x="46.617" y="244.953"/><use xlink:href="#c" x="53.595" y="244.953"/></g><use xlink:href="#d" x="60.609" y="249.836" fill="#00f"/><use xlink:href="#e" x="65.56" y="240.07" fill="#00f"/><path d="M100.586 169.36l-7.898-1.548" stroke-width="1.2" stroke="#000" stroke-miterlimit="10" fill="none"/><path d="M92.688 167.813l-7.9-1.547" stroke-width="1.2" stroke="#f00" stroke-miterlimit="10" fill="none"/><path d="M99.86 173.074l-7.9-1.543" stroke-width="1.2" stroke="#000" stroke-miterlimit="10" fill="none"/><path d="M91.96 171.53l-7.9-1.546" stroke-width="1.2" stroke="#f00" stroke-miterlimit="10" fill="none"/><path d="M76.426 162.625h8v11h-8zm0 0" fill="#fff"/><use xlink:href="#b" x="76.426" y="171.288" fill="#f00"/></g></svg>