<svg xmlns="http://www.w3.org/2000/svg" xmlns:xlink="http://www.w3.org/1999/xlink" width="300pt" height="300pt" viewBox="0 0 300 300"><defs><symbol overflow="visible"><path d="M.453 1.594v-7.938h4.5v7.938zm.5-.5h3.5v-6.938h-3.5zm0 0"/></symbol><symbol overflow="visible" id="a"><path d="M.89-6.563H2.08l2.906 5.485v-5.484h.86V0H4.656L1.75-5.484V0H.89zm0 0"/></symbol><symbol overflow="visible" id="b"><path d="M3.547-5.953c-.65 0-1.164.242-1.547.72-.375.48-.563 1.13-.563 1.952 0 .835.188 1.49.563 1.967.383.48.898.72 1.547.72.644 0 1.156-.24 1.53-.72.376-.476.564-1.132.564-1.968 0-.822-.187-1.474-.562-1.954-.375-.477-.887-.72-1.53-.72zm0-.734c.914 0 1.648.312 2.203.937.55.617.828 1.438.828 2.47 0 1.042-.277 1.87-.828 2.483-.555.617-1.29.922-2.203.922-.93 0-1.668-.305-2.22-.922C.774-1.41.5-2.237.5-3.28c0-1.033.273-1.853.828-2.47.55-.625 1.29-.938 2.22-.938zm0 0"/></symbol><symbol overflow="visible" id="c"><path d="M.89-6.563h.876v2.688H5v-2.688h.89V0H5v-3.125H1.766V0H.89zm0 0"/></symbol><symbol overflow="visible" id="f"><path d="M.89-6.563h3.766v.75h-2.89v1.938h2.61v.734h-2.61V0H.89zm0 0"/></symbol><symbol overflow="visible"><path d="M.406 1.422V-5.64h4V1.42zM.844.97h3.11v-6.157H.843zm0 0"/></symbol><symbol overflow="visible" id="d"><path d="M3.688-5.016v2.172h2.17v.672H3.69V0H3.03v-2.172H.845v-.672H3.03v-2.172zm0 0"/></symbol><symbol overflow="visible" id="e"><path d="M1.53-.672h2.767V0H.594v-.672c.29-.3.695-.71 1.22-1.234.518-.532.842-.867.967-1.016.26-.28.44-.52.533-.72.1-.194.156-.39.156-.577 0-.31-.11-.565-.33-.764-.218-.196-.5-.297-.843-.297-.25 0-.516.046-.797.14-.273.085-.563.214-.875.39v-.797c.32-.133.617-.234.89-.297.282-.062.536-.093.766-.093.603 0 1.083.152 1.44.453.362.304.546.703.546 1.203 0 .24-.047.468-.14.686-.095.22-.26.477-.485.766-.074.074-.288.293-.64.656-.344.356-.836.856-1.47 1.5zm0 0"/></symbol></defs><g><path fill="#fff" d="M0 0h300v300H0z"/><path d="M78.195 128.012L64.898 110.43M78.195 128.012l-3.207 10.547" stroke-width="1.2" stroke="#00f" stroke-miterlimit="10" fill="none"/><path d="M74.988 138.56l-3.203 10.545M99.027 120.8l-10.418 3.606" stroke-width="1.2" stroke="#000" stroke-miterlimit="10" fill="none"/><path d="M88.61 124.406l-10.415 3.606" stroke-width="1.2" stroke="#00f" stroke-miterlimit="10" fill="none"/><path d="M75.195 122.512h7v11h-7zm0 0" fill="#fff"/><use xlink:href="#a" x="75.195" y="131.175" fill="#00f"/><path d="M64.898 110.43l6.305-9.04" stroke-width="1.2" stroke="#00f" stroke-miterlimit="10" fill="none"/><path d="M71.203 101.39l6.31-9.038" stroke-width="1.2" stroke="#000" stroke-miterlimit="10" fill="none"/><path d="M70.414 111.59l5.047-7.23" stroke-width="1.2" stroke="#00f" stroke-miterlimit="10" fill="none"/><path d="M75.46 104.36l5.044-7.235" stroke-width="1.2" stroke="#000" stroke-miterlimit="10" fill="none"/><path d="M61.898 104.93h7v11h-7zm0 0" fill="#fff"/><use xlink:href="#a" x="61.898" y="113.593" fill="#00f"/><path d="M77.512 92.352l-7.21-20.836M77.512 92.352l21.093 6.41M98.605 98.762l.422 22.04M93.46 101.063l.337 17.632M99.027 120.8l18.078 12.618M114.523 133.195l-.945 10.98" stroke-width="1.2" stroke="#000" stroke-miterlimit="10" fill="none"/><path d="M113.578 144.176l-.94 10.984" stroke-width="1.2" stroke="#f00" stroke-miterlimit="10" fill="none"/><path d="M119.69 133.637l-.944 10.984" stroke-width="1.2" stroke="#000" stroke-miterlimit="10" fill="none"/><path d="M118.746 144.62l-.94 10.982" stroke-width="1.2" stroke="#f00" stroke-miterlimit="10" fill="none"/><path d="M117.105 133.418l9.985-4.676" stroke-width="1.2" stroke="#000" stroke-miterlimit="10" fill="none"/><path d="M127.09 128.742l9.98-4.676" stroke-width="1.2" stroke="#00f" stroke-miterlimit="10" fill="none"/><path d="M111.223 149.883h8v11h-8zm0 0" fill="#fff"/><use xlink:href="#b" x="111.223" y="158.546" fill="#f00"/><path d="M137.07 124.066l9.04 6.31" stroke-width="1.2" stroke="#00f" stroke-miterlimit="10" fill="none"/><path d="M146.11 130.375l9.038 6.305" stroke-width="1.2" stroke="#000" stroke-miterlimit="10" fill="none"/><path d="M130.07 118.566h14v11h-14zm0 0" fill="#fff"/><g fill="#00f"><use xlink:href="#a" x="130.07" y="127.229"/><use xlink:href="#c" x="137.048" y="127.229"/></g><path d="M155.148 136.68l-1.882 21.965M160.13 139.32l-1.51 17.575M155.148 136.68l19.965-9.348M153.266 158.645l18.078 12.617M171.344 171.262l19.965-9.352M171.14 165.63l15.973-7.482M191.31 161.91l18.077 12.613M193.195 139.945l-1.886 21.965M206.805 174.305l-.942 10.98" stroke-width="1.2" stroke="#000" stroke-miterlimit="10" fill="none"/><path d="M205.863 185.285l-.945 10.985" stroke-width="1.2" stroke="#00f" stroke-miterlimit="10" fill="none"/><path d="M211.973 174.746l-.942 10.984" stroke-width="1.2" stroke="#000" stroke-miterlimit="10" fill="none"/><path d="M211.03 185.73l-.944 10.98" stroke-width="1.2" stroke="#00f" stroke-miterlimit="10" fill="none"/><path d="M209.387 174.523l9.984-4.67" stroke-width="1.2" stroke="#000" stroke-miterlimit="10" fill="none"/><path d="M219.37 169.852l9.982-4.676" stroke-width="1.2" stroke="#00f" stroke-miterlimit="10" fill="none"/><path d="M194.504 186.988h26v19h-26zm0 0" fill="#fff"/><use xlink:href="#d" x="194.504" y="194.207" fill="#00f"/><use xlink:href="#c" x="201.023" y="199.09" fill="#00f"/><use xlink:href="#e" x="208.038" y="203.973" fill="#00f"/><use xlink:href="#a" x="212.988" y="199.09" fill="#00f"/><path d="M229.352 165.176l2.085-10.824" stroke-width="1.2" stroke="#00f" stroke-miterlimit="10" fill="none"/><path d="M231.438 154.352l2.085-10.825M248.652 175.832l-9.648-5.328" stroke-width="1.2" stroke="#000" stroke-miterlimit="10" fill="none"/><path d="M239.004 170.504l-9.652-5.328" stroke-width="1.2" stroke="#00f" stroke-miterlimit="10" fill="none"/><path d="M226.352 159.676h7v11h-7zm0 0" fill="#fff"/><use xlink:href="#a" x="226.352" y="168.339" fill="#00f"/><path d="M233.523 143.527l21.875-2.722M255.398 140.805l9.352 19.965M264.75 160.77l-16.098 15.062M175.113 127.332l.946-10.984" stroke-width="1.2" stroke="#000" stroke-miterlimit="10" fill="none"/><path d="M176.06 116.348l.94-10.98" stroke-width="1.2" stroke="#3cc" stroke-miterlimit="10" fill="none"/><path d="M175.113 127.332l18.082 12.613M173.953 132.848l14.465 10.09" stroke-width="1.2" stroke="#000" stroke-miterlimit="10" fill="none"/><path d="M174 99.867h6v11h-6zm0 0" fill="#fff"/><use xlink:href="#f" x="174" y="108.53" fill="#3cc"/><path d="M71.785 149.105l15.06 16.098M69.504 154.262l12.047 12.875M50.313 154.102l21.472-4.997M86.844 165.203l-6.41 21.094M80.434 186.297l-21.47 4.996M79.465 191.848l-17.18 3.996M95.496 202.395l-15.062-16.098M58.965 191.293l-6.414 21.09M58.965 191.293l-15.063-16.098M52.55 212.383l15.063 16.1M57.848 210.45l12.047 12.878M67.613 228.484l21.473-4.996M89.086 223.488l6.41-21.093M84.766 219.87l5.13-16.874M43.902 175.195l6.41-21.093M49.504 174.594l5.13-16.875M50.313 154.102l-7.532-8.05" stroke-width="1.2" stroke="#000" stroke-miterlimit="10" fill="none"/><path d="M42.78 146.05l-7.53-8.046" stroke-width="1.2" stroke="#3cc" stroke-miterlimit="10" fill="none"/><path d="M29.25 132.504h6v11h-6zm0 0" fill="#fff"/><use xlink:href="#f" x="29.25" y="141.167" fill="#3cc"/></g></svg>