<svg xmlns="http://www.w3.org/2000/svg" xmlns:xlink="http://www.w3.org/1999/xlink" width="300pt" height="300pt" viewBox="0 0 300 300"><defs><symbol overflow="visible"><path d="M.453 1.594v-7.938h4.5v7.938zm.5-.5h3.5v-6.938h-3.5zm0 0"/></symbol><symbol overflow="visible" id="a"><path d="M4.813-6.344v.86c-.336-.157-.653-.27-.954-.344-.294-.082-.58-.125-.86-.125-.492 0-.867.094-1.125.28-.262.19-.39.454-.39.798 0 .293.085.512.265.656.176.15.504.267.984.36l.547.11c.658.125 1.142.352 1.454.672.32.312.485.734.485 1.265 0 .637-.216 1.122-.642 1.454-.43.325-1.055.485-1.875.485-.312 0-.648-.04-1-.11C1.36-.046 1-.147.625-.296v-.906c.352.2.703.35 1.047.453.35.105.695.156 1.03.156.5 0 .884-.097 1.157-.297.28-.196.42-.485.42-.86 0-.32-.1-.57-.296-.75-.2-.176-.523-.313-.968-.406l-.547-.11C1.81-3.148 1.33-3.36 1.03-3.64.74-3.923.595-4.313.595-4.813c0-.57.203-1.024.61-1.36.405-.344.968-.516 1.687-.516.313 0 .626.032.938.094.32.055.65.137.985.25zm0 0"/></symbol><symbol overflow="visible" id="b"><path d="M3.547-5.953c-.65 0-1.164.242-1.547.72-.375.48-.563 1.13-.563 1.952 0 .835.188 1.49.563 1.967.383.48.898.72 1.547.72.644 0 1.156-.24 1.53-.72.376-.476.564-1.132.564-1.968 0-.822-.187-1.474-.562-1.954-.375-.477-.887-.72-1.53-.72zm0-.734c.914 0 1.648.312 2.203.937.55.617.828 1.438.828 2.47 0 1.042-.277 1.87-.828 2.483-.555.617-1.29.922-2.203.922-.93 0-1.668-.305-2.22-.922C.774-1.41.5-2.237.5-3.28c0-1.033.273-1.853.828-2.47.55-.625 1.29-.938 2.22-.938zm0 0"/></symbol><symbol overflow="visible" id="c"><path d="M.89-6.563H2.08l2.906 5.485v-5.484h.86V0H4.656L1.75-5.484V0H.89zm0 0"/></symbol><symbol overflow="visible" id="d"><path d="M.89-6.563h.876v2.688H5v-2.688h.89V0H5v-3.125H1.766V0H.89zm0 0"/></symbol><symbol overflow="visible"><path d="M.406 1.422V-5.64h4V1.42zM.844.97h3.11v-6.157H.843zm0 0"/></symbol><symbol overflow="visible" id="e"><path d="M1.53-.672h2.767V0H.594v-.672c.29-.3.695-.71 1.22-1.234.518-.532.842-.867.967-1.016.26-.28.44-.52.533-.72.1-.194.156-.39.156-.577 0-.31-.11-.565-.33-.764-.218-.196-.5-.297-.843-.297-.25 0-.516.046-.797.14-.273.085-.563.214-.875.39v-.797c.32-.133.617-.234.89-.297.282-.062.536-.093.766-.093.603 0 1.083.152 1.44.453.362.304.546.703.546 1.203 0 .24-.047.468-.14.686-.095.22-.26.477-.485.766-.074.074-.288.293-.64.656-.344.356-.836.856-1.47 1.5zm0 0"/></symbol><symbol overflow="visible" id="f"><path d="M3.688-5.016v2.172h2.17v.672H3.69V0H3.03v-2.172H.845v-.672H3.03v-2.172zm0 0"/></symbol></defs><g><path fill="#fff" d="M0 0h300v300H0z"/><path d="M200.68 195.906l4.465 8.03" stroke-width="1.2" stroke="#cc0" stroke-miterlimit="10" fill="none"/><path d="M205.145 203.938l4.46 8.035" stroke-width="1.2" stroke="#000" stroke-miterlimit="10" fill="none"/><path d="M199.63 194.016l-8.036 4.46" stroke-width="1.2" stroke="#cc0" stroke-miterlimit="10" fill="none"/><path d="M191.594 198.477l-8.035 4.464" stroke-width="1.2" stroke="#f00" stroke-miterlimit="10" fill="none"/><path d="M201.73 197.793l-8.035 4.465" stroke-width="1.2" stroke="#cc0" stroke-miterlimit="10" fill="none"/><path d="M193.695 202.258l-8.035 4.465" stroke-width="1.2" stroke="#f00" stroke-miterlimit="10" fill="none"/><path d="M201.73 197.793l8.036-4.46" stroke-width="1.2" stroke="#cc0" stroke-miterlimit="10" fill="none"/><path d="M209.766 193.332l8.03-4.465" stroke-width="1.2" stroke="#f00" stroke-miterlimit="10" fill="none"/><path d="M199.63 194.016l8.034-4.465" stroke-width="1.2" stroke="#cc0" stroke-miterlimit="10" fill="none"/><path d="M207.664 189.55l8.035-4.464" stroke-width="1.2" stroke="#f00" stroke-miterlimit="10" fill="none"/><path d="M200.68 195.906l-4.465-8.035" stroke-width="1.2" stroke="#cc0" stroke-miterlimit="10" fill="none"/><path d="M196.215 187.87l-4.465-8.034" stroke-width="1.2" stroke="#00f" stroke-miterlimit="10" fill="none"/><path d="M197.68 190.406h6v11h-6zm0 0" fill="#fff"/><use xlink:href="#a" x="197.68" y="199.069" fill="#cc0"/><path d="M209.605 211.973l18.383.304M227.988 212.277l8.93 16.07M232.66 211.78l7.145 12.857M237.44 196.508l-9.452 15.77M236.918 228.348l18.38.3M255.297 228.648l9.453-15.765M252.53 224.848l7.564-12.614M264.75 212.883l-8.93-16.07M255.82 196.813l-18.38-.305M253.914 201.105l-14.707-.242" stroke-width="1.2" stroke="#000" stroke-miterlimit="10" fill="none"/><path d="M176.61 199.332h8v11h-8zm0 0" fill="#fff"/><use xlink:href="#b" x="176.609" y="207.995" fill="#f00"/><path d="M212.75 181.477h8v11h-8zm0 0" fill="#fff"/><use xlink:href="#b" x="212.75" y="190.14" fill="#f00"/><path d="M173.367 179.53m2.946.572l.02-1.043m2.925 1.612l.035-2.086m2.914 2.656l.05-3.13m2.895 3.7l.067-4.17m2.878 4.74l.082-5.214m2.863 5.785l.102-6.258m.55 6.383l.11-6.488" stroke="#000" stroke-miterlimit="10" fill="none"/><path d="M184.75 174.336h14v11h-14zm0 0" fill="#fff"/><g fill="#00f"><use xlink:href="#c" x="184.75" y="182.999"/><use xlink:href="#d" x="191.728" y="182.999"/></g><path d="M173.367 179.53l-9.45 15.77M173.367 179.53l-8.926-16.07M163.918 195.3l-18.383-.304M145.535 194.996l-8.93-16.07M140.863 195.492l-7.144-12.855M136.082 210.766l9.453-15.77M136.605 178.926l-18.378-.3M118.227 178.625l-9.454 15.766M120.992 182.426l-7.562 12.613M108.773 194.39l8.93 16.07M117.703 210.46l18.38.306M119.613 206.168l14.703.242M164.477 161.3l-9.192-.152" stroke-width="1.2" stroke="#000" stroke-miterlimit="10" fill="none"/><path d="M155.285 161.148l-9.19-.152" stroke-width="1.2" stroke="#f00" stroke-miterlimit="10" fill="none"/><path d="M164.406 165.625l-9.19-.152" stroke-width="1.2" stroke="#000" stroke-miterlimit="10" fill="none"/><path d="M155.215 165.473l-9.192-.15" stroke-width="1.2" stroke="#f00" stroke-miterlimit="10" fill="none"/><path d="M164.44 163.46l4.728-7.882" stroke-width="1.2" stroke="#000" stroke-miterlimit="10" fill="none"/><path d="M169.168 155.578l4.727-7.883" stroke-width="1.2" stroke="#00f" stroke-miterlimit="10" fill="none"/><path d="M138.06 157.66h8v11h-8zm0 0" fill="#fff"/><use xlink:href="#b" x="138.059" y="166.323" fill="#f00"/><path d="M164.965 131.625m.976 2.836l.915-.503m.067 3.34l1.824-1.012m-.844 3.848l2.735-1.52m-1.758 4.356l3.647-2.03m-2.668 4.865l4.558-2.532m-3.578 5.368l5.47-3.038m-5.25 3.668l5.67-3.15" stroke="#000" stroke-miterlimit="10" fill="none"/><path d="M166.895 142.195h14v11h-14zm0 0" fill="#fff"/><g fill="#00f"><use xlink:href="#c" x="166.895" y="150.858"/><use xlink:href="#d" x="173.872" y="150.858"/></g><path d="M164.965 131.625l9.453-15.766M164.965 131.625l-18.383-.3M174.418 115.86l18.38.3M192.797 116.16l11.05-14.69M203.355 131.21l-10.558-15.05M205.84 127.22l-8.445-12.04M203.848 101.47l17.386 5.968M200.32 83.426l3.528 18.043M204.918 84.402l2.82 14.434M221.234 107.438l13.864-12.075M219.777 102.97l11.09-9.66M221.234 107.438l-.152 9.187" stroke-width="1.2" stroke="#000" stroke-miterlimit="10" fill="none"/><path d="M221.082 116.625l-.152 9.19" stroke-width="1.2" stroke="#cc0" stroke-miterlimit="10" fill="none"/><path d="M235.098 95.363L231.57 77.32M231.57 77.32l-17.386-5.968M228.426 80.813l-13.91-4.774M214.184 71.352L200.32 83.426" stroke-width="1.2" stroke="#000" stroke-miterlimit="10" fill="none"/><path d="M220.93 125.816l-8.785 2.696" stroke-width="1.2" stroke="#cc0" stroke-miterlimit="10" fill="none"/><path d="M212.145 128.512l-8.79 2.7" stroke-width="1.2" stroke="#000" stroke-miterlimit="10" fill="none"/><path d="M217.93 120.316h6v11h-6zm0 0" fill="#fff"/><use xlink:href="#a" x="217.93" y="128.979" fill="#cc0"/><path d="M148.473 130.273l-4.465-8.035" stroke-width="1.2" stroke="#000" stroke-miterlimit="10" fill="none"/><path d="M144.008 122.238l-4.46-8.035" stroke-width="1.2" stroke="#f00" stroke-miterlimit="10" fill="none"/><path d="M144.69 132.375l-4.463-8.035" stroke-width="1.2" stroke="#000" stroke-miterlimit="10" fill="none"/><path d="M140.227 124.34l-4.46-8.035" stroke-width="1.2" stroke="#f00" stroke-miterlimit="10" fill="none"/><path d="M146.582 131.324l-4.727 7.883" stroke-width="1.2" stroke="#000" stroke-miterlimit="10" fill="none"/><path d="M141.855 139.207l-4.726 7.883" stroke-width="1.2" stroke="#00f" stroke-miterlimit="10" fill="none"/><path d="M129.656 109.754h8v11h-8zm0 0" fill="#fff"/><use xlink:href="#b" x="129.656" y="118.417" fill="#f00"/><path d="M118.75 146.79l18.328 3.546.106-6.488zm0 0"/><path d="M130.13 141.59h14v11h-14zm0 0" fill="#fff"/><g fill="#00f"><use xlink:href="#c" x="130.129" y="150.253"/><use xlink:href="#d" x="137.106" y="150.253"/></g><path d="M118.75 146.79l-9.453 15.765M118.75 146.79l-8.93-16.07M109.297 162.555l-18.38-.3M90.918 162.254l-9.453 15.766M81.465 178.02l-9.192-.15" stroke-width="1.2" stroke="#000" stroke-miterlimit="10" fill="none"/><path d="M72.273 177.87l-9.19-.15M63.082 177.72l-4.727 7.882" stroke-width="1.2" stroke="#00f" stroke-miterlimit="10" fill="none"/><path d="M58.355 185.602l-4.722 7.882" stroke-width="1.2" stroke="#000" stroke-miterlimit="10" fill="none"/><path d="M56.082 172.22h14v11h-14zm0 0" fill="#fff"/><g fill="#00f"><use xlink:href="#c" x="56.082" y="180.882"/><use xlink:href="#d" x="63.06" y="180.882"/></g><path d="M53.633 193.484l-9.192-.148" stroke-width="1.2" stroke="#000" stroke-miterlimit="10" fill="none"/><path d="M44.44 193.336l-9.19-.152" stroke-width="1.2" stroke="#00f" stroke-miterlimit="10" fill="none"/><path d="M51.742 194.535l4.46 8.035" stroke-width="1.2" stroke="#000" stroke-miterlimit="10" fill="none"/><path d="M56.203 202.57l4.465 8.035" stroke-width="1.2" stroke="#00f" stroke-miterlimit="10" fill="none"/><path d="M55.523 192.434l4.46 8.035" stroke-width="1.2" stroke="#000" stroke-miterlimit="10" fill="none"/><path d="M59.984 200.47l4.465 8.034" stroke-width="1.2" stroke="#00f" stroke-miterlimit="10" fill="none"/><path d="M16.25 185.184h19v16h-19zm0 0" fill="#fff"/><use xlink:href="#d" x="16.25" y="193.847" fill="#00f"/><use xlink:href="#e" x="23.265" y="198.729" fill="#00f"/><use xlink:href="#c" x="28.215" y="193.847" fill="#00f"/><path d="M49.56 200.055h26v19h-26zm0 0" fill="#fff"/><g fill="#00f"><use xlink:href="#c" x="49.559" y="212.156"/><use xlink:href="#d" x="56.536" y="212.156"/></g><use xlink:href="#e" x="63.551" y="217.039" fill="#00f"/><use xlink:href="#f" x="68.501" y="207.273" fill="#00f"/><path d="M111.676 131.832l4.726-7.883" stroke-width="1.2" stroke="#000" stroke-miterlimit="10" fill="none"/><path d="M116.402 123.95l4.727-7.888" stroke-width="1.2" stroke="#f00" stroke-miterlimit="10" fill="none"/><path d="M107.965 129.605l4.726-7.882" stroke-width="1.2" stroke="#000" stroke-miterlimit="10" fill="none"/><path d="M112.69 121.723l4.728-7.883" stroke-width="1.2" stroke="#f00" stroke-miterlimit="10" fill="none"/><path d="M109.82 130.72l-18.38-.302" stroke-width="1.2" stroke="#000" stroke-miterlimit="10" fill="none"/><path d="M115.273 109.453h8v11h-8zm0 0" fill="#fff"/><use xlink:href="#b" x="115.273" y="118.116" fill="#f00"/><path d="M91.44 130.418l-5.526 7.344" stroke-width="1.2" stroke="#000" stroke-miterlimit="10" fill="none"/><path d="M85.914 137.762l-5.523 7.347" stroke-width="1.2" stroke="#cc0" stroke-miterlimit="10" fill="none"/><path d="M80.883 115.367l5.277 7.524" stroke-width="1.2" stroke="#00f" stroke-miterlimit="10" fill="none"/><path d="M86.16 122.89l5.28 7.528" stroke-width="1.2" stroke="#000" stroke-miterlimit="10" fill="none"/><path d="M78.395 119.36l4.226 6.02" stroke-width="1.2" stroke="#00f" stroke-miterlimit="10" fill="none"/><path d="M82.62 125.38l4.224 6.015" stroke-width="1.2" stroke="#000" stroke-miterlimit="10" fill="none"/><path d="M80.39 145.11l-8.69-2.985" stroke-width="1.2" stroke="#cc0" stroke-miterlimit="10" fill="none"/><path d="M71.7 142.125l-8.696-2.984" stroke-width="1.2" stroke="#000" stroke-miterlimit="10" fill="none"/><path d="M77.39 139.61h6v11h-6zm0 0" fill="#fff"/><use xlink:href="#a" x="77.391" y="148.272" fill="#cc0"/><path d="M63.004 139.14l.3-18.378M67.36 137.375l.242-14.703M63.305 120.762l8.79-2.696" stroke-width="1.2" stroke="#000" stroke-miterlimit="10" fill="none"/><path d="M72.094 118.066l8.79-2.7" stroke-width="1.2" stroke="#00f" stroke-miterlimit="10" fill="none"/><path d="M77.883 109.867h7v11h-7zm0 0" fill="#fff"/><use xlink:href="#c" x="77.883" y="118.53" fill="#00f"/></g></svg>