<svg xmlns="http://www.w3.org/2000/svg" xmlns:xlink="http://www.w3.org/1999/xlink" width="300pt" height="300pt" viewBox="0 0 300 300"><defs><symbol overflow="visible"><path d="M.453 1.594v-7.938h4.5v7.938zm.5-.5h3.5v-6.938h-3.5zm0 0"/></symbol><symbol overflow="visible" id="a"><path d="M4.813-6.344v.86c-.336-.157-.653-.27-.954-.344-.294-.082-.58-.125-.86-.125-.492 0-.867.094-1.125.28-.262.19-.39.454-.39.798 0 .293.085.512.265.656.176.15.504.267.984.36l.547.11c.658.125 1.142.352 1.454.672.32.312.485.734.485 1.265 0 .637-.216 1.122-.642 1.454-.43.325-1.055.485-1.875.485-.312 0-.648-.04-1-.11C1.36-.046 1-.147.625-.296v-.906c.352.2.703.35 1.047.453.35.105.695.156 1.03.156.5 0 .884-.097 1.157-.297.28-.196.42-.485.42-.86 0-.32-.1-.57-.296-.75-.2-.176-.523-.313-.968-.406l-.547-.11C1.81-3.148 1.33-3.36 1.03-3.64.74-3.923.595-4.313.595-4.813c0-.57.203-1.024.61-1.36.405-.344.968-.516 1.687-.516.313 0 .626.032.938.094.32.055.65.137.985.25zm0 0"/></symbol><symbol overflow="visible" id="b"><path d="M.89-6.563H2.08l2.906 5.485v-5.484h.86V0H4.656L1.75-5.484V0H.89zm0 0"/></symbol><symbol overflow="visible" id="c"><path d="M.89-6.563h.876v2.688H5v-2.688h.89V0H5v-3.125H1.766V0H.89zm0 0"/></symbol><symbol overflow="visible" id="e"><path d="M3.547-5.953c-.65 0-1.164.242-1.547.72-.375.48-.563 1.13-.563 1.952 0 .835.188 1.49.563 1.967.383.48.898.72 1.547.72.644 0 1.156-.24 1.53-.72.376-.476.564-1.132.564-1.968 0-.822-.187-1.474-.562-1.954-.375-.477-.887-.72-1.53-.72zm0-.734c.914 0 1.648.312 2.203.937.55.617.828 1.438.828 2.47 0 1.042-.277 1.87-.828 2.483-.555.617-1.29.922-2.203.922-.93 0-1.668-.305-2.22-.922C.774-1.41.5-2.237.5-3.28c0-1.033.273-1.853.828-2.47.55-.625 1.29-.938 2.22-.938zm0 0"/></symbol><symbol overflow="visible"><path d="M.406 1.422V-5.64h4V1.42zM.844.97h3.11v-6.157H.843zm0 0"/></symbol><symbol overflow="visible" id="d"><path d="M1.53-.672h2.767V0H.594v-.672c.29-.3.695-.71 1.22-1.234.518-.532.842-.867.967-1.016.26-.28.44-.52.533-.72.1-.194.156-.39.156-.577 0-.31-.11-.565-.33-.764-.218-.196-.5-.297-.843-.297-.25 0-.516.046-.797.14-.273.085-.563.214-.875.39v-.797c.32-.133.617-.234.89-.297.282-.062.536-.093.766-.093.603 0 1.083.152 1.44.453.362.304.546.703.546 1.203 0 .24-.047.468-.14.686-.095.22-.26.477-.485.766-.074.074-.288.293-.64.656-.344.356-.836.856-1.47 1.5zm0 0"/></symbol><symbol overflow="visible" id="f"><path d="M3.688-5.016v2.172h2.17v.672H3.69V0H3.03v-2.172H.845v-.672H3.03v-2.172zm0 0"/></symbol><symbol overflow="visible" id="g"><path d="M.39-2.516H2.5v.64H.39zm0 0"/></symbol></defs><g><path fill="#fff" d="M0 0h300v300H0z"/><path d="M72.09 176.46l3.515 11.122" stroke-width="1.2" stroke="#cc0" stroke-miterlimit="10" fill="none"/><path d="M75.605 187.582l3.516 11.125" stroke-width="1.2" stroke="#00f" stroke-miterlimit="10" fill="none"/><path d="M71.266 173.844L60.14 177.36" stroke-width="1.2" stroke="#cc0" stroke-miterlimit="10" fill="none"/><path d="M60.14 177.36l-11.12 3.51" stroke-width="1.2" stroke="#f00" stroke-miterlimit="10" fill="none"/><path d="M72.918 179.078l-11.12 3.516" stroke-width="1.2" stroke="#cc0" stroke-miterlimit="10" fill="none"/><path d="M61.797 182.594l-11.125 3.515" stroke-width="1.2" stroke="#f00" stroke-miterlimit="10" fill="none"/><path d="M72.918 179.078l11.125-3.516" stroke-width="1.2" stroke="#cc0" stroke-miterlimit="10" fill="none"/><path d="M84.043 175.563l11.12-3.516" stroke-width="1.2" stroke="#f00" stroke-miterlimit="10" fill="none"/><path d="M71.266 173.844l11.12-3.516" stroke-width="1.2" stroke="#cc0" stroke-miterlimit="10" fill="none"/><path d="M82.387 170.328l11.125-3.516" stroke-width="1.2" stroke="#f00" stroke-miterlimit="10" fill="none"/><path d="M72.09 176.46l-3.512-11.124" stroke-width="1.2" stroke="#cc0" stroke-miterlimit="10" fill="none"/><path d="M68.578 165.336l-3.516-11.12" stroke-width="1.2" stroke="#000" stroke-miterlimit="10" fill="none"/><path d="M69.09 170.96h6v11h-6zm0 0" fill="#fff"/><use xlink:href="#a" x="69.09" y="179.624" fill="#cc0"/><path d="M70.12 190.707h19v16h-19zm0 0" fill="#fff"/><g fill="#00f"><use xlink:href="#b" x="70.121" y="199.37"/><use xlink:href="#c" x="77.099" y="199.37"/></g><use xlink:href="#d" x="84.113" y="204.253" fill="#00f"/><path d="M41.844 177.992h8v11h-8zm0 0" fill="#fff"/><use xlink:href="#e" x="41.844" y="186.655" fill="#f00"/><path d="M90.336 163.93h8v11h-8zm0 0" fill="#fff"/><use xlink:href="#e" x="90.336" y="172.593" fill="#f00"/><path d="M65.063 154.215L42.28 149.18M63.97 148.352L45.74 144.32M80.813 137.004l-15.75 17.21M42.28 149.18l-7.03-22.246M35.25 126.934L51 109.724M40.875 128.918l12.602-13.77M51 109.723l22.78 5.035M73.78 114.758l7.032 22.246M69.25 118.637l5.625 17.797M80.813 137.004l22.78 5.035M103.594 142.04l7.027 22.245M109.53 142.61l5.626 17.796M103.594 142.04l15.75-17.216M110.62 164.285l22.782 5.03M133.402 169.316l15.754-17.21M130.93 163.89l12.6-13.77M149.156 152.105l22.78 5.036M142.125 129.86l7.03 22.245M173.96 158.996l7.876-8.605" stroke-width="1.2" stroke="#000" stroke-miterlimit="10" fill="none"/><path d="M181.836 150.39l7.875-8.605" stroke-width="1.2" stroke="#f00" stroke-miterlimit="10" fill="none"/><path d="M169.91 155.29l7.875-8.606" stroke-width="1.2" stroke="#000" stroke-miterlimit="10" fill="none"/><path d="M177.785 146.684l7.875-8.606" stroke-width="1.2" stroke="#f00" stroke-miterlimit="10" fill="none"/><path d="M171.938 157.14l3.51 11.126" stroke-width="1.2" stroke="#000" stroke-miterlimit="10" fill="none"/><path d="M175.45 168.266l3.515 11.12" stroke-width="1.2" stroke="#00f" stroke-miterlimit="10" fill="none"/><path d="M183.688 134.43h8v11h-8zm0 0" fill="#fff"/><use xlink:href="#e" x="183.688" y="143.093" fill="#f00"/><path d="M178.965 179.387l11.39 2.52" stroke-width="1.2" stroke="#00f" stroke-miterlimit="10" fill="none"/><path d="M190.355 181.906l11.39 2.516" stroke-width="1.2" stroke="#000" stroke-miterlimit="10" fill="none"/><path d="M171.965 173.887h14v11h-14zm0 0" fill="#fff"/><g fill="#00f"><use xlink:href="#b" x="171.965" y="182.55"/><use xlink:href="#c" x="178.942" y="182.55"/></g><path d="M201.746 184.422l7.03 22.246M207.684 184.992l5.625 17.797M217.496 167.21l-15.75 17.212M208.777 206.668l22.782 5.035M231.56 211.703l15.75-17.21M229.082 206.277l12.602-13.77M231.56 211.703l7.03 22.246M247.31 194.492l-7.033-22.246M240.277 172.246l-22.78-5.035M236.816 177.102l-18.226-4.028M217.496 167.21l-3.512-11.12" stroke-width="1.2" stroke="#000" stroke-miterlimit="10" fill="none"/><path d="M213.984 156.09l-3.515-11.125M210.47 144.965l7.874-8.606" stroke-width="1.2" stroke="#f00" stroke-miterlimit="10" fill="none"/><path d="M218.344 136.36l7.875-8.606" stroke-width="1.2" stroke="#000" stroke-miterlimit="10" fill="none"/><path d="M206.47 139.465h8v11h-8zm0 0" fill="#fff"/><use xlink:href="#e" x="206.469" y="148.128" fill="#f00"/><path d="M226.22 127.754L249 132.79M229.68 122.898l18.226 4.028M226.22 127.754l-7.032-22.246M249 132.79l15.75-17.212M264.75 115.578l-7.03-22.246M258.813 115.008l-5.625-17.797M257.72 93.332l-22.783-5.035M234.938 88.297L227.91 66.05M219.188 105.508l15.75-17.21M224.813 107.492l12.6-13.77M227.91 66.05l7.875-8.605" stroke-width="1.2" stroke="#000" stroke-miterlimit="10" fill="none"/><path d="M235.785 57.445l7.875-8.605" stroke-width="1.2" stroke="#00f" stroke-miterlimit="10" fill="none"/><path d="M228.5 63.37l-11.39-2.518" stroke-width="1.2" stroke="#000" stroke-miterlimit="10" fill="none"/><path d="M217.11 60.852l-11.39-2.516" stroke-width="1.2" stroke="#00f" stroke-miterlimit="10" fill="none"/><path d="M227.316 68.73l-11.39-2.52" stroke-width="1.2" stroke="#000" stroke-miterlimit="10" fill="none"/><path d="M215.926 66.21l-11.39-2.515" stroke-width="1.2" stroke="#00f" stroke-miterlimit="10" fill="none"/><path d="M234.66 40.84h19v16h-19zm0 0" fill="#fff"/><g fill="#00f"><use xlink:href="#b" x="234.66" y="49.503"/><use xlink:href="#c" x="241.638" y="49.503"/></g><use xlink:href="#d" x="248.652" y="54.386" fill="#00f"/><path d="M179.13 51.516h26v19h-26zm0 0" fill="#fff"/><use xlink:href="#f" x="179.129" y="58.734" fill="#00f"/><use xlink:href="#c" x="185.648" y="63.617" fill="#00f"/><use xlink:href="#d" x="192.663" y="68.5" fill="#00f"/><use xlink:href="#b" x="197.613" y="63.617" fill="#00f"/><path d="M238.59 233.95l-7.88 8.605" stroke-width="1.2" stroke="#000" stroke-miterlimit="10" fill="none"/><path d="M230.71 242.555l-7.874 8.605" stroke-width="1.2" stroke="#f00" stroke-miterlimit="10" fill="none"/><path d="M237.996 236.63l11.39 2.518" stroke-width="1.2" stroke="#000" stroke-miterlimit="10" fill="none"/><path d="M249.387 239.148l11.39 2.516" stroke-width="1.2" stroke="#f00" stroke-miterlimit="10" fill="none"/><path d="M239.18 231.27l11.39 2.52" stroke-width="1.2" stroke="#000" stroke-miterlimit="10" fill="none"/><path d="M250.57 233.79l11.39 2.515" stroke-width="1.2" stroke="#f00" stroke-miterlimit="10" fill="none"/><path d="M211.836 243.66h11v15h-11zm0 0" fill="#fff"/><use xlink:href="#g" x="211.836" y="250.879" fill="#f00"/><use xlink:href="#e" x="214.644" y="255.762" fill="#f00"/><path d="M257.367 233.484h8v11h-8zm0 0" fill="#fff"/><use xlink:href="#e" x="257.367" y="242.147" fill="#f00"/><path d="M119.344 124.824l22.78 5.035M120.438 130.688l18.222 4.03" stroke-width="1.2" stroke="#000" stroke-miterlimit="10" fill="none"/></g></svg>