<svg xmlns="http://www.w3.org/2000/svg" xmlns:xlink="http://www.w3.org/1999/xlink" width="300pt" height="300pt" viewBox="0 0 300 300"><defs><symbol overflow="visible"><path d="M.453 1.594v-7.938h4.5v7.938zm.5-.5h3.5v-6.938h-3.5zm0 0"/></symbol><symbol overflow="visible" id="a"><path d="M4.813-6.344v.86c-.336-.157-.653-.27-.954-.344-.294-.082-.58-.125-.86-.125-.492 0-.867.094-1.125.28-.262.19-.39.454-.39.798 0 .293.085.512.265.656.176.15.504.267.984.36l.547.11c.658.125 1.142.352 1.454.672.32.312.485.734.485 1.265 0 .637-.216 1.122-.642 1.454-.43.325-1.055.485-1.875.485-.312 0-.648-.04-1-.11C1.36-.046 1-.147.625-.296v-.906c.352.2.703.35 1.047.453.35.105.695.156 1.03.156.5 0 .884-.097 1.157-.297.28-.196.42-.485.42-.86 0-.32-.1-.57-.296-.75-.2-.176-.523-.313-.968-.406l-.547-.11C1.81-3.148 1.33-3.36 1.03-3.64.74-3.923.595-4.313.595-4.813c0-.57.203-1.024.61-1.36.405-.344.968-.516 1.687-.516.313 0 .626.032.938.094.32.055.65.137.985.25zm0 0"/></symbol><symbol overflow="visible" id="b"><path d="M3.547-5.953c-.65 0-1.164.242-1.547.72-.375.48-.563 1.13-.563 1.952 0 .835.188 1.49.563 1.967.383.48.898.72 1.547.72.644 0 1.156-.24 1.53-.72.376-.476.564-1.132.564-1.968 0-.822-.187-1.474-.562-1.954-.375-.477-.887-.72-1.53-.72zm0-.734c.914 0 1.648.312 2.203.937.55.617.828 1.438.828 2.47 0 1.042-.277 1.87-.828 2.483-.555.617-1.29.922-2.203.922-.93 0-1.668-.305-2.22-.922C.774-1.41.5-2.237.5-3.28c0-1.033.273-1.853.828-2.47.55-.625 1.29-.938 2.22-.938zm0 0"/></symbol><symbol overflow="visible" id="c"><path d="M1.766-3.14v2.406h1.421c.477 0 .833-.098 1.063-.297.227-.197.344-.5.344-.907 0-.407-.117-.708-.344-.907-.23-.195-.586-.297-1.063-.297zm0-2.688v1.97h1.312c.438 0 .758-.08.97-.236.218-.164.327-.414.327-.75 0-.332-.11-.578-.328-.734-.21-.164-.53-.25-.97-.25zM.89-6.562h2.266c.676 0 1.196.14 1.563.42.362.283.546.685.546 1.205 0 .398-.094.714-.282.953-.187.242-.464.39-.828.453.438.092.774.292 1.016.592.238.293.36.657.36 1.094 0 .594-.2 1.055-.595 1.375-.398.314-.964.47-1.703.47H.89zm0 0"/></symbol><symbol overflow="visible" id="d"><path d="M3.703-4.172c-.094-.05-.195-.086-.297-.11-.105-.02-.226-.03-.36-.03-.46 0-.812.152-1.062.453-.242.294-.36.715-.36 1.266V0H.813v-4.922h.813v.766c.176-.3.398-.524.672-.672.27-.145.598-.22.984-.22.064 0 .126.01.19.017.07.01.147.022.233.03zm0 0"/></symbol><symbol overflow="visible" id="e"><path d="M.89-6.563H2.08l2.906 5.485v-5.484h.86V0H4.656L1.75-5.484V0H.89zm0 0"/></symbol><symbol overflow="visible" id="f"><path d="M.89-6.563h.876v2.688H5v-2.688h.89V0H5v-3.125H1.766V0H.89zm0 0"/></symbol><symbol overflow="visible"><path d="M.406 1.422V-5.64h4V1.42zM.844.97h3.11v-6.157H.843zm0 0"/></symbol><symbol overflow="visible" id="g"><path d="M3.688-5.016v2.172h2.17v.672H3.69V0H3.03v-2.172H.845v-.672H3.03v-2.172zm0 0"/></symbol></defs><g><path fill="#fff" d="M0 0h300v300H0z"/><path d="M180.934 159.27l-2.434-8.176" stroke-width="1.2" stroke="#cc0" stroke-miterlimit="10" fill="none"/><path d="M178.5 151.094l-2.438-8.18" stroke-width="1.2" stroke="#f00" stroke-miterlimit="10" fill="none"/><path d="M177.086 160.418l-2.438-8.18" stroke-width="1.2" stroke="#cc0" stroke-miterlimit="10" fill="none"/><path d="M174.648 152.238l-2.433-8.18" stroke-width="1.2" stroke="#f00" stroke-miterlimit="10" fill="none"/><path d="M177.086 160.418l2.434 8.176" stroke-width="1.2" stroke="#cc0" stroke-miterlimit="10" fill="none"/><path d="M179.52 168.594l2.437 8.18" stroke-width="1.2" stroke="#f00" stroke-miterlimit="10" fill="none"/><path d="M180.934 159.27l2.433 8.18" stroke-width="1.2" stroke="#cc0" stroke-miterlimit="10" fill="none"/><path d="M183.367 167.45l2.438 8.175" stroke-width="1.2" stroke="#f00" stroke-miterlimit="10" fill="none"/><path d="M179.008 159.844l8.18-2.438" stroke-width="1.2" stroke="#cc0" stroke-miterlimit="10" fill="none"/><path d="M187.188 157.406l8.18-2.433" stroke-width="1.2" stroke="#000" stroke-miterlimit="10" fill="none"/><path d="M179.008 159.844l-8.176 2.433" stroke-width="1.2" stroke="#cc0" stroke-miterlimit="10" fill="none"/><path d="M170.832 162.277l-8.18 2.438" stroke-width="1.2" stroke="#00f" stroke-miterlimit="10" fill="none"/><path d="M176.008 154.344h6v11h-6zm0 0" fill="#fff"/><use xlink:href="#a" x="176.008" y="163.007" fill="#cc0"/><path d="M170.14 137.988h8v11h-8zm0 0" fill="#fff"/><use xlink:href="#b" x="170.141" y="146.651" fill="#f00"/><path d="M179.88 170.7h8v11h-8zm0 0" fill="#fff"/><use xlink:href="#b" x="179.879" y="179.362" fill="#f00"/><path d="M195.367 154.973l12.395 11.73M199.363 153.23l9.918 9.383M199.324 138.375l-3.957 16.598M207.762 166.703l16.355-4.87M224.117 161.832l3.96-16.598M220.605 159.242l3.172-13.28M228.078 145.234l16.356-4.87M228.078 145.234l-12.394-11.73M244.434 140.363l3.96-16.6M240.922 137.77l3.172-13.278M248.395 123.762l8.175-2.434" stroke-width="1.2" stroke="#000" stroke-miterlimit="10" fill="none"/><path d="M256.57 121.328l8.18-2.437" stroke-width="1.2" stroke="#7f4d1a" stroke-miterlimit="10" fill="none"/><path d="M248.395 123.762L236 112.032" stroke-width="1.2" stroke="#000" stroke-miterlimit="10" fill="none"/><path d="M259.75 113.39h11v11h-11zm0 0" fill="#fff"/><g fill="#7f4d1a"><use xlink:href="#c" x="259.75" y="122.054"/><use xlink:href="#d" x="266.149" y="122.054"/></g><path d="M236 112.03l-16.36 4.872M235.508 116.367l-13.086 3.9M215.684 133.504l3.957-16.602M215.684 133.504l-16.36 4.87M215.19 137.84l-13.085 3.894" stroke-width="1.2" stroke="#000" stroke-miterlimit="10" fill="none"/><path d="M162.652 164.715l-6.195-5.867" stroke-width="1.2" stroke="#00f" stroke-miterlimit="10" fill="none"/><path d="M156.457 158.848l-6.2-5.864M158.69 181.313l1.982-8.3" stroke-width="1.2" stroke="#000" stroke-miterlimit="10" fill="none"/><path d="M160.672 173.012l1.98-8.297" stroke-width="1.2" stroke="#00f" stroke-miterlimit="10" fill="none"/><path d="M159.652 159.215h7v11h-7zm0 0" fill="#fff"/><use xlink:href="#e" x="159.652" y="167.878" fill="#00f"/><path d="M150.258 152.984l-16.356 4.87M133.902 157.855l-1.98 8.297" stroke-width="1.2" stroke="#000" stroke-miterlimit="10" fill="none"/><path d="M131.922 166.152l-1.98 8.3M129.94 174.453l6.2 5.867" stroke-width="1.2" stroke="#00f" stroke-miterlimit="10" fill="none"/><path d="M136.14 180.32l6.196 5.864" stroke-width="1.2" stroke="#000" stroke-miterlimit="10" fill="none"/><path d="M129.94 174.453l-8.178 2.438" stroke-width="1.2" stroke="#00f" stroke-miterlimit="10" fill="none"/><path d="M121.762 176.89l-8.176 2.434" stroke-width="1.2" stroke="#000" stroke-miterlimit="10" fill="none"/><path d="M126.94 168.953h7v11h-7zm0 0" fill="#fff"/><use xlink:href="#e" x="126.941" y="177.616" fill="#00f"/><path d="M142.336 186.184l16.355-4.87M111.633 178.86l-1.98 8.3" stroke-width="1.2" stroke="#000" stroke-miterlimit="10" fill="none"/><path d="M109.652 187.16l-1.98 8.297" stroke-width="1.2" stroke="#f00" stroke-miterlimit="10" fill="none"/><path d="M115.54 179.79l-1.98 8.3" stroke-width="1.2" stroke="#000" stroke-miterlimit="10" fill="none"/><path d="M113.56 188.09l-1.982 8.3" stroke-width="1.2" stroke="#f00" stroke-miterlimit="10" fill="none"/><path d="M113.586 179.324l-12.398-11.73" stroke-width="1.2" stroke="#000" stroke-miterlimit="10" fill="none"/><path d="M105.625 190.426h8v11h-8zm0 0" fill="#fff"/><use xlink:href="#b" x="105.625" y="199.089" fill="#f00"/><path d="M101.188 167.594l3.96-16.598M97.68 165.004l3.168-13.28M84.832 172.465l16.356-4.87M105.148 150.996l-12.394-11.73M92.754 139.266l-16.356 4.87M92.266 143.602l-13.086 3.894M76.398 144.137l-3.96 16.597M76.398 144.137L64 132.407M72.438 160.734l12.394 11.73M76.438 158.992l9.914 9.383M64 132.406l1.98-8.3" stroke-width="1.2" stroke="#000" stroke-miterlimit="10" fill="none"/><path d="M65.98 124.105l1.98-8.3" stroke-width="1.2" stroke="#00f" stroke-miterlimit="10" fill="none"/><path d="M60.492 129.813l1.582-6.64" stroke-width="1.2" stroke="#000" stroke-miterlimit="10" fill="none"/><path d="M62.074 123.172l1.586-6.637M47.645 137.277l8.18-2.437" stroke-width="1.2" stroke="#00f" stroke-miterlimit="10" fill="none"/><path d="M55.824 134.84L64 132.406" stroke-width="1.2" stroke="#000" stroke-miterlimit="10" fill="none"/><path d="M67.96 115.805l-6.194-5.864" stroke-width="1.2" stroke="#00f" stroke-miterlimit="10" fill="none"/><path d="M61.766 109.94l-6.2-5.866" stroke-width="1.2" stroke="#000" stroke-miterlimit="10" fill="none"/><path d="M57.96 108.305h21v15h-21zm0 0" fill="#fff"/><g fill="#00f"><use xlink:href="#e" x="57.961" y="120.406"/><use xlink:href="#f" x="64.938" y="120.406"/></g><use xlink:href="#g" x="71.953" y="115.523" fill="#00f"/><path d="M55.566 104.074l-16.355 4.87M39.21 108.945l-3.96 16.602M35.25 125.547l6.2 5.863" stroke-width="1.2" stroke="#000" stroke-miterlimit="10" fill="none"/><path d="M41.45 131.41l6.195 5.867" stroke-width="1.2" stroke="#00f" stroke-miterlimit="10" fill="none"/><path d="M40.645 131.777h14v11h-14zm0 0" fill="#fff"/><g fill="#00f"><use xlink:href="#e" x="40.645" y="140.44"/><use xlink:href="#f" x="47.622" y="140.44"/></g></g></svg>