<svg xmlns="http://www.w3.org/2000/svg" xmlns:xlink="http://www.w3.org/1999/xlink" width="300pt" height="300pt" viewBox="0 0 300 300"><defs><symbol overflow="visible"><path d="M.453 1.594v-7.938h4.5v7.938zm.5-.5h3.5v-6.938h-3.5zm0 0"/></symbol><symbol overflow="visible" id="a"><path d="M5.797-6.063v.938c-.305-.27-.625-.473-.97-.61-.335-.144-.686-.218-1.06-.218-.75 0-1.33.23-1.736.687-.397.46-.592 1.12-.592 1.985 0 .866.195 1.526.593 1.983.408.46.986.688 1.736.688.375 0 .726-.066 1.062-.203.344-.132.664-.343.97-.625V-.5c-.314.21-.642.367-.986.47-.343.1-.714.155-1.11.155-.99 0-1.772-.3-2.343-.906C.784-1.396.5-2.228.5-3.28c0-1.052.285-1.88.86-2.486.57-.613 1.35-.92 2.343-.92.395-.002.766.053 1.11.155.35.104.68.26.984.468zm0 0"/></symbol><symbol overflow="visible" id="b"><path d="M.844-6.844h.812V0H.844zm0 0"/></symbol><symbol overflow="visible" id="c"><path d="M.89-6.563H2.08l2.906 5.485v-5.484h.86V0H4.656L1.75-5.484V0H.89zm0 0"/></symbol><symbol overflow="visible" id="d"><path d="M.89-6.563h.876v2.688H5v-2.688h.89V0H5v-3.125H1.766V0H.89zm0 0"/></symbol><symbol overflow="visible" id="e"><path d="M3.547-5.953c-.65 0-1.164.242-1.547.72-.375.48-.563 1.13-.563 1.952 0 .835.188 1.49.563 1.967.383.48.898.72 1.547.72.644 0 1.156-.24 1.53-.72.376-.476.564-1.132.564-1.968 0-.822-.187-1.474-.562-1.954-.375-.477-.887-.72-1.53-.72zm0-.734c.914 0 1.648.312 2.203.937.55.617.828 1.438.828 2.47 0 1.042-.277 1.87-.828 2.483-.555.617-1.29.922-2.203.922-.93 0-1.668-.305-2.22-.922C.774-1.41.5-2.237.5-3.28c0-1.033.273-1.853.828-2.47.55-.625 1.29-.938 2.22-.938zm0 0"/></symbol><symbol overflow="visible" id="f"><path d="M4.813-6.344v.86c-.336-.157-.653-.27-.954-.344-.294-.082-.58-.125-.86-.125-.492 0-.867.094-1.125.28-.262.19-.39.454-.39.798 0 .293.085.512.265.656.176.15.504.267.984.36l.547.11c.658.125 1.142.352 1.454.672.32.312.485.734.485 1.265 0 .637-.216 1.122-.642 1.454-.43.325-1.055.485-1.875.485-.312 0-.648-.04-1-.11C1.36-.046 1-.147.625-.296v-.906c.352.2.703.35 1.047.453.35.105.695.156 1.03.156.5 0 .884-.097 1.157-.297.28-.196.42-.485.42-.86 0-.32-.1-.57-.296-.75-.2-.176-.523-.313-.968-.406l-.547-.11C1.81-3.148 1.33-3.36 1.03-3.64.74-3.923.595-4.313.595-4.813c0-.57.203-1.024.61-1.36.405-.344.968-.516 1.687-.516.313 0 .626.032.938.094.32.055.65.137.985.25zm0 0"/></symbol></defs><g><path fill="#fff" d="M0 0h300v300H0z"/><path d="M224.398 185.652l-.41-11.882" stroke-width="1.2" stroke="#0c0" stroke-miterlimit="10" fill="none"/><path d="M223.988 173.77l-.406-11.887" stroke-width="1.2" stroke="#000" stroke-miterlimit="10" fill="none"/><path d="M219.398 180.152h10v11h-10zm0 0" fill="#fff"/><g fill="#0c0"><use xlink:href="#a" x="219.398" y="188.815"/><use xlink:href="#b" x="225.912" y="188.815"/></g><path d="M223.582 161.883l-20.992-11.176M224.113 155.828l-16.797-8.94M243.758 149.293l-20.176 12.59M202.59 150.707l-10.09 6.297" stroke-width="1.2" stroke="#000" stroke-miterlimit="10" fill="none"/><path d="M192.5 157.004l-10.09 6.297" stroke-width="1.2" stroke="#00f" stroke-miterlimit="10" fill="none"/><path d="M202.59 150.707l-.82-23.77" stroke-width="1.2" stroke="#000" stroke-miterlimit="10" fill="none"/><path d="M182.41 163.3l-10.496-5.59" stroke-width="1.2" stroke="#00f" stroke-miterlimit="10" fill="none"/><path d="M171.914 157.71l-10.496-5.585" stroke-width="1.2" stroke="#000" stroke-miterlimit="10" fill="none"/><path d="M175.41 157.8h14v11h-14zm0 0" fill="#fff"/><g fill="#00f"><use xlink:href="#c" x="175.41" y="166.464"/><use xlink:href="#d" x="182.388" y="166.464"/></g><path d="M164.215 152.027l-.406-11.886" stroke-width="1.2" stroke="#000" stroke-miterlimit="10" fill="none"/><path d="M163.81 140.14l-.412-11.882" stroke-width="1.2" stroke="#f00" stroke-miterlimit="10" fill="none"/><path d="M158.62 152.22l-.405-11.884" stroke-width="1.2" stroke="#000" stroke-miterlimit="10" fill="none"/><path d="M158.215 140.336l-.41-11.887" stroke-width="1.2" stroke="#f00" stroke-miterlimit="10" fill="none"/><path d="M161.418 152.125l-10.086 6.293" stroke-width="1.2" stroke="#000" stroke-miterlimit="10" fill="none"/><path d="M151.332 158.418l-10.09 6.297" stroke-width="1.2" stroke="#00f" stroke-miterlimit="10" fill="none"/><path d="M156.602 122.855h8v11h-8zm0 0" fill="#fff"/><use xlink:href="#e" x="156.602" y="131.519" fill="#f00"/><path d="M141.242 164.715l-10.496-5.59" stroke-width="1.2" stroke="#00f" stroke-miterlimit="10" fill="none"/><path d="M130.746 159.125l-10.496-5.586" stroke-width="1.2" stroke="#000" stroke-miterlimit="10" fill="none"/><path d="M134.242 159.215h14v11h-14zm0 0" fill="#fff"/><g fill="#00f"><use xlink:href="#c" x="134.242" y="167.878"/><use xlink:href="#d" x="141.22" y="167.878"/></g><path d="M120.25 153.54l-21.383 10.413M116.953 129.984l3.297 23.555M111.742 133.117l2.637 18.844M98.867 163.953l-16.512-17.117M101.246 158.355l-13.21-13.69M82.355 146.836l5.59-10.496" stroke-width="1.2" stroke="#000" stroke-miterlimit="10" fill="none"/><path d="M87.945 136.34l5.59-10.496" stroke-width="1.2" stroke="#cc0" stroke-miterlimit="10" fill="none"/><path d="M82.355 146.836l-23.55 3.297" stroke-width="1.2" stroke="#000" stroke-miterlimit="10" fill="none"/><path d="M93.535 125.844l11.707 2.07" stroke-width="1.2" stroke="#cc0" stroke-miterlimit="10" fill="none"/><path d="M105.242 127.914l11.71 2.07" stroke-width="1.2" stroke="#000" stroke-miterlimit="10" fill="none"/><path d="M90.535 120.344h6v11h-6zm0 0" fill="#fff"/><use xlink:href="#f" x="90.535" y="129.007" fill="#cc0"/><path d="M58.805 150.133l-3.297-23.555M58.805 150.133l3.297 23.554M58.805 150.133L35.25 153.43M201.77 126.938l20.175-12.59M206.75 130.426l16.14-10.074M221.945 114.348l20.996 11.175M242.94 125.523l.818 23.77M237.43 128.094l.652 19.015M243.758 149.293l10.496 5.586" stroke-width="1.2" stroke="#000" stroke-miterlimit="10" fill="none"/><path d="M254.254 154.88l10.496 5.59" stroke-width="1.2" stroke="#0c0" stroke-miterlimit="10" fill="none"/><path d="M259.75 154.97h10v11h-10zm0 0" fill="#fff"/><g fill="#0c0"><use xlink:href="#a" x="259.75" y="163.632"/><use xlink:href="#b" x="266.264" y="163.632"/></g></g></svg>