<svg xmlns="http://www.w3.org/2000/svg" xmlns:xlink="http://www.w3.org/1999/xlink" width="300pt" height="300pt" viewBox="0 0 300 300"><defs><symbol overflow="visible"><path d="M.453 1.594v-7.938h4.5v7.938zm.5-.5h3.5v-6.938h-3.5zm0 0"/></symbol><symbol overflow="visible" id="a"><path d="M.89-6.563H2.08l2.906 5.485v-5.484h.86V0H4.656L1.75-5.484V0H.89zm0 0"/></symbol><symbol overflow="visible" id="b"><path d="M.89-6.563h.876v2.688H5v-2.688h.89V0H5v-3.125H1.766V0H.89zm0 0"/></symbol><symbol overflow="visible" id="e"><path d="M3.547-5.953c-.65 0-1.164.242-1.547.72-.375.48-.563 1.13-.563 1.952 0 .835.188 1.49.563 1.967.383.48.898.72 1.547.72.644 0 1.156-.24 1.53-.72.376-.476.564-1.132.564-1.968 0-.822-.187-1.474-.562-1.954-.375-.477-.887-.72-1.53-.72zm0-.734c.914 0 1.648.312 2.203.937.55.617.828 1.438.828 2.47 0 1.042-.277 1.87-.828 2.483-.555.617-1.29.922-2.203.922-.93 0-1.668-.305-2.22-.922C.774-1.41.5-2.237.5-3.28c0-1.033.273-1.853.828-2.47.55-.625 1.29-.938 2.22-.938zm0 0"/></symbol><symbol overflow="visible"><path d="M.406 1.422V-5.64h4V1.42zM.844.97h3.11v-6.157H.843zm0 0"/></symbol><symbol overflow="visible" id="c"><path d="M1.53-.672h2.767V0H.594v-.672c.29-.3.695-.71 1.22-1.234.518-.532.842-.867.967-1.016.26-.28.44-.52.533-.72.1-.194.156-.39.156-.577 0-.31-.11-.565-.33-.764-.218-.196-.5-.297-.843-.297-.25 0-.516.046-.797.14-.273.085-.563.214-.875.39v-.797c.32-.133.617-.234.89-.297.282-.062.536-.093.766-.093.603 0 1.083.152 1.44.453.362.304.546.703.546 1.203 0 .24-.047.468-.14.686-.095.22-.26.477-.485.766-.074.074-.288.293-.64.656-.344.356-.836.856-1.47 1.5zm0 0"/></symbol><symbol overflow="visible" id="d"><path d="M3.688-5.016v2.172h2.17v.672H3.69V0H3.03v-2.172H.845v-.672H3.03v-2.172zm0 0"/></symbol></defs><g><path fill="#fff" d="M0 0h300v300H0z"/><path d="M83.902 175.7l19.11 2.554M83.902 175.7l-18.832 4.14M83.902 175.7l-.804-19.262M78.07 194.078l5.832-18.38M103.012 178.254l7.347 17.828M107.94 178.31l5.876 14.26M103.012 178.254l11.77-15.274M110.36 196.082l19.11 2.55M129.47 198.633l11.768-15.274M127.05 194.336l9.415-12.22M141.238 183.36l-7.347-17.83M141.238 183.36l9.555 1.277" stroke-width="1.2" stroke="#000" stroke-miterlimit="10" fill="none"/><path d="M150.793 184.637l9.555 1.273" stroke-width="1.2" stroke="#00f" stroke-miterlimit="10" fill="none"/><path d="M133.89 165.53l5.883-7.635" stroke-width="1.2" stroke="#000" stroke-miterlimit="10" fill="none"/><path d="M139.773 157.895l5.883-7.637" stroke-width="1.2" stroke="#00f" stroke-miterlimit="10" fill="none"/><path d="M114.78 162.98l19.11 2.55M116.09 167.73l15.29 2.043" stroke-width="1.2" stroke="#000" stroke-miterlimit="10" fill="none"/><path d="M145.656 150.258l9.56 1.273" stroke-width="1.2" stroke="#00f" stroke-miterlimit="10" fill="none"/><path d="M155.215 151.53l9.555 1.28" stroke-width="1.2" stroke="#000" stroke-miterlimit="10" fill="none"/><path d="M146.97 155.008l7.643 1.023" stroke-width="1.2" stroke="#00f" stroke-miterlimit="10" fill="none"/><path d="M154.613 156.03l7.645 1.02" stroke-width="1.2" stroke="#000" stroke-miterlimit="10" fill="none"/><path d="M142.656 144.758h7v11h-7zm0 0" fill="#fff"/><use xlink:href="#a" x="142.656" y="153.421" fill="#00f"/><path d="M164.77 152.81l11.765-15.275M164.77 152.81l7.343 17.827M176.535 137.535l19.113 2.55M195.648 140.086l7.344 17.828M200.578 140.14l5.875 14.262M195.648 140.086l11.766-15.274M202.992 157.914l19.113 2.555M233.87 145.19l-11.765 15.28M229.102 143.953l-9.415 12.22M207.414 124.813l19.113 2.554M208.727 129.566l15.29 2.04M226.527 127.367l7.344 17.824M233.87 145.19l19.114 2.556M252.984 147.746l3.672 8.914" stroke-width="1.2" stroke="#000" stroke-miterlimit="10" fill="none"/><path d="M256.656 156.66l3.672 8.914" stroke-width="1.2" stroke="#00f" stroke-miterlimit="10" fill="none"/><path d="M254.78 149.13l5.884-7.638" stroke-width="1.2" stroke="#000" stroke-miterlimit="10" fill="none"/><path d="M260.664 141.492l5.883-7.637" stroke-width="1.2" stroke="#00f" stroke-miterlimit="10" fill="none"/><path d="M251.188 146.363l5.882-7.64" stroke-width="1.2" stroke="#000" stroke-miterlimit="10" fill="none"/><path d="M257.07 138.723l5.883-7.637" stroke-width="1.2" stroke="#00f" stroke-miterlimit="10" fill="none"/><path d="M251.328 157.574h19v16h-19zm0 0" fill="#fff"/><g fill="#00f"><use xlink:href="#a" x="251.328" y="166.237"/><use xlink:href="#b" x="258.306" y="166.237"/></g><use xlink:href="#c" x="265.32" y="171.12" fill="#00f"/><path d="M251.75 122.973h26v19h-26zm0 0" fill="#fff"/><g fill="#00f"><use xlink:href="#a" x="251.75" y="135.074"/><use xlink:href="#b" x="258.728" y="135.074"/></g><use xlink:href="#c" x="265.742" y="139.957" fill="#00f"/><use xlink:href="#d" x="270.692" y="130.191" fill="#00f"/><path d="M171.816 172.887l9.555 1.273" stroke-width="1.2" stroke="#000" stroke-miterlimit="10" fill="none"/><path d="M181.37 174.16l9.556 1.278" stroke-width="1.2" stroke="#f00" stroke-miterlimit="10" fill="none"/><path d="M172.414 168.387l9.56 1.277" stroke-width="1.2" stroke="#000" stroke-miterlimit="10" fill="none"/><path d="M181.973 169.664l9.554 1.277" stroke-width="1.2" stroke="#f00" stroke-miterlimit="10" fill="none"/><path d="M160.348 185.91l5.882-7.637" stroke-width="1.2" stroke="#00f" stroke-miterlimit="10" fill="none"/><path d="M166.23 178.273l5.883-7.636" stroke-width="1.2" stroke="#000" stroke-miterlimit="10" fill="none"/><path d="M187.227 167.69h8v11h-8zm0 0" fill="#fff"/><use xlink:href="#e" x="187.227" y="176.354" fill="#f00"/><path d="M160.348 185.91l3.672 8.914" stroke-width="1.2" stroke="#00f" stroke-miterlimit="10" fill="none"/><path d="M164.02 194.824l3.67 8.914" stroke-width="1.2" stroke="#000" stroke-miterlimit="10" fill="none"/><path d="M157.348 180.41h7v11h-7zm0 0" fill="#fff"/><use xlink:href="#a" x="157.348" y="189.073" fill="#00f"/><path d="M65.07 179.84l13 14.238M84.313 158.352l8.14-5.165" stroke-width="1.2" stroke="#000" stroke-miterlimit="10" fill="none"/><path d="M92.453 153.188l8.14-5.165" stroke-width="1.2" stroke="#f00" stroke-miterlimit="10" fill="none"/><path d="M81.883 154.52l8.14-5.165" stroke-width="1.2" stroke="#000" stroke-miterlimit="10" fill="none"/><path d="M90.023 149.355l8.14-5.164" stroke-width="1.2" stroke="#f00" stroke-miterlimit="10" fill="none"/><path d="M83.098 156.438l-8.543-4.47" stroke-width="1.2" stroke="#000" stroke-miterlimit="10" fill="none"/><path d="M74.555 151.97l-8.543-4.47" stroke-width="1.2" stroke="#00f" stroke-miterlimit="10" fill="none"/><path d="M95.38 140.605h8v11h-8zm0 0" fill="#fff"/><use xlink:href="#e" x="95.379" y="149.269" fill="#f00"/><path d="M66.012 147.5l-8.637 4.285" stroke-width="1.2" stroke="#00f" stroke-miterlimit="10" fill="none"/><path d="M57.375 151.785l-8.637 4.285M63.195 128.426l1.407 9.54" stroke-width="1.2" stroke="#000" stroke-miterlimit="10" fill="none"/><path d="M64.602 137.965l1.41 9.535" stroke-width="1.2" stroke="#00f" stroke-miterlimit="10" fill="none"/><path d="M63.012 142h7v11h-7zm0 0" fill="#fff"/><use xlink:href="#a" x="63.012" y="150.663" fill="#00f"/><path d="M48.738 156.07L35.25 142.293M35.25 142.293l8.934-17.086M44.184 125.207l19.01 3.22" stroke-width="1.2" stroke="#000" stroke-miterlimit="10" fill="none"/><path d="M63.195 128.426l16.16-11.06-4.76-4.862zm0 0"/><path d="M76.973 114.938l-2.395-9.34" stroke-width="1.2" stroke="#000" stroke-miterlimit="10" fill="none"/><path d="M74.578 105.598l-2.394-9.336" stroke-width="1.2" stroke="#f00" stroke-miterlimit="10" fill="none"/><path d="M65.184 90.762h15v11h-15zm0 0" fill="#fff"/><g fill="#f00"><use xlink:href="#b" x="65.184" y="99.425"/><use xlink:href="#e" x="72.198" y="99.425"/></g></g></svg>