<svg xmlns="http://www.w3.org/2000/svg" xmlns:xlink="http://www.w3.org/1999/xlink" width="300pt" height="300pt" viewBox="0 0 300 300"><defs><symbol overflow="visible"><path d="M.547 1.938V-7.75h5.5v9.688zm.625-.61h4.266v-8.47H1.171zm0 0"/></symbol><symbol overflow="visible" id="a"><path d="M1.078-8.016h1.47l3.546 6.704v-6.704h1.062V0H5.688L2.124-6.703V0H1.078zm0 0"/></symbol><symbol overflow="visible" id="b"><path d="M4.328-7.28c-.78 0-1.406.296-1.875.89-.46.585-.687 1.382-.687 2.39 0 1.012.226 1.813.687 2.406.47.586 1.094.875 1.875.875.79 0 1.414-.288 1.875-.874.457-.593.688-1.394.688-2.406 0-1.008-.23-1.805-.687-2.39-.46-.594-1.086-.89-1.875-.89zm0-.892c1.125 0 2.024.383 2.703 1.14C7.708-6.28 8.048-5.27 8.048-4c0 1.262-.34 2.273-1.016 3.03C6.353-.22 5.454.157 4.33.157S2.3-.22 1.625-.97c-.668-.75-1-1.757-1-3.03 0-1.27.332-2.28 1-3.03.676-.76 1.578-1.142 2.703-1.142zm0 0"/></symbol><symbol overflow="visible" id="c"><path d="M1.078-8.016h1.094v3.282H6.11v-3.282h1.077V0H6.11v-3.813H2.17V0H1.078zm0 0"/></symbol><symbol overflow="visible"><path d="M.453 1.594v-7.938h4.5v7.938zm.5-.5h3.5v-6.938h-3.5zm0 0"/></symbol><symbol overflow="visible" id="d"><path d="M1.734-.75h3.094V0H.656v-.75c.344-.344.8-.805 1.375-1.39.583-.594.954-.973 1.11-1.14.282-.322.473-.595.58-.814.112-.226.17-.445.17-.656 0-.352-.12-.64-.36-.86-.24-.218-.557-.327-.952-.327-.28 0-.578.054-.89.156-.305.093-.633.24-.985.436v-.906c.352-.133.688-.238 1-.313.313-.082.598-.125.86-.125.675 0 1.218.172 1.624.516.407.344.61.797.61 1.36 0 .273-.055.53-.156.78-.105.243-.288.524-.546.845-.074.085-.31.328-.703.734-.398.406-.95.976-1.656 1.703zm0 0"/></symbol><symbol overflow="visible" id="e"><path d="M4.14-5.64v2.452h2.454v.735H4.14V0h-.734v-2.453H.953v-.735h2.453V-5.64zm0 0"/></symbol></defs><g><path fill="#fff" d="M0 0h300v300H0z"/><path d="M127.3 224.688l1.555 13.824" stroke-width="1.2" stroke="#00f" stroke-miterlimit="10" fill="none"/><path d="M128.855 238.512l1.555 13.828" stroke-width="1.2" stroke="#000" stroke-miterlimit="10" fill="none"/><path d="M127.3 224.688l11.196-8.258" stroke-width="1.2" stroke="#00f" stroke-miterlimit="10" fill="none"/><path d="M138.496 216.43l11.195-8.258M101.8 213.56l12.75 5.565" stroke-width="1.2" stroke="#000" stroke-miterlimit="10" fill="none"/><path d="M114.55 219.125l12.75 5.563" stroke-width="1.2" stroke="#00f" stroke-miterlimit="10" fill="none"/><path d="M123.3 218.188h8v13h-8zm0 0" fill="#fff"/><use xlink:href="#a" x="123.301" y="228.089" fill="#00f"/><path d="M149.69 208.172l25.5 11.13M154.86 203.285l20.398 8.903M149.69 208.172l-3.108-27.652M175.19 219.3l22.392-16.515M197.582 202.785l-3.113-27.652M190.762 200.75l-2.485-22.117M194.47 175.133l-25.5-11.13M194.47 175.133l22.39-16.516M146.582 180.52l22.387-16.516M152.707 184.137l17.91-13.215M216.86 158.617l-16.516-22.39M216.86 158.617l16.52 22.39M216.86 158.617l22.39-16.52M237.94 145.098l12.75 5.566" stroke-width="1.2" stroke="#000" stroke-miterlimit="10" fill="none"/><path d="M250.69 150.664l12.75 5.566" stroke-width="1.2" stroke="#f00" stroke-miterlimit="10" fill="none"/><path d="M240.56 139.098l12.75 5.566" stroke-width="1.2" stroke="#000" stroke-miterlimit="10" fill="none"/><path d="M253.31 144.664l12.75 5.566" stroke-width="1.2" stroke="#f00" stroke-miterlimit="10" fill="none"/><path d="M239.25 142.098l-1.555-13.825" stroke-width="1.2" stroke="#000" stroke-miterlimit="10" fill="none"/><path d="M237.695 128.273l-1.554-13.824" stroke-width="1.2" stroke="#00f" stroke-miterlimit="10" fill="none"/><path d="M260.75 146.73h9v13h-9zm0 0" fill="#fff"/><use xlink:href="#b" x="260.75" y="156.632" fill="#f00"/><path d="M236.14 114.45l11.196-8.26" stroke-width="1.2" stroke="#00f" stroke-miterlimit="10" fill="none"/><path d="M247.336 106.19l11.195-8.26M210.64 103.316l12.75 5.567" stroke-width="1.2" stroke="#000" stroke-miterlimit="10" fill="none"/><path d="M223.39 108.883l12.75 5.566" stroke-width="1.2" stroke="#00f" stroke-miterlimit="10" fill="none"/><path d="M232.14 107.95h8v13h-8zm0 0" fill="#fff"/><use xlink:href="#a" x="232.141" y="117.851" fill="#00f"/><path d="M258.53 97.93l-3.112-27.65M255.418 70.28l-12.75-5.565" stroke-width="1.2" stroke="#000" stroke-miterlimit="10" fill="none"/><path d="M242.668 64.715l-12.75-5.563M229.918 59.152l-11.19 8.258" stroke-width="1.2" stroke="#00f" stroke-miterlimit="10" fill="none"/><path d="M218.727 67.41l-11.196 8.258" stroke-width="1.2" stroke="#000" stroke-miterlimit="10" fill="none"/><path d="M214.918 48.652h30v21h-30zm0 0" fill="#fff"/><g fill="#00f"><use xlink:href="#a" x="214.918" y="61.785"/><use xlink:href="#c" x="222.901" y="61.785"/></g><use xlink:href="#d" x="230.926" y="66.668" fill="#00f"/><use xlink:href="#e" x="236.582" y="56.902" fill="#00f"/><path d="M207.53 75.668l3.11 27.648M146.582 180.52l-12.75-5.563" stroke-width="1.2" stroke="#000" stroke-miterlimit="10" fill="none"/><path d="M133.832 174.957l-12.75-5.566M121.082 169.39l-11.195 8.258" stroke-width="1.2" stroke="#00f" stroke-miterlimit="10" fill="none"/><path d="M109.887 177.648L98.69 185.91" stroke-width="1.2" stroke="#000" stroke-miterlimit="10" fill="none"/><path d="M122.727 176.31l-8.954 6.608" stroke-width="1.2" stroke="#00f" stroke-miterlimit="10" fill="none"/><path d="M113.773 182.918l-8.957 6.605" stroke-width="1.2" stroke="#000" stroke-miterlimit="10" fill="none"/><path d="M117.082 162.89h8v13h-8zm0 0" fill="#fff"/><use xlink:href="#a" x="117.082" y="172.792" fill="#00f"/><path d="M98.69 185.91l-25.5-11.133M98.69 185.91l3.11 27.65M73.19 174.777l-3.108-27.648M70.082 147.13l22.387-16.52M68.434 140.207l17.91-13.215M70.082 147.13l-25.5-11.134M92.47 130.61l-3.11-27.65M89.36 102.96L63.86 91.83M84.19 107.848L63.794 98.94M63.86 91.828L60.75 64.18M41.47 108.348l22.39-16.52M60.75 64.18l11.195-8.258" stroke-width="1.2" stroke="#000" stroke-miterlimit="10" fill="none"/><path d="M71.945 55.922L83.14 47.66" stroke-width="1.2" stroke="#00f" stroke-miterlimit="10" fill="none"/><path d="M62.06 61.18l-12.75-5.567" stroke-width="1.2" stroke="#000" stroke-miterlimit="10" fill="none"/><path d="M49.31 55.613L36.56 50.05" stroke-width="1.2" stroke="#00f" stroke-miterlimit="10" fill="none"/><path d="M59.44 67.18l-12.75-5.567" stroke-width="1.2" stroke="#000" stroke-miterlimit="10" fill="none"/><path d="M46.69 61.613L33.94 56.05" stroke-width="1.2" stroke="#00f" stroke-miterlimit="10" fill="none"/><path d="M72.14 39.16h22v17h-22zm0 0" fill="#fff"/><g fill="#00f"><use xlink:href="#a" x="72.141" y="49.062"/><use xlink:href="#c" x="80.124" y="49.062"/></g><use xlink:href="#d" x="88.148" y="53.944" fill="#00f"/><path d="M5.25 42.55h30v21h-30zm0 0" fill="#fff"/><use xlink:href="#e" x="5.25" y="50.801" fill="#00f"/><use xlink:href="#c" x="12.699" y="55.684" fill="#00f"/><use xlink:href="#d" x="20.724" y="60.566" fill="#00f"/><use xlink:href="#a" x="26.38" y="55.684" fill="#00f"/><path d="M44.582 135.996l-3.113-27.648M50.773 132.5l-2.488-22.12M99.855 210.922l-11.19 8.262" stroke-width="1.2" stroke="#000" stroke-miterlimit="10" fill="none"/><path d="M88.664 219.184L77.47 227.44" stroke-width="1.2" stroke="#f00" stroke-miterlimit="10" fill="none"/><path d="M103.742 216.19l-11.19 8.26" stroke-width="1.2" stroke="#000" stroke-miterlimit="10" fill="none"/><path d="M92.55 224.45l-11.195 8.26" stroke-width="1.2" stroke="#f00" stroke-miterlimit="10" fill="none"/><path d="M70.41 223.574h9v13h-9zm0 0" fill="#fff"/><use xlink:href="#b" x="70.41" y="233.476" fill="#f00"/></g></svg>