<svg xmlns="http://www.w3.org/2000/svg" xmlns:xlink="http://www.w3.org/1999/xlink" width="300pt" height="300pt" viewBox="0 0 300 300"><defs><symbol overflow="visible"><path d="M.453 1.594v-7.938h4.5v7.938zm.5-.5h3.5v-6.938h-3.5zm0 0"/></symbol><symbol overflow="visible" id="a"><path d="M4.813-6.344v.86c-.336-.157-.653-.27-.954-.344-.294-.082-.58-.125-.86-.125-.492 0-.867.094-1.125.28-.262.19-.39.454-.39.798 0 .293.085.512.265.656.176.15.504.267.984.36l.547.11c.658.125 1.142.352 1.454.672.32.312.485.734.485 1.265 0 .637-.216 1.122-.642 1.454-.43.325-1.055.485-1.875.485-.312 0-.648-.04-1-.11C1.36-.046 1-.147.625-.296v-.906c.352.2.703.35 1.047.453.35.105.695.156 1.03.156.5 0 .884-.097 1.157-.297.28-.196.42-.485.42-.86 0-.32-.1-.57-.296-.75-.2-.176-.523-.313-.968-.406l-.547-.11C1.81-3.148 1.33-3.36 1.03-3.64.74-3.923.595-4.313.595-4.813c0-.57.203-1.024.61-1.36.405-.344.968-.516 1.687-.516.313 0 .626.032.938.094.32.055.65.137.985.25zm0 0"/></symbol><symbol overflow="visible" id="b"><path d="M3.547-5.953c-.65 0-1.164.242-1.547.72-.375.48-.563 1.13-.563 1.952 0 .835.188 1.49.563 1.967.383.48.898.72 1.547.72.644 0 1.156-.24 1.53-.72.376-.476.564-1.132.564-1.968 0-.822-.187-1.474-.562-1.954-.375-.477-.887-.72-1.53-.72zm0-.734c.914 0 1.648.312 2.203.937.55.617.828 1.438.828 2.47 0 1.042-.277 1.87-.828 2.483-.555.617-1.29.922-2.203.922-.93 0-1.668-.305-2.22-.922C.774-1.41.5-2.237.5-3.28c0-1.033.273-1.853.828-2.47.55-.625 1.29-.938 2.22-.938zm0 0"/></symbol><symbol overflow="visible" id="c"><path d="M1.766-3.14v2.406h1.421c.477 0 .833-.098 1.063-.297.227-.197.344-.5.344-.907 0-.407-.117-.708-.344-.907-.23-.195-.586-.297-1.063-.297zm0-2.688v1.97h1.312c.438 0 .758-.08.97-.236.218-.164.327-.414.327-.75 0-.332-.11-.578-.328-.734-.21-.164-.53-.25-.97-.25zM.89-6.562h2.266c.676 0 1.196.14 1.563.42.362.283.546.685.546 1.205 0 .398-.094.714-.282.953-.187.242-.464.39-.828.453.438.092.774.292 1.016.592.238.293.36.657.36 1.094 0 .594-.2 1.055-.595 1.375-.398.314-.964.47-1.703.47H.89zm0 0"/></symbol><symbol overflow="visible" id="d"><path d="M3.703-4.172c-.094-.05-.195-.086-.297-.11-.105-.02-.226-.03-.36-.03-.46 0-.812.152-1.062.453-.242.294-.36.715-.36 1.266V0H.813v-4.922h.813v.766c.176-.3.398-.524.672-.672.27-.145.598-.22.984-.22.064 0 .126.01.19.017.07.01.147.022.233.03zm0 0"/></symbol><symbol overflow="visible" id="e"><path d="M.89-6.563H2.08l2.906 5.485v-5.484h.86V0H4.656L1.75-5.484V0H.89zm0 0"/></symbol><symbol overflow="visible" id="f"><path d="M.89-6.563h.876v2.688H5v-2.688h.89V0H5v-3.125H1.766V0H.89zm0 0"/></symbol><symbol overflow="visible"><path d="M.406 1.422V-5.64h4V1.42zM.844.97h3.11v-6.157H.843zm0 0"/></symbol><symbol overflow="visible" id="g"><path d="M3.688-5.016v2.172h2.17v.672H3.69V0H3.03v-2.172H.845v-.672H3.03v-2.172zm0 0"/></symbol></defs><g><path fill="#fff" d="M0 0h300v300H0z"/><path d="M178.313 160.402l-2.227-8.386" stroke-width="1.2" stroke="#cc0" stroke-miterlimit="10" fill="none"/><path d="M176.086 152.016l-2.23-8.39" stroke-width="1.2" stroke="#f00" stroke-miterlimit="10" fill="none"/><path d="M174.367 161.453l-2.23-8.39" stroke-width="1.2" stroke="#cc0" stroke-miterlimit="10" fill="none"/><path d="M172.137 153.063l-2.227-8.387" stroke-width="1.2" stroke="#f00" stroke-miterlimit="10" fill="none"/><path d="M174.367 161.453l2.227 8.387" stroke-width="1.2" stroke="#cc0" stroke-miterlimit="10" fill="none"/><path d="M176.594 169.84l2.226 8.387" stroke-width="1.2" stroke="#f00" stroke-miterlimit="10" fill="none"/><path d="M178.313 160.402l2.226 8.387" stroke-width="1.2" stroke="#cc0" stroke-miterlimit="10" fill="none"/><path d="M180.54 168.79l2.23 8.39" stroke-width="1.2" stroke="#f00" stroke-miterlimit="10" fill="none"/><path d="M176.34 160.926l8.387-2.227" stroke-width="1.2" stroke="#cc0" stroke-miterlimit="10" fill="none"/><path d="M184.727 158.7l8.39-2.227" stroke-width="1.2" stroke="#000" stroke-miterlimit="10" fill="none"/><path d="M176.34 160.926l-8.39 2.23" stroke-width="1.2" stroke="#cc0" stroke-miterlimit="10" fill="none"/><path d="M167.95 163.156l-8.387 2.227" stroke-width="1.2" stroke="#00f" stroke-miterlimit="10" fill="none"/><path d="M173.34 155.426h6v11h-6zm0 0" fill="#fff"/><use xlink:href="#a" x="173.34" y="164.089" fill="#cc0"/><path d="M167.883 138.652h8v11h-8zm0 0" fill="#fff"/><use xlink:href="#b" x="167.883" y="147.315" fill="#f00"/><path d="M176.793 172.203h8v11h-8zm0 0" fill="#fff"/><use xlink:href="#b" x="176.793" y="180.866" fill="#f00"/><path d="M193.117 156.473l12.246 12.3M197.234 154.82l9.797 9.84M197.645 139.715l-4.528 16.758M205.363 168.773l16.774-4.457M222.137 164.316l4.53-16.757M218.648 161.574l3.625-13.402M226.668 147.56l16.777-4.455M226.668 147.56l-12.246-12.302M243.445 143.105l4.528-16.757M239.953 140.363l3.625-13.406M247.973 126.348l8.39-2.227" stroke-width="1.2" stroke="#000" stroke-miterlimit="10" fill="none"/><path d="M256.363 124.12l8.387-2.23" stroke-width="1.2" stroke="#7f4d1a" stroke-miterlimit="10" fill="none"/><path d="M247.973 126.348l-12.246-12.3" stroke-width="1.2" stroke="#000" stroke-miterlimit="10" fill="none"/><path d="M259.75 116.39h11v11h-11zm0 0" fill="#fff"/><g fill="#7f4d1a"><use xlink:href="#c" x="259.75" y="125.054"/><use xlink:href="#d" x="266.149" y="125.054"/></g><path d="M235.727 114.047l-16.778 4.457M235.098 118.44l-13.422 3.564M214.422 135.258l4.527-16.754M214.422 135.258l-16.777 4.457M213.793 139.652l-13.422 3.563" stroke-width="1.2" stroke="#000" stroke-miterlimit="10" fill="none"/><path d="M159.563 165.383l-6.125-6.153" stroke-width="1.2" stroke="#00f" stroke-miterlimit="10" fill="none"/><path d="M153.438 159.23l-6.122-6.148M155.035 182.14l2.262-8.378" stroke-width="1.2" stroke="#000" stroke-miterlimit="10" fill="none"/><path d="M157.297 173.762l2.266-8.38" stroke-width="1.2" stroke="#00f" stroke-miterlimit="10" fill="none"/><path d="M156.563 159.883h7v11h-7zm0 0" fill="#fff"/><use xlink:href="#e" x="156.563" y="168.546" fill="#00f"/><path d="M147.316 153.082l-16.777 4.457M130.54 157.54l-2.267 8.374" stroke-width="1.2" stroke="#000" stroke-miterlimit="10" fill="none"/><path d="M128.273 165.914l-2.26 8.38M126.012 174.293l6.12 6.152" stroke-width="1.2" stroke="#00f" stroke-miterlimit="10" fill="none"/><path d="M132.133 180.445l6.125 6.15" stroke-width="1.2" stroke="#000" stroke-miterlimit="10" fill="none"/><path d="M126.012 174.293l-8.39 2.23" stroke-width="1.2" stroke="#00f" stroke-miterlimit="10" fill="none"/><path d="M117.62 176.523l-8.386 2.227" stroke-width="1.2" stroke="#000" stroke-miterlimit="10" fill="none"/><path d="M123.012 168.793h7v11h-7zm0 0" fill="#fff"/><use xlink:href="#e" x="123.012" y="177.456" fill="#00f"/><path d="M138.258 186.594l16.777-4.453M107.262 178.22l-2.266 8.374" stroke-width="1.2" stroke="#000" stroke-miterlimit="10" fill="none"/><path d="M104.996 186.594l-2.262 8.38" stroke-width="1.2" stroke="#f00" stroke-miterlimit="10" fill="none"/><path d="M111.207 179.28l-2.266 8.38" stroke-width="1.2" stroke="#000" stroke-miterlimit="10" fill="none"/><path d="M108.94 187.66l-2.264 8.38" stroke-width="1.2" stroke="#f00" stroke-miterlimit="10" fill="none"/><path d="M109.234 178.75l-12.246-12.3" stroke-width="1.2" stroke="#000" stroke-miterlimit="10" fill="none"/><path d="M100.703 190.008h8v11h-8zm0 0" fill="#fff"/><use xlink:href="#b" x="100.703" y="198.671" fill="#f00"/><path d="M96.988 166.45l4.528-16.76M93.496 163.707L97.12 150.3M80.21 170.906l16.778-4.457M101.516 149.69l-12.246-12.3M89.27 137.39l-16.778 4.458M88.64 141.785l-13.42 3.563M72.492 141.848l-4.527 16.757M72.492 141.848l-12.246-12.3M67.965 158.605l12.246 12.3M72.082 156.953l9.797 9.84M60.246 129.547l-8.574 1.34" stroke-width="1.2" stroke="#000" stroke-miterlimit="10" fill="none"/><path d="M51.672 130.887l-8.574 1.336" stroke-width="1.2" stroke="#00f" stroke-miterlimit="10" fill="none"/><path d="M57.902 125.777l-6.86 1.075" stroke-width="1.2" stroke="#000" stroke-miterlimit="10" fill="none"/><path d="M51.043 126.852l-6.863 1.07M63 112.406l-1.38 8.57" stroke-width="1.2" stroke="#00f" stroke-miterlimit="10" fill="none"/><path d="M61.62 120.977l-1.374 8.57" stroke-width="1.2" stroke="#000" stroke-miterlimit="10" fill="none"/><path d="M43.098 132.223l-3.926-7.743" stroke-width="1.2" stroke="#00f" stroke-miterlimit="10" fill="none"/><path d="M39.172 124.48l-3.922-7.738" stroke-width="1.2" stroke="#000" stroke-miterlimit="10" fill="none"/><path d="M33.098 124.723h21v15h-21zm0 0" fill="#fff"/><g fill="#00f"><use xlink:href="#e" x="33.098" y="136.824"/><use xlink:href="#f" x="40.075" y="136.824"/></g><use xlink:href="#g" x="47.09" y="131.941" fill="#00f"/><path d="M35.25 116.742l12.3-12.25M47.55 104.492l7.723 3.957" stroke-width="1.2" stroke="#000" stroke-miterlimit="10" fill="none"/><path d="M55.273 108.45L63 112.405" stroke-width="1.2" stroke="#00f" stroke-miterlimit="10" fill="none"/><path d="M56 106.906h14v11H56zm0 0" fill="#fff"/><g fill="#00f"><use xlink:href="#e" x="56" y="115.569"/><use xlink:href="#f" x="62.978" y="115.569"/></g></g></svg>