<svg xmlns="http://www.w3.org/2000/svg" xmlns:xlink="http://www.w3.org/1999/xlink" width="300pt" height="300pt" viewBox="0 0 300 300"><defs><symbol overflow="visible"><path d="M.453 1.594v-7.938h4.5v7.938zm.5-.5h3.5v-6.938h-3.5zm0 0"/></symbol><symbol overflow="visible" id="a"><path d="M4.813-6.344v.86c-.336-.157-.653-.27-.954-.344-.294-.082-.58-.125-.86-.125-.492 0-.867.094-1.125.28-.262.19-.39.454-.39.798 0 .293.085.512.265.656.176.15.504.267.984.36l.547.11c.658.125 1.142.352 1.454.672.32.312.485.734.485 1.265 0 .637-.216 1.122-.642 1.454-.43.325-1.055.485-1.875.485-.312 0-.648-.04-1-.11C1.36-.046 1-.147.625-.296v-.906c.352.2.703.35 1.047.453.35.105.695.156 1.03.156.5 0 .884-.097 1.157-.297.28-.196.42-.485.42-.86 0-.32-.1-.57-.296-.75-.2-.176-.523-.313-.968-.406l-.547-.11C1.81-3.148 1.33-3.36 1.03-3.64.74-3.923.595-4.313.595-4.813c0-.57.203-1.024.61-1.36.405-.344.968-.516 1.687-.516.313 0 .626.032.938.094.32.055.65.137.985.25zm0 0"/></symbol><symbol overflow="visible" id="b"><path d="M3.547-5.953c-.65 0-1.164.242-1.547.72-.375.48-.563 1.13-.563 1.952 0 .835.188 1.49.563 1.967.383.48.898.72 1.547.72.644 0 1.156-.24 1.53-.72.376-.476.564-1.132.564-1.968 0-.822-.187-1.474-.562-1.954-.375-.477-.887-.72-1.53-.72zm0-.734c.914 0 1.648.312 2.203.937.55.617.828 1.438.828 2.47 0 1.042-.277 1.87-.828 2.483-.555.617-1.29.922-2.203.922-.93 0-1.668-.305-2.22-.922C.774-1.41.5-2.237.5-3.28c0-1.033.273-1.853.828-2.47.55-.625 1.29-.938 2.22-.938zm0 0"/></symbol><symbol overflow="visible" id="c"><path d="M.89-6.563h.876v2.688H5v-2.688h.89V0H5v-3.125H1.766V0H.89zm0 0"/></symbol><symbol overflow="visible" id="d"><path d="M.89-6.563H2.08l2.906 5.485v-5.484h.86V0H4.656L1.75-5.484V0H.89zm0 0"/></symbol><symbol overflow="visible" id="e"><path d="M.89-6.563h3.766v.75h-2.89v1.938h2.61v.734h-2.61V0H.89zm0 0"/></symbol></defs><g><path fill="#fff" d="M0 0h300v300H0z"/><path d="M248.797 173.637l-3.988 10.93" stroke-width="1.2" stroke="#cc0" stroke-miterlimit="10" fill="none"/><path d="M244.81 184.566l-3.99 10.926" stroke-width="1.2" stroke="#000" stroke-miterlimit="10" fill="none"/><path d="M248.797 173.637l-7.47-8.918" stroke-width="1.2" stroke="#cc0" stroke-miterlimit="10" fill="none"/><path d="M241.328 164.72l-7.47-8.92" stroke-width="1.2" stroke="#000" stroke-miterlimit="10" fill="none"/><path d="M245.797 168.137h6v11h-6zm0 0" fill="#fff"/><use xlink:href="#a" x="245.797" y="176.8" fill="#cc0"/><path d="M233.86 155.8l-22.92 4.02M230.62 150.813l-18.33 3.214M241.836 133.945L233.86 155.8M210.94 159.82l-14.936-17.836M196.004 141.984l7.976-21.855M201.94 141.676l6.384-17.485M196.004 141.984l-22.918 4.024M203.98 120.13l22.915-4.02M226.895 116.11l14.94 17.835M224.19 121.41l11.955 14.266M241.836 133.945l11.457-2.01" stroke-width="1.2" stroke="#000" stroke-miterlimit="10" fill="none"/><path d="M253.293 131.934l11.457-2.008" stroke-width="1.2" stroke="#f00" stroke-miterlimit="10" fill="none"/><path d="M257.75 124.426h15v11h-15zm0 0" fill="#fff"/><g fill="#f00"><use xlink:href="#b" x="257.75" y="133.089"/><use xlink:href="#c" x="265.092" y="133.089"/></g><path d="M173.086 146.008l-7.47-8.918" stroke-width="1.2" stroke="#000" stroke-miterlimit="10" fill="none"/><path d="M165.617 137.09l-7.47-8.918M158.148 128.172l-11.46 2.008" stroke-width="1.2" stroke="#cc0" stroke-miterlimit="10" fill="none"/><path d="M146.688 130.18l-11.458 2.01" stroke-width="1.2" stroke="#000" stroke-miterlimit="10" fill="none"/><path d="M155.148 122.672h6v11h-6zm0 0" fill="#fff"/><use xlink:href="#a" x="155.148" y="131.335" fill="#cc0"/><path d="M135.23 132.19l-5.11 10.45" stroke-width="1.2" stroke="#000" stroke-miterlimit="10" fill="none"/><path d="M130.12 142.64l-5.104 10.454M118.508 116.016l8.363 8.086" stroke-width="1.2" stroke="#00f" stroke-miterlimit="10" fill="none"/><path d="M126.87 124.102l8.36 8.09" stroke-width="1.2" stroke="#000" stroke-miterlimit="10" fill="none"/><path d="M116.375 121.566l6.688 6.473" stroke-width="1.2" stroke="#00f" stroke-miterlimit="10" fill="none"/><path d="M123.063 128.04l6.69 6.468" stroke-width="1.2" stroke="#000" stroke-miterlimit="10" fill="none"/><path d="M125.016 153.094l-11.52-1.63" stroke-width="1.2" stroke="#00f" stroke-miterlimit="10" fill="none"/><path d="M113.496 151.465l-11.52-1.63" stroke-width="1.2" stroke="#000" stroke-miterlimit="10" fill="none"/><path d="M118.016 147.594h14v11h-14zm0 0" fill="#fff"/><g fill="#00f"><use xlink:href="#d" x="118.016" y="156.257"/><use xlink:href="#c" x="124.993" y="156.257"/></g><path d="M101.977 149.836l-4.02-22.914M106.97 146.598l-3.22-18.332M101.977 149.836L85.8 166.56M97.957 126.922l10.277-5.453" stroke-width="1.2" stroke="#000" stroke-miterlimit="10" fill="none"/><path d="M108.234 121.47l10.274-5.454" stroke-width="1.2" stroke="#00f" stroke-miterlimit="10" fill="none"/><path d="M97.957 126.922l-20.902-10.22" stroke-width="1.2" stroke="#000" stroke-miterlimit="10" fill="none"/><path d="M115.508 110.516h7v11h-7zm0 0" fill="#fff"/><use xlink:href="#d" x="115.508" y="119.179" fill="#00f"/><path d="M77.055 116.703l-1.602-23.21M71.434 114.758L70.152 96.19M57.754 129.695l19.3-12.992M75.453 93.492L54.55 83.277M54.55 83.277L44.9 89.773" stroke-width="1.2" stroke="#000" stroke-miterlimit="10" fill="none"/><path d="M44.898 89.773L35.25 96.27" stroke-width="1.2" stroke="#00f" stroke-miterlimit="10" fill="none"/><path d="M55.676 89.117l-7.72 5.195" stroke-width="1.2" stroke="#000" stroke-miterlimit="10" fill="none"/><path d="M47.957 94.313l-7.72 5.2M35.25 96.27l.8 11.605" stroke-width="1.2" stroke="#00f" stroke-miterlimit="10" fill="none"/><path d="M36.05 107.875l.802 11.605" stroke-width="1.2" stroke="#000" stroke-miterlimit="10" fill="none"/><path d="M32.25 90.77h7v11h-7zm0 0" fill="#fff"/><use xlink:href="#d" x="32.25" y="99.433" fill="#00f"/><path d="M36.852 119.48l20.902 10.215M41.348 115.582l16.722 8.176M85.8 166.56l-22.57-5.65M82.215 171.305l-18.055-4.52M92.195 188.93L85.8 166.56M63.23 160.91l-16.175 16.723M47.055 177.633l6.394 22.37M52.957 178.363l5.117 17.9M53.45 200.004l-8.09 8.36" stroke-width="1.2" stroke="#000" stroke-miterlimit="10" fill="none"/><path d="M45.36 208.363l-8.087 8.36" stroke-width="1.2" stroke="#3cc" stroke-miterlimit="10" fill="none"/><path d="M53.45 200.004l22.57 5.644" stroke-width="1.2" stroke="#000" stroke-miterlimit="10" fill="none"/><path d="M31.273 211.223h6v11h-6zm0 0" fill="#fff"/><use xlink:href="#e" x="31.273" y="219.886" fill="#3cc"/><path d="M76.02 205.648l16.175-16.718M73.703 200.172l12.942-13.38" stroke-width="1.2" stroke="#000" stroke-miterlimit="10" fill="none"/></g></svg>