<svg xmlns="http://www.w3.org/2000/svg" xmlns:xlink="http://www.w3.org/1999/xlink" width="300pt" height="300pt" viewBox="0 0 300 300"><defs><symbol overflow="visible"><path d="M.453 1.594v-7.938h4.5v7.938zm.5-.5h3.5v-6.938h-3.5zm0 0"/></symbol><symbol overflow="visible" id="a"><path d="M3.547-5.953c-.65 0-1.164.242-1.547.72-.375.48-.563 1.13-.563 1.952 0 .835.188 1.49.563 1.967.383.48.898.72 1.547.72.644 0 1.156-.24 1.53-.72.376-.476.564-1.132.564-1.968 0-.822-.187-1.474-.562-1.954-.375-.477-.887-.72-1.53-.72zm0-.734c.914 0 1.648.312 2.203.937.55.617.828 1.438.828 2.47 0 1.042-.277 1.87-.828 2.483-.555.617-1.29.922-2.203.922-.93 0-1.668-.305-2.22-.922C.774-1.41.5-2.237.5-3.28c0-1.033.273-1.853.828-2.47.55-.625 1.29-.938 2.22-.938zm0 0"/></symbol><symbol overflow="visible" id="b"><path d="M.89-6.563H2.08l2.906 5.485v-5.484h.86V0H4.656L1.75-5.484V0H.89zm0 0"/></symbol><symbol overflow="visible" id="c"><path d="M.89-6.563h.876v2.688H5v-2.688h.89V0H5v-3.125H1.766V0H.89zm0 0"/></symbol></defs><g><path fill="#fff" d="M0 0h300v300H0z"/><path d="M87.12 145.074l-3.116-8.53" stroke-width="1.2" stroke="#000" stroke-miterlimit="10" fill="none"/><path d="M84.004 136.543l-3.113-8.535" stroke-width="1.2" stroke="#f00" stroke-miterlimit="10" fill="none"/><path d="M87.12 145.074l-11.66 13.93M89.234 149.21l-9.332 11.145M105.016 148.21l-17.895-3.136" stroke-width="1.2" stroke="#000" stroke-miterlimit="10" fill="none"/><path d="M80.89 128.008l5.83-6.965" stroke-width="1.2" stroke="#f00" stroke-miterlimit="10" fill="none"/><path d="M86.72 121.043l5.83-6.965" stroke-width="1.2" stroke="#000" stroke-miterlimit="10" fill="none"/><path d="M76.89 122.508h8v11h-8zm0 0" fill="#fff"/><use xlink:href="#a" x="76.891" y="131.171" fill="#f00"/><path d="M75.46 159.004l6.23 17.066" stroke-width="1.2" stroke="#000" stroke-miterlimit="10" fill="none"/><path d="M57.305 159.66l9.078-.328" stroke-width="1.2" stroke="#f00" stroke-miterlimit="10" fill="none"/><path d="M66.383 159.332l9.078-.328M81.69 176.07l-14.303 11.2M81.69 176.07l17.896 3.133M84.22 172.172l14.315 2.508M67.387 187.27l-15.07-10.14M68.266 182.71l-12.06-8.116M52.316 177.13l-17.066 6.23M52.316 177.13l2.493-8.735" stroke-width="1.2" stroke="#000" stroke-miterlimit="10" fill="none"/><path d="M54.81 168.395l2.495-8.735" stroke-width="1.2" stroke="#f00" stroke-miterlimit="10" fill="none"/><path d="M53.305 154.16h8v11h-8zm0 0" fill="#fff"/><use xlink:href="#a" x="53.305" y="162.823" fill="#f00"/><path d="M99.586 179.203l11.664-13.93M111.25 165.273l8.945 1.57" stroke-width="1.2" stroke="#000" stroke-miterlimit="10" fill="none"/><path d="M120.195 166.844l8.95 1.566" stroke-width="1.2" stroke="#00f" stroke-miterlimit="10" fill="none"/><path d="M111.25 165.273l-6.234-17.062M106.61 165.035l-4.985-13.652" stroke-width="1.2" stroke="#000" stroke-miterlimit="10" fill="none"/><path d="M129.145 168.41l5.832-6.965" stroke-width="1.2" stroke="#00f" stroke-miterlimit="10" fill="none"/><path d="M134.977 161.445l5.832-6.965" stroke-width="1.2" stroke="#000" stroke-miterlimit="10" fill="none"/><path d="M133.59 169.762l4.664-5.575" stroke-width="1.2" stroke="#00f" stroke-miterlimit="10" fill="none"/><path d="M138.254 164.188l4.664-5.57" stroke-width="1.2" stroke="#000" stroke-miterlimit="10" fill="none"/><path d="M126.145 162.91h7v11h-7zm0 0" fill="#fff"/><use xlink:href="#b" x="126.145" y="171.573" fill="#00f"/><path d="M140.81 154.48l-3.12-8.535" stroke-width="1.2" stroke="#000" stroke-miterlimit="10" fill="none"/><path d="M137.69 145.945l-3.116-8.53" stroke-width="1.2" stroke="#00f" stroke-miterlimit="10" fill="none"/><path d="M140.81 154.48l8.944 1.567" stroke-width="1.2" stroke="#000" stroke-miterlimit="10" fill="none"/><path d="M149.754 156.047l8.95 1.566M134.574 137.414l5.832-6.965" stroke-width="1.2" stroke="#00f" stroke-miterlimit="10" fill="none"/><path d="M140.406 130.45l5.832-6.966" stroke-width="1.2" stroke="#000" stroke-miterlimit="10" fill="none"/><path d="M127.574 131.914h14v11h-14zm0 0" fill="#fff"/><g fill="#00f"><use xlink:href="#b" x="127.574" y="140.577"/><use xlink:href="#c" x="134.552" y="140.577"/></g><path d="M146.238 123.484l5.828-6.964" stroke-width="1.2" stroke="#000" stroke-miterlimit="10" fill="none"/><path d="M152.066 116.52l5.832-6.965" stroke-width="1.2" stroke="#00f" stroke-miterlimit="10" fill="none"/><path d="M150.68 124.836l4.668-5.574" stroke-width="1.2" stroke="#000" stroke-miterlimit="10" fill="none"/><path d="M155.348 119.262l4.664-5.57" stroke-width="1.2" stroke="#00f" stroke-miterlimit="10" fill="none"/><path d="M144.125 119.348l4.664-5.57" stroke-width="1.2" stroke="#000" stroke-miterlimit="10" fill="none"/><path d="M148.79 113.777l4.667-5.574" stroke-width="1.2" stroke="#00f" stroke-miterlimit="10" fill="none"/><path d="M154.898 104.055h7v11h-7zm0 0" fill="#fff"/><use xlink:href="#b" x="154.898" y="112.718" fill="#00f"/><path d="M170.363 143.684l-14.12 11.87 4.917 4.118zm0 0"/><path d="M151.703 152.113h14v11h-14zm0 0" fill="#fff"/><g fill="#00f"><use xlink:href="#b" x="151.703" y="160.776"/><use xlink:href="#c" x="158.681" y="160.776"/></g><path d="M170.363 143.684l-7.488-16.55M187.977 148.148l-17.614-4.464M162.875 127.133l8.27-16.176M171.145 110.957l17.804-3.62M188.95 107.336L202.88 119M202.88 119l-.22 9.082" stroke-width="1.2" stroke="#000" stroke-miterlimit="10" fill="none"/><path d="M202.66 128.082l-.215 9.082M202.445 137.164l8.086 4.133" stroke-width="1.2" stroke="#00f" stroke-miterlimit="10" fill="none"/><path d="M210.53 141.297l8.09 4.137" stroke-width="1.2" stroke="#000" stroke-miterlimit="10" fill="none"/><path d="M202.445 137.164l-7.234 5.492" stroke-width="1.2" stroke="#00f" stroke-miterlimit="10" fill="none"/><path d="M195.21 142.656l-7.233 5.492" stroke-width="1.2" stroke="#000" stroke-miterlimit="10" fill="none"/><path d="M199.445 131.664h7v11h-7zm0 0" fill="#fff"/><use xlink:href="#b" x="199.445" y="140.327" fill="#00f"/><path d="M218.62 145.434l.927 18.144M218.387 161.78l-7.625 4.94" stroke-width="1.2" stroke="#000" stroke-miterlimit="10" fill="none"/><path d="M210.762 166.72l-7.63 4.936" stroke-width="1.2" stroke="#f00" stroke-miterlimit="10" fill="none"/><path d="M220.707 165.37l-7.625 4.94" stroke-width="1.2" stroke="#000" stroke-miterlimit="10" fill="none"/><path d="M213.082 170.31l-7.625 4.936" stroke-width="1.2" stroke="#f00" stroke-miterlimit="10" fill="none"/><path d="M219.547 163.578l8.086 4.133" stroke-width="1.2" stroke="#000" stroke-miterlimit="10" fill="none"/><path d="M227.633 167.71l8.09 4.138" stroke-width="1.2" stroke="#00f" stroke-miterlimit="10" fill="none"/><path d="M196.297 167.95h8v11h-8zm0 0" fill="#fff"/><use xlink:href="#a" x="196.297" y="176.612" fill="#f00"/><path d="M235.723 171.848l8.097-4.114" stroke-width="1.2" stroke="#00f" stroke-miterlimit="10" fill="none"/><path d="M243.82 167.734l8.102-4.113M238.54 189.797l-1.407-8.977" stroke-width="1.2" stroke="#000" stroke-miterlimit="10" fill="none"/><path d="M237.133 180.82l-1.41-8.972" stroke-width="1.2" stroke="#00f" stroke-miterlimit="10" fill="none"/><path d="M232.723 166.348h7v11h-7zm0 0" fill="#fff"/><use xlink:href="#b" x="232.723" y="175.011" fill="#00f"/><path d="M251.922 163.62l12.828 12.868M264.75 176.488l-8.27 16.176M256.48 192.664l-17.94-2.867M185.88 148.574l1.81 8.903" stroke-width="1.2" stroke="#000" stroke-miterlimit="10" fill="none"/><path d="M187.69 157.477l1.81 8.902" stroke-width="1.2" stroke="#f00" stroke-miterlimit="10" fill="none"/><path d="M190.07 147.723l1.81 8.902" stroke-width="1.2" stroke="#000" stroke-miterlimit="10" fill="none"/><path d="M191.88 156.625l1.808 8.902" stroke-width="1.2" stroke="#f00" stroke-miterlimit="10" fill="none"/><path d="M187.594 160.453h8v11h-8zm0 0" fill="#fff"/><use xlink:href="#a" x="187.594" y="169.116" fill="#f00"/></g></svg>