<svg xmlns="http://www.w3.org/2000/svg" xmlns:xlink="http://www.w3.org/1999/xlink" width="300pt" height="300pt" viewBox="0 0 300 300"><defs><symbol overflow="visible"><path d="M.453 1.594v-7.938h4.5v7.938zm.5-.5h3.5v-6.938h-3.5zm0 0"/></symbol><symbol overflow="visible" id="a"><path d="M4.813-6.344v.86c-.336-.157-.653-.27-.954-.344-.294-.082-.58-.125-.86-.125-.492 0-.867.094-1.125.28-.262.19-.39.454-.39.798 0 .293.085.512.265.656.176.15.504.267.984.36l.547.11c.658.125 1.142.352 1.454.672.32.312.485.734.485 1.265 0 .637-.216 1.122-.642 1.454-.43.325-1.055.485-1.875.485-.312 0-.648-.04-1-.11C1.36-.046 1-.147.625-.296v-.906c.352.2.703.35 1.047.453.35.105.695.156 1.03.156.5 0 .884-.097 1.157-.297.28-.196.42-.485.42-.86 0-.32-.1-.57-.296-.75-.2-.176-.523-.313-.968-.406l-.547-.11C1.81-3.148 1.33-3.36 1.03-3.64.74-3.923.595-4.313.595-4.813c0-.57.203-1.024.61-1.36.405-.344.968-.516 1.687-.516.313 0 .626.032.938.094.32.055.65.137.985.25zm0 0"/></symbol><symbol overflow="visible" id="b"><path d="M.89-6.563H2.08l2.906 5.485v-5.484h.86V0H4.656L1.75-5.484V0H.89zm0 0"/></symbol><symbol overflow="visible" id="c"><path d="M.89-6.563h.876v2.688H5v-2.688h.89V0H5v-3.125H1.766V0H.89zm0 0"/></symbol><symbol overflow="visible" id="f"><path d="M3.547-5.953c-.65 0-1.164.242-1.547.72-.375.48-.563 1.13-.563 1.952 0 .835.188 1.49.563 1.967.383.48.898.72 1.547.72.644 0 1.156-.24 1.53-.72.376-.476.564-1.132.564-1.968 0-.822-.187-1.474-.562-1.954-.375-.477-.887-.72-1.53-.72zm0-.734c.914 0 1.648.312 2.203.937.55.617.828 1.438.828 2.47 0 1.042-.277 1.87-.828 2.483-.555.617-1.29.922-2.203.922-.93 0-1.668-.305-2.22-.922C.774-1.41.5-2.237.5-3.28c0-1.033.273-1.853.828-2.47.55-.625 1.29-.938 2.22-.938zm0 0"/></symbol><symbol overflow="visible"><path d="M.406 1.422V-5.64h4V1.42zM.844.97h3.11v-6.157H.843zm0 0"/></symbol><symbol overflow="visible" id="d"><path d="M3.25-3.14c.375.074.664.242.875.5.22.25.328.562.328.937 0 .586-.2 1.03-.594 1.344-.4.313-.962.47-1.688.47-.25 0-.508-.028-.766-.08C1.156-.007.89-.077.61-.17v-.766c.218.125.456.227.718.297.258.062.53.093.813.093.5 0 .88-.098 1.14-.297.26-.195.392-.484.392-.86 0-.343-.125-.61-.375-.796-.242-.195-.574-.297-1-.297h-.672v-.64h.703c.383 0 .68-.08.89-.235.208-.156.313-.38.313-.672 0-.3-.108-.53-.327-.687-.21-.165-.512-.25-.906-.25-.22 0-.453.026-.703.077-.242.043-.512.117-.813.22v-.705c.302-.082.583-.144.845-.187.258-.04.508-.063.75-.063.594 0 1.063.137 1.406.407.353.272.533.64.533 1.108 0 .324-.094.594-.282.813-.178.22-.436.376-.78.47zm0 0"/></symbol><symbol overflow="visible" id="e"><path d="M3.688-5.016v2.172h2.17v.672H3.69V0H3.03v-2.172H.845v-.672H3.03v-2.172zm0 0"/></symbol><symbol overflow="visible" id="g"><path d="M1.53-.672h2.767V0H.594v-.672c.29-.3.695-.71 1.22-1.234.518-.532.842-.867.967-1.016.26-.28.44-.52.533-.72.1-.194.156-.39.156-.577 0-.31-.11-.565-.33-.764-.218-.196-.5-.297-.843-.297-.25 0-.516.046-.797.14-.273.085-.563.214-.875.39v-.797c.32-.133.617-.234.89-.297.282-.062.536-.093.766-.093.603 0 1.083.152 1.44.453.362.304.546.703.546 1.203 0 .24-.047.468-.14.686-.095.22-.26.477-.485.766-.074.074-.288.293-.64.656-.344.356-.836.856-1.47 1.5zm0 0"/></symbol></defs><g><path fill="#fff" d="M0 0h300v300H0z"/><path d="M98.258 146.813l6.48-5.516" stroke-width="1.2" stroke="#cc0" stroke-miterlimit="10" fill="none"/><path d="M104.738 141.297l6.477-5.516M98.81 163.82l-.275-8.504" stroke-width="1.2" stroke="#000" stroke-miterlimit="10" fill="none"/><path d="M98.535 155.316l-.277-8.504" stroke-width="1.2" stroke="#cc0" stroke-miterlimit="10" fill="none"/><path d="M95.258 141.313h6v11h-6zm0 0" fill="#fff"/><use xlink:href="#a" x="95.258" y="149.976" fill="#cc0"/><path d="M111.215 135.78l16.7 3.255M113.648 132.18l13.364 2.597M105.68 119.695l5.535 16.086M127.914 139.035l11.168-12.84M127.914 139.035l3.938 7.54" stroke-width="1.2" stroke="#000" stroke-miterlimit="10" fill="none"/><path d="M131.852 146.574l3.933 7.543" stroke-width="1.2" stroke="#00f" stroke-miterlimit="10" fill="none"/><path d="M139.082 126.195l-5.535-16.09M134.742 125.89l-4.43-12.87M133.547 110.105L144.71 97.27M133.547 110.105l-16.703-3.25M144.71 97.27l16.704 3.25M161.414 100.52l5.582-6.418" stroke-width="1.2" stroke="#000" stroke-miterlimit="10" fill="none"/><path d="M166.996 94.102l5.582-6.422" stroke-width="1.2" stroke="#00f" stroke-miterlimit="10" fill="none"/><path d="M159.578 78.18h26v19h-26zm0 0" fill="#fff"/><g fill="#00f"><use xlink:href="#b" x="159.578" y="90.281"/><use xlink:href="#c" x="166.556" y="90.281"/></g><use xlink:href="#d" x="173.57" y="95.164" fill="#00f"/><use xlink:href="#e" x="178.521" y="85.398" fill="#00f"/><path d="M116.844 106.855l-11.164 12.84M118.75 110.766l-8.934 10.273" stroke-width="1.2" stroke="#000" stroke-miterlimit="10" fill="none"/><path d="M135.785 154.117l8.504-.273" stroke-width="1.2" stroke="#00f" stroke-miterlimit="10" fill="none"/><path d="M144.29 153.844l8.503-.274" stroke-width="1.2" stroke="#000" stroke-miterlimit="10" fill="none"/><path d="M135.785 154.117l-3.44 7.78" stroke-width="1.2" stroke="#00f" stroke-miterlimit="10" fill="none"/><path d="M132.344 161.898l-3.442 7.778" stroke-width="1.2" stroke="#000" stroke-miterlimit="10" fill="none"/><path d="M132.785 148.617h7v11h-7zm0 0" fill="#fff"/><use xlink:href="#b" x="132.785" y="157.28" fill="#00f"/><path d="M152.793 153.57l8.977 14.453M160.004 167.078l-4.016 7.5" stroke-width="1.2" stroke="#000" stroke-miterlimit="10" fill="none"/><path d="M155.988 174.578l-4.01 7.504" stroke-width="1.2" stroke="#f00" stroke-miterlimit="10" fill="none"/><path d="M163.535 168.97l-4.015 7.5" stroke-width="1.2" stroke="#000" stroke-miterlimit="10" fill="none"/><path d="M159.52 176.47l-4.016 7.5" stroke-width="1.2" stroke="#f00" stroke-miterlimit="10" fill="none"/><path d="M161.77 168.023l8.503-.273" stroke-width="1.2" stroke="#000" stroke-miterlimit="10" fill="none"/><path d="M170.273 167.75l8.5-.273" stroke-width="1.2" stroke="#00f" stroke-miterlimit="10" fill="none"/><path d="M145.738 177.523h8v11h-8zm0 0" fill="#fff"/><use xlink:href="#f" x="145.738" y="186.187" fill="#f00"/><path d="M178.773 167.477l4.49 7.226" stroke-width="1.2" stroke="#00f" stroke-miterlimit="10" fill="none"/><path d="M183.262 174.703l4.488 7.227" stroke-width="1.2" stroke="#000" stroke-miterlimit="10" fill="none"/><path d="M171.773 161.977h14v11h-14zm0 0" fill="#fff"/><g fill="#00f"><use xlink:href="#b" x="171.773" y="170.64"/><use xlink:href="#c" x="178.751" y="170.64"/></g><path d="M187.75 181.93l17.008-.547M204.758 181.383l8.976 14.453M209.055 180.72l7.183 11.56M212.785 166.383l-8.027 15M213.734 195.836l17.004-.547M230.738 195.29l8.032-15M228.012 191.902l6.422-12M238.77 180.29l17.003-.548M238.77 180.29l-8.977-14.454M255.773 179.742l4.49 7.227" stroke-width="1.2" stroke="#000" stroke-miterlimit="10" fill="none"/><path d="M260.262 186.97l4.488 7.225" stroke-width="1.2" stroke="#00f" stroke-miterlimit="10" fill="none"/><path d="M257.54 180.688l4.01-7.5" stroke-width="1.2" stroke="#000" stroke-miterlimit="10" fill="none"/><path d="M261.55 173.188l4.016-7.5" stroke-width="1.2" stroke="#00f" stroke-miterlimit="10" fill="none"/><path d="M254.008 178.797l4.015-7.5" stroke-width="1.2" stroke="#000" stroke-miterlimit="10" fill="none"/><path d="M258.023 171.297l4.016-7.5" stroke-width="1.2" stroke="#00f" stroke-miterlimit="10" fill="none"/><path d="M255.75 186.195h19v16h-19zm0 0" fill="#fff"/><g fill="#00f"><use xlink:href="#b" x="255.75" y="194.858"/><use xlink:href="#c" x="262.728" y="194.858"/></g><use xlink:href="#g" x="269.742" y="199.741" fill="#00f"/><path d="M250.8 155.242h26v19h-26zm0 0" fill="#fff"/><g fill="#00f"><use xlink:href="#b" x="250.801" y="167.344"/><use xlink:href="#c" x="257.778" y="167.344"/></g><use xlink:href="#g" x="264.793" y="172.227" fill="#00f"/><use xlink:href="#e" x="269.743" y="162.461" fill="#00f"/><path d="M229.793 165.836l-17.008.547M228.22 169.89l-13.607.438M127.375 170.973l5.516 6.48" stroke-width="1.2" stroke="#000" stroke-miterlimit="10" fill="none"/><path d="M132.89 177.453l5.516 6.477" stroke-width="1.2" stroke="#f00" stroke-miterlimit="10" fill="none"/><path d="M130.426 168.38l5.515 6.475" stroke-width="1.2" stroke="#000" stroke-miterlimit="10" fill="none"/><path d="M135.94 174.855l5.517 6.477" stroke-width="1.2" stroke="#f00" stroke-miterlimit="10" fill="none"/><path d="M128.902 169.676l-16.457 4.316" stroke-width="1.2" stroke="#000" stroke-miterlimit="10" fill="none"/><path d="M135.93 177.133h8v11h-8zm0 0" fill="#fff"/><use xlink:href="#f" x="135.93" y="185.796" fill="#f00"/><path d="M112.445 173.992m-1.078 2.8l1.024.2m-2.097 2.602l2.047.398m-3.125 2.403l3.07.597m-4.148 2.203l4.097.797m-5.17 2.004l5.116.996m-5.934 1.13l5.895 1.148" stroke="#000" stroke-miterlimit="10" fill="none"/><path d="M112.445 173.992L98.81 163.82" stroke-width="1.2" stroke="#000" stroke-miterlimit="10" fill="none"/><path d="M109.19 190.695l-8.042 2.766" stroke-width="1.2" stroke="#00f" stroke-miterlimit="10" fill="none"/><path d="M101.148 193.46l-8.043 2.77" stroke-width="1.2" stroke="#cc0" stroke-miterlimit="10" fill="none"/><path d="M102.19 185.195h14v11h-14zm0 0" fill="#fff"/><g fill="#00f"><use xlink:href="#b" x="102.191" y="193.858"/><use xlink:href="#c" x="109.169" y="193.858"/></g><path d="M94.996 195.578l-2.766-8.043" stroke-width="1.2" stroke="#cc0" stroke-miterlimit="10" fill="none"/><path d="M92.23 187.535l-2.77-8.047" stroke-width="1.2" stroke="#f00" stroke-miterlimit="10" fill="none"/><path d="M91.21 196.883l-2.765-8.047" stroke-width="1.2" stroke="#cc0" stroke-miterlimit="10" fill="none"/><path d="M88.445 188.836l-2.77-8.043" stroke-width="1.2" stroke="#f00" stroke-miterlimit="10" fill="none"/><path d="M91.21 196.883l2.77 8.043" stroke-width="1.2" stroke="#cc0" stroke-miterlimit="10" fill="none"/><path d="M93.98 204.926l2.766 8.043" stroke-width="1.2" stroke="#f00" stroke-miterlimit="10" fill="none"/><path d="M94.996 195.578l2.77 8.047" stroke-width="1.2" stroke="#cc0" stroke-miterlimit="10" fill="none"/><path d="M97.766 203.625l2.765 8.043" stroke-width="1.2" stroke="#f00" stroke-miterlimit="10" fill="none"/><path d="M93.105 196.23l-8.046 2.766" stroke-width="1.2" stroke="#cc0" stroke-miterlimit="10" fill="none"/><path d="M85.06 198.996l-8.044 2.77" stroke-width="1.2" stroke="#000" stroke-miterlimit="10" fill="none"/><path d="M90.105 190.73h6v11h-6zm0 0" fill="#fff"/><use xlink:href="#a" x="90.105" y="199.394" fill="#cc0"/><path d="M79.57 174.64h8v11h-8zm0 0" fill="#fff"/><use xlink:href="#f" x="79.57" y="183.304" fill="#f00"/><path d="M94.64 206.82h8v11h-8zm0 0" fill="#fff"/><use xlink:href="#f" x="94.641" y="215.483" fill="#f00"/><path d="M77.016 201.766l-12.84-11.164M64.176 190.602l3.25-16.704M60.574 188.164l2.598-13.36M48.09 196.137l16.086-5.535M67.426 173.898L54.59 162.734M54.59 162.734L38.5 168.27M54.28 167.074L41.41 171.5M38.5 168.27l-3.25 16.7M35.25 184.97l12.84 11.167M39.16 183.066l10.27 8.93" stroke-width="1.2" stroke="#000" stroke-miterlimit="10" fill="none"/></g></svg>