<svg xmlns="http://www.w3.org/2000/svg" xmlns:xlink="http://www.w3.org/1999/xlink" width="300pt" height="300pt" viewBox="0 0 300 300"><defs><symbol overflow="visible"><path d="M.547 1.938V-7.75h5.5v9.688zm.625-.61h4.266v-8.47H1.171zm0 0"/></symbol><symbol overflow="visible" id="a"><path d="M1.078-8.016h4.61v.907H2.171v2.36h3.172v.922H2.172V0H1.078zm0 0"/></symbol><symbol overflow="visible" id="b"><path d="M1.078-8.016h1.47l3.546 6.704v-6.704h1.062V0H5.688L2.124-6.703V0H1.078zm0 0"/></symbol><symbol overflow="visible" id="c"><path d="M4.328-7.28c-.78 0-1.406.296-1.875.89-.46.585-.687 1.382-.687 2.39 0 1.012.226 1.813.687 2.406.47.586 1.094.875 1.875.875.79 0 1.414-.288 1.875-.874.457-.593.688-1.394.688-2.406 0-1.008-.23-1.805-.687-2.39-.46-.594-1.086-.89-1.875-.89zm0-.892c1.125 0 2.024.383 2.703 1.14C7.708-6.28 8.048-5.27 8.048-4c0 1.262-.34 2.273-1.016 3.03C6.353-.22 5.454.157 4.33.157S2.3-.22 1.625-.97c-.668-.75-1-1.757-1-3.03 0-1.27.332-2.28 1-3.03.676-.76 1.578-1.142 2.703-1.142zm0 0"/></symbol><symbol overflow="visible" id="d"><path d="M1.078-8.016h1.094v3.282H6.11v-3.282h1.077V0H6.11v-3.813H2.17V0H1.078zm0 0"/></symbol><symbol overflow="visible"><path d="M.453 1.594v-7.938h4.5v7.938zm.5-.5h3.5v-6.938h-3.5zm0 0"/></symbol><symbol overflow="visible" id="e"><path d="M1.734-.75h3.094V0H.656v-.75c.344-.344.8-.805 1.375-1.39.583-.594.954-.973 1.11-1.14.282-.322.473-.595.58-.814.112-.226.17-.445.17-.656 0-.352-.12-.64-.36-.86-.24-.218-.557-.327-.952-.327-.28 0-.578.054-.89.156-.305.093-.633.24-.985.436v-.906c.352-.133.688-.238 1-.313.313-.082.598-.125.86-.125.675 0 1.218.172 1.624.516.407.344.61.797.61 1.36 0 .273-.055.53-.156.78-.105.243-.288.524-.546.845-.074.085-.31.328-.703.734-.398.406-.95.976-1.656 1.703zm0 0"/></symbol></defs><g><path fill="#fff" d="M0 0h300v300H0z"/><path d="M264.75 207.422l-11.066-7.336" stroke-width="1.2" stroke="#3cc" stroke-miterlimit="10" fill="none"/><path d="M253.684 200.086l-11.067-7.332" stroke-width="1.2" stroke="#000" stroke-miterlimit="10" fill="none"/><path d="M261.75 200.922h7v13h-7zm0 0" fill="#fff"/><use xlink:href="#a" x="261.75" y="210.823" fill="#3cc"/><path d="M242.617 192.754l-23.765 11.836M237.457 188.348l-19.016 9.468M244.25 166.254l-1.633 26.5M218.852 204.59l-22.133-14.664M196.72 189.926l-23.77 11.836M196.72 189.926l1.632-26.5M203.117 187.66l1.305-21.2M198.352 163.426l23.765-11.836M198.352 163.426l-22.133-14.664M222.117 151.59l22.133 14.664M220.88 158.266l17.706 11.73M176.22 148.762l-11.888 5.914" stroke-width="1.2" stroke="#000" stroke-miterlimit="10" fill="none"/><path d="M164.332 154.676l-11.883 5.918" stroke-width="1.2" stroke="#00f" stroke-miterlimit="10" fill="none"/><path d="M171.055 144.352l-9.504 4.734" stroke-width="1.2" stroke="#000" stroke-miterlimit="10" fill="none"/><path d="M161.55 149.086l-9.507 4.734M177.852 122.258l-.817 13.25" stroke-width="1.2" stroke="#00f" stroke-miterlimit="10" fill="none"/><path d="M177.035 135.508l-.816 13.254" stroke-width="1.2" stroke="#000" stroke-miterlimit="10" fill="none"/><path d="M152.45 160.594l-11.067-7.332" stroke-width="1.2" stroke="#00f" stroke-miterlimit="10" fill="none"/><path d="M141.383 153.262l-11.067-7.332" stroke-width="1.2" stroke="#000" stroke-miterlimit="10" fill="none"/><path d="M148.45 154.094h8v13h-8zm0 0" fill="#fff"/><use xlink:href="#b" x="148.449" y="163.995" fill="#00f"/><path d="M130.316 145.93l-11.882 5.918" stroke-width="1.2" stroke="#000" stroke-miterlimit="10" fill="none"/><path d="M118.434 151.848l-11.883 5.918" stroke-width="1.2" stroke="#00f" stroke-miterlimit="10" fill="none"/><path d="M130.316 145.93l1.633-26.5M136.715 143.664l1.308-21.2" stroke-width="1.2" stroke="#000" stroke-miterlimit="10" fill="none"/><path d="M106.55 157.766l-11.066-7.332" stroke-width="1.2" stroke="#00f" stroke-miterlimit="10" fill="none"/><path d="M95.484 150.434l-11.066-7.332" stroke-width="1.2" stroke="#000" stroke-miterlimit="10" fill="none"/><path d="M106.55 157.766l-.816 13.25" stroke-width="1.2" stroke="#00f" stroke-miterlimit="10" fill="none"/><path d="M105.734 171.016l-.816 13.25" stroke-width="1.2" stroke="#000" stroke-miterlimit="10" fill="none"/><path d="M102.55 151.266h8v13h-8zm0 0" fill="#fff"/><use xlink:href="#b" x="102.551" y="161.167" fill="#00f"/><path d="M87.535 143.293l.817-13.25" stroke-width="1.2" stroke="#000" stroke-miterlimit="10" fill="none"/><path d="M88.352 130.043l.816-13.25" stroke-width="1.2" stroke="#f00" stroke-miterlimit="10" fill="none"/><path d="M81.3 142.91l.817-13.25" stroke-width="1.2" stroke="#000" stroke-miterlimit="10" fill="none"/><path d="M82.117 129.66l.817-13.254" stroke-width="1.2" stroke="#f00" stroke-miterlimit="10" fill="none"/><path d="M84.418 143.102l-11.883 5.918" stroke-width="1.2" stroke="#000" stroke-miterlimit="10" fill="none"/><path d="M72.535 149.02l-11.883 5.917" stroke-width="1.2" stroke="#00f" stroke-miterlimit="10" fill="none"/><path d="M82.05 110.102h9v13h-9zm0 0" fill="#fff"/><use xlink:href="#c" x="82.051" y="120.003" fill="#f00"/><path d="M38.652 146.438h22v17h-22zm0 0" fill="#fff"/><use xlink:href="#d" x="38.652" y="156.339" fill="#00f"/><use xlink:href="#e" x="46.677" y="161.222" fill="#00f"/><use xlink:href="#b" x="52.333" y="156.339" fill="#00f"/><path d="M104.918 184.266l22.133 14.664M103.68 190.94l17.707 11.732M81.148 196.102l23.77-11.836M127.05 198.93l-1.632 26.5M125.418 225.43l-23.77 11.836M120.254 221.023l-19.012 9.47M101.648 237.266l-22.132-14.664M79.516 222.602l1.632-26.5M85.914 220.336l1.31-21.2M81.148 196.102l-11.066-7.332" stroke-width="1.2" stroke="#000" stroke-miterlimit="10" fill="none"/><path d="M70.082 188.77l-11.066-7.333M59.016 181.438l-11.883 5.917" stroke-width="1.2" stroke="#f00" stroke-miterlimit="10" fill="none"/><path d="M47.133 187.355l-11.883 5.918" stroke-width="1.2" stroke="#000" stroke-miterlimit="10" fill="none"/><path d="M55.016 174.938h9v13h-9zm0 0" fill="#fff"/><use xlink:href="#c" x="55.016" y="184.839" fill="#f00"/><path d="M131.95 119.43l-9.298-9.473" stroke-width="1.2" stroke="#000" stroke-miterlimit="10" fill="none"/><path d="M122.652 109.957l-9.3-9.473" stroke-width="1.2" stroke="#00f" stroke-miterlimit="10" fill="none"/><path d="M155.72 107.594l-23.77 11.836" stroke-width="1.2" stroke="#000" stroke-miterlimit="10" fill="none"/><path d="M113.352 100.484l6.132-11.773" stroke-width="1.2" stroke="#00f" stroke-miterlimit="10" fill="none"/><path d="M119.484 88.71l6.137-11.772" stroke-width="1.2" stroke="#000" stroke-miterlimit="10" fill="none"/><path d="M120.117 101.016l4.91-9.418" stroke-width="1.2" stroke="#00f" stroke-miterlimit="10" fill="none"/><path d="M125.027 91.598l4.907-9.418" stroke-width="1.2" stroke="#000" stroke-miterlimit="10" fill="none"/><path d="M109.352 93.984h8v13h-8zm0 0" fill="#fff"/><use xlink:href="#b" x="109.352" y="103.886" fill="#00f"/><path d="M125.62 76.938l13.095 2.2" stroke-width="1.2" stroke="#000" stroke-miterlimit="10" fill="none"/><path d="M138.715 79.137l13.09 2.195M151.805 81.332l1.957 13.133" stroke-width="1.2" stroke="#00f" stroke-miterlimit="10" fill="none"/><path d="M153.762 94.465l1.957 13.13" stroke-width="1.2" stroke="#000" stroke-miterlimit="10" fill="none"/><path d="M151.805 81.332l9.472-9.297" stroke-width="1.2" stroke="#00f" stroke-miterlimit="10" fill="none"/><path d="M161.277 72.035l9.477-9.3" stroke-width="1.2" stroke="#000" stroke-miterlimit="10" fill="none"/><path d="M147.805 74.832h8v13h-8zm0 0" fill="#fff"/><use xlink:href="#b" x="147.805" y="84.733" fill="#00f"/><path d="M155.72 107.594l11.065 7.332" stroke-width="1.2" stroke="#000" stroke-miterlimit="10" fill="none"/><path d="M166.785 114.926l11.067 7.332" stroke-width="1.2" stroke="#00f" stroke-miterlimit="10" fill="none"/><path d="M154.48 114.27l8.852 5.867" stroke-width="1.2" stroke="#000" stroke-miterlimit="10" fill="none"/><path d="M163.332 120.137l8.856 5.863" stroke-width="1.2" stroke="#00f" stroke-miterlimit="10" fill="none"/><path d="M173.852 115.758h8v13h-8zm0 0" fill="#fff"/><use xlink:href="#b" x="173.852" y="125.659" fill="#00f"/></g></svg>