<svg xmlns="http://www.w3.org/2000/svg" xmlns:xlink="http://www.w3.org/1999/xlink" width="300pt" height="300pt" viewBox="0 0 300 300"><defs><symbol overflow="visible"><path d="M.453 1.594v-7.938h4.5v7.938zm.5-.5h3.5v-6.938h-3.5zm0 0"/></symbol><symbol overflow="visible" id="a"><path d="M5.797-6.063v.938c-.305-.27-.625-.473-.97-.61-.335-.144-.686-.218-1.06-.218-.75 0-1.33.23-1.736.687-.397.46-.592 1.12-.592 1.985 0 .866.195 1.526.593 1.983.408.46.986.688 1.736.688.375 0 .726-.066 1.062-.203.344-.132.664-.343.97-.625V-.5c-.314.21-.642.367-.986.47-.343.1-.714.155-1.11.155-.99 0-1.772-.3-2.343-.906C.784-1.396.5-2.228.5-3.28c0-1.052.285-1.88.86-2.486.57-.613 1.35-.92 2.343-.92.395-.002.766.053 1.11.155.35.104.68.26.984.468zm0 0"/></symbol><symbol overflow="visible" id="b"><path d="M.844-6.844h.812V0H.844zm0 0"/></symbol><symbol overflow="visible" id="c"><path d="M.89-6.563h3.766v.75h-2.89v1.938h2.61v.734h-2.61V0H.89zm0 0"/></symbol><symbol overflow="visible" id="d"><path d="M.89-6.563H2.08l2.906 5.485v-5.484h.86V0H4.656L1.75-5.484V0H.89zm0 0"/></symbol><symbol overflow="visible" id="e"><path d="M.89-6.563h.876v2.688H5v-2.688h.89V0H5v-3.125H1.766V0H.89zm0 0"/></symbol><symbol overflow="visible" id="f"><path d="M3.547-5.953c-.65 0-1.164.242-1.547.72-.375.48-.563 1.13-.563 1.952 0 .835.188 1.49.563 1.967.383.48.898.72 1.547.72.644 0 1.156-.24 1.53-.72.376-.476.564-1.132.564-1.968 0-.822-.187-1.474-.562-1.954-.375-.477-.887-.72-1.53-.72zm0-.734c.914 0 1.648.312 2.203.937.55.617.828 1.438.828 2.47 0 1.042-.277 1.87-.828 2.483-.555.617-1.29.922-2.203.922-.93 0-1.668-.305-2.22-.922C.774-1.41.5-2.237.5-3.28c0-1.033.273-1.853.828-2.47.55-.625 1.29-.938 2.22-.938zm0 0"/></symbol></defs><g><path fill="#fff" d="M0 0h300v300H0z"/><path d="M220.094 202.063l-10.473-3.95" stroke-width="1.2" stroke="#0c0" stroke-miterlimit="10" fill="none"/><path d="M209.62 198.113l-10.468-3.945" stroke-width="1.2" stroke="#000" stroke-miterlimit="10" fill="none"/><path d="M215.094 196.563h10v11h-10zm0 0" fill="#fff"/><g fill="#0c0"><use xlink:href="#a" x="215.094" y="205.226"/><use xlink:href="#b" x="221.607" y="205.226"/></g><path d="M199.152 194.168l-17.308 14.187M194.082 191.512l-13.848 11.35M195.516 172.082l3.636 22.086M181.844 208.355l-20.942-7.894M160.902 200.46l-8.656 7.095" stroke-width="1.2" stroke="#000" stroke-miterlimit="10" fill="none"/><path d="M152.246 207.555l-8.652 7.093" stroke-width="1.2" stroke="#3cc" stroke-miterlimit="10" fill="none"/><path d="M160.902 200.46l-3.636-22.08M165.734 197.398l-2.906-17.668" stroke-width="1.2" stroke="#000" stroke-miterlimit="10" fill="none"/><path d="M137.594 209.148h6v11h-6zm0 0" fill="#fff"/><use xlink:href="#c" x="137.594" y="217.812" fill="#3cc"/><path d="M157.266 178.38l-10.47-3.95" stroke-width="1.2" stroke="#000" stroke-miterlimit="10" fill="none"/><path d="M146.797 174.43l-10.473-3.95" stroke-width="1.2" stroke="#00f" stroke-miterlimit="10" fill="none"/><path d="M157.266 178.38l17.308-14.192" stroke-width="1.2" stroke="#000" stroke-miterlimit="10" fill="none"/><path d="M136.324 170.48l-1.816-11.04" stroke-width="1.2" stroke="#00f" stroke-miterlimit="10" fill="none"/><path d="M134.508 159.44L132.69 148.4" stroke-width="1.2" stroke="#000" stroke-miterlimit="10" fill="none"/><path d="M129.324 164.98h14v11h-14zm0 0" fill="#fff"/><g fill="#00f"><use xlink:href="#d" x="129.324" y="173.644"/><use xlink:href="#e" x="136.302" y="173.644"/></g><path d="M132.69 148.398l8.658-7.093" stroke-width="1.2" stroke="#000" stroke-miterlimit="10" fill="none"/><path d="M141.348 141.305L150 134.21" stroke-width="1.2" stroke="#00f" stroke-miterlimit="10" fill="none"/><path d="M131.086 142.906l6.922-5.676" stroke-width="1.2" stroke="#000" stroke-miterlimit="10" fill="none"/><path d="M138.008 137.23l6.922-5.675" stroke-width="1.2" stroke="#00f" stroke-miterlimit="10" fill="none"/><path d="M111.75 140.504l20.94 7.894" stroke-width="1.2" stroke="#000" stroke-miterlimit="10" fill="none"/><path d="M150 134.21l-1.816-11.042" stroke-width="1.2" stroke="#00f" stroke-miterlimit="10" fill="none"/><path d="M148.184 123.168l-1.817-11.043" stroke-width="1.2" stroke="#000" stroke-miterlimit="10" fill="none"/><path d="M147 128.71h7v11h-7zm0 0" fill="#fff"/><use xlink:href="#d" x="147" y="137.374" fill="#00f"/><path d="M146.367 112.125l-10.472-3.945" stroke-width="1.2" stroke="#000" stroke-miterlimit="10" fill="none"/><path d="M135.895 108.18l-10.47-3.95" stroke-width="1.2" stroke="#00f" stroke-miterlimit="10" fill="none"/><path d="M142.414 116.266l-8.375-3.16" stroke-width="1.2" stroke="#000" stroke-miterlimit="10" fill="none"/><path d="M134.04 113.105l-8.38-3.156M125.426 104.23l-8.656 7.094" stroke-width="1.2" stroke="#00f" stroke-miterlimit="10" fill="none"/><path d="M116.77 111.324l-8.653 7.098" stroke-width="1.2" stroke="#000" stroke-miterlimit="10" fill="none"/><path d="M122.426 98.73h7v11h-7zm0 0" fill="#fff"/><use xlink:href="#d" x="122.426" y="107.394" fill="#00f"/><path d="M108.117 118.422l3.633 22.082M103.285 121.484l2.906 17.664M87.176 110.523l20.94 7.9M111.75 140.504L94.44 154.69M94.44 154.69l-20.94-7.893M94.207 148.977l-16.754-6.317M73.5 146.797l-8.652 7.094" stroke-width="1.2" stroke="#000" stroke-miterlimit="10" fill="none"/><path d="M64.848 153.89l-8.657 7.094" stroke-width="1.2" stroke="#f00" stroke-miterlimit="10" fill="none"/><path d="M73.5 146.797l-3.633-22.082" stroke-width="1.2" stroke="#000" stroke-miterlimit="10" fill="none"/><path d="M56.19 160.984l-10.467-3.945" stroke-width="1.2" stroke="#f00" stroke-miterlimit="10" fill="none"/><path d="M45.723 157.04l-10.473-3.95" stroke-width="1.2" stroke="#000" stroke-miterlimit="10" fill="none"/><path d="M52.19 155.484h8v11h-8zm0 0" fill="#fff"/><use xlink:href="#f" x="52.191" y="164.147" fill="#f00"/><path d="M69.867 124.715l-10.472-3.95" stroke-width="1.2" stroke="#000" stroke-miterlimit="10" fill="none"/><path d="M59.395 120.766l-10.47-3.946" stroke-width="1.2" stroke="#f00" stroke-miterlimit="10" fill="none"/><path d="M69.867 124.715l17.31-14.192M74.938 127.367l13.843-11.35" stroke-width="1.2" stroke="#000" stroke-miterlimit="10" fill="none"/><path d="M48.926 116.82l-1.817-11.043" stroke-width="1.2" stroke="#f00" stroke-miterlimit="10" fill="none"/><path d="M47.11 105.777l-1.82-11.043" stroke-width="1.2" stroke="#000" stroke-miterlimit="10" fill="none"/><path d="M44.926 111.32h8v11h-8zm0 0" fill="#fff"/><use xlink:href="#f" x="44.926" y="119.983" fill="#f00"/><path d="M174.574 164.188l20.942 7.894M174.813 169.906l16.753 6.317M195.516 172.082l8.656-7.094" stroke-width="1.2" stroke="#000" stroke-miterlimit="10" fill="none"/><path d="M204.172 164.988l8.652-7.093M212.824 157.895l-1.816-11.043" stroke-width="1.2" stroke="#00f" stroke-miterlimit="10" fill="none"/><path d="M211.008 146.852l-1.817-11.04" stroke-width="1.2" stroke="#000" stroke-miterlimit="10" fill="none"/><path d="M205.824 152.395h14v11h-14zm0 0" fill="#fff"/><g fill="#00f"><use xlink:href="#d" x="205.824" y="161.058"/><use xlink:href="#e" x="212.802" y="161.058"/></g><path d="M210.12 133.348l-10.472-3.95" stroke-width="1.2" stroke="#000" stroke-miterlimit="10" fill="none"/><path d="M199.648 129.398l-10.468-3.945" stroke-width="1.2" stroke="#f00" stroke-miterlimit="10" fill="none"/><path d="M208.262 138.273l-10.47-3.945" stroke-width="1.2" stroke="#000" stroke-miterlimit="10" fill="none"/><path d="M197.793 134.328l-10.473-3.95" stroke-width="1.2" stroke="#f00" stroke-miterlimit="10" fill="none"/><path d="M209.19 135.813l17.31-14.192" stroke-width="1.2" stroke="#000" stroke-miterlimit="10" fill="none"/><path d="M180.25 122.418h8v11h-8zm0 0" fill="#fff"/><use xlink:href="#f" x="180.25" y="131.081" fill="#f00"/><path d="M226.5 121.62l20.94 7.9M230.453 117.484l16.754 6.317M222.867 99.54l3.633 22.08M247.44 129.52l17.31-14.192M264.75 115.328l-3.633-22.082M259.19 113.977l-2.905-17.668M261.117 93.246l-20.94-7.894M240.176 85.352l-17.31 14.187M241.78 90.84l-13.843 11.35" stroke-width="1.2" stroke="#000" stroke-miterlimit="10" fill="none"/></g></svg>