<svg xmlns="http://www.w3.org/2000/svg" xmlns:xlink="http://www.w3.org/1999/xlink" width="300pt" height="300pt" viewBox="0 0 300 300"><defs><symbol overflow="visible"><path d="M.547 1.938V-7.75h5.5v9.688zm.625-.61h4.266v-8.47H1.171zm0 0"/></symbol><symbol overflow="visible" id="a"><path d="M7.078-7.406v1.156c-.367-.344-.758-.598-1.172-.766-.406-.164-.843-.25-1.312-.25-.918 0-1.62.282-2.11.844-.48.555-.718 1.36-.718 2.422 0 1.055.238 1.86.718 2.422.49.562 1.192.844 2.11.844.468 0 .906-.082 1.312-.25.414-.164.805-.422 1.172-.766v1.125c-.375.262-.777.46-1.203.594-.418.124-.867.186-1.344.186-1.21 0-2.163-.367-2.858-1.11C.972-1.703.625-2.718.625-4c0-1.29.348-2.305 1.047-3.047.695-.75 1.648-1.125 2.86-1.125.476 0 .93.07 1.36.203.424.126.82.314 1.186.564zm0 0"/></symbol><symbol overflow="visible" id="b"><path d="M1.03-8.36h1V0h-1zm0 0"/></symbol><symbol overflow="visible" id="c"><path d="M1.078-8.016h1.47l3.546 6.704v-6.704h1.062V0H5.688L2.124-6.703V0H1.078zm0 0"/></symbol><symbol overflow="visible" id="d"><path d="M5.89-7.75v1.047c-.417-.195-.808-.344-1.17-.438-.368-.094-.72-.14-1.064-.14-.586 0-1.04.116-1.36.343-.323.23-.483.554-.483.968 0 .357.1.626.312.814.22.18.625.324 1.22.437L4-4.593c.813.157 1.41.434 1.797.828.383.387.578.903.578 1.547 0 .783-.262 1.376-.78 1.783-.525.398-1.29.593-2.298.593-.375 0-.78-.047-1.22-.14C1.648-.066 1.208-.19.75-.36v-1.11c.445.25.88.44 1.297.564.426.125.844.187 1.25.187.625 0 1.1-.116 1.437-.358.332-.25.5-.598.5-1.047 0-.395-.12-.703-.36-.922-.24-.226-.636-.398-1.186-.515l-.657-.126c-.81-.156-1.4-.406-1.764-.75C.898-4.78.72-5.258.72-5.875c0-.707.25-1.266.75-1.672.5-.414 1.19-.625 2.077-.625.375 0 .754.04 1.14.11.395.074.797.18 1.204.312zm0 0"/></symbol><symbol overflow="visible" id="e"><path d="M1.078-8.016h1.094v3.282H6.11v-3.282h1.077V0H6.11v-3.813H2.17V0H1.078zm0 0"/></symbol><symbol overflow="visible" id="f"><path d="M4.328-7.28c-.78 0-1.406.296-1.875.89-.46.585-.687 1.382-.687 2.39 0 1.012.226 1.813.687 2.406.47.586 1.094.875 1.875.875.79 0 1.414-.288 1.875-.874.457-.593.688-1.394.688-2.406 0-1.008-.23-1.805-.687-2.39-.46-.594-1.086-.89-1.875-.89zm0-.892c1.125 0 2.024.383 2.703 1.14C7.708-6.28 8.048-5.27 8.048-4c0 1.262-.34 2.273-1.016 3.03C6.353-.22 5.454.157 4.33.157S2.3-.22 1.625-.97c-.668-.75-1-1.757-1-3.03 0-1.27.332-2.28 1-3.03.676-.76 1.578-1.142 2.703-1.142zm0 0"/></symbol></defs><g><path fill="#fff" d="M0 0h300v300H0z"/><path d="M52.004 177.535l1.937-13.027" stroke-width="1.2" stroke="#0c0" stroke-miterlimit="10" fill="none"/><path d="M53.94 164.508l1.935-13.028" stroke-width="1.2" stroke="#000" stroke-miterlimit="10" fill="none"/><path d="M47.004 171.035h11v13h-11zm0 0" fill="#fff"/><g fill="#0c0"><use xlink:href="#a" x="47.004" y="180.937"/><use xlink:href="#b" x="54.455" y="180.937"/></g><path d="M55.875 151.48L35.25 135.102M57.668 144.992l-16.5-13.105M80.375 141.81l-24.5 9.67M35.25 135.102l3.87-26.055M39.12 109.047l24.5-9.672M43.848 113.848l19.6-7.74M63.62 99.375l20.63 16.383M84.25 115.758l12.246-4.836" stroke-width="1.2" stroke="#000" stroke-miterlimit="10" fill="none"/><path d="M96.496 110.922l12.25-4.84" stroke-width="1.2" stroke="#0c0" stroke-miterlimit="10" fill="none"/><path d="M84.25 115.758l-3.875 26.05M77.73 117.45l-3.097 20.843" stroke-width="1.2" stroke="#000" stroke-miterlimit="10" fill="none"/><path d="M103.746 99.582h11v13h-11zm0 0" fill="#fff"/><g fill="#0c0"><use xlink:href="#a" x="103.746" y="109.483"/><use xlink:href="#b" x="111.197" y="109.483"/></g><path d="M80.375 141.81L90.688 150" stroke-width="1.2" stroke="#000" stroke-miterlimit="10" fill="none"/><path d="M90.688 150L101 158.19M101 158.19l12.25-4.835" stroke-width="1.2" stroke="#00f" stroke-miterlimit="10" fill="none"/><path d="M113.25 153.355l12.25-4.835M97.13 184.242l1.936-13.023" stroke-width="1.2" stroke="#000" stroke-miterlimit="10" fill="none"/><path d="M99.066 171.22L101 158.19" stroke-width="1.2" stroke="#00f" stroke-miterlimit="10" fill="none"/><path d="M97 151.69h8v13h-8zm0 0" fill="#fff"/><use xlink:href="#c" x="97" y="161.593" fill="#00f"/><path d="M125.5 148.52l20.63 16.378M129.375 122.465L125.5 148.52M135.117 125.98l-3.097 20.844M146.13 164.898l12.245-4.835" stroke-width="1.2" stroke="#000" stroke-miterlimit="10" fill="none"/><path d="M158.375 160.063l12.25-4.836" stroke-width="1.2" stroke="#00f" stroke-miterlimit="10" fill="none"/><path d="M146.3 158.168l9.802-3.87" stroke-width="1.2" stroke="#000" stroke-miterlimit="10" fill="none"/><path d="M156.102 154.297l9.8-3.867" stroke-width="1.2" stroke="#00f" stroke-miterlimit="10" fill="none"/><path d="M146.13 164.898l-3.876 26.055" stroke-width="1.2" stroke="#000" stroke-miterlimit="10" fill="none"/><path d="M170.625 155.227l1.938-13.028" stroke-width="1.2" stroke="#00f" stroke-miterlimit="10" fill="none"/><path d="M172.563 142.2l1.937-13.028" stroke-width="1.2" stroke="#000" stroke-miterlimit="10" fill="none"/><path d="M166.625 148.727h8v13h-8zm0 0" fill="#fff"/><use xlink:href="#c" x="166.625" y="158.628" fill="#00f"/><path d="M174.5 129.172l12.25-4.836" stroke-width="1.2" stroke="#000" stroke-miterlimit="10" fill="none"/><path d="M186.75 124.336L199 119.5" stroke-width="1.2" stroke="#cc0" stroke-miterlimit="10" fill="none"/><path d="M174.5 129.172l-20.63-16.38M168.582 132.387l-16.5-13.106" stroke-width="1.2" stroke="#000" stroke-miterlimit="10" fill="none"/><path d="M199 119.5l10.313 8.19" stroke-width="1.2" stroke="#cc0" stroke-miterlimit="10" fill="none"/><path d="M209.313 127.69l10.312 8.19" stroke-width="1.2" stroke="#000" stroke-miterlimit="10" fill="none"/><path d="M196 113h7v13h-7zm0 0" fill="#fff"/><use xlink:href="#d" x="196" y="122.901" fill="#cc0"/><path d="M219.625 135.88l-3.875 26.054M225.367 139.398l-3.097 20.84M244.125 126.207l-24.5 9.672M215.75 161.934l-12.246 4.836" stroke-width="1.2" stroke="#000" stroke-miterlimit="10" fill="none"/><path d="M203.504 166.77l-12.25 4.835" stroke-width="1.2" stroke="#0c0" stroke-miterlimit="10" fill="none"/><path d="M215.75 161.934l20.63 16.38" stroke-width="1.2" stroke="#000" stroke-miterlimit="10" fill="none"/><path d="M180.254 165.105h11v13h-11zm0 0" fill="#fff"/><g fill="#0c0"><use xlink:href="#a" x="180.254" y="175.007"/><use xlink:href="#b" x="187.705" y="175.007"/></g><path d="M236.38 178.313l24.5-9.672M236.55 171.582l19.602-7.738M260.88 168.64l3.87-26.05M264.75 142.59l-20.625-16.383M258.832 145.805l-16.5-13.106M244.125 126.207l1.934-13.027" stroke-width="1.2" stroke="#000" stroke-miterlimit="10" fill="none"/><path d="M246.06 113.18l1.936-13.024" stroke-width="1.2" stroke="#0c0" stroke-miterlimit="10" fill="none"/><path d="M242.996 93.656h11v13h-11zm0 0" fill="#fff"/><g fill="#0c0"><use xlink:href="#a" x="242.996" y="103.558"/><use xlink:href="#b" x="250.447" y="103.558"/></g><path d="M153.87 112.793l-24.495 9.672M142.254 190.953l-12.25 4.836" stroke-width="1.2" stroke="#000" stroke-miterlimit="10" fill="none"/><path d="M130.004 195.79l-12.25 4.835M117.754 200.625l-10.313-8.19" stroke-width="1.2" stroke="#00f" stroke-miterlimit="10" fill="none"/><path d="M107.44 192.434l-10.31-8.192" stroke-width="1.2" stroke="#000" stroke-miterlimit="10" fill="none"/><path d="M109.754 194.125h17v13h-17zm0 0" fill="#fff"/><g fill="#00f"><use xlink:href="#c" x="109.754" y="204.026"/><use xlink:href="#e" x="117.737" y="204.026"/></g><path d="M95.992 181.36l-12.25 4.84" stroke-width="1.2" stroke="#000" stroke-miterlimit="10" fill="none"/><path d="M83.742 186.2l-12.25 4.835" stroke-width="1.2" stroke="#f00" stroke-miterlimit="10" fill="none"/><path d="M98.266 187.125l-12.25 4.836" stroke-width="1.2" stroke="#000" stroke-miterlimit="10" fill="none"/><path d="M86.016 191.96l-12.246 4.837" stroke-width="1.2" stroke="#f00" stroke-miterlimit="10" fill="none"/><path d="M63.63 187.418h9v13h-9zm0 0" fill="#fff"/><use xlink:href="#f" x="63.629" y="197.319" fill="#f00"/></g></svg>