<svg xmlns="http://www.w3.org/2000/svg" xmlns:xlink="http://www.w3.org/1999/xlink" width="300pt" height="300pt" viewBox="0 0 300 300"><defs><symbol overflow="visible"><path d="M.453 1.594v-7.938h4.5v7.938zm.5-.5h3.5v-6.938h-3.5zm0 0"/></symbol><symbol overflow="visible" id="a"><path d="M5.797-6.063v.938c-.305-.27-.625-.473-.97-.61-.335-.144-.686-.218-1.06-.218-.75 0-1.33.23-1.736.687-.397.46-.592 1.12-.592 1.985 0 .866.195 1.526.593 1.983.408.46.986.688 1.736.688.375 0 .726-.066 1.062-.203.344-.132.664-.343.97-.625V-.5c-.314.21-.642.367-.986.47-.343.1-.714.155-1.11.155-.99 0-1.772-.3-2.343-.906C.784-1.396.5-2.228.5-3.28c0-1.052.285-1.88.86-2.486.57-.613 1.35-.92 2.343-.92.395-.002.766.053 1.11.155.35.104.68.26.984.468zm0 0"/></symbol><symbol overflow="visible" id="b"><path d="M.844-6.844h.812V0H.844zm0 0"/></symbol><symbol overflow="visible" id="c"><path d="M3.547-5.953c-.65 0-1.164.242-1.547.72-.375.48-.563 1.13-.563 1.952 0 .835.188 1.49.563 1.967.383.48.898.72 1.547.72.644 0 1.156-.24 1.53-.72.376-.476.564-1.132.564-1.968 0-.822-.187-1.474-.562-1.954-.375-.477-.887-.72-1.53-.72zm0-.734c.914 0 1.648.312 2.203.937.55.617.828 1.438.828 2.47 0 1.042-.277 1.87-.828 2.483-.555.617-1.29.922-2.203.922-.93 0-1.668-.305-2.22-.922C.774-1.41.5-2.237.5-3.28c0-1.033.273-1.853.828-2.47.55-.625 1.29-.938 2.22-.938zm0 0"/></symbol><symbol overflow="visible" id="d"><path d="M.89-6.563H2.08l2.906 5.485v-5.484h.86V0H4.656L1.75-5.484V0H.89zm0 0"/></symbol><symbol overflow="visible" id="e"><path d="M.89-6.563h.876v2.688H5v-2.688h.89V0H5v-3.125H1.766V0H.89zm0 0"/></symbol><symbol overflow="visible"><path d="M.406 1.422V-5.64h4V1.42zM.844.97h3.11v-6.157H.843zm0 0"/></symbol><symbol overflow="visible" id="f"><path d="M3.688-5.016v2.172h2.17v.672H3.69V0H3.03v-2.172H.845v-.672H3.03v-2.172zm0 0"/></symbol></defs><g><path fill="#fff" d="M0 0h300v300H0z"/><path d="M180.137 166.773l-6.575 9.24" stroke-width="1.2" stroke="#0c0" stroke-miterlimit="10" fill="none"/><path d="M173.563 176.012l-6.58 9.238" stroke-width="1.2" stroke="#000" stroke-miterlimit="10" fill="none"/><path d="M175.137 161.273h10v11h-10zm0 0" fill="#fff"/><g fill="#0c0"><use xlink:href="#a" x="175.137" y="169.937"/><use xlink:href="#b" x="181.65" y="169.937"/></g><path d="M166.984 185.25l9.426 20.63M163.074 189.527l7.54 16.504M144.406 183.098l22.578 2.152M176.41 205.88l-13.156 18.472M163.254 224.352L140.68 222.2M161.504 218.824l-18.063-1.72M140.68 222.2l-9.426-20.63M131.254 201.57l13.152-18.472M136.918 202.82l10.52-14.78M144.406 183.098l-9.422-20.63M134.984 162.47l13.153-18.478M131.95 157.523l10.523-14.78M112.406 160.313l22.578 2.156M148.137 143.992l-9.426-20.63M138.71 123.363l6.58-9.238" stroke-width="1.2" stroke="#000" stroke-miterlimit="10" fill="none"/><path d="M145.29 114.125l6.573-9.238" stroke-width="1.2" stroke="#f00" stroke-miterlimit="10" fill="none"/><path d="M138.71 123.363l-22.577-2.152M135.945 128.46l-18.058-1.722" stroke-width="1.2" stroke="#000" stroke-miterlimit="10" fill="none"/><path d="M151.863 104.887l11.29 1.074" stroke-width="1.2" stroke="#f00" stroke-miterlimit="10" fill="none"/><path d="M163.152 105.96l11.29 1.08" stroke-width="1.2" stroke="#000" stroke-miterlimit="10" fill="none"/><path d="M147.863 99.387h8v11h-8zm0 0" fill="#fff"/><use xlink:href="#c" x="147.863" y="108.05" fill="#f00"/><path d="M174.44 107.04l9.427 20.628M187.594 88.563l-13.153 18.476M183.867 127.668l22.574 2.152M206.44 129.82l6.58-9.238" stroke-width="1.2" stroke="#000" stroke-miterlimit="10" fill="none"/><path d="M213.02 120.582l6.578-9.238M219.598 111.344l-4.715-10.313" stroke-width="1.2" stroke="#00f" stroke-miterlimit="10" fill="none"/><path d="M214.883 101.03l-4.71-10.315" stroke-width="1.2" stroke="#000" stroke-miterlimit="10" fill="none"/><path d="M219.598 111.344l11.285 1.078" stroke-width="1.2" stroke="#00f" stroke-miterlimit="10" fill="none"/><path d="M230.883 112.422l11.29 1.074" stroke-width="1.2" stroke="#000" stroke-miterlimit="10" fill="none"/><path d="M209.598 103.844h21v15h-21zm0 0" fill="#fff"/><g fill="#00f"><use xlink:href="#d" x="209.598" y="115.945"/><use xlink:href="#e" x="216.575" y="115.945"/></g><use xlink:href="#f" x="223.59" y="111.063" fill="#00f"/><path d="M210.172 90.715l-22.578-2.153M242.172 113.496l-2.152 22.578M242.172 113.496l2.152-22.574M242.172 113.496l22.578 2.152M116.133 121.21L102.98 139.69M102.98 139.688l-11.29-1.08" stroke-width="1.2" stroke="#000" stroke-miterlimit="10" fill="none"/><path d="M91.69 138.61l-11.288-1.08" stroke-width="1.2" stroke="#00f" stroke-miterlimit="10" fill="none"/><path d="M112.406 160.313l-9.426-20.625M116.316 156.035l-7.54-16.504" stroke-width="1.2" stroke="#000" stroke-miterlimit="10" fill="none"/><path d="M80.402 137.53l-4.71-10.31" stroke-width="1.2" stroke="#00f" stroke-miterlimit="10" fill="none"/><path d="M75.69 127.22L70.98 116.9" stroke-width="1.2" stroke="#000" stroke-miterlimit="10" fill="none"/><path d="M80.402 137.53l-6.574 9.24" stroke-width="1.2" stroke="#00f" stroke-miterlimit="10" fill="none"/><path d="M73.828 146.77l-6.578 9.238" stroke-width="1.2" stroke="#000" stroke-miterlimit="10" fill="none"/><path d="M77.402 132.03h7v11h-7zm0 0" fill="#fff"/><use xlink:href="#d" x="77.402" y="140.694" fill="#00f"/><path d="M70.98 116.902L84.133 98.43M67.95 111.96l10.52-14.78M48.402 114.75l22.578 2.152M84.133 98.43l11.29 1.074" stroke-width="1.2" stroke="#000" stroke-miterlimit="10" fill="none"/><path d="M95.422 99.504l11.29 1.078" stroke-width="1.2" stroke="#0c0" stroke-miterlimit="10" fill="none"/><path d="M84.133 98.43L74.707 77.8" stroke-width="1.2" stroke="#000" stroke-miterlimit="10" fill="none"/><path d="M101.71 95.082h10v11h-10zm0 0" fill="#fff"/><g fill="#0c0"><use xlink:href="#a" x="101.711" y="103.745"/><use xlink:href="#b" x="108.225" y="103.745"/></g><path d="M74.707 77.8L52.133 75.65M71.945 82.895l-18.062-1.72M52.133 75.648L38.98 94.12M38.98 94.12l9.422 20.63M44.773 93.97l7.54 16.503M48.402 114.75l-6.574 9.238" stroke-width="1.2" stroke="#000" stroke-miterlimit="10" fill="none"/><path d="M41.828 123.988l-6.578 9.24" stroke-width="1.2" stroke="#0c0" stroke-miterlimit="10" fill="none"/><path d="M25.25 127.727h10v11h-10zm0 0" fill="#fff"/><g fill="#0c0"><use xlink:href="#a" x="25.25" y="136.39"/><use xlink:href="#b" x="31.764" y="136.39"/></g><path d="M67.504 153.352l-11.29-1.075" stroke-width="1.2" stroke="#000" stroke-miterlimit="10" fill="none"/><path d="M56.215 152.277l-11.29-1.078" stroke-width="1.2" stroke="#f00" stroke-miterlimit="10" fill="none"/><path d="M67 158.664l-11.29-1.074" stroke-width="1.2" stroke="#000" stroke-miterlimit="10" fill="none"/><path d="M55.71 157.59l-11.288-1.078" stroke-width="1.2" stroke="#f00" stroke-miterlimit="10" fill="none"/><path d="M67.25 156.008l9.426 20.63" stroke-width="1.2" stroke="#000" stroke-miterlimit="10" fill="none"/><path d="M36.676 148.355h8v11h-8zm0 0" fill="#fff"/><use xlink:href="#c" x="36.676" y="157.019" fill="#f00"/><path d="M76.676 176.637l22.578 2.152M79.44 171.54l18.06 1.722M99.254 178.79l13.152-18.477" stroke-width="1.2" stroke="#000" stroke-miterlimit="10" fill="none"/></g></svg>