<svg xmlns="http://www.w3.org/2000/svg" xmlns:xlink="http://www.w3.org/1999/xlink" width="300pt" height="300pt" viewBox="0 0 300 300"><defs><symbol overflow="visible"><path d="M.453 1.594v-7.938h4.5v7.938zm.5-.5h3.5v-6.938h-3.5zm0 0"/></symbol><symbol overflow="visible" id="a"><path d="M5.797-6.063v.938c-.305-.27-.625-.473-.97-.61-.335-.144-.686-.218-1.06-.218-.75 0-1.33.23-1.736.687-.397.46-.592 1.12-.592 1.985 0 .866.195 1.526.593 1.983.408.46.986.688 1.736.688.375 0 .726-.066 1.062-.203.344-.132.664-.343.97-.625V-.5c-.314.21-.642.367-.986.47-.343.1-.714.155-1.11.155-.99 0-1.772-.3-2.343-.906C.784-1.396.5-2.228.5-3.28c0-1.052.285-1.88.86-2.486.57-.613 1.35-.92 2.343-.92.395-.002.766.053 1.11.155.35.104.68.26.984.468zm0 0"/></symbol><symbol overflow="visible" id="b"><path d="M.844-6.844h.812V0H.844zm0 0"/></symbol><symbol overflow="visible" id="c"><path d="M.89-6.563h3.766v.75h-2.89v1.938h2.61v.734h-2.61V0H.89zm0 0"/></symbol><symbol overflow="visible" id="d"><path d="M.89-6.563H2.08l2.906 5.485v-5.484h.86V0H4.656L1.75-5.484V0H.89zm0 0"/></symbol><symbol overflow="visible" id="e"><path d="M3.547-5.953c-.65 0-1.164.242-1.547.72-.375.48-.563 1.13-.563 1.952 0 .835.188 1.49.563 1.967.383.48.898.72 1.547.72.644 0 1.156-.24 1.53-.72.376-.476.564-1.132.564-1.968 0-.822-.187-1.474-.562-1.954-.375-.477-.887-.72-1.53-.72zm0-.734c.914 0 1.648.312 2.203.937.55.617.828 1.438.828 2.47 0 1.042-.277 1.87-.828 2.483-.555.617-1.29.922-2.203.922-.93 0-1.668-.305-2.22-.922C.774-1.41.5-2.237.5-3.28c0-1.033.273-1.853.828-2.47.55-.625 1.29-.938 2.22-.938zm0 0"/></symbol><symbol overflow="visible" id="f"><path d="M.89-6.563h.876v2.688H5v-2.688h.89V0H5v-3.125H1.766V0H.89zm0 0"/></symbol><symbol overflow="visible"><path d="M.406 1.422V-5.64h4V1.42zM.844.97h3.11v-6.157H.843zm0 0"/></symbol><symbol overflow="visible" id="g"><path d="M1.53-.672h2.767V0H.594v-.672c.29-.3.695-.71 1.22-1.234.518-.532.842-.867.967-1.016.26-.28.44-.52.533-.72.1-.194.156-.39.156-.577 0-.31-.11-.565-.33-.764-.218-.196-.5-.297-.843-.297-.25 0-.516.046-.797.14-.273.085-.563.214-.875.39v-.797c.32-.133.617-.234.89-.297.282-.062.536-.093.766-.093.603 0 1.083.152 1.44.453.362.304.546.703.546 1.203 0 .24-.047.468-.14.686-.095.22-.26.477-.485.766-.074.074-.288.293-.64.656-.344.356-.836.856-1.47 1.5zm0 0"/></symbol><symbol overflow="visible" id="h"><path d="M3.688-5.016v2.172h2.17v.672H3.69V0H3.03v-2.172H.845v-.672H3.03v-2.172zm0 0"/></symbol></defs><g><path fill="#fff" d="M0 0h300v300H0z"/><path d="M109.176 177.906l-5.84-11.226" stroke-width="1.2" stroke="#0c0" stroke-miterlimit="10" fill="none"/><path d="M103.336 166.68L97.5 155.45" stroke-width="1.2" stroke="#000" stroke-miterlimit="10" fill="none"/><path d="M104.176 172.406h10v11h-10zm0 0" fill="#fff"/><g fill="#0c0"><use xlink:href="#a" x="104.176" y="181.069"/><use xlink:href="#b" x="110.689" y="181.069"/></g><path d="M97.5 155.45l-25.285-1.114M95.234 149.39l-20.23-.89M111.105 134.11L97.5 155.45M72.215 154.336l-11.68-22.453M60.535 131.883l-12.64-.56" stroke-width="1.2" stroke="#000" stroke-miterlimit="10" fill="none"/><path d="M47.895 131.324l-12.645-.558" stroke-width="1.2" stroke="#3cc" stroke-miterlimit="10" fill="none"/><path d="M60.535 131.883l13.61-21.344M66.918 132.95l10.887-17.075" stroke-width="1.2" stroke="#000" stroke-miterlimit="10" fill="none"/><path d="M29.25 125.266h6v11h-6zm0 0" fill="#fff"/><use xlink:href="#c" x="29.25" y="133.929" fill="#3cc"/><path d="M74.145 110.54l25.285 1.116M99.43 111.656l11.675 22.453M95.313 116.648l9.343 17.965M111.105 134.11l25.286 1.113M136.39 135.223l11.68 22.457M142.844 134.723l9.344 17.964M150 113.883l-13.61 21.34M148.07 157.68l25.285 1.113M173.355 158.793l13.61-21.34M169.695 153.457l10.887-17.07M173.355 158.793l11.68 22.457M186.965 137.453l-11.68-22.457M175.285 114.996l6.805-10.668" stroke-width="1.2" stroke="#000" stroke-miterlimit="10" fill="none"/><path d="M182.09 104.328l6.805-10.672" stroke-width="1.2" stroke="#00f" stroke-miterlimit="10" fill="none"/><path d="M150 113.883l25.285 1.113M152.266 119.945l20.23.89" stroke-width="1.2" stroke="#000" stroke-miterlimit="10" fill="none"/><path d="M188.895 93.656l12.64.56" stroke-width="1.2" stroke="#00f" stroke-miterlimit="10" fill="none"/><path d="M201.535 94.215l12.645.555" stroke-width="1.2" stroke="#000" stroke-miterlimit="10" fill="none"/><path d="M188.895 93.656l-5.84-11.226" stroke-width="1.2" stroke="#00f" stroke-miterlimit="10" fill="none"/><path d="M183.055 82.43l-5.84-11.227" stroke-width="1.2" stroke="#000" stroke-miterlimit="10" fill="none"/><path d="M185.895 88.156h7v11h-7zm0 0" fill="#fff"/><use xlink:href="#d" x="185.895" y="96.819" fill="#00f"/><path d="M214.18 94.77l11.675 22.457M220.63 94.27l9.343 17.964M227.785 73.43L214.18 94.77M225.855 117.227l-6.8 10.668" stroke-width="1.2" stroke="#000" stroke-miterlimit="10" fill="none"/><path d="M219.055 127.895l-6.805 10.67" stroke-width="1.2" stroke="#0c0" stroke-miterlimit="10" fill="none"/><path d="M225.855 117.227l25.286 1.113" stroke-width="1.2" stroke="#000" stroke-miterlimit="10" fill="none"/><path d="M202.25 133.066h10v11h-10zm0 0" fill="#fff"/><g fill="#0c0"><use xlink:href="#a" x="202.25" y="141.729"/><use xlink:href="#b" x="208.764" y="141.729"/></g><path d="M251.14 118.34L264.75 97M247.48 113.004l10.887-17.07M264.75 97l-11.68-22.457M253.07 74.543l-25.285-1.113M250.28 80.383l-20.225-.89M227.785 73.43l-5.836-11.227" stroke-width="1.2" stroke="#000" stroke-miterlimit="10" fill="none"/><path d="M221.95 62.203l-5.84-11.226" stroke-width="1.2" stroke="#0c0" stroke-miterlimit="10" fill="none"/><path d="M206.11 45.477h10v11h-10zm0 0" fill="#fff"/><g fill="#0c0"><use xlink:href="#a" x="206.109" y="54.14"/><use xlink:href="#b" x="212.623" y="54.14"/></g><path d="M179.727 72.8l6.804-10.667" stroke-width="1.2" stroke="#000" stroke-miterlimit="10" fill="none"/><path d="M186.53 62.133l6.802-10.672" stroke-width="1.2" stroke="#f00" stroke-miterlimit="10" fill="none"/><path d="M174.703 69.602l6.805-10.672" stroke-width="1.2" stroke="#000" stroke-miterlimit="10" fill="none"/><path d="M181.508 58.93l6.804-10.668" stroke-width="1.2" stroke="#f00" stroke-miterlimit="10" fill="none"/><path d="M177.215 71.203l-25.285-1.117" stroke-width="1.2" stroke="#000" stroke-miterlimit="10" fill="none"/><path d="M186.824 44.36h8v11h-8zm0 0" fill="#fff"/><use xlink:href="#e" x="186.824" y="53.022" fill="#f00"/><path d="M151.93 70.086L138.32 91.43M155.59 75.422l-10.887 17.074M138.32 91.43L150 113.883M185.035 181.25l-13.61 21.34M185.035 181.25l25.285 1.113M187.3 187.31l20.227.89M171.426 202.59l11.68 22.453M183.105 225.043l12.64.56" stroke-width="1.2" stroke="#000" stroke-miterlimit="10" fill="none"/><path d="M195.746 225.602l12.645.558" stroke-width="1.2" stroke="#00f" stroke-miterlimit="10" fill="none"/><path d="M183.105 225.043l3.293 25.098M183.105 225.043l-24.144 7.602" stroke-width="1.2" stroke="#000" stroke-miterlimit="10" fill="none"/><path d="M208.39 226.16l6.8-10.672" stroke-width="1.2" stroke="#00f" stroke-miterlimit="10" fill="none"/><path d="M215.19 215.488l6.806-10.672" stroke-width="1.2" stroke="#000" stroke-miterlimit="10" fill="none"/><path d="M195.39 216.66h26v19h-26zm0 0" fill="#fff"/><g fill="#00f"><use xlink:href="#d" x="195.391" y="228.762"/><use xlink:href="#f" x="202.368" y="228.762"/></g><use xlink:href="#g" x="209.383" y="233.645" fill="#00f"/><use xlink:href="#h" x="214.333" y="223.879" fill="#00f"/><path d="M221.996 204.816l-11.676-22.453M221.996 204.816l20.086-15.398M221.996 204.816l18.656 17.11" stroke-width="1.2" stroke="#000" stroke-miterlimit="10" fill="none"/></g></svg>