<svg xmlns="http://www.w3.org/2000/svg" xmlns:xlink="http://www.w3.org/1999/xlink" width="300pt" height="300pt" viewBox="0 0 300 300"><defs><symbol overflow="visible"><path d="M.453 1.594v-7.938h4.5v7.938zm.5-.5h3.5v-6.938h-3.5zm0 0"/></symbol><symbol overflow="visible" id="a"><path d="M5.797-6.063v.938c-.305-.27-.625-.473-.97-.61-.335-.144-.686-.218-1.06-.218-.75 0-1.33.23-1.736.687-.397.46-.592 1.12-.592 1.985 0 .866.195 1.526.593 1.983.408.46.986.688 1.736.688.375 0 .726-.066 1.062-.203.344-.132.664-.343.97-.625V-.5c-.314.21-.642.367-.986.47-.343.1-.714.155-1.11.155-.99 0-1.772-.3-2.343-.906C.784-1.396.5-2.228.5-3.28c0-1.052.285-1.88.86-2.486.57-.613 1.35-.92 2.343-.92.395-.002.766.053 1.11.155.35.104.68.26.984.468zm0 0"/></symbol><symbol overflow="visible" id="b"><path d="M.844-6.844h.812V0H.844zm0 0"/></symbol><symbol overflow="visible" id="c"><path d="M.89-6.563H2.08l2.906 5.485v-5.484h.86V0H4.656L1.75-5.484V0H.89zm0 0"/></symbol><symbol overflow="visible" id="d"><path d="M3.547-5.953c-.65 0-1.164.242-1.547.72-.375.48-.563 1.13-.563 1.952 0 .835.188 1.49.563 1.967.383.48.898.72 1.547.72.644 0 1.156-.24 1.53-.72.376-.476.564-1.132.564-1.968 0-.822-.187-1.474-.562-1.954-.375-.477-.887-.72-1.53-.72zm0-.734c.914 0 1.648.312 2.203.937.55.617.828 1.438.828 2.47 0 1.042-.277 1.87-.828 2.483-.555.617-1.29.922-2.203.922-.93 0-1.668-.305-2.22-.922C.774-1.41.5-2.237.5-3.28c0-1.033.273-1.853.828-2.47.55-.625 1.29-.938 2.22-.938zm0 0"/></symbol><symbol overflow="visible" id="e"><path d="M.89-6.563h.876v2.688H5v-2.688h.89V0H5v-3.125H1.766V0H.89zm0 0"/></symbol></defs><g><path fill="#fff" d="M0 0h300v300H0z"/><path d="M88.117 171.77l-8.812-1.833" stroke-width="1.2" stroke="#0c0" stroke-miterlimit="10" fill="none"/><path d="M79.305 169.938l-8.813-1.836" stroke-width="1.2" stroke="#000" stroke-miterlimit="10" fill="none"/><path d="M83.117 166.27h10v11h-10zm0 0" fill="#fff"/><g fill="#0c0"><use xlink:href="#a" x="83.117" y="174.933"/><use xlink:href="#b" x="89.631" y="174.933"/></g><path d="M70.492 168.102l-11.988 13.42M66.137 166.62l-9.594 10.74M64.863 151.004l5.63 17.098M58.504 181.523l-17.62-3.67M40.883 177.852l-5.633-17.094M44.34 174.82l-4.504-13.68M35.25 160.758l11.992-13.426M47.242 147.332l17.62 3.672M48.14 151.844l14.098 2.937M64.863 151.004l5.996-6.715" stroke-width="1.2" stroke="#000" stroke-miterlimit="10" fill="none"/><path d="M70.86 144.29l5.992-6.712M76.852 137.578l-3.813-17.594" stroke-width="1.2" stroke="#00f" stroke-miterlimit="10" fill="none"/><path d="M94.762 139.387l-8.953-.903" stroke-width="1.2" stroke="#000" stroke-miterlimit="10" fill="none"/><path d="M85.81 138.484l-8.958-.906" stroke-width="1.2" stroke="#00f" stroke-miterlimit="10" fill="none"/><path d="M73.852 132.078h7v11h-7zm0 0" fill="#fff"/><use xlink:href="#c" x="73.852" y="140.741" fill="#00f"/><path d="M73.04 119.984l7.776-4.53" stroke-width="1.2" stroke="#00f" stroke-miterlimit="10" fill="none"/><path d="M80.816 115.453l7.778-4.53" stroke-width="1.2" stroke="#000" stroke-miterlimit="10" fill="none"/><path d="M76.727 122.738l6.222-3.625" stroke-width="1.2" stroke="#00f" stroke-miterlimit="10" fill="none"/><path d="M82.95 119.113l6.218-3.625" stroke-width="1.2" stroke="#000" stroke-miterlimit="10" fill="none"/><path d="M70.04 114.484h7v11h-7zm0 0" fill="#fff"/><use xlink:href="#c" x="70.039" y="123.147" fill="#00f"/><path d="M88.594 110.922l13.422 11.992M102.016 122.914l-7.254 16.473M105.168 126.27l-5.805 13.175M119.91 120.96l-17.894 1.954M94.762 139.387l10.64 14.52M105.402 153.906l17.895-1.953M123.297 151.953l3.625-8.234" stroke-width="1.2" stroke="#000" stroke-miterlimit="10" fill="none"/><path d="M126.922 143.72l3.63-8.24M130.55 135.48l-5.32-7.26" stroke-width="1.2" stroke="#00f" stroke-miterlimit="10" fill="none"/><path d="M125.23 128.22l-5.32-7.26" stroke-width="1.2" stroke="#000" stroke-miterlimit="10" fill="none"/><path d="M130.55 135.48l8.946-.976" stroke-width="1.2" stroke="#00f" stroke-miterlimit="10" fill="none"/><path d="M139.496 134.504l8.95-.977" stroke-width="1.2" stroke="#000" stroke-miterlimit="10" fill="none"/><path d="M127.55 129.98h7v11h-7zm0 0" fill="#fff"/><use xlink:href="#c" x="127.551" y="138.644" fill="#00f"/><path d="M150.383 134.38l3.63-8.235" stroke-width="1.2" stroke="#000" stroke-miterlimit="10" fill="none"/><path d="M154.012 126.145l3.625-8.24" stroke-width="1.2" stroke="#f00" stroke-miterlimit="10" fill="none"/><path d="M146.508 132.672l3.625-8.234" stroke-width="1.2" stroke="#000" stroke-miterlimit="10" fill="none"/><path d="M150.133 124.438l3.63-8.24" stroke-width="1.2" stroke="#f00" stroke-miterlimit="10" fill="none"/><path d="M148.445 133.527l10.637 14.52" stroke-width="1.2" stroke="#000" stroke-miterlimit="10" fill="none"/><path d="M151.7 111.555h8v11h-8zm0 0" fill="#fff"/><use xlink:href="#d" x="151.699" y="120.218" fill="#f00"/><path d="M159.082 148.047l17.895-1.953M161.332 152.063l14.316-1.563M151.828 164.52l7.254-16.473M176.977 146.094l10.64 14.52M187.617 160.613l-7.258 16.473M190.766 163.97l-5.805 13.175M205.523 162.422l-17.906-1.81M180.36 177.086l6.714 5.996" stroke-width="1.2" stroke="#000" stroke-miterlimit="10" fill="none"/><path d="M187.074 183.082l6.71 5.996" stroke-width="1.2" stroke="#00f" stroke-miterlimit="10" fill="none"/><path d="M180.36 177.086l-8.946.976" stroke-width="1.2" stroke="#000" stroke-miterlimit="10" fill="none"/><path d="M171.414 178.063l-8.95.976M193.785 189.078l7.778-4.53" stroke-width="1.2" stroke="#00f" stroke-miterlimit="10" fill="none"/><path d="M201.563 184.547l7.777-4.53" stroke-width="1.2" stroke="#000" stroke-miterlimit="10" fill="none"/><path d="M186.785 183.578h14v11h-14zm0 0" fill="#fff"/><g fill="#00f"><use xlink:href="#c" x="186.785" y="192.241"/><use xlink:href="#e" x="193.763" y="192.241"/></g><path d="M209.34 180.016l-3.817-17.594M204.816 179.152l-3.05-14.074M205.523 162.422l11.993-13.426M219.527 148.336l-2.816-8.55" stroke-width="1.2" stroke="#000" stroke-miterlimit="10" fill="none"/><path d="M216.71 139.785l-2.815-8.547" stroke-width="1.2" stroke="#f00" stroke-miterlimit="10" fill="none"/><path d="M215.504 149.66l-2.816-8.55" stroke-width="1.2" stroke="#000" stroke-miterlimit="10" fill="none"/><path d="M212.688 141.11l-2.817-8.548" stroke-width="1.2" stroke="#f00" stroke-miterlimit="10" fill="none"/><path d="M217.516 148.996l17.62 3.672" stroke-width="1.2" stroke="#000" stroke-miterlimit="10" fill="none"/><path d="M203.883 126.398h8v11h-8zm0 0" fill="#fff"/><use xlink:href="#d" x="203.883" y="135.062" fill="#f00"/><path d="M233.125 153.332l2.816 8.547" stroke-width="1.2" stroke="#000" stroke-miterlimit="10" fill="none"/><path d="M235.94 161.88l2.818 8.55" stroke-width="1.2" stroke="#f00" stroke-miterlimit="10" fill="none"/><path d="M237.148 152.008l2.817 8.547" stroke-width="1.2" stroke="#000" stroke-miterlimit="10" fill="none"/><path d="M239.965 160.555l2.816 8.547" stroke-width="1.2" stroke="#f00" stroke-miterlimit="10" fill="none"/><path d="M235.137 152.668l5.996-6.71" stroke-width="1.2" stroke="#000" stroke-miterlimit="10" fill="none"/><path d="M241.133 145.957l5.996-6.715" stroke-width="1.2" stroke="#00f" stroke-miterlimit="10" fill="none"/><path d="M236.77 164.266h8v11h-8zm0 0" fill="#fff"/><use xlink:href="#d" x="236.77" y="172.929" fill="#f00"/><path d="M247.13 139.242l8.808 1.836" stroke-width="1.2" stroke="#00f" stroke-miterlimit="10" fill="none"/><path d="M255.938 141.078l8.812 1.836" stroke-width="1.2" stroke="#000" stroke-miterlimit="10" fill="none"/><path d="M247.13 139.242l-2.817-8.547" stroke-width="1.2" stroke="#00f" stroke-miterlimit="10" fill="none"/><path d="M244.313 130.695l-2.817-8.547" stroke-width="1.2" stroke="#000" stroke-miterlimit="10" fill="none"/><path d="M244.13 133.742h7v11h-7zm0 0" fill="#fff"/><use xlink:href="#c" x="244.129" y="142.405" fill="#00f"/><path d="M162.465 179.04l-5.317-7.26" stroke-width="1.2" stroke="#00f" stroke-miterlimit="10" fill="none"/><path d="M157.148 171.78l-5.32-7.26" stroke-width="1.2" stroke="#000" stroke-miterlimit="10" fill="none"/><path d="M164.82 175.086l-4.257-5.81" stroke-width="1.2" stroke="#00f" stroke-miterlimit="10" fill="none"/><path d="M160.563 169.277l-4.254-5.808" stroke-width="1.2" stroke="#000" stroke-miterlimit="10" fill="none"/><path d="M159.465 173.54h7v11h-7zm0 0" fill="#fff"/><use xlink:href="#c" x="159.465" y="182.202" fill="#00f"/><path d="M151.828 164.52l-8.945.976" stroke-width="1.2" stroke="#000" stroke-miterlimit="10" fill="none"/><path d="M142.883 165.496l-8.95.977M133.934 166.473l-3.63 8.238" stroke-width="1.2" stroke="#f00" stroke-miterlimit="10" fill="none"/><path d="M130.305 174.71l-3.625 8.235" stroke-width="1.2" stroke="#000" stroke-miterlimit="10" fill="none"/><path d="M129.934 160.973h8v11h-8zm0 0" fill="#fff"/><use xlink:href="#d" x="129.934" y="169.636" fill="#f00"/></g></svg>