<svg xmlns="http://www.w3.org/2000/svg" xmlns:xlink="http://www.w3.org/1999/xlink" width="300pt" height="300pt" viewBox="0 0 300 300"><defs><symbol overflow="visible"><path d="M.453 1.594v-7.938h4.5v7.938zm.5-.5h3.5v-6.938h-3.5zm0 0"/></symbol><symbol overflow="visible" id="a"><path d="M5.797-6.063v.938c-.305-.27-.625-.473-.97-.61-.335-.144-.686-.218-1.06-.218-.75 0-1.33.23-1.736.687-.397.46-.592 1.12-.592 1.985 0 .866.195 1.526.593 1.983.408.46.986.688 1.736.688.375 0 .726-.066 1.062-.203.344-.132.664-.343.97-.625V-.5c-.314.21-.642.367-.986.47-.343.1-.714.155-1.11.155-.99 0-1.772-.3-2.343-.906C.784-1.396.5-2.228.5-3.28c0-1.052.285-1.88.86-2.486.57-.613 1.35-.92 2.343-.92.395-.002.766.053 1.11.155.35.104.68.26.984.468zm0 0"/></symbol><symbol overflow="visible" id="b"><path d="M.844-6.844h.812V0H.844zm0 0"/></symbol><symbol overflow="visible" id="c"><path d="M.89-6.563H2.08l2.906 5.485v-5.484h.86V0H4.656L1.75-5.484V0H.89zm0 0"/></symbol><symbol overflow="visible" id="d"><path d="M3.547-5.953c-.65 0-1.164.242-1.547.72-.375.48-.563 1.13-.563 1.952 0 .835.188 1.49.563 1.967.383.48.898.72 1.547.72.644 0 1.156-.24 1.53-.72.376-.476.564-1.132.564-1.968 0-.822-.187-1.474-.562-1.954-.375-.477-.887-.72-1.53-.72zm0-.734c.914 0 1.648.312 2.203.937.55.617.828 1.438.828 2.47 0 1.042-.277 1.87-.828 2.483-.555.617-1.29.922-2.203.922-.93 0-1.668-.305-2.22-.922C.774-1.41.5-2.237.5-3.28c0-1.033.273-1.853.828-2.47.55-.625 1.29-.938 2.22-.938zm0 0"/></symbol><symbol overflow="visible" id="e"><path d="M.89-6.563h.876v2.688H5v-2.688h.89V0H5v-3.125H1.766V0H.89zm0 0"/></symbol></defs><g><path fill="#fff" d="M0 0h300v300H0z"/><path d="M88.195 172.055l-8.824-1.793" stroke-width="1.2" stroke="#0c0" stroke-miterlimit="10" fill="none"/><path d="M79.37 170.262l-8.823-1.79" stroke-width="1.2" stroke="#000" stroke-miterlimit="10" fill="none"/><path d="M83.195 166.555h10v11h-10zm0 0" fill="#fff"/><g fill="#0c0"><use xlink:href="#a" x="83.195" y="175.218"/><use xlink:href="#b" x="89.709" y="175.218"/></g><path d="M70.547 168.473L58.62 181.965M66.18 167.016l-9.543 10.793M64.824 151.398l5.723 17.075M58.62 181.965l-17.647-3.582M40.973 178.383L35.25 161.31M44.418 175.328l-4.578-13.66M35.25 161.31l11.926-13.494M47.176 147.816l17.648 3.582M48.098 152.324l14.117 2.867M64.824 151.398l5.965-6.746" stroke-width="1.2" stroke="#000" stroke-miterlimit="10" fill="none"/><path d="M70.79 144.652l5.96-6.746M76.75 137.906l-3.906-17.582" stroke-width="1.2" stroke="#00f" stroke-miterlimit="10" fill="none"/><path d="M94.676 139.62l-8.96-.858" stroke-width="1.2" stroke="#000" stroke-miterlimit="10" fill="none"/><path d="M85.715 138.762l-8.965-.856" stroke-width="1.2" stroke="#00f" stroke-miterlimit="10" fill="none"/><path d="M73.75 132.406h7v11h-7zm0 0" fill="#fff"/><use xlink:href="#c" x="73.75" y="141.069" fill="#00f"/><path d="M72.844 120.324l7.758-4.57" stroke-width="1.2" stroke="#00f" stroke-miterlimit="10" fill="none"/><path d="M80.602 115.754l7.753-4.574" stroke-width="1.2" stroke="#000" stroke-miterlimit="10" fill="none"/><path d="M76.547 123.063l6.207-3.66" stroke-width="1.2" stroke="#00f" stroke-miterlimit="10" fill="none"/><path d="M82.754 119.402l6.203-3.66" stroke-width="1.2" stroke="#000" stroke-miterlimit="10" fill="none"/><path d="M69.844 114.824h7v11h-7zm0 0" fill="#fff"/><use xlink:href="#c" x="69.844" y="123.487" fill="#00f"/><path d="M88.355 111.18l13.493 11.925M101.848 123.105l-7.172 16.516M105.02 126.445l-5.74 13.215M119.738 121.06l-17.89 2.045M94.676 139.62l10.72 14.474M105.395 154.094l17.89-2.047M123.285 152.047l3.586-8.258" stroke-width="1.2" stroke="#000" stroke-miterlimit="10" fill="none"/><path d="M126.87 143.79l3.587-8.263M130.457 135.527l-5.36-7.234" stroke-width="1.2" stroke="#00f" stroke-miterlimit="10" fill="none"/><path d="M125.098 128.293l-5.36-7.234" stroke-width="1.2" stroke="#000" stroke-miterlimit="10" fill="none"/><path d="M130.457 135.527l8.945-1.02" stroke-width="1.2" stroke="#00f" stroke-miterlimit="10" fill="none"/><path d="M139.402 134.508l8.946-1.024" stroke-width="1.2" stroke="#000" stroke-miterlimit="10" fill="none"/><path d="M127.457 130.027h7v11h-7zm0 0" fill="#fff"/><use xlink:href="#c" x="127.457" y="138.69" fill="#00f"/><path d="M150.293 134.328l3.586-8.262" stroke-width="1.2" stroke="#000" stroke-miterlimit="10" fill="none"/><path d="M153.88 126.066l3.585-8.257" stroke-width="1.2" stroke="#f00" stroke-miterlimit="10" fill="none"/><path d="M146.406 132.637l3.586-8.258" stroke-width="1.2" stroke="#000" stroke-miterlimit="10" fill="none"/><path d="M149.992 124.38l3.586-8.26" stroke-width="1.2" stroke="#f00" stroke-miterlimit="10" fill="none"/><path d="M148.348 133.484l10.718 14.47" stroke-width="1.2" stroke="#000" stroke-miterlimit="10" fill="none"/><path d="M151.523 111.465h8v11h-8zm0 0" fill="#fff"/><use xlink:href="#d" x="151.523" y="120.128" fill="#f00"/><path d="M159.066 147.953l17.89-2.047M161.336 151.957l14.316-1.637M151.895 164.473l7.17-16.52M176.957 145.906l10.72 14.473M187.676 160.38l-7.172 16.515M190.844 163.72l-5.74 13.21M205.602 162.094l-17.926-1.715M180.504 176.895l6.746 5.964" stroke-width="1.2" stroke="#000" stroke-miterlimit="10" fill="none"/><path d="M187.25 182.86l6.746 5.96" stroke-width="1.2" stroke="#00f" stroke-miterlimit="10" fill="none"/><path d="M180.504 176.895l-17.89 2.046" stroke-width="1.2" stroke="#000" stroke-miterlimit="10" fill="none"/><path d="M193.996 188.82l7.754-4.574" stroke-width="1.2" stroke="#00f" stroke-miterlimit="10" fill="none"/><path d="M201.75 184.246l7.758-4.57" stroke-width="1.2" stroke="#000" stroke-miterlimit="10" fill="none"/><path d="M186.996 183.32h14v11h-14zm0 0" fill="#fff"/><g fill="#00f"><use xlink:href="#c" x="186.996" y="191.983"/><use xlink:href="#e" x="193.974" y="191.983"/></g><path d="M209.508 179.676l-3.906-17.582M204.98 178.836l-3.125-14.063M205.602 162.094l11.925-13.492M219.535 147.93l-2.86-8.535" stroke-width="1.2" stroke="#000" stroke-miterlimit="10" fill="none"/><path d="M216.676 139.395l-2.86-8.54" stroke-width="1.2" stroke="#f00" stroke-miterlimit="10" fill="none"/><path d="M215.52 149.277l-2.86-8.54" stroke-width="1.2" stroke="#000" stroke-miterlimit="10" fill="none"/><path d="M212.66 140.738l-2.863-8.535" stroke-width="1.2" stroke="#f00" stroke-miterlimit="10" fill="none"/><path d="M217.527 148.602l17.65 3.582" stroke-width="1.2" stroke="#000" stroke-miterlimit="10" fill="none"/><path d="M203.805 126.027h8v11h-8zm0 0" fill="#fff"/><use xlink:href="#d" x="203.805" y="134.69" fill="#f00"/><path d="M233.168 152.86l2.86 8.535" stroke-width="1.2" stroke="#000" stroke-miterlimit="10" fill="none"/><path d="M236.027 161.395l2.864 8.54" stroke-width="1.2" stroke="#f00" stroke-miterlimit="10" fill="none"/><path d="M237.184 151.512l2.863 8.54" stroke-width="1.2" stroke="#000" stroke-miterlimit="10" fill="none"/><path d="M240.047 160.05l2.86 8.536" stroke-width="1.2" stroke="#f00" stroke-miterlimit="10" fill="none"/><path d="M235.176 152.184l5.965-6.746" stroke-width="1.2" stroke="#000" stroke-miterlimit="10" fill="none"/><path d="M241.14 145.438l5.962-6.747" stroke-width="1.2" stroke="#00f" stroke-miterlimit="10" fill="none"/><path d="M236.898 163.762h8v11h-8zm0 0" fill="#fff"/><use xlink:href="#d" x="236.898" y="172.425" fill="#f00"/><path d="M247.102 138.69l8.824 1.794" stroke-width="1.2" stroke="#00f" stroke-miterlimit="10" fill="none"/><path d="M255.926 140.484l8.824 1.79" stroke-width="1.2" stroke="#000" stroke-miterlimit="10" fill="none"/><path d="M247.102 138.69l-2.86-8.534" stroke-width="1.2" stroke="#00f" stroke-miterlimit="10" fill="none"/><path d="M244.242 130.156l-2.863-8.54" stroke-width="1.2" stroke="#000" stroke-miterlimit="10" fill="none"/><path d="M244.102 133.19h7v11h-7zm0 0" fill="#fff"/><use xlink:href="#c" x="244.102" y="141.854" fill="#00f"/><path d="M162.613 178.94l-10.718-14.467M164.945 174.973l-8.574-11.578" stroke-width="1.2" stroke="#000" stroke-miterlimit="10" fill="none"/></g></svg>