<svg xmlns="http://www.w3.org/2000/svg" xmlns:xlink="http://www.w3.org/1999/xlink" width="300pt" height="300pt" viewBox="0 0 300 300"><defs><symbol overflow="visible"><path d="M.547 1.938V-7.75h5.5v9.688zm.625-.61h4.266v-8.47H1.171zm0 0"/></symbol><symbol overflow="visible" id="a"><path d="M1.078-8.016h4.61v.907H2.171v2.36h3.172v.922H2.172V0H1.078zm0 0"/></symbol><symbol overflow="visible" id="b"><path d="M1.078-8.016h1.47l3.546 6.704v-6.704h1.062V0H5.688L2.124-6.703V0H1.078zm0 0"/></symbol></defs><g><path fill="#fff" d="M0 0h300v300H0z"/><path d="M35.25 114.887l14.074-.235" stroke-width="1.2" stroke="#3cc" stroke-miterlimit="10" fill="none"/><path d="M49.324 114.652l14.074-.234" stroke-width="1.2" stroke="#000" stroke-miterlimit="10" fill="none"/><path d="M28.25 108.387h7v13h-7zm0 0" fill="#fff"/><use xlink:href="#a" x="28.25" y="118.288" fill="#3cc"/><path d="M63.398 114.418l13.668-24.61M70.555 115.176l10.933-19.692M77.875 138.563l-14.477-24.145M77.066 89.81l28.15-.47M105.215 89.34l14.476 24.144M100.98 95.16l11.582 19.317M119.69 113.484l-13.667 24.61M119.69 113.484l28.15-.468M106.023 138.094l-28.148.47M103.098 131.516l-22.516.375M147.84 113.016l8.082-11.524" stroke-width="1.2" stroke="#000" stroke-miterlimit="10" fill="none"/><path d="M155.922 101.492l8.082-11.523" stroke-width="1.2" stroke="#00f" stroke-miterlimit="10" fill="none"/><path d="M154.88 114.516l6.464-9.22" stroke-width="1.2" stroke="#000" stroke-miterlimit="10" fill="none"/><path d="M161.344 105.297l6.47-9.22" stroke-width="1.2" stroke="#00f" stroke-miterlimit="10" fill="none"/><path d="M164.762 135.512l-16.922-22.496" stroke-width="1.2" stroke="#000" stroke-miterlimit="10" fill="none"/><path d="M164.004 89.97l26.914 8.253" stroke-width="1.2" stroke="#00f" stroke-miterlimit="10" fill="none"/><path d="M160.004 83.47h8v13h-8zm0 0" fill="#fff"/><use xlink:href="#b" x="160.004" y="93.37" fill="#00f"/><path d="M190.918 98.223l.234 14.074" stroke-width="1.2" stroke="#00f" stroke-miterlimit="10" fill="none"/><path d="M191.152 112.297l.235 14.074M215.063 83.746l-12.07 7.238" stroke-width="1.2" stroke="#000" stroke-miterlimit="10" fill="none"/><path d="M202.992 90.984l-12.074 7.24" stroke-width="1.2" stroke="#00f" stroke-miterlimit="10" fill="none"/><path d="M186.918 91.723h8v13h-8zm0 0" fill="#fff"/><use xlink:href="#b" x="186.918" y="101.624" fill="#00f"/><path d="M191.387 126.37l24.61 13.67M191.387 126.37l-26.625 9.142M186.574 121.02l-21.3 7.312M215.996 140.04l24.145-14.477M215.004 132.91l19.316-11.582M240.14 125.563l-.468-28.15M240.14 125.563l24.61 13.667M239.672 97.414l-24.61-13.668M233.996 101.836L214.31 90.902M164.762 135.512l-8.254 26.914M156.508 162.426l-27.434 6.312M155.25 169.512l-21.95 5.05M175.69 183.03l-19.182-20.604M129.074 168.738l-8.254 26.914M120.82 195.652l9.59 10.3" stroke-width="1.2" stroke="#000" stroke-miterlimit="10" fill="none"/><path d="M130.41 205.953l9.594 10.3" stroke-width="1.2" stroke="#00f" stroke-miterlimit="10" fill="none"/><path d="M127.586 193.2l7.672 8.24" stroke-width="1.2" stroke="#000" stroke-miterlimit="10" fill="none"/><path d="M135.258 201.44l7.676 8.244M140.004 216.254l13.715-3.152" stroke-width="1.2" stroke="#00f" stroke-miterlimit="10" fill="none"/><path d="M153.72 213.102l13.718-3.157" stroke-width="1.2" stroke="#000" stroke-miterlimit="10" fill="none"/><path d="M136.004 209.754h8v13h-8zm0 0" fill="#fff"/><use xlink:href="#b" x="136.004" y="219.655" fill="#00f"/><path d="M167.438 209.945l8.253-26.914M161.93 205.313l6.6-21.532" stroke-width="1.2" stroke="#000" stroke-miterlimit="10" fill="none"/></g></svg>