<svg xmlns="http://www.w3.org/2000/svg" xmlns:xlink="http://www.w3.org/1999/xlink" width="300pt" height="300pt" viewBox="0 0 300 300"><defs><symbol overflow="visible"><path d="M.453 1.594v-7.938h4.5v7.938zm.5-.5h3.5v-6.938h-3.5zm0 0"/></symbol><symbol overflow="visible" id="a"><path d="M4.813-6.344v.86c-.336-.157-.653-.27-.954-.344-.294-.082-.58-.125-.86-.125-.492 0-.867.094-1.125.28-.262.19-.39.454-.39.798 0 .293.085.512.265.656.176.15.504.267.984.36l.547.11c.658.125 1.142.352 1.454.672.32.312.485.734.485 1.265 0 .637-.216 1.122-.642 1.454-.43.325-1.055.485-1.875.485-.312 0-.648-.04-1-.11C1.36-.046 1-.147.625-.296v-.906c.352.2.703.35 1.047.453.35.105.695.156 1.03.156.5 0 .884-.097 1.157-.297.28-.196.42-.485.42-.86 0-.32-.1-.57-.296-.75-.2-.176-.523-.313-.968-.406l-.547-.11C1.81-3.148 1.33-3.36 1.03-3.64.74-3.923.595-4.313.595-4.813c0-.57.203-1.024.61-1.36.405-.344.968-.516 1.687-.516.313 0 .626.032.938.094.32.055.65.137.985.25zm0 0"/></symbol><symbol overflow="visible" id="b"><path d="M.89-6.563H2.08l2.906 5.485v-5.484h.86V0H4.656L1.75-5.484V0H.89zm0 0"/></symbol><symbol overflow="visible" id="c"><path d="M.89-6.563h.876v2.688H5v-2.688h.89V0H5v-3.125H1.766V0H.89zm0 0"/></symbol><symbol overflow="visible" id="d"><path d="M3.547-5.953c-.65 0-1.164.242-1.547.72-.375.48-.563 1.13-.563 1.952 0 .835.188 1.49.563 1.967.383.48.898.72 1.547.72.644 0 1.156-.24 1.53-.72.376-.476.564-1.132.564-1.968 0-.822-.187-1.474-.562-1.954-.375-.477-.887-.72-1.53-.72zm0-.734c.914 0 1.648.312 2.203.937.55.617.828 1.438.828 2.47 0 1.042-.277 1.87-.828 2.483-.555.617-1.29.922-2.203.922-.93 0-1.668-.305-2.22-.922C.774-1.41.5-2.237.5-3.28c0-1.033.273-1.853.828-2.47.55-.625 1.29-.938 2.22-.938zm0 0"/></symbol></defs><g><path fill="#fff" d="M0 0h300v300H0z"/><path d="M141.824 157.652l6.8-7.55" stroke-width="1.2" stroke="#cc0" stroke-miterlimit="10" fill="none"/><path d="M148.625 150.102l6.8-7.55M123.258 149.38l9.28 4.136" stroke-width="1.2" stroke="#000" stroke-miterlimit="10" fill="none"/><path d="M132.54 153.516l9.284 4.136" stroke-width="1.2" stroke="#cc0" stroke-miterlimit="10" fill="none"/><path d="M138.824 152.152h6v11h-6zm0 0" fill="#fff"/><use xlink:href="#a" x="138.824" y="160.815" fill="#cc0"/><path d="M155.426 142.55l-10.16-17.605M150.27 143.18l-8.13-14.082M155.426 142.55l20.21 2.13M145.266 124.945l-9.938 2.114" stroke-width="1.2" stroke="#000" stroke-miterlimit="10" fill="none"/><path d="M135.328 127.06l-9.94 2.108M125.387 129.168l-1.067 10.105" stroke-width="1.2" stroke="#00f" stroke-miterlimit="10" fill="none"/><path d="M124.32 139.273l-1.062 10.106" stroke-width="1.2" stroke="#000" stroke-miterlimit="10" fill="none"/><path d="M129.93 131.69l-.852 8.083" stroke-width="1.2" stroke="#00f" stroke-miterlimit="10" fill="none"/><path d="M129.078 139.773l-.85 8.086" stroke-width="1.2" stroke="#000" stroke-miterlimit="10" fill="none"/><path d="M122.387 123.668h7v11h-7zm0 0" fill="#fff"/><use xlink:href="#b" x="122.387" y="132.331" fill="#00f"/><path d="M123.258 149.38l-8.8 5.08" stroke-width="1.2" stroke="#000" stroke-miterlimit="10" fill="none"/><path d="M114.457 154.46l-8.8 5.08M105.656 159.54l-8.8-5.083" stroke-width="1.2" stroke="#00f" stroke-miterlimit="10" fill="none"/><path d="M96.855 154.457l-8.8-5.082" stroke-width="1.2" stroke="#000" stroke-miterlimit="10" fill="none"/><path d="M98.656 154.04h14v11h-14zm0 0" fill="#fff"/><g fill="#00f"><use xlink:href="#b" x="98.656" y="162.702"/><use xlink:href="#c" x="105.634" y="162.702"/></g><path d="M88.055 149.375L70.453 159.53M70.453 159.53l-8.8-5.08" stroke-width="1.2" stroke="#000" stroke-miterlimit="10" fill="none"/><path d="M61.652 154.45l-8.8-5.083M52.852 149.367l-8.8 5.078" stroke-width="1.2" stroke="#f00" stroke-miterlimit="10" fill="none"/><path d="M44.05 154.445l-8.8 5.078" stroke-width="1.2" stroke="#000" stroke-miterlimit="10" fill="none"/><path d="M48.852 143.867h8v11h-8zm0 0" fill="#fff"/><use xlink:href="#d" x="48.852" y="152.53" fill="#f00"/><path d="M173.453 145.652l4.133 9.282" stroke-width="1.2" stroke="#000" stroke-miterlimit="10" fill="none"/><path d="M177.586 154.934l4.13 9.285" stroke-width="1.2" stroke="#f00" stroke-miterlimit="10" fill="none"/><path d="M177.824 143.707l4.13 9.285" stroke-width="1.2" stroke="#000" stroke-miterlimit="10" fill="none"/><path d="M181.953 152.992l4.133 9.28" stroke-width="1.2" stroke="#f00" stroke-miterlimit="10" fill="none"/><path d="M175.637 144.68l5.976-8.223" stroke-width="1.2" stroke="#000" stroke-miterlimit="10" fill="none"/><path d="M181.613 136.457l5.973-8.22" stroke-width="1.2" stroke="#00f" stroke-miterlimit="10" fill="none"/><path d="M179.902 157.746h8v11h-8zm0 0" fill="#fff"/><use xlink:href="#d" x="179.902" y="166.409" fill="#f00"/><path d="M187.586 128.238l10.11 1.063" stroke-width="1.2" stroke="#00f" stroke-miterlimit="10" fill="none"/><path d="M197.695 129.3l10.106 1.067" stroke-width="1.2" stroke="#000" stroke-miterlimit="10" fill="none"/><path d="M180.586 122.738h14v11h-14zm0 0" fill="#fff"/><g fill="#00f"><use xlink:href="#b" x="180.586" y="131.401"/><use xlink:href="#c" x="187.563" y="131.401"/></g><path d="M207.8 130.367l8.262 18.57M212.996 130.28l6.61 14.853M219.75 113.926l-11.95 16.44M216.063 148.938l20.21 2.125M236.273 151.063l11.95-16.438M233.602 146.61l9.558-13.153M236.273 151.063l8.266 18.57M248.223 134.625l-8.262-18.57M239.96 116.055l-20.21-2.13M237.44 120.598l-16.17-1.703M219.75 113.926l-8.262-18.567M244.29 172.012l10.105 1.062" stroke-width="1.2" stroke="#000" stroke-miterlimit="10" fill="none"/><path d="M254.395 173.074l10.105 1.067" stroke-width="1.2" stroke="#f00" stroke-miterlimit="10" fill="none"/><path d="M244.79 167.254l10.105 1.066" stroke-width="1.2" stroke="#000" stroke-miterlimit="10" fill="none"/><path d="M254.895 168.32L265 169.383" stroke-width="1.2" stroke="#f00" stroke-miterlimit="10" fill="none"/><path d="M244.54 169.633l-5.977 8.22" stroke-width="1.2" stroke="#000" stroke-miterlimit="10" fill="none"/><path d="M238.563 177.852l-5.973 8.222" stroke-width="1.2" stroke="#00f" stroke-miterlimit="10" fill="none"/><path d="M260.75 166.262h8v11h-8zm0 0" fill="#fff"/><use xlink:href="#d" x="260.75" y="174.925" fill="#f00"/><path d="M232.59 186.074l4.13 9.28" stroke-width="1.2" stroke="#00f" stroke-miterlimit="10" fill="none"/><path d="M236.72 195.355l4.132 9.286" stroke-width="1.2" stroke="#000" stroke-miterlimit="10" fill="none"/><path d="M225.59 180.574h14v11h-14zm0 0" fill="#fff"/><g fill="#00f"><use xlink:href="#b" x="225.59" y="189.237"/><use xlink:href="#c" x="232.567" y="189.237"/></g></g></svg>