<svg xmlns="http://www.w3.org/2000/svg" xmlns:xlink="http://www.w3.org/1999/xlink" width="300pt" height="300pt" viewBox="0 0 300 300"><defs><symbol overflow="visible"><path d="M.453 1.594v-7.938h4.5v7.938zm.5-.5h3.5v-6.938h-3.5zm0 0"/></symbol><symbol overflow="visible" id="a"><path d="M5.797-6.063v.938c-.305-.27-.625-.473-.97-.61-.335-.144-.686-.218-1.06-.218-.75 0-1.33.23-1.736.687-.397.46-.592 1.12-.592 1.985 0 .866.195 1.526.593 1.983.408.46.986.688 1.736.688.375 0 .726-.066 1.062-.203.344-.132.664-.343.97-.625V-.5c-.314.21-.642.367-.986.47-.343.1-.714.155-1.11.155-.99 0-1.772-.3-2.343-.906C.784-1.396.5-2.228.5-3.28c0-1.052.285-1.88.86-2.486.57-.613 1.35-.92 2.343-.92.395-.002.766.053 1.11.155.35.104.68.26.984.468zm0 0"/></symbol><symbol overflow="visible" id="b"><path d="M.844-6.844h.812V0H.844zm0 0"/></symbol><symbol overflow="visible" id="c"><path d="M.89-6.563H2.08l2.906 5.485v-5.484h.86V0H4.656L1.75-5.484V0H.89zm0 0"/></symbol><symbol overflow="visible" id="d"><path d="M.89-6.563h3.766v.75h-2.89v1.938h2.61v.734h-2.61V0H.89zm0 0"/></symbol><symbol overflow="visible" id="e"><path d="M.89-6.563h.876v2.688H5v-2.688h.89V0H5v-3.125H1.766V0H.89zm0 0"/></symbol><symbol overflow="visible" id="f"><path d="M3.547-5.953c-.65 0-1.164.242-1.547.72-.375.48-.563 1.13-.563 1.952 0 .835.188 1.49.563 1.967.383.48.898.72 1.547.72.644 0 1.156-.24 1.53-.72.376-.476.564-1.132.564-1.968 0-.822-.187-1.474-.562-1.954-.375-.477-.887-.72-1.53-.72zm0-.734c.914 0 1.648.312 2.203.937.55.617.828 1.438.828 2.47 0 1.042-.277 1.87-.828 2.483-.555.617-1.29.922-2.203.922-.93 0-1.668-.305-2.22-.922C.774-1.41.5-2.237.5-3.28c0-1.033.273-1.853.828-2.47.55-.625 1.29-.938 2.22-.938zm0 0"/></symbol></defs><g><path fill="#fff" d="M0 0h300v300H0z"/><path d="M257.82 193.313l-7.496-6.325" stroke-width="1.2" stroke="#0c0" stroke-miterlimit="10" fill="none"/><path d="M250.324 186.988l-7.492-6.328" stroke-width="1.2" stroke="#000" stroke-miterlimit="10" fill="none"/><path d="M252.82 187.813h10v11h-10zm0 0" fill="#fff"/><g fill="#0c0"><use xlink:href="#a" x="252.82" y="196.476"/><use xlink:href="#b" x="259.334" y="196.476"/></g><path d="M242.832 180.66l-18.453 6.653M239.422 176.984l-14.766 5.32M246.297 161.352l-3.465 19.308M224.38 187.313l-14.99-12.657M209.39 174.656l-9.226 3.328" stroke-width="1.2" stroke="#000" stroke-miterlimit="10" fill="none"/><path d="M200.164 177.984l-9.226 3.328" stroke-width="1.2" stroke="#00f" stroke-miterlimit="10" fill="none"/><path d="M205.98 170.98l-7.382 2.66" stroke-width="1.2" stroke="#000" stroke-miterlimit="10" fill="none"/><path d="M198.598 173.64l-7.383 2.665" stroke-width="1.2" stroke="#00f" stroke-miterlimit="10" fill="none"/><path d="M212.855 155.352l-3.464 19.304" stroke-width="1.2" stroke="#000" stroke-miterlimit="10" fill="none"/><path d="M190.938 181.313l-7.497-6.33" stroke-width="1.2" stroke="#00f" stroke-miterlimit="10" fill="none"/><path d="M183.44 174.984l-7.49-6.328" stroke-width="1.2" stroke="#000" stroke-miterlimit="10" fill="none"/><path d="M187.938 175.813h7v11h-7zm0 0" fill="#fff"/><use xlink:href="#c" x="187.938" y="184.476" fill="#00f"/><path d="M175.95 168.656l3.464-19.308M180.836 167.54l2.773-15.446M175.95 168.656l-18.454 6.653M179.414 149.348l9.227-3.325" stroke-width="1.2" stroke="#000" stroke-miterlimit="10" fill="none"/><path d="M188.64 146.023l9.227-3.328" stroke-width="1.2" stroke="#00f" stroke-miterlimit="10" fill="none"/><path d="M179.414 149.348l-14.988-12.653" stroke-width="1.2" stroke="#000" stroke-miterlimit="10" fill="none"/><path d="M197.867 142.695l7.492 6.328" stroke-width="1.2" stroke="#00f" stroke-miterlimit="10" fill="none"/><path d="M205.36 149.023l7.495 6.33" stroke-width="1.2" stroke="#000" stroke-miterlimit="10" fill="none"/><path d="M196.387 147.488l5.996 5.063" stroke-width="1.2" stroke="#00f" stroke-miterlimit="10" fill="none"/><path d="M202.383 152.55l5.996 5.06" stroke-width="1.2" stroke="#000" stroke-miterlimit="10" fill="none"/><path d="M194.867 137.195h7v11h-7zm0 0" fill="#fff"/><use xlink:href="#c" x="194.867" y="145.858" fill="#00f"/><path d="M212.855 155.352l18.454-6.657M231.31 148.695l14.987 12.657M229.828 153.488l11.992 10.125M246.297 161.352l9.226-3.33" stroke-width="1.2" stroke="#000" stroke-miterlimit="10" fill="none"/><path d="M255.523 158.023l9.227-3.324" stroke-width="1.2" stroke="#0c0" stroke-miterlimit="10" fill="none"/><path d="M259.75 149.2h10v11h-10zm0 0" fill="#fff"/><g fill="#0c0"><use xlink:href="#a" x="259.75" y="157.862"/><use xlink:href="#b" x="266.264" y="157.862"/></g><path d="M164.426 136.695l3.465-19.308M160.227 133.95L163 118.5M145.973 143.348l18.453-6.653M167.89 117.387l-14.988-12.657M152.902 104.73l-18.457 6.653M152.62 109.738l-14.76 5.325M134.445 111.383l-7.492-6.324" stroke-width="1.2" stroke="#000" stroke-miterlimit="10" fill="none"/><path d="M126.953 105.06l-7.496-6.33" stroke-width="1.2" stroke="#3cc" stroke-miterlimit="10" fill="none"/><path d="M134.445 111.383l-3.465 19.308" stroke-width="1.2" stroke="#000" stroke-miterlimit="10" fill="none"/><path d="M113.457 93.23h6v11h-6zm0 0" fill="#fff"/><use xlink:href="#d" x="113.457" y="101.894" fill="#3cc"/><path d="M130.98 130.69l14.993 12.658M135.457 128.43l11.992 10.125M157.496 175.31l-14.992-12.654M153.02 177.57l-11.993-10.125M154.027 194.617l3.47-19.308M142.504 162.656l-18.453 6.653M124.05 169.31l-1.73 9.65" stroke-width="1.2" stroke="#000" stroke-miterlimit="10" fill="none"/><path d="M122.32 178.96l-1.734 9.657" stroke-width="1.2" stroke="#00f" stroke-miterlimit="10" fill="none"/><path d="M128.25 172.055l-1.387 7.722" stroke-width="1.2" stroke="#000" stroke-miterlimit="10" fill="none"/><path d="M126.863 179.777l-1.386 7.723" stroke-width="1.2" stroke="#00f" stroke-miterlimit="10" fill="none"/><path d="M124.05 169.31l-7.49-6.33" stroke-width="1.2" stroke="#000" stroke-miterlimit="10" fill="none"/><path d="M116.56 162.98l-7.498-6.328M120.586 188.617l7.496 6.324" stroke-width="1.2" stroke="#00f" stroke-miterlimit="10" fill="none"/><path d="M128.082 194.94l7.492 6.33" stroke-width="1.2" stroke="#000" stroke-miterlimit="10" fill="none"/><path d="M117.586 183.117h7v11h-7zm0 0" fill="#fff"/><use xlink:href="#c" x="117.586" y="191.78" fill="#00f"/><path d="M135.574 201.27l18.453-6.653M135.855 196.262l14.762-5.32" stroke-width="1.2" stroke="#000" stroke-miterlimit="10" fill="none"/><path d="M109.063 156.652l-9.227 3.328" stroke-width="1.2" stroke="#00f" stroke-miterlimit="10" fill="none"/><path d="M99.836 159.98l-9.227 3.325" stroke-width="1.2" stroke="#000" stroke-miterlimit="10" fill="none"/><path d="M102.063 151.152h14v11h-14zm0 0" fill="#fff"/><g fill="#00f"><use xlink:href="#c" x="102.063" y="159.815"/><use xlink:href="#e" x="109.04" y="159.815"/></g><path d="M90.61 163.305l-14.99-12.653M87.145 182.613l3.464-19.308M75.62 150.652l-18.452 6.653M57.168 157.305l-3.465 19.308M53.703 176.613l-9.226 3.325" stroke-width="1.2" stroke="#000" stroke-miterlimit="10" fill="none"/><path d="M44.477 179.938l-9.227 3.328" stroke-width="1.2" stroke="#f00" stroke-miterlimit="10" fill="none"/><path d="M53.703 176.613l14.988 12.653" stroke-width="1.2" stroke="#000" stroke-miterlimit="10" fill="none"/><path d="M20.25 177.766h15v11h-15zm0 0" fill="#fff"/><g fill="#f00"><use xlink:href="#e" x="20.25" y="186.429"/><use xlink:href="#f" x="27.265" y="186.429"/></g><path d="M68.69 189.266l18.455-6.653" stroke-width="1.2" stroke="#000" stroke-miterlimit="10" fill="none"/></g></svg>