<svg xmlns="http://www.w3.org/2000/svg" xmlns:xlink="http://www.w3.org/1999/xlink" width="300pt" height="300pt" viewBox="0 0 300 300"><defs><symbol overflow="visible"><path d="M.453 1.594v-7.938h4.5v7.938zm.5-.5h3.5v-6.938h-3.5zm0 0"/></symbol><symbol overflow="visible" id="a"><path d="M.89-6.563h3.766v.75h-2.89v1.938h2.61v.734h-2.61V0H.89zm0 0"/></symbol><symbol overflow="visible" id="b"><path d="M.89-6.563H2.08l2.906 5.485v-5.484h.86V0H4.656L1.75-5.484V0H.89zm0 0"/></symbol><symbol overflow="visible" id="c"><path d="M3.547-5.953c-.65 0-1.164.242-1.547.72-.375.48-.563 1.13-.563 1.952 0 .835.188 1.49.563 1.967.383.48.898.72 1.547.72.644 0 1.156-.24 1.53-.72.376-.476.564-1.132.564-1.968 0-.822-.187-1.474-.562-1.954-.375-.477-.887-.72-1.53-.72zm0-.734c.914 0 1.648.312 2.203.937.55.617.828 1.438.828 2.47 0 1.042-.277 1.87-.828 2.483-.555.617-1.29.922-2.203.922-.93 0-1.668-.305-2.22-.922C.774-1.41.5-2.237.5-3.28c0-1.033.273-1.853.828-2.47.55-.625 1.29-.938 2.22-.938zm0 0"/></symbol></defs><g><path fill="#fff" d="M0 0h300v300H0z"/><path d="M72.78 187.922l.138-11.07" stroke-width="1.2" stroke="#3cc" stroke-miterlimit="10" fill="none"/><path d="M72.918 176.852l.133-11.067" stroke-width="1.2" stroke="#000" stroke-miterlimit="10" fill="none"/><path d="M69.78 182.422h6v11h-6zm0 0" fill="#fff"/><use xlink:href="#a" x="69.781" y="191.085" fill="#3cc"/><path d="M73.05 165.785l-19.034-11.3M73.805 160.176l-15.227-9.04M92.355 154.95L73.05 165.784M54.016 154.484l.27-22.136M54.285 132.348l-9.515-5.65" stroke-width="1.2" stroke="#000" stroke-miterlimit="10" fill="none"/><path d="M44.77 126.7l-9.52-5.653" stroke-width="1.2" stroke="#3cc" stroke-miterlimit="10" fill="none"/><path d="M54.285 132.348l19.305-10.832M58.766 135.81l15.44-8.67" stroke-width="1.2" stroke="#000" stroke-miterlimit="10" fill="none"/><path d="M29.25 115.547h6v11h-6zm0 0" fill="#fff"/><use xlink:href="#a" x="29.25" y="124.21" fill="#3cc"/><path d="M73.59 121.516l19.035 11.3M92.625 132.816l-.27 22.133M87.39 134.965l-.214 17.707M92.355 154.95l19.036 11.3M111.39 166.25l-.132 11.07" stroke-width="1.2" stroke="#000" stroke-miterlimit="10" fill="none"/><path d="M111.258 177.32l-.137 11.067" stroke-width="1.2" stroke="#00f" stroke-miterlimit="10" fill="none"/><path d="M116.57 168.527l-.105 8.856" stroke-width="1.2" stroke="#000" stroke-miterlimit="10" fill="none"/><path d="M116.465 177.383l-.11 8.855" stroke-width="1.2" stroke="#00f" stroke-miterlimit="10" fill="none"/><path d="M130.695 155.418L111.39 166.25" stroke-width="1.2" stroke="#000" stroke-miterlimit="10" fill="none"/><path d="M111.12 188.387l19.036 11.3" stroke-width="1.2" stroke="#00f" stroke-miterlimit="10" fill="none"/><path d="M108.12 182.887h7v11h-7zm0 0" fill="#fff"/><use xlink:href="#b" x="108.121" y="191.55" fill="#00f"/><path d="M130.156 199.688l9.653-5.418" stroke-width="1.2" stroke="#00f" stroke-miterlimit="10" fill="none"/><path d="M139.81 194.27l9.65-5.415" stroke-width="1.2" stroke="#000" stroke-miterlimit="10" fill="none"/><path d="M129.54 194.063l7.718-4.333" stroke-width="1.2" stroke="#00f" stroke-miterlimit="10" fill="none"/><path d="M137.258 189.73l7.722-4.335" stroke-width="1.2" stroke="#000" stroke-miterlimit="10" fill="none"/><path d="M127.156 194.188h7v11h-7zm0 0" fill="#fff"/><use xlink:href="#b" x="127.156" y="202.851" fill="#00f"/><path d="M149.46 188.855l.27-22.136M149.73 166.72l19.305-10.837M130.695 155.418l19.035 11.3M129.94 161.027l15.228 9.04M169.035 155.883l.27-22.133M163.855 153.605l.215-17.707M169.305 133.75l19.304-10.836M169.305 133.75l-19.035-11.3M188.61 122.914l19.035 11.3M207.645 134.215l-.27 22.137M212.824 136.492l-.215 17.707M226.95 123.38l-19.305 10.835M207.375 156.352l19.035 11.3M226.41 167.652l19.305-10.836M225.793 162.027l15.44-8.668M245.715 156.816l9.515 5.653" stroke-width="1.2" stroke="#000" stroke-miterlimit="10" fill="none"/><path d="M255.23 162.47l9.52 5.647" stroke-width="1.2" stroke="#3cc" stroke-miterlimit="10" fill="none"/><path d="M245.715 156.816l.27-22.136" stroke-width="1.2" stroke="#000" stroke-miterlimit="10" fill="none"/><path d="M261.75 162.617h6v11h-6zm0 0" fill="#fff"/><use xlink:href="#a" x="261.75" y="171.28" fill="#3cc"/><path d="M245.984 134.68l-19.035-11.3M241.422 138.03l-15.227-9.042M152.875 122.48l.133-11.07" stroke-width="1.2" stroke="#000" stroke-miterlimit="10" fill="none"/><path d="M153.008 111.41l.137-11.066" stroke-width="1.2" stroke="#f00" stroke-miterlimit="10" fill="none"/><path d="M147.664 122.414l.137-11.066" stroke-width="1.2" stroke="#000" stroke-miterlimit="10" fill="none"/><path d="M147.8 111.348l.134-11.067" stroke-width="1.2" stroke="#f00" stroke-miterlimit="10" fill="none"/><path d="M150.27 122.45l-9.653 5.413" stroke-width="1.2" stroke="#000" stroke-miterlimit="10" fill="none"/><path d="M140.617 127.863l-9.652 5.418" stroke-width="1.2" stroke="#00f" stroke-miterlimit="10" fill="none"/><path d="M146.54 94.813h8v11h-8zm0 0" fill="#fff"/><use xlink:href="#c" x="146.539" y="103.476" fill="#f00"/><path d="M130.965 133.28l-.133 11.068" stroke-width="1.2" stroke="#00f" stroke-miterlimit="10" fill="none"/><path d="M130.832 144.348l-.137 11.07" stroke-width="1.2" stroke="#000" stroke-miterlimit="10" fill="none"/><path d="M130.965 133.28l-9.52-5.647" stroke-width="1.2" stroke="#00f" stroke-miterlimit="10" fill="none"/><path d="M121.445 127.633l-9.515-5.653" stroke-width="1.2" stroke="#000" stroke-miterlimit="10" fill="none"/><path d="M127.965 127.78h7v11h-7zm0 0" fill="#fff"/><use xlink:href="#b" x="127.965" y="136.444" fill="#00f"/></g></svg>