<svg xmlns="http://www.w3.org/2000/svg" xmlns:xlink="http://www.w3.org/1999/xlink" width="300pt" height="300pt" viewBox="0 0 300 300"><defs><symbol overflow="visible"><path d="M.453 1.594v-7.938h4.5v7.938zm.5-.5h3.5v-6.938h-3.5zm0 0"/></symbol><symbol overflow="visible" id="a"><path d="M3.547-5.953c-.65 0-1.164.242-1.547.72-.375.48-.563 1.13-.563 1.952 0 .835.188 1.49.563 1.967.383.48.898.72 1.547.72.644 0 1.156-.24 1.53-.72.376-.476.564-1.132.564-1.968 0-.822-.187-1.474-.562-1.954-.375-.477-.887-.72-1.53-.72zm0-.734c.914 0 1.648.312 2.203.937.55.617.828 1.438.828 2.47 0 1.042-.277 1.87-.828 2.483-.555.617-1.29.922-2.203.922-.93 0-1.668-.305-2.22-.922C.774-1.41.5-2.237.5-3.28c0-1.033.273-1.853.828-2.47.55-.625 1.29-.938 2.22-.938zm0 0"/></symbol><symbol overflow="visible" id="b"><path d="M.89-6.563H2.08l2.906 5.485v-5.484h.86V0H4.656L1.75-5.484V0H.89zm0 0"/></symbol><symbol overflow="visible" id="c"><path d="M.89-6.563h.876v2.688H5v-2.688h.89V0H5v-3.125H1.766V0H.89zm0 0"/></symbol></defs><g><path fill="#fff" d="M0 0h300v300H0z"/><path d="M238.523 182.105l7.918-1.652" stroke-width="1.2" stroke="#f00" stroke-miterlimit="10" fill="none"/><path d="M246.44 180.453l7.92-1.648" stroke-width="1.2" stroke="#000" stroke-miterlimit="10" fill="none"/><path d="M237.746 178.38l7.918-1.653" stroke-width="1.2" stroke="#f00" stroke-miterlimit="10" fill="none"/><path d="M245.664 176.727l7.922-1.65" stroke-width="1.2" stroke="#000" stroke-miterlimit="10" fill="none"/><path d="M230.133 174.742h8v11h-8zm0 0" fill="#fff"/><use xlink:href="#a" x="230.133" y="183.405" fill="#f00"/><path d="M253.973 176.94l2.53-7.682" stroke-width="1.2" stroke="#000" stroke-miterlimit="10" fill="none"/><path d="M256.504 169.258l2.53-7.684" stroke-width="1.2" stroke="#00f" stroke-miterlimit="10" fill="none"/><path d="M253.973 176.94l10.777 12.068" stroke-width="1.2" stroke="#000" stroke-miterlimit="10" fill="none"/><path d="M259.035 161.574l-5.39-6.03" stroke-width="1.2" stroke="#00f" stroke-miterlimit="10" fill="none"/><path d="M253.645 155.543l-5.387-6.035" stroke-width="1.2" stroke="#000" stroke-miterlimit="10" fill="none"/><path d="M252.035 156.074h14v11h-14zm0 0" fill="#fff"/><g fill="#00f"><use xlink:href="#b" x="252.035" y="164.737"/><use xlink:href="#c" x="259.013" y="164.737"/></g><path d="M248.258 149.508l-15.84 3.3M245.898 146.113l-12.67 2.637M253.316 134.14l-5.058 15.368M232.418 152.81L221.64 140.74M221.64 140.742l5.063-15.367M218.53 138.016l4.052-12.293M205.805 144.043l15.836-3.3M226.703 125.375l-5.39-6.03" stroke-width="1.2" stroke="#000" stroke-miterlimit="10" fill="none"/><path d="M221.313 119.344l-5.387-6.035" stroke-width="1.2" stroke="#00f" stroke-miterlimit="10" fill="none"/><path d="M226.703 125.375l15.836-3.3" stroke-width="1.2" stroke="#000" stroke-miterlimit="10" fill="none"/><path d="M215.926 113.31l-7.918 1.647" stroke-width="1.2" stroke="#00f" stroke-miterlimit="10" fill="none"/><path d="M208.008 114.957l-7.922 1.652" stroke-width="1.2" stroke="#000" stroke-miterlimit="10" fill="none"/><path d="M215.117 117.367l-6.336 1.32" stroke-width="1.2" stroke="#00f" stroke-miterlimit="10" fill="none"/><path d="M208.78 118.688l-6.335 1.316" stroke-width="1.2" stroke="#000" stroke-miterlimit="10" fill="none"/><path d="M212.926 107.81h7v11h-7zm0 0" fill="#fff"/><use xlink:href="#b" x="212.926" y="116.472" fill="#00f"/><path d="M200.086 116.61l-2.53 7.683" stroke-width="1.2" stroke="#000" stroke-miterlimit="10" fill="none"/><path d="M197.555 124.293l-2.528 7.684M195.027 131.977l5.387 6.03" stroke-width="1.2" stroke="#00f" stroke-miterlimit="10" fill="none"/><path d="M200.414 138.008l5.39 6.035" stroke-width="1.2" stroke="#000" stroke-miterlimit="10" fill="none"/><path d="M198.94 130.645l4.314 4.828" stroke-width="1.2" stroke="#00f" stroke-miterlimit="10" fill="none"/><path d="M203.254 135.473l4.31 4.828" stroke-width="1.2" stroke="#000" stroke-miterlimit="10" fill="none"/><path d="M192.027 126.477h7v11h-7zm0 0" fill="#fff"/><use xlink:href="#b" x="192.027" y="135.14" fill="#00f"/><path d="M205.805 144.043l-2.532 7.684" stroke-width="1.2" stroke="#000" stroke-miterlimit="10" fill="none"/><path d="M203.273 151.727l-2.53 7.683M200.742 159.41l-7.922 1.65" stroke-width="1.2" stroke="#00f" stroke-miterlimit="10" fill="none"/><path d="M192.82 161.06l-7.918 1.647" stroke-width="1.2" stroke="#000" stroke-miterlimit="10" fill="none"/><path d="M193.742 153.91h14v11h-14zm0 0" fill="#fff"/><g fill="#00f"><use xlink:href="#b" x="193.742" y="162.573"/><use xlink:href="#c" x="200.72" y="162.573"/></g><path d="M184.902 162.707l-10.777-12.066M180.984 164.04l-8.62-9.657M179.84 178.074l5.062-15.367M174.125 150.64l-15.836 3.3M158.29 153.94l-5.063 15.37M161.398 156.668l-4.05 12.297M153.227 169.31l-7.918 1.647" stroke-width="1.2" stroke="#000" stroke-miterlimit="10" fill="none"/><path d="M145.31 170.957l-7.923 1.652" stroke-width="1.2" stroke="#00f" stroke-miterlimit="10" fill="none"/><path d="M153.227 169.31l10.777 12.065" stroke-width="1.2" stroke="#000" stroke-miterlimit="10" fill="none"/><path d="M137.387 172.61L132 166.573" stroke-width="1.2" stroke="#00f" stroke-miterlimit="10" fill="none"/><path d="M132 166.574l-5.39-6.03" stroke-width="1.2" stroke="#000" stroke-miterlimit="10" fill="none"/><path d="M130.387 167.11h14v11h-14zm0 0" fill="#fff"/><g fill="#00f"><use xlink:href="#b" x="130.387" y="175.772"/><use xlink:href="#c" x="137.364" y="175.772"/></g><path d="M128.418 161.137l2.53-7.684" stroke-width="1.2" stroke="#000" stroke-miterlimit="10" fill="none"/><path d="M130.95 153.453l2.53-7.683" stroke-width="1.2" stroke="#f00" stroke-miterlimit="10" fill="none"/><path d="M124.8 159.945l2.532-7.683" stroke-width="1.2" stroke="#000" stroke-miterlimit="10" fill="none"/><path d="M127.332 152.262l2.53-7.68" stroke-width="1.2" stroke="#f00" stroke-miterlimit="10" fill="none"/><path d="M126.61 160.543l-7.92 1.648" stroke-width="1.2" stroke="#000" stroke-miterlimit="10" fill="none"/><path d="M118.69 162.19l-7.917 1.654" stroke-width="1.2" stroke="#00f" stroke-miterlimit="10" fill="none"/><path d="M127.672 139.676h8v11h-8zm0 0" fill="#fff"/><use xlink:href="#a" x="127.672" y="148.339" fill="#f00"/><path d="M110.773 163.844l-5.39-6.035" stroke-width="1.2" stroke="#00f" stroke-miterlimit="10" fill="none"/><path d="M105.383 157.81l-5.387-6.033" stroke-width="1.2" stroke="#000" stroke-miterlimit="10" fill="none"/><path d="M103.773 158.344h14v11h-14zm0 0" fill="#fff"/><g fill="#00f"><use xlink:href="#b" x="103.773" y="167.007"/><use xlink:href="#c" x="110.751" y="167.007"/></g><path d="M99.996 151.777l-8.05.813" stroke-width="1.2" stroke="#000" stroke-miterlimit="10" fill="none"/><path d="M91.945 152.59l-8.047.812" stroke-width="1.2" stroke="#00f" stroke-miterlimit="10" fill="none"/><path d="M103.422 135.965l-3.426 15.812M99.36 136.738l-2.743 12.65" stroke-width="1.2" stroke="#000" stroke-miterlimit="10" fill="none"/><path d="M83.898 153.402l-6.52-14.804M83.898 153.402l-4.074 6.99" stroke-width="1.2" stroke="#00f" stroke-miterlimit="10" fill="none"/><path d="M79.824 160.39l-4.07 6.993" stroke-width="1.2" stroke="#000" stroke-miterlimit="10" fill="none"/><path d="M80.898 147.902h7v11h-7zm0 0" fill="#fff"/><use xlink:href="#b" x="80.898" y="156.565" fill="#00f"/><path d="M77.38 138.598l6.03-5.39" stroke-width="1.2" stroke="#00f" stroke-miterlimit="10" fill="none"/><path d="M83.41 133.207l6.035-5.387" stroke-width="1.2" stroke="#000" stroke-miterlimit="10" fill="none"/><path d="M81.12 140.36l4.825-4.313" stroke-width="1.2" stroke="#00f" stroke-miterlimit="10" fill="none"/><path d="M85.945 136.047l4.828-4.313" stroke-width="1.2" stroke="#000" stroke-miterlimit="10" fill="none"/><path d="M74.38 133.098h7v11h-7zm0 0" fill="#fff"/><use xlink:href="#b" x="74.379" y="141.761" fill="#00f"/><path d="M89.445 127.82l13.977 8.145M89.445 127.82l-1.63-16.097M87.816 111.723l16.098-1.625M87.816 111.723l-16.097 1.625M87.816 111.723L86.19 95.625M75.754 167.383l-16.18-.067M74.12 171.18l-12.944-.05M83.785 181.426l-8.03-14.043M59.574 167.316l-8.144 13.977M51.43 181.293l8.03 14.043M55.535 180.81l6.426 11.233M51.43 181.293l-16.18-.063M59.46 195.336l16.18.066M75.64 195.402l8.145-13.976M73.164 192.09l6.52-11.184M164.004 181.375l15.836-3.3M164.813 177.32l12.667-2.64M242.54 122.074l10.776 12.067M240.78 125.816l8.622 9.657M264.75 189.008l-5.063 15.367" stroke-width="1.2" stroke="#000" stroke-miterlimit="10" fill="none"/></g></svg>