<svg xmlns="http://www.w3.org/2000/svg" xmlns:xlink="http://www.w3.org/1999/xlink" width="300pt" height="300pt" viewBox="0 0 300 300"><defs><symbol overflow="visible"><path d="M.453 1.594v-7.938h4.5v7.938zm.5-.5h3.5v-6.938h-3.5zm0 0"/></symbol><symbol overflow="visible" id="a"><path d="M.89-6.563h3.766v.75h-2.89v1.938h2.61v.734h-2.61V0H.89zm0 0"/></symbol><symbol overflow="visible" id="b"><path d="M.89-6.563H2.08l2.906 5.485v-5.484h.86V0H4.656L1.75-5.484V0H.89zm0 0"/></symbol><symbol overflow="visible" id="c"><path d="M3.547-5.953c-.65 0-1.164.242-1.547.72-.375.48-.563 1.13-.563 1.952 0 .835.188 1.49.563 1.967.383.48.898.72 1.547.72.644 0 1.156-.24 1.53-.72.376-.476.564-1.132.564-1.968 0-.822-.187-1.474-.562-1.954-.375-.477-.887-.72-1.53-.72zm0-.734c.914 0 1.648.312 2.203.937.55.617.828 1.438.828 2.47 0 1.042-.277 1.87-.828 2.483-.555.617-1.29.922-2.203.922-.93 0-1.668-.305-2.22-.922C.774-1.41.5-2.237.5-3.28c0-1.033.273-1.853.828-2.47.55-.625 1.29-.938 2.22-.938zm0 0"/></symbol><symbol overflow="visible" id="d"><path d="M.89-6.563h.876v2.688H5v-2.688h.89V0H5v-3.125H1.766V0H.89zm0 0"/></symbol><symbol overflow="visible"><path d="M.406 1.422V-5.64h4V1.42zM.844.97h3.11v-6.157H.843zm0 0"/></symbol><symbol overflow="visible" id="e"><path d="M1.53-.672h2.767V0H.594v-.672c.29-.3.695-.71 1.22-1.234.518-.532.842-.867.967-1.016.26-.28.44-.52.533-.72.1-.194.156-.39.156-.577 0-.31-.11-.565-.33-.764-.218-.196-.5-.297-.843-.297-.25 0-.516.046-.797.14-.273.085-.563.214-.875.39v-.797c.32-.133.617-.234.89-.297.282-.062.536-.093.766-.093.603 0 1.083.152 1.44.453.362.304.546.703.546 1.203 0 .24-.047.468-.14.686-.095.22-.26.477-.485.766-.074.074-.288.293-.64.656-.344.356-.836.856-1.47 1.5zm0 0"/></symbol></defs><g><path fill="#fff" d="M0 0h300v300H0z"/><path d="M35.25 207.922l6.477-8.457" stroke-width="1.2" stroke="#3cc" stroke-miterlimit="10" fill="none"/><path d="M41.727 199.465l6.476-8.453" stroke-width="1.2" stroke="#000" stroke-miterlimit="10" fill="none"/><path d="M29.25 202.422h6v11h-6zm0 0" fill="#fff"/><use xlink:href="#a" x="29.25" y="211.085" fill="#3cc"/><path d="M48.203 191.012l-8.168-19.676M52.016 187.12l-6.536-15.74M69.328 193.773l-21.125-2.76M40.035 171.336l12.953-16.914M52.988 154.422l21.125 2.766M54.453 159.668l16.9 2.21M74.113 157.188l6.477-8.458" stroke-width="1.2" stroke="#000" stroke-miterlimit="10" fill="none"/><path d="M80.59 148.73l6.476-8.457" stroke-width="1.2" stroke="#00f" stroke-miterlimit="10" fill="none"/><path d="M74.113 157.188l8.168 19.67" stroke-width="1.2" stroke="#000" stroke-miterlimit="10" fill="none"/><path d="M87.066 140.273L81 119.855" stroke-width="1.2" stroke="#00f" stroke-miterlimit="10" fill="none"/><path d="M108.363 140.813l-10.648-.27" stroke-width="1.2" stroke="#000" stroke-miterlimit="10" fill="none"/><path d="M97.715 140.543l-10.65-.27" stroke-width="1.2" stroke="#00f" stroke-miterlimit="10" fill="none"/><path d="M84.066 134.773h7v11h-7zm0 0" fill="#fff"/><use xlink:href="#b" x="84.066" y="143.437" fill="#00f"/><path d="M81 119.855l8.773-6.043" stroke-width="1.2" stroke="#00f" stroke-miterlimit="10" fill="none"/><path d="M89.773 113.813l8.774-6.04" stroke-width="1.2" stroke="#000" stroke-miterlimit="10" fill="none"/><path d="M85.598 122.773l7.02-4.832" stroke-width="1.2" stroke="#00f" stroke-miterlimit="10" fill="none"/><path d="M92.617 117.94l7.016-4.83" stroke-width="1.2" stroke="#000" stroke-miterlimit="10" fill="none"/><path d="M78 114.355h7v11h-7zm0 0" fill="#fff"/><use xlink:href="#b" x="78" y="123.019" fill="#00f"/><path d="M98.547 107.773l16.91 12.954M115.457 120.727l20.422-6.067M115.457 120.727l-7.094 20.085M110.023 121.066l-5.675 16.07M138.316 115.242l2.48-10.36" stroke-width="1.2" stroke="#000" stroke-miterlimit="10" fill="none"/><path d="M140.797 104.883l2.476-10.36" stroke-width="1.2" stroke="#f00" stroke-miterlimit="10" fill="none"/><path d="M133.44 114.078l2.482-10.36" stroke-width="1.2" stroke="#000" stroke-miterlimit="10" fill="none"/><path d="M135.922 103.72l2.476-10.36" stroke-width="1.2" stroke="#f00" stroke-miterlimit="10" fill="none"/><path d="M135.88 114.66l7.733 7.324" stroke-width="1.2" stroke="#000" stroke-miterlimit="10" fill="none"/><path d="M143.613 121.984l7.73 7.33" stroke-width="1.2" stroke="#00f" stroke-miterlimit="10" fill="none"/><path d="M136.836 88.44h8v11h-8zm0 0" fill="#fff"/><use xlink:href="#c" x="136.836" y="97.104" fill="#f00"/><path d="M151.344 129.313l10.21-3.036" stroke-width="1.2" stroke="#00f" stroke-miterlimit="10" fill="none"/><path d="M161.555 126.277l10.21-3.035" stroke-width="1.2" stroke="#000" stroke-miterlimit="10" fill="none"/><path d="M144.344 123.813h14v11h-14zm0 0" fill="#fff"/><g fill="#00f"><use xlink:href="#b" x="144.344" y="132.476"/><use xlink:href="#d" x="151.321" y="132.476"/></g><path d="M171.766 123.242l15.464 14.653M176.758 121.07l12.375 11.72M176.723 102.523l-4.957 20.72M187.23 137.895l20.422-6.067M207.652 131.828l4.957-20.72M203.273 128.59l3.965-16.574M207.652 131.828l15.465 14.65M212.61 111.11l-15.47-14.653M197.14 96.457l-20.417 6.066M196.527 101.867l-16.336 4.856M176.723 102.523l-15.465-14.648M223.832 148.88l10.207-3.032" stroke-width="1.2" stroke="#000" stroke-miterlimit="10" fill="none"/><path d="M234.04 145.848l10.21-3.036" stroke-width="1.2" stroke="#f00" stroke-miterlimit="10" fill="none"/><path d="M222.402 144.074l10.21-3.03" stroke-width="1.2" stroke="#000" stroke-miterlimit="10" fill="none"/><path d="M232.613 141.043l10.21-3.035" stroke-width="1.2" stroke="#f00" stroke-miterlimit="10" fill="none"/><path d="M223.117 146.477l-2.476 10.36" stroke-width="1.2" stroke="#000" stroke-miterlimit="10" fill="none"/><path d="M220.64 156.836l-2.48 10.36" stroke-width="1.2" stroke="#00f" stroke-miterlimit="10" fill="none"/><path d="M239.54 134.91h8v11h-8zm0 0" fill="#fff"/><use xlink:href="#c" x="239.539" y="143.573" fill="#f00"/><path d="M218.16 167.195l7.735 7.328" stroke-width="1.2" stroke="#00f" stroke-miterlimit="10" fill="none"/><path d="M225.895 174.523l7.73 7.325" stroke-width="1.2" stroke="#000" stroke-miterlimit="10" fill="none"/><path d="M211.16 161.695h14v11h-14zm0 0" fill="#fff"/><g fill="#00f"><use xlink:href="#b" x="211.16" y="170.358"/><use xlink:href="#d" x="218.138" y="170.358"/></g><path d="M233.625 181.848l10.473-1.95" stroke-width="1.2" stroke="#000" stroke-miterlimit="10" fill="none"/><path d="M244.098 179.898l10.472-1.95" stroke-width="1.2" stroke="#00f" stroke-miterlimit="10" fill="none"/><path d="M236.637 186.387l8.38-1.56" stroke-width="1.2" stroke="#000" stroke-miterlimit="10" fill="none"/><path d="M245.016 184.828l8.375-1.562" stroke-width="1.2" stroke="#00f" stroke-miterlimit="10" fill="none"/><path d="M230.863 202.973l2.762-21.125" stroke-width="1.2" stroke="#000" stroke-miterlimit="10" fill="none"/><path d="M254.57 177.95l5.09 9.355" stroke-width="1.2" stroke="#00f" stroke-miterlimit="10" fill="none"/><path d="M259.66 187.305l5.09 9.355" stroke-width="1.2" stroke="#f00" stroke-miterlimit="10" fill="none"/><path d="M251.57 172.45h7v11h-7zm0 0" fill="#fff"/><use xlink:href="#b" x="251.57" y="181.112" fill="#00f"/><path d="M264.75 196.66l-7.324 7.735" stroke-width="1.2" stroke="#f00" stroke-miterlimit="10" fill="none"/><path d="M257.426 204.395l-7.328 7.73" stroke-width="1.2" stroke="#000" stroke-miterlimit="10" fill="none"/><path d="M260.75 191.16h8v11h-8zm0 0" fill="#fff"/><use xlink:href="#c" x="260.75" y="199.823" fill="#f00"/><path d="M250.098 212.125l-19.235-9.152M250.328 206.684l-15.387-7.325M108.363 140.813l6.043 8.773" stroke-width="1.2" stroke="#000" stroke-miterlimit="10" fill="none"/><path d="M114.406 149.586l6.04 8.773" stroke-width="1.2" stroke="#00f" stroke-miterlimit="10" fill="none"/><path d="M111.445 150.36h19v16h-19zm0 0" fill="#fff"/><g fill="#00f"><use xlink:href="#b" x="111.445" y="159.022"/><use xlink:href="#d" x="118.423" y="159.022"/></g><use xlink:href="#e" x="125.438" y="163.905" fill="#00f"/><path d="M82.28 176.86L69.33 193.772M77.008 175.504l-10.363 13.53" stroke-width="1.2" stroke="#000" stroke-miterlimit="10" fill="none"/></g></svg>