<svg xmlns="http://www.w3.org/2000/svg" xmlns:xlink="http://www.w3.org/1999/xlink" width="300pt" height="300pt" viewBox="0 0 300 300"><defs><symbol overflow="visible"><path d="M.453 1.594v-7.938h4.5v7.938zm.5-.5h3.5v-6.938h-3.5zm0 0"/></symbol><symbol overflow="visible" id="a"><path d="M1.766-3.14v2.406h1.421c.477 0 .833-.098 1.063-.297.227-.197.344-.5.344-.907 0-.407-.117-.708-.344-.907-.23-.195-.586-.297-1.063-.297zm0-2.688v1.97h1.312c.438 0 .758-.08.97-.236.218-.164.327-.414.327-.75 0-.332-.11-.578-.328-.734-.21-.164-.53-.25-.97-.25zM.89-6.562h2.266c.676 0 1.196.14 1.563.42.362.283.546.685.546 1.205 0 .398-.094.714-.282.953-.187.242-.464.39-.828.453.438.092.774.292 1.016.592.238.293.36.657.36 1.094 0 .594-.2 1.055-.595 1.375-.398.314-.964.47-1.703.47H.89zm0 0"/></symbol><symbol overflow="visible" id="b"><path d="M3.703-4.172c-.094-.05-.195-.086-.297-.11-.105-.02-.226-.03-.36-.03-.46 0-.812.152-1.062.453-.242.294-.36.715-.36 1.266V0H.813v-4.922h.813v.766c.176-.3.398-.524.672-.672.27-.145.598-.22.984-.22.064 0 .126.01.19.017.07.01.147.022.233.03zm0 0"/></symbol><symbol overflow="visible" id="c"><path d="M3.547-5.953c-.65 0-1.164.242-1.547.72-.375.48-.563 1.13-.563 1.952 0 .835.188 1.49.563 1.967.383.48.898.72 1.547.72.644 0 1.156-.24 1.53-.72.376-.476.564-1.132.564-1.968 0-.822-.187-1.474-.562-1.954-.375-.477-.887-.72-1.53-.72zm0-.734c.914 0 1.648.312 2.203.937.55.617.828 1.438.828 2.47 0 1.042-.277 1.87-.828 2.483-.555.617-1.29.922-2.203.922-.93 0-1.668-.305-2.22-.922C.774-1.41.5-2.237.5-3.28c0-1.033.273-1.853.828-2.47.55-.625 1.29-.938 2.22-.938zm0 0"/></symbol><symbol overflow="visible" id="d"><path d="M.89-6.563H2.08l2.906 5.485v-5.484h.86V0H4.656L1.75-5.484V0H.89zm0 0"/></symbol><symbol overflow="visible" id="e"><path d="M.89-6.563h3.766v.75h-2.89v1.938h2.61v.734h-2.61V0H.89zm0 0"/></symbol><symbol overflow="visible" id="f"><path d="M.89-6.563h.876v2.688H5v-2.688h.89V0H5v-3.125H1.766V0H.89zm0 0"/></symbol></defs><g><path fill="#fff" d="M0 0h300v300H0z"/><path d="M157.61 179.184l-5.837-8.063" stroke-width="1.2" stroke="#7f4d1a" stroke-miterlimit="10" fill="none"/><path d="M151.773 171.12l-5.84-8.06" stroke-width="1.2" stroke="#000" stroke-miterlimit="10" fill="none"/><path d="M152.61 173.684h11v11h-11zm0 0" fill="#fff"/><g fill="#7f4d1a"><use xlink:href="#a" x="152.609" y="182.347"/><use xlink:href="#b" x="159.009" y="182.347"/></g><path d="M145.934 163.06l-19.8 2.045M145.934 163.06l8.132-18.173M142.473 159.328l6.504-14.54M123.996 164.148l-4.066 9.086" stroke-width="1.2" stroke="#000" stroke-miterlimit="10" fill="none"/><path d="M119.93 173.234l-4.067 9.086" stroke-width="1.2" stroke="#f00" stroke-miterlimit="10" fill="none"/><path d="M128.27 166.06l-4.063 9.085" stroke-width="1.2" stroke="#000" stroke-miterlimit="10" fill="none"/><path d="M124.207 175.145l-4.066 9.09" stroke-width="1.2" stroke="#f00" stroke-miterlimit="10" fill="none"/><path d="M126.133 165.105l-5.836-8.066" stroke-width="1.2" stroke="#000" stroke-miterlimit="10" fill="none"/><path d="M120.297 157.04l-5.836-8.063" stroke-width="1.2" stroke="#00f" stroke-miterlimit="10" fill="none"/><path d="M110.004 177.777h8v11h-8zm0 0" fill="#fff"/><use xlink:href="#c" x="110.004" y="186.44" fill="#f00"/><path d="M114.46 148.977l-9.9 1.023" stroke-width="1.2" stroke="#00f" stroke-miterlimit="10" fill="none"/><path d="M104.56 150l-9.904 1.023" stroke-width="1.2" stroke="#000" stroke-miterlimit="10" fill="none"/><path d="M114.46 148.977l4.063-9.086" stroke-width="1.2" stroke="#00f" stroke-miterlimit="10" fill="none"/><path d="M118.523 139.89l4.067-9.085" stroke-width="1.2" stroke="#000" stroke-miterlimit="10" fill="none"/><path d="M111.46 143.477h7v11h-7zm0 0" fill="#fff"/><use xlink:href="#d" x="111.461" y="152.14" fill="#00f"/><path d="M94.656 151.023l-11.672-16.128M89.695 152.156l-9.336-12.902M86.527 169.195l8.13-18.172M82.984 134.895l4.067-9.086" stroke-width="1.2" stroke="#000" stroke-miterlimit="10" fill="none"/><path d="M87.05 125.81l4.063-9.087" stroke-width="1.2" stroke="#3cc" stroke-miterlimit="10" fill="none"/><path d="M82.984 134.895l-19.8 2.046" stroke-width="1.2" stroke="#000" stroke-miterlimit="10" fill="none"/><path d="M88.113 111.223h6v11h-6zm0 0" fill="#fff"/><use xlink:href="#e" x="88.113" y="119.886" fill="#3cc"/><path d="M63.184 136.94l-8.133 18.173M66.645 140.672l-6.504 14.54M55.05 155.113l-9.898 1.024" stroke-width="1.2" stroke="#000" stroke-miterlimit="10" fill="none"/><path d="M45.152 156.137l-9.902 1.023" stroke-width="1.2" stroke="#f00" stroke-miterlimit="10" fill="none"/><path d="M55.05 155.113l11.677 16.13" stroke-width="1.2" stroke="#000" stroke-miterlimit="10" fill="none"/><path d="M20.25 151.66h15v11h-15zm0 0" fill="#fff"/><g fill="#f00"><use xlink:href="#f" x="20.25" y="160.323"/><use xlink:href="#c" x="27.265" y="160.323"/></g><path d="M66.727 171.242l19.8-2.047M68.223 166.375l15.843-1.637M86.527 169.195l5.836 8.063" stroke-width="1.2" stroke="#000" stroke-miterlimit="10" fill="none"/><path d="M92.363 177.258l5.836 8.062" stroke-width="1.2" stroke="#3cc" stroke-miterlimit="10" fill="none"/><path d="M95.2 179.82h6v11h-6zm0 0" fill="#fff"/><use xlink:href="#e" x="95.199" y="188.483" fill="#3cc"/><path d="M122.59 130.805l19.8-2.047M125.05 135.262l15.845-1.637M122.59 130.805l-11.672-16.125M142.39 128.758l11.676 16.13M154.066 144.887l9.9-1.024" stroke-width="1.2" stroke="#000" stroke-miterlimit="10" fill="none"/><path d="M163.965 143.863l9.902-1.023M173.867 142.84l5.836 8.062" stroke-width="1.2" stroke="#f00" stroke-miterlimit="10" fill="none"/><path d="M179.703 150.902l5.836 8.067" stroke-width="1.2" stroke="#000" stroke-miterlimit="10" fill="none"/><path d="M169.867 137.34h8v11h-8zm0 0" fill="#fff"/><use xlink:href="#c" x="169.867" y="146.003" fill="#f00"/><path d="M185.54 158.97l19.804-2.048M205.344 156.922l11.672 16.125M210.305 155.79l9.336 12.898M213.473 138.75l-8.13 18.172M217.016 173.047l19.8-2.043M236.816 171.004l8.133-18.172M233.355 167.273l6.504-14.54M244.95 152.832l9.898-1.023" stroke-width="1.2" stroke="#000" stroke-miterlimit="10" fill="none"/><path d="M254.848 151.81l9.902-1.025" stroke-width="1.2" stroke="#3cc" stroke-miterlimit="10" fill="none"/><path d="M244.95 152.832l-11.677-16.13" stroke-width="1.2" stroke="#000" stroke-miterlimit="10" fill="none"/><path d="M261.75 145.285h6v11h-6zm0 0" fill="#fff"/><use xlink:href="#e" x="261.75" y="153.948" fill="#3cc"/><path d="M233.273 136.703l-19.8 2.047M231.777 141.566l-15.843 1.637M213.473 138.75l-5.836-8.063" stroke-width="1.2" stroke="#000" stroke-miterlimit="10" fill="none"/><path d="M207.637 130.688l-5.836-8.067" stroke-width="1.2" stroke="#3cc" stroke-miterlimit="10" fill="none"/><path d="M195.8 117.12h6v11h-6zm0 0" fill="#fff"/><use xlink:href="#e" x="195.801" y="125.784" fill="#3cc"/></g></svg>