<svg xmlns="http://www.w3.org/2000/svg" xmlns:xlink="http://www.w3.org/1999/xlink" width="300pt" height="300pt" viewBox="0 0 300 300"><defs><symbol overflow="visible"><path d="M.453 1.594v-7.938h4.5v7.938zm.5-.5h3.5v-6.938h-3.5zm0 0"/></symbol><symbol overflow="visible" id="a"><path d="M4.813-6.344v.86c-.336-.157-.653-.27-.954-.344-.294-.082-.58-.125-.86-.125-.492 0-.867.094-1.125.28-.262.19-.39.454-.39.798 0 .293.085.512.265.656.176.15.504.267.984.36l.547.11c.658.125 1.142.352 1.454.672.32.312.485.734.485 1.265 0 .637-.216 1.122-.642 1.454-.43.325-1.055.485-1.875.485-.312 0-.648-.04-1-.11C1.36-.046 1-.147.625-.296v-.906c.352.2.703.35 1.047.453.35.105.695.156 1.03.156.5 0 .884-.097 1.157-.297.28-.196.42-.485.42-.86 0-.32-.1-.57-.296-.75-.2-.176-.523-.313-.968-.406l-.547-.11C1.81-3.148 1.33-3.36 1.03-3.64.74-3.923.595-4.313.595-4.813c0-.57.203-1.024.61-1.36.405-.344.968-.516 1.687-.516.313 0 .626.032.938.094.32.055.65.137.985.25zm0 0"/></symbol><symbol overflow="visible" id="b"><path d="M.89-6.563H2.08l2.906 5.485v-5.484h.86V0H4.656L1.75-5.484V0H.89zm0 0"/></symbol><symbol overflow="visible" id="c"><path d="M.89-6.563h.876v2.688H5v-2.688h.89V0H5v-3.125H1.766V0H.89zm0 0"/></symbol><symbol overflow="visible" id="d"><path d="M3.547-5.953c-.65 0-1.164.242-1.547.72-.375.48-.563 1.13-.563 1.952 0 .835.188 1.49.563 1.967.383.48.898.72 1.547.72.644 0 1.156-.24 1.53-.72.376-.476.564-1.132.564-1.968 0-.822-.187-1.474-.562-1.954-.375-.477-.887-.72-1.53-.72zm0-.734c.914 0 1.648.312 2.203.937.55.617.828 1.438.828 2.47 0 1.042-.277 1.87-.828 2.483-.555.617-1.29.922-2.203.922-.93 0-1.668-.305-2.22-.922C.774-1.41.5-2.237.5-3.28c0-1.033.273-1.853.828-2.47.55-.625 1.29-.938 2.22-.938zm0 0"/></symbol><symbol overflow="visible" id="e"><path d="M.89-6.563h3.766v.75h-2.89v1.938h2.61v.734h-2.61V0H.89zm0 0"/></symbol></defs><g><path fill="#fff" d="M0 0h300v300H0z"/><path d="M49.883 170.82l-7.317-7.535" stroke-width="1.2" stroke="#cc0" stroke-miterlimit="10" fill="none"/><path d="M42.566 163.285l-7.316-7.535" stroke-width="1.2" stroke="#000" stroke-miterlimit="10" fill="none"/><path d="M49.883 170.82l10.183-2.57" stroke-width="1.2" stroke="#cc0" stroke-miterlimit="10" fill="none"/><path d="M60.066 168.25l10.184-2.566" stroke-width="1.2" stroke="#000" stroke-miterlimit="10" fill="none"/><path d="M46.883 165.32h6v11h-6zm0 0" fill="#fff"/><use xlink:href="#a" x="46.883" y="173.983" fill="#cc0"/><path d="M70.25 165.684l8.063 6.726" stroke-width="1.2" stroke="#000" stroke-miterlimit="10" fill="none"/><path d="M78.313 172.41l8.066 6.73M78.063 146.184l-3.907 9.75" stroke-width="1.2" stroke="#00f" stroke-miterlimit="10" fill="none"/><path d="M74.156 155.934l-3.906 9.75" stroke-width="1.2" stroke="#000" stroke-miterlimit="10" fill="none"/><path d="M81.87 149.973l-3.124 7.8" stroke-width="1.2" stroke="#00f" stroke-miterlimit="10" fill="none"/><path d="M78.746 157.773l-3.13 7.797" stroke-width="1.2" stroke="#000" stroke-miterlimit="10" fill="none"/><path d="M86.38 179.14l8.89-5.59" stroke-width="1.2" stroke="#00f" stroke-miterlimit="10" fill="none"/><path d="M95.27 173.55l8.89-5.59" stroke-width="1.2" stroke="#000" stroke-miterlimit="10" fill="none"/><path d="M79.38 173.64h14v11h-14zm0 0" fill="#fff"/><g fill="#00f"><use xlink:href="#b" x="79.379" y="182.304"/><use xlink:href="#c" x="86.356" y="182.304"/></g><path d="M104.16 167.96l-5.137-20.366M98.855 167.133l-4.113-16.293M104.16 167.96l19.496 7.813M99.023 147.594l-10.48-.703" stroke-width="1.2" stroke="#000" stroke-miterlimit="10" fill="none"/><path d="M88.543 146.89l-10.48-.706" stroke-width="1.2" stroke="#00f" stroke-miterlimit="10" fill="none"/><path d="M99.023 147.594l13.457-16.13" stroke-width="1.2" stroke="#000" stroke-miterlimit="10" fill="none"/><path d="M75.063 140.684h7v11h-7zm0 0" fill="#fff"/><use xlink:href="#b" x="75.063" y="149.347" fill="#00f"/><path d="M112.48 131.465l20.696 3.59M115.395 126.953l16.554 2.875M105.242 111.746l7.238 19.72M133.176 135.055l13.457-16.13M146.633 118.926l-3.62-9.86" stroke-width="1.2" stroke="#000" stroke-miterlimit="10" fill="none"/><path d="M143.012 109.066l-3.617-9.855" stroke-width="1.2" stroke="#00f" stroke-miterlimit="10" fill="none"/><path d="M141.27 118.66l-2.9-7.887" stroke-width="1.2" stroke="#000" stroke-miterlimit="10" fill="none"/><path d="M138.37 110.773l-2.893-7.89" stroke-width="1.2" stroke="#00f" stroke-miterlimit="10" fill="none"/><path d="M146.633 118.926l10.347 1.797" stroke-width="1.2" stroke="#000" stroke-miterlimit="10" fill="none"/><path d="M156.98 120.723l10.348 1.797M139.395 99.21l-10.348-1.796" stroke-width="1.2" stroke="#00f" stroke-miterlimit="10" fill="none"/><path d="M129.047 97.414L118.7 95.617" stroke-width="1.2" stroke="#000" stroke-miterlimit="10" fill="none"/><path d="M136.395 93.71h7v11h-7zm0 0" fill="#fff"/><use xlink:href="#b" x="136.395" y="102.374" fill="#00f"/><path d="M118.7 95.617l-13.458 16.13M121.148 100.398L110.383 113.3" stroke-width="1.2" stroke="#000" stroke-miterlimit="10" fill="none"/><path d="M167.328 122.52l3.617 9.855" stroke-width="1.2" stroke="#00f" stroke-miterlimit="10" fill="none"/><path d="M170.945 132.375l3.62 9.86" stroke-width="1.2" stroke="#000" stroke-miterlimit="10" fill="none"/><path d="M160.328 117.02h14v11h-14zm0 0" fill="#fff"/><g fill="#00f"><use xlink:href="#b" x="160.328" y="125.683"/><use xlink:href="#c" x="167.306" y="125.683"/></g><path d="M172.668 140.652l-6.727 8.063" stroke-width="1.2" stroke="#000" stroke-miterlimit="10" fill="none"/><path d="M165.94 148.715l-6.73 8.066" stroke-width="1.2" stroke="#f00" stroke-miterlimit="10" fill="none"/><path d="M176.465 143.82l-6.73 8.063" stroke-width="1.2" stroke="#000" stroke-miterlimit="10" fill="none"/><path d="M169.734 151.883l-6.726 8.062" stroke-width="1.2" stroke="#f00" stroke-miterlimit="10" fill="none"/><path d="M174.566 142.234l20.696 3.59" stroke-width="1.2" stroke="#000" stroke-miterlimit="10" fill="none"/><path d="M153.11 152.863h8v11h-8zm0 0" fill="#fff"/><use xlink:href="#d" x="153.109" y="161.526" fill="#f00"/><path d="M195.262 145.824l7.535-7.316" stroke-width="1.2" stroke="#000" stroke-miterlimit="10" fill="none"/><path d="M202.797 138.508l7.535-7.317" stroke-width="1.2" stroke="#f00" stroke-miterlimit="10" fill="none"/><path d="M204.523 164.68l-9.26-18.856M208.03 160.617l-7.405-15.086" stroke-width="1.2" stroke="#000" stroke-miterlimit="10" fill="none"/><path d="M210.332 131.19l9.285 4.908" stroke-width="1.2" stroke="#f00" stroke-miterlimit="10" fill="none"/><path d="M219.617 136.098l9.285 4.906" stroke-width="1.2" stroke="#000" stroke-miterlimit="10" fill="none"/><path d="M206.332 125.69h8v11h-8zm0 0" fill="#fff"/><use xlink:href="#d" x="206.332" y="134.354" fill="#f00"/><path d="M228.902 141.004l-3.59 20.695M233.414 143.918l-2.87 16.555M248.62 133.766l-19.718 7.238M225.313 161.7l-20.79 2.98M225.313 161.7l16.128 13.456M241.44 175.156l19.72-7.238M241.71 169.793L257.485 164M261.16 167.918l3.59-20.695M264.75 147.223l-16.13-13.457M259.973 149.672l-12.903-10.766M123.656 175.773l2.98 20.793M128.848 177.152l2.382 16.633M140.172 162.797l-16.516 12.976M126.637 196.566l19.496 7.817M146.133 204.383l16.52-12.98M144.73 199.195l13.215-10.38M162.652 191.402l9.746 3.91" stroke-width="1.2" stroke="#000" stroke-miterlimit="10" fill="none"/><path d="M172.398 195.313l9.75 3.906" stroke-width="1.2" stroke="#3cc" stroke-miterlimit="10" fill="none"/><path d="M162.652 191.402l-2.984-20.79" stroke-width="1.2" stroke="#000" stroke-miterlimit="10" fill="none"/><path d="M179.148 193.72h6v11h-6zm0 0" fill="#fff"/><use xlink:href="#e" x="179.148" y="202.382" fill="#3cc"/><path d="M159.668 170.613l-19.496-7.816M155.883 174.418l-15.598-6.254" stroke-width="1.2" stroke="#000" stroke-miterlimit="10" fill="none"/></g></svg>