<svg xmlns="http://www.w3.org/2000/svg" xmlns:xlink="http://www.w3.org/1999/xlink" width="300pt" height="300pt" viewBox="0 0 300 300"><defs><symbol overflow="visible"><path d="M.453 1.594v-7.938h4.5v7.938zm.5-.5h3.5v-6.938h-3.5zm0 0"/></symbol><symbol overflow="visible" id="a"><path d="M.89-6.563h3.766v.75h-2.89v1.938h2.61v.734h-2.61V0H.89zm0 0"/></symbol><symbol overflow="visible" id="b"><path d="M3.547-5.953c-.65 0-1.164.242-1.547.72-.375.48-.563 1.13-.563 1.952 0 .835.188 1.49.563 1.967.383.48.898.72 1.547.72.644 0 1.156-.24 1.53-.72.376-.476.564-1.132.564-1.968 0-.822-.187-1.474-.562-1.954-.375-.477-.887-.72-1.53-.72zm0-.734c.914 0 1.648.312 2.203.937.55.617.828 1.438.828 2.47 0 1.042-.277 1.87-.828 2.483-.555.617-1.29.922-2.203.922-.93 0-1.668-.305-2.22-.922C.774-1.41.5-2.237.5-3.28c0-1.033.273-1.853.828-2.47.55-.625 1.29-.938 2.22-.938zm0 0"/></symbol><symbol overflow="visible" id="c"><path d="M.89-6.563H2.08l2.906 5.485v-5.484h.86V0H4.656L1.75-5.484V0H.89zm0 0"/></symbol><symbol overflow="visible" id="d"><path d="M.89-6.563h.876v2.688H5v-2.688h.89V0H5v-3.125H1.766V0H.89zm0 0"/></symbol></defs><g><path fill="#fff" d="M0 0h300v300H0z"/><path d="M56.12 177.582l2.743-10.78" stroke-width="1.2" stroke="#3cc" stroke-miterlimit="10" fill="none"/><path d="M58.863 166.8l2.746-10.777" stroke-width="1.2" stroke="#000" stroke-miterlimit="10" fill="none"/><path d="M53.12 172.082h6v11h-6zm0 0" fill="#fff"/><use xlink:href="#a" x="53.121" y="180.745" fill="#3cc"/><path d="M61.61 156.023l-15.926-15.53M63.672 150.727L50.934 138.3M83.02 150l-21.41 6.023M45.684 140.492l5.488-21.554M51.172 118.938l-7.96-7.766" stroke-width="1.2" stroke="#000" stroke-miterlimit="10" fill="none"/><path d="M43.21 111.172l-7.96-7.766" stroke-width="1.2" stroke="#3cc" stroke-miterlimit="10" fill="none"/><path d="M51.172 118.938l21.414-6.024M54.73 123.375l17.133-4.82" stroke-width="1.2" stroke="#000" stroke-miterlimit="10" fill="none"/><path d="M29.25 97.906h6v11h-6zm0 0" fill="#fff"/><use xlink:href="#a" x="29.25" y="106.569" fill="#3cc"/><path d="M72.586 112.914l15.922 15.53M88.508 128.445L83.02 150M82.887 129.31l-4.39 17.245M83.02 150l7.96 7.766" stroke-width="1.2" stroke="#000" stroke-miterlimit="10" fill="none"/><path d="M90.98 157.766l7.965 7.765M98.945 165.53l10.703-3.01" stroke-width="1.2" stroke="#f00" stroke-miterlimit="10" fill="none"/><path d="M109.648 162.52l10.707-3.012" stroke-width="1.2" stroke="#000" stroke-miterlimit="10" fill="none"/><path d="M94.945 160.03h8v11h-8zm0 0" fill="#fff"/><use xlink:href="#b" x="94.945" y="168.694" fill="#f00"/><path d="M120.355 159.508l5.49-21.56M125.977 158.64l4.39-17.242M136.28 175.035l-15.925-15.527M125.844 137.95l21.414-6.024M147.258 131.926l15.922 15.53M152.504 129.73l12.738 12.426M152.742 110.37l-5.484 21.556M163.18 147.457l10.707-3.012" stroke-width="1.2" stroke="#000" stroke-miterlimit="10" fill="none"/><path d="M173.887 144.445l10.703-3.015" stroke-width="1.2" stroke="#00f" stroke-miterlimit="10" fill="none"/><path d="M163.18 147.457l-2.746 10.777" stroke-width="1.2" stroke="#000" stroke-miterlimit="10" fill="none"/><path d="M160.434 158.234l-2.743 10.778M184.59 141.43l2.746-10.778" stroke-width="1.2" stroke="#00f" stroke-miterlimit="10" fill="none"/><path d="M187.336 130.652l2.742-10.777" stroke-width="1.2" stroke="#000" stroke-miterlimit="10" fill="none"/><path d="M180.066 137.984l2.196-8.62" stroke-width="1.2" stroke="#00f" stroke-miterlimit="10" fill="none"/><path d="M182.262 129.363l2.195-8.62" stroke-width="1.2" stroke="#000" stroke-miterlimit="10" fill="none"/><path d="M181.59 135.93h7v11h-7zm0 0" fill="#fff"/><use xlink:href="#c" x="181.59" y="144.593" fill="#00f"/><path d="M190.078 119.875l-7.96-7.766" stroke-width="1.2" stroke="#000" stroke-miterlimit="10" fill="none"/><path d="M182.117 112.11l-7.96-7.766" stroke-width="1.2" stroke="#00f" stroke-miterlimit="10" fill="none"/><path d="M190.078 119.875l10.707-3.012" stroke-width="1.2" stroke="#000" stroke-miterlimit="10" fill="none"/><path d="M200.785 116.863l10.707-3.01M174.156 104.344l-10.707 3.015" stroke-width="1.2" stroke="#00f" stroke-miterlimit="10" fill="none"/><path d="M163.45 107.36l-10.708 3.01" stroke-width="1.2" stroke="#000" stroke-miterlimit="10" fill="none"/><path d="M173.434 109.984l-8.567 2.41" stroke-width="1.2" stroke="#00f" stroke-miterlimit="10" fill="none"/><path d="M164.867 112.395l-8.562 2.41" stroke-width="1.2" stroke="#000" stroke-miterlimit="10" fill="none"/><path d="M171.156 98.844h7v11h-7zm0 0" fill="#fff"/><use xlink:href="#c" x="171.156" y="107.507" fill="#00f"/><path d="M211.492 113.852l7.96 7.765" stroke-width="1.2" stroke="#00f" stroke-miterlimit="10" fill="none"/><path d="M219.453 121.617l7.96 7.766" stroke-width="1.2" stroke="#000" stroke-miterlimit="10" fill="none"/><path d="M204.492 108.352h14v11h-14zm0 0" fill="#fff"/><g fill="#00f"><use xlink:href="#c" x="204.492" y="117.015"/><use xlink:href="#d" x="211.47" y="117.015"/></g><path d="M227.414 129.383l-5.488 21.554M248.828 123.355l-21.414 6.028M221.926 150.938l15.926 15.53M237.852 166.47l10.703-3.013" stroke-width="1.2" stroke="#000" stroke-miterlimit="10" fill="none"/><path d="M248.555 163.457l10.707-3.012M259.262 160.445l2.746-10.78" stroke-width="1.2" stroke="#f00" stroke-miterlimit="10" fill="none"/><path d="M262.008 149.664l2.742-10.777" stroke-width="1.2" stroke="#000" stroke-miterlimit="10" fill="none"/><path d="M255.262 154.945h8v11h-8zm0 0" fill="#fff"/><use xlink:href="#b" x="255.262" y="163.608" fill="#f00"/><path d="M264.75 138.887l-15.922-15.532" stroke-width="1.2" stroke="#000" stroke-miterlimit="10" fill="none"/><path d="M157.69 169.012l-10.706 3.01" stroke-width="1.2" stroke="#00f" stroke-miterlimit="10" fill="none"/><path d="M146.984 172.023l-10.703 3.012" stroke-width="1.2" stroke="#000" stroke-miterlimit="10" fill="none"/><path d="M150.69 163.512h14v11h-14zm0 0" fill="#fff"/><g fill="#00f"><use xlink:href="#c" x="150.691" y="172.175"/><use xlink:href="#d" x="157.669" y="172.175"/></g><path d="M133.742 174.39L131 185.17" stroke-width="1.2" stroke="#000" stroke-miterlimit="10" fill="none"/><path d="M131 185.168l-2.746 10.777" stroke-width="1.2" stroke="#f00" stroke-miterlimit="10" fill="none"/><path d="M138.816 175.684l-2.746 10.777" stroke-width="1.2" stroke="#000" stroke-miterlimit="10" fill="none"/><path d="M136.07 186.46l-2.742 10.778" stroke-width="1.2" stroke="#f00" stroke-miterlimit="10" fill="none"/><path d="M126.793 191.094h8v11h-8zm0 0" fill="#fff"/><use xlink:href="#b" x="126.793" y="199.757" fill="#f00"/></g></svg>