<svg xmlns="http://www.w3.org/2000/svg" xmlns:xlink="http://www.w3.org/1999/xlink" width="300pt" height="300pt" viewBox="0 0 300 300"><defs><symbol overflow="visible"><path d="M.453 1.594v-7.938h4.5v7.938zm.5-.5h3.5v-6.938h-3.5zm0 0"/></symbol><symbol overflow="visible" id="a"><path d="M.89-6.563h3.766v.75h-2.89v1.938h2.61v.734h-2.61V0H.89zm0 0"/></symbol><symbol overflow="visible" id="b"><path d="M.89-6.563H2.08l2.906 5.485v-5.484h.86V0H4.656L1.75-5.484V0H.89zm0 0"/></symbol><symbol overflow="visible" id="e"><path d="M3.547-5.953c-.65 0-1.164.242-1.547.72-.375.48-.563 1.13-.563 1.952 0 .835.188 1.49.563 1.967.383.48.898.72 1.547.72.644 0 1.156-.24 1.53-.72.376-.476.564-1.132.564-1.968 0-.822-.187-1.474-.562-1.954-.375-.477-.887-.72-1.53-.72zm0-.734c.914 0 1.648.312 2.203.937.55.617.828 1.438.828 2.47 0 1.042-.277 1.87-.828 2.483-.555.617-1.29.922-2.203.922-.93 0-1.668-.305-2.22-.922C.774-1.41.5-2.237.5-3.28c0-1.033.273-1.853.828-2.47.55-.625 1.29-.938 2.22-.938zm0 0"/></symbol><symbol overflow="visible"><path d="M.406 1.422V-5.64h4V1.42zM.844.97h3.11v-6.157H.843zm0 0"/></symbol><symbol overflow="visible" id="c"><path d="M3.688-5.016v2.172h2.17v.672H3.69V0H3.03v-2.172H.845v-.672H3.03v-2.172zm0 0"/></symbol><symbol overflow="visible" id="d"><path d="M.39-2.516H2.5v.64H.39zm0 0"/></symbol></defs><g><path fill="#fff" d="M0 0h300v300H0z"/><path d="M181.43 117.3l8.648 9.07" stroke-width="1.2" stroke="#3cc" stroke-miterlimit="10" fill="none"/><path d="M190.078 126.37l8.65 9.075" stroke-width="1.2" stroke="#000" stroke-miterlimit="10" fill="none"/><path d="M175.43 111.8h6v11h-6zm0 0" fill="#fff"/><use xlink:href="#a" x="175.43" y="120.464" fill="#3cc"/><path d="M198.727 135.445l24.363-5.906M202.55 140.586l19.493-4.727M191.66 159.496l7.067-24.05M223.09 129.54l17.297 18.144M240.387 147.684l12.183-2.954" stroke-width="1.2" stroke="#000" stroke-miterlimit="10" fill="none"/><path d="M252.57 144.73l12.18-2.953" stroke-width="1.2" stroke="#3cc" stroke-miterlimit="10" fill="none"/><path d="M240.387 147.684l-7.067 24.05M234.02 148.426l-5.653 19.242" stroke-width="1.2" stroke="#000" stroke-miterlimit="10" fill="none"/><path d="M261.75 136.277h6v11h-6zm0 0" fill="#fff"/><use xlink:href="#a" x="261.75" y="144.94" fill="#3cc"/><path d="M233.32 171.734l-24.363 5.91M208.957 177.645l-17.297-18.15M211.496 171.758l-13.836-14.516M191.66 159.496l-24.363 5.91M167.297 165.406L150 147.258M161.297 167.66l-13.836-14.515M160.23 189.457l7.067-24.05M150 147.258l-24.363 5.906M157.066 123.207L150 147.257M125.637 153.164l-3.532 12.027" stroke-width="1.2" stroke="#000" stroke-miterlimit="10" fill="none"/><path d="M122.105 165.19l-3.535 12.03" stroke-width="1.2" stroke="#00f" stroke-miterlimit="10" fill="none"/><path d="M130.59 157.234l-2.828 9.62" stroke-width="1.2" stroke="#000" stroke-miterlimit="10" fill="none"/><path d="M127.762 166.855l-2.825 9.622" stroke-width="1.2" stroke="#00f" stroke-miterlimit="10" fill="none"/><path d="M125.637 153.164L108.34 135.02" stroke-width="1.2" stroke="#000" stroke-miterlimit="10" fill="none"/><path d="M118.57 177.22l8.65 9.073" stroke-width="1.2" stroke="#00f" stroke-miterlimit="10" fill="none"/><path d="M127.22 186.293l8.647 9.07" stroke-width="1.2" stroke="#000" stroke-miterlimit="10" fill="none"/><path d="M115.57 171.72h7v11h-7zm0 0" fill="#fff"/><use xlink:href="#b" x="115.57" y="180.382" fill="#00f"/><path d="M135.867 195.363l24.363-5.906M136.914 189.04l19.492-4.724M108.34 135.02l3.53-12.028" stroke-width="1.2" stroke="#000" stroke-miterlimit="10" fill="none"/><path d="M111.87 122.992l3.536-12.023" stroke-width="1.2" stroke="#00f" stroke-miterlimit="10" fill="none"/><path d="M114.707 134.277l2.824-9.62" stroke-width="1.2" stroke="#000" stroke-miterlimit="10" fill="none"/><path d="M117.53 124.656l2.83-9.62" stroke-width="1.2" stroke="#00f" stroke-miterlimit="10" fill="none"/><path d="M108.34 135.02l-24.363 5.906" stroke-width="1.2" stroke="#000" stroke-miterlimit="10" fill="none"/><path d="M115.406 110.97l-8.648-9.075" stroke-width="1.2" stroke="#00f" stroke-miterlimit="10" fill="none"/><path d="M106.758 101.895l-8.65-9.075" stroke-width="1.2" stroke="#f00" stroke-miterlimit="10" fill="none"/><path d="M115.406 110.97l12.18-2.954" stroke-width="1.2" stroke="#00f" stroke-miterlimit="10" fill="none"/><path d="M127.586 108.016l12.184-2.957" stroke-width="1.2" stroke="#000" stroke-miterlimit="10" fill="none"/><path d="M108.406 103.47h14v15h-14zm0 0" fill="#fff"/><use xlink:href="#b" x="108.406" y="115.57" fill="#00f"/><use xlink:href="#c" x="115.384" y="110.688" fill="#00f"/><path d="M87.11 85.32h11v15h-11zm0 0" fill="#fff"/><use xlink:href="#d" x="87.109" y="92.539" fill="#f00"/><use xlink:href="#e" x="89.917" y="97.422" fill="#f00"/><path d="M139.77 105.06l17.296 18.147M137.23 110.945l13.836 14.516M83.977 140.926L66.68 122.78M77.977 143.184L64.14 128.668M76.91 164.98l7.067-24.054M66.68 122.78l-24.364 5.907M42.316 128.688L35.25 152.74M47.27 132.758L41.617 152M35.25 152.742l17.297 18.145M52.547 170.887l24.363-5.907M53.594 164.563l19.492-4.723M76.91 164.98l8.65 9.07" stroke-width="1.2" stroke="#000" stroke-miterlimit="10" fill="none"/><path d="M85.56 174.05l8.647 9.075M94.207 183.125l-3.53 12.027" stroke-width="1.2" stroke="#f00" stroke-miterlimit="10" fill="none"/><path d="M90.676 195.152L87.14 207.18" stroke-width="1.2" stroke="#000" stroke-miterlimit="10" fill="none"/><path d="M90.207 177.625h8v11h-8zm0 0" fill="#fff"/><use xlink:href="#e" x="90.207" y="186.288" fill="#f00"/></g></svg>