<svg xmlns="http://www.w3.org/2000/svg" xmlns:xlink="http://www.w3.org/1999/xlink" width="300pt" height="300pt" viewBox="0 0 300 300"><defs><symbol overflow="visible"><path d="M.453 1.594v-7.938h4.5v7.938zm.5-.5h3.5v-6.938h-3.5zm0 0"/></symbol><symbol overflow="visible" id="a"><path d="M4.813-6.344v.86c-.336-.157-.653-.27-.954-.344-.294-.082-.58-.125-.86-.125-.492 0-.867.094-1.125.28-.262.19-.39.454-.39.798 0 .293.085.512.265.656.176.15.504.267.984.36l.547.11c.658.125 1.142.352 1.454.672.32.312.485.734.485 1.265 0 .637-.216 1.122-.642 1.454-.43.325-1.055.485-1.875.485-.312 0-.648-.04-1-.11C1.36-.046 1-.147.625-.296v-.906c.352.2.703.35 1.047.453.35.105.695.156 1.03.156.5 0 .884-.097 1.157-.297.28-.196.42-.485.42-.86 0-.32-.1-.57-.296-.75-.2-.176-.523-.313-.968-.406l-.547-.11C1.81-3.148 1.33-3.36 1.03-3.64.74-3.923.595-4.313.595-4.813c0-.57.203-1.024.61-1.36.405-.344.968-.516 1.687-.516.313 0 .626.032.938.094.32.055.65.137.985.25zm0 0"/></symbol><symbol overflow="visible" id="b"><path d="M.89-6.563H2.08l2.906 5.485v-5.484h.86V0H4.656L1.75-5.484V0H.89zm0 0"/></symbol><symbol overflow="visible" id="c"><path d="M.89-6.563h.876v2.688H5v-2.688h.89V0H5v-3.125H1.766V0H.89zm0 0"/></symbol><symbol overflow="visible" id="d"><path d="M3.547-5.953c-.65 0-1.164.242-1.547.72-.375.48-.563 1.13-.563 1.952 0 .835.188 1.49.563 1.967.383.48.898.72 1.547.72.644 0 1.156-.24 1.53-.72.376-.476.564-1.132.564-1.968 0-.822-.187-1.474-.562-1.954-.375-.477-.887-.72-1.53-.72zm0-.734c.914 0 1.648.312 2.203.937.55.617.828 1.438.828 2.47 0 1.042-.277 1.87-.828 2.483-.555.617-1.29.922-2.203.922-.93 0-1.668-.305-2.22-.922C.774-1.41.5-2.237.5-3.28c0-1.033.273-1.853.828-2.47.55-.625 1.29-.938 2.22-.938zm0 0"/></symbol><symbol overflow="visible" id="e"><path d="M.89-6.563h3.766v.75h-2.89v1.938h2.61v.734h-2.61V0H.89zm0 0"/></symbol></defs><g><path fill="#fff" d="M0 0h300v300H0z"/><path d="M52.93 151.828l-8.84-8.79" stroke-width="1.2" stroke="#cc0" stroke-miterlimit="10" fill="none"/><path d="M44.09 143.04l-8.84-8.786" stroke-width="1.2" stroke="#000" stroke-miterlimit="10" fill="none"/><path d="M52.93 151.828l12.03-3.262" stroke-width="1.2" stroke="#cc0" stroke-miterlimit="10" fill="none"/><path d="M64.96 148.566l12.032-3.26" stroke-width="1.2" stroke="#000" stroke-miterlimit="10" fill="none"/><path d="M49.93 146.328h6v11h-6zm0 0" fill="#fff"/><use xlink:href="#a" x="49.93" y="154.991" fill="#cc0"/><path d="M76.992 145.305l9.71 7.816" stroke-width="1.2" stroke="#000" stroke-miterlimit="10" fill="none"/><path d="M86.703 153.12l9.71 7.814M85.855 122.004l-4.43 11.648" stroke-width="1.2" stroke="#00f" stroke-miterlimit="10" fill="none"/><path d="M81.426 133.652l-4.434 11.653" stroke-width="1.2" stroke="#000" stroke-miterlimit="10" fill="none"/><path d="M90.453 126.418l-3.547 9.32" stroke-width="1.2" stroke="#00f" stroke-miterlimit="10" fill="none"/><path d="M86.906 135.738l-3.543 9.32" stroke-width="1.2" stroke="#000" stroke-miterlimit="10" fill="none"/><path d="M96.414 160.934l10.434-6.82" stroke-width="1.2" stroke="#00f" stroke-miterlimit="10" fill="none"/><path d="M106.848 154.113l10.433-6.82" stroke-width="1.2" stroke="#000" stroke-miterlimit="10" fill="none"/><path d="M89.414 155.434h14v11h-14zm0 0" fill="#fff"/><g fill="#00f"><use xlink:href="#b" x="89.414" y="164.097"/><use xlink:href="#c" x="96.392" y="164.097"/></g><path d="M117.28 147.293l-6.522-24.06M110.97 146.422l-5.224-19.246M117.28 147.293l23.302 8.867M110.758 123.234l-12.45-.617" stroke-width="1.2" stroke="#000" stroke-miterlimit="10" fill="none"/><path d="M98.31 122.617l-12.455-.613" stroke-width="1.2" stroke="#00f" stroke-miterlimit="10" fill="none"/><path d="M110.758 123.234l15.63-19.42" stroke-width="1.2" stroke="#000" stroke-miterlimit="10" fill="none"/><path d="M82.855 116.504h7v11h-7zm0 0" fill="#fff"/><use xlink:href="#b" x="82.855" y="125.167" fill="#00f"/><path d="M126.387 103.813l24.636 3.824M129.75 98.398l19.71 3.06M117.383 80.563l9.004 23.25M151.023 107.637l15.63-19.422M166.652 88.215l-4.5-11.62" stroke-width="1.2" stroke="#000" stroke-miterlimit="10" fill="none"/><path d="M162.152 76.594l-4.504-11.625" stroke-width="1.2" stroke="#00f" stroke-miterlimit="10" fill="none"/><path d="M160.285 88.012l-3.6-9.3" stroke-width="1.2" stroke="#000" stroke-miterlimit="10" fill="none"/><path d="M156.684 78.71l-3.602-9.3" stroke-width="1.2" stroke="#00f" stroke-miterlimit="10" fill="none"/><path d="M166.652 88.215l12.32 1.914" stroke-width="1.2" stroke="#000" stroke-miterlimit="10" fill="none"/><path d="M178.973 90.13l12.316 1.913M157.648 64.97l-12.316-1.915" stroke-width="1.2" stroke="#00f" stroke-miterlimit="10" fill="none"/><path d="M145.332 63.055l-12.316-1.914" stroke-width="1.2" stroke="#000" stroke-miterlimit="10" fill="none"/><path d="M154.648 59.47h7v11h-7zm0 0" fill="#fff"/><use xlink:href="#b" x="154.648" y="68.132" fill="#00f"/><path d="M133.016 61.14l-15.633 19.422M136.023 66.762l-12.507 15.54" stroke-width="1.2" stroke="#000" stroke-miterlimit="10" fill="none"/><path d="M191.29 92.043l4.5 11.62" stroke-width="1.2" stroke="#00f" stroke-miterlimit="10" fill="none"/><path d="M195.79 103.664l4.503 11.625" stroke-width="1.2" stroke="#000" stroke-miterlimit="10" fill="none"/><path d="M184.29 86.543h14v11h-14zm0 0" fill="#fff"/><g fill="#00f"><use xlink:href="#b" x="184.289" y="95.206"/><use xlink:href="#c" x="191.267" y="95.206"/></g><path d="M200.293 115.29l24.633 3.827M224.926 119.117l8.79-8.844" stroke-width="1.2" stroke="#000" stroke-miterlimit="10" fill="none"/><path d="M233.715 110.273l8.79-8.84" stroke-width="1.2" stroke="#f00" stroke-miterlimit="10" fill="none"/><path d="M236.313 141.297l-11.387-22.18M240.39 136.398l-9.105-17.742" stroke-width="1.2" stroke="#000" stroke-miterlimit="10" fill="none"/><path d="M242.504 101.434l11.12 5.63" stroke-width="1.2" stroke="#f00" stroke-miterlimit="10" fill="none"/><path d="M253.625 107.063l11.125 5.624" stroke-width="1.2" stroke="#000" stroke-miterlimit="10" fill="none"/><path d="M238.504 95.934h8v11h-8zm0 0" fill="#fff"/><use xlink:href="#d" x="238.504" y="104.597" fill="#f00"/><path d="M264.75 112.688l-3.824 24.632M258.57 114.25l-3.058 19.707M260.926 137.32l-24.613 3.977M140.582 156.16l3.973 24.61M146.77 157.684l3.18 19.69M159.91 140.41l-19.328 15.75M144.555 180.77l23.3 8.863M167.855 189.633l19.33-15.746M166.086 183.512l15.46-12.598M167.855 189.633l3.977 24.613M187.184 173.887l-3.973-24.61M183.21 149.277l-23.3-8.867M178.797 153.87l-18.645-7.09M171.832 214.246l1.984 12.305" stroke-width="1.2" stroke="#000" stroke-miterlimit="10" fill="none"/><path d="M173.816 226.55l1.99 12.31" stroke-width="1.2" stroke="#3cc" stroke-miterlimit="10" fill="none"/><path d="M171.832 214.246l-12.31 1.988" stroke-width="1.2" stroke="#000" stroke-miterlimit="10" fill="none"/><path d="M159.523 216.234l-12.304 1.985" stroke-width="1.2" stroke="#3cc" stroke-miterlimit="10" fill="none"/><path d="M171.832 214.246l12.305-1.988" stroke-width="1.2" stroke="#000" stroke-miterlimit="10" fill="none"/><path d="M184.137 212.258l12.304-1.985" stroke-width="1.2" stroke="#3cc" stroke-miterlimit="10" fill="none"/><path d="M172.805 233.36h6v11h-6zm0 0" fill="#fff"/><use xlink:href="#e" x="172.805" y="242.022" fill="#3cc"/><path d="M141.22 212.72h6v11h-6zm0 0" fill="#fff"/><use xlink:href="#e" x="141.219" y="221.382" fill="#3cc"/><path d="M193.44 204.773h6v11h-6zm0 0" fill="#fff"/><use xlink:href="#e" x="193.441" y="213.437" fill="#3cc"/></g></svg>