<svg xmlns="http://www.w3.org/2000/svg" xmlns:xlink="http://www.w3.org/1999/xlink" width="300pt" height="300pt" viewBox="0 0 300 300"><defs><symbol overflow="visible"><path d="M.453 1.594v-7.938h4.5v7.938zm.5-.5h3.5v-6.938h-3.5zm0 0"/></symbol><symbol overflow="visible" id="a"><path d="M4.813-6.344v.86c-.336-.157-.653-.27-.954-.344-.294-.082-.58-.125-.86-.125-.492 0-.867.094-1.125.28-.262.19-.39.454-.39.798 0 .293.085.512.265.656.176.15.504.267.984.36l.547.11c.658.125 1.142.352 1.454.672.32.312.485.734.485 1.265 0 .637-.216 1.122-.642 1.454-.43.325-1.055.485-1.875.485-.312 0-.648-.04-1-.11C1.36-.046 1-.147.625-.296v-.906c.352.2.703.35 1.047.453.35.105.695.156 1.03.156.5 0 .884-.097 1.157-.297.28-.196.42-.485.42-.86 0-.32-.1-.57-.296-.75-.2-.176-.523-.313-.968-.406l-.547-.11C1.81-3.148 1.33-3.36 1.03-3.64.74-3.923.595-4.313.595-4.813c0-.57.203-1.024.61-1.36.405-.344.968-.516 1.687-.516.313 0 .626.032.938.094.32.055.65.137.985.25zm0 0"/></symbol><symbol overflow="visible" id="b"><path d="M.89-6.563H2.08l2.906 5.485v-5.484h.86V0H4.656L1.75-5.484V0H.89zm0 0"/></symbol><symbol overflow="visible" id="c"><path d="M3.547-5.953c-.65 0-1.164.242-1.547.72-.375.48-.563 1.13-.563 1.952 0 .835.188 1.49.563 1.967.383.48.898.72 1.547.72.644 0 1.156-.24 1.53-.72.376-.476.564-1.132.564-1.968 0-.822-.187-1.474-.562-1.954-.375-.477-.887-.72-1.53-.72zm0-.734c.914 0 1.648.312 2.203.937.55.617.828 1.438.828 2.47 0 1.042-.277 1.87-.828 2.483-.555.617-1.29.922-2.203.922-.93 0-1.668-.305-2.22-.922C.774-1.41.5-2.237.5-3.28c0-1.033.273-1.853.828-2.47.55-.625 1.29-.938 2.22-.938zm0 0"/></symbol><symbol overflow="visible" id="d"><path d="M.89-6.563h3.766v.75h-2.89v1.938h2.61v.734h-2.61V0H.89zm0 0"/></symbol></defs><g><path fill="#fff" d="M0 0h300v300H0z"/><path d="M56.55 158.906l11.384 5.723" stroke-width="1.2" stroke="#cc0" stroke-miterlimit="10" fill="none"/><path d="M67.934 164.63l11.386 5.725" stroke-width="1.2" stroke="#000" stroke-miterlimit="10" fill="none"/><path d="M56.55 158.906L45.9 165.902" stroke-width="1.2" stroke="#cc0" stroke-miterlimit="10" fill="none"/><path d="M45.898 165.902l-10.648 6.996" stroke-width="1.2" stroke="#000" stroke-miterlimit="10" fill="none"/><path d="M53.55 153.406h6v11h-6zm0 0" fill="#fff"/><use xlink:href="#a" x="53.551" y="162.069" fill="#cc0"/><path d="M79.32 170.355l21.297-13.996M100.617 156.36l11.387 5.726" stroke-width="1.2" stroke="#000" stroke-miterlimit="10" fill="none"/><path d="M112.004 162.086l11.383 5.723M123.387 167.81l2.062 12.577" stroke-width="1.2" stroke="#00f" stroke-miterlimit="10" fill="none"/><path d="M125.45 180.387l2.058 12.574" stroke-width="1.2" stroke="#f00" stroke-miterlimit="10" fill="none"/><path d="M146.03 156.117l-11.32 5.848" stroke-width="1.2" stroke="#000" stroke-miterlimit="10" fill="none"/><path d="M134.71 161.965l-11.323 5.844" stroke-width="1.2" stroke="#00f" stroke-miterlimit="10" fill="none"/><path d="M120.387 162.31h7v11h-7zm0 0" fill="#fff"/><use xlink:href="#b" x="120.387" y="170.972" fill="#00f"/><path d="M127.508 192.96l12.597 1.927" stroke-width="1.2" stroke="#f00" stroke-miterlimit="10" fill="none"/><path d="M140.105 194.887l12.594 1.925" stroke-width="1.2" stroke="#000" stroke-miterlimit="10" fill="none"/><path d="M123.508 187.46h8v11h-8zm0 0" fill="#fff"/><use xlink:href="#c" x="123.508" y="196.124" fill="#f00"/><path d="M150.035 198.188l5.848 11.324" stroke-width="1.2" stroke="#000" stroke-miterlimit="10" fill="none"/><path d="M155.883 209.512l5.844 11.32" stroke-width="1.2" stroke="#f00" stroke-miterlimit="10" fill="none"/><path d="M155.363 195.438l5.848 11.324" stroke-width="1.2" stroke="#000" stroke-miterlimit="10" fill="none"/><path d="M161.21 206.762l5.845 11.32" stroke-width="1.2" stroke="#f00" stroke-miterlimit="10" fill="none"/><path d="M152.7 196.813l11.448-22.77" stroke-width="1.2" stroke="#000" stroke-miterlimit="10" fill="none"/><path d="M160.39 213.957h8v11h-8zm0 0" fill="#fff"/><use xlink:href="#c" x="160.391" y="222.62" fill="#f00"/><path d="M164.148 174.043l-18.117-17.926M158.12 176.516l-14.49-14.34M164.148 174.043l25.153-4.12M146.03 156.117l3.857-25.19M149.887 130.926l23.742-9.258M150.082 124.414l18.996-7.406M129.996 114.992l19.89 15.934M173.63 121.668l3.854-25.195M177.484 96.473l-9.95-7.965" stroke-width="1.2" stroke="#000" stroke-miterlimit="10" fill="none"/><path d="M167.535 88.508l-9.945-7.965" stroke-width="1.2" stroke="#00f" stroke-miterlimit="10" fill="none"/><path d="M171.746 99.563l-7.957-6.376" stroke-width="1.2" stroke="#000" stroke-miterlimit="10" fill="none"/><path d="M163.79 93.188l-7.958-6.372M157.59 80.543l-11.87 4.63" stroke-width="1.2" stroke="#00f" stroke-miterlimit="10" fill="none"/><path d="M145.72 85.172l-11.872 4.63" stroke-width="1.2" stroke="#000" stroke-miterlimit="10" fill="none"/><path d="M154.59 75.043h7v11h-7zm0 0" fill="#fff"/><use xlink:href="#b" x="154.59" y="83.706" fill="#00f"/><path d="M133.848 89.8l-3.852 25.192M139.39 93.227l-3.08 20.156M189.3 169.922l16.14 19.723M195.555 168.098l12.914 15.773M198.305 146.082l-9.004 23.84M205.44 189.645l25.154-4.122M230.594 185.523l9.008-23.84M225.883 181.02l7.207-19.075M239.602 161.684l12.574-2.063" stroke-width="1.2" stroke="#000" stroke-miterlimit="10" fill="none"/><path d="M252.176 159.62l12.574-2.058" stroke-width="1.2" stroke="#3cc" stroke-miterlimit="10" fill="none"/><path d="M239.602 161.684l-16.145-19.723" stroke-width="1.2" stroke="#000" stroke-miterlimit="10" fill="none"/><path d="M261.75 152.063h6v11h-6zm0 0" fill="#fff"/><use xlink:href="#d" x="261.75" y="160.726" fill="#3cc"/><path d="M223.457 141.96l-25.152 4.122M221.91 148.293l-20.12 3.293" stroke-width="1.2" stroke="#000" stroke-miterlimit="10" fill="none"/></g></svg>