<svg xmlns="http://www.w3.org/2000/svg" xmlns:xlink="http://www.w3.org/1999/xlink" width="300pt" height="300pt" viewBox="0 0 300 300"><defs><symbol overflow="visible"><path d="M.453 1.594v-7.938h4.5v7.938zm.5-.5h3.5v-6.938h-3.5zm0 0"/></symbol><symbol overflow="visible" id="a"><path d="M3.547-5.953c-.65 0-1.164.242-1.547.72-.375.48-.563 1.13-.563 1.952 0 .835.188 1.49.563 1.967.383.48.898.72 1.547.72.644 0 1.156-.24 1.53-.72.376-.476.564-1.132.564-1.968 0-.822-.187-1.474-.562-1.954-.375-.477-.887-.72-1.53-.72zm0-.734c.914 0 1.648.312 2.203.937.55.617.828 1.438.828 2.47 0 1.042-.277 1.87-.828 2.483-.555.617-1.29.922-2.203.922-.93 0-1.668-.305-2.22-.922C.774-1.41.5-2.237.5-3.28c0-1.033.273-1.853.828-2.47.55-.625 1.29-.938 2.22-.938zm0 0"/></symbol><symbol overflow="visible" id="b"><path d="M.89-6.563H2.08l2.906 5.485v-5.484h.86V0H4.656L1.75-5.484V0H.89zm0 0"/></symbol><symbol overflow="visible" id="c"><path d="M.89-6.563h.876v2.688H5v-2.688h.89V0H5v-3.125H1.766V0H.89zm0 0"/></symbol><symbol overflow="visible"><path d="M.406 1.422V-5.64h4V1.42zM.844.97h3.11v-6.157H.843zm0 0"/></symbol><symbol overflow="visible" id="d"><path d="M3.688-5.016v2.172h2.17v.672H3.69V0H3.03v-2.172H.845v-.672H3.03v-2.172zm0 0"/></symbol></defs><g><path fill="#fff" d="M0 0h300v300H0z"/><path d="M251.355 80.813l6.696 8.148" stroke-width="1.2" stroke="#f00" stroke-miterlimit="10" fill="none"/><path d="M258.05 88.96l6.7 8.15M230.543 84.266l10.406-1.727" stroke-width="1.2" stroke="#000" stroke-miterlimit="10" fill="none"/><path d="M240.95 82.54l10.405-1.728" stroke-width="1.2" stroke="#f00" stroke-miterlimit="10" fill="none"/><path d="M247.355 75.313h8v11h-8zm0 0" fill="#fff"/><use xlink:href="#a" x="247.355" y="83.976" fill="#f00"/><path d="M264.75 97.11l-7.414 19.75M257.336 116.86l-10.406 1.726" stroke-width="1.2" stroke="#000" stroke-miterlimit="10" fill="none"/><path d="M246.93 118.586l-10.407 1.727M236.523 120.313l-6.7-8.15" stroke-width="1.2" stroke="#00f" stroke-miterlimit="10" fill="none"/><path d="M229.824 112.164l-6.695-8.148" stroke-width="1.2" stroke="#000" stroke-miterlimit="10" fill="none"/><path d="M236.523 120.313l-3.707 9.874" stroke-width="1.2" stroke="#00f" stroke-miterlimit="10" fill="none"/><path d="M232.816 130.188l-3.71 9.875" stroke-width="1.2" stroke="#000" stroke-miterlimit="10" fill="none"/><path d="M226.523 112.813h21v15h-21zm0 0" fill="#fff"/><g fill="#00f"><use xlink:href="#b" x="226.523" y="124.914"/><use xlink:href="#c" x="233.501" y="124.914"/></g><use xlink:href="#d" x="240.516" y="120.031" fill="#00f"/><path d="M223.13 104.016l7.413-19.75M229.105 140.063l-20.808 3.45M208.297 143.512l-3.71 9.875" stroke-width="1.2" stroke="#000" stroke-miterlimit="10" fill="none"/><path d="M204.586 153.387l-3.707 9.875M200.88 163.262l-10.407 1.726" stroke-width="1.2" stroke="#f00" stroke-miterlimit="10" fill="none"/><path d="M190.473 164.988l-10.407 1.727" stroke-width="1.2" stroke="#000" stroke-miterlimit="10" fill="none"/><path d="M196.88 157.762h8v11h-8zm0 0" fill="#fff"/><use xlink:href="#a" x="196.879" y="166.425" fill="#f00"/><path d="M180.066 166.715l-7.414 19.75M166.672 150.418l13.394 16.297M164.176 155.2l10.72 13.038M172.652 186.465l-20.812 3.453M186.047 202.762l-13.395-16.297M180.875 204.285l-10.72-13.04M151.84 189.918l-7.414 19.746M155.746 193.637l-5.934 15.8M151.84 189.918l-13.395-16.297M144.426 209.664l13.394 16.3M157.82 225.965l20.813-3.453M159.09 220.723l16.648-2.762M178.633 222.512l7.414-19.75M138.445 173.62l7.414-19.75M143.832 173.39l5.934-15.8M138.445 173.62l-20.812 3.45M145.86 153.87l20.812-3.452M115.31 176.2l-3.708 9.874" stroke-width="1.2" stroke="#000" stroke-miterlimit="10" fill="none"/><path d="M111.602 186.074l-3.707 9.875" stroke-width="1.2" stroke="#f00" stroke-miterlimit="10" fill="none"/><path d="M119.957 177.945l-3.707 9.875" stroke-width="1.2" stroke="#000" stroke-miterlimit="10" fill="none"/><path d="M116.25 187.82l-3.71 9.875" stroke-width="1.2" stroke="#f00" stroke-miterlimit="10" fill="none"/><path d="M117.633 177.07l-13.395-16.297" stroke-width="1.2" stroke="#000" stroke-miterlimit="10" fill="none"/><path d="M102.22 191.32h8v11h-8zm0 0" fill="#fff"/><use xlink:href="#a" x="102.219" y="199.983" fill="#f00"/><path d="M106.563 161.648l3.707-9.875" stroke-width="1.2" stroke="#000" stroke-miterlimit="10" fill="none"/><path d="M110.27 151.773l3.707-9.875" stroke-width="1.2" stroke="#f00" stroke-miterlimit="10" fill="none"/><path d="M101.914 159.902l3.707-9.875" stroke-width="1.2" stroke="#000" stroke-miterlimit="10" fill="none"/><path d="M105.62 150.027l3.712-9.875" stroke-width="1.2" stroke="#f00" stroke-miterlimit="10" fill="none"/><path d="M104.238 160.773L93.832 162.5" stroke-width="1.2" stroke="#000" stroke-miterlimit="10" fill="none"/><path d="M93.832 162.5l-10.406 1.727" stroke-width="1.2" stroke="#00f" stroke-miterlimit="10" fill="none"/><path d="M107.652 135.523h8v11h-8zm0 0" fill="#fff"/><use xlink:href="#a" x="107.652" y="144.187" fill="#f00"/><path d="M83.426 164.227l-6.696-8.15" stroke-width="1.2" stroke="#00f" stroke-miterlimit="10" fill="none"/><path d="M76.73 156.078l-6.7-8.148" stroke-width="1.2" stroke="#000" stroke-miterlimit="10" fill="none"/><path d="M76.426 158.727h14v11h-14zm0 0" fill="#fff"/><g fill="#00f"><use xlink:href="#b" x="76.426" y="167.39"/><use xlink:href="#c" x="83.403" y="167.39"/></g><path d="M70.03 147.93l-10.526.63" stroke-width="1.2" stroke="#000" stroke-miterlimit="10" fill="none"/><path d="M59.504 148.56l-10.53.627" stroke-width="1.2" stroke="#00f" stroke-miterlimit="10" fill="none"/><path d="M75.344 127.512L70.03 147.93M70.008 128.305l-4.25 16.332" stroke-width="1.2" stroke="#000" stroke-miterlimit="10" fill="none"/><path d="M48.973 149.188L41.27 129.55M48.973 149.188l-5.68 8.886" stroke-width="1.2" stroke="#00f" stroke-miterlimit="10" fill="none"/><path d="M43.293 158.074l-5.68 8.89" stroke-width="1.2" stroke="#000" stroke-miterlimit="10" fill="none"/><path d="M45.973 143.688h7v11h-7zm0 0" fill="#fff"/><use xlink:href="#b" x="45.973" y="152.351" fill="#00f"/><path d="M41.27 129.55l8.148-6.698" stroke-width="1.2" stroke="#00f" stroke-miterlimit="10" fill="none"/><path d="M49.418 122.852l8.148-6.7" stroke-width="1.2" stroke="#000" stroke-miterlimit="10" fill="none"/><path d="M46.05 132.043l6.52-5.356" stroke-width="1.2" stroke="#00f" stroke-miterlimit="10" fill="none"/><path d="M52.57 126.688l6.52-5.36" stroke-width="1.2" stroke="#000" stroke-miterlimit="10" fill="none"/><path d="M38.27 124.05h7v11h-7zm0 0" fill="#fff"/><use xlink:href="#b" x="38.27" y="132.714" fill="#00f"/><path d="M57.566 116.152l17.778 11.36M57.566 116.152L56.31 95.094M56.31 95.094l21.057-1.258M56.31 95.094l-21.06 1.258M56.31 95.094l-1.26-21.06" stroke-width="1.2" stroke="#000" stroke-miterlimit="10" fill="none"/></g></svg>