<svg xmlns="http://www.w3.org/2000/svg" xmlns:xlink="http://www.w3.org/1999/xlink" width="300pt" height="300pt" viewBox="0 0 300 300"><defs><symbol overflow="visible"><path d="M.453 1.594v-7.938h4.5v7.938zm.5-.5h3.5v-6.938h-3.5zm0 0"/></symbol><symbol overflow="visible" id="a"><path d="M4.813-6.344v.86c-.336-.157-.653-.27-.954-.344-.294-.082-.58-.125-.86-.125-.492 0-.867.094-1.125.28-.262.19-.39.454-.39.798 0 .293.085.512.265.656.176.15.504.267.984.36l.547.11c.658.125 1.142.352 1.454.672.32.312.485.734.485 1.265 0 .637-.216 1.122-.642 1.454-.43.325-1.055.485-1.875.485-.312 0-.648-.04-1-.11C1.36-.046 1-.147.625-.296v-.906c.352.2.703.35 1.047.453.35.105.695.156 1.03.156.5 0 .884-.097 1.157-.297.28-.196.42-.485.42-.86 0-.32-.1-.57-.296-.75-.2-.176-.523-.313-.968-.406l-.547-.11C1.81-3.148 1.33-3.36 1.03-3.64.74-3.923.595-4.313.595-4.813c0-.57.203-1.024.61-1.36.405-.344.968-.516 1.687-.516.313 0 .626.032.938.094.32.055.65.137.985.25zm0 0"/></symbol><symbol overflow="visible" id="b"><path d="M3.547-5.953c-.65 0-1.164.242-1.547.72-.375.48-.563 1.13-.563 1.952 0 .835.188 1.49.563 1.967.383.48.898.72 1.547.72.644 0 1.156-.24 1.53-.72.376-.476.564-1.132.564-1.968 0-.822-.187-1.474-.562-1.954-.375-.477-.887-.72-1.53-.72zm0-.734c.914 0 1.648.312 2.203.937.55.617.828 1.438.828 2.47 0 1.042-.277 1.87-.828 2.483-.555.617-1.29.922-2.203.922-.93 0-1.668-.305-2.22-.922C.774-1.41.5-2.237.5-3.28c0-1.033.273-1.853.828-2.47.55-.625 1.29-.938 2.22-.938zm0 0"/></symbol><symbol overflow="visible" id="c"><path d="M.89-6.563H2.08l2.906 5.485v-5.484h.86V0H4.656L1.75-5.484V0H.89zm0 0"/></symbol><symbol overflow="visible" id="d"><path d="M.89-6.563h.876v2.688H5v-2.688h.89V0H5v-3.125H1.766V0H.89zm0 0"/></symbol><symbol overflow="visible" id="e"><path d="M.89-6.563h3.766v.75h-2.89v1.938h2.61v.734h-2.61V0H.89zm0 0"/></symbol></defs><g><path fill="#fff" d="M0 0h300v300H0z"/><path d="M257.266 122.613l-9.83.742" stroke-width="1.2" stroke="#cc0" stroke-miterlimit="10" fill="none"/><path d="M247.438 123.355l-9.83.743M264.75 140.848l-3.742-9.118" stroke-width="1.2" stroke="#000" stroke-miterlimit="10" fill="none"/><path d="M261.008 131.73l-3.742-9.117" stroke-width="1.2" stroke="#cc0" stroke-miterlimit="10" fill="none"/><path d="M254.266 117.113h6v11h-6zm0 0" fill="#fff"/><use xlink:href="#a" x="254.266" y="125.776" fill="#cc0"/><path d="M237.61 124.098l-4.665 19.152M241.648 127.11l-3.73 15.32M232.945 143.25l16.774 10.352M232.945 143.25l-18.234 7.484M249.72 153.602l15.03-12.754M248.223 148.79l12.023-10.204M212.41 150.426l-1.316 9.765" stroke-width="1.2" stroke="#000" stroke-miterlimit="10" fill="none"/><path d="M211.094 160.19l-1.317 9.77" stroke-width="1.2" stroke="#f00" stroke-miterlimit="10" fill="none"/><path d="M217.008 151.043l-1.317 9.77" stroke-width="1.2" stroke="#000" stroke-miterlimit="10" fill="none"/><path d="M215.69 160.813l-1.32 9.77" stroke-width="1.2" stroke="#f00" stroke-miterlimit="10" fill="none"/><path d="M214.71 150.734l-7.8-6.023" stroke-width="1.2" stroke="#000" stroke-miterlimit="10" fill="none"/><path d="M206.91 144.71l-7.8-6.026" stroke-width="1.2" stroke="#00f" stroke-miterlimit="10" fill="none"/><path d="M208.074 164.77h8v11h-8zm0 0" fill="#fff"/><use xlink:href="#b" x="208.074" y="173.433" fill="#f00"/><path d="M199.11 138.684l-9.118 3.742" stroke-width="1.2" stroke="#00f" stroke-miterlimit="10" fill="none"/><path d="M189.992 142.426l-9.12 3.746" stroke-width="1.2" stroke="#000" stroke-miterlimit="10" fill="none"/><path d="M192.11 133.184h14v11h-14zm0 0" fill="#fff"/><g fill="#00f"><use xlink:href="#c" x="192.109" y="141.847"/><use xlink:href="#d" x="199.087" y="141.847"/></g><path d="M180.87 146.172l-15.597-12.05M176.477 148.637l-12.48-9.64M178.238 165.707l2.633-19.535M165.273 134.12l-18.238 7.485M147.035 141.605l-7.8-6.023" stroke-width="1.2" stroke="#000" stroke-miterlimit="10" fill="none"/><path d="M139.234 135.582l-7.8-6.027" stroke-width="1.2" stroke="#00f" stroke-miterlimit="10" fill="none"/><path d="M147.035 141.605l-2.633 19.536M151.367 144.18l-2.105 15.63" stroke-width="1.2" stroke="#000" stroke-miterlimit="10" fill="none"/><path d="M131.434 129.555l-9.118 3.742" stroke-width="1.2" stroke="#00f" stroke-miterlimit="10" fill="none"/><path d="M122.316 133.297l-9.117 3.746" stroke-width="1.2" stroke="#000" stroke-miterlimit="10" fill="none"/><path d="M124.434 124.055h14v11h-14zm0 0" fill="#fff"/><g fill="#00f"><use xlink:href="#c" x="124.434" y="132.718"/><use xlink:href="#d" x="131.411" y="132.718"/></g><path d="M113.2 137.043l-15.602-12.05M108.805 139.508l-12.48-9.64M110.563 156.578l2.636-19.535M97.598 124.992l-18.235 7.485M79.363 132.477l-2.636 19.535M74.504 133.81l-2.11 15.627M65.734 118.234l13.63 14.243M76.727 152.012l15.6 12.05M76.727 152.012l-16.915 10.12M92.328 164.063l18.234-7.485M92.39 159.023l14.59-5.988M57.5 162.34l.89 9.816" stroke-width="1.2" stroke="#000" stroke-miterlimit="10" fill="none"/><path d="M58.39 172.156l.887 9.817" stroke-width="1.2" stroke="#f00" stroke-miterlimit="10" fill="none"/><path d="M62.12 161.922l.888 9.816" stroke-width="1.2" stroke="#000" stroke-miterlimit="10" fill="none"/><path d="M63.008 171.738l.89 9.817" stroke-width="1.2" stroke="#f00" stroke-miterlimit="10" fill="none"/><path d="M59.813 162.133l-18.46-6.918" stroke-width="1.2" stroke="#000" stroke-miterlimit="10" fill="none"/><path d="M57.59 176.266h8v11h-8zm0 0" fill="#fff"/><use xlink:href="#b" x="57.59" y="184.929" fill="#f00"/><path d="M41.352 155.215l-6.102-18.742M35.25 136.473l10.852-16.457M46.102 120.016l19.632-1.782M144.402 161.14L160 173.19M144.402 161.14l-18.238 7.485M160 173.19l18.238-7.483M160.063 168.152l14.59-5.988M178.238 165.707l7.8 6.023" stroke-width="1.2" stroke="#000" stroke-miterlimit="10" fill="none"/><path d="M186.04 171.73l7.8 6.024" stroke-width="1.2" stroke="#3cc" stroke-miterlimit="10" fill="none"/><path d="M190.84 172.254h6v11h-6zm0 0" fill="#fff"/><use xlink:href="#e" x="190.84" y="180.917" fill="#3cc"/></g></svg>