<svg xmlns="http://www.w3.org/2000/svg" xmlns:xlink="http://www.w3.org/1999/xlink" width="300pt" height="300pt" viewBox="0 0 300 300"><defs><symbol overflow="visible"><path d="M.453 1.594v-7.938h4.5v7.938zm.5-.5h3.5v-6.938h-3.5zm0 0"/></symbol><symbol overflow="visible" id="a"><path d="M1.766-3.14v2.406h1.421c.477 0 .833-.098 1.063-.297.227-.197.344-.5.344-.907 0-.407-.117-.708-.344-.907-.23-.195-.586-.297-1.063-.297zm0-2.688v1.97h1.312c.438 0 .758-.08.97-.236.218-.164.327-.414.327-.75 0-.332-.11-.578-.328-.734-.21-.164-.53-.25-.97-.25zM.89-6.562h2.266c.676 0 1.196.14 1.563.42.362.283.546.685.546 1.205 0 .398-.094.714-.282.953-.187.242-.464.39-.828.453.438.092.774.292 1.016.592.238.293.36.657.36 1.094 0 .594-.2 1.055-.595 1.375-.398.314-.964.47-1.703.47H.89zm0 0"/></symbol><symbol overflow="visible" id="b"><path d="M3.703-4.172c-.094-.05-.195-.086-.297-.11-.105-.02-.226-.03-.36-.03-.46 0-.812.152-1.062.453-.242.294-.36.715-.36 1.266V0H.813v-4.922h.813v.766c.176-.3.398-.524.672-.672.27-.145.598-.22.984-.22.064 0 .126.01.19.017.07.01.147.022.233.03zm0 0"/></symbol><symbol overflow="visible" id="c"><path d="M3.547-5.953c-.65 0-1.164.242-1.547.72-.375.48-.563 1.13-.563 1.952 0 .835.188 1.49.563 1.967.383.48.898.72 1.547.72.644 0 1.156-.24 1.53-.72.376-.476.564-1.132.564-1.968 0-.822-.187-1.474-.562-1.954-.375-.477-.887-.72-1.53-.72zm0-.734c.914 0 1.648.312 2.203.937.55.617.828 1.438.828 2.47 0 1.042-.277 1.87-.828 2.483-.555.617-1.29.922-2.203.922-.93 0-1.668-.305-2.22-.922C.774-1.41.5-2.237.5-3.28c0-1.033.273-1.853.828-2.47.55-.625 1.29-.938 2.22-.938zm0 0"/></symbol><symbol overflow="visible" id="d"><path d="M.89-6.563H2.08l2.906 5.485v-5.484h.86V0H4.656L1.75-5.484V0H.89zm0 0"/></symbol><symbol overflow="visible" id="e"><path d="M.89-6.563h.876v2.688H5v-2.688h.89V0H5v-3.125H1.766V0H.89zm0 0"/></symbol><symbol overflow="visible" id="f"><path d="M.89-6.563h3.766v.75h-2.89v1.938h2.61v.734h-2.61V0H.89zm0 0"/></symbol></defs><g><path fill="#fff" d="M0 0h300v300H0z"/><path d="M183.332 193.46l-9.062-4.347" stroke-width="1.2" stroke="#7f4d1a" stroke-miterlimit="10" fill="none"/><path d="M174.27 189.113l-9.063-4.343" stroke-width="1.2" stroke="#000" stroke-miterlimit="10" fill="none"/><path d="M178.332 187.96h11v11h-11zm0 0" fill="#fff"/><g fill="#7f4d1a"><use xlink:href="#a" x="178.332" y="196.624"/><use xlink:href="#b" x="184.731" y="196.624"/></g><path d="M165.207 184.77l-16.59 11.35M165.207 184.77l-1.535-20.047M160.336 183.125l-1.227-16.035M146.258 196.3l.77 10.02" stroke-width="1.2" stroke="#000" stroke-miterlimit="10" fill="none"/><path d="M147.027 206.32l.766 10.024" stroke-width="1.2" stroke="#f00" stroke-miterlimit="10" fill="none"/><path d="M150.973 195.938l.77 10.023" stroke-width="1.2" stroke="#000" stroke-miterlimit="10" fill="none"/><path d="M151.742 205.96l.766 10.024" stroke-width="1.2" stroke="#f00" stroke-miterlimit="10" fill="none"/><path d="M148.617 196.12l-9.066-4.347" stroke-width="1.2" stroke="#000" stroke-miterlimit="10" fill="none"/><path d="M139.55 191.773l-9.062-4.347" stroke-width="1.2" stroke="#00f" stroke-miterlimit="10" fill="none"/><path d="M146.152 210.664h8v11h-8zm0 0" fill="#fff"/><use xlink:href="#c" x="146.152" y="219.327" fill="#f00"/><path d="M130.488 187.426l-8.293 5.68" stroke-width="1.2" stroke="#00f" stroke-miterlimit="10" fill="none"/><path d="M122.195 193.105l-8.297 5.676" stroke-width="1.2" stroke="#000" stroke-miterlimit="10" fill="none"/><path d="M130.488 187.426l-.765-10.02" stroke-width="1.2" stroke="#00f" stroke-miterlimit="10" fill="none"/><path d="M129.723 177.406l-.77-10.023" stroke-width="1.2" stroke="#000" stroke-miterlimit="10" fill="none"/><path d="M127.488 181.926h7v11h-7zm0 0" fill="#fff"/><use xlink:href="#d" x="127.488" y="190.589" fill="#00f"/><path d="M113.898 198.78l-18.125-8.694M95.773 190.086l-1.535-20.043M90.902 188.445l-1.226-16.035M79.184 201.44l16.59-11.354M94.238 170.043l-18.13-8.69M76.11 161.352l-16.59 11.35M77.12 166.39l-13.268 9.083M76.11 161.352l-1.536-20.043M59.52 172.703l1.535 20.043M61.055 192.746l18.13 8.695M64.914 189.352l14.5 6.953M74.574 141.31l-9.062-4.35" stroke-width="1.2" stroke="#000" stroke-miterlimit="10" fill="none"/><path d="M65.512 136.96l-9.063-4.343M56.45 132.617l-.77-10.023" stroke-width="1.2" stroke="#00f" stroke-miterlimit="10" fill="none"/><path d="M55.68 122.594l-.766-10.02" stroke-width="1.2" stroke="#000" stroke-miterlimit="10" fill="none"/><path d="M49.45 127.117h14v11h-14zm0 0" fill="#fff"/><g fill="#00f"><use xlink:href="#d" x="49.449" y="135.78"/><use xlink:href="#e" x="56.427" y="135.78"/></g><path d="M56.246 114.523l8.297-5.675" stroke-width="1.2" stroke="#000" stroke-miterlimit="10" fill="none"/><path d="M64.543 108.848l8.297-5.676" stroke-width="1.2" stroke="#f00" stroke-miterlimit="10" fill="none"/><path d="M53.578 110.62l8.293-5.675" stroke-width="1.2" stroke="#000" stroke-miterlimit="10" fill="none"/><path d="M61.87 104.945l8.298-5.675" stroke-width="1.2" stroke="#f00" stroke-miterlimit="10" fill="none"/><path d="M54.914 112.574l-18.13-8.695" stroke-width="1.2" stroke="#000" stroke-miterlimit="10" fill="none"/><path d="M67.504 95.72h8v11h-8zm0 0" fill="#fff"/><use xlink:href="#c" x="67.504" y="104.382" fill="#f00"/><path d="M36.785 103.88l-.765-10.02" stroke-width="1.2" stroke="#000" stroke-miterlimit="10" fill="none"/><path d="M36.02 93.86l-.77-10.024" stroke-width="1.2" stroke="#f00" stroke-miterlimit="10" fill="none"/><path d="M28.25 78.336h15v11h-15zm0 0" fill="#fff"/><g fill="#f00"><use xlink:href="#e" x="28.25" y="86.999"/><use xlink:href="#c" x="35.265" y="86.999"/></g><path d="M128.953 167.383l16.59-11.352M133.285 170.152l13.27-9.082M128.953 167.383l-18.125-8.692M145.543 156.03l18.13 8.693M163.672 164.723l8.293-5.676" stroke-width="1.2" stroke="#000" stroke-miterlimit="10" fill="none"/><path d="M171.965 159.047l8.297-5.676M180.262 153.37l9.062 4.35" stroke-width="1.2" stroke="#f00" stroke-miterlimit="10" fill="none"/><path d="M189.324 157.72l9.063 4.343" stroke-width="1.2" stroke="#000" stroke-miterlimit="10" fill="none"/><path d="M176.262 147.87h8v11h-8zm0 0" fill="#fff"/><use xlink:href="#c" x="176.262" y="156.534" fill="#f00"/><path d="M198.387 162.063l16.59-11.352M214.977 150.71l18.128 8.692M218.836 147.316l14.5 6.954M213.44 130.668l1.537 20.043M233.105 159.402l16.59-11.35M249.695 148.05l-1.535-20.042M244.824 146.41l-1.226-16.035M248.16 128.008l8.293-5.676" stroke-width="1.2" stroke="#000" stroke-miterlimit="10" fill="none"/><path d="M256.453 122.332l8.297-5.676" stroke-width="1.2" stroke="#3cc" stroke-miterlimit="10" fill="none"/><path d="M248.16 128.008l-18.13-8.692" stroke-width="1.2" stroke="#000" stroke-miterlimit="10" fill="none"/><path d="M261.75 111.156h6v11h-6zm0 0" fill="#fff"/><use xlink:href="#f" x="261.75" y="119.819" fill="#3cc"/><path d="M230.03 119.316l-16.59 11.352M231.047 124.355l-13.274 9.082M213.44 130.668l-9.06-4.348" stroke-width="1.2" stroke="#000" stroke-miterlimit="10" fill="none"/><path d="M204.38 126.32l-9.064-4.343" stroke-width="1.2" stroke="#3cc" stroke-miterlimit="10" fill="none"/><path d="M189.316 116.477h6v11h-6zm0 0" fill="#fff"/><use xlink:href="#f" x="189.316" y="125.14" fill="#3cc"/></g></svg>