<svg xmlns="http://www.w3.org/2000/svg" xmlns:xlink="http://www.w3.org/1999/xlink" width="300pt" height="300pt" viewBox="0 0 300 300"><defs><symbol overflow="visible"><path d="M.453 1.594v-7.938h4.5v7.938zm.5-.5h3.5v-6.938h-3.5zm0 0"/></symbol><symbol overflow="visible" id="a"><path d="M4.813-6.344v.86c-.336-.157-.653-.27-.954-.344-.294-.082-.58-.125-.86-.125-.492 0-.867.094-1.125.28-.262.19-.39.454-.39.798 0 .293.085.512.265.656.176.15.504.267.984.36l.547.11c.658.125 1.142.352 1.454.672.32.312.485.734.485 1.265 0 .637-.216 1.122-.642 1.454-.43.325-1.055.485-1.875.485-.312 0-.648-.04-1-.11C1.36-.046 1-.147.625-.296v-.906c.352.2.703.35 1.047.453.35.105.695.156 1.03.156.5 0 .884-.097 1.157-.297.28-.196.42-.485.42-.86 0-.32-.1-.57-.296-.75-.2-.176-.523-.313-.968-.406l-.547-.11C1.81-3.148 1.33-3.36 1.03-3.64.74-3.923.595-4.313.595-4.813c0-.57.203-1.024.61-1.36.405-.344.968-.516 1.687-.516.313 0 .626.032.938.094.32.055.65.137.985.25zm0 0"/></symbol><symbol overflow="visible" id="b"><path d="M.89-6.563H2.08l2.906 5.485v-5.484h.86V0H4.656L1.75-5.484V0H.89zm0 0"/></symbol><symbol overflow="visible" id="c"><path d="M3.547-5.953c-.65 0-1.164.242-1.547.72-.375.48-.563 1.13-.563 1.952 0 .835.188 1.49.563 1.967.383.48.898.72 1.547.72.644 0 1.156-.24 1.53-.72.376-.476.564-1.132.564-1.968 0-.822-.187-1.474-.562-1.954-.375-.477-.887-.72-1.53-.72zm0-.734c.914 0 1.648.312 2.203.937.55.617.828 1.438.828 2.47 0 1.042-.277 1.87-.828 2.483-.555.617-1.29.922-2.203.922-.93 0-1.668-.305-2.22-.922C.774-1.41.5-2.237.5-3.28c0-1.033.273-1.853.828-2.47.55-.625 1.29-.938 2.22-.938zm0 0"/></symbol></defs><g><path fill="#fff" d="M0 0h300v300H0z"/><path d="M198.53 121.89l1.118 12.653" stroke-width="1.2" stroke="#cc0" stroke-miterlimit="10" fill="none"/><path d="M199.648 134.543l1.118 12.656M173.77 116.19l12.382 2.85" stroke-width="1.2" stroke="#000" stroke-miterlimit="10" fill="none"/><path d="M186.152 119.04l12.38 2.85" stroke-width="1.2" stroke="#cc0" stroke-miterlimit="10" fill="none"/><path d="M195.53 116.39h6v11h-6zm0 0" fill="#fff"/><use xlink:href="#a" x="195.531" y="125.054" fill="#cc0"/><path d="M200.766 147.2l20.3 15.277M199.2 153.504l16.24 12.223M177.383 157.14l23.383-9.94M221.066 162.477l-3.082 25.222M244.45 152.53l-23.384 9.947M217.984 187.7l-23.38 9.94M213.31 183.19l-18.708 7.955M217.984 187.7l20.305 15.277M194.605 197.64L174.3 182.364M174.3 182.363l3.083-25.222M180.543 180.566l2.465-20.175M177.383 157.14l-8.344-9.58" stroke-width="1.2" stroke="#000" stroke-miterlimit="10" fill="none"/><path d="M169.04 147.56l-8.34-9.583M160.7 137.977l6.534-10.895" stroke-width="1.2" stroke="#00f" stroke-miterlimit="10" fill="none"/><path d="M167.234 127.082l6.536-10.89M135.938 132.277l12.382 2.852" stroke-width="1.2" stroke="#000" stroke-miterlimit="10" fill="none"/><path d="M148.32 135.13l12.38 2.847" stroke-width="1.2" stroke="#00f" stroke-miterlimit="10" fill="none"/><path d="M157.7 132.477h7v11h-7zm0 0" fill="#fff"/><use xlink:href="#b" x="157.699" y="141.14" fill="#00f"/><path d="M173.77 116.19l-8.34-9.585" stroke-width="1.2" stroke="#000" stroke-miterlimit="10" fill="none"/><path d="M165.43 106.605l-8.34-9.582" stroke-width="1.2" stroke="#00f" stroke-miterlimit="10" fill="none"/><path d="M167.594 118.2l-6.672-7.67" stroke-width="1.2" stroke="#000" stroke-miterlimit="10" fill="none"/><path d="M160.922 110.53l-6.672-7.663M157.09 97.023l-23.383 9.946" stroke-width="1.2" stroke="#00f" stroke-miterlimit="10" fill="none"/><path d="M154.09 91.523h7v11h-7zm0 0" fill="#fff"/><use xlink:href="#b" x="154.09" y="100.187" fill="#00f"/><path d="M133.707 106.97l1.117 12.655" stroke-width="1.2" stroke="#00f" stroke-miterlimit="10" fill="none"/><path d="M134.824 119.625l1.113 12.652" stroke-width="1.2" stroke="#000" stroke-miterlimit="10" fill="none"/><path d="M139.887 108.973l.89 10.125" stroke-width="1.2" stroke="#00f" stroke-miterlimit="10" fill="none"/><path d="M140.777 119.098l.895 10.125" stroke-width="1.2" stroke="#000" stroke-miterlimit="10" fill="none"/><path d="M130.707 101.47h7v11h-7zm0 0" fill="#fff"/><use xlink:href="#b" x="130.707" y="110.132" fill="#00f"/><path d="M135.938 132.277l-19.165 16.684M116.773 148.96l-24.027-8.257M112.43 153.79l-19.227-6.606M121.64 173.898l-4.867-24.937M92.746 140.703l-19.168 16.684M73.578 157.387l4.867 24.937M79.934 158.734l3.89 19.953M78.445 182.324l-9.582 8.344" stroke-width="1.2" stroke="#000" stroke-miterlimit="10" fill="none"/><path d="M68.863 190.668l-9.582 8.34" stroke-width="1.2" stroke="#f00" stroke-miterlimit="10" fill="none"/><path d="M78.445 182.324l24.028 8.258" stroke-width="1.2" stroke="#000" stroke-miterlimit="10" fill="none"/><path d="M59.28 199.008l-12.014-4.13" stroke-width="1.2" stroke="#f00" stroke-miterlimit="10" fill="none"/><path d="M47.266 194.88l-12.016-4.13" stroke-width="1.2" stroke="#000" stroke-miterlimit="10" fill="none"/><path d="M55.28 193.508h8v11h-8zm0 0" fill="#fff"/><use xlink:href="#c" x="55.281" y="202.171" fill="#f00"/><path d="M102.473 190.582l19.168-16.684M100.465 184.402l15.332-13.343M238.29 202.977l23.382-9.946M238.285 196.48l18.707-7.957M261.672 193.03l3.078-25.218M264.75 167.813l-20.3-15.282M259.125 171.06l-16.242-12.224" stroke-width="1.2" stroke="#000" stroke-miterlimit="10" fill="none"/></g></svg>