<svg xmlns="http://www.w3.org/2000/svg" xmlns:xlink="http://www.w3.org/1999/xlink" width="300pt" height="300pt" viewBox="0 0 300 300"><defs><symbol overflow="visible"><path d="M.453 1.594v-7.938h4.5v7.938zm.5-.5h3.5v-6.938h-3.5zm0 0"/></symbol><symbol overflow="visible" id="a"><path d="M3.547-5.953c-.65 0-1.164.242-1.547.72-.375.48-.563 1.13-.563 1.952 0 .835.188 1.49.563 1.967.383.48.898.72 1.547.72.644 0 1.156-.24 1.53-.72.376-.476.564-1.132.564-1.968 0-.822-.187-1.474-.562-1.954-.375-.477-.887-.72-1.53-.72zm0-.734c.914 0 1.648.312 2.203.937.55.617.828 1.438.828 2.47 0 1.042-.277 1.87-.828 2.483-.555.617-1.29.922-2.203.922-.93 0-1.668-.305-2.22-.922C.774-1.41.5-2.237.5-3.28c0-1.033.273-1.853.828-2.47.55-.625 1.29-.938 2.22-.938zm0 0"/></symbol><symbol overflow="visible" id="b"><path d="M.89-6.563H2.08l2.906 5.485v-5.484h.86V0H4.656L1.75-5.484V0H.89zm0 0"/></symbol><symbol overflow="visible" id="c"><path d="M.89-6.563h.876v2.688H5v-2.688h.89V0H5v-3.125H1.766V0H.89zm0 0"/></symbol><symbol overflow="visible"><path d="M.406 1.422V-5.64h4V1.42zM.844.97h3.11v-6.157H.843zm0 0"/></symbol><symbol overflow="visible" id="d"><path d="M3.688-5.016v2.172h2.17v.672H3.69V0H3.03v-2.172H.845v-.672H3.03v-2.172zm0 0"/></symbol></defs><g><path fill="#fff" d="M0 0h300v300H0z"/><path d="M97.664 187.914l5.363 8.914" stroke-width="1.2" stroke="#f00" stroke-miterlimit="10" fill="none"/><path d="M103.027 196.828l5.364 8.914" stroke-width="1.2" stroke="#000" stroke-miterlimit="10" fill="none"/><path d="M97.664 187.914l-10.402.188" stroke-width="1.2" stroke="#f00" stroke-miterlimit="10" fill="none"/><path d="M87.262 188.102l-10.403.187" stroke-width="1.2" stroke="#000" stroke-miterlimit="10" fill="none"/><path d="M93.664 182.414h8v11h-8zm0 0" fill="#fff"/><use xlink:href="#a" x="93.664" y="191.077" fill="#f00"/><path d="M76.86 188.29l-10.08 18.206M71.566 187.738l-8.058 14.567M66.133 170.46l10.726 17.83M66.78 206.496l-20.803.375M45.977 206.87L35.25 189.044M49.102 202.563L40.52 188.3M35.25 189.043l10.078-18.207M45.328 170.836l20.805-.375M47.496 175.695l16.645-.3M66.133 170.46l10.074-18.206M78.305 150.992l-5.364-8.914" stroke-width="1.2" stroke="#000" stroke-miterlimit="10" fill="none"/><path d="M72.94 142.078l-5.362-8.914" stroke-width="1.2" stroke="#f00" stroke-miterlimit="10" fill="none"/><path d="M74.11 153.52l-5.364-8.918" stroke-width="1.2" stroke="#000" stroke-miterlimit="10" fill="none"/><path d="M68.746 144.602l-5.363-8.915" stroke-width="1.2" stroke="#f00" stroke-miterlimit="10" fill="none"/><path d="M76.207 152.254l10.402-.188" stroke-width="1.2" stroke="#000" stroke-miterlimit="10" fill="none"/><path d="M86.61 152.066l10.402-.187" stroke-width="1.2" stroke="#00f" stroke-miterlimit="10" fill="none"/><path d="M57.48 128.926h8v11h-8zm0 0" fill="#fff"/><use xlink:href="#a" x="57.48" y="137.589" fill="#f00"/><path d="M97.012 151.88l5.04-9.103" stroke-width="1.2" stroke="#00f" stroke-miterlimit="10" fill="none"/><path d="M102.05 142.777l5.04-9.1" stroke-width="1.2" stroke="#000" stroke-miterlimit="10" fill="none"/><path d="M90.012 146.38h14v11h-14zm0 0" fill="#fff"/><g fill="#00f"><use xlink:href="#b" x="90.012" y="155.042"/><use xlink:href="#c" x="96.989" y="155.042"/></g><path d="M107.09 133.676l20.805-.38M109.082 128.742l16.64-.3M96.36 115.844l10.73 17.832M127.895 133.297l10.074-18.203M137.97 115.094l10.4-.188" stroke-width="1.2" stroke="#000" stroke-miterlimit="10" fill="none"/><path d="M148.37 114.906l10.403-.187" stroke-width="1.2" stroke="#00f" stroke-miterlimit="10" fill="none"/><path d="M137.97 115.094L127.24 97.266M132.703 115.836l-8.582-14.266" stroke-width="1.2" stroke="#000" stroke-miterlimit="10" fill="none"/><path d="M158.773 114.72l5.04-9.107" stroke-width="1.2" stroke="#00f" stroke-miterlimit="10" fill="none"/><path d="M163.813 105.613l5.04-9.1M169.504 132.547l-5.367-8.914" stroke-width="1.2" stroke="#000" stroke-miterlimit="10" fill="none"/><path d="M164.137 123.633l-5.364-8.914" stroke-width="1.2" stroke="#00f" stroke-miterlimit="10" fill="none"/><path d="M155.773 109.22h7v11h-7zm0 0" fill="#fff"/><use xlink:href="#b" x="155.773" y="117.882" fill="#00f"/><path d="M168.852 96.512l10.402-.188" stroke-width="1.2" stroke="#000" stroke-miterlimit="10" fill="none"/><path d="M179.254 96.324l10.402-.187" stroke-width="1.2" stroke="#00f" stroke-miterlimit="10" fill="none"/><path d="M171.02 101.37l8.32-.15" stroke-width="1.2" stroke="#000" stroke-miterlimit="10" fill="none"/><path d="M179.34 101.22l8.324-.15M189.656 96.137l5.364 8.914" stroke-width="1.2" stroke="#00f" stroke-miterlimit="10" fill="none"/><path d="M195.02 105.05l5.363 8.915" stroke-width="1.2" stroke="#000" stroke-miterlimit="10" fill="none"/><path d="M186.656 90.637h7v11h-7zm0 0" fill="#fff"/><use xlink:href="#b" x="186.656" y="99.3" fill="#00f"/><path d="M200.383 113.965l-10.078 18.207M203.66 118.156l-8.062 14.567M221.188 113.59l-20.805.375M190.305 132.172L201.035 150M190.305 132.172l-20.8.375M201.035 150l20.805-.375M203.027 145.066l16.64-.3M221.84 149.625l5.363 8.914" stroke-width="1.2" stroke="#000" stroke-miterlimit="10" fill="none"/><path d="M227.203 158.54l5.363 8.913" stroke-width="1.2" stroke="#00f" stroke-miterlimit="10" fill="none"/><path d="M221.84 149.625l10.074-18.207" stroke-width="1.2" stroke="#000" stroke-miterlimit="10" fill="none"/><path d="M232.566 167.453l-5.04 9.102" stroke-width="1.2" stroke="#00f" stroke-miterlimit="10" fill="none"/><path d="M227.527 176.555l-5.04 9.105M253.37 167.078l-10.4.188" stroke-width="1.2" stroke="#000" stroke-miterlimit="10" fill="none"/><path d="M242.97 167.266l-10.404.187" stroke-width="1.2" stroke="#00f" stroke-miterlimit="10" fill="none"/><path d="M229.566 161.953h7v11h-7zm0 0" fill="#fff"/><use xlink:href="#b" x="229.566" y="170.616" fill="#00f"/><path d="M222.488 185.66l10.73 17.828M233.22 203.488l10.4-.187" stroke-width="1.2" stroke="#000" stroke-miterlimit="10" fill="none"/><path d="M243.62 203.3l10.403-.187M254.023 203.113l5.036-9.105" stroke-width="1.2" stroke="#00f" stroke-miterlimit="10" fill="none"/><path d="M259.06 194.008l5.038-9.102" stroke-width="1.2" stroke="#000" stroke-miterlimit="10" fill="none"/><path d="M254.023 203.113l5.364 8.914" stroke-width="1.2" stroke="#00f" stroke-miterlimit="10" fill="none"/><path d="M259.387 212.027l5.363 8.914" stroke-width="1.2" stroke="#000" stroke-miterlimit="10" fill="none"/><path d="M244.023 195.613h21v15h-21zm0 0" fill="#fff"/><g fill="#00f"><use xlink:href="#b" x="244.023" y="207.715"/><use xlink:href="#c" x="251.001" y="207.715"/></g><use xlink:href="#d" x="258.016" y="202.832" fill="#00f"/><path d="M264.098 184.906l-10.727-17.828M231.914 131.418l-10.726-17.828M226.648 132.16l-8.582-14.262M167.36 131.36l-5.04 9.105" stroke-width="1.2" stroke="#000" stroke-miterlimit="10" fill="none"/><path d="M162.32 140.465l-5.035 9.1" stroke-width="1.2" stroke="#f00" stroke-miterlimit="10" fill="none"/><path d="M171.645 133.73l-5.04 9.106" stroke-width="1.2" stroke="#000" stroke-miterlimit="10" fill="none"/><path d="M166.605 142.836l-5.04 9.1" stroke-width="1.2" stroke="#f00" stroke-miterlimit="10" fill="none"/><path d="M151.426 145.25h8v11h-8zm0 0" fill="#fff"/><use xlink:href="#a" x="151.426" y="153.913" fill="#f00"/><path d="M127.242 97.266l-20.805.375M127.242 97.266L137.32 79.06M106.438 97.64l-10.08 18.204M109.715 101.832l-8.063 14.563" stroke-width="1.2" stroke="#000" stroke-miterlimit="10" fill="none"/></g></svg>