<svg xmlns="http://www.w3.org/2000/svg" xmlns:xlink="http://www.w3.org/1999/xlink" width="300pt" height="300pt" viewBox="0 0 300 300"><defs><symbol overflow="visible"><path d="M.547 1.938V-7.75h5.5v9.688zm.625-.61h4.266v-8.47H1.171zm0 0"/></symbol><symbol overflow="visible" id="a"><path d="M7.078-7.406v1.156c-.367-.344-.758-.598-1.172-.766-.406-.164-.843-.25-1.312-.25-.918 0-1.62.282-2.11.844-.48.555-.718 1.36-.718 2.422 0 1.055.238 1.86.718 2.422.49.562 1.192.844 2.11.844.468 0 .906-.082 1.312-.25.414-.164.805-.422 1.172-.766v1.125c-.375.262-.777.46-1.203.594-.418.124-.867.186-1.344.186-1.21 0-2.163-.367-2.858-1.11C.972-1.703.625-2.718.625-4c0-1.29.348-2.305 1.047-3.047.695-.75 1.648-1.125 2.86-1.125.476 0 .93.07 1.36.203.424.126.82.314 1.186.564zm0 0"/></symbol><symbol overflow="visible" id="b"><path d="M1.03-8.36h1V0h-1zm0 0"/></symbol><symbol overflow="visible" id="c"><path d="M1.078-8.016h1.47l3.546 6.704v-6.704h1.062V0H5.688L2.124-6.703V0H1.078zm0 0"/></symbol><symbol overflow="visible" id="d"><path d="M5.89-7.75v1.047c-.417-.195-.808-.344-1.17-.438-.368-.094-.72-.14-1.064-.14-.586 0-1.04.116-1.36.343-.323.23-.483.554-.483.968 0 .357.1.626.312.814.22.18.625.324 1.22.437L4-4.593c.813.157 1.41.434 1.797.828.383.387.578.903.578 1.547 0 .783-.262 1.376-.78 1.783-.525.398-1.29.593-2.298.593-.375 0-.78-.047-1.22-.14C1.648-.066 1.208-.19.75-.36v-1.11c.445.25.88.44 1.297.564.426.125.844.187 1.25.187.625 0 1.1-.116 1.437-.358.332-.25.5-.598.5-1.047 0-.395-.12-.703-.36-.922-.24-.226-.636-.398-1.186-.515l-.657-.126c-.81-.156-1.4-.406-1.764-.75C.898-4.78.72-5.258.72-5.875c0-.707.25-1.266.75-1.672.5-.414 1.19-.625 2.077-.625.375 0 .754.04 1.14.11.395.074.797.18 1.204.312zm0 0"/></symbol><symbol overflow="visible" id="e"><path d="M4.328-7.28c-.78 0-1.406.296-1.875.89-.46.585-.687 1.382-.687 2.39 0 1.012.226 1.813.687 2.406.47.586 1.094.875 1.875.875.79 0 1.414-.288 1.875-.874.457-.593.688-1.394.688-2.406 0-1.008-.23-1.805-.687-2.39-.46-.594-1.086-.89-1.875-.89zm0-.892c1.125 0 2.024.383 2.703 1.14C7.708-6.28 8.048-5.27 8.048-4c0 1.262-.34 2.273-1.016 3.03C6.353-.22 5.454.157 4.33.157S2.3-.22 1.625-.97c-.668-.75-1-1.757-1-3.03 0-1.27.332-2.28 1-3.03.676-.76 1.578-1.142 2.703-1.142zm0 0"/></symbol></defs><g><path fill="#fff" d="M0 0h300v300H0z"/><path d="M55.37 180.574l.884-13.148" stroke-width="1.2" stroke="#0c0" stroke-miterlimit="10" fill="none"/><path d="M56.254 167.426l.887-13.15" stroke-width="1.2" stroke="#000" stroke-miterlimit="10" fill="none"/><path d="M50.37 174.074h11v13h-11zm0 0" fill="#fff"/><g fill="#0c0"><use xlink:href="#a" x="50.371" y="183.976"/><use xlink:href="#b" x="57.822" y="183.976"/></g><path d="M57.14 154.277l-21.89-14.68M58.402 147.66l-17.507-11.746M80.797 142.66L57.14 154.277M35.25 139.598l1.77-26.297M37.02 113.3l23.656-11.616M42.117 117.707l18.926-9.293M60.676 101.684l21.89 14.68M82.566 116.363l11.83-5.808" stroke-width="1.2" stroke="#000" stroke-miterlimit="10" fill="none"/><path d="M94.395 110.555l11.828-5.81" stroke-width="1.2" stroke="#0c0" stroke-miterlimit="10" fill="none"/><path d="M82.566 116.363l-1.77 26.297M76.2 118.578l-1.415 21.035" stroke-width="1.2" stroke="#000" stroke-miterlimit="10" fill="none"/><path d="M101.223 98.246h11v13h-11zm0 0" fill="#fff"/><g fill="#0c0"><use xlink:href="#a" x="101.223" y="108.147"/><use xlink:href="#b" x="108.674" y="108.147"/></g><path d="M80.797 142.66l21.887 14.68M102.684 157.34l23.66-11.617M107.785 161.746l18.926-9.297M100.918 183.637l1.766-26.297M126.344 145.723l10.945 7.34" stroke-width="1.2" stroke="#000" stroke-miterlimit="10" fill="none"/><path d="M137.29 153.063l10.94 7.34" stroke-width="1.2" stroke="#00f" stroke-miterlimit="10" fill="none"/><path d="M128.11 119.426l-1.766 26.297" stroke-width="1.2" stroke="#000" stroke-miterlimit="10" fill="none"/><path d="M148.23 160.402l23.66-11.617M148.23 160.402l-.882 13.15" stroke-width="1.2" stroke="#00f" stroke-miterlimit="10" fill="none"/><path d="M147.348 173.55l-.883 13.15" stroke-width="1.2" stroke="#000" stroke-miterlimit="10" fill="none"/><path d="M144.23 153.902h8v13h-8zm0 0" fill="#fff"/><use xlink:href="#c" x="144.23" y="163.804" fill="#00f"/><path d="M171.89 148.785l.883-13.148" stroke-width="1.2" stroke="#00f" stroke-miterlimit="10" fill="none"/><path d="M172.773 135.637l.883-13.15" stroke-width="1.2" stroke="#000" stroke-miterlimit="10" fill="none"/><path d="M165.88 145.738l.706-10.515" stroke-width="1.2" stroke="#00f" stroke-miterlimit="10" fill="none"/><path d="M166.586 135.223l.707-10.52" stroke-width="1.2" stroke="#000" stroke-miterlimit="10" fill="none"/><path d="M167.89 142.285h8v13h-8zm0 0" fill="#fff"/><use xlink:href="#c" x="167.891" y="152.187" fill="#00f"/><path d="M173.656 122.488l11.828-5.808" stroke-width="1.2" stroke="#000" stroke-miterlimit="10" fill="none"/><path d="M185.484 116.68l11.832-5.81" stroke-width="1.2" stroke="#cc0" stroke-miterlimit="10" fill="none"/><path d="M173.656 122.488l-21.886-14.68" stroke-width="1.2" stroke="#000" stroke-miterlimit="10" fill="none"/><path d="M197.316 110.87l10.942 7.34" stroke-width="1.2" stroke="#cc0" stroke-miterlimit="10" fill="none"/><path d="M208.258 118.21l10.945 7.34" stroke-width="1.2" stroke="#000" stroke-miterlimit="10" fill="none"/><path d="M194.316 104.37h7v13h-7zm0 0" fill="#fff"/><use xlink:href="#d" x="194.316" y="114.272" fill="#cc0"/><path d="M219.203 125.55l-1.77 26.298M225.215 128.598l-1.414 21.035M242.86 113.934l-23.657 11.617M217.434 151.848l21.89 14.68M239.324 166.527l-.883 13.15" stroke-width="1.2" stroke="#000" stroke-miterlimit="10" fill="none"/><path d="M238.44 179.676l-.885 13.148" stroke-width="1.2" stroke="#0c0" stroke-miterlimit="10" fill="none"/><path d="M239.324 166.527l23.656-11.617M238.957 159.8l18.926-9.296" stroke-width="1.2" stroke="#000" stroke-miterlimit="10" fill="none"/><path d="M232.555 186.324h11v13h-11zm0 0" fill="#fff"/><g fill="#0c0"><use xlink:href="#a" x="232.555" y="196.226"/><use xlink:href="#b" x="240.006" y="196.226"/></g><path d="M262.98 154.91l1.77-26.297M264.75 128.613l-21.89-14.68M259.105 132.297l-17.507-11.742M151.77 107.81l-23.66 11.616M152.137 114.54l-18.926 9.292M146.465 186.7l-11.828 5.808" stroke-width="1.2" stroke="#000" stroke-miterlimit="10" fill="none"/><path d="M134.637 192.508l-11.832 5.808" stroke-width="1.2" stroke="#00f" stroke-miterlimit="10" fill="none"/><path d="M141.363 182.293l-9.46 4.648" stroke-width="1.2" stroke="#000" stroke-miterlimit="10" fill="none"/><path d="M131.902 186.94l-9.464 4.646M122.805 198.316l-10.942-7.34" stroke-width="1.2" stroke="#00f" stroke-miterlimit="10" fill="none"/><path d="M111.863 190.977l-10.945-7.34" stroke-width="1.2" stroke="#000" stroke-miterlimit="10" fill="none"/><path d="M118.805 191.816h8v13h-8zm0 0" fill="#fff"/><use xlink:href="#c" x="118.805" y="201.718" fill="#00f"/><path d="M99.55 180.852l-11.827 5.808" stroke-width="1.2" stroke="#000" stroke-miterlimit="10" fill="none"/><path d="M87.723 186.66l-11.828 5.81" stroke-width="1.2" stroke="#f00" stroke-miterlimit="10" fill="none"/><path d="M102.285 186.418l-11.828 5.81" stroke-width="1.2" stroke="#000" stroke-miterlimit="10" fill="none"/><path d="M90.457 192.227l-11.832 5.808" stroke-width="1.2" stroke="#f00" stroke-miterlimit="10" fill="none"/><path d="M68.262 188.754h9v13h-9zm0 0" fill="#fff"/><use xlink:href="#e" x="68.262" y="198.655" fill="#f00"/></g></svg>