<svg xmlns="http://www.w3.org/2000/svg" xmlns:xlink="http://www.w3.org/1999/xlink" width="300pt" height="300pt" viewBox="0 0 300 300"><defs><symbol overflow="visible"><path d="M.453 1.594v-7.938h4.5v7.938zm.5-.5h3.5v-6.938h-3.5zm0 0"/></symbol><symbol overflow="visible" id="a"><path d="M3.547-5.953c-.65 0-1.164.242-1.547.72-.375.48-.563 1.13-.563 1.952 0 .835.188 1.49.563 1.967.383.48.898.72 1.547.72.644 0 1.156-.24 1.53-.72.376-.476.564-1.132.564-1.968 0-.822-.187-1.474-.562-1.954-.375-.477-.887-.72-1.53-.72zm0-.734c.914 0 1.648.312 2.203.937.55.617.828 1.438.828 2.47 0 1.042-.277 1.87-.828 2.483-.555.617-1.29.922-2.203.922-.93 0-1.668-.305-2.22-.922C.774-1.41.5-2.237.5-3.28c0-1.033.273-1.853.828-2.47.55-.625 1.29-.938 2.22-.938zm0 0"/></symbol><symbol overflow="visible" id="b"><path d="M.89-6.563H2.08l2.906 5.485v-5.484h.86V0H4.656L1.75-5.484V0H.89zm0 0"/></symbol><symbol overflow="visible" id="c"><path d="M.89-6.563h.876v2.688H5v-2.688h.89V0H5v-3.125H1.766V0H.89zm0 0"/></symbol><symbol overflow="visible"><path d="M.406 1.422V-5.64h4V1.42zM.844.97h3.11v-6.157H.843zm0 0"/></symbol><symbol overflow="visible" id="d"><path d="M3.688-5.016v2.172h2.17v.672H3.69V0H3.03v-2.172H.845v-.672H3.03v-2.172zm0 0"/></symbol></defs><g><path fill="#fff" d="M0 0h300v300H0z"/><path d="M253.066 89.5l5.84 6.82" stroke-width="1.2" stroke="#f00" stroke-miterlimit="10" fill="none"/><path d="M258.906 96.32l5.844 6.82M235.41 92.8l8.828-1.648" stroke-width="1.2" stroke="#000" stroke-miterlimit="10" fill="none"/><path d="M244.238 91.152l8.828-1.652" stroke-width="1.2" stroke="#f00" stroke-miterlimit="10" fill="none"/><path d="M249.066 84h8v11h-8zm0 0" fill="#fff"/><use xlink:href="#a" x="249.066" y="92.663" fill="#f00"/><path d="M264.75 103.14l-5.97 16.938M258.78 120.078l-8.827 1.652" stroke-width="1.2" stroke="#000" stroke-miterlimit="10" fill="none"/><path d="M249.953 121.73l-8.824 1.65M241.13 123.38l-5.845-6.82" stroke-width="1.2" stroke="#00f" stroke-miterlimit="10" fill="none"/><path d="M235.285 116.56l-5.844-6.818" stroke-width="1.2" stroke="#000" stroke-miterlimit="10" fill="none"/><path d="M241.13 123.38l-2.985 8.468" stroke-width="1.2" stroke="#00f" stroke-miterlimit="10" fill="none"/><path d="M238.145 131.848l-2.985 8.468" stroke-width="1.2" stroke="#000" stroke-miterlimit="10" fill="none"/><path d="M231.13 115.88h21v15h-21zm0 0" fill="#fff"/><g fill="#00f"><use xlink:href="#b" x="231.129" y="127.98"/><use xlink:href="#c" x="238.106" y="127.98"/></g><use xlink:href="#d" x="245.121" y="123.098" fill="#00f"/><path d="M229.44 109.742l5.97-16.94M235.16 140.316l-17.656 3.3M217.504 143.617l-2.984 8.47" stroke-width="1.2" stroke="#000" stroke-miterlimit="10" fill="none"/><path d="M214.52 152.086l-2.985 8.473M211.535 160.56l-8.828 1.647" stroke-width="1.2" stroke="#f00" stroke-miterlimit="10" fill="none"/><path d="M202.707 162.207l-8.824 1.648" stroke-width="1.2" stroke="#000" stroke-miterlimit="10" fill="none"/><path d="M207.535 155.06h8v11h-8zm0 0" fill="#fff"/><use xlink:href="#a" x="207.535" y="163.722" fill="#f00"/><path d="M193.883 163.855l-5.97 16.942M182.195 150.22l11.688 13.635M180.156 154.332l9.348 10.91M187.914 180.797l-17.656 3.3M199.598 194.434l-11.684-13.637M195.22 195.82l-9.35-10.91M170.258 184.098l-5.97 16.937M173.648 187.195l-4.777 13.55M170.258 184.098l-11.684-13.64M164.29 201.035l11.687 13.637M175.977 214.672l17.652-3.297M176.965 210.19l14.12-2.64M193.63 211.375l5.968-16.94M158.574 170.457l5.97-16.937M163.156 170.168l4.778-13.55M158.574 170.457l-17.652 3.3M164.543 153.52l17.652-3.3M138.926 173.055l-2.985 8.468" stroke-width="1.2" stroke="#000" stroke-miterlimit="10" fill="none"/><path d="M135.94 181.523l-2.983 8.473" stroke-width="1.2" stroke="#f00" stroke-miterlimit="10" fill="none"/><path d="M142.914 174.46l-2.984 8.47" stroke-width="1.2" stroke="#000" stroke-miterlimit="10" fill="none"/><path d="M139.93 182.93l-2.985 8.468" stroke-width="1.2" stroke="#f00" stroke-miterlimit="10" fill="none"/><path d="M140.922 173.758l-11.688-13.637" stroke-width="1.2" stroke="#000" stroke-miterlimit="10" fill="none"/><path d="M126.953 185.195h8v11h-8zm0 0" fill="#fff"/><use xlink:href="#a" x="126.953" y="193.858" fill="#f00"/><path d="M131.227 160.82l2.984-8.468" stroke-width="1.2" stroke="#000" stroke-miterlimit="10" fill="none"/><path d="M134.21 152.352l2.985-8.47" stroke-width="1.2" stroke="#f00" stroke-miterlimit="10" fill="none"/><path d="M127.242 159.418l2.985-8.47" stroke-width="1.2" stroke="#000" stroke-miterlimit="10" fill="none"/><path d="M130.227 150.95l2.984-8.473" stroke-width="1.2" stroke="#f00" stroke-miterlimit="10" fill="none"/><path d="M129.234 160.12l-8.824 1.65" stroke-width="1.2" stroke="#000" stroke-miterlimit="10" fill="none"/><path d="M120.41 161.77l-8.828 1.648" stroke-width="1.2" stroke="#00f" stroke-miterlimit="10" fill="none"/><path d="M131.203 137.68h8v11h-8zm0 0" fill="#fff"/><use xlink:href="#a" x="131.203" y="146.343" fill="#f00"/><path d="M111.582 163.418l-5.844-6.816" stroke-width="1.2" stroke="#00f" stroke-miterlimit="10" fill="none"/><path d="M105.738 156.602l-5.84-6.82" stroke-width="1.2" stroke="#000" stroke-miterlimit="10" fill="none"/><path d="M104.582 157.918h14v11h-14zm0 0" fill="#fff"/><g fill="#00f"><use xlink:href="#b" x="104.582" y="166.581"/><use xlink:href="#c" x="111.56" y="166.581"/></g><path d="M99.898 149.78l5.97-16.936M96.508 146.684l4.773-13.55M82.242 153.082l17.656-3.3M105.867 132.844l-11.687-13.64M94.18 119.203l-17.653 3.3M93.19 123.688l-14.12 2.64M94.18 119.203l5.968-16.937M76.527 122.504L70.56 139.44M70.56 139.44l11.682 13.642M74.934 138.06l9.35 10.91M70.56 139.44L52.9 142.743M52.902 142.742l-8.824 1.653" stroke-width="1.2" stroke="#000" stroke-miterlimit="10" fill="none"/><path d="M44.078 144.395l-8.828 1.648" stroke-width="1.2" stroke="#00f" stroke-miterlimit="10" fill="none"/><path d="M50.363 138.918l-7.062 1.32" stroke-width="1.2" stroke="#000" stroke-miterlimit="10" fill="none"/><path d="M43.3 140.238l-7.062 1.32" stroke-width="1.2" stroke="#00f" stroke-miterlimit="10" fill="none"/><path d="M51.914 147.227l-7.062 1.32" stroke-width="1.2" stroke="#000" stroke-miterlimit="10" fill="none"/><path d="M44.852 148.547l-7.06 1.32" stroke-width="1.2" stroke="#00f" stroke-miterlimit="10" fill="none"/><path d="M28.25 140.543h7v11h-7zm0 0" fill="#fff"/><use xlink:href="#b" x="28.25" y="149.206" fill="#00f"/><path d="M100.148 102.266l16.942 5.968M100.148 102.266l-16.937-5.97M100.148 102.266l5.97-16.938" stroke-width="1.2" stroke="#000" stroke-miterlimit="10" fill="none"/></g></svg>