<svg xmlns="http://www.w3.org/2000/svg" xmlns:xlink="http://www.w3.org/1999/xlink" width="300pt" height="300pt" viewBox="0 0 300 300"><defs><symbol overflow="visible"><path d="M.594 2.125V-8.47h6V2.126zm.672-.672h4.671V-7.78h-4.67zm0 0"/></symbol><symbol overflow="visible" id="a"><path d="M4.734-7.953c-.867 0-1.554.324-2.062.97-.5.635-.75 1.51-.75 2.624 0 1.094.25 1.965.75 2.61.508.637 1.195.953 2.062.953.852 0 1.532-.316 2.032-.953.507-.645.765-1.516.765-2.61 0-1.113-.257-1.988-.764-2.624-.5-.645-1.18-.97-2.032-.97zm0-.953c1.22 0 2.192.414 2.922 1.234.74.824 1.11 1.93 1.11 3.313 0 1.376-.37 2.477-1.11 3.298C6.926-.24 5.953.17 4.734.17c-1.23 0-2.214-.41-2.953-1.234C1.04-1.882.673-2.984.673-4.36c0-1.382.367-2.488 1.11-3.312.738-.82 1.722-1.234 2.952-1.234zm0 0"/></symbol><symbol overflow="visible" id="b"><path d="M1.172-8.75H2.36v3.594h4.296V-8.75h1.188V0H6.656v-4.172H2.36V0H1.17zm0 0"/></symbol></defs><g><path fill="#fff" d="M0 0h300v300H0z"/><path d="M35.25 134.574l19.297-23.53M42.72 136.762l15.432-18.828M45.984 163.055l-10.734-28.48M54.547 111.043l30.027 4.94M84.574 115.984l10.735 28.48M78.95 121.36l8.585 22.78M95.31 144.465l-19.298 23.53M95.31 144.465l30.026 4.94M76.012 167.996l-30.028-4.94M74.172 160.438l-24.024-3.958M125.336 149.406l10.734 28.48M133.113 149.73l8.586 22.782" stroke-width="1.2" stroke="#000" stroke-miterlimit="10" fill="none"/><path d="M144.633 125.875l-9.65 11.766" stroke-width="1.2" stroke="#f00" stroke-miterlimit="10" fill="none"/><path d="M134.984 137.64l-9.648 11.766M136.07 177.887l30.028 4.94M162.75 184.094l5.367 14.238" stroke-width="1.2" stroke="#000" stroke-miterlimit="10" fill="none"/><path d="M168.117 198.332l5.363 14.238" stroke-width="1.2" stroke="#f00" stroke-miterlimit="10" fill="none"/><path d="M169.45 181.566l5.366 14.24" stroke-width="1.2" stroke="#000" stroke-miterlimit="10" fill="none"/><path d="M174.816 195.805l5.368 14.238" stroke-width="1.2" stroke="#f00" stroke-miterlimit="10" fill="none"/><path d="M166.098 182.828l19.297-23.53" stroke-width="1.2" stroke="#000" stroke-miterlimit="10" fill="none"/><path d="M171.832 204.31h10v14h-10zm0 0" fill="#fff"/><use xlink:href="#a" x="171.832" y="215.447" fill="#f00"/><path d="M185.395 159.297l30.03 4.94M189.563 152.723l24.023 3.957M174.664 130.816l10.73 28.48M215.426 164.238l19.297-23.535M215.426 164.238l5.367 14.24" stroke-width="1.2" stroke="#000" stroke-miterlimit="10" fill="none"/><path d="M220.793 178.477l5.363 14.242" stroke-width="1.2" stroke="#f00" stroke-miterlimit="10" fill="none"/><path d="M234.723 140.703l-10.735-28.476M226.945 140.383l-8.586-22.78M234.723 140.703l15.01 2.473" stroke-width="1.2" stroke="#000" stroke-miterlimit="10" fill="none"/><path d="M249.734 143.176l15.016 2.472" stroke-width="1.2" stroke="#f00" stroke-miterlimit="10" fill="none"/><path d="M223.988 112.227l-30.03-4.946M223.988 112.227l9.65-11.766" stroke-width="1.2" stroke="#000" stroke-miterlimit="10" fill="none"/><path d="M233.637 100.46l9.648-11.77" stroke-width="1.2" stroke="#f00" stroke-miterlimit="10" fill="none"/><path d="M193.957 107.28l-19.293 23.536M197.566 114.176l-15.437 18.828M174.664 130.816l-15.016-2.472" stroke-width="1.2" stroke="#000" stroke-miterlimit="10" fill="none"/><path d="M159.648 128.344l-15.015-2.47" stroke-width="1.2" stroke="#f00" stroke-miterlimit="10" fill="none"/><path d="M139.633 118.875h10v14h-10zm0 0" fill="#fff"/><use xlink:href="#a" x="139.633" y="130.014" fill="#f00"/><path d="M234.285 81.69h19v14h-19zm0 0" fill="#fff"/><g fill="#f00"><use xlink:href="#a" x="234.285" y="92.83"/><use xlink:href="#b" x="243.73" y="92.83"/></g><path d="M255.75 138.648h19v14h-19zm0 0" fill="#fff"/><g fill="#f00"><use xlink:href="#a" x="255.75" y="149.787"/><use xlink:href="#b" x="265.195" y="149.787"/></g><path d="M217.156 185.72h19v14h-19zm0 0" fill="#fff"/><g fill="#f00"><use xlink:href="#a" x="217.156" y="196.857"/><use xlink:href="#b" x="226.602" y="196.857"/></g></g></svg>