<svg xmlns="http://www.w3.org/2000/svg" xmlns:xlink="http://www.w3.org/1999/xlink" width="300pt" height="300pt" viewBox="0 0 300 300"><defs><symbol overflow="visible"><path d="M.547 1.938V-7.75h5.5v9.688zm.625-.61h4.266v-8.47H1.171zm0 0"/></symbol><symbol overflow="visible" id="a"><path d="M1.078-8.016h1.47l3.546 6.704v-6.704h1.062V0H5.688L2.124-6.703V0H1.078zm0 0"/></symbol><symbol overflow="visible" id="b"><path d="M4.328-7.28c-.78 0-1.406.296-1.875.89-.46.585-.687 1.382-.687 2.39 0 1.012.226 1.813.687 2.406.47.586 1.094.875 1.875.875.79 0 1.414-.288 1.875-.874.457-.593.688-1.394.688-2.406 0-1.008-.23-1.805-.687-2.39-.46-.594-1.086-.89-1.875-.89zm0-.892c1.125 0 2.024.383 2.703 1.14C7.708-6.28 8.048-5.27 8.048-4c0 1.262-.34 2.273-1.016 3.03C6.353-.22 5.454.157 4.33.157S2.3-.22 1.625-.97c-.668-.75-1-1.757-1-3.03 0-1.27.332-2.28 1-3.03.676-.76 1.578-1.142 2.703-1.142zm0 0"/></symbol><symbol overflow="visible" id="c"><path d="M1.078-8.016h1.094v3.282H6.11v-3.282h1.077V0H6.11v-3.813H2.17V0H1.078zm0 0"/></symbol></defs><g><path fill="#fff" d="M0 0h300v300H0z"/><path d="M151.895 202.566l21.68-17.156M173.574 185.41l14.793 23.356M173.574 185.41l-19.328-19.765" stroke-width="1.2" stroke="#000" stroke-miterlimit="10" fill="none"/><path d="M191.21 164.125l-8.815 10.645" stroke-width="1.2" stroke="#00f" stroke-miterlimit="10" fill="none"/><path d="M182.395 174.77l-8.82 10.64M188.367 208.766l26.78-6.856M189.434 201.777l21.425-5.48M215.148 201.91l1.758-27.586M216.906 174.324l-12.847-5.1" stroke-width="1.2" stroke="#000" stroke-miterlimit="10" fill="none"/><path d="M204.06 169.223l-12.85-5.098" stroke-width="1.2" stroke="#00f" stroke-miterlimit="10" fill="none"/><path d="M216.906 174.324l24.492 12.828M215.773 146.703l1.133 27.62" stroke-width="1.2" stroke="#000" stroke-miterlimit="10" fill="none"/><path d="M191.21 164.125l-3.425-13.39" stroke-width="1.2" stroke="#00f" stroke-miterlimit="10" fill="none"/><path d="M187.785 150.734l-3.426-13.39" stroke-width="1.2" stroke="#000" stroke-miterlimit="10" fill="none"/><path d="M187.21 157.625h8v13h-8zm0 0" fill="#fff"/><use xlink:href="#a" x="187.211" y="167.526" fill="#00f"/><path d="M185.613 134.34l-9.3-3.88" stroke-width="1.2" stroke="#000" stroke-miterlimit="10" fill="none"/><path d="M176.313 130.46l-9.3-3.878" stroke-width="1.2" stroke="#f00" stroke-miterlimit="10" fill="none"/><path d="M183.105 140.344l-9.296-3.88" stroke-width="1.2" stroke="#000" stroke-miterlimit="10" fill="none"/><path d="M173.81 136.465l-9.302-3.88" stroke-width="1.2" stroke="#f00" stroke-miterlimit="10" fill="none"/><path d="M184.36 137.344l9.882-9.664" stroke-width="1.2" stroke="#000" stroke-miterlimit="10" fill="none"/><path d="M194.242 127.68l9.887-9.664" stroke-width="1.2" stroke="#f00" stroke-miterlimit="10" fill="none"/><path d="M156.762 123.082h9v13h-9zm0 0" fill="#fff"/><use xlink:href="#b" x="156.762" y="132.983" fill="#f00"/><path d="M204.13 118.016l-3.43-13.39" stroke-width="1.2" stroke="#f00" stroke-miterlimit="10" fill="none"/><path d="M200.7 104.625l-3.427-13.39" stroke-width="1.2" stroke="#000" stroke-miterlimit="10" fill="none"/><path d="M200.13 111.516h9v13h-9zm0 0" fill="#fff"/><use xlink:href="#b" x="200.129" y="121.417" fill="#f00"/><path d="M241.398 187.152l23.352-14.797M264.75 172.355l-1.137-27.62M263.613 144.734l-24.488-12.828M239.125 131.906l-23.352 14.797M157.465 166.133l1.512-9.96" stroke-width="1.2" stroke="#000" stroke-miterlimit="10" fill="none"/><path d="M158.977 156.172l1.515-9.965" stroke-width="1.2" stroke="#f00" stroke-miterlimit="10" fill="none"/><path d="M151.03 165.156l1.517-9.965" stroke-width="1.2" stroke="#000" stroke-miterlimit="10" fill="none"/><path d="M152.547 155.19l1.516-9.96" stroke-width="1.2" stroke="#f00" stroke-miterlimit="10" fill="none"/><path d="M154.246 165.645l-13.39 3.425" stroke-width="1.2" stroke="#000" stroke-miterlimit="10" fill="none"/><path d="M140.855 169.07l-13.39 3.426" stroke-width="1.2" stroke="#00f" stroke-miterlimit="10" fill="none"/><path d="M153.277 139.22h9v13h-9zm0 0" fill="#fff"/><use xlink:href="#b" x="153.277" y="149.12" fill="#f00"/><path d="M127.465 172.496l-9.66-9.883" stroke-width="1.2" stroke="#00f" stroke-miterlimit="10" fill="none"/><path d="M117.805 162.613l-9.664-9.883" stroke-width="1.2" stroke="#000" stroke-miterlimit="10" fill="none"/><path d="M119.465 165.996h17v13h-17zm0 0" fill="#fff"/><g fill="#00f"><use xlink:href="#a" x="119.465" y="175.897"/><use xlink:href="#c" x="127.448" y="175.897"/></g><path d="M108.14 152.73l-26.78 6.852M78.227 158.707l-3.727 13.31" stroke-width="1.2" stroke="#000" stroke-miterlimit="10" fill="none"/><path d="M74.5 172.016l-3.73 13.308" stroke-width="1.2" stroke="#f00" stroke-miterlimit="10" fill="none"/><path d="M84.488 160.46l-3.726 13.31" stroke-width="1.2" stroke="#000" stroke-miterlimit="10" fill="none"/><path d="M80.762 173.77l-3.727 13.312" stroke-width="1.2" stroke="#f00" stroke-miterlimit="10" fill="none"/><path d="M81.36 159.582l-9.665-9.883" stroke-width="1.2" stroke="#000" stroke-miterlimit="10" fill="none"/><path d="M71.695 149.7l-9.664-9.884" stroke-width="1.2" stroke="#f00" stroke-miterlimit="10" fill="none"/><path d="M69.902 179.703h9v13h-9zm0 0" fill="#fff"/><use xlink:href="#b" x="69.902" y="189.604" fill="#f00"/><path d="M62.03 139.816l-13.39 3.426" stroke-width="1.2" stroke="#f00" stroke-miterlimit="10" fill="none"/><path d="M48.64 143.242l-13.39 3.426" stroke-width="1.2" stroke="#000" stroke-miterlimit="10" fill="none"/><path d="M58.03 133.316h9v13h-9zm0 0" fill="#fff"/><use xlink:href="#b" x="58.031" y="143.218" fill="#f00"/></g></svg>