<svg xmlns="http://www.w3.org/2000/svg" xmlns:xlink="http://www.w3.org/1999/xlink" width="300pt" height="300pt" viewBox="0 0 300 300"><defs><symbol overflow="visible"><path d="M.453 1.594v-7.938h4.5v7.938zm.5-.5h3.5v-6.938h-3.5zm0 0"/></symbol><symbol overflow="visible" id="a"><path d="M3.547-5.953c-.65 0-1.164.242-1.547.72-.375.48-.563 1.13-.563 1.952 0 .835.188 1.49.563 1.967.383.48.898.72 1.547.72.644 0 1.156-.24 1.53-.72.376-.476.564-1.132.564-1.968 0-.822-.187-1.474-.562-1.954-.375-.477-.887-.72-1.53-.72zm0-.734c.914 0 1.648.312 2.203.937.55.617.828 1.438.828 2.47 0 1.042-.277 1.87-.828 2.483-.555.617-1.29.922-2.203.922-.93 0-1.668-.305-2.22-.922C.774-1.41.5-2.237.5-3.28c0-1.033.273-1.853.828-2.47.55-.625 1.29-.938 2.22-.938zm0 0"/></symbol><symbol overflow="visible" id="b"><path d="M.89-6.563H2.08l2.906 5.485v-5.484h.86V0H4.656L1.75-5.484V0H.89zm0 0"/></symbol><symbol overflow="visible" id="c"><path d="M.89-6.563h.876v2.688H5v-2.688h.89V0H5v-3.125H1.766V0H.89zm0 0"/></symbol><symbol overflow="visible" id="d"><path d="M.89-6.563h3.766v.75h-2.89v1.938h2.61v.734h-2.61V0H.89zm0 0"/></symbol></defs><g><path fill="#fff" d="M0 0h300v300H0z"/><path d="M148.418 202.582l.012 18.445 6.308-1.12zm0 0"/><path d="M148.418 202.582l13.902-11.684M148.418 202.582l-17.074-6.2M162.32 190.898l-3.168-17.882M166.21 188.363l-2.534-14.304M159.152 173.016l13.907-11.688M159.152 173.016l-8.535-3.102" stroke-width="1.2" stroke="#000" stroke-miterlimit="10" fill="none"/><path d="M150.617 169.914l-8.535-3.098" stroke-width="1.2" stroke="#3cc" stroke-miterlimit="10" fill="none"/><path d="M173.06 161.328l-3.17-17.883M173.06 161.328l8.534 3.102" stroke-width="1.2" stroke="#000" stroke-miterlimit="10" fill="none"/><path d="M181.594 164.43l8.535 3.097" stroke-width="1.2" stroke="#00f" stroke-miterlimit="10" fill="none"/><path d="M169.89 143.445l13.903-11.683M168.53 139.004l11.122-9.348M152.816 137.246l17.075 6.2M183.793 131.762l-3.168-17.887M180.625 113.875l-17.07-6.2M177.46 117.273l-13.655-4.96M163.555 107.676l-13.907 11.687M163.555 107.676l-3.168-17.883M149.648 119.363l3.168 17.883M154.176 120.406l2.53 14.305M161.117 87.785l-8.535-3.097" stroke-width="1.2" stroke="#000" stroke-miterlimit="10" fill="none"/><path d="M152.582 84.688l-8.54-3.102" stroke-width="1.2" stroke="#f00" stroke-miterlimit="10" fill="none"/><path d="M159.656 91.8l-8.535-3.097" stroke-width="1.2" stroke="#000" stroke-miterlimit="10" fill="none"/><path d="M151.12 88.703l-8.534-3.1" stroke-width="1.2" stroke="#f00" stroke-miterlimit="10" fill="none"/><path d="M160.387 89.793l6.953-5.844" stroke-width="1.2" stroke="#000" stroke-miterlimit="10" fill="none"/><path d="M167.34 83.95l6.95-5.84" stroke-width="1.2" stroke="#f00" stroke-miterlimit="10" fill="none"/><path d="M135.316 78.094h8v11h-8zm0 0" fill="#fff"/><use xlink:href="#a" x="135.316" y="86.757" fill="#f00"/><path d="M174.29 78.11l-1.583-8.942" stroke-width="1.2" stroke="#f00" stroke-miterlimit="10" fill="none"/><path d="M172.707 69.168l-1.582-8.94" stroke-width="1.2" stroke="#000" stroke-miterlimit="10" fill="none"/><path d="M170.29 72.61h8v11h-8zm0 0" fill="#fff"/><use xlink:href="#a" x="170.289" y="81.272" fill="#f00"/><path d="M190.13 167.527l1.58 8.942" stroke-width="1.2" stroke="#00f" stroke-miterlimit="10" fill="none"/><path d="M191.71 176.47l1.587 8.94" stroke-width="1.2" stroke="#000" stroke-miterlimit="10" fill="none"/><path d="M183.13 162.027h14v11h-14zm0 0" fill="#fff"/><g fill="#00f"><use xlink:href="#b" x="183.129" y="170.69"/><use xlink:href="#c" x="190.106" y="170.69"/></g><path d="M191.922 183.777l-6.953 5.84" stroke-width="1.2" stroke="#000" stroke-miterlimit="10" fill="none"/><path d="M184.97 189.617l-6.954 5.844" stroke-width="1.2" stroke="#f00" stroke-miterlimit="10" fill="none"/><path d="M194.672 187.047l-6.953 5.844" stroke-width="1.2" stroke="#000" stroke-miterlimit="10" fill="none"/><path d="M187.72 192.89l-6.954 5.84" stroke-width="1.2" stroke="#f00" stroke-miterlimit="10" fill="none"/><path d="M193.297 185.41l8.535 3.102" stroke-width="1.2" stroke="#000" stroke-miterlimit="10" fill="none"/><path d="M201.832 188.512l8.535 3.097" stroke-width="1.2" stroke="#f00" stroke-miterlimit="10" fill="none"/><path d="M171.39 191.598h8v11h-8zm0 0" fill="#fff"/><use xlink:href="#a" x="171.391" y="200.261" fill="#f00"/><path d="M210.367 191.61l1.586 8.94" stroke-width="1.2" stroke="#f00" stroke-miterlimit="10" fill="none"/><path d="M211.953 200.55l1.582 8.942" stroke-width="1.2" stroke="#000" stroke-miterlimit="10" fill="none"/><path d="M206.367 186.11h8v11h-8zm0 0" fill="#fff"/><use xlink:href="#a" x="206.367" y="194.772" fill="#f00"/><path d="M213.535 209.492l17.07 6.2M230.605 215.69l3.168 17.888M235.133 216.734l2.53 14.31M244.512 204.008l-13.907 11.683M233.773 233.578l17.075 6.195M250.848 239.773l13.902-11.683M249.488 235.336l11.12-9.348M264.75 228.09l-3.168-17.883M261.582 210.207l-17.07-6.2M258.418 213.602l-13.66-4.957" stroke-width="1.2" stroke="#000" stroke-miterlimit="10" fill="none"/><path d="M136.082 161.316h6v11h-6zm0 0" fill="#fff"/><use xlink:href="#d" x="136.082" y="169.979" fill="#3cc"/><path d="M133.45 196.012l-1.587-8.942" stroke-width="1.2" stroke="#000" stroke-miterlimit="10" fill="none"/><path d="M131.863 187.07l-1.582-8.94" stroke-width="1.2" stroke="#f00" stroke-miterlimit="10" fill="none"/><path d="M129.242 196.758l-1.586-8.942" stroke-width="1.2" stroke="#000" stroke-miterlimit="10" fill="none"/><path d="M127.656 187.816l-1.582-8.945" stroke-width="1.2" stroke="#f00" stroke-miterlimit="10" fill="none"/><path d="M131.344 196.383l-6.953 5.844" stroke-width="1.2" stroke="#000" stroke-miterlimit="10" fill="none"/><path d="M124.39 202.227l-6.95 5.843" stroke-width="1.2" stroke="#00f" stroke-miterlimit="10" fill="none"/><path d="M124.176 173h8v11h-8zm0 0" fill="#fff"/><use xlink:href="#a" x="124.176" y="181.663" fill="#f00"/><path d="M100.367 201.87m2.602 1.497l.354-.976m2.242 2.477l.71-1.96m1.888 3.46l1.07-2.94m1.532 4.436l1.42-3.918m1.177 5.418l1.782-4.902m.82 6.4l2.133-5.88m-1.75 6.102l2.187-6.027" stroke="#000" stroke-miterlimit="10" fill="none"/><path d="M110.44 202.57h14v11h-14zm0 0" fill="#fff"/><g fill="#00f"><use xlink:href="#b" x="110.441" y="211.233"/><use xlink:href="#c" x="117.419" y="211.233"/></g><path d="M100.367 201.87l-13.902 11.685M100.367 201.87l-3.164-17.882M86.465 213.555l-17.07-6.2M69.395 207.355l-3.168-17.882M64.867 206.313l-2.53-14.305M55.488 219.043l13.907-11.688M66.227 189.473l-17.075-6.2M49.152 183.273L35.25 194.96M50.512 187.715l-11.12 9.347M35.25 194.96l3.168 17.884M38.418 212.844l17.07 6.2M41.582 209.445l13.66 4.96M97.203 183.988l-8.54-3.1" stroke-width="1.2" stroke="#000" stroke-miterlimit="10" fill="none"/><path d="M88.664 180.887l-8.535-3.098" stroke-width="1.2" stroke="#f00" stroke-miterlimit="10" fill="none"/><path d="M65.13 172.29h15v11h-15zm0 0" fill="#fff"/><g fill="#f00"><use xlink:href="#c" x="65.129" y="180.952"/><use xlink:href="#a" x="72.144" y="180.952"/></g></g></svg>