<svg xmlns="http://www.w3.org/2000/svg" xmlns:xlink="http://www.w3.org/1999/xlink" width="300pt" height="300pt" viewBox="0 0 300 300"><defs><symbol overflow="visible"><path d="M.453 1.594v-7.938h4.5v7.938zm.5-.5h3.5v-6.938h-3.5zm0 0"/></symbol><symbol overflow="visible" id="a"><path d="M.89-6.563H2.08l2.906 5.485v-5.484h.86V0H4.656L1.75-5.484V0H.89zm0 0"/></symbol><symbol overflow="visible" id="b"><path d="M3.547-5.953c-.65 0-1.164.242-1.547.72-.375.48-.563 1.13-.563 1.952 0 .835.188 1.49.563 1.967.383.48.898.72 1.547.72.644 0 1.156-.24 1.53-.72.376-.476.564-1.132.564-1.968 0-.822-.187-1.474-.562-1.954-.375-.477-.887-.72-1.53-.72zm0-.734c.914 0 1.648.312 2.203.937.55.617.828 1.438.828 2.47 0 1.042-.277 1.87-.828 2.483-.555.617-1.29.922-2.203.922-.93 0-1.668-.305-2.22-.922C.774-1.41.5-2.237.5-3.28c0-1.033.273-1.853.828-2.47.55-.625 1.29-.938 2.22-.938zm0 0"/></symbol><symbol overflow="visible" id="c"><path d="M.89-6.563h.876v2.688H5v-2.688h.89V0H5v-3.125H1.766V0H.89zm0 0"/></symbol><symbol overflow="visible" id="d"><path d="M.89-6.563h3.766v.75h-2.89v1.938h2.61v.734h-2.61V0H.89zm0 0"/></symbol><symbol overflow="visible" id="e"><path d="M5.797-6.063v.938c-.305-.27-.625-.473-.97-.61-.335-.144-.686-.218-1.06-.218-.75 0-1.33.23-1.736.687-.397.46-.592 1.12-.592 1.985 0 .866.195 1.526.593 1.983.408.46.986.688 1.736.688.375 0 .726-.066 1.062-.203.344-.132.664-.343.97-.625V-.5c-.314.21-.642.367-.986.47-.343.1-.714.155-1.11.155-.99 0-1.772-.3-2.343-.906C.784-1.396.5-2.228.5-3.28c0-1.052.285-1.88.86-2.486.57-.613 1.35-.92 2.343-.92.395-.002.766.053 1.11.155.35.104.68.26.984.468zm0 0"/></symbol><symbol overflow="visible" id="f"><path d="M.844-6.844h.812V0H.844zm0 0"/></symbol></defs><g><path fill="#fff" d="M0 0h300v300H0z"/><path d="M209.574 120.8l15.453-4.886-2.61-4.992zm0 0"/><path d="M209.574 120.8l-14.29-7.105" stroke-width="1.2" stroke="#000" stroke-miterlimit="10" fill="none"/><path d="M207.23 136.59l1.172-7.895" stroke-width="1.2" stroke="#00f" stroke-miterlimit="10" fill="none"/><path d="M208.402 128.695l1.172-7.894M195.285 113.695L184.11 125.09M196.848 117.465l-8.938 9.113M184.11 125.09l7.382 14.148M191.492 139.238l7.87-1.324" stroke-width="1.2" stroke="#000" stroke-miterlimit="10" fill="none"/><path d="M199.363 137.914l7.867-1.324" stroke-width="1.2" stroke="#00f" stroke-miterlimit="10" fill="none"/><path d="M191.492 139.238m.293 2.985l1.004-.278m-.716 3.266l2.008-.558m-1.72 3.543l3.017-.84m-2.724 3.83l4.016-1.123m-3.727 4.106l5.024-1.398m-4.907 2.597l5.425-1.508" stroke="#000" stroke-miterlimit="10" fill="none"/><path d="M191.492 139.238l-14.84 5.864" stroke-width="1.2" stroke="#000" stroke-miterlimit="10" fill="none"/><path d="M207.23 136.59l5.7 5.586" stroke-width="1.2" stroke="#00f" stroke-miterlimit="10" fill="none"/><path d="M212.93 142.176l5.695 5.586" stroke-width="1.2" stroke="#000" stroke-miterlimit="10" fill="none"/><path d="M204.23 131.09h7v11h-7zm0 0" fill="#fff"/><use xlink:href="#a" x="204.23" y="139.753" fill="#00f"/><path d="M216.81 147.293l-1.994 7.73" stroke-width="1.2" stroke="#000" stroke-miterlimit="10" fill="none"/><path d="M214.816 155.023l-1.988 7.727" stroke-width="1.2" stroke="#f00" stroke-miterlimit="10" fill="none"/><path d="M220.445 148.23l-1.992 7.727" stroke-width="1.2" stroke="#000" stroke-miterlimit="10" fill="none"/><path d="M218.453 155.957l-1.988 7.73" stroke-width="1.2" stroke="#f00" stroke-miterlimit="10" fill="none"/><path d="M218.625 147.762L234 143.48" stroke-width="1.2" stroke="#000" stroke-miterlimit="10" fill="none"/><path d="M210.648 157.72h8v11h-8zm0 0" fill="#fff"/><use xlink:href="#b" x="210.648" y="166.382" fill="#f00"/><path d="M234 143.48l11.395 11.176M237.77 141.918l9.117 8.937M237.98 128.027L234 143.48M245.395 154.656l15.375-4.28M260.77 150.375l3.98-15.457M257.53 147.89l3.185-12.363M264.75 134.918l-11.395-11.172M253.355 123.746l-15.375 4.28M252.824 127.79l-12.297 3.425M195.773 154.613l-11.17 11.395M184.602 166.008l4.28 15.375M181.41 168.55l3.426 12.302M169.145 162.027l15.457 3.98M188.883 181.383l-11.176 11.394M177.707 192.777l-15.453-3.98M177.098 188.742l-12.364-3.183M162.254 188.797l-4.28-15.375M157.973 173.422l11.172-11.395M161.77 174.914l8.94-9.117M174.914 144.387l-1.797 4.355" stroke-width="1.2" stroke="#000" stroke-miterlimit="10" fill="none"/><path d="M173.117 148.742l-1.8 4.356" stroke-width="1.2" stroke="#f00" stroke-miterlimit="10" fill="none"/><path d="M178.387 145.82l-1.8 4.356" stroke-width="1.2" stroke="#000" stroke-miterlimit="10" fill="none"/><path d="M176.586 150.176l-1.797 4.355" stroke-width="1.2" stroke="#f00" stroke-miterlimit="10" fill="none"/><path d="M176.652 145.102l-6.25-4.96" stroke-width="1.2" stroke="#000" stroke-miterlimit="10" fill="none"/><path d="M170.402 140.14l-6.25-4.96" stroke-width="1.2" stroke="#00f" stroke-miterlimit="10" fill="none"/><path d="M165.055 148.313h8v11h-8zm0 0" fill="#fff"/><use xlink:href="#b" x="165.055" y="156.976" fill="#f00"/><path d="M164.152 135.18l-7.422 2.933" stroke-width="1.2" stroke="#00f" stroke-miterlimit="10" fill="none"/><path d="M156.73 138.113l-7.42 2.934" stroke-width="1.2" stroke="#000" stroke-miterlimit="10" fill="none"/><path d="M157.152 129.68h14v11h-14zm0 0" fill="#fff"/><g fill="#00f"><use xlink:href="#a" x="157.152" y="138.343"/><use xlink:href="#c" x="164.13" y="138.343"/></g><path d="M149.31 141.047l-12.5-9.922M136.81 131.125l-14.845 5.863M121.965 136.988l-6.25-4.96" stroke-width="1.2" stroke="#000" stroke-miterlimit="10" fill="none"/><path d="M115.715 132.027l-6.25-4.96M109.465 127.066L102.043 130" stroke-width="1.2" stroke="#00f" stroke-miterlimit="10" fill="none"/><path d="M102.043 130l-7.422 2.93" stroke-width="1.2" stroke="#000" stroke-miterlimit="10" fill="none"/><path d="M102.465 121.566h14v11h-14zm0 0" fill="#fff"/><g fill="#00f"><use xlink:href="#a" x="102.465" y="130.229"/><use xlink:href="#c" x="109.442" y="130.229"/></g><path d="M94.62 132.93l-12.5-9.922M91.035 134.88l-10-7.94" stroke-width="1.2" stroke="#000" stroke-miterlimit="10" fill="none"/><path d="M92.277 148.72l1.172-7.896" stroke-width="1.2" stroke="#00f" stroke-miterlimit="10" fill="none"/><path d="M93.45 140.824l1.17-7.894M82.12 123.008l-14.843 5.867M82.12 123.008l1.173-7.89" stroke-width="1.2" stroke="#000" stroke-miterlimit="10" fill="none"/><path d="M83.293 115.117l1.172-7.894" stroke-width="1.2" stroke="#0c0" stroke-miterlimit="10" fill="none"/><path d="M67.277 128.875l-2.34 15.785M70.758 131.004l-1.875 12.63M64.938 144.66l12.5 9.922M64.938 144.66l-14.844 5.867M77.438 154.582l7.42-2.934" stroke-width="1.2" stroke="#000" stroke-miterlimit="10" fill="none"/><path d="M84.86 151.648l7.417-2.93" stroke-width="1.2" stroke="#00f" stroke-miterlimit="10" fill="none"/><path d="M77.54 150.504l5.937-2.348" stroke-width="1.2" stroke="#000" stroke-miterlimit="10" fill="none"/><path d="M83.477 148.156l5.937-2.344" stroke-width="1.2" stroke="#00f" stroke-miterlimit="10" fill="none"/><path d="M89.277 143.22h7v11h-7zm0 0" fill="#fff"/><use xlink:href="#a" x="89.277" y="151.882" fill="#00f"/><path d="M50.094 150.527l-7.422 2.93" stroke-width="1.2" stroke="#000" stroke-miterlimit="10" fill="none"/><path d="M42.672 153.457l-7.422 2.934" stroke-width="1.2" stroke="#3cc" stroke-miterlimit="10" fill="none"/><path d="M50.094 150.527l-2.934-7.422" stroke-width="1.2" stroke="#000" stroke-miterlimit="10" fill="none"/><path d="M47.16 143.105l-2.933-7.42" stroke-width="1.2" stroke="#3cc" stroke-miterlimit="10" fill="none"/><path d="M50.094 150.527l2.93 7.418" stroke-width="1.2" stroke="#000" stroke-miterlimit="10" fill="none"/><path d="M53.023 157.945l2.934 7.422" stroke-width="1.2" stroke="#3cc" stroke-miterlimit="10" fill="none"/><path d="M29.25 150.89h6v11h-6zm0 0" fill="#fff"/><use xlink:href="#d" x="29.25" y="159.554" fill="#3cc"/><path d="M38.227 130.184h6v11h-6zm0 0" fill="#fff"/><use xlink:href="#d" x="38.227" y="138.847" fill="#3cc"/><path d="M52.957 159.867h6v11h-6zm0 0" fill="#fff"/><use xlink:href="#d" x="52.957" y="168.53" fill="#3cc"/><path d="M79.465 101.723h10v11h-10zm0 0" fill="#fff"/><g fill="#0c0"><use xlink:href="#e" x="79.465" y="110.386"/><use xlink:href="#f" x="85.979" y="110.386"/></g></g></svg>