<svg xmlns="http://www.w3.org/2000/svg" xmlns:xlink="http://www.w3.org/1999/xlink" width="300pt" height="300pt" viewBox="0 0 300 300"><defs><symbol overflow="visible"><path d="M.594 2.125V-8.47h6V2.126zm.672-.672h4.671V-7.78h-4.67zm0 0"/></symbol><symbol overflow="visible" id="a"><path d="M1.172-8.75h1.594l3.89 7.313V-8.75h1.14V0H6.204L2.328-7.313V0H1.172zm0 0"/></symbol><symbol overflow="visible" id="b"><path d="M1.172-8.75H2.36v3.594h4.296V-8.75h1.188V0H6.656v-4.172H2.36V0H1.17zm0 0"/></symbol><symbol overflow="visible" id="c"><path d="M4.734-7.953c-.867 0-1.554.324-2.062.97-.5.635-.75 1.51-.75 2.624 0 1.094.25 1.965.75 2.61.508.637 1.195.953 2.062.953.852 0 1.532-.316 2.032-.953.507-.645.765-1.516.765-2.61 0-1.113-.257-1.988-.764-2.624-.5-.645-1.18-.97-2.032-.97zm0-.953c1.22 0 2.192.414 2.922 1.234.74.824 1.11 1.93 1.11 3.313 0 1.376-.37 2.477-1.11 3.298C6.926-.24 5.953.17 4.734.17c-1.23 0-2.214-.41-2.953-1.234C1.04-1.882.673-2.984.673-4.36c0-1.382.367-2.488 1.11-3.312.738-.82 1.722-1.234 2.952-1.234zm0 0"/></symbol></defs><g><path fill="#fff" d="M0 0h300v300H0z"/><path d="M171.266 209.895l-15.332-26.46M155.934 183.434l12.394-27.954M125.52 180.285l30.414 3.15M168.328 155.48l29.067-9.496M169 147.69l23.254-7.596M145.57 135.055l22.758 20.425M197.395 145.984l6.312-29.918M203.707 116.066l-11.38-10.214" stroke-width="1.2" stroke="#000" stroke-miterlimit="10" fill="none"/><path d="M192.328 105.852l-11.38-10.21" stroke-width="1.2" stroke="#00f" stroke-miterlimit="10" fill="none"/><path d="M203.707 116.066l16.164-25.96M203.707 116.066l28.37 11.41" stroke-width="1.2" stroke="#000" stroke-miterlimit="10" fill="none"/><path d="M180.95 95.64l-14.536 4.747" stroke-width="1.2" stroke="#00f" stroke-miterlimit="10" fill="none"/><path d="M166.414 100.387l-14.53 4.746" stroke-width="1.2" stroke="#000" stroke-miterlimit="10" fill="none"/><path d="M171.95 88.64h18v14h-18zm0 0" fill="#fff"/><g fill="#00f"><use xlink:href="#a" x="171.949" y="99.779"/><use xlink:href="#b" x="180.926" y="99.779"/></g><path d="M151.883 105.133l-6.313 29.922M145.57 135.055l-26.457 15.332M146.535 142.813l-21.168 12.265M119.113 150.387l6.407 29.898M119.113 150.387L91.16 137.992M122.84 177.883l-10.21 11.38" stroke-width="1.2" stroke="#000" stroke-miterlimit="10" fill="none"/><path d="M112.63 189.262l-10.212 11.38" stroke-width="1.2" stroke="#f00" stroke-miterlimit="10" fill="none"/><path d="M128.195 182.69l-10.21 11.376" stroke-width="1.2" stroke="#000" stroke-miterlimit="10" fill="none"/><path d="M117.984 194.066l-10.214 11.38" stroke-width="1.2" stroke="#f00" stroke-miterlimit="10" fill="none"/><path d="M95.094 196.043h10v14h-10zm0 0" fill="#fff"/><use xlink:href="#c" x="95.094" y="207.182" fill="#f00"/><path d="M91.16 137.992l-3.246-30.406M83.68 135.715l-2.594-24.324M66.45 156.004l24.71-18.012M87.914 107.586L59.96 95.19M59.96 95.19l-24.71 18.017M61.727 102.81L41.96 117.22M35.25 113.207l3.246 30.406M38.496 143.613l27.953 12.39M44.207 138.273l22.363 9.915M234.297 130.305l12.03-9.43" stroke-width="1.2" stroke="#000" stroke-miterlimit="10" fill="none"/><path d="M246.328 120.875l12.035-9.434" stroke-width="1.2" stroke="#f00" stroke-miterlimit="10" fill="none"/><path d="M229.855 124.645l12.036-9.434" stroke-width="1.2" stroke="#000" stroke-miterlimit="10" fill="none"/><path d="M241.89 115.21l12.032-9.43" stroke-width="1.2" stroke="#f00" stroke-miterlimit="10" fill="none"/><path d="M232.078 127.477l2.15 15.136" stroke-width="1.2" stroke="#000" stroke-miterlimit="10" fill="none"/><path d="M234.227 142.613l2.152 15.137" stroke-width="1.2" stroke="#f00" stroke-miterlimit="10" fill="none"/><path d="M251.145 101.61h10v14h-10zm0 0" fill="#fff"/><use xlink:href="#c" x="251.145" y="112.748" fill="#f00"/><path d="M236.38 157.75l14.186 5.703" stroke-width="1.2" stroke="#f00" stroke-miterlimit="10" fill="none"/><path d="M250.566 163.453l14.184 5.707" stroke-width="1.2" stroke="#000" stroke-miterlimit="10" fill="none"/><path d="M231.38 150.75h10v14h-10zm0 0" fill="#fff"/><use xlink:href="#c" x="231.379" y="161.889" fill="#f00"/></g></svg>