<svg xmlns="http://www.w3.org/2000/svg" xmlns:xlink="http://www.w3.org/1999/xlink" width="300pt" height="300pt" viewBox="0 0 300 300"><defs><symbol overflow="visible"><path d="M.453 1.594v-7.938h4.5v7.938zm.5-.5h3.5v-6.938h-3.5zm0 0"/></symbol><symbol overflow="visible" id="a"><path d="M3.547-5.953c-.65 0-1.164.242-1.547.72-.375.48-.563 1.13-.563 1.952 0 .835.188 1.49.563 1.967.383.48.898.72 1.547.72.644 0 1.156-.24 1.53-.72.376-.476.564-1.132.564-1.968 0-.822-.187-1.474-.562-1.954-.375-.477-.887-.72-1.53-.72zm0-.734c.914 0 1.648.312 2.203.937.55.617.828 1.438.828 2.47 0 1.042-.277 1.87-.828 2.483-.555.617-1.29.922-2.203.922-.93 0-1.668-.305-2.22-.922C.774-1.41.5-2.237.5-3.28c0-1.033.273-1.853.828-2.47.55-.625 1.29-.938 2.22-.938zm0 0"/></symbol><symbol overflow="visible" id="b"><path d="M.89-6.563H2.08l2.906 5.485v-5.484h.86V0H4.656L1.75-5.484V0H.89zm0 0"/></symbol><symbol overflow="visible" id="c"><path d="M.89-6.563h.876v2.688H5v-2.688h.89V0H5v-3.125H1.766V0H.89zm0 0"/></symbol><symbol overflow="visible" id="d"><path d="M1.766-5.828v2.47H2.89c.407 0 .723-.11.954-.33.226-.218.344-.52.344-.906 0-.394-.118-.695-.344-.906-.23-.22-.547-.328-.953-.328zM.89-6.562h2c.727 0 1.282.167 1.657.5.383.335.578.824.578 1.468 0 .65-.195 1.137-.578 1.47-.375.323-.93.483-1.656.483H1.767V0H.89zm0 0"/></symbol></defs><g><path fill="#fff" d="M0 0h300v300H0z"/><path d="M35.25 201.738l18.625-16.933M53.875 184.805l23.98 7.664M77.855 192.47l18.625-16.935" stroke-width="1.2" stroke="#000" stroke-miterlimit="10" fill="none"/><path d="M120.457 183.2l-22.625-11.895-2.703 8.465zm0 0"/><path d="M120.457 183.2l16.934 18.628M145.055 177.848l-24.598 5.35" stroke-width="1.2" stroke="#000" stroke-miterlimit="10" fill="none"/><path d="M145.055 177.848m-1.395 2.656l.992.316m-2.39 2.34l1.988.633m-3.383 2.023l2.98.95m-4.374 1.703l3.972 1.272m-5.37 1.383l4.968 1.59m-6.363 1.066l5.957 1.907m-7.356.75l6.954 2.223m-8.347.434l7.945 2.54m-8.672-1.16l8.46 2.706" stroke="#000" stroke-miterlimit="10" fill="none"/><path d="M145.055 177.848l18.63-16.934" stroke-width="1.2" stroke="#000" stroke-miterlimit="10" fill="none"/><path d="M163.684 160.914m-.12-2.996l-1.02.223m.9-3.218l-2.038.44m1.918-3.44l-3.054.664m2.937-3.66l-4.074.887m3.957-3.887l-5.094 1.11m4.973-4.106l-6.115 1.328m5.997-4.324l-7.133 1.55m7.014-4.55l-8.152 1.773m8.09-3.332l-8.684 1.887" stroke="#000" stroke-miterlimit="10" fill="none"/><path d="M163.684 160.914l11.988 3.832" stroke-width="1.2" stroke="#000" stroke-miterlimit="10" fill="none"/><path d="M175.672 164.746l11.988 3.832" stroke-width="1.2" stroke="#00f" stroke-miterlimit="10" fill="none"/><path d="M158.332 136.316l18.625-16.93M156.207 130.242l14.902-13.547M134.352 128.652l23.98 7.664M176.957 119.387l-5.352-24.598M171.605 94.79l-23.976-7.665M167.402 99.664l-19.18-6.133M147.63 87.125L129 104.055M129 104.055l5.352 24.597M135.324 105.258l4.28 19.676M134.352 128.652l-9.313 8.47" stroke-width="1.2" stroke="#000" stroke-miterlimit="10" fill="none"/><path d="M125.04 137.12l-9.313 8.466M115.727 145.586l-11.99-3.832" stroke-width="1.2" stroke="#f00" stroke-miterlimit="10" fill="none"/><path d="M103.738 141.754l-11.988-3.832" stroke-width="1.2" stroke="#000" stroke-miterlimit="10" fill="none"/><path d="M111.727 140.086h8v11h-8zm0 0" fill="#fff"/><use xlink:href="#a" x="111.727" y="148.749" fill="#f00"/><path d="M187.66 168.578l9.313-8.465" stroke-width="1.2" stroke="#00f" stroke-miterlimit="10" fill="none"/><path d="M196.973 160.113l9.312-8.468" stroke-width="1.2" stroke="#ff7f00" stroke-miterlimit="10" fill="none"/><path d="M180.66 163.078h14v11h-14zm0 0" fill="#fff"/><g fill="#00f"><use xlink:href="#b" x="180.66" y="171.741"/><use xlink:href="#c" x="187.638" y="171.741"/></g><path d="M208.277 153.836l9.313-8.465" stroke-width="1.2" stroke="#ff7f00" stroke-miterlimit="10" fill="none"/><path d="M217.59 145.37l9.316-8.464" stroke-width="1.2" stroke="#f00" stroke-miterlimit="10" fill="none"/><path d="M204.293 149.457l9.312-8.47" stroke-width="1.2" stroke="#ff7f00" stroke-miterlimit="10" fill="none"/><path d="M213.605 140.988l9.317-8.465" stroke-width="1.2" stroke="#f00" stroke-miterlimit="10" fill="none"/><path d="M206.285 151.645l-8.465-9.313" stroke-width="1.2" stroke="#ff7f00" stroke-miterlimit="10" fill="none"/><path d="M197.82 142.332l-8.468-9.312" stroke-width="1.2" stroke="#000" stroke-miterlimit="10" fill="none"/><path d="M206.285 151.645l8.47 9.316" stroke-width="1.2" stroke="#ff7f00" stroke-miterlimit="10" fill="none"/><path d="M214.754 160.96l8.465 9.313" stroke-width="1.2" stroke="#000" stroke-miterlimit="10" fill="none"/><path d="M203.285 146.145h6v11h-6zm0 0" fill="#fff"/><use xlink:href="#d" x="203.285" y="154.808" fill="#ff7f00"/><path d="M220.914 129.215h8v11h-8zm0 0" fill="#fff"/><use xlink:href="#a" x="220.914" y="137.878" fill="#f00"/><path d="M189.352 133.02l7.664-23.977M184.477 128.82l6.132-19.183M164.754 138.37l24.598-5.35M197.016 109.043l-16.934-18.625M180.082 90.418l-24.598 5.352M178.883 96.738l-19.68 4.282M155.484 95.77l-7.664 23.976M147.82 119.746l16.934 18.625M153.898 117.625l13.547 14.898M223.22 170.273l24.596-5.35M226.938 175.523l19.68-4.28M215.555 194.25l7.664-23.977M247.816 164.922l16.934 18.625M264.75 183.547l-7.664 23.976M258.34 184.14l-6.13 19.184M257.086 207.523l-24.598 5.352M232.488 212.875l-16.933-18.625M235.176 207.03l-13.543-14.9" stroke-width="1.2" stroke="#000" stroke-miterlimit="10" fill="none"/></g></svg>