<svg xmlns="http://www.w3.org/2000/svg" xmlns:xlink="http://www.w3.org/1999/xlink" width="300pt" height="300pt" viewBox="0 0 300 300"><defs><symbol overflow="visible"><path d="M.64 2.297v-11.47h6.5v11.47zm.735-.72h5.047V-8.436H1.375zm0 0"/></symbol><symbol overflow="visible" id="a"><path d="M1.28-9.484H3l4.203 7.937v-7.937h1.25V0H6.72L2.515-7.922V0H1.28zm0 0"/></symbol><symbol overflow="visible" id="b"><path d="M1.28-9.484h1.282v3.89H7.22v-3.89H8.5V0H7.22v-4.516H2.562V0H1.28zm0 0"/></symbol><symbol overflow="visible" id="c"><path d="M5.125-8.61c-.938 0-1.684.352-2.234 1.047-.542.688-.812 1.633-.812 2.83 0 1.198.27 2.147.813 2.842.55.687 1.297 1.03 2.235 1.03.926 0 1.66-.343 2.203-1.03.55-.696.828-1.645.828-2.844 0-1.196-.277-2.14-.828-2.829-.543-.695-1.277-1.046-2.203-1.046zm0-1.046c1.32 0 2.38.45 3.172 1.344.8.898 1.203 2.09 1.203 3.578 0 1.5-.402 2.7-1.203 3.593C7.504-.255 6.445.186 5.125.186c-1.336 0-2.402-.44-3.203-1.328C1.13-2.036.734-3.235.734-4.735c0-1.49.395-2.68 1.188-3.579.8-.894 1.867-1.343 3.203-1.343zm0 0"/></symbol><symbol overflow="visible" id="d"><path d="M6.953-9.172v1.25c-.48-.226-.937-.398-1.375-.516-.43-.113-.844-.17-1.25-.17-.7 0-1.242.135-1.625.405-.375.273-.562.656-.562 1.156 0 .418.126.734.376.953.257.21.738.383 1.437.516l.78.156c.947.188 1.65.512 2.11.97.458.46.688 1.073.688 1.843 0 .92-.307 1.618-.92 2.094-.618.47-1.524.704-2.72.704-.45 0-.93-.055-1.437-.157C1.953-.07 1.43-.222.89-.42v-1.312c.52.293 1.032.51 1.532.656.5.148.988.22 1.47.22.737 0 1.303-.142 1.702-.423.394-.29.593-.704.593-1.236 0-.468-.148-.832-.437-1.093-.28-.257-.746-.456-1.39-.593l-.782-.156c-.96-.187-1.652-.484-2.078-.89-.43-.406-.64-.97-.64-1.688 0-.843.288-1.503.874-1.984.594-.488 1.41-.734 2.454-.734.437 0 .882.043 1.343.125.47.085.943.202 1.423.358zm0 0"/></symbol></defs><g><path fill="#fff" d="M0 0h300v300H0z"/><path d="M35.25 193.22l32.977-7.15M68.227 186.07l10.296-32.132M78.523 153.938l16.49-3.575" stroke-width="1.2" stroke="#000" stroke-miterlimit="10" fill="none"/><path d="M95.012 150.363l16.488-3.574" stroke-width="1.2" stroke="#00f" stroke-miterlimit="10" fill="none"/><path d="M121.797 114.656l-15.965 30.317 11.34 3.632zm0 0"/><path d="M101.5 138.79h20v16h-20zm0 0" fill="#fff"/><g fill="#00f"><use xlink:href="#a" x="101.5" y="151.165"/><use xlink:href="#b" x="111.47" y="151.165"/></g><path d="M121.797 114.656L99.12 89.672M121.797 114.656l32.976-7.148M158.555 108.72l5.148-16.068" stroke-width="1.2" stroke="#000" stroke-miterlimit="10" fill="none"/><path d="M163.703 92.652l5.15-16.062" stroke-width="1.2" stroke="#f00" stroke-miterlimit="10" fill="none"/><path d="M150.996 106.297l5.15-16.067" stroke-width="1.2" stroke="#000" stroke-miterlimit="10" fill="none"/><path d="M156.145 90.23l5.148-16.066" stroke-width="1.2" stroke="#f00" stroke-miterlimit="10" fill="none"/><path d="M154.773 107.508L166.113 120" stroke-width="1.2" stroke="#000" stroke-miterlimit="10" fill="none"/><path d="M166.113 120l11.34 12.492" stroke-width="1.2" stroke="#00f" stroke-miterlimit="10" fill="none"/><path d="M160.074 67.375h11v16h-11zm0 0" fill="#fff"/><use xlink:href="#c" x="160.074" y="79.751" fill="#f00"/><path d="M177.453 132.492l16.488-3.574" stroke-width="1.2" stroke="#00f" stroke-miterlimit="10" fill="none"/><path d="M193.94 128.918l16.49-3.574" stroke-width="1.2" stroke="#000" stroke-miterlimit="10" fill="none"/><path d="M167.453 124.492h20v16h-20zm0 0" fill="#fff"/><g fill="#00f"><use xlink:href="#a" x="167.453" y="136.868"/><use xlink:href="#b" x="177.423" y="136.868"/></g><path d="M210.43 125.344l25.168 22.48M218.234 121.672l20.133 17.98M224.03 94.465l-13.6 30.88M235.598 147.824l14.574-8.496" stroke-width="1.2" stroke="#000" stroke-miterlimit="10" fill="none"/><path d="M250.172 139.328l14.578-8.496" stroke-width="1.2" stroke="#cc0" stroke-miterlimit="10" fill="none"/><path d="M235.598 147.824l-3.395 33.57" stroke-width="1.2" stroke="#000" stroke-miterlimit="10" fill="none"/><path d="M264.75 130.832l-3.574-16.488" stroke-width="1.2" stroke="#cc0" stroke-miterlimit="10" fill="none"/><path d="M261.176 114.344l-3.574-16.49" stroke-width="1.2" stroke="#000" stroke-miterlimit="10" fill="none"/><path d="M260.75 122.832h9v16h-9zm0 0" fill="#fff"/><use xlink:href="#d" x="260.75" y="135.208" fill="#cc0"/><path d="M257.602 97.855l-33.57-3.39M253.445 105.418l-26.855-2.715M224.03 94.465l-16.987-29.153M230.574 177.773L215.19 184.7" stroke-width="1.2" stroke="#000" stroke-miterlimit="10" fill="none"/><path d="M215.19 184.7l-15.385 6.92" stroke-width="1.2" stroke="#f00" stroke-miterlimit="10" fill="none"/><path d="M233.832 185.016l-15.383 6.922" stroke-width="1.2" stroke="#000" stroke-miterlimit="10" fill="none"/><path d="M218.45 191.938l-15.387 6.925" stroke-width="1.2" stroke="#f00" stroke-miterlimit="10" fill="none"/><path d="M232.203 181.395l13.692 9.86" stroke-width="1.2" stroke="#000" stroke-miterlimit="10" fill="none"/><path d="M245.895 191.254l13.687 9.863" stroke-width="1.2" stroke="#f00" stroke-miterlimit="10" fill="none"/><path d="M190.434 187.242h11v16h-11zm0 0" fill="#fff"/><use xlink:href="#c" x="190.434" y="199.618" fill="#f00"/><path d="M259.582 201.117l-1.695 16.785" stroke-width="1.2" stroke="#f00" stroke-miterlimit="10" fill="none"/><path d="M257.887 217.902l-1.696 16.786" stroke-width="1.2" stroke="#000" stroke-miterlimit="10" fill="none"/><path d="M254.582 193.117h11v16h-11zm0 0" fill="#fff"/><use xlink:href="#c" x="254.582" y="205.493" fill="#f00"/></g></svg>