<svg xmlns="http://www.w3.org/2000/svg" xmlns:xlink="http://www.w3.org/1999/xlink" width="300pt" height="300pt" viewBox="0 0 300 300"><defs><symbol overflow="visible"><path d="M.594 2.125V-8.47h6V2.126zm.672-.672h4.671V-7.78h-4.67zm0 0"/></symbol><symbol overflow="visible" id="a"><path d="M7.734-8.078v1.25c-.406-.375-.836-.65-1.28-.828-.45-.188-.93-.282-1.438-.282-1 0-1.766.31-2.297.922-.533.618-.798 1.5-.798 2.657 0 1.15.266 2.028.797 2.64.53.618 1.296.923 2.296.923.507 0 .988-.094 1.437-.28.445-.19.875-.462 1.28-.83V-.67c-.417.28-.858.496-1.327.64-.46.134-.945.204-1.453.204-1.336 0-2.383-.406-3.14-1.22-.762-.81-1.14-1.913-1.14-3.31 0-1.408.378-2.517 1.14-3.33.757-.812 1.804-1.218 3.14-1.218.52 0 1.008.074 1.47.22.468.135.905.338 1.31.608zm0 0"/></symbol><symbol overflow="visible" id="b"><path d="M1.125-9.125h1.078V0H1.125zm0 0"/></symbol><symbol overflow="visible" id="c"><path d="M1.172-8.75h1.594l3.89 7.313V-8.75h1.14V0H6.204L2.328-7.313V0H1.172zm0 0"/></symbol><symbol overflow="visible" id="d"><path d="M1.172-8.75H2.36v3.594h4.296V-8.75h1.188V0H6.656v-4.172H2.36V0H1.17zm0 0"/></symbol><symbol overflow="visible" id="e"><path d="M4.734-7.953c-.867 0-1.554.324-2.062.97-.5.635-.75 1.51-.75 2.624 0 1.094.25 1.965.75 2.61.508.637 1.195.953 2.062.953.852 0 1.532-.316 2.032-.953.507-.645.765-1.516.765-2.61 0-1.113-.257-1.988-.764-2.624-.5-.645-1.18-.97-2.032-.97zm0-.953c1.22 0 2.192.414 2.922 1.234.74.824 1.11 1.93 1.11 3.313 0 1.376-.37 2.477-1.11 3.298C6.926-.24 5.953.17 4.734.17c-1.23 0-2.214-.41-2.953-1.234C1.04-1.882.673-2.984.673-4.36c0-1.382.367-2.488 1.11-3.312.738-.82 1.722-1.234 2.952-1.234zm0 0"/></symbol></defs><g><path fill="#fff" d="M0 0h300v300H0z"/><path d="M209.7 118.602l-25.606 16.26M210.965 126.25l-20.485 13.012M236.582 132.645L209.7 118.602M184.094 134.863l1.28 30.305" stroke-width="1.2" stroke="#000" stroke-miterlimit="10" fill="none"/><path d="M154.875 126.715l14.61 4.074" stroke-width="1.2" stroke="#00f" stroke-miterlimit="10" fill="none"/><path d="M169.484 130.79l14.61 4.073M185.375 165.168l26.887 14.043M191.367 160.246l21.508 11.234M185.375 165.168l-14.215 5.29" stroke-width="1.2" stroke="#000" stroke-miterlimit="10" fill="none"/><path d="M171.16 170.457l-14.21 5.293" stroke-width="1.2" stroke="#00f" stroke-miterlimit="10" fill="none"/><path d="M212.262 179.21l25.6-16.26M237.863 162.95l-1.28-30.305M230.605 160.22l-1.023-24.243M237.863 162.95l13.446 7.02" stroke-width="1.2" stroke="#000" stroke-miterlimit="10" fill="none"/><path d="M251.31 169.97l13.44 7.022" stroke-width="1.2" stroke="#0c0" stroke-miterlimit="10" fill="none"/><path d="M236.582 132.645l12.805-8.133" stroke-width="1.2" stroke="#000" stroke-miterlimit="10" fill="none"/><path d="M249.387 124.512l12.8-8.13" stroke-width="1.2" stroke="#0c0" stroke-miterlimit="10" fill="none"/><path d="M256.188 109.383h12v14h-12zm0 0" fill="#fff"/><g fill="#0c0"><use xlink:href="#a" x="256.188" y="120.521"/><use xlink:href="#b" x="264.566" y="120.521"/></g><path d="M258.75 169.992h12v14h-12zm0 0" fill="#fff"/><g fill="#0c0"><use xlink:href="#a" x="258.75" y="181.131"/><use xlink:href="#b" x="267.129" y="181.131"/></g><path d="M156.95 175.75l-9.427-11.883" stroke-width="1.2" stroke="#00f" stroke-miterlimit="10" fill="none"/><path d="M147.523 163.867l-9.42-11.883" stroke-width="1.2" stroke="#000" stroke-miterlimit="10" fill="none"/><path d="M160.656 168.938l-7.54-9.504" stroke-width="1.2" stroke="#00f" stroke-miterlimit="10" fill="none"/><path d="M153.117 159.434l-7.54-9.508" stroke-width="1.2" stroke="#000" stroke-miterlimit="10" fill="none"/><path d="M152.95 168.75h9v14h-9zm0 0" fill="#fff"/><use xlink:href="#c" x="152.949" y="179.889" fill="#00f"/><path d="M138.102 151.984l8.386-12.632" stroke-width="1.2" stroke="#000" stroke-miterlimit="10" fill="none"/><path d="M146.488 139.352l8.387-12.637" stroke-width="1.2" stroke="#00f" stroke-miterlimit="10" fill="none"/><path d="M107.797 153.266l30.527 4.07-.45-10.7zm0 0"/><path d="M145.875 119.715h18v14h-18zm0 0" fill="#fff"/><g fill="#00f"><use xlink:href="#c" x="145.875" y="130.854"/><use xlink:href="#d" x="154.852" y="130.854"/></g><path d="M107.797 153.266L91.02 178.54" stroke-width="1.2" stroke="#000" stroke-miterlimit="10" fill="none"/><path d="M88.945 129.504l9.426 11.883" stroke-width="1.2" stroke="#f00" stroke-miterlimit="10" fill="none"/><path d="M98.37 141.387l9.427 11.88M91.02 178.54l-29.22-8.15" stroke-width="1.2" stroke="#000" stroke-miterlimit="10" fill="none"/><path d="M91.02 178.54m.543 2.948l.976-.363m-.438 3.313l1.957-.727m-1.415 3.68l2.933-1.093m-2.39 4.043l3.91-1.457m-3.368 4.406l4.887-1.817m-4.344 4.77l5.864-2.184m-5.325 5.13l6.844-2.545m-6.3 5.496l7.816-2.91m-7.274 5.864l8.793-3.274m-8.25 6.223l9.77-3.637m-9.624 4.426l10.03-3.738" stroke="#000" stroke-miterlimit="10" fill="none"/><path d="M61.8 170.39l-1.28-30.304" stroke-width="1.2" stroke="#000" stroke-miterlimit="10" fill="none"/><path d="M61.8 170.39m-2.636 1.43l.645.817m-3.287.61l1.297 1.632m-3.933-.208l1.94 2.453m-4.58-1.023l2.593 3.265m-5.23-1.84l3.238 4.086m-5.88-2.656l3.887 4.898m-6.523-3.472l4.535 5.72m-7.176-4.294l5.185 6.538m-7.82-5.11l5.832 7.352m-8.473-5.926l6.48 8.172m-7.183-7.79l6.653 8.388" stroke="#000" stroke-miterlimit="10" fill="none"/><path d="M60.52 140.086l14.214-5.293" stroke-width="1.2" stroke="#000" stroke-miterlimit="10" fill="none"/><path d="M74.734 134.793l14.21-5.29" stroke-width="1.2" stroke="#f00" stroke-miterlimit="10" fill="none"/><path d="M60.52 140.086m-2.172-2.066l-.578.867m-1.594-2.938l-1.156 1.738M54 133.882l-1.73 2.605m-.442-4.675l-2.308 3.476m.136-5.548l-2.883 4.344m.707-6.41l-3.457 5.21m1.286-7.28l-4.037 6.082m1.864-8.15l-4.614 6.95m2.442-9.02l-5.192 7.82m3.016-9.886l-5.767 8.688m5.188-9.238l-5.92 8.918" stroke="#000" stroke-miterlimit="10" fill="none"/><path d="M83.945 122.504h10v14h-10zm0 0" fill="#fff"/><use xlink:href="#e" x="83.945" y="133.643" fill="#f00"/><path d="M35.25 123.31l.945-15.138" stroke-width="1.2" stroke="#000" stroke-miterlimit="10" fill="none"/><path d="M36.195 108.172l.95-15.137" stroke-width="1.2" stroke="#f00" stroke-miterlimit="10" fill="none"/><path d="M28.145 86.035h19v14h-19zm0 0" fill="#fff"/><g fill="#f00"><use xlink:href="#e" x="28.145" y="97.174"/><use xlink:href="#d" x="37.59" y="97.174"/></g><path d="M19.035 182.238h19v14h-19zm0 0" fill="#fff"/><g fill="#f00"><use xlink:href="#d" x="19.035" y="193.377"/><use xlink:href="#e" x="28.059" y="193.377"/></g><path d="M92.602 199.965h19v14h-19zm0 0" fill="#fff"/><g fill="#f00"><use xlink:href="#e" x="92.602" y="211.104"/><use xlink:href="#d" x="102.047" y="211.104"/></g></g></svg>