<svg xmlns="http://www.w3.org/2000/svg" xmlns:xlink="http://www.w3.org/1999/xlink" width="300pt" height="300pt" viewBox="0 0 300 300"><defs><symbol overflow="visible"><path d="M.453 1.594v-7.938h4.5v7.938zm.5-.5h3.5v-6.938h-3.5zm0 0"/></symbol><symbol overflow="visible" id="a"><path d="M.89-6.563H2.08l2.906 5.485v-5.484h.86V0H4.656L1.75-5.484V0H.89zm0 0"/></symbol><symbol overflow="visible" id="b"><path d="M3.547-5.953c-.65 0-1.164.242-1.547.72-.375.48-.563 1.13-.563 1.952 0 .835.188 1.49.563 1.967.383.48.898.72 1.547.72.644 0 1.156-.24 1.53-.72.376-.476.564-1.132.564-1.968 0-.822-.187-1.474-.562-1.954-.375-.477-.887-.72-1.53-.72zm0-.734c.914 0 1.648.312 2.203.937.55.617.828 1.438.828 2.47 0 1.042-.277 1.87-.828 2.483-.555.617-1.29.922-2.203.922-.93 0-1.668-.305-2.22-.922C.774-1.41.5-2.237.5-3.28c0-1.033.273-1.853.828-2.47.55-.625 1.29-.938 2.22-.938zm0 0"/></symbol><symbol overflow="visible" id="c"><path d="M.89-6.563h.876v2.688H5v-2.688h.89V0H5v-3.125H1.766V0H.89zm0 0"/></symbol><symbol overflow="visible" id="d"><path d="M4.813-6.344v.86c-.336-.157-.653-.27-.954-.344-.294-.082-.58-.125-.86-.125-.492 0-.867.094-1.125.28-.262.19-.39.454-.39.798 0 .293.085.512.265.656.176.15.504.267.984.36l.547.11c.658.125 1.142.352 1.454.672.32.312.485.734.485 1.265 0 .637-.216 1.122-.642 1.454-.43.325-1.055.485-1.875.485-.312 0-.648-.04-1-.11C1.36-.046 1-.147.625-.296v-.906c.352.2.703.35 1.047.453.35.105.695.156 1.03.156.5 0 .884-.097 1.157-.297.28-.196.42-.485.42-.86 0-.32-.1-.57-.296-.75-.2-.176-.523-.313-.968-.406l-.547-.11C1.81-3.148 1.33-3.36 1.03-3.64.74-3.923.595-4.313.595-4.813c0-.57.203-1.024.61-1.36.405-.344.968-.516 1.687-.516.313 0 .626.032.938.094.32.055.65.137.985.25zm0 0"/></symbol><symbol overflow="visible" id="e"><path d="M5.797-6.063v.938c-.305-.27-.625-.473-.97-.61-.335-.144-.686-.218-1.06-.218-.75 0-1.33.23-1.736.687-.397.46-.592 1.12-.592 1.985 0 .866.195 1.526.593 1.983.408.46.986.688 1.736.688.375 0 .726-.066 1.062-.203.344-.132.664-.343.97-.625V-.5c-.314.21-.642.367-.986.47-.343.1-.714.155-1.11.155-.99 0-1.772-.3-2.343-.906C.784-1.396.5-2.228.5-3.28c0-1.052.285-1.88.86-2.486.57-.613 1.35-.92 2.343-.92.395-.002.766.053 1.11.155.35.104.68.26.984.468zm0 0"/></symbol><symbol overflow="visible" id="f"><path d="M.844-6.844h.812V0H.844zm0 0"/></symbol></defs><g><path fill="#fff" d="M0 0h300v300H0z"/><path d="M194.84 168.72l-17.094-10.224M195.535 163.676l-13.676-8.18M212.238 159.027l-17.398 9.692M177.746 158.496l-8.7 4.844" stroke-width="1.2" stroke="#000" stroke-miterlimit="10" fill="none"/><path d="M169.047 163.34l-8.703 4.847" stroke-width="1.2" stroke="#00f" stroke-miterlimit="10" fill="none"/><path d="M177.746 158.496l.31-19.914" stroke-width="1.2" stroke="#000" stroke-miterlimit="10" fill="none"/><path d="M160.344 168.188l-1.192 9.886" stroke-width="1.2" stroke="#00f" stroke-miterlimit="10" fill="none"/><path d="M159.152 178.074l-1.195 9.887M142.277 159.805l9.032 4.19" stroke-width="1.2" stroke="#000" stroke-miterlimit="10" fill="none"/><path d="M151.31 163.996l9.034 4.19" stroke-width="1.2" stroke="#00f" stroke-miterlimit="10" fill="none"/><path d="M157.344 162.688h7v11h-7zm0 0" fill="#fff"/><use xlink:href="#a" x="157.344" y="171.351" fill="#00f"/><path d="M156.363 189.68l7.297 6.777" stroke-width="1.2" stroke="#000" stroke-miterlimit="10" fill="none"/><path d="M163.66 196.457l7.297 6.777" stroke-width="1.2" stroke="#f00" stroke-miterlimit="10" fill="none"/><path d="M159.55 186.246l7.298 6.777" stroke-width="1.2" stroke="#000" stroke-miterlimit="10" fill="none"/><path d="M166.848 193.023l7.297 6.778" stroke-width="1.2" stroke="#f00" stroke-miterlimit="10" fill="none"/><path d="M157.957 187.96l-9.773 1.923" stroke-width="1.2" stroke="#000" stroke-miterlimit="10" fill="none"/><path d="M148.184 189.883l-9.77 1.918" stroke-width="1.2" stroke="#f00" stroke-miterlimit="10" fill="none"/><path d="M168.55 196.016h8v11h-8zm0 0" fill="#fff"/><use xlink:href="#b" x="168.551" y="204.679" fill="#f00"/><path d="M138.414 191.8l-4.848-8.698" stroke-width="1.2" stroke="#f00" stroke-miterlimit="10" fill="none"/><path d="M133.566 183.102l-4.843-8.704" stroke-width="1.2" stroke="#000" stroke-miterlimit="10" fill="none"/><path d="M134.414 186.3h8v11h-8zm0 0" fill="#fff"/><use xlink:href="#b" x="134.414" y="194.964" fill="#f00"/><path d="M128.723 174.398l-19.356-5.875-.84 6.98zm0 0"/><path d="M128.723 174.398l13.554-14.593M108.95 172.012l-3.91-9.16" stroke-width="1.2" stroke="#000" stroke-miterlimit="10" fill="none"/><path d="M105.04 162.852l-3.91-9.157M101.13 153.695L91.24 152.5" stroke-width="1.2" stroke="#00f" stroke-miterlimit="10" fill="none"/><path d="M91.242 152.5l-9.887-1.195" stroke-width="1.2" stroke="#000" stroke-miterlimit="10" fill="none"/><path d="M94.13 148.195h14v11h-14zm0 0" fill="#fff"/><g fill="#00f"><use xlink:href="#a" x="94.129" y="156.858"/><use xlink:href="#c" x="101.106" y="156.858"/></g><path d="M79.48 149.898l-5.976 7.97" stroke-width="1.2" stroke="#000" stroke-miterlimit="10" fill="none"/><path d="M73.504 157.867l-5.977 7.965" stroke-width="1.2" stroke="#f00" stroke-miterlimit="10" fill="none"/><path d="M83.23 152.715l-5.98 7.965" stroke-width="1.2" stroke="#000" stroke-miterlimit="10" fill="none"/><path d="M77.25 160.68l-5.977 7.965" stroke-width="1.2" stroke="#f00" stroke-miterlimit="10" fill="none"/><path d="M81.355 151.305l-7.82-18.317" stroke-width="1.2" stroke="#000" stroke-miterlimit="10" fill="none"/><path d="M61.398 161.738h8v11h-8zm0 0" fill="#fff"/><use xlink:href="#b" x="61.398" y="170.401" fill="#f00"/><path d="M73.535 132.988l-9.707-2.222" stroke-width="1.2" stroke="#000" stroke-miterlimit="10" fill="none"/><path d="M63.828 130.766l-9.71-2.22" stroke-width="1.2" stroke="#cc0" stroke-miterlimit="10" fill="none"/><path d="M83.758 115.895l-10.223 17.093M78.715 115.2l-8.18 13.67" stroke-width="1.2" stroke="#000" stroke-miterlimit="10" fill="none"/><path d="M54.117 128.547l-.887-9.918" stroke-width="1.2" stroke="#cc0" stroke-miterlimit="10" fill="none"/><path d="M53.23 118.63l-.886-9.923" stroke-width="1.2" stroke="#000" stroke-miterlimit="10" fill="none"/><path d="M51.117 123.047h6v11h-6zm0 0" fill="#fff"/><use xlink:href="#d" x="51.117" y="131.71" fill="#cc0"/><path d="M52.344 108.707l-8.547-5.11" stroke-width="1.2" stroke="#000" stroke-miterlimit="10" fill="none"/><path d="M43.797 103.598l-8.547-5.114" stroke-width="1.2" stroke="#0c0" stroke-miterlimit="10" fill="none"/><path d="M52.344 108.707l18.316-7.816M56.016 112.238l14.652-6.258" stroke-width="1.2" stroke="#000" stroke-miterlimit="10" fill="none"/><path d="M25.25 92.984h10v11h-10zm0 0" fill="#fff"/><g fill="#0c0"><use xlink:href="#e" x="25.25" y="101.647"/><use xlink:href="#f" x="31.764" y="101.647"/></g><path d="M70.66 100.89l13.098 15.005M178.055 138.582l17.398-9.69M182.074 141.707l13.922-7.754M195.453 128.89l17.094 10.223M212.547 139.113l8.7-4.843" stroke-width="1.2" stroke="#000" stroke-miterlimit="10" fill="none"/><path d="M221.246 134.27l8.703-4.848" stroke-width="1.2" stroke="#00f" stroke-miterlimit="10" fill="none"/><path d="M212.547 139.113l-.31 19.914M207.832 141.03l-.246 15.935" stroke-width="1.2" stroke="#000" stroke-miterlimit="10" fill="none"/><path d="M229.95 129.422l8.546 5.113" stroke-width="1.2" stroke="#00f" stroke-miterlimit="10" fill="none"/><path d="M238.496 134.535l8.547 5.11" stroke-width="1.2" stroke="#000" stroke-miterlimit="10" fill="none"/><path d="M229.95 129.422l.152-9.957" stroke-width="1.2" stroke="#00f" stroke-miterlimit="10" fill="none"/><path d="M230.102 119.465l.152-9.957" stroke-width="1.2" stroke="#000" stroke-miterlimit="10" fill="none"/><path d="M226.95 123.922h7v11h-7zm0 0" fill="#fff"/><use xlink:href="#a" x="226.949" y="132.585" fill="#00f"/><path d="M247.043 139.645l17.398-9.688" stroke-width="1.2" stroke="#000" stroke-miterlimit="10" fill="none"/><path d="M264.75 110.04l-.152 9.956" stroke-width="1.2" stroke="#f00" stroke-miterlimit="10" fill="none"/><path d="M264.598 119.996l-.157 9.96M230.254 109.508l17.402-9.692M247.656 99.816l8.547 5.114" stroke-width="1.2" stroke="#000" stroke-miterlimit="10" fill="none"/><path d="M256.203 104.93l8.547 5.11" stroke-width="1.2" stroke="#f00" stroke-miterlimit="10" fill="none"/><path d="M260.75 104.54h8v11h-8zm0 0" fill="#fff"/><use xlink:href="#b" x="260.75" y="113.202" fill="#f00"/></g></svg>