<svg xmlns="http://www.w3.org/2000/svg" xmlns:xlink="http://www.w3.org/1999/xlink" width="300pt" height="300pt" viewBox="0 0 300 300"><defs><symbol overflow="visible"><path d="M.453 1.594v-7.938h4.5v7.938zm.5-.5h3.5v-6.938h-3.5zm0 0"/></symbol><symbol overflow="visible" id="a"><path d="M.89-6.563H2.08l2.906 5.485v-5.484h.86V0H4.656L1.75-5.484V0H.89zm0 0"/></symbol><symbol overflow="visible" id="b"><path d="M3.547-5.953c-.65 0-1.164.242-1.547.72-.375.48-.563 1.13-.563 1.952 0 .835.188 1.49.563 1.967.383.48.898.72 1.547.72.644 0 1.156-.24 1.53-.72.376-.476.564-1.132.564-1.968 0-.822-.187-1.474-.562-1.954-.375-.477-.887-.72-1.53-.72zm0-.734c.914 0 1.648.312 2.203.937.55.617.828 1.438.828 2.47 0 1.042-.277 1.87-.828 2.483-.555.617-1.29.922-2.203.922-.93 0-1.668-.305-2.22-.922C.774-1.41.5-2.237.5-3.28c0-1.033.273-1.853.828-2.47.55-.625 1.29-.938 2.22-.938zm0 0"/></symbol><symbol overflow="visible" id="c"><path d="M.89-6.563h.876v2.688H5v-2.688h.89V0H5v-3.125H1.766V0H.89zm0 0"/></symbol><symbol overflow="visible" id="d"><path d="M5.797-6.063v.938c-.305-.27-.625-.473-.97-.61-.335-.144-.686-.218-1.06-.218-.75 0-1.33.23-1.736.687-.397.46-.592 1.12-.592 1.985 0 .866.195 1.526.593 1.983.408.46.986.688 1.736.688.375 0 .726-.066 1.062-.203.344-.132.664-.343.97-.625V-.5c-.314.21-.642.367-.986.47-.343.1-.714.155-1.11.155-.99 0-1.772-.3-2.343-.906C.784-1.396.5-2.228.5-3.28c0-1.052.285-1.88.86-2.486.57-.613 1.35-.92 2.343-.92.395-.002.766.053 1.11.155.35.104.68.26.984.468zm0 0"/></symbol><symbol overflow="visible" id="e"><path d="M.844-6.844h.812V0H.844zm0 0"/></symbol><symbol overflow="visible" id="f"><path d="M4.813-6.344v.86c-.336-.157-.653-.27-.954-.344-.294-.082-.58-.125-.86-.125-.492 0-.867.094-1.125.28-.262.19-.39.454-.39.798 0 .293.085.512.265.656.176.15.504.267.984.36l.547.11c.658.125 1.142.352 1.454.672.32.312.485.734.485 1.265 0 .637-.216 1.122-.642 1.454-.43.325-1.055.485-1.875.485-.312 0-.648-.04-1-.11C1.36-.046 1-.147.625-.296v-.906c.352.2.703.35 1.047.453.35.105.695.156 1.03.156.5 0 .884-.097 1.157-.297.28-.196.42-.485.42-.86 0-.32-.1-.57-.296-.75-.2-.176-.523-.313-.968-.406l-.547-.11C1.81-3.148 1.33-3.36 1.03-3.64.74-3.923.595-4.313.595-4.813c0-.57.203-1.024.61-1.36.405-.344.968-.516 1.687-.516.313 0 .626.032.938.094.32.055.65.137.985.25zm0 0"/></symbol></defs><g><path fill="#fff" d="M0 0h300v300H0z"/><path d="M249.19 163.5l-19.46 6.742M245.66 159.594l-15.57 5.394M253.082 143.273l-3.89 20.227M229.73 170.242l-7.785-6.738" stroke-width="1.2" stroke="#000" stroke-miterlimit="10" fill="none"/><path d="M221.945 163.504l-7.785-6.742M214.16 156.762l-9.73 3.37" stroke-width="1.2" stroke="#00f" stroke-miterlimit="10" fill="none"/><path d="M204.43 160.133l-9.73 3.375" stroke-width="1.2" stroke="#000" stroke-miterlimit="10" fill="none"/><path d="M214.16 156.762l1.945-10.114" stroke-width="1.2" stroke="#00f" stroke-miterlimit="10" fill="none"/><path d="M216.105 146.648l1.942-10.113" stroke-width="1.2" stroke="#000" stroke-miterlimit="10" fill="none"/><path d="M211.16 151.262h7v11h-7zm0 0" fill="#fff"/><use xlink:href="#a" x="211.16" y="159.925" fill="#00f"/><path d="M194.7 163.508l-15.575-13.485M189.97 165.824L177.51 155.04M190.81 183.734l3.89-20.226M179.125 150.023l-19.46 6.747M159.664 156.77l-3.89 20.226M164.035 159.707l-3.113 16.184M155.773 176.996l-9.73 3.375" stroke-width="1.2" stroke="#000" stroke-miterlimit="10" fill="none"/><path d="M146.043 180.37l-9.73 3.372" stroke-width="1.2" stroke="#00f" stroke-miterlimit="10" fill="none"/><path d="M155.773 176.996l15.575 13.48" stroke-width="1.2" stroke="#000" stroke-miterlimit="10" fill="none"/><path d="M136.313 183.742l-2.993 9.856" stroke-width="1.2" stroke="#00f" stroke-miterlimit="10" fill="none"/><path d="M133.32 193.598l-2.988 9.85M119.418 171.96l8.445 5.892" stroke-width="1.2" stroke="#000" stroke-miterlimit="10" fill="none"/><path d="M127.863 177.852l8.45 5.89" stroke-width="1.2" stroke="#00f" stroke-miterlimit="10" fill="none"/><path d="M133.313 178.242h7v11h-7zm0 0" fill="#fff"/><use xlink:href="#a" x="133.313" y="186.905" fill="#00f"/><path d="M128.398 204.914l6.215 8.21" stroke-width="1.2" stroke="#000" stroke-miterlimit="10" fill="none"/><path d="M134.613 213.125l6.215 8.215" stroke-width="1.2" stroke="#f00" stroke-miterlimit="10" fill="none"/><path d="M132.262 201.988l6.215 8.215" stroke-width="1.2" stroke="#000" stroke-miterlimit="10" fill="none"/><path d="M138.477 210.203l6.214 8.21" stroke-width="1.2" stroke="#f00" stroke-miterlimit="10" fill="none"/><path d="M130.332 203.45l-10.297.202" stroke-width="1.2" stroke="#000" stroke-miterlimit="10" fill="none"/><path d="M120.035 203.652l-10.297.2" stroke-width="1.2" stroke="#f00" stroke-miterlimit="10" fill="none"/><path d="M138.758 214.375h8v11h-8zm0 0" fill="#fff"/><use xlink:href="#b" x="138.758" y="223.038" fill="#f00"/><path d="M109.738 203.852l-3.375-9.73" stroke-width="1.2" stroke="#f00" stroke-miterlimit="10" fill="none"/><path d="M106.363 194.12l-3.37-9.73" stroke-width="1.2" stroke="#000" stroke-miterlimit="10" fill="none"/><path d="M105.738 198.352h8v11h-8zm0 0" fill="#fff"/><use xlink:href="#b" x="105.738" y="207.015" fill="#f00"/><path d="M102.992 184.39l-18.652-9.46-2.113 6.957zm0 0"/><path d="M102.992 184.39l16.426-12.43M83.28 178.41l-2.335-10.03" stroke-width="1.2" stroke="#000" stroke-miterlimit="10" fill="none"/><path d="M80.945 168.38l-2.336-10.032M78.61 158.348l-9.856-2.993" stroke-width="1.2" stroke="#00f" stroke-miterlimit="10" fill="none"/><path d="M68.754 155.355l-9.856-2.988" stroke-width="1.2" stroke="#000" stroke-miterlimit="10" fill="none"/><path d="M71.61 152.848h14v11h-14zm0 0" fill="#fff"/><g fill="#00f"><use xlink:href="#a" x="71.609" y="161.511"/><use xlink:href="#c" x="78.587" y="161.511"/></g><path d="M58.898 152.367l-4.67-20.062M57.242 150.598l-7.515 7.04" stroke-width="1.2" stroke="#000" stroke-miterlimit="10" fill="none"/><path d="M49.727 157.637l-7.52 7.04" stroke-width="1.2" stroke="#f00" stroke-miterlimit="10" fill="none"/><path d="M60.555 154.137l-7.516 7.035" stroke-width="1.2" stroke="#000" stroke-miterlimit="10" fill="none"/><path d="M53.04 161.172l-7.52 7.04" stroke-width="1.2" stroke="#f00" stroke-miterlimit="10" fill="none"/><path d="M54.227 132.305l-18.977-8.008M54.215 127.04l-15.184-6.407" stroke-width="1.2" stroke="#000" stroke-miterlimit="10" fill="none"/><path d="M67.707 116.734l-6.738 7.786" stroke-width="1.2" stroke="#cc0" stroke-miterlimit="10" fill="none"/><path d="M60.97 124.52l-6.743 7.785M35.25 124.297l1.754-20.524M37.004 103.773l20.06-4.67M40.11 108.027l16.046-3.738M57.063 99.102l4.007-9.49" stroke-width="1.2" stroke="#000" stroke-miterlimit="10" fill="none"/><path d="M61.07 89.613l4.004-9.488" stroke-width="1.2" stroke="#0c0" stroke-miterlimit="10" fill="none"/><path d="M57.063 99.102l5.324 8.816" stroke-width="1.2" stroke="#000" stroke-miterlimit="10" fill="none"/><path d="M62.387 107.918l5.32 8.816" stroke-width="1.2" stroke="#cc0" stroke-miterlimit="10" fill="none"/><path d="M60.074 74.625h10v11h-10zm0 0" fill="#fff"/><g fill="#0c0"><use xlink:href="#d" x="60.074" y="83.288"/><use xlink:href="#e" x="66.588" y="83.288"/></g><path d="M64.707 111.234h6v11h-6zm0 0" fill="#fff"/><use xlink:href="#f" x="64.707" y="119.897" fill="#cc0"/><path d="M35.863 160.945h8v11h-8zm0 0" fill="#fff"/><use xlink:href="#b" x="35.863" y="169.608" fill="#f00"/><path d="M171.348 190.477l19.46-6.743M171.707 185.227l15.566-5.4M190.81 183.734l15.57 13.48M219.633 134.703l-7.785-6.742" stroke-width="1.2" stroke="#000" stroke-miterlimit="10" fill="none"/><path d="M211.848 127.96l-7.786-6.737" stroke-width="1.2" stroke="#f00" stroke-miterlimit="10" fill="none"/><path d="M216.46 138.367l-7.784-6.742" stroke-width="1.2" stroke="#000" stroke-miterlimit="10" fill="none"/><path d="M208.676 131.625l-7.785-6.738" stroke-width="1.2" stroke="#f00" stroke-miterlimit="10" fill="none"/><path d="M218.047 136.535l19.465-6.746" stroke-width="1.2" stroke="#000" stroke-miterlimit="10" fill="none"/><path d="M194.477 117.555h8v11h-8zm0 0" fill="#fff"/><use xlink:href="#b" x="194.477" y="126.218" fill="#f00"/><path d="M237.512 129.79l3.886-20.227M237.512 129.79l15.57 13.483M235.895 134.8l12.457 10.786M241.398 109.563l19.46-6.747M260.86 102.816l1.945-10.113" stroke-width="1.2" stroke="#000" stroke-miterlimit="10" fill="none"/><path d="M262.805 92.703l1.945-10.113" stroke-width="1.2" stroke="#f00" stroke-miterlimit="10" fill="none"/><path d="M257.75 77.09h15v11h-15zm0 0" fill="#fff"/><g fill="#f00"><use xlink:href="#b" x="257.75" y="85.753"/><use xlink:href="#c" x="265.092" y="85.753"/></g></g></svg>