<svg xmlns="http://www.w3.org/2000/svg" xmlns:xlink="http://www.w3.org/1999/xlink" width="300pt" height="300pt" viewBox="0 0 300 300"><defs><symbol overflow="visible"><path d="M.453 1.594v-7.938h4.5v7.938zm.5-.5h3.5v-6.938h-3.5zm0 0"/></symbol><symbol overflow="visible" id="a"><path d="M.89-6.563H2.08l2.906 5.485v-5.484h.86V0H4.656L1.75-5.484V0H.89zm0 0"/></symbol><symbol overflow="visible" id="b"><path d="M3.547-5.953c-.65 0-1.164.242-1.547.72-.375.48-.563 1.13-.563 1.952 0 .835.188 1.49.563 1.967.383.48.898.72 1.547.72.644 0 1.156-.24 1.53-.72.376-.476.564-1.132.564-1.968 0-.822-.187-1.474-.562-1.954-.375-.477-.887-.72-1.53-.72zm0-.734c.914 0 1.648.312 2.203.937.55.617.828 1.438.828 2.47 0 1.042-.277 1.87-.828 2.483-.555.617-1.29.922-2.203.922-.93 0-1.668-.305-2.22-.922C.774-1.41.5-2.237.5-3.28c0-1.033.273-1.853.828-2.47.55-.625 1.29-.938 2.22-.938zm0 0"/></symbol><symbol overflow="visible" id="c"><path d="M.89-6.563h.876v2.688H5v-2.688h.89V0H5v-3.125H1.766V0H.89zm0 0"/></symbol></defs><g><path fill="#fff" d="M0 0h300v300H0z"/><path d="M65.168 164.273l15.836 10.16M81.004 174.434l16.72-8.637M97.723 165.797l.88-18.797M102.234 164.125l.704-15.035M113.56 175.957l-15.837-10.16M98.602 147l8.36-4.316" stroke-width="1.2" stroke="#000" stroke-miterlimit="10" fill="none"/><path d="M106.96 142.684l8.36-4.317" stroke-width="1.2" stroke="#00f" stroke-miterlimit="10" fill="none"/><path d="M98.602 147l-7.918-5.078" stroke-width="1.2" stroke="#000" stroke-miterlimit="10" fill="none"/><path d="M90.684 141.922l-7.918-5.078" stroke-width="1.2" stroke="#f00" stroke-miterlimit="10" fill="none"/><path d="M115.32 138.367l2.383-9.1" stroke-width="1.2" stroke="#00f" stroke-miterlimit="10" fill="none"/><path d="M117.703 129.266l2.383-9.102M131.156 148.523l-7.918-5.078" stroke-width="1.2" stroke="#000" stroke-miterlimit="10" fill="none"/><path d="M123.238 143.445l-7.918-5.078" stroke-width="1.2" stroke="#00f" stroke-miterlimit="10" fill="none"/><path d="M112.32 132.867h7v11h-7zm0 0" fill="#fff"/><use xlink:href="#a" x="112.32" y="141.53" fill="#00f"/><path d="M121.957 118.98l-5.027-7.953" stroke-width="1.2" stroke="#000" stroke-miterlimit="10" fill="none"/><path d="M116.93 111.027l-5.032-7.95" stroke-width="1.2" stroke="#f00" stroke-miterlimit="10" fill="none"/><path d="M118.215 121.348l-5.028-7.953" stroke-width="1.2" stroke="#000" stroke-miterlimit="10" fill="none"/><path d="M113.188 113.395l-5.032-7.95" stroke-width="1.2" stroke="#f00" stroke-miterlimit="10" fill="none"/><path d="M120.086 120.164l9.394-.547" stroke-width="1.2" stroke="#000" stroke-miterlimit="10" fill="none"/><path d="M129.48 119.617l9.39-.543" stroke-width="1.2" stroke="#f00" stroke-miterlimit="10" fill="none"/><path d="M102.027 98.762h8v11h-8zm0 0" fill="#fff"/><use xlink:href="#b" x="102.027" y="107.425" fill="#f00"/><path d="M138.87 119.074l3.423 8.762" stroke-width="1.2" stroke="#f00" stroke-miterlimit="10" fill="none"/><path d="M142.293 127.836l3.422 8.766" stroke-width="1.2" stroke="#000" stroke-miterlimit="10" fill="none"/><path d="M134.87 113.574h8v11h-8zm0 0" fill="#fff"/><use xlink:href="#b" x="134.871" y="122.237" fill="#f00"/><path d="M145.715 136.602l9.1 2.382" stroke-width="1.2" stroke="#000" stroke-miterlimit="10" fill="none"/><path d="M154.816 138.984l9.102 2.387" stroke-width="1.2" stroke="#00f" stroke-miterlimit="10" fill="none"/><path d="M146.41 141.363l7.28 1.907" stroke-width="1.2" stroke="#000" stroke-miterlimit="10" fill="none"/><path d="M153.69 143.27l7.283 1.906" stroke-width="1.2" stroke="#00f" stroke-miterlimit="10" fill="none"/><path d="M145.715 136.602l-14.56 11.92" stroke-width="1.2" stroke="#000" stroke-miterlimit="10" fill="none"/><path d="M163.918 141.37l6.613-6.69" stroke-width="1.2" stroke="#00f" stroke-miterlimit="10" fill="none"/><path d="M170.53 134.68l6.618-6.688" stroke-width="1.2" stroke="#000" stroke-miterlimit="10" fill="none"/><path d="M160.918 135.87h7v11h-7zm0 0" fill="#fff"/><use xlink:href="#a" x="160.918" y="144.534" fill="#00f"/><path d="M177.148 127.992l18.2 4.766M195.348 132.758l13.23-13.38M208.578 119.38l-3.047-18.567M212.645 116.805l-2.438-14.856M227.18 122.22l-18.602-2.84M205.53 100.813l8.36-4.32" stroke-width="1.2" stroke="#000" stroke-miterlimit="10" fill="none"/><path d="M213.89 96.492l8.36-4.316M222.25 92.176l6.688 6.613" stroke-width="1.2" stroke="#00f" stroke-miterlimit="10" fill="none"/><path d="M228.938 98.79l6.69 6.616" stroke-width="1.2" stroke="#000" stroke-miterlimit="10" fill="none"/><path d="M215.25 86.676h14v11h-14zm0 0" fill="#fff"/><g fill="#00f"><use xlink:href="#a" x="215.25" y="95.339"/><use xlink:href="#c" x="222.228" y="95.339"/></g><path d="M235.63 105.406l18.784-1.09M237.766 109.715l15.027-.87M227.18 122.22l8.45-16.814M254.414 104.316l10.336 15.723M264.75 120.04l-8.45 16.812M259.95 119.73l-6.76 13.454M256.3 136.852l-18.784 1.09M237.516 137.94l-10.336-15.72M240.184 133.938l-8.27-12.58M131.156 148.523l-.88 18.797" stroke-width="1.2" stroke="#000" stroke-miterlimit="10" fill="none"/><path d="M131.156 148.523l15.324 11.418 2.98-5.932zm0 0"/><path d="M130.277 167.32m-2.863.895l.477.926m-3.34-.035l.958 1.856m-3.824-.96l1.437 2.777m-4.3-1.886l1.914 3.708m-4.777-2.813l2.395 4.633m-5.258-3.742l2.87 5.558m-3.93-5.226l3.052 5.898" stroke="#000" stroke-miterlimit="10" fill="none"/><path d="M146.117 177.48l-15.84-10.16M113.56 175.957l-.88 18.797M117.895 178.043l-.704 15.04M112.68 194.754l15.84 10.16" stroke-width="1.2" stroke="#000" stroke-miterlimit="10" fill="none"/><path d="M145.234 196.277m-2.863.89l.482.927m-3.344-.03l.957 1.85m-3.82-.96l1.433 2.78m-4.297-1.886l1.915 3.707m-4.78-2.813l2.394 4.63m-5.26-3.74l2.872 5.56m-3.926-5.23l3.047 5.9" stroke="#000" stroke-miterlimit="10" fill="none"/><path d="M145.234 196.277l.883-18.797M162.84 202.922l-17.606-6.645" stroke-width="1.2" stroke="#000" stroke-miterlimit="10" fill="none"/><path d="M146.117 177.48m2.985-.277l-.274-1.008m3.262.73l-.55-2.01m3.538 1.733l-.828-3.02m3.813 2.743l-1.102-4.022m4.09 3.742l-1.378-5.028m4.367 4.75l-1.653-6.03m2.754 5.93l-1.753-6.407" stroke="#000" stroke-miterlimit="10" fill="none"/><path d="M166.082 173.77l5.356-7.74" stroke-width="1.2" stroke="#000" stroke-miterlimit="10" fill="none"/><path d="M171.438 166.03l5.35-7.733" stroke-width="1.2" stroke="#f00" stroke-miterlimit="10" fill="none"/><path d="M162.44 171.25l5.357-7.738" stroke-width="1.2" stroke="#000" stroke-miterlimit="10" fill="none"/><path d="M167.797 163.512l5.35-7.735" stroke-width="1.2" stroke="#f00" stroke-miterlimit="10" fill="none"/><path d="M164.262 172.508l5.168 7.863" stroke-width="1.2" stroke="#000" stroke-miterlimit="10" fill="none"/><path d="M169.43 180.37l5.172 7.86" stroke-width="1.2" stroke="#00f" stroke-miterlimit="10" fill="none"/><path d="M170.97 151.535h8v11h-8zm0 0" fill="#fff"/><use xlink:href="#b" x="170.969" y="160.198" fill="#f00"/><path d="M174.602 188.23l-5.883 7.348" stroke-width="1.2" stroke="#00f" stroke-miterlimit="10" fill="none"/><path d="M168.72 195.578l-5.88 7.344" stroke-width="1.2" stroke="#000" stroke-miterlimit="10" fill="none"/><path d="M174.602 188.23l9.394.442" stroke-width="1.2" stroke="#00f" stroke-miterlimit="10" fill="none"/><path d="M183.996 188.672l9.4.44" stroke-width="1.2" stroke="#000" stroke-miterlimit="10" fill="none"/><path d="M171.602 182.73h7v11h-7zm0 0" fill="#fff"/><use xlink:href="#a" x="171.602" y="191.394" fill="#00f"/><path d="M160.707 203.508l2.484 9.07" stroke-width="1.2" stroke="#000" stroke-miterlimit="10" fill="none"/><path d="M163.19 212.578l2.486 9.074" stroke-width="1.2" stroke="#f00" stroke-miterlimit="10" fill="none"/><path d="M164.977 202.336l2.484 9.074" stroke-width="1.2" stroke="#000" stroke-miterlimit="10" fill="none"/><path d="M167.46 211.41l2.485 9.074" stroke-width="1.2" stroke="#f00" stroke-miterlimit="10" fill="none"/><path d="M163.813 215.57h8v11h-8zm0 0" fill="#fff"/><use xlink:href="#b" x="163.813" y="224.233" fill="#f00"/><path d="M147.97 156.973l15.725-10.336M163.695 146.637l16.813 8.45M167.363 143.527l13.45 6.758M162.602 127.852l1.093 18.785M180.508 155.086l15.722-10.336M196.23 144.75l-1.09-18.785M191.7 143.13l-.872-15.032M195.14 125.965l-16.812-8.45M178.328 117.516l-15.726 10.336M179.188 122.25l-12.58 8.27" stroke-width="1.2" stroke="#000" stroke-miterlimit="10" fill="none"/><path d="M82.766 136.844l.437-9.4" stroke-width="1.2" stroke="#f00" stroke-miterlimit="10" fill="none"/><path d="M83.203 127.445l.442-9.398" stroke-width="1.2" stroke="#000" stroke-miterlimit="10" fill="none"/><path d="M78.766 131.344h8v11h-8zm0 0" fill="#fff"/><use xlink:href="#b" x="78.766" y="140.007" fill="#f00"/><path d="M84.89 119.875l7.77-5.305" stroke-width="1.2" stroke="#000" stroke-miterlimit="10" fill="none"/><path d="M92.66 114.57l7.77-5.304" stroke-width="1.2" stroke="#f00" stroke-miterlimit="10" fill="none"/><path d="M82.395 116.22l7.77-5.306" stroke-width="1.2" stroke="#000" stroke-miterlimit="10" fill="none"/><path d="M90.164 110.914l7.77-5.305" stroke-width="1.2" stroke="#f00" stroke-miterlimit="10" fill="none"/><path d="M83.645 118.047l-7.922-5.082" stroke-width="1.2" stroke="#000" stroke-miterlimit="10" fill="none"/><path d="M75.723 112.965l-7.918-5.078" stroke-width="1.2" stroke="#00f" stroke-miterlimit="10" fill="none"/><path d="M95.184 101.938h8v11h-8zm0 0" fill="#fff"/><use xlink:href="#b" x="95.184" y="110.601" fill="#f00"/><path d="M67.805 107.887l.44-9.4" stroke-width="1.2" stroke="#00f" stroke-miterlimit="10" fill="none"/><path d="M68.246 98.488l.438-9.398" stroke-width="1.2" stroke="#000" stroke-miterlimit="10" fill="none"/><path d="M67.805 107.887l-8.36 4.316" stroke-width="1.2" stroke="#00f" stroke-miterlimit="10" fill="none"/><path d="M59.445 112.203l-8.355 4.32" stroke-width="1.2" stroke="#000" stroke-miterlimit="10" fill="none"/><path d="M64.805 102.387h7v11h-7zm0 0" fill="#fff"/><use xlink:href="#a" x="64.805" y="111.05" fill="#00f"/><path d="M68.684 89.09L52.848 78.93M51.09 116.523l-15.84-10.16" stroke-width="1.2" stroke="#000" stroke-miterlimit="10" fill="none"/></g></svg>