<svg xmlns="http://www.w3.org/2000/svg" xmlns:xlink="http://www.w3.org/1999/xlink" width="300pt" height="300pt" viewBox="0 0 300 300"><defs><symbol overflow="visible"><path d="M.453 1.594v-7.938h4.5v7.938zm.5-.5h3.5v-6.938h-3.5zm0 0"/></symbol><symbol overflow="visible" id="a"><path d="M3.547-5.953c-.65 0-1.164.242-1.547.72-.375.48-.563 1.13-.563 1.952 0 .835.188 1.49.563 1.967.383.48.898.72 1.547.72.644 0 1.156-.24 1.53-.72.376-.476.564-1.132.564-1.968 0-.822-.187-1.474-.562-1.954-.375-.477-.887-.72-1.53-.72zm0-.734c.914 0 1.648.312 2.203.937.55.617.828 1.438.828 2.47 0 1.042-.277 1.87-.828 2.483-.555.617-1.29.922-2.203.922-.93 0-1.668-.305-2.22-.922C.774-1.41.5-2.237.5-3.28c0-1.033.273-1.853.828-2.47.55-.625 1.29-.938 2.22-.938zm0 0"/></symbol><symbol overflow="visible" id="b"><path d="M.89-6.563H2.08l2.906 5.485v-5.484h.86V0H4.656L1.75-5.484V0H.89zm0 0"/></symbol></defs><g><path fill="#fff" d="M0 0h300v300H0z"/><path d="M35.25 147.902l8.332 2.778" stroke-width="1.2" stroke="#000" stroke-miterlimit="10" fill="none"/><path d="M43.582 150.68l8.332 2.773M51.914 153.453l1.762 8.602" stroke-width="1.2" stroke="#f00" stroke-miterlimit="10" fill="none"/><path d="M53.676 162.055l1.765 8.6" stroke-width="1.2" stroke="#000" stroke-miterlimit="10" fill="none"/><path d="M47.914 147.953h8v11h-8zm0 0" fill="#fff"/><use xlink:href="#a" x="47.914" y="156.616" fill="#f00"/><path d="M54.07 169.11l-6.57 5.827" stroke-width="1.2" stroke="#000" stroke-miterlimit="10" fill="none"/><path d="M47.5 174.938l-6.566 5.828" stroke-width="1.2" stroke="#f00" stroke-miterlimit="10" fill="none"/><path d="M56.813 172.203l-6.57 5.828" stroke-width="1.2" stroke="#000" stroke-miterlimit="10" fill="none"/><path d="M50.242 178.03l-6.566 5.83" stroke-width="1.2" stroke="#f00" stroke-miterlimit="10" fill="none"/><path d="M55.44 170.656l16.662 5.547" stroke-width="1.2" stroke="#000" stroke-miterlimit="10" fill="none"/><path d="M34.305 176.813h8v11h-8zm0 0" fill="#fff"/><use xlink:href="#a" x="34.305" y="185.476" fill="#f00"/><path d="M72.102 176.203l13.136-11.656M76.16 178.13l10.508-9.325M75.63 193.406L72.1 176.203M85.238 164.547l16.664 5.547M101.902 170.094l3.528 17.203M98.207 172.645l2.82 13.76M101.902 170.094l13.137-11.656M105.43 187.297l-13.137 11.66M92.293 198.957l-16.664-5.55M91.934 194.48l-13.332-4.437M115.04 158.438l17.526 1.046M116.082 140.906l-1.043 17.53M127.504 169.703l-12.465-11.266M132.566 159.484l1.047-17.53M133.613 141.953l-17.53-1.047M133.613 141.953l7.028 16.094M146.75 130.297l-13.137 11.656M140.64 158.047l-13.136 11.656" stroke-width="1.2" stroke="#000" stroke-miterlimit="10" fill="none"/><path d="M140.64 158.047m2.993.23l-.102-1.035m3.09 1.27l-.198-2.078m3.19 2.308l-.303-3.113m3.295 3.343l-.406-4.153m3.398 4.383l-.508-5.187m3.332 5.406l-.606-6.168" stroke="#000" stroke-miterlimit="10" fill="none"/><path d="M127.504 169.703l1.71 17.48M129.215 187.184l-14.28 10.218M130.19 191.566l-11.424 8.176M145.207 194.44l-15.992-7.256M114.934 197.402l1.707 17.48M116.64 214.883l15.993 7.258M119.95 211.844l12.792 5.808M132.633 222.14l14.28-10.218M146.914 211.922l-1.707-17.48M142.633 210.574l-1.367-13.984M158.12 156.34l1.888-8.578" stroke-width="1.2" stroke="#000" stroke-miterlimit="10" fill="none"/><path d="M160.008 147.762l1.887-8.575M161.895 139.188l-7.57-4.446" stroke-width="1.2" stroke="#00f" stroke-miterlimit="10" fill="none"/><path d="M154.324 134.742l-7.574-4.445" stroke-width="1.2" stroke="#000" stroke-miterlimit="10" fill="none"/><path d="M161.895 139.188l8.046-3.516" stroke-width="1.2" stroke="#00f" stroke-miterlimit="10" fill="none"/><path d="M169.94 135.672l8.048-3.512" stroke-width="1.2" stroke="#000" stroke-miterlimit="10" fill="none"/><path d="M158.895 133.688h7v11h-7zm0 0" fill="#fff"/><use xlink:href="#b" x="158.895" y="142.351" fill="#00f"/><path d="M146.75 130.297l1.375-17.78-6.168.6zm0 0"/><path d="M145.04 112.816l14.284-10.218M144.063 108.434l11.425-8.176M129.047 105.56l15.992 7.256M159.324 102.598l-1.71-17.48M157.613 85.117L141.62 77.86M154.305 88.156l-12.793-5.808M141.62 77.86l-14.28 10.218M127.34 88.078l1.707 17.48M131.62 89.426l1.368 13.984M177.988 132.16l14.133 10.426M192.12 142.586l-1.96 17.45M196.03 144.793l-1.565 13.96M208.22 135.56l-16.1 7.026M190.16 160.035l14.133 10.426M204.293 170.46l16.098-7.026M204.25 165.973l12.875-5.62M220.39 163.434l1.962-17.45M220.39 163.434l14.133 10.425M222.352 145.984L208.22 135.56M218.484 148.266l-11.304-8.34M234.523 173.86l-1.964 17.452M238.434 176.066l-1.57 13.96M250.617 166.832l-16.094 7.027M232.56 191.313l14.13 10.425M246.69 201.738l16.1-7.027M246.648 197.246l12.875-5.62M262.79 194.71l1.96-17.452M264.75 177.258l-14.133-10.426M260.883 179.54l-11.305-8.34" stroke-width="1.2" stroke="#000" stroke-miterlimit="10" fill="none"/></g></svg>