<svg xmlns="http://www.w3.org/2000/svg" xmlns:xlink="http://www.w3.org/1999/xlink" width="300pt" height="300pt" viewBox="0 0 300 300"><defs><symbol overflow="visible"><path d="M.453 1.594v-7.938h4.5v7.938zm.5-.5h3.5v-6.938h-3.5zm0 0"/></symbol><symbol overflow="visible" id="a"><path d="M.89-6.563H2.08l2.906 5.485v-5.484h.86V0H4.656L1.75-5.484V0H.89zm0 0"/></symbol><symbol overflow="visible" id="b"><path d="M3.547-5.953c-.65 0-1.164.242-1.547.72-.375.48-.563 1.13-.563 1.952 0 .835.188 1.49.563 1.967.383.48.898.72 1.547.72.644 0 1.156-.24 1.53-.72.376-.476.564-1.132.564-1.968 0-.822-.187-1.474-.562-1.954-.375-.477-.887-.72-1.53-.72zm0-.734c.914 0 1.648.312 2.203.937.55.617.828 1.438.828 2.47 0 1.042-.277 1.87-.828 2.483-.555.617-1.29.922-2.203.922-.93 0-1.668-.305-2.22-.922C.774-1.41.5-2.237.5-3.28c0-1.033.273-1.853.828-2.47.55-.625 1.29-.938 2.22-.938zm0 0"/></symbol><symbol overflow="visible" id="c"><path d="M.89-6.563h.876v2.688H5v-2.688h.89V0H5v-3.125H1.766V0H.89zm0 0"/></symbol></defs><g><path fill="#fff" d="M0 0h300v300H0z"/><path d="M35.25 186.535l5.148-7.453" stroke-width="1.2" stroke="#000" stroke-miterlimit="10" fill="none"/><path d="M40.398 179.082l5.145-7.453M45.543 171.63l-3.88-8.185" stroke-width="1.2" stroke="#00f" stroke-miterlimit="10" fill="none"/><path d="M41.664 163.445l-3.883-8.187" stroke-width="1.2" stroke="#000" stroke-miterlimit="10" fill="none"/><path d="M45.543 171.63l9.03.73" stroke-width="1.2" stroke="#00f" stroke-miterlimit="10" fill="none"/><path d="M54.574 172.36l9.028.73" stroke-width="1.2" stroke="#000" stroke-miterlimit="10" fill="none"/><path d="M42.543 166.13h7v11h-7zm0 0" fill="#fff"/><use xlink:href="#a" x="42.543" y="174.792" fill="#00f"/><path d="M63.602 173.09l10.293-14.906M73.895 158.184l18.054 1.46M91.95 159.645l10.296-14.903M102.246 144.742l-7.762-16.37M105.32 141.277l-6.207-13.093M120.3 146.203l-18.054-1.46M94.484 128.37l10.293-14.905M94.484 128.37l-9.027-.73" stroke-width="1.2" stroke="#000" stroke-miterlimit="10" fill="none"/><path d="M85.457 127.64l-9.027-.73" stroke-width="1.2" stroke="#f00" stroke-miterlimit="10" fill="none"/><path d="M104.777 113.465l18.06 1.465M106.238 117.86l14.446 1.17M122.836 114.93l7.762 16.367M130.598 131.297L120.3 146.203M126.06 130.367l-8.236 11.922M130.598 131.297l18.054 1.46M150.406 133.97l5.15-7.45" stroke-width="1.2" stroke="#000" stroke-miterlimit="10" fill="none"/><path d="M155.555 126.52l5.144-7.454" stroke-width="1.2" stroke="#f00" stroke-miterlimit="10" fill="none"/><path d="M146.898 131.547l5.15-7.453" stroke-width="1.2" stroke="#000" stroke-miterlimit="10" fill="none"/><path d="M152.047 124.094l5.144-7.453" stroke-width="1.2" stroke="#f00" stroke-miterlimit="10" fill="none"/><path d="M148.652 132.758l3.88 8.187" stroke-width="1.2" stroke="#000" stroke-miterlimit="10" fill="none"/><path d="M152.53 140.945l3.884 8.184" stroke-width="1.2" stroke="#00f" stroke-miterlimit="10" fill="none"/><path d="M154.945 112.355h8v11h-8zm0 0" fill="#fff"/><use xlink:href="#b" x="154.945" y="121.019" fill="#f00"/><path d="M156.414 149.13l9.027.73" stroke-width="1.2" stroke="#00f" stroke-miterlimit="10" fill="none"/><path d="M165.44 149.86l9.03.73" stroke-width="1.2" stroke="#000" stroke-miterlimit="10" fill="none"/><path d="M149.414 143.63h14v11h-14zm0 0" fill="#fff"/><g fill="#00f"><use xlink:href="#a" x="149.414" y="152.292"/><use xlink:href="#c" x="156.392" y="152.292"/></g><path d="M174.47 150.59l7.76 16.367M179.098 150.402l6.207 13.094M184.766 135.684L174.47 150.59M182.23 166.957l18.06 1.465M200.29 168.422l10.292-14.906M197.81 164.508l8.237-11.926M210.582 153.516l-7.762-16.37M210.582 153.516l18.055 1.46M202.82 137.145l-18.054-1.46M200.672 141.25l-14.445-1.172M228.637 154.977l7.76 16.367M233.266 154.79l6.21 13.093M238.934 140.07l-10.297 14.907M236.398 171.344l18.06 1.465M254.457 172.81l5.145-7.455" stroke-width="1.2" stroke="#000" stroke-miterlimit="10" fill="none"/><path d="M259.602 165.355l5.148-7.453" stroke-width="1.2" stroke="#00f" stroke-miterlimit="10" fill="none"/><path d="M251.977 168.895l4.117-5.96" stroke-width="1.2" stroke="#000" stroke-miterlimit="10" fill="none"/><path d="M256.094 162.934l4.12-5.965M264.75 157.902l-3.88-8.183" stroke-width="1.2" stroke="#00f" stroke-miterlimit="10" fill="none"/><path d="M260.87 149.72l-3.882-8.185" stroke-width="1.2" stroke="#000" stroke-miterlimit="10" fill="none"/><path d="M261.75 152.402h7v11h-7zm0 0" fill="#fff"/><use xlink:href="#a" x="261.75" y="161.065" fill="#00f"/><path d="M256.988 141.535l-18.054-1.465M254.84 145.637l-14.445-1.172" stroke-width="1.2" stroke="#000" stroke-miterlimit="10" fill="none"/><path d="M61.43 121.41h15v11h-15zm0 0" fill="#fff"/><g fill="#f00"><use xlink:href="#c" x="61.43" y="130.073"/><use xlink:href="#b" x="68.444" y="130.073"/></g></g></svg>