<svg xmlns="http://www.w3.org/2000/svg" xmlns:xlink="http://www.w3.org/1999/xlink" width="300pt" height="300pt" viewBox="0 0 300 300"><defs><symbol overflow="visible"><path d="M.453 1.594v-7.938h4.5v7.938zm.5-.5h3.5v-6.938h-3.5zm0 0"/></symbol><symbol overflow="visible" id="a"><path d="M.89-6.563H2.08l2.906 5.485v-5.484h.86V0H4.656L1.75-5.484V0H.89zm0 0"/></symbol><symbol overflow="visible" id="b"><path d="M3.547-5.953c-.65 0-1.164.242-1.547.72-.375.48-.563 1.13-.563 1.952 0 .835.188 1.49.563 1.967.383.48.898.72 1.547.72.644 0 1.156-.24 1.53-.72.376-.476.564-1.132.564-1.968 0-.822-.187-1.474-.562-1.954-.375-.477-.887-.72-1.53-.72zm0-.734c.914 0 1.648.312 2.203.937.55.617.828 1.438.828 2.47 0 1.042-.277 1.87-.828 2.483-.555.617-1.29.922-2.203.922-.93 0-1.668-.305-2.22-.922C.774-1.41.5-2.237.5-3.28c0-1.033.273-1.853.828-2.47.55-.625 1.29-.938 2.22-.938zm0 0"/></symbol><symbol overflow="visible" id="c"><path d="M.89-6.563h.876v2.688H5v-2.688h.89V0H5v-3.125H1.766V0H.89zm0 0"/></symbol></defs><g><path fill="#fff" d="M0 0h300v300H0z"/><path d="M249.566 123.36l-14.152 16.937M235.414 140.297l-21.746-3.79M232.348 145.03L214.953 142M243.004 161.02l-7.59-20.723M213.668 136.508l-14.152 16.937M199.516 153.445l7.59 20.723M195.398 157.3l6.075 16.583" stroke-width="1.2" stroke="#000" stroke-miterlimit="10" fill="none"/><path d="M178.578 146.457l10.47 3.492" stroke-width="1.2" stroke="#00f" stroke-miterlimit="10" fill="none"/><path d="M189.047 149.95l10.47 3.495M207.105 174.168l-11.468 18.86M207.105 174.168l10.875 1.894" stroke-width="1.2" stroke="#000" stroke-miterlimit="10" fill="none"/><path d="M217.98 176.063l10.872 1.894" stroke-width="1.2" stroke="#00f" stroke-miterlimit="10" fill="none"/><path d="M195.637 193.027l-21.895 2.79M173.742 195.816l-15.832-15.38M157.91 180.438l2.153-21.97M160.063 158.47l9.257-6.01" stroke-width="1.2" stroke="#000" stroke-miterlimit="10" fill="none"/><path d="M169.32 152.46l9.258-6.003M178.578 146.457l-1.394-10.95" stroke-width="1.2" stroke="#00f" stroke-miterlimit="10" fill="none"/><path d="M177.184 135.508l-1.395-10.946" stroke-width="1.2" stroke="#000" stroke-miterlimit="10" fill="none"/><path d="M175.578 140.957h7v11h-7zm0 0" fill="#fff"/><use xlink:href="#a" x="175.578" y="149.62" fill="#00f"/><path d="M155.434 116.027l18.85 12.125 3.013-7.183zm0 0"/><path d="M155.434 116.027l-2.79-21.894M155.434 116.027l-8.786 6.684" stroke-width="1.2" stroke="#000" stroke-miterlimit="10" fill="none"/><path d="M146.648 122.71l-8.78 6.68M137.867 129.39l-10.18-4.265" stroke-width="1.2" stroke="#f00" stroke-miterlimit="10" fill="none"/><path d="M127.688 125.125l-10.18-4.266" stroke-width="1.2" stroke="#00f" stroke-miterlimit="10" fill="none"/><path d="M133.867 123.89h8v11h-8zm0 0" fill="#fff"/><use xlink:href="#b" x="133.867" y="132.554" fill="#f00"/><path d="M117.508 120.86l-8.78 6.68" stroke-width="1.2" stroke="#00f" stroke-miterlimit="10" fill="none"/><path d="M108.727 127.54l-8.786 6.683" stroke-width="1.2" stroke="#000" stroke-miterlimit="10" fill="none"/><path d="M112.61 118.063l-7.028 5.343" stroke-width="1.2" stroke="#00f" stroke-miterlimit="10" fill="none"/><path d="M105.582 123.406l-7.027 5.348" stroke-width="1.2" stroke="#000" stroke-miterlimit="10" fill="none"/><path d="M114.508 115.36h7v11h-7zm0 0" fill="#fff"/><use xlink:href="#a" x="114.508" y="124.022" fill="#00f"/><path d="M99.94 134.223l2.79 21.894M99.94 134.223l-20.354-8.536M102.73 156.117L85.164 169.48" stroke-width="1.2" stroke="#000" stroke-miterlimit="10" fill="none"/><path d="M102.73 156.117m2.524 1.62l.402-.96m2.12 2.586l.806-1.922m1.72 3.544l1.21-2.882m1.312 4.507l1.614-3.848m.91 5.468l2.015-4.808m.508 6.433l2.42-5.77m.105 7.392l2.82-6.73m-1.633 7.495l3.012-7.183" stroke="#000" stroke-miterlimit="10" fill="none"/><path d="M85.164 169.48l-10.18-4.265" stroke-width="1.2" stroke="#000" stroke-miterlimit="10" fill="none"/><path d="M74.984 165.215L64.81 160.95" stroke-width="1.2" stroke="#f00" stroke-miterlimit="10" fill="none"/><path d="M85.164 169.48m-.144 2.997l1.035-.133m-1.18 3.13l2.07-.263m-2.215 3.26l3.106-.396m-3.246 3.39l4.137-.526m-4.282 3.523l5.172-.655M84.3 187.46l6.208-.792m-6.352 3.79l7.242-.923m-7.308 2.332l7.726-.984" stroke="#000" stroke-miterlimit="10" fill="none"/><path d="M64.81 160.95L63.413 150" stroke-width="1.2" stroke="#f00" stroke-miterlimit="10" fill="none"/><path d="M63.414 150l-1.394-10.95" stroke-width="1.2" stroke="#000" stroke-miterlimit="10" fill="none"/><path d="M60.81 155.45h8v11h-8zm0 0" fill="#fff"/><use xlink:href="#b" x="60.809" y="164.112" fill="#f00"/><path d="M62.02 139.05l17.566-13.363M60.633 133.582l14.05-10.69M41.66 130.52l20.36 8.53M79.586 125.688l-2.79-21.895M76.797 103.793l-20.356-8.53M72.754 107.73l-16.285-6.824M56.44 95.262l-17.565 13.363M56.44 95.262l-1.393-10.95" stroke-width="1.2" stroke="#000" stroke-miterlimit="10" fill="none"/><path d="M55.047 84.313l-1.395-10.946" stroke-width="1.2" stroke="#f00" stroke-miterlimit="10" fill="none"/><path d="M38.875 108.625l2.785 21.895M44.305 110.156l2.23 17.52" stroke-width="1.2" stroke="#000" stroke-miterlimit="10" fill="none"/><path d="M53.652 73.367l8.782-6.683" stroke-width="1.2" stroke="#f00" stroke-miterlimit="10" fill="none"/><path d="M62.434 66.684l8.785-6.68" stroke-width="1.2" stroke="#000" stroke-miterlimit="10" fill="none"/><path d="M49.652 67.867h8v11h-8zm0 0" fill="#fff"/><use xlink:href="#b" x="49.652" y="76.53" fill="#f00"/><path d="M87.953 191.375l-17.566 13.363M89.34 196.844l-14.055 10.69M108.31 199.906l-20.357-8.53M70.387 204.738l2.79 21.895M73.176 226.633l20.355 8.535M77.22 222.7l16.284 6.823M73.176 226.633l-8.785 6.683" stroke-width="1.2" stroke="#000" stroke-miterlimit="10" fill="none"/><path d="M64.39 233.316l-8.785 6.68" stroke-width="1.2" stroke="#f00" stroke-miterlimit="10" fill="none"/><path d="M93.53 235.168l17.568-13.363M111.098 221.805l-2.79-21.9M105.668 220.27l-2.23-17.516" stroke-width="1.2" stroke="#000" stroke-miterlimit="10" fill="none"/><path d="M55.605 239.996L45.43 235.73" stroke-width="1.2" stroke="#f00" stroke-miterlimit="10" fill="none"/><path d="M45.43 235.73l-10.18-4.265" stroke-width="1.2" stroke="#000" stroke-miterlimit="10" fill="none"/><path d="M51.605 234.496h8v11h-8zm0 0" fill="#fff"/><use xlink:href="#b" x="51.605" y="243.159" fill="#f00"/><path d="M116.086 159.148h15v11h-15zm0 0" fill="#fff"/><g fill="#f00"><use xlink:href="#b" x="116.086" y="167.812"/><use xlink:href="#c" x="123.428" y="167.812"/></g><path d="M228.852 177.957l7.078-8.47" stroke-width="1.2" stroke="#00f" stroke-miterlimit="10" fill="none"/><path d="M235.93 169.488l7.074-8.468" stroke-width="1.2" stroke="#000" stroke-miterlimit="10" fill="none"/><path d="M226.28 172.934l5.665-6.774" stroke-width="1.2" stroke="#00f" stroke-miterlimit="10" fill="none"/><path d="M231.945 166.16l5.66-6.777" stroke-width="1.2" stroke="#000" stroke-miterlimit="10" fill="none"/><path d="M225.852 172.457h7v11h-7zm0 0" fill="#fff"/><use xlink:href="#a" x="225.852" y="181.12" fill="#00f"/><path d="M243.004 161.02l21.746 3.79" stroke-width="1.2" stroke="#000" stroke-miterlimit="10" fill="none"/></g></svg>