<svg xmlns="http://www.w3.org/2000/svg" xmlns:xlink="http://www.w3.org/1999/xlink" width="300pt" height="300pt" viewBox="0 0 300 300"><defs><symbol overflow="visible"><path d="M.453 1.594v-7.938h4.5v7.938zm.5-.5h3.5v-6.938h-3.5zm0 0"/></symbol><symbol overflow="visible" id="a"><path d="M.89-6.563H2.08l2.906 5.485v-5.484h.86V0H4.656L1.75-5.484V0H.89zm0 0"/></symbol><symbol overflow="visible" id="b"><path d="M3.547-5.953c-.65 0-1.164.242-1.547.72-.375.48-.563 1.13-.563 1.952 0 .835.188 1.49.563 1.967.383.48.898.72 1.547.72.644 0 1.156-.24 1.53-.72.376-.476.564-1.132.564-1.968 0-.822-.187-1.474-.562-1.954-.375-.477-.887-.72-1.53-.72zm0-.734c.914 0 1.648.312 2.203.937.55.617.828 1.438.828 2.47 0 1.042-.277 1.87-.828 2.483-.555.617-1.29.922-2.203.922-.93 0-1.668-.305-2.22-.922C.774-1.41.5-2.237.5-3.28c0-1.033.273-1.853.828-2.47.55-.625 1.29-.938 2.22-.938zm0 0"/></symbol><symbol overflow="visible" id="c"><path d="M.89-6.563h.876v2.688H5v-2.688h.89V0H5v-3.125H1.766V0H.89zm0 0"/></symbol><symbol overflow="visible" id="d"><path d="M5.797-6.063v.938c-.305-.27-.625-.473-.97-.61-.335-.144-.686-.218-1.06-.218-.75 0-1.33.23-1.736.687-.397.46-.592 1.12-.592 1.985 0 .866.195 1.526.593 1.983.408.46.986.688 1.736.688.375 0 .726-.066 1.062-.203.344-.132.664-.343.97-.625V-.5c-.314.21-.642.367-.986.47-.343.1-.714.155-1.11.155-.99 0-1.772-.3-2.343-.906C.784-1.396.5-2.228.5-3.28c0-1.052.285-1.88.86-2.486.57-.613 1.35-.92 2.343-.92.395-.002.766.053 1.11.155.35.104.68.26.984.468zm0 0"/></symbol><symbol overflow="visible" id="e"><path d="M.844-6.844h.812V0H.844zm0 0"/></symbol></defs><g><path fill="#fff" d="M0 0h300v300H0z"/><path d="M218.805 212.46l3.84-9.308" stroke-width="1.2" stroke="#000" stroke-miterlimit="10" fill="none"/><path d="M222.645 203.152l3.835-9.304M226.48 193.848l9.786-2.368" stroke-width="1.2" stroke="#00f" stroke-miterlimit="10" fill="none"/><path d="M236.266 191.48l9.785-2.367M215.934 176.695l5.273 8.575" stroke-width="1.2" stroke="#000" stroke-miterlimit="10" fill="none"/><path d="M221.207 185.27l5.273 8.578" stroke-width="1.2" stroke="#00f" stroke-miterlimit="10" fill="none"/><path d="M223.48 188.348h7v11h-7zm0 0" fill="#fff"/><use xlink:href="#a" x="223.48" y="197.011" fill="#00f"/><path d="M246.05 189.113l1.548-20.074M247.598 169.04l-18.614-7.677" stroke-width="1.2" stroke="#000" stroke-miterlimit="10" fill="none"/><path d="M247.598 169.04l19.015-7.524-3.726-6.05zm0 0"/><path d="M228.984 161.363l-13.05 15.332" stroke-width="1.2" stroke="#000" stroke-miterlimit="10" fill="none"/><path d="M215.934 176.695m-2.907-.746l-.082 1.038m-2.824-1.785l-.16 2.078m-2.745-2.827l-.238 3.12m-2.668-3.866l-.322 4.16m-2.586-4.906l-.398 5.2m-2.504-5.945l-.48 6.238m-1.89-6.848l-.548 7.086" stroke="#000" stroke-miterlimit="10" fill="none"/><path d="M195.855 175.148l-8.7-18.16M187.156 156.988l-10.035-.773" stroke-width="1.2" stroke="#000" stroke-miterlimit="10" fill="none"/><path d="M177.12 156.215l-10.038-.774M167.082 155.44l-4.348-9.077" stroke-width="1.2" stroke="#f00" stroke-miterlimit="10" fill="none"/><path d="M162.734 146.363l-4.35-9.082" stroke-width="1.2" stroke="#000" stroke-miterlimit="10" fill="none"/><path d="M163.082 149.94h8v11h-8zm0 0" fill="#fff"/><use xlink:href="#b" x="163.082" y="158.604" fill="#f00"/><path d="M158.383 137.28l11.38-16.612M155.613 132.94l9.102-13.288M138.31 135.734l20.073 1.547M169.762 120.668l-8.7-18.16M161.063 102.508l-20.075-1.547M158.69 107.078l-16.057-1.238M140.988 100.96l-11.38 16.614M129.61 117.574l8.7 18.16M134.754 117.344l6.957 14.527M138.31 135.734l-11.38 16.614M126.93 152.348l-20.075-1.547M106.855 150.8l-11.378 16.614M95.477 167.414l-20.075-1.55M93.105 171.98l-16.058-1.238M104.176 185.57l-8.7-18.156M75.402 165.863l-11.38 16.614M64.023 182.477l8.7 18.16M69.168 182.246l6.957 14.527M64.023 182.477l-10.04-.774" stroke-width="1.2" stroke="#000" stroke-miterlimit="10" fill="none"/><path d="M53.984 181.703l-10.035-.773" stroke-width="1.2" stroke="#f00" stroke-miterlimit="10" fill="none"/><path d="M72.723 200.637l20.074 1.547M92.797 202.184l11.38-16.614M90.027 197.848l9.102-13.293" stroke-width="1.2" stroke="#000" stroke-miterlimit="10" fill="none"/><path d="M43.95 180.93l-4.352-9.078" stroke-width="1.2" stroke="#f00" stroke-miterlimit="10" fill="none"/><path d="M39.598 171.852l-4.348-9.082" stroke-width="1.2" stroke="#000" stroke-miterlimit="10" fill="none"/><path d="M39.95 175.43h8v11h-8zm0 0" fill="#fff"/><use xlink:href="#b" x="39.949" y="184.093" fill="#f00"/><path d="M257.75 152.988h15v11h-15zm0 0" fill="#fff"/><g fill="#f00"><use xlink:href="#b" x="257.75" y="161.651"/><use xlink:href="#c" x="265.092" y="161.651"/></g><path d="M142.555 82.04h17v11h-17zm0 0" fill="#fff"/><g fill="#0c0"><use xlink:href="#d" x="142.555" y="90.702"/><use xlink:href="#e" x="149.068" y="90.702"/><use xlink:href="#c" x="151.66" y="90.702"/></g></g></svg>