<svg xmlns="http://www.w3.org/2000/svg" xmlns:xlink="http://www.w3.org/1999/xlink" width="300pt" height="300pt" viewBox="0 0 300 300"><defs><symbol overflow="visible"><path d="M.547 1.938V-7.75h5.5v9.688zm.625-.61h4.266v-8.47H1.171zm0 0"/></symbol><symbol overflow="visible" id="a"><path d="M4.328-7.28c-.78 0-1.406.296-1.875.89-.46.585-.687 1.382-.687 2.39 0 1.012.226 1.813.687 2.406.47.586 1.094.875 1.875.875.79 0 1.414-.288 1.875-.874.457-.593.688-1.394.688-2.406 0-1.008-.23-1.805-.687-2.39-.46-.594-1.086-.89-1.875-.89zm0-.892c1.125 0 2.024.383 2.703 1.14C7.708-6.28 8.048-5.27 8.048-4c0 1.262-.34 2.273-1.016 3.03C6.353-.22 5.454.157 4.33.157S2.3-.22 1.625-.97c-.668-.75-1-1.757-1-3.03 0-1.27.332-2.28 1-3.03.676-.76 1.578-1.142 2.703-1.142zm0 0"/></symbol></defs><g><path fill="#fff" d="M0 0h300v300H0z"/><path d="M264.75 113.703l-21.418 14.27M243.332 127.973l1.652 25.683M237.453 130.93l1.32 20.547M220.266 116.56l23.066 11.413M244.984 153.656l-21.418 14.27M223.566 167.926L200.5 156.512M223.945 161.355l-18.453-9.128M200.5 156.512l-1.652-25.684M200.5 156.512l-21.418 14.27M198.848 130.828l21.418-14.27M204.348 134.44l17.136-11.413M179.082 170.78l-23.066-11.41M179.46 164.215l-18.452-9.133M156.016 159.37l-21.418 14.27M134.598 173.64l-1.043 25.715M128.445 175.965l-.836 20.57M110.465 164.7l24.133 8.94M133.555 199.355l-24.778 6.954M108.777 206.31l-14.27-21.42M108.777 206.31l-8.94 24.13M83.063 205.262l25.714 1.047M94.508 184.89l15.957-20.19M110.465 164.7l-25.594-3.973M110.465 164.7l-6.953-24.778M84.87 160.727l-13.76 21.746M84.87 160.727L72.92 137.934M71.11 182.473l11.953 22.79M80.504 203.645L73.62 214.52" stroke-width="1.2" stroke="#000" stroke-miterlimit="10" fill="none"/><path d="M73.62 214.52l-6.878 10.87" stroke-width="1.2" stroke="#f00" stroke-miterlimit="10" fill="none"/><path d="M85.62 206.883l-6.882 10.87" stroke-width="1.2" stroke="#000" stroke-miterlimit="10" fill="none"/><path d="M78.738 217.754l-6.88 10.875" stroke-width="1.2" stroke="#f00" stroke-miterlimit="10" fill="none"/><path d="M60.3 220.512h9v13h-9zm0 0" fill="#fff"/><use xlink:href="#a" x="60.301" y="230.413" fill="#f00"/><path d="M72.918 137.934l13.762-21.746M69.176 132.52l11.008-17.4M47.203 136.89l25.715 1.044M86.68 116.188L74.727 93.394M74.727 93.395l-25.715-1.043M71.91 99.34l-20.574-.836M49.012 92.352L35.25 114.098M49.012 92.352L37.06 69.56M35.25 114.098l11.953 22.793M41.81 113.566l9.56 18.23" stroke-width="1.2" stroke="#000" stroke-miterlimit="10" fill="none"/></g></svg>