<svg xmlns="http://www.w3.org/2000/svg" xmlns:xlink="http://www.w3.org/1999/xlink" width="300pt" height="300pt" viewBox="0 0 300 300"><defs><symbol overflow="visible"><path d="M.453 1.594v-7.938h4.5v7.938zm.5-.5h3.5v-6.938h-3.5zm0 0"/></symbol><symbol overflow="visible" id="a"><path d="M3.547-5.953c-.65 0-1.164.242-1.547.72-.375.48-.563 1.13-.563 1.952 0 .835.188 1.49.563 1.967.383.48.898.72 1.547.72.644 0 1.156-.24 1.53-.72.376-.476.564-1.132.564-1.968 0-.822-.187-1.474-.562-1.954-.375-.477-.887-.72-1.53-.72zm0-.734c.914 0 1.648.312 2.203.937.55.617.828 1.438.828 2.47 0 1.042-.277 1.87-.828 2.483-.555.617-1.29.922-2.203.922-.93 0-1.668-.305-2.22-.922C.774-1.41.5-2.237.5-3.28c0-1.033.273-1.853.828-2.47.55-.625 1.29-.938 2.22-.938zm0 0"/></symbol></defs><g><path fill="#fff" d="M0 0h300v300H0z"/><path d="M125.902 209.105l4.79-19.312M130.69 189.793l-12.81-15.23M110.844 191.203l19.847-1.41M149.133 182.313l-18.442 7.48M117.88 174.563l10.522-16.887M128.402 157.676l-20.007-.852M128.402 157.676l19.317 4.79M128.402 157.676l-7.476-18.442M108.395 156.824l-8.7 17.9M108.395 156.824l-11.15-16.48M99.695 174.723l11.15 16.48M108.738 190.18l-4.35 8.95" stroke-width="1.2" stroke="#000" stroke-miterlimit="10" fill="none"/><path d="M104.387 199.13l-4.352 8.948" stroke-width="1.2" stroke="#f00" stroke-miterlimit="10" fill="none"/><path d="M112.95 192.227l-4.352 8.95" stroke-width="1.2" stroke="#000" stroke-miterlimit="10" fill="none"/><path d="M108.598 201.176l-4.352 8.95" stroke-width="1.2" stroke="#f00" stroke-miterlimit="10" fill="none"/><path d="M94.14 203.602h8v11h-8zm0 0" fill="#fff"/><use xlink:href="#a" x="94.141" y="212.265" fill="#f00"/><path d="M97.246 140.344l-19.85 1.414M94.926 135.813l-15.88 1.132M77.395 141.758l-11.15-16.485M66.246 125.273l8.703-17.894M62.906 121.438l6.96-14.317M46.398 126.688l19.848-1.415M74.95 107.38L63.8 90.894M63.8 90.895L43.95 92.31M62.148 95.707l-15.878 1.13M43.95 92.31l-8.7 17.893M35.25 110.203l11.148 16.484M40.242 109.23l8.918 13.184M147.72 162.465l1.413 19.847M143.188 164.78l1.132 15.88M147.72 162.465l15.225-12.813M162.945 149.652l18.707 6.786M163.22 154.734l14.968 5.426M181.652 156.438l15.227-12.813M196.88 143.625l18.706 6.78M197.156 148.707l14.965 5.422M215.586 150.406l15.23-12.808M230.816 137.598l18.707 6.78M234.28 133.875l14.966 5.422M227.336 118.004l3.48 19.594M249.523 144.38l15.227-12.814M264.75 131.566l-3.48-19.59M259.793 130.43l-2.785-15.676M261.27 111.977l-18.707-6.782M242.563 105.195l-15.227 12.81M244.055 110.06l-12.184 10.245" stroke-width="1.2" stroke="#000" stroke-miterlimit="10" fill="none"/></g></svg>