<svg xmlns="http://www.w3.org/2000/svg" xmlns:xlink="http://www.w3.org/1999/xlink" width="300pt" height="300pt" viewBox="0 0 300 300"><defs><symbol overflow="visible"><path d="M.547 1.938V-7.75h5.5v9.688zm.625-.61h4.266v-8.47H1.171zm0 0"/></symbol><symbol overflow="visible" id="a"><path d="M4.328-7.28c-.78 0-1.406.296-1.875.89-.46.585-.687 1.382-.687 2.39 0 1.012.226 1.813.687 2.406.47.586 1.094.875 1.875.875.79 0 1.414-.288 1.875-.874.457-.593.688-1.394.688-2.406 0-1.008-.23-1.805-.687-2.39-.46-.594-1.086-.89-1.875-.89zm0-.892c1.125 0 2.024.383 2.703 1.14C7.708-6.28 8.048-5.27 8.048-4c0 1.262-.34 2.273-1.016 3.03C6.353-.22 5.454.157 4.33.157S2.3-.22 1.625-.97c-.668-.75-1-1.757-1-3.03 0-1.27.332-2.28 1-3.03.676-.76 1.578-1.142 2.703-1.142zm0 0"/></symbol></defs><g><path fill="#fff" d="M0 0h300v300H0z"/><path d="M51.414 103.902l5.3 25.207M54.69 126.852l-9.588 8.597" stroke-width="1.2" stroke="#000" stroke-miterlimit="10" fill="none"/><path d="M45.102 135.45l-9.59 8.597" stroke-width="1.2" stroke="#f00" stroke-miterlimit="10" fill="none"/><path d="M58.738 131.363l-9.59 8.598" stroke-width="1.2" stroke="#000" stroke-miterlimit="10" fill="none"/><path d="M49.148 139.96l-9.59 8.6" stroke-width="1.2" stroke="#f00" stroke-miterlimit="10" fill="none"/><path d="M56.715 129.11l12.238 4.003" stroke-width="1.2" stroke="#000" stroke-miterlimit="10" fill="none"/><path d="M68.953 133.113l12.242 4.008" stroke-width="1.2" stroke="#f00" stroke-miterlimit="10" fill="none"/><path d="M28.535 139.805h9v13h-9zm0 0" fill="#fff"/><use xlink:href="#a" x="28.535" y="149.706" fill="#f00"/><path d="M86.496 162.328m-.098-3l-1.02.215m.923-3.21l-2.038.43m1.94-3.43l-3.06.644m2.963-3.64l-4.082.854m3.985-3.854l-5.102 1.074m5.004-4.074l-6.125 1.29m6.028-4.286l-7.145 1.5m7.047-4.5l-8.164 1.72m8.095-3.876l-8.9 1.87" stroke="#000" stroke-miterlimit="10" fill="none"/><path d="M77.195 130.62h9v13h-9zm0 0" fill="#fff"/><use xlink:href="#a" x="77.195" y="140.522" fill="#f00"/><path d="M86.496 162.328l-.055 25.758M86.496 162.328l-25.62 2.637M111.012 154.422l-24.516 7.906M86.44 188.086l24.482 8.012M110.922 196.098l15.183-20.805M126.105 175.293l-15.093-20.87M151.73 172.652l-25.625 2.64M111.012 154.422l10.527-23.512" stroke-width="1.2" stroke="#000" stroke-miterlimit="10" fill="none"/><path d="M111.012 154.422l-8.024-24.9-8.04 4.255zm0 0"/><path d="M121.54 130.91l25.62-2.637M147.16 128.273l15.098 20.872M162.258 149.145l-10.528 23.507M187.88 146.508l-25.622 2.637M151.73 172.652l15.094 20.875M166.824 193.527l25.625-2.64M192.45 190.887l10.527-23.508M202.977 167.38l25.62-2.638M204.918 161.086l20.5-2.11M187.88 146.508l15.097 20.87M228.598 164.742l10.527-23.512M239.438 144.246l12.812-1.32" stroke-width="1.2" stroke="#000" stroke-miterlimit="10" fill="none"/><path d="M252.25 142.926l12.81-1.317" stroke-width="1.2" stroke="#f00" stroke-miterlimit="10" fill="none"/><path d="M238.816 138.22l12.813-1.322" stroke-width="1.2" stroke="#000" stroke-miterlimit="10" fill="none"/><path d="M251.63 136.898l12.81-1.32" stroke-width="1.2" stroke="#f00" stroke-miterlimit="10" fill="none"/><path d="M239.125 141.23l-15.094-20.87" stroke-width="1.2" stroke="#000" stroke-miterlimit="10" fill="none"/><path d="M260.75 132.094h9v13h-9zm0 0" fill="#fff"/><use xlink:href="#a" x="260.75" y="141.995" fill="#f00"/><path d="M224.03 120.36L198.407 123M198.406 123l-10.527 23.508M60.875 164.965l-25.625 2.637M57.69 159.2l-20.5 2.11M58.93 171.258l-20.496 2.11" stroke-width="1.2" stroke="#000" stroke-miterlimit="10" fill="none"/></g></svg>