<svg xmlns="http://www.w3.org/2000/svg" xmlns:xlink="http://www.w3.org/1999/xlink" width="300pt" height="300pt" viewBox="0 0 300 300"><defs><symbol overflow="visible"><path d="M.453 1.594v-7.938h4.5v7.938zm.5-.5h3.5v-6.938h-3.5zm0 0"/></symbol><symbol overflow="visible" id="a"><path d="M3.547-5.953c-.65 0-1.164.242-1.547.72-.375.48-.563 1.13-.563 1.952 0 .835.188 1.49.563 1.967.383.48.898.72 1.547.72.644 0 1.156-.24 1.53-.72.376-.476.564-1.132.564-1.968 0-.822-.187-1.474-.562-1.954-.375-.477-.887-.72-1.53-.72zm0-.734c.914 0 1.648.312 2.203.937.55.617.828 1.438.828 2.47 0 1.042-.277 1.87-.828 2.483-.555.617-1.29.922-2.203.922-.93 0-1.668-.305-2.22-.922C.774-1.41.5-2.237.5-3.28c0-1.033.273-1.853.828-2.47.55-.625 1.29-.938 2.22-.938zm0 0"/></symbol><symbol overflow="visible" id="b"><path d="M.89-6.563H2.08l2.906 5.485v-5.484h.86V0H4.656L1.75-5.484V0H.89zm0 0"/></symbol><symbol overflow="visible" id="c"><path d="M.89-6.563h.876v2.688H5v-2.688h.89V0H5v-3.125H1.766V0H.89zm0 0"/></symbol></defs><g><path fill="#fff" d="M0 0h300v300H0z"/><path d="M264.75 97.152l-10.746 17.813M254.004 114.965l-20.8-.395M233.203 114.57l-10.746 17.813M222.457 132.383l-20.8-.4M201.656 131.984l-10.054-18.21M201.656 131.984l-5.37 8.91" stroke-width="1.2" stroke="#000" stroke-miterlimit="10" fill="none"/><path d="M196.285 140.895l-5.37 8.906" stroke-width="1.2" stroke="#00f" stroke-miterlimit="10" fill="none"/><path d="M193.7 115.035l5.37-8.906" stroke-width="1.2" stroke="#000" stroke-miterlimit="10" fill="none"/><path d="M199.07 106.13l5.37-8.907" stroke-width="1.2" stroke="#f00" stroke-miterlimit="10" fill="none"/><path d="M189.508 112.508l5.37-8.906" stroke-width="1.2" stroke="#000" stroke-miterlimit="10" fill="none"/><path d="M194.88 103.602l5.37-8.907" stroke-width="1.2" stroke="#f00" stroke-miterlimit="10" fill="none"/><path d="M198.348 90.457h8v11h-8zm0 0" fill="#fff"/><use xlink:href="#a" x="198.348" y="99.12" fill="#f00"/><path d="M190.914 149.8l-10.402-.198" stroke-width="1.2" stroke="#00f" stroke-miterlimit="10" fill="none"/><path d="M180.512 149.602l-10.4-.2" stroke-width="1.2" stroke="#000" stroke-miterlimit="10" fill="none"/><path d="M183.914 144.3h14v11h-14zm0 0" fill="#fff"/><g fill="#00f"><use xlink:href="#b" x="183.914" y="152.964"/><use xlink:href="#c" x="190.892" y="152.964"/></g><path d="M172.254 148.22l-5.027-9.107" stroke-width="1.2" stroke="#000" stroke-miterlimit="10" fill="none"/><path d="M167.227 139.113l-5.028-9.105" stroke-width="1.2" stroke="#f00" stroke-miterlimit="10" fill="none"/><path d="M167.97 150.586l-5.03-9.106" stroke-width="1.2" stroke="#000" stroke-miterlimit="10" fill="none"/><path d="M162.94 141.48l-5.026-9.11" stroke-width="1.2" stroke="#f00" stroke-miterlimit="10" fill="none"/><path d="M170.113 149.402l-10.746 17.817" stroke-width="1.2" stroke="#000" stroke-miterlimit="10" fill="none"/><path d="M152.055 125.69h8v11h-8zm0 0" fill="#fff"/><use xlink:href="#a" x="152.055" y="134.354" fill="#f00"/><path d="M159.367 167.22l10.055 18.21M159.367 167.22l-10.402-.2" stroke-width="1.2" stroke="#000" stroke-miterlimit="10" fill="none"/><path d="M148.965 167.02l-10.4-.2" stroke-width="1.2" stroke="#00f" stroke-miterlimit="10" fill="none"/><path d="M169.422 185.43l20.8.398M190.223 185.828l10.054 18.215M190.223 185.828l10.746-17.812" stroke-width="1.2" stroke="#000" stroke-miterlimit="10" fill="none"/><path d="M138.566 166.82l-5.027-9.105" stroke-width="1.2" stroke="#00f" stroke-miterlimit="10" fill="none"/><path d="M133.54 157.715l-5.032-9.11" stroke-width="1.2" stroke="#000" stroke-miterlimit="10" fill="none"/><path d="M131.566 161.32h14v11h-14zm0 0" fill="#fff"/><g fill="#00f"><use xlink:href="#b" x="131.566" y="169.983"/><use xlink:href="#c" x="138.544" y="169.983"/></g><path d="M130.605 149.87l5.372-8.905" stroke-width="1.2" stroke="#000" stroke-miterlimit="10" fill="none"/><path d="M135.977 140.965l5.375-8.91" stroke-width="1.2" stroke="#f00" stroke-miterlimit="10" fill="none"/><path d="M126.414 147.344l5.37-8.91" stroke-width="1.2" stroke="#000" stroke-miterlimit="10" fill="none"/><path d="M131.785 138.434l5.375-8.907" stroke-width="1.2" stroke="#f00" stroke-miterlimit="10" fill="none"/><path d="M128.508 148.605l-10.4-.2" stroke-width="1.2" stroke="#000" stroke-miterlimit="10" fill="none"/><path d="M118.11 148.406l-10.403-.2" stroke-width="1.2" stroke="#f00" stroke-miterlimit="10" fill="none"/><path d="M135.254 125.293h8v11h-8zm0 0" fill="#fff"/><use xlink:href="#a" x="135.254" y="133.956" fill="#f00"/><path d="M107.707 148.207l-5.027-9.105" stroke-width="1.2" stroke="#f00" stroke-miterlimit="10" fill="none"/><path d="M102.68 139.102l-5.028-9.106" stroke-width="1.2" stroke="#000" stroke-miterlimit="10" fill="none"/><path d="M103.707 142.707h8v11h-8zm0 0" fill="#fff"/><use xlink:href="#a" x="103.707" y="151.37" fill="#f00"/><path d="M97.652 129.996l-20.8-.398M76.852 129.598l-10.747 17.816M71.586 128.852l-8.598 14.25M66.797 111.383l10.055 18.215M66.105 147.414l-20.8-.398M45.305 147.016L35.25 128.8M48.586 142.828l-8.043-14.57M35.25 128.8l10.746-17.812M45.996 110.988l20.8.395M47.98 115.922l16.64.316" stroke-width="1.2" stroke="#000" stroke-miterlimit="10" fill="none"/></g></svg>