<svg xmlns="http://www.w3.org/2000/svg" xmlns:xlink="http://www.w3.org/1999/xlink" width="300pt" height="300pt" viewBox="0 0 300 300"><defs><symbol overflow="visible"><path d="M.453 1.594v-7.938h4.5v7.938zm.5-.5h3.5v-6.938h-3.5zm0 0"/></symbol><symbol overflow="visible" id="a"><path d="M.89-6.563H2.08l2.906 5.485v-5.484h.86V0H4.656L1.75-5.484V0H.89zm0 0"/></symbol><symbol overflow="visible" id="b"><path d="M3.547-5.953c-.65 0-1.164.242-1.547.72-.375.48-.563 1.13-.563 1.952 0 .835.188 1.49.563 1.967.383.48.898.72 1.547.72.644 0 1.156-.24 1.53-.72.376-.476.564-1.132.564-1.968 0-.822-.187-1.474-.562-1.954-.375-.477-.887-.72-1.53-.72zm0-.734c.914 0 1.648.312 2.203.937.55.617.828 1.438.828 2.47 0 1.042-.277 1.87-.828 2.483-.555.617-1.29.922-2.203.922-.93 0-1.668-.305-2.22-.922C.774-1.41.5-2.237.5-3.28c0-1.033.273-1.853.828-2.47.55-.625 1.29-.938 2.22-.938zm0 0"/></symbol><symbol overflow="visible" id="c"><path d="M4.813-6.344v.86c-.336-.157-.653-.27-.954-.344-.294-.082-.58-.125-.86-.125-.492 0-.867.094-1.125.28-.262.19-.39.454-.39.798 0 .293.085.512.265.656.176.15.504.267.984.36l.547.11c.658.125 1.142.352 1.454.672.32.312.485.734.485 1.265 0 .637-.216 1.122-.642 1.454-.43.325-1.055.485-1.875.485-.312 0-.648-.04-1-.11C1.36-.046 1-.147.625-.296v-.906c.352.2.703.35 1.047.453.35.105.695.156 1.03.156.5 0 .884-.097 1.157-.297.28-.196.42-.485.42-.86 0-.32-.1-.57-.296-.75-.2-.176-.523-.313-.968-.406l-.547-.11C1.81-3.148 1.33-3.36 1.03-3.64.74-3.923.595-4.313.595-4.813c0-.57.203-1.024.61-1.36.405-.344.968-.516 1.687-.516.313 0 .626.032.938.094.32.055.65.137.985.25zm0 0"/></symbol></defs><g><path fill="#fff" d="M0 0h300v300H0z"/><path d="M35.25 192.86l11.22 1.542" stroke-width="1.2" stroke="#000" stroke-miterlimit="10" fill="none"/><path d="M46.47 194.402l11.22 1.543M57.69 195.945l6.947-8.94" stroke-width="1.2" stroke="#00f" stroke-miterlimit="10" fill="none"/><path d="M64.637 187.004l6.95-8.945M66.234 216.926l-4.27-10.488" stroke-width="1.2" stroke="#000" stroke-miterlimit="10" fill="none"/><path d="M61.965 206.438l-4.274-10.493" stroke-width="1.2" stroke="#00f" stroke-miterlimit="10" fill="none"/><path d="M54.69 190.445h7v11h-7zm0 0" fill="#fff"/><use xlink:href="#a" x="54.691" y="199.108" fill="#00f"/><path d="M71.586 178.06l22.44 3.085M94.027 181.145l4.274 10.492" stroke-width="1.2" stroke="#000" stroke-miterlimit="10" fill="none"/><path d="M98.3 191.637l4.274 10.488M102.574 202.125l-6.95 8.945" stroke-width="1.2" stroke="#00f" stroke-miterlimit="10" fill="none"/><path d="M95.625 211.07l-6.95 8.946" stroke-width="1.2" stroke="#000" stroke-miterlimit="10" fill="none"/><path d="M102.574 202.125l11.22 1.543" stroke-width="1.2" stroke="#00f" stroke-miterlimit="10" fill="none"/><path d="M113.793 203.668l11.22 1.547" stroke-width="1.2" stroke="#000" stroke-miterlimit="10" fill="none"/><path d="M99.574 196.625h7v11h-7zm0 0" fill="#fff"/><use xlink:href="#a" x="99.574" y="205.288" fill="#00f"/><path d="M88.676 220.016l-22.442-3.09M125.012 205.215l4.273 10.488" stroke-width="1.2" stroke="#000" stroke-miterlimit="10" fill="none"/><path d="M129.285 215.703l4.274 10.488" stroke-width="1.2" stroke="#00f" stroke-miterlimit="10" fill="none"/><path d="M130.805 205.3l3.418 8.39" stroke-width="1.2" stroke="#000" stroke-miterlimit="10" fill="none"/><path d="M134.223 213.69l3.418 8.396M138.91 187.324l-6.95 8.946" stroke-width="1.2" stroke="#00f" stroke-miterlimit="10" fill="none"/><path d="M131.96 196.27l-6.948 8.945" stroke-width="1.2" stroke="#000" stroke-miterlimit="10" fill="none"/><path d="M133.56 226.19l11.217 1.548" stroke-width="1.2" stroke="#00f" stroke-miterlimit="10" fill="none"/><path d="M144.777 227.738L156 229.28" stroke-width="1.2" stroke="#000" stroke-miterlimit="10" fill="none"/><path d="M130.56 220.69h7v11h-7zm0 0" fill="#fff"/><use xlink:href="#a" x="130.559" y="229.354" fill="#00f"/><path d="M156 229.28l13.895-17.89M153.18 224.223l11.117-14.313M169.895 211.39l-8.543-20.976" stroke-width="1.2" stroke="#000" stroke-miterlimit="10" fill="none"/><path d="M192.336 214.48l-11.22-1.542" stroke-width="1.2" stroke="#00f" stroke-miterlimit="10" fill="none"/><path d="M181.117 212.938l-11.222-1.547M161.352 190.414l-11.223-1.547" stroke-width="1.2" stroke="#000" stroke-miterlimit="10" fill="none"/><path d="M150.13 188.867l-11.22-1.543" stroke-width="1.2" stroke="#00f" stroke-miterlimit="10" fill="none"/><path d="M158.38 195.383l-8.978-1.235" stroke-width="1.2" stroke="#000" stroke-miterlimit="10" fill="none"/><path d="M149.402 194.148l-8.976-1.234" stroke-width="1.2" stroke="#00f" stroke-miterlimit="10" fill="none"/><path d="M161.352 190.414l6.945-8.945" stroke-width="1.2" stroke="#000" stroke-miterlimit="10" fill="none"/><path d="M168.297 181.47l6.95-8.947" stroke-width="1.2" stroke="#00f" stroke-miterlimit="10" fill="none"/><path d="M135.91 181.824h7v11h-7zm0 0" fill="#fff"/><use xlink:href="#a" x="135.91" y="190.487" fill="#00f"/><path d="M175.246 172.523l11.22 1.543" stroke-width="1.2" stroke="#00f" stroke-miterlimit="10" fill="none"/><path d="M186.465 174.066l11.222 1.547" stroke-width="1.2" stroke="#000" stroke-miterlimit="10" fill="none"/><path d="M175.246 172.523l-4.273-10.488" stroke-width="1.2" stroke="#00f" stroke-miterlimit="10" fill="none"/><path d="M170.973 162.035l-4.274-10.492" stroke-width="1.2" stroke="#000" stroke-miterlimit="10" fill="none"/><path d="M172.246 167.023h7v11h-7zm0 0" fill="#fff"/><use xlink:href="#a" x="172.246" y="175.687" fill="#00f"/><path d="M199.793 177.246l6.945-8.945" stroke-width="1.2" stroke="#000" stroke-miterlimit="10" fill="none"/><path d="M206.738 168.3l6.95-8.945" stroke-width="1.2" stroke="#f00" stroke-miterlimit="10" fill="none"/><path d="M195.582 173.977l6.95-8.946" stroke-width="1.2" stroke="#000" stroke-miterlimit="10" fill="none"/><path d="M202.53 165.03l6.947-8.944" stroke-width="1.2" stroke="#f00" stroke-miterlimit="10" fill="none"/><path d="M197.688 175.613l8.542 20.977" stroke-width="1.2" stroke="#000" stroke-miterlimit="10" fill="none"/><path d="M207.582 152.223h8v11h-8zm0 0" fill="#fff"/><use xlink:href="#b" x="207.582" y="160.886" fill="#f00"/><path d="M206.23 196.59l-6.945 8.945" stroke-width="1.2" stroke="#000" stroke-miterlimit="10" fill="none"/><path d="M199.285 205.535l-6.95 8.945" stroke-width="1.2" stroke="#00f" stroke-miterlimit="10" fill="none"/><path d="M200.633 195.11l-5.56 7.156" stroke-width="1.2" stroke="#000" stroke-miterlimit="10" fill="none"/><path d="M195.074 202.266l-5.558 7.156" stroke-width="1.2" stroke="#00f" stroke-miterlimit="10" fill="none"/><path d="M206.23 196.59l22.442 3.09" stroke-width="1.2" stroke="#000" stroke-miterlimit="10" fill="none"/><path d="M189.336 208.98h7v11h-7zm0 0" fill="#fff"/><use xlink:href="#a" x="189.336" y="217.644" fill="#00f"/><path d="M228.672 199.68l15.69-16.34M234.086 201.738l12.55-13.07" stroke-width="1.2" stroke="#000" stroke-miterlimit="10" fill="none"/><path d="M239.363 219.652l-5.343-9.988" stroke-width="1.2" stroke="#cc0" stroke-miterlimit="10" fill="none"/><path d="M234.02 209.664l-5.348-9.984M244.363 183.34l20.387 9.875M264.75 193.215l-3.09 22.437M259.16 194.73l-2.47 17.954M261.66 215.652l-11.148 2" stroke-width="1.2" stroke="#000" stroke-miterlimit="10" fill="none"/><path d="M250.512 217.652l-11.15 2" stroke-width="1.2" stroke="#cc0" stroke-miterlimit="10" fill="none"/><path d="M236.363 214.152h6v11h-6zm0 0" fill="#fff"/><use xlink:href="#c" x="236.363" y="222.815" fill="#cc0"/><path d="M166.7 151.543l13.898-17.887M163.88 146.484l11.116-14.308M144.258 148.457l22.44 3.086M180.598 133.656l-8.547-20.98M172.05 112.676l-22.44-3.09M169.078 117.648l-17.95-2.472M149.61 109.586l-13.895 17.89M149.61 109.586l-4.274-10.488" stroke-width="1.2" stroke="#000" stroke-miterlimit="10" fill="none"/><path d="M145.336 99.098l-4.27-10.49" stroke-width="1.2" stroke="#f00" stroke-miterlimit="10" fill="none"/><path d="M135.715 127.477l8.543 20.98M141.504 127.563l6.836 16.785" stroke-width="1.2" stroke="#000" stroke-miterlimit="10" fill="none"/><path d="M141.066 88.61l6.946-8.946" stroke-width="1.2" stroke="#f00" stroke-miterlimit="10" fill="none"/><path d="M148.012 79.664l6.95-8.945" stroke-width="1.2" stroke="#000" stroke-miterlimit="10" fill="none"/><path d="M137.066 83.11h8v11h-8zm0 0" fill="#fff"/><use xlink:href="#b" x="137.066" y="91.772" fill="#f00"/></g></svg>