<svg xmlns="http://www.w3.org/2000/svg" xmlns:xlink="http://www.w3.org/1999/xlink" width="300pt" height="300pt" viewBox="0 0 300 300"><defs><symbol overflow="visible"><path d="M.453 1.594v-7.938h4.5v7.938zm.5-.5h3.5v-6.938h-3.5zm0 0"/></symbol><symbol overflow="visible" id="a"><path d="M3.547-5.953c-.65 0-1.164.242-1.547.72-.375.48-.563 1.13-.563 1.952 0 .835.188 1.49.563 1.967.383.48.898.72 1.547.72.644 0 1.156-.24 1.53-.72.376-.476.564-1.132.564-1.968 0-.822-.187-1.474-.562-1.954-.375-.477-.887-.72-1.53-.72zm0-.734c.914 0 1.648.312 2.203.937.55.617.828 1.438.828 2.47 0 1.042-.277 1.87-.828 2.483-.555.617-1.29.922-2.203.922-.93 0-1.668-.305-2.22-.922C.774-1.41.5-2.237.5-3.28c0-1.033.273-1.853.828-2.47.55-.625 1.29-.938 2.22-.938zm0 0"/></symbol><symbol overflow="visible" id="b"><path d="M.89-6.563H2.08l2.906 5.485v-5.484h.86V0H4.656L1.75-5.484V0H.89zm0 0"/></symbol><symbol overflow="visible" id="c"><path d="M.89-6.563h.876v2.688H5v-2.688h.89V0H5v-3.125H1.766V0H.89zm0 0"/></symbol><symbol overflow="visible" id="d"><path d="M5.797-6.063v.938c-.305-.27-.625-.473-.97-.61-.335-.144-.686-.218-1.06-.218-.75 0-1.33.23-1.736.687-.397.46-.592 1.12-.592 1.985 0 .866.195 1.526.593 1.983.408.46.986.688 1.736.688.375 0 .726-.066 1.062-.203.344-.132.664-.343.97-.625V-.5c-.314.21-.642.367-.986.47-.343.1-.714.155-1.11.155-.99 0-1.772-.3-2.343-.906C.784-1.396.5-2.228.5-3.28c0-1.052.285-1.88.86-2.486.57-.613 1.35-.92 2.343-.92.395-.002.766.053 1.11.155.35.104.68.26.984.468zm0 0"/></symbol><symbol overflow="visible" id="e"><path d="M.844-6.844h.812V0H.844zm0 0"/></symbol></defs><g><path fill="#fff" d="M0 0h300v300H0z"/><path d="M264.75 181.297l-4.81-11.027" stroke-width="1.2" stroke="#000" stroke-miterlimit="10" fill="none"/><path d="M259.94 170.27l-4.807-11.032M255.133 159.238l-11.953-1.35" stroke-width="1.2" stroke="#f00" stroke-miterlimit="10" fill="none"/><path d="M243.18 157.887l-11.957-1.352" stroke-width="1.2" stroke="#000" stroke-miterlimit="10" fill="none"/><path d="M251.133 153.738h8v11h-8zm0 0" fill="#fff"/><use xlink:href="#a" x="251.133" y="162.401" fill="#f00"/><path d="M231.223 156.535l-14.297 19.36M225.238 155.11L213.8 170.593M221.61 134.477l9.613 22.058M216.926 175.895l-23.91-2.704M193.016 173.19l-9.618-22.057M197.246 168.723l-7.695-17.65M193.016 173.19l-7.15 9.68" stroke-width="1.2" stroke="#000" stroke-miterlimit="10" fill="none"/><path d="M185.867 182.87l-7.148 9.677" stroke-width="1.2" stroke="#f00" stroke-miterlimit="10" fill="none"/><path d="M183.398 151.133l14.297-19.36M183.398 151.133l-23.91-2.703M197.695 131.773l23.914 2.704M199.453 137.672l19.13 2.16M159.488 148.43l-4.808-11.032" stroke-width="1.2" stroke="#000" stroke-miterlimit="10" fill="none"/><path d="M154.68 137.398l-4.805-11.027M149.875 126.37l-11.957-1.35" stroke-width="1.2" stroke="#00f" stroke-miterlimit="10" fill="none"/><path d="M137.918 125.02l-11.957-1.352" stroke-width="1.2" stroke="#000" stroke-miterlimit="10" fill="none"/><path d="M142.875 120.87h14v11h-14zm0 0" fill="#fff"/><g fill="#00f"><use xlink:href="#b" x="142.875" y="129.534"/><use xlink:href="#c" x="149.853" y="129.534"/></g><path d="M125.96 123.668l-4.808-11.03" stroke-width="1.2" stroke="#000" stroke-miterlimit="10" fill="none"/><path d="M121.152 112.637l-4.804-11.028" stroke-width="1.2" stroke="#00f" stroke-miterlimit="10" fill="none"/><path d="M119.81 123.723l-3.845-8.825" stroke-width="1.2" stroke="#000" stroke-miterlimit="10" fill="none"/><path d="M115.965 114.898l-3.848-8.82" stroke-width="1.2" stroke="#00f" stroke-miterlimit="10" fill="none"/><path d="M111.664 143.023l14.297-19.355" stroke-width="1.2" stroke="#000" stroke-miterlimit="10" fill="none"/><path d="M116.348 101.61l-11.957-1.352" stroke-width="1.2" stroke="#00f" stroke-miterlimit="10" fill="none"/><path d="M104.39 100.258l-11.956-1.352" stroke-width="1.2" stroke="#000" stroke-miterlimit="10" fill="none"/><path d="M113.348 96.11h7v11h-7zm0 0" fill="#fff"/><use xlink:href="#b" x="113.348" y="104.772" fill="#00f"/><path d="M92.434 98.906l-7.15 9.68" stroke-width="1.2" stroke="#000" stroke-miterlimit="10" fill="none"/><path d="M85.285 108.586l-7.148 9.676" stroke-width="1.2" stroke="#00f" stroke-miterlimit="10" fill="none"/><path d="M95.56 104.207l-5.72 7.742" stroke-width="1.2" stroke="#000" stroke-miterlimit="10" fill="none"/><path d="M89.84 111.95l-5.72 7.74M78.137 118.262l4.808 11.03" stroke-width="1.2" stroke="#00f" stroke-miterlimit="10" fill="none"/><path d="M82.945 129.293l4.81 11.027" stroke-width="1.2" stroke="#000" stroke-miterlimit="10" fill="none"/><path d="M75.137 112.762h7v11h-7zm0 0" fill="#fff"/><use xlink:href="#b" x="75.137" y="121.425" fill="#00f"/><path d="M87.754 140.32l23.91 2.703M90.78 134.965l19.13 2.164M87.754 140.32l-14.297 19.36M73.457 159.68l-23.91-2.703M70.43 165.035L51.3 162.87M83.074 181.738l-9.617-22.058M49.547 156.977L35.25 176.332M35.25 176.332l9.617 22.06M41.402 176.277l7.692 17.645M44.867 198.39l23.91 2.704M68.777 201.094l14.297-19.356M65.652 195.793L77.09 180.31M83.074 181.738l11.953 1.352" stroke-width="1.2" stroke="#000" stroke-miterlimit="10" fill="none"/><path d="M95.027 183.09l11.957 1.35" stroke-width="1.2" stroke="#0c0" stroke-miterlimit="10" fill="none"/><path d="M101.984 178.94h10v11h-10zm0 0" fill="#fff"/><g fill="#0c0"><use xlink:href="#d" x="101.984" y="187.604"/><use xlink:href="#e" x="108.498" y="187.604"/></g><path d="M178.72 192.547l-11.958-1.352" stroke-width="1.2" stroke="#f00" stroke-miterlimit="10" fill="none"/><path d="M166.762 191.195l-11.953-1.35" stroke-width="1.2" stroke="#000" stroke-miterlimit="10" fill="none"/><path d="M174.72 187.047h8v11h-8zm0 0" fill="#fff"/><use xlink:href="#a" x="174.719" y="195.71" fill="#f00"/></g></svg>