<svg xmlns="http://www.w3.org/2000/svg" xmlns:xlink="http://www.w3.org/1999/xlink" width="300pt" height="300pt" viewBox="0 0 300 300"><defs><symbol overflow="visible"><path d="M.547 1.938V-7.75h5.5v9.688zm.625-.61h4.266v-8.47H1.171zm0 0"/></symbol><symbol overflow="visible" id="a"><path d="M1.078-8.016h1.47l3.546 6.704v-6.704h1.062V0H5.688L2.124-6.703V0H1.078zm0 0"/></symbol><symbol overflow="visible" id="b"><path d="M1.078-8.016h1.094v3.282H6.11v-3.282h1.077V0H6.11v-3.813H2.17V0H1.078zm0 0"/></symbol><symbol overflow="visible" id="c"><path d="M4.328-7.28c-.78 0-1.406.296-1.875.89-.46.585-.687 1.382-.687 2.39 0 1.012.226 1.813.687 2.406.47.586 1.094.875 1.875.875.79 0 1.414-.288 1.875-.874.457-.593.688-1.394.688-2.406 0-1.008-.23-1.805-.687-2.39-.46-.594-1.086-.89-1.875-.89zm0-.892c1.125 0 2.024.383 2.703 1.14C7.708-6.28 8.048-5.27 8.048-4c0 1.262-.34 2.273-1.016 3.03C6.353-.22 5.454.157 4.33.157S2.3-.22 1.625-.97c-.668-.75-1-1.757-1-3.03 0-1.27.332-2.28 1-3.03.676-.76 1.578-1.142 2.703-1.142zm0 0"/></symbol></defs><g><path fill="#fff" d="M0 0h300v300H0z"/><path d="M251.293 236.488L225.848 229M225.848 229l-3.118-12.89" stroke-width="1.2" stroke="#000" stroke-miterlimit="10" fill="none"/><path d="M222.73 216.11l-3.12-12.89M219.61 203.22l-12.723-3.743" stroke-width="1.2" stroke="#00f" stroke-miterlimit="10" fill="none"/><path d="M206.887 199.477l-12.723-3.743" stroke-width="1.2" stroke="#000" stroke-miterlimit="10" fill="none"/><path d="M211.61 196.72h17v13h-17zm0 0" fill="#fff"/><g fill="#00f"><use xlink:href="#a" x="211.609" y="206.62"/><use xlink:href="#b" x="219.593" y="206.62"/></g><path d="M194.164 195.734l-9.605 9.145" stroke-width="1.2" stroke="#000" stroke-miterlimit="10" fill="none"/><path d="M184.56 204.88l-9.603 9.147" stroke-width="1.2" stroke="#00f" stroke-miterlimit="10" fill="none"/><path d="M187.938 193.043l-7.68 7.316" stroke-width="1.2" stroke="#000" stroke-miterlimit="10" fill="none"/><path d="M180.258 200.36l-7.684 7.32M187.926 169.953l3.117 12.89" stroke-width="1.2" stroke="#00f" stroke-miterlimit="10" fill="none"/><path d="M191.043 182.844l3.12 12.89" stroke-width="1.2" stroke="#000" stroke-miterlimit="10" fill="none"/><path d="M174.957 214.027l-12.723-3.742" stroke-width="1.2" stroke="#00f" stroke-miterlimit="10" fill="none"/><path d="M162.234 210.285l-12.722-3.746" stroke-width="1.2" stroke="#000" stroke-miterlimit="10" fill="none"/><path d="M170.957 207.527h8v13h-8zm0 0" fill="#fff"/><use xlink:href="#a" x="170.957" y="217.429" fill="#00f"/><path d="M149.512 206.54l-6.24-25.778M154.953 202.492l-4.992-20.62M143.273 180.762l19.207-18.293" stroke-width="1.2" stroke="#000" stroke-miterlimit="10" fill="none"/><path d="M117.828 173.273l12.723 3.743" stroke-width="1.2" stroke="#00f" stroke-miterlimit="10" fill="none"/><path d="M130.55 177.016l12.723 3.746M162.48 162.47l12.723 3.74" stroke-width="1.2" stroke="#000" stroke-miterlimit="10" fill="none"/><path d="M175.203 166.21l12.723 3.743" stroke-width="1.2" stroke="#00f" stroke-miterlimit="10" fill="none"/><path d="M163.262 169.203l10.18 2.996" stroke-width="1.2" stroke="#000" stroke-miterlimit="10" fill="none"/><path d="M173.44 172.2l10.177 2.99" stroke-width="1.2" stroke="#00f" stroke-miterlimit="10" fill="none"/><path d="M162.48 162.47l-3.12-12.892" stroke-width="1.2" stroke="#000" stroke-miterlimit="10" fill="none"/><path d="M159.36 149.578l-3.122-12.89" stroke-width="1.2" stroke="#00f" stroke-miterlimit="10" fill="none"/><path d="M183.926 163.453h8v13h-8zm0 0" fill="#fff"/><use xlink:href="#a" x="183.926" y="173.354" fill="#00f"/><path d="M156.238 136.688l-12.722-3.743" stroke-width="1.2" stroke="#00f" stroke-miterlimit="10" fill="none"/><path d="M143.516 132.945l-12.723-3.746" stroke-width="1.2" stroke="#000" stroke-miterlimit="10" fill="none"/><path d="M156.238 136.688l9.606-9.15" stroke-width="1.2" stroke="#00f" stroke-miterlimit="10" fill="none"/><path d="M165.844 127.54l9.6-9.145" stroke-width="1.2" stroke="#000" stroke-miterlimit="10" fill="none"/><path d="M152.238 130.188h8v13h-8zm0 0" fill="#fff"/><use xlink:href="#a" x="152.238" y="140.089" fill="#00f"/><path d="M133.828 128.465l-3.12-12.887" stroke-width="1.2" stroke="#000" stroke-miterlimit="10" fill="none"/><path d="M130.707 115.578l-3.12-12.89" stroke-width="1.2" stroke="#f00" stroke-miterlimit="10" fill="none"/><path d="M127.762 129.934l-3.12-12.89" stroke-width="1.2" stroke="#000" stroke-miterlimit="10" fill="none"/><path d="M124.64 117.043l-3.12-12.887" stroke-width="1.2" stroke="#f00" stroke-miterlimit="10" fill="none"/><path d="M130.793 129.2l-19.207 18.292" stroke-width="1.2" stroke="#000" stroke-miterlimit="10" fill="none"/><path d="M120.555 96.922h9v13h-9zm0 0" fill="#fff"/><use xlink:href="#c" x="120.555" y="106.823" fill="#f00"/><path d="M111.586 147.492l3.12 12.89" stroke-width="1.2" stroke="#000" stroke-miterlimit="10" fill="none"/><path d="M114.707 160.383l3.12 12.89" stroke-width="1.2" stroke="#00f" stroke-miterlimit="10" fill="none"/><path d="M118.277 148.605l2.496 10.31" stroke-width="1.2" stroke="#000" stroke-miterlimit="10" fill="none"/><path d="M120.773 158.914l2.497 10.313" stroke-width="1.2" stroke="#00f" stroke-miterlimit="10" fill="none"/><path d="M111.586 147.492l-25.445-7.484" stroke-width="1.2" stroke="#000" stroke-miterlimit="10" fill="none"/><path d="M113.828 166.773h8v13h-8zm0 0" fill="#fff"/><use xlink:href="#a" x="113.828" y="176.675" fill="#00f"/><path d="M86.14 140.008l-6.238-25.78M79.453 138.898l-4.992-20.625M66.934 158.3L86.14 140.01M79.902 114.227l-25.445-7.485M54.457 106.742L35.25 125.035M56.84 113.09l-15.363 14.633M35.25 125.035l6.238 25.778M41.488 150.813l25.446 7.488M45.797 145.574l20.355 5.992M175.445 118.395l25.446 7.484M200.89 125.88l19.208-18.294M220.098 107.586l25.445 7.488M224.402 102.348l20.36 5.988M213.86 81.81l6.238 25.776M245.543 115.074L264.75 96.78M264.75 96.78L258.512 71M258.06 95.672l-4.99-20.625M258.512 71l-25.446-7.488M233.066 63.512L213.86 81.81M235.45 69.863L220.08 84.496" stroke-width="1.2" stroke="#000" stroke-miterlimit="10" fill="none"/></g></svg>