<svg xmlns="http://www.w3.org/2000/svg" xmlns:xlink="http://www.w3.org/1999/xlink" width="300pt" height="300pt" viewBox="0 0 300 300"><defs><symbol overflow="visible"><path d="M.453 1.594v-7.938h4.5v7.938zm.5-.5h3.5v-6.938h-3.5zm0 0"/></symbol><symbol overflow="visible" id="a"><path d="M.89-6.563H2.08l2.906 5.485v-5.484h.86V0H4.656L1.75-5.484V0H.89zm0 0"/></symbol><symbol overflow="visible" id="b"><path d="M3.547-5.953c-.65 0-1.164.242-1.547.72-.375.48-.563 1.13-.563 1.952 0 .835.188 1.49.563 1.967.383.48.898.72 1.547.72.644 0 1.156-.24 1.53-.72.376-.476.564-1.132.564-1.968 0-.822-.187-1.474-.562-1.954-.375-.477-.887-.72-1.53-.72zm0-.734c.914 0 1.648.312 2.203.937.55.617.828 1.438.828 2.47 0 1.042-.277 1.87-.828 2.483-.555.617-1.29.922-2.203.922-.93 0-1.668-.305-2.22-.922C.774-1.41.5-2.237.5-3.28c0-1.033.273-1.853.828-2.47.55-.625 1.29-.938 2.22-.938zm0 0"/></symbol><symbol overflow="visible" id="c"><path d="M.89-6.563h.876v2.688H5v-2.688h.89V0H5v-3.125H1.766V0H.89zm0 0"/></symbol></defs><g><path fill="#fff" d="M0 0h300v300H0z"/><path d="M35.25 146.465L53 134.383M53 134.383l20.203 7.258M56.727 130.355l16.164 5.81" stroke-width="1.2" stroke="#000" stroke-miterlimit="10" fill="none"/><path d="M53.656 112.926l-.328 10.73" stroke-width="1.2" stroke="#f00" stroke-miterlimit="10" fill="none"/><path d="M53.328 123.656L53 134.383M73.203 141.64l13.15-16.972M73.203 141.64l6.008 20.614M86.352 124.668l-6.043-8.875" stroke-width="1.2" stroke="#000" stroke-miterlimit="10" fill="none"/><path d="M80.31 115.793l-6.04-8.875" stroke-width="1.2" stroke="#00f" stroke-miterlimit="10" fill="none"/><path d="M80.965 125.734l-4.832-7.097" stroke-width="1.2" stroke="#000" stroke-miterlimit="10" fill="none"/><path d="M76.133 118.637L71.3 111.54" stroke-width="1.2" stroke="#00f" stroke-miterlimit="10" fill="none"/><path d="M86.352 124.668l21.46.66" stroke-width="1.2" stroke="#000" stroke-miterlimit="10" fill="none"/><path d="M74.27 106.918l-10.305 3.004" stroke-width="1.2" stroke="#00f" stroke-miterlimit="10" fill="none"/><path d="M63.965 109.922l-10.31 3.004" stroke-width="1.2" stroke="#f00" stroke-miterlimit="10" fill="none"/><path d="M71.27 101.418h7v11h-7zm0 0" fill="#fff"/><use xlink:href="#a" x="71.27" y="110.081" fill="#00f"/><path d="M49.656 107.426h8v11h-8zm0 0" fill="#fff"/><use xlink:href="#b" x="49.656" y="116.089" fill="#f00"/><path d="M77.387 160.508l-7.426 7.754" stroke-width="1.2" stroke="#000" stroke-miterlimit="10" fill="none"/><path d="M69.96 168.262l-7.425 7.754" stroke-width="1.2" stroke="#f00" stroke-miterlimit="10" fill="none"/><path d="M81.035 164.004l-7.426 7.75" stroke-width="1.2" stroke="#000" stroke-miterlimit="10" fill="none"/><path d="M73.61 171.754l-7.426 7.754" stroke-width="1.2" stroke="#f00" stroke-miterlimit="10" fill="none"/><path d="M79.21 162.254l10.427 2.555" stroke-width="1.2" stroke="#000" stroke-miterlimit="10" fill="none"/><path d="M89.637 164.81l10.425 2.55" stroke-width="1.2" stroke="#00f" stroke-miterlimit="10" fill="none"/><path d="M56.36 172.262h8v11h-8zm0 0" fill="#fff"/><use xlink:href="#b" x="56.359" y="180.925" fill="#f00"/><path d="M100.063 167.36l3.003 10.308" stroke-width="1.2" stroke="#00f" stroke-miterlimit="10" fill="none"/><path d="M103.066 177.668l3 10.305M114.91 151.855l-7.422 7.754" stroke-width="1.2" stroke="#000" stroke-miterlimit="10" fill="none"/><path d="M107.488 159.61l-7.425 7.75" stroke-width="1.2" stroke="#00f" stroke-miterlimit="10" fill="none"/><path d="M97.063 161.86h7v11h-7zm0 0" fill="#fff"/><use xlink:href="#a" x="97.063" y="170.522" fill="#00f"/><path d="M106.066 187.973l20.856 5.11M126.922 193.082l14.848-15.508" stroke-width="1.2" stroke="#000" stroke-miterlimit="10" fill="none"/><path d="M135.766 156.96m.324 2.98l1.004-.288m-.676 3.274l2-.586m-1.676 3.566l3.004-.875m-2.676 3.86l4.004-1.167m-3.68 4.148l5.004-1.456m-4.68 4.44l6.01-1.75m-5.68 4.732l7.007-2.043m-6.922 2.84l7.277-2.12" stroke="#000" stroke-miterlimit="10" fill="none"/><path d="M135.766 156.96l-20.856-5.105M135.766 156.96l-3.817-21.128M157.04 159.86l-21.274-2.9M131.95 135.832l18.913-10.16M150.863 125.672l7.754 7.426" stroke-width="1.2" stroke="#000" stroke-miterlimit="10" fill="none"/><path d="M158.617 133.098l7.754 7.425M166.37 140.523l-4.667 9.668" stroke-width="1.2" stroke="#00f" stroke-miterlimit="10" fill="none"/><path d="M161.703 150.19l-4.664 9.67" stroke-width="1.2" stroke="#000" stroke-miterlimit="10" fill="none"/><path d="M166.37 140.523l10.564-1.91" stroke-width="1.2" stroke="#00f" stroke-miterlimit="10" fill="none"/><path d="M176.934 138.613l10.562-1.91" stroke-width="1.2" stroke="#000" stroke-miterlimit="10" fill="none"/><path d="M163.37 135.023h7v11h-7zm0 0" fill="#fff"/><use xlink:href="#a" x="163.371" y="143.687" fill="#00f"/><path d="M189.875 137.56l3.63-10.103" stroke-width="1.2" stroke="#000" stroke-miterlimit="10" fill="none"/><path d="M193.504 127.457l3.63-10.105" stroke-width="1.2" stroke="#f00" stroke-miterlimit="10" fill="none"/><path d="M185.12 135.852l3.63-10.106" stroke-width="1.2" stroke="#000" stroke-miterlimit="10" fill="none"/><path d="M188.75 125.746l3.63-10.1" stroke-width="1.2" stroke="#f00" stroke-miterlimit="10" fill="none"/><path d="M187.496 136.703l6.938 8.195" stroke-width="1.2" stroke="#000" stroke-miterlimit="10" fill="none"/><path d="M194.434 144.898l6.933 8.196" stroke-width="1.2" stroke="#00f" stroke-miterlimit="10" fill="none"/><path d="M190.754 111h8v11h-8zm0 0" fill="#fff"/><use xlink:href="#b" x="190.754" y="119.663" fill="#f00"/><path d="M201.367 153.094l10.563-1.91" stroke-width="1.2" stroke="#00f" stroke-miterlimit="10" fill="none"/><path d="M211.93 151.184l10.566-1.907" stroke-width="1.2" stroke="#000" stroke-miterlimit="10" fill="none"/><path d="M194.367 147.594h14v11h-14zm0 0" fill="#fff"/><g fill="#00f"><use xlink:href="#a" x="194.367" y="156.257"/><use xlink:href="#c" x="201.345" y="156.257"/></g><path d="M222.496 149.277l13.867 16.387M227.738 147.652l11.094 13.11M229.754 129.07l-7.258 20.207M236.363 165.664l21.13-3.816M257.492 161.848l7.258-20.207M253.465 158.117l5.805-16.164M264.75 141.64l-13.87-16.386M250.88 125.254l-21.126 3.816M249.664 130.605l-16.902 3.055" stroke-width="1.2" stroke="#000" stroke-miterlimit="10" fill="none"/></g></svg>