<svg xmlns="http://www.w3.org/2000/svg" xmlns:xlink="http://www.w3.org/1999/xlink" width="300pt" height="300pt" viewBox="0 0 300 300"><defs><symbol overflow="visible"><path d="M.453 1.594v-7.938h4.5v7.938zm.5-.5h3.5v-6.938h-3.5zm0 0"/></symbol><symbol overflow="visible" id="a"><path d="M3.547-5.953c-.65 0-1.164.242-1.547.72-.375.48-.563 1.13-.563 1.952 0 .835.188 1.49.563 1.967.383.48.898.72 1.547.72.644 0 1.156-.24 1.53-.72.376-.476.564-1.132.564-1.968 0-.822-.187-1.474-.562-1.954-.375-.477-.887-.72-1.53-.72zm0-.734c.914 0 1.648.312 2.203.937.55.617.828 1.438.828 2.47 0 1.042-.277 1.87-.828 2.483-.555.617-1.29.922-2.203.922-.93 0-1.668-.305-2.22-.922C.774-1.41.5-2.237.5-3.28c0-1.033.273-1.853.828-2.47.55-.625 1.29-.938 2.22-.938zm0 0"/></symbol><symbol overflow="visible" id="b"><path d="M.89-6.563H2.08l2.906 5.485v-5.484h.86V0H4.656L1.75-5.484V0H.89zm0 0"/></symbol></defs><g><path fill="#fff" d="M0 0h300v300H0z"/><path d="M185.56 223.77l5.514-10.704" stroke-width="1.2" stroke="#000" stroke-miterlimit="10" fill="none"/><path d="M191.074 213.066l5.512-10.703M196.586 202.363l-6.512-10.125" stroke-width="1.2" stroke="#f00" stroke-miterlimit="10" fill="none"/><path d="M190.074 192.238l-6.512-10.13" stroke-width="1.2" stroke="#000" stroke-miterlimit="10" fill="none"/><path d="M192.586 196.863h8v11h-8zm0 0" fill="#fff"/><use xlink:href="#a" x="192.586" y="205.526" fill="#f00"/><path d="M183.563 182.11l11.027-21.407M194.59 160.703l-6.512-10.125" stroke-width="1.2" stroke="#000" stroke-miterlimit="10" fill="none"/><path d="M188.078 150.578l-6.516-10.13M181.563 140.45l5.515-10.704" stroke-width="1.2" stroke="#00f" stroke-miterlimit="10" fill="none"/><path d="M187.078 129.746l5.512-10.703M157.512 141.602l12.027-.575" stroke-width="1.2" stroke="#000" stroke-miterlimit="10" fill="none"/><path d="M169.54 141.027l12.023-.578" stroke-width="1.2" stroke="#00f" stroke-miterlimit="10" fill="none"/><path d="M178.563 134.95h7v11h-7zm0 0" fill="#fff"/><use xlink:href="#b" x="178.563" y="143.612" fill="#00f"/><path d="M192.59 119.043l12.027-.578" stroke-width="1.2" stroke="#000" stroke-miterlimit="10" fill="none"/><path d="M204.617 118.465l12.028-.574" stroke-width="1.2" stroke="#00f" stroke-miterlimit="10" fill="none"/><path d="M194.727 113.27l9.62-.46" stroke-width="1.2" stroke="#000" stroke-miterlimit="10" fill="none"/><path d="M204.348 112.81l9.62-.466" stroke-width="1.2" stroke="#00f" stroke-miterlimit="10" fill="none"/><path d="M179.566 98.79l13.024 20.253" stroke-width="1.2" stroke="#000" stroke-miterlimit="10" fill="none"/><path d="M216.645 117.89l5.515-10.703" stroke-width="1.2" stroke="#00f" stroke-miterlimit="10" fill="none"/><path d="M222.16 107.188l5.512-10.704" stroke-width="1.2" stroke="#000" stroke-miterlimit="10" fill="none"/><path d="M213.645 112.39h7v11h-7zm0 0" fill="#fff"/><use xlink:href="#b" x="213.645" y="121.054" fill="#00f"/><path d="M227.672 96.484l-6.512-10.13" stroke-width="1.2" stroke="#000" stroke-miterlimit="10" fill="none"/><path d="M221.16 86.355l-6.512-10.125" stroke-width="1.2" stroke="#00f" stroke-miterlimit="10" fill="none"/><path d="M221.605 97.523l-5.21-8.1" stroke-width="1.2" stroke="#000" stroke-miterlimit="10" fill="none"/><path d="M216.395 89.422l-5.21-8.102" stroke-width="1.2" stroke="#00f" stroke-miterlimit="10" fill="none"/><path d="M227.672 96.484l12.027-.578" stroke-width="1.2" stroke="#000" stroke-miterlimit="10" fill="none"/><path d="M239.7 95.906l12.027-.578" stroke-width="1.2" stroke="#f00" stroke-miterlimit="10" fill="none"/><path d="M214.648 76.23l-12.027.575" stroke-width="1.2" stroke="#00f" stroke-miterlimit="10" fill="none"/><path d="M202.62 76.805l-12.026.578" stroke-width="1.2" stroke="#000" stroke-miterlimit="10" fill="none"/><path d="M211.648 70.73h7v11h-7zm0 0" fill="#fff"/><use xlink:href="#b" x="211.648" y="79.394" fill="#00f"/><path d="M190.594 77.383L179.566 98.79M194.527 82.117l-8.82 17.125M179.566 98.79l-12.027.577" stroke-width="1.2" stroke="#000" stroke-miterlimit="10" fill="none"/><path d="M167.54 99.367l-12.024.574M155.516 99.94L150 110.646" stroke-width="1.2" stroke="#00f" stroke-miterlimit="10" fill="none"/><path d="M150 110.645l-5.516 10.703" stroke-width="1.2" stroke="#000" stroke-miterlimit="10" fill="none"/><path d="M159.45 104.68l-4.415 8.562" stroke-width="1.2" stroke="#00f" stroke-miterlimit="10" fill="none"/><path d="M155.035 113.242l-4.41 8.563" stroke-width="1.2" stroke="#000" stroke-miterlimit="10" fill="none"/><path d="M152.516 94.44h7v11h-7zm0 0" fill="#fff"/><use xlink:href="#b" x="152.516" y="103.104" fill="#00f"/><path d="M144.484 121.348l13.028 20.254M144.484 121.348l-24.05 1.156M154.992 140.305l-5.512 10.703" stroke-width="1.2" stroke="#000" stroke-miterlimit="10" fill="none"/><path d="M149.48 151.008l-5.515 10.703" stroke-width="1.2" stroke="#f00" stroke-miterlimit="10" fill="none"/><path d="M160.03 142.898l-5.514 10.707" stroke-width="1.2" stroke="#000" stroke-miterlimit="10" fill="none"/><path d="M154.516 153.605l-5.512 10.704" stroke-width="1.2" stroke="#f00" stroke-miterlimit="10" fill="none"/><path d="M138.484 157.512h8v11h-8zm0 0" fill="#fff"/><use xlink:href="#a" x="138.484" y="166.175" fill="#f00"/><path d="M120.434 122.504L107.41 102.25M114.367 123.543l-10.422-16.203M109.406 143.91l11.028-21.406M107.41 102.25l-24.055 1.152M83.355 103.402L72.328 124.81M87.29 108.137l-8.82 17.125M72.328 124.81l13.024 20.252M72.328 124.81l-12.027.577" stroke-width="1.2" stroke="#000" stroke-miterlimit="10" fill="none"/><path d="M60.3 125.387l-12.027.574" stroke-width="1.2" stroke="#f00" stroke-miterlimit="10" fill="none"/><path d="M85.352 145.063l24.054-1.153M87.488 139.29l19.242-.923" stroke-width="1.2" stroke="#000" stroke-miterlimit="10" fill="none"/><path d="M48.273 125.96l-6.51-10.124" stroke-width="1.2" stroke="#f00" stroke-miterlimit="10" fill="none"/><path d="M41.762 115.836l-6.512-10.13" stroke-width="1.2" stroke="#000" stroke-miterlimit="10" fill="none"/><path d="M44.273 120.46h8v11h-8zm0 0" fill="#fff"/><use xlink:href="#a" x="44.273" y="129.124" fill="#f00"/><path d="M251.727 95.328l6.51 10.13" stroke-width="1.2" stroke="#f00" stroke-miterlimit="10" fill="none"/><path d="M258.238 105.457l6.512 10.125" stroke-width="1.2" stroke="#000" stroke-miterlimit="10" fill="none"/><path d="M247.727 89.828h8v11h-8zm0 0" fill="#fff"/><use xlink:href="#a" x="247.727" y="98.491" fill="#f00"/></g></svg>