<svg xmlns="http://www.w3.org/2000/svg" xmlns:xlink="http://www.w3.org/1999/xlink" width="300pt" height="300pt" viewBox="0 0 300 300"><defs><symbol overflow="visible"><path d="M.453 1.594v-7.938h4.5v7.938zm.5-.5h3.5v-6.938h-3.5zm0 0"/></symbol><symbol overflow="visible" id="a"><path d="M3.547-5.953c-.65 0-1.164.242-1.547.72-.375.48-.563 1.13-.563 1.952 0 .835.188 1.49.563 1.967.383.48.898.72 1.547.72.644 0 1.156-.24 1.53-.72.376-.476.564-1.132.564-1.968 0-.822-.187-1.474-.562-1.954-.375-.477-.887-.72-1.53-.72zm0-.734c.914 0 1.648.312 2.203.937.55.617.828 1.438.828 2.47 0 1.042-.277 1.87-.828 2.483-.555.617-1.29.922-2.203.922-.93 0-1.668-.305-2.22-.922C.774-1.41.5-2.237.5-3.28c0-1.033.273-1.853.828-2.47.55-.625 1.29-.938 2.22-.938zm0 0"/></symbol><symbol overflow="visible" id="b"><path d="M.89-6.563H2.08l2.906 5.485v-5.484h.86V0H4.656L1.75-5.484V0H.89zm0 0"/></symbol><symbol overflow="visible" id="c"><path d="M.89-6.563h.876v2.688H5v-2.688h.89V0H5v-3.125H1.766V0H.89zm0 0"/></symbol></defs><g><path fill="#fff" d="M0 0h300v300H0z"/><path d="M228.664 150.828l24.145.152" stroke-width="1.2" stroke="#000" stroke-miterlimit="10" fill="none"/><path d="M216.46 171.664l6.102-10.418" stroke-width="1.2" stroke="#00f" stroke-miterlimit="10" fill="none"/><path d="M222.563 161.246l6.1-10.418M252.81 150.98l5.967 10.493" stroke-width="1.2" stroke="#000" stroke-miterlimit="10" fill="none"/><path d="M258.777 161.473l5.973 10.492M264.75 171.965l-6.102 10.414" stroke-width="1.2" stroke="#f00" stroke-miterlimit="10" fill="none"/><path d="M258.648 182.38l-6.1 10.417" stroke-width="1.2" stroke="#000" stroke-miterlimit="10" fill="none"/><path d="M260.75 166.465h8v11h-8zm0 0" fill="#fff"/><use xlink:href="#a" x="260.75" y="175.128" fill="#f00"/><path d="M252.547 192.797l-24.145-.15M228.402 192.648l-5.968-10.492" stroke-width="1.2" stroke="#000" stroke-miterlimit="10" fill="none"/><path d="M222.434 182.156l-5.973-10.492M216.46 171.664l-12.07-.078" stroke-width="1.2" stroke="#00f" stroke-miterlimit="10" fill="none"/><path d="M204.39 171.586l-12.074-.074" stroke-width="1.2" stroke="#000" stroke-miterlimit="10" fill="none"/><path d="M213.46 166.164h7v11h-7zm0 0" fill="#fff"/><use xlink:href="#b" x="213.461" y="174.827" fill="#00f"/><path d="M192.316 171.512l-11.94-20.985M180.375 150.527l-12.07-.074" stroke-width="1.2" stroke="#000" stroke-miterlimit="10" fill="none"/><path d="M168.305 150.453l-12.075-.078M156.23 150.375l-5.968-10.492" stroke-width="1.2" stroke="#00f" stroke-miterlimit="10" fill="none"/><path d="M150.262 139.883l-5.973-10.492" stroke-width="1.2" stroke="#000" stroke-miterlimit="10" fill="none"/><path d="M149.23 144.875h14v11h-14zm0 0" fill="#fff"/><g fill="#00f"><use xlink:href="#b" x="149.23" y="153.538"/><use xlink:href="#c" x="156.208" y="153.538"/></g><path d="M144.29 129.39l6.1-10.417" stroke-width="1.2" stroke="#000" stroke-miterlimit="10" fill="none"/><path d="M150.39 118.973l6.102-10.414" stroke-width="1.2" stroke="#00f" stroke-miterlimit="10" fill="none"/><path d="M140.61 124.438l4.878-8.336" stroke-width="1.2" stroke="#000" stroke-miterlimit="10" fill="none"/><path d="M145.488 116.102l4.883-8.332" stroke-width="1.2" stroke="#00f" stroke-miterlimit="10" fill="none"/><path d="M120.145 129.242l24.144.15" stroke-width="1.2" stroke="#000" stroke-miterlimit="10" fill="none"/><path d="M156.492 108.56l-5.97-10.494" stroke-width="1.2" stroke="#00f" stroke-miterlimit="10" fill="none"/><path d="M150.523 98.066l-5.972-10.492" stroke-width="1.2" stroke="#000" stroke-miterlimit="10" fill="none"/><path d="M153.492 103.06h7v11h-7zm0 0" fill="#fff"/><use xlink:href="#b" x="153.492" y="111.722" fill="#00f"/><path d="M144.55 87.574l-12.07-.078" stroke-width="1.2" stroke="#000" stroke-miterlimit="10" fill="none"/><path d="M132.48 87.496l-12.074-.074" stroke-width="1.2" stroke="#00f" stroke-miterlimit="10" fill="none"/><path d="M142.102 93.238l-9.66-.058" stroke-width="1.2" stroke="#000" stroke-miterlimit="10" fill="none"/><path d="M132.44 93.18l-9.655-.063M120.406 87.422l-6.1 10.418" stroke-width="1.2" stroke="#00f" stroke-miterlimit="10" fill="none"/><path d="M114.305 97.84l-6.102 10.418" stroke-width="1.2" stroke="#000" stroke-miterlimit="10" fill="none"/><path d="M117.406 81.922h7v11h-7zm0 0" fill="#fff"/><use xlink:href="#b" x="117.406" y="90.585" fill="#00f"/><path d="M108.203 108.258l11.942 20.984M104.46 113.164l9.556 16.79M84.06 108.105l24.143.153M120.145 129.242l-12.204 20.832M107.94 150.074l-24.14-.148M105.563 144.38l-19.313-.122M83.8 149.926L71.86 128.94M83.8 149.926L71.6 170.758M71.86 128.94l12.2-20.835M77.98 129.727l9.762-16.668M71.598 170.758l-24.145-.15M69.148 176.426l-19.316-.12M83.54 191.742l-11.942-20.984M47.453 170.61l-6.1 10.417" stroke-width="1.2" stroke="#000" stroke-miterlimit="10" fill="none"/><path d="M41.352 181.027L35.25 191.44M35.25 191.44l5.973 10.494" stroke-width="1.2" stroke="#00f" stroke-miterlimit="10" fill="none"/><path d="M41.223 201.934l5.968 10.492" stroke-width="1.2" stroke="#000" stroke-miterlimit="10" fill="none"/><path d="M41.383 190.73l4.777 8.395" stroke-width="1.2" stroke="#00f" stroke-miterlimit="10" fill="none"/><path d="M46.16 199.125l4.774 8.395" stroke-width="1.2" stroke="#000" stroke-miterlimit="10" fill="none"/><path d="M32.25 185.94h7v11h-7zm0 0" fill="#fff"/><use xlink:href="#b" x="32.25" y="194.604" fill="#00f"/><path d="M47.19 212.426l24.146.152M71.336 212.578l12.203-20.836M67.652 207.625l9.762-16.668" stroke-width="1.2" stroke="#000" stroke-miterlimit="10" fill="none"/></g></svg>