<svg xmlns="http://www.w3.org/2000/svg" xmlns:xlink="http://www.w3.org/1999/xlink" width="300pt" height="300pt" viewBox="0 0 300 300"><defs><symbol overflow="visible"><path d="M.547 1.938V-7.75h5.5v9.688zm.625-.61h4.266v-8.47H1.171zm0 0"/></symbol><symbol overflow="visible" id="a"><path d="M1.078-8.016h1.47l3.546 6.704v-6.704h1.062V0H5.688L2.124-6.703V0H1.078zm0 0"/></symbol><symbol overflow="visible" id="b"><path d="M4.328-7.28c-.78 0-1.406.296-1.875.89-.46.585-.687 1.382-.687 2.39 0 1.012.226 1.813.687 2.406.47.586 1.094.875 1.875.875.79 0 1.414-.288 1.875-.874.457-.593.688-1.394.688-2.406 0-1.008-.23-1.805-.687-2.39-.46-.594-1.086-.89-1.875-.89zm0-.892c1.125 0 2.024.383 2.703 1.14C7.708-6.28 8.048-5.27 8.048-4c0 1.262-.34 2.273-1.016 3.03C6.353-.22 5.454.157 4.33.157S2.3-.22 1.625-.97c-.668-.75-1-1.757-1-3.03 0-1.27.332-2.28 1-3.03.676-.76 1.578-1.142 2.703-1.142zm0 0"/></symbol></defs><g><path fill="#fff" d="M0 0h300v300H0z"/><path d="M46.887 161.184l6.29-26.723M53.176 134.46l25.316-10.62M53.207 127.44l20.254-8.495" stroke-width="1.2" stroke="#000" stroke-miterlimit="10" fill="none"/><path d="M35.25 113.664l8.96 10.398" stroke-width="1.2" stroke="#f00" stroke-miterlimit="10" fill="none"/><path d="M44.21 124.063l8.966 10.398M78.492 123.84l-2.28-27.36M78.492 123.84l23.473 14.234M76.21 96.48l-13.358-3.144" stroke-width="1.2" stroke="#000" stroke-miterlimit="10" fill="none"/><path d="M62.852 93.336L49.488 90.19" stroke-width="1.2" stroke="#00f" stroke-miterlimit="10" fill="none"/><path d="M72.06 102.137l-10.69-2.512" stroke-width="1.2" stroke="#000" stroke-miterlimit="10" fill="none"/><path d="M61.37 99.625L50.68 97.11" stroke-width="1.2" stroke="#00f" stroke-miterlimit="10" fill="none"/><path d="M76.21 96.48L97.01 78.555" stroke-width="1.2" stroke="#000" stroke-miterlimit="10" fill="none"/><path d="M49.488 90.19l-7.12 11.74" stroke-width="1.2" stroke="#00f" stroke-miterlimit="10" fill="none"/><path d="M42.367 101.93l-7.117 11.734" stroke-width="1.2" stroke="#f00" stroke-miterlimit="10" fill="none"/><path d="M45.488 83.69h8v13h-8zm0 0" fill="#fff"/><use xlink:href="#a" x="45.488" y="93.593" fill="#00f"/><path d="M31.25 107.164h9v13h-9zm0 0" fill="#fff"/><use xlink:href="#b" x="31.25" y="117.065" fill="#f00"/><path d="M101.965 138.074l-.297 13.727" stroke-width="1.2" stroke="#000" stroke-miterlimit="10" fill="none"/><path d="M101.668 151.8l-.297 13.723" stroke-width="1.2" stroke="#00f" stroke-miterlimit="10" fill="none"/><path d="M108.363 140.96l-.238 10.977" stroke-width="1.2" stroke="#000" stroke-miterlimit="10" fill="none"/><path d="M108.125 151.938l-.238 10.98M126.03 124.867l-12.034 6.606" stroke-width="1.2" stroke="#00f" stroke-miterlimit="10" fill="none"/><path d="M113.996 131.473l-12.03 6.6" stroke-width="1.2" stroke="#000" stroke-miterlimit="10" fill="none"/><path d="M101.37 165.523l11.735 7.118" stroke-width="1.2" stroke="#00f" stroke-miterlimit="10" fill="none"/><path d="M113.105 172.64l11.74 7.122" stroke-width="1.2" stroke="#000" stroke-miterlimit="10" fill="none"/><path d="M97.37 159.023h8v13h-8zm0 0" fill="#fff"/><use xlink:href="#a" x="97.371" y="168.925" fill="#00f"/><path d="M124.844 179.762l-.594 27.445M131.242 182.645l-.476 21.957M148.91 166.55l-24.066 13.212M124.25 207.207l23.473 14.238M147.723 221.445l24.066-13.21M147.02 214.46l19.253-10.565M171.79 208.234l.593-27.445M172.383 180.79l-23.473-14.24M166.688 184.887l-18.782-11.39M148.91 166.55l.594-27.445M149.504 139.105l-11.738-7.12" stroke-width="1.2" stroke="#000" stroke-miterlimit="10" fill="none"/><path d="M137.766 131.984l-11.735-7.117" stroke-width="1.2" stroke="#00f" stroke-miterlimit="10" fill="none"/><path d="M143.805 143.203l-9.387-5.695" stroke-width="1.2" stroke="#000" stroke-miterlimit="10" fill="none"/><path d="M134.418 137.508l-9.39-5.696" stroke-width="1.2" stroke="#00f" stroke-miterlimit="10" fill="none"/><path d="M149.504 139.105l12.03-6.605" stroke-width="1.2" stroke="#000" stroke-miterlimit="10" fill="none"/><path d="M161.535 132.5l12.035-6.605" stroke-width="1.2" stroke="#00f" stroke-miterlimit="10" fill="none"/><path d="M122.03 118.367h8v13h-8zm0 0" fill="#fff"/><use xlink:href="#a" x="122.031" y="128.269" fill="#00f"/><path d="M173.57 125.895l.297-13.723" stroke-width="1.2" stroke="#00f" stroke-miterlimit="10" fill="none"/><path d="M173.867 112.172l.297-13.727" stroke-width="1.2" stroke="#000" stroke-miterlimit="10" fill="none"/><path d="M173.57 125.895l11.74 7.117" stroke-width="1.2" stroke="#00f" stroke-miterlimit="10" fill="none"/><path d="M185.31 133.012l11.733 7.12" stroke-width="1.2" stroke="#000" stroke-miterlimit="10" fill="none"/><path d="M169.57 119.395h8v13h-8zm0 0" fill="#fff"/><use xlink:href="#a" x="169.57" y="129.296" fill="#00f"/><path d="M197.043 140.133l24.066-13.21M221.11 126.922l3.46-27.234M227.863 125.012l2.77-21.785" stroke-width="1.2" stroke="#000" stroke-miterlimit="10" fill="none"/><path d="M245.94 138.63l-12.413-5.853" stroke-width="1.2" stroke="#f00" stroke-miterlimit="10" fill="none"/><path d="M233.527 132.777l-12.418-5.855M224.57 99.688l26.97-5.126M251.54 94.563l13.21 24.066M247.2 100.078l10.566 19.254M264.75 118.63l-9.402 10" stroke-width="1.2" stroke="#000" stroke-miterlimit="10" fill="none"/><path d="M255.348 128.63l-9.407 10" stroke-width="1.2" stroke="#f00" stroke-miterlimit="10" fill="none"/><path d="M241.94 132.13h9v13h-9zm0 0" fill="#fff"/><use xlink:href="#b" x="241.941" y="142.03" fill="#f00"/></g></svg>