<svg xmlns="http://www.w3.org/2000/svg" xmlns:xlink="http://www.w3.org/1999/xlink" width="300pt" height="300pt" viewBox="0 0 300 300"><defs><symbol overflow="visible"><path d="M.594 2.125V-8.47h6V2.126zm.672-.672h4.671V-7.78h-4.67zm0 0"/></symbol><symbol overflow="visible" id="a"><path d="M1.172-8.75h1.594l3.89 7.313V-8.75h1.14V0H6.204L2.328-7.313V0H1.172zm0 0"/></symbol><symbol overflow="visible" id="b"><path d="M1.172-8.75H2.36v3.594h4.296V-8.75h1.188V0H6.656v-4.172H2.36V0H1.17zm0 0"/></symbol><symbol overflow="visible" id="c"><path d="M4.734-7.953c-.867 0-1.554.324-2.062.97-.5.635-.75 1.51-.75 2.624 0 1.094.25 1.965.75 2.61.508.637 1.195.953 2.062.953.852 0 1.532-.316 2.032-.953.507-.645.765-1.516.765-2.61 0-1.113-.257-1.988-.764-2.624-.5-.645-1.18-.97-2.032-.97zm0-.953c1.22 0 2.192.414 2.922 1.234.74.824 1.11 1.93 1.11 3.313 0 1.376-.37 2.477-1.11 3.298C6.926-.24 5.953.17 4.734.17c-1.23 0-2.214-.41-2.953-1.234C1.04-1.882.673-2.984.673-4.36c0-1.382.367-2.488 1.11-3.312.738-.82 1.722-1.234 2.952-1.234zm0 0"/></symbol></defs><g><path fill="#fff" d="M0 0h300v300H0z"/><path d="M45.06 97.793l29.963-5.973M49.46 104.246l23.974-4.777M35.25 126.73l9.81-28.937M75.023 91.82l20.153 22.965M95.176 114.785l-9.81 28.934M87.387 115.37l-7.848 23.15M85.367 143.72l-29.965 5.97M85.367 143.72l20.156 22.964M55.402 149.69L35.25 126.73M58.793 142.652l-16.125-18.37M105.523 166.684l14.98-2.99" stroke-width="1.2" stroke="#000" stroke-miterlimit="10" fill="none"/><path d="M120.504 163.695l14.98-2.984M135.484 160.71l10.078 11.48" stroke-width="1.2" stroke="#00f" stroke-miterlimit="10" fill="none"/><path d="M145.563 172.19l10.078 11.486" stroke-width="1.2" stroke="#000" stroke-miterlimit="10" fill="none"/><path d="M126.484 153.71h18v14h-18zm0 0" fill="#fff"/><g fill="#00f"><use xlink:href="#a" x="126.484" y="164.85"/><use xlink:href="#b" x="135.461" y="164.85"/></g><path d="M155.64 183.676l-4.906 14.465" stroke-width="1.2" stroke="#000" stroke-miterlimit="10" fill="none"/><path d="M150.734 198.14l-4.906 14.47" stroke-width="1.2" stroke="#00f" stroke-miterlimit="10" fill="none"/><path d="M161.465 188.875l-3.922 11.574" stroke-width="1.2" stroke="#000" stroke-miterlimit="10" fill="none"/><path d="M157.543 200.45l-3.926 11.573" stroke-width="1.2" stroke="#00f" stroke-miterlimit="10" fill="none"/><path d="M185.602 177.703l-29.96 5.973" stroke-width="1.2" stroke="#000" stroke-miterlimit="10" fill="none"/><path d="M145.828 212.61l10.078 11.48" stroke-width="1.2" stroke="#00f" stroke-miterlimit="10" fill="none"/><path d="M155.906 224.09l10.078 11.484" stroke-width="1.2" stroke="#000" stroke-miterlimit="10" fill="none"/><path d="M141.828 205.61h9v14h-9zm0 0" fill="#fff"/><use xlink:href="#a" x="141.828" y="216.748" fill="#00f"/><path d="M165.984 235.574l14.98-2.988" stroke-width="1.2" stroke="#000" stroke-miterlimit="10" fill="none"/><path d="M180.965 232.586l14.98-2.984" stroke-width="1.2" stroke="#00f" stroke-miterlimit="10" fill="none"/><path d="M167.574 227.926l11.985-2.39" stroke-width="1.2" stroke="#000" stroke-miterlimit="10" fill="none"/><path d="M179.56 225.535l11.987-2.387M195.945 229.602l4.907-14.47" stroke-width="1.2" stroke="#00f" stroke-miterlimit="10" fill="none"/><path d="M200.852 215.133l4.906-14.47" stroke-width="1.2" stroke="#000" stroke-miterlimit="10" fill="none"/><path d="M191.945 222.602h9v14h-9zm0 0" fill="#fff"/><use xlink:href="#a" x="191.945" y="233.74" fill="#00f"/><path d="M205.758 200.664l-20.156-22.96M209.145 193.625l-16.122-18.367M235.72 194.69l-29.962 5.974M185.602 177.703l9.812-28.937M195.414 148.766l29.96-5.973M199.813 155.22l23.972-4.78M225.375 142.793l20.156 22.965M225.375 142.793l9.813-28.934M245.53 165.758l-9.81 28.933M237.742 166.344l-7.847 23.148M235.188 113.86l-17.645-24.946M239.293 107.215l-14.117-19.957M264.363 104.79l-29.175 9.07M217.543 88.914l9.137-12.242" stroke-width="1.2" stroke="#000" stroke-miterlimit="10" fill="none"/><path d="M226.68 76.672l9.136-12.246M235.816 64.426l14.465 4.906" stroke-width="1.2" stroke="#f00" stroke-miterlimit="10" fill="none"/><path d="M250.28 69.332l14.47 4.906" stroke-width="1.2" stroke="#000" stroke-miterlimit="10" fill="none"/><path d="M230.816 57.426h10v14h-10zm0 0" fill="#fff"/><use xlink:href="#c" x="230.816" y="68.564" fill="#f00"/><path d="M264.75 74.238l-.387 30.55M257.523 77.2l-.312 24.44" stroke-width="1.2" stroke="#000" stroke-miterlimit="10" fill="none"/></g></svg>