<svg xmlns="http://www.w3.org/2000/svg" xmlns:xlink="http://www.w3.org/1999/xlink" width="300pt" height="300pt" viewBox="0 0 300 300"><defs><symbol overflow="visible"><path d="M.453 1.594v-7.938h4.5v7.938zm.5-.5h3.5v-6.938h-3.5zm0 0"/></symbol><symbol overflow="visible" id="a"><path d="M3.547-5.953c-.65 0-1.164.242-1.547.72-.375.48-.563 1.13-.563 1.952 0 .835.188 1.49.563 1.967.383.48.898.72 1.547.72.644 0 1.156-.24 1.53-.72.376-.476.564-1.132.564-1.968 0-.822-.187-1.474-.562-1.954-.375-.477-.887-.72-1.53-.72zm0-.734c.914 0 1.648.312 2.203.937.55.617.828 1.438.828 2.47 0 1.042-.277 1.87-.828 2.483-.555.617-1.29.922-2.203.922-.93 0-1.668-.305-2.22-.922C.774-1.41.5-2.237.5-3.28c0-1.033.273-1.853.828-2.47.55-.625 1.29-.938 2.22-.938zm0 0"/></symbol><symbol overflow="visible" id="b"><path d="M.89-6.563H2.08l2.906 5.485v-5.484h.86V0H4.656L1.75-5.484V0H.89zm0 0"/></symbol><symbol overflow="visible" id="c"><path d="M4.813-6.344v.86c-.336-.157-.653-.27-.954-.344-.294-.082-.58-.125-.86-.125-.492 0-.867.094-1.125.28-.262.19-.39.454-.39.798 0 .293.085.512.265.656.176.15.504.267.984.36l.547.11c.658.125 1.142.352 1.454.672.32.312.485.734.485 1.265 0 .637-.216 1.122-.642 1.454-.43.325-1.055.485-1.875.485-.312 0-.648-.04-1-.11C1.36-.046 1-.147.625-.296v-.906c.352.2.703.35 1.047.453.35.105.695.156 1.03.156.5 0 .884-.097 1.157-.297.28-.196.42-.485.42-.86 0-.32-.1-.57-.296-.75-.2-.176-.523-.313-.968-.406l-.547-.11C1.81-3.148 1.33-3.36 1.03-3.64.74-3.923.595-4.313.595-4.813c0-.57.203-1.024.61-1.36.405-.344.968-.516 1.687-.516.313 0 .626.032.938.094.32.055.65.137.985.25zm0 0"/></symbol></defs><g><path fill="#fff" d="M0 0h300v300H0z"/><path d="M91.813 232.492l7.742-7.953" stroke-width="1.2" stroke="#000" stroke-miterlimit="10" fill="none"/><path d="M99.555 224.54l7.742-7.954M107.297 216.586l-3.02-10.68" stroke-width="1.2" stroke="#f00" stroke-miterlimit="10" fill="none"/><path d="M104.277 205.906l-3.015-10.683" stroke-width="1.2" stroke="#000" stroke-miterlimit="10" fill="none"/><path d="M103.297 211.086h8v11h-8zm0 0" fill="#fff"/><use xlink:href="#a" x="103.297" y="219.749" fill="#f00"/><path d="M101.262 195.223l-21.52-5.453M100.395 189.613L83.18 185.25M116.746 179.316l-15.484 15.907M79.742 189.77l-6.03-21.364M73.71 168.406L89.19 152.5M79 170.457l12.387-12.727M89.19 152.5l21.52 5.453M110.71 157.953l6.036 21.363M106.29 161.508l4.823 17.094M110.71 157.953l15.485-15.906M126.195 142.047l-3.02-10.684" stroke-width="1.2" stroke="#000" stroke-miterlimit="10" fill="none"/><path d="M123.176 131.363l-3.016-10.68M120.16 120.684l7.742-7.954" stroke-width="1.2" stroke="#00f" stroke-miterlimit="10" fill="none"/><path d="M127.902 112.73l7.743-7.953M98.64 115.227l10.762 2.73" stroke-width="1.2" stroke="#000" stroke-miterlimit="10" fill="none"/><path d="M109.402 117.957l10.758 2.727" stroke-width="1.2" stroke="#00f" stroke-miterlimit="10" fill="none"/><path d="M117.16 115.184h7v11h-7zm0 0" fill="#fff"/><use xlink:href="#b" x="117.16" y="123.847" fill="#00f"/><path d="M135.645 104.777l10.757 2.727" stroke-width="1.2" stroke="#000" stroke-miterlimit="10" fill="none"/><path d="M146.402 107.504l10.758 2.726" stroke-width="1.2" stroke="#00f" stroke-miterlimit="10" fill="none"/><path d="M139.078 100.258l8.61 2.183" stroke-width="1.2" stroke="#000" stroke-miterlimit="10" fill="none"/><path d="M147.688 102.44l8.605 2.185" stroke-width="1.2" stroke="#00f" stroke-miterlimit="10" fill="none"/><path d="M129.61 83.414l6.035 21.363" stroke-width="1.2" stroke="#000" stroke-miterlimit="10" fill="none"/><path d="M157.16 110.23l7.742-7.953" stroke-width="1.2" stroke="#00f" stroke-miterlimit="10" fill="none"/><path d="M164.902 102.277l7.743-7.953" stroke-width="1.2" stroke="#000" stroke-miterlimit="10" fill="none"/><path d="M154.16 104.73h7v11h-7zm0 0" fill="#fff"/><use xlink:href="#b" x="154.16" y="113.394" fill="#00f"/><path d="M172.645 94.324l-3.016-10.68" stroke-width="1.2" stroke="#000" stroke-miterlimit="10" fill="none"/><path d="M169.63 83.645l-3.02-10.684" stroke-width="1.2" stroke="#00f" stroke-miterlimit="10" fill="none"/><path d="M167.016 93.61l-2.414-8.547" stroke-width="1.2" stroke="#000" stroke-miterlimit="10" fill="none"/><path d="M164.602 85.063l-2.415-8.543" stroke-width="1.2" stroke="#00f" stroke-miterlimit="10" fill="none"/><path d="M172.645 94.324l10.757 2.727" stroke-width="1.2" stroke="#000" stroke-miterlimit="10" fill="none"/><path d="M183.402 97.05l10.762 2.73" stroke-width="1.2" stroke="#f00" stroke-miterlimit="10" fill="none"/><path d="M166.61 72.96l-10.758-2.726" stroke-width="1.2" stroke="#00f" stroke-miterlimit="10" fill="none"/><path d="M155.852 70.234l-10.758-2.726" stroke-width="1.2" stroke="#000" stroke-miterlimit="10" fill="none"/><path d="M163.61 67.46h7v11h-7zm0 0" fill="#fff"/><use xlink:href="#b" x="163.609" y="76.124" fill="#00f"/><path d="M145.094 67.508L129.61 83.414M147.29 72.742L134.9 85.465M129.61 83.414l-10.758-2.727" stroke-width="1.2" stroke="#000" stroke-miterlimit="10" fill="none"/><path d="M118.852 80.688l-10.762-2.73M108.09 77.957l-7.738 7.953" stroke-width="1.2" stroke="#00f" stroke-miterlimit="10" fill="none"/><path d="M100.352 85.91l-7.743 7.957" stroke-width="1.2" stroke="#000" stroke-miterlimit="10" fill="none"/><path d="M110.285 83.19l-6.19 6.365" stroke-width="1.2" stroke="#00f" stroke-miterlimit="10" fill="none"/><path d="M104.094 89.555l-6.196 6.363" stroke-width="1.2" stroke="#000" stroke-miterlimit="10" fill="none"/><path d="M105.09 72.457h7v11h-7zm0 0" fill="#fff"/><use xlink:href="#b" x="105.09" y="81.12" fill="#00f"/><path d="M92.61 93.867l6.03 21.36M92.61 93.867L71.09 88.41M96.77 113.406l-7.743 7.953" stroke-width="1.2" stroke="#000" stroke-miterlimit="10" fill="none"/><path d="M89.027 121.36l-7.738 7.953" stroke-width="1.2" stroke="#f00" stroke-miterlimit="10" fill="none"/><path d="M100.512 117.05l-7.74 7.954" stroke-width="1.2" stroke="#000" stroke-miterlimit="10" fill="none"/><path d="M92.773 125.004l-7.742 7.953" stroke-width="1.2" stroke="#f00" stroke-miterlimit="10" fill="none"/><path d="M75.16 125.637h8v11h-8zm0 0" fill="#fff"/><use xlink:href="#a" x="75.16" y="134.3" fill="#f00"/><path d="M71.09 88.41l-17.063 14.203M66.043 85.816l-13.648 11.36" stroke-width="1.2" stroke="#000" stroke-miterlimit="10" fill="none"/><path d="M62.855 67.797l4.118 10.305" stroke-width="1.2" stroke="#cc0" stroke-miterlimit="10" fill="none"/><path d="M66.973 78.102L71.09 88.41M54.027 102.613L35.25 90.773M35.25 90.773l5.457-21.515M40.86 89.906l4.363-17.215M40.707 69.258l11.074-.73" stroke-width="1.2" stroke="#000" stroke-miterlimit="10" fill="none"/><path d="M51.78 68.527l11.075-.73" stroke-width="1.2" stroke="#cc0" stroke-miterlimit="10" fill="none"/><path d="M59.855 62.297h6v11h-6zm0 0" fill="#fff"/><use xlink:href="#c" x="59.855" y="70.96" fill="#cc0"/><path d="M194.164 99.78l3.016 10.68" stroke-width="1.2" stroke="#f00" stroke-miterlimit="10" fill="none"/><path d="M197.18 110.46l3.015 10.685" stroke-width="1.2" stroke="#000" stroke-miterlimit="10" fill="none"/><path d="M190.164 94.28h8v11h-8zm0 0" fill="#fff"/><use xlink:href="#a" x="190.164" y="102.944" fill="#f00"/><path d="M200.195 121.145l21.52 5.453M221.715 126.598l6.035 21.363M227.344 127.316l4.828 17.09M237.2 110.69L221.714 126.6M227.75 147.96l21.516 5.458M249.266 153.418l15.484-15.91M247.07 148.184l12.387-12.727M264.75 137.508l-6.035-21.36M258.715 116.148L237.2 110.69M255.28 120.664l-17.214-4.363" stroke-width="1.2" stroke="#000" stroke-miterlimit="10" fill="none"/></g></svg>