<svg xmlns="http://www.w3.org/2000/svg" xmlns:xlink="http://www.w3.org/1999/xlink" width="300pt" height="300pt" viewBox="0 0 300 300"><defs><symbol overflow="visible"><path d="M.547 1.938V-7.75h5.5v9.688zm.625-.61h4.266v-8.47H1.171zm0 0"/></symbol><symbol overflow="visible" id="a"><path d="M1.078-8.016h1.47l3.546 6.704v-6.704h1.062V0H5.688L2.124-6.703V0H1.078zm0 0"/></symbol><symbol overflow="visible" id="b"><path d="M1.078-8.016h1.094v3.282H6.11v-3.282h1.077V0H6.11v-3.813H2.17V0H1.078zm0 0"/></symbol><symbol overflow="visible" id="c"><path d="M4.328-7.28c-.78 0-1.406.296-1.875.89-.46.585-.687 1.382-.687 2.39 0 1.012.226 1.813.687 2.406.47.586 1.094.875 1.875.875.79 0 1.414-.288 1.875-.874.457-.593.688-1.394.688-2.406 0-1.008-.23-1.805-.687-2.39-.46-.594-1.086-.89-1.875-.89zm0-.892c1.125 0 2.024.383 2.703 1.14C7.708-6.28 8.048-5.27 8.048-4c0 1.262-.34 2.273-1.016 3.03C6.353-.22 5.454.157 4.33.157S2.3-.22 1.625-.97c-.668-.75-1-1.757-1-3.03 0-1.27.332-2.28 1-3.03.676-.76 1.578-1.142 2.703-1.142zm0 0"/></symbol><symbol overflow="visible" id="d"><path d="M5.89-7.75v1.047c-.417-.195-.808-.344-1.17-.438-.368-.094-.72-.14-1.064-.14-.586 0-1.04.116-1.36.343-.323.23-.483.554-.483.968 0 .357.1.626.312.814.22.18.625.324 1.22.437L4-4.593c.813.157 1.41.434 1.797.828.383.387.578.903.578 1.547 0 .783-.262 1.376-.78 1.783-.525.398-1.29.593-2.298.593-.375 0-.78-.047-1.22-.14C1.648-.066 1.208-.19.75-.36v-1.11c.445.25.88.44 1.297.564.426.125.844.187 1.25.187.625 0 1.1-.116 1.437-.358.332-.25.5-.598.5-1.047 0-.395-.12-.703-.36-.922-.24-.226-.636-.398-1.186-.515l-.657-.126c-.81-.156-1.4-.406-1.764-.75C.898-4.78.72-5.258.72-5.875c0-.707.25-1.266.75-1.672.5-.414 1.19-.625 2.077-.625.375 0 .754.04 1.14.11.395.074.797.18 1.204.312zm0 0"/></symbol></defs><g><path fill="#fff" d="M0 0h300v300H0z"/><path d="M35.25 92.406l26.832-.18M62.082 92.227l6.785 11.574" stroke-width="1.2" stroke="#000" stroke-miterlimit="10" fill="none"/><path d="M68.867 103.8l6.785 11.57M75.652 115.37l13.414-.09" stroke-width="1.2" stroke="#00f" stroke-miterlimit="10" fill="none"/><path d="M89.066 115.28l13.414-.09" stroke-width="1.2" stroke="#000" stroke-miterlimit="10" fill="none"/><path d="M67.652 108.87h17v13h-17zm0 0" fill="#fff"/><g fill="#00f"><use xlink:href="#a" x="67.652" y="118.772"/><use xlink:href="#b" x="75.636" y="118.772"/></g><path d="M102.48 115.19l6.63-11.663" stroke-width="1.2" stroke="#000" stroke-miterlimit="10" fill="none"/><path d="M109.11 103.527l6.632-11.66" stroke-width="1.2" stroke="#00f" stroke-miterlimit="10" fill="none"/><path d="M109.297 115.98l5.3-9.332" stroke-width="1.2" stroke="#000" stroke-miterlimit="10" fill="none"/><path d="M114.598 106.648l5.304-9.328M116.05 138.336l-6.784-11.57" stroke-width="1.2" stroke="#00f" stroke-miterlimit="10" fill="none"/><path d="M109.266 126.766l-6.786-11.575" stroke-width="1.2" stroke="#000" stroke-miterlimit="10" fill="none"/><path d="M115.742 91.867l13.414-.09" stroke-width="1.2" stroke="#00f" stroke-miterlimit="10" fill="none"/><path d="M129.156 91.777l13.414-.09" stroke-width="1.2" stroke="#000" stroke-miterlimit="10" fill="none"/><path d="M111.742 85.367h8v13h-8zm0 0" fill="#fff"/><use xlink:href="#a" x="111.742" y="95.269" fill="#00f"/><path d="M142.57 91.688l13.57 23.144M138.48 97.195l10.86 18.516M156.14 114.832l-13.257 23.324" stroke-width="1.2" stroke="#000" stroke-miterlimit="10" fill="none"/><path d="M182.973 114.652l-13.418.09" stroke-width="1.2" stroke="#00f" stroke-miterlimit="10" fill="none"/><path d="M169.555 114.742l-13.414.09M142.883 138.156l-13.414.09" stroke-width="1.2" stroke="#000" stroke-miterlimit="10" fill="none"/><path d="M129.47 138.246l-13.42.09" stroke-width="1.2" stroke="#00f" stroke-miterlimit="10" fill="none"/><path d="M140.156 131.863l-10.73.07" stroke-width="1.2" stroke="#000" stroke-miterlimit="10" fill="none"/><path d="M129.426 131.934l-10.735.074" stroke-width="1.2" stroke="#00f" stroke-miterlimit="10" fill="none"/><path d="M142.883 138.156l6.785 11.574" stroke-width="1.2" stroke="#000" stroke-miterlimit="10" fill="none"/><path d="M149.668 149.73l6.785 11.575" stroke-width="1.2" stroke="#00f" stroke-miterlimit="10" fill="none"/><path d="M112.05 131.836h8v13h-8zm0 0" fill="#fff"/><use xlink:href="#a" x="112.051" y="141.737" fill="#00f"/><path d="M156.453 161.305l13.414-.094" stroke-width="1.2" stroke="#00f" stroke-miterlimit="10" fill="none"/><path d="M169.867 161.21l13.418-.09" stroke-width="1.2" stroke="#000" stroke-miterlimit="10" fill="none"/><path d="M156.453 161.305l-6.63 11.66" stroke-width="1.2" stroke="#00f" stroke-miterlimit="10" fill="none"/><path d="M149.824 172.965l-6.63 11.664" stroke-width="1.2" stroke="#000" stroke-miterlimit="10" fill="none"/><path d="M152.453 154.805h8v13h-8zm0 0" fill="#fff"/><use xlink:href="#a" x="152.453" y="164.706" fill="#00f"/><path d="M180.56 162.72l6.788 11.573" stroke-width="1.2" stroke="#000" stroke-miterlimit="10" fill="none"/><path d="M187.348 174.293l6.785 11.57" stroke-width="1.2" stroke="#f00" stroke-miterlimit="10" fill="none"/><path d="M186.008 159.527l6.785 11.57" stroke-width="1.2" stroke="#000" stroke-miterlimit="10" fill="none"/><path d="M192.793 171.098l6.785 11.574" stroke-width="1.2" stroke="#f00" stroke-miterlimit="10" fill="none"/><path d="M183.285 161.12l13.258-23.323" stroke-width="1.2" stroke="#000" stroke-miterlimit="10" fill="none"/><path d="M192.855 177.77h9v13h-9zm0 0" fill="#fff"/><use xlink:href="#c" x="192.855" y="187.671" fill="#f00"/><path d="M196.543 137.797l-6.785-11.574" stroke-width="1.2" stroke="#000" stroke-miterlimit="10" fill="none"/><path d="M189.758 126.223l-6.785-11.57" stroke-width="1.2" stroke="#00f" stroke-miterlimit="10" fill="none"/><path d="M189.738 138.676l-5.425-9.258" stroke-width="1.2" stroke="#000" stroke-miterlimit="10" fill="none"/><path d="M184.313 129.418l-5.43-9.258" stroke-width="1.2" stroke="#00f" stroke-miterlimit="10" fill="none"/><path d="M196.543 137.797l26.828-.18" stroke-width="1.2" stroke="#000" stroke-miterlimit="10" fill="none"/><path d="M178.973 108.152h8v13h-8zm0 0" fill="#fff"/><use xlink:href="#a" x="178.973" y="118.054" fill="#00f"/><path d="M223.37 137.617l15.626-21.812M230.066 139.113l12.5-17.45" stroke-width="1.2" stroke="#000" stroke-miterlimit="10" fill="none"/><path d="M239.29 159.22l-7.958-10.802" stroke-width="1.2" stroke="#cc0" stroke-miterlimit="10" fill="none"/><path d="M231.332 148.418l-7.96-10.8M238.996 115.805l25.574 8.12M264.57 123.926l.18 26.828M258.273 126.652l.145 21.46M264.75 150.754l-12.73 4.234" stroke-width="1.2" stroke="#000" stroke-miterlimit="10" fill="none"/><path d="M252.02 154.988l-12.73 4.23" stroke-width="1.2" stroke="#cc0" stroke-miterlimit="10" fill="none"/><path d="M236.29 152.72h7v13h-7zm0 0" fill="#fff"/><use xlink:href="#d" x="236.289" y="162.62" fill="#cc0"/><path d="M143.195 184.63l-26.832.18M116.363 184.81l-13.57-23.146M109.563 185.688l-10.86-18.516M103.105 208.133l13.258-23.324M102.793 161.664l-26.832.18M75.96 161.844l-13.257 23.324M80.125 167.297l-10.605 18.66M75.96 161.844l-6.784-11.574" stroke-width="1.2" stroke="#000" stroke-miterlimit="10" fill="none"/><path d="M69.176 150.27l-6.785-11.575" stroke-width="1.2" stroke="#f00" stroke-miterlimit="10" fill="none"/><path d="M62.703 185.168l13.57 23.144M76.273 208.313l26.832-.18M78.914 201.984l21.465-.144" stroke-width="1.2" stroke="#000" stroke-miterlimit="10" fill="none"/><path d="M62.39 138.695l-13.413.094" stroke-width="1.2" stroke="#f00" stroke-miterlimit="10" fill="none"/><path d="M48.977 138.79l-13.414.09" stroke-width="1.2" stroke="#000" stroke-miterlimit="10" fill="none"/><path d="M58.39 132.195h9v13h-9zm0 0" fill="#fff"/><use xlink:href="#c" x="58.391" y="142.097" fill="#f00"/></g></svg>