<svg xmlns="http://www.w3.org/2000/svg" xmlns:xlink="http://www.w3.org/1999/xlink" width="300pt" height="300pt" viewBox="0 0 300 300"><defs><symbol overflow="visible"><path d="M.64 2.297v-11.47h6.5v11.47zm.735-.72h5.047V-8.436H1.375zm0 0"/></symbol><symbol overflow="visible" id="a"><path d="M1.28-9.484H3l4.203 7.937v-7.937h1.25V0H6.72L2.515-7.922V0H1.28zm0 0"/></symbol><symbol overflow="visible" id="b"><path d="M5.125-8.61c-.938 0-1.684.352-2.234 1.047-.542.688-.812 1.633-.812 2.83 0 1.198.27 2.147.813 2.842.55.687 1.297 1.03 2.235 1.03.926 0 1.66-.343 2.203-1.03.55-.696.828-1.645.828-2.844 0-1.196-.277-2.14-.828-2.829-.543-.695-1.277-1.046-2.203-1.046zm0-1.046c1.32 0 2.38.45 3.172 1.344.8.898 1.203 2.09 1.203 3.578 0 1.5-.402 2.7-1.203 3.593C7.504-.255 6.445.186 5.125.186c-1.336 0-2.402-.44-3.203-1.328C1.13-2.036.734-3.235.734-4.735c0-1.49.395-2.68 1.188-3.579.8-.894 1.867-1.343 3.203-1.343zm0 0"/></symbol><symbol overflow="visible" id="c"><path d="M1.28-9.484h1.282v3.89H7.22v-3.89H8.5V0H7.22v-4.516H2.562V0H1.28zm0 0"/></symbol><symbol overflow="visible" id="d"><path d="M6.953-9.172v1.25c-.48-.226-.937-.398-1.375-.516-.43-.113-.844-.17-1.25-.17-.7 0-1.242.135-1.625.405-.375.273-.562.656-.562 1.156 0 .418.126.734.376.953.257.21.738.383 1.437.516l.78.156c.947.188 1.65.512 2.11.97.458.46.688 1.073.688 1.843 0 .92-.307 1.618-.92 2.094-.618.47-1.524.704-2.72.704-.45 0-.93-.055-1.437-.157C1.953-.07 1.43-.222.89-.42v-1.312c.52.293 1.032.51 1.532.656.5.148.988.22 1.47.22.737 0 1.303-.142 1.702-.423.394-.29.593-.704.593-1.236 0-.468-.148-.832-.437-1.093-.28-.257-.746-.456-1.39-.593l-.782-.156c-.96-.187-1.652-.484-2.078-.89-.43-.406-.64-.97-.64-1.688 0-.843.288-1.503.874-1.984.594-.488 1.41-.734 2.454-.734.437 0 .882.043 1.343.125.47.085.943.202 1.423.358zm0 0"/></symbol></defs><g><path fill="#fff" d="M0 0h300v300H0z"/><path d="M264.75 200.984l-15.125-7.238" stroke-width="1.2" stroke="#000" stroke-miterlimit="10" fill="none"/><path d="M249.625 193.746l-15.125-7.234M234.5 186.512l-13.828 9.48" stroke-width="1.2" stroke="#00f" stroke-miterlimit="10" fill="none"/><path d="M220.672 195.992l-13.832 9.48" stroke-width="1.2" stroke="#000" stroke-miterlimit="10" fill="none"/><path d="M234.5 186.512l-1.297-16.72" stroke-width="1.2" stroke="#00f" stroke-miterlimit="10" fill="none"/><path d="M233.203 169.793l-1.293-16.715" stroke-width="1.2" stroke="#000" stroke-miterlimit="10" fill="none"/><path d="M229.5 178.512h10v16h-10zm0 0" fill="#fff"/><use xlink:href="#a" x="229.5" y="190.888" fill="#00f"/><path d="M234.14 156.332l13.83-9.48" stroke-width="1.2" stroke="#000" stroke-miterlimit="10" fill="none"/><path d="M247.97 146.852l13.827-9.48" stroke-width="1.2" stroke="#f00" stroke-miterlimit="10" fill="none"/><path d="M229.68 149.824l13.828-9.48" stroke-width="1.2" stroke="#000" stroke-miterlimit="10" fill="none"/><path d="M243.508 140.344l13.828-9.48" stroke-width="1.2" stroke="#f00" stroke-miterlimit="10" fill="none"/><path d="M231.91 153.078l-30.25-14.473" stroke-width="1.2" stroke="#000" stroke-miterlimit="10" fill="none"/><path d="M254.566 126.117h11v16h-11zm0 0" fill="#fff"/><use xlink:href="#b" x="254.566" y="138.493" fill="#f00"/><path d="M201.66 138.605L174 157.565M194.434 133.992l-22.13 15.168M199.066 105.172l2.594 33.433M174 157.566l-30.25-14.472M143.75 143.094l-2.59-33.434M151.36 139.14l-2.075-26.745M141.16 109.66l27.656-18.96M141.16 109.66l-30.25-14.472M168.816 90.7l30.25 14.472M168.438 99.262l24.2 11.578M110.91 95.188l-2.59-33.434M102.785 92.453l-2.074-26.746M83.25 114.148l27.66-18.96M108.32 61.754l-15.125-7.238" stroke-width="1.2" stroke="#000" stroke-miterlimit="10" fill="none"/><path d="M93.195 54.516L78.07 47.28M78.07 47.28l-13.832 9.482" stroke-width="1.2" stroke="#00f" stroke-miterlimit="10" fill="none"/><path d="M64.238 56.762l-13.828 9.48" stroke-width="1.2" stroke="#000" stroke-miterlimit="10" fill="none"/><path d="M79.766 55.684L68.7 63.27" stroke-width="1.2" stroke="#00f" stroke-miterlimit="10" fill="none"/><path d="M68.7 63.27l-11.063 7.582" stroke-width="1.2" stroke="#000" stroke-miterlimit="10" fill="none"/><path d="M73.07 39.28h10v16h-10zm0 0" fill="#fff"/><use xlink:href="#a" x="73.07" y="51.657" fill="#00f"/><path d="M50.41 66.242l1.297 16.715" stroke-width="1.2" stroke="#000" stroke-miterlimit="10" fill="none"/><path d="M51.707 82.957L53 99.677M53 99.676l15.125 7.234" stroke-width="1.2" stroke="#00f" stroke-miterlimit="10" fill="none"/><path d="M68.125 106.91l15.125 7.238" stroke-width="1.2" stroke="#000" stroke-miterlimit="10" fill="none"/><path d="M59.434 94.004l12.097 5.79" stroke-width="1.2" stroke="#00f" stroke-miterlimit="10" fill="none"/><path d="M71.53 99.793l12.103 5.79" stroke-width="1.2" stroke="#000" stroke-miterlimit="10" fill="none"/><path d="M48 91.676h10v16H48zm0 0" fill="#fff"/><use xlink:href="#a" x="48" y="104.052" fill="#00f"/><path d="M83.25 114.148l1.297 16.715" stroke-width="1.2" stroke="#000" stroke-miterlimit="10" fill="none"/><path d="M84.547 130.863l1.297 16.72M85.844 147.582l-13.832 9.48" stroke-width="1.2" stroke="#00f" stroke-miterlimit="10" fill="none"/><path d="M72.012 157.063l-13.828 9.48" stroke-width="1.2" stroke="#000" stroke-miterlimit="10" fill="none"/><path d="M75.844 139.582h20v16h-20zm0 0" fill="#fff"/><g fill="#00f"><use xlink:href="#a" x="75.844" y="151.958"/><use xlink:href="#c" x="85.813" y="151.958"/></g><path d="M58.184 166.543l2.59 33.434M60.773 199.977l28.575 17.554M59.5 208.453l22.86 14.043" stroke-width="1.2" stroke="#000" stroke-miterlimit="10" fill="none"/><path d="M35.25 221.723l12.762-10.875" stroke-width="1.2" stroke="#cc0" stroke-miterlimit="10" fill="none"/><path d="M48.012 210.848l12.76-10.87M89.348 217.53l-7.868 32.6M81.48 250.13l-33.433 2.59M77.527 242.52l-26.746 2.074M48.047 252.72l-6.4-15.497" stroke-width="1.2" stroke="#000" stroke-miterlimit="10" fill="none"/><path d="M41.648 237.223l-6.398-15.5" stroke-width="1.2" stroke="#cc0" stroke-miterlimit="10" fill="none"/><path d="M31.25 213.723h9v16h-9zm0 0" fill="#fff"/><use xlink:href="#d" x="31.25" y="226.099" fill="#cc0"/></g></svg>