<svg xmlns="http://www.w3.org/2000/svg" xmlns:xlink="http://www.w3.org/1999/xlink" width="300pt" height="300pt" viewBox="0 0 300 300"><defs><symbol overflow="visible"><path d="M.594 2.125V-8.47h6V2.126zm.672-.672h4.671V-7.78h-4.67zm0 0"/></symbol><symbol overflow="visible" id="a"><path d="M1.172-8.75h1.594l3.89 7.313V-8.75h1.14V0H6.204L2.328-7.313V0H1.172zm0 0"/></symbol><symbol overflow="visible" id="b"><path d="M1.172-8.75H2.36v3.594h4.296V-8.75h1.188V0H6.656v-4.172H2.36V0H1.17zm0 0"/></symbol></defs><g><path fill="#fff" d="M0 0h300v300H0z"/><path d="M264.75 127.293l-15.54 25.672M250.285 101l14.465 26.293" stroke-width="1.2" stroke="#000" stroke-miterlimit="10" fill="none"/><path d="M219.207 152.344m2.94.586l.025-1.043m2.922 1.625l.043-2.086m2.898 2.668l.067-3.13m2.875 3.712l.085-4.172m2.86 4.754l.105-5.215m2.836 5.797l.13-6.254m2.816 6.836l.147-7.297m2.793 7.88l.172-8.34m2.77 8.92l.195-9.382m2.75 9.965l.215-10.422m.25 10.516l.218-10.59" stroke="#000" stroke-miterlimit="10" fill="none"/><path d="M219.207 152.344l11.637 27.664M219.207 152.344l-14.465-26.293M189.3 154.863l29.907-2.52M230.844 180.008L208.13 199.62M208.13 199.62l-12.837-7.768" stroke-width="1.2" stroke="#000" stroke-miterlimit="10" fill="none"/><path d="M195.293 191.852l-12.836-7.77M182.457 184.082l3.422-14.61" stroke-width="1.2" stroke="#00f" stroke-miterlimit="10" fill="none"/><path d="M185.88 169.473l3.42-14.61" stroke-width="1.2" stroke="#000" stroke-miterlimit="10" fill="none"/><path d="M182.457 184.082l-13.832 5.82" stroke-width="1.2" stroke="#00f" stroke-miterlimit="10" fill="none"/><path d="M168.625 189.902l-13.832 5.817" stroke-width="1.2" stroke="#000" stroke-miterlimit="10" fill="none"/><path d="M178.457 177.082h9v14h-9zm0 0" fill="#fff"/><use xlink:href="#a" x="178.457" y="188.221" fill="#00f"/><path d="M154.793 195.72l-23.91-18.138M130.883 177.582l3.754-29.777M124.254 173.72l3.004-23.818M103.223 189.22l27.66-11.638M134.637 147.805l-23.907-18.137M110.73 129.668l-27.664 11.637M110.703 137.34l-22.133 9.308M83.066 141.305l-3.754 29.773M83.066 141.305L59.16 123.168M79.313 171.078l23.91 18.14M85.973 167.266l19.125 14.51M59.16 123.168l-11.957-9.07" stroke-width="1.2" stroke="#000" stroke-miterlimit="10" fill="none"/><path d="M47.203 114.098l-11.953-9.07" stroke-width="1.2" stroke="#00f" stroke-miterlimit="10" fill="none"/><path d="M61.035 115.727l-9.562-7.254" stroke-width="1.2" stroke="#000" stroke-miterlimit="10" fill="none"/><path d="M51.473 108.473l-9.563-7.258" stroke-width="1.2" stroke="#00f" stroke-miterlimit="10" fill="none"/><path d="M52.5 126.977l-9.563-7.254" stroke-width="1.2" stroke="#000" stroke-miterlimit="10" fill="none"/><path d="M42.938 119.723l-9.567-7.254" stroke-width="1.2" stroke="#00f" stroke-miterlimit="10" fill="none"/><path d="M26.25 98.027h9v14h-9zm0 0" fill="#fff"/><use xlink:href="#a" x="26.25" y="109.166" fill="#00f"/><path d="M204.742 126.05l7.77-12.835" stroke-width="1.2" stroke="#000" stroke-miterlimit="10" fill="none"/><path d="M212.512 113.215l7.77-12.836M220.28 100.38l15.005.308" stroke-width="1.2" stroke="#00f" stroke-miterlimit="10" fill="none"/><path d="M235.285 100.688l15 .312" stroke-width="1.2" stroke="#000" stroke-miterlimit="10" fill="none"/><path d="M211.28 93.38h18v14h-18zm0 0" fill="#fff"/><g fill="#00f"><use xlink:href="#a" x="211.281" y="104.518"/><use xlink:href="#b" x="220.258" y="104.518"/></g></g></svg>