<svg xmlns="http://www.w3.org/2000/svg" xmlns:xlink="http://www.w3.org/1999/xlink" width="300pt" height="300pt" viewBox="0 0 300 300"><defs><symbol overflow="visible"><path d="M.453 1.594v-7.938h4.5v7.938zm.5-.5h3.5v-6.938h-3.5zm0 0"/></symbol><symbol overflow="visible" id="a"><path d="M3.547-5.953c-.65 0-1.164.242-1.547.72-.375.48-.563 1.13-.563 1.952 0 .835.188 1.49.563 1.967.383.48.898.72 1.547.72.644 0 1.156-.24 1.53-.72.376-.476.564-1.132.564-1.968 0-.822-.187-1.474-.562-1.954-.375-.477-.887-.72-1.53-.72zm0-.734c.914 0 1.648.312 2.203.937.55.617.828 1.438.828 2.47 0 1.042-.277 1.87-.828 2.483-.555.617-1.29.922-2.203.922-.93 0-1.668-.305-2.22-.922C.774-1.41.5-2.237.5-3.28c0-1.033.273-1.853.828-2.47.55-.625 1.29-.938 2.22-.938zm0 0"/></symbol><symbol overflow="visible" id="b"><path d="M.89-6.563H2.08l2.906 5.485v-5.484h.86V0H4.656L1.75-5.484V0H.89zm0 0"/></symbol><symbol overflow="visible" id="c"><path d="M.89-6.563h3.766v.75h-2.89v1.938h2.61v.734h-2.61V0H.89zm0 0"/></symbol></defs><g><path fill="#fff" d="M0 0h300v300H0z"/><path d="M175.19 103.777L176.767 115" stroke-width="1.2" stroke="#000" stroke-miterlimit="10" fill="none"/><path d="M176.766 115l1.57 11.223M178.336 126.223l10.504 4.25" stroke-width="1.2" stroke="#f00" stroke-miterlimit="10" fill="none"/><path d="M188.84 130.473l10.508 4.25" stroke-width="1.2" stroke="#000" stroke-miterlimit="10" fill="none"/><path d="M174.336 120.723h8v11h-8zm0 0" fill="#fff"/><use xlink:href="#a" x="174.336" y="129.386" fill="#f00"/><path d="M201.45 136.367l4.12-5.273" stroke-width="1.2" stroke="#000" stroke-miterlimit="10" fill="none"/><path d="M205.57 131.094l4.12-5.27" stroke-width="1.2" stroke="#f00" stroke-miterlimit="10" fill="none"/><path d="M197.246 133.082l4.12-5.273" stroke-width="1.2" stroke="#000" stroke-miterlimit="10" fill="none"/><path d="M201.367 127.81l4.125-5.27" stroke-width="1.2" stroke="#f00" stroke-miterlimit="10" fill="none"/><path d="M202.492 157.172m.106-3l-1.032.144m1.137-3.14l-2.062.29m2.173-3.29l-3.098.433m3.203-3.43l-4.133.578m4.238-3.578l-5.164.722m5.27-3.718l-6.196.867m6.304-3.866l-7.23 1.01m7.3-3.026l-7.92 1.11" stroke="#000" stroke-miterlimit="10" fill="none"/><path d="M203.59 118.68h8v11h-8zm0 0" fill="#fff"/><use xlink:href="#a" x="203.59" y="127.343" fill="#f00"/><path d="M202.492 157.172l-22.652.78M202.492 157.172l21.992-5.477" stroke-width="1.2" stroke="#000" stroke-miterlimit="10" fill="none"/><path d="M210.234 178.473l-3.87-10.653" stroke-width="1.2" stroke="#00f" stroke-miterlimit="10" fill="none"/><path d="M206.363 167.82l-3.87-10.648M179.84 157.953l-6.258 21.78" stroke-width="1.2" stroke="#000" stroke-miterlimit="10" fill="none"/><path d="M179.84 157.953m-2.156-2.086l-.586.863m-1.57-2.95l-1.17 1.728m-.987-3.813l-1.753 2.594m-.406-4.68l-2.33 3.456m.175-5.543l-2.918 4.325m.76-6.407l-3.5 5.185m1.345-7.27l-4.086 6.047m2.637-7.45l-4.477 6.63M173.582 179.734m-2.97-.418l.036 1.043m-3.007-1.462l.075 2.082m-3.043-2.503l.105 3.128m-3.078-3.546l.144 4.167m-3.114-4.586l.18 5.212m-3.152-5.633l.22 6.253m-3.19-6.672l.25 7.298m-2.245-7.578l.277 7.996" stroke="#000" stroke-miterlimit="10" fill="none"/><path d="M173.582 179.734l18.785 12.684M150.93 180.516l-7.743-21.3M143.188 159.215l17.867-13.945M141.69 153.617l14.298-11.156" stroke-width="1.2" stroke="#000" stroke-miterlimit="10" fill="none"/><path d="M124.402 146.53l9.395 6.345" stroke-width="1.2" stroke="#00f" stroke-miterlimit="10" fill="none"/><path d="M133.797 152.875l9.39 6.34M161.055 145.27l-7.743-21.305M153.313 123.965l-22.653.78M151.23 129.375l-18.12.625M130.66 124.746l-3.13 10.895" stroke-width="1.2" stroke="#000" stroke-miterlimit="10" fill="none"/><path d="M127.53 135.64l-3.128 10.89" stroke-width="1.2" stroke="#00f" stroke-miterlimit="10" fill="none"/><path d="M130.66 124.746l-13.945-17.863" stroke-width="1.2" stroke="#000" stroke-miterlimit="10" fill="none"/><path d="M124.402 146.53l-10.648 3.872" stroke-width="1.2" stroke="#00f" stroke-miterlimit="10" fill="none"/><path d="M113.754 150.402l-10.652 3.87" stroke-width="1.2" stroke="#000" stroke-miterlimit="10" fill="none"/><path d="M121.402 141.03h7v11h-7zm0 0" fill="#fff"/><use xlink:href="#b" x="121.402" y="149.694" fill="#00f"/><path d="M103.102 154.273l-3.946 22.32M99.156 176.594l-21.3 7.742M98.848 182.38l-17.043 6.194M116.512 191.172l-17.356-14.578M77.855 184.336l-3.95 22.32" stroke-width="1.2" stroke="#000" stroke-miterlimit="10" fill="none"/><path d="M60.496 169.762l8.68 7.285" stroke-width="1.2" stroke="#f00" stroke-miterlimit="10" fill="none"/><path d="M69.176 177.047l8.68 7.29M73.906 206.656l17.36 14.578M79.074 204.03l13.883 11.66M73.906 206.656l-21.3 7.742M91.266 221.234l21.3-7.746M112.566 213.488l3.946-22.316M107.71 210.328l3.157-17.855M112.566 213.488l8.68 7.29" stroke-width="1.2" stroke="#000" stroke-miterlimit="10" fill="none"/><path d="M121.246 220.777l8.676 7.29" stroke-width="1.2" stroke="#3cc" stroke-miterlimit="10" fill="none"/><path d="M126.922 222.566h6v11h-6zm0 0" fill="#fff"/><use xlink:href="#c" x="126.922" y="231.229" fill="#3cc"/><path d="M52.605 214.398l-8.675-7.29" stroke-width="1.2" stroke="#000" stroke-miterlimit="10" fill="none"/><path d="M43.93 207.11l-8.68-7.29M35.25 199.82l1.973-11.16" stroke-width="1.2" stroke="#f00" stroke-miterlimit="10" fill="none"/><path d="M37.223 188.66l1.972-11.156" stroke-width="1.2" stroke="#000" stroke-miterlimit="10" fill="none"/><path d="M31.25 194.32h8v11h-8zm0 0" fill="#fff"/><use xlink:href="#a" x="31.25" y="202.983" fill="#f00"/><path d="M39.195 177.504l10.653-3.87" stroke-width="1.2" stroke="#000" stroke-miterlimit="10" fill="none"/><path d="M49.848 173.633l10.648-3.87" stroke-width="1.2" stroke="#f00" stroke-miterlimit="10" fill="none"/><path d="M56.496 164.262h8v11h-8zm0 0" fill="#fff"/><use xlink:href="#a" x="56.496" y="172.925" fill="#f00"/><path d="M116.344 104.242l-11.223 1.57" stroke-width="1.2" stroke="#000" stroke-miterlimit="10" fill="none"/><path d="M105.12 105.813l-11.222 1.57" stroke-width="1.2" stroke="#f00" stroke-miterlimit="10" fill="none"/><path d="M117.086 109.523l-11.227 1.57" stroke-width="1.2" stroke="#000" stroke-miterlimit="10" fill="none"/><path d="M105.86 111.094l-11.223 1.574" stroke-width="1.2" stroke="#f00" stroke-miterlimit="10" fill="none"/><path d="M116.715 106.883l4.25-10.508" stroke-width="1.2" stroke="#000" stroke-miterlimit="10" fill="none"/><path d="M120.965 96.375l4.25-10.504" stroke-width="1.2" stroke="#00f" stroke-miterlimit="10" fill="none"/><path d="M86.27 104.523h8v11h-8zm0 0" fill="#fff"/><use xlink:href="#a" x="86.27" y="113.187" fill="#f00"/><path d="M125.215 85.87l-6-9.612" stroke-width="1.2" stroke="#00f" stroke-miterlimit="10" fill="none"/><path d="M119.215 76.258l-6.004-9.613M147.207 80.395l-10.996 2.738" stroke-width="1.2" stroke="#000" stroke-miterlimit="10" fill="none"/><path d="M136.21 83.133l-10.995 2.738" stroke-width="1.2" stroke="#00f" stroke-miterlimit="10" fill="none"/><path d="M122.215 80.37h7v11h-7zm0 0" fill="#fff"/><use xlink:href="#b" x="122.215" y="89.034" fill="#00f"/><path d="M113.21 66.645l14.58-17.36M127.79 49.285l21.01 8.5M148.8 57.785l-1.593 22.61M192.367 192.418l8.934-6.973" stroke-width="1.2" stroke="#000" stroke-miterlimit="10" fill="none"/><path d="M201.3 185.445l8.934-6.972M210.234 178.473l10.89 3.13" stroke-width="1.2" stroke="#00f" stroke-miterlimit="10" fill="none"/><path d="M221.125 181.602l10.895 3.128" stroke-width="1.2" stroke="#000" stroke-miterlimit="10" fill="none"/><path d="M207.234 172.973h7v11h-7zm0 0" fill="#fff"/><use xlink:href="#b" x="207.234" y="181.636" fill="#00f"/><path d="M233.87 186.648l8.157-7.867" stroke-width="1.2" stroke="#000" stroke-miterlimit="10" fill="none"/><path d="M242.027 178.78l8.153-7.87" stroke-width="1.2" stroke="#f00" stroke-miterlimit="10" fill="none"/><path d="M230.168 182.81l8.156-7.87" stroke-width="1.2" stroke="#000" stroke-miterlimit="10" fill="none"/><path d="M238.324 174.94l8.153-7.866" stroke-width="1.2" stroke="#f00" stroke-miterlimit="10" fill="none"/><path d="M232.02 184.73l5.472 21.993" stroke-width="1.2" stroke="#000" stroke-miterlimit="10" fill="none"/><path d="M244.328 163.492h8v11h-8zm0 0" fill="#fff"/><use xlink:href="#a" x="244.328" y="172.155" fill="#f00"/><path d="M237.492 206.723L221.18 222.46M239.563 212.137l-13.047 12.59M259.277 212.98l-21.785-6.257M221.18 222.46l5.476 21.997M226.656 244.457l21.78 6.258M230.305 239.957l17.43 5.004M248.438 250.715l16.312-15.738M264.75 234.977l-5.473-21.997M259.027 234.063l-4.38-17.594M224.484 151.695l6.258-21.78M230.742 129.914l21.996-5.476M231.656 124.19l17.594-4.377M215.004 113.602l15.738 16.312M252.738 124.438l6.258-21.782M258.996 102.656l-15.738-16.312M253.582 104.727l-12.59-13.05M243.258 86.344l-21.996 5.472M221.262 91.816l-6.258 21.786M225.762 95.47l-5.004 17.425" stroke-width="1.2" stroke="#000" stroke-miterlimit="10" fill="none"/></g></svg>