<svg xmlns="http://www.w3.org/2000/svg" xmlns:xlink="http://www.w3.org/1999/xlink" width="300pt" height="300pt" viewBox="0 0 300 300"><defs><symbol overflow="visible"><path d="M.547 1.938V-7.75h5.5v9.688zm.625-.61h4.266v-8.47H1.171zm0 0"/></symbol><symbol overflow="visible" id="a"><path d="M1.078-8.016h1.47l3.546 6.704v-6.704h1.062V0H5.688L2.124-6.703V0H1.078zm0 0"/></symbol><symbol overflow="visible" id="b"><path d="M4.328-7.28c-.78 0-1.406.296-1.875.89-.46.585-.687 1.382-.687 2.39 0 1.012.226 1.813.687 2.406.47.586 1.094.875 1.875.875.79 0 1.414-.288 1.875-.874.457-.593.688-1.394.688-2.406 0-1.008-.23-1.805-.687-2.39-.46-.594-1.086-.89-1.875-.89zm0-.892c1.125 0 2.024.383 2.703 1.14C7.708-6.28 8.048-5.27 8.048-4c0 1.262-.34 2.273-1.016 3.03C6.353-.22 5.454.157 4.33.157S2.3-.22 1.625-.97c-.668-.75-1-1.757-1-3.03 0-1.27.332-2.28 1-3.03.676-.76 1.578-1.142 2.703-1.142zm0 0"/></symbol><symbol overflow="visible" id="c"><path d="M1.078-8.016h1.094v3.282H6.11v-3.282h1.077V0H6.11v-3.813H2.17V0H1.078zm0 0"/></symbol></defs><g><path fill="#fff" d="M0 0h300v300H0z"/><path d="M85.492 57.586l-19.12 20.406M66.37 77.992l8.11 26.766M74.48 104.758l-19.12 20.406M55.36 125.164l8.11 26.766M63.47 151.93l-8.443 11.148" stroke-width="1.2" stroke="#000" stroke-miterlimit="10" fill="none"/><path d="M55.027 163.078l-8.44 11.145" stroke-width="1.2" stroke="#00f" stroke-miterlimit="10" fill="none"/><path d="M67.027 158.133l-6.754 8.918" stroke-width="1.2" stroke="#000" stroke-miterlimit="10" fill="none"/><path d="M60.273 167.05l-6.753 8.92M89.89 161.098l-13.21-4.582" stroke-width="1.2" stroke="#00f" stroke-miterlimit="10" fill="none"/><path d="M76.68 156.516l-13.21-4.586" stroke-width="1.2" stroke="#000" stroke-miterlimit="10" fill="none"/><path d="M46.586 174.223l7.992 11.476" stroke-width="1.2" stroke="#00f" stroke-miterlimit="10" fill="none"/><path d="M54.578 185.7l7.992 11.472" stroke-width="1.2" stroke="#000" stroke-miterlimit="10" fill="none"/><path d="M42.586 167.723h8v13h-8zm0 0" fill="#fff"/><use xlink:href="#a" x="42.586" y="177.624" fill="#00f"/><path d="M62.57 197.172l15.99 22.95M62.57 197.172l26.766-8.11M35.805 205.285l26.765-8.113M78.56 220.12L61.67 242.415M61.672 242.414l-26.422-9.168M35.25 233.246l.555-27.96M87.348 191.684l11.148 8.44" stroke-width="1.2" stroke="#000" stroke-miterlimit="10" fill="none"/><path d="M98.496 200.125l11.15 8.445" stroke-width="1.2" stroke="#f00" stroke-miterlimit="10" fill="none"/><path d="M91.324 186.438l11.145 8.44" stroke-width="1.2" stroke="#000" stroke-miterlimit="10" fill="none"/><path d="M102.47 194.88l11.147 8.444" stroke-width="1.2" stroke="#f00" stroke-miterlimit="10" fill="none"/><path d="M89.336 189.063l.277-13.985" stroke-width="1.2" stroke="#000" stroke-miterlimit="10" fill="none"/><path d="M89.613 175.078l.278-13.98" stroke-width="1.2" stroke="#00f" stroke-miterlimit="10" fill="none"/><path d="M107.63 199.445h9v13h-9zm0 0" fill="#fff"/><use xlink:href="#b" x="107.629" y="209.347" fill="#f00"/><path d="M89.89 161.098l11.477-7.993" stroke-width="1.2" stroke="#00f" stroke-miterlimit="10" fill="none"/><path d="M101.367 153.105l11.473-7.992" stroke-width="1.2" stroke="#000" stroke-miterlimit="10" fill="none"/><path d="M85.89 154.598h8v13h-8zm0 0" fill="#fff"/><use xlink:href="#a" x="85.891" y="164.499" fill="#00f"/><path d="M112.84 145.113l25.32 11.88M138.16 156.992l2.367 27.867M144.953 159.223l1.895 22.293M161.105 141.008l-22.945 15.984M140.527 184.86l25.32 11.882M165.848 196.742l22.95-15.988M164.38 189.742l18.358-12.79M188.797 180.754l-2.37-27.863M188.797 180.754l25.316 11.883M186.426 152.89l-25.32-11.882M181.098 157.656l-20.254-9.504M214.113 192.637l2.37 27.867M220.906 194.867l1.9 22.293M237.063 176.652l-22.95 15.985M216.484 220.504l25.317 11.88M241.8 232.383l22.95-15.985M240.336 225.387l18.36-12.79M264.75 216.398l-2.37-27.867M262.38 188.53l-25.317-11.878M257.05 193.3l-20.253-9.503M237.063 176.652l-2.372-27.867M234.69 148.785l-11.967-7.234" stroke-width="1.2" stroke="#000" stroke-miterlimit="10" fill="none"/><path d="M222.723 141.55l-11.97-7.23" stroke-width="1.2" stroke="#00f" stroke-miterlimit="10" fill="none"/><path d="M235.7 141.707l-9.575-5.785" stroke-width="1.2" stroke="#000" stroke-miterlimit="10" fill="none"/><path d="M226.125 135.922l-9.574-5.785M255.844 130.488l-10.578 9.15" stroke-width="1.2" stroke="#00f" stroke-miterlimit="10" fill="none"/><path d="M245.266 139.637l-10.575 9.148" stroke-width="1.2" stroke="#000" stroke-miterlimit="10" fill="none"/><path d="M210.754 134.32l6.355-27.234" stroke-width="1.2" stroke="#00f" stroke-miterlimit="10" fill="none"/><path d="M206.754 127.82h8v13h-8zm0 0" fill="#fff"/><use xlink:href="#a" x="206.754" y="137.722" fill="#00f"/><path d="M217.11 107.086l27.867-2.37" stroke-width="1.2" stroke="#00f" stroke-miterlimit="10" fill="none"/><path d="M209.11 100.586h17v13h-17zm0 0" fill="#fff"/><g fill="#00f"><use xlink:href="#a" x="209.109" y="110.487"/><use xlink:href="#c" x="217.093" y="110.487"/></g><path d="M244.977 104.715l10.867 25.773M240 109.852l8.69 20.613" stroke-width="1.2" stroke="#00f" stroke-miterlimit="10" fill="none"/><path d="M240.977 98.215h8v13h-8zm0 0" fill="#fff"/><use xlink:href="#a" x="240.977" y="108.116" fill="#00f"/><path d="M251.844 123.988h8v13h-8zm0 0" fill="#fff"/><use xlink:href="#a" x="251.844" y="133.89" fill="#00f"/></g></svg>