<svg xmlns="http://www.w3.org/2000/svg" xmlns:xlink="http://www.w3.org/1999/xlink" width="300pt" height="300pt" viewBox="0 0 300 300"><defs><symbol overflow="visible"><path d="M.594 2.125V-8.47h6V2.126zm.672-.672h4.671V-7.78h-4.67zm0 0"/></symbol><symbol overflow="visible" id="a"><path d="M1.172-8.75h1.594l3.89 7.313V-8.75h1.14V0H6.204L2.328-7.313V0H1.172zm0 0"/></symbol><symbol overflow="visible" id="b"><path d="M4.734-7.953c-.867 0-1.554.324-2.062.97-.5.635-.75 1.51-.75 2.624 0 1.094.25 1.965.75 2.61.508.637 1.195.953 2.062.953.852 0 1.532-.316 2.032-.953.507-.645.765-1.516.765-2.61 0-1.113-.257-1.988-.764-2.624-.5-.645-1.18-.97-2.032-.97zm0-.953c1.22 0 2.192.414 2.922 1.234.74.824 1.11 1.93 1.11 3.313 0 1.376-.37 2.477-1.11 3.298C6.926-.24 5.953.17 4.734.17c-1.23 0-2.214-.41-2.953-1.234C1.04-1.882.673-2.984.673-4.36c0-1.382.367-2.488 1.11-3.312.738-.82 1.722-1.234 2.952-1.234zm0 0"/></symbol></defs><g><path fill="#fff" d="M0 0h300v300H0z"/><path d="M264.75 178.098l-23.88 17.117M258.336 174.19l-19.106 13.697M261.863 148.86l2.887 29.238M240.87 195.215l-26.765-12.117M214.105 183.098l-2.882-29.243M220.7 179.492l-2.31-23.39M211.223 153.855l23.88-17.117M211.223 153.855l-13.383-6.058" stroke-width="1.2" stroke="#000" stroke-miterlimit="10" fill="none"/><path d="M197.84 147.797l-13.383-6.063" stroke-width="1.2" stroke="#00f" stroke-miterlimit="10" fill="none"/><path d="M235.102 136.738l26.76 12.12M234.926 144.25l21.41 9.695" stroke-width="1.2" stroke="#000" stroke-miterlimit="10" fill="none"/><path d="M184.457 141.734l-2.96-14.386" stroke-width="1.2" stroke="#00f" stroke-miterlimit="10" fill="none"/><path d="M181.496 127.348l-2.965-14.387M158.922 156.266l12.77-7.266" stroke-width="1.2" stroke="#000" stroke-miterlimit="10" fill="none"/><path d="M171.69 149l12.767-7.266" stroke-width="1.2" stroke="#00f" stroke-miterlimit="10" fill="none"/><path d="M180.457 134.734h9v14h-9zm0 0" fill="#fff"/><use xlink:href="#a" x="180.457" y="145.873" fill="#00f"/><path d="M178.53 112.96l17.423-23.66M174.707 106.496l13.938-18.93M149.332 109.703l29.2 3.258M195.953 89.3l-11.777-26.917M184.176 62.383l-29.2-3.258M180.488 68.93l-23.36-2.606M154.977 59.125l-17.422 23.66M137.555 82.785l11.777 26.918M145.066 82.707l9.422 21.53M149.332 109.703l-12.12 26.762M137.21 136.465l21.712 19.8M137.21 136.465l-25.347-14.852M137.21 136.465l-17.417 23.66M155.496 156.723l1.152 8.597" stroke-width="1.2" stroke="#000" stroke-miterlimit="10" fill="none"/><path d="M156.648 165.32l1.153 8.598" stroke-width="1.2" stroke="#f00" stroke-miterlimit="10" fill="none"/><path d="M162.348 155.805l1.152 8.597" stroke-width="1.2" stroke="#000" stroke-miterlimit="10" fill="none"/><path d="M163.5 164.402l1.152 8.598" stroke-width="1.2" stroke="#f00" stroke-miterlimit="10" fill="none"/><path d="M156.227 166.46h10v14h-10zm0 0" fill="#fff"/><use xlink:href="#b" x="156.227" y="177.6" fill="#f00"/><path d="M111.863 121.613l-25.54 14.528M86.324 136.14l-25.347-14.85M80.297 140.62l-20.28-11.882M86.137 165.523l.187-29.382M60.977 121.29l-25.54 14.526M35.438 135.816l-.094 14.692" stroke-width="1.2" stroke="#000" stroke-miterlimit="10" fill="none"/><path d="M35.344 150.508l-.094 14.69" stroke-width="1.2" stroke="#00f" stroke-miterlimit="10" fill="none"/><path d="M42.332 138.8l-.074 11.75" stroke-width="1.2" stroke="#000" stroke-miterlimit="10" fill="none"/><path d="M42.258 150.55l-.074 11.755M35.25 165.2l12.676 7.425" stroke-width="1.2" stroke="#00f" stroke-miterlimit="10" fill="none"/><path d="M47.926 172.625l12.676 7.426" stroke-width="1.2" stroke="#000" stroke-miterlimit="10" fill="none"/><path d="M31.25 158.2h9v14h-9zm0 0" fill="#fff"/><use xlink:href="#a" x="31.25" y="169.338" fill="#00f"/><path d="M60.602 180.05l25.535-14.527M59.734 172.586l20.43-11.62M119.793 160.125l11.777 26.914M131.57 187.04l-17.422 23.66M135.395 193.504l-13.934 18.93M160.77 190.297l-29.2-3.258M114.148 210.7l11.782 26.917M125.93 237.617l14.597 1.63" stroke-width="1.2" stroke="#000" stroke-miterlimit="10" fill="none"/><path d="M140.527 239.246l14.602 1.63" stroke-width="1.2" stroke="#00f" stroke-miterlimit="10" fill="none"/><path d="M129.617 231.07l11.68 1.305" stroke-width="1.2" stroke="#000" stroke-miterlimit="10" fill="none"/><path d="M141.297 232.375l11.68 1.3M155.13 240.875l8.71-11.832" stroke-width="1.2" stroke="#00f" stroke-miterlimit="10" fill="none"/><path d="M163.84 229.043l8.71-11.828" stroke-width="1.2" stroke="#000" stroke-miterlimit="10" fill="none"/><path d="M151.13 233.875h9v14h-9zm0 0" fill="#fff"/><use xlink:href="#a" x="151.129" y="245.014" fill="#00f"/><path d="M172.55 217.215l-11.78-26.918M165.04 217.293l-9.427-21.53" stroke-width="1.2" stroke="#000" stroke-miterlimit="10" fill="none"/></g></svg>