<svg xmlns="http://www.w3.org/2000/svg" xmlns:xlink="http://www.w3.org/1999/xlink" width="300pt" height="300pt" viewBox="0 0 300 300"><defs><symbol overflow="visible"><path d="M.594 2.125V-8.47h6V2.126zm.672-.672h4.671V-7.78h-4.67zm0 0"/></symbol><symbol overflow="visible" id="a"><path d="M1.172-8.75h1.594l3.89 7.313V-8.75h1.14V0H6.204L2.328-7.313V0H1.172zm0 0"/></symbol><symbol overflow="visible" id="b"><path d="M1.172-8.75H2.36v3.594h4.296V-8.75h1.188V0H6.656v-4.172H2.36V0H1.17zm0 0"/></symbol><symbol overflow="visible" id="c"><path d="M6.422-8.47v1.158c-.45-.208-.875-.364-1.28-.47-.4-.113-.78-.17-1.142-.17-.648 0-1.148.124-1.5.374-.344.25-.516.61-.516 1.078 0 .387.114.68.344.875.227.2.672.355 1.328.47L4.36-5c.882.168 1.535.465 1.952.89.426.42.64.98.64 1.688 0 .856-.288 1.5-.858 1.938-.563.437-1.4.656-2.5.656-.406 0-.844-.047-1.313-.14C1.814-.064 1.33-.204.83-.392v-1.22c.477.274.945.477 1.406.61.47.137.922.203 1.36.203.676 0 1.195-.13 1.562-.39.375-.27.563-.65.563-1.14 0-.427-.138-.76-.407-1-.262-.25-.696-.43-1.297-.548l-.72-.14c-.886-.176-1.526-.454-1.92-.83-.388-.374-.58-.893-.58-1.56 0-.782.27-1.392.813-1.83.538-.445 1.288-.67 2.25-.67.413 0 .83.038 1.25.108.425.074.863.184 1.312.328zm0 0"/></symbol><symbol overflow="visible" id="d"><path d="M4.734-7.953c-.867 0-1.554.324-2.062.97-.5.635-.75 1.51-.75 2.624 0 1.094.25 1.965.75 2.61.508.637 1.195.953 2.062.953.852 0 1.532-.316 2.032-.953.507-.645.765-1.516.765-2.61 0-1.113-.257-1.988-.764-2.624-.5-.645-1.18-.97-2.032-.97zm0-.953c1.22 0 2.192.414 2.922 1.234.74.824 1.11 1.93 1.11 3.313 0 1.376-.37 2.477-1.11 3.298C6.926-.24 5.953.17 4.734.17c-1.23 0-2.214-.41-2.953-1.234C1.04-1.882.673-2.984.673-4.36c0-1.382.367-2.488 1.11-3.312.738-.82 1.722-1.234 2.952-1.234zm0 0"/></symbol><symbol overflow="visible" id="e"><path d="M7.734-8.078v1.25c-.406-.375-.836-.65-1.28-.828-.45-.188-.93-.282-1.438-.282-1 0-1.766.31-2.297.922-.533.618-.798 1.5-.798 2.657 0 1.15.266 2.028.797 2.64.53.618 1.296.923 2.296.923.507 0 .988-.094 1.437-.28.445-.19.875-.462 1.28-.83V-.67c-.417.28-.858.496-1.327.64-.46.134-.945.204-1.453.204-1.336 0-2.383-.406-3.14-1.22-.762-.81-1.14-1.913-1.14-3.31 0-1.408.378-2.517 1.14-3.33.757-.812 1.804-1.218 3.14-1.218.52 0 1.008.074 1.47.22.468.135.905.338 1.31.608zm0 0"/></symbol><symbol overflow="visible" id="f"><path d="M1.125-9.125h1.078V0H1.125zm0 0"/></symbol></defs><g><path fill="#fff" d="M0 0h300v300H0z"/><path d="M114.918 160.492L86.66 170.914M109.64 154.887l-22.605 8.336M120.023 130.81l-5.105 29.682M86.66 170.914l-23.152-19.262M63.508 151.652l5.1-29.683M71.004 149.887l4.082-23.746M63.508 151.652l-14.13 5.21" stroke-width="1.2" stroke="#000" stroke-miterlimit="10" fill="none"/><path d="M49.38 156.863l-14.13 5.21" stroke-width="1.2" stroke="#0c0" stroke-miterlimit="10" fill="none"/><path d="M68.61 121.97l28.257-10.423M96.867 111.547l23.156 19.262M94.652 118.922l18.524 15.41M120.023 130.81l14.13-5.212" stroke-width="1.2" stroke="#000" stroke-miterlimit="10" fill="none"/><path d="M134.152 125.598l14.13-5.21M148.28 120.387l11.575 9.633" stroke-width="1.2" stroke="#00f" stroke-miterlimit="10" fill="none"/><path d="M159.855 130.02l11.58 9.628" stroke-width="1.2" stroke="#cc0" stroke-miterlimit="10" fill="none"/><path d="M139.28 113.387h18v14h-18zm0 0" fill="#fff"/><g fill="#00f"><use xlink:href="#a" x="139.281" y="124.525"/><use xlink:href="#b" x="148.258" y="124.525"/></g><path d="M168.71 137.383l-9.632 11.578" stroke-width="1.2" stroke="#cc0" stroke-miterlimit="10" fill="none"/><path d="M159.078 148.96l-9.63 11.58" stroke-width="1.2" stroke="#f00" stroke-miterlimit="10" fill="none"/><path d="M174.156 141.914l-9.63 11.578" stroke-width="1.2" stroke="#cc0" stroke-miterlimit="10" fill="none"/><path d="M164.527 153.492l-9.63 11.578" stroke-width="1.2" stroke="#f00" stroke-miterlimit="10" fill="none"/><path d="M174.156 141.914l9.633-11.574" stroke-width="1.2" stroke="#cc0" stroke-miterlimit="10" fill="none"/><path d="M183.79 130.34l9.628-11.578" stroke-width="1.2" stroke="#f00" stroke-miterlimit="10" fill="none"/><path d="M168.71 137.383l9.63-11.578" stroke-width="1.2" stroke="#cc0" stroke-miterlimit="10" fill="none"/><path d="M178.34 125.805l9.633-11.575" stroke-width="1.2" stroke="#f00" stroke-miterlimit="10" fill="none"/><path d="M171.434 139.648l11.578 9.633" stroke-width="1.2" stroke="#cc0" stroke-miterlimit="10" fill="none"/><path d="M183.012 149.28l11.574 9.63" stroke-width="1.2" stroke="#000" stroke-miterlimit="10" fill="none"/><path d="M167.434 132.648h8v14h-8zm0 0" fill="#fff"/><use xlink:href="#c" x="167.434" y="143.787" fill="#cc0"/><path d="M142.172 155.805h10v14h-10zm0 0" fill="#fff"/><use xlink:href="#d" x="142.172" y="166.943" fill="#f00"/><path d="M185.695 109.496h10v14h-10zm0 0" fill="#fff"/><use xlink:href="#d" x="185.695" y="120.635" fill="#f00"/><path d="M194.586 158.91l29.195-7.41M199.25 165.04l23.355-5.93M192.613 188.965l1.973-30.055M223.78 151.5l8.032 12.738" stroke-width="1.2" stroke="#000" stroke-miterlimit="10" fill="none"/><path d="M231.813 164.238l8.035 12.735" stroke-width="1.2" stroke="#cc0" stroke-miterlimit="10" fill="none"/><path d="M223.78 151.5l11.16-27.973" stroke-width="1.2" stroke="#000" stroke-miterlimit="10" fill="none"/><path d="M239.848 176.973l-9.63 11.578" stroke-width="1.2" stroke="#cc0" stroke-miterlimit="10" fill="none"/><path d="M230.22 188.55l-9.634 11.58" stroke-width="1.2" stroke="#000" stroke-miterlimit="10" fill="none"/><path d="M235.848 169.973h8v14h-8zm0 0" fill="#fff"/><use xlink:href="#c" x="235.848" y="181.111" fill="#cc0"/><path d="M220.586 200.13l-27.973-11.165M220.418 192.43l-22.38-8.93M237.727 121.332l-9.32-11.824" stroke-width="1.2" stroke="#000" stroke-miterlimit="10" fill="none"/><path d="M228.406 109.508l-9.324-11.828" stroke-width="1.2" stroke="#f00" stroke-miterlimit="10" fill="none"/><path d="M232.16 125.72l-9.32-11.825" stroke-width="1.2" stroke="#000" stroke-miterlimit="10" fill="none"/><path d="M222.84 113.895l-9.324-11.83" stroke-width="1.2" stroke="#f00" stroke-miterlimit="10" fill="none"/><path d="M234.94 123.527l14.908-2.16" stroke-width="1.2" stroke="#000" stroke-miterlimit="10" fill="none"/><path d="M249.848 121.367l14.902-2.16" stroke-width="1.2" stroke="#f00" stroke-miterlimit="10" fill="none"/><path d="M206.3 92.87h10v14h-10zm0 0" fill="#fff"/><use xlink:href="#d" x="206.301" y="104.01" fill="#f00"/><path d="M255.75 112.207h19v14h-19zm0 0" fill="#fff"/><g fill="#f00"><use xlink:href="#d" x="255.75" y="123.346"/><use xlink:href="#b" x="265.195" y="123.346"/></g><path d="M23.25 155.074h12v14h-12zm0 0" fill="#fff"/><g fill="#0c0"><use xlink:href="#e" x="23.25" y="166.213"/><use xlink:href="#f" x="31.629" y="166.213"/></g></g></svg>