<svg xmlns="http://www.w3.org/2000/svg" xmlns:xlink="http://www.w3.org/1999/xlink" width="300pt" height="300pt" viewBox="0 0 300 300"><defs><symbol overflow="visible"><path d="M.594 2.125V-8.47h6V2.126zm.672-.672h4.671V-7.78h-4.67zm0 0"/></symbol><symbol overflow="visible" id="a"><path d="M4.734-7.953c-.867 0-1.554.324-2.062.97-.5.635-.75 1.51-.75 2.624 0 1.094.25 1.965.75 2.61.508.637 1.195.953 2.062.953.852 0 1.532-.316 2.032-.953.507-.645.765-1.516.765-2.61 0-1.113-.257-1.988-.764-2.624-.5-.645-1.18-.97-2.032-.97zm0-.953c1.22 0 2.192.414 2.922 1.234.74.824 1.11 1.93 1.11 3.313 0 1.376-.37 2.477-1.11 3.298C6.926-.24 5.953.17 4.734.17c-1.23 0-2.214-.41-2.953-1.234C1.04-1.882.673-2.984.673-4.36c0-1.382.367-2.488 1.11-3.312.738-.82 1.722-1.234 2.952-1.234zm0 0"/></symbol><symbol overflow="visible" id="b"><path d="M1.172-8.75H2.36v3.594h4.296V-8.75h1.188V0H6.656v-4.172H2.36V0H1.17zm0 0"/></symbol></defs><g><path fill="#fff" d="M0 0h300v300H0z"/><path d="M77.457 84.12l11.965 27.76M89.422 111.88l-18.06 24.24M93.32 118.55l-14.445 19.395M119.445 115.395l-30.023-3.516M71.363 136.12l11.965 27.76M71.363 136.12l-15.01-1.757" stroke-width="1.2" stroke="#000" stroke-miterlimit="10" fill="none"/><path d="M56.352 134.363l-15.008-1.76" stroke-width="1.2" stroke="#f00" stroke-miterlimit="10" fill="none"/><path d="M83.328 163.88l30.024 3.518M87.16 157.168l24.02 2.812M83.328 163.88l-18.055 24.24M113.352 167.398l18.058-24.242" stroke-width="1.2" stroke="#000" stroke-miterlimit="10" fill="none"/><path d="M130.828 192.063l-8.738-12.333" stroke-width="1.2" stroke="#f00" stroke-miterlimit="10" fill="none"/><path d="M122.09 179.73l-8.738-12.332M131.41 143.156l-11.965-27.76M123.684 143.195l-9.575-22.207M131.41 143.156l28.637 9.68M119.445 115.395l9.028-12.122" stroke-width="1.2" stroke="#000" stroke-miterlimit="10" fill="none"/><path d="M128.473 103.273l9.027-12.117" stroke-width="1.2" stroke="#f00" stroke-miterlimit="10" fill="none"/><path d="M128.5 84.156h19v14h-19zm0 0" fill="#fff"/><g fill="#f00"><use xlink:href="#a" x="128.5" y="95.295"/><use xlink:href="#b" x="137.945" y="95.295"/></g><path d="M160.047 152.836l-.363 30.226" stroke-width="1.2" stroke="#000" stroke-miterlimit="10" fill="none"/><path d="M160.047 152.836m.242-2.988l-1.036.097m1.28-3.086l-2.073.19m2.32-3.183l-3.112.29m3.36-3.278l-4.153.386m4.395-3.38l-5.188.485m5.434-3.472l-6.227.58m6.472-3.572l-7.266.68m7.512-3.668l-8.305.773m8.55-3.76l-9.343.867m9.586-3.86l-10.38.97m10.44-1.66l-10.622.987" stroke="#000" stroke-miterlimit="10" fill="none"/><path d="M186.402 138.035l-26.355 14.8M159.684 183.063l25.996 15.425M165.914 178.488l20.797 12.34M159.684 183.063l-14.426 4.5" stroke-width="1.2" stroke="#000" stroke-miterlimit="10" fill="none"/><path d="M145.258 187.563l-14.43 4.5" stroke-width="1.2" stroke="#f00" stroke-miterlimit="10" fill="none"/><path d="M185.68 198.488l26.36-14.8M210.223 186.746l13 7.71" stroke-width="1.2" stroke="#000" stroke-miterlimit="10" fill="none"/><path d="M223.223 194.457l12.996 7.71" stroke-width="1.2" stroke="#f00" stroke-miterlimit="10" fill="none"/><path d="M213.852 180.63l13 7.71" stroke-width="1.2" stroke="#000" stroke-miterlimit="10" fill="none"/><path d="M226.852 188.34l12.996 7.71" stroke-width="1.2" stroke="#f00" stroke-miterlimit="10" fill="none"/><path d="M212.04 183.688l.358-30.227" stroke-width="1.2" stroke="#000" stroke-miterlimit="10" fill="none"/><path d="M233.035 192.11h10v14h-10zm0 0" fill="#fff"/><use xlink:href="#a" x="233.035" y="203.248" fill="#f00"/><path d="M212.398 153.46l-25.996-15.425M212.398 153.46l26.356-14.8M189.957 138.078l.18-15.113" stroke-width="1.2" stroke="#000" stroke-miterlimit="10" fill="none"/><path d="M190.137 122.965l.18-15.113" stroke-width="1.2" stroke="#f00" stroke-miterlimit="10" fill="none"/><path d="M182.844 137.992l.18-15.11" stroke-width="1.2" stroke="#000" stroke-miterlimit="10" fill="none"/><path d="M183.023 122.883l.18-15.113" stroke-width="1.2" stroke="#f00" stroke-miterlimit="10" fill="none"/><path d="M181.762 100.81h10v14h-10zm0 0" fill="#fff"/><use xlink:href="#a" x="181.762" y="111.947" fill="#f00"/><path d="M242.31 138.703l.178-15.113" stroke-width="1.2" stroke="#000" stroke-miterlimit="10" fill="none"/><path d="M242.488 123.59l.18-15.113" stroke-width="1.2" stroke="#f00" stroke-miterlimit="10" fill="none"/><path d="M235.2 138.617l.18-15.113" stroke-width="1.2" stroke="#000" stroke-miterlimit="10" fill="none"/><path d="M235.38 123.504l.18-15.113" stroke-width="1.2" stroke="#f00" stroke-miterlimit="10" fill="none"/><path d="M238.754 138.66l25.996 15.422" stroke-width="1.2" stroke="#000" stroke-miterlimit="10" fill="none"/><path d="M234.113 101.434h10v14h-10zm0 0" fill="#fff"/><use xlink:href="#a" x="234.113" y="112.572" fill="#f00"/><path d="M125.828 185.063h10v14h-10zm0 0" fill="#fff"/><use xlink:href="#a" x="125.828" y="196.201" fill="#f00"/><path d="M62.008 189.527l5.98 13.883" stroke-width="1.2" stroke="#000" stroke-miterlimit="10" fill="none"/><path d="M67.988 203.41l5.985 13.88" stroke-width="1.2" stroke="#f00" stroke-miterlimit="10" fill="none"/><path d="M68.54 186.715l5.98 13.88" stroke-width="1.2" stroke="#000" stroke-miterlimit="10" fill="none"/><path d="M74.52 200.594l5.984 13.88" stroke-width="1.2" stroke="#f00" stroke-miterlimit="10" fill="none"/><path d="M65.273 188.12l-30.023-3.515" stroke-width="1.2" stroke="#000" stroke-miterlimit="10" fill="none"/><path d="M72.238 208.88h10v14h-10zm0 0" fill="#fff"/><use xlink:href="#a" x="72.238" y="220.018" fill="#f00"/><path d="M22.344 125.602h19v14h-19zm0 0" fill="#fff"/><g fill="#f00"><use xlink:href="#b" x="22.344" y="136.74"/><use xlink:href="#a" x="31.367" y="136.74"/></g></g></svg>