<svg xmlns="http://www.w3.org/2000/svg" xmlns:xlink="http://www.w3.org/1999/xlink" width="300pt" height="300pt" viewBox="0 0 300 300"><defs><symbol overflow="visible"><path d="M.594 2.125V-8.47h6V2.126zm.672-.672h4.671V-7.78h-4.67zm0 0"/></symbol><symbol overflow="visible" id="a"><path d="M4.734-7.953c-.867 0-1.554.324-2.062.97-.5.635-.75 1.51-.75 2.624 0 1.094.25 1.965.75 2.61.508.637 1.195.953 2.062.953.852 0 1.532-.316 2.032-.953.507-.645.765-1.516.765-2.61 0-1.113-.257-1.988-.764-2.624-.5-.645-1.18-.97-2.032-.97zm0-.953c1.22 0 2.192.414 2.922 1.234.74.824 1.11 1.93 1.11 3.313 0 1.376-.37 2.477-1.11 3.298C6.926-.24 5.953.17 4.734.17c-1.23 0-2.214-.41-2.953-1.234C1.04-1.882.673-2.984.673-4.36c0-1.382.367-2.488 1.11-3.312.738-.82 1.722-1.234 2.952-1.234zm0 0"/></symbol><symbol overflow="visible" id="b"><path d="M1.172-8.75h1.594l3.89 7.313V-8.75h1.14V0H6.204L2.328-7.313V0H1.172zm0 0"/></symbol><symbol overflow="visible" id="c"><path d="M1.172-8.75H2.36v3.594h4.296V-8.75h1.188V0H6.656v-4.172H2.36V0H1.17zm0 0"/></symbol></defs><g><path fill="#fff" d="M0 0h300v300H0z"/><path d="M264.75 153.098l-9.32 11.332" stroke-width="1.2" stroke="#000" stroke-miterlimit="10" fill="none"/><path d="M255.43 164.43l-9.325 11.336M246.105 175.766l-14.476-2.407" stroke-width="1.2" stroke="#f00" stroke-miterlimit="10" fill="none"/><path d="M231.63 173.36l-14.478-2.403" stroke-width="1.2" stroke="#000" stroke-miterlimit="10" fill="none"/><path d="M241.105 168.766h10v14h-10zm0 0" fill="#fff"/><use xlink:href="#a" x="241.105" y="179.904" fill="#f00"/><path d="M217.152 170.957l-10.312-27.48M198.508 193.625l18.644-22.668M206.84 143.477l-28.953-4.813M177.887 138.664l-18.64 22.672" stroke-width="1.2" stroke="#000" stroke-miterlimit="10" fill="none"/><path d="M167.578 111.184l5.152 13.742" stroke-width="1.2" stroke="#00f" stroke-miterlimit="10" fill="none"/><path d="M172.73 124.926l5.157 13.738M159.246 161.336l10.31 27.48M159.246 161.336l29.024-4.375M130.29 156.523l28.956 4.813M169.555 188.816l28.953 4.81M173.582 182.484l23.164 3.848M188.27 156.96l4.808-28.952M188.27 156.96l6.042 10.24" stroke-width="1.2" stroke="#000" stroke-miterlimit="10" fill="none"/><path d="M194.313 167.2l6.042 10.234" stroke-width="1.2" stroke="#f00" stroke-miterlimit="10" fill="none"/><path d="M193.078 128.008l-12.75-8.41" stroke-width="1.2" stroke="#000" stroke-miterlimit="10" fill="none"/><path d="M180.328 119.598l-12.75-8.414M167.578 111.184l-14.48-2.403" stroke-width="1.2" stroke="#00f" stroke-miterlimit="10" fill="none"/><path d="M153.098 108.78l-14.477-2.405" stroke-width="1.2" stroke="#000" stroke-miterlimit="10" fill="none"/><path d="M163.578 104.184h9v14h-9zm0 0" fill="#fff"/><use xlink:href="#b" x="163.578" y="115.322" fill="#00f"/><path d="M138.62 106.375l-18.64 22.668M119.98 129.043l-28.957-4.81M115.953 135.375l-23.164-3.848M130.29 156.523l-10.31-27.48M91.023 124.234l-18.64 22.668M72.383 146.902l10.308 27.48M66.95 152.078l8.245 21.984" stroke-width="1.2" stroke="#000" stroke-miterlimit="10" fill="none"/><path d="M43.063 148.22l14.66-.657" stroke-width="1.2" stroke="#f00" stroke-miterlimit="10" fill="none"/><path d="M57.723 147.563l14.66-.66M82.69 174.383l28.958 4.812M82.69 174.383l-11.47 9.148" stroke-width="1.2" stroke="#000" stroke-miterlimit="10" fill="none"/><path d="M71.22 183.53l-11.474 9.154" stroke-width="1.2" stroke="#f00" stroke-miterlimit="10" fill="none"/><path d="M111.648 179.195l18.64-22.672M108.176 172.54l14.918-18.134" stroke-width="1.2" stroke="#000" stroke-miterlimit="10" fill="none"/><path d="M59.746 192.684l-12.25-8.086" stroke-width="1.2" stroke="#f00" stroke-miterlimit="10" fill="none"/><path d="M47.496 184.598l-12.246-8.086" stroke-width="1.2" stroke="#000" stroke-miterlimit="10" fill="none"/><path d="M54.746 185.684h10v14h-10zm0 0" fill="#fff"/><use xlink:href="#a" x="54.746" y="196.822" fill="#f00"/><path d="M35.25 176.512l3.906-14.15" stroke-width="1.2" stroke="#000" stroke-miterlimit="10" fill="none"/><path d="M39.156 162.363l3.907-14.144" stroke-width="1.2" stroke="#f00" stroke-miterlimit="10" fill="none"/><path d="M38.063 141.22h10v14h-10zm0 0" fill="#fff"/><use xlink:href="#a" x="38.063" y="152.357" fill="#f00"/><path d="M191.355 170.434h19v14h-19zm0 0" fill="#fff"/><g fill="#f00"><use xlink:href="#a" x="191.355" y="181.572"/><use xlink:href="#c" x="200.801" y="181.572"/></g></g></svg>