<svg xmlns="http://www.w3.org/2000/svg" xmlns:xlink="http://www.w3.org/1999/xlink" width="300pt" height="300pt" viewBox="0 0 300 300"><defs><symbol overflow="visible"><path d="M.64 2.297v-11.47h6.5v11.47zm.735-.72h5.047V-8.436H1.375zm0 0"/></symbol><symbol overflow="visible" id="a"><path d="M5.125-8.61c-.938 0-1.684.352-2.234 1.047-.542.688-.812 1.633-.812 2.83 0 1.198.27 2.147.813 2.842.55.687 1.297 1.03 2.235 1.03.926 0 1.66-.343 2.203-1.03.55-.696.828-1.645.828-2.844 0-1.196-.277-2.14-.828-2.829-.543-.695-1.277-1.046-2.203-1.046zm0-1.046c1.32 0 2.38.45 3.172 1.344.8.898 1.203 2.09 1.203 3.578 0 1.5-.402 2.7-1.203 3.593C7.504-.255 6.445.186 5.125.186c-1.336 0-2.402-.44-3.203-1.328C1.13-2.036.734-3.235.734-4.735c0-1.49.395-2.68 1.188-3.579.8-.894 1.867-1.343 3.203-1.343zm0 0"/></symbol><symbol overflow="visible" id="b"><path d="M2.563-8.422v3.563h1.61c.593 0 1.05-.156 1.374-.468.332-.313.5-.75.5-1.313 0-.57-.168-1.008-.5-1.313-.324-.313-.78-.47-1.375-.47zM1.28-9.484h2.892c1.062 0 1.863.246 2.406.734.54.48.813 1.184.813 2.11 0 .93-.273 1.632-.812 2.11-.543.48-1.344.718-2.406.718h-1.61V0h-1.28zm0 0"/></symbol><symbol overflow="visible" id="c"><path d="M8.375-8.75v1.36c-.438-.407-.902-.708-1.39-.907-.48-.195-.997-.297-1.548-.297-1.085 0-1.917.336-2.5 1-.574.657-.86 1.61-.86 2.86 0 1.25.286 2.21.86 2.875.583.657 1.415.985 2.5.985.55 0 1.067-.098 1.547-.297.49-.195.954-.492 1.39-.89v1.328c-.448.312-.92.546-1.42.703-.5.143-1.032.217-1.595.217-1.438 0-2.57-.437-3.39-1.312C1.144-2.008.733-3.21.733-4.735c0-1.52.41-2.718 1.235-3.593.82-.883 1.952-1.328 3.39-1.328.562 0 1.093.078 1.593.234.508.15.984.37 1.422.672zm0 0"/></symbol><symbol overflow="visible" id="d"><path d="M1.22-9.875h1.17V0H1.22zm0 0"/></symbol></defs><g><path fill="#fff" d="M0 0h300v300H0z"/><path d="M62.707 183.496l13.117-9.316" stroke-width="1.2" stroke="#000" stroke-miterlimit="10" fill="none"/><path d="M75.824 174.18l13.117-9.317M88.94 164.863l-1.506-16.02" stroke-width="1.2" stroke="#f00" stroke-miterlimit="10" fill="none"/><path d="M87.434 148.844l-1.512-16.02" stroke-width="1.2" stroke="#ff7f00" stroke-miterlimit="10" fill="none"/><path d="M83.94 156.863h11v16h-11zm0 0" fill="#fff"/><use xlink:href="#a" x="83.941" y="169.239" fill="#f00"/><path d="M89.69 132.47l-1.506-16.02" stroke-width="1.2" stroke="#ff7f00" stroke-miterlimit="10" fill="none"/><path d="M88.184 116.45l-1.512-16.02" stroke-width="1.2" stroke="#f00" stroke-miterlimit="10" fill="none"/><path d="M82.152 133.18l-1.507-16.02" stroke-width="1.2" stroke="#ff7f00" stroke-miterlimit="10" fill="none"/><path d="M80.645 117.16l-1.512-16.02" stroke-width="1.2" stroke="#f00" stroke-miterlimit="10" fill="none"/><path d="M85.922 132.824l-16.02 1.508" stroke-width="1.2" stroke="#ff7f00" stroke-miterlimit="10" fill="none"/><path d="M69.902 134.332l-16.02 1.512" stroke-width="1.2" stroke="#f00" stroke-miterlimit="10" fill="none"/><path d="M85.922 132.824l16.02-1.512" stroke-width="1.2" stroke="#ff7f00" stroke-miterlimit="10" fill="none"/><path d="M101.94 131.313l16.02-1.508" stroke-width="1.2" stroke="#f00" stroke-miterlimit="10" fill="none"/><path d="M81.922 124.824h9v16h-9zm0 0" fill="#fff"/><use xlink:href="#b" x="81.922" y="137.2" fill="#ff7f00"/><path d="M77.902 92.785h11v16h-11zm0 0" fill="#fff"/><use xlink:href="#a" x="77.902" y="105.161" fill="#f00"/><path d="M53.883 135.844l-9.317-13.117" stroke-width="1.2" stroke="#f00" stroke-miterlimit="10" fill="none"/><path d="M44.566 122.727l-9.316-13.122" stroke-width="1.2" stroke="#000" stroke-miterlimit="10" fill="none"/><path d="M48.883 127.844h11v16h-11zm0 0" fill="#fff"/><use xlink:href="#a" x="48.883" y="140.22" fill="#f00"/><path d="M117.96 129.805l9.317 13.117" stroke-width="1.2" stroke="#f00" stroke-miterlimit="10" fill="none"/><path d="M127.277 142.922l9.32 13.117" stroke-width="1.2" stroke="#000" stroke-miterlimit="10" fill="none"/><path d="M112.96 121.805h11v16h-11zm0 0" fill="#fff"/><use xlink:href="#a" x="112.961" y="134.181" fill="#f00"/><path d="M136.598 156.04l-13.407 29.257M128.37 155.813l-10.722 23.402M136.598 156.04l32.035-3.02M123.19 185.297l-16.018 1.508" stroke-width="1.2" stroke="#000" stroke-miterlimit="10" fill="none"/><path d="M107.172 186.805l-16.02 1.51" stroke-width="1.2" stroke="#0c0" stroke-miterlimit="10" fill="none"/><path d="M77.152 180.316h14v16h-14zm0 0" fill="#fff"/><g fill="#0c0"><use xlink:href="#c" x="77.152" y="192.692"/><use xlink:href="#d" x="86.459" y="192.692"/></g><path d="M168.633 153.02l13.406-29.254M176.86 153.25l10.722-23.406M187.27 179.258l-18.637-26.238M182.04 123.766l32.038-3.024M214.078 120.742l18.633 26.238M209.766 127.754l14.91 20.988M214.078 120.742l6.7-14.625" stroke-width="1.2" stroke="#000" stroke-miterlimit="10" fill="none"/><path d="M220.777 106.117l6.703-14.63" stroke-width="1.2" stroke="#0c0" stroke-miterlimit="10" fill="none"/><path d="M232.71 146.98l-13.4 29.254M232.71 146.98l16.02-1.51" stroke-width="1.2" stroke="#000" stroke-miterlimit="10" fill="none"/><path d="M248.73 145.47l16.02-1.51" stroke-width="1.2" stroke="#0c0" stroke-miterlimit="10" fill="none"/><path d="M219.31 176.234l-32.04 3.024M215.395 169l-25.633 2.414M187.27 179.258l-6.704 14.625" stroke-width="1.2" stroke="#000" stroke-miterlimit="10" fill="none"/><path d="M180.566 193.883l-6.703 14.63" stroke-width="1.2" stroke="#0c0" stroke-miterlimit="10" fill="none"/><path d="M159.863 200.512h14v16h-14zm0 0" fill="#fff"/><g fill="#0c0"><use xlink:href="#c" x="159.863" y="212.888"/><use xlink:href="#d" x="169.17" y="212.888"/></g><path d="M257.75 135.96h14v16h-14zm0 0" fill="#fff"/><g fill="#0c0"><use xlink:href="#c" x="257.75" y="148.337"/><use xlink:href="#d" x="267.057" y="148.337"/></g><path d="M220.48 83.488h14v16h-14zm0 0" fill="#fff"/><g fill="#0c0"><use xlink:href="#c" x="220.48" y="95.864"/><use xlink:href="#d" x="229.787" y="95.864"/></g></g></svg>