<svg xmlns="http://www.w3.org/2000/svg" xmlns:xlink="http://www.w3.org/1999/xlink" width="300pt" height="300pt" viewBox="0 0 300 300"><defs><symbol overflow="visible"><path d="M.453 1.594v-7.938h4.5v7.938zm.5-.5h3.5v-6.938h-3.5zm0 0"/></symbol><symbol overflow="visible" id="a"><path d="M.89-6.563H2.08l2.906 5.485v-5.484h.86V0H4.656L1.75-5.484V0H.89zm0 0"/></symbol><symbol overflow="visible" id="b"><path d="M3.547-5.953c-.65 0-1.164.242-1.547.72-.375.48-.563 1.13-.563 1.952 0 .835.188 1.49.563 1.967.383.48.898.72 1.547.72.644 0 1.156-.24 1.53-.72.376-.476.564-1.132.564-1.968 0-.822-.187-1.474-.562-1.954-.375-.477-.887-.72-1.53-.72zm0-.734c.914 0 1.648.312 2.203.937.55.617.828 1.438.828 2.47 0 1.042-.277 1.87-.828 2.483-.555.617-1.29.922-2.203.922-.93 0-1.668-.305-2.22-.922C.774-1.41.5-2.237.5-3.28c0-1.033.273-1.853.828-2.47.55-.625 1.29-.938 2.22-.938zm0 0"/></symbol><symbol overflow="visible" id="c"><path d="M.89-6.563h.876v2.688H5v-2.688h.89V0H5v-3.125H1.766V0H.89zm0 0"/></symbol></defs><g><path fill="#fff" d="M0 0h300v300H0z"/><path d="M169.617 123.473l1.37-15.598-5.42.473zm0 0"/><path d="M169.617 123.473l-12.63 8.843M169.617 123.473l13.977 6.515M156.988 132.316l-13.976-6.52M157.125 128.375l-11.18-5.215M143.012 125.797l-1.34-15.36M143.012 125.797l-12.63 8.844M141.672 110.438l12.63-8.844M140.855 106.578l10.102-7.074M127.7 103.918l13.972 6.52M154.3 101.594l-.667-7.68" stroke-width="1.2" stroke="#000" stroke-miterlimit="10" fill="none"/><path d="M153.633 93.914l-.672-7.68M152.96 86.234l-6.987-3.26" stroke-width="1.2" stroke="#00f" stroke-miterlimit="10" fill="none"/><path d="M145.973 82.973l-6.985-3.258" stroke-width="1.2" stroke="#000" stroke-miterlimit="10" fill="none"/><path d="M150.03 88.87l-5.59-2.608" stroke-width="1.2" stroke="#00f" stroke-miterlimit="10" fill="none"/><path d="M144.44 86.262l-5.588-2.606" stroke-width="1.2" stroke="#000" stroke-miterlimit="10" fill="none"/><path d="M149.96 80.734h7v11h-7zm0 0" fill="#fff"/><use xlink:href="#a" x="149.961" y="89.397" fill="#00f"/><path d="M138.988 79.715l-12.633 8.844M126.355 88.56l1.344 15.358M130.105 89.777l1.07 12.29M130.383 134.64l1.34 15.36M130.383 134.64l-6.988-3.26" stroke-width="1.2" stroke="#000" stroke-miterlimit="10" fill="none"/><path d="M123.395 131.38l-6.99-3.26" stroke-width="1.2" stroke="#00f" stroke-miterlimit="10" fill="none"/><path d="M131.723 150l-12.63 8.844M132.543 153.855l-10.106 7.075M145.7 156.52L131.722 150M119.094 158.844l1.34 15.36M120.434 174.203l13.972 6.52M123.367 171.566l11.176 5.215M134.406 180.723l12.633-8.844M134.406 180.723l1.344 15.36M147.04 171.88l-1.34-15.36M143.293 170.66l-1.074-12.29M134.984 197.727l6.985 3.257" stroke-width="1.2" stroke="#000" stroke-miterlimit="10" fill="none"/><path d="M141.97 200.984l6.987 3.258" stroke-width="1.2" stroke="#f00" stroke-miterlimit="10" fill="none"/><path d="M136.516 194.438l6.988 3.257" stroke-width="1.2" stroke="#000" stroke-miterlimit="10" fill="none"/><path d="M143.504 197.695l6.988 3.262" stroke-width="1.2" stroke="#f00" stroke-miterlimit="10" fill="none"/><path d="M135.75 196.082l-6.316 4.422" stroke-width="1.2" stroke="#000" stroke-miterlimit="10" fill="none"/><path d="M129.434 200.504l-6.317 4.422" stroke-width="1.2" stroke="#f00" stroke-miterlimit="10" fill="none"/><path d="M145.723 197.098h8v11h-8zm0 0" fill="#fff"/><use xlink:href="#b" x="145.723" y="205.761" fill="#f00"/><path d="M123.117 204.926l.672 7.68" stroke-width="1.2" stroke="#f00" stroke-miterlimit="10" fill="none"/><path d="M123.79 212.605l.67 7.68" stroke-width="1.2" stroke="#000" stroke-miterlimit="10" fill="none"/><path d="M119.117 199.426h8v11h-8zm0 0" fill="#fff"/><use xlink:href="#b" x="119.117" y="208.089" fill="#f00"/><path d="M116.406 128.12l-6.312 4.423" stroke-width="1.2" stroke="#00f" stroke-miterlimit="10" fill="none"/><path d="M110.094 132.543l-6.317 4.422" stroke-width="1.2" stroke="#000" stroke-miterlimit="10" fill="none"/><path d="M109.406 122.62h14v11h-14zm0 0" fill="#fff"/><g fill="#00f"><use xlink:href="#a" x="109.406" y="131.284"/><use xlink:href="#c" x="116.384" y="131.284"/></g><path d="M101.97 137.12l.67 7.68" stroke-width="1.2" stroke="#000" stroke-miterlimit="10" fill="none"/><path d="M102.64 144.8l.672 7.684" stroke-width="1.2" stroke="#f00" stroke-miterlimit="10" fill="none"/><path d="M105.582 136.805l.672 7.683" stroke-width="1.2" stroke="#000" stroke-miterlimit="10" fill="none"/><path d="M106.254 144.488l.672 7.68" stroke-width="1.2" stroke="#f00" stroke-miterlimit="10" fill="none"/><path d="M103.777 136.965l-6.988-3.258" stroke-width="1.2" stroke="#000" stroke-miterlimit="10" fill="none"/><path d="M96.79 133.707l-6.99-3.262" stroke-width="1.2" stroke="#f00" stroke-miterlimit="10" fill="none"/><path d="M101.117 146.824h8v11h-8zm0 0" fill="#fff"/><use xlink:href="#b" x="101.117" y="155.487" fill="#f00"/><path d="M89.8 130.445l-6.312 4.422" stroke-width="1.2" stroke="#f00" stroke-miterlimit="10" fill="none"/><path d="M83.488 134.867l-6.316 4.422" stroke-width="1.2" stroke="#000" stroke-miterlimit="10" fill="none"/><path d="M85.8 124.945h8v11h-8zm0 0" fill="#fff"/><use xlink:href="#b" x="85.801" y="133.608" fill="#f00"/><path d="M77.172 139.29L63.2 132.77M63.2 132.77l-1.345-15.36M59.45 131.55l-1.075-12.288M50.566 141.613L63.2 132.77M61.855 117.41l-13.972-6.52M47.883 110.89l-12.633 8.844M48.7 114.75l-10.106 7.074M35.25 119.734l1.344 15.36M36.594 135.094l13.972 6.52M39.523 132.46l11.18 5.212M181.785 130.148l.672 7.68" stroke-width="1.2" stroke="#000" stroke-miterlimit="10" fill="none"/><path d="M182.457 137.828l.672 7.68" stroke-width="1.2" stroke="#f00" stroke-miterlimit="10" fill="none"/><path d="M185.398 129.832l.672 7.68" stroke-width="1.2" stroke="#000" stroke-miterlimit="10" fill="none"/><path d="M186.07 137.512l.672 7.68" stroke-width="1.2" stroke="#f00" stroke-miterlimit="10" fill="none"/><path d="M183.594 129.988l6.312-4.418" stroke-width="1.2" stroke="#000" stroke-miterlimit="10" fill="none"/><path d="M189.906 125.57l6.317-4.422" stroke-width="1.2" stroke="#00f" stroke-miterlimit="10" fill="none"/><path d="M180.934 139.852h8v11h-8zm0 0" fill="#fff"/><use xlink:href="#b" x="180.934" y="148.515" fill="#f00"/><path d="M196.223 121.148l6.988 3.258" stroke-width="1.2" stroke="#00f" stroke-miterlimit="10" fill="none"/><path d="M203.21 124.406l6.99 3.258" stroke-width="1.2" stroke="#000" stroke-miterlimit="10" fill="none"/><path d="M189.223 115.648h14v11h-14zm0 0" fill="#fff"/><g fill="#00f"><use xlink:href="#a" x="189.223" y="124.312"/><use xlink:href="#c" x="196.2" y="124.312"/></g><path d="M210.2 127.664l12.628-8.84M213.543 129.754l10.102-7.074M211.54 143.027l-1.34-15.363M222.828 118.824l13.973 6.516M236.8 125.34l1.345 15.363M233.324 127.19l1.07 12.29M238.145 140.703l-12.633 8.84M238.145 140.703l6.988 3.258" stroke-width="1.2" stroke="#000" stroke-miterlimit="10" fill="none"/><path d="M245.133 143.96l6.984 3.26" stroke-width="1.2" stroke="#f00" stroke-miterlimit="10" fill="none"/><path d="M225.512 149.543l-13.973-6.516M225.648 145.605l-11.18-5.214" stroke-width="1.2" stroke="#000" stroke-miterlimit="10" fill="none"/><path d="M252.117 147.22l6.317-4.423" stroke-width="1.2" stroke="#f00" stroke-miterlimit="10" fill="none"/><path d="M258.434 142.797l6.316-4.422" stroke-width="1.2" stroke="#000" stroke-miterlimit="10" fill="none"/><path d="M248.117 141.72h8v11h-8zm0 0" fill="#fff"/><use xlink:href="#b" x="248.117" y="150.382" fill="#f00"/></g></svg>