<svg xmlns="http://www.w3.org/2000/svg" xmlns:xlink="http://www.w3.org/1999/xlink" width="300pt" height="300pt" viewBox="0 0 300 300"><defs><symbol overflow="visible"><path d="M.594 2.125V-8.47h6V2.126zm.672-.672h4.671V-7.78h-4.67zm0 0"/></symbol><symbol overflow="visible" id="a"><path d="M4.734-7.953c-.867 0-1.554.324-2.062.97-.5.635-.75 1.51-.75 2.624 0 1.094.25 1.965.75 2.61.508.637 1.195.953 2.062.953.852 0 1.532-.316 2.032-.953.507-.645.765-1.516.765-2.61 0-1.113-.257-1.988-.764-2.624-.5-.645-1.18-.97-2.032-.97zm0-.953c1.22 0 2.192.414 2.922 1.234.74.824 1.11 1.93 1.11 3.313 0 1.376-.37 2.477-1.11 3.298C6.926-.24 5.953.17 4.734.17c-1.23 0-2.214-.41-2.953-1.234C1.04-1.882.673-2.984.673-4.36c0-1.382.367-2.488 1.11-3.312.738-.82 1.722-1.234 2.952-1.234zm0 0"/></symbol><symbol overflow="visible" id="b"><path d="M1.172-8.75H2.36v3.594h4.296V-8.75h1.188V0H6.656v-4.172H2.36V0H1.17zm0 0"/></symbol></defs><g><path fill="#fff" d="M0 0h300v300H0z"/><path d="M140.82 205.957l-.617-14.527" stroke-width="1.2" stroke="#000" stroke-miterlimit="10" fill="none"/><path d="M140.203 191.43l-.617-14.524M139.586 176.906L126.7 170.18" stroke-width="1.2" stroke="#f00" stroke-miterlimit="10" fill="none"/><path d="M126.7 170.18l-12.888-6.727" stroke-width="1.2" stroke="#000" stroke-miterlimit="10" fill="none"/><path d="M134.586 169.906h10v14h-10zm0 0" fill="#fff"/><use xlink:href="#a" x="134.586" y="181.045" fill="#f00"/><path d="M113.813 163.453l-24.54 15.594M107.688 159.238l-19.63 12.477M112.574 134.406l1.24 29.047M89.273 179.047l-25.777-13.453M63.496 165.594l-1.234-29.047M70.207 162.398l-.988-23.238M63.496 165.594l-12.27 7.797" stroke-width="1.2" stroke="#000" stroke-miterlimit="10" fill="none"/><path d="M51.227 173.39l-12.266 7.8" stroke-width="1.2" stroke="#f00" stroke-miterlimit="10" fill="none"/><path d="M62.262 136.547l24.54-15.594M62.262 136.547l-12.887-6.727" stroke-width="1.2" stroke="#000" stroke-miterlimit="10" fill="none"/><path d="M49.375 129.82l-12.887-6.726" stroke-width="1.2" stroke="#f00" stroke-miterlimit="10" fill="none"/><path d="M86.8 120.953l25.774 13.453M86.21 128.363l20.622 10.762M112.574 134.406l24.54-15.597M137.113 118.81l25.774 13.452M162.887 132.262l24.54-15.594M169.012 136.477l19.63-12.473M187.426 116.668L213.2 130.12M213.2 130.12l1.238 29.052M220.16 132.734l.988 23.243M237.738 114.527l-24.54 15.594M214.438 159.172l25.773 13.453M240.21 172.625l24.54-15.598M238.996 165.29l19.63-12.474M264.75 157.027l-1.238-29.047M263.512 127.98l-25.774-13.453M257.77 132.7l-20.618-10.762" stroke-width="1.2" stroke="#000" stroke-miterlimit="10" fill="none"/><path d="M36.488 123.094l-.62-14.524" stroke-width="1.2" stroke="#f00" stroke-miterlimit="10" fill="none"/><path d="M35.867 108.57l-.617-14.527" stroke-width="1.2" stroke="#000" stroke-miterlimit="10" fill="none"/><path d="M31.488 116.094h10v14h-10zm0 0" fill="#fff"/><use xlink:href="#a" x="31.488" y="127.232" fill="#f00"/><path d="M19.96 174.19h19v14h-19zm0 0" fill="#fff"/><g fill="#f00"><use xlink:href="#b" x="19.961" y="185.33"/><use xlink:href="#a" x="28.984" y="185.33"/></g></g></svg>