<svg xmlns="http://www.w3.org/2000/svg" xmlns:xlink="http://www.w3.org/1999/xlink" width="300pt" height="300pt" viewBox="0 0 300 300"><defs><symbol overflow="visible"><path d="M.547 1.938V-7.75h5.5v9.688zm.625-.61h4.266v-8.47H1.171zm0 0"/></symbol><symbol overflow="visible" id="a"><path d="M4.328-7.28c-.78 0-1.406.296-1.875.89-.46.585-.687 1.382-.687 2.39 0 1.012.226 1.813.687 2.406.47.586 1.094.875 1.875.875.79 0 1.414-.288 1.875-.874.457-.593.688-1.394.688-2.406 0-1.008-.23-1.805-.687-2.39-.46-.594-1.086-.89-1.875-.89zm0-.892c1.125 0 2.024.383 2.703 1.14C7.708-6.28 8.048-5.27 8.048-4c0 1.262-.34 2.273-1.016 3.03C6.353-.22 5.454.157 4.33.157S2.3-.22 1.625-.97c-.668-.75-1-1.757-1-3.03 0-1.27.332-2.28 1-3.03.676-.76 1.578-1.142 2.703-1.142zm0 0"/></symbol><symbol overflow="visible" id="b"><path d="M1.078-8.016h1.47l3.546 6.704v-6.704h1.062V0H5.688L2.124-6.703V0H1.078zm0 0"/></symbol><symbol overflow="visible" id="c"><path d="M1.078-8.016h1.094v3.282H6.11v-3.282h1.077V0H6.11v-3.813H2.17V0H1.078zm0 0"/></symbol></defs><g><path fill="#fff" d="M0 0h300v300H0z"/><path d="M102.926 190.203l.652-26.426M103.578 163.777L81.02 150M104.563 157.09l-18.047-11.02M103.578 163.777l11.606-6.324" stroke-width="1.2" stroke="#000" stroke-miterlimit="10" fill="none"/><path d="M115.184 157.453l11.605-6.324" stroke-width="1.2" stroke="#00f" stroke-miterlimit="10" fill="none"/><path d="M81.02 150l-23.21 12.648M81.02 150l.652-26.426M57.81 162.648L35.25 148.87M58.793 155.96l-18.047-11.02M35.25 148.87l.652-26.425M35.902 122.445l23.21-12.648M41.2 126.64l18.566-10.117M59.113 109.797l22.56 13.777M83.16 126.305l11.606-6.325" stroke-width="1.2" stroke="#000" stroke-miterlimit="10" fill="none"/><path d="M94.766 119.98l11.605-6.324" stroke-width="1.2" stroke="#f00" stroke-miterlimit="10" fill="none"/><path d="M80.184 120.844l11.605-6.324" stroke-width="1.2" stroke="#000" stroke-miterlimit="10" fill="none"/><path d="M91.79 114.52l11.605-6.325" stroke-width="1.2" stroke="#f00" stroke-miterlimit="10" fill="none"/><path d="M100.883 104.426h9v13h-9zm0 0" fill="#fff"/><use xlink:href="#a" x="100.883" y="114.327" fill="#f00"/><path d="M126.79 151.13l22.558 13.776" stroke-width="1.2" stroke="#00f" stroke-miterlimit="10" fill="none"/><path d="M118.79 144.63h17v13h-17zm0 0" fill="#fff"/><g fill="#00f"><use xlink:href="#b" x="118.789" y="154.53"/><use xlink:href="#c" x="126.772" y="154.53"/></g><path d="M149.348 164.906l11.605-6.324" stroke-width="1.2" stroke="#00f" stroke-miterlimit="10" fill="none"/><path d="M160.953 158.582l11.606-6.324" stroke-width="1.2" stroke="#000" stroke-miterlimit="10" fill="none"/><path d="M141.348 158.406h17v13h-17zm0 0" fill="#fff"/><g fill="#00f"><use xlink:href="#b" x="141.348" y="168.308"/><use xlink:href="#c" x="149.331" y="168.308"/></g><path d="M172.56 152.258l11.28 6.887" stroke-width="1.2" stroke="#000" stroke-miterlimit="10" fill="none"/><path d="M183.84 159.145l11.277 6.89" stroke-width="1.2" stroke="#00f" stroke-miterlimit="10" fill="none"/><path d="M178.055 148.328l9.023 5.512" stroke-width="1.2" stroke="#000" stroke-miterlimit="10" fill="none"/><path d="M187.078 153.84l9.027 5.508" stroke-width="1.2" stroke="#00f" stroke-miterlimit="10" fill="none"/><path d="M173.21 125.832l-.65 26.426" stroke-width="1.2" stroke="#000" stroke-miterlimit="10" fill="none"/><path d="M195.117 166.035l11.606-6.324" stroke-width="1.2" stroke="#00f" stroke-miterlimit="10" fill="none"/><path d="M206.723 159.71l11.605-6.323" stroke-width="1.2" stroke="#000" stroke-miterlimit="10" fill="none"/><path d="M191.117 159.535h8v13h-8zm0 0" fill="#fff"/><use xlink:href="#b" x="191.117" y="169.437" fill="#00f"/><path d="M218.328 153.387l22.56 13.777M223.824 149.457l18.05 11.02M218.98 126.96l-.652 26.427M240.887 167.164l23.21-12.648M264.098 154.516l.652-26.426M257.945 151.72l.524-21.142M264.75 128.09l-22.56-13.778M242.19 114.313l-23.21 12.648M242.848 121.04l-18.57 10.12M218.98 126.96l-22.558-13.776M196.422 113.184l-23.21 12.648M197.078 119.91l-18.57 10.12" stroke-width="1.2" stroke="#000" stroke-miterlimit="10" fill="none"/></g></svg>