<svg xmlns="http://www.w3.org/2000/svg" xmlns:xlink="http://www.w3.org/1999/xlink" width="300pt" height="300pt" viewBox="0 0 300 300"><defs><symbol overflow="visible"><path d="M.453 1.594v-7.938h4.5v7.938zm.5-.5h3.5v-6.938h-3.5zm0 0"/></symbol><symbol overflow="visible" id="a"><path d="M3.547-5.953c-.65 0-1.164.242-1.547.72-.375.48-.563 1.13-.563 1.952 0 .835.188 1.49.563 1.967.383.48.898.72 1.547.72.644 0 1.156-.24 1.53-.72.376-.476.564-1.132.564-1.968 0-.822-.187-1.474-.562-1.954-.375-.477-.887-.72-1.53-.72zm0-.734c.914 0 1.648.312 2.203.937.55.617.828 1.438.828 2.47 0 1.042-.277 1.87-.828 2.483-.555.617-1.29.922-2.203.922-.93 0-1.668-.305-2.22-.922C.774-1.41.5-2.237.5-3.28c0-1.033.273-1.853.828-2.47.55-.625 1.29-.938 2.22-.938zm0 0"/></symbol><symbol overflow="visible" id="b"><path d="M.89-6.563H2.08l2.906 5.485v-5.484h.86V0H4.656L1.75-5.484V0H.89zm0 0"/></symbol><symbol overflow="visible" id="c"><path d="M.89-6.563h.876v2.688H5v-2.688h.89V0H5v-3.125H1.766V0H.89zm0 0"/></symbol><symbol overflow="visible" id="d"><path d="M4.813-6.344v.86c-.336-.157-.653-.27-.954-.344-.294-.082-.58-.125-.86-.125-.492 0-.867.094-1.125.28-.262.19-.39.454-.39.798 0 .293.085.512.265.656.176.15.504.267.984.36l.547.11c.658.125 1.142.352 1.454.672.32.312.485.734.485 1.265 0 .637-.216 1.122-.642 1.454-.43.325-1.055.485-1.875.485-.312 0-.648-.04-1-.11C1.36-.046 1-.147.625-.296v-.906c.352.2.703.35 1.047.453.35.105.695.156 1.03.156.5 0 .884-.097 1.157-.297.28-.196.42-.485.42-.86 0-.32-.1-.57-.296-.75-.2-.176-.523-.313-.968-.406l-.547-.11C1.81-3.148 1.33-3.36 1.03-3.64.74-3.923.595-4.313.595-4.813c0-.57.203-1.024.61-1.36.405-.344.968-.516 1.687-.516.313 0 .626.032.938.094.32.055.65.137.985.25zm0 0"/></symbol><symbol overflow="visible" id="e"><path d="M.89-6.563h3.766v.75h-2.89v1.938h2.61v.734h-2.61V0H.89zm0 0"/></symbol></defs><g><path fill="#fff" d="M0 0h300v300H0z"/><path d="M97.258 111.914l8.406 17.234M105.664 129.148l19.125 1.336M124.79 130.484l8.4 17.23M133.19 147.715l19.126 1.34M134.79 152.348l15.3 1.07M152.316 149.055l10.723-15.895M152.316 149.055l8.407 17.23M163.04 133.16l-8.407-17.23M154.633 115.93l10.722-15.895M160.723 166.285l19.125 1.336M160.723 166.285l-5.364 7.945" stroke-width="1.2" stroke="#000" stroke-miterlimit="10" fill="none"/><path d="M155.36 174.23l-5.36 7.95" stroke-width="1.2" stroke="#00f" stroke-miterlimit="10" fill="none"/><path d="M179.848 167.62l8.402 17.235M184.742 167.367l6.723 13.785M190.566 151.727l-10.718 15.894M188.25 184.855l19.125 1.336M207.375 186.19l10.723-15.893M204.707 182.078l8.578-12.715M218.098 170.297l-8.407-17.23M218.098 170.297l19.125 1.34M209.69 153.066l-19.124-1.34M207.465 157.434l-15.3-1.07M239.09 172.895l5.36-7.946" stroke-width="1.2" stroke="#000" stroke-miterlimit="10" fill="none"/><path d="M244.45 164.95l5.363-7.946" stroke-width="1.2" stroke="#f00" stroke-miterlimit="10" fill="none"/><path d="M235.352 170.375l5.36-7.95" stroke-width="1.2" stroke="#000" stroke-miterlimit="10" fill="none"/><path d="M240.71 162.426l5.36-7.946" stroke-width="1.2" stroke="#f00" stroke-miterlimit="10" fill="none"/><path d="M237.223 171.637l4.2 8.613" stroke-width="1.2" stroke="#000" stroke-miterlimit="10" fill="none"/><path d="M241.422 180.25l4.203 8.617" stroke-width="1.2" stroke="#f00" stroke-miterlimit="10" fill="none"/><path d="M243.94 150.242h8v11h-8zm0 0" fill="#fff"/><use xlink:href="#a" x="243.941" y="158.905" fill="#f00"/><path d="M245.625 188.867l9.563.668" stroke-width="1.2" stroke="#f00" stroke-miterlimit="10" fill="none"/><path d="M255.188 189.535l9.562.668" stroke-width="1.2" stroke="#000" stroke-miterlimit="10" fill="none"/><path d="M241.625 183.367h8v11h-8zm0 0" fill="#fff"/><use xlink:href="#a" x="241.625" y="192.03" fill="#f00"/><path d="M150 182.18l-9.563-.668" stroke-width="1.2" stroke="#00f" stroke-miterlimit="10" fill="none"/><path d="M140.438 181.512l-9.563-.672" stroke-width="1.2" stroke="#cc0" stroke-miterlimit="10" fill="none"/><path d="M143 176.68h14v11h-14zm0 0" fill="#fff"/><g fill="#00f"><use xlink:href="#b" x="143" y="185.343"/><use xlink:href="#c" x="149.978" y="185.343"/></g><path d="M133.125 181l.668-9.563" stroke-width="1.2" stroke="#cc0" stroke-miterlimit="10" fill="none"/><path d="M133.793 171.438l.668-9.563" stroke-width="1.2" stroke="#f00" stroke-miterlimit="10" fill="none"/><path d="M128.625 180.684l.668-9.563" stroke-width="1.2" stroke="#cc0" stroke-miterlimit="10" fill="none"/><path d="M129.293 171.12l.668-9.56" stroke-width="1.2" stroke="#f00" stroke-miterlimit="10" fill="none"/><path d="M128.625 180.684l-.668 9.562" stroke-width="1.2" stroke="#cc0" stroke-miterlimit="10" fill="none"/><path d="M127.957 190.246l-.668 9.563" stroke-width="1.2" stroke="#f00" stroke-miterlimit="10" fill="none"/><path d="M133.125 181l-.668 9.563" stroke-width="1.2" stroke="#cc0" stroke-miterlimit="10" fill="none"/><path d="M132.457 190.563l-.668 9.562" stroke-width="1.2" stroke="#f00" stroke-miterlimit="10" fill="none"/><path d="M130.875 180.84l-9.563-.668" stroke-width="1.2" stroke="#cc0" stroke-miterlimit="10" fill="none"/><path d="M121.313 180.172l-9.563-.668" stroke-width="1.2" stroke="#000" stroke-miterlimit="10" fill="none"/><path d="M127.875 175.34h6v11h-6zm0 0" fill="#fff"/><use xlink:href="#d" x="127.875" y="184.003" fill="#cc0"/><path d="M128.21 156.215h8v11h-8zm0 0" fill="#fff"/><use xlink:href="#a" x="128.211" y="164.878" fill="#f00"/><path d="M125.54 194.465h8v11h-8zm0 0" fill="#fff"/><use xlink:href="#a" x="125.539" y="203.128" fill="#f00"/><path d="M111.75 179.504l-8.402-17.23M106.855 179.758l-6.722-13.785M101.027 195.398l10.723-15.894M103.348 162.273l-19.125-1.34M84.223 160.934L73.5 176.828M86.887 165.047l-8.575 12.715M73.5 176.828l8.402 17.23M73.5 176.828l-19.125-1.336M81.902 194.06l19.125 1.338M84.133 189.695l15.297 1.07M54.375 175.492l-9.563-.672" stroke-width="1.2" stroke="#000" stroke-miterlimit="10" fill="none"/><path d="M44.813 174.82l-9.563-.668" stroke-width="1.2" stroke="#3cc" stroke-miterlimit="10" fill="none"/><path d="M54.375 175.492l.668-9.562" stroke-width="1.2" stroke="#000" stroke-miterlimit="10" fill="none"/><path d="M55.043 165.93l.668-9.563" stroke-width="1.2" stroke="#3cc" stroke-miterlimit="10" fill="none"/><path d="M54.375 175.492l-.668 9.563" stroke-width="1.2" stroke="#000" stroke-miterlimit="10" fill="none"/><path d="M53.707 185.055l-.668 9.562" stroke-width="1.2" stroke="#3cc" stroke-miterlimit="10" fill="none"/><path d="M29.25 168.652h6v11h-6zm0 0" fill="#fff"/><use xlink:href="#e" x="29.25" y="177.315" fill="#3cc"/><path d="M52.71 150.867h6v11h-6zm0 0" fill="#fff"/><use xlink:href="#e" x="52.711" y="159.53" fill="#3cc"/><path d="M50.04 189.117h6v11h-6zm0 0" fill="#fff"/><use xlink:href="#e" x="50.039" y="197.78" fill="#3cc"/></g></svg>