<svg xmlns="http://www.w3.org/2000/svg" xmlns:xlink="http://www.w3.org/1999/xlink" width="300pt" height="300pt" viewBox="0 0 300 300"><defs><symbol overflow="visible"><path d="M.594 2.125V-8.47h6V2.126zm.672-.672h4.671V-7.78h-4.67zm0 0"/></symbol><symbol overflow="visible" id="a"><path d="M4.734-7.953c-.867 0-1.554.324-2.062.97-.5.635-.75 1.51-.75 2.624 0 1.094.25 1.965.75 2.61.508.637 1.195.953 2.062.953.852 0 1.532-.316 2.032-.953.507-.645.765-1.516.765-2.61 0-1.113-.257-1.988-.764-2.624-.5-.645-1.18-.97-2.032-.97zm0-.953c1.22 0 2.192.414 2.922 1.234.74.824 1.11 1.93 1.11 3.313 0 1.376-.37 2.477-1.11 3.298C6.926-.24 5.953.17 4.734.17c-1.23 0-2.214-.41-2.953-1.234C1.04-1.882.673-2.984.673-4.36c0-1.382.367-2.488 1.11-3.312.738-.82 1.722-1.234 2.952-1.234zm0 0"/></symbol><symbol overflow="visible" id="b"><path d="M1.172-8.75h1.594l3.89 7.313V-8.75h1.14V0H6.204L2.328-7.313V0H1.172zm0 0"/></symbol><symbol overflow="visible" id="c"><path d="M1.172-8.75H2.36v3.594h4.296V-8.75h1.188V0H6.656v-4.172H2.36V0H1.17zm0 0"/></symbol><symbol overflow="visible" id="e"><path d="M7.734-8.078v1.25c-.406-.375-.836-.65-1.28-.828-.45-.188-.93-.282-1.438-.282-1 0-1.766.31-2.297.922-.533.618-.798 1.5-.798 2.657 0 1.15.266 2.028.797 2.64.53.618 1.296.923 2.296.923.507 0 .988-.094 1.437-.28.445-.19.875-.462 1.28-.83V-.67c-.417.28-.858.496-1.327.64-.46.134-.945.204-1.453.204-1.336 0-2.383-.406-3.14-1.22-.762-.81-1.14-1.913-1.14-3.31 0-1.408.378-2.517 1.14-3.33.757-.812 1.804-1.218 3.14-1.218.52 0 1.008.074 1.47.22.468.135.905.338 1.31.608zm0 0"/></symbol><symbol overflow="visible" id="f"><path d="M1.125-9.125h1.078V0H1.125zm0 0"/></symbol><symbol overflow="visible"><path d="M.5 1.766v-8.813h5v8.813zm.563-.547h3.875v-7.704H1.063zm0 0"/></symbol><symbol overflow="visible" id="d"><path d="M1.922-.828H5.36V0H.733v-.828c.375-.383.883-.906 1.532-1.563.644-.657 1.05-1.08 1.218-1.266.313-.352.532-.65.657-.89.126-.25.188-.493.188-.735 0-.384-.137-.697-.406-.94-.274-.25-.625-.374-1.063-.374-.313 0-.64.06-.985.172-.336.106-.7.266-1.094.484v-1c.396-.156.767-.273 1.11-.36.344-.08.66-.124.954-.124.75 0 1.347.188 1.797.563.458.376.688.883.688 1.516 0 .305-.058.59-.172.86-.117.26-.32.574-.61.937-.085.094-.343.37-.78.828-.438.45-1.055 1.08-1.844 1.892zm0 0"/></symbol></defs><g><path fill="#fff" d="M0 0h300v300H0z"/><path d="M36.04 168.113l-.79-31.51M43.375 164.777l-.633-25.207M63.72 183.184l-27.68-15.07M35.25 136.602l26.895-16.438M62.145 120.164l27.683 15.074M61.367 128.188l22.145 12.058M89.828 135.238l.785 31.508M119.55 124.75L89.83 135.238M90.613 166.746L63.72 183.184M84.06 162.063l-21.517 13.152M90.613 166.746l30.215 8.988M117.328 176.97l5.246 14.862" stroke-width="1.2" stroke="#000" stroke-miterlimit="10" fill="none"/><path d="M122.574 191.832l5.242 14.863" stroke-width="1.2" stroke="#f00" stroke-miterlimit="10" fill="none"/><path d="M124.324 174.5l5.242 14.863" stroke-width="1.2" stroke="#000" stroke-miterlimit="10" fill="none"/><path d="M129.566 189.363l5.243 14.864" stroke-width="1.2" stroke="#f00" stroke-miterlimit="10" fill="none"/><path d="M120.828 175.734l8.942-12.976" stroke-width="1.2" stroke="#000" stroke-miterlimit="10" fill="none"/><path d="M129.77 162.758l8.94-12.977" stroke-width="1.2" stroke="#00f" stroke-miterlimit="10" fill="none"/><path d="M126.313 198.46h10v14h-10zm0 0" fill="#fff"/><use xlink:href="#a" x="126.313" y="209.6" fill="#f00"/><path d="M138.71 149.78l-9.58-12.514" stroke-width="1.2" stroke="#00f" stroke-miterlimit="10" fill="none"/><path d="M129.13 137.266l-9.58-12.516" stroke-width="1.2" stroke="#000" stroke-miterlimit="10" fill="none"/><path d="M138.71 149.78l15.755-.393" stroke-width="1.2" stroke="#00f" stroke-miterlimit="10" fill="none"/><path d="M154.465 149.387l15.754-.395" stroke-width="1.2" stroke="#000" stroke-miterlimit="10" fill="none"/><path d="M134.71 142.78h9v14h-9zm0 0" fill="#fff"/><use xlink:href="#b" x="134.711" y="153.92" fill="#00f"/><path d="M123.105 125.81l4.493-15.107" stroke-width="1.2" stroke="#000" stroke-miterlimit="10" fill="none"/><path d="M127.598 110.703l4.496-15.105" stroke-width="1.2" stroke="#f00" stroke-miterlimit="10" fill="none"/><path d="M115.996 123.695l4.496-15.105" stroke-width="1.2" stroke="#000" stroke-miterlimit="10" fill="none"/><path d="M120.492 108.59l4.492-15.106" stroke-width="1.2" stroke="#f00" stroke-miterlimit="10" fill="none"/><path d="M123.54 87.54h10v14h-10zm0 0" fill="#fff"/><use xlink:href="#a" x="123.539" y="98.678" fill="#f00"/><path d="M170.22 148.992l16.436 26.895M178.19 147.813l13.15 21.515M185.293 121.31L170.22 148.99M186.656 175.887l31.512-.79M186.656 175.887l-7.535 13.84" stroke-width="1.2" stroke="#000" stroke-miterlimit="10" fill="none"/><path d="M179.12 189.727l-7.534 13.843" stroke-width="1.2" stroke="#0c0" stroke-miterlimit="10" fill="none"/><path d="M218.168 175.098l15.07-27.68M213.16 168.785l12.06-22.148M233.238 147.418L216.8 120.523M233.238 147.418l15.758-.395" stroke-width="1.2" stroke="#000" stroke-miterlimit="10" fill="none"/><path d="M248.996 147.023l15.754-.394" stroke-width="1.2" stroke="#00f" stroke-miterlimit="10" fill="none"/><path d="M216.8 120.523l-31.507.786M213.836 128.016l-25.207.63" stroke-width="1.2" stroke="#000" stroke-miterlimit="10" fill="none"/><path d="M252.75 137.13h25v19h-25zm0 0" fill="#fff"/><g fill="#00f"><use xlink:href="#b" x="252.75" y="148.268"/><use xlink:href="#c" x="261.727" y="148.268"/></g><use xlink:href="#d" x="270.75" y="153.15" fill="#00f"/><path d="M159.586 196.57h12v14h-12zm0 0" fill="#fff"/><g fill="#0c0"><use xlink:href="#e" x="159.586" y="207.709"/><use xlink:href="#f" x="167.965" y="207.709"/></g></g></svg>