<svg xmlns="http://www.w3.org/2000/svg" xmlns:xlink="http://www.w3.org/1999/xlink" width="300pt" height="300pt" viewBox="0 0 300 300"><defs><symbol overflow="visible"><path d="M.75 2.656v-13.234h7.5V2.656zm.844-.844h5.812V-9.733H1.594zm0 0"/></symbol><symbol overflow="visible" id="a"><path d="M1.47-10.938h2L8.31-1.78v-9.158H9.75V0h-2L2.906-9.14V0H1.47zm0 0"/></symbol><symbol overflow="visible" id="b"><path d="M1.47-10.938h1.483v4.485h5.375v-4.484h1.485V0H8.328v-5.203H2.953V0H1.47zm0 0"/></symbol><symbol overflow="visible" id="c"><path d="M5.906-9.938c-1.074 0-1.93.403-2.562 1.204-.625.804-.938 1.898-.938 3.28 0 1.376.313 2.466.938 3.266.633.805 1.488 1.204 2.562 1.204 1.07 0 1.922-.4 2.547-1.204.633-.8.953-1.89.953-3.265 0-1.383-.32-2.477-.953-3.28-.625-.802-1.476-1.204-2.547-1.204zm0-1.203c1.532 0 2.754.515 3.672 1.546.926 1.03 1.39 2.414 1.39 4.14 0 1.72-.464 3.095-1.39 4.126C8.66-.298 7.438.22 5.906.22c-1.53 0-2.76-.51-3.687-1.532C1.3-2.345.843-3.723.843-5.452c0-1.728.457-3.11 1.375-4.142.925-1.03 2.155-1.547 3.686-1.547zm0 0"/></symbol></defs><g><path fill="#fff" d="M0 0h300v300H0z"/><path d="M41.574 182.867l-6.324-35.25M49.238 177.855l-5.062-28.2M75.266 195.016l-33.692-12.15M35.25 147.617l27.363-23.1M62.613 124.516l33.692 12.148M63.125 133.656l26.953 9.72M96.305 136.664l6.324 35.246M96.305 136.664l13.68-11.555" stroke-width="1.2" stroke="#000" stroke-miterlimit="10" fill="none"/><path d="M109.984 125.11l13.684-11.55" stroke-width="1.2" stroke="#00f" stroke-miterlimit="10" fill="none"/><path d="M102.63 171.91l-27.364 23.106M94.457 167.78l-21.89 18.486" stroke-width="1.2" stroke="#000" stroke-miterlimit="10" fill="none"/><path d="M123.668 113.56l16.844 6.073" stroke-width="1.2" stroke="#00f" stroke-miterlimit="10" fill="none"/><path d="M140.512 119.633l16.843 6.074" stroke-width="1.2" stroke="#000" stroke-miterlimit="10" fill="none"/><path d="M112.668 104.56h23v18h-23zm0 0" fill="#fff"/><g fill="#00f"><use xlink:href="#a" x="112.668" y="118.173"/><use xlink:href="#b" x="123.644" y="118.173"/></g><path d="M157.355 125.707l6.33 35.25M166.28 127.742l5.064 28.2M184.723 102.605l-27.368 23.102M163.684 160.957l33.687 12.145M197.37 173.102L224.735 150M194.672 164.355l21.89-18.484M224.734 150l-6.324-35.25M224.734 150l16.844 6.074" stroke-width="1.2" stroke="#000" stroke-miterlimit="10" fill="none"/><path d="M241.578 156.074l16.848 6.074" stroke-width="1.2" stroke="#00f" stroke-miterlimit="10" fill="none"/><path d="M218.41 114.75l-33.687-12.145M212.184 121.465l-26.954-9.72" stroke-width="1.2" stroke="#000" stroke-miterlimit="10" fill="none"/><path d="M254.277 162.89l3.164 17.626" stroke-width="1.2" stroke="#00f" stroke-miterlimit="10" fill="none"/><path d="M257.44 180.516l3.162 17.625" stroke-width="1.2" stroke="#f00" stroke-miterlimit="10" fill="none"/><path d="M262.57 161.402l3.164 17.625" stroke-width="1.2" stroke="#00f" stroke-miterlimit="10" fill="none"/><path d="M265.734 179.027l3.164 17.625" stroke-width="1.2" stroke="#f00" stroke-miterlimit="10" fill="none"/><path d="M253.426 153.148h11v18h-11zm0 0" fill="#fff"/><use xlink:href="#a" x="253.426" y="166.763" fill="#00f"/><path d="M258.75 188.395h12v18h-12zm0 0" fill="#fff"/><use xlink:href="#c" x="258.75" y="202.009" fill="#f00"/></g></svg>