<svg xmlns="http://www.w3.org/2000/svg" xmlns:xlink="http://www.w3.org/1999/xlink" width="300pt" height="300pt" viewBox="0 0 300 300"><defs><symbol overflow="visible"><path d="M.453 1.594v-7.938h4.5v7.938zm.5-.5h3.5v-6.938h-3.5zm0 0"/></symbol><symbol overflow="visible" id="a"><path d="M3.547-5.953c-.65 0-1.164.242-1.547.72-.375.48-.563 1.13-.563 1.952 0 .835.188 1.49.563 1.967.383.48.898.72 1.547.72.644 0 1.156-.24 1.53-.72.376-.476.564-1.132.564-1.968 0-.822-.187-1.474-.562-1.954-.375-.477-.887-.72-1.53-.72zm0-.734c.914 0 1.648.312 2.203.937.55.617.828 1.438.828 2.47 0 1.042-.277 1.87-.828 2.483-.555.617-1.29.922-2.203.922-.93 0-1.668-.305-2.22-.922C.774-1.41.5-2.237.5-3.28c0-1.033.273-1.853.828-2.47.55-.625 1.29-.938 2.22-.938zm0 0"/></symbol><symbol overflow="visible" id="b"><path d="M.89-6.563H2.08l2.906 5.485v-5.484h.86V0H4.656L1.75-5.484V0H.89zm0 0"/></symbol><symbol overflow="visible" id="c"><path d="M.89-6.563h.876v2.688H5v-2.688h.89V0H5v-3.125H1.766V0H.89zm0 0"/></symbol><symbol overflow="visible"><path d="M.406 1.422V-5.64h4V1.42zM.844.97h3.11v-6.157H.843zm0 0"/></symbol><symbol overflow="visible" id="d"><path d="M3.688-5.016v2.172h2.17v.672H3.69V0H3.03v-2.172H.845v-.672H3.03v-2.172zm0 0"/></symbol></defs><g><path fill="#fff" d="M0 0h300v300H0z"/><path d="M65.422 201.8l-1.992-10.273" stroke-width="1.2" stroke="#f00" stroke-miterlimit="10" fill="none"/><path d="M63.43 191.527l-1.992-10.277" stroke-width="1.2" stroke="#000" stroke-miterlimit="10" fill="none"/><path d="M60.586 202.738l-1.992-10.273" stroke-width="1.2" stroke="#f00" stroke-miterlimit="10" fill="none"/><path d="M58.594 192.465l-1.992-10.278" stroke-width="1.2" stroke="#000" stroke-miterlimit="10" fill="none"/><path d="M59.004 196.77h8v11h-8zm0 0" fill="#fff"/><use xlink:href="#a" x="59.004" y="205.433" fill="#f00"/><path d="M59.02 181.72l7.906-6.865" stroke-width="1.2" stroke="#000" stroke-miterlimit="10" fill="none"/><path d="M66.926 174.855l7.902-6.86" stroke-width="1.2" stroke="#00f" stroke-miterlimit="10" fill="none"/><path d="M39.23 174.89l19.79 6.83" stroke-width="1.2" stroke="#000" stroke-miterlimit="10" fill="none"/><path d="M74.828 167.996l-1.992-10.277" stroke-width="1.2" stroke="#00f" stroke-miterlimit="10" fill="none"/><path d="M72.836 157.72l-1.992-10.275" stroke-width="1.2" stroke="#000" stroke-miterlimit="10" fill="none"/><path d="M74.828 167.996l9.895 3.414" stroke-width="1.2" stroke="#00f" stroke-miterlimit="10" fill="none"/><path d="M84.723 171.41l9.894 3.41" stroke-width="1.2" stroke="#000" stroke-miterlimit="10" fill="none"/><path d="M71.828 162.496h7v11h-7zm0 0" fill="#fff"/><use xlink:href="#b" x="71.828" y="171.159" fill="#00f"/><path d="M70.844 147.445l7.906-6.863" stroke-width="1.2" stroke="#000" stroke-miterlimit="10" fill="none"/><path d="M78.75 140.582l7.902-6.863" stroke-width="1.2" stroke="#00f" stroke-miterlimit="10" fill="none"/><path d="M69.195 142.352l6.325-5.49" stroke-width="1.2" stroke="#000" stroke-miterlimit="10" fill="none"/><path d="M75.52 136.863l6.324-5.488" stroke-width="1.2" stroke="#00f" stroke-miterlimit="10" fill="none"/><path d="M51.055 140.617l19.79 6.828" stroke-width="1.2" stroke="#000" stroke-miterlimit="10" fill="none"/><path d="M86.652 133.72l-1.992-10.275" stroke-width="1.2" stroke="#00f" stroke-miterlimit="10" fill="none"/><path d="M84.66 123.445l-1.992-10.277" stroke-width="1.2" stroke="#000" stroke-miterlimit="10" fill="none"/><path d="M83.652 128.22h7v11h-7zm0 0" fill="#fff"/><use xlink:href="#b" x="83.652" y="136.882" fill="#00f"/><path d="M82.668 113.168l-9.89-3.414" stroke-width="1.2" stroke="#000" stroke-miterlimit="10" fill="none"/><path d="M72.777 109.754l-9.894-3.41" stroke-width="1.2" stroke="#00f" stroke-miterlimit="10" fill="none"/><path d="M79.086 117.145l-7.918-2.735" stroke-width="1.2" stroke="#000" stroke-miterlimit="10" fill="none"/><path d="M71.168 114.41l-7.914-2.73" stroke-width="1.2" stroke="#00f" stroke-miterlimit="10" fill="none"/><path d="M82.668 113.168l7.906-6.86" stroke-width="1.2" stroke="#000" stroke-miterlimit="10" fill="none"/><path d="M90.574 106.31l7.903-6.865M62.883 106.344l-7.906 6.86" stroke-width="1.2" stroke="#00f" stroke-miterlimit="10" fill="none"/><path d="M54.977 113.203l-7.903 6.863" stroke-width="1.2" stroke="#000" stroke-miterlimit="10" fill="none"/><path d="M59.883 100.844h7v11h-7zm0 0" fill="#fff"/><use xlink:href="#b" x="59.883" y="109.507" fill="#00f"/><path d="M47.074 120.066l3.98 20.55M52.31 121.184l3.182 16.44M51.055 140.617L35.25 154.34M35.25 154.34l3.98 20.55M40.484 155.46l3.184 16.438" stroke-width="1.2" stroke="#000" stroke-miterlimit="10" fill="none"/><path d="M98.477 99.445l9.894 3.414" stroke-width="1.2" stroke="#00f" stroke-miterlimit="10" fill="none"/><path d="M108.37 102.86l9.896 3.413" stroke-width="1.2" stroke="#000" stroke-miterlimit="10" fill="none"/><path d="M91.477 93.945h14v11h-14zm0 0" fill="#fff"/><g fill="#00f"><use xlink:href="#b" x="91.477" y="102.608"/><use xlink:href="#c" x="98.454" y="102.608"/></g><path d="M118.266 106.273l3.98 20.55M123.5 107.39l3.184 16.442M134.07 92.547l-15.804 13.726M122.246 126.824l19.79 6.824M142.035 133.648l15.81-13.722M140.387 128.56l12.644-10.982M157.844 119.926l9.894 3.414" stroke-width="1.2" stroke="#000" stroke-miterlimit="10" fill="none"/><path d="M167.738 123.34l9.895 3.414" stroke-width="1.2" stroke="#00f" stroke-miterlimit="10" fill="none"/><path d="M157.844 119.926l-3.985-20.55" stroke-width="1.2" stroke="#000" stroke-miterlimit="10" fill="none"/><path d="M177.633 126.754l1.988 10.273" stroke-width="1.2" stroke="#00f" stroke-miterlimit="10" fill="none"/><path d="M179.62 137.027l1.993 10.278M193.438 113.027l-7.903 6.864" stroke-width="1.2" stroke="#000" stroke-miterlimit="10" fill="none"/><path d="M185.535 119.89l-7.902 6.864" stroke-width="1.2" stroke="#00f" stroke-miterlimit="10" fill="none"/><path d="M167.633 119.254h21v15h-21zm0 0" fill="#fff"/><g fill="#00f"><use xlink:href="#b" x="167.633" y="131.355"/><use xlink:href="#c" x="174.61" y="131.355"/></g><use xlink:href="#d" x="181.625" y="126.473" fill="#00f"/><path d="M181.613 147.305l19.79 6.824M201.402 154.13l15.805-13.724M217.207 140.406l-3.98-20.55M217.207 140.406l19.79 6.828M213.227 119.855l-19.79-6.828M236.996 147.234l3.984 20.55M240.98 167.785l19.79 6.824M260.77 174.61l1.988 10.277" stroke-width="1.2" stroke="#000" stroke-miterlimit="10" fill="none"/><path d="M262.758 184.887l1.992 10.277" stroke-width="1.2" stroke="#f00" stroke-miterlimit="10" fill="none"/><path d="M257.75 189.664h15v11h-15zm0 0" fill="#fff"/><g fill="#f00"><use xlink:href="#a" x="257.75" y="198.327"/><use xlink:href="#c" x="265.092" y="198.327"/></g><path d="M153.86 99.375l-19.79-6.828M150.273 103.348l-15.828-5.46M94.617 174.82l6.106 20.024M111.77 162.824L94.617 174.82M100.723 194.844l6.828-19.79M117.434 207.453l-16.71-12.61M107.55 175.055l20.93.38M128.48 175.434l-16.71-12.61M128.48 175.434l6.11 20.023M134.59 195.457l-17.156 11.996" stroke-width="1.2" stroke="#000" stroke-miterlimit="10" fill="none"/></g></svg>