<svg xmlns="http://www.w3.org/2000/svg" xmlns:xlink="http://www.w3.org/1999/xlink" width="300pt" height="300pt" viewBox="0 0 300 300"><defs><symbol overflow="visible"><path d="M.453 1.594v-7.938h4.5v7.938zm.5-.5h3.5v-6.938h-3.5zm0 0"/></symbol><symbol overflow="visible" id="a"><path d="M.89-6.563H2.08l2.906 5.485v-5.484h.86V0H4.656L1.75-5.484V0H.89zm0 0"/></symbol><symbol overflow="visible" id="b"><path d="M3.547-5.953c-.65 0-1.164.242-1.547.72-.375.48-.563 1.13-.563 1.952 0 .835.188 1.49.563 1.967.383.48.898.72 1.547.72.644 0 1.156-.24 1.53-.72.376-.476.564-1.132.564-1.968 0-.822-.187-1.474-.562-1.954-.375-.477-.887-.72-1.53-.72zm0-.734c.914 0 1.648.312 2.203.937.55.617.828 1.438.828 2.47 0 1.042-.277 1.87-.828 2.483-.555.617-1.29.922-2.203.922-.93 0-1.668-.305-2.22-.922C.774-1.41.5-2.237.5-3.28c0-1.033.273-1.853.828-2.47.55-.625 1.29-.938 2.22-.938zm0 0"/></symbol></defs><g><path fill="#fff" d="M0 0h300v300H0z"/><path d="M92.223 199.504l20.183 2.07M112.406 201.574l11.887-16.445M124.293 185.13l-8.297-18.517M127.82 181.324l-6.636-14.812M144.48 187.2l-20.187-2.07M115.996 166.613l5.942-8.222" stroke-width="1.2" stroke="#000" stroke-miterlimit="10" fill="none"/><path d="M121.938 158.39l5.945-8.226" stroke-width="1.2" stroke="#00f" stroke-miterlimit="10" fill="none"/><path d="M115.996 166.613l-10.094-1.035" stroke-width="1.2" stroke="#000" stroke-miterlimit="10" fill="none"/><path d="M105.902 165.578l-10.093-1.035" stroke-width="1.2" stroke="#f00" stroke-miterlimit="10" fill="none"/><path d="M127.883 150.164l-2.137-9.918" stroke-width="1.2" stroke="#00f" stroke-miterlimit="10" fill="none"/><path d="M125.746 140.246l-2.133-9.918M148.066 152.238l-10.093-1.035" stroke-width="1.2" stroke="#000" stroke-miterlimit="10" fill="none"/><path d="M137.973 151.203l-10.09-1.04" stroke-width="1.2" stroke="#00f" stroke-miterlimit="10" fill="none"/><path d="M124.883 144.664h7v11h-7zm0 0" fill="#fff"/><use xlink:href="#a" x="124.883" y="153.327" fill="#00f"/><path d="M124.836 128.277L117 123.594" stroke-width="1.2" stroke="#000" stroke-miterlimit="10" fill="none"/><path d="M117 123.594l-7.84-4.684" stroke-width="1.2" stroke="#f00" stroke-miterlimit="10" fill="none"/><path d="M122.387 132.375l-7.836-4.684" stroke-width="1.2" stroke="#000" stroke-miterlimit="10" fill="none"/><path d="M114.55 127.69l-7.84-4.682" stroke-width="1.2" stroke="#f00" stroke-miterlimit="10" fill="none"/><path d="M123.613 130.328l8.774-5.094" stroke-width="1.2" stroke="#000" stroke-miterlimit="10" fill="none"/><path d="M132.387 125.234l8.773-5.097" stroke-width="1.2" stroke="#f00" stroke-miterlimit="10" fill="none"/><path d="M99.938 115.46h8v11h-8zm0 0" fill="#fff"/><use xlink:href="#b" x="99.938" y="124.124" fill="#f00"/><path d="M141.16 120.137l7.56 6.77" stroke-width="1.2" stroke="#f00" stroke-miterlimit="10" fill="none"/><path d="M148.72 126.906l7.553 6.774" stroke-width="1.2" stroke="#000" stroke-miterlimit="10" fill="none"/><path d="M137.16 114.637h8v11h-8zm0 0" fill="#fff"/><use xlink:href="#b" x="137.16" y="123.3" fill="#f00"/><path d="M156.273 133.68l9.922-2.137" stroke-width="1.2" stroke="#000" stroke-miterlimit="10" fill="none"/><path d="M166.195 131.543l9.918-2.133" stroke-width="1.2" stroke="#00f" stroke-miterlimit="10" fill="none"/><path d="M159.262 137.918l7.937-1.707" stroke-width="1.2" stroke="#000" stroke-miterlimit="10" fill="none"/><path d="M167.2 136.21l7.933-1.706" stroke-width="1.2" stroke="#00f" stroke-miterlimit="10" fill="none"/><path d="M156.273 133.68l-8.207 18.558" stroke-width="1.2" stroke="#000" stroke-miterlimit="10" fill="none"/><path d="M176.113 129.41l3.11-9.656" stroke-width="1.2" stroke="#00f" stroke-miterlimit="10" fill="none"/><path d="M179.223 119.754l3.113-9.66" stroke-width="1.2" stroke="#000" stroke-miterlimit="10" fill="none"/><path d="M173.113 123.91h7v11h-7zm0 0" fill="#fff"/><use xlink:href="#a" x="173.113" y="132.573" fill="#00f"/><path d="M182.336 110.094l19.84-4.266M202.176 105.828L217.22 92.21M221.488 112.05l-19.312-6.222M217.22 92.21l4.268 19.84M148.066 152.238l8.3 18.516" stroke-width="1.2" stroke="#000" stroke-miterlimit="10" fill="none"/><path d="M148.066 152.238l20.3 3.528-.014-7.16zm0 0"/><path d="M156.367 170.754m-2.152 2.09l.844.61m-2.998 1.48l1.688 1.218m-3.844.868l2.535 1.832m-4.686.257l3.383 2.445m-5.535-.356l4.226 3.054m-6.38-.965l5.072 3.663m-6.942-1.85l5.805 4.194" stroke="#000" stroke-miterlimit="10" fill="none"/><path d="M176.555 172.824l-20.188-2.07M144.48 187.2l8.3 18.52M149.668 187.098l6.64 14.816M152.78 205.72l20.185 2.07" stroke-width="1.2" stroke="#000" stroke-miterlimit="10" fill="none"/><path d="M184.852 191.344m-2.153 2.086l.847.613m-3 1.477l1.69 1.222m-3.842.867l2.535 1.83m-4.688.26l3.38 2.44m-5.536-.35l4.226 3.05m-6.378-.965l5.07 3.664m-6.94-1.85l5.803 4.197" stroke="#000" stroke-miterlimit="10" fill="none"/><path d="M184.852 191.344l-8.297-18.52M205.027 189.172l-20.175 2.172" stroke-width="1.2" stroke="#000" stroke-miterlimit="10" fill="none"/><path d="M176.555 172.824m2.54-1.594l-.7-.773m3.238-.824l-1.4-1.547m3.943-.047l-2.102-2.32m4.64.72l-2.796-3.092m5.336 1.5l-3.496-3.868m6.04 2.27l-4.2-4.637m6.406 3.25l-4.81-5.308" stroke="#000" stroke-miterlimit="10" fill="none"/><path d="M193.973 158.953l-1.086-10.086" stroke-width="1.2" stroke="#000" stroke-miterlimit="10" fill="none"/><path d="M192.887 148.867l-1.086-10.09" stroke-width="1.2" stroke="#f00" stroke-miterlimit="10" fill="none"/><path d="M189.227 159.465l-1.086-10.09" stroke-width="1.2" stroke="#000" stroke-miterlimit="10" fill="none"/><path d="M188.14 149.375l-1.085-10.086" stroke-width="1.2" stroke="#f00" stroke-miterlimit="10" fill="none"/><path d="M191.602 159.21l8.796 5.052" stroke-width="1.2" stroke="#000" stroke-miterlimit="10" fill="none"/><path d="M200.398 164.262l8.8 5.05" stroke-width="1.2" stroke="#00f" stroke-miterlimit="10" fill="none"/><path d="M185.43 133.535h8v11h-8zm0 0" fill="#fff"/><use xlink:href="#b" x="185.43" y="142.198" fill="#f00"/><path d="M209.2 169.313l-2.087 9.93" stroke-width="1.2" stroke="#00f" stroke-miterlimit="10" fill="none"/><path d="M207.113 179.242l-2.086 9.93" stroke-width="1.2" stroke="#000" stroke-miterlimit="10" fill="none"/><path d="M209.2 169.313l9.257-4.153" stroke-width="1.2" stroke="#00f" stroke-miterlimit="10" fill="none"/><path d="M218.457 165.16l9.258-4.148" stroke-width="1.2" stroke="#000" stroke-miterlimit="10" fill="none"/><path d="M206.2 163.813h7v11h-7zm0 0" fill="#fff"/><use xlink:href="#a" x="206.199" y="172.476" fill="#00f"/><path d="M203.258 190.773l6.808 7.524" stroke-width="1.2" stroke="#000" stroke-miterlimit="10" fill="none"/><path d="M210.066 198.297l6.81 7.523" stroke-width="1.2" stroke="#f00" stroke-miterlimit="10" fill="none"/><path d="M206.8 187.57l6.805 7.524" stroke-width="1.2" stroke="#000" stroke-miterlimit="10" fill="none"/><path d="M213.605 195.094l6.81 7.52" stroke-width="1.2" stroke="#f00" stroke-miterlimit="10" fill="none"/><path d="M214.645 198.72h8v11h-8zm0 0" fill="#fff"/><use xlink:href="#b" x="214.645" y="207.382" fill="#f00"/><path d="M227.715 161.012l16.445 11.886M232.156 158.332l13.156 9.508M229.785 140.824l-2.07 20.188M244.16 172.898l18.52-8.3M262.68 164.598l2.07-20.184M258.137 162.094l1.656-16.15M264.75 144.414l-16.445-11.887M248.305 132.527l-18.52 8.297M248.406 137.715l-14.816 6.637" stroke-width="1.2" stroke="#000" stroke-miterlimit="10" fill="none"/><path d="M95.81 164.543l-4.15-9.262" stroke-width="1.2" stroke="#f00" stroke-miterlimit="10" fill="none"/><path d="M91.66 155.28l-4.152-9.257" stroke-width="1.2" stroke="#000" stroke-miterlimit="10" fill="none"/><path d="M91.81 159.043h8v11h-8zm0 0" fill="#fff"/><use xlink:href="#b" x="91.809" y="167.706" fill="#f00"/><path d="M89.602 147.176l4.406-7.996" stroke-width="1.2" stroke="#000" stroke-miterlimit="10" fill="none"/><path d="M94.008 139.18l4.406-8" stroke-width="1.2" stroke="#f00" stroke-miterlimit="10" fill="none"/><path d="M85.418 144.87l4.406-7.995" stroke-width="1.2" stroke="#000" stroke-miterlimit="10" fill="none"/><path d="M89.824 136.875l4.406-8" stroke-width="1.2" stroke="#f00" stroke-miterlimit="10" fill="none"/><path d="M87.508 146.023l-10.094-1.035" stroke-width="1.2" stroke="#000" stroke-miterlimit="10" fill="none"/><path d="M77.414 144.988l-10.09-1.035" stroke-width="1.2" stroke="#00f" stroke-miterlimit="10" fill="none"/><path d="M92.324 124.527h8v11h-8zm0 0" fill="#fff"/><use xlink:href="#b" x="92.324" y="133.19" fill="#f00"/><path d="M67.324 143.953l-4.152-9.258" stroke-width="1.2" stroke="#00f" stroke-miterlimit="10" fill="none"/><path d="M63.172 134.695l-4.15-9.257" stroke-width="1.2" stroke="#000" stroke-miterlimit="10" fill="none"/><path d="M67.324 143.953l-5.945 8.223" stroke-width="1.2" stroke="#00f" stroke-miterlimit="10" fill="none"/><path d="M61.38 152.176l-5.943 8.222" stroke-width="1.2" stroke="#000" stroke-miterlimit="10" fill="none"/><path d="M64.324 138.453h7v11h-7zm0 0" fill="#fff"/><use xlink:href="#a" x="64.324" y="147.116" fill="#00f"/><path d="M59.023 125.438l-20.187-2.075M55.438 160.398l-20.188-2.07" stroke-width="1.2" stroke="#000" stroke-miterlimit="10" fill="none"/></g></svg>