<svg xmlns="http://www.w3.org/2000/svg" xmlns:xlink="http://www.w3.org/1999/xlink" width="300pt" height="300pt" viewBox="0 0 300 300"><defs><symbol overflow="visible"><path d="M.547 1.938V-7.75h5.5v9.688zm.625-.61h4.266v-8.47H1.171zm0 0"/></symbol><symbol overflow="visible" id="a"><path d="M1.078-8.016h1.47l3.546 6.704v-6.704h1.062V0H5.688L2.124-6.703V0H1.078zm0 0"/></symbol><symbol overflow="visible" id="b"><path d="M4.328-7.28c-.78 0-1.406.296-1.875.89-.46.585-.687 1.382-.687 2.39 0 1.012.226 1.813.687 2.406.47.586 1.094.875 1.875.875.79 0 1.414-.288 1.875-.874.457-.593.688-1.394.688-2.406 0-1.008-.23-1.805-.687-2.39-.46-.594-1.086-.89-1.875-.89zm0-.892c1.125 0 2.024.383 2.703 1.14C7.708-6.28 8.048-5.27 8.048-4c0 1.262-.34 2.273-1.016 3.03C6.353-.22 5.454.157 4.33.157S2.3-.22 1.625-.97c-.668-.75-1-1.757-1-3.03 0-1.27.332-2.28 1-3.03.676-.76 1.578-1.142 2.703-1.142zm0 0"/></symbol></defs><g><path fill="#fff" d="M0 0h300v300H0z"/><path d="M35.25 173.02l23.84 9.656M59.09 182.676l20.285-15.817M79.375 166.86l23.84 9.656M84.03 162.215l19.075 7.726M75.82 141.383l3.555 25.476M103.215 176.516l3.558 25.476" stroke-width="1.2" stroke="#000" stroke-miterlimit="10" fill="none"/><path d="M123.5 160.7m-2.648 1.405l.64.82m-3.293.587l1.28 1.644m-3.93-.238l1.923 2.465m-4.575-1.063l2.567 3.29m-5.215-1.883l3.203 4.113m-5.855-2.707l3.847 4.933m-6.496-3.527l4.487 5.753m-7.14-4.348l5.13 6.578m-7-5.585l5.58 7.16" stroke="#000" stroke-miterlimit="10" fill="none"/><path d="M106.773 201.992l23.84 9.66" stroke-width="1.2" stroke="#000" stroke-miterlimit="10" fill="none"/><path d="M150.898 195.832m-2.652 1.406l.645.825m-3.292.582l1.28 1.644m-3.933-.24l1.926 2.466m-4.573-1.06l2.562 3.29m-5.215-1.883l3.207 4.11m-5.856-2.707l3.848 4.933m-6.5-3.528l4.488 5.758m-7.137-4.352l5.13 6.578m-7.005-5.586l5.586 7.16" stroke="#000" stroke-miterlimit="10" fill="none"/><path d="M150.898 195.832l-3.558-25.473M176.227 200.324l-25.33-4.492M147.34 170.36l-23.84-9.66" stroke-width="1.2" stroke="#000" stroke-miterlimit="10" fill="none"/><path d="M147.34 170.36m2.887-.825l-.457-.937m3.34.113l-.91-1.874m3.796 1.05l-1.37-2.812m4.253 1.988l-1.825-3.75m4.71 2.926l-2.28-4.687m5.163 3.864l-2.738-5.625m5.625 4.8l-3.195-6.563m6.078 5.74l-3.648-7.5m5.687 6.917l-3.973-8.164" stroke="#000" stroke-miterlimit="10" fill="none"/><path d="M123.5 160.7l-3.555-25.477M119.945 135.223l16.55-19.688" stroke-width="1.2" stroke="#000" stroke-miterlimit="10" fill="none"/><path d="M119.945 135.223L143.41 146.7l2.508-8.723zm0 0"/><path d="M96.102 125.566l11.92 4.83" stroke-width="1.2" stroke="#00f" stroke-miterlimit="10" fill="none"/><path d="M108.023 130.395l11.922 4.828M136.496 115.535l12.828.91" stroke-width="1.2" stroke="#000" stroke-miterlimit="10" fill="none"/><path d="M149.324 116.445l12.832.907" stroke-width="1.2" stroke="#00f" stroke-miterlimit="10" fill="none"/><path d="M138.633 121.754l10.265.726" stroke-width="1.2" stroke="#000" stroke-miterlimit="10" fill="none"/><path d="M148.898 122.48l10.262.727" stroke-width="1.2" stroke="#00f" stroke-miterlimit="10" fill="none"/><path d="M136.496 115.535l-6.805-10.914" stroke-width="1.2" stroke="#000" stroke-miterlimit="10" fill="none"/><path d="M129.69 104.62l-6.803-10.913" stroke-width="1.2" stroke="#f00" stroke-miterlimit="10" fill="none"/><path d="M162.156 117.352l7.2-10.657" stroke-width="1.2" stroke="#00f" stroke-miterlimit="10" fill="none"/><path d="M169.355 106.695l7.204-10.656" stroke-width="1.2" stroke="#000" stroke-miterlimit="10" fill="none"/><path d="M158.156 110.852h8v13h-8zm0 0" fill="#fff"/><use xlink:href="#a" x="158.156" y="120.753" fill="#00f"/><path d="M176.56 96.04l25.66 1.82M199.496 99.184l5.63 11.562" stroke-width="1.2" stroke="#000" stroke-miterlimit="10" fill="none"/><path d="M205.125 110.746l5.625 11.567" stroke-width="1.2" stroke="#f00" stroke-miterlimit="10" fill="none"/><path d="M204.938 96.535l5.628 11.563" stroke-width="1.2" stroke="#000" stroke-miterlimit="10" fill="none"/><path d="M210.566 108.098l5.625 11.566" stroke-width="1.2" stroke="#f00" stroke-miterlimit="10" fill="none"/><path d="M202.22 97.86l7.198-10.657" stroke-width="1.2" stroke="#000" stroke-miterlimit="10" fill="none"/><path d="M209.418 87.203l7.203-10.656" stroke-width="1.2" stroke="#f00" stroke-miterlimit="10" fill="none"/><path d="M209.473 114.488h9v13h-9zm0 0" fill="#fff"/><use xlink:href="#b" x="209.473" y="124.39" fill="#f00"/><path d="M216.62 76.547l12.83.91" stroke-width="1.2" stroke="#f00" stroke-miterlimit="10" fill="none"/><path d="M229.45 77.457l12.827.906" stroke-width="1.2" stroke="#000" stroke-miterlimit="10" fill="none"/><path d="M212.62 70.047h9v13h-9zm0 0" fill="#fff"/><use xlink:href="#b" x="212.621" y="79.948" fill="#f00"/><path d="M122.887 93.707l-12.485 3.102" stroke-width="1.2" stroke="#f00" stroke-miterlimit="10" fill="none"/><path d="M110.402 96.81l-12.48 3.096" stroke-width="1.2" stroke="#000" stroke-miterlimit="10" fill="none"/><path d="M118.887 87.207h9v13h-9zm0 0" fill="#fff"/><use xlink:href="#b" x="118.887" y="97.108" fill="#f00"/><path d="M99.867 97.59l-9.844-8.274" stroke-width="1.2" stroke="#000" stroke-miterlimit="10" fill="none"/><path d="M90.023 89.316L80.18 81.04" stroke-width="1.2" stroke="#f00" stroke-miterlimit="10" fill="none"/><path d="M95.973 102.223L86.13 93.95" stroke-width="1.2" stroke="#000" stroke-miterlimit="10" fill="none"/><path d="M86.13 93.95l-9.845-8.278" stroke-width="1.2" stroke="#f00" stroke-miterlimit="10" fill="none"/><path d="M97.922 99.906l-.91 12.832" stroke-width="1.2" stroke="#000" stroke-miterlimit="10" fill="none"/><path d="M97.012 112.738l-.91 12.828" stroke-width="1.2" stroke="#00f" stroke-miterlimit="10" fill="none"/><path d="M69.23 76.855h9v13h-9zm0 0" fill="#fff"/><use xlink:href="#b" x="69.23" y="86.757" fill="#f00"/><path d="M96.102 125.566l-10.14 7.91" stroke-width="1.2" stroke="#00f" stroke-miterlimit="10" fill="none"/><path d="M85.96 133.477l-10.14 7.906" stroke-width="1.2" stroke="#000" stroke-miterlimit="10" fill="none"/><path d="M92.102 119.066h8v13h-8zm0 0" fill="#fff"/><use xlink:href="#a" x="92.102" y="128.968" fill="#00f"/><path d="M76.953 138.578l-11.918-4.828" stroke-width="1.2" stroke="#000" stroke-miterlimit="10" fill="none"/><path d="M65.035 133.75l-11.922-4.828" stroke-width="1.2" stroke="#f00" stroke-miterlimit="10" fill="none"/><path d="M74.684 144.188l-11.922-4.83" stroke-width="1.2" stroke="#000" stroke-miterlimit="10" fill="none"/><path d="M62.762 139.36l-11.922-4.83" stroke-width="1.2" stroke="#f00" stroke-miterlimit="10" fill="none"/><path d="M42.977 125.227h9v13h-9zm0 0" fill="#fff"/><use xlink:href="#b" x="42.977" y="135.128" fill="#f00"/><path d="M173.45 159.633l2.245-12.664" stroke-width="1.2" stroke="#000" stroke-miterlimit="10" fill="none"/><path d="M175.695 146.97l2.246-12.665" stroke-width="1.2" stroke="#f00" stroke-miterlimit="10" fill="none"/><path d="M167.492 158.574l2.246-12.664" stroke-width="1.2" stroke="#000" stroke-miterlimit="10" fill="none"/><path d="M169.738 145.91l2.242-12.664" stroke-width="1.2" stroke="#f00" stroke-miterlimit="10" fill="none"/><path d="M170.473 159.102l8.925 9.26" stroke-width="1.2" stroke="#000" stroke-miterlimit="10" fill="none"/><path d="M179.398 168.363l8.926 9.258" stroke-width="1.2" stroke="#00f" stroke-miterlimit="10" fill="none"/><path d="M170.96 127.273h9v13h-9zm0 0" fill="#fff"/><use xlink:href="#b" x="170.961" y="137.175" fill="#f00"/><path d="M188.324 177.62l-6.05 11.353" stroke-width="1.2" stroke="#00f" stroke-miterlimit="10" fill="none"/><path d="M182.273 188.973l-6.046 11.35" stroke-width="1.2" stroke="#000" stroke-miterlimit="10" fill="none"/><path d="M188.324 177.62l12.738-1.776" stroke-width="1.2" stroke="#00f" stroke-miterlimit="10" fill="none"/><path d="M201.063 175.844l12.734-1.778" stroke-width="1.2" stroke="#000" stroke-miterlimit="10" fill="none"/><path d="M184.324 171.12h8v13h-8zm0 0" fill="#fff"/><use xlink:href="#a" x="184.324" y="181.022" fill="#00f"/><path d="M173.504 201.648l5.63 11.563" stroke-width="1.2" stroke="#000" stroke-miterlimit="10" fill="none"/><path d="M179.133 213.21l5.625 11.567" stroke-width="1.2" stroke="#f00" stroke-miterlimit="10" fill="none"/><path d="M178.945 199l5.63 11.563" stroke-width="1.2" stroke="#000" stroke-miterlimit="10" fill="none"/><path d="M184.574 210.563l5.63 11.566" stroke-width="1.2" stroke="#f00" stroke-miterlimit="10" fill="none"/><path d="M183.48 216.953h9v13h-9zm0 0" fill="#fff"/><use xlink:href="#b" x="183.48" y="226.854" fill="#f00"/><path d="M213.797 174.066l15.82 20.286M220.152 172.37l12.657 16.232M223.457 150.227l-9.66 23.84M229.617 194.352l25.477-3.56M255.094 190.793l9.656-23.84M250.45 186.137l7.726-19.07M264.75 166.953l-15.816-20.285M248.934 146.668l-25.477 3.56M247.223 153.02l-20.383 2.843" stroke-width="1.2" stroke="#000" stroke-miterlimit="10" fill="none"/></g></svg>