<svg xmlns="http://www.w3.org/2000/svg" xmlns:xlink="http://www.w3.org/1999/xlink" width="300pt" height="300pt" viewBox="0 0 300 300"><defs><symbol overflow="visible"><path d="M.547 1.938V-7.75h5.5v9.688zm.625-.61h4.266v-8.47H1.171zm0 0"/></symbol><symbol overflow="visible" id="a"><path d="M1.078-8.016h1.094v3.282H6.11v-3.282h1.077V0H6.11v-3.813H2.17V0H1.078zm0 0"/></symbol><symbol overflow="visible" id="b"><path d="M4.328-7.28c-.78 0-1.406.296-1.875.89-.46.585-.687 1.382-.687 2.39 0 1.012.226 1.813.687 2.406.47.586 1.094.875 1.875.875.79 0 1.414-.288 1.875-.874.457-.593.688-1.394.688-2.406 0-1.008-.23-1.805-.687-2.39-.46-.594-1.086-.89-1.875-.89zm0-.892c1.125 0 2.024.383 2.703 1.14C7.708-6.28 8.048-5.27 8.048-4c0 1.262-.34 2.273-1.016 3.03C6.353-.22 5.454.157 4.33.157S2.3-.22 1.625-.97c-.668-.75-1-1.757-1-3.03 0-1.27.332-2.28 1-3.03.676-.76 1.578-1.142 2.703-1.142zm0 0"/></symbol></defs><g><path fill="#fff" d="M0 0h300v300H0z"/><path d="M105.633 106.477l-9.856 23.61" stroke-width="1.2" stroke="#000" stroke-miterlimit="10" fill="none"/><path d="M111.293 150.422m-1.375-2.664l-.832.633m-.547-3.296l-1.657 1.265m.277-3.93l-2.484 1.894m1.11-4.562l-3.317 2.53m1.936-5.194l-4.144 3.164m2.77-5.828l-4.977 3.793m3.597-6.457l-5.804 4.425m4.425-7.093l-6.632 5.062m5.727-6.82l-7.18 5.48" stroke="#000" stroke-miterlimit="10" fill="none"/><path d="M111.293 150.422l12.27-22.45M124.602 172.273l-13.31-21.85M86.402 156.328l24.89-5.906M123.563 127.973l25.578-.598M149.14 127.375l13.305 21.852M162.445 149.227l-12.27 22.45M188.023 148.625l-25.578.602M150.176 171.676l-25.574.597M150.176 171.676l13.308 21.847M124.602 172.273l-16.668 19.407M107.934 191.68l-23.61-9.856M84.324 181.824l2.078-25.496" stroke-width="1.2" stroke="#000" stroke-miterlimit="10" fill="none"/><path d="M86.402 156.328m-2.965-.453l.024 1.043m-2.99-1.496l.05 2.086m-3.016-2.54l.074 3.13m-3.04-3.578l.1 4.167m-3.064-4.62l.12 5.21m-3.09-5.664l.15 6.254m-3.113-6.703l.172 7.297m-3.136-7.75l.195 8.34m-2.15-8.636l.21 9.024" stroke="#000" stroke-miterlimit="10" fill="none"/><path d="M86.402 156.328l-4.656-11.914" stroke-width="1.2" stroke="#000" stroke-miterlimit="10" fill="none"/><path d="M81.746 144.414L77.09 132.5" stroke-width="1.2" stroke="#f00" stroke-miterlimit="10" fill="none"/><path d="M60.824 156.926l-25.574.597M58.13 150.97l-20.462.475M58.41 163.004l-20.46.48" stroke-width="1.2" stroke="#000" stroke-miterlimit="10" fill="none"/><path d="M60.09 126h17v13h-17zm0 0" fill="#fff"/><g fill="#f00"><use xlink:href="#a" x="60.09" y="135.901"/><use xlink:href="#b" x="68.114" y="135.901"/></g><path d="M163.484 193.523l25.575-.597M189.06 192.926l12.268-22.45M201.328 170.477l25.578-.598M203.746 164.398l20.46-.48M188.023 148.625l13.305 21.852M226.906 169.88l12.27-22.45M239.246 150.438l12.785-.3" stroke-width="1.2" stroke="#000" stroke-miterlimit="10" fill="none"/><path d="M252.03 150.137l12.79-.297" stroke-width="1.2" stroke="#f00" stroke-miterlimit="10" fill="none"/><path d="M239.105 144.418l12.786-.297" stroke-width="1.2" stroke="#000" stroke-miterlimit="10" fill="none"/><path d="M251.89 144.12l12.79-.3" stroke-width="1.2" stroke="#f00" stroke-miterlimit="10" fill="none"/><path d="M239.176 147.43l-13.31-21.852" stroke-width="1.2" stroke="#000" stroke-miterlimit="10" fill="none"/><path d="M260.75 140.328h9v13h-9zm0 0" fill="#fff"/><use xlink:href="#b" x="260.75" y="150.229" fill="#f00"/><path d="M225.867 125.578l-25.574.598M200.293 126.176l-12.27 22.45" stroke-width="1.2" stroke="#000" stroke-miterlimit="10" fill="none"/></g></svg>