<svg xmlns="http://www.w3.org/2000/svg" xmlns:xlink="http://www.w3.org/1999/xlink" width="300pt" height="300pt" viewBox="0 0 300 300"><defs><symbol overflow="visible"><path d="M.453 1.594v-7.938h4.5v7.938zm.5-.5h3.5v-6.938h-3.5zm0 0"/></symbol><symbol overflow="visible" id="a"><path d="M.89-6.563H2.08l2.906 5.485v-5.484h.86V0H4.656L1.75-5.484V0H.89zm0 0"/></symbol><symbol overflow="visible" id="b"><path d="M3.547-5.953c-.65 0-1.164.242-1.547.72-.375.48-.563 1.13-.563 1.952 0 .835.188 1.49.563 1.967.383.48.898.72 1.547.72.644 0 1.156-.24 1.53-.72.376-.476.564-1.132.564-1.968 0-.822-.187-1.474-.562-1.954-.375-.477-.887-.72-1.53-.72zm0-.734c.914 0 1.648.312 2.203.937.55.617.828 1.438.828 2.47 0 1.042-.277 1.87-.828 2.483-.555.617-1.29.922-2.203.922-.93 0-1.668-.305-2.22-.922C.774-1.41.5-2.237.5-3.28c0-1.033.273-1.853.828-2.47.55-.625 1.29-.938 2.22-.938zm0 0"/></symbol><symbol overflow="visible" id="c"><path d="M.89-6.563h.876v2.688H5v-2.688h.89V0H5v-3.125H1.766V0H.89zm0 0"/></symbol><symbol overflow="visible" id="d"><path d="M4.813-6.344v.86c-.336-.157-.653-.27-.954-.344-.294-.082-.58-.125-.86-.125-.492 0-.867.094-1.125.28-.262.19-.39.454-.39.798 0 .293.085.512.265.656.176.15.504.267.984.36l.547.11c.658.125 1.142.352 1.454.672.32.312.485.734.485 1.265 0 .637-.216 1.122-.642 1.454-.43.325-1.055.485-1.875.485-.312 0-.648-.04-1-.11C1.36-.046 1-.147.625-.296v-.906c.352.2.703.35 1.047.453.35.105.695.156 1.03.156.5 0 .884-.097 1.157-.297.28-.196.42-.485.42-.86 0-.32-.1-.57-.296-.75-.2-.176-.523-.313-.968-.406l-.547-.11C1.81-3.148 1.33-3.36 1.03-3.64.74-3.923.595-4.313.595-4.813c0-.57.203-1.024.61-1.36.405-.344.968-.516 1.687-.516.313 0 .626.032.938.094.32.055.65.137.985.25zm0 0"/></symbol><symbol overflow="visible" id="e"><path d="M5.797-6.063v.938c-.305-.27-.625-.473-.97-.61-.335-.144-.686-.218-1.06-.218-.75 0-1.33.23-1.736.687-.397.46-.592 1.12-.592 1.985 0 .866.195 1.526.593 1.983.408.46.986.688 1.736.688.375 0 .726-.066 1.062-.203.344-.132.664-.343.97-.625V-.5c-.314.21-.642.367-.986.47-.343.1-.714.155-1.11.155-.99 0-1.772-.3-2.343-.906C.784-1.396.5-2.228.5-3.28c0-1.052.285-1.88.86-2.486.57-.613 1.35-.92 2.343-.92.395-.002.766.053 1.11.155.35.104.68.26.984.468zm0 0"/></symbol><symbol overflow="visible" id="f"><path d="M.844-6.844h.812V0H.844zm0 0"/></symbol></defs><g><path fill="#fff" d="M0 0h300v300H0z"/><path d="M212.023 153.648l8.79 1.96" stroke-width="1.2" stroke="#000" stroke-miterlimit="10" fill="none"/><path d="M220.813 155.61l8.79 1.96" stroke-width="1.2" stroke="#00f" stroke-miterlimit="10" fill="none"/><path d="M212.023 153.648l-5.39-17.183M207.44 153.2l-4.307-13.747M199.84 166.906l12.183-13.258" stroke-width="1.2" stroke="#000" stroke-miterlimit="10" fill="none"/><path d="M229.602 157.57l2.695 8.59" stroke-width="1.2" stroke="#00f" stroke-miterlimit="10" fill="none"/><path d="M232.297 166.16l2.695 8.59" stroke-width="1.2" stroke="#000" stroke-miterlimit="10" fill="none"/><path d="M229.602 157.57l6.09-6.63" stroke-width="1.2" stroke="#00f" stroke-miterlimit="10" fill="none"/><path d="M235.69 150.94l6.095-6.627" stroke-width="1.2" stroke="#000" stroke-miterlimit="10" fill="none"/><path d="M226.602 152.07h7v11h-7zm0 0" fill="#fff"/><use xlink:href="#a" x="226.602" y="160.733" fill="#00f"/><path d="M233.43 173.32l-6.09 6.63" stroke-width="1.2" stroke="#000" stroke-miterlimit="10" fill="none"/><path d="M227.34 179.95l-6.094 6.628" stroke-width="1.2" stroke="#f00" stroke-miterlimit="10" fill="none"/><path d="M236.55 176.184l-6.093 6.632" stroke-width="1.2" stroke="#000" stroke-miterlimit="10" fill="none"/><path d="M230.457 182.816l-6.09 6.63" stroke-width="1.2" stroke="#f00" stroke-miterlimit="10" fill="none"/><path d="M234.992 174.75l17.574 3.926" stroke-width="1.2" stroke="#000" stroke-miterlimit="10" fill="none"/><path d="M214.805 182.512h8v11h-8zm0 0" fill="#fff"/><use xlink:href="#b" x="214.805" y="191.175" fill="#f00"/><path d="M252.566 178.676l6.09-6.63" stroke-width="1.2" stroke="#000" stroke-miterlimit="10" fill="none"/><path d="M258.656 172.047l6.094-6.633M264.75 165.414l-2.695-8.59" stroke-width="1.2" stroke="#f00" stroke-miterlimit="10" fill="none"/><path d="M262.055 156.824l-2.696-8.59" stroke-width="1.2" stroke="#000" stroke-miterlimit="10" fill="none"/><path d="M260.75 159.914h8v11h-8zm0 0" fill="#fff"/><use xlink:href="#b" x="260.75" y="168.577" fill="#f00"/><path d="M241.785 144.313l17.574 3.92M206.633 136.465l-17.574-3.922M189.06 132.543L176.874 145.8M190.96 136.734l-9.745 10.61M176.875 145.8l-8.79-1.96" stroke-width="1.2" stroke="#000" stroke-miterlimit="10" fill="none"/><path d="M168.086 143.84l-8.785-1.96" stroke-width="1.2" stroke="#00f" stroke-miterlimit="10" fill="none"/><path d="M176.875 145.8l5.39 17.184" stroke-width="1.2" stroke="#000" stroke-miterlimit="10" fill="none"/><path d="M159.3 141.88l-6.753 5.956" stroke-width="1.2" stroke="#00f" stroke-miterlimit="10" fill="none"/><path d="M152.547 147.836l-6.75 5.957M152.145 125.355l3.578 8.262" stroke-width="1.2" stroke="#000" stroke-miterlimit="10" fill="none"/><path d="M155.723 133.617l3.578 8.262" stroke-width="1.2" stroke="#00f" stroke-miterlimit="10" fill="none"/><path d="M156.3 136.38h7v11h-7zm0 0" fill="#fff"/><use xlink:href="#a" x="156.301" y="145.042" fill="#00f"/><path d="M145.797 153.793l-15.504-9.164" stroke-width="1.2" stroke="#000" stroke-miterlimit="10" fill="none"/><path d="M130.293 144.63m-2.918.698l.414.957m-3.333-.262l.828 1.915m-3.746-1.22l1.24 2.872m-4.16-2.176l1.657 3.828m-4.574-3.133l2.07 4.785m-4.988-4.09l2.485 5.742m-2.762-5.676l2.523 5.833" stroke="#000" stroke-miterlimit="10" fill="none"/><path d="M130.293 144.63l1.96-8.786" stroke-width="1.2" stroke="#000" stroke-miterlimit="10" fill="none"/><path d="M132.254 135.844l1.96-8.79" stroke-width="1.2" stroke="#f00" stroke-miterlimit="10" fill="none"/><path d="M113.77 151.79l-7.23-5.368" stroke-width="1.2" stroke="#000" stroke-miterlimit="10" fill="none"/><path d="M106.54 146.422l-7.23-5.367M99.31 141.055l-8.263 3.578" stroke-width="1.2" stroke="#00f" stroke-miterlimit="10" fill="none"/><path d="M91.047 144.633l-8.262 3.578" stroke-width="1.2" stroke="#cc0" stroke-miterlimit="10" fill="none"/><path d="M92.31 135.555h14v11h-14zm0 0" fill="#fff"/><g fill="#00f"><use xlink:href="#a" x="92.309" y="144.218"/><use xlink:href="#c" x="99.286" y="144.218"/></g><path d="M80.84 149.055l3.578 8.26" stroke-width="1.2" stroke="#cc0" stroke-miterlimit="10" fill="none"/><path d="M84.418 157.316L88 165.578" stroke-width="1.2" stroke="#f00" stroke-miterlimit="10" fill="none"/><path d="M84.73 147.37l3.58 8.263" stroke-width="1.2" stroke="#cc0" stroke-miterlimit="10" fill="none"/><path d="M88.31 155.633l3.577 8.262" stroke-width="1.2" stroke="#f00" stroke-miterlimit="10" fill="none"/><path d="M84.73 147.37l-3.578-8.26" stroke-width="1.2" stroke="#cc0" stroke-miterlimit="10" fill="none"/><path d="M81.152 139.11l-3.578-8.262" stroke-width="1.2" stroke="#f00" stroke-miterlimit="10" fill="none"/><path d="M80.84 149.055l-3.578-8.262" stroke-width="1.2" stroke="#cc0" stroke-miterlimit="10" fill="none"/><path d="M77.262 140.793l-3.578-8.262" stroke-width="1.2" stroke="#f00" stroke-miterlimit="10" fill="none"/><path d="M82.785 148.21l-8.262 3.58" stroke-width="1.2" stroke="#cc0" stroke-miterlimit="10" fill="none"/><path d="M74.523 151.79l-8.26 3.58" stroke-width="1.2" stroke="#000" stroke-miterlimit="10" fill="none"/><path d="M79.785 142.71h6v11h-6zm0 0" fill="#fff"/><use xlink:href="#d" x="79.785" y="151.374" fill="#cc0"/><path d="M85.94 159.238h8v11h-8zm0 0" fill="#fff"/><use xlink:href="#b" x="85.941" y="167.901" fill="#f00"/><path d="M67.63 126.188h8v11h-8zm0 0" fill="#fff"/><use xlink:href="#b" x="67.629" y="134.851" fill="#f00"/><path d="M66.262 155.37l-1.96 8.786" stroke-width="1.2" stroke="#000" stroke-miterlimit="10" fill="none"/><path d="M64.3 164.156l-1.96 8.79" stroke-width="1.2" stroke="#cc0" stroke-miterlimit="10" fill="none"/><path d="M50.758 146.207l15.504 9.164M50.152 150.77l12.403 7.332" stroke-width="1.2" stroke="#000" stroke-miterlimit="10" fill="none"/><path d="M62.34 172.945l-8.965.848" stroke-width="1.2" stroke="#cc0" stroke-miterlimit="10" fill="none"/><path d="M53.375 173.793l-8.965.852" stroke-width="1.2" stroke="#000" stroke-miterlimit="10" fill="none"/><path d="M59.34 167.445h6v11h-6zm0 0" fill="#fff"/><use xlink:href="#d" x="59.34" y="176.108" fill="#cc0"/><path d="M44.41 174.645l-4.578 7.75" stroke-width="1.2" stroke="#000" stroke-miterlimit="10" fill="none"/><path d="M39.832 182.395l-4.582 7.753" stroke-width="1.2" stroke="#0c0" stroke-miterlimit="10" fill="none"/><path d="M44.41 174.645l-7.156-16.524M47.586 171.31l-5.727-13.22" stroke-width="1.2" stroke="#000" stroke-miterlimit="10" fill="none"/><path d="M25.25 184.648h10v11h-10zm0 0" fill="#fff"/><g fill="#0c0"><use xlink:href="#e" x="25.25" y="193.312"/><use xlink:href="#f" x="31.764" y="193.312"/></g><path d="M37.254 158.12l13.504-11.913" stroke-width="1.2" stroke="#000" stroke-miterlimit="10" fill="none"/><path d="M134.215 127.055l8.965-.848" stroke-width="1.2" stroke="#f00" stroke-miterlimit="10" fill="none"/><path d="M143.18 126.207l8.965-.852" stroke-width="1.2" stroke="#000" stroke-miterlimit="10" fill="none"/><path d="M130.215 121.555h8v11h-8zm0 0" fill="#fff"/><use xlink:href="#b" x="130.215" y="130.218" fill="#f00"/><path d="M153.97 126.434l4.577-7.75" stroke-width="1.2" stroke="#000" stroke-miterlimit="10" fill="none"/><path d="M158.547 118.684l4.582-7.754" stroke-width="1.2" stroke="#f00" stroke-miterlimit="10" fill="none"/><path d="M150.32 124.277l4.578-7.75" stroke-width="1.2" stroke="#000" stroke-miterlimit="10" fill="none"/><path d="M154.898 116.527l4.582-7.754" stroke-width="1.2" stroke="#f00" stroke-miterlimit="10" fill="none"/><path d="M157.305 104.352h8v11h-8zm0 0" fill="#fff"/><use xlink:href="#b" x="157.305" y="113.015" fill="#f00"/><path d="M182.266 162.984l17.574 3.922M184.945 159.242l14.063 3.137" stroke-width="1.2" stroke="#000" stroke-miterlimit="10" fill="none"/></g></svg>