<svg xmlns="http://www.w3.org/2000/svg" xmlns:xlink="http://www.w3.org/1999/xlink" width="300pt" height="300pt" viewBox="0 0 300 300"><defs><symbol overflow="visible"><path d="M.453 1.594v-7.938h4.5v7.938zm.5-.5h3.5v-6.938h-3.5zm0 0"/></symbol><symbol overflow="visible" id="a"><path d="M.89-6.563H2.08l2.906 5.485v-5.484h.86V0H4.656L1.75-5.484V0H.89zm0 0"/></symbol><symbol overflow="visible" id="b"><path d="M.89-6.563h.876v2.688H5v-2.688h.89V0H5v-3.125H1.766V0H.89zm0 0"/></symbol><symbol overflow="visible" id="c"><path d="M4.813-6.344v.86c-.336-.157-.653-.27-.954-.344-.294-.082-.58-.125-.86-.125-.492 0-.867.094-1.125.28-.262.19-.39.454-.39.798 0 .293.085.512.265.656.176.15.504.267.984.36l.547.11c.658.125 1.142.352 1.454.672.32.312.485.734.485 1.265 0 .637-.216 1.122-.642 1.454-.43.325-1.055.485-1.875.485-.312 0-.648-.04-1-.11C1.36-.046 1-.147.625-.296v-.906c.352.2.703.35 1.047.453.35.105.695.156 1.03.156.5 0 .884-.097 1.157-.297.28-.196.42-.485.42-.86 0-.32-.1-.57-.296-.75-.2-.176-.523-.313-.968-.406l-.547-.11C1.81-3.148 1.33-3.36 1.03-3.64.74-3.923.595-4.313.595-4.813c0-.57.203-1.024.61-1.36.405-.344.968-.516 1.687-.516.313 0 .626.032.938.094.32.055.65.137.985.25zm0 0"/></symbol><symbol overflow="visible" id="d"><path d="M5.797-6.063v.938c-.305-.27-.625-.473-.97-.61-.335-.144-.686-.218-1.06-.218-.75 0-1.33.23-1.736.687-.397.46-.592 1.12-.592 1.985 0 .866.195 1.526.593 1.983.408.46.986.688 1.736.688.375 0 .726-.066 1.062-.203.344-.132.664-.343.97-.625V-.5c-.314.21-.642.367-.986.47-.343.1-.714.155-1.11.155-.99 0-1.772-.3-2.343-.906C.784-1.396.5-2.228.5-3.28c0-1.052.285-1.88.86-2.486.57-.613 1.35-.92 2.343-.92.395-.002.766.053 1.11.155.35.104.68.26.984.468zm0 0"/></symbol><symbol overflow="visible" id="e"><path d="M.844-6.844h.812V0H.844zm0 0"/></symbol><symbol overflow="visible" id="f"><path d="M3.547-5.953c-.65 0-1.164.242-1.547.72-.375.48-.563 1.13-.563 1.952 0 .835.188 1.49.563 1.967.383.48.898.72 1.547.72.644 0 1.156-.24 1.53-.72.376-.476.564-1.132.564-1.968 0-.822-.187-1.474-.562-1.954-.375-.477-.887-.72-1.53-.72zm0-.734c.914 0 1.648.312 2.203.937.55.617.828 1.438.828 2.47 0 1.042-.277 1.87-.828 2.483-.555.617-1.29.922-2.203.922-.93 0-1.668-.305-2.22-.922C.774-1.41.5-2.237.5-3.28c0-1.033.273-1.853.828-2.47.55-.625 1.29-.938 2.22-.938zm0 0"/></symbol></defs><g><path fill="#fff" d="M0 0h300v300H0z"/><path d="M170.348 146.254l-7.88-.035" stroke-width="1.2" stroke="#000" stroke-miterlimit="10" fill="none"/><path d="M162.47 146.22l-7.876-.036" stroke-width="1.2" stroke="#00f" stroke-miterlimit="10" fill="none"/><path d="M170.348 146.254l7.816 13.68M174.348 145.78l6.254 10.947M178.285 132.645l-7.937 13.61" stroke-width="1.2" stroke="#000" stroke-miterlimit="10" fill="none"/><path d="M154.594 146.184l-4.66 6.35" stroke-width="1.2" stroke="#00f" stroke-miterlimit="10" fill="none"/><path d="M149.934 152.535l-4.657 6.352" stroke-width="1.2" stroke="#000" stroke-miterlimit="10" fill="none"/><path d="M154.594 146.184l-4.602-6.39" stroke-width="1.2" stroke="#00f" stroke-miterlimit="10" fill="none"/><path d="M149.992 139.793l-4.6-6.395" stroke-width="1.2" stroke="#000" stroke-miterlimit="10" fill="none"/><path d="M151.594 140.684h7v11h-7zm0 0" fill="#fff"/><use xlink:href="#a" x="151.594" y="149.347" fill="#00f"/><path d="M145.277 158.887l-14.964-4.934" stroke-width="1.2" stroke="#000" stroke-miterlimit="10" fill="none"/><path d="M130.313 153.953m-2.7 1.305l.61.844m-3.313.457l1.22 1.69m-3.923-.387l1.828 2.54m-4.53-1.24l2.436 3.388m-5.14-2.08l3.048 4.23m-3.946-3.798l3.25 4.512" stroke="#000" stroke-miterlimit="10" fill="none"/><path d="M130.383 138.2l-.035 7.878" stroke-width="1.2" stroke="#f00" stroke-miterlimit="10" fill="none"/><path d="M130.348 146.078l-.036 7.875M117.527 163.156l-7.18-3.234" stroke-width="1.2" stroke="#000" stroke-miterlimit="10" fill="none"/><path d="M110.348 159.922l-7.184-3.238M103.164 156.684l-6.394 4.6" stroke-width="1.2" stroke="#00f" stroke-miterlimit="10" fill="none"/><path d="M96.77 161.285l-6.39 4.602" stroke-width="1.2" stroke="#000" stroke-miterlimit="10" fill="none"/><path d="M96.164 151.184h14v11h-14zm0 0" fill="#fff"/><g fill="#00f"><use xlink:href="#a" x="96.164" y="159.847"/><use xlink:href="#b" x="103.142" y="159.847"/></g><path d="M90.38 165.887l-14.364-6.47M88.535 166.074l.785 7.836" stroke-width="1.2" stroke="#000" stroke-miterlimit="10" fill="none"/><path d="M89.32 173.91l.79 7.84" stroke-width="1.2" stroke="#f00" stroke-miterlimit="10" fill="none"/><path d="M92.223 165.703l.79 7.836" stroke-width="1.2" stroke="#000" stroke-miterlimit="10" fill="none"/><path d="M93.012 173.54l.785 7.84" stroke-width="1.2" stroke="#f00" stroke-miterlimit="10" fill="none"/><path d="M76.016 159.418l-6.84 3.906" stroke-width="1.2" stroke="#000" stroke-miterlimit="10" fill="none"/><path d="M69.176 163.324l-6.84 3.91" stroke-width="1.2" stroke="#cc0" stroke-miterlimit="10" fill="none"/><path d="M76.016 159.418l-3.207-15.426M72.063 158.63L69.5 146.29" stroke-width="1.2" stroke="#000" stroke-miterlimit="10" fill="none"/><path d="M62.336 167.234l-5.832-5.297" stroke-width="1.2" stroke="#cc0" stroke-miterlimit="10" fill="none"/><path d="M56.504 161.938l-5.828-5.297" stroke-width="1.2" stroke="#000" stroke-miterlimit="10" fill="none"/><path d="M59.336 161.734h6v11h-6zm0 0" fill="#fff"/><use xlink:href="#c" x="59.336" y="170.397" fill="#cc0"/><path d="M50.676 156.64l-7.715 1.602" stroke-width="1.2" stroke="#000" stroke-miterlimit="10" fill="none"/><path d="M42.96 158.242l-7.71 1.606" stroke-width="1.2" stroke="#0c0" stroke-miterlimit="10" fill="none"/><path d="M50.676 156.64l6.47-14.363M54.703 156.727l5.176-11.493" stroke-width="1.2" stroke="#000" stroke-miterlimit="10" fill="none"/><path d="M25.25 154.348h10v11h-10zm0 0" fill="#fff"/><g fill="#0c0"><use xlink:href="#d" x="25.25" y="163.011"/><use xlink:href="#e" x="31.764" y="163.011"/></g><path d="M72.81 143.992l-15.665-1.715" stroke-width="1.2" stroke="#000" stroke-miterlimit="10" fill="none"/><path d="M87.953 176.063h8v11h-8zm0 0" fill="#fff"/><use xlink:href="#f" x="87.953" y="184.726" fill="#f00"/><path d="M147.148 133.977l2.47-7.48" stroke-width="1.2" stroke="#000" stroke-miterlimit="10" fill="none"/><path d="M149.617 126.496l2.47-7.48" stroke-width="1.2" stroke="#f00" stroke-miterlimit="10" fill="none"/><path d="M143.63 132.816l2.468-7.48" stroke-width="1.2" stroke="#000" stroke-miterlimit="10" fill="none"/><path d="M146.098 125.336l2.464-7.48" stroke-width="1.2" stroke="#f00" stroke-miterlimit="10" fill="none"/><path d="M145.39 133.398l-7.503 2.4" stroke-width="1.2" stroke="#000" stroke-miterlimit="10" fill="none"/><path d="M137.887 135.797l-7.504 2.402" stroke-width="1.2" stroke="#f00" stroke-miterlimit="10" fill="none"/><path d="M146.324 112.938h8v11h-8zm0 0" fill="#fff"/><use xlink:href="#f" x="146.324" y="121.601" fill="#f00"/><path d="M126.383 132.7h8v11h-8zm0 0" fill="#fff"/><use xlink:href="#f" x="126.383" y="141.362" fill="#f00"/><path d="M178.164 159.934l15.754.07M193.918 160.004l7.937-13.61M191.508 156.773l6.35-10.886M201.855 146.395l7.875.035" stroke-width="1.2" stroke="#000" stroke-miterlimit="10" fill="none"/><path d="M209.73 146.43l7.88.035" stroke-width="1.2" stroke="#00f" stroke-miterlimit="10" fill="none"/><path d="M201.855 146.395l-7.816-13.68" stroke-width="1.2" stroke="#000" stroke-miterlimit="10" fill="none"/><path d="M217.61 146.465l3.906 6.84" stroke-width="1.2" stroke="#00f" stroke-miterlimit="10" fill="none"/><path d="M221.516 153.305l3.91 6.84" stroke-width="1.2" stroke="#000" stroke-miterlimit="10" fill="none"/><path d="M210.61 140.965h14v11h-14zm0 0" fill="#fff"/><g fill="#00f"><use xlink:href="#a" x="210.609" y="149.628"/><use xlink:href="#b" x="217.587" y="149.628"/></g><path d="M225.426 160.145l15.754.07M241.18 160.215l7.816 13.676M248.996 173.89l7.875.036" stroke-width="1.2" stroke="#000" stroke-miterlimit="10" fill="none"/><path d="M256.87 173.926l7.88.035" stroke-width="1.2" stroke="#f00" stroke-miterlimit="10" fill="none"/><path d="M257.75 168.46h15v11h-15zm0 0" fill="#fff"/><g fill="#f00"><use xlink:href="#f" x="257.75" y="177.124"/><use xlink:href="#b" x="265.092" y="177.124"/></g><path d="M194.04 132.715l-15.755-.07M192.445 136.414l-12.6-.055" stroke-width="1.2" stroke="#000" stroke-miterlimit="10" fill="none"/></g></svg>