<svg xmlns="http://www.w3.org/2000/svg" xmlns:xlink="http://www.w3.org/1999/xlink" width="300pt" height="300pt" viewBox="0 0 300 300"><defs><symbol overflow="visible"><path d="M.797 2.828v-14.11h8V2.83zm.906-.89h6.203v-12.33H1.703zm0 0"/></symbol><symbol overflow="visible" id="a"><path d="M1.578-11.672h2.125l5.172 9.766v-9.766h1.53V0H8.282L3.11-9.766V0H1.577zm0 0"/></symbol><symbol overflow="visible" id="b"><path d="M6.313-10.594c-1.15 0-2.06.43-2.735 1.28-.68.857-1.015 2.017-1.015 3.486 0 1.47.335 2.633 1.015 3.484.676.856 1.586 1.28 2.735 1.28 1.144.002 2.05-.424 2.718-1.28.665-.85 1-2.015 1-3.484 0-1.47-.335-2.63-1-3.484-.667-.852-1.573-1.282-2.717-1.282zm0-1.28c1.632 0 2.94.546 3.92 1.64.978 1.093 1.47 2.562 1.47 4.406 0 1.844-.492 3.32-1.47 4.422-.98 1.093-2.288 1.64-3.92 1.64-1.65 0-2.96-.546-3.938-1.64-.98-1.102-1.47-2.578-1.47-4.422 0-1.844.49-3.313 1.47-4.406.977-1.094 2.29-1.64 3.938-1.64zm0 0"/></symbol></defs><g><path fill="#fff" d="M0 0h300v300H0z"/><path d="M264.75 195.188H226.5M264.75 204.188H226.5M226.5 199.688l-19.125-33.125M207.375 166.563H188.25" stroke-width="1.2" stroke="#000" stroke-miterlimit="10" fill="none"/><path d="M188.25 166.563h-19.125M169.125 166.563l-9.563 16.562" stroke-width="1.2" stroke="#00f" stroke-miterlimit="10" fill="none"/><path d="M159.563 183.125L150 199.688M150 133.438L159.563 150" stroke-width="1.2" stroke="#000" stroke-miterlimit="10" fill="none"/><path d="M159.563 150l9.562 16.563" stroke-width="1.2" stroke="#00f" stroke-miterlimit="10" fill="none"/><path d="M163.125 157.063h12v19h-12zm0 0" fill="#fff"/><use xlink:href="#a" x="163.125" y="171.914" fill="#00f"/><path d="M146.102 201.938l9.562 16.562" stroke-width="1.2" stroke="#000" stroke-miterlimit="10" fill="none"/><path d="M155.664 218.5l9.563 16.563" stroke-width="1.2" stroke="#f00" stroke-miterlimit="10" fill="none"/><path d="M153.898 197.438L163.46 214" stroke-width="1.2" stroke="#000" stroke-miterlimit="10" fill="none"/><path d="M163.46 214l9.563 16.563" stroke-width="1.2" stroke="#f00" stroke-miterlimit="10" fill="none"/><path d="M150 199.688h-19.125" stroke-width="1.2" stroke="#000" stroke-miterlimit="10" fill="none"/><path d="M130.875 199.688H111.75" stroke-width="1.2" stroke="#00f" stroke-miterlimit="10" fill="none"/><path d="M163.125 223.313h13v19h-13zm0 0" fill="#fff"/><use xlink:href="#b" x="163.125" y="238.164" fill="#f00"/><path d="M111.75 199.688l-9.563-16.563" stroke-width="1.2" stroke="#00f" stroke-miterlimit="10" fill="none"/><path d="M102.188 183.125l-9.563-16.563" stroke-width="1.2" stroke="#000" stroke-miterlimit="10" fill="none"/><path d="M111.75 199.688l-9.563 16.562" stroke-width="1.2" stroke="#00f" stroke-miterlimit="10" fill="none"/><path d="M102.188 216.25l-9.563 16.563" stroke-width="1.2" stroke="#000" stroke-miterlimit="10" fill="none"/><path d="M105.75 190.188h12v19h-12zm0 0" fill="#fff"/><use xlink:href="#a" x="105.75" y="205.039" fill="#00f"/><path d="M92.625 162.063H73.5" stroke-width="1.2" stroke="#000" stroke-miterlimit="10" fill="none"/><path d="M73.5 162.063H54.375" stroke-width="1.2" stroke="#f00" stroke-miterlimit="10" fill="none"/><path d="M92.625 171.063H73.5" stroke-width="1.2" stroke="#000" stroke-miterlimit="10" fill="none"/><path d="M73.5 171.063H54.375" stroke-width="1.2" stroke="#f00" stroke-miterlimit="10" fill="none"/><path d="M92.625 166.563L102.188 150" stroke-width="1.2" stroke="#000" stroke-miterlimit="10" fill="none"/><path d="M102.188 150l9.562-16.563" stroke-width="1.2" stroke="#00f" stroke-miterlimit="10" fill="none"/><path d="M41.375 157.063h13v19h-13zm0 0" fill="#fff"/><use xlink:href="#b" x="41.375" y="171.914" fill="#f00"/><path d="M111.75 133.438h19.125" stroke-width="1.2" stroke="#00f" stroke-miterlimit="10" fill="none"/><path d="M130.875 133.438H150" stroke-width="1.2" stroke="#000" stroke-miterlimit="10" fill="none"/><path d="M111.75 133.438l-9.563-16.563" stroke-width="1.2" stroke="#00f" stroke-miterlimit="10" fill="none"/><path d="M102.188 116.875l-9.563-16.563" stroke-width="1.2" stroke="#000" stroke-miterlimit="10" fill="none"/><path d="M105.75 123.938h12v19h-12zm0 0" fill="#fff"/><use xlink:href="#a" x="105.75" y="138.789" fill="#00f"/><path d="M153.898 135.688l9.563-16.563" stroke-width="1.2" stroke="#000" stroke-miterlimit="10" fill="none"/><path d="M163.46 119.125l9.563-16.563" stroke-width="1.2" stroke="#f00" stroke-miterlimit="10" fill="none"/><path d="M146.102 131.188l9.562-16.563" stroke-width="1.2" stroke="#000" stroke-miterlimit="10" fill="none"/><path d="M155.664 114.625l9.563-16.563" stroke-width="1.2" stroke="#f00" stroke-miterlimit="10" fill="none"/><path d="M163.125 90.813h13v19h-13zm0 0" fill="#fff"/><use xlink:href="#b" x="163.125" y="105.664" fill="#f00"/><path d="M92.625 100.313l19.125-33.126M115.648 64.938L96.523 31.812M107.852 69.438L88.727 36.312M92.625 232.813h-38.25M50.477 230.563l-19.125 33.125M58.273 235.063l-19.125 33.125" stroke-width="1.2" stroke="#000" stroke-miterlimit="10" fill="none"/></g></svg>