<svg xmlns="http://www.w3.org/2000/svg" xmlns:xlink="http://www.w3.org/1999/xlink" width="300pt" height="300pt" viewBox="0 0 300 300"><defs><symbol overflow="visible"><path d="M.797 2.828v-14.11h8V2.83zm.906-.89h6.203v-12.33H1.703zm0 0"/></symbol><symbol overflow="visible" id="a"><path d="M1.578-11.672h2.125l5.172 9.766v-9.766h1.53V0H8.282L3.11-9.766V0H1.577zm0 0"/></symbol><symbol overflow="visible" id="b"><path d="M1.578-11.672h1.578v4.78H8.89v-4.78h1.58V0H8.89v-5.563H3.157V0H1.578zm0 0"/></symbol><symbol overflow="visible" id="d"><path d="M10.313-10.766v1.657c-.532-.488-1.102-.85-1.704-1.093-.606-.25-1.247-.375-1.922-.375-1.336 0-2.356.406-3.063 1.22-.71.81-1.063 1.99-1.063 3.53 0 1.543.352 2.72 1.063 3.53.707.814 1.727 1.22 3.063 1.22.675 0 1.316-.117 1.92-.36.603-.25 1.173-.617 1.704-1.11v1.642c-.554.375-1.14.664-1.765.86-.617.187-1.266.28-1.953.28-1.762 0-3.153-.54-4.172-1.625C1.41-2.474.906-3.954.906-5.83c0-1.875.504-3.348 1.516-4.422 1.02-1.082 2.41-1.625 4.172-1.625.695 0 1.35.094 1.968.28.626.18 1.208.454 1.75.83zm0 0"/></symbol><symbol overflow="visible" id="e"><path d="M1.516-12.156h1.437V0H1.516zm0 0"/></symbol><symbol overflow="visible"><path d="M.64 2.297v-11.47h6.5v11.47zm.735-.72h5.047V-8.436H1.375zm0 0"/></symbol><symbol overflow="visible" id="c"><path d="M2.5-1.078h4.47V0H.952v-1.078c.488-.5 1.15-1.172 1.985-2.016C3.78-3.944 4.312-4.5 4.53-4.75c.407-.457.69-.848.845-1.172.164-.32.25-.633.25-.937 0-.507-.18-.92-.53-1.234-.345-.312-.806-.47-1.376-.47-.408.002-.837.072-1.283.205-.437.137-.914.352-1.42.64v-1.296c.518-.207 1.003-.363 1.452-.468.444-.114.85-.172 1.217-.172.99 0 1.774.25 2.36.75.582.492.875 1.148.875 1.97 0 .385-.074.756-.22 1.108-.147.344-.413.75-.796 1.22-.105.124-.445.483-1.015 1.077-.562.585-1.36 1.4-2.39 2.452zm0 0"/></symbol></defs><g><path fill="#fff" d="M0 0h300v300H0z"/><path d="M62.457 171.75l10.797-36.695M72.172 170.617l8.633-29.355M88.836 199.445l-26.38-27.695M73.254 135.055l37.176-9M110.43 126.055l26.38 27.695M106.55 135.03l21.106 22.157M136.81 153.75l-10.794 36.695M136.81 153.75l37.174-8.996M126.016 190.445l-37.18 9M120.18 182.598l-29.743 7.2M173.984 144.754l13.192 13.848" stroke-width="1.2" stroke="#000" stroke-miterlimit="10" fill="none"/><path d="M187.176 158.602l13.19 13.847M200.367 172.45l37.176-8.997" stroke-width="1.2" stroke="#00f" stroke-miterlimit="10" fill="none"/><path d="M188.367 162.95h24v19h-24zm0 0" fill="#fff"/><g fill="#00f"><use xlink:href="#a" x="188.367" y="177.801"/><use xlink:href="#b" x="200.336" y="177.801"/></g><path d="M221.543 151.953h33v23h-33zm0 0" fill="#fff"/><g fill="#00f"><use xlink:href="#a" x="221.543" y="166.805"/><use xlink:href="#b" x="233.512" y="166.805"/></g><use xlink:href="#c" x="245.543" y="171.688" fill="#00f"/><path d="M120.41 91.055h28v19h-28zm0 0" fill="#fff"/><g fill="#0c0"><use xlink:href="#d" x="120.41" y="105.906"/><use xlink:href="#e" x="131.582" y="105.906"/><use xlink:href="#b" x="136.027" y="105.906"/></g></g></svg>