<svg xmlns="http://www.w3.org/2000/svg" xmlns:xlink="http://www.w3.org/1999/xlink" width="300pt" height="300pt" viewBox="0 0 300 300"><defs><symbol overflow="visible"><path d="M.453 1.594v-7.938h4.5v7.938zm.5-.5h3.5v-6.938h-3.5zm0 0"/></symbol><symbol overflow="visible" id="a"><path d="M.89-6.563H2.08l2.906 5.485v-5.484h.86V0H4.656L1.75-5.484V0H.89zm0 0"/></symbol><symbol overflow="visible" id="b"><path d="M3.547-5.953c-.65 0-1.164.242-1.547.72-.375.48-.563 1.13-.563 1.952 0 .835.188 1.49.563 1.967.383.48.898.72 1.547.72.644 0 1.156-.24 1.53-.72.376-.476.564-1.132.564-1.968 0-.822-.187-1.474-.562-1.954-.375-.477-.887-.72-1.53-.72zm0-.734c.914 0 1.648.312 2.203.937.55.617.828 1.438.828 2.47 0 1.042-.277 1.87-.828 2.483-.555.617-1.29.922-2.203.922-.93 0-1.668-.305-2.22-.922C.774-1.41.5-2.237.5-3.28c0-1.033.273-1.853.828-2.47.55-.625 1.29-.938 2.22-.938zm0 0"/></symbol></defs><g><path fill="#fff" d="M0 0h300v300H0z"/><path d="M264.75 165.422l-18.066 15.867M260.04 141.84l4.71 23.582M246.684 181.29l-22.778-7.708M223.906 173.582l-2.355-11.793" stroke-width="1.2" stroke="#000" stroke-miterlimit="10" fill="none"/><path d="M221.55 161.79L219.196 150M219.195 150l9.035-7.934" stroke-width="1.2" stroke="#00f" stroke-miterlimit="10" fill="none"/><path d="M228.23 142.066l9.032-7.937" stroke-width="1.2" stroke="#000" stroke-miterlimit="10" fill="none"/><path d="M219.195 150l-11.386-3.855" stroke-width="1.2" stroke="#00f" stroke-miterlimit="10" fill="none"/><path d="M207.81 146.145l-11.392-3.856" stroke-width="1.2" stroke="#000" stroke-miterlimit="10" fill="none"/><path d="M216.195 144.5h7v11h-7zm0 0" fill="#fff"/><use xlink:href="#a" x="216.195" y="153.163" fill="#00f"/><path d="M237.262 134.13l22.777 7.71M199.195 141.734l-2.355-11.79" stroke-width="1.2" stroke="#000" stroke-miterlimit="10" fill="none"/><path d="M196.84 129.945l-2.36-11.79" stroke-width="1.2" stroke="#f00" stroke-miterlimit="10" fill="none"/><path d="M193.645 142.844l-2.356-11.79" stroke-width="1.2" stroke="#000" stroke-miterlimit="10" fill="none"/><path d="M191.29 131.055l-2.356-11.79" stroke-width="1.2" stroke="#f00" stroke-miterlimit="10" fill="none"/><path d="M196.418 142.29l-18.063 15.87" stroke-width="1.2" stroke="#000" stroke-miterlimit="10" fill="none"/><path d="M187.707 113.21h8v11h-8zm0 0" fill="#fff"/><use xlink:href="#b" x="187.707" y="121.874" fill="#f00"/><path d="M178.355 158.16l-22.777-7.71M177.89 152.03l-18.222-6.167M155.578 150.45l-4.71-23.58M150.867 126.87l-22.777-7.71M150.402 120.738l-18.222-6.168M128.09 119.16l-18.067 15.87M110.023 135.03l-22.777-7.71M105.93 139.617l-18.22-6.168M114.734 158.61l-4.71-23.58M87.246 127.32L69.18 143.19M69.18 143.19l4.71 23.58M64.105 146.656l3.766 18.864" stroke-width="1.2" stroke="#000" stroke-miterlimit="10" fill="none"/><path d="M45.297 140.383l11.94 1.402" stroke-width="1.2" stroke="#f00" stroke-miterlimit="10" fill="none"/><path d="M57.238 141.785l11.942 1.406M73.89 166.77l22.778 7.71M73.89 166.77l-10.484 5.882" stroke-width="1.2" stroke="#000" stroke-miterlimit="10" fill="none"/><path d="M63.406 172.652l-10.484 5.887" stroke-width="1.2" stroke="#f00" stroke-miterlimit="10" fill="none"/><path d="M96.668 174.48l18.066-15.87M94.742 168.645l14.453-12.7" stroke-width="1.2" stroke="#000" stroke-miterlimit="10" fill="none"/><path d="M52.922 178.54l-8.836-8.157" stroke-width="1.2" stroke="#f00" stroke-miterlimit="10" fill="none"/><path d="M44.086 170.383l-8.836-8.153" stroke-width="1.2" stroke="#000" stroke-miterlimit="10" fill="none"/><path d="M48.922 173.04h8v11h-8zm0 0" fill="#fff"/><use xlink:href="#b" x="48.922" y="181.702" fill="#f00"/><path d="M35.25 162.23l5.023-10.92" stroke-width="1.2" stroke="#000" stroke-miterlimit="10" fill="none"/><path d="M40.273 151.31l5.024-10.927" stroke-width="1.2" stroke="#f00" stroke-miterlimit="10" fill="none"/><path d="M41.297 134.883h8v11h-8zm0 0" fill="#fff"/><use xlink:href="#b" x="41.297" y="143.546" fill="#f00"/></g></svg>