<svg xmlns="http://www.w3.org/2000/svg" xmlns:xlink="http://www.w3.org/1999/xlink" width="300pt" height="300pt" viewBox="0 0 300 300"><defs><symbol overflow="visible"><path d="M.453 1.594v-7.938h4.5v7.938zm.5-.5h3.5v-6.938h-3.5zm0 0"/></symbol><symbol overflow="visible" id="a"><path d="M3.547-5.953c-.65 0-1.164.242-1.547.72-.375.48-.563 1.13-.563 1.952 0 .835.188 1.49.563 1.967.383.48.898.72 1.547.72.644 0 1.156-.24 1.53-.72.376-.476.564-1.132.564-1.968 0-.822-.187-1.474-.562-1.954-.375-.477-.887-.72-1.53-.72zm0-.734c.914 0 1.648.312 2.203.937.55.617.828 1.438.828 2.47 0 1.042-.277 1.87-.828 2.483-.555.617-1.29.922-2.203.922-.93 0-1.668-.305-2.22-.922C.774-1.41.5-2.237.5-3.28c0-1.033.273-1.853.828-2.47.55-.625 1.29-.938 2.22-.938zm0 0"/></symbol><symbol overflow="visible" id="b"><path d="M.89-6.563h.876v2.688H5v-2.688h.89V0H5v-3.125H1.766V0H.89zm0 0"/></symbol></defs><g><path fill="#fff" d="M0 0h300v300H0z"/><path d="M247.36 98.613l-14.79 18.578M232.57 117.19l8.696 22.1M241.266 139.29l23.484 3.52M241.266 139.29l-14.79 18.577M226.477 157.867l-23.49-3.515M226.477 157.867l4.343 11.05" stroke-width="1.2" stroke="#000" stroke-miterlimit="10" fill="none"/><path d="M230.82 168.918l4.348 11.05" stroke-width="1.2" stroke="#f00" stroke-miterlimit="10" fill="none"/><path d="M205.758 153.984l-1.543-11.77" stroke-width="1.2" stroke="#000" stroke-miterlimit="10" fill="none"/><path d="M204.215 142.215l-1.543-11.774" stroke-width="1.2" stroke="#f00" stroke-miterlimit="10" fill="none"/><path d="M200.22 154.715l-1.544-11.774" stroke-width="1.2" stroke="#000" stroke-miterlimit="10" fill="none"/><path d="M198.676 142.94l-1.547-11.772" stroke-width="1.2" stroke="#f00" stroke-miterlimit="10" fill="none"/><path d="M202.988 154.352l-7.394 9.29" stroke-width="1.2" stroke="#000" stroke-miterlimit="10" fill="none"/><path d="M195.594 163.64l-7.395 9.29" stroke-width="1.2" stroke="#f00" stroke-miterlimit="10" fill="none"/><path d="M195.898 125.305h8v11h-8zm0 0" fill="#fff"/><use xlink:href="#a" x="195.898" y="133.968" fill="#f00"/><path d="M188.2 172.93l-11.743-1.762" stroke-width="1.2" stroke="#f00" stroke-miterlimit="10" fill="none"/><path d="M176.457 171.168l-11.742-1.758" stroke-width="1.2" stroke="#000" stroke-miterlimit="10" fill="none"/><path d="M184.2 167.43h8v11h-8zm0 0" fill="#fff"/><use xlink:href="#a" x="184.199" y="176.093" fill="#f00"/><path d="M164.715 169.41l-8.695-22.097M149.926 187.988l14.79-18.578M156.02 147.313l-23.485-3.52M156.02 147.313l7.394-9.29" stroke-width="1.2" stroke="#000" stroke-miterlimit="10" fill="none"/><path d="M163.414 138.023l7.395-9.293" stroke-width="1.2" stroke="#f00" stroke-miterlimit="10" fill="none"/><path d="M132.535 143.793l-14.79 18.578" stroke-width="1.2" stroke="#000" stroke-miterlimit="10" fill="none"/><path d="M123.84 121.695m.597 2.938l.97-.38m-.376 3.32l1.943-.76m-1.344 3.703l2.91-1.15m-2.313 4.087l3.878-1.527m-3.28 4.47l4.847-1.912m-4.254 4.852l5.824-2.293m-5.226 5.23l6.793-2.67m-6.197 5.612l7.762-3.055m-7.742 3.168l7.8-3.07" stroke="#000" stroke-miterlimit="10" fill="none"/><path d="M118.16 159.61l-23.488-3.52M117.332 165.133l-23.488-3.516M117.746 162.37l8.692 22.1M126.438 184.47l23.488 3.518M126.438 184.47l-11.86-.52" stroke-width="1.2" stroke="#000" stroke-miterlimit="10" fill="none"/><path d="M114.578 183.95l-11.863-.524" stroke-width="1.2" stroke="#f00" stroke-miterlimit="10" fill="none"/><path d="M115.836 205.72l10.602-21.25M149.926 187.988l3.91 23.422" stroke-width="1.2" stroke="#000" stroke-miterlimit="10" fill="none"/><path d="M149.926 187.988L171.863 198l2.102-8.113zm0 0"/><path d="M153.836 211.41l-21.07 10.96M153.836 211.41l21.246 10.606M132.766 222.37l-16.93-16.65M114.723 203.156l-10.89 4.73" stroke-width="1.2" stroke="#000" stroke-miterlimit="10" fill="none"/><path d="M103.832 207.887l-10.89 4.73" stroke-width="1.2" stroke="#f00" stroke-miterlimit="10" fill="none"/><path d="M116.95 208.28l-10.89 4.732" stroke-width="1.2" stroke="#000" stroke-miterlimit="10" fill="none"/><path d="M106.06 213.012l-10.892 4.73" stroke-width="1.2" stroke="#f00" stroke-miterlimit="10" fill="none"/><path d="M86.055 209.68h8v11h-8zm0 0" fill="#fff"/><use xlink:href="#a" x="86.055" y="218.343" fill="#f00"/><path d="M175.082 222.016l21.07-10.957M179.77 225.88l16.85-8.767M178.992 245.438l-3.91-23.422M196.152 211.06l8.465 8.323" stroke-width="1.2" stroke="#000" stroke-miterlimit="10" fill="none"/><path d="M204.617 219.383l8.465 8.328M213.082 227.71l-5.3 10.626" stroke-width="1.2" stroke="#f00" stroke-miterlimit="10" fill="none"/><path d="M207.78 238.336l-5.303 10.62" stroke-width="1.2" stroke="#000" stroke-miterlimit="10" fill="none"/><path d="M209.082 222.21h8v11h-8zm0 0" fill="#fff"/><use xlink:href="#a" x="209.082" y="230.874" fill="#f00"/><path d="M202.477 248.957l-23.485-3.52M200.957 243.082l-18.79-2.816" stroke-width="1.2" stroke="#000" stroke-miterlimit="10" fill="none"/><path d="M87.715 177.926h15v11h-15zm0 0" fill="#fff"/><g fill="#f00"><use xlink:href="#b" x="87.715" y="186.589"/><use xlink:href="#a" x="94.729" y="186.589"/></g><path d="M123.84 121.695l1.754-23.683M123.84 121.695l23.48-3.562M104.23 135.09l19.61-13.395M125.594 98.012l-17.422-16.137M125.594 98.012l11.05-4.348" stroke-width="1.2" stroke="#000" stroke-miterlimit="10" fill="none"/><path d="M136.645 93.664l11.046-4.348" stroke-width="1.2" stroke="#f00" stroke-miterlimit="10" fill="none"/><path d="M108.172 81.875l-23.48 3.56M87 83.86l-6.7-9.805" stroke-width="1.2" stroke="#000" stroke-miterlimit="10" fill="none"/><path d="M80.3 74.055l-6.695-9.805" stroke-width="1.2" stroke="#f00" stroke-miterlimit="10" fill="none"/><path d="M82.387 87.012l-6.7-9.805" stroke-width="1.2" stroke="#000" stroke-miterlimit="10" fill="none"/><path d="M75.688 77.207l-6.696-9.805" stroke-width="1.2" stroke="#f00" stroke-miterlimit="10" fill="none"/><path d="M84.69 85.434l-5.924 10.29" stroke-width="1.2" stroke="#000" stroke-miterlimit="10" fill="none"/><path d="M78.766 95.723l-5.93 10.29" stroke-width="1.2" stroke="#f00" stroke-miterlimit="10" fill="none"/><path d="M63.297 60.324h8v11h-8zm0 0" fill="#fff"/><use xlink:href="#a" x="63.297" y="68.987" fill="#f00"/><path d="M72.836 106.012l4.348 11.047" stroke-width="1.2" stroke="#f00" stroke-miterlimit="10" fill="none"/><path d="M77.184 117.06l4.347 11.05" stroke-width="1.2" stroke="#000" stroke-miterlimit="10" fill="none"/><path d="M68.836 100.512h8v11h-8zm0 0" fill="#fff"/><use xlink:href="#a" x="68.836" y="109.175" fill="#f00"/><path d="M81.53 128.11l22.7 6.98" stroke-width="1.2" stroke="#000" stroke-miterlimit="10" fill="none"/><path d="M81.53 128.11l-24.104-.587 1.254 8.29zm0 0"/><path d="M81.53 128.11l-1.753 23.68M104.23 135.09l3.56 23.476M107.79 158.566L89.233 173.39M89.594 170.617l-11.774-1.523" stroke-width="1.2" stroke="#000" stroke-miterlimit="10" fill="none"/><path d="M77.82 169.094l-11.777-1.524" stroke-width="1.2" stroke="#f00" stroke-miterlimit="10" fill="none"/><path d="M88.88 176.16L77.1 174.637" stroke-width="1.2" stroke="#000" stroke-miterlimit="10" fill="none"/><path d="M77.102 174.637l-11.774-1.524" stroke-width="1.2" stroke="#f00" stroke-miterlimit="10" fill="none"/><path d="M89.234 173.39l1.782 11.74" stroke-width="1.2" stroke="#000" stroke-miterlimit="10" fill="none"/><path d="M91.016 185.13l1.78 11.737" stroke-width="1.2" stroke="#f00" stroke-miterlimit="10" fill="none"/><path d="M57.684 164.84h8v11h-8zm0 0" fill="#fff"/><use xlink:href="#a" x="57.684" y="173.503" fill="#f00"/><path d="M92.797 196.867l-9.277 7.414" stroke-width="1.2" stroke="#f00" stroke-miterlimit="10" fill="none"/><path d="M83.52 204.28l-9.278 7.41" stroke-width="1.2" stroke="#000" stroke-miterlimit="10" fill="none"/><path d="M88.797 191.367h8v11h-8zm0 0" fill="#fff"/><use xlink:href="#a" x="88.797" y="200.03" fill="#f00"/><path d="M79.777 151.79l-10.69 5.163" stroke-width="1.2" stroke="#000" stroke-miterlimit="10" fill="none"/><path d="M69.086 156.953l-10.695 5.16M58.39 162.113l-.874 11.84" stroke-width="1.2" stroke="#f00" stroke-miterlimit="10" fill="none"/><path d="M57.516 173.953l-.88 11.844" stroke-width="1.2" stroke="#000" stroke-miterlimit="10" fill="none"/><path d="M54.39 156.613h8v11h-8zm0 0" fill="#fff"/><use xlink:href="#a" x="54.391" y="165.276" fill="#f00"/><path d="M55.066 188.105l9.817 6.68" stroke-width="1.2" stroke="#000" stroke-miterlimit="10" fill="none"/><path d="M64.883 194.785l9.816 6.68" stroke-width="1.2" stroke="#f00" stroke-miterlimit="10" fill="none"/><path d="M58.207 183.484l9.816 6.68" stroke-width="1.2" stroke="#000" stroke-miterlimit="10" fill="none"/><path d="M68.023 190.164l9.817 6.684" stroke-width="1.2" stroke="#f00" stroke-miterlimit="10" fill="none"/><path d="M56.637 185.797l-21.387 10.32" stroke-width="1.2" stroke="#000" stroke-miterlimit="10" fill="none"/><path d="M72.27 193.656h8v11h-8zm0 0" fill="#fff"/><use xlink:href="#a" x="72.27" y="202.319" fill="#f00"/><path d="M147.69 89.316l1.763-11.742" stroke-width="1.2" stroke="#f00" stroke-miterlimit="10" fill="none"/><path d="M149.453 77.574l1.758-11.742" stroke-width="1.2" stroke="#000" stroke-miterlimit="10" fill="none"/><path d="M143.69 83.816h8v11h-8zm0 0" fill="#fff"/><use xlink:href="#a" x="143.691" y="92.479" fill="#f00"/><path d="M152.95 63.645l-9.29-7.395" stroke-width="1.2" stroke="#000" stroke-miterlimit="10" fill="none"/><path d="M143.66 56.25l-9.29-7.395" stroke-width="1.2" stroke="#f00" stroke-miterlimit="10" fill="none"/><path d="M149.473 68.016l-9.293-7.395" stroke-width="1.2" stroke="#000" stroke-miterlimit="10" fill="none"/><path d="M140.18 60.62l-9.29-7.393" stroke-width="1.2" stroke="#f00" stroke-miterlimit="10" fill="none"/><path d="M151.21 65.832l22.1-8.695" stroke-width="1.2" stroke="#000" stroke-miterlimit="10" fill="none"/><path d="M124.633 45.543h8v11h-8zm0 0" fill="#fff"/><use xlink:href="#a" x="124.633" y="54.206" fill="#f00"/><path d="M170.81 128.73l11.74 1.762" stroke-width="1.2" stroke="#f00" stroke-miterlimit="10" fill="none"/><path d="M182.55 130.492l11.743 1.758" stroke-width="1.2" stroke="#000" stroke-miterlimit="10" fill="none"/><path d="M166.81 123.23h8v11h-8zm0 0" fill="#fff"/><use xlink:href="#a" x="166.809" y="131.894" fill="#f00"/><path d="M196.48 133.992l7.395-9.29" stroke-width="1.2" stroke="#000" stroke-miterlimit="10" fill="none"/><path d="M203.875 124.703l7.395-9.29" stroke-width="1.2" stroke="#f00" stroke-miterlimit="10" fill="none"/><path d="M192.11 130.512l7.394-9.29" stroke-width="1.2" stroke="#000" stroke-miterlimit="10" fill="none"/><path d="M199.504 121.223l7.394-9.29" stroke-width="1.2" stroke="#f00" stroke-miterlimit="10" fill="none"/><path d="M205.086 108.172h8v11h-8zm0 0" fill="#fff"/><use xlink:href="#a" x="205.086" y="116.835" fill="#f00"/><path d="M228.168 174.47h15v11h-15zm0 0" fill="#fff"/><g fill="#f00"><use xlink:href="#a" x="228.168" y="183.132"/><use xlink:href="#b" x="235.51" y="183.132"/></g></g></svg>