<svg xmlns="http://www.w3.org/2000/svg" xmlns:xlink="http://www.w3.org/1999/xlink" width="300pt" height="300pt" viewBox="0 0 300 300"><defs><symbol overflow="visible"><path d="M.453 1.594v-7.938h4.5v7.938zm.5-.5h3.5v-6.938h-3.5zm0 0"/></symbol><symbol overflow="visible" id="a"><path d="M.89-6.563H2.08l2.906 5.485v-5.484h.86V0H4.656L1.75-5.484V0H.89zm0 0"/></symbol><symbol overflow="visible" id="b"><path d="M3.547-5.953c-.65 0-1.164.242-1.547.72-.375.48-.563 1.13-.563 1.952 0 .835.188 1.49.563 1.967.383.48.898.72 1.547.72.644 0 1.156-.24 1.53-.72.376-.476.564-1.132.564-1.968 0-.822-.187-1.474-.562-1.954-.375-.477-.887-.72-1.53-.72zm0-.734c.914 0 1.648.312 2.203.937.55.617.828 1.438.828 2.47 0 1.042-.277 1.87-.828 2.483-.555.617-1.29.922-2.203.922-.93 0-1.668-.305-2.22-.922C.774-1.41.5-2.237.5-3.28c0-1.033.273-1.853.828-2.47.55-.625 1.29-.938 2.22-.938zm0 0"/></symbol><symbol overflow="visible" id="c"><path d="M.89-6.563h.876v2.688H5v-2.688h.89V0H5v-3.125H1.766V0H.89zm0 0"/></symbol></defs><g><path fill="#fff" d="M0 0h300v300H0z"/><path d="M234.313 108.71l.18 17.47M234.492 126.18l-15.04 8.89M235.082 130.605l-12.03 7.114M249.71 134.758l-15.218-8.578M219.453 135.07l.18 17.47M219.633 152.54l15.22 8.577M219.137 156.977l12.175 6.863" stroke-width="1.2" stroke="#000" stroke-miterlimit="10" fill="none"/><path d="M203.438 159.086l8.097-3.274" stroke-width="1.2" stroke="#00f" stroke-miterlimit="10" fill="none"/><path d="M211.535 155.813l8.098-3.274M234.852 161.117l2.78 17.246M234.852 161.117l7.52-4.445" stroke-width="1.2" stroke="#000" stroke-miterlimit="10" fill="none"/><path d="M242.37 156.672l7.52-4.445" stroke-width="1.2" stroke="#00f" stroke-miterlimit="10" fill="none"/><path d="M237.633 178.363l-11.75 12.926M225.883 191.29l-17.434-1.126M208.45 190.164l-9.99-14.332M198.46 175.832l2.49-8.37" stroke-width="1.2" stroke="#000" stroke-miterlimit="10" fill="none"/><path d="M200.95 167.46l2.488-8.374M203.438 159.086l-6.46-5.875" stroke-width="1.2" stroke="#00f" stroke-miterlimit="10" fill="none"/><path d="M196.977 153.21l-6.465-5.874" stroke-width="1.2" stroke="#000" stroke-miterlimit="10" fill="none"/><path d="M200.438 153.586h7v11h-7zm0 0" fill="#fff"/><use xlink:href="#a" x="200.438" y="162.249" fill="#00f"/><path d="M190.512 147.336l-16.64 5.32M173.87 152.656l-12.925-11.75M160.945 140.906l-8.32 2.66" stroke-width="1.2" stroke="#000" stroke-miterlimit="10" fill="none"/><path d="M152.625 143.566l-8.32 2.66" stroke-width="1.2" stroke="#00f" stroke-miterlimit="10" fill="none"/><path d="M158.027 137.523l-6.656 2.13" stroke-width="1.2" stroke="#000" stroke-miterlimit="10" fill="none"/><path d="M151.37 139.652l-6.655 2.13" stroke-width="1.2" stroke="#00f" stroke-miterlimit="10" fill="none"/><path d="M160.945 140.906l3.71-17.07" stroke-width="1.2" stroke="#000" stroke-miterlimit="10" fill="none"/><path d="M144.305 146.227l-6.465-5.875" stroke-width="1.2" stroke="#00f" stroke-miterlimit="10" fill="none"/><path d="M137.84 140.352l-6.465-5.875" stroke-width="1.2" stroke="#f00" stroke-miterlimit="10" fill="none"/><path d="M141.305 140.727h7v11h-7zm0 0" fill="#fff"/><use xlink:href="#a" x="141.305" y="149.39" fill="#00f"/><path d="M114.738 139.8m2.973-.405l-.32-.993m3.294.59l-.637-1.984m3.61 1.582l-.954-2.98m3.926 2.577l-1.275-3.972m4.247 3.566l-1.59-4.964m4.304 4.598l-1.88-5.87" stroke="#000" stroke-miterlimit="10" fill="none"/><path d="M127.375 128.977h8v11h-8zm0 0" fill="#fff"/><use xlink:href="#b" x="127.375" y="137.64" fill="#f00"/><path d="M114.738 139.8l-12.93-11.75M111.023 156.87l3.715-17.07M101.81 128.05l-16.642 5.32M101.398 132.496l-13.312 4.258M85.168 133.37l-3.71 17.07M81.457 150.44l6.465 5.876" stroke-width="1.2" stroke="#000" stroke-miterlimit="10" fill="none"/><path d="M87.922 156.316l6.465 5.875" stroke-width="1.2" stroke="#f00" stroke-miterlimit="10" fill="none"/><path d="M81.457 150.44m-2.973.404l.317.992m-3.288-.59l.636 1.988m-3.61-1.586l.954 2.98m-3.926-2.573l1.27 3.972m-4.242-3.57l1.586 4.965m-4.3-4.598l1.878 5.875" stroke="#000" stroke-miterlimit="10" fill="none"/><path d="M94.387 162.19l8.316-2.66" stroke-width="1.2" stroke="#f00" stroke-miterlimit="10" fill="none"/><path d="M102.703 159.53l8.32-2.66" stroke-width="1.2" stroke="#000" stroke-miterlimit="10" fill="none"/><path d="M90.387 156.69h8v11h-8zm0 0" fill="#fff"/><use xlink:href="#b" x="90.387" y="165.354" fill="#f00"/><path d="M111.023 156.87m1.836 2.372l.703-.77m1.132 3.145l1.403-1.543m.433 3.914l2.107-2.316m-.27 4.69l2.805-3.09m-.97 5.462l3.51-3.86m-1.833 6.028l4.147-4.562" stroke="#000" stroke-miterlimit="10" fill="none"/><path d="M123.953 168.62l-1.855 8.536" stroke-width="1.2" stroke="#000" stroke-miterlimit="10" fill="none"/><path d="M122.098 177.156l-1.856 8.535" stroke-width="1.2" stroke="#f00" stroke-miterlimit="10" fill="none"/><path d="M113.242 180.19h15v11h-15zm0 0" fill="#fff"/><g fill="#f00"><use xlink:href="#c" x="113.242" y="188.854"/><use xlink:href="#b" x="120.257" y="188.854"/></g><path d="M64.816 155.762l-12.925-11.75M51.266 142.055l-16.64 5.32M52.516 145.97l-16.64 5.32" stroke-width="1.2" stroke="#000" stroke-miterlimit="10" fill="none"/><path d="M249.89 152.227l-.09-8.735" stroke-width="1.2" stroke="#00f" stroke-miterlimit="10" fill="none"/><path d="M249.8 143.492l-.09-8.734" stroke-width="1.2" stroke="#000" stroke-miterlimit="10" fill="none"/><path d="M245.762 150.52l-.07-6.985" stroke-width="1.2" stroke="#00f" stroke-miterlimit="10" fill="none"/><path d="M245.69 143.535l-.07-6.988" stroke-width="1.2" stroke="#000" stroke-miterlimit="10" fill="none"/><path d="M246.89 146.727h7v11h-7zm0 0" fill="#fff"/><use xlink:href="#a" x="246.891" y="155.39" fill="#00f"/><path d="M249.71 134.758l15.04-8.89" stroke-width="1.2" stroke="#000" stroke-miterlimit="10" fill="none"/></g></svg>