<svg xmlns="http://www.w3.org/2000/svg" xmlns:xlink="http://www.w3.org/1999/xlink" width="300pt" height="300pt" viewBox="0 0 300 300"><defs><symbol overflow="visible"><path d="M.453 1.594v-7.938h4.5v7.938zm.5-.5h3.5v-6.938h-3.5zm0 0"/></symbol><symbol overflow="visible" id="a"><path d="M.89-6.563H2.08l2.906 5.485v-5.484h.86V0H4.656L1.75-5.484V0H.89zm0 0"/></symbol><symbol overflow="visible" id="b"><path d="M.89-6.563h.876v2.688H5v-2.688h.89V0H5v-3.125H1.766V0H.89zm0 0"/></symbol><symbol overflow="visible" id="c"><path d="M3.547-5.953c-.65 0-1.164.242-1.547.72-.375.48-.563 1.13-.563 1.952 0 .835.188 1.49.563 1.967.383.48.898.72 1.547.72.644 0 1.156-.24 1.53-.72.376-.476.564-1.132.564-1.968 0-.822-.187-1.474-.562-1.954-.375-.477-.887-.72-1.53-.72zm0-.734c.914 0 1.648.312 2.203.937.55.617.828 1.438.828 2.47 0 1.042-.277 1.87-.828 2.483-.555.617-1.29.922-2.203.922-.93 0-1.668-.305-2.22-.922C.774-1.41.5-2.237.5-3.28c0-1.033.273-1.853.828-2.47.55-.625 1.29-.938 2.22-.938zm0 0"/></symbol></defs><g><path fill="#fff" d="M0 0h300v300H0z"/><path d="M264.75 88.004l-6.762 12.52M257.988 100.523l-14.226.407M243.762 100.93l-3.38 6.257" stroke-width="1.2" stroke="#000" stroke-miterlimit="10" fill="none"/><path d="M240.383 107.188l-3.383 6.26M237 113.45l-7.113.198" stroke-width="1.2" stroke="#00f" stroke-miterlimit="10" fill="none"/><path d="M229.887 113.648l-7.114.204" stroke-width="1.2" stroke="#000" stroke-miterlimit="10" fill="none"/><path d="M230 107.95h14v11h-14zm0 0" fill="#fff"/><g fill="#00f"><use xlink:href="#a" x="230" y="116.612"/><use xlink:href="#b" x="236.978" y="116.612"/></g><path d="M224.2 112.973l-3.73-6.06" stroke-width="1.2" stroke="#000" stroke-miterlimit="10" fill="none"/><path d="M220.47 106.914l-3.732-6.06" stroke-width="1.2" stroke="#f00" stroke-miterlimit="10" fill="none"/><path d="M221.352 114.727l-3.73-6.06" stroke-width="1.2" stroke="#000" stroke-miterlimit="10" fill="none"/><path d="M217.62 108.668l-3.73-6.06" stroke-width="1.2" stroke="#f00" stroke-miterlimit="10" fill="none"/><path d="M222.773 113.852l-3.378 6.257" stroke-width="1.2" stroke="#000" stroke-miterlimit="10" fill="none"/><path d="M219.395 120.11l-3.383 6.26" stroke-width="1.2" stroke="#f00" stroke-miterlimit="10" fill="none"/><path d="M207.316 96.234h8v11h-8zm0 0" fill="#fff"/><use xlink:href="#c" x="207.316" y="104.897" fill="#f00"/><path d="M216.012 126.37l-7.114.2" stroke-width="1.2" stroke="#f00" stroke-miterlimit="10" fill="none"/><path d="M208.898 126.57l-7.11.203" stroke-width="1.2" stroke="#000" stroke-miterlimit="10" fill="none"/><path d="M212.012 120.87h8v11h-8zm0 0" fill="#fff"/><use xlink:href="#c" x="212.012" y="129.534" fill="#f00"/><path d="M195.023 139.293m1.864-2.352l-.918-.495m2.78-1.855l-1.836-.992m3.7-1.36l-2.755-1.488m4.617-.863l-3.672-1.985m5.19.063l-4.417-2.387" stroke="#000" stroke-miterlimit="10" fill="none"/><path d="M195.023 139.293l7.46 12.117" stroke-width="1.2" stroke="#000" stroke-miterlimit="10" fill="none"/><path d="M180.8 139.695l7.114-.203" stroke-width="1.2" stroke="#f00" stroke-miterlimit="10" fill="none"/><path d="M187.914 139.492l7.11-.2M202.484 151.41l-6.76 12.52" stroke-width="1.2" stroke="#000" stroke-miterlimit="10" fill="none"/><path d="M202.484 151.41l14.297 2.106-.143-5.02zm0 0"/><path d="M195.723 163.93l-14.227.402M194.203 160.62l-11.38.325M181.496 164.332l-7.46-12.117M174.035 152.215l3.383-6.262" stroke-width="1.2" stroke="#000" stroke-miterlimit="10" fill="none"/><path d="M177.418 145.953l3.383-6.258" stroke-width="1.2" stroke="#f00" stroke-miterlimit="10" fill="none"/><path d="M174.035 152.215m-2.965-.438l.028 1.043m-2.996-1.48l.058 2.082m-3.027-2.52l.09 3.125m-3.06-3.562l.122 4.168m-2.543-4.528l.14 5.02" stroke="#000" stroke-miterlimit="10" fill="none"/><path d="M176.8 134.195h8v11h-8zm0 0" fill="#fff"/><use xlink:href="#c" x="176.801" y="142.858" fill="#f00"/><path d="M159.813 152.617l-6.762 12.52M153.05 165.137l-7.113.2" stroke-width="1.2" stroke="#000" stroke-miterlimit="10" fill="none"/><path d="M145.938 165.336l-7.114.203M138.824 165.54l-3.38 6.257" stroke-width="1.2" stroke="#f00" stroke-miterlimit="10" fill="none"/><path d="M135.445 171.797l-3.382 6.262" stroke-width="1.2" stroke="#00f" stroke-miterlimit="10" fill="none"/><path d="M134.824 160.04h8v11h-8zm0 0" fill="#fff"/><use xlink:href="#c" x="134.824" y="168.702" fill="#f00"/><path d="M132.063 178.06l-7.114.202" stroke-width="1.2" stroke="#00f" stroke-miterlimit="10" fill="none"/><path d="M124.95 178.262l-7.11.2" stroke-width="1.2" stroke="#000" stroke-miterlimit="10" fill="none"/><path d="M130.547 174.754l-5.692.16" stroke-width="1.2" stroke="#00f" stroke-miterlimit="10" fill="none"/><path d="M124.855 174.914l-5.69.16" stroke-width="1.2" stroke="#000" stroke-miterlimit="10" fill="none"/><path d="M129.063 172.56h7v11h-7zm0 0" fill="#fff"/><use xlink:href="#a" x="129.063" y="181.222" fill="#00f"/><path d="M110.38 166.344l5.32 13.433 4.277-2.632zm0 0"/><path d="M117.84 178.46l-6.766 12.52M110.38 166.344l6.76-12.52M96.152 166.746l14.227-.402M117.14 153.824l-7.46-12.117M109.68 141.707l-7.11.203" stroke-width="1.2" stroke="#000" stroke-miterlimit="10" fill="none"/><path d="M102.57 141.91l-7.113.2M95.457 142.11l-4.91-5.15" stroke-width="1.2" stroke="#00f" stroke-miterlimit="10" fill="none"/><path d="M90.547 136.96l-4.906-5.15" stroke-width="1.2" stroke="#000" stroke-miterlimit="10" fill="none"/><path d="M88.69 154.63l6.767-12.52" stroke-width="1.2" stroke="#00f" stroke-miterlimit="10" fill="none"/><path d="M92.457 136.61h7v11h-7zm0 0" fill="#fff"/><use xlink:href="#a" x="92.457" y="145.272" fill="#00f"/><path d="M87.285 132.11l1.28-6.997" stroke-width="1.2" stroke="#000" stroke-miterlimit="10" fill="none"/><path d="M88.566 125.113l1.286-7" stroke-width="1.2" stroke="#f00" stroke-miterlimit="10" fill="none"/><path d="M83.992 131.508l1.28-7" stroke-width="1.2" stroke="#000" stroke-miterlimit="10" fill="none"/><path d="M85.273 124.508l1.282-6.996" stroke-width="1.2" stroke="#f00" stroke-miterlimit="10" fill="none"/><path d="M85.64 131.81l-6.417 3.077" stroke-width="1.2" stroke="#000" stroke-miterlimit="10" fill="none"/><path d="M79.223 134.887l-6.414 3.074" stroke-width="1.2" stroke="#00f" stroke-miterlimit="10" fill="none"/><path d="M84.203 112.313h8v11h-8zm0 0" fill="#fff"/><use xlink:href="#c" x="84.203" y="120.976" fill="#f00"/><path d="M72.81 137.96l.944 7.056" stroke-width="1.2" stroke="#00f" stroke-miterlimit="10" fill="none"/><path d="M73.754 145.016l.94 7.05" stroke-width="1.2" stroke="#000" stroke-miterlimit="10" fill="none"/><path d="M72.81 137.96l-6.26-3.378" stroke-width="1.2" stroke="#00f" stroke-miterlimit="10" fill="none"/><path d="M66.55 134.582l-6.26-3.383" stroke-width="1.2" stroke="#000" stroke-miterlimit="10" fill="none"/><path d="M69.81 132.46h7v11h-7zm0 0" fill="#fff"/><use xlink:href="#a" x="69.809" y="141.124" fill="#00f"/><path d="M73.543 150.855l-5.152 4.907" stroke-width="1.2" stroke="#000" stroke-miterlimit="10" fill="none"/><path d="M68.39 155.762l-5.152 4.91" stroke-width="1.2" stroke="#f00" stroke-miterlimit="10" fill="none"/><path d="M75.852 153.277l-5.153 4.91" stroke-width="1.2" stroke="#000" stroke-miterlimit="10" fill="none"/><path d="M70.7 158.188l-5.15 4.906" stroke-width="1.2" stroke="#f00" stroke-miterlimit="10" fill="none"/><path d="M74.695 152.066l7 1.282" stroke-width="1.2" stroke="#000" stroke-miterlimit="10" fill="none"/><path d="M81.695 153.348l6.996 1.28" stroke-width="1.2" stroke="#00f" stroke-miterlimit="10" fill="none"/><path d="M56.395 156.383h8v11h-8zm0 0" fill="#fff"/><use xlink:href="#c" x="56.395" y="165.046" fill="#f00"/><path d="M96.152 166.746m-1.105-2.79l-.887.548m-.215-3.336l-1.777 1.094m.672-3.883l-2.664 1.64m1.558-4.43l-3.55 2.187m2.648-4.464l-4.277 2.632" stroke="#000" stroke-miterlimit="10" fill="none"/><path d="M85.69 149.13h7v11h-7zm0 0" fill="#fff"/><use xlink:href="#a" x="85.691" y="157.792" fill="#00f"/><path d="M96.152 166.746l-6.76 12.52M89.39 179.266l7.462 12.117" stroke-width="1.2" stroke="#000" stroke-miterlimit="10" fill="none"/><path d="M89.39 179.266l-14.296-2.106.144 5.02zm0 0"/><path d="M96.852 191.383l14.222-.403" stroke-width="1.2" stroke="#000" stroke-miterlimit="10" fill="none"/><path d="M96.852 191.383m1.105 2.79l.887-.548m.22 3.336l1.772-1.093m-.672 3.883l2.664-1.64m-1.558 4.43l3.554-2.188m-2.652 4.464l4.277-2.632" stroke="#000" stroke-miterlimit="10" fill="none"/><path d="M111.074 190.98l-8.972 11.33 4.418 2.385zm0 0"/><path d="M100.313 198h8v11h-8zm0 0" fill="#fff"/><use xlink:href="#c" x="100.313" y="206.663" fill="#f00"/><path d="M60.168 174.168h15v11h-15zm0 0" fill="#fff"/><g fill="#f00"><use xlink:href="#b" x="60.168" y="182.831"/><use xlink:href="#c" x="67.183" y="182.831"/></g><path d="M60.29 131.2l-.403-14.227M56.902 129.87l-.32-11.378M48.172 138.66l12.117-7.46M59.887 116.973l-12.52-6.762M47.367 110.21l-12.117 7.462M47.91 113.81l-9.69 5.967M35.25 117.672l.402 14.223M35.652 131.895l12.52 6.765M38.496 129.625l10.016 5.41" stroke-width="1.2" stroke="#000" stroke-miterlimit="10" fill="none"/><path d="M216.71 151.008l3.727 6.058" stroke-width="1.2" stroke="#f00" stroke-miterlimit="10" fill="none"/><path d="M220.438 157.066l3.73 6.06" stroke-width="1.2" stroke="#000" stroke-miterlimit="10" fill="none"/><path d="M212.71 145.508h8v11h-8zm0 0" fill="#fff"/><use xlink:href="#c" x="212.711" y="154.171" fill="#f00"/><path d="M224.168 163.125l-6.762 12.52M226.438 165.97l-5.41 10.014M238.395 162.723l-14.227.402M217.406 175.645l7.46 12.117M224.867 187.762l14.223-.403M226.195 184.375l11.38-.324M239.09 187.36l6.765-12.52M239.09 187.36l3.73 6.058" stroke-width="1.2" stroke="#000" stroke-miterlimit="10" fill="none"/><path d="M242.82 193.418l3.73 6.06" stroke-width="1.2" stroke="#f00" stroke-miterlimit="10" fill="none"/><path d="M245.855 174.84l-7.46-12.117M242.258 175.383l-5.97-9.696" stroke-width="1.2" stroke="#000" stroke-miterlimit="10" fill="none"/><path d="M246.55 199.477l-3.378 6.257" stroke-width="1.2" stroke="#f00" stroke-miterlimit="10" fill="none"/><path d="M243.172 205.734l-3.383 6.262" stroke-width="1.2" stroke="#000" stroke-miterlimit="10" fill="none"/><path d="M242.55 193.977h8v11h-8zm0 0" fill="#fff"/><use xlink:href="#c" x="242.551" y="202.64" fill="#f00"/></g></svg>