<svg xmlns="http://www.w3.org/2000/svg" xmlns:xlink="http://www.w3.org/1999/xlink" width="300pt" height="300pt" viewBox="0 0 300 300"><defs><symbol overflow="visible"><path d="M.594 2.125V-8.47h6V2.126zm.672-.672h4.671V-7.78h-4.67zm0 0"/></symbol><symbol overflow="visible" id="a"><path d="M4.734-7.953c-.867 0-1.554.324-2.062.97-.5.635-.75 1.51-.75 2.624 0 1.094.25 1.965.75 2.61.508.637 1.195.953 2.062.953.852 0 1.532-.316 2.032-.953.507-.645.765-1.516.765-2.61 0-1.113-.257-1.988-.764-2.624-.5-.645-1.18-.97-2.032-.97zm0-.953c1.22 0 2.192.414 2.922 1.234.74.824 1.11 1.93 1.11 3.313 0 1.376-.37 2.477-1.11 3.298C6.926-.24 5.953.17 4.734.17c-1.23 0-2.214-.41-2.953-1.234C1.04-1.882.673-2.984.673-4.36c0-1.382.367-2.488 1.11-3.312.738-.82 1.722-1.234 2.952-1.234zm0 0"/></symbol><symbol overflow="visible" id="b"><path d="M1.172-8.75h1.594l3.89 7.313V-8.75h1.14V0H6.204L2.328-7.313V0H1.172zm0 0"/></symbol><symbol overflow="visible" id="c"><path d="M2.36-4.172V-.97h1.906c.632 0 1.1-.128 1.406-.39.312-.27.47-.675.47-1.218 0-.55-.158-.953-.47-1.203-.305-.26-.774-.392-1.406-.392zm0-3.61v2.64h1.75c.58 0 1.015-.108 1.296-.327.282-.218.422-.546.422-.983 0-.445-.14-.78-.422-1-.28-.22-.715-.328-1.297-.328zM1.17-8.75h3.03c.907 0 1.6.188 2.08.563.488.374.734.906.734 1.593 0 .543-.125.977-.375 1.297-.25.313-.617.508-1.093.578.582.126 1.035.388 1.36.782.32.4.484.89.484 1.485 0 .78-.265 1.387-.796 1.812C6.062-.21 5.3 0 4.312 0h-3.14zm0 0"/></symbol><symbol overflow="visible" id="d"><path d="M4.938-5.563c-.125-.062-.262-.11-.407-.14-.135-.04-.292-.063-.468-.063-.605 0-1.074.2-1.406.594-.324.4-.484.97-.484 1.72V0H1.094v-6.563h1.078v1.016c.226-.394.523-.687.89-.875.364-.195.805-.297 1.33-.297.07 0 .147.01.233.017.094.012.19.027.297.047zm0 0"/></symbol></defs><g><path fill="#fff" d="M0 0h300v300H0z"/><path d="M151.59 252.68l-21.297-23.676M130.293 229.004L99.14 235.61M140.145 198.723l-9.852 30.28M99.14 235.61l-21.296-23.673M77.844 211.938l9.855-30.282M87.7 181.656L66.4 157.98" stroke-width="1.2" stroke="#000" stroke-miterlimit="10" fill="none"/><path d="M118.848 175.05l-15.575 3.302" stroke-width="1.2" stroke="#00f" stroke-miterlimit="10" fill="none"/><path d="M103.273 178.352L87.7 181.656M65.625 154.316l-15.578 3.305" stroke-width="1.2" stroke="#000" stroke-miterlimit="10" fill="none"/><path d="M50.047 157.62l-15.574 3.302" stroke-width="1.2" stroke="#f00" stroke-miterlimit="10" fill="none"/><path d="M67.18 161.645l-15.578 3.304" stroke-width="1.2" stroke="#000" stroke-miterlimit="10" fill="none"/><path d="M51.602 164.95l-15.575 3.304" stroke-width="1.2" stroke="#f00" stroke-miterlimit="10" fill="none"/><path d="M66.402 157.98l4.926-15.14" stroke-width="1.2" stroke="#000" stroke-miterlimit="10" fill="none"/><path d="M71.328 142.84l4.926-15.14" stroke-width="1.2" stroke="#f00" stroke-miterlimit="10" fill="none"/><path d="M25.25 157.586h10v14h-10zm0 0" fill="#fff"/><use xlink:href="#a" x="25.25" y="168.725" fill="#f00"/><path d="M76.254 127.7l15.578-3.302" stroke-width="1.2" stroke="#f00" stroke-miterlimit="10" fill="none"/><path d="M91.832 124.398l15.574-3.304" stroke-width="1.2" stroke="#000" stroke-miterlimit="10" fill="none"/><path d="M71.254 120.7h10v14h-10zm0 0" fill="#fff"/><use xlink:href="#a" x="71.254" y="131.838" fill="#f00"/><path d="M107.406 121.094l21.297 23.676M107.406 121.094l9.856-30.28M128.703 144.77l-4.926 15.14" stroke-width="1.2" stroke="#000" stroke-miterlimit="10" fill="none"/><path d="M123.777 159.91l-4.93 15.14M118.848 175.05l10.648 11.837" stroke-width="1.2" stroke="#00f" stroke-miterlimit="10" fill="none"/><path d="M129.496 186.887l10.65 11.836" stroke-width="1.2" stroke="#000" stroke-miterlimit="10" fill="none"/><path d="M114.848 168.05h9v14h-9zm0 0" fill="#fff"/><use xlink:href="#b" x="114.848" y="179.189" fill="#00f"/><path d="M140.145 198.723l31.152-6.606M171.297 192.117l21.297 23.676M178.996 189.473l17.04 18.94M181.152 161.836l-9.855 30.28M192.594 215.793l31.152-6.606M223.746 209.188l9.852-30.282M217.605 203.84l7.883-24.227M233.598 178.906L212.3 155.23M233.598 178.906l15.578-3.304" stroke-width="1.2" stroke="#000" stroke-miterlimit="10" fill="none"/><path d="M249.176 175.602l15.574-3.3" stroke-width="1.2" stroke="#7f4d1a" stroke-miterlimit="10" fill="none"/><path d="M212.3 155.23l-31.148 6.606M210.742 163.223l-24.922 5.285" stroke-width="1.2" stroke="#000" stroke-miterlimit="10" fill="none"/><path d="M257.75 165.3h14v14h-14zm0 0" fill="#fff"/><g fill="#7f4d1a"><use xlink:href="#c" x="257.75" y="176.439"/><use xlink:href="#d" x="265.982" y="176.439"/></g><path d="M117.262 90.813l15.574-3.3" stroke-width="1.2" stroke="#000" stroke-miterlimit="10" fill="none"/><path d="M132.836 87.512l15.574-3.305M148.41 84.207l4.93-15.14" stroke-width="1.2" stroke="#f00" stroke-miterlimit="10" fill="none"/><path d="M153.34 69.066l4.926-15.14" stroke-width="1.2" stroke="#000" stroke-miterlimit="10" fill="none"/><path d="M143.41 77.207h10v14h-10zm0 0" fill="#fff"/><use xlink:href="#a" x="143.41" y="88.346" fill="#f00"/><path d="M159.043 57.59l31.152-6.606M157.488 50.262l31.153-6.606" stroke-width="1.2" stroke="#000" stroke-miterlimit="10" fill="none"/></g></svg>