<svg xmlns="http://www.w3.org/2000/svg" xmlns:xlink="http://www.w3.org/1999/xlink" width="300pt" height="300pt" viewBox="0 0 300 300"><defs><symbol overflow="visible"><path d="M.453 1.594v-7.938h4.5v7.938zm.5-.5h3.5v-6.938h-3.5zm0 0"/></symbol><symbol overflow="visible" id="a"><path d="M3.547-5.953c-.65 0-1.164.242-1.547.72-.375.48-.563 1.13-.563 1.952 0 .835.188 1.49.563 1.967.383.48.898.72 1.547.72.644 0 1.156-.24 1.53-.72.376-.476.564-1.132.564-1.968 0-.822-.187-1.474-.562-1.954-.375-.477-.887-.72-1.53-.72zm0-.734c.914 0 1.648.312 2.203.937.55.617.828 1.438.828 2.47 0 1.042-.277 1.87-.828 2.483-.555.617-1.29.922-2.203.922-.93 0-1.668-.305-2.22-.922C.774-1.41.5-2.237.5-3.28c0-1.033.273-1.853.828-2.47.55-.625 1.29-.938 2.22-.938zm0 0"/></symbol><symbol overflow="visible" id="b"><path d="M1.766-3.14v2.406h1.421c.477 0 .833-.098 1.063-.297.227-.197.344-.5.344-.907 0-.407-.117-.708-.344-.907-.23-.195-.586-.297-1.063-.297zm0-2.688v1.97h1.312c.438 0 .758-.08.97-.236.218-.164.327-.414.327-.75 0-.332-.11-.578-.328-.734-.21-.164-.53-.25-.97-.25zM.89-6.562h2.266c.676 0 1.196.14 1.563.42.362.283.546.685.546 1.205 0 .398-.094.714-.282.953-.187.242-.464.39-.828.453.438.092.774.292 1.016.592.238.293.36.657.36 1.094 0 .594-.2 1.055-.595 1.375-.398.314-.964.47-1.703.47H.89zm0 0"/></symbol><symbol overflow="visible" id="c"><path d="M3.703-4.172c-.094-.05-.195-.086-.297-.11-.105-.02-.226-.03-.36-.03-.46 0-.812.152-1.062.453-.242.294-.36.715-.36 1.266V0H.813v-4.922h.813v.766c.176-.3.398-.524.672-.672.27-.145.598-.22.984-.22.064 0 .126.01.19.017.07.01.147.022.233.03zm0 0"/></symbol></defs><g><path fill="#fff" d="M0 0h300v300H0z"/><path d="M87.305 218.98l-8.676-20.488M78.95 195.895l-11.04-1.368" stroke-width="1.2" stroke="#000" stroke-miterlimit="10" fill="none"/><path d="M67.91 194.527l-11.043-1.363" stroke-width="1.2" stroke="#f00" stroke-miterlimit="10" fill="none"/><path d="M78.31 201.09l-11.044-1.363" stroke-width="1.2" stroke="#000" stroke-miterlimit="10" fill="none"/><path d="M67.266 199.727l-11.04-1.368" stroke-width="1.2" stroke="#f00" stroke-miterlimit="10" fill="none"/><path d="M78.63 198.492l6.702-8.88" stroke-width="1.2" stroke="#000" stroke-miterlimit="10" fill="none"/><path d="M85.332 189.613l6.703-8.88" stroke-width="1.2" stroke="#f00" stroke-miterlimit="10" fill="none"/><path d="M48.547 190.262h8v11h-8zm0 0" fill="#fff"/><use xlink:href="#a" x="48.547" y="198.925" fill="#f00"/><path d="M92.035 180.734L87.7 170.488" stroke-width="1.2" stroke="#f00" stroke-miterlimit="10" fill="none"/><path d="M87.7 170.488l-4.34-10.242" stroke-width="1.2" stroke="#000" stroke-miterlimit="10" fill="none"/><path d="M88.035 175.234h8v11h-8zm0 0" fill="#fff"/><use xlink:href="#a" x="88.035" y="183.897" fill="#f00"/><path d="M83.36 160.246l13.406-17.758M96.766 142.488l-8.676-20.492" stroke-width="1.2" stroke="#000" stroke-miterlimit="10" fill="none"/><path d="M118.848 145.22l-11.04-1.368" stroke-width="1.2" stroke="#f00" stroke-miterlimit="10" fill="none"/><path d="M107.81 143.852l-11.044-1.364M88.09 121.996l13.406-17.758M88.09 121.996l-11.04-1.363" stroke-width="1.2" stroke="#000" stroke-miterlimit="10" fill="none"/><path d="M77.05 120.633l-11.042-1.367" stroke-width="1.2" stroke="#f00" stroke-miterlimit="10" fill="none"/><path d="M101.496 104.238l22.082 2.73M103.063 109.707l17.667 2.188M123.578 106.97l8.676 20.49M132.254 127.46l-6.703 8.88" stroke-width="1.2" stroke="#000" stroke-miterlimit="10" fill="none"/><path d="M125.55 136.34l-6.702 8.88" stroke-width="1.2" stroke="#f00" stroke-miterlimit="10" fill="none"/><path d="M132.254 127.46l22.086 2.73" stroke-width="1.2" stroke="#000" stroke-miterlimit="10" fill="none"/><path d="M114.848 139.72h8v11h-8zm0 0" fill="#fff"/><use xlink:href="#a" x="114.848" y="148.382" fill="#f00"/><path d="M154.34 130.19l22.082 2.732M155.902 135.66l17.668 2.184M157.188 125.27l17.667 2.183M176.422 132.922l22.082 2.73M198.504 135.652l8.676 20.493M204.19 135.66l6.943 16.39M211.91 117.895l-13.406 17.757M207.18 156.145l22.082 2.73M229.262 158.875l13.406-17.758M226.422 153.945l10.726-14.207M242.668 141.117l-8.676-20.492M242.668 141.117l11.04 1.363" stroke-width="1.2" stroke="#000" stroke-miterlimit="10" fill="none"/><path d="M253.707 142.48l11.043 1.368" stroke-width="1.2" stroke="#7f4d1a" stroke-miterlimit="10" fill="none"/><path d="M233.992 120.625l-22.082-2.73M231.14 125.55l-17.663-2.187" stroke-width="1.2" stroke="#000" stroke-miterlimit="10" fill="none"/><path d="M259.75 138.348h11v11h-11zm0 0" fill="#fff"/><g fill="#7f4d1a"><use xlink:href="#b" x="259.75" y="147.011"/><use xlink:href="#c" x="266.149" y="147.011"/></g><path d="M66.008 119.266l-4.336-10.246" stroke-width="1.2" stroke="#f00" stroke-miterlimit="10" fill="none"/><path d="M61.672 109.02l-4.34-10.243" stroke-width="1.2" stroke="#000" stroke-miterlimit="10" fill="none"/><path d="M62.008 113.766h8v11h-8zm0 0" fill="#fff"/><use xlink:href="#a" x="62.008" y="122.429" fill="#f00"/><path d="M59.422 100.352l6.703-8.88" stroke-width="1.2" stroke="#000" stroke-miterlimit="10" fill="none"/><path d="M66.125 91.473l6.703-8.88" stroke-width="1.2" stroke="#f00" stroke-miterlimit="10" fill="none"/><path d="M55.242 97.2l6.703-8.88" stroke-width="1.2" stroke="#000" stroke-miterlimit="10" fill="none"/><path d="M61.945 88.32l6.703-8.88" stroke-width="1.2" stroke="#f00" stroke-miterlimit="10" fill="none"/><path d="M57.332 98.777L35.25 96.043" stroke-width="1.2" stroke="#000" stroke-miterlimit="10" fill="none"/><path d="M66.738 75.52h8v11h-8zm0 0" fill="#fff"/><use xlink:href="#a" x="66.738" y="84.183" fill="#f00"/></g></svg>