<svg xmlns="http://www.w3.org/2000/svg" xmlns:xlink="http://www.w3.org/1999/xlink" width="300pt" height="300pt" viewBox="0 0 300 300"><defs><symbol overflow="visible"><path d="M.453 1.594v-7.938h4.5v7.938zm.5-.5h3.5v-6.938h-3.5zm0 0"/></symbol><symbol overflow="visible" id="a"><path d="M3.547-5.953c-.65 0-1.164.242-1.547.72-.375.48-.563 1.13-.563 1.952 0 .835.188 1.49.563 1.967.383.48.898.72 1.547.72.644 0 1.156-.24 1.53-.72.376-.476.564-1.132.564-1.968 0-.822-.187-1.474-.562-1.954-.375-.477-.887-.72-1.53-.72zm0-.734c.914 0 1.648.312 2.203.937.55.617.828 1.438.828 2.47 0 1.042-.277 1.87-.828 2.483-.555.617-1.29.922-2.203.922-.93 0-1.668-.305-2.22-.922C.774-1.41.5-2.237.5-3.28c0-1.033.273-1.853.828-2.47.55-.625 1.29-.938 2.22-.938zm0 0"/></symbol><symbol overflow="visible" id="b"><path d="M.89-6.563H2.08l2.906 5.485v-5.484h.86V0H4.656L1.75-5.484V0H.89zm0 0"/></symbol><symbol overflow="visible" id="c"><path d="M.89-6.563h.876v2.688H5v-2.688h.89V0H5v-3.125H1.766V0H.89zm0 0"/></symbol></defs><g><path fill="#fff" d="M0 0h300v300H0z"/><path d="M35.25 228.703l18.668-15.457M53.918 213.246l22.72 8.438M53.918 213.246l-4.055-23.894M49.863 189.352l9.332-7.727" stroke-width="1.2" stroke="#000" stroke-miterlimit="10" fill="none"/><path d="M59.195 181.625l9.336-7.73M68.53 173.895l-2.026-11.95" stroke-width="1.2" stroke="#f00" stroke-miterlimit="10" fill="none"/><path d="M66.504 161.945L64.477 150" stroke-width="1.2" stroke="#00f" stroke-miterlimit="10" fill="none"/><path d="M64.53 168.395h8v11h-8zm0 0" fill="#fff"/><use xlink:href="#a" x="64.531" y="177.058" fill="#f00"/><path d="M64.477 150l9.332-7.73" stroke-width="1.2" stroke="#00f" stroke-miterlimit="10" fill="none"/><path d="M73.81 142.27l9.33-7.727" stroke-width="1.2" stroke="#000" stroke-miterlimit="10" fill="none"/><path d="M69.98 152.848l7.465-6.184" stroke-width="1.2" stroke="#00f" stroke-miterlimit="10" fill="none"/><path d="M77.445 146.664l7.47-6.184" stroke-width="1.2" stroke="#000" stroke-miterlimit="10" fill="none"/><path d="M61.477 144.5h7v11h-7zm0 0" fill="#fff"/><use xlink:href="#b" x="61.477" y="153.163" fill="#00f"/><path d="M83.14 134.543l-4.05-23.895M83.14 134.543l22.723 8.437M79.09 110.648L97.754 95.19M97.754 95.19l22.723 8.435" stroke-width="1.2" stroke="#000" stroke-miterlimit="10" fill="none"/><path d="M97.754 95.19l.164-24.608-8.434 1.43zm0 0"/><path d="M120.477 103.625l4.05 23.895" stroke-width="1.2" stroke="#000" stroke-miterlimit="10" fill="none"/><path d="M120.477 103.625l21.394-12.16-5.456-6.59zm0 0"/><path d="M124.527 127.52m-2.605 1.484l.664.805m-3.273.678l1.332 1.606m-3.942-.125l1.996 2.41m-4.602-.927l2.66 3.21m-5.27-1.73l3.325 4.016m-5.93-2.532l3.988 4.82m-6.597-3.336l4.657 5.62m-7.266-4.14l5.32 6.427m-5.85-6.126l5.456 6.59" stroke="#000" stroke-miterlimit="10" fill="none"/><path d="M147.25 135.957l-22.723-8.437" stroke-width="1.2" stroke="#000" stroke-miterlimit="10" fill="none"/><path d="M105.863 142.98m-.02 3l1.028-.175m-1.046 3.175l2.055-.35m-2.08 3.35l3.087-.523m-3.106 3.523l4.115-.7m-4.133 3.7l5.14-.875m-5.16 3.875l6.168-1.046m-6.187 4.046l7.195-1.222m-7.215 4.22l8.223-1.396m-8.227 2.008l8.433-1.43" stroke="#000" stroke-miterlimit="10" fill="none"/><path d="M109.914 166.875l22.723 8.434" stroke-width="1.2" stroke="#000" stroke-miterlimit="10" fill="none"/><path d="M151.3 159.852l-21.394 12.164 5.457 6.59zm0 0"/><path d="M151.3 159.852l-4.05-23.895M175.28 163.383l-23.98-3.53" stroke-width="1.2" stroke="#000" stroke-miterlimit="10" fill="none"/><path d="M147.25 135.957m2.86-.906l-.485-.925m3.344.016l-.97-1.847m3.828.94l-1.453-2.772m4.313 1.864l-1.938-3.695m4.797 2.788l-2.418-4.62m5.276 3.71l-2.902-5.543m5.758 4.637l-3.383-6.47m6.24 5.56l-3.866-7.39m4.45 7.206l-3.966-7.578" stroke="#000" stroke-miterlimit="10" fill="none"/><path d="M171.543 125.133l1.762-11.988" stroke-width="1.2" stroke="#000" stroke-miterlimit="10" fill="none"/><path d="M173.305 113.145l1.765-11.99" stroke-width="1.2" stroke="#f00" stroke-miterlimit="10" fill="none"/><path d="M165.898 124.305l1.766-11.99" stroke-width="1.2" stroke="#000" stroke-miterlimit="10" fill="none"/><path d="M167.664 112.316l1.766-11.988" stroke-width="1.2" stroke="#f00" stroke-miterlimit="10" fill="none"/><path d="M168.723 124.72l8.66 8.47" stroke-width="1.2" stroke="#000" stroke-miterlimit="10" fill="none"/><path d="M177.383 133.19l8.664 8.478" stroke-width="1.2" stroke="#00f" stroke-miterlimit="10" fill="none"/><path d="M168.25 95.242h8v11h-8zm0 0" fill="#fff"/><use xlink:href="#a" x="168.25" y="103.905" fill="#f00"/><path d="M186.047 141.668l-5.383 10.855" stroke-width="1.2" stroke="#00f" stroke-miterlimit="10" fill="none"/><path d="M180.664 152.523l-5.383 10.86" stroke-width="1.2" stroke="#000" stroke-miterlimit="10" fill="none"/><path d="M186.047 141.668l11.945-2.027" stroke-width="1.2" stroke="#00f" stroke-miterlimit="10" fill="none"/><path d="M197.992 139.64l11.95-2.027" stroke-width="1.2" stroke="#000" stroke-miterlimit="10" fill="none"/><path d="M183.047 136.168h7v11h-7zm0 0" fill="#fff"/><use xlink:href="#b" x="183.047" y="144.831" fill="#00f"/><path d="M172.754 164.703l5.62 10.738" stroke-width="1.2" stroke="#000" stroke-miterlimit="10" fill="none"/><path d="M178.375 175.44l5.617 10.736" stroke-width="1.2" stroke="#f00" stroke-miterlimit="10" fill="none"/><path d="M177.805 162.06l5.62 10.737" stroke-width="1.2" stroke="#000" stroke-miterlimit="10" fill="none"/><path d="M183.426 172.797l5.62 10.734" stroke-width="1.2" stroke="#f00" stroke-miterlimit="10" fill="none"/><path d="M182.52 179.355h8v11h-8zm0 0" fill="#fff"/><use xlink:href="#a" x="182.52" y="188.019" fill="#f00"/><path d="M209.94 137.613L225.4 156.28M225.398 156.28L216.96 179M229.898 160.54l-6.746 18.175M249.293 152.227l-23.895 4.054M216.96 179l15.458 18.668M232.418 197.668l23.894-4.055M233.855 191.64l19.114-3.242M256.313 193.613l8.437-22.718M264.75 170.895l-15.457-18.668M258.813 172.664l-12.368-14.934" stroke-width="1.2" stroke="#000" stroke-miterlimit="10" fill="none"/><path d="M132.14 82.668h15v11h-15zm0 0" fill="#fff"/><g fill="#f00"><use xlink:href="#a" x="132.141" y="91.331"/><use xlink:href="#c" x="139.482" y="91.331"/></g><path d="M86.703 65.797h15v11h-15zm0 0" fill="#fff"/><g fill="#f00"><use xlink:href="#c" x="86.703" y="74.46"/><use xlink:href="#a" x="93.718" y="74.46"/></g></g></svg>