<svg xmlns="http://www.w3.org/2000/svg" xmlns:xlink="http://www.w3.org/1999/xlink" width="300pt" height="300pt" viewBox="0 0 300 300"><defs><symbol overflow="visible"><path d="M.453 1.594v-7.938h4.5v7.938zm.5-.5h3.5v-6.938h-3.5zm0 0"/></symbol><symbol overflow="visible" id="a"><path d="M3.547-5.953c-.65 0-1.164.242-1.547.72-.375.48-.563 1.13-.563 1.952 0 .835.188 1.49.563 1.967.383.48.898.72 1.547.72.644 0 1.156-.24 1.53-.72.376-.476.564-1.132.564-1.968 0-.822-.187-1.474-.562-1.954-.375-.477-.887-.72-1.53-.72zm0-.734c.914 0 1.648.312 2.203.937.55.617.828 1.438.828 2.47 0 1.042-.277 1.87-.828 2.483-.555.617-1.29.922-2.203.922-.93 0-1.668-.305-2.22-.922C.774-1.41.5-2.237.5-3.28c0-1.033.273-1.853.828-2.47.55-.625 1.29-.938 2.22-.938zm0 0"/></symbol><symbol overflow="visible" id="b"><path d="M.89-6.563H2.08l2.906 5.485v-5.484h.86V0H4.656L1.75-5.484V0H.89zm0 0"/></symbol></defs><g><path fill="#fff" d="M0 0h300v300H0z"/><path d="M199.313 179.488l-15.243-4.652M184.07 174.836l-11.648 10.87M180.48 159.31l3.59 15.526M172.422 185.707l-15.242-4.652M157.18 181.055l-3.59-15.528M153.59 165.527l-15.242-4.656" stroke-width="1.2" stroke="#000" stroke-miterlimit="10" fill="none"/><path d="M165.242 154.656l-5.828 5.434" stroke-width="1.2" stroke="#00f" stroke-miterlimit="10" fill="none"/><path d="M159.414 160.09l-5.824 5.437M137.07 159.5l-5.828 5.438" stroke-width="1.2" stroke="#000" stroke-miterlimit="10" fill="none"/><path d="M131.242 164.938l-5.824 5.437" stroke-width="1.2" stroke="#f00" stroke-miterlimit="10" fill="none"/><path d="M139.63 162.242l-5.83 5.438" stroke-width="1.2" stroke="#000" stroke-miterlimit="10" fill="none"/><path d="M133.8 167.68l-5.823 5.433" stroke-width="1.2" stroke="#f00" stroke-miterlimit="10" fill="none"/><path d="M138.348 160.87l-1.793-7.76" stroke-width="1.2" stroke="#000" stroke-miterlimit="10" fill="none"/><path d="M136.555 153.11l-1.797-7.766" stroke-width="1.2" stroke="#00f" stroke-miterlimit="10" fill="none"/><path d="M118.695 166.246h8v11h-8zm0 0" fill="#fff"/><use xlink:href="#a" x="118.695" y="174.909" fill="#f00"/><path d="M134.758 145.344l5.828-5.434" stroke-width="1.2" stroke="#00f" stroke-miterlimit="10" fill="none"/><path d="M140.586 139.91l5.824-5.437M119.52 140.69l7.617 2.33" stroke-width="1.2" stroke="#000" stroke-miterlimit="10" fill="none"/><path d="M127.137 143.02l7.62 2.324" stroke-width="1.2" stroke="#00f" stroke-miterlimit="10" fill="none"/><path d="M131.758 139.844h7v11h-7zm0 0" fill="#fff"/><use xlink:href="#b" x="131.758" y="148.507" fill="#00f"/><path d="M146.41 134.473l-3.59-15.528M146.41 134.473l15.242 4.656M142.82 118.945l-15.242-4.652M127.578 114.293l-11.648 10.87M115.93 125.164l3.59 15.527M115.93 125.164l-15.243-4.652M119.52 140.69l-11.653 10.873M107.867 151.563l-15.242-4.653M105.246 154.684l-12.19-3.723M111.457 167.09l-3.59-15.528M92.625 146.91l-11.652 10.87M80.973 157.78l3.59 15.53M84.984 158.488l2.875 12.422M80.973 157.78l-7.62-2.327" stroke-width="1.2" stroke="#000" stroke-miterlimit="10" fill="none"/><path d="M73.352 155.453l-7.622-2.328" stroke-width="1.2" stroke="#00f" stroke-miterlimit="10" fill="none"/><path d="M84.563 173.31l15.242 4.65M99.805 177.96l11.652-10.87M98.41 174.133l9.324-8.7" stroke-width="1.2" stroke="#000" stroke-miterlimit="10" fill="none"/><path d="M65.73 153.125l-1.793-7.762" stroke-width="1.2" stroke="#00f" stroke-miterlimit="10" fill="none"/><path d="M63.938 145.363l-1.793-7.76M54.082 164l5.824-5.438" stroke-width="1.2" stroke="#000" stroke-miterlimit="10" fill="none"/><path d="M59.906 158.563l5.824-5.438" stroke-width="1.2" stroke="#00f" stroke-miterlimit="10" fill="none"/><path d="M62.73 147.625h7v11h-7zm0 0" fill="#fff"/><use xlink:href="#b" x="62.73" y="156.288" fill="#00f"/><path d="M62.145 137.602l-15.243-4.657M46.902 132.945l-5.828 5.438" stroke-width="1.2" stroke="#000" stroke-miterlimit="10" fill="none"/><path d="M41.074 138.383l-5.824 5.433M35.25 143.816l1.793 7.766" stroke-width="1.2" stroke="#f00" stroke-miterlimit="10" fill="none"/><path d="M37.043 151.582l1.797 7.762" stroke-width="1.2" stroke="#000" stroke-miterlimit="10" fill="none"/><path d="M31.25 138.316h8v11h-8zm0 0" fill="#fff"/><use xlink:href="#a" x="31.25" y="146.979" fill="#f00"/><path d="M38.84 159.344L54.082 164M162.93 140.5l5.828-5.438" stroke-width="1.2" stroke="#000" stroke-miterlimit="10" fill="none"/><path d="M168.758 135.063l5.824-5.438" stroke-width="1.2" stroke="#f00" stroke-miterlimit="10" fill="none"/><path d="M160.37 137.758l5.83-5.438" stroke-width="1.2" stroke="#000" stroke-miterlimit="10" fill="none"/><path d="M166.2 132.32l5.823-5.433" stroke-width="1.2" stroke="#f00" stroke-miterlimit="10" fill="none"/><path d="M161.652 139.13l1.793 7.76" stroke-width="1.2" stroke="#000" stroke-miterlimit="10" fill="none"/><path d="M163.445 146.89l1.797 7.766" stroke-width="1.2" stroke="#00f" stroke-miterlimit="10" fill="none"/><path d="M169.305 122.754h8v11h-8zm0 0" fill="#fff"/><use xlink:href="#a" x="169.305" y="131.417" fill="#f00"/><path d="M165.242 154.656l7.62 2.324" stroke-width="1.2" stroke="#00f" stroke-miterlimit="10" fill="none"/><path d="M172.863 156.98l7.617 2.33" stroke-width="1.2" stroke="#000" stroke-miterlimit="10" fill="none"/><path d="M162.242 149.156h7v11h-7zm0 0" fill="#fff"/><use xlink:href="#b" x="162.242" y="157.819" fill="#00f"/><path d="M180.48 159.31l13.57-8.818-3.835-4.113zm0 0"/><path d="M192.133 148.438l15.242 4.652M194.754 145.316l12.19 3.723M188.543 132.91l3.59 15.528M207.375 153.09l11.652-10.87M219.027 142.22l-3.59-15.53M215.016 141.512l-2.875-12.422M219.027 142.22l7.62 2.327" stroke-width="1.2" stroke="#000" stroke-miterlimit="10" fill="none"/><path d="M226.648 144.547l7.622 2.328" stroke-width="1.2" stroke="#00f" stroke-miterlimit="10" fill="none"/><path d="M215.438 126.69l-15.243-4.65M200.195 122.04l-11.652 10.87M201.59 125.867l-9.324 8.7" stroke-width="1.2" stroke="#000" stroke-miterlimit="10" fill="none"/><path d="M234.27 146.875l1.792 7.762" stroke-width="1.2" stroke="#00f" stroke-miterlimit="10" fill="none"/><path d="M236.063 154.637l1.792 7.76M245.918 136l-5.824 5.438" stroke-width="1.2" stroke="#000" stroke-miterlimit="10" fill="none"/><path d="M240.094 141.438l-5.824 5.437" stroke-width="1.2" stroke="#00f" stroke-miterlimit="10" fill="none"/><path d="M231.27 141.375h7v11h-7zm0 0" fill="#fff"/><use xlink:href="#b" x="231.27" y="150.038" fill="#00f"/><path d="M237.855 162.398l15.243 4.657M253.098 167.055l5.828-5.438" stroke-width="1.2" stroke="#000" stroke-miterlimit="10" fill="none"/><path d="M258.926 161.617l5.824-5.433M264.75 156.184l-1.793-7.766" stroke-width="1.2" stroke="#f00" stroke-miterlimit="10" fill="none"/><path d="M262.957 148.418l-1.797-7.762" stroke-width="1.2" stroke="#000" stroke-miterlimit="10" fill="none"/><path d="M260.75 150.684h8v11h-8zm0 0" fill="#fff"/><use xlink:href="#a" x="260.75" y="159.347" fill="#f00"/><path d="M261.16 140.656L245.918 136" stroke-width="1.2" stroke="#000" stroke-miterlimit="10" fill="none"/></g></svg>