<svg xmlns="http://www.w3.org/2000/svg" xmlns:xlink="http://www.w3.org/1999/xlink" width="300pt" height="300pt" viewBox="0 0 300 300"><defs><symbol overflow="visible"><path d="M.64 2.297v-11.47h6.5v11.47zm.735-.72h5.047V-8.436H1.375zm0 0"/></symbol><symbol overflow="visible" id="a"><path d="M5.125-8.61c-.938 0-1.684.352-2.234 1.047-.542.688-.812 1.633-.812 2.83 0 1.198.27 2.147.813 2.842.55.687 1.297 1.03 2.235 1.03.926 0 1.66-.343 2.203-1.03.55-.696.828-1.645.828-2.844 0-1.196-.277-2.14-.828-2.829-.543-.695-1.277-1.046-2.203-1.046zm0-1.046c1.32 0 2.38.45 3.172 1.344.8.898 1.203 2.09 1.203 3.578 0 1.5-.402 2.7-1.203 3.593C7.504-.255 6.445.186 5.125.186c-1.336 0-2.402-.44-3.203-1.328C1.13-2.036.734-3.235.734-4.735c0-1.49.395-2.68 1.188-3.579.8-.894 1.867-1.343 3.203-1.343zm0 0"/></symbol><symbol overflow="visible" id="b"><path d="M1.28-9.484h1.282v3.89H7.22v-3.89H8.5V0H7.22v-4.516H2.562V0H1.28zm0 0"/></symbol></defs><g><path fill="#fff" d="M0 0h300v300H0z"/><path d="M35.25 165.523l30.418-9.57M65.668 155.953l6.918-31.13M73.684 154.47l5.535-24.904M89.164 177.508l-23.496-21.555M72.586 124.824l30.418-9.57M103.004 115.254L126.5 136.81M100.28 122.938l18.798 17.246M126.5 136.81l-6.918 31.127M126.5 136.81l30.418-9.572M119.582 167.938l-30.418 9.57M114.29 161.738l-24.337 7.657M156.918 127.238l23.5 21.555M154.195 134.922l18.8 17.246M180.418 148.793l30.418-9.57M210.836 139.223l23.496 21.554M210.836 139.223l3.457-15.567" stroke-width="1.2" stroke="#000" stroke-miterlimit="10" fill="none"/><path d="M214.293 123.656l3.46-15.562" stroke-width="1.2" stroke="#f00" stroke-miterlimit="10" fill="none"/><path d="M230.672 159.965l-6.922 31.13M237.996 161.594l-6.922 31.125M234.332 160.777l30.418-9.57" stroke-width="1.2" stroke="#000" stroke-miterlimit="10" fill="none"/><path d="M207.754 100.094h21v16h-21zm0 0" fill="#fff"/><g fill="#f00"><use xlink:href="#a" x="207.754" y="112.47"/><use xlink:href="#b" x="218.244" y="112.47"/></g></g></svg>