<svg xmlns="http://www.w3.org/2000/svg" xmlns:xlink="http://www.w3.org/1999/xlink" width="300pt" height="300pt" viewBox="0 0 300 300"><defs><symbol overflow="visible"><path d="M.453 1.594v-7.938h4.5v7.938zm.5-.5h3.5v-6.938h-3.5zm0 0"/></symbol><symbol overflow="visible" id="a"><path d="M3.547-5.953c-.65 0-1.164.242-1.547.72-.375.48-.563 1.13-.563 1.952 0 .835.188 1.49.563 1.967.383.48.898.72 1.547.72.644 0 1.156-.24 1.53-.72.376-.476.564-1.132.564-1.968 0-.822-.187-1.474-.562-1.954-.375-.477-.887-.72-1.53-.72zm0-.734c.914 0 1.648.312 2.203.937.55.617.828 1.438.828 2.47 0 1.042-.277 1.87-.828 2.483-.555.617-1.29.922-2.203.922-.93 0-1.668-.305-2.22-.922C.774-1.41.5-2.237.5-3.28c0-1.033.273-1.853.828-2.47.55-.625 1.29-.938 2.22-.938zm0 0"/></symbol><symbol overflow="visible" id="b"><path d="M.89-6.563h.876v2.688H5v-2.688h.89V0H5v-3.125H1.766V0H.89zm0 0"/></symbol><symbol overflow="visible" id="c"><path d="M.89-6.563h3.766v.75h-2.89v1.938h2.61v.734h-2.61V0H.89zm0 0"/></symbol></defs><g><path fill="#fff" d="M0 0h300v300H0z"/><path d="M117.863 157.723l-.808-13.684-8.024 3.198zm0 0"/><path d="M117.863 157.723l12.332-21.15M130.016 178.977l-12.153-21.254M93.898 162.71l23.965-4.987M130.195 136.574l24.48.102M154.676 136.676l12.148 21.254M154.676 136.676l6.164-10.574" stroke-width="1.2" stroke="#000" stroke-miterlimit="10" fill="none"/><path d="M160.84 126.102l6.164-10.575" stroke-width="1.2" stroke="#f00" stroke-miterlimit="10" fill="none"/><path d="M166.824 157.93l-12.328 21.148" stroke-width="1.2" stroke="#000" stroke-miterlimit="10" fill="none"/><path d="M166.824 157.93m1.65-2.512l-.962-.41m2.605-2.098l-1.918-.82m3.562-1.688l-2.875-1.234m4.52-1.273l-3.833-1.65m5.477-.862l-4.792-2.055m6.437-.453l-5.75-2.47m7.395-.038l-6.707-2.883m8.35.375l-7.663-3.294m8.137 2.57l-7.94-3.406" stroke="#000" stroke-miterlimit="10" fill="none"/><path d="M191.31 158.03l-24.486-.1M154.496 179.078l-24.48-.1M154.496 179.078l12.152 21.254M130.016 178.977l-16.457 18.12M113.56 197.098l-22.326-10.05M91.234 187.047l2.664-24.336" stroke-width="1.2" stroke="#000" stroke-miterlimit="10" fill="none"/><path d="M67.266 192.035l11.984-2.492" stroke-width="1.2" stroke="#f00" stroke-miterlimit="10" fill="none"/><path d="M79.25 189.543l11.984-2.496M93.898 162.71l-11.164-5.026" stroke-width="1.2" stroke="#000" stroke-miterlimit="10" fill="none"/><path d="M82.734 157.684l-11.16-5.024" stroke-width="1.2" stroke="#f00" stroke-miterlimit="10" fill="none"/><path d="M93.898 162.71m.836-2.878l-1.035-.113m1.874-2.77l-2.07-.227m2.91-2.653l-3.11-.34m3.95-2.54l-4.145-.452m4.984-2.43l-5.184-.566m6.024-2.312l-6.22-.68m7.06-2.2l-7.258-.792m8.097-2.09l-8.293-.906m8.532.082l-8.59-.938" stroke="#000" stroke-miterlimit="10" fill="none"/><path d="M71.574 152.66l-8.23 9.063" stroke-width="1.2" stroke="#f00" stroke-miterlimit="10" fill="none"/><path d="M63.344 161.723l-8.227 9.058" stroke-width="1.2" stroke="#000" stroke-miterlimit="10" fill="none"/><path d="M67.574 147.16h8v11h-8zm0 0" fill="#fff"/><use xlink:href="#a" x="67.574" y="155.823" fill="#f00"/><path d="M55.117 170.78l6.074 10.63" stroke-width="1.2" stroke="#000" stroke-miterlimit="10" fill="none"/><path d="M61.19 181.41l6.076 10.625" stroke-width="1.2" stroke="#f00" stroke-miterlimit="10" fill="none"/><path d="M55.117 170.78l-16.304-18.26M55.117 170.78L35.25 185.09" stroke-width="1.2" stroke="#000" stroke-miterlimit="10" fill="none"/><path d="M63.266 186.535h8v11h-8zm0 0" fill="#fff"/><use xlink:href="#a" x="63.266" y="195.198" fill="#f00"/><path d="M97.72 141.012l5.952-2.62" stroke-width="1.2" stroke="#000" stroke-miterlimit="10" fill="none"/><path d="M103.672 138.39l5.953-2.62" stroke-width="1.2" stroke="#f00" stroke-miterlimit="10" fill="none"/><path d="M95.398 135.738l5.954-2.62" stroke-width="1.2" stroke="#000" stroke-miterlimit="10" fill="none"/><path d="M101.352 133.117l5.953-2.62" stroke-width="1.2" stroke="#f00" stroke-miterlimit="10" fill="none"/><path d="M96.56 138.375L76.81 123.902" stroke-width="1.2" stroke="#000" stroke-miterlimit="10" fill="none"/><path d="M104.465 127.633h8v11h-8zm0 0" fill="#fff"/><use xlink:href="#a" x="104.465" y="136.296" fill="#f00"/><path d="M76.813 123.902l1.332-12.168" stroke-width="1.2" stroke="#000" stroke-miterlimit="10" fill="none"/><path d="M78.145 111.734l1.332-12.168" stroke-width="1.2" stroke="#f00" stroke-miterlimit="10" fill="none"/><path d="M72.477 94.066h15v11h-15zm0 0" fill="#fff"/><g fill="#f00"><use xlink:href="#a" x="72.477" y="102.729"/><use xlink:href="#b" x="79.818" y="102.729"/></g><path d="M166.648 200.332l24.48.102M191.13 200.434l12.327-21.15M203.457 179.285l24.48.102M205.93 173.535l19.586.082M191.31 158.03l12.147 21.255M227.938 179.387l12.332-21.15M240.258 161.117l12.238.055" stroke-width="1.2" stroke="#000" stroke-miterlimit="10" fill="none"/><path d="M252.496 161.172l12.242.05" stroke-width="1.2" stroke="#f00" stroke-miterlimit="10" fill="none"/><path d="M240.28 155.36l12.243.05" stroke-width="1.2" stroke="#000" stroke-miterlimit="10" fill="none"/><path d="M252.523 155.41l12.24.05" stroke-width="1.2" stroke="#f00" stroke-miterlimit="10" fill="none"/><path d="M240.27 158.238l-12.153-21.254" stroke-width="1.2" stroke="#000" stroke-miterlimit="10" fill="none"/><path d="M260.75 152.844h8v11h-8zm0 0" fill="#fff"/><use xlink:href="#a" x="260.75" y="161.507" fill="#f00"/><path d="M228.117 136.984l-24.48-.1M225.645 142.734l-19.583-.082M203.637 136.883L191.31 158.03" stroke-width="1.2" stroke="#000" stroke-miterlimit="10" fill="none"/><path d="M191.31 158.03l-5.49-24.245-7.968 3.344zm0 0"/><path d="M173.484 129.934h6v11h-6zm0 0" fill="#fff"/><use xlink:href="#c" x="173.484" y="138.597" fill="#3cc"/><path d="M160.004 110.027h15v11h-15zm0 0" fill="#fff"/><g fill="#f00"><use xlink:href="#a" x="160.004" y="118.69"/><use xlink:href="#b" x="167.346" y="118.69"/></g></g></svg>