<svg xmlns="http://www.w3.org/2000/svg" xmlns:xlink="http://www.w3.org/1999/xlink" width="300pt" height="300pt" viewBox="0 0 300 300"><defs><symbol overflow="visible"><path d="M.453 1.594v-7.938h4.5v7.938zm.5-.5h3.5v-6.938h-3.5zm0 0"/></symbol><symbol overflow="visible" id="a"><path d="M.89-6.563H2.08l2.906 5.485v-5.484h.86V0H4.656L1.75-5.484V0H.89zm0 0"/></symbol><symbol overflow="visible" id="b"><path d="M3.547-5.953c-.65 0-1.164.242-1.547.72-.375.48-.563 1.13-.563 1.952 0 .835.188 1.49.563 1.967.383.48.898.72 1.547.72.644 0 1.156-.24 1.53-.72.376-.476.564-1.132.564-1.968 0-.822-.187-1.474-.562-1.954-.375-.477-.887-.72-1.53-.72zm0-.734c.914 0 1.648.312 2.203.937.55.617.828 1.438.828 2.47 0 1.042-.277 1.87-.828 2.483-.555.617-1.29.922-2.203.922-.93 0-1.668-.305-2.22-.922C.774-1.41.5-2.237.5-3.28c0-1.033.273-1.853.828-2.47.55-.625 1.29-.938 2.22-.938zm0 0"/></symbol><symbol overflow="visible" id="c"><path d="M.89-6.563h.876v2.688H5v-2.688h.89V0H5v-3.125H1.766V0H.89zm0 0"/></symbol></defs><g><path fill="#fff" d="M0 0h300v300H0z"/><path d="M35.25 122.28l.555 15.298M35.805 137.578l13.52 7.168M49.324 144.746l.555 15.297M52.98 146.145l.442 12.238M62.297 136.62l-12.973 8.126M49.88 160.043l6.76 3.582" stroke-width="1.2" stroke="#000" stroke-miterlimit="10" fill="none"/><path d="M56.64 163.625l6.762 3.586" stroke-width="1.2" stroke="#00f" stroke-miterlimit="10" fill="none"/><path d="M49.88 160.043l-12.97 8.125" stroke-width="1.2" stroke="#000" stroke-miterlimit="10" fill="none"/><path d="M63.402 167.21l6.485-4.062" stroke-width="1.2" stroke="#00f" stroke-miterlimit="10" fill="none"/><path d="M69.887 163.148l6.484-4.062" stroke-width="1.2" stroke="#000" stroke-miterlimit="10" fill="none"/><path d="M62.785 163.348l5.192-3.25" stroke-width="1.2" stroke="#00f" stroke-miterlimit="10" fill="none"/><path d="M67.977 160.098l5.187-3.254" stroke-width="1.2" stroke="#000" stroke-miterlimit="10" fill="none"/><path d="M60.402 161.71h7v11h-7zm0 0" fill="#fff"/><use xlink:href="#a" x="60.402" y="170.374" fill="#00f"/><path d="M76.37 159.086l13.525 7.168M75.82 143.79l.55 15.296M89.895 166.254l12.968-8.13M102.863 158.125l-.273-7.645" stroke-width="1.2" stroke="#000" stroke-miterlimit="10" fill="none"/><path d="M102.59 150.48l-.278-7.648M102.313 142.832l-6.762-3.586" stroke-width="1.2" stroke="#00f" stroke-miterlimit="10" fill="none"/><path d="M95.55 139.246l-6.76-3.586" stroke-width="1.2" stroke="#000" stroke-miterlimit="10" fill="none"/><path d="M102.313 142.832l6.484-4.062" stroke-width="1.2" stroke="#00f" stroke-miterlimit="10" fill="none"/><path d="M108.797 138.77l6.484-4.067" stroke-width="1.2" stroke="#000" stroke-miterlimit="10" fill="none"/><path d="M99.313 137.332h7v11h-7zm0 0" fill="#fff"/><use xlink:href="#a" x="99.313" y="145.995" fill="#00f"/><path d="M88.79 135.66l-12.97 8.13M75.82 143.79l-13.523-7.17M72.78 146.254l-10.82-5.734M115.28 134.703l13.525 7.172M128.805 141.875l12.968-8.13M141.773 133.746l6.762 3.586" stroke-width="1.2" stroke="#000" stroke-miterlimit="10" fill="none"/><path d="M148.535 137.332l6.762 3.582" stroke-width="1.2" stroke="#00f" stroke-miterlimit="10" fill="none"/><path d="M141.44 137.645l5.412 2.867" stroke-width="1.2" stroke="#000" stroke-miterlimit="10" fill="none"/><path d="M146.852 140.512l5.406 2.867" stroke-width="1.2" stroke="#00f" stroke-miterlimit="10" fill="none"/><path d="M141.773 133.746l-.55-15.297" stroke-width="1.2" stroke="#000" stroke-miterlimit="10" fill="none"/><path d="M155.297 140.914l6.484-4.062" stroke-width="1.2" stroke="#00f" stroke-miterlimit="10" fill="none"/><path d="M161.78 136.852l6.49-4.063" stroke-width="1.2" stroke="#f00" stroke-miterlimit="10" fill="none"/><path d="M152.297 135.414h7v11h-7zm0 0" fill="#fff"/><use xlink:href="#a" x="152.297" y="144.077" fill="#00f"/><path d="M168.27 132.79l6.76 3.585" stroke-width="1.2" stroke="#f00" stroke-miterlimit="10" fill="none"/><path d="M175.03 136.375l6.76 3.582" stroke-width="1.2" stroke="#000" stroke-miterlimit="10" fill="none"/><path d="M164.27 127.29h8v11h-8zm0 0" fill="#fff"/><use xlink:href="#b" x="164.27" y="135.952" fill="#f00"/><path d="M194.762 131.832l-14.407 5.836 2.872 4.578zm0 0"/><path d="M194.762 131.832L208.285 139M194.762 131.832l-.278-7.648" stroke-width="1.2" stroke="#000" stroke-miterlimit="10" fill="none"/><path d="M194.484 124.184l-.277-7.65" stroke-width="1.2" stroke="#f00" stroke-miterlimit="10" fill="none"/><path d="M208.285 139l2.15 15.156" stroke-width="1.2" stroke="#000" stroke-miterlimit="10" fill="none"/><path d="M208.285 139m2.883-.828l-.46-.938m3.343.106l-.917-1.87m3.8 1.042l-1.374-2.813m4.256 1.98l-1.832-3.746m4.715 2.918l-2.294-4.684m2.813 4.53l-2.376-4.85" stroke="#000" stroke-miterlimit="10" fill="none"/><path d="M210.434 154.156l15.074 2.637" stroke-width="1.2" stroke="#000" stroke-miterlimit="10" fill="none"/><path d="M210.434 154.156l-12.875 8.703 3.752 3.882zm0 0"/><path d="M225.508 156.793l7.172-13.523" stroke-width="1.2" stroke="#000" stroke-miterlimit="10" fill="none"/><path d="M225.508 156.793m1.683 2.484l.748-.722m.933 3.21l1.497-1.452m.184 3.937l2.247-2.176m-.567 4.66l2.997-2.902m-1.317 5.387l3.746-3.626m-3.44 4.074l3.878-3.758M232.68 143.27m-1.684-2.485l-.746.727m-.934-3.21l-1.496 1.448m-.183-3.934l-2.246 2.176m.567-4.664l-2.996 2.902m1.317-5.386l-3.746 3.625m3.443-4.075l-3.88 3.757" stroke="#000" stroke-miterlimit="10" fill="none"/><path d="M232.68 143.27l7.535 1.32" stroke-width="1.2" stroke="#000" stroke-miterlimit="10" fill="none"/><path d="M240.215 144.59l7.54 1.32" stroke-width="1.2" stroke="#f00" stroke-miterlimit="10" fill="none"/><path d="M218.03 126.773h8v11h-8zm0 0" fill="#fff"/><use xlink:href="#b" x="218.031" y="135.437" fill="#f00"/><path d="M247.754 145.91l1.074 7.578" stroke-width="1.2" stroke="#f00" stroke-miterlimit="10" fill="none"/><path d="M248.828 153.488l1.074 7.575" stroke-width="1.2" stroke="#000" stroke-miterlimit="10" fill="none"/><path d="M243.754 140.41h8v11h-8zm0 0" fill="#fff"/><use xlink:href="#b" x="243.754" y="149.073" fill="#f00"/><path d="M249.902 161.063l-6.875 3.363" stroke-width="1.2" stroke="#000" stroke-miterlimit="10" fill="none"/><path d="M243.027 164.426l-6.87 3.363" stroke-width="1.2" stroke="#f00" stroke-miterlimit="10" fill="none"/><path d="M249.902 161.063l14.848-3.72M249.902 161.063l5.254 14.378" stroke-width="1.2" stroke="#000" stroke-miterlimit="10" fill="none"/><path d="M232.156 162.29h8v11h-8zm0 0" fill="#fff"/><use xlink:href="#b" x="232.156" y="170.952" fill="#f00"/><path d="M184.438 159.3h15v11h-15zm0 0" fill="#fff"/><g fill="#f00"><use xlink:href="#c" x="184.438" y="167.964"/><use xlink:href="#b" x="191.452" y="167.964"/></g><path d="M187.207 111.035h15v11h-15zm0 0" fill="#fff"/><g fill="#f00"><use xlink:href="#b" x="187.207" y="119.698"/><use xlink:href="#c" x="194.549" y="119.698"/></g><path d="M36.91 168.168l.55 15.297" stroke-width="1.2" stroke="#000" stroke-miterlimit="10" fill="none"/></g></svg>