<svg xmlns="http://www.w3.org/2000/svg" xmlns:xlink="http://www.w3.org/1999/xlink" width="300pt" height="300pt" viewBox="0 0 300 300"><defs><symbol overflow="visible"><path d="M.453 1.594v-7.938h4.5v7.938zm.5-.5h3.5v-6.938h-3.5zm0 0"/></symbol><symbol overflow="visible" id="a"><path d="M.89-6.563H2.08l2.906 5.485v-5.484h.86V0H4.656L1.75-5.484V0H.89zm0 0"/></symbol><symbol overflow="visible" id="b"><path d="M.89-6.563h.876v2.688H5v-2.688h.89V0H5v-3.125H1.766V0H.89zm0 0"/></symbol><symbol overflow="visible" id="c"><path d="M3.547-5.953c-.65 0-1.164.242-1.547.72-.375.48-.563 1.13-.563 1.952 0 .835.188 1.49.563 1.967.383.48.898.72 1.547.72.644 0 1.156-.24 1.53-.72.376-.476.564-1.132.564-1.968 0-.822-.187-1.474-.562-1.954-.375-.477-.887-.72-1.53-.72zm0-.734c.914 0 1.648.312 2.203.937.55.617.828 1.438.828 2.47 0 1.042-.277 1.87-.828 2.483-.555.617-1.29.922-2.203.922-.93 0-1.668-.305-2.22-.922C.774-1.41.5-2.237.5-3.28c0-1.033.273-1.853.828-2.47.55-.625 1.29-.938 2.22-.938zm0 0"/></symbol></defs><g><path fill="#fff" d="M0 0h300v300H0z"/><path d="M133.398 143.46l7.875-14.24M141.793 157.402l-8.395-13.94" stroke-width="1.2" stroke="#000" stroke-miterlimit="10" fill="none"/><path d="M157.543 128.918m-2.96-.465l.02 1.043m-2.986-1.512l.04 2.086m-3.005-2.55l.06 3.128m-3.02-3.597l.074 4.173m-3.04-4.637l.098 5.21m-1.605-5.448l.104 5.742" stroke="#000" stroke-miterlimit="10" fill="none"/><path d="M157.543 128.918l8.398 13.94M168.21 116.63l-10.667 12.288M165.94 142.86l-7.877 14.242" stroke-width="1.2" stroke="#000" stroke-miterlimit="10" fill="none"/><path d="M165.94 142.86l16.5-.88-1.295-5.593zm0 0M158.063 157.102l-16.325-2.57.106 5.74zm0 0"/><path d="M166.46 171.043l-8.398-13.94" stroke-width="1.2" stroke="#000" stroke-miterlimit="10" fill="none"/><path d="M141.793 157.402l-10.39 12.852 5.027 2.78zm0 0"/><path d="M133.918 171.645l-8.137.148" stroke-width="1.2" stroke="#000" stroke-miterlimit="10" fill="none"/><path d="M125.78 171.793l-8.135.152" stroke-width="1.2" stroke="#00f" stroke-miterlimit="10" fill="none"/><path d="M132.22 167.844l-6.51.12" stroke-width="1.2" stroke="#000" stroke-miterlimit="10" fill="none"/><path d="M125.71 167.965l-6.507.12" stroke-width="1.2" stroke="#00f" stroke-miterlimit="10" fill="none"/><path d="M133.918 171.645l8.394 13.94" stroke-width="1.2" stroke="#000" stroke-miterlimit="10" fill="none"/><path d="M117.645 171.945l-8.395-13.94" stroke-width="1.2" stroke="#00f" stroke-miterlimit="10" fill="none"/><path d="M114.645 166.445h7v11h-7zm0 0" fill="#fff"/><use xlink:href="#a" x="114.645" y="175.108" fill="#00f"/><path d="M109.25 158.004l-8.137.148" stroke-width="1.2" stroke="#00f" stroke-miterlimit="10" fill="none"/><path d="M101.113 158.152l-8.133.15" stroke-width="1.2" stroke="#000" stroke-miterlimit="10" fill="none"/><path d="M102.25 152.504h14v11h-14zm0 0" fill="#fff"/><g fill="#00f"><use xlink:href="#a" x="102.25" y="161.167"/><use xlink:href="#b" x="109.228" y="161.167"/></g><path d="M91.305 157.375l-3.938 7.12" stroke-width="1.2" stroke="#000" stroke-miterlimit="10" fill="none"/><path d="M87.367 164.496l-3.94 7.12" stroke-width="1.2" stroke="#f00" stroke-miterlimit="10" fill="none"/><path d="M94.652 159.227l-3.937 7.12" stroke-width="1.2" stroke="#000" stroke-miterlimit="10" fill="none"/><path d="M90.715 166.348l-3.938 7.12" stroke-width="1.2" stroke="#f00" stroke-miterlimit="10" fill="none"/><path d="M92.98 158.3l-4.2-6.968" stroke-width="1.2" stroke="#000" stroke-miterlimit="10" fill="none"/><path d="M88.78 151.332l-4.198-6.973" stroke-width="1.2" stroke="#f00" stroke-miterlimit="10" fill="none"/><path d="M77.102 167.043h8v11h-8zm0 0" fill="#fff"/><use xlink:href="#c" x="77.102" y="175.706" fill="#f00"/><path d="M84.582 144.36l-8.133.152" stroke-width="1.2" stroke="#f00" stroke-miterlimit="10" fill="none"/><path d="M76.45 144.512l-8.138.148" stroke-width="1.2" stroke="#000" stroke-miterlimit="10" fill="none"/><path d="M80.582 138.86h8v11h-8zm0 0" fill="#fff"/><use xlink:href="#c" x="80.582" y="147.522" fill="#f00"/><path d="M68.313 144.66l-8.395-13.94M59.918 130.72l7.875-14.243M57.352 127.44l6.3-11.393M43.645 131.02l16.273-.3M67.793 116.477l-8.395-13.942M59.398 102.535l-16.273.3M57.84 106.395l-13.016.242M43.125 102.836l-7.875 14.242M35.25 117.078l8.395 13.942M39.37 116.496l6.716 11.152M142.313 185.586l16.27-.3M158.582 185.285l7.88-14.242" stroke-width="1.2" stroke="#000" stroke-miterlimit="10" fill="none"/><path d="M158.582 185.285m1.078 2.8l.895-.538m.183 3.336l1.785-1.074m-.707 3.874l2.68-1.614m-1.6 4.414l3.57-2.152m-2.497 4.953l4.468-2.69m-3.918 4.112l4.917-2.96M166.46 171.043m2.962.47l-.02-1.044m2.985 1.507l-.04-2.086m3 2.555l-.054-3.13m3.02 3.595l-.08-4.168m3.044 4.637l-.097-5.216m1.605 5.45l-.11-5.743" stroke="#000" stroke-miterlimit="10" fill="none"/><path d="M175.73 165.242h15v11h-15zm0 0" fill="#fff"/><g fill="#f00"><use xlink:href="#c" x="175.73" y="173.905"/><use xlink:href="#b" x="183.072" y="173.905"/></g><path d="M159.98 193.727h15v11h-15zm0 0" fill="#fff"/><g fill="#f00"><use xlink:href="#c" x="159.98" y="202.39"/><use xlink:href="#b" x="167.322" y="202.39"/></g><path d="M180.54 140.63l6.144 5.335" stroke-width="1.2" stroke="#000" stroke-miterlimit="10" fill="none"/><path d="M186.684 145.965l6.148 5.332" stroke-width="1.2" stroke="#f00" stroke-miterlimit="10" fill="none"/><path d="M183.047 137.738l6.148 5.332" stroke-width="1.2" stroke="#000" stroke-miterlimit="10" fill="none"/><path d="M189.195 143.07l6.145 5.332" stroke-width="1.2" stroke="#f00" stroke-miterlimit="10" fill="none"/><path d="M181.793 139.184l.703-8.106" stroke-width="1.2" stroke="#000" stroke-miterlimit="10" fill="none"/><path d="M182.496 131.078l.7-8.105" stroke-width="1.2" stroke="#00f" stroke-miterlimit="10" fill="none"/><path d="M190.086 144.348h8v11h-8zm0 0" fill="#fff"/><use xlink:href="#c" x="190.086" y="153.011" fill="#f00"/><path d="M183.195 122.973l-7.492-3.172" stroke-width="1.2" stroke="#00f" stroke-miterlimit="10" fill="none"/><path d="M175.703 119.8l-7.492-3.17" stroke-width="1.2" stroke="#000" stroke-miterlimit="10" fill="none"/><path d="M183.195 122.973l6.973-4.2" stroke-width="1.2" stroke="#00f" stroke-miterlimit="10" fill="none"/><path d="M190.168 118.773l6.97-4.2" stroke-width="1.2" stroke="#000" stroke-miterlimit="10" fill="none"/><path d="M180.195 117.473h7v11h-7zm0 0" fill="#fff"/><use xlink:href="#a" x="180.195" y="126.136" fill="#00f"/><path d="M170.074 116.195l-1.84-7.925" stroke-width="1.2" stroke="#000" stroke-miterlimit="10" fill="none"/><path d="M168.234 108.27l-1.836-7.93" stroke-width="1.2" stroke="#f00" stroke-miterlimit="10" fill="none"/><path d="M166.344 117.06l-1.836-7.927" stroke-width="1.2" stroke="#000" stroke-miterlimit="10" fill="none"/><path d="M164.508 109.133l-1.84-7.926" stroke-width="1.2" stroke="#f00" stroke-miterlimit="10" fill="none"/><path d="M160.53 95.273h8v11h-8zm0 0" fill="#fff"/><use xlink:href="#c" x="160.531" y="103.937" fill="#f00"/><path d="M197.137 114.574l14.242 7.88M211.38 122.453l13.94-8.398M214.746 124.89l11.156-6.714M211.68 138.723l-.3-16.27M225.32 114.055l14.243 7.88M239.563 121.934l.296 16.27M243.418 123.488l.242 13.016" stroke-width="1.2" stroke="#000" stroke-miterlimit="10" fill="none"/><path d="M254.94 116.617l-7.686 2.66" stroke-width="1.2" stroke="#f00" stroke-miterlimit="10" fill="none"/><path d="M247.254 119.277l-7.69 2.657M239.86 138.203l-13.942 8.395M239.86 138.203l7.785 2.37" stroke-width="1.2" stroke="#000" stroke-miterlimit="10" fill="none"/><path d="M247.645 140.574l7.785 2.37" stroke-width="1.2" stroke="#f00" stroke-miterlimit="10" fill="none"/><path d="M225.918 146.598l-14.238-7.875M226.348 142.46l-11.39-6.3" stroke-width="1.2" stroke="#000" stroke-miterlimit="10" fill="none"/><path d="M255.43 142.945l4.66-6.668" stroke-width="1.2" stroke="#f00" stroke-miterlimit="10" fill="none"/><path d="M260.09 136.277l4.66-6.672" stroke-width="1.2" stroke="#000" stroke-miterlimit="10" fill="none"/><path d="M251.43 137.445h8v11h-8zm0 0" fill="#fff"/><use xlink:href="#c" x="251.43" y="146.108" fill="#f00"/><path d="M264.75 129.605l-4.902-6.492" stroke-width="1.2" stroke="#000" stroke-miterlimit="10" fill="none"/><path d="M259.848 123.113l-4.907-6.496" stroke-width="1.2" stroke="#f00" stroke-miterlimit="10" fill="none"/><path d="M250.94 111.117h8v11h-8zm0 0" fill="#fff"/><use xlink:href="#c" x="250.941" y="119.78" fill="#f00"/></g></svg>