<svg xmlns="http://www.w3.org/2000/svg" xmlns:xlink="http://www.w3.org/1999/xlink" width="300pt" height="300pt" viewBox="0 0 300 300"><defs><symbol overflow="visible"><path d="M.547 1.938V-7.75h5.5v9.688zm.625-.61h4.266v-8.47H1.171zm0 0"/></symbol><symbol overflow="visible" id="a"><path d="M4.328-7.28c-.78 0-1.406.296-1.875.89-.46.585-.687 1.382-.687 2.39 0 1.012.226 1.813.687 2.406.47.586 1.094.875 1.875.875.79 0 1.414-.288 1.875-.874.457-.593.688-1.394.688-2.406 0-1.008-.23-1.805-.687-2.39-.46-.594-1.086-.89-1.875-.89zm0-.892c1.125 0 2.024.383 2.703 1.14C7.708-6.28 8.048-5.27 8.048-4c0 1.262-.34 2.273-1.016 3.03C6.353-.22 5.454.157 4.33.157S2.3-.22 1.625-.97c-.668-.75-1-1.757-1-3.03 0-1.27.332-2.28 1-3.03.676-.76 1.578-1.142 2.703-1.142zm0 0"/></symbol><symbol overflow="visible" id="b"><path d="M1.078-8.016h1.094v3.282H6.11v-3.282h1.077V0H6.11v-3.813H2.17V0H1.078zm0 0"/></symbol></defs><g><path fill="#fff" d="M0 0h300v300H0z"/><path d="M35.97 124.184l28.128.414M64.098 124.598l14.425-24.153M64.098 124.598l13.707 24.57M77.805 149.168L63.38 173.32M82.043 154.977L70.503 174.3M105.934 149.582l-28.13-.414M63.38 173.32l13.702 24.57M63.38 173.32l-14.064-.207" stroke-width="1.2" stroke="#000" stroke-miterlimit="10" fill="none"/><path d="M49.316 173.113l-14.066-.21" stroke-width="1.2" stroke="#f00" stroke-miterlimit="10" fill="none"/><path d="M77.082 197.89l28.13.415M79.992 191.313l22.504.332M105.21 198.305l14.427-24.153M119.637 174.152l-13.703-24.57M124.047 168.473l-10.965-19.657M147.766 174.57l-28.13-.418M105.934 149.582l14.425-24.152M120.36 125.43l28.128.418M148.488 125.848l13.703 24.57M162.19 150.418l-14.424 24.152M190.32 150.832l-28.13-.414M147.766 174.57l13.703 24.567" stroke-width="1.2" stroke="#000" stroke-miterlimit="10" fill="none"/><path d="M147.766 174.57m-1.96 2.266l.893.535m-2.86 1.735l1.793 1.07m-3.754 1.2l2.683 1.605m-4.645.665l3.578 2.14m-5.543.13l4.477 2.67m-6.438-.4l5.37 3.206m-7.335-.937l6.27 3.742m-8.23-1.472l7.16 4.277m-9.122-2.008l8.055 4.81m-9.082-3.626l8.524 5.09" stroke="#000" stroke-miterlimit="10" fill="none"/><path d="M161.47 199.137l28.128.418M189.598 199.555l14.425-24.153M204.023 175.402l-13.703-24.57" stroke-width="1.2" stroke="#000" stroke-miterlimit="10" fill="none"/><path d="M190.32 150.832m.043-3l-1.027.168m1.074-3.168l-2.058.332m2.1-3.332l-3.085.5m3.133-3.5l-4.117.664m4.16-3.664l-5.148.832m5.195-3.828l-6.18.992m6.223-3.992l-7.207 1.16m7.254-4.16l-8.24 1.324m8.283-4.324l-9.266 1.492m9.29-3.058l-9.802 1.578" stroke="#000" stroke-miterlimit="10" fill="none"/><path d="M190.32 150.832l26.575-9.23M220.145 142.227l2.648-13.817" stroke-width="1.2" stroke="#000" stroke-miterlimit="10" fill="none"/><path d="M222.793 128.41l2.644-13.812" stroke-width="1.2" stroke="#f00" stroke-miterlimit="10" fill="none"/><path d="M213.645 140.98l2.648-13.816" stroke-width="1.2" stroke="#000" stroke-miterlimit="10" fill="none"/><path d="M216.293 127.164l2.644-13.812" stroke-width="1.2" stroke="#f00" stroke-miterlimit="10" fill="none"/><path d="M216.895 141.602l10.64 9.2" stroke-width="1.2" stroke="#000" stroke-miterlimit="10" fill="none"/><path d="M227.535 150.8l10.64 9.204" stroke-width="1.2" stroke="#f00" stroke-miterlimit="10" fill="none"/><path d="M218.188 107.473h9v13h-9zm0 0" fill="#fff"/><use xlink:href="#a" x="218.188" y="117.374" fill="#f00"/><path d="M238.176 160.004l13.285-4.617" stroke-width="1.2" stroke="#f00" stroke-miterlimit="10" fill="none"/><path d="M251.46 155.387l13.29-4.614" stroke-width="1.2" stroke="#000" stroke-miterlimit="10" fill="none"/><path d="M234.176 153.504h9v13h-9zm0 0" fill="#fff"/><use xlink:href="#a" x="234.176" y="163.405" fill="#f00"/><path d="M18.25 166.402h17v13h-17zm0 0" fill="#fff"/><g fill="#f00"><use xlink:href="#b" x="18.25" y="176.304"/><use xlink:href="#a" x="26.274" y="176.304"/></g></g></svg>