<svg xmlns="http://www.w3.org/2000/svg" xmlns:xlink="http://www.w3.org/1999/xlink" width="300pt" height="300pt" viewBox="0 0 300 300"><defs><symbol overflow="visible"><path d="M.547 1.938V-7.75h5.5v9.688zm.625-.61h4.266v-8.47H1.171zm0 0"/></symbol><symbol overflow="visible" id="a"><path d="M4.328-7.28c-.78 0-1.406.296-1.875.89-.46.585-.687 1.382-.687 2.39 0 1.012.226 1.813.687 2.406.47.586 1.094.875 1.875.875.79 0 1.414-.288 1.875-.874.457-.593.688-1.394.688-2.406 0-1.008-.23-1.805-.687-2.39-.46-.594-1.086-.89-1.875-.89zm0-.892c1.125 0 2.024.383 2.703 1.14C7.708-6.28 8.048-5.27 8.048-4c0 1.262-.34 2.273-1.016 3.03C6.353-.22 5.454.157 4.33.157S2.3-.22 1.625-.97c-.668-.75-1-1.757-1-3.03 0-1.27.332-2.28 1-3.03.676-.76 1.578-1.142 2.703-1.142zm0 0"/></symbol><symbol overflow="visible" id="b"><path d="M2.172-3.828V-.89h1.734c.582 0 1.016-.118 1.297-.36.28-.238.422-.61.422-1.11 0-.5-.14-.867-.422-1.11-.28-.237-.715-.358-1.297-.358zm0-3.297v2.422h1.594c.53 0 .925-.098 1.187-.297.258-.207.39-.516.39-.922s-.132-.707-.39-.906c-.262-.195-.656-.297-1.187-.297zm-1.094-.89h2.766c.832 0 1.472.17 1.922.515.445.344.67.836.67 1.47.002.49-.116.882-.342 1.17-.23.282-.57.462-1.016.532.53.117.942.355 1.234.72.3.366.454.82.454 1.358 0 .72-.246 1.277-.735 1.672C5.55-.19 4.86 0 3.954 0H1.078zm0 0"/></symbol><symbol overflow="visible" id="c"><path d="M4.516-5.094c-.106-.062-.227-.11-.36-.14-.125-.032-.265-.047-.422-.047-.562 0-.996.182-1.296.546C2.144-4.367 2-3.848 2-3.172V0H1v-6.016h1v.938c.195-.363.46-.633.797-.813.332-.176.738-.266 1.22-.266.07 0 .143.008.217.015.082 0 .176.01.282.03zm0 0"/></symbol></defs><g><path fill="#fff" d="M0 0h300v300H0z"/><path d="M192.637 230.324l-4.758-13.273" stroke-width="1.2" stroke="#000" stroke-miterlimit="10" fill="none"/><path d="M187.88 217.05l-4.76-13.27M183.12 203.78l9.114-10.757" stroke-width="1.2" stroke="#f00" stroke-miterlimit="10" fill="none"/><path d="M192.234 193.023l9.114-10.753" stroke-width="1.2" stroke="#000" stroke-miterlimit="10" fill="none"/><path d="M179.12 197.28h9v13h-9zm0 0" fill="#fff"/><use xlink:href="#a" x="179.121" y="207.183" fill="#f00"/><path d="M201.348 182.27l-4.758-13.274" stroke-width="1.2" stroke="#000" stroke-miterlimit="10" fill="none"/><path d="M196.59 168.996l-4.758-13.27M191.832 155.727l9.117-10.758" stroke-width="1.2" stroke="#f00" stroke-miterlimit="10" fill="none"/><path d="M200.95 144.97l9.113-10.755" stroke-width="1.2" stroke="#000" stroke-miterlimit="10" fill="none"/><path d="M187.832 149.227h9v13h-9zm0 0" fill="#fff"/><use xlink:href="#a" x="187.832" y="159.128" fill="#f00"/><path d="M210.063 134.215l-9.516-26.547M215.355 129.32l-7.613-21.234M237.81 139.242l-27.748-5.027M200.547 107.668l18.23-21.512M200.547 107.668L172.8 102.64M218.777 86.156l27.743 5.03M220.367 93.188l22.196 4.027M246.52 91.188l9.515 26.542M246.52 91.188l9.117-10.754" stroke-width="1.2" stroke="#000" stroke-miterlimit="10" fill="none"/><path d="M255.637 80.434l9.113-10.758" stroke-width="1.2" stroke="#7f4d1a" stroke-miterlimit="10" fill="none"/><path d="M256.035 117.73l-18.226 21.512M249.152 115.594l-14.582 17.21" stroke-width="1.2" stroke="#000" stroke-miterlimit="10" fill="none"/><path d="M258.75 63.176h12v13h-12zm0 0" fill="#fff"/><g fill="#7f4d1a"><use xlink:href="#b" x="258.75" y="73.077"/><use xlink:href="#c" x="266.071" y="73.077"/></g><path d="M170.27 100.496l-9.114 10.754" stroke-width="1.2" stroke="#000" stroke-miterlimit="10" fill="none"/><path d="M161.156 111.25l-9.113 10.758" stroke-width="1.2" stroke="#f00" stroke-miterlimit="10" fill="none"/><path d="M175.332 104.785l-9.113 10.754" stroke-width="1.2" stroke="#000" stroke-miterlimit="10" fill="none"/><path d="M166.22 115.54l-9.118 10.757" stroke-width="1.2" stroke="#f00" stroke-miterlimit="10" fill="none"/><path d="M172.8 102.64L163.286 76.1" stroke-width="1.2" stroke="#000" stroke-miterlimit="10" fill="none"/><path d="M145.574 117.652h9v13h-9zm0 0" fill="#fff"/><use xlink:href="#a" x="145.574" y="127.554" fill="#f00"/><path d="M163.285 76.098l-27.742-5.032M161.695 69.066L139.5 65.04M135.543 71.066l-18.23 21.512M117.313 92.578l-27.747-5.03M113.355 98.602l-22.2-4.024M126.828 119.12l-9.516-26.542M89.566 87.547l-18.23 21.512M71.336 109.06l9.52 26.542M66.043 113.953l7.613 21.234" stroke-width="1.2" stroke="#000" stroke-miterlimit="10" fill="none"/><path d="M43.152 109.906l14.094-.422" stroke-width="1.2" stroke="#f00" stroke-miterlimit="10" fill="none"/><path d="M57.246 109.484l14.09-.425M80.855 135.602l27.743 5.03M80.855 135.602l-11.152 8.628" stroke-width="1.2" stroke="#000" stroke-miterlimit="10" fill="none"/><path d="M69.703 144.23l-11.152 8.625" stroke-width="1.2" stroke="#f00" stroke-miterlimit="10" fill="none"/><path d="M108.598 140.633l18.23-21.512M105.36 134.19l14.58-17.206" stroke-width="1.2" stroke="#000" stroke-miterlimit="10" fill="none"/><path d="M58.55 152.855l-11.652-7.94" stroke-width="1.2" stroke="#f00" stroke-miterlimit="10" fill="none"/><path d="M46.898 144.914l-11.648-7.94" stroke-width="1.2" stroke="#000" stroke-miterlimit="10" fill="none"/><path d="M54.55 146.355h9v13h-9zm0 0" fill="#fff"/><use xlink:href="#a" x="54.551" y="156.257" fill="#f00"/><path d="M35.25 136.973l3.953-13.532" stroke-width="1.2" stroke="#000" stroke-miterlimit="10" fill="none"/><path d="M39.203 123.44l3.95-13.534" stroke-width="1.2" stroke="#f00" stroke-miterlimit="10" fill="none"/><path d="M39.152 103.406h9v13h-9zm0 0" fill="#fff"/><use xlink:href="#a" x="39.152" y="113.308" fill="#f00"/></g></svg>