<svg xmlns="http://www.w3.org/2000/svg" xmlns:xlink="http://www.w3.org/1999/xlink" width="300pt" height="300pt" viewBox="0 0 300 300"><defs><symbol overflow="visible"><path d="M.453 1.594v-7.938h4.5v7.938zm.5-.5h3.5v-6.938h-3.5zm0 0"/></symbol><symbol overflow="visible" id="a"><path d="M3.547-5.953c-.65 0-1.164.242-1.547.72-.375.48-.563 1.13-.563 1.952 0 .835.188 1.49.563 1.967.383.48.898.72 1.547.72.644 0 1.156-.24 1.53-.72.376-.476.564-1.132.564-1.968 0-.822-.187-1.474-.562-1.954-.375-.477-.887-.72-1.53-.72zm0-.734c.914 0 1.648.312 2.203.937.55.617.828 1.438.828 2.47 0 1.042-.277 1.87-.828 2.483-.555.617-1.29.922-2.203.922-.93 0-1.668-.305-2.22-.922C.774-1.41.5-2.237.5-3.28c0-1.033.273-1.853.828-2.47.55-.625 1.29-.938 2.22-.938zm0 0"/></symbol><symbol overflow="visible" id="b"><path d="M.89-6.563H2.08l2.906 5.485v-5.484h.86V0H4.656L1.75-5.484V0H.89zm0 0"/></symbol><symbol overflow="visible" id="c"><path d="M.89-6.563h3.766v.75h-2.89v1.938h2.61v.734h-2.61V0H.89zm0 0"/></symbol><symbol overflow="visible" id="d"><path d="M.89-6.563h.876v2.688H5v-2.688h.89V0H5v-3.125H1.766V0H.89zm0 0"/></symbol></defs><g><path fill="#fff" d="M0 0h300v300H0z"/><path d="M35.25 221.496l4.113-19.656M40.285 220.496l3.293-15.723M31.035 218.563l3.293-15.727M39.363 201.84l4.114-19.656M43.477 182.184l19.078-6.262M62.555 175.922l4.113-19.656M66.668 156.266l9.54-3.133" stroke-width="1.2" stroke="#000" stroke-miterlimit="10" fill="none"/><path d="M76.207 153.133l9.54-3.133M85.746 150l2.055-9.828" stroke-width="1.2" stroke="#f00" stroke-miterlimit="10" fill="none"/><path d="M87.8 140.172l2.06-9.828" stroke-width="1.2" stroke="#00f" stroke-miterlimit="10" fill="none"/><path d="M81.746 144.5h8v11h-8zm0 0" fill="#fff"/><use xlink:href="#a" x="81.746" y="153.163" fill="#f00"/><path d="M89.86 130.344l9.535-3.133" stroke-width="1.2" stroke="#00f" stroke-miterlimit="10" fill="none"/><path d="M99.395 127.21l9.54-3.132" stroke-width="1.2" stroke="#000" stroke-miterlimit="10" fill="none"/><path d="M93.238 134.207l7.633-2.504" stroke-width="1.2" stroke="#00f" stroke-miterlimit="10" fill="none"/><path d="M100.87 131.703l7.63-2.508" stroke-width="1.2" stroke="#000" stroke-miterlimit="10" fill="none"/><path d="M86.86 124.844h7v11h-7zm0 0" fill="#fff"/><use xlink:href="#b" x="86.859" y="133.507" fill="#00f"/><path d="M108.934 124.078l4.113-19.652M108.934 124.078l14.964 13.39M113.047 104.426l19.078-6.266M132.125 98.16l14.965 13.39" stroke-width="1.2" stroke="#000" stroke-miterlimit="10" fill="none"/><path d="M132.125 98.16l7.582-18.93-6.937-1.45zm0 0"/><path d="M147.09 111.55l-4.113 19.653" stroke-width="1.2" stroke="#000" stroke-miterlimit="10" fill="none"/><path d="M147.09 111.55l20.183-2.898-2.21-6.734zm0 0"/><path d="M142.977 131.203m-2.97.426l.325.99m-3.293-.56l.65 1.98m-3.62-1.556l.977 2.973m-3.945-2.547l1.3 3.96m-4.273-3.534l1.628 4.953m-4.598-4.528l1.953 5.945m-4.32-5.605l2.21 6.734" stroke="#000" stroke-miterlimit="10" fill="none"/><path d="M157.94 144.594l-14.963-13.39" stroke-width="1.2" stroke="#000" stroke-miterlimit="10" fill="none"/><path d="M123.898 137.47m-1.113 2.784l1.02.215m-2.137 2.57l2.043.425m-3.155 2.36l3.062.64m-4.18 2.144l4.083.855m-5.196 1.93l5.102 1.066m-6.22 1.72l6.126 1.28m-7.012.938l6.934 1.454" stroke="#000" stroke-miterlimit="10" fill="none"/><path d="M119.79 157.125l14.964 13.387" stroke-width="1.2" stroke="#000" stroke-miterlimit="10" fill="none"/><path d="M153.828 164.246m-2.97.43l.33.988m-3.297-.562l.653 1.98m-3.62-1.555l.975 2.973m-3.945-2.547l1.3 3.965m-4.273-3.54l1.63 4.954m-4.598-4.527l1.953 5.945m-4.32-5.605l2.214 6.734" stroke="#000" stroke-miterlimit="10" fill="none"/><path d="M153.828 164.246l4.113-19.652M171.25 174.234l-17.422-9.988" stroke-width="1.2" stroke="#000" stroke-miterlimit="10" fill="none"/><path d="M157.94 144.594l20.35 1.36-.767-7.048zm0 0"/><path d="M179.957 143.605l4.992-8.71" stroke-width="1.2" stroke="#000" stroke-miterlimit="10" fill="none"/><path d="M184.95 134.895l4.99-8.71" stroke-width="1.2" stroke="#f00" stroke-miterlimit="10" fill="none"/><path d="M175.855 141.258l4.993-8.71" stroke-width="1.2" stroke="#000" stroke-miterlimit="10" fill="none"/><path d="M180.848 132.547l4.996-8.71" stroke-width="1.2" stroke="#f00" stroke-miterlimit="10" fill="none"/><path d="M177.906 142.43l4.114 9.16" stroke-width="1.2" stroke="#000" stroke-miterlimit="10" fill="none"/><path d="M182.02 151.59l4.113 9.16" stroke-width="1.2" stroke="#00f" stroke-miterlimit="10" fill="none"/><path d="M183.89 119.508h8v11h-8zm0 0" fill="#fff"/><use xlink:href="#a" x="183.891" y="128.171" fill="#f00"/><path d="M186.133 160.75l-7.442 6.742" stroke-width="1.2" stroke="#00f" stroke-miterlimit="10" fill="none"/><path d="M178.69 167.492l-7.44 6.742" stroke-width="1.2" stroke="#000" stroke-miterlimit="10" fill="none"/><path d="M186.133 160.75l9.828 2.055" stroke-width="1.2" stroke="#00f" stroke-miterlimit="10" fill="none"/><path d="M195.96 162.805l9.825 2.058" stroke-width="1.2" stroke="#000" stroke-miterlimit="10" fill="none"/><path d="M183.133 155.25h7v11h-7zm0 0" fill="#fff"/><use xlink:href="#b" x="183.133" y="163.913" fill="#00f"/><path d="M168.902 174.488l1.082 9.98" stroke-width="1.2" stroke="#000" stroke-miterlimit="10" fill="none"/><path d="M169.984 184.47l1.082 9.98" stroke-width="1.2" stroke="#f00" stroke-miterlimit="10" fill="none"/><path d="M173.602 173.98l1.078 9.98" stroke-width="1.2" stroke="#000" stroke-miterlimit="10" fill="none"/><path d="M174.68 183.96l1.082 9.98" stroke-width="1.2" stroke="#f00" stroke-miterlimit="10" fill="none"/><path d="M169.414 188.695h8v11h-8zm0 0" fill="#fff"/><use xlink:href="#a" x="169.414" y="197.358" fill="#f00"/><path d="M205.785 164.863l6.266 19.078M210.902 165.297l5.012 15.262M219.176 149.898l-13.39 14.965M212.05 183.94l19.657 4.115M212.05 183.94l-6.695 7.482" stroke-width="1.2" stroke="#000" stroke-miterlimit="10" fill="none"/><path d="M205.355 191.422l-6.69 7.484" stroke-width="1.2" stroke="#3cc" stroke-miterlimit="10" fill="none"/><path d="M231.707 188.055l13.387-14.965M229.523 183.406l10.71-11.972M245.094 173.09l-6.266-19.078M245.094 173.09l9.828 2.055" stroke-width="1.2" stroke="#000" stroke-miterlimit="10" fill="none"/><path d="M254.922 175.145l9.828 2.058" stroke-width="1.2" stroke="#3cc" stroke-miterlimit="10" fill="none"/><path d="M238.828 154.012l-19.652-4.114M235.898 158.223l-15.726-3.29" stroke-width="1.2" stroke="#000" stroke-miterlimit="10" fill="none"/><path d="M261.75 171.703h6v11h-6zm0 0" fill="#fff"/><use xlink:href="#c" x="261.75" y="180.366" fill="#3cc"/><path d="M192.664 193.406h6v11h-6zm0 0" fill="#fff"/><use xlink:href="#c" x="192.664" y="202.069" fill="#3cc"/><path d="M159.168 99.785h15v11h-15zm0 0" fill="#fff"/><g fill="#f00"><use xlink:href="#a" x="159.168" y="108.448"/><use xlink:href="#d" x="166.51" y="108.448"/></g><path d="M129.238 73.004h15v11h-15zm0 0" fill="#fff"/><g fill="#f00"><use xlink:href="#a" x="129.238" y="81.667"/><use xlink:href="#d" x="136.58" y="81.667"/></g></g></svg>