<svg xmlns="http://www.w3.org/2000/svg" xmlns:xlink="http://www.w3.org/1999/xlink" width="300pt" height="300pt" viewBox="0 0 300 300"><defs><symbol overflow="visible"><path d="M.547 1.938V-7.75h5.5v9.688zm.625-.61h4.266v-8.47H1.171zm0 0"/></symbol><symbol overflow="visible" id="a"><path d="M4.328-7.28c-.78 0-1.406.296-1.875.89-.46.585-.687 1.382-.687 2.39 0 1.012.226 1.813.687 2.406.47.586 1.094.875 1.875.875.79 0 1.414-.288 1.875-.874.457-.593.688-1.394.688-2.406 0-1.008-.23-1.805-.687-2.39-.46-.594-1.086-.89-1.875-.89zm0-.892c1.125 0 2.024.383 2.703 1.14C7.708-6.28 8.048-5.27 8.048-4c0 1.262-.34 2.273-1.016 3.03C6.353-.22 5.454.157 4.33.157S2.3-.22 1.625-.97c-.668-.75-1-1.757-1-3.03 0-1.27.332-2.28 1-3.03.676-.76 1.578-1.142 2.703-1.142zm0 0"/></symbol><symbol overflow="visible" id="b"><path d="M1.078-8.016h1.47l3.546 6.704v-6.704h1.062V0H5.688L2.124-6.703V0H1.078zm0 0"/></symbol></defs><g><path fill="#fff" d="M0 0h300v300H0z"/><path d="M264.75 190.902l-9.805 10.036" stroke-width="1.2" stroke="#000" stroke-miterlimit="10" fill="none"/><path d="M254.945 200.938l-9.8 10.035M245.145 210.973L231.55 207.5" stroke-width="1.2" stroke="#f00" stroke-miterlimit="10" fill="none"/><path d="M231.55 207.5l-13.59-3.473" stroke-width="1.2" stroke="#000" stroke-miterlimit="10" fill="none"/><path d="M241.145 204.473h9v13h-9zm0 0" fill="#fff"/><use xlink:href="#a" x="241.145" y="214.374" fill="#f00"/><path d="M217.96 204.027l-7.577-27.01M210.848 203.11l-6.063-21.61M198.355 224.098l19.606-20.07M210.383 177.016L183.2 170.07M183.2 170.07l-19.606 20.07M185.96 176.69l-15.687 16.056M163.594 190.14l7.578 27.012M163.594 190.14l-27.188-6.945M171.172 217.152l27.183 6.946M175.523 211.453l21.747 5.555M136.406 183.195l-7.578-27.015M128.828 156.18l19.61-20.067" stroke-width="1.2" stroke="#000" stroke-miterlimit="10" fill="none"/><path d="M101.645 149.238l13.593 3.473" stroke-width="1.2" stroke="#00f" stroke-miterlimit="10" fill="none"/><path d="M115.238 152.71l13.59 3.47M148.438 136.113l27.183 6.942M152.79 130.41l21.745 5.555M140.86 109.098l7.577 27.015M175.62 143.055l19.607-20.07M195.227 122.984l-7.58-27.01M188.113 122.066l-6.062-21.61M195.227 122.984l13.59 3.473" stroke-width="1.2" stroke="#000" stroke-miterlimit="10" fill="none"/><path d="M208.816 126.457l13.594 3.473" stroke-width="1.2" stroke="#f00" stroke-miterlimit="10" fill="none"/><path d="M187.648 95.973l-27.183-6.946M187.648 95.973l9.8-10.035" stroke-width="1.2" stroke="#000" stroke-miterlimit="10" fill="none"/><path d="M197.45 85.938l9.804-10.036" stroke-width="1.2" stroke="#f00" stroke-miterlimit="10" fill="none"/><path d="M160.465 89.027l-19.606 20.07M163.227 95.648l-15.688 16.055M140.86 109.098l-27.188-6.946M113.672 102.152l-19.606 20.07M94.066 122.223l3.79 13.507" stroke-width="1.2" stroke="#000" stroke-miterlimit="10" fill="none"/><path d="M97.855 135.73l3.79 13.508M101.645 149.238l-9.8 10.035" stroke-width="1.2" stroke="#00f" stroke-miterlimit="10" fill="none"/><path d="M91.844 159.273L82.04 169.31" stroke-width="1.2" stroke="#000" stroke-miterlimit="10" fill="none"/><path d="M97.645 142.738h8v13h-8zm0 0" fill="#fff"/><use xlink:href="#b" x="97.645" y="152.64" fill="#00f"/><path d="M78.863 170.2l3.79 13.507" stroke-width="1.2" stroke="#000" stroke-miterlimit="10" fill="none"/><path d="M82.652 183.707l3.79 13.508" stroke-width="1.2" stroke="#f00" stroke-miterlimit="10" fill="none"/><path d="M85.22 168.414l3.788 13.508" stroke-width="1.2" stroke="#000" stroke-miterlimit="10" fill="none"/><path d="M89.008 181.922l3.79 13.508" stroke-width="1.2" stroke="#f00" stroke-miterlimit="10" fill="none"/><path d="M82.04 169.31l-13.59-3.474" stroke-width="1.2" stroke="#000" stroke-miterlimit="10" fill="none"/><path d="M68.45 165.836l-13.595-3.473" stroke-width="1.2" stroke="#f00" stroke-miterlimit="10" fill="none"/><path d="M85.617 189.82h9v13h-9zm0 0" fill="#fff"/><use xlink:href="#a" x="85.617" y="199.722" fill="#f00"/><path d="M54.855 162.363l-9.8 10.035" stroke-width="1.2" stroke="#f00" stroke-miterlimit="10" fill="none"/><path d="M45.055 172.398l-9.805 10.036" stroke-width="1.2" stroke="#000" stroke-miterlimit="10" fill="none"/><path d="M50.855 155.863h9v13h-9zm0 0" fill="#fff"/><use xlink:href="#a" x="50.855" y="165.765" fill="#f00"/><path d="M207.254 75.902l13.59 3.473" stroke-width="1.2" stroke="#f00" stroke-miterlimit="10" fill="none"/><path d="M220.844 79.375l13.594 3.473" stroke-width="1.2" stroke="#000" stroke-miterlimit="10" fill="none"/><path d="M203.254 69.402h9v13h-9zm0 0" fill="#fff"/><use xlink:href="#a" x="203.254" y="79.304" fill="#f00"/><path d="M222.41 129.93l3.79 13.507" stroke-width="1.2" stroke="#f00" stroke-miterlimit="10" fill="none"/><path d="M226.2 143.438l3.788 13.507" stroke-width="1.2" stroke="#000" stroke-miterlimit="10" fill="none"/><path d="M218.41 123.43h9v13h-9zm0 0" fill="#fff"/><use xlink:href="#a" x="218.41" y="133.331" fill="#f00"/></g></svg>