<svg xmlns="http://www.w3.org/2000/svg" xmlns:xlink="http://www.w3.org/1999/xlink" width="300pt" height="300pt" viewBox="0 0 300 300"><defs><symbol overflow="visible"><path d="M.453 1.594v-7.938h4.5v7.938zm.5-.5h3.5v-6.938h-3.5zm0 0"/></symbol><symbol overflow="visible" id="a"><path d="M.89-6.563H2.08l2.906 5.485v-5.484h.86V0H4.656L1.75-5.484V0H.89zm0 0"/></symbol><symbol overflow="visible" id="b"><path d="M3.547-5.953c-.65 0-1.164.242-1.547.72-.375.48-.563 1.13-.563 1.952 0 .835.188 1.49.563 1.967.383.48.898.72 1.547.72.644 0 1.156-.24 1.53-.72.376-.476.564-1.132.564-1.968 0-.822-.187-1.474-.562-1.954-.375-.477-.887-.72-1.53-.72zm0-.734c.914 0 1.648.312 2.203.937.55.617.828 1.438.828 2.47 0 1.042-.277 1.87-.828 2.483-.555.617-1.29.922-2.203.922-.93 0-1.668-.305-2.22-.922C.774-1.41.5-2.237.5-3.28c0-1.033.273-1.853.828-2.47.55-.625 1.29-.938 2.22-.938zm0 0"/></symbol><symbol overflow="visible" id="c"><path d="M.89-6.563h.876v2.688H5v-2.688h.89V0H5v-3.125H1.766V0H.89zm0 0"/></symbol></defs><g><path fill="#fff" d="M0 0h300v300H0z"/><path d="M37.605 180.082l12.364 14.715M49.97 194.797l12.362 14.72M49.97 194.797L35.25 207.16M49.97 194.797l7.354-6.18" stroke-width="1.2" stroke="#000" stroke-miterlimit="10" fill="none"/><path d="M57.324 188.617l7.36-6.183M64.684 182.434l9.328 2.32" stroke-width="1.2" stroke="#00f" stroke-miterlimit="10" fill="none"/><path d="M74.012 184.754l9.324 2.32M63.332 163.262l.676 9.586" stroke-width="1.2" stroke="#000" stroke-miterlimit="10" fill="none"/><path d="M64.008 172.848l.676 9.586" stroke-width="1.2" stroke="#00f" stroke-miterlimit="10" fill="none"/><path d="M61.684 176.934h7v11h-7zm0 0" fill="#fff"/><use xlink:href="#a" x="61.684" y="185.597" fill="#00f"/><path d="M81.242 187.922l3.606 8.91" stroke-width="1.2" stroke="#000" stroke-miterlimit="10" fill="none"/><path d="M84.848 196.832l3.605 8.906" stroke-width="1.2" stroke="#f00" stroke-miterlimit="10" fill="none"/><path d="M85.434 186.227l3.605 8.906" stroke-width="1.2" stroke="#000" stroke-miterlimit="10" fill="none"/><path d="M89.04 195.133l3.605 8.91" stroke-width="1.2" stroke="#f00" stroke-miterlimit="10" fill="none"/><path d="M93.512 170.77m-2.004 2.226l.883.555m-2.89 1.677l1.77 1.105m-3.778 1.125l2.656 1.656m-4.66.575l3.54 2.21m-5.548.02l4.422 2.762m-6.425-.532l5.304 3.313m-6.32-2.183l5.755 3.594" stroke="#000" stroke-miterlimit="10" fill="none"/><path d="M86.547 199.39h8v11h-8zm0 0" fill="#fff"/><use xlink:href="#b" x="86.547" y="208.054" fill="#f00"/><path d="M93.512 170.77l18.93-3.352M81.148 156.05l12.364 14.72M112.44 167.418l6.564-18.063" stroke-width="1.2" stroke="#000" stroke-miterlimit="10" fill="none"/><path d="M106.64 134.637m1.5 2.597l.8-.672m.705 3.27l1.593-1.344m-.093 3.942l2.394-2.012m-.895 4.61l3.195-2.684m-1.695 5.28l3.992-3.354m-2.49 5.953l4.79-4.028m-4.03 5.34l5.195-4.363" stroke="#000" stroke-miterlimit="10" fill="none"/><path d="M106.64 134.637l-19.52.008 1.185 6.68zm0 0"/><path d="M106.64 134.637l6.563-18.067M87.715 137.984l-6.567 18.067M87.715 137.984L75.352 123.27" stroke-width="1.2" stroke="#000" stroke-miterlimit="10" fill="none"/><path d="M81.148 156.05l-19.09 4.067 2.547 6.29zm0 0"/><path d="M64.53 161.344l-8.155-5.09" stroke-width="1.2" stroke="#000" stroke-miterlimit="10" fill="none"/><path d="M56.375 156.254l-8.152-5.086" stroke-width="1.2" stroke="#f00" stroke-miterlimit="10" fill="none"/><path d="M62.137 165.18l-8.157-5.09" stroke-width="1.2" stroke="#000" stroke-miterlimit="10" fill="none"/><path d="M53.98 160.09l-8.152-5.086" stroke-width="1.2" stroke="#f00" stroke-miterlimit="10" fill="none"/><path d="M39.027 147.586h8v11h-8zm0 0" fill="#fff"/><use xlink:href="#b" x="39.027" y="156.249" fill="#f00"/><path d="M75.352 123.27l6.562-18.067" stroke-width="1.2" stroke="#000" stroke-miterlimit="10" fill="none"/><path d="M75.352 123.27m-3 0l.18 1.027m-3.18-1.027l.363 2.054m-3.363-2.05l.543 3.078m-3.543-3.08l.726 4.107m-3.726-4.107l.906 5.133m-3.906-5.13l1.09 6.162m-2.61-6.16l1.184 6.68" stroke="#000" stroke-miterlimit="10" fill="none"/><path d="M81.914 105.203l18.926-3.348" stroke-width="1.2" stroke="#000" stroke-miterlimit="10" fill="none"/><path d="M81.914 105.203m-1.5-2.598l-.8.672m-.704-3.27l-1.594 1.34m.094-3.937l-2.394 2.012m.894-4.61l-3.195 2.684m1.695-5.28l-3.992 3.354m2.488-5.953l-4.79 4.024m4.032-5.335l-5.195 4.363" stroke="#000" stroke-miterlimit="10" fill="none"/><path d="M100.84 101.855l12.363 14.715M113.203 116.57l9.465-1.672" stroke-width="1.2" stroke="#000" stroke-miterlimit="10" fill="none"/><path d="M122.668 114.898l9.465-1.675" stroke-width="1.2" stroke="#00f" stroke-miterlimit="10" fill="none"/><path d="M115.887 120.69l7.57-1.338" stroke-width="1.2" stroke="#000" stroke-miterlimit="10" fill="none"/><path d="M123.457 119.352l7.57-1.34M132.133 113.223l6.18 7.36" stroke-width="1.2" stroke="#00f" stroke-miterlimit="10" fill="none"/><path d="M138.313 120.582l6.183 7.36" stroke-width="1.2" stroke="#f00" stroke-miterlimit="10" fill="none"/><path d="M129.133 107.723h7v11h-7zm0 0" fill="#fff"/><use xlink:href="#a" x="129.133" y="116.386" fill="#00f"/><path d="M144.496 127.94l9.46-1.674" stroke-width="1.2" stroke="#f00" stroke-miterlimit="10" fill="none"/><path d="M153.957 126.266l9.465-1.676" stroke-width="1.2" stroke="#000" stroke-miterlimit="10" fill="none"/><path d="M140.496 122.44h8v11h-8zm0 0" fill="#fff"/><use xlink:href="#b" x="140.496" y="131.104" fill="#f00"/><path d="M175.785 139.31m-1.5-2.6l-.8.673m-.704-3.27l-1.593 1.34m.094-3.937l-2.393 2.01m.894-4.608l-3.194 2.684m1.695-5.282l-3.99 3.356m2.487-5.953l-4.79 4.023m4.033-5.336l-5.196 4.363" stroke="#000" stroke-miterlimit="10" fill="none"/><path d="M175.785 139.31l18.926-3.35M175.785 139.31l-3.28 9.03" stroke-width="1.2" stroke="#000" stroke-miterlimit="10" fill="none"/><path d="M172.504 148.34l-3.28 9.035" stroke-width="1.2" stroke="#f00" stroke-miterlimit="10" fill="none"/><path d="M194.71 135.96l6.185 7.36" stroke-width="1.2" stroke="#000" stroke-miterlimit="10" fill="none"/><path d="M200.895 143.32l6.18 7.356M207.074 150.676l9.465-1.672" stroke-width="1.2" stroke="#f00" stroke-miterlimit="10" fill="none"/><path d="M216.54 149.004l9.464-1.676" stroke-width="1.2" stroke="#000" stroke-miterlimit="10" fill="none"/><path d="M203.074 145.176h8v11h-8zm0 0" fill="#fff"/><use xlink:href="#b" x="203.074" y="153.839" fill="#f00"/><path d="M226.004 147.328l12.363 14.72M238.367 162.047l19.172-1.352M240.602 166.422l15.34-1.082" stroke-width="1.2" stroke="#000" stroke-miterlimit="10" fill="none"/><path d="M233.727 180.7l2.32-9.33" stroke-width="1.2" stroke="#f00" stroke-miterlimit="10" fill="none"/><path d="M236.047 171.37l2.32-9.323M257.54 160.695l7.21 17.817M264.75 178.512l-14.72 12.363M260.37 176.285l-11.776 9.89M250.03 190.875l-8.15-5.09" stroke-width="1.2" stroke="#000" stroke-miterlimit="10" fill="none"/><path d="M241.88 185.785l-8.153-5.086" stroke-width="1.2" stroke="#f00" stroke-miterlimit="10" fill="none"/><path d="M229.727 175.2h8v11h-8zm0 0" fill="#fff"/><use xlink:href="#b" x="229.727" y="183.862" fill="#f00"/><path d="M154.223 151.875h15v11h-15zm0 0" fill="#fff"/><g fill="#f00"><use xlink:href="#c" x="154.223" y="160.538"/><use xlink:href="#b" x="161.237" y="160.538"/></g><path d="M54.55 84.984h15v11h-15zm0 0" fill="#fff"/><g fill="#f00"><use xlink:href="#c" x="54.551" y="93.647"/><use xlink:href="#b" x="61.565" y="93.647"/></g><path d="M41.422 121.117h15v11h-15zm0 0" fill="#fff"/><g fill="#f00"><use xlink:href="#c" x="41.422" y="129.78"/><use xlink:href="#b" x="48.437" y="129.78"/></g></g></svg>