<svg xmlns="http://www.w3.org/2000/svg" xmlns:xlink="http://www.w3.org/1999/xlink" width="300pt" height="300pt" viewBox="0 0 300 300"><defs><symbol overflow="visible"><path d="M.453 1.594v-7.938h4.5v7.938zm.5-.5h3.5v-6.938h-3.5zm0 0"/></symbol><symbol overflow="visible" id="a"><path d="M.89-6.563H2.08l2.906 5.485v-5.484h.86V0H4.656L1.75-5.484V0H.89zm0 0"/></symbol><symbol overflow="visible" id="b"><path d="M3.547-5.953c-.65 0-1.164.242-1.547.72-.375.48-.563 1.13-.563 1.952 0 .835.188 1.49.563 1.967.383.48.898.72 1.547.72.644 0 1.156-.24 1.53-.72.376-.476.564-1.132.564-1.968 0-.822-.187-1.474-.562-1.954-.375-.477-.887-.72-1.53-.72zm0-.734c.914 0 1.648.312 2.203.937.55.617.828 1.438.828 2.47 0 1.042-.277 1.87-.828 2.483-.555.617-1.29.922-2.203.922-.93 0-1.668-.305-2.22-.922C.774-1.41.5-2.237.5-3.28c0-1.033.273-1.853.828-2.47.55-.625 1.29-.938 2.22-.938zm0 0"/></symbol><symbol overflow="visible" id="c"><path d="M.89-6.563h.876v2.688H5v-2.688h.89V0H5v-3.125H1.766V0H.89zm0 0"/></symbol></defs><g><path fill="#fff" d="M0 0h300v300H0z"/><path d="M174.957 193.617m-.84 2.88l1.035.112m-1.875 2.765l2.075.23m-2.915 2.653l3.11.34m-3.95 2.54l4.15.452m-4.99 2.426l5.184.57m-6.018 2.312l6.22.68m-7.06 2.2l7.254.792m-7.332-.535l7.35.805" stroke="#000" stroke-miterlimit="10" fill="none"/><path d="M174.957 193.617l19.172-8.44M174.957 193.617l-8.45-6.19" stroke-width="1.2" stroke="#000" stroke-miterlimit="10" fill="none"/><path d="M166.508 187.426l-8.446-6.192" stroke-width="1.2" stroke="#f00" stroke-miterlimit="10" fill="none"/><path d="M194.13 185.176l4.44-20.47M199.387 184.176l3.554-16.375" stroke-width="1.2" stroke="#000" stroke-miterlimit="10" fill="none"/><path d="M212.223 195.727l-9.047-5.274" stroke-width="1.2" stroke="#00f" stroke-miterlimit="10" fill="none"/><path d="M203.176 190.453l-9.047-5.277M198.57 164.707l10.418-1.05" stroke-width="1.2" stroke="#000" stroke-miterlimit="10" fill="none"/><path d="M208.988 163.656l10.422-1.05M219.41 162.605l8.438 19.172" stroke-width="1.2" stroke="#00f" stroke-miterlimit="10" fill="none"/><path d="M229.96 144.508l-13.745 16.234 6.387 3.727zm0 0"/><path d="M216.41 157.105h7v11h-7zm0 0" fill="#fff"/><use xlink:href="#a" x="216.41" y="165.769" fill="#00f"/><path d="M227.848 181.777l-15.625 13.95M223.004 179.496l-12.5 11.16" stroke-width="1.2" stroke="#00f" stroke-miterlimit="10" fill="none"/><path d="M224.848 176.277h7v11h-7zm0 0" fill="#fff"/><use xlink:href="#a" x="224.848" y="184.94" fill="#00f"/><path d="M209.223 190.227h7v11h-7zm0 0" fill="#fff"/><use xlink:href="#a" x="209.223" y="198.89" fill="#00f"/><path d="M229.96 144.508l-8.44-19.168M250.8 142.406l-20.84 2.102M221.52 125.34l7.812-6.977" stroke-width="1.2" stroke="#000" stroke-miterlimit="10" fill="none"/><path d="M229.332 118.363l7.813-6.976M237.145 111.387l9.046 5.277" stroke-width="1.2" stroke="#f00" stroke-miterlimit="10" fill="none"/><path d="M246.19 116.664l9.052 5.273" stroke-width="1.2" stroke="#000" stroke-miterlimit="10" fill="none"/><path d="M233.145 105.887h8v11h-8zm0 0" fill="#fff"/><use xlink:href="#b" x="233.145" y="114.55" fill="#f00"/><path d="M255.242 121.938l-4.44 20.468" stroke-width="1.2" stroke="#000" stroke-miterlimit="10" fill="none"/><path d="M250.8 142.406l11.192 18.09 5.516-4.926zm0 0"/><path d="M257.75 152.53h15v11h-15zm0 0" fill="#fff"/><g fill="#f00"><use xlink:href="#b" x="257.75" y="161.194"/><use xlink:href="#c" x="265.092" y="161.194"/></g><path d="M158.063 181.234l1.14-10.414" stroke-width="1.2" stroke="#f00" stroke-miterlimit="10" fill="none"/><path d="M159.203 170.82l1.137-10.41" stroke-width="1.2" stroke="#00f" stroke-miterlimit="10" fill="none"/><path d="M154.063 175.734h8v11h-8zm0 0" fill="#fff"/><use xlink:href="#b" x="154.063" y="184.397" fill="#f00"/><path d="M160.34 160.41l-8.445-6.19" stroke-width="1.2" stroke="#00f" stroke-miterlimit="10" fill="none"/><path d="M151.895 154.22l-8.45-6.193" stroke-width="1.2" stroke="#000" stroke-miterlimit="10" fill="none"/><path d="M161.563 155.2l-6.758-4.954" stroke-width="1.2" stroke="#00f" stroke-miterlimit="10" fill="none"/><path d="M154.805 150.246l-6.758-4.953" stroke-width="1.2" stroke="#000" stroke-miterlimit="10" fill="none"/><path d="M157.34 154.91h7v11h-7zm0 0" fill="#fff"/><use xlink:href="#a" x="157.34" y="163.573" fill="#00f"/><path d="M143.445 148.027l-19.172 8.442M143.445 148.027l2.278-20.82M124.273 156.47l-16.894-12.384" stroke-width="1.2" stroke="#000" stroke-miterlimit="10" fill="none"/><path d="M124.273 156.47m-.84 2.878l1.04.113m-1.88 2.767l2.075.226m-2.91 2.656l3.11.34m-3.95 2.538l4.144.453m-4.984 2.427l5.184.567m-6.024 2.316l6.22.68m-7.06 2.2l7.254.792m-7.328-.535l7.348.804" stroke="#000" stroke-miterlimit="10" fill="none"/><path d="M107.38 144.086l1.14-10.414" stroke-width="1.2" stroke="#000" stroke-miterlimit="10" fill="none"/><path d="M108.52 133.672l1.136-10.41" stroke-width="1.2" stroke="#f00" stroke-miterlimit="10" fill="none"/><path d="M107.38 144.086m-2.915.71l.422.954m-3.336-.238l.845 1.906m-3.758-1.195l1.26 2.863m-4.174-2.15l1.683 3.818m-4.597-3.106l2.1 4.774m-5.015-4.06l2.523 5.728m-5.438-5.016l2.942 6.684m-3.203-6.617l2.98 6.766" stroke="#000" stroke-miterlimit="10" fill="none"/><path d="M109.656 123.262l9.586-4.22" stroke-width="1.2" stroke="#f00" stroke-miterlimit="10" fill="none"/><path d="M119.242 119.043l9.586-4.22" stroke-width="1.2" stroke="#000" stroke-miterlimit="10" fill="none"/><path d="M105.656 117.762h8v11h-8zm0 0" fill="#fff"/><use xlink:href="#b" x="105.656" y="126.425" fill="#f00"/><path d="M128.828 114.824l16.895 12.383M133.434 112.086l13.51 9.906M131.105 94l-2.277 20.824M145.723 127.207l19.172-8.44M164.895 118.766l2.277-20.82M160.223 116.148l1.82-16.656M167.172 97.945l-16.895-12.382M167.172 97.945l9.586-4.218" stroke-width="1.2" stroke="#000" stroke-miterlimit="10" fill="none"/><path d="M176.758 93.727l9.586-4.223" stroke-width="1.2" stroke="#f00" stroke-miterlimit="10" fill="none"/><path d="M150.277 85.563L131.105 94M150.344 90.914l-15.336 6.754" stroke-width="1.2" stroke="#000" stroke-miterlimit="10" fill="none"/><path d="M186.344 89.504l8.445 6.19" stroke-width="1.2" stroke="#f00" stroke-miterlimit="10" fill="none"/><path d="M194.79 95.695l8.444 6.192" stroke-width="1.2" stroke="#000" stroke-miterlimit="10" fill="none"/><path d="M182.344 84.004h8v11h-8zm0 0" fill="#fff"/><use xlink:href="#b" x="182.344" y="92.667" fill="#f00"/><path d="M88.21 152.523L71.317 140.14M83.605 155.262l-13.515-9.91M85.934 173.344l2.277-20.82M71.316 140.14l-19.17 8.438M52.145 148.578l-2.278 20.824M56.816 151.195l-1.824 16.66M52.145 148.578l-8.45-6.19" stroke-width="1.2" stroke="#000" stroke-miterlimit="10" fill="none"/><path d="M43.695 142.387l-8.445-6.192" stroke-width="1.2" stroke="#f00" stroke-miterlimit="10" fill="none"/><path d="M49.867 169.402l16.895 12.383M66.762 181.785l19.172-8.44M66.69 176.43l15.34-6.75" stroke-width="1.2" stroke="#000" stroke-miterlimit="10" fill="none"/><path d="M35.25 136.195l1.137-10.41" stroke-width="1.2" stroke="#f00" stroke-miterlimit="10" fill="none"/><path d="M36.387 125.785l1.14-10.41" stroke-width="1.2" stroke="#000" stroke-miterlimit="10" fill="none"/><path d="M31.25 130.695h8v11h-8zm0 0" fill="#fff"/><use xlink:href="#b" x="31.25" y="139.358" fill="#f00"/><path d="M114.996 171.79h15v11h-15zm0 0" fill="#fff"/><g fill="#f00"><use xlink:href="#c" x="114.996" y="180.452"/><use xlink:href="#b" x="122.011" y="180.452"/></g></g></svg>