<svg xmlns="http://www.w3.org/2000/svg" xmlns:xlink="http://www.w3.org/1999/xlink" width="300pt" height="300pt" viewBox="0 0 300 300"><defs><symbol overflow="visible"><path d="M.453 1.594v-7.938h4.5v7.938zm.5-.5h3.5v-6.938h-3.5zm0 0"/></symbol><symbol overflow="visible" id="a"><path d="M.89-6.563H2.08l2.906 5.485v-5.484h.86V0H4.656L1.75-5.484V0H.89zm0 0"/></symbol><symbol overflow="visible" id="b"><path d="M3.547-5.953c-.65 0-1.164.242-1.547.72-.375.48-.563 1.13-.563 1.952 0 .835.188 1.49.563 1.967.383.48.898.72 1.547.72.644 0 1.156-.24 1.53-.72.376-.476.564-1.132.564-1.968 0-.822-.187-1.474-.562-1.954-.375-.477-.887-.72-1.53-.72zm0-.734c.914 0 1.648.312 2.203.937.55.617.828 1.438.828 2.47 0 1.042-.277 1.87-.828 2.483-.555.617-1.29.922-2.203.922-.93 0-1.668-.305-2.22-.922C.774-1.41.5-2.237.5-3.28c0-1.033.273-1.853.828-2.47.55-.625 1.29-.938 2.22-.938zm0 0"/></symbol><symbol overflow="visible" id="c"><path d="M.89-6.563h.876v2.688H5v-2.688h.89V0H5v-3.125H1.766V0H.89zm0 0"/></symbol></defs><g><path fill="#fff" d="M0 0h300v300H0z"/><path d="M49.813 96.504l12.92 15.867M62.734 112.37l20.2-3.257M65.52 116.797l16.16-2.602M55.453 131.492l7.28-19.12M82.934 109.113l12.92 15.867M95.855 124.98l-7.28 19.125M99.625 128.61L93.8 143.905" stroke-width="1.2" stroke="#000" stroke-miterlimit="10" fill="none"/><path d="M116.06 121.727l-10.103 1.628" stroke-width="1.2" stroke="#00f" stroke-miterlimit="10" fill="none"/><path d="M105.957 123.355l-10.102 1.625M88.574 144.105l12.918 15.868M88.574 144.105l-10.1 1.63" stroke-width="1.2" stroke="#000" stroke-miterlimit="10" fill="none"/><path d="M78.473 145.734L68.37 147.36" stroke-width="1.2" stroke="#00f" stroke-miterlimit="10" fill="none"/><path d="M101.492 159.973l20.203-3.258M121.695 156.715l7.282-19.12M128.977 137.594l-6.46-7.934" stroke-width="1.2" stroke="#000" stroke-miterlimit="10" fill="none"/><path d="M122.516 129.66l-6.457-7.933M116.06 121.727l3.64-9.563" stroke-width="1.2" stroke="#00f" stroke-miterlimit="10" fill="none"/><path d="M119.7 112.164l3.64-9.562" stroke-width="1.2" stroke="#000" stroke-miterlimit="10" fill="none"/><path d="M113.06 116.227h7v11h-7zm0 0" fill="#fff"/><use xlink:href="#a" x="113.059" y="124.89" fill="#00f"/><path d="M143.54 99.348m-3-.043l.167 1.027m-3.168-1.074l.33 2.058m-3.33-2.1l.5 3.085m-3.497-3.132l.66 4.117m-3.66-4.16l.828 5.148m-3.827-5.195l.996 6.18m-3.778-6.22l1.152 7.13" stroke="#000" stroke-miterlimit="10" fill="none"/><path d="M143.54 99.348l7.28-19.12M143.54 99.348l6.46 7.933" stroke-width="1.2" stroke="#000" stroke-miterlimit="10" fill="none"/><path d="M150 107.28l6.46 7.935M156.46 115.215l10.102-1.63" stroke-width="1.2" stroke="#f00" stroke-miterlimit="10" fill="none"/><path d="M166.563 113.586l10.097-1.625" stroke-width="1.2" stroke="#00f" stroke-miterlimit="10" fill="none"/><path d="M152.46 109.715h8v11h-8zm0 0" fill="#fff"/><use xlink:href="#b" x="152.461" y="118.378" fill="#f00"/><path d="M176.66 111.96l6.46 7.935" stroke-width="1.2" stroke="#00f" stroke-miterlimit="10" fill="none"/><path d="M183.12 119.895l6.462 7.933" stroke-width="1.2" stroke="#000" stroke-miterlimit="10" fill="none"/><path d="M174.22 116.586l5.167 6.348" stroke-width="1.2" stroke="#00f" stroke-miterlimit="10" fill="none"/><path d="M179.387 122.934l5.168 6.347" stroke-width="1.2" stroke="#000" stroke-miterlimit="10" fill="none"/><path d="M173.66 106.46h7v11h-7zm0 0" fill="#fff"/><use xlink:href="#a" x="173.66" y="115.124" fill="#00f"/><path d="M189.582 127.828l-7.28 19.12M189.582 127.828l20.203-3.258M182.3 146.95l12.923 15.866" stroke-width="1.2" stroke="#000" stroke-miterlimit="10" fill="none"/><path d="M182.3 146.95l-20.777-.31 1.15 7.13zm0 0"/><path d="M195.223 162.816l10.097-1.63" stroke-width="1.2" stroke="#000" stroke-miterlimit="10" fill="none"/><path d="M205.32 161.188l10.102-1.625" stroke-width="1.2" stroke="#f00" stroke-miterlimit="10" fill="none"/><path d="M195.223 162.816l-10.657 17.84 6.746 2.57zm0 0"/><path d="M215.422 159.563l3.64-9.563" stroke-width="1.2" stroke="#f00" stroke-miterlimit="10" fill="none"/><path d="M219.063 150l3.64-9.563" stroke-width="1.2" stroke="#000" stroke-miterlimit="10" fill="none"/><path d="M211.422 154.063h8v11h-8zm0 0" fill="#fff"/><use xlink:href="#b" x="211.422" y="162.726" fill="#f00"/><path d="M222.703 140.438l-12.918-15.868M225.145 135.813l-10.336-12.696M242.906 137.184l-20.203 3.254M209.785 124.57l7.28-19.12M217.066 105.45l20.2-3.26M219.852 109.875l16.16-2.605M237.266 102.19l12.922 15.87M237.266 102.19l3.64-9.557" stroke-width="1.2" stroke="#000" stroke-miterlimit="10" fill="none"/><path d="M240.906 92.633l3.64-9.563" stroke-width="1.2" stroke="#f00" stroke-miterlimit="10" fill="none"/><path d="M250.188 118.06l-7.282 19.124M244.96 118.258l-5.827 15.3" stroke-width="1.2" stroke="#000" stroke-miterlimit="10" fill="none"/><path d="M244.547 83.07l10.1-1.63" stroke-width="1.2" stroke="#f00" stroke-miterlimit="10" fill="none"/><path d="M254.648 81.44l10.102-1.627" stroke-width="1.2" stroke="#000" stroke-miterlimit="10" fill="none"/><path d="M240.547 77.57h8v11h-8zm0 0" fill="#fff"/><use xlink:href="#b" x="240.547" y="86.233" fill="#f00"/><path d="M187.94 181.94l-20.202 3.255M186.688 187.02l-16.165 2.605M200.86 197.81l-12.92-15.87M167.738 185.195l-7.28 19.125M160.457 204.32l12.918 15.868M165.48 202.867l10.34 12.692M160.457 204.32l-10.102 1.625" stroke-width="1.2" stroke="#000" stroke-miterlimit="10" fill="none"/><path d="M150.355 205.945l-10.1 1.63" stroke-width="1.2" stroke="#f00" stroke-miterlimit="10" fill="none"/><path d="M173.375 220.188l20.203-3.258M193.578 216.93l7.28-19.12M189.81 213.305l5.823-15.297" stroke-width="1.2" stroke="#000" stroke-miterlimit="10" fill="none"/><path d="M140.254 207.574l-6.46-7.933" stroke-width="1.2" stroke="#f00" stroke-miterlimit="10" fill="none"/><path d="M133.793 199.64l-6.457-7.933" stroke-width="1.2" stroke="#000" stroke-miterlimit="10" fill="none"/><path d="M136.254 202.074h8v11h-8zm0 0" fill="#fff"/><use xlink:href="#b" x="136.254" y="210.737" fill="#f00"/><path d="M147.098 144.707h15v11h-15zm0 0" fill="#fff"/><g fill="#f00"><use xlink:href="#c" x="147.098" y="153.37"/><use xlink:href="#b" x="154.112" y="153.37"/></g><path d="M68.37 147.36l-6.46-7.934" stroke-width="1.2" stroke="#00f" stroke-miterlimit="10" fill="none"/><path d="M61.91 139.426l-6.457-7.934" stroke-width="1.2" stroke="#000" stroke-miterlimit="10" fill="none"/><path d="M70.813 142.734l-5.168-6.347" stroke-width="1.2" stroke="#00f" stroke-miterlimit="10" fill="none"/><path d="M65.645 136.387l-5.168-6.348" stroke-width="1.2" stroke="#000" stroke-miterlimit="10" fill="none"/><path d="M65.37 141.86h7v11h-7zm0 0" fill="#fff"/><use xlink:href="#a" x="65.371" y="150.522" fill="#00f"/><path d="M55.453 131.492L35.25 134.75" stroke-width="1.2" stroke="#000" stroke-miterlimit="10" fill="none"/></g></svg>