<svg xmlns="http://www.w3.org/2000/svg" xmlns:xlink="http://www.w3.org/1999/xlink" width="300pt" height="300pt" viewBox="0 0 300 300"><defs><symbol overflow="visible"><path d="M.64 2.297v-11.47h6.5v11.47zm.735-.72h5.047V-8.436H1.375zm0 0"/></symbol><symbol overflow="visible" id="a"><path d="M5.125-8.61c-.938 0-1.684.352-2.234 1.047-.542.688-.812 1.633-.812 2.83 0 1.198.27 2.147.813 2.842.55.687 1.297 1.03 2.235 1.03.926 0 1.66-.343 2.203-1.03.55-.696.828-1.645.828-2.844 0-1.196-.277-2.14-.828-2.829-.543-.695-1.277-1.046-2.203-1.046zm0-1.046c1.32 0 2.38.45 3.172 1.344.8.898 1.203 2.09 1.203 3.578 0 1.5-.402 2.7-1.203 3.593C7.504-.255 6.445.186 5.125.186c-1.336 0-2.402-.44-3.203-1.328C1.13-2.036.734-3.235.734-4.735c0-1.49.395-2.68 1.188-3.579.8-.894 1.867-1.343 3.203-1.343zm0 0"/></symbol><symbol overflow="visible" id="b"><path d="M1.28-9.484H3l4.203 7.937v-7.937h1.25V0H6.72L2.515-7.922V0H1.28zm0 0"/></symbol><symbol overflow="visible" id="c"><path d="M1.28-9.484h1.282v3.89H7.22v-3.89H8.5V0H7.22v-4.516H2.562V0H1.28zm0 0"/></symbol></defs><g><path fill="#fff" d="M0 0h300v300H0z"/><path d="M201.586 223.316l-13.324-32.004M188.262 191.313l-34.38-4.46M188.262 191.313l21.054-27.543M209.316 163.77l21.055-27.54M209.316 163.77l-27.543-21.05M209.316 163.77l13.77 10.527" stroke-width="1.2" stroke="#000" stroke-miterlimit="10" fill="none"/><path d="M223.086 174.297l13.773 10.527" stroke-width="1.2" stroke="#f00" stroke-miterlimit="10" fill="none"/><path d="M230.37 136.23l34.38 4.46M230.37 136.23l-6.663-16.003" stroke-width="1.2" stroke="#000" stroke-miterlimit="10" fill="none"/><path d="M223.707 120.227l-6.66-16.004M217.047 104.223l10.523-13.77" stroke-width="1.2" stroke="#f00" stroke-miterlimit="10" fill="none"/><path d="M227.57 90.453l10.528-13.77" stroke-width="1.2" stroke="#000" stroke-miterlimit="10" fill="none"/><path d="M212.047 96.223h11v16h-11zm0 0" fill="#fff"/><use xlink:href="#a" x="212.047" y="108.599" fill="#f00"/><path d="M185.82 143.242l2.23-17.19" stroke-width="1.2" stroke="#000" stroke-miterlimit="10" fill="none"/><path d="M188.05 126.05l2.23-17.187" stroke-width="1.2" stroke="#f00" stroke-miterlimit="10" fill="none"/><path d="M177.73 142.19l2.23-17.186" stroke-width="1.2" stroke="#000" stroke-miterlimit="10" fill="none"/><path d="M179.96 125.004l2.23-17.192" stroke-width="1.2" stroke="#f00" stroke-miterlimit="10" fill="none"/><path d="M181.773 142.72l-16 6.66" stroke-width="1.2" stroke="#000" stroke-miterlimit="10" fill="none"/><path d="M165.773 149.38l-16.003 6.663" stroke-width="1.2" stroke="#f00" stroke-miterlimit="10" fill="none"/><path d="M181.234 100.336h11v16h-11zm0 0" fill="#fff"/><use xlink:href="#a" x="181.234" y="112.712" fill="#f00"/><path d="M149.77 156.043l-13.774-10.527" stroke-width="1.2" stroke="#f00" stroke-miterlimit="10" fill="none"/><path d="M135.996 145.516l-13.77-10.528" stroke-width="1.2" stroke="#000" stroke-miterlimit="10" fill="none"/><path d="M144.77 148.043h11v16h-11zm0 0" fill="#fff"/><use xlink:href="#a" x="144.77" y="160.419" fill="#f00"/><path d="M122.227 134.988l.843-34.656M114.156 131.324l.676-27.726" stroke-width="1.2" stroke="#000" stroke-miterlimit="10" fill="none"/><path d="M89.004 144.895l34.973-4.043-3.5-11.727zm0 0"/><path d="M123.07 100.332l-32.7-11.516M90.37 88.816L79.845 102.59" stroke-width="1.2" stroke="#000" stroke-miterlimit="10" fill="none"/><path d="M79.844 102.59l-10.528 13.77M69.316 116.36l9.844 14.27" stroke-width="1.2" stroke="#00f" stroke-miterlimit="10" fill="none"/><path d="M79.16 130.63l9.844 14.265M36.094 126.27l16.613-4.957" stroke-width="1.2" stroke="#000" stroke-miterlimit="10" fill="none"/><path d="M52.707 121.313l16.61-4.954" stroke-width="1.2" stroke="#00f" stroke-miterlimit="10" fill="none"/><path d="M64.316 108.36h10v16h-10zm0 0" fill="#fff"/><use xlink:href="#b" x="64.316" y="120.735" fill="#00f"/><path d="M89.004 144.895L67.95 172.437M67.95 172.438l-32.7-11.512" stroke-width="1.2" stroke="#000" stroke-miterlimit="10" fill="none"/><path d="M67.95 172.438l4.046 34.972 11.723-3.5zm0 0"/><path d="M35.25 160.926l.844-34.656" stroke-width="1.2" stroke="#000" stroke-miterlimit="10" fill="none"/><path d="M67.86 197.66h21v16h-21zm0 0" fill="#fff"/><g fill="#f00"><use xlink:href="#a" x="67.859" y="210.036"/><use xlink:href="#c" x="78.35" y="210.036"/></g><path d="M226.86 176.824h21v16h-21zm0 0" fill="#fff"/><g fill="#f00"><use xlink:href="#a" x="226.859" y="189.2"/><use xlink:href="#c" x="237.35" y="189.2"/></g></g></svg>