<svg xmlns="http://www.w3.org/2000/svg" xmlns:xlink="http://www.w3.org/1999/xlink" width="300pt" height="300pt" viewBox="0 0 300 300"><defs><symbol overflow="visible"><path d="M.453 1.594v-7.938h4.5v7.938zm.5-.5h3.5v-6.938h-3.5zm0 0"/></symbol><symbol overflow="visible" id="a"><path d="M3.547-5.953c-.65 0-1.164.242-1.547.72-.375.48-.563 1.13-.563 1.952 0 .835.188 1.49.563 1.967.383.48.898.72 1.547.72.644 0 1.156-.24 1.53-.72.376-.476.564-1.132.564-1.968 0-.822-.187-1.474-.562-1.954-.375-.477-.887-.72-1.53-.72zm0-.734c.914 0 1.648.312 2.203.937.55.617.828 1.438.828 2.47 0 1.042-.277 1.87-.828 2.483-.555.617-1.29.922-2.203.922-.93 0-1.668-.305-2.22-.922C.774-1.41.5-2.237.5-3.28c0-1.033.273-1.853.828-2.47.55-.625 1.29-.938 2.22-.938zm0 0"/></symbol><symbol overflow="visible" id="b"><path d="M.89-6.563h.876v2.688H5v-2.688h.89V0H5v-3.125H1.766V0H.89zm0 0"/></symbol></defs><g><path fill="#fff" d="M0 0h300v300H0z"/><path d="M107.746 164.672l9.484 22.664 7.184-4.617zm0 0"/><path d="M107.746 164.672l-11.09 21.504M94.668 144.32l13.078 20.352M131.91 163.523l-24.164 1.15M96.656 186.176l-24.164 1.148M72.492 187.324l-13.078-20.35M59.414 166.973l11.09-21.504M59.414 166.973l-12.082.574" stroke-width="1.2" stroke="#000" stroke-miterlimit="10" fill="none"/><path d="M47.332 167.547l-12.082.574" stroke-width="1.2" stroke="#f00" stroke-miterlimit="10" fill="none"/><path d="M70.504 145.47l24.164-1.15M70.504 145.47l3.062-23.997M70.504 145.47l-23.102-7.185M94.668 144.32l11.086-21.504M105.754 122.816l24.168-1.148M105.754 122.816l-6.54-10.175" stroke-width="1.2" stroke="#000" stroke-miterlimit="10" fill="none"/><path d="M99.215 112.64l-6.535-10.175" stroke-width="1.2" stroke="#f00" stroke-miterlimit="10" fill="none"/><path d="M129.922 121.668L143 142.023M143 142.023l-11.09 21.5" stroke-width="1.2" stroke="#000" stroke-miterlimit="10" fill="none"/><path d="M143 142.023m1.734-2.45l-1.464-.538m3.2-1.906l-2.927-1.083m4.66-1.367l-4.387-1.62m6.12-.826l-5.846-2.16m7.582-.29l-7.31-2.698m8.142 1.527l-8.008-2.96" stroke="#000" stroke-miterlimit="10" fill="none"/><path d="M167.164 140.875L143 142.023M131.91 163.523l13.078 20.356M144.988 183.88l24.164-1.15M169.152 182.73l11.09-21.503M165.203 177.97l8.87-17.2M180.242 161.227l-13.078-20.352M204.406 160.078l-24.164 1.15M167.164 140.875l11.086-21.504" stroke-width="1.2" stroke="#000" stroke-miterlimit="10" fill="none"/><path d="M167.164 140.875l-3.043-16.152-7.69 3.703zm0 0"/><path d="M178.25 119.37l24.168-1.147M202.418 118.223l13.074 20.35M215.492 138.574l-11.086 21.504M215.492 138.574l11.09-21.5M239.66 137.426l-24.168 1.148M204.406 160.078l13.078 20.352M217.484 180.43l24.164-1.15M241.648 179.28l11.09-21.5M241.648 179.28l23.102 7.19M241.648 179.28l-3.062 24M252.738 157.78l-13.078-20.354M228.977 115.535l-6.54-10.176" stroke-width="1.2" stroke="#000" stroke-miterlimit="10" fill="none"/><path d="M222.438 105.36l-6.54-10.176" stroke-width="1.2" stroke="#f00" stroke-miterlimit="10" fill="none"/><path d="M224.188 118.613l-6.54-10.18" stroke-width="1.2" stroke="#000" stroke-miterlimit="10" fill="none"/><path d="M217.648 108.434l-6.54-10.176" stroke-width="1.2" stroke="#f00" stroke-miterlimit="10" fill="none"/><path d="M226.582 117.074l12.082-.574" stroke-width="1.2" stroke="#000" stroke-miterlimit="10" fill="none"/><path d="M238.664 116.5l12.082-.574" stroke-width="1.2" stroke="#f00" stroke-miterlimit="10" fill="none"/><path d="M205.504 91.22h8v11h-8zm0 0" fill="#fff"/><use xlink:href="#a" x="205.504" y="99.882" fill="#f00"/><path d="M243.746 110.426h15v11h-15zm0 0" fill="#fff"/><g fill="#f00"><use xlink:href="#a" x="243.746" y="119.089"/><use xlink:href="#b" x="251.088" y="119.089"/></g><path d="M77.68 96.965h15v11h-15zm0 0" fill="#fff"/><g fill="#f00"><use xlink:href="#b" x="77.68" y="105.628"/><use xlink:href="#a" x="84.694" y="105.628"/></g><path d="M20.25 162.62h15v11h-15zm0 0" fill="#fff"/><g fill="#f00"><use xlink:href="#b" x="20.25" y="171.284"/><use xlink:href="#a" x="27.265" y="171.284"/></g></g></svg>