<svg xmlns="http://www.w3.org/2000/svg" xmlns:xlink="http://www.w3.org/1999/xlink" width="300pt" height="300pt" viewBox="0 0 300 300"><defs><symbol overflow="visible"><path d="M.453 1.594v-7.938h4.5v7.938zm.5-.5h3.5v-6.938h-3.5zm0 0"/></symbol><symbol overflow="visible" id="a"><path d="M3.547-5.953c-.65 0-1.164.242-1.547.72-.375.48-.563 1.13-.563 1.952 0 .835.188 1.49.563 1.967.383.48.898.72 1.547.72.644 0 1.156-.24 1.53-.72.376-.476.564-1.132.564-1.968 0-.822-.187-1.474-.562-1.954-.375-.477-.887-.72-1.53-.72zm0-.734c.914 0 1.648.312 2.203.937.55.617.828 1.438.828 2.47 0 1.042-.277 1.87-.828 2.483-.555.617-1.29.922-2.203.922-.93 0-1.668-.305-2.22-.922C.774-1.41.5-2.237.5-3.28c0-1.033.273-1.853.828-2.47.55-.625 1.29-.938 2.22-.938zm0 0"/></symbol><symbol overflow="visible" id="b"><path d="M.89-6.563h.876v2.688H5v-2.688h.89V0H5v-3.125H1.766V0H.89zm0 0"/></symbol></defs><g><path fill="#fff" d="M0 0h300v300H0z"/><path d="M35.25 147.965l16.266 12.367M51.516 160.332l18.843-7.906M70.36 152.426l16.265 12.367M86.625 164.793l18.844-7.906M105.47 156.887l18.843-7.903M109.215 160.53l15.074-6.323M105.492 151.664l15.074-6.324M124.313 148.984l18.84-7.906M143.152 141.078l2.578-20.27" stroke-width="1.2" stroke="#000" stroke-miterlimit="10" fill="none"/><path d="M159.422 153.445l-8.133-6.183" stroke-width="1.2" stroke="#f00" stroke-miterlimit="10" fill="none"/><path d="M151.29 147.262l-8.138-6.184M145.73 120.81l18.84-7.908M149.473 124.45l15.074-6.32M164.57 112.902l16.27 12.368M180.84 125.27l-2.574 20.27M180.84 125.27l9.422-3.954" stroke-width="1.2" stroke="#000" stroke-miterlimit="10" fill="none"/><path d="M190.262 121.316l9.422-3.953" stroke-width="1.2" stroke="#f00" stroke-miterlimit="10" fill="none"/><path d="M178.266 145.54l-9.422 3.952" stroke-width="1.2" stroke="#000" stroke-miterlimit="10" fill="none"/><path d="M168.844 149.492l-9.422 3.953" stroke-width="1.2" stroke="#f00" stroke-miterlimit="10" fill="none"/><path d="M178.266 145.54l16.265 12.366" stroke-width="1.2" stroke="#000" stroke-miterlimit="10" fill="none"/><path d="M155.422 147.945h8v11h-8zm0 0" fill="#fff"/><use xlink:href="#a" x="155.422" y="156.608" fill="#f00"/><path d="M194.53 157.906l-1.288 10.133" stroke-width="1.2" stroke="#000" stroke-miterlimit="10" fill="none"/><path d="M193.242 168.04l-1.285 10.136" stroke-width="1.2" stroke="#f00" stroke-miterlimit="10" fill="none"/><path d="M184.957 172.676h15v11h-15zm0 0" fill="#fff"/><g fill="#f00"><use xlink:href="#b" x="184.957" y="181.339"/><use xlink:href="#a" x="191.972" y="181.339"/></g><path d="M199.684 117.363l8.132 6.184" stroke-width="1.2" stroke="#f00" stroke-miterlimit="10" fill="none"/><path d="M207.816 123.547l8.133 6.183" stroke-width="1.2" stroke="#000" stroke-miterlimit="10" fill="none"/><path d="M195.684 111.863h8v11h-8zm0 0" fill="#fff"/><use xlink:href="#a" x="195.684" y="120.526" fill="#f00"/><path d="M215.95 129.73L213.374 150M220.46 132.363l-2.058 16.215M234.793 121.824l-18.844 7.906M213.375 150l16.266 12.367M229.64 162.367l18.844-7.906M229.664 157.14l15.074-6.324M248.484 154.46l2.575-20.27M248.484 154.46l8.133 6.185" stroke-width="1.2" stroke="#000" stroke-miterlimit="10" fill="none"/><path d="M256.617 160.645l8.133 6.183" stroke-width="1.2" stroke="#f00" stroke-miterlimit="10" fill="none"/><path d="M251.06 134.19l-16.267-12.366M246.523 136.78l-13.015-9.89" stroke-width="1.2" stroke="#000" stroke-miterlimit="10" fill="none"/><path d="M264.75 166.828l-1.29 10.133" stroke-width="1.2" stroke="#f00" stroke-miterlimit="10" fill="none"/><path d="M263.46 176.96l-1.284 10.138" stroke-width="1.2" stroke="#000" stroke-miterlimit="10" fill="none"/><path d="M260.75 161.328h8v11h-8zm0 0" fill="#fff"/><use xlink:href="#a" x="260.75" y="169.991" fill="#f00"/></g></svg>