<svg xmlns="http://www.w3.org/2000/svg" xmlns:xlink="http://www.w3.org/1999/xlink" width="300pt" height="300pt" viewBox="0 0 300 300"><defs><symbol overflow="visible"><path d="M.594 2.125V-8.47h6V2.126zm.672-.672h4.671V-7.78h-4.67zm0 0"/></symbol><symbol overflow="visible" id="a"><path d="M4.734-7.953c-.867 0-1.554.324-2.062.97-.5.635-.75 1.51-.75 2.624 0 1.094.25 1.965.75 2.61.508.637 1.195.953 2.062.953.852 0 1.532-.316 2.032-.953.507-.645.765-1.516.765-2.61 0-1.113-.257-1.988-.764-2.624-.5-.645-1.18-.97-2.032-.97zm0-.953c1.22 0 2.192.414 2.922 1.234.74.824 1.11 1.93 1.11 3.313 0 1.376-.37 2.477-1.11 3.298C6.926-.24 5.953.17 4.734.17c-1.23 0-2.214-.41-2.953-1.234C1.04-1.882.673-2.984.673-4.36c0-1.382.367-2.488 1.11-3.312.738-.82 1.722-1.234 2.952-1.234zm0 0"/></symbol></defs><g><path fill="#fff" d="M0 0h300v300H0z"/><path d="M171.398 161.79m-2.375 1.835l.774.703m-3.145 1.137l1.547 1.402m-3.92.434l2.318 2.102m-4.688-.26l3.09 2.8m-5.46-.965l3.858 3.503m-6.23-1.667l4.633 4.207m-7.003-2.368l5.406 4.903m-7.777-3.067l6.176 5.606m-8.547-3.766l6.95 6.305m-9.32-4.47l7.717 7.01m-9.562-5.58l8.32 7.552" stroke="#000" stroke-miterlimit="10" fill="none"/><path d="M171.398 161.79l9.72 30.32M192.793 138.21l-21.395 23.58M140.277 155.047l31.12 6.742M181.117 192.11l31.117 6.738M212.234 198.848l21.4-23.578M232.84 178.93l15.558 3.37" stroke-width="1.2" stroke="#000" stroke-miterlimit="10" fill="none"/><path d="M248.398 182.3l15.56 3.372" stroke-width="1.2" stroke="#f00" stroke-miterlimit="10" fill="none"/><path d="M234.426 171.61l15.558 3.37" stroke-width="1.2" stroke="#000" stroke-miterlimit="10" fill="none"/><path d="M249.984 174.98l15.56 3.372" stroke-width="1.2" stroke="#f00" stroke-miterlimit="10" fill="none"/><path d="M233.633 175.27l-9.723-30.317" stroke-width="1.2" stroke="#000" stroke-miterlimit="10" fill="none"/><path d="M259.75 175.012h10v14h-10zm0 0" fill="#fff"/><use xlink:href="#a" x="259.75" y="186.15" fill="#f00"/><path d="M192.793 138.21m2.777 1.138l.22-1.02m2.558 2.152l.44-2.04m2.337 3.177l.66-3.058m2.117 4.19l.883-4.074m1.895 5.21l1.1-5.097m1.677 6.23l1.324-6.114m1.45 7.25l1.547-7.133m1.23 8.266l1.766-8.153m1.012 9.29l1.988-9.173m.79 10.31l2.207-10.193m-.047 11.07l2.38-10.98" stroke="#000" stroke-miterlimit="10" fill="none"/><path d="M192.793 138.21l-9.723-30.32M183.07 107.89l-31.117-6.738M151.953 101.152L130.56 124.73M130.56 124.73l9.717 30.317M124.395 130.047l7.777 24.258M99.44 117.988l31.12 6.742M140.277 155.047l-21.394 23.578M118.883 178.625l-31.117-6.738M117.355 170.633l-24.894-5.395M87.766 171.887l-9.723-30.32M87.766 171.887l-10.7 11.79" stroke-width="1.2" stroke="#000" stroke-miterlimit="10" fill="none"/><path d="M77.066 183.676l-10.7 11.79" stroke-width="1.2" stroke="#f00" stroke-miterlimit="10" fill="none"/><path d="M78.043 141.566l21.398-23.578M85.73 144.242l17.118-18.86" stroke-width="1.2" stroke="#000" stroke-miterlimit="10" fill="none"/><path d="M66.367 195.465l-15.558-3.37" stroke-width="1.2" stroke="#f00" stroke-miterlimit="10" fill="none"/><path d="M50.81 192.094l-15.56-3.37" stroke-width="1.2" stroke="#000" stroke-miterlimit="10" fill="none"/><path d="M61.367 188.465h10v14h-10zm0 0" fill="#fff"/><use xlink:href="#a" x="61.367" y="199.604" fill="#f00"/></g></svg>