<svg xmlns="http://www.w3.org/2000/svg" xmlns:xlink="http://www.w3.org/1999/xlink" width="300pt" height="300pt" viewBox="0 0 300 300"><defs><symbol overflow="visible"><path d="M.547 1.938V-7.75h5.5v9.688zm.625-.61h4.266v-8.47H1.171zm0 0"/></symbol><symbol overflow="visible" id="a"><path d="M4.328-7.28c-.78 0-1.406.296-1.875.89-.46.585-.687 1.382-.687 2.39 0 1.012.226 1.813.687 2.406.47.586 1.094.875 1.875.875.79 0 1.414-.288 1.875-.874.457-.593.688-1.394.688-2.406 0-1.008-.23-1.805-.687-2.39-.46-.594-1.086-.89-1.875-.89zm0-.892c1.125 0 2.024.383 2.703 1.14C7.708-6.28 8.048-5.27 8.048-4c0 1.262-.34 2.273-1.016 3.03C6.353-.22 5.454.157 4.33.157S2.3-.22 1.625-.97c-.668-.75-1-1.757-1-3.03 0-1.27.332-2.28 1-3.03.676-.76 1.578-1.142 2.703-1.142zm0 0"/></symbol><symbol overflow="visible" id="b"><path d="M1.078-8.016h4.61v.907H2.171v2.36h3.172v.922H2.172V0H1.078zm0 0"/></symbol></defs><g><path fill="#fff" d="M0 0h300v300H0z"/><path d="M35.25 169.973l10.332 7.886" stroke-width="1.2" stroke="#000" stroke-miterlimit="10" fill="none"/><path d="M45.582 177.86l10.332 7.886M43.863 145.445l-4.308 12.266" stroke-width="1.2" stroke="#f00" stroke-miterlimit="10" fill="none"/><path d="M39.555 157.71l-4.305 12.263" stroke-width="1.2" stroke="#000" stroke-miterlimit="10" fill="none"/><path d="M55.914 185.746l10.695-7.39" stroke-width="1.2" stroke="#f00" stroke-miterlimit="10" fill="none"/><path d="M66.61 178.355l10.69-7.39" stroke-width="1.2" stroke="#000" stroke-miterlimit="10" fill="none"/><path d="M51.914 179.246h9v13h-9zm0 0" fill="#fff"/><use xlink:href="#a" x="51.914" y="189.147" fill="#f00"/><path d="M77.3 170.965l-7.448-24.906M82.414 166.723l-5.957-19.926M102.594 176.97L77.3 170.964M69.852 146.06l-12.993-.306" stroke-width="1.2" stroke="#000" stroke-miterlimit="10" fill="none"/><path d="M56.86 145.754l-12.997-.31" stroke-width="1.2" stroke="#f00" stroke-miterlimit="10" fill="none"/><path d="M69.852 146.06l17.843-18.904" stroke-width="1.2" stroke="#000" stroke-miterlimit="10" fill="none"/><path d="M39.863 138.945h9v13h-9zm0 0" fill="#fff"/><use xlink:href="#a" x="39.863" y="148.847" fill="#f00"/><path d="M87.695 127.156l25.293 6M88.813 133.707l20.234 4.8M112.988 133.156l7.45 24.906M112.988 133.156l17.848-18.902M120.438 158.063l-17.844 18.906M114.207 155.754L99.93 170.88M130.836 114.254l25.293 6.004M131.953 120.805l20.234 4.804M156.13 120.258l7.448 24.906M161.352 143.063l-8.922 9.453" stroke-width="1.2" stroke="#000" stroke-miterlimit="10" fill="none"/><path d="M152.43 152.516l-8.922 9.45" stroke-width="1.2" stroke="#f00" stroke-miterlimit="10" fill="none"/><path d="M165.8 147.262l-8.92 9.453" stroke-width="1.2" stroke="#000" stroke-miterlimit="10" fill="none"/><path d="M156.88 156.715l-8.923 9.45" stroke-width="1.2" stroke="#f00" stroke-miterlimit="10" fill="none"/><path d="M163.578 145.164l25.293 6" stroke-width="1.2" stroke="#000" stroke-miterlimit="10" fill="none"/><path d="M136.73 157.566h9v13h-9zm0 0" fill="#fff"/><use xlink:href="#a" x="136.73" y="167.468" fill="#f00"/><path d="M188.87 151.164l7.45 24.906M195.477 151.902l5.957 19.926M206.715 132.262l-17.844 18.902M196.32 176.07l25.293 6.004M221.613 182.074l17.844-18.906M218.95 175.984l14.273-15.125M239.457 163.168l-7.45-24.906M239.457 163.168l12.645 3.004" stroke-width="1.2" stroke="#000" stroke-miterlimit="10" fill="none"/><path d="M252.102 166.172l12.648 3" stroke-width="1.2" stroke="#3cc" stroke-miterlimit="10" fill="none"/><path d="M232.008 138.262l-25.293-6M228.066 143.613l-20.234-4.8" stroke-width="1.2" stroke="#000" stroke-miterlimit="10" fill="none"/><path d="M261.75 162.672h7v13h-7zm0 0" fill="#fff"/><use xlink:href="#b" x="261.75" y="172.573" fill="#3cc"/></g></svg>