<svg xmlns="http://www.w3.org/2000/svg" xmlns:xlink="http://www.w3.org/1999/xlink" width="300pt" height="300pt" viewBox="0 0 300 300"><defs><symbol overflow="visible"><path d="M.547 1.938V-7.75h5.5v9.688zm.625-.61h4.266v-8.47H1.171zm0 0"/></symbol><symbol overflow="visible" id="a"><path d="M4.328-7.28c-.78 0-1.406.296-1.875.89-.46.585-.687 1.382-.687 2.39 0 1.012.226 1.813.687 2.406.47.586 1.094.875 1.875.875.79 0 1.414-.288 1.875-.874.457-.593.688-1.394.688-2.406 0-1.008-.23-1.805-.687-2.39-.46-.594-1.086-.89-1.875-.89zm0-.892c1.125 0 2.024.383 2.703 1.14C7.708-6.28 8.048-5.27 8.048-4c0 1.262-.34 2.273-1.016 3.03C6.353-.22 5.454.157 4.33.157S2.3-.22 1.625-.97c-.668-.75-1-1.757-1-3.03 0-1.27.332-2.28 1-3.03.676-.76 1.578-1.142 2.703-1.142zm0 0"/></symbol><symbol overflow="visible" id="b"><path d="M1.078-8.016h1.094v3.282H6.11v-3.282h1.077V0H6.11v-3.813H2.17V0H1.078zm0 0"/></symbol></defs><g><path fill="#fff" d="M0 0h300v300H0z"/><path d="M112.836 157.12m-2.18 2.06l.836.62m-3.02 1.438l1.676 1.246m-3.855.817l2.512 1.864m-4.692.195l3.344 2.488m-5.527-.43l4.183 3.11m-6.363-1.05l5.02 3.733m-7.204-1.675l5.86 4.36m-8.04-2.297l6.692 4.976m-8.875-2.918l7.53 5.602m-7.585-5.547l7.55 5.614" stroke="#000" stroke-miterlimit="10" fill="none"/><path d="M112.836 157.12l10.574 24.482M128.75 135.723l-15.914 21.398M86.352 154.04l26.484 3.08M123.41 181.602l26.488 3.082M149.898 184.684l15.915-21.4M165.813 163.285l25.73 6.996M155.238 138.805l10.575 24.48M191.543 170.28l2.89 26.51" stroke-width="1.2" stroke="#000" stroke-miterlimit="10" fill="none"/><path d="M191.543 170.28l-23.332 13.743 6.114 7.157zm0 0"/><path d="M213.06 154.523l-21.517 15.758M194.434 196.79l24.402 10.753M199.402 192.125l19.524 8.602M218.836 207.543l21.512-15.758M240.348 191.785l-2.887-26.508M240.348 191.785l12.203 5.38" stroke-width="1.2" stroke="#000" stroke-miterlimit="10" fill="none"/><path d="M252.55 197.164l12.2 5.375" stroke-width="1.2" stroke="#f00" stroke-miterlimit="10" fill="none"/><path d="M237.46 165.277l-24.4-10.754M237.46 165.277l6.352-25.898M237.46 165.277l26.606 1.758M213.06 154.523l1.092-26.64M214.152 127.883l-20.148-17.47M197.03 111.238l3.497-12.867" stroke-width="1.2" stroke="#000" stroke-miterlimit="10" fill="none"/><path d="M200.527 98.37l3.5-12.866" stroke-width="1.2" stroke="#f00" stroke-miterlimit="10" fill="none"/><path d="M190.977 109.59l3.496-12.867" stroke-width="1.2" stroke="#000" stroke-miterlimit="10" fill="none"/><path d="M194.473 96.723l3.5-12.864" stroke-width="1.2" stroke="#f00" stroke-miterlimit="10" fill="none"/><path d="M194.004 110.414l-13.11 2.43" stroke-width="1.2" stroke="#000" stroke-miterlimit="10" fill="none"/><path d="M180.895 112.844l-13.11 2.43" stroke-width="1.2" stroke="#f00" stroke-miterlimit="10" fill="none"/><path d="M197 78.18h9v13h-9zm0 0" fill="#fff"/><use xlink:href="#a" x="197" y="88.081" fill="#f00"/><path d="M167.785 115.273l-6.273 11.766" stroke-width="1.2" stroke="#f00" stroke-miterlimit="10" fill="none"/><path d="M161.512 127.04l-6.274 11.765" stroke-width="1.2" stroke="#000" stroke-miterlimit="10" fill="none"/><path d="M163.785 108.773h9v13h-9zm0 0" fill="#fff"/><use xlink:href="#a" x="163.785" y="118.675" fill="#f00"/><path d="M155.238 138.805l-26.488-3.082" stroke-width="1.2" stroke="#000" stroke-miterlimit="10" fill="none"/><path d="M155.238 138.805L147.03 113l-8.335 4.367zm0 0"/><path d="M128.75 135.723l-10.574-24.48M121.934 135.762l-8.46-19.582M118.176 111.242l-26.49-3.082M94.57 106.918l-5.29-12.242" stroke-width="1.2" stroke="#000" stroke-miterlimit="10" fill="none"/><path d="M89.28 94.676l-5.284-12.24" stroke-width="1.2" stroke="#f00" stroke-miterlimit="10" fill="none"/><path d="M88.81 109.406l-5.287-12.242" stroke-width="1.2" stroke="#000" stroke-miterlimit="10" fill="none"/><path d="M83.523 97.164l-5.29-12.238" stroke-width="1.2" stroke="#f00" stroke-miterlimit="10" fill="none"/><path d="M91.688 108.16l-7.958 10.7" stroke-width="1.2" stroke="#000" stroke-miterlimit="10" fill="none"/><path d="M83.73 118.86l-7.953 10.7" stroke-width="1.2" stroke="#f00" stroke-miterlimit="10" fill="none"/><path d="M72.113 77.18h9v13h-9zm0 0" fill="#fff"/><use xlink:href="#a" x="72.113" y="87.081" fill="#f00"/><path d="M75.777 129.56l5.285 12.237" stroke-width="1.2" stroke="#f00" stroke-miterlimit="10" fill="none"/><path d="M81.063 141.797l5.29 12.242" stroke-width="1.2" stroke="#000" stroke-miterlimit="10" fill="none"/><path d="M71.777 123.06h9v13h-9zm0 0" fill="#fff"/><use xlink:href="#a" x="71.777" y="132.96" fill="#f00"/><path d="M86.352 154.04l-15.915 21.394M70.438 175.434l7.957 25.453M65.242 179.852l6.367 20.363M43.773 175.137l26.664.297M78.395 200.887l-10.875 7.715" stroke-width="1.2" stroke="#000" stroke-miterlimit="10" fill="none"/><path d="M67.52 208.602l-10.872 7.718M56.648 216.32l-10.7-7.957" stroke-width="1.2" stroke="#f00" stroke-miterlimit="10" fill="none"/><path d="M45.95 208.363l-10.7-7.957" stroke-width="1.2" stroke="#000" stroke-miterlimit="10" fill="none"/><path d="M52.648 209.82h9v13h-9zm0 0" fill="#fff"/><use xlink:href="#a" x="52.648" y="219.722" fill="#f00"/><path d="M35.25 200.406l8.523-25.27M42.047 199.883l6.82-20.21" stroke-width="1.2" stroke="#000" stroke-miterlimit="10" fill="none"/><path d="M256.75 196.04h17v13h-17zm0 0" fill="#fff"/><g fill="#f00"><use xlink:href="#a" x="256.75" y="205.94"/><use xlink:href="#b" x="265.15" y="205.94"/></g></g></svg>