<svg xmlns="http://www.w3.org/2000/svg" xmlns:xlink="http://www.w3.org/1999/xlink" width="300pt" height="300pt" viewBox="0 0 300 300"><defs><symbol overflow="visible"><path d="M.547 1.938V-7.75h5.5v9.688zm.625-.61h4.266v-8.47H1.171zm0 0"/></symbol><symbol overflow="visible" id="a"><path d="M4.328-7.28c-.78 0-1.406.296-1.875.89-.46.585-.687 1.382-.687 2.39 0 1.012.226 1.813.687 2.406.47.586 1.094.875 1.875.875.79 0 1.414-.288 1.875-.874.457-.593.688-1.394.688-2.406 0-1.008-.23-1.805-.687-2.39-.46-.594-1.086-.89-1.875-.89zm0-.892c1.125 0 2.024.383 2.703 1.14C7.708-6.28 8.048-5.27 8.048-4c0 1.262-.34 2.273-1.016 3.03C6.353-.22 5.454.157 4.33.157S2.3-.22 1.625-.97c-.668-.75-1-1.757-1-3.03 0-1.27.332-2.28 1-3.03.676-.76 1.578-1.142 2.703-1.142zm0 0"/></symbol><symbol overflow="visible" id="b"><path d="M1.078-8.016h1.094v3.282H6.11v-3.282h1.077V0H6.11v-3.813H2.17V0H1.078zm0 0"/></symbol><symbol overflow="visible"><path d="M.453 1.594v-7.938h4.5v7.938zm.5-.5h3.5v-6.938h-3.5zm0 0"/></symbol><symbol overflow="visible" id="c"><path d="M.438-2.828h2.374v.72H.438zm0 0"/></symbol></defs><g><path fill="#fff" d="M0 0h300v300H0z"/><path d="M86.465 141.852l-6.645-10.946" stroke-width="1.2" stroke="#f00" stroke-miterlimit="10" fill="none"/><path d="M79.82 130.906l-6.644-10.95M112.074 141.293l-12.804.28" stroke-width="1.2" stroke="#000" stroke-miterlimit="10" fill="none"/><path d="M99.27 141.574l-12.805.278" stroke-width="1.2" stroke="#f00" stroke-miterlimit="10" fill="none"/><path d="M82.465 135.352h9v13h-9zm0 0" fill="#fff"/><use xlink:href="#a" x="82.465" y="145.253" fill="#f00"/><path d="M73.176 119.957l-25.606.56M73.176 119.957L85.496 97.5M47.57 120.516l-6.16 11.23" stroke-width="1.2" stroke="#000" stroke-miterlimit="10" fill="none"/><path d="M41.41 131.746l-6.16 11.227" stroke-width="1.2" stroke="#f00" stroke-miterlimit="10" fill="none"/><path d="M18.25 136.473h17v13h-17zm0 0" fill="#fff"/><g fill="#f00"><use xlink:href="#b" x="18.25" y="146.374"/><use xlink:href="#a" x="26.274" y="146.374"/></g><path d="M85.496 97.5l-6.644-10.95" stroke-width="1.2" stroke="#000" stroke-miterlimit="10" fill="none"/><path d="M78.852 86.55l-6.645-10.948" stroke-width="1.2" stroke="#f00" stroke-miterlimit="10" fill="none"/><path d="M85.496 97.5l25.606-.563" stroke-width="1.2" stroke="#000" stroke-miterlimit="10" fill="none"/><path d="M55.207 69.102h17v13h-17zm0 0" fill="#fff"/><g fill="#f00"><use xlink:href="#b" x="55.207" y="79.003"/><use xlink:href="#a" x="63.231" y="79.003"/></g><path d="M111.102 96.938l6.16-11.227" stroke-width="1.2" stroke="#000" stroke-miterlimit="10" fill="none"/><path d="M117.262 85.71l6.16-11.23" stroke-width="1.2" stroke="#f00" stroke-miterlimit="10" fill="none"/><path d="M111.102 96.938l13.29 21.898" stroke-width="1.2" stroke="#000" stroke-miterlimit="10" fill="none"/><path d="M115.422 67.98h17v13h-17zm0 0" fill="#fff"/><g fill="#f00"><use xlink:href="#a" x="115.422" y="77.882"/><use xlink:href="#b" x="123.822" y="77.882"/></g><path d="M124.39 118.836l12.805-.28" stroke-width="1.2" stroke="#000" stroke-miterlimit="10" fill="none"/><path d="M137.195 118.555l12.805-.282" stroke-width="1.2" stroke="#f00" stroke-miterlimit="10" fill="none"/><path d="M124.39 118.836l-12.316 22.457" stroke-width="1.2" stroke="#000" stroke-miterlimit="10" fill="none"/><path d="M150 118.273l6.645 10.95" stroke-width="1.2" stroke="#f00" stroke-miterlimit="10" fill="none"/><path d="M156.645 129.223l6.644 10.95" stroke-width="1.2" stroke="#000" stroke-miterlimit="10" fill="none"/><path d="M146 111.773h9v13h-9zm0 0" fill="#fff"/><use xlink:href="#a" x="146" y="121.675" fill="#f00"/><path d="M163.29 140.172l25.608-.56M165.98 146.14l20.49-.45M150.97 162.63l12.32-22.458M188.898 139.613l6.645 10.946" stroke-width="1.2" stroke="#000" stroke-miterlimit="10" fill="none"/><path d="M195.543 150.56l6.644 10.948" stroke-width="1.2" stroke="#f00" stroke-miterlimit="10" fill="none"/><path d="M188.898 139.613l12.317-22.457" stroke-width="1.2" stroke="#000" stroke-miterlimit="10" fill="none"/><path d="M202.188 161.508l-6.16 11.23" stroke-width="1.2" stroke="#f00" stroke-miterlimit="10" fill="none"/><path d="M196.027 172.738l-6.16 11.227" stroke-width="1.2" stroke="#000" stroke-miterlimit="10" fill="none"/><path d="M198.188 155.008h9v13h-9zm0 0" fill="#fff"/><use xlink:href="#a" x="198.188" y="164.909" fill="#f00"/><path d="M189.867 183.965l-25.61.562M189.867 183.965l13.29 21.898M186.043 189.28l10.633 17.52M164.258 184.527l-13.29-21.898M168.082 179.21l-10.63-17.52M164.258 184.527l-12.317 22.457M150.97 162.63l-8.314 1.206" stroke-width="1.2" stroke="#000" stroke-miterlimit="10" fill="none"/><path d="M142.656 163.836l-8.316 1.207" stroke-width="1.2" stroke="#f00" stroke-miterlimit="10" fill="none"/><path d="M122.34 157.043h12v16h-12zm0 0" fill="#fff"/><use xlink:href="#c" x="122.34" y="165.293" fill="#f00"/><use xlink:href="#a" x="125.548" y="170.176" fill="#f00"/><path d="M151.875 203.973l-12.805.277" stroke-width="1.2" stroke="#000" stroke-miterlimit="10" fill="none"/><path d="M139.07 204.25l-12.804.28" stroke-width="1.2" stroke="#f00" stroke-miterlimit="10" fill="none"/><path d="M152.008 209.996l-12.805.28" stroke-width="1.2" stroke="#000" stroke-miterlimit="10" fill="none"/><path d="M139.203 210.277l-12.805.278" stroke-width="1.2" stroke="#f00" stroke-miterlimit="10" fill="none"/><path d="M151.94 206.984l13.29 21.895" stroke-width="1.2" stroke="#000" stroke-miterlimit="10" fill="none"/><path d="M117.332 201.043h9v13h-9zm0 0" fill="#fff"/><use xlink:href="#a" x="117.332" y="210.944" fill="#f00"/><path d="M165.23 228.88l25.61-.56M167.66 222.8l20.485-.448M190.84 228.32l6.644 10.95" stroke-width="1.2" stroke="#000" stroke-miterlimit="10" fill="none"/><path d="M197.484 239.27l6.645 10.95" stroke-width="1.2" stroke="#f00" stroke-miterlimit="10" fill="none"/><path d="M190.84 228.32l12.316-22.457" stroke-width="1.2" stroke="#000" stroke-miterlimit="10" fill="none"/><path d="M198.13 242.22h12v16h-12zm0 0" fill="#fff"/><use xlink:href="#a" x="198.129" y="255.352" fill="#f00"/><use xlink:href="#c" x="206.529" y="250.469" fill="#f00"/><path d="M201.215 117.156l25.61-.562M203.645 111.074l20.488-.45M187.926 95.258l13.29 21.898M226.824 116.594l12.317-22.457M239.14 94.137l12.805-.282" stroke-width="1.2" stroke="#000" stroke-miterlimit="10" fill="none"/><path d="M251.945 93.855l12.805-.277" stroke-width="1.2" stroke="#f00" stroke-miterlimit="10" fill="none"/><path d="M239.14 94.137l-13.288-21.895M232.66 95.074L222.03 77.56" stroke-width="1.2" stroke="#000" stroke-miterlimit="10" fill="none"/><path d="M256.75 87.078h17v13h-17zm0 0" fill="#fff"/><g fill="#f00"><use xlink:href="#a" x="256.75" y="96.979"/><use xlink:href="#b" x="265.15" y="96.979"/></g><path d="M225.852 72.242l6.16-11.23" stroke-width="1.2" stroke="#000" stroke-miterlimit="10" fill="none"/><path d="M232.012 61.012l6.16-11.23" stroke-width="1.2" stroke="#f00" stroke-miterlimit="10" fill="none"/><path d="M225.852 72.242l-25.606.56" stroke-width="1.2" stroke="#000" stroke-miterlimit="10" fill="none"/><path d="M230.172 43.28h17v13h-17zm0 0" fill="#fff"/><g fill="#f00"><use xlink:href="#a" x="230.172" y="53.183"/><use xlink:href="#b" x="238.572" y="53.183"/></g><path d="M200.246 72.8l-12.32 22.458M204.297 77.945L194.44 95.91M112.074 141.293l3.45 7.66" stroke-width="1.2" stroke="#000" stroke-miterlimit="10" fill="none"/><path d="M115.523 148.953l3.454 7.66" stroke-width="1.2" stroke="#f00" stroke-miterlimit="10" fill="none"/><path d="M110.977 150.113h17v13h-17zm0 0" fill="#fff"/><g fill="#f00"><use xlink:href="#a" x="110.977" y="160.015"/><use xlink:href="#b" x="119.377" y="160.015"/></g></g></svg>