<svg xmlns="http://www.w3.org/2000/svg" xmlns:xlink="http://www.w3.org/1999/xlink" width="300pt" height="300pt" viewBox="0 0 300 300"><defs><symbol overflow="visible"><path d="M.594 2.125V-8.47h6V2.126zm.672-.672h4.671V-7.78h-4.67zm0 0"/></symbol><symbol overflow="visible" id="a"><path d="M4.734-7.953c-.867 0-1.554.324-2.062.97-.5.635-.75 1.51-.75 2.624 0 1.094.25 1.965.75 2.61.508.637 1.195.953 2.062.953.852 0 1.532-.316 2.032-.953.507-.645.765-1.516.765-2.61 0-1.113-.257-1.988-.764-2.624-.5-.645-1.18-.97-2.032-.97zm0-.953c1.22 0 2.192.414 2.922 1.234.74.824 1.11 1.93 1.11 3.313 0 1.376-.37 2.477-1.11 3.298C6.926-.24 5.953.17 4.734.17c-1.23 0-2.214-.41-2.953-1.234C1.04-1.882.673-2.984.673-4.36c0-1.382.367-2.488 1.11-3.312.738-.82 1.722-1.234 2.952-1.234zm0 0"/></symbol><symbol overflow="visible" id="b"><path d="M1.172-8.75H2.36v3.594h4.296V-8.75h1.188V0H6.656v-4.172H2.36V0H1.17zm0 0"/></symbol></defs><g><path fill="#fff" d="M0 0h300v300H0z"/><path d="M172.707 137.066l15.238.172" stroke-width="1.2" stroke="#f00" stroke-miterlimit="10" fill="none"/><path d="M187.945 137.238l15.243.176M157.164 163.285l7.774-13.11" stroke-width="1.2" stroke="#000" stroke-miterlimit="10" fill="none"/><path d="M164.938 150.176l7.77-13.11" stroke-width="1.2" stroke="#f00" stroke-miterlimit="10" fill="none"/><path d="M167.707 130.066h10v14h-10zm0 0" fill="#fff"/><use xlink:href="#a" x="167.707" y="141.205" fill="#f00"/><path d="M203.188 137.414l14.933 26.57M210.93 136.56l11.95 21.252M218.73 111.195l-15.542 26.22M218.12 163.984l-15.542 26.223M218.12 163.984l30.482.352M199.453 191.965l7.47 13.285" stroke-width="1.2" stroke="#000" stroke-miterlimit="10" fill="none"/><path d="M206.922 205.25l7.47 13.285" stroke-width="1.2" stroke="#f00" stroke-miterlimit="10" fill="none"/><path d="M205.707 188.45l7.465 13.284" stroke-width="1.2" stroke="#000" stroke-miterlimit="10" fill="none"/><path d="M213.172 201.734l7.47 13.286" stroke-width="1.2" stroke="#f00" stroke-miterlimit="10" fill="none"/><path d="M202.578 190.207l-30.476-.352" stroke-width="1.2" stroke="#000" stroke-miterlimit="10" fill="none"/><path d="M212.516 209.777h10v14h-10zm0 0" fill="#fff"/><use xlink:href="#a" x="212.516" y="220.916" fill="#f00"/><path d="M172.102 189.855l-7.774 13.11" stroke-width="1.2" stroke="#000" stroke-miterlimit="10" fill="none"/><path d="M164.328 202.965l-7.77 13.11" stroke-width="1.2" stroke="#f00" stroke-miterlimit="10" fill="none"/><path d="M172.102 189.855l-14.938-26.57M176.86 183.684l-11.95-21.254" stroke-width="1.2" stroke="#000" stroke-miterlimit="10" fill="none"/><path d="M137.56 209.074h19v14h-19zm0 0" fill="#fff"/><g fill="#f00"><use xlink:href="#b" x="137.559" y="220.213"/><use xlink:href="#a" x="146.582" y="220.213"/></g><path d="M157.164 163.285l-30.476-.35M126.688 162.934l-14.938-26.57M118.94 163.793l-11.948-21.258M111.145 189.156l15.543-26.222M111.75 136.363l-30.48-.347M81.27 136.016l-7.465-13.286" stroke-width="1.2" stroke="#000" stroke-miterlimit="10" fill="none"/><path d="M73.805 122.73l-7.47-13.285" stroke-width="1.2" stroke="#f00" stroke-miterlimit="10" fill="none"/><path d="M81.27 136.016l-15.54 26.218M85.887 142.293L73.453 163.27" stroke-width="1.2" stroke="#000" stroke-miterlimit="10" fill="none"/><path d="M66.336 109.445l7.77-13.113" stroke-width="1.2" stroke="#f00" stroke-miterlimit="10" fill="none"/><path d="M74.105 96.332l7.774-13.11" stroke-width="1.2" stroke="#000" stroke-miterlimit="10" fill="none"/><path d="M61.336 102.445h10v14h-10zm0 0" fill="#fff"/><use xlink:href="#a" x="61.336" y="113.584" fill="#f00"/><path d="M65.73 162.234l-15.242-.175" stroke-width="1.2" stroke="#000" stroke-miterlimit="10" fill="none"/><path d="M50.488 162.06l-15.238-.177" stroke-width="1.2" stroke="#f00" stroke-miterlimit="10" fill="none"/><path d="M65.73 162.234l14.934 26.57" stroke-width="1.2" stroke="#000" stroke-miterlimit="10" fill="none"/><path d="M16.25 154.883h19v14h-19zm0 0" fill="#fff"/><g fill="#f00"><use xlink:href="#b" x="16.25" y="166.021"/><use xlink:href="#a" x="25.273" y="166.021"/></g><path d="M80.664 188.805l30.48.35M83.797 181.668l24.383.28M248.602 164.336l7.468 13.285" stroke-width="1.2" stroke="#000" stroke-miterlimit="10" fill="none"/><path d="M256.07 177.62l7.465 13.286" stroke-width="1.2" stroke="#f00" stroke-miterlimit="10" fill="none"/><path d="M248.602 164.336l15.543-26.22M243.984 158.06l12.434-20.978" stroke-width="1.2" stroke="#000" stroke-miterlimit="10" fill="none"/><path d="M254.535 183.906h19v14h-19zm0 0" fill="#fff"/><g fill="#f00"><use xlink:href="#a" x="254.535" y="195.045"/><use xlink:href="#b" x="263.98" y="195.045"/></g><path d="M264.145 138.117l-14.938-26.57M249.207 111.547l7.773-13.113" stroke-width="1.2" stroke="#000" stroke-miterlimit="10" fill="none"/><path d="M256.98 98.434l7.77-13.11" stroke-width="1.2" stroke="#f00" stroke-miterlimit="10" fill="none"/><path d="M249.207 111.547l-30.477-.352M246.078 118.684l-24.383-.282" stroke-width="1.2" stroke="#000" stroke-miterlimit="10" fill="none"/><path d="M255.75 78.324h19v14h-19zm0 0" fill="#fff"/><g fill="#f00"><use xlink:href="#a" x="255.75" y="89.463"/><use xlink:href="#b" x="265.195" y="89.463"/></g></g></svg>