<svg xmlns="http://www.w3.org/2000/svg" xmlns:xlink="http://www.w3.org/1999/xlink" width="300pt" height="300pt" viewBox="0 0 300 300"><defs><symbol overflow="visible"><path d="M.547 1.938V-7.75h5.5v9.688zm.625-.61h4.266v-8.47H1.171zm0 0"/></symbol><symbol overflow="visible" id="a"><path d="M4.328-7.28c-.78 0-1.406.296-1.875.89-.46.585-.687 1.382-.687 2.39 0 1.012.226 1.813.687 2.406.47.586 1.094.875 1.875.875.79 0 1.414-.288 1.875-.874.457-.593.688-1.394.688-2.406 0-1.008-.23-1.805-.687-2.39-.46-.594-1.086-.89-1.875-.89zm0-.892c1.125 0 2.024.383 2.703 1.14C7.708-6.28 8.048-5.27 8.048-4c0 1.262-.34 2.273-1.016 3.03C6.353-.22 5.454.157 4.33.157S2.3-.22 1.625-.97c-.668-.75-1-1.757-1-3.03 0-1.27.332-2.28 1-3.03.676-.76 1.578-1.142 2.703-1.142zm0 0"/></symbol><symbol overflow="visible" id="b"><path d="M1.078-8.016h1.094v3.282H6.11v-3.282h1.077V0H6.11v-3.813H2.17V0H1.078zm0 0"/></symbol></defs><g><path fill="#fff" d="M0 0h300v300H0z"/><path d="M158.422 144.285l-10.21-8.328" stroke-width="1.2" stroke="#f00" stroke-miterlimit="10" fill="none"/><path d="M148.21 135.957l-10.214-8.324M183.055 134.926l-12.317 4.68" stroke-width="1.2" stroke="#000" stroke-miterlimit="10" fill="none"/><path d="M170.738 139.605l-12.316 4.68" stroke-width="1.2" stroke="#f00" stroke-miterlimit="10" fill="none"/><path d="M154.422 137.785h9v13h-9zm0 0" fill="#fff"/><use xlink:href="#a" x="154.422" y="147.687" fill="#f00"/><path d="M137.996 127.633l4.21-26.016M132.297 124.04l3.367-20.81M113.363 136.992l24.633-9.36M142.207 101.617l24.637-9.36M142.207 101.617l-20.422-16.652M169.902 92.754l2.106-13.008" stroke-width="1.2" stroke="#000" stroke-miterlimit="10" fill="none"/><path d="M172.008 79.746l2.105-13.008" stroke-width="1.2" stroke="#f00" stroke-miterlimit="10" fill="none"/><path d="M163.78 91.762l2.107-13.008" stroke-width="1.2" stroke="#000" stroke-miterlimit="10" fill="none"/><path d="M165.887 78.754l2.105-13.008" stroke-width="1.2" stroke="#f00" stroke-miterlimit="10" fill="none"/><path d="M166.844 92.258l20.422 16.652" stroke-width="1.2" stroke="#000" stroke-miterlimit="10" fill="none"/><path d="M167.05 59.742h9v13h-9zm0 0" fill="#fff"/><use xlink:href="#a" x="167.051" y="69.644" fill="#f00"/><path d="M187.266 108.91l-4.21 26.016M180.723 110.52l-3.368 20.812M183.055 134.926l20.425 16.652M203.48 151.578l-4.21 26.016M209.18 155.172l-3.37 20.808M228.113 142.22l-24.633 9.358M199.27 177.594l20.42 16.652M219.69 194.246l-2.104 13.008" stroke-width="1.2" stroke="#000" stroke-miterlimit="10" fill="none"/><path d="M217.586 207.254l-2.106 13.008" stroke-width="1.2" stroke="#f00" stroke-miterlimit="10" fill="none"/><path d="M219.69 194.246l24.638-9.36M219.953 187.516l19.707-7.493" stroke-width="1.2" stroke="#000" stroke-miterlimit="10" fill="none"/><path d="M207.48 213.762h17v13h-17zm0 0" fill="#fff"/><g fill="#f00"><use xlink:href="#b" x="207.48" y="223.663"/><use xlink:href="#a" x="215.505" y="223.663"/></g><path d="M244.328 184.887l10.21 8.324" stroke-width="1.2" stroke="#000" stroke-miterlimit="10" fill="none"/><path d="M254.54 193.21l10.21 8.33" stroke-width="1.2" stroke="#f00" stroke-miterlimit="10" fill="none"/><path d="M244.328 184.887l4.207-26.016" stroke-width="1.2" stroke="#000" stroke-miterlimit="10" fill="none"/><path d="M256.75 195.04h17v13h-17zm0 0" fill="#fff"/><g fill="#f00"><use xlink:href="#a" x="256.75" y="204.94"/><use xlink:href="#b" x="265.15" y="204.94"/></g><path d="M248.535 158.87l-20.422-16.65M242.574 162.012l-16.336-13.325M121.785 84.965l2.106-13.008" stroke-width="1.2" stroke="#000" stroke-miterlimit="10" fill="none"/><path d="M123.89 71.957l2.106-13.008" stroke-width="1.2" stroke="#f00" stroke-miterlimit="10" fill="none"/><path d="M121.785 84.965l-24.637 9.36M121.523 91.695l-19.707 7.49" stroke-width="1.2" stroke="#000" stroke-miterlimit="10" fill="none"/><path d="M117.996 52.45h17v13h-17zm0 0" fill="#fff"/><g fill="#f00"><use xlink:href="#a" x="117.996" y="62.351"/><use xlink:href="#b" x="126.396" y="62.351"/></g><path d="M97.148 94.324l-4.21 26.016M92.938 120.34l-12.317 4.68" stroke-width="1.2" stroke="#000" stroke-miterlimit="10" fill="none"/><path d="M80.62 125.02l-12.315 4.68" stroke-width="1.2" stroke="#f00" stroke-miterlimit="10" fill="none"/><path d="M92.938 120.34l20.425 16.652M98.898 117.2l16.34 13.323" stroke-width="1.2" stroke="#000" stroke-miterlimit="10" fill="none"/><path d="M51.305 123.2h17v13h-17zm0 0" fill="#fff"/><g fill="#f00"><use xlink:href="#b" x="51.305" y="133.101"/><use xlink:href="#a" x="59.329" y="133.101"/></g><path d="M109.152 163.008l8.8-25.274-9.18-1.484zm0 0"/><path d="M109.152 163.008l-12.316 4.68" stroke-width="1.2" stroke="#000" stroke-miterlimit="10" fill="none"/><path d="M96.836 167.688l-12.316 4.68" stroke-width="1.2" stroke="#f00" stroke-miterlimit="10" fill="none"/><path d="M129.578 179.66l-20.426-16.652" stroke-width="1.2" stroke="#000" stroke-miterlimit="10" fill="none"/><path d="M84.52 172.367l-2.106 13.008" stroke-width="1.2" stroke="#f00" stroke-miterlimit="10" fill="none"/><path d="M82.414 185.375l-2.105 13.008" stroke-width="1.2" stroke="#000" stroke-miterlimit="10" fill="none"/><path d="M80.52 165.867h9v13h-9zm0 0" fill="#fff"/><use xlink:href="#a" x="80.52" y="175.769" fill="#f00"/><path d="M80.31 198.383l-26.287 5.012 3.3 8.695zm0 0"/><path d="M80.31 198.383l20.42 16.652M55.672 207.742l-10.21-8.328" stroke-width="1.2" stroke="#000" stroke-miterlimit="10" fill="none"/><path d="M45.46 199.414l-10.21-8.324" stroke-width="1.2" stroke="#f00" stroke-miterlimit="10" fill="none"/><path d="M18.25 184.59h17v13h-17zm0 0" fill="#fff"/><g fill="#f00"><use xlink:href="#b" x="18.25" y="194.491"/><use xlink:href="#a" x="26.274" y="194.491"/></g><path d="M100.73 215.035m-.984 2.832l1.027.168m-2.015 2.668l2.058.332m-3.043 2.5l3.086.5m-4.075 2.332l4.117.668m-5.105 2.164l5.148.835m-6.132 2l6.175 1m-7.164 1.832l7.207 1.168m-8.19 1.664l8.234 1.33m-9.144 1.28l9.183 1.483" stroke="#000" stroke-miterlimit="10" fill="none"/><path d="M100.73 215.035l24.637-9.36" stroke-width="1.2" stroke="#000" stroke-miterlimit="10" fill="none"/><path d="M88.52 234.55h17v13h-17zm0 0" fill="#fff"/><g fill="#f00"><use xlink:href="#b" x="88.52" y="244.452"/><use xlink:href="#a" x="96.544" y="244.452"/></g><path d="M125.367 205.676l17.485 20.258 5.875-7.21zm0 0"/><path d="M125.367 205.676l4.21-26.016" stroke-width="1.2" stroke="#000" stroke-miterlimit="10" fill="none"/><path d="M137.79 215.828h17v13h-17zm0 0" fill="#fff"/><g fill="#f00"><use xlink:href="#a" x="137.789" y="225.729"/><use xlink:href="#b" x="146.189" y="225.729"/></g><path d="M129.578 179.66m2.945-.562l-.37-.973m3.316.41l-.74-1.95m3.688 1.388l-1.113-2.922m4.058 2.364l-1.48-3.902m4.43 3.34l-1.856-4.875m4.8 4.312l-2.222-5.85m5.168 5.287l-2.59-6.825m5.54 6.262l-2.965-7.797m5.675 7.28l-3.304-8.694" stroke="#000" stroke-miterlimit="10" fill="none"/><path d="M146.21 163.8h17v13h-17zm0 0" fill="#fff"/><g fill="#f00"><use xlink:href="#a" x="146.211" y="173.702"/><use xlink:href="#b" x="154.611" y="173.702"/></g></g></svg>