<svg xmlns="http://www.w3.org/2000/svg" xmlns:xlink="http://www.w3.org/1999/xlink" width="300pt" height="300pt" viewBox="0 0 300 300"><defs><symbol overflow="visible"><path d="M.453 1.594v-7.938h4.5v7.938zm.5-.5h3.5v-6.938h-3.5zm0 0"/></symbol><symbol overflow="visible" id="a"><path d="M1.766-3.14v2.406h1.421c.477 0 .833-.098 1.063-.297.227-.197.344-.5.344-.907 0-.407-.117-.708-.344-.907-.23-.195-.586-.297-1.063-.297zm0-2.688v1.97h1.312c.438 0 .758-.08.97-.236.218-.164.327-.414.327-.75 0-.332-.11-.578-.328-.734-.21-.164-.53-.25-.97-.25zM.89-6.562h2.266c.676 0 1.196.14 1.563.42.362.283.546.685.546 1.205 0 .398-.094.714-.282.953-.187.242-.464.39-.828.453.438.092.774.292 1.016.592.238.293.36.657.36 1.094 0 .594-.2 1.055-.595 1.375-.398.314-.964.47-1.703.47H.89zm0 0"/></symbol><symbol overflow="visible" id="b"><path d="M3.703-4.172c-.094-.05-.195-.086-.297-.11-.105-.02-.226-.03-.36-.03-.46 0-.812.152-1.062.453-.242.294-.36.715-.36 1.266V0H.813v-4.922h.813v.766c.176-.3.398-.524.672-.672.27-.145.598-.22.984-.22.064 0 .126.01.19.017.07.01.147.022.233.03zm0 0"/></symbol><symbol overflow="visible" id="c"><path d="M.89-6.563H2.08l2.906 5.485v-5.484h.86V0H4.656L1.75-5.484V0H.89zm0 0"/></symbol><symbol overflow="visible" id="d"><path d="M.89-6.563h.876v2.688H5v-2.688h.89V0H5v-3.125H1.766V0H.89zm0 0"/></symbol><symbol overflow="visible" id="e"><path d="M3.547-5.953c-.65 0-1.164.242-1.547.72-.375.48-.563 1.13-.563 1.952 0 .835.188 1.49.563 1.967.383.48.898.72 1.547.72.644 0 1.156-.24 1.53-.72.376-.476.564-1.132.564-1.968 0-.822-.187-1.474-.562-1.954-.375-.477-.887-.72-1.53-.72zm0-.734c.914 0 1.648.312 2.203.937.55.617.828 1.438.828 2.47 0 1.042-.277 1.87-.828 2.483-.555.617-1.29.922-2.203.922-.93 0-1.668-.305-2.22-.922C.774-1.41.5-2.237.5-3.28c0-1.033.273-1.853.828-2.47.55-.625 1.29-.938 2.22-.938zm0 0"/></symbol><symbol overflow="visible" id="f"><path d="M4.813-6.344v.86c-.336-.157-.653-.27-.954-.344-.294-.082-.58-.125-.86-.125-.492 0-.867.094-1.125.28-.262.19-.39.454-.39.798 0 .293.085.512.265.656.176.15.504.267.984.36l.547.11c.658.125 1.142.352 1.454.672.32.312.485.734.485 1.265 0 .637-.216 1.122-.642 1.454-.43.325-1.055.485-1.875.485-.312 0-.648-.04-1-.11C1.36-.046 1-.147.625-.296v-.906c.352.2.703.35 1.047.453.35.105.695.156 1.03.156.5 0 .884-.097 1.157-.297.28-.196.42-.485.42-.86 0-.32-.1-.57-.296-.75-.2-.176-.523-.313-.968-.406l-.547-.11C1.81-3.148 1.33-3.36 1.03-3.64.74-3.923.595-4.313.595-4.813c0-.57.203-1.024.61-1.36.405-.344.968-.516 1.687-.516.313 0 .626.032.938.094.32.055.65.137.985.25zm0 0"/></symbol></defs><g><path fill="#fff" d="M0 0h300v300H0z"/><path d="M43.602 129.488l10.808-5.047" stroke-width="1.2" stroke="#7f4d1a" stroke-miterlimit="10" fill="none"/><path d="M54.41 124.44l10.81-5.045" stroke-width="1.2" stroke="#000" stroke-miterlimit="10" fill="none"/><path d="M32.602 123.988h11v11h-11zm0 0" fill="#fff"/><g fill="#7f4d1a"><use xlink:href="#a" x="32.602" y="132.651"/><use xlink:href="#b" x="39.001" y="132.651"/></g><path d="M65.22 119.395l2.07-23.77M71.02 117.504l1.652-19.016M84.77 133.07l-19.55-13.675M67.29 95.625l10.808-5.047" stroke-width="1.2" stroke="#000" stroke-miterlimit="10" fill="none"/><path d="M78.098 90.578l10.808-5.047M88.906 85.53l9.774 6.837" stroke-width="1.2" stroke="#00f" stroke-miterlimit="10" fill="none"/><path d="M98.68 92.367l9.777 6.84" stroke-width="1.2" stroke="#000" stroke-miterlimit="10" fill="none"/><path d="M87.645 91.5l7.82 5.47" stroke-width="1.2" stroke="#00f" stroke-miterlimit="10" fill="none"/><path d="M95.465 96.97l7.82 5.468" stroke-width="1.2" stroke="#000" stroke-miterlimit="10" fill="none"/><path d="M85.906 80.03h7v11h-7zm0 0" fill="#fff"/><use xlink:href="#c" x="85.906" y="88.694" fill="#00f"/><path d="M108.457 99.207l-1.035 11.883" stroke-width="1.2" stroke="#000" stroke-miterlimit="10" fill="none"/><path d="M107.422 111.09l-1.03 11.883" stroke-width="1.2" stroke="#00f" stroke-miterlimit="10" fill="none"/><path d="M108.457 99.207l10.81-5.047" stroke-width="1.2" stroke="#000" stroke-miterlimit="10" fill="none"/><path d="M119.266 94.16l10.808-5.047M106.39 122.973l-10.812 5.05" stroke-width="1.2" stroke="#00f" stroke-miterlimit="10" fill="none"/><path d="M95.578 128.023L84.77 133.07" stroke-width="1.2" stroke="#000" stroke-miterlimit="10" fill="none"/><path d="M101.852 118.898l-8.65 4.036" stroke-width="1.2" stroke="#00f" stroke-miterlimit="10" fill="none"/><path d="M93.203 122.934l-8.644 4.04" stroke-width="1.2" stroke="#000" stroke-miterlimit="10" fill="none"/><path d="M103.39 117.473h7v11h-7zm0 0" fill="#fff"/><use xlink:href="#c" x="103.391" y="126.136" fill="#00f"/><path d="M84.77 133.07l-1.032 11.883" stroke-width="1.2" stroke="#000" stroke-miterlimit="10" fill="none"/><path d="M83.738 144.953l-1.035 11.883" stroke-width="1.2" stroke="#00f" stroke-miterlimit="10" fill="none"/><path d="M61.086 166.93l23.398-6.278-3.562-7.63zm0 0"/><path d="M75.703 151.336h14v11h-14zm0 0" fill="#fff"/><g fill="#00f"><use xlink:href="#c" x="75.703" y="159.999"/><use xlink:href="#d" x="82.681" y="159.999"/></g><path d="M61.086 166.93L59.02 190.7M61.086 166.93l-19.55-13.672M59.02 190.7l-1.036 11.886" stroke-width="1.2" stroke="#000" stroke-miterlimit="10" fill="none"/><path d="M57.984 202.586l-1.03 11.883" stroke-width="1.2" stroke="#f00" stroke-miterlimit="10" fill="none"/><path d="M59.02 190.7l-23.77-2.067M59.02 190.7l23.77 2.066" stroke-width="1.2" stroke="#000" stroke-miterlimit="10" fill="none"/><path d="M49.953 208.97h15v11h-15zm0 0" fill="#fff"/><g fill="#f00"><use xlink:href="#d" x="49.953" y="217.632"/><use xlink:href="#e" x="56.968" y="217.632"/></g><path d="M130.074 89.113l9.774 6.836" stroke-width="1.2" stroke="#00f" stroke-miterlimit="10" fill="none"/><path d="M139.848 95.95l9.777 6.835" stroke-width="1.2" stroke="#000" stroke-miterlimit="10" fill="none"/><path d="M123.074 83.613h14v11h-14zm0 0" fill="#fff"/><g fill="#00f"><use xlink:href="#c" x="123.074" y="92.276"/><use xlink:href="#d" x="130.052" y="92.276"/></g><path d="M149.625 102.785l-2.066 23.77M155.012 105.648l-1.657 19.016M171.242 92.69l-21.617 10.095M147.56 126.555l19.55 13.675M167.11 140.23l21.617-10.093M166.895 134.133l17.292-8.074M188.727 130.137l9.773 6.836" stroke-width="1.2" stroke="#000" stroke-miterlimit="10" fill="none"/><path d="M198.5 136.973l9.777 6.836" stroke-width="1.2" stroke="#cc0" stroke-miterlimit="10" fill="none"/><path d="M188.727 130.137l2.066-23.77" stroke-width="1.2" stroke="#000" stroke-miterlimit="10" fill="none"/><path d="M205.977 142.203l-6.836 9.774" stroke-width="1.2" stroke="#cc0" stroke-miterlimit="10" fill="none"/><path d="M199.14 151.977l-6.84 9.773" stroke-width="1.2" stroke="#f00" stroke-miterlimit="10" fill="none"/><path d="M210.578 145.418l-6.84 9.777" stroke-width="1.2" stroke="#cc0" stroke-miterlimit="10" fill="none"/><path d="M203.738 155.195l-6.836 9.774" stroke-width="1.2" stroke="#f00" stroke-miterlimit="10" fill="none"/><path d="M210.578 145.418l6.836-9.773" stroke-width="1.2" stroke="#cc0" stroke-miterlimit="10" fill="none"/><path d="M217.414 135.645l6.836-9.778" stroke-width="1.2" stroke="#00f" stroke-miterlimit="10" fill="none"/><path d="M205.977 142.203l6.835-9.777" stroke-width="1.2" stroke="#cc0" stroke-miterlimit="10" fill="none"/><path d="M212.813 132.426l6.84-9.774" stroke-width="1.2" stroke="#00f" stroke-miterlimit="10" fill="none"/><path d="M208.277 143.81l9.774 6.838" stroke-width="1.2" stroke="#cc0" stroke-miterlimit="10" fill="none"/><path d="M218.05 150.648l9.778 6.836" stroke-width="1.2" stroke="#000" stroke-miterlimit="10" fill="none"/><path d="M205.277 138.31h6v11h-6zm0 0" fill="#fff"/><use xlink:href="#f" x="205.277" y="146.972" fill="#cc0"/><path d="M186.602 157.86h8v11h-8zm0 0" fill="#fff"/><use xlink:href="#e" x="186.602" y="166.522" fill="#f00"/><path d="M214.95 118.758h14v11h-14zm0 0" fill="#fff"/><g fill="#00f"><use xlink:href="#c" x="214.949" y="127.421"/><use xlink:href="#d" x="221.927" y="127.421"/></g><path d="M227.828 157.484l22.555-7.777M228.258 181.34l-.43-23.856M250.383 149.707l14.367 19.047M264.75 168.754l-13.676 19.55M251.074 188.305l-22.816-6.965M190.793 106.367l-19.55-13.676M185.62 109.598L169.98 98.66" stroke-width="1.2" stroke="#000" stroke-miterlimit="10" fill="none"/></g></svg>