<svg xmlns="http://www.w3.org/2000/svg" xmlns:xlink="http://www.w3.org/1999/xlink" width="300pt" height="300pt" viewBox="0 0 300 300"><defs><symbol overflow="visible"><path d="M.594 2.125V-8.47h6V2.126zm.672-.672h4.671V-7.78h-4.67zm0 0"/></symbol><symbol overflow="visible" id="a"><path d="M1.172-8.75H2.36v3.594h4.296V-8.75h1.188V0H6.656v-4.172H2.36V0H1.17zm0 0"/></symbol><symbol overflow="visible" id="b"><path d="M4.734-7.953c-.867 0-1.554.324-2.062.97-.5.635-.75 1.51-.75 2.624 0 1.094.25 1.965.75 2.61.508.637 1.195.953 2.062.953.852 0 1.532-.316 2.032-.953.507-.645.765-1.516.765-2.61 0-1.113-.257-1.988-.764-2.624-.5-.645-1.18-.97-2.032-.97zm0-.953c1.22 0 2.192.414 2.922 1.234.74.824 1.11 1.93 1.11 3.313 0 1.376-.37 2.477-1.11 3.298C6.926-.24 5.953.17 4.734.17c-1.23 0-2.214-.41-2.953-1.234C1.04-1.882.673-2.984.673-4.36c0-1.382.367-2.488 1.11-3.312.738-.82 1.722-1.234 2.952-1.234zm0 0"/></symbol><symbol overflow="visible" id="c"><path d="M1.172-8.75h1.594l3.89 7.313V-8.75h1.14V0H6.204L2.328-7.313V0H1.172zm0 0"/></symbol></defs><g><path fill="#fff" d="M0 0h300v300H0z"/><path d="M222.762 216.94l17.925-24.06M240.688 192.88l17.92-24.067M240.688 192.88l24.062 17.925M240.688 192.88l-24.067-17.927M216.62 174.953l3.493-29.8M220.113 145.152l3.492-29.804M220.113 145.152l29.8 3.49M220.113 145.152l-29.804-3.492M190.31 141.66l-17.923 24.063M182.855 139.848l-14.34 19.254M178.434 114.105l11.875 27.555M172.387 165.723l-29.805-3.49M142.582 162.234l-11.88-27.558M147.88 156.684l-9.505-22.047M142.582 162.234l-17.926 24.063M130.703 134.676l17.926-24.063M130.703 134.676l-14.898-1.746" stroke-width="1.2" stroke="#000" stroke-miterlimit="10" fill="none"/><path d="M115.805 132.93l-14.903-1.743" stroke-width="1.2" stroke="#f00" stroke-miterlimit="10" fill="none"/><path d="M148.63 110.613l29.804 3.492M150.79 117.973l23.84 2.793M148.63 110.613l-5.94-13.777" stroke-width="1.2" stroke="#000" stroke-miterlimit="10" fill="none"/><path d="M142.69 96.836l-5.936-13.777" stroke-width="1.2" stroke="#f00" stroke-miterlimit="10" fill="none"/><path d="M117.754 76.06h19v14h-19zm0 0" fill="#fff"/><g fill="#f00"><use xlink:href="#a" x="117.754" y="87.197"/><use xlink:href="#b" x="126.777" y="87.197"/></g><path d="M81.902 124.188h19v14h-19zm0 0" fill="#fff"/><g fill="#f00"><use xlink:href="#a" x="81.902" y="135.326"/><use xlink:href="#b" x="90.926" y="135.326"/></g><path d="M124.656 186.297l-14.898-1.746" stroke-width="1.2" stroke="#000" stroke-miterlimit="10" fill="none"/><path d="M109.758 184.55l-14.903-1.745M94.855 182.805l-5.937-13.778" stroke-width="1.2" stroke="#00f" stroke-miterlimit="10" fill="none"/><path d="M88.918 169.027l-5.94-13.777M76.93 206.87l8.965-12.034" stroke-width="1.2" stroke="#000" stroke-miterlimit="10" fill="none"/><path d="M85.895 194.836l8.96-12.03" stroke-width="1.2" stroke="#00f" stroke-miterlimit="10" fill="none"/><path d="M90.855 175.805h9v14h-9zm0 0" fill="#fff"/><use xlink:href="#c" x="90.855" y="186.943" fill="#00f"/><path d="M82.977 155.25l-29.8-3.492M53.176 151.758L35.25 175.824M35.25 175.824l11.88 27.555M47.13 203.38l29.8 3.49" stroke-width="1.2" stroke="#000" stroke-miterlimit="10" fill="none"/></g></svg>