<svg xmlns="http://www.w3.org/2000/svg" xmlns:xlink="http://www.w3.org/1999/xlink" width="300pt" height="300pt" viewBox="0 0 300 300"><defs><symbol overflow="visible"><path d="M.594 2.125V-8.47h6V2.126zm.672-.672h4.671V-7.78h-4.67zm0 0"/></symbol><symbol overflow="visible" id="a"><path d="M4.734-7.953c-.867 0-1.554.324-2.062.97-.5.635-.75 1.51-.75 2.624 0 1.094.25 1.965.75 2.61.508.637 1.195.953 2.062.953.852 0 1.532-.316 2.032-.953.507-.645.765-1.516.765-2.61 0-1.113-.257-1.988-.764-2.624-.5-.645-1.18-.97-2.032-.97zm0-.953c1.22 0 2.192.414 2.922 1.234.74.824 1.11 1.93 1.11 3.313 0 1.376-.37 2.477-1.11 3.298C6.926-.24 5.953.17 4.734.17c-1.23 0-2.214-.41-2.953-1.234C1.04-1.882.673-2.984.673-4.36c0-1.382.367-2.488 1.11-3.312.738-.82 1.722-1.234 2.952-1.234zm0 0"/></symbol><symbol overflow="visible" id="b"><path d="M6.422-8.47v1.158c-.45-.208-.875-.364-1.28-.47-.4-.113-.78-.17-1.142-.17-.648 0-1.148.124-1.5.374-.344.25-.516.61-.516 1.078 0 .387.114.68.344.875.227.2.672.355 1.328.47L4.36-5c.882.168 1.535.465 1.952.89.426.42.64.98.64 1.688 0 .856-.288 1.5-.858 1.938-.563.437-1.4.656-2.5.656-.406 0-.844-.047-1.313-.14C1.814-.064 1.33-.204.83-.392v-1.22c.477.274.945.477 1.406.61.47.137.922.203 1.36.203.676 0 1.195-.13 1.562-.39.375-.27.563-.65.563-1.14 0-.427-.138-.76-.407-1-.262-.25-.696-.43-1.297-.548l-.72-.14c-.886-.176-1.526-.454-1.92-.83-.388-.374-.58-.893-.58-1.56 0-.782.27-1.392.813-1.83.538-.445 1.288-.67 2.25-.67.413 0 .83.038 1.25.108.425.074.863.184 1.312.328zm0 0"/></symbol></defs><g><path fill="#fff" d="M0 0h300v300H0z"/><path d="M264.75 117.922l-6.598-13.098" stroke-width="1.2" stroke="#000" stroke-miterlimit="10" fill="none"/><path d="M258.152 104.824l-6.6-13.097M243.914 138.57l10.418-10.324" stroke-width="1.2" stroke="#f00" stroke-miterlimit="10" fill="none"/><path d="M254.332 128.246l10.418-10.324" stroke-width="1.2" stroke="#000" stroke-miterlimit="10" fill="none"/><path d="M251.55 91.727l-14.495 2.23" stroke-width="1.2" stroke="#f00" stroke-miterlimit="10" fill="none"/><path d="M237.055 93.957l-14.496 2.227" stroke-width="1.2" stroke="#000" stroke-miterlimit="10" fill="none"/><path d="M246.55 84.727h10v14h-10zm0 0" fill="#fff"/><use xlink:href="#a" x="246.551" y="95.865" fill="#f00"/><path d="M222.56 96.184l-4.72 28.953M215.273 97.97l-3.773 23.16M199.844 77.62l22.715 18.564M217.84 125.137l13.035 6.715" stroke-width="1.2" stroke="#000" stroke-miterlimit="10" fill="none"/><path d="M230.875 131.852l13.04 6.718" stroke-width="1.2" stroke="#f00" stroke-miterlimit="10" fill="none"/><path d="M217.84 125.137l-27.434 10.386" stroke-width="1.2" stroke="#000" stroke-miterlimit="10" fill="none"/><path d="M238.914 131.57h10v14h-10zm0 0" fill="#fff"/><use xlink:href="#a" x="238.914" y="142.709" fill="#f00"/><path d="M190.406 135.523L167.69 116.96M192.504 128.324l-18.172-14.85M167.69 116.96l4.724-28.948M167.69 116.96l-27.428 10.392M172.414 88.012l27.43-10.39M177.602 93.426l21.945-8.313M140.262 127.352l-11.36-9.286" stroke-width="1.2" stroke="#000" stroke-miterlimit="10" fill="none"/><path d="M128.902 118.066l-11.355-9.28" stroke-width="1.2" stroke="#cc0" stroke-miterlimit="10" fill="none"/><path d="M140.262 127.352l-2.36 14.472" stroke-width="1.2" stroke="#000" stroke-miterlimit="10" fill="none"/><path d="M137.902 141.824L135.54 156.3M117.547 108.785l-13.715 5.195" stroke-width="1.2" stroke="#cc0" stroke-miterlimit="10" fill="none"/><path d="M103.832 113.98l-13.72 5.196" stroke-width="1.2" stroke="#000" stroke-miterlimit="10" fill="none"/><path d="M113.547 101.785h8v14h-8zm0 0" fill="#fff"/><use xlink:href="#b" x="113.547" y="112.924" fill="#cc0"/><path d="M90.113 119.176l-22.71-18.563M83.477 122.664l-18.172-14.852M85.395 148.125l4.718-28.95M67.402 100.613L39.97 111M39.97 111l-4.72 28.953M46.31 115.008l-3.775 23.16M35.25 139.953l22.715 18.563M57.965 158.516l27.43-10.39M58.262 151.023l21.945-8.312" stroke-width="1.2" stroke="#000" stroke-miterlimit="10" fill="none"/><path d="M135.54 156.3l11.358 9.282" stroke-width="1.2" stroke="#cc0" stroke-miterlimit="10" fill="none"/><path d="M146.898 165.582l11.356 9.28" stroke-width="1.2" stroke="#000" stroke-miterlimit="10" fill="none"/><path d="M131.54 149.3h8v14h-8zm0 0" fill="#fff"/><use xlink:href="#b" x="131.539" y="160.439" fill="#cc0"/><path d="M158.254 174.863l27.434-10.386M163.44 180.28l21.947-8.31M153.535 203.816l4.72-28.953M185.688 164.477l22.71 18.562M208.398 183.04l-4.718 28.948M201.117 184.824l-3.777 23.16M203.68 211.988l-27.434 10.39M176.246 222.38l-22.71-18.564M178.344 215.18l-18.172-14.852" stroke-width="1.2" stroke="#000" stroke-miterlimit="10" fill="none"/></g></svg>