<svg xmlns="http://www.w3.org/2000/svg" xmlns:xlink="http://www.w3.org/1999/xlink" width="300pt" height="300pt" viewBox="0 0 300 300"><defs><symbol overflow="visible"><path d="M.453 1.594v-7.938h4.5v7.938zm.5-.5h3.5v-6.938h-3.5zm0 0"/></symbol><symbol overflow="visible" id="a"><path d="M5.797-6.063v.938c-.305-.27-.625-.473-.97-.61-.335-.144-.686-.218-1.06-.218-.75 0-1.33.23-1.736.687-.397.46-.592 1.12-.592 1.985 0 .866.195 1.526.593 1.983.408.46.986.688 1.736.688.375 0 .726-.066 1.062-.203.344-.132.664-.343.97-.625V-.5c-.314.21-.642.367-.986.47-.343.1-.714.155-1.11.155-.99 0-1.772-.3-2.343-.906C.784-1.396.5-2.228.5-3.28c0-1.052.285-1.88.86-2.486.57-.613 1.35-.92 2.343-.92.395-.002.766.053 1.11.155.35.104.68.26.984.468zm0 0"/></symbol><symbol overflow="visible" id="b"><path d="M.844-6.844h.812V0H.844zm0 0"/></symbol><symbol overflow="visible" id="c"><path d="M.89-6.563H2.08l2.906 5.485v-5.484h.86V0H4.656L1.75-5.484V0H.89zm0 0"/></symbol><symbol overflow="visible" id="d"><path d="M.89-6.563h.876v2.688H5v-2.688h.89V0H5v-3.125H1.766V0H.89zm0 0"/></symbol><symbol overflow="visible" id="e"><path d="M3.547-5.953c-.65 0-1.164.242-1.547.72-.375.48-.563 1.13-.563 1.952 0 .835.188 1.49.563 1.967.383.48.898.72 1.547.72.644 0 1.156-.24 1.53-.72.376-.476.564-1.132.564-1.968 0-.822-.187-1.474-.562-1.954-.375-.477-.887-.72-1.53-.72zm0-.734c.914 0 1.648.312 2.203.937.55.617.828 1.438.828 2.47 0 1.042-.277 1.87-.828 2.483-.555.617-1.29.922-2.203.922-.93 0-1.668-.305-2.22-.922C.774-1.41.5-2.237.5-3.28c0-1.033.273-1.853.828-2.47.55-.625 1.29-.938 2.22-.938zm0 0"/></symbol></defs><g><path fill="#fff" d="M0 0h300v300H0z"/><path d="M74.727 107.52l12.293-1.4" stroke-width="1.2" stroke="#0c0" stroke-miterlimit="10" fill="none"/><path d="M87.02 106.12l12.293-1.4" stroke-width="1.2" stroke="#000" stroke-miterlimit="10" fill="none"/><path d="M64.727 102.02h10v11h-10zm0 0" fill="#fff"/><g fill="#0c0"><use xlink:href="#a" x="64.727" y="110.683"/><use xlink:href="#b" x="71.24" y="110.683"/></g><path d="M99.313 104.72l9.87-22.693M105.64 104.773l7.895-18.152M114.03 124.613L99.313 104.72M109.184 82.027l24.586-2.797M133.77 79.23l14.714 19.89M130.56 84.684l11.772 15.914M148.484 99.12l12.297-1.397" stroke-width="1.2" stroke="#000" stroke-miterlimit="10" fill="none"/><path d="M160.78 97.723l12.294-1.4" stroke-width="1.2" stroke="#00f" stroke-miterlimit="10" fill="none"/><path d="M148.484 99.12l-9.867 22.692" stroke-width="1.2" stroke="#000" stroke-miterlimit="10" fill="none"/><path d="M173.074 96.324l7.356 9.946" stroke-width="1.2" stroke="#00f" stroke-miterlimit="10" fill="none"/><path d="M180.43 106.27l7.36 9.95" stroke-width="1.2" stroke="#000" stroke-miterlimit="10" fill="none"/><path d="M166.074 90.824h14v11h-14zm0 0" fill="#fff"/><g fill="#00f"><use xlink:href="#c" x="166.074" y="99.487"/><use xlink:href="#d" x="173.052" y="99.487"/></g><path d="M185.12 115.055l-4.936 11.347" stroke-width="1.2" stroke="#000" stroke-miterlimit="10" fill="none"/><path d="M180.184 126.402l-4.934 11.344" stroke-width="1.2" stroke="#f00" stroke-miterlimit="10" fill="none"/><path d="M190.457 117.38l-4.934 11.343" stroke-width="1.2" stroke="#000" stroke-miterlimit="10" fill="none"/><path d="M185.523 128.723l-4.933 11.347" stroke-width="1.2" stroke="#f00" stroke-miterlimit="10" fill="none"/><path d="M187.79 116.22l12.292-1.404" stroke-width="1.2" stroke="#000" stroke-miterlimit="10" fill="none"/><path d="M200.082 114.816l12.293-1.398" stroke-width="1.2" stroke="#00f" stroke-miterlimit="10" fill="none"/><path d="M169.918 133.41h8v11h-8zm0 0" fill="#fff"/><use xlink:href="#e" x="169.918" y="142.073" fill="#f00"/><path d="M212.375 113.418l7.36 9.945" stroke-width="1.2" stroke="#00f" stroke-miterlimit="10" fill="none"/><path d="M219.734 123.363l7.36 9.95" stroke-width="1.2" stroke="#000" stroke-miterlimit="10" fill="none"/><path d="M205.375 107.918h14v11h-14zm0 0" fill="#fff"/><g fill="#00f"><use xlink:href="#c" x="205.375" y="116.581"/><use xlink:href="#d" x="212.353" y="116.581"/></g><path d="M227.094 133.313l12.37-.11" stroke-width="1.2" stroke="#000" stroke-miterlimit="10" fill="none"/><path d="M239.465 133.203l12.37-.105" stroke-width="1.2" stroke="#00f" stroke-miterlimit="10" fill="none"/><path d="M219.648 156.91l7.446-23.597M225.945 156.3l5.957-18.878" stroke-width="1.2" stroke="#000" stroke-miterlimit="10" fill="none"/><path d="M251.836 133.098l7.85 23.468" stroke-width="1.2" stroke="#00f" stroke-miterlimit="10" fill="none"/><path d="M244.836 127.598h14v11h-14zm0 0" fill="#fff"/><g fill="#00f"><use xlink:href="#c" x="244.836" y="136.261"/><use xlink:href="#d" x="251.813" y="136.261"/></g><path d="M259.688 156.566l-9.95 7.356" stroke-width="1.2" stroke="#00f" stroke-miterlimit="10" fill="none"/><path d="M249.738 163.922l-9.945 7.36" stroke-width="1.2" stroke="#000" stroke-miterlimit="10" fill="none"/><path d="M254.234 153.355l-7.957 5.887" stroke-width="1.2" stroke="#00f" stroke-miterlimit="10" fill="none"/><path d="M246.277 159.242l-7.957 5.887" stroke-width="1.2" stroke="#000" stroke-miterlimit="10" fill="none"/><path d="M256.688 151.066h7v11h-7zm0 0" fill="#fff"/><use xlink:href="#c" x="256.688" y="159.729" fill="#00f"/><path d="M239.793 171.28l-20.145-14.37M239.793 171.28l.215 24.747M240.008 196.027l-24.746.21M240.008 196.027l24.742-.214M240.008 196.027l.21 24.743M138.617 121.813l-24.586 2.8M135.5 116.31l-19.668 2.237M114.03 124.613l-9.87 22.692M104.16 147.305l-12.293 1.398" stroke-width="1.2" stroke="#000" stroke-miterlimit="10" fill="none"/><path d="M91.867 148.703l-12.293 1.4M79.574 150.102L74.64 161.45" stroke-width="1.2" stroke="#f00" stroke-miterlimit="10" fill="none"/><path d="M74.64 161.45l-4.933 11.343" stroke-width="1.2" stroke="#000" stroke-miterlimit="10" fill="none"/><path d="M75.574 144.602h8v11h-8zm0 0" fill="#fff"/><use xlink:href="#e" x="75.574" y="153.265" fill="#f00"/><path d="M69.707 172.793l-24.586 2.8M67.906 178.86l-19.668 2.238M84.422 192.688l-14.715-19.895M45.12 175.594l-9.87 22.69M35.25 198.285l14.715 19.895M41.402 196.813l11.774 15.914M49.965 218.18l12.297-1.403" stroke-width="1.2" stroke="#000" stroke-miterlimit="10" fill="none"/><path d="M62.262 216.777l12.293-1.398M74.555 215.38l4.933-11.345" stroke-width="1.2" stroke="#00f" stroke-miterlimit="10" fill="none"/><path d="M79.488 204.035l4.934-11.347" stroke-width="1.2" stroke="#000" stroke-miterlimit="10" fill="none"/><path d="M70.2 210.79l3.948-9.08" stroke-width="1.2" stroke="#00f" stroke-miterlimit="10" fill="none"/><path d="M74.148 201.71l3.95-9.073" stroke-width="1.2" stroke="#000" stroke-miterlimit="10" fill="none"/><path d="M71.555 209.88h7v11h-7zm0 0" fill="#fff"/><use xlink:href="#c" x="71.555" y="218.542" fill="#00f"/></g></svg>