<svg xmlns="http://www.w3.org/2000/svg" xmlns:xlink="http://www.w3.org/1999/xlink" width="300pt" height="300pt" viewBox="0 0 300 300"><defs><symbol overflow="visible"><path d="M.797 2.828v-14.11h8V2.83zm.906-.89h6.203v-12.33H1.703zm0 0"/></symbol><symbol overflow="visible" id="a"><path d="M1.578-11.672h2.125l5.172 9.766v-9.766h1.53V0H8.282L3.11-9.766V0H1.577zm0 0"/></symbol><symbol overflow="visible" id="b"><path d="M6.313-10.594c-1.15 0-2.06.43-2.735 1.28-.68.857-1.015 2.017-1.015 3.486 0 1.47.335 2.633 1.015 3.484.676.856 1.586 1.28 2.735 1.28 1.144.002 2.05-.424 2.718-1.28.665-.85 1-2.015 1-3.484 0-1.47-.335-2.63-1-3.484-.667-.852-1.573-1.282-2.717-1.282zm0-1.28c1.632 0 2.94.546 3.92 1.64.978 1.093 1.47 2.562 1.47 4.406 0 1.844-.492 3.32-1.47 4.422-.98 1.093-2.288 1.64-3.92 1.64-1.65 0-2.96-.546-3.938-1.64-.98-1.102-1.47-2.578-1.47-4.422 0-1.844.49-3.313 1.47-4.406.977-1.094 2.29-1.64 3.938-1.64zm0 0"/></symbol><symbol overflow="visible" id="c"><path d="M1.578-11.672h1.578v4.78H8.89v-4.78h1.58V0H8.89v-5.563H3.157V0H1.578zm0 0"/></symbol></defs><g><path fill="#fff" d="M0 0h300v300H0z"/><path d="M60.008 253.766l1.344-19.078" stroke-width="1.2" stroke="#000" stroke-miterlimit="10" fill="none"/><path d="M61.352 234.688l1.34-19.08M62.69 215.61l-15.846-10.7" stroke-width="1.2" stroke="#00f" stroke-miterlimit="10" fill="none"/><path d="M46.844 204.91l-15.852-10.703M97.078 198.855l-17.19 8.38" stroke-width="1.2" stroke="#000" stroke-miterlimit="10" fill="none"/><path d="M79.887 207.234L62.69 215.61" stroke-width="1.2" stroke="#00f" stroke-miterlimit="10" fill="none"/><path d="M56.69 206.11h12v19h-12zm0 0" fill="#fff"/><use xlink:href="#a" x="56.691" y="220.961" fill="#00f"/><path d="M30.992 194.207l2.684-38.156M33.676 156.05l34.386-16.753M68.063 139.297l2.683-38.152M77.31 136.113l2.143-30.523M99.762 160.703l-31.7-21.406M70.746 101.145l34.387-16.754M105.133 84.39l31.7 21.403M103.266 93.988l25.363 17.12M105.133 84.39l1.34-19.078" stroke-width="1.2" stroke="#000" stroke-miterlimit="10" fill="none"/><path d="M106.473 65.313l1.343-19.08" stroke-width="1.2" stroke="#f00" stroke-miterlimit="10" fill="none"/><path d="M136.832 105.793l-2.684 38.156M136.832 105.793l17.195-8.38" stroke-width="1.2" stroke="#000" stroke-miterlimit="10" fill="none"/><path d="M154.027 97.414l17.192-8.375" stroke-width="1.2" stroke="#f00" stroke-miterlimit="10" fill="none"/><path d="M134.148 143.95l-34.386 16.753M134.652 153.715l-27.507 13.402M165.852 165.352l-31.704-21.403M99.762 160.703l-2.684 38.152M97.078 198.855l31.703 21.403M128.78 220.258l34.388-16.75M163.168 203.508l31.7 21.402M171.37 198.188l25.364 17.12M165.852 165.352l-2.684 38.156M194.867 224.91l34.387-16.754M229.254 208.156L231.938 170M220.547 203.707l2.144-30.523M229.254 208.156l15.85 10.7" stroke-width="1.2" stroke="#000" stroke-miterlimit="10" fill="none"/><path d="M245.105 218.855l15.852 10.704" stroke-width="1.2" stroke="#f00" stroke-miterlimit="10" fill="none"/><path d="M231.938 170l-31.7-21.402M231.938 170l17.195-8.38" stroke-width="1.2" stroke="#000" stroke-miterlimit="10" fill="none"/><path d="M249.133 161.62l17.19-8.374" stroke-width="1.2" stroke="#f00" stroke-miterlimit="10" fill="none"/><path d="M200.238 148.598l-34.386 16.754M200.738 158.363l-27.508 13.403" stroke-width="1.2" stroke="#000" stroke-miterlimit="10" fill="none"/><path d="M266.324 153.246l1.344-19.078" stroke-width="1.2" stroke="#f00" stroke-miterlimit="10" fill="none"/><path d="M267.668 134.168l1.34-19.078" stroke-width="1.2" stroke="#000" stroke-miterlimit="10" fill="none"/><path d="M260.324 143.746h13v19h-13zm0 0" fill="#fff"/><use xlink:href="#b" x="260.324" y="158.598" fill="#f00"/><path d="M248.957 220.06h25v19h-25zm0 0" fill="#fff"/><g fill="#f00"><use xlink:href="#b" x="248.957" y="234.91"/><use xlink:href="#c" x="261.551" y="234.91"/></g><path d="M171.22 89.04l1.343-19.08" stroke-width="1.2" stroke="#f00" stroke-miterlimit="10" fill="none"/><path d="M172.563 69.96l1.34-19.077" stroke-width="1.2" stroke="#000" stroke-miterlimit="10" fill="none"/><path d="M165.22 79.54h13v19h-13zm0 0" fill="#fff"/><use xlink:href="#b" x="165.219" y="94.391" fill="#f00"/><path d="M95.816 36.734h25v19h-25zm0 0" fill="#fff"/><g fill="#f00"><use xlink:href="#b" x="95.816" y="51.586"/><use xlink:href="#c" x="108.41" y="51.586"/></g></g></svg>