<svg xmlns="http://www.w3.org/2000/svg" xmlns:xlink="http://www.w3.org/1999/xlink" width="300pt" height="300pt" viewBox="0 0 300 300"><defs><symbol overflow="visible"><path d="M.594 2.125V-8.47h6V2.126zm.672-.672h4.671V-7.78h-4.67zm0 0"/></symbol><symbol overflow="visible" id="a"><path d="M1.172-8.75h5.03v1H2.36v2.578h3.468v1h-3.47V0H1.173zm0 0"/></symbol><symbol overflow="visible" id="b"><path d="M4.734-7.953c-.867 0-1.554.324-2.062.97-.5.635-.75 1.51-.75 2.624 0 1.094.25 1.965.75 2.61.508.637 1.195.953 2.062.953.852 0 1.532-.316 2.032-.953.507-.645.765-1.516.765-2.61 0-1.113-.257-1.988-.764-2.624-.5-.645-1.18-.97-2.032-.97zm0-.953c1.22 0 2.192.414 2.922 1.234.74.824 1.11 1.93 1.11 3.313 0 1.376-.37 2.477-1.11 3.298C6.926-.24 5.953.17 4.734.17c-1.23 0-2.214-.41-2.953-1.234C1.04-1.882.673-2.984.673-4.36c0-1.382.367-2.488 1.11-3.312.738-.82 1.722-1.234 2.952-1.234zm0 0"/></symbol><symbol overflow="visible" id="c"><path d="M1.172-8.75h1.594l3.89 7.313V-8.75h1.14V0H6.204L2.328-7.313V0H1.172zm0 0"/></symbol><symbol overflow="visible" id="d"><path d="M1.172-8.75H2.36v3.594h4.296V-8.75h1.188V0H6.656v-4.172H2.36V0H1.17zm0 0"/></symbol></defs><g><path fill="#fff" d="M0 0h300v300H0z"/><path d="M56.465 196.484l4.492-13.91" stroke-width="1.2" stroke="#3cc" stroke-miterlimit="10" fill="none"/><path d="M60.957 182.574l4.496-13.906" stroke-width="1.2" stroke="#000" stroke-miterlimit="10" fill="none"/><path d="M49.465 189.484h7v14h-7zm0 0" fill="#fff"/><use xlink:href="#a" x="49.465" y="200.623" fill="#3cc"/><path d="M65.453 168.668l-19.598-21.695M68.598 161.887L52.922 144.53M94.04 162.543l-28.587 6.125M45.855 146.973l8.993-27.817M54.848 119.156l-9.8-10.847" stroke-width="1.2" stroke="#000" stroke-miterlimit="10" fill="none"/><path d="M45.047 108.31L35.25 97.464" stroke-width="1.2" stroke="#3cc" stroke-miterlimit="10" fill="none"/><path d="M54.848 119.156l28.582-6.125M59.145 125.27l22.867-4.9" stroke-width="1.2" stroke="#000" stroke-miterlimit="10" fill="none"/><path d="M28.25 90.465h7v14h-7zm0 0" fill="#fff"/><use xlink:href="#a" x="28.25" y="101.604" fill="#3cc"/><path d="M83.43 113.03l19.597 21.697M103.027 134.727l-8.988 27.816M95.582 135.395l-7.19 22.253M94.04 162.543l9.796 10.848" stroke-width="1.2" stroke="#000" stroke-miterlimit="10" fill="none"/><path d="M103.836 173.39l9.797 10.848M113.633 184.238l14.293-3.062" stroke-width="1.2" stroke="#f00" stroke-miterlimit="10" fill="none"/><path d="M127.926 181.176l14.293-3.063" stroke-width="1.2" stroke="#000" stroke-miterlimit="10" fill="none"/><path d="M108.633 177.238h10v14h-10zm0 0" fill="#fff"/><use xlink:href="#b" x="108.633" y="188.377" fill="#f00"/><path d="M142.22 178.113l9.796 10.848" stroke-width="1.2" stroke="#000" stroke-miterlimit="10" fill="none"/><path d="M152.016 188.96l9.797 10.845" stroke-width="1.2" stroke="#00f" stroke-miterlimit="10" fill="none"/><path d="M149.28 175.672l7.84 8.676" stroke-width="1.2" stroke="#000" stroke-miterlimit="10" fill="none"/><path d="M157.12 184.348l7.837 8.68" stroke-width="1.2" stroke="#00f" stroke-miterlimit="10" fill="none"/><path d="M151.207 150.297l-8.988 27.816" stroke-width="1.2" stroke="#000" stroke-miterlimit="10" fill="none"/><path d="M161.813 199.805l14.292-3.06" stroke-width="1.2" stroke="#00f" stroke-miterlimit="10" fill="none"/><path d="M176.105 196.746l14.293-3.062" stroke-width="1.2" stroke="#000" stroke-miterlimit="10" fill="none"/><path d="M157.813 192.805h9v14h-9zm0 0" fill="#fff"/><use xlink:href="#c" x="157.813" y="203.943" fill="#00f"/><path d="M190.398 193.684l8.99-27.817M197.844 193.016l7.19-22.254M209.996 215.375l-19.598-21.69M199.387 165.867l-19.594-21.695M199.387 165.867l28.586-6.125M179.793 144.172l-28.586 6.125M178.375 151.512l-22.867 4.898M227.973 159.742l9.797 10.848" stroke-width="1.2" stroke="#000" stroke-miterlimit="10" fill="none"/><path d="M237.77 170.59l9.8 10.844" stroke-width="1.2" stroke="#00f" stroke-miterlimit="10" fill="none"/><path d="M224.828 166.523l7.84 8.676" stroke-width="1.2" stroke="#000" stroke-miterlimit="10" fill="none"/><path d="M232.668 175.2l7.836 8.675" stroke-width="1.2" stroke="#00f" stroke-miterlimit="10" fill="none"/><path d="M227.973 159.742l8.988-27.816" stroke-width="1.2" stroke="#000" stroke-miterlimit="10" fill="none"/><path d="M247.57 181.434l-8.992 27.82" stroke-width="1.2" stroke="#00f" stroke-miterlimit="10" fill="none"/><path d="M243.57 174.434h9v14h-9zm0 0" fill="#fff"/><use xlink:href="#c" x="243.57" y="185.572" fill="#00f"/><path d="M238.578 209.254l-14.293 3.06" stroke-width="1.2" stroke="#00f" stroke-miterlimit="10" fill="none"/><path d="M224.285 212.313l-14.29 3.062" stroke-width="1.2" stroke="#000" stroke-miterlimit="10" fill="none"/><path d="M234.28 203.14l-11.432 2.45" stroke-width="1.2" stroke="#00f" stroke-miterlimit="10" fill="none"/><path d="M222.848 205.59l-11.434 2.45" stroke-width="1.2" stroke="#000" stroke-miterlimit="10" fill="none"/><path d="M234.578 202.254h9v14h-9zm0 0" fill="#fff"/><use xlink:href="#c" x="234.578" y="213.393" fill="#00f"/><path d="M236.96 131.926L219.743 108.3M264.75 122.848l-27.79 9.078M259.836 117.215l-22.23 7.262M219.742 108.3l8.57-11.835" stroke-width="1.2" stroke="#000" stroke-miterlimit="10" fill="none"/><path d="M228.313 96.465l8.574-11.84" stroke-width="1.2" stroke="#00f" stroke-miterlimit="10" fill="none"/><path d="M227.027 109.97l6.856-9.474" stroke-width="1.2" stroke="#000" stroke-miterlimit="10" fill="none"/><path d="M233.883 100.496l6.86-9.47M236.887 84.625l27.816 8.988" stroke-width="1.2" stroke="#00f" stroke-miterlimit="10" fill="none"/><path d="M232.887 77.625h9v14h-9zm0 0" fill="#fff"/><use xlink:href="#c" x="232.887" y="88.764" fill="#00f"/><path d="M264.703 93.613l.024 14.617" stroke-width="1.2" stroke="#00f" stroke-miterlimit="10" fill="none"/><path d="M264.727 108.23l.023 14.618" stroke-width="1.2" stroke="#000" stroke-miterlimit="10" fill="none"/><path d="M255.703 86.613h18v14h-18zm0 0" fill="#fff"/><g fill="#00f"><use xlink:href="#c" x="255.703" y="97.752"/><use xlink:href="#d" x="264.68" y="97.752"/></g></g></svg>