<svg xmlns="http://www.w3.org/2000/svg" xmlns:xlink="http://www.w3.org/1999/xlink" width="300pt" height="300pt" viewBox="0 0 300 300"><defs><symbol overflow="visible"><path d="M.453 1.594v-7.938h4.5v7.938zm.5-.5h3.5v-6.938h-3.5zm0 0"/></symbol><symbol overflow="visible" id="a"><path d="M.89-6.563h3.766v.75h-2.89v1.938h2.61v.734h-2.61V0H.89zm0 0"/></symbol><symbol overflow="visible" id="b"><path d="M.89-6.563H2.08l2.906 5.485v-5.484h.86V0H4.656L1.75-5.484V0H.89zm0 0"/></symbol><symbol overflow="visible" id="c"><path d="M.89-6.563h.876v2.688H5v-2.688h.89V0H5v-3.125H1.766V0H.89zm0 0"/></symbol></defs><g><path fill="#fff" d="M0 0h300v300H0z"/><path d="M70.074 182.96l.645-11.163" stroke-width="1.2" stroke="#3cc" stroke-miterlimit="10" fill="none"/><path d="M70.72 171.797l.64-11.164" stroke-width="1.2" stroke="#000" stroke-miterlimit="10" fill="none"/><path d="M67.074 177.46h6v11h-6zm0 0" fill="#fff"/><use xlink:href="#a" x="67.074" y="186.124" fill="#3cc"/><path d="M71.36 160.633l-18.696-12.278M72.38 155.004l-14.958-9.82M91.34 150.578l-19.98 10.055M52.664 148.355l1.28-22.332M53.945 126.023l-9.347-6.136" stroke-width="1.2" stroke="#000" stroke-miterlimit="10" fill="none"/><path d="M44.598 119.887l-9.348-6.14" stroke-width="1.2" stroke="#3cc" stroke-miterlimit="10" fill="none"/><path d="M53.945 126.023L73.93 115.97M58.313 129.72l15.984-8.044" stroke-width="1.2" stroke="#000" stroke-miterlimit="10" fill="none"/><path d="M29.25 108.246h6v11h-6zm0 0" fill="#fff"/><use xlink:href="#a" x="29.25" y="116.909" fill="#3cc"/><path d="M73.93 115.97l18.695 12.276M92.625 128.246l-1.285 22.332M87.242 130.18l-1.027 17.863M91.34 150.578l18.7 12.277M110.04 162.855l-.645 11.165" stroke-width="1.2" stroke="#000" stroke-miterlimit="10" fill="none"/><path d="M109.395 174.02l-.64 11.167" stroke-width="1.2" stroke="#00f" stroke-miterlimit="10" fill="none"/><path d="M115.164 165.39l-.516 8.934" stroke-width="1.2" stroke="#000" stroke-miterlimit="10" fill="none"/><path d="M114.648 174.324l-.51 8.93" stroke-width="1.2" stroke="#00f" stroke-miterlimit="10" fill="none"/><path d="M130.02 152.8l-19.98 10.055" stroke-width="1.2" stroke="#000" stroke-miterlimit="10" fill="none"/><path d="M108.754 185.188l18.695 12.277" stroke-width="1.2" stroke="#00f" stroke-miterlimit="10" fill="none"/><path d="M105.754 179.688h7v11h-7zm0 0" fill="#fff"/><use xlink:href="#b" x="105.754" y="188.351" fill="#00f"/><path d="M127.45 197.465l9.99-5.028" stroke-width="1.2" stroke="#00f" stroke-miterlimit="10" fill="none"/><path d="M137.44 192.438l9.994-5.028" stroke-width="1.2" stroke="#000" stroke-miterlimit="10" fill="none"/><path d="M127.082 191.758l7.992-4.024" stroke-width="1.2" stroke="#00f" stroke-miterlimit="10" fill="none"/><path d="M135.074 187.734l7.992-4.02" stroke-width="1.2" stroke="#000" stroke-miterlimit="10" fill="none"/><path d="M124.45 191.965h7v11h-7zm0 0" fill="#fff"/><use xlink:href="#b" x="124.449" y="200.628" fill="#00f"/><path d="M147.434 187.41l1.28-22.332M148.715 165.078l9.992-5.023" stroke-width="1.2" stroke="#000" stroke-miterlimit="10" fill="none"/><path d="M158.707 160.055l9.988-5.028" stroke-width="1.2" stroke="#00f" stroke-miterlimit="10" fill="none"/><path d="M148.348 159.375l7.992-4.023" stroke-width="1.2" stroke="#000" stroke-miterlimit="10" fill="none"/><path d="M156.34 155.352l7.992-4.02" stroke-width="1.2" stroke="#00f" stroke-miterlimit="10" fill="none"/><path d="M130.02 152.8l18.695 12.278" stroke-width="1.2" stroke="#000" stroke-miterlimit="10" fill="none"/><path d="M168.695 155.027l.645-11.168" stroke-width="1.2" stroke="#00f" stroke-miterlimit="10" fill="none"/><path d="M169.34 143.86l.64-11.165" stroke-width="1.2" stroke="#000" stroke-miterlimit="10" fill="none"/><path d="M165.695 149.527h7v11h-7zm0 0" fill="#fff"/><use xlink:href="#b" x="165.695" y="158.19" fill="#00f"/><path d="M169.98 132.695l9.993-5.027" stroke-width="1.2" stroke="#000" stroke-miterlimit="10" fill="none"/><path d="M179.973 127.668l9.988-5.027" stroke-width="1.2" stroke="#00f" stroke-miterlimit="10" fill="none"/><path d="M169.98 132.695l-18.695-12.277M165.223 135.867l-14.957-9.82" stroke-width="1.2" stroke="#000" stroke-miterlimit="10" fill="none"/><path d="M189.96 122.64l9.352 6.14" stroke-width="1.2" stroke="#00f" stroke-miterlimit="10" fill="none"/><path d="M199.313 128.78l9.347 6.142" stroke-width="1.2" stroke="#000" stroke-miterlimit="10" fill="none"/><path d="M182.96 117.14h14v11h-14zm0 0" fill="#fff"/><g fill="#00f"><use xlink:href="#b" x="182.961" y="125.804"/><use xlink:href="#c" x="189.938" y="125.804"/></g><path d="M208.66 134.922l-1.285 22.328M213.785 137.457l-1.027 17.863M228.64 124.867l-19.98 10.055M207.375 157.25l18.695 12.277M226.07 169.527l19.985-10.05M225.703 163.82l15.984-8.043M246.055 159.477l9.347 6.136" stroke-width="1.2" stroke="#000" stroke-miterlimit="10" fill="none"/><path d="M255.402 165.613l9.348 6.14" stroke-width="1.2" stroke="#3cc" stroke-miterlimit="10" fill="none"/><path d="M246.055 159.477l1.28-22.332" stroke-width="1.2" stroke="#000" stroke-miterlimit="10" fill="none"/><path d="M261.75 166.254h6v11h-6zm0 0" fill="#fff"/><use xlink:href="#a" x="261.75" y="174.917" fill="#3cc"/><path d="M247.336 137.145l-18.695-12.278M242.578 140.316l-14.957-9.824M228.64 124.867l.64-11.164" stroke-width="1.2" stroke="#000" stroke-miterlimit="10" fill="none"/><path d="M229.28 113.703l.646-11.168" stroke-width="1.2" stroke="#3cc" stroke-miterlimit="10" fill="none"/><path d="M226.926 97.035h6v11h-6zm0 0" fill="#fff"/><use xlink:href="#a" x="226.926" y="105.698" fill="#3cc"/><path d="M151.285 120.418l-19.98 10.055M131.305 130.473L130.02 152.8M136.43 133.008l-1.028 17.863" stroke-width="1.2" stroke="#000" stroke-miterlimit="10" fill="none"/></g></svg>