<svg xmlns="http://www.w3.org/2000/svg" xmlns:xlink="http://www.w3.org/1999/xlink" width="300pt" height="300pt" viewBox="0 0 300 300"><defs><symbol overflow="visible"><path d="M.547 1.938V-7.75h5.5v9.688zm.625-.61h4.266v-8.47H1.171zm0 0"/></symbol><symbol overflow="visible" id="a"><path d="M5.89-7.75v1.047c-.417-.195-.808-.344-1.17-.438-.368-.094-.72-.14-1.064-.14-.586 0-1.04.116-1.36.343-.323.23-.483.554-.483.968 0 .357.1.626.312.814.22.18.625.324 1.22.437L4-4.593c.813.157 1.41.434 1.797.828.383.387.578.903.578 1.547 0 .783-.262 1.376-.78 1.783-.525.398-1.29.593-2.298.593-.375 0-.78-.047-1.22-.14C1.648-.066 1.208-.19.75-.36v-1.11c.445.25.88.44 1.297.564.426.125.844.187 1.25.187.625 0 1.1-.116 1.437-.358.332-.25.5-.598.5-1.047 0-.395-.12-.703-.36-.922-.24-.226-.636-.398-1.186-.515l-.657-.126c-.81-.156-1.4-.406-1.764-.75C.898-4.78.72-5.258.72-5.875c0-.707.25-1.266.75-1.672.5-.414 1.19-.625 2.077-.625.375 0 .754.04 1.14.11.395.074.797.18 1.204.312zm0 0"/></symbol><symbol overflow="visible" id="b"><path d="M4.328-7.28c-.78 0-1.406.296-1.875.89-.46.585-.687 1.382-.687 2.39 0 1.012.226 1.813.687 2.406.47.586 1.094.875 1.875.875.79 0 1.414-.288 1.875-.874.457-.593.688-1.394.688-2.406 0-1.008-.23-1.805-.687-2.39-.46-.594-1.086-.89-1.875-.89zm0-.892c1.125 0 2.024.383 2.703 1.14C7.708-6.28 8.048-5.27 8.048-4c0 1.262-.34 2.273-1.016 3.03C6.353-.22 5.454.157 4.33.157S2.3-.22 1.625-.97c-.668-.75-1-1.757-1-3.03 0-1.27.332-2.28 1-3.03.676-.76 1.578-1.142 2.703-1.142zm0 0"/></symbol><symbol overflow="visible" id="c"><path d="M1.078-8.016h1.47l3.546 6.704v-6.704h1.062V0H5.688L2.124-6.703V0H1.078zm0 0"/></symbol><symbol overflow="visible" id="d"><path d="M1.078-8.016h1.094v3.282H6.11v-3.282h1.077V0H6.11v-3.813H2.17V0H1.078zm0 0"/></symbol><symbol overflow="visible" id="e"><path d="M1.078-8.016h4.61v.907H2.171v2.36h3.172v.922H2.172V0H1.078zm0 0"/></symbol></defs><g><path fill="#fff" d="M0 0h300v300H0z"/><path d="M54.895 144.387l7.218 11.13" stroke-width="1.2" stroke="#cc0" stroke-miterlimit="10" fill="none"/><path d="M62.113 155.516l7.22 11.132" stroke-width="1.2" stroke="#f00" stroke-miterlimit="10" fill="none"/><path d="M60.133 140.988l7.22 11.133" stroke-width="1.2" stroke="#cc0" stroke-miterlimit="10" fill="none"/><path d="M67.352 152.12l7.218 11.134" stroke-width="1.2" stroke="#f00" stroke-miterlimit="10" fill="none"/><path d="M60.133 140.988l-7.22-11.133" stroke-width="1.2" stroke="#cc0" stroke-miterlimit="10" fill="none"/><path d="M52.914 129.855l-7.22-11.132" stroke-width="1.2" stroke="#f00" stroke-miterlimit="10" fill="none"/><path d="M54.895 144.387l-7.22-11.133" stroke-width="1.2" stroke="#cc0" stroke-miterlimit="10" fill="none"/><path d="M47.676 133.254l-7.22-11.133" stroke-width="1.2" stroke="#f00" stroke-miterlimit="10" fill="none"/><path d="M57.516 142.688l-11.133 7.218" stroke-width="1.2" stroke="#cc0" stroke-miterlimit="10" fill="none"/><path d="M46.383 149.906l-11.133 7.22" stroke-width="1.2" stroke="#000" stroke-miterlimit="10" fill="none"/><path d="M57.516 142.688l11.132-7.22" stroke-width="1.2" stroke="#cc0" stroke-miterlimit="10" fill="none"/><path d="M68.648 135.47l11.13-7.22" stroke-width="1.2" stroke="#000" stroke-miterlimit="10" fill="none"/><path d="M54.516 136.188h7v13h-7zm0 0" fill="#fff"/><use xlink:href="#a" x="54.516" y="146.089" fill="#cc0"/><path d="M67.953 158.45h9v13h-9zm0 0" fill="#fff"/><use xlink:href="#b" x="67.953" y="168.351" fill="#f00"/><path d="M34.078 113.922h9v13h-9zm0 0" fill="#fff"/><use xlink:href="#b" x="34.078" y="123.823" fill="#f00"/><path d="M79.777 128.25l-1.37-26.5M85.88 125.277l-1.1-21.203M103.414 140.313L79.777 128.25M78.406 101.75l22.266-14.438M100.672 87.313l23.637 12.062M100.2 94.078l18.905 9.652M124.31 99.375l11.13-7.22" stroke-width="1.2" stroke="#000" stroke-miterlimit="10" fill="none"/><path d="M135.44 92.156l11.134-7.22" stroke-width="1.2" stroke="#00f" stroke-miterlimit="10" fill="none"/><path d="M124.31 99.375l1.37 26.5" stroke-width="1.2" stroke="#000" stroke-miterlimit="10" fill="none"/><path d="M146.574 84.938l11.817 6.03" stroke-width="1.2" stroke="#00f" stroke-miterlimit="10" fill="none"/><path d="M158.39 90.97L170.208 97" stroke-width="1.2" stroke="#000" stroke-miterlimit="10" fill="none"/><path d="M138.574 78.438h17v13h-17zm0 0" fill="#fff"/><g fill="#00f"><use xlink:href="#c" x="138.574" y="88.339"/><use xlink:href="#d" x="146.558" y="88.339"/></g><path d="M170.207 97l.688 13.25" stroke-width="1.2" stroke="#000" stroke-miterlimit="10" fill="none"/><path d="M170.895 110.25l.683 13.25" stroke-width="1.2" stroke="#00f" stroke-miterlimit="10" fill="none"/><path d="M176.582 99.328l.547 10.598" stroke-width="1.2" stroke="#000" stroke-miterlimit="10" fill="none"/><path d="M177.13 109.926l.546 10.6M192.473 82.563L181.34 89.78" stroke-width="1.2" stroke="#00f" stroke-miterlimit="10" fill="none"/><path d="M181.34 89.78L170.207 97" stroke-width="1.2" stroke="#000" stroke-miterlimit="10" fill="none"/><path d="M171.578 123.5l11.82 6.03" stroke-width="1.2" stroke="#00f" stroke-miterlimit="10" fill="none"/><path d="M183.398 129.53l11.817 6.032" stroke-width="1.2" stroke="#000" stroke-miterlimit="10" fill="none"/><path d="M167.578 117h8v13h-8zm0 0" fill="#fff"/><use xlink:href="#c" x="167.578" y="126.901" fill="#00f"/><path d="M195.215 135.563l.683 13.25" stroke-width="1.2" stroke="#000" stroke-miterlimit="10" fill="none"/><path d="M195.898 148.813l.688 13.25" stroke-width="1.2" stroke="#f00" stroke-miterlimit="10" fill="none"/><path d="M195.215 135.563l22.265-14.438M194.043 128.88l17.812-11.552" stroke-width="1.2" stroke="#000" stroke-miterlimit="10" fill="none"/><path d="M196.586 162.063l-11.133 7.218" stroke-width="1.2" stroke="#f00" stroke-miterlimit="10" fill="none"/><path d="M185.453 169.28l-11.133 7.22" stroke-width="1.2" stroke="#000" stroke-miterlimit="10" fill="none"/><path d="M192.586 155.563h9v13h-9zm0 0" fill="#fff"/><use xlink:href="#b" x="192.586" y="165.464" fill="#f00"/><path d="M174.32 176.5l1.37 26.5M173.992 200.383L151.73 214.82M177.39 205.62l-22.265 14.44M217.48 121.125l-1.37-26.5M217.48 121.125l23.633 12.063M216.11 94.625l-11.82-6.03" stroke-width="1.2" stroke="#000" stroke-miterlimit="10" fill="none"/><path d="M204.29 88.594l-11.817-6.03" stroke-width="1.2" stroke="#00f" stroke-miterlimit="10" fill="none"/><path d="M210.906 98.98l-9.453-4.824" stroke-width="1.2" stroke="#000" stroke-miterlimit="10" fill="none"/><path d="M201.453 94.156l-9.457-4.828" stroke-width="1.2" stroke="#00f" stroke-miterlimit="10" fill="none"/><path d="M188.473 76.063h8v13h-8zm0 0" fill="#fff"/><use xlink:href="#c" x="188.473" y="85.964" fill="#00f"/><path d="M241.113 133.188l11.82 6.03" stroke-width="1.2" stroke="#000" stroke-miterlimit="10" fill="none"/><path d="M252.934 139.22l11.816 6.03" stroke-width="1.2" stroke="#3cc" stroke-miterlimit="10" fill="none"/><path d="M241.113 133.188l6.032-11.817" stroke-width="1.2" stroke="#000" stroke-miterlimit="10" fill="none"/><path d="M247.145 121.37l6.03-11.82" stroke-width="1.2" stroke="#3cc" stroke-miterlimit="10" fill="none"/><path d="M241.113 133.188l-6.03 11.816" stroke-width="1.2" stroke="#000" stroke-miterlimit="10" fill="none"/><path d="M235.082 145.004l-6.03 11.82" stroke-width="1.2" stroke="#3cc" stroke-miterlimit="10" fill="none"/><path d="M261.75 138.75h7v13h-7zm0 0" fill="#fff"/><use xlink:href="#e" x="261.75" y="148.651" fill="#3cc"/><path d="M250.176 103.05h7v13h-7zm0 0" fill="#fff"/><use xlink:href="#e" x="250.176" y="112.952" fill="#3cc"/><path d="M222.05 150.324h7v13h-7zm0 0" fill="#fff"/><use xlink:href="#e" x="222.051" y="160.226" fill="#3cc"/><path d="M125.68 125.875l-22.266 14.438M120.055 122.078l-17.813 11.55" stroke-width="1.2" stroke="#000" stroke-miterlimit="10" fill="none"/></g></svg>