<svg xmlns="http://www.w3.org/2000/svg" xmlns:xlink="http://www.w3.org/1999/xlink" width="300pt" height="300pt" viewBox="0 0 300 300"><defs><symbol overflow="visible"><path d="M.453 1.594v-7.938h4.5v7.938zm.5-.5h3.5v-6.938h-3.5zm0 0"/></symbol><symbol overflow="visible" id="a"><path d="M.89-6.563H2.08l2.906 5.485v-5.484h.86V0H4.656L1.75-5.484V0H.89zm0 0"/></symbol><symbol overflow="visible" id="b"><path d="M.89-6.563h.876v2.688H5v-2.688h.89V0H5v-3.125H1.766V0H.89zm0 0"/></symbol><symbol overflow="visible" id="d"><path d="M3.547-5.953c-.65 0-1.164.242-1.547.72-.375.48-.563 1.13-.563 1.952 0 .835.188 1.49.563 1.967.383.48.898.72 1.547.72.644 0 1.156-.24 1.53-.72.376-.476.564-1.132.564-1.968 0-.822-.187-1.474-.562-1.954-.375-.477-.887-.72-1.53-.72zm0-.734c.914 0 1.648.312 2.203.937.55.617.828 1.438.828 2.47 0 1.042-.277 1.87-.828 2.483-.555.617-1.29.922-2.203.922-.93 0-1.668-.305-2.22-.922C.774-1.41.5-2.237.5-3.28c0-1.033.273-1.853.828-2.47.55-.625 1.29-.938 2.22-.938zm0 0"/></symbol><symbol overflow="visible"><path d="M.406 1.422V-5.64h4V1.42zM.844.97h3.11v-6.157H.843zm0 0"/></symbol><symbol overflow="visible" id="c"><path d="M3.688-5.016v2.172h2.17v.672H3.69V0H3.03v-2.172H.845v-.672H3.03v-2.172zm0 0"/></symbol></defs><g><path fill="#fff" d="M0 0h300v300H0z"/><path d="M94.43 159.227l-21.266 12.648M95.277 165.496l-17.01 10.117M94.43 159.227l-.16-12.368" stroke-width="1.2" stroke="#000" stroke-miterlimit="10" fill="none"/><path d="M94.27 146.86l-.157-12.372" stroke-width="1.2" stroke="#00f" stroke-miterlimit="10" fill="none"/><path d="M116.016 171.324L94.43 159.227M73.164 171.875l-11.816-3.672" stroke-width="1.2" stroke="#000" stroke-miterlimit="10" fill="none"/><path d="M61.348 168.203l-11.813-3.672" stroke-width="1.2" stroke="#00f" stroke-miterlimit="10" fill="none"/><path d="M73.164 171.875l.316 24.742" stroke-width="1.2" stroke="#000" stroke-miterlimit="10" fill="none"/><path d="M49.535 164.53l-7.144 10.103" stroke-width="1.2" stroke="#00f" stroke-miterlimit="10" fill="none"/><path d="M42.39 174.633l-7.14 10.1" stroke-width="1.2" stroke="#000" stroke-miterlimit="10" fill="none"/><path d="M42.535 159.03h14v11h-14zm0 0" fill="#fff"/><g fill="#00f"><use xlink:href="#a" x="42.535" y="167.694"/><use xlink:href="#b" x="49.513" y="167.694"/></g><path d="M35.25 184.734l14.8 19.828M41.395 183.234l11.84 15.864M50.05 204.563l-7.343 23.628M73.48 196.617l-23.43 7.946M73.48 196.617l21.586 12.094M78.484 192.746l17.27 9.676M95.066 208.71l21.27-12.648M116.336 196.063l-.32-24.74M110.48 193.664l-.253-19.793" stroke-width="1.2" stroke="#000" stroke-miterlimit="10" fill="none"/><path d="M94.113 134.488l10.633-6.324" stroke-width="1.2" stroke="#00f" stroke-miterlimit="10" fill="none"/><path d="M104.746 128.164l10.633-6.324" stroke-width="1.2" stroke="#000" stroke-miterlimit="10" fill="none"/><path d="M99.215 138.227l8.508-5.06" stroke-width="1.2" stroke="#00f" stroke-miterlimit="10" fill="none"/><path d="M107.723 133.168l8.504-5.06" stroke-width="1.2" stroke="#000" stroke-miterlimit="10" fill="none"/><path d="M84.113 126.988h21v15h-21zm0 0" fill="#fff"/><g fill="#00f"><use xlink:href="#a" x="84.113" y="139.09"/><use xlink:href="#b" x="91.091" y="139.09"/></g><use xlink:href="#c" x="98.105" y="134.207" fill="#00f"/><path d="M115.38 121.84l-.32-24.738M115.38 121.84l10.792 6.047" stroke-width="1.2" stroke="#000" stroke-miterlimit="10" fill="none"/><path d="M126.172 127.887l10.793 6.05" stroke-width="1.2" stroke="#00f" stroke-miterlimit="10" fill="none"/><path d="M115.06 97.102l21.268-12.65M115.06 97.102L93.476 85.004M136.328 84.453l10.633-6.32" stroke-width="1.2" stroke="#000" stroke-miterlimit="10" fill="none"/><path d="M146.96 78.133l10.634-6.324" stroke-width="1.2" stroke="#00f" stroke-miterlimit="10" fill="none"/><path d="M141.43 88.195l8.507-5.058" stroke-width="1.2" stroke="#000" stroke-miterlimit="10" fill="none"/><path d="M149.938 83.137l8.507-5.06" stroke-width="1.2" stroke="#00f" stroke-miterlimit="10" fill="none"/><path d="M135.48 78.188l8.504-5.06" stroke-width="1.2" stroke="#000" stroke-miterlimit="10" fill="none"/><path d="M143.984 73.13l8.508-5.06" stroke-width="1.2" stroke="#00f" stroke-miterlimit="10" fill="none"/><path d="M154.594 66.31h7v11h-7zm0 0" fill="#fff"/><use xlink:href="#a" x="154.594" y="74.972" fill="#00f"/><path d="M93.477 85.004l-10.793-6.047" stroke-width="1.2" stroke="#000" stroke-miterlimit="10" fill="none"/><path d="M82.684 78.957L71.89 72.91" stroke-width="1.2" stroke="#00f" stroke-miterlimit="10" fill="none"/><path d="M94.164 78.72l-8.637-4.84" stroke-width="1.2" stroke="#000" stroke-miterlimit="10" fill="none"/><path d="M85.527 73.88l-8.632-4.837" stroke-width="1.2" stroke="#00f" stroke-miterlimit="10" fill="none"/><path d="M88.47 88.875l-8.634-4.836" stroke-width="1.2" stroke="#000" stroke-miterlimit="10" fill="none"/><path d="M79.836 84.04l-8.633-4.84" stroke-width="1.2" stroke="#00f" stroke-miterlimit="10" fill="none"/><path d="M64.89 67.41h7v11h-7zm0 0" fill="#fff"/><use xlink:href="#a" x="64.891" y="76.073" fill="#00f"/><path d="M158.23 121.29l-23.496 8.894 4.46 7.504zm0 0"/><path d="M129.965 128.438h14v11h-14zm0 0" fill="#fff"/><g fill="#00f"><use xlink:href="#a" x="129.965" y="137.101"/><use xlink:href="#b" x="136.942" y="137.101"/></g><path d="M158.23 121.29l-2.164-24.65M178.852 134.965L158.23 121.29M156.066 96.64l17.918-17.058M173.984 79.582l24.512 3.37M198.496 82.953l12.65 21.266M211.145 104.22l-4.372 11.573" stroke-width="1.2" stroke="#000" stroke-miterlimit="10" fill="none"/><path d="M206.773 115.793l-4.37 11.574M202.402 127.367l8.528 8.96" stroke-width="1.2" stroke="#00f" stroke-miterlimit="10" fill="none"/><path d="M210.93 136.328l8.53 8.957" stroke-width="1.2" stroke="#000" stroke-miterlimit="10" fill="none"/><path d="M202.402 127.367l-11.777 3.797" stroke-width="1.2" stroke="#00f" stroke-miterlimit="10" fill="none"/><path d="M190.625 131.164l-11.773 3.8" stroke-width="1.2" stroke="#000" stroke-miterlimit="10" fill="none"/><path d="M199.402 121.867h7v11h-7zm0 0" fill="#fff"/><use xlink:href="#a" x="199.402" y="130.53" fill="#00f"/><path d="M219.46 145.285l-6.987 23.738M212.473 169.023l8.53 8.957" stroke-width="1.2" stroke="#000" stroke-miterlimit="10" fill="none"/><path d="M221.004 177.98l8.53 8.96" stroke-width="1.2" stroke="#00f" stroke-miterlimit="10" fill="none"/><path d="M211.79 166.19l-12.024 2.912" stroke-width="1.2" stroke="#000" stroke-miterlimit="10" fill="none"/><path d="M199.766 169.102l-12.028 2.906" stroke-width="1.2" stroke="#f00" stroke-miterlimit="10" fill="none"/><path d="M213.156 171.852l-12.023 2.906" stroke-width="1.2" stroke="#000" stroke-miterlimit="10" fill="none"/><path d="M201.133 174.758l-12.024 2.91" stroke-width="1.2" stroke="#f00" stroke-miterlimit="10" fill="none"/><path d="M229.535 186.94l12.262-1.63" stroke-width="1.2" stroke="#00f" stroke-miterlimit="10" fill="none"/><path d="M241.797 185.31l12.266-1.638" stroke-width="1.2" stroke="#000" stroke-miterlimit="10" fill="none"/><path d="M229.535 186.94l-2.234 12.17" stroke-width="1.2" stroke="#00f" stroke-miterlimit="10" fill="none"/><path d="M227.3 199.11l-2.234 12.167" stroke-width="1.2" stroke="#000" stroke-miterlimit="10" fill="none"/><path d="M226.535 181.44h7v11h-7zm0 0" fill="#fff"/><use xlink:href="#a" x="226.535" y="190.104" fill="#00f"/><path d="M254.063 183.672l10.687 22.316M264.75 205.988l-17.918 17.06M225.066 211.277l21.766 11.77" stroke-width="1.2" stroke="#000" stroke-miterlimit="10" fill="none"/><path d="M180.426 169.34h8v11h-8zm0 0" fill="#fff"/><use xlink:href="#d" x="180.426" y="178.003" fill="#f00"/><path d="M175.97 134.566l-1.69 12.258" stroke-width="1.2" stroke="#000" stroke-miterlimit="10" fill="none"/><path d="M174.28 146.824l-1.682 12.254" stroke-width="1.2" stroke="#f00" stroke-miterlimit="10" fill="none"/><path d="M181.738 135.36l-1.687 12.257" stroke-width="1.2" stroke="#000" stroke-miterlimit="10" fill="none"/><path d="M180.05 147.617l-1.687 12.254" stroke-width="1.2" stroke="#f00" stroke-miterlimit="10" fill="none"/><path d="M171.48 153.977h8v11h-8zm0 0" fill="#fff"/><use xlink:href="#d" x="171.48" y="162.64" fill="#f00"/></g></svg>