<svg xmlns="http://www.w3.org/2000/svg" xmlns:xlink="http://www.w3.org/1999/xlink" width="300pt" height="300pt" viewBox="0 0 300 300"><defs><symbol overflow="visible"><path d="M.453 1.594v-7.938h4.5v7.938zm.5-.5h3.5v-6.938h-3.5zm0 0"/></symbol><symbol overflow="visible" id="a"><path d="M.89-6.563H2.08l2.906 5.485v-5.484h.86V0H4.656L1.75-5.484V0H.89zm0 0"/></symbol><symbol overflow="visible" id="b"><path d="M.89-6.563h.876v2.688H5v-2.688h.89V0H5v-3.125H1.766V0H.89zm0 0"/></symbol><symbol overflow="visible" id="d"><path d="M3.547-5.953c-.65 0-1.164.242-1.547.72-.375.48-.563 1.13-.563 1.952 0 .835.188 1.49.563 1.967.383.48.898.72 1.547.72.644 0 1.156-.24 1.53-.72.376-.476.564-1.132.564-1.968 0-.822-.187-1.474-.562-1.954-.375-.477-.887-.72-1.53-.72zm0-.734c.914 0 1.648.312 2.203.937.55.617.828 1.438.828 2.47 0 1.042-.277 1.87-.828 2.483-.555.617-1.29.922-2.203.922-.93 0-1.668-.305-2.22-.922C.774-1.41.5-2.237.5-3.28c0-1.033.273-1.853.828-2.47.55-.625 1.29-.938 2.22-.938zm0 0"/></symbol><symbol overflow="visible"><path d="M.406 1.422V-5.64h4V1.42zM.844.97h3.11v-6.157H.843zm0 0"/></symbol><symbol overflow="visible" id="c"><path d="M1.53-.672h2.767V0H.594v-.672c.29-.3.695-.71 1.22-1.234.518-.532.842-.867.967-1.016.26-.28.44-.52.533-.72.1-.194.156-.39.156-.577 0-.31-.11-.565-.33-.764-.218-.196-.5-.297-.843-.297-.25 0-.516.046-.797.14-.273.085-.563.214-.875.39v-.797c.32-.133.617-.234.89-.297.282-.062.536-.093.766-.093.603 0 1.083.152 1.44.453.362.304.546.703.546 1.203 0 .24-.047.468-.14.686-.095.22-.26.477-.485.766-.074.074-.288.293-.64.656-.344.356-.836.856-1.47 1.5zm0 0"/></symbol><symbol overflow="visible" id="e"><path d="M3.688-5.016v2.172h2.17v.672H3.69V0H3.03v-2.172H.845v-.672H3.03v-2.172zm0 0"/></symbol></defs><g><path fill="#fff" d="M0 0h300v300H0z"/><path d="M112.38 163.832l-20.825 9.582M112.55 169.69l-16.655 7.665M112.38 163.832l1.058-11.414" stroke-width="1.2" stroke="#000" stroke-miterlimit="10" fill="none"/><path d="M113.438 152.418l1.058-11.41" stroke-width="1.2" stroke="#00f" stroke-miterlimit="10" fill="none"/><path d="M131.09 177.074l-18.71-13.242M91.555 173.414l-10.528-4.53" stroke-width="1.2" stroke="#000" stroke-miterlimit="10" fill="none"/><path d="M81.027 168.883L70.5 164.348" stroke-width="1.2" stroke="#00f" stroke-miterlimit="10" fill="none"/><path d="M91.555 173.414l-2.114 22.824" stroke-width="1.2" stroke="#000" stroke-miterlimit="10" fill="none"/><path d="M70.5 164.348l-7.563 8.613" stroke-width="1.2" stroke="#00f" stroke-miterlimit="10" fill="none"/><path d="M62.938 172.96l-7.563 8.614" stroke-width="1.2" stroke="#000" stroke-miterlimit="10" fill="none"/><path d="M63.5 158.848h14v11h-14zm0 0" fill="#fff"/><g fill="#00f"><use xlink:href="#a" x="63.5" y="167.511"/><use xlink:href="#b" x="70.478" y="167.511"/></g><path d="M55.375 181.574l11.707 19.707M61.184 180.79l9.363 15.765M67.082 201.28l-9.066 21.056M89.44 196.238l-22.358 5.043M58.016 222.336l-11.383 1.34" stroke-width="1.2" stroke="#000" stroke-miterlimit="10" fill="none"/><path d="M46.633 223.676l-11.383 1.34" stroke-width="1.2" stroke="#00f" stroke-miterlimit="10" fill="none"/><path d="M55.855 223.95l6.852 9.187" stroke-width="1.2" stroke="#000" stroke-miterlimit="10" fill="none"/><path d="M62.707 233.137l6.848 9.187" stroke-width="1.2" stroke="#f00" stroke-miterlimit="10" fill="none"/><path d="M60.18 220.723l6.847 9.19" stroke-width="1.2" stroke="#000" stroke-miterlimit="10" fill="none"/><path d="M67.027 229.914l6.852 9.188" stroke-width="1.2" stroke="#f00" stroke-miterlimit="10" fill="none"/><path d="M16.25 217.016h19v16h-19zm0 0" fill="#fff"/><use xlink:href="#b" x="16.25" y="225.679" fill="#00f"/><use xlink:href="#c" x="23.265" y="230.562" fill="#00f"/><use xlink:href="#a" x="28.215" y="225.679" fill="#00f"/><path d="M67.72 235.215h8v11h-8zm0 0" fill="#fff"/><use xlink:href="#d" x="67.719" y="243.878" fill="#f00"/><path d="M89.44 196.238l18.712 13.242M94.43 193.16l14.968 10.594M108.152 209.48l20.825-9.578M128.977 199.902l2.113-22.828M123.816 197.12l1.692-18.26" stroke-width="1.2" stroke="#000" stroke-miterlimit="10" fill="none"/><path d="M114.496 141.008l10.41-4.793" stroke-width="1.2" stroke="#00f" stroke-miterlimit="10" fill="none"/><path d="M124.906 136.215l10.414-4.79" stroke-width="1.2" stroke="#000" stroke-miterlimit="10" fill="none"/><path d="M118.832 144.95l8.328-3.833" stroke-width="1.2" stroke="#00f" stroke-miterlimit="10" fill="none"/><path d="M127.16 141.117l8.332-3.836" stroke-width="1.2" stroke="#000" stroke-miterlimit="10" fill="none"/><path d="M104.496 133.508h21v15h-21zm0 0" fill="#fff"/><g fill="#00f"><use xlink:href="#a" x="104.496" y="145.609"/><use xlink:href="#b" x="111.474" y="145.609"/></g><use xlink:href="#e" x="118.488" y="140.727" fill="#00f"/><path d="M137.434 108.598m-.793 2.894l1.04.098m-1.828 2.797l2.074.19m-2.867 2.704l3.112.29m-3.906 2.606l4.156.383m-4.945 2.506l5.19.48m-5.983 2.415l6.23.58m-7.023 2.315l7.27.672m-7.867 1.524l8.055.747" stroke="#000" stroke-miterlimit="10" fill="none"/><path d="M135.32 131.426l9.356 6.62" stroke-width="1.2" stroke="#000" stroke-miterlimit="10" fill="none"/><path d="M144.676 138.047l9.355 6.62" stroke-width="1.2" stroke="#00f" stroke-miterlimit="10" fill="none"/><path d="M137.434 108.598l-18.71-13.243M137.434 108.598l20.824-9.582M118.723 95.355l1.058-11.414" stroke-width="1.2" stroke="#000" stroke-miterlimit="10" fill="none"/><path d="M119.78 83.94l1.056-11.41" stroke-width="1.2" stroke="#00f" stroke-miterlimit="10" fill="none"/><path d="M117.598 92.906l-10.414 4.79" stroke-width="1.2" stroke="#000" stroke-miterlimit="10" fill="none"/><path d="M107.184 97.695l-10.41 4.793" stroke-width="1.2" stroke="#f00" stroke-miterlimit="10" fill="none"/><path d="M119.852 97.805l-10.415 4.793" stroke-width="1.2" stroke="#000" stroke-miterlimit="10" fill="none"/><path d="M109.438 102.598l-10.41 4.79" stroke-width="1.2" stroke="#f00" stroke-miterlimit="10" fill="none"/><path d="M120.836 72.53l-9.352-6.62" stroke-width="1.2" stroke="#00f" stroke-miterlimit="10" fill="none"/><path d="M111.484 65.91l-9.355-6.625" stroke-width="1.2" stroke="#000" stroke-miterlimit="10" fill="none"/><path d="M120.836 72.53l10.414-4.792" stroke-width="1.2" stroke="#00f" stroke-miterlimit="10" fill="none"/><path d="M131.25 67.738l10.41-4.79" stroke-width="1.2" stroke="#000" stroke-miterlimit="10" fill="none"/><path d="M117.836 67.03h7v11h-7zm0 0" fill="#fff"/><use xlink:href="#a" x="117.836" y="75.694" fill="#00f"/><path d="M89.898 99.438h8v11h-8zm0 0" fill="#fff"/><use xlink:href="#d" x="89.898" y="108.101" fill="#f00"/><path d="M158.258 99.016l10.414-4.79" stroke-width="1.2" stroke="#000" stroke-miterlimit="10" fill="none"/><path d="M168.672 94.227l10.41-4.79" stroke-width="1.2" stroke="#00f" stroke-miterlimit="10" fill="none"/><path d="M162.594 102.96l8.332-3.835" stroke-width="1.2" stroke="#000" stroke-miterlimit="10" fill="none"/><path d="M170.926 99.125l8.328-3.832" stroke-width="1.2" stroke="#00f" stroke-miterlimit="10" fill="none"/><path d="M158.086 93.16l8.328-3.832" stroke-width="1.2" stroke="#000" stroke-miterlimit="10" fill="none"/><path d="M166.414 89.328l8.332-3.832" stroke-width="1.2" stroke="#00f" stroke-miterlimit="10" fill="none"/><path d="M176.082 83.938h7v11h-7zm0 0" fill="#fff"/><use xlink:href="#a" x="176.082" y="92.601" fill="#00f"/><path d="M174.855 135.086l-22.515 5.906 3.38 7.352zm0 0"/><path d="M147.03 139.168h14v11h-14zm0 0" fill="#fff"/><g fill="#00f"><use xlink:href="#a" x="147.031" y="147.831"/><use xlink:href="#b" x="154.009" y="147.831"/></g><path d="M174.855 135.086l.403-22.918M192.523 149.69l-17.668-14.604M175.258 112.168l18.168-13.977M193.426 98.19l22.258 5.494M215.684 103.684l9.582 20.824M225.266 124.508l-5.157 10.238" stroke-width="1.2" stroke="#000" stroke-miterlimit="10" fill="none"/><path d="M220.11 134.746l-5.153 10.238M214.957 144.984l6.988 9.086" stroke-width="1.2" stroke="#00f" stroke-miterlimit="10" fill="none"/><path d="M221.945 154.07l6.99 9.082" stroke-width="1.2" stroke="#000" stroke-miterlimit="10" fill="none"/><path d="M214.957 144.984l-11.22 2.352" stroke-width="1.2" stroke="#00f" stroke-miterlimit="10" fill="none"/><path d="M203.738 147.336l-11.215 2.355" stroke-width="1.2" stroke="#000" stroke-miterlimit="10" fill="none"/><path d="M211.957 139.484h7v11h-7zm0 0" fill="#fff"/><use xlink:href="#a" x="211.957" y="148.147" fill="#00f"/><path d="M228.934 163.152l-8.75 21.192M220.184 184.344l6.988 9.082" stroke-width="1.2" stroke="#000" stroke-miterlimit="10" fill="none"/><path d="M227.172 193.426l6.988 9.086" stroke-width="1.2" stroke="#00f" stroke-miterlimit="10" fill="none"/><path d="M219.828 181.668l-11.36 1.512" stroke-width="1.2" stroke="#000" stroke-miterlimit="10" fill="none"/><path d="M208.47 183.18l-11.365 1.507" stroke-width="1.2" stroke="#f00" stroke-miterlimit="10" fill="none"/><path d="M220.54 187.016l-11.364 1.507" stroke-width="1.2" stroke="#000" stroke-miterlimit="10" fill="none"/><path d="M209.176 188.523l-11.36 1.512" stroke-width="1.2" stroke="#f00" stroke-miterlimit="10" fill="none"/><path d="M234.16 202.512l11.457-.313" stroke-width="1.2" stroke="#00f" stroke-miterlimit="10" fill="none"/><path d="M245.617 202.2l11.457-.313" stroke-width="1.2" stroke="#000" stroke-miterlimit="10" fill="none"/><path d="M234.16 202.512l-3.242 10.992" stroke-width="1.2" stroke="#00f" stroke-miterlimit="10" fill="none"/><path d="M230.918 213.504l-3.246 10.996" stroke-width="1.2" stroke="#000" stroke-miterlimit="10" fill="none"/><path d="M231.16 197.012h7v11h-7zm0 0" fill="#fff"/><use xlink:href="#a" x="231.16" y="205.675" fill="#00f"/><path d="M257.074 201.887l7.676 21.597M264.75 223.484l-18.172 13.977M227.672 224.5l18.906 12.96" stroke-width="1.2" stroke="#000" stroke-miterlimit="10" fill="none"/><path d="M189.46 181.86h8v11h-8zm0 0" fill="#fff"/><use xlink:href="#d" x="189.461" y="190.522" fill="#f00"/><path d="M189.902 149.047l-2.746 11.125" stroke-width="1.2" stroke="#000" stroke-miterlimit="10" fill="none"/><path d="M187.156 160.172l-2.746 11.13" stroke-width="1.2" stroke="#f00" stroke-miterlimit="10" fill="none"/><path d="M195.14 150.336l-2.745 11.13" stroke-width="1.2" stroke="#000" stroke-miterlimit="10" fill="none"/><path d="M192.395 161.465l-2.747 11.13" stroke-width="1.2" stroke="#f00" stroke-miterlimit="10" fill="none"/><path d="M183.03 166.445h8v11h-8zm0 0" fill="#fff"/><use xlink:href="#d" x="183.031" y="175.108" fill="#f00"/></g></svg>