<svg xmlns="http://www.w3.org/2000/svg" xmlns:xlink="http://www.w3.org/1999/xlink" width="300pt" height="300pt" viewBox="0 0 300 300"><defs><symbol overflow="visible"><path d="M.64 2.297v-11.47h6.5v11.47zm.735-.72h5.047V-8.436H1.375zm0 0"/></symbol><symbol overflow="visible" id="a"><path d="M1.28-9.484H3l4.203 7.937v-7.937h1.25V0H6.72L2.515-7.922V0H1.28zm0 0"/></symbol><symbol overflow="visible" id="b"><path d="M6.953-9.172v1.25c-.48-.226-.937-.398-1.375-.516-.43-.113-.844-.17-1.25-.17-.7 0-1.242.135-1.625.405-.375.273-.562.656-.562 1.156 0 .418.126.734.376.953.257.21.738.383 1.437.516l.78.156c.947.188 1.65.512 2.11.97.458.46.688 1.073.688 1.843 0 .92-.307 1.618-.92 2.094-.618.47-1.524.704-2.72.704-.45 0-.93-.055-1.437-.157C1.953-.07 1.43-.222.89-.42v-1.312c.52.293 1.032.51 1.532.656.5.148.988.22 1.47.22.737 0 1.303-.142 1.702-.423.394-.29.593-.704.593-1.236 0-.468-.148-.832-.437-1.093-.28-.257-.746-.456-1.39-.593l-.782-.156c-.96-.187-1.652-.484-2.078-.89-.43-.406-.64-.97-.64-1.688 0-.843.288-1.503.874-1.984.594-.488 1.41-.734 2.454-.734.437 0 .882.043 1.343.125.47.085.943.202 1.423.358zm0 0"/></symbol><symbol overflow="visible" id="c"><path d="M8.375-8.75v1.36c-.438-.407-.902-.708-1.39-.907-.48-.195-.997-.297-1.548-.297-1.085 0-1.917.336-2.5 1-.574.657-.86 1.61-.86 2.86 0 1.25.286 2.21.86 2.875.583.657 1.415.985 2.5.985.55 0 1.067-.098 1.547-.297.49-.195.954-.492 1.39-.89v1.328c-.448.312-.92.546-1.42.703-.5.143-1.032.217-1.595.217-1.438 0-2.57-.437-3.39-1.312C1.144-2.008.733-3.21.733-4.735c0-1.52.41-2.718 1.235-3.593.82-.883 1.952-1.328 3.39-1.328.562 0 1.093.078 1.593.234.508.15.984.37 1.422.672zm0 0"/></symbol><symbol overflow="visible" id="d"><path d="M1.22-9.875h1.17V0H1.22zm0 0"/></symbol></defs><g><path fill="#fff" d="M0 0h300v300H0z"/><path d="M35.25 223.934l11.734-11.594" stroke-width="1.2" stroke="#000" stroke-miterlimit="10" fill="none"/><path d="M46.984 212.34l11.735-11.594M58.72 200.746l-4.173-15.96" stroke-width="1.2" stroke="#00f" stroke-miterlimit="10" fill="none"/><path d="M54.547 184.785l-4.176-15.96" stroke-width="1.2" stroke="#000" stroke-miterlimit="10" fill="none"/><path d="M58.72 200.746l15.91 4.363" stroke-width="1.2" stroke="#00f" stroke-miterlimit="10" fill="none"/><path d="M74.63 205.11l15.91 4.367" stroke-width="1.2" stroke="#000" stroke-miterlimit="10" fill="none"/><path d="M53.72 192.746h10v16h-10zm0 0" fill="#fff"/><use xlink:href="#a" x="53.719" y="205.122" fill="#00f"/><path d="M90.54 209.477l23.468-23.192M114.008 186.285l31.816 8.73M145.824 195.016l11.738-11.594" stroke-width="1.2" stroke="#000" stroke-miterlimit="10" fill="none"/><path d="M157.563 183.422l11.734-11.594M169.297 171.828l15.906 4.363" stroke-width="1.2" stroke="#00f" stroke-miterlimit="10" fill="none"/><path d="M185.203 176.19l15.91 4.37M160.95 139.906l4.17 15.96" stroke-width="1.2" stroke="#000" stroke-miterlimit="10" fill="none"/><path d="M165.12 155.867l4.177 15.96" stroke-width="1.2" stroke="#00f" stroke-miterlimit="10" fill="none"/><path d="M164.297 163.828h10v16h-10zm0 0" fill="#fff"/><use xlink:href="#a" x="164.297" y="176.204" fill="#00f"/><path d="M201.113 180.56l8.348 31.917M209.46 181.785l6.677 25.535M224.582 157.367l-23.47 23.192M209.46 212.477l31.82 8.73M241.28 221.207l23.47-23.187M238.172 213.367l18.773-18.55M264.75 198.02l-8.348-31.922M256.402 166.098l-31.82-8.73M251.164 172.71l-25.453-6.983M224.582 157.367l-4.172-15.96" stroke-width="1.2" stroke="#000" stroke-miterlimit="10" fill="none"/><path d="M220.41 141.406l-4.176-15.96M216.234 125.445l-15.906-4.363" stroke-width="1.2" stroke="#cc0" stroke-miterlimit="10" fill="none"/><path d="M200.328 121.082l-15.91-4.367" stroke-width="1.2" stroke="#000" stroke-miterlimit="10" fill="none"/><path d="M212.234 117.445h9v16h-9zm0 0" fill="#fff"/><use xlink:href="#b" x="212.234" y="129.821" fill="#cc0"/><path d="M184.418 116.715l-23.47 23.19M176.613 113.512l-18.773 18.554M176.07 84.797l8.348 31.918M160.95 139.906l-31.82-8.73M129.13 131.176l-8.35-31.922M135.805 126.02l-6.676-25.536M120.78 99.254l23.47-23.188M120.78 99.254l-15.91-4.363" stroke-width="1.2" stroke="#000" stroke-miterlimit="10" fill="none"/><path d="M104.87 94.89l-15.905-4.367" stroke-width="1.2" stroke="#0c0" stroke-miterlimit="10" fill="none"/><path d="M144.25 76.066l31.82 8.73M145.38 84.426l25.452 6.984" stroke-width="1.2" stroke="#000" stroke-miterlimit="10" fill="none"/><path d="M74.965 82.523h14v16h-14zm0 0" fill="#fff"/><g fill="#0c0"><use xlink:href="#c" x="74.965" y="94.899"/><use xlink:href="#d" x="84.271" y="94.899"/></g></g></svg>