<svg xmlns="http://www.w3.org/2000/svg" xmlns:xlink="http://www.w3.org/1999/xlink" width="300pt" height="300pt" viewBox="0 0 300 300"><defs><symbol overflow="visible"><path d="M.453 1.594v-7.938h4.5v7.938zm.5-.5h3.5v-6.938h-3.5zm0 0"/></symbol><symbol overflow="visible" id="a"><path d="M3.547-5.953c-.65 0-1.164.242-1.547.72-.375.48-.563 1.13-.563 1.952 0 .835.188 1.49.563 1.967.383.48.898.72 1.547.72.644 0 1.156-.24 1.53-.72.376-.476.564-1.132.564-1.968 0-.822-.187-1.474-.562-1.954-.375-.477-.887-.72-1.53-.72zm0-.734c.914 0 1.648.312 2.203.937.55.617.828 1.438.828 2.47 0 1.042-.277 1.87-.828 2.483-.555.617-1.29.922-2.203.922-.93 0-1.668-.305-2.22-.922C.774-1.41.5-2.237.5-3.28c0-1.033.273-1.853.828-2.47.55-.625 1.29-.938 2.22-.938zm0 0"/></symbol><symbol overflow="visible" id="b"><path d="M.89-6.563H2.08l2.906 5.485v-5.484h.86V0H4.656L1.75-5.484V0H.89zm0 0"/></symbol><symbol overflow="visible" id="c"><path d="M.89-6.563h.876v2.688H5v-2.688h.89V0H5v-3.125H1.766V0H.89zm0 0"/></symbol></defs><g><path fill="#fff" d="M0 0h300v300H0z"/><path d="M197.574 164.12l-8.512 1.036" stroke-width="1.2" stroke="#f00" stroke-miterlimit="10" fill="none"/><path d="M189.063 165.156l-8.516 1.03" stroke-width="1.2" stroke="#000" stroke-miterlimit="10" fill="none"/><path d="M197.574 164.12l3.363-7.89" stroke-width="1.2" stroke="#f00" stroke-miterlimit="10" fill="none"/><path d="M200.938 156.23l3.363-7.886" stroke-width="1.2" stroke="#000" stroke-miterlimit="10" fill="none"/><path d="M193.574 158.62h8v11h-8zm0 0" fill="#fff"/><use xlink:href="#a" x="193.574" y="167.284" fill="#f00"/><path d="M180.547 166.188l-6.723 15.78M170.246 152.477l10.3 13.71M168.047 156.27l8.242 10.972M173.824 181.97l-17.027 2.065M184.13 195.68l-10.306-13.71M179.87 196.734l-8.24-10.972M156.797 184.035l-6.727 15.778M159.836 187.195l-5.38 12.62M156.797 184.035l-10.305-13.715M150.07 199.813l10.305 13.714M160.375 213.527l17.027-2.066M161.594 209.313l13.62-1.653M177.402 211.46l6.727-15.78M146.492 170.32l-8.512 1.035" stroke-width="1.2" stroke="#000" stroke-miterlimit="10" fill="none"/><path d="M137.98 171.355l-8.515 1.032" stroke-width="1.2" stroke="#00f" stroke-miterlimit="10" fill="none"/><path d="M146.492 170.32l6.727-15.777M150.88 170.324l5.378-12.62" stroke-width="1.2" stroke="#000" stroke-miterlimit="10" fill="none"/><path d="M129.465 172.387l-5.153-6.856" stroke-width="1.2" stroke="#00f" stroke-miterlimit="10" fill="none"/><path d="M124.313 165.53l-5.15-6.854" stroke-width="1.2" stroke="#000" stroke-miterlimit="10" fill="none"/><path d="M122.465 166.887h14v11h-14zm0 0" fill="#fff"/><g fill="#00f"><use xlink:href="#b" x="122.465" y="175.55"/><use xlink:href="#c" x="129.442" y="175.55"/></g><path d="M121.02 159.465l3.36-7.89" stroke-width="1.2" stroke="#000" stroke-miterlimit="10" fill="none"/><path d="M124.38 151.574l3.362-7.887" stroke-width="1.2" stroke="#f00" stroke-miterlimit="10" fill="none"/><path d="M117.305 157.883l3.363-7.89" stroke-width="1.2" stroke="#000" stroke-miterlimit="10" fill="none"/><path d="M120.668 149.992l3.363-7.887" stroke-width="1.2" stroke="#f00" stroke-miterlimit="10" fill="none"/><path d="M119.164 158.676l-8.516 1.03" stroke-width="1.2" stroke="#000" stroke-miterlimit="10" fill="none"/><path d="M110.648 159.707l-8.51 1.035" stroke-width="1.2" stroke="#00f" stroke-miterlimit="10" fill="none"/><path d="M121.887 137.395h8v11h-8zm0 0" fill="#fff"/><use xlink:href="#a" x="121.887" y="146.058" fill="#f00"/><path d="M102.137 160.742l-5.153-6.86" stroke-width="1.2" stroke="#00f" stroke-miterlimit="10" fill="none"/><path d="M96.984 153.883l-5.152-6.856" stroke-width="1.2" stroke="#000" stroke-miterlimit="10" fill="none"/><path d="M95.137 155.242h14v11h-14zm0 0" fill="#fff"/><g fill="#00f"><use xlink:href="#b" x="95.137" y="163.905"/><use xlink:href="#c" x="102.114" y="163.905"/></g><path d="M91.832 147.027l-8.574.137" stroke-width="1.2" stroke="#000" stroke-miterlimit="10" fill="none"/><path d="M83.258 147.164l-8.578.14" stroke-width="1.2" stroke="#00f" stroke-miterlimit="10" fill="none"/><path d="M96.87 130.633l-5.038 16.394M92.508 131.086l-4.03 13.117" stroke-width="1.2" stroke="#000" stroke-miterlimit="10" fill="none"/><path d="M74.68 147.305l-5.56-16.227M74.68 147.305l-4.926 7.015" stroke-width="1.2" stroke="#00f" stroke-miterlimit="10" fill="none"/><path d="M69.754 154.32l-4.93 7.02" stroke-width="1.2" stroke="#000" stroke-miterlimit="10" fill="none"/><path d="M71.68 141.805h7v11h-7zm0 0" fill="#fff"/><use xlink:href="#b" x="71.68" y="150.468" fill="#00f"/><path d="M69.12 131.078l6.857-5.152" stroke-width="1.2" stroke="#00f" stroke-miterlimit="10" fill="none"/><path d="M75.977 125.926l6.855-5.153" stroke-width="1.2" stroke="#000" stroke-miterlimit="10" fill="none"/><path d="M72.914 133.273l5.488-4.12" stroke-width="1.2" stroke="#00f" stroke-miterlimit="10" fill="none"/><path d="M78.402 129.152l5.485-4.12" stroke-width="1.2" stroke="#000" stroke-miterlimit="10" fill="none"/><path d="M66.12 125.578h7v11h-7zm0 0" fill="#fff"/><use xlink:href="#b" x="66.121" y="134.241" fill="#00f"/><path d="M82.832 120.773l14.04 9.86M82.832 120.773l-.273-17.148M82.56 103.625l17.147-.277M82.56 103.625l-17.154.273M82.56 103.625l-.28-17.152M64.824 161.34l-17.086-1.52M62.758 165.207l-13.668-1.215M72.05 176.895l-7.226-15.555M47.738 159.82l-9.86 14.04M37.88 173.86l7.23 15.554M42.262 173.71l5.785 12.446M45.11 189.414l17.08 1.52M45.11 189.414l-9.86 14.035M62.19 190.934l9.86-14.04M59.875 187.207l7.887-11.227M153.22 154.543l17.026-2.066M204.3 148.344l17.028-2.067M205.516 144.13l13.62-1.653M193.996 134.63l10.305 13.714M221.328 146.277l6.465 5.633" stroke-width="1.2" stroke="#000" stroke-miterlimit="10" fill="none"/><path d="M227.793 151.91l6.46 5.637" stroke-width="1.2" stroke="#00f" stroke-miterlimit="10" fill="none"/><path d="M228.05 130.496l-6.722 15.78" stroke-width="1.2" stroke="#000" stroke-miterlimit="10" fill="none"/><path d="M234.254 157.547l-.758 8.543" stroke-width="1.2" stroke="#00f" stroke-miterlimit="10" fill="none"/><path d="M233.496 166.09l-.758 8.543" stroke-width="1.2" stroke="#000" stroke-miterlimit="10" fill="none"/><path d="M234.254 157.547l7.36-4.406" stroke-width="1.2" stroke="#00f" stroke-miterlimit="10" fill="none"/><path d="M241.613 153.14l7.356-4.406" stroke-width="1.2" stroke="#000" stroke-miterlimit="10" fill="none"/><path d="M231.254 152.047h7v11h-7zm0 0" fill="#fff"/><use xlink:href="#b" x="231.254" y="160.71" fill="#00f"/><path d="M248.18 150.59l7.89 3.363" stroke-width="1.2" stroke="#000" stroke-miterlimit="10" fill="none"/><path d="M256.07 153.953l7.887 3.36" stroke-width="1.2" stroke="#f00" stroke-miterlimit="10" fill="none"/><path d="M249.762 146.875l7.89 3.363" stroke-width="1.2" stroke="#000" stroke-miterlimit="10" fill="none"/><path d="M257.652 150.238l7.89 3.364" stroke-width="1.2" stroke="#f00" stroke-miterlimit="10" fill="none"/><path d="M248.97 148.734l-1.915-8.36" stroke-width="1.2" stroke="#000" stroke-miterlimit="10" fill="none"/><path d="M247.055 140.375l-1.918-8.36" stroke-width="1.2" stroke="#00f" stroke-miterlimit="10" fill="none"/><path d="M260.75 149.957h8v11h-8zm0 0" fill="#fff"/><use xlink:href="#a" x="260.75" y="158.62" fill="#f00"/><path d="M245.137 132.016l-8.543-.762" stroke-width="1.2" stroke="#00f" stroke-miterlimit="10" fill="none"/><path d="M236.594 131.254l-8.543-.758" stroke-width="1.2" stroke="#000" stroke-miterlimit="10" fill="none"/><path d="M238.137 126.516h14v11h-14zm0 0" fill="#fff"/><g fill="#00f"><use xlink:href="#b" x="238.137" y="135.179"/><use xlink:href="#c" x="245.114" y="135.179"/></g><path d="M228.05 130.496l-5.152-6.855" stroke-width="1.2" stroke="#000" stroke-miterlimit="10" fill="none"/><path d="M222.898 123.64l-5.152-6.86" stroke-width="1.2" stroke="#00f" stroke-miterlimit="10" fill="none"/><path d="M223.793 131.55l-4.12-5.488" stroke-width="1.2" stroke="#000" stroke-miterlimit="10" fill="none"/><path d="M219.672 126.063l-4.12-5.485M217.746 116.78l-8.512 1.036" stroke-width="1.2" stroke="#00f" stroke-miterlimit="10" fill="none"/><path d="M209.234 117.816l-8.515 1.036" stroke-width="1.2" stroke="#000" stroke-miterlimit="10" fill="none"/><path d="M214.746 111.28h7v11h-7zm0 0" fill="#fff"/><use xlink:href="#b" x="214.746" y="119.944" fill="#00f"/><path d="M200.72 118.852l-6.724 15.777M203.762 122.008l-5.38 12.625" stroke-width="1.2" stroke="#000" stroke-miterlimit="10" fill="none"/></g></svg>