<svg xmlns="http://www.w3.org/2000/svg" xmlns:xlink="http://www.w3.org/1999/xlink" width="300pt" height="300pt" viewBox="0 0 300 300"><defs><symbol overflow="visible"><path d="M.797 2.828v-14.11h8V2.83zm.906-.89h6.203v-12.33H1.703zm0 0"/></symbol><symbol overflow="visible" id="a"><path d="M1.578-11.672H8.28v1.328H3.157v3.438H7.78v1.328H3.157V0H1.578zm0 0"/></symbol><symbol overflow="visible" id="b"><path d="M1.578-11.672h2.125l5.172 9.766v-9.766h1.53V0H8.282L3.11-9.766V0H1.577zm0 0"/></symbol><symbol overflow="visible" id="c"><path d="M6.313-10.594c-1.15 0-2.06.43-2.735 1.28-.68.857-1.015 2.017-1.015 3.486 0 1.47.335 2.633 1.015 3.484.676.856 1.586 1.28 2.735 1.28 1.144.002 2.05-.424 2.718-1.28.665-.85 1-2.015 1-3.484 0-1.47-.335-2.63-1-3.484-.667-.852-1.573-1.282-2.717-1.282zm0-1.28c1.632 0 2.94.546 3.92 1.64.978 1.093 1.47 2.562 1.47 4.406 0 1.844-.492 3.32-1.47 4.422-.98 1.093-2.288 1.64-3.92 1.64-1.65 0-2.96-.546-3.938-1.64-.98-1.102-1.47-2.578-1.47-4.422 0-1.844.49-3.313 1.47-4.406.977-1.094 2.29-1.64 3.938-1.64zm0 0"/></symbol></defs><g><path fill="#fff" d="M0 0h300v300H0z"/><path d="M140.742 257.527l-7.504-17.593" stroke-width="1.2" stroke="#3cc" stroke-miterlimit="10" fill="none"/><path d="M133.238 239.934l-7.504-17.59" stroke-width="1.2" stroke="#000" stroke-miterlimit="10" fill="none"/><path d="M135.742 248.027h10v19h-10zm0 0" fill="#fff"/><use xlink:href="#a" x="135.742" y="262.879" fill="#3cc"/><path d="M125.734 222.344l-37.972-4.594M123.016 212.95l-30.38-3.673M148.7 191.754l-22.966 30.59M87.762 217.75L72.75 182.57M72.75 182.57l22.965-30.59M82.246 184.914l18.37-24.473M95.715 151.98l37.972 4.59M95.715 151.98l-15.008-35.183M133.688 156.57l15.01 35.184M126.91 163.62l12.008 28.15M80.707 116.797l-18.644-4.27" stroke-width="1.2" stroke="#000" stroke-miterlimit="10" fill="none"/><path d="M62.063 112.527l-18.64-4.265" stroke-width="1.2" stroke="#00f" stroke-miterlimit="10" fill="none"/><path d="M100.348 83.977l-19.64 32.82M90.66 82.637l-15.71 26.258" stroke-width="1.2" stroke="#000" stroke-miterlimit="10" fill="none"/><path d="M43.422 108.262l-1.703-19.05" stroke-width="1.2" stroke="#00f" stroke-miterlimit="10" fill="none"/><path d="M41.72 89.21l-1.7-19.05" stroke-width="1.2" stroke="#000" stroke-miterlimit="10" fill="none"/><path d="M52.047 103.648L50.684 88.41" stroke-width="1.2" stroke="#00f" stroke-miterlimit="10" fill="none"/><path d="M50.684 88.41l-1.36-15.238" stroke-width="1.2" stroke="#000" stroke-miterlimit="10" fill="none"/><path d="M37.422 98.762h12v19h-12zm0 0" fill="#fff"/><use xlink:href="#b" x="37.422" y="113.613" fill="#00f"/><path d="M40.02 70.16l17.59-7.504" stroke-width="1.2" stroke="#000" stroke-miterlimit="10" fill="none"/><path d="M57.61 62.656l17.59-7.504M75.2 55.152l12.573 14.41" stroke-width="1.2" stroke="#f00" stroke-miterlimit="10" fill="none"/><path d="M87.773 69.563l12.575 14.414" stroke-width="1.2" stroke="#000" stroke-miterlimit="10" fill="none"/><path d="M69.2 45.652h13v19h-13zm0 0" fill="#fff"/><use xlink:href="#c" x="69.199" y="60.504" fill="#f00"/><path d="M100.348 83.977l38.097-3.407M138.445 80.57l21.996 31.293M148.008 78.527l17.597 25.032M154.547 45.875L138.445 80.57M160.44 111.863l38.1-3.402M198.54 108.46l14.01 13.02" stroke-width="1.2" stroke="#000" stroke-miterlimit="10" fill="none"/><path d="M212.55 121.48l14.012 13.016" stroke-width="1.2" stroke="#00f" stroke-miterlimit="10" fill="none"/><path d="M214.64 73.766l-16.1 34.695M204.867 73.45l-12.883 27.753" stroke-width="1.2" stroke="#000" stroke-miterlimit="10" fill="none"/><path d="M226.563 134.496l33.417-18.6M226.563 134.496l-2.297 18.988" stroke-width="1.2" stroke="#00f" stroke-miterlimit="10" fill="none"/><path d="M224.266 153.484l-2.297 18.99" stroke-width="1.2" stroke="#000" stroke-miterlimit="10" fill="none"/><path d="M220.563 124.996h12v19h-12zm0 0" fill="#fff"/><use xlink:href="#b" x="220.563" y="139.848" fill="#00f"/><path d="M259.98 115.895l-7.363-37.536M250.414 113.875l-5.894-30.027" stroke-width="1.2" stroke="#00f" stroke-miterlimit="10" fill="none"/><path d="M253.98 106.395h12v19h-12zm0 0" fill="#fff"/><use xlink:href="#b" x="253.98" y="121.246" fill="#00f"/><path d="M252.617 78.36l-18.988-2.297" stroke-width="1.2" stroke="#00f" stroke-miterlimit="10" fill="none"/><path d="M233.63 76.063l-18.99-2.297" stroke-width="1.2" stroke="#000" stroke-miterlimit="10" fill="none"/><path d="M246.617 68.86h12v19h-12zm0 0" fill="#fff"/><use xlink:href="#b" x="246.617" y="83.711" fill="#00f"/><path d="M214.64 73.766l-21.995-31.293M192.645 42.473l-38.098 3.402M189.637 51.777l-30.48 2.723M221.97 172.473l30.59 22.96M221.97 172.473l-35.185 15.007" stroke-width="1.2" stroke="#000" stroke-miterlimit="10" fill="none"/></g></svg>