<svg xmlns="http://www.w3.org/2000/svg" xmlns:xlink="http://www.w3.org/1999/xlink" width="300pt" height="300pt" viewBox="0 0 300 300"><defs><symbol overflow="visible"><path d="M.594 2.125V-8.47h6V2.126zm.672-.672h4.671V-7.78h-4.67zm0 0"/></symbol><symbol overflow="visible" id="a"><path d="M4.734-7.953c-.867 0-1.554.324-2.062.97-.5.635-.75 1.51-.75 2.624 0 1.094.25 1.965.75 2.61.508.637 1.195.953 2.062.953.852 0 1.532-.316 2.032-.953.507-.645.765-1.516.765-2.61 0-1.113-.257-1.988-.764-2.624-.5-.645-1.18-.97-2.032-.97zm0-.953c1.22 0 2.192.414 2.922 1.234.74.824 1.11 1.93 1.11 3.313 0 1.376-.37 2.477-1.11 3.298C6.926-.24 5.953.17 4.734.17c-1.23 0-2.214-.41-2.953-1.234C1.04-1.882.673-2.984.673-4.36c0-1.382.367-2.488 1.11-3.312.738-.82 1.722-1.234 2.952-1.234zm0 0"/></symbol><symbol overflow="visible" id="b"><path d="M1.172-8.75h1.594l3.89 7.313V-8.75h1.14V0H6.204L2.328-7.313V0H1.172zm0 0"/></symbol></defs><g><path fill="#fff" d="M0 0h300v300H0z"/><path d="M34.8 138.207l14.22 1.91" stroke-width="1.2" stroke="#f00" stroke-miterlimit="10" fill="none"/><path d="M49.02 140.117l14.218 1.91" stroke-width="1.2" stroke="#000" stroke-miterlimit="10" fill="none"/><path d="M35.7 131.516l14.218 1.91" stroke-width="1.2" stroke="#f00" stroke-miterlimit="10" fill="none"/><path d="M49.918 133.426l14.22 1.91" stroke-width="1.2" stroke="#000" stroke-miterlimit="10" fill="none"/><path d="M25.25 127.86h10v14h-10zm0 0" fill="#fff"/><use xlink:href="#a" x="25.25" y="138.998" fill="#f00"/><path d="M63.688 138.68l6.808 12.625" stroke-width="1.2" stroke="#000" stroke-miterlimit="10" fill="none"/><path d="M70.496 151.305l6.813 12.625M83.488 117.922l-9.898 10.38" stroke-width="1.2" stroke="#00f" stroke-miterlimit="10" fill="none"/><path d="M73.59 128.3l-9.903 10.38" stroke-width="1.2" stroke="#000" stroke-miterlimit="10" fill="none"/><path d="M77.31 163.93l14.112-2.578" stroke-width="1.2" stroke="#00f" stroke-miterlimit="10" fill="none"/><path d="M91.422 161.352l14.113-2.575" stroke-width="1.2" stroke="#000" stroke-miterlimit="10" fill="none"/><path d="M77.31 163.93L71.1 176.863" stroke-width="1.2" stroke="#00f" stroke-miterlimit="10" fill="none"/><path d="M71.102 176.863l-6.21 12.93" stroke-width="1.2" stroke="#000" stroke-miterlimit="10" fill="none"/><path d="M73.31 156.93h9v14h-9zm0 0" fill="#fff"/><use xlink:href="#b" x="73.309" y="168.068" fill="#00f"/><path d="M105.535 158.777L128.25 176.3M111.93 155.184l18.172 14.02M109.355 130.34l-3.82 28.437M128.25 176.3l26.535-10.91M154.785 165.39l3.82-28.433M148.477 161.648l3.058-22.746M154.785 165.39l22.72 17.528M158.605 136.957L135.89 119.43M135.89 119.43l-26.535 10.91M135.805 126.766l-21.23 8.726M109.355 130.34l-12.933-6.21" stroke-width="1.2" stroke="#000" stroke-miterlimit="10" fill="none"/><path d="M96.422 124.13l-12.934-6.208M83.488 117.922l-2.574-14.113" stroke-width="1.2" stroke="#00f" stroke-miterlimit="10" fill="none"/><path d="M80.914 103.81l-2.578-14.115" stroke-width="1.2" stroke="#000" stroke-miterlimit="10" fill="none"/><path d="M79.488 110.922h9v14h-9zm0 0" fill="#fff"/><use xlink:href="#b" x="79.488" y="122.061" fill="#00f"/><path d="M78.336 89.695l21.867-18.574M177.504 182.918l-3.82 28.437M183.813 186.66l-3.06 22.75M204.04 172.008l-26.536 10.91M173.684 211.355l22.714 17.524M196.398 228.88l26.536-10.91M196.484 221.547l21.23-8.73M222.934 217.97l1.91-14.216" stroke-width="1.2" stroke="#000" stroke-miterlimit="10" fill="none"/><path d="M224.844 203.754l1.91-14.22M226.754 189.535l-11.356-8.765" stroke-width="1.2" stroke="#00f" stroke-miterlimit="10" fill="none"/><path d="M215.398 180.77l-11.36-8.762" stroke-width="1.2" stroke="#000" stroke-miterlimit="10" fill="none"/><path d="M220.36 193.125l-9.087-7.008" stroke-width="1.2" stroke="#00f" stroke-miterlimit="10" fill="none"/><path d="M211.273 186.117l-9.085-7.012" stroke-width="1.2" stroke="#000" stroke-miterlimit="10" fill="none"/><path d="M222.754 182.535h9v14h-9zm0 0" fill="#fff"/><use xlink:href="#b" x="222.754" y="193.674" fill="#00f"/><path d="M204.04 172.008l3.82-28.434M207.86 143.574l26.535-10.91M207.945 136.238l21.227-8.73M185.14 126.047l22.72 17.527M234.395 132.664l3.82-28.437M238.215 104.227L215.495 86.7M231.82 107.82l-18.175-14.023M238.215 104.227l26.535-10.91M215.496 86.7L188.96 97.61M188.96 97.61l-3.82 28.437M195.27 101.352l-3.055 22.75M64.89 189.793l-28.61 2.176" stroke-width="1.2" stroke="#000" stroke-miterlimit="10" fill="none"/></g></svg>