<svg xmlns="http://www.w3.org/2000/svg" xmlns:xlink="http://www.w3.org/1999/xlink" width="300pt" height="300pt" viewBox="0 0 300 300"><defs><symbol overflow="visible"><path d="M.547 1.938V-7.75h5.5v9.688zm.625-.61h4.266v-8.47H1.171zm0 0"/></symbol><symbol overflow="visible" id="a"><path d="M4.328-7.28c-.78 0-1.406.296-1.875.89-.46.585-.687 1.382-.687 2.39 0 1.012.226 1.813.687 2.406.47.586 1.094.875 1.875.875.79 0 1.414-.288 1.875-.874.457-.593.688-1.394.688-2.406 0-1.008-.23-1.805-.687-2.39-.46-.594-1.086-.89-1.875-.89zm0-.892c1.125 0 2.024.383 2.703 1.14C7.708-6.28 8.048-5.27 8.048-4c0 1.262-.34 2.273-1.016 3.03C6.353-.22 5.454.157 4.33.157S2.3-.22 1.625-.97c-.668-.75-1-1.757-1-3.03 0-1.27.332-2.28 1-3.03.676-.76 1.578-1.142 2.703-1.142zm0 0"/></symbol><symbol overflow="visible" id="b"><path d="M1.078-8.016h1.47l3.546 6.704v-6.704h1.062V0H5.688L2.124-6.703V0H1.078zm0 0"/></symbol><symbol overflow="visible" id="c"><path d="M1.078-8.016h1.094v3.282H6.11v-3.282h1.077V0H6.11v-3.813H2.17V0H1.078zm0 0"/></symbol></defs><g><path fill="#fff" d="M0 0h300v300H0z"/><path d="M72.703 204.117l21.156 17.106M93.86 221.223l21.152 17.1M93.86 221.223l17.105-21.157M93.86 221.223l-8.55 10.574" stroke-width="1.2" stroke="#000" stroke-miterlimit="10" fill="none"/><path d="M85.31 231.797l-8.556 10.578" stroke-width="1.2" stroke="#f00" stroke-miterlimit="10" fill="none"/><path d="M110.965 200.066l-9.77-25.39M101.195 174.676l17.106-21.153" stroke-width="1.2" stroke="#000" stroke-miterlimit="10" fill="none"/><path d="M108.53 128.133l5.286 27.113 8.965-3.45zm0 0"/><path d="M108.53 128.133l-9.768-25.39M108.53 128.133l25.392-9.77M108.53 128.133l-12.694 4.883" stroke-width="1.2" stroke="#000" stroke-miterlimit="10" fill="none"/><path d="M95.836 133.016l-12.695 4.886" stroke-width="1.2" stroke="#f00" stroke-miterlimit="10" fill="none"/><path d="M98.762 102.742l-26.87-4.234M69.402 96.496l-8.554 10.578" stroke-width="1.2" stroke="#000" stroke-miterlimit="10" fill="none"/><path d="M60.848 107.074l-8.55 10.574" stroke-width="1.2" stroke="#f00" stroke-miterlimit="10" fill="none"/><path d="M74.38 100.52l-8.552 10.578" stroke-width="1.2" stroke="#000" stroke-miterlimit="10" fill="none"/><path d="M65.828 111.098l-8.555 10.578" stroke-width="1.2" stroke="#f00" stroke-miterlimit="10" fill="none"/><path d="M71.89 98.508L67.01 85.813" stroke-width="1.2" stroke="#000" stroke-miterlimit="10" fill="none"/><path d="M67.008 85.813L62.12 73.117" stroke-width="1.2" stroke="#f00" stroke-miterlimit="10" fill="none"/><path d="M45.785 113.16h9v13h-9zm0 0" fill="#fff"/><use xlink:href="#a" x="45.785" y="123.062" fill="#f00"/><path d="M62.12 73.117L48.69 71" stroke-width="1.2" stroke="#f00" stroke-miterlimit="10" fill="none"/><path d="M48.688 71L35.25 68.883" stroke-width="1.2" stroke="#000" stroke-miterlimit="10" fill="none"/><path d="M58.12 66.617h9v13h-9zm0 0" fill="#fff"/><use xlink:href="#a" x="58.121" y="76.519" fill="#f00"/><path d="M137.082 118.863l2.117-13.437" stroke-width="1.2" stroke="#000" stroke-miterlimit="10" fill="none"/><path d="M139.2 105.426l2.116-13.434" stroke-width="1.2" stroke="#f00" stroke-miterlimit="10" fill="none"/><path d="M130.758 117.867l2.117-13.437" stroke-width="1.2" stroke="#000" stroke-miterlimit="10" fill="none"/><path d="M132.875 104.43l2.12-13.438" stroke-width="1.2" stroke="#f00" stroke-miterlimit="10" fill="none"/><path d="M133.922 118.363l10.574 8.555" stroke-width="1.2" stroke="#000" stroke-miterlimit="10" fill="none"/><path d="M144.496 126.918l10.578 8.55" stroke-width="1.2" stroke="#f00" stroke-miterlimit="10" fill="none"/><path d="M134.156 84.992h9v13h-9zm0 0" fill="#fff"/><use xlink:href="#a" x="134.156" y="94.894" fill="#f00"/><path d="M213.215 141.94l-57.61-11.24-1.062 9.538zm0 0"/><path d="M151.074 128.97h9v13h-9zm0 0" fill="#fff"/><use xlink:href="#a" x="151.074" y="138.87" fill="#f00"/><path d="M213.215 141.94l-9.926-1.44M211.477 129l1.738 12.94" stroke-width="1.2" stroke="#000" stroke-miterlimit="10" fill="none"/><path d="M203.29 140.5l-4.575 27.242 9.6-.078zm0 0"/><path d="M224.418 123.363l-21.13 17.137M203.516 167.703l-25.243 10.145M203.38 174.656l-20.196 8.117M224.922 184.488l-21.406-16.785M178.273 177.848l-3.832 26.933M174.44 204.78l21.408 16.786M172.633 211.496l17.125 13.43" stroke-width="1.2" stroke="#000" stroke-miterlimit="10" fill="none"/><path d="M151.863 219.953l11.29-7.586" stroke-width="1.2" stroke="#f00" stroke-miterlimit="10" fill="none"/><path d="M163.152 212.367l11.29-7.586M195.848 221.566l25.242-10.144M195.848 221.566l-4.672 12.774" stroke-width="1.2" stroke="#000" stroke-miterlimit="10" fill="none"/><path d="M191.176 234.34l-4.676 12.773" stroke-width="1.2" stroke="#f00" stroke-miterlimit="10" fill="none"/><path d="M221.09 211.422l3.832-26.934M215.137 207.824l3.066-21.543M224.922 184.488l26.473-6.273M251.395 178.215l11.6-24.606M262.996 153.61l-6.004-12.204" stroke-width="1.2" stroke="#000" stroke-miterlimit="10" fill="none"/><path d="M256.992 141.406l-6.004-12.207M250.988 129.2l-13.285-2.92" stroke-width="1.2" stroke="#00f" stroke-miterlimit="10" fill="none"/><path d="M237.703 126.28l-13.285-2.917M264.75 105.73l-6.88 11.735" stroke-width="1.2" stroke="#000" stroke-miterlimit="10" fill="none"/><path d="M257.87 117.465L250.99 129.2" stroke-width="1.2" stroke="#00f" stroke-miterlimit="10" fill="none"/><path d="M246.988 122.7h8v13h-8zm0 0" fill="#fff"/><use xlink:href="#b" x="246.988" y="132.601" fill="#00f"/><path d="M224.418 123.363m.23-2.992l-1.04.103m1.27-3.09l-2.073.203m2.304-3.195l-3.114.305m3.344-3.297l-4.153.41m4.38-3.402l-5.188.512m5.417-3.5l-6.227.61m6.457-3.602l-7.26.715m7.49-3.706l-8.3.816m8.53-3.81l-9.34.92m9.388-1.54l-9.555.942" stroke="#000" stroke-miterlimit="10" fill="none"/><path d="M224.418 123.363l-.637 10.012M221.758 96.29l24.926-10.895M246.684 85.395l18.066 20.335M223.78 133.375L211.478 129M224.695 126.906l-9.843-3.5M211.477 129l-20.563-25.355" stroke-width="1.2" stroke="#000" stroke-miterlimit="10" fill="none"/><path d="M190.914 103.645L170.348 78.29M170.348 78.29l4.867-12.704" stroke-width="1.2" stroke="#f00" stroke-miterlimit="10" fill="none"/><path d="M175.215 65.586l4.863-12.7" stroke-width="1.2" stroke="#000" stroke-miterlimit="10" fill="none"/><path d="M166.348 71.79h9v13h-9zm0 0" fill="#fff"/><use xlink:href="#a" x="166.348" y="81.69" fill="#f00"/><path d="M186.5 247.113l-13.594-.496" stroke-width="1.2" stroke="#f00" stroke-miterlimit="10" fill="none"/><path d="M172.906 246.617l-13.594-.5" stroke-width="1.2" stroke="#000" stroke-miterlimit="10" fill="none"/><path d="M182.5 240.613h9v13h-9zm0 0" fill="#fff"/><use xlink:href="#a" x="182.5" y="250.515" fill="#f00"/><path d="M159.313 246.117l-3.723-13.082" stroke-width="1.2" stroke="#000" stroke-miterlimit="10" fill="none"/><path d="M155.59 233.035l-3.727-13.082" stroke-width="1.2" stroke="#f00" stroke-miterlimit="10" fill="none"/><path d="M147.863 213.453h9v13h-9zm0 0" fill="#fff"/><use xlink:href="#a" x="147.863" y="223.354" fill="#f00"/><path d="M66.14 131.402h17v13h-17zm0 0" fill="#fff"/><g fill="#f00"><use xlink:href="#c" x="66.141" y="141.304"/><use xlink:href="#a" x="74.165" y="141.304"/></g><path d="M59.754 235.875h17v13h-17zm0 0" fill="#fff"/><g fill="#f00"><use xlink:href="#c" x="59.754" y="245.776"/><use xlink:href="#a" x="67.778" y="245.776"/></g></g></svg>