<svg xmlns="http://www.w3.org/2000/svg" xmlns:xlink="http://www.w3.org/1999/xlink" width="300pt" height="300pt" viewBox="0 0 300 300"><defs><symbol overflow="visible"><path d="M.453 1.594v-7.938h4.5v7.938zm.5-.5h3.5v-6.938h-3.5zm0 0"/></symbol><symbol overflow="visible" id="a"><path d="M.89-6.563h3.766v.75h-2.89v1.938h2.61v.734h-2.61V0H.89zm0 0"/></symbol><symbol overflow="visible" id="b"><path d="M.89-6.563H2.08l2.906 5.485v-5.484h.86V0H4.656L1.75-5.484V0H.89zm0 0"/></symbol><symbol overflow="visible" id="c"><path d="M3.547-5.953c-.65 0-1.164.242-1.547.72-.375.48-.563 1.13-.563 1.952 0 .835.188 1.49.563 1.967.383.48.898.72 1.547.72.644 0 1.156-.24 1.53-.72.376-.476.564-1.132.564-1.968 0-.822-.187-1.474-.562-1.954-.375-.477-.887-.72-1.53-.72zm0-.734c.914 0 1.648.312 2.203.937.55.617.828 1.438.828 2.47 0 1.042-.277 1.87-.828 2.483-.555.617-1.29.922-2.203.922-.93 0-1.668-.305-2.22-.922C.774-1.41.5-2.237.5-3.28c0-1.033.273-1.853.828-2.47.55-.625 1.29-.938 2.22-.938zm0 0"/></symbol><symbol overflow="visible" id="d"><path d="M.89-6.563h.876v2.688H5v-2.688h.89V0H5v-3.125H1.766V0H.89zm0 0"/></symbol><symbol overflow="visible"><path d="M.406 1.422V-5.64h4V1.42zM.844.97h3.11v-6.157H.843zm0 0"/></symbol><symbol overflow="visible" id="e"><path d="M3.688-5.016v2.172h2.17v.672H3.69V0H3.03v-2.172H.845v-.672H3.03v-2.172zm0 0"/></symbol><symbol overflow="visible" id="f"><path d="M1.53-.672h2.767V0H.594v-.672c.29-.3.695-.71 1.22-1.234.518-.532.842-.867.967-1.016.26-.28.44-.52.533-.72.1-.194.156-.39.156-.577 0-.31-.11-.565-.33-.764-.218-.196-.5-.297-.843-.297-.25 0-.516.046-.797.14-.273.085-.563.214-.875.39v-.797c.32-.133.617-.234.89-.297.282-.062.536-.093.766-.093.603 0 1.083.152 1.44.453.362.304.546.703.546 1.203 0 .24-.047.468-.14.686-.095.22-.26.477-.485.766-.074.074-.288.293-.64.656-.344.356-.836.856-1.47 1.5zm0 0"/></symbol></defs><g><path fill="#fff" d="M0 0h300v300H0z"/><path d="M48.488 230.605l2.11-11.3" stroke-width="1.2" stroke="#3cc" stroke-miterlimit="10" fill="none"/><path d="M50.598 219.305l2.113-11.297" stroke-width="1.2" stroke="#000" stroke-miterlimit="10" fill="none"/><path d="M45.488 225.105h6v11h-6zm0 0" fill="#fff"/><use xlink:href="#a" x="45.488" y="233.769" fill="#3cc"/><path d="M52.71 208.008l-17.46-14.953M54.48 202.406L40.516 190.44M74.387 200.363l-21.676 7.645M35.25 193.055l4.22-22.598M39.47 170.457l21.678-7.64M43.438 174.797l17.343-6.117M61.148 162.816l2.11-11.3" stroke-width="1.2" stroke="#000" stroke-miterlimit="10" fill="none"/><path d="M63.258 151.516l2.11-11.297" stroke-width="1.2" stroke="#00f" stroke-miterlimit="10" fill="none"/><path d="M61.148 162.816l17.46 14.95" stroke-width="1.2" stroke="#000" stroke-miterlimit="10" fill="none"/><path d="M65.367 140.22L49.57 123.522" stroke-width="1.2" stroke="#00f" stroke-miterlimit="10" fill="none"/><path d="M86.13 130.352l-10.38 4.933" stroke-width="1.2" stroke="#000" stroke-miterlimit="10" fill="none"/><path d="M75.75 135.285l-10.383 4.934" stroke-width="1.2" stroke="#00f" stroke-miterlimit="10" fill="none"/><path d="M62.367 134.72h7v11h-7zm0 0" fill="#fff"/><use xlink:href="#b" x="62.367" y="143.382" fill="#00f"/><path d="M49.57 123.523l5.496-10.093" stroke-width="1.2" stroke="#00f" stroke-miterlimit="10" fill="none"/><path d="M55.066 113.43l5.5-10.094" stroke-width="1.2" stroke="#000" stroke-miterlimit="10" fill="none"/><path d="M55.418 124.09l4.398-8.074" stroke-width="1.2" stroke="#00f" stroke-miterlimit="10" fill="none"/><path d="M59.816 116.016l4.4-8.075" stroke-width="1.2" stroke="#000" stroke-miterlimit="10" fill="none"/><path d="M46.57 118.023h7v11h-7zm0 0" fill="#fff"/><use xlink:href="#b" x="46.57" y="126.687" fill="#00f"/><path d="M60.566 103.336l22.594 4.22M83.16 107.555l16.695-15.8M83.16 107.555l2.97 22.797M78.094 110.535l2.375 18.235M102.488 91.13L99.82 79.95" stroke-width="1.2" stroke="#000" stroke-miterlimit="10" fill="none"/><path d="M99.82 79.95l-2.668-11.18" stroke-width="1.2" stroke="#f00" stroke-miterlimit="10" fill="none"/><path d="M97.227 92.383l-2.668-11.18" stroke-width="1.2" stroke="#000" stroke-miterlimit="10" fill="none"/><path d="M94.56 81.203l-2.67-11.18" stroke-width="1.2" stroke="#f00" stroke-miterlimit="10" fill="none"/><path d="M99.855 91.754l22.032 6.558" stroke-width="1.2" stroke="#000" stroke-miterlimit="10" fill="none"/><path d="M90.52 63.895h8v11h-8zm0 0" fill="#fff"/><use xlink:href="#c" x="90.52" y="72.558" fill="#f00"/><path d="M121.887 98.313l5.336 22.36M127.684 99.293l4.27 17.89M138.586 82.512l-16.7 15.8M127.223 120.672l22.035 6.558M149.258 127.23l16.695-15.8M147.207 121.723l13.36-12.64M165.953 111.43l-5.336-22.36M165.953 111.43l22.03 6.558M160.617 89.07l-22.03-6.558M156.87 93.602l-17.624-5.25M187.984 117.988l22.032 6.563M188.645 123.828l17.625 5.25M191.73 113.46l17.625 5.25M210.016 124.55l22.03 6.56M232.047 131.11l2.668 11.18" stroke-width="1.2" stroke="#000" stroke-miterlimit="10" fill="none"/><path d="M234.715 142.29l2.668 11.18M237.383 153.47l-8.348 7.897" stroke-width="1.2" stroke="#00f" stroke-miterlimit="10" fill="none"/><path d="M229.035 161.367l-8.347 7.903M259.414 160.027l-11.016-3.28" stroke-width="1.2" stroke="#000" stroke-miterlimit="10" fill="none"/><path d="M248.398 156.746l-11.015-3.277" stroke-width="1.2" stroke="#00f" stroke-miterlimit="10" fill="none"/><path d="M227.383 145.97h21v15h-21zm0 0" fill="#fff"/><g fill="#00f"><use xlink:href="#b" x="227.383" y="158.07"/><use xlink:href="#d" x="234.36" y="158.07"/></g><use xlink:href="#e" x="241.375" y="153.188" fill="#00f"/><path d="M220.688 169.27l5.335 22.36M226.023 191.63l11.016 3.276" stroke-width="1.2" stroke="#000" stroke-miterlimit="10" fill="none"/><path d="M237.04 194.906l11.015 3.28M248.055 198.188l8.347-7.903" stroke-width="1.2" stroke="#f00" stroke-miterlimit="10" fill="none"/><path d="M256.402 190.285l8.348-7.898" stroke-width="1.2" stroke="#000" stroke-miterlimit="10" fill="none"/><path d="M244.055 192.688h8v11h-8zm0 0" fill="#fff"/><use xlink:href="#c" x="244.055" y="201.351" fill="#f00"/><path d="M264.75 182.387l-5.336-22.36M86.13 130.352l10.093 5.496" stroke-width="1.2" stroke="#000" stroke-miterlimit="10" fill="none"/><path d="M96.223 135.848l10.093 5.5" stroke-width="1.2" stroke="#00f" stroke-miterlimit="10" fill="none"/><path d="M97.316 133.348h19v16h-19zm0 0" fill="#fff"/><g fill="#00f"><use xlink:href="#b" x="97.316" y="142.011"/><use xlink:href="#d" x="104.294" y="142.011"/></g><use xlink:href="#f" x="111.309" y="146.894" fill="#00f"/><path d="M78.61 177.766l-4.223 22.597M72.87 179.035l-3.378 18.078" stroke-width="1.2" stroke="#000" stroke-miterlimit="10" fill="none"/></g></svg>