<svg xmlns="http://www.w3.org/2000/svg" xmlns:xlink="http://www.w3.org/1999/xlink" width="300pt" height="300pt" viewBox="0 0 300 300"><defs><symbol overflow="visible"><path d="M.453 1.594v-7.938h4.5v7.938zm.5-.5h3.5v-6.938h-3.5zm0 0"/></symbol><symbol overflow="visible" id="a"><path d="M3.547-5.953c-.65 0-1.164.242-1.547.72-.375.48-.563 1.13-.563 1.952 0 .835.188 1.49.563 1.967.383.48.898.72 1.547.72.644 0 1.156-.24 1.53-.72.376-.476.564-1.132.564-1.968 0-.822-.187-1.474-.562-1.954-.375-.477-.887-.72-1.53-.72zm0-.734c.914 0 1.648.312 2.203.937.55.617.828 1.438.828 2.47 0 1.042-.277 1.87-.828 2.483-.555.617-1.29.922-2.203.922-.93 0-1.668-.305-2.22-.922C.774-1.41.5-2.237.5-3.28c0-1.033.273-1.853.828-2.47.55-.625 1.29-.938 2.22-.938zm0 0"/></symbol><symbol overflow="visible" id="b"><path d="M.89-6.563H2.08l2.906 5.485v-5.484h.86V0H4.656L1.75-5.484V0H.89zm0 0"/></symbol><symbol overflow="visible" id="c"><path d="M.89-6.563h.876v2.688H5v-2.688h.89V0H5v-3.125H1.766V0H.89zm0 0"/></symbol><symbol overflow="visible"><path d="M.406 1.422V-5.64h4V1.42zM.844.97h3.11v-6.157H.843zm0 0"/></symbol><symbol overflow="visible" id="d"><path d="M1.53-.672h2.767V0H.594v-.672c.29-.3.695-.71 1.22-1.234.518-.532.842-.867.967-1.016.26-.28.44-.52.533-.72.1-.194.156-.39.156-.577 0-.31-.11-.565-.33-.764-.218-.196-.5-.297-.843-.297-.25 0-.516.046-.797.14-.273.085-.563.214-.875.39v-.797c.32-.133.617-.234.89-.297.282-.062.536-.093.766-.093.603 0 1.083.152 1.44.453.362.304.546.703.546 1.203 0 .24-.047.468-.14.686-.095.22-.26.477-.485.766-.074.074-.288.293-.64.656-.344.356-.836.856-1.47 1.5zm0 0"/></symbol><symbol overflow="visible" id="e"><path d="M3.688-5.016v2.172h2.17v.672H3.69V0H3.03v-2.172H.845v-.672H3.03v-2.172zm0 0"/></symbol></defs><g><path fill="#fff" d="M0 0h300v300H0z"/><path d="M77.402 187.71l-3.703-9.394" stroke-width="1.2" stroke="#f00" stroke-miterlimit="10" fill="none"/><path d="M73.7 178.316l-3.7-9.39" stroke-width="1.2" stroke="#000" stroke-miterlimit="10" fill="none"/><path d="M72.98 189.453l-3.7-9.394" stroke-width="1.2" stroke="#f00" stroke-miterlimit="10" fill="none"/><path d="M69.28 180.06l-3.698-9.396" stroke-width="1.2" stroke="#000" stroke-miterlimit="10" fill="none"/><path d="M71.19 183.082h8v11h-8zm0 0" fill="#fff"/><use xlink:href="#a" x="71.191" y="191.745" fill="#f00"/><path d="M67.79 169.793l-9.985-1.492" stroke-width="1.2" stroke="#000" stroke-miterlimit="10" fill="none"/><path d="M57.805 168.3l-9.985-1.49" stroke-width="1.2" stroke="#00f" stroke-miterlimit="10" fill="none"/><path d="M67.79 169.793l12.57-15.8" stroke-width="1.2" stroke="#000" stroke-miterlimit="10" fill="none"/><path d="M47.82 166.81l-6.285 7.9" stroke-width="1.2" stroke="#00f" stroke-miterlimit="10" fill="none"/><path d="M41.535 174.71l-6.285 7.903" stroke-width="1.2" stroke="#000" stroke-miterlimit="10" fill="none"/><path d="M47.82 166.81l-3.7-9.396" stroke-width="1.2" stroke="#00f" stroke-miterlimit="10" fill="none"/><path d="M44.12 157.414l-3.698-9.39" stroke-width="1.2" stroke="#000" stroke-miterlimit="10" fill="none"/><path d="M44.82 161.31h7v11h-7zm0 0" fill="#fff"/><use xlink:href="#b" x="44.82" y="169.972" fill="#00f"/><path d="M80.36 153.992l10.085.442" stroke-width="1.2" stroke="#000" stroke-miterlimit="10" fill="none"/><path d="M90.445 154.434l10.09.44" stroke-width="1.2" stroke="#00f" stroke-miterlimit="10" fill="none"/><path d="M74.965 134.535l5.394 19.457M80.082 135.21l4.316 15.567" stroke-width="1.2" stroke="#000" stroke-miterlimit="10" fill="none"/><path d="M100.535 154.875l3.535-9.457" stroke-width="1.2" stroke="#00f" stroke-miterlimit="10" fill="none"/><path d="M104.07 145.418l3.535-9.457" stroke-width="1.2" stroke="#000" stroke-miterlimit="10" fill="none"/><path d="M100.535 154.875l5.57 8.418" stroke-width="1.2" stroke="#00f" stroke-miterlimit="10" fill="none"/><path d="M106.105 163.293l5.575 8.418" stroke-width="1.2" stroke="#000" stroke-miterlimit="10" fill="none"/><path d="M97.535 149.375h7v11h-7zm0 0" fill="#fff"/><use xlink:href="#b" x="97.535" y="158.038" fill="#00f"/><path d="M107.605 135.96l9.395-3.698" stroke-width="1.2" stroke="#000" stroke-miterlimit="10" fill="none"/><path d="M117 132.262l9.39-3.703" stroke-width="1.2" stroke="#00f" stroke-miterlimit="10" fill="none"/><path d="M107.742 130.8l7.516-2.96" stroke-width="1.2" stroke="#000" stroke-miterlimit="10" fill="none"/><path d="M115.258 127.84l7.515-2.96" stroke-width="1.2" stroke="#00f" stroke-miterlimit="10" fill="none"/><path d="M91.8 123.39l15.805 12.57" stroke-width="1.2" stroke="#000" stroke-miterlimit="10" fill="none"/><path d="M126.39 128.56l1.493-9.986" stroke-width="1.2" stroke="#00f" stroke-miterlimit="10" fill="none"/><path d="M127.883 118.574l1.496-9.984" stroke-width="1.2" stroke="#000" stroke-miterlimit="10" fill="none"/><path d="M123.39 123.06h7v11h-7zm0 0" fill="#fff"/><use xlink:href="#b" x="123.391" y="131.722" fill="#00f"/><path d="M129.38 108.59l-7.903-6.285" stroke-width="1.2" stroke="#000" stroke-miterlimit="10" fill="none"/><path d="M121.477 102.305l-7.903-6.285" stroke-width="1.2" stroke="#00f" stroke-miterlimit="10" fill="none"/><path d="M124.84 111.05l-6.32-5.027" stroke-width="1.2" stroke="#000" stroke-miterlimit="10" fill="none"/><path d="M118.52 106.023l-6.32-5.027" stroke-width="1.2" stroke="#00f" stroke-miterlimit="10" fill="none"/><path d="M129.38 108.59l9.39-3.7" stroke-width="1.2" stroke="#000" stroke-miterlimit="10" fill="none"/><path d="M138.77 104.89l9.394-3.7M113.574 96.02l-9.394 3.7" stroke-width="1.2" stroke="#00f" stroke-miterlimit="10" fill="none"/><path d="M104.18 99.72l-9.39 3.698" stroke-width="1.2" stroke="#000" stroke-miterlimit="10" fill="none"/><path d="M110.574 90.52h7v11h-7zm0 0" fill="#fff"/><use xlink:href="#b" x="110.574" y="99.183" fill="#00f"/><path d="M94.79 103.418L91.8 123.39M99.188 106.117L96.8 122.094M91.8 123.39l-16.835 11.145" stroke-width="1.2" stroke="#000" stroke-miterlimit="10" fill="none"/><path d="M148.164 101.19l7.902 6.283" stroke-width="1.2" stroke="#00f" stroke-miterlimit="10" fill="none"/><path d="M156.066 107.473l7.9 6.285" stroke-width="1.2" stroke="#000" stroke-miterlimit="10" fill="none"/><path d="M141.164 95.69h14v11h-14zm0 0" fill="#fff"/><g fill="#00f"><use xlink:href="#b" x="141.164" y="104.354"/><use xlink:href="#c" x="148.142" y="104.354"/></g><path d="M163.965 113.758l-1.492 9.988" stroke-width="1.2" stroke="#000" stroke-miterlimit="10" fill="none"/><path d="M162.473 123.746l-1.493 9.984" stroke-width="1.2" stroke="#00f" stroke-miterlimit="10" fill="none"/><path d="M168.367 116.457l-1.195 7.988" stroke-width="1.2" stroke="#000" stroke-miterlimit="10" fill="none"/><path d="M167.172 124.445l-1.192 7.99" stroke-width="1.2" stroke="#00f" stroke-miterlimit="10" fill="none"/><path d="M182.754 106.36l-18.79 7.398" stroke-width="1.2" stroke="#000" stroke-miterlimit="10" fill="none"/><path d="M160.98 133.73l7.903 6.286" stroke-width="1.2" stroke="#00f" stroke-miterlimit="10" fill="none"/><path d="M168.883 140.016l7.902 6.285" stroke-width="1.2" stroke="#000" stroke-miterlimit="10" fill="none"/><path d="M157.98 128.23h7v11h-7zm0 0" fill="#fff"/><use xlink:href="#b" x="157.98" y="136.894" fill="#00f"/><path d="M176.785 146.3l18.785-7.402M176.922 141.14l15.027-5.92M195.57 138.898l7.903 6.286" stroke-width="1.2" stroke="#000" stroke-miterlimit="10" fill="none"/><path d="M203.473 145.184l7.902 6.285" stroke-width="1.2" stroke="#00f" stroke-miterlimit="10" fill="none"/><path d="M195.57 138.898l2.985-19.968" stroke-width="1.2" stroke="#000" stroke-miterlimit="10" fill="none"/><path d="M211.375 151.47l-1.492 9.983" stroke-width="1.2" stroke="#00f" stroke-miterlimit="10" fill="none"/><path d="M209.883 161.453l-1.496 9.988M230.16 144.07l-9.394 3.7" stroke-width="1.2" stroke="#000" stroke-miterlimit="10" fill="none"/><path d="M220.766 147.77l-9.39 3.7" stroke-width="1.2" stroke="#00f" stroke-miterlimit="10" fill="none"/><path d="M208.375 145.97h7v11h-7zm0 0" fill="#fff"/><use xlink:href="#b" x="208.375" y="154.632" fill="#00f"/><path d="M208.387 171.44l15.804 12.572M224.19 184.012l9.396-3.703" stroke-width="1.2" stroke="#000" stroke-miterlimit="10" fill="none"/><path d="M233.586 180.31l9.39-3.7" stroke-width="1.2" stroke="#00f" stroke-miterlimit="10" fill="none"/><path d="M224.19 184.012l-2.983 19.968" stroke-width="1.2" stroke="#000" stroke-miterlimit="10" fill="none"/><path d="M242.977 176.61l1.492-9.985" stroke-width="1.2" stroke="#00f" stroke-miterlimit="10" fill="none"/><path d="M244.47 166.625l1.49-9.984" stroke-width="1.2" stroke="#000" stroke-miterlimit="10" fill="none"/><path d="M229.977 167.11h26v19h-26zm0 0" fill="#fff"/><g fill="#00f"><use xlink:href="#b" x="229.977" y="179.211"/><use xlink:href="#c" x="236.954" y="179.211"/></g><use xlink:href="#d" x="243.969" y="184.094" fill="#00f"/><use xlink:href="#e" x="248.919" y="174.328" fill="#00f"/><path d="M245.96 156.64l-15.8-12.57M245.96 156.64l18.79-7.402M198.555 118.93l-15.8-12.57M194.02 121.39l-12.645-10.054M111.68 171.71l20.172.884M104.605 190.625l7.075-18.914M131.852 172.594l5.394 19.457M137.246 192.05l-16.836 11.145M120.41 203.195l-15.805-12.57" stroke-width="1.2" stroke="#000" stroke-miterlimit="10" fill="none"/></g></svg>