<svg xmlns="http://www.w3.org/2000/svg" xmlns:xlink="http://www.w3.org/1999/xlink" width="300pt" height="300pt" viewBox="0 0 300 300"><defs><symbol overflow="visible"><path d="M.797 2.828v-14.11h8V2.83zm.906-.89h6.203v-12.33H1.703zm0 0"/></symbol><symbol overflow="visible" id="a"><path d="M6.313-10.594c-1.15 0-2.06.43-2.735 1.28-.68.857-1.015 2.017-1.015 3.486 0 1.47.335 2.633 1.015 3.484.676.856 1.586 1.28 2.735 1.28 1.144.002 2.05-.424 2.718-1.28.665-.85 1-2.015 1-3.484 0-1.47-.335-2.63-1-3.484-.667-.852-1.573-1.282-2.717-1.282zm0-1.28c1.632 0 2.94.546 3.92 1.64.978 1.093 1.47 2.562 1.47 4.406 0 1.844-.492 3.32-1.47 4.422-.98 1.093-2.288 1.64-3.92 1.64-1.65 0-2.96-.546-3.938-1.64-.98-1.102-1.47-2.578-1.47-4.422 0-1.844.49-3.313 1.47-4.406.977-1.094 2.29-1.64 3.938-1.64zm0 0"/></symbol><symbol overflow="visible" id="b"><path d="M1.578-11.672h2.125l5.172 9.766v-9.766h1.53V0H8.282L3.11-9.766V0H1.577zm0 0"/></symbol><symbol overflow="visible" id="c"><path d="M1.578-11.672h1.578v4.78H8.89v-4.78h1.58V0H8.89v-5.563H3.157V0H1.578zm0 0"/></symbol></defs><g><path fill="#fff" d="M0 0h300v300H0z"/><path d="M158.863 75.07l-3.453 18.813" stroke-width="1.2" stroke="#f00" stroke-miterlimit="10" fill="none"/><path d="M155.41 93.883l-3.45 18.812" stroke-width="1.2" stroke="#000" stroke-miterlimit="10" fill="none"/><path d="M167.715 76.695l-3.45 18.813" stroke-width="1.2" stroke="#f00" stroke-miterlimit="10" fill="none"/><path d="M164.266 95.508l-3.453 18.808" stroke-width="1.2" stroke="#000" stroke-miterlimit="10" fill="none"/><path d="M157.29 66.383h13v19h-13zm0 0" fill="#fff"/><use xlink:href="#a" x="157.289" y="81.234" fill="#f00"/><path d="M156.387 113.508l29.133 24.785M120.355 126.34l36.032-12.832M185.52 138.293l-6.9 37.62M193.684 143.68l-5.524 30.097M221.55 125.457l-36.03 12.836M178.62 175.914l-36.034 12.836M178.62 175.914l29.13 24.79M142.586 188.75l-7.285 17.684" stroke-width="1.2" stroke="#000" stroke-miterlimit="10" fill="none"/><path d="M135.3 206.434l-7.284 17.683" stroke-width="1.2" stroke="#00f" stroke-miterlimit="10" fill="none"/><path d="M132.81 188.86l-5.83 14.144" stroke-width="1.2" stroke="#000" stroke-miterlimit="10" fill="none"/><path d="M126.98 203.004l-5.828 14.148" stroke-width="1.2" stroke="#00f" stroke-miterlimit="10" fill="none"/><path d="M113.457 163.965l29.13 24.785" stroke-width="1.2" stroke="#000" stroke-miterlimit="10" fill="none"/><path d="M128.016 224.117l-38.137-2.93" stroke-width="1.2" stroke="#00f" stroke-miterlimit="10" fill="none"/><path d="M122.016 214.617h12v19h-12zm0 0" fill="#fff"/><use xlink:href="#b" x="122.016" y="229.469" fill="#00f"/><path d="M89.88 221.188l-4.5-18.59" stroke-width="1.2" stroke="#00f" stroke-miterlimit="10" fill="none"/><path d="M85.38 202.598l-4.5-18.586" stroke-width="1.2" stroke="#000" stroke-miterlimit="10" fill="none"/><path d="M77.88 211.688h24v19h-24zm0 0" fill="#fff"/><g fill="#00f"><use xlink:href="#b" x="77.879" y="226.539"/><use xlink:href="#c" x="89.848" y="226.539"/></g><path d="M80.88 184.012l32.577-20.047M49.316 162.406l31.563 21.606M57.555 157.137l25.254 17.285M113.457 163.965l6.898-37.625M122.996 161.824l5.524-30.097M120.355 126.34l-33.617-18.606M86.738 107.734l-34.492 16.532M87.18 117.504L59.586 130.73M52.246 124.266l-2.93 38.14M207.75 200.703l36.035-12.836M208.336 190.94l28.824-10.268M243.785 187.867l6.9-37.625M250.684 150.242l-29.133-24.785M241.938 154.62l-23.305-19.83" stroke-width="1.2" stroke="#000" stroke-miterlimit="10" fill="none"/></g></svg>