<svg xmlns="http://www.w3.org/2000/svg" xmlns:xlink="http://www.w3.org/1999/xlink" width="300pt" height="300pt" viewBox="0 0 300 300"><defs><symbol overflow="visible"><path d="M.547 1.938V-7.75h5.5v9.688zm.625-.61h4.266v-8.47H1.171zm0 0"/></symbol><symbol overflow="visible" id="a"><path d="M4.328-7.28c-.78 0-1.406.296-1.875.89-.46.585-.687 1.382-.687 2.39 0 1.012.226 1.813.687 2.406.47.586 1.094.875 1.875.875.79 0 1.414-.288 1.875-.874.457-.593.688-1.394.688-2.406 0-1.008-.23-1.805-.687-2.39-.46-.594-1.086-.89-1.875-.89zm0-.892c1.125 0 2.024.383 2.703 1.14C7.708-6.28 8.048-5.27 8.048-4c0 1.262-.34 2.273-1.016 3.03C6.353-.22 5.454.157 4.33.157S2.3-.22 1.625-.97c-.668-.75-1-1.757-1-3.03 0-1.27.332-2.28 1-3.03.676-.76 1.578-1.142 2.703-1.142zm0 0"/></symbol><symbol overflow="visible" id="b"><path d="M1.078-8.016h1.47l3.546 6.704v-6.704h1.062V0H5.688L2.124-6.703V0H1.078zm0 0"/></symbol></defs><g><path fill="#fff" d="M0 0h300v300H0z"/><path d="M146.027 106.813L135.18 99.94" stroke-width="1.2" stroke="#f00" stroke-miterlimit="10" fill="none"/><path d="M135.18 99.94l-10.848-6.866M139.664 131.688l3.18-12.438" stroke-width="1.2" stroke="#000" stroke-miterlimit="10" fill="none"/><path d="M142.844 119.25l3.183-12.438" stroke-width="1.2" stroke="#f00" stroke-miterlimit="10" fill="none"/><path d="M142.027 100.313h9v13h-9zm0 0" fill="#fff"/><use xlink:href="#a" x="142.027" y="110.214" fill="#f00"/><path d="M124.332 93.074l-9.887 8.196" stroke-width="1.2" stroke="#000" stroke-miterlimit="10" fill="none"/><path d="M114.445 101.27l-9.882 8.19" stroke-width="1.2" stroke="#00f" stroke-miterlimit="10" fill="none"/><path d="M126.21 99.363l-7.91 6.555" stroke-width="1.2" stroke="#000" stroke-miterlimit="10" fill="none"/><path d="M118.3 105.918l-7.905 6.56M104.563 109.46l4.738 11.935" stroke-width="1.2" stroke="#00f" stroke-miterlimit="10" fill="none"/><path d="M109.3 121.395l4.74 11.933" stroke-width="1.2" stroke="#000" stroke-miterlimit="10" fill="none"/><path d="M100.563 102.96h8v13h-8zm0 0" fill="#fff"/><use xlink:href="#b" x="100.563" y="112.862" fill="#00f"/><path d="M114.04 133.328l25.624-1.64M116.215 127.133l20.5-1.31M114.04 133.328l-13.74 21.695M139.664 131.688l16.39 19.77M156.055 151.457l-8.926 24.078M156.055 151.457l25.312-4.31M159.598 156.984l20.254-3.445M147.13 175.535l16.386 19.77M153.418 173.656l13.11 15.817M163.516 195.305l25.312-4.31M188.828 190.996l4.465-12.04" stroke-width="1.2" stroke="#000" stroke-miterlimit="10" fill="none"/><path d="M193.293 178.957l4.465-12.04M208.97 206.926l-10.072-7.965" stroke-width="1.2" stroke="#00f" stroke-miterlimit="10" fill="none"/><path d="M198.898 198.96l-10.07-7.964" stroke-width="1.2" stroke="#000" stroke-miterlimit="10" fill="none"/><path d="M210.703 200.594l-8.055-6.37" stroke-width="1.2" stroke="#00f" stroke-miterlimit="10" fill="none"/><path d="M202.648 194.223l-8.054-6.37" stroke-width="1.2" stroke="#000" stroke-miterlimit="10" fill="none"/><path d="M197.758 166.918l-8.196-9.883" stroke-width="1.2" stroke="#00f" stroke-miterlimit="10" fill="none"/><path d="M189.563 157.035l-8.196-9.887" stroke-width="1.2" stroke="#000" stroke-miterlimit="10" fill="none"/><path d="M197.758 166.918l12.828.527" stroke-width="1.2" stroke="#00f" stroke-miterlimit="10" fill="none"/><path d="M210.586 167.445l12.828.524" stroke-width="1.2" stroke="#000" stroke-miterlimit="10" fill="none"/><path d="M193.758 160.418h8v13h-8zm0 0" fill="#fff"/><use xlink:href="#b" x="193.758" y="170.319" fill="#00f"/><path d="M223.414 167.97l3.465 12.362" stroke-width="1.2" stroke="#000" stroke-miterlimit="10" fill="none"/><path d="M226.88 180.332l3.464 12.363" stroke-width="1.2" stroke="#00f" stroke-miterlimit="10" fill="none"/><path d="M218.29 172.07l2.773 9.89" stroke-width="1.2" stroke="#000" stroke-miterlimit="10" fill="none"/><path d="M221.063 181.96l2.77 9.892" stroke-width="1.2" stroke="#00f" stroke-miterlimit="10" fill="none"/><path d="M223.414 167.97l15.93-20.142" stroke-width="1.2" stroke="#000" stroke-miterlimit="10" fill="none"/><path d="M230.344 192.695l-21.375 14.23" stroke-width="1.2" stroke="#00f" stroke-miterlimit="10" fill="none"/><path d="M226.344 186.195h8v13h-8zm0 0" fill="#fff"/><use xlink:href="#b" x="226.344" y="196.097" fill="#00f"/><path d="M204.97 200.426h8v13h-8zm0 0" fill="#fff"/><use xlink:href="#b" x="204.969" y="210.327" fill="#00f"/><path d="M239.344 147.828l25.406 3.727M239.344 147.828l-9.477-23.867M100.3 155.023l-25.655-1.05M97.488 160.957l-20.523-.84M112.223 177.766L100.3 155.023M74.645 153.973l-13.74 21.695M60.906 175.668l11.922 22.746M67.45 175.14l9.538 18.196M60.906 175.668L35.25 174.62M72.828 198.414l25.656 1.047M98.484 199.46l13.74-21.694M94.754 194.063l10.988-17.36" stroke-width="1.2" stroke="#000" stroke-miterlimit="10" fill="none"/></g></svg>