<svg xmlns="http://www.w3.org/2000/svg" xmlns:xlink="http://www.w3.org/1999/xlink" width="300pt" height="300pt" viewBox="0 0 300 300"><defs><symbol overflow="visible"><path d="M.547 1.938V-7.75h5.5v9.688zm.625-.61h4.266v-8.47H1.171zm0 0"/></symbol><symbol overflow="visible" id="a"><path d="M4.328-7.28c-.78 0-1.406.296-1.875.89-.46.585-.687 1.382-.687 2.39 0 1.012.226 1.813.687 2.406.47.586 1.094.875 1.875.875.79 0 1.414-.288 1.875-.874.457-.593.688-1.394.688-2.406 0-1.008-.23-1.805-.687-2.39-.46-.594-1.086-.89-1.875-.89zm0-.892c1.125 0 2.024.383 2.703 1.14C7.708-6.28 8.048-5.27 8.048-4c0 1.262-.34 2.273-1.016 3.03C6.353-.22 5.454.157 4.33.157S2.3-.22 1.625-.97c-.668-.75-1-1.757-1-3.03 0-1.27.332-2.28 1-3.03.676-.76 1.578-1.142 2.703-1.142zm0 0"/></symbol><symbol overflow="visible" id="b"><path d="M1.078-8.016h1.47l3.546 6.704v-6.704h1.062V0H5.688L2.124-6.703V0H1.078zm0 0"/></symbol><symbol overflow="visible" id="c"><path d="M1.078-8.016h1.094v3.282H6.11v-3.282h1.077V0H6.11v-3.813H2.17V0H1.078zm0 0"/></symbol></defs><g><path fill="#fff" d="M0 0h300v300H0z"/><path d="M123.336 105.086l-11.47-7.027" stroke-width="1.2" stroke="#f00" stroke-miterlimit="10" fill="none"/><path d="M111.867 98.06l-11.47-7.03M117.06 131.238l3.135-13.078" stroke-width="1.2" stroke="#000" stroke-miterlimit="10" fill="none"/><path d="M120.195 118.16l3.14-13.074" stroke-width="1.2" stroke="#f00" stroke-miterlimit="10" fill="none"/><path d="M119.336 98.586h9v13h-9zm0 0" fill="#fff"/><use xlink:href="#a" x="119.336" y="108.487" fill="#f00"/><path d="M100.398 91.03l-10.226 8.74" stroke-width="1.2" stroke="#000" stroke-miterlimit="10" fill="none"/><path d="M90.172 99.77l-10.227 8.734" stroke-width="1.2" stroke="#00f" stroke-miterlimit="10" fill="none"/><path d="M102.465 97.59l-8.18 6.988" stroke-width="1.2" stroke="#000" stroke-miterlimit="10" fill="none"/><path d="M94.285 104.578l-8.183 6.992M79.945 108.504l5.15 12.426" stroke-width="1.2" stroke="#00f" stroke-miterlimit="10" fill="none"/><path d="M85.094 120.93l5.148 12.422" stroke-width="1.2" stroke="#000" stroke-miterlimit="10" fill="none"/><path d="M75.945 102.004h8v13h-8zm0 0" fill="#fff"/><use xlink:href="#b" x="75.945" y="111.905" fill="#00f"/><path d="M90.242 133.352l26.817-2.114M92.426 126.832l21.453-1.69M90.242 133.352l-14.05 22.937M117.06 131.238l17.467 20.453M134.527 151.69l-8.972 25.357M134.527 151.69l26.45-4.9M138.328 157.426l21.156-3.926M125.555 177.047l17.468 20.453M132.113 174.98l13.977 16.364M143.023 197.5l26.45-4.906M169.473 192.594l4.488-12.676" stroke-width="1.2" stroke="#000" stroke-miterlimit="10" fill="none"/><path d="M173.96 179.918l4.49-12.68M190.813 208.97l-10.672-8.19" stroke-width="1.2" stroke="#00f" stroke-miterlimit="10" fill="none"/><path d="M180.14 200.78l-10.667-8.186" stroke-width="1.2" stroke="#000" stroke-miterlimit="10" fill="none"/><path d="M192.53 202.31l-8.534-6.548" stroke-width="1.2" stroke="#00f" stroke-miterlimit="10" fill="none"/><path d="M183.996 195.762l-8.54-6.55" stroke-width="1.2" stroke="#000" stroke-miterlimit="10" fill="none"/><path d="M178.45 167.238l-8.74-10.226" stroke-width="1.2" stroke="#00f" stroke-miterlimit="10" fill="none"/><path d="M169.71 157.012l-8.733-10.223" stroke-width="1.2" stroke="#000" stroke-miterlimit="10" fill="none"/><path d="M178.45 167.238l13.44.352" stroke-width="1.2" stroke="#00f" stroke-miterlimit="10" fill="none"/><path d="M191.89 167.59l13.446.35" stroke-width="1.2" stroke="#000" stroke-miterlimit="10" fill="none"/><path d="M174.45 160.738h8v13h-8zm0 0" fill="#fff"/><use xlink:href="#b" x="174.449" y="170.64" fill="#00f"/><path d="M205.336 167.94l3.82 12.896" stroke-width="1.2" stroke="#000" stroke-miterlimit="10" fill="none"/><path d="M209.156 180.836l3.824 12.894" stroke-width="1.2" stroke="#00f" stroke-miterlimit="10" fill="none"/><path d="M200.03 172.316l3.06 10.317" stroke-width="1.2" stroke="#000" stroke-miterlimit="10" fill="none"/><path d="M203.09 182.633l3.055 10.316" stroke-width="1.2" stroke="#00f" stroke-miterlimit="10" fill="none"/><path d="M205.336 167.94l8.187-10.67" stroke-width="1.2" stroke="#000" stroke-miterlimit="10" fill="none"/><path d="M213.523 157.27l8.188-10.672M212.98 193.73l-22.167 15.24" stroke-width="1.2" stroke="#00f" stroke-miterlimit="10" fill="none"/><path d="M208.98 187.23h8v13h-8zm0 0" fill="#fff"/><use xlink:href="#b" x="208.98" y="197.132" fill="#00f"/><path d="M186.813 202.47h8v13h-8zm0 0" fill="#fff"/><use xlink:href="#b" x="186.813" y="212.37" fill="#00f"/><path d="M221.71 146.598l13.333 1.754" stroke-width="1.2" stroke="#00f" stroke-miterlimit="10" fill="none"/><path d="M235.043 148.352l13.336 1.753" stroke-width="1.2" stroke="#000" stroke-miterlimit="10" fill="none"/><path d="M213.71 140.098h17v13h-17zm0 0" fill="#fff"/><g fill="#00f"><use xlink:href="#b" x="213.711" y="149.999"/><use xlink:href="#c" x="221.694" y="149.999"/></g><path d="M248.38 150.105l16.37-21.34M76.19 156.29l-26.89-.704M73.336 162.547l-21.512-.563M89.027 179.926L76.19 156.29M49.3 155.586l-14.05 22.937M35.25 178.523l12.836 23.637M42.094 177.867l10.27 18.91M48.086 202.16l26.89.703M74.977 202.863l14.05-22.937M70.984 197.262l11.243-18.348" stroke-width="1.2" stroke="#000" stroke-miterlimit="10" fill="none"/></g></svg>