<svg xmlns="http://www.w3.org/2000/svg" xmlns:xlink="http://www.w3.org/1999/xlink" width="300pt" height="300pt" viewBox="0 0 300 300"><defs><symbol overflow="visible"><path d="M.547 1.938V-7.75h5.5v9.688zm.625-.61h4.266v-8.47H1.171zm0 0"/></symbol><symbol overflow="visible" id="a"><path d="M1.078-8.016h4.61v.907H2.171v2.36h3.172v.922H2.172V0H1.078zm0 0"/></symbol><symbol overflow="visible" id="b"><path d="M1.078-8.016h1.47l3.546 6.704v-6.704h1.062V0H5.688L2.124-6.703V0H1.078zm0 0"/></symbol><symbol overflow="visible" id="c"><path d="M4.328-7.28c-.78 0-1.406.296-1.875.89-.46.585-.687 1.382-.687 2.39 0 1.012.226 1.813.687 2.406.47.586 1.094.875 1.875.875.79 0 1.414-.288 1.875-.874.457-.593.688-1.394.688-2.406 0-1.008-.23-1.805-.687-2.39-.46-.594-1.086-.89-1.875-.89zm0-.892c1.125 0 2.024.383 2.703 1.14C7.708-6.28 8.048-5.27 8.048-4c0 1.262-.34 2.273-1.016 3.03C6.353-.22 5.454.157 4.33.157S2.3-.22 1.625-.97c-.668-.75-1-1.757-1-3.03 0-1.27.332-2.28 1-3.03.676-.76 1.578-1.142 2.703-1.142zm0 0"/></symbol></defs><g><path fill="#fff" d="M0 0h300v300H0z"/><path d="M50.71 114.7l4.88 12.91" stroke-width="1.2" stroke="#3cc" stroke-miterlimit="10" fill="none"/><path d="M55.59 127.61l4.875 12.91" stroke-width="1.2" stroke="#000" stroke-miterlimit="10" fill="none"/><path d="M43.71 108.2h7v13h-7zm0 0" fill="#fff"/><use xlink:href="#a" x="43.711" y="118.101" fill="#3cc"/><path d="M60.465 140.52L42.98 161.88M63.742 146.77l-13.988 17.085M87.707 144.984l-27.242-4.464M42.98 161.88l9.754 25.82M52.734 187.7l-8.742 10.68" stroke-width="1.2" stroke="#000" stroke-miterlimit="10" fill="none"/><path d="M43.992 198.38l-8.742 10.68" stroke-width="1.2" stroke="#3cc" stroke-miterlimit="10" fill="none"/><path d="M52.734 187.7l27.24 4.464M56.508 181.738l21.793 3.57" stroke-width="1.2" stroke="#000" stroke-miterlimit="10" fill="none"/><path d="M28.25 202.56h7v13h-7zm0 0" fill="#fff"/><use xlink:href="#a" x="28.25" y="212.46" fill="#3cc"/><path d="M79.973 192.164l4.88 12.91" stroke-width="1.2" stroke="#000" stroke-miterlimit="10" fill="none"/><path d="M84.852 205.074l4.878 12.91" stroke-width="1.2" stroke="#3cc" stroke-miterlimit="10" fill="none"/><path d="M79.973 192.164l17.488-21.36" stroke-width="1.2" stroke="#000" stroke-miterlimit="10" fill="none"/><path d="M86.73 211.484h7v13h-7zm0 0" fill="#fff"/><use xlink:href="#a" x="86.73" y="221.386" fill="#3cc"/><path d="M97.46 170.805l-9.753-25.82M90.41 170.52l-7.805-20.66M87.707 144.984l17.484-21.36M105.19 123.625l-3.502-13.352" stroke-width="1.2" stroke="#000" stroke-miterlimit="10" fill="none"/><path d="M101.688 110.273l-3.5-13.347" stroke-width="1.2" stroke="#00f" stroke-miterlimit="10" fill="none"/><path d="M132.746 125.215l-27.555-1.59M130.367 118.574L108.32 117.3" stroke-width="1.2" stroke="#000" stroke-miterlimit="10" fill="none"/><path d="M98.188 96.926l11.617-7.457" stroke-width="1.2" stroke="#00f" stroke-miterlimit="10" fill="none"/><path d="M109.805 89.47l11.613-7.454" stroke-width="1.2" stroke="#000" stroke-miterlimit="10" fill="none"/><path d="M104.02 100.898l9.293-5.96" stroke-width="1.2" stroke="#00f" stroke-miterlimit="10" fill="none"/><path d="M113.313 94.938l9.29-5.965" stroke-width="1.2" stroke="#000" stroke-miterlimit="10" fill="none"/><path d="M94.188 90.426h8v13h-8zm0 0" fill="#fff"/><use xlink:href="#b" x="94.188" y="100.327" fill="#00f"/><path d="M121.418 82.016l10.68 8.742" stroke-width="1.2" stroke="#000" stroke-miterlimit="10" fill="none"/><path d="M132.098 90.758l10.68 8.742M142.777 99.5l-5.015 12.86" stroke-width="1.2" stroke="#f00" stroke-miterlimit="10" fill="none"/><path d="M137.762 112.36l-5.016 12.855" stroke-width="1.2" stroke="#000" stroke-miterlimit="10" fill="none"/><path d="M138.777 93h9v13h-9zm0 0" fill="#fff"/><use xlink:href="#c" x="138.777" y="102.901" fill="#f00"/><path d="M132.746 125.215l14.91 23.23M147.656 148.445l-12.66 24.528M147.656 148.445l27.574-1.297M150.72 154.805l22.057-1.04M134.996 172.973l14.91 23.23M141.953 171.79l11.926 18.58M149.906 196.203l27.57-1.297M177.477 194.906l6.332-12.265" stroke-width="1.2" stroke="#000" stroke-miterlimit="10" fill="none"/><path d="M183.81 182.64l6.33-12.26M196.89 214.527l-9.706-9.812" stroke-width="1.2" stroke="#00f" stroke-miterlimit="10" fill="none"/><path d="M187.184 204.715l-9.707-9.81" stroke-width="1.2" stroke="#000" stroke-miterlimit="10" fill="none"/><path d="M199.566 207.996l-7.765-7.848" stroke-width="1.2" stroke="#00f" stroke-miterlimit="10" fill="none"/><path d="M191.8 200.148l-7.765-7.85" stroke-width="1.2" stroke="#000" stroke-miterlimit="10" fill="none"/><path d="M190.14 170.38l-7.456-11.618" stroke-width="1.2" stroke="#00f" stroke-miterlimit="10" fill="none"/><path d="M182.684 158.762l-7.454-11.614" stroke-width="1.2" stroke="#000" stroke-miterlimit="10" fill="none"/><path d="M190.14 170.38l13.618 2.23" stroke-width="1.2" stroke="#00f" stroke-miterlimit="10" fill="none"/><path d="M203.758 172.61l13.62 2.23" stroke-width="1.2" stroke="#000" stroke-miterlimit="10" fill="none"/><path d="M186.14 163.88h8v13h-8zm0 0" fill="#fff"/><use xlink:href="#b" x="186.141" y="173.78" fill="#00f"/><path d="M217.38 174.84l2.085 13.644" stroke-width="1.2" stroke="#000" stroke-miterlimit="10" fill="none"/><path d="M219.465 188.484l2.086 13.64" stroke-width="1.2" stroke="#00f" stroke-miterlimit="10" fill="none"/><path d="M211.375 178.55l1.668 10.915" stroke-width="1.2" stroke="#000" stroke-miterlimit="10" fill="none"/><path d="M213.043 189.465l1.672 10.914" stroke-width="1.2" stroke="#00f" stroke-miterlimit="10" fill="none"/><path d="M217.38 174.84L237 155.426" stroke-width="1.2" stroke="#000" stroke-miterlimit="10" fill="none"/><path d="M221.55 202.125l-24.66 12.402" stroke-width="1.2" stroke="#00f" stroke-miterlimit="10" fill="none"/><path d="M217.55 195.625h8v13h-8zm0 0" fill="#fff"/><use xlink:href="#b" x="217.551" y="205.526" fill="#00f"/><path d="M192.89 208.027h8v13h-8zm0 0" fill="#fff"/><use xlink:href="#b" x="192.891" y="217.929" fill="#00f"/><path d="M237 155.426l27.602.148M237.148 127.824L237 155.426M264.602 155.574l.148-27.6M264.75 127.973l-27.602-.15" stroke-width="1.2" stroke="#000" stroke-miterlimit="10" fill="none"/></g></svg>