<svg xmlns="http://www.w3.org/2000/svg" xmlns:xlink="http://www.w3.org/1999/xlink" width="300pt" height="300pt" viewBox="0 0 300 300"><defs><symbol overflow="visible"><path d="M.594 2.125V-8.47h6V2.126zm.672-.672h4.671V-7.78h-4.67zm0 0"/></symbol><symbol overflow="visible" id="a"><path d="M1.172-8.75h5.03v1H2.36v2.578h3.468v1h-3.47V0H1.173zm0 0"/></symbol><symbol overflow="visible" id="b"><path d="M1.172-8.75h1.594l3.89 7.313V-8.75h1.14V0H6.204L2.328-7.313V0H1.172zm0 0"/></symbol><symbol overflow="visible" id="c"><path d="M4.734-7.953c-.867 0-1.554.324-2.062.97-.5.635-.75 1.51-.75 2.624 0 1.094.25 1.965.75 2.61.508.637 1.195.953 2.062.953.852 0 1.532-.316 2.032-.953.507-.645.765-1.516.765-2.61 0-1.113-.257-1.988-.764-2.624-.5-.645-1.18-.97-2.032-.97zm0-.953c1.22 0 2.192.414 2.922 1.234.74.824 1.11 1.93 1.11 3.313 0 1.376-.37 2.477-1.11 3.298C6.926-.24 5.953.17 4.734.17c-1.23 0-2.214-.41-2.953-1.234C1.04-1.882.673-2.984.673-4.36c0-1.382.367-2.488 1.11-3.312.738-.82 1.722-1.234 2.952-1.234zm0 0"/></symbol></defs><g><path fill="#fff" d="M0 0h300v300H0z"/><path d="M36.98 120.258l6.9 12.94" stroke-width="1.2" stroke="#3cc" stroke-miterlimit="10" fill="none"/><path d="M43.88 133.2l6.893 12.94" stroke-width="1.2" stroke="#000" stroke-miterlimit="10" fill="none"/><path d="M29.98 113.258h7v14h-7zm0 0" fill="#fff"/><use xlink:href="#a" x="29.98" y="124.396" fill="#3cc"/><path d="M50.773 146.14L35.25 171.028M55.074 152.285L42.656 172.19M80.086 147.14l-29.313-1M35.25 171.027l13.79 25.887M49.04 196.914l29.315 1M52.207 190.117l23.45.8M78.355 197.914l6.895 12.945" stroke-width="1.2" stroke="#000" stroke-miterlimit="10" fill="none"/><path d="M85.25 210.86l6.895 12.94" stroke-width="1.2" stroke="#3cc" stroke-miterlimit="10" fill="none"/><path d="M78.355 197.914l15.52-24.887" stroke-width="1.2" stroke="#000" stroke-miterlimit="10" fill="none"/><path d="M89.145 216.8h7v14h-7zm0 0" fill="#fff"/><use xlink:href="#a" x="89.145" y="227.939" fill="#3cc"/><path d="M93.875 173.027l-13.79-25.886M86.406 173.684l-11.03-20.707M80.086 147.14L95.61 122.26M95.61 122.258l-5.505-13.594" stroke-width="1.2" stroke="#000" stroke-miterlimit="10" fill="none"/><path d="M90.105 108.664L84.598 95.07" stroke-width="1.2" stroke="#00f" stroke-miterlimit="10" fill="none"/><path d="M124.867 120.188l-29.258 2.07M121.453 113.508l-23.406 1.656" stroke-width="1.2" stroke="#000" stroke-miterlimit="10" fill="none"/><path d="M84.598 95.07l11.226-9.433" stroke-width="1.2" stroke="#00f" stroke-miterlimit="10" fill="none"/><path d="M95.824 85.637L107.05 76.2" stroke-width="1.2" stroke="#000" stroke-miterlimit="10" fill="none"/><path d="M91.285 98.465l8.98-7.547" stroke-width="1.2" stroke="#00f" stroke-miterlimit="10" fill="none"/><path d="M100.266 90.918l8.98-7.547" stroke-width="1.2" stroke="#000" stroke-miterlimit="10" fill="none"/><path d="M80.598 88.07h9v14h-9zm0 0" fill="#fff"/><use xlink:href="#b" x="80.598" y="99.209" fill="#00f"/><path d="M107.05 76.2l12.446 7.76" stroke-width="1.2" stroke="#000" stroke-miterlimit="10" fill="none"/><path d="M119.496 83.96l12.442 7.763M131.938 91.723l-3.536 14.23" stroke-width="1.2" stroke="#f00" stroke-miterlimit="10" fill="none"/><path d="M128.402 105.953l-3.535 14.234" stroke-width="1.2" stroke="#000" stroke-miterlimit="10" fill="none"/><path d="M126.938 84.723h10v14h-10zm0 0" fill="#fff"/><use xlink:href="#c" x="126.938" y="95.861" fill="#f00"/><path d="M124.867 120.188l18.87 22.453M143.738 142.64l-10.01 27.57M143.738 142.64l28.88-5.117M147.828 148.922l23.106-4.09M133.727 170.21l18.87 22.454M140.898 168.016l15.098 17.96M152.598 192.664l28.882-5.117M181.48 187.547l5.004-13.785" stroke-width="1.2" stroke="#000" stroke-miterlimit="10" fill="none"/><path d="M186.484 173.762l5.004-13.785M204.605 205.586l-11.562-9.02" stroke-width="1.2" stroke="#00f" stroke-miterlimit="10" fill="none"/><path d="M193.043 196.566l-11.563-9.02" stroke-width="1.2" stroke="#000" stroke-miterlimit="10" fill="none"/><path d="M206.54 198.34l-9.25-7.215" stroke-width="1.2" stroke="#00f" stroke-miterlimit="10" fill="none"/><path d="M197.29 191.125l-9.25-7.215" stroke-width="1.2" stroke="#000" stroke-miterlimit="10" fill="none"/><path d="M191.488 159.977l-9.433-11.227" stroke-width="1.2" stroke="#00f" stroke-miterlimit="10" fill="none"/><path d="M182.055 148.75l-9.438-11.227" stroke-width="1.2" stroke="#000" stroke-miterlimit="10" fill="none"/><path d="M191.488 159.977l14.657.5" stroke-width="1.2" stroke="#00f" stroke-miterlimit="10" fill="none"/><path d="M206.145 160.477l14.66.5" stroke-width="1.2" stroke="#000" stroke-miterlimit="10" fill="none"/><path d="M187.488 152.977h9v14h-9zm0 0" fill="#fff"/><use xlink:href="#b" x="187.488" y="164.115" fill="#00f"/><path d="M220.805 160.977l4.05 14.093" stroke-width="1.2" stroke="#000" stroke-miterlimit="10" fill="none"/><path d="M224.855 175.07l4.055 14.094" stroke-width="1.2" stroke="#00f" stroke-miterlimit="10" fill="none"/><path d="M214.98 165.703l3.243 11.274" stroke-width="1.2" stroke="#000" stroke-miterlimit="10" fill="none"/><path d="M218.223 176.977l3.246 11.277" stroke-width="1.2" stroke="#00f" stroke-miterlimit="10" fill="none"/><path d="M220.805 160.977l18.035-23.13" stroke-width="1.2" stroke="#000" stroke-miterlimit="10" fill="none"/><path d="M228.91 189.164l-24.305 16.422" stroke-width="1.2" stroke="#00f" stroke-miterlimit="10" fill="none"/><path d="M224.91 182.164h9v14h-9zm0 0" fill="#fff"/><use xlink:href="#b" x="224.91" y="193.303" fill="#00f"/><path d="M200.605 198.586h9v14h-9zm0 0" fill="#fff"/><use xlink:href="#b" x="200.605" y="209.725" fill="#00f"/><path d="M238.84 137.848l24.863-15.563M238.84 137.848l-19.64-21.782M264.75 151.598l-25.91-13.75M263.703 122.285l1.047 29.313" stroke-width="1.2" stroke="#000" stroke-miterlimit="10" fill="none"/></g></svg>