<svg xmlns="http://www.w3.org/2000/svg" xmlns:xlink="http://www.w3.org/1999/xlink" width="300pt" height="300pt" viewBox="0 0 300 300"><defs><symbol overflow="visible"><path d="M.453 1.594v-7.938h4.5v7.938zm.5-.5h3.5v-6.938h-3.5zm0 0"/></symbol><symbol overflow="visible" id="a"><path d="M5.797-6.063v.938c-.305-.27-.625-.473-.97-.61-.335-.144-.686-.218-1.06-.218-.75 0-1.33.23-1.736.687-.397.46-.592 1.12-.592 1.985 0 .866.195 1.526.593 1.983.408.46.986.688 1.736.688.375 0 .726-.066 1.062-.203.344-.132.664-.343.97-.625V-.5c-.314.21-.642.367-.986.47-.343.1-.714.155-1.11.155-.99 0-1.772-.3-2.343-.906C.784-1.396.5-2.228.5-3.28c0-1.052.285-1.88.86-2.486.57-.613 1.35-.92 2.343-.92.395-.002.766.053 1.11.155.35.104.68.26.984.468zm0 0"/></symbol><symbol overflow="visible" id="b"><path d="M.844-6.844h.812V0H.844zm0 0"/></symbol><symbol overflow="visible" id="c"><path d="M.89-6.563H2.08l2.906 5.485v-5.484h.86V0H4.656L1.75-5.484V0H.89zm0 0"/></symbol><symbol overflow="visible" id="d"><path d="M3.547-5.953c-.65 0-1.164.242-1.547.72-.375.48-.563 1.13-.563 1.952 0 .835.188 1.49.563 1.967.383.48.898.72 1.547.72.644 0 1.156-.24 1.53-.72.376-.476.564-1.132.564-1.968 0-.822-.187-1.474-.562-1.954-.375-.477-.887-.72-1.53-.72zm0-.734c.914 0 1.648.312 2.203.937.55.617.828 1.438.828 2.47 0 1.042-.277 1.87-.828 2.483-.555.617-1.29.922-2.203.922-.93 0-1.668-.305-2.22-.922C.774-1.41.5-2.237.5-3.28c0-1.033.273-1.853.828-2.47.55-.625 1.29-.938 2.22-.938zm0 0"/></symbol><symbol overflow="visible" id="e"><path d="M.89-6.563h.876v2.688H5v-2.688h.89V0H5v-3.125H1.766V0H.89zm0 0"/></symbol><symbol overflow="visible"><path d="M.406 1.422V-5.64h4V1.42zM.844.97h3.11v-6.157H.843zm0 0"/></symbol><symbol overflow="visible" id="f"><path d="M3.688-5.016v2.172h2.17v.672H3.69V0H3.03v-2.172H.845v-.672H3.03v-2.172zm0 0"/></symbol></defs><g><path fill="#fff" d="M0 0h300v300H0z"/><path d="M119.063 224.188l-10.97-5.2" stroke-width="1.2" stroke="#0c0" stroke-miterlimit="10" fill="none"/><path d="M108.094 218.988l-10.97-5.2" stroke-width="1.2" stroke="#000" stroke-miterlimit="10" fill="none"/><path d="M114.063 218.688h10v11h-10zm0 0" fill="#fff"/><g fill="#0c0"><use xlink:href="#a" x="114.063" y="227.351"/><use xlink:href="#b" x="120.576" y="227.351"/></g><path d="M97.125 213.79l-19.97 13.8M91.883 210.473l-15.977 11.035M95.164 189.598l1.96 24.19M77.156 227.59l-21.933-10.4M55.223 217.19l-9.99 6.9" stroke-width="1.2" stroke="#000" stroke-miterlimit="10" fill="none"/><path d="M45.234 224.09l-9.984 6.898" stroke-width="1.2" stroke="#0c0" stroke-miterlimit="10" fill="none"/><path d="M55.223 217.19l-1.965-24.194M60.72 214.31l-1.572-19.357" stroke-width="1.2" stroke="#000" stroke-miterlimit="10" fill="none"/><path d="M25.25 225.488h10v11h-10zm0 0" fill="#fff"/><g fill="#0c0"><use xlink:href="#a" x="25.25" y="234.151"/><use xlink:href="#b" x="31.764" y="234.151"/></g><path d="M53.258 192.996l19.97-13.797M73.227 179.2l21.937 10.398M72.977 185.398l17.546 8.32M95.164 189.598l19.97-13.8M115.133 175.797l10.97 5.2" stroke-width="1.2" stroke="#000" stroke-miterlimit="10" fill="none"/><path d="M126.102 180.996l10.968 5.2" stroke-width="1.2" stroke="#00f" stroke-miterlimit="10" fill="none"/><path d="M119.773 171.676l8.774 4.16" stroke-width="1.2" stroke="#000" stroke-miterlimit="10" fill="none"/><path d="M128.547 175.836l8.773 4.16" stroke-width="1.2" stroke="#00f" stroke-miterlimit="10" fill="none"/><path d="M113.172 151.605l1.96 24.192" stroke-width="1.2" stroke="#000" stroke-miterlimit="10" fill="none"/><path d="M137.07 186.195l9.985-6.898" stroke-width="1.2" stroke="#00f" stroke-miterlimit="10" fill="none"/><path d="M147.055 179.297l9.984-6.9" stroke-width="1.2" stroke="#000" stroke-miterlimit="10" fill="none"/><path d="M134.07 180.695h7v11h-7zm0 0" fill="#fff"/><use xlink:href="#c" x="134.07" y="189.358" fill="#00f"/><path d="M157.04 172.398l-.98-12.097" stroke-width="1.2" stroke="#000" stroke-miterlimit="10" fill="none"/><path d="M156.06 160.3l-.982-12.097" stroke-width="1.2" stroke="#00f" stroke-miterlimit="10" fill="none"/><path d="M151.152 170.44l-.785-9.678" stroke-width="1.2" stroke="#000" stroke-miterlimit="10" fill="none"/><path d="M150.367 160.762l-.79-9.676" stroke-width="1.2" stroke="#00f" stroke-miterlimit="10" fill="none"/><path d="M157.04 172.398l10.968 5.196" stroke-width="1.2" stroke="#000" stroke-miterlimit="10" fill="none"/><path d="M168.008 177.594l10.97 5.2M155.078 148.203l-10.97-5.2" stroke-width="1.2" stroke="#00f" stroke-miterlimit="10" fill="none"/><path d="M144.11 143.004l-10.97-5.2" stroke-width="1.2" stroke="#000" stroke-miterlimit="10" fill="none"/><path d="M152.078 142.703h7v11h-7zm0 0" fill="#fff"/><use xlink:href="#c" x="152.078" y="151.366" fill="#00f"/><path d="M133.14 137.805l-.98-12.094" stroke-width="1.2" stroke="#000" stroke-miterlimit="10" fill="none"/><path d="M132.16 125.71l-.98-12.097" stroke-width="1.2" stroke="#00f" stroke-miterlimit="10" fill="none"/><path d="M113.172 151.605l19.97-13.8M118.414 154.922l15.977-11.035" stroke-width="1.2" stroke="#000" stroke-miterlimit="10" fill="none"/><path d="M131.18 113.613l9.984-6.898" stroke-width="1.2" stroke="#00f" stroke-miterlimit="10" fill="none"/><path d="M141.164 106.715l9.984-6.903" stroke-width="1.2" stroke="#000" stroke-miterlimit="10" fill="none"/><path d="M131.18 113.613l-10.97-5.2" stroke-width="1.2" stroke="#00f" stroke-miterlimit="10" fill="none"/><path d="M120.21 108.414l-10.968-5.2" stroke-width="1.2" stroke="#000" stroke-miterlimit="10" fill="none"/><path d="M128.18 108.113h7v11h-7zm0 0" fill="#fff"/><use xlink:href="#c" x="128.18" y="116.776" fill="#00f"/><path d="M151.148 99.813l21.934 10.398M155.79 95.69l17.546 8.322M149.184 75.62l1.964 24.192M173.082 110.21l.984 12.1" stroke-width="1.2" stroke="#000" stroke-miterlimit="10" fill="none"/><path d="M174.066 122.31l.98 12.096" stroke-width="1.2" stroke="#0c0" stroke-miterlimit="10" fill="none"/><path d="M173.082 110.21l19.973-13.796" stroke-width="1.2" stroke="#000" stroke-miterlimit="10" fill="none"/><path d="M170.047 128.906h10v11h-10zm0 0" fill="#fff"/><g fill="#0c0"><use xlink:href="#a" x="170.047" y="137.569"/><use xlink:href="#b" x="176.561" y="137.569"/></g><path d="M193.055 96.414L191.09 72.22M187.164 94.457l-1.57-19.355M191.09 72.22l-21.934-10.4M169.156 61.82l-19.972 13.8M170.406 67.902L154.43 78.937M149.184 75.62l-10.965-5.198" stroke-width="1.2" stroke="#000" stroke-miterlimit="10" fill="none"/><path d="M138.22 70.422l-10.97-5.2" stroke-width="1.2" stroke="#0c0" stroke-miterlimit="10" fill="none"/><path d="M117.25 59.723h10v11h-10zm0 0" fill="#fff"/><g fill="#0c0"><use xlink:href="#a" x="117.25" y="68.386"/><use xlink:href="#b" x="123.764" y="68.386"/></g><path d="M112.09 102.984l-.98-12.097" stroke-width="1.2" stroke="#000" stroke-miterlimit="10" fill="none"/><path d="M111.11 90.887l-.985-12.098" stroke-width="1.2" stroke="#f00" stroke-miterlimit="10" fill="none"/><path d="M106.398 103.445l-.984-12.097" stroke-width="1.2" stroke="#000" stroke-miterlimit="10" fill="none"/><path d="M105.414 91.348l-.98-12.094" stroke-width="1.2" stroke="#f00" stroke-miterlimit="10" fill="none"/><path d="M109.242 103.215l-9.984 6.898" stroke-width="1.2" stroke="#000" stroke-miterlimit="10" fill="none"/><path d="M99.258 110.113l-9.985 6.9" stroke-width="1.2" stroke="#00f" stroke-miterlimit="10" fill="none"/><path d="M103.28 73.52h8v11h-8zm0 0" fill="#fff"/><use xlink:href="#d" x="103.281" y="82.183" fill="#f00"/><path d="M89.273 117.012l.98 12.097" stroke-width="1.2" stroke="#00f" stroke-miterlimit="10" fill="none"/><path d="M90.254 129.11l.98 12.097" stroke-width="1.2" stroke="#000" stroke-miterlimit="10" fill="none"/><path d="M82.273 111.512h14v11h-14zm0 0" fill="#fff"/><g fill="#00f"><use xlink:href="#c" x="82.273" y="120.175"/><use xlink:href="#e" x="89.251" y="120.175"/></g><path d="M91.234 141.207l21.938 10.398" stroke-width="1.2" stroke="#000" stroke-miterlimit="10" fill="none"/><path d="M178.977 182.793l.98 12.098" stroke-width="1.2" stroke="#00f" stroke-miterlimit="10" fill="none"/><path d="M179.957 194.89l.98 12.098M198.945 168.996l-9.984 6.9" stroke-width="1.2" stroke="#000" stroke-miterlimit="10" fill="none"/><path d="M188.96 175.895l-9.983 6.898" stroke-width="1.2" stroke="#00f" stroke-miterlimit="10" fill="none"/><path d="M175.977 177.293h7v11h-7zm0 0" fill="#fff"/><use xlink:href="#c" x="175.977" y="185.956" fill="#00f"/><path d="M180.938 206.988l21.937 10.395M202.875 217.383l9.984-6.9" stroke-width="1.2" stroke="#000" stroke-miterlimit="10" fill="none"/><path d="M212.86 210.484l9.984-6.898M222.844 203.586l-.98-12.098" stroke-width="1.2" stroke="#00f" stroke-miterlimit="10" fill="none"/><path d="M221.863 191.488l-.984-12.093" stroke-width="1.2" stroke="#000" stroke-miterlimit="10" fill="none"/><path d="M222.844 203.586l10.97 5.2" stroke-width="1.2" stroke="#00f" stroke-miterlimit="10" fill="none"/><path d="M233.813 208.785l10.964 5.2" stroke-width="1.2" stroke="#000" stroke-miterlimit="10" fill="none"/><path d="M212.844 196.086h21v15h-21zm0 0" fill="#fff"/><g fill="#00f"><use xlink:href="#c" x="212.844" y="208.188"/><use xlink:href="#e" x="219.821" y="208.188"/></g><use xlink:href="#f" x="226.836" y="203.305" fill="#00f"/><path d="M220.88 179.395l-21.935-10.4M244.777 213.984l1.965 24.196M244.777 213.984l19.973-13.797" stroke-width="1.2" stroke="#000" stroke-miterlimit="10" fill="none"/></g></svg>