<svg xmlns="http://www.w3.org/2000/svg" xmlns:xlink="http://www.w3.org/1999/xlink" width="300pt" height="300pt" viewBox="0 0 300 300"><defs><symbol overflow="visible"><path d="M.594 2.125V-8.47h6V2.126zm.672-.672h4.671V-7.78h-4.67zm0 0"/></symbol><symbol overflow="visible" id="a"><path d="M4.734-7.953c-.867 0-1.554.324-2.062.97-.5.635-.75 1.51-.75 2.624 0 1.094.25 1.965.75 2.61.508.637 1.195.953 2.062.953.852 0 1.532-.316 2.032-.953.507-.645.765-1.516.765-2.61 0-1.113-.257-1.988-.764-2.624-.5-.645-1.18-.97-2.032-.97zm0-.953c1.22 0 2.192.414 2.922 1.234.74.824 1.11 1.93 1.11 3.313 0 1.376-.37 2.477-1.11 3.298C6.926-.24 5.953.17 4.734.17c-1.23 0-2.214-.41-2.953-1.234C1.04-1.882.673-2.984.673-4.36c0-1.382.367-2.488 1.11-3.312.738-.82 1.722-1.234 2.952-1.234zm0 0"/></symbol><symbol overflow="visible" id="b"><path d="M2.36-7.78v3.296h1.484c.55 0 .976-.14 1.28-.422.302-.29.454-.703.454-1.235 0-.52-.152-.923-.453-1.204-.305-.29-.73-.437-1.28-.437zM1.17-8.75h2.672c.988 0 1.734.227 2.234.672.5.437.75 1.086.75 1.937 0 .867-.25 1.523-.75 1.968-.5.438-1.246.656-2.234.656H2.36V0H1.17zm0 0"/></symbol><symbol overflow="visible" id="c"><path d="M1.172-8.75h1.594l3.89 7.313V-8.75h1.14V0H6.204L2.328-7.313V0H1.172zm0 0"/></symbol><symbol overflow="visible" id="d"><path d="M1.172-8.75H2.36v3.594h4.296V-8.75h1.188V0H6.656v-4.172H2.36V0H1.17zm0 0"/></symbol><symbol overflow="visible" id="e"><path d="M6.422-8.47v1.158c-.45-.208-.875-.364-1.28-.47-.4-.113-.78-.17-1.142-.17-.648 0-1.148.124-1.5.374-.344.25-.516.61-.516 1.078 0 .387.114.68.344.875.227.2.672.355 1.328.47L4.36-5c.882.168 1.535.465 1.952.89.426.42.64.98.64 1.688 0 .856-.288 1.5-.858 1.938-.563.437-1.4.656-2.5.656-.406 0-.844-.047-1.313-.14C1.814-.064 1.33-.204.83-.392v-1.22c.477.274.945.477 1.406.61.47.137.922.203 1.36.203.676 0 1.195-.13 1.562-.39.375-.27.563-.65.563-1.14 0-.427-.138-.76-.407-1-.262-.25-.696-.43-1.297-.548l-.72-.14c-.886-.176-1.526-.454-1.92-.83-.388-.374-.58-.893-.58-1.56 0-.782.27-1.392.813-1.83.538-.445 1.288-.67 2.25-.67.413 0 .83.038 1.25.108.425.074.863.184 1.312.328zm0 0"/></symbol></defs><g><path fill="#fff" d="M0 0h300v300H0z"/><path d="M68.06 96.117l22.08 20.47M90.14 116.586l-3.343 14.676" stroke-width="1.2" stroke="#000" stroke-miterlimit="10" fill="none"/><path d="M86.797 131.262l-3.34 14.675M83.457 145.938l11.04 10.234" stroke-width="1.2" stroke="#f00" stroke-miterlimit="10" fill="none"/><path d="M94.496 156.172l11.04 10.234" stroke-width="1.2" stroke="#ff7f00" stroke-miterlimit="10" fill="none"/><path d="M78.457 138.938h10v14h-10zm0 0" fill="#fff"/><use xlink:href="#a" x="78.457" y="150.076" fill="#f00"/><path d="M108.133 168.813l10.234-11.04" stroke-width="1.2" stroke="#ff7f00" stroke-miterlimit="10" fill="none"/><path d="M118.367 157.773l10.23-11.04" stroke-width="1.2" stroke="#f00" stroke-miterlimit="10" fill="none"/><path d="M102.938 163.996l10.234-11.04" stroke-width="1.2" stroke="#ff7f00" stroke-miterlimit="10" fill="none"/><path d="M113.172 152.957l10.23-11.04" stroke-width="1.2" stroke="#f00" stroke-miterlimit="10" fill="none"/><path d="M105.535 166.406l-10.23 11.04" stroke-width="1.2" stroke="#ff7f00" stroke-miterlimit="10" fill="none"/><path d="M95.305 177.445l-10.235 11.04" stroke-width="1.2" stroke="#00f" stroke-miterlimit="10" fill="none"/><path d="M105.535 166.406l11.04 10.23" stroke-width="1.2" stroke="#ff7f00" stroke-miterlimit="10" fill="none"/><path d="M116.574 176.637l11.043 10.234" stroke-width="1.2" stroke="#f00" stroke-miterlimit="10" fill="none"/><path d="M101.535 159.406h8v14h-8zm0 0" fill="#fff"/><use xlink:href="#b" x="101.535" y="170.545" fill="#ff7f00"/><path d="M121 137.324h10v14h-10zm0 0" fill="#fff"/><use xlink:href="#a" x="121" y="148.463" fill="#f00"/><path d="M85.07 188.484l-14.675-3.34" stroke-width="1.2" stroke="#00f" stroke-miterlimit="10" fill="none"/><path d="M70.395 185.145l-14.68-3.344" stroke-width="1.2" stroke="#000" stroke-miterlimit="10" fill="none"/><path d="M76.07 181.484h18v14h-18zm0 0" fill="#fff"/><g fill="#00f"><use xlink:href="#c" x="76.07" y="192.623"/><use xlink:href="#d" x="85.047" y="192.623"/></g><path d="M55.715 181.8L35.25 203.884M55.715 181.8l-8.887-28.76" stroke-width="1.2" stroke="#000" stroke-miterlimit="10" fill="none"/><path d="M127.617 186.87l14.38-4.444" stroke-width="1.2" stroke="#f00" stroke-miterlimit="10" fill="none"/><path d="M141.996 182.426l14.383-4.446" stroke-width="1.2" stroke="#000" stroke-miterlimit="10" fill="none"/><path d="M122.617 179.87h10v14h-10zm0 0" fill="#fff"/><use xlink:href="#a" x="122.617" y="191.01" fill="#f00"/><path d="M156.38 177.98l6.683-29.355M163.953 176.617l5.348-23.48M178.46 198.445l-22.08-20.465M163.063 148.625l28.765-8.887M191.828 139.738l22.078 20.465M189.22 146.98l17.663 16.372M191.828 139.738l6.684-29.355M213.906 160.203l-6.683 29.356M213.906 160.203l14.383-4.445" stroke-width="1.2" stroke="#000" stroke-miterlimit="10" fill="none"/><path d="M228.29 155.758l14.382-4.446" stroke-width="1.2" stroke="#cc0" stroke-miterlimit="10" fill="none"/><path d="M207.223 189.56l-28.762 8.885M202.254 183.68l-23.012 7.11" stroke-width="1.2" stroke="#000" stroke-miterlimit="10" fill="none"/><path d="M242.672 151.313l11.04 10.234" stroke-width="1.2" stroke="#cc0" stroke-miterlimit="10" fill="none"/><path d="M253.71 161.547l11.04 10.234" stroke-width="1.2" stroke="#000" stroke-miterlimit="10" fill="none"/><path d="M238.672 144.313h8v14h-8zm0 0" fill="#fff"/><use xlink:href="#e" x="238.672" y="155.451" fill="#cc0"/></g></svg>