<svg xmlns="http://www.w3.org/2000/svg" xmlns:xlink="http://www.w3.org/1999/xlink" width="300pt" height="300pt" viewBox="0 0 300 300"><defs><symbol overflow="visible"><path d="M.453 1.594v-7.938h4.5v7.938zm.5-.5h3.5v-6.938h-3.5zm0 0"/></symbol><symbol overflow="visible" id="a"><path d="M3.547-5.953c-.65 0-1.164.242-1.547.72-.375.48-.563 1.13-.563 1.952 0 .835.188 1.49.563 1.967.383.48.898.72 1.547.72.644 0 1.156-.24 1.53-.72.376-.476.564-1.132.564-1.968 0-.822-.187-1.474-.562-1.954-.375-.477-.887-.72-1.53-.72zm0-.734c.914 0 1.648.312 2.203.937.55.617.828 1.438.828 2.47 0 1.042-.277 1.87-.828 2.483-.555.617-1.29.922-2.203.922-.93 0-1.668-.305-2.22-.922C.774-1.41.5-2.237.5-3.28c0-1.033.273-1.853.828-2.47.55-.625 1.29-.938 2.22-.938zm0 0"/></symbol><symbol overflow="visible" id="b"><path d="M.89-6.563H2.08l2.906 5.485v-5.484h.86V0H4.656L1.75-5.484V0H.89zm0 0"/></symbol><symbol overflow="visible" id="c"><path d="M.89-6.563h.876v2.688H5v-2.688h.89V0H5v-3.125H1.766V0H.89zm0 0"/></symbol><symbol overflow="visible"><path d="M.406 1.422V-5.64h4V1.42zM.844.97h3.11v-6.157H.843zm0 0"/></symbol><symbol overflow="visible" id="d"><path d="M1.53-.672h2.767V0H.594v-.672c.29-.3.695-.71 1.22-1.234.518-.532.842-.867.967-1.016.26-.28.44-.52.533-.72.1-.194.156-.39.156-.577 0-.31-.11-.565-.33-.764-.218-.196-.5-.297-.843-.297-.25 0-.516.046-.797.14-.273.085-.563.214-.875.39v-.797c.32-.133.617-.234.89-.297.282-.062.536-.093.766-.093.603 0 1.083.152 1.44.453.362.304.546.703.546 1.203 0 .24-.047.468-.14.686-.095.22-.26.477-.485.766-.074.074-.288.293-.64.656-.344.356-.836.856-1.47 1.5zm0 0"/></symbol><symbol overflow="visible" id="e"><path d="M3.688-5.016v2.172h2.17v.672H3.69V0H3.03v-2.172H.845v-.672H3.03v-2.172zm0 0"/></symbol><symbol overflow="visible" id="f"><path d="M.39-2.516H2.5v.64H.39zm0 0"/></symbol></defs><g><path fill="#fff" d="M0 0h300v300H0z"/><path d="M243.957 146.168l20.793 12.457M243.957 146.168L222.77 157.94M239.07 142.36l-16.953 9.417M244.355 121.93l-.398 24.238M264.75 158.625l-.395 24.238M222.77 157.94l-20.79-12.46M201.98 145.48l-21.187 11.778M201.98 145.48l.395-24.234M207.723 143.152l.316-19.39M182.258 154.813l-10.395-6.23" stroke-width="1.2" stroke="#000" stroke-miterlimit="10" fill="none"/><path d="M171.863 148.582l-10.398-6.23" stroke-width="1.2" stroke="#f00" stroke-miterlimit="10" fill="none"/><path d="M179.328 159.703l-10.398-6.23" stroke-width="1.2" stroke="#000" stroke-miterlimit="10" fill="none"/><path d="M168.93 153.473l-10.395-6.23" stroke-width="1.2" stroke="#f00" stroke-miterlimit="10" fill="none"/><path d="M180.793 157.258l-.2 12.117" stroke-width="1.2" stroke="#000" stroke-miterlimit="10" fill="none"/><path d="M180.594 169.375l-.196 12.117" stroke-width="1.2" stroke="#00f" stroke-miterlimit="10" fill="none"/><path d="M152 139.297h8v11h-8zm0 0" fill="#fff"/><use xlink:href="#a" x="152" y="147.96" fill="#f00"/><path d="M180.398 181.492l-10.593 5.89" stroke-width="1.2" stroke="#00f" stroke-miterlimit="10" fill="none"/><path d="M169.805 187.383l-10.594 5.887" stroke-width="1.2" stroke="#000" stroke-miterlimit="10" fill="none"/><path d="M173.398 175.992h14v11h-14zm0 0" fill="#fff"/><g fill="#00f"><use xlink:href="#b" x="173.398" y="184.655"/><use xlink:href="#c" x="180.376" y="184.655"/></g><path d="M159.21 193.27l-20.792-12.46M154.2 196.914l-16.634-9.965M158.816 217.508l.395-24.238M138.418 180.81l-21.188 11.776M117.23 192.586l-.394 24.234M122.895 195.102l-.317 19.39M116.836 216.82l-21.188 11.778M116.836 216.82l20.793 12.46M95.648 228.598l-10.394-6.23" stroke-width="1.2" stroke="#000" stroke-miterlimit="10" fill="none"/><path d="M85.254 222.367l-10.4-6.23" stroke-width="1.2" stroke="#00f" stroke-miterlimit="10" fill="none"/><path d="M92.797 228.55l-.195 12.118" stroke-width="1.2" stroke="#000" stroke-miterlimit="10" fill="none"/><path d="M92.602 240.668l-.2 12.12" stroke-width="1.2" stroke="#00f" stroke-miterlimit="10" fill="none"/><path d="M98.5 228.645l-.2 12.117" stroke-width="1.2" stroke="#000" stroke-miterlimit="10" fill="none"/><path d="M98.3 240.762l-.195 12.117" stroke-width="1.2" stroke="#00f" stroke-miterlimit="10" fill="none"/><path d="M55.855 208.137h19v16h-19zm0 0" fill="#fff"/><use xlink:href="#c" x="55.855" y="216.8" fill="#00f"/><use xlink:href="#d" x="62.87" y="221.683" fill="#00f"/><use xlink:href="#b" x="67.82" y="216.8" fill="#00f"/><path d="M82.254 243.332h26v19h-26zm0 0" fill="#fff"/><g fill="#00f"><use xlink:href="#b" x="82.254" y="255.434"/><use xlink:href="#c" x="89.231" y="255.434"/></g><use xlink:href="#d" x="96.246" y="260.316" fill="#00f"/><use xlink:href="#e" x="101.196" y="250.551" fill="#00f"/><path d="M137.63 229.28l21.186-11.772M136.977 223.12l16.95-9.42M202.375 121.246l-20.793-12.46M202.375 121.246l21.188-11.777M181.582 108.785l-21.187 11.774M176.695 104.977l-16.953 9.42M181.977 84.547l-.395 24.238M160.395 120.56l-20.79-12.458M139.605 108.102l.395-24.24M145.348 105.77l.316-19.39M140 83.863l-20.793-12.46M140 83.863l21.188-11.777M122.06 71.45l.198-12.118" stroke-width="1.2" stroke="#000" stroke-miterlimit="10" fill="none"/><path d="M122.258 59.332l.195-12.12" stroke-width="1.2" stroke="#f00" stroke-miterlimit="10" fill="none"/><path d="M116.355 71.355l.2-12.117" stroke-width="1.2" stroke="#000" stroke-miterlimit="10" fill="none"/><path d="M116.555 59.238l.195-12.117" stroke-width="1.2" stroke="#f00" stroke-miterlimit="10" fill="none"/><path d="M119.207 71.402l-10.594 5.887" stroke-width="1.2" stroke="#000" stroke-miterlimit="10" fill="none"/><path d="M108.613 77.29L98.02 83.18" stroke-width="1.2" stroke="#00f" stroke-miterlimit="10" fill="none"/><path d="M115.602 41.668h8v11h-8zm0 0" fill="#fff"/><use xlink:href="#a" x="115.602" y="50.331" fill="#f00"/><path d="M98.02 83.18l-10.395-6.23" stroke-width="1.2" stroke="#00f" stroke-miterlimit="10" fill="none"/><path d="M87.625 76.95L77.23 70.72" stroke-width="1.2" stroke="#000" stroke-miterlimit="10" fill="none"/><path d="M91.02 77.68h14v11h-14zm0 0" fill="#fff"/><g fill="#00f"><use xlink:href="#b" x="91.02" y="86.343"/><use xlink:href="#c" x="97.997" y="86.343"/></g><path d="M77.23 70.72L56.043 82.49M56.043 82.492L35.25 70.035M56.043 82.492l-.398 24.238M161.188 72.086l20.79 12.46M160.332 78.227l16.637 9.968M181.977 84.547l21.187-11.774M201.7 75.22l10.394 6.23" stroke-width="1.2" stroke="#000" stroke-miterlimit="10" fill="none"/><path d="M212.094 81.45l10.398 6.23" stroke-width="1.2" stroke="#f00" stroke-miterlimit="10" fill="none"/><path d="M204.633 70.324l10.394 6.23" stroke-width="1.2" stroke="#000" stroke-miterlimit="10" fill="none"/><path d="M215.027 76.555l10.395 6.23" stroke-width="1.2" stroke="#f00" stroke-miterlimit="10" fill="none"/><path d="M203.164 72.773l.2-12.12" stroke-width="1.2" stroke="#000" stroke-miterlimit="10" fill="none"/><path d="M203.363 60.652l.2-12.117" stroke-width="1.2" stroke="#f00" stroke-miterlimit="10" fill="none"/><path d="M219.957 79.734h8v11h-8zm0 0" fill="#fff"/><use xlink:href="#a" x="219.957" y="88.397" fill="#f00"/><path d="M198.563 41.035h11v15h-11zm0 0" fill="#fff"/><use xlink:href="#a" x="198.563" y="53.137" fill="#f00"/><use xlink:href="#f" x="205.904" y="48.254" fill="#f00"/><path d="M223.563 109.47l20.792 12.46M222.71 115.605l16.634 9.97" stroke-width="1.2" stroke="#000" stroke-miterlimit="10" fill="none"/></g></svg>