<svg xmlns="http://www.w3.org/2000/svg" xmlns:xlink="http://www.w3.org/1999/xlink" width="300pt" height="300pt" viewBox="0 0 300 300"><defs><symbol overflow="visible"><path d="M.453 1.594v-7.938h4.5v7.938zm.5-.5h3.5v-6.938h-3.5zm0 0"/></symbol><symbol overflow="visible" id="a"><path d="M3.547-5.953c-.65 0-1.164.242-1.547.72-.375.48-.563 1.13-.563 1.952 0 .835.188 1.49.563 1.967.383.48.898.72 1.547.72.644 0 1.156-.24 1.53-.72.376-.476.564-1.132.564-1.968 0-.822-.187-1.474-.562-1.954-.375-.477-.887-.72-1.53-.72zm0-.734c.914 0 1.648.312 2.203.937.55.617.828 1.438.828 2.47 0 1.042-.277 1.87-.828 2.483-.555.617-1.29.922-2.203.922-.93 0-1.668-.305-2.22-.922C.774-1.41.5-2.237.5-3.28c0-1.033.273-1.853.828-2.47.55-.625 1.29-.938 2.22-.938zm0 0"/></symbol><symbol overflow="visible" id="b"><path d="M.89-6.563H2.08l2.906 5.485v-5.484h.86V0H4.656L1.75-5.484V0H.89zm0 0"/></symbol><symbol overflow="visible" id="c"><path d="M.89-6.563h.876v2.688H5v-2.688h.89V0H5v-3.125H1.766V0H.89zm0 0"/></symbol><symbol overflow="visible"><path d="M.406 1.422V-5.64h4V1.42zM.844.97h3.11v-6.157H.843zm0 0"/></symbol><symbol overflow="visible" id="d"><path d="M3.688-5.016v2.172h2.17v.672H3.69V0H3.03v-2.172H.845v-.672H3.03v-2.172zm0 0"/></symbol></defs><g><path fill="#fff" d="M0 0h300v300H0z"/><path d="M85.078 143.313l8.05 4.94" stroke-width="1.2" stroke="#f00" stroke-miterlimit="10" fill="none"/><path d="M93.13 148.254l8.05 4.94" stroke-width="1.2" stroke="#000" stroke-miterlimit="10" fill="none"/><path d="M85.078 143.313l-8.305 4.503" stroke-width="1.2" stroke="#f00" stroke-miterlimit="10" fill="none"/><path d="M76.773 147.816l-8.304 4.504" stroke-width="1.2" stroke="#000" stroke-miterlimit="10" fill="none"/><path d="M81.078 137.813h8v11h-8zm0 0" fill="#fff"/><use xlink:href="#a" x="81.078" y="146.476" fill="#f00"/><path d="M98.96 153.133l-.253 9.445" stroke-width="1.2" stroke="#000" stroke-miterlimit="10" fill="none"/><path d="M98.707 162.578l-.25 9.445" stroke-width="1.2" stroke="#f00" stroke-miterlimit="10" fill="none"/><path d="M103.402 153.254l-.25 9.44" stroke-width="1.2" stroke="#000" stroke-miterlimit="10" fill="none"/><path d="M103.152 162.695l-.254 9.446" stroke-width="1.2" stroke="#f00" stroke-miterlimit="10" fill="none"/><path d="M101.18 153.195l8.304-4.504" stroke-width="1.2" stroke="#000" stroke-miterlimit="10" fill="none"/><path d="M109.484 148.69l8.305-4.502" stroke-width="1.2" stroke="#00f" stroke-miterlimit="10" fill="none"/><path d="M96.676 166.582h8v11h-8zm0 0" fill="#fff"/><use xlink:href="#a" x="96.676" y="175.245" fill="#f00"/><path d="M117.79 144.188l8.054 4.937" stroke-width="1.2" stroke="#00f" stroke-miterlimit="10" fill="none"/><path d="M125.844 149.125l8.05 4.94" stroke-width="1.2" stroke="#000" stroke-miterlimit="10" fill="none"/><path d="M117.79 144.188l.253-9.446" stroke-width="1.2" stroke="#00f" stroke-miterlimit="10" fill="none"/><path d="M118.043 134.742l.25-9.44" stroke-width="1.2" stroke="#000" stroke-miterlimit="10" fill="none"/><path d="M114.79 138.688h7v11h-7zm0 0" fill="#fff"/><use xlink:href="#b" x="114.789" y="147.351" fill="#00f"/><path d="M133.895 154.066l-.504 18.887M138.29 156.074l-.403 15.11M150.504 145.06l-16.61 9.006M133.39 172.953l16.106 9.883M149.496 182.836l16.61-9.008M149.04 178.027l13.284-7.207M166.105 173.828l.504-18.887M166.105 173.828l16.106 9.88M166.61 154.94l-16.106-9.88M162.672 157.742l-12.883-7.906M182.21 183.707l-.503 18.887M186.602 185.715l-.403 15.11M198.82 174.7l-16.61 9.007M181.707 202.594l16.102 9.883M197.81 212.477l16.608-9.008M197.352 207.668l13.29-7.207M214.418 203.47l.504-18.888M214.922 184.582L198.82 174.7M210.988 187.383l-12.883-7.906M118.293 125.3l8.305-4.503" stroke-width="1.2" stroke="#000" stroke-miterlimit="10" fill="none"/><path d="M126.598 120.797l8.304-4.504" stroke-width="1.2" stroke="#00f" stroke-miterlimit="10" fill="none"/><path d="M117.836 120.492l6.644-3.605" stroke-width="1.2" stroke="#000" stroke-miterlimit="10" fill="none"/><path d="M124.48 116.887l6.645-3.602" stroke-width="1.2" stroke="#00f" stroke-miterlimit="10" fill="none"/><path d="M102.19 115.418l16.103 9.883" stroke-width="1.2" stroke="#000" stroke-miterlimit="10" fill="none"/><path d="M134.902 116.293l.254-9.445" stroke-width="1.2" stroke="#00f" stroke-miterlimit="10" fill="none"/><path d="M135.156 106.848l.25-9.442" stroke-width="1.2" stroke="#000" stroke-miterlimit="10" fill="none"/><path d="M131.902 110.793h7v11h-7zm0 0" fill="#fff"/><use xlink:href="#b" x="131.902" y="119.456" fill="#00f"/><path d="M135.406 97.406l-8.05-4.94" stroke-width="1.2" stroke="#000" stroke-miterlimit="10" fill="none"/><path d="M127.355 92.465l-8.054-4.942" stroke-width="1.2" stroke="#00f" stroke-miterlimit="10" fill="none"/><path d="M131.473 100.207l-6.442-3.953" stroke-width="1.2" stroke="#000" stroke-miterlimit="10" fill="none"/><path d="M125.03 96.254l-6.44-3.953" stroke-width="1.2" stroke="#00f" stroke-miterlimit="10" fill="none"/><path d="M135.406 97.406l8.305-4.504" stroke-width="1.2" stroke="#000" stroke-miterlimit="10" fill="none"/><path d="M143.71 92.902l8.306-4.504M119.3 87.523l-8.3 4.504" stroke-width="1.2" stroke="#00f" stroke-miterlimit="10" fill="none"/><path d="M111 92.027l-8.305 4.504" stroke-width="1.2" stroke="#000" stroke-miterlimit="10" fill="none"/><path d="M116.3 82.023h7v11h-7zm0 0" fill="#fff"/><use xlink:href="#b" x="116.301" y="90.687" fill="#00f"/><path d="M102.695 96.53l-.504 18.888M107.086 98.54l-.402 15.108" stroke-width="1.2" stroke="#000" stroke-miterlimit="10" fill="none"/><path d="M152.016 88.398l8.054 4.942" stroke-width="1.2" stroke="#00f" stroke-miterlimit="10" fill="none"/><path d="M160.07 93.34l8.05 4.937" stroke-width="1.2" stroke="#000" stroke-miterlimit="10" fill="none"/><path d="M145.016 82.898h14v11h-14zm0 0" fill="#fff"/><g fill="#00f"><use xlink:href="#b" x="145.016" y="91.562"/><use xlink:href="#c" x="151.993" y="91.562"/></g><path d="M168.12 98.277l-.503 18.887M172.516 100.285l-.403 15.11M184.73 89.27l-16.61 9.007M167.617 117.164l16.106 9.883M183.723 127.047l16.61-9.008M183.262 122.238l13.29-7.207M200.332 118.04l8.05 4.94" stroke-width="1.2" stroke="#000" stroke-miterlimit="10" fill="none"/><path d="M208.383 122.98l8.054 4.938" stroke-width="1.2" stroke="#00f" stroke-miterlimit="10" fill="none"/><path d="M200.332 118.04l.504-18.888" stroke-width="1.2" stroke="#000" stroke-miterlimit="10" fill="none"/><path d="M216.438 127.918l-.254 9.445" stroke-width="1.2" stroke="#00f" stroke-miterlimit="10" fill="none"/><path d="M216.184 137.363l-.254 9.442M233.043 118.91l-8.305 4.504" stroke-width="1.2" stroke="#000" stroke-miterlimit="10" fill="none"/><path d="M224.738 123.414l-8.3 4.504" stroke-width="1.2" stroke="#00f" stroke-miterlimit="10" fill="none"/><path d="M213.438 122.418h7v11h-7zm0 0" fill="#fff"/><use xlink:href="#b" x="213.438" y="131.081" fill="#00f"/><path d="M215.93 146.805l16.105 9.882M232.035 156.688l8.305-4.504" stroke-width="1.2" stroke="#000" stroke-miterlimit="10" fill="none"/><path d="M240.34 152.184l8.305-4.504M248.645 147.68l.253-9.446" stroke-width="1.2" stroke="#00f" stroke-miterlimit="10" fill="none"/><path d="M248.898 138.234l.25-9.44" stroke-width="1.2" stroke="#000" stroke-miterlimit="10" fill="none"/><path d="M248.645 147.68l8.054 4.94" stroke-width="1.2" stroke="#00f" stroke-miterlimit="10" fill="none"/><path d="M256.7 152.62l8.05 4.94" stroke-width="1.2" stroke="#000" stroke-miterlimit="10" fill="none"/><path d="M238.645 140.18h21v15h-21zm0 0" fill="#fff"/><g fill="#00f"><use xlink:href="#b" x="238.645" y="152.281"/><use xlink:href="#c" x="245.622" y="152.281"/></g><use xlink:href="#d" x="252.637" y="147.398" fill="#00f"/><path d="M249.148 128.793l-16.105-9.883M200.836 99.152L184.73 89.27M196.898 101.953l-12.882-7.906M68.47 152.32l-16.107-9.88M64.53 155.12l-12.882-7.9M67.965 171.207l.504-18.887M52.363 142.44l-16.61 9.01M52.363 142.44l.504-18.885M35.754 151.45l-.504 18.886M40.148 153.453l-.402 15.113M35.25 170.336l16.105 9.88M51.355 180.215l16.61-9.008M50.895 175.406l13.29-7.207M67.965 171.207l16.105 9.883" stroke-width="1.2" stroke="#000" stroke-miterlimit="10" fill="none"/></g></svg>