<svg xmlns="http://www.w3.org/2000/svg" xmlns:xlink="http://www.w3.org/1999/xlink" width="300pt" height="300pt" viewBox="0 0 300 300"><defs><symbol overflow="visible"><path d="M.453 1.594v-7.938h4.5v7.938zm.5-.5h3.5v-6.938h-3.5zm0 0"/></symbol><symbol overflow="visible" id="a"><path d="M3.547-5.953c-.65 0-1.164.242-1.547.72-.375.48-.563 1.13-.563 1.952 0 .835.188 1.49.563 1.967.383.48.898.72 1.547.72.644 0 1.156-.24 1.53-.72.376-.476.564-1.132.564-1.968 0-.822-.187-1.474-.562-1.954-.375-.477-.887-.72-1.53-.72zm0-.734c.914 0 1.648.312 2.203.937.55.617.828 1.438.828 2.47 0 1.042-.277 1.87-.828 2.483-.555.617-1.29.922-2.203.922-.93 0-1.668-.305-2.22-.922C.774-1.41.5-2.237.5-3.28c0-1.033.273-1.853.828-2.47.55-.625 1.29-.938 2.22-.938zm0 0"/></symbol><symbol overflow="visible" id="b"><path d="M.89-6.563H2.08l2.906 5.485v-5.484h.86V0H4.656L1.75-5.484V0H.89zm0 0"/></symbol><symbol overflow="visible" id="c"><path d="M.89-6.563h.876v2.688H5v-2.688h.89V0H5v-3.125H1.766V0H.89zm0 0"/></symbol><symbol overflow="visible"><path d="M.406 1.422V-5.64h4V1.42zM.844.97h3.11v-6.157H.843zm0 0"/></symbol><symbol overflow="visible" id="d"><path d="M3.688-5.016v2.172h2.17v.672H3.69V0H3.03v-2.172H.845v-.672H3.03v-2.172zm0 0"/></symbol></defs><g><path fill="#fff" d="M0 0h300v300H0z"/><path d="M87.266 151.727l7.566 5.644" stroke-width="1.2" stroke="#f00" stroke-miterlimit="10" fill="none"/><path d="M94.832 157.37l7.566 5.642" stroke-width="1.2" stroke="#000" stroke-miterlimit="10" fill="none"/><path d="M87.266 151.727l-8.668 3.73" stroke-width="1.2" stroke="#f00" stroke-miterlimit="10" fill="none"/><path d="M78.598 155.457l-8.672 3.73" stroke-width="1.2" stroke="#000" stroke-miterlimit="10" fill="none"/><path d="M83.266 146.227h8v11h-8zm0 0" fill="#fff"/><use xlink:href="#a" x="83.266" y="154.89" fill="#f00"/><path d="M100.19 162.754l-1.1 9.37" stroke-width="1.2" stroke="#000" stroke-miterlimit="10" fill="none"/><path d="M99.09 172.125l-1.106 9.375" stroke-width="1.2" stroke="#f00" stroke-miterlimit="10" fill="none"/><path d="M104.605 163.273l-1.105 9.372" stroke-width="1.2" stroke="#000" stroke-miterlimit="10" fill="none"/><path d="M103.5 172.645l-1.105 9.375" stroke-width="1.2" stroke="#f00" stroke-miterlimit="10" fill="none"/><path d="M102.398 163.012l8.668-3.73" stroke-width="1.2" stroke="#000" stroke-miterlimit="10" fill="none"/><path d="M111.066 159.28l8.672-3.73" stroke-width="1.2" stroke="#00f" stroke-miterlimit="10" fill="none"/><path d="M96.19 176.258h8v11h-8zm0 0" fill="#fff"/><use xlink:href="#a" x="96.191" y="184.921" fill="#f00"/><path d="M119.738 155.55l7.563 5.64" stroke-width="1.2" stroke="#00f" stroke-miterlimit="10" fill="none"/><path d="M127.3 161.19l7.567 5.646" stroke-width="1.2" stroke="#000" stroke-miterlimit="10" fill="none"/><path d="M119.738 155.55l1.102-9.374" stroke-width="1.2" stroke="#00f" stroke-miterlimit="10" fill="none"/><path d="M120.84 146.176l1.105-9.37" stroke-width="1.2" stroke="#000" stroke-miterlimit="10" fill="none"/><path d="M116.738 150.05h7v11h-7zm0 0" fill="#fff"/><use xlink:href="#b" x="116.738" y="158.714" fill="#00f"/><path d="M134.867 166.836l17.34-7.46M138.36 170.168l13.87-5.97M132.66 185.582l2.207-18.746M152.207 159.375l15.133 11.285M167.34 170.66l-2.207 18.746M171.527 173.05l-1.765 15M184.676 163.195l-17.336 7.465M165.133 189.406l-17.34 7.46M165.133 189.406l15.13 11.285M147.793 196.867l-15.133-11.285M148.934 192.18l-12.106-9.032M180.262 200.69l17.34-7.463M180.242 195.863l13.87-5.968M197.602 193.227l2.207-18.747M199.81 174.48l-15.134-11.285M195.64 176.914l-12.105-9.027M121.945 136.805l8.668-3.73" stroke-width="1.2" stroke="#000" stroke-miterlimit="10" fill="none"/><path d="M130.613 133.074l8.668-3.734" stroke-width="1.2" stroke="#00f" stroke-miterlimit="10" fill="none"/><path d="M121.922 131.977l6.937-2.985" stroke-width="1.2" stroke="#000" stroke-miterlimit="10" fill="none"/><path d="M128.86 128.992l6.933-2.984" stroke-width="1.2" stroke="#00f" stroke-miterlimit="10" fill="none"/><path d="M106.813 125.52l15.132 11.285" stroke-width="1.2" stroke="#000" stroke-miterlimit="10" fill="none"/><path d="M139.28 129.34l1.107-9.37" stroke-width="1.2" stroke="#00f" stroke-miterlimit="10" fill="none"/><path d="M140.387 119.97l1.105-9.376" stroke-width="1.2" stroke="#000" stroke-miterlimit="10" fill="none"/><path d="M136.28 123.84h7v11h-7zm0 0" fill="#fff"/><use xlink:href="#b" x="136.281" y="132.503" fill="#00f"/><path d="M141.492 110.594l-7.566-5.64" stroke-width="1.2" stroke="#000" stroke-miterlimit="10" fill="none"/><path d="M133.926 104.953l-7.567-5.644" stroke-width="1.2" stroke="#00f" stroke-miterlimit="10" fill="none"/><path d="M137.32 113.027l-6.05-4.515" stroke-width="1.2" stroke="#000" stroke-miterlimit="10" fill="none"/><path d="M131.27 108.512L125.22 104" stroke-width="1.2" stroke="#00f" stroke-miterlimit="10" fill="none"/><path d="M141.492 110.594l8.668-3.73" stroke-width="1.2" stroke="#000" stroke-miterlimit="10" fill="none"/><path d="M150.16 106.863l8.668-3.73M126.36 99.31l-8.67 3.73" stroke-width="1.2" stroke="#00f" stroke-miterlimit="10" fill="none"/><path d="M117.69 103.04l-8.67 3.733" stroke-width="1.2" stroke="#000" stroke-miterlimit="10" fill="none"/><path d="M123.36 93.81h7v11h-7zm0 0" fill="#fff"/><use xlink:href="#b" x="123.359" y="102.472" fill="#00f"/><path d="M109.02 106.773l-2.207 18.747M113.21 109.164l-1.765 15" stroke-width="1.2" stroke="#000" stroke-miterlimit="10" fill="none"/><path d="M158.828 103.133l7.567 5.644" stroke-width="1.2" stroke="#00f" stroke-miterlimit="10" fill="none"/><path d="M166.395 108.777l7.566 5.64" stroke-width="1.2" stroke="#000" stroke-miterlimit="10" fill="none"/><path d="M151.828 97.633h14v11h-14zm0 0" fill="#fff"/><g fill="#00f"><use xlink:href="#b" x="151.828" y="106.296"/><use xlink:href="#c" x="158.806" y="106.296"/></g><path d="M173.96 114.418l-2.206 18.746M178.152 116.813l-1.765 14.996M191.3 106.957l-17.34 7.46M171.754 133.164l15.133 11.285M186.887 144.45l17.336-7.462M186.863 139.625l13.87-5.97M204.223 136.988l7.566 5.64" stroke-width="1.2" stroke="#000" stroke-miterlimit="10" fill="none"/><path d="M211.79 142.63l7.565 5.643" stroke-width="1.2" stroke="#00f" stroke-miterlimit="10" fill="none"/><path d="M204.223 136.988l2.207-18.746" stroke-width="1.2" stroke="#000" stroke-miterlimit="10" fill="none"/><path d="M219.355 148.273l-1.105 9.372" stroke-width="1.2" stroke="#00f" stroke-miterlimit="10" fill="none"/><path d="M218.25 157.645l-1.102 9.375M236.695 140.813l-8.672 3.73" stroke-width="1.2" stroke="#000" stroke-miterlimit="10" fill="none"/><path d="M228.023 144.543l-8.668 3.73" stroke-width="1.2" stroke="#00f" stroke-miterlimit="10" fill="none"/><path d="M216.355 142.773h7v11h-7zm0 0" fill="#fff"/><use xlink:href="#b" x="216.355" y="151.437" fill="#00f"/><path d="M217.148 167.02l15.133 11.285M232.28 178.305l8.67-3.73" stroke-width="1.2" stroke="#000" stroke-miterlimit="10" fill="none"/><path d="M240.95 174.574l8.667-3.73M249.617 170.844l1.106-9.375" stroke-width="1.2" stroke="#00f" stroke-miterlimit="10" fill="none"/><path d="M250.723 161.47l1.1-9.372" stroke-width="1.2" stroke="#000" stroke-miterlimit="10" fill="none"/><path d="M249.617 170.844l7.567 5.64" stroke-width="1.2" stroke="#00f" stroke-miterlimit="10" fill="none"/><path d="M257.184 176.484l7.566 5.645" stroke-width="1.2" stroke="#000" stroke-miterlimit="10" fill="none"/><path d="M239.617 163.344h21v15h-21zm0 0" fill="#fff"/><g fill="#00f"><use xlink:href="#b" x="239.617" y="175.445"/><use xlink:href="#c" x="246.595" y="175.445"/></g><use xlink:href="#d" x="253.609" y="170.563" fill="#00f"/><path d="M251.824 152.098l-15.13-11.286M206.43 118.242l-15.13-11.285M202.262 120.672l-12.106-9.027M69.926 159.188L54.796 147.9M65.758 161.62l-12.106-9.026M67.72 177.934l2.206-18.746M54.797 147.902l-17.34 7.465M54.797 147.902l2.207-18.746M37.457 155.367l-2.207 18.746M41.648 157.758l-1.765 15M35.25 174.113l15.133 11.285M50.383 185.398l17.336-7.464M50.36 180.57l13.87-5.968M67.72 177.934L82.85 189.22" stroke-width="1.2" stroke="#000" stroke-miterlimit="10" fill="none"/></g></svg>