<svg xmlns="http://www.w3.org/2000/svg" xmlns:xlink="http://www.w3.org/1999/xlink" width="300pt" height="300pt" viewBox="0 0 300 300"><defs><symbol overflow="visible"><path d="M.453 1.594v-7.938h4.5v7.938zm.5-.5h3.5v-6.938h-3.5zm0 0"/></symbol><symbol overflow="visible" id="a"><path d="M.89-6.563H2.08l2.906 5.485v-5.484h.86V0H4.656L1.75-5.484V0H.89zm0 0"/></symbol><symbol overflow="visible" id="b"><path d="M3.547-5.953c-.65 0-1.164.242-1.547.72-.375.48-.563 1.13-.563 1.952 0 .835.188 1.49.563 1.967.383.48.898.72 1.547.72.644 0 1.156-.24 1.53-.72.376-.476.564-1.132.564-1.968 0-.822-.187-1.474-.562-1.954-.375-.477-.887-.72-1.53-.72zm0-.734c.914 0 1.648.312 2.203.937.55.617.828 1.438.828 2.47 0 1.042-.277 1.87-.828 2.483-.555.617-1.29.922-2.203.922-.93 0-1.668-.305-2.22-.922C.774-1.41.5-2.237.5-3.28c0-1.033.273-1.853.828-2.47.55-.625 1.29-.938 2.22-.938zm0 0"/></symbol><symbol overflow="visible" id="c"><path d="M.89-6.563h3.766v.75h-2.89v1.938h2.61v.734h-2.61V0H.89zm0 0"/></symbol></defs><g><path fill="#fff" d="M0 0h300v300H0z"/><path d="M166.715 197.375l-20.926-1.746M178.688 180.13l-11.973 17.245M145.79 195.63l-8.95-18.993M136.84 176.637l-8.95-18.992M136.84 176.637l11.972-17.246M124.867 193.883l11.973-17.246M127.89 157.645l-20.92-1.747M106.97 155.898l-5.99 8.625" stroke-width="1.2" stroke="#000" stroke-miterlimit="10" fill="none"/><path d="M100.98 164.523l-5.984 8.622M94.996 173.145l4.473 9.496" stroke-width="1.2" stroke="#00f" stroke-miterlimit="10" fill="none"/><path d="M99.47 182.64l4.475 9.497" stroke-width="1.2" stroke="#000" stroke-miterlimit="10" fill="none"/><path d="M94.996 173.145l-10.46-.872" stroke-width="1.2" stroke="#00f" stroke-miterlimit="10" fill="none"/><path d="M84.535 172.273l-10.465-.875" stroke-width="1.2" stroke="#000" stroke-miterlimit="10" fill="none"/><path d="M91.996 167.645h7v11h-7zm0 0" fill="#fff"/><use xlink:href="#a" x="91.996" y="176.308" fill="#00f"/><path d="M103.945 192.137l20.922 1.746M72.043 169.992l-5.988 8.62" stroke-width="1.2" stroke="#000" stroke-miterlimit="10" fill="none"/><path d="M66.055 178.613l-5.985 8.625" stroke-width="1.2" stroke="#f00" stroke-miterlimit="10" fill="none"/><path d="M76.102 172.81l-5.99 8.62" stroke-width="1.2" stroke="#000" stroke-miterlimit="10" fill="none"/><path d="M70.113 181.43l-5.984 8.625" stroke-width="1.2" stroke="#f00" stroke-miterlimit="10" fill="none"/><path d="M74.07 171.398l-8.95-18.992" stroke-width="1.2" stroke="#000" stroke-miterlimit="10" fill="none"/><path d="M54.098 183.145h8v11h-8zm0 0" fill="#fff"/><use xlink:href="#b" x="54.098" y="191.808" fill="#f00"/><path d="M65.12 152.406L77.1 135.16M62.262 147.863l9.578-13.797M44.2 150.66l20.92 1.746M77.098 135.16l-8.953-18.992M68.145 116.168l-20.922-1.746M65.645 120.914l-16.74-1.394M68.145 116.168l5.988-8.625" stroke-width="1.2" stroke="#000" stroke-miterlimit="10" fill="none"/><path d="M74.133 107.543l5.988-8.62" stroke-width="1.2" stroke="#3cc" stroke-miterlimit="10" fill="none"/><path d="M47.223 114.422L35.25 131.668M35.25 131.668l8.95 18.992M40.613 131.46l7.16 15.196" stroke-width="1.2" stroke="#000" stroke-miterlimit="10" fill="none"/><path d="M77.12 93.422h6v11h-6zm0 0" fill="#fff"/><use xlink:href="#c" x="77.121" y="102.085" fill="#3cc"/><path d="M148.813 159.39l10.464.872" stroke-width="1.2" stroke="#000" stroke-miterlimit="10" fill="none"/><path d="M159.277 160.262l10.46.875M169.738 161.137l4.473 9.496" stroke-width="1.2" stroke="#00f" stroke-miterlimit="10" fill="none"/><path d="M174.21 170.633l4.477 9.496" stroke-width="1.2" stroke="#000" stroke-miterlimit="10" fill="none"/><path d="M169.738 161.137l5.985-8.625" stroke-width="1.2" stroke="#00f" stroke-miterlimit="10" fill="none"/><path d="M175.723 152.512l5.988-8.62" stroke-width="1.2" stroke="#000" stroke-miterlimit="10" fill="none"/><path d="M166.738 155.637h7v11h-7zm0 0" fill="#fff"/><use xlink:href="#a" x="166.738" y="164.3" fill="#00f"/><path d="M181.71 143.89l20.923 1.747M202.633 145.637l8.95 18.992M207.996 145.43l7.16 15.19M214.605 128.387l-11.972 17.25M211.582 164.63l20.922 1.745M232.504 166.375l11.976-17.246M229.645 161.832l9.578-13.797M232.504 166.375l8.953 18.992M244.48 149.13l-8.95-18.997M235.53 130.133l-20.925-1.746M233.027 134.883l-16.738-1.4M235.53 130.133l11.974-17.246M247.504 112.887l5.984-8.62" stroke-width="1.2" stroke="#000" stroke-miterlimit="10" fill="none"/><path d="M253.488 104.266l5.99-8.625" stroke-width="1.2" stroke="#3cc" stroke-miterlimit="10" fill="none"/><path d="M247.504 112.887l8.62 5.988" stroke-width="1.2" stroke="#000" stroke-miterlimit="10" fill="none"/><path d="M256.125 118.875l8.625 5.984" stroke-width="1.2" stroke="#3cc" stroke-miterlimit="10" fill="none"/><path d="M247.504 112.887l-8.625-5.985" stroke-width="1.2" stroke="#000" stroke-miterlimit="10" fill="none"/><path d="M238.88 106.902l-8.622-5.988" stroke-width="1.2" stroke="#3cc" stroke-miterlimit="10" fill="none"/><path d="M256.477 90.14h6v11h-6zm0 0" fill="#fff"/><use xlink:href="#c" x="256.477" y="98.804" fill="#3cc"/><path d="M261.75 119.36h6v11h-6zm0 0" fill="#fff"/><use xlink:href="#c" x="261.75" y="128.022" fill="#3cc"/><path d="M224.258 95.414h6v11h-6zm0 0" fill="#fff"/><use xlink:href="#c" x="224.258" y="104.077" fill="#3cc"/><path d="M241.457 185.367l4.473 9.496" stroke-width="1.2" stroke="#000" stroke-miterlimit="10" fill="none"/><path d="M245.93 194.863l4.476 9.496" stroke-width="1.2" stroke="#3cc" stroke-miterlimit="10" fill="none"/><path d="M241.457 185.367l-9.5 4.473" stroke-width="1.2" stroke="#000" stroke-miterlimit="10" fill="none"/><path d="M231.957 189.84l-9.496 4.476" stroke-width="1.2" stroke="#3cc" stroke-miterlimit="10" fill="none"/><path d="M241.457 185.367l9.496-4.476" stroke-width="1.2" stroke="#000" stroke-miterlimit="10" fill="none"/><path d="M250.953 180.89l9.496-4.472" stroke-width="1.2" stroke="#3cc" stroke-miterlimit="10" fill="none"/><path d="M247.406 198.86h6v11h-6zm0 0" fill="#fff"/><use xlink:href="#c" x="247.406" y="207.522" fill="#3cc"/><path d="M216.46 188.816h6v11h-6zm0 0" fill="#fff"/><use xlink:href="#c" x="216.461" y="197.479" fill="#3cc"/><path d="M257.45 170.918h6v11h-6zm0 0" fill="#fff"/><use xlink:href="#c" x="257.449" y="179.581" fill="#3cc"/></g></svg>