<svg xmlns="http://www.w3.org/2000/svg" xmlns:xlink="http://www.w3.org/1999/xlink" width="300pt" height="300pt" viewBox="0 0 300 300"><defs><symbol overflow="visible"><path d="M.547 1.938V-7.75h5.5v9.688zm.625-.61h4.266v-8.47H1.171zm0 0"/></symbol><symbol overflow="visible" id="a"><path d="M4.328-7.28c-.78 0-1.406.296-1.875.89-.46.585-.687 1.382-.687 2.39 0 1.012.226 1.813.687 2.406.47.586 1.094.875 1.875.875.79 0 1.414-.288 1.875-.874.457-.593.688-1.394.688-2.406 0-1.008-.23-1.805-.687-2.39-.46-.594-1.086-.89-1.875-.89zm0-.892c1.125 0 2.024.383 2.703 1.14C7.708-6.28 8.048-5.27 8.048-4c0 1.262-.34 2.273-1.016 3.03C6.353-.22 5.454.157 4.33.157S2.3-.22 1.625-.97c-.668-.75-1-1.757-1-3.03 0-1.27.332-2.28 1-3.03.676-.76 1.578-1.142 2.703-1.142zm0 0"/></symbol><symbol overflow="visible" id="b"><path d="M1.078-8.016h1.47l3.546 6.704v-6.704h1.062V0H5.688L2.124-6.703V0H1.078zm0 0"/></symbol><symbol overflow="visible" id="c"><path d="M1.078-8.016h4.61v.907H2.171v2.36h3.172v.922H2.172V0H1.078zm0 0"/></symbol></defs><g><path fill="#fff" d="M0 0h300v300H0z"/><path d="M264.75 225.344l-.332-13.137" stroke-width="1.2" stroke="#000" stroke-miterlimit="10" fill="none"/><path d="M264.418 212.207l-.336-13.133M264.082 199.074l-11.54-6.28" stroke-width="1.2" stroke="#f00" stroke-miterlimit="10" fill="none"/><path d="M252.543 192.793L241 186.516" stroke-width="1.2" stroke="#000" stroke-miterlimit="10" fill="none"/><path d="M260.082 192.574h9v13h-9zm0 0" fill="#fff"/><use xlink:href="#a" x="260.082" y="202.476" fill="#f00"/><path d="M241 186.516l-22.418 13.71M235.53 182.613l-17.932 10.97M240.332 160.246l.668 26.27M218.582 200.227L195.5 187.672M195.5 187.672l-.668-26.27M201.613 184.887l-.53-21.016M194.832 161.402l22.418-13.714M194.832 161.402l-11.54-6.277" stroke-width="1.2" stroke="#000" stroke-miterlimit="10" fill="none"/><path d="M183.293 155.125l-11.543-6.28" stroke-width="1.2" stroke="#00f" stroke-miterlimit="10" fill="none"/><path d="M217.25 147.688l23.082 12.558M216.602 154.375l18.468 10.047" stroke-width="1.2" stroke="#000" stroke-miterlimit="10" fill="none"/><path d="M171.75 148.844l-.336-13.133" stroke-width="1.2" stroke="#00f" stroke-miterlimit="10" fill="none"/><path d="M171.414 135.71l-.332-13.136M149.332 162.56l11.21-6.86" stroke-width="1.2" stroke="#000" stroke-miterlimit="10" fill="none"/><path d="M160.543 155.7l11.207-6.856" stroke-width="1.2" stroke="#00f" stroke-miterlimit="10" fill="none"/><path d="M167.75 142.344h8v13h-8zm0 0" fill="#fff"/><use xlink:href="#b" x="167.75" y="152.245" fill="#00f"/><path d="M171.082 122.574l11.207-6.855" stroke-width="1.2" stroke="#000" stroke-miterlimit="10" fill="none"/><path d="M182.29 115.72l11.21-6.857" stroke-width="1.2" stroke="#00f" stroke-miterlimit="10" fill="none"/><path d="M170.098 115.93l8.964-5.485" stroke-width="1.2" stroke="#000" stroke-miterlimit="10" fill="none"/><path d="M179.063 110.445l8.968-5.484" stroke-width="1.2" stroke="#00f" stroke-miterlimit="10" fill="none"/><path d="M148 110.02l23.082 12.554" stroke-width="1.2" stroke="#000" stroke-miterlimit="10" fill="none"/><path d="M193.5 108.863l-.336-13.136" stroke-width="1.2" stroke="#00f" stroke-miterlimit="10" fill="none"/><path d="M193.164 95.727l-.332-13.133" stroke-width="1.2" stroke="#000" stroke-miterlimit="10" fill="none"/><path d="M189.5 102.363h8v13h-8zm0 0" fill="#fff"/><use xlink:href="#b" x="189.5" y="112.265" fill="#00f"/><path d="M192.832 82.594l-11.543-6.278" stroke-width="1.2" stroke="#000" stroke-miterlimit="10" fill="none"/><path d="M181.29 76.316l-11.54-6.28" stroke-width="1.2" stroke="#00f" stroke-miterlimit="10" fill="none"/><path d="M187.57 86.77l-9.234-5.024" stroke-width="1.2" stroke="#000" stroke-miterlimit="10" fill="none"/><path d="M178.336 81.746l-9.234-5.023M169.75 70.035l-11.21 6.86" stroke-width="1.2" stroke="#00f" stroke-miterlimit="10" fill="none"/><path d="M158.54 76.895L147.33 83.75" stroke-width="1.2" stroke="#000" stroke-miterlimit="10" fill="none"/><path d="M165.75 63.535h8v13h-8zm0 0" fill="#fff"/><use xlink:href="#b" x="165.75" y="73.437" fill="#00f"/><path d="M147.332 83.75l.668 26.27M153.578 86.22l.535 21.014M148 110.02l-11.21 6.855" stroke-width="1.2" stroke="#000" stroke-miterlimit="10" fill="none"/><path d="M136.79 116.875l-11.208 6.855M125.582 123.73l.336 13.137" stroke-width="1.2" stroke="#00f" stroke-miterlimit="10" fill="none"/><path d="M125.918 136.867L126.25 150" stroke-width="1.2" stroke="#000" stroke-miterlimit="10" fill="none"/><path d="M131.832 126.2l.266 10.507" stroke-width="1.2" stroke="#00f" stroke-miterlimit="10" fill="none"/><path d="M132.098 136.707l.265 10.508" stroke-width="1.2" stroke="#000" stroke-miterlimit="10" fill="none"/><path d="M121.582 117.23h8v13h-8zm0 0" fill="#fff"/><use xlink:href="#b" x="121.582" y="127.132" fill="#00f"/><path d="M126.25 150l23.082 12.56M126.25 150l-22.418 13.71M146.242 162.637l.332 13.133" stroke-width="1.2" stroke="#000" stroke-miterlimit="10" fill="none"/><path d="M146.574 175.77l.336 13.136" stroke-width="1.2" stroke="#f00" stroke-miterlimit="10" fill="none"/><path d="M152.422 162.477l.336 13.136" stroke-width="1.2" stroke="#000" stroke-miterlimit="10" fill="none"/><path d="M152.758 175.613l.332 13.133" stroke-width="1.2" stroke="#f00" stroke-miterlimit="10" fill="none"/><path d="M146 182.328h9v13h-9zm0 0" fill="#fff"/><use xlink:href="#a" x="146" y="192.229" fill="#f00"/><path d="M103.832 163.71L80.75 151.157M98.57 167.887l-18.465-10.043M104.5 189.98l-.668-26.27M80.75 151.156l-22.418 13.71M58.332 164.867l.668 26.27M64.582 167.336l.53 21.016M58.332 164.867l-11.54-6.277" stroke-width="1.2" stroke="#000" stroke-miterlimit="10" fill="none"/><path d="M46.793 158.59l-11.543-6.278" stroke-width="1.2" stroke="#3cc" stroke-miterlimit="10" fill="none"/><path d="M59 191.137l23.082 12.558M82.082 203.695L104.5 189.98M81.098 197.047l17.933-10.97M82.082 203.695l.336 13.133" stroke-width="1.2" stroke="#000" stroke-miterlimit="10" fill="none"/><path d="M82.418 216.828l.332 13.137" stroke-width="1.2" stroke="#3cc" stroke-miterlimit="10" fill="none"/><path d="M79.75 223.465h7v13h-7zm0 0" fill="#fff"/><use xlink:href="#c" x="79.75" y="233.366" fill="#3cc"/><path d="M28.25 145.813h7v13h-7zm0 0" fill="#fff"/><use xlink:href="#c" x="28.25" y="155.714" fill="#3cc"/></g></svg>