<svg xmlns="http://www.w3.org/2000/svg" xmlns:xlink="http://www.w3.org/1999/xlink" width="300pt" height="300pt" viewBox="0 0 300 300"><defs><symbol overflow="visible"><path d="M.453 1.594v-7.938h4.5v7.938zm.5-.5h3.5v-6.938h-3.5zm0 0"/></symbol><symbol overflow="visible" id="a"><path d="M.89-6.563H2.08l2.906 5.485v-5.484h.86V0H4.656L1.75-5.484V0H.89zm0 0"/></symbol><symbol overflow="visible" id="b"><path d="M3.547-5.953c-.65 0-1.164.242-1.547.72-.375.48-.563 1.13-.563 1.952 0 .835.188 1.49.563 1.967.383.48.898.72 1.547.72.644 0 1.156-.24 1.53-.72.376-.476.564-1.132.564-1.968 0-.822-.187-1.474-.562-1.954-.375-.477-.887-.72-1.53-.72zm0-.734c.914 0 1.648.312 2.203.937.55.617.828 1.438.828 2.47 0 1.042-.277 1.87-.828 2.483-.555.617-1.29.922-2.203.922-.93 0-1.668-.305-2.22-.922C.774-1.41.5-2.237.5-3.28c0-1.033.273-1.853.828-2.47.55-.625 1.29-.938 2.22-.938zm0 0"/></symbol><symbol overflow="visible" id="c"><path d="M.89-6.563h.876v2.688H5v-2.688h.89V0H5v-3.125H1.766V0H.89zm0 0"/></symbol></defs><g><path fill="#fff" d="M0 0h300v300H0z"/><path d="M43.645 171.738l5.726-21.617M49.37 150.12l20.853-8.07M49.56 144.41l16.678-6.457" stroke-width="1.2" stroke="#000" stroke-miterlimit="10" fill="none"/><path d="M35.25 132.785l7.06 8.668" stroke-width="1.2" stroke="#f00" stroke-miterlimit="10" fill="none"/><path d="M42.31 141.453l7.06 8.668M70.223 142.05l-1.23-22.327M70.223 142.05l18.79 12.13M68.992 119.723l-10.808-2.864" stroke-width="1.2" stroke="#000" stroke-miterlimit="10" fill="none"/><path d="M58.184 116.86l-10.81-2.864" stroke-width="1.2" stroke="#00f" stroke-miterlimit="10" fill="none"/><path d="M65.484 124.238l-8.648-2.293" stroke-width="1.2" stroke="#000" stroke-miterlimit="10" fill="none"/><path d="M56.836 121.945l-8.645-2.29" stroke-width="1.2" stroke="#00f" stroke-miterlimit="10" fill="none"/><path d="M68.992 119.723l17.34-14.12" stroke-width="1.2" stroke="#000" stroke-miterlimit="10" fill="none"/><path d="M47.375 113.996l-6.063 9.395" stroke-width="1.2" stroke="#00f" stroke-miterlimit="10" fill="none"/><path d="M41.313 123.39l-6.063 9.395" stroke-width="1.2" stroke="#f00" stroke-miterlimit="10" fill="none"/><path d="M44.375 108.496h7v11h-7zm0 0" fill="#fff"/><use xlink:href="#a" x="44.375" y="117.159" fill="#00f"/><path d="M31.25 127.285h8v11h-8zm0 0" fill="#fff"/><use xlink:href="#b" x="31.25" y="135.948" fill="#f00"/><path d="M89.012 154.18l-.555 11.164" stroke-width="1.2" stroke="#000" stroke-miterlimit="10" fill="none"/><path d="M88.457 165.344l-.555 11.168" stroke-width="1.2" stroke="#00f" stroke-miterlimit="10" fill="none"/><path d="M94.156 156.672l-.44 8.933" stroke-width="1.2" stroke="#000" stroke-miterlimit="10" fill="none"/><path d="M93.715 165.605l-.445 8.934M108.906 143.97l-9.945 5.104" stroke-width="1.2" stroke="#00f" stroke-miterlimit="10" fill="none"/><path d="M98.96 149.074l-9.948 5.106" stroke-width="1.2" stroke="#000" stroke-miterlimit="10" fill="none"/><path d="M87.902 176.512l9.395 6.062" stroke-width="1.2" stroke="#00f" stroke-miterlimit="10" fill="none"/><path d="M97.297 182.574l9.394 6.063" stroke-width="1.2" stroke="#000" stroke-miterlimit="10" fill="none"/><path d="M84.902 171.012h7v11h-7zm0 0" fill="#fff"/><use xlink:href="#a" x="84.902" y="179.675" fill="#00f"/><path d="M106.69 188.637l19.896-10.207M106.28 182.938l15.915-8.168M126.586 178.43l1.11-22.332M127.695 156.098l-9.394-6.063" stroke-width="1.2" stroke="#000" stroke-miterlimit="10" fill="none"/><path d="M118.3 150.035l-9.394-6.066" stroke-width="1.2" stroke="#00f" stroke-miterlimit="10" fill="none"/><path d="M122.965 159.305l-7.516-4.852" stroke-width="1.2" stroke="#000" stroke-miterlimit="10" fill="none"/><path d="M115.45 154.453l-7.516-4.848" stroke-width="1.2" stroke="#00f" stroke-miterlimit="10" fill="none"/><path d="M127.695 156.098l9.95-5.106" stroke-width="1.2" stroke="#000" stroke-miterlimit="10" fill="none"/><path d="M137.645 150.992l9.945-5.1" stroke-width="1.2" stroke="#00f" stroke-miterlimit="10" fill="none"/><path d="M105.906 138.47h7v11h-7zm0 0" fill="#fff"/><use xlink:href="#a" x="105.906" y="147.132" fill="#00f"/><path d="M147.59 145.89l9.394 6.063" stroke-width="1.2" stroke="#00f" stroke-miterlimit="10" fill="none"/><path d="M156.984 151.953l9.395 6.063" stroke-width="1.2" stroke="#000" stroke-miterlimit="10" fill="none"/><path d="M140.59 140.39h14v11h-14zm0 0" fill="#fff"/><g fill="#00f"><use xlink:href="#a" x="140.59" y="149.054"/><use xlink:href="#c" x="147.567" y="149.054"/></g><path d="M166.38 158.016l19.893-10.207M186.273 147.81l18.79 12.127M191.008 144.602l15.027 9.703M187.383 125.477l-1.11 22.332M205.063 159.938l19.894-10.208M205.063 159.938l-.555 11.164" stroke-width="1.2" stroke="#000" stroke-miterlimit="10" fill="none"/><path d="M204.508 171.102l-.555 11.168" stroke-width="1.2" stroke="#f00" stroke-miterlimit="10" fill="none"/><path d="M224.957 149.73l1.11-22.335M219.813 147.234l.886-17.867M226.066 127.395l-18.79-12.125M226.066 127.395l9.95-5.102" stroke-width="1.2" stroke="#000" stroke-miterlimit="10" fill="none"/><path d="M236.016 122.293l9.945-5.106" stroke-width="1.2" stroke="#f00" stroke-miterlimit="10" fill="none"/><path d="M207.277 115.27l-19.894 10.207M207.69 120.97l-15.917 8.167" stroke-width="1.2" stroke="#000" stroke-miterlimit="10" fill="none"/><path d="M245.96 117.188l9.395 6.062" stroke-width="1.2" stroke="#f00" stroke-miterlimit="10" fill="none"/><path d="M255.355 123.25l9.395 6.066" stroke-width="1.2" stroke="#000" stroke-miterlimit="10" fill="none"/><path d="M241.96 111.688h8v11h-8zm0 0" fill="#fff"/><use xlink:href="#b" x="241.961" y="120.351" fill="#f00"/><path d="M203.953 182.27l9.395 6.062" stroke-width="1.2" stroke="#f00" stroke-miterlimit="10" fill="none"/><path d="M213.348 188.332l9.394 6.066" stroke-width="1.2" stroke="#000" stroke-miterlimit="10" fill="none"/><path d="M199.953 176.77h8v11h-8zm0 0" fill="#fff"/><use xlink:href="#b" x="199.953" y="185.433" fill="#f00"/></g></svg>