<svg xmlns="http://www.w3.org/2000/svg" xmlns:xlink="http://www.w3.org/1999/xlink" width="300pt" height="300pt" viewBox="0 0 300 300"><defs><symbol overflow="visible"><path d="M.547 1.938V-7.75h5.5v9.688zm.625-.61h4.266v-8.47H1.171zm0 0"/></symbol><symbol overflow="visible" id="a"><path d="M1.078-8.016h1.47l3.546 6.704v-6.704h1.062V0H5.688L2.124-6.703V0H1.078zm0 0"/></symbol><symbol overflow="visible" id="b"><path d="M4.328-7.28c-.78 0-1.406.296-1.875.89-.46.585-.687 1.382-.687 2.39 0 1.012.226 1.813.687 2.406.47.586 1.094.875 1.875.875.79 0 1.414-.288 1.875-.874.457-.593.688-1.394.688-2.406 0-1.008-.23-1.805-.687-2.39-.46-.594-1.086-.89-1.875-.89zm0-.892c1.125 0 2.024.383 2.703 1.14C7.708-6.28 8.048-5.27 8.048-4c0 1.262-.34 2.273-1.016 3.03C6.353-.22 5.454.157 4.33.157S2.3-.22 1.625-.97c-.668-.75-1-1.757-1-3.03 0-1.27.332-2.28 1-3.03.676-.76 1.578-1.142 2.703-1.142zm0 0"/></symbol><symbol overflow="visible" id="c"><path d="M1.078-8.016h4.61v.907H2.171v2.36h3.172v.922H2.172V0H1.078zm0 0"/></symbol></defs><g><path fill="#fff" d="M0 0h300v300H0z"/><path d="M153.168 217.133l-25.656.316M165.723 194.754l-12.555 22.38" stroke-width="1.2" stroke="#000" stroke-miterlimit="10" fill="none"/><path d="M114.41 195.39m1.06 2.805l.897-.53m.16 3.335l1.793-1.063m-.73 3.872l2.687-1.6m-1.63 4.403l3.587-2.13m-2.523 4.94l4.48-2.665m-3.42 5.47l5.378-3.197m-4.316 6.005l6.273-3.73m-5.214 6.535l7.172-4.262m-6.445 6.184l7.785-4.625" stroke="#000" stroke-miterlimit="10" fill="none"/><path d="M114.41 195.39l-14.824 20.942M114.41 195.39l12.55-22.378M99.07 174.82l15.34 20.57M99.586 216.332l-24.5-7.625M75.086 208.707l-.16-12.828" stroke-width="1.2" stroke="#000" stroke-miterlimit="10" fill="none"/><path d="M74.926 195.88l-.156-12.83M74.77 183.05l12.152-4.116" stroke-width="1.2" stroke="#00f" stroke-miterlimit="10" fill="none"/><path d="M86.922 178.934l12.148-4.114" stroke-width="1.2" stroke="#000" stroke-miterlimit="10" fill="none"/><path d="M74.77 183.05l-10.473-7.413" stroke-width="1.2" stroke="#00f" stroke-miterlimit="10" fill="none"/><path d="M64.297 175.637l-10.47-7.41" stroke-width="1.2" stroke="#000" stroke-miterlimit="10" fill="none"/><path d="M70.77 176.55h8v13h-8zm0 0" fill="#fff"/><use xlink:href="#a" x="70.77" y="186.452" fill="#00f"/><path d="M53.828 168.227l2.363-25.55M56.19 142.676l23.31-10.723M56 136.12l18.648-8.58M35.25 127.852l20.94 14.824M79.5 131.953l2.367-25.55M81.867 106.402l-10.47-7.41" stroke-width="1.2" stroke="#000" stroke-miterlimit="10" fill="none"/><path d="M71.398 98.992l-10.472-7.414" stroke-width="1.2" stroke="#00f" stroke-miterlimit="10" fill="none"/><path d="M76.285 109.848l-8.375-5.93" stroke-width="1.2" stroke="#000" stroke-miterlimit="10" fill="none"/><path d="M67.91 103.918l-8.38-5.93M60.926 91.578L49.27 96.94" stroke-width="1.2" stroke="#00f" stroke-miterlimit="10" fill="none"/><path d="M49.27 96.94l-11.653 5.365" stroke-width="1.2" stroke="#000" stroke-miterlimit="10" fill="none"/><path d="M56.926 85.078h8v13h-8zm0 0" fill="#fff"/><use xlink:href="#a" x="56.926" y="94.979" fill="#00f"/><path d="M37.617 102.305l-2.367 25.547M43.39 105.414l-1.89 20.44M126.96 173.012l12.83-.16" stroke-width="1.2" stroke="#000" stroke-miterlimit="10" fill="none"/><path d="M139.79 172.852l12.827-.157M152.617 172.695l6.55 11.032" stroke-width="1.2" stroke="#00f" stroke-miterlimit="10" fill="none"/><path d="M159.168 183.727l6.555 11.027" stroke-width="1.2" stroke="#000" stroke-miterlimit="10" fill="none"/><path d="M152.617 172.695l6.278-11.19" stroke-width="1.2" stroke="#00f" stroke-miterlimit="10" fill="none"/><path d="M158.895 161.504l6.277-11.188" stroke-width="1.2" stroke="#000" stroke-miterlimit="10" fill="none"/><path d="M148.617 166.195h8v13h-8zm0 0" fill="#fff"/><use xlink:href="#a" x="148.617" y="176.097" fill="#00f"/><path d="M167.766 148.777l-6.55-11.03" stroke-width="1.2" stroke="#000" stroke-miterlimit="10" fill="none"/><path d="M161.215 137.746l-6.55-11.03" stroke-width="1.2" stroke="#f00" stroke-miterlimit="10" fill="none"/><path d="M162.578 151.86l-6.555-11.032" stroke-width="1.2" stroke="#000" stroke-miterlimit="10" fill="none"/><path d="M156.023 140.828l-6.55-11.03" stroke-width="1.2" stroke="#f00" stroke-miterlimit="10" fill="none"/><path d="M165.172 150.316l25.656-.316" stroke-width="1.2" stroke="#000" stroke-miterlimit="10" fill="none"/><path d="M143.07 121.758h9v13h-9zm0 0" fill="#fff"/><use xlink:href="#b" x="143.07" y="131.659" fill="#f00"/><path d="M190.828 150l13.102 22.06M197.328 149.125l10.484 17.645M203.383 127.62L190.828 150M203.93 172.06l25.656-.318M229.586 171.742l12.555-22.375M225.578 166.55l10.043-17.902M229.586 171.742l13.105 22.063M242.14 149.367l-13.1-22.062M229.04 127.305l-25.657.316M226.547 133.375l-20.524.254M229.04 127.305l12.55-22.375M241.59 104.93l6.277-11.192" stroke-width="1.2" stroke="#000" stroke-miterlimit="10" fill="none"/><path d="M247.867 93.738l6.278-11.187" stroke-width="1.2" stroke="#3cc" stroke-miterlimit="10" fill="none"/><path d="M241.59 104.93l11.19 6.273" stroke-width="1.2" stroke="#000" stroke-miterlimit="10" fill="none"/><path d="M252.78 111.203l11.19 6.277" stroke-width="1.2" stroke="#3cc" stroke-miterlimit="10" fill="none"/><path d="M241.59 104.93l-11.188-6.278" stroke-width="1.2" stroke="#000" stroke-miterlimit="10" fill="none"/><path d="M230.402 98.652l-11.187-6.277" stroke-width="1.2" stroke="#3cc" stroke-miterlimit="10" fill="none"/><path d="M251.145 76.05h7v13h-7zm0 0" fill="#fff"/><use xlink:href="#c" x="251.145" y="85.952" fill="#3cc"/><path d="M260.97 110.98h7v13h-7zm0 0" fill="#fff"/><use xlink:href="#c" x="260.969" y="120.882" fill="#3cc"/><path d="M212.215 85.875h7v13h-7zm0 0" fill="#fff"/><use xlink:href="#c" x="212.215" y="95.776" fill="#3cc"/><path d="M242.69 193.805l6.552 11.027" stroke-width="1.2" stroke="#000" stroke-miterlimit="10" fill="none"/><path d="M249.242 204.832l6.55 11.03" stroke-width="1.2" stroke="#3cc" stroke-miterlimit="10" fill="none"/><path d="M242.69 193.805l-11.03 6.55" stroke-width="1.2" stroke="#000" stroke-miterlimit="10" fill="none"/><path d="M231.66 200.355l-11.03 6.55" stroke-width="1.2" stroke="#3cc" stroke-miterlimit="10" fill="none"/><path d="M242.69 193.805l11.03-6.55" stroke-width="1.2" stroke="#000" stroke-miterlimit="10" fill="none"/><path d="M253.72 187.254l11.03-6.555" stroke-width="1.2" stroke="#3cc" stroke-miterlimit="10" fill="none"/><path d="M252.793 209.363h7v13h-7zm0 0" fill="#fff"/><use xlink:href="#c" x="252.793" y="219.265" fill="#3cc"/><path d="M213.63 200.406h7v13h-7zm0 0" fill="#fff"/><use xlink:href="#c" x="213.629" y="210.308" fill="#3cc"/><path d="M261.75 174.2h7v13h-7zm0 0" fill="#fff"/><use xlink:href="#c" x="261.75" y="184.101" fill="#3cc"/></g></svg>