<svg xmlns="http://www.w3.org/2000/svg" xmlns:xlink="http://www.w3.org/1999/xlink" width="300pt" height="300pt" viewBox="0 0 300 300"><defs><symbol overflow="visible"><path d="M.453 1.594v-7.938h4.5v7.938zm.5-.5h3.5v-6.938h-3.5zm0 0"/></symbol><symbol overflow="visible" id="a"><path d="M.89-6.563H2.08l2.906 5.485v-5.484h.86V0H4.656L1.75-5.484V0H.89zm0 0"/></symbol><symbol overflow="visible" id="b"><path d="M.89-6.563h.876v2.688H5v-2.688h.89V0H5v-3.125H1.766V0H.89zm0 0"/></symbol><symbol overflow="visible" id="c"><path d="M3.547-5.953c-.65 0-1.164.242-1.547.72-.375.48-.563 1.13-.563 1.952 0 .835.188 1.49.563 1.967.383.48.898.72 1.547.72.644 0 1.156-.24 1.53-.72.376-.476.564-1.132.564-1.968 0-.822-.187-1.474-.562-1.954-.375-.477-.887-.72-1.53-.72zm0-.734c.914 0 1.648.312 2.203.937.55.617.828 1.438.828 2.47 0 1.042-.277 1.87-.828 2.483-.555.617-1.29.922-2.203.922-.93 0-1.668-.305-2.22-.922C.774-1.41.5-2.237.5-3.28c0-1.033.273-1.853.828-2.47.55-.625 1.29-.938 2.22-.938zm0 0"/></symbol></defs><g><path fill="#fff" d="M0 0h300v300H0z"/><path d="M264.75 214.594l-23.938-2.4M240.813 212.195l-4.95-10.965" stroke-width="1.2" stroke="#000" stroke-miterlimit="10" fill="none"/><path d="M235.863 201.23l-4.945-10.964M230.918 190.266l-11.97-1.2" stroke-width="1.2" stroke="#00f" stroke-miterlimit="10" fill="none"/><path d="M218.95 189.066l-11.973-1.2" stroke-width="1.2" stroke="#000" stroke-miterlimit="10" fill="none"/><path d="M223.918 184.766h14v11h-14zm0 0" fill="#fff"/><g fill="#00f"><use xlink:href="#a" x="223.918" y="193.429"/><use xlink:href="#b" x="230.896" y="193.429"/></g><path d="M206.977 187.867l-7.024 9.77" stroke-width="1.2" stroke="#000" stroke-miterlimit="10" fill="none"/><path d="M199.953 197.637l-7.02 9.765" stroke-width="1.2" stroke="#00f" stroke-miterlimit="10" fill="none"/><path d="M200.977 186.516l-5.618 7.812" stroke-width="1.2" stroke="#000" stroke-miterlimit="10" fill="none"/><path d="M195.36 194.328l-5.618 7.817M197.086 165.938l4.945 10.964" stroke-width="1.2" stroke="#00f" stroke-miterlimit="10" fill="none"/><path d="M202.03 176.902l4.947 10.965" stroke-width="1.2" stroke="#000" stroke-miterlimit="10" fill="none"/><path d="M192.934 207.402l-11.973-1.2" stroke-width="1.2" stroke="#00f" stroke-miterlimit="10" fill="none"/><path d="M180.96 206.203l-11.968-1.2" stroke-width="1.2" stroke="#000" stroke-miterlimit="10" fill="none"/><path d="M189.934 201.902h7v11h-7zm0 0" fill="#fff"/><use xlink:href="#a" x="189.934" y="210.565" fill="#00f"/><path d="M168.992 205.004l-9.894-21.93M173.164 200.484l-7.914-17.547M159.098 183.074l14.047-19.535" stroke-width="1.2" stroke="#000" stroke-miterlimit="10" fill="none"/><path d="M135.16 180.676l11.97 1.2" stroke-width="1.2" stroke="#00f" stroke-miterlimit="10" fill="none"/><path d="M147.13 181.875l11.968 1.2M173.145 163.54l11.968 1.198" stroke-width="1.2" stroke="#000" stroke-miterlimit="10" fill="none"/><path d="M185.113 164.738l11.973 1.2" stroke-width="1.2" stroke="#00f" stroke-miterlimit="10" fill="none"/><path d="M174.977 169.414l9.574.957" stroke-width="1.2" stroke="#000" stroke-miterlimit="10" fill="none"/><path d="M184.55 170.37l9.575.962" stroke-width="1.2" stroke="#00f" stroke-miterlimit="10" fill="none"/><path d="M173.145 163.54l-4.946-10.966" stroke-width="1.2" stroke="#000" stroke-miterlimit="10" fill="none"/><path d="M168.2 152.574l-4.95-10.965" stroke-width="1.2" stroke="#00f" stroke-miterlimit="10" fill="none"/><path d="M194.086 160.438h7v11h-7zm0 0" fill="#fff"/><use xlink:href="#a" x="194.086" y="169.101" fill="#00f"/><path d="M163.25 141.61l-11.97-1.2" stroke-width="1.2" stroke="#00f" stroke-miterlimit="10" fill="none"/><path d="M151.28 140.41l-11.968-1.2" stroke-width="1.2" stroke="#000" stroke-miterlimit="10" fill="none"/><path d="M163.25 141.61l7.023-9.766" stroke-width="1.2" stroke="#00f" stroke-miterlimit="10" fill="none"/><path d="M170.273 131.844l7.024-9.77" stroke-width="1.2" stroke="#000" stroke-miterlimit="10" fill="none"/><path d="M160.25 136.11h7v11h-7zm0 0" fill="#fff"/><use xlink:href="#a" x="160.25" y="144.772" fill="#00f"/><path d="M141.89 138.047l-4.945-10.965" stroke-width="1.2" stroke="#000" stroke-miterlimit="10" fill="none"/><path d="M136.945 127.082L132 116.117" stroke-width="1.2" stroke="#f00" stroke-miterlimit="10" fill="none"/><path d="M136.73 140.375l-4.945-10.965" stroke-width="1.2" stroke="#000" stroke-miterlimit="10" fill="none"/><path d="M131.785 129.41l-4.945-10.965" stroke-width="1.2" stroke="#f00" stroke-miterlimit="10" fill="none"/><path d="M139.313 139.21l-14.047 19.536" stroke-width="1.2" stroke="#000" stroke-miterlimit="10" fill="none"/><path d="M121.418 111.78h8v11h-8zm0 0" fill="#fff"/><use xlink:href="#c" x="121.418" y="120.444" fill="#f00"/><path d="M125.266 158.746l4.95 10.965" stroke-width="1.2" stroke="#000" stroke-miterlimit="10" fill="none"/><path d="M130.215 169.71l4.945 10.966" stroke-width="1.2" stroke="#00f" stroke-miterlimit="10" fill="none"/><path d="M131.414 158.61l3.96 8.773" stroke-width="1.2" stroke="#000" stroke-miterlimit="10" fill="none"/><path d="M135.375 167.383l3.957 8.773" stroke-width="1.2" stroke="#00f" stroke-miterlimit="10" fill="none"/><path d="M125.266 158.746l-23.938-2.398" stroke-width="1.2" stroke="#000" stroke-miterlimit="10" fill="none"/><path d="M132.16 175.176h7v11h-7zm0 0" fill="#fff"/><use xlink:href="#a" x="132.16" y="183.839" fill="#00f"/><path d="M101.328 156.348l-9.894-21.93M95.176 156.484l-7.914-17.547M87.28 175.883l14.048-19.535M91.434 134.418l-23.942-2.398M67.492 132.02L53.45 151.555M70.684 137.277l-11.235 15.63M53.45 151.555l9.89 21.93M63.34 173.484l23.94 2.4M66.3 168.09l19.15 1.918M63.34 173.484l-14.043 19.532M49.297 193.016l-7.024 9.77" stroke-width="1.2" stroke="#000" stroke-miterlimit="10" fill="none"/><path d="M42.273 202.785l-7.023 9.766" stroke-width="1.2" stroke="#00f" stroke-miterlimit="10" fill="none"/><path d="M43.297 191.664l-5.62 7.816" stroke-width="1.2" stroke="#000" stroke-miterlimit="10" fill="none"/><path d="M37.676 199.48l-5.617 7.813" stroke-width="1.2" stroke="#00f" stroke-miterlimit="10" fill="none"/><path d="M52.488 198.277l-5.62 7.813" stroke-width="1.2" stroke="#000" stroke-miterlimit="10" fill="none"/><path d="M46.867 206.09l-5.617 7.812" stroke-width="1.2" stroke="#00f" stroke-miterlimit="10" fill="none"/><path d="M28.25 207.05h7v11h-7zm0 0" fill="#fff"/><use xlink:href="#a" x="28.25" y="215.714" fill="#00f"/><path d="M177.297 122.074l23.94 2.4M201.238 124.473l14.043-19.532M215.28 104.94l7.025-9.768" stroke-width="1.2" stroke="#000" stroke-miterlimit="10" fill="none"/><path d="M222.305 95.172l7.023-9.766" stroke-width="1.2" stroke="#00f" stroke-miterlimit="10" fill="none"/><path d="M221.28 106.293l5.622-7.816" stroke-width="1.2" stroke="#000" stroke-miterlimit="10" fill="none"/><path d="M226.902 98.477l5.618-7.813" stroke-width="1.2" stroke="#00f" stroke-miterlimit="10" fill="none"/><path d="M212.09 99.68l5.62-7.813" stroke-width="1.2" stroke="#000" stroke-miterlimit="10" fill="none"/><path d="M217.71 91.867l5.618-7.812" stroke-width="1.2" stroke="#00f" stroke-miterlimit="10" fill="none"/><path d="M226.328 79.906h7v11h-7zm0 0" fill="#fff"/><use xlink:href="#a" x="226.328" y="88.569" fill="#00f"/></g></svg>