<svg xmlns="http://www.w3.org/2000/svg" xmlns:xlink="http://www.w3.org/1999/xlink" width="300pt" height="300pt" viewBox="0 0 300 300"><defs><symbol overflow="visible"><path d="M.453 1.594v-7.938h4.5v7.938zm.5-.5h3.5v-6.938h-3.5zm0 0"/></symbol><symbol overflow="visible" id="a"><path d="M.89-6.563H2.08l2.906 5.485v-5.484h.86V0H4.656L1.75-5.484V0H.89zm0 0"/></symbol><symbol overflow="visible" id="b"><path d="M3.547-5.953c-.65 0-1.164.242-1.547.72-.375.48-.563 1.13-.563 1.952 0 .835.188 1.49.563 1.967.383.48.898.72 1.547.72.644 0 1.156-.24 1.53-.72.376-.476.564-1.132.564-1.968 0-.822-.187-1.474-.562-1.954-.375-.477-.887-.72-1.53-.72zm0-.734c.914 0 1.648.312 2.203.937.55.617.828 1.438.828 2.47 0 1.042-.277 1.87-.828 2.483-.555.617-1.29.922-2.203.922-.93 0-1.668-.305-2.22-.922C.774-1.41.5-2.237.5-3.28c0-1.033.273-1.853.828-2.47.55-.625 1.29-.938 2.22-.938zm0 0"/></symbol><symbol overflow="visible" id="c"><path d="M.89-6.563h.876v2.688H5v-2.688h.89V0H5v-3.125H1.766V0H.89zm0 0"/></symbol><symbol overflow="visible" id="d"><path d="M.89-6.563h3.766v.75h-2.89v1.938h2.61v.734h-2.61V0H.89zm0 0"/></symbol></defs><g><path fill="#fff" d="M0 0h300v300H0z"/><path d="M194.05 196.672l-21.554 5.476M200.086 175.266l-6.035 21.406" stroke-width="1.2" stroke="#000" stroke-miterlimit="10" fill="none"/><path d="M156.977 186.22m1.687 2.48l.75-.727m.94 3.207l1.494-1.457m.195 3.937l2.238-2.183m-.55 4.66l2.99-2.91m-1.302 5.39l3.734-3.637m-2.047 6.118l4.48-4.368m-2.788 6.848l5.226-5.094m-4.335 6.403l5.62-5.477" stroke="#000" stroke-miterlimit="10" fill="none"/><path d="M156.977 186.22l-8.24 20.655M156.977 186.22l6.035-21.407M139.88 172l17.097 14.22M148.738 206.875l-22.19-1.453M126.547 205.422l-2.738-10.777" stroke-width="1.2" stroke="#000" stroke-miterlimit="10" fill="none"/><path d="M123.81 194.645l-2.74-10.778M121.07 183.867l9.403-5.933" stroke-width="1.2" stroke="#00f" stroke-miterlimit="10" fill="none"/><path d="M130.473 177.934L139.88 172" stroke-width="1.2" stroke="#000" stroke-miterlimit="10" fill="none"/><path d="M121.07 183.867l-10.328-4.117" stroke-width="1.2" stroke="#00f" stroke-miterlimit="10" fill="none"/><path d="M110.742 179.75l-10.328-4.12" stroke-width="1.2" stroke="#000" stroke-miterlimit="10" fill="none"/><path d="M118.07 178.367h7v11h-7zm0 0" fill="#fff"/><use xlink:href="#a" x="118.07" y="187.03" fill="#00f"/><path d="M98.793 173.574l-8.73 6.887" stroke-width="1.2" stroke="#000" stroke-miterlimit="10" fill="none"/><path d="M90.063 180.46l-8.735 6.884" stroke-width="1.2" stroke="#f00" stroke-miterlimit="10" fill="none"/><path d="M102.035 177.684L93.3 184.57" stroke-width="1.2" stroke="#000" stroke-miterlimit="10" fill="none"/><path d="M93.3 184.57l-8.73 6.883" stroke-width="1.2" stroke="#f00" stroke-miterlimit="10" fill="none"/><path d="M100.414 175.63l-1.598-11.005" stroke-width="1.2" stroke="#000" stroke-miterlimit="10" fill="none"/><path d="M98.816 164.625L97.22 153.62" stroke-width="1.2" stroke="#00f" stroke-miterlimit="10" fill="none"/><path d="M74.95 183.898h8v11h-8zm0 0" fill="#fff"/><use xlink:href="#b" x="74.949" y="192.562" fill="#f00"/><path d="M97.22 153.62l-10.33-4.12" stroke-width="1.2" stroke="#00f" stroke-miterlimit="10" fill="none"/><path d="M86.89 149.5l-10.328-4.117" stroke-width="1.2" stroke="#000" stroke-miterlimit="10" fill="none"/><path d="M90.22 148.12h14v11h-14zm0 0" fill="#fff"/><g fill="#00f"><use xlink:href="#a" x="90.219" y="156.784"/><use xlink:href="#c" x="97.196" y="156.784"/></g><path d="M76.563 145.383L73.37 123.37M71.066 143.93l-2.554-17.606M59.102 159.152l17.46-13.77M73.37 123.37l-20.655-8.237M52.715 115.133l-17.465 13.77M54.207 120.617l-13.973 11.02M52.715 115.133l-1.598-11.004" stroke-width="1.2" stroke="#000" stroke-miterlimit="10" fill="none"/><path d="M51.117 104.13L49.52 93.124" stroke-width="1.2" stroke="#3cc" stroke-miterlimit="10" fill="none"/><path d="M35.25 128.902l3.19 22.008M38.44 150.91l20.662 8.242M42.45 146.875l16.523 6.59" stroke-width="1.2" stroke="#000" stroke-miterlimit="10" fill="none"/><path d="M46.52 87.625h6v11h-6zm0 0" fill="#fff"/><use xlink:href="#d" x="46.52" y="96.288" fill="#3cc"/><path d="M163.012 164.813l10.777-2.735" stroke-width="1.2" stroke="#000" stroke-miterlimit="10" fill="none"/><path d="M173.79 162.078l10.776-2.738M184.566 159.34l7.762 7.96" stroke-width="1.2" stroke="#00f" stroke-miterlimit="10" fill="none"/><path d="M192.328 167.3l7.758 7.966" stroke-width="1.2" stroke="#000" stroke-miterlimit="10" fill="none"/><path d="M184.566 159.34l3.02-10.703" stroke-width="1.2" stroke="#00f" stroke-miterlimit="10" fill="none"/><path d="M187.586 148.637l3.016-10.703" stroke-width="1.2" stroke="#000" stroke-miterlimit="10" fill="none"/><path d="M181.566 153.84h7v11h-7zm0 0" fill="#fff"/><use xlink:href="#a" x="181.566" y="162.503" fill="#00f"/><path d="M192.477 136.11l-7.762-7.965" stroke-width="1.2" stroke="#000" stroke-miterlimit="10" fill="none"/><path d="M184.715 128.145l-7.758-7.965" stroke-width="1.2" stroke="#f00" stroke-miterlimit="10" fill="none"/><path d="M188.727 139.758l-7.758-7.965" stroke-width="1.2" stroke="#000" stroke-miterlimit="10" fill="none"/><path d="M180.97 131.793l-7.763-7.96" stroke-width="1.2" stroke="#f00" stroke-miterlimit="10" fill="none"/><path d="M190.602 137.934l21.554-5.477" stroke-width="1.2" stroke="#000" stroke-miterlimit="10" fill="none"/><path d="M167.082 116.504h8v11h-8zm0 0" fill="#fff"/><use xlink:href="#b" x="167.082" y="125.167" fill="#f00"/><path d="M212.156 132.457l15.52 15.93M217.457 130.398l12.414 12.743M218.19 111.05l-6.034 21.407M227.676 148.387l21.554-5.477M249.23 142.91l6.036-21.406M244.797 139.352l4.828-17.125M249.23 142.91l7.758 7.965" stroke-width="1.2" stroke="#000" stroke-miterlimit="10" fill="none"/><path d="M256.988 150.875l7.762 7.965" stroke-width="1.2" stroke="#3cc" stroke-miterlimit="10" fill="none"/><path d="M255.266 121.504l-15.52-15.926M239.746 105.578l-21.555 5.473M238.88 111.195l-17.243 4.383" stroke-width="1.2" stroke="#000" stroke-miterlimit="10" fill="none"/><path d="M261.75 153.34h6v11h-6zm0 0" fill="#fff"/><use xlink:href="#d" x="261.75" y="162.003" fill="#3cc"/></g></svg>