<svg xmlns="http://www.w3.org/2000/svg" xmlns:xlink="http://www.w3.org/1999/xlink" width="300pt" height="300pt" viewBox="0 0 300 300"><defs><symbol overflow="visible"><path d="M.453 1.594v-7.938h4.5v7.938zm.5-.5h3.5v-6.938h-3.5zm0 0"/></symbol><symbol overflow="visible" id="a"><path d="M3.547-5.953c-.65 0-1.164.242-1.547.72-.375.48-.563 1.13-.563 1.952 0 .835.188 1.49.563 1.967.383.48.898.72 1.547.72.644 0 1.156-.24 1.53-.72.376-.476.564-1.132.564-1.968 0-.822-.187-1.474-.562-1.954-.375-.477-.887-.72-1.53-.72zm0-.734c.914 0 1.648.312 2.203.937.55.617.828 1.438.828 2.47 0 1.042-.277 1.87-.828 2.483-.555.617-1.29.922-2.203.922-.93 0-1.668-.305-2.22-.922C.774-1.41.5-2.237.5-3.28c0-1.033.273-1.853.828-2.47.55-.625 1.29-.938 2.22-.938zm0 0"/></symbol><symbol overflow="visible" id="b"><path d="M.89-6.563H2.08l2.906 5.485v-5.484h.86V0H4.656L1.75-5.484V0H.89zm0 0"/></symbol><symbol overflow="visible" id="c"><path d="M4.813-6.344v.86c-.336-.157-.653-.27-.954-.344-.294-.082-.58-.125-.86-.125-.492 0-.867.094-1.125.28-.262.19-.39.454-.39.798 0 .293.085.512.265.656.176.15.504.267.984.36l.547.11c.658.125 1.142.352 1.454.672.32.312.485.734.485 1.265 0 .637-.216 1.122-.642 1.454-.43.325-1.055.485-1.875.485-.312 0-.648-.04-1-.11C1.36-.046 1-.147.625-.296v-.906c.352.2.703.35 1.047.453.35.105.695.156 1.03.156.5 0 .884-.097 1.157-.297.28-.196.42-.485.42-.86 0-.32-.1-.57-.296-.75-.2-.176-.523-.313-.968-.406l-.547-.11C1.81-3.148 1.33-3.36 1.03-3.64.74-3.923.595-4.313.595-4.813c0-.57.203-1.024.61-1.36.405-.344.968-.516 1.687-.516.313 0 .626.032.938.094.32.055.65.137.985.25zm0 0"/></symbol></defs><g><path fill="#fff" d="M0 0h300v300H0z"/><path d="M42.914 114.387l-3.832 11.484" stroke-width="1.2" stroke="#000" stroke-miterlimit="10" fill="none"/><path d="M39.082 125.87l-3.832 11.49M35.25 137.36l8.03 9.062" stroke-width="1.2" stroke="#f00" stroke-miterlimit="10" fill="none"/><path d="M43.28 146.422l8.032 9.062" stroke-width="1.2" stroke="#000" stroke-miterlimit="10" fill="none"/><path d="M31.25 131.86h8v11h-8zm0 0" fill="#fff"/><use xlink:href="#a" x="31.25" y="140.522" fill="#f00"/><path d="M51.313 155.484l23.73-4.847M54.828 160.582l18.98-3.88M43.648 178.457l7.664-22.973M75.043 150.637l16.062 18.125M91.105 168.762l-7.664 22.972M84.934 169.254l-6.133 18.38M83.44 191.734l-23.73 4.848M83.44 191.734l8.033 9.063" stroke-width="1.2" stroke="#000" stroke-miterlimit="10" fill="none"/><path d="M91.473 200.797l8.03 9.062" stroke-width="1.2" stroke="#f00" stroke-miterlimit="10" fill="none"/><path d="M59.71 196.582L43.65 178.457M62.37 190.992l-12.85-14.5" stroke-width="1.2" stroke="#000" stroke-miterlimit="10" fill="none"/><path d="M99.504 209.86l11.863-2.426" stroke-width="1.2" stroke="#f00" stroke-miterlimit="10" fill="none"/><path d="M111.367 207.434l11.863-2.422" stroke-width="1.2" stroke="#000" stroke-miterlimit="10" fill="none"/><path d="M95.504 204.36h8v11h-8zm0 0" fill="#fff"/><use xlink:href="#a" x="95.504" y="213.022" fill="#f00"/><path d="M123.23 205.012l8.036 9.062" stroke-width="1.2" stroke="#000" stroke-miterlimit="10" fill="none"/><path d="M131.266 214.074l8.03 9.063" stroke-width="1.2" stroke="#00f" stroke-miterlimit="10" fill="none"/><path d="M129.102 203.043l6.425 7.25" stroke-width="1.2" stroke="#000" stroke-miterlimit="10" fill="none"/><path d="M135.527 210.293l6.426 7.25M130.898 182.035l-3.832 11.488" stroke-width="1.2" stroke="#00f" stroke-miterlimit="10" fill="none"/><path d="M127.066 193.523l-3.836 11.49" stroke-width="1.2" stroke="#000" stroke-miterlimit="10" fill="none"/><path d="M139.297 223.137l11.863-2.426" stroke-width="1.2" stroke="#00f" stroke-miterlimit="10" fill="none"/><path d="M151.16 220.71l11.863-2.425" stroke-width="1.2" stroke="#000" stroke-miterlimit="10" fill="none"/><path d="M136.297 217.637h7v11h-7zm0 0" fill="#fff"/><use xlink:href="#b" x="136.297" y="226.3" fill="#00f"/><path d="M163.023 218.285l7.665-22.972M158.387 214.188l6.13-18.383M170.688 195.313l-16.063-18.125" stroke-width="1.2" stroke="#000" stroke-miterlimit="10" fill="none"/><path d="M194.418 190.465l-11.863 2.422" stroke-width="1.2" stroke="#00f" stroke-miterlimit="10" fill="none"/><path d="M182.555 192.887l-11.868 2.425M154.625 177.188l-11.863 2.425" stroke-width="1.2" stroke="#000" stroke-miterlimit="10" fill="none"/><path d="M142.762 179.613l-11.864 2.422" stroke-width="1.2" stroke="#00f" stroke-miterlimit="10" fill="none"/><path d="M153.395 183.254l-9.493 1.94" stroke-width="1.2" stroke="#000" stroke-miterlimit="10" fill="none"/><path d="M143.902 185.195l-9.492 1.938" stroke-width="1.2" stroke="#00f" stroke-miterlimit="10" fill="none"/><path d="M154.625 177.188l3.832-11.49" stroke-width="1.2" stroke="#000" stroke-miterlimit="10" fill="none"/><path d="M158.457 165.7l3.832-11.485" stroke-width="1.2" stroke="#00f" stroke-miterlimit="10" fill="none"/><path d="M127.898 176.535h7v11h-7zm0 0" fill="#fff"/><use xlink:href="#b" x="127.898" y="185.198" fill="#00f"/><path d="M162.29 154.215l11.866-2.426" stroke-width="1.2" stroke="#00f" stroke-miterlimit="10" fill="none"/><path d="M174.156 151.79l11.864-2.427" stroke-width="1.2" stroke="#000" stroke-miterlimit="10" fill="none"/><path d="M162.29 154.215l-8.032-9.063" stroke-width="1.2" stroke="#00f" stroke-miterlimit="10" fill="none"/><path d="M154.258 145.152l-8.03-9.062" stroke-width="1.2" stroke="#000" stroke-miterlimit="10" fill="none"/><path d="M159.29 148.715h7v11h-7zm0 0" fill="#fff"/><use xlink:href="#b" x="159.289" y="157.378" fill="#00f"/><path d="M188.723 150.266l3.832-11.485" stroke-width="1.2" stroke="#000" stroke-miterlimit="10" fill="none"/><path d="M192.555 138.78l3.832-11.487" stroke-width="1.2" stroke="#f00" stroke-miterlimit="10" fill="none"/><path d="M183.316 148.465l3.832-11.488" stroke-width="1.2" stroke="#000" stroke-miterlimit="10" fill="none"/><path d="M187.148 136.977l3.832-11.49" stroke-width="1.2" stroke="#f00" stroke-miterlimit="10" fill="none"/><path d="M186.02 149.363l16.062 18.125" stroke-width="1.2" stroke="#000" stroke-miterlimit="10" fill="none"/><path d="M189.684 120.89h8v11h-8zm0 0" fill="#fff"/><use xlink:href="#a" x="189.684" y="129.554" fill="#f00"/><path d="M202.082 167.488l-3.832 11.49" stroke-width="1.2" stroke="#000" stroke-miterlimit="10" fill="none"/><path d="M198.25 178.977l-3.832 11.488" stroke-width="1.2" stroke="#00f" stroke-miterlimit="10" fill="none"/><path d="M195.91 167.984l-3.066 9.188" stroke-width="1.2" stroke="#000" stroke-miterlimit="10" fill="none"/><path d="M192.844 177.172l-3.067 9.19" stroke-width="1.2" stroke="#00f" stroke-miterlimit="10" fill="none"/><path d="M202.082 167.488l23.73-4.847" stroke-width="1.2" stroke="#000" stroke-miterlimit="10" fill="none"/><path d="M191.418 184.965h7v11h-7zm0 0" fill="#fff"/><use xlink:href="#b" x="191.418" y="193.628" fill="#00f"/><path d="M225.813 162.64l10.023-22.046M232 162.797l8.02-17.64" stroke-width="1.2" stroke="#000" stroke-miterlimit="10" fill="none"/><path d="M243.68 178.988l-8.934-8.172" stroke-width="1.2" stroke="#cc0" stroke-miterlimit="10" fill="none"/><path d="M234.746 170.816l-8.934-8.175M235.836 140.594l24.066 2.722M259.902 143.316l4.848 23.727M254.805 146.828l3.88 18.984M264.75 167.043l-10.535 5.973" stroke-width="1.2" stroke="#000" stroke-miterlimit="10" fill="none"/><path d="M254.215 173.016l-10.535 5.972" stroke-width="1.2" stroke="#cc0" stroke-miterlimit="10" fill="none"/><path d="M240.68 173.488h6v11h-6zm0 0" fill="#fff"/><use xlink:href="#c" x="240.68" y="182.151" fill="#cc0"/><path d="M146.227 136.09l7.664-22.977M153.89 113.113L137.83 94.988M137.828 94.988l-8.03-9.062" stroke-width="1.2" stroke="#000" stroke-miterlimit="10" fill="none"/><path d="M129.797 85.926l-8.03-9.063" stroke-width="1.2" stroke="#00f" stroke-miterlimit="10" fill="none"/><path d="M140.488 89.398l-6.425-7.25" stroke-width="1.2" stroke="#000" stroke-miterlimit="10" fill="none"/><path d="M134.063 82.148l-6.426-7.25" stroke-width="1.2" stroke="#00f" stroke-miterlimit="10" fill="none"/><path d="M131.957 96.957l-6.426-7.25" stroke-width="1.2" stroke="#000" stroke-miterlimit="10" fill="none"/><path d="M125.53 89.707l-6.425-7.25" stroke-width="1.2" stroke="#00f" stroke-miterlimit="10" fill="none"/><path d="M114.766 71.363h7v11h-7zm0 0" fill="#fff"/><use xlink:href="#b" x="114.766" y="80.026" fill="#00f"/></g></svg>