<svg xmlns="http://www.w3.org/2000/svg" xmlns:xlink="http://www.w3.org/1999/xlink" width="300pt" height="300pt" viewBox="0 0 300 300"><defs><symbol overflow="visible"><path d="M.453 1.594v-7.938h4.5v7.938zm.5-.5h3.5v-6.938h-3.5zm0 0"/></symbol><symbol overflow="visible" id="a"><path d="M3.547-5.953c-.65 0-1.164.242-1.547.72-.375.48-.563 1.13-.563 1.952 0 .835.188 1.49.563 1.967.383.48.898.72 1.547.72.644 0 1.156-.24 1.53-.72.376-.476.564-1.132.564-1.968 0-.822-.187-1.474-.562-1.954-.375-.477-.887-.72-1.53-.72zm0-.734c.914 0 1.648.312 2.203.937.55.617.828 1.438.828 2.47 0 1.042-.277 1.87-.828 2.483-.555.617-1.29.922-2.203.922-.93 0-1.668-.305-2.22-.922C.774-1.41.5-2.237.5-3.28c0-1.033.273-1.853.828-2.47.55-.625 1.29-.938 2.22-.938zm0 0"/></symbol><symbol overflow="visible" id="b"><path d="M.89-6.563H2.08l2.906 5.485v-5.484h.86V0H4.656L1.75-5.484V0H.89zm0 0"/></symbol><symbol overflow="visible" id="c"><path d="M.89-6.563h.876v2.688H5v-2.688h.89V0H5v-3.125H1.766V0H.89zm0 0"/></symbol></defs><g><path fill="#fff" d="M0 0h300v300H0z"/><path d="M35.25 145.7l5.977 6.378" stroke-width="1.2" stroke="#000" stroke-miterlimit="10" fill="none"/><path d="M41.227 152.078l5.972 6.38M47.2 158.457l8.51-1.984" stroke-width="1.2" stroke="#f00" stroke-miterlimit="10" fill="none"/><path d="M55.71 156.473l8.513-1.99" stroke-width="1.2" stroke="#000" stroke-miterlimit="10" fill="none"/><path d="M43.2 152.957h8v11h-8zm0 0" fill="#fff"/><use xlink:href="#a" x="43.199" y="161.62" fill="#f00"/><path d="M64.223 154.484l5.074-16.726M68.668 154.008l4.06-13.383M76.176 167.242l-11.953-12.758M69.297 137.758l17.023-3.973M86.32 133.785l11.95 12.758M84.516 137.875l9.558 10.203M98.27 146.543l-5.07 16.73M98.27 146.543l8.51-1.984" stroke-width="1.2" stroke="#000" stroke-miterlimit="10" fill="none"/><path d="M106.78 144.56l8.513-1.99" stroke-width="1.2" stroke="#00f" stroke-miterlimit="10" fill="none"/><path d="M93.2 163.273l-17.024 3.97M90.563 159.664L76.94 162.84" stroke-width="1.2" stroke="#000" stroke-miterlimit="10" fill="none"/><path d="M115.293 142.57l5.977 6.38" stroke-width="1.2" stroke="#00f" stroke-miterlimit="10" fill="none"/><path d="M121.27 148.95l5.976 6.378" stroke-width="1.2" stroke="#000" stroke-miterlimit="10" fill="none"/><path d="M108.293 137.07h14v11h-14zm0 0" fill="#fff"/><g fill="#00f"><use xlink:href="#b" x="108.293" y="145.733"/><use xlink:href="#c" x="115.271" y="145.733"/></g><path d="M125.277 154.73l-2.535 8.368" stroke-width="1.2" stroke="#000" stroke-miterlimit="10" fill="none"/><path d="M122.742 163.098l-2.54 8.363" stroke-width="1.2" stroke="#f00" stroke-miterlimit="10" fill="none"/><path d="M129.215 155.926l-2.54 8.363" stroke-width="1.2" stroke="#000" stroke-miterlimit="10" fill="none"/><path d="M126.676 164.29l-2.535 8.362" stroke-width="1.2" stroke="#f00" stroke-miterlimit="10" fill="none"/><path d="M127.246 155.328l8.512-1.984" stroke-width="1.2" stroke="#000" stroke-miterlimit="10" fill="none"/><path d="M135.758 153.344l8.512-1.985" stroke-width="1.2" stroke="#00f" stroke-miterlimit="10" fill="none"/><path d="M114.172 166.56h8v11h-8zm0 0" fill="#fff"/><use xlink:href="#a" x="114.172" y="175.222" fill="#f00"/><path d="M144.27 151.36l3.394-8.055" stroke-width="1.2" stroke="#00f" stroke-miterlimit="10" fill="none"/><path d="M147.664 143.305l3.4-8.055M157.488 162.797l-6.61-5.72" stroke-width="1.2" stroke="#000" stroke-miterlimit="10" fill="none"/><path d="M150.88 157.078l-6.61-5.72" stroke-width="1.2" stroke="#00f" stroke-miterlimit="10" fill="none"/><path d="M141.27 145.86h7v11h-7zm0 0" fill="#fff"/><use xlink:href="#b" x="141.27" y="154.522" fill="#00f"/><path d="M151.063 135.25l17.417 1.484" stroke-width="1.2" stroke="#000" stroke-miterlimit="10" fill="none"/><path d="M172.45 153.758l-.966-17.723-6.007 1.403zm0 0"/><path d="M172.45 153.758l-14.962 9.04M172.45 153.758l2.17 17.347M186.387 143.207l-13.938 10.55M174.62 171.105l16.107 6.793M190.727 177.898l13.937-10.554M204.664 167.344l-1.086-8.672" stroke-width="1.2" stroke="#000" stroke-miterlimit="10" fill="none"/><path d="M203.578 158.672L202.492 150M202.492 150l-8.05-3.398" stroke-width="1.2" stroke="#00f" stroke-miterlimit="10" fill="none"/><path d="M194.44 146.602l-8.053-3.395" stroke-width="1.2" stroke="#000" stroke-miterlimit="10" fill="none"/><path d="M202.492 150l6.97-5.277" stroke-width="1.2" stroke="#00f" stroke-miterlimit="10" fill="none"/><path d="M209.46 144.723l6.97-5.274" stroke-width="1.2" stroke="#000" stroke-miterlimit="10" fill="none"/><path d="M199.492 144.5h7v11h-7zm0 0" fill="#fff"/><use xlink:href="#b" x="199.492" y="153.163" fill="#00f"/><path d="M218.473 139.19l-1.086-8.67" stroke-width="1.2" stroke="#000" stroke-miterlimit="10" fill="none"/><path d="M217.387 130.52l-1.086-8.672" stroke-width="1.2" stroke="#f00" stroke-miterlimit="10" fill="none"/><path d="M214.39 139.703l-1.085-8.672" stroke-width="1.2" stroke="#000" stroke-miterlimit="10" fill="none"/><path d="M213.305 131.03l-1.086-8.67" stroke-width="1.2" stroke="#f00" stroke-miterlimit="10" fill="none"/><path d="M216.43 139.45l16.105 6.792" stroke-width="1.2" stroke="#000" stroke-miterlimit="10" fill="none"/><path d="M210.262 116.602h8v11h-8zm0 0" fill="#fff"/><use xlink:href="#a" x="210.262" y="125.265" fill="#f00"/><path d="M232.535 146.242l2.172 17.344M236.836 147.465l1.734 13.875M246.473 135.688l-13.938 10.554M234.707 163.586l16.106 6.793M250.813 170.38l6.968-5.275" stroke-width="1.2" stroke="#000" stroke-miterlimit="10" fill="none"/><path d="M257.78 165.105l6.97-5.277" stroke-width="1.2" stroke="#00f" stroke-miterlimit="10" fill="none"/><path d="M249.723 166.047l5.578-4.223" stroke-width="1.2" stroke="#000" stroke-miterlimit="10" fill="none"/><path d="M255.3 161.824l5.575-4.22M264.75 159.828l-1.086-8.672" stroke-width="1.2" stroke="#00f" stroke-miterlimit="10" fill="none"/><path d="M263.664 151.156l-1.086-8.672" stroke-width="1.2" stroke="#000" stroke-miterlimit="10" fill="none"/><path d="M261.75 154.328h7v11h-7zm0 0" fill="#fff"/><use xlink:href="#b" x="261.75" y="162.991" fill="#00f"/><path d="M262.578 142.484l-16.105-6.797M259.37 145.594l-12.886-5.434" stroke-width="1.2" stroke="#000" stroke-miterlimit="10" fill="none"/></g></svg>