<svg xmlns="http://www.w3.org/2000/svg" xmlns:xlink="http://www.w3.org/1999/xlink" width="300pt" height="300pt" viewBox="0 0 300 300"><defs><symbol overflow="visible"><path d="M.453 1.594v-7.938h4.5v7.938zm.5-.5h3.5v-6.938h-3.5zm0 0"/></symbol><symbol overflow="visible" id="a"><path d="M.89-6.563H2.08l2.906 5.485v-5.484h.86V0H4.656L1.75-5.484V0H.89zm0 0"/></symbol><symbol overflow="visible" id="b"><path d="M.89-6.563h.876v2.688H5v-2.688h.89V0H5v-3.125H1.766V0H.89zm0 0"/></symbol><symbol overflow="visible" id="c"><path d="M4.813-6.344v.86c-.336-.157-.653-.27-.954-.344-.294-.082-.58-.125-.86-.125-.492 0-.867.094-1.125.28-.262.19-.39.454-.39.798 0 .293.085.512.265.656.176.15.504.267.984.36l.547.11c.658.125 1.142.352 1.454.672.32.312.485.734.485 1.265 0 .637-.216 1.122-.642 1.454-.43.325-1.055.485-1.875.485-.312 0-.648-.04-1-.11C1.36-.046 1-.147.625-.296v-.906c.352.2.703.35 1.047.453.35.105.695.156 1.03.156.5 0 .884-.097 1.157-.297.28-.196.42-.485.42-.86 0-.32-.1-.57-.296-.75-.2-.176-.523-.313-.968-.406l-.547-.11C1.81-3.148 1.33-3.36 1.03-3.64.74-3.923.595-4.313.595-4.813c0-.57.203-1.024.61-1.36.405-.344.968-.516 1.687-.516.313 0 .626.032.938.094.32.055.65.137.985.25zm0 0"/></symbol><symbol overflow="visible" id="d"><path d="M3.547-5.953c-.65 0-1.164.242-1.547.72-.375.48-.563 1.13-.563 1.952 0 .835.188 1.49.563 1.967.383.48.898.72 1.547.72.644 0 1.156-.24 1.53-.72.376-.476.564-1.132.564-1.968 0-.822-.187-1.474-.562-1.954-.375-.477-.887-.72-1.53-.72zm0-.734c.914 0 1.648.312 2.203.937.55.617.828 1.438.828 2.47 0 1.042-.277 1.87-.828 2.483-.555.617-1.29.922-2.203.922-.93 0-1.668-.305-2.22-.922C.774-1.41.5-2.237.5-3.28c0-1.033.273-1.853.828-2.47.55-.625 1.29-.938 2.22-.938zm0 0"/></symbol></defs><g><path fill="#fff" d="M0 0h300v300H0z"/><path d="M264.75 101.602l-23.715 9.27M241.035 110.87l-3.832 25.177M234.727 112.488l-3.063 20.14" stroke-width="1.2" stroke="#000" stroke-miterlimit="10" fill="none"/><path d="M221.148 94.97l9.942 7.952" stroke-width="1.2" stroke="#00f" stroke-miterlimit="10" fill="none"/><path d="M231.09 102.922l9.945 7.95M237.203 136.047l-11.855 4.633" stroke-width="1.2" stroke="#000" stroke-miterlimit="10" fill="none"/><path d="M225.348 140.68l-11.86 4.636M213.488 145.316l-9.94-7.953" stroke-width="1.2" stroke="#00f" stroke-miterlimit="10" fill="none"/><path d="M203.547 137.363l-9.945-7.95" stroke-width="1.2" stroke="#000" stroke-miterlimit="10" fill="none"/><path d="M215.242 139.047l-7.953-6.363" stroke-width="1.2" stroke="#00f" stroke-miterlimit="10" fill="none"/><path d="M207.29 132.684l-7.958-6.36" stroke-width="1.2" stroke="#000" stroke-miterlimit="10" fill="none"/><path d="M210.488 139.816h7v11h-7zm0 0" fill="#fff"/><use xlink:href="#a" x="210.488" y="148.479" fill="#00f"/><path d="M193.602 129.414l3.832-25.176M193.602 129.414l-23.715 9.27M197.434 104.238l11.855-4.636" stroke-width="1.2" stroke="#000" stroke-miterlimit="10" fill="none"/><path d="M209.29 99.602l11.858-4.633" stroke-width="1.2" stroke="#00f" stroke-miterlimit="10" fill="none"/><path d="M201.984 108.89l9.49-3.706" stroke-width="1.2" stroke="#000" stroke-miterlimit="10" fill="none"/><path d="M211.473 105.184l9.484-3.707" stroke-width="1.2" stroke="#00f" stroke-miterlimit="10" fill="none"/><path d="M218.148 89.47h7v11h-7zm0 0" fill="#fff"/><use xlink:href="#a" x="218.148" y="98.132" fill="#00f"/><path d="M169.887 138.684l-1.914 12.586" stroke-width="1.2" stroke="#000" stroke-miterlimit="10" fill="none"/><path d="M167.973 151.27l-1.918 12.585M166.055 163.855l-11.856 4.637" stroke-width="1.2" stroke="#00f" stroke-miterlimit="10" fill="none"/><path d="M154.2 168.492l-11.86 4.633" stroke-width="1.2" stroke="#000" stroke-miterlimit="10" fill="none"/><path d="M159.055 158.355h14v11h-14zm0 0" fill="#fff"/><g fill="#00f"><use xlink:href="#a" x="159.055" y="167.019"/><use xlink:href="#b" x="166.032" y="167.019"/></g><path d="M142.34 173.125l-9.942-7.95" stroke-width="1.2" stroke="#000" stroke-miterlimit="10" fill="none"/><path d="M132.398 165.176l-9.945-7.953" stroke-width="1.2" stroke="#00f" stroke-miterlimit="10" fill="none"/><path d="M136.61 176.215l-7.954-6.36" stroke-width="1.2" stroke="#000" stroke-miterlimit="10" fill="none"/><path d="M128.656 169.855l-7.957-6.363" stroke-width="1.2" stroke="#00f" stroke-miterlimit="10" fill="none"/><path d="M138.512 198.3l3.828-25.175" stroke-width="1.2" stroke="#000" stroke-miterlimit="10" fill="none"/><path d="M122.453 157.223l-11.855 4.636" stroke-width="1.2" stroke="#00f" stroke-miterlimit="10" fill="none"/><path d="M110.598 161.86l-11.86 4.632" stroke-width="1.2" stroke="#000" stroke-miterlimit="10" fill="none"/><path d="M119.453 151.723h7v11h-7zm0 0" fill="#fff"/><use xlink:href="#a" x="119.453" y="160.386" fill="#00f"/><path d="M98.738 166.492l-1.914 12.586" stroke-width="1.2" stroke="#000" stroke-miterlimit="10" fill="none"/><path d="M96.824 179.078l-1.914 12.59" stroke-width="1.2" stroke="#00f" stroke-miterlimit="10" fill="none"/><path d="M104.277 169.91l-1.53 10.07" stroke-width="1.2" stroke="#000" stroke-miterlimit="10" fill="none"/><path d="M102.746 179.98l-1.53 10.07" stroke-width="1.2" stroke="#00f" stroke-miterlimit="10" fill="none"/><path d="M98.738 166.492L78.852 150.59" stroke-width="1.2" stroke="#000" stroke-miterlimit="10" fill="none"/><path d="M94.91 191.668l9.942 7.95" stroke-width="1.2" stroke="#00f" stroke-miterlimit="10" fill="none"/><path d="M104.852 199.617l9.94 7.953" stroke-width="1.2" stroke="#000" stroke-miterlimit="10" fill="none"/><path d="M91.91 186.168h7v11h-7zm0 0" fill="#fff"/><use xlink:href="#a" x="91.91" y="194.831" fill="#00f"/><path d="M114.793 207.57l-3.828 25.172M120.336 210.988l-3.066 20.14M138.512 198.3l-23.72 9.27M110.965 232.742l19.887 15.906M130.852 248.648l23.714-9.27M131.043 242.14l18.973-7.417M154.566 239.38l3.832-25.177M158.398 214.203L138.512 198.3M152.668 217.293l-15.91-12.723M78.852 150.59l3.832-25.176M73.313 147.172l3.062-20.14M55.137 159.86l23.715-9.27M82.684 125.414l-19.887-15.902M62.797 109.512l-23.72 9.27M62.605 116.02l-18.972 7.418M62.797 109.512l1.914-12.586" stroke-width="1.2" stroke="#000" stroke-miterlimit="10" fill="none"/><path d="M64.71 96.926l1.915-12.586" stroke-width="1.2" stroke="#00f" stroke-miterlimit="10" fill="none"/><path d="M39.078 118.78l-3.828 25.177M35.25 143.957l19.887 15.902M40.98 140.867l15.91 12.723" stroke-width="1.2" stroke="#000" stroke-miterlimit="10" fill="none"/><path d="M66.625 84.34l11.86-4.637" stroke-width="1.2" stroke="#00f" stroke-miterlimit="10" fill="none"/><path d="M78.484 79.703L90.34 75.07" stroke-width="1.2" stroke="#cc0" stroke-miterlimit="10" fill="none"/><path d="M59.625 78.84h14v11h-14zm0 0" fill="#fff"/><g fill="#00f"><use xlink:href="#a" x="59.625" y="87.503"/><use xlink:href="#b" x="66.603" y="87.503"/></g><path d="M87.55 76.16l4.638 11.856" stroke-width="1.2" stroke="#cc0" stroke-miterlimit="10" fill="none"/><path d="M92.188 88.016l4.632 11.86" stroke-width="1.2" stroke="#f00" stroke-miterlimit="10" fill="none"/><path d="M93.133 73.977l4.633 11.86" stroke-width="1.2" stroke="#cc0" stroke-miterlimit="10" fill="none"/><path d="M97.766 85.836l4.636 11.86" stroke-width="1.2" stroke="#f00" stroke-miterlimit="10" fill="none"/><path d="M93.133 73.977L88.496 62.12" stroke-width="1.2" stroke="#cc0" stroke-miterlimit="10" fill="none"/><path d="M88.496 62.12L83.86 50.263" stroke-width="1.2" stroke="#f00" stroke-miterlimit="10" fill="none"/><path d="M87.55 76.16L82.92 64.3" stroke-width="1.2" stroke="#cc0" stroke-miterlimit="10" fill="none"/><path d="M82.918 64.3L78.28 52.44" stroke-width="1.2" stroke="#f00" stroke-miterlimit="10" fill="none"/><path d="M90.34 75.07l11.86-4.636" stroke-width="1.2" stroke="#cc0" stroke-miterlimit="10" fill="none"/><path d="M102.2 70.434l11.86-4.637" stroke-width="1.2" stroke="#000" stroke-miterlimit="10" fill="none"/><path d="M87.34 69.57h6v11h-6zm0 0" fill="#fff"/><use xlink:href="#c" x="87.34" y="78.233" fill="#cc0"/><path d="M95.613 93.285h8v11h-8zm0 0" fill="#fff"/><use xlink:href="#d" x="95.613" y="101.948" fill="#f00"/><path d="M73.07 45.852h8v11h-8zm0 0" fill="#fff"/><use xlink:href="#d" x="73.07" y="54.515" fill="#f00"/></g></svg>