<svg xmlns="http://www.w3.org/2000/svg" xmlns:xlink="http://www.w3.org/1999/xlink" width="300pt" height="300pt" viewBox="0 0 300 300"><defs><symbol overflow="visible"><path d="M.453 1.594v-7.938h4.5v7.938zm.5-.5h3.5v-6.938h-3.5zm0 0"/></symbol><symbol overflow="visible" id="a"><path d="M4.813-6.344v.86c-.336-.157-.653-.27-.954-.344-.294-.082-.58-.125-.86-.125-.492 0-.867.094-1.125.28-.262.19-.39.454-.39.798 0 .293.085.512.265.656.176.15.504.267.984.36l.547.11c.658.125 1.142.352 1.454.672.32.312.485.734.485 1.265 0 .637-.216 1.122-.642 1.454-.43.325-1.055.485-1.875.485-.312 0-.648-.04-1-.11C1.36-.046 1-.147.625-.296v-.906c.352.2.703.35 1.047.453.35.105.695.156 1.03.156.5 0 .884-.097 1.157-.297.28-.196.42-.485.42-.86 0-.32-.1-.57-.296-.75-.2-.176-.523-.313-.968-.406l-.547-.11C1.81-3.148 1.33-3.36 1.03-3.64.74-3.923.595-4.313.595-4.813c0-.57.203-1.024.61-1.36.405-.344.968-.516 1.687-.516.313 0 .626.032.938.094.32.055.65.137.985.25zm0 0"/></symbol><symbol overflow="visible" id="b"><path d="M3.547-5.953c-.65 0-1.164.242-1.547.72-.375.48-.563 1.13-.563 1.952 0 .835.188 1.49.563 1.967.383.48.898.72 1.547.72.644 0 1.156-.24 1.53-.72.376-.476.564-1.132.564-1.968 0-.822-.187-1.474-.562-1.954-.375-.477-.887-.72-1.53-.72zm0-.734c.914 0 1.648.312 2.203.937.55.617.828 1.438.828 2.47 0 1.042-.277 1.87-.828 2.483-.555.617-1.29.922-2.203.922-.93 0-1.668-.305-2.22-.922C.774-1.41.5-2.237.5-3.28c0-1.033.273-1.853.828-2.47.55-.625 1.29-.938 2.22-.938zm0 0"/></symbol><symbol overflow="visible" id="c"><path d="M.89-6.563H2.08l2.906 5.485v-5.484h.86V0H4.656L1.75-5.484V0H.89zm0 0"/></symbol><symbol overflow="visible" id="d"><path d="M.89-6.563h.876v2.688H5v-2.688h.89V0H5v-3.125H1.766V0H.89zm0 0"/></symbol><symbol overflow="visible" id="e"><path d="M.89-6.563h3.766v.75h-2.89v1.938h2.61v.734h-2.61V0H.89zm0 0"/></symbol></defs><g><path fill="#fff" d="M0 0h300v300H0z"/><path d="M35.25 110.453l8.355 8.12" stroke-width="1.2" stroke="#000" stroke-miterlimit="10" fill="none"/><path d="M43.605 118.574l8.356 8.117M53.93 128.602l8.117-8.356" stroke-width="1.2" stroke="#cc0" stroke-miterlimit="10" fill="none"/><path d="M62.047 120.246l8.12-8.355" stroke-width="1.2" stroke="#f00" stroke-miterlimit="10" fill="none"/><path d="M49.996 124.78l8.12-8.354" stroke-width="1.2" stroke="#cc0" stroke-miterlimit="10" fill="none"/><path d="M58.117 116.426l8.117-8.356" stroke-width="1.2" stroke="#f00" stroke-miterlimit="10" fill="none"/><path d="M49.996 124.78l-8.12 8.357" stroke-width="1.2" stroke="#cc0" stroke-miterlimit="10" fill="none"/><path d="M41.875 133.137l-8.117 8.36" stroke-width="1.2" stroke="#f00" stroke-miterlimit="10" fill="none"/><path d="M53.93 128.602l-8.12 8.36" stroke-width="1.2" stroke="#cc0" stroke-miterlimit="10" fill="none"/><path d="M45.81 136.96l-8.123 8.356" stroke-width="1.2" stroke="#f00" stroke-miterlimit="10" fill="none"/><path d="M51.96 126.69l8.36 8.123" stroke-width="1.2" stroke="#cc0" stroke-miterlimit="10" fill="none"/><path d="M60.32 134.813l8.356 8.12" stroke-width="1.2" stroke="#00f" stroke-miterlimit="10" fill="none"/><path d="M48.96 121.19h6v11h-6zm0 0" fill="#fff"/><use xlink:href="#a" x="48.961" y="129.854" fill="#cc0"/><path d="M64.203 104.48h8v11h-8zm0 0" fill="#fff"/><use xlink:href="#b" x="64.203" y="113.144" fill="#f00"/><path d="M27.723 137.906h8v11h-8zm0 0" fill="#fff"/><use xlink:href="#b" x="27.723" y="146.569" fill="#f00"/><path d="M68.676 142.934l11.207-3.176" stroke-width="1.2" stroke="#00f" stroke-miterlimit="10" fill="none"/><path d="M79.883 139.758l11.21-3.18" stroke-width="1.2" stroke="#000" stroke-miterlimit="10" fill="none"/><path d="M61.676 137.434h14v11h-14zm0 0" fill="#fff"/><g fill="#00f"><use xlink:href="#c" x="61.676" y="146.097"/><use xlink:href="#d" x="68.653" y="146.097"/></g><path d="M91.094 136.578l5.71-22.594M96.98 135.664l4.567-18.074M107.81 152.82l-16.716-16.242M96.805 113.984l22.418-6.35M119.223 107.633l16.715 16.242M117.074 113.188l13.367 12.992M135.938 123.875l-5.71 22.59M130.227 146.465l-22.418 6.355M126.492 141.828l-17.937 5.082M130.227 146.465l16.714 16.242M146.94 162.707l-5.71 22.594M151.684 166.31l-4.567 18.073M169.36 156.352l-22.42 6.355M141.23 185.3l8.356 8.118" stroke-width="1.2" stroke="#000" stroke-miterlimit="10" fill="none"/><path d="M149.586 193.418l8.36 8.12M157.945 201.54l11.207-3.177" stroke-width="1.2" stroke="#00f" stroke-miterlimit="10" fill="none"/><path d="M169.152 198.363l11.21-3.175" stroke-width="1.2" stroke="#000" stroke-miterlimit="10" fill="none"/><path d="M158.69 195.63l8.97-2.544" stroke-width="1.2" stroke="#00f" stroke-miterlimit="10" fill="none"/><path d="M167.66 193.086l8.97-2.54" stroke-width="1.2" stroke="#000" stroke-miterlimit="10" fill="none"/><path d="M154.945 196.04h7v11h-7zm0 0" fill="#fff"/><use xlink:href="#c" x="154.945" y="204.702" fill="#00f"/><path d="M180.363 195.188l2.856-11.297" stroke-width="1.2" stroke="#000" stroke-miterlimit="10" fill="none"/><path d="M183.22 183.89l2.854-11.296M186.074 172.594l-8.36-8.12" stroke-width="1.2" stroke="#00f" stroke-miterlimit="10" fill="none"/><path d="M177.715 164.473l-8.356-8.12" stroke-width="1.2" stroke="#000" stroke-miterlimit="10" fill="none"/><path d="M180.578 174.902l-6.683-6.496" stroke-width="1.2" stroke="#00f" stroke-miterlimit="10" fill="none"/><path d="M173.895 168.406l-6.684-6.496" stroke-width="1.2" stroke="#000" stroke-miterlimit="10" fill="none"/><path d="M183.074 167.094h7v11h-7zm0 0" fill="#fff"/><use xlink:href="#c" x="183.074" y="175.757" fill="#00f"/><path d="M169.36 156.352l2.855-11.297" stroke-width="1.2" stroke="#000" stroke-miterlimit="10" fill="none"/><path d="M172.215 145.055l2.855-11.293M175.07 133.762l11.207-3.18" stroke-width="1.2" stroke="#00f" stroke-miterlimit="10" fill="none"/><path d="M186.277 130.582l11.21-3.176" stroke-width="1.2" stroke="#000" stroke-miterlimit="10" fill="none"/><path d="M168.07 128.262h14v11h-14zm0 0" fill="#fff"/><g fill="#00f"><use xlink:href="#c" x="168.07" y="136.925"/><use xlink:href="#d" x="175.048" y="136.925"/></g><path d="M197.488 127.406l16.71 16.242M202.98 125.098l13.372 12.992M203.195 104.813l-5.707 22.593M214.2 143.648l22.42-6.355M236.62 137.293l5.708-22.594M231.875 133.69l4.566-18.073M242.328 114.7l-16.71-16.24M242.328 114.7l11.21-3.177" stroke-width="1.2" stroke="#000" stroke-miterlimit="10" fill="none"/><path d="M253.54 111.523l11.21-3.175" stroke-width="1.2" stroke="#3cc" stroke-miterlimit="10" fill="none"/><path d="M225.617 98.46l-22.422 6.353M224.87 104.37l-17.936 5.083" stroke-width="1.2" stroke="#000" stroke-miterlimit="10" fill="none"/><path d="M261.75 102.848h6v11h-6zm0 0" fill="#fff"/><use xlink:href="#e" x="261.75" y="111.511" fill="#3cc"/></g></svg>