<svg xmlns="http://www.w3.org/2000/svg" xmlns:xlink="http://www.w3.org/1999/xlink" width="300pt" height="300pt" viewBox="0 0 300 300"><defs><symbol overflow="visible"><path d="M.453 1.594v-7.938h4.5v7.938zm.5-.5h3.5v-6.938h-3.5zm0 0"/></symbol><symbol overflow="visible" id="a"><path d="M.89-6.563H2.08l2.906 5.485v-5.484h.86V0H4.656L1.75-5.484V0H.89zm0 0"/></symbol><symbol overflow="visible" id="b"><path d="M3.547-5.953c-.65 0-1.164.242-1.547.72-.375.48-.563 1.13-.563 1.952 0 .835.188 1.49.563 1.967.383.48.898.72 1.547.72.644 0 1.156-.24 1.53-.72.376-.476.564-1.132.564-1.968 0-.822-.187-1.474-.562-1.954-.375-.477-.887-.72-1.53-.72zm0-.734c.914 0 1.648.312 2.203.937.55.617.828 1.438.828 2.47 0 1.042-.277 1.87-.828 2.483-.555.617-1.29.922-2.203.922-.93 0-1.668-.305-2.22-.922C.774-1.41.5-2.237.5-3.28c0-1.033.273-1.853.828-2.47.55-.625 1.29-.938 2.22-.938zm0 0"/></symbol></defs><g><path fill="#fff" d="M0 0h300v300H0z"/><path d="M35.25 133.79l10.246 4.34" stroke-width="1.2" stroke="#000" stroke-miterlimit="10" fill="none"/><path d="M45.496 138.13l10.242 4.34M55.738 142.47l8.883-6.704" stroke-width="1.2" stroke="#00f" stroke-miterlimit="10" fill="none"/><path d="M64.62 135.766l8.88-6.7M58.465 164.55l-1.363-11.038" stroke-width="1.2" stroke="#000" stroke-miterlimit="10" fill="none"/><path d="M57.102 153.512l-1.364-11.043" stroke-width="1.2" stroke="#00f" stroke-miterlimit="10" fill="none"/><path d="M52.738 136.97h7v11h-7zm0 0" fill="#fff"/><use xlink:href="#a" x="52.738" y="145.632" fill="#00f"/><path d="M73.5 129.066l20.488 8.68M93.988 137.746l1.364 11.043" stroke-width="1.2" stroke="#000" stroke-miterlimit="10" fill="none"/><path d="M95.352 148.79l1.363 11.038M96.715 159.828l-8.88 6.703" stroke-width="1.2" stroke="#00f" stroke-miterlimit="10" fill="none"/><path d="M87.836 166.53l-8.883 6.704" stroke-width="1.2" stroke="#000" stroke-miterlimit="10" fill="none"/><path d="M96.715 159.828l10.246 4.34" stroke-width="1.2" stroke="#00f" stroke-miterlimit="10" fill="none"/><path d="M106.96 164.168l10.243 4.34" stroke-width="1.2" stroke="#000" stroke-miterlimit="10" fill="none"/><path d="M93.715 154.328h7v11h-7zm0 0" fill="#fff"/><use xlink:href="#a" x="93.715" y="162.991" fill="#00f"/><path d="M78.953 173.234l-20.488-8.683M117.203 168.508l1.363 11.043" stroke-width="1.2" stroke="#000" stroke-miterlimit="10" fill="none"/><path d="M118.566 179.55l1.364 11.044" stroke-width="1.2" stroke="#00f" stroke-miterlimit="10" fill="none"/><path d="M122.672 170.078l1.09 8.832" stroke-width="1.2" stroke="#000" stroke-miterlimit="10" fill="none"/><path d="M123.762 178.91l1.093 8.832M134.965 155.105l-8.88 6.704" stroke-width="1.2" stroke="#00f" stroke-miterlimit="10" fill="none"/><path d="M126.086 161.81l-8.883 6.698" stroke-width="1.2" stroke="#000" stroke-miterlimit="10" fill="none"/><path d="M119.93 190.594l10.246 4.34" stroke-width="1.2" stroke="#00f" stroke-miterlimit="10" fill="none"/><path d="M130.176 194.934l10.242 4.34" stroke-width="1.2" stroke="#000" stroke-miterlimit="10" fill="none"/><path d="M116.93 185.094h7v11h-7zm0 0" fill="#fff"/><use xlink:href="#a" x="116.93" y="193.757" fill="#00f"/><path d="M140.418 199.273l17.762-13.402M139.043 193.754l14.207-10.723M158.18 185.87l-2.727-22.085" stroke-width="1.2" stroke="#000" stroke-miterlimit="10" fill="none"/><path d="M178.668 194.55l-10.242-4.34" stroke-width="1.2" stroke="#00f" stroke-miterlimit="10" fill="none"/><path d="M168.426 190.21l-10.246-4.34M155.453 163.785l-10.242-4.34" stroke-width="1.2" stroke="#000" stroke-miterlimit="10" fill="none"/><path d="M145.21 159.445l-10.245-4.34" stroke-width="1.2" stroke="#00f" stroke-miterlimit="10" fill="none"/><path d="M151.363 167.738l-8.195-3.472" stroke-width="1.2" stroke="#000" stroke-miterlimit="10" fill="none"/><path d="M143.168 164.266l-8.195-3.47" stroke-width="1.2" stroke="#00f" stroke-miterlimit="10" fill="none"/><path d="M155.453 163.785l8.883-6.7" stroke-width="1.2" stroke="#000" stroke-miterlimit="10" fill="none"/><path d="M164.336 157.086l8.88-6.703" stroke-width="1.2" stroke="#00f" stroke-miterlimit="10" fill="none"/><path d="M131.965 149.605h7v11h-7zm0 0" fill="#fff"/><use xlink:href="#a" x="131.965" y="158.269" fill="#00f"/><path d="M173.215 150.383l10.246 4.34" stroke-width="1.2" stroke="#00f" stroke-miterlimit="10" fill="none"/><path d="M183.46 154.723l10.243 4.34" stroke-width="1.2" stroke="#000" stroke-miterlimit="10" fill="none"/><path d="M173.215 150.383l-1.363-11.043" stroke-width="1.2" stroke="#00f" stroke-miterlimit="10" fill="none"/><path d="M171.852 139.34l-1.364-11.04" stroke-width="1.2" stroke="#000" stroke-miterlimit="10" fill="none"/><path d="M170.215 144.883h7v11h-7zm0 0" fill="#fff"/><use xlink:href="#a" x="170.215" y="153.546" fill="#00f"/><path d="M195.28 161.152l8.88-6.7" stroke-width="1.2" stroke="#000" stroke-miterlimit="10" fill="none"/><path d="M204.16 154.453l8.883-6.703" stroke-width="1.2" stroke="#f00" stroke-miterlimit="10" fill="none"/><path d="M192.13 156.973l8.878-6.7" stroke-width="1.2" stroke="#000" stroke-miterlimit="10" fill="none"/><path d="M201.008 150.273l8.88-6.703" stroke-width="1.2" stroke="#f00" stroke-miterlimit="10" fill="none"/><path d="M193.703 159.063l2.727 22.085" stroke-width="1.2" stroke="#000" stroke-miterlimit="10" fill="none"/><path d="M207.465 140.16h8v11h-8zm0 0" fill="#fff"/><use xlink:href="#b" x="207.465" y="148.823" fill="#f00"/><path d="M196.43 181.148l-8.88 6.7" stroke-width="1.2" stroke="#000" stroke-miterlimit="10" fill="none"/><path d="M187.55 187.848l-8.882 6.703" stroke-width="1.2" stroke="#00f" stroke-miterlimit="10" fill="none"/><path d="M191.5 178.31l-7.105 5.358" stroke-width="1.2" stroke="#000" stroke-miterlimit="10" fill="none"/><path d="M184.395 183.668l-7.102 5.363" stroke-width="1.2" stroke="#00f" stroke-miterlimit="10" fill="none"/><path d="M196.43 181.148l20.488 8.68" stroke-width="1.2" stroke="#000" stroke-miterlimit="10" fill="none"/><path d="M175.668 189.05h7v11h-7zm0 0" fill="#fff"/><use xlink:href="#a" x="175.668" y="197.714" fill="#00f"/><path d="M216.918 189.828l2.727 22.082M222.387 191.395l2.183 17.667M234.68 176.422l-17.762 13.406M219.645 211.91l20.488 8.68M240.133 220.59l17.762-13.403M238.758 215.07l14.207-10.722M257.895 207.188l-2.727-22.083M255.168 185.105l-20.488-8.683M251.078 189.06l-16.39-6.947M170.488 128.3l17.762-13.405M188.25 114.895l20.488 8.683M192.34 110.94l16.39 6.947M185.523 92.813l2.727 22.082M208.738 123.578l17.762-13.406M226.5 110.172l-2.727-22.082M221.03 108.605l-2.182-17.668M226.5 110.172l10.246 4.34" stroke-width="1.2" stroke="#000" stroke-miterlimit="10" fill="none"/><path d="M236.746 114.512l10.242 4.34" stroke-width="1.2" stroke="#f00" stroke-miterlimit="10" fill="none"/><path d="M223.773 88.09l-20.488-8.68M203.285 79.41l-17.762 13.403M204.664 84.93l-14.21 10.722" stroke-width="1.2" stroke="#000" stroke-miterlimit="10" fill="none"/><path d="M246.988 118.852l8.883-6.7" stroke-width="1.2" stroke="#f00" stroke-miterlimit="10" fill="none"/><path d="M255.87 112.152l8.88-6.703" stroke-width="1.2" stroke="#000" stroke-miterlimit="10" fill="none"/><path d="M242.988 113.352h8v11h-8zm0 0" fill="#fff"/><use xlink:href="#b" x="242.988" y="122.015" fill="#f00"/></g></svg>