<svg xmlns="http://www.w3.org/2000/svg" xmlns:xlink="http://www.w3.org/1999/xlink" width="300pt" height="300pt" viewBox="0 0 300 300"><defs><symbol overflow="visible"><path d="M.453 1.594v-7.938h4.5v7.938zm.5-.5h3.5v-6.938h-3.5zm0 0"/></symbol><symbol overflow="visible" id="a"><path d="M3.547-5.953c-.65 0-1.164.242-1.547.72-.375.48-.563 1.13-.563 1.952 0 .835.188 1.49.563 1.967.383.48.898.72 1.547.72.644 0 1.156-.24 1.53-.72.376-.476.564-1.132.564-1.968 0-.822-.187-1.474-.562-1.954-.375-.477-.887-.72-1.53-.72zm0-.734c.914 0 1.648.312 2.203.937.55.617.828 1.438.828 2.47 0 1.042-.277 1.87-.828 2.483-.555.617-1.29.922-2.203.922-.93 0-1.668-.305-2.22-.922C.774-1.41.5-2.237.5-3.28c0-1.033.273-1.853.828-2.47.55-.625 1.29-.938 2.22-.938zm0 0"/></symbol><symbol overflow="visible" id="b"><path d="M.89-6.563H2.08l2.906 5.485v-5.484h.86V0H4.656L1.75-5.484V0H.89zm0 0"/></symbol><symbol overflow="visible" id="c"><path d="M.89-6.563h.876v2.688H5v-2.688h.89V0H5v-3.125H1.766V0H.89zm0 0"/></symbol></defs><g><path fill="#fff" d="M0 0h300v300H0z"/><path d="M35.25 145.563l5.793 6.878" stroke-width="1.2" stroke="#000" stroke-miterlimit="10" fill="none"/><path d="M41.043 152.44l5.793 6.876M46.836 159.316l8.852-1.582" stroke-width="1.2" stroke="#f00" stroke-miterlimit="10" fill="none"/><path d="M55.688 157.734l8.85-1.578" stroke-width="1.2" stroke="#000" stroke-miterlimit="10" fill="none"/><path d="M42.836 153.816h8v11h-8zm0 0" fill="#fff"/><use xlink:href="#a" x="42.836" y="162.479" fill="#f00"/><path d="M64.54 156.156l6.116-16.91M69.133 155.906l4.89-13.53M76.13 169.91l-11.59-13.754M70.656 139.246l17.703-3.16M88.36 136.086l11.59 13.754M86.28 140.188l9.275 11.003M99.95 149.84l-6.118 16.91M93.832 166.75l-17.703 3.16M91.316 162.898l-14.16 2.528M93.832 166.75l5.793 6.875" stroke-width="1.2" stroke="#000" stroke-miterlimit="10" fill="none"/><path d="M99.625 173.625l5.793 6.875M105.418 180.5l8.852-1.578" stroke-width="1.2" stroke="#00f" stroke-miterlimit="10" fill="none"/><path d="M114.27 178.922l8.85-1.578" stroke-width="1.2" stroke="#000" stroke-miterlimit="10" fill="none"/><path d="M98.418 175h14v11h-14zm0 0" fill="#fff"/><g fill="#00f"><use xlink:href="#b" x="98.418" y="183.663"/><use xlink:href="#c" x="105.396" y="183.663"/></g><path d="M123.12 177.344l5.798 6.875" stroke-width="1.2" stroke="#000" stroke-miterlimit="10" fill="none"/><path d="M128.918 184.22l5.793 6.874" stroke-width="1.2" stroke="#00f" stroke-miterlimit="10" fill="none"/><path d="M127.516 175.992l4.636 5.5" stroke-width="1.2" stroke="#000" stroke-miterlimit="10" fill="none"/><path d="M132.152 181.492l4.637 5.5M129.238 160.43l-3.058 8.457" stroke-width="1.2" stroke="#00f" stroke-miterlimit="10" fill="none"/><path d="M126.18 168.887l-3.06 8.457" stroke-width="1.2" stroke="#000" stroke-miterlimit="10" fill="none"/><path d="M134.71 191.094l8.852-1.578" stroke-width="1.2" stroke="#00f" stroke-miterlimit="10" fill="none"/><path d="M143.563 189.516l8.85-1.582" stroke-width="1.2" stroke="#000" stroke-miterlimit="10" fill="none"/><path d="M131.71 185.594h7v11h-7zm0 0" fill="#fff"/><use xlink:href="#b" x="131.711" y="194.257" fill="#00f"/><path d="M152.414 187.934l6.117-16.91M149.047 184.805l4.89-13.528M158.53 171.023l-11.59-13.75" stroke-width="1.2" stroke="#000" stroke-miterlimit="10" fill="none"/><path d="M176.234 167.863l-8.85 1.582" stroke-width="1.2" stroke="#00f" stroke-miterlimit="10" fill="none"/><path d="M167.383 169.445l-8.852 1.578M146.94 157.273l-8.85 1.58" stroke-width="1.2" stroke="#000" stroke-miterlimit="10" fill="none"/><path d="M138.09 158.852l-8.852 1.578" stroke-width="1.2" stroke="#00f" stroke-miterlimit="10" fill="none"/><path d="M145.914 161.754l-7.082 1.262" stroke-width="1.2" stroke="#000" stroke-miterlimit="10" fill="none"/><path d="M138.832 163.016l-7.078 1.265" stroke-width="1.2" stroke="#00f" stroke-miterlimit="10" fill="none"/><path d="M146.94 157.273l3.06-8.457" stroke-width="1.2" stroke="#000" stroke-miterlimit="10" fill="none"/><path d="M150 148.816l3.06-8.457" stroke-width="1.2" stroke="#00f" stroke-miterlimit="10" fill="none"/><path d="M126.238 154.93h7v11h-7zm0 0" fill="#fff"/><use xlink:href="#b" x="126.238" y="163.593" fill="#00f"/><path d="M153.06 140.36l8.85-1.58" stroke-width="1.2" stroke="#00f" stroke-miterlimit="10" fill="none"/><path d="M161.91 138.78l8.852-1.577" stroke-width="1.2" stroke="#000" stroke-miterlimit="10" fill="none"/><path d="M153.06 140.36l-5.794-6.876" stroke-width="1.2" stroke="#00f" stroke-miterlimit="10" fill="none"/><path d="M147.266 133.484l-5.797-6.875" stroke-width="1.2" stroke="#000" stroke-miterlimit="10" fill="none"/><path d="M150.06 134.86h7v11h-7zm0 0" fill="#fff"/><use xlink:href="#b" x="150.059" y="143.522" fill="#00f"/><path d="M172.75 137.922l3.06-8.457" stroke-width="1.2" stroke="#000" stroke-miterlimit="10" fill="none"/><path d="M175.81 129.465l3.057-8.453" stroke-width="1.2" stroke="#f00" stroke-miterlimit="10" fill="none"/><path d="M168.773 136.48l3.055-8.453" stroke-width="1.2" stroke="#000" stroke-miterlimit="10" fill="none"/><path d="M171.828 128.027l3.06-8.457" stroke-width="1.2" stroke="#f00" stroke-miterlimit="10" fill="none"/><path d="M170.762 137.203l11.586 13.75" stroke-width="1.2" stroke="#000" stroke-miterlimit="10" fill="none"/><path d="M172.88 114.79h8v11h-8zm0 0" fill="#fff"/><use xlink:href="#a" x="172.879" y="123.452" fill="#f00"/><path d="M182.348 150.953l-3.06 8.457" stroke-width="1.2" stroke="#000" stroke-miterlimit="10" fill="none"/><path d="M179.29 159.41l-3.056 8.453" stroke-width="1.2" stroke="#00f" stroke-miterlimit="10" fill="none"/><path d="M177.758 151.207l-2.446 6.762" stroke-width="1.2" stroke="#000" stroke-miterlimit="10" fill="none"/><path d="M175.313 157.97l-2.446 6.764" stroke-width="1.2" stroke="#00f" stroke-miterlimit="10" fill="none"/><path d="M182.348 150.953l17.703-3.16" stroke-width="1.2" stroke="#000" stroke-miterlimit="10" fill="none"/><path d="M173.234 162.363h7v11h-7zm0 0" fill="#fff"/><use xlink:href="#b" x="173.234" y="171.026" fill="#00f"/><path d="M200.05 147.793l11.59 13.754M211.64 161.547l17.704-3.16M229.344 158.387l11.586 13.754M233.738 157.035l9.27 11.004M235.46 141.477l-6.116 16.91M240.93 172.14l17.703-3.16M258.633 168.98l6.117-16.91M255.266 165.852l4.894-13.532M264.75 152.07l-11.586-13.754M253.164 138.316l-17.703 3.16M252.137 142.8l-14.164 2.528M141.47 126.61l-16.91-6.118M138.313 108.906l3.156 17.703M124.56 120.492l13.752-11.586" stroke-width="1.2" stroke="#000" stroke-miterlimit="10" fill="none"/></g></svg>