<svg xmlns="http://www.w3.org/2000/svg" xmlns:xlink="http://www.w3.org/1999/xlink" width="300pt" height="300pt" viewBox="0 0 300 300"><defs><symbol overflow="visible"><path d="M.547 1.938V-7.75h5.5v9.688zm.625-.61h4.266v-8.47H1.171zm0 0"/></symbol><symbol overflow="visible" id="a"><path d="M1.078-8.016h1.47l3.546 6.704v-6.704h1.062V0H5.688L2.124-6.703V0H1.078zm0 0"/></symbol><symbol overflow="visible" id="b"><path d="M4.328-7.28c-.78 0-1.406.296-1.875.89-.46.585-.687 1.382-.687 2.39 0 1.012.226 1.813.687 2.406.47.586 1.094.875 1.875.875.79 0 1.414-.288 1.875-.874.457-.593.688-1.394.688-2.406 0-1.008-.23-1.805-.687-2.39-.46-.594-1.086-.89-1.875-.89zm0-.892c1.125 0 2.024.383 2.703 1.14C7.708-6.28 8.048-5.27 8.048-4c0 1.262-.34 2.273-1.016 3.03C6.353-.22 5.454.157 4.33.157S2.3-.22 1.625-.97c-.668-.75-1-1.757-1-3.03 0-1.27.332-2.28 1-3.03.676-.76 1.578-1.142 2.703-1.142zm0 0"/></symbol></defs><g><path fill="#fff" d="M0 0h300v300H0z"/><path d="M35.25 154.63l20.063-17.216M55.313 137.414l25.718 6.113M59.32 131.977l20.578 4.886" stroke-width="1.2" stroke="#000" stroke-miterlimit="10" fill="none"/><path d="M53.176 111.066l1.07 13.176" stroke-width="1.2" stroke="#f00" stroke-miterlimit="10" fill="none"/><path d="M54.246 124.242l1.066 13.172M81.03 143.527l13.76-22.57M81.03 143.527l10.173 24.4M94.79 120.957l-8.606-10.03" stroke-width="1.2" stroke="#000" stroke-miterlimit="10" fill="none"/><path d="M86.184 110.926l-8.606-10.03" stroke-width="1.2" stroke="#00f" stroke-miterlimit="10" fill="none"/><path d="M88.348 123l-6.883-8.023" stroke-width="1.2" stroke="#000" stroke-miterlimit="10" fill="none"/><path d="M81.465 114.977l-6.887-8.028" stroke-width="1.2" stroke="#00f" stroke-miterlimit="10" fill="none"/><path d="M94.79 120.957l26.35-2.137" stroke-width="1.2" stroke="#000" stroke-miterlimit="10" fill="none"/><path d="M77.578 100.895l-12.203 5.085" stroke-width="1.2" stroke="#00f" stroke-miterlimit="10" fill="none"/><path d="M65.375 105.98l-12.2 5.086" stroke-width="1.2" stroke="#f00" stroke-miterlimit="10" fill="none"/><path d="M73.578 94.395h8v13h-8zm0 0" fill="#fff"/><use xlink:href="#a" x="73.578" y="104.296" fill="#00f"/><path d="M49.176 104.566h9v13h-9zm0 0" fill="#fff"/><use xlink:href="#b" x="49.176" y="114.468" fill="#f00"/><path d="M88.73 166.04l-8.02 10.503" stroke-width="1.2" stroke="#000" stroke-miterlimit="10" fill="none"/><path d="M80.71 176.543l-8.022 10.504" stroke-width="1.2" stroke="#f00" stroke-miterlimit="10" fill="none"/><path d="M93.676 169.813l-8.024 10.507" stroke-width="1.2" stroke="#000" stroke-miterlimit="10" fill="none"/><path d="M85.652 180.32l-8.023 10.504" stroke-width="1.2" stroke="#f00" stroke-miterlimit="10" fill="none"/><path d="M91.203 167.926l13.11 1.695" stroke-width="1.2" stroke="#000" stroke-miterlimit="10" fill="none"/><path d="M104.313 169.62l13.105 1.696" stroke-width="1.2" stroke="#00f" stroke-miterlimit="10" fill="none"/><path d="M66.16 182.434h9v13h-9zm0 0" fill="#fff"/><use xlink:href="#b" x="66.16" y="192.335" fill="#f00"/><path d="M117.418 171.316l5.086 12.2" stroke-width="1.2" stroke="#00f" stroke-miterlimit="10" fill="none"/><path d="M122.504 183.516l5.09 12.2M133.465 150.31l-8.024 10.502" stroke-width="1.2" stroke="#000" stroke-miterlimit="10" fill="none"/><path d="M125.44 160.813l-8.022 10.503" stroke-width="1.2" stroke="#00f" stroke-miterlimit="10" fill="none"/><path d="M113.418 164.816h8v13h-8zm0 0" fill="#fff"/><use xlink:href="#a" x="113.418" y="174.718" fill="#00f"/><path d="M127.594 195.715l26.215 3.39M153.81 199.105l16.042-21.007" stroke-width="1.2" stroke="#000" stroke-miterlimit="10" fill="none"/><path d="M159.68 153.7m.656 2.925l.96-.402m-.304 3.328l1.926-.8m-1.27 3.73l2.887-1.203m-2.23 4.13l3.847-1.606m-3.195 4.536l4.813-2.008m-4.157 4.934l5.778-2.407m-5.12 5.336l6.738-2.807m-6.082 5.734l7.7-3.21m-7.08 5.984l8.614-3.59" stroke="#000" stroke-miterlimit="10" fill="none"/><path d="M159.68 153.7l-26.215-3.39M159.68 153.7l-7.567-25.333M186.11 154.328l-26.43-.63M152.113 128.367l21.754-15.023M173.867 113.344l10.504 8.023" stroke-width="1.2" stroke="#000" stroke-miterlimit="10" fill="none"/><path d="M184.37 121.367l10.505 8.024M194.875 129.39l-4.383 12.47" stroke-width="1.2" stroke="#00f" stroke-miterlimit="10" fill="none"/><path d="M190.492 141.86l-4.383 12.468" stroke-width="1.2" stroke="#000" stroke-miterlimit="10" fill="none"/><path d="M194.875 129.39l12.664-3.785" stroke-width="1.2" stroke="#00f" stroke-miterlimit="10" fill="none"/><path d="M207.54 125.605l12.663-3.78" stroke-width="1.2" stroke="#000" stroke-miterlimit="10" fill="none"/><path d="M190.875 122.89h8v13h-8zm0 0" fill="#fff"/><use xlink:href="#a" x="190.875" y="132.792" fill="#00f"/><path d="M220.203 121.824l19.22 18.153M239.422 139.977l25.328-7.567M239.422 139.977l-6.113 25.718" stroke-width="1.2" stroke="#000" stroke-miterlimit="10" fill="none"/></g></svg>