<svg xmlns="http://www.w3.org/2000/svg" xmlns:xlink="http://www.w3.org/1999/xlink" width="300pt" height="300pt" viewBox="0 0 300 300"><defs><symbol overflow="visible"><path d="M.547 1.938V-7.75h5.5v9.688zm.625-.61h4.266v-8.47H1.171zm0 0"/></symbol><symbol overflow="visible" id="a"><path d="M4.328-7.28c-.78 0-1.406.296-1.875.89-.46.585-.687 1.382-.687 2.39 0 1.012.226 1.813.687 2.406.47.586 1.094.875 1.875.875.79 0 1.414-.288 1.875-.874.457-.593.688-1.394.688-2.406 0-1.008-.23-1.805-.687-2.39-.46-.594-1.086-.89-1.875-.89zm0-.892c1.125 0 2.024.383 2.703 1.14C7.708-6.28 8.048-5.27 8.048-4c0 1.262-.34 2.273-1.016 3.03C6.353-.22 5.454.157 4.33.157S2.3-.22 1.625-.97c-.668-.75-1-1.757-1-3.03 0-1.27.332-2.28 1-3.03.676-.76 1.578-1.142 2.703-1.142zm0 0"/></symbol><symbol overflow="visible" id="b"><path d="M1.078-8.016h1.47l3.546 6.704v-6.704h1.062V0H5.688L2.124-6.703V0H1.078zm0 0"/></symbol></defs><g><path fill="#fff" d="M0 0h300v300H0z"/><path d="M264.75 247.867l-.348-13.09" stroke-width="1.2" stroke="#000" stroke-miterlimit="10" fill="none"/><path d="M264.402 234.777l-.35-13.09M264.05 221.688l-11.507-6.243" stroke-width="1.2" stroke="#f00" stroke-miterlimit="10" fill="none"/><path d="M252.543 215.445l-11.512-6.242" stroke-width="1.2" stroke="#000" stroke-miterlimit="10" fill="none"/><path d="M260.05 215.188h9v13h-9zm0 0" fill="#fff"/><use xlink:href="#a" x="260.051" y="225.089" fill="#f00"/><path d="M241.03 209.203l-22.32 13.692M235.578 205.32l-17.855 10.953M240.336 183.023l.695 26.18M218.71 222.895l-23.02-12.485M195.69 210.41l-.698-26.176M201.78 207.63l-.557-20.942M194.992 184.234l22.324-13.695M217.316 170.54l23.02 12.483M216.68 177.203l18.414 9.988M217.316 170.54l-.7-26.177M216.617 144.363l-11.512-6.242" stroke-width="1.2" stroke="#000" stroke-miterlimit="10" fill="none"/><path d="M205.105 138.12l-11.507-6.24M193.598 131.88l-.348-13.09" stroke-width="1.2" stroke="#00f" stroke-miterlimit="10" fill="none"/><path d="M193.25 118.79l-.352-13.09M171.277 145.57l11.16-6.847" stroke-width="1.2" stroke="#000" stroke-miterlimit="10" fill="none"/><path d="M182.438 138.723l11.16-6.844" stroke-width="1.2" stroke="#00f" stroke-miterlimit="10" fill="none"/><path d="M189.598 125.38h8v13h-8zm0 0" fill="#fff"/><use xlink:href="#b" x="189.598" y="135.28" fill="#00f"/><path d="M192.898 105.7l11.165-6.848" stroke-width="1.2" stroke="#000" stroke-miterlimit="10" fill="none"/><path d="M204.063 98.852l11.16-6.848" stroke-width="1.2" stroke="#00f" stroke-miterlimit="10" fill="none"/><path d="M191.91 99.078l8.93-5.476" stroke-width="1.2" stroke="#000" stroke-miterlimit="10" fill="none"/><path d="M200.84 93.602l8.93-5.48" stroke-width="1.2" stroke="#00f" stroke-miterlimit="10" fill="none"/><path d="M169.88 93.215l23.018 12.484" stroke-width="1.2" stroke="#000" stroke-miterlimit="10" fill="none"/><path d="M215.223 92.004l-.352-13.086" stroke-width="1.2" stroke="#00f" stroke-miterlimit="10" fill="none"/><path d="M214.87 78.918l-.347-13.09" stroke-width="1.2" stroke="#000" stroke-miterlimit="10" fill="none"/><path d="M211.223 85.504h8v13h-8zm0 0" fill="#fff"/><use xlink:href="#b" x="211.223" y="95.405" fill="#00f"/><path d="M214.523 65.828l-11.507-6.242" stroke-width="1.2" stroke="#000" stroke-miterlimit="10" fill="none"/><path d="M203.016 59.586l-11.512-6.242" stroke-width="1.2" stroke="#00f" stroke-miterlimit="10" fill="none"/><path d="M209.285 69.996L200.078 65" stroke-width="1.2" stroke="#000" stroke-miterlimit="10" fill="none"/><path d="M200.078 65l-9.21-4.992" stroke-width="1.2" stroke="#00f" stroke-miterlimit="10" fill="none"/><path d="M214.523 65.828l11.16-6.848" stroke-width="1.2" stroke="#000" stroke-miterlimit="10" fill="none"/><path d="M225.684 58.98l11.164-6.847" stroke-width="1.2" stroke="#f00" stroke-miterlimit="10" fill="none"/><path d="M191.504 53.344l-11.16 6.843" stroke-width="1.2" stroke="#00f" stroke-miterlimit="10" fill="none"/><path d="M180.344 60.188l-11.16 6.847" stroke-width="1.2" stroke="#000" stroke-miterlimit="10" fill="none"/><path d="M187.504 46.844h8v13h-8zm0 0" fill="#fff"/><use xlink:href="#b" x="187.504" y="56.745" fill="#00f"/><path d="M169.184 67.035l.695 26.18M175.41 69.488l.56 20.946M169.88 93.215l-11.16 6.847" stroke-width="1.2" stroke="#000" stroke-miterlimit="10" fill="none"/><path d="M158.72 100.063l-11.16 6.843M147.56 106.906l.346 13.09" stroke-width="1.2" stroke="#00f" stroke-miterlimit="10" fill="none"/><path d="M147.906 119.996l.348 13.09" stroke-width="1.2" stroke="#000" stroke-miterlimit="10" fill="none"/><path d="M153.79 109.36l.276 10.472" stroke-width="1.2" stroke="#00f" stroke-miterlimit="10" fill="none"/><path d="M154.066 119.832l.278 10.473" stroke-width="1.2" stroke="#000" stroke-miterlimit="10" fill="none"/><path d="M143.56 100.406h8v13h-8zm0 0" fill="#fff"/><use xlink:href="#b" x="143.559" y="110.308" fill="#00f"/><path d="M148.254 133.086l23.023 12.484M148.254 133.086l-22.32 13.69M168.195 145.652l.348 13.09" stroke-width="1.2" stroke="#000" stroke-miterlimit="10" fill="none"/><path d="M168.543 158.742l.352 13.09" stroke-width="1.2" stroke="#f00" stroke-miterlimit="10" fill="none"/><path d="M174.355 145.488l.348 13.09" stroke-width="1.2" stroke="#000" stroke-miterlimit="10" fill="none"/><path d="M174.703 158.578l.352 13.09" stroke-width="1.2" stroke="#f00" stroke-miterlimit="10" fill="none"/><path d="M167.973 165.25h9v13h-9zm0 0" fill="#fff"/><use xlink:href="#a" x="167.973" y="175.151" fill="#f00"/><path d="M125.934 146.777l-23.02-12.484M102.914 134.293l-22.32 13.695M80.594 147.988L57.57 135.504M75.352 152.156l-18.415-9.988M81.29 174.164l-.696-26.176M57.57 135.504l-22.32 13.69M35.25 149.195l.7 26.18M41.48 151.648l.56 20.946M35.95 175.375l23.02 12.484M58.97 187.86l22.32-13.696M57.977 181.238l17.86-10.957" stroke-width="1.2" stroke="#000" stroke-miterlimit="10" fill="none"/><path d="M236.848 52.133l11.507 6.242" stroke-width="1.2" stroke="#f00" stroke-miterlimit="10" fill="none"/><path d="M248.355 58.375l11.512 6.242" stroke-width="1.2" stroke="#000" stroke-miterlimit="10" fill="none"/><path d="M232.848 45.633h9v13h-9zm0 0" fill="#fff"/><use xlink:href="#a" x="232.848" y="55.534" fill="#f00"/></g></svg>