<svg xmlns="http://www.w3.org/2000/svg" xmlns:xlink="http://www.w3.org/1999/xlink" width="300pt" height="300pt" viewBox="0 0 300 300"><defs><symbol overflow="visible"><path d="M.453 1.594v-7.938h4.5v7.938zm.5-.5h3.5v-6.938h-3.5zm0 0"/></symbol><symbol overflow="visible" id="a"><path d="M.89-6.563H2.08l2.906 5.485v-5.484h.86V0H4.656L1.75-5.484V0H.89zm0 0"/></symbol><symbol overflow="visible" id="b"><path d="M3.547-5.953c-.65 0-1.164.242-1.547.72-.375.48-.563 1.13-.563 1.952 0 .835.188 1.49.563 1.967.383.48.898.72 1.547.72.644 0 1.156-.24 1.53-.72.376-.476.564-1.132.564-1.968 0-.822-.187-1.474-.562-1.954-.375-.477-.887-.72-1.53-.72zm0-.734c.914 0 1.648.312 2.203.937.55.617.828 1.438.828 2.47 0 1.042-.277 1.87-.828 2.483-.555.617-1.29.922-2.203.922-.93 0-1.668-.305-2.22-.922C.774-1.41.5-2.237.5-3.28c0-1.033.273-1.853.828-2.47.55-.625 1.29-.938 2.22-.938zm0 0"/></symbol></defs><g><path fill="#fff" d="M0 0h300v300H0z"/><path d="M148.95 186.367l-22.817 4.242M156.684 164.484l-7.735 21.883M126.133 190.61l-7.543-8.817" stroke-width="1.2" stroke="#000" stroke-miterlimit="10" fill="none"/><path d="M118.59 181.793l-7.54-8.82M111.05 172.973l3.868-10.942" stroke-width="1.2" stroke="#00f" stroke-miterlimit="10" fill="none"/><path d="M114.918 162.03l3.867-10.94" stroke-width="1.2" stroke="#000" stroke-miterlimit="10" fill="none"/><path d="M111.05 172.973l-11.41 2.12" stroke-width="1.2" stroke="#00f" stroke-miterlimit="10" fill="none"/><path d="M99.64 175.094l-11.406 2.12" stroke-width="1.2" stroke="#000" stroke-miterlimit="10" fill="none"/><path d="M108.05 167.473h7v11h-7zm0 0" fill="#fff"/><use xlink:href="#a" x="108.051" y="176.136" fill="#00f"/><path d="M118.785 151.09l22.817-4.242M141.602 146.848l15.082 17.636M156.684 164.484l19.132 13.137M169.816 145.352l-13.132 19.132M175.816 177.62l6.567-9.565" stroke-width="1.2" stroke="#000" stroke-miterlimit="10" fill="none"/><path d="M182.383 168.055l6.566-9.57M188.95 158.484l-9.567-6.566" stroke-width="1.2" stroke="#00f" stroke-miterlimit="10" fill="none"/><path d="M179.383 151.918l-9.567-6.566" stroke-width="1.2" stroke="#000" stroke-miterlimit="10" fill="none"/><path d="M188.95 158.484l11.41-2.12" stroke-width="1.2" stroke="#00f" stroke-miterlimit="10" fill="none"/><path d="M200.36 156.363l11.406-2.12" stroke-width="1.2" stroke="#000" stroke-miterlimit="10" fill="none"/><path d="M185.95 152.984h7v11h-7zm0 0" fill="#fff"/><use xlink:href="#a" x="185.949" y="161.647" fill="#00f"/><path d="M211.766 154.242l15.086 17.64M211.766 154.242l7.734-21.88M226.852 171.883l-7.735 21.88M231.227 175.89l-6.188 17.505M249.668 167.637l-22.816 4.246M219.117 193.762l15.082 17.64M234.2 211.402l22.816-4.242M235.484 205.61l18.25-3.395M257.016 207.16l7.734-21.883M264.75 185.277l-15.082-17.64M259.09 187.063l-12.067-14.11M219.5 132.363l22.816-4.246M220.785 126.57l18.254-3.394M204.418 114.723l15.082 17.64M242.316 128.117l7.735-21.88M250.05 106.238l-15.08-17.64M244.395 108.023L232.328 93.91M234.97 88.598L212.15 92.84M212.152 92.84l-7.734 21.883M216.527 96.848l-6.187 17.507M85.66 176.305l-3.867 10.94" stroke-width="1.2" stroke="#000" stroke-miterlimit="10" fill="none"/><path d="M81.793 187.246l-3.867 10.94" stroke-width="1.2" stroke="#f00" stroke-miterlimit="10" fill="none"/><path d="M90.81 178.125l-3.87 10.94" stroke-width="1.2" stroke="#000" stroke-miterlimit="10" fill="none"/><path d="M86.94 189.066l-3.866 10.942" stroke-width="1.2" stroke="#f00" stroke-miterlimit="10" fill="none"/><path d="M88.234 177.215l-15.086-17.637" stroke-width="1.2" stroke="#000" stroke-miterlimit="10" fill="none"/><path d="M72.5 193.598h8v11h-8zm0 0" fill="#fff"/><use xlink:href="#b" x="72.5" y="202.261" fill="#f00"/><path d="M73.148 159.578l3.868-10.94" stroke-width="1.2" stroke="#000" stroke-miterlimit="10" fill="none"/><path d="M77.016 148.637l3.867-10.942" stroke-width="1.2" stroke="#00f" stroke-miterlimit="10" fill="none"/><path d="M68.773 155.57l3.094-8.754" stroke-width="1.2" stroke="#000" stroke-miterlimit="10" fill="none"/><path d="M71.867 146.816l3.094-8.754" stroke-width="1.2" stroke="#00f" stroke-miterlimit="10" fill="none"/><path d="M50.332 163.82l22.816-4.242" stroke-width="1.2" stroke="#000" stroke-miterlimit="10" fill="none"/><path d="M80.883 137.695l-7.54-8.82" stroke-width="1.2" stroke="#00f" stroke-miterlimit="10" fill="none"/><path d="M73.344 128.875l-7.543-8.82" stroke-width="1.2" stroke="#000" stroke-miterlimit="10" fill="none"/><path d="M77.883 132.195h7v11h-7zm0 0" fill="#fff"/><use xlink:href="#a" x="77.883" y="140.858" fill="#00f"/><path d="M65.8 120.055L42.985 124.3M64.516 125.848l-18.25 3.394M42.984 124.3l-3.867 10.938" stroke-width="1.2" stroke="#000" stroke-miterlimit="10" fill="none"/><path d="M39.117 135.238L35.25 146.18M35.25 146.18l7.543 8.82" stroke-width="1.2" stroke="#00f" stroke-miterlimit="10" fill="none"/><path d="M42.793 155l7.54 8.82" stroke-width="1.2" stroke="#000" stroke-miterlimit="10" fill="none"/><path d="M40.91 144.395l6.03 7.054" stroke-width="1.2" stroke="#00f" stroke-miterlimit="10" fill="none"/><path d="M46.94 151.45l6.037 7.058" stroke-width="1.2" stroke="#000" stroke-miterlimit="10" fill="none"/><path d="M32.25 140.68h7v11h-7zm0 0" fill="#fff"/><use xlink:href="#a" x="32.25" y="149.343" fill="#00f"/></g></svg>