<svg xmlns="http://www.w3.org/2000/svg" xmlns:xlink="http://www.w3.org/1999/xlink" width="300pt" height="300pt" viewBox="0 0 300 300"><defs><symbol overflow="visible"><path d="M.453 1.594v-7.938h4.5v7.938zm.5-.5h3.5v-6.938h-3.5zm0 0"/></symbol><symbol overflow="visible" id="a"><path d="M.89-6.563H2.08l2.906 5.485v-5.484h.86V0H4.656L1.75-5.484V0H.89zm0 0"/></symbol><symbol overflow="visible" id="b"><path d="M3.547-5.953c-.65 0-1.164.242-1.547.72-.375.48-.563 1.13-.563 1.952 0 .835.188 1.49.563 1.967.383.48.898.72 1.547.72.644 0 1.156-.24 1.53-.72.376-.476.564-1.132.564-1.968 0-.822-.187-1.474-.562-1.954-.375-.477-.887-.72-1.53-.72zm0-.734c.914 0 1.648.312 2.203.937.55.617.828 1.438.828 2.47 0 1.042-.277 1.87-.828 2.483-.555.617-1.29.922-2.203.922-.93 0-1.668-.305-2.22-.922C.774-1.41.5-2.237.5-3.28c0-1.033.273-1.853.828-2.47.55-.625 1.29-.938 2.22-.938zm0 0"/></symbol><symbol overflow="visible" id="c"><path d="M.89-6.563h.876v2.688H5v-2.688h.89V0H5v-3.125H1.766V0H.89zm0 0"/></symbol></defs><g><path fill="#fff" d="M0 0h300v300H0z"/><path d="M133.688 182.113l-20.106 3.067M141.09 163.172l-7.403 18.94M113.582 185.18l-6.352-7.942" stroke-width="1.2" stroke="#000" stroke-miterlimit="10" fill="none"/><path d="M107.23 177.238l-6.355-7.94M100.875 169.297l3.7-9.473" stroke-width="1.2" stroke="#00f" stroke-miterlimit="10" fill="none"/><path d="M104.574 159.824l3.703-9.472" stroke-width="1.2" stroke="#000" stroke-miterlimit="10" fill="none"/><path d="M100.875 169.297l-10.055 1.53" stroke-width="1.2" stroke="#00f" stroke-miterlimit="10" fill="none"/><path d="M90.82 170.828l-10.05 1.53" stroke-width="1.2" stroke="#000" stroke-miterlimit="10" fill="none"/><path d="M97.875 163.797h7v11h-7zm0 0" fill="#fff"/><use xlink:href="#a" x="97.875" y="172.46" fill="#00f"/><path d="M108.277 150.352l20.106-3.063M128.383 147.29l12.707 15.882M141.09 163.172l16.383 12.05M153.14 146.785l-12.05 16.387M157.473 175.223l6.023-8.192" stroke-width="1.2" stroke="#000" stroke-miterlimit="10" fill="none"/><path d="M163.496 167.03l6.027-8.194M169.523 158.836l-8.19-6.024" stroke-width="1.2" stroke="#00f" stroke-miterlimit="10" fill="none"/><path d="M161.332 152.813l-8.19-6.028" stroke-width="1.2" stroke="#000" stroke-miterlimit="10" fill="none"/><path d="M169.523 158.836l10.055-1.53" stroke-width="1.2" stroke="#00f" stroke-miterlimit="10" fill="none"/><path d="M179.578 157.305l10.05-1.532" stroke-width="1.2" stroke="#000" stroke-miterlimit="10" fill="none"/><path d="M166.523 153.336h7v11h-7zm0 0" fill="#fff"/><use xlink:href="#a" x="166.523" y="161.999" fill="#00f"/><path d="M191.86 156.645l3.7-9.473" stroke-width="1.2" stroke="#000" stroke-miterlimit="10" fill="none"/><path d="M195.56 147.172l3.698-9.473" stroke-width="1.2" stroke="#f00" stroke-miterlimit="10" fill="none"/><path d="M187.402 154.902l3.7-9.472" stroke-width="1.2" stroke="#000" stroke-miterlimit="10" fill="none"/><path d="M191.102 145.43l3.7-9.47" stroke-width="1.2" stroke="#f00" stroke-miterlimit="10" fill="none"/><path d="M189.63 155.773l6.354 7.942" stroke-width="1.2" stroke="#000" stroke-miterlimit="10" fill="none"/><path d="M195.984 163.715l6.352 7.94" stroke-width="1.2" stroke="#00f" stroke-miterlimit="10" fill="none"/><path d="M193.03 131.328h8v11h-8zm0 0" fill="#fff"/><use xlink:href="#b" x="193.031" y="139.991" fill="#f00"/><path d="M202.336 171.656l10.055-1.53" stroke-width="1.2" stroke="#00f" stroke-miterlimit="10" fill="none"/><path d="M212.39 170.125l10.05-1.53" stroke-width="1.2" stroke="#000" stroke-miterlimit="10" fill="none"/><path d="M195.336 166.156h14v11h-14zm0 0" fill="#fff"/><g fill="#00f"><use xlink:href="#a" x="195.336" y="174.819"/><use xlink:href="#c" x="202.313" y="174.819"/></g><path d="M222.44 168.594l12.708 15.88M227.45 167.19l10.163 12.705M229.844 149.648l-7.403 18.946M235.148 184.473l20.106-3.063M255.254 181.41l7.402-18.945M251.54 177.773l5.917-15.156M262.656 162.465l-12.707-15.88M249.95 146.586l-20.106 3.062M248.66 151.62l-16.086 2.45M249.95 146.586l7.402-18.945M257.352 127.64l3.7-9.472" stroke-width="1.2" stroke="#000" stroke-miterlimit="10" fill="none"/><path d="M261.05 118.168l3.7-9.473" stroke-width="1.2" stroke="#00f" stroke-miterlimit="10" fill="none"/><path d="M262.547 127.488l2.96-7.578" stroke-width="1.2" stroke="#000" stroke-miterlimit="10" fill="none"/><path d="M265.508 119.91l2.96-7.578" stroke-width="1.2" stroke="#00f" stroke-miterlimit="10" fill="none"/><path d="M253.633 124.004l2.96-7.578" stroke-width="1.2" stroke="#000" stroke-miterlimit="10" fill="none"/><path d="M256.594 116.426l2.957-7.578" stroke-width="1.2" stroke="#00f" stroke-miterlimit="10" fill="none"/><path d="M261.75 103.195h7v11h-7zm0 0" fill="#fff"/><use xlink:href="#a" x="261.75" y="111.858" fill="#00f"/><path d="M78.54 171.488l-3.7 9.473" stroke-width="1.2" stroke="#000" stroke-miterlimit="10" fill="none"/><path d="M74.84 180.96l-3.7 9.474" stroke-width="1.2" stroke="#f00" stroke-miterlimit="10" fill="none"/><path d="M82.996 173.23l-3.7 9.473" stroke-width="1.2" stroke="#000" stroke-miterlimit="10" fill="none"/><path d="M79.297 182.703l-3.7 9.473" stroke-width="1.2" stroke="#f00" stroke-miterlimit="10" fill="none"/><path d="M80.77 172.36l-12.707-15.88" stroke-width="1.2" stroke="#000" stroke-miterlimit="10" fill="none"/><path d="M65.367 185.805h8v11h-8zm0 0" fill="#fff"/><use xlink:href="#b" x="65.367" y="194.468" fill="#f00"/><path d="M68.063 156.48l3.7-9.472" stroke-width="1.2" stroke="#000" stroke-miterlimit="10" fill="none"/><path d="M71.762 147.008l3.703-9.473" stroke-width="1.2" stroke="#00f" stroke-miterlimit="10" fill="none"/><path d="M64.344 152.844l2.96-7.578" stroke-width="1.2" stroke="#000" stroke-miterlimit="10" fill="none"/><path d="M67.305 145.266l2.96-7.578" stroke-width="1.2" stroke="#00f" stroke-miterlimit="10" fill="none"/><path d="M47.957 159.543l20.105-3.063" stroke-width="1.2" stroke="#000" stroke-miterlimit="10" fill="none"/><path d="M75.465 137.535l-6.356-7.94" stroke-width="1.2" stroke="#00f" stroke-miterlimit="10" fill="none"/><path d="M69.11 129.594l-6.352-7.942" stroke-width="1.2" stroke="#000" stroke-miterlimit="10" fill="none"/><path d="M72.465 132.035h7v11h-7zm0 0" fill="#fff"/><use xlink:href="#a" x="72.465" y="140.698" fill="#00f"/><path d="M62.758 121.652l-20.11 3.067M61.47 126.69l-16.087 2.45M42.648 124.72l-3.7 9.468" stroke-width="1.2" stroke="#000" stroke-miterlimit="10" fill="none"/><path d="M38.95 134.188l-3.7 9.472M35.25 143.66l6.352 7.942" stroke-width="1.2" stroke="#00f" stroke-miterlimit="10" fill="none"/><path d="M41.602 151.602l6.355 7.94" stroke-width="1.2" stroke="#000" stroke-miterlimit="10" fill="none"/><path d="M40.258 142.262l5.082 6.35" stroke-width="1.2" stroke="#00f" stroke-miterlimit="10" fill="none"/><path d="M45.34 148.613l5.082 6.352" stroke-width="1.2" stroke="#000" stroke-miterlimit="10" fill="none"/><path d="M32.25 138.16h7v11h-7zm0 0" fill="#fff"/><use xlink:href="#a" x="32.25" y="146.823" fill="#00f"/></g></svg>