<svg xmlns="http://www.w3.org/2000/svg" xmlns:xlink="http://www.w3.org/1999/xlink" width="300pt" height="300pt" viewBox="0 0 300 300"><defs><symbol overflow="visible"><path d="M.453 1.594v-7.938h4.5v7.938zm.5-.5h3.5v-6.938h-3.5zm0 0"/></symbol><symbol overflow="visible" id="a"><path d="M.89-6.563H2.08l2.906 5.485v-5.484h.86V0H4.656L1.75-5.484V0H.89zm0 0"/></symbol><symbol overflow="visible" id="b"><path d="M3.547-5.953c-.65 0-1.164.242-1.547.72-.375.48-.563 1.13-.563 1.952 0 .835.188 1.49.563 1.967.383.48.898.72 1.547.72.644 0 1.156-.24 1.53-.72.376-.476.564-1.132.564-1.968 0-.822-.187-1.474-.562-1.954-.375-.477-.887-.72-1.53-.72zm0-.734c.914 0 1.648.312 2.203.937.55.617.828 1.438.828 2.47 0 1.042-.277 1.87-.828 2.483-.555.617-1.29.922-2.203.922-.93 0-1.668-.305-2.22-.922C.774-1.41.5-2.237.5-3.28c0-1.033.273-1.853.828-2.47.55-.625 1.29-.938 2.22-.938zm0 0"/></symbol><symbol overflow="visible" id="c"><path d="M.89-6.563h.876v2.688H5v-2.688h.89V0H5v-3.125H1.766V0H.89zm0 0"/></symbol><symbol overflow="visible" id="d"><path d="M.89-6.563h3.766v.75h-2.89v1.938h2.61v.734h-2.61V0H.89zm0 0"/></symbol></defs><g><path fill="#fff" d="M0 0h300v300H0z"/><path d="M129.367 176.2l-18.16 4.77M134.313 158.086l-4.946 18.113M111.207 180.97l-6.61-6.673" stroke-width="1.2" stroke="#000" stroke-miterlimit="10" fill="none"/><path d="M104.598 174.297l-6.606-6.668M97.992 167.63l2.477-9.06" stroke-width="1.2" stroke="#00f" stroke-miterlimit="10" fill="none"/><path d="M100.47 158.57l2.47-9.054" stroke-width="1.2" stroke="#000" stroke-miterlimit="10" fill="none"/><path d="M97.992 167.63l-9.078 2.382" stroke-width="1.2" stroke="#00f" stroke-miterlimit="10" fill="none"/><path d="M88.914 170.012l-9.082 2.386" stroke-width="1.2" stroke="#000" stroke-miterlimit="10" fill="none"/><path d="M94.992 162.13h7v11h-7zm0 0" fill="#fff"/><use xlink:href="#a" x="94.992" y="170.792" fill="#00f"/><path d="M102.94 149.516l18.162-4.77M121.102 144.746l13.21 13.34M134.313 158.086l13.214 13.344M139.262 139.973l-4.95 18.113M147.527 171.43l18.16-4.774M165.688 166.656l2.472-9.054" stroke-width="1.2" stroke="#000" stroke-miterlimit="10" fill="none"/><path d="M168.16 157.602l2.473-9.055M170.633 148.547l-6.606-6.672" stroke-width="1.2" stroke="#00f" stroke-miterlimit="10" fill="none"/><path d="M164.027 141.875l-6.605-6.672" stroke-width="1.2" stroke="#000" stroke-miterlimit="10" fill="none"/><path d="M170.633 148.547l9.082-2.387" stroke-width="1.2" stroke="#00f" stroke-miterlimit="10" fill="none"/><path d="M179.715 146.16l9.078-2.387" stroke-width="1.2" stroke="#000" stroke-miterlimit="10" fill="none"/><path d="M167.633 143.047h7v11h-7zm0 0" fill="#fff"/><use xlink:href="#a" x="167.633" y="151.71" fill="#00f"/><path d="M157.422 135.203l-18.16 4.77M190.926 144.355l2.472-9.054" stroke-width="1.2" stroke="#000" stroke-miterlimit="10" fill="none"/><path d="M193.398 135.3l2.477-9.054" stroke-width="1.2" stroke="#f00" stroke-miterlimit="10" fill="none"/><path d="M186.664 143.19l2.473-9.053" stroke-width="1.2" stroke="#000" stroke-miterlimit="10" fill="none"/><path d="M189.137 134.137l2.476-9.06" stroke-width="1.2" stroke="#f00" stroke-miterlimit="10" fill="none"/><path d="M188.793 143.773l6.61 6.672" stroke-width="1.2" stroke="#000" stroke-miterlimit="10" fill="none"/><path d="M195.402 150.445l6.606 6.672" stroke-width="1.2" stroke="#00f" stroke-miterlimit="10" fill="none"/><path d="M189.742 120.164h8v11h-8zm0 0" fill="#fff"/><use xlink:href="#b" x="189.742" y="128.827" fill="#f00"/><path d="M202.008 157.117l9.078-2.387" stroke-width="1.2" stroke="#00f" stroke-miterlimit="10" fill="none"/><path d="M211.086 154.73l9.082-2.382" stroke-width="1.2" stroke="#000" stroke-miterlimit="10" fill="none"/><path d="M195.008 151.617h14v11h-14zm0 0" fill="#fff"/><g fill="#00f"><use xlink:href="#a" x="195.008" y="160.28"/><use xlink:href="#c" x="201.985" y="160.28"/></g><path d="M220.168 152.348l13.21 13.34M224.63 150.57l10.565 10.676M225.117 134.234l-4.95 18.114M233.38 165.688l18.16-4.77M251.54 160.918l4.948-18.113M247.773 157.94l3.957-14.487M251.54 160.918l6.605 6.672" stroke-width="1.2" stroke="#000" stroke-miterlimit="10" fill="none"/><path d="M258.145 167.59l6.605 6.668" stroke-width="1.2" stroke="#3cc" stroke-miterlimit="10" fill="none"/><path d="M256.488 142.805l-13.21-13.34M243.277 129.465l-18.16 4.77M242.582 134.215l-14.527 3.816" stroke-width="1.2" stroke="#000" stroke-miterlimit="10" fill="none"/><path d="M261.75 168.758h6v11h-6zm0 0" fill="#fff"/><use xlink:href="#d" x="261.75" y="177.421" fill="#3cc"/><path d="M77.703 171.816l-2.476 9.055" stroke-width="1.2" stroke="#000" stroke-miterlimit="10" fill="none"/><path d="M75.227 180.87l-2.473 9.06" stroke-width="1.2" stroke="#f00" stroke-miterlimit="10" fill="none"/><path d="M81.965 172.98l-2.477 9.055" stroke-width="1.2" stroke="#000" stroke-miterlimit="10" fill="none"/><path d="M79.488 182.035l-2.472 9.06" stroke-width="1.2" stroke="#f00" stroke-miterlimit="10" fill="none"/><path d="M79.832 172.398l-13.21-13.343" stroke-width="1.2" stroke="#000" stroke-miterlimit="10" fill="none"/><path d="M70.883 185.012h8v11h-8zm0 0" fill="#fff"/><use xlink:href="#b" x="70.883" y="193.675" fill="#f00"/><path d="M66.62 159.055l4.95-18.11M62.855 156.082l3.958-14.492M48.46 163.828l18.16-4.773M71.57 140.945l-13.21-13.343M58.36 127.602l-18.16 4.77M57.664 132.352l-14.527 3.816M58.36 127.602l2.472-9.055" stroke-width="1.2" stroke="#000" stroke-miterlimit="10" fill="none"/><path d="M60.832 118.547l2.477-9.06" stroke-width="1.2" stroke="#3cc" stroke-miterlimit="10" fill="none"/><path d="M40.2 132.37l-4.95 18.114M35.25 150.484l13.21 13.344M39.71 148.71l10.57 10.673" stroke-width="1.2" stroke="#000" stroke-miterlimit="10" fill="none"/><path d="M60.31 103.988h6v11h-6zm0 0" fill="#fff"/><use xlink:href="#d" x="60.309" y="112.651" fill="#3cc"/></g></svg>