<svg xmlns="http://www.w3.org/2000/svg" xmlns:xlink="http://www.w3.org/1999/xlink" width="300pt" height="300pt" viewBox="0 0 300 300"><defs><symbol overflow="visible"><path d="M.64 2.297v-11.47h6.5v11.47zm.735-.72h5.047V-8.436H1.375zm0 0"/></symbol><symbol overflow="visible" id="a"><path d="M1.28-9.484H3l4.203 7.937v-7.937h1.25V0H6.72L2.515-7.922V0H1.28zm0 0"/></symbol><symbol overflow="visible" id="b"><path d="M5.125-8.61c-.938 0-1.684.352-2.234 1.047-.542.688-.812 1.633-.812 2.83 0 1.198.27 2.147.813 2.842.55.687 1.297 1.03 2.235 1.03.926 0 1.66-.343 2.203-1.03.55-.696.828-1.645.828-2.844 0-1.196-.277-2.14-.828-2.829-.543-.695-1.277-1.046-2.203-1.046zm0-1.046c1.32 0 2.38.45 3.172 1.344.8.898 1.203 2.09 1.203 3.578 0 1.5-.402 2.7-1.203 3.593C7.504-.255 6.445.186 5.125.186c-1.336 0-2.402-.44-3.203-1.328C1.13-2.036.734-3.235.734-4.735c0-1.49.395-2.68 1.188-3.579.8-.894 1.867-1.343 3.203-1.343zm0 0"/></symbol></defs><g><path fill="#fff" d="M0 0h300v300H0z"/><path d="M149.398 217.082l-33.718 1.16M115.68 218.242l-20.762-26.594M107.348 220.47l-16.61-21.275" stroke-width="1.2" stroke="#000" stroke-miterlimit="10" fill="none"/><path d="M96.8 246.207l9.442-13.98" stroke-width="1.2" stroke="#f00" stroke-miterlimit="10" fill="none"/><path d="M106.242 232.227l9.438-13.985M94.918 191.648L63.21 203.176M94.918 191.648l9.312-32.425M63.21 203.176l.583 16.86" stroke-width="1.2" stroke="#000" stroke-miterlimit="10" fill="none"/><path d="M63.793 220.035l.582 16.86" stroke-width="1.2" stroke="#00f" stroke-miterlimit="10" fill="none"/><path d="M71.262 206.273l.465 13.49" stroke-width="1.2" stroke="#000" stroke-miterlimit="10" fill="none"/><path d="M71.727 219.762l.464 13.484" stroke-width="1.2" stroke="#00f" stroke-miterlimit="10" fill="none"/><path d="M63.21 203.176l-27.96-18.88" stroke-width="1.2" stroke="#000" stroke-miterlimit="10" fill="none"/><path d="M64.375 236.895l16.215 4.656" stroke-width="1.2" stroke="#00f" stroke-miterlimit="10" fill="none"/><path d="M80.59 241.55l16.21 4.657" stroke-width="1.2" stroke="#f00" stroke-miterlimit="10" fill="none"/><path d="M59.375 228.895h10v16h-10zm0 0" fill="#fff"/><use xlink:href="#a" x="59.375" y="241.271" fill="#00f"/><path d="M91.8 238.207h11v16h-11zm0 0" fill="#fff"/><use xlink:href="#b" x="91.801" y="250.583" fill="#f00"/><path d="M104.23 159.223l32.743-8.15M105.59 150.703l26.19-6.516M80.805 134.945l23.425 24.278M136.973 151.074l9.312-32.426M146.285 118.648L122.86 94.37M149.652 110.707l-18.738-19.422M179.023 110.5l-32.738 8.148M122.86 94.37l-32.743 8.15M122.86 94.37l4.656-16.214" stroke-width="1.2" stroke="#000" stroke-miterlimit="10" fill="none"/><path d="M127.516 78.156l4.656-16.215" stroke-width="1.2" stroke="#00f" stroke-miterlimit="10" fill="none"/><path d="M90.117 102.52l-9.312 32.425M96.816 107.953l-7.45 25.942" stroke-width="1.2" stroke="#000" stroke-miterlimit="10" fill="none"/><path d="M132.172 61.94l16.367-4.073" stroke-width="1.2" stroke="#00f" stroke-miterlimit="10" fill="none"/><path d="M148.54 57.867l16.37-4.074" stroke-width="1.2" stroke="#000" stroke-miterlimit="10" fill="none"/><path d="M137.36 68.832l13.097-3.262" stroke-width="1.2" stroke="#00f" stroke-miterlimit="10" fill="none"/><path d="M150.457 65.57l13.094-3.257" stroke-width="1.2" stroke="#000" stroke-miterlimit="10" fill="none"/><path d="M127.172 53.94h10v16h-10zm0 0" fill="#fff"/><use xlink:href="#a" x="127.172" y="66.317" fill="#00f"/><path d="M164.91 53.793l11.71 12.14" stroke-width="1.2" stroke="#000" stroke-miterlimit="10" fill="none"/><path d="M176.62 65.934l11.716 12.14M188.336 78.074l-4.656 16.21" stroke-width="1.2" stroke="#00f" stroke-miterlimit="10" fill="none"/><path d="M183.68 94.285l-4.657 16.215" stroke-width="1.2" stroke="#000" stroke-miterlimit="10" fill="none"/><path d="M179.773 79.125l-3.726 12.97" stroke-width="1.2" stroke="#00f" stroke-miterlimit="10" fill="none"/><path d="M176.047 92.094l-3.723 12.972" stroke-width="1.2" stroke="#000" stroke-miterlimit="10" fill="none"/><path d="M183.336 70.074h10v16h-10zm0 0" fill="#fff"/><use xlink:href="#a" x="183.336" y="82.45" fill="#00f"/><path d="M179.023 110.5l11.71 12.137" stroke-width="1.2" stroke="#000" stroke-miterlimit="10" fill="none"/><path d="M190.734 122.637l11.715 12.14M202.45 134.777l16.366-4.074" stroke-width="1.2" stroke="#00f" stroke-miterlimit="10" fill="none"/><path d="M218.816 130.703l16.37-4.074" stroke-width="1.2" stroke="#000" stroke-miterlimit="10" fill="none"/><path d="M202.45 134.777l-4.657 16.215" stroke-width="1.2" stroke="#00f" stroke-miterlimit="10" fill="none"/><path d="M197.793 150.992l-4.656 16.21" stroke-width="1.2" stroke="#000" stroke-miterlimit="10" fill="none"/><path d="M197.45 126.777h10v16h-10zm0 0" fill="#fff"/><use xlink:href="#a" x="197.449" y="139.153" fill="#00f"/><path d="M193.137 167.203l23.425 24.28M216.563 191.484l33.41-4.683M221.004 198.875l26.73-3.746" stroke-width="1.2" stroke="#000" stroke-miterlimit="10" fill="none"/><path d="M210.69 224.707l2.935-16.613" stroke-width="1.2" stroke="#f00" stroke-miterlimit="10" fill="none"/><path d="M213.625 208.094l2.938-16.61M249.973 186.8l14.777 30.33M264.75 217.13l-24.277 23.425M256.81 213.762L237.386 232.5M240.473 240.555l-14.89-7.922" stroke-width="1.2" stroke="#000" stroke-miterlimit="10" fill="none"/><path d="M225.582 232.633l-14.89-7.926" stroke-width="1.2" stroke="#f00" stroke-miterlimit="10" fill="none"/><path d="M205.69 216.707h11v16h-11zm0 0" fill="#fff"/><use xlink:href="#b" x="205.691" y="229.083" fill="#f00"/></g></svg>