<svg xmlns="http://www.w3.org/2000/svg" xmlns:xlink="http://www.w3.org/1999/xlink" width="300pt" height="300pt" viewBox="0 0 300 300"><defs><symbol overflow="visible"><path d="M.453 1.594v-7.938h4.5v7.938zm.5-.5h3.5v-6.938h-3.5zm0 0"/></symbol><symbol overflow="visible" id="a"><path d="M.89-6.563H2.08l2.906 5.485v-5.484h.86V0H4.656L1.75-5.484V0H.89zm0 0"/></symbol><symbol overflow="visible" id="b"><path d="M3.547-5.953c-.65 0-1.164.242-1.547.72-.375.48-.563 1.13-.563 1.952 0 .835.188 1.49.563 1.967.383.48.898.72 1.547.72.644 0 1.156-.24 1.53-.72.376-.476.564-1.132.564-1.968 0-.822-.187-1.474-.562-1.954-.375-.477-.887-.72-1.53-.72zm0-.734c.914 0 1.648.312 2.203.937.55.617.828 1.438.828 2.47 0 1.042-.277 1.87-.828 2.483-.555.617-1.29.922-2.203.922-.93 0-1.668-.305-2.22-.922C.774-1.41.5-2.237.5-3.28c0-1.033.273-1.853.828-2.47.55-.625 1.29-.938 2.22-.938zm0 0"/></symbol><symbol overflow="visible" id="c"><path d="M.89-6.563h.876v2.688H5v-2.688h.89V0H5v-3.125H1.766V0H.89zm0 0"/></symbol><symbol overflow="visible" id="d"><path d="M.89-6.563h3.766v.75h-2.89v1.938h2.61v.734h-2.61V0H.89zm0 0"/></symbol></defs><g><path fill="#fff" d="M0 0h300v300H0z"/><path d="M125.88 168.348l-18.825 4.09M131.75 150l-5.87 18.348M107.055 172.438l-6.48-7.13" stroke-width="1.2" stroke="#000" stroke-miterlimit="10" fill="none"/><path d="M100.574 165.31l-6.476-7.13M94.098 158.18l2.937-9.176" stroke-width="1.2" stroke="#00f" stroke-miterlimit="10" fill="none"/><path d="M97.035 149.004l2.934-9.172" stroke-width="1.2" stroke="#000" stroke-miterlimit="10" fill="none"/><path d="M94.098 158.18l-9.414 2.047" stroke-width="1.2" stroke="#00f" stroke-miterlimit="10" fill="none"/><path d="M84.684 160.227l-9.414 2.043" stroke-width="1.2" stroke="#000" stroke-miterlimit="10" fill="none"/><path d="M91.098 152.68h7v11h-7zm0 0" fill="#fff"/><use xlink:href="#a" x="91.098" y="161.343" fill="#00f"/><path d="M99.97 139.832l18.827-4.09M118.797 135.742L131.75 150M131.75 150l12.957 14.258M137.62 131.652L131.75 150M144.707 164.258l18.824-4.09M163.53 160.168l2.94-9.172" stroke-width="1.2" stroke="#000" stroke-miterlimit="10" fill="none"/><path d="M166.47 150.996l2.932-9.176M169.402 141.82l-6.476-7.13" stroke-width="1.2" stroke="#00f" stroke-miterlimit="10" fill="none"/><path d="M162.926 134.69l-6.477-7.127" stroke-width="1.2" stroke="#000" stroke-miterlimit="10" fill="none"/><path d="M169.402 141.82l9.414-2.047" stroke-width="1.2" stroke="#00f" stroke-miterlimit="10" fill="none"/><path d="M178.816 139.773l9.414-2.043" stroke-width="1.2" stroke="#000" stroke-miterlimit="10" fill="none"/><path d="M166.402 136.32h7v11h-7zm0 0" fill="#fff"/><use xlink:href="#a" x="166.402" y="144.983" fill="#00f"/><path d="M156.45 127.563l-18.83 4.09M190.39 138.422l2.934-9.176" stroke-width="1.2" stroke="#000" stroke-miterlimit="10" fill="none"/><path d="M193.324 129.246l2.938-9.176" stroke-width="1.2" stroke="#f00" stroke-miterlimit="10" fill="none"/><path d="M186.07 137.04l2.938-9.177" stroke-width="1.2" stroke="#000" stroke-miterlimit="10" fill="none"/><path d="M189.008 127.863l2.933-9.172" stroke-width="1.2" stroke="#f00" stroke-miterlimit="10" fill="none"/><path d="M188.23 137.73l6.477 7.13" stroke-width="1.2" stroke="#000" stroke-miterlimit="10" fill="none"/><path d="M194.707 144.86l6.48 7.128" stroke-width="1.2" stroke="#00f" stroke-miterlimit="10" fill="none"/><path d="M190.102 113.88h8v11h-8zm0 0" fill="#fff"/><use xlink:href="#b" x="190.102" y="122.542" fill="#f00"/><path d="M201.188 151.988l9.41-2.043" stroke-width="1.2" stroke="#00f" stroke-miterlimit="10" fill="none"/><path d="M210.598 149.945l9.414-2.047" stroke-width="1.2" stroke="#000" stroke-miterlimit="10" fill="none"/><path d="M194.188 146.488h14v11h-14zm0 0" fill="#fff"/><g fill="#00f"><use xlink:href="#a" x="194.188" y="155.151"/><use xlink:href="#c" x="201.165" y="155.151"/></g><path d="M220.012 147.898l12.957 14.262M224.664 146.277l10.363 11.407M225.883 129.55l-5.87 18.348M232.97 162.16l18.823-4.094M251.793 158.066l5.87-18.347M248.063 154.852l4.7-14.68M251.793 158.066l6.48 7.133" stroke-width="1.2" stroke="#000" stroke-miterlimit="10" fill="none"/><path d="M258.273 165.2l6.477 7.128" stroke-width="1.2" stroke="#3cc" stroke-miterlimit="10" fill="none"/><path d="M257.664 139.72l-12.953-14.26M244.71 125.46l-18.827 4.09M243.79 130.297l-15.06 3.273" stroke-width="1.2" stroke="#000" stroke-miterlimit="10" fill="none"/><path d="M261.75 166.828h6v11h-6zm0 0" fill="#fff"/><use xlink:href="#d" x="261.75" y="175.491" fill="#3cc"/><path d="M73.113 161.578l-2.937 9.176" stroke-width="1.2" stroke="#000" stroke-miterlimit="10" fill="none"/><path d="M70.176 170.754l-2.934 9.176" stroke-width="1.2" stroke="#f00" stroke-miterlimit="10" fill="none"/><path d="M77.43 162.96l-2.934 9.177" stroke-width="1.2" stroke="#000" stroke-miterlimit="10" fill="none"/><path d="M74.496 172.137l-2.937 9.172" stroke-width="1.2" stroke="#f00" stroke-miterlimit="10" fill="none"/><path d="M75.27 162.27l-12.954-14.258" stroke-width="1.2" stroke="#000" stroke-miterlimit="10" fill="none"/><path d="M61.398 175.12h8v11h-8zm0 0" fill="#fff"/><use xlink:href="#b" x="61.398" y="183.784" fill="#f00"/><path d="M62.316 148.012l-19.152 2.097M59.906 143.715l-15.32 1.68" stroke-width="1.2" stroke="#000" stroke-miterlimit="10" fill="none"/><path d="M66.238 129.148l-1.96 9.43" stroke-width="1.2" stroke="#f00" stroke-miterlimit="10" fill="none"/><path d="M64.277 138.578l-1.96 9.434M43.164 150.11l-7.914-17.563M35.25 132.547l14.258-12.957M39.723 134.605l11.41-10.363M49.508 119.59l8.367 4.78" stroke-width="1.2" stroke="#000" stroke-miterlimit="10" fill="none"/><path d="M57.875 124.37l8.363 4.778" stroke-width="1.2" stroke="#f00" stroke-miterlimit="10" fill="none"/><path d="M62.238 123.648h8v11h-8zm0 0" fill="#fff"/><use xlink:href="#b" x="62.238" y="132.312" fill="#f00"/></g></svg>