<svg xmlns="http://www.w3.org/2000/svg" xmlns:xlink="http://www.w3.org/1999/xlink" width="300pt" height="300pt" viewBox="0 0 300 300"><defs><symbol overflow="visible"><path d="M.453 1.594v-7.938h4.5v7.938zm.5-.5h3.5v-6.938h-3.5zm0 0"/></symbol><symbol overflow="visible" id="a"><path d="M.89-6.563H2.08l2.906 5.485v-5.484h.86V0H4.656L1.75-5.484V0H.89zm0 0"/></symbol><symbol overflow="visible" id="b"><path d="M.89-6.563h.876v2.688H5v-2.688h.89V0H5v-3.125H1.766V0H.89zm0 0"/></symbol><symbol overflow="visible" id="c"><path d="M3.547-5.953c-.65 0-1.164.242-1.547.72-.375.48-.563 1.13-.563 1.952 0 .835.188 1.49.563 1.967.383.48.898.72 1.547.72.644 0 1.156-.24 1.53-.72.376-.476.564-1.132.564-1.968 0-.822-.187-1.474-.562-1.954-.375-.477-.887-.72-1.53-.72zm0-.734c.914 0 1.648.312 2.203.937.55.617.828 1.438.828 2.47 0 1.042-.277 1.87-.828 2.483-.555.617-1.29.922-2.203.922-.93 0-1.668-.305-2.22-.922C.774-1.41.5-2.237.5-3.28c0-1.033.273-1.853.828-2.47.55-.625 1.29-.938 2.22-.938zm0 0"/></symbol></defs><g><path fill="#fff" d="M0 0h300v300H0z"/><path d="M264.75 76.016L246.137 87.94M246.137 87.94l1.023 22.083M241.043 90.39l.816 17.67" stroke-width="1.2" stroke="#000" stroke-miterlimit="10" fill="none"/><path d="M226.5 77.785l9.816 5.078" stroke-width="1.2" stroke="#00f" stroke-miterlimit="10" fill="none"/><path d="M236.316 82.863l9.82 5.078M247.16 110.023l-9.308 5.965" stroke-width="1.2" stroke="#000" stroke-miterlimit="10" fill="none"/><path d="M237.852 115.988l-9.305 5.965M228.547 121.953l-9.82-5.078" stroke-width="1.2" stroke="#00f" stroke-miterlimit="10" fill="none"/><path d="M218.727 116.875l-9.817-5.078" stroke-width="1.2" stroke="#000" stroke-miterlimit="10" fill="none"/><path d="M228.973 116.316l-7.856-4.062" stroke-width="1.2" stroke="#00f" stroke-miterlimit="10" fill="none"/><path d="M221.117 112.254l-7.855-4.063" stroke-width="1.2" stroke="#000" stroke-miterlimit="10" fill="none"/><path d="M225.547 116.453h7v11h-7zm0 0" fill="#fff"/><use xlink:href="#a" x="225.547" y="125.116" fill="#00f"/><path d="M208.91 111.797l-1.023-22.086M208.91 111.797l-18.613 11.926M207.887 89.71l9.304-5.96" stroke-width="1.2" stroke="#000" stroke-miterlimit="10" fill="none"/><path d="M217.19 83.75l9.31-5.965" stroke-width="1.2" stroke="#00f" stroke-miterlimit="10" fill="none"/><path d="M212.555 92.898l7.445-4.77" stroke-width="1.2" stroke="#000" stroke-miterlimit="10" fill="none"/><path d="M220 88.13l7.445-4.77" stroke-width="1.2" stroke="#00f" stroke-miterlimit="10" fill="none"/><path d="M223.5 72.285h7v11h-7zm0 0" fill="#fff"/><use xlink:href="#a" x="223.5" y="80.948" fill="#00f"/><path d="M190.297 123.723l.508 11.043" stroke-width="1.2" stroke="#000" stroke-miterlimit="10" fill="none"/><path d="M190.805 134.766l.51 11.043M191.316 145.81l-9.304 5.96" stroke-width="1.2" stroke="#00f" stroke-miterlimit="10" fill="none"/><path d="M182.012 151.77l-9.31 5.964" stroke-width="1.2" stroke="#000" stroke-miterlimit="10" fill="none"/><path d="M184.316 140.31h14v11h-14zm0 0" fill="#fff"/><g fill="#00f"><use xlink:href="#a" x="184.316" y="148.972"/><use xlink:href="#b" x="191.294" y="148.972"/></g><path d="M172.703 157.734l-9.816-5.078" stroke-width="1.2" stroke="#000" stroke-miterlimit="10" fill="none"/><path d="M162.887 152.656l-9.82-5.078" stroke-width="1.2" stroke="#00f" stroke-miterlimit="10" fill="none"/><path d="M168.352 161.34l-7.856-4.063" stroke-width="1.2" stroke="#000" stroke-miterlimit="10" fill="none"/><path d="M160.496 157.277l-7.855-4.062" stroke-width="1.2" stroke="#00f" stroke-miterlimit="10" fill="none"/><path d="M173.727 179.82l-1.024-22.086" stroke-width="1.2" stroke="#000" stroke-miterlimit="10" fill="none"/><path d="M153.066 147.578l-9.304 5.965" stroke-width="1.2" stroke="#00f" stroke-miterlimit="10" fill="none"/><path d="M143.762 153.543l-9.31 5.965" stroke-width="1.2" stroke="#000" stroke-miterlimit="10" fill="none"/><path d="M150.066 142.078h7v11h-7zm0 0" fill="#fff"/><use xlink:href="#a" x="150.066" y="150.741" fill="#00f"/><path d="M134.453 159.508l.512 11.04" stroke-width="1.2" stroke="#000" stroke-miterlimit="10" fill="none"/><path d="M134.965 170.547l.512 11.043" stroke-width="1.2" stroke="#00f" stroke-miterlimit="10" fill="none"/><path d="M139.754 161.473l.406 8.836" stroke-width="1.2" stroke="#000" stroke-miterlimit="10" fill="none"/><path d="M140.16 170.31l.41 8.83" stroke-width="1.2" stroke="#00f" stroke-miterlimit="10" fill="none"/><path d="M134.453 159.508l-19.637-10.16" stroke-width="1.2" stroke="#000" stroke-miterlimit="10" fill="none"/><path d="M135.477 181.59l9.816 5.078" stroke-width="1.2" stroke="#00f" stroke-miterlimit="10" fill="none"/><path d="M145.293 186.668l9.82 5.078" stroke-width="1.2" stroke="#000" stroke-miterlimit="10" fill="none"/><path d="M132.477 176.09h7v11h-7zm0 0" fill="#fff"/><use xlink:href="#a" x="132.477" y="184.753" fill="#00f"/><path d="M155.113 191.746l1.024 22.082M160.41 193.715l.82 17.664M173.727 179.82l-18.614 11.926M156.137 213.828l19.636 10.156M175.773 223.984l18.614-11.925M174.828 218.414l14.89-9.543M194.387 212.06l-1.024-22.083M193.363 189.977l-19.636-10.157M189.008 193.578l-15.707-8.125M114.816 149.348l-1.02-22.082M109.52 147.383l-.817-17.668M96.203 161.277l18.613-11.93M113.797 127.266L94.16 117.11M94.16 117.11l-18.613 11.925M95.105 122.684l-14.894 9.54M75.547 129.035l1.02 22.086M75.547 129.035L55.91 118.88M76.566 151.12l19.637 10.157M80.922 147.516l15.707 8.125M54.504 116.69l-9.305 5.966" stroke-width="1.2" stroke="#000" stroke-miterlimit="10" fill="none"/><path d="M45.2 122.656l-9.31 5.96" stroke-width="1.2" stroke="#f00" stroke-miterlimit="10" fill="none"/><path d="M57.313 121.07l-9.31 5.965" stroke-width="1.2" stroke="#000" stroke-miterlimit="10" fill="none"/><path d="M48.004 127.035l-9.305 5.96" stroke-width="1.2" stroke="#f00" stroke-miterlimit="10" fill="none"/><path d="M55.91 118.88l-.512-11.04" stroke-width="1.2" stroke="#000" stroke-miterlimit="10" fill="none"/><path d="M55.398 107.84l-.51-11.043" stroke-width="1.2" stroke="#00f" stroke-miterlimit="10" fill="none"/><path d="M29.297 125.31h8v11h-8zm0 0" fill="#fff"/><use xlink:href="#c" x="29.297" y="133.972" fill="#f00"/><path d="M54.887 96.797l-9.82-5.078" stroke-width="1.2" stroke="#00f" stroke-miterlimit="10" fill="none"/><path d="M45.066 91.72l-9.816-5.08" stroke-width="1.2" stroke="#000" stroke-miterlimit="10" fill="none"/><path d="M54.887 96.797l9.304-5.965" stroke-width="1.2" stroke="#00f" stroke-miterlimit="10" fill="none"/><path d="M64.19 90.832l9.31-5.96" stroke-width="1.2" stroke="#000" stroke-miterlimit="10" fill="none"/><path d="M51.887 91.297h7v11h-7zm0 0" fill="#fff"/><use xlink:href="#a" x="51.887" y="99.96" fill="#00f"/></g></svg>