<svg xmlns="http://www.w3.org/2000/svg" xmlns:xlink="http://www.w3.org/1999/xlink" width="300pt" height="300pt" viewBox="0 0 300 300"><defs><symbol overflow="visible"><path d="M.453 1.594v-7.938h4.5v7.938zm.5-.5h3.5v-6.938h-3.5zm0 0"/></symbol><symbol overflow="visible" id="a"><path d="M.89-6.563H2.08l2.906 5.485v-5.484h.86V0H4.656L1.75-5.484V0H.89zm0 0"/></symbol><symbol overflow="visible" id="b"><path d="M.89-6.563h.876v2.688H5v-2.688h.89V0H5v-3.125H1.766V0H.89zm0 0"/></symbol><symbol overflow="visible" id="c"><path d="M3.547-5.953c-.65 0-1.164.242-1.547.72-.375.48-.563 1.13-.563 1.952 0 .835.188 1.49.563 1.967.383.48.898.72 1.547.72.644 0 1.156-.24 1.53-.72.376-.476.564-1.132.564-1.968 0-.822-.187-1.474-.562-1.954-.375-.477-.887-.72-1.53-.72zm0-.734c.914 0 1.648.312 2.203.937.55.617.828 1.438.828 2.47 0 1.042-.277 1.87-.828 2.483-.555.617-1.29.922-2.203.922-.93 0-1.668-.305-2.22-.922C.774-1.41.5-2.237.5-3.28c0-1.033.273-1.853.828-2.47.55-.625 1.29-.938 2.22-.938zm0 0"/></symbol></defs><g><path fill="#fff" d="M0 0h300v300H0z"/><path d="M35.25 86.668l21.652-.832M56.902 85.836L62.676 95" stroke-width="1.2" stroke="#000" stroke-miterlimit="10" fill="none"/><path d="M62.676 95l5.773 9.168M68.45 104.168l10.823-.418" stroke-width="1.2" stroke="#00f" stroke-miterlimit="10" fill="none"/><path d="M79.273 103.75l10.825-.418" stroke-width="1.2" stroke="#000" stroke-miterlimit="10" fill="none"/><path d="M61.45 98.668h14v11h-14zm0 0" fill="#fff"/><g fill="#00f"><use xlink:href="#a" x="61.449" y="107.331"/><use xlink:href="#b" x="68.427" y="107.331"/></g><path d="M90.098 103.332l5.054-9.582" stroke-width="1.2" stroke="#000" stroke-miterlimit="10" fill="none"/><path d="M95.152 93.75l5.05-9.582" stroke-width="1.2" stroke="#00f" stroke-miterlimit="10" fill="none"/><path d="M95.62 103.793l4.04-7.668" stroke-width="1.2" stroke="#000" stroke-miterlimit="10" fill="none"/><path d="M99.66 96.125l4.043-7.664M101.648 121.668l-5.773-9.168" stroke-width="1.2" stroke="#00f" stroke-miterlimit="10" fill="none"/><path d="M95.875 112.5l-5.777-9.168" stroke-width="1.2" stroke="#000" stroke-miterlimit="10" fill="none"/><path d="M100.203 84.168l10.824-.418" stroke-width="1.2" stroke="#00f" stroke-miterlimit="10" fill="none"/><path d="M111.027 83.75l10.825-.418" stroke-width="1.2" stroke="#000" stroke-miterlimit="10" fill="none"/><path d="M97.203 78.668h7v11h-7zm0 0" fill="#fff"/><use xlink:href="#a" x="97.203" y="87.331" fill="#00f"/><path d="M121.852 83.332l11.55 18.332M118.695 87.883l9.24 14.668M133.402 101.664l-10.105 19.168" stroke-width="1.2" stroke="#000" stroke-miterlimit="10" fill="none"/><path d="M155.05 100.832l-10.823.418" stroke-width="1.2" stroke="#00f" stroke-miterlimit="10" fill="none"/><path d="M144.227 101.25l-10.825.414M123.297 120.832l-10.824.418" stroke-width="1.2" stroke="#000" stroke-miterlimit="10" fill="none"/><path d="M112.473 121.25l-10.825.418" stroke-width="1.2" stroke="#00f" stroke-miterlimit="10" fill="none"/><path d="M120.938 115.82l-8.66.336" stroke-width="1.2" stroke="#000" stroke-miterlimit="10" fill="none"/><path d="M112.277 116.156l-8.66.332" stroke-width="1.2" stroke="#00f" stroke-miterlimit="10" fill="none"/><path d="M123.297 120.832L129.07 130" stroke-width="1.2" stroke="#000" stroke-miterlimit="10" fill="none"/><path d="M129.07 130l5.774 9.164" stroke-width="1.2" stroke="#00f" stroke-miterlimit="10" fill="none"/><path d="M98.648 116.168h7v11h-7zm0 0" fill="#fff"/><use xlink:href="#a" x="98.648" y="124.831" fill="#00f"/><path d="M134.844 139.164l10.828-.414" stroke-width="1.2" stroke="#00f" stroke-miterlimit="10" fill="none"/><path d="M145.672 138.75l10.824-.418" stroke-width="1.2" stroke="#000" stroke-miterlimit="10" fill="none"/><path d="M134.844 139.164l-5.05 9.586" stroke-width="1.2" stroke="#00f" stroke-miterlimit="10" fill="none"/><path d="M129.793 148.75l-5.05 9.582" stroke-width="1.2" stroke="#000" stroke-miterlimit="10" fill="none"/><path d="M131.844 133.664h7v11h-7zm0 0" fill="#fff"/><use xlink:href="#a" x="131.844" y="142.327" fill="#00f"/><path d="M154.34 139.69l5.773 9.165" stroke-width="1.2" stroke="#000" stroke-miterlimit="10" fill="none"/><path d="M160.113 148.855l5.774 9.168" stroke-width="1.2" stroke="#f00" stroke-miterlimit="10" fill="none"/><path d="M158.652 136.973l5.774 9.168" stroke-width="1.2" stroke="#000" stroke-miterlimit="10" fill="none"/><path d="M164.426 146.14l5.773 9.165" stroke-width="1.2" stroke="#f00" stroke-miterlimit="10" fill="none"/><path d="M156.496 138.332l10.102-19.168" stroke-width="1.2" stroke="#000" stroke-miterlimit="10" fill="none"/><path d="M164.043 151.164h8v11h-8zm0 0" fill="#fff"/><use xlink:href="#c" x="164.043" y="159.827" fill="#f00"/><path d="M166.598 119.164l-5.774-9.168" stroke-width="1.2" stroke="#000" stroke-miterlimit="10" fill="none"/><path d="M160.824 109.996l-5.773-9.164" stroke-width="1.2" stroke="#00f" stroke-miterlimit="10" fill="none"/><path d="M161.13 120.047l-4.618-7.332" stroke-width="1.2" stroke="#000" stroke-miterlimit="10" fill="none"/><path d="M156.512 112.715l-4.617-7.332" stroke-width="1.2" stroke="#00f" stroke-miterlimit="10" fill="none"/><path d="M166.598 119.164l21.652-.836" stroke-width="1.2" stroke="#000" stroke-miterlimit="10" fill="none"/><path d="M152.05 95.332h7v11h-7zm0 0" fill="#fff"/><use xlink:href="#a" x="152.051" y="103.995" fill="#00f"/><path d="M188.25 118.328l11.547 18.336M199.797 136.664l21.652-.836M221.45 135.828l11.546 18.336M226.918 134.945l9.238 14.668M231.55 116.66l-10.1 19.168M232.996 154.164l21.652-.836M254.648 153.328l10.102-19.168M251.148 149.035l8.082-15.336M264.75 134.16l-11.547-18.332M253.203 115.828l-21.652.832M251.234 121.004l-17.32.668M124.742 158.332l-21.652.836M122.773 163.512l-17.32.664M136.29 176.664l-11.548-18.332M103.09 159.168l-10.102 19.164M92.988 178.332l11.547 18.336M98.457 177.45l9.238 14.667M104.535 196.668l21.653-.836M104.535 196.668l-5.05 9.582" stroke-width="1.2" stroke="#000" stroke-miterlimit="10" fill="none"/><path d="M99.484 206.25l-5.05 9.582" stroke-width="1.2" stroke="#f00" stroke-miterlimit="10" fill="none"/><path d="M126.188 195.832l10.1-19.168M122.688 191.54l8.082-15.337" stroke-width="1.2" stroke="#000" stroke-miterlimit="10" fill="none"/><path d="M94.434 215.832l-10.825.418" stroke-width="1.2" stroke="#f00" stroke-miterlimit="10" fill="none"/><path d="M83.61 216.25l-10.83.418" stroke-width="1.2" stroke="#000" stroke-miterlimit="10" fill="none"/><path d="M90.434 210.332h8v11h-8zm0 0" fill="#fff"/><use xlink:href="#c" x="90.434" y="218.995" fill="#f00"/></g></svg>