<svg xmlns="http://www.w3.org/2000/svg" xmlns:xlink="http://www.w3.org/1999/xlink" width="300pt" height="300pt" viewBox="0 0 300 300"><defs><symbol overflow="visible"><path d="M.453 1.594v-7.938h4.5v7.938zm.5-.5h3.5v-6.938h-3.5zm0 0"/></symbol><symbol overflow="visible" id="a"><path d="M.89-6.563H2.08l2.906 5.485v-5.484h.86V0H4.656L1.75-5.484V0H.89zm0 0"/></symbol><symbol overflow="visible" id="b"><path d="M3.547-5.953c-.65 0-1.164.242-1.547.72-.375.48-.563 1.13-.563 1.952 0 .835.188 1.49.563 1.967.383.48.898.72 1.547.72.644 0 1.156-.24 1.53-.72.376-.476.564-1.132.564-1.968 0-.822-.187-1.474-.562-1.954-.375-.477-.887-.72-1.53-.72zm0-.734c.914 0 1.648.312 2.203.937.55.617.828 1.438.828 2.47 0 1.042-.277 1.87-.828 2.483-.555.617-1.29.922-2.203.922-.93 0-1.668-.305-2.22-.922C.774-1.41.5-2.237.5-3.28c0-1.033.273-1.853.828-2.47.55-.625 1.29-.938 2.22-.938zm0 0"/></symbol><symbol overflow="visible" id="c"><path d="M.89-6.563h.876v2.688H5v-2.688h.89V0H5v-3.125H1.766V0H.89zm0 0"/></symbol></defs><g><path fill="#fff" d="M0 0h300v300H0z"/><path d="M94.113 127.027l-11.316-1.386" stroke-width="1.2" stroke="#000" stroke-miterlimit="10" fill="none"/><path d="M82.797 125.64l-11.32-1.382M71.477 124.258l-5.532-9.977" stroke-width="1.2" stroke="#00f" stroke-miterlimit="10" fill="none"/><path d="M65.945 114.28l-5.535-9.97M55.926 140.94L63.7 132.6" stroke-width="1.2" stroke="#000" stroke-miterlimit="10" fill="none"/><path d="M63.7 132.598l7.777-8.34" stroke-width="1.2" stroke="#00f" stroke-miterlimit="10" fill="none"/><path d="M68.477 118.758h7v11h-7zm0 0" fill="#fff"/><use xlink:href="#a" x="68.477" y="127.421" fill="#00f"/><path d="M60.41 104.31l-22.387 4.358M59.2 110.016L41.29 113.5M38.023 108.668l-2.773 22.64M35.25 131.31l20.676 9.63M39.586 127.406l16.54 7.707M55.926 140.94l4.36 22.392M58.523 161.305l-8.605 7.484" stroke-width="1.2" stroke="#000" stroke-miterlimit="10" fill="none"/><path d="M49.918 168.79l-8.605 7.483" stroke-width="1.2" stroke="#f00" stroke-miterlimit="10" fill="none"/><path d="M62.043 165.355l-8.602 7.485" stroke-width="1.2" stroke="#000" stroke-miterlimit="10" fill="none"/><path d="M53.44 172.84l-8.604 7.484" stroke-width="1.2" stroke="#f00" stroke-miterlimit="10" fill="none"/><path d="M60.285 163.332l10.78 3.707" stroke-width="1.2" stroke="#000" stroke-miterlimit="10" fill="none"/><path d="M71.066 167.04l10.786 3.71" stroke-width="1.2" stroke="#00f" stroke-miterlimit="10" fill="none"/><path d="M35.074 172.8h8v11h-8zm0 0" fill="#fff"/><use xlink:href="#b" x="35.074" y="181.464" fill="#f00"/><path d="M81.852 170.75l2.18 11.195" stroke-width="1.2" stroke="#00f" stroke-miterlimit="10" fill="none"/><path d="M84.03 181.945l2.18 11.192M99.063 155.78l-8.606 7.486" stroke-width="1.2" stroke="#000" stroke-miterlimit="10" fill="none"/><path d="M90.457 163.266l-8.605 7.484" stroke-width="1.2" stroke="#00f" stroke-miterlimit="10" fill="none"/><path d="M78.852 165.25h7v11h-7zm0 0" fill="#fff"/><use xlink:href="#a" x="78.852" y="173.913" fill="#00f"/><path d="M86.21 193.137l21.567 7.422M107.777 200.56l17.21-14.97" stroke-width="1.2" stroke="#000" stroke-miterlimit="10" fill="none"/><path d="M120.63 163.2m.054 3l1.023-.2m-.973 3.2l2.047-.4m-1.99 3.4l3.07-.598m-3.02 3.597l4.094-.798m-4.04 3.797l5.118-.997m-5.067 3.996l6.145-1.196m-6.09 4.19l7.164-1.393m-7.125 3.56l7.9-1.54" stroke="#000" stroke-miterlimit="10" fill="none"/><path d="M120.63 163.2l-21.567-7.42M120.63 163.2l-1.993-22.72M142.855 168.324L120.63 163.2M118.637 140.48l20.992-8.92M139.63 131.56l7.483 8.604" stroke-width="1.2" stroke="#000" stroke-miterlimit="10" fill="none"/><path d="M147.113 140.164l7.485 8.606M154.598 148.77l-5.87 9.777" stroke-width="1.2" stroke="#00f" stroke-miterlimit="10" fill="none"/><path d="M148.727 158.547l-5.872 9.777" stroke-width="1.2" stroke="#000" stroke-miterlimit="10" fill="none"/><path d="M154.598 148.77l11.36-.997" stroke-width="1.2" stroke="#00f" stroke-miterlimit="10" fill="none"/><path d="M165.957 147.773l11.363-.996" stroke-width="1.2" stroke="#000" stroke-miterlimit="10" fill="none"/><path d="M151.598 143.27h7v11h-7zm0 0" fill="#fff"/><use xlink:href="#a" x="151.598" y="151.933" fill="#00f"/><path d="M179.75 147.91l4.816-10.34" stroke-width="1.2" stroke="#000" stroke-miterlimit="10" fill="none"/><path d="M184.566 137.57l4.817-10.336" stroke-width="1.2" stroke="#f00" stroke-miterlimit="10" fill="none"/><path d="M174.887 145.64l4.816-10.335" stroke-width="1.2" stroke="#000" stroke-miterlimit="10" fill="none"/><path d="M179.703 135.305l4.817-10.336" stroke-width="1.2" stroke="#f00" stroke-miterlimit="10" fill="none"/><path d="M177.32 146.777l6.543 9.34" stroke-width="1.2" stroke="#000" stroke-miterlimit="10" fill="none"/><path d="M183.863 156.117l6.543 9.34" stroke-width="1.2" stroke="#00f" stroke-miterlimit="10" fill="none"/><path d="M182.953 120.602h8v11h-8zm0 0" fill="#fff"/><use xlink:href="#b" x="182.953" y="129.265" fill="#f00"/><path d="M190.406 165.457l11.364-1" stroke-width="1.2" stroke="#00f" stroke-miterlimit="10" fill="none"/><path d="M201.77 164.457l11.36-.996" stroke-width="1.2" stroke="#000" stroke-miterlimit="10" fill="none"/><path d="M183.406 159.957h14v11h-14zm0 0" fill="#fff"/><g fill="#00f"><use xlink:href="#a" x="183.406" y="168.62"/><use xlink:href="#c" x="190.384" y="168.62"/></g><path d="M213.13 163.46l13.085 18.68M218.832 162.25l10.473 14.94M222.762 142.785l-9.633 20.676M226.215 182.14l22.722-1.995M248.938 180.145l9.632-20.672M245.035 175.813l7.707-16.54M258.57 159.473l-13.086-18.68M245.484 140.793l-22.722 1.992M243.68 146.336l-18.176 1.598M245.484 140.793l9.633-20.676M255.117 120.117l4.817-10.336" stroke-width="1.2" stroke="#000" stroke-miterlimit="10" fill="none"/><path d="M259.934 109.78l4.816-10.34" stroke-width="1.2" stroke="#00f" stroke-miterlimit="10" fill="none"/><path d="M260.945 120.316l3.852-8.27" stroke-width="1.2" stroke="#000" stroke-miterlimit="10" fill="none"/><path d="M264.797 112.047l3.855-8.27" stroke-width="1.2" stroke="#00f" stroke-miterlimit="10" fill="none"/><path d="M251.215 115.78l3.855-8.268" stroke-width="1.2" stroke="#000" stroke-miterlimit="10" fill="none"/><path d="M255.07 107.512l3.852-8.27" stroke-width="1.2" stroke="#00f" stroke-miterlimit="10" fill="none"/><path d="M261.75 93.94h7v11h-7zm0 0" fill="#fff"/><use xlink:href="#a" x="261.75" y="102.604" fill="#00f"/></g></svg>