<svg xmlns="http://www.w3.org/2000/svg" xmlns:xlink="http://www.w3.org/1999/xlink" width="300pt" height="300pt" viewBox="0 0 300 300"><defs><symbol overflow="visible"><path d="M.453 1.594v-7.938h4.5v7.938zm.5-.5h3.5v-6.938h-3.5zm0 0"/></symbol><symbol overflow="visible" id="a"><path d="M3.547-5.953c-.65 0-1.164.242-1.547.72-.375.48-.563 1.13-.563 1.952 0 .835.188 1.49.563 1.967.383.48.898.72 1.547.72.644 0 1.156-.24 1.53-.72.376-.476.564-1.132.564-1.968 0-.822-.187-1.474-.562-1.954-.375-.477-.887-.72-1.53-.72zm0-.734c.914 0 1.648.312 2.203.937.55.617.828 1.438.828 2.47 0 1.042-.277 1.87-.828 2.483-.555.617-1.29.922-2.203.922-.93 0-1.668-.305-2.22-.922C.774-1.41.5-2.237.5-3.28c0-1.033.273-1.853.828-2.47.55-.625 1.29-.938 2.22-.938zm0 0"/></symbol><symbol overflow="visible" id="b"><path d="M.89-6.563H2.08l2.906 5.485v-5.484h.86V0H4.656L1.75-5.484V0H.89zm0 0"/></symbol><symbol overflow="visible" id="c"><path d="M.89-6.563h.876v2.688H5v-2.688h.89V0H5v-3.125H1.766V0H.89zm0 0"/></symbol></defs><g><path fill="#fff" d="M0 0h300v300H0z"/><path d="M262.422 199.617l-10.113-6.512" stroke-width="1.2" stroke="#000" stroke-miterlimit="10" fill="none"/><path d="M252.31 193.105l-10.12-6.51M242.19 186.594l.583-12.016" stroke-width="1.2" stroke="#f00" stroke-miterlimit="10" fill="none"/><path d="M242.773 174.578l.582-12.016" stroke-width="1.2" stroke="#000" stroke-miterlimit="10" fill="none"/><path d="M238.19 181.094h8v11h-8zm0 0" fill="#fff"/><use xlink:href="#a" x="238.191" y="189.757" fill="#f00"/><path d="M244.652 165.078l10.696-5.504" stroke-width="1.2" stroke="#000" stroke-miterlimit="10" fill="none"/><path d="M255.348 159.574l10.695-5.5" stroke-width="1.2" stroke="#f00" stroke-miterlimit="10" fill="none"/><path d="M242.063 160.047l10.695-5.504" stroke-width="1.2" stroke="#000" stroke-miterlimit="10" fill="none"/><path d="M252.758 154.543l10.7-5.504" stroke-width="1.2" stroke="#f00" stroke-miterlimit="10" fill="none"/><path d="M243.355 162.563l-10.113-6.512" stroke-width="1.2" stroke="#000" stroke-miterlimit="10" fill="none"/><path d="M233.242 156.05l-10.113-6.51" stroke-width="1.2" stroke="#00f" stroke-miterlimit="10" fill="none"/><path d="M260.75 146.055h8v11h-8zm0 0" fill="#fff"/><use xlink:href="#a" x="260.75" y="154.718" fill="#f00"/><path d="M223.13 149.54l-10.696 5.503" stroke-width="1.2" stroke="#00f" stroke-miterlimit="10" fill="none"/><path d="M212.434 155.043l-10.7 5.504M224.293 125.508l-.582 12.015" stroke-width="1.2" stroke="#000" stroke-miterlimit="10" fill="none"/><path d="M223.71 137.523l-.58 12.016" stroke-width="1.2" stroke="#00f" stroke-miterlimit="10" fill="none"/><path d="M220.13 144.04h7v11h-7zm0 0" fill="#fff"/><use xlink:href="#b" x="220.129" y="152.702" fill="#00f"/><path d="M201.734 160.547l-20.226-13.024M181.508 147.523l1.164-24.03M182.672 123.492l1.164-24.03M182.672 123.492l21.394-11.008M161.277 134.5l21.395-11.008M183.836 99.46L163.61 86.44M163.61 86.438l-21.395 11.007M142.215 97.445l-.582 12.016" stroke-width="1.2" stroke="#000" stroke-miterlimit="10" fill="none"/><path d="M141.633 109.46l-.582 12.017M141.05 121.477l10.114 6.51" stroke-width="1.2" stroke="#00f" stroke-miterlimit="10" fill="none"/><path d="M151.164 127.988l10.113 6.512" stroke-width="1.2" stroke="#000" stroke-miterlimit="10" fill="none"/><path d="M141.05 121.477l-10.695 5.5" stroke-width="1.2" stroke="#00f" stroke-miterlimit="10" fill="none"/><path d="M130.355 126.977l-10.7 5.503" stroke-width="1.2" stroke="#000" stroke-miterlimit="10" fill="none"/><path d="M138.05 115.977h7v11h-7zm0 0" fill="#fff"/><use xlink:href="#b" x="138.051" y="124.64" fill="#00f"/><path d="M116.832 132.344l-.586 12.015" stroke-width="1.2" stroke="#000" stroke-miterlimit="10" fill="none"/><path d="M116.246 144.36l-.582 12.015" stroke-width="1.2" stroke="#f00" stroke-miterlimit="10" fill="none"/><path d="M122.484 132.617l-.582 12.016" stroke-width="1.2" stroke="#000" stroke-miterlimit="10" fill="none"/><path d="M121.902 144.633l-.582 12.015" stroke-width="1.2" stroke="#f00" stroke-miterlimit="10" fill="none"/><path d="M119.656 132.48l-10.113-6.51" stroke-width="1.2" stroke="#000" stroke-miterlimit="10" fill="none"/><path d="M109.543 125.97l-10.113-6.513" stroke-width="1.2" stroke="#00f" stroke-miterlimit="10" fill="none"/><path d="M114.492 151.012h8v11h-8zm0 0" fill="#fff"/><use xlink:href="#a" x="114.492" y="159.675" fill="#f00"/><path d="M99.43 119.457l-10.7 5.504" stroke-width="1.2" stroke="#00f" stroke-miterlimit="10" fill="none"/><path d="M88.73 124.96l-10.695 5.505" stroke-width="1.2" stroke="#000" stroke-miterlimit="10" fill="none"/><path d="M92.43 113.957h14v11h-14zm0 0" fill="#fff"/><g fill="#00f"><use xlink:href="#b" x="92.43" y="122.62"/><use xlink:href="#c" x="99.407" y="122.62"/></g><path d="M78.035 130.465L57.81 117.44M72.95 133.922l-16.184-10.418M76.87 154.496l1.165-24.03M57.81 117.44l-21.396 11.01M36.414 128.45l-1.164 24.027M41.953 131.125l-.933 19.223M35.25 152.477L55.477 165.5M55.477 165.5l21.394-11.004M55.027 159.367l17.114-8.804M55.477 165.5l-1.164 24.03M54.313 189.53l-.583 12.017" stroke-width="1.2" stroke="#000" stroke-miterlimit="10" fill="none"/><path d="M53.73 201.547l-.582 12.016" stroke-width="1.2" stroke="#00f" stroke-miterlimit="10" fill="none"/><path d="M48.543 191.66l-.465 9.613" stroke-width="1.2" stroke="#000" stroke-miterlimit="10" fill="none"/><path d="M48.078 201.273l-.465 9.614" stroke-width="1.2" stroke="#00f" stroke-miterlimit="10" fill="none"/><path d="M59.852 192.207l-.465 9.613" stroke-width="1.2" stroke="#000" stroke-miterlimit="10" fill="none"/><path d="M59.387 201.82l-.465 9.614" stroke-width="1.2" stroke="#00f" stroke-miterlimit="10" fill="none"/><path d="M50.148 208.063h7v11h-7zm0 0" fill="#fff"/><use xlink:href="#b" x="50.148" y="216.726" fill="#00f"/><path d="M204.066 112.484l20.227 13.024" stroke-width="1.2" stroke="#000" stroke-miterlimit="10" fill="none"/></g></svg>