<svg xmlns="http://www.w3.org/2000/svg" xmlns:xlink="http://www.w3.org/1999/xlink" width="300pt" height="300pt" viewBox="0 0 300 300"><defs><symbol overflow="visible"><path d="M.547 1.938V-7.75h5.5v9.688zm.625-.61h4.266v-8.47H1.171zm0 0"/></symbol><symbol overflow="visible" id="a"><path d="M4.328-7.28c-.78 0-1.406.296-1.875.89-.46.585-.687 1.382-.687 2.39 0 1.012.226 1.813.687 2.406.47.586 1.094.875 1.875.875.79 0 1.414-.288 1.875-.874.457-.593.688-1.394.688-2.406 0-1.008-.23-1.805-.687-2.39-.46-.594-1.086-.89-1.875-.89zm0-.892c1.125 0 2.024.383 2.703 1.14C7.708-6.28 8.048-5.27 8.048-4c0 1.262-.34 2.273-1.016 3.03C6.353-.22 5.454.157 4.33.157S2.3-.22 1.625-.97c-.668-.75-1-1.757-1-3.03 0-1.27.332-2.28 1-3.03.676-.76 1.578-1.142 2.703-1.142zm0 0"/></symbol><symbol overflow="visible" id="b"><path d="M1.078-8.016h1.47l3.546 6.704v-6.704h1.062V0H5.688L2.124-6.703V0H1.078zm0 0"/></symbol><symbol overflow="visible" id="c"><path d="M1.078-8.016h1.094v3.282H6.11v-3.282h1.077V0H6.11v-3.813H2.17V0H1.078zm0 0"/></symbol><symbol overflow="visible" id="d"><path d="M5.89-7.75v1.047c-.417-.195-.808-.344-1.17-.438-.368-.094-.72-.14-1.064-.14-.586 0-1.04.116-1.36.343-.323.23-.483.554-.483.968 0 .357.1.626.312.814.22.18.625.324 1.22.437L4-4.593c.813.157 1.41.434 1.797.828.383.387.578.903.578 1.547 0 .783-.262 1.376-.78 1.783-.525.398-1.29.593-2.298.593-.375 0-.78-.047-1.22-.14C1.648-.066 1.208-.19.75-.36v-1.11c.445.25.88.44 1.297.564.426.125.844.187 1.25.187.625 0 1.1-.116 1.437-.358.332-.25.5-.598.5-1.047 0-.395-.12-.703-.36-.922-.24-.226-.636-.398-1.186-.515l-.657-.126c-.81-.156-1.4-.406-1.764-.75C.898-4.78.72-5.258.72-5.875c0-.707.25-1.266.75-1.672.5-.414 1.19-.625 2.077-.625.375 0 .754.04 1.14.11.395.074.797.18 1.204.312zm0 0"/></symbol></defs><g><path fill="#fff" d="M0 0h300v300H0z"/><path d="M35.25 186.34l25.5-2.778M58.316 185.344l7.575 10.347" stroke-width="1.2" stroke="#000" stroke-miterlimit="10" fill="none"/><path d="M65.89 195.69l7.58 10.353" stroke-width="1.2" stroke="#f00" stroke-miterlimit="10" fill="none"/><path d="M63.184 181.78l7.578 10.35" stroke-width="1.2" stroke="#000" stroke-miterlimit="10" fill="none"/><path d="M70.762 192.13l7.578 10.347" stroke-width="1.2" stroke="#f00" stroke-miterlimit="10" fill="none"/><path d="M60.75 183.563l5.172-11.735" stroke-width="1.2" stroke="#000" stroke-miterlimit="10" fill="none"/><path d="M65.922 171.828l5.172-11.738" stroke-width="1.2" stroke="#00f" stroke-miterlimit="10" fill="none"/><path d="M71.906 197.758h9v13h-9zm0 0" fill="#fff"/><use xlink:href="#a" x="71.906" y="207.659" fill="#f00"/><path d="M71.094 160.09l12.75-1.387" stroke-width="1.2" stroke="#00f" stroke-miterlimit="10" fill="none"/><path d="M83.844 158.703l12.75-1.387" stroke-width="1.2" stroke="#000" stroke-miterlimit="10" fill="none"/><path d="M63.094 153.59h17v13h-17zm0 0" fill="#fff"/><g fill="#00f"><use xlink:href="#b" x="63.094" y="163.491"/><use xlink:href="#c" x="71.077" y="163.491"/></g><path d="M96.594 157.316l10.347-23.472M106.94 133.844l12.75-1.39" stroke-width="1.2" stroke="#000" stroke-miterlimit="10" fill="none"/><path d="M119.69 132.453l12.75-1.387M132.44 131.066l5.173-11.734" stroke-width="1.2" stroke="#00f" stroke-miterlimit="10" fill="none"/><path d="M137.613 119.332l5.172-11.738" stroke-width="1.2" stroke="#000" stroke-miterlimit="10" fill="none"/><path d="M124.44 124.566h17v13h-17zm0 0" fill="#fff"/><g fill="#00f"><use xlink:href="#b" x="124.441" y="134.468"/><use xlink:href="#c" x="132.425" y="134.468"/></g><path d="M142.785 107.594l-7.574-10.348" stroke-width="1.2" stroke="#000" stroke-miterlimit="10" fill="none"/><path d="M135.21 97.246l-7.577-10.348" stroke-width="1.2" stroke="#00f" stroke-miterlimit="10" fill="none"/><path d="M146.14 101.96l-6.062-8.28" stroke-width="1.2" stroke="#000" stroke-miterlimit="10" fill="none"/><path d="M140.078 93.68l-6.058-8.278" stroke-width="1.2" stroke="#00f" stroke-miterlimit="10" fill="none"/><path d="M168.285 104.82l-25.5 2.774" stroke-width="1.2" stroke="#000" stroke-miterlimit="10" fill="none"/><path d="M127.633 86.898l5.172-11.734" stroke-width="1.2" stroke="#00f" stroke-miterlimit="10" fill="none"/><path d="M132.805 75.164l5.172-11.738" stroke-width="1.2" stroke="#000" stroke-miterlimit="10" fill="none"/><path d="M123.633 80.398h8v13h-8zm0 0" fill="#fff"/><use xlink:href="#b" x="123.633" y="90.3" fill="#00f"/><path d="M137.977 63.426l12.75-1.387" stroke-width="1.2" stroke="#000" stroke-miterlimit="10" fill="none"/><path d="M150.727 62.04l12.75-1.388" stroke-width="1.2" stroke="#00f" stroke-miterlimit="10" fill="none"/><path d="M141.184 69.148l10.2-1.11" stroke-width="1.2" stroke="#000" stroke-miterlimit="10" fill="none"/><path d="M151.383 68.04l10.2-1.11M163.477 60.652L171.055 71" stroke-width="1.2" stroke="#00f" stroke-miterlimit="10" fill="none"/><path d="M171.055 71l7.578 10.348" stroke-width="1.2" stroke="#000" stroke-miterlimit="10" fill="none"/><path d="M159.477 54.152h8v13h-8zm0 0" fill="#fff"/><use xlink:href="#b" x="159.477" y="64.054" fill="#00f"/><path d="M178.633 81.348l-10.348 23.472M183.12 86.13l-8.276 18.776M204.133 78.57l-25.5 2.778M168.285 104.82l15.156 20.696M183.44 125.516l25.5-2.778M185.34 119.238l20.398-2.222M208.94 122.738l10.345-23.472M208.94 122.738l15.154 20.696M219.285 99.266L204.133 78.57M212.902 100.762l-12.125-16.555M224.094 143.434l-10.344 23.472M228.582 148.215l-8.273 18.777M249.594 140.656l-25.5 2.778M213.75 166.906l15.156 20.696M228.906 187.602l25.5-2.778M230.8 181.324l20.4-2.222M228.906 187.602l-5.176 11.734" stroke-width="1.2" stroke="#000" stroke-miterlimit="10" fill="none"/><path d="M223.73 199.336l-5.17 11.738" stroke-width="1.2" stroke="#00f" stroke-miterlimit="10" fill="none"/><path d="M254.406 184.824l10.344-23.472M264.75 161.352l-15.156-20.696M258.363 162.848l-12.12-16.555" stroke-width="1.2" stroke="#000" stroke-miterlimit="10" fill="none"/><path d="M218.56 211.074l-12.75 1.387" stroke-width="1.2" stroke="#00f" stroke-miterlimit="10" fill="none"/><path d="M205.81 212.46l-12.75 1.388" stroke-width="1.2" stroke="#cc0" stroke-miterlimit="10" fill="none"/><path d="M210.56 204.574h17v13h-17zm0 0" fill="#fff"/><g fill="#00f"><use xlink:href="#b" x="210.559" y="214.476"/><use xlink:href="#c" x="218.542" y="214.476"/></g><path d="M196.06 213.523l-1.388-12.75" stroke-width="1.2" stroke="#cc0" stroke-miterlimit="10" fill="none"/><path d="M194.672 200.773l-1.39-12.75" stroke-width="1.2" stroke="#f00" stroke-miterlimit="10" fill="none"/><path d="M190.06 214.176l-1.388-12.75" stroke-width="1.2" stroke="#cc0" stroke-miterlimit="10" fill="none"/><path d="M188.672 201.426l-1.39-12.75" stroke-width="1.2" stroke="#f00" stroke-miterlimit="10" fill="none"/><path d="M190.06 214.176l1.385 12.75" stroke-width="1.2" stroke="#cc0" stroke-miterlimit="10" fill="none"/><path d="M191.445 226.926l1.39 12.75" stroke-width="1.2" stroke="#f00" stroke-miterlimit="10" fill="none"/><path d="M196.06 213.523l1.385 12.75" stroke-width="1.2" stroke="#cc0" stroke-miterlimit="10" fill="none"/><path d="M197.445 226.273l1.39 12.75" stroke-width="1.2" stroke="#f00" stroke-miterlimit="10" fill="none"/><path d="M193.06 213.848l-12.75 1.39" stroke-width="1.2" stroke="#cc0" stroke-miterlimit="10" fill="none"/><path d="M180.31 215.238l-12.75 1.387" stroke-width="1.2" stroke="#000" stroke-miterlimit="10" fill="none"/><path d="M190.06 207.348h7v13h-7zm0 0" fill="#fff"/><use xlink:href="#d" x="190.059" y="217.249" fill="#cc0"/><path d="M186.28 181.848h9v13h-9zm0 0" fill="#fff"/><use xlink:href="#a" x="186.281" y="191.749" fill="#f00"/><path d="M191.836 232.848h9v13h-9zm0 0" fill="#fff"/><use xlink:href="#a" x="191.836" y="242.749" fill="#f00"/></g></svg>