<svg xmlns="http://www.w3.org/2000/svg" xmlns:xlink="http://www.w3.org/1999/xlink" width="300pt" height="300pt" viewBox="0 0 300 300"><defs><symbol overflow="visible"><path d="M.594 2.125V-8.47h6V2.126zm.672-.672h4.671V-7.78h-4.67zm0 0"/></symbol><symbol overflow="visible" id="a"><path d="M1.172-8.75h1.594l3.89 7.313V-8.75h1.14V0H6.204L2.328-7.313V0H1.172zm0 0"/></symbol><symbol overflow="visible" id="b"><path d="M7.734-8.078v1.25c-.406-.375-.836-.65-1.28-.828-.45-.188-.93-.282-1.438-.282-1 0-1.766.31-2.297.922-.533.618-.798 1.5-.798 2.657 0 1.15.266 2.028.797 2.64.53.618 1.296.923 2.296.923.507 0 .988-.094 1.437-.28.445-.19.875-.462 1.28-.83V-.67c-.417.28-.858.496-1.327.64-.46.134-.945.204-1.453.204-1.336 0-2.383-.406-3.14-1.22-.762-.81-1.14-1.913-1.14-3.31 0-1.408.378-2.517 1.14-3.33.757-.812 1.804-1.218 3.14-1.218.52 0 1.008.074 1.47.22.468.135.905.338 1.31.608zm0 0"/></symbol><symbol overflow="visible" id="c"><path d="M1.125-9.125h1.078V0H1.125zm0 0"/></symbol><symbol overflow="visible" id="d"><path d="M1.172-8.75H2.36v3.594h4.296V-8.75h1.188V0H6.656v-4.172H2.36V0H1.17zm0 0"/></symbol><symbol overflow="visible" id="e"><path d="M6.422-8.47v1.158c-.45-.208-.875-.364-1.28-.47-.4-.113-.78-.17-1.142-.17-.648 0-1.148.124-1.5.374-.344.25-.516.61-.516 1.078 0 .387.114.68.344.875.227.2.672.355 1.328.47L4.36-5c.882.168 1.535.465 1.952.89.426.42.64.98.64 1.688 0 .856-.288 1.5-.858 1.938-.563.437-1.4.656-2.5.656-.406 0-.844-.047-1.313-.14C1.814-.064 1.33-.204.83-.392v-1.22c.477.274.945.477 1.406.61.47.137.922.203 1.36.203.676 0 1.195-.13 1.562-.39.375-.27.563-.65.563-1.14 0-.427-.138-.76-.407-1-.262-.25-.696-.43-1.297-.548l-.72-.14c-.886-.176-1.526-.454-1.92-.83-.388-.374-.58-.893-.58-1.56 0-.782.27-1.392.813-1.83.538-.445 1.288-.67 2.25-.67.413 0 .83.038 1.25.108.425.074.863.184 1.312.328zm0 0"/></symbol></defs><g><path fill="#fff" d="M0 0h300v300H0z"/><path d="M151.44 229.88l-28.73 5.768M147.21 223.695l-22.983 4.618M160.813 202.11l-9.372 27.77M122.71 235.648l-19.366-21.996M103.344 213.652l9.367-27.77M110.816 213.078l7.493-22.215M112.71 185.883l28.735-5.774" stroke-width="1.2" stroke="#000" stroke-miterlimit="10" fill="none"/><path d="M93.348 163.887l9.68 10.996" stroke-width="1.2" stroke="#00f" stroke-miterlimit="10" fill="none"/><path d="M103.027 174.883l9.684 11M141.445 180.11l19.368 22M138.207 186.867l15.492 17.598M141.445 180.11l9.368-27.77M150.813 152.34l-9.684-10.996" stroke-width="1.2" stroke="#000" stroke-miterlimit="10" fill="none"/><path d="M141.13 141.344l-9.68-11" stroke-width="1.2" stroke="#00f" stroke-miterlimit="10" fill="none"/><path d="M143.7 154.7l-7.747-8.802" stroke-width="1.2" stroke="#000" stroke-miterlimit="10" fill="none"/><path d="M135.953 145.898l-7.746-8.8" stroke-width="1.2" stroke="#00f" stroke-miterlimit="10" fill="none"/><path d="M150.813 152.34l14.367-2.887" stroke-width="1.2" stroke="#000" stroke-miterlimit="10" fill="none"/><path d="M165.18 149.453l14.367-2.883M131.45 130.344l-14.368 2.886" stroke-width="1.2" stroke="#00f" stroke-miterlimit="10" fill="none"/><path d="M117.082 133.23l-14.367 2.883" stroke-width="1.2" stroke="#000" stroke-miterlimit="10" fill="none"/><path d="M127.45 123.344h9v14h-9zm0 0" fill="#fff"/><use xlink:href="#a" x="127.449" y="134.482" fill="#00f"/><path d="M102.715 136.113L98.03 150" stroke-width="1.2" stroke="#000" stroke-miterlimit="10" fill="none"/><path d="M98.03 150l-4.682 13.887" stroke-width="1.2" stroke="#00f" stroke-miterlimit="10" fill="none"/><path d="M108.313 141.098l-3.747 11.105" stroke-width="1.2" stroke="#000" stroke-miterlimit="10" fill="none"/><path d="M104.566 152.203l-3.75 11.11" stroke-width="1.2" stroke="#00f" stroke-miterlimit="10" fill="none"/><path d="M102.715 136.113l-19.367-21.996" stroke-width="1.2" stroke="#000" stroke-miterlimit="10" fill="none"/><path d="M89.348 156.887h9v14h-9zm0 0" fill="#fff"/><use xlink:href="#a" x="89.348" y="168.025" fill="#00f"/><path d="M83.348 114.117l9.367-27.77M77.75 109.137l7.496-22.215M54.617 119.89l28.73-5.773M92.715 86.348L73.352 64.352M73.352 64.352l-28.735 5.77M71.836 71.688l-22.988 4.617M44.617 70.12L35.25 97.89M35.25 97.89l19.367 22M42.363 95.535l15.492 17.598M54.617 119.89l-4.687 13.883" stroke-width="1.2" stroke="#000" stroke-miterlimit="10" fill="none"/><path d="M49.93 133.773l-4.684 13.887" stroke-width="1.2" stroke="#0c0" stroke-miterlimit="10" fill="none"/><path d="M33.246 140.66h12v14h-12zm0 0" fill="#fff"/><g fill="#0c0"><use xlink:href="#b" x="33.246" y="151.799"/><use xlink:href="#c" x="41.625" y="151.799"/></g><path d="M179.547 146.57l4.683-13.886" stroke-width="1.2" stroke="#00f" stroke-miterlimit="10" fill="none"/><path d="M184.23 132.684l4.684-13.887" stroke-width="1.2" stroke="#000" stroke-miterlimit="10" fill="none"/><path d="M170.547 139.57h18v14h-18zm0 0" fill="#fff"/><g fill="#00f"><use xlink:href="#a" x="170.547" y="150.709"/><use xlink:href="#d" x="179.523" y="150.709"/></g><path d="M188.914 118.797l28.734-5.77M217.648 113.027l12.22-26.64M225.137 113.238l9.777-21.312" stroke-width="1.2" stroke="#000" stroke-miterlimit="10" fill="none"/><path d="M239.207 132.88l-10.78-9.927" stroke-width="1.2" stroke="#cc0" stroke-miterlimit="10" fill="none"/><path d="M228.426 122.953l-10.778-9.926M229.867 86.387l29.11 3.39M258.977 89.777l5.773 28.735M252.793 94.008l4.617 22.988M264.75 118.512l-12.773 7.183" stroke-width="1.2" stroke="#000" stroke-miterlimit="10" fill="none"/><path d="M251.977 125.695l-12.77 7.184" stroke-width="1.2" stroke="#cc0" stroke-miterlimit="10" fill="none"/><path d="M235.207 125.88h8v14h-8zm0 0" fill="#fff"/><use xlink:href="#e" x="235.207" y="137.018" fill="#cc0"/></g></svg>