<svg xmlns="http://www.w3.org/2000/svg" xmlns:xlink="http://www.w3.org/1999/xlink" width="300pt" height="300pt" viewBox="0 0 300 300"><defs><symbol overflow="visible"><path d="M.64 2.297v-11.47h6.5v11.47zm.735-.72h5.047V-8.436H1.375zm0 0"/></symbol><symbol overflow="visible" id="a"><path d="M1.28-9.484H3l4.203 7.937v-7.937h1.25V0H6.72L2.515-7.922V0H1.28zm0 0"/></symbol><symbol overflow="visible" id="b"><path d="M5.125-8.61c-.938 0-1.684.352-2.234 1.047-.542.688-.812 1.633-.812 2.83 0 1.198.27 2.147.813 2.842.55.687 1.297 1.03 2.235 1.03.926 0 1.66-.343 2.203-1.03.55-.696.828-1.645.828-2.844 0-1.196-.277-2.14-.828-2.829-.543-.695-1.277-1.046-2.203-1.046zm0-1.046c1.32 0 2.38.45 3.172 1.344.8.898 1.203 2.09 1.203 3.578 0 1.5-.402 2.7-1.203 3.593C7.504-.255 6.445.186 5.125.186c-1.336 0-2.402-.44-3.203-1.328C1.13-2.036.734-3.235.734-4.735c0-1.49.395-2.68 1.188-3.579.8-.894 1.867-1.343 3.203-1.343zm0 0"/></symbol></defs><g><path fill="#fff" d="M0 0h300v300H0z"/><path d="M35.25 53.352l19.988 27.613M55.238 80.965l-6.96 15.558" stroke-width="1.2" stroke="#000" stroke-miterlimit="10" fill="none"/><path d="M48.277 96.523l-6.96 15.56" stroke-width="1.2" stroke="#00f" stroke-miterlimit="10" fill="none"/><path d="M61.168 87.352l-5.57 12.45" stroke-width="1.2" stroke="#000" stroke-miterlimit="10" fill="none"/><path d="M55.598 99.8l-5.567 12.446" stroke-width="1.2" stroke="#00f" stroke-miterlimit="10" fill="none"/><path d="M89.145 77.465l-33.907 3.5" stroke-width="1.2" stroke="#000" stroke-miterlimit="10" fill="none"/><path d="M41.316 112.082l9.993 13.81" stroke-width="1.2" stroke="#00f" stroke-miterlimit="10" fill="none"/><path d="M51.31 125.89l9.995 13.805" stroke-width="1.2" stroke="#000" stroke-miterlimit="10" fill="none"/><path d="M36.316 104.082h10v16h-10zm0 0" fill="#fff"/><use xlink:href="#a" x="36.316" y="116.458" fill="#00f"/><path d="M61.305 139.695l-13.922 31.118M67.234 146.082l-11.136 24.895M95.21 136.19l-33.905 3.505M47.383 170.813l9.996 13.804" stroke-width="1.2" stroke="#000" stroke-miterlimit="10" fill="none"/><path d="M57.38 184.617l9.99 13.81M67.37 198.426l16.954-1.75" stroke-width="1.2" stroke="#00f" stroke-miterlimit="10" fill="none"/><path d="M84.324 196.676l16.953-1.754" stroke-width="1.2" stroke="#000" stroke-miterlimit="10" fill="none"/><path d="M69.938 190.098l13.562-1.403" stroke-width="1.2" stroke="#00f" stroke-miterlimit="10" fill="none"/><path d="M83.5 188.695l13.563-1.398" stroke-width="1.2" stroke="#000" stroke-miterlimit="10" fill="none"/><path d="M62.37 190.426h10v16h-10zm0 0" fill="#fff"/><use xlink:href="#a" x="62.371" y="202.802" fill="#00f"/><path d="M101.277 194.922l6.96-15.56" stroke-width="1.2" stroke="#000" stroke-miterlimit="10" fill="none"/><path d="M108.238 179.363l6.96-15.554" stroke-width="1.2" stroke="#00f" stroke-miterlimit="10" fill="none"/><path d="M101.277 194.922l9.996 13.808" stroke-width="1.2" stroke="#000" stroke-miterlimit="10" fill="none"/><path d="M111.273 208.73l9.993 13.805M115.2 163.81L105.206 150" stroke-width="1.2" stroke="#00f" stroke-miterlimit="10" fill="none"/><path d="M105.207 150l-9.996-13.81" stroke-width="1.2" stroke="#000" stroke-miterlimit="10" fill="none"/><path d="M106.703 165.75l-7.996-11.047" stroke-width="1.2" stroke="#00f" stroke-miterlimit="10" fill="none"/><path d="M98.707 154.703l-7.992-11.047" stroke-width="1.2" stroke="#000" stroke-miterlimit="10" fill="none"/><path d="M110.2 155.81h10v16h-10zm0 0" fill="#fff"/><use xlink:href="#a" x="110.199" y="168.185" fill="#00f"/><path d="M95.21 136.19l6.962-15.553" stroke-width="1.2" stroke="#000" stroke-miterlimit="10" fill="none"/><path d="M102.172 120.637l6.96-15.56M109.133 105.078L99.137 91.27" stroke-width="1.2" stroke="#00f" stroke-miterlimit="10" fill="none"/><path d="M99.137 91.27l-9.992-13.805" stroke-width="1.2" stroke="#000" stroke-miterlimit="10" fill="none"/><path d="M109.133 105.078l16.953-1.754" stroke-width="1.2" stroke="#00f" stroke-miterlimit="10" fill="none"/><path d="M126.086 103.324l16.953-1.75" stroke-width="1.2" stroke="#000" stroke-miterlimit="10" fill="none"/><path d="M104.133 97.078h10v16h-10zm0 0" fill="#fff"/><use xlink:href="#a" x="104.133" y="109.454" fill="#00f"/><path d="M92.805 79.102l6.96-15.56" stroke-width="1.2" stroke="#000" stroke-miterlimit="10" fill="none"/><path d="M99.766 63.543l6.96-15.56" stroke-width="1.2" stroke="#f00" stroke-miterlimit="10" fill="none"/><path d="M85.484 75.824l6.96-15.554" stroke-width="1.2" stroke="#000" stroke-miterlimit="10" fill="none"/><path d="M92.445 60.27l6.96-15.56" stroke-width="1.2" stroke="#f00" stroke-miterlimit="10" fill="none"/><path d="M98.066 38.348h11v16h-11zm0 0" fill="#fff"/><use xlink:href="#b" x="98.066" y="50.724" fill="#f00"/><path d="M143.04 101.574l19.987 27.614M163.027 129.188l33.907-3.504M196.934 125.684l19.988 27.613M205.43 123.742l15.992 22.094M210.855 94.57l-13.92 31.114M216.922 153.297l33.906-3.5M250.828 149.797l13.922-31.117M244.898 143.41l11.137-24.894M264.75 118.68l-19.988-27.614M244.762 91.066l-33.907 3.504M242.195 99.395l-27.125 2.8" stroke-width="1.2" stroke="#000" stroke-miterlimit="10" fill="none"/><path d="M121.266 222.535l-6.96 15.56" stroke-width="1.2" stroke="#00f" stroke-miterlimit="10" fill="none"/><path d="M114.305 238.094l-6.96 15.558" stroke-width="1.2" stroke="#000" stroke-miterlimit="10" fill="none"/><path d="M121.266 222.535l16.953-1.75" stroke-width="1.2" stroke="#00f" stroke-miterlimit="10" fill="none"/><path d="M138.22 220.785l16.952-1.75" stroke-width="1.2" stroke="#000" stroke-miterlimit="10" fill="none"/><path d="M116.266 214.535h10v16h-10zm0 0" fill="#fff"/><use xlink:href="#a" x="116.266" y="226.911" fill="#00f"/></g></svg>