<svg xmlns="http://www.w3.org/2000/svg" xmlns:xlink="http://www.w3.org/1999/xlink" width="300pt" height="300pt" viewBox="0 0 300 300"><defs><symbol overflow="visible"><path d="M.453 1.594v-7.938h4.5v7.938zm.5-.5h3.5v-6.938h-3.5zm0 0"/></symbol><symbol overflow="visible" id="a"><path d="M.89-6.563H2.08l2.906 5.485v-5.484h.86V0H4.656L1.75-5.484V0H.89zm0 0"/></symbol><symbol overflow="visible" id="b"><path d="M.89-6.563h.876v2.688H5v-2.688h.89V0H5v-3.125H1.766V0H.89zm0 0"/></symbol><symbol overflow="visible" id="c"><path d="M3.547-5.953c-.65 0-1.164.242-1.547.72-.375.48-.563 1.13-.563 1.952 0 .835.188 1.49.563 1.967.383.48.898.72 1.547.72.644 0 1.156-.24 1.53-.72.376-.476.564-1.132.564-1.968 0-.822-.187-1.474-.562-1.954-.375-.477-.887-.72-1.53-.72zm0-.734c.914 0 1.648.312 2.203.937.55.617.828 1.438.828 2.47 0 1.042-.277 1.87-.828 2.483-.555.617-1.29.922-2.203.922-.93 0-1.668-.305-2.22-.922C.774-1.41.5-2.237.5-3.28c0-1.033.273-1.853.828-2.47.55-.625 1.29-.938 2.22-.938zm0 0"/></symbol></defs><g><path fill="#fff" d="M0 0h300v300H0z"/><path d="M35.25 173.738l22.18-9.91M57.43 163.828l2.508-24.164M63.367 162l2.004-19.328" stroke-width="1.2" stroke="#000" stroke-miterlimit="10" fill="none"/><path d="M77.102 178.082l-9.836-7.13" stroke-width="1.2" stroke="#00f" stroke-miterlimit="10" fill="none"/><path d="M67.266 170.953l-9.836-7.125M59.938 139.664l11.09-4.957" stroke-width="1.2" stroke="#000" stroke-miterlimit="10" fill="none"/><path d="M71.027 134.707l11.09-4.953M82.117 129.754l9.836 7.125" stroke-width="1.2" stroke="#00f" stroke-miterlimit="10" fill="none"/><path d="M91.953 136.88l9.836 7.128" stroke-width="1.2" stroke="#000" stroke-miterlimit="10" fill="none"/><path d="M80.73 135.81l7.872 5.698" stroke-width="1.2" stroke="#00f" stroke-miterlimit="10" fill="none"/><path d="M88.602 141.508l7.867 5.703" stroke-width="1.2" stroke="#000" stroke-miterlimit="10" fill="none"/><path d="M79.117 124.254h7v11h-7zm0 0" fill="#fff"/><use xlink:href="#a" x="79.117" y="132.917" fill="#00f"/><path d="M101.79 144.008l-2.505 24.164M101.79 144.008l22.183-9.91M99.285 168.172l-11.094 4.953" stroke-width="1.2" stroke="#000" stroke-miterlimit="10" fill="none"/><path d="M88.19 173.125l-11.088 4.957" stroke-width="1.2" stroke="#00f" stroke-miterlimit="10" fill="none"/><path d="M94.734 163.94l-8.875 3.966" stroke-width="1.2" stroke="#000" stroke-miterlimit="10" fill="none"/><path d="M85.86 167.906l-8.872 3.965" stroke-width="1.2" stroke="#00f" stroke-miterlimit="10" fill="none"/><path d="M74.102 172.582h7v11h-7zm0 0" fill="#fff"/><use xlink:href="#a" x="74.102" y="181.245" fill="#00f"/><path d="M123.973 134.098l9.836 7.125" stroke-width="1.2" stroke="#000" stroke-miterlimit="10" fill="none"/><path d="M133.81 141.223l9.835 7.13M143.645 148.352l11.09-4.957" stroke-width="1.2" stroke="#00f" stroke-miterlimit="10" fill="none"/><path d="M154.734 143.395l11.09-4.958" stroke-width="1.2" stroke="#000" stroke-miterlimit="10" fill="none"/><path d="M136.645 142.852h14v11h-14zm0 0" fill="#fff"/><g fill="#00f"><use xlink:href="#a" x="136.645" y="151.515"/><use xlink:href="#b" x="143.622" y="151.515"/></g><path d="M165.824 138.438l9.836 7.128" stroke-width="1.2" stroke="#000" stroke-miterlimit="10" fill="none"/><path d="M175.66 145.566l9.836 7.125" stroke-width="1.2" stroke="#00f" stroke-miterlimit="10" fill="none"/><path d="M171.145 135.234l7.87 5.703" stroke-width="1.2" stroke="#000" stroke-miterlimit="10" fill="none"/><path d="M179.016 140.938l7.867 5.7" stroke-width="1.2" stroke="#00f" stroke-miterlimit="10" fill="none"/><path d="M168.332 114.277l-2.508 24.16" stroke-width="1.2" stroke="#000" stroke-miterlimit="10" fill="none"/><path d="M185.496 152.69l11.09-4.952" stroke-width="1.2" stroke="#00f" stroke-miterlimit="10" fill="none"/><path d="M196.586 147.738l11.09-4.957" stroke-width="1.2" stroke="#000" stroke-miterlimit="10" fill="none"/><path d="M182.496 147.19h7v11h-7zm0 0" fill="#fff"/><use xlink:href="#a" x="182.496" y="155.854" fill="#00f"/><path d="M207.676 142.78l1.254-12.08" stroke-width="1.2" stroke="#000" stroke-miterlimit="10" fill="none"/><path d="M208.93 130.7l1.254-12.083" stroke-width="1.2" stroke="#00f" stroke-miterlimit="10" fill="none"/><path d="M202.242 139.777l1.004-9.668" stroke-width="1.2" stroke="#000" stroke-miterlimit="10" fill="none"/><path d="M203.246 130.11l1.004-9.665" stroke-width="1.2" stroke="#00f" stroke-miterlimit="10" fill="none"/><path d="M207.676 142.78l19.676 14.255" stroke-width="1.2" stroke="#000" stroke-miterlimit="10" fill="none"/><path d="M210.184 118.617l-9.836-7.125" stroke-width="1.2" stroke="#00f" stroke-miterlimit="10" fill="none"/><path d="M200.348 111.492l-9.836-7.13" stroke-width="1.2" stroke="#000" stroke-miterlimit="10" fill="none"/><path d="M207.184 113.117h7v11h-7zm0 0" fill="#fff"/><use xlink:href="#a" x="207.184" y="121.78" fill="#00f"/><path d="M190.512 104.363l-22.18 9.914M190.625 110.574l-17.742 7.93M227.352 157.035l23.093-7.535M231.434 161.715l18.476-6.028M227.383 181.328l-.03-24.293M250.445 149.5l7.153 9.816" stroke-width="1.2" stroke="#000" stroke-miterlimit="10" fill="none"/><path d="M257.598 159.316l7.152 9.817" stroke-width="1.2" stroke="#f00" stroke-miterlimit="10" fill="none"/><path d="M250.445 149.5l7.477-23.117" stroke-width="1.2" stroke="#000" stroke-miterlimit="10" fill="none"/><path d="M264.75 169.133l-7.125 9.836" stroke-width="1.2" stroke="#f00" stroke-miterlimit="10" fill="none"/><path d="M257.625 178.97l-7.13 9.835" stroke-width="1.2" stroke="#00f" stroke-miterlimit="10" fill="none"/><path d="M260.75 163.633h8v11h-8zm0 0" fill="#fff"/><use xlink:href="#c" x="260.75" y="172.296" fill="#f00"/><path d="M250.496 188.805l-11.56-3.74" stroke-width="1.2" stroke="#00f" stroke-miterlimit="10" fill="none"/><path d="M238.938 185.066l-11.555-3.738" stroke-width="1.2" stroke="#000" stroke-miterlimit="10" fill="none"/><path d="M249.945 182.62l-9.246-2.99" stroke-width="1.2" stroke="#00f" stroke-miterlimit="10" fill="none"/><path d="M240.7 179.63l-9.247-2.993" stroke-width="1.2" stroke="#000" stroke-miterlimit="10" fill="none"/><path d="M247.496 183.305h7v11h-7zm0 0" fill="#fff"/><use xlink:href="#a" x="247.496" y="191.968" fill="#00f"/><path d="M227.383 181.328l-19.637 14.31" stroke-width="1.2" stroke="#000" stroke-miterlimit="10" fill="none"/></g></svg>