<svg xmlns="http://www.w3.org/2000/svg" xmlns:xlink="http://www.w3.org/1999/xlink" width="300pt" height="300pt" viewBox="0 0 300 300"><defs><symbol overflow="visible"><path d="M.453 1.594v-7.938h4.5v7.938zm.5-.5h3.5v-6.938h-3.5zm0 0"/></symbol><symbol overflow="visible" id="a"><path d="M.89-6.563H2.08l2.906 5.485v-5.484h.86V0H4.656L1.75-5.484V0H.89zm0 0"/></symbol><symbol overflow="visible" id="b"><path d="M.89-6.563h.876v2.688H5v-2.688h.89V0H5v-3.125H1.766V0H.89zm0 0"/></symbol><symbol overflow="visible" id="c"><path d="M3.547-5.953c-.65 0-1.164.242-1.547.72-.375.48-.563 1.13-.563 1.952 0 .835.188 1.49.563 1.967.383.48.898.72 1.547.72.644 0 1.156-.24 1.53-.72.376-.476.564-1.132.564-1.968 0-.822-.187-1.474-.562-1.954-.375-.477-.887-.72-1.53-.72zm0-.734c.914 0 1.648.312 2.203.937.55.617.828 1.438.828 2.47 0 1.042-.277 1.87-.828 2.483-.555.617-1.29.922-2.203.922-.93 0-1.668-.305-2.22-.922C.774-1.41.5-2.237.5-3.28c0-1.033.273-1.853.828-2.47.55-.625 1.29-.938 2.22-.938zm0 0"/></symbol></defs><g><path fill="#fff" d="M0 0h300v300H0z"/><path d="M42.242 194.082l20.863-3.973" stroke-width="1.2" stroke="#000" stroke-miterlimit="10" fill="none"/><path d="M35.25 214.137l3.496-10.028" stroke-width="1.2" stroke="#00f" stroke-miterlimit="10" fill="none"/><path d="M38.746 204.11l3.496-10.028M63.105 190.11l6.938 8.042" stroke-width="1.2" stroke="#000" stroke-miterlimit="10" fill="none"/><path d="M70.043 198.152l6.934 8.04M76.977 206.19l-3.497 10.03" stroke-width="1.2" stroke="#00f" stroke-miterlimit="10" fill="none"/><path d="M73.48 216.22l-3.496 10.026" stroke-width="1.2" stroke="#000" stroke-miterlimit="10" fill="none"/><path d="M76.977 206.19l10.433-1.983" stroke-width="1.2" stroke="#00f" stroke-miterlimit="10" fill="none"/><path d="M87.41 204.207l10.43-1.988" stroke-width="1.2" stroke="#000" stroke-miterlimit="10" fill="none"/><path d="M73.977 200.69h7v11h-7zm0 0" fill="#fff"/><use xlink:href="#a" x="73.977" y="209.354" fill="#00f"/><path d="M69.984 226.246L49.12 230.22M49.12 230.22l-6.932-8.04" stroke-width="1.2" stroke="#000" stroke-miterlimit="10" fill="none"/><path d="M42.188 222.18l-6.938-8.043" stroke-width="1.2" stroke="#00f" stroke-miterlimit="10" fill="none"/><path d="M28.25 208.637h14v11h-14zm0 0" fill="#fff"/><g fill="#00f"><use xlink:href="#a" x="28.25" y="217.3"/><use xlink:href="#b" x="35.228" y="217.3"/></g><path d="M97.84 202.22l6.937 8.042" stroke-width="1.2" stroke="#000" stroke-miterlimit="10" fill="none"/><path d="M104.777 210.262l6.938 8.04" stroke-width="1.2" stroke="#00f" stroke-miterlimit="10" fill="none"/><path d="M103.012 200.563l5.55 6.433" stroke-width="1.2" stroke="#000" stroke-miterlimit="10" fill="none"/><path d="M108.563 206.996l5.546 6.434M104.832 182.164l-3.496 10.027" stroke-width="1.2" stroke="#00f" stroke-miterlimit="10" fill="none"/><path d="M101.336 192.19l-3.496 10.03" stroke-width="1.2" stroke="#000" stroke-miterlimit="10" fill="none"/><path d="M111.715 218.3l10.43-1.984" stroke-width="1.2" stroke="#00f" stroke-miterlimit="10" fill="none"/><path d="M122.145 216.316l10.433-1.988" stroke-width="1.2" stroke="#000" stroke-miterlimit="10" fill="none"/><path d="M108.715 212.8h7v11h-7zm0 0" fill="#fff"/><use xlink:href="#a" x="108.715" y="221.464" fill="#00f"/><path d="M132.578 214.328l6.988-20.055M128.56 210.676l5.588-16.043M139.566 194.273l-13.87-16.082" stroke-width="1.2" stroke="#000" stroke-miterlimit="10" fill="none"/><path d="M160.434 190.3L150 192.286" stroke-width="1.2" stroke="#00f" stroke-miterlimit="10" fill="none"/><path d="M150 192.285l-10.434 1.988M125.695 178.19l-10.43 1.986" stroke-width="1.2" stroke="#000" stroke-miterlimit="10" fill="none"/><path d="M115.266 180.176l-10.434 1.988" stroke-width="1.2" stroke="#00f" stroke-miterlimit="10" fill="none"/><path d="M124.543 183.496l-8.344 1.59" stroke-width="1.2" stroke="#000" stroke-miterlimit="10" fill="none"/><path d="M116.2 185.086l-8.348 1.59" stroke-width="1.2" stroke="#00f" stroke-miterlimit="10" fill="none"/><path d="M125.695 178.19l3.496-10.026" stroke-width="1.2" stroke="#000" stroke-miterlimit="10" fill="none"/><path d="M129.19 168.164l3.498-10.027" stroke-width="1.2" stroke="#00f" stroke-miterlimit="10" fill="none"/><path d="M101.832 176.664h7v11h-7zm0 0" fill="#fff"/><use xlink:href="#a" x="101.832" y="185.327" fill="#00f"/><path d="M132.688 158.137l10.43-1.99" stroke-width="1.2" stroke="#00f" stroke-miterlimit="10" fill="none"/><path d="M143.117 156.148l10.434-1.984" stroke-width="1.2" stroke="#000" stroke-miterlimit="10" fill="none"/><path d="M132.688 158.137l-6.938-8.043" stroke-width="1.2" stroke="#00f" stroke-miterlimit="10" fill="none"/><path d="M125.75 150.094l-6.934-8.04" stroke-width="1.2" stroke="#000" stroke-miterlimit="10" fill="none"/><path d="M129.688 152.637h7v11h-7zm0 0" fill="#fff"/><use xlink:href="#a" x="129.688" y="161.3" fill="#00f"/><path d="M155.91 154.984l3.496-10.027" stroke-width="1.2" stroke="#000" stroke-miterlimit="10" fill="none"/><path d="M159.406 144.957l3.496-10.027" stroke-width="1.2" stroke="#f00" stroke-miterlimit="10" fill="none"/><path d="M151.19 153.34l3.498-10.028" stroke-width="1.2" stroke="#000" stroke-miterlimit="10" fill="none"/><path d="M154.688 143.313l3.496-10.028" stroke-width="1.2" stroke="#f00" stroke-miterlimit="10" fill="none"/><path d="M153.55 154.164l13.872 16.082" stroke-width="1.2" stroke="#000" stroke-miterlimit="10" fill="none"/><path d="M156.543 128.61h8v11h-8zm0 0" fill="#fff"/><use xlink:href="#c" x="156.543" y="137.272" fill="#f00"/><path d="M167.422 170.246l-3.496 10.027" stroke-width="1.2" stroke="#000" stroke-miterlimit="10" fill="none"/><path d="M163.926 180.273l-3.492 10.028" stroke-width="1.2" stroke="#00f" stroke-miterlimit="10" fill="none"/><path d="M162.004 170.605l-2.797 8.024" stroke-width="1.2" stroke="#000" stroke-miterlimit="10" fill="none"/><path d="M159.207 178.63l-2.793 8.018" stroke-width="1.2" stroke="#00f" stroke-miterlimit="10" fill="none"/><path d="M167.422 170.246l20.863-3.973" stroke-width="1.2" stroke="#000" stroke-miterlimit="10" fill="none"/><path d="M157.434 184.8h7v11h-7zm0 0" fill="#fff"/><use xlink:href="#a" x="157.434" y="193.464" fill="#00f"/><path d="M188.285 166.273l13.875 16.082M202.16 182.355l20.863-3.972M223.023 178.383l13.872 16.082M228.195 176.727l11.098 12.863M230.016 158.328l-6.993 20.055M236.895 194.465l20.863-3.973M257.758 190.492l6.992-20.054M253.738 186.84l5.594-16.043M264.75 170.438l-13.87-16.083M250.88 154.355l-20.864 3.973M249.727 159.66l-16.692 3.18M118.816 142.055l6.99-20.055M125.805 122l-13.87-16.082M111.934 105.918l6.992-20.055M107.914 102.266l5.594-16.043M91.07 109.89l20.864-3.972M118.926 85.863L105.05 69.78M105.05 69.78L84.19 73.755M103.902 75.086l-16.69 3.18M84.188 73.754l-6.99 20.055M77.2 93.81l13.87 16.08M82.367 92.152l11.098 12.868" stroke-width="1.2" stroke="#000" stroke-miterlimit="10" fill="none"/></g></svg>