<svg xmlns="http://www.w3.org/2000/svg" xmlns:xlink="http://www.w3.org/1999/xlink" width="300pt" height="300pt" viewBox="0 0 300 300"><defs><symbol overflow="visible"><path d="M.547 1.938V-7.75h5.5v9.688zm.625-.61h4.266v-8.47H1.171zm0 0"/></symbol><symbol overflow="visible" id="a"><path d="M1.078-8.016h1.47l3.546 6.704v-6.704h1.062V0H5.688L2.124-6.703V0H1.078zm0 0"/></symbol><symbol overflow="visible" id="b"><path d="M5.89-7.75v1.047c-.417-.195-.808-.344-1.17-.438-.368-.094-.72-.14-1.064-.14-.586 0-1.04.116-1.36.343-.323.23-.483.554-.483.968 0 .357.1.626.312.814.22.18.625.324 1.22.437L4-4.593c.813.157 1.41.434 1.797.828.383.387.578.903.578 1.547 0 .783-.262 1.376-.78 1.783-.525.398-1.29.593-2.298.593-.375 0-.78-.047-1.22-.14C1.648-.066 1.208-.19.75-.36v-1.11c.445.25.88.44 1.297.564.426.125.844.187 1.25.187.625 0 1.1-.116 1.437-.358.332-.25.5-.598.5-1.047 0-.395-.12-.703-.36-.922-.24-.226-.636-.398-1.186-.515l-.657-.126c-.81-.156-1.4-.406-1.764-.75C.898-4.78.72-5.258.72-5.875c0-.707.25-1.266.75-1.672.5-.414 1.19-.625 2.077-.625.375 0 .754.04 1.14.11.395.074.797.18 1.204.312zm0 0"/></symbol><symbol overflow="visible" id="c"><path d="M4.328-7.28c-.78 0-1.406.296-1.875.89-.46.585-.687 1.382-.687 2.39 0 1.012.226 1.813.687 2.406.47.586 1.094.875 1.875.875.79 0 1.414-.288 1.875-.874.457-.593.688-1.394.688-2.406 0-1.008-.23-1.805-.687-2.39-.46-.594-1.086-.89-1.875-.89zm0-.892c1.125 0 2.024.383 2.703 1.14C7.708-6.28 8.048-5.27 8.048-4c0 1.262-.34 2.273-1.016 3.03C6.353-.22 5.454.157 4.33.157S2.3-.22 1.625-.97c-.668-.75-1-1.757-1-3.03 0-1.27.332-2.28 1-3.03.676-.76 1.578-1.142 2.703-1.142zm0 0"/></symbol><symbol overflow="visible" id="d"><path d="M1.078-8.016h4.61v.907H2.171v2.36h3.172v.922H2.172V0H1.078zm0 0"/></symbol></defs><g><path fill="#fff" d="M0 0h300v300H0z"/><path d="M169.684 205.62l-27.82 2.657M181.29 180.2l-11.606 25.42" stroke-width="1.2" stroke="#000" stroke-miterlimit="10" fill="none"/><path d="M125.648 185.516m1.29 2.707l.85-.602m.44 3.314l1.698-1.21m-.41 3.917l2.55-1.812m-1.26 4.524l3.397-2.422m-2.105 5.13l4.246-3.025m-2.957 5.735l5.093-3.63m-3.804 6.337l5.945-4.235m-4.655 6.946l6.793-4.84m-5.504 7.547l7.644-5.446m-7.054 6.69l8.035-5.722" stroke="#000" stroke-miterlimit="10" fill="none"/><path d="M125.648 185.516l-14.2 24.07M125.648 185.516l11.61-25.422M107.145 164.57l18.503 20.946M111.45 209.586l-27.282-6.07M84.168 203.516l-1.328-13.91" stroke-width="1.2" stroke="#000" stroke-miterlimit="10" fill="none"/><path d="M82.84 189.605l-1.332-13.91M81.508 175.695l12.82-5.562" stroke-width="1.2" stroke="#00f" stroke-miterlimit="10" fill="none"/><path d="M94.328 170.133l12.817-5.563" stroke-width="1.2" stroke="#000" stroke-miterlimit="10" fill="none"/><path d="M81.508 175.695l-12.03-7.097" stroke-width="1.2" stroke="#00f" stroke-miterlimit="10" fill="none"/><path d="M69.477 168.598l-12.036-7.102" stroke-width="1.2" stroke="#000" stroke-miterlimit="10" fill="none"/><path d="M77.508 169.195h8v13h-8zm0 0" fill="#fff"/><use xlink:href="#a" x="77.508" y="179.097" fill="#00f"/><path d="M57.44 161.496l.263-27.945M57.703 133.55l-11.226-8.32" stroke-width="1.2" stroke="#000" stroke-miterlimit="10" fill="none"/><path d="M46.477 125.23l-11.227-8.32" stroke-width="1.2" stroke="#00f" stroke-miterlimit="10" fill="none"/><path d="M59.375 126.602l-8.984-6.653" stroke-width="1.2" stroke="#000" stroke-miterlimit="10" fill="none"/><path d="M50.39 119.95l-8.98-6.657" stroke-width="1.2" stroke="#00f" stroke-miterlimit="10" fill="none"/><path d="M80.47 117.336l-11.384 8.11" stroke-width="1.2" stroke="#cc0" stroke-miterlimit="10" fill="none"/><path d="M69.086 125.445l-11.383 8.106" stroke-width="1.2" stroke="#000" stroke-miterlimit="10" fill="none"/><path d="M35.25 116.91l4.44-13.246" stroke-width="1.2" stroke="#00f" stroke-miterlimit="10" fill="none"/><path d="M39.69 103.664l4.447-13.25" stroke-width="1.2" stroke="#000" stroke-miterlimit="10" fill="none"/><path d="M31.25 110.41h8v13h-8zm0 0" fill="#fff"/><use xlink:href="#a" x="31.25" y="120.312" fill="#00f"/><path d="M44.137 90.414l27.945.266M46.867 97.016l22.36.21M72.082 90.68l4.19 13.328" stroke-width="1.2" stroke="#000" stroke-miterlimit="10" fill="none"/><path d="M76.273 104.008l4.196 13.328" stroke-width="1.2" stroke="#cc0" stroke-miterlimit="10" fill="none"/><path d="M77.47 110.836h7v13h-7zm0 0" fill="#fff"/><use xlink:href="#b" x="77.469" y="120.737" fill="#cc0"/><path d="M137.258 160.094l13.91-1.328" stroke-width="1.2" stroke="#000" stroke-miterlimit="10" fill="none"/><path d="M151.168 158.766l13.91-1.332M165.078 157.434l8.106 11.382" stroke-width="1.2" stroke="#00f" stroke-miterlimit="10" fill="none"/><path d="M173.184 168.816l8.105 11.383" stroke-width="1.2" stroke="#000" stroke-miterlimit="10" fill="none"/><path d="M165.078 157.434l5.8-12.71" stroke-width="1.2" stroke="#00f" stroke-miterlimit="10" fill="none"/><path d="M170.88 144.723l5.804-12.71" stroke-width="1.2" stroke="#000" stroke-miterlimit="10" fill="none"/><path d="M161.078 150.934h8v13h-8zm0 0" fill="#fff"/><use xlink:href="#a" x="161.078" y="160.835" fill="#00f"/><path d="M179.363 130.105l-8.105-11.382" stroke-width="1.2" stroke="#000" stroke-miterlimit="10" fill="none"/><path d="M171.258 118.723l-8.11-11.383" stroke-width="1.2" stroke="#f00" stroke-miterlimit="10" fill="none"/><path d="M174.008 133.918l-8.11-11.38" stroke-width="1.2" stroke="#000" stroke-miterlimit="10" fill="none"/><path d="M165.898 122.54l-8.105-11.384" stroke-width="1.2" stroke="#f00" stroke-miterlimit="10" fill="none"/><path d="M176.684 132.012l27.82-2.66" stroke-width="1.2" stroke="#000" stroke-miterlimit="10" fill="none"/><path d="M151.473 102.75h9v13h-9zm0 0" fill="#fff"/><use xlink:href="#c" x="151.473" y="112.651" fill="#f00"/><path d="M204.504 129.352l16.215 22.765M211.48 127.816l12.973 18.21M216.113 103.93l-11.61 25.422M220.72 152.117l27.82-2.66M248.54 149.457l11.605-25.422M243.715 144.184l9.29-20.336M248.54 149.457l8.105 11.383" stroke-width="1.2" stroke="#000" stroke-miterlimit="10" fill="none"/><path d="M256.645 160.84l8.105 11.383" stroke-width="1.2" stroke="#3cc" stroke-miterlimit="10" fill="none"/><path d="M260.145 124.035l-16.21-22.762M243.934 101.273l-27.82 2.657M241.777 108.082l-22.257 2.13" stroke-width="1.2" stroke="#000" stroke-miterlimit="10" fill="none"/><path d="M261.75 165.723h7v13h-7zm0 0" fill="#fff"/><use xlink:href="#d" x="261.75" y="175.624" fill="#3cc"/></g></svg>