<svg xmlns="http://www.w3.org/2000/svg" xmlns:xlink="http://www.w3.org/1999/xlink" width="300pt" height="300pt" viewBox="0 0 300 300"><defs><symbol overflow="visible"><path d="M.453 1.594v-7.938h4.5v7.938zm.5-.5h3.5v-6.938h-3.5zm0 0"/></symbol><symbol overflow="visible" id="a"><path d="M.89-6.563H2.08l2.906 5.485v-5.484h.86V0H4.656L1.75-5.484V0H.89zm0 0"/></symbol><symbol overflow="visible" id="b"><path d="M.89-6.563h.876v2.688H5v-2.688h.89V0H5v-3.125H1.766V0H.89zm0 0"/></symbol><symbol overflow="visible" id="c"><path d="M3.547-5.953c-.65 0-1.164.242-1.547.72-.375.48-.563 1.13-.563 1.952 0 .835.188 1.49.563 1.967.383.48.898.72 1.547.72.644 0 1.156-.24 1.53-.72.376-.476.564-1.132.564-1.968 0-.822-.187-1.474-.562-1.954-.375-.477-.887-.72-1.53-.72zm0-.734c.914 0 1.648.312 2.203.937.55.617.828 1.438.828 2.47 0 1.042-.277 1.87-.828 2.483-.555.617-1.29.922-2.203.922-.93 0-1.668-.305-2.22-.922C.774-1.41.5-2.237.5-3.28c0-1.033.273-1.853.828-2.47.55-.625 1.29-.938 2.22-.938zm0 0"/></symbol><symbol overflow="visible" id="d"><path d="M4.813-6.344v.86c-.336-.157-.653-.27-.954-.344-.294-.082-.58-.125-.86-.125-.492 0-.867.094-1.125.28-.262.19-.39.454-.39.798 0 .293.085.512.265.656.176.15.504.267.984.36l.547.11c.658.125 1.142.352 1.454.672.32.312.485.734.485 1.265 0 .637-.216 1.122-.642 1.454-.43.325-1.055.485-1.875.485-.312 0-.648-.04-1-.11C1.36-.046 1-.147.625-.296v-.906c.352.2.703.35 1.047.453.35.105.695.156 1.03.156.5 0 .884-.097 1.157-.297.28-.196.42-.485.42-.86 0-.32-.1-.57-.296-.75-.2-.176-.523-.313-.968-.406l-.547-.11C1.81-3.148 1.33-3.36 1.03-3.64.74-3.923.595-4.313.595-4.813c0-.57.203-1.024.61-1.36.405-.344.968-.516 1.687-.516.313 0 .626.032.938.094.32.055.65.137.985.25zm0 0"/></symbol></defs><g><path fill="#fff" d="M0 0h300v300H0z"/><path d="M50.883 158.5l24.828 3.715" stroke-width="1.2" stroke="#000" stroke-miterlimit="10" fill="none"/><path d="M35.25 178.148l7.816-9.824" stroke-width="1.2" stroke="#00f" stroke-miterlimit="10" fill="none"/><path d="M43.066 168.324l7.817-9.824M75.71 162.215l4.6 11.68" stroke-width="1.2" stroke="#000" stroke-miterlimit="10" fill="none"/><path d="M80.31 173.895l4.596 11.683M84.906 185.578l-7.812 9.82" stroke-width="1.2" stroke="#00f" stroke-miterlimit="10" fill="none"/><path d="M77.094 195.398l-7.817 9.825" stroke-width="1.2" stroke="#000" stroke-miterlimit="10" fill="none"/><path d="M84.906 185.578l12.418 1.856" stroke-width="1.2" stroke="#00f" stroke-miterlimit="10" fill="none"/><path d="M97.324 187.434l12.414 1.855" stroke-width="1.2" stroke="#000" stroke-miterlimit="10" fill="none"/><path d="M81.906 180.078h7v11h-7zm0 0" fill="#fff"/><use xlink:href="#a" x="81.906" y="188.741" fill="#00f"/><path d="M69.277 205.223l-24.828-3.715M44.45 201.508l-4.602-11.68" stroke-width="1.2" stroke="#000" stroke-miterlimit="10" fill="none"/><path d="M39.848 189.828l-4.598-11.68" stroke-width="1.2" stroke="#00f" stroke-miterlimit="10" fill="none"/><path d="M28.25 172.648h14v11h-14zm0 0" fill="#fff"/><g fill="#00f"><use xlink:href="#a" x="28.25" y="181.312"/><use xlink:href="#b" x="35.228" y="181.312"/></g><path d="M109.738 189.29l4.598 11.68" stroke-width="1.2" stroke="#000" stroke-miterlimit="10" fill="none"/><path d="M114.336 200.97l4.598 11.682" stroke-width="1.2" stroke="#00f" stroke-miterlimit="10" fill="none"/><path d="M116.152 189.46l3.68 9.345" stroke-width="1.2" stroke="#000" stroke-miterlimit="10" fill="none"/><path d="M119.832 198.805l3.68 9.347M125.367 169.645l-7.812 9.824" stroke-width="1.2" stroke="#00f" stroke-miterlimit="10" fill="none"/><path d="M117.555 179.47l-7.817 9.82" stroke-width="1.2" stroke="#000" stroke-miterlimit="10" fill="none"/><path d="M118.934 212.652l12.414 1.856" stroke-width="1.2" stroke="#00f" stroke-miterlimit="10" fill="none"/><path d="M131.348 214.508l12.418 1.855" stroke-width="1.2" stroke="#000" stroke-miterlimit="10" fill="none"/><path d="M115.934 207.152h7v11h-7zm0 0" fill="#fff"/><use xlink:href="#a" x="115.934" y="215.815" fill="#00f"/><path d="M143.766 216.363l15.63-19.644M140.703 210.723l12.508-15.715M159.395 196.72l-9.196-23.36" stroke-width="1.2" stroke="#000" stroke-miterlimit="10" fill="none"/><path d="M184.223 200.434l-12.414-1.856" stroke-width="1.2" stroke="#00f" stroke-miterlimit="10" fill="none"/><path d="M171.81 198.578l-12.415-1.86M150.2 173.36l-12.42-1.856" stroke-width="1.2" stroke="#000" stroke-miterlimit="10" fill="none"/><path d="M137.78 171.504l-12.413-1.86" stroke-width="1.2" stroke="#00f" stroke-miterlimit="10" fill="none"/><path d="M146.84 178.832l-9.93-1.488" stroke-width="1.2" stroke="#000" stroke-miterlimit="10" fill="none"/><path d="M136.91 177.344l-9.933-1.485" stroke-width="1.2" stroke="#00f" stroke-miterlimit="10" fill="none"/><path d="M150.2 173.36l7.812-9.82" stroke-width="1.2" stroke="#000" stroke-miterlimit="10" fill="none"/><path d="M158.012 163.54l7.816-9.825" stroke-width="1.2" stroke="#00f" stroke-miterlimit="10" fill="none"/><path d="M122.367 164.145h7v11h-7zm0 0" fill="#fff"/><use xlink:href="#a" x="122.367" y="172.808" fill="#00f"/><path d="M165.828 153.715l12.414 1.855" stroke-width="1.2" stroke="#00f" stroke-miterlimit="10" fill="none"/><path d="M178.242 155.57l12.414 1.86" stroke-width="1.2" stroke="#000" stroke-miterlimit="10" fill="none"/><path d="M165.828 153.715l-4.598-11.68" stroke-width="1.2" stroke="#00f" stroke-miterlimit="10" fill="none"/><path d="M161.23 142.035l-4.597-11.68" stroke-width="1.2" stroke="#000" stroke-miterlimit="10" fill="none"/><path d="M162.828 148.215h7v11h-7zm0 0" fill="#fff"/><use xlink:href="#a" x="162.828" y="156.878" fill="#00f"/><path d="M192.97 159.27l7.815-9.825" stroke-width="1.2" stroke="#000" stroke-miterlimit="10" fill="none"/><path d="M200.785 149.445l7.817-9.824" stroke-width="1.2" stroke="#f00" stroke-miterlimit="10" fill="none"/><path d="M188.348 155.59l7.816-9.824" stroke-width="1.2" stroke="#000" stroke-miterlimit="10" fill="none"/><path d="M196.164 145.766l7.813-9.82" stroke-width="1.2" stroke="#f00" stroke-miterlimit="10" fill="none"/><path d="M190.656 157.43l9.2 23.36" stroke-width="1.2" stroke="#000" stroke-miterlimit="10" fill="none"/><path d="M202.29 132.285h8v11h-8zm0 0" fill="#fff"/><use xlink:href="#c" x="202.289" y="140.948" fill="#f00"/><path d="M199.855 180.79l-7.816 9.823" stroke-width="1.2" stroke="#000" stroke-miterlimit="10" fill="none"/><path d="M192.04 190.613l-7.817 9.82" stroke-width="1.2" stroke="#00f" stroke-miterlimit="10" fill="none"/><path d="M193.672 179.074l-6.254 7.86" stroke-width="1.2" stroke="#000" stroke-miterlimit="10" fill="none"/><path d="M187.418 186.934l-6.254 7.86" stroke-width="1.2" stroke="#00f" stroke-miterlimit="10" fill="none"/><path d="M199.855 180.79l24.83 3.714" stroke-width="1.2" stroke="#000" stroke-miterlimit="10" fill="none"/><path d="M181.223 194.934h7v11h-7zm0 0" fill="#fff"/><use xlink:href="#a" x="181.223" y="203.597" fill="#00f"/><path d="M224.684 184.504l17.6-17.906M230.656 186.855l14.082-14.324" stroke-width="1.2" stroke="#000" stroke-miterlimit="10" fill="none"/><path d="M236.273 206.773l-5.793-11.136" stroke-width="1.2" stroke="#cc0" stroke-miterlimit="10" fill="none"/><path d="M230.48 195.637l-5.796-11.133M242.285 166.598l22.465 11.207M264.75 177.805l-3.715 24.828M258.535 179.414l-2.97 19.863M261.035 202.633l-12.38 2.07" stroke-width="1.2" stroke="#000" stroke-miterlimit="10" fill="none"/><path d="M248.656 204.703l-12.383 2.07" stroke-width="1.2" stroke="#cc0" stroke-miterlimit="10" fill="none"/><path d="M233.273 201.273h6v11h-6zm0 0" fill="#fff"/><use xlink:href="#d" x="233.273" y="209.937" fill="#cc0"/><path d="M156.633 130.355l15.63-19.644M153.57 124.71l12.508-15.714M131.8 126.64l24.833 3.715M172.262 110.71l-9.196-23.362M163.066 87.348l-24.832-3.71M159.707 92.82l-19.863-2.972M138.234 83.637l-15.63 19.644M122.605 103.28l9.196 23.36M129.02 103.453l7.36 18.688" stroke-width="1.2" stroke="#000" stroke-miterlimit="10" fill="none"/></g></svg>