<svg xmlns="http://www.w3.org/2000/svg" xmlns:xlink="http://www.w3.org/1999/xlink" width="300pt" height="300pt" viewBox="0 0 300 300"><defs><symbol overflow="visible"><path d="M.64 2.297v-11.47h6.5v11.47zm.735-.72h5.047V-8.436H1.375zm0 0"/></symbol><symbol overflow="visible" id="a"><path d="M1.28-9.484H3l4.203 7.937v-7.937h1.25V0H6.72L2.515-7.922V0H1.28zm0 0"/></symbol><symbol overflow="visible" id="b"><path d="M5.125-8.61c-.938 0-1.684.352-2.234 1.047-.542.688-.812 1.633-.812 2.83 0 1.198.27 2.147.813 2.842.55.687 1.297 1.03 2.235 1.03.926 0 1.66-.343 2.203-1.03.55-.696.828-1.645.828-2.844 0-1.196-.277-2.14-.828-2.829-.543-.695-1.277-1.046-2.203-1.046zm0-1.046c1.32 0 2.38.45 3.172 1.344.8.898 1.203 2.09 1.203 3.578 0 1.5-.402 2.7-1.203 3.593C7.504-.255 6.445.186 5.125.186c-1.336 0-2.402-.44-3.203-1.328C1.13-2.036.734-3.235.734-4.735c0-1.49.395-2.68 1.188-3.579.8-.894 1.867-1.343 3.203-1.343zm0 0"/></symbol></defs><g><path fill="#fff" d="M0 0h300v300H0z"/><path d="M49.328 189.59l8.27-33.637M57.598 155.953l32.074-13.078M57.727 147.102l25.66-10.465" stroke-width="1.2" stroke="#000" stroke-miterlimit="10" fill="none"/><path d="M35.25 129.492l11.176 13.23" stroke-width="1.2" stroke="#f00" stroke-miterlimit="10" fill="none"/><path d="M46.426 142.723l11.172 13.23M89.672 142.875l-2.527-34.543M89.672 142.875l29.43 18.262M87.145 108.332L70.328 104.2" stroke-width="1.2" stroke="#000" stroke-miterlimit="10" fill="none"/><path d="M70.328 104.2l-16.816-4.138" stroke-width="1.2" stroke="#00f" stroke-miterlimit="10" fill="none"/><path d="M81.832 115.422l-13.453-3.31" stroke-width="1.2" stroke="#000" stroke-miterlimit="10" fill="none"/><path d="M68.38 112.113l-13.454-3.308" stroke-width="1.2" stroke="#00f" stroke-miterlimit="10" fill="none"/><path d="M87.145 108.332l26.46-22.348" stroke-width="1.2" stroke="#000" stroke-miterlimit="10" fill="none"/><path d="M53.512 100.063l-9.133 14.714" stroke-width="1.2" stroke="#00f" stroke-miterlimit="10" fill="none"/><path d="M44.38 114.777l-9.13 14.715" stroke-width="1.2" stroke="#f00" stroke-miterlimit="10" fill="none"/><path d="M48.512 92.063h10v16h-10zm0 0" fill="#fff"/><use xlink:href="#a" x="48.512" y="104.438" fill="#00f"/><path d="M30.25 121.492h11v16h-11zm0 0" fill="#fff"/><use xlink:href="#b" x="30.25" y="133.868" fill="#f00"/><path d="M119.102 161.137l-.55 17.308" stroke-width="1.2" stroke="#000" stroke-miterlimit="10" fill="none"/><path d="M118.55 178.445l-.546 17.31" stroke-width="1.2" stroke="#00f" stroke-miterlimit="10" fill="none"/><path d="M127.137 164.855l-.438 13.848" stroke-width="1.2" stroke="#000" stroke-miterlimit="10" fill="none"/><path d="M126.7 178.703l-.442 13.848M149.63 144.777l-15.263 8.18" stroke-width="1.2" stroke="#00f" stroke-miterlimit="10" fill="none"/><path d="M134.367 152.957l-15.265 8.18" stroke-width="1.2" stroke="#000" stroke-miterlimit="10" fill="none"/><path d="M118.004 195.754l14.715 9.133" stroke-width="1.2" stroke="#00f" stroke-miterlimit="10" fill="none"/><path d="M132.72 204.887l14.714 9.13" stroke-width="1.2" stroke="#000" stroke-miterlimit="10" fill="none"/><path d="M113.004 187.754h10v16h-10zm0 0" fill="#fff"/><use xlink:href="#a" x="113.004" y="200.13" fill="#00f"/><path d="M147.434 214.016l30.53-16.36M146.64 205.195l24.423-13.086M177.965 197.656l1.097-34.617M179.063 163.04l-14.715-9.13" stroke-width="1.2" stroke="#000" stroke-miterlimit="10" fill="none"/><path d="M164.348 153.91l-14.72-9.133" stroke-width="1.2" stroke="#00f" stroke-miterlimit="10" fill="none"/><path d="M171.824 168.137l-11.773-7.305" stroke-width="1.2" stroke="#000" stroke-miterlimit="10" fill="none"/><path d="M160.05 160.832l-11.773-7.3" stroke-width="1.2" stroke="#00f" stroke-miterlimit="10" fill="none"/><path d="M179.063 163.04l15.265-8.18" stroke-width="1.2" stroke="#000" stroke-miterlimit="10" fill="none"/><path d="M194.328 154.86l15.262-8.18" stroke-width="1.2" stroke="#00f" stroke-miterlimit="10" fill="none"/><path d="M144.63 136.777h10v16h-10zm0 0" fill="#fff"/><use xlink:href="#a" x="144.629" y="149.153" fill="#00f"/><path d="M209.59 146.68l2.355-17.157" stroke-width="1.2" stroke="#00f" stroke-miterlimit="10" fill="none"/><path d="M211.945 129.523l2.356-17.156M240.77 161.762l-15.59-7.54" stroke-width="1.2" stroke="#000" stroke-miterlimit="10" fill="none"/><path d="M225.18 154.223l-15.59-7.543" stroke-width="1.2" stroke="#00f" stroke-miterlimit="10" fill="none"/><path d="M204.59 138.68h10v16h-10zm0 0" fill="#fff"/><use xlink:href="#a" x="204.59" y="151.056" fill="#00f"/><path d="M214.3 112.367l34.09-6.125M219.152 119.773l27.27-4.898M248.39 106.242l8.18 15.266" stroke-width="1.2" stroke="#000" stroke-miterlimit="10" fill="none"/><path d="M256.57 121.508l8.18 15.262M264.75 136.77l-11.988 12.496" stroke-width="1.2" stroke="#00f" stroke-miterlimit="10" fill="none"/><path d="M252.762 149.266l-11.992 12.496" stroke-width="1.2" stroke="#000" stroke-miterlimit="10" fill="none"/><path d="M256.473 133.63l-9.594 9.995" stroke-width="1.2" stroke="#00f" stroke-miterlimit="10" fill="none"/><path d="M246.88 143.625l-9.59 9.996" stroke-width="1.2" stroke="#000" stroke-miterlimit="10" fill="none"/><path d="M259.75 128.77h10v16h-10zm0 0" fill="#fff"/><use xlink:href="#a" x="259.75" y="141.146" fill="#00f"/></g></svg>