<svg xmlns="http://www.w3.org/2000/svg" xmlns:xlink="http://www.w3.org/1999/xlink" width="300pt" height="300pt" viewBox="0 0 300 300"><defs><symbol overflow="visible"><path d="M.594 2.125V-8.47h6V2.126zm.672-.672h4.671V-7.78h-4.67zm0 0"/></symbol><symbol overflow="visible" id="a"><path d="M1.172-8.75h1.594l3.89 7.313V-8.75h1.14V0H6.204L2.328-7.313V0H1.172zm0 0"/></symbol><symbol overflow="visible" id="b"><path d="M4.734-7.953c-.867 0-1.554.324-2.062.97-.5.635-.75 1.51-.75 2.624 0 1.094.25 1.965.75 2.61.508.637 1.195.953 2.062.953.852 0 1.532-.316 2.032-.953.507-.645.765-1.516.765-2.61 0-1.113-.257-1.988-.764-2.624-.5-.645-1.18-.97-2.032-.97zm0-.953c1.22 0 2.192.414 2.922 1.234.74.824 1.11 1.93 1.11 3.313 0 1.376-.37 2.477-1.11 3.298C6.926-.24 5.953.17 4.734.17c-1.23 0-2.214-.41-2.953-1.234C1.04-1.882.673-2.984.673-4.36c0-1.382.367-2.488 1.11-3.312.738-.82 1.722-1.234 2.952-1.234zm0 0"/></symbol><symbol overflow="visible" id="c"><path d="M1.172-8.75h5.03v1H2.36v2.578h3.468v1h-3.47V0H1.173zm0 0"/></symbol></defs><g><path fill="#fff" d="M0 0h300v300H0z"/><path d="M216.04 205.668l-7.114-13.484" stroke-width="1.2" stroke="#000" stroke-miterlimit="10" fill="none"/><path d="M208.926 192.184l-7.117-13.48M201.81 178.703l8.12-12.902" stroke-width="1.2" stroke="#00f" stroke-miterlimit="10" fill="none"/><path d="M209.93 165.8l8.117-12.902M171.344 177.543l15.234.582" stroke-width="1.2" stroke="#000" stroke-miterlimit="10" fill="none"/><path d="M186.578 178.125l15.23.578" stroke-width="1.2" stroke="#00f" stroke-miterlimit="10" fill="none"/><path d="M197.81 171.703h9v14h-9zm0 0" fill="#fff"/><use xlink:href="#a" x="197.809" y="182.842" fill="#00f"/><path d="M218.047 152.898l15.234.58" stroke-width="1.2" stroke="#000" stroke-miterlimit="10" fill="none"/><path d="M233.28 153.477l15.232.582" stroke-width="1.2" stroke="#00f" stroke-miterlimit="10" fill="none"/><path d="M221.367 145.848l12.184.46" stroke-width="1.2" stroke="#000" stroke-miterlimit="10" fill="none"/><path d="M233.55 146.31l12.188.463" stroke-width="1.2" stroke="#00f" stroke-miterlimit="10" fill="none"/><path d="M203.816 125.934l14.23 26.964" stroke-width="1.2" stroke="#000" stroke-miterlimit="10" fill="none"/><path d="M248.512 154.06l8.12-12.904" stroke-width="1.2" stroke="#00f" stroke-miterlimit="10" fill="none"/><path d="M256.633 141.156l8.117-12.902" stroke-width="1.2" stroke="#000" stroke-miterlimit="10" fill="none"/><path d="M244.512 147.06h9v14h-9zm0 0" fill="#fff"/><use xlink:href="#a" x="244.512" y="158.197" fill="#00f"/><path d="M264.75 128.254l-7.113-13.484" stroke-width="1.2" stroke="#000" stroke-miterlimit="10" fill="none"/><path d="M257.637 114.77l-7.117-13.48" stroke-width="1.2" stroke="#00f" stroke-miterlimit="10" fill="none"/><path d="M256.984 128.906l-5.69-10.785" stroke-width="1.2" stroke="#000" stroke-miterlimit="10" fill="none"/><path d="M251.293 118.12l-5.695-10.788M250.52 101.29l-15.23-.58" stroke-width="1.2" stroke="#00f" stroke-miterlimit="10" fill="none"/><path d="M235.29 100.71l-15.235-.58" stroke-width="1.2" stroke="#000" stroke-miterlimit="10" fill="none"/><path d="M246.52 94.29h9v14h-9zm0 0" fill="#fff"/><use xlink:href="#a" x="246.52" y="105.428" fill="#00f"/><path d="M220.055 100.13l-16.24 25.804M224.504 106.53l-12.992 20.646M203.816 125.934l-15.23-.58" stroke-width="1.2" stroke="#000" stroke-miterlimit="10" fill="none"/><path d="M188.586 125.355l-15.234-.582M173.352 124.773l-8.118 12.903" stroke-width="1.2" stroke="#00f" stroke-miterlimit="10" fill="none"/><path d="M165.234 137.676l-8.12 12.902" stroke-width="1.2" stroke="#000" stroke-miterlimit="10" fill="none"/><path d="M177.8 131.176l-6.495 10.32" stroke-width="1.2" stroke="#00f" stroke-miterlimit="10" fill="none"/><path d="M171.305 141.496l-6.496 10.324" stroke-width="1.2" stroke="#000" stroke-miterlimit="10" fill="none"/><path d="M169.352 117.773h9v14h-9zm0 0" fill="#fff"/><use xlink:href="#a" x="169.352" y="128.912" fill="#00f"/><path d="M157.113 150.578l14.23 26.965M157.113 150.578l-30.465-1.156M168.31 175.633l-8.123 12.902" stroke-width="1.2" stroke="#000" stroke-miterlimit="10" fill="none"/><path d="M160.188 188.535l-8.118 12.903" stroke-width="1.2" stroke="#f00" stroke-miterlimit="10" fill="none"/><path d="M174.38 179.453l-8.118 12.902" stroke-width="1.2" stroke="#000" stroke-miterlimit="10" fill="none"/><path d="M166.262 192.355l-8.12 12.903" stroke-width="1.2" stroke="#f00" stroke-miterlimit="10" fill="none"/><path d="M145.105 196.348h10v14h-10zm0 0" fill="#fff"/><use xlink:href="#b" x="145.105" y="207.486" fill="#f00"/><path d="M126.648 149.422l-14.23-26.965M118.883 150.07l-11.387-21.57M110.41 175.227l16.238-25.805M112.418 122.457l-30.465-1.16M81.953 121.297l-16.238 25.805M86.402 127.7L73.41 148.34M81.953 121.297l-7.113-13.48" stroke-width="1.2" stroke="#000" stroke-miterlimit="10" fill="none"/><path d="M74.84 107.816l-7.117-13.484" stroke-width="1.2" stroke="#3cc" stroke-miterlimit="10" fill="none"/><path d="M65.715 147.102l14.23 26.964M65.715 147.102l-15.23-.58" stroke-width="1.2" stroke="#000" stroke-miterlimit="10" fill="none"/><path d="M50.484 146.523l-15.234-.582" stroke-width="1.2" stroke="#3cc" stroke-miterlimit="10" fill="none"/><path d="M79.945 174.066l30.465 1.16M83.266 167.012l24.37.93" stroke-width="1.2" stroke="#000" stroke-miterlimit="10" fill="none"/><path d="M28.25 138.94h7v14h-7zm0 0" fill="#fff"/><use xlink:href="#c" x="28.25" y="150.08" fill="#3cc"/><path d="M60.723 87.332h7v14h-7zm0 0" fill="#fff"/><use xlink:href="#c" x="60.723" y="98.471" fill="#3cc"/></g></svg>