<svg xmlns="http://www.w3.org/2000/svg" xmlns:xlink="http://www.w3.org/1999/xlink" width="300pt" height="300pt" viewBox="0 0 300 300"><defs><symbol overflow="visible"><path d="M.547 1.938V-7.75h5.5v9.688zm.625-.61h4.266v-8.47H1.171zm0 0"/></symbol><symbol overflow="visible" id="a"><path d="M1.078-8.016h1.47l3.546 6.704v-6.704h1.062V0H5.688L2.124-6.703V0H1.078zm0 0"/></symbol><symbol overflow="visible" id="b"><path d="M1.078-8.016h1.094v3.282H6.11v-3.282h1.077V0H6.11v-3.813H2.17V0H1.078zm0 0"/></symbol><symbol overflow="visible" id="c"><path d="M1.078-8.016h4.61v.907H2.171v2.36h3.172v.922H2.172V0H1.078zm0 0"/></symbol></defs><g><path fill="#fff" d="M0 0h300v300H0z"/><path d="M35.25 106.492l8.844-26.605M42.395 105.914l7.074-21.29M53.87 127.457l-18.62-20.965M44.094 79.887l27.465-5.65M71.56 74.238l18.62 20.96M68.488 80.715l14.9 16.77M90.18 95.2l-8.844 26.61M90.18 95.2l27.465-5.645M81.336 121.81l-27.465 5.647M77.262 115.91l-21.973 4.52M81.336 121.81l18.625 20.96M99.96 142.77l-4.42 13.304" stroke-width="1.2" stroke="#000" stroke-miterlimit="10" fill="none"/><path d="M95.54 156.074l-4.423 13.305" stroke-width="1.2" stroke="#00f" stroke-miterlimit="10" fill="none"/><path d="M105.336 147.512l-3.535 10.644" stroke-width="1.2" stroke="#000" stroke-miterlimit="10" fill="none"/><path d="M101.8 158.156L98.263 168.8M127.426 137.125l-13.735 2.82" stroke-width="1.2" stroke="#00f" stroke-miterlimit="10" fill="none"/><path d="M113.69 139.945l-13.73 2.825" stroke-width="1.2" stroke="#000" stroke-miterlimit="10" fill="none"/><path d="M91.117 169.38l9.313 10.48" stroke-width="1.2" stroke="#00f" stroke-miterlimit="10" fill="none"/><path d="M100.43 179.86l9.312 10.48" stroke-width="1.2" stroke="#000" stroke-miterlimit="10" fill="none"/><path d="M87.117 162.88h8v13h-8zm0 0" fill="#fff"/><use xlink:href="#a" x="87.117" y="172.78" fill="#00f"/><path d="M109.742 190.34l-8.844 26.61M115.117 195.082l-7.074 21.29M137.207 184.695l-27.465 5.645M100.898 216.95l18.625 20.96M119.523 237.91l27.465-5.644M120.938 230.887l21.972-4.52M146.988 232.266l8.84-26.61M155.828 205.656l-18.62-20.96M149.035 207.94l-14.898-16.768M137.207 184.695l8.84-26.61M146.047 158.086l-9.31-10.48" stroke-width="1.2" stroke="#000" stroke-miterlimit="10" fill="none"/><path d="M136.738 147.605l-9.312-10.48" stroke-width="1.2" stroke="#00f" stroke-miterlimit="10" fill="none"/><path d="M139.254 160.37l-7.45-8.382" stroke-width="1.2" stroke="#000" stroke-miterlimit="10" fill="none"/><path d="M131.805 151.988l-7.45-8.386" stroke-width="1.2" stroke="#00f" stroke-miterlimit="10" fill="none"/><path d="M146.047 158.086l13.734-2.824" stroke-width="1.2" stroke="#000" stroke-miterlimit="10" fill="none"/><path d="M159.78 155.262l13.732-2.825" stroke-width="1.2" stroke="#00f" stroke-miterlimit="10" fill="none"/><path d="M123.426 130.625h8v13h-8zm0 0" fill="#fff"/><use xlink:href="#a" x="123.426" y="140.526" fill="#00f"/><path d="M173.512 152.438l4.422-13.305" stroke-width="1.2" stroke="#00f" stroke-miterlimit="10" fill="none"/><path d="M177.934 139.133l4.42-13.3" stroke-width="1.2" stroke="#000" stroke-miterlimit="10" fill="none"/><path d="M165.512 145.938h17v13h-17zm0 0" fill="#fff"/><g fill="#00f"><use xlink:href="#a" x="165.512" y="155.839"/><use xlink:href="#b" x="173.495" y="155.839"/></g><path d="M182.355 125.832l27.465-5.648M209.82 120.184l18.62 20.96M216.613 117.898l14.9 16.77M218.664 93.574l-8.844 26.61M228.44 141.145l13.736-2.825" stroke-width="1.2" stroke="#000" stroke-miterlimit="10" fill="none"/><path d="M242.176 138.32l13.73-2.82M255.906 135.5l4.422-13.305" stroke-width="1.2" stroke="#00f" stroke-miterlimit="10" fill="none"/><path d="M260.328 122.195l4.422-13.304" stroke-width="1.2" stroke="#000" stroke-miterlimit="10" fill="none"/><path d="M250.53 130.758l3.536-10.645" stroke-width="1.2" stroke="#00f" stroke-miterlimit="10" fill="none"/><path d="M254.066 120.113l3.54-10.644" stroke-width="1.2" stroke="#000" stroke-miterlimit="10" fill="none"/><path d="M251.906 129h8v13h-8zm0 0" fill="#fff"/><use xlink:href="#a" x="251.906" y="138.901" fill="#00f"/><path d="M264.75 108.89l-18.62-20.964M246.13 87.926l-27.466 5.648M244.71 94.953l-21.972 4.52M117.645 89.555l13.734-2.825" stroke-width="1.2" stroke="#000" stroke-miterlimit="10" fill="none"/><path d="M131.38 86.73l13.73-2.824" stroke-width="1.2" stroke="#3cc" stroke-miterlimit="10" fill="none"/><path d="M117.645 89.555L114.82 75.82" stroke-width="1.2" stroke="#000" stroke-miterlimit="10" fill="none"/><path d="M114.82 75.82l-2.824-13.73" stroke-width="1.2" stroke="#3cc" stroke-miterlimit="10" fill="none"/><path d="M117.645 89.555l2.824 13.73" stroke-width="1.2" stroke="#000" stroke-miterlimit="10" fill="none"/><path d="M120.47 103.285l2.823 13.735" stroke-width="1.2" stroke="#3cc" stroke-miterlimit="10" fill="none"/><path d="M142.11 77.406h7v13h-7zm0 0" fill="#fff"/><use xlink:href="#c" x="142.109" y="87.308" fill="#3cc"/><path d="M108.996 55.59h7v13h-7zm0 0" fill="#fff"/><use xlink:href="#c" x="108.996" y="65.491" fill="#3cc"/><path d="M120.293 110.52h7v13h-7zm0 0" fill="#fff"/><use xlink:href="#c" x="120.293" y="120.421" fill="#3cc"/></g></svg>