<svg xmlns="http://www.w3.org/2000/svg" xmlns:xlink="http://www.w3.org/1999/xlink" width="300pt" height="300pt" viewBox="0 0 300 300"><defs><symbol overflow="visible"><path d="M.594 2.125V-8.47h6V2.126zm.672-.672h4.671V-7.78h-4.67zm0 0"/></symbol><symbol overflow="visible" id="a"><path d="M1.172-8.75h1.594l3.89 7.313V-8.75h1.14V0H6.204L2.328-7.313V0H1.172zm0 0"/></symbol><symbol overflow="visible" id="b"><path d="M4.734-7.953c-.867 0-1.554.324-2.062.97-.5.635-.75 1.51-.75 2.624 0 1.094.25 1.965.75 2.61.508.637 1.195.953 2.062.953.852 0 1.532-.316 2.032-.953.507-.645.765-1.516.765-2.61 0-1.113-.257-1.988-.764-2.624-.5-.645-1.18-.97-2.032-.97zm0-.953c1.22 0 2.192.414 2.922 1.234.74.824 1.11 1.93 1.11 3.313 0 1.376-.37 2.477-1.11 3.298C6.926-.24 5.953.17 4.734.17c-1.23 0-2.214-.41-2.953-1.234C1.04-1.882.673-2.984.673-4.36c0-1.382.367-2.488 1.11-3.312.738-.82 1.722-1.234 2.952-1.234zm0 0"/></symbol></defs><g><path fill="#fff" d="M0 0h300v300H0z"/><path d="M135.38 128.523l-1.954 14.715" stroke-width="1.2" stroke="#000" stroke-miterlimit="10" fill="none"/><path d="M133.426 143.238l-1.95 14.71M131.477 157.95l-13.72 5.667" stroke-width="1.2" stroke="#00f" stroke-miterlimit="10" fill="none"/><path d="M117.758 163.617l-13.72 5.664" stroke-width="1.2" stroke="#000" stroke-miterlimit="10" fill="none"/><path d="M131.477 157.95l11.765 9.046" stroke-width="1.2" stroke="#00f" stroke-miterlimit="10" fill="none"/><path d="M143.242 166.996l11.766 9.047" stroke-width="1.2" stroke="#000" stroke-miterlimit="10" fill="none"/><path d="M127.477 150.95h9v14h-9zm0 0" fill="#fff"/><use xlink:href="#a" x="127.477" y="162.088" fill="#00f"/><path d="M104.04 169.28l-23.532-18.093M80.508 151.188l-28.47 8.398M75.684 145.328l-22.778 6.72" stroke-width="1.2" stroke="#000" stroke-miterlimit="10" fill="none"/><path d="M81.316 121.512l-.406 14.84" stroke-width="1.2" stroke="#f00" stroke-miterlimit="10" fill="none"/><path d="M80.91 136.352l-.402 14.835M52.04 159.586l-16.79-24.48M35.25 135.105l18.094-23.53M42.598 137.012l14.472-18.825M53.344 111.574l13.984 4.97" stroke-width="1.2" stroke="#000" stroke-miterlimit="10" fill="none"/><path d="M67.328 116.543l13.988 4.97" stroke-width="1.2" stroke="#f00" stroke-miterlimit="10" fill="none"/><path d="M76.316 114.512h10v14h-10zm0 0" fill="#fff"/><use xlink:href="#b" x="76.316" y="125.65" fill="#f00"/><path d="M155.008 176.043l-1.953 14.715" stroke-width="1.2" stroke="#000" stroke-miterlimit="10" fill="none"/><path d="M153.055 190.758l-1.953 14.71" stroke-width="1.2" stroke="#00f" stroke-miterlimit="10" fill="none"/><path d="M161.54 179.906l-1.563 11.77" stroke-width="1.2" stroke="#000" stroke-miterlimit="10" fill="none"/><path d="M159.977 191.676l-1.563 11.77" stroke-width="1.2" stroke="#00f" stroke-miterlimit="10" fill="none"/><path d="M182.44 164.715l-27.432 11.328" stroke-width="1.2" stroke="#000" stroke-miterlimit="10" fill="none"/><path d="M151.102 205.47l11.765 9.046" stroke-width="1.2" stroke="#00f" stroke-miterlimit="10" fill="none"/><path d="M162.867 214.516l11.766 9.05" stroke-width="1.2" stroke="#000" stroke-miterlimit="10" fill="none"/><path d="M147.102 198.47h9v14h-9zm0 0" fill="#fff"/><use xlink:href="#a" x="147.102" y="209.607" fill="#00f"/><path d="M174.633 223.566l13.72-5.668" stroke-width="1.2" stroke="#000" stroke-miterlimit="10" fill="none"/><path d="M188.352 217.898l13.718-5.664" stroke-width="1.2" stroke="#00f" stroke-miterlimit="10" fill="none"/><path d="M174.71 215.977l10.974-4.532" stroke-width="1.2" stroke="#000" stroke-miterlimit="10" fill="none"/><path d="M185.684 211.445l10.976-4.535M202.07 212.234l1.95-14.714" stroke-width="1.2" stroke="#00f" stroke-miterlimit="10" fill="none"/><path d="M204.02 197.52l1.953-14.71" stroke-width="1.2" stroke="#000" stroke-miterlimit="10" fill="none"/><path d="M198.07 205.234h9v14h-9zm0 0" fill="#fff"/><use xlink:href="#a" x="198.07" y="216.373" fill="#00f"/><path d="M205.973 182.81l-23.532-18.095M199.363 186.535L180.54 172.06M182.44 164.715l3.908-29.43M186.348 135.285l-23.532-18.094M188.25 127.94l-18.824-14.475M213.78 123.957l-27.432 11.328M162.816 117.19l3.903-29.424M166.72 87.766l27.436-11.332M172.13 93.09l21.948-9.067M194.156 76.434l23.53 18.097M217.688 94.53l-3.907 29.427M210.375 96.555l-3.125 23.54M213.78 123.957l11.767 9.047" stroke-width="1.2" stroke="#000" stroke-miterlimit="10" fill="none"/><path d="M225.547 133.004l11.766 9.047M237.313 142.05l13.718-5.667" stroke-width="1.2" stroke="#f00" stroke-miterlimit="10" fill="none"/><path d="M251.03 136.383l13.72-5.664" stroke-width="1.2" stroke="#000" stroke-miterlimit="10" fill="none"/><path d="M232.313 135.05h10v14h-10zm0 0" fill="#fff"/><use xlink:href="#b" x="232.313" y="146.189" fill="#f00"/></g></svg>