<svg xmlns="http://www.w3.org/2000/svg" xmlns:xlink="http://www.w3.org/1999/xlink" width="300pt" height="300pt" viewBox="0 0 300 300"><defs><symbol overflow="visible"><path d="M.594 2.125V-8.47h6V2.126zm.672-.672h4.671V-7.78h-4.67zm0 0"/></symbol><symbol overflow="visible" id="a"><path d="M1.172-8.75h1.594l3.89 7.313V-8.75h1.14V0H6.204L2.328-7.313V0H1.172zm0 0"/></symbol><symbol overflow="visible" id="b"><path d="M4.734-7.953c-.867 0-1.554.324-2.062.97-.5.635-.75 1.51-.75 2.624 0 1.094.25 1.965.75 2.61.508.637 1.195.953 2.062.953.852 0 1.532-.316 2.032-.953.507-.645.765-1.516.765-2.61 0-1.113-.257-1.988-.764-2.624-.5-.645-1.18-.97-2.032-.97zm0-.953c1.22 0 2.192.414 2.922 1.234.74.824 1.11 1.93 1.11 3.313 0 1.376-.37 2.477-1.11 3.298C6.926-.24 5.953.17 4.734.17c-1.23 0-2.214-.41-2.953-1.234C1.04-1.882.673-2.984.673-4.36c0-1.382.367-2.488 1.11-3.312.738-.82 1.722-1.234 2.952-1.234zm0 0"/></symbol><symbol overflow="visible" id="c"><path d="M6.422-8.47v1.158c-.45-.208-.875-.364-1.28-.47-.4-.113-.78-.17-1.142-.17-.648 0-1.148.124-1.5.374-.344.25-.516.61-.516 1.078 0 .387.114.68.344.875.227.2.672.355 1.328.47L4.36-5c.882.168 1.535.465 1.952.89.426.42.64.98.64 1.688 0 .856-.288 1.5-.858 1.938-.563.437-1.4.656-2.5.656-.406 0-.844-.047-1.313-.14C1.814-.064 1.33-.204.83-.392v-1.22c.477.274.945.477 1.406.61.47.137.922.203 1.36.203.676 0 1.195-.13 1.562-.39.375-.27.563-.65.563-1.14 0-.427-.138-.76-.407-1-.262-.25-.696-.43-1.297-.548l-.72-.14c-.886-.176-1.526-.454-1.92-.83-.388-.374-.58-.893-.58-1.56 0-.782.27-1.392.813-1.83.538-.445 1.288-.67 2.25-.67.413 0 .83.038 1.25.108.425.074.863.184 1.312.328zm0 0"/></symbol></defs><g><path fill="#fff" d="M0 0h300v300H0z"/><path d="M35.25 182.422l29.98-5.348M65.23 177.074l9.813 11.645" stroke-width="1.2" stroke="#000" stroke-miterlimit="10" fill="none"/><path d="M75.043 188.72l9.812 11.643" stroke-width="1.2" stroke="#00f" stroke-miterlimit="10" fill="none"/><path d="M72.676 174.785l7.847 9.317" stroke-width="1.2" stroke="#000" stroke-miterlimit="10" fill="none"/><path d="M80.523 184.102l7.852 9.316" stroke-width="1.2" stroke="#00f" stroke-miterlimit="10" fill="none"/><path d="M75.59 148.434l-10.36 28.64" stroke-width="1.2" stroke="#000" stroke-miterlimit="10" fill="none"/><path d="M84.855 200.363l14.993-2.675" stroke-width="1.2" stroke="#00f" stroke-miterlimit="10" fill="none"/><path d="M99.848 197.688l14.992-2.672" stroke-width="1.2" stroke="#000" stroke-miterlimit="10" fill="none"/><path d="M80.855 193.363h9v14h-9zm0 0" fill="#fff"/><use xlink:href="#a" x="80.855" y="204.502" fill="#00f"/><path d="M114.84 195.016l19.62 23.29M122.28 192.727l15.7 18.632M125.195 166.375l-10.355 28.64M134.46 218.305l14.993-2.672" stroke-width="1.2" stroke="#000" stroke-miterlimit="10" fill="none"/><path d="M149.453 215.633l14.992-2.676M164.445 212.957l5.18-14.32" stroke-width="1.2" stroke="#00f" stroke-miterlimit="10" fill="none"/><path d="M169.625 198.637l5.18-14.32" stroke-width="1.2" stroke="#000" stroke-miterlimit="10" fill="none"/><path d="M158.742 207.656l4.14-11.457" stroke-width="1.2" stroke="#00f" stroke-miterlimit="10" fill="none"/><path d="M162.883 196.2l4.144-11.458" stroke-width="1.2" stroke="#000" stroke-miterlimit="10" fill="none"/><path d="M160.445 205.957h9v14h-9zm0 0" fill="#fff"/><use xlink:href="#a" x="160.445" y="217.096" fill="#00f"/><path d="M174.805 184.316l-9.813-11.644" stroke-width="1.2" stroke="#000" stroke-miterlimit="10" fill="none"/><path d="M164.992 172.672l-9.812-11.645" stroke-width="1.2" stroke="#00f" stroke-miterlimit="10" fill="none"/><path d="M174.805 184.316l14.988-2.675" stroke-width="1.2" stroke="#000" stroke-miterlimit="10" fill="none"/><path d="M189.793 181.64l14.992-2.67M155.18 161.027l-14.993 2.672" stroke-width="1.2" stroke="#00f" stroke-miterlimit="10" fill="none"/><path d="M140.188 163.7l-14.993 2.675" stroke-width="1.2" stroke="#000" stroke-miterlimit="10" fill="none"/><path d="M153.44 168.613l-11.995 2.14" stroke-width="1.2" stroke="#00f" stroke-miterlimit="10" fill="none"/><path d="M141.445 170.754l-11.992 2.14" stroke-width="1.2" stroke="#000" stroke-miterlimit="10" fill="none"/><path d="M151.18 154.027h9v14h-9zm0 0" fill="#fff"/><use xlink:href="#a" x="151.18" y="165.166" fill="#00f"/><path d="M125.195 166.375l-9.808-11.645" stroke-width="1.2" stroke="#000" stroke-miterlimit="10" fill="none"/><path d="M115.387 154.73l-9.813-11.648M105.574 143.082l-14.992 2.676" stroke-width="1.2" stroke="#00f" stroke-miterlimit="10" fill="none"/><path d="M90.582 145.758l-14.992 2.676" stroke-width="1.2" stroke="#000" stroke-miterlimit="10" fill="none"/><path d="M105.574 143.082l5.18-14.32" stroke-width="1.2" stroke="#00f" stroke-miterlimit="10" fill="none"/><path d="M110.754 128.762l5.18-14.317" stroke-width="1.2" stroke="#000" stroke-miterlimit="10" fill="none"/><path d="M101.574 136.082h9v14h-9zm0 0" fill="#fff"/><use xlink:href="#a" x="101.574" y="147.221" fill="#00f"/><path d="M78.332 146.125l-9.812-11.648" stroke-width="1.2" stroke="#000" stroke-miterlimit="10" fill="none"/><path d="M68.52 134.477l-9.813-11.645" stroke-width="1.2" stroke="#f00" stroke-miterlimit="10" fill="none"/><path d="M72.852 150.742l-9.813-11.648" stroke-width="1.2" stroke="#000" stroke-miterlimit="10" fill="none"/><path d="M63.04 139.094l-9.813-11.645" stroke-width="1.2" stroke="#f00" stroke-miterlimit="10" fill="none"/><path d="M45.97 118.14h10v14h-10zm0 0" fill="#fff"/><use xlink:href="#b" x="45.969" y="129.279" fill="#f00"/><path d="M115.934 114.445l29.98-5.35M145.914 109.094l13.297-27.4M153.69 109.484l10.638-21.92" stroke-width="1.2" stroke="#000" stroke-miterlimit="10" fill="none"/><path d="M167.867 130.207l-10.976-10.555" stroke-width="1.2" stroke="#cc0" stroke-miterlimit="10" fill="none"/><path d="M156.89 119.652l-10.976-10.558M159.21 81.695l30.17 4.176M189.38 85.87l5.347 29.985M182.86 90.13l4.277 23.983M194.727 115.855l-13.43 7.176" stroke-width="1.2" stroke="#000" stroke-miterlimit="10" fill="none"/><path d="M181.297 123.03l-13.43 7.177" stroke-width="1.2" stroke="#cc0" stroke-miterlimit="10" fill="none"/><path d="M163.867 123.207h8v14h-8zm0 0" fill="#fff"/><use xlink:href="#c" x="163.867" y="134.346" fill="#cc0"/><path d="M204.785 178.97l9.813 11.643" stroke-width="1.2" stroke="#00f" stroke-miterlimit="10" fill="none"/><path d="M214.598 190.613l9.812 11.645M215.145 150.328l-5.18 14.32" stroke-width="1.2" stroke="#000" stroke-miterlimit="10" fill="none"/><path d="M209.965 164.648l-5.18 14.32" stroke-width="1.2" stroke="#00f" stroke-miterlimit="10" fill="none"/><path d="M200.785 171.97h9v14h-9zm0 0" fill="#fff"/><use xlink:href="#a" x="200.785" y="183.107" fill="#00f"/><path d="M224.41 202.258l29.98-5.348M254.39 196.91l5.18-14.32" stroke-width="1.2" stroke="#000" stroke-miterlimit="10" fill="none"/><path d="M259.57 182.59l5.18-14.32M264.75 168.27l-9.813-11.645" stroke-width="1.2" stroke="#f00" stroke-miterlimit="10" fill="none"/><path d="M254.938 156.625l-9.813-11.645" stroke-width="1.2" stroke="#000" stroke-miterlimit="10" fill="none"/><path d="M259.75 161.27h10v14h-10zm0 0" fill="#fff"/><use xlink:href="#b" x="259.75" y="172.408" fill="#f00"/><path d="M245.125 144.98l-29.98 5.348" stroke-width="1.2" stroke="#000" stroke-miterlimit="10" fill="none"/></g></svg>