<svg xmlns="http://www.w3.org/2000/svg" xmlns:xlink="http://www.w3.org/1999/xlink" width="300pt" height="300pt" viewBox="0 0 300 300"><defs><symbol overflow="visible"><path d="M.453 1.594v-7.938h4.5v7.938zm.5-.5h3.5v-6.938h-3.5zm0 0"/></symbol><symbol overflow="visible" id="a"><path d="M.89-6.563H2.08l2.906 5.485v-5.484h.86V0H4.656L1.75-5.484V0H.89zm0 0"/></symbol><symbol overflow="visible" id="b"><path d="M3.547-5.953c-.65 0-1.164.242-1.547.72-.375.48-.563 1.13-.563 1.952 0 .835.188 1.49.563 1.967.383.48.898.72 1.547.72.644 0 1.156-.24 1.53-.72.376-.476.564-1.132.564-1.968 0-.822-.187-1.474-.562-1.954-.375-.477-.887-.72-1.53-.72zm0-.734c.914 0 1.648.312 2.203.937.55.617.828 1.438.828 2.47 0 1.042-.277 1.87-.828 2.483-.555.617-1.29.922-2.203.922-.93 0-1.668-.305-2.22-.922C.774-1.41.5-2.237.5-3.28c0-1.033.273-1.853.828-2.47.55-.625 1.29-.938 2.22-.938zm0 0"/></symbol><symbol overflow="visible" id="c"><path d="M.89-6.563h.876v2.688H5v-2.688h.89V0H5v-3.125H1.766V0H.89zm0 0"/></symbol><symbol overflow="visible" id="d"><path d="M.89-6.563h3.766v.75h-2.89v1.938h2.61v.734h-2.61V0H.89zm0 0"/></symbol></defs><g><path fill="#fff" d="M0 0h300v300H0z"/><path d="M152.914 178.848l-16.047 5.136M156.488 162.38l-3.574 16.468M136.867 183.984l-6.238-5.664" stroke-width="1.2" stroke="#000" stroke-miterlimit="10" fill="none"/><path d="M130.63 178.32l-6.24-5.664M124.39 172.656l1.79-8.234" stroke-width="1.2" stroke="#00f" stroke-miterlimit="10" fill="none"/><path d="M126.18 164.422l1.785-8.234" stroke-width="1.2" stroke="#000" stroke-miterlimit="10" fill="none"/><path d="M124.39 172.656l-8.023 2.57" stroke-width="1.2" stroke="#00f" stroke-miterlimit="10" fill="none"/><path d="M116.367 175.227l-8.023 2.57" stroke-width="1.2" stroke="#000" stroke-miterlimit="10" fill="none"/><path d="M121.39 167.156h7v11h-7zm0 0" fill="#fff"/><use xlink:href="#a" x="121.391" y="175.819" fill="#00f"/><path d="M127.965 156.188l16.047-5.137M144.012 151.05l12.476 11.33M156.488 162.38l14.98 7.714M164.2 147.398l-7.712 14.98M171.47 170.094l3.854-7.492" stroke-width="1.2" stroke="#000" stroke-miterlimit="10" fill="none"/><path d="M175.324 162.602l3.86-7.493M179.184 155.11l-7.493-3.856" stroke-width="1.2" stroke="#00f" stroke-miterlimit="10" fill="none"/><path d="M171.69 151.254l-7.49-3.856" stroke-width="1.2" stroke="#000" stroke-miterlimit="10" fill="none"/><path d="M179.184 155.11l8.023-2.567" stroke-width="1.2" stroke="#00f" stroke-miterlimit="10" fill="none"/><path d="M187.207 152.543l8.023-2.57" stroke-width="1.2" stroke="#000" stroke-miterlimit="10" fill="none"/><path d="M176.184 149.61h7v11h-7zm0 0" fill="#fff"/><use xlink:href="#a" x="176.184" y="158.272" fill="#00f"/><path d="M197.168 150.39l1.785-8.23" stroke-width="1.2" stroke="#000" stroke-miterlimit="10" fill="none"/><path d="M198.953 142.16l1.79-8.234" stroke-width="1.2" stroke="#f00" stroke-miterlimit="10" fill="none"/><path d="M193.293 149.55l1.785-8.234" stroke-width="1.2" stroke="#000" stroke-miterlimit="10" fill="none"/><path d="M195.078 141.316l1.79-8.23" stroke-width="1.2" stroke="#f00" stroke-miterlimit="10" fill="none"/><path d="M195.23 149.973l6.24 5.664" stroke-width="1.2" stroke="#000" stroke-miterlimit="10" fill="none"/><path d="M201.47 155.637l6.233 5.664" stroke-width="1.2" stroke="#00f" stroke-miterlimit="10" fill="none"/><path d="M194.805 128.004h8v11h-8zm0 0" fill="#fff"/><use xlink:href="#b" x="194.805" y="136.667" fill="#f00"/><path d="M207.703 161.3l8.027-2.57" stroke-width="1.2" stroke="#00f" stroke-miterlimit="10" fill="none"/><path d="M215.73 158.73l8.024-2.57" stroke-width="1.2" stroke="#000" stroke-miterlimit="10" fill="none"/><path d="M200.703 155.8h14v11h-14zm0 0" fill="#fff"/><g fill="#00f"><use xlink:href="#a" x="200.703" y="164.464"/><use xlink:href="#c" x="207.681" y="164.464"/></g><path d="M223.754 156.16l12.473 11.328M227.664 154.36l9.98 9.062M227.328 139.695l-3.574 16.465M236.227 167.488l16.05-5.136M252.277 162.352l3.57-16.47M248.758 159.863l2.86-13.175M252.277 162.352l6.235 5.664" stroke-width="1.2" stroke="#000" stroke-miterlimit="10" fill="none"/><path d="M258.512 168.016l6.238 5.664" stroke-width="1.2" stroke="#3cc" stroke-miterlimit="10" fill="none"/><path d="M255.848 145.883l-12.473-11.328M243.375 134.555l-16.047 5.14M242.98 138.844l-12.84 4.113" stroke-width="1.2" stroke="#000" stroke-miterlimit="10" fill="none"/><path d="M261.75 168.18h6v11h-6zm0 0" fill="#fff"/><use xlink:href="#d" x="261.75" y="176.843" fill="#3cc"/><path d="M106.406 177.375l-1.79 8.234" stroke-width="1.2" stroke="#000" stroke-miterlimit="10" fill="none"/><path d="M104.617 185.61l-1.785 8.234" stroke-width="1.2" stroke="#f00" stroke-miterlimit="10" fill="none"/><path d="M110.28 178.215l-1.788 8.234" stroke-width="1.2" stroke="#000" stroke-miterlimit="10" fill="none"/><path d="M108.492 186.45l-1.785 8.234" stroke-width="1.2" stroke="#f00" stroke-miterlimit="10" fill="none"/><path d="M108.344 177.797L95.867 166.47" stroke-width="1.2" stroke="#000" stroke-miterlimit="10" fill="none"/><path d="M100.77 188.762h8v11h-8zm0 0" fill="#fff"/><use xlink:href="#b" x="100.77" y="197.425" fill="#f00"/><path d="M95.867 166.47L99.44 150M92.352 163.98l2.86-13.175M79.82 171.605l16.047-5.136M99.44 150l-12.47-11.328M86.97 138.672l-16.052 5.14M86.57 142.96l-12.836 4.114M86.97 138.672l3.57-16.47M70.918 143.813l-3.57 16.464M67.348 160.277l12.472 11.328M71.258 158.477l9.98 9.062M67.348 160.277l-16.05 5.14M51.297 165.418l-8.024 2.57" stroke-width="1.2" stroke="#000" stroke-miterlimit="10" fill="none"/><path d="M43.273 167.988l-8.023 2.567" stroke-width="1.2" stroke="#3cc" stroke-miterlimit="10" fill="none"/><path d="M51.297 165.418l-2.57-8.023" stroke-width="1.2" stroke="#000" stroke-miterlimit="10" fill="none"/><path d="M48.727 157.395l-2.567-8.028" stroke-width="1.2" stroke="#3cc" stroke-miterlimit="10" fill="none"/><path d="M51.297 165.418l2.57 8.023" stroke-width="1.2" stroke="#000" stroke-miterlimit="10" fill="none"/><path d="M53.867 173.44l2.57 8.025" stroke-width="1.2" stroke="#3cc" stroke-miterlimit="10" fill="none"/><path d="M29.25 165.055h6v11h-6zm0 0" fill="#fff"/><use xlink:href="#d" x="29.25" y="173.718" fill="#3cc"/><path d="M40.16 143.867h6v11h-6zm0 0" fill="#fff"/><use xlink:href="#d" x="40.16" y="152.53" fill="#3cc"/><path d="M53.438 175.965h6v11h-6zm0 0" fill="#fff"/><use xlink:href="#d" x="53.438" y="184.628" fill="#3cc"/><path d="M90.54 122.203l1.788-8.234" stroke-width="1.2" stroke="#000" stroke-miterlimit="10" fill="none"/><path d="M92.328 113.97l1.785-8.232" stroke-width="1.2" stroke="#3cc" stroke-miterlimit="10" fill="none"/><path d="M90.54 122.203l8.233 1.79" stroke-width="1.2" stroke="#000" stroke-miterlimit="10" fill="none"/><path d="M98.773 123.992l8.235 1.785" stroke-width="1.2" stroke="#3cc" stroke-miterlimit="10" fill="none"/><path d="M90.54 122.203l-8.23-1.785" stroke-width="1.2" stroke="#000" stroke-miterlimit="10" fill="none"/><path d="M82.31 120.418l-8.236-1.79" stroke-width="1.2" stroke="#3cc" stroke-miterlimit="10" fill="none"/><path d="M91.113 100.238h6v11h-6zm0 0" fill="#fff"/><use xlink:href="#d" x="91.113" y="108.901" fill="#3cc"/><path d="M104.008 120.277h6v11h-6zm0 0" fill="#fff"/><use xlink:href="#d" x="104.008" y="128.94" fill="#3cc"/><path d="M68.074 113.13h6v11h-6zm0 0" fill="#fff"/><use xlink:href="#d" x="68.074" y="121.792" fill="#3cc"/></g></svg>