<svg xmlns="http://www.w3.org/2000/svg" xmlns:xlink="http://www.w3.org/1999/xlink" width="300pt" height="300pt" viewBox="0 0 300 300"><defs><symbol overflow="visible"><path d="M.453 1.594v-7.938h4.5v7.938zm.5-.5h3.5v-6.938h-3.5zm0 0"/></symbol><symbol overflow="visible" id="a"><path d="M.89-6.563H2.08l2.906 5.485v-5.484h.86V0H4.656L1.75-5.484V0H.89zm0 0"/></symbol><symbol overflow="visible" id="b"><path d="M3.547-5.953c-.65 0-1.164.242-1.547.72-.375.48-.563 1.13-.563 1.952 0 .835.188 1.49.563 1.967.383.48.898.72 1.547.72.644 0 1.156-.24 1.53-.72.376-.476.564-1.132.564-1.968 0-.822-.187-1.474-.562-1.954-.375-.477-.887-.72-1.53-.72zm0-.734c.914 0 1.648.312 2.203.937.55.617.828 1.438.828 2.47 0 1.042-.277 1.87-.828 2.483-.555.617-1.29.922-2.203.922-.93 0-1.668-.305-2.22-.922C.774-1.41.5-2.237.5-3.28c0-1.033.273-1.853.828-2.47.55-.625 1.29-.938 2.22-.938zm0 0"/></symbol><symbol overflow="visible" id="c"><path d="M.89-6.563h.876v2.688H5v-2.688h.89V0H5v-3.125H1.766V0H.89zm0 0"/></symbol></defs><g><path fill="#fff" d="M0 0h300v300H0z"/><path d="M35.25 183.605l9.098-6.167" stroke-width="1.2" stroke="#000" stroke-miterlimit="10" fill="none"/><path d="M44.348 177.438l9.1-6.172M53.45 171.266L52.65 160.3" stroke-width="1.2" stroke="#00f" stroke-miterlimit="10" fill="none"/><path d="M52.652 160.3l-.793-10.964" stroke-width="1.2" stroke="#000" stroke-miterlimit="10" fill="none"/><path d="M53.45 171.266l9.89 4.793" stroke-width="1.2" stroke="#00f" stroke-miterlimit="10" fill="none"/><path d="M63.34 176.06l9.894 4.795" stroke-width="1.2" stroke="#000" stroke-miterlimit="10" fill="none"/><path d="M50.45 165.766h7v11h-7zm0 0" fill="#fff"/><use xlink:href="#a" x="50.449" y="174.429" fill="#00f"/><path d="M70.656 181.043l.793 10.965" stroke-width="1.2" stroke="#000" stroke-miterlimit="10" fill="none"/><path d="M71.45 192.008l.796 10.965" stroke-width="1.2" stroke="#f00" stroke-miterlimit="10" fill="none"/><path d="M75.816 180.668l.793 10.965" stroke-width="1.2" stroke="#000" stroke-miterlimit="10" fill="none"/><path d="M76.61 191.633l.796 10.965" stroke-width="1.2" stroke="#f00" stroke-miterlimit="10" fill="none"/><path d="M73.234 180.855l18.2-12.343" stroke-width="1.2" stroke="#000" stroke-miterlimit="10" fill="none"/><path d="M70.824 197.285h8v11h-8zm0 0" fill="#fff"/><use xlink:href="#b" x="70.824" y="205.948" fill="#f00"/><path d="M91.434 168.512l-1.59-21.93M96.434 165.945l-1.27-17.543M111.22 178.102l-19.786-9.59M89.844 146.582l18.2-12.344M108.043 134.238l19.785 9.59M107.766 139.855l15.828 7.672M127.828 143.828l1.59 21.934M127.828 143.828l18.2-12.34M129.418 165.762l-18.2 12.34M124.695 162.71l-14.558 9.876M146.027 131.488l19.786 9.59M150.262 127.79l15.828 7.67" stroke-width="1.2" stroke="#000" stroke-miterlimit="10" fill="none"/><path d="M144.438 109.56l.792 10.963" stroke-width="1.2" stroke="#00f" stroke-miterlimit="10" fill="none"/><path d="M145.23 120.523l.797 10.965M165.813 141.078l18.2-12.344M184.012 128.734l-.793-10.964" stroke-width="1.2" stroke="#000" stroke-miterlimit="10" fill="none"/><path d="M183.22 117.77l-.798-10.965" stroke-width="1.2" stroke="#00f" stroke-miterlimit="10" fill="none"/><path d="M178.69 126.914l-.63-8.77" stroke-width="1.2" stroke="#000" stroke-miterlimit="10" fill="none"/><path d="M178.06 118.145l-.638-8.774" stroke-width="1.2" stroke="#00f" stroke-miterlimit="10" fill="none"/><path d="M184.012 128.734l9.894 4.793" stroke-width="1.2" stroke="#000" stroke-miterlimit="10" fill="none"/><path d="M193.906 133.527l9.895 4.797M182.422 106.805l-9.895-4.797" stroke-width="1.2" stroke="#00f" stroke-miterlimit="10" fill="none"/><path d="M172.527 102.008l-9.89-4.793" stroke-width="1.2" stroke="#000" stroke-miterlimit="10" fill="none"/><path d="M179.422 101.305h7v11h-7zm0 0" fill="#fff"/><use xlink:href="#a" x="179.422" y="109.968" fill="#00f"/><path d="M162.637 97.215l-9.102 6.172" stroke-width="1.2" stroke="#000" stroke-miterlimit="10" fill="none"/><path d="M153.535 103.387l-9.097 6.172" stroke-width="1.2" stroke="#00f" stroke-miterlimit="10" fill="none"/><path d="M163.72 102.73l-7.28 4.938" stroke-width="1.2" stroke="#000" stroke-miterlimit="10" fill="none"/><path d="M156.44 107.668l-7.28 4.937" stroke-width="1.2" stroke="#00f" stroke-miterlimit="10" fill="none"/><path d="M141.438 104.06h7v11h-7zm0 0" fill="#fff"/><use xlink:href="#a" x="141.438" y="112.722" fill="#00f"/><path d="M203.8 138.324l.794 10.965" stroke-width="1.2" stroke="#00f" stroke-miterlimit="10" fill="none"/><path d="M204.594 149.29l.793 10.964" stroke-width="1.2" stroke="#000" stroke-miterlimit="10" fill="none"/><path d="M196.8 132.824h14v11h-14zm0 0" fill="#fff"/><g fill="#00f"><use xlink:href="#a" x="196.801" y="141.487"/><use xlink:href="#c" x="203.778" y="141.487"/></g><path d="M205.387 160.254l19.79 9.59M225.176 169.844l1.59 21.93M230.496 171.664l1.27 17.543M243.375 157.5l-18.2 12.344M226.766 191.773l9.894 4.797" stroke-width="1.2" stroke="#000" stroke-miterlimit="10" fill="none"/><path d="M236.66 196.57l9.89 4.793M246.55 201.363l9.102-6.172" stroke-width="1.2" stroke="#00f" stroke-miterlimit="10" fill="none"/><path d="M255.652 195.19l9.098-6.17" stroke-width="1.2" stroke="#000" stroke-miterlimit="10" fill="none"/><path d="M245.47 195.848l7.276-4.938" stroke-width="1.2" stroke="#00f" stroke-miterlimit="10" fill="none"/><path d="M252.746 190.91l7.28-4.937" stroke-width="1.2" stroke="#000" stroke-miterlimit="10" fill="none"/><path d="M243.55 195.863h7v11h-7zm0 0" fill="#fff"/><use xlink:href="#a" x="243.551" y="204.526" fill="#00f"/><path d="M264.75 189.02l-1.59-21.93M263.16 167.09l-19.785-9.59M258.926 170.79l-15.828-7.673" stroke-width="1.2" stroke="#000" stroke-miterlimit="10" fill="none"/></g></svg>