<svg xmlns="http://www.w3.org/2000/svg" xmlns:xlink="http://www.w3.org/1999/xlink" width="300pt" height="300pt" viewBox="0 0 300 300"><defs><symbol overflow="visible"><path d="M.547 1.938V-7.75h5.5v9.688zm.625-.61h4.266v-8.47H1.171zm0 0"/></symbol><symbol overflow="visible" id="a"><path d="M1.078-8.016h1.47l3.546 6.704v-6.704h1.062V0H5.688L2.124-6.703V0H1.078zm0 0"/></symbol><symbol overflow="visible" id="b"><path d="M4.328-7.28c-.78 0-1.406.296-1.875.89-.46.585-.687 1.382-.687 2.39 0 1.012.226 1.813.687 2.406.47.586 1.094.875 1.875.875.79 0 1.414-.288 1.875-.874.457-.593.688-1.394.688-2.406 0-1.008-.23-1.805-.687-2.39-.46-.594-1.086-.89-1.875-.89zm0-.892c1.125 0 2.024.383 2.703 1.14C7.708-6.28 8.048-5.27 8.048-4c0 1.262-.34 2.273-1.016 3.03C6.353-.22 5.454.157 4.33.157S2.3-.22 1.625-.97c-.668-.75-1-1.757-1-3.03 0-1.27.332-2.28 1-3.03.676-.76 1.578-1.142 2.703-1.142zm0 0"/></symbol><symbol overflow="visible" id="c"><path d="M1.078-8.016h1.094v3.282H6.11v-3.282h1.077V0H6.11v-3.813H2.17V0H1.078zm0 0"/></symbol></defs><g><path fill="#fff" d="M0 0h300v300H0z"/><path d="M109.102 211.156l-25.99-12.09M83.113 199.066l-5.492-28.132M75.945 197.547l-4.394-22.504" stroke-width="1.2" stroke="#000" stroke-miterlimit="10" fill="none"/><path d="M58.06 212.984l12.526-6.96" stroke-width="1.2" stroke="#f00" stroke-miterlimit="10" fill="none"/><path d="M70.586 206.023l12.527-6.957M77.62 170.934L49.17 167.47M77.62 170.934l19.528-20.977M49.168 167.47l-6.043 12.99" stroke-width="1.2" stroke="#000" stroke-miterlimit="10" fill="none"/><path d="M43.125 180.46l-6.047 12.997" stroke-width="1.2" stroke="#00f" stroke-miterlimit="10" fill="none"/><path d="M54.074 172.91l-4.836 10.395" stroke-width="1.2" stroke="#000" stroke-miterlimit="10" fill="none"/><path d="M49.238 183.305l-4.836 10.398" stroke-width="1.2" stroke="#00f" stroke-miterlimit="10" fill="none"/><path d="M49.168 167.47L35.25 142.41" stroke-width="1.2" stroke="#000" stroke-miterlimit="10" fill="none"/><path d="M37.078 193.457l10.492 9.762" stroke-width="1.2" stroke="#00f" stroke-miterlimit="10" fill="none"/><path d="M47.57 203.22l10.49 9.764" stroke-width="1.2" stroke="#f00" stroke-miterlimit="10" fill="none"/><path d="M33.078 186.957h8v13h-8zm0 0" fill="#fff"/><use xlink:href="#a" x="33.078" y="196.858" fill="#00f"/><path d="M54.06 206.484h9v13h-9zm0 0" fill="#fff"/><use xlink:href="#b" x="54.059" y="216.386" fill="#f00"/><path d="M97.148 149.957l27.934 6.422M101.453 144.023l22.348 5.14M88.742 122.555l8.406 27.402M125.082 156.38l19.527-20.982M144.61 135.398l-8.403-27.402M150.22 130.68l-6.724-21.922M172.543 141.82l-27.934-6.422M136.207 107.996l-27.934-6.422M136.207 107.996l9.762-10.492" stroke-width="1.2" stroke="#000" stroke-miterlimit="10" fill="none"/><path d="M145.97 97.504l9.764-10.488" stroke-width="1.2" stroke="#00f" stroke-miterlimit="10" fill="none"/><path d="M108.273 101.574l-19.53 20.98M111.258 108.266L95.633 125.05" stroke-width="1.2" stroke="#000" stroke-miterlimit="10" fill="none"/><path d="M155.734 87.016l13.97 3.21" stroke-width="1.2" stroke="#00f" stroke-miterlimit="10" fill="none"/><path d="M169.703 90.227l13.965 3.21" stroke-width="1.2" stroke="#000" stroke-miterlimit="10" fill="none"/><path d="M157.016 94.23l11.175 2.57" stroke-width="1.2" stroke="#00f" stroke-miterlimit="10" fill="none"/><path d="M168.19 96.8l11.173 2.567" stroke-width="1.2" stroke="#000" stroke-miterlimit="10" fill="none"/><path d="M151.734 80.516h8v13h-8zm0 0" fill="#fff"/><use xlink:href="#a" x="151.734" y="90.417" fill="#00f"/><path d="M183.668 93.438l4.203 13.703" stroke-width="1.2" stroke="#000" stroke-miterlimit="10" fill="none"/><path d="M187.87 107.14l4.204 13.7M192.074 120.84l-9.765 10.492" stroke-width="1.2" stroke="#00f" stroke-miterlimit="10" fill="none"/><path d="M182.31 131.332l-9.767 10.488" stroke-width="1.2" stroke="#000" stroke-miterlimit="10" fill="none"/><path d="M185.184 118.344l-7.813 8.39" stroke-width="1.2" stroke="#00f" stroke-miterlimit="10" fill="none"/><path d="M177.37 126.734l-7.808 8.395" stroke-width="1.2" stroke="#000" stroke-miterlimit="10" fill="none"/><path d="M188.074 114.34h8v13h-8zm0 0" fill="#fff"/><use xlink:href="#a" x="188.074" y="124.241" fill="#00f"/><path d="M172.543 141.82l4.203 13.7" stroke-width="1.2" stroke="#000" stroke-miterlimit="10" fill="none"/><path d="M176.746 155.52l4.203 13.703M180.95 169.223l13.968 3.21" stroke-width="1.2" stroke="#00f" stroke-miterlimit="10" fill="none"/><path d="M194.918 172.434l13.965 3.21" stroke-width="1.2" stroke="#000" stroke-miterlimit="10" fill="none"/><path d="M172.95 162.723h17v13h-17zm0 0" fill="#fff"/><g fill="#00f"><use xlink:href="#a" x="172.949" y="172.624"/><use xlink:href="#c" x="180.933" y="172.624"/></g><path d="M208.883 175.645l8.406 27.402M216.172 176.406l6.723 21.922M228.41 154.664l-19.527 20.98M217.29 203.047l27.933 6.422M245.223 209.47l19.527-20.982M242.238 202.777l15.62-16.785M264.75 188.488l-8.406-27.402M256.344 161.086l-27.934-6.422M252.04 167.02l-22.345-5.14" stroke-width="1.2" stroke="#000" stroke-miterlimit="10" fill="none"/></g></svg>