<svg xmlns="http://www.w3.org/2000/svg" xmlns:xlink="http://www.w3.org/1999/xlink" width="300pt" height="300pt" viewBox="0 0 300 300"><defs><symbol overflow="visible"><path d="M.64 2.297v-11.47h6.5v11.47zm.735-.72h5.047V-8.436H1.375zm0 0"/></symbol><symbol overflow="visible" id="a"><path d="M1.28-9.484H3l4.203 7.937v-7.937h1.25V0H6.72L2.515-7.922V0H1.28zm0 0"/></symbol><symbol overflow="visible" id="b"><path d="M1.28-9.484h1.282v3.89H7.22v-3.89H8.5V0H7.22v-4.516H2.562V0H1.28zm0 0"/></symbol></defs><g><path fill="#fff" d="M0 0h300v300H0z"/><path d="M256.633 188.984l-31.754 8.957M264.75 157.004l-8.117 31.98" stroke-width="1.2" stroke="#000" stroke-miterlimit="10" fill="none"/><path d="M201.238 174.922m1.754 2.433l.727-.746m1.026 3.183l1.453-1.496m.3 3.93l2.18-2.243m-.43 4.676l2.91-2.988m-1.156 5.426l3.637-3.74m-1.882 6.173l4.363-4.483m-2.612 6.918l5.094-5.227m-3.34 7.66l5.82-5.972m-4.066 8.41l6.547-6.723m-4.797 9.157l7.277-7.47m-5.523 9.903l8.003-8.215m-7.707 8.625l8.125-8.343" stroke="#000" stroke-miterlimit="10" fill="none"/><path d="M201.238 174.922l-11.414 30.957M201.238 174.922l8.12-31.98M175.328 154.5l25.91 20.422M189.824 205.88l-32.97-1.294M156.855 204.586l-4.48-15.875" stroke-width="1.2" stroke="#000" stroke-miterlimit="10" fill="none"/><path d="M152.375 188.71l-4.48-15.878M147.895 172.832l13.714-9.168" stroke-width="1.2" stroke="#00f" stroke-miterlimit="10" fill="none"/><path d="M161.61 163.664l13.718-9.164" stroke-width="1.2" stroke="#000" stroke-miterlimit="10" fill="none"/><path d="M147.895 172.832l-15.48-5.707" stroke-width="1.2" stroke="#00f" stroke-miterlimit="10" fill="none"/><path d="M132.414 167.125l-15.476-5.707" stroke-width="1.2" stroke="#000" stroke-miterlimit="10" fill="none"/><path d="M142.895 164.832h10v16h-10zm0 0" fill="#fff"/><use xlink:href="#a" x="142.895" y="177.208" fill="#00f"/><path d="M116.938 161.418l-5.59-32.52M116.938 161.418L91.57 182.52M111.348 128.898l25.363-21.1M108.918 120.82l20.293-16.882M80.39 117.48l30.958 11.418M136.71 107.797l-5.59-32.516M131.12 75.28l-30.956-11.417M125.336 81.422L100.57 72.29M100.164 63.863L74.797 84.965M74.797 84.965l5.594 32.515M83.008 86.902l4.472 26.012M91.57 182.52l-30.953-11.418M85.79 188.66l-24.767-9.133M97.164 215.035L91.57 182.52M60.617 171.102l-25.367 21.1M35.25 192.203l5.59 32.516M43.46 194.137l4.474 26.015M40.84 224.72l30.957 11.417M71.797 236.137l25.367-21.102M69.37 228.06l20.294-16.884M209.36 142.94l15.874-4.48" stroke-width="1.2" stroke="#000" stroke-miterlimit="10" fill="none"/><path d="M225.234 138.46l15.88-4.48M241.113 133.98l11.817 11.512" stroke-width="1.2" stroke="#00f" stroke-miterlimit="10" fill="none"/><path d="M252.93 145.492l11.82 11.512" stroke-width="1.2" stroke="#000" stroke-miterlimit="10" fill="none"/><path d="M231.113 125.98h20v16h-20zm0 0" fill="#fff"/><g fill="#00f"><use xlink:href="#a" x="231.113" y="138.356"/><use xlink:href="#b" x="241.083" y="138.356"/></g></g></svg>