<svg xmlns="http://www.w3.org/2000/svg" xmlns:xlink="http://www.w3.org/1999/xlink" width="300pt" height="300pt" viewBox="0 0 300 300"><defs><symbol overflow="visible"><path d="M.453 1.594v-7.938h4.5v7.938zm.5-.5h3.5v-6.938h-3.5zm0 0"/></symbol><symbol overflow="visible" id="a"><path d="M.89-6.563H2.08l2.906 5.485v-5.484h.86V0H4.656L1.75-5.484V0H.89zm0 0"/></symbol><symbol overflow="visible" id="b"><path d="M.89-6.563h.876v2.688H5v-2.688h.89V0H5v-3.125H1.766V0H.89zm0 0"/></symbol><symbol overflow="visible" id="c"><path d="M3.547-5.953c-.65 0-1.164.242-1.547.72-.375.48-.563 1.13-.563 1.952 0 .835.188 1.49.563 1.967.383.48.898.72 1.547.72.644 0 1.156-.24 1.53-.72.376-.476.564-1.132.564-1.968 0-.822-.187-1.474-.562-1.954-.375-.477-.887-.72-1.53-.72zm0-.734c.914 0 1.648.312 2.203.937.55.617.828 1.438.828 2.47 0 1.042-.277 1.87-.828 2.483-.555.617-1.29.922-2.203.922-.93 0-1.668-.305-2.22-.922C.774-1.41.5-2.237.5-3.28c0-1.033.273-1.853.828-2.47.55-.625 1.29-.938 2.22-.938zm0 0"/></symbol></defs><g><path fill="#fff" d="M0 0h300v300H0z"/><path d="M35.25 130.637l20.836-4.12M56.086 126.516l6.996 7.996" stroke-width="1.2" stroke="#000" stroke-miterlimit="10" fill="none"/><path d="M63.082 134.512l6.992 7.992M70.074 142.504l10.418-2.063" stroke-width="1.2" stroke="#00f" stroke-miterlimit="10" fill="none"/><path d="M80.492 140.44l10.422-2.057" stroke-width="1.2" stroke="#000" stroke-miterlimit="10" fill="none"/><path d="M63.074 137.004h14v11h-14zm0 0" fill="#fff"/><g fill="#00f"><use xlink:href="#a" x="63.074" y="145.667"/><use xlink:href="#b" x="70.052" y="145.667"/></g><path d="M90.914 138.383l3.422-10.055" stroke-width="1.2" stroke="#000" stroke-miterlimit="10" fill="none"/><path d="M94.336 128.328l3.426-10.05" stroke-width="1.2" stroke="#00f" stroke-miterlimit="10" fill="none"/><path d="M96.328 137.984l2.742-8.043" stroke-width="1.2" stroke="#000" stroke-miterlimit="10" fill="none"/><path d="M99.07 129.94l2.74-8.042M104.898 154.367l-6.992-7.992" stroke-width="1.2" stroke="#00f" stroke-miterlimit="10" fill="none"/><path d="M97.906 146.375l-6.992-7.992" stroke-width="1.2" stroke="#000" stroke-miterlimit="10" fill="none"/><path d="M97.762 118.277l10.418-2.062" stroke-width="1.2" stroke="#00f" stroke-miterlimit="10" fill="none"/><path d="M108.18 116.215l10.422-2.06" stroke-width="1.2" stroke="#000" stroke-miterlimit="10" fill="none"/><path d="M94.762 112.777h7v11h-7zm0 0" fill="#fff"/><use xlink:href="#a" x="94.762" y="121.44" fill="#00f"/><path d="M118.602 114.156l13.984 15.985M116.238 119.047l11.188 12.79M132.586 130.14l-6.848 20.106" stroke-width="1.2" stroke="#000" stroke-miterlimit="10" fill="none"/><path d="M153.426 126.02l-10.418 2.062" stroke-width="1.2" stroke="#00f" stroke-miterlimit="10" fill="none"/><path d="M143.008 128.082l-10.422 2.06M125.738 150.246l-10.418 2.063" stroke-width="1.2" stroke="#000" stroke-miterlimit="10" fill="none"/><path d="M115.32 152.31l-10.422 2.057" stroke-width="1.2" stroke="#00f" stroke-miterlimit="10" fill="none"/><path d="M122.684 145.758l-8.336 1.648" stroke-width="1.2" stroke="#000" stroke-miterlimit="10" fill="none"/><path d="M114.348 147.406l-8.332 1.65" stroke-width="1.2" stroke="#00f" stroke-miterlimit="10" fill="none"/><path d="M125.738 150.246l6.992 7.996" stroke-width="1.2" stroke="#000" stroke-miterlimit="10" fill="none"/><path d="M132.73 158.242l6.993 7.992" stroke-width="1.2" stroke="#00f" stroke-miterlimit="10" fill="none"/><path d="M101.898 148.867h7v11h-7zm0 0" fill="#fff"/><use xlink:href="#a" x="101.898" y="157.53" fill="#00f"/><path d="M139.723 166.234l10.422-2.062" stroke-width="1.2" stroke="#00f" stroke-miterlimit="10" fill="none"/><path d="M150.145 164.172l10.417-2.06" stroke-width="1.2" stroke="#000" stroke-miterlimit="10" fill="none"/><path d="M139.723 166.234l-3.422 10.05" stroke-width="1.2" stroke="#00f" stroke-miterlimit="10" fill="none"/><path d="M136.3 176.285l-3.425 10.055" stroke-width="1.2" stroke="#000" stroke-miterlimit="10" fill="none"/><path d="M136.723 160.734h7v11h-7zm0 0" fill="#fff"/><use xlink:href="#a" x="136.723" y="169.397" fill="#00f"/><path d="M158.68 163.758l6.996 7.992" stroke-width="1.2" stroke="#000" stroke-miterlimit="10" fill="none"/><path d="M165.676 171.75l6.992 7.996" stroke-width="1.2" stroke="#f00" stroke-miterlimit="10" fill="none"/><path d="M162.44 160.47l6.998 7.99" stroke-width="1.2" stroke="#000" stroke-miterlimit="10" fill="none"/><path d="M169.438 168.46l6.992 7.993" stroke-width="1.2" stroke="#f00" stroke-miterlimit="10" fill="none"/><path d="M160.563 162.113l6.85-20.105" stroke-width="1.2" stroke="#000" stroke-miterlimit="10" fill="none"/><path d="M170.55 172.598h8v11h-8zm0 0" fill="#fff"/><use xlink:href="#c" x="170.551" y="181.261" fill="#f00"/><path d="M167.414 142.008l-6.996-7.992" stroke-width="1.2" stroke="#000" stroke-miterlimit="10" fill="none"/><path d="M160.418 134.016l-6.992-7.996" stroke-width="1.2" stroke="#00f" stroke-miterlimit="10" fill="none"/><path d="M162.254 143.7l-5.598-6.395" stroke-width="1.2" stroke="#000" stroke-miterlimit="10" fill="none"/><path d="M156.656 137.305l-5.594-6.395" stroke-width="1.2" stroke="#00f" stroke-miterlimit="10" fill="none"/><path d="M167.414 142.008l20.836-4.12" stroke-width="1.2" stroke="#000" stroke-miterlimit="10" fill="none"/><path d="M150.426 120.52h7v11h-7zm0 0" fill="#fff"/><use xlink:href="#a" x="150.426" y="129.183" fill="#00f"/><path d="M188.25 137.887l13.988 15.984M193.41 136.195l11.192 12.79M195.102 117.78l-6.852 20.107M202.238 153.87l20.836-4.116M223.074 149.754l6.852-20.11M219.027 146.13l5.48-16.087M229.926 129.645l-13.988-15.985M229.926 129.645l10.418-2.06" stroke-width="1.2" stroke="#000" stroke-miterlimit="10" fill="none"/><path d="M240.344 127.586l10.418-2.06" stroke-width="1.2" stroke="#f00" stroke-miterlimit="10" fill="none"/><path d="M215.938 113.66l-20.836 4.12M214.824 118.977l-16.672 3.296" stroke-width="1.2" stroke="#000" stroke-miterlimit="10" fill="none"/><path d="M250.762 125.527l6.996 7.993" stroke-width="1.2" stroke="#f00" stroke-miterlimit="10" fill="none"/><path d="M257.758 133.52l6.992 7.992" stroke-width="1.2" stroke="#000" stroke-miterlimit="10" fill="none"/><path d="M246.762 120.027h8v11h-8zm0 0" fill="#fff"/><use xlink:href="#c" x="246.762" y="128.69" fill="#f00"/></g></svg>