<svg xmlns="http://www.w3.org/2000/svg" xmlns:xlink="http://www.w3.org/1999/xlink" width="300pt" height="300pt" viewBox="0 0 300 300"><defs><symbol overflow="visible"><path d="M.453 1.594v-7.938h4.5v7.938zm.5-.5h3.5v-6.938h-3.5zm0 0"/></symbol><symbol overflow="visible" id="a"><path d="M.89-6.563H2.08l2.906 5.485v-5.484h.86V0H4.656L1.75-5.484V0H.89zm0 0"/></symbol><symbol overflow="visible" id="b"><path d="M3.547-5.953c-.65 0-1.164.242-1.547.72-.375.48-.563 1.13-.563 1.952 0 .835.188 1.49.563 1.967.383.48.898.72 1.547.72.644 0 1.156-.24 1.53-.72.376-.476.564-1.132.564-1.968 0-.822-.187-1.474-.562-1.954-.375-.477-.887-.72-1.53-.72zm0-.734c.914 0 1.648.312 2.203.937.55.617.828 1.438.828 2.47 0 1.042-.277 1.87-.828 2.483-.555.617-1.29.922-2.203.922-.93 0-1.668-.305-2.22-.922C.774-1.41.5-2.237.5-3.28c0-1.033.273-1.853.828-2.47.55-.625 1.29-.938 2.22-.938zm0 0"/></symbol><symbol overflow="visible" id="c"><path d="M.89-6.563h3.766v.75h-2.89v1.938h2.61v.734h-2.61V0H.89zm0 0"/></symbol><symbol overflow="visible" id="d"><path d="M.89-6.563h.876v2.688H5v-2.688h.89V0H5v-3.125H1.766V0H.89zm0 0"/></symbol></defs><g><path fill="#fff" d="M0 0h300v300H0z"/><path d="M184.938 212.883l-18.64-3.363M197.172 198.426l-12.234 14.457M166.297 209.52l-6.402-17.825M159.895 191.695l-6.407-17.828M159.895 191.695l12.234-14.46M147.66 206.152l12.235-14.457M153.488 173.867l-18.636-3.363M134.852 170.504l-6.118 7.226" stroke-width="1.2" stroke="#000" stroke-miterlimit="10" fill="none"/><path d="M128.734 177.73l-6.12 7.23M122.613 184.96l3.203 8.915" stroke-width="1.2" stroke="#00f" stroke-miterlimit="10" fill="none"/><path d="M125.816 193.875l3.204 8.91" stroke-width="1.2" stroke="#000" stroke-miterlimit="10" fill="none"/><path d="M122.613 184.96l-9.316-1.683" stroke-width="1.2" stroke="#00f" stroke-miterlimit="10" fill="none"/><path d="M113.297 183.277l-9.32-1.683" stroke-width="1.2" stroke="#000" stroke-miterlimit="10" fill="none"/><path d="M119.613 179.46h7v11h-7zm0 0" fill="#fff"/><use xlink:href="#a" x="119.613" y="188.124" fill="#00f"/><path d="M129.02 202.785l18.64 3.367M102.273 180.156l-6.117 7.23" stroke-width="1.2" stroke="#000" stroke-miterlimit="10" fill="none"/><path d="M96.156 187.387l-6.117 7.226" stroke-width="1.2" stroke="#f00" stroke-miterlimit="10" fill="none"/><path d="M105.676 183.035l-6.117 7.227" stroke-width="1.2" stroke="#000" stroke-miterlimit="10" fill="none"/><path d="M99.56 190.262l-6.12 7.23" stroke-width="1.2" stroke="#f00" stroke-miterlimit="10" fill="none"/><path d="M103.977 181.594L97.57 163.77" stroke-width="1.2" stroke="#000" stroke-miterlimit="10" fill="none"/><path d="M83.742 190.555h8v11h-8zm0 0" fill="#fff"/><use xlink:href="#b" x="83.742" y="199.218" fill="#f00"/><path d="M97.57 163.77l12.235-14.458M95.395 159.445l9.785-11.566M78.934 160.402l18.636 3.368M109.805 149.313l-6.403-17.83M103.402 131.484l-18.64-3.363M100.746 135.535l-14.91-2.69M103.402 131.484l12.235-14.457M84.762 128.12L72.527 142.58M72.527 142.578l6.407 17.824M77.363 142.855l5.12 14.258M72.527 142.578L53.89 139.21M53.89 139.21l-9.32-1.683" stroke-width="1.2" stroke="#000" stroke-miterlimit="10" fill="none"/><path d="M44.57 137.527l-9.32-1.68" stroke-width="1.2" stroke="#3cc" stroke-miterlimit="10" fill="none"/><path d="M53.89 139.21l1.68-9.315" stroke-width="1.2" stroke="#000" stroke-miterlimit="10" fill="none"/><path d="M55.57 129.895l1.684-9.32" stroke-width="1.2" stroke="#3cc" stroke-miterlimit="10" fill="none"/><path d="M53.89 139.21l-1.683 9.32" stroke-width="1.2" stroke="#000" stroke-miterlimit="10" fill="none"/><path d="M52.207 148.53l-1.684 9.322" stroke-width="1.2" stroke="#3cc" stroke-miterlimit="10" fill="none"/><path d="M29.25 130.348h6v11h-6zm0 0" fill="#fff"/><use xlink:href="#c" x="29.25" y="139.011" fill="#3cc"/><path d="M54.254 115.074h6v11h-6zm0 0" fill="#fff"/><use xlink:href="#c" x="54.254" y="123.737" fill="#3cc"/><path d="M47.523 152.352h6v11h-6zm0 0" fill="#fff"/><use xlink:href="#c" x="47.523" y="161.015" fill="#3cc"/><path d="M115.637 117.027l6.117-7.23" stroke-width="1.2" stroke="#000" stroke-miterlimit="10" fill="none"/><path d="M121.754 109.797l6.117-7.23" stroke-width="1.2" stroke="#3cc" stroke-miterlimit="10" fill="none"/><path d="M115.637 117.027l7.23 6.118" stroke-width="1.2" stroke="#000" stroke-miterlimit="10" fill="none"/><path d="M122.867 123.145l7.23 6.117" stroke-width="1.2" stroke="#3cc" stroke-miterlimit="10" fill="none"/><path d="M115.637 117.027l-7.23-6.117" stroke-width="1.2" stroke="#000" stroke-miterlimit="10" fill="none"/><path d="M108.406 110.91l-7.226-6.117" stroke-width="1.2" stroke="#3cc" stroke-miterlimit="10" fill="none"/><path d="M124.87 97.066h6v11h-6zm0 0" fill="#fff"/><use xlink:href="#c" x="124.871" y="105.729" fill="#3cc"/><path d="M127.098 123.762h6v11h-6zm0 0" fill="#fff"/><use xlink:href="#c" x="127.098" y="132.425" fill="#3cc"/><path d="M95.18 99.293h6v11h-6zm0 0" fill="#fff"/><use xlink:href="#c" x="95.18" y="107.956" fill="#3cc"/><path d="M172.13 177.234l9.32 1.684" stroke-width="1.2" stroke="#000" stroke-miterlimit="10" fill="none"/><path d="M181.45 178.918l9.316 1.684M190.766 180.602l3.203 8.91" stroke-width="1.2" stroke="#00f" stroke-miterlimit="10" fill="none"/><path d="M193.97 189.512l3.202 8.914" stroke-width="1.2" stroke="#000" stroke-miterlimit="10" fill="none"/><path d="M190.766 180.602l6.12-7.23" stroke-width="1.2" stroke="#00f" stroke-miterlimit="10" fill="none"/><path d="M196.887 173.37l6.117-7.23" stroke-width="1.2" stroke="#000" stroke-miterlimit="10" fill="none"/><path d="M187.766 175.102h7v11h-7zm0 0" fill="#fff"/><use xlink:href="#a" x="187.766" y="183.765" fill="#00f"/><path d="M205.098 165.387l-3.2-8.91" stroke-width="1.2" stroke="#000" stroke-miterlimit="10" fill="none"/><path d="M201.898 156.477l-3.203-8.915" stroke-width="1.2" stroke="#f00" stroke-miterlimit="10" fill="none"/><path d="M200.906 166.895l-3.203-8.91" stroke-width="1.2" stroke="#000" stroke-miterlimit="10" fill="none"/><path d="M197.703 157.984l-3.203-8.914" stroke-width="1.2" stroke="#f00" stroke-miterlimit="10" fill="none"/><path d="M203.004 166.14l9.316 1.684" stroke-width="1.2" stroke="#000" stroke-miterlimit="10" fill="none"/><path d="M212.32 167.824l9.32 1.684" stroke-width="1.2" stroke="#00f" stroke-miterlimit="10" fill="none"/><path d="M188.598 142.816h8v11h-8zm0 0" fill="#fff"/><use xlink:href="#b" x="188.598" y="151.479" fill="#f00"/><path d="M221.64 169.508l6.118-7.23" stroke-width="1.2" stroke="#00f" stroke-miterlimit="10" fill="none"/><path d="M227.758 162.277l6.117-7.226" stroke-width="1.2" stroke="#000" stroke-miterlimit="10" fill="none"/><path d="M214.64 164.008h14v11h-14zm0 0" fill="#fff"/><g fill="#00f"><use xlink:href="#a" x="214.641" y="172.671"/><use xlink:href="#d" x="221.618" y="172.671"/></g><path d="M233.875 155.05l18.64 3.364M236.53 151l14.91 2.69M227.473 137.223l6.402 17.828M252.516 158.414l12.234-14.457M264.75 143.957l-6.406-17.824M259.914 143.68l-5.12-14.258M258.344 126.133l-18.637-3.367M239.707 122.766l-12.234 14.457M241.887 127.09l-9.79 11.566M239.707 122.766L233.3 104.94M233.3 104.94l-3.198-8.913" stroke-width="1.2" stroke="#000" stroke-miterlimit="10" fill="none"/><path d="M230.102 96.027l-3.204-8.91" stroke-width="1.2" stroke="#00f" stroke-miterlimit="10" fill="none"/><path d="M236.855 101.652l-2.562-7.132" stroke-width="1.2" stroke="#000" stroke-miterlimit="10" fill="none"/><path d="M234.293 94.52l-2.563-7.13" stroke-width="1.2" stroke="#00f" stroke-miterlimit="10" fill="none"/><path d="M228.47 104.664l-2.564-7.13" stroke-width="1.2" stroke="#000" stroke-miterlimit="10" fill="none"/><path d="M225.906 97.535l-2.562-7.13" stroke-width="1.2" stroke="#00f" stroke-miterlimit="10" fill="none"/><path d="M219.898 81.617h7v11h-7zm0 0" fill="#fff"/><use xlink:href="#a" x="219.898" y="90.28" fill="#00f"/></g></svg>