<svg xmlns="http://www.w3.org/2000/svg" xmlns:xlink="http://www.w3.org/1999/xlink" width="300pt" height="300pt" viewBox="0 0 300 300"><defs><symbol overflow="visible"><path d="M.453 1.594v-7.938h4.5v7.938zm.5-.5h3.5v-6.938h-3.5zm0 0"/></symbol><symbol overflow="visible" id="a"><path d="M.89-6.563H2.08l2.906 5.485v-5.484h.86V0H4.656L1.75-5.484V0H.89zm0 0"/></symbol><symbol overflow="visible" id="b"><path d="M3.547-5.953c-.65 0-1.164.242-1.547.72-.375.48-.563 1.13-.563 1.952 0 .835.188 1.49.563 1.967.383.48.898.72 1.547.72.644 0 1.156-.24 1.53-.72.376-.476.564-1.132.564-1.968 0-.822-.187-1.474-.562-1.954-.375-.477-.887-.72-1.53-.72zm0-.734c.914 0 1.648.312 2.203.937.55.617.828 1.438.828 2.47 0 1.042-.277 1.87-.828 2.483-.555.617-1.29.922-2.203.922-.93 0-1.668-.305-2.22-.922C.774-1.41.5-2.237.5-3.28c0-1.033.273-1.853.828-2.47.55-.625 1.29-.938 2.22-.938zm0 0"/></symbol><symbol overflow="visible" id="c"><path d="M.89-6.563h.876v2.688H5v-2.688h.89V0H5v-3.125H1.766V0H.89zm0 0"/></symbol><symbol overflow="visible" id="d"><path d="M.89-6.563h3.766v.75h-2.89v1.938h2.61v.734h-2.61V0H.89zm0 0"/></symbol></defs><g><path fill="#fff" d="M0 0h300v300H0z"/><path d="M90.273 119.457l-10.613-1.13" stroke-width="1.2" stroke="#000" stroke-miterlimit="10" fill="none"/><path d="M79.66 118.328l-10.617-1.125M69.043 117.203l-5.324-9.25" stroke-width="1.2" stroke="#00f" stroke-miterlimit="10" fill="none"/><path d="M63.72 107.953l-5.33-9.25M54.742 133.05l7.153-7.92" stroke-width="1.2" stroke="#000" stroke-miterlimit="10" fill="none"/><path d="M61.895 125.13l7.148-7.927" stroke-width="1.2" stroke="#00f" stroke-miterlimit="10" fill="none"/><path d="M66.043 111.703h7v11h-7zm0 0" fill="#fff"/><use xlink:href="#a" x="66.043" y="120.366" fill="#00f"/><path d="M58.39 98.703l-20.886 4.418M57.34 104.06l-16.707 3.534M37.504 103.12L35.25 124.35M35.25 124.348l19.492 8.703M39.246 120.633l15.594 6.96M54.742 133.05l4.418 20.887M57.48 152.07l-7.937 7.133" stroke-width="1.2" stroke="#000" stroke-miterlimit="10" fill="none"/><path d="M49.543 159.203l-7.94 7.133" stroke-width="1.2" stroke="#f00" stroke-miterlimit="10" fill="none"/><path d="M60.84 155.805l-7.942 7.136" stroke-width="1.2" stroke="#000" stroke-miterlimit="10" fill="none"/><path d="M52.898 162.94l-7.94 7.134" stroke-width="1.2" stroke="#f00" stroke-miterlimit="10" fill="none"/><path d="M59.16 153.938l10.15 3.308" stroke-width="1.2" stroke="#000" stroke-miterlimit="10" fill="none"/><path d="M69.31 157.246l10.147 3.31" stroke-width="1.2" stroke="#00f" stroke-miterlimit="10" fill="none"/><path d="M35.28 162.707h8v11h-8zm0 0" fill="#fff"/><use xlink:href="#b" x="35.281" y="171.37" fill="#f00"/><path d="M79.457 160.555L81.664 171" stroke-width="1.2" stroke="#00f" stroke-miterlimit="10" fill="none"/><path d="M81.664 171l2.207 10.44M95.336 146.29l-7.94 7.132" stroke-width="1.2" stroke="#000" stroke-miterlimit="10" fill="none"/><path d="M87.395 153.422l-7.938 7.133" stroke-width="1.2" stroke="#00f" stroke-miterlimit="10" fill="none"/><path d="M76.457 155.055h7v11h-7zm0 0" fill="#fff"/><use xlink:href="#a" x="76.457" y="163.718" fill="#00f"/><path d="M83.87 181.44l20.298 6.62M104.168 188.06l15.88-14.267M120.047 173.793l4.418 20.887M120.047 173.793l-4.414-20.887M135.926 159.523l-15.88 14.27M124.465 194.68l20.297 6.617M144.762 201.297l15.88-14.27M160.64 187.027l-2.21-10.44" stroke-width="1.2" stroke="#000" stroke-miterlimit="10" fill="none"/><path d="M158.43 176.586l-2.207-10.44M156.223 166.145l-10.15-3.313" stroke-width="1.2" stroke="#00f" stroke-miterlimit="10" fill="none"/><path d="M146.074 162.832l-10.148-3.31" stroke-width="1.2" stroke="#000" stroke-miterlimit="10" fill="none"/><path d="M156.223 166.145l7.94-7.137" stroke-width="1.2" stroke="#00f" stroke-miterlimit="10" fill="none"/><path d="M164.164 159.008l7.938-7.133" stroke-width="1.2" stroke="#000" stroke-miterlimit="10" fill="none"/><path d="M153.223 160.645h7v11h-7zm0 0" fill="#fff"/><use xlink:href="#a" x="153.223" y="169.308" fill="#00f"/><path d="M174.56 151.355l-2.208-10.44" stroke-width="1.2" stroke="#000" stroke-miterlimit="10" fill="none"/><path d="M172.352 140.914l-2.207-10.445" stroke-width="1.2" stroke="#f00" stroke-miterlimit="10" fill="none"/><path d="M169.645 152.395l-2.208-10.442" stroke-width="1.2" stroke="#000" stroke-miterlimit="10" fill="none"/><path d="M167.438 141.953l-2.208-10.445" stroke-width="1.2" stroke="#f00" stroke-miterlimit="10" fill="none"/><path d="M172.102 151.875l10.148 3.31" stroke-width="1.2" stroke="#000" stroke-miterlimit="10" fill="none"/><path d="M182.25 155.184l10.148 3.308" stroke-width="1.2" stroke="#00f" stroke-miterlimit="10" fill="none"/><path d="M163.688 125.488h8v11h-8zm0 0" fill="#fff"/><use xlink:href="#b" x="163.688" y="134.151" fill="#f00"/><path d="M192.398 158.492l7.942-7.133" stroke-width="1.2" stroke="#00f" stroke-miterlimit="10" fill="none"/><path d="M200.34 151.36l7.937-7.133" stroke-width="1.2" stroke="#000" stroke-miterlimit="10" fill="none"/><path d="M185.398 152.992h14v11h-14zm0 0" fill="#fff"/><g fill="#00f"><use xlink:href="#a" x="185.398" y="161.655"/><use xlink:href="#c" x="192.376" y="161.655"/></g><path d="M208.277 144.227l20.297 6.617M211.863 140.113l16.24 5.293M203.863 123.34l4.414 20.887M228.574 150.844l15.88-14.27M244.453 136.574l-4.414-20.887M239.098 135.527l-3.532-16.71M244.453 136.574l10.15 3.31" stroke-width="1.2" stroke="#000" stroke-miterlimit="10" fill="none"/><path d="M254.602 139.883l10.148 3.312" stroke-width="1.2" stroke="#3cc" stroke-miterlimit="10" fill="none"/><path d="M240.04 115.688l-20.298-6.618M219.742 109.07l-15.88 14.27M221.512 114.234l-12.703 11.414" stroke-width="1.2" stroke="#000" stroke-miterlimit="10" fill="none"/><path d="M261.75 137.695h6v11h-6zm0 0" fill="#fff"/><use xlink:href="#d" x="261.75" y="146.358" fill="#3cc"/><path d="M115.633 152.906l-20.297-6.617" stroke-width="1.2" stroke="#000" stroke-miterlimit="10" fill="none"/></g></svg>