<svg xmlns="http://www.w3.org/2000/svg" xmlns:xlink="http://www.w3.org/1999/xlink" width="300pt" height="300pt" viewBox="0 0 300 300"><defs><symbol overflow="visible"><path d="M.64 2.297v-11.47h6.5v11.47zm.735-.72h5.047V-8.436H1.375zm0 0"/></symbol><symbol overflow="visible" id="a"><path d="M1.28-9.484H3l4.203 7.937v-7.937h1.25V0H6.72L2.515-7.922V0H1.28zm0 0"/></symbol><symbol overflow="visible" id="b"><path d="M1.28-9.484h1.282v3.89H7.22v-3.89H8.5V0H7.22v-4.516H2.562V0H1.28zm0 0"/></symbol><symbol overflow="visible" id="c"><path d="M5.125-8.61c-.938 0-1.684.352-2.234 1.047-.542.688-.812 1.633-.812 2.83 0 1.198.27 2.147.813 2.842.55.687 1.297 1.03 2.235 1.03.926 0 1.66-.343 2.203-1.03.55-.696.828-1.645.828-2.844 0-1.196-.277-2.14-.828-2.829-.543-.695-1.277-1.046-2.203-1.046zm0-1.046c1.32 0 2.38.45 3.172 1.344.8.898 1.203 2.09 1.203 3.578 0 1.5-.402 2.7-1.203 3.593C7.504-.255 6.445.186 5.125.186c-1.336 0-2.402-.44-3.203-1.328C1.13-2.036.734-3.235.734-4.735c0-1.49.395-2.68 1.188-3.579.8-.894 1.867-1.343 3.203-1.343zm0 0"/></symbol><symbol overflow="visible" id="d"><path d="M6.953-9.172v1.25c-.48-.226-.937-.398-1.375-.516-.43-.113-.844-.17-1.25-.17-.7 0-1.242.135-1.625.405-.375.273-.562.656-.562 1.156 0 .418.126.734.376.953.257.21.738.383 1.437.516l.78.156c.947.188 1.65.512 2.11.97.458.46.688 1.073.688 1.843 0 .92-.307 1.618-.92 2.094-.618.47-1.524.704-2.72.704-.45 0-.93-.055-1.437-.157C1.953-.07 1.43-.222.89-.42v-1.312c.52.293 1.032.51 1.532.656.5.148.988.22 1.47.22.737 0 1.303-.142 1.702-.423.394-.29.593-.704.593-1.236 0-.468-.148-.832-.437-1.093-.28-.257-.746-.456-1.39-.593l-.782-.156c-.96-.187-1.652-.484-2.078-.89-.43-.406-.64-.97-.64-1.688 0-.843.288-1.503.874-1.984.594-.488 1.41-.734 2.454-.734.437 0 .882.043 1.343.125.47.085.943.202 1.423.358zm0 0"/></symbol></defs><g><path fill="#fff" d="M0 0h300v300H0z"/><path d="M35.25 116.656l31.922-10.96M67.172 105.695l12.726 11.082" stroke-width="1.2" stroke="#000" stroke-miterlimit="10" fill="none"/><path d="M79.898 116.777l12.727 11.082M92.625 127.86l15.96-5.48" stroke-width="1.2" stroke="#00f" stroke-miterlimit="10" fill="none"/><path d="M108.586 122.38l15.96-5.478" stroke-width="1.2" stroke="#000" stroke-miterlimit="10" fill="none"/><path d="M82.625 119.86h20v16h-20zm0 0" fill="#fff"/><g fill="#00f"><use xlink:href="#a" x="82.625" y="132.235"/><use xlink:href="#b" x="92.595" y="132.235"/></g><path d="M124.547 116.902l3.234-16.562" stroke-width="1.2" stroke="#000" stroke-miterlimit="10" fill="none"/><path d="M127.78 100.34l3.236-16.563" stroke-width="1.2" stroke="#00f" stroke-miterlimit="10" fill="none"/><path d="M132.988 115.11l2.59-13.25" stroke-width="1.2" stroke="#000" stroke-miterlimit="10" fill="none"/><path d="M135.578 101.86l2.586-13.25M150 139.066l-12.727-11.082" stroke-width="1.2" stroke="#00f" stroke-miterlimit="10" fill="none"/><path d="M137.273 127.984l-12.726-11.082" stroke-width="1.2" stroke="#000" stroke-miterlimit="10" fill="none"/><path d="M131.016 83.777l15.96-5.48" stroke-width="1.2" stroke="#00f" stroke-miterlimit="10" fill="none"/><path d="M146.977 78.297l15.964-5.48" stroke-width="1.2" stroke="#000" stroke-miterlimit="10" fill="none"/><path d="M126.016 75.777h10v16h-10zm0 0" fill="#fff"/><use xlink:href="#a" x="126.016" y="88.153" fill="#00f"/><path d="M162.94 72.816l25.45 22.164M160.27 81.02l20.363 17.734M188.39 94.98l-6.468 33.125" stroke-width="1.2" stroke="#000" stroke-miterlimit="10" fill="none"/><path d="M220.316 84.023L204.352 89.5" stroke-width="1.2" stroke="#00f" stroke-miterlimit="10" fill="none"/><path d="M204.352 89.5l-15.96 5.48M181.922 128.105l-15.96 5.48" stroke-width="1.2" stroke="#000" stroke-miterlimit="10" fill="none"/><path d="M165.96 133.586l-15.96 5.48" stroke-width="1.2" stroke="#00f" stroke-miterlimit="10" fill="none"/><path d="M176.152 121.69l-12.77 4.384" stroke-width="1.2" stroke="#000" stroke-miterlimit="10" fill="none"/><path d="M163.383 126.074l-12.77 4.387" stroke-width="1.2" stroke="#00f" stroke-miterlimit="10" fill="none"/><path d="M181.922 128.105l12.726 11.086" stroke-width="1.2" stroke="#000" stroke-miterlimit="10" fill="none"/><path d="M194.648 139.19l12.727 11.083" stroke-width="1.2" stroke="#00f" stroke-miterlimit="10" fill="none"/><path d="M145 131.066h10v16h-10zm0 0" fill="#fff"/><use xlink:href="#a" x="145" y="143.442" fill="#00f"/><path d="M207.375 150.273l15.96-5.48" stroke-width="1.2" stroke="#00f" stroke-miterlimit="10" fill="none"/><path d="M223.336 144.793l15.96-5.48" stroke-width="1.2" stroke="#000" stroke-miterlimit="10" fill="none"/><path d="M207.375 150.273l-3.234 16.563" stroke-width="1.2" stroke="#00f" stroke-miterlimit="10" fill="none"/><path d="M204.14 166.836l-3.234 16.562" stroke-width="1.2" stroke="#000" stroke-miterlimit="10" fill="none"/><path d="M202.375 142.273h10v16h-10zm0 0" fill="#fff"/><use xlink:href="#a" x="202.375" y="154.649" fill="#00f"/><path d="M236.69 142.31l12.724 11.08" stroke-width="1.2" stroke="#000" stroke-miterlimit="10" fill="none"/><path d="M249.414 153.39l12.727 11.083" stroke-width="1.2" stroke="#f00" stroke-miterlimit="10" fill="none"/><path d="M241.906 136.316l12.727 11.086" stroke-width="1.2" stroke="#000" stroke-miterlimit="10" fill="none"/><path d="M254.633 147.402l12.726 11.082" stroke-width="1.2" stroke="#f00" stroke-miterlimit="10" fill="none"/><path d="M239.297 139.313l6.47-33.125" stroke-width="1.2" stroke="#000" stroke-miterlimit="10" fill="none"/><path d="M259.75 153.477h11v16h-11zm0 0" fill="#fff"/><use xlink:href="#c" x="259.75" y="165.853" fill="#f00"/><path d="M245.766 106.188L233.04 95.105" stroke-width="1.2" stroke="#000" stroke-miterlimit="10" fill="none"/><path d="M233.04 95.105l-12.724-11.082" stroke-width="1.2" stroke="#00f" stroke-miterlimit="10" fill="none"/><path d="M238.008 109.96l-10.184-8.866" stroke-width="1.2" stroke="#000" stroke-miterlimit="10" fill="none"/><path d="M227.824 101.094l-10.18-8.867" stroke-width="1.2" stroke="#00f" stroke-miterlimit="10" fill="none"/><path d="M215.316 76.023h10v16h-10zm0 0" fill="#fff"/><use xlink:href="#a" x="215.316" y="88.399" fill="#00f"/><path d="M200.906 183.398l-31.922 10.96M168.984 194.36l-9.898 32.265M160.402 195.258l-7.918 25.812" stroke-width="1.2" stroke="#000" stroke-miterlimit="10" fill="none"/><path d="M141.352 174.973l13.816 9.69" stroke-width="1.2" stroke="#cc0" stroke-miterlimit="10" fill="none"/><path d="M155.168 184.664l13.816 9.695M159.086 226.625l-33.746.56M125.34 227.184l-10.96-31.922M131.754 221.414l-8.766-25.54M114.38 195.262l13.487-10.145" stroke-width="1.2" stroke="#000" stroke-miterlimit="10" fill="none"/><path d="M127.867 185.117l13.485-10.144" stroke-width="1.2" stroke="#cc0" stroke-miterlimit="10" fill="none"/><path d="M137.352 166.973h9v16h-9zm0 0" fill="#fff"/><use xlink:href="#d" x="137.352" y="179.349" fill="#cc0"/></g></svg>