<svg xmlns="http://www.w3.org/2000/svg" xmlns:xlink="http://www.w3.org/1999/xlink" width="300pt" height="300pt" viewBox="0 0 300 300"><defs><symbol overflow="visible"><path d="M.797 2.828v-14.11h8V2.83zm.906-.89h6.203v-12.33H1.703zm0 0"/></symbol><symbol overflow="visible" id="a"><path d="M1.578-11.672h2.125l5.172 9.766v-9.766h1.53V0H8.282L3.11-9.766V0H1.577zm0 0"/></symbol><symbol overflow="visible" id="b"><path d="M6.313-10.594c-1.15 0-2.06.43-2.735 1.28-.68.857-1.015 2.017-1.015 3.486 0 1.47.335 2.633 1.015 3.484.676.856 1.586 1.28 2.735 1.28 1.144.002 2.05-.424 2.718-1.28.665-.85 1-2.015 1-3.484 0-1.47-.335-2.63-1-3.484-.667-.852-1.573-1.282-2.717-1.282zm0-1.28c1.632 0 2.94.546 3.92 1.64.978 1.093 1.47 2.562 1.47 4.406 0 1.844-.492 3.32-1.47 4.422-.98 1.093-2.288 1.64-3.92 1.64-1.65 0-2.96-.546-3.938-1.64-.98-1.102-1.47-2.578-1.47-4.422 0-1.844.49-3.313 1.47-4.406.977-1.094 2.29-1.64 3.938-1.64zm0 0"/></symbol><symbol overflow="visible" id="c"><path d="M1.578-11.672h1.578v4.78H8.89v-4.78h1.58V0H8.89v-5.563H3.157V0H1.578zm0 0"/></symbol></defs><g><path fill="#fff" d="M0 0h300v300H0z"/><path d="M98.016 222.008L95.8 183.82M95.8 183.82l29.59-24.234M93.055 174.438l23.675-19.39" stroke-width="1.2" stroke="#000" stroke-miterlimit="10" fill="none"/><path d="M63.605 163.168l16.098 10.328" stroke-width="1.2" stroke="#f00" stroke-miterlimit="10" fill="none"/><path d="M79.703 173.496L95.8 183.82M125.39 159.586l-13.906-35.633M125.39 159.586l37 9.69M111.484 123.953L92.39 125.06" stroke-width="1.2" stroke="#000" stroke-miterlimit="10" fill="none"/><path d="M92.39 125.06l-19.093 1.108" stroke-width="1.2" stroke="#00f" stroke-miterlimit="10" fill="none"/><path d="M108.188 133.16l-15.274.887" stroke-width="1.2" stroke="#000" stroke-miterlimit="10" fill="none"/><path d="M92.914 134.047l-15.277.883" stroke-width="1.2" stroke="#00f" stroke-miterlimit="10" fill="none"/><path d="M111.484 123.953l20.653-32.195" stroke-width="1.2" stroke="#000" stroke-miterlimit="10" fill="none"/><path d="M73.297 126.168l-4.844 18.5" stroke-width="1.2" stroke="#00f" stroke-miterlimit="10" fill="none"/><path d="M68.453 144.668l-4.848 18.5" stroke-width="1.2" stroke="#f00" stroke-miterlimit="10" fill="none"/><path d="M67.297 116.668h12v19h-12zm0 0" fill="#fff"/><use xlink:href="#a" x="67.297" y="131.52" fill="#00f"/><path d="M57.605 153.668h13v19h-13zm0 0" fill="#fff"/><use xlink:href="#b" x="57.605" y="168.52" fill="#f00"/><path d="M162.39 169.277l10.11 36.89M172.082 170.59l8.086 29.512M189.29 142.082l-26.9 27.195M172.5 206.168l18.5 4.848" stroke-width="1.2" stroke="#000" stroke-miterlimit="10" fill="none"/><path d="M191 211.016l18.5 4.847M209.5 215.863l13.45-13.6" stroke-width="1.2" stroke="#00f" stroke-miterlimit="10" fill="none"/><path d="M222.95 202.262l13.445-13.598" stroke-width="1.2" stroke="#000" stroke-miterlimit="10" fill="none"/><path d="M205.79 206.813l10.757-10.88" stroke-width="1.2" stroke="#00f" stroke-miterlimit="10" fill="none"/><path d="M216.547 195.934l10.758-10.88" stroke-width="1.2" stroke="#000" stroke-miterlimit="10" fill="none"/><path d="M203.5 206.363h12v19h-12zm0 0" fill="#fff"/><use xlink:href="#a" x="203.5" y="221.215" fill="#00f"/><path d="M236.395 188.664l-5.05-18.445" stroke-width="1.2" stroke="#000" stroke-miterlimit="10" fill="none"/><path d="M231.344 170.22l-5.055-18.447M226.29 151.773l-18.5-4.847" stroke-width="1.2" stroke="#00f" stroke-miterlimit="10" fill="none"/><path d="M207.79 146.926l-18.5-4.844" stroke-width="1.2" stroke="#000" stroke-miterlimit="10" fill="none"/><path d="M220.31 159.512l-14.802-3.88" stroke-width="1.2" stroke="#00f" stroke-miterlimit="10" fill="none"/><path d="M205.508 155.633l-14.8-3.875" stroke-width="1.2" stroke="#000" stroke-miterlimit="10" fill="none"/><path d="M220.29 142.273h12v19h-12zm0 0" fill="#fff"/><use xlink:href="#a" x="220.289" y="157.125" fill="#00f"/><path d="M189.29 142.082l-5.056-18.445" stroke-width="1.2" stroke="#000" stroke-miterlimit="10" fill="none"/><path d="M184.234 123.637l-5.054-18.446M179.18 105.19l13.45-13.6" stroke-width="1.2" stroke="#00f" stroke-miterlimit="10" fill="none"/><path d="M192.63 91.59l13.448-13.598" stroke-width="1.2" stroke="#000" stroke-miterlimit="10" fill="none"/><path d="M167.18 95.69h24v19h-24zm0 0" fill="#fff"/><g fill="#00f"><use xlink:href="#a" x="167.18" y="110.543"/><use xlink:href="#c" x="179.148" y="110.543"/></g></g></svg>