<svg xmlns="http://www.w3.org/2000/svg" xmlns:xlink="http://www.w3.org/1999/xlink" width="300pt" height="300pt" viewBox="0 0 300 300"><defs><symbol overflow="visible"><path d="M.453 1.594v-7.938h4.5v7.938zm.5-.5h3.5v-6.938h-3.5zm0 0"/></symbol><symbol overflow="visible" id="a"><path d="M3.547-5.953c-.65 0-1.164.242-1.547.72-.375.48-.563 1.13-.563 1.952 0 .835.188 1.49.563 1.967.383.48.898.72 1.547.72.644 0 1.156-.24 1.53-.72.376-.476.564-1.132.564-1.968 0-.822-.187-1.474-.562-1.954-.375-.477-.887-.72-1.53-.72zm0-.734c.914 0 1.648.312 2.203.937.55.617.828 1.438.828 2.47 0 1.042-.277 1.87-.828 2.483-.555.617-1.29.922-2.203.922-.93 0-1.668-.305-2.22-.922C.774-1.41.5-2.237.5-3.28c0-1.033.273-1.853.828-2.47.55-.625 1.29-.938 2.22-.938zm0 0"/></symbol><symbol overflow="visible" id="b"><path d="M.89-6.563H2.08l2.906 5.485v-5.484h.86V0H4.656L1.75-5.484V0H.89zm0 0"/></symbol><symbol overflow="visible" id="c"><path d="M.89-6.563h.876v2.688H5v-2.688h.89V0H5v-3.125H1.766V0H.89zm0 0"/></symbol><symbol overflow="visible" id="d"><path d="M.89-6.563h3.766v.75h-2.89v1.938h2.61v.734h-2.61V0H.89zm0 0"/></symbol></defs><g><path fill="#fff" d="M0 0h300v300H0z"/><path d="M35.25 146.145l5.168 7.976" stroke-width="1.2" stroke="#000" stroke-miterlimit="10" fill="none"/><path d="M40.418 154.12l5.172 7.978M45.59 162.098l9.492-.49" stroke-width="1.2" stroke="#f00" stroke-miterlimit="10" fill="none"/><path d="M55.082 161.61l9.492-.49" stroke-width="1.2" stroke="#000" stroke-miterlimit="10" fill="none"/><path d="M41.59 156.598h8v11h-8zm0 0" fill="#fff"/><use xlink:href="#a" x="41.59" y="165.261" fill="#f00"/><path d="M64.574 161.12l8.645-16.93M69.422 161.46l6.914-13.542M74.91 177.074L64.574 161.12M73.22 144.19l18.983-.975M92.203 143.215l10.336 15.95M89.48 147.242l8.274 12.762M102.54 159.164l-8.645 16.93M93.895 176.094l-18.985.98M91.766 171.727l-15.188.78M93.895 176.094l5.168 7.976" stroke-width="1.2" stroke="#000" stroke-miterlimit="10" fill="none"/><path d="M99.063 184.07l5.17 7.977M104.234 192.047l9.493-.488" stroke-width="1.2" stroke="#00f" stroke-miterlimit="10" fill="none"/><path d="M113.727 191.56l9.492-.49" stroke-width="1.2" stroke="#000" stroke-miterlimit="10" fill="none"/><path d="M97.234 186.547h14v11h-14zm0 0" fill="#fff"/><g fill="#00f"><use xlink:href="#b" x="97.234" y="195.21"/><use xlink:href="#c" x="104.212" y="195.21"/></g><path d="M123.22 191.07l5.167 7.977" stroke-width="1.2" stroke="#000" stroke-miterlimit="10" fill="none"/><path d="M128.387 199.047l5.168 7.976" stroke-width="1.2" stroke="#00f" stroke-miterlimit="10" fill="none"/><path d="M128.004 190.23l4.137 6.383" stroke-width="1.2" stroke="#000" stroke-miterlimit="10" fill="none"/><path d="M132.14 196.613l4.133 6.38M131.863 174.14l-4.324 8.465" stroke-width="1.2" stroke="#00f" stroke-miterlimit="10" fill="none"/><path d="M127.54 182.605l-4.32 8.465" stroke-width="1.2" stroke="#000" stroke-miterlimit="10" fill="none"/><path d="M133.555 207.023l9.492-.492" stroke-width="1.2" stroke="#00f" stroke-miterlimit="10" fill="none"/><path d="M143.047 206.53l9.492-.487" stroke-width="1.2" stroke="#000" stroke-miterlimit="10" fill="none"/><path d="M130.555 201.523h7v11h-7zm0 0" fill="#fff"/><use xlink:href="#b" x="130.555" y="210.187" fill="#00f"/><path d="M152.54 206.043l8.644-16.93M149.422 202.316l6.914-13.543M161.184 189.113l-10.336-15.95" stroke-width="1.2" stroke="#000" stroke-miterlimit="10" fill="none"/><path d="M180.168 188.137l-9.492.488" stroke-width="1.2" stroke="#00f" stroke-miterlimit="10" fill="none"/><path d="M170.676 188.625l-9.492.488M150.848 173.164l-9.493.488" stroke-width="1.2" stroke="#000" stroke-miterlimit="10" fill="none"/><path d="M141.355 173.652l-9.492.49" stroke-width="1.2" stroke="#00f" stroke-miterlimit="10" fill="none"/><path d="M149.18 177.727l-7.594.39" stroke-width="1.2" stroke="#000" stroke-miterlimit="10" fill="none"/><path d="M141.586 178.117l-7.594.39" stroke-width="1.2" stroke="#00f" stroke-miterlimit="10" fill="none"/><path d="M150.848 173.164l4.32-8.465" stroke-width="1.2" stroke="#000" stroke-miterlimit="10" fill="none"/><path d="M155.168 164.7l4.324-8.466" stroke-width="1.2" stroke="#00f" stroke-miterlimit="10" fill="none"/><path d="M128.863 168.64h7v11h-7zm0 0" fill="#fff"/><use xlink:href="#b" x="128.863" y="177.304" fill="#00f"/><path d="M159.492 156.234l9.492-.488" stroke-width="1.2" stroke="#00f" stroke-miterlimit="10" fill="none"/><path d="M168.984 155.746l9.493-.488" stroke-width="1.2" stroke="#000" stroke-miterlimit="10" fill="none"/><path d="M159.492 156.234l-5.168-7.976" stroke-width="1.2" stroke="#00f" stroke-miterlimit="10" fill="none"/><path d="M154.324 148.258l-5.172-7.977" stroke-width="1.2" stroke="#000" stroke-miterlimit="10" fill="none"/><path d="M156.492 150.734h7v11h-7zm0 0" fill="#fff"/><use xlink:href="#b" x="156.492" y="159.397" fill="#00f"/><path d="M180.47 156.273l4.32-8.464" stroke-width="1.2" stroke="#000" stroke-miterlimit="10" fill="none"/><path d="M184.79 147.81l4.323-8.466" stroke-width="1.2" stroke="#f00" stroke-miterlimit="10" fill="none"/><path d="M176.484 154.238l4.325-8.465" stroke-width="1.2" stroke="#000" stroke-miterlimit="10" fill="none"/><path d="M180.81 145.773l4.32-8.464" stroke-width="1.2" stroke="#f00" stroke-miterlimit="10" fill="none"/><path d="M178.477 155.258l10.335 15.95" stroke-width="1.2" stroke="#000" stroke-miterlimit="10" fill="none"/><path d="M183.12 132.828h8v11h-8zm0 0" fill="#fff"/><use xlink:href="#a" x="183.121" y="141.491" fill="#f00"/><path d="M188.813 171.207l-4.32 8.465" stroke-width="1.2" stroke="#000" stroke-miterlimit="10" fill="none"/><path d="M184.492 179.672l-4.324 8.465" stroke-width="1.2" stroke="#00f" stroke-miterlimit="10" fill="none"/><path d="M183.965 170.867l-3.457 6.774" stroke-width="1.2" stroke="#000" stroke-miterlimit="10" fill="none"/><path d="M180.508 177.64l-3.457 6.77" stroke-width="1.2" stroke="#00f" stroke-miterlimit="10" fill="none"/><path d="M188.813 171.207l18.984-.977" stroke-width="1.2" stroke="#000" stroke-miterlimit="10" fill="none"/><path d="M177.168 182.637h7v11h-7zm0 0" fill="#fff"/><use xlink:href="#b" x="177.168" y="191.3" fill="#00f"/><path d="M207.797 170.23l10.34 15.954M212.586 169.395l8.27 12.76M216.445 153.3l-8.648 16.93M218.137 186.184l18.984-.977M237.12 185.207l8.646-16.93M234 181.477l6.918-13.543M245.766 168.277l-10.34-15.953M245.766 168.277l9.492-.488" stroke-width="1.2" stroke="#000" stroke-miterlimit="10" fill="none"/><path d="M255.258 167.79l9.492-.493" stroke-width="1.2" stroke="#3cc" stroke-miterlimit="10" fill="none"/><path d="M235.426 152.324l-18.98.977M233.758 156.89l-15.188.782" stroke-width="1.2" stroke="#000" stroke-miterlimit="10" fill="none"/><path d="M261.75 161.797h6v11h-6zm0 0" fill="#fff"/><use xlink:href="#d" x="261.75" y="170.46" fill="#3cc"/><path d="M157.8 123.352l-11.632 15.406 5.973 3.05zm0 0"/><path d="M157.8 123.352l-8.616-16.946" stroke-width="1.2" stroke="#000" stroke-miterlimit="10" fill="none"/><path d="M176.578 120.395l-9.39 1.48" stroke-width="1.2" stroke="#f00" stroke-miterlimit="10" fill="none"/><path d="M167.188 121.875l-9.387 1.477M149.184 106.406l13.453-13.43M162.637 92.977l16.93 8.648M179.566 101.625l-1.492 9.387" stroke-width="1.2" stroke="#000" stroke-miterlimit="10" fill="none"/><path d="M178.074 111.012l-1.496 9.383" stroke-width="1.2" stroke="#f00" stroke-miterlimit="10" fill="none"/><path d="M172.578 114.895h8v11h-8zm0 0" fill="#fff"/><use xlink:href="#a" x="172.578" y="123.558" fill="#f00"/></g></svg>