<svg xmlns="http://www.w3.org/2000/svg" xmlns:xlink="http://www.w3.org/1999/xlink" width="300pt" height="300pt" viewBox="0 0 300 300"><defs><symbol overflow="visible"><path d="M.547 1.938V-7.75h5.5v9.688zm.625-.61h4.266v-8.47H1.171zm0 0"/></symbol><symbol overflow="visible" id="a"><path d="M4.328-7.28c-.78 0-1.406.296-1.875.89-.46.585-.687 1.382-.687 2.39 0 1.012.226 1.813.687 2.406.47.586 1.094.875 1.875.875.79 0 1.414-.288 1.875-.874.457-.593.688-1.394.688-2.406 0-1.008-.23-1.805-.687-2.39-.46-.594-1.086-.89-1.875-.89zm0-.892c1.125 0 2.024.383 2.703 1.14C7.708-6.28 8.048-5.27 8.048-4c0 1.262-.34 2.273-1.016 3.03C6.353-.22 5.454.157 4.33.157S2.3-.22 1.625-.97c-.668-.75-1-1.757-1-3.03 0-1.27.332-2.28 1-3.03.676-.76 1.578-1.142 2.703-1.142zm0 0"/></symbol><symbol overflow="visible" id="b"><path d="M1.078-8.016h1.47l3.546 6.704v-6.704h1.062V0H5.688L2.124-6.703V0H1.078zm0 0"/></symbol><symbol overflow="visible" id="c"><path d="M1.078-8.016h1.094v3.282H6.11v-3.282h1.077V0H6.11v-3.813H2.17V0H1.078zm0 0"/></symbol></defs><g><path fill="#fff" d="M0 0h300v300H0z"/><path d="M35.25 156.313l12.844-.485" stroke-width="1.2" stroke="#000" stroke-miterlimit="10" fill="none"/><path d="M48.094 155.828l12.843-.488M60.938 155.34l6-11.363" stroke-width="1.2" stroke="#f00" stroke-miterlimit="10" fill="none"/><path d="M66.938 143.977l6-11.368" stroke-width="1.2" stroke="#000" stroke-miterlimit="10" fill="none"/><path d="M56.938 148.84h9v13h-9zm0 0" fill="#fff"/><use xlink:href="#a" x="56.938" y="158.741" fill="#f00"/><path d="M72.938 132.61L59.254 110.85M76.69 127.215l-10.948-17.41M98.625 131.64l-25.688.97M59.254 110.852l12.004-22.735M71.258 88.117l25.687-.97M74.055 94.066l20.55-.777M96.945 87.148l13.684 21.758M110.63 108.906L98.624 131.64M104.078 108.355l-9.6 18.188M98.625 131.64l13.688 21.758M112.313 153.398l12.84-.484" stroke-width="1.2" stroke="#000" stroke-miterlimit="10" fill="none"/><path d="M125.152 152.914l12.844-.488M137.996 152.426l6.844 10.883" stroke-width="1.2" stroke="#00f" stroke-miterlimit="10" fill="none"/><path d="M144.84 163.31l6.844 10.877" stroke-width="1.2" stroke="#000" stroke-miterlimit="10" fill="none"/><path d="M129.996 145.926h17v13h-17zm0 0" fill="#fff"/><g fill="#00f"><use xlink:href="#b" x="129.996" y="155.827"/><use xlink:href="#c" x="137.979" y="155.827"/></g><path d="M151.684 174.188l-6.004 11.367" stroke-width="1.2" stroke="#000" stroke-miterlimit="10" fill="none"/><path d="M145.68 185.555l-6 11.363" stroke-width="1.2" stroke="#00f" stroke-miterlimit="10" fill="none"/><path d="M155.832 179.285l-4.805 9.094" stroke-width="1.2" stroke="#000" stroke-miterlimit="10" fill="none"/><path d="M151.027 188.38l-4.8 9.09" stroke-width="1.2" stroke="#00f" stroke-miterlimit="10" fill="none"/><path d="M177.367 173.215l-25.683.972" stroke-width="1.2" stroke="#000" stroke-miterlimit="10" fill="none"/><path d="M139.68 196.918l6.843 10.88" stroke-width="1.2" stroke="#00f" stroke-miterlimit="10" fill="none"/><path d="M146.523 207.797l6.84 10.883" stroke-width="1.2" stroke="#000" stroke-miterlimit="10" fill="none"/><path d="M135.68 190.418h8v13h-8zm0 0" fill="#fff"/><use xlink:href="#b" x="135.68" y="200.319" fill="#00f"/><path d="M153.363 218.68l12.844-.49" stroke-width="1.2" stroke="#000" stroke-miterlimit="10" fill="none"/><path d="M166.207 218.19l12.844-.483" stroke-width="1.2" stroke="#00f" stroke-miterlimit="10" fill="none"/><path d="M155.703 212.54l10.277-.392" stroke-width="1.2" stroke="#000" stroke-miterlimit="10" fill="none"/><path d="M165.98 212.148l10.274-.386M179.05 217.707l6-11.363" stroke-width="1.2" stroke="#00f" stroke-miterlimit="10" fill="none"/><path d="M185.05 206.344l6.005-11.367" stroke-width="1.2" stroke="#000" stroke-miterlimit="10" fill="none"/><path d="M175.05 211.207h8v13h-8zm0 0" fill="#fff"/><use xlink:href="#b" x="175.051" y="221.108" fill="#00f"/><path d="M191.055 194.977l-13.688-21.762M194.805 189.582l-10.95-17.41M216.738 194.004l-25.683.973M177.367 173.215l12.004-22.73M189.37 150.484l25.69-.968M192.168 156.434l20.55-.778M215.06 149.516l13.682 21.757M215.06 149.516l12.002-22.73M228.742 171.273l-12.004 22.73M222.195 170.723l-9.6 18.187M227.063 126.785l25.683-.972M229.402 120.64l20.547-.773M213.375 105.023l13.688 21.762M252.746 125.813l6.004-11.368" stroke-width="1.2" stroke="#000" stroke-miterlimit="10" fill="none"/><path d="M258.75 114.445l6-11.363M264.75 103.082l-6.844-10.88" stroke-width="1.2" stroke="#00f" stroke-miterlimit="10" fill="none"/><path d="M257.906 92.203l-6.84-10.883" stroke-width="1.2" stroke="#000" stroke-miterlimit="10" fill="none"/><path d="M258.262 104.125l-5.473-8.703" stroke-width="1.2" stroke="#00f" stroke-miterlimit="10" fill="none"/><path d="M252.79 95.422l-5.477-8.703" stroke-width="1.2" stroke="#000" stroke-miterlimit="10" fill="none"/><path d="M260.75 96.582h8v13h-8zm0 0" fill="#fff"/><use xlink:href="#b" x="260.75" y="106.483" fill="#00f"/><path d="M251.066 81.32l-25.687.973M225.38 82.293l-12.005 22.73M229.527 87.39l-9.6 18.184" stroke-width="1.2" stroke="#000" stroke-miterlimit="10" fill="none"/></g></svg>