<svg xmlns="http://www.w3.org/2000/svg" xmlns:xlink="http://www.w3.org/1999/xlink" width="300pt" height="300pt" viewBox="0 0 300 300"><defs><symbol overflow="visible"><path d="M.547 1.938V-7.75h5.5v9.688zm.625-.61h4.266v-8.47H1.171zm0 0"/></symbol><symbol overflow="visible" id="a"><path d="M4.328-7.28c-.78 0-1.406.296-1.875.89-.46.585-.687 1.382-.687 2.39 0 1.012.226 1.813.687 2.406.47.586 1.094.875 1.875.875.79 0 1.414-.288 1.875-.874.457-.593.688-1.394.688-2.406 0-1.008-.23-1.805-.687-2.39-.46-.594-1.086-.89-1.875-.89zm0-.892c1.125 0 2.024.383 2.703 1.14C7.708-6.28 8.048-5.27 8.048-4c0 1.262-.34 2.273-1.016 3.03C6.353-.22 5.454.157 4.33.157S2.3-.22 1.625-.97c-.668-.75-1-1.757-1-3.03 0-1.27.332-2.28 1-3.03.676-.76 1.578-1.142 2.703-1.142zm0 0"/></symbol><symbol overflow="visible" id="b"><path d="M1.078-8.016h1.47l3.546 6.704v-6.704h1.062V0H5.688L2.124-6.703V0H1.078zm0 0"/></symbol><symbol overflow="visible" id="c"><path d="M1.078-8.016h4.61v.907H2.171v2.36h3.172v.922H2.172V0H1.078zm0 0"/></symbol></defs><g><path fill="#fff" d="M0 0h300v300H0z"/><path d="M264.75 253.434l-1.344-13.946" stroke-width="1.2" stroke="#000" stroke-miterlimit="10" fill="none"/><path d="M263.406 239.488l-1.344-13.945M262.063 225.543l-12.75-5.81" stroke-width="1.2" stroke="#f00" stroke-miterlimit="10" fill="none"/><path d="M249.313 219.734l-12.75-5.812" stroke-width="1.2" stroke="#000" stroke-miterlimit="10" fill="none"/><path d="M258.063 219.043h9v13h-9zm0 0" fill="#fff"/><use xlink:href="#a" x="258.063" y="228.944" fill="#f00"/><path d="M236.563 213.922L213.75 230.2M230.453 210.184l-18.25 13.02M233.875 186.03l2.688 27.892M213.75 230.2l-25.5-11.622M188.25 218.578l-2.688-27.89M194.543 215.156l-2.148-22.312M185.563 190.688l22.812-16.278M208.375 174.41l25.5 11.62M208.19 181.574l20.4 9.293M208.375 174.41l-2.688-27.89M205.688 146.52l-12.75-5.813" stroke-width="1.2" stroke="#000" stroke-miterlimit="10" fill="none"/><path d="M192.938 140.707l-12.75-5.81M180.188 134.898l-1.344-13.945" stroke-width="1.2" stroke="#00f" stroke-miterlimit="10" fill="none"/><path d="M178.844 120.953l-1.344-13.945M157.375 151.172l11.406-8.137" stroke-width="1.2" stroke="#000" stroke-miterlimit="10" fill="none"/><path d="M168.78 143.035l11.407-8.137" stroke-width="1.2" stroke="#00f" stroke-miterlimit="10" fill="none"/><path d="M176.188 128.398h8v13h-8zm0 0" fill="#fff"/><use xlink:href="#b" x="176.188" y="138.3" fill="#00f"/><path d="M177.5 107.008l11.406-8.137" stroke-width="1.2" stroke="#000" stroke-miterlimit="10" fill="none"/><path d="M188.906 98.87l11.406-8.14" stroke-width="1.2" stroke="#00f" stroke-miterlimit="10" fill="none"/><path d="M175.95 100.012l9.124-6.512" stroke-width="1.2" stroke="#000" stroke-miterlimit="10" fill="none"/><path d="M185.074 93.5l9.125-6.508" stroke-width="1.2" stroke="#00f" stroke-miterlimit="10" fill="none"/><path d="M152 95.387l25.5 11.62" stroke-width="1.2" stroke="#000" stroke-miterlimit="10" fill="none"/><path d="M200.313 90.73l-1.344-13.945" stroke-width="1.2" stroke="#00f" stroke-miterlimit="10" fill="none"/><path d="M198.97 76.785l-1.345-13.945" stroke-width="1.2" stroke="#000" stroke-miterlimit="10" fill="none"/><path d="M196.313 84.23h8v13h-8zm0 0" fill="#fff"/><use xlink:href="#b" x="196.313" y="94.132" fill="#00f"/><path d="M197.625 62.84l-12.75-5.81" stroke-width="1.2" stroke="#000" stroke-miterlimit="10" fill="none"/><path d="M184.875 57.03l-12.75-5.81" stroke-width="1.2" stroke="#00f" stroke-miterlimit="10" fill="none"/><path d="M192.34 67.676l-10.2-4.645" stroke-width="1.2" stroke="#000" stroke-miterlimit="10" fill="none"/><path d="M182.14 63.03l-10.202-4.647" stroke-width="1.2" stroke="#00f" stroke-miterlimit="10" fill="none"/><path d="M197.625 62.84l11.402-8.137" stroke-width="1.2" stroke="#000" stroke-miterlimit="10" fill="none"/><path d="M209.027 54.703l11.407-8.137" stroke-width="1.2" stroke="#f00" stroke-miterlimit="10" fill="none"/><path d="M172.125 51.22l-11.406 8.135" stroke-width="1.2" stroke="#00f" stroke-miterlimit="10" fill="none"/><path d="M160.72 59.355l-11.407 8.14" stroke-width="1.2" stroke="#000" stroke-miterlimit="10" fill="none"/><path d="M168.125 44.72h8v13h-8zm0 0" fill="#fff"/><use xlink:href="#b" x="168.125" y="54.62" fill="#00f"/><path d="M149.313 67.496L152 95.386M156.145 69.652l2.148 22.313M152 95.387l-11.406 8.136" stroke-width="1.2" stroke="#000" stroke-miterlimit="10" fill="none"/><path d="M140.594 103.523l-11.406 8.137M129.188 111.66l1.343 13.95" stroke-width="1.2" stroke="#00f" stroke-miterlimit="10" fill="none"/><path d="M130.53 125.61l1.345 13.945" stroke-width="1.2" stroke="#000" stroke-miterlimit="10" fill="none"/><path d="M136.02 113.82l1.074 11.157" stroke-width="1.2" stroke="#00f" stroke-miterlimit="10" fill="none"/><path d="M137.094 124.977l1.074 11.156" stroke-width="1.2" stroke="#000" stroke-miterlimit="10" fill="none"/><path d="M125.188 105.16h8v13h-8zm0 0" fill="#fff"/><use xlink:href="#b" x="125.188" y="115.062" fill="#00f"/><path d="M131.875 139.555l25.5 11.617M131.875 139.555l-22.813 16.273M154.094 151.488l1.344 13.95" stroke-width="1.2" stroke="#000" stroke-miterlimit="10" fill="none"/><path d="M155.438 165.438l1.343 13.945" stroke-width="1.2" stroke="#f00" stroke-miterlimit="10" fill="none"/><path d="M160.656 150.86L162 164.804" stroke-width="1.2" stroke="#000" stroke-miterlimit="10" fill="none"/><path d="M162 164.805l1.344 13.945" stroke-width="1.2" stroke="#f00" stroke-miterlimit="10" fill="none"/><path d="M156.063 172.566h9v13h-9zm0 0" fill="#fff"/><use xlink:href="#a" x="156.063" y="182.468" fill="#f00"/><path d="M109.063 155.828l-25.5-11.617M103.777 160.668L83.38 151.37M111.75 183.723l-2.688-27.895M83.563 144.21L60.75 160.485M60.75 160.484l2.688 27.895M67.582 162.64l2.148 22.317M60.75 160.484L48 154.676" stroke-width="1.2" stroke="#000" stroke-miterlimit="10" fill="none"/><path d="M48 154.676l-12.75-5.81" stroke-width="1.2" stroke="#3cc" stroke-miterlimit="10" fill="none"/><path d="M63.438 188.38l25.5 11.616M88.938 199.996l22.812-16.273M87.39 193l18.25-13.02M88.938 199.996l1.343 13.945" stroke-width="1.2" stroke="#000" stroke-miterlimit="10" fill="none"/><path d="M90.28 213.94l1.345 13.95" stroke-width="1.2" stroke="#3cc" stroke-miterlimit="10" fill="none"/><path d="M88.625 221.39h7v13h-7zm0 0" fill="#fff"/><use xlink:href="#c" x="88.625" y="231.292" fill="#3cc"/><path d="M28.25 142.367h7v13h-7zm0 0" fill="#fff"/><use xlink:href="#c" x="28.25" y="152.269" fill="#3cc"/><path d="M220.434 46.566l12.75 5.81" stroke-width="1.2" stroke="#f00" stroke-miterlimit="10" fill="none"/><path d="M233.184 52.375l12.75 5.81" stroke-width="1.2" stroke="#000" stroke-miterlimit="10" fill="none"/><path d="M216.434 40.066h9v13h-9zm0 0" fill="#fff"/><use xlink:href="#a" x="216.434" y="49.968" fill="#f00"/></g></svg>