<svg xmlns="http://www.w3.org/2000/svg" xmlns:xlink="http://www.w3.org/1999/xlink" width="300pt" height="300pt" viewBox="0 0 300 300"><defs><symbol overflow="visible"><path d="M.453 1.594v-7.938h4.5v7.938zm.5-.5h3.5v-6.938h-3.5zm0 0"/></symbol><symbol overflow="visible" id="a"><path d="M.89-6.563H2.08l2.906 5.485v-5.484h.86V0H4.656L1.75-5.484V0H.89zm0 0"/></symbol><symbol overflow="visible" id="b"><path d="M3.547-5.953c-.65 0-1.164.242-1.547.72-.375.48-.563 1.13-.563 1.952 0 .835.188 1.49.563 1.967.383.48.898.72 1.547.72.644 0 1.156-.24 1.53-.72.376-.476.564-1.132.564-1.968 0-.822-.187-1.474-.562-1.954-.375-.477-.887-.72-1.53-.72zm0-.734c.914 0 1.648.312 2.203.937.55.617.828 1.438.828 2.47 0 1.042-.277 1.87-.828 2.483-.555.617-1.29.922-2.203.922-.93 0-1.668-.305-2.22-.922C.774-1.41.5-2.237.5-3.28c0-1.033.273-1.853.828-2.47.55-.625 1.29-.938 2.22-.938zm0 0"/></symbol><symbol overflow="visible" id="c"><path d="M.89-6.563h.876v2.688H5v-2.688h.89V0H5v-3.125H1.766V0H.89zm0 0"/></symbol></defs><g><path fill="#fff" d="M0 0h300v300H0z"/><path d="M35.25 188.238l7.582-6.715" stroke-width="1.2" stroke="#000" stroke-miterlimit="10" fill="none"/><path d="M42.832 181.523l7.582-6.71M50.414 174.813l-2.02-9.926" stroke-width="1.2" stroke="#00f" stroke-miterlimit="10" fill="none"/><path d="M48.395 164.887l-2.024-9.922" stroke-width="1.2" stroke="#000" stroke-miterlimit="10" fill="none"/><path d="M50.414 174.813l9.606 3.207" stroke-width="1.2" stroke="#00f" stroke-miterlimit="10" fill="none"/><path d="M60.02 178.02l9.605 3.21" stroke-width="1.2" stroke="#000" stroke-miterlimit="10" fill="none"/><path d="M47.414 169.313h7v11h-7zm0 0" fill="#fff"/><use xlink:href="#a" x="47.414" y="177.976" fill="#00f"/><path d="M67.29 181.707l2.022 9.922" stroke-width="1.2" stroke="#000" stroke-miterlimit="10" fill="none"/><path d="M69.313 191.63l2.023 9.925" stroke-width="1.2" stroke="#f00" stroke-miterlimit="10" fill="none"/><path d="M71.96 180.754l2.02 9.926" stroke-width="1.2" stroke="#000" stroke-miterlimit="10" fill="none"/><path d="M73.98 190.68l2.024 9.922" stroke-width="1.2" stroke="#f00" stroke-miterlimit="10" fill="none"/><path d="M69.625 181.23l15.164-13.425" stroke-width="1.2" stroke="#000" stroke-miterlimit="10" fill="none"/><path d="M69.668 195.578h8v11h-8zm0 0" fill="#fff"/><use xlink:href="#b" x="69.668" y="204.241" fill="#f00"/><path d="M84.79 167.805l-4.044-19.844M89.055 164.87l-3.235-15.878M104 174.227l-19.21-6.422M80.746 147.96l15.164-13.425M95.91 134.535l19.207 6.418M96.32 139.695l15.368 5.137M115.117 140.953l4.047 19.848M115.117 140.953l15.168-13.426M119.164 160.8L104 174.228M114.488 158.574l-12.133 10.742M130.285 127.527l19.207 6.422M133.715 123.652l15.367 5.137M126.238 107.684l4.047 19.843M149.492 133.95l15.168-13.427M164.66 120.523l-4.047-19.847M168.922 117.586l-3.234-15.875M183.867 126.945l-19.207-6.422M160.613 100.676l-19.207-6.418M160.613 100.676l7.582-6.71" stroke-width="1.2" stroke="#000" stroke-miterlimit="10" fill="none"/><path d="M168.195 93.965l7.582-6.715" stroke-width="1.2" stroke="#00f" stroke-miterlimit="10" fill="none"/><path d="M141.406 94.258l-15.168 13.426M143.047 99.168l-12.133 10.742" stroke-width="1.2" stroke="#000" stroke-miterlimit="10" fill="none"/><path d="M175.777 87.25l9.606 3.21" stroke-width="1.2" stroke="#00f" stroke-miterlimit="10" fill="none"/><path d="M185.383 90.46l9.605 3.212" stroke-width="1.2" stroke="#000" stroke-miterlimit="10" fill="none"/><path d="M176.188 92.414l7.683 2.566" stroke-width="1.2" stroke="#00f" stroke-miterlimit="10" fill="none"/><path d="M183.87 94.98l7.69 2.57" stroke-width="1.2" stroke="#000" stroke-miterlimit="10" fill="none"/><path d="M172.777 81.75h7v11h-7zm0 0" fill="#fff"/><use xlink:href="#a" x="172.777" y="90.413" fill="#00f"/><path d="M194.988 93.672l2.024 9.922" stroke-width="1.2" stroke="#000" stroke-miterlimit="10" fill="none"/><path d="M197.012 103.594l2.02 9.926M199.03 113.52l-7.58 6.71" stroke-width="1.2" stroke="#00f" stroke-miterlimit="10" fill="none"/><path d="M191.45 120.23l-7.583 6.715" stroke-width="1.2" stroke="#000" stroke-miterlimit="10" fill="none"/><path d="M194.355 111.293l-6.062 5.37" stroke-width="1.2" stroke="#00f" stroke-miterlimit="10" fill="none"/><path d="M188.293 116.664l-6.066 5.367" stroke-width="1.2" stroke="#000" stroke-miterlimit="10" fill="none"/><path d="M196.03 108.02h7v11h-7zm0 0" fill="#fff"/><use xlink:href="#a" x="196.031" y="116.683" fill="#00f"/><path d="M183.867 126.945l2.024 9.922" stroke-width="1.2" stroke="#000" stroke-miterlimit="10" fill="none"/><path d="M185.89 136.867l2.024 9.922M187.914 146.79l9.602 3.21" stroke-width="1.2" stroke="#00f" stroke-miterlimit="10" fill="none"/><path d="M197.516 150l9.605 3.21" stroke-width="1.2" stroke="#000" stroke-miterlimit="10" fill="none"/><path d="M180.914 141.29h14v11h-14zm0 0" fill="#fff"/><g fill="#00f"><use xlink:href="#a" x="180.914" y="149.952"/><use xlink:href="#c" x="187.892" y="149.952"/></g><path d="M207.12 153.21l4.048 19.845M211.168 173.055L196 186.48M212.81 177.97l-12.134 10.737M230.375 179.477l-19.207-6.422M196 186.48l4.047 19.848M200.047 206.328l19.207 6.422M203.477 202.45l15.367 5.136M219.254 212.75l15.168-13.426M234.422 199.324l-4.047-19.847M229.348 198.29l-3.24-15.876M230.375 179.477l7.582-6.71" stroke-width="1.2" stroke="#000" stroke-miterlimit="10" fill="none"/><path d="M237.957 172.766l7.582-6.715M245.54 166.05l9.605 3.212" stroke-width="1.2" stroke="#f00" stroke-miterlimit="10" fill="none"/><path d="M255.145 169.262l9.605 3.21" stroke-width="1.2" stroke="#000" stroke-miterlimit="10" fill="none"/><path d="M241.54 160.55h8v11h-8zm0 0" fill="#fff"/><use xlink:href="#b" x="241.539" y="169.214" fill="#f00"/></g></svg>