<svg xmlns="http://www.w3.org/2000/svg" xmlns:xlink="http://www.w3.org/1999/xlink" width="300pt" height="300pt" viewBox="0 0 300 300"><defs><symbol overflow="visible"><path d="M.453 1.594v-7.938h4.5v7.938zm.5-.5h3.5v-6.938h-3.5zm0 0"/></symbol><symbol overflow="visible" id="a"><path d="M3.547-5.953c-.65 0-1.164.242-1.547.72-.375.48-.563 1.13-.563 1.952 0 .835.188 1.49.563 1.967.383.48.898.72 1.547.72.644 0 1.156-.24 1.53-.72.376-.476.564-1.132.564-1.968 0-.822-.187-1.474-.562-1.954-.375-.477-.887-.72-1.53-.72zm0-.734c.914 0 1.648.312 2.203.937.55.617.828 1.438.828 2.47 0 1.042-.277 1.87-.828 2.483-.555.617-1.29.922-2.203.922-.93 0-1.668-.305-2.22-.922C.774-1.41.5-2.237.5-3.28c0-1.033.273-1.853.828-2.47.55-.625 1.29-.938 2.22-.938zm0 0"/></symbol><symbol overflow="visible" id="b"><path d="M.89-6.563H2.08l2.906 5.485v-5.484h.86V0H4.656L1.75-5.484V0H.89zm0 0"/></symbol><symbol overflow="visible" id="c"><path d="M.89-6.563h.876v2.688H5v-2.688h.89V0H5v-3.125H1.766V0H.89zm0 0"/></symbol></defs><g><path fill="#fff" d="M0 0h300v300H0z"/><path d="M35.25 192.473l7.703 7.027" stroke-width="1.2" stroke="#000" stroke-miterlimit="10" fill="none"/><path d="M42.953 199.5l7.703 7.023M50.656 206.523l9.934-3.16" stroke-width="1.2" stroke="#f00" stroke-miterlimit="10" fill="none"/><path d="M60.59 203.363l9.933-3.156" stroke-width="1.2" stroke="#000" stroke-miterlimit="10" fill="none"/><path d="M46.656 201.023h8v11h-8zm0 0" fill="#fff"/><use xlink:href="#a" x="46.656" y="209.687" fill="#f00"/><path d="M70.523 200.207l4.465-20.367M75.762 199.22l3.57-16.294M85.93 214.254l-15.407-14.047M74.988 179.84l19.867-6.317M94.855 173.523l15.407 14.05M93.094 178.555l12.32 11.238M110.262 187.574l-4.465 20.363M110.262 187.574l19.87-6.32M105.797 207.938l-19.867 6.316M102.324 203.895L86.43 208.95M130.133 181.254l7.7 7.027" stroke-width="1.2" stroke="#000" stroke-miterlimit="10" fill="none"/><path d="M137.832 188.28l7.703 7.025" stroke-width="1.2" stroke="#00f" stroke-miterlimit="10" fill="none"/><path d="M134.977 179.035l6.164 5.62" stroke-width="1.2" stroke="#000" stroke-miterlimit="10" fill="none"/><path d="M141.14 184.656l6.16 5.617" stroke-width="1.2" stroke="#00f" stroke-miterlimit="10" fill="none"/><path d="M134.594 160.89l-4.46 20.364" stroke-width="1.2" stroke="#000" stroke-miterlimit="10" fill="none"/><path d="M145.535 195.305l9.934-3.16" stroke-width="1.2" stroke="#00f" stroke-miterlimit="10" fill="none"/><path d="M155.47 192.145l9.936-3.157" stroke-width="1.2" stroke="#000" stroke-miterlimit="10" fill="none"/><path d="M142.535 189.805h7v11h-7zm0 0" fill="#fff"/><use xlink:href="#b" x="142.535" y="198.468" fill="#00f"/><path d="M165.406 188.988l15.403 14.047M170.25 186.77l12.324 11.238M169.867 168.62l-4.46 20.368M180.81 203.035l9.936-3.156" stroke-width="1.2" stroke="#000" stroke-miterlimit="10" fill="none"/><path d="M190.746 199.88l9.934-3.16M200.68 196.72l2.23-10.18" stroke-width="1.2" stroke="#00f" stroke-miterlimit="10" fill="none"/><path d="M202.91 186.54l2.235-10.185" stroke-width="1.2" stroke="#000" stroke-miterlimit="10" fill="none"/><path d="M196.332 193.633l1.785-8.145" stroke-width="1.2" stroke="#00f" stroke-miterlimit="10" fill="none"/><path d="M198.117 185.488l1.79-8.148" stroke-width="1.2" stroke="#000" stroke-miterlimit="10" fill="none"/><path d="M197.68 191.22h7v11h-7zm0 0" fill="#fff"/><use xlink:href="#b" x="197.68" y="199.882" fill="#00f"/><path d="M205.145 176.355l-7.704-7.023" stroke-width="1.2" stroke="#000" stroke-miterlimit="10" fill="none"/><path d="M197.44 169.332l-7.702-7.027" stroke-width="1.2" stroke="#00f" stroke-miterlimit="10" fill="none"/><path d="M205.145 176.355l9.933-3.16" stroke-width="1.2" stroke="#000" stroke-miterlimit="10" fill="none"/><path d="M215.078 173.195l9.934-3.156M189.738 162.305l-9.933 3.16" stroke-width="1.2" stroke="#00f" stroke-miterlimit="10" fill="none"/><path d="M179.805 165.465l-9.938 3.156" stroke-width="1.2" stroke="#000" stroke-miterlimit="10" fill="none"/><path d="M189.238 167.613l-7.95 2.528" stroke-width="1.2" stroke="#00f" stroke-miterlimit="10" fill="none"/><path d="M181.29 170.14l-7.946 2.524" stroke-width="1.2" stroke="#000" stroke-miterlimit="10" fill="none"/><path d="M186.738 156.805h7v11h-7zm0 0" fill="#fff"/><use xlink:href="#b" x="186.738" y="165.468" fill="#00f"/><path d="M169.867 168.62l-7.7-7.022" stroke-width="1.2" stroke="#000" stroke-miterlimit="10" fill="none"/><path d="M162.168 161.598l-7.703-7.024M154.465 154.574l-9.934 3.156" stroke-width="1.2" stroke="#00f" stroke-miterlimit="10" fill="none"/><path d="M144.53 157.73l-9.936 3.16" stroke-width="1.2" stroke="#000" stroke-miterlimit="10" fill="none"/><path d="M154.465 154.574l2.23-10.183" stroke-width="1.2" stroke="#00f" stroke-miterlimit="10" fill="none"/><path d="M156.695 144.39l2.235-10.183" stroke-width="1.2" stroke="#000" stroke-miterlimit="10" fill="none"/><path d="M151.465 149.074h7v11h-7zm0 0" fill="#fff"/><use xlink:href="#b" x="151.465" y="157.737" fill="#00f"/><path d="M136.246 159.078l-7.7-7.023" stroke-width="1.2" stroke="#000" stroke-miterlimit="10" fill="none"/><path d="M128.547 152.055l-7.703-7.024" stroke-width="1.2" stroke="#f00" stroke-miterlimit="10" fill="none"/><path d="M132.94 162.703l-7.702-7.023" stroke-width="1.2" stroke="#000" stroke-miterlimit="10" fill="none"/><path d="M125.238 155.68l-7.7-7.028" stroke-width="1.2" stroke="#f00" stroke-miterlimit="10" fill="none"/><path d="M111.19 141.34h8v11h-8zm0 0" fill="#fff"/><use xlink:href="#a" x="111.191" y="150.003" fill="#f00"/><path d="M158.93 134.207l-15.407-14.047M143.523 120.16l-19.87 6.317M140.05 116.117l-15.894 5.05M147.988 99.793l-4.465 20.367M123.652 126.477l-15.402-14.05M108.25 112.426l4.465-20.364M113.488 111.44l3.57-16.292M108.25 112.426l-9.934 3.16" stroke-width="1.2" stroke="#000" stroke-miterlimit="10" fill="none"/><path d="M98.316 115.586l-9.937 3.16" stroke-width="1.2" stroke="#f00" stroke-miterlimit="10" fill="none"/><path d="M112.715 92.063l19.867-6.317M132.582 85.746l15.406 14.047M130.816 90.773l12.325 11.243" stroke-width="1.2" stroke="#000" stroke-miterlimit="10" fill="none"/><path d="M88.38 118.746l-7.7-7.027" stroke-width="1.2" stroke="#f00" stroke-miterlimit="10" fill="none"/><path d="M80.68 111.72l-7.703-7.025" stroke-width="1.2" stroke="#000" stroke-miterlimit="10" fill="none"/><path d="M84.38 113.246h8v11h-8zm0 0" fill="#fff"/><use xlink:href="#a" x="84.379" y="121.909" fill="#f00"/><path d="M225.012 170.04l7.703 7.023" stroke-width="1.2" stroke="#00f" stroke-miterlimit="10" fill="none"/><path d="M232.715 177.063l7.703 7.023M229.477 149.672l-2.235 10.183" stroke-width="1.2" stroke="#000" stroke-miterlimit="10" fill="none"/><path d="M227.242 159.855l-2.23 10.184" stroke-width="1.2" stroke="#00f" stroke-miterlimit="10" fill="none"/><path d="M222.012 164.54h7v11h-7zm0 0" fill="#fff"/><use xlink:href="#b" x="222.012" y="173.202" fill="#00f"/><path d="M240.418 184.086l19.867-6.316M260.285 177.77l2.235-10.184" stroke-width="1.2" stroke="#000" stroke-miterlimit="10" fill="none"/><path d="M262.52 167.586l2.23-10.18M264.75 157.406l-7.703-7.027" stroke-width="1.2" stroke="#00f" stroke-miterlimit="10" fill="none"/><path d="M257.047 150.38l-7.703-7.025" stroke-width="1.2" stroke="#000" stroke-miterlimit="10" fill="none"/><path d="M257.75 151.906h14v11h-14zm0 0" fill="#fff"/><g fill="#00f"><use xlink:href="#b" x="257.75" y="160.569"/><use xlink:href="#c" x="264.728" y="160.569"/></g><path d="M249.344 143.355l-19.867 6.317" stroke-width="1.2" stroke="#000" stroke-miterlimit="10" fill="none"/></g></svg>