<svg xmlns="http://www.w3.org/2000/svg" xmlns:xlink="http://www.w3.org/1999/xlink" width="300pt" height="300pt" viewBox="0 0 300 300"><defs><symbol overflow="visible"><path d="M.547 1.938V-7.75h5.5v9.688zm.625-.61h4.266v-8.47H1.171zm0 0"/></symbol><symbol overflow="visible" id="a"><path d="M1.078-8.016h1.47l3.546 6.704v-6.704h1.062V0H5.688L2.124-6.703V0H1.078zm0 0"/></symbol><symbol overflow="visible" id="b"><path d="M4.328-7.28c-.78 0-1.406.296-1.875.89-.46.585-.687 1.382-.687 2.39 0 1.012.226 1.813.687 2.406.47.586 1.094.875 1.875.875.79 0 1.414-.288 1.875-.874.457-.593.688-1.394.688-2.406 0-1.008-.23-1.805-.687-2.39-.46-.594-1.086-.89-1.875-.89zm0-.892c1.125 0 2.024.383 2.703 1.14C7.708-6.28 8.048-5.27 8.048-4c0 1.262-.34 2.273-1.016 3.03C6.353-.22 5.454.157 4.33.157S2.3-.22 1.625-.97c-.668-.75-1-1.757-1-3.03 0-1.27.332-2.28 1-3.03.676-.76 1.578-1.142 2.703-1.142zm0 0"/></symbol><symbol overflow="visible" id="c"><path d="M5.89-7.75v1.047c-.417-.195-.808-.344-1.17-.438-.368-.094-.72-.14-1.064-.14-.586 0-1.04.116-1.36.343-.323.23-.483.554-.483.968 0 .357.1.626.312.814.22.18.625.324 1.22.437L4-4.593c.813.157 1.41.434 1.797.828.383.387.578.903.578 1.547 0 .783-.262 1.376-.78 1.783-.525.398-1.29.593-2.298.593-.375 0-.78-.047-1.22-.14C1.648-.066 1.208-.19.75-.36v-1.11c.445.25.88.44 1.297.564.426.125.844.187 1.25.187.625 0 1.1-.116 1.437-.358.332-.25.5-.598.5-1.047 0-.395-.12-.703-.36-.922-.24-.226-.636-.398-1.186-.515l-.657-.126c-.81-.156-1.4-.406-1.764-.75C.898-4.78.72-5.258.72-5.875c0-.707.25-1.266.75-1.672.5-.414 1.19-.625 2.077-.625.375 0 .754.04 1.14.11.395.074.797.18 1.204.312zm0 0"/></symbol></defs><g><path fill="#fff" d="M0 0h300v300H0z"/><path d="M149.94 237.746l-22.936-16.57M175.762 226.168l-25.82 11.578M127.004 221.176l2.88-28.153M129.883 193.023l2.883-28.152M129.883 193.023l25.82-11.578M104.063 204.602l25.82-11.58M132.766 164.87l-22.938-16.57M109.828 148.3l-12.91 5.79" stroke-width="1.2" stroke="#000" stroke-miterlimit="10" fill="none"/><path d="M96.918 154.09l-12.91 5.793M84.008 159.883l-1.442 14.074" stroke-width="1.2" stroke="#00f" stroke-miterlimit="10" fill="none"/><path d="M82.566 173.957l-1.44 14.074" stroke-width="1.2" stroke="#000" stroke-miterlimit="10" fill="none"/><path d="M84.008 159.883l-11.47-8.29" stroke-width="1.2" stroke="#00f" stroke-miterlimit="10" fill="none"/><path d="M72.54 151.594l-11.47-8.285" stroke-width="1.2" stroke="#000" stroke-miterlimit="10" fill="none"/><path d="M80.008 153.383h8v13h-8zm0 0" fill="#fff"/><use xlink:href="#a" x="80.008" y="163.284" fill="#00f"/><path d="M81.125 188.03l22.938 16.572M59.707 140.273l-12.91 5.79" stroke-width="1.2" stroke="#000" stroke-miterlimit="10" fill="none"/><path d="M46.797 146.063l-12.91 5.79" stroke-width="1.2" stroke="#f00" stroke-miterlimit="10" fill="none"/><path d="M62.434 146.348l-12.91 5.79" stroke-width="1.2" stroke="#000" stroke-miterlimit="10" fill="none"/><path d="M49.523 152.137l-12.91 5.79" stroke-width="1.2" stroke="#f00" stroke-miterlimit="10" fill="none"/><path d="M61.07 143.31l2.883-28.15" stroke-width="1.2" stroke="#000" stroke-miterlimit="10" fill="none"/><path d="M26.25 148.39h9v13h-9zm0 0" fill="#fff"/><use xlink:href="#b" x="26.25" y="158.292" fill="#f00"/><path d="M63.953 115.16L42.87 96.28M66.285 108.313L49.422 93.207" stroke-width="1.2" stroke="#000" stroke-miterlimit="10" fill="none"/><path d="M88.422 100.945l-12.234 7.106" stroke-width="1.2" stroke="#00f" stroke-miterlimit="10" fill="none"/><path d="M76.188 108.05l-12.235 7.11M42.87 96.28l5.724-12.94" stroke-width="1.2" stroke="#000" stroke-miterlimit="10" fill="none"/><path d="M48.594 83.34l5.718-12.942M54.313 70.398l14.074 1.442" stroke-width="1.2" stroke="#cc0" stroke-miterlimit="10" fill="none"/><path d="M68.387 71.84l14.074 1.44" stroke-width="1.2" stroke="#00f" stroke-miterlimit="10" fill="none"/><path d="M51.313 63.898h7v13h-7zm0 0" fill="#fff"/><use xlink:href="#c" x="51.313" y="73.8" fill="#cc0"/><path d="M82.46 73.28l5.962 27.665M76.55 77.45l4.766 22.128" stroke-width="1.2" stroke="#00f" stroke-miterlimit="10" fill="none"/><path d="M78.46 66.78h8v13h-8zm0 0" fill="#fff"/><use xlink:href="#a" x="78.461" y="76.683" fill="#00f"/><path d="M84.422 94.445h8v13h-8zm0 0" fill="#fff"/><use xlink:href="#a" x="84.422" y="104.347" fill="#00f"/><path d="M155.703 181.445l11.473 8.285" stroke-width="1.2" stroke="#000" stroke-miterlimit="10" fill="none"/><path d="M167.176 189.73l11.47 8.286M178.645 198.016l-1.442 14.074" stroke-width="1.2" stroke="#00f" stroke-miterlimit="10" fill="none"/><path d="M177.203 212.09l-1.44 14.078" stroke-width="1.2" stroke="#000" stroke-miterlimit="10" fill="none"/><path d="M178.645 198.016l12.91-5.79" stroke-width="1.2" stroke="#00f" stroke-miterlimit="10" fill="none"/><path d="M191.555 192.227l12.91-5.79" stroke-width="1.2" stroke="#000" stroke-miterlimit="10" fill="none"/><path d="M174.645 191.516h8v13h-8zm0 0" fill="#fff"/><use xlink:href="#a" x="174.645" y="201.417" fill="#00f"/><path d="M204.465 186.438l22.937 16.57M210.656 182.695l18.352 13.258M207.344 158.285l-2.88 28.153M227.402 203.008l25.82-11.578M253.223 191.43l2.882-28.153M246.887 187.934l2.304-22.52M256.105 163.277l-22.94-16.57M233.164 146.707l-25.82 11.578M233.31 153.94l-20.658 9.263M233.164 146.707l2.883-28.152M236.047 118.555l25.82-11.578M235.906 111.324l20.656-9.265M213.11 101.984l22.937 16.57M261.867 106.977l2.883-28.153M264.75 78.824l-22.938-16.57M258.56 82.566L240.206 69.31M241.813 62.254l-25.82 11.578M215.992 73.832l-2.883 28.152M222.328 77.328l-2.308 22.52" stroke-width="1.2" stroke="#000" stroke-miterlimit="10" fill="none"/></g></svg>