<svg xmlns="http://www.w3.org/2000/svg" xmlns:xlink="http://www.w3.org/1999/xlink" width="300pt" height="300pt" viewBox="0 0 300 300"><defs><symbol overflow="visible"><path d="M.64 2.297v-11.47h6.5v11.47zm.735-.72h5.047V-8.436H1.375zm0 0"/></symbol><symbol overflow="visible" id="a"><path d="M1.28-9.484H3l4.203 7.937v-7.937h1.25V0H6.72L2.515-7.922V0H1.28zm0 0"/></symbol><symbol overflow="visible" id="b"><path d="M1.28-9.484h1.282v3.89H7.22v-3.89H8.5V0H7.22v-4.516H2.562V0H1.28zm0 0"/></symbol><symbol overflow="visible" id="c"><path d="M1.28-9.484h5.44v1.093H2.562v2.78h3.75v1.08h-3.75V0H1.28zm0 0"/></symbol></defs><g><path fill="#fff" d="M0 0h300v300H0z"/><path d="M246.898 223.973l17.852-27.364M232.13 194.828l14.768 29.145M264.75 196.61l-32.62-1.782M232.13 194.828l-13.685-8.926" stroke-width="1.2" stroke="#000" stroke-miterlimit="10" fill="none"/><path d="M218.445 185.902l-13.68-8.925M204.766 176.977l.886-16.31" stroke-width="1.2" stroke="#00f" stroke-miterlimit="10" fill="none"/><path d="M205.652 160.668l.89-16.313" stroke-width="1.2" stroke="#000" stroke-miterlimit="10" fill="none"/><path d="M194.766 168.977h20v16h-20zm0 0" fill="#fff"/><g fill="#00f"><use xlink:href="#a" x="194.766" y="181.353"/><use xlink:href="#b" x="204.735" y="181.353"/></g><path d="M206.543 144.355l14.57-7.386" stroke-width="1.2" stroke="#000" stroke-miterlimit="10" fill="none"/><path d="M221.113 136.97l14.57-7.388" stroke-width="1.2" stroke="#00f" stroke-miterlimit="10" fill="none"/><path d="M205.98 136.02l11.657-5.907" stroke-width="1.2" stroke="#000" stroke-miterlimit="10" fill="none"/><path d="M217.637 130.113l11.656-5.91" stroke-width="1.2" stroke="#00f" stroke-miterlimit="10" fill="none"/><path d="M179.18 126.504l27.363 17.85" stroke-width="1.2" stroke="#000" stroke-miterlimit="10" fill="none"/><path d="M235.684 129.582l.89-16.31" stroke-width="1.2" stroke="#00f" stroke-miterlimit="10" fill="none"/><path d="M236.574 113.273l.887-16.312" stroke-width="1.2" stroke="#000" stroke-miterlimit="10" fill="none"/><path d="M230.684 121.582h10v16h-10zm0 0" fill="#fff"/><use xlink:href="#a" x="230.684" y="133.958" fill="#00f"/><path d="M237.46 96.96l-13.68-8.925" stroke-width="1.2" stroke="#000" stroke-miterlimit="10" fill="none"/><path d="M223.78 88.035L210.1 79.11" stroke-width="1.2" stroke="#00f" stroke-miterlimit="10" fill="none"/><path d="M230.527 101.613l-10.945-7.14" stroke-width="1.2" stroke="#000" stroke-miterlimit="10" fill="none"/><path d="M219.582 94.473l-10.945-7.14M210.098 79.11l-14.57 7.386" stroke-width="1.2" stroke="#00f" stroke-miterlimit="10" fill="none"/><path d="M195.527 86.496l-14.57 7.383" stroke-width="1.2" stroke="#000" stroke-miterlimit="10" fill="none"/><path d="M205.098 71.11h10v16h-10zm0 0" fill="#fff"/><use xlink:href="#a" x="205.098" y="83.485" fill="#00f"/><path d="M180.957 93.88l-1.777 32.624M173.105 96.723l-1.425 26.1M153.594 76.027l27.363 17.852M179.18 126.504l-29.14 14.77M150.04 141.273l-27.364-17.85M151.5 133.05l-21.89-14.28M122.676 123.422l1.777-32.62M122.676 123.422L93.53 138.195M124.453 90.8l29.14-14.773M130.844 96.18l23.312-11.817M93.53 138.195l-27.362-17.85M86.598 142.848l-21.89-14.282M91.754 170.816l1.777-32.62M66.168 120.344l-29.14 14.77M37.027 135.113l-1.777 32.625M44.527 138.797l-1.422 26.098M35.25 167.738l27.363 17.852M62.613 185.59l29.14-14.774M62.05 177.254l23.313-11.816M91.754 170.816l27.363 17.852M119.117 188.668l13.684 8.926" stroke-width="1.2" stroke="#000" stroke-miterlimit="10" fill="none"/><path d="M132.8 197.594l13.68 8.926" stroke-width="1.2" stroke="#3cc" stroke-miterlimit="10" fill="none"/><path d="M119.117 188.668l-8.926 13.684" stroke-width="1.2" stroke="#000" stroke-miterlimit="10" fill="none"/><path d="M110.19 202.352l-8.924 13.68" stroke-width="1.2" stroke="#3cc" stroke-miterlimit="10" fill="none"/><path d="M119.117 188.668l8.926-13.68" stroke-width="1.2" stroke="#000" stroke-miterlimit="10" fill="none"/><path d="M128.043 174.988l8.926-13.683" stroke-width="1.2" stroke="#3cc" stroke-miterlimit="10" fill="none"/><path d="M142.48 198.52h8v16h-8zm0 0" fill="#fff"/><use xlink:href="#c" x="142.48" y="210.896" fill="#3cc"/><path d="M93.266 208.03h8v16h-8zm0 0" fill="#fff"/><use xlink:href="#c" x="93.266" y="220.407" fill="#3cc"/><path d="M132.97 153.305h8v16h-8zm0 0" fill="#fff"/><use xlink:href="#c" x="132.969" y="165.681" fill="#3cc"/></g></svg>