<svg xmlns="http://www.w3.org/2000/svg" xmlns:xlink="http://www.w3.org/1999/xlink" width="300pt" height="300pt" viewBox="0 0 300 300"><defs><symbol overflow="visible"><path d="M.453 1.594v-7.938h4.5v7.938zm.5-.5h3.5v-6.938h-3.5zm0 0"/></symbol><symbol overflow="visible" id="a"><path d="M3.547-5.953c-.65 0-1.164.242-1.547.72-.375.48-.563 1.13-.563 1.952 0 .835.188 1.49.563 1.967.383.48.898.72 1.547.72.644 0 1.156-.24 1.53-.72.376-.476.564-1.132.564-1.968 0-.822-.187-1.474-.562-1.954-.375-.477-.887-.72-1.53-.72zm0-.734c.914 0 1.648.312 2.203.937.55.617.828 1.438.828 2.47 0 1.042-.277 1.87-.828 2.483-.555.617-1.29.922-2.203.922-.93 0-1.668-.305-2.22-.922C.774-1.41.5-2.237.5-3.28c0-1.033.273-1.853.828-2.47.55-.625 1.29-.938 2.22-.938zm0 0"/></symbol><symbol overflow="visible" id="b"><path d="M.89-6.563H2.08l2.906 5.485v-5.484h.86V0H4.656L1.75-5.484V0H.89zm0 0"/></symbol></defs><g><path fill="#fff" d="M0 0h300v300H0z"/><path d="M35.25 127.043l8.625 5.414" stroke-width="1.2" stroke="#000" stroke-miterlimit="10" fill="none"/><path d="M43.875 132.457l8.625 5.414M52.5 137.87l9-4.76" stroke-width="1.2" stroke="#f00" stroke-miterlimit="10" fill="none"/><path d="M61.5 133.11l9-4.762" stroke-width="1.2" stroke="#000" stroke-miterlimit="10" fill="none"/><path d="M48.5 132.37h8v11h-8zm0 0" fill="#fff"/><use xlink:href="#a" x="48.5" y="141.034" fill="#f00"/><path d="M70.5 128.348l.75-20.352M75.363 126.488l.602-16.28M87.75 139.172L70.5 128.348M71.25 107.996l18.004-9.527M89.254 98.47l17.246 10.827M88.43 103.613l13.8 8.66M106.5 109.297l-.75 20.35M105.75 129.648l-18 9.524M101.707 126.367l-14.398 7.617M87.75 139.172l-.754 20.35M86.996 159.523l8.625 5.415" stroke-width="1.2" stroke="#000" stroke-miterlimit="10" fill="none"/><path d="M95.62 164.938l8.626 5.414M104.246 170.352l-.375 10.175" stroke-width="1.2" stroke="#00f" stroke-miterlimit="10" fill="none"/><path d="M103.87 180.527l-.378 10.176M122.246 160.828l-9 4.762" stroke-width="1.2" stroke="#000" stroke-miterlimit="10" fill="none"/><path d="M113.246 165.59l-9 4.762" stroke-width="1.2" stroke="#00f" stroke-miterlimit="10" fill="none"/><path d="M101.246 164.852h7v11h-7zm0 0" fill="#fff"/><use xlink:href="#b" x="101.246" y="173.515" fill="#00f"/><path d="M103.492 190.703l17.25 10.828M120.742 201.53l18-9.526M138.742 192.004l.754-20.352M139.496 171.652l-17.25-10.824M139.496 171.652l17.25 10.828M140.246 151.3l-.75 20.352M156.746 182.48l18-9.523M174.746 172.957l.375-10.176" stroke-width="1.2" stroke="#000" stroke-miterlimit="10" fill="none"/><path d="M175.12 162.78l.376-10.175M175.496 152.605l-8.625-5.414" stroke-width="1.2" stroke="#00f" stroke-miterlimit="10" fill="none"/><path d="M166.87 147.19l-8.62-5.413" stroke-width="1.2" stroke="#000" stroke-miterlimit="10" fill="none"/><path d="M175.496 152.605l9-4.76" stroke-width="1.2" stroke="#00f" stroke-miterlimit="10" fill="none"/><path d="M184.496 147.844l9.004-4.766" stroke-width="1.2" stroke="#000" stroke-miterlimit="10" fill="none"/><path d="M172.496 147.105h7v11h-7zm0 0" fill="#fff"/><use xlink:href="#b" x="172.496" y="155.769" fill="#00f"/><path d="M158.25 141.777l-18.004 9.524M195.895 143.168l.375-10.176" stroke-width="1.2" stroke="#000" stroke-miterlimit="10" fill="none"/><path d="M196.27 132.992l.375-10.176" stroke-width="1.2" stroke="#f00" stroke-miterlimit="10" fill="none"/><path d="M191.105 142.992l.375-10.176" stroke-width="1.2" stroke="#000" stroke-miterlimit="10" fill="none"/><path d="M191.48 132.816l.375-10.175" stroke-width="1.2" stroke="#f00" stroke-miterlimit="10" fill="none"/><path d="M193.5 143.078l8.62 5.414" stroke-width="1.2" stroke="#000" stroke-miterlimit="10" fill="none"/><path d="M202.12 148.492l8.626 5.414" stroke-width="1.2" stroke="#f00" stroke-miterlimit="10" fill="none"/><path d="M190.25 117.227h8v11h-8zm0 0" fill="#fff"/><use xlink:href="#a" x="190.25" y="125.89" fill="#f00"/><path d="M210.746 153.906l9-4.76" stroke-width="1.2" stroke="#f00" stroke-miterlimit="10" fill="none"/><path d="M219.746 149.145l9.004-4.762" stroke-width="1.2" stroke="#000" stroke-miterlimit="10" fill="none"/><path d="M206.746 148.406h8v11h-8zm0 0" fill="#fff"/><use xlink:href="#a" x="206.746" y="157.069" fill="#f00"/><path d="M228.75 144.383l17.246 10.828M233.02 141.406l13.8 8.66M229.5 124.03l-.75 20.353M245.996 155.21L264 145.685M264 145.684l.75-20.352M259.285 143.473l.602-16.282M264.75 125.332l-17.25-10.824M247.5 114.508l-18 9.523M247.94 119.695l-14.397 7.618" stroke-width="1.2" stroke="#000" stroke-miterlimit="10" fill="none"/></g></svg>