<svg xmlns="http://www.w3.org/2000/svg" xmlns:xlink="http://www.w3.org/1999/xlink" width="300pt" height="300pt" viewBox="0 0 300 300"><defs><symbol overflow="visible"><path d="M.453 1.594v-7.938h4.5v7.938zm.5-.5h3.5v-6.938h-3.5zm0 0"/></symbol><symbol overflow="visible" id="a"><path d="M.89-6.563H2.08l2.906 5.485v-5.484h.86V0H4.656L1.75-5.484V0H.89zm0 0"/></symbol><symbol overflow="visible" id="b"><path d="M3.547-5.953c-.65 0-1.164.242-1.547.72-.375.48-.563 1.13-.563 1.952 0 .835.188 1.49.563 1.967.383.48.898.72 1.547.72.644 0 1.156-.24 1.53-.72.376-.476.564-1.132.564-1.968 0-.822-.187-1.474-.562-1.954-.375-.477-.887-.72-1.53-.72zm0-.734c.914 0 1.648.312 2.203.937.55.617.828 1.438.828 2.47 0 1.042-.277 1.87-.828 2.483-.555.617-1.29.922-2.203.922-.93 0-1.668-.305-2.22-.922C.774-1.41.5-2.237.5-3.28c0-1.033.273-1.853.828-2.47.55-.625 1.29-.938 2.22-.938zm0 0"/></symbol><symbol overflow="visible" id="c"><path d="M5.797-6.063v.938c-.305-.27-.625-.473-.97-.61-.335-.144-.686-.218-1.06-.218-.75 0-1.33.23-1.736.687-.397.46-.592 1.12-.592 1.985 0 .866.195 1.526.593 1.983.408.46.986.688 1.736.688.375 0 .726-.066 1.062-.203.344-.132.664-.343.97-.625V-.5c-.314.21-.642.367-.986.47-.343.1-.714.155-1.11.155-.99 0-1.772-.3-2.343-.906C.784-1.396.5-2.228.5-3.28c0-1.052.285-1.88.86-2.486.57-.613 1.35-.92 2.343-.92.395-.002.766.053 1.11.155.35.104.68.26.984.468zm0 0"/></symbol><symbol overflow="visible" id="d"><path d="M.844-6.844h.812V0H.844zm0 0"/></symbol></defs><g><path fill="#fff" d="M0 0h300v300H0z"/><path d="M35.25 152.934l9.05-7.73" stroke-width="1.2" stroke="#000" stroke-miterlimit="10" fill="none"/><path d="M44.3 145.203l9.048-7.734M53.348 137.47l-2.172-11.704" stroke-width="1.2" stroke="#00f" stroke-miterlimit="10" fill="none"/><path d="M51.176 125.766l-2.172-11.704" stroke-width="1.2" stroke="#000" stroke-miterlimit="10" fill="none"/><path d="M53.348 137.47l11.222 3.968" stroke-width="1.2" stroke="#00f" stroke-miterlimit="10" fill="none"/><path d="M64.57 141.438l11.223 3.972" stroke-width="1.2" stroke="#000" stroke-miterlimit="10" fill="none"/><path d="M50.348 131.97h7v11h-7zm0 0" fill="#fff"/><use xlink:href="#a" x="50.348" y="140.632" fill="#00f"/><path d="M93.89 129.94l-20.828 12.275 5.46 6.387zm0 0"/><path d="M93.89 129.94l-4.343-23.405M116.336 137.883L93.89 129.94M89.547 106.535l18.098-15.47M107.645 91.066l22.44 7.942M130.086 99.008l4.348 23.406M136.03 100.328l3.478 18.723" stroke-width="1.2" stroke="#000" stroke-miterlimit="10" fill="none"/><path d="M148.188 83.543l-9.05 7.73" stroke-width="1.2" stroke="#f00" stroke-miterlimit="10" fill="none"/><path d="M139.137 91.273l-9.05 7.735M134.434 122.414l-18.098 15.47M134.434 122.414l22.44 7.94M113.582 138.395l2.172 11.703" stroke-width="1.2" stroke="#000" stroke-miterlimit="10" fill="none"/><path d="M115.754 150.098l2.172 11.703" stroke-width="1.2" stroke="#f00" stroke-miterlimit="10" fill="none"/><path d="M119.09 137.37l2.172 11.704" stroke-width="1.2" stroke="#000" stroke-miterlimit="10" fill="none"/><path d="M121.262 149.074l2.172 11.703" stroke-width="1.2" stroke="#f00" stroke-miterlimit="10" fill="none"/><path d="M116.68 155.79h8v11h-8zm0 0" fill="#fff"/><use xlink:href="#b" x="116.68" y="164.452" fill="#f00"/><path d="M156.875 130.355l18.102-15.464M156.875 130.355l4.348 23.407M174.977 114.89l-4.348-23.41M180.047 111.527L176.57 92.8M197.418 122.828l-22.44-7.937M170.63 91.48l-11.224-3.968" stroke-width="1.2" stroke="#000" stroke-miterlimit="10" fill="none"/><path d="M159.406 87.512l-11.22-3.97" stroke-width="1.2" stroke="#f00" stroke-miterlimit="10" fill="none"/><path d="M170.63 91.48l18.097-15.464" stroke-width="1.2" stroke="#000" stroke-miterlimit="10" fill="none"/><path d="M144.188 78.043h8v11h-8zm0 0" fill="#fff"/><use xlink:href="#b" x="144.188" y="86.706" fill="#f00"/><path d="M188.727 76.016l22.445 7.94M211.172 83.957l4.344 23.406M215.516 107.363l-18.098 15.465" stroke-width="1.2" stroke="#000" stroke-miterlimit="10" fill="none"/><path d="M215.516 107.363m2.613 1.477l.347-.985m2.26 2.46l.697-1.963m1.918 3.44l1.043-2.948m1.566 4.426l1.395-3.93m1.22 5.406l1.738-4.914m.87 6.39l2.09-5.894m.524 7.375l2.433-6.883m.176 8.36l2.785-7.868m-2.63 7.954l2.803-7.922" stroke="#000" stroke-miterlimit="10" fill="none"/><path d="M194.664 123.34l2.172 11.703" stroke-width="1.2" stroke="#000" stroke-miterlimit="10" fill="none"/><path d="M196.836 135.043l2.176 11.707" stroke-width="1.2" stroke="#f00" stroke-miterlimit="10" fill="none"/><path d="M200.172 122.32l2.172 11.703" stroke-width="1.2" stroke="#000" stroke-miterlimit="10" fill="none"/><path d="M202.344 134.023l2.176 11.704" stroke-width="1.2" stroke="#f00" stroke-miterlimit="10" fill="none"/><path d="M197.766 140.738h8v11h-8zm0 0" fill="#fff"/><use xlink:href="#b" x="197.766" y="149.401" fill="#f00"/><path d="M237.96 115.305l2.173 11.703" stroke-width="1.2" stroke="#000" stroke-miterlimit="10" fill="none"/><path d="M240.133 127.008l2.172 11.703M242.305 138.71l11.222 3.97" stroke-width="1.2" stroke="#00f" stroke-miterlimit="10" fill="none"/><path d="M253.527 142.68l11.223 3.972" stroke-width="1.2" stroke="#000" stroke-miterlimit="10" fill="none"/><path d="M242.305 138.71l-9.047 7.735" stroke-width="1.2" stroke="#00f" stroke-miterlimit="10" fill="none"/><path d="M233.258 146.445l-9.05 7.73" stroke-width="1.2" stroke="#000" stroke-miterlimit="10" fill="none"/><path d="M239.305 133.21h7v11h-7zm0 0" fill="#fff"/><use xlink:href="#a" x="239.305" y="141.874" fill="#00f"/><path d="M161.223 153.762l-18.098 15.468M163.05 159.566l-14.476 12.375M183.664 161.703l-22.44-7.94M143.125 169.23l4.344 23.407M147.47 192.637l22.444 7.94M151.582 188.148l17.953 6.356M147.47 192.637l-9.052 7.734" stroke-width="1.2" stroke="#000" stroke-miterlimit="10" fill="none"/><path d="M138.418 200.37l-9.047 7.732" stroke-width="1.2" stroke="#0c0" stroke-miterlimit="10" fill="none"/><path d="M169.914 200.578l18.098-15.47M169.914 200.578l2.172 11.703" stroke-width="1.2" stroke="#000" stroke-miterlimit="10" fill="none"/><path d="M172.086 212.28l2.172 11.704" stroke-width="1.2" stroke="#0c0" stroke-miterlimit="10" fill="none"/><path d="M188.012 185.11l-4.348-23.407M182.07 183.793l-3.476-18.727" stroke-width="1.2" stroke="#000" stroke-miterlimit="10" fill="none"/><path d="M169.258 218.484h10v11h-10zm0 0" fill="#fff"/><g fill="#0c0"><use xlink:href="#c" x="169.258" y="227.147"/><use xlink:href="#d" x="175.771" y="227.147"/></g><path d="M119.37 202.602h10v11h-10zm0 0" fill="#fff"/><g fill="#0c0"><use xlink:href="#c" x="119.371" y="211.265"/><use xlink:href="#d" x="125.885" y="211.265"/></g></g></svg>