<svg xmlns="http://www.w3.org/2000/svg" xmlns:xlink="http://www.w3.org/1999/xlink" width="300pt" height="300pt" viewBox="0 0 300 300"><defs><symbol overflow="visible"><path d="M.64 2.297v-11.47h6.5v11.47zm.735-.72h5.047V-8.436H1.375zm0 0"/></symbol><symbol overflow="visible" id="a"><path d="M5.125-8.61c-.938 0-1.684.352-2.234 1.047-.542.688-.812 1.633-.812 2.83 0 1.198.27 2.147.813 2.842.55.687 1.297 1.03 2.235 1.03.926 0 1.66-.343 2.203-1.03.55-.696.828-1.645.828-2.844 0-1.196-.277-2.14-.828-2.829-.543-.695-1.277-1.046-2.203-1.046zm0-1.046c1.32 0 2.38.45 3.172 1.344.8.898 1.203 2.09 1.203 3.578 0 1.5-.402 2.7-1.203 3.593C7.504-.255 6.445.186 5.125.186c-1.336 0-2.402-.44-3.203-1.328C1.13-2.036.734-3.235.734-4.735c0-1.49.395-2.68 1.188-3.579.8-.894 1.867-1.343 3.203-1.343zm0 0"/></symbol><symbol overflow="visible" id="b"><path d="M1.28-9.484h1.282v3.89H7.22v-3.89H8.5V0H7.22v-4.516H2.562V0H1.28zm0 0"/></symbol></defs><g><path fill="#fff" d="M0 0h300v300H0z"/><path d="M90.44 190.914m2.38 1.824l.485-.922m1.898 2.75l.96-1.85m1.42 3.675l1.444-2.773m.934 4.602l1.927-3.7m.457 5.523l2.406-4.625m-.027 6.453l2.886-5.55m-.508 7.375l3.37-6.472m-.992 8.3l3.852-7.398m-1.47 9.227l4.333-8.33m-1.953 10.154l4.813-9.25m-2.434 11.078l5.298-10.176m-3.613 11.465l5.632-10.828" stroke="#000" stroke-miterlimit="10" fill="none"/><path d="M90.44 190.914l-30.948 15.438M85.324 156.71l5.117 34.204M106.406 160.234l-15.965 30.68M59.492 206.352L35.25 181.687" stroke-width="1.2" stroke="#000" stroke-miterlimit="10" fill="none"/><path d="M51.215 151.008l-21.38 27.863 10.83 5.634zm0 0"/><path d="M51.215 151.008l34.11 5.703M51.215 151.008l30.945-15.434M82.16 135.574l24.246 24.66M82.16 135.574l27.063-21.535M82.16 135.574l-18.586-29.168" stroke-width="1.2" stroke="#000" stroke-miterlimit="10" fill="none"/><path d="M106.406 160.234m2.996.078l-.152-1.03m3.152 1.11l-.308-2.064m3.308 2.14l-.465-3.093m3.465 3.172l-.617-4.12m3.613 4.202l-.77-5.157m3.77 5.234l-.925-6.187m3.925 6.265l-1.082-7.22m4.082 7.298l-1.234-8.25m4.23 8.328l-1.386-9.28m4.387 9.36l-1.543-10.313m4.543 10.39l-1.7-11.343m3.817 11.398l-1.81-12.07" stroke="#000" stroke-miterlimit="10" fill="none"/><path d="M140.61 155.117l10.765 13.53" stroke-width="1.2" stroke="#f00" stroke-miterlimit="10" fill="none"/><path d="M151.375 168.648l10.766 13.532" stroke-width="1.2" stroke="#000" stroke-miterlimit="10" fill="none"/><path d="M135.61 147.117h11v16h-11zm0 0" fill="#fff"/><use xlink:href="#a" x="135.609" y="159.493" fill="#f00"/><path d="M158.355 180.688l-6.335 16.09" stroke-width="1.2" stroke="#000" stroke-miterlimit="10" fill="none"/><path d="M152.02 196.777l-6.333 16.09" stroke-width="1.2" stroke="#f00" stroke-miterlimit="10" fill="none"/><path d="M165.926 183.668l-6.332 16.09" stroke-width="1.2" stroke="#000" stroke-miterlimit="10" fill="none"/><path d="M159.594 199.758l-6.336 16.09" stroke-width="1.2" stroke="#f00" stroke-miterlimit="10" fill="none"/><path d="M162.14 182.18l34.204-5.118" stroke-width="1.2" stroke="#000" stroke-miterlimit="10" fill="none"/><path d="M138.473 206.36h11v16h-11zm0 0" fill="#fff"/><use xlink:href="#a" x="138.473" y="218.735" fill="#f00"/><path d="M196.344 177.063l21.535 27.062M204.863 174.703l17.227 21.65M209.016 144.883l-12.672 32.18M217.88 204.125l34.202-5.117M252.082 199.008l12.668-32.18M245.777 192.81l10.133-25.748M264.75 166.828l-21.535-27.062M243.215 139.766l-34.2 5.117M241 148.324l-27.363 4.094M209.016 144.883L187.48 117.82M186.88 113.797l-17.103 2.558" stroke-width="1.2" stroke="#000" stroke-miterlimit="10" fill="none"/><path d="M169.777 116.355l-17.1 2.56" stroke-width="1.2" stroke="#f00" stroke-miterlimit="10" fill="none"/><path d="M188.082 121.844l-17.102 2.558" stroke-width="1.2" stroke="#000" stroke-miterlimit="10" fill="none"/><path d="M170.98 124.402l-17.1 2.56" stroke-width="1.2" stroke="#f00" stroke-miterlimit="10" fill="none"/><path d="M187.48 117.82l6.336-16.09" stroke-width="1.2" stroke="#000" stroke-miterlimit="10" fill="none"/><path d="M193.816 101.73l6.332-16.09" stroke-width="1.2" stroke="#f00" stroke-miterlimit="10" fill="none"/><path d="M142.277 114.938h11v16h-11zm0 0" fill="#fff"/><use xlink:href="#a" x="142.277" y="127.313" fill="#f00"/><path d="M190.148 77.64h21v16h-21zm0 0" fill="#fff"/><g fill="#f00"><use xlink:href="#a" x="190.148" y="90.017"/><use xlink:href="#b" x="200.639" y="90.017"/></g></g></svg>