<svg xmlns="http://www.w3.org/2000/svg" xmlns:xlink="http://www.w3.org/1999/xlink" width="300pt" height="300pt" viewBox="0 0 300 300"><defs><symbol overflow="visible"><path d="M.797 2.828v-14.11h8V2.83zm.906-.89h6.203v-12.33H1.703zm0 0"/></symbol><symbol overflow="visible" id="a"><path d="M1.578-11.672h1.578v4.78H8.89v-4.78h1.58V0H8.89v-5.563H3.157V0H1.578zm0 0"/></symbol><symbol overflow="visible" id="c"><path d="M1.578-11.672h2.125l5.172 9.766v-9.766h1.53V0H8.282L3.11-9.766V0H1.577zm0 0"/></symbol><symbol overflow="visible" id="d"><path d="M6.313-10.594c-1.15 0-2.06.43-2.735 1.28-.68.857-1.015 2.017-1.015 3.486 0 1.47.335 2.633 1.015 3.484.676.856 1.586 1.28 2.735 1.28 1.144.002 2.05-.424 2.718-1.28.665-.85 1-2.015 1-3.484 0-1.47-.335-2.63-1-3.484-.667-.852-1.573-1.282-2.717-1.282zm0-1.28c1.632 0 2.94.546 3.92 1.64.978 1.093 1.47 2.562 1.47 4.406 0 1.844-.492 3.32-1.47 4.422-.98 1.093-2.288 1.64-3.92 1.64-1.65 0-2.96-.546-3.938-1.64-.98-1.102-1.47-2.578-1.47-4.422 0-1.844.49-3.313 1.47-4.406.977-1.094 2.29-1.64 3.938-1.64zm0 0"/></symbol><symbol overflow="visible" id="e"><path d="M10.313-10.766v1.657c-.532-.488-1.102-.85-1.704-1.093-.606-.25-1.247-.375-1.922-.375-1.336 0-2.356.406-3.063 1.22-.71.81-1.063 1.99-1.063 3.53 0 1.543.352 2.72 1.063 3.53.707.814 1.727 1.22 3.063 1.22.675 0 1.316-.117 1.92-.36.603-.25 1.173-.617 1.704-1.11v1.642c-.554.375-1.14.664-1.765.86-.617.187-1.266.28-1.953.28-1.762 0-3.153-.54-4.172-1.625C1.41-2.474.906-3.954.906-5.83c0-1.875.504-3.348 1.516-4.422 1.02-1.082 2.41-1.625 4.172-1.625.695 0 1.35.094 1.968.28.626.18 1.208.454 1.75.83zm0 0"/></symbol><symbol overflow="visible" id="f"><path d="M1.516-12.156h1.437V0H1.516zm0 0"/></symbol><symbol overflow="visible"><path d="M.64 2.297v-11.47h6.5v11.47zm.735-.72h5.047V-8.436H1.375zm0 0"/></symbol><symbol overflow="visible" id="b"><path d="M2.5-1.078h4.47V0H.952v-1.078c.488-.5 1.15-1.172 1.985-2.016C3.78-3.944 4.312-4.5 4.53-4.75c.407-.457.69-.848.845-1.172.164-.32.25-.633.25-.937 0-.507-.18-.92-.53-1.234-.345-.312-.806-.47-1.376-.47-.408.002-.837.072-1.283.205-.437.137-.914.352-1.42.64v-1.296c.518-.207 1.003-.363 1.452-.468.444-.114.85-.172 1.217-.172.99 0 1.774.25 2.36.75.582.492.875 1.148.875 1.97 0 .385-.074.756-.22 1.108-.147.344-.413.75-.796 1.22-.105.124-.445.483-1.015 1.077-.562.585-1.36 1.4-2.39 2.452zm0 0"/></symbol></defs><g><path fill="#fff" d="M0 0h300v300H0z"/><path d="M187.246 68.105L223.64 54.54 216.8 42.9zm0 0"/><path d="M187.246 68.105l-33.273-18.867M187.246 68.105l.15 19.122" stroke-width="1.2" stroke="#000" stroke-miterlimit="10" fill="none"/><path d="M187.395 87.227l.148 19.125" stroke-width="1.2" stroke="#f00" stroke-miterlimit="10" fill="none"/><path d="M153.973 49.238L120.996 68.62M120.996 68.62L140.38 101.6M120.996 68.62l-19.383-32.975M120.996 68.62l-16.484 9.692" stroke-width="1.2" stroke="#000" stroke-miterlimit="10" fill="none"/><path d="M104.512 78.313l-16.49 9.69" stroke-width="1.2" stroke="#00f" stroke-miterlimit="10" fill="none"/><path d="M55.023 76.504h33v23h-33zm0 0" fill="#fff"/><use xlink:href="#a" x="55.023" y="91.355" fill="#00f"/><use xlink:href="#b" x="67.055" y="96.238" fill="#00f"/><use xlink:href="#c" x="75.534" y="91.355" fill="#00f"/><path d="M175.543 96.852h25v19h-25zm0 0" fill="#fff"/><g fill="#f00"><use xlink:href="#d" x="175.543" y="111.703"/><use xlink:href="#a" x="188.137" y="111.703"/></g><path d="M188.25 198.105l-19.125 33.125M178.543 196.918l-15.3 26.5M188.25 198.105h19.125" stroke-width="1.2" stroke="#000" stroke-miterlimit="10" fill="none"/><path d="M207.375 198.105H226.5" stroke-width="1.2" stroke="#f00" stroke-miterlimit="10" fill="none"/><path d="M169.125 164.977l19.125 33.128M169.125 231.23h-38.25M169.125 231.23l9.563 16.563" stroke-width="1.2" stroke="#000" stroke-miterlimit="10" fill="none"/><path d="M178.688 247.793l9.562 16.562" stroke-width="1.2" stroke="#0c0" stroke-miterlimit="10" fill="none"/><path d="M130.875 231.23l-19.125-33.125M136.758 223.418l-15.3-26.5M130.875 231.23l-9.563 16.563" stroke-width="1.2" stroke="#000" stroke-miterlimit="10" fill="none"/><path d="M121.313 247.793l-9.563 16.562" stroke-width="1.2" stroke="#0c0" stroke-miterlimit="10" fill="none"/><path d="M111.75 198.105l19.125-33.128M111.75 198.105H92.625" stroke-width="1.2" stroke="#000" stroke-miterlimit="10" fill="none"/><path d="M92.625 198.105H73.5" stroke-width="1.2" stroke="#0c0" stroke-miterlimit="10" fill="none"/><path d="M130.875 164.977h38.25M134.7 173.977h30.6M130.875 164.977l-9.563-16.563" stroke-width="1.2" stroke="#000" stroke-miterlimit="10" fill="none"/><path d="M121.313 148.414l-9.563-16.562" stroke-width="1.2" stroke="#0c0" stroke-miterlimit="10" fill="none"/><path d="M169.125 164.977l9.563-16.563" stroke-width="1.2" stroke="#000" stroke-miterlimit="10" fill="none"/><path d="M178.688 148.414l9.562-16.562" stroke-width="1.2" stroke="#0c0" stroke-miterlimit="10" fill="none"/><path d="M180.25 122.352h16v19h-16zm0 0" fill="#fff"/><g fill="#0c0"><use xlink:href="#e" x="180.25" y="137.203"/><use xlink:href="#f" x="191.422" y="137.203"/></g><path d="M95.75 122.352h16v19h-16zm0 0" fill="#fff"/><g fill="#0c0"><use xlink:href="#e" x="95.75" y="137.203"/><use xlink:href="#f" x="106.922" y="137.203"/></g><path d="M57.5 188.605h16v19h-16zm0 0" fill="#fff"/><g fill="#0c0"><use xlink:href="#e" x="57.5" y="203.457"/><use xlink:href="#f" x="68.672" y="203.457"/></g><path d="M95.75 254.855h16v19h-16zm0 0" fill="#fff"/><g fill="#0c0"><use xlink:href="#e" x="95.75" y="269.707"/><use xlink:href="#f" x="106.922" y="269.707"/></g><path d="M180.25 254.855h16v19h-16zm0 0" fill="#fff"/><g fill="#0c0"><use xlink:href="#e" x="180.25" y="269.707"/><use xlink:href="#f" x="191.422" y="269.707"/></g><path d="M214.5 188.605h25v19h-25zm0 0" fill="#fff"/><g fill="#f00"><use xlink:href="#d" x="214.5" y="203.457"/><use xlink:href="#a" x="227.094" y="203.457"/></g></g></svg>