<svg xmlns="http://www.w3.org/2000/svg" xmlns:xlink="http://www.w3.org/1999/xlink" width="300pt" height="300pt" viewBox="0 0 300 300"><defs><symbol overflow="visible"><path d="M.64 2.297v-11.47h6.5v11.47zm.735-.72h5.047V-8.436H1.375zm0 0"/></symbol><symbol overflow="visible" id="a"><path d="M6.953-9.172v1.25c-.48-.226-.937-.398-1.375-.516-.43-.113-.844-.17-1.25-.17-.7 0-1.242.135-1.625.405-.375.273-.562.656-.562 1.156 0 .418.126.734.376.953.257.21.738.383 1.437.516l.78.156c.947.188 1.65.512 2.11.97.458.46.688 1.073.688 1.843 0 .92-.307 1.618-.92 2.094-.618.47-1.524.704-2.72.704-.45 0-.93-.055-1.437-.157C1.953-.07 1.43-.222.89-.42v-1.312c.52.293 1.032.51 1.532.656.5.148.988.22 1.47.22.737 0 1.303-.142 1.702-.423.394-.29.593-.704.593-1.236 0-.468-.148-.832-.437-1.093-.28-.257-.746-.456-1.39-.593l-.782-.156c-.96-.187-1.652-.484-2.078-.89-.43-.406-.64-.97-.64-1.688 0-.843.288-1.503.874-1.984.594-.488 1.41-.734 2.454-.734.437 0 .882.043 1.343.125.47.085.943.202 1.423.358zm0 0"/></symbol><symbol overflow="visible" id="b"><path d="M1.28-9.484H3l4.203 7.937v-7.937h1.25V0H6.72L2.515-7.922V0H1.28zm0 0"/></symbol><symbol overflow="visible" id="c"><path d="M1.28-9.484h1.282v3.89H7.22v-3.89H8.5V0H7.22v-4.516H2.562V0H1.28zm0 0"/></symbol><symbol overflow="visible" id="f"><path d="M5.125-8.61c-.938 0-1.684.352-2.234 1.047-.542.688-.812 1.633-.812 2.83 0 1.198.27 2.147.813 2.842.55.687 1.297 1.03 2.235 1.03.926 0 1.66-.343 2.203-1.03.55-.696.828-1.645.828-2.844 0-1.196-.277-2.14-.828-2.829-.543-.695-1.277-1.046-2.203-1.046zm0-1.046c1.32 0 2.38.45 3.172 1.344.8.898 1.203 2.09 1.203 3.578 0 1.5-.402 2.7-1.203 3.593C7.504-.255 6.445.186 5.125.186c-1.336 0-2.402-.44-3.203-1.328C1.13-2.036.734-3.235.734-4.735c0-1.49.395-2.68 1.188-3.579.8-.894 1.867-1.343 3.203-1.343zm0 0"/></symbol><symbol overflow="visible"><path d="M.547 1.938V-7.75h5.5v9.688zm.625-.61h4.266v-8.47H1.171zm0 0"/></symbol><symbol overflow="visible" id="d"><path d="M2.11-.906h3.78V0H.814v-.906c.406-.426.96-1 1.67-1.72.72-.718 1.165-1.18 1.345-1.39.344-.394.582-.726.72-1 .143-.27.218-.535.218-.796 0-.426-.153-.77-.454-1.032-.292-.27-.683-.406-1.17-.406-.337 0-.697.063-1.08.188-.374.117-.777.292-1.203.53v-1.093c.437-.176.843-.313 1.218-.406.383-.095.735-.142 1.047-.142.832 0 1.492.21 1.984.625.5.418.75.977.75 1.672 0 .336-.063.648-.188.938-.125.292-.352.64-.672 1.046-.094.105-.383.406-.86.906L2.11-.906zm0 0"/></symbol><symbol overflow="visible" id="e"><path d="M5.063-6.89v2.984h2.984v.922H5.062V0h-.906v-2.984H1.172v-.922h2.984V-6.89zm0 0"/></symbol><symbol overflow="visible" id="g"><path d="M.53-3.453h2.907v.875H.53zm0 0"/></symbol></defs><g><path fill="#fff" d="M0 0h300v300H0z"/><path d="M254.39 117.75l10.36 32.46M247.79 123.434l8.288 25.968M221.102 110.492l33.29 7.258M264.75 150.21l-22.934 25.2M241.816 175.41l-33.29-7.262M240.2 166.852l-26.634-5.81M208.527 168.148l-10.355-32.457M208.527 168.148l-11.464 12.602" stroke-width="1.2" stroke="#000" stroke-miterlimit="10" fill="none"/><path d="M197.063 180.75l-11.465 12.598" stroke-width="1.2" stroke="#00f" stroke-miterlimit="10" fill="none"/><path d="M198.172 135.69l22.93-25.198M206.395 138.566l18.343-20.16M198.172 135.69l-33.29-7.26M164.883 128.43l-11.465 12.6" stroke-width="1.2" stroke="#000" stroke-miterlimit="10" fill="none"/><path d="M153.418 141.03l-11.47 12.6M141.95 153.63L125.304 150" stroke-width="1.2" stroke="#cc0" stroke-miterlimit="10" fill="none"/><path d="M125.305 150l-16.645-3.63" stroke-width="1.2" stroke="#000" stroke-miterlimit="10" fill="none"/><path d="M137.95 145.63h9v16h-9zm0 0" fill="#fff"/><use xlink:href="#a" x="137.949" y="158.005" fill="#cc0"/><path d="M108.66 146.37l-5.176-16.23" stroke-width="1.2" stroke="#000" stroke-miterlimit="10" fill="none"/><path d="M103.484 130.14l-5.18-16.23" stroke-width="1.2" stroke="#00f" stroke-miterlimit="10" fill="none"/><path d="M99.988 145.563l-4.14-12.985" stroke-width="1.2" stroke="#000" stroke-miterlimit="10" fill="none"/><path d="M95.848 132.578l-4.145-12.984" stroke-width="1.2" stroke="#00f" stroke-miterlimit="10" fill="none"/><path d="M85.73 171.57l22.93-25.2" stroke-width="1.2" stroke="#000" stroke-miterlimit="10" fill="none"/><path d="M98.305 113.91l-16.645-3.63" stroke-width="1.2" stroke="#00f" stroke-miterlimit="10" fill="none"/><path d="M81.66 110.28l-16.644-3.628" stroke-width="1.2" stroke="#000" stroke-miterlimit="10" fill="none"/><path d="M93.305 105.91h10v16h-10zm0 0" fill="#fff"/><use xlink:href="#b" x="93.305" y="118.286" fill="#00f"/><path d="M65.016 106.652L53.55 119.25" stroke-width="1.2" stroke="#000" stroke-miterlimit="10" fill="none"/><path d="M53.55 119.25l-11.468 12.602" stroke-width="1.2" stroke="#00f" stroke-miterlimit="10" fill="none"/><path d="M68.652 114.566l-9.172 10.082" stroke-width="1.2" stroke="#000" stroke-miterlimit="10" fill="none"/><path d="M59.48 124.648l-9.175 10.08" stroke-width="1.2" stroke="#00f" stroke-miterlimit="10" fill="none"/><path d="M65.016 106.652l-5.18-16.23" stroke-width="1.2" stroke="#000" stroke-miterlimit="10" fill="none"/><path d="M59.836 90.422l-5.18-16.23M42.082 131.852l5.18 16.23" stroke-width="1.2" stroke="#00f" stroke-miterlimit="10" fill="none"/><path d="M47.262 148.082l5.18 16.227" stroke-width="1.2" stroke="#000" stroke-miterlimit="10" fill="none"/><path d="M37.082 123.852h10v16h-10zm0 0" fill="#fff"/><use xlink:href="#b" x="37.082" y="136.228" fill="#00f"/><path d="M52.44 164.31l33.29 7.26M54.063 172.867l26.628 5.81" stroke-width="1.2" stroke="#000" stroke-miterlimit="10" fill="none"/><path d="M35.25 193.727l8.594-14.707" stroke-width="1.2" stroke="#00f" stroke-miterlimit="10" fill="none"/><path d="M43.844 179.02l8.597-14.71M85.73 171.57l1.692 16.95" stroke-width="1.2" stroke="#000" stroke-miterlimit="10" fill="none"/><path d="M87.422 188.52l1.69 16.953M89.113 205.473l-15.6 6.847" stroke-width="1.2" stroke="#00f" stroke-miterlimit="10" fill="none"/><path d="M73.512 212.32l-15.598 6.848" stroke-width="1.2" stroke="#000" stroke-miterlimit="10" fill="none"/><path d="M79.113 197.473h20v16h-20zm0 0" fill="#fff"/><g fill="#00f"><use xlink:href="#b" x="79.113" y="209.849"/><use xlink:href="#c" x="89.083" y="209.849"/></g><path d="M57.914 219.168l-11.332-12.723" stroke-width="1.2" stroke="#000" stroke-miterlimit="10" fill="none"/><path d="M46.582 206.445L35.25 193.727" stroke-width="1.2" stroke="#00f" stroke-miterlimit="10" fill="none"/><path d="M61.633 211.29l-9.067-10.177" stroke-width="1.2" stroke="#000" stroke-miterlimit="10" fill="none"/><path d="M52.566 201.113l-9.062-10.175" stroke-width="1.2" stroke="#00f" stroke-miterlimit="10" fill="none"/><path d="M30.25 185.727h10v16h-10zm0 0" fill="#fff"/><use xlink:href="#b" x="30.25" y="198.103" fill="#00f"/><path d="M26.656 64.19h28v20h-28zm0 0" fill="#fff"/><use xlink:href="#c" x="26.656" y="76.567" fill="#00f"/><use xlink:href="#d" x="36.679" y="81.45" fill="#00f"/><use xlink:href="#b" x="43.747" y="76.567" fill="#00f"/><path d="M186.453 189.434L169.81 185.8" stroke-width="1.2" stroke="#00f" stroke-miterlimit="10" fill="none"/><path d="M169.81 185.8l-16.646-3.628" stroke-width="1.2" stroke="#f00" stroke-miterlimit="10" fill="none"/><path d="M184.742 197.266l-16.644-3.63" stroke-width="1.2" stroke="#00f" stroke-miterlimit="10" fill="none"/><path d="M168.098 193.637l-16.645-3.633" stroke-width="1.2" stroke="#f00" stroke-miterlimit="10" fill="none"/><path d="M185.598 193.348l5.18 16.23" stroke-width="1.2" stroke="#00f" stroke-miterlimit="10" fill="none"/><path d="M190.777 209.578l5.176 16.23" stroke-width="1.2" stroke="#f00" stroke-miterlimit="10" fill="none"/><path d="M175.598 183.848h20v19h-20zm0 0" fill="#fff"/><use xlink:href="#b" x="175.598" y="199.043" fill="#00f"/><use xlink:href="#e" x="185.567" y="194.16" fill="#00f"/><path d="M141.31 178.09h11v16h-11zm0 0" fill="#fff"/><use xlink:href="#f" x="141.309" y="190.466" fill="#f00"/><path d="M188.953 216.31h15v19h-15zm0 0" fill="#fff"/><use xlink:href="#f" x="188.953" y="231.504" fill="#f00"/><use xlink:href="#g" x="199.443" y="226.621" fill="#f00"/></g></svg>