<svg xmlns="http://www.w3.org/2000/svg" xmlns:xlink="http://www.w3.org/1999/xlink" width="300pt" height="300pt" viewBox="0 0 300 300"><defs><symbol overflow="visible"><path d="M.453 1.594v-7.938h4.5v7.938zm.5-.5h3.5v-6.938h-3.5zm0 0"/></symbol><symbol overflow="visible" id="a"><path d="M.89-6.563H2.08l2.906 5.485v-5.484h.86V0H4.656L1.75-5.484V0H.89zm0 0"/></symbol><symbol overflow="visible" id="b"><path d="M.89-6.563h.876v2.688H5v-2.688h.89V0H5v-3.125H1.766V0H.89zm0 0"/></symbol><symbol overflow="visible" id="c"><path d="M3.547-5.953c-.65 0-1.164.242-1.547.72-.375.48-.563 1.13-.563 1.952 0 .835.188 1.49.563 1.967.383.48.898.72 1.547.72.644 0 1.156-.24 1.53-.72.376-.476.564-1.132.564-1.968 0-.822-.187-1.474-.562-1.954-.375-.477-.887-.72-1.53-.72zm0-.734c.914 0 1.648.312 2.203.937.55.617.828 1.438.828 2.47 0 1.042-.277 1.87-.828 2.483-.555.617-1.29.922-2.203.922-.93 0-1.668-.305-2.22-.922C.774-1.41.5-2.237.5-3.28c0-1.033.273-1.853.828-2.47.55-.625 1.29-.938 2.22-.938zm0 0"/></symbol></defs><g><path fill="#fff" d="M0 0h300v300H0z"/><path d="M139.063 151.996l-16.336-13.324-3.575 6.394zm0 0"/><path d="M139.063 151.996l.29 20.758M139.063 151.996l17.832-10.63" stroke-width="1.2" stroke="#000" stroke-miterlimit="10" fill="none"/><path d="M139.352 172.754l7.48 19.707 6.293-3.75zm0 0"/><path d="M129.223 190.875l10.13-18.12M149.98 190.586l-20.757.29" stroke-width="1.2" stroke="#000" stroke-miterlimit="10" fill="none"/><path d="M129.223 190.875l-6.938 19.906 7.235 1.173zm0 0"/><path d="M129.223 190.875l-19.606-6.828" stroke-width="1.2" stroke="#000" stroke-miterlimit="10" fill="none"/><path d="M109.617 184.047l-18.11 10.79 4.79 5.546zm0 0"/><path d="M109.617 184.047l-1.945-10.195" stroke-width="1.2" stroke="#000" stroke-miterlimit="10" fill="none"/><path d="M107.672 173.852l-1.942-10.196" stroke-width="1.2" stroke="#00f" stroke-miterlimit="10" fill="none"/><path d="M93.902 197.61l-19.6-6.83M90.336 201.54l-15.684-5.462M97.793 218.004l-3.89-20.395M74.3 190.78L58.583 204.35M58.582 204.348l3.89 20.39M63.77 205.473l3.113 16.312M62.473 224.738l19.605 6.828M82.078 231.566l15.715-13.562M80.457 226.512l12.57-10.852" stroke-width="1.2" stroke="#000" stroke-miterlimit="10" fill="none"/><path d="M105.73 163.656l-9.804-3.414" stroke-width="1.2" stroke="#00f" stroke-miterlimit="10" fill="none"/><path d="M95.926 160.242l-9.8-3.414" stroke-width="1.2" stroke="#000" stroke-miterlimit="10" fill="none"/><path d="M98.73 158.156h14v11h-14zm0 0" fill="#fff"/><g fill="#00f"><use xlink:href="#a" x="98.73" y="166.819"/><use xlink:href="#b" x="105.708" y="166.819"/></g><path d="M84.527 154.98l-7.855 6.782" stroke-width="1.2" stroke="#000" stroke-miterlimit="10" fill="none"/><path d="M76.672 161.762l-7.86 6.78" stroke-width="1.2" stroke="#f00" stroke-miterlimit="10" fill="none"/><path d="M87.723 158.676l-7.86 6.78" stroke-width="1.2" stroke="#000" stroke-miterlimit="10" fill="none"/><path d="M79.863 165.457l-7.86 6.785" stroke-width="1.2" stroke="#f00" stroke-miterlimit="10" fill="none"/><path d="M86.125 156.828l-1.945-10.195" stroke-width="1.2" stroke="#000" stroke-miterlimit="10" fill="none"/><path d="M84.18 146.633l-1.946-10.196" stroke-width="1.2" stroke="#f00" stroke-miterlimit="10" fill="none"/><path d="M62.41 164.89h8v11h-8zm0 0" fill="#fff"/><use xlink:href="#c" x="62.41" y="173.554" fill="#f00"/><path d="M82.234 136.438l-9.8-3.415" stroke-width="1.2" stroke="#f00" stroke-miterlimit="10" fill="none"/><path d="M72.434 133.023l-9.8-3.414" stroke-width="1.2" stroke="#000" stroke-miterlimit="10" fill="none"/><path d="M78.234 130.938h8v11h-8zm0 0" fill="#fff"/><use xlink:href="#c" x="78.234" y="139.601" fill="#f00"/><path d="M62.633 129.61l-3.89-20.39M58.742 109.22L74.457 95.65M57.125 104.164l12.57-10.852M39.14 102.39l19.602 6.83M74.457 95.652l-3.887-20.39M70.57 75.262l-19.605-6.828M67.004 79.19L51.32 73.73M50.965 68.434L35.25 81.996M35.25 81.996l3.89 20.395M40.438 83.12l3.11 16.314M159.336 141.336l-.145-10.38" stroke-width="1.2" stroke="#000" stroke-miterlimit="10" fill="none"/><path d="M159.19 130.957l-.143-10.38" stroke-width="1.2" stroke="#f00" stroke-miterlimit="10" fill="none"/><path d="M154.45 141.402l-.14-10.38" stroke-width="1.2" stroke="#000" stroke-miterlimit="10" fill="none"/><path d="M154.31 131.023l-.146-10.378" stroke-width="1.2" stroke="#f00" stroke-miterlimit="10" fill="none"/><path d="M156.895 141.367l9.058 5.067" stroke-width="1.2" stroke="#000" stroke-miterlimit="10" fill="none"/><path d="M165.953 146.434l9.063 5.062" stroke-width="1.2" stroke="#00f" stroke-miterlimit="10" fill="none"/><path d="M152.605 115.113h8v11h-8zm0 0" fill="#fff"/><use xlink:href="#c" x="152.605" y="123.776" fill="#f00"/><path d="M175.016 151.496l8.914-5.312" stroke-width="1.2" stroke="#00f" stroke-miterlimit="10" fill="none"/><path d="M183.93 146.184l8.914-5.317" stroke-width="1.2" stroke="#000" stroke-miterlimit="10" fill="none"/><path d="M168.016 145.996h14v11h-14zm0 0" fill="#fff"/><g fill="#00f"><use xlink:href="#a" x="168.016" y="154.659"/><use xlink:href="#b" x="174.993" y="154.659"/></g><path d="M192.844 140.867l18.12 10.13M210.965 150.996l.29 20.758M215.88 153.004l.23 16.605M228.797 140.367l-17.832 10.63M211.254 171.754l18.12 10.13M229.375 181.883l17.832-10.63M228.656 176.625l14.266-8.504M247.207 171.254l-.29-20.758M246.918 150.496l17.832-10.63M246.2 145.238l14.265-8.504M228.797 140.367l18.12 10.13M264.75 139.867l-.29-20.758M264.46 119.11l-18.12-10.13M260.266 122.36l-14.496-8.102M246.34 108.98l-17.832 10.63M228.508 119.61l.29 20.757M233.422 121.617l.23 16.606" stroke-width="1.2" stroke="#000" stroke-miterlimit="10" fill="none"/></g></svg>