<svg xmlns="http://www.w3.org/2000/svg" xmlns:xlink="http://www.w3.org/1999/xlink" width="300pt" height="300pt" viewBox="0 0 300 300"><defs><symbol overflow="visible"><path d="M.453 1.594v-7.938h4.5v7.938zm.5-.5h3.5v-6.938h-3.5zm0 0"/></symbol><symbol overflow="visible" id="a"><path d="M.89-6.563H2.08l2.906 5.485v-5.484h.86V0H4.656L1.75-5.484V0H.89zm0 0"/></symbol><symbol overflow="visible" id="b"><path d="M3.547-5.953c-.65 0-1.164.242-1.547.72-.375.48-.563 1.13-.563 1.952 0 .835.188 1.49.563 1.967.383.48.898.72 1.547.72.644 0 1.156-.24 1.53-.72.376-.476.564-1.132.564-1.968 0-.822-.187-1.474-.562-1.954-.375-.477-.887-.72-1.53-.72zm0-.734c.914 0 1.648.312 2.203.937.55.617.828 1.438.828 2.47 0 1.042-.277 1.87-.828 2.483-.555.617-1.29.922-2.203.922-.93 0-1.668-.305-2.22-.922C.774-1.41.5-2.237.5-3.28c0-1.033.273-1.853.828-2.47.55-.625 1.29-.938 2.22-.938zm0 0"/></symbol><symbol overflow="visible" id="c"><path d="M.89-6.563h3.766v.75h-2.89v1.938h2.61v.734h-2.61V0H.89zm0 0"/></symbol></defs><g><path fill="#fff" d="M0 0h300v300H0z"/><path d="M35.25 156.535l9.95-6.117" stroke-width="1.2" stroke="#000" stroke-miterlimit="10" fill="none"/><path d="M45.2 150.418l9.948-6.117M55.148 144.3l-.324-11.67" stroke-width="1.2" stroke="#00f" stroke-miterlimit="10" fill="none"/><path d="M54.824 132.63l-.32-11.677" stroke-width="1.2" stroke="#000" stroke-miterlimit="10" fill="none"/><path d="M55.148 144.3l10.274 5.56" stroke-width="1.2" stroke="#00f" stroke-miterlimit="10" fill="none"/><path d="M65.422 149.86l10.27 5.558" stroke-width="1.2" stroke="#000" stroke-miterlimit="10" fill="none"/><path d="M52.148 138.8h7v11h-7zm0 0" fill="#fff"/><use xlink:href="#a" x="52.148" y="147.464" fill="#00f"/><path d="M72.945 155.492l.325 11.676" stroke-width="1.2" stroke="#000" stroke-miterlimit="10" fill="none"/><path d="M73.27 167.168l.32 11.676" stroke-width="1.2" stroke="#f00" stroke-miterlimit="10" fill="none"/><path d="M78.438 155.344l.324 11.672" stroke-width="1.2" stroke="#000" stroke-miterlimit="10" fill="none"/><path d="M78.762 167.016l.324 11.675" stroke-width="1.2" stroke="#f00" stroke-miterlimit="10" fill="none"/><path d="M75.69 155.418l19.9-12.234" stroke-width="1.2" stroke="#000" stroke-miterlimit="10" fill="none"/><path d="M72.336 173.266h8v11h-8zm0 0" fill="#fff"/><use xlink:href="#b" x="72.336" y="181.929" fill="#f00"/><path d="M95.59 143.184l21.594 8.906M99.844 138.992l17.277 7.13" stroke-width="1.2" stroke="#000" stroke-miterlimit="10" fill="none"/><path d="M97.387 119.895l-.9 11.644" stroke-width="1.2" stroke="#00f" stroke-miterlimit="10" fill="none"/><path d="M96.488 131.54l-.898 11.644M117.184 152.09l15.144-17.78M132.328 134.31l-12.234-19.9M135.785 129.438L126 113.52" stroke-width="1.2" stroke="#000" stroke-miterlimit="10" fill="none"/><path d="M155.03 128.82l-23.67 1.48 1.937 8.012zm0 0"/><path d="M120.094 114.41l-11.352 2.742" stroke-width="1.2" stroke="#000" stroke-miterlimit="10" fill="none"/><path d="M108.742 117.152l-11.355 2.743" stroke-width="1.2" stroke="#00f" stroke-miterlimit="10" fill="none"/><path d="M120.094 114.41l15.144-17.785" stroke-width="1.2" stroke="#000" stroke-miterlimit="10" fill="none"/><path d="M97.387 119.895l-8.89-7.57" stroke-width="1.2" stroke="#00f" stroke-miterlimit="10" fill="none"/><path d="M88.496 112.324l-8.89-7.574" stroke-width="1.2" stroke="#000" stroke-miterlimit="10" fill="none"/><path d="M94.387 114.395h7v11h-7zm0 0" fill="#fff"/><use xlink:href="#a" x="94.387" y="123.058" fill="#00f"/><path d="M79.605 104.75l4.223-22.973M83.828 81.777l-8.89-7.57" stroke-width="1.2" stroke="#000" stroke-miterlimit="10" fill="none"/><path d="M74.938 74.207l-8.895-7.574" stroke-width="1.2" stroke="#3cc" stroke-miterlimit="10" fill="none"/><path d="M60.043 61.133h6v11h-6zm0 0" fill="#fff"/><use xlink:href="#c" x="60.043" y="69.796" fill="#3cc"/><path d="M156.832 105.53L136.81 92.817l-3.146 7.62zm0 0"/><path d="M156.832 105.53l-1.8 23.29M179.535 100.047l-22.703 5.484M155.03 128.82l21.595 8.907M176.625 137.727l7.57-8.89" stroke-width="1.2" stroke="#000" stroke-miterlimit="10" fill="none"/><path d="M184.195 128.836l7.575-8.89" stroke-width="1.2" stroke="#00f" stroke-miterlimit="10" fill="none"/><path d="M176.625 137.727m-1.863 2.35l.914.497m-2.78 1.856l1.834.992m-3.7 1.355l2.75 1.49m-4.612.862l3.668 1.983m-5.53.367l4.58 2.48m-6.448-.132l5.503 2.98m-7.366-.628l6.418 3.472m-8.11-1.343l7.255 3.924" stroke="#000" stroke-miterlimit="10" fill="none"/><path d="M176.625 137.727l19.27 13.203" stroke-width="1.2" stroke="#000" stroke-miterlimit="10" fill="none"/><path d="M191.77 119.945l-6.118-9.95" stroke-width="1.2" stroke="#00f" stroke-miterlimit="10" fill="none"/><path d="M185.652 109.996l-6.117-9.95" stroke-width="1.2" stroke="#000" stroke-miterlimit="10" fill="none"/><path d="M191.77 119.945l11.644.9" stroke-width="1.2" stroke="#00f" stroke-miterlimit="10" fill="none"/><path d="M203.414 120.844l11.645.898" stroke-width="1.2" stroke="#000" stroke-miterlimit="10" fill="none"/><path d="M188.77 114.445h7v11h-7zm0 0" fill="#fff"/><use xlink:href="#a" x="188.77" y="123.108" fill="#00f"/><path d="M212.94 123.492l3.955 4.785" stroke-width="1.2" stroke="#000" stroke-miterlimit="10" fill="none"/><path d="M216.895 128.277l3.957 4.782" stroke-width="1.2" stroke="#f00" stroke-miterlimit="10" fill="none"/><path d="M217.176 119.992l3.953 4.78" stroke-width="1.2" stroke="#000" stroke-miterlimit="10" fill="none"/><path d="M221.13 124.773l3.956 4.786" stroke-width="1.2" stroke="#f00" stroke-miterlimit="10" fill="none"/><path d="M215.06 121.742l13.198-19.27" stroke-width="1.2" stroke="#000" stroke-miterlimit="10" fill="none"/><path d="M218.97 125.81h8v11h-8zm0 0" fill="#fff"/><use xlink:href="#b" x="218.969" y="134.472" fill="#f00"/><path d="M228.258 102.473l23.29 1.8M231.012 97.172l18.63 1.44M218.172 81.406l10.086 21.067M251.547 104.273l13.203-19.27M264.75 85.004l-10.086-21.07M258.785 85.27l-8.07-16.856M254.664 63.934l-23.29-1.797M231.375 62.137l-13.203 19.27M234.59 67.168l-10.563 15.418M165.508 158.273l12.234 19.9M177.742 178.172l23.352-.65M180.23 183.598l18.68-.516M166.63 198.715l11.112-20.543M201.094 177.523l12.234 19.9M213.328 197.422l-11.117 20.543M207.383 196.86l-8.895 16.437M202.21 217.965l-23.347.648M202.21 217.965l6.118 9.95" stroke-width="1.2" stroke="#000" stroke-miterlimit="10" fill="none"/><path d="M208.328 227.914l6.117 9.95" stroke-width="1.2" stroke="#3cc" stroke-miterlimit="10" fill="none"/><path d="M178.863 218.613l-12.234-19.898M182.32 213.742l-9.785-15.918" stroke-width="1.2" stroke="#000" stroke-miterlimit="10" fill="none"/><path d="M211.445 232.363h6v11h-6zm0 0" fill="#fff"/><use xlink:href="#c" x="211.445" y="241.026" fill="#3cc"/><path d="M193.184 151.387l1.148 6.8" stroke-width="1.2" stroke="#000" stroke-miterlimit="10" fill="none"/><path d="M194.332 158.188l1.148 6.8" stroke-width="1.2" stroke="#f00" stroke-miterlimit="10" fill="none"/><path d="M198.605 150.473l1.15 6.8" stroke-width="1.2" stroke="#000" stroke-miterlimit="10" fill="none"/><path d="M199.754 157.273l1.148 6.8" stroke-width="1.2" stroke="#f00" stroke-miterlimit="10" fill="none"/><path d="M195.895 150.93l10.535-5.043" stroke-width="1.2" stroke="#000" stroke-miterlimit="10" fill="none"/><path d="M206.43 145.887l10.53-5.043" stroke-width="1.2" stroke="#f00" stroke-miterlimit="10" fill="none"/><path d="M194.19 159.03h8v11h-8zm0 0" fill="#fff"/><use xlink:href="#b" x="194.191" y="167.694" fill="#f00"/><path d="M216.96 140.844l9.638 6.6" stroke-width="1.2" stroke="#f00" stroke-miterlimit="10" fill="none"/><path d="M226.598 147.445l9.632 6.598" stroke-width="1.2" stroke="#000" stroke-miterlimit="10" fill="none"/><path d="M212.96 135.344h8v11h-8zm0 0" fill="#fff"/><use xlink:href="#b" x="212.961" y="144.007" fill="#f00"/></g></svg>