<svg xmlns="http://www.w3.org/2000/svg" xmlns:xlink="http://www.w3.org/1999/xlink" width="300pt" height="300pt" viewBox="0 0 300 300"><defs><symbol overflow="visible"><path d="M.453 1.594v-7.938h4.5v7.938zm.5-.5h3.5v-6.938h-3.5zm0 0"/></symbol><symbol overflow="visible" id="a"><path d="M3.547-5.953c-.65 0-1.164.242-1.547.72-.375.48-.563 1.13-.563 1.952 0 .835.188 1.49.563 1.967.383.48.898.72 1.547.72.644 0 1.156-.24 1.53-.72.376-.476.564-1.132.564-1.968 0-.822-.187-1.474-.562-1.954-.375-.477-.887-.72-1.53-.72zm0-.734c.914 0 1.648.312 2.203.937.55.617.828 1.438.828 2.47 0 1.042-.277 1.87-.828 2.483-.555.617-1.29.922-2.203.922-.93 0-1.668-.305-2.22-.922C.774-1.41.5-2.237.5-3.28c0-1.033.273-1.853.828-2.47.55-.625 1.29-.938 2.22-.938zm0 0"/></symbol><symbol overflow="visible" id="b"><path d="M.89-6.563H2.08l2.906 5.485v-5.484h.86V0H4.656L1.75-5.484V0H.89zm0 0"/></symbol></defs><g><path fill="#fff" d="M0 0h300v300H0z"/><path d="M84.04 264.75l-4.36-10.375" stroke-width="1.2" stroke="#000" stroke-miterlimit="10" fill="none"/><path d="M79.68 254.375l-4.36-10.37M75.32 244.004l6.8-8.965" stroke-width="1.2" stroke="#f00" stroke-miterlimit="10" fill="none"/><path d="M82.12 235.04l6.806-8.966" stroke-width="1.2" stroke="#000" stroke-miterlimit="10" fill="none"/><path d="M71.32 238.504h8v11h-8zm0 0" fill="#fff"/><use xlink:href="#a" x="71.32" y="247.167" fill="#f00"/><path d="M88.926 226.074l-8.72-20.746M80.207 205.328l6.8-8.965" stroke-width="1.2" stroke="#000" stroke-miterlimit="10" fill="none"/><path d="M87.008 196.363l6.805-8.96M93.813 187.402l11.25.235" stroke-width="1.2" stroke="#00f" stroke-miterlimit="10" fill="none"/><path d="M105.063 187.637l11.25.234M87.31 165.855l3.25 10.774" stroke-width="1.2" stroke="#000" stroke-miterlimit="10" fill="none"/><path d="M90.56 176.63L93.81 187.4" stroke-width="1.2" stroke="#00f" stroke-miterlimit="10" fill="none"/><path d="M90.813 181.902h7v11h-7zm0 0" fill="#fff"/><use xlink:href="#b" x="90.813" y="190.565" fill="#00f"/><path d="M116.313 187.87l7.402-21.253M122.055 187.488l5.922-17.004M134.242 201.48l-17.93-13.61M123.715 166.617l-17.926-13.605" stroke-width="1.2" stroke="#000" stroke-miterlimit="10" fill="none"/><path d="M146.215 167.09m-2.942-.582l-.023 1.043m-2.918-1.628l-.043 2.086m-2.903-2.668l-.063 3.13m-2.88-3.712l-.085 4.168m-2.856-4.75l-.11 5.21m-2.835-5.796l-.13 6.258m-2.813-6.84l-.152 7.297m-1.668-7.657l-.164 7.942" stroke="#000" stroke-miterlimit="10" fill="none"/><path d="M105.79 153.012l-18.48 12.843M106.96 158.645l-14.78 10.273M87.31 165.855l-21.255-7.402M64.324 156.45l-8.52 7.35" stroke-width="1.2" stroke="#000" stroke-miterlimit="10" fill="none"/><path d="M55.805 163.8l-8.52 7.356" stroke-width="1.2" stroke="#f00" stroke-miterlimit="10" fill="none"/><path d="M67.785 160.457l-8.52 7.356" stroke-width="1.2" stroke="#000" stroke-miterlimit="10" fill="none"/><path d="M59.266 167.813l-8.52 7.35" stroke-width="1.2" stroke="#f00" stroke-miterlimit="10" fill="none"/><path d="M66.055 158.453l-2.11-11.055" stroke-width="1.2" stroke="#000" stroke-miterlimit="10" fill="none"/><path d="M63.945 147.398l-2.11-11.05" stroke-width="1.2" stroke="#00f" stroke-miterlimit="10" fill="none"/><path d="M41.016 167.66h8v11h-8zm0 0" fill="#fff"/><use xlink:href="#a" x="41.016" y="176.323" fill="#f00"/><path d="M61.836 136.348l-10.184-4.793" stroke-width="1.2" stroke="#00f" stroke-miterlimit="10" fill="none"/><path d="M51.652 131.555l-10.18-4.793M77.242 119.94l-7.703 8.205" stroke-width="1.2" stroke="#000" stroke-miterlimit="10" fill="none"/><path d="M69.54 128.145l-7.704 8.203" stroke-width="1.2" stroke="#00f" stroke-miterlimit="10" fill="none"/><path d="M58.836 130.848h7v11h-7zm0 0" fill="#fff"/><use xlink:href="#b" x="58.836" y="139.511" fill="#00f"/><path d="M41.473 126.762l2.82-22.328M44.293 104.434l22.105-4.215M66.398 100.22l10.844 19.72M146.215 167.09l6.508 21.547M164.7 154.246l-18.485 12.844" stroke-width="1.2" stroke="#000" stroke-miterlimit="10" fill="none"/><path d="M152.723 188.637m-2.727 1.258l.598.855m-3.32.402l1.19 1.71m-3.913-.452l1.786 2.567m-4.508-1.31l2.38 3.427m-5.103-2.168l2.973 4.28m-5.7-3.022l3.57 5.136m-6.292-3.88l4.168 5.994m-5.85-5.215l4.534 6.522" stroke="#000" stroke-miterlimit="10" fill="none"/><path d="M152.723 188.637l22.5.468M175.223 189.105l3.7-10.625" stroke-width="1.2" stroke="#000" stroke-miterlimit="10" fill="none"/><path d="M178.922 178.48l3.703-10.628M182.625 167.852l-8.965-6.805" stroke-width="1.2" stroke="#00f" stroke-miterlimit="10" fill="none"/><path d="M173.66 161.047l-8.96-6.8" stroke-width="1.2" stroke="#000" stroke-miterlimit="10" fill="none"/><path d="M182.625 167.852l10.773-3.25" stroke-width="1.2" stroke="#00f" stroke-miterlimit="10" fill="none"/><path d="M193.398 164.602l10.774-3.254" stroke-width="1.2" stroke="#000" stroke-miterlimit="10" fill="none"/><path d="M179.625 162.352h7v11h-7zm0 0" fill="#fff"/><use xlink:href="#b" x="179.625" y="171.015" fill="#00f"/><path d="M164.7 154.246L183 140.56l-5.793-5.44zm0 0"/><path d="M164.7 154.246l-14.708-17.04M180.105 137.84l-6.507-21.547M173.598 116.293l15.406-16.406M171.28 111.027l12.325-13.125M151.688 111.152l21.91 5.14M189.004 99.887L182.5 78.34M182.5 78.34l-21.91-5.137M179.102 82.984L161.57 78.87M160.59 73.203L145.184 89.61M160.59 73.203l-3.254-10.773" stroke-width="1.2" stroke="#000" stroke-miterlimit="10" fill="none"/><path d="M157.336 62.43l-3.25-10.774" stroke-width="1.2" stroke="#f00" stroke-miterlimit="10" fill="none"/><path d="M145.184 89.61l6.504 21.542M150.902 90.23l5.203 17.24" stroke-width="1.2" stroke="#000" stroke-miterlimit="10" fill="none"/><path d="M154.086 51.656l7.703-8.203" stroke-width="1.2" stroke="#f00" stroke-miterlimit="10" fill="none"/><path d="M161.79 43.453l7.702-8.203" stroke-width="1.2" stroke="#000" stroke-miterlimit="10" fill="none"/><path d="M150.086 46.156h8v11h-8zm0 0" fill="#fff"/><use xlink:href="#a" x="150.086" y="54.819" fill="#f00"/><path d="M152.63 137.45l.6-6.618" stroke-width="1.2" stroke="#000" stroke-miterlimit="10" fill="none"/><path d="M153.23 130.832l.602-6.62" stroke-width="1.2" stroke="#f00" stroke-miterlimit="10" fill="none"/><path d="M147.355 136.97l.602-6.618" stroke-width="1.2" stroke="#000" stroke-miterlimit="10" fill="none"/><path d="M147.957 130.352l.602-6.618" stroke-width="1.2" stroke="#f00" stroke-miterlimit="10" fill="none"/><path d="M149.992 137.207l-11.054 2.11" stroke-width="1.2" stroke="#000" stroke-miterlimit="10" fill="none"/><path d="M138.938 139.316l-11.055 2.11" stroke-width="1.2" stroke="#f00" stroke-miterlimit="10" fill="none"/><path d="M147.195 118.473h8v11h-8zm0 0" fill="#fff"/><use xlink:href="#a" x="147.195" y="127.136" fill="#f00"/><path d="M127.883 141.426l-7.352-8.52" stroke-width="1.2" stroke="#f00" stroke-miterlimit="10" fill="none"/><path d="M120.53 132.906l-7.35-8.52" stroke-width="1.2" stroke="#000" stroke-miterlimit="10" fill="none"/><path d="M123.883 135.926h8v11h-8zm0 0" fill="#fff"/><use xlink:href="#a" x="123.883" y="144.589" fill="#f00"/><path d="M206.746 161.953l2.57-10.957" stroke-width="1.2" stroke="#000" stroke-miterlimit="10" fill="none"/><path d="M209.316 150.996l2.57-10.957" stroke-width="1.2" stroke="#f00" stroke-miterlimit="10" fill="none"/><path d="M201.594 160.742l2.566-10.957" stroke-width="1.2" stroke="#000" stroke-miterlimit="10" fill="none"/><path d="M204.16 149.785l2.57-10.953" stroke-width="1.2" stroke="#f00" stroke-miterlimit="10" fill="none"/><path d="M204.172 161.348l16.406 15.406" stroke-width="1.2" stroke="#000" stroke-miterlimit="10" fill="none"/><path d="M205.31 133.938h8v11h-8zm0 0" fill="#fff"/><use xlink:href="#a" x="205.309" y="142.601" fill="#f00"/><path d="M220.578 176.754l-5.14 21.91M225.22 180.156l-4.115 17.528M242.12 170.25l-21.542 6.504M215.438 198.664l16.406 15.406M231.844 214.07l21.547-6.504M232.47 208.352l17.233-5.204M253.39 207.566l5.137-21.91M258.527 185.656L242.12 170.25M253.262 187.977l-13.125-12.33" stroke-width="1.2" stroke="#000" stroke-miterlimit="10" fill="none"/></g></svg>