<svg xmlns="http://www.w3.org/2000/svg" xmlns:xlink="http://www.w3.org/1999/xlink" width="300pt" height="300pt" viewBox="0 0 300 300"><defs><symbol overflow="visible"><path d="M.453 1.594v-7.938h4.5v7.938zm.5-.5h3.5v-6.938h-3.5zm0 0"/></symbol><symbol overflow="visible" id="a"><path d="M.89-6.563H2.08l2.906 5.485v-5.484h.86V0H4.656L1.75-5.484V0H.89zm0 0"/></symbol><symbol overflow="visible" id="b"><path d="M.89-6.563h.876v2.688H5v-2.688h.89V0H5v-3.125H1.766V0H.89zm0 0"/></symbol><symbol overflow="visible" id="c"><path d="M3.547-5.953c-.65 0-1.164.242-1.547.72-.375.48-.563 1.13-.563 1.952 0 .835.188 1.49.563 1.967.383.48.898.72 1.547.72.644 0 1.156-.24 1.53-.72.376-.476.564-1.132.564-1.968 0-.822-.187-1.474-.562-1.954-.375-.477-.887-.72-1.53-.72zm0-.734c.914 0 1.648.312 2.203.937.55.617.828 1.438.828 2.47 0 1.042-.277 1.87-.828 2.483-.555.617-1.29.922-2.203.922-.93 0-1.668-.305-2.22-.922C.774-1.41.5-2.237.5-3.28c0-1.033.273-1.853.828-2.47.55-.625 1.29-.938 2.22-.938zm0 0"/></symbol></defs><g><path fill="#fff" d="M0 0h300v300H0z"/><path d="M131.203 176.863l-2.66 18.57 6.516-.21zm0 0"/><path d="M131.203 176.863l15.692-9.75M131.203 176.863l-16.293-8.715" stroke-width="1.2" stroke="#000" stroke-miterlimit="10" fill="none"/><path d="M146.895 167.113l18.574 2.66-.212-6.52zm0 0"/><path d="M155.613 150.82l-8.718 16.293M165.363 166.516l-9.75-15.696" stroke-width="1.2" stroke="#000" stroke-miterlimit="10" fill="none"/><path d="M155.613 150.82l-12.52-13.976-4.027 5.13zm0 0"/><path d="M155.613 150.82l13.758-12.328" stroke-width="1.2" stroke="#000" stroke-miterlimit="10" fill="none"/><path d="M169.37 138.492m-.093-2.996l-1.023.21m.926-3.21l-2.043.43m1.945-3.43l-3.062.645m2.964-3.64l-4.082.855m3.99-3.855l-5.107 1.07m5.008-4.066l-6.125 1.285m6.102-2.048l-6.383 1.34" stroke="#000" stroke-miterlimit="10" fill="none"/><path d="M169.37 138.492l8.782 2.88" stroke-width="1.2" stroke="#000" stroke-miterlimit="10" fill="none"/><path d="M178.152 141.37l8.778 2.876" stroke-width="1.2" stroke="#00f" stroke-miterlimit="10" fill="none"/><path d="M165.578 120.41l13.762-12.328M164.05 115.94l11.012-9.862M148.02 114.656l17.558 5.754M179.34 108.082L175.543 90M175.543 90l-17.56-5.754M172.434 93.56l-14.047-4.607M157.984 84.246l-13.76 12.328M144.223 96.574l3.797 18.082M148.86 97.492l3.035 14.465" stroke-width="1.2" stroke="#000" stroke-miterlimit="10" fill="none"/><path d="M186.93 144.246l1.898 9.043" stroke-width="1.2" stroke="#00f" stroke-miterlimit="10" fill="none"/><path d="M188.828 153.29l1.9 9.038" stroke-width="1.2" stroke="#000" stroke-miterlimit="10" fill="none"/><path d="M179.93 138.746h14v11h-14zm0 0" fill="#fff"/><g fill="#00f"><use xlink:href="#a" x="179.93" y="147.409"/><use xlink:href="#b" x="186.907" y="147.409"/></g><path d="M189.273 160.71l-6.878 6.165" stroke-width="1.2" stroke="#000" stroke-miterlimit="10" fill="none"/><path d="M182.395 166.875l-6.88 6.164" stroke-width="1.2" stroke="#f00" stroke-miterlimit="10" fill="none"/><path d="M192.176 163.945l-6.88 6.164" stroke-width="1.2" stroke="#000" stroke-miterlimit="10" fill="none"/><path d="M185.297 170.11l-6.883 6.163" stroke-width="1.2" stroke="#f00" stroke-miterlimit="10" fill="none"/><path d="M190.727 162.328l8.777 2.875" stroke-width="1.2" stroke="#000" stroke-miterlimit="10" fill="none"/><path d="M199.504 165.203l8.777 2.88" stroke-width="1.2" stroke="#f00" stroke-miterlimit="10" fill="none"/><path d="M168.965 169.156h8v11h-8zm0 0" fill="#fff"/><use xlink:href="#c" x="168.965" y="177.819" fill="#f00"/><path d="M208.28 168.082l1.9 9.04" stroke-width="1.2" stroke="#f00" stroke-miterlimit="10" fill="none"/><path d="M210.18 177.12l1.898 9.044" stroke-width="1.2" stroke="#000" stroke-miterlimit="10" fill="none"/><path d="M204.28 162.582h8v11h-8zm0 0" fill="#fff"/><use xlink:href="#c" x="204.281" y="171.245" fill="#f00"/><path d="M212.078 186.164l17.56 5.754M229.637 191.918L233.43 210M234.27 192.832l3.035 14.465M243.398 179.59l-13.76 12.328M233.43 210l17.558 5.754M250.988 215.754l13.762-12.328M249.465 211.28l11.008-9.862M264.75 203.426l-3.797-18.082M260.953 185.344l-17.555-5.754M257.844 188.898l-14.043-4.6M117.086 168.078l-.3-9.234" stroke-width="1.2" stroke="#000" stroke-miterlimit="10" fill="none"/><path d="M116.785 158.844l-.3-9.23" stroke-width="1.2" stroke="#f00" stroke-miterlimit="10" fill="none"/><path d="M112.738 168.22l-.297-9.236" stroke-width="1.2" stroke="#000" stroke-miterlimit="10" fill="none"/><path d="M112.44 158.984l-.3-9.23" stroke-width="1.2" stroke="#f00" stroke-miterlimit="10" fill="none"/><path d="M114.91 168.148l-7.844 4.875" stroke-width="1.2" stroke="#000" stroke-miterlimit="10" fill="none"/><path d="M107.066 173.023l-7.847 4.875" stroke-width="1.2" stroke="#00f" stroke-miterlimit="10" fill="none"/><path d="M110.313 144.184h8v11h-8zm0 0" fill="#fff"/><use xlink:href="#c" x="110.313" y="152.847" fill="#f00"/><path d="M99.22 177.898l-8.146-4.355" stroke-width="1.2" stroke="#00f" stroke-miterlimit="10" fill="none"/><path d="M91.074 173.543l-8.148-4.36" stroke-width="1.2" stroke="#000" stroke-miterlimit="10" fill="none"/><path d="M92.22 172.398h14v11h-14zm0 0" fill="#fff"/><g fill="#00f"><use xlink:href="#a" x="92.219" y="181.062"/><use xlink:href="#b" x="99.196" y="181.062"/></g><path d="M82.926 169.184l-15.692 9.75M67.234 178.934L50.94 170.22M63.555 181.898l-13.032-6.972" stroke-width="1.2" stroke="#000" stroke-miterlimit="10" fill="none"/><path d="M67.832 197.402l-.297-9.234" stroke-width="1.2" stroke="#00f" stroke-miterlimit="10" fill="none"/><path d="M67.535 188.168l-.3-9.234M50.94 170.22l-15.69 9.753M35.25 179.973l.598 18.464M39.656 181.676l.477 14.773M35.848 198.438l16.293 8.714M52.14 207.152l7.844-4.875" stroke-width="1.2" stroke="#000" stroke-miterlimit="10" fill="none"/><path d="M59.984 202.277l7.848-4.875" stroke-width="1.2" stroke="#00f" stroke-miterlimit="10" fill="none"/><path d="M51.414 202.484l6.277-3.898" stroke-width="1.2" stroke="#000" stroke-miterlimit="10" fill="none"/><path d="M57.69 198.586l6.28-3.902" stroke-width="1.2" stroke="#00f" stroke-miterlimit="10" fill="none"/><path d="M64.832 191.902h7v11h-7zm0 0" fill="#fff"/><use xlink:href="#a" x="64.832" y="200.565" fill="#00f"/></g></svg>