<svg xmlns="http://www.w3.org/2000/svg" xmlns:xlink="http://www.w3.org/1999/xlink" width="300pt" height="300pt" viewBox="0 0 300 300"><defs><symbol overflow="visible"><path d="M.453 1.594v-7.938h4.5v7.938zm.5-.5h3.5v-6.938h-3.5zm0 0"/></symbol><symbol overflow="visible" id="a"><path d="M.89-6.563H2.08l2.906 5.485v-5.484h.86V0H4.656L1.75-5.484V0H.89zm0 0"/></symbol><symbol overflow="visible" id="b"><path d="M3.547-5.953c-.65 0-1.164.242-1.547.72-.375.48-.563 1.13-.563 1.952 0 .835.188 1.49.563 1.967.383.48.898.72 1.547.72.644 0 1.156-.24 1.53-.72.376-.476.564-1.132.564-1.968 0-.822-.187-1.474-.562-1.954-.375-.477-.887-.72-1.53-.72zm0-.734c.914 0 1.648.312 2.203.937.55.617.828 1.438.828 2.47 0 1.042-.277 1.87-.828 2.483-.555.617-1.29.922-2.203.922-.93 0-1.668-.305-2.22-.922C.774-1.41.5-2.237.5-3.28c0-1.033.273-1.853.828-2.47.55-.625 1.29-.938 2.22-.938zm0 0"/></symbol></defs><g><path fill="#fff" d="M0 0h300v300H0z"/><path d="M83.363 217.13l6.172-8.82" stroke-width="1.2" stroke="#000" stroke-miterlimit="10" fill="none"/><path d="M89.535 208.31l6.172-8.826M95.707 199.484l-4.555-9.754" stroke-width="1.2" stroke="#00f" stroke-miterlimit="10" fill="none"/><path d="M91.152 189.73l-4.554-9.757" stroke-width="1.2" stroke="#000" stroke-miterlimit="10" fill="none"/><path d="M95.707 199.484l10.727.934" stroke-width="1.2" stroke="#00f" stroke-miterlimit="10" fill="none"/><path d="M106.434 200.418l10.726.934" stroke-width="1.2" stroke="#000" stroke-miterlimit="10" fill="none"/><path d="M92.707 193.984h7v11h-7zm0 0" fill="#fff"/><use xlink:href="#a" x="92.707" y="202.647" fill="#00f"/><path d="M114.863 202.426l4.555 9.754" stroke-width="1.2" stroke="#000" stroke-miterlimit="10" fill="none"/><path d="M119.418 212.18l4.555 9.757" stroke-width="1.2" stroke="#f00" stroke-miterlimit="10" fill="none"/><path d="M119.453 200.28l4.555 9.76" stroke-width="1.2" stroke="#000" stroke-miterlimit="10" fill="none"/><path d="M124.008 210.04l4.555 9.753" stroke-width="1.2" stroke="#f00" stroke-miterlimit="10" fill="none"/><path d="M117.16 201.352l12.344-17.645" stroke-width="1.2" stroke="#000" stroke-miterlimit="10" fill="none"/><path d="M122.266 215.363h8v11h-8zm0 0" fill="#fff"/><use xlink:href="#b" x="122.266" y="224.026" fill="#f00"/><path d="M129.504 183.707l21.527-.383M131.566 178.605l17.223-.308" stroke-width="1.2" stroke="#000" stroke-miterlimit="10" fill="none"/><path d="M122.484 163.352l3.508 10.18" stroke-width="1.2" stroke="#00f" stroke-miterlimit="10" fill="none"/><path d="M125.992 173.53l3.512 10.177M151.03 183.324l6.29-20.594M157.32 162.73l-17.644-12.343M158.457 157.344l-14.113-9.875" stroke-width="1.2" stroke="#000" stroke-miterlimit="10" fill="none"/><path d="M174.512 149.762l-19.48 9.933 4.573 6.067zm0 0"/><path d="M139.676 150.387l-8.598 6.48" stroke-width="1.2" stroke="#000" stroke-miterlimit="10" fill="none"/><path d="M131.078 156.867l-8.594 6.485" stroke-width="1.2" stroke="#00f" stroke-miterlimit="10" fill="none"/><path d="M139.676 150.387l6.285-20.598" stroke-width="1.2" stroke="#000" stroke-miterlimit="10" fill="none"/><path d="M122.484 163.352l-10.3-3.145" stroke-width="1.2" stroke="#00f" stroke-miterlimit="10" fill="none"/><path d="M112.184 160.207l-10.297-3.14" stroke-width="1.2" stroke="#000" stroke-miterlimit="10" fill="none"/><path d="M119.484 157.852h7v11h-7zm0 0" fill="#fff"/><use xlink:href="#a" x="119.484" y="166.515" fill="#00f"/><path d="M101.887 157.066l-4.852-20.98M97.035 136.086l-20.594-6.29M76.44 129.797l-4.854-20.977M71.02 128.844l-3.883-16.785" stroke-width="1.2" stroke="#000" stroke-miterlimit="10" fill="none"/><path d="M60.7 144.492l7.87-7.347" stroke-width="1.2" stroke="#00f" stroke-miterlimit="10" fill="none"/><path d="M68.57 137.145l7.87-7.348M71.586 108.82l-20.594-6.29M50.992 102.53L35.25 117.228M52.875 107.707L40.28 119.46M35.25 117.227l4.852 20.976M40.102 138.203l10.3 3.145" stroke-width="1.2" stroke="#000" stroke-miterlimit="10" fill="none"/><path d="M50.402 141.348l10.297 3.144" stroke-width="1.2" stroke="#00f" stroke-miterlimit="10" fill="none"/><path d="M43.64 133.988l8.24 2.512" stroke-width="1.2" stroke="#000" stroke-miterlimit="10" fill="none"/><path d="M51.88 136.5l8.237 2.516" stroke-width="1.2" stroke="#00f" stroke-miterlimit="10" fill="none"/><path d="M57.7 138.992h7v11h-7zm0 0" fill="#fff"/><use xlink:href="#a" x="57.699" y="147.655" fill="#00f"/><path d="M167.492 129.406l-21.597-3.414.136 7.598zm0 0"/><path d="M167.492 129.406l7.02 20.356M184.684 116.438l-17.192 12.968M174.512 149.762l21.527-.383M196.04 149.38l3.144-10.302" stroke-width="1.2" stroke="#000" stroke-miterlimit="10" fill="none"/><path d="M199.184 139.078l3.144-10.297" stroke-width="1.2" stroke="#00f" stroke-miterlimit="10" fill="none"/><path d="M196.04 149.38m-.774 2.893l1.04.094m-1.818 2.805l2.078.183m-2.85 2.715l3.112.274m-3.89 2.625l4.156.362m-4.93 2.535l5.19.453m-5.967 2.446l6.234.543m-7.01 2.354l7.273.633m-7.496.203l7.57.66" stroke="#000" stroke-miterlimit="10" fill="none"/><path d="M196.04 149.38l21.14 4.097" stroke-width="1.2" stroke="#000" stroke-miterlimit="10" fill="none"/><path d="M202.328 128.78l-8.824-6.17" stroke-width="1.2" stroke="#00f" stroke-miterlimit="10" fill="none"/><path d="M193.504 122.61l-8.82-6.172" stroke-width="1.2" stroke="#000" stroke-miterlimit="10" fill="none"/><path d="M202.328 128.78l10.18-3.507" stroke-width="1.2" stroke="#00f" stroke-miterlimit="10" fill="none"/><path d="M212.508 125.273l10.176-3.51" stroke-width="1.2" stroke="#000" stroke-miterlimit="10" fill="none"/><path d="M199.328 123.28h7v11h-7zm0 0" fill="#fff"/><use xlink:href="#a" x="199.328" y="131.944" fill="#00f"/><path d="M221.535 124.02l5.102 2.597" stroke-width="1.2" stroke="#000" stroke-miterlimit="10" fill="none"/><path d="M226.637 126.617l5.097 2.594" stroke-width="1.2" stroke="#f00" stroke-miterlimit="10" fill="none"/><path d="M223.832 119.504l5.102 2.598" stroke-width="1.2" stroke="#000" stroke-miterlimit="10" fill="none"/><path d="M228.934 122.102l5.097 2.593" stroke-width="1.2" stroke="#f00" stroke-miterlimit="10" fill="none"/><path d="M222.684 121.762l4.1-21.137" stroke-width="1.2" stroke="#000" stroke-miterlimit="10" fill="none"/><path d="M228.883 121.453h8v11h-8zm0 0" fill="#fff"/><use xlink:href="#b" x="228.883" y="130.116" fill="#f00"/><path d="M226.785 100.625l20.356-7.02M227.168 95.133l16.285-5.617M210.527 86.504l16.258 14.12M247.14 93.605l4.102-21.14M251.242 72.465l-16.258-14.12M246.293 74.88L233.285 63.58M234.984 58.344l-20.36 7.02M214.625 65.363l-4.098 21.14M219.19 68.44l-3.28 16.915M194.172 170.828l17.644 12.344M211.816 183.172l-1.867 21.453M216.68 185.758l-1.496 17.16M231.328 174.063l-19.512 9.11M209.95 204.625l17.644 12.344M227.594 216.97l19.51-9.11M227.402 211.465l15.61-7.285M247.105 207.86l1.868-21.454M247.105 207.86l8.825 6.17" stroke-width="1.2" stroke="#000" stroke-miterlimit="10" fill="none"/><path d="M255.93 214.03l8.82 6.173" stroke-width="1.2" stroke="#f00" stroke-miterlimit="10" fill="none"/><path d="M248.973 186.406l-17.645-12.344M244.305 189.324l-14.118-9.875" stroke-width="1.2" stroke="#000" stroke-miterlimit="10" fill="none"/><path d="M264.75 220.203l-.934 10.727" stroke-width="1.2" stroke="#f00" stroke-miterlimit="10" fill="none"/><path d="M263.816 230.93l-.933 10.726" stroke-width="1.2" stroke="#000" stroke-miterlimit="10" fill="none"/><path d="M260.75 214.703h8v11h-8zm0 0" fill="#fff"/><use xlink:href="#b" x="260.75" y="223.366" fill="#f00"/><path d="M215.055 154.86l3.465 5.327" stroke-width="1.2" stroke="#000" stroke-miterlimit="10" fill="none"/><path d="M218.52 160.188l3.464 5.332" stroke-width="1.2" stroke="#f00" stroke-miterlimit="10" fill="none"/><path d="M219.305 152.098l3.465 5.328" stroke-width="1.2" stroke="#000" stroke-miterlimit="10" fill="none"/><path d="M222.77 157.426l3.464 5.332" stroke-width="1.2" stroke="#f00" stroke-miterlimit="10" fill="none"/><path d="M217.18 153.477l7.058-8.13" stroke-width="1.2" stroke="#000" stroke-miterlimit="10" fill="none"/><path d="M224.238 145.348l7.063-8.13" stroke-width="1.2" stroke="#f00" stroke-miterlimit="10" fill="none"/><path d="M220.11 158.637h8v11h-8zm0 0" fill="#fff"/><use xlink:href="#b" x="220.109" y="167.3" fill="#f00"/><path d="M231.3 137.22l10.57 2.05" stroke-width="1.2" stroke="#f00" stroke-miterlimit="10" fill="none"/><path d="M241.87 139.27l10.567 2.05" stroke-width="1.2" stroke="#000" stroke-miterlimit="10" fill="none"/><path d="M227.3 131.72h8v11h-8zm0 0" fill="#fff"/><use xlink:href="#b" x="227.301" y="140.382" fill="#f00"/></g></svg>