<svg xmlns="http://www.w3.org/2000/svg" xmlns:xlink="http://www.w3.org/1999/xlink" width="300pt" height="300pt" viewBox="0 0 300 300"><defs><symbol overflow="visible"><path d="M.453 1.594v-7.938h4.5v7.938zm.5-.5h3.5v-6.938h-3.5zm0 0"/></symbol><symbol overflow="visible" id="a"><path d="M.89-6.563H2.08l2.906 5.485v-5.484h.86V0H4.656L1.75-5.484V0H.89zm0 0"/></symbol><symbol overflow="visible" id="b"><path d="M3.547-5.953c-.65 0-1.164.242-1.547.72-.375.48-.563 1.13-.563 1.952 0 .835.188 1.49.563 1.967.383.48.898.72 1.547.72.644 0 1.156-.24 1.53-.72.376-.476.564-1.132.564-1.968 0-.822-.187-1.474-.562-1.954-.375-.477-.887-.72-1.53-.72zm0-.734c.914 0 1.648.312 2.203.937.55.617.828 1.438.828 2.47 0 1.042-.277 1.87-.828 2.483-.555.617-1.29.922-2.203.922-.93 0-1.668-.305-2.22-.922C.774-1.41.5-2.237.5-3.28c0-1.033.273-1.853.828-2.47.55-.625 1.29-.938 2.22-.938zm0 0"/></symbol><symbol overflow="visible" id="c"><path d="M.89-6.563h.876v2.688H5v-2.688h.89V0H5v-3.125H1.766V0H.89zm0 0"/></symbol></defs><g><path fill="#fff" d="M0 0h300v300H0z"/><path d="M82.39 245.238l4.098-10.074" stroke-width="1.2" stroke="#000" stroke-miterlimit="10" fill="none"/><path d="M86.488 235.164l4.098-10.078M90.586 225.086l-6.676-8.59" stroke-width="1.2" stroke="#00f" stroke-miterlimit="10" fill="none"/><path d="M83.91 216.496l-6.68-8.586" stroke-width="1.2" stroke="#000" stroke-miterlimit="10" fill="none"/><path d="M90.586 225.086l10.777-1.488" stroke-width="1.2" stroke="#00f" stroke-miterlimit="10" fill="none"/><path d="M101.363 223.598l10.778-1.493" stroke-width="1.2" stroke="#000" stroke-miterlimit="10" fill="none"/><path d="M87.586 219.586h7v11h-7zm0 0" fill="#fff"/><use xlink:href="#a" x="87.586" y="228.249" fill="#00f"/><path d="M110.117 223.68l6.68 8.586" stroke-width="1.2" stroke="#000" stroke-miterlimit="10" fill="none"/><path d="M116.797 232.266l6.68 8.59" stroke-width="1.2" stroke="#f00" stroke-miterlimit="10" fill="none"/><path d="M114.16 220.535l6.68 8.59" stroke-width="1.2" stroke="#000" stroke-miterlimit="10" fill="none"/><path d="M120.84 229.125l6.676 8.586" stroke-width="1.2" stroke="#f00" stroke-miterlimit="10" fill="none"/><path d="M112.14 222.105l8.196-20.152" stroke-width="1.2" stroke="#000" stroke-miterlimit="10" fill="none"/><path d="M121.496 233.78h8v11h-8zm0 0" fill="#fff"/><use xlink:href="#b" x="121.496" y="242.444" fill="#f00"/><path d="M120.336 201.953l21.125-5.215M121.223 196.46l16.898-4.17" stroke-width="1.2" stroke="#000" stroke-miterlimit="10" fill="none"/><path d="M108.852 183.473l5.742 9.242" stroke-width="1.2" stroke="#00f" stroke-miterlimit="10" fill="none"/><path d="M114.594 192.715l5.742 9.238M141.46 196.738l1.567-21.703M143.027 175.035l-20.152-8.195M142.94 169.477l-16.124-6.56" stroke-width="1.2" stroke="#000" stroke-miterlimit="10" fill="none"/><path d="M157.05 158.402l-16.956 14.16 5.87 4.95zm0 0"/><path d="M122.875 166.84l-7.012 8.316" stroke-width="1.2" stroke="#000" stroke-miterlimit="10" fill="none"/><path d="M115.863 175.156l-7.01 8.317" stroke-width="1.2" stroke="#00f" stroke-miterlimit="10" fill="none"/><path d="M122.875 166.84l1.566-21.703" stroke-width="1.2" stroke="#000" stroke-miterlimit="10" fill="none"/><path d="M108.852 183.473L98 182.69" stroke-width="1.2" stroke="#00f" stroke-miterlimit="10" fill="none"/><path d="M98 182.69l-10.852-.784" stroke-width="1.2" stroke="#000" stroke-miterlimit="10" fill="none"/><path d="M105.852 177.973h7v11h-7zm0 0" fill="#fff"/><use xlink:href="#a" x="105.852" y="186.636" fill="#00f"/><path d="M87.148 181.906l-9.492-19.578M77.656 162.328l5.13-9.594" stroke-width="1.2" stroke="#000" stroke-miterlimit="10" fill="none"/><path d="M82.785 152.734l5.13-9.593" stroke-width="1.2" stroke="#00f" stroke-miterlimit="10" fill="none"/><path d="M74.168 157.996l4.102-7.676" stroke-width="1.2" stroke="#000" stroke-miterlimit="10" fill="none"/><path d="M78.27 150.32l4.105-7.675M56.238 158.5l10.707 1.914" stroke-width="1.2" stroke="#00f" stroke-miterlimit="10" fill="none"/><path d="M66.945 160.414l10.71 1.914" stroke-width="1.2" stroke="#000" stroke-miterlimit="10" fill="none"/><path d="M87.914 143.14l-7.54-7.843" stroke-width="1.2" stroke="#00f" stroke-miterlimit="10" fill="none"/><path d="M80.375 135.297l-7.54-7.84" stroke-width="1.2" stroke="#000" stroke-miterlimit="10" fill="none"/><path d="M84.914 137.64h7v11h-7zm0 0" fill="#fff"/><use xlink:href="#a" x="84.914" y="146.304" fill="#00f"/><path d="M72.836 127.457l1.57-21.703M67.887 124.918l1.254-17.363M53.258 136.95l19.578-9.493M74.406 105.754l-18.01-12.207M56.395 93.547l-19.58 9.492M56.672 99.102l-15.664 7.593M36.816 103.04l-1.566 21.698M35.25 124.738l18.008 12.21M39.922 121.723l14.41 9.765M53.258 136.95l1.492 10.777" stroke-width="1.2" stroke="#000" stroke-miterlimit="10" fill="none"/><path d="M54.75 147.727l1.488 10.773" stroke-width="1.2" stroke="#00f" stroke-miterlimit="10" fill="none"/><path d="M49.238 153h14v11h-14zm0 0" fill="#fff"/><g fill="#00f"><use xlink:href="#a" x="49.238" y="161.663"/><use xlink:href="#c" x="56.216" y="161.663"/></g><path d="M145.566 139.922l-22.043 1.488 1.84 7.457zm0 0"/><path d="M145.566 139.922l11.485 18.48M159.59 123.29l-14.024 16.632M157.05 158.402l21.126-5.214M178.176 153.188l.785-10.852" stroke-width="1.2" stroke="#000" stroke-miterlimit="10" fill="none"/><path d="M178.96 142.336l.782-10.852" stroke-width="1.2" stroke="#00f" stroke-miterlimit="10" fill="none"/><path d="M178.176 153.188m-.113 2.996l1.035-.14m-1.145 3.14l2.063-.286m-2.176 3.282l3.097-.426m-3.21 3.426l4.132-.57m-4.243 3.566l5.164-.715m-5.276 3.716l6.195-.86m-6.31 3.856l7.23-1m-7.268 2.094l7.605-1.05" stroke="#000" stroke-miterlimit="10" fill="none"/><path d="M178.176 153.188l21.746-.71" stroke-width="1.2" stroke="#000" stroke-miterlimit="10" fill="none"/><path d="M179.742 131.484l-10.074-4.097" stroke-width="1.2" stroke="#00f" stroke-miterlimit="10" fill="none"/><path d="M169.668 127.387l-10.078-4.098" stroke-width="1.2" stroke="#000" stroke-miterlimit="10" fill="none"/><path d="M179.742 131.484l9.242-5.742" stroke-width="1.2" stroke="#00f" stroke-miterlimit="10" fill="none"/><path d="M188.984 125.742l9.24-5.742" stroke-width="1.2" stroke="#000" stroke-miterlimit="10" fill="none"/><path d="M176.742 125.984h7v11h-7zm0 0" fill="#fff"/><use xlink:href="#a" x="176.742" y="134.647" fill="#00f"/><path d="M197.598 122.48l5.605 1.41" stroke-width="1.2" stroke="#000" stroke-miterlimit="10" fill="none"/><path d="M203.203 123.89l5.606 1.415" stroke-width="1.2" stroke="#f00" stroke-miterlimit="10" fill="none"/><path d="M198.848 117.516l5.605 1.414" stroke-width="1.2" stroke="#000" stroke-miterlimit="10" fill="none"/><path d="M204.453 118.93l5.606 1.41" stroke-width="1.2" stroke="#f00" stroke-miterlimit="10" fill="none"/><path d="M198.223 120l-.71-21.746" stroke-width="1.2" stroke="#000" stroke-miterlimit="10" fill="none"/><path d="M205.434 117.32h8v11h-8zm0 0" fill="#fff"/><use xlink:href="#b" x="205.434" y="125.983" fill="#f00"/><path d="M197.512 98.254l18.48-11.488M196.656 92.758l14.785-9.192M178.324 87.992l19.188 10.262M215.992 86.766l-.71-21.746M215.28 65.02l-19.186-10.258M210.95 68.508L195.6 60.3M196.094 54.762l-18.477 11.484M177.617 66.246l.707 21.746M182.805 68.254l.566 17.398M181.152 174.738l20.157 8.2M201.31 182.938l2.975 21.55M206.676 184.39l2.383 17.243M218.484 169.582l-17.175 13.356M204.285 204.488l20.156 8.2M224.44 212.688l17.177-13.356M223.016 207.31l13.742-10.685M241.617 199.332l-2.976-21.555M241.617 199.332l10.078 4.098" stroke-width="1.2" stroke="#000" stroke-miterlimit="10" fill="none"/><path d="M251.695 203.43l10.078 4.097" stroke-width="1.2" stroke="#f00" stroke-miterlimit="10" fill="none"/><path d="M238.64 177.777l-20.156-8.195M234.695 181.7l-16.125-6.555" stroke-width="1.2" stroke="#000" stroke-miterlimit="10" fill="none"/><path d="M261.773 207.527l1.49 10.778" stroke-width="1.2" stroke="#f00" stroke-miterlimit="10" fill="none"/><path d="M263.262 218.305l1.488 10.777" stroke-width="1.2" stroke="#000" stroke-miterlimit="10" fill="none"/><path d="M257.773 202.027h8v11h-8zm0 0" fill="#fff"/><use xlink:href="#b" x="257.773" y="210.69" fill="#f00"/><path d="M198.14 154.316l4.61 4.473" stroke-width="1.2" stroke="#000" stroke-miterlimit="10" fill="none"/><path d="M202.75 158.79l4.61 4.472" stroke-width="1.2" stroke="#f00" stroke-miterlimit="10" fill="none"/><path d="M201.703 150.64l4.613 4.473" stroke-width="1.2" stroke="#000" stroke-miterlimit="10" fill="none"/><path d="M206.316 155.113l4.61 4.473" stroke-width="1.2" stroke="#f00" stroke-miterlimit="10" fill="none"/><path d="M199.922 152.477l5.13-9.594" stroke-width="1.2" stroke="#000" stroke-miterlimit="10" fill="none"/><path d="M205.05 142.883l5.13-9.594" stroke-width="1.2" stroke="#f00" stroke-miterlimit="10" fill="none"/><path d="M205.145 155.922h8v11h-8zm0 0" fill="#fff"/><use xlink:href="#b" x="205.145" y="164.585" fill="#f00"/><path d="M210.18 133.29l10.875-.352" stroke-width="1.2" stroke="#f00" stroke-miterlimit="10" fill="none"/><path d="M221.055 132.938l10.87-.356" stroke-width="1.2" stroke="#000" stroke-miterlimit="10" fill="none"/><path d="M206.18 127.79h8v11h-8zm0 0" fill="#fff"/><use xlink:href="#b" x="206.18" y="136.452" fill="#f00"/></g></svg>