<svg xmlns="http://www.w3.org/2000/svg" xmlns:xlink="http://www.w3.org/1999/xlink" width="300pt" height="300pt" viewBox="0 0 300 300"><defs><symbol overflow="visible"><path d="M.453 1.594v-7.938h4.5v7.938zm.5-.5h3.5v-6.938h-3.5zm0 0"/></symbol><symbol overflow="visible" id="a"><path d="M3.547-5.953c-.65 0-1.164.242-1.547.72-.375.48-.563 1.13-.563 1.952 0 .835.188 1.49.563 1.967.383.48.898.72 1.547.72.644 0 1.156-.24 1.53-.72.376-.476.564-1.132.564-1.968 0-.822-.187-1.474-.562-1.954-.375-.477-.887-.72-1.53-.72zm0-.734c.914 0 1.648.312 2.203.937.55.617.828 1.438.828 2.47 0 1.042-.277 1.87-.828 2.483-.555.617-1.29.922-2.203.922-.93 0-1.668-.305-2.22-.922C.774-1.41.5-2.237.5-3.28c0-1.033.273-1.853.828-2.47.55-.625 1.29-.938 2.22-.938zm0 0"/></symbol><symbol overflow="visible" id="b"><path d="M.89-6.563H2.08l2.906 5.485v-5.484h.86V0H4.656L1.75-5.484V0H.89zm0 0"/></symbol><symbol overflow="visible" id="c"><path d="M.89-6.563h.876v2.688H5v-2.688h.89V0H5v-3.125H1.766V0H.89zm0 0"/></symbol></defs><g><path fill="#fff" d="M0 0h300v300H0z"/><path d="M264.75 83.566l-11.773 2.84" stroke-width="1.2" stroke="#000" stroke-miterlimit="10" fill="none"/><path d="M252.977 86.406l-11.778 2.84M241.2 89.246l-3.427 11.617" stroke-width="1.2" stroke="#f00" stroke-miterlimit="10" fill="none"/><path d="M237.773 100.863l-3.43 11.617" stroke-width="1.2" stroke="#000" stroke-miterlimit="10" fill="none"/><path d="M237.2 83.746h8v11h-8zm0 0" fill="#fff"/><use xlink:href="#a" x="237.199" y="92.409" fill="#f00"/><path d="M232.28 114.445l8.345 8.778" stroke-width="1.2" stroke="#000" stroke-miterlimit="10" fill="none"/><path d="M240.625 123.223l8.348 8.777" stroke-width="1.2" stroke="#f00" stroke-miterlimit="10" fill="none"/><path d="M236.41 110.516l8.348 8.777" stroke-width="1.2" stroke="#000" stroke-miterlimit="10" fill="none"/><path d="M244.758 119.293l8.347 8.777" stroke-width="1.2" stroke="#f00" stroke-miterlimit="10" fill="none"/><path d="M210.797 118.16m2.992-.183l-.243-1.016m3.238.83l-.492-2.028m3.484 1.843l-.734-3.043m3.73 2.856l-.98-4.055m3.973 3.867l-1.223-5.066m4.22 4.883l-1.47-6.082m4.46 5.894l-1.71-7.094m4.707 6.91l-1.957-8.11m2.555 8.07l-2.004-8.312" stroke="#000" stroke-miterlimit="10" fill="none"/><path d="M247.04 124.535h8v11h-8zm0 0" fill="#fff"/><use xlink:href="#a" x="247.039" y="133.198" fill="#f00"/><path d="M210.797 118.16l-23.234-6.855M193.242 134.855l17.555-16.695" stroke-width="1.2" stroke="#000" stroke-miterlimit="10" fill="none"/><path d="M193.242 134.855l-1.527-24.55-8.31 2.004zm0 0"/><path d="M193.242 134.855l-6.855 23.235" stroke-width="1.2" stroke="#000" stroke-miterlimit="10" fill="none"/><path d="M186.387 158.09l13.593 20.5 6.196-5.89zm0 0"/><path d="M186.387 158.09l-11.778 2.84" stroke-width="1.2" stroke="#000" stroke-miterlimit="10" fill="none"/><path d="M174.61 160.93l-11.774 2.84" stroke-width="1.2" stroke="#00f" stroke-miterlimit="10" fill="none"/><path d="M203.078 175.645l-6.855 23.234M207.86 179.582l-5.485 18.586M226.63 169.965l-23.552 5.68M196.223 198.88l16.695 17.554M212.918 216.434l23.55-5.68M213.938 210.324l18.84-4.543M236.47 210.754l6.854-23.234M243.324 187.52l-16.695-17.555M237.523 189.69l-13.355-14.042" stroke-width="1.2" stroke="#000" stroke-miterlimit="10" fill="none"/><path d="M162.836 163.77l-8.348-8.778" stroke-width="1.2" stroke="#00f" stroke-miterlimit="10" fill="none"/><path d="M154.488 154.992l-8.347-8.777" stroke-width="1.2" stroke="#000" stroke-miterlimit="10" fill="none"/><path d="M155.836 158.27h14v11h-14zm0 0" fill="#fff"/><g fill="#00f"><use xlink:href="#b" x="155.836" y="166.933"/><use xlink:href="#c" x="162.813" y="166.933"/></g><path d="M148.875 147.023l3.43-11.617" stroke-width="1.2" stroke="#000" stroke-miterlimit="10" fill="none"/><path d="M152.305 135.406l3.425-11.617" stroke-width="1.2" stroke="#f00" stroke-miterlimit="10" fill="none"/><path d="M143.41 145.41l3.426-11.617" stroke-width="1.2" stroke="#000" stroke-miterlimit="10" fill="none"/><path d="M146.836 133.793l3.43-11.617" stroke-width="1.2" stroke="#f00" stroke-miterlimit="10" fill="none"/><path d="M146.14 146.215l-11.773 2.84" stroke-width="1.2" stroke="#000" stroke-miterlimit="10" fill="none"/><path d="M134.367 149.055l-11.773 2.84" stroke-width="1.2" stroke="#f00" stroke-miterlimit="10" fill="none"/><path d="M148.996 117.48h8v11h-8zm0 0" fill="#fff"/><use xlink:href="#a" x="148.996" y="126.144" fill="#f00"/><path d="M122.594 151.895l-8.348-8.778" stroke-width="1.2" stroke="#f00" stroke-miterlimit="10" fill="none"/><path d="M114.246 143.117l-8.348-8.777" stroke-width="1.2" stroke="#000" stroke-miterlimit="10" fill="none"/><path d="M118.594 146.395h8v11h-8zm0 0" fill="#fff"/><use xlink:href="#a" x="118.594" y="155.058" fill="#f00"/><path d="M105.898 134.34l-23.55 5.683M82.348 140.023L65.656 122.47M76.55 142.195l-13.355-14.043M75.492 163.258l6.856-23.235M65.656 122.47l-23.55 5.678M42.105 128.148l-6.855 23.235M46.887 132.086l-5.485 18.586M35.25 151.383l16.695 17.554M51.945 168.938l23.547-5.68M52.96 162.828l18.84-4.543" stroke-width="1.2" stroke="#000" stroke-miterlimit="10" fill="none"/></g></svg>