<svg xmlns="http://www.w3.org/2000/svg" xmlns:xlink="http://www.w3.org/1999/xlink" width="300pt" height="300pt" viewBox="0 0 300 300"><defs><symbol overflow="visible"><path d="M.797 2.828v-14.11h8V2.83zm.906-.89h6.203v-12.33H1.703zm0 0"/></symbol><symbol overflow="visible" id="a"><path d="M6.313-10.594c-1.15 0-2.06.43-2.735 1.28-.68.857-1.015 2.017-1.015 3.486 0 1.47.335 2.633 1.015 3.484.676.856 1.586 1.28 2.735 1.28 1.144.002 2.05-.424 2.718-1.28.665-.85 1-2.015 1-3.484 0-1.47-.335-2.63-1-3.484-.667-.852-1.573-1.282-2.717-1.282zm0-1.28c1.632 0 2.94.546 3.92 1.64.978 1.093 1.47 2.562 1.47 4.406 0 1.844-.492 3.32-1.47 4.422-.98 1.093-2.288 1.64-3.92 1.64-1.65 0-2.96-.546-3.938-1.64-.98-1.102-1.47-2.578-1.47-4.422 0-1.844.49-3.313 1.47-4.406.977-1.094 2.29-1.64 3.938-1.64zm0 0"/></symbol></defs><g><path fill="#fff" d="M0 0h300v300H0z"/><path d="M197.75 70.652l15.273 35.067M213.023 105.72l15.274 35.07M213.023 105.72l35.067-15.27M177.953 120.992l35.07-15.273M228.297 140.79l-35.07 15.273M193.227 156.063l-15.274-35.07M182.387 192.742l10.84-36.68M177.953 120.992l-34.238-17.047M143.715 103.945l-37.188 8.953M106.527 112.898L83.793 143.66M83.793 143.66l2.355 38.176M83.793 143.66l-26.348-27.73" stroke-width="1.2" stroke="#000" stroke-miterlimit="10" fill="none"/><path d="M51.91 164.79l15.942-10.563" stroke-width="1.2" stroke="#f00" stroke-miterlimit="10" fill="none"/><path d="M67.852 154.227l15.94-10.567M86.148 181.836l-17.12-8.524" stroke-width="1.2" stroke="#000" stroke-miterlimit="10" fill="none"/><path d="M69.027 173.313L51.91 164.79" stroke-width="1.2" stroke="#f00" stroke-miterlimit="10" fill="none"/><path d="M86.148 181.836l26.348 27.73" stroke-width="1.2" stroke="#000" stroke-miterlimit="10" fill="none"/><path d="M45.91 155.29h13v19h-13zm0 0" fill="#fff"/><use xlink:href="#a" x="45.91" y="170.141" fill="#f00"/><path d="M112.496 209.566l38.008 4.31M150.504 213.875l31.883-21.133M182.387 192.742l11.097 36.606M182.387 192.742l19.125-.066" stroke-width="1.2" stroke="#000" stroke-miterlimit="10" fill="none"/><path d="M201.512 192.676l19.125-.067M220.637 192.61l9.62 16.527" stroke-width="1.2" stroke="#f00" stroke-miterlimit="10" fill="none"/><path d="M230.258 209.137l9.62 16.53" stroke-width="1.2" stroke="#000" stroke-miterlimit="10" fill="none"/><path d="M214.637 183.11h13v19h-13zm0 0" fill="#fff"/><use xlink:href="#a" x="214.637" y="197.961" fill="#f00"/></g></svg>