<svg xmlns="http://www.w3.org/2000/svg" xmlns:xlink="http://www.w3.org/1999/xlink" width="300pt" height="300pt" viewBox="0 0 300 300"><defs><symbol overflow="visible"><path d="M.453 1.594v-7.938h4.5v7.938zm.5-.5h3.5v-6.938h-3.5zm0 0"/></symbol><symbol overflow="visible" id="a"><path d="M.89-6.563H2.08l2.906 5.485v-5.484h.86V0H4.656L1.75-5.484V0H.89zm0 0"/></symbol><symbol overflow="visible" id="b"><path d="M.89-6.563h.876v2.688H5v-2.688h.89V0H5v-3.125H1.766V0H.89zm0 0"/></symbol><symbol overflow="visible" id="c"><path d="M3.547-5.953c-.65 0-1.164.242-1.547.72-.375.48-.563 1.13-.563 1.952 0 .835.188 1.49.563 1.967.383.48.898.72 1.547.72.644 0 1.156-.24 1.53-.72.376-.476.564-1.132.564-1.968 0-.822-.187-1.474-.562-1.954-.375-.477-.887-.72-1.53-.72zm0-.734c.914 0 1.648.312 2.203.937.55.617.828 1.438.828 2.47 0 1.042-.277 1.87-.828 2.483-.555.617-1.29.922-2.203.922-.93 0-1.668-.305-2.22-.922C.774-1.41.5-2.237.5-3.28c0-1.033.273-1.853.828-2.47.55-.625 1.29-.938 2.22-.938zm0 0"/></symbol></defs><g><path fill="#fff" d="M0 0h300v300H0z"/><path d="M204.95 171.543l-12.813-11.066M206.273 167.422l-10.253-8.856M220.94 165.98l-15.99 5.563M192.137 160.477l-7.996 2.78" stroke-width="1.2" stroke="#000" stroke-miterlimit="10" fill="none"/><path d="M184.14 163.258l-7.995 2.78" stroke-width="1.2" stroke="#00f" stroke-miterlimit="10" fill="none"/><path d="M192.137 160.477l3.175-16.63" stroke-width="1.2" stroke="#000" stroke-miterlimit="10" fill="none"/><path d="M176.145 166.04l-6.407-5.532" stroke-width="1.2" stroke="#00f" stroke-miterlimit="10" fill="none"/><path d="M169.738 160.508l-6.406-5.535" stroke-width="1.2" stroke="#000" stroke-miterlimit="10" fill="none"/><path d="M177.47 161.918l-5.126-4.426" stroke-width="1.2" stroke="#00f" stroke-miterlimit="10" fill="none"/><path d="M172.344 157.492l-5.125-4.426" stroke-width="1.2" stroke="#000" stroke-miterlimit="10" fill="none"/><path d="M173.145 160.54h7v11h-7zm0 0" fill="#fff"/><use xlink:href="#a" x="173.145" y="169.202" fill="#00f"/><path d="M163.332 154.973l1.59-8.317" stroke-width="1.2" stroke="#000" stroke-miterlimit="10" fill="none"/><path d="M164.922 146.656l1.586-8.312" stroke-width="1.2" stroke="#00f" stroke-miterlimit="10" fill="none"/><path d="M163.332 154.973l-7.996 2.78" stroke-width="1.2" stroke="#000" stroke-miterlimit="10" fill="none"/><path d="M155.336 157.754l-7.996 2.78M166.508 138.344l-6.406-5.535" stroke-width="1.2" stroke="#00f" stroke-miterlimit="10" fill="none"/><path d="M160.102 132.81l-6.407-5.533" stroke-width="1.2" stroke="#000" stroke-miterlimit="10" fill="none"/><path d="M159.508 132.844h14v11h-14zm0 0" fill="#fff"/><g fill="#00f"><use xlink:href="#a" x="159.508" y="141.507"/><use xlink:href="#b" x="166.485" y="141.507"/></g><path d="M153.695 127.277l-6.406-5.535" stroke-width="1.2" stroke="#000" stroke-miterlimit="10" fill="none"/><path d="M147.29 121.742l-6.407-5.53" stroke-width="1.2" stroke="#00f" stroke-miterlimit="10" fill="none"/><path d="M155.02 123.156l-5.125-4.43" stroke-width="1.2" stroke="#000" stroke-miterlimit="10" fill="none"/><path d="M149.895 118.727l-5.13-4.426" stroke-width="1.2" stroke="#00f" stroke-miterlimit="10" fill="none"/><path d="M149.81 129.184l-5.126-4.426" stroke-width="1.2" stroke="#000" stroke-miterlimit="10" fill="none"/><path d="M144.684 124.758l-5.125-4.426" stroke-width="1.2" stroke="#00f" stroke-miterlimit="10" fill="none"/><path d="M133.883 110.71h7v11h-7zm0 0" fill="#fff"/><use xlink:href="#a" x="133.883" y="119.374" fill="#00f"/><path d="M134.527 149.47m1.895 2.327l.683-.79m1.21 3.114l1.365-1.577m.53 3.902l2.048-2.367m-.15 4.695l2.728-3.156m-.832 5.48l3.406-3.945m-2.023 5.645l3.906-4.52" stroke="#000" stroke-miterlimit="10" fill="none"/><path d="M140.34 155.035h14v11h-14zm0 0" fill="#fff"/><g fill="#00f"><use xlink:href="#a" x="140.34" y="163.698"/><use xlink:href="#b" x="147.317" y="163.698"/></g><path d="M134.527 149.47l4.41-16.345M118.996 156.21l15.53-6.74M138.938 133.125l-10.028-13.64M128.91 119.484l-16.918-.664M111.992 118.82l-11.066 12.813M100.926 131.633l1.558 8.32" stroke-width="1.2" stroke="#000" stroke-miterlimit="10" fill="none"/><path d="M102.484 139.953l1.56 8.32M104.043 148.273l-6.82 5.016" stroke-width="1.2" stroke="#00f" stroke-miterlimit="10" fill="none"/><path d="M97.223 153.29l-6.82 5.015" stroke-width="1.2" stroke="#000" stroke-miterlimit="10" fill="none"/><path d="M104.043 148.273l7.477 3.97" stroke-width="1.2" stroke="#00f" stroke-miterlimit="10" fill="none"/><path d="M111.52 152.242l7.476 3.97" stroke-width="1.2" stroke="#000" stroke-miterlimit="10" fill="none"/><path d="M101.043 142.773h7v11h-7zm0 0" fill="#fff"/><use xlink:href="#a" x="101.043" y="151.437" fill="#00f"/><path d="M90.402 158.305l-15.507-6.797M76.875 151.285l-.934-8.414" stroke-width="1.2" stroke="#000" stroke-miterlimit="10" fill="none"/><path d="M75.94 142.87l-.928-8.41" stroke-width="1.2" stroke="#f00" stroke-miterlimit="10" fill="none"/><path d="M72.918 151.727l-.934-8.415" stroke-width="1.2" stroke="#000" stroke-miterlimit="10" fill="none"/><path d="M71.984 143.313l-.933-8.415" stroke-width="1.2" stroke="#f00" stroke-miterlimit="10" fill="none"/><path d="M74.895 151.508l-6.82 5.012" stroke-width="1.2" stroke="#000" stroke-miterlimit="10" fill="none"/><path d="M68.074 156.52l-6.82 5.015" stroke-width="1.2" stroke="#00f" stroke-miterlimit="10" fill="none"/><path d="M69.03 129.18h8v11h-8zm0 0" fill="#fff"/><use xlink:href="#c" x="69.031" y="137.843" fill="#f00"/><path d="M61.254 161.535l-8.066-2.57" stroke-width="1.2" stroke="#00f" stroke-miterlimit="10" fill="none"/><path d="M53.188 158.965l-8.063-2.57M61.352 178.465L61.305 170" stroke-width="1.2" stroke="#000" stroke-miterlimit="10" fill="none"/><path d="M61.305 170l-.05-8.465" stroke-width="1.2" stroke="#00f" stroke-miterlimit="10" fill="none"/><path d="M58.254 156.035h7v11h-7zm0 0" fill="#fff"/><use xlink:href="#a" x="58.254" y="164.698" fill="#00f"/><path d="M45.125 156.395l-9.875 13.753M35.25 170.148l10.03 13.64M45.28 183.79l16.072-5.325M117.008 156.137l-.332 8.457" stroke-width="1.2" stroke="#000" stroke-miterlimit="10" fill="none"/><path d="M116.676 164.594l-.332 8.46" stroke-width="1.2" stroke="#f00" stroke-miterlimit="10" fill="none"/><path d="M120.988 156.29l-.332 8.46" stroke-width="1.2" stroke="#000" stroke-miterlimit="10" fill="none"/><path d="M120.656 164.75l-.332 8.457" stroke-width="1.2" stroke="#f00" stroke-miterlimit="10" fill="none"/><path d="M114.336 167.63h8v11h-8zm0 0" fill="#fff"/><use xlink:href="#c" x="114.336" y="176.292" fill="#f00"/><path d="M195.313 143.848l15.992-5.567M198.223 147.05l12.793-4.448M211.305 138.28l12.812 11.068M224.117 149.348l8.4-1.06" stroke-width="1.2" stroke="#000" stroke-miterlimit="10" fill="none"/><path d="M232.516 148.29l8.398-1.06" stroke-width="1.2" stroke="#f00" stroke-miterlimit="10" fill="none"/><path d="M224.117 149.348l-3.176 16.632M227.71 151.762l-2.538 13.3" stroke-width="1.2" stroke="#000" stroke-miterlimit="10" fill="none"/><path d="M240.914 147.23l3.606 7.665" stroke-width="1.2" stroke="#f00" stroke-miterlimit="10" fill="none"/><path d="M244.52 154.895l3.6 7.66" stroke-width="1.2" stroke="#000" stroke-miterlimit="10" fill="none"/><path d="M236.914 141.73h8v11h-8zm0 0" fill="#fff"/><use xlink:href="#c" x="236.914" y="150.394" fill="#f00"/><path d="M248.12 162.555l16.63 3.175M248.12 162.555l-12.347 11.586M244.16 160.81l-9.88 9.268M220.94 165.98l14.833 8.16" stroke-width="1.2" stroke="#000" stroke-miterlimit="10" fill="none"/></g></svg>