<svg xmlns="http://www.w3.org/2000/svg" xmlns:xlink="http://www.w3.org/1999/xlink" width="300pt" height="300pt" viewBox="0 0 300 300"><defs><symbol overflow="visible"><path d="M.453 1.594v-7.938h4.5v7.938zm.5-.5h3.5v-6.938h-3.5zm0 0"/></symbol><symbol overflow="visible" id="a"><path d="M3.547-5.953c-.65 0-1.164.242-1.547.72-.375.48-.563 1.13-.563 1.952 0 .835.188 1.49.563 1.967.383.48.898.72 1.547.72.644 0 1.156-.24 1.53-.72.376-.476.564-1.132.564-1.968 0-.822-.187-1.474-.562-1.954-.375-.477-.887-.72-1.53-.72zm0-.734c.914 0 1.648.312 2.203.937.55.617.828 1.438.828 2.47 0 1.042-.277 1.87-.828 2.483-.555.617-1.29.922-2.203.922-.93 0-1.668-.305-2.22-.922C.774-1.41.5-2.237.5-3.28c0-1.033.273-1.853.828-2.47.55-.625 1.29-.938 2.22-.938zm0 0"/></symbol><symbol overflow="visible" id="b"><path d="M.89-6.563H2.08l2.906 5.485v-5.484h.86V0H4.656L1.75-5.484V0H.89zm0 0"/></symbol><symbol overflow="visible" id="c"><path d="M.89-6.563h.876v2.688H5v-2.688h.89V0H5v-3.125H1.766V0H.89zm0 0"/></symbol><symbol overflow="visible" id="d"><path d="M.89-6.563h3.766v.75h-2.89v1.938h2.61v.734h-2.61V0H.89zm0 0"/></symbol><symbol overflow="visible" id="e"><path d="M5.797-6.063v.938c-.305-.27-.625-.473-.97-.61-.335-.144-.686-.218-1.06-.218-.75 0-1.33.23-1.736.687-.397.46-.592 1.12-.592 1.985 0 .866.195 1.526.593 1.983.408.46.986.688 1.736.688.375 0 .726-.066 1.062-.203.344-.132.664-.343.97-.625V-.5c-.314.21-.642.367-.986.47-.343.1-.714.155-1.11.155-.99 0-1.772-.3-2.343-.906C.784-1.396.5-2.228.5-3.28c0-1.052.285-1.88.86-2.486.57-.613 1.35-.92 2.343-.92.395-.002.766.053 1.11.155.35.104.68.26.984.468zm0 0"/></symbol><symbol overflow="visible" id="f"><path d="M.844-6.844h.812V0H.844zm0 0"/></symbol><symbol overflow="visible" id="h"><path d="M4.813-6.344v.86c-.336-.157-.653-.27-.954-.344-.294-.082-.58-.125-.86-.125-.492 0-.867.094-1.125.28-.262.19-.39.454-.39.798 0 .293.085.512.265.656.176.15.504.267.984.36l.547.11c.658.125 1.142.352 1.454.672.32.312.485.734.485 1.265 0 .637-.216 1.122-.642 1.454-.43.325-1.055.485-1.875.485-.312 0-.648-.04-1-.11C1.36-.046 1-.147.625-.296v-.906c.352.2.703.35 1.047.453.35.105.695.156 1.03.156.5 0 .884-.097 1.157-.297.28-.196.42-.485.42-.86 0-.32-.1-.57-.296-.75-.2-.176-.523-.313-.968-.406l-.547-.11C1.81-3.148 1.33-3.36 1.03-3.64.74-3.923.595-4.313.595-4.813c0-.57.203-1.024.61-1.36.405-.344.968-.516 1.687-.516.313 0 .626.032.938.094.32.055.65.137.985.25zm0 0"/></symbol><symbol overflow="visible"><path d="M.406 1.422V-5.64h4V1.42zM.844.97h3.11v-6.157H.843zm0 0"/></symbol><symbol overflow="visible" id="g"><path d="M3.688-5.016v2.172h2.17v.672H3.69V0H3.03v-2.172H.845v-.672H3.03v-2.172zm0 0"/></symbol></defs><g><path fill="#fff" d="M0 0h300v300H0z"/><path d="M211.543 167.54l20.144-3.34-2.36-6.696zm0 0"/><path d="M211.543 167.54l-3.69 19.77M196.27 154.457l15.273 13.082M232.836 161.285l1.844-9.883" stroke-width="1.2" stroke="#000" stroke-miterlimit="10" fill="none"/><path d="M234.68 151.402l1.847-9.886" stroke-width="1.2" stroke="#f00" stroke-miterlimit="10" fill="none"/><path d="M228.184 160.418l1.843-9.887" stroke-width="1.2" stroke="#000" stroke-miterlimit="10" fill="none"/><path d="M230.027 150.53l1.848-9.882" stroke-width="1.2" stroke="#f00" stroke-miterlimit="10" fill="none"/><path d="M230.508 160.852l7.637 6.54" stroke-width="1.2" stroke="#000" stroke-miterlimit="10" fill="none"/><path d="M238.145 167.39l7.64 6.544" stroke-width="1.2" stroke="#00f" stroke-miterlimit="10" fill="none"/><path d="M230.2 135.582h8v11h-8zm0 0" fill="#fff"/><use xlink:href="#a" x="230.199" y="144.245" fill="#f00"/><path d="M245.785 173.934l9.48-3.344" stroke-width="1.2" stroke="#00f" stroke-miterlimit="10" fill="none"/><path d="M255.266 170.59l9.484-3.344" stroke-width="1.2" stroke="#000" stroke-miterlimit="10" fill="none"/><path d="M245.785 173.934l-1.847 9.882" stroke-width="1.2" stroke="#00f" stroke-miterlimit="10" fill="none"/><path d="M243.938 183.816l-1.848 9.887" stroke-width="1.2" stroke="#000" stroke-miterlimit="10" fill="none"/><path d="M242.785 168.434h7v11h-7zm0 0" fill="#fff"/><use xlink:href="#b" x="242.785" y="177.097" fill="#00f"/><path d="M207.852 187.31l-18.97 6.686M188.883 193.996L173.61 180.91" stroke-width="1.2" stroke="#000" stroke-miterlimit="10" fill="none"/><path d="M173.61 180.91m-2.962.492l.348.985m-3.31-.492l.697 1.964m-3.653-1.477l1.04 2.953m-4-2.46l1.386 3.933m-4.344-3.447l1.73 4.918m-4.69-4.425l2.078 5.903m-4.47-5.508l2.36 6.695" stroke="#000" stroke-miterlimit="10" fill="none"/><path d="M173.61 180.91l3.69-19.765" stroke-width="1.2" stroke="#000" stroke-miterlimit="10" fill="none"/><path d="M154.64 187.598l-7.636-6.54" stroke-width="1.2" stroke="#00f" stroke-miterlimit="10" fill="none"/><path d="M147.004 181.06l-7.637-6.544" stroke-width="1.2" stroke="#000" stroke-miterlimit="10" fill="none"/><path d="M147.64 182.098h14v11h-14zm0 0" fill="#fff"/><g fill="#00f"><use xlink:href="#b" x="147.641" y="190.761"/><use xlink:href="#c" x="154.618" y="190.761"/></g><path d="M139.367 174.516l-18.965 6.687M141.69 174.95l1.85-9.884" stroke-width="1.2" stroke="#000" stroke-miterlimit="10" fill="none"/><path d="M143.54 165.066l1.847-9.882" stroke-width="1.2" stroke="#f00" stroke-miterlimit="10" fill="none"/><path d="M137.043 174.082l1.844-9.883" stroke-width="1.2" stroke="#000" stroke-miterlimit="10" fill="none"/><path d="M138.887 164.2l1.847-9.887" stroke-width="1.2" stroke="#f00" stroke-miterlimit="10" fill="none"/><path d="M120.402 181.203l-2.87 9.637" stroke-width="1.2" stroke="#000" stroke-miterlimit="10" fill="none"/><path d="M117.53 190.84l-2.866 9.64" stroke-width="1.2" stroke="#00f" stroke-miterlimit="10" fill="none"/><path d="M103.844 169.79l16.558 11.413M102.813 174.828l13.246 9.13" stroke-width="1.2" stroke="#000" stroke-miterlimit="10" fill="none"/><path d="M114.664 200.48l-10.055.247" stroke-width="1.2" stroke="#00f" stroke-miterlimit="10" fill="none"/><path d="M104.61 200.727l-10.05.25" stroke-width="1.2" stroke="#000" stroke-miterlimit="10" fill="none"/><path d="M107.664 194.98h14v11h-14zm0 0" fill="#fff"/><g fill="#00f"><use xlink:href="#b" x="107.664" y="203.644"/><use xlink:href="#c" x="114.642" y="203.644"/></g><path d="M94.56 200.977L81.476 216.25M89.656 199.426l-10.465 12.22M94.56 200.977l-6.69-18.965M81.477 216.25l3.343 9.484" stroke-width="1.2" stroke="#000" stroke-miterlimit="10" fill="none"/><path d="M84.82 225.734l3.344 9.485" stroke-width="1.2" stroke="#3cc" stroke-miterlimit="10" fill="none"/><path d="M81.477 216.25l-19.77-3.69" stroke-width="1.2" stroke="#000" stroke-miterlimit="10" fill="none"/><path d="M85.164 229.72h6v11h-6zm0 0" fill="#fff"/><use xlink:href="#d" x="85.164" y="238.382" fill="#3cc"/><path d="M61.707 212.56l-6.687-18.966M65.5 209.09l-5.348-15.176M55.02 193.594l-9.887-1.848" stroke-width="1.2" stroke="#000" stroke-miterlimit="10" fill="none"/><path d="M45.133 191.746l-9.883-1.848" stroke-width="1.2" stroke="#0c0" stroke-miterlimit="10" fill="none"/><path d="M55.02 193.594l13.082-15.278" stroke-width="1.2" stroke="#000" stroke-miterlimit="10" fill="none"/><path d="M25.25 184.398h10v11h-10zm0 0" fill="#fff"/><g fill="#0c0"><use xlink:href="#e" x="25.25" y="193.062"/><use xlink:href="#f" x="31.764" y="193.062"/></g><path d="M87.87 182.012l-19.768-3.696M85.023 186.293L69.21 183.34M87.87 182.012l15.974-12.223" stroke-width="1.2" stroke="#000" stroke-miterlimit="10" fill="none"/><path d="M139.06 149.246h8v11h-8zm0 0" fill="#fff"/><use xlink:href="#a" x="139.059" y="157.909" fill="#f00"/><path d="M177.3 161.145m-1.905-2.32l-.676.792m-1.228-3.11l-1.355 1.583m-.55-3.9l-2.036 2.376m.134-4.695l-2.715 3.17m.807-5.485l-3.39 3.957m1.484-6.278l-4.065 4.754m2.53-6.625l-4.616 5.395" stroke="#000" stroke-miterlimit="10" fill="none"/><path d="M177.3 161.145l18.97-6.688" stroke-width="1.2" stroke="#000" stroke-miterlimit="10" fill="none"/><path d="M162.027 148.063l1.844-9.887" stroke-width="1.2" stroke="#00f" stroke-miterlimit="10" fill="none"/><path d="M163.87 138.176l1.85-9.883" stroke-width="1.2" stroke="#000" stroke-miterlimit="10" fill="none"/><path d="M155.027 142.563h14v11h-14zm0 0" fill="#fff"/><g fill="#00f"><use xlink:href="#b" x="155.027" y="151.226"/><use xlink:href="#c" x="162.005" y="151.226"/></g><path d="M165.72 128.293l-15.275-13.082M166.504 130.523l9.484-3.343" stroke-width="1.2" stroke="#000" stroke-miterlimit="10" fill="none"/><path d="M175.988 127.18l9.485-3.344" stroke-width="1.2" stroke="#f00" stroke-miterlimit="10" fill="none"/><path d="M164.934 126.06l9.48-3.345" stroke-width="1.2" stroke="#000" stroke-miterlimit="10" fill="none"/><path d="M174.414 122.715l9.484-3.34" stroke-width="1.2" stroke="#f00" stroke-miterlimit="10" fill="none"/><path d="M150.445 115.21l.8-10.022" stroke-width="1.2" stroke="#000" stroke-miterlimit="10" fill="none"/><path d="M151.246 105.188l.805-10.024" stroke-width="1.2" stroke="#00f" stroke-miterlimit="10" fill="none"/><path d="M145.887 112.828l.644-8.02" stroke-width="1.2" stroke="#000" stroke-miterlimit="10" fill="none"/><path d="M146.53 104.81l.642-8.02" stroke-width="1.2" stroke="#00f" stroke-miterlimit="10" fill="none"/><path d="M130.883 119.88l9.78-2.337" stroke-width="1.2" stroke="#cc0" stroke-miterlimit="10" fill="none"/><path d="M140.664 117.543l9.78-2.332" stroke-width="1.2" stroke="#000" stroke-miterlimit="10" fill="none"/><path d="M152.05 95.164l-9.284-3.863" stroke-width="1.2" stroke="#00f" stroke-miterlimit="10" fill="none"/><path d="M142.766 91.3l-9.286-3.86" stroke-width="1.2" stroke="#000" stroke-miterlimit="10" fill="none"/><path d="M149.05 89.664h7v11h-7zm0 0" fill="#fff"/><use xlink:href="#b" x="149.051" y="98.327" fill="#00f"/><path d="M133.48 87.44l-6.687-18.967M133.48 87.44l-13.082 15.275M128.578 85.89l-10.465 12.22M126.793 68.473l-19.77-3.692M107.023 64.78l-6.54 7.638" stroke-width="1.2" stroke="#000" stroke-miterlimit="10" fill="none"/><path d="M100.484 72.418l-6.543 7.637" stroke-width="1.2" stroke="#00f" stroke-miterlimit="10" fill="none"/><path d="M93.94 80.055 91.134 79l-.192 1.027m-2.616-2.082l-.383 2.05m-2.424-3.104l-.575 3.075m-2.233-4.13l-.766 4.103M79.9 74.78l-.957 5.126m-1.85-6.18l-1.15 6.15m-1.116-7l-1.3 6.976" stroke="#000" stroke-miterlimit="10" fill="none"/><path d="M93.94 80.055l3.345 9.484" stroke-width="1.2" stroke="#00f" stroke-miterlimit="10" fill="none"/><path d="M97.285 89.54l3.344 9.483" stroke-width="1.2" stroke="#000" stroke-miterlimit="10" fill="none"/><path d="M83.94 72.555h21v15h-21zm0 0" fill="#fff"/><g fill="#00f"><use xlink:href="#b" x="83.941" y="84.656"/><use xlink:href="#c" x="90.919" y="84.656"/></g><use xlink:href="#g" x="97.934" y="79.773" fill="#00f"/><path d="M120.398 102.715l-19.77-3.692M120.398 102.715l5.243 8.582" stroke-width="1.2" stroke="#000" stroke-miterlimit="10" fill="none"/><path d="M125.64 111.297l5.243 8.582" stroke-width="1.2" stroke="#cc0" stroke-miterlimit="10" fill="none"/><path d="M127.883 114.38h6v11h-6zm0 0" fill="#fff"/><use xlink:href="#h" x="127.883" y="123.042" fill="#cc0"/><path d="M180.684 116.105h8v11h-8zm0 0" fill="#fff"/><use xlink:href="#a" x="180.684" y="124.769" fill="#f00"/></g></svg>