<svg xmlns="http://www.w3.org/2000/svg" xmlns:xlink="http://www.w3.org/1999/xlink" width="300pt" height="300pt" viewBox="0 0 300 300"><defs><symbol overflow="visible"><path d="M.453 1.594v-7.938h4.5v7.938zm.5-.5h3.5v-6.938h-3.5zm0 0"/></symbol><symbol overflow="visible" id="a"><path d="M3.547-5.953c-.65 0-1.164.242-1.547.72-.375.48-.563 1.13-.563 1.952 0 .835.188 1.49.563 1.967.383.48.898.72 1.547.72.644 0 1.156-.24 1.53-.72.376-.476.564-1.132.564-1.968 0-.822-.187-1.474-.562-1.954-.375-.477-.887-.72-1.53-.72zm0-.734c.914 0 1.648.312 2.203.937.55.617.828 1.438.828 2.47 0 1.042-.277 1.87-.828 2.483-.555.617-1.29.922-2.203.922-.93 0-1.668-.305-2.22-.922C.774-1.41.5-2.237.5-3.28c0-1.033.273-1.853.828-2.47.55-.625 1.29-.938 2.22-.938zm0 0"/></symbol><symbol overflow="visible" id="b"><path d="M.89-6.563H2.08l2.906 5.485v-5.484h.86V0H4.656L1.75-5.484V0H.89zm0 0"/></symbol><symbol overflow="visible" id="c"><path d="M.89-6.563h.876v2.688H5v-2.688h.89V0H5v-3.125H1.766V0H.89zm0 0"/></symbol><symbol overflow="visible"><path d="M.406 1.422V-5.64h4V1.42zM.844.97h3.11v-6.157H.843zm0 0"/></symbol><symbol overflow="visible" id="d"><path d="M3.688-5.016v2.172h2.17v.672H3.69V0H3.03v-2.172H.845v-.672H3.03v-2.172zm0 0"/></symbol></defs><g><path fill="#fff" d="M0 0h300v300H0z"/><path d="M50.063 124.027l1.023-10.328" stroke-width="1.2" stroke="#f00" stroke-miterlimit="10" fill="none"/><path d="M51.086 113.7l1.027-10.33" stroke-width="1.2" stroke="#000" stroke-miterlimit="10" fill="none"/><path d="M50.063 124.027l8.433 6.047" stroke-width="1.2" stroke="#f00" stroke-miterlimit="10" fill="none"/><path d="M58.496 130.074l8.43 6.05" stroke-width="1.2" stroke="#000" stroke-miterlimit="10" fill="none"/><path d="M46.063 118.527h8v11h-8zm0 0" fill="#fff"/><use xlink:href="#a" x="46.063" y="127.19" fill="#f00"/><path d="M52.113 103.37L35.25 91.274M67.93 138.352l9.457-4.278" stroke-width="1.2" stroke="#000" stroke-miterlimit="10" fill="none"/><path d="M77.387 134.074l9.453-4.277" stroke-width="1.2" stroke="#f00" stroke-miterlimit="10" fill="none"/><path d="M65.918 133.902l9.457-4.277" stroke-width="1.2" stroke="#000" stroke-miterlimit="10" fill="none"/><path d="M75.375 129.625l9.453-4.277" stroke-width="1.2" stroke="#f00" stroke-miterlimit="10" fill="none"/><path d="M66.926 136.125l-1.024 10.328" stroke-width="1.2" stroke="#000" stroke-miterlimit="10" fill="none"/><path d="M65.902 146.453l-1.027 10.324" stroke-width="1.2" stroke="#00f" stroke-miterlimit="10" fill="none"/><path d="M81.836 122.074h8v11h-8zm0 0" fill="#fff"/><use xlink:href="#a" x="81.836" y="130.737" fill="#f00"/><path d="M64.875 156.777l8.434 6.05" stroke-width="1.2" stroke="#00f" stroke-miterlimit="10" fill="none"/><path d="M73.31 162.828l8.428 6.05" stroke-width="1.2" stroke="#000" stroke-miterlimit="10" fill="none"/><path d="M57.875 151.277h14v11h-14zm0 0" fill="#fff"/><g fill="#00f"><use xlink:href="#b" x="57.875" y="159.94"/><use xlink:href="#c" x="64.853" y="159.94"/></g><path d="M81.738 168.88l18.91-8.552M85.64 172.473l15.13-6.84M79.69 189.53l2.048-20.65M100.648 160.328l16.864 12.098M117.512 172.426l9.453-4.274" stroke-width="1.2" stroke="#000" stroke-miterlimit="10" fill="none"/><path d="M126.965 168.152l9.457-4.277" stroke-width="1.2" stroke="#00f" stroke-miterlimit="10" fill="none"/><path d="M117.512 172.426l-2.05 20.652M112.445 174.012l-1.636 16.52" stroke-width="1.2" stroke="#000" stroke-miterlimit="10" fill="none"/><path d="M136.422 163.875l8.43 6.05" stroke-width="1.2" stroke="#00f" stroke-miterlimit="10" fill="none"/><path d="M144.852 169.926l8.43 6.047" stroke-width="1.2" stroke="#000" stroke-miterlimit="10" fill="none"/><path d="M129.422 158.375h14v11h-14zm0 0" fill="#fff"/><g fill="#00f"><use xlink:href="#b" x="129.422" y="167.038"/><use xlink:href="#c" x="136.399" y="167.038"/></g><path d="M153.28 175.973L152.26 186.3" stroke-width="1.2" stroke="#000" stroke-miterlimit="10" fill="none"/><path d="M152.258 186.3l-1.024 10.33" stroke-width="1.2" stroke="#00f" stroke-miterlimit="10" fill="none"/><path d="M157.938 178.523l-.82 8.258" stroke-width="1.2" stroke="#000" stroke-miterlimit="10" fill="none"/><path d="M157.117 186.78l-.82 8.263" stroke-width="1.2" stroke="#00f" stroke-miterlimit="10" fill="none"/><path d="M172.19 167.422l-18.91 8.55" stroke-width="1.2" stroke="#000" stroke-miterlimit="10" fill="none"/><path d="M151.234 196.63l8.43 6.046" stroke-width="1.2" stroke="#00f" stroke-miterlimit="10" fill="none"/><path d="M159.664 202.676l8.434 6.05" stroke-width="1.2" stroke="#000" stroke-miterlimit="10" fill="none"/><path d="M141.234 189.13h21v15h-21zm0 0" fill="#fff"/><g fill="#00f"><use xlink:href="#b" x="141.234" y="201.23"/><use xlink:href="#c" x="148.212" y="201.23"/></g><use xlink:href="#d" x="155.227" y="196.348" fill="#00f"/><path d="M168.098 208.727l9.453-4.274" stroke-width="1.2" stroke="#000" stroke-miterlimit="10" fill="none"/><path d="M177.55 204.453l9.454-4.277" stroke-width="1.2" stroke="#00f" stroke-miterlimit="10" fill="none"/><path d="M167.973 203.422l7.566-3.418" stroke-width="1.2" stroke="#000" stroke-miterlimit="10" fill="none"/><path d="M175.54 200.004l7.562-3.422M187.004 200.176l2.05-20.653" stroke-width="1.2" stroke="#00f" stroke-miterlimit="10" fill="none"/><path d="M184.004 194.676h7v11h-7zm0 0" fill="#fff"/><use xlink:href="#b" x="184.004" y="203.339" fill="#00f"/><path d="M189.055 179.523l-8.43-6.05" stroke-width="1.2" stroke="#00f" stroke-miterlimit="10" fill="none"/><path d="M180.625 173.473l-8.434-6.05M205.773 167.227l-8.36 6.148" stroke-width="1.2" stroke="#000" stroke-miterlimit="10" fill="none"/><path d="M197.414 173.375l-8.36 6.148" stroke-width="1.2" stroke="#00f" stroke-miterlimit="10" fill="none"/><path d="M186.055 174.023h7v11h-7zm0 0" fill="#fff"/><use xlink:href="#b" x="186.055" y="182.687" fill="#00f"/><path d="M172.19 167.422l6.298-19.777M177.477 166.926l5.035-15.82M178.488 147.645l-12.297-16.72M178.488 147.645l20.754-.122M199.242 147.523l6.53 19.704M195.262 151.03l5.222 15.763M199.242 147.523l12.102-16.86M213.57 129.656l-4.277-9.453" stroke-width="1.2" stroke="#000" stroke-miterlimit="10" fill="none"/><path d="M209.293 120.203l-4.277-9.457" stroke-width="1.2" stroke="#f00" stroke-miterlimit="10" fill="none"/><path d="M209.12 131.668l-4.276-9.453" stroke-width="1.2" stroke="#000" stroke-miterlimit="10" fill="none"/><path d="M204.844 122.215l-4.278-9.457" stroke-width="1.2" stroke="#f00" stroke-miterlimit="10" fill="none"/><path d="M211.344 130.664l10.328 1.024" stroke-width="1.2" stroke="#000" stroke-miterlimit="10" fill="none"/><path d="M221.672 131.688l10.324 1.023" stroke-width="1.2" stroke="#00f" stroke-miterlimit="10" fill="none"/><path d="M194.793 106.254h8v11h-8zm0 0" fill="#fff"/><use xlink:href="#a" x="194.793" y="114.917" fill="#f00"/><path d="M231.996 132.71l6.05-8.43" stroke-width="1.2" stroke="#00f" stroke-miterlimit="10" fill="none"/><path d="M238.047 124.28l6.05-8.432" stroke-width="1.2" stroke="#000" stroke-miterlimit="10" fill="none"/><path d="M224.996 127.21h14v11h-14zm0 0" fill="#fff"/><g fill="#00f"><use xlink:href="#b" x="224.996" y="135.874"/><use xlink:href="#c" x="231.974" y="135.874"/></g><path d="M244.098 115.848l20.652 2.05M115.46 193.078l-18.91 8.555M115.46 193.078l16.864 12.102M96.55 201.633L79.69 189.53M97.715 196.453l-13.492-9.68" stroke-width="1.2" stroke="#000" stroke-miterlimit="10" fill="none"/></g></svg>