<svg xmlns="http://www.w3.org/2000/svg" xmlns:xlink="http://www.w3.org/1999/xlink" width="300pt" height="300pt" viewBox="0 0 300 300"><defs><symbol overflow="visible"><path d="M.453 1.594v-7.938h4.5v7.938zm.5-.5h3.5v-6.938h-3.5zm0 0"/></symbol><symbol overflow="visible" id="a"><path d="M3.547-5.953c-.65 0-1.164.242-1.547.72-.375.48-.563 1.13-.563 1.952 0 .835.188 1.49.563 1.967.383.48.898.72 1.547.72.644 0 1.156-.24 1.53-.72.376-.476.564-1.132.564-1.968 0-.822-.187-1.474-.562-1.954-.375-.477-.887-.72-1.53-.72zm0-.734c.914 0 1.648.312 2.203.937.55.617.828 1.438.828 2.47 0 1.042-.277 1.87-.828 2.483-.555.617-1.29.922-2.203.922-.93 0-1.668-.305-2.22-.922C.774-1.41.5-2.237.5-3.28c0-1.033.273-1.853.828-2.47.55-.625 1.29-.938 2.22-.938zm0 0"/></symbol><symbol overflow="visible" id="b"><path d="M.89-6.563H2.08l2.906 5.485v-5.484h.86V0H4.656L1.75-5.484V0H.89zm0 0"/></symbol><symbol overflow="visible" id="c"><path d="M.89-6.563h.876v2.688H5v-2.688h.89V0H5v-3.125H1.766V0H.89zm0 0"/></symbol><symbol overflow="visible"><path d="M.406 1.422V-5.64h4V1.42zM.844.97h3.11v-6.157H.843zm0 0"/></symbol><symbol overflow="visible" id="d"><path d="M3.688-5.016v2.172h2.17v.672H3.69V0H3.03v-2.172H.845v-.672H3.03v-2.172zm0 0"/></symbol></defs><g><path fill="#fff" d="M0 0h300v300H0z"/><path d="M48.156 120.668l1.664-10.34" stroke-width="1.2" stroke="#f00" stroke-miterlimit="10" fill="none"/><path d="M49.82 110.328l1.668-10.336" stroke-width="1.2" stroke="#000" stroke-miterlimit="10" fill="none"/><path d="M48.156 120.668l8.117 6.61" stroke-width="1.2" stroke="#f00" stroke-miterlimit="10" fill="none"/><path d="M56.273 127.277l8.122 6.614" stroke-width="1.2" stroke="#000" stroke-miterlimit="10" fill="none"/><path d="M44.156 115.168h8v11h-8zm0 0" fill="#fff"/><use xlink:href="#a" x="44.156" y="123.831" fill="#f00"/><path d="M51.488 99.992L35.25 86.77M65.27 136.19l9.785-3.72" stroke-width="1.2" stroke="#000" stroke-miterlimit="10" fill="none"/><path d="M75.055 132.47l9.785-3.728" stroke-width="1.2" stroke="#f00" stroke-miterlimit="10" fill="none"/><path d="M63.516 131.586l9.785-3.723" stroke-width="1.2" stroke="#000" stroke-miterlimit="10" fill="none"/><path d="M73.3 127.863l9.786-3.726" stroke-width="1.2" stroke="#f00" stroke-miterlimit="10" fill="none"/><path d="M64.395 133.89l-1.668 10.337" stroke-width="1.2" stroke="#000" stroke-miterlimit="10" fill="none"/><path d="M62.727 144.227l-1.668 10.335" stroke-width="1.2" stroke="#00f" stroke-miterlimit="10" fill="none"/><path d="M79.965 120.938h8v11h-8zm0 0" fill="#fff"/><use xlink:href="#a" x="79.965" y="129.601" fill="#f00"/><path d="M61.06 154.563l8.12 6.613" stroke-width="1.2" stroke="#00f" stroke-miterlimit="10" fill="none"/><path d="M69.18 161.176l8.117 6.613" stroke-width="1.2" stroke="#000" stroke-miterlimit="10" fill="none"/><path d="M54.06 149.063h14v11h-14zm0 0" fill="#fff"/><g fill="#00f"><use xlink:href="#b" x="54.059" y="157.726"/><use xlink:href="#c" x="61.036" y="157.726"/></g><path d="M77.297 167.79l19.57-7.454M81.008 171.648l15.656-5.96M73.965 188.46l3.332-20.67M96.867 160.336l16.238 13.226M113.105 173.563l9.786-3.727" stroke-width="1.2" stroke="#000" stroke-miterlimit="10" fill="none"/><path d="M122.89 169.836l9.786-3.727" stroke-width="1.2" stroke="#00f" stroke-miterlimit="10" fill="none"/><path d="M113.105 173.563l-3.332 20.67M107.91 174.844l-2.668 16.54" stroke-width="1.2" stroke="#000" stroke-miterlimit="10" fill="none"/><path d="M132.676 166.11l8.12 6.613" stroke-width="1.2" stroke="#00f" stroke-miterlimit="10" fill="none"/><path d="M140.797 172.723l8.117 6.61" stroke-width="1.2" stroke="#000" stroke-miterlimit="10" fill="none"/><path d="M125.676 160.61h14v11h-14zm0 0" fill="#fff"/><g fill="#00f"><use xlink:href="#b" x="125.676" y="169.272"/><use xlink:href="#c" x="132.653" y="169.272"/></g><path d="M148.914 179.332l-1.664 10.34" stroke-width="1.2" stroke="#000" stroke-miterlimit="10" fill="none"/><path d="M147.25 189.672l-1.668 10.336" stroke-width="1.2" stroke="#00f" stroke-miterlimit="10" fill="none"/><path d="M153.445 182.184l-1.332 8.27" stroke-width="1.2" stroke="#000" stroke-miterlimit="10" fill="none"/><path d="M152.113 190.453l-1.332 8.27" stroke-width="1.2" stroke="#00f" stroke-miterlimit="10" fill="none"/><path d="M168.488 171.883l-19.574 7.45" stroke-width="1.2" stroke="#000" stroke-miterlimit="10" fill="none"/><path d="M145.582 200.008l8.12 6.613" stroke-width="1.2" stroke="#00f" stroke-miterlimit="10" fill="none"/><path d="M153.703 206.62l8.117 6.61" stroke-width="1.2" stroke="#000" stroke-miterlimit="10" fill="none"/><path d="M135.582 192.508h21v15h-21zm0 0" fill="#fff"/><g fill="#00f"><use xlink:href="#b" x="135.582" y="204.609"/><use xlink:href="#c" x="142.56" y="204.609"/></g><use xlink:href="#d" x="149.574" y="199.727" fill="#00f"/><path d="M161.82 213.23l9.785-3.722" stroke-width="1.2" stroke="#000" stroke-miterlimit="10" fill="none"/><path d="M171.605 209.508l9.786-3.727" stroke-width="1.2" stroke="#00f" stroke-miterlimit="10" fill="none"/><path d="M162.023 207.883l7.83-2.98" stroke-width="1.2" stroke="#000" stroke-miterlimit="10" fill="none"/><path d="M169.852 204.902l7.828-2.98M181.39 205.78l3.333-20.675" stroke-width="1.2" stroke="#00f" stroke-miterlimit="10" fill="none"/><path d="M178.39 200.28h7v11h-7zm0 0" fill="#fff"/><use xlink:href="#b" x="178.391" y="208.944" fill="#00f"/><path d="M184.723 185.105l-8.118-6.61" stroke-width="1.2" stroke="#00f" stroke-miterlimit="10" fill="none"/><path d="M176.605 178.496l-8.117-6.613M202.32 173.75l-8.797 5.68" stroke-width="1.2" stroke="#000" stroke-miterlimit="10" fill="none"/><path d="M193.523 179.43l-8.8 5.675" stroke-width="1.2" stroke="#00f" stroke-miterlimit="10" fill="none"/><path d="M181.723 179.605h7v11h-7zm0 0" fill="#fff"/><use xlink:href="#b" x="181.723" y="188.269" fill="#00f"/><path d="M168.488 171.883l7.56-19.53M173.836 171.707l6.047-15.62M176.047 152.352l-11.36-17.594M176.047 152.352l20.906 1.156M196.953 153.508l5.367 20.242M192.727 156.793l4.293 16.195M196.953 153.508l13.227-16.238M212.48 136.39l-3.726-9.785" stroke-width="1.2" stroke="#000" stroke-miterlimit="10" fill="none"/><path d="M208.754 126.605l-3.723-9.785" stroke-width="1.2" stroke="#f00" stroke-miterlimit="10" fill="none"/><path d="M207.875 138.145l-3.727-9.786" stroke-width="1.2" stroke="#000" stroke-miterlimit="10" fill="none"/><path d="M204.148 128.36l-3.722-9.786" stroke-width="1.2" stroke="#f00" stroke-miterlimit="10" fill="none"/><path d="M210.18 137.27l10.336 1.667" stroke-width="1.2" stroke="#000" stroke-miterlimit="10" fill="none"/><path d="M220.516 138.938l10.336 1.664" stroke-width="1.2" stroke="#00f" stroke-miterlimit="10" fill="none"/><path d="M194.727 112.2h8v11h-8zm0 0" fill="#fff"/><use xlink:href="#a" x="194.727" y="120.862" fill="#f00"/><path d="M230.852 140.602l6.613-8.118" stroke-width="1.2" stroke="#00f" stroke-miterlimit="10" fill="none"/><path d="M237.465 132.484l6.61-8.12" stroke-width="1.2" stroke="#000" stroke-miterlimit="10" fill="none"/><path d="M223.852 135.102h14v11h-14zm0 0" fill="#fff"/><g fill="#00f"><use xlink:href="#b" x="223.852" y="143.765"/><use xlink:href="#c" x="230.829" y="143.765"/></g><path d="M244.074 124.363l20.676 3.332M244.074 124.363l-7.45-19.57M109.773 194.234l-19.57 7.453M109.773 194.234l16.24 13.223M90.203 201.688L73.965 188.46M91.69 196.543L78.7 185.965" stroke-width="1.2" stroke="#000" stroke-miterlimit="10" fill="none"/></g></svg>