<svg xmlns="http://www.w3.org/2000/svg" xmlns:xlink="http://www.w3.org/1999/xlink" width="300pt" height="300pt" viewBox="0 0 300 300"><defs><symbol overflow="visible"><path d="M.797 2.828v-14.11h8V2.83zm.906-.89h6.203v-12.33H1.703zm0 0"/></symbol><symbol overflow="visible" id="a"><path d="M1.578-11.672h2.125l5.172 9.766v-9.766h1.53V0H8.282L3.11-9.766V0H1.577zm0 0"/></symbol><symbol overflow="visible" id="b"><path d="M6.313-10.594c-1.15 0-2.06.43-2.735 1.28-.68.857-1.015 2.017-1.015 3.486 0 1.47.335 2.633 1.015 3.484.676.856 1.586 1.28 2.735 1.28 1.144.002 2.05-.424 2.718-1.28.665-.85 1-2.015 1-3.484 0-1.47-.335-2.63-1-3.484-.667-.852-1.573-1.282-2.717-1.282zm0-1.28c1.632 0 2.94.546 3.92 1.64.978 1.093 1.47 2.562 1.47 4.406 0 1.844-.492 3.32-1.47 4.422-.98 1.093-2.288 1.64-3.92 1.64-1.65 0-2.96-.546-3.938-1.64-.98-1.102-1.47-2.578-1.47-4.422 0-1.844.49-3.313 1.47-4.406.977-1.094 2.29-1.64 3.938-1.64zm0 0"/></symbol></defs><g><path fill="#fff" d="M0 0h300v300H0z"/><path d="M148.016 176.94l14.808-35.268M162.824 141.672l14.813-35.266M162.824 141.672l35.27 14.812M162.824 141.672l-35.265-14.81M198.094 156.484l4.804 37.946M207.5 159.145l3.848 30.36M228.55 133.348l-30.456 23.136M202.898 194.43l17.633 7.406" stroke-width="1.2" stroke="#000" stroke-miterlimit="10" fill="none"/><path d="M220.53 201.836l17.638 7.402M238.168 209.238l15.227-11.566" stroke-width="1.2" stroke="#00f" stroke-miterlimit="10" fill="none"/><path d="M253.395 197.672l15.23-11.57" stroke-width="1.2" stroke="#000" stroke-miterlimit="10" fill="none"/><path d="M235.77 199.758l12.183-9.254" stroke-width="1.2" stroke="#00f" stroke-miterlimit="10" fill="none"/><path d="M247.953 190.504l12.184-9.254" stroke-width="1.2" stroke="#000" stroke-miterlimit="10" fill="none"/><path d="M232.168 199.738h12v19h-12zm0 0" fill="#fff"/><use xlink:href="#a" x="232.168" y="214.59" fill="#00f"/><path d="M268.625 186.102l-4.81-37.946M263.816 148.156l-35.265-14.808M256.805 154.973l-28.21-11.848M132.023 126.297l-2.402-18.973" stroke-width="1.2" stroke="#000" stroke-miterlimit="10" fill="none"/><path d="M129.62 107.324l-2.405-18.972" stroke-width="1.2" stroke="#f00" stroke-miterlimit="10" fill="none"/><path d="M123.094 127.43l-2.403-18.973" stroke-width="1.2" stroke="#000" stroke-miterlimit="10" fill="none"/><path d="M120.69 108.457l-2.405-18.977" stroke-width="1.2" stroke="#f00" stroke-miterlimit="10" fill="none"/><path d="M127.56 126.863L97.1 150" stroke-width="1.2" stroke="#000" stroke-miterlimit="10" fill="none"/><path d="M116.75 79.418h13v19h-13zm0 0" fill="#fff"/><use xlink:href="#b" x="116.75" y="94.27" fill="#f00"/><path d="M97.102 150l-35.27-14.81M90.09 156.816L61.875 144.97M101.906 187.945L97.102 150M61.832 135.19L46.605 146.76" stroke-width="1.2" stroke="#000" stroke-miterlimit="10" fill="none"/><path d="M46.605 146.758l-15.23 11.57M31.375 158.328l2.402 18.973" stroke-width="1.2" stroke="#00f" stroke-miterlimit="10" fill="none"/><path d="M33.777 177.3l2.407 18.973" stroke-width="1.2" stroke="#000" stroke-miterlimit="10" fill="none"/><path d="M40.785 160.992l1.922 15.176" stroke-width="1.2" stroke="#00f" stroke-miterlimit="10" fill="none"/><path d="M42.707 176.168l1.922 15.18" stroke-width="1.2" stroke="#000" stroke-miterlimit="10" fill="none"/><path d="M25.375 148.828h12v19h-12zm0 0" fill="#fff"/><use xlink:href="#a" x="25.375" y="163.68" fill="#00f"/><path d="M36.184 196.273l35.265 14.81M71.45 211.082l30.456-23.137M69.05 201.602l24.368-18.508" stroke-width="1.2" stroke="#000" stroke-miterlimit="10" fill="none"/></g></svg>