<svg xmlns="http://www.w3.org/2000/svg" xmlns:xlink="http://www.w3.org/1999/xlink" width="300pt" height="300pt" viewBox="0 0 300 300"><defs><symbol overflow="visible"><path d="M.547 1.938V-7.75h5.5v9.688zm.625-.61h4.266v-8.47H1.171zm0 0"/></symbol><symbol overflow="visible" id="a"><path d="M5.89-7.75v1.047c-.417-.195-.808-.344-1.17-.438-.368-.094-.72-.14-1.064-.14-.586 0-1.04.116-1.36.343-.323.23-.483.554-.483.968 0 .357.1.626.312.814.22.18.625.324 1.22.437L4-4.593c.813.157 1.41.434 1.797.828.383.387.578.903.578 1.547 0 .783-.262 1.376-.78 1.783-.525.398-1.29.593-2.298.593-.375 0-.78-.047-1.22-.14C1.648-.066 1.208-.19.75-.36v-1.11c.445.25.88.44 1.297.564.426.125.844.187 1.25.187.625 0 1.1-.116 1.437-.358.332-.25.5-.598.5-1.047 0-.395-.12-.703-.36-.922-.24-.226-.636-.398-1.186-.515l-.657-.126c-.81-.156-1.4-.406-1.764-.75C.898-4.78.72-5.258.72-5.875c0-.707.25-1.266.75-1.672.5-.414 1.19-.625 2.077-.625.375 0 .754.04 1.14.11.395.074.797.18 1.204.312zm0 0"/></symbol><symbol overflow="visible" id="b"><path d="M4.328-7.28c-.78 0-1.406.296-1.875.89-.46.585-.687 1.382-.687 2.39 0 1.012.226 1.813.687 2.406.47.586 1.094.875 1.875.875.79 0 1.414-.288 1.875-.874.457-.593.688-1.394.688-2.406 0-1.008-.23-1.805-.687-2.39-.46-.594-1.086-.89-1.875-.89zm0-.892c1.125 0 2.024.383 2.703 1.14C7.708-6.28 8.048-5.27 8.048-4c0 1.262-.34 2.273-1.016 3.03C6.353-.22 5.454.157 4.33.157S2.3-.22 1.625-.97c-.668-.75-1-1.757-1-3.03 0-1.27.332-2.28 1-3.03.676-.76 1.578-1.142 2.703-1.142zm0 0"/></symbol><symbol overflow="visible" id="c"><path d="M1.078-8.016h1.47l3.546 6.704v-6.704h1.062V0H5.688L2.124-6.703V0H1.078zm0 0"/></symbol><symbol overflow="visible" id="d"><path d="M1.078-8.016h1.094v3.282H6.11v-3.282h1.077V0H6.11v-3.813H2.17V0H1.078zm0 0"/></symbol><symbol overflow="visible" id="e"><path d="M7.078-7.406v1.156c-.367-.344-.758-.598-1.172-.766-.406-.164-.843-.25-1.312-.25-.918 0-1.62.282-2.11.844-.48.555-.718 1.36-.718 2.422 0 1.055.238 1.86.718 2.422.49.562 1.192.844 2.11.844.468 0 .906-.082 1.312-.25.414-.164.805-.422 1.172-.766v1.125c-.375.262-.777.46-1.203.594-.418.124-.867.186-1.344.186-1.21 0-2.163-.367-2.858-1.11C.972-1.703.625-2.718.625-4c0-1.29.348-2.305 1.047-3.047.695-.75 1.648-1.125 2.86-1.125.476 0 .93.07 1.36.203.424.126.82.314 1.186.564zm0 0"/></symbol><symbol overflow="visible" id="f"><path d="M1.03-8.36h1V0h-1zm0 0"/></symbol></defs><g><path fill="#fff" d="M0 0h300v300H0z"/><path d="M264.75 172.008l-23.535-11.336M241.215 160.672l-21.586 14.715M235.594 157.066l-17.266 11.774M239.262 134.625l1.953 26.047M219.63 175.387l-23.536-11.332M196.094 164.055l-1.95-26.05M202.03 160.988l-1.56-20.84M194.145 138.004l21.582-14.715M194.145 138.004l-11.77-5.668" stroke-width="1.2" stroke="#000" stroke-miterlimit="10" fill="none"/><path d="M182.375 132.336l-11.766-5.664" stroke-width="1.2" stroke="#cc0" stroke-miterlimit="10" fill="none"/><path d="M215.727 123.29l23.535 11.335M215.414 129.96l18.828 9.067" stroke-width="1.2" stroke="#000" stroke-miterlimit="10" fill="none"/><path d="M173.375 128.004l5.668-11.77" stroke-width="1.2" stroke="#cc0" stroke-miterlimit="10" fill="none"/><path d="M179.043 116.234l5.668-11.765" stroke-width="1.2" stroke="#f00" stroke-miterlimit="10" fill="none"/><path d="M167.84 125.336l5.668-11.766" stroke-width="1.2" stroke="#cc0" stroke-miterlimit="10" fill="none"/><path d="M173.508 113.57l5.664-11.77" stroke-width="1.2" stroke="#f00" stroke-miterlimit="10" fill="none"/><path d="M167.84 125.336l-5.668 11.77" stroke-width="1.2" stroke="#cc0" stroke-miterlimit="10" fill="none"/><path d="M162.172 137.105l-5.668 11.766" stroke-width="1.2" stroke="#f00" stroke-miterlimit="10" fill="none"/><path d="M173.375 128.004l-5.664 11.766" stroke-width="1.2" stroke="#cc0" stroke-miterlimit="10" fill="none"/><path d="M167.71 139.77l-5.667 11.77" stroke-width="1.2" stroke="#f00" stroke-miterlimit="10" fill="none"/><path d="M170.61 126.672l-11.77-5.668" stroke-width="1.2" stroke="#cc0" stroke-miterlimit="10" fill="none"/><path d="M158.84 121.004l-11.77-5.668" stroke-width="1.2" stroke="#00f" stroke-miterlimit="10" fill="none"/><path d="M167.61 120.172h7v13h-7zm0 0" fill="#fff"/><use xlink:href="#a" x="167.609" y="130.073" fill="#cc0"/><path d="M177.94 96.633h9v13h-9zm0 0" fill="#fff"/><use xlink:href="#b" x="177.941" y="106.534" fill="#f00"/><path d="M150.273 143.707h9v13h-9zm0 0" fill="#fff"/><use xlink:href="#b" x="150.273" y="153.608" fill="#f00"/><path d="M125.488 130.05m2.735-1.234l-.586-.86m3.32-.37l-1.176-1.727m3.91.492l-1.76-2.586m4.496 1.35l-2.348-3.444m5.082 2.21l-2.933-4.308m5.67 3.074l-3.526-5.168m6.263 3.938l-4.113-6.03m6.847 4.796l-4.7-6.89m7 5.85l-5.19-7.617" stroke="#000" stroke-miterlimit="10" fill="none"/><path d="M139.07 108.836h17v13h-17zm0 0" fill="#fff"/><g fill="#00f"><use xlink:href="#c" x="139.07" y="118.737"/><use xlink:href="#d" x="147.054" y="118.737"/></g><path d="M125.488 130.05l-23.535-11.335M125.488 130.05l1.953 26.052M101.953 118.715l-21.582 14.72M80.37 133.434l-23.538-11.336M75.348 137.836L56.52 128.77M82.32 159.48l-1.95-26.046M56.832 122.098L35.25 136.813M35.25 136.813l1.953 26.05M41.574 138.957l1.563 20.84M37.203 162.863l23.535 11.332M60.738 174.195L82.32 159.48M59.434 167.648L76.7 155.875M126.105 158.87l11.77 5.665" stroke-width="1.2" stroke="#000" stroke-miterlimit="10" fill="none"/><path d="M137.875 164.535l11.766 5.668" stroke-width="1.2" stroke="#f00" stroke-miterlimit="10" fill="none"/><path d="M128.773 153.332l11.77 5.668" stroke-width="1.2" stroke="#000" stroke-miterlimit="10" fill="none"/><path d="M140.543 159l11.766 5.668" stroke-width="1.2" stroke="#f00" stroke-miterlimit="10" fill="none"/><path d="M127.44 156.102l-21.585 14.714" stroke-width="1.2" stroke="#000" stroke-miterlimit="10" fill="none"/><path d="M146.977 160.934h9v13h-9zm0 0" fill="#fff"/><use xlink:href="#b" x="146.977" y="170.835" fill="#f00"/><path d="M105.855 170.816l.977 13.024" stroke-width="1.2" stroke="#000" stroke-miterlimit="10" fill="none"/><path d="M106.832 183.84l.977 13.027" stroke-width="1.2" stroke="#0c0" stroke-miterlimit="10" fill="none"/><path d="M102.81 190.367h11v13h-11zm0 0" fill="#fff"/><g fill="#0c0"><use xlink:href="#e" x="102.809" y="200.269"/><use xlink:href="#f" x="110.26" y="200.269"/></g></g></svg>