<svg xmlns="http://www.w3.org/2000/svg" xmlns:xlink="http://www.w3.org/1999/xlink" width="300pt" height="300pt" viewBox="0 0 300 300"><defs><symbol overflow="visible"><path d="M.594 2.125V-8.47h6V2.126zm.672-.672h4.671V-7.78h-4.67zm0 0"/></symbol><symbol overflow="visible" id="a"><path d="M1.172-8.75h1.594l3.89 7.313V-8.75h1.14V0H6.204L2.328-7.313V0H1.172zm0 0"/></symbol><symbol overflow="visible" id="b"><path d="M4.734-7.953c-.867 0-1.554.324-2.062.97-.5.635-.75 1.51-.75 2.624 0 1.094.25 1.965.75 2.61.508.637 1.195.953 2.062.953.852 0 1.532-.316 2.032-.953.507-.645.765-1.516.765-2.61 0-1.113-.257-1.988-.764-2.624-.5-.645-1.18-.97-2.032-.97zm0-.953c1.22 0 2.192.414 2.922 1.234.74.824 1.11 1.93 1.11 3.313 0 1.376-.37 2.477-1.11 3.298C6.926-.24 5.953.17 4.734.17c-1.23 0-2.214-.41-2.953-1.234C1.04-1.882.673-2.984.673-4.36c0-1.382.367-2.488 1.11-3.312.738-.82 1.722-1.234 2.952-1.234zm0 0"/></symbol><symbol overflow="visible" id="c"><path d="M1.172-8.75H2.36v3.594h4.296V-8.75h1.188V0H6.656v-4.172H2.36V0H1.17zm0 0"/></symbol></defs><g><path fill="#fff" d="M0 0h300v300H0z"/><path d="M57.578 97.234l-.203-29.773-10.18 1.868zm0 0"/><path d="M57.578 97.234l27.625 9.836" stroke-width="1.2" stroke="#000" stroke-miterlimit="10" fill="none"/><path d="M35.25 116.242l11.164-9.504" stroke-width="1.2" stroke="#f00" stroke-miterlimit="10" fill="none"/><path d="M46.414 106.738l11.164-9.504" stroke-width="1.2" stroke="#000" stroke-miterlimit="10" fill="none"/><path d="M85.203 107.07l25.684-15.066-6.707-7.88zm0 0"/><path d="M90.5 135.91l-5.297-28.84M107.535 88.063l13.813 4.917" stroke-width="1.2" stroke="#000" stroke-miterlimit="10" fill="none"/><path d="M121.348 92.98l13.812 4.918M135.16 97.898l11.164-9.503" stroke-width="1.2" stroke="#00f" stroke-miterlimit="10" fill="none"/><path d="M146.324 88.395l11.164-9.504M140.453 126.738l-2.648-14.418" stroke-width="1.2" stroke="#000" stroke-miterlimit="10" fill="none"/><path d="M137.805 112.32l-2.645-14.422" stroke-width="1.2" stroke="#00f" stroke-miterlimit="10" fill="none"/><path d="M131.16 90.898h9v14h-9zm0 0" fill="#fff"/><use xlink:href="#a" x="131.16" y="102.037" fill="#00f"/><path d="M157.488 78.89l27.625 9.837M185.113 88.727l5.293 28.843M190.406 117.57l-22.328 19.004M192.648 124.723l-17.863 15.207M215.383 132.934l-24.977-15.364" stroke-width="1.2" stroke="#000" stroke-miterlimit="10" fill="none"/><path d="M140.453 126.738m2.61 1.485l.347-.985m2.262 2.465l.7-1.965m1.905 3.45l1.05-2.95m1.56 4.43l1.398-3.93m1.21 5.41l1.747-4.91m.863 6.395l2.098-5.895m.508 7.375l2.45-6.875m.16 8.36l2.797-7.86m-.187 9.34l3.148-8.84m-.734 10.21l3.47-9.75" stroke="#000" stroke-miterlimit="10" fill="none"/><path d="M168.078 136.574l5.59 13.555" stroke-width="1.2" stroke="#000" stroke-miterlimit="10" fill="none"/><path d="M173.668 150.13l5.586 13.554" stroke-width="1.2" stroke="#00f" stroke-miterlimit="10" fill="none"/><path d="M140.453 126.738l-22.328 19.008" stroke-width="1.2" stroke="#000" stroke-miterlimit="10" fill="none"/><path d="M90.5 135.91m2.61 1.485l.347-.985m2.258 2.465l.7-1.965m1.91 3.445l1.05-2.945m1.56 4.43l1.397-3.93m1.21 5.41l1.747-4.91m.858 6.395l2.098-5.895m.512 7.375l2.45-6.875m.16 8.356l2.796-7.856m-.187 9.34l3.144-8.84m-.733 10.21l3.472-9.75" stroke="#000" stroke-miterlimit="10" fill="none"/><path d="M90.5 135.91l-22.332 19.008M68.168 154.918l-27.62-9.836M67.723 147.434l-22.102-7.868M68.168 154.918l5.297 28.84M40.547 145.082l-2.65-14.422" stroke-width="1.2" stroke="#000" stroke-miterlimit="10" fill="none"/><path d="M37.898 130.66l-2.648-14.418" stroke-width="1.2" stroke="#f00" stroke-miterlimit="10" fill="none"/><path d="M30.25 109.242h10v14h-10zm0 0" fill="#fff"/><use xlink:href="#b" x="30.25" y="120.381" fill="#f00"/><path d="M72.31 187.008l13.81 4.918" stroke-width="1.2" stroke="#000" stroke-miterlimit="10" fill="none"/><path d="M86.12 191.926l13.814 4.918" stroke-width="1.2" stroke="#f00" stroke-miterlimit="10" fill="none"/><path d="M74.62 180.508l13.814 4.918" stroke-width="1.2" stroke="#000" stroke-miterlimit="10" fill="none"/><path d="M88.434 185.426l13.812 4.918" stroke-width="1.2" stroke="#f00" stroke-miterlimit="10" fill="none"/><path d="M73.465 183.758L62.3 193.262" stroke-width="1.2" stroke="#000" stroke-miterlimit="10" fill="none"/><path d="M62.3 193.262l-11.163 9.504" stroke-width="1.2" stroke="#f00" stroke-miterlimit="10" fill="none"/><path d="M96.09 186.594h10v14h-10zm0 0" fill="#fff"/><use xlink:href="#b" x="96.09" y="197.732" fill="#f00"/><path d="M51.137 202.766l2.644 14.418" stroke-width="1.2" stroke="#f00" stroke-miterlimit="10" fill="none"/><path d="M53.78 217.184l2.65 14.42" stroke-width="1.2" stroke="#000" stroke-miterlimit="10" fill="none"/><path d="M46.137 195.766h10v14h-10zm0 0" fill="#fff"/><use xlink:href="#b" x="46.137" y="206.904" fill="#f00"/><path d="M179.254 163.684l14.617-1.125" stroke-width="1.2" stroke="#00f" stroke-miterlimit="10" fill="none"/><path d="M193.87 162.56l14.622-1.126" stroke-width="1.2" stroke="#000" stroke-miterlimit="10" fill="none"/><path d="M170.254 156.684h18v14h-18zm0 0" fill="#fff"/><g fill="#00f"><use xlink:href="#a" x="170.254" y="167.822"/><use xlink:href="#c" x="179.23" y="167.822"/></g><path d="M208.492 161.434l21.235 20.218M215.37 158.457l16.99 16.18M215.383 132.934l-6.89 28.5M229.727 181.652l28.128-8.28M257.855 173.37l6.895-28.5M251.84 168.902l5.515-22.8M264.75 144.87l-21.234-20.218M243.516 124.652l-28.133 8.282M242.648 132.098l-22.503 6.625" stroke-width="1.2" stroke="#000" stroke-miterlimit="10" fill="none"/></g></svg>