<svg xmlns="http://www.w3.org/2000/svg" xmlns:xlink="http://www.w3.org/1999/xlink" width="300pt" height="300pt" viewBox="0 0 300 300"><defs><symbol overflow="visible"><path d="M.453 1.594v-7.938h4.5v7.938zm.5-.5h3.5v-6.938h-3.5zm0 0"/></symbol><symbol overflow="visible" id="a"><path d="M4.813-6.344v.86c-.336-.157-.653-.27-.954-.344-.294-.082-.58-.125-.86-.125-.492 0-.867.094-1.125.28-.262.19-.39.454-.39.798 0 .293.085.512.265.656.176.15.504.267.984.36l.547.11c.658.125 1.142.352 1.454.672.32.312.485.734.485 1.265 0 .637-.216 1.122-.642 1.454-.43.325-1.055.485-1.875.485-.312 0-.648-.04-1-.11C1.36-.046 1-.147.625-.296v-.906c.352.2.703.35 1.047.453.35.105.695.156 1.03.156.5 0 .884-.097 1.157-.297.28-.196.42-.485.42-.86 0-.32-.1-.57-.296-.75-.2-.176-.523-.313-.968-.406l-.547-.11C1.81-3.148 1.33-3.36 1.03-3.64.74-3.923.595-4.313.595-4.813c0-.57.203-1.024.61-1.36.405-.344.968-.516 1.687-.516.313 0 .626.032.938.094.32.055.65.137.985.25zm0 0"/></symbol><symbol overflow="visible" id="b"><path d="M3.547-5.953c-.65 0-1.164.242-1.547.72-.375.48-.563 1.13-.563 1.952 0 .835.188 1.49.563 1.967.383.48.898.72 1.547.72.644 0 1.156-.24 1.53-.72.376-.476.564-1.132.564-1.968 0-.822-.187-1.474-.562-1.954-.375-.477-.887-.72-1.53-.72zm0-.734c.914 0 1.648.312 2.203.937.55.617.828 1.438.828 2.47 0 1.042-.277 1.87-.828 2.483-.555.617-1.29.922-2.203.922-.93 0-1.668-.305-2.22-.922C.774-1.41.5-2.237.5-3.28c0-1.033.273-1.853.828-2.47.55-.625 1.29-.938 2.22-.938zm0 0"/></symbol><symbol overflow="visible" id="c"><path d="M.89-6.563H2.08l2.906 5.485v-5.484h.86V0H4.656L1.75-5.484V0H.89zm0 0"/></symbol><symbol overflow="visible" id="d"><path d="M.89-6.563h.876v2.688H5v-2.688h.89V0H5v-3.125H1.766V0H.89zm0 0"/></symbol><symbol overflow="visible"><path d="M.406 1.422V-5.64h4V1.42zM.844.97h3.11v-6.157H.843zm0 0"/></symbol><symbol overflow="visible" id="e"><path d="M1.53-.672h2.767V0H.594v-.672c.29-.3.695-.71 1.22-1.234.518-.532.842-.867.967-1.016.26-.28.44-.52.533-.72.1-.194.156-.39.156-.577 0-.31-.11-.565-.33-.764-.218-.196-.5-.297-.843-.297-.25 0-.516.046-.797.14-.273.085-.563.214-.875.39v-.797c.32-.133.617-.234.89-.297.282-.062.536-.093.766-.093.603 0 1.083.152 1.44.453.362.304.546.703.546 1.203 0 .24-.047.468-.14.686-.095.22-.26.477-.485.766-.074.074-.288.293-.64.656-.344.356-.836.856-1.47 1.5zm0 0"/></symbol><symbol overflow="visible" id="f"><path d="M3.688-5.016v2.172h2.17v.672H3.69V0H3.03v-2.172H.845v-.672H3.03v-2.172zm0 0"/></symbol></defs><g><path fill="#fff" d="M0 0h300v300H0z"/><path d="M185.602 130.504l-2.676 8.07" stroke-width="1.2" stroke="#cc0" stroke-miterlimit="10" fill="none"/><path d="M182.926 138.574l-2.676 8.067" stroke-width="1.2" stroke="#f00" stroke-miterlimit="10" fill="none"/><path d="M189.398 131.766l-2.675 8.066" stroke-width="1.2" stroke="#cc0" stroke-miterlimit="10" fill="none"/><path d="M186.723 139.832l-2.676 8.07" stroke-width="1.2" stroke="#f00" stroke-miterlimit="10" fill="none"/><path d="M189.398 131.766l2.676-8.07" stroke-width="1.2" stroke="#cc0" stroke-miterlimit="10" fill="none"/><path d="M192.074 123.695l2.676-8.066" stroke-width="1.2" stroke="#f00" stroke-miterlimit="10" fill="none"/><path d="M185.602 130.504l2.675-8.066" stroke-width="1.2" stroke="#cc0" stroke-miterlimit="10" fill="none"/><path d="M188.277 122.438l2.676-8.07" stroke-width="1.2" stroke="#f00" stroke-miterlimit="10" fill="none"/><path d="M187.5 131.133l8.066 2.68" stroke-width="1.2" stroke="#cc0" stroke-miterlimit="10" fill="none"/><path d="M195.566 133.813l8.07 2.675" stroke-width="1.2" stroke="#000" stroke-miterlimit="10" fill="none"/><path d="M187.5 131.133l-8.07-2.676" stroke-width="1.2" stroke="#cc0" stroke-miterlimit="10" fill="none"/><path d="M179.43 128.457l-8.067-2.676" stroke-width="1.2" stroke="#00f" stroke-miterlimit="10" fill="none"/><path d="M184.5 125.633h6v11h-6zm0 0" fill="#fff"/><use xlink:href="#a" x="184.5" y="134.296" fill="#cc0"/><path d="M174.148 141.77h8v11h-8zm0 0" fill="#fff"/><use xlink:href="#b" x="174.148" y="150.433" fill="#f00"/><path d="M188.852 109.496h8v11h-8zm0 0" fill="#fff"/><use xlink:href="#b" x="188.852" y="118.159" fill="#f00"/><path d="M203.637 136.488l3.433 16.65M207.07 153.137l-12.707 11.3M208.457 157.258l-10.164 9.04M223.207 158.492l-16.137-5.355M194.363 164.438l3.434 16.648M197.797 181.086l16.137 5.355M200.672 177.824l12.91 4.285M213.934 186.44l12.703-11.3M226.637 175.14l-3.43-16.648M222.38 174.285l-2.747-13.32M223.207 158.492l12.703-11.3M235.91 147.19l8.067 2.677" stroke-width="1.2" stroke="#000" stroke-miterlimit="10" fill="none"/><path d="M243.977 149.867l8.07 2.68" stroke-width="1.2" stroke="#f00" stroke-miterlimit="10" fill="none"/><path d="M237.867 146.79l-1.715-8.325" stroke-width="1.2" stroke="#000" stroke-miterlimit="10" fill="none"/><path d="M236.152 138.465l-1.714-8.328" stroke-width="1.2" stroke="#f00" stroke-miterlimit="10" fill="none"/><path d="M233.95 147.598l-1.716-8.328" stroke-width="1.2" stroke="#000" stroke-miterlimit="10" fill="none"/><path d="M232.234 139.27l-1.714-8.325M252.047 152.547l6.35-5.652" stroke-width="1.2" stroke="#f00" stroke-miterlimit="10" fill="none"/><path d="M258.398 146.895l6.352-5.65" stroke-width="1.2" stroke="#000" stroke-miterlimit="10" fill="none"/><path d="M248.047 147.047h8v11h-8zm0 0" fill="#fff"/><use xlink:href="#b" x="248.047" y="155.71" fill="#f00"/><path d="M228.477 125.043h8v11h-8zm0 0" fill="#fff"/><use xlink:href="#b" x="228.477" y="133.706" fill="#f00"/><path d="M158.66 137.078l14.695-9.055-3.984-4.484zm0 0"/><path d="M164.363 120.28h14v11h-14zm0 0" fill="#fff"/><g fill="#00f"><use xlink:href="#c" x="164.363" y="128.944"/><use xlink:href="#d" x="171.341" y="128.944"/></g><path d="M158.66 137.078l4.668 16.352M158.66 137.078l-15.69-6.543M163.328 153.43l-9.87 13.84M153.457 167.27l-16.977.914M136.48 168.184l-11.3-12.704M125.18 155.48l1.445-8.378" stroke-width="1.2" stroke="#000" stroke-miterlimit="10" fill="none"/><path d="M126.625 147.102l1.445-8.38M128.07 138.723l-6.922-4.934" stroke-width="1.2" stroke="#00f" stroke-miterlimit="10" fill="none"/><path d="M121.148 133.79l-6.92-4.938M142.97 130.535l-7.45 4.094" stroke-width="1.2" stroke="#000" stroke-miterlimit="10" fill="none"/><path d="M135.52 134.63l-7.45 4.093" stroke-width="1.2" stroke="#00f" stroke-miterlimit="10" fill="none"/><path d="M125.07 133.223h7v11h-7zm0 0" fill="#fff"/><use xlink:href="#c" x="125.07" y="141.886" fill="#00f"/><path d="M114.227 128.852l-15.47 7.054M96.766 135.715l-.813 8.46" stroke-width="1.2" stroke="#000" stroke-miterlimit="10" fill="none"/><path d="M95.953 144.176l-.816 8.46" stroke-width="1.2" stroke="#f00" stroke-miterlimit="10" fill="none"/><path d="M100.746 136.098l-.812 8.46" stroke-width="1.2" stroke="#000" stroke-miterlimit="10" fill="none"/><path d="M99.934 144.56l-.813 8.46" stroke-width="1.2" stroke="#f00" stroke-miterlimit="10" fill="none"/><path d="M98.758 135.906l-6.922-4.937" stroke-width="1.2" stroke="#000" stroke-miterlimit="10" fill="none"/><path d="M91.836 130.97l-6.922-4.935" stroke-width="1.2" stroke="#00f" stroke-miterlimit="10" fill="none"/><path d="M93.13 147.328h8v11h-8zm0 0" fill="#fff"/><use xlink:href="#b" x="93.129" y="155.991" fill="#f00"/><path d="M69.445 133.086m2.903-.75l-.43-.95m3.336.196l-.863-1.894m3.77 1.144l-1.3-2.848m4.203 2.098l-1.73-3.797m4.636 3.047l-2.165-4.746m4.355 4.18l-2.488-5.46" stroke="#000" stroke-miterlimit="10" fill="none"/><path d="M77.914 120.535h14v11h-14zm0 0" fill="#fff"/><g fill="#00f"><use xlink:href="#c" x="77.914" y="129.198"/><use xlink:href="#d" x="84.892" y="129.198"/></g><path d="M69.445 133.086l-13.843-9.87M69.445 133.086l-1.63 16.922M55.602 123.215l-15.47 7.05M40.133 130.266l-1.63 16.922M38.504 147.188l13.844 9.87" stroke-width="1.2" stroke="#000" stroke-miterlimit="10" fill="none"/><path d="M52.348 157.06l-4.614 16.635 5.973.575zm0 0"/><path d="M67.816 150.008l-15.468 7.05M50.72 173.984l-7.736 3.524" stroke-width="1.2" stroke="#000" stroke-miterlimit="10" fill="none"/><path d="M42.984 177.508l-7.734 3.527" stroke-width="1.2" stroke="#00f" stroke-miterlimit="10" fill="none"/><path d="M49.56 175.613l6.92 4.934" stroke-width="1.2" stroke="#000" stroke-miterlimit="10" fill="none"/><path d="M56.48 180.547l6.918 4.937" stroke-width="1.2" stroke="#00f" stroke-miterlimit="10" fill="none"/><path d="M51.883 172.355l6.918 4.934" stroke-width="1.2" stroke="#000" stroke-miterlimit="10" fill="none"/><path d="M58.8 177.29l6.923 4.937" stroke-width="1.2" stroke="#00f" stroke-miterlimit="10" fill="none"/><path d="M16.25 173.035h19v16h-19zm0 0" fill="#fff"/><use xlink:href="#d" x="16.25" y="181.698" fill="#00f"/><use xlink:href="#e" x="23.265" y="186.581" fill="#00f"/><use xlink:href="#c" x="28.215" y="181.698" fill="#00f"/><path d="M51.563 174.355h26v19h-26zm0 0" fill="#fff"/><g fill="#00f"><use xlink:href="#c" x="51.563" y="186.457"/><use xlink:href="#d" x="58.54" y="186.457"/></g><use xlink:href="#e" x="65.555" y="191.34" fill="#00f"/><use xlink:href="#f" x="70.505" y="181.574" fill="#00f"/><path d="M67.816 150.008m2.106 2.14l.6-.847m1.5 2.99l1.212-1.7m.89 3.84l1.817-2.547m.287 4.683l2.42-3.394m-.315 5.535l3.027-4.242m-1.442 5.86l3.484-4.887" stroke="#000" stroke-miterlimit="10" fill="none"/><path d="M74.66 154.38h15v11h-15zm0 0" fill="#fff"/><g fill="#f00"><use xlink:href="#b" x="74.66" y="163.042"/><use xlink:href="#d" x="82.002" y="163.042"/></g><path d="M144.965 130.43l-.457-8.49" stroke-width="1.2" stroke="#000" stroke-miterlimit="10" fill="none"/><path d="M144.508 121.94l-.457-8.487" stroke-width="1.2" stroke="#f00" stroke-miterlimit="10" fill="none"/><path d="M140.97 130.645l-.454-8.49" stroke-width="1.2" stroke="#000" stroke-miterlimit="10" fill="none"/><path d="M140.516 122.156l-.457-8.488" stroke-width="1.2" stroke="#f00" stroke-miterlimit="10" fill="none"/><path d="M138.055 108.06h8v11h-8zm0 0" fill="#fff"/><use xlink:href="#b" x="138.055" y="116.722" fill="#f00"/></g></svg>