<svg xmlns="http://www.w3.org/2000/svg" xmlns:xlink="http://www.w3.org/1999/xlink" width="300pt" height="300pt" viewBox="0 0 300 300"><defs><symbol overflow="visible"><path d="M.453 1.594v-7.938h4.5v7.938zm.5-.5h3.5v-6.938h-3.5zm0 0"/></symbol><symbol overflow="visible" id="a"><path d="M.89-6.563H2.08l2.906 5.485v-5.484h.86V0H4.656L1.75-5.484V0H.89zm0 0"/></symbol><symbol overflow="visible" id="b"><path d="M3.547-5.953c-.65 0-1.164.242-1.547.72-.375.48-.563 1.13-.563 1.952 0 .835.188 1.49.563 1.967.383.48.898.72 1.547.72.644 0 1.156-.24 1.53-.72.376-.476.564-1.132.564-1.968 0-.822-.187-1.474-.562-1.954-.375-.477-.887-.72-1.53-.72zm0-.734c.914 0 1.648.312 2.203.937.55.617.828 1.438.828 2.47 0 1.042-.277 1.87-.828 2.483-.555.617-1.29.922-2.203.922-.93 0-1.668-.305-2.22-.922C.774-1.41.5-2.237.5-3.28c0-1.033.273-1.853.828-2.47.55-.625 1.29-.938 2.22-.938zm0 0"/></symbol><symbol overflow="visible" id="c"><path d="M.89-6.563h.876v2.688H5v-2.688h.89V0H5v-3.125H1.766V0H.89zm0 0"/></symbol><symbol overflow="visible" id="f"><path d="M4.813-6.344v.86c-.336-.157-.653-.27-.954-.344-.294-.082-.58-.125-.86-.125-.492 0-.867.094-1.125.28-.262.19-.39.454-.39.798 0 .293.085.512.265.656.176.15.504.267.984.36l.547.11c.658.125 1.142.352 1.454.672.32.312.485.734.485 1.265 0 .637-.216 1.122-.642 1.454-.43.325-1.055.485-1.875.485-.312 0-.648-.04-1-.11C1.36-.046 1-.147.625-.296v-.906c.352.2.703.35 1.047.453.35.105.695.156 1.03.156.5 0 .884-.097 1.157-.297.28-.196.42-.485.42-.86 0-.32-.1-.57-.296-.75-.2-.176-.523-.313-.968-.406l-.547-.11C1.81-3.148 1.33-3.36 1.03-3.64.74-3.923.595-4.313.595-4.813c0-.57.203-1.024.61-1.36.405-.344.968-.516 1.687-.516.313 0 .626.032.938.094.32.055.65.137.985.25zm0 0"/></symbol><symbol overflow="visible"><path d="M.406 1.422V-5.64h4V1.42zM.844.97h3.11v-6.157H.843zm0 0"/></symbol><symbol overflow="visible" id="d"><path d="M1.53-.672h2.767V0H.594v-.672c.29-.3.695-.71 1.22-1.234.518-.532.842-.867.967-1.016.26-.28.44-.52.533-.72.1-.194.156-.39.156-.577 0-.31-.11-.565-.33-.764-.218-.196-.5-.297-.843-.297-.25 0-.516.046-.797.14-.273.085-.563.214-.875.39v-.797c.32-.133.617-.234.89-.297.282-.062.536-.093.766-.093.603 0 1.083.152 1.44.453.362.304.546.703.546 1.203 0 .24-.047.468-.14.686-.095.22-.26.477-.485.766-.074.074-.288.293-.64.656-.344.356-.836.856-1.47 1.5zm0 0"/></symbol><symbol overflow="visible" id="e"><path d="M3.688-5.016v2.172h2.17v.672H3.69V0H3.03v-2.172H.845v-.672H3.03v-2.172zm0 0"/></symbol></defs><g><path fill="#fff" d="M0 0h300v300H0z"/><path d="M142.273 134.78l7.875-4.042" stroke-width="1.2" stroke="#00f" stroke-miterlimit="10" fill="none"/><path d="M150.148 130.738l7.872-4.04" stroke-width="1.2" stroke="#000" stroke-miterlimit="10" fill="none"/><path d="M142.273 134.78l.227 8.85" stroke-width="1.2" stroke="#00f" stroke-miterlimit="10" fill="none"/><path d="M142.5 143.63l.227 8.843M128.16 124.102l7.06 5.34" stroke-width="1.2" stroke="#000" stroke-miterlimit="10" fill="none"/><path d="M135.22 129.44l7.053 5.34" stroke-width="1.2" stroke="#00f" stroke-miterlimit="10" fill="none"/><path d="M139.273 129.28h7v11h-7zm0 0" fill="#fff"/><use xlink:href="#a" x="139.273" y="137.944" fill="#00f"/><path d="M158.02 126.7l14.875 9.593M170.813 136.19l-.434 8.837" stroke-width="1.2" stroke="#000" stroke-miterlimit="10" fill="none"/><path d="M170.38 145.027l-.44 8.84" stroke-width="1.2" stroke="#f00" stroke-miterlimit="10" fill="none"/><path d="M174.973 136.395l-.438 8.84" stroke-width="1.2" stroke="#000" stroke-miterlimit="10" fill="none"/><path d="M174.535 145.234l-.433 8.84" stroke-width="1.2" stroke="#f00" stroke-miterlimit="10" fill="none"/><path d="M172.895 136.293l7.87-4.043" stroke-width="1.2" stroke="#000" stroke-miterlimit="10" fill="none"/><path d="M180.766 132.25l7.875-4.04" stroke-width="1.2" stroke="#00f" stroke-miterlimit="10" fill="none"/><path d="M168.02 148.47h8v11h-8zm0 0" fill="#fff"/><use xlink:href="#b" x="168.02" y="157.132" fill="#f00"/><path d="M203.512 137.805m-2.2-2.04l-.566.876m-1.633-2.913l-1.133 1.75m-1.066-3.793l-1.7 2.63m-.503-4.67l-2.257 3.508m.06-5.547l-2.826 4.383m.645-6.402l-3.387 5.25" stroke="#000" stroke-miterlimit="10" fill="none"/><path d="M181.64 122.71h14v11h-14zm0 0" fill="#fff"/><g fill="#00f"><use xlink:href="#a" x="181.641" y="131.374"/><use xlink:href="#c" x="188.618" y="131.374"/></g><path d="M203.512 137.805l-.87 17.675M203.512 137.805l15.746-8.082M202.64 155.48l14.872 9.598M217.512 165.078l15.746-8.086M233.258 156.992l.437-8.836" stroke-width="1.2" stroke="#000" stroke-miterlimit="10" fill="none"/><path d="M233.695 148.156l.438-8.84M234.133 139.316l7.87-4.043" stroke-width="1.2" stroke="#00f" stroke-miterlimit="10" fill="none"/><path d="M242.004 135.273l7.875-4.04M219.258 129.723l7.437 4.797" stroke-width="1.2" stroke="#000" stroke-miterlimit="10" fill="none"/><path d="M226.695 134.52l7.438 4.796" stroke-width="1.2" stroke="#00f" stroke-miterlimit="10" fill="none"/><path d="M231.133 133.816h7v11h-7zm0 0" fill="#fff"/><use xlink:href="#a" x="231.133" y="142.479" fill="#00f"/><path d="M249.88 131.234l7.433 4.797" stroke-width="1.2" stroke="#000" stroke-miterlimit="10" fill="none"/><path d="M257.313 136.03l7.437 4.798" stroke-width="1.2" stroke="#00f" stroke-miterlimit="10" fill="none"/><path d="M251.957 131.336l.438-8.84" stroke-width="1.2" stroke="#000" stroke-miterlimit="10" fill="none"/><path d="M252.395 122.496l.433-8.84" stroke-width="1.2" stroke="#00f" stroke-miterlimit="10" fill="none"/><path d="M247.797 131.13l.437-8.837" stroke-width="1.2" stroke="#000" stroke-miterlimit="10" fill="none"/><path d="M248.234 122.293l.438-8.84" stroke-width="1.2" stroke="#00f" stroke-miterlimit="10" fill="none"/><path d="M255.75 132.828h19v16h-19zm0 0" fill="#fff"/><g fill="#00f"><use xlink:href="#a" x="255.75" y="141.491"/><use xlink:href="#c" x="262.728" y="141.491"/></g><use xlink:href="#d" x="269.742" y="146.374" fill="#00f"/><path d="M237.75 104.055h26v19h-26zm0 0" fill="#fff"/><g fill="#00f"><use xlink:href="#a" x="237.75" y="116.156"/><use xlink:href="#c" x="244.728" y="116.156"/></g><use xlink:href="#d" x="251.742" y="121.039" fill="#00f"/><use xlink:href="#e" x="256.692" y="111.273" fill="#00f"/><path d="M219.258 129.723l3.992-17.524-6.238-.31zm0 0"/><path d="M213.133 106.543h15v11h-15zm0 0" fill="#fff"/><g fill="#f00"><use xlink:href="#b" x="213.133" y="115.206"/><use xlink:href="#c" x="220.475" y="115.206"/></g><path d="M142.727 152.473l-13.555 11.386M159.36 158.52l-16.633-6.047M156.273 161.828l-13.308-4.836M129.172 163.86l3.082 17.425M133.582 164.875l2.465 13.945M129.172 163.86l-17.352-3.5M132.254 181.285l16.637 6.047M148.89 187.332l13.55-11.383M147.566 183.004l10.844-9.106M162.44 175.95l8.322 3.02" stroke-width="1.2" stroke="#000" stroke-miterlimit="10" fill="none"/><path d="M170.762 178.97l8.316 3.022" stroke-width="1.2" stroke="#f00" stroke-miterlimit="10" fill="none"/><path d="M162.44 175.95l-3.08-17.43" stroke-width="1.2" stroke="#000" stroke-miterlimit="10" fill="none"/><path d="M179.078 181.992l1.543 8.715" stroke-width="1.2" stroke="#f00" stroke-miterlimit="10" fill="none"/><path d="M180.62 190.707l1.54 8.715" stroke-width="1.2" stroke="#000" stroke-miterlimit="10" fill="none"/><path d="M175.078 176.492h8v11h-8zm0 0" fill="#fff"/><use xlink:href="#b" x="175.078" y="185.155" fill="#f00"/><path d="M111.82 160.36l-8.082-15.747M103.738 144.613l7.274-16.136" stroke-width="1.2" stroke="#000" stroke-miterlimit="10" fill="none"/><path d="M111.012 128.477m-1.504-2.598l-.797.67m-.702-3.27l-1.598 1.345m.098-3.94l-2.395 2.01m.895-4.61l-3.195 2.685m1.69-5.282l-3.99 3.356m2.507-5.93l-4.786 4.02" stroke="#000" stroke-miterlimit="10" fill="none"/><path d="M111.012 128.477l17.148-4.375" stroke-width="1.2" stroke="#000" stroke-miterlimit="10" fill="none"/><path d="M99.625 114.926l-8.715 1.54" stroke-width="1.2" stroke="#00f" stroke-miterlimit="10" fill="none"/><path d="M90.91 116.465l-8.71 1.543" stroke-width="1.2" stroke="#cc0" stroke-miterlimit="10" fill="none"/><path d="M92.625 109.426h14v11h-14zm0 0" fill="#fff"/><g fill="#00f"><use xlink:href="#a" x="92.625" y="118.089"/><use xlink:href="#c" x="99.603" y="118.089"/></g><path d="M82.2 118.008l-8.716 1.543" stroke-width="1.2" stroke="#cc0" stroke-miterlimit="10" fill="none"/><path d="M73.484 119.55l-8.714 1.54" stroke-width="1.2" stroke="#000" stroke-miterlimit="10" fill="none"/><path d="M80.148 118.37l1.54 8.716" stroke-width="1.2" stroke="#cc0" stroke-miterlimit="10" fill="none"/><path d="M81.688 127.086l1.542 8.715" stroke-width="1.2" stroke="#f00" stroke-miterlimit="10" fill="none"/><path d="M84.246 117.645l1.543 8.714" stroke-width="1.2" stroke="#cc0" stroke-miterlimit="10" fill="none"/><path d="M85.79 126.36l1.542 8.714" stroke-width="1.2" stroke="#f00" stroke-miterlimit="10" fill="none"/><path d="M84.246 117.645l-1.54-8.715" stroke-width="1.2" stroke="#cc0" stroke-miterlimit="10" fill="none"/><path d="M82.707 108.93l-1.543-8.715" stroke-width="1.2" stroke="#f00" stroke-miterlimit="10" fill="none"/><path d="M80.148 118.37l-1.543-8.714" stroke-width="1.2" stroke="#cc0" stroke-miterlimit="10" fill="none"/><path d="M78.605 109.656l-1.543-8.715" stroke-width="1.2" stroke="#f00" stroke-miterlimit="10" fill="none"/><path d="M79.2 112.508h6v11h-6zm0 0" fill="#fff"/><use xlink:href="#f" x="79.199" y="121.171" fill="#cc0"/><path d="M64.77 121.09l-6.047 16.637M58.723 137.727l11.386 13.55M56.672 141.758l9.11 10.844M41.293 140.81l17.43-3.083M70.11 151.277l-6.047 16.637M64.063 167.914l-17.43 3.082M61.594 164.12l-13.942 2.466M46.633 170.996L35.25 157.44M35.25 157.44l6.043-16.63M39.77 157.203l4.835-13.308" stroke-width="1.2" stroke="#000" stroke-miterlimit="10" fill="none"/><path d="M81.28 129.938h8v11h-8zm0 0" fill="#fff"/><use xlink:href="#b" x="81.281" y="138.601" fill="#f00"/><path d="M75.113 95.078h8v11h-8zm0 0" fill="#fff"/><use xlink:href="#b" x="75.113" y="103.741" fill="#f00"/><path d="M130.203 124.512l1.746-8.676" stroke-width="1.2" stroke="#000" stroke-miterlimit="10" fill="none"/><path d="M131.95 115.836l1.75-8.672" stroke-width="1.2" stroke="#f00" stroke-miterlimit="10" fill="none"/><path d="M126.117 123.688l1.75-8.672" stroke-width="1.2" stroke="#000" stroke-miterlimit="10" fill="none"/><path d="M127.867 115.016l1.75-8.676" stroke-width="1.2" stroke="#f00" stroke-miterlimit="10" fill="none"/><path d="M127.656 101.25h8v11h-8zm0 0" fill="#fff"/><use xlink:href="#b" x="127.656" y="109.913" fill="#f00"/></g></svg>