<svg xmlns="http://www.w3.org/2000/svg" xmlns:xlink="http://www.w3.org/1999/xlink" width="300pt" height="300pt" viewBox="0 0 300 300"><defs><symbol overflow="visible"><path d="M.453 1.594v-7.938h4.5v7.938zm.5-.5h3.5v-6.938h-3.5zm0 0"/></symbol><symbol overflow="visible" id="a"><path d="M.89-6.563H2.08l2.906 5.485v-5.484h.86V0H4.656L1.75-5.484V0H.89zm0 0"/></symbol><symbol overflow="visible" id="b"><path d="M.89-6.563h.876v2.688H5v-2.688h.89V0H5v-3.125H1.766V0H.89zm0 0"/></symbol><symbol overflow="visible" id="c"><path d="M3.547-5.953c-.65 0-1.164.242-1.547.72-.375.48-.563 1.13-.563 1.952 0 .835.188 1.49.563 1.967.383.48.898.72 1.547.72.644 0 1.156-.24 1.53-.72.376-.476.564-1.132.564-1.968 0-.822-.187-1.474-.562-1.954-.375-.477-.887-.72-1.53-.72zm0-.734c.914 0 1.648.312 2.203.937.55.617.828 1.438.828 2.47 0 1.042-.277 1.87-.828 2.483-.555.617-1.29.922-2.203.922-.93 0-1.668-.305-2.22-.922C.774-1.41.5-2.237.5-3.28c0-1.033.273-1.853.828-2.47.55-.625 1.29-.938 2.22-.938zm0 0"/></symbol><symbol overflow="visible" id="f"><path d="M4.813-6.344v.86c-.336-.157-.653-.27-.954-.344-.294-.082-.58-.125-.86-.125-.492 0-.867.094-1.125.28-.262.19-.39.454-.39.798 0 .293.085.512.265.656.176.15.504.267.984.36l.547.11c.658.125 1.142.352 1.454.672.32.312.485.734.485 1.265 0 .637-.216 1.122-.642 1.454-.43.325-1.055.485-1.875.485-.312 0-.648-.04-1-.11C1.36-.046 1-.147.625-.296v-.906c.352.2.703.35 1.047.453.35.105.695.156 1.03.156.5 0 .884-.097 1.157-.297.28-.196.42-.485.42-.86 0-.32-.1-.57-.296-.75-.2-.176-.523-.313-.968-.406l-.547-.11C1.81-3.148 1.33-3.36 1.03-3.64.74-3.923.595-4.313.595-4.813c0-.57.203-1.024.61-1.36.405-.344.968-.516 1.687-.516.313 0 .626.032.938.094.32.055.65.137.985.25zm0 0"/></symbol><symbol overflow="visible"><path d="M.406 1.422V-5.64h4V1.42zM.844.97h3.11v-6.157H.843zm0 0"/></symbol><symbol overflow="visible" id="d"><path d="M1.53-.672h2.767V0H.594v-.672c.29-.3.695-.71 1.22-1.234.518-.532.842-.867.967-1.016.26-.28.44-.52.533-.72.1-.194.156-.39.156-.577 0-.31-.11-.565-.33-.764-.218-.196-.5-.297-.843-.297-.25 0-.516.046-.797.14-.273.085-.563.214-.875.39v-.797c.32-.133.617-.234.89-.297.282-.062.536-.093.766-.093.603 0 1.083.152 1.44.453.362.304.546.703.546 1.203 0 .24-.047.468-.14.686-.095.22-.26.477-.485.766-.074.074-.288.293-.64.656-.344.356-.836.856-1.47 1.5zm0 0"/></symbol><symbol overflow="visible" id="e"><path d="M3.688-5.016v2.172h2.17v.672H3.69V0H3.03v-2.172H.845v-.672H3.03v-2.172zm0 0"/></symbol></defs><g><path fill="#fff" d="M0 0h300v300H0z"/><path d="M52.723 141.504l-7.938-5.043" stroke-width="1.2" stroke="#00f" stroke-miterlimit="10" fill="none"/><path d="M44.785 136.46l-7.94-5.046" stroke-width="1.2" stroke="#000" stroke-miterlimit="10" fill="none"/><path d="M52.723 141.504l-.4 9.398" stroke-width="1.2" stroke="#00f" stroke-miterlimit="10" fill="none"/><path d="M52.324 150.902l-.398 9.4M69.402 132.797l-8.34 4.355" stroke-width="1.2" stroke="#000" stroke-miterlimit="10" fill="none"/><path d="M61.063 137.152l-8.34 4.352" stroke-width="1.2" stroke="#00f" stroke-miterlimit="10" fill="none"/><path d="M49.723 136.004h7v11h-7zm0 0" fill="#fff"/><use xlink:href="#a" x="49.723" y="144.667" fill="#00f"/><path d="M36.844 131.414l.797-18.797M37.64 112.617l16.676-8.707M54.316 103.91L70.2 114" stroke-width="1.2" stroke="#000" stroke-miterlimit="10" fill="none"/><path d="M70.2 114m2.86-.906l-.482-.926m3.34.02l-.965-1.848m3.824.94l-1.445-2.768m4.31 1.867l-1.935-3.7m4.793 2.793l-2.414-4.62m5.273 3.713l-2.895-5.546m3.95 5.214l-3.075-5.886" stroke="#000" stroke-miterlimit="10" fill="none"/><path d="M70.2 114l-.798 18.797" stroke-width="1.2" stroke="#000" stroke-miterlimit="10" fill="none"/><path d="M86.875 105.29l7.94 5.046" stroke-width="1.2" stroke="#00f" stroke-miterlimit="10" fill="none"/><path d="M94.816 110.336l7.942 5.043" stroke-width="1.2" stroke="#000" stroke-miterlimit="10" fill="none"/><path d="M79.875 99.79h14v11h-14zm0 0" fill="#fff"/><g fill="#00f"><use xlink:href="#a" x="79.875" y="108.452"/><use xlink:href="#b" x="86.853" y="108.452"/></g><path d="M102.758 115.38l16.676-8.708M100.547 115.285l-.4 9.4" stroke-width="1.2" stroke="#000" stroke-miterlimit="10" fill="none"/><path d="M100.148 124.684l-.398 9.398" stroke-width="1.2" stroke="#f00" stroke-miterlimit="10" fill="none"/><path d="M104.97 115.473l-.4 9.398" stroke-width="1.2" stroke="#000" stroke-miterlimit="10" fill="none"/><path d="M104.57 124.87l-.398 9.4" stroke-width="1.2" stroke="#f00" stroke-miterlimit="10" fill="none"/><path d="M119.434 106.672l7.94 5.043" stroke-width="1.2" stroke="#000" stroke-miterlimit="10" fill="none"/><path d="M127.375 111.715l7.94 5.043M135.316 116.758l8.336-4.352" stroke-width="1.2" stroke="#00f" stroke-miterlimit="10" fill="none"/><path d="M143.652 112.406l8.34-4.355" stroke-width="1.2" stroke="#000" stroke-miterlimit="10" fill="none"/><path d="M128.316 111.258h14v11h-14zm0 0" fill="#fff"/><g fill="#00f"><use xlink:href="#a" x="128.316" y="119.921"/><use xlink:href="#b" x="135.294" y="119.921"/></g><path d="M154.203 108.145l.4-9.4" stroke-width="1.2" stroke="#000" stroke-miterlimit="10" fill="none"/><path d="M154.602 98.746l.398-9.398" stroke-width="1.2" stroke="#f00" stroke-miterlimit="10" fill="none"/><path d="M149.78 107.957l.4-9.398" stroke-width="1.2" stroke="#000" stroke-miterlimit="10" fill="none"/><path d="M150.18 98.56l.398-9.4" stroke-width="1.2" stroke="#f00" stroke-miterlimit="10" fill="none"/><path d="M167.87 118.14l-14.097-12.89-3.562 5.602zm0 0"/><path d="M148.79 83.754h8v11h-8zm0 0" fill="#fff"/><use xlink:href="#c" x="148.789" y="92.417" fill="#f00"/><path d="M167.87 118.14l16.68-8.71M167.87 118.14l-.397 9.4" stroke-width="1.2" stroke="#000" stroke-miterlimit="10" fill="none"/><path d="M167.473 127.54l-.4 9.397" stroke-width="1.2" stroke="#00f" stroke-miterlimit="10" fill="none"/><path d="M184.55 109.43l15.88 10.09M200.43 119.52l-.797 18.796M200.43 119.52l16.68-8.707M199.633 138.316l15.883 10.09M215.516 148.406l8.336-4.355" stroke-width="1.2" stroke="#000" stroke-miterlimit="10" fill="none"/><path d="M223.852 144.05l8.34-4.35M232.19 139.7l7.943 5.042" stroke-width="1.2" stroke="#00f" stroke-miterlimit="10" fill="none"/><path d="M240.133 144.742l7.94 5.043M232.988 120.902l-.398 9.4" stroke-width="1.2" stroke="#000" stroke-miterlimit="10" fill="none"/><path d="M232.59 130.3l-.4 9.4" stroke-width="1.2" stroke="#00f" stroke-miterlimit="10" fill="none"/><path d="M229.19 134.2h7v11h-7zm0 0" fill="#fff"/><use xlink:href="#a" x="229.191" y="142.862" fill="#00f"/><path d="M248.074 149.785l-.398 9.4" stroke-width="1.2" stroke="#000" stroke-miterlimit="10" fill="none"/><path d="M247.676 159.184l-.4 9.402" stroke-width="1.2" stroke="#00f" stroke-miterlimit="10" fill="none"/><path d="M249.098 151.75l8.34-4.355" stroke-width="1.2" stroke="#000" stroke-miterlimit="10" fill="none"/><path d="M257.438 147.395l8.335-4.356" stroke-width="1.2" stroke="#00f" stroke-miterlimit="10" fill="none"/><path d="M247.047 147.824l8.34-4.355" stroke-width="1.2" stroke="#000" stroke-miterlimit="10" fill="none"/><path d="M255.387 143.47l8.34-4.353" stroke-width="1.2" stroke="#00f" stroke-miterlimit="10" fill="none"/><path d="M238.277 160.586h19v16h-19zm0 0" fill="#fff"/><g fill="#00f"><use xlink:href="#a" x="238.277" y="169.249"/><use xlink:href="#b" x="245.255" y="169.249"/></g><use xlink:href="#d" x="252.27" y="174.132" fill="#00f"/><path d="M251.75 131.578h26v19h-26zm0 0" fill="#fff"/><g fill="#00f"><use xlink:href="#a" x="251.75" y="143.68"/><use xlink:href="#b" x="258.728" y="143.68"/></g><use xlink:href="#d" x="265.742" y="148.563" fill="#00f"/><use xlink:href="#e" x="270.692" y="138.797" fill="#00f"/><path d="M217.11 110.813l15.878 10.09" stroke-width="1.2" stroke="#000" stroke-miterlimit="10" fill="none"/><path d="M167.074 136.938l-8.336 4.355" stroke-width="1.2" stroke="#00f" stroke-miterlimit="10" fill="none"/><path d="M158.738 141.293l-8.34 4.352" stroke-width="1.2" stroke="#cc0" stroke-miterlimit="10" fill="none"/><path d="M160.074 131.438h14v11h-14zm0 0" fill="#fff"/><g fill="#00f"><use xlink:href="#a" x="160.074" y="140.101"/><use xlink:href="#b" x="167.052" y="140.101"/></g><path d="M150.398 145.645l-8.34 4.355" stroke-width="1.2" stroke="#cc0" stroke-miterlimit="10" fill="none"/><path d="M142.06 150l-8.337 4.355" stroke-width="1.2" stroke="#000" stroke-miterlimit="10" fill="none"/><path d="M152.36 144.62l-4.352-8.34" stroke-width="1.2" stroke="#cc0" stroke-miterlimit="10" fill="none"/><path d="M148.008 136.28l-4.356-8.335" stroke-width="1.2" stroke="#f00" stroke-miterlimit="10" fill="none"/><path d="M148.438 146.672l-4.356-8.34" stroke-width="1.2" stroke="#cc0" stroke-miterlimit="10" fill="none"/><path d="M144.082 138.332l-4.355-8.34" stroke-width="1.2" stroke="#f00" stroke-miterlimit="10" fill="none"/><path d="M148.438 146.672l4.35 8.336" stroke-width="1.2" stroke="#cc0" stroke-miterlimit="10" fill="none"/><path d="M152.79 155.008l4.355 8.34" stroke-width="1.2" stroke="#f00" stroke-miterlimit="10" fill="none"/><path d="M152.36 144.62l4.355 8.34" stroke-width="1.2" stroke="#cc0" stroke-miterlimit="10" fill="none"/><path d="M156.715 152.96l4.355 8.337" stroke-width="1.2" stroke="#f00" stroke-miterlimit="10" fill="none"/><path d="M147.398 140.145h6v11h-6zm0 0" fill="#fff"/><use xlink:href="#f" x="147.398" y="148.808" fill="#cc0"/><path d="M133.723 154.355l-.797 18.797M132.926 173.152l15.88 10.09M132.137 177.898l12.707 8.07M116.246 181.86l16.68-8.708M148.805 183.242l-.797 18.797M148.008 202.04l-16.676 8.706M144.29 198.984l-13.34 6.97M131.332 210.746l-15.883-10.09M115.45 200.656l.796-18.797M119.953 198.965l.637-15.04" stroke-width="1.2" stroke="#000" stroke-miterlimit="10" fill="none"/><path d="M133.69 123.47h8v11h-8zm0 0" fill="#fff"/><use xlink:href="#c" x="133.691" y="132.132" fill="#f00"/><path d="M155.105 156.824h8v11h-8zm0 0" fill="#fff"/><use xlink:href="#c" x="155.105" y="165.487" fill="#f00"/><path d="M97.96 128.676h8v11h-8zm0 0" fill="#fff"/><use xlink:href="#c" x="97.961" y="137.339" fill="#f00"/><path d="M69.402 132.797l14.102 12.89 3.558-5.605zm0 0"/><path d="M78.28 137.387h15v11h-15zm0 0" fill="#fff"/><g fill="#f00"><use xlink:href="#c" x="78.281" y="146.05"/><use xlink:href="#b" x="85.623" y="146.05"/></g><path d="M51.926 160.3l-8.336 4.356" stroke-width="1.2" stroke="#000" stroke-miterlimit="10" fill="none"/><path d="M43.59 164.656l-8.34 4.356" stroke-width="1.2" stroke="#00f" stroke-miterlimit="10" fill="none"/><path d="M50.742 162.172l7.938 5.043" stroke-width="1.2" stroke="#000" stroke-miterlimit="10" fill="none"/><path d="M58.68 167.215l7.94 5.043" stroke-width="1.2" stroke="#00f" stroke-miterlimit="10" fill="none"/><path d="M53.113 158.434l7.942 5.043" stroke-width="1.2" stroke="#000" stroke-miterlimit="10" fill="none"/><path d="M61.055 163.477l7.94 5.046" stroke-width="1.2" stroke="#00f" stroke-miterlimit="10" fill="none"/><path d="M16.25 161.012h19v16h-19zm0 0" fill="#fff"/><use xlink:href="#b" x="16.25" y="169.675" fill="#00f"/><use xlink:href="#d" x="23.265" y="174.558" fill="#00f"/><use xlink:href="#a" x="28.215" y="169.675" fill="#00f"/><path d="M54.81 160.89h26v19h-26zm0 0" fill="#fff"/><g fill="#00f"><use xlink:href="#a" x="54.809" y="172.992"/><use xlink:href="#b" x="61.786" y="172.992"/></g><use xlink:href="#d" x="68.801" y="177.875" fill="#00f"/><use xlink:href="#e" x="73.751" y="168.109" fill="#00f"/></g></svg>