<svg xmlns="http://www.w3.org/2000/svg" xmlns:xlink="http://www.w3.org/1999/xlink" width="300pt" height="300pt" viewBox="0 0 300 300"><defs><symbol overflow="visible"><path d="M.453 1.594v-7.938h4.5v7.938zm.5-.5h3.5v-6.938h-3.5zm0 0"/></symbol><symbol overflow="visible" id="a"><path d="M.89-6.563H2.08l2.906 5.485v-5.484h.86V0H4.656L1.75-5.484V0H.89zm0 0"/></symbol><symbol overflow="visible" id="b"><path d="M.89-6.563h.876v2.688H5v-2.688h.89V0H5v-3.125H1.766V0H.89zm0 0"/></symbol><symbol overflow="visible" id="c"><path d="M3.547-5.953c-.65 0-1.164.242-1.547.72-.375.48-.563 1.13-.563 1.952 0 .835.188 1.49.563 1.967.383.48.898.72 1.547.72.644 0 1.156-.24 1.53-.72.376-.476.564-1.132.564-1.968 0-.822-.187-1.474-.562-1.954-.375-.477-.887-.72-1.53-.72zm0-.734c.914 0 1.648.312 2.203.937.55.617.828 1.438.828 2.47 0 1.042-.277 1.87-.828 2.483-.555.617-1.29.922-2.203.922-.93 0-1.668-.305-2.22-.922C.774-1.41.5-2.237.5-3.28c0-1.033.273-1.853.828-2.47.55-.625 1.29-.938 2.22-.938zm0 0"/></symbol><symbol overflow="visible" id="f"><path d="M4.813-6.344v.86c-.336-.157-.653-.27-.954-.344-.294-.082-.58-.125-.86-.125-.492 0-.867.094-1.125.28-.262.19-.39.454-.39.798 0 .293.085.512.265.656.176.15.504.267.984.36l.547.11c.658.125 1.142.352 1.454.672.32.312.485.734.485 1.265 0 .637-.216 1.122-.642 1.454-.43.325-1.055.485-1.875.485-.312 0-.648-.04-1-.11C1.36-.046 1-.147.625-.296v-.906c.352.2.703.35 1.047.453.35.105.695.156 1.03.156.5 0 .884-.097 1.157-.297.28-.196.42-.485.42-.86 0-.32-.1-.57-.296-.75-.2-.176-.523-.313-.968-.406l-.547-.11C1.81-3.148 1.33-3.36 1.03-3.64.74-3.923.595-4.313.595-4.813c0-.57.203-1.024.61-1.36.405-.344.968-.516 1.687-.516.313 0 .626.032.938.094.32.055.65.137.985.25zm0 0"/></symbol><symbol overflow="visible"><path d="M.406 1.422V-5.64h4V1.42zM.844.97h3.11v-6.157H.843zm0 0"/></symbol><symbol overflow="visible" id="d"><path d="M1.53-.672h2.767V0H.594v-.672c.29-.3.695-.71 1.22-1.234.518-.532.842-.867.967-1.016.26-.28.44-.52.533-.72.1-.194.156-.39.156-.577 0-.31-.11-.565-.33-.764-.218-.196-.5-.297-.843-.297-.25 0-.516.046-.797.14-.273.085-.563.214-.875.39v-.797c.32-.133.617-.234.89-.297.282-.062.536-.093.766-.093.603 0 1.083.152 1.44.453.362.304.546.703.546 1.203 0 .24-.047.468-.14.686-.095.22-.26.477-.485.766-.074.074-.288.293-.64.656-.344.356-.836.856-1.47 1.5zm0 0"/></symbol><symbol overflow="visible" id="e"><path d="M3.688-5.016v2.172h2.17v.672H3.69V0H3.03v-2.172H.845v-.672H3.03v-2.172zm0 0"/></symbol></defs><g><path fill="#fff" d="M0 0h300v300H0z"/><path d="M52.098 148.016l-8.274-4.602" stroke-width="1.2" stroke="#00f" stroke-miterlimit="10" fill="none"/><path d="M43.824 143.414l-8.273-4.598" stroke-width="1.2" stroke="#000" stroke-miterlimit="10" fill="none"/><path d="M52.098 148.016l.148 9.464" stroke-width="1.2" stroke="#00f" stroke-miterlimit="10" fill="none"/><path d="M52.246 157.48l.152 9.465M68.34 138.29l-8.12 4.862" stroke-width="1.2" stroke="#000" stroke-miterlimit="10" fill="none"/><path d="M60.22 143.152l-8.122 4.864" stroke-width="1.2" stroke="#00f" stroke-miterlimit="10" fill="none"/><path d="M49.098 142.516h7v11h-7zm0 0" fill="#fff"/><use xlink:href="#a" x="49.098" y="151.179" fill="#00f"/><path d="M35.55 138.816l-.3-18.93M35.25 119.887l16.242-9.727M51.492 110.16l16.543 9.203" stroke-width="1.2" stroke="#000" stroke-miterlimit="10" fill="none"/><path d="M68.035 119.363m2.805-1.07l-.54-.895m3.34-.175l-1.07-1.79m3.87.715l-1.604-2.683m4.41 1.613l-2.144-3.578m4.945 2.508l-2.676-4.473m5.482 3.403l-3.215-5.368m4.355 4.934l-3.43-5.734" stroke="#000" stroke-miterlimit="10" fill="none"/><path d="M68.035 119.363l.305 18.926" stroke-width="1.2" stroke="#000" stroke-miterlimit="10" fill="none"/><path d="M84.277 109.637l8.274 4.6" stroke-width="1.2" stroke="#00f" stroke-miterlimit="10" fill="none"/><path d="M92.55 114.238l8.27 4.602" stroke-width="1.2" stroke="#000" stroke-miterlimit="10" fill="none"/><path d="M77.277 104.137h14v11h-14zm0 0" fill="#fff"/><g fill="#00f"><use xlink:href="#a" x="77.277" y="112.8"/><use xlink:href="#b" x="84.255" y="112.8"/></g><path d="M100.82 118.84l16.243-9.727M98.594 118.875l.152 9.465" stroke-width="1.2" stroke="#000" stroke-miterlimit="10" fill="none"/><path d="M98.746 128.34l.152 9.465" stroke-width="1.2" stroke="#f00" stroke-miterlimit="10" fill="none"/><path d="M103.047 118.805l.152 9.46" stroke-width="1.2" stroke="#000" stroke-miterlimit="10" fill="none"/><path d="M103.2 128.266l.152 9.464" stroke-width="1.2" stroke="#f00" stroke-miterlimit="10" fill="none"/><path d="M117.063 109.113l8.273 4.602" stroke-width="1.2" stroke="#000" stroke-miterlimit="10" fill="none"/><path d="M125.336 113.715l8.27 4.6M133.605 118.316l8.122-4.863" stroke-width="1.2" stroke="#00f" stroke-miterlimit="10" fill="none"/><path d="M141.727 113.453l8.12-4.863" stroke-width="1.2" stroke="#000" stroke-miterlimit="10" fill="none"/><path d="M126.605 112.816h14v11h-14zm0 0" fill="#fff"/><g fill="#00f"><use xlink:href="#a" x="126.605" y="121.479"/><use xlink:href="#b" x="133.583" y="121.479"/></g><path d="M152.074 108.555l-.148-9.465" stroke-width="1.2" stroke="#000" stroke-miterlimit="10" fill="none"/><path d="M151.926 99.09l-.153-9.465" stroke-width="1.2" stroke="#f00" stroke-miterlimit="10" fill="none"/><path d="M147.62 108.625l-.147-9.465" stroke-width="1.2" stroke="#000" stroke-miterlimit="10" fill="none"/><path d="M147.473 99.16l-.153-9.465" stroke-width="1.2" stroke="#f00" stroke-miterlimit="10" fill="none"/><path d="M166.395 117.79l-14.922-12.122-3.246 5.84zm0 0"/><path d="M145.547 84.16h8v11h-8zm0 0" fill="#fff"/><use xlink:href="#c" x="145.547" y="92.823" fill="#f00"/><path d="M166.395 117.79l16.238-9.724M166.395 117.79l.148 9.464" stroke-width="1.2" stroke="#000" stroke-miterlimit="10" fill="none"/><path d="M166.543 127.254l.152 9.465" stroke-width="1.2" stroke="#00f" stroke-miterlimit="10" fill="none"/><path d="M182.633 108.066l16.547 9.2M199.18 117.266l16.242-9.723M215.422 107.543l8.27 4.598" stroke-width="1.2" stroke="#000" stroke-miterlimit="10" fill="none"/><path d="M223.69 112.14l8.275 4.602M231.965 116.742l8.12-4.863" stroke-width="1.2" stroke="#00f" stroke-miterlimit="10" fill="none"/><path d="M240.086 111.88l8.12-4.864" stroke-width="1.2" stroke="#000" stroke-miterlimit="10" fill="none"/><path d="M224.965 111.242h14v11h-14zm0 0" fill="#fff"/><g fill="#00f"><use xlink:href="#a" x="224.965" y="119.905"/><use xlink:href="#b" x="231.942" y="119.905"/></g><path d="M248.207 107.016l8.27 4.6" stroke-width="1.2" stroke="#000" stroke-miterlimit="10" fill="none"/><path d="M256.477 111.617l8.273 4.602" stroke-width="1.2" stroke="#00f" stroke-miterlimit="10" fill="none"/><path d="M250.434 106.98l-.153-9.464" stroke-width="1.2" stroke="#000" stroke-miterlimit="10" fill="none"/><path d="M250.28 97.516l-.15-9.46" stroke-width="1.2" stroke="#00f" stroke-miterlimit="10" fill="none"/><path d="M245.98 107.055l-.152-9.465" stroke-width="1.2" stroke="#000" stroke-miterlimit="10" fill="none"/><path d="M245.828 97.59l-.152-9.465" stroke-width="1.2" stroke="#00f" stroke-miterlimit="10" fill="none"/><path d="M255.75 108.22h19v16h-19zm0 0" fill="#fff"/><g fill="#00f"><use xlink:href="#a" x="255.75" y="116.882"/><use xlink:href="#b" x="262.728" y="116.882"/></g><use xlink:href="#d" x="269.742" y="121.765" fill="#00f"/><path d="M234.902 78.59h26v19h-26zm0 0" fill="#fff"/><g fill="#00f"><use xlink:href="#a" x="234.902" y="90.691"/><use xlink:href="#b" x="241.88" y="90.691"/></g><use xlink:href="#d" x="248.895" y="95.574" fill="#00f"/><use xlink:href="#e" x="253.845" y="85.809" fill="#00f"/><path d="M166.695 136.72l8.274 4.6" stroke-width="1.2" stroke="#00f" stroke-miterlimit="10" fill="none"/><path d="M174.97 141.32l8.268 4.602" stroke-width="1.2" stroke="#cc0" stroke-miterlimit="10" fill="none"/><path d="M159.695 131.22h14v11h-14zm0 0" fill="#fff"/><g fill="#00f"><use xlink:href="#a" x="159.695" y="139.882"/><use xlink:href="#b" x="166.673" y="139.882"/></g><path d="M183.238 145.922l8.274 4.6" stroke-width="1.2" stroke="#cc0" stroke-miterlimit="10" fill="none"/><path d="M191.512 150.523l8.273 4.602" stroke-width="1.2" stroke="#000" stroke-miterlimit="10" fill="none"/><path d="M185.188 147.004l4.597-8.27" stroke-width="1.2" stroke="#cc0" stroke-miterlimit="10" fill="none"/><path d="M189.785 138.734l4.602-8.273" stroke-width="1.2" stroke="#f00" stroke-miterlimit="10" fill="none"/><path d="M181.293 144.84l4.602-8.274" stroke-width="1.2" stroke="#cc0" stroke-miterlimit="10" fill="none"/><path d="M185.895 136.566l4.6-8.27" stroke-width="1.2" stroke="#f00" stroke-miterlimit="10" fill="none"/><path d="M181.293 144.84l-4.602 8.273" stroke-width="1.2" stroke="#cc0" stroke-miterlimit="10" fill="none"/><path d="M176.69 153.113l-4.6 8.27" stroke-width="1.2" stroke="#f00" stroke-miterlimit="10" fill="none"/><path d="M185.188 147.004l-4.602 8.273" stroke-width="1.2" stroke="#cc0" stroke-miterlimit="10" fill="none"/><path d="M180.586 155.277l-4.602 8.274" stroke-width="1.2" stroke="#f00" stroke-miterlimit="10" fill="none"/><path d="M180.238 140.422h6v11h-6zm0 0" fill="#fff"/><use xlink:href="#f" x="180.238" y="149.085" fill="#cc0"/><path d="M199.785 155.125l.3 18.93M200.086 174.055l-16.242 9.726M200.75 178.848l-12.992 7.78M216.63 183.258l-16.544-9.203M183.844 183.78l.3 18.927M184.145 202.707l16.546 9.203M187.965 199.738l13.238 7.36M200.69 211.91l16.244-9.726M216.934 202.184l-.305-18.926M212.45 200.363l-.243-15.144" stroke-width="1.2" stroke="#000" stroke-miterlimit="10" fill="none"/><path d="M188.44 123.88h8v11h-8zm0 0" fill="#fff"/><use xlink:href="#c" x="188.441" y="132.542" fill="#f00"/><path d="M166.035 156.965h8v11h-8zm0 0" fill="#fff"/><use xlink:href="#c" x="166.035" y="165.628" fill="#f00"/><path d="M97.125 132.266h8v11h-8zm0 0" fill="#fff"/><use xlink:href="#c" x="97.125" y="140.929" fill="#f00"/><path d="M68.34 138.29l14.918 12.124 3.25-5.84zm0 0"/><path d="M77.883 141.992h15v11h-15zm0 0" fill="#fff"/><g fill="#f00"><use xlink:href="#c" x="77.883" y="150.655"/><use xlink:href="#b" x="85.225" y="150.655"/></g><path d="M52.398 166.945l-8.12 4.864" stroke-width="1.2" stroke="#000" stroke-miterlimit="10" fill="none"/><path d="M44.277 171.81l-8.12 4.862" stroke-width="1.2" stroke="#00f" stroke-miterlimit="10" fill="none"/><path d="M51.316 168.89l8.274 4.602" stroke-width="1.2" stroke="#000" stroke-miterlimit="10" fill="none"/><path d="M59.59 173.492l8.27 4.602" stroke-width="1.2" stroke="#00f" stroke-miterlimit="10" fill="none"/><path d="M53.48 165l8.274 4.602" stroke-width="1.2" stroke="#000" stroke-miterlimit="10" fill="none"/><path d="M61.754 169.602l8.273 4.6" stroke-width="1.2" stroke="#00f" stroke-miterlimit="10" fill="none"/><path d="M17.156 168.672h19v16h-19zm0 0" fill="#fff"/><use xlink:href="#b" x="17.156" y="177.335" fill="#00f"/><use xlink:href="#d" x="24.171" y="182.218" fill="#00f"/><use xlink:href="#a" x="29.121" y="177.335" fill="#00f"/><path d="M55.94 166.648h26v19h-26zm0 0" fill="#fff"/><g fill="#00f"><use xlink:href="#a" x="55.941" y="178.75"/><use xlink:href="#b" x="62.919" y="178.75"/></g><use xlink:href="#d" x="69.934" y="183.633" fill="#00f"/><use xlink:href="#e" x="74.884" y="173.867" fill="#00f"/></g></svg>