<svg xmlns="http://www.w3.org/2000/svg" xmlns:xlink="http://www.w3.org/1999/xlink" width="300pt" height="300pt" viewBox="0 0 300 300"><defs><symbol overflow="visible"><path d="M.453 1.594v-7.938h4.5v7.938zm.5-.5h3.5v-6.938h-3.5zm0 0"/></symbol><symbol overflow="visible" id="a"><path d="M5.797-6.063v.938c-.305-.27-.625-.473-.97-.61-.335-.144-.686-.218-1.06-.218-.75 0-1.33.23-1.736.687-.397.46-.592 1.12-.592 1.985 0 .866.195 1.526.593 1.983.408.46.986.688 1.736.688.375 0 .726-.066 1.062-.203.344-.132.664-.343.97-.625V-.5c-.314.21-.642.367-.986.47-.343.1-.714.155-1.11.155-.99 0-1.772-.3-2.343-.906C.784-1.396.5-2.228.5-3.28c0-1.052.285-1.88.86-2.486.57-.613 1.35-.92 2.343-.92.395-.002.766.053 1.11.155.35.104.68.26.984.468zm0 0"/></symbol><symbol overflow="visible" id="b"><path d="M.844-6.844h.812V0H.844zm0 0"/></symbol><symbol overflow="visible" id="c"><path d="M.89-6.563H2.08l2.906 5.485v-5.484h.86V0H4.656L1.75-5.484V0H.89zm0 0"/></symbol><symbol overflow="visible" id="d"><path d="M.89-6.563h.876v2.688H5v-2.688h.89V0H5v-3.125H1.766V0H.89zm0 0"/></symbol></defs><g><path fill="#fff" d="M0 0h300v300H0z"/><path d="M214.184 108.148l7.222 8.352" stroke-width="1.2" stroke="#0c0" stroke-miterlimit="10" fill="none"/><path d="M221.406 116.5l7.22 8.352" stroke-width="1.2" stroke="#000" stroke-miterlimit="10" fill="none"/><path d="M204.184 102.648h10v11h-10zm0 0" fill="#fff"/><g fill="#0c0"><use xlink:href="#a" x="204.184" y="111.312"/><use xlink:href="#b" x="210.697" y="111.312"/></g><path d="M228.625 124.852l21.684-4.157M231.77 129.54l17.347-3.325M221.383 145.707l7.242-20.855M250.31 120.695l14.44 16.703M264.75 137.398l-7.242 20.856M259.117 137.777l-5.793 16.688M257.508 158.254l-21.688 4.156M235.82 162.41l-14.437-16.703M238.31 157.34l-11.556-13.36M221.383 145.707l-10.844 2.078" stroke-width="1.2" stroke="#000" stroke-miterlimit="10" fill="none"/><path d="M210.54 147.785l-10.84 2.078M199.7 149.863l-7.223-8.35" stroke-width="1.2" stroke="#00f" stroke-miterlimit="10" fill="none"/><path d="M192.477 141.512l-7.22-8.352" stroke-width="1.2" stroke="#000" stroke-miterlimit="10" fill="none"/><path d="M192.7 144.363h14v11h-14zm0 0" fill="#fff"/><g fill="#00f"><use xlink:href="#c" x="192.699" y="153.026"/><use xlink:href="#d" x="199.677" y="153.026"/></g><path d="M185.258 133.16l-21.684 4.156M163.574 137.316l-4.695 9.993" stroke-width="1.2" stroke="#000" stroke-miterlimit="10" fill="none"/><path d="M158.88 147.31l-4.692 9.99M147.465 122.215l8.055 7.55" stroke-width="1.2" stroke="#00f" stroke-miterlimit="10" fill="none"/><path d="M155.52 129.766l8.054 7.55" stroke-width="1.2" stroke="#000" stroke-miterlimit="10" fill="none"/><path d="M145.523 127.516l6.442 6.043" stroke-width="1.2" stroke="#00f" stroke-miterlimit="10" fill="none"/><path d="M151.965 133.56l6.445 6.038" stroke-width="1.2" stroke="#000" stroke-miterlimit="10" fill="none"/><path d="M154.188 157.3l-10.954-1.374" stroke-width="1.2" stroke="#00f" stroke-miterlimit="10" fill="none"/><path d="M143.234 155.926l-10.953-1.37" stroke-width="1.2" stroke="#000" stroke-miterlimit="10" fill="none"/><path d="M147.188 151.8h14v11h-14zm0 0" fill="#fff"/><g fill="#00f"><use xlink:href="#c" x="147.188" y="160.464"/><use xlink:href="#d" x="154.165" y="160.464"/></g><path d="M132.28 154.555l-4.155-21.688M136.97 151.406l-3.325-17.347M132.28 154.555l-15.1 16.105M128.125 132.867l9.672-5.324" stroke-width="1.2" stroke="#000" stroke-miterlimit="10" fill="none"/><path d="M137.797 127.543l9.668-5.328" stroke-width="1.2" stroke="#00f" stroke-miterlimit="10" fill="none"/><path d="M128.125 132.867l-19.984-9.383" stroke-width="1.2" stroke="#000" stroke-miterlimit="10" fill="none"/><path d="M144.465 116.715h7v11h-7zm0 0" fill="#fff"/><use xlink:href="#c" x="144.465" y="125.378" fill="#00f"/><path d="M108.14 123.484l-1.863-22M108.14 123.484l-18.117 12.618M103.36 120.484l-14.493 10.09M106.277 101.484L86.29 92.102M102.07 105.25l-15.988-7.508M86.29 92.102L68.17 104.72M68.172 104.72l.933 11" stroke-width="1.2" stroke="#000" stroke-miterlimit="10" fill="none"/><path d="M69.105 115.72l.93 10.995M46.672 99.69l10.75 2.513" stroke-width="1.2" stroke="#00f" stroke-miterlimit="10" fill="none"/><path d="M57.422 102.203l10.75 2.516" stroke-width="1.2" stroke="#000" stroke-miterlimit="10" fill="none"/><path d="M47.64 105.254l8.598 2.012" stroke-width="1.2" stroke="#00f" stroke-miterlimit="10" fill="none"/><path d="M56.238 107.266l8.602 2.007" stroke-width="1.2" stroke="#000" stroke-miterlimit="10" fill="none"/><path d="M70.035 126.715L49.69 135.29M70.035 126.715l9.996 4.695" stroke-width="1.2" stroke="#00f" stroke-miterlimit="10" fill="none"/><path d="M80.03 131.41l9.993 4.692" stroke-width="1.2" stroke="#000" stroke-miterlimit="10" fill="none"/><path d="M67.035 121.215h7v11h-7zm0 0" fill="#fff"/><use xlink:href="#c" x="67.035" y="129.878" fill="#00f"/><path d="M49.69 135.29l-7.22-8.352" stroke-width="1.2" stroke="#00f" stroke-miterlimit="10" fill="none"/><path d="M42.47 126.938l-7.22-8.348" stroke-width="1.2" stroke="#000" stroke-miterlimit="10" fill="none"/><path d="M52.176 130.223l-5.778-6.684" stroke-width="1.2" stroke="#00f" stroke-miterlimit="10" fill="none"/><path d="M46.398 123.54l-5.773-6.68" stroke-width="1.2" stroke="#000" stroke-miterlimit="10" fill="none"/><path d="M46.69 129.79h7v11h-7zm0 0" fill="#fff"/><use xlink:href="#c" x="46.691" y="138.452" fill="#00f"/><path d="M35.25 118.59l5.71-9.45" stroke-width="1.2" stroke="#000" stroke-miterlimit="10" fill="none"/><path d="M40.96 109.14l5.712-9.45" stroke-width="1.2" stroke="#00f" stroke-miterlimit="10" fill="none"/><path d="M43.672 94.19h7v11h-7zm0 0" fill="#fff"/><use xlink:href="#c" x="43.672" y="102.854" fill="#00f"/><path d="M117.18 170.66l-10.75-2.512" stroke-width="1.2" stroke="#000" stroke-miterlimit="10" fill="none"/><path d="M106.43 168.148l-10.746-2.51" stroke-width="1.2" stroke="#00f" stroke-miterlimit="10" fill="none"/><path d="M113.848 175.215l-8.598-2.008" stroke-width="1.2" stroke="#000" stroke-miterlimit="10" fill="none"/><path d="M105.25 173.207l-8.602-2.008" stroke-width="1.2" stroke="#00f" stroke-miterlimit="10" fill="none"/><path d="M123.582 191.793l-6.402-21.133" stroke-width="1.2" stroke="#000" stroke-miterlimit="10" fill="none"/><path d="M95.684 165.637l-7.55 8.054" stroke-width="1.2" stroke="#00f" stroke-miterlimit="10" fill="none"/><path d="M88.133 173.69l-7.55 8.052" stroke-width="1.2" stroke="#000" stroke-miterlimit="10" fill="none"/><path d="M92.684 160.137h7v11h-7zm0 0" fill="#fff"/><use xlink:href="#c" x="92.684" y="168.8" fill="#00f"/><path d="M80.582 181.742l6.398 21.133M86.19 182.352l5.123 16.906M80.582 181.742l-21.5-5.023M86.98 202.875l21.5 5.023M108.48 207.898l15.102-16.105M106.2 202.734l12.08-12.886" stroke-width="1.2" stroke="#000" stroke-miterlimit="10" fill="none"/></g></svg>