<svg xmlns="http://www.w3.org/2000/svg" xmlns:xlink="http://www.w3.org/1999/xlink" width="300pt" height="300pt" viewBox="0 0 300 300"><defs><symbol overflow="visible"><path d="M.453 1.594v-7.938h4.5v7.938zm.5-.5h3.5v-6.938h-3.5zm0 0"/></symbol><symbol overflow="visible" id="a"><path d="M3.547-5.953c-.65 0-1.164.242-1.547.72-.375.48-.563 1.13-.563 1.952 0 .835.188 1.49.563 1.967.383.48.898.72 1.547.72.644 0 1.156-.24 1.53-.72.376-.476.564-1.132.564-1.968 0-.822-.187-1.474-.562-1.954-.375-.477-.887-.72-1.53-.72zm0-.734c.914 0 1.648.312 2.203.937.55.617.828 1.438.828 2.47 0 1.042-.277 1.87-.828 2.483-.555.617-1.29.922-2.203.922-.93 0-1.668-.305-2.22-.922C.774-1.41.5-2.237.5-3.28c0-1.033.273-1.853.828-2.47.55-.625 1.29-.938 2.22-.938zm0 0"/></symbol><symbol overflow="visible" id="b"><path d="M.89-6.563H2.08l2.906 5.485v-5.484h.86V0H4.656L1.75-5.484V0H.89zm0 0"/></symbol><symbol overflow="visible" id="c"><path d="M.89-6.563h.876v2.688H5v-2.688h.89V0H5v-3.125H1.766V0H.89zm0 0"/></symbol><symbol overflow="visible"><path d="M.406 1.422V-5.64h4V1.42zM.844.97h3.11v-6.157H.843zm0 0"/></symbol><symbol overflow="visible" id="d"><path d="M3.688-5.016v2.172h2.17v.672H3.69V0H3.03v-2.172H.845v-.672H3.03v-2.172zm0 0"/></symbol></defs><g><path fill="#fff" d="M0 0h300v300H0z"/><path d="M262.133 186.72l-8.695 4.264" stroke-width="1.2" stroke="#f00" stroke-miterlimit="10" fill="none"/><path d="M253.438 190.984l-8.7 4.266M263.44 167.387l-.65 9.664" stroke-width="1.2" stroke="#000" stroke-miterlimit="10" fill="none"/><path d="M262.79 177.05l-.657 9.67" stroke-width="1.2" stroke="#f00" stroke-miterlimit="10" fill="none"/><path d="M258.133 181.22h8v11h-8zm0 0" fill="#fff"/><use xlink:href="#a" x="258.133" y="189.882" fill="#f00"/><path d="M244.738 195.25l-16.086-10.797M228.652 184.453l.653-9.668" stroke-width="1.2" stroke="#000" stroke-miterlimit="10" fill="none"/><path d="M229.305 174.785l.652-9.664M229.957 165.12l8.7-4.265" stroke-width="1.2" stroke="#00f" stroke-miterlimit="10" fill="none"/><path d="M238.656 160.855l8.7-4.27" stroke-width="1.2" stroke="#000" stroke-miterlimit="10" fill="none"/><path d="M229.957 165.12l-8.043-5.397" stroke-width="1.2" stroke="#00f" stroke-miterlimit="10" fill="none"/><path d="M221.914 159.723l-8.043-5.403" stroke-width="1.2" stroke="#000" stroke-miterlimit="10" fill="none"/><path d="M219.957 157.62h21v15h-21zm0 0" fill="#fff"/><g fill="#00f"><use xlink:href="#b" x="219.957" y="169.723"/><use xlink:href="#c" x="226.935" y="169.723"/></g><use xlink:href="#d" x="233.949" y="164.84" fill="#00f"/><path d="M247.355 156.586l16.086 10.8M213.87 154.32l1.31-19.332M215.18 134.988l17.394-8.53M214.91 130.043l13.918-6.824M199.09 124.19l16.09 10.798M232.574 126.457l1.31-19.332M232.574 126.457l16.09 10.797M233.883 107.125l-16.086-10.797M229.734 109.832l-12.87-8.64M217.797 96.328l-17.4 8.53M200.398 104.86l-1.308 19.33M204.816 107.102l-1.046 15.464M199.09 124.19l-8.695 4.267" stroke-width="1.2" stroke="#000" stroke-miterlimit="10" fill="none"/><path d="M190.395 128.457l-8.7 4.27M181.695 132.727l-8.043-5.403" stroke-width="1.2" stroke="#00f" stroke-miterlimit="10" fill="none"/><path d="M173.652 127.324l-8.043-5.398" stroke-width="1.2" stroke="#000" stroke-miterlimit="10" fill="none"/><path d="M174.695 127.227h14v11h-14zm0 0" fill="#fff"/><g fill="#00f"><use xlink:href="#b" x="174.695" y="135.89"/><use xlink:href="#c" x="181.673" y="135.89"/></g><path d="M165.61 121.926l-17.395 8.535M148.215 130.46l-1.664 9.544" stroke-width="1.2" stroke="#000" stroke-miterlimit="10" fill="none"/><path d="M146.55 140.004l-1.66 9.543M131.086 121.402l8.562 4.528" stroke-width="1.2" stroke="#00f" stroke-miterlimit="10" fill="none"/><path d="M139.648 125.93l8.567 4.53" stroke-width="1.2" stroke="#000" stroke-miterlimit="10" fill="none"/><path d="M130.668 126.336l6.852 3.625" stroke-width="1.2" stroke="#00f" stroke-miterlimit="10" fill="none"/><path d="M137.52 129.96l6.847 3.622" stroke-width="1.2" stroke="#000" stroke-miterlimit="10" fill="none"/><path d="M144.89 149.547l-9.59 1.37" stroke-width="1.2" stroke="#00f" stroke-miterlimit="10" fill="none"/><path d="M135.3 150.918l-9.59 1.37" stroke-width="1.2" stroke="#000" stroke-miterlimit="10" fill="none"/><path d="M137.89 144.047h14v11h-14zm0 0" fill="#fff"/><g fill="#00f"><use xlink:href="#b" x="137.891" y="152.71"/><use xlink:href="#c" x="144.868" y="152.71"/></g><path d="M125.71 152.29l-8.534-17.395M128.95 148.54l-6.825-13.915M125.71 152.29l-9.058 17.128M117.176 134.895l6.957-6.747" stroke-width="1.2" stroke="#000" stroke-miterlimit="10" fill="none"/><path d="M124.133 128.148l6.953-6.746" stroke-width="1.2" stroke="#00f" stroke-miterlimit="10" fill="none"/><path d="M117.176 134.895L98.09 131.57" stroke-width="1.2" stroke="#000" stroke-miterlimit="10" fill="none"/><path d="M128.086 115.902h7v11h-7zm0 0" fill="#fff"/><use xlink:href="#b" x="128.086" y="124.565" fill="#00f"/><path d="M98.09 131.57l-6.668-18.19M98.09 131.57l-12.422 14.87M93.348 130.137L83.41 142.03M91.422 113.38l-19.09-3.32M88.73 117.54l-15.27-2.657M72.332 110.06L59.91 124.93M59.91 124.93l3.336 9.093" stroke-width="1.2" stroke="#000" stroke-miterlimit="10" fill="none"/><path d="M63.246 134.023l3.332 9.098M40.547 125.648l9.683-.36" stroke-width="1.2" stroke="#00f" stroke-miterlimit="10" fill="none"/><path d="M50.23 125.29l9.68-.36" stroke-width="1.2" stroke="#000" stroke-miterlimit="10" fill="none"/><path d="M42.652 130.133l7.746-.29" stroke-width="1.2" stroke="#00f" stroke-miterlimit="10" fill="none"/><path d="M50.398 129.844l7.747-.29" stroke-width="1.2" stroke="#000" stroke-miterlimit="10" fill="none"/><path d="M66.578 143.12l-15.242 11.962M66.578 143.12l9.547 1.66" stroke-width="1.2" stroke="#00f" stroke-miterlimit="10" fill="none"/><path d="M76.125 144.78l9.543 1.66" stroke-width="1.2" stroke="#000" stroke-miterlimit="10" fill="none"/><path d="M63.578 137.62h7v11h-7zm0 0" fill="#fff"/><use xlink:href="#b" x="63.578" y="146.284" fill="#00f"/><path d="M51.336 155.082l-8.043-5.398" stroke-width="1.2" stroke="#00f" stroke-miterlimit="10" fill="none"/><path d="M43.293 149.684l-8.043-5.4" stroke-width="1.2" stroke="#000" stroke-miterlimit="10" fill="none"/><path d="M52.27 150.22l-6.434-4.322" stroke-width="1.2" stroke="#00f" stroke-miterlimit="10" fill="none"/><path d="M45.836 145.898l-6.438-4.32" stroke-width="1.2" stroke="#000" stroke-miterlimit="10" fill="none"/><path d="M48.336 149.582h7v11h-7zm0 0" fill="#fff"/><use xlink:href="#b" x="48.336" y="158.245" fill="#00f"/><path d="M35.25 144.285l2.648-9.32" stroke-width="1.2" stroke="#000" stroke-miterlimit="10" fill="none"/><path d="M37.898 134.965l2.65-9.317" stroke-width="1.2" stroke="#00f" stroke-miterlimit="10" fill="none"/><path d="M37.547 120.148h7v11h-7zm0 0" fill="#fff"/><use xlink:href="#b" x="37.547" y="128.812" fill="#00f"/><path d="M116.652 169.418l-9.68.36" stroke-width="1.2" stroke="#000" stroke-miterlimit="10" fill="none"/><path d="M106.973 169.777l-9.684.36" stroke-width="1.2" stroke="#00f" stroke-miterlimit="10" fill="none"/><path d="M114.887 174.043l-7.746.29" stroke-width="1.2" stroke="#000" stroke-miterlimit="10" fill="none"/><path d="M107.14 174.332l-7.745.29" stroke-width="1.2" stroke="#00f" stroke-miterlimit="10" fill="none"/><path d="M126.957 185.824l-10.305-16.406" stroke-width="1.2" stroke="#000" stroke-miterlimit="10" fill="none"/><path d="M97.29 170.137L92.76 178.7" stroke-width="1.2" stroke="#00f" stroke-miterlimit="10" fill="none"/><path d="M92.762 178.7l-4.528 8.566" stroke-width="1.2" stroke="#000" stroke-miterlimit="10" fill="none"/><path d="M94.29 164.637h7v11h-7zm0 0" fill="#fff"/><use xlink:href="#b" x="94.289" y="173.3" fill="#00f"/><path d="M88.234 187.266l10.305 16.406M93.125 186.48l8.242 13.125M88.234 187.266l-19.363.718M98.54 203.672l19.358-.72M117.898 202.953l9.06-17.13M114.777 199.11l7.246-13.704M248.664 137.254l8.043 5.402" stroke-width="1.2" stroke="#000" stroke-miterlimit="10" fill="none"/><path d="M256.707 142.656l8.043 5.4" stroke-width="1.2" stroke="#00f" stroke-miterlimit="10" fill="none"/><path d="M247.73 142.12l6.434 4.32" stroke-width="1.2" stroke="#000" stroke-miterlimit="10" fill="none"/><path d="M254.164 146.44l6.438 4.318" stroke-width="1.2" stroke="#00f" stroke-miterlimit="10" fill="none"/><path d="M252.813 134.55l6.433 4.32" stroke-width="1.2" stroke="#000" stroke-miterlimit="10" fill="none"/><path d="M259.246 138.87l6.438 4.317" stroke-width="1.2" stroke="#00f" stroke-miterlimit="10" fill="none"/><path d="M261.75 142.555h7v11h-7zm0 0" fill="#fff"/><use xlink:href="#b" x="261.75" y="151.218" fill="#00f"/></g></svg>