<svg xmlns="http://www.w3.org/2000/svg" xmlns:xlink="http://www.w3.org/1999/xlink" width="300pt" height="300pt" viewBox="0 0 300 300"><defs><symbol overflow="visible"><path d="M.453 1.594v-7.938h4.5v7.938zm.5-.5h3.5v-6.938h-3.5zm0 0"/></symbol><symbol overflow="visible" id="a"><path d="M4.813-6.344v.86c-.336-.157-.653-.27-.954-.344-.294-.082-.58-.125-.86-.125-.492 0-.867.094-1.125.28-.262.19-.39.454-.39.798 0 .293.085.512.265.656.176.15.504.267.984.36l.547.11c.658.125 1.142.352 1.454.672.32.312.485.734.485 1.265 0 .637-.216 1.122-.642 1.454-.43.325-1.055.485-1.875.485-.312 0-.648-.04-1-.11C1.36-.046 1-.147.625-.296v-.906c.352.2.703.35 1.047.453.35.105.695.156 1.03.156.5 0 .884-.097 1.157-.297.28-.196.42-.485.42-.86 0-.32-.1-.57-.296-.75-.2-.176-.523-.313-.968-.406l-.547-.11C1.81-3.148 1.33-3.36 1.03-3.64.74-3.923.595-4.313.595-4.813c0-.57.203-1.024.61-1.36.405-.344.968-.516 1.687-.516.313 0 .626.032.938.094.32.055.65.137.985.25zm0 0"/></symbol><symbol overflow="visible" id="b"><path d="M3.547-5.953c-.65 0-1.164.242-1.547.72-.375.48-.563 1.13-.563 1.952 0 .835.188 1.49.563 1.967.383.48.898.72 1.547.72.644 0 1.156-.24 1.53-.72.376-.476.564-1.132.564-1.968 0-.822-.187-1.474-.562-1.954-.375-.477-.887-.72-1.53-.72zm0-.734c.914 0 1.648.312 2.203.937.55.617.828 1.438.828 2.47 0 1.042-.277 1.87-.828 2.483-.555.617-1.29.922-2.203.922-.93 0-1.668-.305-2.22-.922C.774-1.41.5-2.237.5-3.28c0-1.033.273-1.853.828-2.47.55-.625 1.29-.938 2.22-.938zm0 0"/></symbol><symbol overflow="visible" id="c"><path d="M.89-6.563H2.08l2.906 5.485v-5.484h.86V0H4.656L1.75-5.484V0H.89zm0 0"/></symbol><symbol overflow="visible" id="d"><path d="M.89-6.563h.876v2.688H5v-2.688h.89V0H5v-3.125H1.766V0H.89zm0 0"/></symbol></defs><g><path fill="#fff" d="M0 0h300v300H0z"/><path d="M226.887 109.477l10.035 5.16" stroke-width="1.2" stroke="#cc0" stroke-miterlimit="10" fill="none"/><path d="M236.922 114.637l10.03 5.16" stroke-width="1.2" stroke="#f00" stroke-miterlimit="10" fill="none"/><path d="M229.316 104.758l10.032 5.156" stroke-width="1.2" stroke="#cc0" stroke-miterlimit="10" fill="none"/><path d="M239.348 109.914l10.03 5.16" stroke-width="1.2" stroke="#f00" stroke-miterlimit="10" fill="none"/><path d="M229.316 104.758l-10.03-5.16" stroke-width="1.2" stroke="#cc0" stroke-miterlimit="10" fill="none"/><path d="M219.285 99.598l-10.03-5.16" stroke-width="1.2" stroke="#f00" stroke-miterlimit="10" fill="none"/><path d="M226.887 109.477l-10.032-5.16" stroke-width="1.2" stroke="#cc0" stroke-miterlimit="10" fill="none"/><path d="M216.855 104.316l-10.03-5.156" stroke-width="1.2" stroke="#f00" stroke-miterlimit="10" fill="none"/><path d="M228.102 107.117l-5.16 10.03" stroke-width="1.2" stroke="#cc0" stroke-miterlimit="10" fill="none"/><path d="M222.94 117.148l-5.155 10.032" stroke-width="1.2" stroke="#00f" stroke-miterlimit="10" fill="none"/><path d="M228.102 107.117l5.16-10.03" stroke-width="1.2" stroke="#cc0" stroke-miterlimit="10" fill="none"/><path d="M233.262 97.086l5.16-10.03" stroke-width="1.2" stroke="#000" stroke-miterlimit="10" fill="none"/><path d="M225.102 101.617h6v11h-6zm0 0" fill="#fff"/><use xlink:href="#a" x="225.102" y="110.28" fill="#cc0"/><path d="M244.164 111.938h8v11h-8zm0 0" fill="#fff"/><use xlink:href="#b" x="244.164" y="120.601" fill="#f00"/><path d="M200.04 91.297h8v11h-8zm0 0" fill="#fff"/><use xlink:href="#b" x="200.039" y="99.96" fill="#f00"/><path d="M217.785 127.18l6.106 9.484" stroke-width="1.2" stroke="#00f" stroke-miterlimit="10" fill="none"/><path d="M223.89 136.664l6.11 9.484" stroke-width="1.2" stroke="#000" stroke-miterlimit="10" fill="none"/><path d="M210.785 121.68h14v11h-14zm0 0" fill="#fff"/><g fill="#00f"><use xlink:href="#c" x="210.785" y="130.343"/><use xlink:href="#d" x="217.763" y="130.343"/></g><path d="M230 146.148l22.535-1.093M232.512 151.34l18.027-.875M219.68 166.21L230 146.15M252.535 145.055l12.215 18.965M264.75 164.02l-10.32 20.066M258.996 163.598l-8.254 16.05M254.43 184.086l-22.532 1.094M231.898 185.18l-12.218-18.97M235.137 180.406l-9.77-15.172M219.68 166.21l-11.266.548" stroke-width="1.2" stroke="#000" stroke-miterlimit="10" fill="none"/><path d="M208.414 166.758l-11.27.547M197.145 167.305l-6.106-9.48" stroke-width="1.2" stroke="#00f" stroke-miterlimit="10" fill="none"/><path d="M191.04 157.824l-6.11-9.484" stroke-width="1.2" stroke="#000" stroke-miterlimit="10" fill="none"/><path d="M190.145 161.805h14v11h-14zm0 0" fill="#fff"/><g fill="#00f"><use xlink:href="#c" x="190.145" y="170.468"/><use xlink:href="#d" x="197.122" y="170.468"/></g><path d="M184.93 148.34l-22.535 1.094M162.395 149.434l-6.18 9.437" stroke-width="1.2" stroke="#000" stroke-miterlimit="10" fill="none"/><path d="M156.215 158.87l-6.18 9.44M148.266 131.848l7.062 8.793" stroke-width="1.2" stroke="#00f" stroke-miterlimit="10" fill="none"/><path d="M155.328 140.64l7.067 8.794" stroke-width="1.2" stroke="#000" stroke-miterlimit="10" fill="none"/><path d="M145.54 136.93l5.65 7.035" stroke-width="1.2" stroke="#00f" stroke-miterlimit="10" fill="none"/><path d="M151.19 143.965l5.654 7.035" stroke-width="1.2" stroke="#000" stroke-miterlimit="10" fill="none"/><path d="M150.035 168.31l-10.883-2.962" stroke-width="1.2" stroke="#00f" stroke-miterlimit="10" fill="none"/><path d="M139.152 165.348l-10.886-2.96" stroke-width="1.2" stroke="#000" stroke-miterlimit="10" fill="none"/><path d="M143.035 162.81h14v11h-14zm0 0" fill="#fff"/><g fill="#00f"><use xlink:href="#c" x="143.035" y="171.472"/><use xlink:href="#d" x="150.013" y="171.472"/></g><path d="M128.266 162.387l-1.094-22.535M133.457 159.875l-.875-18.027M128.266 162.387L110.68 176.52M127.172 139.852l10.547-4.004" stroke-width="1.2" stroke="#000" stroke-miterlimit="10" fill="none"/><path d="M137.72 135.848l10.546-4" stroke-width="1.2" stroke="#00f" stroke-miterlimit="10" fill="none"/><path d="M127.172 139.852l-18.875-12.36" stroke-width="1.2" stroke="#000" stroke-miterlimit="10" fill="none"/><path d="M145.266 126.348h7v11h-7zm0 0" fill="#fff"/><use xlink:href="#c" x="145.266" y="135.011" fill="#00f"/><path d="M108.297 127.492l1.266-22.527M108.297 127.492l-20.14 10.168M103.89 123.77l-16.113 8.132M109.563 104.965l-18.876-12.36M104.766 108.172l-15.098-9.887M90.688 92.605l-20.14 10.168M70.547 102.773l-.633 11.262" stroke-width="1.2" stroke="#000" stroke-miterlimit="10" fill="none"/><path d="M69.914 114.035L69.28 125.3M49.516 94.61l10.515 4.08" stroke-width="1.2" stroke="#00f" stroke-miterlimit="10" fill="none"/><path d="M60.03 98.69l10.517 4.083" stroke-width="1.2" stroke="#000" stroke-miterlimit="10" fill="none"/><path d="M49.695 100.375l8.414 3.266" stroke-width="1.2" stroke="#00f" stroke-miterlimit="10" fill="none"/><path d="M58.11 103.64l8.413 3.266" stroke-width="1.2" stroke="#000" stroke-miterlimit="10" fill="none"/><path d="M69.28 125.3l-21.815 5.755M69.28 125.3l9.44 6.18" stroke-width="1.2" stroke="#00f" stroke-miterlimit="10" fill="none"/><path d="M78.72 131.48l9.436 6.18" stroke-width="1.2" stroke="#000" stroke-miterlimit="10" fill="none"/><path d="M66.28 119.8h7v11h-7zm0 0" fill="#fff"/><use xlink:href="#c" x="66.281" y="128.464" fill="#00f"/><path d="M47.465 131.055l-6.106-9.485" stroke-width="1.2" stroke="#00f" stroke-miterlimit="10" fill="none"/><path d="M41.36 121.57l-6.11-9.484" stroke-width="1.2" stroke="#000" stroke-miterlimit="10" fill="none"/><path d="M50.707 126.285l-4.887-7.59" stroke-width="1.2" stroke="#00f" stroke-miterlimit="10" fill="none"/><path d="M45.82 118.695l-4.886-7.586" stroke-width="1.2" stroke="#000" stroke-miterlimit="10" fill="none"/><path d="M44.465 125.555h7v11h-7zm0 0" fill="#fff"/><use xlink:href="#c" x="44.465" y="134.218" fill="#00f"/><path d="M35.25 112.086l7.133-8.738" stroke-width="1.2" stroke="#000" stroke-miterlimit="10" fill="none"/><path d="M42.383 103.348l7.133-8.74" stroke-width="1.2" stroke="#00f" stroke-miterlimit="10" fill="none"/><path d="M46.516 89.11h7v11h-7zm0 0" fill="#fff"/><use xlink:href="#c" x="46.516" y="97.772" fill="#00f"/><path d="M110.68 176.52l-10.516-4.086" stroke-width="1.2" stroke="#000" stroke-miterlimit="10" fill="none"/><path d="M100.164 172.434l-10.516-4.082" stroke-width="1.2" stroke="#00f" stroke-miterlimit="10" fill="none"/><path d="M106.656 180.648l-8.414-3.265" stroke-width="1.2" stroke="#000" stroke-miterlimit="10" fill="none"/><path d="M98.242 177.383l-8.414-3.266" stroke-width="1.2" stroke="#00f" stroke-miterlimit="10" fill="none"/><path d="M114.125 198.816l-3.445-22.296" stroke-width="1.2" stroke="#000" stroke-miterlimit="10" fill="none"/><path d="M89.648 168.352l-8.796 7.066" stroke-width="1.2" stroke="#00f" stroke-miterlimit="10" fill="none"/><path d="M80.852 175.418l-8.793 7.066" stroke-width="1.2" stroke="#000" stroke-miterlimit="10" fill="none"/><path d="M86.648 162.852h7v11h-7zm0 0" fill="#fff"/><use xlink:href="#c" x="86.648" y="171.515" fill="#00f"/><path d="M72.06 182.484l3.444 22.297M77.652 183.902l2.754 17.84M72.06 182.484l-21.033-8.164M75.504 204.78l21.03 8.165M96.535 212.945l17.59-14.13M94.97 207.395l14.07-11.305" stroke-width="1.2" stroke="#000" stroke-miterlimit="10" fill="none"/></g></svg>