<svg xmlns="http://www.w3.org/2000/svg" xmlns:xlink="http://www.w3.org/1999/xlink" width="300pt" height="300pt" viewBox="0 0 300 300"><defs><symbol overflow="visible"><path d="M.453 1.594v-7.938h4.5v7.938zm.5-.5h3.5v-6.938h-3.5zm0 0"/></symbol><symbol overflow="visible" id="a"><path d="M.89-6.563H2.08l2.906 5.485v-5.484h.86V0H4.656L1.75-5.484V0H.89zm0 0"/></symbol><symbol overflow="visible" id="b"><path d="M.89-6.563h.876v2.688H5v-2.688h.89V0H5v-3.125H1.766V0H.89zm0 0"/></symbol><symbol overflow="visible"><path d="M.406 1.422V-5.64h4V1.42zM.844.97h3.11v-6.157H.843zm0 0"/></symbol><symbol overflow="visible" id="c"><path d="M3.688-5.016v2.172h2.17v.672H3.69V0H3.03v-2.172H.845v-.672H3.03v-2.172zm0 0"/></symbol></defs><g><path fill="#fff" d="M0 0h300v300H0z"/><path d="M229.543 166.82l9.18-3.12" stroke-width="1.2" stroke="#00f" stroke-miterlimit="10" fill="none"/><path d="M238.723 163.7l9.175-3.122" stroke-width="1.2" stroke="#000" stroke-miterlimit="10" fill="none"/><path d="M229.543 166.82l-7.918-5.593" stroke-width="1.2" stroke="#00f" stroke-miterlimit="10" fill="none"/><path d="M221.625 161.227l-7.922-5.59M229.81 186.207l-.134-9.695" stroke-width="1.2" stroke="#000" stroke-miterlimit="10" fill="none"/><path d="M229.676 176.512l-.133-9.692" stroke-width="1.2" stroke="#00f" stroke-miterlimit="10" fill="none"/><path d="M219.543 159.32h21v15h-21zm0 0" fill="#fff"/><g fill="#00f"><use xlink:href="#a" x="219.543" y="171.422"/><use xlink:href="#b" x="226.521" y="171.422"/></g><use xlink:href="#c" x="233.535" y="166.539" fill="#00f"/><path d="M247.898 160.578l11.61 15.527M259.508 176.105l-11.184 15.84M248.324 191.945l-18.515-5.738M213.703 155.637l1.766-19.31M215.47 136.328l17.6-8.125M215.316 131.375l14.082-6.5M199.63 125.148l15.84 11.18M233.07 128.203l1.766-19.308M233.07 128.203l15.84 11.18M234.836 108.895l-15.84-11.184M230.62 111.504l-12.67-8.945M218.996 97.71l-17.6 8.13M201.395 105.84l-1.766 19.308M205.762 108.184l-1.414 15.45M199.63 125.148l-8.802 4.063" stroke-width="1.2" stroke="#000" stroke-miterlimit="10" fill="none"/><path d="M190.828 129.21l-8.8 4.063M182.027 133.273l-7.922-5.59" stroke-width="1.2" stroke="#00f" stroke-miterlimit="10" fill="none"/><path d="M174.105 127.684l-7.917-5.594" stroke-width="1.2" stroke="#000" stroke-miterlimit="10" fill="none"/><path d="M175.027 127.773h14v11h-14zm0 0" fill="#fff"/><g fill="#00f"><use xlink:href="#a" x="175.027" y="136.437"/><use xlink:href="#b" x="182.005" y="136.437"/></g><path d="M166.188 122.09l-17.606 8.13M148.582 130.22l-1.887 9.507" stroke-width="1.2" stroke="#000" stroke-miterlimit="10" fill="none"/><path d="M146.695 139.727l-1.886 9.507M131.66 120.754l8.46 4.73" stroke-width="1.2" stroke="#00f" stroke-miterlimit="10" fill="none"/><path d="M140.12 125.484l8.462 4.735" stroke-width="1.2" stroke="#000" stroke-miterlimit="10" fill="none"/><path d="M131.125 125.68l6.77 3.785" stroke-width="1.2" stroke="#00f" stroke-miterlimit="10" fill="none"/><path d="M137.895 129.465l6.77 3.79" stroke-width="1.2" stroke="#000" stroke-miterlimit="10" fill="none"/><path d="M144.81 149.234l-9.626 1.145" stroke-width="1.2" stroke="#00f" stroke-miterlimit="10" fill="none"/><path d="M135.184 150.38l-9.625 1.143" stroke-width="1.2" stroke="#000" stroke-miterlimit="10" fill="none"/><path d="M137.81 143.734h14v11h-14zm0 0" fill="#fff"/><g fill="#00f"><use xlink:href="#a" x="137.809" y="152.397"/><use xlink:href="#b" x="144.786" y="152.397"/></g><path d="M125.56 151.523l-8.13-17.6M128.887 147.852l-6.5-14.082M125.56 151.523l-9.466 16.922M117.43 133.922l7.117-6.586" stroke-width="1.2" stroke="#000" stroke-miterlimit="10" fill="none"/><path d="M124.547 127.336l7.113-6.582" stroke-width="1.2" stroke="#00f" stroke-miterlimit="10" fill="none"/><path d="M117.43 133.922l-19.016-3.774" stroke-width="1.2" stroke="#000" stroke-miterlimit="10" fill="none"/><path d="M128.66 115.254h7v11h-7zm0 0" fill="#fff"/><use xlink:href="#a" x="128.66" y="123.917" fill="#00f"/><path d="M98.414 130.148l-6.242-18.36M98.414 130.148L85.637 144.73M93.703 128.598l-10.22 11.668M92.172 111.79l-19.02-3.77M89.383 115.887l-15.215-3.016M73.152 108.02l-12.777 14.582M60.375 122.602l3.12 9.18" stroke-width="1.2" stroke="#000" stroke-miterlimit="10" fill="none"/><path d="M63.496 131.78l3.12 9.177M40.988 122.867l9.696-.133" stroke-width="1.2" stroke="#00f" stroke-miterlimit="10" fill="none"/><path d="M50.684 122.734l9.69-.132" stroke-width="1.2" stroke="#000" stroke-miterlimit="10" fill="none"/><path d="M42.992 127.402l7.754-.105" stroke-width="1.2" stroke="#00f" stroke-miterlimit="10" fill="none"/><path d="M50.746 127.297l7.754-.106" stroke-width="1.2" stroke="#000" stroke-miterlimit="10" fill="none"/><path d="M66.617 140.957l-15.527 11.61M66.617 140.957l9.512 1.887" stroke-width="1.2" stroke="#00f" stroke-miterlimit="10" fill="none"/><path d="M76.13 142.844l9.507 1.886" stroke-width="1.2" stroke="#000" stroke-miterlimit="10" fill="none"/><path d="M63.617 135.457h7v11h-7zm0 0" fill="#fff"/><use xlink:href="#a" x="63.617" y="144.12" fill="#00f"/><path d="M51.09 152.566l-7.922-5.59" stroke-width="1.2" stroke="#00f" stroke-miterlimit="10" fill="none"/><path d="M43.168 146.977l-7.918-5.59" stroke-width="1.2" stroke="#000" stroke-miterlimit="10" fill="none"/><path d="M52.137 147.723L45.8 143.25" stroke-width="1.2" stroke="#00f" stroke-miterlimit="10" fill="none"/><path d="M45.8 143.25l-6.335-4.473" stroke-width="1.2" stroke="#000" stroke-miterlimit="10" fill="none"/><path d="M48.09 147.066h7v11h-7zm0 0" fill="#fff"/><use xlink:href="#a" x="48.09" y="155.729" fill="#00f"/><path d="M35.25 141.387l2.87-9.262" stroke-width="1.2" stroke="#000" stroke-miterlimit="10" fill="none"/><path d="M38.12 132.125l2.868-9.258" stroke-width="1.2" stroke="#00f" stroke-miterlimit="10" fill="none"/><path d="M37.988 117.367h7v11h-7zm0 0" fill="#fff"/><use xlink:href="#a" x="37.988" y="126.03" fill="#00f"/><path d="M116.094 168.445l-9.696.133" stroke-width="1.2" stroke="#000" stroke-miterlimit="10" fill="none"/><path d="M106.398 168.578l-9.695.13" stroke-width="1.2" stroke="#00f" stroke-miterlimit="10" fill="none"/><path d="M114.215 173.03l-7.754.107" stroke-width="1.2" stroke="#000" stroke-miterlimit="10" fill="none"/><path d="M106.46 173.137l-7.753.105" stroke-width="1.2" stroke="#00f" stroke-miterlimit="10" fill="none"/><path d="M126.012 185.102l-9.918-16.657" stroke-width="1.2" stroke="#000" stroke-miterlimit="10" fill="none"/><path d="M96.703 168.707l-4.73 8.46" stroke-width="1.2" stroke="#00f" stroke-miterlimit="10" fill="none"/><path d="M91.973 177.168l-4.735 8.46" stroke-width="1.2" stroke="#000" stroke-miterlimit="10" fill="none"/><path d="M93.703 163.207h7v11h-7zm0 0" fill="#fff"/><use xlink:href="#a" x="93.703" y="171.87" fill="#00f"/><path d="M87.238 185.63l9.922 16.66M92.152 184.96l7.938 13.33M87.238 185.63l-19.386.265M97.16 202.29l19.387-.267M116.547 202.023l9.465-16.92M113.512 198.105l7.574-13.54M248.91 139.383l7.922 5.594" stroke-width="1.2" stroke="#000" stroke-miterlimit="10" fill="none"/><path d="M256.832 144.977l7.918 5.59" stroke-width="1.2" stroke="#00f" stroke-miterlimit="10" fill="none"/><path d="M247.863 144.23l6.336 4.473" stroke-width="1.2" stroke="#000" stroke-miterlimit="10" fill="none"/><path d="M254.2 148.703l6.335 4.473" stroke-width="1.2" stroke="#00f" stroke-miterlimit="10" fill="none"/><path d="M253.125 136.777l6.336 4.473" stroke-width="1.2" stroke="#000" stroke-miterlimit="10" fill="none"/><path d="M259.46 141.25l6.337 4.473" stroke-width="1.2" stroke="#00f" stroke-miterlimit="10" fill="none"/><path d="M261.75 145.066h7v11h-7zm0 0" fill="#fff"/><use xlink:href="#a" x="261.75" y="153.729" fill="#00f"/></g></svg>