<svg xmlns="http://www.w3.org/2000/svg" xmlns:xlink="http://www.w3.org/1999/xlink" width="300pt" height="300pt" viewBox="0 0 300 300"><defs><symbol overflow="visible"><path d="M.453 1.594v-7.938h4.5v7.938zm.5-.5h3.5v-6.938h-3.5zm0 0"/></symbol><symbol overflow="visible" id="a"><path d="M.89-6.563h3.766v.75h-2.89v1.938h2.61v.734h-2.61V0H.89zm0 0"/></symbol><symbol overflow="visible" id="b"><path d="M.89-6.563H2.08l2.906 5.485v-5.484h.86V0H4.656L1.75-5.484V0H.89zm0 0"/></symbol><symbol overflow="visible" id="c"><path d="M.89-6.563h.876v2.688H5v-2.688h.89V0H5v-3.125H1.766V0H.89zm0 0"/></symbol><symbol overflow="visible" id="d"><path d="M3.547-5.953c-.65 0-1.164.242-1.547.72-.375.48-.563 1.13-.563 1.952 0 .835.188 1.49.563 1.967.383.48.898.72 1.547.72.644 0 1.156-.24 1.53-.72.376-.476.564-1.132.564-1.968 0-.822-.187-1.474-.562-1.954-.375-.477-.887-.72-1.53-.72zm0-.734c.914 0 1.648.312 2.203.937.55.617.828 1.438.828 2.47 0 1.042-.277 1.87-.828 2.483-.555.617-1.29.922-2.203.922-.93 0-1.668-.305-2.22-.922C.774-1.41.5-2.237.5-3.28c0-1.033.273-1.853.828-2.47.55-.625 1.29-.938 2.22-.938zm0 0"/></symbol></defs><g><path fill="#fff" d="M0 0h300v300H0z"/><path d="M251.363 108.398l-1.492 10.317" stroke-width="1.2" stroke="#3cc" stroke-miterlimit="10" fill="none"/><path d="M249.87 118.715l-1.49 10.312" stroke-width="1.2" stroke="#000" stroke-miterlimit="10" fill="none"/><path d="M248.363 102.898h6v11h-6zm0 0" fill="#fff"/><use xlink:href="#a" x="248.363" y="111.562" fill="#3cc"/><path d="M248.38 129.027l16.37 12.903M246.98 134.172l13.098 10.32M229.02 136.758l19.36-7.73M264.75 141.93l-2.988 20.63M261.762 162.56l-19.356 7.725M258.008 158.777l-15.485 6.18M242.406 170.285l-16.375-12.898M226.03 157.387l2.99-20.63M231.184 156.023l2.39-16.5M229.02 136.758l-8.188-6.453" stroke-width="1.2" stroke="#000" stroke-miterlimit="10" fill="none"/><path d="M220.832 130.305l-8.187-6.45M212.645 123.855l-9.676 3.864" stroke-width="1.2" stroke="#00f" stroke-miterlimit="10" fill="none"/><path d="M202.97 127.72l-9.68 3.862" stroke-width="1.2" stroke="#000" stroke-miterlimit="10" fill="none"/><path d="M205.645 118.355h14v11h-14zm0 0" fill="#fff"/><g fill="#00f"><use xlink:href="#b" x="205.645" y="127.019"/><use xlink:href="#c" x="212.622" y="127.019"/></g><path d="M190.86 131.23l-1.493 10.317" stroke-width="1.2" stroke="#000" stroke-miterlimit="10" fill="none"/><path d="M189.367 141.547l-1.492 10.316" stroke-width="1.2" stroke="#f00" stroke-miterlimit="10" fill="none"/><path d="M195.715 131.934l-1.492 10.316" stroke-width="1.2" stroke="#000" stroke-miterlimit="10" fill="none"/><path d="M194.223 142.25l-1.496 10.313" stroke-width="1.2" stroke="#f00" stroke-miterlimit="10" fill="none"/><path d="M193.29 131.582l-16.376-12.898" stroke-width="1.2" stroke="#000" stroke-miterlimit="10" fill="none"/><path d="M186.3 146.71h8v11h-8zm0 0" fill="#fff"/><use xlink:href="#d" x="186.301" y="155.374" fill="#f00"/><path d="M176.914 118.684l-9.68 3.863" stroke-width="1.2" stroke="#000" stroke-miterlimit="10" fill="none"/><path d="M167.234 122.547l-9.68 3.863M157.555 126.41l-5.125 20.203" stroke-width="1.2" stroke="#00f" stroke-miterlimit="10" fill="none"/><path d="M139.926 115.293l8.816 5.56" stroke-width="1.2" stroke="#000" stroke-miterlimit="10" fill="none"/><path d="M148.742 120.852l8.813 5.558" stroke-width="1.2" stroke="#00f" stroke-miterlimit="10" fill="none"/><path d="M154.555 120.91h7v11h-7zm0 0" fill="#fff"/><use xlink:href="#b" x="154.555" y="129.573" fill="#00f"/><path d="M152.43 146.613l-10.4.684" stroke-width="1.2" stroke="#00f" stroke-miterlimit="10" fill="none"/><path d="M142.03 147.297l-10.4.687" stroke-width="1.2" stroke="#000" stroke-miterlimit="10" fill="none"/><path d="M150.027 141.86l-8.32.546" stroke-width="1.2" stroke="#00f" stroke-miterlimit="10" fill="none"/><path d="M141.707 142.406l-8.32.547" stroke-width="1.2" stroke="#000" stroke-miterlimit="10" fill="none"/><path d="M149.43 141.113h7v11h-7zm0 0" fill="#fff"/><use xlink:href="#b" x="149.43" y="149.776" fill="#00f"/><path d="M131.63 147.984l-7.728-19.36M131.63 147.984l-11.118 17.63M123.902 128.625l16.024-13.332M128.64 131.063l12.82-10.668M123.902 128.625l-20.203-5.13M103.7 123.496l-5.665-20.058M103.7 123.496L89.155 138.43M98.73 121.57l-11.632 11.946M98.035 103.438l-20.203-5.13M94.81 107.68l-16.165-4.102M77.832 98.31L63.29 113.24M63.29 113.242l2.83 10.03" stroke-width="1.2" stroke="#000" stroke-miterlimit="10" fill="none"/><path d="M66.12 123.273l2.833 10.032M42.46 112.43l10.415.406" stroke-width="1.2" stroke="#00f" stroke-miterlimit="10" fill="none"/><path d="M52.875 112.836l10.414.406" stroke-width="1.2" stroke="#000" stroke-miterlimit="10" fill="none"/><path d="M44.352 117.414l8.332.324" stroke-width="1.2" stroke="#00f" stroke-miterlimit="10" fill="none"/><path d="M52.684 117.738l8.332.325" stroke-width="1.2" stroke="#000" stroke-miterlimit="10" fill="none"/><path d="M68.953 133.305L51.62 144.89M68.953 133.305l10.102 2.562" stroke-width="1.2" stroke="#00f" stroke-miterlimit="10" fill="none"/><path d="M79.055 135.867l10.1 2.563" stroke-width="1.2" stroke="#000" stroke-miterlimit="10" fill="none"/><path d="M65.953 127.805h7v11h-7zm0 0" fill="#fff"/><use xlink:href="#b" x="65.953" y="136.468" fill="#00f"/><path d="M51.62 144.89l-8.182-6.452" stroke-width="1.2" stroke="#00f" stroke-miterlimit="10" fill="none"/><path d="M43.438 138.438l-8.188-6.45" stroke-width="1.2" stroke="#000" stroke-miterlimit="10" fill="none"/><path d="M53.02 139.746l-6.547-5.16" stroke-width="1.2" stroke="#00f" stroke-miterlimit="10" fill="none"/><path d="M46.473 134.586l-6.55-5.16" stroke-width="1.2" stroke="#000" stroke-miterlimit="10" fill="none"/><path d="M48.62 139.39h7v11h-7zm0 0" fill="#fff"/><use xlink:href="#b" x="48.621" y="148.054" fill="#00f"/><path d="M35.25 131.988l3.605-9.777" stroke-width="1.2" stroke="#000" stroke-miterlimit="10" fill="none"/><path d="M38.855 122.21l3.606-9.78" stroke-width="1.2" stroke="#00f" stroke-miterlimit="10" fill="none"/><path d="M39.46 106.93h7v11h-7zm0 0" fill="#fff"/><use xlink:href="#b" x="39.461" y="115.593" fill="#00f"/><path d="M120.512 165.613l-10.414-.406" stroke-width="1.2" stroke="#000" stroke-miterlimit="10" fill="none"/><path d="M110.098 165.207l-10.414-.406" stroke-width="1.2" stroke="#00f" stroke-miterlimit="10" fill="none"/><path d="M118.238 170.434l-8.332-.325" stroke-width="1.2" stroke="#000" stroke-miterlimit="10" fill="none"/><path d="M109.906 170.11l-8.332-.33" stroke-width="1.2" stroke="#00f" stroke-miterlimit="10" fill="none"/><path d="M130.22 184.06l-9.708-18.447" stroke-width="1.2" stroke="#000" stroke-miterlimit="10" fill="none"/><path d="M99.684 164.8l-5.563 8.817" stroke-width="1.2" stroke="#00f" stroke-miterlimit="10" fill="none"/><path d="M94.12 173.617l-5.558 8.813" stroke-width="1.2" stroke="#000" stroke-miterlimit="10" fill="none"/><path d="M96.684 159.3h7v11h-7zm0 0" fill="#fff"/><use xlink:href="#b" x="96.684" y="167.964" fill="#00f"/><path d="M88.563 182.43l9.71 18.445M93.875 181.992l7.766 14.754M88.563 182.43l-20.83-.813M98.273 200.875l20.83.816M119.102 201.69l11.117-17.63M116.066 197.313l8.895-14.106" stroke-width="1.2" stroke="#000" stroke-miterlimit="10" fill="none"/></g></svg>