<svg xmlns="http://www.w3.org/2000/svg" xmlns:xlink="http://www.w3.org/1999/xlink" width="300pt" height="300pt" viewBox="0 0 300 300"><defs><symbol overflow="visible"><path d="M.453 1.594v-7.938h4.5v7.938zm.5-.5h3.5v-6.938h-3.5zm0 0"/></symbol><symbol overflow="visible" id="a"><path d="M.89-6.563H2.08l2.906 5.485v-5.484h.86V0H4.656L1.75-5.484V0H.89zm0 0"/></symbol><symbol overflow="visible" id="b"><path d="M3.547-5.953c-.65 0-1.164.242-1.547.72-.375.48-.563 1.13-.563 1.952 0 .835.188 1.49.563 1.967.383.48.898.72 1.547.72.644 0 1.156-.24 1.53-.72.376-.476.564-1.132.564-1.968 0-.822-.187-1.474-.562-1.954-.375-.477-.887-.72-1.53-.72zm0-.734c.914 0 1.648.312 2.203.937.55.617.828 1.438.828 2.47 0 1.042-.277 1.87-.828 2.483-.555.617-1.29.922-2.203.922-.93 0-1.668-.305-2.22-.922C.774-1.41.5-2.237.5-3.28c0-1.033.273-1.853.828-2.47.55-.625 1.29-.938 2.22-.938zm0 0"/></symbol><symbol overflow="visible" id="c"><path d="M.89-6.563h.876v2.688H5v-2.688h.89V0H5v-3.125H1.766V0H.89zm0 0"/></symbol><symbol overflow="visible"><path d="M.406 1.422V-5.64h4V1.42zM.844.97h3.11v-6.157H.843zm0 0"/></symbol><symbol overflow="visible" id="d"><path d="M1.53-.672h2.767V0H.594v-.672c.29-.3.695-.71 1.22-1.234.518-.532.842-.867.967-1.016.26-.28.44-.52.533-.72.1-.194.156-.39.156-.577 0-.31-.11-.565-.33-.764-.218-.196-.5-.297-.843-.297-.25 0-.516.046-.797.14-.273.085-.563.214-.875.39v-.797c.32-.133.617-.234.89-.297.282-.062.536-.093.766-.093.603 0 1.083.152 1.44.453.362.304.546.703.546 1.203 0 .24-.047.468-.14.686-.095.22-.26.477-.485.766-.074.074-.288.293-.64.656-.344.356-.836.856-1.47 1.5zm0 0"/></symbol><symbol overflow="visible" id="e"><path d="M3.688-5.016v2.172h2.17v.672H3.69V0H3.03v-2.172H.845v-.672H3.03v-2.172zm0 0"/></symbol></defs><g><path fill="#fff" d="M0 0h300v300H0z"/><path d="M97.996 142.688l2.31-7.58" stroke-width="1.2" stroke="#00f" stroke-miterlimit="10" fill="none"/><path d="M100.305 135.11l2.304-7.58" stroke-width="1.2" stroke="#000" stroke-miterlimit="10" fill="none"/><path d="M97.996 142.688l4.777 6.316" stroke-width="1.2" stroke="#00f" stroke-miterlimit="10" fill="none"/><path d="M102.773 149.004l4.774 6.32M82.16 142.984l7.918-.148" stroke-width="1.2" stroke="#000" stroke-miterlimit="10" fill="none"/><path d="M90.078 142.836l7.918-.15" stroke-width="1.2" stroke="#00f" stroke-miterlimit="10" fill="none"/><path d="M94.996 137.188h7v11h-7zm0 0" fill="#fff"/><use xlink:href="#a" x="94.996" y="145.851" fill="#00f"/><path d="M102.61 127.53l-12.99-9.07M89.62 118.46l-12.636 9.552M76.984 128.012l5.176 14.972" stroke-width="1.2" stroke="#000" stroke-miterlimit="10" fill="none"/><path d="M82.16 142.984m-2.12 2.12l.855.6m-2.973 1.526l1.71 1.196m-3.83.93l2.565 1.79m-4.683.33l3.418 2.39m-5.54-.264l4.278 2.984m-5.043-2.215l4.586 3.2" stroke="#000" stroke-miterlimit="10" fill="none"/><path d="M71.402 156.762l3.356 7.172" stroke-width="1.2" stroke="#000" stroke-miterlimit="10" fill="none"/><path d="M74.758 163.934l3.355 7.175" stroke-width="1.2" stroke="#f00" stroke-miterlimit="10" fill="none"/><path d="M74.777 155.18l3.356 7.175" stroke-width="1.2" stroke="#000" stroke-miterlimit="10" fill="none"/><path d="M78.133 162.355l3.36 7.172" stroke-width="1.2" stroke="#f00" stroke-miterlimit="10" fill="none"/><path d="M73.09 155.97l-7.89-.68" stroke-width="1.2" stroke="#000" stroke-miterlimit="10" fill="none"/><path d="M65.2 155.29l-7.89-.68" stroke-width="1.2" stroke="#f00" stroke-miterlimit="10" fill="none"/><path d="M75.8 164.82h8v11h-8zm0 0" fill="#fff"/><use xlink:href="#b" x="75.801" y="173.483" fill="#f00"/><path d="M57.31 154.61l-4.537 6.495" stroke-width="1.2" stroke="#f00" stroke-miterlimit="10" fill="none"/><path d="M52.773 161.105l-4.535 6.493" stroke-width="1.2" stroke="#000" stroke-miterlimit="10" fill="none"/><path d="M53.31 149.11h8v11h-8zm0 0" fill="#fff"/><use xlink:href="#b" x="53.309" y="157.772" fill="#f00"/><path d="M48.238 167.598l-12.988-9.07M48.238 167.598l12.99 9.07M48.238 167.598l-9.07 12.988M105.828 154.598l-3.082 7.297" stroke-width="1.2" stroke="#000" stroke-miterlimit="10" fill="none"/><path d="M102.746 161.895l-3.086 7.292" stroke-width="1.2" stroke="#f00" stroke-miterlimit="10" fill="none"/><path d="M109.262 156.05l-3.086 7.294" stroke-width="1.2" stroke="#000" stroke-miterlimit="10" fill="none"/><path d="M106.176 163.344l-3.082 7.297" stroke-width="1.2" stroke="#f00" stroke-miterlimit="10" fill="none"/><path d="M107.547 155.324l15.72-1.95" stroke-width="1.2" stroke="#000" stroke-miterlimit="10" fill="none"/><path d="M93.375 164.414h8v11h-8zm0 0" fill="#fff"/><use xlink:href="#b" x="93.375" y="173.077" fill="#f00"/><path d="M123.266 153.375l9.55 12.637M127.195 152.39l7.64 10.114M129.438 138.785l-6.172 14.59M132.816 166.012l15.72-1.95M148.535 164.063l6.172-14.59M145.723 161.152l4.933-11.672M154.707 149.473l-9.55-12.637M154.707 149.473l7.86-.977" stroke-width="1.2" stroke="#000" stroke-miterlimit="10" fill="none"/><path d="M162.566 148.496l7.864-.973" stroke-width="1.2" stroke="#00f" stroke-miterlimit="10" fill="none"/><path d="M145.156 136.836l-15.72 1.95M144.047 140.727l-12.578 1.562" stroke-width="1.2" stroke="#000" stroke-miterlimit="10" fill="none"/><path d="M170.43 147.523l4.773 6.32" stroke-width="1.2" stroke="#00f" stroke-miterlimit="10" fill="none"/><path d="M175.203 153.844l4.774 6.316" stroke-width="1.2" stroke="#000" stroke-miterlimit="10" fill="none"/><path d="M163.43 142.023h14v11h-14zm0 0" fill="#fff"/><g fill="#00f"><use xlink:href="#a" x="163.43" y="150.687"/><use xlink:href="#c" x="170.407" y="150.687"/></g><path d="M179.977 160.16l15.722-1.95M178.262 159.434l-3.086 7.296" stroke-width="1.2" stroke="#000" stroke-miterlimit="10" fill="none"/><path d="M175.176 166.73l-3.086 7.293" stroke-width="1.2" stroke="#f00" stroke-miterlimit="10" fill="none"/><path d="M181.695 160.887l-3.086 7.297" stroke-width="1.2" stroke="#000" stroke-miterlimit="10" fill="none"/><path d="M178.61 168.184l-3.087 7.293" stroke-width="1.2" stroke="#f00" stroke-miterlimit="10" fill="none"/><path d="M195.7 158.21l4.773 6.32" stroke-width="1.2" stroke="#000" stroke-miterlimit="10" fill="none"/><path d="M200.473 164.53l4.773 6.322M205.246 170.852l7.86-.977" stroke-width="1.2" stroke="#f00" stroke-miterlimit="10" fill="none"/><path d="M213.105 169.875l7.864-.977" stroke-width="1.2" stroke="#000" stroke-miterlimit="10" fill="none"/><path d="M201.246 165.352h8v11h-8zm0 0" fill="#fff"/><use xlink:href="#b" x="201.246" y="174.015" fill="#f00"/><path d="M220.97 168.898l9.546 12.64M224.895 167.918l7.64 10.11M220.97 168.898l6.167-14.59M230.516 181.54l15.722-1.954M246.238 179.586L252.406 165M243.422 176.676l4.937-11.672M252.406 165l-9.547-12.64M242.86 152.36l6.17-14.59M227.137 154.31l15.722-1.95M229.168 157.813l12.578-1.56M249.03 137.77l7.86-.977" stroke-width="1.2" stroke="#000" stroke-miterlimit="10" fill="none"/><path d="M256.89 136.793l7.86-.973" stroke-width="1.2" stroke="#00f" stroke-miterlimit="10" fill="none"/><path d="M250.516 136.645l-4.774-6.317" stroke-width="1.2" stroke="#000" stroke-miterlimit="10" fill="none"/><path d="M245.742 130.328l-4.773-6.32" stroke-width="1.2" stroke="#00f" stroke-miterlimit="10" fill="none"/><path d="M247.543 138.895l-4.773-6.32" stroke-width="1.2" stroke="#000" stroke-miterlimit="10" fill="none"/><path d="M242.77 132.574l-4.778-6.32" stroke-width="1.2" stroke="#00f" stroke-miterlimit="10" fill="none"/><path d="M255.75 127.82h19v16h-19zm0 0" fill="#fff"/><g fill="#00f"><use xlink:href="#a" x="255.75" y="136.483"/><use xlink:href="#c" x="262.728" y="136.483"/></g><use xlink:href="#d" x="269.742" y="141.366" fill="#00f"/><path d="M213.48 115.63h26v19h-26zm0 0" fill="#fff"/><use xlink:href="#e" x="213.48" y="122.848" fill="#00f"/><use xlink:href="#c" x="220" y="127.73" fill="#00f"/><use xlink:href="#d" x="227.015" y="132.613" fill="#00f"/><use xlink:href="#a" x="231.965" y="127.73" fill="#00f"/><path d="M165.805 169.25h8v11h-8zm0 0" fill="#fff"/><use xlink:href="#b" x="165.805" y="177.913" fill="#f00"/></g></svg>