<svg xmlns="http://www.w3.org/2000/svg" xmlns:xlink="http://www.w3.org/1999/xlink" width="300pt" height="300pt" viewBox="0 0 300 300"><defs><symbol overflow="visible"><path d="M.453 1.594v-7.938h4.5v7.938zm.5-.5h3.5v-6.938h-3.5zm0 0"/></symbol><symbol overflow="visible" id="a"><path d="M4.813-6.344v.86c-.336-.157-.653-.27-.954-.344-.294-.082-.58-.125-.86-.125-.492 0-.867.094-1.125.28-.262.19-.39.454-.39.798 0 .293.085.512.265.656.176.15.504.267.984.36l.547.11c.658.125 1.142.352 1.454.672.32.312.485.734.485 1.265 0 .637-.216 1.122-.642 1.454-.43.325-1.055.485-1.875.485-.312 0-.648-.04-1-.11C1.36-.046 1-.147.625-.296v-.906c.352.2.703.35 1.047.453.35.105.695.156 1.03.156.5 0 .884-.097 1.157-.297.28-.196.42-.485.42-.86 0-.32-.1-.57-.296-.75-.2-.176-.523-.313-.968-.406l-.547-.11C1.81-3.148 1.33-3.36 1.03-3.64.74-3.923.595-4.313.595-4.813c0-.57.203-1.024.61-1.36.405-.344.968-.516 1.687-.516.313 0 .626.032.938.094.32.055.65.137.985.25zm0 0"/></symbol><symbol overflow="visible" id="b"><path d="M.89-6.563H2.08l2.906 5.485v-5.484h.86V0H4.656L1.75-5.484V0H.89zm0 0"/></symbol><symbol overflow="visible" id="c"><path d="M.89-6.563h.876v2.688H5v-2.688h.89V0H5v-3.125H1.766V0H.89zm0 0"/></symbol><symbol overflow="visible" id="e"><path d="M3.547-5.953c-.65 0-1.164.242-1.547.72-.375.48-.563 1.13-.563 1.952 0 .835.188 1.49.563 1.967.383.48.898.72 1.547.72.644 0 1.156-.24 1.53-.72.376-.476.564-1.132.564-1.968 0-.822-.187-1.474-.562-1.954-.375-.477-.887-.72-1.53-.72zm0-.734c.914 0 1.648.312 2.203.937.55.617.828 1.438.828 2.47 0 1.042-.277 1.87-.828 2.483-.555.617-1.29.922-2.203.922-.93 0-1.668-.305-2.22-.922C.774-1.41.5-2.237.5-3.28c0-1.033.273-1.853.828-2.47.55-.625 1.29-.938 2.22-.938zm0 0"/></symbol><symbol overflow="visible" id="f"><path d="M.89-6.563h3.766v.75h-2.89v1.938h2.61v.734h-2.61V0H.89zm0 0"/></symbol><symbol overflow="visible"><path d="M.406 1.422V-5.64h4V1.42zM.844.97h3.11v-6.157H.843zm0 0"/></symbol><symbol overflow="visible" id="d"><path d="M1.53-.672h2.767V0H.594v-.672c.29-.3.695-.71 1.22-1.234.518-.532.842-.867.967-1.016.26-.28.44-.52.533-.72.1-.194.156-.39.156-.577 0-.31-.11-.565-.33-.764-.218-.196-.5-.297-.843-.297-.25 0-.516.046-.797.14-.273.085-.563.214-.875.39v-.797c.32-.133.617-.234.89-.297.282-.062.536-.093.766-.093.603 0 1.083.152 1.44.453.362.304.546.703.546 1.203 0 .24-.047.468-.14.686-.095.22-.26.477-.485.766-.074.074-.288.293-.64.656-.344.356-.836.856-1.47 1.5zm0 0"/></symbol><symbol overflow="visible" id="g"><path d="M3.688-5.016v2.172h2.17v.672H3.69V0H3.03v-2.172H.845v-.672H3.03v-2.172zm0 0"/></symbol></defs><g><path fill="#fff" d="M0 0h300v300H0z"/><path d="M94.52 183.242l9.27 7.46" stroke-width="1.2" stroke="#cc0" stroke-miterlimit="10" fill="none"/><path d="M103.79 190.703l9.27 7.46" stroke-width="1.2" stroke="#00f" stroke-miterlimit="10" fill="none"/><path d="M92.34 181.488l-7.46 9.27" stroke-width="1.2" stroke="#cc0" stroke-miterlimit="10" fill="none"/><path d="M84.88 190.758l-7.462 9.27" stroke-width="1.2" stroke="#f00" stroke-miterlimit="10" fill="none"/><path d="M96.7 185l-7.462 9.27" stroke-width="1.2" stroke="#cc0" stroke-miterlimit="10" fill="none"/><path d="M89.238 194.27l-7.46 9.27" stroke-width="1.2" stroke="#f00" stroke-miterlimit="10" fill="none"/><path d="M96.7 185l7.46-9.27" stroke-width="1.2" stroke="#cc0" stroke-miterlimit="10" fill="none"/><path d="M104.16 175.73l7.46-9.27" stroke-width="1.2" stroke="#f00" stroke-miterlimit="10" fill="none"/><path d="M92.34 181.488l7.46-9.27" stroke-width="1.2" stroke="#cc0" stroke-miterlimit="10" fill="none"/><path d="M99.8 172.22l7.462-9.27" stroke-width="1.2" stroke="#f00" stroke-miterlimit="10" fill="none"/><path d="M94.52 183.242l-9.27-7.46" stroke-width="1.2" stroke="#cc0" stroke-miterlimit="10" fill="none"/><path d="M85.25 175.78l-9.27-7.46" stroke-width="1.2" stroke="#000" stroke-miterlimit="10" fill="none"/><path d="M91.52 177.742h6v11h-6zm0 0" fill="#fff"/><use xlink:href="#a" x="91.52" y="186.405" fill="#cc0"/><path d="M104.06 190.164h19v16h-19zm0 0" fill="#fff"/><g fill="#00f"><use xlink:href="#b" x="104.059" y="198.827"/><use xlink:href="#c" x="111.036" y="198.827"/></g><use xlink:href="#d" x="118.051" y="203.71" fill="#00f"/><path d="M71.598 196.28h8v11h-8zm0 0" fill="#fff"/><use xlink:href="#e" x="71.598" y="204.944" fill="#f00"/><path d="M105.44 159.203h8v11h-8zm0 0" fill="#fff"/><use xlink:href="#e" x="105.441" y="167.866" fill="#f00"/><path d="M75.98 168.32l-22.19 8.594M71.738 163.96l-17.754 6.876M79.633 144.805L75.98 168.32M53.79 176.914l-18.54-14.922M35.25 161.992l3.652-23.515M41.148 160.5l2.922-18.813M38.902 138.477l22.192-8.594M61.094 129.883l18.54 14.922M59.438 135.738l14.832 11.938M79.633 144.805l22.195-8.594M101.828 136.21l18.535 14.923M107.19 133.34l14.833 11.937M105.48 112.695l-3.652 23.516M120.363 151.133l22.196-8.594M142.56 142.54l3.65-23.517M137.39 139.328l2.923-18.812M146.21 119.023l-18.538-14.92M146.21 119.023l11.095-4.296" stroke-width="1.2" stroke="#000" stroke-miterlimit="10" fill="none"/><path d="M157.305 114.727l11.097-4.297" stroke-width="1.2" stroke="#00f" stroke-miterlimit="10" fill="none"/><path d="M127.672 104.102l1.828-11.758" stroke-width="1.2" stroke="#000" stroke-miterlimit="10" fill="none"/><path d="M129.5 92.344l1.824-11.758" stroke-width="1.2" stroke="#3cc" stroke-miterlimit="10" fill="none"/><path d="M127.672 104.102l-22.192 8.593M127.477 110.184l-17.754 6.875" stroke-width="1.2" stroke="#000" stroke-miterlimit="10" fill="none"/><path d="M128.324 75.086h6v11h-6zm0 0" fill="#fff"/><use xlink:href="#f" x="128.324" y="83.749" fill="#3cc"/><path d="M168.402 110.43l9.27 7.46" stroke-width="1.2" stroke="#00f" stroke-miterlimit="10" fill="none"/><path d="M177.672 117.89l9.27 7.462" stroke-width="1.2" stroke="#000" stroke-miterlimit="10" fill="none"/><path d="M161.402 104.93h14v11h-14zm0 0" fill="#fff"/><g fill="#00f"><use xlink:href="#b" x="161.402" y="113.593"/><use xlink:href="#c" x="168.38" y="113.593"/></g><path d="M184.176 124.922l-1.828 11.758" stroke-width="1.2" stroke="#000" stroke-miterlimit="10" fill="none"/><path d="M182.348 136.68l-1.825 11.757" stroke-width="1.2" stroke="#f00" stroke-miterlimit="10" fill="none"/><path d="M189.707 125.78l-1.824 11.76" stroke-width="1.2" stroke="#000" stroke-miterlimit="10" fill="none"/><path d="M187.883 137.54l-1.828 11.757" stroke-width="1.2" stroke="#f00" stroke-miterlimit="10" fill="none"/><path d="M186.94 125.352l22.193-8.594" stroke-width="1.2" stroke="#000" stroke-miterlimit="10" fill="none"/><path d="M179.29 143.367h8v11h-8zm0 0" fill="#fff"/><use xlink:href="#e" x="179.289" y="152.03" fill="#f00"/><path d="M209.133 116.758L210.96 105" stroke-width="1.2" stroke="#000" stroke-miterlimit="10" fill="none"/><path d="M210.96 105l1.825-11.758" stroke-width="1.2" stroke="#3cc" stroke-miterlimit="10" fill="none"/><path d="M209.133 116.758l18.54 14.922M207.477 122.61l14.832 11.937" stroke-width="1.2" stroke="#000" stroke-miterlimit="10" fill="none"/><path d="M209.785 87.742h6v11h-6zm0 0" fill="#fff"/><use xlink:href="#f" x="209.785" y="96.405" fill="#3cc"/><path d="M227.672 131.68l22.19-8.594M227.672 131.68l-3.652 23.515M224.02 155.195l18.54 14.922M222.363 161.047l14.828 11.937M201.828 163.79l22.192-8.595M242.56 170.117l11.092-4.297" stroke-width="1.2" stroke="#000" stroke-miterlimit="10" fill="none"/><path d="M253.652 165.82l11.098-4.297" stroke-width="1.2" stroke="#00f" stroke-miterlimit="10" fill="none"/><path d="M242.56 170.117l-3.654 23.516" stroke-width="1.2" stroke="#000" stroke-miterlimit="10" fill="none"/><path d="M255.75 153.523h19v16h-19zm0 0" fill="#fff"/><g fill="#00f"><use xlink:href="#b" x="255.75" y="162.187"/><use xlink:href="#c" x="262.728" y="162.187"/></g><use xlink:href="#d" x="269.742" y="167.069" fill="#00f"/><path d="M238.906 193.633l-22.195 8.594M234.664 189.27l-17.754 6.875M216.71 202.227l-18.538-14.922M198.172 187.305l-22.192 8.593M198.172 187.305l3.656-23.516M204.07 185.813L206.996 167M175.98 195.898l-1.824 11.758" stroke-width="1.2" stroke="#000" stroke-miterlimit="10" fill="none"/><path d="M174.156 207.656l-1.828 11.758" stroke-width="1.2" stroke="#00f" stroke-miterlimit="10" fill="none"/><path d="M177.738 193.72l-9.27-7.462" stroke-width="1.2" stroke="#000" stroke-miterlimit="10" fill="none"/><path d="M168.47 186.258l-9.27-7.46" stroke-width="1.2" stroke="#00f" stroke-miterlimit="10" fill="none"/><path d="M174.227 198.078l-9.27-7.46" stroke-width="1.2" stroke="#000" stroke-miterlimit="10" fill="none"/><path d="M164.957 190.617l-9.27-7.46" stroke-width="1.2" stroke="#00f" stroke-miterlimit="10" fill="none"/><path d="M163.328 211.414h19v16h-19zm0 0" fill="#fff"/><use xlink:href="#c" x="163.328" y="220.077" fill="#00f"/><use xlink:href="#d" x="170.343" y="224.96" fill="#00f"/><use xlink:href="#b" x="175.293" y="220.077" fill="#00f"/><path d="M131.44 171.477h26v19h-26zm0 0" fill="#fff"/><use xlink:href="#g" x="131.441" y="178.695" fill="#00f"/><use xlink:href="#c" x="137.961" y="183.578" fill="#00f"/><use xlink:href="#d" x="144.976" y="188.461" fill="#00f"/><use xlink:href="#b" x="149.926" y="183.578" fill="#00f"/></g></svg>