<svg xmlns="http://www.w3.org/2000/svg" xmlns:xlink="http://www.w3.org/1999/xlink" width="300pt" height="300pt" viewBox="0 0 300 300"><defs><symbol overflow="visible"><path d="M.453 1.594v-7.938h4.5v7.938zm.5-.5h3.5v-6.938h-3.5zm0 0"/></symbol><symbol overflow="visible" id="a"><path d="M4.813-6.344v.86c-.336-.157-.653-.27-.954-.344-.294-.082-.58-.125-.86-.125-.492 0-.867.094-1.125.28-.262.19-.39.454-.39.798 0 .293.085.512.265.656.176.15.504.267.984.36l.547.11c.658.125 1.142.352 1.454.672.32.312.485.734.485 1.265 0 .637-.216 1.122-.642 1.454-.43.325-1.055.485-1.875.485-.312 0-.648-.04-1-.11C1.36-.046 1-.147.625-.296v-.906c.352.2.703.35 1.047.453.35.105.695.156 1.03.156.5 0 .884-.097 1.157-.297.28-.196.42-.485.42-.86 0-.32-.1-.57-.296-.75-.2-.176-.523-.313-.968-.406l-.547-.11C1.81-3.148 1.33-3.36 1.03-3.64.74-3.923.595-4.313.595-4.813c0-.57.203-1.024.61-1.36.405-.344.968-.516 1.687-.516.313 0 .626.032.938.094.32.055.65.137.985.25zm0 0"/></symbol><symbol overflow="visible" id="b"><path d="M.89-6.563h.876v2.688H5v-2.688h.89V0H5v-3.125H1.766V0H.89zm0 0"/></symbol><symbol overflow="visible" id="d"><path d="M.89-6.563H2.08l2.906 5.485v-5.484h.86V0H4.656L1.75-5.484V0H.89zm0 0"/></symbol><symbol overflow="visible" id="e"><path d="M3.547-5.953c-.65 0-1.164.242-1.547.72-.375.48-.563 1.13-.563 1.952 0 .835.188 1.49.563 1.967.383.48.898.72 1.547.72.644 0 1.156-.24 1.53-.72.376-.476.564-1.132.564-1.968 0-.822-.187-1.474-.562-1.954-.375-.477-.887-.72-1.53-.72zm0-.734c.914 0 1.648.312 2.203.937.55.617.828 1.438.828 2.47 0 1.042-.277 1.87-.828 2.483-.555.617-1.29.922-2.203.922-.93 0-1.668-.305-2.22-.922C.774-1.41.5-2.237.5-3.28c0-1.033.273-1.853.828-2.47.55-.625 1.29-.938 2.22-.938zm0 0"/></symbol><symbol overflow="visible" id="f"><path d="M.89-6.563h3.766v.75h-2.89v1.938h2.61v.734h-2.61V0H.89zm0 0"/></symbol><symbol overflow="visible"><path d="M.406 1.422V-5.64h4V1.42zM.844.97h3.11v-6.157H.843zm0 0"/></symbol><symbol overflow="visible" id="c"><path d="M1.53-.672h2.767V0H.594v-.672c.29-.3.695-.71 1.22-1.234.518-.532.842-.867.967-1.016.26-.28.44-.52.533-.72.1-.194.156-.39.156-.577 0-.31-.11-.565-.33-.764-.218-.196-.5-.297-.843-.297-.25 0-.516.046-.797.14-.273.085-.563.214-.875.39v-.797c.32-.133.617-.234.89-.297.282-.062.536-.093.766-.093.603 0 1.083.152 1.44.453.362.304.546.703.546 1.203 0 .24-.047.468-.14.686-.095.22-.26.477-.485.766-.074.074-.288.293-.64.656-.344.356-.836.856-1.47 1.5zm0 0"/></symbol></defs><g><path fill="#fff" d="M0 0h300v300H0z"/><path d="M204.285 103.324L194.21 98.93" stroke-width="1.2" stroke="#cc0" stroke-miterlimit="10" fill="none"/><path d="M194.21 98.93l-10.077-4.39" stroke-width="1.2" stroke="#00f" stroke-miterlimit="10" fill="none"/><path d="M206.656 104.355l4.395-10.078" stroke-width="1.2" stroke="#cc0" stroke-miterlimit="10" fill="none"/><path d="M211.05 94.277l4.39-10.074" stroke-width="1.2" stroke="#f00" stroke-miterlimit="10" fill="none"/><path d="M201.914 102.29l4.395-10.08" stroke-width="1.2" stroke="#cc0" stroke-miterlimit="10" fill="none"/><path d="M206.31 92.21l4.39-10.073" stroke-width="1.2" stroke="#f00" stroke-miterlimit="10" fill="none"/><path d="M201.914 102.29l-4.39 10.077" stroke-width="1.2" stroke="#cc0" stroke-miterlimit="10" fill="none"/><path d="M197.523 112.367l-4.39 10.078" stroke-width="1.2" stroke="#f00" stroke-miterlimit="10" fill="none"/><path d="M206.656 104.355l-4.39 10.08" stroke-width="1.2" stroke="#cc0" stroke-miterlimit="10" fill="none"/><path d="M202.266 114.434l-4.39 10.078" stroke-width="1.2" stroke="#f00" stroke-miterlimit="10" fill="none"/><path d="M204.285 103.324l10.078 4.39" stroke-width="1.2" stroke="#cc0" stroke-miterlimit="10" fill="none"/><path d="M214.363 107.715l10.078 4.39" stroke-width="1.2" stroke="#000" stroke-miterlimit="10" fill="none"/><path d="M201.285 97.824h6v11h-6zm0 0" fill="#fff"/><use xlink:href="#a" x="201.285" y="106.487" fill="#cc0"/><path d="M165.133 86.54h19v16h-19zm0 0" fill="#fff"/><use xlink:href="#b" x="165.133" y="95.202" fill="#00f"/><use xlink:href="#c" x="172.147" y="100.085" fill="#00f"/><use xlink:href="#d" x="177.098" y="95.202" fill="#00f"/><path d="M209.07 77.668h8v11h-8zm0 0" fill="#fff"/><use xlink:href="#e" x="209.07" y="86.331" fill="#f00"/><path d="M187.504 117.977h8v11h-8zm0 0" fill="#fff"/><use xlink:href="#e" x="187.504" y="126.64" fill="#f00"/><path d="M224.44 112.105l17.685-13.062M229.28 114.96l14.15-10.448M226.91 133.953l-2.47-21.848M242.125 99.043l20.152 8.78M262.277 107.824l2.473 21.848M257.387 110.594l1.976 17.476M264.75 129.672l-17.684 13.062M247.066 142.734l-20.156-8.78M247.117 137.113l-16.125-7.027M226.91 133.953l-17.683 13.063M209.227 147.016l-20.153-8.786M205.145 150.88l-16.122-7.028M209.227 147.016l2.472 21.843M189.074 138.23l-17.683 13.063M171.39 151.293l2.47 21.848M176.777 152.898l1.977 17.477M173.86 173.14l-8.84 6.532" stroke-width="1.2" stroke="#000" stroke-miterlimit="10" fill="none"/><path d="M165.02 179.672l-8.844 6.53" stroke-width="1.2" stroke="#00f" stroke-miterlimit="10" fill="none"/><path d="M194.016 181.922l-20.157-8.78" stroke-width="1.2" stroke="#000" stroke-miterlimit="10" fill="none"/><path d="M156.176 186.203l-10.074-4.39" stroke-width="1.2" stroke="#00f" stroke-miterlimit="10" fill="none"/><path d="M146.102 181.813l-10.08-4.395" stroke-width="1.2" stroke="#000" stroke-miterlimit="10" fill="none"/><path d="M149.176 180.703h14v11h-14zm0 0" fill="#fff"/><g fill="#00f"><use xlink:href="#d" x="149.176" y="189.366"/><use xlink:href="#b" x="156.153" y="189.366"/></g><path d="M138.594 177.13l-1.24-10.923" stroke-width="1.2" stroke="#000" stroke-miterlimit="10" fill="none"/><path d="M137.355 166.207l-1.234-10.926" stroke-width="1.2" stroke="#f00" stroke-miterlimit="10" fill="none"/><path d="M133.453 177.71l-1.234-10.92" stroke-width="1.2" stroke="#000" stroke-miterlimit="10" fill="none"/><path d="M132.22 166.79l-1.24-10.927" stroke-width="1.2" stroke="#f00" stroke-miterlimit="10" fill="none"/><path d="M136.023 177.418l-17.683 13.066" stroke-width="1.2" stroke="#000" stroke-miterlimit="10" fill="none"/><path d="M129.55 150.074h8v11h-8zm0 0" fill="#fff"/><use xlink:href="#e" x="129.551" y="158.737" fill="#f00"/><path d="M118.34 190.484l1.234 10.922" stroke-width="1.2" stroke="#000" stroke-miterlimit="10" fill="none"/><path d="M119.574 201.406l1.235 10.922" stroke-width="1.2" stroke="#3cc" stroke-miterlimit="10" fill="none"/><path d="M118.34 190.484L98.184 181.7M118.39 184.863l-16.124-7.027" stroke-width="1.2" stroke="#000" stroke-miterlimit="10" fill="none"/><path d="M117.81 206.828h6v11h-6zm0 0" fill="#fff"/><use xlink:href="#f" x="117.809" y="215.491" fill="#3cc"/><path d="M98.184 181.7L80.5 194.76M98.184 181.7l-2.47-21.848M95.715 159.852l17.683-13.063M94.41 154.387l14.145-10.45M75.56 151.07l20.155 8.782M113.398 146.79l-2.472-21.845M110.926 124.945l-20.153-8.785M106.844 128.81l-16.125-7.03M90.773 116.16L88.3 94.316M90.773 116.16L73.09 129.223M88.3 94.316L68.146 85.53M84.22 98.18l-16.126-7.028M68.145 85.53l-8.84 6.532" stroke-width="1.2" stroke="#000" stroke-miterlimit="10" fill="none"/><path d="M59.305 92.063l-8.844 6.53M50.46 98.594l1.24 10.926" stroke-width="1.2" stroke="#00f" stroke-miterlimit="10" fill="none"/><path d="M51.7 109.52l1.234 10.92" stroke-width="1.2" stroke="#000" stroke-miterlimit="10" fill="none"/><path d="M55.852 100.2l.988 8.737" stroke-width="1.2" stroke="#00f" stroke-miterlimit="10" fill="none"/><path d="M56.84 108.938l.988 8.738" stroke-width="1.2" stroke="#000" stroke-miterlimit="10" fill="none"/><path d="M47.46 93.094h7v11h-7zm0 0" fill="#fff"/><use xlink:href="#d" x="47.461" y="101.757" fill="#00f"/><path d="M52.934 120.44l-8.84 6.533" stroke-width="1.2" stroke="#000" stroke-miterlimit="10" fill="none"/><path d="M44.094 126.973l-8.844 6.53" stroke-width="1.2" stroke="#00f" stroke-miterlimit="10" fill="none"/><path d="M73.09 129.223l-20.156-8.782" stroke-width="1.2" stroke="#000" stroke-miterlimit="10" fill="none"/><path d="M16.25 125.504h19v16h-19zm0 0" fill="#fff"/><use xlink:href="#b" x="16.25" y="134.167" fill="#00f"/><use xlink:href="#c" x="23.265" y="139.05" fill="#00f"/><use xlink:href="#d" x="28.215" y="134.167" fill="#00f"/><path d="M73.09 129.223l2.47 21.847M78.477 130.828l1.976 17.477M211.7 168.86l-17.684 13.062M206.855 166.004l-14.144 10.453M194.016 181.922l2.468 21.848M196.484 203.77l10.078 4.39" stroke-width="1.2" stroke="#000" stroke-miterlimit="10" fill="none"/><path d="M206.563 208.16l10.078 4.39" stroke-width="1.2" stroke="#00f" stroke-miterlimit="10" fill="none"/><path d="M194.95 201.688l-8.84 6.53" stroke-width="1.2" stroke="#000" stroke-miterlimit="10" fill="none"/><path d="M186.11 208.22l-8.844 6.53" stroke-width="1.2" stroke="#f00" stroke-miterlimit="10" fill="none"/><path d="M198.023 205.848l-8.843 6.535" stroke-width="1.2" stroke="#000" stroke-miterlimit="10" fill="none"/><path d="M189.18 212.383l-8.84 6.53" stroke-width="1.2" stroke="#f00" stroke-miterlimit="10" fill="none"/><path d="M207.64 204.55h19v16h-19zm0 0" fill="#fff"/><g fill="#00f"><use xlink:href="#d" x="207.641" y="213.214"/><use xlink:href="#b" x="214.618" y="213.214"/></g><use xlink:href="#c" x="221.633" y="218.097" fill="#00f"/><path d="M170.8 211.332h8v11h-8zm0 0" fill="#fff"/><use xlink:href="#e" x="170.801" y="219.995" fill="#f00"/></g></svg>