<svg xmlns="http://www.w3.org/2000/svg" xmlns:xlink="http://www.w3.org/1999/xlink" width="300pt" height="300pt" viewBox="0 0 300 300"><defs><symbol overflow="visible"><path d="M.453 1.594v-7.938h4.5v7.938zm.5-.5h3.5v-6.938h-3.5zm0 0"/></symbol><symbol overflow="visible" id="a"><path d="M.89-6.563H2.08l2.906 5.485v-5.484h.86V0H4.656L1.75-5.484V0H.89zm0 0"/></symbol><symbol overflow="visible" id="b"><path d="M.89-6.563h.876v2.688H5v-2.688h.89V0H5v-3.125H1.766V0H.89zm0 0"/></symbol><symbol overflow="visible" id="e"><path d="M3.547-5.953c-.65 0-1.164.242-1.547.72-.375.48-.563 1.13-.563 1.952 0 .835.188 1.49.563 1.967.383.48.898.72 1.547.72.644 0 1.156-.24 1.53-.72.376-.476.564-1.132.564-1.968 0-.822-.187-1.474-.562-1.954-.375-.477-.887-.72-1.53-.72zm0-.734c.914 0 1.648.312 2.203.937.55.617.828 1.438.828 2.47 0 1.042-.277 1.87-.828 2.483-.555.617-1.29.922-2.203.922-.93 0-1.668-.305-2.22-.922C.774-1.41.5-2.237.5-3.28c0-1.033.273-1.853.828-2.47.55-.625 1.29-.938 2.22-.938zm0 0"/></symbol><symbol overflow="visible"><path d="M.406 1.422V-5.64h4V1.42zM.844.97h3.11v-6.157H.843zm0 0"/></symbol><symbol overflow="visible" id="c"><path d="M1.53-.672h2.767V0H.594v-.672c.29-.3.695-.71 1.22-1.234.518-.532.842-.867.967-1.016.26-.28.44-.52.533-.72.1-.194.156-.39.156-.577 0-.31-.11-.565-.33-.764-.218-.196-.5-.297-.843-.297-.25 0-.516.046-.797.14-.273.085-.563.214-.875.39v-.797c.32-.133.617-.234.89-.297.282-.062.536-.093.766-.093.603 0 1.083.152 1.44.453.362.304.546.703.546 1.203 0 .24-.047.468-.14.686-.095.22-.26.477-.485.766-.074.074-.288.293-.64.656-.344.356-.836.856-1.47 1.5zm0 0"/></symbol><symbol overflow="visible" id="d"><path d="M3.688-5.016v2.172h2.17v.672H3.69V0H3.03v-2.172H.845v-.672H3.03v-2.172zm0 0"/></symbol><symbol overflow="visible" id="f"><path d="M.39-2.516H2.5v.64H.39zm0 0"/></symbol></defs><g><path fill="#fff" d="M0 0h300v300H0z"/><path d="M87.32 173.86l18.87 2.19M87.32 173.86l-18.48 4.394M87.32 173.86l-.558-9.48" stroke-width="1.2" stroke="#000" stroke-miterlimit="10" fill="none"/><path d="M86.762 164.38l-.56-9.485" stroke-width="1.2" stroke="#00f" stroke-miterlimit="10" fill="none"/><path d="M81.887 192.063l5.433-18.204M106.19 176.05l7.54 17.438M111.05 176.02l6.028 13.953M106.19 176.05l11.333-15.245M113.73 193.488l18.872 2.192M132.602 195.68l11.332-15.246M130.148 191.488l9.067-12.2M143.934 180.434l-7.54-17.442M143.934 180.434l9.437 1.093" stroke-width="1.2" stroke="#000" stroke-miterlimit="10" fill="none"/><path d="M153.37 181.527l9.435 1.094" stroke-width="1.2" stroke="#00f" stroke-miterlimit="10" fill="none"/><path d="M136.395 162.992l5.667-7.62" stroke-width="1.2" stroke="#000" stroke-miterlimit="10" fill="none"/><path d="M142.063 155.37l5.667-7.624" stroke-width="1.2" stroke="#00f" stroke-miterlimit="10" fill="none"/><path d="M117.523 160.805l18.872 2.187M118.895 165.46l15.097 1.755" stroke-width="1.2" stroke="#000" stroke-miterlimit="10" fill="none"/><path d="M147.73 147.746l9.434 1.094" stroke-width="1.2" stroke="#00f" stroke-miterlimit="10" fill="none"/><path d="M157.164 148.84l9.438 1.097" stroke-width="1.2" stroke="#000" stroke-miterlimit="10" fill="none"/><path d="M149.102 152.406l7.546.875" stroke-width="1.2" stroke="#00f" stroke-miterlimit="10" fill="none"/><path d="M156.648 153.28l7.55.876" stroke-width="1.2" stroke="#000" stroke-miterlimit="10" fill="none"/><path d="M144.73 142.246h7v11h-7zm0 0" fill="#fff"/><use xlink:href="#a" x="144.73" y="150.909" fill="#00f"/><path d="M166.602 149.938l11.332-15.25M166.602 149.938l7.535 17.437M177.934 134.688l18.87 2.19M196.805 136.88l7.54 17.436M201.66 136.852l6.03 13.95M196.805 136.88l11.332-15.247M204.344 154.316l18.87 2.192M234.547 141.262l-11.332 15.246M229.824 140.12l-9.066 12.196M208.137 121.633l18.87 2.19M209.508 126.293l15.097 1.75M227.008 123.824l7.54 17.438M234.547 141.262l18.87 2.19M253.418 143.453l3.77 8.72" stroke-width="1.2" stroke="#000" stroke-miterlimit="10" fill="none"/><path d="M257.188 152.172l3.77 8.72" stroke-width="1.2" stroke="#00f" stroke-miterlimit="10" fill="none"/><path d="M255.21 144.785l5.67-7.625" stroke-width="1.2" stroke="#000" stroke-miterlimit="10" fill="none"/><path d="M260.88 137.16l5.663-7.62" stroke-width="1.2" stroke="#00f" stroke-miterlimit="10" fill="none"/><path d="M251.625 142.117l5.664-7.62" stroke-width="1.2" stroke="#000" stroke-miterlimit="10" fill="none"/><path d="M257.29 134.496l5.667-7.625" stroke-width="1.2" stroke="#00f" stroke-miterlimit="10" fill="none"/><path d="M251.957 152.89h19v16h-19zm0 0" fill="#fff"/><g fill="#00f"><use xlink:href="#a" x="251.957" y="161.554"/><use xlink:href="#b" x="258.935" y="161.554"/></g><use xlink:href="#c" x="265.949" y="166.437" fill="#00f"/><path d="M251.75 118.703h26v19h-26zm0 0" fill="#fff"/><g fill="#00f"><use xlink:href="#a" x="251.75" y="130.805"/><use xlink:href="#b" x="258.728" y="130.805"/></g><use xlink:href="#c" x="265.742" y="135.688" fill="#00f"/><use xlink:href="#d" x="270.692" y="125.922" fill="#00f"/><path d="M173.88 169.594l9.436 1.097" stroke-width="1.2" stroke="#000" stroke-miterlimit="10" fill="none"/><path d="M183.316 170.69l9.434 1.095" stroke-width="1.2" stroke="#f00" stroke-miterlimit="10" fill="none"/><path d="M174.395 165.156l9.437 1.094" stroke-width="1.2" stroke="#000" stroke-miterlimit="10" fill="none"/><path d="M183.832 166.25l9.434 1.094" stroke-width="1.2" stroke="#f00" stroke-miterlimit="10" fill="none"/><path d="M162.805 182.62l5.668-7.62" stroke-width="1.2" stroke="#00f" stroke-miterlimit="10" fill="none"/><path d="M168.473 175l5.664-7.625" stroke-width="1.2" stroke="#000" stroke-miterlimit="10" fill="none"/><path d="M189.008 164.066h8v11h-8zm0 0" fill="#fff"/><use xlink:href="#e" x="189.008" y="172.729" fill="#f00"/><path d="M162.805 182.62l3.77 8.72" stroke-width="1.2" stroke="#00f" stroke-miterlimit="10" fill="none"/><path d="M166.574 191.34l3.77 8.722" stroke-width="1.2" stroke="#000" stroke-miterlimit="10" fill="none"/><path d="M159.805 177.12h7v11h-7zm0 0" fill="#fff"/><use xlink:href="#a" x="159.805" y="185.784" fill="#00f"/><path d="M68.84 178.254l13.047 13.81" stroke-width="1.2" stroke="#000" stroke-miterlimit="10" fill="none"/><path d="M86.203 154.895l7.93-5.227" stroke-width="1.2" stroke="#00f" stroke-miterlimit="10" fill="none"/><path d="M94.133 149.668l7.933-5.227" stroke-width="1.2" stroke="#000" stroke-miterlimit="10" fill="none"/><path d="M86.203 154.895l-8.492-4.258" stroke-width="1.2" stroke="#00f" stroke-miterlimit="10" fill="none"/><path d="M77.71 150.637l-8.49-4.254" stroke-width="1.2" stroke="#000" stroke-miterlimit="10" fill="none"/><path d="M83.203 149.395h7v11h-7zm0 0" fill="#fff"/><use xlink:href="#a" x="83.203" y="158.058" fill="#00f"/><path d="M102.066 144.44l17.782 6.693M102.934 125.465l-.868 18.976M119.848 151.133l11.855-14.84M131.703 136.293l-10.45-15.867M121.254 120.426l-18.32 5.04M67.988 144.516l-7.933 5.226" stroke-width="1.2" stroke="#000" stroke-miterlimit="10" fill="none"/><path d="M60.055 149.742l-7.93 5.227" stroke-width="1.2" stroke="#f00" stroke-miterlimit="10" fill="none"/><path d="M70.445 148.25l-7.93 5.223" stroke-width="1.2" stroke="#000" stroke-miterlimit="10" fill="none"/><path d="M62.516 153.473l-7.934 5.226" stroke-width="1.2" stroke="#f00" stroke-miterlimit="10" fill="none"/><path d="M69.22 146.383l-1.122-18.965" stroke-width="1.2" stroke="#000" stroke-miterlimit="10" fill="none"/><path d="M45.352 151.332h8v11h-8zm0 0" fill="#fff"/><use xlink:href="#e" x="45.352" y="159.995" fill="#f00"/><path d="M68.098 127.418l-16.985-8.516M51.113 118.902l-.558-9.48" stroke-width="1.2" stroke="#000" stroke-miterlimit="10" fill="none"/><path d="M50.555 109.422l-.56-9.484" stroke-width="1.2" stroke="#f00" stroke-miterlimit="10" fill="none"/><path d="M49.883 117.04l-7.93 5.222" stroke-width="1.2" stroke="#000" stroke-miterlimit="10" fill="none"/><path d="M41.953 122.262l-7.933 5.226" stroke-width="1.2" stroke="#f00" stroke-miterlimit="10" fill="none"/><path d="M52.344 120.77l-7.934 5.226" stroke-width="1.2" stroke="#000" stroke-miterlimit="10" fill="none"/><path d="M44.41 125.996l-7.93 5.227" stroke-width="1.2" stroke="#f00" stroke-miterlimit="10" fill="none"/><path d="M44.996 92.438h11v15h-11zm0 0" fill="#fff"/><use xlink:href="#f" x="44.996" y="99.656" fill="#f00"/><use xlink:href="#e" x="47.804" y="104.539" fill="#f00"/><path d="M27.25 123.855h8v11h-8zm0 0" fill="#fff"/><use xlink:href="#e" x="27.25" y="132.519" fill="#f00"/></g></svg>