<svg xmlns="http://www.w3.org/2000/svg" xmlns:xlink="http://www.w3.org/1999/xlink" width="300pt" height="300pt" viewBox="0 0 300 300"><defs><symbol overflow="visible"><path d="M.453 1.594v-7.938h4.5v7.938zm.5-.5h3.5v-6.938h-3.5zm0 0"/></symbol><symbol overflow="visible" id="a"><path d="M4.813-6.344v.86c-.336-.157-.653-.27-.954-.344-.294-.082-.58-.125-.86-.125-.492 0-.867.094-1.125.28-.262.19-.39.454-.39.798 0 .293.085.512.265.656.176.15.504.267.984.36l.547.11c.658.125 1.142.352 1.454.672.32.312.485.734.485 1.265 0 .637-.216 1.122-.642 1.454-.43.325-1.055.485-1.875.485-.312 0-.648-.04-1-.11C1.36-.046 1-.147.625-.296v-.906c.352.2.703.35 1.047.453.35.105.695.156 1.03.156.5 0 .884-.097 1.157-.297.28-.196.42-.485.42-.86 0-.32-.1-.57-.296-.75-.2-.176-.523-.313-.968-.406l-.547-.11C1.81-3.148 1.33-3.36 1.03-3.64.74-3.923.595-4.313.595-4.813c0-.57.203-1.024.61-1.36.405-.344.968-.516 1.687-.516.313 0 .626.032.938.094.32.055.65.137.985.25zm0 0"/></symbol><symbol overflow="visible" id="b"><path d="M.89-6.563H2.08l2.906 5.485v-5.484h.86V0H4.656L1.75-5.484V0H.89zm0 0"/></symbol><symbol overflow="visible" id="c"><path d="M.89-6.563h.876v2.688H5v-2.688h.89V0H5v-3.125H1.766V0H.89zm0 0"/></symbol><symbol overflow="visible" id="e"><path d="M3.547-5.953c-.65 0-1.164.242-1.547.72-.375.48-.563 1.13-.563 1.952 0 .835.188 1.49.563 1.967.383.48.898.72 1.547.72.644 0 1.156-.24 1.53-.72.376-.476.564-1.132.564-1.968 0-.822-.187-1.474-.562-1.954-.375-.477-.887-.72-1.53-.72zm0-.734c.914 0 1.648.312 2.203.937.55.617.828 1.438.828 2.47 0 1.042-.277 1.87-.828 2.483-.555.617-1.29.922-2.203.922-.93 0-1.668-.305-2.22-.922C.774-1.41.5-2.237.5-3.28c0-1.033.273-1.853.828-2.47.55-.625 1.29-.938 2.22-.938zm0 0"/></symbol><symbol overflow="visible" id="f"><path d="M.89-6.563h3.766v.75h-2.89v1.938h2.61v.734h-2.61V0H.89zm0 0"/></symbol><symbol overflow="visible"><path d="M.406 1.422V-5.64h4V1.42zM.844.97h3.11v-6.157H.843zm0 0"/></symbol><symbol overflow="visible" id="d"><path d="M1.53-.672h2.767V0H.594v-.672c.29-.3.695-.71 1.22-1.234.518-.532.842-.867.967-1.016.26-.28.44-.52.533-.72.1-.194.156-.39.156-.577 0-.31-.11-.565-.33-.764-.218-.196-.5-.297-.843-.297-.25 0-.516.046-.797.14-.273.085-.563.214-.875.39v-.797c.32-.133.617-.234.89-.297.282-.062.536-.093.766-.093.603 0 1.083.152 1.44.453.362.304.546.703.546 1.203 0 .24-.047.468-.14.686-.095.22-.26.477-.485.766-.074.074-.288.293-.64.656-.344.356-.836.856-1.47 1.5zm0 0"/></symbol></defs><g><path fill="#fff" d="M0 0h300v300H0z"/><path d="M87.21 171.242l8.228 6.25" stroke-width="1.2" stroke="#cc0" stroke-miterlimit="10" fill="none"/><path d="M95.438 177.492l8.226 6.25" stroke-width="1.2" stroke="#00f" stroke-miterlimit="10" fill="none"/><path d="M85.277 169.77l-6.254 8.226" stroke-width="1.2" stroke="#cc0" stroke-miterlimit="10" fill="none"/><path d="M79.023 177.996l-6.25 8.227" stroke-width="1.2" stroke="#f00" stroke-miterlimit="10" fill="none"/><path d="M89.148 172.71l-6.253 8.227" stroke-width="1.2" stroke="#cc0" stroke-miterlimit="10" fill="none"/><path d="M82.895 180.938l-6.25 8.226" stroke-width="1.2" stroke="#f00" stroke-miterlimit="10" fill="none"/><path d="M89.148 172.71l6.25-8.226" stroke-width="1.2" stroke="#cc0" stroke-miterlimit="10" fill="none"/><path d="M95.398 164.484l6.25-8.226" stroke-width="1.2" stroke="#f00" stroke-miterlimit="10" fill="none"/><path d="M85.277 169.77l6.25-8.227" stroke-width="1.2" stroke="#cc0" stroke-miterlimit="10" fill="none"/><path d="M91.527 161.543l6.25-8.227" stroke-width="1.2" stroke="#f00" stroke-miterlimit="10" fill="none"/><path d="M87.21 171.242l-8.226-6.254" stroke-width="1.2" stroke="#cc0" stroke-miterlimit="10" fill="none"/><path d="M78.984 164.988l-8.226-6.25" stroke-width="1.2" stroke="#000" stroke-miterlimit="10" fill="none"/><path d="M84.21 165.742h6v11h-6zm0 0" fill="#fff"/><use xlink:href="#a" x="84.211" y="174.405" fill="#cc0"/><path d="M94.664 175.742h19v16h-19zm0 0" fill="#fff"/><g fill="#00f"><use xlink:href="#b" x="94.664" y="184.405"/><use xlink:href="#c" x="101.642" y="184.405"/></g><use xlink:href="#d" x="108.656" y="189.288" fill="#00f"/><path d="M66.71 182.195h8v11h-8zm0 0" fill="#fff"/><use xlink:href="#e" x="66.711" y="190.858" fill="#f00"/><path d="M95.715 149.285h8v11h-8zm0 0" fill="#fff"/><use xlink:href="#e" x="95.715" y="157.948" fill="#f00"/><path d="M70.758 158.738l-19.055 8M66.97 155.055l-15.243 6.398M73.36 138.238l-2.602 20.5M51.703 166.738L35.25 154.234M35.25 154.234l2.602-20.5M40.332 152.797l2.082-16.4M37.852 133.734l19.05-7.996M56.902 125.738l16.457 12.5M55.61 130.86l13.16 10M73.36 138.238l19.05-8M92.41 130.238l16.457 12.504M97 127.617l13.16 10.004M95.012 109.738l-2.602 20.5M108.867 142.742l19.05-8M127.918 134.742l2.602-20.5M123.355 132.082l2.08-16.402M130.52 114.242l-16.454-12.5M130.52 114.242l9.527-4" stroke-width="1.2" stroke="#000" stroke-miterlimit="10" fill="none"/><path d="M140.047 110.242l9.527-4" stroke-width="1.2" stroke="#00f" stroke-miterlimit="10" fill="none"/><path d="M114.066 101.742l-19.054 7.996M114.043 107.023l-15.246 6.4" stroke-width="1.2" stroke="#000" stroke-miterlimit="10" fill="none"/><path d="M149.574 106.242l8.227 6.254" stroke-width="1.2" stroke="#00f" stroke-miterlimit="10" fill="none"/><path d="M157.8 112.496l8.227 6.25" stroke-width="1.2" stroke="#000" stroke-miterlimit="10" fill="none"/><path d="M142.574 100.742h14v11h-14zm0 0" fill="#fff"/><g fill="#00f"><use xlink:href="#b" x="142.574" y="109.405"/><use xlink:href="#c" x="149.552" y="109.405"/></g><path d="M163.613 118.44l-1.297 10.25" stroke-width="1.2" stroke="#000" stroke-miterlimit="10" fill="none"/><path d="M162.316 128.69l-1.3 10.25" stroke-width="1.2" stroke="#f00" stroke-miterlimit="10" fill="none"/><path d="M168.438 119.05l-1.3 10.25" stroke-width="1.2" stroke="#000" stroke-miterlimit="10" fill="none"/><path d="M167.137 129.3l-1.297 10.25" stroke-width="1.2" stroke="#f00" stroke-miterlimit="10" fill="none"/><path d="M166.027 118.746l19.055-8" stroke-width="1.2" stroke="#000" stroke-miterlimit="10" fill="none"/><path d="M159.426 133.746h8v11h-8zm0 0" fill="#fff"/><use xlink:href="#e" x="159.426" y="142.409" fill="#f00"/><path d="M185.082 110.746l1.297-10.25" stroke-width="1.2" stroke="#000" stroke-miterlimit="10" fill="none"/><path d="M186.38 100.496l1.3-10.25" stroke-width="1.2" stroke="#3cc" stroke-miterlimit="10" fill="none"/><path d="M185.082 110.746l16.453 12.504M183.785 115.867l13.164 10.004" stroke-width="1.2" stroke="#000" stroke-miterlimit="10" fill="none"/><path d="M184.68 84.746h6v11h-6zm0 0" fill="#fff"/><use xlink:href="#f" x="184.68" y="93.409" fill="#3cc"/><path d="M201.535 123.25l-2.6 20.5M201.535 123.25l9.528-4" stroke-width="1.2" stroke="#000" stroke-miterlimit="10" fill="none"/><path d="M211.063 119.25l9.527-4" stroke-width="1.2" stroke="#00f" stroke-miterlimit="10" fill="none"/><path d="M198.934 143.75l-19.055 7.996M198.91 149.03l-15.242 6.4M215.387 156.25l-16.453-12.5M179.88 151.746l-2.6 20.504M177.28 172.25l16.454 12.5M181.867 169.625l13.164 10.004M193.734 184.75l19.055-8M212.79 176.75l2.597-20.5M208.227 174.09l2.078-16.403M212.79 176.75l16.452 12.504M226.832 188.945l-1.3 10.254" stroke-width="1.2" stroke="#000" stroke-miterlimit="10" fill="none"/><path d="M225.53 199.2l-1.3 10.25" stroke-width="1.2" stroke="#00f" stroke-miterlimit="10" fill="none"/><path d="M231.652 189.56l-1.297 10.25" stroke-width="1.2" stroke="#000" stroke-miterlimit="10" fill="none"/><path d="M230.355 199.81l-1.3 10.25" stroke-width="1.2" stroke="#00f" stroke-miterlimit="10" fill="none"/><path d="M229.242 189.254l9.528-4" stroke-width="1.2" stroke="#000" stroke-miterlimit="10" fill="none"/><path d="M238.77 185.254l9.527-4" stroke-width="1.2" stroke="#00f" stroke-miterlimit="10" fill="none"/><path d="M219.64 204.254h14v11h-14zm0 0" fill="#fff"/><g fill="#00f"><use xlink:href="#c" x="219.641" y="212.917"/><use xlink:href="#b" x="226.655" y="212.917"/></g><path d="M248.297 181.254l8.226 6.25" stroke-width="1.2" stroke="#00f" stroke-miterlimit="10" fill="none"/><path d="M256.523 187.504l8.227 6.254" stroke-width="1.2" stroke="#f00" stroke-miterlimit="10" fill="none"/><path d="M241.297 175.754h14v11h-14zm0 0" fill="#fff"/><g fill="#00f"><use xlink:href="#b" x="241.297" y="184.417"/><use xlink:href="#c" x="248.274" y="184.417"/></g><path d="M257.75 188.258h15v11h-15zm0 0" fill="#fff"/><g fill="#f00"><use xlink:href="#e" x="257.75" y="196.921"/><use xlink:href="#c" x="265.092" y="196.921"/></g><path d="M220.59 115.25l2.363-10.06" stroke-width="1.2" stroke="#00f" stroke-miterlimit="10" fill="none"/><path d="M222.953 105.19l2.363-10.057" stroke-width="1.2" stroke="#000" stroke-miterlimit="10" fill="none"/><path d="M238.258 125.965L220.59 115.25" stroke-width="1.2" stroke="#00f" stroke-miterlimit="10" fill="none"/><path d="M217.59 109.75h7v11h-7zm0 0" fill="#fff"/><use xlink:href="#b" x="217.59" y="118.413" fill="#00f"/><path d="M225.316 95.133l20.594-1.72M227.78 99.81l16.474-1.376M245.91 93.414l8 19.055M253.91 112.47l-7.828 6.745" stroke-width="1.2" stroke="#000" stroke-miterlimit="10" fill="none"/><path d="M246.082 119.215l-7.824 6.75" stroke-width="1.2" stroke="#00f" stroke-miterlimit="10" fill="none"/><path d="M249.168 110.137l-6.262 5.398" stroke-width="1.2" stroke="#000" stroke-miterlimit="10" fill="none"/><path d="M242.906 115.535l-6.258 5.4" stroke-width="1.2" stroke="#00f" stroke-miterlimit="10" fill="none"/><path d="M235.258 120.465h7v11h-7zm0 0" fill="#fff"/><use xlink:href="#b" x="235.258" y="129.128" fill="#00f"/></g></svg>