<svg xmlns="http://www.w3.org/2000/svg" xmlns:xlink="http://www.w3.org/1999/xlink" width="300pt" height="300pt" viewBox="0 0 300 300"><defs><symbol overflow="visible"><path d="M.453 1.594v-7.938h4.5v7.938zm.5-.5h3.5v-6.938h-3.5zm0 0"/></symbol><symbol overflow="visible" id="a"><path d="M4.813-6.344v.86c-.336-.157-.653-.27-.954-.344-.294-.082-.58-.125-.86-.125-.492 0-.867.094-1.125.28-.262.19-.39.454-.39.798 0 .293.085.512.265.656.176.15.504.267.984.36l.547.11c.658.125 1.142.352 1.454.672.32.312.485.734.485 1.265 0 .637-.216 1.122-.642 1.454-.43.325-1.055.485-1.875.485-.312 0-.648-.04-1-.11C1.36-.046 1-.147.625-.296v-.906c.352.2.703.35 1.047.453.35.105.695.156 1.03.156.5 0 .884-.097 1.157-.297.28-.196.42-.485.42-.86 0-.32-.1-.57-.296-.75-.2-.176-.523-.313-.968-.406l-.547-.11C1.81-3.148 1.33-3.36 1.03-3.64.74-3.923.595-4.313.595-4.813c0-.57.203-1.024.61-1.36.405-.344.968-.516 1.687-.516.313 0 .626.032.938.094.32.055.65.137.985.25zm0 0"/></symbol><symbol overflow="visible" id="b"><path d="M3.547-5.953c-.65 0-1.164.242-1.547.72-.375.48-.563 1.13-.563 1.952 0 .835.188 1.49.563 1.967.383.48.898.72 1.547.72.644 0 1.156-.24 1.53-.72.376-.476.564-1.132.564-1.968 0-.822-.187-1.474-.562-1.954-.375-.477-.887-.72-1.53-.72zm0-.734c.914 0 1.648.312 2.203.937.55.617.828 1.438.828 2.47 0 1.042-.277 1.87-.828 2.483-.555.617-1.29.922-2.203.922-.93 0-1.668-.305-2.22-.922C.774-1.41.5-2.237.5-3.28c0-1.033.273-1.853.828-2.47.55-.625 1.29-.938 2.22-.938zm0 0"/></symbol><symbol overflow="visible" id="c"><path d="M.89-6.563H2.08l2.906 5.485v-5.484h.86V0H4.656L1.75-5.484V0H.89zm0 0"/></symbol><symbol overflow="visible" id="d"><path d="M.89-6.563h.876v2.688H5v-2.688h.89V0H5v-3.125H1.766V0H.89zm0 0"/></symbol><symbol overflow="visible" id="g"><path d="M5.797-6.063v.938c-.305-.27-.625-.473-.97-.61-.335-.144-.686-.218-1.06-.218-.75 0-1.33.23-1.736.687-.397.46-.592 1.12-.592 1.985 0 .866.195 1.526.593 1.983.408.46.986.688 1.736.688.375 0 .726-.066 1.062-.203.344-.132.664-.343.97-.625V-.5c-.314.21-.642.367-.986.47-.343.1-.714.155-1.11.155-.99 0-1.772-.3-2.343-.906C.784-1.396.5-2.228.5-3.28c0-1.052.285-1.88.86-2.486.57-.613 1.35-.92 2.343-.92.395-.002.766.053 1.11.155.35.104.68.26.984.468zm0 0"/></symbol><symbol overflow="visible" id="h"><path d="M.844-6.844h.812V0H.844zm0 0"/></symbol><symbol overflow="visible"><path d="M.406 1.422V-5.64h4V1.42zM.844.97h3.11v-6.157H.843zm0 0"/></symbol><symbol overflow="visible" id="e"><path d="M1.53-.672h2.767V0H.594v-.672c.29-.3.695-.71 1.22-1.234.518-.532.842-.867.967-1.016.26-.28.44-.52.533-.72.1-.194.156-.39.156-.577 0-.31-.11-.565-.33-.764-.218-.196-.5-.297-.843-.297-.25 0-.516.046-.797.14-.273.085-.563.214-.875.39v-.797c.32-.133.617-.234.89-.297.282-.062.536-.093.766-.093.603 0 1.083.152 1.44.453.362.304.546.703.546 1.203 0 .24-.047.468-.14.686-.095.22-.26.477-.485.766-.074.074-.288.293-.64.656-.344.356-.836.856-1.47 1.5zm0 0"/></symbol><symbol overflow="visible" id="f"><path d="M3.688-5.016v2.172h2.17v.672H3.69V0H3.03v-2.172H.845v-.672H3.03v-2.172zm0 0"/></symbol></defs><g><path fill="#fff" d="M0 0h300v300H0z"/><path d="M90.86 150.367l2.52 7.16" stroke-width="1.2" stroke="#cc0" stroke-miterlimit="10" fill="none"/><path d="M93.38 157.527l2.515 7.16" stroke-width="1.2" stroke="#f00" stroke-miterlimit="10" fill="none"/><path d="M94.23 149.18l2.516 7.164" stroke-width="1.2" stroke="#cc0" stroke-miterlimit="10" fill="none"/><path d="M96.746 156.344l2.52 7.16" stroke-width="1.2" stroke="#f00" stroke-miterlimit="10" fill="none"/><path d="M94.23 149.18l-2.52-7.16" stroke-width="1.2" stroke="#cc0" stroke-miterlimit="10" fill="none"/><path d="M91.71 142.02l-2.52-7.165" stroke-width="1.2" stroke="#f00" stroke-miterlimit="10" fill="none"/><path d="M90.86 150.367l-2.52-7.164" stroke-width="1.2" stroke="#cc0" stroke-miterlimit="10" fill="none"/><path d="M88.34 143.203l-2.52-7.16" stroke-width="1.2" stroke="#f00" stroke-miterlimit="10" fill="none"/><path d="M92.543 149.773l7.164-2.52" stroke-width="1.2" stroke="#cc0" stroke-miterlimit="10" fill="none"/><path d="M99.707 147.254l7.16-2.516" stroke-width="1.2" stroke="#00f" stroke-miterlimit="10" fill="none"/><path d="M92.543 149.773l-7.16 2.52" stroke-width="1.2" stroke="#cc0" stroke-miterlimit="10" fill="none"/><path d="M85.383 152.293l-7.164 2.516" stroke-width="1.2" stroke="#000" stroke-miterlimit="10" fill="none"/><path d="M89.543 144.273h6v11h-6zm0 0" fill="#fff"/><use xlink:href="#a" x="89.543" y="152.937" fill="#cc0"/><path d="M93.582 158.598h8v11h-8zm0 0" fill="#fff"/><use xlink:href="#b" x="93.582" y="167.261" fill="#f00"/><path d="M79.508 129.95h8v11h-8zm0 0" fill="#fff"/><use xlink:href="#b" x="79.508" y="138.612" fill="#f00"/><path d="M106.867 144.738l5.762 4.942" stroke-width="1.2" stroke="#00f" stroke-miterlimit="10" fill="none"/><path d="M112.63 149.68l5.76 4.94M109.668 129.813l-1.402 7.46" stroke-width="1.2" stroke="#000" stroke-miterlimit="10" fill="none"/><path d="M108.266 137.273l-1.4 7.465" stroke-width="1.2" stroke="#00f" stroke-miterlimit="10" fill="none"/><path d="M103.867 139.238h7v11h-7zm0 0" fill="#fff"/><use xlink:href="#c" x="103.867" y="147.901" fill="#00f"/><path d="M118.39 154.62l14.325-5.034M132.715 149.586l1.398-7.46" stroke-width="1.2" stroke="#000" stroke-miterlimit="10" fill="none"/><path d="M134.113 142.125l1.403-7.46M135.516 134.664l7.16-2.52" stroke-width="1.2" stroke="#00f" stroke-miterlimit="10" fill="none"/><path d="M142.676 132.145l7.16-2.52" stroke-width="1.2" stroke="#000" stroke-miterlimit="10" fill="none"/><path d="M135.516 134.664l-5.762-4.945" stroke-width="1.2" stroke="#00f" stroke-miterlimit="10" fill="none"/><path d="M129.754 129.72l-5.762-4.943" stroke-width="1.2" stroke="#000" stroke-miterlimit="10" fill="none"/><path d="M132.516 129.164h7v11h-7zm0 0" fill="#fff"/><use xlink:href="#c" x="132.516" y="137.827" fill="#00f"/><path d="M149.836 129.625l11.527 9.887M159.605 139.184l-1.398 7.46" stroke-width="1.2" stroke="#000" stroke-miterlimit="10" fill="none"/><path d="M158.207 146.645l-1.402 7.46" stroke-width="1.2" stroke="#f00" stroke-miterlimit="10" fill="none"/><path d="M163.117 139.844l-1.398 7.46" stroke-width="1.2" stroke="#000" stroke-miterlimit="10" fill="none"/><path d="M161.72 147.305l-1.404 7.46" stroke-width="1.2" stroke="#f00" stroke-miterlimit="10" fill="none"/><path d="M161.363 139.512l7.16-2.52" stroke-width="1.2" stroke="#000" stroke-miterlimit="10" fill="none"/><path d="M168.523 136.992l7.16-2.515" stroke-width="1.2" stroke="#00f" stroke-miterlimit="10" fill="none"/><path d="M154.563 148.934h8v11h-8zm0 0" fill="#fff"/><use xlink:href="#b" x="154.563" y="157.597" fill="#f00"/><path d="M187.207 144.363m-1.902-2.32l-.68.793m-1.223-3.113l-1.355 1.582m-.547-3.903l-2.035 2.375m.133-4.69l-2.715 3.163m.812-5.484l-3.394 3.957m3.13-4.282l-3.49 4.068" stroke="#000" stroke-miterlimit="10" fill="none"/><path d="M168.684 128.977h14v11h-14zm0 0" fill="#fff"/><g fill="#00f"><use xlink:href="#c" x="168.684" y="137.64"/><use xlink:href="#d" x="175.661" y="137.64"/></g><path d="M187.207 144.363l14.324-5.04M187.207 144.363l-2.797 14.922M201.53 139.324l11.525 9.887M213.055 149.21l14.324-5.034M227.38 144.176l5.76 4.94" stroke-width="1.2" stroke="#000" stroke-miterlimit="10" fill="none"/><path d="M233.14 149.117l5.762 4.946M238.902 154.063l7.164-2.52" stroke-width="1.2" stroke="#00f" stroke-miterlimit="10" fill="none"/><path d="M246.066 151.543l7.16-2.52" stroke-width="1.2" stroke="#000" stroke-miterlimit="10" fill="none"/><path d="M231.902 148.563h14v11h-14zm0 0" fill="#fff"/><g fill="#00f"><use xlink:href="#c" x="231.902" y="157.226"/><use xlink:href="#d" x="238.88" y="157.226"/></g><path d="M253.227 149.023l5.76 4.946" stroke-width="1.2" stroke="#000" stroke-miterlimit="10" fill="none"/><path d="M258.988 153.97l5.762 4.94" stroke-width="1.2" stroke="#00f" stroke-miterlimit="10" fill="none"/><path d="M254.98 149.355l1.403-7.464" stroke-width="1.2" stroke="#000" stroke-miterlimit="10" fill="none"/><path d="M256.383 141.89l1.398-7.46" stroke-width="1.2" stroke="#00f" stroke-miterlimit="10" fill="none"/><path d="M251.473 148.695l1.398-7.46" stroke-width="1.2" stroke="#000" stroke-miterlimit="10" fill="none"/><path d="M252.87 141.234l1.4-7.46" stroke-width="1.2" stroke="#00f" stroke-miterlimit="10" fill="none"/><path d="M255.75 150.91h19v16h-19zm0 0" fill="#fff"/><g fill="#00f"><use xlink:href="#c" x="255.75" y="159.573"/><use xlink:href="#d" x="262.728" y="159.573"/></g><use xlink:href="#e" x="269.742" y="164.456" fill="#00f"/><path d="M243.027 124.602h26v19h-26zm0 0" fill="#fff"/><g fill="#00f"><use xlink:href="#c" x="243.027" y="136.703"/><use xlink:href="#d" x="250.005" y="136.703"/></g><use xlink:href="#e" x="257.02" y="141.586" fill="#00f"/><use xlink:href="#f" x="261.97" y="131.82" fill="#00f"/><path d="M183.816 157.602l-7.16 2.515" stroke-width="1.2" stroke="#000" stroke-miterlimit="10" fill="none"/><path d="M176.656 160.117l-7.164 2.52" stroke-width="1.2" stroke="#f00" stroke-miterlimit="10" fill="none"/><path d="M185 160.97l-7.16 2.518" stroke-width="1.2" stroke="#000" stroke-miterlimit="10" fill="none"/><path d="M177.84 163.488l-7.16 2.52" stroke-width="1.2" stroke="#f00" stroke-miterlimit="10" fill="none"/><path d="M184.41 159.285l11.524 9.887" stroke-width="1.2" stroke="#000" stroke-miterlimit="10" fill="none"/><path d="M162.086 158.82h8v11h-8zm0 0" fill="#fff"/><use xlink:href="#b" x="162.086" y="167.483" fill="#f00"/><path d="M195.934 169.172l7.382-1.758" stroke-width="1.2" stroke="#000" stroke-miterlimit="10" fill="none"/><path d="M203.316 167.414l7.387-1.754" stroke-width="1.2" stroke="#cc0" stroke-miterlimit="10" fill="none"/><path d="M194.707 184.305l.613-7.567" stroke-width="1.2" stroke="#00f" stroke-miterlimit="10" fill="none"/><path d="M195.32 176.738l.614-7.566" stroke-width="1.2" stroke="#000" stroke-miterlimit="10" fill="none"/><path d="M198.39 183.078l.493-6.05" stroke-width="1.2" stroke="#00f" stroke-miterlimit="10" fill="none"/><path d="M198.883 177.027l.488-6.054" stroke-width="1.2" stroke="#000" stroke-miterlimit="10" fill="none"/><path d="M210.703 165.66l3.953 6.48" stroke-width="1.2" stroke="#cc0" stroke-miterlimit="10" fill="none"/><path d="M214.656 172.14l3.953 6.48" stroke-width="1.2" stroke="#000" stroke-miterlimit="10" fill="none"/><path d="M207.703 160.16h6v11h-6zm0 0" fill="#fff"/><use xlink:href="#a" x="207.703" y="168.823" fill="#cc0"/><path d="M218.61 178.62l-9.887 11.525M214.91 177.45l-7.91 9.218M208.723 190.145l-7.008-2.918" stroke-width="1.2" stroke="#000" stroke-miterlimit="10" fill="none"/><path d="M201.715 187.227l-7.008-2.922" stroke-width="1.2" stroke="#00f" stroke-miterlimit="10" fill="none"/><path d="M191.707 178.805h7v11h-7zm0 0" fill="#fff"/><use xlink:href="#c" x="191.707" y="187.468" fill="#00f"/><path d="M125.746 125.105l1.4-7.46" stroke-width="1.2" stroke="#000" stroke-miterlimit="10" fill="none"/><path d="M127.145 117.645l1.402-7.46" stroke-width="1.2" stroke="#f00" stroke-miterlimit="10" fill="none"/><path d="M122.234 124.45l1.403-7.466" stroke-width="1.2" stroke="#000" stroke-miterlimit="10" fill="none"/><path d="M123.637 116.984l1.398-7.46" stroke-width="1.2" stroke="#f00" stroke-miterlimit="10" fill="none"/><path d="M123.992 124.777l-14.324 5.035" stroke-width="1.2" stroke="#000" stroke-miterlimit="10" fill="none"/><path d="M122.79 104.355h8v11h-8zm0 0" fill="#fff"/><use xlink:href="#b" x="122.789" y="113.019" fill="#f00"/><path d="M78.22 154.81l-11.525-9.888M74.742 156.53l-9.22-7.905M75.422 169.734l2.797-14.925M66.695 144.922l1.403-7.46" stroke-width="1.2" stroke="#000" stroke-miterlimit="10" fill="none"/><path d="M68.098 137.46l1.398-7.46" stroke-width="1.2" stroke="#0c0" stroke-miterlimit="10" fill="none"/><path d="M66.695 144.922l-14.32 5.04" stroke-width="1.2" stroke="#000" stroke-miterlimit="10" fill="none"/><path d="M64.496 124.5h10v11h-10zm0 0" fill="#fff"/><g fill="#0c0"><use xlink:href="#g" x="64.496" y="133.163"/><use xlink:href="#h" x="71.01" y="133.163"/></g><path d="M52.375 149.96l-2.8 14.923M55.605 152.11l-2.242 11.94M49.574 164.883l-7.164 2.52" stroke-width="1.2" stroke="#000" stroke-miterlimit="10" fill="none"/><path d="M42.41 167.402l-7.16 2.516" stroke-width="1.2" stroke="#0c0" stroke-miterlimit="10" fill="none"/><path d="M49.574 164.883l11.524 9.887" stroke-width="1.2" stroke="#000" stroke-miterlimit="10" fill="none"/><path d="M25.25 164.418h10v11h-10zm0 0" fill="#fff"/><g fill="#0c0"><use xlink:href="#g" x="25.25" y="173.081"/><use xlink:href="#h" x="31.764" y="173.081"/></g><path d="M61.098 174.77l-1.403 7.46" stroke-width="1.2" stroke="#000" stroke-miterlimit="10" fill="none"/><path d="M59.695 182.23l-1.398 7.46" stroke-width="1.2" stroke="#0c0" stroke-miterlimit="10" fill="none"/><path d="M61.098 174.77l14.324-5.036M61.344 170.895l11.46-4.028" stroke-width="1.2" stroke="#000" stroke-miterlimit="10" fill="none"/><path d="M53.297 184.19h10v11h-10zm0 0" fill="#fff"/><g fill="#0c0"><use xlink:href="#g" x="53.297" y="192.854"/><use xlink:href="#h" x="59.811" y="192.854"/></g></g></svg>