<svg xmlns="http://www.w3.org/2000/svg" xmlns:xlink="http://www.w3.org/1999/xlink" width="300pt" height="300pt" viewBox="0 0 300 300"><defs><symbol overflow="visible"><path d="M.453 1.594v-7.938h4.5v7.938zm.5-.5h3.5v-6.938h-3.5zm0 0"/></symbol><symbol overflow="visible" id="a"><path d="M4.813-6.344v.86c-.336-.157-.653-.27-.954-.344-.294-.082-.58-.125-.86-.125-.492 0-.867.094-1.125.28-.262.19-.39.454-.39.798 0 .293.085.512.265.656.176.15.504.267.984.36l.547.11c.658.125 1.142.352 1.454.672.32.312.485.734.485 1.265 0 .637-.216 1.122-.642 1.454-.43.325-1.055.485-1.875.485-.312 0-.648-.04-1-.11C1.36-.046 1-.147.625-.296v-.906c.352.2.703.35 1.047.453.35.105.695.156 1.03.156.5 0 .884-.097 1.157-.297.28-.196.42-.485.42-.86 0-.32-.1-.57-.296-.75-.2-.176-.523-.313-.968-.406l-.547-.11C1.81-3.148 1.33-3.36 1.03-3.64.74-3.923.595-4.313.595-4.813c0-.57.203-1.024.61-1.36.405-.344.968-.516 1.687-.516.313 0 .626.032.938.094.32.055.65.137.985.25zm0 0"/></symbol><symbol overflow="visible" id="b"><path d="M3.547-5.953c-.65 0-1.164.242-1.547.72-.375.48-.563 1.13-.563 1.952 0 .835.188 1.49.563 1.967.383.48.898.72 1.547.72.644 0 1.156-.24 1.53-.72.376-.476.564-1.132.564-1.968 0-.822-.187-1.474-.562-1.954-.375-.477-.887-.72-1.53-.72zm0-.734c.914 0 1.648.312 2.203.937.55.617.828 1.438.828 2.47 0 1.042-.277 1.87-.828 2.483-.555.617-1.29.922-2.203.922-.93 0-1.668-.305-2.22-.922C.774-1.41.5-2.237.5-3.28c0-1.033.273-1.853.828-2.47.55-.625 1.29-.938 2.22-.938zm0 0"/></symbol><symbol overflow="visible" id="c"><path d="M.89-6.563H2.08l2.906 5.485v-5.484h.86V0H4.656L1.75-5.484V0H.89zm0 0"/></symbol><symbol overflow="visible" id="d"><path d="M.89-6.563h.876v2.688H5v-2.688h.89V0H5v-3.125H1.766V0H.89zm0 0"/></symbol><symbol overflow="visible"><path d="M.406 1.422V-5.64h4V1.42zM.844.97h3.11v-6.157H.843zm0 0"/></symbol><symbol overflow="visible" id="e"><path d="M1.53-.672h2.767V0H.594v-.672c.29-.3.695-.71 1.22-1.234.518-.532.842-.867.967-1.016.26-.28.44-.52.533-.72.1-.194.156-.39.156-.577 0-.31-.11-.565-.33-.764-.218-.196-.5-.297-.843-.297-.25 0-.516.046-.797.14-.273.085-.563.214-.875.39v-.797c.32-.133.617-.234.89-.297.282-.062.536-.093.766-.093.603 0 1.083.152 1.44.453.362.304.546.703.546 1.203 0 .24-.047.468-.14.686-.095.22-.26.477-.485.766-.074.074-.288.293-.64.656-.344.356-.836.856-1.47 1.5zm0 0"/></symbol><symbol overflow="visible" id="f"><path d="M3.688-5.016v2.172h2.17v.672H3.69V0H3.03v-2.172H.845v-.672H3.03v-2.172zm0 0"/></symbol></defs><g><path fill="#fff" d="M0 0h300v300H0z"/><path d="M75.47 153.43l3.018 7.683" stroke-width="1.2" stroke="#cc0" stroke-miterlimit="10" fill="none"/><path d="M78.488 161.113l3.02 7.68" stroke-width="1.2" stroke="#f00" stroke-miterlimit="10" fill="none"/><path d="M79.086 152.008l3.02 7.683" stroke-width="1.2" stroke="#cc0" stroke-miterlimit="10" fill="none"/><path d="M82.105 159.69l3.016 7.685" stroke-width="1.2" stroke="#f00" stroke-miterlimit="10" fill="none"/><path d="M79.086 152.008l-3.02-7.68" stroke-width="1.2" stroke="#cc0" stroke-miterlimit="10" fill="none"/><path d="M76.066 144.328l-3.02-7.683" stroke-width="1.2" stroke="#f00" stroke-miterlimit="10" fill="none"/><path d="M75.47 153.43l-3.02-7.684" stroke-width="1.2" stroke="#cc0" stroke-miterlimit="10" fill="none"/><path d="M72.45 145.746l-3.016-7.68" stroke-width="1.2" stroke="#f00" stroke-miterlimit="10" fill="none"/><path d="M77.277 152.72l7.684-3.02" stroke-width="1.2" stroke="#cc0" stroke-miterlimit="10" fill="none"/><path d="M84.96 149.7l7.68-3.016" stroke-width="1.2" stroke="#00f" stroke-miterlimit="10" fill="none"/><path d="M77.277 152.72l-7.683 3.018" stroke-width="1.2" stroke="#cc0" stroke-miterlimit="10" fill="none"/><path d="M69.594 155.738l-7.68 3.02" stroke-width="1.2" stroke="#000" stroke-miterlimit="10" fill="none"/><path d="M74.277 147.22h6v11h-6zm0 0" fill="#fff"/><use xlink:href="#a" x="74.277" y="155.882" fill="#cc0"/><path d="M79.316 162.582h8v11h-8zm0 0" fill="#fff"/><use xlink:href="#b" x="79.316" y="171.245" fill="#f00"/><path d="M63.238 131.855h8v11h-8zm0 0" fill="#fff"/><use xlink:href="#b" x="63.238" y="140.519" fill="#f00"/><path d="M92.64 146.684l6.458 5.14" stroke-width="1.2" stroke="#00f" stroke-miterlimit="10" fill="none"/><path d="M99.098 151.824l6.457 5.145M95.098 130.355l-1.23 8.165" stroke-width="1.2" stroke="#000" stroke-miterlimit="10" fill="none"/><path d="M93.867 138.52l-1.226 8.164" stroke-width="1.2" stroke="#00f" stroke-miterlimit="10" fill="none"/><path d="M89.64 141.184h7v11h-7zm0 0" fill="#fff"/><use xlink:href="#c" x="89.641" y="149.847" fill="#00f"/><path d="M105.555 156.97l15.363-6.036M120.918 150.934l1.227-8.164" stroke-width="1.2" stroke="#000" stroke-miterlimit="10" fill="none"/><path d="M122.145 142.77l1.226-8.165M123.37 134.605l7.685-3.015" stroke-width="1.2" stroke="#00f" stroke-miterlimit="10" fill="none"/><path d="M131.055 131.59l7.68-3.02" stroke-width="1.2" stroke="#000" stroke-miterlimit="10" fill="none"/><path d="M123.37 134.605l-6.452-5.14" stroke-width="1.2" stroke="#00f" stroke-miterlimit="10" fill="none"/><path d="M116.918 129.465l-6.457-5.145" stroke-width="1.2" stroke="#000" stroke-miterlimit="10" fill="none"/><path d="M120.37 129.105h7v11h-7zm0 0" fill="#fff"/><use xlink:href="#c" x="120.371" y="137.769" fill="#00f"/><path d="M138.734 128.57l12.914 10.285M149.727 138.566l-1.227 8.164" stroke-width="1.2" stroke="#000" stroke-miterlimit="10" fill="none"/><path d="M148.5 146.73l-1.227 8.165" stroke-width="1.2" stroke="#f00" stroke-miterlimit="10" fill="none"/><path d="M153.566 139.145l-1.226 8.164" stroke-width="1.2" stroke="#000" stroke-miterlimit="10" fill="none"/><path d="M152.34 147.31l-1.227 8.16" stroke-width="1.2" stroke="#f00" stroke-miterlimit="10" fill="none"/><path d="M151.648 138.855l7.68-3.015" stroke-width="1.2" stroke="#000" stroke-miterlimit="10" fill="none"/><path d="M159.328 135.84l7.684-3.02" stroke-width="1.2" stroke="#00f" stroke-miterlimit="10" fill="none"/><path d="M145.195 149.684h8v11h-8zm0 0" fill="#fff"/><use xlink:href="#b" x="145.195" y="158.347" fill="#f00"/><path d="M179.922 143.105m-1.984-2.246l-.65.812m-1.335-3.063l-1.3 1.628m-.688-3.88l-1.95 2.45m-.035-4.695l-2.597 3.262m.613-5.512l-3.25 4.078m2.082-5.4l-3.633 4.558" stroke="#000" stroke-miterlimit="10" fill="none"/><path d="M160.012 127.32h14v11h-14zm0 0" fill="#fff"/><g fill="#00f"><use xlink:href="#c" x="160.012" y="135.983"/><use xlink:href="#d" x="166.989" y="135.983"/></g><path d="M179.922 143.105l15.367-6.035M179.922 143.105l-2.453 16.33M195.29 137.07l12.91 10.285M208.2 147.355l15.363-6.035M223.563 141.32l6.457 5.145" stroke-width="1.2" stroke="#000" stroke-miterlimit="10" fill="none"/><path d="M230.02 146.465l6.453 5.14M236.473 151.605l7.683-3.015" stroke-width="1.2" stroke="#00f" stroke-miterlimit="10" fill="none"/><path d="M244.156 148.59l7.684-3.02" stroke-width="1.2" stroke="#000" stroke-miterlimit="10" fill="none"/><path d="M229.473 146.105h14v11h-14zm0 0" fill="#fff"/><g fill="#00f"><use xlink:href="#c" x="229.473" y="154.769"/><use xlink:href="#d" x="236.45" y="154.769"/></g><path d="M251.84 145.57l6.453 5.145" stroke-width="1.2" stroke="#000" stroke-miterlimit="10" fill="none"/><path d="M258.293 150.715l6.457 5.14" stroke-width="1.2" stroke="#00f" stroke-miterlimit="10" fill="none"/><path d="M253.758 145.86l1.23-8.165" stroke-width="1.2" stroke="#000" stroke-miterlimit="10" fill="none"/><path d="M254.988 137.695l1.227-8.164" stroke-width="1.2" stroke="#00f" stroke-miterlimit="10" fill="none"/><path d="M249.918 145.28l1.227-8.163" stroke-width="1.2" stroke="#000" stroke-miterlimit="10" fill="none"/><path d="M251.145 137.117l1.226-8.16" stroke-width="1.2" stroke="#00f" stroke-miterlimit="10" fill="none"/><path d="M255.75 147.855h19v16h-19zm0 0" fill="#fff"/><g fill="#00f"><use xlink:href="#c" x="255.75" y="156.519"/><use xlink:href="#d" x="262.728" y="156.519"/></g><use xlink:href="#e" x="269.742" y="161.401" fill="#00f"/><path d="M241.293 119.746h26v19h-26zm0 0" fill="#fff"/><g fill="#00f"><use xlink:href="#c" x="241.293" y="131.848"/><use xlink:href="#d" x="248.271" y="131.848"/></g><use xlink:href="#e" x="255.285" y="136.73" fill="#00f"/><use xlink:href="#f" x="260.235" y="126.965" fill="#00f"/><path d="M176.758 157.625l-7.68 3.02" stroke-width="1.2" stroke="#000" stroke-miterlimit="10" fill="none"/><path d="M169.078 160.645l-7.683 3.015" stroke-width="1.2" stroke="#f00" stroke-miterlimit="10" fill="none"/><path d="M178.18 161.238l-7.684 3.02" stroke-width="1.2" stroke="#000" stroke-miterlimit="10" fill="none"/><path d="M170.496 164.258l-7.68 3.02" stroke-width="1.2" stroke="#f00" stroke-miterlimit="10" fill="none"/><path d="M177.47 159.434l12.91 10.285" stroke-width="1.2" stroke="#000" stroke-miterlimit="10" fill="none"/><path d="M154.105 159.97h8v11h-8zm0 0" fill="#fff"/><use xlink:href="#b" x="154.105" y="168.632" fill="#f00"/><path d="M190.38 169.72l7.956-2.2" stroke-width="1.2" stroke="#000" stroke-miterlimit="10" fill="none"/><path d="M198.336 167.52l7.957-2.2" stroke-width="1.2" stroke="#cc0" stroke-miterlimit="10" fill="none"/><path d="M189.645 186.21l.367-8.245" stroke-width="1.2" stroke="#00f" stroke-miterlimit="10" fill="none"/><path d="M190.012 177.965l.367-8.246" stroke-width="1.2" stroke="#000" stroke-miterlimit="10" fill="none"/><path d="M193.602 184.734l.293-6.597" stroke-width="1.2" stroke="#00f" stroke-miterlimit="10" fill="none"/><path d="M193.895 178.137l.292-6.594" stroke-width="1.2" stroke="#000" stroke-miterlimit="10" fill="none"/><path d="M206.293 165.32l4.55 6.887" stroke-width="1.2" stroke="#cc0" stroke-miterlimit="10" fill="none"/><path d="M210.844 172.207l4.547 6.887" stroke-width="1.2" stroke="#000" stroke-miterlimit="10" fill="none"/><path d="M203.293 159.82h6v11h-6zm0 0" fill="#fff"/><use xlink:href="#a" x="203.293" y="168.483" fill="#cc0"/><path d="M215.39 179.094l-10.285 12.91M211.324 177.965l-8.23 10.328M205.105 192.004l-7.73-2.895" stroke-width="1.2" stroke="#000" stroke-miterlimit="10" fill="none"/><path d="M197.375 189.11l-7.73-2.9" stroke-width="1.2" stroke="#00f" stroke-miterlimit="10" fill="none"/><path d="M186.645 180.71h7v11h-7zm0 0" fill="#fff"/><use xlink:href="#c" x="186.645" y="189.374" fill="#00f"/><path d="M112.383 124.61l1.226-8.165" stroke-width="1.2" stroke="#000" stroke-miterlimit="10" fill="none"/><path d="M113.61 116.445l1.226-8.164" stroke-width="1.2" stroke="#f00" stroke-miterlimit="10" fill="none"/><path d="M108.54 124.03l1.226-8.163" stroke-width="1.2" stroke="#000" stroke-miterlimit="10" fill="none"/><path d="M109.766 115.867l1.226-8.16" stroke-width="1.2" stroke="#f00" stroke-miterlimit="10" fill="none"/><path d="M110.46 124.32L95.1 130.355" stroke-width="1.2" stroke="#000" stroke-miterlimit="10" fill="none"/><path d="M108.914 102.496h8v11h-8zm0 0" fill="#fff"/><use xlink:href="#b" x="108.914" y="111.159" fill="#f00"/><path d="M61.914 158.758l-4.148 15.976M47.996 149.875l13.918 8.883M47.297 154.04l11.133 7.105M57.766 174.734l10.488 12.75M57.766 174.734l-8.24.5" stroke-width="1.2" stroke="#000" stroke-miterlimit="10" fill="none"/><path d="M49.527 175.234l-8.238.496" stroke-width="1.2" stroke="#00f" stroke-miterlimit="10" fill="none"/><path d="M55.883 170.957l-6.59.398" stroke-width="1.2" stroke="#000" stroke-miterlimit="10" fill="none"/><path d="M49.293 171.355l-6.59.4M41.29 175.73l-3.02-7.683" stroke-width="1.2" stroke="#00f" stroke-miterlimit="10" fill="none"/><path d="M38.27 168.047l-3.02-7.684" stroke-width="1.2" stroke="#cc0" stroke-miterlimit="10" fill="none"/><path d="M38.29 170.23h7v11h-7zm0 0" fill="#fff"/><use xlink:href="#c" x="38.289" y="178.894" fill="#00f"/><path d="M35.25 160.363l6.375-5.242" stroke-width="1.2" stroke="#cc0" stroke-miterlimit="10" fill="none"/><path d="M41.625 155.12l6.37-5.245" stroke-width="1.2" stroke="#000" stroke-miterlimit="10" fill="none"/><path d="M32.25 154.863h6v11h-6zm0 0" fill="#fff"/><use xlink:href="#a" x="32.25" y="163.526" fill="#cc0"/><path d="M47.996 149.875l-.992-16.477" stroke-width="1.2" stroke="#000" stroke-miterlimit="10" fill="none"/></g></svg>