<svg xmlns="http://www.w3.org/2000/svg" xmlns:xlink="http://www.w3.org/1999/xlink" width="300pt" height="300pt" viewBox="0 0 300 300"><defs><symbol overflow="visible"><path d="M.453 1.594v-7.938h4.5v7.938zm.5-.5h3.5v-6.938h-3.5zm0 0"/></symbol><symbol overflow="visible" id="a"><path d="M.89-6.563H2.08l2.906 5.485v-5.484h.86V0H4.656L1.75-5.484V0H.89zm0 0"/></symbol><symbol overflow="visible" id="b"><path d="M4.813-6.344v.86c-.336-.157-.653-.27-.954-.344-.294-.082-.58-.125-.86-.125-.492 0-.867.094-1.125.28-.262.19-.39.454-.39.798 0 .293.085.512.265.656.176.15.504.267.984.36l.547.11c.658.125 1.142.352 1.454.672.32.312.485.734.485 1.265 0 .637-.216 1.122-.642 1.454-.43.325-1.055.485-1.875.485-.312 0-.648-.04-1-.11C1.36-.046 1-.147.625-.296v-.906c.352.2.703.35 1.047.453.35.105.695.156 1.03.156.5 0 .884-.097 1.157-.297.28-.196.42-.485.42-.86 0-.32-.1-.57-.296-.75-.2-.176-.523-.313-.968-.406l-.547-.11C1.81-3.148 1.33-3.36 1.03-3.64.74-3.923.595-4.313.595-4.813c0-.57.203-1.024.61-1.36.405-.344.968-.516 1.687-.516.313 0 .626.032.938.094.32.055.65.137.985.25zm0 0"/></symbol><symbol overflow="visible" id="c"><path d="M.89-6.563h.876v2.688H5v-2.688h.89V0H5v-3.125H1.766V0H.89zm0 0"/></symbol><symbol overflow="visible" id="e"><path d="M3.547-5.953c-.65 0-1.164.242-1.547.72-.375.48-.563 1.13-.563 1.952 0 .835.188 1.49.563 1.967.383.48.898.72 1.547.72.644 0 1.156-.24 1.53-.72.376-.476.564-1.132.564-1.968 0-.822-.187-1.474-.562-1.954-.375-.477-.887-.72-1.53-.72zm0-.734c.914 0 1.648.312 2.203.937.55.617.828 1.438.828 2.47 0 1.042-.277 1.87-.828 2.483-.555.617-1.29.922-2.203.922-.93 0-1.668-.305-2.22-.922C.774-1.41.5-2.237.5-3.28c0-1.033.273-1.853.828-2.47.55-.625 1.29-.938 2.22-.938zm0 0"/></symbol><symbol overflow="visible"><path d="M.406 1.422V-5.64h4V1.42zM.844.97h3.11v-6.157H.843zm0 0"/></symbol><symbol overflow="visible" id="d"><path d="M1.53-.672h2.767V0H.594v-.672c.29-.3.695-.71 1.22-1.234.518-.532.842-.867.967-1.016.26-.28.44-.52.533-.72.1-.194.156-.39.156-.577 0-.31-.11-.565-.33-.764-.218-.196-.5-.297-.843-.297-.25 0-.516.046-.797.14-.273.085-.563.214-.875.39v-.797c.32-.133.617-.234.89-.297.282-.062.536-.093.766-.093.603 0 1.083.152 1.44.453.362.304.546.703.546 1.203 0 .24-.047.468-.14.686-.095.22-.26.477-.485.766-.074.074-.288.293-.64.656-.344.356-.836.856-1.47 1.5zm0 0"/></symbol><symbol overflow="visible" id="f"><path d="M3.688-5.016v2.172h2.17v.672H3.69V0H3.03v-2.172H.845v-.672H3.03v-2.172zm0 0"/></symbol></defs><g><path fill="#fff" d="M0 0h300v300H0z"/><path d="M145.352 154.23l9.95 1.102" stroke-width="1.2" stroke="#00f" stroke-miterlimit="10" fill="none"/><path d="M155.3 155.332l9.95 1.106" stroke-width="1.2" stroke="#000" stroke-miterlimit="10" fill="none"/><path d="M145.352 154.23l-6.743 7.403" stroke-width="1.2" stroke="#00f" stroke-miterlimit="10" fill="none"/><path d="M138.61 161.633l-6.74 7.398M135.44 136.832l4.955 8.7" stroke-width="1.2" stroke="#000" stroke-miterlimit="10" fill="none"/><path d="M140.395 145.53l4.957 8.7" stroke-width="1.2" stroke="#00f" stroke-miterlimit="10" fill="none"/><path d="M142.352 148.73h7v11h-7zm0 0" fill="#fff"/><use xlink:href="#a" x="142.352" y="157.394" fill="#00f"/><path d="M165.25 156.438l8.04 18.335M170.37 156.38l6.43 14.67M177.113 140.31l-11.863 16.127M173.29 174.773l19.9 2.207M193.19 176.98l11.86-16.128M190.582 172.578l9.488-12.906M205.05 160.852l-8.038-18.336M205.05 160.852l19.9 2.207M197.012 142.516l-19.9-2.207M194.504 146.977l-15.922-1.766M224.95 163.06l8.038 18.335M230.07 163l6.43 14.672M236.813 146.93l-11.864 16.13M232.988 181.395l19.903 2.207M252.89 183.602l11.86-16.13M250.28 179.2l9.49-12.903M264.75 167.473l-8.04-18.336M256.71 149.137l-19.897-2.207M254.203 153.598l-15.922-1.766M236.813 146.93l-4.02-9.168" stroke-width="1.2" stroke="#000" stroke-miterlimit="10" fill="none"/><path d="M232.793 137.762l-4.02-9.172M228.773 128.59l-4.02-9.168" stroke-width="1.2" stroke="#cc0" stroke-miterlimit="10" fill="none"/><path d="M224.754 119.422l-4.02-9.168" stroke-width="1.2" stroke="#00f" stroke-miterlimit="10" fill="none"/><path d="M229.72 130.75l9.167-4.02" stroke-width="1.2" stroke="#cc0" stroke-miterlimit="10" fill="none"/><path d="M238.887 126.73l9.168-4.02" stroke-width="1.2" stroke="#f00" stroke-miterlimit="10" fill="none"/><path d="M227.828 126.434l9.168-4.02" stroke-width="1.2" stroke="#cc0" stroke-miterlimit="10" fill="none"/><path d="M236.996 122.414l9.168-4.02" stroke-width="1.2" stroke="#f00" stroke-miterlimit="10" fill="none"/><path d="M227.828 126.434l-9.168 4.02" stroke-width="1.2" stroke="#cc0" stroke-miterlimit="10" fill="none"/><path d="M218.66 130.453l-9.168 4.02" stroke-width="1.2" stroke="#f00" stroke-miterlimit="10" fill="none"/><path d="M229.72 130.75l-9.17 4.02" stroke-width="1.2" stroke="#cc0" stroke-miterlimit="10" fill="none"/><path d="M220.55 134.77l-9.167 4.02" stroke-width="1.2" stroke="#f00" stroke-miterlimit="10" fill="none"/><path d="M225.773 123.09h6v11h-6zm0 0" fill="#fff"/><use xlink:href="#b" x="225.773" y="131.753" fill="#cc0"/><path d="M201.734 102.254h19v16h-19zm0 0" fill="#fff"/><use xlink:href="#c" x="201.734" y="110.917" fill="#00f"/><use xlink:href="#d" x="208.749" y="115.8" fill="#00f"/><use xlink:href="#a" x="213.699" y="110.917" fill="#00f"/><path d="M243.11 115.055h8v11h-8zm0 0" fill="#fff"/><use xlink:href="#e" x="243.109" y="123.718" fill="#f00"/><path d="M202.438 131.13h8v11h-8zm0 0" fill="#fff"/><use xlink:href="#e" x="202.438" y="139.792" fill="#f00"/><path d="M131.87 169.03l2.025 9.806" stroke-width="1.2" stroke="#000" stroke-miterlimit="10" fill="none"/><path d="M133.895 178.836l2.023 9.805" stroke-width="1.2" stroke="#f00" stroke-miterlimit="10" fill="none"/><path d="M131.87 169.03l-18.245-8.245M131.984 163.914l-14.593-6.598" stroke-width="1.2" stroke="#000" stroke-miterlimit="10" fill="none"/><path d="M128.918 183.14h15v11h-15zm0 0" fill="#fff"/><g fill="#f00"><use xlink:href="#e" x="128.918" y="191.804"/><use xlink:href="#c" x="136.26" y="191.804"/></g><path d="M113.625 160.785l2.207-19.902" stroke-width="1.2" stroke="#000" stroke-miterlimit="10" fill="none"/><path d="M101.03 127.402m1.833 2.375l.703-.773m1.133 3.148l1.402-1.543m.43 3.917l2.105-2.312m-.274 4.687l2.81-3.086m-.978 5.46l3.512-3.854m-1.676 6.23l4.212-4.63m-2.79 6.474l4.76-5.223" stroke="#000" stroke-miterlimit="10" fill="none"/><path d="M115.832 140.883l19.61-4.05M118.746 145.094l15.688-3.242M101.03 127.402l4.275-19.562M101.03 127.402l-19.077 6.078M81.953 133.48l-14.8-13.484M77.3 135.613l-11.84-10.785M77.68 153.04l4.273-19.56M67.152 119.996l-19.078 6.078M48.074 126.074l-4.273 19.56M52.25 129.035l-3.418 15.65M43.8 145.633l14.802 13.484M58.602 159.117l19.078-6.078M59.078 154.02l15.262-4.864M58.602 159.117l-4.274 19.56M54.328 178.676l-9.54 3.04" stroke-width="1.2" stroke="#000" stroke-miterlimit="10" fill="none"/><path d="M44.79 181.715l-9.54 3.04" stroke-width="1.2" stroke="#00f" stroke-miterlimit="10" fill="none"/><path d="M52.742 180.418l7.4 6.742" stroke-width="1.2" stroke="#000" stroke-miterlimit="10" fill="none"/><path d="M60.14 187.16l7.403 6.738" stroke-width="1.2" stroke="#00f" stroke-miterlimit="10" fill="none"/><path d="M55.914 176.934l7.398 6.742" stroke-width="1.2" stroke="#000" stroke-miterlimit="10" fill="none"/><path d="M63.313 183.676l7.402 6.742" stroke-width="1.2" stroke="#00f" stroke-miterlimit="10" fill="none"/><path d="M16.25 176.754h19v16h-19zm0 0" fill="#fff"/><use xlink:href="#c" x="16.25" y="185.417" fill="#00f"/><use xlink:href="#d" x="23.265" y="190.3" fill="#00f"/><use xlink:href="#a" x="28.215" y="185.417" fill="#00f"/><path d="M56.13 182.66h26v19h-26zm0 0" fill="#fff"/><g fill="#00f"><use xlink:href="#a" x="56.129" y="194.762"/><use xlink:href="#c" x="63.106" y="194.762"/></g><use xlink:href="#d" x="70.121" y="199.645" fill="#00f"/><use xlink:href="#f" x="75.071" y="189.879" fill="#00f"/><path d="M135.44 136.832l4.126-9.12" stroke-width="1.2" stroke="#000" stroke-miterlimit="10" fill="none"/><path d="M139.566 127.71l4.12-9.12" stroke-width="1.2" stroke="#f00" stroke-miterlimit="10" fill="none"/><path d="M136.688 113.09h15v11h-15zm0 0" fill="#fff"/><g fill="#f00"><use xlink:href="#e" x="136.688" y="121.753"/><use xlink:href="#c" x="144.029" y="121.753"/></g></g></svg>