<svg xmlns="http://www.w3.org/2000/svg" xmlns:xlink="http://www.w3.org/1999/xlink" width="300pt" height="300pt" viewBox="0 0 300 300"><defs><symbol overflow="visible"><path d="M.453 1.594v-7.938h4.5v7.938zm.5-.5h3.5v-6.938h-3.5zm0 0"/></symbol><symbol overflow="visible" id="a"><path d="M4.813-6.344v.86c-.336-.157-.653-.27-.954-.344-.294-.082-.58-.125-.86-.125-.492 0-.867.094-1.125.28-.262.19-.39.454-.39.798 0 .293.085.512.265.656.176.15.504.267.984.36l.547.11c.658.125 1.142.352 1.454.672.32.312.485.734.485 1.265 0 .637-.216 1.122-.642 1.454-.43.325-1.055.485-1.875.485-.312 0-.648-.04-1-.11C1.36-.046 1-.147.625-.296v-.906c.352.2.703.35 1.047.453.35.105.695.156 1.03.156.5 0 .884-.097 1.157-.297.28-.196.42-.485.42-.86 0-.32-.1-.57-.296-.75-.2-.176-.523-.313-.968-.406l-.547-.11C1.81-3.148 1.33-3.36 1.03-3.64.74-3.923.595-4.313.595-4.813c0-.57.203-1.024.61-1.36.405-.344.968-.516 1.687-.516.313 0 .626.032.938.094.32.055.65.137.985.25zm0 0"/></symbol><symbol overflow="visible" id="b"><path d="M3.547-5.953c-.65 0-1.164.242-1.547.72-.375.48-.563 1.13-.563 1.952 0 .835.188 1.49.563 1.967.383.48.898.72 1.547.72.644 0 1.156-.24 1.53-.72.376-.476.564-1.132.564-1.968 0-.822-.187-1.474-.562-1.954-.375-.477-.887-.72-1.53-.72zm0-.734c.914 0 1.648.312 2.203.937.55.617.828 1.438.828 2.47 0 1.042-.277 1.87-.828 2.483-.555.617-1.29.922-2.203.922-.93 0-1.668-.305-2.22-.922C.774-1.41.5-2.237.5-3.28c0-1.033.273-1.853.828-2.47.55-.625 1.29-.938 2.22-.938zm0 0"/></symbol><symbol overflow="visible" id="c"><path d="M.89-6.563H2.08l2.906 5.485v-5.484h.86V0H4.656L1.75-5.484V0H.89zm0 0"/></symbol><symbol overflow="visible" id="e"><path d="M.89-6.563h.876v2.688H5v-2.688h.89V0H5v-3.125H1.766V0H.89zm0 0"/></symbol><symbol overflow="visible"><path d="M.406 1.422V-5.64h4V1.42zM.844.97h3.11v-6.157H.843zm0 0"/></symbol><symbol overflow="visible" id="d"><path d="M3.688-5.016v2.172h2.17v.672H3.69V0H3.03v-2.172H.845v-.672H3.03v-2.172zm0 0"/></symbol><symbol overflow="visible" id="f"><path d="M1.53-.672h2.767V0H.594v-.672c.29-.3.695-.71 1.22-1.234.518-.532.842-.867.967-1.016.26-.28.44-.52.533-.72.1-.194.156-.39.156-.577 0-.31-.11-.565-.33-.764-.218-.196-.5-.297-.843-.297-.25 0-.516.046-.797.14-.273.085-.563.214-.875.39v-.797c.32-.133.617-.234.89-.297.282-.062.536-.093.766-.093.603 0 1.083.152 1.44.453.362.304.546.703.546 1.203 0 .24-.047.468-.14.686-.095.22-.26.477-.485.766-.074.074-.288.293-.64.656-.344.356-.836.856-1.47 1.5zm0 0"/></symbol></defs><g><path fill="#fff" d="M0 0h300v300H0z"/><path d="M163.695 159.617l7.785 2.563" stroke-width="1.2" stroke="#cc0" stroke-miterlimit="10" fill="none"/><path d="M171.48 162.18l7.79 2.558" stroke-width="1.2" stroke="#f00" stroke-miterlimit="10" fill="none"/><path d="M164.902 155.953l7.786 2.563" stroke-width="1.2" stroke="#cc0" stroke-miterlimit="10" fill="none"/><path d="M172.688 158.516l7.785 2.558" stroke-width="1.2" stroke="#f00" stroke-miterlimit="10" fill="none"/><path d="M164.902 155.953l-7.785-2.558" stroke-width="1.2" stroke="#cc0" stroke-miterlimit="10" fill="none"/><path d="M157.117 153.395l-7.785-2.563" stroke-width="1.2" stroke="#f00" stroke-miterlimit="10" fill="none"/><path d="M163.695 159.617l-7.785-2.562" stroke-width="1.2" stroke="#cc0" stroke-miterlimit="10" fill="none"/><path d="M155.91 157.055l-7.785-2.56" stroke-width="1.2" stroke="#f00" stroke-miterlimit="10" fill="none"/><path d="M164.3 157.785l2.56-7.785" stroke-width="1.2" stroke="#cc0" stroke-miterlimit="10" fill="none"/><path d="M166.86 150l2.562-7.785" stroke-width="1.2" stroke="#000" stroke-miterlimit="10" fill="none"/><path d="M164.3 157.785l-2.562 7.785" stroke-width="1.2" stroke="#cc0" stroke-miterlimit="10" fill="none"/><path d="M161.738 165.57l-2.562 7.785" stroke-width="1.2" stroke="#00f" stroke-miterlimit="10" fill="none"/><path d="M161.3 152.285h6v11h-6zm0 0" fill="#fff"/><use xlink:href="#a" x="161.301" y="160.948" fill="#cc0"/><path d="M175.87 157.406h8v11h-8zm0 0" fill="#fff"/><use xlink:href="#b" x="175.871" y="166.069" fill="#f00"/><path d="M140.727 147.164h8v11h-8zm0 0" fill="#fff"/><use xlink:href="#b" x="140.727" y="155.827" fill="#f00"/><path d="M169.422 142.215l16.047-3.352M185.47 138.863l2.557-7.785" stroke-width="1.2" stroke="#000" stroke-miterlimit="10" fill="none"/><path d="M188.027 131.078l2.563-7.785" stroke-width="1.2" stroke="#f00" stroke-miterlimit="10" fill="none"/><path d="M184.027 140.148l5.465 6.114" stroke-width="1.2" stroke="#000" stroke-miterlimit="10" fill="none"/><path d="M189.492 146.262l5.46 6.11" stroke-width="1.2" stroke="#f00" stroke-miterlimit="10" fill="none"/><path d="M186.906 137.578l5.46 6.113" stroke-width="1.2" stroke="#000" stroke-miterlimit="10" fill="none"/><path d="M192.367 143.69l5.46 6.11M190.59 123.293l8.023-1.676" stroke-width="1.2" stroke="#f00" stroke-miterlimit="10" fill="none"/><path d="M198.613 121.617l8.024-1.672" stroke-width="1.2" stroke="#000" stroke-miterlimit="10" fill="none"/><path d="M186.59 117.793h8v11h-8zm0 0" fill="#fff"/><use xlink:href="#b" x="186.59" y="126.456" fill="#f00"/><path d="M206.637 119.945l5.12-15.574" stroke-width="1.2" stroke="#000" stroke-miterlimit="10" fill="none"/><path d="M192.39 145.586h8v11h-8zm0 0" fill="#fff"/><use xlink:href="#b" x="192.391" y="154.249" fill="#f00"/><path d="M159.176 173.355l-8.024 1.676" stroke-width="1.2" stroke="#00f" stroke-miterlimit="10" fill="none"/><path d="M151.152 175.03l-8.023 1.677" stroke-width="1.2" stroke="#000" stroke-miterlimit="10" fill="none"/><path d="M159.176 173.355l5.465 6.114" stroke-width="1.2" stroke="#00f" stroke-miterlimit="10" fill="none"/><path d="M164.64 179.47l5.462 6.108" stroke-width="1.2" stroke="#000" stroke-miterlimit="10" fill="none"/><path d="M156.176 167.855h7v11h-7zm0 0" fill="#fff"/><use xlink:href="#c" x="156.176" y="176.519" fill="#00f"/><path d="M143.13 176.707l-10.923-12.223M139.164 178.055l-8.742-9.778M138.008 192.277l5.12-15.57M132.207 164.484l-16.047 3.352M116.16 167.836l-5.12 15.57M119.313 170.598l-4.098 12.457M111.04 183.406l10.92 12.223M111.04 183.406l-8.024 1.676" stroke-width="1.2" stroke="#000" stroke-miterlimit="10" fill="none"/><path d="M103.016 185.082l-8.024 1.676" stroke-width="1.2" stroke="#f00" stroke-miterlimit="10" fill="none"/><path d="M121.96 195.63l16.048-3.353M122.777 191.516l12.84-2.68" stroke-width="1.2" stroke="#000" stroke-miterlimit="10" fill="none"/><path d="M94.992 186.758l-5.46-6.113" stroke-width="1.2" stroke="#f00" stroke-miterlimit="10" fill="none"/><path d="M89.53 180.645l-5.46-6.11" stroke-width="1.2" stroke="#000" stroke-miterlimit="10" fill="none"/><path d="M90.992 181.258h8v11h-8zm0 0" fill="#fff"/><use xlink:href="#b" x="90.992" y="189.921" fill="#f00"/><path d="M84.07 174.535l5.12-15.57M84.07 174.535l-16.047 3.348M89.19 158.965l-10.924-12.223M78.266 146.742l-8.024 1.676" stroke-width="1.2" stroke="#000" stroke-miterlimit="10" fill="none"/><path d="M70.242 148.418l-8.023 1.676M62.22 150.094l-5.462-6.114" stroke-width="1.2" stroke="#00f" stroke-miterlimit="10" fill="none"/><path d="M56.758 143.98l-5.46-6.11M57.098 165.664l2.562-7.785" stroke-width="1.2" stroke="#000" stroke-miterlimit="10" fill="none"/><path d="M59.66 157.88l2.56-7.786" stroke-width="1.2" stroke="#00f" stroke-miterlimit="10" fill="none"/><path d="M59.22 144.594h7v11h-7zm0 0" fill="#fff"/><use xlink:href="#c" x="59.219" y="153.257" fill="#00f"/><path d="M51.297 137.87l5.12-15.57M50.902 135.984l-8.023 1.672" stroke-width="1.2" stroke="#000" stroke-miterlimit="10" fill="none"/><path d="M42.88 137.656l-8.025 1.676" stroke-width="1.2" stroke="#00f" stroke-miterlimit="10" fill="none"/><path d="M51.69 139.758l-8.022 1.676" stroke-width="1.2" stroke="#000" stroke-miterlimit="10" fill="none"/><path d="M43.668 141.434l-8.023 1.675" stroke-width="1.2" stroke="#00f" stroke-miterlimit="10" fill="none"/><path d="M9.25 131.72h26v19h-26zm0 0" fill="#fff"/><use xlink:href="#d" x="9.25" y="138.938" fill="#00f"/><use xlink:href="#e" x="15.77" y="143.82" fill="#00f"/><use xlink:href="#f" x="22.784" y="148.703" fill="#00f"/><use xlink:href="#c" x="27.734" y="143.82" fill="#00f"/><path d="M68.023 177.883l-10.925-12.22M170.102 185.578l16.046-3.35M186.148 182.227l6.72-14.95M190.336 182.316l5.38-11.96" stroke-width="1.2" stroke="#000" stroke-miterlimit="10" fill="none"/><path d="M198.29 193.242l-6.07-5.508" stroke-width="1.2" stroke="#cc0" stroke-miterlimit="10" fill="none"/><path d="M192.22 187.734l-6.072-5.507M192.867 167.277l16.297 1.774M209.164 169.05l3.352 16.048M213.273 169.867l2.68 12.836M221.387 158.125l-12.223 10.926M212.516 185.098l15.57 5.12M212.516 185.098l-7.114 4.07" stroke-width="1.2" stroke="#000" stroke-miterlimit="10" fill="none"/><path d="M205.402 189.168l-7.113 4.074" stroke-width="1.2" stroke="#cc0" stroke-miterlimit="10" fill="none"/><path d="M228.086 190.22l12.223-10.927M226.738 186.25l9.778-8.738M240.31 179.293l-3.353-16.043M236.957 163.25l-15.57-5.125M234.195 166.398l-12.457-4.097M236.957 163.25l12.223-10.926M249.18 152.324l7.785 2.563" stroke-width="1.2" stroke="#000" stroke-miterlimit="10" fill="none"/><path d="M256.965 154.887l7.785 2.558" stroke-width="1.2" stroke="#00f" stroke-miterlimit="10" fill="none"/><path d="M251.066 151.93l-1.675-8.024" stroke-width="1.2" stroke="#000" stroke-miterlimit="10" fill="none"/><path d="M249.39 143.906l-1.675-8.023" stroke-width="1.2" stroke="#00f" stroke-miterlimit="10" fill="none"/><path d="M247.29 152.72l-1.673-8.025" stroke-width="1.2" stroke="#000" stroke-miterlimit="10" fill="none"/><path d="M245.617 144.695l-1.676-8.023" stroke-width="1.2" stroke="#00f" stroke-miterlimit="10" fill="none"/><path d="M255.75 149.445h19v16h-19zm0 0" fill="#fff"/><g fill="#00f"><use xlink:href="#c" x="255.75" y="158.108"/><use xlink:href="#e" x="262.728" y="158.108"/></g><use xlink:href="#f" x="269.742" y="162.991" fill="#00f"/><path d="M232.828 126.777h26v19h-26zm0 0" fill="#fff"/><use xlink:href="#d" x="232.828" y="133.996" fill="#00f"/><use xlink:href="#e" x="239.348" y="138.879" fill="#00f"/><use xlink:href="#f" x="246.362" y="143.762" fill="#00f"/><use xlink:href="#c" x="251.313" y="138.879" fill="#00f"/><path d="M195.29 187.742h6v11h-6zm0 0" fill="#fff"/><use xlink:href="#a" x="195.289" y="196.405" fill="#cc0"/></g></svg>