<svg xmlns="http://www.w3.org/2000/svg" xmlns:xlink="http://www.w3.org/1999/xlink" width="300pt" height="300pt" viewBox="0 0 300 300"><defs><symbol overflow="visible"><path d="M.453 1.594v-7.938h4.5v7.938zm.5-.5h3.5v-6.938h-3.5zm0 0"/></symbol><symbol overflow="visible" id="a"><path d="M4.813-6.344v.86c-.336-.157-.653-.27-.954-.344-.294-.082-.58-.125-.86-.125-.492 0-.867.094-1.125.28-.262.19-.39.454-.39.798 0 .293.085.512.265.656.176.15.504.267.984.36l.547.11c.658.125 1.142.352 1.454.672.32.312.485.734.485 1.265 0 .637-.216 1.122-.642 1.454-.43.325-1.055.485-1.875.485-.312 0-.648-.04-1-.11C1.36-.046 1-.147.625-.296v-.906c.352.2.703.35 1.047.453.35.105.695.156 1.03.156.5 0 .884-.097 1.157-.297.28-.196.42-.485.42-.86 0-.32-.1-.57-.296-.75-.2-.176-.523-.313-.968-.406l-.547-.11C1.81-3.148 1.33-3.36 1.03-3.64.74-3.923.595-4.313.595-4.813c0-.57.203-1.024.61-1.36.405-.344.968-.516 1.687-.516.313 0 .626.032.938.094.32.055.65.137.985.25zm0 0"/></symbol><symbol overflow="visible" id="b"><path d="M.89-6.563H2.08l2.906 5.485v-5.484h.86V0H4.656L1.75-5.484V0H.89zm0 0"/></symbol><symbol overflow="visible" id="c"><path d="M.89-6.563h.876v2.688H5v-2.688h.89V0H5v-3.125H1.766V0H.89zm0 0"/></symbol><symbol overflow="visible" id="d"><path d="M.89-6.563h3.766v.75h-2.89v1.938h2.61v.734h-2.61V0H.89zm0 0"/></symbol></defs><g><path fill="#fff" d="M0 0h300v300H0z"/><path d="M49.383 168.652l-7.067-9.593" stroke-width="1.2" stroke="#cc0" stroke-miterlimit="10" fill="none"/><path d="M42.316 159.06l-7.066-9.595" stroke-width="1.2" stroke="#000" stroke-miterlimit="10" fill="none"/><path d="M49.383 168.652l11.844-1.32" stroke-width="1.2" stroke="#cc0" stroke-miterlimit="10" fill="none"/><path d="M61.227 167.332l11.84-1.324" stroke-width="1.2" stroke="#000" stroke-miterlimit="10" fill="none"/><path d="M46.383 163.152h6v11h-6zm0 0" fill="#fff"/><use xlink:href="#a" x="46.383" y="171.815" fill="#cc0"/><path d="M73.066 166.008l9.55-21.832M79.16 166.074l7.64-17.47M87.2 185.195l-14.134-19.187M82.617 144.176l23.684-2.645M106.3 141.53l14.134 19.19M103.2 146.773l11.308 15.352M120.434 160.72l-9.55 21.83M120.434 160.72l23.687-2.646M110.883 182.55L87.2 185.196M107.895 177.242l-18.95 2.117M144.12 158.074l5.892-10.36" stroke-width="1.2" stroke="#000" stroke-miterlimit="10" fill="none"/><path d="M150.012 147.715l5.89-10.356" stroke-width="1.2" stroke="#00f" stroke-miterlimit="10" fill="none"/><path d="M160.18 175.68l-16.06-17.606M162.715 170.14l-12.848-14.085" stroke-width="1.2" stroke="#000" stroke-miterlimit="10" fill="none"/><path d="M155.902 137.36l11.668 2.398" stroke-width="1.2" stroke="#00f" stroke-miterlimit="10" fill="none"/><path d="M167.57 139.758l11.672 2.402" stroke-width="1.2" stroke="#000" stroke-miterlimit="10" fill="none"/><path d="M148.902 131.86h14v11h-14zm0 0" fill="#fff"/><g fill="#00f"><use xlink:href="#b" x="148.902" y="140.522"/><use xlink:href="#c" x="155.88" y="140.522"/></g><path d="M179.242 142.16l2.645 23.684M173.934 145.152l2.117 18.946M179.242 142.16l17.606-16.058M181.887 165.844l-21.707 9.836M181.887 165.844l20.715 11.78M202.602 177.625l.156 23.832M208.227 179.973l.125 19.066M223.164 165.578l-20.562 12.047M202.758 201.457l20.715 11.78M223.473 213.238l20.562-12.05M222.695 207.195l16.45-9.64M244.035 201.188l10.356 5.89" stroke-width="1.2" stroke="#000" stroke-miterlimit="10" fill="none"/><path d="M254.39 207.078l10.36 5.89" stroke-width="1.2" stroke="#3cc" stroke-miterlimit="10" fill="none"/><path d="M244.035 201.188l-.156-23.83" stroke-width="1.2" stroke="#000" stroke-miterlimit="10" fill="none"/><path d="M261.75 207.47h6v11h-6zm0 0" fill="#fff"/><use xlink:href="#d" x="261.75" y="216.132" fill="#3cc"/><path d="M243.88 177.36l-20.716-11.782M239.035 181.055l-16.57-9.426M196.848 126.102l22.714 7.214M200.816 121.477l18.172 5.773M191.742 102.82l5.106 23.282M219.563 133.316l17.605-16.058M237.168 117.258l-2.555-11.64" stroke-width="1.2" stroke="#000" stroke-miterlimit="10" fill="none"/><path d="M234.613 105.617l-2.55-11.64" stroke-width="1.2" stroke="#00f" stroke-miterlimit="10" fill="none"/><path d="M231.18 116.13l-2.043-9.31" stroke-width="1.2" stroke="#000" stroke-miterlimit="10" fill="none"/><path d="M229.137 106.82l-2.043-9.312M232.063 93.977l-11.356-3.606" stroke-width="1.2" stroke="#00f" stroke-miterlimit="10" fill="none"/><path d="M220.707 90.37l-11.36-3.608" stroke-width="1.2" stroke="#000" stroke-miterlimit="10" fill="none"/><path d="M229.063 88.477h7v11h-7zm0 0" fill="#fff"/><use xlink:href="#b" x="229.063" y="97.14" fill="#00f"/><path d="M209.348 86.762l-17.606 16.058M211.367 92.512L197.28 105.36" stroke-width="1.2" stroke="#000" stroke-miterlimit="10" fill="none"/></g></svg>