<svg xmlns="http://www.w3.org/2000/svg" xmlns:xlink="http://www.w3.org/1999/xlink" width="300pt" height="300pt" viewBox="0 0 300 300"><defs><symbol overflow="visible"><path d="M.453 1.594v-7.938h4.5v7.938zm.5-.5h3.5v-6.938h-3.5zm0 0"/></symbol><symbol overflow="visible" id="a"><path d="M4.813-6.344v.86c-.336-.157-.653-.27-.954-.344-.294-.082-.58-.125-.86-.125-.492 0-.867.094-1.125.28-.262.19-.39.454-.39.798 0 .293.085.512.265.656.176.15.504.267.984.36l.547.11c.658.125 1.142.352 1.454.672.32.312.485.734.485 1.265 0 .637-.216 1.122-.642 1.454-.43.325-1.055.485-1.875.485-.312 0-.648-.04-1-.11C1.36-.046 1-.147.625-.296v-.906c.352.2.703.35 1.047.453.35.105.695.156 1.03.156.5 0 .884-.097 1.157-.297.28-.196.42-.485.42-.86 0-.32-.1-.57-.296-.75-.2-.176-.523-.313-.968-.406l-.547-.11C1.81-3.148 1.33-3.36 1.03-3.64.74-3.923.595-4.313.595-4.813c0-.57.203-1.024.61-1.36.405-.344.968-.516 1.687-.516.313 0 .626.032.938.094.32.055.65.137.985.25zm0 0"/></symbol><symbol overflow="visible" id="b"><path d="M3.547-5.953c-.65 0-1.164.242-1.547.72-.375.48-.563 1.13-.563 1.952 0 .835.188 1.49.563 1.967.383.48.898.72 1.547.72.644 0 1.156-.24 1.53-.72.376-.476.564-1.132.564-1.968 0-.822-.187-1.474-.562-1.954-.375-.477-.887-.72-1.53-.72zm0-.734c.914 0 1.648.312 2.203.937.55.617.828 1.438.828 2.47 0 1.042-.277 1.87-.828 2.483-.555.617-1.29.922-2.203.922-.93 0-1.668-.305-2.22-.922C.774-1.41.5-2.237.5-3.28c0-1.033.273-1.853.828-2.47.55-.625 1.29-.938 2.22-.938zm0 0"/></symbol><symbol overflow="visible" id="c"><path d="M.89-6.563H2.08l2.906 5.485v-5.484h.86V0H4.656L1.75-5.484V0H.89zm0 0"/></symbol><symbol overflow="visible" id="d"><path d="M.89-6.563h.876v2.688H5v-2.688h.89V0H5v-3.125H1.766V0H.89zm0 0"/></symbol><symbol overflow="visible" id="e"><path d="M.89-6.563h3.766v.75h-2.89v1.938h2.61v.734h-2.61V0H.89zm0 0"/></symbol></defs><g><path fill="#fff" d="M0 0h300v300H0z"/><path d="M46.16 159.508l-5.312 10.84" stroke-width="1.2" stroke="#cc0" stroke-miterlimit="10" fill="none"/><path d="M40.848 170.348l-5.317 10.84" stroke-width="1.2" stroke="#f00" stroke-miterlimit="10" fill="none"/><path d="M51.262 162.008l-5.317 10.84" stroke-width="1.2" stroke="#cc0" stroke-miterlimit="10" fill="none"/><path d="M45.945 172.848l-5.312 10.84" stroke-width="1.2" stroke="#f00" stroke-miterlimit="10" fill="none"/><path d="M48.71 160.758l-6.73-10.02" stroke-width="1.2" stroke="#cc0" stroke-miterlimit="10" fill="none"/><path d="M41.98 150.738l-6.73-10.023" stroke-width="1.2" stroke="#000" stroke-miterlimit="10" fill="none"/><path d="M48.71 160.758l12.044-.817" stroke-width="1.2" stroke="#cc0" stroke-miterlimit="10" fill="none"/><path d="M60.754 159.94l12.047-.815" stroke-width="1.2" stroke="#000" stroke-miterlimit="10" fill="none"/><path d="M45.71 155.258h6v11h-6zm0 0" fill="#fff"/><use xlink:href="#a" x="45.711" y="163.921" fill="#cc0"/><path d="M30.082 176.938h8v11h-8zm0 0" fill="#fff"/><use xlink:href="#b" x="30.082" y="185.601" fill="#f00"/><path d="M72.8 159.125l10.626-21.68M78.965 159.457l8.5-17.344M86.262 179.168l-13.46-20.043M83.426 137.445l24.09-1.636M107.516 135.81l13.46 20.045M104.145 140.98l10.77 16.036M120.977 155.855l-10.63 21.676M120.977 155.855l24.09-1.636M110.348 177.53l-24.086 1.638M107.555 172.027l-19.27 1.31M145.066 154.22l6.418-10.228" stroke-width="1.2" stroke="#000" stroke-miterlimit="10" fill="none"/><path d="M151.484 143.992l6.418-10.222" stroke-width="1.2" stroke="#00f" stroke-miterlimit="10" fill="none"/><path d="M160.547 172.746l-15.48-18.527M163.36 167.25l-12.387-14.82" stroke-width="1.2" stroke="#000" stroke-miterlimit="10" fill="none"/><path d="M157.902 133.77l11.707 2.945" stroke-width="1.2" stroke="#00f" stroke-miterlimit="10" fill="none"/><path d="M169.61 136.715l11.706 2.94" stroke-width="1.2" stroke="#000" stroke-miterlimit="10" fill="none"/><path d="M150.902 128.27h14v11h-14zm0 0" fill="#fff"/><g fill="#00f"><use xlink:href="#c" x="150.902" y="136.933"/><use xlink:href="#d" x="157.88" y="136.933"/></g><path d="M181.316 139.656l1.637 24.09M175.813 142.453l1.308 19.27M181.316 139.656l18.528-15.48M182.953 163.746l-22.406 9M182.953 163.746l20.45 12.836M203.402 176.582l-.89 24.13M208.988 179.207l-.71 19.3M224.742 165.293l-21.34 11.29M202.512 200.71l20.45 12.837M222.96 213.547l21.34-11.293M222.438 207.398l17.07-9.035M244.3 202.254l10.223 6.418" stroke-width="1.2" stroke="#000" stroke-miterlimit="10" fill="none"/><path d="M254.523 208.672l10.227 6.418" stroke-width="1.2" stroke="#3cc" stroke-miterlimit="10" fill="none"/><path d="M244.3 202.254l.89-24.125" stroke-width="1.2" stroke="#000" stroke-miterlimit="10" fill="none"/><path d="M261.75 209.59h6v11h-6zm0 0" fill="#fff"/><use xlink:href="#e" x="261.75" y="218.253" fill="#3cc"/><path d="M245.19 178.13l-20.448-12.837M240.13 181.656l-16.36-10.27M199.844 124.176l22.672 8.304M204.066 119.672l18.137 6.644M195.7 100.39l4.144 23.786M222.516 132.48L241.043 117M241.043 117l-2.07-11.895" stroke-width="1.2" stroke="#000" stroke-miterlimit="10" fill="none"/><path d="M238.973 105.105l-2.075-11.894" stroke-width="1.2" stroke="#00f" stroke-miterlimit="10" fill="none"/><path d="M235.03 115.594l-1.655-9.512" stroke-width="1.2" stroke="#000" stroke-miterlimit="10" fill="none"/><path d="M233.375 106.082l-1.66-9.516M236.898 93.21l-11.335-4.15" stroke-width="1.2" stroke="#00f" stroke-miterlimit="10" fill="none"/><path d="M225.563 89.06l-11.336-4.15" stroke-width="1.2" stroke="#000" stroke-miterlimit="10" fill="none"/><path d="M233.898 87.71h7v11h-7zm0 0" fill="#fff"/><use xlink:href="#c" x="233.898" y="96.374" fill="#00f"/><path d="M214.227 84.91L195.7 100.39M216.02 90.816l-14.825 12.387" stroke-width="1.2" stroke="#000" stroke-miterlimit="10" fill="none"/></g></svg>