<svg xmlns="http://www.w3.org/2000/svg" xmlns:xlink="http://www.w3.org/1999/xlink" width="300pt" height="300pt" viewBox="0 0 300 300"><defs><symbol overflow="visible"><path d="M.453 1.594v-7.938h4.5v7.938zm.5-.5h3.5v-6.938h-3.5zm0 0"/></symbol><symbol overflow="visible" id="a"><path d="M4.813-6.344v.86c-.336-.157-.653-.27-.954-.344-.294-.082-.58-.125-.86-.125-.492 0-.867.094-1.125.28-.262.19-.39.454-.39.798 0 .293.085.512.265.656.176.15.504.267.984.36l.547.11c.658.125 1.142.352 1.454.672.32.312.485.734.485 1.265 0 .637-.216 1.122-.642 1.454-.43.325-1.055.485-1.875.485-.312 0-.648-.04-1-.11C1.36-.046 1-.147.625-.296v-.906c.352.2.703.35 1.047.453.35.105.695.156 1.03.156.5 0 .884-.097 1.157-.297.28-.196.42-.485.42-.86 0-.32-.1-.57-.296-.75-.2-.176-.523-.313-.968-.406l-.547-.11C1.81-3.148 1.33-3.36 1.03-3.64.74-3.923.595-4.313.595-4.813c0-.57.203-1.024.61-1.36.405-.344.968-.516 1.687-.516.313 0 .626.032.938.094.32.055.65.137.985.25zm0 0"/></symbol><symbol overflow="visible" id="b"><path d="M3.547-5.953c-.65 0-1.164.242-1.547.72-.375.48-.563 1.13-.563 1.952 0 .835.188 1.49.563 1.967.383.48.898.72 1.547.72.644 0 1.156-.24 1.53-.72.376-.476.564-1.132.564-1.968 0-.822-.187-1.474-.562-1.954-.375-.477-.887-.72-1.53-.72zm0-.734c.914 0 1.648.312 2.203.937.55.617.828 1.438.828 2.47 0 1.042-.277 1.87-.828 2.483-.555.617-1.29.922-2.203.922-.93 0-1.668-.305-2.22-.922C.774-1.41.5-2.237.5-3.28c0-1.033.273-1.853.828-2.47.55-.625 1.29-.938 2.22-.938zm0 0"/></symbol><symbol overflow="visible" id="c"><path d="M.89-6.563H2.08l2.906 5.485v-5.484h.86V0H4.656L1.75-5.484V0H.89zm0 0"/></symbol><symbol overflow="visible" id="d"><path d="M.89-6.563h.876v2.688H5v-2.688h.89V0H5v-3.125H1.766V0H.89zm0 0"/></symbol><symbol overflow="visible"><path d="M.406 1.422V-5.64h4V1.42zM.844.97h3.11v-6.157H.843zm0 0"/></symbol><symbol overflow="visible" id="e"><path d="M1.53-.672h2.767V0H.594v-.672c.29-.3.695-.71 1.22-1.234.518-.532.842-.867.967-1.016.26-.28.44-.52.533-.72.1-.194.156-.39.156-.577 0-.31-.11-.565-.33-.764-.218-.196-.5-.297-.843-.297-.25 0-.516.046-.797.14-.273.085-.563.214-.875.39v-.797c.32-.133.617-.234.89-.297.282-.062.536-.093.766-.093.603 0 1.083.152 1.44.453.362.304.546.703.546 1.203 0 .24-.047.468-.14.686-.095.22-.26.477-.485.766-.074.074-.288.293-.64.656-.344.356-.836.856-1.47 1.5zm0 0"/></symbol><symbol overflow="visible" id="f"><path d="M3.688-5.016v2.172h2.17v.672H3.69V0H3.03v-2.172H.845v-.672H3.03v-2.172zm0 0"/></symbol></defs><g><path fill="#fff" d="M0 0h300v300H0z"/><path d="M135.453 233.453l10.895-.414" stroke-width="1.2" stroke="#cc0" stroke-miterlimit="10" fill="none"/><path d="M146.348 233.04l10.894-.415" stroke-width="1.2" stroke="#000" stroke-miterlimit="10" fill="none"/><path d="M132.89 233.55l.415 10.895" stroke-width="1.2" stroke="#cc0" stroke-miterlimit="10" fill="none"/><path d="M133.305 244.445l.414 10.895" stroke-width="1.2" stroke="#f00" stroke-miterlimit="10" fill="none"/><path d="M138.016 233.355l.414 10.895" stroke-width="1.2" stroke="#cc0" stroke-miterlimit="10" fill="none"/><path d="M138.43 244.25l.414 10.895" stroke-width="1.2" stroke="#f00" stroke-miterlimit="10" fill="none"/><path d="M138.016 233.355l-.414-10.894" stroke-width="1.2" stroke="#cc0" stroke-miterlimit="10" fill="none"/><path d="M137.602 222.46l-.415-10.894" stroke-width="1.2" stroke="#f00" stroke-miterlimit="10" fill="none"/><path d="M132.89 233.55l-.417-10.894" stroke-width="1.2" stroke="#cc0" stroke-miterlimit="10" fill="none"/><path d="M132.473 222.656l-.414-10.894" stroke-width="1.2" stroke="#f00" stroke-miterlimit="10" fill="none"/><path d="M135.453 233.453l-10.894.414" stroke-width="1.2" stroke="#cc0" stroke-miterlimit="10" fill="none"/><path d="M124.56 233.867l-10.896.414" stroke-width="1.2" stroke="#00f" stroke-miterlimit="10" fill="none"/><path d="M132.453 227.953h6v11h-6zm0 0" fill="#fff"/><use xlink:href="#a" x="132.453" y="236.616" fill="#cc0"/><path d="M157.242 232.625l10.176-19.285M167.418 213.34l21.79-.828M169.402 208.133l17.43-.664M155.805 194.887l11.613 18.453M189.207 212.512l10.176-19.282M199.383 193.23l-11.61-18.457M193.88 194.117l-9.29-14.765M187.773 174.773l-21.79.83M165.984 175.602l-10.18 19.285M169.504 179.926l-8.145 15.426" stroke-width="1.2" stroke="#000" stroke-miterlimit="10" fill="none"/><path d="M132.28 249.742h8v11h-8zm0 0" fill="#fff"/><use xlink:href="#b" x="132.281" y="258.405" fill="#f00"/><path d="M130.625 206.164h8v11h-8zm0 0" fill="#fff"/><use xlink:href="#b" x="130.625" y="214.827" fill="#f00"/><path d="M102.05 215.828m1.134 2.777l.882-.554m.25 3.333l1.766-1.11m-.633 3.887l2.644-1.664m-1.516 4.445l3.53-2.22m-2.397 5l4.415-2.78m-3.28 5.556l5.296-3.332m-4.163 6.11l6.175-3.887m-5.746 4.945l6.516-4.098" stroke="#000" stroke-miterlimit="10" fill="none"/><path d="M106.664 228.78h14v11h-14zm0 0" fill="#fff"/><g fill="#00f"><use xlink:href="#c" x="106.664" y="237.444"/><use xlink:href="#d" x="113.642" y="237.444"/></g><path d="M102.05 215.828l-21.788.828M102.05 215.828l10.177-19.285M80.262 216.656L68.652 198.2M68.652 198.2l10.176-19.282M65.133 193.88l8.14-15.43M46.863 199.027l21.79-.828M78.828 178.918L67.215 160.46M67.215 160.46l-21.79.83M65.23 165.672l-17.43.66M45.426 161.29L35.25 180.573M35.25 180.574l11.613 18.453M40.754 179.688l9.29 14.76M112.324 199.105l10.895-.414" stroke-width="1.2" stroke="#000" stroke-miterlimit="10" fill="none"/><path d="M123.22 198.69l10.893-.413" stroke-width="1.2" stroke="#f00" stroke-miterlimit="10" fill="none"/><path d="M112.133 193.98l10.89-.414" stroke-width="1.2" stroke="#000" stroke-miterlimit="10" fill="none"/><path d="M123.023 193.566l10.895-.414" stroke-width="1.2" stroke="#f00" stroke-miterlimit="10" fill="none"/><path d="M112.227 196.543l-5.805-9.227" stroke-width="1.2" stroke="#000" stroke-miterlimit="10" fill="none"/><path d="M106.422 187.316l-5.805-9.23" stroke-width="1.2" stroke="#00f" stroke-miterlimit="10" fill="none"/><path d="M130.016 190.215h8v11h-8zm0 0" fill="#fff"/><use xlink:href="#b" x="130.016" y="198.878" fill="#f00"/><path d="M110.793 158.805l-13.578 17.488 6.805 3.59zm0 0"/><path d="M93.617 172.586h14v11h-14zm0 0" fill="#fff"/><g fill="#00f"><use xlink:href="#c" x="93.617" y="181.249"/><use xlink:href="#d" x="100.595" y="181.249"/></g><path d="M110.793 158.805L99.18 140.348M110.793 158.805l21.79-.828M99.18 140.348l5.09-9.64" stroke-width="1.2" stroke="#000" stroke-miterlimit="10" fill="none"/><path d="M104.27 130.707l5.09-9.644M109.36 121.063l-5.81-9.227" stroke-width="1.2" stroke="#f00" stroke-miterlimit="10" fill="none"/><path d="M103.55 111.836l-5.804-9.227" stroke-width="1.2" stroke="#000" stroke-miterlimit="10" fill="none"/><path d="M105.36 115.563h8v11h-8zm0 0" fill="#fff"/><use xlink:href="#b" x="105.359" y="124.226" fill="#f00"/><path d="M97.746 102.61l10.176-19.286M107.922 83.324l21.79-.828M109.906 78.117l17.434-.664M96.313 64.87l11.61 18.454M129.71 82.496l10.18-19.285M139.89 63.21L128.278 44.76M134.387 64.098l-9.29-14.762M128.277 44.758l-21.79.828M106.488 45.586L96.313 64.87M110.008 49.91l-8.14 15.426M130.41 159.34l5.81 9.23" stroke-width="1.2" stroke="#000" stroke-miterlimit="10" fill="none"/><path d="M136.22 168.57l5.803 9.227" stroke-width="1.2" stroke="#f00" stroke-miterlimit="10" fill="none"/><path d="M134.754 156.61l5.805 9.226" stroke-width="1.2" stroke="#000" stroke-miterlimit="10" fill="none"/><path d="M140.56 165.836l5.807 9.23" stroke-width="1.2" stroke="#f00" stroke-miterlimit="10" fill="none"/><path d="M132.582 157.977l5.09-9.645" stroke-width="1.2" stroke="#000" stroke-miterlimit="10" fill="none"/><path d="M137.672 148.332l5.086-9.64" stroke-width="1.2" stroke="#00f" stroke-miterlimit="10" fill="none"/><path d="M140.195 170.93h8v11h-8zm0 0" fill="#fff"/><use xlink:href="#b" x="140.195" y="179.593" fill="#f00"/><path d="M164.547 137.863m-2.973-.41l.043 1.043m-3.012-1.45l.08 2.083m-3.052-2.493l.117 3.125m-3.09-3.535l.156 4.168m-3.13-4.575l.2 5.207m-3.17-5.617l.237 6.254m-3.21-6.664l.277 7.297m-1.407-7.45l.293 7.688" stroke="#000" stroke-miterlimit="10" fill="none"/><path d="M135.758 133.19h14v11h-14zm0 0" fill="#fff"/><g fill="#00f"><use xlink:href="#c" x="135.758" y="141.854"/><use xlink:href="#d" x="142.735" y="141.854"/></g><path d="M164.547 137.863l11.613 18.453M164.547 137.863l10.18-19.285M176.16 156.316l21.79-.828M197.95 155.488l11.61 18.457M209.56 173.945l10.893-.414" stroke-width="1.2" stroke="#000" stroke-miterlimit="10" fill="none"/><path d="M220.453 173.53l10.895-.413M231.348 173.117l5.808 9.227" stroke-width="1.2" stroke="#00f" stroke-miterlimit="10" fill="none"/><path d="M237.156 182.344l5.805 9.226" stroke-width="1.2" stroke="#000" stroke-miterlimit="10" fill="none"/><path d="M224.348 167.617h14v11h-14zm0 0" fill="#fff"/><g fill="#00f"><use xlink:href="#c" x="224.348" y="176.28"/><use xlink:href="#d" x="231.325" y="176.28"/></g><path d="M242.96 191.57l10.895-.414" stroke-width="1.2" stroke="#000" stroke-miterlimit="10" fill="none"/><path d="M253.855 191.156l10.895-.414" stroke-width="1.2" stroke="#00f" stroke-miterlimit="10" fill="none"/><path d="M240.69 190.375l-5.085 9.64" stroke-width="1.2" stroke="#000" stroke-miterlimit="10" fill="none"/><path d="M235.605 200.016l-5.09 9.644" stroke-width="1.2" stroke="#00f" stroke-miterlimit="10" fill="none"/><path d="M245.23 192.77l-5.09 9.64" stroke-width="1.2" stroke="#000" stroke-miterlimit="10" fill="none"/><path d="M240.14 202.41l-5.085 9.645" stroke-width="1.2" stroke="#00f" stroke-miterlimit="10" fill="none"/><path d="M255.75 182.742h19v16h-19zm0 0" fill="#fff"/><g fill="#00f"><use xlink:href="#c" x="255.75" y="191.405"/><use xlink:href="#d" x="262.728" y="191.405"/></g><use xlink:href="#e" x="269.742" y="196.288" fill="#00f"/><path d="M206.785 201.355h26v19h-26zm0 0" fill="#fff"/><use xlink:href="#f" x="206.785" y="208.574" fill="#00f"/><use xlink:href="#d" x="213.305" y="213.457" fill="#00f"/><use xlink:href="#e" x="220.319" y="218.34" fill="#00f"/><use xlink:href="#c" x="225.27" y="213.457" fill="#00f"/><path d="M176.895 117.21l-5.805-9.226" stroke-width="1.2" stroke="#000" stroke-miterlimit="10" fill="none"/><path d="M171.09 107.984l-5.805-9.226" stroke-width="1.2" stroke="#f00" stroke-miterlimit="10" fill="none"/><path d="M172.555 119.945l-5.81-9.226" stroke-width="1.2" stroke="#000" stroke-miterlimit="10" fill="none"/><path d="M166.746 110.72l-5.805-9.232" stroke-width="1.2" stroke="#f00" stroke-miterlimit="10" fill="none"/><path d="M174.727 118.578l21.785-.828" stroke-width="1.2" stroke="#000" stroke-miterlimit="10" fill="none"/><path d="M155.113 94.625h8v11h-8zm0 0" fill="#fff"/><use xlink:href="#b" x="155.113" y="103.288" fill="#f00"/><path d="M196.512 117.75l6.742 8.57" stroke-width="1.2" stroke="#000" stroke-miterlimit="10" fill="none"/><path d="M203.254 126.32l6.738 8.57" stroke-width="1.2" stroke="#cc0" stroke-miterlimit="10" fill="none"/><path d="M208.652 99.637l-6.07 9.054" stroke-width="1.2" stroke="#00f" stroke-miterlimit="10" fill="none"/><path d="M202.582 108.69l-6.07 9.06" stroke-width="1.2" stroke="#000" stroke-miterlimit="10" fill="none"/><path d="M211.7 104.305l-4.856 7.246" stroke-width="1.2" stroke="#00f" stroke-miterlimit="10" fill="none"/><path d="M206.844 111.55l-4.856 7.243" stroke-width="1.2" stroke="#000" stroke-miterlimit="10" fill="none"/><path d="M209.992 134.89l10.23-3.76" stroke-width="1.2" stroke="#cc0" stroke-miterlimit="10" fill="none"/><path d="M220.223 131.13l10.234-3.76" stroke-width="1.2" stroke="#000" stroke-miterlimit="10" fill="none"/><path d="M206.992 129.39h6v11h-6zm0 0" fill="#fff"/><use xlink:href="#a" x="206.992" y="138.054" fill="#cc0"/><path d="M230.457 127.37l-.828-21.788M225.246 125.387l-.66-17.434M229.63 105.582l-10.49-2.973" stroke-width="1.2" stroke="#000" stroke-miterlimit="10" fill="none"/><path d="M219.14 102.61l-10.488-2.973" stroke-width="1.2" stroke="#00f" stroke-miterlimit="10" fill="none"/><path d="M205.652 94.137h7v11h-7zm0 0" fill="#fff"/><use xlink:href="#c" x="205.652" y="102.8" fill="#00f"/></g></svg>