<svg xmlns="http://www.w3.org/2000/svg" xmlns:xlink="http://www.w3.org/1999/xlink" width="300pt" height="300pt" viewBox="0 0 300 300"><defs><symbol overflow="visible"><path d="M.453 1.594v-7.938h4.5v7.938zm.5-.5h3.5v-6.938h-3.5zm0 0"/></symbol><symbol overflow="visible" id="a"><path d="M4.813-6.344v.86c-.336-.157-.653-.27-.954-.344-.294-.082-.58-.125-.86-.125-.492 0-.867.094-1.125.28-.262.19-.39.454-.39.798 0 .293.085.512.265.656.176.15.504.267.984.36l.547.11c.658.125 1.142.352 1.454.672.32.312.485.734.485 1.265 0 .637-.216 1.122-.642 1.454-.43.325-1.055.485-1.875.485-.312 0-.648-.04-1-.11C1.36-.046 1-.147.625-.296v-.906c.352.2.703.35 1.047.453.35.105.695.156 1.03.156.5 0 .884-.097 1.157-.297.28-.196.42-.485.42-.86 0-.32-.1-.57-.296-.75-.2-.176-.523-.313-.968-.406l-.547-.11C1.81-3.148 1.33-3.36 1.03-3.64.74-3.923.595-4.313.595-4.813c0-.57.203-1.024.61-1.36.405-.344.968-.516 1.687-.516.313 0 .626.032.938.094.32.055.65.137.985.25zm0 0"/></symbol><symbol overflow="visible" id="b"><path d="M3.547-5.953c-.65 0-1.164.242-1.547.72-.375.48-.563 1.13-.563 1.952 0 .835.188 1.49.563 1.967.383.48.898.72 1.547.72.644 0 1.156-.24 1.53-.72.376-.476.564-1.132.564-1.968 0-.822-.187-1.474-.562-1.954-.375-.477-.887-.72-1.53-.72zm0-.734c.914 0 1.648.312 2.203.937.55.617.828 1.438.828 2.47 0 1.042-.277 1.87-.828 2.483-.555.617-1.29.922-2.203.922-.93 0-1.668-.305-2.22-.922C.774-1.41.5-2.237.5-3.28c0-1.033.273-1.853.828-2.47.55-.625 1.29-.938 2.22-.938zm0 0"/></symbol><symbol overflow="visible" id="c"><path d="M1.766-3.14v2.406h1.421c.477 0 .833-.098 1.063-.297.227-.197.344-.5.344-.907 0-.407-.117-.708-.344-.907-.23-.195-.586-.297-1.063-.297zm0-2.688v1.97h1.312c.438 0 .758-.08.97-.236.218-.164.327-.414.327-.75 0-.332-.11-.578-.328-.734-.21-.164-.53-.25-.97-.25zM.89-6.562h2.266c.676 0 1.196.14 1.563.42.362.283.546.685.546 1.205 0 .398-.094.714-.282.953-.187.242-.464.39-.828.453.438.092.774.292 1.016.592.238.293.36.657.36 1.094 0 .594-.2 1.055-.595 1.375-.398.314-.964.47-1.703.47H.89zm0 0"/></symbol><symbol overflow="visible" id="d"><path d="M3.703-4.172c-.094-.05-.195-.086-.297-.11-.105-.02-.226-.03-.36-.03-.46 0-.812.152-1.062.453-.242.294-.36.715-.36 1.266V0H.813v-4.922h.813v.766c.176-.3.398-.524.672-.672.27-.145.598-.22.984-.22.064 0 .126.01.19.017.07.01.147.022.233.03zm0 0"/></symbol><symbol overflow="visible" id="e"><path d="M.89-6.563H2.08l2.906 5.485v-5.484h.86V0H4.656L1.75-5.484V0H.89zm0 0"/></symbol></defs><g><path fill="#fff" d="M0 0h300v300H0z"/><path d="M179.203 158.457l-2.414-8.336" stroke-width="1.2" stroke="#cc0" stroke-miterlimit="10" fill="none"/><path d="M176.79 150.12l-2.41-8.33" stroke-width="1.2" stroke="#f00" stroke-miterlimit="10" fill="none"/><path d="M175.28 159.594l-2.413-8.336" stroke-width="1.2" stroke="#cc0" stroke-miterlimit="10" fill="none"/><path d="M172.867 151.258l-2.41-8.336" stroke-width="1.2" stroke="#f00" stroke-miterlimit="10" fill="none"/><path d="M175.28 159.594l2.41 8.332" stroke-width="1.2" stroke="#cc0" stroke-miterlimit="10" fill="none"/><path d="M177.69 167.926l2.412 8.336" stroke-width="1.2" stroke="#f00" stroke-miterlimit="10" fill="none"/><path d="M179.203 158.457l2.41 8.336" stroke-width="1.2" stroke="#cc0" stroke-miterlimit="10" fill="none"/><path d="M181.613 166.793l2.41 8.336" stroke-width="1.2" stroke="#f00" stroke-miterlimit="10" fill="none"/><path d="M177.242 159.023l8.332-2.41" stroke-width="1.2" stroke="#cc0" stroke-miterlimit="10" fill="none"/><path d="M185.574 156.613l8.336-2.41" stroke-width="1.2" stroke="#000" stroke-miterlimit="10" fill="none"/><path d="M177.242 159.023l-8.336 2.415" stroke-width="1.2" stroke="#cc0" stroke-miterlimit="10" fill="none"/><path d="M168.906 161.438l-8.336 2.41" stroke-width="1.2" stroke="#00f" stroke-miterlimit="10" fill="none"/><path d="M174.242 153.523h6v11h-6zm0 0" fill="#fff"/><use xlink:href="#a" x="174.242" y="162.187" fill="#cc0"/><path d="M168.418 136.855h8v11h-8zm0 0" fill="#fff"/><use xlink:href="#b" x="168.418" y="145.519" fill="#f00"/><path d="M178.063 170.195h8v11h-8zm0 0" fill="#fff"/><use xlink:href="#b" x="178.063" y="178.858" fill="#f00"/><path d="M193.91 154.203l12.512 12.024M197.992 152.46L208 162.083M198.07 137.355l-4.16 16.848M206.422 166.227l16.672-4.82M223.094 161.406l4.156-16.847M219.543 158.742l3.328-13.476M227.25 144.56l16.672-4.826M227.25 144.56l-12.512-12.03M243.922 139.734l4.156-16.847M240.37 137.07l3.33-13.476M248.078 122.887l8.336-2.41" stroke-width="1.2" stroke="#000" stroke-miterlimit="10" fill="none"/><path d="M256.414 120.477l8.336-2.41" stroke-width="1.2" stroke="#7f4d1a" stroke-miterlimit="10" fill="none"/><path d="M248.078 122.887l-12.508-12.024" stroke-width="1.2" stroke="#000" stroke-miterlimit="10" fill="none"/><path d="M259.75 112.566h11v11h-11zm0 0" fill="#fff"/><g fill="#7f4d1a"><use xlink:href="#c" x="259.75" y="121.229"/><use xlink:href="#d" x="266.149" y="121.229"/></g><path d="M235.57 110.863l-16.672 4.82M235.035 115.266l-13.336 3.86M214.738 132.53l4.16-16.846M214.738 132.53l-16.668 4.825M214.207 136.938l-13.336 3.855" stroke-width="1.2" stroke="#000" stroke-miterlimit="10" fill="none"/><path d="M160.57 163.848l-6.254-6.012" stroke-width="1.2" stroke="#00f" stroke-miterlimit="10" fill="none"/><path d="M154.316 157.836l-6.257-6.016M156.41 180.695l2.082-8.425" stroke-width="1.2" stroke="#000" stroke-miterlimit="10" fill="none"/><path d="M158.492 172.27l2.078-8.422" stroke-width="1.2" stroke="#00f" stroke-miterlimit="10" fill="none"/><path d="M157.57 158.348h7v11h-7zm0 0" fill="#fff"/><use xlink:href="#e" x="157.57" y="167.011" fill="#00f"/><path d="M148.06 151.82l-16.67 4.825M131.39 156.645l-2.08 8.42" stroke-width="1.2" stroke="#000" stroke-miterlimit="10" fill="none"/><path d="M129.31 165.066l-2.08 8.426M127.23 173.492l6.254 6.012" stroke-width="1.2" stroke="#00f" stroke-miterlimit="10" fill="none"/><path d="M133.484 179.504l6.258 6.012" stroke-width="1.2" stroke="#000" stroke-miterlimit="10" fill="none"/><path d="M127.23 173.492l-8.335 2.41" stroke-width="1.2" stroke="#00f" stroke-miterlimit="10" fill="none"/><path d="M118.895 175.902l-8.332 2.41" stroke-width="1.2" stroke="#000" stroke-miterlimit="10" fill="none"/><path d="M124.23 167.992h7v11h-7zm0 0" fill="#fff"/><use xlink:href="#e" x="124.23" y="176.655" fill="#00f"/><path d="M139.742 185.516l16.668-4.82M108.578 177.824l-2.078 8.426" stroke-width="1.2" stroke="#000" stroke-miterlimit="10" fill="none"/><path d="M106.5 186.25l-2.082 8.422" stroke-width="1.2" stroke="#f00" stroke-miterlimit="10" fill="none"/><path d="M112.543 178.805l-2.078 8.422" stroke-width="1.2" stroke="#000" stroke-miterlimit="10" fill="none"/><path d="M110.465 187.227l-2.082 8.425" stroke-width="1.2" stroke="#f00" stroke-miterlimit="10" fill="none"/><path d="M110.563 178.313L98.05 166.29" stroke-width="1.2" stroke="#000" stroke-miterlimit="10" fill="none"/><path d="M102.402 189.66h8v11h-8zm0 0" fill="#fff"/><use xlink:href="#b" x="102.402" y="198.323" fill="#f00"/><path d="M98.05 166.29l4.157-16.85M94.5 163.625l3.328-13.477M98.05 166.29l-16.67 4.82M102.207 149.44l-12.512-12.026M89.695 137.414l-16.668 4.824M89.164 141.82l-13.336 3.856M73.027 142.238l-12.51-12.027M68.867 159.086l4.16-16.848M60.516 130.21l-8.543 1.528" stroke-width="1.2" stroke="#000" stroke-miterlimit="10" fill="none"/><path d="M51.973 131.738l-8.54 1.528" stroke-width="1.2" stroke="#00f" stroke-miterlimit="10" fill="none"/><path d="M58.09 126.496l-6.836 1.223" stroke-width="1.2" stroke="#000" stroke-miterlimit="10" fill="none"/><path d="M51.254 127.72l-6.832 1.22M62.89 113.02l-1.187 8.597" stroke-width="1.2" stroke="#00f" stroke-miterlimit="10" fill="none"/><path d="M61.703 121.617l-1.187 8.594" stroke-width="1.2" stroke="#000" stroke-miterlimit="10" fill="none"/><path d="M43.434 133.266l-4.094-7.653" stroke-width="1.2" stroke="#00f" stroke-miterlimit="10" fill="none"/><path d="M39.34 125.613l-4.09-7.652" stroke-width="1.2" stroke="#000" stroke-miterlimit="10" fill="none"/><path d="M40.434 127.766h7v11h-7zm0 0" fill="#fff"/><use xlink:href="#e" x="40.434" y="136.429" fill="#00f"/><path d="M35.25 117.96l12.027-12.51M47.277 105.45l7.805 3.784" stroke-width="1.2" stroke="#000" stroke-miterlimit="10" fill="none"/><path d="M55.082 109.234l7.81 3.786M62.89 113.02l7.653-4.09" stroke-width="1.2" stroke="#00f" stroke-miterlimit="10" fill="none"/><path d="M70.543 108.93l7.652-4.09" stroke-width="1.2" stroke="#000" stroke-miterlimit="10" fill="none"/><path d="M59.89 107.52h7v11h-7zm0 0" fill="#fff"/><use xlink:href="#e" x="59.891" y="116.183" fill="#00f"/><path d="M81.38 171.11l-12.513-12.024M82.957 166.965l-10.008-9.62" stroke-width="1.2" stroke="#000" stroke-miterlimit="10" fill="none"/></g></svg>