<svg xmlns="http://www.w3.org/2000/svg" xmlns:xlink="http://www.w3.org/1999/xlink" width="300pt" height="300pt" viewBox="0 0 300 300"><defs><symbol overflow="visible"><path d="M.453 1.594v-7.938h4.5v7.938zm.5-.5h3.5v-6.938h-3.5zm0 0"/></symbol><symbol overflow="visible" id="a"><path d="M.89-6.563H2.08l2.906 5.485v-5.484h.86V0H4.656L1.75-5.484V0H.89zm0 0"/></symbol><symbol overflow="visible" id="b"><path d="M3.547-5.953c-.65 0-1.164.242-1.547.72-.375.48-.563 1.13-.563 1.952 0 .835.188 1.49.563 1.967.383.48.898.72 1.547.72.644 0 1.156-.24 1.53-.72.376-.476.564-1.132.564-1.968 0-.822-.187-1.474-.562-1.954-.375-.477-.887-.72-1.53-.72zm0-.734c.914 0 1.648.312 2.203.937.55.617.828 1.438.828 2.47 0 1.042-.277 1.87-.828 2.483-.555.617-1.29.922-2.203.922-.93 0-1.668-.305-2.22-.922C.774-1.41.5-2.237.5-3.28c0-1.033.273-1.853.828-2.47.55-.625 1.29-.938 2.22-.938zm0 0"/></symbol><symbol overflow="visible" id="c"><path d="M.89-6.563h.876v2.688H5v-2.688h.89V0H5v-3.125H1.766V0H.89zm0 0"/></symbol><symbol overflow="visible" id="f"><path d="M.89-6.563h3.766v.75h-2.89v1.938h2.61v.734h-2.61V0H.89zm0 0"/></symbol><symbol overflow="visible"><path d="M.406 1.422V-5.64h4V1.42zM.844.97h3.11v-6.157H.843zm0 0"/></symbol><symbol overflow="visible" id="d"><path d="M3.688-5.016v2.172h2.17v.672H3.69V0H3.03v-2.172H.845v-.672H3.03v-2.172zm0 0"/></symbol><symbol overflow="visible" id="e"><path d="M1.53-.672h2.767V0H.594v-.672c.29-.3.695-.71 1.22-1.234.518-.532.842-.867.967-1.016.26-.28.44-.52.533-.72.1-.194.156-.39.156-.577 0-.31-.11-.565-.33-.764-.218-.196-.5-.297-.843-.297-.25 0-.516.046-.797.14-.273.085-.563.214-.875.39v-.797c.32-.133.617-.234.89-.297.282-.062.536-.093.766-.093.603 0 1.083.152 1.44.453.362.304.546.703.546 1.203 0 .24-.047.468-.14.686-.095.22-.26.477-.485.766-.074.074-.288.293-.64.656-.344.356-.836.856-1.47 1.5zm0 0"/></symbol></defs><g><path fill="#fff" d="M0 0h300v300H0z"/><path d="M82.56 114.93L68.894 95.12M82.56 114.93l-4 11.35" stroke-width="1.2" stroke="#00f" stroke-miterlimit="10" fill="none"/><path d="M78.56 126.28l-3.998 11.35M105.62 108.06l-11.53 3.436" stroke-width="1.2" stroke="#000" stroke-miterlimit="10" fill="none"/><path d="M94.09 111.496l-11.53 3.434" stroke-width="1.2" stroke="#00f" stroke-miterlimit="10" fill="none"/><path d="M79.56 109.43h7v11h-7zm0 0" fill="#fff"/><use xlink:href="#a" x="79.559" y="118.093" fill="#00f"/><path d="M68.895 95.12L83.512 76.01M74.855 96.648l11.692-15.293" stroke-width="1.2" stroke="#00f" stroke-miterlimit="10" fill="none"/><path d="M65.895 89.62h7v11h-7zm0 0" fill="#fff"/><use xlink:href="#a" x="65.895" y="98.284" fill="#00f"/><path d="M83.512 76.008l22.7 7.992" stroke-width="1.2" stroke="#00f" stroke-miterlimit="10" fill="none"/><path d="M80.512 70.508h7v11h-7zm0 0" fill="#fff"/><use xlink:href="#a" x="80.512" y="79.171" fill="#00f"/><path d="M106.21 84l-.296 12.03" stroke-width="1.2" stroke="#00f" stroke-miterlimit="10" fill="none"/><path d="M105.914 96.03l-.293 12.03" stroke-width="1.2" stroke="#000" stroke-miterlimit="10" fill="none"/><path d="M100.488 86.27l-.234 9.62" stroke-width="1.2" stroke="#00f" stroke-miterlimit="10" fill="none"/><path d="M100.254 95.89l-.234 9.626" stroke-width="1.2" stroke="#000" stroke-miterlimit="10" fill="none"/><path d="M103.21 78.5h7v11h-7zm0 0" fill="#fff"/><use xlink:href="#a" x="103.211" y="87.163" fill="#00f"/><path d="M105.62 108.06l19.114 14.616M121.93 122.313l-1.55 11.93" stroke-width="1.2" stroke="#000" stroke-miterlimit="10" fill="none"/><path d="M120.38 134.242l-1.552 11.934" stroke-width="1.2" stroke="#f00" stroke-miterlimit="10" fill="none"/><path d="M127.543 123.04l-1.55 11.933" stroke-width="1.2" stroke="#000" stroke-miterlimit="10" fill="none"/><path d="M125.992 134.973l-1.55 11.93" stroke-width="1.2" stroke="#f00" stroke-miterlimit="10" fill="none"/><path d="M124.734 122.676l11.11-4.625" stroke-width="1.2" stroke="#000" stroke-miterlimit="10" fill="none"/><path d="M135.844 118.05l11.11-4.62" stroke-width="1.2" stroke="#00f" stroke-miterlimit="10" fill="none"/><path d="M117.633 141.04h8v11h-8zm0 0" fill="#fff"/><use xlink:href="#b" x="117.633" y="149.702" fill="#f00"/><path d="M146.953 113.43l9.56 7.308" stroke-width="1.2" stroke="#00f" stroke-miterlimit="10" fill="none"/><path d="M156.512 120.738l9.558 7.31" stroke-width="1.2" stroke="#000" stroke-miterlimit="10" fill="none"/><path d="M139.953 107.93h14v11h-14zm0 0" fill="#fff"/><g fill="#00f"><use xlink:href="#a" x="139.953" y="116.593"/><use xlink:href="#c" x="146.931" y="116.593"/></g><path d="M166.07 128.047l-3.1 23.863M171.375 131.164l-2.48 19.09M166.07 128.047l22.215-9.246M162.97 151.91l19.112 14.617M182.082 166.527l22.22-9.246M182.13 160.375l17.772-7.395M204.3 157.28L223.42 171.9M207.402 133.418l-3.1 23.863M223.418 171.898l11.11-4.62" stroke-width="1.2" stroke="#000" stroke-miterlimit="10" fill="none"/><path d="M234.527 167.277l11.106-4.625" stroke-width="1.2" stroke="#00f" stroke-miterlimit="10" fill="none"/><path d="M220.61 171.535l-1.55 11.93" stroke-width="1.2" stroke="#000" stroke-miterlimit="10" fill="none"/><path d="M219.06 183.465l-1.552 11.933" stroke-width="1.2" stroke="#00f" stroke-miterlimit="10" fill="none"/><path d="M226.223 172.266l-1.547 11.93" stroke-width="1.2" stroke="#000" stroke-miterlimit="10" fill="none"/><path d="M224.676 184.195l-1.55 11.934M245.633 162.652l9.558 7.31" stroke-width="1.2" stroke="#00f" stroke-miterlimit="10" fill="none"/><path d="M255.19 169.96l9.56 7.31" stroke-width="1.2" stroke="#000" stroke-miterlimit="10" fill="none"/><path d="M245.633 162.652l1.55-11.93" stroke-width="1.2" stroke="#00f" stroke-miterlimit="10" fill="none"/><path d="M247.184 150.723l1.55-11.934" stroke-width="1.2" stroke="#000" stroke-miterlimit="10" fill="none"/><path d="M242.633 157.152h7v11h-7zm0 0" fill="#fff"/><use xlink:href="#a" x="242.633" y="165.815" fill="#00f"/><path d="M207.316 186.262h26v19h-26zm0 0" fill="#fff"/><use xlink:href="#d" x="207.316" y="193.48" fill="#00f"/><use xlink:href="#c" x="213.836" y="198.363" fill="#00f"/><use xlink:href="#e" x="220.851" y="203.246" fill="#00f"/><use xlink:href="#a" x="225.801" y="198.363" fill="#00f"/><path d="M188.285 118.8l1.55-11.933" stroke-width="1.2" stroke="#000" stroke-miterlimit="10" fill="none"/><path d="M189.836 106.867l1.55-11.93" stroke-width="1.2" stroke="#3cc" stroke-miterlimit="10" fill="none"/><path d="M188.285 118.8l19.117 14.618M186.758 124.762l15.293 11.69" stroke-width="1.2" stroke="#000" stroke-miterlimit="10" fill="none"/><path d="M188.387 89.438h6v11h-6zm0 0" fill="#fff"/><use xlink:href="#f" x="188.387" y="98.101" fill="#3cc"/><path d="M74.563 137.63l15.66 18.272M71.828 143.14l12.527 14.618M50.91 142.055l23.653-4.426M90.223 155.902l-7.996 22.696M82.227 178.598l-23.653 4.425M80.902 184.605l-18.922 3.543M97.887 196.87L82.227 178.6M58.574 183.023l-7.996 22.7M58.574 183.023l-15.66-18.273M50.578 205.723l15.66 18.27M56.445 203.863l12.528 14.617M66.238 223.992l23.653-4.422M89.89 219.57l7.997-22.7M85.352 215.418l6.394-18.156M42.914 164.75l7.996-22.695M49.055 164.363l6.394-18.16M50.91 142.055l-7.832-9.137" stroke-width="1.2" stroke="#000" stroke-miterlimit="10" fill="none"/><path d="M43.078 132.918l-7.828-9.137" stroke-width="1.2" stroke="#3cc" stroke-miterlimit="10" fill="none"/><path d="M29.25 118.28h6v11h-6zm0 0" fill="#fff"/><use xlink:href="#f" x="29.25" y="126.944" fill="#3cc"/></g></svg>