<svg xmlns="http://www.w3.org/2000/svg" xmlns:xlink="http://www.w3.org/1999/xlink" width="300pt" height="300pt" viewBox="0 0 300 300"><defs><symbol overflow="visible"><path d="M.453 1.594v-7.938h4.5v7.938zm.5-.5h3.5v-6.938h-3.5zm0 0"/></symbol><symbol overflow="visible" id="a"><path d="M.89-6.563H2.08l2.906 5.485v-5.484h.86V0H4.656L1.75-5.484V0H.89zm0 0"/></symbol><symbol overflow="visible" id="b"><path d="M5.797-6.063v.938c-.305-.27-.625-.473-.97-.61-.335-.144-.686-.218-1.06-.218-.75 0-1.33.23-1.736.687-.397.46-.592 1.12-.592 1.985 0 .866.195 1.526.593 1.983.408.46.986.688 1.736.688.375 0 .726-.066 1.062-.203.344-.132.664-.343.97-.625V-.5c-.314.21-.642.367-.986.47-.343.1-.714.155-1.11.155-.99 0-1.772-.3-2.343-.906C.784-1.396.5-2.228.5-3.28c0-1.052.285-1.88.86-2.486.57-.613 1.35-.92 2.343-.92.395-.002.766.053 1.11.155.35.104.68.26.984.468zm0 0"/></symbol><symbol overflow="visible" id="c"><path d="M.844-6.844h.812V0H.844zm0 0"/></symbol><symbol overflow="visible" id="d"><path d="M3.547-5.953c-.65 0-1.164.242-1.547.72-.375.48-.563 1.13-.563 1.952 0 .835.188 1.49.563 1.967.383.48.898.72 1.547.72.644 0 1.156-.24 1.53-.72.376-.476.564-1.132.564-1.968 0-.822-.187-1.474-.562-1.954-.375-.477-.887-.72-1.53-.72zm0-.734c.914 0 1.648.312 2.203.937.55.617.828 1.438.828 2.47 0 1.042-.277 1.87-.828 2.483-.555.617-1.29.922-2.203.922-.93 0-1.668-.305-2.22-.922C.774-1.41.5-2.237.5-3.28c0-1.033.273-1.853.828-2.47.55-.625 1.29-.938 2.22-.938zm0 0"/></symbol><symbol overflow="visible" id="e"><path d="M.89-6.563h.876v2.688H5v-2.688h.89V0H5v-3.125H1.766V0H.89zm0 0"/></symbol><symbol overflow="visible"><path d="M.406 1.422V-5.64h4V1.42zM.844.97h3.11v-6.157H.843zm0 0"/></symbol><symbol overflow="visible" id="f"><path d="M1.53-.672h2.767V0H.594v-.672c.29-.3.695-.71 1.22-1.234.518-.532.842-.867.967-1.016.26-.28.44-.52.533-.72.1-.194.156-.39.156-.577 0-.31-.11-.565-.33-.764-.218-.196-.5-.297-.843-.297-.25 0-.516.046-.797.14-.273.085-.563.214-.875.39v-.797c.32-.133.617-.234.89-.297.282-.062.536-.093.766-.093.603 0 1.083.152 1.44.453.362.304.546.703.546 1.203 0 .24-.047.468-.14.686-.095.22-.26.477-.485.766-.074.074-.288.293-.64.656-.344.356-.836.856-1.47 1.5zm0 0"/></symbol><symbol overflow="visible" id="g"><path d="M3.688-5.016v2.172h2.17v.672H3.69V0H3.03v-2.172H.845v-.672H3.03v-2.172zm0 0"/></symbol></defs><g><path fill="#fff" d="M0 0h300v300H0z"/><path d="M112.625 184.313l-1.04 21.152M107.547 186.184l-.832 16.92M112.625 184.313l17.723-11.59" stroke-width="1.2" stroke="#000" stroke-miterlimit="10" fill="none"/><path d="M92.832 176.79l9.898 3.76" stroke-width="1.2" stroke="#00f" stroke-miterlimit="10" fill="none"/><path d="M102.73 180.55l9.895 3.762M111.586 205.465l-20.434 5.547M91.152 211.012l-7.527 19.793M91.152 211.012l-5.797-8.864" stroke-width="1.2" stroke="#000" stroke-miterlimit="10" fill="none"/><path d="M85.355 202.148l-5.793-8.86" stroke-width="1.2" stroke="#00f" stroke-miterlimit="10" fill="none"/><path d="M94.16 206.512l-4.633-7.09" stroke-width="1.2" stroke="#000" stroke-miterlimit="10" fill="none"/><path d="M89.527 199.422l-4.636-7.086M79.563 193.29l13.27-16.5" stroke-width="1.2" stroke="#00f" stroke-miterlimit="10" fill="none"/><path d="M76.563 187.79h7v11h-7zm0 0" fill="#fff"/><use xlink:href="#a" x="76.563" y="196.452" fill="#00f"/><path d="M92.832 176.79l-2.773-10.22" stroke-width="1.2" stroke="#00f" stroke-miterlimit="10" fill="none"/><path d="M90.06 166.57l-2.775-10.215" stroke-width="1.2" stroke="#000" stroke-miterlimit="10" fill="none"/><path d="M89.832 171.29h7v11h-7zm0 0" fill="#fff"/><use xlink:href="#a" x="89.832" y="179.952" fill="#00f"/><path d="M87.285 156.355l14.926-15.023M85.246 151.34l11.938-12.016M66.816 150.94l20.47 5.415M102.21 141.332l-5.546-20.437M96.664 120.895L76.19 115.48M93.344 125.172l-16.38-4.332M76.19 115.48l-5.545-20.433M76.19 115.48l-14.92 15.024M70.645 95.047l-20.47-5.414M67.324 99.32L50.95 94.988M50.176 89.633l-2.774-10.22" stroke-width="1.2" stroke="#000" stroke-miterlimit="10" fill="none"/><path d="M47.402 79.414l-2.773-10.22" stroke-width="1.2" stroke="#0c0" stroke-miterlimit="10" fill="none"/><path d="M50.176 89.633l-14.926 15.02" stroke-width="1.2" stroke="#000" stroke-miterlimit="10" fill="none"/><path d="M39.63 63.695h10v11h-10zm0 0" fill="#fff"/><g fill="#0c0"><use xlink:href="#b" x="39.629" y="72.358"/><use xlink:href="#c" x="46.143" y="72.358"/></g><path d="M35.25 104.652l5.547 20.438M40.613 105.39l4.438 16.352M61.27 130.504l-20.473-5.414M61.27 130.504l5.546 20.437M66.633 131.242l4.437 16.348M132.836 172.586l-.59-10.57" stroke-width="1.2" stroke="#000" stroke-miterlimit="10" fill="none"/><path d="M132.246 162.016l-.586-10.575" stroke-width="1.2" stroke="#f00" stroke-miterlimit="10" fill="none"/><path d="M127.86 172.863l-.587-10.574" stroke-width="1.2" stroke="#000" stroke-miterlimit="10" fill="none"/><path d="M127.273 162.29l-.59-10.57" stroke-width="1.2" stroke="#f00" stroke-miterlimit="10" fill="none"/><path d="M130.348 172.723l9.45 4.777" stroke-width="1.2" stroke="#000" stroke-miterlimit="10" fill="none"/><path d="M139.797 177.5l9.45 4.777" stroke-width="1.2" stroke="#00f" stroke-miterlimit="10" fill="none"/><path d="M125.172 146.082h8v11h-8zm0 0" fill="#fff"/><use xlink:href="#d" x="125.172" y="154.745" fill="#f00"/><path d="M149.246 182.277l8.86-5.797" stroke-width="1.2" stroke="#00f" stroke-miterlimit="10" fill="none"/><path d="M158.105 176.48l8.864-5.796" stroke-width="1.2" stroke="#000" stroke-miterlimit="10" fill="none"/><path d="M142.246 176.777h14v11h-14zm0 0" fill="#fff"/><g fill="#00f"><use xlink:href="#a" x="142.246" y="185.44"/><use xlink:href="#e" x="149.224" y="185.44"/></g><path d="M166.97 170.684l18.897 9.554M171.105 167.195l15.118 7.64M166.97 170.684l-1.177-21.14M185.867 180.238l17.723-11.59M202.41 147.504l1.18 21.144M197.555 149.895l.94 16.914M165.793 149.543l17.72-11.59M170.29 152.555l14.18-9.274M183.512 137.953l18.898 9.55M202.41 147.504l8.863-5.793" stroke-width="1.2" stroke="#000" stroke-miterlimit="10" fill="none"/><path d="M211.273 141.71l8.86-5.796M220.133 135.914l-1.375-10.496" stroke-width="1.2" stroke="#00f" stroke-miterlimit="10" fill="none"/><path d="M218.758 125.418l-1.38-10.5M238.266 146.852l-9.067-5.47" stroke-width="1.2" stroke="#000" stroke-miterlimit="10" fill="none"/><path d="M229.2 141.383l-9.067-5.47" stroke-width="1.2" stroke="#00f" stroke-miterlimit="10" fill="none"/><path d="M217.133 130.414h7v11h-7zm0 0" fill="#fff"/><use xlink:href="#a" x="217.133" y="139.077" fill="#00f"/><path d="M217.38 114.918l14.698-15.242M232.078 99.676l10.54.992" stroke-width="1.2" stroke="#000" stroke-miterlimit="10" fill="none"/><path d="M242.617 100.668l10.543.996M253.16 101.664l5.793 8.86" stroke-width="1.2" stroke="#00f" stroke-miterlimit="10" fill="none"/><path d="M258.953 110.523l5.797 8.864" stroke-width="1.2" stroke="#000" stroke-miterlimit="10" fill="none"/><path d="M240.16 92.164h26v19h-26zm0 0" fill="#fff"/><g fill="#00f"><use xlink:href="#a" x="240.16" y="104.266"/><use xlink:href="#e" x="247.138" y="104.266"/></g><use xlink:href="#f" x="254.152" y="109.148" fill="#00f"/><use xlink:href="#g" x="259.103" y="99.383" fill="#00f"/><path d="M264.75 119.387l-6.63 20.11M258.12 139.496l-19.854 7.356M235.785 146.617l-.996 10.543" stroke-width="1.2" stroke="#000" stroke-miterlimit="10" fill="none"/><path d="M234.79 157.16l-.993 10.54" stroke-width="1.2" stroke="#f00" stroke-miterlimit="10" fill="none"/><path d="M240.746 147.086l-.996 10.54" stroke-width="1.2" stroke="#000" stroke-miterlimit="10" fill="none"/><path d="M239.75 157.625l-.992 10.543" stroke-width="1.2" stroke="#f00" stroke-miterlimit="10" fill="none"/><path d="M232.277 162.434h8v11h-8zm0 0" fill="#fff"/><use xlink:href="#d" x="232.277" y="171.097" fill="#f00"/></g></svg>