<svg xmlns="http://www.w3.org/2000/svg" xmlns:xlink="http://www.w3.org/1999/xlink" width="300pt" height="300pt" viewBox="0 0 300 300"><defs><symbol overflow="visible"><path d="M.453 1.594v-7.938h4.5v7.938zm.5-.5h3.5v-6.938h-3.5zm0 0"/></symbol><symbol overflow="visible" id="a"><path d="M4.813-6.344v.86c-.336-.157-.653-.27-.954-.344-.294-.082-.58-.125-.86-.125-.492 0-.867.094-1.125.28-.262.19-.39.454-.39.798 0 .293.085.512.265.656.176.15.504.267.984.36l.547.11c.658.125 1.142.352 1.454.672.32.312.485.734.485 1.265 0 .637-.216 1.122-.642 1.454-.43.325-1.055.485-1.875.485-.312 0-.648-.04-1-.11C1.36-.046 1-.147.625-.296v-.906c.352.2.703.35 1.047.453.35.105.695.156 1.03.156.5 0 .884-.097 1.157-.297.28-.196.42-.485.42-.86 0-.32-.1-.57-.296-.75-.2-.176-.523-.313-.968-.406l-.547-.11C1.81-3.148 1.33-3.36 1.03-3.64.74-3.923.595-4.313.595-4.813c0-.57.203-1.024.61-1.36.405-.344.968-.516 1.687-.516.313 0 .626.032.938.094.32.055.65.137.985.25zm0 0"/></symbol><symbol overflow="visible" id="b"><path d="M3.547-5.953c-.65 0-1.164.242-1.547.72-.375.48-.563 1.13-.563 1.952 0 .835.188 1.49.563 1.967.383.48.898.72 1.547.72.644 0 1.156-.24 1.53-.72.376-.476.564-1.132.564-1.968 0-.822-.187-1.474-.562-1.954-.375-.477-.887-.72-1.53-.72zm0-.734c.914 0 1.648.312 2.203.937.55.617.828 1.438.828 2.47 0 1.042-.277 1.87-.828 2.483-.555.617-1.29.922-2.203.922-.93 0-1.668-.305-2.22-.922C.774-1.41.5-2.237.5-3.28c0-1.033.273-1.853.828-2.47.55-.625 1.29-.938 2.22-.938zm0 0"/></symbol><symbol overflow="visible" id="c"><path d="M.89-6.563H2.08l2.906 5.485v-5.484h.86V0H4.656L1.75-5.484V0H.89zm0 0"/></symbol><symbol overflow="visible" id="d"><path d="M.89-6.563h.876v2.688H5v-2.688h.89V0H5v-3.125H1.766V0H.89zm0 0"/></symbol><symbol overflow="visible" id="f"><path d="M5.797-6.063v.938c-.305-.27-.625-.473-.97-.61-.335-.144-.686-.218-1.06-.218-.75 0-1.33.23-1.736.687-.397.46-.592 1.12-.592 1.985 0 .866.195 1.526.593 1.983.408.46.986.688 1.736.688.375 0 .726-.066 1.062-.203.344-.132.664-.343.97-.625V-.5c-.314.21-.642.367-.986.47-.343.1-.714.155-1.11.155-.99 0-1.772-.3-2.343-.906C.784-1.396.5-2.228.5-3.28c0-1.052.285-1.88.86-2.486.57-.613 1.35-.92 2.343-.92.395-.002.766.053 1.11.155.35.104.68.26.984.468zm0 0"/></symbol><symbol overflow="visible" id="g"><path d="M.844-6.844h.812V0H.844zm0 0"/></symbol><symbol overflow="visible"><path d="M.406 1.422V-5.64h4V1.42zM.844.97h3.11v-6.157H.843zm0 0"/></symbol><symbol overflow="visible" id="e"><path d="M3.688-5.016v2.172h2.17v.672H3.69V0H3.03v-2.172H.845v-.672H3.03v-2.172zm0 0"/></symbol></defs><g><path fill="#fff" d="M0 0h300v300H0z"/><path d="M200.488 192.406l6.99-5.008" stroke-width="1.2" stroke="#cc0" stroke-miterlimit="10" fill="none"/><path d="M207.477 187.398l6.988-5.01" stroke-width="1.2" stroke="#f00" stroke-miterlimit="10" fill="none"/><path d="M198.13 189.117l6.99-5.008" stroke-width="1.2" stroke="#cc0" stroke-miterlimit="10" fill="none"/><path d="M205.12 184.11l6.99-5.012" stroke-width="1.2" stroke="#f00" stroke-miterlimit="10" fill="none"/><path d="M198.13 189.117l-6.99 5.008" stroke-width="1.2" stroke="#cc0" stroke-miterlimit="10" fill="none"/><path d="M191.14 194.125l-6.988 5.008" stroke-width="1.2" stroke="#f00" stroke-miterlimit="10" fill="none"/><path d="M200.488 192.406l-6.992 5.008" stroke-width="1.2" stroke="#cc0" stroke-miterlimit="10" fill="none"/><path d="M193.496 197.414l-6.988 5.008" stroke-width="1.2" stroke="#f00" stroke-miterlimit="10" fill="none"/><path d="M199.31 190.762l-5.01-6.992" stroke-width="1.2" stroke="#cc0" stroke-miterlimit="10" fill="none"/><path d="M194.3 183.77l-5.01-6.99" stroke-width="1.2" stroke="#00f" stroke-miterlimit="10" fill="none"/><path d="M199.31 190.762l5.006 6.988" stroke-width="1.2" stroke="#cc0" stroke-miterlimit="10" fill="none"/><path d="M204.316 197.75l5.012 6.992" stroke-width="1.2" stroke="#000" stroke-miterlimit="10" fill="none"/><path d="M196.31 185.262h6v11h-6zm0 0" fill="#fff"/><use xlink:href="#a" x="196.309" y="193.925" fill="#cc0"/><path d="M209.29 175.242h8v11h-8zm0 0" fill="#fff"/><use xlink:href="#b" x="209.289" y="183.905" fill="#f00"/><path d="M177.328 195.277h8v11h-8zm0 0" fill="#fff"/><use xlink:href="#b" x="177.328" y="203.94" fill="#f00"/><path d="M189.29 176.78l3.55-7.83" stroke-width="1.2" stroke="#00f" stroke-miterlimit="10" fill="none"/><path d="M192.84 168.95l3.547-7.833M172.176 178.47l8.558-.845" stroke-width="1.2" stroke="#000" stroke-miterlimit="10" fill="none"/><path d="M180.734 177.625l8.555-.844" stroke-width="1.2" stroke="#00f" stroke-miterlimit="10" fill="none"/><path d="M186.29 171.28h7v11h-7zm0 0" fill="#fff"/><use xlink:href="#c" x="186.289" y="179.944" fill="#00f"/><path d="M196.387 161.117l-10.016-13.98M186.37 147.137l-8.558.843" stroke-width="1.2" stroke="#000" stroke-miterlimit="10" fill="none"/><path d="M177.813 147.98l-8.56.844M169.254 148.824l-5.008-6.992" stroke-width="1.2" stroke="#00f" stroke-miterlimit="10" fill="none"/><path d="M164.246 141.832l-5.008-6.988" stroke-width="1.2" stroke="#000" stroke-miterlimit="10" fill="none"/><path d="M169.254 148.824l-3.547 7.832" stroke-width="1.2" stroke="#00f" stroke-miterlimit="10" fill="none"/><path d="M165.707 156.656l-3.55 7.832" stroke-width="1.2" stroke="#000" stroke-miterlimit="10" fill="none"/><path d="M166.254 143.324h7v11h-7zm0 0" fill="#fff"/><use xlink:href="#c" x="166.254" y="151.987" fill="#00f"/><path d="M159.04 132.828l-8.56.844" stroke-width="1.2" stroke="#000" stroke-miterlimit="10" fill="none"/><path d="M150.48 133.672l-8.558.844" stroke-width="1.2" stroke="#f00" stroke-miterlimit="10" fill="none"/><path d="M159.434 136.855l-8.555.844" stroke-width="1.2" stroke="#000" stroke-miterlimit="10" fill="none"/><path d="M150.88 137.7l-8.56.843" stroke-width="1.2" stroke="#f00" stroke-miterlimit="10" fill="none"/><path d="M159.238 134.844l7.098-15.668" stroke-width="1.2" stroke="#000" stroke-miterlimit="10" fill="none"/><path d="M134.12 131.027h8v11h-8zm0 0" fill="#fff"/><use xlink:href="#b" x="134.121" y="139.69" fill="#f00"/><path d="M166.336 119.176l17.113-1.684M167.648 114.98l13.692-1.347M156.316 105.2l10.02 13.976M183.45 117.492l7.097-15.668M190.547 101.824L180.53 87.848M186.258 102.785l-8.016-11.183M180.53 87.848l-17.116 1.683M180.53 87.848l7.095-15.668M163.414 89.53l-7.098 15.67M166.39 92.77l-5.68 12.53M187.625 72.18l-4.25-7.473" stroke-width="1.2" stroke="#000" stroke-miterlimit="10" fill="none"/><path d="M183.375 64.707l-4.25-7.477" stroke-width="1.2" stroke="#00f" stroke-miterlimit="10" fill="none"/><path d="M190.293 68.684l-3.398-5.977" stroke-width="1.2" stroke="#000" stroke-miterlimit="10" fill="none"/><path d="M186.895 62.707l-3.403-5.98M204.473 68.715l-8.422 1.734" stroke-width="1.2" stroke="#00f" stroke-miterlimit="10" fill="none"/><path d="M196.05 70.45l-8.425 1.73" stroke-width="1.2" stroke="#000" stroke-miterlimit="10" fill="none"/><path d="M179.125 57.23l5.797-6.35" stroke-width="1.2" stroke="#00f" stroke-miterlimit="10" fill="none"/><path d="M184.922 50.88l5.793-6.357" stroke-width="1.2" stroke="#000" stroke-miterlimit="10" fill="none"/><path d="M176.125 51.73h7v11h-7zm0 0" fill="#fff"/><use xlink:href="#c" x="176.125" y="60.394" fill="#00f"/><path d="M190.715 44.523l15.668 7.098M206.383 51.62l-.957 8.548" stroke-width="1.2" stroke="#000" stroke-miterlimit="10" fill="none"/><path d="M205.426 60.168l-.953 8.547M204.473 68.715l6.35 5.797" stroke-width="1.2" stroke="#00f" stroke-miterlimit="10" fill="none"/><path d="M210.824 74.512l6.356 5.793" stroke-width="1.2" stroke="#000" stroke-miterlimit="10" fill="none"/><path d="M201.473 63.215h7v11h-7zm0 0" fill="#fff"/><use xlink:href="#c" x="201.473" y="71.878" fill="#00f"/><path d="M162.156 164.488l10.02 13.98" stroke-width="1.2" stroke="#000" stroke-miterlimit="10" fill="none"/><path d="M162.156 164.488l-17.414-1.336.598 6.043zm0 0"/><path d="M145.043 166.176l-7.098 15.664M136.3 183.02l5.01 6.988" stroke-width="1.2" stroke="#000" stroke-miterlimit="10" fill="none"/><path d="M141.31 190.008l5.006 6.992" stroke-width="1.2" stroke="#f00" stroke-miterlimit="10" fill="none"/><path d="M139.59 180.66l5.008 6.992" stroke-width="1.2" stroke="#000" stroke-miterlimit="10" fill="none"/><path d="M144.598 187.652l5.007 6.99" stroke-width="1.2" stroke="#f00" stroke-miterlimit="10" fill="none"/><path d="M137.945 181.84l-8.558.844" stroke-width="1.2" stroke="#000" stroke-miterlimit="10" fill="none"/><path d="M129.387 182.684l-8.56.843" stroke-width="1.2" stroke="#00f" stroke-miterlimit="10" fill="none"/><path d="M143.96 190.32h8v11h-8zm0 0" fill="#fff"/><use xlink:href="#b" x="143.961" y="198.983" fill="#f00"/><path d="M120.828 183.527l-5.008-6.992" stroke-width="1.2" stroke="#00f" stroke-miterlimit="10" fill="none"/><path d="M115.82 176.535l-5.01-6.988M113.73 199.19l3.55-7.83" stroke-width="1.2" stroke="#000" stroke-miterlimit="10" fill="none"/><path d="M117.28 191.36l3.548-7.833" stroke-width="1.2" stroke="#00f" stroke-miterlimit="10" fill="none"/><path d="M117.828 178.027h7v11h-7zm0 0" fill="#fff"/><use xlink:href="#c" x="117.828" y="186.69" fill="#00f"/><path d="M110.81 169.547l-17.115 1.687M93.695 171.234l-3.55 7.832" stroke-width="1.2" stroke="#000" stroke-miterlimit="10" fill="none"/><path d="M90.145 179.066l-3.547 7.832M86.598 186.898l5.007 6.99" stroke-width="1.2" stroke="#00f" stroke-miterlimit="10" fill="none"/><path d="M91.605 193.887l5.008 6.992" stroke-width="1.2" stroke="#000" stroke-miterlimit="10" fill="none"/><path d="M86.598 186.898l-8.56.844" stroke-width="1.2" stroke="#00f" stroke-miterlimit="10" fill="none"/><path d="M78.04 187.742l-8.56.844" stroke-width="1.2" stroke="#000" stroke-miterlimit="10" fill="none"/><path d="M83.598 181.398h7v11h-7zm0 0" fill="#fff"/><use xlink:href="#c" x="83.598" y="190.062" fill="#00f"/><path d="M96.613 200.88l17.117-1.69M69.48 188.586l-10.015-13.98M65.19 189.543l-8.014-11.184M62.383 204.25l7.097-15.664M59.465 174.605l-17.117 1.688M42.348 176.293l-3.55 7.832" stroke-width="1.2" stroke="#000" stroke-miterlimit="10" fill="none"/><path d="M38.797 184.125l-3.547 7.832" stroke-width="1.2" stroke="#00f" stroke-miterlimit="10" fill="none"/><path d="M45.324 179.527l-2.84 6.266" stroke-width="1.2" stroke="#000" stroke-miterlimit="10" fill="none"/><path d="M42.484 185.793l-2.84 6.266M35.25 191.957l5.008 6.988" stroke-width="1.2" stroke="#00f" stroke-miterlimit="10" fill="none"/><path d="M40.258 198.945l5.012 6.993" stroke-width="1.2" stroke="#000" stroke-miterlimit="10" fill="none"/><path d="M25.25 184.457h21v15h-21zm0 0" fill="#fff"/><g fill="#00f"><use xlink:href="#c" x="25.25" y="196.559"/><use xlink:href="#d" x="32.228" y="196.559"/></g><use xlink:href="#e" x="39.242" y="191.676" fill="#00f"/><path d="M45.27 205.938l17.113-1.688M46.582 201.742l13.69-1.35M209.328 204.742l-5.422 16.32M212.625 207.648l-4.336 13.06" stroke-width="1.2" stroke="#000" stroke-miterlimit="10" fill="none"/><path d="M226.523 204.852l-8.597-.055" stroke-width="1.2" stroke="#cc0" stroke-miterlimit="10" fill="none"/><path d="M217.926 204.797l-8.598-.055M203.906 221.063l13.848 10.2M217.754 231.262l1.684 17.117M221.95 232.578l1.347 13.692M217.754 231.262l13.98-10.02M219.438 248.38l15.667 7.097M235.105 255.477l13.98-10.02M234.145 251.184l11.183-8.016M249.086 245.457l7.832 3.55" stroke-width="1.2" stroke="#000" stroke-miterlimit="10" fill="none"/><path d="M256.918 249.008l7.832 3.547" stroke-width="1.2" stroke="#0c0" stroke-miterlimit="10" fill="none"/><path d="M249.086 245.457l-1.688-17.117" stroke-width="1.2" stroke="#000" stroke-miterlimit="10" fill="none"/><path d="M259.75 247.055h10v11h-10zm0 0" fill="#fff"/><g fill="#0c0"><use xlink:href="#f" x="259.75" y="255.718"/><use xlink:href="#g" x="266.264" y="255.718"/></g><path d="M231.734 221.242l15.664 7.098M231.63 225.64l12.53 5.676M231.734 221.242l-2.605-8.195" stroke-width="1.2" stroke="#000" stroke-miterlimit="10" fill="none"/><path d="M229.13 213.047l-2.607-8.195" stroke-width="1.2" stroke="#cc0" stroke-miterlimit="10" fill="none"/><path d="M223.523 199.352h6v11h-6zm0 0" fill="#fff"/><use xlink:href="#a" x="223.523" y="208.015" fill="#cc0"/></g></svg>