<svg xmlns="http://www.w3.org/2000/svg" xmlns:xlink="http://www.w3.org/1999/xlink" width="300pt" height="300pt" viewBox="0 0 300 300"><defs><symbol overflow="visible"><path d="M.453 1.594v-7.938h4.5v7.938zm.5-.5h3.5v-6.938h-3.5zm0 0"/></symbol><symbol overflow="visible" id="a"><path d="M4.813-6.344v.86c-.336-.157-.653-.27-.954-.344-.294-.082-.58-.125-.86-.125-.492 0-.867.094-1.125.28-.262.19-.39.454-.39.798 0 .293.085.512.265.656.176.15.504.267.984.36l.547.11c.658.125 1.142.352 1.454.672.32.312.485.734.485 1.265 0 .637-.216 1.122-.642 1.454-.43.325-1.055.485-1.875.485-.312 0-.648-.04-1-.11C1.36-.046 1-.147.625-.296v-.906c.352.2.703.35 1.047.453.35.105.695.156 1.03.156.5 0 .884-.097 1.157-.297.28-.196.42-.485.42-.86 0-.32-.1-.57-.296-.75-.2-.176-.523-.313-.968-.406l-.547-.11C1.81-3.148 1.33-3.36 1.03-3.64.74-3.923.595-4.313.595-4.813c0-.57.203-1.024.61-1.36.405-.344.968-.516 1.687-.516.313 0 .626.032.938.094.32.055.65.137.985.25zm0 0"/></symbol><symbol overflow="visible" id="b"><path d="M.89-6.563H2.08l2.906 5.485v-5.484h.86V0H4.656L1.75-5.484V0H.89zm0 0"/></symbol><symbol overflow="visible" id="c"><path d="M.89-6.563h.876v2.688H5v-2.688h.89V0H5v-3.125H1.766V0H.89zm0 0"/></symbol><symbol overflow="visible" id="e"><path d="M3.547-5.953c-.65 0-1.164.242-1.547.72-.375.48-.563 1.13-.563 1.952 0 .835.188 1.49.563 1.967.383.48.898.72 1.547.72.644 0 1.156-.24 1.53-.72.376-.476.564-1.132.564-1.968 0-.822-.187-1.474-.562-1.954-.375-.477-.887-.72-1.53-.72zm0-.734c.914 0 1.648.312 2.203.937.55.617.828 1.438.828 2.47 0 1.042-.277 1.87-.828 2.483-.555.617-1.29.922-2.203.922-.93 0-1.668-.305-2.22-.922C.774-1.41.5-2.237.5-3.28c0-1.033.273-1.853.828-2.47.55-.625 1.29-.938 2.22-.938zm0 0"/></symbol><symbol overflow="visible" id="f"><path d="M1.766-3.14v2.406h1.421c.477 0 .833-.098 1.063-.297.227-.197.344-.5.344-.907 0-.407-.117-.708-.344-.907-.23-.195-.586-.297-1.063-.297zm0-2.688v1.97h1.312c.438 0 .758-.08.97-.236.218-.164.327-.414.327-.75 0-.332-.11-.578-.328-.734-.21-.164-.53-.25-.97-.25zM.89-6.562h2.266c.676 0 1.196.14 1.563.42.362.283.546.685.546 1.205 0 .398-.094.714-.282.953-.187.242-.464.39-.828.453.438.092.774.292 1.016.592.238.293.36.657.36 1.094 0 .594-.2 1.055-.595 1.375-.398.314-.964.47-1.703.47H.89zm0 0"/></symbol><symbol overflow="visible" id="g"><path d="M3.703-4.172c-.094-.05-.195-.086-.297-.11-.105-.02-.226-.03-.36-.03-.46 0-.812.152-1.062.453-.242.294-.36.715-.36 1.266V0H.813v-4.922h.813v.766c.176-.3.398-.524.672-.672.27-.145.598-.22.984-.22.064 0 .126.01.19.017.07.01.147.022.233.03zm0 0"/></symbol><symbol overflow="visible"><path d="M.406 1.422V-5.64h4V1.42zM.844.97h3.11v-6.157H.843zm0 0"/></symbol><symbol overflow="visible" id="d"><path d="M1.53-.672h2.767V0H.594v-.672c.29-.3.695-.71 1.22-1.234.518-.532.842-.867.967-1.016.26-.28.44-.52.533-.72.1-.194.156-.39.156-.577 0-.31-.11-.565-.33-.764-.218-.196-.5-.297-.843-.297-.25 0-.516.046-.797.14-.273.085-.563.214-.875.39v-.797c.32-.133.617-.234.89-.297.282-.062.536-.093.766-.093.603 0 1.083.152 1.44.453.362.304.546.703.546 1.203 0 .24-.047.468-.14.686-.095.22-.26.477-.485.766-.074.074-.288.293-.64.656-.344.356-.836.856-1.47 1.5zm0 0"/></symbol></defs><g><path fill="#fff" d="M0 0h300v300H0z"/><path d="M74.98 176.87l6.403 4.454" stroke-width="1.2" stroke="#cc0" stroke-miterlimit="10" fill="none"/><path d="M81.383 181.324l6.406 4.453" stroke-width="1.2" stroke="#00f" stroke-miterlimit="10" fill="none"/><path d="M73.473 175.824l-4.453 6.403" stroke-width="1.2" stroke="#cc0" stroke-miterlimit="10" fill="none"/><path d="M69.02 182.227l-4.45 6.406" stroke-width="1.2" stroke="#f00" stroke-miterlimit="10" fill="none"/><path d="M76.488 177.918l-4.453 6.406" stroke-width="1.2" stroke="#cc0" stroke-miterlimit="10" fill="none"/><path d="M72.035 184.324l-4.453 6.403" stroke-width="1.2" stroke="#f00" stroke-miterlimit="10" fill="none"/><path d="M76.488 177.918l4.453-6.402" stroke-width="1.2" stroke="#cc0" stroke-miterlimit="10" fill="none"/><path d="M80.94 171.516l4.45-6.407" stroke-width="1.2" stroke="#f00" stroke-miterlimit="10" fill="none"/><path d="M73.473 175.824l4.453-6.406" stroke-width="1.2" stroke="#cc0" stroke-miterlimit="10" fill="none"/><path d="M77.926 169.418l4.453-6.402" stroke-width="1.2" stroke="#f00" stroke-miterlimit="10" fill="none"/><path d="M74.98 176.87l-6.402-4.452" stroke-width="1.2" stroke="#cc0" stroke-miterlimit="10" fill="none"/><path d="M68.578 172.418l-6.406-4.453" stroke-width="1.2" stroke="#000" stroke-miterlimit="10" fill="none"/><path d="M71.98 171.37h6v11h-6zm0 0" fill="#fff"/><use xlink:href="#a" x="71.98" y="180.034" fill="#cc0"/><path d="M78.79 177.777h19v16h-19zm0 0" fill="#fff"/><g fill="#00f"><use xlink:href="#b" x="78.789" y="186.44"/><use xlink:href="#c" x="85.767" y="186.44"/></g><use xlink:href="#d" x="92.781" y="191.323" fill="#00f"/><path d="M58.074 184.18h8v11h-8zm0 0" fill="#fff"/><use xlink:href="#e" x="58.074" y="192.843" fill="#f00"/><path d="M79.887 158.563h8v11h-8zm0 0" fill="#fff"/><use xlink:href="#e" x="79.887" y="167.226" fill="#f00"/><path d="M62.172 167.965l-14.113 6.64M59.2 165.31l-11.294 5.31M63.48 152.422l-1.308 15.543M48.06 174.605L35.25 165.7M35.25 165.7l1.31-15.544M39.04 164.453l1.046-12.433M36.56 150.156l14.112-6.64M50.672 143.516l12.808 8.906M49.86 147.422l10.245 7.125M63.48 152.422l14.118-6.64M77.598 145.78l12.804 8.907M80.973 143.66l10.246 7.125M78.906 130.238l-1.308 15.543M90.402 154.688l14.118-6.64M104.52 148.047l1.308-15.543M100.992 146.188l1.047-12.438M105.828 132.504l-12.808-8.902M105.828 132.504l14.117-6.637M93.02 123.602l-14.114 6.636M93.172 127.586l-11.293 5.31M119.945 125.867l6.403 4.45" stroke-width="1.2" stroke="#000" stroke-miterlimit="10" fill="none"/><path d="M126.348 130.316l6.402 4.454" stroke-width="1.2" stroke="#00f" stroke-miterlimit="10" fill="none"/><path d="M121.773 126.02l.653-7.774" stroke-width="1.2" stroke="#000" stroke-miterlimit="10" fill="none"/><path d="M122.426 118.246l.656-7.77" stroke-width="1.2" stroke="#f00" stroke-miterlimit="10" fill="none"/><path d="M118.113 125.71l.657-7.77" stroke-width="1.2" stroke="#000" stroke-miterlimit="10" fill="none"/><path d="M118.77 117.94l.652-7.772" stroke-width="1.2" stroke="#f00" stroke-miterlimit="10" fill="none"/><path d="M132.75 134.77l7.06-3.32" stroke-width="1.2" stroke="#00f" stroke-miterlimit="10" fill="none"/><path d="M139.81 131.45l7.057-3.317" stroke-width="1.2" stroke="#000" stroke-miterlimit="10" fill="none"/><path d="M125.75 129.27h14v11h-14zm0 0" fill="#fff"/><g fill="#00f"><use xlink:href="#b" x="125.75" y="137.933"/><use xlink:href="#c" x="132.728" y="137.933"/></g><path d="M146.867 128.133l12.81 8.902M159.676 137.035l7.054-3.32" stroke-width="1.2" stroke="#000" stroke-miterlimit="10" fill="none"/><path d="M166.73 133.715l7.06-3.317M173.79 130.398l6.4 4.45" stroke-width="1.2" stroke="#00f" stroke-miterlimit="10" fill="none"/><path d="M180.19 134.848l6.408 4.453" stroke-width="1.2" stroke="#cc0" stroke-miterlimit="10" fill="none"/><path d="M166.79 124.898h14v11h-14zm0 0" fill="#fff"/><g fill="#00f"><use xlink:href="#b" x="166.789" y="133.562"/><use xlink:href="#c" x="173.767" y="133.562"/></g><path d="M188.105 140.348l4.45-6.403" stroke-width="1.2" stroke="#cc0" stroke-miterlimit="10" fill="none"/><path d="M192.555 133.945l4.453-6.402" stroke-width="1.2" stroke="#f00" stroke-miterlimit="10" fill="none"/><path d="M185.09 138.254l4.453-6.402" stroke-width="1.2" stroke="#cc0" stroke-miterlimit="10" fill="none"/><path d="M189.543 131.852l4.453-6.407" stroke-width="1.2" stroke="#f00" stroke-miterlimit="10" fill="none"/><path d="M185.09 138.254l-4.453 6.402" stroke-width="1.2" stroke="#cc0" stroke-miterlimit="10" fill="none"/><path d="M180.637 144.656l-4.453 6.406" stroke-width="1.2" stroke="#f00" stroke-miterlimit="10" fill="none"/><path d="M188.105 140.348l-4.453 6.406" stroke-width="1.2" stroke="#cc0" stroke-miterlimit="10" fill="none"/><path d="M183.652 146.754l-4.453 6.402" stroke-width="1.2" stroke="#f00" stroke-miterlimit="10" fill="none"/><path d="M186.598 139.3l6.402 4.454" stroke-width="1.2" stroke="#cc0" stroke-miterlimit="10" fill="none"/><path d="M193 143.754l6.406 4.453" stroke-width="1.2" stroke="#000" stroke-miterlimit="10" fill="none"/><path d="M183.598 133.8h6v11h-6zm0 0" fill="#fff"/><use xlink:href="#a" x="183.598" y="142.464" fill="#cc0"/><path d="M191.504 120.996h8v11h-8zm0 0" fill="#fff"/><use xlink:href="#e" x="191.504" y="129.659" fill="#f00"/><path d="M169.69 146.61h8v11h-8zm0 0" fill="#fff"/><use xlink:href="#e" x="169.691" y="155.272" fill="#f00"/><path d="M199.406 148.207l-1.308 15.543M202.93 150.07l-1.047 12.434M213.52 141.566l-14.114 6.64M198.098 163.75l12.804 8.906M210.902 172.656l14.118-6.64M210.754 168.672l11.293-5.313M225.02 166.016l12.808 8.906M225.02 166.016l1.308-15.543M237.828 174.922l14.113-6.64M237.676 170.938l11.293-5.313M251.94 168.28l6.408 4.454" stroke-width="1.2" stroke="#000" stroke-miterlimit="10" fill="none"/><path d="M258.348 172.734l6.402 4.453" stroke-width="1.2" stroke="#7f4d1a" stroke-miterlimit="10" fill="none"/><path d="M251.94 168.28l1.31-15.542" stroke-width="1.2" stroke="#000" stroke-miterlimit="10" fill="none"/><path d="M259.75 171.688h11v11h-11zm0 0" fill="#fff"/><g fill="#7f4d1a"><use xlink:href="#f" x="259.75" y="180.351"/><use xlink:href="#g" x="266.149" y="180.351"/></g><path d="M253.25 152.738l-12.81-8.906M249.875 154.86l-10.246-7.122M226.328 150.473l14.113-6.64M226.328 150.473l-12.808-8.907M222.953 152.594l-10.246-7.12" stroke-width="1.2" stroke="#000" stroke-miterlimit="10" fill="none"/><path d="M117.25 104.82h8v11h-8zm0 0" fill="#fff"/><use xlink:href="#e" x="117.25" y="113.483" fill="#f00"/></g></svg>