<svg xmlns="http://www.w3.org/2000/svg" xmlns:xlink="http://www.w3.org/1999/xlink" width="300pt" height="300pt" viewBox="0 0 300 300"><defs><symbol overflow="visible"><path d="M.453 1.594v-7.938h4.5v7.938zm.5-.5h3.5v-6.938h-3.5zm0 0"/></symbol><symbol overflow="visible" id="a"><path d="M4.813-6.344v.86c-.336-.157-.653-.27-.954-.344-.294-.082-.58-.125-.86-.125-.492 0-.867.094-1.125.28-.262.19-.39.454-.39.798 0 .293.085.512.265.656.176.15.504.267.984.36l.547.11c.658.125 1.142.352 1.454.672.32.312.485.734.485 1.265 0 .637-.216 1.122-.642 1.454-.43.325-1.055.485-1.875.485-.312 0-.648-.04-1-.11C1.36-.046 1-.147.625-.296v-.906c.352.2.703.35 1.047.453.35.105.695.156 1.03.156.5 0 .884-.097 1.157-.297.28-.196.42-.485.42-.86 0-.32-.1-.57-.296-.75-.2-.176-.523-.313-.968-.406l-.547-.11C1.81-3.148 1.33-3.36 1.03-3.64.74-3.923.595-4.313.595-4.813c0-.57.203-1.024.61-1.36.405-.344.968-.516 1.687-.516.313 0 .626.032.938.094.32.055.65.137.985.25zm0 0"/></symbol><symbol overflow="visible" id="b"><path d="M.89-6.563H2.08l2.906 5.485v-5.484h.86V0H4.656L1.75-5.484V0H.89zm0 0"/></symbol><symbol overflow="visible" id="c"><path d="M.89-6.563h.876v2.688H5v-2.688h.89V0H5v-3.125H1.766V0H.89zm0 0"/></symbol><symbol overflow="visible" id="e"><path d="M3.547-5.953c-.65 0-1.164.242-1.547.72-.375.48-.563 1.13-.563 1.952 0 .835.188 1.49.563 1.967.383.48.898.72 1.547.72.644 0 1.156-.24 1.53-.72.376-.476.564-1.132.564-1.968 0-.822-.187-1.474-.562-1.954-.375-.477-.887-.72-1.53-.72zm0-.734c.914 0 1.648.312 2.203.937.55.617.828 1.438.828 2.47 0 1.042-.277 1.87-.828 2.483-.555.617-1.29.922-2.203.922-.93 0-1.668-.305-2.22-.922C.774-1.41.5-2.237.5-3.28c0-1.033.273-1.853.828-2.47.55-.625 1.29-.938 2.22-.938zm0 0"/></symbol><symbol overflow="visible" id="f"><path d="M1.766-3.14v2.406h1.421c.477 0 .833-.098 1.063-.297.227-.197.344-.5.344-.907 0-.407-.117-.708-.344-.907-.23-.195-.586-.297-1.063-.297zm0-2.688v1.97h1.312c.438 0 .758-.08.97-.236.218-.164.327-.414.327-.75 0-.332-.11-.578-.328-.734-.21-.164-.53-.25-.97-.25zM.89-6.562h2.266c.676 0 1.196.14 1.563.42.362.283.546.685.546 1.205 0 .398-.094.714-.282.953-.187.242-.464.39-.828.453.438.092.774.292 1.016.592.238.293.36.657.36 1.094 0 .594-.2 1.055-.595 1.375-.398.314-.964.47-1.703.47H.89zm0 0"/></symbol><symbol overflow="visible" id="g"><path d="M3.703-4.172c-.094-.05-.195-.086-.297-.11-.105-.02-.226-.03-.36-.03-.46 0-.812.152-1.062.453-.242.294-.36.715-.36 1.266V0H.813v-4.922h.813v.766c.176-.3.398-.524.672-.672.27-.145.598-.22.984-.22.064 0 .126.01.19.017.07.01.147.022.233.03zm0 0"/></symbol><symbol overflow="visible"><path d="M.406 1.422V-5.64h4V1.42zM.844.97h3.11v-6.157H.843zm0 0"/></symbol><symbol overflow="visible" id="d"><path d="M1.53-.672h2.767V0H.594v-.672c.29-.3.695-.71 1.22-1.234.518-.532.842-.867.967-1.016.26-.28.44-.52.533-.72.1-.194.156-.39.156-.577 0-.31-.11-.565-.33-.764-.218-.196-.5-.297-.843-.297-.25 0-.516.046-.797.14-.273.085-.563.214-.875.39v-.797c.32-.133.617-.234.89-.297.282-.062.536-.093.766-.093.603 0 1.083.152 1.44.453.362.304.546.703.546 1.203 0 .24-.047.468-.14.686-.095.22-.26.477-.485.766-.074.074-.288.293-.64.656-.344.356-.836.856-1.47 1.5zm0 0"/></symbol></defs><g><path fill="#fff" d="M0 0h300v300H0z"/><path d="M70.887 182.422l4.718 6.957" stroke-width="1.2" stroke="#cc0" stroke-miterlimit="10" fill="none"/><path d="M75.605 189.38l4.72 6.956" stroke-width="1.2" stroke="#00f" stroke-miterlimit="10" fill="none"/><path d="M69.777 180.785l-6.953 4.72" stroke-width="1.2" stroke="#cc0" stroke-miterlimit="10" fill="none"/><path d="M62.824 185.504l-6.957 4.72" stroke-width="1.2" stroke="#f00" stroke-miterlimit="10" fill="none"/><path d="M72 184.06l-6.957 4.717" stroke-width="1.2" stroke="#cc0" stroke-miterlimit="10" fill="none"/><path d="M65.043 188.777l-6.957 4.72" stroke-width="1.2" stroke="#f00" stroke-miterlimit="10" fill="none"/><path d="M72 184.06l6.953-4.72" stroke-width="1.2" stroke="#cc0" stroke-miterlimit="10" fill="none"/><path d="M78.953 179.34l6.957-4.715" stroke-width="1.2" stroke="#f00" stroke-miterlimit="10" fill="none"/><path d="M69.777 180.785l6.957-4.72" stroke-width="1.2" stroke="#cc0" stroke-miterlimit="10" fill="none"/><path d="M76.734 176.066l6.957-4.714" stroke-width="1.2" stroke="#f00" stroke-miterlimit="10" fill="none"/><path d="M70.887 182.422l-4.715-6.953" stroke-width="1.2" stroke="#cc0" stroke-miterlimit="10" fill="none"/><path d="M66.172 175.47l-4.72-6.958" stroke-width="1.2" stroke="#000" stroke-miterlimit="10" fill="none"/><path d="M67.887 176.922h6v11h-6zm0 0" fill="#fff"/><use xlink:href="#a" x="67.887" y="185.585" fill="#cc0"/><path d="M71.324 188.336h19v16h-19zm0 0" fill="#fff"/><g fill="#00f"><use xlink:href="#b" x="71.324" y="196.999"/><use xlink:href="#c" x="78.302" y="196.999"/></g><use xlink:href="#d" x="85.316" y="201.882" fill="#00f"/><path d="M48.977 186.36h8v11h-8zm0 0" fill="#fff"/><use xlink:href="#e" x="48.977" y="195.022" fill="#f00"/><path d="M80.8 167.488h8v11h-8zm0 0" fill="#fff"/><use xlink:href="#e" x="80.801" y="176.151" fill="#f00"/><path d="M61.453 168.512l-16.766 1.215M59.488 164.688l-13.41.972M68.78 153.383l-7.327 15.13M44.688 169.727l-9.438-13.91M35.25 155.816l7.328-15.13M39.543 156.027l5.863-12.1M42.578 140.688l16.766-1.215M59.344 139.473l9.437 13.91M57.016 143.082l7.55 11.13M68.78 153.383l16.767-1.215M85.547 152.168l9.437 13.91M89.766 151.34l7.546 11.13M85.547 152.168l7.332-15.13M94.984 166.078l16.766-1.215M119.078 149.734l-7.328 15.13M114.785 149.523l-5.863 12.102M92.88 137.04l16.765-1.216M94.84 140.863l13.414-.972M109.645 135.824l9.433 13.91M119.078 149.734l16.766-1.214M137.625 149.38l3.664-7.564" stroke-width="1.2" stroke="#000" stroke-miterlimit="10" fill="none"/><path d="M141.29 141.816l3.663-7.562" stroke-width="1.2" stroke="#f00" stroke-miterlimit="10" fill="none"/><path d="M134.066 147.656l3.664-7.566" stroke-width="1.2" stroke="#000" stroke-miterlimit="10" fill="none"/><path d="M137.73 140.09l3.665-7.563" stroke-width="1.2" stroke="#f00" stroke-miterlimit="10" fill="none"/><path d="M135.844 148.52l4.72 6.953" stroke-width="1.2" stroke="#000" stroke-miterlimit="10" fill="none"/><path d="M140.563 155.473l4.718 6.957" stroke-width="1.2" stroke="#00f" stroke-miterlimit="10" fill="none"/><path d="M139.176 127.89h8v11h-8zm0 0" fill="#fff"/><use xlink:href="#e" x="139.176" y="136.554" fill="#f00"/><path d="M162.047 161.215l-16.98-1.742.43 5.914zm0 0"/><path d="M138.28 156.93h14v11h-14zm0 0" fill="#fff"/><g fill="#00f"><use xlink:href="#b" x="138.281" y="165.593"/><use xlink:href="#c" x="145.259" y="165.593"/></g><path d="M162.047 161.215l9.437 13.91M162.047 161.215l7.332-15.13M171.484 175.125l16.766-1.215M190.03 174.77l3.665-7.563" stroke-width="1.2" stroke="#000" stroke-miterlimit="10" fill="none"/><path d="M193.695 167.207l3.664-7.562" stroke-width="1.2" stroke="#f00" stroke-miterlimit="10" fill="none"/><path d="M186.47 173.047l3.667-7.567" stroke-width="1.2" stroke="#000" stroke-miterlimit="10" fill="none"/><path d="M190.137 165.48l3.664-7.562" stroke-width="1.2" stroke="#f00" stroke-miterlimit="10" fill="none"/><path d="M188.25 173.91l4.72 6.953" stroke-width="1.2" stroke="#000" stroke-miterlimit="10" fill="none"/><path d="M192.97 180.863l4.718 6.957" stroke-width="1.2" stroke="#00f" stroke-miterlimit="10" fill="none"/><path d="M191.578 153.28h8v11h-8zm0 0" fill="#fff"/><use xlink:href="#e" x="191.578" y="161.944" fill="#f00"/><path d="M197.688 187.82l8.382-.61" stroke-width="1.2" stroke="#00f" stroke-miterlimit="10" fill="none"/><path d="M206.07 187.21l8.383-.608" stroke-width="1.2" stroke="#000" stroke-miterlimit="10" fill="none"/><path d="M190.688 182.32h14v11h-14zm0 0" fill="#fff"/><g fill="#00f"><use xlink:href="#b" x="190.688" y="190.983"/><use xlink:href="#c" x="197.665" y="190.983"/></g><path d="M214.453 186.602l9.434 13.914M218.668 185.773l7.55 11.13" stroke-width="1.2" stroke="#000" stroke-miterlimit="10" fill="none"/><path d="M221.78 171.477l-3.663 7.562" stroke-width="1.2" stroke="#00f" stroke-miterlimit="10" fill="none"/><path d="M218.117 179.04l-3.664 7.562M223.887 200.516l16.77-1.22M240.656 199.297l7.328-15.125M237.828 196.063l5.863-12.106M247.984 184.172l8.383-.61" stroke-width="1.2" stroke="#000" stroke-miterlimit="10" fill="none"/><path d="M256.367 183.563l8.383-.61" stroke-width="1.2" stroke="#7f4d1a" stroke-miterlimit="10" fill="none"/><path d="M247.984 184.172l-9.437-13.914" stroke-width="1.2" stroke="#000" stroke-miterlimit="10" fill="none"/><path d="M259.75 177.453h11v11h-11zm0 0" fill="#fff"/><g fill="#7f4d1a"><use xlink:href="#f" x="259.75" y="186.116"/><use xlink:href="#g" x="266.149" y="186.116"/></g><path d="M238.547 170.258l-8.383.61" stroke-width="1.2" stroke="#000" stroke-miterlimit="10" fill="none"/><path d="M230.164 170.867l-8.383.61" stroke-width="1.2" stroke="#00f" stroke-miterlimit="10" fill="none"/><path d="M237.156 174.324l-6.707.488" stroke-width="1.2" stroke="#000" stroke-miterlimit="10" fill="none"/><path d="M230.45 174.813l-6.704.484" stroke-width="1.2" stroke="#00f" stroke-miterlimit="10" fill="none"/><path d="M218.78 165.977h7v11h-7zm0 0" fill="#fff"/><use xlink:href="#b" x="218.781" y="174.64" fill="#00f"/><path d="M171.016 144.977l-4.72-6.957" stroke-width="1.2" stroke="#000" stroke-miterlimit="10" fill="none"/><path d="M166.297 138.02l-4.72-6.958" stroke-width="1.2" stroke="#f00" stroke-miterlimit="10" fill="none"/><path d="M167.742 147.195l-4.72-6.957" stroke-width="1.2" stroke="#000" stroke-miterlimit="10" fill="none"/><path d="M163.023 140.238l-4.718-6.953" stroke-width="1.2" stroke="#f00" stroke-miterlimit="10" fill="none"/><path d="M169.38 146.086l8.382-.61" stroke-width="1.2" stroke="#000" stroke-miterlimit="10" fill="none"/><path d="M177.762 145.477l8.383-.61" stroke-width="1.2" stroke="#00f" stroke-miterlimit="10" fill="none"/><path d="M151.94 126.672h8v11h-8zm0 0" fill="#fff"/><use xlink:href="#e" x="151.941" y="135.335" fill="#f00"/><path d="M186.145 144.867l3.664-7.562" stroke-width="1.2" stroke="#00f" stroke-miterlimit="10" fill="none"/><path d="M189.81 137.305l3.663-7.563" stroke-width="1.2" stroke="#000" stroke-miterlimit="10" fill="none"/><path d="M179.145 139.367h14v11h-14zm0 0" fill="#fff"/><g fill="#00f"><use xlink:href="#b" x="179.145" y="148.03"/><use xlink:href="#c" x="186.122" y="148.03"/></g><path d="M193.473 129.742l16.765-1.22M194.863 125.676l13.414-.973M184.035 115.828l9.438 13.914M210.238 128.523l7.328-15.125M217.566 113.398l-9.433-13.914M213.352 114.227l-7.55-11.13M208.133 99.484l-16.766 1.22M191.367 100.703l-7.332 15.125M194.19 103.938l-5.862 12.105" stroke-width="1.2" stroke="#000" stroke-miterlimit="10" fill="none"/></g></svg>