<svg xmlns="http://www.w3.org/2000/svg" xmlns:xlink="http://www.w3.org/1999/xlink" width="300pt" height="300pt" viewBox="0 0 300 300"><defs><symbol overflow="visible"><path d="M.453 1.594v-7.938h4.5v7.938zm.5-.5h3.5v-6.938h-3.5zm0 0"/></symbol><symbol overflow="visible" id="a"><path d="M5.797-6.063v.938c-.305-.27-.625-.473-.97-.61-.335-.144-.686-.218-1.06-.218-.75 0-1.33.23-1.736.687-.397.46-.592 1.12-.592 1.985 0 .866.195 1.526.593 1.983.408.46.986.688 1.736.688.375 0 .726-.066 1.062-.203.344-.132.664-.343.97-.625V-.5c-.314.21-.642.367-.986.47-.343.1-.714.155-1.11.155-.99 0-1.772-.3-2.343-.906C.784-1.396.5-2.228.5-3.28c0-1.052.285-1.88.86-2.486.57-.613 1.35-.92 2.343-.92.395-.002.766.053 1.11.155.35.104.68.26.984.468zm0 0"/></symbol><symbol overflow="visible" id="b"><path d="M.844-6.844h.812V0H.844zm0 0"/></symbol><symbol overflow="visible" id="c"><path d="M4.813-6.344v.86c-.336-.157-.653-.27-.954-.344-.294-.082-.58-.125-.86-.125-.492 0-.867.094-1.125.28-.262.19-.39.454-.39.798 0 .293.085.512.265.656.176.15.504.267.984.36l.547.11c.658.125 1.142.352 1.454.672.32.312.485.734.485 1.265 0 .637-.216 1.122-.642 1.454-.43.325-1.055.485-1.875.485-.312 0-.648-.04-1-.11C1.36-.046 1-.147.625-.296v-.906c.352.2.703.35 1.047.453.35.105.695.156 1.03.156.5 0 .884-.097 1.157-.297.28-.196.42-.485.42-.86 0-.32-.1-.57-.296-.75-.2-.176-.523-.313-.968-.406l-.547-.11C1.81-3.148 1.33-3.36 1.03-3.64.74-3.923.595-4.313.595-4.813c0-.57.203-1.024.61-1.36.405-.344.968-.516 1.687-.516.313 0 .626.032.938.094.32.055.65.137.985.25zm0 0"/></symbol><symbol overflow="visible" id="d"><path d="M.89-6.563H2.08l2.906 5.485v-5.484h.86V0H4.656L1.75-5.484V0H.89zm0 0"/></symbol><symbol overflow="visible" id="e"><path d="M3.547-5.953c-.65 0-1.164.242-1.547.72-.375.48-.563 1.13-.563 1.952 0 .835.188 1.49.563 1.967.383.48.898.72 1.547.72.644 0 1.156-.24 1.53-.72.376-.476.564-1.132.564-1.968 0-.822-.187-1.474-.562-1.954-.375-.477-.887-.72-1.53-.72zm0-.734c.914 0 1.648.312 2.203.937.55.617.828 1.438.828 2.47 0 1.042-.277 1.87-.828 2.483-.555.617-1.29.922-2.203.922-.93 0-1.668-.305-2.22-.922C.774-1.41.5-2.237.5-3.28c0-1.033.273-1.853.828-2.47.55-.625 1.29-.938 2.22-.938zm0 0"/></symbol><symbol overflow="visible" id="f"><path d="M.89-6.563h.876v2.688H5v-2.688h.89V0H5v-3.125H1.766V0H.89zm0 0"/></symbol></defs><g><path fill="#fff" d="M0 0h300v300H0z"/><path d="M88.895 151.398l-15.727.91M88.895 151.398l4.992 6.098" stroke-width="1.2" stroke="#000" stroke-miterlimit="10" fill="none"/><path d="M93.887 157.496l4.988 6.094" stroke-width="1.2" stroke="#00f" stroke-miterlimit="10" fill="none"/><path d="M92.762 150.27l3.992 4.878" stroke-width="1.2" stroke="#000" stroke-miterlimit="10" fill="none"/><path d="M96.754 155.148l3.992 4.875M97.406 138.14l-4.258 6.63" stroke-width="1.2" stroke="#00f" stroke-miterlimit="10" fill="none"/><path d="M93.148 144.77l-4.253 6.628M73.168 152.31l-8.512 13.256M69.195 151.633l-6.808 10.605" stroke-width="1.2" stroke="#000" stroke-miterlimit="10" fill="none"/><path d="M63.188 140.117l4.988 6.094" stroke-width="1.2" stroke="#cc0" stroke-miterlimit="10" fill="none"/><path d="M68.176 146.21l4.992 6.1M64.656 165.566l-15.238-3.996M49.418 161.57l-.91-15.73M53.027 159.785L52.3 147.2M48.508 145.84l-6.63-4.254" stroke-width="1.2" stroke="#000" stroke-miterlimit="10" fill="none"/><path d="M41.88 141.586l-6.63-4.254" stroke-width="1.2" stroke="#0c0" stroke-miterlimit="10" fill="none"/><path d="M48.508 145.84l7.34-2.86" stroke-width="1.2" stroke="#000" stroke-miterlimit="10" fill="none"/><path d="M55.848 142.98l7.34-2.863" stroke-width="1.2" stroke="#cc0" stroke-miterlimit="10" fill="none"/><path d="M25.25 131.832h10v11h-10zm0 0" fill="#fff"/><g fill="#0c0"><use xlink:href="#a" x="25.25" y="140.495"/><use xlink:href="#b" x="31.764" y="140.495"/></g><path d="M60.188 134.617h6v11h-6zm0 0" fill="#fff"/><use xlink:href="#c" x="60.188" y="143.28" fill="#cc0"/><path d="M98.875 163.59l7.34-2.863" stroke-width="1.2" stroke="#00f" stroke-miterlimit="10" fill="none"/><path d="M106.215 160.727l7.34-2.86" stroke-width="1.2" stroke="#000" stroke-miterlimit="10" fill="none"/><path d="M95.875 158.09h7v11h-7zm0 0" fill="#fff"/><use xlink:href="#d" x="95.875" y="166.753" fill="#00f"/><path d="M113.555 157.867l14.074 7.078M116.625 155.262l11.262 5.664M113.555 157.867l-.91-15.73M127.63 164.945l13.167-8.652M140.797 156.293l-.91-15.73M137.004 154.934l-.727-12.582M139.887 140.563l13.168-8.65M139.887 140.563l-14.075-7.075M153.055 131.914l14.074 7.078M165.28 139.098l.454 7.863" stroke-width="1.2" stroke="#000" stroke-miterlimit="10" fill="none"/><path d="M165.734 146.96l.453 7.868" stroke-width="1.2" stroke="#f00" stroke-miterlimit="10" fill="none"/><path d="M168.98 138.883l.454 7.867" stroke-width="1.2" stroke="#000" stroke-miterlimit="10" fill="none"/><path d="M169.434 146.75l.453 7.863" stroke-width="1.2" stroke="#f00" stroke-miterlimit="10" fill="none"/><path d="M167.13 138.992l6.585-4.328" stroke-width="1.2" stroke="#000" stroke-miterlimit="10" fill="none"/><path d="M173.715 134.664l6.582-4.324" stroke-width="1.2" stroke="#00f" stroke-miterlimit="10" fill="none"/><path d="M164.04 149.22h8v11h-8zm0 0" fill="#fff"/><use xlink:href="#e" x="164.039" y="157.882" fill="#f00"/><path d="M180.297 130.34l7.04 3.54" stroke-width="1.2" stroke="#00f" stroke-miterlimit="10" fill="none"/><path d="M187.336 133.88l7.035 3.538" stroke-width="1.2" stroke="#000" stroke-miterlimit="10" fill="none"/><path d="M173.297 124.84h14v11h-14zm0 0" fill="#fff"/><g fill="#00f"><use xlink:href="#d" x="173.297" y="133.503"/><use xlink:href="#f" x="180.274" y="133.503"/></g><path d="M194.37 137.418l.91 15.73M198.164 138.777l.727 12.582M194.37 137.418l13.17-8.652M195.28 153.148l14.075 7.075M222.523 151.574l-13.168 8.65M219.172 149.34l-10.535 6.922M207.54 128.766l14.073 7.078M207.28 132.785l11.263 5.664M221.613 135.844l.91 15.73M222.523 151.574l14.075 7.078M236.598 158.652l.91 15.727M240.39 160.012l.727 12.582M249.766 150l-13.168 8.652M237.508 174.38l14.074 7.077M251.582 181.457l13.168-8.652M250.863 177.492l10.535-6.918M264.75 172.805l-.91-15.727M263.84 157.078L249.766 150M260.77 159.684l-11.262-5.664M249.766 150l-.453-7.863" stroke-width="1.2" stroke="#000" stroke-miterlimit="10" fill="none"/><path d="M249.313 142.137l-.454-7.867M248.86 134.27l-.458-7.864" stroke-width="1.2" stroke="#cc0" stroke-miterlimit="10" fill="none"/><path d="M248.402 126.406l-.453-7.863" stroke-width="1.2" stroke="#000" stroke-miterlimit="10" fill="none"/><path d="M248.75 132.422l-7.863.453" stroke-width="1.2" stroke="#cc0" stroke-miterlimit="10" fill="none"/><path d="M240.887 132.875l-7.864.453" stroke-width="1.2" stroke="#f00" stroke-miterlimit="10" fill="none"/><path d="M248.965 136.12l-7.863.454" stroke-width="1.2" stroke="#cc0" stroke-miterlimit="10" fill="none"/><path d="M241.102 136.574l-7.868.457" stroke-width="1.2" stroke="#f00" stroke-miterlimit="10" fill="none"/><path d="M248.965 136.12l7.863-.452" stroke-width="1.2" stroke="#cc0" stroke-miterlimit="10" fill="none"/><path d="M256.828 135.668l7.863-.453" stroke-width="1.2" stroke="#f00" stroke-miterlimit="10" fill="none"/><path d="M248.75 132.422l7.867-.453" stroke-width="1.2" stroke="#cc0" stroke-miterlimit="10" fill="none"/><path d="M256.617 131.97l7.863-.458" stroke-width="1.2" stroke="#f00" stroke-miterlimit="10" fill="none"/><path d="M245.86 128.77h6v11h-6zm0 0" fill="#fff"/><use xlink:href="#c" x="245.859" y="137.433" fill="#cc0"/><path d="M225.13 129.68h8v11h-8zm0 0" fill="#fff"/><use xlink:href="#e" x="225.129" y="138.343" fill="#f00"/><path d="M260.586 127.863h8v11h-8zm0 0" fill="#fff"/><use xlink:href="#e" x="260.586" y="136.526" fill="#f00"/><path d="M112.645 142.137l13.168-8.65M115.996 144.37l10.535-6.92M112.645 142.137l-7.622-1.996" stroke-width="1.2" stroke="#000" stroke-miterlimit="10" fill="none"/><path d="M105.023 140.14l-7.617-2" stroke-width="1.2" stroke="#00f" stroke-miterlimit="10" fill="none"/><path d="M90.406 132.64h14v11h-14zm0 0" fill="#fff"/><g fill="#00f"><use xlink:href="#d" x="90.406" y="141.304"/><use xlink:href="#f" x="97.384" y="141.304"/></g></g></svg>