<svg xmlns="http://www.w3.org/2000/svg" xmlns:xlink="http://www.w3.org/1999/xlink" width="300pt" height="300pt" viewBox="0 0 300 300"><defs><symbol overflow="visible"><path d="M.453 1.594v-7.938h4.5v7.938zm.5-.5h3.5v-6.938h-3.5zm0 0"/></symbol><symbol overflow="visible" id="a"><path d="M3.547-5.953c-.65 0-1.164.242-1.547.72-.375.48-.563 1.13-.563 1.952 0 .835.188 1.49.563 1.967.383.48.898.72 1.547.72.644 0 1.156-.24 1.53-.72.376-.476.564-1.132.564-1.968 0-.822-.187-1.474-.562-1.954-.375-.477-.887-.72-1.53-.72zm0-.734c.914 0 1.648.312 2.203.937.55.617.828 1.438.828 2.47 0 1.042-.277 1.87-.828 2.483-.555.617-1.29.922-2.203.922-.93 0-1.668-.305-2.22-.922C.774-1.41.5-2.237.5-3.28c0-1.033.273-1.853.828-2.47.55-.625 1.29-.938 2.22-.938zm0 0"/></symbol><symbol overflow="visible" id="b"><path d="M.89-6.563H2.08l2.906 5.485v-5.484h.86V0H4.656L1.75-5.484V0H.89zm0 0"/></symbol><symbol overflow="visible" id="c"><path d="M.89-6.563h.876v2.688H5v-2.688h.89V0H5v-3.125H1.766V0H.89zm0 0"/></symbol><symbol overflow="visible" id="f"><path d="M.89-6.563h3.766v.75h-2.89v1.938h2.61v.734h-2.61V0H.89zm0 0"/></symbol><symbol overflow="visible" id="g"><path d="M5.797-6.063v.938c-.305-.27-.625-.473-.97-.61-.335-.144-.686-.218-1.06-.218-.75 0-1.33.23-1.736.687-.397.46-.592 1.12-.592 1.985 0 .866.195 1.526.593 1.983.408.46.986.688 1.736.688.375 0 .726-.066 1.062-.203.344-.132.664-.343.97-.625V-.5c-.314.21-.642.367-.986.47-.343.1-.714.155-1.11.155-.99 0-1.772-.3-2.343-.906C.784-1.396.5-2.228.5-3.28c0-1.052.285-1.88.86-2.486.57-.613 1.35-.92 2.343-.92.395-.002.766.053 1.11.155.35.104.68.26.984.468zm0 0"/></symbol><symbol overflow="visible" id="h"><path d="M.844-6.844h.812V0H.844zm0 0"/></symbol><symbol overflow="visible"><path d="M.406 1.422V-5.64h4V1.42zM.844.97h3.11v-6.157H.843zm0 0"/></symbol><symbol overflow="visible" id="d"><path d="M1.53-.672h2.767V0H.594v-.672c.29-.3.695-.71 1.22-1.234.518-.532.842-.867.967-1.016.26-.28.44-.52.533-.72.1-.194.156-.39.156-.577 0-.31-.11-.565-.33-.764-.218-.196-.5-.297-.843-.297-.25 0-.516.046-.797.14-.273.085-.563.214-.875.39v-.797c.32-.133.617-.234.89-.297.282-.062.536-.093.766-.093.603 0 1.083.152 1.44.453.362.304.546.703.546 1.203 0 .24-.047.468-.14.686-.095.22-.26.477-.485.766-.074.074-.288.293-.64.656-.344.356-.836.856-1.47 1.5zm0 0"/></symbol><symbol overflow="visible" id="e"><path d="M3.688-5.016v2.172h2.17v.672H3.69V0H3.03v-2.172H.845v-.672H3.03v-2.172zm0 0"/></symbol></defs><g><path fill="#fff" d="M0 0h300v300H0z"/><path d="M120.805 201.117l20.332-12.676M120.805 201.117l-.848 11.946" stroke-width="1.2" stroke="#000" stroke-miterlimit="10" fill="none"/><path d="M119.957 213.063l-.852 11.95" stroke-width="1.2" stroke="#00f" stroke-miterlimit="10" fill="none"/><path d="M115.012 203.105l-.68 9.56" stroke-width="1.2" stroke="#000" stroke-miterlimit="10" fill="none"/><path d="M114.332 212.664l-.68 9.56M98.602 192.113l11.1 4.5" stroke-width="1.2" stroke="#00f" stroke-miterlimit="10" fill="none"/><path d="M109.703 196.613l11.102 4.504M143.957 188.348l-.406-11.973" stroke-width="1.2" stroke="#000" stroke-miterlimit="10" fill="none"/><path d="M143.55 176.375l-.402-11.973" stroke-width="1.2" stroke="#f00" stroke-miterlimit="10" fill="none"/><path d="M138.32 188.54l-.402-11.974" stroke-width="1.2" stroke="#000" stroke-miterlimit="10" fill="none"/><path d="M137.918 176.566l-.406-11.972" stroke-width="1.2" stroke="#f00" stroke-miterlimit="10" fill="none"/><path d="M141.137 188.44l10.57 5.638" stroke-width="1.2" stroke="#000" stroke-miterlimit="10" fill="none"/><path d="M151.707 194.078l10.57 5.637" stroke-width="1.2" stroke="#00f" stroke-miterlimit="10" fill="none"/><path d="M136.328 159h8v11h-8zm0 0" fill="#fff"/><use xlink:href="#a" x="136.328" y="167.663" fill="#f00"/><path d="M162.277 199.715l10.168-6.336" stroke-width="1.2" stroke="#00f" stroke-miterlimit="10" fill="none"/><path d="M172.445 193.38l10.168-6.337" stroke-width="1.2" stroke="#000" stroke-miterlimit="10" fill="none"/><path d="M155.277 194.215h14v11h-14zm0 0" fill="#fff"/><g fill="#00f"><use xlink:href="#b" x="155.277" y="202.878"/><use xlink:href="#c" x="162.255" y="202.878"/></g><path d="M182.613 187.043l21.14 11.273M187.38 183.195l16.91 9.02M182.613 187.043l-.808-23.945M203.754 198.316l20.332-12.675M224.086 185.64l-.81-23.94M218.37 183.438l-.647-19.157M223.277 161.7l20.332-12.673M202.137 150.426l21.14 11.273M242.28 151.512l10.572 5.636" stroke-width="1.2" stroke="#000" stroke-miterlimit="10" fill="none"/><path d="M252.852 157.148l10.574 5.637" stroke-width="1.2" stroke="#00f" stroke-miterlimit="10" fill="none"/><path d="M244.934 146.54l10.57 5.636" stroke-width="1.2" stroke="#000" stroke-miterlimit="10" fill="none"/><path d="M255.504 152.176l10.57 5.633" stroke-width="1.2" stroke="#00f" stroke-miterlimit="10" fill="none"/><path d="M243.61 149.027l-.407-11.972" stroke-width="1.2" stroke="#000" stroke-miterlimit="10" fill="none"/><path d="M243.203 137.055l-.402-11.973" stroke-width="1.2" stroke="#00f" stroke-miterlimit="10" fill="none"/><path d="M251.75 150.797h26v19h-26zm0 0" fill="#fff"/><g fill="#00f"><use xlink:href="#b" x="251.75" y="162.898"/><use xlink:href="#c" x="258.728" y="162.898"/></g><use xlink:href="#d" x="265.742" y="167.781" fill="#00f"/><use xlink:href="#e" x="270.692" y="158.016" fill="#00f"/><path d="M242.8 125.082l-9.92-6.71" stroke-width="1.2" stroke="#00f" stroke-miterlimit="10" fill="none"/><path d="M232.88 118.37l-9.927-6.71M261.695 110.352l-9.445 7.363" stroke-width="1.2" stroke="#000" stroke-miterlimit="10" fill="none"/><path d="M252.25 117.715l-9.45 7.367" stroke-width="1.2" stroke="#00f" stroke-miterlimit="10" fill="none"/><path d="M239.8 119.582h7v11h-7zm0 0" fill="#fff"/><use xlink:href="#b" x="239.801" y="128.245" fill="#00f"/><path d="M222.953 111.66l6.633-23.023M229.586 88.637l23.94-.81M253.527 87.828l8.168 22.524M181.805 163.098l-10.57-5.637" stroke-width="1.2" stroke="#000" stroke-miterlimit="10" fill="none"/><path d="M171.234 157.46l-10.57-5.636" stroke-width="1.2" stroke="#3cc" stroke-miterlimit="10" fill="none"/><path d="M181.805 163.098l20.332-12.672M186.816 166.613l16.27-10.136" stroke-width="1.2" stroke="#000" stroke-miterlimit="10" fill="none"/><path d="M154.664 146.324h6v11h-6zm0 0" fill="#fff"/><use xlink:href="#f" x="154.664" y="154.987" fill="#3cc"/><path d="M119.105 225.012l-23.25 5.77" stroke-width="1.2" stroke="#00f" stroke-miterlimit="10" fill="none"/><path d="M116.105 219.512h7v11h-7zm0 0" fill="#fff"/><use xlink:href="#b" x="116.105" y="228.175" fill="#00f"/><path d="M95.855 230.78L83.18 210.45M99.37 225.766L89.235 209.5" stroke-width="1.2" stroke="#00f" stroke-miterlimit="10" fill="none"/><path d="M92.855 225.28h7v11h-7zm0 0" fill="#fff"/><use xlink:href="#b" x="92.855" y="233.944" fill="#00f"/><path d="M83.18 210.45l15.422-18.337" stroke-width="1.2" stroke="#00f" stroke-miterlimit="10" fill="none"/><path d="M80.18 204.95h7v11h-7zm0 0" fill="#fff"/><use xlink:href="#b" x="80.18" y="213.612" fill="#00f"/><path d="M98.602 192.113l-2.883-11.625" stroke-width="1.2" stroke="#00f" stroke-miterlimit="10" fill="none"/><path d="M95.72 180.488l-2.888-11.625" stroke-width="1.2" stroke="#000" stroke-miterlimit="10" fill="none"/><path d="M95.602 186.613h7v11h-7zm0 0" fill="#fff"/><use xlink:href="#b" x="95.602" y="195.276" fill="#00f"/><path d="M92.832 168.863l17.254-16.625M90.648 163.14l13.8-13.3M69.813 162.23l23.02 6.633M110.086 152.238l-5.77-23.254M104.316 128.984l-23.02-6.63M100.457 133.738l-18.418-5.304M81.297 122.355l-5.77-23.253M81.297 122.355l-17.254 16.622M75.527 99.102l-23.023-6.63M71.664 103.855L53.246 98.55M52.504 92.473l-2.887-11.63" stroke-width="1.2" stroke="#000" stroke-miterlimit="10" fill="none"/><path d="M49.617 80.844L46.734 69.22" stroke-width="1.2" stroke="#0c0" stroke-miterlimit="10" fill="none"/><path d="M52.504 92.473l-17.254 16.62" stroke-width="1.2" stroke="#000" stroke-miterlimit="10" fill="none"/><path d="M41.734 63.72h10v11h-10zm0 0" fill="#fff"/><g fill="#0c0"><use xlink:href="#g" x="41.734" y="72.382"/><use xlink:href="#h" x="48.248" y="72.382"/></g><path d="M35.25 109.094l5.77 23.254M41.297 110.063l4.617 18.6M64.043 138.977l-23.023-6.63M64.043 138.977l5.77 23.253M70.09 139.945l4.617 18.602" stroke-width="1.2" stroke="#000" stroke-miterlimit="10" fill="none"/></g></svg>