<svg xmlns="http://www.w3.org/2000/svg" xmlns:xlink="http://www.w3.org/1999/xlink" width="300pt" height="300pt" viewBox="0 0 300 300"><defs><symbol overflow="visible"><path d="M.453 1.594v-7.938h4.5v7.938zm.5-.5h3.5v-6.938h-3.5zm0 0"/></symbol><symbol overflow="visible" id="a"><path d="M.89-6.563H2.08l2.906 5.485v-5.484h.86V0H4.656L1.75-5.484V0H.89zm0 0"/></symbol><symbol overflow="visible" id="b"><path d="M3.547-5.953c-.65 0-1.164.242-1.547.72-.375.48-.563 1.13-.563 1.952 0 .835.188 1.49.563 1.967.383.48.898.72 1.547.72.644 0 1.156-.24 1.53-.72.376-.476.564-1.132.564-1.968 0-.822-.187-1.474-.562-1.954-.375-.477-.887-.72-1.53-.72zm0-.734c.914 0 1.648.312 2.203.937.55.617.828 1.438.828 2.47 0 1.042-.277 1.87-.828 2.483-.555.617-1.29.922-2.203.922-.93 0-1.668-.305-2.22-.922C.774-1.41.5-2.237.5-3.28c0-1.033.273-1.853.828-2.47.55-.625 1.29-.938 2.22-.938zm0 0"/></symbol><symbol overflow="visible" id="c"><path d="M.89-6.563h.876v2.688H5v-2.688h.89V0H5v-3.125H1.766V0H.89zm0 0"/></symbol><symbol overflow="visible"><path d="M.406 1.422V-5.64h4V1.42zM.844.97h3.11v-6.157H.843zm0 0"/></symbol><symbol overflow="visible" id="d"><path d="M1.53-.672h2.767V0H.594v-.672c.29-.3.695-.71 1.22-1.234.518-.532.842-.867.967-1.016.26-.28.44-.52.533-.72.1-.194.156-.39.156-.577 0-.31-.11-.565-.33-.764-.218-.196-.5-.297-.843-.297-.25 0-.516.046-.797.14-.273.085-.563.214-.875.39v-.797c.32-.133.617-.234.89-.297.282-.062.536-.093.766-.093.603 0 1.083.152 1.44.453.362.304.546.703.546 1.203 0 .24-.047.468-.14.686-.095.22-.26.477-.485.766-.074.074-.288.293-.64.656-.344.356-.836.856-1.47 1.5zm0 0"/></symbol><symbol overflow="visible" id="e"><path d="M3.688-5.016v2.172h2.17v.672H3.69V0H3.03v-2.172H.845v-.672H3.03v-2.172zm0 0"/></symbol></defs><g><path fill="#fff" d="M0 0h300v300H0z"/><path d="M226.54 159.344l4.718 8.304" stroke-width="1.2" stroke="#00f" stroke-miterlimit="10" fill="none"/><path d="M231.258 167.648l4.715 8.31" stroke-width="1.2" stroke="#000" stroke-miterlimit="10" fill="none"/><path d="M226.54 159.344l-9.552-.07" stroke-width="1.2" stroke="#00f" stroke-miterlimit="10" fill="none"/><path d="M216.988 159.273l-9.554-.07M236.21 142.867l-4.835 8.238" stroke-width="1.2" stroke="#000" stroke-miterlimit="10" fill="none"/><path d="M231.375 151.105l-4.836 8.24" stroke-width="1.2" stroke="#00f" stroke-miterlimit="10" fill="none"/><path d="M223.54 153.844h7v11h-7zm0 0" fill="#fff"/><use xlink:href="#a" x="223.539" y="162.507" fill="#00f"/><path d="M235.973 175.957l19.105.137M255.078 176.094l9.672-16.477M264.75 159.617l-9.434-16.613M255.316 143.004l-19.105-.137M238.168 141.758l-4.72-8.31" stroke-width="1.2" stroke="#000" stroke-miterlimit="10" fill="none"/><path d="M233.45 133.45l-4.716-8.31" stroke-width="1.2" stroke="#f00" stroke-miterlimit="10" fill="none"/><path d="M234.258 143.977l-4.72-8.31" stroke-width="1.2" stroke="#000" stroke-miterlimit="10" fill="none"/><path d="M229.54 135.668l-4.716-8.31" stroke-width="1.2" stroke="#f00" stroke-miterlimit="10" fill="none"/><path d="M218.777 120.75h8v11h-8zm0 0" fill="#fff"/><use xlink:href="#b" x="218.777" y="129.413" fill="#f00"/><path d="M207.434 159.203L198 142.59M202.582 159.762l-7.547-13.29M197.762 175.68l9.672-16.477M198 142.59l-19.102-.137M178.898 142.453l-9.67 16.477M181.805 146.375l-7.735 13.18M169.227 158.93l9.43 16.613M169.227 158.93l-9.555-.07" stroke-width="1.2" stroke="#000" stroke-miterlimit="10" fill="none"/><path d="M159.672 158.86l-9.55-.07" stroke-width="1.2" stroke="#00f" stroke-miterlimit="10" fill="none"/><path d="M178.656 175.543l19.106.137M180.602 171.063l15.28.11" stroke-width="1.2" stroke="#000" stroke-miterlimit="10" fill="none"/><path d="M150.12 158.79l-4.718-8.306" stroke-width="1.2" stroke="#00f" stroke-miterlimit="10" fill="none"/><path d="M145.402 150.484l-4.714-8.308" stroke-width="1.2" stroke="#000" stroke-miterlimit="10" fill="none"/><path d="M143.12 153.29h14v11h-14zm0 0" fill="#fff"/><g fill="#00f"><use xlink:href="#a" x="143.121" y="161.952"/><use xlink:href="#c" x="150.099" y="161.952"/></g><path d="M142.625 143.313l4.836-8.24" stroke-width="1.2" stroke="#000" stroke-miterlimit="10" fill="none"/><path d="M147.46 135.074l4.837-8.238" stroke-width="1.2" stroke="#f00" stroke-miterlimit="10" fill="none"/><path d="M138.75 141.04l4.836-8.24" stroke-width="1.2" stroke="#000" stroke-miterlimit="10" fill="none"/><path d="M143.586 132.8l4.836-8.238" stroke-width="1.2" stroke="#f00" stroke-miterlimit="10" fill="none"/><path d="M121.582 142.04l19.082 3.507.047-6.742zm0 0"/><path d="M146.36 120.2h8v11h-8zm0 0" fill="#fff"/><use xlink:href="#b" x="146.359" y="128.862" fill="#f00"/><path d="M121.582 142.04l-9.434-16.618M121.582 142.04l-4.836 8.237" stroke-width="1.2" stroke="#000" stroke-miterlimit="10" fill="none"/><path d="M116.746 150.277l-4.836 8.24" stroke-width="1.2" stroke="#00f" stroke-miterlimit="10" fill="none"/><path d="M112.148 125.422l9.672-16.477M109.238 121.5l7.74-13.18M93.043 125.285l19.105.137M121.82 108.945l-9.433-16.613M112.387 92.332l-19.106-.137M110.445 96.813l-15.285-.11M93.28 92.195l-9.67 16.477M83.61 108.672l9.433 16.613M88.465 108.113l7.543 13.293" stroke-width="1.2" stroke="#000" stroke-miterlimit="10" fill="none"/><path d="M111.91 158.516l-9.555-.07" stroke-width="1.2" stroke="#00f" stroke-miterlimit="10" fill="none"/><path d="M102.355 158.445l-9.55-.07" stroke-width="1.2" stroke="#000" stroke-miterlimit="10" fill="none"/><path d="M104.91 153.016h14v11h-14zm0 0" fill="#fff"/><g fill="#00f"><use xlink:href="#a" x="104.91" y="161.679"/><use xlink:href="#c" x="111.888" y="161.679"/></g><path d="M92.805 158.375l-9.434-16.613M87.953 158.934l-7.547-13.29M92.805 158.375l-9.672 16.477M83.37 141.762l-19.104-.137M64.266 141.625l-9.672 16.477M67.176 145.547l-7.74 13.18M54.594 158.102l9.433 16.613M64.027 174.715l-9.672 16.476M83.133 174.852l-19.106-.137M81.254 170.344l-15.285-.11M54.355 191.19l-9.554-.07" stroke-width="1.2" stroke="#000" stroke-miterlimit="10" fill="none"/><path d="M44.8 191.12l-9.55-.065" stroke-width="1.2" stroke="#00f" stroke-miterlimit="10" fill="none"/><path d="M52.402 192.3l4.715 8.31" stroke-width="1.2" stroke="#000" stroke-miterlimit="10" fill="none"/><path d="M57.117 200.61l4.715 8.304" stroke-width="1.2" stroke="#00f" stroke-miterlimit="10" fill="none"/><path d="M56.31 190.082l4.717 8.305" stroke-width="1.2" stroke="#000" stroke-miterlimit="10" fill="none"/><path d="M61.027 198.387l4.715 8.308" stroke-width="1.2" stroke="#00f" stroke-miterlimit="10" fill="none"/><path d="M16.25 183.055h19v16h-19zm0 0" fill="#fff"/><use xlink:href="#c" x="16.25" y="191.718" fill="#00f"/><use xlink:href="#d" x="23.265" y="196.601" fill="#00f"/><use xlink:href="#a" x="28.215" y="191.718" fill="#00f"/><path d="M50.79 198.305h26v19h-26zm0 0" fill="#fff"/><g fill="#00f"><use xlink:href="#a" x="50.789" y="210.406"/><use xlink:href="#c" x="57.767" y="210.406"/></g><use xlink:href="#d" x="64.781" y="215.289" fill="#00f"/><use xlink:href="#e" x="69.731" y="205.523" fill="#00f"/></g></svg>