<svg xmlns="http://www.w3.org/2000/svg" xmlns:xlink="http://www.w3.org/1999/xlink" width="300pt" height="300pt" viewBox="0 0 300 300"><defs><symbol overflow="visible"><path d="M.453 1.594v-7.938h4.5v7.938zm.5-.5h3.5v-6.938h-3.5zm0 0"/></symbol><symbol overflow="visible" id="a"><path d="M4.813-6.344v.86c-.336-.157-.653-.27-.954-.344-.294-.082-.58-.125-.86-.125-.492 0-.867.094-1.125.28-.262.19-.39.454-.39.798 0 .293.085.512.265.656.176.15.504.267.984.36l.547.11c.658.125 1.142.352 1.454.672.32.312.485.734.485 1.265 0 .637-.216 1.122-.642 1.454-.43.325-1.055.485-1.875.485-.312 0-.648-.04-1-.11C1.36-.046 1-.147.625-.296v-.906c.352.2.703.35 1.047.453.35.105.695.156 1.03.156.5 0 .884-.097 1.157-.297.28-.196.42-.485.42-.86 0-.32-.1-.57-.296-.75-.2-.176-.523-.313-.968-.406l-.547-.11C1.81-3.148 1.33-3.36 1.03-3.64.74-3.923.595-4.313.595-4.813c0-.57.203-1.024.61-1.36.405-.344.968-.516 1.687-.516.313 0 .626.032.938.094.32.055.65.137.985.25zm0 0"/></symbol><symbol overflow="visible" id="b"><path d="M.89-6.563H2.08l2.906 5.485v-5.484h.86V0H4.656L1.75-5.484V0H.89zm0 0"/></symbol><symbol overflow="visible" id="c"><path d="M.89-6.563h.876v2.688H5v-2.688h.89V0H5v-3.125H1.766V0H.89zm0 0"/></symbol><symbol overflow="visible" id="e"><path d="M3.547-5.953c-.65 0-1.164.242-1.547.72-.375.48-.563 1.13-.563 1.952 0 .835.188 1.49.563 1.967.383.48.898.72 1.547.72.644 0 1.156-.24 1.53-.72.376-.476.564-1.132.564-1.968 0-.822-.187-1.474-.562-1.954-.375-.477-.887-.72-1.53-.72zm0-.734c.914 0 1.648.312 2.203.937.55.617.828 1.438.828 2.47 0 1.042-.277 1.87-.828 2.483-.555.617-1.29.922-2.203.922-.93 0-1.668-.305-2.22-.922C.774-1.41.5-2.237.5-3.28c0-1.033.273-1.853.828-2.47.55-.625 1.29-.938 2.22-.938zm0 0"/></symbol><symbol overflow="visible" id="f"><path d="M1.766-3.14v2.406h1.421c.477 0 .833-.098 1.063-.297.227-.197.344-.5.344-.907 0-.407-.117-.708-.344-.907-.23-.195-.586-.297-1.063-.297zm0-2.688v1.97h1.312c.438 0 .758-.08.97-.236.218-.164.327-.414.327-.75 0-.332-.11-.578-.328-.734-.21-.164-.53-.25-.97-.25zM.89-6.562h2.266c.676 0 1.196.14 1.563.42.362.283.546.685.546 1.205 0 .398-.094.714-.282.953-.187.242-.464.39-.828.453.438.092.774.292 1.016.592.238.293.36.657.36 1.094 0 .594-.2 1.055-.595 1.375-.398.314-.964.47-1.703.47H.89zm0 0"/></symbol><symbol overflow="visible" id="g"><path d="M3.703-4.172c-.094-.05-.195-.086-.297-.11-.105-.02-.226-.03-.36-.03-.46 0-.812.152-1.062.453-.242.294-.36.715-.36 1.266V0H.813v-4.922h.813v.766c.176-.3.398-.524.672-.672.27-.145.598-.22.984-.22.064 0 .126.01.19.017.07.01.147.022.233.03zm0 0"/></symbol><symbol overflow="visible"><path d="M.406 1.422V-5.64h4V1.42zM.844.97h3.11v-6.157H.843zm0 0"/></symbol><symbol overflow="visible" id="d"><path d="M1.53-.672h2.767V0H.594v-.672c.29-.3.695-.71 1.22-1.234.518-.532.842-.867.967-1.016.26-.28.44-.52.533-.72.1-.194.156-.39.156-.577 0-.31-.11-.565-.33-.764-.218-.196-.5-.297-.843-.297-.25 0-.516.046-.797.14-.273.085-.563.214-.875.39v-.797c.32-.133.617-.234.89-.297.282-.062.536-.093.766-.093.603 0 1.083.152 1.44.453.362.304.546.703.546 1.203 0 .24-.047.468-.14.686-.095.22-.26.477-.485.766-.074.074-.288.293-.64.656-.344.356-.836.856-1.47 1.5zm0 0"/></symbol></defs><g><path fill="#fff" d="M0 0h300v300H0z"/><path d="M78.992 158.352l6.278-7.137" stroke-width="1.2" stroke="#cc0" stroke-miterlimit="10" fill="none"/><path d="M85.27 151.215l6.277-7.14" stroke-width="1.2" stroke="#00f" stroke-miterlimit="10" fill="none"/><path d="M80.473 156.672l-7.14-6.277" stroke-width="1.2" stroke="#cc0" stroke-miterlimit="10" fill="none"/><path d="M73.332 150.395l-7.137-6.274" stroke-width="1.2" stroke="#f00" stroke-miterlimit="10" fill="none"/><path d="M77.516 160.03l-7.137-6.276" stroke-width="1.2" stroke="#cc0" stroke-miterlimit="10" fill="none"/><path d="M70.38 153.754l-7.138-6.274" stroke-width="1.2" stroke="#f00" stroke-miterlimit="10" fill="none"/><path d="M77.516 160.03l7.14 6.28" stroke-width="1.2" stroke="#cc0" stroke-miterlimit="10" fill="none"/><path d="M84.656 166.31l7.137 6.272" stroke-width="1.2" stroke="#f00" stroke-miterlimit="10" fill="none"/><path d="M80.473 156.672l7.136 6.277" stroke-width="1.2" stroke="#cc0" stroke-miterlimit="10" fill="none"/><path d="M87.61 162.95l7.136 6.273" stroke-width="1.2" stroke="#f00" stroke-miterlimit="10" fill="none"/><path d="M78.992 158.352l-6.273 7.136" stroke-width="1.2" stroke="#cc0" stroke-miterlimit="10" fill="none"/><path d="M72.72 165.488l-6.28 7.14" stroke-width="1.2" stroke="#000" stroke-miterlimit="10" fill="none"/><path d="M75.992 152.852h6v11h-6zm0 0" fill="#fff"/><use xlink:href="#a" x="75.992" y="161.515" fill="#cc0"/><path d="M82.547 136.074h19v16h-19zm0 0" fill="#fff"/><g fill="#00f"><use xlink:href="#b" x="82.547" y="144.737"/><use xlink:href="#c" x="89.524" y="144.737"/></g><use xlink:href="#d" x="96.539" y="149.62" fill="#00f"/><path d="M56.72 140.3h8v11h-8zm0 0" fill="#fff"/><use xlink:href="#e" x="56.719" y="148.964" fill="#f00"/><path d="M89.27 165.402h8v11h-8zm0 0" fill="#fff"/><use xlink:href="#e" x="89.27" y="174.065" fill="#f00"/><path d="M66.44 172.63l-18.64-3.735M63.7 176.64l-14.91-2.984M72.53 190.637l-6.09-18.008M47.8 168.895l-12.55 14.277M35.25 183.172l6.086 18.008M40.098 183.54l4.867 14.41M41.336 201.18l18.64 3.734M59.977 204.914l12.554-14.277M57.875 200.53l10.04-11.42M72.53 190.637l18.638 3.734M91.168 194.37l12.555-14.276M95.785 195.895l10.04-11.422M91.168 194.37l6.09 18.01M103.723 180.094l18.64 3.73M122.363 183.824l6.086 18.008M118.734 187.06l4.868 14.405M128.45 201.832l18.64 3.734M115.898 216.11l12.55-14.278M144.97 206.28l3.046 9.005" stroke-width="1.2" stroke="#000" stroke-miterlimit="10" fill="none"/><path d="M148.016 215.285l3.043 9.004" stroke-width="1.2" stroke="#f00" stroke-miterlimit="10" fill="none"/><path d="M149.207 204.852l3.043 9.003" stroke-width="1.2" stroke="#000" stroke-miterlimit="10" fill="none"/><path d="M152.25 213.855l3.047 9.004" stroke-width="1.2" stroke="#f00" stroke-miterlimit="10" fill="none"/><path d="M147.09 205.566l6.273-7.14" stroke-width="1.2" stroke="#000" stroke-miterlimit="10" fill="none"/><path d="M153.363 198.426l6.278-7.137" stroke-width="1.2" stroke="#00f" stroke-miterlimit="10" fill="none"/><path d="M149.176 218.074h8v11h-8zm0 0" fill="#fff"/><use xlink:href="#e" x="149.176" y="226.737" fill="#f00"/><path d="M159.64 191.29l9.32 1.866" stroke-width="1.2" stroke="#00f" stroke-miterlimit="10" fill="none"/><path d="M168.96 193.156l9.32 1.867" stroke-width="1.2" stroke="#000" stroke-miterlimit="10" fill="none"/><path d="M152.64 185.79h14v11h-14zm0 0" fill="#fff"/><g fill="#00f"><use xlink:href="#b" x="152.641" y="194.452"/><use xlink:href="#c" x="159.618" y="194.452"/></g><path d="M178.28 195.023l6.087 18.008M183.125 195.39l4.87 14.407M190.832 180.746l-12.55 14.277M184.367 213.03l18.64 3.732M203.008 216.762l12.55-14.278M200.906 212.383l10.04-11.422M215.56 202.484l-6.087-18.007M215.56 202.484l9.32 1.868" stroke-width="1.2" stroke="#000" stroke-miterlimit="10" fill="none"/><path d="M224.88 204.352l9.32 1.867" stroke-width="1.2" stroke="#00f" stroke-miterlimit="10" fill="none"/><path d="M209.473 184.477l-18.64-3.73M206.73 188.488l-14.91-2.984M190.832 180.746l-6.086-18.008M185.184 160.543l-9.32-1.867" stroke-width="1.2" stroke="#000" stroke-miterlimit="10" fill="none"/><path d="M175.863 158.676l-9.32-1.863" stroke-width="1.2" stroke="#f00" stroke-miterlimit="10" fill="none"/><path d="M184.305 164.93l-9.32-1.868" stroke-width="1.2" stroke="#000" stroke-miterlimit="10" fill="none"/><path d="M174.984 163.063l-9.316-1.868" stroke-width="1.2" stroke="#f00" stroke-miterlimit="10" fill="none"/><path d="M184.746 162.738l6.274-7.14" stroke-width="1.2" stroke="#000" stroke-miterlimit="10" fill="none"/><path d="M191.02 155.598l6.277-7.137" stroke-width="1.2" stroke="#00f" stroke-miterlimit="10" fill="none"/><path d="M158.105 153.504h8v11h-8zm0 0" fill="#fff"/><use xlink:href="#e" x="158.105" y="162.167" fill="#f00"/><path d="M197.297 148.46l-3.043-9.003" stroke-width="1.2" stroke="#00f" stroke-miterlimit="10" fill="none"/><path d="M194.254 139.457l-3.043-9.004" stroke-width="1.2" stroke="#000" stroke-miterlimit="10" fill="none"/><path d="M190.297 142.96h14v11h-14zm0 0" fill="#fff"/><g fill="#00f"><use xlink:href="#b" x="190.297" y="151.624"/><use xlink:href="#c" x="197.274" y="151.624"/></g><path d="M191.21 130.453l12.552-14.277M189.105 126.07l10.043-11.422" stroke-width="1.2" stroke="#000" stroke-miterlimit="10" fill="none"/><path d="M172.57 126.72l9.32 1.866" stroke-width="1.2" stroke="#00f" stroke-miterlimit="10" fill="none"/><path d="M181.89 128.586l9.32 1.867M203.762 116.176l-6.086-18.008M197.676 98.168l-18.64-3.734M194.934 102.18l-14.914-2.99M179.035 94.434l-3.043-9.004" stroke-width="1.2" stroke="#000" stroke-miterlimit="10" fill="none"/><path d="M175.992 85.43l-3.047-9.004" stroke-width="1.2" stroke="#7f4d1a" stroke-miterlimit="10" fill="none"/><path d="M179.035 94.434L166.48 108.71" stroke-width="1.2" stroke="#000" stroke-miterlimit="10" fill="none"/><path d="M161.945 70.926h11v11h-11zm0 0" fill="#fff"/><g fill="#7f4d1a"><use xlink:href="#f" x="161.945" y="79.589"/><use xlink:href="#g" x="168.345" y="79.589"/></g><path d="M166.48 108.71l3.047 9.005" stroke-width="1.2" stroke="#000" stroke-miterlimit="10" fill="none"/><path d="M169.527 117.715l3.043 9.004" stroke-width="1.2" stroke="#00f" stroke-miterlimit="10" fill="none"/><path d="M171.328 109.078l2.434 7.203" stroke-width="1.2" stroke="#000" stroke-miterlimit="10" fill="none"/><path d="M173.762 116.28l2.437 7.204" stroke-width="1.2" stroke="#00f" stroke-miterlimit="10" fill="none"/><path d="M169.57 121.22h7v11h-7zm0 0" fill="#fff"/><use xlink:href="#b" x="169.57" y="129.882" fill="#00f"/><path d="M234.2 206.22l6.988-6.447" stroke-width="1.2" stroke="#00f" stroke-miterlimit="10" fill="none"/><path d="M241.188 199.773l6.988-6.44M242.137 223.492l-3.97-8.637" stroke-width="1.2" stroke="#000" stroke-miterlimit="10" fill="none"/><path d="M238.168 214.855l-3.97-8.636" stroke-width="1.2" stroke="#00f" stroke-miterlimit="10" fill="none"/><path d="M231.2 200.72h7v11h-7zm0 0" fill="#fff"/><use xlink:href="#b" x="231.199" y="209.382" fill="#00f"/><path d="M248.176 193.332l16.574 9.31M247.645 198.164l13.257 7.445M264.75 202.64l-1.867 9.32" stroke-width="1.2" stroke="#000" stroke-miterlimit="10" fill="none"/><path d="M262.883 211.96l-1.863 9.32M261.02 221.28l-9.442 1.107" stroke-width="1.2" stroke="#00f" stroke-miterlimit="10" fill="none"/><path d="M251.578 222.387l-9.44 1.105" stroke-width="1.2" stroke="#000" stroke-miterlimit="10" fill="none"/><path d="M258.61 217.06l-7.55.885" stroke-width="1.2" stroke="#00f" stroke-miterlimit="10" fill="none"/><path d="M251.06 217.945l-7.556.883" stroke-width="1.2" stroke="#000" stroke-miterlimit="10" fill="none"/><path d="M258.02 215.78h7v11h-7zm0 0" fill="#fff"/><use xlink:href="#b" x="258.02" y="224.444" fill="#00f"/><path d="M97.258 212.38l18.64 3.73M100 208.363l14.91 2.99" stroke-width="1.2" stroke="#000" stroke-miterlimit="10" fill="none"/></g></svg>