<svg xmlns="http://www.w3.org/2000/svg" xmlns:xlink="http://www.w3.org/1999/xlink" width="300pt" height="300pt" viewBox="0 0 300 300"><defs><symbol overflow="visible"><path d="M.453 1.594v-7.938h4.5v7.938zm.5-.5h3.5v-6.938h-3.5zm0 0"/></symbol><symbol overflow="visible" id="a"><path d="M4.813-6.344v.86c-.336-.157-.653-.27-.954-.344-.294-.082-.58-.125-.86-.125-.492 0-.867.094-1.125.28-.262.19-.39.454-.39.798 0 .293.085.512.265.656.176.15.504.267.984.36l.547.11c.658.125 1.142.352 1.454.672.32.312.485.734.485 1.265 0 .637-.216 1.122-.642 1.454-.43.325-1.055.485-1.875.485-.312 0-.648-.04-1-.11C1.36-.046 1-.147.625-.296v-.906c.352.2.703.35 1.047.453.35.105.695.156 1.03.156.5 0 .884-.097 1.157-.297.28-.196.42-.485.42-.86 0-.32-.1-.57-.296-.75-.2-.176-.523-.313-.968-.406l-.547-.11C1.81-3.148 1.33-3.36 1.03-3.64.74-3.923.595-4.313.595-4.813c0-.57.203-1.024.61-1.36.405-.344.968-.516 1.687-.516.313 0 .626.032.938.094.32.055.65.137.985.25zm0 0"/></symbol><symbol overflow="visible" id="b"><path d="M.89-6.563H2.08l2.906 5.485v-5.484h.86V0H4.656L1.75-5.484V0H.89zm0 0"/></symbol><symbol overflow="visible" id="c"><path d="M.89-6.563h.876v2.688H5v-2.688h.89V0H5v-3.125H1.766V0H.89zm0 0"/></symbol><symbol overflow="visible" id="e"><path d="M3.547-5.953c-.65 0-1.164.242-1.547.72-.375.48-.563 1.13-.563 1.952 0 .835.188 1.49.563 1.967.383.48.898.72 1.547.72.644 0 1.156-.24 1.53-.72.376-.476.564-1.132.564-1.968 0-.822-.187-1.474-.562-1.954-.375-.477-.887-.72-1.53-.72zm0-.734c.914 0 1.648.312 2.203.937.55.617.828 1.438.828 2.47 0 1.042-.277 1.87-.828 2.483-.555.617-1.29.922-2.203.922-.93 0-1.668-.305-2.22-.922C.774-1.41.5-2.237.5-3.28c0-1.033.273-1.853.828-2.47.55-.625 1.29-.938 2.22-.938zm0 0"/></symbol><symbol overflow="visible" id="f"><path d="M1.766-3.14v2.406h1.421c.477 0 .833-.098 1.063-.297.227-.197.344-.5.344-.907 0-.407-.117-.708-.344-.907-.23-.195-.586-.297-1.063-.297zm0-2.688v1.97h1.312c.438 0 .758-.08.97-.236.218-.164.327-.414.327-.75 0-.332-.11-.578-.328-.734-.21-.164-.53-.25-.97-.25zM.89-6.562h2.266c.676 0 1.196.14 1.563.42.362.283.546.685.546 1.205 0 .398-.094.714-.282.953-.187.242-.464.39-.828.453.438.092.774.292 1.016.592.238.293.36.657.36 1.094 0 .594-.2 1.055-.595 1.375-.398.314-.964.47-1.703.47H.89zm0 0"/></symbol><symbol overflow="visible" id="g"><path d="M3.703-4.172c-.094-.05-.195-.086-.297-.11-.105-.02-.226-.03-.36-.03-.46 0-.812.152-1.062.453-.242.294-.36.715-.36 1.266V0H.813v-4.922h.813v.766c.176-.3.398-.524.672-.672.27-.145.598-.22.984-.22.064 0 .126.01.19.017.07.01.147.022.233.03zm0 0"/></symbol><symbol overflow="visible"><path d="M.406 1.422V-5.64h4V1.42zM.844.97h3.11v-6.157H.843zm0 0"/></symbol><symbol overflow="visible" id="d"><path d="M1.53-.672h2.767V0H.594v-.672c.29-.3.695-.71 1.22-1.234.518-.532.842-.867.967-1.016.26-.28.44-.52.533-.72.1-.194.156-.39.156-.577 0-.31-.11-.565-.33-.764-.218-.196-.5-.297-.843-.297-.25 0-.516.046-.797.14-.273.085-.563.214-.875.39v-.797c.32-.133.617-.234.89-.297.282-.062.536-.093.766-.093.603 0 1.083.152 1.44.453.362.304.546.703.546 1.203 0 .24-.047.468-.14.686-.095.22-.26.477-.485.766-.074.074-.288.293-.64.656-.344.356-.836.856-1.47 1.5zm0 0"/></symbol></defs><g><path fill="#fff" d="M0 0h300v300H0z"/><path d="M79.855 151.906l6.372-7.363" stroke-width="1.2" stroke="#cc0" stroke-miterlimit="10" fill="none"/><path d="M86.227 144.543l6.37-7.363" stroke-width="1.2" stroke="#00f" stroke-miterlimit="10" fill="none"/><path d="M81.355 150.172l-7.363-6.367" stroke-width="1.2" stroke="#cc0" stroke-miterlimit="10" fill="none"/><path d="M73.992 143.805l-7.363-6.37" stroke-width="1.2" stroke="#f00" stroke-miterlimit="10" fill="none"/><path d="M78.36 153.64l-7.368-6.37" stroke-width="1.2" stroke="#cc0" stroke-miterlimit="10" fill="none"/><path d="M70.992 147.27l-7.363-6.372" stroke-width="1.2" stroke="#f00" stroke-miterlimit="10" fill="none"/><path d="M78.36 153.64l7.363 6.368" stroke-width="1.2" stroke="#cc0" stroke-miterlimit="10" fill="none"/><path d="M85.723 160.008l7.363 6.37" stroke-width="1.2" stroke="#f00" stroke-miterlimit="10" fill="none"/><path d="M81.355 150.172l7.364 6.37" stroke-width="1.2" stroke="#cc0" stroke-miterlimit="10" fill="none"/><path d="M88.72 156.543l7.362 6.37" stroke-width="1.2" stroke="#f00" stroke-miterlimit="10" fill="none"/><path d="M79.855 151.906l-6.367 7.364" stroke-width="1.2" stroke="#cc0" stroke-miterlimit="10" fill="none"/><path d="M73.488 159.27l-6.37 7.363" stroke-width="1.2" stroke="#000" stroke-miterlimit="10" fill="none"/><path d="M76.855 146.406h6v11h-6zm0 0" fill="#fff"/><use xlink:href="#a" x="76.855" y="155.069" fill="#cc0"/><path d="M83.598 129.18h19v16h-19zm0 0" fill="#fff"/><g fill="#00f"><use xlink:href="#b" x="83.598" y="137.843"/><use xlink:href="#c" x="90.575" y="137.843"/></g><use xlink:href="#d" x="97.59" y="142.726" fill="#00f"/><path d="M57.13 133.664h8v11h-8zm0 0" fill="#fff"/><use xlink:href="#e" x="57.129" y="142.327" fill="#f00"/><path d="M90.586 159.148h8v11h-8zm0 0" fill="#fff"/><use xlink:href="#e" x="90.586" y="167.812" fill="#f00"/><path d="M67.117 166.633l-19.125-3.668M64.34 170.766l-15.3-2.934M73.5 185.03l-6.383-18.397M47.992 162.965L35.25 177.69M35.25 177.69l6.383 18.4M40.22 178.027l5.104 14.72M41.633 196.09l19.125 3.668M60.758 199.758L73.5 185.03M58.566 195.29l10.196-11.782M73.5 185.03l19.125 3.673M92.625 188.703l12.742-14.73M97.363 190.227l10.196-11.782M92.625 188.703l6.383 18.395M105.367 173.973l19.125 3.672M124.492 177.645l6.383 18.398M120.8 180.984l5.106 14.72M130.875 196.043L150 199.71M118.133 210.77l12.742-14.727M147.836 200.465l3.19 9.195" stroke-width="1.2" stroke="#000" stroke-miterlimit="10" fill="none"/><path d="M151.027 209.66l3.192 9.2" stroke-width="1.2" stroke="#f00" stroke-miterlimit="10" fill="none"/><path d="M152.164 198.96l3.19 9.2" stroke-width="1.2" stroke="#000" stroke-miterlimit="10" fill="none"/><path d="M155.355 208.16l3.192 9.2" stroke-width="1.2" stroke="#f00" stroke-miterlimit="10" fill="none"/><path d="M150 199.71l6.37-7.362" stroke-width="1.2" stroke="#000" stroke-miterlimit="10" fill="none"/><path d="M156.37 192.348l6.372-7.364" stroke-width="1.2" stroke="#00f" stroke-miterlimit="10" fill="none"/><path d="M152.383 212.61h8v11h-8zm0 0" fill="#fff"/><use xlink:href="#e" x="152.383" y="221.272" fill="#f00"/><path d="M162.742 184.984l9.563 1.836" stroke-width="1.2" stroke="#00f" stroke-miterlimit="10" fill="none"/><path d="M172.305 186.82l9.562 1.832" stroke-width="1.2" stroke="#000" stroke-miterlimit="10" fill="none"/><path d="M155.742 179.484h14v11h-14zm0 0" fill="#fff"/><g fill="#00f"><use xlink:href="#b" x="155.742" y="188.147"/><use xlink:href="#c" x="162.72" y="188.147"/></g><path d="M181.867 188.652l6.383 18.4M186.832 188.992l5.11 14.72M194.605 173.926l-12.738 14.726M188.25 207.05l19.125 3.673M207.375 210.723l12.742-14.727M205.184 206.25l10.19-11.78M220.117 195.996l9.563 1.832" stroke-width="1.2" stroke="#000" stroke-miterlimit="10" fill="none"/><path d="M229.68 197.828l9.562 1.836" stroke-width="1.2" stroke="#00f" stroke-miterlimit="10" fill="none"/><path d="M220.117 195.996l-6.387-18.398" stroke-width="1.2" stroke="#000" stroke-miterlimit="10" fill="none"/><path d="M239.242 199.664l3.192 9.2" stroke-width="1.2" stroke="#00f" stroke-miterlimit="10" fill="none"/><path d="M242.434 208.863l3.19 9.2" stroke-width="1.2" stroke="#000" stroke-miterlimit="10" fill="none"/><path d="M232.242 194.164h14v11h-14zm0 0" fill="#fff"/><g fill="#00f"><use xlink:href="#b" x="232.242" y="202.827"/><use xlink:href="#c" x="239.22" y="202.827"/></g><path d="M245.625 218.063l19.125 3.667M243.89 216.563l-6.367 7.363" stroke-width="1.2" stroke="#000" stroke-miterlimit="10" fill="none"/><path d="M237.523 223.926l-6.37 7.367" stroke-width="1.2" stroke="#f00" stroke-miterlimit="10" fill="none"/><path d="M247.36 219.563l-6.372 7.363" stroke-width="1.2" stroke="#000" stroke-miterlimit="10" fill="none"/><path d="M240.988 226.926l-6.37 7.363" stroke-width="1.2" stroke="#f00" stroke-miterlimit="10" fill="none"/><path d="M224.883 227.29h8v11h-8zm0 0" fill="#fff"/><use xlink:href="#e" x="224.883" y="235.952" fill="#f00"/><path d="M213.73 177.598l-19.125-3.672M210.957 181.73l-15.3-2.937M194.605 173.926l-6.382-18.4M188.656 153.277l-9.562-1.832" stroke-width="1.2" stroke="#000" stroke-miterlimit="10" fill="none"/><path d="M179.094 151.445l-9.563-1.836" stroke-width="1.2" stroke="#f00" stroke-miterlimit="10" fill="none"/><path d="M187.79 157.777l-9.563-1.832" stroke-width="1.2" stroke="#000" stroke-miterlimit="10" fill="none"/><path d="M178.227 155.945l-9.563-1.836" stroke-width="1.2" stroke="#f00" stroke-miterlimit="10" fill="none"/><path d="M188.223 155.527l6.37-7.363" stroke-width="1.2" stroke="#000" stroke-miterlimit="10" fill="none"/><path d="M194.594 148.164l6.37-7.363" stroke-width="1.2" stroke="#00f" stroke-miterlimit="10" fill="none"/><path d="M161.098 146.36h8v11h-8zm0 0" fill="#fff"/><use xlink:href="#e" x="161.098" y="155.022" fill="#f00"/><path d="M200.965 140.8l-3.192-9.198" stroke-width="1.2" stroke="#00f" stroke-miterlimit="10" fill="none"/><path d="M197.773 131.602l-3.195-9.2" stroke-width="1.2" stroke="#000" stroke-miterlimit="10" fill="none"/><path d="M193.965 135.3h14v11h-14zm0 0" fill="#fff"/><g fill="#00f"><use xlink:href="#b" x="193.965" y="143.964"/><use xlink:href="#c" x="200.942" y="143.964"/></g><path d="M194.578 122.402l12.742-14.726M192.387 117.934l10.195-11.782" stroke-width="1.2" stroke="#000" stroke-miterlimit="10" fill="none"/><path d="M175.453 118.734l9.563 1.832" stroke-width="1.2" stroke="#00f" stroke-miterlimit="10" fill="none"/><path d="M185.016 120.566l9.562 1.836M207.32 107.676l-6.382-18.4M200.938 89.277l-19.125-3.668M198.16 93.41l-15.3-2.933M181.813 85.61l-3.192-9.2" stroke-width="1.2" stroke="#000" stroke-miterlimit="10" fill="none"/><path d="M178.62 76.41l-3.194-9.2" stroke-width="1.2" stroke="#7f4d1a" stroke-miterlimit="10" fill="none"/><path d="M181.813 85.61l-12.743 14.726" stroke-width="1.2" stroke="#000" stroke-miterlimit="10" fill="none"/><path d="M164.426 61.71h11v11h-11zm0 0" fill="#fff"/><g fill="#7f4d1a"><use xlink:href="#f" x="164.426" y="70.374"/><use xlink:href="#g" x="170.825" y="70.374"/></g><path d="M169.07 100.336l3.192 9.2" stroke-width="1.2" stroke="#000" stroke-miterlimit="10" fill="none"/><path d="M172.262 109.535l3.19 9.2" stroke-width="1.2" stroke="#00f" stroke-miterlimit="10" fill="none"/><path d="M174.04 100.672l2.55 7.36" stroke-width="1.2" stroke="#000" stroke-miterlimit="10" fill="none"/><path d="M176.59 108.03l2.555 7.36" stroke-width="1.2" stroke="#00f" stroke-miterlimit="10" fill="none"/><path d="M172.453 113.234h7v11h-7zm0 0" fill="#fff"/><use xlink:href="#b" x="172.453" y="121.897" fill="#00f"/><path d="M99.008 207.098l19.125 3.672M101.785 202.965l15.3 2.937" stroke-width="1.2" stroke="#000" stroke-miterlimit="10" fill="none"/></g></svg>