<svg xmlns="http://www.w3.org/2000/svg" xmlns:xlink="http://www.w3.org/1999/xlink" width="300pt" height="300pt" viewBox="0 0 300 300"><defs><symbol overflow="visible"><path d="M.453 1.594v-7.938h4.5v7.938zm.5-.5h3.5v-6.938h-3.5zm0 0"/></symbol><symbol overflow="visible" id="a"><path d="M.89-6.563H2.08l2.906 5.485v-5.484h.86V0H4.656L1.75-5.484V0H.89zm0 0"/></symbol><symbol overflow="visible" id="b"><path d="M3.547-5.953c-.65 0-1.164.242-1.547.72-.375.48-.563 1.13-.563 1.952 0 .835.188 1.49.563 1.967.383.48.898.72 1.547.72.644 0 1.156-.24 1.53-.72.376-.476.564-1.132.564-1.968 0-.822-.187-1.474-.562-1.954-.375-.477-.887-.72-1.53-.72zm0-.734c.914 0 1.648.312 2.203.937.55.617.828 1.438.828 2.47 0 1.042-.277 1.87-.828 2.483-.555.617-1.29.922-2.203.922-.93 0-1.668-.305-2.22-.922C.774-1.41.5-2.237.5-3.28c0-1.033.273-1.853.828-2.47.55-.625 1.29-.938 2.22-.938zm0 0"/></symbol><symbol overflow="visible" id="c"><path d="M.89-6.563h.876v2.688H5v-2.688h.89V0H5v-3.125H1.766V0H.89zm0 0"/></symbol><symbol overflow="visible" id="d"><path d="M5.797-6.063v.938c-.305-.27-.625-.473-.97-.61-.335-.144-.686-.218-1.06-.218-.75 0-1.33.23-1.736.687-.397.46-.592 1.12-.592 1.985 0 .866.195 1.526.593 1.983.408.46.986.688 1.736.688.375 0 .726-.066 1.062-.203.344-.132.664-.343.97-.625V-.5c-.314.21-.642.367-.986.47-.343.1-.714.155-1.11.155-.99 0-1.772-.3-2.343-.906C.784-1.396.5-2.228.5-3.28c0-1.052.285-1.88.86-2.486.57-.613 1.35-.92 2.343-.92.395-.002.766.053 1.11.155.35.104.68.26.984.468zm0 0"/></symbol><symbol overflow="visible" id="e"><path d="M.844-6.844h.812V0H.844zm0 0"/></symbol></defs><g><path fill="#fff" d="M0 0h300v300H0z"/><path d="M58.898 149.953l-1.824 10.492" stroke-width="1.2" stroke="#000" stroke-miterlimit="10" fill="none"/><path d="M57.074 160.445l-1.824 10.493" stroke-width="1.2" stroke="#00f" stroke-miterlimit="10" fill="none"/><path d="M58.898 149.953l-7.418-7.644" stroke-width="1.2" stroke="#000" stroke-miterlimit="10" fill="none"/><path d="M51.48 142.31l-7.414-7.646" stroke-width="1.2" stroke="#00f" stroke-miterlimit="10" fill="none"/><path d="M61.012 144.934l-5.934-6.114" stroke-width="1.2" stroke="#000" stroke-miterlimit="10" fill="none"/><path d="M55.078 138.82l-5.933-6.117M78.02 140.57l-9.56 4.692" stroke-width="1.2" stroke="#00f" stroke-miterlimit="10" fill="none"/><path d="M68.46 145.262l-9.562 4.69" stroke-width="1.2" stroke="#000" stroke-miterlimit="10" fill="none"/><path d="M55.25 170.938l-10 3.667" stroke-width="1.2" stroke="#00f" stroke-miterlimit="10" fill="none"/><path d="M45.25 174.605l-10 3.668" stroke-width="1.2" stroke="#000" stroke-miterlimit="10" fill="none"/><path d="M55.25 170.938l8.176 6.828" stroke-width="1.2" stroke="#00f" stroke-miterlimit="10" fill="none"/><path d="M63.426 177.766l8.172 6.828" stroke-width="1.2" stroke="#000" stroke-miterlimit="10" fill="none"/><path d="M52.25 165.438h7v11h-7zm0 0" fill="#fff"/><use xlink:href="#a" x="52.25" y="174.101" fill="#00f"/><path d="M44.066 134.664l4.977-9.414" stroke-width="1.2" stroke="#00f" stroke-miterlimit="10" fill="none"/><path d="M49.043 125.25l4.977-9.418" stroke-width="1.2" stroke="#000" stroke-miterlimit="10" fill="none"/><path d="M41.066 129.164h7v11h-7zm0 0" fill="#fff"/><use xlink:href="#a" x="41.066" y="137.827" fill="#00f"/><path d="M54.02 115.832l20.988 3.648M75.008 119.48l1.508 10.547" stroke-width="1.2" stroke="#000" stroke-miterlimit="10" fill="none"/><path d="M76.516 130.027l1.504 10.543M78.02 140.57l9.418 4.977" stroke-width="1.2" stroke="#00f" stroke-miterlimit="10" fill="none"/><path d="M87.438 145.547l9.414 4.976" stroke-width="1.2" stroke="#000" stroke-miterlimit="10" fill="none"/><path d="M75.02 135.07h7v11h-7zm0 0" fill="#fff"/><use xlink:href="#a" x="75.02" y="143.733" fill="#00f"/><path d="M96.852 150.523l18.04-11.328M114.89 139.195l18.833 9.953M119.117 135.758l15.063 7.965M114.89 139.195l-.792-21.29M133.723 149.148l18.035-11.332M151.758 137.816l-.793-21.285M146.672 135.875l-.637-17.027M150.965 116.53l18.04-11.33M132.133 106.574l18.832 9.957M171.508 105.105l-.4-10.64" stroke-width="1.2" stroke="#000" stroke-miterlimit="10" fill="none"/><path d="M171.11 94.465l-.395-10.645" stroke-width="1.2" stroke="#f00" stroke-miterlimit="10" fill="none"/><path d="M166.5 105.293l-.398-10.64" stroke-width="1.2" stroke="#000" stroke-miterlimit="10" fill="none"/><path d="M166.102 94.652l-.4-10.644" stroke-width="1.2" stroke="#f00" stroke-miterlimit="10" fill="none"/><path d="M169.004 105.2l9.414 4.98" stroke-width="1.2" stroke="#000" stroke-miterlimit="10" fill="none"/><path d="M178.418 110.18l9.418 4.976" stroke-width="1.2" stroke="#00f" stroke-miterlimit="10" fill="none"/><path d="M164.207 78.414h8v11h-8zm0 0" fill="#fff"/><use xlink:href="#b" x="164.207" y="87.077" fill="#f00"/><path d="M187.836 115.156l9.02-5.664" stroke-width="1.2" stroke="#00f" stroke-miterlimit="10" fill="none"/><path d="M196.855 109.492l9.016-5.668" stroke-width="1.2" stroke="#000" stroke-miterlimit="10" fill="none"/><path d="M180.836 109.656h14v11h-14zm0 0" fill="#fff"/><g fill="#00f"><use xlink:href="#a" x="180.836" y="118.319"/><use xlink:href="#c" x="187.813" y="118.319"/></g><path d="M205.87 103.824l-.792-21.285M210.8 101.508l-.632-17.028M224.703 113.78l-18.832-9.956M205.078 82.54l18.04-11.333M223.117 71.207l18.832 9.957M222.656 76.633l15.067 7.965M241.95 81.164l9.015-5.668" stroke-width="1.2" stroke="#000" stroke-miterlimit="10" fill="none"/><path d="M250.965 75.496l9.02-5.664" stroke-width="1.2" stroke="#0c0" stroke-miterlimit="10" fill="none"/><path d="M241.95 81.164l.792 21.285" stroke-width="1.2" stroke="#000" stroke-miterlimit="10" fill="none"/><path d="M254.984 64.332h10v11h-10zm0 0" fill="#fff"/><g fill="#0c0"><use xlink:href="#d" x="254.984" y="72.995"/><use xlink:href="#e" x="261.498" y="72.995"/></g><path d="M242.742 102.45l-18.04 11.33M238.273 99.34l-14.433 9.062M224.703 113.78l.797 21.286M224.164 132.945l-9.02 5.664" stroke-width="1.2" stroke="#000" stroke-miterlimit="10" fill="none"/><path d="M215.145 138.61l-9.016 5.667" stroke-width="1.2" stroke="#f00" stroke-miterlimit="10" fill="none"/><path d="M226.832 137.188l-9.02 5.667" stroke-width="1.2" stroke="#000" stroke-miterlimit="10" fill="none"/><path d="M217.813 142.855l-9.02 5.665" stroke-width="1.2" stroke="#f00" stroke-miterlimit="10" fill="none"/><path d="M225.5 135.066l9.414 4.977" stroke-width="1.2" stroke="#000" stroke-miterlimit="10" fill="none"/><path d="M234.914 140.043l9.414 4.98" stroke-width="1.2" stroke="#00f" stroke-miterlimit="10" fill="none"/><path d="M199.46 140.898h8v11h-8zm0 0" fill="#fff"/><use xlink:href="#b" x="199.461" y="149.562" fill="#f00"/><path d="M244.328 145.023l.4 10.64" stroke-width="1.2" stroke="#00f" stroke-miterlimit="10" fill="none"/><path d="M244.727 155.664l.398 10.645" stroke-width="1.2" stroke="#000" stroke-miterlimit="10" fill="none"/><path d="M237.328 139.523h14v11h-14zm0 0" fill="#fff"/><g fill="#00f"><use xlink:href="#a" x="237.328" y="148.187"/><use xlink:href="#c" x="244.306" y="148.187"/></g><path d="M245.125 166.31l18.832 9.956M244.664 171.734l15.066 7.965" stroke-width="1.2" stroke="#000" stroke-miterlimit="10" fill="none"/><path d="M227.086 177.64l9.02-5.667" stroke-width="1.2" stroke="#00f" stroke-miterlimit="10" fill="none"/><path d="M236.105 171.973l9.02-5.664M263.957 176.266l.793 21.285M264.75 197.55l-18.04 11.333M260.28 194.44l-14.428 9.064M246.71 208.883l.4 10.64" stroke-width="1.2" stroke="#000" stroke-miterlimit="10" fill="none"/><path d="M247.11 219.523l.398 10.645" stroke-width="1.2" stroke="#0c0" stroke-miterlimit="10" fill="none"/><path d="M246.71 208.883l-18.83-9.957" stroke-width="1.2" stroke="#000" stroke-miterlimit="10" fill="none"/><path d="M242.508 224.668h10v11h-10zm0 0" fill="#fff"/><g fill="#0c0"><use xlink:href="#d" x="242.508" y="233.331"/><use xlink:href="#e" x="249.021" y="233.331"/></g><path d="M227.88 198.926l-.396-10.645" stroke-width="1.2" stroke="#000" stroke-miterlimit="10" fill="none"/><path d="M227.484 188.28l-.398-10.64" stroke-width="1.2" stroke="#00f" stroke-miterlimit="10" fill="none"/><path d="M232.81 196.61l-.318-8.512" stroke-width="1.2" stroke="#000" stroke-miterlimit="10" fill="none"/><path d="M232.492 188.098l-.316-8.516" stroke-width="1.2" stroke="#00f" stroke-miterlimit="10" fill="none"/><path d="M224.086 172.14h7v11h-7zm0 0" fill="#fff"/><use xlink:href="#a" x="224.086" y="180.804" fill="#00f"/><path d="M114.098 117.906l18.035-11.332M118.566 121.02l14.43-9.067" stroke-width="1.2" stroke="#000" stroke-miterlimit="10" fill="none"/></g></svg>