<svg xmlns="http://www.w3.org/2000/svg" xmlns:xlink="http://www.w3.org/1999/xlink" width="300pt" height="300pt" viewBox="0 0 300 300"><defs><symbol overflow="visible"><path d="M.453 1.594v-7.938h4.5v7.938zm.5-.5h3.5v-6.938h-3.5zm0 0"/></symbol><symbol overflow="visible" id="a"><path d="M.89-6.563H2.08l2.906 5.485v-5.484h.86V0H4.656L1.75-5.484V0H.89zm0 0"/></symbol><symbol overflow="visible" id="b"><path d="M3.547-5.953c-.65 0-1.164.242-1.547.72-.375.48-.563 1.13-.563 1.952 0 .835.188 1.49.563 1.967.383.48.898.72 1.547.72.644 0 1.156-.24 1.53-.72.376-.476.564-1.132.564-1.968 0-.822-.187-1.474-.562-1.954-.375-.477-.887-.72-1.53-.72zm0-.734c.914 0 1.648.312 2.203.937.55.617.828 1.438.828 2.47 0 1.042-.277 1.87-.828 2.483-.555.617-1.29.922-2.203.922-.93 0-1.668-.305-2.22-.922C.774-1.41.5-2.237.5-3.28c0-1.033.273-1.853.828-2.47.55-.625 1.29-.938 2.22-.938zm0 0"/></symbol><symbol overflow="visible" id="c"><path d="M.89-6.563h.876v2.688H5v-2.688h.89V0H5v-3.125H1.766V0H.89zm0 0"/></symbol><symbol overflow="visible" id="f"><path d="M.89-6.563h3.766v.75h-2.89v1.938h2.61v.734h-2.61V0H.89zm0 0"/></symbol><symbol overflow="visible" id="g"><path d="M4.813-6.344v.86c-.336-.157-.653-.27-.954-.344-.294-.082-.58-.125-.86-.125-.492 0-.867.094-1.125.28-.262.19-.39.454-.39.798 0 .293.085.512.265.656.176.15.504.267.984.36l.547.11c.658.125 1.142.352 1.454.672.32.312.485.734.485 1.265 0 .637-.216 1.122-.642 1.454-.43.325-1.055.485-1.875.485-.312 0-.648-.04-1-.11C1.36-.046 1-.147.625-.296v-.906c.352.2.703.35 1.047.453.35.105.695.156 1.03.156.5 0 .884-.097 1.157-.297.28-.196.42-.485.42-.86 0-.32-.1-.57-.296-.75-.2-.176-.523-.313-.968-.406l-.547-.11C1.81-3.148 1.33-3.36 1.03-3.64.74-3.923.595-4.313.595-4.813c0-.57.203-1.024.61-1.36.405-.344.968-.516 1.687-.516.313 0 .626.032.938.094.32.055.65.137.985.25zm0 0"/></symbol><symbol overflow="visible"><path d="M.406 1.422V-5.64h4V1.42zM.844.97h3.11v-6.157H.843zm0 0"/></symbol><symbol overflow="visible" id="d"><path d="M1.53-.672h2.767V0H.594v-.672c.29-.3.695-.71 1.22-1.234.518-.532.842-.867.967-1.016.26-.28.44-.52.533-.72.1-.194.156-.39.156-.577 0-.31-.11-.565-.33-.764-.218-.196-.5-.297-.843-.297-.25 0-.516.046-.797.14-.273.085-.563.214-.875.39v-.797c.32-.133.617-.234.89-.297.282-.062.536-.093.766-.093.603 0 1.083.152 1.44.453.362.304.546.703.546 1.203 0 .24-.047.468-.14.686-.095.22-.26.477-.485.766-.074.074-.288.293-.64.656-.344.356-.836.856-1.47 1.5zm0 0"/></symbol><symbol overflow="visible" id="e"><path d="M3.688-5.016v2.172h2.17v.672H3.69V0H3.03v-2.172H.845v-.672H3.03v-2.172zm0 0"/></symbol></defs><g><path fill="#fff" d="M0 0h300v300H0z"/><path d="M89.57 129.16l-13.035-15.922M89.57 129.16l-2.61 9.953" stroke-width="1.2" stroke="#00f" stroke-miterlimit="10" fill="none"/><path d="M86.96 139.113l-2.605 9.95M108.742 121.684l-9.586 3.738" stroke-width="1.2" stroke="#000" stroke-miterlimit="10" fill="none"/><path d="M99.156 125.422l-9.586 3.738" stroke-width="1.2" stroke="#00f" stroke-miterlimit="10" fill="none"/><path d="M86.57 123.66h7v11h-7zm0 0" fill="#fff"/><use xlink:href="#a" x="86.57" y="132.323" fill="#00f"/><path d="M76.535 113.238l5.56-8.656" stroke-width="1.2" stroke="#00f" stroke-miterlimit="10" fill="none"/><path d="M82.094 104.582l5.554-8.66" stroke-width="1.2" stroke="#000" stroke-miterlimit="10" fill="none"/><path d="M81.723 114.12l4.445-6.925" stroke-width="1.2" stroke="#00f" stroke-miterlimit="10" fill="none"/><path d="M86.168 107.195l4.445-6.925" stroke-width="1.2" stroke="#000" stroke-miterlimit="10" fill="none"/><path d="M73.535 107.738h7v11h-7zm0 0" fill="#fff"/><use xlink:href="#a" x="73.535" y="116.401" fill="#00f"/><path d="M87.648 95.922l-7.476-19.168M87.648 95.922l19.903 5.22M107.55 101.14l1.192 20.544M102.836 103.473l.953 16.433M108.742 121.684l17.317 11.113M123.64 132.68l-.484 10.277" stroke-width="1.2" stroke="#000" stroke-miterlimit="10" fill="none"/><path d="M123.156 142.957l-.48 10.277" stroke-width="1.2" stroke="#f00" stroke-miterlimit="10" fill="none"/><path d="M128.477 132.91l-.485 10.278" stroke-width="1.2" stroke="#000" stroke-miterlimit="10" fill="none"/><path d="M127.992 143.188l-.48 10.273" stroke-width="1.2" stroke="#f00" stroke-miterlimit="10" fill="none"/><path d="M126.06 132.797l9.14-4.723" stroke-width="1.2" stroke="#000" stroke-miterlimit="10" fill="none"/><path d="M135.2 128.074l9.14-4.72" stroke-width="1.2" stroke="#00f" stroke-miterlimit="10" fill="none"/><path d="M121.094 147.848h8v11h-8zm0 0" fill="#fff"/><use xlink:href="#b" x="121.094" y="156.511" fill="#f00"/><path d="M144.34 123.355l8.66 5.555" stroke-width="1.2" stroke="#00f" stroke-miterlimit="10" fill="none"/><path d="M153 128.91l8.66 5.56" stroke-width="1.2" stroke="#000" stroke-miterlimit="10" fill="none"/><path d="M137.34 117.855h14v11h-14zm0 0" fill="#fff"/><g fill="#00f"><use xlink:href="#a" x="137.34" y="126.519"/><use xlink:href="#c" x="144.317" y="126.519"/></g><path d="M161.66 134.47l-.965 20.55M166.398 136.75l-.773 16.44M161.66 134.47l18.28-9.443M160.695 155.02l17.317 11.113M178.012 166.133l18.28-9.442M177.617 160.887l14.63-7.55M196.293 156.69l17.32 11.115M197.258 136.14l-.965 20.55M211.195 167.69l-.484 10.28" stroke-width="1.2" stroke="#000" stroke-miterlimit="10" fill="none"/><path d="M210.71 177.97l-.48 10.276" stroke-width="1.2" stroke="#00f" stroke-miterlimit="10" fill="none"/><path d="M216.03 167.918l-.483 10.277" stroke-width="1.2" stroke="#000" stroke-miterlimit="10" fill="none"/><path d="M215.547 178.195l-.48 10.278" stroke-width="1.2" stroke="#00f" stroke-miterlimit="10" fill="none"/><path d="M213.613 167.805l9.14-4.72" stroke-width="1.2" stroke="#000" stroke-miterlimit="10" fill="none"/><path d="M222.754 163.086l9.14-4.723" stroke-width="1.2" stroke="#00f" stroke-miterlimit="10" fill="none"/><path d="M199.648 178.86h26v19h-26zm0 0" fill="#fff"/><g fill="#00f"><use xlink:href="#a" x="199.648" y="190.961"/><use xlink:href="#c" x="206.626" y="190.961"/></g><use xlink:href="#d" x="213.641" y="195.844" fill="#00f"/><use xlink:href="#e" x="218.591" y="186.078" fill="#00f"/><path d="M231.895 158.363l1.554-10.168" stroke-width="1.2" stroke="#00f" stroke-miterlimit="10" fill="none"/><path d="M233.45 148.195l1.554-10.172M250.28 167.605l-9.194-4.62" stroke-width="1.2" stroke="#000" stroke-miterlimit="10" fill="none"/><path d="M241.086 162.984l-9.19-4.62" stroke-width="1.2" stroke="#00f" stroke-miterlimit="10" fill="none"/><path d="M228.895 152.863h7v11h-7zm0 0" fill="#fff"/><use xlink:href="#a" x="228.895" y="161.526" fill="#00f"/><path d="M235.004 138.023l20.305-3.328M255.31 134.695l9.44 18.282M264.75 152.977l-14.47 14.628M179.94 125.027l.486-10.277" stroke-width="1.2" stroke="#000" stroke-miterlimit="10" fill="none"/><path d="M180.426 114.75l.48-10.277" stroke-width="1.2" stroke="#3cc" stroke-miterlimit="10" fill="none"/><path d="M179.94 125.027l17.318 11.114M179.06 130.21l13.854 8.892" stroke-width="1.2" stroke="#000" stroke-miterlimit="10" fill="none"/><path d="M177.906 98.973h6v11h-6zm0 0" fill="#fff"/><use xlink:href="#f" x="177.906" y="107.636" fill="#3cc"/><path d="M84.355 149.063l14.625 14.472M82.41 153.953l11.703 11.578M64.508 154.496l19.847-5.434M98.98 163.535l-5.214 19.903M93.766 183.438l-19.848 5.433M93.06 188.652L77.18 193M108.395 197.91l-14.63-14.472M73.918 188.87l-5.22 19.907M73.918 188.87l-14.63-14.468M68.7 208.777l14.628 14.47M73.57 206.78l11.7 11.58M83.328 223.246l19.848-5.434M103.176 217.813l5.22-19.903M99.016 214.598l4.17-15.926M59.29 174.402l5.218-19.906M64.496 173.64l4.172-15.925M64.508 154.496l-7.317-7.234" stroke-width="1.2" stroke="#000" stroke-miterlimit="10" fill="none"/><path d="M57.19 147.262l-7.31-7.235M49.88 140.027l-7.318-7.234" stroke-width="1.2" stroke="#cc0" stroke-miterlimit="10" fill="none"/><path d="M42.563 132.793l-7.313-7.238" stroke-width="1.2" stroke="#000" stroke-miterlimit="10" fill="none"/><path d="M51.602 141.73l7.234-7.316" stroke-width="1.2" stroke="#cc0" stroke-miterlimit="10" fill="none"/><path d="M58.836 134.414l7.234-7.312" stroke-width="1.2" stroke="#f00" stroke-miterlimit="10" fill="none"/><path d="M48.156 138.324l7.24-7.312" stroke-width="1.2" stroke="#cc0" stroke-miterlimit="10" fill="none"/><path d="M55.395 131.012l7.234-7.317" stroke-width="1.2" stroke="#f00" stroke-miterlimit="10" fill="none"/><path d="M48.156 138.324l-7.234 7.317" stroke-width="1.2" stroke="#cc0" stroke-miterlimit="10" fill="none"/><path d="M40.922 145.64l-7.234 7.313" stroke-width="1.2" stroke="#f00" stroke-miterlimit="10" fill="none"/><path d="M51.602 141.73l-7.24 7.313" stroke-width="1.2" stroke="#cc0" stroke-miterlimit="10" fill="none"/><path d="M44.363 149.043l-7.234 7.316" stroke-width="1.2" stroke="#f00" stroke-miterlimit="10" fill="none"/><path d="M46.88 134.527h6v11h-6zm0 0" fill="#fff"/><use xlink:href="#g" x="46.879" y="143.19" fill="#cc0"/><path d="M60.348 119.898h8v11h-8zm0 0" fill="#fff"/><use xlink:href="#b" x="60.348" y="128.562" fill="#f00"/><path d="M27.406 149.156h8v11h-8zm0 0" fill="#fff"/><use xlink:href="#b" x="27.406" y="157.819" fill="#f00"/></g></svg>