<svg xmlns="http://www.w3.org/2000/svg" xmlns:xlink="http://www.w3.org/1999/xlink" width="300pt" height="300pt" viewBox="0 0 300 300"><defs><symbol overflow="visible"><path d="M.453 1.594v-7.938h4.5v7.938zm.5-.5h3.5v-6.938h-3.5zm0 0"/></symbol><symbol overflow="visible" id="a"><path d="M.89-6.563H2.08l2.906 5.485v-5.484h.86V0H4.656L1.75-5.484V0H.89zm0 0"/></symbol><symbol overflow="visible" id="b"><path d="M3.547-5.953c-.65 0-1.164.242-1.547.72-.375.48-.563 1.13-.563 1.952 0 .835.188 1.49.563 1.967.383.48.898.72 1.547.72.644 0 1.156-.24 1.53-.72.376-.476.564-1.132.564-1.968 0-.822-.187-1.474-.562-1.954-.375-.477-.887-.72-1.53-.72zm0-.734c.914 0 1.648.312 2.203.937.55.617.828 1.438.828 2.47 0 1.042-.277 1.87-.828 2.483-.555.617-1.29.922-2.203.922-.93 0-1.668-.305-2.22-.922C.774-1.41.5-2.237.5-3.28c0-1.033.273-1.853.828-2.47.55-.625 1.29-.938 2.22-.938zm0 0"/></symbol><symbol overflow="visible" id="c"><path d="M.89-6.563h.876v2.688H5v-2.688h.89V0H5v-3.125H1.766V0H.89zm0 0"/></symbol><symbol overflow="visible" id="e"><path d="M.89-6.563h3.766v.75h-2.89v1.938h2.61v.734h-2.61V0H.89zm0 0"/></symbol><symbol overflow="visible" id="f"><path d="M4.813-6.344v.86c-.336-.157-.653-.27-.954-.344-.294-.082-.58-.125-.86-.125-.492 0-.867.094-1.125.28-.262.19-.39.454-.39.798 0 .293.085.512.265.656.176.15.504.267.984.36l.547.11c.658.125 1.142.352 1.454.672.32.312.485.734.485 1.265 0 .637-.216 1.122-.642 1.454-.43.325-1.055.485-1.875.485-.312 0-.648-.04-1-.11C1.36-.046 1-.147.625-.296v-.906c.352.2.703.35 1.047.453.35.105.695.156 1.03.156.5 0 .884-.097 1.157-.297.28-.196.42-.485.42-.86 0-.32-.1-.57-.296-.75-.2-.176-.523-.313-.968-.406l-.547-.11C1.81-3.148 1.33-3.36 1.03-3.64.74-3.923.595-4.313.595-4.813c0-.57.203-1.024.61-1.36.405-.344.968-.516 1.687-.516.313 0 .626.032.938.094.32.055.65.137.985.25zm0 0"/></symbol><symbol overflow="visible"><path d="M.406 1.422V-5.64h4V1.42zM.844.97h3.11v-6.157H.843zm0 0"/></symbol><symbol overflow="visible" id="d"><path d="M3.688-5.016v2.172h2.17v.672H3.69V0H3.03v-2.172H.845v-.672H3.03v-2.172zm0 0"/></symbol></defs><g><path fill="#fff" d="M0 0h300v300H0z"/><path d="M88.71 129.41l-13.02-15.492M88.71 129.41l-2.437 9.817" stroke-width="1.2" stroke="#00f" stroke-miterlimit="10" fill="none"/><path d="M86.273 139.227l-2.44 9.82M107.465 121.813l-9.375 3.796" stroke-width="1.2" stroke="#000" stroke-miterlimit="10" fill="none"/><path d="M98.09 125.61l-9.38 3.8" stroke-width="1.2" stroke="#00f" stroke-miterlimit="10" fill="none"/><path d="M85.71 123.91h7v11h-7zm0 0" fill="#fff"/><use xlink:href="#a" x="85.711" y="132.573" fill="#00f"/><path d="M75.69 113.918l5.353-8.586" stroke-width="1.2" stroke="#00f" stroke-miterlimit="10" fill="none"/><path d="M81.043 105.332l5.355-8.582" stroke-width="1.2" stroke="#000" stroke-miterlimit="10" fill="none"/><path d="M80.8 114.723l4.286-6.87" stroke-width="1.2" stroke="#00f" stroke-miterlimit="10" fill="none"/><path d="M85.086 107.852l4.28-6.868" stroke-width="1.2" stroke="#000" stroke-miterlimit="10" fill="none"/><path d="M72.69 108.418h7v11h-7zm0 0" fill="#fff"/><use xlink:href="#a" x="72.691" y="117.081" fill="#00f"/><path d="M86.398 96.75L78.8 77.992M86.398 96.75l19.637 4.875M106.035 101.625l1.43 20.188M101.43 103.98l1.144 16.15M107.465 121.813l17.172 10.707M122.258 132.438l-.344 10.113" stroke-width="1.2" stroke="#000" stroke-miterlimit="10" fill="none"/><path d="M121.914 142.55l-.344 10.11" stroke-width="1.2" stroke="#f00" stroke-miterlimit="10" fill="none"/><path d="M127.016 132.602l-.344 10.11" stroke-width="1.2" stroke="#000" stroke-miterlimit="10" fill="none"/><path d="M126.672 142.71l-.344 10.114" stroke-width="1.2" stroke="#f00" stroke-miterlimit="10" fill="none"/><path d="M124.637 132.52l8.93-4.758" stroke-width="1.2" stroke="#000" stroke-miterlimit="10" fill="none"/><path d="M133.566 127.762l8.93-4.758" stroke-width="1.2" stroke="#00f" stroke-miterlimit="10" fill="none"/><path d="M119.95 147.242h8v11h-8zm0 0" fill="#fff"/><use xlink:href="#b" x="119.949" y="155.905" fill="#f00"/><path d="M142.496 123.004l8.582 5.35" stroke-width="1.2" stroke="#00f" stroke-miterlimit="10" fill="none"/><path d="M151.078 128.355l8.586 5.356" stroke-width="1.2" stroke="#000" stroke-miterlimit="10" fill="none"/><path d="M135.496 117.504h14v11h-14zm0 0" fill="#fff"/><g fill="#00f"><use xlink:href="#a" x="135.496" y="126.167"/><use xlink:href="#c" x="142.474" y="126.167"/></g><path d="M159.664 133.71l-.687 20.224M164.355 135.895l-.55 16.18M159.664 133.71l17.86-9.515M158.977 153.934l17.17 10.707M176.148 164.64l17.856-9.515M175.695 159.488l14.285-7.613M194.004 155.125l17.172 10.71M194.69 134.902l-.686 20.223M211.176 165.836l-.688 20.223M215.863 168.02l-.55 16.18M229.035 156.32l-17.86 9.516M210.488 186.06l17.168 10.706M227.656 196.766l17.86-9.516M227.203 191.613l14.29-7.613M245.516 187.25l.687-20.223M246.203 167.027l-17.168-10.707M241.97 169.996l-13.74-8.566M229.035 156.32l.688-20.226M229.723 136.094l8.93-4.758" stroke-width="1.2" stroke="#000" stroke-miterlimit="10" fill="none"/><path d="M238.652 131.336l8.926-4.758M247.578 126.578l.348-10.11" stroke-width="1.2" stroke="#00f" stroke-miterlimit="10" fill="none"/><path d="M247.926 116.47l.344-10.115" stroke-width="1.2" stroke="#000" stroke-miterlimit="10" fill="none"/><path d="M247.578 126.578l8.586 5.356" stroke-width="1.2" stroke="#00f" stroke-miterlimit="10" fill="none"/><path d="M256.164 131.934l8.586 5.35" stroke-width="1.2" stroke="#000" stroke-miterlimit="10" fill="none"/><path d="M237.578 119.078h21v15h-21zm0 0" fill="#fff"/><g fill="#00f"><use xlink:href="#a" x="237.578" y="131.18"/><use xlink:href="#c" x="244.556" y="131.18"/></g><use xlink:href="#d" x="251.57" y="126.297" fill="#00f"/><path d="M177.523 124.195l.344-10.113" stroke-width="1.2" stroke="#000" stroke-miterlimit="10" fill="none"/><path d="M177.867 114.082l.344-10.11" stroke-width="1.2" stroke="#3cc" stroke-miterlimit="10" fill="none"/><path d="M177.523 124.195l17.168 10.707M176.723 129.305l13.734 8.566" stroke-width="1.2" stroke="#000" stroke-miterlimit="10" fill="none"/><path d="M175.21 98.473h6v11h-6zm0 0" fill="#fff"/><use xlink:href="#e" x="175.211" y="107.136" fill="#3cc"/><path d="M83.832 149.047l14.57 14.043M81.984 153.88l11.657 11.233M64.387 154.64l19.445-5.593M98.402 163.09l-4.88 19.64M93.523 182.73l-19.445 5.594M92.895 187.863L77.34 192.34M108.094 196.773l-14.57-14.043M74.078 188.324l-4.88 19.637M74.078 188.324l-14.57-14.043M69.2 207.96l14.57 14.048M73.96 205.938l11.657 11.238M83.77 222.008l19.445-5.598M103.215 216.41l4.88-19.637M99.082 213.3l3.902-15.71M59.508 174.28l4.88-19.64M64.617 173.465l3.903-15.71M64.387 154.64l-7.285-7.02" stroke-width="1.2" stroke="#000" stroke-miterlimit="10" fill="none"/><path d="M57.102 147.62L49.82 140.6M49.82 140.598l-7.285-7.02" stroke-width="1.2" stroke="#cc0" stroke-miterlimit="10" fill="none"/><path d="M42.535 133.578l-7.285-7.023" stroke-width="1.2" stroke="#000" stroke-miterlimit="10" fill="none"/><path d="M51.53 142.25l7.025-7.285" stroke-width="1.2" stroke="#cc0" stroke-miterlimit="10" fill="none"/><path d="M58.555 134.965l7.023-7.28" stroke-width="1.2" stroke="#f00" stroke-miterlimit="10" fill="none"/><path d="M48.105 138.945l7.02-7.285" stroke-width="1.2" stroke="#cc0" stroke-miterlimit="10" fill="none"/><path d="M55.125 131.66l7.023-7.28" stroke-width="1.2" stroke="#f00" stroke-miterlimit="10" fill="none"/><path d="M48.105 138.945l-7.023 7.285" stroke-width="1.2" stroke="#cc0" stroke-miterlimit="10" fill="none"/><path d="M41.082 146.23l-7.02 7.286" stroke-width="1.2" stroke="#f00" stroke-miterlimit="10" fill="none"/><path d="M51.53 142.25l-7.018 7.285" stroke-width="1.2" stroke="#cc0" stroke-miterlimit="10" fill="none"/><path d="M44.512 149.535l-7.024 7.285" stroke-width="1.2" stroke="#f00" stroke-miterlimit="10" fill="none"/><path d="M46.82 135.098h6v11h-6zm0 0" fill="#fff"/><use xlink:href="#f" x="46.82" y="143.761" fill="#cc0"/><path d="M59.863 120.53h8v11h-8zm0 0" fill="#fff"/><use xlink:href="#b" x="59.863" y="129.194" fill="#f00"/><path d="M27.773 149.668h8v11h-8zm0 0" fill="#fff"/><use xlink:href="#b" x="27.773" y="158.331" fill="#f00"/></g></svg>