<svg xmlns="http://www.w3.org/2000/svg" xmlns:xlink="http://www.w3.org/1999/xlink" width="300pt" height="300pt" viewBox="0 0 300 300"><defs><symbol overflow="visible"><path d="M.453 1.594v-7.938h4.5v7.938zm.5-.5h3.5v-6.938h-3.5zm0 0"/></symbol><symbol overflow="visible" id="a"><path d="M.89-6.563H2.08l2.906 5.485v-5.484h.86V0H4.656L1.75-5.484V0H.89zm0 0"/></symbol><symbol overflow="visible" id="b"><path d="M.89-6.563h.876v2.688H5v-2.688h.89V0H5v-3.125H1.766V0H.89zm0 0"/></symbol><symbol overflow="visible" id="d"><path d="M3.547-5.953c-.65 0-1.164.242-1.547.72-.375.48-.563 1.13-.563 1.952 0 .835.188 1.49.563 1.967.383.48.898.72 1.547.72.644 0 1.156-.24 1.53-.72.376-.476.564-1.132.564-1.968 0-.822-.187-1.474-.562-1.954-.375-.477-.887-.72-1.53-.72zm0-.734c.914 0 1.648.312 2.203.937.55.617.828 1.438.828 2.47 0 1.042-.277 1.87-.828 2.483-.555.617-1.29.922-2.203.922-.93 0-1.668-.305-2.22-.922C.774-1.41.5-2.237.5-3.28c0-1.033.273-1.853.828-2.47.55-.625 1.29-.938 2.22-.938zm0 0"/></symbol><symbol overflow="visible" id="e"><path d="M1.766-3.14v2.406h1.421c.477 0 .833-.098 1.063-.297.227-.197.344-.5.344-.907 0-.407-.117-.708-.344-.907-.23-.195-.586-.297-1.063-.297zm0-2.688v1.97h1.312c.438 0 .758-.08.97-.236.218-.164.327-.414.327-.75 0-.332-.11-.578-.328-.734-.21-.164-.53-.25-.97-.25zM.89-6.562h2.266c.676 0 1.196.14 1.563.42.362.283.546.685.546 1.205 0 .398-.094.714-.282.953-.187.242-.464.39-.828.453.438.092.774.292 1.016.592.238.293.36.657.36 1.094 0 .594-.2 1.055-.595 1.375-.398.314-.964.47-1.703.47H.89zm0 0"/></symbol><symbol overflow="visible" id="f"><path d="M3.703-4.172c-.094-.05-.195-.086-.297-.11-.105-.02-.226-.03-.36-.03-.46 0-.812.152-1.062.453-.242.294-.36.715-.36 1.266V0H.813v-4.922h.813v.766c.176-.3.398-.524.672-.672.27-.145.598-.22.984-.22.064 0 .126.01.19.017.07.01.147.022.233.03zm0 0"/></symbol><symbol overflow="visible"><path d="M.406 1.422V-5.64h4V1.42zM.844.97h3.11v-6.157H.843zm0 0"/></symbol><symbol overflow="visible" id="c"><path d="M3.688-5.016v2.172h2.17v.672H3.69V0H3.03v-2.172H.845v-.672H3.03v-2.172zm0 0"/></symbol></defs><g><path fill="#fff" d="M0 0h300v300H0z"/><path d="M60.398 166.828l3.618 16.61M60.398 166.828l-7.78-3.418" stroke-width="1.2" stroke="#000" stroke-miterlimit="10" fill="none"/><path d="M52.617 163.41l-7.78-3.414" stroke-width="1.2" stroke="#00f" stroke-miterlimit="10" fill="none"/><path d="M60.453 162.484l-6.226-2.734" stroke-width="1.2" stroke="#000" stroke-miterlimit="10" fill="none"/><path d="M54.227 159.75L48 157.016M71.71 154.14l-5.655 6.344" stroke-width="1.2" stroke="#00f" stroke-miterlimit="10" fill="none"/><path d="M66.055 160.484l-5.657 6.344M64.016 183.438l-6.286 5.718" stroke-width="1.2" stroke="#000" stroke-miterlimit="10" fill="none"/><path d="M57.73 189.156l-6.29 5.72M51.44 194.875l1.81 8.305" stroke-width="1.2" stroke="#00f" stroke-miterlimit="10" fill="none"/><path d="M53.25 203.18l1.81 8.304" stroke-width="1.2" stroke="#000" stroke-miterlimit="10" fill="none"/><path d="M51.44 194.875l-8.092-2.586" stroke-width="1.2" stroke="#00f" stroke-miterlimit="10" fill="none"/><path d="M43.348 192.29l-8.098-2.587" stroke-width="1.2" stroke="#000" stroke-miterlimit="10" fill="none"/><path d="M41.44 187.375h21v15h-21zm0 0" fill="#fff"/><g fill="#00f"><use xlink:href="#a" x="41.441" y="199.477"/><use xlink:href="#b" x="48.419" y="199.477"/></g><use xlink:href="#c" x="55.434" y="194.594" fill="#00f"/><path d="M44.836 159.996l.848-8.457" stroke-width="1.2" stroke="#00f" stroke-miterlimit="10" fill="none"/><path d="M45.684 151.54l.843-8.458" stroke-width="1.2" stroke="#000" stroke-miterlimit="10" fill="none"/><path d="M41.836 154.496h7v11h-7zm0 0" fill="#fff"/><use xlink:href="#a" x="41.836" y="163.159" fill="#00f"/><path d="M46.527 143.082l16.61-3.617M49.04 146.625l13.288-2.89M63.137 139.465l4.285 7.336" stroke-width="1.2" stroke="#000" stroke-miterlimit="10" fill="none"/><path d="M67.422 146.8l4.29 7.34M71.71 154.14l8.458.848" stroke-width="1.2" stroke="#00f" stroke-miterlimit="10" fill="none"/><path d="M80.168 154.988l8.453.844" stroke-width="1.2" stroke="#000" stroke-miterlimit="10" fill="none"/><path d="M68.71 148.64h7v11h-7zm0 0" fill="#fff"/><use xlink:href="#a" x="68.711" y="157.304" fill="#00f"/><path d="M88.62 155.832l9.923-13.8M92.863 156.785l7.938-11.04M95.613 171.324l-6.992-15.492M98.543 142.03l16.914 1.693M115.457 143.723l6.992 15.492M112.512 146.918l5.593 12.394M122.45 159.215l-9.923 13.805M122.45 159.215l16.913 1.69M112.527 173.02l-16.914-1.696M111.234 168.867l-13.53-1.35M137.54 161.73l3.495 7.747" stroke-width="1.2" stroke="#000" stroke-miterlimit="10" fill="none"/><path d="M141.035 169.477l3.496 7.746" stroke-width="1.2" stroke="#f00" stroke-miterlimit="10" fill="none"/><path d="M141.188 160.086l3.496 7.746" stroke-width="1.2" stroke="#000" stroke-miterlimit="10" fill="none"/><path d="M144.684 167.832l3.496 7.746" stroke-width="1.2" stroke="#f00" stroke-miterlimit="10" fill="none"/><path d="M139.363 160.906l4.96-6.898" stroke-width="1.2" stroke="#000" stroke-miterlimit="10" fill="none"/><path d="M144.324 154.008l4.96-6.903" stroke-width="1.2" stroke="#00f" stroke-miterlimit="10" fill="none"/><path d="M142.355 170.902h8v11h-8zm0 0" fill="#fff"/><use xlink:href="#d" x="142.355" y="179.565" fill="#f00"/><path d="M166.2 148.797m-2.887-.813l-.106 1.04m-2.785-1.852l-.207 2.074m-2.68-2.887l-.312 3.113m-2.575-3.926l-.414 4.148m-2.472-4.96l-.52 5.187m-1.656-5.8l-.598 5.968" stroke="#000" stroke-miterlimit="10" fill="none"/><path d="M142.285 141.605h14v11h-14zm0 0" fill="#fff"/><g fill="#00f"><use xlink:href="#a" x="142.285" y="150.269"/><use xlink:href="#b" x="149.263" y="150.269"/></g><path d="M166.2 148.797l6.99 15.496M166.2 148.797l9.92-13.8M173.19 164.293l16.915 1.69M191.727 167.152l4.96-6.902" stroke-width="1.2" stroke="#000" stroke-miterlimit="10" fill="none"/><path d="M196.688 160.25l4.96-6.902" stroke-width="1.2" stroke="#f00" stroke-miterlimit="10" fill="none"/><path d="M188.48 164.816l4.96-6.902" stroke-width="1.2" stroke="#000" stroke-miterlimit="10" fill="none"/><path d="M193.44 157.914l4.962-6.898" stroke-width="1.2" stroke="#f00" stroke-miterlimit="10" fill="none"/><path d="M190.105 165.984l3.497 7.746" stroke-width="1.2" stroke="#000" stroke-miterlimit="10" fill="none"/><path d="M193.602 173.73l3.496 7.747" stroke-width="1.2" stroke="#00f" stroke-miterlimit="10" fill="none"/><path d="M196.027 146.68h8v11h-8zm0 0" fill="#fff"/><use xlink:href="#d" x="196.027" y="155.343" fill="#f00"/><path d="M197.098 181.477l8.453.847" stroke-width="1.2" stroke="#00f" stroke-miterlimit="10" fill="none"/><path d="M205.55 182.324l8.458.844" stroke-width="1.2" stroke="#000" stroke-miterlimit="10" fill="none"/><path d="M190.098 175.977h14v11h-14zm0 0" fill="#fff"/><g fill="#00f"><use xlink:href="#a" x="190.098" y="184.64"/><use xlink:href="#b" x="197.075" y="184.64"/></g><path d="M214.008 183.168L221 198.66M218.355 183.074l5.594 12.395" stroke-width="1.2" stroke="#000" stroke-miterlimit="10" fill="none"/><path d="M223.93 169.367l-4.96 6.903" stroke-width="1.2" stroke="#00f" stroke-miterlimit="10" fill="none"/><path d="M218.97 176.27l-4.962 6.898M221 198.66l16.914 1.695M237.914 200.355l9.922-13.804M235.66 196.64l7.938-11.042M247.836 186.55l8.457.848" stroke-width="1.2" stroke="#000" stroke-miterlimit="10" fill="none"/><path d="M256.293 187.398l8.457.844" stroke-width="1.2" stroke="#7f4d1a" stroke-miterlimit="10" fill="none"/><path d="M247.836 186.55l-6.992-15.49" stroke-width="1.2" stroke="#000" stroke-miterlimit="10" fill="none"/><path d="M259.75 182.742h11v11h-11zm0 0" fill="#fff"/><g fill="#7f4d1a"><use xlink:href="#e" x="259.75" y="191.405"/><use xlink:href="#f" x="266.149" y="191.405"/></g><path d="M240.844 171.06l-8.457-.85" stroke-width="1.2" stroke="#000" stroke-miterlimit="10" fill="none"/><path d="M232.387 170.21l-8.457-.843" stroke-width="1.2" stroke="#00f" stroke-miterlimit="10" fill="none"/><path d="M238.754 174.867l-6.766-.676" stroke-width="1.2" stroke="#000" stroke-miterlimit="10" fill="none"/><path d="M231.988 174.19l-6.765-.674" stroke-width="1.2" stroke="#00f" stroke-miterlimit="10" fill="none"/><path d="M220.93 163.867h7v11h-7zm0 0" fill="#fff"/><use xlink:href="#a" x="220.93" y="172.53" fill="#00f"/><path d="M175.922 136.984l8.457.848" stroke-width="1.2" stroke="#000" stroke-miterlimit="10" fill="none"/><path d="M184.38 137.832l8.456.848" stroke-width="1.2" stroke="#f00" stroke-miterlimit="10" fill="none"/><path d="M176.32 133.008l8.457.844" stroke-width="1.2" stroke="#000" stroke-miterlimit="10" fill="none"/><path d="M184.777 133.852l8.457.847" stroke-width="1.2" stroke="#f00" stroke-miterlimit="10" fill="none"/><path d="M176.12 134.996l-3.495-7.746" stroke-width="1.2" stroke="#000" stroke-miterlimit="10" fill="none"/><path d="M172.625 127.25l-3.496-7.746" stroke-width="1.2" stroke="#00f" stroke-miterlimit="10" fill="none"/><path d="M189.035 131.188h8v11h-8zm0 0" fill="#fff"/><use xlink:href="#d" x="189.035" y="139.851" fill="#f00"/><path d="M169.13 119.504l4.96-6.902" stroke-width="1.2" stroke="#00f" stroke-miterlimit="10" fill="none"/><path d="M174.09 112.602l4.96-6.9M152.215 117.813l8.457.843" stroke-width="1.2" stroke="#000" stroke-miterlimit="10" fill="none"/><path d="M160.672 118.656l8.457.848" stroke-width="1.2" stroke="#00f" stroke-miterlimit="10" fill="none"/><path d="M166.13 114.004h7v11h-7zm0 0" fill="#fff"/><use xlink:href="#a" x="166.129" y="122.667" fill="#00f"/><path d="M179.05 105.703l-6.99-15.496M172.06 90.207l-16.915-1.69M155.145 88.516l-9.922 13.8M145.223 102.316l6.992 15.496" stroke-width="1.2" stroke="#000" stroke-miterlimit="10" fill="none"/></g></svg>