<svg xmlns="http://www.w3.org/2000/svg" xmlns:xlink="http://www.w3.org/1999/xlink" width="300pt" height="300pt" viewBox="0 0 300 300"><defs><symbol overflow="visible"><path d="M.453 1.594v-7.938h4.5v7.938zm.5-.5h3.5v-6.938h-3.5zm0 0"/></symbol><symbol overflow="visible" id="a"><path d="M5.797-6.063v.938c-.305-.27-.625-.473-.97-.61-.335-.144-.686-.218-1.06-.218-.75 0-1.33.23-1.736.687-.397.46-.592 1.12-.592 1.985 0 .866.195 1.526.593 1.983.408.46.986.688 1.736.688.375 0 .726-.066 1.062-.203.344-.132.664-.343.97-.625V-.5c-.314.21-.642.367-.986.47-.343.1-.714.155-1.11.155-.99 0-1.772-.3-2.343-.906C.784-1.396.5-2.228.5-3.28c0-1.052.285-1.88.86-2.486.57-.613 1.35-.92 2.343-.92.395-.002.766.053 1.11.155.35.104.68.26.984.468zm0 0"/></symbol><symbol overflow="visible" id="b"><path d="M.844-6.844h.812V0H.844zm0 0"/></symbol><symbol overflow="visible" id="c"><path d="M.89-6.563H2.08l2.906 5.485v-5.484h.86V0H4.656L1.75-5.484V0H.89zm0 0"/></symbol><symbol overflow="visible" id="d"><path d="M.89-6.563h.876v2.688H5v-2.688h.89V0H5v-3.125H1.766V0H.89zm0 0"/></symbol><symbol overflow="visible" id="e"><path d="M3.547-5.953c-.65 0-1.164.242-1.547.72-.375.48-.563 1.13-.563 1.952 0 .835.188 1.49.563 1.967.383.48.898.72 1.547.72.644 0 1.156-.24 1.53-.72.376-.476.564-1.132.564-1.968 0-.822-.187-1.474-.562-1.954-.375-.477-.887-.72-1.53-.72zm0-.734c.914 0 1.648.312 2.203.937.55.617.828 1.438.828 2.47 0 1.042-.277 1.87-.828 2.483-.555.617-1.29.922-2.203.922-.93 0-1.668-.305-2.22-.922C.774-1.41.5-2.237.5-3.28c0-1.033.273-1.853.828-2.47.55-.625 1.29-.938 2.22-.938zm0 0"/></symbol><symbol overflow="visible" id="f"><path d="M.89-6.563h3.766v.75h-2.89v1.938h2.61v.734h-2.61V0H.89zm0 0"/></symbol></defs><g><path fill="#fff" d="M0 0h300v300H0z"/><path d="M220.082 203.277l1.762-11.88" stroke-width="1.2" stroke="#0c0" stroke-miterlimit="10" fill="none"/><path d="M221.844 191.398l1.765-11.875" stroke-width="1.2" stroke="#000" stroke-miterlimit="10" fill="none"/><path d="M215.082 197.777h10v11h-10zm0 0" fill="#fff"/><g fill="#0c0"><use xlink:href="#a" x="215.082" y="206.44"/><use xlink:href="#b" x="221.596" y="206.44"/></g><path d="M223.61 179.523l-18.8-14.933M225.246 173.605L210.2 161.66M245.945 170.707l-22.336 8.816M204.81 164.59L193.64 169" stroke-width="1.2" stroke="#000" stroke-miterlimit="10" fill="none"/><path d="M193.64 169l-11.167 4.41" stroke-width="1.2" stroke="#00f" stroke-miterlimit="10" fill="none"/><path d="M204.81 164.59l3.526-23.75" stroke-width="1.2" stroke="#000" stroke-miterlimit="10" fill="none"/><path d="M182.473 173.41l-9.403-7.47" stroke-width="1.2" stroke="#00f" stroke-miterlimit="10" fill="none"/><path d="M173.07 165.94l-9.402-7.463" stroke-width="1.2" stroke="#000" stroke-miterlimit="10" fill="none"/><path d="M175.473 167.91h14v11h-14zm0 0" fill="#fff"/><g fill="#00f"><use xlink:href="#c" x="175.473" y="176.573"/><use xlink:href="#d" x="182.45" y="176.573"/></g><path d="M166.46 158.89l1.767-11.874" stroke-width="1.2" stroke="#000" stroke-miterlimit="10" fill="none"/><path d="M168.227 147.016l1.765-11.875" stroke-width="1.2" stroke="#f00" stroke-miterlimit="10" fill="none"/><path d="M160.875 158.06l1.762-11.876" stroke-width="1.2" stroke="#000" stroke-miterlimit="10" fill="none"/><path d="M162.637 146.184l1.765-11.875" stroke-width="1.2" stroke="#f00" stroke-miterlimit="10" fill="none"/><path d="M163.668 158.477l-11.168 4.406" stroke-width="1.2" stroke="#000" stroke-miterlimit="10" fill="none"/><path d="M152.5 162.883l-11.168 4.41" stroke-width="1.2" stroke="#00f" stroke-miterlimit="10" fill="none"/><path d="M163.2 129.223h8v11h-8zm0 0" fill="#fff"/><use xlink:href="#e" x="163.199" y="137.886" fill="#f00"/><path d="M141.332 167.293l-9.402-7.465" stroke-width="1.2" stroke="#00f" stroke-miterlimit="10" fill="none"/><path d="M131.93 159.828l-9.403-7.47" stroke-width="1.2" stroke="#000" stroke-miterlimit="10" fill="none"/><path d="M134.332 161.793h14v11h-14zm0 0" fill="#fff"/><g fill="#00f"><use xlink:href="#c" x="134.332" y="170.456"/><use xlink:href="#d" x="141.31" y="170.456"/></g><path d="M122.527 152.36l-11.566 3.218" stroke-width="1.2" stroke="#000" stroke-miterlimit="10" fill="none"/><path d="M110.96 155.578l-11.565 3.22" stroke-width="1.2" stroke="#00f" stroke-miterlimit="10" fill="none"/><path d="M123.56 128.37l-1.033 23.99M117.81 130.527l-.822 19.192" stroke-width="1.2" stroke="#000" stroke-miterlimit="10" fill="none"/><path d="M99.395 158.797l-13.27-20.016M99.395 158.797L95.2 170.043" stroke-width="1.2" stroke="#00f" stroke-miterlimit="10" fill="none"/><path d="M95.2 170.043l-4.196 11.25" stroke-width="1.2" stroke="#000" stroke-miterlimit="10" fill="none"/><path d="M96.395 153.297h7v11h-7zm0 0" fill="#fff"/><use xlink:href="#c" x="96.395" y="161.96" fill="#00f"/><path d="M86.125 138.78l7.465-9.4" stroke-width="1.2" stroke="#00f" stroke-miterlimit="10" fill="none"/><path d="M93.59 129.38l7.47-9.403" stroke-width="1.2" stroke="#000" stroke-miterlimit="10" fill="none"/><path d="M92.043 140.414l5.973-7.52" stroke-width="1.2" stroke="#00f" stroke-miterlimit="10" fill="none"/><path d="M98.016 132.895l5.972-7.524" stroke-width="1.2" stroke="#000" stroke-miterlimit="10" fill="none"/><path d="M83.125 133.28h7v11h-7zm0 0" fill="#fff"/><use xlink:href="#c" x="83.125" y="141.944" fill="#00f"/><path d="M101.06 119.977l22.5 8.394M101.06 119.977l-6.435-23.133M94.625 96.844l23.133-6.438M94.625 96.844l-23.137 6.433M94.625 96.844L88.187 73.71M91.004 181.293l-23.684 3.984M89.57 187.266l-18.94 3.183M106.29 199.813l-15.286-18.52M67.32 185.277l-8.39 22.496M58.93 207.773l-11.84 1.993" stroke-width="1.2" stroke="#000" stroke-miterlimit="10" fill="none"/><path d="M47.09 209.766l-11.84 1.992" stroke-width="1.2" stroke="#3cc" stroke-miterlimit="10" fill="none"/><path d="M58.93 207.773l15.29 18.516M64.816 206.027l12.23 14.817" stroke-width="1.2" stroke="#000" stroke-miterlimit="10" fill="none"/><path d="M29.25 206.258h6v11h-6zm0 0" fill="#fff"/><use xlink:href="#f" x="29.25" y="214.921" fill="#3cc"/><path d="M74.22 226.29l23.678-3.98M97.898 222.31l8.39-22.498M93.445 218.086l6.71-18M208.336 140.84l22.336-8.82M212.645 145.21l17.87-7.054M230.672 132.02l18.805 14.933M249.477 146.953l-3.532 23.754M243.535 148.5l-2.824 19M245.945 170.707l9.403 7.465" stroke-width="1.2" stroke="#000" stroke-miterlimit="10" fill="none"/><path d="M255.348 178.172l9.402 7.47" stroke-width="1.2" stroke="#0c0" stroke-miterlimit="10" fill="none"/><path d="M259.75 180.14h10v11h-10zm0 0" fill="#fff"/><g fill="#0c0"><use xlink:href="#a" x="259.75" y="188.804"/><use xlink:href="#b" x="266.264" y="188.804"/></g></g></svg>