<svg xmlns="http://www.w3.org/2000/svg" xmlns:xlink="http://www.w3.org/1999/xlink" width="300pt" height="300pt" viewBox="0 0 300 300"><defs><symbol overflow="visible"><path d="M.547 1.938V-7.75h5.5v9.688zm.625-.61h4.266v-8.47H1.171zm0 0"/></symbol><symbol overflow="visible" id="a"><path d="M1.078-8.016h4.61v.907H2.171v2.36h3.172v.922H2.172V0H1.078zm0 0"/></symbol><symbol overflow="visible" id="b"><path d="M1.078-8.016h1.47l3.546 6.704v-6.704h1.062V0H5.688L2.124-6.703V0H1.078zm0 0"/></symbol><symbol overflow="visible" id="c"><path d="M1.078-8.016h1.094v3.282H6.11v-3.282h1.077V0H6.11v-3.813H2.17V0H1.078zm0 0"/></symbol><symbol overflow="visible" id="d"><path d="M4.328-7.28c-.78 0-1.406.296-1.875.89-.46.585-.687 1.382-.687 2.39 0 1.012.226 1.813.687 2.406.47.586 1.094.875 1.875.875.79 0 1.414-.288 1.875-.874.457-.593.688-1.394.688-2.406 0-1.008-.23-1.805-.687-2.39-.46-.594-1.086-.89-1.875-.89zm0-.892c1.125 0 2.024.383 2.703 1.14C7.708-6.28 8.048-5.27 8.048-4c0 1.262-.34 2.273-1.016 3.03C6.353-.22 5.454.157 4.33.157S2.3-.22 1.625-.97c-.668-.75-1-1.757-1-3.03 0-1.27.332-2.28 1-3.03.676-.76 1.578-1.142 2.703-1.142zm0 0"/></symbol></defs><g><path fill="#fff" d="M0 0h300v300H0z"/><path d="M35.25 131.742l11.88 5.696" stroke-width="1.2" stroke="#3cc" stroke-miterlimit="10" fill="none"/><path d="M47.13 137.438l11.878 5.69" stroke-width="1.2" stroke="#000" stroke-miterlimit="10" fill="none"/><path d="M28.25 125.242h7v13h-7zm0 0" fill="#fff"/><use xlink:href="#a" x="28.25" y="135.144" fill="#3cc"/><path d="M59.008 143.13l2.02 26.268M65.39 145.28l1.614 21.017M80.746 128.246L59.008 143.13M61.027 169.398l23.758 11.387M84.785 180.785l21.738-14.883M83.457 174.18l17.39-11.907M106.523 165.902l11.88 5.692" stroke-width="1.2" stroke="#000" stroke-miterlimit="10" fill="none"/><path d="M118.402 171.594l11.88 5.695" stroke-width="1.2" stroke="#00f" stroke-miterlimit="10" fill="none"/><path d="M106.523 165.902l-2.02-26.27" stroke-width="1.2" stroke="#000" stroke-miterlimit="10" fill="none"/><path d="M130.28 177.29l10.872-7.442" stroke-width="1.2" stroke="#00f" stroke-miterlimit="10" fill="none"/><path d="M141.152 169.848l10.87-7.442" stroke-width="1.2" stroke="#000" stroke-miterlimit="10" fill="none"/><path d="M122.28 170.79h17v13h-17zm0 0" fill="#fff"/><g fill="#00f"><use xlink:href="#b" x="122.281" y="180.69"/><use xlink:href="#c" x="130.265" y="180.69"/></g><path d="M155.113 162.168l-1.01-13.133" stroke-width="1.2" stroke="#000" stroke-miterlimit="10" fill="none"/><path d="M154.102 149.035l-1.008-13.137" stroke-width="1.2" stroke="#f00" stroke-miterlimit="10" fill="none"/><path d="M148.93 162.645l-1.008-13.137" stroke-width="1.2" stroke="#000" stroke-miterlimit="10" fill="none"/><path d="M147.922 149.508l-1.008-13.133" stroke-width="1.2" stroke="#f00" stroke-miterlimit="10" fill="none"/><path d="M152.023 162.406l11.88 5.692" stroke-width="1.2" stroke="#000" stroke-miterlimit="10" fill="none"/><path d="M163.902 168.098l11.88 5.695" stroke-width="1.2" stroke="#00f" stroke-miterlimit="10" fill="none"/><path d="M146.004 129.637h9v13h-9zm0 0" fill="#fff"/><use xlink:href="#d" x="146.004" y="139.538" fill="#f00"/><path d="M175.78 173.793l10.868-7.44" stroke-width="1.2" stroke="#00f" stroke-miterlimit="10" fill="none"/><path d="M186.648 166.352l10.872-7.442" stroke-width="1.2" stroke="#000" stroke-miterlimit="10" fill="none"/><path d="M167.78 167.293h17v13h-17zm0 0" fill="#fff"/><g fill="#00f"><use xlink:href="#b" x="167.781" y="177.194"/><use xlink:href="#c" x="175.765" y="177.194"/></g><path d="M197.52 158.91l.738-26.336M222.336 167.75l-24.816-8.84M221.938 161.027l-19.856-7.074M198.258 132.574l25.273-7.433M202.535 137.777l20.22-5.95M223.53 125.14l7.443 10.868" stroke-width="1.2" stroke="#000" stroke-miterlimit="10" fill="none"/><path d="M230.973 136.008l7.44 10.87" stroke-width="1.2" stroke="#00f" stroke-miterlimit="10" fill="none"/><path d="M223.53 125.14l8.845-24.82" stroke-width="1.2" stroke="#000" stroke-miterlimit="10" fill="none"/><path d="M238.414 146.88l13.168.366" stroke-width="1.2" stroke="#00f" stroke-miterlimit="10" fill="none"/><path d="M251.582 147.246l13.168.37" stroke-width="1.2" stroke="#000" stroke-miterlimit="10" fill="none"/><path d="M238.414 146.88l-8.04 10.436" stroke-width="1.2" stroke="#00f" stroke-miterlimit="10" fill="none"/><path d="M230.375 157.316l-8.04 10.434" stroke-width="1.2" stroke="#000" stroke-miterlimit="10" fill="none"/><path d="M234.414 140.38h8v13h-8zm0 0" fill="#fff"/><use xlink:href="#b" x="234.414" y="150.28" fill="#00f"/><path d="M222.336 167.75l7.437 25.273M229.773 193.023l12.805 3.102" stroke-width="1.2" stroke="#000" stroke-miterlimit="10" fill="none"/><path d="M242.578 196.125l12.8 3.098" stroke-width="1.2" stroke="#f00" stroke-miterlimit="10" fill="none"/><path d="M227.527 190.887l-9.082 9.54" stroke-width="1.2" stroke="#000" stroke-miterlimit="10" fill="none"/><path d="M218.445 200.426l-9.086 9.54" stroke-width="1.2" stroke="#f00" stroke-miterlimit="10" fill="none"/><path d="M232.02 195.164l-9.086 9.535" stroke-width="1.2" stroke="#000" stroke-miterlimit="10" fill="none"/><path d="M222.934 204.7l-9.086 9.538M255.38 199.223l3.718 12.636" stroke-width="1.2" stroke="#f00" stroke-miterlimit="10" fill="none"/><path d="M259.098 211.86l3.718 12.636" stroke-width="1.2" stroke="#000" stroke-miterlimit="10" fill="none"/><path d="M251.38 192.723h9v13h-9zm0 0" fill="#fff"/><use xlink:href="#d" x="251.379" y="202.624" fill="#f00"/><path d="M202.602 205.602h9v13h-9zm0 0" fill="#fff"/><use xlink:href="#d" x="202.602" y="215.503" fill="#f00"/><path d="M232.375 100.32l24.816 8.84M232.375 100.32l-24.82-8.84M232.375 100.32l8.84-24.816M104.504 139.633l-23.758-11.387M99.45 144.086l-19.005-9.11" stroke-width="1.2" stroke="#000" stroke-miterlimit="10" fill="none"/></g></svg>