<svg xmlns="http://www.w3.org/2000/svg" xmlns:xlink="http://www.w3.org/1999/xlink" width="300pt" height="300pt" viewBox="0 0 300 300"><defs><symbol overflow="visible"><path d="M.547 1.938V-7.75h5.5v9.688zm.625-.61h4.266v-8.47H1.171zm0 0"/></symbol><symbol overflow="visible" id="a"><path d="M1.078-8.016h4.61v.907H2.171v2.36h3.172v.922H2.172V0H1.078zm0 0"/></symbol><symbol overflow="visible" id="b"><path d="M1.078-8.016h1.47l3.546 6.704v-6.704h1.062V0H5.688L2.124-6.703V0H1.078zm0 0"/></symbol><symbol overflow="visible" id="c"><path d="M4.328-7.28c-.78 0-1.406.296-1.875.89-.46.585-.687 1.382-.687 2.39 0 1.012.226 1.813.687 2.406.47.586 1.094.875 1.875.875.79 0 1.414-.288 1.875-.874.457-.593.688-1.394.688-2.406 0-1.008-.23-1.805-.687-2.39-.46-.594-1.086-.89-1.875-.89zm0-.892c1.125 0 2.024.383 2.703 1.14C7.708-6.28 8.048-5.27 8.048-4c0 1.262-.34 2.273-1.016 3.03C6.353-.22 5.454.157 4.33.157S2.3-.22 1.625-.97c-.668-.75-1-1.757-1-3.03 0-1.27.332-2.28 1-3.03.676-.76 1.578-1.142 2.703-1.142zm0 0"/></symbol><symbol overflow="visible" id="d"><path d="M1.078-8.016h1.094v3.282H6.11v-3.282h1.077V0H6.11v-3.813H2.17V0H1.078zm0 0"/></symbol><symbol overflow="visible"><path d="M.453 1.594v-7.938h4.5v7.938zm.5-.5h3.5v-6.938h-3.5zm0 0"/></symbol><symbol overflow="visible" id="e"><path d="M1.734-.75h3.094V0H.656v-.75c.344-.344.8-.805 1.375-1.39.583-.594.954-.973 1.11-1.14.282-.322.473-.595.58-.814.112-.226.17-.445.17-.656 0-.352-.12-.64-.36-.86-.24-.218-.557-.327-.952-.327-.28 0-.578.054-.89.156-.305.093-.633.24-.985.436v-.906c.352-.133.688-.238 1-.313.313-.082.598-.125.86-.125.675 0 1.218.172 1.624.516.407.344.61.797.61 1.36 0 .273-.055.53-.156.78-.105.243-.288.524-.546.845-.074.085-.31.328-.703.734-.398.406-.95.976-1.656 1.703zm0 0"/></symbol><symbol overflow="visible" id="f"><path d="M4.14-5.64v2.452h2.454v.735H4.14V0h-.734v-2.453H.953v-.735h2.453V-5.64zm0 0"/></symbol></defs><g><path fill="#fff" d="M0 0h300v300H0z"/><path d="M162.316 253.438l-9.492-10.29" stroke-width="1.2" stroke="#3cc" stroke-miterlimit="10" fill="none"/><path d="M152.824 243.148l-9.488-10.29" stroke-width="1.2" stroke="#000" stroke-miterlimit="10" fill="none"/><path d="M159.316 246.938h7v13h-7zm0 0" fill="#fff"/><use xlink:href="#a" x="159.316" y="256.839" fill="#3cc"/><path d="M143.336 232.86l-27.31 6.148M139.16 227.047l-21.85 4.922M151.668 206.133l-8.332 26.726M116.027 239.008l-18.98-20.578M97.047 218.43l8.328-26.723M104.168 217.72l6.664-21.38M105.375 191.707l27.313-6.148M105.375 191.707L86.398 171.13M132.688 185.56l18.98 20.573M129.742 192.082l15.184 16.46M86.398 171.13l-13.902 1.628" stroke-width="1.2" stroke="#000" stroke-miterlimit="10" fill="none"/><path d="M72.496 172.758l-13.902 1.63" stroke-width="1.2" stroke="#00f" stroke-miterlimit="10" fill="none"/><path d="M91.887 143.68l-5.49 27.45M84.88 145.133l-4.392 21.957" stroke-width="1.2" stroke="#000" stroke-miterlimit="10" fill="none"/><path d="M58.594 174.387l-5.848-12.715" stroke-width="1.2" stroke="#00f" stroke-miterlimit="10" fill="none"/><path d="M52.746 161.672l-5.844-12.72" stroke-width="1.2" stroke="#000" stroke-miterlimit="10" fill="none"/><path d="M63.41 169.094l-4.68-10.176" stroke-width="1.2" stroke="#00f" stroke-miterlimit="10" fill="none"/><path d="M58.73 158.918l-4.675-10.172" stroke-width="1.2" stroke="#000" stroke-miterlimit="10" fill="none"/><path d="M54.594 167.887h8v13h-8zm0 0" fill="#fff"/><use xlink:href="#b" x="54.594" y="177.788" fill="#00f"/><path d="M46.902 148.953l10.29-9.488" stroke-width="1.2" stroke="#000" stroke-miterlimit="10" fill="none"/><path d="M57.19 139.465l10.287-9.492M67.477 129.973l12.207 6.85" stroke-width="1.2" stroke="#00f" stroke-miterlimit="10" fill="none"/><path d="M79.684 136.824l12.203 6.856" stroke-width="1.2" stroke="#000" stroke-miterlimit="10" fill="none"/><path d="M67.477 129.973l-1.63-13.903" stroke-width="1.2" stroke="#00f" stroke-miterlimit="10" fill="none"/><path d="M65.848 116.07l-1.63-13.902" stroke-width="1.2" stroke="#000" stroke-miterlimit="10" fill="none"/><path d="M63.477 123.473h8v13h-8zm0 0" fill="#fff"/><use xlink:href="#b" x="63.477" y="133.374" fill="#00f"/><path d="M91.887 143.68l25.437-11.696M117.324 131.984l11.422 8.094" stroke-width="1.2" stroke="#000" stroke-miterlimit="10" fill="none"/><path d="M128.746 140.078l11.422 8.09" stroke-width="1.2" stroke="#00f" stroke-miterlimit="10" fill="none"/><path d="M123.414 128.23l9.137 6.473" stroke-width="1.2" stroke="#000" stroke-miterlimit="10" fill="none"/><path d="M132.55 134.703l9.137 6.473" stroke-width="1.2" stroke="#00f" stroke-miterlimit="10" fill="none"/><path d="M119.914 104.113l-2.59 27.87" stroke-width="1.2" stroke="#000" stroke-miterlimit="10" fill="none"/><path d="M140.168 148.168l12.715-5.848" stroke-width="1.2" stroke="#00f" stroke-miterlimit="10" fill="none"/><path d="M152.883 142.32l12.72-5.843" stroke-width="1.2" stroke="#000" stroke-miterlimit="10" fill="none"/><path d="M136.168 141.668h8v13h-8zm0 0" fill="#fff"/><use xlink:href="#b" x="136.168" y="151.569" fill="#00f"/><path d="M165.602 136.477l11.42 8.09" stroke-width="1.2" stroke="#000" stroke-miterlimit="10" fill="none"/><path d="M177.023 144.566l11.422 8.09" stroke-width="1.2" stroke="#f00" stroke-miterlimit="10" fill="none"/><path d="M165.602 136.477l1.296-13.938" stroke-width="1.2" stroke="#000" stroke-miterlimit="10" fill="none"/><path d="M166.898 122.54l1.293-13.938" stroke-width="1.2" stroke="#00f" stroke-miterlimit="10" fill="none"/><path d="M159.3 133.078l1.04-11.148" stroke-width="1.2" stroke="#000" stroke-miterlimit="10" fill="none"/><path d="M160.34 121.93l1.035-11.153" stroke-width="1.2" stroke="#00f" stroke-miterlimit="10" fill="none"/><path d="M188.445 152.656l12.72-5.844" stroke-width="1.2" stroke="#f00" stroke-miterlimit="10" fill="none"/><path d="M201.164 146.813l12.715-5.848" stroke-width="1.2" stroke="#000" stroke-miterlimit="10" fill="none"/><path d="M184.445 146.156h9v13h-9zm0 0" fill="#fff"/><use xlink:href="#c" x="184.445" y="156.058" fill="#f00"/><path d="M213.88 140.965l22.843 16.18M219.973 137.207l18.273 12.945M216.473 113.09l-2.594 27.875M236.723 157.145l25.433-11.692M262.156 145.453l2.594-27.87M255.86 142.055l2.074-22.297M264.75 117.582l-22.844-16.184M241.906 101.398l-25.433 11.692M242.113 108.555l-20.347 9.35M216.473 113.09L205.05 105" stroke-width="1.2" stroke="#000" stroke-miterlimit="10" fill="none"/><path d="M205.05 105l-11.42-8.09M193.63 96.91l1.296-13.937" stroke-width="1.2" stroke="#00f" stroke-miterlimit="10" fill="none"/><path d="M194.926 82.973l1.293-13.938" stroke-width="1.2" stroke="#000" stroke-miterlimit="10" fill="none"/><path d="M185.63 90.41h17v13h-17zm0 0" fill="#fff"/><g fill="#00f"><use xlink:href="#b" x="185.629" y="100.312"/><use xlink:href="#d" x="193.612" y="100.312"/></g><path d="M197.598 72.027l12.714-5.843" stroke-width="1.2" stroke="#000" stroke-miterlimit="10" fill="none"/><path d="M210.313 66.184l12.718-5.848" stroke-width="1.2" stroke="#f00" stroke-miterlimit="10" fill="none"/><path d="M194.844 66.043l12.72-5.844" stroke-width="1.2" stroke="#000" stroke-miterlimit="10" fill="none"/><path d="M207.563 60.2l12.718-5.848" stroke-width="1.2" stroke="#f00" stroke-miterlimit="10" fill="none"/><path d="M196.22 69.035l-22.84-16.18" stroke-width="1.2" stroke="#000" stroke-miterlimit="10" fill="none"/><path d="M217.656 50.844h9v13h-9zm0 0" fill="#fff"/><use xlink:href="#c" x="217.656" y="60.745" fill="#f00"/><path d="M168.19 108.602l-11.417-8.09" stroke-width="1.2" stroke="#00f" stroke-miterlimit="10" fill="none"/><path d="M156.773 100.512l-11.42-8.09" stroke-width="1.2" stroke="#000" stroke-miterlimit="10" fill="none"/><path d="M164.19 102.102h8v13h-8zm0 0" fill="#fff"/><use xlink:href="#b" x="164.191" y="112.003" fill="#00f"/><path d="M145.352 92.422l-25.438 11.69M145.56 99.574l-20.35 9.356M64.22 102.168l22.448-16.723M38.512 91.09l25.707 11.078M86.668 85.445L83.406 57.64M83.406 57.64L70.55 52.103" stroke-width="1.2" stroke="#000" stroke-miterlimit="10" fill="none"/><path d="M70.55 52.102l-12.85-5.54M57.7 46.563l-11.227 8.363" stroke-width="1.2" stroke="#00f" stroke-miterlimit="10" fill="none"/><path d="M46.473 54.926L35.25 63.29" stroke-width="1.2" stroke="#000" stroke-miterlimit="10" fill="none"/><path d="M42.7 36.063h30v21h-30zm0 0" fill="#fff"/><g fill="#00f"><use xlink:href="#b" x="42.699" y="49.195"/><use xlink:href="#d" x="50.683" y="49.195"/></g><use xlink:href="#e" x="58.707" y="54.078" fill="#00f"/><use xlink:href="#f" x="64.363" y="44.313" fill="#00f"/><path d="M35.25 63.29l3.262 27.8" stroke-width="1.2" stroke="#000" stroke-miterlimit="10" fill="none"/></g></svg>