<svg xmlns="http://www.w3.org/2000/svg" xmlns:xlink="http://www.w3.org/1999/xlink" width="300pt" height="300pt" viewBox="0 0 300 300"><defs><symbol overflow="visible"><path d="M.547 1.938V-7.75h5.5v9.688zm.625-.61h4.266v-8.47H1.171zm0 0"/></symbol><symbol overflow="visible" id="a"><path d="M1.078-8.016h1.47l3.546 6.704v-6.704h1.062V0H5.688L2.124-6.703V0H1.078zm0 0"/></symbol><symbol overflow="visible" id="b"><path d="M1.078-8.016h1.094v3.282H6.11v-3.282h1.077V0H6.11v-3.813H2.17V0H1.078zm0 0"/></symbol><symbol overflow="visible" id="d"><path d="M4.328-7.28c-.78 0-1.406.296-1.875.89-.46.585-.687 1.382-.687 2.39 0 1.012.226 1.813.687 2.406.47.586 1.094.875 1.875.875.79 0 1.414-.288 1.875-.874.457-.593.688-1.394.688-2.406 0-1.008-.23-1.805-.687-2.39-.46-.594-1.086-.89-1.875-.89zm0-.892c1.125 0 2.024.383 2.703 1.14C7.708-6.28 8.048-5.27 8.048-4c0 1.262-.34 2.273-1.016 3.03C6.353-.22 5.454.157 4.33.157S2.3-.22 1.625-.97c-.668-.75-1-1.757-1-3.03 0-1.27.332-2.28 1-3.03.676-.76 1.578-1.142 2.703-1.142zm0 0"/></symbol><symbol overflow="visible"><path d="M.453 1.594v-7.938h4.5v7.938zm.5-.5h3.5v-6.938h-3.5zm0 0"/></symbol><symbol overflow="visible" id="c"><path d="M4.14-5.64v2.452h2.454v.735H4.14V0h-.734v-2.453H.953v-.735h2.453V-5.64zm0 0"/></symbol><symbol overflow="visible" id="e"><path d="M1.734-.75h3.094V0H.656v-.75c.344-.344.8-.805 1.375-1.39.583-.594.954-.973 1.11-1.14.282-.322.473-.595.58-.814.112-.226.17-.445.17-.656 0-.352-.12-.64-.36-.86-.24-.218-.557-.327-.952-.327-.28 0-.578.054-.89.156-.305.093-.633.24-.985.436v-.906c.352-.133.688-.238 1-.313.313-.082.598-.125.86-.125.675 0 1.218.172 1.624.516.407.344.61.797.61 1.36 0 .273-.055.53-.156.78-.105.243-.288.524-.546.845-.074.085-.31.328-.703.734-.398.406-.95.976-1.656 1.703zm0 0"/></symbol></defs><g><path fill="#fff" d="M0 0h300v300H0z"/><path d="M131.758 174.477l26.086-5.2-3.356-8.617zm0 0"/><path d="M131.758 174.477l-2.028 26.117M112.602 156.61l19.156 17.867" stroke-width="1.2" stroke="#000" stroke-miterlimit="10" fill="none"/><path d="M156.168 164.97l10.22 8.194" stroke-width="1.2" stroke="#00f" stroke-miterlimit="10" fill="none"/><path d="M166.387 173.164l10.218 8.19" stroke-width="1.2" stroke="#000" stroke-miterlimit="10" fill="none"/><path d="M154.355 171.418l8.176 6.555" stroke-width="1.2" stroke="#00f" stroke-miterlimit="10" fill="none"/><path d="M162.53 177.973l8.177 6.554" stroke-width="1.2" stroke="#000" stroke-miterlimit="10" fill="none"/><path d="M144.168 156.97h24v16h-24zm0 0" fill="#fff"/><g fill="#00f"><use xlink:href="#a" x="144.168" y="170.102"/><use xlink:href="#b" x="152.151" y="170.102"/></g><use xlink:href="#c" x="160.176" y="165.219" fill="#00f"/><path d="M172.633 207.25m.965-2.844l-1.032-.156m1.993-2.684l-2.06-.316m3.023-2.523l-3.093-.477m4.058-2.367l-4.125-.633m5.086-2.207l-5.153-.79m6.117-2.05l-6.184-.95m7.145-1.894l-7.215-1.106m8.18-1.734l-8.246-1.266m9.082-1.2l-9.14-1.398" stroke="#000" stroke-miterlimit="10" fill="none"/><path d="M176.605 181.355l12.204-4.753" stroke-width="1.2" stroke="#000" stroke-miterlimit="10" fill="none"/><path d="M188.81 176.602l12.206-4.754" stroke-width="1.2" stroke="#00f" stroke-miterlimit="10" fill="none"/><path d="M172.633 207.25l-24.41 9.508M172.633 207.25l20.437 16.383M148.223 216.758l-12.203 4.75" stroke-width="1.2" stroke="#000" stroke-miterlimit="10" fill="none"/><path d="M136.02 221.508l-12.208 4.754" stroke-width="1.2" stroke="#00f" stroke-miterlimit="10" fill="none"/><path d="M143.547 211.965l-9.766 3.8" stroke-width="1.2" stroke="#000" stroke-miterlimit="10" fill="none"/><path d="M133.78 215.766l-9.76 3.804" stroke-width="1.2" stroke="#00f" stroke-miterlimit="10" fill="none"/><path d="M148.02 223.45l-9.762 3.804" stroke-width="1.2" stroke="#000" stroke-miterlimit="10" fill="none"/><path d="M138.258 227.254l-9.766 3.8" stroke-width="1.2" stroke="#00f" stroke-miterlimit="10" fill="none"/><path d="M115.813 219.762h8v13h-8zm0 0" fill="#fff"/><use xlink:href="#a" x="115.813" y="229.663" fill="#00f"/><path d="M194.19 226.508l12.205-4.754" stroke-width="1.2" stroke="#000" stroke-miterlimit="10" fill="none"/><path d="M206.395 221.754L218.602 217" stroke-width="1.2" stroke="#f00" stroke-miterlimit="10" fill="none"/><path d="M191.953 220.762l12.207-4.754" stroke-width="1.2" stroke="#000" stroke-miterlimit="10" fill="none"/><path d="M204.16 216.008l12.203-4.754" stroke-width="1.2" stroke="#f00" stroke-miterlimit="10" fill="none"/><path d="M193.07 223.633l-1.984 12.95" stroke-width="1.2" stroke="#000" stroke-miterlimit="10" fill="none"/><path d="M191.086 236.582l-1.984 12.945" stroke-width="1.2" stroke="#00f" stroke-miterlimit="10" fill="none"/><path d="M213.48 207.63h9v13h-9zm0 0" fill="#fff"/><use xlink:href="#d" x="213.48" y="217.53" fill="#f00"/><path d="M178.102 241.027h22v17h-22zm0 0" fill="#fff"/><use xlink:href="#b" x="178.102" y="250.929" fill="#00f"/><use xlink:href="#e" x="186.126" y="255.812" fill="#00f"/><use xlink:href="#a" x="191.782" y="250.929" fill="#00f"/><path d="M201.016 171.848L203 158.902" stroke-width="1.2" stroke="#00f" stroke-miterlimit="10" fill="none"/><path d="M203 158.902l1.988-12.945" stroke-width="1.2" stroke="#000" stroke-miterlimit="10" fill="none"/><path d="M193.016 165.348h17v13h-17zm0 0" fill="#fff"/><g fill="#00f"><use xlink:href="#a" x="193.016" y="175.249"/><use xlink:href="#b" x="200.999" y="175.249"/></g><path d="M204.988 145.957l24.407-9.508M205.19 139.262l19.53-7.606M184.547 129.57l20.44 16.387M229.395 136.45l3.972-25.895M233.367 110.555L212.93 94.168M235.18 104.105L218.828 91M255.27 96.18l-21.903 14.375M212.93 94.168l4.632-12.25" stroke-width="1.2" stroke="#000" stroke-miterlimit="10" fill="none"/><path d="M217.563 81.918l4.636-12.25" stroke-width="1.2" stroke="#f00" stroke-miterlimit="10" fill="none"/><path d="M212.93 94.168l-24.41 9.508" stroke-width="1.2" stroke="#000" stroke-miterlimit="10" fill="none"/><path d="M222.2 69.668l13.08.62" stroke-width="1.2" stroke="#f00" stroke-miterlimit="10" fill="none"/><path d="M235.28 70.29l13.083.62" stroke-width="1.2" stroke="#000" stroke-miterlimit="10" fill="none"/><path d="M218.2 63.168h9v13h-9zm0 0" fill="#fff"/><use xlink:href="#d" x="218.199" y="73.069" fill="#f00"/><path d="M248.363 70.91l16.387-20.437M248.363 70.91l6.907 25.27M243.11 75.063l5.523 20.214M188.52 103.676l-3.973 25.894M194.215 107.2l-3.176 20.714M129.73 200.594l-21.68 14.703M108.05 215.297l-25.01-7.79M83.04 207.508l-9.51-24.41M73.53 183.098l6.58-11.325" stroke-width="1.2" stroke="#000" stroke-miterlimit="10" fill="none"/><path d="M80.11 171.773l6.578-11.328M86.688 160.445l-7.352-10.84" stroke-width="1.2" stroke="#00f" stroke-miterlimit="10" fill="none"/><path d="M79.336 149.605l-7.352-10.84" stroke-width="1.2" stroke="#000" stroke-miterlimit="10" fill="none"/><path d="M86.688 160.445l12.957-1.918" stroke-width="1.2" stroke="#00f" stroke-miterlimit="10" fill="none"/><path d="M99.645 158.527l12.957-1.918" stroke-width="1.2" stroke="#000" stroke-miterlimit="10" fill="none"/><path d="M82.688 153.945h8v13h-8zm0 0" fill="#fff"/><use xlink:href="#a" x="82.688" y="163.847" fill="#00f"/><path d="M71.984 138.766l11.43-23.575M83.637 118.266l13.062-.946" stroke-width="1.2" stroke="#000" stroke-miterlimit="10" fill="none"/><path d="M96.7 117.32l13.062-.945" stroke-width="1.2" stroke="#f00" stroke-miterlimit="10" fill="none"/><path d="M83.19 112.117l13.064-.945" stroke-width="1.2" stroke="#000" stroke-miterlimit="10" fill="none"/><path d="M96.254 111.172l13.066-.945" stroke-width="1.2" stroke="#f00" stroke-miterlimit="10" fill="none"/><path d="M83.414 115.19l-7.352-10.838" stroke-width="1.2" stroke="#000" stroke-miterlimit="10" fill="none"/><path d="M76.063 104.352l-7.348-10.844" stroke-width="1.2" stroke="#00f" stroke-miterlimit="10" fill="none"/><path d="M105.543 106.8h9v13h-9zm0 0" fill="#fff"/><use xlink:href="#d" x="105.543" y="116.702" fill="#f00"/><path d="M68.715 93.508l-13.094-.426" stroke-width="1.2" stroke="#00f" stroke-miterlimit="10" fill="none"/><path d="M55.62 93.082l-13.09-.426M77.613 68.87l-4.45 12.32" stroke-width="1.2" stroke="#000" stroke-miterlimit="10" fill="none"/><path d="M73.164 81.19l-4.45 12.318" stroke-width="1.2" stroke="#00f" stroke-miterlimit="10" fill="none"/><path d="M64.715 87.008h8v13h-8zm0 0" fill="#fff"/><use xlink:href="#a" x="64.715" y="96.909" fill="#00f"/><path d="M42.53 92.656l-7.28-25.16M35.25 67.496l21.684-14.703M56.934 52.793l20.68 16.078M115.543 157.527l3.894-12.507" stroke-width="1.2" stroke="#000" stroke-miterlimit="10" fill="none"/><path d="M119.438 145.02l3.89-12.508" stroke-width="1.2" stroke="#f00" stroke-miterlimit="10" fill="none"/><path d="M109.656 155.69l3.895-12.502" stroke-width="1.2" stroke="#000" stroke-miterlimit="10" fill="none"/><path d="M113.55 143.188l3.895-12.508" stroke-width="1.2" stroke="#f00" stroke-miterlimit="10" fill="none"/><path d="M116.387 125.098h9v13h-9zm0 0" fill="#fff"/><use xlink:href="#d" x="116.387" y="134.999" fill="#f00"/></g></svg>