<svg xmlns="http://www.w3.org/2000/svg" xmlns:xlink="http://www.w3.org/1999/xlink" width="300pt" height="300pt" viewBox="0 0 300 300"><defs><symbol overflow="visible"><path d="M.453 1.594v-7.938h4.5v7.938zm.5-.5h3.5v-6.938h-3.5zm0 0"/></symbol><symbol overflow="visible" id="a"><path d="M4.813-6.344v.86c-.336-.157-.653-.27-.954-.344-.294-.082-.58-.125-.86-.125-.492 0-.867.094-1.125.28-.262.19-.39.454-.39.798 0 .293.085.512.265.656.176.15.504.267.984.36l.547.11c.658.125 1.142.352 1.454.672.32.312.485.734.485 1.265 0 .637-.216 1.122-.642 1.454-.43.325-1.055.485-1.875.485-.312 0-.648-.04-1-.11C1.36-.046 1-.147.625-.296v-.906c.352.2.703.35 1.047.453.35.105.695.156 1.03.156.5 0 .884-.097 1.157-.297.28-.196.42-.485.42-.86 0-.32-.1-.57-.296-.75-.2-.176-.523-.313-.968-.406l-.547-.11C1.81-3.148 1.33-3.36 1.03-3.64.74-3.923.595-4.313.595-4.813c0-.57.203-1.024.61-1.36.405-.344.968-.516 1.687-.516.313 0 .626.032.938.094.32.055.65.137.985.25zm0 0"/></symbol><symbol overflow="visible" id="b"><path d="M3.547-5.953c-.65 0-1.164.242-1.547.72-.375.48-.563 1.13-.563 1.952 0 .835.188 1.49.563 1.967.383.48.898.72 1.547.72.644 0 1.156-.24 1.53-.72.376-.476.564-1.132.564-1.968 0-.822-.187-1.474-.562-1.954-.375-.477-.887-.72-1.53-.72zm0-.734c.914 0 1.648.312 2.203.937.55.617.828 1.438.828 2.47 0 1.042-.277 1.87-.828 2.483-.555.617-1.29.922-2.203.922-.93 0-1.668-.305-2.22-.922C.774-1.41.5-2.237.5-3.28c0-1.033.273-1.853.828-2.47.55-.625 1.29-.938 2.22-.938zm0 0"/></symbol><symbol overflow="visible" id="c"><path d="M.89-6.563H2.08l2.906 5.485v-5.484h.86V0H4.656L1.75-5.484V0H.89zm0 0"/></symbol><symbol overflow="visible" id="d"><path d="M.89-6.563h.876v2.688H5v-2.688h.89V0H5v-3.125H1.766V0H.89zm0 0"/></symbol></defs><g><path fill="#fff" d="M0 0h300v300H0z"/><path d="M89.402 139.824l5.422 10.004" stroke-width="1.2" stroke="#cc0" stroke-miterlimit="10" fill="none"/><path d="M94.824 149.828l5.426 10M105.078 123.324l-7.84 8.25" stroke-width="1.2" stroke="#000" stroke-miterlimit="10" fill="none"/><path d="M97.238 131.574l-7.836 8.25" stroke-width="1.2" stroke="#cc0" stroke-miterlimit="10" fill="none"/><path d="M86.402 134.324h6v11h-6zm0 0" fill="#fff"/><use xlink:href="#a" x="86.402" y="142.987" fill="#cc0"/><path d="M100.25 159.828l-9.813 20.535M100.25 159.828l22.38-4.133M101.516 154.152l17.902-3.308M90.438 180.363l-11.344.887" stroke-width="1.2" stroke="#000" stroke-miterlimit="10" fill="none"/><path d="M79.094 181.25l-11.344.887" stroke-width="1.2" stroke="#f00" stroke-miterlimit="10" fill="none"/><path d="M88.23 181.88l6.442 9.382" stroke-width="1.2" stroke="#000" stroke-miterlimit="10" fill="none"/><path d="M94.672 191.262l6.437 9.383" stroke-width="1.2" stroke="#f00" stroke-miterlimit="10" fill="none"/><path d="M92.645 178.852l6.44 9.378" stroke-width="1.2" stroke="#000" stroke-miterlimit="10" fill="none"/><path d="M99.086 188.23l6.437 9.383M67.75 182.137l-4.906 10.265" stroke-width="1.2" stroke="#f00" stroke-miterlimit="10" fill="none"/><path d="M62.844 192.402l-4.907 10.27" stroke-width="1.2" stroke="#000" stroke-miterlimit="10" fill="none"/><path d="M63.75 176.637h8v11h-8zm0 0" fill="#fff"/><use xlink:href="#b" x="63.75" y="185.3" fill="#f00"/><path d="M57.938 202.672l-22.688 1.77M57.938 202.672l12.878 18.762" stroke-width="1.2" stroke="#000" stroke-miterlimit="10" fill="none"/><path d="M99.316 193.63h8v11h-8zm0 0" fill="#fff"/><use xlink:href="#b" x="99.316" y="202.292" fill="#f00"/><path d="M122.63 155.695l8.25 7.84" stroke-width="1.2" stroke="#000" stroke-miterlimit="10" fill="none"/><path d="M130.88 163.535l8.245 7.836" stroke-width="1.2" stroke="#00f" stroke-miterlimit="10" fill="none"/><path d="M122.63 155.695l2.983-22.562" stroke-width="1.2" stroke="#000" stroke-miterlimit="10" fill="none"/><path d="M139.125 171.37l10.914-3.222" stroke-width="1.2" stroke="#00f" stroke-miterlimit="10" fill="none"/><path d="M150.04 168.148l10.913-3.226" stroke-width="1.2" stroke="#000" stroke-miterlimit="10" fill="none"/><path d="M132.125 165.87h14v11h-14zm0 0" fill="#fff"/><g fill="#00f"><use xlink:href="#c" x="132.125" y="174.534"/><use xlink:href="#d" x="139.103" y="174.534"/></g><path d="M163.555 165.547l2.664-11.063" stroke-width="1.2" stroke="#000" stroke-miterlimit="10" fill="none"/><path d="M166.22 154.484l2.663-11.062" stroke-width="1.2" stroke="#f00" stroke-miterlimit="10" fill="none"/><path d="M158.348 164.297l2.664-11.067" stroke-width="1.2" stroke="#000" stroke-miterlimit="10" fill="none"/><path d="M161.012 153.23l2.664-11.062" stroke-width="1.2" stroke="#f00" stroke-miterlimit="10" fill="none"/><path d="M160.953 164.922l8.246 7.84" stroke-width="1.2" stroke="#000" stroke-miterlimit="10" fill="none"/><path d="M169.2 172.762l8.25 7.836" stroke-width="1.2" stroke="#00f" stroke-miterlimit="10" fill="none"/><path d="M162.277 137.297h8v11h-8zm0 0" fill="#fff"/><use xlink:href="#b" x="162.277" y="145.96" fill="#f00"/><path d="M177.45 180.598l10.913-3.227" stroke-width="1.2" stroke="#00f" stroke-miterlimit="10" fill="none"/><path d="M188.363 177.37l10.91-3.222" stroke-width="1.2" stroke="#000" stroke-miterlimit="10" fill="none"/><path d="M170.45 175.098h14v11h-14zm0 0" fill="#fff"/><g fill="#00f"><use xlink:href="#c" x="170.449" y="183.761"/><use xlink:href="#d" x="177.427" y="183.761"/></g><path d="M199.273 174.148l16.5 15.676M204.613 171.832l13.2 12.543M204.602 152.023l-5.33 22.125M215.773 189.824l21.825-6.45M237.598 183.375l5.328-22.13M232.926 179.906l4.262-17.7M242.926 161.246l-16.5-15.676M242.926 161.246l21.824-6.45M226.426 145.57l-21.824 6.453M225.762 151.352l-17.46 5.16M125.613 133.133l-20.535-9.81M121.25 136.984l-16.426-7.847M105.078 123.324l-4.133-22.38M100.945 100.945l22.38-4.132M100.945 100.945l-22.38 4.133M100.945 100.945l-4.132-22.38" stroke-width="1.2" stroke="#000" stroke-miterlimit="10" fill="none"/></g></svg>