<svg xmlns="http://www.w3.org/2000/svg" xmlns:xlink="http://www.w3.org/1999/xlink" width="300pt" height="300pt" viewBox="0 0 300 300"><defs><symbol overflow="visible"><path d="M.453 1.594v-7.938h4.5v7.938zm.5-.5h3.5v-6.938h-3.5zm0 0"/></symbol><symbol overflow="visible" id="a"><path d="M.89-6.563h3.766v.75h-2.89v1.938h2.61v.734h-2.61V0H.89zm0 0"/></symbol><symbol overflow="visible" id="b"><path d="M.89-6.563H2.08l2.906 5.485v-5.484h.86V0H4.656L1.75-5.484V0H.89zm0 0"/></symbol><symbol overflow="visible" id="c"><path d="M3.547-5.953c-.65 0-1.164.242-1.547.72-.375.48-.563 1.13-.563 1.952 0 .835.188 1.49.563 1.967.383.48.898.72 1.547.72.644 0 1.156-.24 1.53-.72.376-.476.564-1.132.564-1.968 0-.822-.187-1.474-.562-1.954-.375-.477-.887-.72-1.53-.72zm0-.734c.914 0 1.648.312 2.203.937.55.617.828 1.438.828 2.47 0 1.042-.277 1.87-.828 2.483-.555.617-1.29.922-2.203.922-.93 0-1.668-.305-2.22-.922C.774-1.41.5-2.237.5-3.28c0-1.033.273-1.853.828-2.47.55-.625 1.29-.938 2.22-.938zm0 0"/></symbol><symbol overflow="visible" id="e"><path d="M.89-6.563h.876v2.688H5v-2.688h.89V0H5v-3.125H1.766V0H.89zm0 0"/></symbol><symbol overflow="visible"><path d="M.406 1.422V-5.64h4V1.42zM.844.97h3.11v-6.157H.843zm0 0"/></symbol><symbol overflow="visible" id="d"><path d="M.39-2.516H2.5v.64H.39zm0 0"/></symbol><symbol overflow="visible" id="f"><path d="M1.53-.672h2.767V0H.594v-.672c.29-.3.695-.71 1.22-1.234.518-.532.842-.867.967-1.016.26-.28.44-.52.533-.72.1-.194.156-.39.156-.577 0-.31-.11-.565-.33-.764-.218-.196-.5-.297-.843-.297-.25 0-.516.046-.797.14-.273.085-.563.214-.875.39v-.797c.32-.133.617-.234.89-.297.282-.062.536-.093.766-.093.603 0 1.083.152 1.44.453.362.304.546.703.546 1.203 0 .24-.047.468-.14.686-.095.22-.26.477-.485.766-.074.074-.288.293-.64.656-.344.356-.836.856-1.47 1.5zm0 0"/></symbol><symbol overflow="visible" id="g"><path d="M3.688-5.016v2.172h2.17v.672H3.69V0H3.03v-2.172H.845v-.672H3.03v-2.172zm0 0"/></symbol></defs><g><path fill="#fff" d="M0 0h300v300H0z"/><path d="M117.11 217.973l-6.137-6.79" stroke-width="1.2" stroke="#3cc" stroke-miterlimit="10" fill="none"/><path d="M110.973 211.184l-6.14-6.79" stroke-width="1.2" stroke="#000" stroke-miterlimit="10" fill="none"/><path d="M114.11 212.473h6v11h-6zm0 0" fill="#fff"/><use xlink:href="#a" x="114.109" y="221.136" fill="#3cc"/><path d="M104.832 204.395l-17.894 3.843M102.137 200.566l-14.317 3.08M110.453 186.973l-5.62 17.422M86.938 208.238L74.656 194.66M74.656 194.66l5.62-17.418M79.32 194.242l4.493-13.937M80.277 177.242l17.9-3.847M80.277 177.242L68 163.664M98.176 173.395l12.277 13.578M96.207 177.64l9.824 10.864M68 163.664l-9.102.977" stroke-width="1.2" stroke="#000" stroke-miterlimit="10" fill="none"/><path d="M58.898 164.64l-9.1.977" stroke-width="1.2" stroke="#00f" stroke-miterlimit="10" fill="none"/><path d="M71.766 145.75L68 163.664M67.176 146.656l-3.016 14.328" stroke-width="1.2" stroke="#000" stroke-miterlimit="10" fill="none"/><path d="M49.797 165.617l-3.738-8.355" stroke-width="1.2" stroke="#00f" stroke-miterlimit="10" fill="none"/><path d="M46.06 157.262l-3.744-8.352" stroke-width="1.2" stroke="#000" stroke-miterlimit="10" fill="none"/><path d="M52.98 162.184l-2.992-6.68" stroke-width="1.2" stroke="#00f" stroke-miterlimit="10" fill="none"/><path d="M49.988 155.504l-2.992-6.684" stroke-width="1.2" stroke="#000" stroke-miterlimit="10" fill="none"/><path d="M46.797 160.117h7v11h-7zm0 0" fill="#fff"/><use xlink:href="#b" x="46.797" y="168.78" fill="#00f"/><path d="M42.316 148.91l6.79-6.14" stroke-width="1.2" stroke="#000" stroke-miterlimit="10" fill="none"/><path d="M49.105 142.77l6.79-6.137M55.895 136.633l7.937 4.558" stroke-width="1.2" stroke="#00f" stroke-miterlimit="10" fill="none"/><path d="M63.832 141.19l7.934 4.56" stroke-width="1.2" stroke="#000" stroke-miterlimit="10" fill="none"/><path d="M55.895 136.633l-.977-9.102" stroke-width="1.2" stroke="#00f" stroke-miterlimit="10" fill="none"/><path d="M54.918 127.53l-.977-9.1" stroke-width="1.2" stroke="#000" stroke-miterlimit="10" fill="none"/><path d="M52.895 131.133h7v11h-7zm0 0" fill="#fff"/><use xlink:href="#b" x="52.895" y="139.796" fill="#00f"/><path d="M71.766 145.75l16.707-7.48M88.473 138.27l7.418 5.363" stroke-width="1.2" stroke="#000" stroke-miterlimit="10" fill="none"/><path d="M95.89 143.633l7.415 5.363" stroke-width="1.2" stroke="#00f" stroke-miterlimit="10" fill="none"/><path d="M92.48 135.852l5.934 4.29" stroke-width="1.2" stroke="#000" stroke-miterlimit="10" fill="none"/><path d="M98.414 140.14l5.934 4.294" stroke-width="1.2" stroke="#00f" stroke-miterlimit="10" fill="none"/><path d="M90.348 120.06l-1.875 18.21" stroke-width="1.2" stroke="#000" stroke-miterlimit="10" fill="none"/><path d="M103.305 148.996l8.355-3.742" stroke-width="1.2" stroke="#00f" stroke-miterlimit="10" fill="none"/><path d="M111.66 145.254l8.352-3.738" stroke-width="1.2" stroke="#000" stroke-miterlimit="10" fill="none"/><path d="M100.305 143.496h7v11h-7zm0 0" fill="#fff"/><use xlink:href="#b" x="100.305" y="152.159" fill="#00f"/><path d="M120.012 141.516l7.418 5.363" stroke-width="1.2" stroke="#000" stroke-miterlimit="10" fill="none"/><path d="M127.43 146.88l7.414 5.362" stroke-width="1.2" stroke="#f00" stroke-miterlimit="10" fill="none"/><path d="M120.012 141.516l.937-9.106" stroke-width="1.2" stroke="#000" stroke-miterlimit="10" fill="none"/><path d="M120.95 132.41l.937-9.105" stroke-width="1.2" stroke="#00f" stroke-miterlimit="10" fill="none"/><path d="M115.914 139.254l.75-7.285" stroke-width="1.2" stroke="#000" stroke-miterlimit="10" fill="none"/><path d="M116.664 131.97l.75-7.286" stroke-width="1.2" stroke="#00f" stroke-miterlimit="10" fill="none"/><path d="M134.844 152.242l8.355-3.742" stroke-width="1.2" stroke="#f00" stroke-miterlimit="10" fill="none"/><path d="M143.2 148.5l8.35-3.738" stroke-width="1.2" stroke="#000" stroke-miterlimit="10" fill="none"/><path d="M130.844 146.742h8v11h-8zm0 0" fill="#fff"/><use xlink:href="#c" x="130.844" y="155.405" fill="#f00"/><path d="M151.55 144.762l14.833 10.726M155.56 142.344l11.866 8.582M153.426 126.55l-1.875 18.212M166.383 155.488l16.707-7.48M183.09 148.008l1.875-18.21M178.992 145.746l1.5-14.566M184.965 129.797l-14.832-10.727M184.965 129.797l16.707-7.48M170.133 119.07l-16.707 7.48M170.223 123.75l-13.368 5.984M201.672 122.316l14.832 10.727M216.504 133.043l16.707-7.48M233.21 125.563l14.833 10.726M245.902 136.07l-.937 9.106" stroke-width="1.2" stroke="#000" stroke-miterlimit="10" fill="none"/><path d="M244.965 145.176l-.938 9.1" stroke-width="1.2" stroke="#f00" stroke-miterlimit="10" fill="none"/><path d="M250.184 136.512l-.934 9.105" stroke-width="1.2" stroke="#000" stroke-miterlimit="10" fill="none"/><path d="M249.25 145.617l-.938 9.102" stroke-width="1.2" stroke="#f00" stroke-miterlimit="10" fill="none"/><path d="M248.043 136.29l8.355-3.74" stroke-width="1.2" stroke="#000" stroke-miterlimit="10" fill="none"/><path d="M256.398 132.55l8.352-3.74" stroke-width="1.2" stroke="#f00" stroke-miterlimit="10" fill="none"/><path d="M242.168 149h8v11h-8zm0 0" fill="#fff"/><use xlink:href="#c" x="242.168" y="157.663" fill="#f00"/><path d="M259.75 121.31h11v15h-11zm0 0" fill="#fff"/><use xlink:href="#c" x="259.75" y="133.41" fill="#f00"/><use xlink:href="#d" x="267.092" y="128.527" fill="#f00"/><path d="M121.887 123.305l-7.418-5.364" stroke-width="1.2" stroke="#00f" stroke-miterlimit="10" fill="none"/><path d="M114.47 117.94l-7.415-5.362" stroke-width="1.2" stroke="#000" stroke-miterlimit="10" fill="none"/><path d="M118.887 117.805h7v11h-7zm0 0" fill="#fff"/><use xlink:href="#b" x="118.887" y="126.468" fill="#00f"/><path d="M107.055 112.578l-16.707 7.48M107.145 117.258l-13.368 5.984M53.94 118.43l14.787-10.79M37.203 111.02l16.738 7.41M68.727 107.64l-1.954-18.203M66.773 89.438l-8.367-3.704" stroke-width="1.2" stroke="#000" stroke-miterlimit="10" fill="none"/><path d="M58.406 85.734l-8.37-3.707M50.035 82.027l-7.39 5.4" stroke-width="1.2" stroke="#00f" stroke-miterlimit="10" fill="none"/><path d="M42.645 87.426L35.25 92.82" stroke-width="1.2" stroke="#000" stroke-miterlimit="10" fill="none"/><path d="M37.035 72.527h26v19h-26zm0 0" fill="#fff"/><g fill="#00f"><use xlink:href="#b" x="37.035" y="84.629"/><use xlink:href="#e" x="44.013" y="84.629"/></g><use xlink:href="#f" x="51.027" y="89.512" fill="#00f"/><use xlink:href="#g" x="55.978" y="79.746" fill="#00f"/><path d="M35.25 92.82l1.953 18.2" stroke-width="1.2" stroke="#000" stroke-miterlimit="10" fill="none"/></g></svg>