<svg xmlns="http://www.w3.org/2000/svg" xmlns:xlink="http://www.w3.org/1999/xlink" width="300pt" height="300pt" viewBox="0 0 300 300"><defs><symbol overflow="visible"><path d="M.453 1.594v-7.938h4.5v7.938zm.5-.5h3.5v-6.938h-3.5zm0 0"/></symbol><symbol overflow="visible" id="a"><path d="M.89-6.563h3.766v.75h-2.89v1.938h2.61v.734h-2.61V0H.89zm0 0"/></symbol><symbol overflow="visible" id="b"><path d="M.89-6.563H2.08l2.906 5.485v-5.484h.86V0H4.656L1.75-5.484V0H.89zm0 0"/></symbol><symbol overflow="visible" id="c"><path d="M3.547-5.953c-.65 0-1.164.242-1.547.72-.375.48-.563 1.13-.563 1.952 0 .835.188 1.49.563 1.967.383.48.898.72 1.547.72.644 0 1.156-.24 1.53-.72.376-.476.564-1.132.564-1.968 0-.822-.187-1.474-.562-1.954-.375-.477-.887-.72-1.53-.72zm0-.734c.914 0 1.648.312 2.203.937.55.617.828 1.438.828 2.47 0 1.042-.277 1.87-.828 2.483-.555.617-1.29.922-2.203.922-.93 0-1.668-.305-2.22-.922C.774-1.41.5-2.237.5-3.28c0-1.033.273-1.853.828-2.47.55-.625 1.29-.938 2.22-.938zm0 0"/></symbol><symbol overflow="visible" id="d"><path d="M.89-6.563h.876v2.688H5v-2.688h.89V0H5v-3.125H1.766V0H.89zm0 0"/></symbol><symbol overflow="visible"><path d="M.406 1.422V-5.64h4V1.42zM.844.97h3.11v-6.157H.843zm0 0"/></symbol><symbol overflow="visible" id="e"><path d="M1.53-.672h2.767V0H.594v-.672c.29-.3.695-.71 1.22-1.234.518-.532.842-.867.967-1.016.26-.28.44-.52.533-.72.1-.194.156-.39.156-.577 0-.31-.11-.565-.33-.764-.218-.196-.5-.297-.843-.297-.25 0-.516.046-.797.14-.273.085-.563.214-.875.39v-.797c.32-.133.617-.234.89-.297.282-.062.536-.093.766-.093.603 0 1.083.152 1.44.453.362.304.546.703.546 1.203 0 .24-.047.468-.14.686-.095.22-.26.477-.485.766-.074.074-.288.293-.64.656-.344.356-.836.856-1.47 1.5zm0 0"/></symbol><symbol overflow="visible" id="f"><path d="M3.688-5.016v2.172h2.17v.672H3.69V0H3.03v-2.172H.845v-.672H3.03v-2.172zm0 0"/></symbol></defs><g><path fill="#fff" d="M0 0h300v300H0z"/><path d="M165.98 202.457l-8.562-2.934" stroke-width="1.2" stroke="#3cc" stroke-miterlimit="10" fill="none"/><path d="M157.418 199.523l-8.56-2.933" stroke-width="1.2" stroke="#000" stroke-miterlimit="10" fill="none"/><path d="M162.98 196.957h6v11h-6zm0 0" fill="#fff"/><use xlink:href="#a" x="162.98" y="205.62" fill="#3cc"/><path d="M148.86 196.59l-13.645 11.894M144.695 194.57l-10.914 9.512M145.38 178.828l3.48 17.762M135.215 208.484l-17.12-5.867M118.094 202.617l-3.477-17.762M121.926 200.02l-2.78-14.208M114.617 184.855l13.64-11.894M114.617 184.855l-17.12-5.867M128.258 172.96l17.12 5.868M128.59 177.574l13.695 4.696M97.496 178.988l-7.406 5.2" stroke-width="1.2" stroke="#000" stroke-miterlimit="10" fill="none"/><path d="M90.09 184.188l-7.406 5.203" stroke-width="1.2" stroke="#00f" stroke-miterlimit="10" fill="none"/><path d="M92.18 161.688l5.316 17.3M88.64 164.668l4.25 13.84" stroke-width="1.2" stroke="#000" stroke-miterlimit="10" fill="none"/><path d="M82.684 189.39l-7.235-5.437" stroke-width="1.2" stroke="#00f" stroke-miterlimit="10" fill="none"/><path d="M75.45 183.953l-7.235-5.433" stroke-width="1.2" stroke="#000" stroke-miterlimit="10" fill="none"/><path d="M83.797 184.898l-5.79-4.347" stroke-width="1.2" stroke="#00f" stroke-miterlimit="10" fill="none"/><path d="M78.008 180.55l-5.79-4.35" stroke-width="1.2" stroke="#000" stroke-miterlimit="10" fill="none"/><path d="M79.684 183.89h7v11h-7zm0 0" fill="#fff"/><use xlink:href="#b" x="79.684" y="192.554" fill="#00f"/><path d="M68.215 178.52l2.933-8.563" stroke-width="1.2" stroke="#000" stroke-miterlimit="10" fill="none"/><path d="M71.148 169.957l2.934-8.56M74.082 161.398l9.047.145" stroke-width="1.2" stroke="#00f" stroke-miterlimit="10" fill="none"/><path d="M83.13 161.543l9.05.144" stroke-width="1.2" stroke="#000" stroke-miterlimit="10" fill="none"/><path d="M74.082 161.398l-5.203-7.406" stroke-width="1.2" stroke="#00f" stroke-miterlimit="10" fill="none"/><path d="M68.88 153.992l-5.2-7.406" stroke-width="1.2" stroke="#000" stroke-miterlimit="10" fill="none"/><path d="M71.082 155.898h7v11h-7zm0 0" fill="#fff"/><use xlink:href="#b" x="71.082" y="164.562" fill="#00f"/><path d="M92.18 161.688l10.87-14.47M103.05 147.22l8.98 1.09" stroke-width="1.2" stroke="#000" stroke-miterlimit="10" fill="none"/><path d="M112.03 148.31l8.986 1.088" stroke-width="1.2" stroke="#00f" stroke-miterlimit="10" fill="none"/><path d="M105.36 143.207l7.187.87" stroke-width="1.2" stroke="#000" stroke-miterlimit="10" fill="none"/><path d="M112.547 144.078l7.183.875" stroke-width="1.2" stroke="#00f" stroke-miterlimit="10" fill="none"/><path d="M95.953 130.566l7.098 16.653" stroke-width="1.2" stroke="#000" stroke-miterlimit="10" fill="none"/><path d="M121.016 149.398l5.437-7.238" stroke-width="1.2" stroke="#00f" stroke-miterlimit="10" fill="none"/><path d="M126.453 142.16l5.434-7.234" stroke-width="1.2" stroke="#000" stroke-miterlimit="10" fill="none"/><path d="M118.016 143.898h7v11h-7zm0 0" fill="#fff"/><use xlink:href="#b" x="118.016" y="152.562" fill="#00f"/><path d="M131.887 134.926l8.984 1.09" stroke-width="1.2" stroke="#000" stroke-miterlimit="10" fill="none"/><path d="M140.87 136.016l8.985 1.09" stroke-width="1.2" stroke="#f00" stroke-miterlimit="10" fill="none"/><path d="M131.887 134.926l-3.547-8.324" stroke-width="1.2" stroke="#000" stroke-miterlimit="10" fill="none"/><path d="M128.34 126.602l-3.547-8.325" stroke-width="1.2" stroke="#00f" stroke-miterlimit="10" fill="none"/><path d="M127.262 134.93l-2.84-6.657" stroke-width="1.2" stroke="#000" stroke-miterlimit="10" fill="none"/><path d="M124.422 128.273l-2.84-6.66" stroke-width="1.2" stroke="#00f" stroke-miterlimit="10" fill="none"/><path d="M149.855 137.105l5.434-7.234" stroke-width="1.2" stroke="#f00" stroke-miterlimit="10" fill="none"/><path d="M155.29 129.87l5.433-7.233" stroke-width="1.2" stroke="#000" stroke-miterlimit="10" fill="none"/><path d="M145.855 131.605h8v11h-8zm0 0" fill="#fff"/><use xlink:href="#c" x="145.855" y="140.269" fill="#f00"/><path d="M160.723 122.637l17.968 2.18M163.035 118.63l14.37 1.74M153.63 105.988l7.093 16.65M178.69 124.816l10.873-14.468M189.563 110.348l-7.098-16.653M184.934 110.352l-5.676-13.32M189.563 110.348l17.964 2.18M182.465 93.695l-17.965-2.18M164.5 91.516l-10.87 14.472M166.816 95.523l-8.695 11.575M207.527 112.527l7.098 16.65M212.922 127.895l-5.434 7.238" stroke-width="1.2" stroke="#000" stroke-miterlimit="10" fill="none"/><path d="M207.488 135.133l-5.437 7.234" stroke-width="1.2" stroke="#f00" stroke-miterlimit="10" fill="none"/><path d="M216.328 130.453l-5.437 7.234" stroke-width="1.2" stroke="#000" stroke-miterlimit="10" fill="none"/><path d="M210.89 137.688l-5.433 7.238" stroke-width="1.2" stroke="#f00" stroke-miterlimit="10" fill="none"/><path d="M214.625 129.176l8.984 1.09" stroke-width="1.2" stroke="#000" stroke-miterlimit="10" fill="none"/><path d="M223.61 130.266l8.98 1.09" stroke-width="1.2" stroke="#00f" stroke-miterlimit="10" fill="none"/><path d="M195.754 138.145h8v11h-8zm0 0" fill="#fff"/><use xlink:href="#c" x="195.754" y="146.808" fill="#f00"/><path d="M232.59 131.355l7.097 16.65" stroke-width="1.2" stroke="#00f" stroke-miterlimit="10" fill="none"/><path d="M225.59 125.855h14v11h-14zm0 0" fill="#fff"/><g fill="#00f"><use xlink:href="#b" x="225.59" y="134.519"/><use xlink:href="#d" x="232.567" y="134.519"/></g><path d="M239.688 148.004l-5.434 7.234" stroke-width="1.2" stroke="#00f" stroke-miterlimit="10" fill="none"/><path d="M234.254 155.238l-5.438 7.235M257.652 150.184l-8.98-1.09" stroke-width="1.2" stroke="#000" stroke-miterlimit="10" fill="none"/><path d="M248.672 149.094l-8.984-1.09" stroke-width="1.2" stroke="#00f" stroke-miterlimit="10" fill="none"/><path d="M236.688 142.504h7v11h-7zm0 0" fill="#fff"/><use xlink:href="#b" x="236.688" y="151.167" fill="#00f"/><path d="M228.816 162.473l7.098 16.652M235.914 179.125l17.965 2.18M253.88 181.305l10.87-14.473M264.75 166.832l-7.098-16.648" stroke-width="1.2" stroke="#000" stroke-miterlimit="10" fill="none"/><path d="M124.793 118.277l-8.984-1.09" stroke-width="1.2" stroke="#00f" stroke-miterlimit="10" fill="none"/><path d="M115.81 117.188l-8.986-1.09" stroke-width="1.2" stroke="#000" stroke-miterlimit="10" fill="none"/><path d="M121.793 112.777h7v11h-7zm0 0" fill="#fff"/><use xlink:href="#b" x="121.793" y="121.44" fill="#00f"/><path d="M106.824 116.098l-10.87 14.468M109.14 120.102l-8.695 11.578M63.68 146.586l7.625-16.414M45.652 148.19l18.028-1.604M71.305 130.172l-10.403-14.81M60.902 115.363l-9.015.8" stroke-width="1.2" stroke="#000" stroke-miterlimit="10" fill="none"/><path d="M51.887 116.164l-9.012.8M42.875 116.965l-3.813 8.207" stroke-width="1.2" stroke="#00f" stroke-miterlimit="10" fill="none"/><path d="M39.063 125.172l-3.813 8.207" stroke-width="1.2" stroke="#000" stroke-miterlimit="10" fill="none"/><path d="M29.875 107.465h26v19h-26zm0 0" fill="#fff"/><g fill="#00f"><use xlink:href="#b" x="29.875" y="119.566"/><use xlink:href="#d" x="36.853" y="119.566"/></g><use xlink:href="#e" x="43.867" y="124.449" fill="#00f"/><use xlink:href="#f" x="48.817" y="114.684" fill="#00f"/><path d="M35.25 133.38l10.402 14.81" stroke-width="1.2" stroke="#000" stroke-miterlimit="10" fill="none"/></g></svg>