<svg xmlns="http://www.w3.org/2000/svg" xmlns:xlink="http://www.w3.org/1999/xlink" width="300pt" height="300pt" viewBox="0 0 300 300"><defs><symbol overflow="visible"><path d="M.453 1.594v-7.938h4.5v7.938zm.5-.5h3.5v-6.938h-3.5zm0 0"/></symbol><symbol overflow="visible" id="a"><path d="M.89-6.563h3.766v.75h-2.89v1.938h2.61v.734h-2.61V0H.89zm0 0"/></symbol><symbol overflow="visible" id="b"><path d="M.89-6.563H2.08l2.906 5.485v-5.484h.86V0H4.656L1.75-5.484V0H.89zm0 0"/></symbol><symbol overflow="visible" id="c"><path d="M.89-6.563h.876v2.688H5v-2.688h.89V0H5v-3.125H1.766V0H.89zm0 0"/></symbol><symbol overflow="visible"><path d="M.406 1.422V-5.64h4V1.42zM.844.97h3.11v-6.157H.843zm0 0"/></symbol><symbol overflow="visible" id="d"><path d="M1.53-.672h2.767V0H.594v-.672c.29-.3.695-.71 1.22-1.234.518-.532.842-.867.967-1.016.26-.28.44-.52.533-.72.1-.194.156-.39.156-.577 0-.31-.11-.565-.33-.764-.218-.196-.5-.297-.843-.297-.25 0-.516.046-.797.14-.273.085-.563.214-.875.39v-.797c.32-.133.617-.234.89-.297.282-.062.536-.093.766-.093.603 0 1.083.152 1.44.453.362.304.546.703.546 1.203 0 .24-.047.468-.14.686-.095.22-.26.477-.485.766-.074.074-.288.293-.64.656-.344.356-.836.856-1.47 1.5zm0 0"/></symbol><symbol overflow="visible" id="e"><path d="M3.688-5.016v2.172h2.17v.672H3.69V0H3.03v-2.172H.845v-.672H3.03v-2.172zm0 0"/></symbol></defs><g><path fill="#fff" d="M0 0h300v300H0z"/><path d="M35.25 166.727l9.12-5.387" stroke-width="1.2" stroke="#3cc" stroke-miterlimit="10" fill="none"/><path d="M44.37 161.34l9.122-5.387" stroke-width="1.2" stroke="#000" stroke-miterlimit="10" fill="none"/><path d="M29.25 161.227h6v11h-6zm0 0" fill="#fff"/><use xlink:href="#a" x="29.25" y="169.89" fill="#3cc"/><path d="M53.492 155.953l-.21-21.187M58.457 153.785l-.168-16.95M71.945 166.363l-18.453-10.41M53.28 134.766l18.243-10.774M71.523 123.992l18.454 10.41M70.918 129.375l14.762 8.328M89.977 134.402l.21 21.188M89.977 134.402l18.242-10.773M90.188 155.59l-18.243 10.773M85.828 152.375l-14.594 8.617M108.22 123.63l1-10.548" stroke-width="1.2" stroke="#000" stroke-miterlimit="10" fill="none"/><path d="M109.22 113.082l1.003-10.547" stroke-width="1.2" stroke="#00f" stroke-miterlimit="10" fill="none"/><path d="M127.656 132.05l-19.437-8.42M127.695 126.637l-15.55-6.742" stroke-width="1.2" stroke="#000" stroke-miterlimit="10" fill="none"/><path d="M110.223 102.535l10.34-2.305" stroke-width="1.2" stroke="#00f" stroke-miterlimit="10" fill="none"/><path d="M120.563 100.23l10.34-2.304" stroke-width="1.2" stroke="#000" stroke-miterlimit="10" fill="none"/><path d="M113.375 106.94l8.27-1.842" stroke-width="1.2" stroke="#00f" stroke-miterlimit="10" fill="none"/><path d="M121.645 105.098l8.273-1.844" stroke-width="1.2" stroke="#000" stroke-miterlimit="10" fill="none"/><path d="M107.223 97.035h7v11h-7zm0 0" fill="#fff"/><use xlink:href="#b" x="107.223" y="105.698" fill="#00f"/><path d="M130.902 97.926l5.387 9.12" stroke-width="1.2" stroke="#000" stroke-miterlimit="10" fill="none"/><path d="M136.29 107.047l5.386 9.12M141.676 116.168l-7.008 7.94" stroke-width="1.2" stroke="#00f" stroke-miterlimit="10" fill="none"/><path d="M134.668 124.11l-7.012 7.94" stroke-width="1.2" stroke="#000" stroke-miterlimit="10" fill="none"/><path d="M141.676 116.168l10.547 1.004" stroke-width="1.2" stroke="#00f" stroke-miterlimit="10" fill="none"/><path d="M152.223 117.172l10.543 1" stroke-width="1.2" stroke="#000" stroke-miterlimit="10" fill="none"/><path d="M138.676 110.668h7v11h-7zm0 0" fill="#fff"/><use xlink:href="#b" x="138.676" y="119.331" fill="#00f"/><path d="M127.656 132.05l4.61 20.68M132.266 152.73l-7.8 7.168" stroke-width="1.2" stroke="#000" stroke-miterlimit="10" fill="none"/><path d="M124.465 159.898l-7.8 7.165" stroke-width="1.2" stroke="#00f" stroke-miterlimit="10" fill="none"/><path d="M134.078 157.836l-6.242 5.734" stroke-width="1.2" stroke="#000" stroke-miterlimit="10" fill="none"/><path d="M127.836 163.57l-6.238 5.73" stroke-width="1.2" stroke="#00f" stroke-miterlimit="10" fill="none"/><path d="M152.48 159.078l-20.214-6.348" stroke-width="1.2" stroke="#000" stroke-miterlimit="10" fill="none"/><path d="M116.664 167.063l2.305 10.34" stroke-width="1.2" stroke="#00f" stroke-miterlimit="10" fill="none"/><path d="M118.97 177.402l2.303 10.34" stroke-width="1.2" stroke="#000" stroke-miterlimit="10" fill="none"/><path d="M113.664 161.563h7v11h-7zm0 0" fill="#fff"/><use xlink:href="#b" x="113.664" y="170.226" fill="#00f"/><path d="M121.273 187.742l10.11 3.172" stroke-width="1.2" stroke="#000" stroke-miterlimit="10" fill="none"/><path d="M131.383 190.914l10.105 3.176" stroke-width="1.2" stroke="#00f" stroke-miterlimit="10" fill="none"/><path d="M124.79 183.62l8.085 2.54" stroke-width="1.2" stroke="#000" stroke-miterlimit="10" fill="none"/><path d="M132.875 186.16l8.086 2.54" stroke-width="1.2" stroke="#00f" stroke-miterlimit="10" fill="none"/><path d="M121.273 187.742l-7.8 7.164" stroke-width="1.2" stroke="#000" stroke-miterlimit="10" fill="none"/><path d="M113.473 194.906l-7.8 7.168M141.488 194.09l7.8-7.168" stroke-width="1.2" stroke="#00f" stroke-miterlimit="10" fill="none"/><path d="M149.29 186.922l7.8-7.164" stroke-width="1.2" stroke="#000" stroke-miterlimit="10" fill="none"/><path d="M138.488 188.59h7v11h-7zm0 0" fill="#fff"/><use xlink:href="#b" x="138.488" y="197.253" fill="#00f"/><path d="M157.09 179.758l-4.61-20.68M151.766 178.773l-3.692-16.543" stroke-width="1.2" stroke="#000" stroke-miterlimit="10" fill="none"/><path d="M86.672 194.074h19v16h-19zm0 0" fill="#fff"/><use xlink:href="#c" x="86.672" y="202.737" fill="#00f"/><use xlink:href="#d" x="93.687" y="207.62" fill="#00f"/><use xlink:href="#b" x="98.637" y="202.737" fill="#00f"/><path d="M162.766 118.172l8.808 19.27M175.05 100.91l-12.284 17.262M171.574 137.44l21.094 2.005M192.668 139.445l6.14-8.63" stroke-width="1.2" stroke="#000" stroke-miterlimit="10" fill="none"/><path d="M198.81 130.816l6.14-8.632M204.95 122.184l-4.407-9.633" stroke-width="1.2" stroke="#00f" stroke-miterlimit="10" fill="none"/><path d="M200.543 112.55l-4.402-9.636" stroke-width="1.2" stroke="#000" stroke-miterlimit="10" fill="none"/><path d="M204.95 122.184l10.546 1.004" stroke-width="1.2" stroke="#00f" stroke-miterlimit="10" fill="none"/><path d="M215.496 123.188l10.543 1" stroke-width="1.2" stroke="#000" stroke-miterlimit="10" fill="none"/><path d="M194.95 114.684h21v15h-21zm0 0" fill="#fff"/><g fill="#00f"><use xlink:href="#b" x="194.949" y="126.785"/><use xlink:href="#c" x="201.927" y="126.785"/></g><use xlink:href="#e" x="208.941" y="121.902" fill="#00f"/><path d="M196.14 102.914l-21.09-2.004M226.04 124.188l8.812 19.27M234.852 143.457l-12.286 17.262M237.684 148.074l-9.825 13.81M255.94 145.46l-21.088-2.003M222.566 160.72l8.81 19.268M231.375 179.988l21.094 2.004M233.957 175.227l16.875 1.6M252.47 181.992l12.28-17.262M264.75 164.73l-8.81-19.27M259.336 164.875l-7.047-15.414" stroke-width="1.2" stroke="#000" stroke-miterlimit="10" fill="none"/></g></svg>