<svg xmlns="http://www.w3.org/2000/svg" xmlns:xlink="http://www.w3.org/1999/xlink" width="300pt" height="300pt" viewBox="0 0 300 300"><defs><symbol overflow="visible"><path d="M.453 1.594v-7.938h4.5v7.938zm.5-.5h3.5v-6.938h-3.5zm0 0"/></symbol><symbol overflow="visible" id="a"><path d="M5.797-6.063v.938c-.305-.27-.625-.473-.97-.61-.335-.144-.686-.218-1.06-.218-.75 0-1.33.23-1.736.687-.397.46-.592 1.12-.592 1.985 0 .866.195 1.526.593 1.983.408.46.986.688 1.736.688.375 0 .726-.066 1.062-.203.344-.132.664-.343.97-.625V-.5c-.314.21-.642.367-.986.47-.343.1-.714.155-1.11.155-.99 0-1.772-.3-2.343-.906C.784-1.396.5-2.228.5-3.28c0-1.052.285-1.88.86-2.486.57-.613 1.35-.92 2.343-.92.395-.002.766.053 1.11.155.35.104.68.26.984.468zm0 0"/></symbol><symbol overflow="visible" id="b"><path d="M.844-6.844h.812V0H.844zm0 0"/></symbol><symbol overflow="visible" id="c"><path d="M.89-6.563H2.08l2.906 5.485v-5.484h.86V0H4.656L1.75-5.484V0H.89zm0 0"/></symbol><symbol overflow="visible" id="d"><path d="M.89-6.563h.876v2.688H5v-2.688h.89V0H5v-3.125H1.766V0H.89zm0 0"/></symbol><symbol overflow="visible" id="e"><path d="M3.547-5.953c-.65 0-1.164.242-1.547.72-.375.48-.563 1.13-.563 1.952 0 .835.188 1.49.563 1.967.383.48.898.72 1.547.72.644 0 1.156-.24 1.53-.72.376-.476.564-1.132.564-1.968 0-.822-.187-1.474-.562-1.954-.375-.477-.887-.72-1.53-.72zm0-.734c.914 0 1.648.312 2.203.937.55.617.828 1.438.828 2.47 0 1.042-.277 1.87-.828 2.483-.555.617-1.29.922-2.203.922-.93 0-1.668-.305-2.22-.922C.774-1.41.5-2.237.5-3.28c0-1.033.273-1.853.828-2.47.55-.625 1.29-.938 2.22-.938zm0 0"/></symbol><symbol overflow="visible" id="h"><path d="M.89-6.563h3.766v.75h-2.89v1.938h2.61v.734h-2.61V0H.89zm0 0"/></symbol><symbol overflow="visible"><path d="M.406 1.422V-5.64h4V1.42zM.844.97h3.11v-6.157H.843zm0 0"/></symbol><symbol overflow="visible" id="f"><path d="M1.53-.672h2.767V0H.594v-.672c.29-.3.695-.71 1.22-1.234.518-.532.842-.867.967-1.016.26-.28.44-.52.533-.72.1-.194.156-.39.156-.577 0-.31-.11-.565-.33-.764-.218-.196-.5-.297-.843-.297-.25 0-.516.046-.797.14-.273.085-.563.214-.875.39v-.797c.32-.133.617-.234.89-.297.282-.062.536-.093.766-.093.603 0 1.083.152 1.44.453.362.304.546.703.546 1.203 0 .24-.047.468-.14.686-.095.22-.26.477-.485.766-.074.074-.288.293-.64.656-.344.356-.836.856-1.47 1.5zm0 0"/></symbol><symbol overflow="visible" id="g"><path d="M3.688-5.016v2.172h2.17v.672H3.69V0H3.03v-2.172H.845v-.672H3.03v-2.172zm0 0"/></symbol></defs><g><path fill="#fff" d="M0 0h300v300H0z"/><path d="M87.012 161.137L80.91 150" stroke-width="1.2" stroke="#0c0" stroke-miterlimit="10" fill="none"/><path d="M80.91 150l-6.105-11.137" stroke-width="1.2" stroke="#000" stroke-miterlimit="10" fill="none"/><path d="M82.012 155.637h10v11h-10zm0 0" fill="#fff"/><g fill="#0c0"><use xlink:href="#a" x="82.012" y="164.3"/><use xlink:href="#b" x="88.525" y="164.3"/></g><path d="M74.805 138.863l-25.39-.566M72.398 132.832l-20.312-.453M87.992 117.156l-13.187 21.707M49.414 138.297l-12.207-22.27M37.207 116.027L50.395 94.32M43.633 116.957l10.55-17.363M50.395 94.32l25.39.567M75.785 94.887L82.38 84.03" stroke-width="1.2" stroke="#000" stroke-miterlimit="10" fill="none"/><path d="M82.38 84.03l6.59-10.85" stroke-width="1.2" stroke="#0c0" stroke-miterlimit="10" fill="none"/><path d="M75.785 94.887l12.207 22.27M71.766 99.984L81.53 117.8" stroke-width="1.2" stroke="#000" stroke-miterlimit="10" fill="none"/><path d="M83.97 67.68h10v11h-10zm0 0" fill="#fff"/><g fill="#0c0"><use xlink:href="#a" x="83.969" y="76.343"/><use xlink:href="#b" x="90.482" y="76.343"/></g><path d="M87.992 117.156l12.695.285" stroke-width="1.2" stroke="#000" stroke-miterlimit="10" fill="none"/><path d="M100.688 117.44l12.695.283M113.383 117.723l6.1 11.136" stroke-width="1.2" stroke="#00f" stroke-miterlimit="10" fill="none"/><path d="M119.484 128.86l6.102 11.136M126.566 96.016l-6.593 10.85" stroke-width="1.2" stroke="#000" stroke-miterlimit="10" fill="none"/><path d="M119.973 106.867l-6.59 10.856" stroke-width="1.2" stroke="#00f" stroke-miterlimit="10" fill="none"/><path d="M110.383 112.223h7v11h-7zm0 0" fill="#fff"/><use xlink:href="#c" x="110.383" y="120.886" fill="#00f"/><path d="M125.586 139.996l25.394.563M127.992 146.027l20.317.45M112.402 161.703l13.184-21.707M150.98 140.56l13.184-21.708M150.98 140.56l12.204 22.272M164.164 118.852l-6.1-11.133" stroke-width="1.2" stroke="#000" stroke-miterlimit="10" fill="none"/><path d="M158.063 107.72l-6.106-11.138M151.957 96.582l-12.695-.285" stroke-width="1.2" stroke="#00f" stroke-miterlimit="10" fill="none"/><path d="M139.262 96.297l-12.696-.28" stroke-width="1.2" stroke="#000" stroke-miterlimit="10" fill="none"/><path d="M144.957 91.082h14v11h-14zm0 0" fill="#fff"/><g fill="#00f"><use xlink:href="#c" x="144.957" y="99.745"/><use xlink:href="#d" x="151.935" y="99.745"/></g><path d="M129.188 94.578l-6.102-11.133" stroke-width="1.2" stroke="#000" stroke-miterlimit="10" fill="none"/><path d="M123.086 83.445L116.98 72.31" stroke-width="1.2" stroke="#f00" stroke-miterlimit="10" fill="none"/><path d="M123.945 97.453l-6.1-11.137" stroke-width="1.2" stroke="#000" stroke-miterlimit="10" fill="none"/><path d="M117.844 86.316l-6.102-11.136" stroke-width="1.2" stroke="#f00" stroke-miterlimit="10" fill="none"/><path d="M106.36 68.242h8v11h-8zm0 0" fill="#fff"/><use xlink:href="#e" x="106.359" y="76.905" fill="#f00"/><path d="M163.184 162.832L150 184.54M156.758 161.898l-10.547 17.368M163.184 162.832l25.394.566M150 184.54l-25.39-.567M124.61 183.973l-6.594 10.855" stroke-width="1.2" stroke="#000" stroke-miterlimit="10" fill="none"/><path d="M118.016 194.828l-6.594 10.852" stroke-width="1.2" stroke="#00f" stroke-miterlimit="10" fill="none"/><path d="M124.61 183.973l-12.208-22.27M128.63 178.875l-9.767-17.82" stroke-width="1.2" stroke="#000" stroke-miterlimit="10" fill="none"/><path d="M111.422 205.68l-12.695-.282" stroke-width="1.2" stroke="#00f" stroke-miterlimit="10" fill="none"/><path d="M98.727 205.398l-12.696-.285" stroke-width="1.2" stroke="#000" stroke-miterlimit="10" fill="none"/><path d="M104.422 200.18h14v11h-14zm0 0" fill="#fff"/><g fill="#00f"><use xlink:href="#c" x="104.422" y="208.843"/><use xlink:href="#d" x="111.399" y="208.843"/></g><path d="M86.03 205.113l-12.202-22.27M72.848 226.82l13.183-21.707M73.828 182.844l-25.394-.567M48.434 182.277l-6.59 10.856" stroke-width="1.2" stroke="#000" stroke-miterlimit="10" fill="none"/><path d="M41.844 193.133l-6.594 10.85M35.25 203.984l6.102 11.137" stroke-width="1.2" stroke="#00f" stroke-miterlimit="10" fill="none"/><path d="M41.352 215.12l6.105 11.138" stroke-width="1.2" stroke="#000" stroke-miterlimit="10" fill="none"/><path d="M22.25 194.484h26v19h-26zm0 0" fill="#fff"/><g fill="#00f"><use xlink:href="#c" x="22.25" y="206.586"/><use xlink:href="#d" x="29.228" y="206.586"/></g><use xlink:href="#f" x="36.242" y="211.469" fill="#00f"/><use xlink:href="#g" x="41.192" y="201.703" fill="#00f"/><path d="M47.457 226.258l25.39.562M188.578 163.398l12.203 22.27M195.04 162.754l9.76 17.816M201.762 141.69L188.578 163.4M200.78 185.668l25.392.566M226.172 186.234l13.187-21.707M222.383 180.96l10.55-17.362M239.36 164.527l12.695.282" stroke-width="1.2" stroke="#000" stroke-miterlimit="10" fill="none"/><path d="M252.055 164.81l12.695.284" stroke-width="1.2" stroke="#3cc" stroke-miterlimit="10" fill="none"/><path d="M239.36 164.527l-12.208-22.273" stroke-width="1.2" stroke="#000" stroke-miterlimit="10" fill="none"/><path d="M261.75 159.594h6v11h-6zm0 0" fill="#fff"/><use xlink:href="#h" x="261.75" y="168.257" fill="#3cc"/><path d="M227.152 142.254l-25.39-.563M224.48 148.172l-20.312-.45M201.762 141.69l-6.102-11.135" stroke-width="1.2" stroke="#000" stroke-miterlimit="10" fill="none"/><path d="M195.66 130.555l-6.105-11.137" stroke-width="1.2" stroke="#3cc" stroke-miterlimit="10" fill="none"/><path d="M183.555 113.918h6v11h-6zm0 0" fill="#fff"/><use xlink:href="#h" x="183.555" y="122.581" fill="#3cc"/></g></svg>