<svg xmlns="http://www.w3.org/2000/svg" xmlns:xlink="http://www.w3.org/1999/xlink" width="300pt" height="300pt" viewBox="0 0 300 300"><defs><symbol overflow="visible"><path d="M.453 1.594v-7.938h4.5v7.938zm.5-.5h3.5v-6.938h-3.5zm0 0"/></symbol><symbol overflow="visible" id="a"><path d="M3.547-5.953c-.65 0-1.164.242-1.547.72-.375.48-.563 1.13-.563 1.952 0 .835.188 1.49.563 1.967.383.48.898.72 1.547.72.644 0 1.156-.24 1.53-.72.376-.476.564-1.132.564-1.968 0-.822-.187-1.474-.562-1.954-.375-.477-.887-.72-1.53-.72zm0-.734c.914 0 1.648.312 2.203.937.55.617.828 1.438.828 2.47 0 1.042-.277 1.87-.828 2.483-.555.617-1.29.922-2.203.922-.93 0-1.668-.305-2.22-.922C.774-1.41.5-2.237.5-3.28c0-1.033.273-1.853.828-2.47.55-.625 1.29-.938 2.22-.938zm0 0"/></symbol><symbol overflow="visible" id="b"><path d="M.89-6.563H2.08l2.906 5.485v-5.484h.86V0H4.656L1.75-5.484V0H.89zm0 0"/></symbol><symbol overflow="visible" id="c"><path d="M.89-6.563h.876v2.688H5v-2.688h.89V0H5v-3.125H1.766V0H.89zm0 0"/></symbol><symbol overflow="visible" id="d"><path d="M4.813-6.344v.86c-.336-.157-.653-.27-.954-.344-.294-.082-.58-.125-.86-.125-.492 0-.867.094-1.125.28-.262.19-.39.454-.39.798 0 .293.085.512.265.656.176.15.504.267.984.36l.547.11c.658.125 1.142.352 1.454.672.32.312.485.734.485 1.265 0 .637-.216 1.122-.642 1.454-.43.325-1.055.485-1.875.485-.312 0-.648-.04-1-.11C1.36-.046 1-.147.625-.296v-.906c.352.2.703.35 1.047.453.35.105.695.156 1.03.156.5 0 .884-.097 1.157-.297.28-.196.42-.485.42-.86 0-.32-.1-.57-.296-.75-.2-.176-.523-.313-.968-.406l-.547-.11C1.81-3.148 1.33-3.36 1.03-3.64.74-3.923.595-4.313.595-4.813c0-.57.203-1.024.61-1.36.405-.344.968-.516 1.687-.516.313 0 .626.032.938.094.32.055.65.137.985.25zm0 0"/></symbol><symbol overflow="visible" id="e"><path d="M5.797-6.063v.938c-.305-.27-.625-.473-.97-.61-.335-.144-.686-.218-1.06-.218-.75 0-1.33.23-1.736.687-.397.46-.592 1.12-.592 1.985 0 .866.195 1.526.593 1.983.408.46.986.688 1.736.688.375 0 .726-.066 1.062-.203.344-.132.664-.343.97-.625V-.5c-.314.21-.642.367-.986.47-.343.1-.714.155-1.11.155-.99 0-1.772-.3-2.343-.906C.784-1.396.5-2.228.5-3.28c0-1.052.285-1.88.86-2.486.57-.613 1.35-.92 2.343-.92.395-.002.766.053 1.11.155.35.104.68.26.984.468zm0 0"/></symbol><symbol overflow="visible" id="f"><path d="M.844-6.844h.812V0H.844zm0 0"/></symbol><symbol overflow="visible"><path d="M.406 1.422V-5.64h4V1.42zM.844.97h3.11v-6.157H.843zm0 0"/></symbol><symbol overflow="visible" id="g"><path d="M3.688-5.016v2.172h2.17v.672H3.69V0H3.03v-2.172H.845v-.672H3.03v-2.172zm0 0"/></symbol></defs><g><path fill="#fff" d="M0 0h300v300H0z"/><path d="M195.75 157.508l-1.047-8.055" stroke-width="1.2" stroke="#000" stroke-miterlimit="10" fill="none"/><path d="M194.703 149.453l-1.043-8.055" stroke-width="1.2" stroke="#f00" stroke-miterlimit="10" fill="none"/><path d="M191.96 158l-1.046-8.055" stroke-width="1.2" stroke="#000" stroke-miterlimit="10" fill="none"/><path d="M190.914 149.945l-1.047-8.054" stroke-width="1.2" stroke="#f00" stroke-miterlimit="10" fill="none"/><path d="M193.855 157.754l-6.45 4.93" stroke-width="1.2" stroke="#000" stroke-miterlimit="10" fill="none"/><path d="M187.406 162.684l-6.453 4.933" stroke-width="1.2" stroke="#00f" stroke-miterlimit="10" fill="none"/><path d="M193.855 157.754l7.5 3.12" stroke-width="1.2" stroke="#000" stroke-miterlimit="10" fill="none"/><path d="M201.355 160.875l7.497 3.117" stroke-width="1.2" stroke="#00f" stroke-miterlimit="10" fill="none"/><path d="M187.762 136.145h8v11h-8zm0 0" fill="#fff"/><use xlink:href="#a" x="187.762" y="144.808" fill="#f00"/><path d="M180.953 167.617l.2 8.12" stroke-width="1.2" stroke="#00f" stroke-miterlimit="10" fill="none"/><path d="M181.152 175.738l.2 8.117" stroke-width="1.2" stroke="#000" stroke-miterlimit="10" fill="none"/><path d="M180.953 167.617l-7.78-2.32" stroke-width="1.2" stroke="#00f" stroke-miterlimit="10" fill="none"/><path d="M173.172 165.297l-7.785-2.32" stroke-width="1.2" stroke="#000" stroke-miterlimit="10" fill="none"/><path d="M177.953 162.117h7v11h-7zm0 0" fill="#fff"/><use xlink:href="#b" x="177.953" y="170.78" fill="#00f"/><path d="M181.352 183.855l-15.32 5.395M156.164 176.348l9.867 12.902M165.387 162.977l-9.223 13.37" stroke-width="1.2" stroke="#000" stroke-miterlimit="10" fill="none"/><path d="M156.164 176.348m-2.965-.45l.023 1.043m-2.99-1.49l.052 2.085m-3.02-2.535l.08 3.13m-3.044-3.58l.102 4.173m-3.066-4.62l.125 5.213m-1.6-5.437l.136 5.73" stroke="#000" stroke-miterlimit="10" fill="none"/><path d="M139.93 176.746l-4.235-6.934" stroke-width="1.2" stroke="#000" stroke-miterlimit="10" fill="none"/><path d="M135.695 169.813l-4.23-6.93M131.465 162.883l-8.117.2" stroke-width="1.2" stroke="#00f" stroke-miterlimit="10" fill="none"/><path d="M123.348 163.082l-8.12.195" stroke-width="1.2" stroke="#cc0" stroke-miterlimit="10" fill="none"/><path d="M124.465 157.383h14v11h-14zm0 0" fill="#fff"/><g fill="#00f"><use xlink:href="#b" x="124.465" y="166.046"/><use xlink:href="#c" x="131.442" y="166.046"/></g><path d="M113.316 163.324l.2 8.12" stroke-width="1.2" stroke="#cc0" stroke-miterlimit="10" fill="none"/><path d="M113.516 171.445l.2 8.118" stroke-width="1.2" stroke="#f00" stroke-miterlimit="10" fill="none"/><path d="M117.137 163.23l.2 8.122" stroke-width="1.2" stroke="#cc0" stroke-miterlimit="10" fill="none"/><path d="M117.336 171.352l.2 8.117" stroke-width="1.2" stroke="#f00" stroke-miterlimit="10" fill="none"/><path d="M117.137 163.23l-.2-8.117" stroke-width="1.2" stroke="#cc0" stroke-miterlimit="10" fill="none"/><path d="M116.938 155.113l-.196-8.117" stroke-width="1.2" stroke="#f00" stroke-miterlimit="10" fill="none"/><path d="M113.316 163.324l-.2-8.117" stroke-width="1.2" stroke="#cc0" stroke-miterlimit="10" fill="none"/><path d="M113.117 155.207l-.195-8.117" stroke-width="1.2" stroke="#f00" stroke-miterlimit="10" fill="none"/><path d="M115.227 163.277l-8.118.2" stroke-width="1.2" stroke="#cc0" stroke-miterlimit="10" fill="none"/><path d="M107.11 163.477l-8.118.2" stroke-width="1.2" stroke="#000" stroke-miterlimit="10" fill="none"/><path d="M112.227 157.777h6v11h-6zm0 0" fill="#fff"/><use xlink:href="#d" x="112.227" y="166.44" fill="#cc0"/><path d="M111.625 174.016h8v11h-8zm0 0" fill="#fff"/><use xlink:href="#a" x="111.625" y="182.679" fill="#f00"/><path d="M110.832 141.543h8v11h-8zm0 0" fill="#fff"/><use xlink:href="#a" x="110.832" y="150.206" fill="#f00"/><path d="M98.992 163.676l-9.222 13.37M94.922 162.844l-7.38 10.695" stroke-width="1.2" stroke="#000" stroke-miterlimit="10" fill="none"/><path d="M89.125 150.773l4.934 6.454" stroke-width="1.2" stroke="#cc0" stroke-miterlimit="10" fill="none"/><path d="M94.06 157.227l4.932 6.45M89.77 177.047l-15.567-4.64M74.203 172.406l-.398-16.238M77.984 170.688l-.32-12.99M73.805 156.168l-13.37-9.223M73.805 156.168l7.66-2.695" stroke-width="1.2" stroke="#000" stroke-miterlimit="10" fill="none"/><path d="M81.465 153.473l7.66-2.7" stroke-width="1.2" stroke="#cc0" stroke-miterlimit="10" fill="none"/><path d="M60.434 146.945l-15.317 5.4M57.633 143.883L45.38 148.2" stroke-width="1.2" stroke="#000" stroke-miterlimit="10" fill="none"/><path d="M60.04 130.71l.198 8.118" stroke-width="1.2" stroke="#cc0" stroke-miterlimit="10" fill="none"/><path d="M60.238 138.828l.196 8.117M45.117 152.344l-9.867-12.906M35.25 139.438l9.223-13.368M39.316 140.273l7.38-10.695M44.473 126.07l-2.7-7.66" stroke-width="1.2" stroke="#000" stroke-miterlimit="10" fill="none"/><path d="M41.773 118.41l-2.695-7.66" stroke-width="1.2" stroke="#0c0" stroke-miterlimit="10" fill="none"/><path d="M44.473 126.07l7.78 2.32" stroke-width="1.2" stroke="#000" stroke-miterlimit="10" fill="none"/><path d="M52.254 128.39l7.785 2.32" stroke-width="1.2" stroke="#cc0" stroke-miterlimit="10" fill="none"/><path d="M29.078 105.25h10v11h-10zm0 0" fill="#fff"/><g fill="#0c0"><use xlink:href="#e" x="29.078" y="113.913"/><use xlink:href="#f" x="35.592" y="113.913"/></g><path d="M57.04 125.21h6v11h-6zm0 0" fill="#fff"/><use xlink:href="#d" x="57.039" y="133.874" fill="#cc0"/><path d="M86.125 145.273h6v11h-6zm0 0" fill="#fff"/><use xlink:href="#d" x="86.125" y="153.937" fill="#cc0"/><path d="M208.852 163.992l6.93-4.23" stroke-width="1.2" stroke="#00f" stroke-miterlimit="10" fill="none"/><path d="M215.78 159.762l6.935-4.23M212.617 179.793l-1.883-7.898" stroke-width="1.2" stroke="#000" stroke-miterlimit="10" fill="none"/><path d="M210.734 171.895l-1.882-7.903" stroke-width="1.2" stroke="#00f" stroke-miterlimit="10" fill="none"/><path d="M205.852 158.492h7v11h-7zm0 0" fill="#fff"/><use xlink:href="#b" x="205.852" y="167.155" fill="#00f"/><path d="M222.715 155.53m.758-2.9l-1.043-.087m1.797-2.816l-2.08-.168m2.837-2.74l-3.117-.25m3.875-2.652l-4.16-.332m4.914-2.57l-5.195-.418m5.575-1.028l-5.715-.46" stroke="#000" stroke-miterlimit="10" fill="none"/><path d="M222.715 155.53l12.332 10.572M224.016 139.34l7.336-3.48" stroke-width="1.2" stroke="#000" stroke-miterlimit="10" fill="none"/><path d="M231.352 135.86l7.335-3.485M238.688 132.375l1.496-7.984" stroke-width="1.2" stroke="#00f" stroke-miterlimit="10" fill="none"/><path d="M240.184 124.39l1.492-7.98M252.95 140.148l-7.13-3.886" stroke-width="1.2" stroke="#000" stroke-miterlimit="10" fill="none"/><path d="M245.82 136.262l-7.132-3.887" stroke-width="1.2" stroke="#00f" stroke-miterlimit="10" fill="none"/><path d="M228.688 124.875h21v15h-21zm0 0" fill="#fff"/><g fill="#00f"><use xlink:href="#b" x="228.688" y="136.977"/><use xlink:href="#c" x="235.665" y="136.977"/></g><use xlink:href="#g" x="242.68" y="132.094" fill="#00f"/><path d="M241.676 116.41l16.105-2.094M257.78 114.316l6.97 14.672M264.75 128.988l-11.8 11.16M235.047 166.102l-6.242 14.996M228.805 181.098l-16.188-1.305" stroke-width="1.2" stroke="#000" stroke-miterlimit="10" fill="none"/></g></svg>