<svg xmlns="http://www.w3.org/2000/svg" xmlns:xlink="http://www.w3.org/1999/xlink" width="300pt" height="300pt" viewBox="0 0 300 300"><defs><symbol overflow="visible"><path d="M.547 1.938V-7.75h5.5v9.688zm.625-.61h4.266v-8.47H1.171zm0 0"/></symbol><symbol overflow="visible" id="a"><path d="M7.078-7.406v1.156c-.367-.344-.758-.598-1.172-.766-.406-.164-.843-.25-1.312-.25-.918 0-1.62.282-2.11.844-.48.555-.718 1.36-.718 2.422 0 1.055.238 1.86.718 2.422.49.562 1.192.844 2.11.844.468 0 .906-.082 1.312-.25.414-.164.805-.422 1.172-.766v1.125c-.375.262-.777.46-1.203.594-.418.124-.867.186-1.344.186-1.21 0-2.163-.367-2.858-1.11C.972-1.703.625-2.718.625-4c0-1.29.348-2.305 1.047-3.047.695-.75 1.648-1.125 2.86-1.125.476 0 .93.07 1.36.203.424.126.82.314 1.186.564zm0 0"/></symbol><symbol overflow="visible" id="b"><path d="M1.03-8.36h1V0h-1zm0 0"/></symbol><symbol overflow="visible" id="c"><path d="M1.078-8.016h4.61v.907H2.171v2.36h3.172v.922H2.172V0H1.078zm0 0"/></symbol><symbol overflow="visible" id="d"><path d="M1.078-8.016h1.47l3.546 6.704v-6.704h1.062V0H5.688L2.124-6.703V0H1.078zm0 0"/></symbol><symbol overflow="visible" id="e"><path d="M4.328-7.28c-.78 0-1.406.296-1.875.89-.46.585-.687 1.382-.687 2.39 0 1.012.226 1.813.687 2.406.47.586 1.094.875 1.875.875.79 0 1.414-.288 1.875-.874.457-.593.688-1.394.688-2.406 0-1.008-.23-1.805-.687-2.39-.46-.594-1.086-.89-1.875-.89zm0-.892c1.125 0 2.024.383 2.703 1.14C7.708-6.28 8.048-5.27 8.048-4c0 1.262-.34 2.273-1.016 3.03C6.353-.22 5.454.157 4.33.157S2.3-.22 1.625-.97c-.668-.75-1-1.757-1-3.03 0-1.27.332-2.28 1-3.03.676-.76 1.578-1.142 2.703-1.142zm0 0"/></symbol><symbol overflow="visible" id="f"><path d="M1.078-8.016h1.094v3.282H6.11v-3.282h1.077V0H6.11v-3.813H2.17V0H1.078zm0 0"/></symbol><symbol overflow="visible"><path d="M.453 1.594v-7.938h4.5v7.938zm.5-.5h3.5v-6.938h-3.5zm0 0"/></symbol><symbol overflow="visible" id="g"><path d="M4.14-5.64v2.452h2.454v.735H4.14V0h-.734v-2.453H.953v-.735h2.453V-5.64zm0 0"/></symbol><symbol overflow="visible" id="h"><path d="M1.734-.75h3.094V0H.656v-.75c.344-.344.8-.805 1.375-1.39.583-.594.954-.973 1.11-1.14.282-.322.473-.595.58-.814.112-.226.17-.445.17-.656 0-.352-.12-.64-.36-.86-.24-.218-.557-.327-.952-.327-.28 0-.578.054-.89.156-.305.093-.633.24-.985.436v-.906c.352-.133.688-.238 1-.313.313-.082.598-.125.86-.125.675 0 1.218.172 1.624.516.407.344.61.797.61 1.36 0 .273-.055.53-.156.78-.105.243-.288.524-.546.845-.074.085-.31.328-.703.734-.398.406-.95.976-1.656 1.703zm0 0"/></symbol></defs><g><path fill="#fff" d="M0 0h300v300H0z"/><path d="M66.176 145.535l2.88-13.914" stroke-width="1.2" stroke="#0c0" stroke-miterlimit="10" fill="none"/><path d="M69.055 131.62l2.882-13.913" stroke-width="1.2" stroke="#000" stroke-miterlimit="10" fill="none"/><path d="M61.176 139.035h11v13h-11zm0 0" fill="#fff"/><g fill="#0c0"><use xlink:href="#a" x="61.176" y="148.937"/><use xlink:href="#b" x="68.627" y="148.937"/></g><path d="M71.938 117.707L50.715 98.805M74.262 110.82L57.285 95.7M98.918 108.777l-26.98 8.93M50.715 98.805l5.758-27.832M56.473 70.973l-10.614-9.45" stroke-width="1.2" stroke="#000" stroke-miterlimit="10" fill="none"/><path d="M45.86 61.523L35.25 52.07" stroke-width="1.2" stroke="#3cc" stroke-miterlimit="10" fill="none"/><path d="M56.473 70.973l26.98-8.926M61.27 76.43l21.585-7.145" stroke-width="1.2" stroke="#000" stroke-miterlimit="10" fill="none"/><path d="M28.25 45.57h7v13h-7zm0 0" fill="#fff"/><use xlink:href="#c" x="28.25" y="55.472" fill="#3cc"/><path d="M83.453 62.047l21.223 18.902M104.676 80.95l-5.758 27.827M97.55 82.375l-4.605 22.266M98.918 108.777l21.223 18.903M120.14 127.68l-5.76 27.832M126.113 131.82l-4.61 22.262M147.12 118.754l-26.98 8.926M114.38 155.512l21.222 18.902M135.602 174.414l26.98-8.93M136.2 167.172l21.585-7.14M135.602 174.414l-5.758 27.828M162.582 165.484l5.762-27.828M168.344 137.656l13.488-4.465" stroke-width="1.2" stroke="#000" stroke-miterlimit="10" fill="none"/><path d="M181.832 133.19l13.492-4.463" stroke-width="1.2" stroke="#00f" stroke-miterlimit="10" fill="none"/><path d="M147.12 118.754l21.224 18.902M144.797 125.637l16.976 15.12" stroke-width="1.2" stroke="#000" stroke-miterlimit="10" fill="none"/><path d="M195.324 128.727l10.61 9.453" stroke-width="1.2" stroke="#00f" stroke-miterlimit="10" fill="none"/><path d="M205.934 138.18l10.613 9.45" stroke-width="1.2" stroke="#000" stroke-miterlimit="10" fill="none"/><path d="M195.324 128.727l2.88-13.915" stroke-width="1.2" stroke="#00f" stroke-miterlimit="10" fill="none"/><path d="M198.203 114.813l2.88-13.915" stroke-width="1.2" stroke="#000" stroke-miterlimit="10" fill="none"/><path d="M191.324 122.227h8v13h-8zm0 0" fill="#fff"/><use xlink:href="#d" x="191.324" y="132.128" fill="#00f"/><path d="M216.547 147.63l-5.758 27.83M222.52 151.77l-4.61 22.26M243.527 138.703l-26.98 8.926M210.79 175.46l-13.493 4.466" stroke-width="1.2" stroke="#000" stroke-miterlimit="10" fill="none"/><path d="M197.297 179.926l-13.492 4.46" stroke-width="1.2" stroke="#0c0" stroke-miterlimit="10" fill="none"/><path d="M210.79 175.46l21.218 18.903" stroke-width="1.2" stroke="#000" stroke-miterlimit="10" fill="none"/><path d="M172.805 177.887h11v13h-11zm0 0" fill="#fff"/><g fill="#0c0"><use xlink:href="#a" x="172.805" y="187.788"/><use xlink:href="#b" x="180.256" y="187.788"/></g><path d="M232.008 194.363l26.984-8.93M232.605 187.12l21.586-7.14M258.992 185.434l5.758-27.83M264.75 157.605l-21.223-18.902M258.18 160.707l-16.977-15.12M243.527 138.703l2.88-13.914" stroke-width="1.2" stroke="#000" stroke-miterlimit="10" fill="none"/><path d="M246.406 124.79l2.88-13.92" stroke-width="1.2" stroke="#0c0" stroke-miterlimit="10" fill="none"/><path d="M244.285 104.37h11v13h-11zm0 0" fill="#fff"/><g fill="#0c0"><use xlink:href="#a" x="244.285" y="114.272"/><use xlink:href="#b" x="251.736" y="114.272"/></g><path d="M202.133 104.07l13.492-4.46" stroke-width="1.2" stroke="#000" stroke-miterlimit="10" fill="none"/><path d="M215.625 99.61l13.488-4.465" stroke-width="1.2" stroke="#f00" stroke-miterlimit="10" fill="none"/><path d="M200.03 97.723l13.493-4.465" stroke-width="1.2" stroke="#000" stroke-miterlimit="10" fill="none"/><path d="M213.523 93.258l13.493-4.46" stroke-width="1.2" stroke="#f00" stroke-miterlimit="10" fill="none"/><path d="M201.082 100.898l-10.61-9.453" stroke-width="1.2" stroke="#000" stroke-miterlimit="10" fill="none"/><path d="M190.473 91.445l-10.614-9.45" stroke-width="1.2" stroke="#00f" stroke-miterlimit="10" fill="none"/><path d="M224.063 85.47h9v13h-9zm0 0" fill="#fff"/><use xlink:href="#e" x="224.063" y="95.37" fill="#f00"/><path d="M179.86 81.996l-13.49 4.46" stroke-width="1.2" stroke="#00f" stroke-miterlimit="10" fill="none"/><path d="M166.37 86.457l-13.49 4.465" stroke-width="1.2" stroke="#000" stroke-miterlimit="10" fill="none"/><path d="M171.86 75.496h17v13h-17zm0 0" fill="#fff"/><g fill="#00f"><use xlink:href="#d" x="171.859" y="85.397"/><use xlink:href="#f" x="179.843" y="85.397"/></g><path d="M152.88 90.922l-5.76 27.832M129.844 202.242l-13.492 4.465" stroke-width="1.2" stroke="#000" stroke-miterlimit="10" fill="none"/><path d="M116.352 206.707l-13.49 4.465M102.863 211.172L92.25 201.72" stroke-width="1.2" stroke="#00f" stroke-miterlimit="10" fill="none"/><path d="M92.25 201.72l-10.61-9.45M97.102 239.004l2.882-13.918" stroke-width="1.2" stroke="#000" stroke-miterlimit="10" fill="none"/><path d="M99.984 225.086l2.88-13.914" stroke-width="1.2" stroke="#00f" stroke-miterlimit="10" fill="none"/><path d="M90.863 203.172h24v16h-24zm0 0" fill="#fff"/><g fill="#00f"><use xlink:href="#d" x="90.863" y="216.305"/><use xlink:href="#f" x="98.847" y="216.305"/></g><use xlink:href="#g" x="106.871" y="211.422" fill="#00f"/><path d="M81.64 192.27l-26.98 8.925M54.66 201.195l-2.883 13.918" stroke-width="1.2" stroke="#000" stroke-miterlimit="10" fill="none"/><path d="M51.777 215.113l-2.88 13.914M48.898 229.027l10.614 9.45" stroke-width="1.2" stroke="#00f" stroke-miterlimit="10" fill="none"/><path d="M59.512 238.477l10.61 9.453" stroke-width="1.2" stroke="#000" stroke-miterlimit="10" fill="none"/><path d="M33.898 218.527h30v21h-30zm0 0" fill="#fff"/><g fill="#00f"><use xlink:href="#d" x="33.898" y="231.66"/><use xlink:href="#f" x="41.882" y="231.66"/></g><use xlink:href="#h" x="49.906" y="236.543" fill="#00f"/><use xlink:href="#g" x="55.563" y="226.777" fill="#00f"/><path d="M70.12 247.93l26.982-8.926" stroke-width="1.2" stroke="#000" stroke-miterlimit="10" fill="none"/></g></svg>