<svg xmlns="http://www.w3.org/2000/svg" xmlns:xlink="http://www.w3.org/1999/xlink" width="300pt" height="300pt" viewBox="0 0 300 300"><defs><symbol overflow="visible"><path d="M.453 1.594v-7.938h4.5v7.938zm.5-.5h3.5v-6.938h-3.5zm0 0"/></symbol><symbol overflow="visible" id="a"><path d="M5.797-6.063v.938c-.305-.27-.625-.473-.97-.61-.335-.144-.686-.218-1.06-.218-.75 0-1.33.23-1.736.687-.397.46-.592 1.12-.592 1.985 0 .866.195 1.526.593 1.983.408.46.986.688 1.736.688.375 0 .726-.066 1.062-.203.344-.132.664-.343.97-.625V-.5c-.314.21-.642.367-.986.47-.343.1-.714.155-1.11.155-.99 0-1.772-.3-2.343-.906C.784-1.396.5-2.228.5-3.28c0-1.052.285-1.88.86-2.486.57-.613 1.35-.92 2.343-.92.395-.002.766.053 1.11.155.35.104.68.26.984.468zm0 0"/></symbol><symbol overflow="visible" id="b"><path d="M.844-6.844h.812V0H.844zm0 0"/></symbol><symbol overflow="visible" id="c"><path d="M.89-6.563H2.08l2.906 5.485v-5.484h.86V0H4.656L1.75-5.484V0H.89zm0 0"/></symbol><symbol overflow="visible" id="d"><path d="M.89-6.563h.876v2.688H5v-2.688h.89V0H5v-3.125H1.766V0H.89zm0 0"/></symbol><symbol overflow="visible" id="e"><path d="M3.547-5.953c-.65 0-1.164.242-1.547.72-.375.48-.563 1.13-.563 1.952 0 .835.188 1.49.563 1.967.383.48.898.72 1.547.72.644 0 1.156-.24 1.53-.72.376-.476.564-1.132.564-1.968 0-.822-.187-1.474-.562-1.954-.375-.477-.887-.72-1.53-.72zm0-.734c.914 0 1.648.312 2.203.937.55.617.828 1.438.828 2.47 0 1.042-.277 1.87-.828 2.483-.555.617-1.29.922-2.203.922-.93 0-1.668-.305-2.22-.922C.774-1.41.5-2.237.5-3.28c0-1.033.273-1.853.828-2.47.55-.625 1.29-.938 2.22-.938zm0 0"/></symbol><symbol overflow="visible" id="f"><path d="M.89-6.563h3.766v.75h-2.89v1.938h2.61v.734h-2.61V0H.89zm0 0"/></symbol></defs><g><path fill="#fff" d="M0 0h300v300H0z"/><path d="M212.793 139.297l7.44 8.516" stroke-width="1.2" stroke="#0c0" stroke-miterlimit="10" fill="none"/><path d="M220.234 147.813l7.442 8.52" stroke-width="1.2" stroke="#000" stroke-miterlimit="10" fill="none"/><path d="M202.793 133.797h10v11h-10zm0 0" fill="#fff"/><g fill="#0c0"><use xlink:href="#a" x="202.793" y="142.46"/><use xlink:href="#b" x="209.307" y="142.46"/></g><path d="M227.676 156.332l22.19-4.37M230.922 161.117l17.754-3.5M220.363 177.738l7.313-21.406M249.867 151.96l14.883 17.032M264.75 168.992l-7.31 21.406M258.98 169.414l-5.847 17.125M257.44 190.398l-22.194 4.372M235.246 194.77l-3.656 10.703" stroke-width="1.2" stroke="#000" stroke-miterlimit="10" fill="none"/><path d="M231.59 205.473l-3.653 10.703" stroke-width="1.2" stroke="#0c0" stroke-miterlimit="10" fill="none"/><path d="M235.246 194.77l-14.883-17.032M237.766 189.566l-11.907-13.63" stroke-width="1.2" stroke="#000" stroke-miterlimit="10" fill="none"/><path d="M217.938 210.676h10v11h-10zm0 0" fill="#fff"/><g fill="#0c0"><use xlink:href="#a" x="217.938" y="219.339"/><use xlink:href="#b" x="224.451" y="219.339"/></g><path d="M220.363 177.738l-11.093 2.184" stroke-width="1.2" stroke="#000" stroke-miterlimit="10" fill="none"/><path d="M209.27 179.922l-11.098 2.187M198.172 182.11l-7.442-8.52" stroke-width="1.2" stroke="#00f" stroke-miterlimit="10" fill="none"/><path d="M190.73 173.59l-7.44-8.516M190.86 203.512l3.656-10.7" stroke-width="1.2" stroke="#000" stroke-miterlimit="10" fill="none"/><path d="M194.516 192.813l3.656-10.704" stroke-width="1.2" stroke="#00f" stroke-miterlimit="10" fill="none"/><path d="M195.172 176.61h7v11h-7zm0 0" fill="#fff"/><use xlink:href="#c" x="195.172" y="185.272" fill="#00f"/><path d="M183.29 165.074l-22.192 4.37M180.043 160.29l-17.758 3.495M190.598 143.668l-7.31 21.406M161.098 169.445l-7.313 21.407M161.098 169.445l-14.883-17.03M153.785 190.852l7.442 8.515" stroke-width="1.2" stroke="#000" stroke-miterlimit="10" fill="none"/><path d="M161.227 199.367l7.44 8.52M168.668 207.887l11.098-2.188" stroke-width="1.2" stroke="#00f" stroke-miterlimit="10" fill="none"/><path d="M179.766 205.7l11.093-2.188" stroke-width="1.2" stroke="#000" stroke-miterlimit="10" fill="none"/><path d="M161.668 202.387h14v11h-14zm0 0" fill="#fff"/><g fill="#00f"><use xlink:href="#c" x="161.668" y="211.05"/><use xlink:href="#d" x="168.646" y="211.05"/></g><path d="M188.855 205.266l7.442 8.515" stroke-width="1.2" stroke="#000" stroke-miterlimit="10" fill="none"/><path d="M196.297 213.78l7.44 8.517" stroke-width="1.2" stroke="#f00" stroke-miterlimit="10" fill="none"/><path d="M192.863 201.762l7.442 8.52" stroke-width="1.2" stroke="#000" stroke-miterlimit="10" fill="none"/><path d="M200.305 210.28l7.44 8.517" stroke-width="1.2" stroke="#f00" stroke-miterlimit="10" fill="none"/><path d="M201.742 215.047h8v11h-8zm0 0" fill="#fff"/><use xlink:href="#e" x="201.742" y="223.71" fill="#f00"/><path d="M146.215 152.414l7.308-21.406M151.98 151.992l5.848-17.125M146.215 152.414l-22.195 4.37M153.523 131.008l22.196-4.37M175.72 126.637l14.878 17.03M173.2 131.84l11.902 13.63M175.72 126.637l7.307-21.407M183.027 105.23l11.098-2.187" stroke-width="1.2" stroke="#000" stroke-miterlimit="10" fill="none"/><path d="M194.125 103.043l11.094-2.184" stroke-width="1.2" stroke="#f00" stroke-miterlimit="10" fill="none"/><path d="M185.03 103.48l-7.44-8.52" stroke-width="1.2" stroke="#000" stroke-miterlimit="10" fill="none"/><path d="M177.59 94.96l-7.442-8.515" stroke-width="1.2" stroke="#f00" stroke-miterlimit="10" fill="none"/><path d="M181.023 106.98l-7.44-8.515" stroke-width="1.2" stroke="#000" stroke-miterlimit="10" fill="none"/><path d="M173.582 98.465l-7.44-8.52M205.22 100.86l3.655-10.704" stroke-width="1.2" stroke="#f00" stroke-miterlimit="10" fill="none"/><path d="M208.875 90.156l3.656-10.703" stroke-width="1.2" stroke="#000" stroke-miterlimit="10" fill="none"/><path d="M201.22 95.36h8v11h-8zm0 0" fill="#fff"/><use xlink:href="#e" x="201.219" y="104.022" fill="#f00"/><path d="M160.145 82.695h8v11h-8zm0 0" fill="#fff"/><use xlink:href="#e" x="160.145" y="91.358" fill="#f00"/><path d="M124.02 156.785l-14.88-17.035M118.523 158.582l-11.906-13.625M116.71 178.19l7.31-21.405M109.14 139.75l-22.195 4.37M86.945 144.12l-7.308 21.407M91.25 147.984l-5.848 17.12M79.637 165.527l14.883 17.036M79.637 165.527l-22.196 4.37M94.52 182.563l22.19-4.372M95.707 176.902l17.754-3.496M57.44 169.898l-11.092 2.188" stroke-width="1.2" stroke="#000" stroke-miterlimit="10" fill="none"/><path d="M46.348 172.086L35.25 174.27" stroke-width="1.2" stroke="#3cc" stroke-miterlimit="10" fill="none"/><path d="M57.44 169.898l-2.182-11.093" stroke-width="1.2" stroke="#000" stroke-miterlimit="10" fill="none"/><path d="M55.258 158.805l-2.188-11.098" stroke-width="1.2" stroke="#3cc" stroke-miterlimit="10" fill="none"/><path d="M57.44 169.898l2.19 11.098" stroke-width="1.2" stroke="#000" stroke-miterlimit="10" fill="none"/><path d="M59.63 180.996l2.186 11.098" stroke-width="1.2" stroke="#3cc" stroke-miterlimit="10" fill="none"/><path d="M29.25 168.77h6v11h-6zm0 0" fill="#fff"/><use xlink:href="#f" x="29.25" y="177.433" fill="#3cc"/><path d="M50.07 142.207h6v11h-6zm0 0" fill="#fff"/><use xlink:href="#f" x="50.07" y="150.87" fill="#3cc"/><path d="M58.816 186.594h6v11h-6zm0 0" fill="#fff"/><use xlink:href="#f" x="58.816" y="195.257" fill="#3cc"/></g></svg>