<svg xmlns="http://www.w3.org/2000/svg" xmlns:xlink="http://www.w3.org/1999/xlink" width="300pt" height="300pt" viewBox="0 0 300 300"><defs><symbol overflow="visible"><path d="M.594 2.125V-8.47h6V2.126zm.672-.672h4.671V-7.78h-4.67zm0 0"/></symbol><symbol overflow="visible" id="a"><path d="M1.172-8.75h1.594l3.89 7.313V-8.75h1.14V0H6.204L2.328-7.313V0H1.172zm0 0"/></symbol><symbol overflow="visible" id="b"><path d="M1.172-8.75H2.36v3.594h4.296V-8.75h1.188V0H6.656v-4.172H2.36V0H1.17zm0 0"/></symbol></defs><g><path fill="#fff" d="M0 0h300v300H0z"/><path d="M155.63 87.012l-26.286 13.363" stroke-width="1.2" stroke="#00f" stroke-miterlimit="10" fill="none"/><path d="M176.46 107.88l-10.413-10.435" stroke-width="1.2" stroke="#000" stroke-miterlimit="10" fill="none"/><path d="M166.047 97.445L155.63 87.012" stroke-width="1.2" stroke="#00f" stroke-miterlimit="10" fill="none"/><path d="M146.63 80.012h18v14h-18zm0 0" fill="#fff"/><g fill="#00f"><use xlink:href="#a" x="146.629" y="91.15"/><use xlink:href="#b" x="155.605" y="91.15"/></g><path d="M129.344 100.375l2.297 14.563" stroke-width="1.2" stroke="#00f" stroke-miterlimit="10" fill="none"/><path d="M131.64 114.938l2.294 14.566" stroke-width="1.2" stroke="#000" stroke-miterlimit="10" fill="none"/><path d="M136.656 102.207l1.836 11.652" stroke-width="1.2" stroke="#00f" stroke-miterlimit="10" fill="none"/><path d="M138.492 113.86l1.836 11.652" stroke-width="1.2" stroke="#000" stroke-miterlimit="10" fill="none"/><path d="M125.344 93.375h9v14h-9zm0 0" fill="#fff"/><use xlink:href="#a" x="125.344" y="104.514" fill="#00f"/><path d="M133.934 129.504l29.12 4.637M133.934 129.504l-20.868 20.832M163.055 134.14l13.363 26.282M163.055 134.14l13.406-26.26M158.215 128.36l10.726-21.012M176.418 160.422l29.445 1.566M178.992 167.508l23.555 1.254M160.336 185.137l16.082-24.715M205.863 161.988l13.364 26.285M221.94 137.273l-16.077 24.715M219.227 188.273l-8.04 12.36" stroke-width="1.2" stroke="#000" stroke-miterlimit="10" fill="none"/><path d="M211.188 200.633l-8.043 12.355" stroke-width="1.2" stroke="#00f" stroke-miterlimit="10" fill="none"/><path d="M211.8 186.96l-6.43 9.888" stroke-width="1.2" stroke="#000" stroke-miterlimit="10" fill="none"/><path d="M205.37 196.848l-6.433 9.886" stroke-width="1.2" stroke="#00f" stroke-miterlimit="10" fill="none"/><path d="M219.227 188.273l29.445 1.567" stroke-width="1.2" stroke="#000" stroke-miterlimit="10" fill="none"/><path d="M203.145 212.988l-14.72-.78" stroke-width="1.2" stroke="#00f" stroke-miterlimit="10" fill="none"/><path d="M188.426 212.207l-14.723-.785" stroke-width="1.2" stroke="#000" stroke-miterlimit="10" fill="none"/><path d="M199.145 205.988h9v14h-9zm0 0" fill="#fff"/><use xlink:href="#a" x="199.145" y="217.127" fill="#00f"/><path d="M173.703 211.422l-13.367-26.285M178.55 205.648l-10.69-21.027M248.672 189.84l16.078-24.715M244.46 183.586l12.868-19.774M264.75 165.125l-13.363-26.28M251.387 138.844l-29.446-1.57M248.074 145.613l-23.558-1.254M176.46 107.88l29.13-4.59M113.066 150.336l-14.238-3.828" stroke-width="1.2" stroke="#000" stroke-miterlimit="10" fill="none"/><path d="M98.828 146.508l-14.234-3.828" stroke-width="1.2" stroke="#00f" stroke-miterlimit="10" fill="none"/><path d="M108.418 156.27l-11.39-3.063" stroke-width="1.2" stroke="#000" stroke-miterlimit="10" fill="none"/><path d="M97.027 153.207l-11.39-3.062" stroke-width="1.2" stroke="#00f" stroke-miterlimit="10" fill="none"/><path d="M120.676 178.82l-7.61-28.484" stroke-width="1.2" stroke="#000" stroke-miterlimit="10" fill="none"/><path d="M84.594 142.68L74.16 153.094" stroke-width="1.2" stroke="#00f" stroke-miterlimit="10" fill="none"/><path d="M74.16 153.094l-10.433 10.418" stroke-width="1.2" stroke="#000" stroke-miterlimit="10" fill="none"/><path d="M80.594 135.68h9v14h-9zm0 0" fill="#fff"/><use xlink:href="#a" x="80.594" y="146.818" fill="#00f"/><path d="M63.727 163.512L71.332 192M71.188 164.57l6.085 22.79M63.727 163.512l-28.477-7.657M71.332 192l28.477 7.656M99.81 199.656l20.866-20.836M96.992 192.66l16.695-16.664" stroke-width="1.2" stroke="#000" stroke-miterlimit="10" fill="none"/></g></svg>