<svg xmlns="http://www.w3.org/2000/svg" xmlns:xlink="http://www.w3.org/1999/xlink" width="300pt" height="300pt" viewBox="0 0 300 300"><defs><symbol overflow="visible"><path d="M.453 1.594v-7.938h4.5v7.938zm.5-.5h3.5v-6.938h-3.5zm0 0"/></symbol><symbol overflow="visible" id="a"><path d="M3.547-5.953c-.65 0-1.164.242-1.547.72-.375.48-.563 1.13-.563 1.952 0 .835.188 1.49.563 1.967.383.48.898.72 1.547.72.644 0 1.156-.24 1.53-.72.376-.476.564-1.132.564-1.968 0-.822-.187-1.474-.562-1.954-.375-.477-.887-.72-1.53-.72zm0-.734c.914 0 1.648.312 2.203.937.55.617.828 1.438.828 2.47 0 1.042-.277 1.87-.828 2.483-.555.617-1.29.922-2.203.922-.93 0-1.668-.305-2.22-.922C.774-1.41.5-2.237.5-3.28c0-1.033.273-1.853.828-2.47.55-.625 1.29-.938 2.22-.938zm0 0"/></symbol><symbol overflow="visible" id="b"><path d="M.89-6.563H2.08l2.906 5.485v-5.484h.86V0H4.656L1.75-5.484V0H.89zm0 0"/></symbol><symbol overflow="visible" id="c"><path d="M.89-6.563h.876v2.688H5v-2.688h.89V0H5v-3.125H1.766V0H.89zm0 0"/></symbol><symbol overflow="visible" id="d"><path d="M5.797-6.063v.938c-.305-.27-.625-.473-.97-.61-.335-.144-.686-.218-1.06-.218-.75 0-1.33.23-1.736.687-.397.46-.592 1.12-.592 1.985 0 .866.195 1.526.593 1.983.408.46.986.688 1.736.688.375 0 .726-.066 1.062-.203.344-.132.664-.343.97-.625V-.5c-.314.21-.642.367-.986.47-.343.1-.714.155-1.11.155-.99 0-1.772-.3-2.343-.906C.784-1.396.5-2.228.5-3.28c0-1.052.285-1.88.86-2.486.57-.613 1.35-.92 2.343-.92.395-.002.766.053 1.11.155.35.104.68.26.984.468zm0 0"/></symbol><symbol overflow="visible" id="e"><path d="M.844-6.844h.812V0H.844zm0 0"/></symbol></defs><g><path fill="#fff" d="M0 0h300v300H0z"/><path d="M209.445 120.465l-19.843-13.684M204.242 123.77l-15.88-10.95M207.52 144.496l1.925-24.03M189.602 106.78l-21.778 10.35M167.824 117.13l-19.847-13.685M167.824 117.13l-1.926 24.03M173.285 119.984l-1.54 19.223M150.805 103.672l.965-12.016" stroke-width="1.2" stroke="#000" stroke-miterlimit="10" fill="none"/><path d="M151.77 91.656l.964-12.015" stroke-width="1.2" stroke="#f00" stroke-miterlimit="10" fill="none"/><path d="M145.152 103.22l.96-12.017" stroke-width="1.2" stroke="#000" stroke-miterlimit="10" fill="none"/><path d="M146.113 91.203l.965-12.016" stroke-width="1.2" stroke="#f00" stroke-miterlimit="10" fill="none"/><path d="M147.977 103.445l-10.887 5.172" stroke-width="1.2" stroke="#000" stroke-miterlimit="10" fill="none"/><path d="M137.09 108.617l-10.887 5.172" stroke-width="1.2" stroke="#00f" stroke-miterlimit="10" fill="none"/><path d="M145.906 73.914h8v11h-8zm0 0" fill="#fff"/><use xlink:href="#a" x="145.906" y="82.577" fill="#f00"/><path d="M126.203 113.79l-9.922-6.845" stroke-width="1.2" stroke="#00f" stroke-miterlimit="10" fill="none"/><path d="M116.28 106.945l-9.925-6.84" stroke-width="1.2" stroke="#000" stroke-miterlimit="10" fill="none"/><path d="M119.203 108.29h14v11h-14zm0 0" fill="#fff"/><g fill="#00f"><use xlink:href="#b" x="119.203" y="116.952"/><use xlink:href="#c" x="126.181" y="116.952"/></g><path d="M106.355 100.105l1.93-24.03M100.895 97.25l1.543-19.227M84.582 110.45l21.773-10.345M108.285 76.074L88.438 62.39M88.438 62.39L66.663 72.735M88.695 68.547l-17.422 8.277M66.664 72.734l-9.926-6.84" stroke-width="1.2" stroke="#000" stroke-miterlimit="10" fill="none"/><path d="M56.738 65.895l-9.922-6.844" stroke-width="1.2" stroke="#0c0" stroke-miterlimit="10" fill="none"/><path d="M66.664 72.734l-1.93 24.032" stroke-width="1.2" stroke="#000" stroke-miterlimit="10" fill="none"/><path d="M36.816 53.55h10v11h-10zm0 0" fill="#fff"/><g fill="#0c0"><use xlink:href="#d" x="36.816" y="62.214"/><use xlink:href="#e" x="43.33" y="62.214"/></g><path d="M64.734 96.766l19.848 13.683M69.938 93.465l15.878 10.95M84.582 110.45l-1.93 24.03M82.652 134.48l-10.886 5.172" stroke-width="1.2" stroke="#000" stroke-miterlimit="10" fill="none"/><path d="M71.766 139.652l-10.887 5.176" stroke-width="1.2" stroke="#00f" stroke-miterlimit="10" fill="none"/><path d="M81.043 136.816l9.926 6.844" stroke-width="1.2" stroke="#000" stroke-miterlimit="10" fill="none"/><path d="M90.97 143.66l9.92 6.84" stroke-width="1.2" stroke="#f00" stroke-miterlimit="10" fill="none"/><path d="M84.266 132.145l9.92 6.843" stroke-width="1.2" stroke="#000" stroke-miterlimit="10" fill="none"/><path d="M94.188 138.988l9.92 6.844" stroke-width="1.2" stroke="#f00" stroke-miterlimit="10" fill="none"/><path d="M60.88 144.828l-.966 12.016" stroke-width="1.2" stroke="#00f" stroke-miterlimit="10" fill="none"/><path d="M59.914 156.844l-.96 12.01" stroke-width="1.2" stroke="#000" stroke-miterlimit="10" fill="none"/><path d="M53.88 139.328h14v11h-14zm0 0" fill="#fff"/><g fill="#00f"><use xlink:href="#b" x="53.879" y="147.991"/><use xlink:href="#c" x="60.856" y="147.991"/></g><path d="M58.953 168.855l-10.887 5.176" stroke-width="1.2" stroke="#000" stroke-miterlimit="10" fill="none"/><path d="M48.066 174.03l-10.89 5.173" stroke-width="1.2" stroke="#00f" stroke-miterlimit="10" fill="none"/><path d="M59.207 175.016l-8.707 4.136" stroke-width="1.2" stroke="#000" stroke-miterlimit="10" fill="none"/><path d="M50.5 179.152l-8.71 4.14" stroke-width="1.2" stroke="#00f" stroke-miterlimit="10" fill="none"/><path d="M78.8 182.543l-19.847-13.688" stroke-width="1.2" stroke="#000" stroke-miterlimit="10" fill="none"/><path d="M37.176 179.203l-.96 12.016" stroke-width="1.2" stroke="#00f" stroke-miterlimit="10" fill="none"/><path d="M36.215 191.22l-.965 12.014" stroke-width="1.2" stroke="#000" stroke-miterlimit="10" fill="none"/><path d="M34.176 173.703h7v11h-7zm0 0" fill="#fff"/><use xlink:href="#b" x="34.176" y="182.366" fill="#00f"/><path d="M35.25 203.234l19.848 13.684M40.453 199.934l15.88 10.945M55.098 216.918l-.965 12.016" stroke-width="1.2" stroke="#000" stroke-miterlimit="10" fill="none"/><path d="M54.133 228.934l-.965 12.015" stroke-width="1.2" stroke="#0c0" stroke-miterlimit="10" fill="none"/><path d="M55.098 216.918L76.87 206.57" stroke-width="1.2" stroke="#000" stroke-miterlimit="10" fill="none"/><path d="M48.168 235.45h10v11h-10zm0 0" fill="#fff"/><g fill="#0c0"><use xlink:href="#d" x="48.168" y="244.112"/><use xlink:href="#e" x="54.682" y="244.112"/></g><path d="M76.87 206.57l1.93-24.027M71.41 203.715l1.543-19.223" stroke-width="1.2" stroke="#000" stroke-miterlimit="10" fill="none"/><path d="M98.5 142.664h8v11h-8zm0 0" fill="#fff"/><use xlink:href="#a" x="98.5" y="151.327" fill="#f00"/><path d="M165.898 141.16l19.848 13.684M185.746 154.844l21.774-10.348M185.488 148.684l17.418-8.278M207.52 144.496l19.847 13.684M227.367 158.18l.297 12.05" stroke-width="1.2" stroke="#000" stroke-miterlimit="10" fill="none"/><path d="M227.664 170.23l.297 12.05" stroke-width="1.2" stroke="#00f" stroke-miterlimit="10" fill="none"/><path d="M233.098 160.453l.238 9.637" stroke-width="1.2" stroke="#000" stroke-miterlimit="10" fill="none"/><path d="M233.336 170.09l.238 9.64M250.102 150.168l-11.368 4.008" stroke-width="1.2" stroke="#00f" stroke-miterlimit="10" fill="none"/><path d="M238.734 154.176l-11.367 4.004" stroke-width="1.2" stroke="#000" stroke-miterlimit="10" fill="none"/><path d="M227.96 182.28l11.552 3.443" stroke-width="1.2" stroke="#00f" stroke-miterlimit="10" fill="none"/><path d="M239.512 185.723l11.554 3.44" stroke-width="1.2" stroke="#000" stroke-miterlimit="10" fill="none"/><path d="M224.96 176.78h7v11h-7zm0 0" fill="#fff"/><use xlink:href="#b" x="224.961" y="185.444" fill="#00f"/><path d="M251.066 189.164l13.684-19.848M264.75 169.316l-7.324-9.574" stroke-width="1.2" stroke="#000" stroke-miterlimit="10" fill="none"/><path d="M257.426 159.742l-7.324-9.574M250.102 150.168l3.44-11.55" stroke-width="1.2" stroke="#00f" stroke-miterlimit="10" fill="none"/><path d="M253.543 138.617l3.44-11.554" stroke-width="1.2" stroke="#000" stroke-miterlimit="10" fill="none"/><path d="M247.102 144.668h7v11h-7zm0 0" fill="#fff"/><use xlink:href="#b" x="247.102" y="153.331" fill="#00f"/></g></svg>