<svg xmlns="http://www.w3.org/2000/svg" xmlns:xlink="http://www.w3.org/1999/xlink" width="300pt" height="300pt" viewBox="0 0 300 300"><defs><symbol overflow="visible"><path d="M.453 1.594v-7.938h4.5v7.938zm.5-.5h3.5v-6.938h-3.5zm0 0"/></symbol><symbol overflow="visible" id="a"><path d="M3.547-5.953c-.65 0-1.164.242-1.547.72-.375.48-.563 1.13-.563 1.952 0 .835.188 1.49.563 1.967.383.48.898.72 1.547.72.644 0 1.156-.24 1.53-.72.376-.476.564-1.132.564-1.968 0-.822-.187-1.474-.562-1.954-.375-.477-.887-.72-1.53-.72zm0-.734c.914 0 1.648.312 2.203.937.55.617.828 1.438.828 2.47 0 1.042-.277 1.87-.828 2.483-.555.617-1.29.922-2.203.922-.93 0-1.668-.305-2.22-.922C.774-1.41.5-2.237.5-3.28c0-1.033.273-1.853.828-2.47.55-.625 1.29-.938 2.22-.938zm0 0"/></symbol><symbol overflow="visible" id="b"><path d="M.89-6.563H2.08l2.906 5.485v-5.484h.86V0H4.656L1.75-5.484V0H.89zm0 0"/></symbol><symbol overflow="visible" id="c"><path d="M.89-6.563h.876v2.688H5v-2.688h.89V0H5v-3.125H1.766V0H.89zm0 0"/></symbol></defs><g><path fill="#fff" d="M0 0h300v300H0z"/><path d="M220.59 220.254l-9.81-3.574" stroke-width="1.2" stroke="#f00" stroke-miterlimit="10" fill="none"/><path d="M210.78 216.68l-9.803-3.578" stroke-width="1.2" stroke="#000" stroke-miterlimit="10" fill="none"/><path d="M218.906 224.867l-9.804-3.574" stroke-width="1.2" stroke="#f00" stroke-miterlimit="10" fill="none"/><path d="M209.102 221.293l-9.81-3.574" stroke-width="1.2" stroke="#000" stroke-miterlimit="10" fill="none"/><path d="M215.75 217.063h8v11h-8zm0 0" fill="#fff"/><use xlink:href="#a" x="215.75" y="225.726" fill="#f00"/><path d="M200.133 215.41l-8.656 5.832" stroke-width="1.2" stroke="#000" stroke-miterlimit="10" fill="none"/><path d="M191.477 221.242l-8.657 5.832" stroke-width="1.2" stroke="#00f" stroke-miterlimit="10" fill="none"/><path d="M194.39 195.336l5.743 20.074" stroke-width="1.2" stroke="#000" stroke-miterlimit="10" fill="none"/><path d="M182.82 227.074l-8.222-6.43" stroke-width="1.2" stroke="#00f" stroke-miterlimit="10" fill="none"/><path d="M174.598 220.645l-8.223-6.43" stroke-width="1.2" stroke="#000" stroke-miterlimit="10" fill="none"/><path d="M175.82 221.574h14v11h-14zm0 0" fill="#fff"/><g fill="#00f"><use xlink:href="#b" x="175.82" y="230.237"/><use xlink:href="#c" x="182.798" y="230.237"/></g><path d="M166.375 214.215l7.148-19.617M173.523 194.598l20.868.738M175.785 189.762l16.692.593M163.73 176.16l9.793 18.438M194.39 195.336l11.07-17.7M205.46 177.637l-9.788-18.438M208.82 173.488l-7.832-14.75M205.46 177.637l20.567-3.614M195.672 159.2l14.512-15.012M195.672 159.2l-20.867-.743M210.184 144.188l18.757 9.16M228.94 153.348l-2.913 20.675M233.516 156.102l-2.332 16.54M248.305 145.54l-19.364 7.808M226.027 174.023l16.446 12.864M242.473 186.887l19.36-7.813M242.57 181.547l15.49-6.246M261.832 179.074l2.918-20.672M264.75 158.402l-16.445-12.863M260.078 160.984l-13.156-10.29M174.805 158.457l-6.707-8" stroke-width="1.2" stroke="#000" stroke-miterlimit="10" fill="none"/><path d="M168.098 150.457l-6.703-8" stroke-width="1.2" stroke="#00f" stroke-miterlimit="10" fill="none"/><path d="M163.73 176.16l11.075-17.703M169.004 176.992l8.86-14.16" stroke-width="1.2" stroke="#000" stroke-miterlimit="10" fill="none"/><path d="M161.395 142.457l-9.684 3.906" stroke-width="1.2" stroke="#00f" stroke-miterlimit="10" fill="none"/><path d="M151.71 146.363l-9.68 3.907" stroke-width="1.2" stroke="#000" stroke-miterlimit="10" fill="none"/><path d="M161.395 142.457l2.53-10.13" stroke-width="1.2" stroke="#00f" stroke-miterlimit="10" fill="none"/><path d="M163.926 132.328l2.527-10.125" stroke-width="1.2" stroke="#000" stroke-miterlimit="10" fill="none"/><path d="M158.395 136.957h7v11h-7zm0 0" fill="#fff"/><use xlink:href="#b" x="158.395" y="145.62" fill="#00f"/><path d="M142.03 150.27l1.447 20.828M137.273 152.69l1.157 16.665M123.27 141.105l18.76 9.165M143.477 171.098l-17.317 11.664M143.477 171.098l20.253 5.062M126.16 182.762l-18.758-9.16M126.44 177.434l-15.006-7.332M107.402 173.602l-1.445-20.83M107.402 173.602l-17.316 11.664M105.957 152.773l17.313-11.668M110.434 155.68l13.85-9.332M90.086 185.266l-9.38-4.582" stroke-width="1.2" stroke="#000" stroke-miterlimit="10" fill="none"/><path d="M80.707 180.684l-9.383-4.58M71.324 176.105l-8.656 5.833" stroke-width="1.2" stroke="#f00" stroke-miterlimit="10" fill="none"/><path d="M62.668 181.938l-8.656 5.832" stroke-width="1.2" stroke="#000" stroke-miterlimit="10" fill="none"/><path d="M67.324 170.605h8v11h-8zm0 0" fill="#fff"/><use xlink:href="#a" x="67.324" y="179.269" fill="#f00"/><path d="M54.012 187.77l-18.762-9.165M54.012 187.77l1.445 20.828M166.453 122.203l-15.008-14.512M151.445 107.69l5.06-20.256M156.504 87.434L149 80.18" stroke-width="1.2" stroke="#000" stroke-miterlimit="10" fill="none"/><path d="M149 80.18l-7.504-7.254" stroke-width="1.2" stroke="#f00" stroke-miterlimit="10" fill="none"/><path d="M126.496 67.426h15v11h-15zm0 0" fill="#fff"/><g fill="#f00"><use xlink:href="#c" x="126.496" y="76.089"/><use xlink:href="#a" x="133.511" y="76.089"/></g></g></svg>