<svg xmlns="http://www.w3.org/2000/svg" xmlns:xlink="http://www.w3.org/1999/xlink" width="300pt" height="300pt" viewBox="0 0 300 300"><defs><symbol overflow="visible"><path d="M.453 1.594v-7.938h4.5v7.938zm.5-.5h3.5v-6.938h-3.5zm0 0"/></symbol><symbol overflow="visible" id="a"><path d="M.89-6.563H2.08l2.906 5.485v-5.484h.86V0H4.656L1.75-5.484V0H.89zm0 0"/></symbol><symbol overflow="visible" id="b"><path d="M.89-6.563h.876v2.688H5v-2.688h.89V0H5v-3.125H1.766V0H.89zm0 0"/></symbol><symbol overflow="visible" id="d"><path d="M3.547-5.953c-.65 0-1.164.242-1.547.72-.375.48-.563 1.13-.563 1.952 0 .835.188 1.49.563 1.967.383.48.898.72 1.547.72.644 0 1.156-.24 1.53-.72.376-.476.564-1.132.564-1.968 0-.822-.187-1.474-.562-1.954-.375-.477-.887-.72-1.53-.72zm0-.734c.914 0 1.648.312 2.203.937.55.617.828 1.438.828 2.47 0 1.042-.277 1.87-.828 2.483-.555.617-1.29.922-2.203.922-.93 0-1.668-.305-2.22-.922C.774-1.41.5-2.237.5-3.28c0-1.033.273-1.853.828-2.47.55-.625 1.29-.938 2.22-.938zm0 0"/></symbol><symbol overflow="visible" id="f"><path d="M5.797-6.063v.938c-.305-.27-.625-.473-.97-.61-.335-.144-.686-.218-1.06-.218-.75 0-1.33.23-1.736.687-.397.46-.592 1.12-.592 1.985 0 .866.195 1.526.593 1.983.408.46.986.688 1.736.688.375 0 .726-.066 1.062-.203.344-.132.664-.343.97-.625V-.5c-.314.21-.642.367-.986.47-.343.1-.714.155-1.11.155-.99 0-1.772-.3-2.343-.906C.784-1.396.5-2.228.5-3.28c0-1.052.285-1.88.86-2.486.57-.613 1.35-.92 2.343-.92.395-.002.766.053 1.11.155.35.104.68.26.984.468zm0 0"/></symbol><symbol overflow="visible" id="g"><path d="M.844-6.844h.812V0H.844zm0 0"/></symbol><symbol overflow="visible" id="h"><path d="M4.813-6.344v.86c-.336-.157-.653-.27-.954-.344-.294-.082-.58-.125-.86-.125-.492 0-.867.094-1.125.28-.262.19-.39.454-.39.798 0 .293.085.512.265.656.176.15.504.267.984.36l.547.11c.658.125 1.142.352 1.454.672.32.312.485.734.485 1.265 0 .637-.216 1.122-.642 1.454-.43.325-1.055.485-1.875.485-.312 0-.648-.04-1-.11C1.36-.046 1-.147.625-.296v-.906c.352.2.703.35 1.047.453.35.105.695.156 1.03.156.5 0 .884-.097 1.157-.297.28-.196.42-.485.42-.86 0-.32-.1-.57-.296-.75-.2-.176-.523-.313-.968-.406l-.547-.11C1.81-3.148 1.33-3.36 1.03-3.64.74-3.923.595-4.313.595-4.813c0-.57.203-1.024.61-1.36.405-.344.968-.516 1.687-.516.313 0 .626.032.938.094.32.055.65.137.985.25zm0 0"/></symbol><symbol overflow="visible"><path d="M.406 1.422V-5.64h4V1.42zM.844.97h3.11v-6.157H.843zm0 0"/></symbol><symbol overflow="visible" id="c"><path d="M3.688-5.016v2.172h2.17v.672H3.69V0H3.03v-2.172H.845v-.672H3.03v-2.172zm0 0"/></symbol><symbol overflow="visible" id="e"><path d="M.39-2.516H2.5v.64H.39zm0 0"/></symbol></defs><g><path fill="#fff" d="M0 0h300v300H0z"/><path d="M67.715 223.504l-23.356 1.02 1.76 7.933zm0 0"/><path d="M67.715 223.504l3.46-10.98" stroke-width="1.2" stroke="#00f" stroke-miterlimit="10" fill="none"/><path d="M71.176 212.523l3.457-10.976M83.273 240.473l-7.777-8.485" stroke-width="1.2" stroke="#000" stroke-miterlimit="10" fill="none"/><path d="M75.496 231.988l-7.78-8.484" stroke-width="1.2" stroke="#00f" stroke-miterlimit="10" fill="none"/><path d="M57.715 216.004h21v15h-21zm0 0" fill="#fff"/><g fill="#00f"><use xlink:href="#a" x="57.715" y="228.105"/><use xlink:href="#b" x="64.692" y="228.105"/></g><use xlink:href="#c" x="71.707" y="223.223" fill="#00f"/><path d="M74.633 201.547l22.476-4.988M97.11 196.56l15.554 16.967M102.656 194.594l12.446 13.574" stroke-width="1.2" stroke="#000" stroke-miterlimit="10" fill="none"/><path d="M108.438 176.516l-5.665 10.02" stroke-width="1.2" stroke="#cc0" stroke-miterlimit="10" fill="none"/><path d="M102.773 186.535L97.11 196.56M112.664 213.527l10.473-4.777" stroke-width="1.2" stroke="#000" stroke-miterlimit="10" fill="none"/><path d="M123.137 208.75l10.472-4.777" stroke-width="1.2" stroke="#00f" stroke-miterlimit="10" fill="none"/><path d="M112.664 213.527l-6.918 21.957" stroke-width="1.2" stroke="#000" stroke-miterlimit="10" fill="none"/><path d="M133.61 203.973l-1.305-11.434" stroke-width="1.2" stroke="#00f" stroke-miterlimit="10" fill="none"/><path d="M132.305 192.54L131 181.1" stroke-width="1.2" stroke="#000" stroke-miterlimit="10" fill="none"/><path d="M127.97 202.3l-1.048-9.148" stroke-width="1.2" stroke="#00f" stroke-miterlimit="10" fill="none"/><path d="M126.922 193.152l-1.043-9.148" stroke-width="1.2" stroke="#000" stroke-miterlimit="10" fill="none"/><path d="M130.61 198.473h7v11h-7zm0 0" fill="#fff"/><use xlink:href="#a" x="130.609" y="207.136" fill="#00f"/><path d="M131 181.102l16.97-15.56M131 181.102l-11.28-2.293" stroke-width="1.2" stroke="#000" stroke-miterlimit="10" fill="none"/><path d="M119.72 178.81l-11.282-2.294" stroke-width="1.2" stroke="#cc0" stroke-miterlimit="10" fill="none"/><path d="M150.613 164.957l-2.496-11.238" stroke-width="1.2" stroke="#000" stroke-miterlimit="10" fill="none"/><path d="M148.117 153.72l-2.492-11.236" stroke-width="1.2" stroke="#f00" stroke-miterlimit="10" fill="none"/><path d="M145.324 166.133l-2.492-11.238" stroke-width="1.2" stroke="#000" stroke-miterlimit="10" fill="none"/><path d="M142.832 154.895l-2.496-11.24" stroke-width="1.2" stroke="#f00" stroke-miterlimit="10" fill="none"/><path d="M147.97 165.543l10.98 3.46" stroke-width="1.2" stroke="#000" stroke-miterlimit="10" fill="none"/><path d="M158.95 169.004l10.976 3.457" stroke-width="1.2" stroke="#00f" stroke-miterlimit="10" fill="none"/><path d="M138.98 137.57h8v11h-8zm0 0" fill="#fff"/><use xlink:href="#d" x="138.98" y="146.233" fill="#f00"/><path d="M186.895 156.906L167.18 169.47l5.492 5.987zm0 0"/><path d="M162.926 166.96h14v11h-14zm0 0" fill="#fff"/><g fill="#00f"><use xlink:href="#a" x="162.926" y="175.624"/><use xlink:href="#b" x="169.903" y="175.624"/></g><path d="M186.895 156.906l21.96 6.914M181.906 134.43l4.99 22.476M208.855 163.82l16.97-15.554" stroke-width="1.2" stroke="#000" stroke-miterlimit="10" fill="none"/><path d="M225.824 148.266m2.66 1.382l.313-.992m2.348 2.38l.628-1.99m2.032 3.372l.94-2.98m1.724 4.367l1.253-3.977m1.406 5.36l1.565-4.973m1.094 6.36l1.878-5.97m.785 7.356l2.192-6.964m-.086 8.063l2.44-7.75" stroke="#000" stroke-miterlimit="10" fill="none"/><path d="M225.824 148.266l-4.988-22.477M249.61 157.18l8.484-7.782" stroke-width="1.2" stroke="#000" stroke-miterlimit="10" fill="none"/><path d="M258.094 149.398l8.488-7.777" stroke-width="1.2" stroke="#f00" stroke-miterlimit="10" fill="none"/><path d="M245.95 153.184l8.484-7.778" stroke-width="1.2" stroke="#000" stroke-miterlimit="10" fill="none"/><path d="M254.434 145.406l8.484-7.777" stroke-width="1.2" stroke="#f00" stroke-miterlimit="10" fill="none"/><path d="M247.78 155.184l2.493 11.234" stroke-width="1.2" stroke="#000" stroke-miterlimit="10" fill="none"/><path d="M250.273 166.418l2.497 11.238" stroke-width="1.2" stroke="#f00" stroke-miterlimit="10" fill="none"/><path d="M260.75 134.125h8v11h-8zm0 0" fill="#fff"/><use xlink:href="#d" x="260.75" y="142.788" fill="#f00"/><path d="M247.77 170.156h11v15h-11zm0 0" fill="#fff"/><use xlink:href="#d" x="247.77" y="182.258" fill="#f00"/><use xlink:href="#e" x="255.111" y="177.375" fill="#f00"/><path d="M220.836 125.79l-21.957-6.92M198.88 118.87l-16.974 15.56" stroke-width="1.2" stroke="#000" stroke-miterlimit="10" fill="none"/><path d="M181.906 134.43l-20.734-10.793-2.442 7.75zm0 0"/><path d="M159.95 127.512l-2.493-11.24" stroke-width="1.2" stroke="#00f" stroke-miterlimit="10" fill="none"/><path d="M157.457 116.273l-2.496-11.234" stroke-width="1.2" stroke="#000" stroke-miterlimit="10" fill="none"/><path d="M152.95 122.012h14v11h-14zm0 0" fill="#fff"/><g fill="#00f"><use xlink:href="#a" x="152.949" y="130.675"/><use xlink:href="#b" x="159.927" y="130.675"/></g><path d="M154.96 105.04l-21.956-6.92M156.793 107.035l8.484-7.777" stroke-width="1.2" stroke="#000" stroke-miterlimit="10" fill="none"/><path d="M165.277 99.258l8.485-7.78" stroke-width="1.2" stroke="#f00" stroke-miterlimit="10" fill="none"/><path d="M153.133 103.043l8.484-7.78" stroke-width="1.2" stroke="#000" stroke-miterlimit="10" fill="none"/><path d="M161.617 95.262l8.485-7.778" stroke-width="1.2" stroke="#f00" stroke-miterlimit="10" fill="none"/><path d="M133.004 98.12l-18.504 13.7M127.93 95.137l-14.8 10.957" stroke-width="1.2" stroke="#000" stroke-miterlimit="10" fill="none"/><path d="M125.695 76.29l3.653 10.917" stroke-width="1.2" stroke="#00f" stroke-miterlimit="10" fill="none"/><path d="M129.348 87.207l3.656 10.914M114.5 111.82L95.758 98.453M95.758 98.453l6.914-21.957M91.28 94.633l5.536-17.567M73.28 103.44l22.478-4.987M102.672 76.496l-15.555-16.97M102.672 76.496l11.512-.1" stroke-width="1.2" stroke="#000" stroke-miterlimit="10" fill="none"/><path d="M114.184 76.395l11.51-.106" stroke-width="1.2" stroke="#00f" stroke-miterlimit="10" fill="none"/><path d="M87.117 59.527l-22.476 4.99M86.043 65.316l-17.98 3.99M64.64 64.516l-6.917 21.957M57.723 86.473L46.488 88.97" stroke-width="1.2" stroke="#000" stroke-miterlimit="10" fill="none"/><path d="M46.488 88.97L35.25 91.46" stroke-width="1.2" stroke="#0c0" stroke-miterlimit="10" fill="none"/><path d="M57.723 86.473L73.28 103.44M63.273 84.512L75.72 98.086" stroke-width="1.2" stroke="#000" stroke-miterlimit="10" fill="none"/><path d="M25.25 85.96h10v11h-10zm0 0" fill="#fff"/><g fill="#0c0"><use xlink:href="#f" x="25.25" y="94.624"/><use xlink:href="#g" x="31.764" y="94.624"/></g><path d="M118.695 70.79h14v11h-14zm0 0" fill="#fff"/><g fill="#00f"><use xlink:href="#a" x="118.695" y="79.452"/><use xlink:href="#b" x="125.673" y="79.452"/></g><path d="M167.93 83.98h8v11h-8zm0 0" fill="#fff"/><use xlink:href="#d" x="167.93" y="92.644" fill="#f00"/><path d="M105.438 171.016h6v11h-6zm0 0" fill="#fff"/><use xlink:href="#h" x="105.438" y="179.679" fill="#cc0"/><path d="M105.746 235.484l-22.473 4.99" stroke-width="1.2" stroke="#000" stroke-miterlimit="10" fill="none"/></g></svg>