<svg xmlns="http://www.w3.org/2000/svg" xmlns:xlink="http://www.w3.org/1999/xlink" width="300pt" height="300pt" viewBox="0 0 300 300"><defs><symbol overflow="visible"><path d="M.453 1.594v-7.938h4.5v7.938zm.5-.5h3.5v-6.938h-3.5zm0 0"/></symbol><symbol overflow="visible" id="a"><path d="M3.547-5.953c-.65 0-1.164.242-1.547.72-.375.48-.563 1.13-.563 1.952 0 .835.188 1.49.563 1.967.383.48.898.72 1.547.72.644 0 1.156-.24 1.53-.72.376-.476.564-1.132.564-1.968 0-.822-.187-1.474-.562-1.954-.375-.477-.887-.72-1.53-.72zm0-.734c.914 0 1.648.312 2.203.937.55.617.828 1.438.828 2.47 0 1.042-.277 1.87-.828 2.483-.555.617-1.29.922-2.203.922-.93 0-1.668-.305-2.22-.922C.774-1.41.5-2.237.5-3.28c0-1.033.273-1.853.828-2.47.55-.625 1.29-.938 2.22-.938zm0 0"/></symbol><symbol overflow="visible" id="b"><path d="M.89-6.563H2.08l2.906 5.485v-5.484h.86V0H4.656L1.75-5.484V0H.89zm0 0"/></symbol><symbol overflow="visible" id="c"><path d="M.89-6.563h.876v2.688H5v-2.688h.89V0H5v-3.125H1.766V0H.89zm0 0"/></symbol></defs><g><path fill="#fff" d="M0 0h300v300H0z"/><path d="M127.258 169.305l.258-9.203" stroke-width="1.2" stroke="#000" stroke-miterlimit="10" fill="none"/><path d="M127.516 160.102l.26-9.204" stroke-width="1.2" stroke="#f00" stroke-miterlimit="10" fill="none"/><path d="M122.93 169.184l.257-9.204" stroke-width="1.2" stroke="#000" stroke-miterlimit="10" fill="none"/><path d="M123.188 159.98l.257-9.203" stroke-width="1.2" stroke="#f00" stroke-miterlimit="10" fill="none"/><path d="M125.094 169.242l-8.403 3.762" stroke-width="1.2" stroke="#000" stroke-miterlimit="10" fill="none"/><path d="M116.69 173.004l-8.4 3.758" stroke-width="1.2" stroke="#00f" stroke-miterlimit="10" fill="none"/><path d="M141.45 177.69l-16.356-8.448" stroke-width="1.2" stroke="#000" stroke-miterlimit="10" fill="none"/><path d="M121.61 145.34h8v11h-8zm0 0" fill="#fff"/><use xlink:href="#a" x="121.609" y="154.003" fill="#f00"/><path d="M108.29 176.762l-7.036-5.938" stroke-width="1.2" stroke="#00f" stroke-miterlimit="10" fill="none"/><path d="M101.254 170.824l-7.03-5.94" stroke-width="1.2" stroke="#000" stroke-miterlimit="10" fill="none"/><path d="M108.29 176.762l-2.302 8.914" stroke-width="1.2" stroke="#00f" stroke-miterlimit="10" fill="none"/><path d="M105.988 185.676l-2.297 8.914" stroke-width="1.2" stroke="#000" stroke-miterlimit="10" fill="none"/><path d="M105.29 171.262h7v11h-7zm0 0" fill="#fff"/><use xlink:href="#b" x="105.289" y="179.925" fill="#00f"/><path d="M94.223 164.883l-17.32 6.242M74.77 170.742l-1.625 9.063" stroke-width="1.2" stroke="#000" stroke-miterlimit="10" fill="none"/><path d="M73.145 179.805l-1.63 9.058" stroke-width="1.2" stroke="#f00" stroke-miterlimit="10" fill="none"/><path d="M79.035 171.508l-1.63 9.062" stroke-width="1.2" stroke="#000" stroke-miterlimit="10" fill="none"/><path d="M77.406 180.57l-1.625 9.06" stroke-width="1.2" stroke="#f00" stroke-miterlimit="10" fill="none"/><path d="M76.902 171.125l-7.035-5.938" stroke-width="1.2" stroke="#000" stroke-miterlimit="10" fill="none"/><path d="M69.867 165.188l-7.03-5.942" stroke-width="1.2" stroke="#00f" stroke-miterlimit="10" fill="none"/><path d="M69.648 183.746h8v11h-8zm0 0" fill="#fff"/><use xlink:href="#a" x="69.648" y="192.409" fill="#f00"/><path d="M62.836 159.246l-8.94 2.2" stroke-width="1.2" stroke="#00f" stroke-miterlimit="10" fill="none"/><path d="M53.895 161.445l-8.938 2.2M64.176 140.887l-.668 9.18" stroke-width="1.2" stroke="#000" stroke-miterlimit="10" fill="none"/><path d="M63.508 150.066l-.672 9.18" stroke-width="1.2" stroke="#00f" stroke-miterlimit="10" fill="none"/><path d="M59.836 153.746h7v11h-7zm0 0" fill="#fff"/><use xlink:href="#b" x="59.836" y="162.409" fill="#00f"/><path d="M44.957 163.645l-9.707-15.64M35.25 148.004l11.88-14.07M47.13 133.934l17.046 6.953M103.69 194.59l11.072 14.71M114.762 209.3l18.402.516M133.164 209.816l11.88-14.066M145.043 195.75l-3.594-18.06" stroke-width="1.2" stroke="#000" stroke-miterlimit="10" fill="none"/><path d="M141.45 177.69l16.663-8.47-3.906-5.193zm0 0"/><path d="M156.16 166.62l-1.113-9.136" stroke-width="1.2" stroke="#00f" stroke-miterlimit="10" fill="none"/><path d="M155.047 157.484l-1.117-9.136" stroke-width="1.2" stroke="#000" stroke-miterlimit="10" fill="none"/><path d="M160.238 164.27l-.894-7.31" stroke-width="1.2" stroke="#00f" stroke-miterlimit="10" fill="none"/><path d="M159.344 156.96l-.89-7.312" stroke-width="1.2" stroke="#000" stroke-miterlimit="10" fill="none"/><path d="M153.16 161.12h7v11h-7zm0 0" fill="#fff"/><use xlink:href="#b" x="153.16" y="169.784" fill="#00f"/><path d="M153.93 148.348l-8.473-3.602" stroke-width="1.2" stroke="#000" stroke-miterlimit="10" fill="none"/><path d="M145.457 144.746l-8.47-3.6" stroke-width="1.2" stroke="#00f" stroke-miterlimit="10" fill="none"/><path d="M153.93 148.348l7.355-5.536" stroke-width="1.2" stroke="#000" stroke-miterlimit="10" fill="none"/><path d="M161.285 142.813l7.356-5.536M136.988 141.145l-1.117-9.14" stroke-width="1.2" stroke="#00f" stroke-miterlimit="10" fill="none"/><path d="M135.87 132.004l-1.116-9.137" stroke-width="1.2" stroke="#000" stroke-miterlimit="10" fill="none"/><path d="M129.988 135.645h14v11h-14zm0 0" fill="#fff"/><g fill="#00f"><use xlink:href="#b" x="129.988" y="144.308"/><use xlink:href="#c" x="136.966" y="144.308"/></g><path d="M136.06 124.598l7.354-5.535" stroke-width="1.2" stroke="#000" stroke-miterlimit="10" fill="none"/><path d="M143.414 119.063l7.356-5.536" stroke-width="1.2" stroke="#f00" stroke-miterlimit="10" fill="none"/><path d="M133.453 121.137l7.356-5.535" stroke-width="1.2" stroke="#000" stroke-miterlimit="10" fill="none"/><path d="M140.81 115.602l7.354-5.536" stroke-width="1.2" stroke="#f00" stroke-miterlimit="10" fill="none"/><path d="M134.754 122.867l-16.94-7.203" stroke-width="1.2" stroke="#000" stroke-miterlimit="10" fill="none"/><path d="M145.465 106.297h8v11h-8zm0 0" fill="#fff"/><use xlink:href="#a" x="145.465" y="114.96" fill="#f00"/><path d="M117.813 115.664l-14.71 11.07M113.734 113.31l-11.765 8.854M115.578 97.387l2.234 18.277M103.102 126.734l-16.942-7.207M86.16 119.527l-2.234-18.273M90.234 117.176l-1.785-14.62M83.926 101.254l14.71-11.07M98.637 90.184l16.94 7.203M98.637 94.89l13.554 5.762" stroke-width="1.2" stroke="#000" stroke-miterlimit="10" fill="none"/><path d="M168.64 137.277l8.473 3.602" stroke-width="1.2" stroke="#00f" stroke-miterlimit="10" fill="none"/><path d="M177.113 140.88l8.47 3.6" stroke-width="1.2" stroke="#000" stroke-miterlimit="10" fill="none"/><path d="M161.64 131.777h14v11h-14zm0 0" fill="#fff"/><g fill="#00f"><use xlink:href="#b" x="161.641" y="140.44"/><use xlink:href="#c" x="168.618" y="140.44"/></g><path d="M185.582 144.48l14.71-11.07M189.66 146.836l11.766-8.856M187.816 162.758l-2.234-18.278M200.293 133.41l16.94 7.207M217.234 140.617l2.235 18.274M221.758 141.918l1.79 14.62M233.926 132.844l-16.692 7.773M219.47 158.89l9.034 1.762" stroke-width="1.2" stroke="#000" stroke-miterlimit="10" fill="none"/><path d="M228.504 160.652l9.035 1.762" stroke-width="1.2" stroke="#f00" stroke-miterlimit="10" fill="none"/><path d="M219.47 158.89l-14.712 11.07" stroke-width="1.2" stroke="#000" stroke-miterlimit="10" fill="none"/><path d="M237.54 162.414l4.468-8.047" stroke-width="1.2" stroke="#f00" stroke-miterlimit="10" fill="none"/><path d="M242.008 154.367l4.47-8.05" stroke-width="1.2" stroke="#000" stroke-miterlimit="10" fill="none"/><path d="M233.54 156.914h8v11h-8zm0 0" fill="#fff"/><use xlink:href="#a" x="233.539" y="165.577" fill="#f00"/><path d="M246.477 146.316l18.273-2.23M246.477 146.316l-12.55-13.472M242.05 147.922l-10.038-10.777M204.758 169.96l-16.942-7.202M204.758 165.254l-13.555-5.762" stroke-width="1.2" stroke="#000" stroke-miterlimit="10" fill="none"/></g></svg>