<svg xmlns="http://www.w3.org/2000/svg" xmlns:xlink="http://www.w3.org/1999/xlink" width="300pt" height="300pt" viewBox="0 0 300 300"><defs><symbol overflow="visible"><path d="M.453 1.594v-7.938h4.5v7.938zm.5-.5h3.5v-6.938h-3.5zm0 0"/></symbol><symbol overflow="visible" id="a"><path d="M3.547-5.953c-.65 0-1.164.242-1.547.72-.375.48-.563 1.13-.563 1.952 0 .835.188 1.49.563 1.967.383.48.898.72 1.547.72.644 0 1.156-.24 1.53-.72.376-.476.564-1.132.564-1.968 0-.822-.187-1.474-.562-1.954-.375-.477-.887-.72-1.53-.72zm0-.734c.914 0 1.648.312 2.203.937.55.617.828 1.438.828 2.47 0 1.042-.277 1.87-.828 2.483-.555.617-1.29.922-2.203.922-.93 0-1.668-.305-2.22-.922C.774-1.41.5-2.237.5-3.28c0-1.033.273-1.853.828-2.47.55-.625 1.29-.938 2.22-.938zm0 0"/></symbol><symbol overflow="visible" id="b"><path d="M.89-6.563h.876v2.688H5v-2.688h.89V0H5v-3.125H1.766V0H.89zm0 0"/></symbol><symbol overflow="visible" id="c"><path d="M.89-6.563H2.08l2.906 5.485v-5.484h.86V0H4.656L1.75-5.484V0H.89zm0 0"/></symbol><symbol overflow="visible" id="d"><path d="M5.797-6.063v.938c-.305-.27-.625-.473-.97-.61-.335-.144-.686-.218-1.06-.218-.75 0-1.33.23-1.736.687-.397.46-.592 1.12-.592 1.985 0 .866.195 1.526.593 1.983.408.46.986.688 1.736.688.375 0 .726-.066 1.062-.203.344-.132.664-.343.97-.625V-.5c-.314.21-.642.367-.986.47-.343.1-.714.155-1.11.155-.99 0-1.772-.3-2.343-.906C.784-1.396.5-2.228.5-3.28c0-1.052.285-1.88.86-2.486.57-.613 1.35-.92 2.343-.92.395-.002.766.053 1.11.155.35.104.68.26.984.468zm0 0"/></symbol><symbol overflow="visible" id="e"><path d="M.844-6.844h.812V0H.844zm0 0"/></symbol></defs><g><path fill="#fff" d="M0 0h300v300H0z"/><path d="M230.918 126.785l20.69 7.867 1.447-7.554zm0 0"/><path d="M230.918 126.785l6.305-20.867M230.918 126.785l-1.824 21.723M210.824 118.336l20.094 8.45" stroke-width="1.2" stroke="#000" stroke-miterlimit="10" fill="none"/><path d="M245.332 125.375h15v11h-15zm0 0" fill="#fff"/><g fill="#f00"><use xlink:href="#a" x="245.332" y="134.038"/><use xlink:href="#b" x="252.674" y="134.038"/></g><path d="M237.223 105.918l21.222-4.973M238.176 100.43l16.976-3.98M222.305 90.027l14.918 15.89M258.445 100.945l6.305-20.867M264.75 80.078l-14.918-15.89M259.52 82l-11.938-12.715M249.832 64.188l6.3-20.868M249.832 64.188l-21.227 4.972M228.605 69.16l-6.3 20.867M232.887 72.73l-5.043 16.692M229.094 148.508l-10.614 2.488" stroke-width="1.2" stroke="#000" stroke-miterlimit="10" fill="none"/><path d="M218.48 150.996l-10.61 2.488M207.87 153.484l-4.225 10.047" stroke-width="1.2" stroke="#00f" stroke-miterlimit="10" fill="none"/><path d="M203.645 163.53l-4.227 10.048" stroke-width="1.2" stroke="#000" stroke-miterlimit="10" fill="none"/><path d="M207.87 153.484l-5.643-9.324" stroke-width="1.2" stroke="#00f" stroke-miterlimit="10" fill="none"/><path d="M202.227 144.16l-5.65-9.324" stroke-width="1.2" stroke="#000" stroke-miterlimit="10" fill="none"/><path d="M204.87 147.984h7v11h-7zm0 0" fill="#fff"/><use xlink:href="#c" x="204.871" y="156.647" fill="#00f"/><path d="M197.375 175.13l6.59 8.68" stroke-width="1.2" stroke="#000" stroke-miterlimit="10" fill="none"/><path d="M203.965 183.81l6.59 8.682" stroke-width="1.2" stroke="#f00" stroke-miterlimit="10" fill="none"/><path d="M201.46 172.027l6.59 8.684" stroke-width="1.2" stroke="#000" stroke-miterlimit="10" fill="none"/><path d="M208.05 180.71l6.59 8.68" stroke-width="1.2" stroke="#f00" stroke-miterlimit="10" fill="none"/><path d="M199.418 173.578l-10.813 1.363" stroke-width="1.2" stroke="#000" stroke-miterlimit="10" fill="none"/><path d="M188.605 174.94l-10.812 1.365" stroke-width="1.2" stroke="#00f" stroke-miterlimit="10" fill="none"/><path d="M208.598 185.44h8v11h-8zm0 0" fill="#fff"/><use xlink:href="#a" x="208.598" y="194.104" fill="#f00"/><path d="M177.793 176.305l-4.227 10.047" stroke-width="1.2" stroke="#00f" stroke-miterlimit="10" fill="none"/><path d="M173.566 186.352l-4.222 10.046" stroke-width="1.2" stroke="#000" stroke-miterlimit="10" fill="none"/><path d="M170.793 170.805h14v11h-14zm0 0" fill="#fff"/><g fill="#00f"><use xlink:href="#c" x="170.793" y="179.468"/><use xlink:href="#b" x="177.771" y="179.468"/></g><path d="M169.344 196.398l-21.63 2.73M167.82 201.762l-17.3 2.183M182.52 213.766l-13.176-17.368M147.715 199.13l-8.45 20.093M139.266 219.223l13.175 17.363M144.668 217.86l10.543 13.89M152.44 236.586l-4.22 10.047" stroke-width="1.2" stroke="#000" stroke-miterlimit="10" fill="none"/><path d="M148.22 246.633l-4.228 10.047" stroke-width="1.2" stroke="#0c0" stroke-miterlimit="10" fill="none"/><path d="M152.44 236.586l21.63-2.727" stroke-width="1.2" stroke="#000" stroke-miterlimit="10" fill="none"/><path d="M133.992 251.18h10v11h-10zm0 0" fill="#fff"/><g fill="#0c0"><use xlink:href="#d" x="133.992" y="259.843"/><use xlink:href="#e" x="140.506" y="259.843"/></g><path d="M174.07 233.86l8.45-20.094M170.188 229.86l6.757-16.075" stroke-width="1.2" stroke="#000" stroke-miterlimit="10" fill="none"/><path d="M196.578 134.836l-21.398-5.66-.645 7.668zm0 0"/><path d="M196.578 134.836l14.246-16.5M174.86 133.008l-4.64-9.863" stroke-width="1.2" stroke="#000" stroke-miterlimit="10" fill="none"/><path d="M170.22 123.145l-4.642-9.86" stroke-width="1.2" stroke="#00f" stroke-miterlimit="10" fill="none"/><path d="M172.754 131.543l-6.223 8.95" stroke-width="1.2" stroke="#000" stroke-miterlimit="10" fill="none"/><path d="M166.53 140.492l-6.22 8.95" stroke-width="1.2" stroke="#f00" stroke-miterlimit="10" fill="none"/><path d="M176.965 134.473l-6.223 8.95" stroke-width="1.2" stroke="#000" stroke-miterlimit="10" fill="none"/><path d="M170.742 143.422l-6.222 8.95" stroke-width="1.2" stroke="#f00" stroke-miterlimit="10" fill="none"/><path d="M165.578 113.285l-10.86-.914" stroke-width="1.2" stroke="#00f" stroke-miterlimit="10" fill="none"/><path d="M154.72 112.37l-10.86-.913" stroke-width="1.2" stroke="#000" stroke-miterlimit="10" fill="none"/><path d="M158.578 107.785h14v11h-14zm0 0" fill="#fff"/><g fill="#00f"><use xlink:href="#c" x="158.578" y="116.448"/><use xlink:href="#b" x="165.556" y="116.448"/></g><path d="M143.86 111.457l-4.64-9.863" stroke-width="1.2" stroke="#000" stroke-miterlimit="10" fill="none"/><path d="M139.22 101.594l-4.642-9.864" stroke-width="1.2" stroke="#00f" stroke-miterlimit="10" fill="none"/><path d="M138.29 111.668l-3.712-7.89" stroke-width="1.2" stroke="#000" stroke-miterlimit="10" fill="none"/><path d="M134.578 103.777l-3.71-7.89" stroke-width="1.2" stroke="#00f" stroke-miterlimit="10" fill="none"/><path d="M131.414 129.355l12.445-17.898" stroke-width="1.2" stroke="#000" stroke-miterlimit="10" fill="none"/><path d="M134.578 91.73l-10.86-.914" stroke-width="1.2" stroke="#00f" stroke-miterlimit="10" fill="none"/><path d="M123.72 90.816l-10.86-.914" stroke-width="1.2" stroke="#000" stroke-miterlimit="10" fill="none"/><path d="M131.578 86.23h7v11h-7zm0 0" fill="#fff"/><use xlink:href="#c" x="131.578" y="94.894" fill="#00f"/><path d="M112.86 89.902l-12.446 17.9M115.824 94.62l-9.953 14.32M100.414 107.8l-10.86-.913" stroke-width="1.2" stroke="#000" stroke-miterlimit="10" fill="none"/><path d="M89.555 106.887l-10.864-.91" stroke-width="1.2" stroke="#00f" stroke-miterlimit="10" fill="none"/><path d="M100.414 107.8l9.28 19.727" stroke-width="1.2" stroke="#000" stroke-miterlimit="10" fill="none"/><path d="M78.69 105.977l-4.635-9.864" stroke-width="1.2" stroke="#00f" stroke-miterlimit="10" fill="none"/><path d="M74.055 96.113l-4.64-9.863M66.25 123.87l6.223-8.948" stroke-width="1.2" stroke="#000" stroke-miterlimit="10" fill="none"/><path d="M72.473 114.922l6.218-8.945" stroke-width="1.2" stroke="#00f" stroke-miterlimit="10" fill="none"/><path d="M75.69 100.477h7v11h-7zm0 0" fill="#fff"/><use xlink:href="#c" x="75.691" y="109.14" fill="#00f"/><path d="M71.52 87.715l6.222-8.95" stroke-width="1.2" stroke="#000" stroke-miterlimit="10" fill="none"/><path d="M77.742 78.766l6.223-8.95" stroke-width="1.2" stroke="#f00" stroke-miterlimit="10" fill="none"/><path d="M67.31 84.785l6.22-8.95" stroke-width="1.2" stroke="#000" stroke-miterlimit="10" fill="none"/><path d="M73.53 75.836l6.224-8.95" stroke-width="1.2" stroke="#f00" stroke-miterlimit="10" fill="none"/><path d="M69.414 86.25L47.69 84.422" stroke-width="1.2" stroke="#000" stroke-miterlimit="10" fill="none"/><path d="M77.86 62.852h8v11h-8zm0 0" fill="#fff"/><use xlink:href="#a" x="77.859" y="71.515" fill="#f00"/><path d="M47.69 84.422L35.25 102.32M50.66 89.14l-9.953 14.317M35.25 102.32l9.277 19.727M44.527 122.047l21.723 1.824M47.13 117.117l17.378 1.46M109.695 127.527l21.72 1.828M112.297 122.598l17.375 1.465" stroke-width="1.2" stroke="#000" stroke-miterlimit="10" fill="none"/><path d="M154.414 145.406h8v11h-8zm0 0" fill="#fff"/><use xlink:href="#a" x="154.414" y="154.069" fill="#f00"/></g></svg>