<svg xmlns="http://www.w3.org/2000/svg" xmlns:xlink="http://www.w3.org/1999/xlink" width="300pt" height="300pt" viewBox="0 0 300 300"><defs><symbol overflow="visible"><path d="M.453 1.594v-7.938h4.5v7.938zm.5-.5h3.5v-6.938h-3.5zm0 0"/></symbol><symbol overflow="visible" id="a"><path d="M3.547-5.953c-.65 0-1.164.242-1.547.72-.375.48-.563 1.13-.563 1.952 0 .835.188 1.49.563 1.967.383.48.898.72 1.547.72.644 0 1.156-.24 1.53-.72.376-.476.564-1.132.564-1.968 0-.822-.187-1.474-.562-1.954-.375-.477-.887-.72-1.53-.72zm0-.734c.914 0 1.648.312 2.203.937.55.617.828 1.438.828 2.47 0 1.042-.277 1.87-.828 2.483-.555.617-1.29.922-2.203.922-.93 0-1.668-.305-2.22-.922C.774-1.41.5-2.237.5-3.28c0-1.033.273-1.853.828-2.47.55-.625 1.29-.938 2.22-.938zm0 0"/></symbol><symbol overflow="visible" id="b"><path d="M.89-6.563H2.08l2.906 5.485v-5.484h.86V0H4.656L1.75-5.484V0H.89zm0 0"/></symbol><symbol overflow="visible" id="c"><path d="M.89-6.563h.876v2.688H5v-2.688h.89V0H5v-3.125H1.766V0H.89zm0 0"/></symbol><symbol overflow="visible" id="d"><path d="M5.797-6.063v.938c-.305-.27-.625-.473-.97-.61-.335-.144-.686-.218-1.06-.218-.75 0-1.33.23-1.736.687-.397.46-.592 1.12-.592 1.985 0 .866.195 1.526.593 1.983.408.46.986.688 1.736.688.375 0 .726-.066 1.062-.203.344-.132.664-.343.97-.625V-.5c-.314.21-.642.367-.986.47-.343.1-.714.155-1.11.155-.99 0-1.772-.3-2.343-.906C.784-1.396.5-2.228.5-3.28c0-1.052.285-1.88.86-2.486.57-.613 1.35-.92 2.343-.92.395-.002.766.053 1.11.155.35.104.68.26.984.468zm0 0"/></symbol><symbol overflow="visible" id="e"><path d="M.844-6.844h.812V0H.844zm0 0"/></symbol><symbol overflow="visible" id="f"><path d="M.89-6.563h3.766v.75h-2.89v1.938h2.61v.734h-2.61V0H.89zm0 0"/></symbol></defs><g><path fill="#fff" d="M0 0h300v300H0z"/><path d="M222.762 202.688m-1.16 2.765l1.015.23m-2.176 2.54l2.037.457m-3.196 2.308l3.052.688m-4.21 2.078l4.07.922m-5.23 1.847l5.085 1.15m-6.246 1.616l6.106 1.378m-7.26 1.387l7.116 1.61m-7.8.023l7.718 1.742" stroke="#000" stroke-miterlimit="10" fill="none"/><path d="M222.762 202.688l21.234 7.2M222.762 202.688l9.38-20.364M200.492 200.06l22.27 2.627" stroke-width="1.2" stroke="#000" stroke-miterlimit="10" fill="none"/><path d="M217.82 224.56l-10.707 3.327" stroke-width="1.2" stroke="#f00" stroke-miterlimit="10" fill="none"/><path d="M207.113 227.887l-10.703 3.328" stroke-width="1.2" stroke="#000" stroke-miterlimit="10" fill="none"/><path d="M213.82 219.06h8v11h-8zm0 0" fill="#fff"/><use xlink:href="#a" x="213.82" y="227.722" fill="#f00"/><path d="M196.41 231.215l-4.94 21.87M243.996 209.887l4.38 21.988M232.14 182.324l-8.234-7.61" stroke-width="1.2" stroke="#000" stroke-miterlimit="10" fill="none"/><path d="M223.906 174.715l-8.234-7.606M215.672 167.11l1.312-11.133" stroke-width="1.2" stroke="#00f" stroke-miterlimit="10" fill="none"/><path d="M216.984 155.977l1.313-11.137" stroke-width="1.2" stroke="#000" stroke-miterlimit="10" fill="none"/><path d="M215.672 167.11l-9.78 5.48" stroke-width="1.2" stroke="#00f" stroke-miterlimit="10" fill="none"/><path d="M205.89 172.59l-9.777 5.48" stroke-width="1.2" stroke="#000" stroke-miterlimit="10" fill="none"/><path d="M212.672 161.61h7v11h-7zm0 0" fill="#fff"/><use xlink:href="#b" x="212.672" y="170.272" fill="#00f"/><path d="M219.875 142.727l-8.984-6.704" stroke-width="1.2" stroke="#000" stroke-miterlimit="10" fill="none"/><path d="M210.89 136.023l-8.984-6.707" stroke-width="1.2" stroke="#f00" stroke-miterlimit="10" fill="none"/><path d="M216.723 146.957l-8.99-6.707" stroke-width="1.2" stroke="#000" stroke-miterlimit="10" fill="none"/><path d="M207.734 140.25l-8.984-6.703" stroke-width="1.2" stroke="#f00" stroke-miterlimit="10" fill="none"/><path d="M218.297 144.84l10.3-4.426" stroke-width="1.2" stroke="#000" stroke-miterlimit="10" fill="none"/><path d="M228.598 140.414l10.297-4.43" stroke-width="1.2" stroke="#00f" stroke-miterlimit="10" fill="none"/><path d="M192.328 125.934h8v11h-8zm0 0" fill="#fff"/><use xlink:href="#a" x="192.328" y="134.597" fill="#f00"/><path d="M238.895 135.984l1.316-11.132" stroke-width="1.2" stroke="#00f" stroke-miterlimit="10" fill="none"/><path d="M240.21 124.852l1.313-11.137" stroke-width="1.2" stroke="#000" stroke-miterlimit="10" fill="none"/><path d="M231.895 130.484h14v11h-14zm0 0" fill="#fff"/><g fill="#00f"><use xlink:href="#b" x="231.895" y="139.147"/><use xlink:href="#c" x="238.872" y="139.147"/></g><path d="M241.523 113.715l20.598-8.856M241.5 107.984l16.477-7.086M223.555 100.31l17.968 13.405M262.12 104.86l2.63-22.266M264.75 82.594l-17.97-13.41M259.797 85.48l-14.375-10.73M246.78 69.184l1.314-11.133" stroke-width="1.2" stroke="#000" stroke-miterlimit="10" fill="none"/><path d="M248.094 58.05l1.312-11.136" stroke-width="1.2" stroke="#0c0" stroke-miterlimit="10" fill="none"/><path d="M246.78 69.184l-20.596 8.855" stroke-width="1.2" stroke="#000" stroke-miterlimit="10" fill="none"/><path d="M244.406 41.414h10v11h-10zm0 0" fill="#fff"/><g fill="#0c0"><use xlink:href="#d" x="244.406" y="50.077"/><use xlink:href="#e" x="250.92" y="50.077"/></g><path d="M226.184 78.04l-2.63 22.27M231.16 80.887L229.055 98.7" stroke-width="1.2" stroke="#000" stroke-miterlimit="10" fill="none"/><path d="M196.113 178.07m-2.468-1.71l-.434.95m-2.03-2.658l-.87 1.895m-1.595-3.606l-1.31 2.84m-1.155-4.55l-1.746 3.79m-.72-5.497l-2.18 4.735m-.284-6.446l-2.617 5.684m.152-7.39l-3.054 6.628m1.602-7.636l-3.312 7.187" stroke="#000" stroke-miterlimit="10" fill="none"/><path d="M196.113 178.07l4.38 21.99M175.746 168.69l-9.152 6.474" stroke-width="1.2" stroke="#000" stroke-miterlimit="10" fill="none"/><path d="M166.594 175.164l-9.153 6.473" stroke-width="1.2" stroke="#00f" stroke-miterlimit="10" fill="none"/><path d="M178.375 168.45l-1.03-11.165" stroke-width="1.2" stroke="#000" stroke-miterlimit="10" fill="none"/><path d="M177.344 157.285l-1.03-11.164" stroke-width="1.2" stroke="#f00" stroke-miterlimit="10" fill="none"/><path d="M173.12 168.934l-1.03-11.164" stroke-width="1.2" stroke="#000" stroke-miterlimit="10" fill="none"/><path d="M172.09 157.77l-1.028-11.165" stroke-width="1.2" stroke="#f00" stroke-miterlimit="10" fill="none"/><path d="M157.44 181.637l-10.182-4.692" stroke-width="1.2" stroke="#00f" stroke-miterlimit="10" fill="none"/><path d="M147.258 176.945l-10.184-4.687" stroke-width="1.2" stroke="#000" stroke-miterlimit="10" fill="none"/><path d="M150.44 176.137h14v11h-14zm0 0" fill="#fff"/><g fill="#00f"><use xlink:href="#b" x="150.441" y="184.8"/><use xlink:href="#c" x="157.419" y="184.8"/></g><path d="M137.074 172.258l-2.058-22.328M131.617 170.508l-1.648-17.86M118.77 185.203l18.304-12.945M135.016 149.93l9.152-6.473" stroke-width="1.2" stroke="#000" stroke-miterlimit="10" fill="none"/><path d="M144.168 143.457l9.156-6.473" stroke-width="1.2" stroke="#3cc" stroke-miterlimit="10" fill="none"/><path d="M135.016 149.93l-20.364-9.38" stroke-width="1.2" stroke="#000" stroke-miterlimit="10" fill="none"/><path d="M150.324 131.484h6v11h-6zm0 0" fill="#fff"/><use xlink:href="#f" x="150.324" y="140.147" fill="#3cc"/><path d="M114.652 140.55l-18.308 12.946M115.867 146.152l-14.644 10.356M96.344 153.496l-10.18-4.69" stroke-width="1.2" stroke="#000" stroke-miterlimit="10" fill="none"/><path d="M86.164 148.805l-10.184-4.688" stroke-width="1.2" stroke="#00f" stroke-miterlimit="10" fill="none"/><path d="M96.344 153.496l2.062 22.328" stroke-width="1.2" stroke="#000" stroke-miterlimit="10" fill="none"/><path d="M75.98 144.117l-1.03-11.164" stroke-width="1.2" stroke="#00f" stroke-miterlimit="10" fill="none"/><path d="M74.95 132.953L73.92 121.79M57.676 157.063l9.152-6.473" stroke-width="1.2" stroke="#000" stroke-miterlimit="10" fill="none"/><path d="M66.828 150.59l9.152-6.473" stroke-width="1.2" stroke="#00f" stroke-miterlimit="10" fill="none"/><path d="M72.98 138.617h7v11h-7zm0 0" fill="#fff"/><use xlink:href="#b" x="72.98" y="147.28" fill="#00f"/><path d="M75.445 123.94l9.153-6.47" stroke-width="1.2" stroke="#000" stroke-miterlimit="10" fill="none"/><path d="M84.598 117.47l9.152-6.474" stroke-width="1.2" stroke="#f00" stroke-miterlimit="10" fill="none"/><path d="M72.398 119.637l9.153-6.473" stroke-width="1.2" stroke="#000" stroke-miterlimit="10" fill="none"/><path d="M81.55 113.164l9.153-6.477" stroke-width="1.2" stroke="#f00" stroke-miterlimit="10" fill="none"/><path d="M73.922 121.79l-20.367-9.38" stroke-width="1.2" stroke="#000" stroke-miterlimit="10" fill="none"/><path d="M88.227 103.344h8v11h-8zm0 0" fill="#fff"/><use xlink:href="#a" x="88.227" y="112.007" fill="#f00"/><path d="M53.555 112.41L35.25 125.355M54.773 118.012l-14.648 10.355M35.25 125.355l2.06 22.33M37.31 147.684l20.366 9.38M41.55 143.828l16.294 7.504M98.406 175.824l20.364 9.38M102.648 171.97l16.293 7.503" stroke-width="1.2" stroke="#000" stroke-miterlimit="10" fill="none"/><path d="M169.688 140.863h8v11h-8zm0 0" fill="#fff"/><use xlink:href="#a" x="169.688" y="149.526" fill="#f00"/></g></svg>