<svg xmlns="http://www.w3.org/2000/svg" xmlns:xlink="http://www.w3.org/1999/xlink" width="300pt" height="300pt" viewBox="0 0 300 300"><defs><symbol overflow="visible"><path d="M.453 1.594v-7.938h4.5v7.938zm.5-.5h3.5v-6.938h-3.5zm0 0"/></symbol><symbol overflow="visible" id="a"><path d="M.89-6.563H2.08l2.906 5.485v-5.484h.86V0H4.656L1.75-5.484V0H.89zm0 0"/></symbol><symbol overflow="visible" id="b"><path d="M3.547-5.953c-.65 0-1.164.242-1.547.72-.375.48-.563 1.13-.563 1.952 0 .835.188 1.49.563 1.967.383.48.898.72 1.547.72.644 0 1.156-.24 1.53-.72.376-.476.564-1.132.564-1.968 0-.822-.187-1.474-.562-1.954-.375-.477-.887-.72-1.53-.72zm0-.734c.914 0 1.648.312 2.203.937.55.617.828 1.438.828 2.47 0 1.042-.277 1.87-.828 2.483-.555.617-1.29.922-2.203.922-.93 0-1.668-.305-2.22-.922C.774-1.41.5-2.237.5-3.28c0-1.033.273-1.853.828-2.47.55-.625 1.29-.938 2.22-.938zm0 0"/></symbol><symbol overflow="visible" id="c"><path d="M4.813-6.344v.86c-.336-.157-.653-.27-.954-.344-.294-.082-.58-.125-.86-.125-.492 0-.867.094-1.125.28-.262.19-.39.454-.39.798 0 .293.085.512.265.656.176.15.504.267.984.36l.547.11c.658.125 1.142.352 1.454.672.32.312.485.734.485 1.265 0 .637-.216 1.122-.642 1.454-.43.325-1.055.485-1.875.485-.312 0-.648-.04-1-.11C1.36-.046 1-.147.625-.296v-.906c.352.2.703.35 1.047.453.35.105.695.156 1.03.156.5 0 .884-.097 1.157-.297.28-.196.42-.485.42-.86 0-.32-.1-.57-.296-.75-.2-.176-.523-.313-.968-.406l-.547-.11C1.81-3.148 1.33-3.36 1.03-3.64.74-3.923.595-4.313.595-4.813c0-.57.203-1.024.61-1.36.405-.344.968-.516 1.687-.516.313 0 .626.032.938.094.32.055.65.137.985.25zm0 0"/></symbol><symbol overflow="visible" id="d"><path d="M5.797-6.063v.938c-.305-.27-.625-.473-.97-.61-.335-.144-.686-.218-1.06-.218-.75 0-1.33.23-1.736.687-.397.46-.592 1.12-.592 1.985 0 .866.195 1.526.593 1.983.408.46.986.688 1.736.688.375 0 .726-.066 1.062-.203.344-.132.664-.343.97-.625V-.5c-.314.21-.642.367-.986.47-.343.1-.714.155-1.11.155-.99 0-1.772-.3-2.343-.906C.784-1.396.5-2.228.5-3.28c0-1.052.285-1.88.86-2.486.57-.613 1.35-.92 2.343-.92.395-.002.766.053 1.11.155.35.104.68.26.984.468zm0 0"/></symbol><symbol overflow="visible" id="e"><path d="M.844-6.844h.812V0H.844zm0 0"/></symbol></defs><g><path fill="#fff" d="M0 0h300v300H0z"/><path d="M57.86 155.82l6.34-3.11" stroke-width="1.2" stroke="#00f" stroke-miterlimit="10" fill="none"/><path d="M64.2 152.71l6.335-3.112" stroke-width="1.2" stroke="#000" stroke-miterlimit="10" fill="none"/><path d="M57.86 155.82l-1.208 6.953" stroke-width="1.2" stroke="#00f" stroke-miterlimit="10" fill="none"/><path d="M56.652 162.773l-1.207 6.954M45.38 149.223l6.24 3.3" stroke-width="1.2" stroke="#000" stroke-miterlimit="10" fill="none"/><path d="M51.62 152.523l6.24 3.297" stroke-width="1.2" stroke="#00f" stroke-miterlimit="10" fill="none"/><path d="M54.86 150.32h7v11h-7zm0 0" fill="#fff"/><use xlink:href="#a" x="54.859" y="158.983" fill="#00f"/><path d="M70.535 149.598l11.723 7.867M82.258 157.465l12.672-6.223M94.93 151.242l11.722 7.867M106.652 159.11l12.672-6.223M119.324 152.887l11.723 7.867M119.324 152.887l.95-14.082M131.047 160.754l12.672-6.223M143.72 154.53l.475-7.042" stroke-width="1.2" stroke="#000" stroke-miterlimit="10" fill="none"/><path d="M144.195 147.488l.473-7.043M144.668 140.445l6.34-3.11" stroke-width="1.2" stroke="#00f" stroke-miterlimit="10" fill="none"/><path d="M151.008 137.336l6.336-3.11M132.945 132.582l5.864 3.934" stroke-width="1.2" stroke="#000" stroke-miterlimit="10" fill="none"/><path d="M138.81 136.516l5.858 3.93" stroke-width="1.2" stroke="#00f" stroke-miterlimit="10" fill="none"/><path d="M141.668 134.945h7v11h-7zm0 0" fill="#fff"/><use xlink:href="#a" x="141.668" y="143.608" fill="#00f"/><path d="M159 134.34l.473-7.043" stroke-width="1.2" stroke="#000" stroke-miterlimit="10" fill="none"/><path d="M159.473 127.297l.476-7.043" stroke-width="1.2" stroke="#f00" stroke-miterlimit="10" fill="none"/><path d="M155.684 134.113l.476-7.04" stroke-width="1.2" stroke="#000" stroke-miterlimit="10" fill="none"/><path d="M156.16 127.074l.473-7.043" stroke-width="1.2" stroke="#f00" stroke-miterlimit="10" fill="none"/><path d="M157.344 134.227l11.722 7.863" stroke-width="1.2" stroke="#000" stroke-miterlimit="10" fill="none"/><path d="M154.293 114.64h8v11h-8zm0 0" fill="#fff"/><use xlink:href="#b" x="154.293" y="123.304" fill="#f00"/><path d="M169.066 142.09l12.672-6.22M181.738 135.87l5.864 3.935" stroke-width="1.2" stroke="#000" stroke-miterlimit="10" fill="none"/><path d="M187.602 139.805l5.86 3.93M192.082 142.81l-3.934 5.862" stroke-width="1.2" stroke="#cc0" stroke-miterlimit="10" fill="none"/><path d="M188.148 148.672l-3.93 5.86" stroke-width="1.2" stroke="#f00" stroke-miterlimit="10" fill="none"/><path d="M194.84 144.66l-3.93 5.863" stroke-width="1.2" stroke="#cc0" stroke-miterlimit="10" fill="none"/><path d="M190.91 150.523l-3.933 5.86" stroke-width="1.2" stroke="#f00" stroke-miterlimit="10" fill="none"/><path d="M194.84 144.66l3.933-5.863" stroke-width="1.2" stroke="#cc0" stroke-miterlimit="10" fill="none"/><path d="M198.773 138.797l3.93-5.86" stroke-width="1.2" stroke="#f00" stroke-miterlimit="10" fill="none"/><path d="M192.082 142.81l3.934-5.86" stroke-width="1.2" stroke="#cc0" stroke-miterlimit="10" fill="none"/><path d="M196.016 136.95l3.93-5.864" stroke-width="1.2" stroke="#f00" stroke-miterlimit="10" fill="none"/><path d="M193.46 143.734l5.864 3.934" stroke-width="1.2" stroke="#cc0" stroke-miterlimit="10" fill="none"/><path d="M199.324 147.668l5.86 3.93" stroke-width="1.2" stroke="#000" stroke-miterlimit="10" fill="none"/><path d="M190.46 138.234h6v11h-6zm0 0" fill="#fff"/><use xlink:href="#c" x="190.461" y="146.897" fill="#cc0"/><path d="M177.598 149.957h8v11h-8zm0 0" fill="#fff"/><use xlink:href="#b" x="177.598" y="158.62" fill="#f00"/><path d="M197.324 126.512h8v11h-8zm0 0" fill="#fff"/><use xlink:href="#b" x="197.324" y="135.175" fill="#f00"/><path d="M205.184 151.598l-.95 14.086M208.402 153.23l-.757 11.27M205.184 151.598l12.67-6.22M204.234 165.684l11.723 7.867M228.633 167.328l-12.676 6.223M225.898 164.97l-10.136 4.975M217.855 145.38l11.727 7.862M217.18 148.926l9.38 6.29M229.582 153.242l-.95 14.086M229.582 153.242l12.672-6.22M228.633 167.328l11.722 7.863M240.355 175.19l12.672-6.217M240.156 171.59l10.14-4.977M253.027 168.973l5.86 3.933" stroke-width="1.2" stroke="#000" stroke-miterlimit="10" fill="none"/><path d="M258.887 172.906l5.863 3.93" stroke-width="1.2" stroke="#0c0" stroke-miterlimit="10" fill="none"/><path d="M253.977 154.887l-.95 14.086" stroke-width="1.2" stroke="#000" stroke-miterlimit="10" fill="none"/><path d="M259.75 171.336h10v11h-10zm0 0" fill="#fff"/><g fill="#0c0"><use xlink:href="#d" x="259.75" y="179.999"/><use xlink:href="#e" x="266.264" y="179.999"/></g><path d="M242.254 147.023l11.723 7.864M241.574 150.566l9.38 6.293M120.273 138.805l12.672-6.223M55.445 169.727l9.832 10.132M55.445 169.727l-6.988 1" stroke-width="1.2" stroke="#000" stroke-miterlimit="10" fill="none"/><path d="M48.457 170.727l-6.988 1" stroke-width="1.2" stroke="#00f" stroke-miterlimit="10" fill="none"/><path d="M53.578 166.64l-5.59.8" stroke-width="1.2" stroke="#000" stroke-miterlimit="10" fill="none"/><path d="M47.988 167.44l-5.59.798M41.47 171.727l-3.11-6.336" stroke-width="1.2" stroke="#00f" stroke-miterlimit="10" fill="none"/><path d="M38.36 165.39l-3.11-6.335" stroke-width="1.2" stroke="#000" stroke-miterlimit="10" fill="none"/><path d="M38.47 166.227h7v11h-7zm0 0" fill="#fff"/><use xlink:href="#a" x="38.469" y="174.89" fill="#00f"/><path d="M35.25 159.055l10.13-9.832M38.578 160.457l8.102-7.867" stroke-width="1.2" stroke="#000" stroke-miterlimit="10" fill="none"/></g></svg>