<svg xmlns="http://www.w3.org/2000/svg" xmlns:xlink="http://www.w3.org/1999/xlink" width="300pt" height="300pt" viewBox="0 0 300 300"><defs><symbol overflow="visible"><path d="M.453 1.594v-7.938h4.5v7.938zm.5-.5h3.5v-6.938h-3.5zm0 0"/></symbol><symbol overflow="visible" id="a"><path d="M.89-6.563H2.08l2.906 5.485v-5.484h.86V0H4.656L1.75-5.484V0H.89zm0 0"/></symbol><symbol overflow="visible" id="b"><path d="M.89-6.563h.876v2.688H5v-2.688h.89V0H5v-3.125H1.766V0H.89zm0 0"/></symbol><symbol overflow="visible" id="d"><path d="M3.547-5.953c-.65 0-1.164.242-1.547.72-.375.48-.563 1.13-.563 1.952 0 .835.188 1.49.563 1.967.383.48.898.72 1.547.72.644 0 1.156-.24 1.53-.72.376-.476.564-1.132.564-1.968 0-.822-.187-1.474-.562-1.954-.375-.477-.887-.72-1.53-.72zm0-.734c.914 0 1.648.312 2.203.937.55.617.828 1.438.828 2.47 0 1.042-.277 1.87-.828 2.483-.555.617-1.29.922-2.203.922-.93 0-1.668-.305-2.22-.922C.774-1.41.5-2.237.5-3.28c0-1.033.273-1.853.828-2.47.55-.625 1.29-.938 2.22-.938zm0 0"/></symbol><symbol overflow="visible" id="e"><path d="M5.797-6.063v.938c-.305-.27-.625-.473-.97-.61-.335-.144-.686-.218-1.06-.218-.75 0-1.33.23-1.736.687-.397.46-.592 1.12-.592 1.985 0 .866.195 1.526.593 1.983.408.46.986.688 1.736.688.375 0 .726-.066 1.062-.203.344-.132.664-.343.97-.625V-.5c-.314.21-.642.367-.986.47-.343.1-.714.155-1.11.155-.99 0-1.772-.3-2.343-.906C.784-1.396.5-2.228.5-3.28c0-1.052.285-1.88.86-2.486.57-.613 1.35-.92 2.343-.92.395-.002.766.053 1.11.155.35.104.68.26.984.468zm0 0"/></symbol><symbol overflow="visible" id="f"><path d="M.844-6.844h.812V0H.844zm0 0"/></symbol><symbol overflow="visible"><path d="M.406 1.422V-5.64h4V1.42zM.844.97h3.11v-6.157H.843zm0 0"/></symbol><symbol overflow="visible" id="c"><path d="M3.688-5.016v2.172h2.17v.672H3.69V0H3.03v-2.172H.845v-.672H3.03v-2.172zm0 0"/></symbol></defs><g><path fill="#fff" d="M0 0h300v300H0z"/><path d="M116.906 146.473l-21.402 10.07M117.137 152.516l-17.125 8.058M136.332 159.97l-19.426-13.497M95.504 156.543l-19.426-13.496M95.504 156.543l-1.98 23.574M76.078 143.047l-10.703 5.035" stroke-width="1.2" stroke="#000" stroke-miterlimit="10" fill="none"/><path d="M65.375 148.082l-10.7 5.035" stroke-width="1.2" stroke="#00f" stroke-miterlimit="10" fill="none"/><path d="M71.566 139.016l-8.558 4.03" stroke-width="1.2" stroke="#000" stroke-miterlimit="10" fill="none"/><path d="M63.008 143.047l-8.563 4.027M78.055 119.473l-.99 11.785" stroke-width="1.2" stroke="#00f" stroke-miterlimit="10" fill="none"/><path d="M77.066 131.258l-.988 11.79" stroke-width="1.2" stroke="#000" stroke-miterlimit="10" fill="none"/><path d="M54.676 153.117l-9.715-6.75" stroke-width="1.2" stroke="#00f" stroke-miterlimit="10" fill="none"/><path d="M44.96 146.367l-9.71-6.746" stroke-width="1.2" stroke="#000" stroke-miterlimit="10" fill="none"/><path d="M44.676 145.617h21v15h-21zm0 0" fill="#fff"/><g fill="#00f"><use xlink:href="#a" x="44.676" y="157.719"/><use xlink:href="#b" x="51.653" y="157.719"/></g><use xlink:href="#c" x="58.668" y="152.836" fill="#00f"/><path d="M35.25 139.62l1.977-23.573M37.227 116.047l21.406-10.074M58.633 105.973l9.71 6.75" stroke-width="1.2" stroke="#000" stroke-miterlimit="10" fill="none"/><path d="M68.344 112.723l9.71 6.75" stroke-width="1.2" stroke="#00f" stroke-miterlimit="10" fill="none"/><path d="M71.055 113.973h14v11h-14zm0 0" fill="#fff"/><g fill="#00f"><use xlink:href="#a" x="71.055" y="122.636"/><use xlink:href="#b" x="78.032" y="122.636"/></g><path d="M93.523 180.117l19.426 13.5M98.645 176.895l15.54 10.8M112.95 193.617l21.402-10.074M134.352 183.543l19.425 13.5M134.352 183.543l1.98-23.574M129.004 180.72l1.582-18.857M151.004 196.81l-.988 11.784" stroke-width="1.2" stroke="#000" stroke-miterlimit="10" fill="none"/><path d="M150.016 208.594l-.99 11.79" stroke-width="1.2" stroke="#f00" stroke-miterlimit="10" fill="none"/><path d="M156.55 197.273l-.988 11.786" stroke-width="1.2" stroke="#000" stroke-miterlimit="10" fill="none"/><path d="M155.563 209.06l-.99 11.788" stroke-width="1.2" stroke="#f00" stroke-miterlimit="10" fill="none"/><path d="M153.777 197.043l10.703-5.04" stroke-width="1.2" stroke="#000" stroke-miterlimit="10" fill="none"/><path d="M164.48 192.004l10.7-5.035" stroke-width="1.2" stroke="#00f" stroke-miterlimit="10" fill="none"/><path d="M147.8 215.113h8v11h-8zm0 0" fill="#fff"/><use xlink:href="#d" x="147.801" y="223.776" fill="#f00"/><path d="M175.18 186.97l9.715 6.75" stroke-width="1.2" stroke="#00f" stroke-miterlimit="10" fill="none"/><path d="M184.895 193.72l9.71 6.75" stroke-width="1.2" stroke="#000" stroke-miterlimit="10" fill="none"/><path d="M168.18 181.47h14v11h-14zm0 0" fill="#fff"/><g fill="#00f"><use xlink:href="#a" x="168.18" y="190.132"/><use xlink:href="#b" x="175.157" y="190.132"/></g><path d="M194.605 200.47l-1.976 23.57M199.957 203.29l-1.586 18.858M216.008 190.395l-21.403 10.074M192.63 224.04l19.425 13.5M212.055 237.54l21.402-10.075M211.824 231.496l17.12-8.06M233.457 227.465l1.977-23.57M235.434 203.895l-19.426-13.5M230.316 207.113l-15.54-10.797M216.008 190.395l1.98-23.57M217.988 166.824l10.7-5.04" stroke-width="1.2" stroke="#000" stroke-miterlimit="10" fill="none"/><path d="M228.688 161.785l10.703-5.035" stroke-width="1.2" stroke="#00f" stroke-miterlimit="10" fill="none"/><path d="M219.574 164.54l-9.71-6.75" stroke-width="1.2" stroke="#000" stroke-miterlimit="10" fill="none"/><path d="M209.863 157.79l-9.71-6.75" stroke-width="1.2" stroke="#f00" stroke-miterlimit="10" fill="none"/><path d="M216.398 169.11l-9.71-6.75" stroke-width="1.2" stroke="#000" stroke-miterlimit="10" fill="none"/><path d="M206.688 162.36l-9.715-6.75" stroke-width="1.2" stroke="#f00" stroke-miterlimit="10" fill="none"/><path d="M239.39 156.75l.99-11.785" stroke-width="1.2" stroke="#00f" stroke-miterlimit="10" fill="none"/><path d="M240.38 144.965l.987-11.79" stroke-width="1.2" stroke="#000" stroke-miterlimit="10" fill="none"/><path d="M232.39 151.25h14v11h-14zm0 0" fill="#fff"/><g fill="#00f"><use xlink:href="#a" x="232.391" y="159.913"/><use xlink:href="#b" x="239.368" y="159.913"/></g><path d="M241.367 133.176l10.703-5.035" stroke-width="1.2" stroke="#000" stroke-miterlimit="10" fill="none"/><path d="M252.07 128.14l10.703-5.035" stroke-width="1.2" stroke="#00f" stroke-miterlimit="10" fill="none"/><path d="M241.14 127.133l8.56-4.028" stroke-width="1.2" stroke="#000" stroke-miterlimit="10" fill="none"/><path d="M249.7 123.105l8.562-4.03" stroke-width="1.2" stroke="#00f" stroke-miterlimit="10" fill="none"/><path d="M221.945 119.68l19.422 13.496" stroke-width="1.2" stroke="#000" stroke-miterlimit="10" fill="none"/><path d="M262.773 123.105l.99-11.79" stroke-width="1.2" stroke="#00f" stroke-miterlimit="10" fill="none"/><path d="M263.762 111.316l.988-11.785" stroke-width="1.2" stroke="#000" stroke-miterlimit="10" fill="none"/><path d="M259.773 117.605h7v11h-7zm0 0" fill="#fff"/><use xlink:href="#a" x="259.773" y="126.269" fill="#00f"/><path d="M264.75 99.53l-19.426-13.5M259.633 102.754l-15.543-10.8M245.324 86.03l.988-11.784" stroke-width="1.2" stroke="#000" stroke-miterlimit="10" fill="none"/><path d="M246.313 74.246l.992-11.785" stroke-width="1.2" stroke="#0c0" stroke-miterlimit="10" fill="none"/><path d="M245.324 86.03l-21.402 10.075" stroke-width="1.2" stroke="#000" stroke-miterlimit="10" fill="none"/><path d="M242.305 56.96h10v11h-10zm0 0" fill="#fff"/><g fill="#0c0"><use xlink:href="#e" x="242.305" y="65.624"/><use xlink:href="#f" x="248.818" y="65.624"/></g><path d="M223.922 96.105l-1.977 23.575M229.27 98.93l-1.583 18.855" stroke-width="1.2" stroke="#000" stroke-miterlimit="10" fill="none"/><path d="M190.563 147.824h8v11h-8zm0 0" fill="#fff"/><use xlink:href="#d" x="190.563" y="156.487" fill="#f00"/></g></svg>