<svg xmlns="http://www.w3.org/2000/svg" xmlns:xlink="http://www.w3.org/1999/xlink" width="300pt" height="300pt" viewBox="0 0 300 300"><defs><symbol overflow="visible"><path d="M.453 1.594v-7.938h4.5v7.938zm.5-.5h3.5v-6.938h-3.5zm0 0"/></symbol><symbol overflow="visible" id="a"><path d="M4.813-6.344v.86c-.336-.157-.653-.27-.954-.344-.294-.082-.58-.125-.86-.125-.492 0-.867.094-1.125.28-.262.19-.39.454-.39.798 0 .293.085.512.265.656.176.15.504.267.984.36l.547.11c.658.125 1.142.352 1.454.672.32.312.485.734.485 1.265 0 .637-.216 1.122-.642 1.454-.43.325-1.055.485-1.875.485-.312 0-.648-.04-1-.11C1.36-.046 1-.147.625-.296v-.906c.352.2.703.35 1.047.453.35.105.695.156 1.03.156.5 0 .884-.097 1.157-.297.28-.196.42-.485.42-.86 0-.32-.1-.57-.296-.75-.2-.176-.523-.313-.968-.406l-.547-.11C1.81-3.148 1.33-3.36 1.03-3.64.74-3.923.595-4.313.595-4.813c0-.57.203-1.024.61-1.36.405-.344.968-.516 1.687-.516.313 0 .626.032.938.094.32.055.65.137.985.25zm0 0"/></symbol><symbol overflow="visible" id="b"><path d="M3.547-5.953c-.65 0-1.164.242-1.547.72-.375.48-.563 1.13-.563 1.952 0 .835.188 1.49.563 1.967.383.48.898.72 1.547.72.644 0 1.156-.24 1.53-.72.376-.476.564-1.132.564-1.968 0-.822-.187-1.474-.562-1.954-.375-.477-.887-.72-1.53-.72zm0-.734c.914 0 1.648.312 2.203.937.55.617.828 1.438.828 2.47 0 1.042-.277 1.87-.828 2.483-.555.617-1.29.922-2.203.922-.93 0-1.668-.305-2.22-.922C.774-1.41.5-2.237.5-3.28c0-1.033.273-1.853.828-2.47.55-.625 1.29-.938 2.22-.938zm0 0"/></symbol><symbol overflow="visible" id="c"><path d="M.89-6.563H2.08l2.906 5.485v-5.484h.86V0H4.656L1.75-5.484V0H.89zm0 0"/></symbol><symbol overflow="visible" id="d"><path d="M.89-6.563h.876v2.688H5v-2.688h.89V0H5v-3.125H1.766V0H.89zm0 0"/></symbol><symbol overflow="visible" id="e"><path d="M.89-6.563h3.766v.75h-2.89v1.938h2.61v.734h-2.61V0H.89zm0 0"/></symbol></defs><g><path fill="#fff" d="M0 0h300v300H0z"/><path d="M154.367 195.82l7.41-5.554" stroke-width="1.2" stroke="#cc0" stroke-miterlimit="10" fill="none"/><path d="M161.777 190.266l7.41-5.555" stroke-width="1.2" stroke="#000" stroke-miterlimit="10" fill="none"/><path d="M154.367 195.82l-8.515-3.64" stroke-width="1.2" stroke="#cc0" stroke-miterlimit="10" fill="none"/><path d="M145.852 192.18l-8.516-3.64" stroke-width="1.2" stroke="#000" stroke-miterlimit="10" fill="none"/><path d="M151.367 190.32h6v11h-6zm0 0" fill="#fff"/><use xlink:href="#a" x="151.367" y="198.983" fill="#cc0"/><path d="M169.188 184.71l17.035 7.282M186.223 191.992l14.82-11.11M201.043 180.883l17.03 7.28M215.91 188.426l1.106 9.195" stroke-width="1.2" stroke="#000" stroke-miterlimit="10" fill="none"/><path d="M217.016 197.62l1.105 9.196" stroke-width="1.2" stroke="#f00" stroke-miterlimit="10" fill="none"/><path d="M220.238 187.906l1.106 9.196" stroke-width="1.2" stroke="#000" stroke-miterlimit="10" fill="none"/><path d="M221.344 197.102l1.105 9.195" stroke-width="1.2" stroke="#f00" stroke-miterlimit="10" fill="none"/><path d="M218.074 188.164l7.41-5.555" stroke-width="1.2" stroke="#000" stroke-miterlimit="10" fill="none"/><path d="M225.484 182.61l7.41-5.555" stroke-width="1.2" stroke="#00f" stroke-miterlimit="10" fill="none"/><path d="M216.285 201.055h8v11h-8zm0 0" fill="#fff"/><use xlink:href="#b" x="216.285" y="209.718" fill="#f00"/><path d="M232.895 177.055l8.52 3.644" stroke-width="1.2" stroke="#00f" stroke-miterlimit="10" fill="none"/><path d="M241.414 180.7l8.516 3.64M230.688 158.664l1.105 9.195" stroke-width="1.2" stroke="#000" stroke-miterlimit="10" fill="none"/><path d="M231.793 167.86l1.102 9.195" stroke-width="1.2" stroke="#00f" stroke-miterlimit="10" fill="none"/><path d="M229.895 171.555h7v11h-7zm0 0" fill="#fff"/><use xlink:href="#c" x="229.895" y="180.218" fill="#00f"/><path d="M249.93 184.34l14.82-11.11M264.75 173.23l-1.105-9.195" stroke-width="1.2" stroke="#000" stroke-miterlimit="10" fill="none"/><path d="M263.645 164.035l-1.106-9.195M262.54 154.84l-8.517-3.64" stroke-width="1.2" stroke="#f00" stroke-miterlimit="10" fill="none"/><path d="M254.023 151.2l-8.515-3.645" stroke-width="1.2" stroke="#000" stroke-miterlimit="10" fill="none"/><path d="M258.54 149.34h8v11h-8zm0 0" fill="#fff"/><use xlink:href="#b" x="258.539" y="158.003" fill="#f00"/><path d="M245.508 147.555l-14.82 11.11M137.336 188.54l-7.953 4.75" stroke-width="1.2" stroke="#000" stroke-miterlimit="10" fill="none"/><path d="M129.383 193.29l-7.95 4.75" stroke-width="1.2" stroke="#00f" stroke-miterlimit="10" fill="none"/><path d="M133.512 185.75l-6.364 3.797" stroke-width="1.2" stroke="#000" stroke-miterlimit="10" fill="none"/><path d="M127.148 189.547l-6.36 3.8M133.215 170.48l2.062 9.032" stroke-width="1.2" stroke="#00f" stroke-miterlimit="10" fill="none"/><path d="M135.277 179.512l2.06 9.027" stroke-width="1.2" stroke="#000" stroke-miterlimit="10" fill="none"/><path d="M121.434 198.04l-6.973-6.095" stroke-width="1.2" stroke="#00f" stroke-miterlimit="10" fill="none"/><path d="M114.46 191.945l-6.976-6.093" stroke-width="1.2" stroke="#000" stroke-miterlimit="10" fill="none"/><path d="M118.434 192.54h7v11h-7zm0 0" fill="#fff"/><use xlink:href="#c" x="118.434" y="201.202" fill="#00f"/><path d="M107.484 185.852l7.282-17.032M112.223 185.863l5.824-13.63M107.484 185.852l-18.058 4.12M114.766 168.82l9.226.832" stroke-width="1.2" stroke="#000" stroke-miterlimit="10" fill="none"/><path d="M123.992 169.652l9.223.828" stroke-width="1.2" stroke="#00f" stroke-miterlimit="10" fill="none"/><path d="M114.766 168.82l-9.496-15.902" stroke-width="1.2" stroke="#000" stroke-miterlimit="10" fill="none"/><path d="M133.215 170.48l6.094-6.972" stroke-width="1.2" stroke="#00f" stroke-miterlimit="10" fill="none"/><path d="M139.31 163.508l6.092-6.973" stroke-width="1.2" stroke="#000" stroke-miterlimit="10" fill="none"/><path d="M130.215 164.98h7v11h-7zm0 0" fill="#fff"/><use xlink:href="#c" x="130.215" y="173.644" fill="#00f"/><path d="M145.402 156.535l18.176 3.578M163.578 160.113l6.094-6.972" stroke-width="1.2" stroke="#000" stroke-miterlimit="10" fill="none"/><path d="M169.672 153.14l6.094-6.972" stroke-width="1.2" stroke="#f00" stroke-miterlimit="10" fill="none"/><path d="M168.766 140.668h15v11h-15zm0 0" fill="#fff"/><g fill="#f00"><use xlink:href="#b" x="168.766" y="149.331"/><use xlink:href="#d" x="176.107" y="149.331"/></g><path d="M105.27 152.918l9.02-16.176M102.363 149.176l7.22-12.942M86.746 153.195l18.524-.277M114.29 136.742l-9.5-15.902M104.79 120.84l-9.26.137" stroke-width="1.2" stroke="#000" stroke-miterlimit="10" fill="none"/><path d="M95.53 120.977l-9.26.136" stroke-width="1.2" stroke="#00f" stroke-miterlimit="10" fill="none"/><path d="M103.004 125.223l-7.41.113" stroke-width="1.2" stroke="#000" stroke-miterlimit="10" fill="none"/><path d="M95.594 125.336l-7.406.11" stroke-width="1.2" stroke="#00f" stroke-miterlimit="10" fill="none"/><path d="M104.79 120.84l4.51-8.09" stroke-width="1.2" stroke="#000" stroke-miterlimit="10" fill="none"/><path d="M109.3 112.75l4.513-8.09M86.27 121.113l-4.512 8.09" stroke-width="1.2" stroke="#00f" stroke-miterlimit="10" fill="none"/><path d="M81.758 129.203l-4.512 8.09" stroke-width="1.2" stroke="#000" stroke-miterlimit="10" fill="none"/><path d="M83.27 115.613h7v11h-7zm0 0" fill="#fff"/><use xlink:href="#c" x="83.27" y="124.276" fill="#00f"/><path d="M77.246 137.293l9.5 15.902M81.938 136.648l7.6 12.72" stroke-width="1.2" stroke="#000" stroke-miterlimit="10" fill="none"/><path d="M113.813 104.66l9.26-.137" stroke-width="1.2" stroke="#00f" stroke-miterlimit="10" fill="none"/><path d="M123.074 104.523l9.258-.136" stroke-width="1.2" stroke="#000" stroke-miterlimit="10" fill="none"/><path d="M106.813 99.16h14v11h-14zm0 0" fill="#fff"/><g fill="#00f"><use xlink:href="#c" x="106.813" y="107.823"/><use xlink:href="#d" x="113.79" y="107.823"/></g><path d="M130.46 105.504l4.75 7.95" stroke-width="1.2" stroke="#000" stroke-miterlimit="10" fill="none"/><path d="M135.21 113.453l4.75 7.953" stroke-width="1.2" stroke="#f00" stroke-miterlimit="10" fill="none"/><path d="M134.203 103.27l4.75 7.95" stroke-width="1.2" stroke="#000" stroke-miterlimit="10" fill="none"/><path d="M138.953 111.22l4.75 7.948" stroke-width="1.2" stroke="#f00" stroke-miterlimit="10" fill="none"/><path d="M132.332 104.387l9.023-16.18" stroke-width="1.2" stroke="#000" stroke-miterlimit="10" fill="none"/><path d="M137.832 114.79h8v11h-8zm0 0" fill="#fff"/><use xlink:href="#b" x="137.832" y="123.452" fill="#f00"/><path d="M89.426 189.973L76.828 176.39M84.973 191.578l-10.078-10.863M83.965 207.672l5.46-17.7M76.828 176.39l-18.058 4.122M58.77 180.512l-5.46 17.7M62.387 183.566l-4.367 14.16M53.31 198.21l-9.03 2.063" stroke-width="1.2" stroke="#000" stroke-miterlimit="10" fill="none"/><path d="M44.28 200.273l-9.03 2.06" stroke-width="1.2" stroke="#3cc" stroke-miterlimit="10" fill="none"/><path d="M53.31 198.21l12.596 13.583" stroke-width="1.2" stroke="#000" stroke-miterlimit="10" fill="none"/><path d="M29.25 196.832h6v11h-6zm0 0" fill="#fff"/><use xlink:href="#e" x="29.25" y="205.495" fill="#3cc"/><path d="M65.906 211.793l18.06-4.12M66.742 207.13l14.45-3.294" stroke-width="1.2" stroke="#000" stroke-miterlimit="10" fill="none"/></g></svg>