<svg xmlns="http://www.w3.org/2000/svg" xmlns:xlink="http://www.w3.org/1999/xlink" width="300pt" height="300pt" viewBox="0 0 300 300"><defs><symbol overflow="visible"><path d="M.453 1.594v-7.938h4.5v7.938zm.5-.5h3.5v-6.938h-3.5zm0 0"/></symbol><symbol overflow="visible" id="a"><path d="M5.797-6.063v.938c-.305-.27-.625-.473-.97-.61-.335-.144-.686-.218-1.06-.218-.75 0-1.33.23-1.736.687-.397.46-.592 1.12-.592 1.985 0 .866.195 1.526.593 1.983.408.46.986.688 1.736.688.375 0 .726-.066 1.062-.203.344-.132.664-.343.97-.625V-.5c-.314.21-.642.367-.986.47-.343.1-.714.155-1.11.155-.99 0-1.772-.3-2.343-.906C.784-1.396.5-2.228.5-3.28c0-1.052.285-1.88.86-2.486.57-.613 1.35-.92 2.343-.92.395-.002.766.053 1.11.155.35.104.68.26.984.468zm0 0"/></symbol><symbol overflow="visible" id="b"><path d="M.844-6.844h.812V0H.844zm0 0"/></symbol><symbol overflow="visible" id="c"><path d="M.89-6.563H2.08l2.906 5.485v-5.484h.86V0H4.656L1.75-5.484V0H.89zm0 0"/></symbol><symbol overflow="visible" id="d"><path d="M.89-6.563h.876v2.688H5v-2.688h.89V0H5v-3.125H1.766V0H.89zm0 0"/></symbol><symbol overflow="visible" id="e"><path d="M3.547-5.953c-.65 0-1.164.242-1.547.72-.375.48-.563 1.13-.563 1.952 0 .835.188 1.49.563 1.967.383.48.898.72 1.547.72.644 0 1.156-.24 1.53-.72.376-.476.564-1.132.564-1.968 0-.822-.187-1.474-.562-1.954-.375-.477-.887-.72-1.53-.72zm0-.734c.914 0 1.648.312 2.203.937.55.617.828 1.438.828 2.47 0 1.042-.277 1.87-.828 2.483-.555.617-1.29.922-2.203.922-.93 0-1.668-.305-2.22-.922C.774-1.41.5-2.237.5-3.28c0-1.033.273-1.853.828-2.47.55-.625 1.29-.938 2.22-.938zm0 0"/></symbol></defs><g><path fill="#fff" d="M0 0h300v300H0z"/><path d="M220.664 205.21l-10.512-3.878" stroke-width="1.2" stroke="#0c0" stroke-miterlimit="10" fill="none"/><path d="M210.152 201.332l-10.51-3.875" stroke-width="1.2" stroke="#000" stroke-miterlimit="10" fill="none"/><path d="M215.664 199.71h10v11h-10zm0 0" fill="#fff"/><g fill="#0c0"><use xlink:href="#a" x="215.664" y="208.374"/><use xlink:href="#b" x="222.178" y="208.374"/></g><path d="M199.64 197.457l-17.226 14.328M194.547 194.836l-13.78 11.465M195.844 175.37l3.797 22.087M182.414 211.785l-21.023-7.754M161.39 204.03l-3.796-22.08M166.207 200.93l-3.035-17.664M157.594 181.95l-10.512-3.876" stroke-width="1.2" stroke="#000" stroke-miterlimit="10" fill="none"/><path d="M147.082 178.074l-10.512-3.88" stroke-width="1.2" stroke="#00f" stroke-miterlimit="10" fill="none"/><path d="M157.594 181.95l17.226-14.333" stroke-width="1.2" stroke="#000" stroke-miterlimit="10" fill="none"/><path d="M136.57 174.195l-1.898-11.043" stroke-width="1.2" stroke="#00f" stroke-miterlimit="10" fill="none"/><path d="M134.672 163.152l-1.9-11.04" stroke-width="1.2" stroke="#000" stroke-miterlimit="10" fill="none"/><path d="M129.57 168.695h14v11h-14zm0 0" fill="#fff"/><g fill="#00f"><use xlink:href="#c" x="129.57" y="177.358"/><use xlink:href="#d" x="136.548" y="177.358"/></g><path d="M132.773 152.113l8.614-7.168" stroke-width="1.2" stroke="#000" stroke-miterlimit="10" fill="none"/><path d="M141.387 144.945L150 137.78" stroke-width="1.2" stroke="#00f" stroke-miterlimit="10" fill="none"/><path d="M131.125 146.625l6.89-5.73" stroke-width="1.2" stroke="#000" stroke-miterlimit="10" fill="none"/><path d="M138.016 140.895l6.89-5.735" stroke-width="1.2" stroke="#00f" stroke-miterlimit="10" fill="none"/><path d="M111.75 144.36l21.023 7.753" stroke-width="1.2" stroke="#000" stroke-miterlimit="10" fill="none"/><path d="M150 137.78l-1.898-11.042" stroke-width="1.2" stroke="#00f" stroke-miterlimit="10" fill="none"/><path d="M148.102 126.738l-1.9-11.04" stroke-width="1.2" stroke="#000" stroke-miterlimit="10" fill="none"/><path d="M147 132.28h7v11h-7zm0 0" fill="#fff"/><use xlink:href="#c" x="147" y="140.944" fill="#00f"/><path d="M146.203 115.7l-10.512-3.88" stroke-width="1.2" stroke="#000" stroke-miterlimit="10" fill="none"/><path d="M135.69 111.82l-10.51-3.875" stroke-width="1.2" stroke="#00f" stroke-miterlimit="10" fill="none"/><path d="M142.277 119.87l-8.41-3.1" stroke-width="1.2" stroke="#000" stroke-miterlimit="10" fill="none"/><path d="M133.867 116.77l-8.41-3.102M125.18 107.945l-8.614 7.164" stroke-width="1.2" stroke="#00f" stroke-miterlimit="10" fill="none"/><path d="M116.566 115.11l-8.613 7.163" stroke-width="1.2" stroke="#000" stroke-miterlimit="10" fill="none"/><path d="M122.18 102.445h7v11h-7zm0 0" fill="#fff"/><use xlink:href="#c" x="122.18" y="111.108" fill="#00f"/><path d="M107.953 122.273l3.797 22.086M103.137 125.375l3.04 17.668M86.93 114.523l21.023 7.75M111.75 144.36l-17.227 14.327M94.523 158.688L73.5 150.934M94.246 152.965l-16.82-6.2M73.5 150.934l-8.613 7.168" stroke-width="1.2" stroke="#000" stroke-miterlimit="10" fill="none"/><path d="M64.887 158.102l-8.614 7.164" stroke-width="1.2" stroke="#f00" stroke-miterlimit="10" fill="none"/><path d="M73.5 150.934l-3.797-22.082" stroke-width="1.2" stroke="#000" stroke-miterlimit="10" fill="none"/><path d="M56.273 165.266l-10.51-3.875" stroke-width="1.2" stroke="#f00" stroke-miterlimit="10" fill="none"/><path d="M45.762 161.39l-10.512-3.878" stroke-width="1.2" stroke="#000" stroke-miterlimit="10" fill="none"/><path d="M52.273 159.766h8v11h-8zm0 0" fill="#fff"/><use xlink:href="#e" x="52.273" y="168.429" fill="#f00"/><path d="M69.703 128.852l-10.512-3.875" stroke-width="1.2" stroke="#000" stroke-miterlimit="10" fill="none"/><path d="M59.19 124.977l-10.51-3.88" stroke-width="1.2" stroke="#f00" stroke-miterlimit="10" fill="none"/><path d="M69.703 128.852l17.227-14.33M74.797 131.473l13.78-11.465" stroke-width="1.2" stroke="#000" stroke-miterlimit="10" fill="none"/><path d="M48.68 121.098l-1.9-11.043" stroke-width="1.2" stroke="#f00" stroke-miterlimit="10" fill="none"/><path d="M46.78 110.055l-1.897-11.04" stroke-width="1.2" stroke="#000" stroke-miterlimit="10" fill="none"/><path d="M44.68 115.598h8v11h-8zm0 0" fill="#fff"/><use xlink:href="#e" x="44.68" y="124.261" fill="#f00"/><path d="M174.82 167.617l21.024 7.754M175.098 173.34l16.82 6.203M195.844 175.37l8.613-7.163" stroke-width="1.2" stroke="#000" stroke-miterlimit="10" fill="none"/><path d="M204.457 168.207l8.613-7.164M213.07 161.043L211.172 150" stroke-width="1.2" stroke="#00f" stroke-miterlimit="10" fill="none"/><path d="M211.172 150l-1.9-11.043" stroke-width="1.2" stroke="#000" stroke-miterlimit="10" fill="none"/><path d="M206.07 155.543h14v11h-14zm0 0" fill="#fff"/><g fill="#00f"><use xlink:href="#c" x="206.07" y="164.206"/><use xlink:href="#d" x="213.048" y="164.206"/></g><path d="M210.188 136.484l-10.512-3.875" stroke-width="1.2" stroke="#000" stroke-miterlimit="10" fill="none"/><path d="M199.676 132.61l-10.512-3.88" stroke-width="1.2" stroke="#f00" stroke-miterlimit="10" fill="none"/><path d="M208.363 141.43l-10.51-3.875" stroke-width="1.2" stroke="#000" stroke-miterlimit="10" fill="none"/><path d="M197.852 137.555l-10.516-3.875" stroke-width="1.2" stroke="#f00" stroke-miterlimit="10" fill="none"/><path d="M209.273 138.957L226.5 124.63" stroke-width="1.2" stroke="#000" stroke-miterlimit="10" fill="none"/><path d="M180.25 125.703h8v11h-8zm0 0" fill="#fff"/><use xlink:href="#e" x="180.25" y="134.366" fill="#f00"/><path d="M226.5 124.63l21.023 7.753M230.426 120.457l16.82 6.203M222.703 102.543l3.797 22.086M247.523 132.383l17.227-14.332M264.75 118.05l-3.797-22.08M259.176 116.734l-3.04-17.664M260.953 95.97l-21.023-7.755M239.93 88.215l-17.227 14.328M241.578 93.7l-13.78 11.464" stroke-width="1.2" stroke="#000" stroke-miterlimit="10" fill="none"/></g></svg>