<svg xmlns="http://www.w3.org/2000/svg" xmlns:xlink="http://www.w3.org/1999/xlink" width="300pt" height="300pt" viewBox="0 0 300 300"><defs><symbol overflow="visible"><path d="M.453 1.594v-7.938h4.5v7.938zm.5-.5h3.5v-6.938h-3.5zm0 0"/></symbol><symbol overflow="visible" id="a"><path d="M4.813-6.344v.86c-.336-.157-.653-.27-.954-.344-.294-.082-.58-.125-.86-.125-.492 0-.867.094-1.125.28-.262.19-.39.454-.39.798 0 .293.085.512.265.656.176.15.504.267.984.36l.547.11c.658.125 1.142.352 1.454.672.32.312.485.734.485 1.265 0 .637-.216 1.122-.642 1.454-.43.325-1.055.485-1.875.485-.312 0-.648-.04-1-.11C1.36-.046 1-.147.625-.296v-.906c.352.2.703.35 1.047.453.35.105.695.156 1.03.156.5 0 .884-.097 1.157-.297.28-.196.42-.485.42-.86 0-.32-.1-.57-.296-.75-.2-.176-.523-.313-.968-.406l-.547-.11C1.81-3.148 1.33-3.36 1.03-3.64.74-3.923.595-4.313.595-4.813c0-.57.203-1.024.61-1.36.405-.344.968-.516 1.687-.516.313 0 .626.032.938.094.32.055.65.137.985.25zm0 0"/></symbol><symbol overflow="visible" id="b"><path d="M.89-6.563H2.08l2.906 5.485v-5.484h.86V0H4.656L1.75-5.484V0H.89zm0 0"/></symbol><symbol overflow="visible" id="c"><path d="M3.547-5.953c-.65 0-1.164.242-1.547.72-.375.48-.563 1.13-.563 1.952 0 .835.188 1.49.563 1.967.383.48.898.72 1.547.72.644 0 1.156-.24 1.53-.72.376-.476.564-1.132.564-1.968 0-.822-.187-1.474-.562-1.954-.375-.477-.887-.72-1.53-.72zm0-.734c.914 0 1.648.312 2.203.937.55.617.828 1.438.828 2.47 0 1.042-.277 1.87-.828 2.483-.555.617-1.29.922-2.203.922-.93 0-1.668-.305-2.22-.922C.774-1.41.5-2.237.5-3.28c0-1.033.273-1.853.828-2.47.55-.625 1.29-.938 2.22-.938zm0 0"/></symbol><symbol overflow="visible" id="d"><path d="M.89-6.563h.876v2.688H5v-2.688h.89V0H5v-3.125H1.766V0H.89zm0 0"/></symbol></defs><g><path fill="#fff" d="M0 0h300v300H0z"/><path d="M59.984 185.86l7.086-2.727" stroke-width="1.2" stroke="#cc0" stroke-miterlimit="10" fill="none"/><path d="M67.07 183.133l7.086-2.727M50.418 174.063l4.78 5.898" stroke-width="1.2" stroke="#000" stroke-miterlimit="10" fill="none"/><path d="M55.2 179.96l4.784 5.9" stroke-width="1.2" stroke="#cc0" stroke-miterlimit="10" fill="none"/><path d="M56.984 180.36h6v11h-6zm0 0" fill="#fff"/><use xlink:href="#a" x="56.984" y="189.022" fill="#cc0"/><path d="M74.156 180.406l-.804-15.168M70.508 179.078l-.645-12.133M73.352 165.238l-7.336-1.96" stroke-width="1.2" stroke="#000" stroke-miterlimit="10" fill="none"/><path d="M66.016 163.277l-7.336-1.957" stroke-width="1.2" stroke="#00f" stroke-miterlimit="10" fill="none"/><path d="M73.352 165.238l11.796-9.566" stroke-width="1.2" stroke="#000" stroke-miterlimit="10" fill="none"/><path d="M58.68 161.32l-4.133 6.37" stroke-width="1.2" stroke="#00f" stroke-miterlimit="10" fill="none"/><path d="M54.547 167.69l-4.13 6.373" stroke-width="1.2" stroke="#000" stroke-miterlimit="10" fill="none"/><path d="M60.852 164.54l-3.305 5.093" stroke-width="1.2" stroke="#00f" stroke-miterlimit="10" fill="none"/><path d="M57.547 169.633l-3.305 5.097" stroke-width="1.2" stroke="#000" stroke-miterlimit="10" fill="none"/><path d="M55.68 155.82h7v11h-7zm0 0" fill="#fff"/><use xlink:href="#b" x="55.68" y="164.483" fill="#00f"/><path d="M50.418 174.063l-15.168.804M85.148 155.672l7.09 2.715" stroke-width="1.2" stroke="#000" stroke-miterlimit="10" fill="none"/><path d="M92.238 158.387l7.094 2.718M99.332 161.105l5.895-4.785" stroke-width="1.2" stroke="#f00" stroke-miterlimit="10" fill="none"/><path d="M105.227 156.32l5.898-4.78" stroke-width="1.2" stroke="#000" stroke-miterlimit="10" fill="none"/><path d="M95.332 155.605h8v11h-8zm0 0" fill="#fff"/><use xlink:href="#c" x="95.332" y="164.269" fill="#f00"/><path d="M111.125 151.54l14.184 5.43M113.824 148.746l11.344 4.344M108.738 136.54l2.387 15M125.31 156.97l11.795-9.568M137.105 147.402l-2.386-14.996M133.336 146.465l-1.91-12M134.72 132.406l-14.185-5.433M134.72 132.406l11.796-9.566M120.535 126.973l-11.797 9.566M121.605 130.703l-9.437 7.656M148.277 122.56l-1.19-7.5" stroke-width="1.2" stroke="#000" stroke-miterlimit="10" fill="none"/><path d="M147.086 115.06l-1.195-7.5" stroke-width="1.2" stroke="#f00" stroke-miterlimit="10" fill="none"/><path d="M144.75 123.12l-1.195-7.5" stroke-width="1.2" stroke="#000" stroke-miterlimit="10" fill="none"/><path d="M143.555 115.62l-1.192-7.5" stroke-width="1.2" stroke="#f00" stroke-miterlimit="10" fill="none"/><path d="M146.516 122.84l7.09 2.715" stroke-width="1.2" stroke="#000" stroke-miterlimit="10" fill="none"/><path d="M153.605 125.555l7.09 2.715" stroke-width="1.2" stroke="#00f" stroke-miterlimit="10" fill="none"/><path d="M140.125 102.34h8v11h-8zm0 0" fill="#fff"/><use xlink:href="#c" x="140.125" y="111.003" fill="#f00"/><path d="M160.695 128.27l5.9-4.782" stroke-width="1.2" stroke="#00f" stroke-miterlimit="10" fill="none"/><path d="M166.594 123.488l5.898-4.785" stroke-width="1.2" stroke="#000" stroke-miterlimit="10" fill="none"/><path d="M153.695 122.77h14v11h-14zm0 0" fill="#fff"/><g fill="#00f"><use xlink:href="#b" x="153.695" y="131.433"/><use xlink:href="#d" x="160.673" y="131.433"/></g><path d="M172.492 118.703l14.184 5.434M175.188 115.91l11.347 4.348M170.105 103.707l2.387 14.996M186.676 124.137l11.797-9.567M198.473 114.57l7.09 2.715" stroke-width="1.2" stroke="#000" stroke-miterlimit="10" fill="none"/><path d="M205.563 117.285l7.09 2.72" stroke-width="1.2" stroke="#00f" stroke-miterlimit="10" fill="none"/><path d="M198.473 114.57l-2.387-15M194.703 113.633l-1.91-12" stroke-width="1.2" stroke="#000" stroke-miterlimit="10" fill="none"/><path d="M212.652 120.004l1.196 7.496" stroke-width="1.2" stroke="#00f" stroke-miterlimit="10" fill="none"/><path d="M213.848 127.5l1.19 7.5" stroke-width="1.2" stroke="#000" stroke-miterlimit="10" fill="none"/><path d="M205.652 114.504h14v11h-14zm0 0" fill="#fff"/><g fill="#00f"><use xlink:href="#b" x="205.652" y="123.167"/><use xlink:href="#d" x="212.63" y="123.167"/></g><path d="M213.914 133.613l-5.898 4.785" stroke-width="1.2" stroke="#000" stroke-miterlimit="10" fill="none"/><path d="M208.016 138.398l-5.895 4.782" stroke-width="1.2" stroke="#f00" stroke-miterlimit="10" fill="none"/><path d="M216.168 136.39l-5.898 4.782" stroke-width="1.2" stroke="#000" stroke-miterlimit="10" fill="none"/><path d="M210.27 141.172l-5.9 4.785" stroke-width="1.2" stroke="#f00" stroke-miterlimit="10" fill="none"/><path d="M215.04 135l14.183 5.434" stroke-width="1.2" stroke="#000" stroke-miterlimit="10" fill="none"/><path d="M195.246 139.066h8v11h-8zm0 0" fill="#fff"/><use xlink:href="#c" x="195.246" y="147.729" fill="#f00"/><path d="M229.223 140.434l2.386 15M232.992 141.37l1.91 12M241.02 130.867l-11.797 9.567M231.61 155.434l14.183 5.43M245.793 160.863l1.195 7.5" stroke-width="1.2" stroke="#000" stroke-miterlimit="10" fill="none"/><path d="M246.988 168.363l1.192 7.5" stroke-width="1.2" stroke="#00f" stroke-miterlimit="10" fill="none"/><path d="M245.793 160.863l11.797-9.566M244.723 157.133l9.437-7.653" stroke-width="1.2" stroke="#000" stroke-miterlimit="10" fill="none"/><path d="M248.18 175.863l-5.9 4.785" stroke-width="1.2" stroke="#00f" stroke-miterlimit="10" fill="none"/><path d="M242.28 180.648l-5.897 4.782M262.363 181.297l-7.09-2.72" stroke-width="1.2" stroke="#000" stroke-miterlimit="10" fill="none"/><path d="M255.273 178.578l-7.093-2.715" stroke-width="1.2" stroke="#00f" stroke-miterlimit="10" fill="none"/><path d="M245.18 170.363h7v11h-7zm0 0" fill="#fff"/><use xlink:href="#b" x="245.18" y="179.026" fill="#00f"/><path d="M236.383 185.43l2.387 15M238.77 200.43l7.093 2.715" stroke-width="1.2" stroke="#000" stroke-miterlimit="10" fill="none"/><path d="M245.863 203.145l7.09 2.714M252.953 205.86l5.9-4.782" stroke-width="1.2" stroke="#f00" stroke-miterlimit="10" fill="none"/><path d="M258.852 201.078l5.898-4.785" stroke-width="1.2" stroke="#000" stroke-miterlimit="10" fill="none"/><path d="M248.953 200.36h8v11h-8zm0 0" fill="#fff"/><use xlink:href="#c" x="248.953" y="209.022" fill="#f00"/><path d="M264.75 196.293l-2.387-14.996M257.59 151.297l-2.387-14.996M255.203 136.3l-14.183-5.433M252.508 139.094l-11.348-4.348M196.086 99.57l-14.184-5.43M181.902 94.14l-11.797 9.567M182.973 97.87l-9.438 7.653M170.105 103.707l-14.183-5.434" stroke-width="1.2" stroke="#000" stroke-miterlimit="10" fill="none"/></g></svg>