<svg xmlns="http://www.w3.org/2000/svg" xmlns:xlink="http://www.w3.org/1999/xlink" width="300pt" height="300pt" viewBox="0 0 300 300"><defs><symbol overflow="visible"><path d="M.547 1.938V-7.75h5.5v9.688zm.625-.61h4.266v-8.47H1.171zm0 0"/></symbol><symbol overflow="visible" id="a"><path d="M5.89-7.75v1.047c-.417-.195-.808-.344-1.17-.438-.368-.094-.72-.14-1.064-.14-.586 0-1.04.116-1.36.343-.323.23-.483.554-.483.968 0 .357.1.626.312.814.22.18.625.324 1.22.437L4-4.593c.813.157 1.41.434 1.797.828.383.387.578.903.578 1.547 0 .783-.262 1.376-.78 1.783-.525.398-1.29.593-2.298.593-.375 0-.78-.047-1.22-.14C1.648-.066 1.208-.19.75-.36v-1.11c.445.25.88.44 1.297.564.426.125.844.187 1.25.187.625 0 1.1-.116 1.437-.358.332-.25.5-.598.5-1.047 0-.395-.12-.703-.36-.922-.24-.226-.636-.398-1.186-.515l-.657-.126c-.81-.156-1.4-.406-1.764-.75C.898-4.78.72-5.258.72-5.875c0-.707.25-1.266.75-1.672.5-.414 1.19-.625 2.077-.625.375 0 .754.04 1.14.11.395.074.797.18 1.204.312zm0 0"/></symbol><symbol overflow="visible" id="b"><path d="M4.328-7.28c-.78 0-1.406.296-1.875.89-.46.585-.687 1.382-.687 2.39 0 1.012.226 1.813.687 2.406.47.586 1.094.875 1.875.875.79 0 1.414-.288 1.875-.874.457-.593.688-1.394.688-2.406 0-1.008-.23-1.805-.687-2.39-.46-.594-1.086-.89-1.875-.89zm0-.892c1.125 0 2.024.383 2.703 1.14C7.708-6.28 8.048-5.27 8.048-4c0 1.262-.34 2.273-1.016 3.03C6.353-.22 5.454.157 4.33.157S2.3-.22 1.625-.97c-.668-.75-1-1.757-1-3.03 0-1.27.332-2.28 1-3.03.676-.76 1.578-1.142 2.703-1.142zm0 0"/></symbol><symbol overflow="visible" id="c"><path d="M1.078-8.016h1.47l3.546 6.704v-6.704h1.062V0H5.688L2.124-6.703V0H1.078zm0 0"/></symbol><symbol overflow="visible" id="d"><path d="M1.078-8.016h1.094v3.282H6.11v-3.282h1.077V0H6.11v-3.813H2.17V0H1.078zm0 0"/></symbol><symbol overflow="visible" id="f"><path d="M1.078-8.016h4.61v.907H2.171v2.36h3.172v.922H2.172V0H1.078zm0 0"/></symbol><symbol overflow="visible"><path d="M.453 1.594v-7.938h4.5v7.938zm.5-.5h3.5v-6.938h-3.5zm0 0"/></symbol><symbol overflow="visible" id="e"><path d="M1.734-.75h3.094V0H.656v-.75c.344-.344.8-.805 1.375-1.39.583-.594.954-.973 1.11-1.14.282-.322.473-.595.58-.814.112-.226.17-.445.17-.656 0-.352-.12-.64-.36-.86-.24-.218-.557-.327-.952-.327-.28 0-.578.054-.89.156-.305.093-.633.24-.985.436v-.906c.352-.133.688-.238 1-.313.313-.082.598-.125.86-.125.675 0 1.218.172 1.624.516.407.344.61.797.61 1.36 0 .273-.055.53-.156.78-.105.243-.288.524-.546.845-.074.085-.31.328-.703.734-.398.406-.95.976-1.656 1.703zm0 0"/></symbol></defs><g><path fill="#fff" d="M0 0h300v300H0z"/><path d="M67.813 149.855l12.402 4.395" stroke-width="1.2" stroke="#cc0" stroke-miterlimit="10" fill="none"/><path d="M80.215 154.25l12.402 4.395" stroke-width="1.2" stroke="#f00" stroke-miterlimit="10" fill="none"/><path d="M69.88 144.02l12.4 4.394" stroke-width="1.2" stroke="#cc0" stroke-miterlimit="10" fill="none"/><path d="M82.28 148.414l12.404 4.39" stroke-width="1.2" stroke="#f00" stroke-miterlimit="10" fill="none"/><path d="M69.88 144.02l-12.403-4.395" stroke-width="1.2" stroke="#cc0" stroke-miterlimit="10" fill="none"/><path d="M57.477 139.625L45.07 135.23" stroke-width="1.2" stroke="#f00" stroke-miterlimit="10" fill="none"/><path d="M67.813 149.855l-12.407-4.394" stroke-width="1.2" stroke="#cc0" stroke-miterlimit="10" fill="none"/><path d="M55.406 145.46l-12.402-4.39" stroke-width="1.2" stroke="#f00" stroke-miterlimit="10" fill="none"/><path d="M68.844 146.938l4.394-12.403" stroke-width="1.2" stroke="#cc0" stroke-miterlimit="10" fill="none"/><path d="M73.238 134.535l4.395-12.406" stroke-width="1.2" stroke="#00f" stroke-miterlimit="10" fill="none"/><path d="M68.844 146.938L64.45 159.34" stroke-width="1.2" stroke="#cc0" stroke-miterlimit="10" fill="none"/><path d="M64.45 159.34l-4.39 12.406" stroke-width="1.2" stroke="#000" stroke-miterlimit="10" fill="none"/><path d="M65.844 140.438h7v13h-7zm0 0" fill="#fff"/><use xlink:href="#a" x="65.844" y="150.339" fill="#cc0"/><path d="M89.652 149.227h9v13h-9zm0 0" fill="#fff"/><use xlink:href="#b" x="89.652" y="159.128" fill="#f00"/><path d="M35.04 131.648h9v13h-9zm0 0" fill="#fff"/><use xlink:href="#b" x="35.039" y="141.55" fill="#f00"/><path d="M77.633 122.13l12.617-3.735" stroke-width="1.2" stroke="#00f" stroke-miterlimit="10" fill="none"/><path d="M90.25 118.395l12.617-3.735M62.727 100.44l7.453 10.845" stroke-width="1.2" stroke="#000" stroke-miterlimit="10" fill="none"/><path d="M70.18 111.285l7.453 10.844" stroke-width="1.2" stroke="#00f" stroke-miterlimit="10" fill="none"/><path d="M73.633 115.63h8v13h-8zm0 0" fill="#fff"/><use xlink:href="#c" x="73.633" y="125.53" fill="#00f"/><path d="M102.867 114.66l22.438 13.75M108.348 110.754l17.95 11.004M103.56 88.352l-.693 26.308M125.305 128.41l23.13-12.555M148.434 115.855l.69-26.308M142.313 113.063l.554-21.047M148.434 115.855l22.437 13.754M149.125 89.547l-22.438-13.754M126.688 75.793l-23.13 12.56M127.328 82.492l-18.504 10.043M103.56 88.352L91.15 83.957" stroke-width="1.2" stroke="#000" stroke-miterlimit="10" fill="none"/><path d="M91.152 83.957L78.75 79.563M78.75 79.563L70.738 90" stroke-width="1.2" stroke="#00f" stroke-miterlimit="10" fill="none"/><path d="M70.738 90l-8.01 10.44" stroke-width="1.2" stroke="#000" stroke-miterlimit="10" fill="none"/><path d="M82.063 85.422l-6.41 8.35" stroke-width="1.2" stroke="#00f" stroke-miterlimit="10" fill="none"/><path d="M75.652 93.773l-6.41 8.348" stroke-width="1.2" stroke="#000" stroke-miterlimit="10" fill="none"/><path d="M74.75 73.063h8v13h-8zm0 0" fill="#fff"/><use xlink:href="#c" x="74.75" y="82.964" fill="#00f"/><path d="M62.727 100.44l-13.153-.346" stroke-width="1.2" stroke="#000" stroke-miterlimit="10" fill="none"/><path d="M49.574 100.094l-13.156-.344" stroke-width="1.2" stroke="#00f" stroke-miterlimit="10" fill="none"/><path d="M14.418 91.25h22v17h-22zm0 0" fill="#fff"/><use xlink:href="#d" x="14.418" y="101.151" fill="#00f"/><use xlink:href="#e" x="22.442" y="106.034" fill="#00f"/><use xlink:href="#c" x="28.099" y="101.151" fill="#00f"/><path d="M170.87 129.61l12.16-5.036" stroke-width="1.2" stroke="#000" stroke-miterlimit="10" fill="none"/><path d="M183.03 124.574l12.157-5.035" stroke-width="1.2" stroke="#00f" stroke-miterlimit="10" fill="none"/><path d="M172.934 155.844l-2.063-26.235M178.902 152.738l-1.652-20.992" stroke-width="1.2" stroke="#000" stroke-miterlimit="10" fill="none"/><path d="M195.188 119.54l8.542 10.007" stroke-width="1.2" stroke="#00f" stroke-miterlimit="10" fill="none"/><path d="M203.73 129.547l8.547 10.008" stroke-width="1.2" stroke="#000" stroke-miterlimit="10" fill="none"/><path d="M187.188 113.04h17v13h-17zm0 0" fill="#fff"/><g fill="#00f"><use xlink:href="#c" x="187.188" y="122.94"/><use xlink:href="#d" x="195.171" y="122.94"/></g><path d="M212.277 139.555l-6.88 11.218" stroke-width="1.2" stroke="#000" stroke-miterlimit="10" fill="none"/><path d="M205.398 150.773l-6.875 11.22" stroke-width="1.2" stroke="#00f" stroke-miterlimit="10" fill="none"/><path d="M205.62 138.563l-5.5 8.972" stroke-width="1.2" stroke="#000" stroke-miterlimit="10" fill="none"/><path d="M200.12 147.535l-5.5 8.977" stroke-width="1.2" stroke="#00f" stroke-miterlimit="10" fill="none"/><path d="M212.277 139.555l26.235-2.063" stroke-width="1.2" stroke="#000" stroke-miterlimit="10" fill="none"/><path d="M198.523 161.992l-12.793-3.074" stroke-width="1.2" stroke="#00f" stroke-miterlimit="10" fill="none"/><path d="M185.73 158.918l-12.796-3.074" stroke-width="1.2" stroke="#000" stroke-miterlimit="10" fill="none"/><path d="M194.523 155.492h8v13h-8zm0 0" fill="#fff"/><use xlink:href="#c" x="194.523" y="165.394" fill="#00f"/><path d="M172.934 155.844l-20.012 17.094M152.922 172.938l-24.81-8.79M148.37 177.895l-19.843-7.032M157.715 198.813l-4.793-25.875M128.113 164.148l-20.01 17.09M108.102 181.238l4.793 25.88M114.668 182.7l3.836 20.698M112.895 207.117l-10.008 8.543" stroke-width="1.2" stroke="#000" stroke-miterlimit="10" fill="none"/><path d="M102.887 215.66l-10.008 8.547" stroke-width="1.2" stroke="#3cc" stroke-miterlimit="10" fill="none"/><path d="M112.895 207.117l24.804 8.785" stroke-width="1.2" stroke="#000" stroke-miterlimit="10" fill="none"/><path d="M85.88 217.707h7v13h-7zm0 0" fill="#fff"/><use xlink:href="#f" x="85.879" y="227.608" fill="#3cc"/><path d="M137.7 215.902l20.015-17.09M135.68 209.484l16.01-13.672M157.715 198.813l12.402 4.394" stroke-width="1.2" stroke="#000" stroke-miterlimit="10" fill="none"/><path d="M170.117 203.207l12.403 4.395" stroke-width="1.2" stroke="#3cc" stroke-miterlimit="10" fill="none"/><path d="M179.52 201.102h7v13h-7zm0 0" fill="#fff"/><use xlink:href="#f" x="179.52" y="211.003" fill="#3cc"/><path d="M238.512 137.492l2.062 26.235M238.512 137.492l-2.063-26.238M238.512 137.492l26.238-2.062M60.06 171.746l-24.81-8.79M60.06 171.746l24.803 8.785M60.06 171.746l-8.79 24.805" stroke-width="1.2" stroke="#000" stroke-miterlimit="10" fill="none"/></g></svg>