<svg xmlns="http://www.w3.org/2000/svg" xmlns:xlink="http://www.w3.org/1999/xlink" width="300pt" height="300pt" viewBox="0 0 300 300"><defs><symbol overflow="visible"><path d="M.453 1.594v-7.938h4.5v7.938zm.5-.5h3.5v-6.938h-3.5zm0 0"/></symbol><symbol overflow="visible" id="a"><path d="M.89-6.563h3.766v.75h-2.89v1.938h2.61v.734h-2.61V0H.89zm0 0"/></symbol><symbol overflow="visible" id="b"><path d="M.89-6.563H2.08l2.906 5.485v-5.484h.86V0H4.656L1.75-5.484V0H.89zm0 0"/></symbol><symbol overflow="visible" id="c"><path d="M3.547-5.953c-.65 0-1.164.242-1.547.72-.375.48-.563 1.13-.563 1.952 0 .835.188 1.49.563 1.967.383.48.898.72 1.547.72.644 0 1.156-.24 1.53-.72.376-.476.564-1.132.564-1.968 0-.822-.187-1.474-.562-1.954-.375-.477-.887-.72-1.53-.72zm0-.734c.914 0 1.648.312 2.203.937.55.617.828 1.438.828 2.47 0 1.042-.277 1.87-.828 2.483-.555.617-1.29.922-2.203.922-.93 0-1.668-.305-2.22-.922C.774-1.41.5-2.237.5-3.28c0-1.033.273-1.853.828-2.47.55-.625 1.29-.938 2.22-.938zm0 0"/></symbol><symbol overflow="visible" id="d"><path d="M.89-6.563h.876v2.688H5v-2.688h.89V0H5v-3.125H1.766V0H.89zm0 0"/></symbol><symbol overflow="visible"><path d="M.406 1.422V-5.64h4V1.42zM.844.97h3.11v-6.157H.843zm0 0"/></symbol><symbol overflow="visible" id="e"><path d="M1.53-.672h2.767V0H.594v-.672c.29-.3.695-.71 1.22-1.234.518-.532.842-.867.967-1.016.26-.28.44-.52.533-.72.1-.194.156-.39.156-.577 0-.31-.11-.565-.33-.764-.218-.196-.5-.297-.843-.297-.25 0-.516.046-.797.14-.273.085-.563.214-.875.39v-.797c.32-.133.617-.234.89-.297.282-.062.536-.093.766-.093.603 0 1.083.152 1.44.453.362.304.546.703.546 1.203 0 .24-.047.468-.14.686-.095.22-.26.477-.485.766-.074.074-.288.293-.64.656-.344.356-.836.856-1.47 1.5zm0 0"/></symbol></defs><g><path fill="#fff" d="M0 0h300v300H0z"/><path d="M35.25 144.457l8.37 2.898" stroke-width="1.2" stroke="#3cc" stroke-miterlimit="10" fill="none"/><path d="M43.62 147.355l8.372 2.9" stroke-width="1.2" stroke="#000" stroke-miterlimit="10" fill="none"/><path d="M29.25 138.957h6v11h-6zm0 0" fill="#fff"/><use xlink:href="#a" x="29.25" y="147.62" fill="#3cc"/><path d="M51.992 150.254l13.39-11.598M56.06 152.246l10.713-9.28M55.34 167.648l-3.348-17.394M65.383 138.656l16.738 5.797M82.12 144.453l3.353 17.395M78.363 146.98l2.68 13.918M85.473 161.848l-13.395 11.6M85.473 161.848l16.738 5.8M72.078 173.45l-16.738-5.802M71.77 168.93l-13.39-4.64M102.21 167.648l2.575 8.473" stroke-width="1.2" stroke="#000" stroke-miterlimit="10" fill="none"/><path d="M104.785 176.12l2.574 8.478" stroke-width="1.2" stroke="#00f" stroke-miterlimit="10" fill="none"/><path d="M116.742 157.512l-14.53 10.136M117.672 161.945l-11.62 8.106" stroke-width="1.2" stroke="#000" stroke-miterlimit="10" fill="none"/><path d="M107.36 184.598l8.855.172" stroke-width="1.2" stroke="#00f" stroke-miterlimit="10" fill="none"/><path d="M116.215 184.77l8.86.167" stroke-width="1.2" stroke="#000" stroke-miterlimit="10" fill="none"/><path d="M109.21 180.465l7.087.137" stroke-width="1.2" stroke="#00f" stroke-miterlimit="10" fill="none"/><path d="M116.297 180.602l7.086.136" stroke-width="1.2" stroke="#000" stroke-miterlimit="10" fill="none"/><path d="M104.36 179.098h7v11h-7zm0 0" fill="#fff"/><use xlink:href="#b" x="104.359" y="187.761" fill="#00f"/><path d="M125.074 184.938l2.9-8.368" stroke-width="1.2" stroke="#000" stroke-miterlimit="10" fill="none"/><path d="M127.973 176.57l2.898-8.37" stroke-width="1.2" stroke="#00f" stroke-miterlimit="10" fill="none"/><path d="M139.203 195.625l-14.13-10.688" stroke-width="1.2" stroke="#000" stroke-miterlimit="10" fill="none"/><path d="M130.87 168.2l8.857.17" stroke-width="1.2" stroke="#00f" stroke-miterlimit="10" fill="none"/><path d="M139.727 168.37l8.855.17" stroke-width="1.2" stroke="#000" stroke-miterlimit="10" fill="none"/><path d="M130.87 168.2l-7.065-5.345" stroke-width="1.2" stroke="#00f" stroke-miterlimit="10" fill="none"/><path d="M123.805 162.855l-7.063-5.343" stroke-width="1.2" stroke="#000" stroke-miterlimit="10" fill="none"/><path d="M127.87 162.7h7v11h-7zm0 0" fill="#fff"/><use xlink:href="#b" x="127.871" y="171.362" fill="#00f"/><path d="M148.582 168.54l5.152 16.952" stroke-width="1.2" stroke="#000" stroke-miterlimit="10" fill="none"/><path d="M148.582 168.54m2.2-2.04l-.833-.633m3.03-1.41l-1.664-1.258m3.86-.786l-2.492-1.887m4.69-.156l-3.323-2.515m5.524.477l-4.16-3.144m6.352 1.11l-4.99-3.775" stroke="#000" stroke-miterlimit="10" fill="none"/><path d="M153.734 185.492l-14.53 10.133M159.27 154.41l8.79 1.094" stroke-width="1.2" stroke="#000" stroke-miterlimit="10" fill="none"/><path d="M168.06 155.504l8.792 1.098M176.852 156.602l5.343-7.067" stroke-width="1.2" stroke="#f00" stroke-miterlimit="10" fill="none"/><path d="M182.195 149.535l5.344-7.062" stroke-width="1.2" stroke="#000" stroke-miterlimit="10" fill="none"/><path d="M172.852 151.102h8v11h-8zm0 0" fill="#fff"/><use xlink:href="#c" x="172.852" y="159.765" fill="#f00"/><path d="M187.54 142.473l17.577 2.19M205.117 144.664l6.895 16.316M209.648 144.672l5.512 13.058M215.805 130.53l-10.688 14.134M212.012 160.98l17.578 2.192M229.59 163.172l10.687-14.13M227.336 159.246l8.547-11.305M240.277 149.043l8.79 1.098" stroke-width="1.2" stroke="#000" stroke-miterlimit="10" fill="none"/><path d="M249.066 150.14l8.79 1.094" stroke-width="1.2" stroke="#f00" stroke-miterlimit="10" fill="none"/><path d="M240.277 149.043l-6.894-16.32" stroke-width="1.2" stroke="#000" stroke-miterlimit="10" fill="none"/><path d="M257.855 151.234l3.45 8.16" stroke-width="1.2" stroke="#f00" stroke-miterlimit="10" fill="none"/><path d="M261.305 159.395l3.445 8.16" stroke-width="1.2" stroke="#000" stroke-miterlimit="10" fill="none"/><path d="M253.855 145.734h8v11h-8zm0 0" fill="#fff"/><use xlink:href="#c" x="253.855" y="154.397" fill="#f00"/><path d="M233.383 132.723l-17.578-2.192M231.11 136.64l-14.063-1.753M116.742 157.512l.34-17.71M117.082 139.8l7.754-4.28" stroke-width="1.2" stroke="#000" stroke-miterlimit="10" fill="none"/><path d="M124.836 135.52l7.758-4.282" stroke-width="1.2" stroke="#00f" stroke-miterlimit="10" fill="none"/><path d="M116.62 135.293l6.204-3.426" stroke-width="1.2" stroke="#000" stroke-miterlimit="10" fill="none"/><path d="M122.824 131.867l6.203-3.422" stroke-width="1.2" stroke="#00f" stroke-miterlimit="10" fill="none"/><path d="M101.914 130.648l15.168 9.153" stroke-width="1.2" stroke="#000" stroke-miterlimit="10" fill="none"/><path d="M132.594 131.238l.168-8.855" stroke-width="1.2" stroke="#00f" stroke-miterlimit="10" fill="none"/><path d="M132.762 122.383l.172-8.856" stroke-width="1.2" stroke="#000" stroke-miterlimit="10" fill="none"/><path d="M129.594 125.738h7v11h-7zm0 0" fill="#fff"/><use xlink:href="#b" x="129.594" y="134.401" fill="#00f"/><path d="M132.934 113.527l-7.586-4.578" stroke-width="1.2" stroke="#000" stroke-miterlimit="10" fill="none"/><path d="M125.348 108.95l-7.582-4.575" stroke-width="1.2" stroke="#00f" stroke-miterlimit="10" fill="none"/><path d="M129.262 116.18l-6.067-3.66" stroke-width="1.2" stroke="#000" stroke-miterlimit="10" fill="none"/><path d="M123.195 112.52l-6.066-3.66" stroke-width="1.2" stroke="#00f" stroke-miterlimit="10" fill="none"/><path d="M132.934 113.527l7.754-4.28" stroke-width="1.2" stroke="#000" stroke-miterlimit="10" fill="none"/><path d="M140.688 109.246l7.757-4.28M117.766 104.375l-7.758 4.28" stroke-width="1.2" stroke="#00f" stroke-miterlimit="10" fill="none"/><path d="M110.008 108.656l-7.754 4.278" stroke-width="1.2" stroke="#000" stroke-miterlimit="10" fill="none"/><path d="M114.766 98.875h7v11h-7zm0 0" fill="#fff"/><use xlink:href="#b" x="114.766" y="107.538" fill="#00f"/><path d="M102.254 112.934l-.34 17.714M106.387 114.785l-.274 14.172" stroke-width="1.2" stroke="#000" stroke-miterlimit="10" fill="none"/><path d="M139.445 96.965h19v16h-19zm0 0" fill="#fff"/><g fill="#00f"><use xlink:href="#b" x="139.445" y="105.628"/><use xlink:href="#d" x="146.423" y="105.628"/></g><use xlink:href="#e" x="153.438" y="110.511" fill="#00f"/></g></svg>