<svg xmlns="http://www.w3.org/2000/svg" xmlns:xlink="http://www.w3.org/1999/xlink" width="300pt" height="300pt" viewBox="0 0 300 300"><defs><symbol overflow="visible"><path d="M.453 1.594v-7.938h4.5v7.938zm.5-.5h3.5v-6.938h-3.5zm0 0"/></symbol><symbol overflow="visible" id="a"><path d="M.89-6.563h3.766v.75h-2.89v1.938h2.61v.734h-2.61V0H.89zm0 0"/></symbol><symbol overflow="visible" id="b"><path d="M3.547-5.953c-.65 0-1.164.242-1.547.72-.375.48-.563 1.13-.563 1.952 0 .835.188 1.49.563 1.967.383.48.898.72 1.547.72.644 0 1.156-.24 1.53-.72.376-.476.564-1.132.564-1.968 0-.822-.187-1.474-.562-1.954-.375-.477-.887-.72-1.53-.72zm0-.734c.914 0 1.648.312 2.203.937.55.617.828 1.438.828 2.47 0 1.042-.277 1.87-.828 2.483-.555.617-1.29.922-2.203.922-.93 0-1.668-.305-2.22-.922C.774-1.41.5-2.237.5-3.28c0-1.033.273-1.853.828-2.47.55-.625 1.29-.938 2.22-.938zm0 0"/></symbol><symbol overflow="visible" id="c"><path d="M.89-6.563H2.08l2.906 5.485v-5.484h.86V0H4.656L1.75-5.484V0H.89zm0 0"/></symbol><symbol overflow="visible" id="d"><path d="M.89-6.563h.876v2.688H5v-2.688h.89V0H5v-3.125H1.766V0H.89zm0 0"/></symbol></defs><g><path fill="#fff" d="M0 0h300v300H0z"/><path d="M254.813 167.328l-3.895-8.867" stroke-width="1.2" stroke="#3cc" stroke-miterlimit="10" fill="none"/><path d="M250.918 158.46l-3.898-8.862" stroke-width="1.2" stroke="#000" stroke-miterlimit="10" fill="none"/><path d="M251.813 161.828h6v11h-6zm0 0" fill="#fff"/><use xlink:href="#a" x="251.813" y="170.491" fill="#3cc"/><path d="M247.02 149.598l8.867-3.9" stroke-width="1.2" stroke="#000" stroke-miterlimit="10" fill="none"/><path d="M255.887 145.7l8.863-3.895" stroke-width="1.2" stroke="#3cc" stroke-miterlimit="10" fill="none"/><path d="M247.02 149.598l-8.864 3.894" stroke-width="1.2" stroke="#000" stroke-miterlimit="10" fill="none"/><path d="M238.156 153.492l-8.867 3.9" stroke-width="1.2" stroke="#3cc" stroke-miterlimit="10" fill="none"/><path d="M247.02 149.598l-3.9-8.868" stroke-width="1.2" stroke="#000" stroke-miterlimit="10" fill="none"/><path d="M243.12 140.73l-3.893-8.863" stroke-width="1.2" stroke="#f00" stroke-miterlimit="10" fill="none"/><path d="M261.75 136.305h6v11h-6zm0 0" fill="#fff"/><use xlink:href="#a" x="261.75" y="144.968" fill="#3cc"/><path d="M223.29 151.89h6v11h-6zm0 0" fill="#fff"/><use xlink:href="#a" x="223.289" y="160.554" fill="#3cc"/><path d="M239.227 131.867l-9.625-1.058" stroke-width="1.2" stroke="#f00" stroke-miterlimit="10" fill="none"/><path d="M229.602 130.81l-9.63-1.06" stroke-width="1.2" stroke="#000" stroke-miterlimit="10" fill="none"/><path d="M235.227 126.367h8v11h-8zm0 0" fill="#fff"/><use xlink:href="#b" x="235.227" y="135.03" fill="#f00"/><path d="M219.973 129.75l-11.457 15.617M215.152 128.617l-9.164 12.492M212.18 112.02l7.793 17.73M208.516 145.367l-19.25-2.117M189.266 143.25l-7.797-17.73M192.656 139.645l-6.234-14.184M189.266 143.25l-11.46 15.613M181.47 125.52l11.46-15.614M192.93 109.906l19.25 2.114M194.355 114.648l15.403 1.692M177.805 158.863l-9.625-1.054" stroke-width="1.2" stroke="#000" stroke-miterlimit="10" fill="none"/><path d="M168.18 157.81l-9.625-1.06M158.555 156.75l-5.73 7.81" stroke-width="1.2" stroke="#00f" stroke-miterlimit="10" fill="none"/><path d="M152.824 164.56l-5.726 7.803" stroke-width="1.2" stroke="#000" stroke-miterlimit="10" fill="none"/><path d="M151.555 151.25h14v11h-14zm0 0" fill="#fff"/><g fill="#00f"><use xlink:href="#c" x="151.555" y="159.913"/><use xlink:href="#d" x="158.532" y="159.913"/></g><path d="M145.012 173.28l3.894 8.868" stroke-width="1.2" stroke="#000" stroke-miterlimit="10" fill="none"/><path d="M148.906 182.148l3.9 8.864" stroke-width="1.2" stroke="#f00" stroke-miterlimit="10" fill="none"/><path d="M149.184 171.45l3.894 8.863" stroke-width="1.2" stroke="#000" stroke-miterlimit="10" fill="none"/><path d="M153.078 180.313l3.9 8.867" stroke-width="1.2" stroke="#f00" stroke-miterlimit="10" fill="none"/><path d="M147.098 172.363l-19.254-2.113" stroke-width="1.2" stroke="#000" stroke-miterlimit="10" fill="none"/><path d="M150.89 184.594h8v11h-8zm0 0" fill="#fff"/><use xlink:href="#b" x="150.891" y="193.257" fill="#f00"/><path d="M127.844 170.25l-7.793-17.73M122.895 170.31l-6.235-14.185M116.387 185.863l11.457-15.613M120.05 152.52l-19.25-2.118M100.8 150.402L89.34 166.02M103.328 154.66l-9.168 12.492M89.34 166.02l-9.625-1.06" stroke-width="1.2" stroke="#000" stroke-miterlimit="10" fill="none"/><path d="M79.715 164.96l-9.625-1.058" stroke-width="1.2" stroke="#f00" stroke-miterlimit="10" fill="none"/><path d="M89.34 166.02l7.797 17.73" stroke-width="1.2" stroke="#000" stroke-miterlimit="10" fill="none"/><path d="M70.09 163.902l-3.9-8.863" stroke-width="1.2" stroke="#f00" stroke-miterlimit="10" fill="none"/><path d="M66.19 155.04l-3.893-8.868" stroke-width="1.2" stroke="#000" stroke-miterlimit="10" fill="none"/><path d="M66.09 158.402h8v11h-8zm0 0" fill="#fff"/><use xlink:href="#b" x="66.09" y="167.065" fill="#f00"/><path d="M62.297 146.172l11.457-15.613M59.766 141.914l9.168-12.492M43.043 144.055l19.254 2.117M73.754 130.56l-7.793-17.732M65.96 112.828l-19.253-2.117M63.535 117.145l-15.398-1.692M46.707 110.71L35.25 126.33M35.25 126.328l7.793 17.727M40.203 126.266l6.234 14.183M97.137 183.75l19.25 2.113M99.56 179.43l15.4 1.69" stroke-width="1.2" stroke="#000" stroke-miterlimit="10" fill="none"/></g></svg>