<svg xmlns="http://www.w3.org/2000/svg" xmlns:xlink="http://www.w3.org/1999/xlink" width="300pt" height="300pt" viewBox="0 0 300 300"><defs><symbol overflow="visible"><path d="M.547 1.938V-7.75h5.5v9.688zm.625-.61h4.266v-8.47H1.171zm0 0"/></symbol><symbol overflow="visible" id="a"><path d="M1.078-8.016h1.47l3.546 6.704v-6.704h1.062V0H5.688L2.124-6.703V0H1.078zm0 0"/></symbol><symbol overflow="visible" id="b"><path d="M1.078-8.016h1.094v3.282H6.11v-3.282h1.077V0H6.11v-3.813H2.17V0H1.078zm0 0"/></symbol><symbol overflow="visible" id="d"><path d="M5.89-7.75v1.047c-.417-.195-.808-.344-1.17-.438-.368-.094-.72-.14-1.064-.14-.586 0-1.04.116-1.36.343-.323.23-.483.554-.483.968 0 .357.1.626.312.814.22.18.625.324 1.22.437L4-4.593c.813.157 1.41.434 1.797.828.383.387.578.903.578 1.547 0 .783-.262 1.376-.78 1.783-.525.398-1.29.593-2.298.593-.375 0-.78-.047-1.22-.14C1.648-.066 1.208-.19.75-.36v-1.11c.445.25.88.44 1.297.564.426.125.844.187 1.25.187.625 0 1.1-.116 1.437-.358.332-.25.5-.598.5-1.047 0-.395-.12-.703-.36-.922-.24-.226-.636-.398-1.186-.515l-.657-.126c-.81-.156-1.4-.406-1.764-.75C.898-4.78.72-5.258.72-5.875c0-.707.25-1.266.75-1.672.5-.414 1.19-.625 2.077-.625.375 0 .754.04 1.14.11.395.074.797.18 1.204.312zm0 0"/></symbol><symbol overflow="visible" id="e"><path d="M4.328-7.28c-.78 0-1.406.296-1.875.89-.46.585-.687 1.382-.687 2.39 0 1.012.226 1.813.687 2.406.47.586 1.094.875 1.875.875.79 0 1.414-.288 1.875-.874.457-.593.688-1.394.688-2.406 0-1.008-.23-1.805-.687-2.39-.46-.594-1.086-.89-1.875-.89zm0-.892c1.125 0 2.024.383 2.703 1.14C7.708-6.28 8.048-5.27 8.048-4c0 1.262-.34 2.273-1.016 3.03C6.353-.22 5.454.157 4.33.157S2.3-.22 1.625-.97c-.668-.75-1-1.757-1-3.03 0-1.27.332-2.28 1-3.03.676-.76 1.578-1.142 2.703-1.142zm0 0"/></symbol><symbol overflow="visible"><path d="M.453 1.594v-7.938h4.5v7.938zm.5-.5h3.5v-6.938h-3.5zm0 0"/></symbol><symbol overflow="visible" id="c"><path d="M1.734-.75h3.094V0H.656v-.75c.344-.344.8-.805 1.375-1.39.583-.594.954-.973 1.11-1.14.282-.322.473-.595.58-.814.112-.226.17-.445.17-.656 0-.352-.12-.64-.36-.86-.24-.218-.557-.327-.952-.327-.28 0-.578.054-.89.156-.305.093-.633.24-.985.436v-.906c.352-.133.688-.238 1-.313.313-.082.598-.125.86-.125.675 0 1.218.172 1.624.516.407.344.61.797.61 1.36 0 .273-.055.53-.156.78-.105.243-.288.524-.546.845-.074.085-.31.328-.703.734-.398.406-.95.976-1.656 1.703zm0 0"/></symbol></defs><g><path fill="#fff" d="M0 0h300v300H0z"/><path d="M244.195 161.102l-3.062-12.418" stroke-width="1.2" stroke="#00f" stroke-miterlimit="10" fill="none"/><path d="M241.133 148.684l-3.067-12.422" stroke-width="1.2" stroke="#000" stroke-miterlimit="10" fill="none"/><path d="M225.746 178.832m2.492-1.672l-.722-.75m3.214-.922l-1.445-1.504m3.934-.168l-2.165-2.254m4.656.586l-2.89-3.007m5.383 1.337l-3.613-3.762m6.105 2.09l-4.336-4.512m6.827 2.84l-5.058-5.262m7.55 3.595l-5.782-6.016m7.426 4.91l-6.258-6.512" stroke="#000" stroke-miterlimit="10" fill="none"/><path d="M236.195 154.602h17v13h-17zm0 0" fill="#fff"/><g fill="#00f"><use xlink:href="#a" x="236.195" y="164.503"/><use xlink:href="#b" x="244.179" y="164.503"/></g><path d="M238.066 136.262l18.45-17.73M235.742 130.148l14.758-14.183M213.488 129.148l24.578 7.114M256.516 118.53l-6.125-24.84M250.39 93.69l-24.577-7.112M249.605 87.195l-19.664-5.69" stroke-width="1.2" stroke="#000" stroke-miterlimit="10" fill="none"/><path d="M264.75 72.516l-7.18 10.586" stroke-width="1.2" stroke="#00f" stroke-miterlimit="10" fill="none"/><path d="M257.57 83.102l-7.18 10.59M225.813 86.578l-.833-25.574M225.813 86.578l-18.45 17.727M224.98 61.004l-10.585-7.18" stroke-width="1.2" stroke="#000" stroke-miterlimit="10" fill="none"/><path d="M214.395 53.824l-10.59-7.183" stroke-width="1.2" stroke="#00f" stroke-miterlimit="10" fill="none"/><path d="M224.98 61.004l12.036-4.348" stroke-width="1.2" stroke="#000" stroke-miterlimit="10" fill="none"/><path d="M237.016 56.656l12.03-4.343" stroke-width="1.2" stroke="#00f" stroke-miterlimit="10" fill="none"/><path d="M229.434 65.797l9.625-3.477" stroke-width="1.2" stroke="#000" stroke-miterlimit="10" fill="none"/><path d="M239.06 62.32l9.627-3.476" stroke-width="1.2" stroke="#00f" stroke-miterlimit="10" fill="none"/><path d="M181.805 38.14h22v17h-22zm0 0" fill="#fff"/><use xlink:href="#b" x="181.805" y="48.042" fill="#00f"/><use xlink:href="#c" x="189.829" y="52.925" fill="#00f"/><use xlink:href="#a" x="195.485" y="48.042" fill="#00f"/><path d="M249.047 52.313l15.703 20.203" stroke-width="1.2" stroke="#00f" stroke-miterlimit="10" fill="none"/><path d="M245.047 45.813h8v13h-8zm0 0" fill="#fff"/><use xlink:href="#a" x="245.047" y="55.714" fill="#00f"/><path d="M256.75 66.016h17v13h-17zm0 0" fill="#fff"/><g fill="#00f"><use xlink:href="#a" x="256.75" y="75.917"/><use xlink:href="#b" x="264.733" y="75.917"/></g><path d="M207.363 104.305l6.125 24.843M213.82 105.348l4.903 19.875M225.746 178.832l6.13 24.84M225.746 178.832l-24.578-7.113M231.875 203.672l-18.45 17.73M234.2 209.79l-14.76 14.18M256.453 210.79l-24.578-7.118M213.426 221.402l6.125 24.84M219.55 246.242l24.58 7.117M223.684 241.172l19.664 5.69M244.13 253.36l18.452-17.73M262.582 235.63l-6.13-24.84M256.12 234.586l-4.9-19.87M201.168 171.72l-9.227 8.862" stroke-width="1.2" stroke="#000" stroke-miterlimit="10" fill="none"/><path d="M191.94 180.582l-9.22 8.863" stroke-width="1.2" stroke="#00f" stroke-miterlimit="10" fill="none"/><path d="M204.09 170.996l-3.063-12.422" stroke-width="1.2" stroke="#000" stroke-miterlimit="10" fill="none"/><path d="M201.027 158.574l-3.066-12.422" stroke-width="1.2" stroke="#f00" stroke-miterlimit="10" fill="none"/><path d="M198.246 172.438l-3.066-12.422" stroke-width="1.2" stroke="#000" stroke-miterlimit="10" fill="none"/><path d="M195.18 160.016l-3.063-12.418" stroke-width="1.2" stroke="#f00" stroke-miterlimit="10" fill="none"/><path d="M182.72 189.445l-12.29-3.558" stroke-width="1.2" stroke="#00f" stroke-miterlimit="10" fill="none"/><path d="M170.43 185.887l-12.29-3.555" stroke-width="1.2" stroke="#000" stroke-miterlimit="10" fill="none"/><path d="M174.72 182.945h17v13h-17zm0 0" fill="#fff"/><g fill="#00f"><use xlink:href="#a" x="174.719" y="192.847"/><use xlink:href="#b" x="182.702" y="192.847"/></g><path d="M158.14 182.332l-6.128-24.844M151.684 181.29l-4.903-19.876M139.69 200.06l18.45-17.728M152.012 157.488l-24.578-7.113M127.434 150.375l-18.45 17.73M129.762 156.488L115 170.672M108.984 168.105l-24.578-7.117M108.984 168.105l6.13 24.84M84.406 160.988l-6.13-24.84M77.95 159.95l-4.903-19.876M65.957 178.72l18.45-17.732M78.277 136.148l9.227-8.863" stroke-width="1.2" stroke="#000" stroke-miterlimit="10" fill="none"/><path d="M87.504 127.285l9.223-8.867" stroke-width="1.2" stroke="#cc0" stroke-miterlimit="10" fill="none"/><path d="M78.277 136.148L53.7 129.035" stroke-width="1.2" stroke="#000" stroke-miterlimit="10" fill="none"/><path d="M98.898 116.332l-8.863-9.223" stroke-width="1.2" stroke="#cc0" stroke-miterlimit="10" fill="none"/><path d="M90.035 107.11l-8.863-9.227" stroke-width="1.2" stroke="#f00" stroke-miterlimit="10" fill="none"/><path d="M94.56 120.504l-8.87-9.223" stroke-width="1.2" stroke="#cc0" stroke-miterlimit="10" fill="none"/><path d="M85.69 111.28l-8.862-9.225" stroke-width="1.2" stroke="#f00" stroke-miterlimit="10" fill="none"/><path d="M94.56 120.504l8.862 9.226" stroke-width="1.2" stroke="#cc0" stroke-miterlimit="10" fill="none"/><path d="M103.422 129.73l8.863 9.223" stroke-width="1.2" stroke="#f00" stroke-miterlimit="10" fill="none"/><path d="M98.898 116.332l8.864 9.227" stroke-width="1.2" stroke="#cc0" stroke-miterlimit="10" fill="none"/><path d="M107.762 125.56l8.863 9.225" stroke-width="1.2" stroke="#f00" stroke-miterlimit="10" fill="none"/><path d="M96.727 118.418l9.226-8.863" stroke-width="1.2" stroke="#cc0" stroke-miterlimit="10" fill="none"/><path d="M105.953 109.555l9.223-8.864" stroke-width="1.2" stroke="#00f" stroke-miterlimit="10" fill="none"/><path d="M93.727 111.918h7v13h-7zm0 0" fill="#fff"/><use xlink:href="#d" x="93.727" y="121.819" fill="#cc0"/><path d="M70 93.47h9v13h-9zm0 0" fill="#fff"/><use xlink:href="#e" x="70" y="103.37" fill="#f00"/><path d="M110.457 130.37h9v13h-9zm0 0" fill="#fff"/><use xlink:href="#e" x="110.457" y="140.272" fill="#f00"/><path d="M104.176 92.19h22v17h-22zm0 0" fill="#fff"/><g fill="#00f"><use xlink:href="#a" x="104.176" y="102.093"/><use xlink:href="#b" x="112.159" y="102.093"/></g><use xlink:href="#c" x="120.184" y="106.976" fill="#00f"/><path d="M53.7 129.035l-18.45 17.727M56.027 135.148l-14.76 14.184M35.25 146.762l6.13 24.843M41.38 171.605l24.577 7.114M45.512 166.53l19.66 5.693M115.113 192.945l24.578 7.114M119.242 187.875l19.664 5.69" stroke-width="1.2" stroke="#000" stroke-miterlimit="10" fill="none"/><path d="M191.04 140.375h9v13h-9zm0 0" fill="#fff"/><use xlink:href="#e" x="191.039" y="150.276" fill="#f00"/></g></svg>