<svg xmlns="http://www.w3.org/2000/svg" xmlns:xlink="http://www.w3.org/1999/xlink" width="300pt" height="300pt" viewBox="0 0 300 300"><defs><symbol overflow="visible"><path d="M.453 1.594v-7.938h4.5v7.938zm.5-.5h3.5v-6.938h-3.5zm0 0"/></symbol><symbol overflow="visible" id="a"><path d="M5.797-6.063v.938c-.305-.27-.625-.473-.97-.61-.335-.144-.686-.218-1.06-.218-.75 0-1.33.23-1.736.687-.397.46-.592 1.12-.592 1.985 0 .866.195 1.526.593 1.983.408.46.986.688 1.736.688.375 0 .726-.066 1.062-.203.344-.132.664-.343.97-.625V-.5c-.314.21-.642.367-.986.47-.343.1-.714.155-1.11.155-.99 0-1.772-.3-2.343-.906C.784-1.396.5-2.228.5-3.28c0-1.052.285-1.88.86-2.486.57-.613 1.35-.92 2.343-.92.395-.002.766.053 1.11.155.35.104.68.26.984.468zm0 0"/></symbol><symbol overflow="visible" id="b"><path d="M.844-6.844h.812V0H.844zm0 0"/></symbol><symbol overflow="visible" id="c"><path d="M.89-6.563H2.08l2.906 5.485v-5.484h.86V0H4.656L1.75-5.484V0H.89zm0 0"/></symbol><symbol overflow="visible" id="d"><path d="M3.547-5.953c-.65 0-1.164.242-1.547.72-.375.48-.563 1.13-.563 1.952 0 .835.188 1.49.563 1.967.383.48.898.72 1.547.72.644 0 1.156-.24 1.53-.72.376-.476.564-1.132.564-1.968 0-.822-.187-1.474-.562-1.954-.375-.477-.887-.72-1.53-.72zm0-.734c.914 0 1.648.312 2.203.937.55.617.828 1.438.828 2.47 0 1.042-.277 1.87-.828 2.483-.555.617-1.29.922-2.203.922-.93 0-1.668-.305-2.22-.922C.774-1.41.5-2.237.5-3.28c0-1.033.273-1.853.828-2.47.55-.625 1.29-.938 2.22-.938zm0 0"/></symbol><symbol overflow="visible" id="e"><path d="M.89-6.563h.876v2.688H5v-2.688h.89V0H5v-3.125H1.766V0H.89zm0 0"/></symbol><symbol overflow="visible" id="g"><path d="M.89-6.563h3.766v.75h-2.89v1.938h2.61v.734h-2.61V0H.89zm0 0"/></symbol><symbol overflow="visible"><path d="M.406 1.422V-5.64h4V1.42zM.844.97h3.11v-6.157H.843zm0 0"/></symbol><symbol overflow="visible" id="f"><path d="M3.688-5.016v2.172h2.17v.672H3.69V0H3.03v-2.172H.845v-.672H3.03v-2.172zm0 0"/></symbol></defs><g><path fill="#fff" d="M0 0h300v300H0z"/><path d="M146.91 121.684l3.692-11.852" stroke-width="1.2" stroke="#0c0" stroke-miterlimit="10" fill="none"/><path d="M150.602 109.832l3.695-11.852" stroke-width="1.2" stroke="#000" stroke-miterlimit="10" fill="none"/><path d="M136.91 116.184h10v11h-10zm0 0" fill="#fff"/><g fill="#0c0"><use xlink:href="#a" x="136.91" y="124.847"/><use xlink:href="#b" x="143.424" y="124.847"/></g><path d="M154.297 97.98L137.46 79.73M156.906 92.195l-13.465-14.6M178.52 92.527l-24.223 5.453M137.46 79.73l7.388-23.703M144.848 56.027l24.222-5.453M148.555 61.18l19.38-4.364M169.07 50.574l16.836 18.246M185.906 68.82l12.11-2.726" stroke-width="1.2" stroke="#000" stroke-miterlimit="10" fill="none"/><path d="M198.016 66.094l12.11-2.727" stroke-width="1.2" stroke="#0c0" stroke-miterlimit="10" fill="none"/><path d="M185.906 68.82l-7.386 23.707M179.59 69.453l-5.91 18.965" stroke-width="1.2" stroke="#000" stroke-miterlimit="10" fill="none"/><path d="M205.125 57.867h10v11h-10zm0 0" fill="#fff"/><g fill="#0c0"><use xlink:href="#a" x="205.125" y="66.53"/><use xlink:href="#b" x="211.639" y="66.53"/></g><path d="M178.52 92.527l8.414 9.12" stroke-width="1.2" stroke="#000" stroke-miterlimit="10" fill="none"/><path d="M186.934 101.648l8.418 9.125M195.352 110.773l-3.692 11.852" stroke-width="1.2" stroke="#00f" stroke-miterlimit="10" fill="none"/><path d="M191.66 122.625l-3.695 11.852M219.574 105.32l-12.11 2.727" stroke-width="1.2" stroke="#000" stroke-miterlimit="10" fill="none"/><path d="M207.465 108.047l-12.113 2.726" stroke-width="1.2" stroke="#00f" stroke-miterlimit="10" fill="none"/><path d="M192.352 105.273h7v11h-7zm0 0" fill="#fff"/><use xlink:href="#c" x="192.352" y="113.937" fill="#00f"/><path d="M187.965 134.477l16.836 18.25M185.355 140.266l13.47 14.597M163.742 139.934l24.223-5.457M204.8 152.727l24.22-5.454M204.8 152.727l-7.386 23.703M229.02 147.273l7.386-23.703M224.184 143.164l5.91-18.96M236.406 123.57l-16.832-18.25M222.363 106.188l3.692-11.852" stroke-width="1.2" stroke="#000" stroke-miterlimit="10" fill="none"/><path d="M226.055 94.336l3.695-11.852" stroke-width="1.2" stroke="#f00" stroke-miterlimit="10" fill="none"/><path d="M216.785 104.45l3.695-11.852" stroke-width="1.2" stroke="#000" stroke-miterlimit="10" fill="none"/><path d="M220.48 92.598l3.692-11.852" stroke-width="1.2" stroke="#f00" stroke-miterlimit="10" fill="none"/><path d="M222.96 76.117h8v11h-8zm0 0" fill="#fff"/><use xlink:href="#d" x="222.961" y="84.78" fill="#f00"/><path d="M197.414 176.43l-12.113 2.726" stroke-width="1.2" stroke="#000" stroke-miterlimit="10" fill="none"/><path d="M185.3 179.156l-12.11 2.73" stroke-width="1.2" stroke="#00f" stroke-miterlimit="10" fill="none"/><path d="M193.707 171.277l-9.687 2.18" stroke-width="1.2" stroke="#000" stroke-miterlimit="10" fill="none"/><path d="M184.02 173.457l-9.692 2.184" stroke-width="1.2" stroke="#00f" stroke-miterlimit="10" fill="none"/><path d="M197.414 176.43l16.832 18.25" stroke-width="1.2" stroke="#000" stroke-miterlimit="10" fill="none"/><path d="M173.19 181.887l-8.417-9.125" stroke-width="1.2" stroke="#00f" stroke-miterlimit="10" fill="none"/><path d="M164.773 172.762l-8.418-9.125" stroke-width="1.2" stroke="#000" stroke-miterlimit="10" fill="none"/><path d="M163.19 174.387h21v15h-21zm0 0" fill="#fff"/><g fill="#00f"><use xlink:href="#c" x="163.191" y="186.488"/><use xlink:href="#e" x="170.169" y="186.488"/></g><use xlink:href="#f" x="177.184" y="181.605" fill="#00f"/><path d="M156.355 163.637l7.387-23.703M162.672 163.004l5.91-18.965M156.355 163.637l-24.218 5.453M132.137 169.09L115.3 150.84M124.75 192.793l7.387-23.703M115.3 150.84l-24.222 5.457M91.078 156.297l-3.69 11.85" stroke-width="1.2" stroke="#000" stroke-miterlimit="10" fill="none"/><path d="M87.387 168.148L83.69 180M83.69 180l8.42 9.125" stroke-width="1.2" stroke="#00f" stroke-miterlimit="10" fill="none"/><path d="M92.11 189.125l8.417 9.125" stroke-width="1.2" stroke="#000" stroke-miterlimit="10" fill="none"/><path d="M83.69 180l-12.108 2.727" stroke-width="1.2" stroke="#00f" stroke-miterlimit="10" fill="none"/><path d="M71.582 182.727l-12.11 2.726" stroke-width="1.2" stroke="#000" stroke-miterlimit="10" fill="none"/><path d="M73.69 172.5h21v15h-21zm0 0" fill="#fff"/><g fill="#00f"><use xlink:href="#c" x="73.691" y="184.602"/><use xlink:href="#e" x="80.669" y="184.602"/></g><use xlink:href="#f" x="87.684" y="179.719" fill="#00f"/><path d="M100.527 198.25l24.223-5.457M59.473 185.453l-5.457-24.223M59.473 185.453l5.453 24.223M59.473 185.453l-24.223 5.453M214.246 194.68l-7.387 23.703M219.086 198.79l-5.91 18.96M238.47 189.227l-24.224 5.453M206.86 218.383l16.835 18.25M223.695 236.633l24.22-5.453M224.832 230.387l19.38-4.364M247.914 231.18l8.418 9.12" stroke-width="1.2" stroke="#000" stroke-miterlimit="10" fill="none"/><path d="M256.332 240.3l8.418 9.126" stroke-width="1.2" stroke="#3cc" stroke-miterlimit="10" fill="none"/><path d="M247.914 231.18l7.387-23.707" stroke-width="1.2" stroke="#000" stroke-miterlimit="10" fill="none"/><path d="M261.75 243.926h6v11h-6zm0 0" fill="#fff"/><use xlink:href="#g" x="261.75" y="252.589" fill="#3cc"/><path d="M255.3 207.473l-16.83-18.246M249.324 209.61L235.86 195.01M238.47 189.227l3.69-11.852" stroke-width="1.2" stroke="#000" stroke-miterlimit="10" fill="none"/><path d="M242.16 177.375l3.695-11.852" stroke-width="1.2" stroke="#3cc" stroke-miterlimit="10" fill="none"/><path d="M242.855 160.023h6v11h-6zm0 0" fill="#fff"/><use xlink:href="#g" x="242.855" y="168.687" fill="#3cc"/></g></svg>