<svg xmlns="http://www.w3.org/2000/svg" xmlns:xlink="http://www.w3.org/1999/xlink" width="300pt" height="300pt" viewBox="0 0 300 300"><defs><symbol overflow="visible"><path d="M.453 1.594v-7.938h4.5v7.938zm.5-.5h3.5v-6.938h-3.5zm0 0"/></symbol><symbol overflow="visible" id="a"><path d="M4.813-6.344v.86c-.336-.157-.653-.27-.954-.344-.294-.082-.58-.125-.86-.125-.492 0-.867.094-1.125.28-.262.19-.39.454-.39.798 0 .293.085.512.265.656.176.15.504.267.984.36l.547.11c.658.125 1.142.352 1.454.672.32.312.485.734.485 1.265 0 .637-.216 1.122-.642 1.454-.43.325-1.055.485-1.875.485-.312 0-.648-.04-1-.11C1.36-.046 1-.147.625-.296v-.906c.352.2.703.35 1.047.453.35.105.695.156 1.03.156.5 0 .884-.097 1.157-.297.28-.196.42-.485.42-.86 0-.32-.1-.57-.296-.75-.2-.176-.523-.313-.968-.406l-.547-.11C1.81-3.148 1.33-3.36 1.03-3.64.74-3.923.595-4.313.595-4.813c0-.57.203-1.024.61-1.36.405-.344.968-.516 1.687-.516.313 0 .626.032.938.094.32.055.65.137.985.25zm0 0"/></symbol><symbol overflow="visible" id="b"><path d="M.89-6.563H2.08l2.906 5.485v-5.484h.86V0H4.656L1.75-5.484V0H.89zm0 0"/></symbol><symbol overflow="visible" id="c"><path d="M.89-6.563h.876v2.688H5v-2.688h.89V0H5v-3.125H1.766V0H.89zm0 0"/></symbol></defs><g><path fill="#fff" d="M0 0h300v300H0z"/><path d="M171.61 136.574l6.702 9.285" stroke-width="1.2" stroke="#cc0" stroke-miterlimit="10" fill="none"/><path d="M178.313 145.86l6.707 9.28M185.12 118.086l-6.753 9.246" stroke-width="1.2" stroke="#000" stroke-miterlimit="10" fill="none"/><path d="M178.367 127.332l-6.758 9.242" stroke-width="1.2" stroke="#cc0" stroke-miterlimit="10" fill="none"/><path d="M168.61 131.074h6v11h-6zm0 0" fill="#fff"/><use xlink:href="#a" x="168.609" y="139.737" fill="#cc0"/><path d="M185.02 155.14l21.8-7.015M185.547 149.31l17.44-5.61M185.02 155.14l-7.14 21.762M206.82 148.125l.032-11.45" stroke-width="1.2" stroke="#000" stroke-miterlimit="10" fill="none"/><path d="M206.852 136.676l.03-11.453" stroke-width="1.2" stroke="#00f" stroke-miterlimit="10" fill="none"/><path d="M206.82 148.125l18.493 13.516" stroke-width="1.2" stroke="#000" stroke-miterlimit="10" fill="none"/><path d="M206.883 125.223l-10.88-3.57" stroke-width="1.2" stroke="#00f" stroke-miterlimit="10" fill="none"/><path d="M196.004 121.652l-10.883-3.566" stroke-width="1.2" stroke="#000" stroke-miterlimit="10" fill="none"/><path d="M203.027 129.63l-8.703-2.857" stroke-width="1.2" stroke="#00f" stroke-miterlimit="10" fill="none"/><path d="M194.324 126.773l-8.703-2.855" stroke-width="1.2" stroke="#000" stroke-miterlimit="10" fill="none"/><path d="M203.883 119.723h7v11h-7zm0 0" fill="#fff"/><use xlink:href="#b" x="203.883" y="128.386" fill="#00f"/><path d="M185.12 118.086l-7.015-21.8M178.105 96.285l15.375-16.98M225.313 161.64l-2.46 22.77M230.422 164.496l-1.965 18.215M246.258 152.383l-20.946 9.258M222.852 184.41l18.492 13.512M241.344 197.922l20.95-9.254M241.262 192.07l16.758-7.406M241.344 197.922l-2.457 22.773M262.293 188.668l2.457-22.773M264.75 165.895l-18.492-13.512M259.723 168.895l-14.793-10.81M177.88 176.902l-22.415 4.7M176.746 182.648l-17.934 3.758M193.156 193.965l-15.277-17.063M155.465 181.602l-7.137 21.76M148.328 203.363l7.637 8.532" stroke-width="1.2" stroke="#000" stroke-miterlimit="10" fill="none"/><path d="M155.965 211.895l7.64 8.53" stroke-width="1.2" stroke="#00f" stroke-miterlimit="10" fill="none"/><path d="M153.87 201.477l6.11 6.824" stroke-width="1.2" stroke="#000" stroke-miterlimit="10" fill="none"/><path d="M159.98 208.3l6.11 6.825" stroke-width="1.2" stroke="#00f" stroke-miterlimit="10" fill="none"/><path d="M148.328 203.363l-11.207 2.352" stroke-width="1.2" stroke="#000" stroke-miterlimit="10" fill="none"/><path d="M137.12 205.715l-11.21 2.347M163.605 220.426l11.208-2.348" stroke-width="1.2" stroke="#00f" stroke-miterlimit="10" fill="none"/><path d="M174.813 218.078l11.207-2.35" stroke-width="1.2" stroke="#000" stroke-miterlimit="10" fill="none"/><path d="M160.605 214.926h7v11h-7zm0 0" fill="#fff"/><use xlink:href="#b" x="160.605" y="223.589" fill="#00f"/><path d="M186.02 215.727l7.136-21.762M181.613 211.87l5.71-17.41" stroke-width="1.2" stroke="#000" stroke-miterlimit="10" fill="none"/><path d="M125.91 208.063l-7.637-8.532" stroke-width="1.2" stroke="#00f" stroke-miterlimit="10" fill="none"/><path d="M118.273 199.53l-7.64-8.53" stroke-width="1.2" stroke="#000" stroke-miterlimit="10" fill="none"/><path d="M118.91 202.563h14v11h-14zm0 0" fill="#fff"/><g fill="#00f"><use xlink:href="#b" x="118.91" y="211.226"/><use xlink:href="#c" x="125.888" y="211.226"/></g><path d="M110.633 191l-22.414 4.7M88.22 195.7l-15.28-17.063M72.94 178.637l7.142-21.762M68.535 174.78l5.71-17.41M50.527 183.336l22.414-4.7M80.082 156.875l-15.277-17.063M64.805 139.813l-22.418 4.7M63.668 145.555l-17.934 3.76M42.387 144.512l-7.137 21.76M35.25 166.273l15.277 17.063M40.793 164.383l12.223 13.652" stroke-width="1.2" stroke="#000" stroke-miterlimit="10" fill="none"/></g></svg>