<svg xmlns="http://www.w3.org/2000/svg" xmlns:xlink="http://www.w3.org/1999/xlink" width="300pt" height="300pt" viewBox="0 0 300 300"><defs><symbol overflow="visible"><path d="M.453 1.594v-7.938h4.5v7.938zm.5-.5h3.5v-6.938h-3.5zm0 0"/></symbol><symbol overflow="visible" id="a"><path d="M4.813-6.344v.86c-.336-.157-.653-.27-.954-.344-.294-.082-.58-.125-.86-.125-.492 0-.867.094-1.125.28-.262.19-.39.454-.39.798 0 .293.085.512.265.656.176.15.504.267.984.36l.547.11c.658.125 1.142.352 1.454.672.32.312.485.734.485 1.265 0 .637-.216 1.122-.642 1.454-.43.325-1.055.485-1.875.485-.312 0-.648-.04-1-.11C1.36-.046 1-.147.625-.296v-.906c.352.2.703.35 1.047.453.35.105.695.156 1.03.156.5 0 .884-.097 1.157-.297.28-.196.42-.485.42-.86 0-.32-.1-.57-.296-.75-.2-.176-.523-.313-.968-.406l-.547-.11C1.81-3.148 1.33-3.36 1.03-3.64.74-3.923.595-4.313.595-4.813c0-.57.203-1.024.61-1.36.405-.344.968-.516 1.687-.516.313 0 .626.032.938.094.32.055.65.137.985.25zm0 0"/></symbol><symbol overflow="visible" id="b"><path d="M.89-6.563H2.08l2.906 5.485v-5.484h.86V0H4.656L1.75-5.484V0H.89zm0 0"/></symbol><symbol overflow="visible" id="c"><path d="M.89-6.563h.876v2.688H5v-2.688h.89V0H5v-3.125H1.766V0H.89zm0 0"/></symbol><symbol overflow="visible" id="d"><path d="M3.547-5.953c-.65 0-1.164.242-1.547.72-.375.48-.563 1.13-.563 1.952 0 .835.188 1.49.563 1.967.383.48.898.72 1.547.72.644 0 1.156-.24 1.53-.72.376-.476.564-1.132.564-1.968 0-.822-.187-1.474-.562-1.954-.375-.477-.887-.72-1.53-.72zm0-.734c.914 0 1.648.312 2.203.937.55.617.828 1.438.828 2.47 0 1.042-.277 1.87-.828 2.483-.555.617-1.29.922-2.203.922-.93 0-1.668-.305-2.22-.922C.774-1.41.5-2.237.5-3.28c0-1.033.273-1.853.828-2.47.55-.625 1.29-.938 2.22-.938zm0 0"/></symbol></defs><g><path fill="#fff" d="M0 0h300v300H0z"/><path d="M171.617 136.563l6.703 9.285" stroke-width="1.2" stroke="#cc0" stroke-miterlimit="10" fill="none"/><path d="M178.32 145.848l6.703 9.285M185.137 118.074l-6.758 9.242" stroke-width="1.2" stroke="#000" stroke-miterlimit="10" fill="none"/><path d="M178.38 127.316l-6.763 9.246" stroke-width="1.2" stroke="#cc0" stroke-miterlimit="10" fill="none"/><path d="M168.617 131.063h6v11h-6zm0 0" fill="#fff"/><use xlink:href="#a" x="168.617" y="139.726" fill="#cc0"/><path d="M185.023 155.133l21.8-7.012M185.555 149.3l17.44-5.61M185.023 155.133l-7.148 21.758M206.824 148.12l.04-11.448" stroke-width="1.2" stroke="#000" stroke-miterlimit="10" fill="none"/><path d="M206.863 136.672l.035-11.453" stroke-width="1.2" stroke="#00f" stroke-miterlimit="10" fill="none"/><path d="M206.824 148.12l18.488 13.52" stroke-width="1.2" stroke="#000" stroke-miterlimit="10" fill="none"/><path d="M206.898 125.22l-10.878-3.572" stroke-width="1.2" stroke="#00f" stroke-miterlimit="10" fill="none"/><path d="M196.02 121.648l-10.883-3.574" stroke-width="1.2" stroke="#000" stroke-miterlimit="10" fill="none"/><path d="M203.04 129.625l-8.704-2.86" stroke-width="1.2" stroke="#00f" stroke-miterlimit="10" fill="none"/><path d="M194.336 126.766l-8.703-2.856" stroke-width="1.2" stroke="#000" stroke-miterlimit="10" fill="none"/><path d="M203.898 119.72h7v11h-7zm0 0" fill="#fff"/><use xlink:href="#b" x="203.898" y="128.382" fill="#00f"/><path d="M185.137 118.074L178.13 96.27M178.13 96.27l15.378-16.97M225.313 161.64l-2.465 22.77M230.422 164.5l-1.973 18.215M246.266 152.39l-20.953 9.25M222.848 184.41l18.484 13.52M241.332 197.93l20.953-9.25M241.254 192.078l16.758-7.402M241.332 197.93l-2.465 22.77M262.285 188.68l2.465-22.766M264.75 165.914l-18.484-13.523M259.72 168.91l-14.79-10.816M177.875 176.89l-22.414 4.692M176.738 182.633l-17.933 3.754M193.148 193.957l-15.273-17.066M155.46 181.582l-7.144 21.758M148.316 203.34l7.633 8.535" stroke-width="1.2" stroke="#000" stroke-miterlimit="10" fill="none"/><path d="M155.95 211.875l7.636 8.535" stroke-width="1.2" stroke="#00f" stroke-miterlimit="10" fill="none"/><path d="M153.86 201.457l6.105 6.824" stroke-width="1.2" stroke="#000" stroke-miterlimit="10" fill="none"/><path d="M159.965 208.28l6.11 6.83" stroke-width="1.2" stroke="#00f" stroke-miterlimit="10" fill="none"/><path d="M148.316 203.34l-11.21 2.347" stroke-width="1.2" stroke="#000" stroke-miterlimit="10" fill="none"/><path d="M137.105 205.688l-11.207 2.347M163.586 220.41l11.207-2.347" stroke-width="1.2" stroke="#00f" stroke-miterlimit="10" fill="none"/><path d="M174.793 218.063l11.21-2.344" stroke-width="1.2" stroke="#000" stroke-miterlimit="10" fill="none"/><path d="M160.586 214.91h7v11h-7zm0 0" fill="#fff"/><use xlink:href="#b" x="160.586" y="223.573" fill="#00f"/><path d="M186.004 215.72l7.144-21.763M181.598 211.86l5.714-17.407" stroke-width="1.2" stroke="#000" stroke-miterlimit="10" fill="none"/><path d="M125.898 208.035l-7.636-8.535" stroke-width="1.2" stroke="#00f" stroke-miterlimit="10" fill="none"/><path d="M118.262 199.5l-7.637-8.535" stroke-width="1.2" stroke="#000" stroke-miterlimit="10" fill="none"/><path d="M118.898 202.535h14v11h-14zm0 0" fill="#fff"/><g fill="#00f"><use xlink:href="#b" x="118.898" y="211.198"/><use xlink:href="#c" x="125.876" y="211.198"/></g><path d="M113.188 191.805l3.57-10.88" stroke-width="1.2" stroke="#000" stroke-miterlimit="10" fill="none"/><path d="M116.758 180.926l3.574-10.88" stroke-width="1.2" stroke="#f00" stroke-miterlimit="10" fill="none"/><path d="M108.066 190.125l3.575-10.88" stroke-width="1.2" stroke="#000" stroke-miterlimit="10" fill="none"/><path d="M111.64 179.246l3.57-10.88" stroke-width="1.2" stroke="#f00" stroke-miterlimit="10" fill="none"/><path d="M110.625 190.965l-22.414 4.69" stroke-width="1.2" stroke="#000" stroke-miterlimit="10" fill="none"/><path d="M113.773 163.707h8v11h-8zm0 0" fill="#fff"/><use xlink:href="#d" x="113.773" y="172.37" fill="#f00"/><path d="M88.21 195.656L72.94 178.59M72.938 178.59l7.144-21.762M68.53 174.73l5.72-17.406M50.52 183.28l22.417-4.69M80.082 156.828l-15.27-17.066M64.813 139.762l-22.418 4.69M63.676 145.508l-17.934 3.75M42.395 144.453l-7.145 21.762M35.25 166.215l15.27 17.066M40.793 164.328l12.22 13.652" stroke-width="1.2" stroke="#000" stroke-miterlimit="10" fill="none"/></g></svg>