<svg xmlns="http://www.w3.org/2000/svg" xmlns:xlink="http://www.w3.org/1999/xlink" width="300pt" height="300pt" viewBox="0 0 300 300"><defs><symbol overflow="visible"><path d="M.453 1.594v-7.938h4.5v7.938zm.5-.5h3.5v-6.938h-3.5zm0 0"/></symbol><symbol overflow="visible" id="a"><path d="M.89-6.563h3.766v.75h-2.89v1.938h2.61v.734h-2.61V0H.89zm0 0"/></symbol><symbol overflow="visible" id="b"><path d="M.89-6.563H2.08l2.906 5.485v-5.484h.86V0H4.656L1.75-5.484V0H.89zm0 0"/></symbol><symbol overflow="visible" id="c"><path d="M.89-6.563h.876v2.688H5v-2.688h.89V0H5v-3.125H1.766V0H.89zm0 0"/></symbol><symbol overflow="visible" id="d"><path d="M3.547-5.953c-.65 0-1.164.242-1.547.72-.375.48-.563 1.13-.563 1.952 0 .835.188 1.49.563 1.967.383.48.898.72 1.547.72.644 0 1.156-.24 1.53-.72.376-.476.564-1.132.564-1.968 0-.822-.187-1.474-.562-1.954-.375-.477-.887-.72-1.53-.72zm0-.734c.914 0 1.648.312 2.203.937.55.617.828 1.438.828 2.47 0 1.042-.277 1.87-.828 2.483-.555.617-1.29.922-2.203.922-.93 0-1.668-.305-2.22-.922C.774-1.41.5-2.237.5-3.28c0-1.033.273-1.853.828-2.47.55-.625 1.29-.938 2.22-.938zm0 0"/></symbol></defs><g><path fill="#fff" d="M0 0h300v300H0z"/><path d="M35.25 187.313l6.727-5.485" stroke-width="1.2" stroke="#3cc" stroke-miterlimit="10" fill="none"/><path d="M41.977 181.828l6.73-5.48" stroke-width="1.2" stroke="#000" stroke-miterlimit="10" fill="none"/><path d="M29.25 181.813h6v11h-6zm0 0" fill="#fff"/><use xlink:href="#a" x="29.25" y="190.476" fill="#3cc"/><path d="M48.707 176.348l-2.766-17.133M52.46 173.984l-2.21-13.707M64.93 182.52l-16.223-6.172M45.94 159.215l13.455-10.965M59.395 148.25l16.222 6.172M59.566 152.684l12.977 4.937M75.617 154.422l6.73-5.48" stroke-width="1.2" stroke="#000" stroke-miterlimit="10" fill="none"/><path d="M82.348 148.94l6.726-5.48" stroke-width="1.2" stroke="#00f" stroke-miterlimit="10" fill="none"/><path d="M75.617 154.422l2.766 17.137" stroke-width="1.2" stroke="#000" stroke-miterlimit="10" fill="none"/><path d="M89.074 143.46l8.11 3.087" stroke-width="1.2" stroke="#00f" stroke-miterlimit="10" fill="none"/><path d="M97.184 146.547l8.113 3.086" stroke-width="1.2" stroke="#000" stroke-miterlimit="10" fill="none"/><path d="M82.074 137.96h14v11h-14zm0 0" fill="#fff"/><g fill="#00f"><use xlink:href="#b" x="82.074" y="146.624"/><use xlink:href="#c" x="89.052" y="146.624"/></g><path d="M105.297 149.633l1.383 8.566" stroke-width="1.2" stroke="#000" stroke-miterlimit="10" fill="none"/><path d="M106.68 158.2l1.382 8.566" stroke-width="1.2" stroke="#00f" stroke-miterlimit="10" fill="none"/><path d="M109.605 150.695l1.106 6.856" stroke-width="1.2" stroke="#000" stroke-miterlimit="10" fill="none"/><path d="M110.71 157.55l1.106 6.852" stroke-width="1.2" stroke="#00f" stroke-miterlimit="10" fill="none"/><path d="M118.754 138.668l-13.457 10.965" stroke-width="1.2" stroke="#000" stroke-miterlimit="10" fill="none"/><path d="M108.063 166.766l8.11 3.086" stroke-width="1.2" stroke="#00f" stroke-miterlimit="10" fill="none"/><path d="M116.172 169.852l8.113 3.085" stroke-width="1.2" stroke="#000" stroke-miterlimit="10" fill="none"/><path d="M105.063 161.266h7v11h-7zm0 0" fill="#fff"/><use xlink:href="#b" x="105.063" y="169.929" fill="#00f"/><path d="M124.285 172.938l13.457-10.96M123.05 168.676l10.766-8.77M137.742 161.977l-2.77-17.133M134.973 144.844l-16.22-6.176M131.898 148.043l-12.976-4.938M134.973 144.844l13.457-10.965M148.43 133.88l16.222 6.17M151.504 130.68l12.98 4.937M145.664 116.746l2.766 17.133M164.652 140.05l13.457-10.96M178.11 129.09l-1.383-8.57" stroke-width="1.2" stroke="#000" stroke-miterlimit="10" fill="none"/><path d="M176.727 120.52l-1.383-8.567" stroke-width="1.2" stroke="#00f" stroke-miterlimit="10" fill="none"/><path d="M173.8 128.027l-1.105-6.855" stroke-width="1.2" stroke="#000" stroke-miterlimit="10" fill="none"/><path d="M172.695 121.172l-1.11-6.856" stroke-width="1.2" stroke="#00f" stroke-miterlimit="10" fill="none"/><path d="M178.11 129.09l8.11 3.086" stroke-width="1.2" stroke="#000" stroke-miterlimit="10" fill="none"/><path d="M186.22 132.176l8.112 3.086M175.344 111.953l-8.114-3.086" stroke-width="1.2" stroke="#00f" stroke-miterlimit="10" fill="none"/><path d="M167.23 108.867l-8.11-3.086" stroke-width="1.2" stroke="#000" stroke-miterlimit="10" fill="none"/><path d="M172.344 106.453h7v11h-7zm0 0" fill="#fff"/><use xlink:href="#b" x="172.344" y="115.116" fill="#00f"/><path d="M159.12 105.78l-13.456 10.966M160.355 110.043l-10.765 8.77" stroke-width="1.2" stroke="#000" stroke-miterlimit="10" fill="none"/><path d="M194.332 135.262l1.383 8.566" stroke-width="1.2" stroke="#00f" stroke-miterlimit="10" fill="none"/><path d="M195.715 143.828l1.383 8.567" stroke-width="1.2" stroke="#000" stroke-miterlimit="10" fill="none"/><path d="M187.332 129.762h14v11h-14zm0 0" fill="#fff"/><g fill="#00f"><use xlink:href="#b" x="187.332" y="138.425"/><use xlink:href="#c" x="194.31" y="138.425"/></g><path d="M195.81 150.813l-6.732 5.48" stroke-width="1.2" stroke="#000" stroke-miterlimit="10" fill="none"/><path d="M189.078 156.293l-6.726 5.48" stroke-width="1.2" stroke="#f00" stroke-miterlimit="10" fill="none"/><path d="M198.387 153.977l-6.73 5.484" stroke-width="1.2" stroke="#000" stroke-miterlimit="10" fill="none"/><path d="M191.656 159.46l-6.726 5.48" stroke-width="1.2" stroke="#f00" stroke-miterlimit="10" fill="none"/><path d="M197.098 152.395l16.218 6.17" stroke-width="1.2" stroke="#000" stroke-miterlimit="10" fill="none"/><path d="M175.64 157.86h8v11h-8zm0 0" fill="#fff"/><use xlink:href="#d" x="175.641" y="166.522" fill="#f00"/><path d="M213.316 158.566l2.77 17.137M226.773 147.605l-13.457 10.96M216.086 175.703l16.22 6.172M232.305 181.875l13.457-10.965M245.762 170.91l8.113 3.086" stroke-width="1.2" stroke="#000" stroke-miterlimit="10" fill="none"/><path d="M253.875 173.996l8.11 3.086" stroke-width="1.2" stroke="#f00" stroke-miterlimit="10" fill="none"/><path d="M245.762 170.91l-2.766-17.133" stroke-width="1.2" stroke="#000" stroke-miterlimit="10" fill="none"/><path d="M261.984 177.082l1.383 8.57" stroke-width="1.2" stroke="#f00" stroke-miterlimit="10" fill="none"/><path d="M263.367 185.652l1.383 8.567" stroke-width="1.2" stroke="#000" stroke-miterlimit="10" fill="none"/><path d="M257.984 171.582h8v11h-8zm0 0" fill="#fff"/><use xlink:href="#d" x="257.984" y="180.245" fill="#f00"/><path d="M242.996 153.777l-16.223-6.172M78.383 171.56L64.93 182.52M74.46 169.488l-10.765 8.77" stroke-width="1.2" stroke="#000" stroke-miterlimit="10" fill="none"/></g></svg>