<svg xmlns="http://www.w3.org/2000/svg" xmlns:xlink="http://www.w3.org/1999/xlink" width="300pt" height="300pt" viewBox="0 0 300 300"><defs><symbol overflow="visible"><path d="M.453 1.594v-7.938h4.5v7.938zm.5-.5h3.5v-6.938h-3.5zm0 0"/></symbol><symbol overflow="visible" id="a"><path d="M.89-6.563H2.08l2.906 5.485v-5.484h.86V0H4.656L1.75-5.484V0H.89zm0 0"/></symbol><symbol overflow="visible" id="b"><path d="M.89-6.563h.876v2.688H5v-2.688h.89V0H5v-3.125H1.766V0H.89zm0 0"/></symbol><symbol overflow="visible" id="c"><path d="M3.547-5.953c-.65 0-1.164.242-1.547.72-.375.48-.563 1.13-.563 1.952 0 .835.188 1.49.563 1.967.383.48.898.72 1.547.72.644 0 1.156-.24 1.53-.72.376-.476.564-1.132.564-1.968 0-.822-.187-1.474-.562-1.954-.375-.477-.887-.72-1.53-.72zm0-.734c.914 0 1.648.312 2.203.937.55.617.828 1.438.828 2.47 0 1.042-.277 1.87-.828 2.483-.555.617-1.29.922-2.203.922-.93 0-1.668-.305-2.22-.922C.774-1.41.5-2.237.5-3.28c0-1.033.273-1.853.828-2.47.55-.625 1.29-.938 2.22-.938zm0 0"/></symbol><symbol overflow="visible" id="d"><path d="M4.813-6.344v.86c-.336-.157-.653-.27-.954-.344-.294-.082-.58-.125-.86-.125-.492 0-.867.094-1.125.28-.262.19-.39.454-.39.798 0 .293.085.512.265.656.176.15.504.267.984.36l.547.11c.658.125 1.142.352 1.454.672.32.312.485.734.485 1.265 0 .637-.216 1.122-.642 1.454-.43.325-1.055.485-1.875.485-.312 0-.648-.04-1-.11C1.36-.046 1-.147.625-.296v-.906c.352.2.703.35 1.047.453.35.105.695.156 1.03.156.5 0 .884-.097 1.157-.297.28-.196.42-.485.42-.86 0-.32-.1-.57-.296-.75-.2-.176-.523-.313-.968-.406l-.547-.11C1.81-3.148 1.33-3.36 1.03-3.64.74-3.923.595-4.313.595-4.813c0-.57.203-1.024.61-1.36.405-.344.968-.516 1.687-.516.313 0 .626.032.938.094.32.055.65.137.985.25zm0 0"/></symbol><symbol overflow="visible" id="e"><path d="M5.797-6.063v.938c-.305-.27-.625-.473-.97-.61-.335-.144-.686-.218-1.06-.218-.75 0-1.33.23-1.736.687-.397.46-.592 1.12-.592 1.985 0 .866.195 1.526.593 1.983.408.46.986.688 1.736.688.375 0 .726-.066 1.062-.203.344-.132.664-.343.97-.625V-.5c-.314.21-.642.367-.986.47-.343.1-.714.155-1.11.155-.99 0-1.772-.3-2.343-.906C.784-1.396.5-2.228.5-3.28c0-1.052.285-1.88.86-2.486.57-.613 1.35-.92 2.343-.92.395-.002.766.053 1.11.155.35.104.68.26.984.468zm0 0"/></symbol><symbol overflow="visible" id="f"><path d="M.844-6.844h.812V0H.844zm0 0"/></symbol></defs><g><path fill="#fff" d="M0 0h300v300H0z"/><path d="M166.094 187.254l23.855-3.344M166.094 187.254l-5.656 10.63" stroke-width="1.2" stroke="#000" stroke-miterlimit="10" fill="none"/><path d="M160.438 197.883l-5.66 10.633" stroke-width="1.2" stroke="#cc0" stroke-miterlimit="10" fill="none"/><path d="M149.37 169.922l16.724 17.332M146.965 175.59l13.38 13.863M189.95 183.91l4.515-11.164" stroke-width="1.2" stroke="#000" stroke-miterlimit="10" fill="none"/><path d="M194.465 172.746l4.515-11.164" stroke-width="1.2" stroke="#00f" stroke-miterlimit="10" fill="none"/><path d="M187.715 185.656l7.41 9.492" stroke-width="1.2" stroke="#000" stroke-miterlimit="10" fill="none"/><path d="M195.125 195.148l7.41 9.493" stroke-width="1.2" stroke="#f00" stroke-miterlimit="10" fill="none"/><path d="M192.18 182.168l7.414 9.492" stroke-width="1.2" stroke="#000" stroke-miterlimit="10" fill="none"/><path d="M199.594 191.66l7.41 9.492" stroke-width="1.2" stroke="#f00" stroke-miterlimit="10" fill="none"/><path d="M198.98 161.582l11.926-1.672" stroke-width="1.2" stroke="#00f" stroke-miterlimit="10" fill="none"/><path d="M210.906 159.91l11.926-1.672" stroke-width="1.2" stroke="#000" stroke-miterlimit="10" fill="none"/><path d="M191.98 156.082h14v11h-14zm0 0" fill="#fff"/><g fill="#00f"><use xlink:href="#a" x="191.98" y="164.745"/><use xlink:href="#b" x="198.958" y="164.745"/></g><path d="M222.832 158.238l9.03-22.328M231.863 135.91l23.856-3.344M233.465 129.965l19.082-2.676M217.043 116.926l14.82 18.984M255.72 132.566l9.03-22.328M264.75 110.238l-14.82-18.984M258.8 111.828L246.946 96.64M249.93 91.254l-23.856 3.344M226.074 94.598l-9.03 22.328M230.426 98.953l-7.227 17.863M217.043 116.926l-11.926 1.672" stroke-width="1.2" stroke="#000" stroke-miterlimit="10" fill="none"/><path d="M205.117 118.598l-11.926 1.668M193.19 120.266l-7.41-9.493" stroke-width="1.2" stroke="#00f" stroke-miterlimit="10" fill="none"/><path d="M185.78 110.773l-7.41-9.492" stroke-width="1.2" stroke="#000" stroke-miterlimit="10" fill="none"/><path d="M186.19 114.766h14v11h-14zm0 0" fill="#fff"/><g fill="#00f"><use xlink:href="#a" x="186.191" y="123.429"/><use xlink:href="#b" x="193.169" y="123.429"/></g><path d="M180.996 102.344l4.516-11.164" stroke-width="1.2" stroke="#000" stroke-miterlimit="10" fill="none"/><path d="M185.512 91.18l4.515-11.164" stroke-width="1.2" stroke="#f00" stroke-miterlimit="10" fill="none"/><path d="M175.742 100.22l4.516-11.165" stroke-width="1.2" stroke="#000" stroke-miterlimit="10" fill="none"/><path d="M180.258 89.055l4.515-11.164" stroke-width="1.2" stroke="#f00" stroke-miterlimit="10" fill="none"/><path d="M178.37 101.28l-23.854 3.345" stroke-width="1.2" stroke="#000" stroke-miterlimit="10" fill="none"/><path d="M183.402 73.453h8v11h-8zm0 0" fill="#fff"/><use xlink:href="#c" x="183.402" y="82.116" fill="#f00"/><path d="M154.516 104.625l-14.82-18.988M148.566 106.21L136.71 91.024M145.484 126.953l9.032-22.328M139.695 85.637L115.84 88.98M115.84 88.98l-9.03 22.33M120.19 93.336l-7.225 17.863M106.81 111.31l-11.927 1.67" stroke-width="1.2" stroke="#000" stroke-miterlimit="10" fill="none"/><path d="M94.883 112.98l-11.926 1.672" stroke-width="1.2" stroke="#00f" stroke-miterlimit="10" fill="none"/><path d="M106.81 111.31l14.82 18.983" stroke-width="1.2" stroke="#000" stroke-miterlimit="10" fill="none"/><path d="M82.957 114.652l-7.41-9.496" stroke-width="1.2" stroke="#00f" stroke-miterlimit="10" fill="none"/><path d="M75.547 105.156l-7.41-9.492M73.926 136.98l4.515-11.164" stroke-width="1.2" stroke="#000" stroke-miterlimit="10" fill="none"/><path d="M78.44 125.816l4.517-11.164" stroke-width="1.2" stroke="#00f" stroke-miterlimit="10" fill="none"/><path d="M79.957 109.152h7v11h-7zm0 0" fill="#fff"/><use xlink:href="#a" x="79.957" y="117.815" fill="#00f"/><path d="M68.137 95.664L44.28 99.008M44.28 99.008l-4.514 11.164" stroke-width="1.2" stroke="#000" stroke-miterlimit="10" fill="none"/><path d="M39.766 110.172l-4.516 11.164M35.25 121.336l7.41 9.492" stroke-width="1.2" stroke="#f00" stroke-miterlimit="10" fill="none"/><path d="M42.66 130.828l7.41 9.492" stroke-width="1.2" stroke="#000" stroke-miterlimit="10" fill="none"/><path d="M31.25 115.836h8v11h-8zm0 0" fill="#fff"/><use xlink:href="#c" x="31.25" y="124.499" fill="#f00"/><path d="M50.07 140.32l23.856-3.34M71.69 138.723l7.412 9.492" stroke-width="1.2" stroke="#000" stroke-miterlimit="10" fill="none"/><path d="M79.102 148.215l7.41 9.496" stroke-width="1.2" stroke="#f00" stroke-miterlimit="10" fill="none"/><path d="M76.156 135.234l7.414 9.496" stroke-width="1.2" stroke="#000" stroke-miterlimit="10" fill="none"/><path d="M83.57 144.73l7.41 9.493" stroke-width="1.2" stroke="#f00" stroke-miterlimit="10" fill="none"/><path d="M84.746 150.465h8v11h-8zm0 0" fill="#fff"/><use xlink:href="#c" x="84.746" y="159.128" fill="#f00"/><path d="M121.63 130.293l23.854-3.34M123.23 124.348l19.082-2.676" stroke-width="1.2" stroke="#000" stroke-miterlimit="10" fill="none"/><path d="M200.77 197.398h8v11h-8zm0 0" fill="#fff"/><use xlink:href="#c" x="200.77" y="206.062" fill="#f00"/><path d="M154.777 208.516l-11.86-2.098" stroke-width="1.2" stroke="#cc0" stroke-miterlimit="10" fill="none"/><path d="M142.918 206.418l-11.86-2.094" stroke-width="1.2" stroke="#000" stroke-miterlimit="10" fill="none"/><path d="M151.777 203.016h6v11h-6zm0 0" fill="#fff"/><use xlink:href="#d" x="151.777" y="211.679" fill="#cc0"/><path d="M131.06 204.324l-8.665 8.363" stroke-width="1.2" stroke="#000" stroke-miterlimit="10" fill="none"/><path d="M122.395 212.688l-8.668 8.36" stroke-width="1.2" stroke="#0c0" stroke-miterlimit="10" fill="none"/><path d="M131.06 204.324l-3.34-23.855M136.336 201.152l-2.672-19.082" stroke-width="1.2" stroke="#000" stroke-miterlimit="10" fill="none"/><path d="M103.727 215.547h10v11h-10zm0 0" fill="#fff"/><g fill="#0c0"><use xlink:href="#e" x="103.727" y="224.21"/><use xlink:href="#f" x="110.24" y="224.21"/></g><path d="M127.72 180.47l21.65-10.548" stroke-width="1.2" stroke="#000" stroke-miterlimit="10" fill="none"/></g></svg>