<svg xmlns="http://www.w3.org/2000/svg" xmlns:xlink="http://www.w3.org/1999/xlink" width="300pt" height="300pt" viewBox="0 0 300 300"><defs><symbol overflow="visible"><path d="M.453 1.594v-7.938h4.5v7.938zm.5-.5h3.5v-6.938h-3.5zm0 0"/></symbol><symbol overflow="visible" id="a"><path d="M.89-6.563H2.08l2.906 5.485v-5.484h.86V0H4.656L1.75-5.484V0H.89zm0 0"/></symbol><symbol overflow="visible" id="b"><path d="M.89-6.563h.876v2.688H5v-2.688h.89V0H5v-3.125H1.766V0H.89zm0 0"/></symbol><symbol overflow="visible" id="d"><path d="M3.547-5.953c-.65 0-1.164.242-1.547.72-.375.48-.563 1.13-.563 1.952 0 .835.188 1.49.563 1.967.383.48.898.72 1.547.72.644 0 1.156-.24 1.53-.72.376-.476.564-1.132.564-1.968 0-.822-.187-1.474-.562-1.954-.375-.477-.887-.72-1.53-.72zm0-.734c.914 0 1.648.312 2.203.937.55.617.828 1.438.828 2.47 0 1.042-.277 1.87-.828 2.483-.555.617-1.29.922-2.203.922-.93 0-1.668-.305-2.22-.922C.774-1.41.5-2.237.5-3.28c0-1.033.273-1.853.828-2.47.55-.625 1.29-.938 2.22-.938zm0 0"/></symbol><symbol overflow="visible" id="e"><path d="M5.797-6.063v.938c-.305-.27-.625-.473-.97-.61-.335-.144-.686-.218-1.06-.218-.75 0-1.33.23-1.736.687-.397.46-.592 1.12-.592 1.985 0 .866.195 1.526.593 1.983.408.46.986.688 1.736.688.375 0 .726-.066 1.062-.203.344-.132.664-.343.97-.625V-.5c-.314.21-.642.367-.986.47-.343.1-.714.155-1.11.155-.99 0-1.772-.3-2.343-.906C.784-1.396.5-2.228.5-3.28c0-1.052.285-1.88.86-2.486.57-.613 1.35-.92 2.343-.92.395-.002.766.053 1.11.155.35.104.68.26.984.468zm0 0"/></symbol><symbol overflow="visible" id="f"><path d="M.844-6.844h.812V0H.844zm0 0"/></symbol><symbol overflow="visible" id="g"><path d="M4.813-6.344v.86c-.336-.157-.653-.27-.954-.344-.294-.082-.58-.125-.86-.125-.492 0-.867.094-1.125.28-.262.19-.39.454-.39.798 0 .293.085.512.265.656.176.15.504.267.984.36l.547.11c.658.125 1.142.352 1.454.672.32.312.485.734.485 1.265 0 .637-.216 1.122-.642 1.454-.43.325-1.055.485-1.875.485-.312 0-.648-.04-1-.11C1.36-.046 1-.147.625-.296v-.906c.352.2.703.35 1.047.453.35.105.695.156 1.03.156.5 0 .884-.097 1.157-.297.28-.196.42-.485.42-.86 0-.32-.1-.57-.296-.75-.2-.176-.523-.313-.968-.406l-.547-.11C1.81-3.148 1.33-3.36 1.03-3.64.74-3.923.595-4.313.595-4.813c0-.57.203-1.024.61-1.36.405-.344.968-.516 1.687-.516.313 0 .626.032.938.094.32.055.65.137.985.25zm0 0"/></symbol><symbol overflow="visible"><path d="M.406 1.422V-5.64h4V1.42zM.844.97h3.11v-6.157H.843zm0 0"/></symbol><symbol overflow="visible" id="c"><path d="M3.688-5.016v2.172h2.17v.672H3.69V0H3.03v-2.172H.845v-.672H3.03v-2.172zm0 0"/></symbol></defs><g><path fill="#fff" d="M0 0h300v300H0z"/><path d="M67.148 135.594l-4.76-10.172" stroke-width="1.2" stroke="#000" stroke-miterlimit="10" fill="none"/><path d="M62.387 125.422l-4.762-10.172" stroke-width="1.2" stroke="#00f" stroke-miterlimit="10" fill="none"/><path d="M89.523 137.516l-22.375-1.922" stroke-width="1.2" stroke="#000" stroke-miterlimit="10" fill="none"/><path d="M57.625 115.25l-22.035-5.87-.68 7.893zm0 0"/><path d="M57.625 115.25l6.43-9.207" stroke-width="1.2" stroke="#00f" stroke-miterlimit="10" fill="none"/><path d="M64.055 106.043l6.425-9.207" stroke-width="1.2" stroke="#000" stroke-miterlimit="10" fill="none"/><path d="M47.625 107.75h21v15h-21zm0 0" fill="#fff"/><g fill="#00f"><use xlink:href="#a" x="47.625" y="119.852"/><use xlink:href="#b" x="54.603" y="119.852"/></g><use xlink:href="#c" x="61.617" y="114.969" fill="#00f"/><path d="M70.48 96.836l22.375 1.926M92.855 98.762l9.524 20.34M102.38 119.102l10.74 3.27" stroke-width="1.2" stroke="#000" stroke-miterlimit="10" fill="none"/><path d="M113.12 122.37l10.743 3.267" stroke-width="1.2" stroke="#00f" stroke-miterlimit="10" fill="none"/><path d="M102.38 119.102l-12.857 18.414M105.426 123.97L95.14 138.7" stroke-width="1.2" stroke="#000" stroke-miterlimit="10" fill="none"/><path d="M123.863 125.637l.215 11.226" stroke-width="1.2" stroke="#00f" stroke-miterlimit="10" fill="none"/><path d="M124.078 136.863l.21 11.227" stroke-width="1.2" stroke="#000" stroke-miterlimit="10" fill="none"/><path d="M118.625 127.98l.168 8.985" stroke-width="1.2" stroke="#00f" stroke-miterlimit="10" fill="none"/><path d="M118.793 136.965l.172 8.98" stroke-width="1.2" stroke="#000" stroke-miterlimit="10" fill="none"/><path d="M120.863 120.137h7v11h-7zm0 0" fill="#fff"/><use xlink:href="#a" x="120.863" y="128.8" fill="#00f"/><path d="M124.29 148.09l18.417 12.855M124.29 148.09l-10.614 3.672" stroke-width="1.2" stroke="#000" stroke-miterlimit="10" fill="none"/><path d="M113.676 151.762l-10.61 3.672" stroke-width="1.2" stroke="#cc0" stroke-miterlimit="10" fill="none"/><path d="M142.707 160.945l-.965 11.192" stroke-width="1.2" stroke="#000" stroke-miterlimit="10" fill="none"/><path d="M141.742 172.137l-.96 11.187" stroke-width="1.2" stroke="#00f" stroke-miterlimit="10" fill="none"/><path d="M143.824 163.34l10.172-4.762" stroke-width="1.2" stroke="#000" stroke-miterlimit="10" fill="none"/><path d="M153.996 158.578l10.172-4.758" stroke-width="1.2" stroke="#f00" stroke-miterlimit="10" fill="none"/><path d="M141.586 158.555l10.168-4.762" stroke-width="1.2" stroke="#000" stroke-miterlimit="10" fill="none"/><path d="M151.754 153.793l10.172-4.762" stroke-width="1.2" stroke="#f00" stroke-miterlimit="10" fill="none"/><path d="M140.78 183.324l9.208 6.426" stroke-width="1.2" stroke="#00f" stroke-miterlimit="10" fill="none"/><path d="M149.988 189.75l9.207 6.43" stroke-width="1.2" stroke="#000" stroke-miterlimit="10" fill="none"/><path d="M133.78 177.824h14v11h-14zm0 0" fill="#fff"/><g fill="#00f"><use xlink:href="#a" x="133.781" y="186.487"/><use xlink:href="#b" x="140.759" y="186.487"/></g><path d="M159.195 196.18l-1.925 22.375M164.27 198.867l-1.543 17.903M179.535 186.656l-20.34 9.524M157.27 218.555l18.417 12.855M175.688 231.41l20.34-9.52M175.48 225.672l16.274-7.617M196.027 221.89l1.926-22.378M197.953 199.512l-18.418-12.856M193.086 202.56l-14.734-10.283M179.535 186.656l1.926-22.375M181.46 164.28l10.173-4.76" stroke-width="1.2" stroke="#000" stroke-miterlimit="10" fill="none"/><path d="M191.633 159.52l10.168-4.758M201.8 154.762l.966-11.188" stroke-width="1.2" stroke="#00f" stroke-miterlimit="10" fill="none"/><path d="M202.766 143.574l.96-11.19" stroke-width="1.2" stroke="#000" stroke-miterlimit="10" fill="none"/><path d="M194.8 149.262h14v11h-14zm0 0" fill="#fff"/><g fill="#00f"><use xlink:href="#a" x="194.801" y="157.925"/><use xlink:href="#b" x="201.778" y="157.925"/></g><path d="M205.238 130.22l-9.207-6.43" stroke-width="1.2" stroke="#000" stroke-miterlimit="10" fill="none"/><path d="M196.03 123.79l-9.206-6.427" stroke-width="1.2" stroke="#f00" stroke-miterlimit="10" fill="none"/><path d="M202.215 134.55l-9.207-6.425" stroke-width="1.2" stroke="#000" stroke-miterlimit="10" fill="none"/><path d="M193.008 128.125l-9.207-6.43" stroke-width="1.2" stroke="#f00" stroke-miterlimit="10" fill="none"/><path d="M203.727 132.383l20.343-9.52" stroke-width="1.2" stroke="#000" stroke-miterlimit="10" fill="none"/><path d="M177.313 114.027h8v11h-8zm0 0" fill="#fff"/><use xlink:href="#d" x="177.313" y="122.69" fill="#f00"/><path d="M224.07 122.863l18.414 12.856M228.934 119.816l14.734 10.286M225.992 100.488l-1.922 22.375M242.484 135.72l20.34-9.52M262.824 126.2l1.926-22.38M257.754 123.508l1.54-17.903M264.75 103.82l-18.414-12.855M246.336 90.965l.96-11.188" stroke-width="1.2" stroke="#000" stroke-miterlimit="10" fill="none"/><path d="M247.297 79.777l.96-11.187" stroke-width="1.2" stroke="#0c0" stroke-miterlimit="10" fill="none"/><path d="M246.336 90.965l-20.344 9.523M246.54 96.703l-16.27 7.617" stroke-width="1.2" stroke="#000" stroke-miterlimit="10" fill="none"/><path d="M243.258 63.09h10v11h-10zm0 0" fill="#fff"/><g fill="#0c0"><use xlink:href="#e" x="243.258" y="71.753"/><use xlink:href="#f" x="249.771" y="71.753"/></g><path d="M159.047 145.926h8v11h-8zm0 0" fill="#fff"/><use xlink:href="#d" x="159.047" y="154.589" fill="#f00"/><path d="M89.523 137.516l6.77 8.96" stroke-width="1.2" stroke="#000" stroke-miterlimit="10" fill="none"/><path d="M96.293 146.477l6.773 8.957" stroke-width="1.2" stroke="#cc0" stroke-miterlimit="10" fill="none"/><path d="M100.066 149.934h6v11h-6zm0 0" fill="#fff"/><use xlink:href="#g" x="100.066" y="158.597" fill="#cc0"/></g></svg>