<svg xmlns="http://www.w3.org/2000/svg" xmlns:xlink="http://www.w3.org/1999/xlink" width="300pt" height="300pt" viewBox="0 0 300 300"><defs><symbol overflow="visible"><path d="M.453 1.594v-7.938h4.5v7.938zm.5-.5h3.5v-6.938h-3.5zm0 0"/></symbol><symbol overflow="visible" id="a"><path d="M.89-6.563H2.08l2.906 5.485v-5.484h.86V0H4.656L1.75-5.484V0H.89zm0 0"/></symbol><symbol overflow="visible" id="b"><path d="M.89-6.563h.876v2.688H5v-2.688h.89V0H5v-3.125H1.766V0H.89zm0 0"/></symbol><symbol overflow="visible" id="c"><path d="M3.547-5.953c-.65 0-1.164.242-1.547.72-.375.48-.563 1.13-.563 1.952 0 .835.188 1.49.563 1.967.383.48.898.72 1.547.72.644 0 1.156-.24 1.53-.72.376-.476.564-1.132.564-1.968 0-.822-.187-1.474-.562-1.954-.375-.477-.887-.72-1.53-.72zm0-.734c.914 0 1.648.312 2.203.937.55.617.828 1.438.828 2.47 0 1.042-.277 1.87-.828 2.483-.555.617-1.29.922-2.203.922-.93 0-1.668-.305-2.22-.922C.774-1.41.5-2.237.5-3.28c0-1.033.273-1.853.828-2.47.55-.625 1.29-.938 2.22-.938zm0 0"/></symbol><symbol overflow="visible" id="d"><path d="M4.813-6.344v.86c-.336-.157-.653-.27-.954-.344-.294-.082-.58-.125-.86-.125-.492 0-.867.094-1.125.28-.262.19-.39.454-.39.798 0 .293.085.512.265.656.176.15.504.267.984.36l.547.11c.658.125 1.142.352 1.454.672.32.312.485.734.485 1.265 0 .637-.216 1.122-.642 1.454-.43.325-1.055.485-1.875.485-.312 0-.648-.04-1-.11C1.36-.046 1-.147.625-.296v-.906c.352.2.703.35 1.047.453.35.105.695.156 1.03.156.5 0 .884-.097 1.157-.297.28-.196.42-.485.42-.86 0-.32-.1-.57-.296-.75-.2-.176-.523-.313-.968-.406l-.547-.11C1.81-3.148 1.33-3.36 1.03-3.64.74-3.923.595-4.313.595-4.813c0-.57.203-1.024.61-1.36.405-.344.968-.516 1.687-.516.313 0 .626.032.938.094.32.055.65.137.985.25zm0 0"/></symbol><symbol overflow="visible" id="f"><path d="M5.797-6.063v.938c-.305-.27-.625-.473-.97-.61-.335-.144-.686-.218-1.06-.218-.75 0-1.33.23-1.736.687-.397.46-.592 1.12-.592 1.985 0 .866.195 1.526.593 1.983.408.46.986.688 1.736.688.375 0 .726-.066 1.062-.203.344-.132.664-.343.97-.625V-.5c-.314.21-.642.367-.986.47-.343.1-.714.155-1.11.155-.99 0-1.772-.3-2.343-.906C.784-1.396.5-2.228.5-3.28c0-1.052.285-1.88.86-2.486.57-.613 1.35-.92 2.343-.92.395-.002.766.053 1.11.155.35.104.68.26.984.468zm0 0"/></symbol><symbol overflow="visible" id="g"><path d="M.844-6.844h.812V0H.844zm0 0"/></symbol><symbol overflow="visible"><path d="M.406 1.422V-5.64h4V1.42zM.844.97h3.11v-6.157H.843zm0 0"/></symbol><symbol overflow="visible" id="e"><path d="M3.688-5.016v2.172h2.17v.672H3.69V0H3.03v-2.172H.845v-.672H3.03v-2.172zm0 0"/></symbol></defs><g><path fill="#fff" d="M0 0h300v300H0z"/><path d="M151.715 148.34l8.28-.848" stroke-width="1.2" stroke="#000" stroke-miterlimit="10" fill="none"/><path d="M159.996 147.492l8.277-.844" stroke-width="1.2" stroke="#00f" stroke-miterlimit="10" fill="none"/><path d="M151.715 148.34l-9.738-13.496" stroke-width="1.2" stroke="#000" stroke-miterlimit="10" fill="none"/><path d="M168.273 146.648l4.872 6.747" stroke-width="1.2" stroke="#00f" stroke-miterlimit="10" fill="none"/><path d="M173.145 153.395l4.87 6.746" stroke-width="1.2" stroke="#000" stroke-miterlimit="10" fill="none"/><path d="M161.273 141.148h14v11h-14zm0 0" fill="#fff"/><g fill="#00f"><use xlink:href="#a" x="161.273" y="149.812"/><use xlink:href="#b" x="168.251" y="149.812"/></g><path d="M176.227 159.34l-3.407 7.59" stroke-width="1.2" stroke="#000" stroke-miterlimit="10" fill="none"/><path d="M172.82 166.93l-3.406 7.593" stroke-width="1.2" stroke="#f00" stroke-miterlimit="10" fill="none"/><path d="M179.8 160.94l-3.405 7.595" stroke-width="1.2" stroke="#000" stroke-miterlimit="10" fill="none"/><path d="M176.395 168.535l-3.407 7.59" stroke-width="1.2" stroke="#f00" stroke-miterlimit="10" fill="none"/><path d="M178.016 160.14l16.554-1.69" stroke-width="1.2" stroke="#000" stroke-miterlimit="10" fill="none"/><path d="M163.2 169.824h8v11h-8zm0 0" fill="#fff"/><use xlink:href="#c" x="163.199" y="178.487" fill="#f00"/><path d="M194.57 158.45l5.55 6.198" stroke-width="1.2" stroke="#000" stroke-miterlimit="10" fill="none"/><path d="M200.12 164.648l5.548 6.204" stroke-width="1.2" stroke="#cc0" stroke-miterlimit="10" fill="none"/><path d="M194.57 158.45l4.18-7.192" stroke-width="1.2" stroke="#000" stroke-miterlimit="10" fill="none"/><path d="M198.75 151.258l4.184-7.196" stroke-width="1.2" stroke="#00f" stroke-miterlimit="10" fill="none"/><path d="M198.793 158.98l3.344-5.757" stroke-width="1.2" stroke="#000" stroke-miterlimit="10" fill="none"/><path d="M202.137 153.223l3.347-5.754" stroke-width="1.2" stroke="#00f" stroke-miterlimit="10" fill="none"/><path d="M220.89 164.125l-7.61 3.363" stroke-width="1.2" stroke="#000" stroke-miterlimit="10" fill="none"/><path d="M213.28 167.488l-7.612 3.364" stroke-width="1.2" stroke="#cc0" stroke-miterlimit="10" fill="none"/><path d="M202.668 165.352h6v11h-6zm0 0" fill="#fff"/><use xlink:href="#d" x="202.668" y="174.015" fill="#cc0"/><path d="M202.934 144.063l8.132 1.753" stroke-width="1.2" stroke="#00f" stroke-miterlimit="10" fill="none"/><path d="M211.066 145.816l8.137 1.754" stroke-width="1.2" stroke="#000" stroke-miterlimit="10" fill="none"/><path d="M199.934 138.563h7v11h-7zm0 0" fill="#fff"/><use xlink:href="#a" x="199.934" y="147.226" fill="#00f"/><path d="M219.203 147.57l1.688 16.555M223.266 148.828l1.35 13.246M219.203 147.57l13.492-9.742M220.89 164.125l15.184 6.816" stroke-width="1.2" stroke="#000" stroke-miterlimit="10" fill="none"/><path d="M249.566 161.2l-6.746 4.87" stroke-width="1.2" stroke="#00f" stroke-miterlimit="10" fill="none"/><path d="M242.82 166.07l-6.746 4.87M232.695 137.828l15.18 6.817M247.875 144.645l.848 8.277" stroke-width="1.2" stroke="#000" stroke-miterlimit="10" fill="none"/><path d="M248.723 152.922l.843 8.277" stroke-width="1.2" stroke="#00f" stroke-miterlimit="10" fill="none"/><path d="M249.566 161.2m2.485 1.683l.427-.95m2.054 2.637l.857-1.902m1.625 3.586l1.28-2.852m1.204 4.54l1.707-3.805m.774 5.488l2.132-4.754m-.563 5.82l2.406-5.354" stroke="#000" stroke-miterlimit="10" fill="none"/><path d="M239.566 153.7h21v15h-21zm0 0" fill="#fff"/><g fill="#00f"><use xlink:href="#a" x="239.566" y="165.801"/><use xlink:href="#b" x="246.544" y="165.801"/></g><use xlink:href="#e" x="253.559" y="160.918" fill="#00f"/><path d="M141.977 134.844l-8.282.847" stroke-width="1.2" stroke="#000" stroke-miterlimit="10" fill="none"/><path d="M133.695 135.69l-8.277.845M125.418 136.535l-4.87-6.746" stroke-width="1.2" stroke="#00f" stroke-miterlimit="10" fill="none"/><path d="M120.547 129.79l-4.87-6.747" stroke-width="1.2" stroke="#000" stroke-miterlimit="10" fill="none"/><path d="M125.418 136.535l-3.406 7.594" stroke-width="1.2" stroke="#00f" stroke-miterlimit="10" fill="none"/><path d="M122.012 144.13l-3.407 7.59" stroke-width="1.2" stroke="#000" stroke-miterlimit="10" fill="none"/><path d="M122.418 131.035h7v11h-7zm0 0" fill="#fff"/><use xlink:href="#a" x="122.418" y="139.698" fill="#00f"/><path d="M118.605 151.72l-16.554 1.69M117.02 152.863l4.87 6.746" stroke-width="1.2" stroke="#000" stroke-miterlimit="10" fill="none"/><path d="M121.89 159.61l4.868 6.745" stroke-width="1.2" stroke="#f00" stroke-miterlimit="10" fill="none"/><path d="M120.19 150.574l4.873 6.746" stroke-width="1.2" stroke="#000" stroke-miterlimit="10" fill="none"/><path d="M125.063 157.32l4.87 6.746" stroke-width="1.2" stroke="#f00" stroke-miterlimit="10" fill="none"/><path d="M102.05 153.41l-8.362 14.387M97.828 152.88l-6.69 11.51" stroke-width="1.2" stroke="#000" stroke-miterlimit="10" fill="none"/><path d="M90.95 141.008l5.55 6.2" stroke-width="1.2" stroke="#00f" stroke-miterlimit="10" fill="none"/><path d="M96.5 147.207l5.55 6.203M93.688 167.797l-16.27-3.508M77.418 164.29l-1.69-16.56M73.352 163.03L72 149.786M63.926 174.03l13.492-9.74M75.727 147.73l-15.184-6.812M75.727 147.73l7.613-3.36" stroke-width="1.2" stroke="#000" stroke-miterlimit="10" fill="none"/><path d="M83.34 144.37l7.61-3.362" stroke-width="1.2" stroke="#00f" stroke-miterlimit="10" fill="none"/><path d="M60.543 140.918L47.05 150.66M61.488 145.066l-10.793 7.793M47.05 150.66l1.692 16.555M48.742 167.215l-6.746 4.87" stroke-width="1.2" stroke="#000" stroke-miterlimit="10" fill="none"/><path d="M41.996 172.086l-6.746 4.87" stroke-width="1.2" stroke="#0c0" stroke-miterlimit="10" fill="none"/><path d="M48.742 167.215l15.184 6.816M51.863 164.324l12.15 5.453" stroke-width="1.2" stroke="#000" stroke-miterlimit="10" fill="none"/><path d="M25.25 171.457h10v11h-10zm0 0" fill="#fff"/><g fill="#0c0"><use xlink:href="#f" x="25.25" y="180.12"/><use xlink:href="#g" x="31.764" y="180.12"/></g><path d="M83.95 135.508h14v11h-14zm0 0" fill="#fff"/><g fill="#00f"><use xlink:href="#a" x="83.949" y="144.171"/><use xlink:href="#b" x="90.927" y="144.171"/></g><path d="M124.348 159.71h8v11h-8zm0 0" fill="#fff"/><use xlink:href="#c" x="124.348" y="168.374" fill="#f00"/></g></svg>