<svg xmlns="http://www.w3.org/2000/svg" xmlns:xlink="http://www.w3.org/1999/xlink" width="300pt" height="300pt" viewBox="0 0 300 300"><defs><symbol overflow="visible"><path d="M.453 1.594v-7.938h4.5v7.938zm.5-.5h3.5v-6.938h-3.5zm0 0"/></symbol><symbol overflow="visible" id="a"><path d="M3.547-5.953c-.65 0-1.164.242-1.547.72-.375.48-.563 1.13-.563 1.952 0 .835.188 1.49.563 1.967.383.48.898.72 1.547.72.644 0 1.156-.24 1.53-.72.376-.476.564-1.132.564-1.968 0-.822-.187-1.474-.562-1.954-.375-.477-.887-.72-1.53-.72zm0-.734c.914 0 1.648.312 2.203.937.55.617.828 1.438.828 2.47 0 1.042-.277 1.87-.828 2.483-.555.617-1.29.922-2.203.922-.93 0-1.668-.305-2.22-.922C.774-1.41.5-2.237.5-3.28c0-1.033.273-1.853.828-2.47.55-.625 1.29-.938 2.22-.938zm0 0"/></symbol><symbol overflow="visible" id="b"><path d="M.89-6.563H2.08l2.906 5.485v-5.484h.86V0H4.656L1.75-5.484V0H.89zm0 0"/></symbol><symbol overflow="visible" id="c"><path d="M.89-6.563h.876v2.688H5v-2.688h.89V0H5v-3.125H1.766V0H.89zm0 0"/></symbol><symbol overflow="visible" id="f"><path d="M4.813-6.344v.86c-.336-.157-.653-.27-.954-.344-.294-.082-.58-.125-.86-.125-.492 0-.867.094-1.125.28-.262.19-.39.454-.39.798 0 .293.085.512.265.656.176.15.504.267.984.36l.547.11c.658.125 1.142.352 1.454.672.32.312.485.734.485 1.265 0 .637-.216 1.122-.642 1.454-.43.325-1.055.485-1.875.485-.312 0-.648-.04-1-.11C1.36-.046 1-.147.625-.296v-.906c.352.2.703.35 1.047.453.35.105.695.156 1.03.156.5 0 .884-.097 1.157-.297.28-.196.42-.485.42-.86 0-.32-.1-.57-.296-.75-.2-.176-.523-.313-.968-.406l-.547-.11C1.81-3.148 1.33-3.36 1.03-3.64.74-3.923.595-4.313.595-4.813c0-.57.203-1.024.61-1.36.405-.344.968-.516 1.687-.516.313 0 .626.032.938.094.32.055.65.137.985.25zm0 0"/></symbol><symbol overflow="visible" id="g"><path d="M5.797-6.063v.938c-.305-.27-.625-.473-.97-.61-.335-.144-.686-.218-1.06-.218-.75 0-1.33.23-1.736.687-.397.46-.592 1.12-.592 1.985 0 .866.195 1.526.593 1.983.408.46.986.688 1.736.688.375 0 .726-.066 1.062-.203.344-.132.664-.343.97-.625V-.5c-.314.21-.642.367-.986.47-.343.1-.714.155-1.11.155-.99 0-1.772-.3-2.343-.906C.784-1.396.5-2.228.5-3.28c0-1.052.285-1.88.86-2.486.57-.613 1.35-.92 2.343-.92.395-.002.766.053 1.11.155.35.104.68.26.984.468zm0 0"/></symbol><symbol overflow="visible" id="h"><path d="M.844-6.844h.812V0H.844zm0 0"/></symbol><symbol overflow="visible"><path d="M.406 1.422V-5.64h4V1.42zM.844.97h3.11v-6.157H.843zm0 0"/></symbol><symbol overflow="visible" id="d"><path d="M1.53-.672h2.767V0H.594v-.672c.29-.3.695-.71 1.22-1.234.518-.532.842-.867.967-1.016.26-.28.44-.52.533-.72.1-.194.156-.39.156-.577 0-.31-.11-.565-.33-.764-.218-.196-.5-.297-.843-.297-.25 0-.516.046-.797.14-.273.085-.563.214-.875.39v-.797c.32-.133.617-.234.89-.297.282-.062.536-.093.766-.093.603 0 1.083.152 1.44.453.362.304.546.703.546 1.203 0 .24-.047.468-.14.686-.095.22-.26.477-.485.766-.074.074-.288.293-.64.656-.344.356-.836.856-1.47 1.5zm0 0"/></symbol><symbol overflow="visible" id="e"><path d="M3.688-5.016v2.172h2.17v.672H3.69V0H3.03v-2.172H.845v-.672H3.03v-2.172zm0 0"/></symbol></defs><g><path fill="#fff" d="M0 0h300v300H0z"/><path d="M60.09 153.48l-3.578 5.727" stroke-width="1.2" stroke="#000" stroke-miterlimit="10" fill="none"/><path d="M56.512 159.207l-3.578 5.73" stroke-width="1.2" stroke="#f00" stroke-miterlimit="10" fill="none"/><path d="M62.785 155.164l-3.578 5.727" stroke-width="1.2" stroke="#000" stroke-miterlimit="10" fill="none"/><path d="M59.207 160.89l-3.578 5.73" stroke-width="1.2" stroke="#f00" stroke-miterlimit="10" fill="none"/><path d="M61.438 154.32l-6.344-11.925M61.438 154.32l6.75.235" stroke-width="1.2" stroke="#000" stroke-miterlimit="10" fill="none"/><path d="M68.188 154.555l6.75.234" stroke-width="1.2" stroke="#00f" stroke-miterlimit="10" fill="none"/><path d="M46.28 160.277h8v11h-8zm0 0" fill="#fff"/><use xlink:href="#a" x="46.281" y="168.94" fill="#f00"/><path d="M55.094 142.395l7.156-11.454M41.594 141.926l13.5.47M62.25 130.94l-6.344-11.924M55.906 119.016l-6.75-.235" stroke-width="1.2" stroke="#000" stroke-miterlimit="10" fill="none"/><path d="M49.156 118.78l-6.75-.233M42.406 118.547l-3.578 5.726" stroke-width="1.2" stroke="#00f" stroke-miterlimit="10" fill="none"/><path d="M38.828 124.273L35.25 130" stroke-width="1.2" stroke="#000" stroke-miterlimit="10" fill="none"/><path d="M29.406 109.047h26v19h-26zm0 0" fill="#fff"/><g fill="#00f"><use xlink:href="#b" x="29.406" y="121.148"/><use xlink:href="#c" x="36.384" y="121.148"/></g><use xlink:href="#d" x="43.398" y="126.031" fill="#00f"/><use xlink:href="#e" x="48.349" y="116.266" fill="#00f"/><path d="M35.25 130l6.344 11.926" stroke-width="1.2" stroke="#000" stroke-miterlimit="10" fill="none"/><path d="M74.938 154.79l3.17 5.964" stroke-width="1.2" stroke="#00f" stroke-miterlimit="10" fill="none"/><path d="M78.11 160.754l3.17 5.96" stroke-width="1.2" stroke="#000" stroke-miterlimit="10" fill="none"/><path d="M74.938 154.79l3.578-5.727" stroke-width="1.2" stroke="#00f" stroke-miterlimit="10" fill="none"/><path d="M78.516 149.063l3.578-5.73" stroke-width="1.2" stroke="#000" stroke-miterlimit="10" fill="none"/><path d="M71.938 149.29h7v11h-7zm0 0" fill="#fff"/><use xlink:href="#b" x="71.938" y="157.952" fill="#00f"/><path d="M94.78 167.184l-13.417-2.848-.164 4.762zm0 0"/><path d="M94.78 167.184l13.5.468M94.78 167.184l7.157-11.457M108.28 167.652l3.58-5.726" stroke-width="1.2" stroke="#000" stroke-miterlimit="10" fill="none"/><path d="M111.86 161.926l3.578-5.73M115.438 156.195l-3.172-5.96" stroke-width="1.2" stroke="#00f" stroke-miterlimit="10" fill="none"/><path d="M112.266 150.234l-3.172-5.96" stroke-width="1.2" stroke="#000" stroke-miterlimit="10" fill="none"/><path d="M115.438 156.195l6.75.235" stroke-width="1.2" stroke="#00f" stroke-miterlimit="10" fill="none"/><path d="M122.188 156.43l6.75.238" stroke-width="1.2" stroke="#000" stroke-miterlimit="10" fill="none"/><path d="M112.438 150.695h7v11h-7zm0 0" fill="#fff"/><use xlink:href="#b" x="112.438" y="159.358" fill="#00f"/><path d="M95.594 143.805l13.418 2.847.164-4.76zm0 0"/><path d="M130.285 157.508l3.578-5.727" stroke-width="1.2" stroke="#000" stroke-miterlimit="10" fill="none"/><path d="M133.863 151.78l3.578-5.73" stroke-width="1.2" stroke="#f00" stroke-miterlimit="10" fill="none"/><path d="M127.59 155.824l3.578-5.73" stroke-width="1.2" stroke="#000" stroke-miterlimit="10" fill="none"/><path d="M131.168 150.094l3.578-5.727" stroke-width="1.2" stroke="#f00" stroke-miterlimit="10" fill="none"/><path d="M128.938 156.668l6.343 11.922" stroke-width="1.2" stroke="#000" stroke-miterlimit="10" fill="none"/><path d="M132.094 139.71h8v11h-8zm0 0" fill="#fff"/><use xlink:href="#a" x="132.094" y="148.374" fill="#f00"/><path d="M135.28 168.59l6.75.234" stroke-width="1.2" stroke="#000" stroke-miterlimit="10" fill="none"/><path d="M142.03 168.824l6.75.235M148.78 169.06l3.173 5.963" stroke-width="1.2" stroke="#00f" stroke-miterlimit="10" fill="none"/><path d="M151.953 175.023l3.172 5.96" stroke-width="1.2" stroke="#000" stroke-miterlimit="10" fill="none"/><path d="M148.78 169.06l3.58-5.728" stroke-width="1.2" stroke="#00f" stroke-miterlimit="10" fill="none"/><path d="M152.36 163.332l3.577-5.727" stroke-width="1.2" stroke="#000" stroke-miterlimit="10" fill="none"/><path d="M145.78 163.56h7v11h-7zm0 0" fill="#fff"/><use xlink:href="#b" x="145.781" y="172.222" fill="#00f"/><path d="M155.125 180.984l13.5.47M168.625 181.453L175.78 170M169.438 158.074L175.78 170M157.34 156.855l-3.172-5.96" stroke-width="1.2" stroke="#000" stroke-miterlimit="10" fill="none"/><path d="M154.168 150.895l-3.172-5.965" stroke-width="1.2" stroke="#f00" stroke-miterlimit="10" fill="none"/><path d="M154.535 158.352l-3.172-5.965" stroke-width="1.2" stroke="#000" stroke-miterlimit="10" fill="none"/><path d="M151.363 152.387l-3.172-5.96" stroke-width="1.2" stroke="#f00" stroke-miterlimit="10" fill="none"/><path d="M155.938 157.605l13.5.47" stroke-width="1.2" stroke="#000" stroke-miterlimit="10" fill="none"/><path d="M141.594 140.18h8v11h-8zm0 0" fill="#fff"/><use xlink:href="#a" x="141.594" y="148.843" fill="#f00"/><path d="M169.438 158.074l9.18-10.195-4.048-2.528zm0 0"/><path d="M176.594 146.617l6.75.235" stroke-width="1.2" stroke="#00f" stroke-miterlimit="10" fill="none"/><path d="M183.344 146.852l6.75.234" stroke-width="1.2" stroke="#cc0" stroke-miterlimit="10" fill="none"/><path d="M169.594 141.117h14v11h-14zm0 0" fill="#fff"/><g fill="#00f"><use xlink:href="#b" x="169.594" y="149.78"/><use xlink:href="#c" x="176.571" y="149.78"/></g><path d="M191.684 147.14l.234-6.75" stroke-width="1.2" stroke="#cc0" stroke-miterlimit="10" fill="none"/><path d="M191.918 140.39l.234-6.75" stroke-width="1.2" stroke="#f00" stroke-miterlimit="10" fill="none"/><path d="M188.504 147.027l.234-6.75" stroke-width="1.2" stroke="#cc0" stroke-miterlimit="10" fill="none"/><path d="M188.738 140.277l.235-6.75" stroke-width="1.2" stroke="#f00" stroke-miterlimit="10" fill="none"/><path d="M188.504 147.027l-.234 6.75" stroke-width="1.2" stroke="#cc0" stroke-miterlimit="10" fill="none"/><path d="M188.27 153.777l-.235 6.75" stroke-width="1.2" stroke="#f00" stroke-miterlimit="10" fill="none"/><path d="M191.684 147.14l-.235 6.75" stroke-width="1.2" stroke="#cc0" stroke-miterlimit="10" fill="none"/><path d="M191.45 153.89l-.235 6.75" stroke-width="1.2" stroke="#f00" stroke-miterlimit="10" fill="none"/><path d="M190.094 147.086l6.75.234" stroke-width="1.2" stroke="#cc0" stroke-miterlimit="10" fill="none"/><path d="M196.844 147.32l6.75.235" stroke-width="1.2" stroke="#000" stroke-miterlimit="10" fill="none"/><path d="M187.094 141.586h6v11h-6zm0 0" fill="#fff"/><use xlink:href="#f" x="187.094" y="150.249" fill="#cc0"/><path d="M186.563 128.086h8v11h-8zm0 0" fill="#fff"/><use xlink:href="#a" x="186.563" y="136.749" fill="#f00"/><path d="M185.625 155.086h8v11h-8zm0 0" fill="#fff"/><use xlink:href="#a" x="185.625" y="163.749" fill="#f00"/><path d="M203.594 147.555l6.344 11.925M207.035 147.254l5.074 9.54M210.75 136.098l-7.156 11.457M209.938 159.48l13.5.47M223.438 159.95l7.156-11.458M221.457 157.117l5.727-9.164M230.594 148.492l-6.344-11.926M244.094 148.96l-13.5-.468M224.25 136.566l7.156-11.457M224.25 136.566l-13.5-.468M222.79 139.695l-10.802-.375M231.406 125.11l13.5.468M232.645 128.332l10.8.375M244.906 125.578l6.344 11.926M251.25 137.504l6.75.234" stroke-width="1.2" stroke="#000" stroke-miterlimit="10" fill="none"/><path d="M258 137.738l6.75.235" stroke-width="1.2" stroke="#0c0" stroke-miterlimit="10" fill="none"/><path d="M251.25 137.504l-7.156 11.457M247.84 136.965l-5.727 9.164" stroke-width="1.2" stroke="#000" stroke-miterlimit="10" fill="none"/><path d="M259.75 132.473h10v11h-10zm0 0" fill="#fff"/><g fill="#0c0"><use xlink:href="#g" x="259.75" y="141.136"/><use xlink:href="#h" x="266.264" y="141.136"/></g><path d="M101.938 155.727l-6.344-11.922M82.094 143.332l13.5.473" stroke-width="1.2" stroke="#000" stroke-miterlimit="10" fill="none"/></g></svg>