<svg xmlns="http://www.w3.org/2000/svg" xmlns:xlink="http://www.w3.org/1999/xlink" width="300pt" height="300pt" viewBox="0 0 300 300"><defs><symbol overflow="visible"><path d="M.453 1.594v-7.938h4.5v7.938zm.5-.5h3.5v-6.938h-3.5zm0 0"/></symbol><symbol overflow="visible" id="a"><path d="M3.547-5.953c-.65 0-1.164.242-1.547.72-.375.48-.563 1.13-.563 1.952 0 .835.188 1.49.563 1.967.383.48.898.72 1.547.72.644 0 1.156-.24 1.53-.72.376-.476.564-1.132.564-1.968 0-.822-.187-1.474-.562-1.954-.375-.477-.887-.72-1.53-.72zm0-.734c.914 0 1.648.312 2.203.937.55.617.828 1.438.828 2.47 0 1.042-.277 1.87-.828 2.483-.555.617-1.29.922-2.203.922-.93 0-1.668-.305-2.22-.922C.774-1.41.5-2.237.5-3.28c0-1.033.273-1.853.828-2.47.55-.625 1.29-.938 2.22-.938zm0 0"/></symbol><symbol overflow="visible" id="c"><path d="M.89-6.563H2.08l2.906 5.485v-5.484h.86V0H4.656L1.75-5.484V0H.89zm0 0"/></symbol><symbol overflow="visible" id="d"><path d="M.89-6.563h.876v2.688H5v-2.688h.89V0H5v-3.125H1.766V0H.89zm0 0"/></symbol><symbol overflow="visible"><path d="M.406 1.422V-5.64h4V1.42zM.844.97h3.11v-6.157H.843zm0 0"/></symbol><symbol overflow="visible" id="b"><path d="M.39-2.516H2.5v.64H.39zm0 0"/></symbol><symbol overflow="visible" id="e"><path d="M3.688-5.016v2.172h2.17v.672H3.69V0H3.03v-2.172H.845v-.672H3.03v-2.172zm0 0"/></symbol></defs><g><path fill="#fff" d="M0 0h300v300H0z"/><path d="M219.09 73.156l4.98-9.742" stroke-width="1.2" stroke="#000" stroke-miterlimit="10" fill="none"/><path d="M224.07 63.414l4.977-9.746" stroke-width="1.2" stroke="#f00" stroke-miterlimit="10" fill="none"/><path d="M218.957 70.586l-10.93.562" stroke-width="1.2" stroke="#000" stroke-miterlimit="10" fill="none"/><path d="M208.027 71.148l-10.925.56" stroke-width="1.2" stroke="#f00" stroke-miterlimit="10" fill="none"/><path d="M219.223 75.73l-10.93.56" stroke-width="1.2" stroke="#000" stroke-miterlimit="10" fill="none"/><path d="M208.293 76.29l-10.93.562" stroke-width="1.2" stroke="#f00" stroke-miterlimit="10" fill="none"/><path d="M219.09 73.156l11.902 18.37" stroke-width="1.2" stroke="#000" stroke-miterlimit="10" fill="none"/><path d="M224.047 46.168h11v15h-11zm0 0" fill="#fff"/><use xlink:href="#a" x="224.047" y="58.27" fill="#f00"/><use xlink:href="#b" x="231.389" y="53.387" fill="#f00"/><path d="M189.23 68.78h8v11h-8zm0 0" fill="#fff"/><use xlink:href="#a" x="189.23" y="77.444" fill="#f00"/><path d="M230.992 91.527l21.856-1.12M233.44 96.56l17.486-.9M221.03 111.02l9.962-19.493M252.848 90.406l11.902 18.37M264.75 108.777l-9.957 19.49M259.168 108.383l-7.965 15.59M254.793 128.266l-21.86 1.12M232.934 129.387l-4.98 9.746" stroke-width="1.2" stroke="#000" stroke-miterlimit="10" fill="none"/><path d="M227.953 139.133l-4.976 9.746" stroke-width="1.2" stroke="#00f" stroke-miterlimit="10" fill="none"/><path d="M232.934 129.387L221.03 111.02M236.066 124.75l-9.52-14.695" stroke-width="1.2" stroke="#000" stroke-miterlimit="10" fill="none"/><path d="M222.977 148.88l5.95 9.183" stroke-width="1.2" stroke="#00f" stroke-miterlimit="10" fill="none"/><path d="M228.926 158.063l5.95 9.183" stroke-width="1.2" stroke="#000" stroke-miterlimit="10" fill="none"/><path d="M215.977 143.38h14v11h-14zm0 0" fill="#fff"/><g fill="#00f"><use xlink:href="#c" x="215.977" y="152.042"/><use xlink:href="#d" x="222.954" y="152.042"/></g><path d="M235.008 169.82l10.93-.562" stroke-width="1.2" stroke="#000" stroke-miterlimit="10" fill="none"/><path d="M245.938 169.258l10.93-.56" stroke-width="1.2" stroke="#f00" stroke-miterlimit="10" fill="none"/><path d="M234.742 164.676l10.93-.56" stroke-width="1.2" stroke="#000" stroke-miterlimit="10" fill="none"/><path d="M245.672 164.117l10.93-.562" stroke-width="1.2" stroke="#f00" stroke-miterlimit="10" fill="none"/><path d="M234.875 167.246l-9.957 19.492" stroke-width="1.2" stroke="#000" stroke-miterlimit="10" fill="none"/><path d="M252.734 160.625h8v11h-8zm0 0" fill="#fff"/><use xlink:href="#a" x="252.734" y="169.288" fill="#f00"/><path d="M224.918 186.738l-21.86 1.12M222.996 191.996l-17.488.895M236.816 205.11l-11.898-18.372M203.06 187.86L193.1 207.35M193.102 207.352L205 225.72M198.613 206.387l9.52 14.695M205 225.72l-4.977 9.745" stroke-width="1.2" stroke="#000" stroke-miterlimit="10" fill="none"/><path d="M200.023 235.465l-4.98 9.746" stroke-width="1.2" stroke="#f00" stroke-miterlimit="10" fill="none"/><path d="M205 225.72l21.86-1.122" stroke-width="1.2" stroke="#000" stroke-miterlimit="10" fill="none"/><path d="M195.043 245.21l-10.93.563" stroke-width="1.2" stroke="#f00" stroke-miterlimit="10" fill="none"/><path d="M184.113 245.773l-10.93.56" stroke-width="1.2" stroke="#000" stroke-miterlimit="10" fill="none"/><path d="M191.043 239.71h8v11h-8zm0 0" fill="#fff"/><use xlink:href="#a" x="191.043" y="248.374" fill="#f00"/><path d="M226.86 224.598l9.956-19.49M223.27 220.31l7.964-15.595M221.03 111.02l-10.928.558" stroke-width="1.2" stroke="#000" stroke-miterlimit="10" fill="none"/><path d="M210.102 111.578l-10.926.563M199.176 112.14l-4.98 9.747" stroke-width="1.2" stroke="#00f" stroke-miterlimit="10" fill="none"/><path d="M194.195 121.887l-4.98 9.742" stroke-width="1.2" stroke="#000" stroke-miterlimit="10" fill="none"/><path d="M192.176 106.64h14v11h-14zm0 0" fill="#fff"/><g fill="#00f"><use xlink:href="#c" x="192.176" y="115.304"/><use xlink:href="#d" x="199.153" y="115.304"/></g><path d="M187.055 133.03l5.95 9.185" stroke-width="1.2" stroke="#000" stroke-miterlimit="10" fill="none"/><path d="M193.004 142.215l5.953 9.183" stroke-width="1.2" stroke="#f00" stroke-miterlimit="10" fill="none"/><path d="M191.38 130.23l5.948 9.184" stroke-width="1.2" stroke="#000" stroke-miterlimit="10" fill="none"/><path d="M197.328 139.414l5.95 9.188" stroke-width="1.2" stroke="#f00" stroke-miterlimit="10" fill="none"/><path d="M189.215 131.63l-21.86 1.124" stroke-width="1.2" stroke="#000" stroke-miterlimit="10" fill="none"/><path d="M197.117 144.5h8v11h-8zm0 0" fill="#fff"/><use xlink:href="#a" x="197.117" y="153.163" fill="#f00"/><path d="M167.355 132.754l-9.957 19.488M161.773 132.36l-7.964 15.59M155.457 114.383l11.898 18.37M157.398 152.242l-21.86 1.12M135.54 153.363l-11.9-18.367M138.672 148.727l-9.52-14.696M123.64 134.996l-10.93.56" stroke-width="1.2" stroke="#000" stroke-miterlimit="10" fill="none"/><path d="M112.71 135.555l-10.93.562" stroke-width="1.2" stroke="#00f" stroke-miterlimit="10" fill="none"/><path d="M123.64 134.996l9.958-19.492" stroke-width="1.2" stroke="#000" stroke-miterlimit="10" fill="none"/><path d="M101.78 136.117l-5.245-9.605" stroke-width="1.2" stroke="#00f" stroke-miterlimit="10" fill="none"/><path d="M96.535 126.512l-5.25-9.602M93.31 156.297l4.233-10.09" stroke-width="1.2" stroke="#000" stroke-miterlimit="10" fill="none"/><path d="M97.543 146.207l4.238-10.09" stroke-width="1.2" stroke="#00f" stroke-miterlimit="10" fill="none"/><path d="M98.78 130.617h7v11h-7zm0 0" fill="#fff"/><use xlink:href="#c" x="98.781" y="139.28" fill="#00f"/><path d="M91.285 116.91l-21.558-3.773M69.727 113.137l-16.39 14.508M53.336 127.645l.562 10.93" stroke-width="1.2" stroke="#000" stroke-miterlimit="10" fill="none"/><path d="M53.898 138.574l.56 10.93" stroke-width="1.2" stroke="#00f" stroke-miterlimit="10" fill="none"/><path d="M54.457 149.504l-21.06 7.1 3.705 6.783zm0 0"/><path d="M54.457 149.504l8.895 6.375" stroke-width="1.2" stroke="#00f" stroke-miterlimit="10" fill="none"/><path d="M63.352 155.88l8.894 6.374" stroke-width="1.2" stroke="#000" stroke-miterlimit="10" fill="none"/><path d="M44.457 142.004h21v15h-21zm0 0" fill="#fff"/><g fill="#00f"><use xlink:href="#c" x="44.457" y="154.105"/><use xlink:href="#d" x="51.435" y="154.105"/></g><use xlink:href="#e" x="58.449" y="149.223" fill="#00f"/><path d="M72.246 162.254l21.063-5.957M133.598 115.504l21.86-1.12M136.047 120.535l17.488-.898" stroke-width="1.2" stroke="#000" stroke-miterlimit="10" fill="none"/></g></svg>