<svg xmlns="http://www.w3.org/2000/svg" xmlns:xlink="http://www.w3.org/1999/xlink" width="300pt" height="300pt" viewBox="0 0 300 300"><defs><symbol overflow="visible"><path d="M.453 1.594v-7.938h4.5v7.938zm.5-.5h3.5v-6.938h-3.5zm0 0"/></symbol><symbol overflow="visible" id="a"><path d="M.89-6.563H2.08l2.906 5.485v-5.484h.86V0H4.656L1.75-5.484V0H.89zm0 0"/></symbol><symbol overflow="visible" id="b"><path d="M.89-6.563h.876v2.688H5v-2.688h.89V0H5v-3.125H1.766V0H.89zm0 0"/></symbol><symbol overflow="visible" id="d"><path d="M4.813-6.344v.86c-.336-.157-.653-.27-.954-.344-.294-.082-.58-.125-.86-.125-.492 0-.867.094-1.125.28-.262.19-.39.454-.39.798 0 .293.085.512.265.656.176.15.504.267.984.36l.547.11c.658.125 1.142.352 1.454.672.32.312.485.734.485 1.265 0 .637-.216 1.122-.642 1.454-.43.325-1.055.485-1.875.485-.312 0-.648-.04-1-.11C1.36-.046 1-.147.625-.296v-.906c.352.2.703.35 1.047.453.35.105.695.156 1.03.156.5 0 .884-.097 1.157-.297.28-.196.42-.485.42-.86 0-.32-.1-.57-.296-.75-.2-.176-.523-.313-.968-.406l-.547-.11C1.81-3.148 1.33-3.36 1.03-3.64.74-3.923.595-4.313.595-4.813c0-.57.203-1.024.61-1.36.405-.344.968-.516 1.687-.516.313 0 .626.032.938.094.32.055.65.137.985.25zm0 0"/></symbol><symbol overflow="visible" id="e"><path d="M3.547-5.953c-.65 0-1.164.242-1.547.72-.375.48-.563 1.13-.563 1.952 0 .835.188 1.49.563 1.967.383.48.898.72 1.547.72.644 0 1.156-.24 1.53-.72.376-.476.564-1.132.564-1.968 0-.822-.187-1.474-.562-1.954-.375-.477-.887-.72-1.53-.72zm0-.734c.914 0 1.648.312 2.203.937.55.617.828 1.438.828 2.47 0 1.042-.277 1.87-.828 2.483-.555.617-1.29.922-2.203.922-.93 0-1.668-.305-2.22-.922C.774-1.41.5-2.237.5-3.28c0-1.033.273-1.853.828-2.47.55-.625 1.29-.938 2.22-.938zm0 0"/></symbol><symbol overflow="visible" id="f"><path d="M5.797-6.063v.938c-.305-.27-.625-.473-.97-.61-.335-.144-.686-.218-1.06-.218-.75 0-1.33.23-1.736.687-.397.46-.592 1.12-.592 1.985 0 .866.195 1.526.593 1.983.408.46.986.688 1.736.688.375 0 .726-.066 1.062-.203.344-.132.664-.343.97-.625V-.5c-.314.21-.642.367-.986.47-.343.1-.714.155-1.11.155-.99 0-1.772-.3-2.343-.906C.784-1.396.5-2.228.5-3.28c0-1.052.285-1.88.86-2.486.57-.613 1.35-.92 2.343-.92.395-.002.766.053 1.11.155.35.104.68.26.984.468zm0 0"/></symbol><symbol overflow="visible" id="g"><path d="M.844-6.844h.812V0H.844zm0 0"/></symbol><symbol overflow="visible"><path d="M.406 1.422V-5.64h4V1.42zM.844.97h3.11v-6.157H.843zm0 0"/></symbol><symbol overflow="visible" id="c"><path d="M3.688-5.016v2.172h2.17v.672H3.69V0H3.03v-2.172H.845v-.672H3.03v-2.172zm0 0"/></symbol><symbol overflow="visible" id="h"><path d="M.39-2.516H2.5v.64H.39zm0 0"/></symbol></defs><g><path fill="#fff" d="M0 0h300v300H0z"/><path d="M226.535 90.398l22.04 5.95M227.34 96.18l17.63 4.76M220.668 68.332l5.867 22.066" stroke-width="1.2" stroke="#000" stroke-miterlimit="10" fill="none"/><path d="M214.063 109.52l6.234-9.563" stroke-width="1.2" stroke="#cc0" stroke-miterlimit="10" fill="none"/><path d="M220.297 99.957l6.238-9.56M248.574 96.348l16.176-16.11M248.574 96.348l.574 11.402" stroke-width="1.2" stroke="#000" stroke-miterlimit="10" fill="none"/><path d="M249.148 107.75l.58 11.398" stroke-width="1.2" stroke="#00f" stroke-miterlimit="10" fill="none"/><path d="M264.75 80.238l-5.867-22.062M258.883 58.176l-11.02-2.977" stroke-width="1.2" stroke="#000" stroke-miterlimit="10" fill="none"/><path d="M247.863 55.2l-11.02-2.977" stroke-width="1.2" stroke="#00f" stroke-miterlimit="10" fill="none"/><path d="M236.844 52.223m-.254-2.99l-1.008.267m.75-3.258l-2.016.535m1.762-3.523l-3.023.805m2.77-3.794l-4.032 1.07m3.773-4.06l-5.035 1.34m4.782-4.33l-6.046 1.61m5.793-4.6l-7.056 1.876m6.867-4.05l-7.784 2.07" stroke="#000" stroke-miterlimit="10" fill="none"/><path d="M236.844 52.223l-8.086 8.054" stroke-width="1.2" stroke="#00f" stroke-miterlimit="10" fill="none"/><path d="M228.758 60.277l-8.09 8.055" stroke-width="1.2" stroke="#000" stroke-miterlimit="10" fill="none"/><path d="M226.844 44.723h21v15h-21zm0 0" fill="#fff"/><g fill="#00f"><use xlink:href="#a" x="226.844" y="56.824"/><use xlink:href="#b" x="233.821" y="56.824"/></g><use xlink:href="#c" x="240.836" y="51.941" fill="#00f"/><path d="M249.727 119.148l-10.668 4.07" stroke-width="1.2" stroke="#00f" stroke-miterlimit="10" fill="none"/><path d="M239.06 123.22l-10.665 4.07" stroke-width="1.2" stroke="#000" stroke-miterlimit="10" fill="none"/><path d="M245.676 114.945l-8.53 3.258" stroke-width="1.2" stroke="#00f" stroke-miterlimit="10" fill="none"/><path d="M237.145 118.203l-8.532 3.254" stroke-width="1.2" stroke="#000" stroke-miterlimit="10" fill="none"/><path d="M246.727 113.648h7v11h-7zm0 0" fill="#fff"/><use xlink:href="#a" x="246.727" y="122.312" fill="#00f"/><path d="M228.395 127.29l-7.165-8.884" stroke-width="1.2" stroke="#000" stroke-miterlimit="10" fill="none"/><path d="M221.23 118.406l-7.167-8.886" stroke-width="1.2" stroke="#cc0" stroke-miterlimit="10" fill="none"/><path d="M228.395 127.29l-5.954 22.042" stroke-width="1.2" stroke="#000" stroke-miterlimit="10" fill="none"/><path d="M211.063 104.02h6v11h-6zm0 0" fill="#fff"/><use xlink:href="#d" x="211.063" y="112.683" fill="#cc0"/><path d="M220.54 151.227l8.058 8.085" stroke-width="1.2" stroke="#000" stroke-miterlimit="10" fill="none"/><path d="M228.598 159.313l8.054 8.09" stroke-width="1.2" stroke="#f00" stroke-miterlimit="10" fill="none"/><path d="M224.348 147.434l8.054 8.09" stroke-width="1.2" stroke="#000" stroke-miterlimit="10" fill="none"/><path d="M232.402 155.523l8.055 8.086" stroke-width="1.2" stroke="#f00" stroke-miterlimit="10" fill="none"/><path d="M222.44 149.332l-11.03 2.93" stroke-width="1.2" stroke="#000" stroke-miterlimit="10" fill="none"/><path d="M211.41 152.262l-11.03 2.933" stroke-width="1.2" stroke="#00f" stroke-miterlimit="10" fill="none"/><path d="M234.555 160.004h8v11h-8zm0 0" fill="#fff"/><use xlink:href="#e" x="234.555" y="168.667" fill="#f00"/><path d="M194.426 177.234m1.273-2.714l-1.005-.27m2.278-2.445l-2.012-.543m3.29-2.176l-3.023-.813m4.296-1.902l-4.027-1.085m5.3-1.63l-5.034-1.358m6.308-1.36l-6.043-1.628m7.317-1.087l-7.047-1.903m7.973-.074l-7.782-2.1" stroke="#000" stroke-miterlimit="10" fill="none"/><path d="M193.38 149.695h14v11h-14zm0 0" fill="#fff"/><g fill="#00f"><use xlink:href="#a" x="193.379" y="158.358"/><use xlink:href="#b" x="200.356" y="158.358"/></g><path d="M194.426 177.234l-22.063 5.868M210.54 193.41l-16.114-16.176" stroke-width="1.2" stroke="#000" stroke-miterlimit="10" fill="none"/><path d="M172.363 183.102m-1.715-2.46l-.738.733m-.976-3.195l-1.48 1.472m-.235-3.933l-2.22 2.206m.5-4.668l-2.953 2.94m1.238-5.4l-3.69 3.68m1.975-6.142l-4.433 4.414m2.718-6.875l-5.17 5.148m3.92-6.94l-5.707 5.687" stroke="#000" stroke-miterlimit="10" fill="none"/><path d="M172.363 183.102l-5.953 22.04" stroke-width="1.2" stroke="#000" stroke-miterlimit="10" fill="none"/><path d="M156.254 166.926l-11.035 2.933" stroke-width="1.2" stroke="#00f" stroke-miterlimit="10" fill="none"/><path d="M145.22 169.86l-11.032 2.933" stroke-width="1.2" stroke="#000" stroke-miterlimit="10" fill="none"/><path d="M149.254 161.426h14v11h-14zm0 0" fill="#fff"/><g fill="#00f"><use xlink:href="#a" x="149.254" y="170.089"/><use xlink:href="#b" x="156.231" y="170.089"/></g><path d="M131.594 172.094l-2.973 11.02" stroke-width="1.2" stroke="#000" stroke-miterlimit="10" fill="none"/><path d="M128.62 183.113l-2.975 11.02" stroke-width="1.2" stroke="#f00" stroke-miterlimit="10" fill="none"/><path d="M136.78 173.492l-2.975 11.02" stroke-width="1.2" stroke="#000" stroke-miterlimit="10" fill="none"/><path d="M133.805 184.512l-2.977 11.02" stroke-width="1.2" stroke="#f00" stroke-miterlimit="10" fill="none"/><path d="M134.188 172.793l-16.11-16.176" stroke-width="1.2" stroke="#000" stroke-miterlimit="10" fill="none"/><path d="M124.238 189.332h8v11h-8zm0 0" fill="#fff"/><use xlink:href="#e" x="124.238" y="197.995" fill="#f00"/><path d="M118.078 156.617l-22.558 3.528M114.992 151.664l-18.047 2.82" stroke-width="1.2" stroke="#000" stroke-miterlimit="10" fill="none"/><path d="M121.69 134.074l-1.803 11.274" stroke-width="1.2" stroke="#00f" stroke-miterlimit="10" fill="none"/><path d="M119.887 145.348l-1.81 11.27M95.52 160.145L85.195 139.78M85.195 139.78l16.176-16.108M83.023 134.367l12.942-12.89M63.156 133.832l22.04 5.95M101.37 123.672l-5.862-22.067M101.37 123.672l10.16 5.203" stroke-width="1.2" stroke="#000" stroke-miterlimit="10" fill="none"/><path d="M111.53 128.875l10.16 5.2" stroke-width="1.2" stroke="#00f" stroke-miterlimit="10" fill="none"/><path d="M95.508 101.605l-22.043-5.95M91.902 106.2l-17.632-4.763M73.465 95.656l-16.176 16.11M57.29 111.766l-11.02-2.977" stroke-width="1.2" stroke="#000" stroke-miterlimit="10" fill="none"/><path d="M46.27 108.79l-11.02-2.978" stroke-width="1.2" stroke="#0c0" stroke-miterlimit="10" fill="none"/><path d="M57.29 111.766l5.866 22.066M63.07 112.594l4.692 17.648" stroke-width="1.2" stroke="#000" stroke-miterlimit="10" fill="none"/><path d="M25.25 100.313h10v11h-10zm0 0" fill="#fff"/><g fill="#0c0"><use xlink:href="#f" x="25.25" y="108.976"/><use xlink:href="#g" x="31.764" y="108.976"/></g><path d="M114.69 128.574h14v11h-14zm0 0" fill="#fff"/><g fill="#00f"><use xlink:href="#a" x="114.691" y="137.237"/><use xlink:href="#b" x="121.669" y="137.237"/></g><path d="M166.41 205.14l16.113 16.176M182.523 221.316l11.032-2.933" stroke-width="1.2" stroke="#000" stroke-miterlimit="10" fill="none"/><path d="M193.555 218.383l11.03-2.93" stroke-width="1.2" stroke="#00f" stroke-miterlimit="10" fill="none"/><path d="M204.586 215.453m1.715 2.46l.743-.737m.977 3.2l1.476-1.474m.238 3.934l2.215-2.207m-.5 4.667l2.952-2.945m-1.238 5.406l3.695-3.68m-1.98 6.14l4.433-4.413m-2.72 6.875l5.173-5.153m-3.922 6.942l5.707-5.685" stroke="#000" stroke-miterlimit="10" fill="none"/><path d="M204.586 215.453l2.976-11.023" stroke-width="1.2" stroke="#00f" stroke-miterlimit="10" fill="none"/><path d="M207.563 204.43l2.976-11.02" stroke-width="1.2" stroke="#000" stroke-miterlimit="10" fill="none"/><path d="M194.586 207.953h21v15h-21zm0 0" fill="#fff"/><g fill="#00f"><use xlink:href="#a" x="194.586" y="220.055"/><use xlink:href="#b" x="201.563" y="220.055"/></g><use xlink:href="#c" x="208.578" y="215.172" fill="#00f"/><path d="M220.7 231.625l-5.954 22.043M214.055 251.07l-11.032 2.934" stroke-width="1.2" stroke="#000" stroke-miterlimit="10" fill="none"/><path d="M203.023 254.004l-11.03 2.934" stroke-width="1.2" stroke="#f00" stroke-miterlimit="10" fill="none"/><path d="M215.438 256.262l-11.032 2.933" stroke-width="1.2" stroke="#000" stroke-miterlimit="10" fill="none"/><path d="M204.406 259.195l-11.035 2.934" stroke-width="1.2" stroke="#f00" stroke-miterlimit="10" fill="none"/><path d="M214.746 253.668l8.055 8.086" stroke-width="1.2" stroke="#000" stroke-miterlimit="10" fill="none"/><path d="M222.8 261.754l8.06 8.09" stroke-width="1.2" stroke="#f00" stroke-miterlimit="10" fill="none"/><path d="M184.684 254.03h8v11h-8zm0 0" fill="#fff"/><use xlink:href="#e" x="184.684" y="262.694" fill="#f00"/><path d="M225.86 262.344h11v15h-11zm0 0" fill="#fff"/><use xlink:href="#e" x="225.859" y="274.445" fill="#f00"/><use xlink:href="#h" x="233.201" y="269.563" fill="#f00"/></g></svg>