<svg xmlns="http://www.w3.org/2000/svg" xmlns:xlink="http://www.w3.org/1999/xlink" width="300pt" height="300pt" viewBox="0 0 300 300"><defs><symbol overflow="visible"><path d="M.453 1.594v-7.938h4.5v7.938zm.5-.5h3.5v-6.938h-3.5zm0 0"/></symbol><symbol overflow="visible" id="a"><path d="M5.797-6.063v.938c-.305-.27-.625-.473-.97-.61-.335-.144-.686-.218-1.06-.218-.75 0-1.33.23-1.736.687-.397.46-.592 1.12-.592 1.985 0 .866.195 1.526.593 1.983.408.46.986.688 1.736.688.375 0 .726-.066 1.062-.203.344-.132.664-.343.97-.625V-.5c-.314.21-.642.367-.986.47-.343.1-.714.155-1.11.155-.99 0-1.772-.3-2.343-.906C.784-1.396.5-2.228.5-3.28c0-1.052.285-1.88.86-2.486.57-.613 1.35-.92 2.343-.92.395-.002.766.053 1.11.155.35.104.68.26.984.468zm0 0"/></symbol><symbol overflow="visible" id="b"><path d="M.844-6.844h.812V0H.844zm0 0"/></symbol><symbol overflow="visible" id="c"><path d="M4.813-6.344v.86c-.336-.157-.653-.27-.954-.344-.294-.082-.58-.125-.86-.125-.492 0-.867.094-1.125.28-.262.19-.39.454-.39.798 0 .293.085.512.265.656.176.15.504.267.984.36l.547.11c.658.125 1.142.352 1.454.672.32.312.485.734.485 1.265 0 .637-.216 1.122-.642 1.454-.43.325-1.055.485-1.875.485-.312 0-.648-.04-1-.11C1.36-.046 1-.147.625-.296v-.906c.352.2.703.35 1.047.453.35.105.695.156 1.03.156.5 0 .884-.097 1.157-.297.28-.196.42-.485.42-.86 0-.32-.1-.57-.296-.75-.2-.176-.523-.313-.968-.406l-.547-.11C1.81-3.148 1.33-3.36 1.03-3.64.74-3.923.595-4.313.595-4.813c0-.57.203-1.024.61-1.36.405-.344.968-.516 1.687-.516.313 0 .626.032.938.094.32.055.65.137.985.25zm0 0"/></symbol><symbol overflow="visible" id="d"><path d="M3.547-5.953c-.65 0-1.164.242-1.547.72-.375.48-.563 1.13-.563 1.952 0 .835.188 1.49.563 1.967.383.48.898.72 1.547.72.644 0 1.156-.24 1.53-.72.376-.476.564-1.132.564-1.968 0-.822-.187-1.474-.562-1.954-.375-.477-.887-.72-1.53-.72zm0-.734c.914 0 1.648.312 2.203.937.55.617.828 1.438.828 2.47 0 1.042-.277 1.87-.828 2.483-.555.617-1.29.922-2.203.922-.93 0-1.668-.305-2.22-.922C.774-1.41.5-2.237.5-3.28c0-1.033.273-1.853.828-2.47.55-.625 1.29-.938 2.22-.938zm0 0"/></symbol><symbol overflow="visible" id="e"><path d="M.89-6.563H2.08l2.906 5.485v-5.484h.86V0H4.656L1.75-5.484V0H.89zm0 0"/></symbol><symbol overflow="visible" id="f"><path d="M.89-6.563h.876v2.688H5v-2.688h.89V0H5v-3.125H1.766V0H.89zm0 0"/></symbol><symbol overflow="visible"><path d="M.406 1.422V-5.64h4V1.42zM.844.97h3.11v-6.157H.843zm0 0"/></symbol><symbol overflow="visible" id="g"><path d="M3.688-5.016v2.172h2.17v.672H3.69V0H3.03v-2.172H.845v-.672H3.03v-2.172zm0 0"/></symbol></defs><g><path fill="#fff" d="M0 0h300v300H0z"/><path d="M249.176 142.25l7.785 4.152" stroke-width="1.2" stroke="#000" stroke-miterlimit="10" fill="none"/><path d="M256.96 146.402l7.79 4.157" stroke-width="1.2" stroke="#0c0" stroke-miterlimit="10" fill="none"/><path d="M249.176 142.25l-14.988 9.332M245.48 139.656l-11.988 7.47M248.582 124.605l.594 17.645" stroke-width="1.2" stroke="#000" stroke-miterlimit="10" fill="none"/><path d="M259.75 145.06h10v11h-10zm0 0" fill="#fff"/><g fill="#0c0"><use xlink:href="#a" x="259.75" y="153.722"/><use xlink:href="#b" x="266.264" y="153.722"/></g><path d="M234.188 151.582l-15.575-8.31M218.613 143.273l-.59-17.644M214.402 141.648l-.472-14.113M203.63 152.61l14.983-9.337M218.023 125.63l-15.578-8.31M218.023 125.63l14.985-9.333M202.445 117.32l-14.984 9.336M203.145 121.78l-11.99 7.466M187.46 126.656l-7.788-4.156" stroke-width="1.2" stroke="#000" stroke-miterlimit="10" fill="none"/><path d="M179.672 122.5l-7.785-4.156" stroke-width="1.2" stroke="#cc0" stroke-miterlimit="10" fill="none"/><path d="M187.46 126.656l.595 17.64" stroke-width="1.2" stroke="#000" stroke-miterlimit="10" fill="none"/><path d="M170.05 117.367l-4.152 7.79" stroke-width="1.2" stroke="#cc0" stroke-miterlimit="10" fill="none"/><path d="M165.898 125.156l-4.156 7.79" stroke-width="1.2" stroke="#f00" stroke-miterlimit="10" fill="none"/><path d="M173.72 119.324l-4.157 7.785" stroke-width="1.2" stroke="#cc0" stroke-miterlimit="10" fill="none"/><path d="M169.563 127.11l-4.157 7.788" stroke-width="1.2" stroke="#f00" stroke-miterlimit="10" fill="none"/><path d="M173.72 119.324l4.15-7.79" stroke-width="1.2" stroke="#cc0" stroke-miterlimit="10" fill="none"/><path d="M177.87 111.535l4.157-7.79" stroke-width="1.2" stroke="#f00" stroke-miterlimit="10" fill="none"/><path d="M170.05 117.367l4.157-7.79" stroke-width="1.2" stroke="#cc0" stroke-miterlimit="10" fill="none"/><path d="M174.207 109.578l4.156-7.785" stroke-width="1.2" stroke="#f00" stroke-miterlimit="10" fill="none"/><path d="M171.887 118.344l-7.79-4.153" stroke-width="1.2" stroke="#cc0" stroke-miterlimit="10" fill="none"/><path d="M164.098 114.19l-7.79-4.155" stroke-width="1.2" stroke="#000" stroke-miterlimit="10" fill="none"/><path d="M168.887 112.844h6v11h-6zm0 0" fill="#fff"/><use xlink:href="#c" x="168.887" y="121.507" fill="#cc0"/><path d="M155.574 128.422h8v11h-8zm0 0" fill="#fff"/><use xlink:href="#d" x="155.574" y="137.085" fill="#f00"/><path d="M176.195 97.27h8v11h-8zm0 0" fill="#fff"/><use xlink:href="#d" x="176.195" y="105.933" fill="#f00"/><path d="M156.31 110.035l-14.986 9.336M141.324 119.37l-15.574-8.31M125.75 111.06l-7.492 4.667" stroke-width="1.2" stroke="#000" stroke-miterlimit="10" fill="none"/><path d="M118.258 115.727l-7.492 4.668M110.766 120.395l-7.79-4.157" stroke-width="1.2" stroke="#00f" stroke-miterlimit="10" fill="none"/><path d="M102.977 116.238l-7.79-4.152" stroke-width="1.2" stroke="#000" stroke-miterlimit="10" fill="none"/><path d="M110.766 120.395l.293 8.82" stroke-width="1.2" stroke="#00f" stroke-miterlimit="10" fill="none"/><path d="M111.06 129.215l.295 8.824" stroke-width="1.2" stroke="#000" stroke-miterlimit="10" fill="none"/><path d="M107.766 114.895h7v11h-7zm0 0" fill="#fff"/><use xlink:href="#e" x="107.766" y="123.558" fill="#00f"/><path d="M95.188 112.086l-14.985 9.332M81.18 119.586l-7.785-4.152" stroke-width="1.2" stroke="#000" stroke-miterlimit="10" fill="none"/><path d="M73.395 115.434l-7.79-4.157" stroke-width="1.2" stroke="#f00" stroke-miterlimit="10" fill="none"/><path d="M79.227 123.25l-7.79-4.152" stroke-width="1.2" stroke="#000" stroke-miterlimit="10" fill="none"/><path d="M71.438 119.098l-7.79-4.157" stroke-width="1.2" stroke="#f00" stroke-miterlimit="10" fill="none"/><path d="M80.203 121.418l.297 8.824" stroke-width="1.2" stroke="#000" stroke-miterlimit="10" fill="none"/><path d="M80.5 130.242l.297 8.82" stroke-width="1.2" stroke="#f00" stroke-miterlimit="10" fill="none"/><path d="M56.63 107.61h8v11h-8zm0 0" fill="#fff"/><use xlink:href="#d" x="56.629" y="116.272" fill="#f00"/><path d="M80.797 139.063l-7.492 4.667" stroke-width="1.2" stroke="#f00" stroke-miterlimit="10" fill="none"/><path d="M73.305 143.73l-7.493 4.668" stroke-width="1.2" stroke="#00f" stroke-miterlimit="10" fill="none"/><path d="M76.797 133.563h8v11h-8zm0 0" fill="#fff"/><use xlink:href="#d" x="76.797" y="142.226" fill="#f00"/><path d="M65.813 148.398l-7.79-4.156" stroke-width="1.2" stroke="#00f" stroke-miterlimit="10" fill="none"/><path d="M58.023 144.242l-7.79-4.152M66.402 166.043l-.297-8.824" stroke-width="1.2" stroke="#000" stroke-miterlimit="10" fill="none"/><path d="M66.105 157.22l-.293-8.822" stroke-width="1.2" stroke="#00f" stroke-miterlimit="10" fill="none"/><path d="M62.813 142.898h7v11h-7zm0 0" fill="#fff"/><use xlink:href="#e" x="62.813" y="151.562" fill="#00f"/><path d="M50.234 140.09l-14.984 9.332M35.25 149.422l.297 8.824" stroke-width="1.2" stroke="#000" stroke-miterlimit="10" fill="none"/><path d="M35.547 158.246l.293 8.82M35.84 167.066l7.79 4.157" stroke-width="1.2" stroke="#f00" stroke-miterlimit="10" fill="none"/><path d="M43.63 171.223l7.788 4.152" stroke-width="1.2" stroke="#000" stroke-miterlimit="10" fill="none"/><path d="M31.84 161.566h8v11h-8zm0 0" fill="#fff"/><use xlink:href="#d" x="31.84" y="170.229" fill="#f00"/><path d="M51.418 175.375l14.984-9.332M111.355 138.04l15.58 8.308M110.258 136.277l-7.492 4.664" stroke-width="1.2" stroke="#000" stroke-miterlimit="10" fill="none"/><path d="M102.766 140.94l-7.493 4.67" stroke-width="1.2" stroke="#f00" stroke-miterlimit="10" fill="none"/><path d="M112.453 139.8l-7.492 4.67" stroke-width="1.2" stroke="#000" stroke-miterlimit="10" fill="none"/><path d="M104.96 144.47l-7.49 4.667" stroke-width="1.2" stroke="#f00" stroke-miterlimit="10" fill="none"/><path d="M126.934 146.348l.59 17.644M141.918 137.016l-14.984 9.332M127.523 163.992l15.575 8.31M143.098 172.3l7.492-4.663" stroke-width="1.2" stroke="#000" stroke-miterlimit="10" fill="none"/><path d="M150.59 167.637l7.492-4.668M158.082 162.97l7.79 4.15" stroke-width="1.2" stroke="#00f" stroke-miterlimit="10" fill="none"/><path d="M165.87 167.12l7.79 4.157" stroke-width="1.2" stroke="#000" stroke-miterlimit="10" fill="none"/><path d="M158.082 162.97l-.293-8.825" stroke-width="1.2" stroke="#00f" stroke-miterlimit="10" fill="none"/><path d="M157.79 154.145l-.298-8.82" stroke-width="1.2" stroke="#000" stroke-miterlimit="10" fill="none"/><path d="M155.082 157.47h7v11h-7zm0 0" fill="#fff"/><use xlink:href="#e" x="155.082" y="166.132" fill="#00f"/><path d="M173.66 171.277l.59 17.645M177.87 172.902l.474 14.118M188.645 161.94l-14.985 9.337M174.25 188.922l15.578 8.308M189.828 197.23l7.492-4.667" stroke-width="1.2" stroke="#000" stroke-miterlimit="10" fill="none"/><path d="M197.32 192.563l7.493-4.665" stroke-width="1.2" stroke="#00f" stroke-miterlimit="10" fill="none"/><path d="M189.13 192.773l5.995-3.734" stroke-width="1.2" stroke="#000" stroke-miterlimit="10" fill="none"/><path d="M195.125 189.04l5.992-3.735M204.813 187.898l-.297-8.824" stroke-width="1.2" stroke="#00f" stroke-miterlimit="10" fill="none"/><path d="M204.516 179.074l-.297-8.82" stroke-width="1.2" stroke="#000" stroke-miterlimit="10" fill="none"/><path d="M194.813 180.398h21v15h-21zm0 0" fill="#fff"/><g fill="#00f"><use xlink:href="#e" x="194.813" y="192.5"/><use xlink:href="#f" x="201.79" y="192.5"/></g><use xlink:href="#g" x="208.805" y="187.617" fill="#00f"/><path d="M204.22 170.254l-15.575-8.313M200.707 173.086l-12.46-6.65M157.492 145.324l-15.574-8.308" stroke-width="1.2" stroke="#000" stroke-miterlimit="10" fill="none"/><path d="M88.37 141.875h8v11h-8zm0 0" fill="#fff"/><use xlink:href="#d" x="88.371" y="150.538" fill="#f00"/><path d="M188.055 144.297l15.574 8.312M191.566 141.465l12.46 6.648M233.008 116.297l15.574 8.308M232.61 120.793l12.46 6.644" stroke-width="1.2" stroke="#000" stroke-miterlimit="10" fill="none"/></g></svg>