<svg xmlns="http://www.w3.org/2000/svg" xmlns:xlink="http://www.w3.org/1999/xlink" width="300pt" height="300pt" viewBox="0 0 300 300"><defs><symbol overflow="visible"><path d="M.453 1.594v-7.938h4.5v7.938zm.5-.5h3.5v-6.938h-3.5zm0 0"/></symbol><symbol overflow="visible" id="a"><path d="M.89-6.563H2.08l2.906 5.485v-5.484h.86V0H4.656L1.75-5.484V0H.89zm0 0"/></symbol><symbol overflow="visible" id="b"><path d="M3.547-5.953c-.65 0-1.164.242-1.547.72-.375.48-.563 1.13-.563 1.952 0 .835.188 1.49.563 1.967.383.48.898.72 1.547.72.644 0 1.156-.24 1.53-.72.376-.476.564-1.132.564-1.968 0-.822-.187-1.474-.562-1.954-.375-.477-.887-.72-1.53-.72zm0-.734c.914 0 1.648.312 2.203.937.55.617.828 1.438.828 2.47 0 1.042-.277 1.87-.828 2.483-.555.617-1.29.922-2.203.922-.93 0-1.668-.305-2.22-.922C.774-1.41.5-2.237.5-3.28c0-1.033.273-1.853.828-2.47.55-.625 1.29-.938 2.22-.938zm0 0"/></symbol><symbol overflow="visible" id="c"><path d="M4.813-6.344v.86c-.336-.157-.653-.27-.954-.344-.294-.082-.58-.125-.86-.125-.492 0-.867.094-1.125.28-.262.19-.39.454-.39.798 0 .293.085.512.265.656.176.15.504.267.984.36l.547.11c.658.125 1.142.352 1.454.672.32.312.485.734.485 1.265 0 .637-.216 1.122-.642 1.454-.43.325-1.055.485-1.875.485-.312 0-.648-.04-1-.11C1.36-.046 1-.147.625-.296v-.906c.352.2.703.35 1.047.453.35.105.695.156 1.03.156.5 0 .884-.097 1.157-.297.28-.196.42-.485.42-.86 0-.32-.1-.57-.296-.75-.2-.176-.523-.313-.968-.406l-.547-.11C1.81-3.148 1.33-3.36 1.03-3.64.74-3.923.595-4.313.595-4.813c0-.57.203-1.024.61-1.36.405-.344.968-.516 1.687-.516.313 0 .626.032.938.094.32.055.65.137.985.25zm0 0"/></symbol><symbol overflow="visible" id="d"><path d="M5.797-6.063v.938c-.305-.27-.625-.473-.97-.61-.335-.144-.686-.218-1.06-.218-.75 0-1.33.23-1.736.687-.397.46-.592 1.12-.592 1.985 0 .866.195 1.526.593 1.983.408.46.986.688 1.736.688.375 0 .726-.066 1.062-.203.344-.132.664-.343.97-.625V-.5c-.314.21-.642.367-.986.47-.343.1-.714.155-1.11.155-.99 0-1.772-.3-2.343-.906C.784-1.396.5-2.228.5-3.28c0-1.052.285-1.88.86-2.486.57-.613 1.35-.92 2.343-.92.395-.002.766.053 1.11.155.35.104.68.26.984.468zm0 0"/></symbol><symbol overflow="visible" id="e"><path d="M.844-6.844h.812V0H.844zm0 0"/></symbol><symbol overflow="visible" id="f"><path d="M.89-6.563h.876v2.688H5v-2.688h.89V0H5v-3.125H1.766V0H.89zm0 0"/></symbol></defs><g><path fill="#fff" d="M0 0h300v300H0z"/><path d="M118.938 142.5l6.988-4.53" stroke-width="1.2" stroke="#00f" stroke-miterlimit="10" fill="none"/><path d="M125.926 137.97l6.988-4.536" stroke-width="1.2" stroke="#000" stroke-miterlimit="10" fill="none"/><path d="M118.938 142.5l-7.418-3.785" stroke-width="1.2" stroke="#00f" stroke-miterlimit="10" fill="none"/><path d="M111.52 138.715l-7.422-3.785M119.8 159.137l-.43-8.317" stroke-width="1.2" stroke="#000" stroke-miterlimit="10" fill="none"/><path d="M119.37 150.82l-.433-8.32" stroke-width="1.2" stroke="#00f" stroke-miterlimit="10" fill="none"/><path d="M115.938 137h7v11h-7zm0 0" fill="#fff"/><use xlink:href="#a" x="115.938" y="145.663" fill="#00f"/><path d="M134.87 133.332l-.43-8.32" stroke-width="1.2" stroke="#000" stroke-miterlimit="10" fill="none"/><path d="M134.44 125.012l-.432-8.317" stroke-width="1.2" stroke="#f00" stroke-miterlimit="10" fill="none"/><path d="M130.957 133.535l-.43-8.32" stroke-width="1.2" stroke="#000" stroke-miterlimit="10" fill="none"/><path d="M130.527 125.215l-.433-8.317" stroke-width="1.2" stroke="#f00" stroke-miterlimit="10" fill="none"/><path d="M132.914 133.434l14.84 7.57" stroke-width="1.2" stroke="#000" stroke-miterlimit="10" fill="none"/><path d="M128.05 111.297h8v11h-8zm0 0" fill="#fff"/><use xlink:href="#b" x="128.051" y="119.96" fill="#f00"/><path d="M147.754 141.004l13.976-9.066M161.73 131.938l7.422 3.785" stroke-width="1.2" stroke="#000" stroke-miterlimit="10" fill="none"/><path d="M169.152 135.723l7.418 3.785M174.828 138.617l-3.79 7.422" stroke-width="1.2" stroke="#cc0" stroke-miterlimit="10" fill="none"/><path d="M171.04 146.04l-3.786 7.417" stroke-width="1.2" stroke="#f00" stroke-miterlimit="10" fill="none"/><path d="M178.316 140.398l-3.785 7.422" stroke-width="1.2" stroke="#cc0" stroke-miterlimit="10" fill="none"/><path d="M174.53 147.82l-3.784 7.418" stroke-width="1.2" stroke="#f00" stroke-miterlimit="10" fill="none"/><path d="M178.316 140.398l3.786-7.418" stroke-width="1.2" stroke="#cc0" stroke-miterlimit="10" fill="none"/><path d="M182.102 132.98l3.79-7.42" stroke-width="1.2" stroke="#f00" stroke-miterlimit="10" fill="none"/><path d="M174.828 138.617l3.785-7.418" stroke-width="1.2" stroke="#cc0" stroke-miterlimit="10" fill="none"/><path d="M178.613 131.2l3.785-7.423" stroke-width="1.2" stroke="#f00" stroke-miterlimit="10" fill="none"/><path d="M176.57 139.508l7.422 3.785" stroke-width="1.2" stroke="#cc0" stroke-miterlimit="10" fill="none"/><path d="M183.992 143.293l7.422 3.785" stroke-width="1.2" stroke="#000" stroke-miterlimit="10" fill="none"/><path d="M173.57 134.008h6v11h-6zm0 0" fill="#fff"/><use xlink:href="#c" x="173.57" y="142.671" fill="#cc0"/><path d="M161 148.848h8v11h-8zm0 0" fill="#fff"/><use xlink:href="#b" x="161" y="157.511" fill="#f00"/><path d="M180.145 119.168h8v11h-8zm0 0" fill="#fff"/><use xlink:href="#b" x="180.145" y="127.831" fill="#f00"/><path d="M191.414 147.078l.863 16.637M195.414 148.54l.69 13.312M191.414 147.078l13.977-9.066M192.277 163.715l14.84 7.574M221.094 162.223l-13.977 9.066M217.563 159.84l-11.184 7.254M205.39 138.012l14.84 7.57M205.09 142.262l11.875 6.054M220.23 145.582l.864 16.64M220.23 145.582l13.977-9.066M221.094 162.223l14.84 7.57M235.934 169.793l13.976-9.066M235.2 165.598l11.18-7.254M249.91 160.727l7.418 3.785" stroke-width="1.2" stroke="#000" stroke-miterlimit="10" fill="none"/><path d="M257.328 164.512l7.422 3.785" stroke-width="1.2" stroke="#0c0" stroke-miterlimit="10" fill="none"/><path d="M249.047 144.086l.863 16.64" stroke-width="1.2" stroke="#000" stroke-miterlimit="10" fill="none"/><path d="M259.75 162.797h10v11h-10zm0 0" fill="#fff"/><g fill="#0c0"><use xlink:href="#d" x="259.75" y="171.46"/><use xlink:href="#e" x="266.264" y="171.46"/></g><path d="M234.207 136.516l14.84 7.57M233.91 140.766l11.87 6.058M104.098 134.93l-13.977 9.066M90.12 143.996l.435 8.32" stroke-width="1.2" stroke="#000" stroke-miterlimit="10" fill="none"/><path d="M90.555 152.316l.43 8.317M90.984 160.633l-6.988 4.535" stroke-width="1.2" stroke="#00f" stroke-miterlimit="10" fill="none"/><path d="M83.996 165.168l-6.988 4.53" stroke-width="1.2" stroke="#000" stroke-miterlimit="10" fill="none"/><path d="M90.984 160.633l7.422 3.785" stroke-width="1.2" stroke="#00f" stroke-miterlimit="10" fill="none"/><path d="M98.406 164.418l7.418 3.785" stroke-width="1.2" stroke="#000" stroke-miterlimit="10" fill="none"/><path d="M87.984 155.133h7v11h-7zm0 0" fill="#fff"/><use xlink:href="#a" x="87.984" y="163.796" fill="#00f"/><path d="M77.008 169.7l-7.418-3.786" stroke-width="1.2" stroke="#000" stroke-miterlimit="10" fill="none"/><path d="M69.59 165.914l-7.422-3.785" stroke-width="1.2" stroke="#00f" stroke-miterlimit="10" fill="none"/><path d="M77.87 186.34l-.862-16.64M73.87 184.88l-.69-13.314" stroke-width="1.2" stroke="#000" stroke-miterlimit="10" fill="none"/><path d="M62.168 162.13l-6.988 4.534" stroke-width="1.2" stroke="#00f" stroke-miterlimit="10" fill="none"/><path d="M55.18 166.664l-6.99 4.53M57.863 146.035l2.153 8.047" stroke-width="1.2" stroke="#000" stroke-miterlimit="10" fill="none"/><path d="M60.016 154.082l2.152 8.047" stroke-width="1.2" stroke="#00f" stroke-miterlimit="10" fill="none"/><path d="M59.168 156.63h7v11h-7zm0 0" fill="#fff"/><use xlink:href="#a" x="59.168" y="165.292" fill="#00f"/><path d="M48.19 171.195l-6.467-5.246" stroke-width="1.2" stroke="#000" stroke-miterlimit="10" fill="none"/><path d="M41.723 165.95l-6.473-5.243" stroke-width="1.2" stroke="#00f" stroke-miterlimit="10" fill="none"/><path d="M49.367 167.102l-5.18-4.196" stroke-width="1.2" stroke="#000" stroke-miterlimit="10" fill="none"/><path d="M44.188 162.906l-5.176-4.195" stroke-width="1.2" stroke="#00f" stroke-miterlimit="10" fill="none"/><path d="M48.19 171.195l.865 16.637" stroke-width="1.2" stroke="#000" stroke-miterlimit="10" fill="none"/><path d="M35.25 160.707l2.988-7.777" stroke-width="1.2" stroke="#00f" stroke-miterlimit="10" fill="none"/><path d="M38.238 152.93l2.99-7.774" stroke-width="1.2" stroke="#000" stroke-miterlimit="10" fill="none"/><path d="M32.25 155.207h7v11h-7zm0 0" fill="#fff"/><use xlink:href="#a" x="32.25" y="163.87" fill="#00f"/><path d="M41.227 145.156l16.636.88M42.684 149.156l13.308.707M57.863 146.035l5.246-6.47" stroke-width="1.2" stroke="#000" stroke-miterlimit="10" fill="none"/><path d="M63.11 139.566l5.245-6.472M68.355 133.094l-2.98-7.778" stroke-width="1.2" stroke="#00f" stroke-miterlimit="10" fill="none"/><path d="M65.375 125.316l-2.98-7.777" stroke-width="1.2" stroke="#000" stroke-miterlimit="10" fill="none"/><path d="M61.355 127.594h14v11h-14zm0 0" fill="#fff"/><g fill="#00f"><use xlink:href="#a" x="61.355" y="136.257"/><use xlink:href="#f" x="68.333" y="136.257"/></g><path d="M62.7 115.602l-8.227-1.31" stroke-width="1.2" stroke="#000" stroke-miterlimit="10" fill="none"/><path d="M54.473 114.293l-8.227-1.305" stroke-width="1.2" stroke="#f00" stroke-miterlimit="10" fill="none"/><path d="M62.086 119.473l-8.227-1.31" stroke-width="1.2" stroke="#000" stroke-miterlimit="10" fill="none"/><path d="M53.86 118.164l-8.227-1.305" stroke-width="1.2" stroke="#f00" stroke-miterlimit="10" fill="none"/><path d="M62.395 117.54l10.488-12.946" stroke-width="1.2" stroke="#000" stroke-miterlimit="10" fill="none"/><path d="M37.938 109.422h8v11h-8zm0 0" fill="#fff"/><use xlink:href="#b" x="37.938" y="118.085" fill="#f00"/><path d="M49.055 187.832l14.84 7.574M52.32 185.098l11.87 6.058M63.895 195.406l13.976-9.066M105.824 168.203l13.977-9.066" stroke-width="1.2" stroke="#000" stroke-miterlimit="10" fill="none"/></g></svg>