<svg xmlns="http://www.w3.org/2000/svg" xmlns:xlink="http://www.w3.org/1999/xlink" width="300pt" height="300pt" viewBox="0 0 300 300"><defs><symbol overflow="visible"><path d="M.453 1.594v-7.938h4.5v7.938zm.5-.5h3.5v-6.938h-3.5zm0 0"/></symbol><symbol overflow="visible" id="a"><path d="M.89-6.563H2.08l2.906 5.485v-5.484h.86V0H4.656L1.75-5.484V0H.89zm0 0"/></symbol><symbol overflow="visible" id="b"><path d="M3.547-5.953c-.65 0-1.164.242-1.547.72-.375.48-.563 1.13-.563 1.952 0 .835.188 1.49.563 1.967.383.48.898.72 1.547.72.644 0 1.156-.24 1.53-.72.376-.476.564-1.132.564-1.968 0-.822-.187-1.474-.562-1.954-.375-.477-.887-.72-1.53-.72zm0-.734c.914 0 1.648.312 2.203.937.55.617.828 1.438.828 2.47 0 1.042-.277 1.87-.828 2.483-.555.617-1.29.922-2.203.922-.93 0-1.668-.305-2.22-.922C.774-1.41.5-2.237.5-3.28c0-1.033.273-1.853.828-2.47.55-.625 1.29-.938 2.22-.938zm0 0"/></symbol><symbol overflow="visible" id="c"><path d="M4.813-6.344v.86c-.336-.157-.653-.27-.954-.344-.294-.082-.58-.125-.86-.125-.492 0-.867.094-1.125.28-.262.19-.39.454-.39.798 0 .293.085.512.265.656.176.15.504.267.984.36l.547.11c.658.125 1.142.352 1.454.672.32.312.485.734.485 1.265 0 .637-.216 1.122-.642 1.454-.43.325-1.055.485-1.875.485-.312 0-.648-.04-1-.11C1.36-.046 1-.147.625-.296v-.906c.352.2.703.35 1.047.453.35.105.695.156 1.03.156.5 0 .884-.097 1.157-.297.28-.196.42-.485.42-.86 0-.32-.1-.57-.296-.75-.2-.176-.523-.313-.968-.406l-.547-.11C1.81-3.148 1.33-3.36 1.03-3.64.74-3.923.595-4.313.595-4.813c0-.57.203-1.024.61-1.36.405-.344.968-.516 1.687-.516.313 0 .626.032.938.094.32.055.65.137.985.25zm0 0"/></symbol><symbol overflow="visible" id="d"><path d="M5.797-6.063v.938c-.305-.27-.625-.473-.97-.61-.335-.144-.686-.218-1.06-.218-.75 0-1.33.23-1.736.687-.397.46-.592 1.12-.592 1.985 0 .866.195 1.526.593 1.983.408.46.986.688 1.736.688.375 0 .726-.066 1.062-.203.344-.132.664-.343.97-.625V-.5c-.314.21-.642.367-.986.47-.343.1-.714.155-1.11.155-.99 0-1.772-.3-2.343-.906C.784-1.396.5-2.228.5-3.28c0-1.052.285-1.88.86-2.486.57-.613 1.35-.92 2.343-.92.395-.002.766.053 1.11.155.35.104.68.26.984.468zm0 0"/></symbol><symbol overflow="visible" id="e"><path d="M.844-6.844h.812V0H.844zm0 0"/></symbol><symbol overflow="visible" id="f"><path d="M.89-6.563h.876v2.688H5v-2.688h.89V0H5v-3.125H1.766V0H.89zm0 0"/></symbol></defs><g><path fill="#fff" d="M0 0h300v300H0z"/><path d="M119.754 138.184l7.176-4.266" stroke-width="1.2" stroke="#00f" stroke-miterlimit="10" fill="none"/><path d="M126.93 133.918l7.172-4.266" stroke-width="1.2" stroke="#000" stroke-miterlimit="10" fill="none"/><path d="M119.754 138.184l-7.28-4.08" stroke-width="1.2" stroke="#00f" stroke-miterlimit="10" fill="none"/><path d="M112.473 134.105l-7.282-4.078M119.973 154.88l-.11-8.35" stroke-width="1.2" stroke="#000" stroke-miterlimit="10" fill="none"/><path d="M119.863 146.53l-.11-8.346" stroke-width="1.2" stroke="#00f" stroke-miterlimit="10" fill="none"/><path d="M116.754 132.684h7v11h-7zm0 0" fill="#fff"/><use xlink:href="#a" x="116.754" y="141.347" fill="#00f"/><path d="M136.066 129.625l-.11-8.344" stroke-width="1.2" stroke="#000" stroke-miterlimit="10" fill="none"/><path d="M135.957 121.28l-.105-8.346" stroke-width="1.2" stroke="#f00" stroke-miterlimit="10" fill="none"/><path d="M132.14 129.676l-.11-8.344" stroke-width="1.2" stroke="#000" stroke-miterlimit="10" fill="none"/><path d="M132.03 121.332l-.108-8.348" stroke-width="1.2" stroke="#f00" stroke-miterlimit="10" fill="none"/><path d="M134.102 129.652l14.566 8.157" stroke-width="1.2" stroke="#000" stroke-miterlimit="10" fill="none"/><path d="M129.887 107.457h8v11h-8zm0 0" fill="#fff"/><use xlink:href="#b" x="129.887" y="116.12" fill="#f00"/><path d="M148.668 137.81l14.348-8.533M163.016 129.277l7.28 4.078" stroke-width="1.2" stroke="#000" stroke-miterlimit="10" fill="none"/><path d="M170.297 133.355l7.285 4.08M175.867 136.477l-4.078 7.28" stroke-width="1.2" stroke="#cc0" stroke-miterlimit="10" fill="none"/><path d="M171.79 143.758l-4.083 7.28" stroke-width="1.2" stroke="#f00" stroke-miterlimit="10" fill="none"/><path d="M179.293 138.395l-4.078 7.28" stroke-width="1.2" stroke="#cc0" stroke-miterlimit="10" fill="none"/><path d="M175.215 145.676l-4.078 7.285" stroke-width="1.2" stroke="#f00" stroke-miterlimit="10" fill="none"/><path d="M179.293 138.395l4.078-7.282" stroke-width="1.2" stroke="#cc0" stroke-miterlimit="10" fill="none"/><path d="M183.37 131.113l4.083-7.28" stroke-width="1.2" stroke="#f00" stroke-miterlimit="10" fill="none"/><path d="M175.867 136.477l4.078-7.286" stroke-width="1.2" stroke="#cc0" stroke-miterlimit="10" fill="none"/><path d="M179.945 129.19l4.078-7.28" stroke-width="1.2" stroke="#f00" stroke-miterlimit="10" fill="none"/><path d="M177.582 137.434l7.28 4.082" stroke-width="1.2" stroke="#cc0" stroke-miterlimit="10" fill="none"/><path d="M184.863 141.516l7.282 4.078" stroke-width="1.2" stroke="#000" stroke-miterlimit="10" fill="none"/><path d="M174.582 131.934h6v11h-6zm0 0" fill="#fff"/><use xlink:href="#c" x="174.582" y="140.597" fill="#cc0"/><path d="M161.422 146.5h8v11h-8zm0 0" fill="#fff"/><use xlink:href="#b" x="161.422" y="155.163" fill="#f00"/><path d="M181.738 117.37h8v11h-8zm0 0" fill="#fff"/><use xlink:href="#b" x="181.738" y="126.034" fill="#f00"/><path d="M192.145 145.594l.214 16.69M196.094 147.21l.172 13.356M192.145 145.594l14.347-8.535M192.36 162.285l14.566 8.16M221.273 161.91l-14.347 8.535M217.832 159.387l-11.48 6.828M206.492 137.06l14.567 8.16M206.027 141.3l11.653 6.528M221.06 145.22l.213 16.69M221.06 145.22l14.346-8.536M221.273 161.91l14.563 8.16M235.836 170.07l14.35-8.535M235.266 165.84l11.476-6.828M250.188 161.535l7.28 4.078" stroke-width="1.2" stroke="#000" stroke-miterlimit="10" fill="none"/><path d="M257.47 165.613l7.28 4.082" stroke-width="1.2" stroke="#0c0" stroke-miterlimit="10" fill="none"/><path d="M249.97 144.844l.218 16.69" stroke-width="1.2" stroke="#000" stroke-miterlimit="10" fill="none"/><path d="M259.75 164.195h10v11h-10zm0 0" fill="#fff"/><g fill="#0c0"><use xlink:href="#d" x="259.75" y="172.858"/><use xlink:href="#e" x="266.264" y="172.858"/></g><path d="M235.406 136.684l14.563 8.16M234.94 140.926l11.654 6.527M105.19 130.027l-14.346 8.532M90.844 138.56l.11 8.346" stroke-width="1.2" stroke="#000" stroke-miterlimit="10" fill="none"/><path d="M90.953 146.906l.106 8.348M91.06 155.254l-7.173 4.266" stroke-width="1.2" stroke="#00f" stroke-miterlimit="10" fill="none"/><path d="M83.887 159.52l-7.176 4.265" stroke-width="1.2" stroke="#000" stroke-miterlimit="10" fill="none"/><path d="M91.06 155.254l7.284 4.078" stroke-width="1.2" stroke="#00f" stroke-miterlimit="10" fill="none"/><path d="M98.344 159.332l7.28 4.078" stroke-width="1.2" stroke="#000" stroke-miterlimit="10" fill="none"/><path d="M88.06 149.754h7v11h-7zm0 0" fill="#fff"/><use xlink:href="#a" x="88.059" y="158.417" fill="#00f"/><path d="M76.71 163.785l-7.28-4.078" stroke-width="1.2" stroke="#000" stroke-miterlimit="10" fill="none"/><path d="M69.43 159.707l-7.282-4.078" stroke-width="1.2" stroke="#00f" stroke-miterlimit="10" fill="none"/><path d="M76.93 180.48l-.22-16.695M72.98 178.86l-.175-13.352" stroke-width="1.2" stroke="#000" stroke-miterlimit="10" fill="none"/><path d="M62.148 155.63l-7.175 4.265" stroke-width="1.2" stroke="#00f" stroke-miterlimit="10" fill="none"/><path d="M54.973 159.895L47.8 164.16M58.465 139.344l1.84 8.144" stroke-width="1.2" stroke="#000" stroke-miterlimit="10" fill="none"/><path d="M60.305 147.488l1.843 8.14" stroke-width="1.2" stroke="#00f" stroke-miterlimit="10" fill="none"/><path d="M59.148 150.13h7v11h-7zm0 0" fill="#fff"/><use xlink:href="#a" x="59.148" y="158.792" fill="#00f"/><path d="M47.8 164.16l-6.277-5.504" stroke-width="1.2" stroke="#000" stroke-miterlimit="10" fill="none"/><path d="M41.523 158.656l-6.273-5.504" stroke-width="1.2" stroke="#00f" stroke-miterlimit="10" fill="none"/><path d="M49.137 160.11l-5.024-4.407" stroke-width="1.2" stroke="#000" stroke-miterlimit="10" fill="none"/><path d="M44.113 155.703l-5.02-4.402" stroke-width="1.2" stroke="#00f" stroke-miterlimit="10" fill="none"/><path d="M47.8 164.16l.216 16.695" stroke-width="1.2" stroke="#000" stroke-miterlimit="10" fill="none"/><path d="M35.25 153.152l3.297-7.668" stroke-width="1.2" stroke="#00f" stroke-miterlimit="10" fill="none"/><path d="M38.547 145.484l3.293-7.668" stroke-width="1.2" stroke="#000" stroke-miterlimit="10" fill="none"/><path d="M32.25 147.652h7v11h-7zm0 0" fill="#fff"/><use xlink:href="#a" x="32.25" y="156.315" fill="#00f"/><path d="M41.84 137.816l16.625 1.528M43.145 141.88l13.296 1.225M58.465 139.344l11.008-12.547M69.473 126.797l-2.68-7.906" stroke-width="1.2" stroke="#000" stroke-miterlimit="10" fill="none"/><path d="M66.793 118.89l-2.684-7.902" stroke-width="1.2" stroke="#f00" stroke-miterlimit="10" fill="none"/><path d="M49.11 105.488h15v11h-15zm0 0" fill="#fff"/><g fill="#f00"><use xlink:href="#f" x="49.109" y="114.151"/><use xlink:href="#b" x="56.124" y="114.151"/></g><path d="M48.016 180.855l14.566 8.157M51.395 178.242l11.648 6.528M62.582 189.012l14.348-8.532M105.625 163.41l14.348-8.53" stroke-width="1.2" stroke="#000" stroke-miterlimit="10" fill="none"/></g></svg>