<svg xmlns="http://www.w3.org/2000/svg" xmlns:xlink="http://www.w3.org/1999/xlink" width="300pt" height="300pt" viewBox="0 0 300 300"><defs><symbol overflow="visible"><path d="M.453 1.594v-7.938h4.5v7.938zm.5-.5h3.5v-6.938h-3.5zm0 0"/></symbol><symbol overflow="visible" id="a"><path d="M.89-6.563H2.08l2.906 5.485v-5.484h.86V0H4.656L1.75-5.484V0H.89zm0 0"/></symbol><symbol overflow="visible" id="b"><path d="M3.547-5.953c-.65 0-1.164.242-1.547.72-.375.48-.563 1.13-.563 1.952 0 .835.188 1.49.563 1.967.383.48.898.72 1.547.72.644 0 1.156-.24 1.53-.72.376-.476.564-1.132.564-1.968 0-.822-.187-1.474-.562-1.954-.375-.477-.887-.72-1.53-.72zm0-.734c.914 0 1.648.312 2.203.937.55.617.828 1.438.828 2.47 0 1.042-.277 1.87-.828 2.483-.555.617-1.29.922-2.203.922-.93 0-1.668-.305-2.22-.922C.774-1.41.5-2.237.5-3.28c0-1.033.273-1.853.828-2.47.55-.625 1.29-.938 2.22-.938zm0 0"/></symbol><symbol overflow="visible" id="c"><path d="M5.797-6.063v.938c-.305-.27-.625-.473-.97-.61-.335-.144-.686-.218-1.06-.218-.75 0-1.33.23-1.736.687-.397.46-.592 1.12-.592 1.985 0 .866.195 1.526.593 1.983.408.46.986.688 1.736.688.375 0 .726-.066 1.062-.203.344-.132.664-.343.97-.625V-.5c-.314.21-.642.367-.986.47-.343.1-.714.155-1.11.155-.99 0-1.772-.3-2.343-.906C.784-1.396.5-2.228.5-3.28c0-1.052.285-1.88.86-2.486.57-.613 1.35-.92 2.343-.92.395-.002.766.053 1.11.155.35.104.68.26.984.468zm0 0"/></symbol><symbol overflow="visible" id="d"><path d="M.844-6.844h.812V0H.844zm0 0"/></symbol><symbol overflow="visible" id="e"><path d="M.89-6.563h.876v2.688H5v-2.688h.89V0H5v-3.125H1.766V0H.89zm0 0"/></symbol></defs><g><path fill="#fff" d="M0 0h300v300H0z"/><path d="M247.445 223.395l-20.828-2.497M245.95 218.246l-16.66-2M260.023 206.61l-12.578 16.785M226.617 220.898l-8.25-19.285M218.367 201.613l12.578-16.79M215.676 196.973l10.058-13.43M197.54 199.113l20.827 2.5M230.945 184.824l-8.25-19.285M230.945 184.824l20.825 2.5M222.695 165.54l-10.414-1.25" stroke-width="1.2" stroke="#000" stroke-miterlimit="10" fill="none"/><path d="M212.28 164.29l-10.413-1.247M201.867 163.043l-4.125-9.645" stroke-width="1.2" stroke="#00f" stroke-miterlimit="10" fill="none"/><path d="M197.742 153.398l-4.125-9.644" stroke-width="1.2" stroke="#000" stroke-miterlimit="10" fill="none"/><path d="M201.867 163.043l-6.29 8.39" stroke-width="1.2" stroke="#00f" stroke-miterlimit="10" fill="none"/><path d="M195.578 171.434l-6.29 8.394" stroke-width="1.2" stroke="#000" stroke-miterlimit="10" fill="none"/><path d="M198.867 157.543h7v11h-7zm0 0" fill="#fff"/><use xlink:href="#a" x="198.867" y="166.206" fill="#00f"/><path d="M193.91 141.305l-10.414-1.25" stroke-width="1.2" stroke="#000" stroke-miterlimit="10" fill="none"/><path d="M183.496 140.055l-10.414-1.246" stroke-width="1.2" stroke="#f00" stroke-miterlimit="10" fill="none"/><path d="M193.324 146.207l-10.414-1.25" stroke-width="1.2" stroke="#000" stroke-miterlimit="10" fill="none"/><path d="M182.91 144.957l-10.414-1.25" stroke-width="1.2" stroke="#f00" stroke-miterlimit="10" fill="none"/><path d="M193.617 143.754l12.574-16.785" stroke-width="1.2" stroke="#000" stroke-miterlimit="10" fill="none"/><path d="M164.79 135.758h8v11h-8zm0 0" fill="#fff"/><use xlink:href="#b" x="164.789" y="144.421" fill="#f00"/><path d="M206.19 126.97l20.83 2.495M208.863 122.316l16.66 2M197.94 107.684l8.25 19.285M227.02 129.465l12.578-16.79M239.598 112.676l-8.25-19.285M234.234 112.69l-6.6-15.428M231.348 93.39l12.574-16.785M231.348 93.39l-20.828-2.495M243.922 76.605l10.414 1.247" stroke-width="1.2" stroke="#000" stroke-miterlimit="10" fill="none"/><path d="M254.336 77.852l10.414 1.25" stroke-width="1.2" stroke="#0c0" stroke-miterlimit="10" fill="none"/><path d="M259.75 73.602h10v11h-10zm0 0" fill="#fff"/><g fill="#0c0"><use xlink:href="#c" x="259.75" y="82.265"/><use xlink:href="#d" x="266.264" y="82.265"/></g><path d="M210.52 90.895l-12.58 16.79M213.21 95.53l-10.062 13.43" stroke-width="1.2" stroke="#000" stroke-miterlimit="10" fill="none"/><path d="M189.29 179.828l-20.388-6.172-.88 7.352zm0 0"/><path d="M189.29 179.828l8.25 19.285M168.46 177.332l-4.124-9.644" stroke-width="1.2" stroke="#000" stroke-miterlimit="10" fill="none"/><path d="M164.336 167.688l-4.125-9.64" stroke-width="1.2" stroke="#00f" stroke-miterlimit="10" fill="none"/><path d="M166.488 175.852l-6.29 8.394" stroke-width="1.2" stroke="#000" stroke-miterlimit="10" fill="none"/><path d="M160.2 184.246l-6.29 8.395" stroke-width="1.2" stroke="#f00" stroke-miterlimit="10" fill="none"/><path d="M170.438 178.813l-6.29 8.39" stroke-width="1.2" stroke="#000" stroke-miterlimit="10" fill="none"/><path d="M164.148 187.203l-6.29 8.395" stroke-width="1.2" stroke="#f00" stroke-miterlimit="10" fill="none"/><path d="M160.21 158.047l-10.41-1.25" stroke-width="1.2" stroke="#00f" stroke-miterlimit="10" fill="none"/><path d="M149.8 156.797l-10.413-1.25" stroke-width="1.2" stroke="#000" stroke-miterlimit="10" fill="none"/><path d="M153.21 152.547h14v11h-14zm0 0" fill="#fff"/><g fill="#00f"><use xlink:href="#a" x="153.211" y="161.21"/><use xlink:href="#e" x="160.188" y="161.21"/></g><path d="M139.387 155.547l-8.25-19.285M134.023 155.563l-6.6-15.43M126.81 172.336l12.577-16.79M131.137 136.262l-20.828-2.496M110.31 133.766L97.73 150.55M113 138.402l-10.063 13.43M97.73 150.55l-10.414-1.245" stroke-width="1.2" stroke="#000" stroke-miterlimit="10" fill="none"/><path d="M87.316 149.305l-10.414-1.25" stroke-width="1.2" stroke="#00f" stroke-miterlimit="10" fill="none"/><path d="M97.73 150.55l8.25 19.29" stroke-width="1.2" stroke="#000" stroke-miterlimit="10" fill="none"/><path d="M76.902 148.055l-4.125-9.645" stroke-width="1.2" stroke="#00f" stroke-miterlimit="10" fill="none"/><path d="M72.777 138.41l-4.125-9.64M64.328 164.844l6.29-8.395" stroke-width="1.2" stroke="#000" stroke-miterlimit="10" fill="none"/><path d="M70.617 156.45l6.285-8.395" stroke-width="1.2" stroke="#00f" stroke-miterlimit="10" fill="none"/><path d="M73.902 142.555h7v11h-7zm0 0" fill="#fff"/><use xlink:href="#a" x="73.902" y="151.218" fill="#00f"/><path d="M68.652 128.77l-20.824-2.5M47.828 126.27l-6.29 8.394" stroke-width="1.2" stroke="#000" stroke-miterlimit="10" fill="none"/><path d="M41.54 134.664l-6.29 8.395M35.25 143.06l4.125 9.643" stroke-width="1.2" stroke="#f00" stroke-miterlimit="10" fill="none"/><path d="M39.375 152.703l4.125 9.64" stroke-width="1.2" stroke="#000" stroke-miterlimit="10" fill="none"/><path d="M31.25 137.56h8v11h-8zm0 0" fill="#fff"/><use xlink:href="#b" x="31.25" y="146.222" fill="#f00"/><path d="M43.5 162.344l20.828 2.5M62.06 165.813l4.124 9.644" stroke-width="1.2" stroke="#000" stroke-miterlimit="10" fill="none"/><path d="M66.184 175.457l4.125 9.64" stroke-width="1.2" stroke="#f00" stroke-miterlimit="10" fill="none"/><path d="M66.598 163.87l4.125 9.646" stroke-width="1.2" stroke="#000" stroke-miterlimit="10" fill="none"/><path d="M70.723 173.516l4.125 9.64" stroke-width="1.2" stroke="#f00" stroke-miterlimit="10" fill="none"/><path d="M68.578 178.63h8v11h-8zm0 0" fill="#fff"/><use xlink:href="#b" x="68.578" y="187.292" fill="#f00"/><path d="M105.98 169.84l20.83 2.496M108.652 165.188l16.66 1.996" stroke-width="1.2" stroke="#000" stroke-miterlimit="10" fill="none"/><path d="M147.887 188.62h8v11h-8zm0 0" fill="#fff"/><use xlink:href="#b" x="147.887" y="197.284" fill="#f00"/><path d="M251.77 187.324l8.253 19.285M248.06 191.19l6.6 15.43" stroke-width="1.2" stroke="#000" stroke-miterlimit="10" fill="none"/></g></svg>