<svg xmlns="http://www.w3.org/2000/svg" xmlns:xlink="http://www.w3.org/1999/xlink" width="300pt" height="300pt" viewBox="0 0 300 300"><defs><symbol overflow="visible"><path d="M.453 1.594v-7.938h4.5v7.938zm.5-.5h3.5v-6.938h-3.5zm0 0"/></symbol><symbol overflow="visible" id="a"><path d="M.89-6.563H2.08l2.906 5.485v-5.484h.86V0H4.656L1.75-5.484V0H.89zm0 0"/></symbol><symbol overflow="visible" id="b"><path d="M3.547-5.953c-.65 0-1.164.242-1.547.72-.375.48-.563 1.13-.563 1.952 0 .835.188 1.49.563 1.967.383.48.898.72 1.547.72.644 0 1.156-.24 1.53-.72.376-.476.564-1.132.564-1.968 0-.822-.187-1.474-.562-1.954-.375-.477-.887-.72-1.53-.72zm0-.734c.914 0 1.648.312 2.203.937.55.617.828 1.438.828 2.47 0 1.042-.277 1.87-.828 2.483-.555.617-1.29.922-2.203.922-.93 0-1.668-.305-2.22-.922C.774-1.41.5-2.237.5-3.28c0-1.033.273-1.853.828-2.47.55-.625 1.29-.938 2.22-.938zm0 0"/></symbol><symbol overflow="visible" id="c"><path d="M5.797-6.063v.938c-.305-.27-.625-.473-.97-.61-.335-.144-.686-.218-1.06-.218-.75 0-1.33.23-1.736.687-.397.46-.592 1.12-.592 1.985 0 .866.195 1.526.593 1.983.408.46.986.688 1.736.688.375 0 .726-.066 1.062-.203.344-.132.664-.343.97-.625V-.5c-.314.21-.642.367-.986.47-.343.1-.714.155-1.11.155-.99 0-1.772-.3-2.343-.906C.784-1.396.5-2.228.5-3.28c0-1.052.285-1.88.86-2.486.57-.613 1.35-.92 2.343-.92.395-.002.766.053 1.11.155.35.104.68.26.984.468zm0 0"/></symbol><symbol overflow="visible" id="d"><path d="M.844-6.844h.812V0H.844zm0 0"/></symbol><symbol overflow="visible" id="e"><path d="M.89-6.563h.876v2.688H5v-2.688h.89V0H5v-3.125H1.766V0H.89zm0 0"/></symbol></defs><g><path fill="#fff" d="M0 0h300v300H0z"/><path d="M255.633 226.63l-20.645 1.39M253.242 221.91l-16.515 1.113M264.75 208.055l-9.117 18.574M234.988 228.02l-11.527-17.184M223.46 210.836l9.118-18.574M220.004 206.836l7.293-14.86M202.816 212.227l20.645-1.39M232.578 192.262l-11.527-17.184M232.578 192.262l20.645-1.39M221.05 175.078l-10.32.695" stroke-width="1.2" stroke="#000" stroke-miterlimit="10" fill="none"/><path d="M210.73 175.773l-10.324.696M200.406 176.47l-5.76-8.59" stroke-width="1.2" stroke="#00f" stroke-miterlimit="10" fill="none"/><path d="M194.645 167.88l-5.766-8.595" stroke-width="1.2" stroke="#000" stroke-miterlimit="10" fill="none"/><path d="M200.406 176.47l-4.558 9.288" stroke-width="1.2" stroke="#00f" stroke-miterlimit="10" fill="none"/><path d="M195.848 185.758l-4.56 9.285" stroke-width="1.2" stroke="#000" stroke-miterlimit="10" fill="none"/><path d="M197.406 170.97h7v11h-7zm0 0" fill="#fff"/><use xlink:href="#a" x="197.406" y="179.632" fill="#00f"/><path d="M188.72 156.86l-10.325.695" stroke-width="1.2" stroke="#000" stroke-miterlimit="10" fill="none"/><path d="M178.395 157.555l-10.32.695" stroke-width="1.2" stroke="#f00" stroke-miterlimit="10" fill="none"/><path d="M189.043 161.715l-10.32.695" stroke-width="1.2" stroke="#000" stroke-miterlimit="10" fill="none"/><path d="M178.723 162.41l-10.325.695" stroke-width="1.2" stroke="#f00" stroke-miterlimit="10" fill="none"/><path d="M188.88 159.285l9.12-18.57" stroke-width="1.2" stroke="#000" stroke-miterlimit="10" fill="none"/><path d="M160.234 155.18h8v11h-8zm0 0" fill="#fff"/><use xlink:href="#b" x="160.234" y="163.843" fill="#f00"/><path d="M198 140.715l-11.527-17.184M186.473 123.53l9.117-18.573M183.012 119.527l7.297-14.86M165.828 124.922l20.645-1.39M195.59 104.957l-11.528-17.184M184.063 87.773l-20.645 1.39M182.324 92.77l-16.515 1.113M163.418 89.164l-5.762-8.594" stroke-width="1.2" stroke="#000" stroke-miterlimit="10" fill="none"/><path d="M157.656 80.57l-5.765-8.59" stroke-width="1.2" stroke="#0c0" stroke-miterlimit="10" fill="none"/><path d="M163.418 89.164l-9.117 18.574" stroke-width="1.2" stroke="#000" stroke-miterlimit="10" fill="none"/><path d="M141.89 66.48h10v11h-10zm0 0" fill="#fff"/><g fill="#0c0"><use xlink:href="#c" x="141.891" y="75.144"/><use xlink:href="#d" x="148.404" y="75.144"/></g><path d="M154.3 107.738l11.528 17.184M159.496 106.742l9.223 13.746" stroke-width="1.2" stroke="#000" stroke-miterlimit="10" fill="none"/><path d="M191.29 195.043m-2.985-.32l.07 1.04m-3.05-1.36l.14 2.077m-3.125-2.402l.21 3.12m-3.19-3.44l.28 4.16m-3.265-4.48l.352 5.2m-3.332-5.525l.417 6.242m-3.402-6.562l.492 7.28m-.504-7.28l.493 7.285" stroke="#000" stroke-miterlimit="10" fill="none"/><path d="M191.29 195.043l11.526 17.184M170.645 196.434l-5.762-8.59" stroke-width="1.2" stroke="#000" stroke-miterlimit="10" fill="none"/><path d="M164.883 187.844l-5.766-8.594" stroke-width="1.2" stroke="#00f" stroke-miterlimit="10" fill="none"/><path d="M168.46 195.363l-4.558 9.285" stroke-width="1.2" stroke="#000" stroke-miterlimit="10" fill="none"/><path d="M163.902 204.648l-4.562 9.29" stroke-width="1.2" stroke="#f00" stroke-miterlimit="10" fill="none"/><path d="M172.828 197.508l-4.558 9.29" stroke-width="1.2" stroke="#000" stroke-miterlimit="10" fill="none"/><path d="M168.27 206.797l-4.56 9.285" stroke-width="1.2" stroke="#f00" stroke-miterlimit="10" fill="none"/><path d="M159.117 179.25l-10.32.695" stroke-width="1.2" stroke="#00f" stroke-miterlimit="10" fill="none"/><path d="M148.797 179.945l-10.324.7" stroke-width="1.2" stroke="#000" stroke-miterlimit="10" fill="none"/><path d="M152.117 173.75h14v11h-14zm0 0" fill="#fff"/><g fill="#00f"><use xlink:href="#a" x="152.117" y="182.413"/><use xlink:href="#e" x="159.095" y="182.413"/></g><path d="M138.473 180.645l-11.528-17.184M133.277 181.637l-9.222-13.746M129.355 199.215l9.118-18.57M126.945 163.46l-20.644 1.392M106.3 164.852l-9.116 18.574M109.762 168.852l-7.297 14.86M97.184 183.426l-10.32.695" stroke-width="1.2" stroke="#000" stroke-miterlimit="10" fill="none"/><path d="M86.863 184.12l-10.324.696" stroke-width="1.2" stroke="#00f" stroke-miterlimit="10" fill="none"/><path d="M97.184 183.426l11.527 17.18" stroke-width="1.2" stroke="#000" stroke-miterlimit="10" fill="none"/><path d="M76.54 184.816l-5.763-8.593" stroke-width="1.2" stroke="#00f" stroke-miterlimit="10" fill="none"/><path d="M70.777 176.223l-5.765-8.59M67.422 203.39l4.558-9.288" stroke-width="1.2" stroke="#000" stroke-miterlimit="10" fill="none"/><path d="M71.98 194.102l4.56-9.286" stroke-width="1.2" stroke="#00f" stroke-miterlimit="10" fill="none"/><path d="M73.54 179.316h7v11h-7zm0 0" fill="#fff"/><use xlink:href="#a" x="73.539" y="187.979" fill="#00f"/><path d="M65.012 167.633l-20.645 1.39M44.367 169.023l-4.558 9.286" stroke-width="1.2" stroke="#000" stroke-miterlimit="10" fill="none"/><path d="M39.81 178.31l-4.56 9.288M35.25 187.598l5.762 8.59" stroke-width="1.2" stroke="#f00" stroke-miterlimit="10" fill="none"/><path d="M41.012 196.188l5.765 8.593" stroke-width="1.2" stroke="#000" stroke-miterlimit="10" fill="none"/><path d="M31.25 182.098h8v11h-8zm0 0" fill="#fff"/><use xlink:href="#b" x="31.25" y="190.761" fill="#f00"/><path d="M46.777 204.78l20.645-1.39M65.398 204.746l5.766 8.59" stroke-width="1.2" stroke="#000" stroke-miterlimit="10" fill="none"/><path d="M71.164 213.336l5.762 8.594" stroke-width="1.2" stroke="#f00" stroke-miterlimit="10" fill="none"/><path d="M69.44 202.03l5.767 8.595" stroke-width="1.2" stroke="#000" stroke-miterlimit="10" fill="none"/><path d="M75.207 210.625l5.762 8.59" stroke-width="1.2" stroke="#f00" stroke-miterlimit="10" fill="none"/><path d="M74.95 215.07h8v11h-8zm0 0" fill="#fff"/><use xlink:href="#b" x="74.949" y="223.733" fill="#f00"/><path d="M108.71 200.605l20.645-1.39M110.45 195.61l16.515-1.11" stroke-width="1.2" stroke="#000" stroke-miterlimit="10" fill="none"/><path d="M153.527 209.508h8v11h-8zm0 0" fill="#fff"/><use xlink:href="#b" x="153.527" y="218.171" fill="#f00"/><path d="M253.223 190.87l11.527 17.185M250.332 195.305l9.223 13.746" stroke-width="1.2" stroke="#000" stroke-miterlimit="10" fill="none"/></g></svg>