<svg xmlns="http://www.w3.org/2000/svg" xmlns:xlink="http://www.w3.org/1999/xlink" width="300pt" height="300pt" viewBox="0 0 300 300"><defs><symbol overflow="visible"><path d="M.453 1.594v-7.938h4.5v7.938zm.5-.5h3.5v-6.938h-3.5zm0 0"/></symbol><symbol overflow="visible" id="a"><path d="M3.547-5.953c-.65 0-1.164.242-1.547.72-.375.48-.563 1.13-.563 1.952 0 .835.188 1.49.563 1.967.383.48.898.72 1.547.72.644 0 1.156-.24 1.53-.72.376-.476.564-1.132.564-1.968 0-.822-.187-1.474-.562-1.954-.375-.477-.887-.72-1.53-.72zm0-.734c.914 0 1.648.312 2.203.937.55.617.828 1.438.828 2.47 0 1.042-.277 1.87-.828 2.483-.555.617-1.29.922-2.203.922-.93 0-1.668-.305-2.22-.922C.774-1.41.5-2.237.5-3.28c0-1.033.273-1.853.828-2.47.55-.625 1.29-.938 2.22-.938zm0 0"/></symbol><symbol overflow="visible" id="b"><path d="M.89-6.563H2.08l2.906 5.485v-5.484h.86V0H4.656L1.75-5.484V0H.89zm0 0"/></symbol><symbol overflow="visible" id="c"><path d="M.89-6.563h.876v2.688H5v-2.688h.89V0H5v-3.125H1.766V0H.89zm0 0"/></symbol></defs><g><path fill="#fff" d="M0 0h300v300H0z"/><path d="M72.77 216.648l23.117-5.992M95.887 210.656l3.183-11.51" stroke-width="1.2" stroke="#000" stroke-miterlimit="10" fill="none"/><path d="M99.07 199.145l3.184-11.508M102.254 187.637l11.558-3" stroke-width="1.2" stroke="#f00" stroke-miterlimit="10" fill="none"/><path d="M113.813 184.637l11.558-2.996" stroke-width="1.2" stroke="#000" stroke-miterlimit="10" fill="none"/><path d="M98.254 182.137h8v11h-8zm0 0" fill="#fff"/><use xlink:href="#a" x="98.254" y="190.8" fill="#f00"/><path d="M123.37 183.613l8.376 8.512" stroke-width="1.2" stroke="#000" stroke-miterlimit="10" fill="none"/><path d="M131.746 192.125l8.375 8.512" stroke-width="1.2" stroke="#f00" stroke-miterlimit="10" fill="none"/><path d="M127.375 179.672l8.375 8.512" stroke-width="1.2" stroke="#000" stroke-miterlimit="10" fill="none"/><path d="M135.75 188.184l8.375 8.51" stroke-width="1.2" stroke="#f00" stroke-miterlimit="10" fill="none"/><path d="M125.37 181.64l6.368-23.02" stroke-width="1.2" stroke="#000" stroke-miterlimit="10" fill="none"/><path d="M138.125 193.164h8v11h-8zm0 0" fill="#fff"/><use xlink:href="#a" x="138.125" y="201.827" fill="#f00"/><path d="M131.738 158.62l-16.75-17.022M131.738 158.62l11.56-2.995" stroke-width="1.2" stroke="#000" stroke-miterlimit="10" fill="none"/><path d="M143.297 155.625l11.562-2.996" stroke-width="1.2" stroke="#00f" stroke-miterlimit="10" fill="none"/><path d="M114.988 141.598l-23.117 5.996M91.87 147.594L75.12 130.57M75.12 130.57l6.368-23.02M70.34 126.77l5.094-18.415M52 136.566l23.12-5.996M81.488 107.55L64.734 90.528M64.734 90.527l-23.117 5.996M63.836 96.566l-18.496 4.797M41.617 96.523l-6.367 23.02M35.25 119.543L52 136.566M40.93 117.305l13.402 13.617" stroke-width="1.2" stroke="#000" stroke-miterlimit="10" fill="none"/><path d="M154.86 152.63l8.374 8.51" stroke-width="1.2" stroke="#00f" stroke-miterlimit="10" fill="none"/><path d="M163.234 161.14l8.375 8.512" stroke-width="1.2" stroke="#000" stroke-miterlimit="10" fill="none"/><path d="M147.86 147.13h14v11h-14zm0 0" fill="#fff"/><g fill="#00f"><use xlink:href="#b" x="147.859" y="155.792"/><use xlink:href="#c" x="154.837" y="155.792"/></g><path d="M171.61 169.652l-6.368 23.016M171.61 169.652l23.117-5.996M192.723 165.625l8.375 8.512" stroke-width="1.2" stroke="#000" stroke-miterlimit="10" fill="none"/><path d="M201.098 174.137l8.38 8.51" stroke-width="1.2" stroke="#f00" stroke-miterlimit="10" fill="none"/><path d="M196.73 161.684l8.375 8.51" stroke-width="1.2" stroke="#000" stroke-miterlimit="10" fill="none"/><path d="M205.105 170.195l8.375 8.512" stroke-width="1.2" stroke="#f00" stroke-miterlimit="10" fill="none"/><path d="M194.727 163.656l3.183-11.508" stroke-width="1.2" stroke="#000" stroke-miterlimit="10" fill="none"/><path d="M197.91 152.148l3.184-11.51" stroke-width="1.2" stroke="#00f" stroke-miterlimit="10" fill="none"/><path d="M207.477 175.18h8v11h-8zm0 0" fill="#fff"/><use xlink:href="#a" x="207.477" y="183.843" fill="#f00"/><path d="M201.094 140.637l-7.442-9.34" stroke-width="1.2" stroke="#00f" stroke-miterlimit="10" fill="none"/><path d="M193.652 131.297l-7.437-9.34M223.46 132.258l-11.183 4.19" stroke-width="1.2" stroke="#000" stroke-miterlimit="10" fill="none"/><path d="M212.277 136.45l-11.183 4.187" stroke-width="1.2" stroke="#00f" stroke-miterlimit="10" fill="none"/><path d="M198.094 135.137h7v11h-7zm0 0" fill="#fff"/><use xlink:href="#b" x="198.094" y="143.8" fill="#00f"/><path d="M186.215 121.957l-23.02-6.367M199.383 102.03l-13.168 19.927M163.195 115.59l-1.058-23.86M162.137 91.73l22.367-8.378M184.504 83.352l14.88 18.68M199.383 102.03l23.02 6.368M222.402 108.398l1.06 23.86M223.46 132.258l19.923 13.168M244.64 147.94l10.68-5.335" stroke-width="1.2" stroke="#000" stroke-miterlimit="10" fill="none"/><path d="M255.32 142.605l10.684-5.335" stroke-width="1.2" stroke="#f00" stroke-miterlimit="10" fill="none"/><path d="M242.13 142.914l10.683-5.336" stroke-width="1.2" stroke="#000" stroke-miterlimit="10" fill="none"/><path d="M252.813 137.578l10.683-5.336" stroke-width="1.2" stroke="#f00" stroke-miterlimit="10" fill="none"/><path d="M243.383 145.426l-.72 11.922" stroke-width="1.2" stroke="#000" stroke-miterlimit="10" fill="none"/><path d="M242.664 157.348l-.723 11.918" stroke-width="1.2" stroke="#f00" stroke-miterlimit="10" fill="none"/><path d="M260.75 129.258h8v11h-8zm0 0" fill="#fff"/><use xlink:href="#a" x="260.75" y="137.921" fill="#f00"/><path d="M234.94 163.766h15v11h-15zm0 0" fill="#fff"/><g fill="#f00"><use xlink:href="#c" x="234.941" y="172.429"/><use xlink:href="#a" x="241.956" y="172.429"/></g></g></svg>