<svg xmlns="http://www.w3.org/2000/svg" xmlns:xlink="http://www.w3.org/1999/xlink" width="300pt" height="300pt" viewBox="0 0 300 300"><defs><symbol overflow="visible"><path d="M.453 1.594v-7.938h4.5v7.938zm.5-.5h3.5v-6.938h-3.5zm0 0"/></symbol><symbol overflow="visible" id="a"><path d="M.89-6.563H2.08l2.906 5.485v-5.484h.86V0H4.656L1.75-5.484V0H.89zm0 0"/></symbol><symbol overflow="visible" id="b"><path d="M3.547-5.953c-.65 0-1.164.242-1.547.72-.375.48-.563 1.13-.563 1.952 0 .835.188 1.49.563 1.967.383.48.898.72 1.547.72.644 0 1.156-.24 1.53-.72.376-.476.564-1.132.564-1.968 0-.822-.187-1.474-.562-1.954-.375-.477-.887-.72-1.53-.72zm0-.734c.914 0 1.648.312 2.203.937.55.617.828 1.438.828 2.47 0 1.042-.277 1.87-.828 2.483-.555.617-1.29.922-2.203.922-.93 0-1.668-.305-2.22-.922C.774-1.41.5-2.237.5-3.28c0-1.033.273-1.853.828-2.47.55-.625 1.29-.938 2.22-.938zm0 0"/></symbol><symbol overflow="visible" id="c"><path d="M5.797-6.063v.938c-.305-.27-.625-.473-.97-.61-.335-.144-.686-.218-1.06-.218-.75 0-1.33.23-1.736.687-.397.46-.592 1.12-.592 1.985 0 .866.195 1.526.593 1.983.408.46.986.688 1.736.688.375 0 .726-.066 1.062-.203.344-.132.664-.343.97-.625V-.5c-.314.21-.642.367-.986.47-.343.1-.714.155-1.11.155-.99 0-1.772-.3-2.343-.906C.784-1.396.5-2.228.5-3.28c0-1.052.285-1.88.86-2.486.57-.613 1.35-.92 2.343-.92.395-.002.766.053 1.11.155.35.104.68.26.984.468zm0 0"/></symbol><symbol overflow="visible" id="d"><path d="M.844-6.844h.812V0H.844zm0 0"/></symbol></defs><g><path fill="#fff" d="M0 0h300v300H0z"/><path d="M237.105 250.574l-20.046-9.976M237.45 244.86l-16.036-7.98M255.77 238.203l-18.665 12.37M217.06 240.598l-1.384-22.352M215.676 218.246l18.664-12.37M214.633 212.62l14.93-9.9M195.63 208.27l20.046 9.976M234.34 205.875l-1.383-22.352M234.34 205.875l20.047 9.977M232.957 183.523l-10.023-4.988" stroke-width="1.2" stroke="#000" stroke-miterlimit="10" fill="none"/><path d="M222.934 178.535l-10.024-4.988M212.91 173.547l-.69-11.172" stroke-width="1.2" stroke="#00f" stroke-miterlimit="10" fill="none"/><path d="M212.22 162.375l-.693-11.176" stroke-width="1.2" stroke="#000" stroke-miterlimit="10" fill="none"/><path d="M212.91 173.547l-9.332 6.187" stroke-width="1.2" stroke="#00f" stroke-miterlimit="10" fill="none"/><path d="M203.578 179.734l-9.332 6.188" stroke-width="1.2" stroke="#000" stroke-miterlimit="10" fill="none"/><path d="M209.91 168.047h7v11h-7zm0 0" fill="#fff"/><use xlink:href="#a" x="209.91" y="176.71" fill="#00f"/><path d="M212.7 148.84l-10.024-4.988" stroke-width="1.2" stroke="#000" stroke-miterlimit="10" fill="none"/><path d="M202.676 143.852l-10.024-4.99" stroke-width="1.2" stroke="#f00" stroke-miterlimit="10" fill="none"/><path d="M210.352 153.56l-10.024-4.994" stroke-width="1.2" stroke="#000" stroke-miterlimit="10" fill="none"/><path d="M200.328 148.566l-10.023-4.988" stroke-width="1.2" stroke="#f00" stroke-miterlimit="10" fill="none"/><path d="M211.527 151.2l18.664-12.376" stroke-width="1.2" stroke="#000" stroke-miterlimit="10" fill="none"/><path d="M183.477 135.723h8v11h-8zm0 0" fill="#fff"/><use xlink:href="#b" x="183.477" y="144.386" fill="#f00"/><path d="M230.19 138.824l-1.385-22.347M228.805 116.477l18.664-12.375M227.762 110.848l14.93-9.9M208.758 106.5l20.047 9.977M247.47 104.102l-1.384-22.348M246.086 81.754l9.332-6.188" stroke-width="1.2" stroke="#000" stroke-miterlimit="10" fill="none"/><path d="M255.418 75.566l9.332-6.187" stroke-width="1.2" stroke="#0c0" stroke-miterlimit="10" fill="none"/><path d="M246.086 81.754l-20.047-9.98M241.734 85.473l-16.04-7.985" stroke-width="1.2" stroke="#000" stroke-miterlimit="10" fill="none"/><path d="M259.75 63.88h10v11h-10zm0 0" fill="#fff"/><g fill="#0c0"><use xlink:href="#c" x="259.75" y="72.542"/><use xlink:href="#d" x="266.264" y="72.542"/></g><path d="M226.04 71.773l-.692-11.17" stroke-width="1.2" stroke="#000" stroke-miterlimit="10" fill="none"/><path d="M225.348 60.602l-.692-11.176" stroke-width="1.2" stroke="#0c0" stroke-miterlimit="10" fill="none"/><path d="M226.04 71.773l-18.665 12.375" stroke-width="1.2" stroke="#000" stroke-miterlimit="10" fill="none"/><path d="M219.656 43.926h10v11h-10zm0 0" fill="#fff"/><g fill="#0c0"><use xlink:href="#c" x="219.656" y="52.589"/><use xlink:href="#d" x="226.17" y="52.589"/></g><path d="M207.375 84.148l1.383 22.352M212.773 86.06l1.106 17.877" stroke-width="1.2" stroke="#000" stroke-miterlimit="10" fill="none"/><path d="M194.246 185.922l-18.29-13.516-3.518 7.074zm0 0"/><path d="M194.246 185.922l1.383 22.348M174.2 175.945l-9.333 6.188" stroke-width="1.2" stroke="#000" stroke-miterlimit="10" fill="none"/><path d="M164.867 182.133l-9.332 6.183" stroke-width="1.2" stroke="#00f" stroke-miterlimit="10" fill="none"/><path d="M176.828 175.78l-.69-11.175" stroke-width="1.2" stroke="#000" stroke-miterlimit="10" fill="none"/><path d="M176.137 164.605l-.692-11.17" stroke-width="1.2" stroke="#f00" stroke-miterlimit="10" fill="none"/><path d="M171.57 176.105l-.695-11.17" stroke-width="1.2" stroke="#000" stroke-miterlimit="10" fill="none"/><path d="M170.875 164.934l-.69-11.176" stroke-width="1.2" stroke="#f00" stroke-miterlimit="10" fill="none"/><path d="M155.535 188.316l.692 11.176" stroke-width="1.2" stroke="#00f" stroke-miterlimit="10" fill="none"/><path d="M156.227 199.492l.69 11.176" stroke-width="1.2" stroke="#000" stroke-miterlimit="10" fill="none"/><path d="M155.535 188.316l-10.023-4.988" stroke-width="1.2" stroke="#00f" stroke-miterlimit="10" fill="none"/><path d="M145.512 183.328l-10.024-4.988" stroke-width="1.2" stroke="#000" stroke-miterlimit="10" fill="none"/><path d="M152.535 182.816h7v11h-7zm0 0" fill="#fff"/><use xlink:href="#a" x="152.535" y="191.479" fill="#00f"/><path d="M135.488 178.34l-1.386-22.348M130.09 176.43l-1.106-17.88M116.824 190.715l18.664-12.375M134.102 155.992l-20.047-9.976M114.055 146.016l-18.664 12.37M115.102 151.645l-14.934 9.898M95.39 158.387l-10.023-4.99" stroke-width="1.2" stroke="#000" stroke-miterlimit="10" fill="none"/><path d="M85.367 153.398l-10.023-4.988" stroke-width="1.2" stroke="#00f" stroke-miterlimit="10" fill="none"/><path d="M95.39 158.387l1.387 22.35" stroke-width="1.2" stroke="#000" stroke-miterlimit="10" fill="none"/><path d="M75.344 148.41l-.692-11.176" stroke-width="1.2" stroke="#00f" stroke-miterlimit="10" fill="none"/><path d="M74.652 137.234l-.69-11.172M56.68 160.785l9.332-6.187" stroke-width="1.2" stroke="#000" stroke-miterlimit="10" fill="none"/><path d="M66.012 154.598l9.332-6.188" stroke-width="1.2" stroke="#00f" stroke-miterlimit="10" fill="none"/><path d="M72.344 142.91h7v11h-7zm0 0" fill="#fff"/><use xlink:href="#a" x="72.344" y="151.573" fill="#00f"/><path d="M73.96 126.063l-20.046-9.977M53.914 116.086l-18.664 12.37M35.25 128.457l1.383 22.352M36.633 150.81l20.047 9.975M54.05 160.945l.692 11.176" stroke-width="1.2" stroke="#000" stroke-miterlimit="10" fill="none"/><path d="M54.742 172.12l.692 11.177" stroke-width="1.2" stroke="#f00" stroke-miterlimit="10" fill="none"/><path d="M59.31 160.62l.694 11.177" stroke-width="1.2" stroke="#000" stroke-miterlimit="10" fill="none"/><path d="M60.004 171.797l.69 11.176" stroke-width="1.2" stroke="#f00" stroke-miterlimit="10" fill="none"/><path d="M54.066 177.633h8v11h-8zm0 0" fill="#fff"/><use xlink:href="#b" x="54.066" y="186.296" fill="#f00"/><path d="M96.777 180.738l20.047 9.977M101.13 177.02l16.034 7.98" stroke-width="1.2" stroke="#000" stroke-miterlimit="10" fill="none"/><path d="M168.816 148.094h8v11h-8zm0 0" fill="#fff"/><use xlink:href="#b" x="168.816" y="156.757" fill="#f00"/><path d="M254.387 215.852l1.383 22.35M249.266 218.41l1.11 17.883" stroke-width="1.2" stroke="#000" stroke-miterlimit="10" fill="none"/></g></svg>