<svg xmlns="http://www.w3.org/2000/svg" xmlns:xlink="http://www.w3.org/1999/xlink" width="300pt" height="300pt" viewBox="0 0 300 300"><defs><symbol overflow="visible"><path d="M.797 2.828v-14.11h8V2.83zm.906-.89h6.203v-12.33H1.703zm0 0"/></symbol><symbol overflow="visible" id="a"><path d="M6.313-10.594c-1.15 0-2.06.43-2.735 1.28-.68.857-1.015 2.017-1.015 3.486 0 1.47.335 2.633 1.015 3.484.676.856 1.586 1.28 2.735 1.28 1.144.002 2.05-.424 2.718-1.28.665-.85 1-2.015 1-3.484 0-1.47-.335-2.63-1-3.484-.667-.852-1.573-1.282-2.717-1.282zm0-1.28c1.632 0 2.94.546 3.92 1.64.978 1.093 1.47 2.562 1.47 4.406 0 1.844-.492 3.32-1.47 4.422-.98 1.093-2.288 1.64-3.92 1.64-1.65 0-2.96-.546-3.938-1.64-.98-1.102-1.47-2.578-1.47-4.422 0-1.844.49-3.313 1.47-4.406.977-1.094 2.29-1.64 3.938-1.64zm0 0"/></symbol><symbol overflow="visible" id="b"><path d="M1.578-11.672h2.125l5.172 9.766v-9.766h1.53V0H8.282L3.11-9.766V0H1.577zm0 0"/></symbol><symbol overflow="visible" id="c"><path d="M1.578-11.672h1.578v4.78H8.89v-4.78h1.58V0H8.89v-5.563H3.157V0H1.578zm0 0"/></symbol></defs><g><path fill="#fff" d="M0 0h300v300H0z"/><path d="M168.824 191.61l9.192-16.774" stroke-width="1.2" stroke="#f00" stroke-miterlimit="10" fill="none"/><path d="M178.016 174.836l9.19-16.774" stroke-width="1.2" stroke="#000" stroke-miterlimit="10" fill="none"/><path d="M160.934 187.28l9.19-16.768" stroke-width="1.2" stroke="#f00" stroke-miterlimit="10" fill="none"/><path d="M170.125 170.512l9.188-16.774" stroke-width="1.2" stroke="#000" stroke-miterlimit="10" fill="none"/><path d="M151.88 179.945h13v19h-13zm0 0" fill="#fff"/><use xlink:href="#a" x="151.879" y="194.797" fill="#f00"/><path d="M183.262 155.902l-9.93-16.347" stroke-width="1.2" stroke="#000" stroke-miterlimit="10" fill="none"/><path d="M173.332 139.555l-9.93-16.344" stroke-width="1.2" stroke="#00f" stroke-miterlimit="10" fill="none"/><path d="M183.262 155.902l38.238-.855" stroke-width="1.2" stroke="#000" stroke-miterlimit="10" fill="none"/><path d="M163.402 123.21l-19.12.427" stroke-width="1.2" stroke="#00f" stroke-miterlimit="10" fill="none"/><path d="M144.28 123.637l-19.12.425" stroke-width="1.2" stroke="#000" stroke-miterlimit="10" fill="none"/><path d="M151.402 113.71h24v19h-24zm0 0" fill="#fff"/><g fill="#00f"><use xlink:href="#b" x="151.402" y="128.563"/><use xlink:href="#c" x="163.371" y="128.563"/></g><path d="M125.16 124.063l-11.582-15.215" stroke-width="1.2" stroke="#000" stroke-miterlimit="10" fill="none"/><path d="M113.578 108.848l-11.586-15.22" stroke-width="1.2" stroke="#00f" stroke-miterlimit="10" fill="none"/><path d="M125.16 124.063l-21.785 31.44M115.586 122.082l-17.43 25.152" stroke-width="1.2" stroke="#000" stroke-miterlimit="10" fill="none"/><path d="M101.992 93.63l-36.105 12.628" stroke-width="1.2" stroke="#00f" stroke-miterlimit="10" fill="none"/><path d="M89.992 84.13h24v19h-24zm0 0" fill="#fff"/><g fill="#00f"><use xlink:href="#b" x="89.992" y="98.98"/><use xlink:href="#c" x="101.961" y="98.98"/></g><path d="M65.887 106.258l.43 19.12" stroke-width="1.2" stroke="#00f" stroke-miterlimit="10" fill="none"/><path d="M66.316 125.38l.426 19.116" stroke-width="1.2" stroke="#000" stroke-miterlimit="10" fill="none"/><path d="M53.887 96.758h24v19h-24zm0 0" fill="#fff"/><g fill="#00f"><use xlink:href="#b" x="53.887" y="111.609"/><use xlink:href="#c" x="65.855" y="111.609"/></g><path d="M66.742 144.496l36.633 11.008M66.742 144.496l-21.79 31.44M71.96 152.766l-17.43 25.152M103.375 155.504l.852 38.238M104.227 193.742l-36.106 12.63M97.645 186.512l-28.883 10.1M68.12 206.37l-23.167-30.433M221.5 155.047l32.69-19.86M255.047 173.43L221.5 155.047M254.19 135.188l.857 38.242" stroke-width="1.2" stroke="#000" stroke-miterlimit="10" fill="none"/></g></svg>