<svg xmlns="http://www.w3.org/2000/svg" xmlns:xlink="http://www.w3.org/1999/xlink" width="300pt" height="300pt" viewBox="0 0 300 300"><defs><symbol overflow="visible"><path d="M.453 1.594v-7.938h4.5v7.938zm.5-.5h3.5v-6.938h-3.5zm0 0"/></symbol><symbol overflow="visible" id="a"><path d="M5.797-6.063v.938c-.305-.27-.625-.473-.97-.61-.335-.144-.686-.218-1.06-.218-.75 0-1.33.23-1.736.687-.397.46-.592 1.12-.592 1.985 0 .866.195 1.526.593 1.983.408.46.986.688 1.736.688.375 0 .726-.066 1.062-.203.344-.132.664-.343.97-.625V-.5c-.314.21-.642.367-.986.47-.343.1-.714.155-1.11.155-.99 0-1.772-.3-2.343-.906C.784-1.396.5-2.228.5-3.28c0-1.052.285-1.88.86-2.486.57-.613 1.35-.92 2.343-.92.395-.002.766.053 1.11.155.35.104.68.26.984.468zm0 0"/></symbol><symbol overflow="visible" id="b"><path d="M.844-6.844h.812V0H.844zm0 0"/></symbol><symbol overflow="visible" id="c"><path d="M3.547-5.953c-.65 0-1.164.242-1.547.72-.375.48-.563 1.13-.563 1.952 0 .835.188 1.49.563 1.967.383.48.898.72 1.547.72.644 0 1.156-.24 1.53-.72.376-.476.564-1.132.564-1.968 0-.822-.187-1.474-.562-1.954-.375-.477-.887-.72-1.53-.72zm0-.734c.914 0 1.648.312 2.203.937.55.617.828 1.438.828 2.47 0 1.042-.277 1.87-.828 2.483-.555.617-1.29.922-2.203.922-.93 0-1.668-.305-2.22-.922C.774-1.41.5-2.237.5-3.28c0-1.033.273-1.853.828-2.47.55-.625 1.29-.938 2.22-.938zm0 0"/></symbol><symbol overflow="visible" id="d"><path d="M.89-6.563H2.08l2.906 5.485v-5.484h.86V0H4.656L1.75-5.484V0H.89zm0 0"/></symbol><symbol overflow="visible" id="e"><path d="M.89-6.563h.876v2.688H5v-2.688h.89V0H5v-3.125H1.766V0H.89zm0 0"/></symbol></defs><g><path fill="#fff" d="M0 0h300v300H0z"/><path d="M35.25 171.375l12.145-3.582" stroke-width="1.2" stroke="#0c0" stroke-miterlimit="10" fill="none"/><path d="M47.395 167.793l12.144-3.582" stroke-width="1.2" stroke="#000" stroke-miterlimit="10" fill="none"/><path d="M25.25 165.875h10v11h-10zm0 0" fill="#fff"/><g fill="#0c0"><use xlink:href="#a" x="25.25" y="174.538"/><use xlink:href="#b" x="31.764" y="174.538"/></g><path d="M59.54 164.21l5.937-24.612M65.922 163.148l4.754-19.69M77.883 181.664L59.54 164.21M65.477 139.598l24.29-7.164M89.766 132.434l18.347 17.453M87.492 138.496l14.68 13.96M108.113 149.887l-5.94 24.613M108.113 149.887l24.285-7.164M102.172 174.5l-24.29 7.164M98.06 169.504l-19.43 5.73M135.293 143.422l2.973-12.305" stroke-width="1.2" stroke="#000" stroke-miterlimit="10" fill="none"/><path d="M138.266 131.117l2.968-12.308" stroke-width="1.2" stroke="#f00" stroke-miterlimit="10" fill="none"/><path d="M129.504 142.027l2.97-12.308" stroke-width="1.2" stroke="#000" stroke-miterlimit="10" fill="none"/><path d="M132.473 129.72l2.972-12.31" stroke-width="1.2" stroke="#f00" stroke-miterlimit="10" fill="none"/><path d="M132.398 142.723l9.172 8.726" stroke-width="1.2" stroke="#000" stroke-miterlimit="10" fill="none"/><path d="M141.57 151.45l9.176 8.726" stroke-width="1.2" stroke="#00f" stroke-miterlimit="10" fill="none"/><path d="M134.34 112.61h8v11h-8zm0 0" fill="#fff"/><use xlink:href="#c" x="134.34" y="121.272" fill="#f00"/><path d="M150.746 160.176l12.145-3.582" stroke-width="1.2" stroke="#00f" stroke-miterlimit="10" fill="none"/><path d="M162.89 156.594l12.14-3.578" stroke-width="1.2" stroke="#000" stroke-miterlimit="10" fill="none"/><path d="M143.746 154.676h14v11h-14zm0 0" fill="#fff"/><g fill="#00f"><use xlink:href="#d" x="143.746" y="163.339"/><use xlink:href="#e" x="150.724" y="163.339"/></g><path d="M175.03 153.016l4.243-11.93" stroke-width="1.2" stroke="#000" stroke-miterlimit="10" fill="none"/><path d="M179.273 141.086l4.24-11.93" stroke-width="1.2" stroke="#00f" stroke-miterlimit="10" fill="none"/><path d="M195.102 168.453l-20.07-15.437M196.73 162.188l-16.058-12.352" stroke-width="1.2" stroke="#000" stroke-miterlimit="10" fill="none"/><path d="M183.512 129.156l25.312.692" stroke-width="1.2" stroke="#00f" stroke-miterlimit="10" fill="none"/><path d="M176.512 123.656h14v11h-14zm0 0" fill="#fff"/><g fill="#00f"><use xlink:href="#d" x="176.512" y="132.319"/><use xlink:href="#e" x="183.489" y="132.319"/></g><path d="M208.824 129.848l3.582 12.144" stroke-width="1.2" stroke="#00f" stroke-miterlimit="10" fill="none"/><path d="M212.406 141.992l3.582 12.145" stroke-width="1.2" stroke="#000" stroke-miterlimit="10" fill="none"/><path d="M203.828 133.96l2.863 9.716" stroke-width="1.2" stroke="#00f" stroke-miterlimit="10" fill="none"/><path d="M206.69 143.676l2.87 9.715" stroke-width="1.2" stroke="#000" stroke-miterlimit="10" fill="none"/><path d="M205.824 124.348h7v11h-7zm0 0" fill="#fff"/><use xlink:href="#d" x="205.824" y="133.011" fill="#00f"/><path d="M215.988 154.137l-20.886 14.316M215.988 154.137l23.86 8.48M239.848 162.617l24.902-4.586M256.27 181.89l-16.422-19.273M264.75 158.03l-8.48 23.86" stroke-width="1.2" stroke="#000" stroke-miterlimit="10" fill="none"/></g></svg>