<svg xmlns="http://www.w3.org/2000/svg" xmlns:xlink="http://www.w3.org/1999/xlink" width="300pt" height="300pt" viewBox="0 0 300 300"><defs><symbol overflow="visible"><path d="M.453 1.594v-7.938h4.5v7.938zm.5-.5h3.5v-6.938h-3.5zm0 0"/></symbol><symbol overflow="visible" id="a"><path d="M1.766-3.14v2.406h1.421c.477 0 .833-.098 1.063-.297.227-.197.344-.5.344-.907 0-.407-.117-.708-.344-.907-.23-.195-.586-.297-1.063-.297zm0-2.688v1.97h1.312c.438 0 .758-.08.97-.236.218-.164.327-.414.327-.75 0-.332-.11-.578-.328-.734-.21-.164-.53-.25-.97-.25zM.89-6.562h2.266c.676 0 1.196.14 1.563.42.362.283.546.685.546 1.205 0 .398-.094.714-.282.953-.187.242-.464.39-.828.453.438.092.774.292 1.016.592.238.293.36.657.36 1.094 0 .594-.2 1.055-.595 1.375-.398.314-.964.47-1.703.47H.89zm0 0"/></symbol><symbol overflow="visible" id="b"><path d="M3.703-4.172c-.094-.05-.195-.086-.297-.11-.105-.02-.226-.03-.36-.03-.46 0-.812.152-1.062.453-.242.294-.36.715-.36 1.266V0H.813v-4.922h.813v.766c.176-.3.398-.524.672-.672.27-.145.598-.22.984-.22.064 0 .126.01.19.017.07.01.147.022.233.03zm0 0"/></symbol><symbol overflow="visible" id="c"><path d="M3.547-5.953c-.65 0-1.164.242-1.547.72-.375.48-.563 1.13-.563 1.952 0 .835.188 1.49.563 1.967.383.48.898.72 1.547.72.644 0 1.156-.24 1.53-.72.376-.476.564-1.132.564-1.968 0-.822-.187-1.474-.562-1.954-.375-.477-.887-.72-1.53-.72zm0-.734c.914 0 1.648.312 2.203.937.55.617.828 1.438.828 2.47 0 1.042-.277 1.87-.828 2.483-.555.617-1.29.922-2.203.922-.93 0-1.668-.305-2.22-.922C.774-1.41.5-2.237.5-3.28c0-1.033.273-1.853.828-2.47.55-.625 1.29-.938 2.22-.938zm0 0"/></symbol><symbol overflow="visible" id="d"><path d="M.89-6.563H2.08l2.906 5.485v-5.484h.86V0H4.656L1.75-5.484V0H.89zm0 0"/></symbol><symbol overflow="visible" id="e"><path d="M.89-6.563h.876v2.688H5v-2.688h.89V0H5v-3.125H1.766V0H.89zm0 0"/></symbol></defs><g><path fill="#fff" d="M0 0h300v300H0z"/><path d="M35.25 171.238l10.852-3.847" stroke-width="1.2" stroke="#7f4d1a" stroke-miterlimit="10" fill="none"/><path d="M46.102 167.39l10.85-3.847" stroke-width="1.2" stroke="#000" stroke-miterlimit="10" fill="none"/><path d="M24.25 165.738h11v11h-11zm0 0" fill="#fff"/><g fill="#7f4d1a"><use xlink:href="#a" x="24.25" y="174.401"/><use xlink:href="#b" x="30.649" y="174.401"/></g><path d="M56.953 163.543l4.188-22.64M62.7 162.266l3.347-18.114M74.465 178.492l-17.512-14.95M61.14 140.902l21.7-7.69M82.84 133.21l17.515 14.946M81.074 138.824l14.012 11.957M100.355 148.156l-4.187 22.64M100.355 148.156l21.7-7.69M96.168 170.797l-21.703 7.695M92.188 166.46l-17.364 6.157M124.72 140.957l2.093-11.32" stroke-width="1.2" stroke="#000" stroke-miterlimit="10" fill="none"/><path d="M126.813 129.637l2.093-11.32" stroke-width="1.2" stroke="#f00" stroke-miterlimit="10" fill="none"/><path d="M119.39 139.97l2.094-11.322" stroke-width="1.2" stroke="#000" stroke-miterlimit="10" fill="none"/><path d="M121.484 128.648l2.094-11.32" stroke-width="1.2" stroke="#f00" stroke-miterlimit="10" fill="none"/><path d="M122.055 140.465l8.757 7.472" stroke-width="1.2" stroke="#000" stroke-miterlimit="10" fill="none"/><path d="M130.813 147.938l8.757 7.472" stroke-width="1.2" stroke="#00f" stroke-miterlimit="10" fill="none"/><path d="M122.242 112.324h8v11h-8zm0 0" fill="#fff"/><use xlink:href="#c" x="122.242" y="120.987" fill="#f00"/><path d="M139.57 155.41l10.852-3.847" stroke-width="1.2" stroke="#00f" stroke-miterlimit="10" fill="none"/><path d="M150.422 151.563l10.848-3.848" stroke-width="1.2" stroke="#000" stroke-miterlimit="10" fill="none"/><path d="M132.57 149.91h14v11h-14zm0 0" fill="#fff"/><g fill="#00f"><use xlink:href="#d" x="132.57" y="158.573"/><use xlink:href="#e" x="139.548" y="158.573"/></g><path d="M161.27 147.715l3.265-11.04" stroke-width="1.2" stroke="#000" stroke-miterlimit="10" fill="none"/><path d="M164.535 136.676l3.266-11.04" stroke-width="1.2" stroke="#00f" stroke-miterlimit="10" fill="none"/><path d="M180.25 160.75l-18.98-13.035M181.418 154.98l-15.184-10.425" stroke-width="1.2" stroke="#000" stroke-miterlimit="10" fill="none"/><path d="M167.8 125.637l23.02-.61" stroke-width="1.2" stroke="#00f" stroke-miterlimit="10" fill="none"/><path d="M160.8 120.137h14v11h-14zm0 0" fill="#fff"/><g fill="#00f"><use xlink:href="#d" x="160.801" y="128.8"/><use xlink:href="#e" x="167.778" y="128.8"/></g><path d="M190.82 125.027l3.844 10.852" stroke-width="1.2" stroke="#00f" stroke-miterlimit="10" fill="none"/><path d="M194.664 135.88l3.848 10.847" stroke-width="1.2" stroke="#000" stroke-miterlimit="10" fill="none"/><path d="M186.48 129.008l3.08 8.68" stroke-width="1.2" stroke="#00f" stroke-miterlimit="10" fill="none"/><path d="M189.56 137.688l3.077 8.68" stroke-width="1.2" stroke="#000" stroke-miterlimit="10" fill="none"/><path d="M187.82 119.527h7v11h-7zm0 0" fill="#fff"/><use xlink:href="#d" x="187.82" y="128.19" fill="#00f"/><path d="M198.512 146.727L180.25 160.75M198.512 146.727l22.082 6.53M220.594 153.258l5.383 22.387M226.398 154.23l4.305 17.91M237.29 137.402l-16.696 15.856M225.977 175.645l22.078 6.53M248.055 182.176l16.695-15.852M245.992 176.664l13.36-12.684M264.75 166.324l-5.383-22.39M259.367 143.934l-22.078-6.532M255.62 148.477l-17.663-5.223" stroke-width="1.2" stroke="#000" stroke-miterlimit="10" fill="none"/></g></svg>