<svg xmlns="http://www.w3.org/2000/svg" xmlns:xlink="http://www.w3.org/1999/xlink" width="300pt" height="300pt" viewBox="0 0 300 300"><defs><symbol overflow="visible"><path d="M.453 1.594v-7.938h4.5v7.938zm.5-.5h3.5v-6.938h-3.5zm0 0"/></symbol><symbol overflow="visible" id="a"><path d="M3.547-5.953c-.65 0-1.164.242-1.547.72-.375.48-.563 1.13-.563 1.952 0 .835.188 1.49.563 1.967.383.48.898.72 1.547.72.644 0 1.156-.24 1.53-.72.376-.476.564-1.132.564-1.968 0-.822-.187-1.474-.562-1.954-.375-.477-.887-.72-1.53-.72zm0-.734c.914 0 1.648.312 2.203.937.55.617.828 1.438.828 2.47 0 1.042-.277 1.87-.828 2.483-.555.617-1.29.922-2.203.922-.93 0-1.668-.305-2.22-.922C.774-1.41.5-2.237.5-3.28c0-1.033.273-1.853.828-2.47.55-.625 1.29-.938 2.22-.938zm0 0"/></symbol><symbol overflow="visible" id="b"><path d="M.89-6.563H2.08l2.906 5.485v-5.484h.86V0H4.656L1.75-5.484V0H.89zm0 0"/></symbol><symbol overflow="visible" id="c"><path d="M.89-6.563h.876v2.688H5v-2.688h.89V0H5v-3.125H1.766V0H.89zm0 0"/></symbol><symbol overflow="visible"><path d="M.406 1.422V-5.64h4V1.42zM.844.97h3.11v-6.157H.843zm0 0"/></symbol><symbol overflow="visible" id="d"><path d="M3.688-5.016v2.172h2.17v.672H3.69V0H3.03v-2.172H.845v-.672H3.03v-2.172zm0 0"/></symbol></defs><g><path fill="#fff" d="M0 0h300v300H0z"/><path d="M186.61 80.816l9.59 5.46" stroke-width="1.2" stroke="#f00" stroke-miterlimit="10" fill="none"/><path d="M196.2 86.277l9.59 5.457" stroke-width="1.2" stroke="#000" stroke-miterlimit="10" fill="none"/><path d="M189.176 76.305l9.594 5.457" stroke-width="1.2" stroke="#f00" stroke-miterlimit="10" fill="none"/><path d="M198.77 81.762l9.59 5.46" stroke-width="1.2" stroke="#000" stroke-miterlimit="10" fill="none"/><path d="M179.895 73.06h8v11h-8zm0 0" fill="#fff"/><use xlink:href="#a" x="179.895" y="81.722" fill="#f00"/><path d="M207.074 89.48l9.524-5.578" stroke-width="1.2" stroke="#000" stroke-miterlimit="10" fill="none"/><path d="M216.598 83.902l9.523-5.574" stroke-width="1.2" stroke="#00f" stroke-miterlimit="10" fill="none"/><path d="M207.074 89.48l.133 22.07" stroke-width="1.2" stroke="#000" stroke-miterlimit="10" fill="none"/><path d="M226.12 78.328l9.59 5.46" stroke-width="1.2" stroke="#00f" stroke-miterlimit="10" fill="none"/><path d="M235.71 83.79l9.59 5.456" stroke-width="1.2" stroke="#000" stroke-miterlimit="10" fill="none"/><path d="M219.12 72.828h14v11h-14zm0 0" fill="#fff"/><g fill="#00f"><use xlink:href="#b" x="219.121" y="81.491"/><use xlink:href="#c" x="226.099" y="81.491"/></g><path d="M246.613 91.488l9.524-5.574" stroke-width="1.2" stroke="#000" stroke-miterlimit="10" fill="none"/><path d="M256.137 85.914l9.523-5.578" stroke-width="1.2" stroke="#f00" stroke-miterlimit="10" fill="none"/><path d="M243.988 87.008l9.524-5.578" stroke-width="1.2" stroke="#000" stroke-miterlimit="10" fill="none"/><path d="M253.512 81.43l9.523-5.575" stroke-width="1.2" stroke="#f00" stroke-miterlimit="10" fill="none"/><path d="M245.3 89.246l.134 22.07" stroke-width="1.2" stroke="#000" stroke-miterlimit="10" fill="none"/><path d="M260.348 72.598h8v11h-8zm0 0" fill="#fff"/><use xlink:href="#a" x="260.348" y="81.261" fill="#f00"/><path d="M245.434 111.316l-19.047 11.153M246.156 116.914l-15.238 8.922M264.617 122.238l-19.183-10.922M226.387 122.47l.136 22.07M226.387 122.47l-19.18-10.92M226.523 144.54l19.18 10.92M231.008 141.117l15.347 8.738M245.703 155.46l.067 11.036" stroke-width="1.2" stroke="#000" stroke-miterlimit="10" fill="none"/><path d="M245.77 166.496l.066 11.035" stroke-width="1.2" stroke="#00f" stroke-miterlimit="10" fill="none"/><path d="M245.703 155.46l19.047-11.15" stroke-width="1.2" stroke="#000" stroke-miterlimit="10" fill="none"/><path d="M245.836 177.53l-9.524 5.575" stroke-width="1.2" stroke="#00f" stroke-miterlimit="10" fill="none"/><path d="M236.313 183.105l-9.524 5.58" stroke-width="1.2" stroke="#000" stroke-miterlimit="10" fill="none"/><path d="M238.836 172.03h14v11h-14zm0 0" fill="#fff"/><g fill="#00f"><use xlink:href="#b" x="238.836" y="180.694"/><use xlink:href="#c" x="245.813" y="180.694"/></g><path d="M226.79 188.684l-19.18-10.922M222.305 192.102l-15.348-8.735M226.926 210.754l-.137-22.07M207.61 177.762l-19.048 11.152M188.563 188.914l.132 22.07M193.77 191.09l.105 17.656M188.695 210.984l19.184 10.918M207.88 221.902l19.046-11.148M207.16 216.31l15.235-8.923M264.75 144.31l-.133-22.072M259.543 142.133l-.106-17.656M207.207 111.55l-19.047 11.153M202.68 108.184l-15.24 8.92M188.16 122.703l-9.59-5.46" stroke-width="1.2" stroke="#000" stroke-miterlimit="10" fill="none"/><path d="M178.57 117.242l-9.59-5.46M168.98 111.78l-9.523 5.58" stroke-width="1.2" stroke="#00f" stroke-miterlimit="10" fill="none"/><path d="M159.457 117.36l-9.523 5.574" stroke-width="1.2" stroke="#000" stroke-miterlimit="10" fill="none"/><path d="M161.98 106.28h14v11h-14zm0 0" fill="#fff"/><g fill="#00f"><use xlink:href="#b" x="161.98" y="114.944"/><use xlink:href="#c" x="168.958" y="114.944"/></g><path d="M149.934 122.934l-19.18-10.918M145.445 126.355l-15.343-8.734M150.066 145.004l-.132-22.07M130.754 112.016l-19.047 11.152M111.707 123.168l.133 22.07M116.91 125.34l.11 17.66M111.84 145.238l19.18 10.918M111.84 145.238l-19.047 11.15M131.02 156.156l19.046-11.152M130.3 150.56l15.24-8.923M92.793 156.387l-9.59-5.457" stroke-width="1.2" stroke="#000" stroke-miterlimit="10" fill="none"/><path d="M83.203 150.93l-9.59-5.46M73.613 145.47l-.07-11.036" stroke-width="1.2" stroke="#00f" stroke-miterlimit="10" fill="none"/><path d="M73.543 134.434l-.066-11.036M54.566 156.62l9.524-5.577" stroke-width="1.2" stroke="#000" stroke-miterlimit="10" fill="none"/><path d="M64.09 151.043l9.523-5.574" stroke-width="1.2" stroke="#00f" stroke-miterlimit="10" fill="none"/><path d="M63.613 137.97h21v15h-21zm0 0" fill="#fff"/><g fill="#00f"><use xlink:href="#b" x="63.613" y="150.07"/><use xlink:href="#c" x="70.591" y="150.07"/></g><use xlink:href="#d" x="77.605" y="145.188" fill="#00f"/><path d="M73.477 123.398l-19.18-10.918M54.297 112.48L35.25 123.63M35.25 123.63l.133 22.07M35.383 145.7l19.183 10.92" stroke-width="1.2" stroke="#000" stroke-miterlimit="10" fill="none"/></g></svg>