<svg xmlns="http://www.w3.org/2000/svg" xmlns:xlink="http://www.w3.org/1999/xlink" width="300pt" height="300pt" viewBox="0 0 300 300"><defs><symbol overflow="visible"><path d="M.453 1.594v-7.938h4.5v7.938zm.5-.5h3.5v-6.938h-3.5zm0 0"/></symbol><symbol overflow="visible" id="a"><path d="M3.547-5.953c-.65 0-1.164.242-1.547.72-.375.48-.563 1.13-.563 1.952 0 .835.188 1.49.563 1.967.383.48.898.72 1.547.72.644 0 1.156-.24 1.53-.72.376-.476.564-1.132.564-1.968 0-.822-.187-1.474-.562-1.954-.375-.477-.887-.72-1.53-.72zm0-.734c.914 0 1.648.312 2.203.937.55.617.828 1.438.828 2.47 0 1.042-.277 1.87-.828 2.483-.555.617-1.29.922-2.203.922-.93 0-1.668-.305-2.22-.922C.774-1.41.5-2.237.5-3.28c0-1.033.273-1.853.828-2.47.55-.625 1.29-.938 2.22-.938zm0 0"/></symbol><symbol overflow="visible" id="b"><path d="M.89-6.563H2.08l2.906 5.485v-5.484h.86V0H4.656L1.75-5.484V0H.89zm0 0"/></symbol><symbol overflow="visible" id="c"><path d="M.89-6.563h.876v2.688H5v-2.688h.89V0H5v-3.125H1.766V0H.89zm0 0"/></symbol><symbol overflow="visible"><path d="M.406 1.422V-5.64h4V1.42zM.844.97h3.11v-6.157H.843zm0 0"/></symbol><symbol overflow="visible" id="d"><path d="M1.53-.672h2.767V0H.594v-.672c.29-.3.695-.71 1.22-1.234.518-.532.842-.867.967-1.016.26-.28.44-.52.533-.72.1-.194.156-.39.156-.577 0-.31-.11-.565-.33-.764-.218-.196-.5-.297-.843-.297-.25 0-.516.046-.797.14-.273.085-.563.214-.875.39v-.797c.32-.133.617-.234.89-.297.282-.062.536-.093.766-.093.603 0 1.083.152 1.44.453.362.304.546.703.546 1.203 0 .24-.047.468-.14.686-.095.22-.26.477-.485.766-.074.074-.288.293-.64.656-.344.356-.836.856-1.47 1.5zm0 0"/></symbol></defs><g><path fill="#fff" d="M0 0h300v300H0z"/><path d="M189.352 141.977l5.156 9.058" stroke-width="1.2" stroke="#f00" stroke-miterlimit="10" fill="none"/><path d="M194.508 151.035l5.16 9.055" stroke-width="1.2" stroke="#000" stroke-miterlimit="10" fill="none"/><path d="M193.613 139.55l5.157 9.055" stroke-width="1.2" stroke="#f00" stroke-miterlimit="10" fill="none"/><path d="M198.77 148.605l5.16 9.055" stroke-width="1.2" stroke="#000" stroke-miterlimit="10" fill="none"/><path d="M183.48 135.262h8v11h-8zm0 0" fill="#fff"/><use xlink:href="#a" x="183.48" y="143.925" fill="#f00"/><path d="M201.8 158.875l10.423.063" stroke-width="1.2" stroke="#000" stroke-miterlimit="10" fill="none"/><path d="M212.223 158.938l10.422.058" stroke-width="1.2" stroke="#00f" stroke-miterlimit="10" fill="none"/><path d="M201.8 158.875l-10.527 17.992" stroke-width="1.2" stroke="#000" stroke-miterlimit="10" fill="none"/><path d="M222.645 158.996l5.26-8.996" stroke-width="1.2" stroke="#00f" stroke-miterlimit="10" fill="none"/><path d="M227.906 150l5.266-8.996" stroke-width="1.2" stroke="#000" stroke-miterlimit="10" fill="none"/><path d="M215.645 153.496h14v11h-14zm0 0" fill="#fff"/><g fill="#00f"><use xlink:href="#b" x="215.645" y="162.159"/><use xlink:href="#c" x="222.622" y="162.159"/></g><path d="M233.172 141.004l20.844.12M235.28 136.113l16.677.094M222.852 122.89l10.32 18.114M254.016 141.125l10.527-17.992M264.543 123.133l-10.32-18.113M259.25 123.75l-8.258-14.492M254.223 105.02l-10.422-.06" stroke-width="1.2" stroke="#000" stroke-miterlimit="10" fill="none"/><path d="M243.8 104.96l-10.42-.062" stroke-width="1.2" stroke="#00f" stroke-miterlimit="10" fill="none"/><path d="M254.223 105.02l5.265-8.997" stroke-width="1.2" stroke="#000" stroke-miterlimit="10" fill="none"/><path d="M259.488 96.023l5.262-8.996M233.38 104.898l-5.263 8.997" stroke-width="1.2" stroke="#00f" stroke-miterlimit="10" fill="none"/><path d="M228.117 113.895l-5.265 8.996" stroke-width="1.2" stroke="#000" stroke-miterlimit="10" fill="none"/><path d="M236.56 109.176l-4.212 7.195" stroke-width="1.2" stroke="#00f" stroke-miterlimit="10" fill="none"/><path d="M232.348 116.37l-4.21 7.2" stroke-width="1.2" stroke="#000" stroke-miterlimit="10" fill="none"/><path d="M230.38 99.398h7v11h-7zm0 0" fill="#fff"/><use xlink:href="#b" x="230.379" y="108.062" fill="#00f"/><path d="M255.75 79.027h19v16h-19zm0 0" fill="#fff"/><g fill="#00f"><use xlink:href="#b" x="255.75" y="87.69"/><use xlink:href="#c" x="262.728" y="87.69"/></g><use xlink:href="#d" x="269.742" y="92.573" fill="#00f"/><path d="M191.273 176.867l-20.843-.12M189.16 181.762l-16.676-.098M201.59 194.98l-10.317-18.113M170.43 176.746l-10.528 17.992M159.902 194.738l10.317 18.114M165.195 194.12l8.254 14.493M159.902 194.738l-20.847-.12M170.22 212.852l20.843.12M191.063 212.973l10.527-17.993M187.883 208.695l8.422-14.394M201.59 194.98l20.844.122M136.94 193.38l-5.264 8.995" stroke-width="1.2" stroke="#000" stroke-miterlimit="10" fill="none"/><path d="M131.676 202.375l-5.262 8.996" stroke-width="1.2" stroke="#f00" stroke-miterlimit="10" fill="none"/><path d="M141.172 195.855l-5.262 8.997" stroke-width="1.2" stroke="#000" stroke-miterlimit="10" fill="none"/><path d="M135.91 204.852l-5.262 8.996" stroke-width="1.2" stroke="#f00" stroke-miterlimit="10" fill="none"/><path d="M139.055 194.617l-5.157-9.054" stroke-width="1.2" stroke="#000" stroke-miterlimit="10" fill="none"/><path d="M133.898 185.563l-5.16-9.055" stroke-width="1.2" stroke="#00f" stroke-miterlimit="10" fill="none"/><path d="M120.53 207.11h8v11h-8zm0 0" fill="#fff"/><use xlink:href="#a" x="120.531" y="215.772" fill="#f00"/><path d="M128.738 176.508l-10.422-.063" stroke-width="1.2" stroke="#00f" stroke-miterlimit="10" fill="none"/><path d="M118.316 176.445l-10.42-.058" stroke-width="1.2" stroke="#000" stroke-miterlimit="10" fill="none"/><path d="M121.738 171.008h14v11h-14zm0 0" fill="#fff"/><g fill="#00f"><use xlink:href="#b" x="121.738" y="179.671"/><use xlink:href="#c" x="128.716" y="179.671"/></g><path d="M107.895 176.387l-10.32-18.114M97.574 158.273l-20.844-.12M76.73 158.152l-10.316-18.11M66.414 140.043l10.523-17.992M45.566 139.922l20.848.12M76.938 122.05L66.62 103.94M66.62 103.938l-20.843-.122M45.777 103.816L35.25 121.81M35.25 121.81l10.316 18.112" stroke-width="1.2" stroke="#000" stroke-miterlimit="10" fill="none"/></g></svg>