<svg xmlns="http://www.w3.org/2000/svg" xmlns:xlink="http://www.w3.org/1999/xlink" width="300pt" height="300pt" viewBox="0 0 300 300"><defs><symbol overflow="visible"><path d="M.453 1.594v-7.938h4.5v7.938zm.5-.5h3.5v-6.938h-3.5zm0 0"/></symbol><symbol overflow="visible" id="a"><path d="M3.547-5.953c-.65 0-1.164.242-1.547.72-.375.48-.563 1.13-.563 1.952 0 .835.188 1.49.563 1.967.383.48.898.72 1.547.72.644 0 1.156-.24 1.53-.72.376-.476.564-1.132.564-1.968 0-.822-.187-1.474-.562-1.954-.375-.477-.887-.72-1.53-.72zm0-.734c.914 0 1.648.312 2.203.937.55.617.828 1.438.828 2.47 0 1.042-.277 1.87-.828 2.483-.555.617-1.29.922-2.203.922-.93 0-1.668-.305-2.22-.922C.774-1.41.5-2.237.5-3.28c0-1.033.273-1.853.828-2.47.55-.625 1.29-.938 2.22-.938zm0 0"/></symbol><symbol overflow="visible" id="b"><path d="M.89-6.563H2.08l2.906 5.485v-5.484h.86V0H4.656L1.75-5.484V0H.89zm0 0"/></symbol><symbol overflow="visible" id="c"><path d="M.89-6.563h.876v2.688H5v-2.688h.89V0H5v-3.125H1.766V0H.89zm0 0"/></symbol><symbol overflow="visible"><path d="M.406 1.422V-5.64h4V1.42zM.844.97h3.11v-6.157H.843zm0 0"/></symbol><symbol overflow="visible" id="d"><path d="M3.688-5.016v2.172h2.17v.672H3.69V0H3.03v-2.172H.845v-.672H3.03v-2.172zm0 0"/></symbol></defs><g><path fill="#fff" d="M0 0h300v300H0z"/><path d="M196.965 110.05l6.68 7.49" stroke-width="1.2" stroke="#f00" stroke-miterlimit="10" fill="none"/><path d="M203.645 117.54l6.683 7.487" stroke-width="1.2" stroke="#000" stroke-miterlimit="10" fill="none"/><path d="M200.488 106.91l6.68 7.485" stroke-width="1.2" stroke="#f00" stroke-miterlimit="10" fill="none"/><path d="M207.168 114.395l6.684 7.488" stroke-width="1.2" stroke="#000" stroke-miterlimit="10" fill="none"/><path d="M190.727 102.98h8v11h-8zm0 0" fill="#fff"/><use xlink:href="#a" x="190.727" y="111.644" fill="#f00"/><path d="M212.09 123.453l9.824-2.043" stroke-width="1.2" stroke="#000" stroke-miterlimit="10" fill="none"/><path d="M221.914 121.41l9.824-2.043" stroke-width="1.2" stroke="#00f" stroke-miterlimit="10" fill="none"/><path d="M212.09 123.453l-6.285 19.06" stroke-width="1.2" stroke="#000" stroke-miterlimit="10" fill="none"/><path d="M231.738 119.367l6.68 7.488" stroke-width="1.2" stroke="#00f" stroke-miterlimit="10" fill="none"/><path d="M238.418 126.855l6.684 7.485" stroke-width="1.2" stroke="#000" stroke-miterlimit="10" fill="none"/><path d="M224.738 113.867h14v11h-14zm0 0" fill="#fff"/><g fill="#00f"><use xlink:href="#b" x="224.738" y="122.53"/><use xlink:href="#c" x="231.716" y="122.53"/></g><path d="M245.582 136.652l9.824-2.043" stroke-width="1.2" stroke="#000" stroke-miterlimit="10" fill="none"/><path d="M255.406 134.61l9.824-2.044" stroke-width="1.2" stroke="#f00" stroke-miterlimit="10" fill="none"/><path d="M244.62 132.03l9.825-2.042" stroke-width="1.2" stroke="#000" stroke-miterlimit="10" fill="none"/><path d="M254.445 129.988l9.825-2.043" stroke-width="1.2" stroke="#f00" stroke-miterlimit="10" fill="none"/><path d="M245.102 134.34l-6.286 19.062" stroke-width="1.2" stroke="#000" stroke-miterlimit="10" fill="none"/><path d="M260.75 124.754h8v11h-8zm0 0" fill="#fff"/><use xlink:href="#a" x="260.75" y="133.417" fill="#f00"/><path d="M238.816 153.402l-19.648 4.086M237.813 158.434l-15.72 3.27M252.18 168.375l-13.364-14.973M219.168 157.488l-6.29 19.06M219.168 157.488l-13.363-14.976M212.88 176.547l13.362 14.973M217.738 174.898l10.692 11.98M226.242 191.52l19.65-4.086M245.89 187.434l6.29-19.06M242.035 184.047l5.03-15.246M205.805 142.512l-19.65 4.086M202.88 138.297l-15.724 3.27M186.156 146.598l-6.683-7.485" stroke-width="1.2" stroke="#000" stroke-miterlimit="10" fill="none"/><path d="M179.473 139.113l-6.68-7.488M172.793 131.625l-9.824 2.043" stroke-width="1.2" stroke="#00f" stroke-miterlimit="10" fill="none"/><path d="M162.97 133.668l-9.825 2.043" stroke-width="1.2" stroke="#000" stroke-miterlimit="10" fill="none"/><path d="M165.793 126.125h14v11h-14zm0 0" fill="#fff"/><g fill="#00f"><use xlink:href="#b" x="165.793" y="134.788"/><use xlink:href="#c" x="172.771" y="134.788"/></g><path d="M153.145 135.71L139.78 120.74M148.285 137.36l-10.69-11.98M146.855 154.77l6.29-19.06M139.78 120.738l-19.647 4.086M120.133 124.824l-6.29 19.06M123.988 128.21l-5.03 15.247M113.844 143.883l-9.824 2.043" stroke-width="1.2" stroke="#000" stroke-miterlimit="10" fill="none"/><path d="M104.02 145.926l-9.825 2.043" stroke-width="1.2" stroke="#00f" stroke-miterlimit="10" fill="none"/><path d="M113.844 143.883l13.363 14.972" stroke-width="1.2" stroke="#000" stroke-miterlimit="10" fill="none"/><path d="M94.195 147.97l-6.68-7.486" stroke-width="1.2" stroke="#00f" stroke-miterlimit="10" fill="none"/><path d="M87.516 140.484l-6.684-7.488M87.91 167.027l3.145-9.527" stroke-width="1.2" stroke="#000" stroke-miterlimit="10" fill="none"/><path d="M91.055 157.5l3.14-9.53" stroke-width="1.2" stroke="#00f" stroke-miterlimit="10" fill="none"/><path d="M91.195 142.47h7v11h-7zm0 0" fill="#fff"/><use xlink:href="#b" x="91.195" y="151.132" fill="#00f"/><path d="M80.832 132.996l-19.648 4.086M61.184 137.082l-3.14 9.53" stroke-width="1.2" stroke="#000" stroke-miterlimit="10" fill="none"/><path d="M58.043 146.613l-3.145 9.528M54.898 156.14l6.684 7.49" stroke-width="1.2" stroke="#00f" stroke-miterlimit="10" fill="none"/><path d="M61.582 163.63l6.68 7.483" stroke-width="1.2" stroke="#000" stroke-miterlimit="10" fill="none"/><path d="M54.898 156.14l-9.824 2.044" stroke-width="1.2" stroke="#00f" stroke-miterlimit="10" fill="none"/><path d="M45.074 158.184l-9.824 2.043" stroke-width="1.2" stroke="#000" stroke-miterlimit="10" fill="none"/><path d="M44.898 148.64h21v15h-21zm0 0" fill="#fff"/><g fill="#00f"><use xlink:href="#b" x="44.898" y="160.742"/><use xlink:href="#c" x="51.876" y="160.742"/></g><use xlink:href="#d" x="58.891" y="155.859" fill="#00f"/><path d="M68.262 171.113l19.648-4.086M127.207 158.855l19.648-4.085M128.21 153.824l15.72-3.27" stroke-width="1.2" stroke="#000" stroke-miterlimit="10" fill="none"/></g></svg>