<svg xmlns="http://www.w3.org/2000/svg" xmlns:xlink="http://www.w3.org/1999/xlink" width="300pt" height="300pt" viewBox="0 0 300 300"><defs><symbol overflow="visible"><path d="M.453 1.594v-7.938h4.5v7.938zm.5-.5h3.5v-6.938h-3.5zm0 0"/></symbol><symbol overflow="visible" id="a"><path d="M3.547-5.953c-.65 0-1.164.242-1.547.72-.375.48-.563 1.13-.563 1.952 0 .835.188 1.49.563 1.967.383.48.898.72 1.547.72.644 0 1.156-.24 1.53-.72.376-.476.564-1.132.564-1.968 0-.822-.187-1.474-.562-1.954-.375-.477-.887-.72-1.53-.72zm0-.734c.914 0 1.648.312 2.203.937.55.617.828 1.438.828 2.47 0 1.042-.277 1.87-.828 2.483-.555.617-1.29.922-2.203.922-.93 0-1.668-.305-2.22-.922C.774-1.41.5-2.237.5-3.28c0-1.033.273-1.853.828-2.47.55-.625 1.29-.938 2.22-.938zm0 0"/></symbol><symbol overflow="visible" id="b"><path d="M.89-6.563H2.08l2.906 5.485v-5.484h.86V0H4.656L1.75-5.484V0H.89zm0 0"/></symbol><symbol overflow="visible" id="c"><path d="M.89-6.563h.876v2.688H5v-2.688h.89V0H5v-3.125H1.766V0H.89zm0 0"/></symbol></defs><g><path fill="#fff" d="M0 0h300v300H0z"/><path d="M35.25 126.89l3.004-9.792" stroke-width="1.2" stroke="#f00" stroke-miterlimit="10" fill="none"/><path d="M38.254 117.098l3.004-9.797" stroke-width="1.2" stroke="#000" stroke-miterlimit="10" fill="none"/><path d="M35.25 126.89l6.98 7.5" stroke-width="1.2" stroke="#f00" stroke-miterlimit="10" fill="none"/><path d="M42.23 134.39l6.985 7.5" stroke-width="1.2" stroke="#000" stroke-miterlimit="10" fill="none"/><path d="M31.25 121.39h8v11h-8zm0 0" fill="#fff"/><use xlink:href="#a" x="31.25" y="130.054" fill="#f00"/><path d="M49.215 141.89l19.972-4.593M52.293 146.133l15.977-3.676M43.207 161.484l6.008-19.593M69.188 137.297l13.96 15M83.148 152.297L77.14 171.89M77.938 152.844l-4.805 15.672M83.148 152.297l19.973-4.594M77.14 171.89l-19.968 4.594M57.172 176.484l-13.965-15M59.305 171.7l-11.172-12M103.12 147.703l13.966 15M108.047 145.918l11.172 12M109.13 128.11l-6.01 19.593M117.086 162.703l19.973-4.594M137.06 158.11l6.006-19.594M133.047 154.734l4.808-15.672M137.06 158.11l13.96 15M143.066 138.516l-13.964-15M129.102 123.516l-19.973 4.593M128.184 128.676l-15.977 3.676M148.715 172.402l-3.004 9.793" stroke-width="1.2" stroke="#000" stroke-miterlimit="10" fill="none"/><path d="M145.71 182.195l-3.003 9.797" stroke-width="1.2" stroke="#f00" stroke-miterlimit="10" fill="none"/><path d="M153.324 173.813l-3 9.796" stroke-width="1.2" stroke="#000" stroke-miterlimit="10" fill="none"/><path d="M150.324 183.61l-3.004 9.796" stroke-width="1.2" stroke="#f00" stroke-miterlimit="10" fill="none"/><path d="M151.02 173.11l9.988-2.298" stroke-width="1.2" stroke="#000" stroke-miterlimit="10" fill="none"/><path d="M161.008 170.813l9.984-2.297" stroke-width="1.2" stroke="#00f" stroke-miterlimit="10" fill="none"/><path d="M137.012 187.2h8v11h-8zm0 0" fill="#fff"/><use xlink:href="#a" x="137.012" y="195.862" fill="#f00"/><path d="M170.992 168.516l6.985 7.496" stroke-width="1.2" stroke="#00f" stroke-miterlimit="10" fill="none"/><path d="M177.977 176.012l6.98 7.5M177 148.922l-3.004 9.797" stroke-width="1.2" stroke="#000" stroke-miterlimit="10" fill="none"/><path d="M173.996 158.72l-3.004 9.796" stroke-width="1.2" stroke="#00f" stroke-miterlimit="10" fill="none"/><path d="M167.992 163.016h7v11h-7zm0 0" fill="#fff"/><use xlink:href="#b" x="167.992" y="171.679" fill="#00f"/><path d="M184.957 183.512l19.973-4.594M204.93 178.918l6.007-19.59M210.938 159.328l-13.965-15M213.07 154.54l-11.172-11.997M229.516 150.68l-18.578 8.648M196.973 144.328l4.972-8.957" stroke-width="1.2" stroke="#000" stroke-miterlimit="10" fill="none"/><path d="M201.945 135.37l4.977-8.96" stroke-width="1.2" stroke="#00f" stroke-miterlimit="10" fill="none"/><path d="M196.973 144.328L177 148.922" stroke-width="1.2" stroke="#000" stroke-miterlimit="10" fill="none"/><path d="M206.922 126.41l10.055 1.965" stroke-width="1.2" stroke="#00f" stroke-miterlimit="10" fill="none"/><path d="M216.977 128.375l10.058 1.965" stroke-width="1.2" stroke="#000" stroke-miterlimit="10" fill="none"/><path d="M199.922 120.91h14v11h-14zm0 0" fill="#fff"/><g fill="#00f"><use xlink:href="#b" x="199.922" y="129.573"/><use xlink:href="#c" x="206.899" y="129.573"/></g><path d="M227.035 130.34l2.48 20.34M232.07 131.79l1.985 16.273M243.41 118.02l-16.375 12.32M229.516 150.68l18.86 8.023M248.375 158.703l16.375-12.32M247.113 153.617l13.102-9.855M264.75 146.383l-2.48-20.34M262.27 126.043l-18.86-8.023M258.496 129.676l-15.086-6.418" stroke-width="1.2" stroke="#000" stroke-miterlimit="10" fill="none"/></g></svg>