<svg xmlns="http://www.w3.org/2000/svg" xmlns:xlink="http://www.w3.org/1999/xlink" width="300pt" height="300pt" viewBox="0 0 300 300"><defs><symbol overflow="visible"><path d="M.453 1.594v-7.938h4.5v7.938zm.5-.5h3.5v-6.938h-3.5zm0 0"/></symbol><symbol overflow="visible" id="a"><path d="M.89-6.563h3.766v.75h-2.89v1.938h2.61v.734h-2.61V0H.89zm0 0"/></symbol><symbol overflow="visible" id="b"><path d="M3.547-5.953c-.65 0-1.164.242-1.547.72-.375.48-.563 1.13-.563 1.952 0 .835.188 1.49.563 1.967.383.48.898.72 1.547.72.644 0 1.156-.24 1.53-.72.376-.476.564-1.132.564-1.968 0-.822-.187-1.474-.562-1.954-.375-.477-.887-.72-1.53-.72zm0-.734c.914 0 1.648.312 2.203.937.55.617.828 1.438.828 2.47 0 1.042-.277 1.87-.828 2.483-.555.617-1.29.922-2.203.922-.93 0-1.668-.305-2.22-.922C.774-1.41.5-2.237.5-3.28c0-1.033.273-1.853.828-2.47.55-.625 1.29-.938 2.22-.938zm0 0"/></symbol><symbol overflow="visible" id="c"><path d="M.89-6.563H2.08l2.906 5.485v-5.484h.86V0H4.656L1.75-5.484V0H.89zm0 0"/></symbol><symbol overflow="visible" id="d"><path d="M.89-6.563h.876v2.688H5v-2.688h.89V0H5v-3.125H1.766V0H.89zm0 0"/></symbol></defs><g><path fill="#fff" d="M0 0h300v300H0z"/><path d="M35.25 144.586l7.262 9.71" stroke-width="1.2" stroke="#3cc" stroke-miterlimit="10" fill="none"/><path d="M42.512 154.297l7.26 9.71" stroke-width="1.2" stroke="#000" stroke-miterlimit="10" fill="none"/><path d="M29.25 139.086h6v11h-6zm0 0" fill="#fff"/><use xlink:href="#a" x="29.25" y="147.749" fill="#3cc"/><path d="M49.773 164.008l-9.562 22.29M54.063 168.488l-7.65 17.832M73.855 161.145l-24.082 2.863M40.21 186.297l14.524 19.426M54.734 205.723l24.082-2.868M56.47 199.77l19.264-2.293M78.816 202.855l9.563-22.29M88.38 180.566l-14.525-19.42M82.355 182.043l-11.617-15.54M73.855 161.145l9.56-22.29M83.414 138.855l-14.523-19.42M86.53 133.496l-11.616-15.54M107.496 135.992l-24.082 2.863M68.89 119.434l9.563-22.29M78.453 97.145l24.082-2.868M81.535 102.523l19.266-2.293M102.535 94.277l14.524 19.426M117.06 113.703l-9.564 22.29M110.855 113.68l-7.648 17.832M107.496 135.992l14.524 19.422M119.398 154.29l-4.78 11.144" stroke-width="1.2" stroke="#000" stroke-miterlimit="10" fill="none"/><path d="M114.617 165.434l-4.78 11.144" stroke-width="1.2" stroke="#f00" stroke-miterlimit="10" fill="none"/><path d="M124.64 156.54l-4.777 11.144" stroke-width="1.2" stroke="#000" stroke-miterlimit="10" fill="none"/><path d="M119.863 167.684l-4.78 11.144" stroke-width="1.2" stroke="#f00" stroke-miterlimit="10" fill="none"/><path d="M122.02 155.414l12.043-1.434" stroke-width="1.2" stroke="#000" stroke-miterlimit="10" fill="none"/><path d="M134.063 153.98l12.04-1.433" stroke-width="1.2" stroke="#00f" stroke-miterlimit="10" fill="none"/><path d="M104.46 172.203h8v11h-8zm0 0" fill="#fff"/><use xlink:href="#b" x="104.461" y="180.866" fill="#f00"/><path d="M146.102 152.547l4.78-11.145" stroke-width="1.2" stroke="#00f" stroke-miterlimit="10" fill="none"/><path d="M150.883 141.402l4.777-11.14M160.625 171.973l-7.262-9.71" stroke-width="1.2" stroke="#000" stroke-miterlimit="10" fill="none"/><path d="M153.363 162.262l-7.26-9.715" stroke-width="1.2" stroke="#00f" stroke-miterlimit="10" fill="none"/><path d="M143.102 147.047h7v11h-7zm0 0" fill="#fff"/><use xlink:href="#c" x="143.102" y="155.71" fill="#00f"/><path d="M155.66 130.262l24.086-2.867M179.746 127.395l14.52 19.42M194.266 146.816l-9.56 22.29M198.555 151.297l-7.65 17.832M218.418 149.023l-24.152-2.207M184.707 169.105l9.12 7.993" stroke-width="1.2" stroke="#000" stroke-miterlimit="10" fill="none"/><path d="M193.828 177.098l9.12 7.988" stroke-width="1.2" stroke="#00f" stroke-miterlimit="10" fill="none"/><path d="M184.707 169.105l-24.082 2.868" stroke-width="1.2" stroke="#000" stroke-miterlimit="10" fill="none"/><path d="M202.95 185.086l10.417-6.207" stroke-width="1.2" stroke="#00f" stroke-miterlimit="10" fill="none"/><path d="M213.367 178.88l10.418-6.208" stroke-width="1.2" stroke="#000" stroke-miterlimit="10" fill="none"/><path d="M195.95 179.586h14v11h-14zm0 0" fill="#fff"/><g fill="#00f"><use xlink:href="#c" x="195.949" y="188.249"/><use xlink:href="#d" x="202.927" y="188.249"/></g><path d="M223.785 172.672l-5.367-23.65M228.813 169.047l-4.293-18.922M246.95 179.852l-23.165-7.18M218.418 149.023l17.8-16.472M236.22 132.55l23.163 7.177M236.844 138.72l18.535 5.74M259.383 139.727l5.367 23.652M264.75 163.38l-17.8 16.472M259.094 160.836l-14.24 13.18" stroke-width="1.2" stroke="#000" stroke-miterlimit="10" fill="none"/></g></svg>