<svg xmlns="http://www.w3.org/2000/svg" xmlns:xlink="http://www.w3.org/1999/xlink" width="300pt" height="300pt" viewBox="0 0 300 300"><defs><symbol overflow="visible"><path d="M.453 1.594v-7.938h4.5v7.938zm.5-.5h3.5v-6.938h-3.5zm0 0"/></symbol><symbol overflow="visible" id="a"><path d="M.89-6.563h3.766v.75h-2.89v1.938h2.61v.734h-2.61V0H.89zm0 0"/></symbol><symbol overflow="visible" id="b"><path d="M.89-6.563H2.08l2.906 5.485v-5.484h.86V0H4.656L1.75-5.484V0H.89zm0 0"/></symbol><symbol overflow="visible" id="c"><path d="M3.547-5.953c-.65 0-1.164.242-1.547.72-.375.48-.563 1.13-.563 1.952 0 .835.188 1.49.563 1.967.383.48.898.72 1.547.72.644 0 1.156-.24 1.53-.72.376-.476.564-1.132.564-1.968 0-.822-.187-1.474-.562-1.954-.375-.477-.887-.72-1.53-.72zm0-.734c.914 0 1.648.312 2.203.937.55.617.828 1.438.828 2.47 0 1.042-.277 1.87-.828 2.483-.555.617-1.29.922-2.203.922-.93 0-1.668-.305-2.22-.922C.774-1.41.5-2.237.5-3.28c0-1.033.273-1.853.828-2.47.55-.625 1.29-.938 2.22-.938zm0 0"/></symbol><symbol overflow="visible" id="d"><path d="M.89-6.563h.876v2.688H5v-2.688h.89V0H5v-3.125H1.766V0H.89zm0 0"/></symbol><symbol overflow="visible"><path d="M.406 1.422V-5.64h4V1.42zM.844.97h3.11v-6.157H.843zm0 0"/></symbol><symbol overflow="visible" id="e"><path d="M1.53-.672h2.767V0H.594v-.672c.29-.3.695-.71 1.22-1.234.518-.532.842-.867.967-1.016.26-.28.44-.52.533-.72.1-.194.156-.39.156-.577 0-.31-.11-.565-.33-.764-.218-.196-.5-.297-.843-.297-.25 0-.516.046-.797.14-.273.085-.563.214-.875.39v-.797c.32-.133.617-.234.89-.297.282-.062.536-.093.766-.093.603 0 1.083.152 1.44.453.362.304.546.703.546 1.203 0 .24-.047.468-.14.686-.095.22-.26.477-.485.766-.074.074-.288.293-.64.656-.344.356-.836.856-1.47 1.5zm0 0"/></symbol></defs><g><path fill="#fff" d="M0 0h300v300H0z"/><path d="M264.75 199.395l-11.625-3.15" stroke-width="1.2" stroke="#3cc" stroke-miterlimit="10" fill="none"/><path d="M253.125 196.246l-11.625-3.144" stroke-width="1.2" stroke="#000" stroke-miterlimit="10" fill="none"/><path d="M261.75 193.895h6v11h-6zm0 0" fill="#fff"/><use xlink:href="#a" x="261.75" y="202.558" fill="#3cc"/><path d="M241.5 193.102l-17.07 16.992M235.797 190.785l-13.656 13.59M235.324 169.824l6.176 23.278M224.43 210.094l-23.25-6.293M201.18 203.8l-6.176-23.277M206.04 200.02l-4.942-18.622M195.004 180.523l17.07-16.988M195.004 180.523l-23.25-6.29M212.074 163.535l23.25 6.29M212.922 169.633l18.598 5.03M171.754 174.234l-9.375 7.555" stroke-width="1.2" stroke="#000" stroke-miterlimit="10" fill="none"/><path d="M162.38 181.79l-9.38 7.554" stroke-width="1.2" stroke="#00f" stroke-miterlimit="10" fill="none"/><path d="M163.18 151.727l8.574 22.507M158.742 155.996l6.86 18.004" stroke-width="1.2" stroke="#000" stroke-miterlimit="10" fill="none"/><path d="M153 189.344l-10.082-6.582" stroke-width="1.2" stroke="#00f" stroke-miterlimit="10" fill="none"/><path d="M142.918 182.762l-10.082-6.582" stroke-width="1.2" stroke="#000" stroke-miterlimit="10" fill="none"/><path d="M154.082 183.285l-8.066-5.27" stroke-width="1.2" stroke="#00f" stroke-miterlimit="10" fill="none"/><path d="M146.016 178.016l-8.067-5.266" stroke-width="1.2" stroke="#000" stroke-miterlimit="10" fill="none"/><path d="M150 183.844h7v11h-7zm0 0" fill="#fff"/><use xlink:href="#b" x="150" y="192.507" fill="#00f"/><path d="M132.836 176.18l3.144-11.625" stroke-width="1.2" stroke="#000" stroke-miterlimit="10" fill="none"/><path d="M135.98 164.555l3.145-11.625M139.125 152.93l-7.56-9.375" stroke-width="1.2" stroke="#00f" stroke-miterlimit="10" fill="none"/><path d="M131.566 143.555l-7.554-9.38" stroke-width="1.2" stroke="#000" stroke-miterlimit="10" fill="none"/><path d="M139.125 152.93l12.027-.602" stroke-width="1.2" stroke="#00f" stroke-miterlimit="10" fill="none"/><path d="M151.152 152.328l12.028-.6" stroke-width="1.2" stroke="#000" stroke-miterlimit="10" fill="none"/><path d="M136.125 147.43h7v11h-7zm0 0" fill="#fff"/><use xlink:href="#b" x="136.125" y="156.093" fill="#00f"/><path d="M124.012 134.176l-23.797 3.71M100.215 137.887l-8.684 22.465M94.063 138.09l-6.95 17.972M85.105 119.133l15.11 18.754M91.53 160.352l-23.796 3.71M67.734 164.063L52.62 145.31M70.633 158.63l-12.09-15.005M67.734 164.063l-8.687 22.46M52.62 145.31l8.685-22.466M61.305 122.844l23.8-3.71M64.56 128.07l19.038-2.968M56.84 188.3l7.558 9.38" stroke-width="1.2" stroke="#000" stroke-miterlimit="10" fill="none"/><path d="M64.398 197.68l7.555 9.375" stroke-width="1.2" stroke="#f00" stroke-miterlimit="10" fill="none"/><path d="M61.254 184.746l7.555 9.38" stroke-width="1.2" stroke="#000" stroke-miterlimit="10" fill="none"/><path d="M68.81 194.125l7.553 9.375" stroke-width="1.2" stroke="#f00" stroke-miterlimit="10" fill="none"/><path d="M59.047 186.523l-11.9 1.856" stroke-width="1.2" stroke="#000" stroke-miterlimit="10" fill="none"/><path d="M47.148 188.38l-11.898 1.854" stroke-width="1.2" stroke="#00f" stroke-miterlimit="10" fill="none"/><path d="M70.16 199.777h8v11h-8zm0 0" fill="#fff"/><use xlink:href="#c" x="70.16" y="208.44" fill="#f00"/><path d="M16.25 182.234h19v16h-19zm0 0" fill="#fff"/><use xlink:href="#d" x="16.25" y="190.897" fill="#00f"/><use xlink:href="#e" x="23.265" y="195.78" fill="#00f"/><use xlink:href="#b" x="28.215" y="190.897" fill="#00f"/><path d="M163.18 151.727l13.164-20.165M176.344 131.563l12.023.656" stroke-width="1.2" stroke="#000" stroke-miterlimit="10" fill="none"/><path d="M188.367 132.22l12.028.66" stroke-width="1.2" stroke="#00f" stroke-miterlimit="10" fill="none"/><path d="M179.06 126.035l9.62.528" stroke-width="1.2" stroke="#000" stroke-miterlimit="10" fill="none"/><path d="M188.68 126.563l9.617.527" stroke-width="1.2" stroke="#00f" stroke-miterlimit="10" fill="none"/><path d="M165.46 110.074l10.884 21.49" stroke-width="1.2" stroke="#000" stroke-miterlimit="10" fill="none"/><path d="M200.395 132.88l6.582-10.083" stroke-width="1.2" stroke="#00f" stroke-miterlimit="10" fill="none"/><path d="M206.977 122.797l6.582-10.086" stroke-width="1.2" stroke="#000" stroke-miterlimit="10" fill="none"/><path d="M197.395 127.38h7v11h-7zm0 0" fill="#fff"/><use xlink:href="#b" x="197.395" y="136.042" fill="#00f"/><path d="M213.56 112.71l-5.443-10.74" stroke-width="1.2" stroke="#000" stroke-miterlimit="10" fill="none"/><path d="M208.117 101.97l-5.44-10.743" stroke-width="1.2" stroke="#00f" stroke-miterlimit="10" fill="none"/><path d="M207.414 113.125l-4.35-8.594" stroke-width="1.2" stroke="#000" stroke-miterlimit="10" fill="none"/><path d="M203.063 104.53l-4.352-8.596" stroke-width="1.2" stroke="#00f" stroke-miterlimit="10" fill="none"/><path d="M213.56 112.71l12.022.66" stroke-width="1.2" stroke="#000" stroke-miterlimit="10" fill="none"/><path d="M225.582 113.37l12.027.66M202.676 91.227l-12.024-.66" stroke-width="1.2" stroke="#00f" stroke-miterlimit="10" fill="none"/><path d="M190.652 90.566l-12.023-.66" stroke-width="1.2" stroke="#000" stroke-miterlimit="10" fill="none"/><path d="M199.676 85.727h7v11h-7zm0 0" fill="#fff"/><use xlink:href="#b" x="199.676" y="94.39" fill="#00f"/><path d="M178.63 89.906l-13.17 20.168M182.06 95.023l-10.537 16.133" stroke-width="1.2" stroke="#000" stroke-miterlimit="10" fill="none"/><path d="M228.61 106.03h19v16h-19zm0 0" fill="#fff"/><g fill="#00f"><use xlink:href="#b" x="228.609" y="114.694"/><use xlink:href="#d" x="235.587" y="114.694"/></g><use xlink:href="#e" x="242.602" y="119.577" fill="#00f"/></g></svg>