<svg xmlns="http://www.w3.org/2000/svg" xmlns:xlink="http://www.w3.org/1999/xlink" width="300pt" height="300pt" viewBox="0 0 300 300"><defs><symbol overflow="visible"><path d="M.594 2.125V-8.47h6V2.126zm.672-.672h4.671V-7.78h-4.67zm0 0"/></symbol><symbol overflow="visible" id="a"><path d="M4.734-7.953c-.867 0-1.554.324-2.062.97-.5.635-.75 1.51-.75 2.624 0 1.094.25 1.965.75 2.61.508.637 1.195.953 2.062.953.852 0 1.532-.316 2.032-.953.507-.645.765-1.516.765-2.61 0-1.113-.257-1.988-.764-2.624-.5-.645-1.18-.97-2.032-.97zm0-.953c1.22 0 2.192.414 2.922 1.234.74.824 1.11 1.93 1.11 3.313 0 1.376-.37 2.477-1.11 3.298C6.926-.24 5.953.17 4.734.17c-1.23 0-2.214-.41-2.953-1.234C1.04-1.882.673-2.984.673-4.36c0-1.382.367-2.488 1.11-3.312.738-.82 1.722-1.234 2.952-1.234zm0 0"/></symbol><symbol overflow="visible" id="b"><path d="M1.172-8.75h1.594l3.89 7.313V-8.75h1.14V0H6.204L2.328-7.313V0H1.172zm0 0"/></symbol><symbol overflow="visible" id="d"><path d="M1.172-8.75H2.36v3.594h4.296V-8.75h1.188V0H6.656v-4.172H2.36V0H1.17zm0 0"/></symbol><symbol overflow="visible"><path d="M.5 1.766v-8.813h5v8.813zm.563-.547h3.875v-7.704H1.063zm0 0"/></symbol><symbol overflow="visible" id="c"><path d="M4.594-6.266v2.72h2.718v.827H4.595V0H3.78v-2.72H1.064v-.827H3.78v-2.72zm0 0"/></symbol></defs><g><path fill="#fff" d="M0 0h300v300H0z"/><path d="M116.602 97.398l-2.844 14.81" stroke-width="1.2" stroke="#f00" stroke-miterlimit="10" fill="none"/><path d="M113.758 112.207l-2.848 14.813" stroke-width="1.2" stroke="#000" stroke-miterlimit="10" fill="none"/><path d="M123.57 98.738l-2.843 14.81" stroke-width="1.2" stroke="#f00" stroke-miterlimit="10" fill="none"/><path d="M120.727 113.547l-2.848 14.808" stroke-width="1.2" stroke="#000" stroke-miterlimit="10" fill="none"/><path d="M115.086 91.066h10v14h-10zm0 0" fill="#fff"/><use xlink:href="#a" x="115.086" y="102.205" fill="#f00"/><path d="M114.395 127.688L87.09 140.495M135.016 149.7l-20.62-22.012M87.09 140.496l3.738 29.926M80.422 144.367l2.992 23.942M59.297 128.77l27.793 11.726M90.828 170.422l14.813 2.848" stroke-width="1.2" stroke="#000" stroke-miterlimit="10" fill="none"/><path d="M105.64 173.27l14.81 2.843" stroke-width="1.2" stroke="#00f" stroke-miterlimit="10" fill="none"/><path d="M90.828 170.422L66.78 188.63" stroke-width="1.2" stroke="#000" stroke-miterlimit="10" fill="none"/><path d="M120.45 176.113l7.28-13.207" stroke-width="1.2" stroke="#00f" stroke-miterlimit="10" fill="none"/><path d="M127.73 162.906l7.286-13.207" stroke-width="1.2" stroke="#000" stroke-miterlimit="10" fill="none"/><path d="M128.12 176.898l5.825-10.562" stroke-width="1.2" stroke="#00f" stroke-miterlimit="10" fill="none"/><path d="M133.945 166.336l5.828-10.566M136.04 201.934l-7.794-12.91" stroke-width="1.2" stroke="#000" stroke-miterlimit="10" fill="none"/><path d="M128.246 189.023l-7.797-12.91" stroke-width="1.2" stroke="#00f" stroke-miterlimit="10" fill="none"/><path d="M111.45 167.613h18v17h-18zm0 0" fill="#fff"/><use xlink:href="#b" x="111.449" y="181.778" fill="#00f"/><use xlink:href="#c" x="120.426" y="176.896" fill="#00f"/><path d="M135.016 149.7l30.156-.59M165.172 149.11l9.867-11.403" stroke-width="1.2" stroke="#000" stroke-miterlimit="10" fill="none"/><path d="M175.04 137.707l9.866-11.406" stroke-width="1.2" stroke="#00f" stroke-miterlimit="10" fill="none"/><path d="M180.762 174.93l-15.59-25.82M173.125 176.016l-12.473-20.657" stroke-width="1.2" stroke="#000" stroke-miterlimit="10" fill="none"/><path d="M184.906 126.3l13.895 5.864" stroke-width="1.2" stroke="#00f" stroke-miterlimit="10" fill="none"/><path d="M198.8 132.164l13.9 5.863" stroke-width="1.2" stroke="#000" stroke-miterlimit="10" fill="none"/><path d="M175.906 119.3h18v14h-18zm0 0" fill="#fff"/><g fill="#00f"><use xlink:href="#b" x="175.906" y="130.439"/><use xlink:href="#d" x="184.883" y="130.439"/></g><path d="M212.7 138.027l-2.567 30.05M219.512 141.633l-2.05 24.043M240.004 125.22L212.7 138.026M210.133 168.078l-29.37 6.852M210.133 168.078l24.746 17.246M180.762 174.93l-14.567 26.41M166.195 201.34l-30.156.594M163.043 194.305l-24.125.472M234.88 185.324l27.308-12.804M234.598 177.617l21.843-10.246M262.188 172.52l2.562-30.055M264.75 142.465l-24.746-17.246M258.22 146.563l-19.798-13.797M66.78 188.63L38.993 176.9M66.762 180.918l-22.235-9.383M38.992 176.902l-3.742-29.925M35.25 146.977l24.047-18.207M41.938 150.813l19.238-14.563" stroke-width="1.2" stroke="#000" stroke-miterlimit="10" fill="none"/></g></svg>