<svg xmlns="http://www.w3.org/2000/svg" xmlns:xlink="http://www.w3.org/1999/xlink" width="300pt" height="300pt" viewBox="0 0 300 300"><defs><symbol overflow="visible"><path d="M.453 1.594v-7.938h4.5v7.938zm.5-.5h3.5v-6.938h-3.5zm0 0"/></symbol><symbol overflow="visible" id="a"><path d="M4.813-6.344v.86c-.336-.157-.653-.27-.954-.344-.294-.082-.58-.125-.86-.125-.492 0-.867.094-1.125.28-.262.19-.39.454-.39.798 0 .293.085.512.265.656.176.15.504.267.984.36l.547.11c.658.125 1.142.352 1.454.672.32.312.485.734.485 1.265 0 .637-.216 1.122-.642 1.454-.43.325-1.055.485-1.875.485-.312 0-.648-.04-1-.11C1.36-.046 1-.147.625-.296v-.906c.352.2.703.35 1.047.453.35.105.695.156 1.03.156.5 0 .884-.097 1.157-.297.28-.196.42-.485.42-.86 0-.32-.1-.57-.296-.75-.2-.176-.523-.313-.968-.406l-.547-.11C1.81-3.148 1.33-3.36 1.03-3.64.74-3.923.595-4.313.595-4.813c0-.57.203-1.024.61-1.36.405-.344.968-.516 1.687-.516.313 0 .626.032.938.094.32.055.65.137.985.25zm0 0"/></symbol><symbol overflow="visible" id="b"><path d="M.89-6.563h.876v2.688H5v-2.688h.89V0H5v-3.125H1.766V0H.89zm0 0"/></symbol><symbol overflow="visible" id="c"><path d="M3.547-5.953c-.65 0-1.164.242-1.547.72-.375.48-.563 1.13-.563 1.952 0 .835.188 1.49.563 1.967.383.48.898.72 1.547.72.644 0 1.156-.24 1.53-.72.376-.476.564-1.132.564-1.968 0-.822-.187-1.474-.562-1.954-.375-.477-.887-.72-1.53-.72zm0-.734c.914 0 1.648.312 2.203.937.55.617.828 1.438.828 2.47 0 1.042-.277 1.87-.828 2.483-.555.617-1.29.922-2.203.922-.93 0-1.668-.305-2.22-.922C.774-1.41.5-2.237.5-3.28c0-1.033.273-1.853.828-2.47.55-.625 1.29-.938 2.22-.938zm0 0"/></symbol><symbol overflow="visible" id="d"><path d="M.89-6.563H2.08l2.906 5.485v-5.484h.86V0H4.656L1.75-5.484V0H.89zm0 0"/></symbol><symbol overflow="visible" id="e"><path d="M.89-6.563h3.766v.75h-2.89v1.938h2.61v.734h-2.61V0H.89zm0 0"/></symbol></defs><g><path fill="#fff" d="M0 0h300v300H0z"/><path d="M89.648 172.223l-7.984-8.352" stroke-width="1.2" stroke="#cc0" stroke-miterlimit="10" fill="none"/><path d="M81.664 163.87l-7.988-8.35" stroke-width="1.2" stroke="#000" stroke-miterlimit="10" fill="none"/><path d="M89.648 172.223l11.227-2.743" stroke-width="1.2" stroke="#cc0" stroke-miterlimit="10" fill="none"/><path d="M100.875 169.48l11.227-2.742" stroke-width="1.2" stroke="#000" stroke-miterlimit="10" fill="none"/><path d="M86.648 166.723h6v11h-6zm0 0" fill="#fff"/><use xlink:href="#a" x="86.648" y="175.386" fill="#cc0"/><path d="M73.676 155.52l-22.453 5.484M51.223 161.004l-7.985-8.352" stroke-width="1.2" stroke="#000" stroke-miterlimit="10" fill="none"/><path d="M43.238 152.652l-7.988-8.35" stroke-width="1.2" stroke="#f00" stroke-miterlimit="10" fill="none"/><path d="M20.25 138.8h15v11h-15zm0 0" fill="#fff"/><g fill="#f00"><use xlink:href="#b" x="20.25" y="147.464"/><use xlink:href="#c" x="27.265" y="147.464"/></g><path d="M112.102 166.738l8.816 7.47" stroke-width="1.2" stroke="#000" stroke-miterlimit="10" fill="none"/><path d="M120.918 174.207l8.816 7.47M120.86 145.352l-4.38 10.69" stroke-width="1.2" stroke="#00f" stroke-miterlimit="10" fill="none"/><path d="M116.48 156.043l-4.378 10.695" stroke-width="1.2" stroke="#000" stroke-miterlimit="10" fill="none"/><path d="M125.016 149.55l-3.504 8.555" stroke-width="1.2" stroke="#00f" stroke-miterlimit="10" fill="none"/><path d="M121.512 158.105l-3.504 8.555" stroke-width="1.2" stroke="#000" stroke-miterlimit="10" fill="none"/><path d="M129.734 181.676l9.828-6.074" stroke-width="1.2" stroke="#00f" stroke-miterlimit="10" fill="none"/><path d="M139.563 175.602l9.828-6.08" stroke-width="1.2" stroke="#000" stroke-miterlimit="10" fill="none"/><path d="M122.734 176.176h14v11h-14zm0 0" fill="#fff"/><g fill="#00f"><use xlink:href="#d" x="122.734" y="184.839"/><use xlink:href="#b" x="129.712" y="184.839"/></g><path d="M149.39 169.523l-5.484-22.45M143.56 168.57l-4.388-17.96M149.39 169.523l21.387 8.762M143.906 147.074l-11.523-.863" stroke-width="1.2" stroke="#000" stroke-miterlimit="10" fill="none"/><path d="M132.383 146.21l-11.524-.858" stroke-width="1.2" stroke="#00f" stroke-miterlimit="10" fill="none"/><path d="M143.906 147.074l14.942-17.633" stroke-width="1.2" stroke="#000" stroke-miterlimit="10" fill="none"/><path d="M117.86 139.852h7v11h-7zm0 0" fill="#fff"/><use xlink:href="#d" x="117.859" y="148.515" fill="#00f"/><path d="M158.848 129.44l22.742 4.123M162.094 124.504l18.19 3.297M151.047 107.688l7.8 21.753M181.59 133.563l14.937-17.633M196.527 115.93l-3.898-10.875" stroke-width="1.2" stroke="#000" stroke-miterlimit="10" fill="none"/><path d="M192.63 105.055l-3.903-10.88" stroke-width="1.2" stroke="#00f" stroke-miterlimit="10" fill="none"/><path d="M190.63 115.59l-3.118-8.703" stroke-width="1.2" stroke="#000" stroke-miterlimit="10" fill="none"/><path d="M187.512 106.887l-3.12-8.7" stroke-width="1.2" stroke="#00f" stroke-miterlimit="10" fill="none"/><path d="M196.527 115.93l11.37 2.062" stroke-width="1.2" stroke="#000" stroke-miterlimit="10" fill="none"/><path d="M207.898 117.992l11.372 2.063M188.727 94.176l-11.368-2.063" stroke-width="1.2" stroke="#00f" stroke-miterlimit="10" fill="none"/><path d="M177.36 92.113l-11.372-2.058" stroke-width="1.2" stroke="#000" stroke-miterlimit="10" fill="none"/><path d="M185.727 88.676h7v11h-7zm0 0" fill="#fff"/><use xlink:href="#d" x="185.727" y="97.339" fill="#00f"/><path d="M165.988 90.055l-14.94 17.632M168.645 95.332l-11.954 14.106" stroke-width="1.2" stroke="#000" stroke-miterlimit="10" fill="none"/><path d="M219.27 120.055l3.898 10.875" stroke-width="1.2" stroke="#00f" stroke-miterlimit="10" fill="none"/><path d="M223.168 130.93l3.902 10.88" stroke-width="1.2" stroke="#000" stroke-miterlimit="10" fill="none"/><path d="M212.27 114.555h14v11h-14zm0 0" fill="#fff"/><g fill="#00f"><use xlink:href="#d" x="212.27" y="123.218"/><use xlink:href="#b" x="219.247" y="123.218"/></g><path d="M227.07 141.81l22.74 4.12M227.07 141.81l-14.94 17.63M249.81 145.93l7.8 21.754M249.81 145.93l14.94-17.633M170.777 178.285l3.106 22.903M176.477 179.844l2.484 18.32M189.06 164.145l-18.283 14.14M173.883 201.188l21.387 8.757M195.27 209.945l18.28-14.14M193.773 204.23l14.622-11.312M213.55 195.805l10.692 4.38" stroke-width="1.2" stroke="#000" stroke-miterlimit="10" fill="none"/><path d="M224.242 200.184l10.696 4.382" stroke-width="1.2" stroke="#3cc" stroke-miterlimit="10" fill="none"/><path d="M213.55 195.805l-3.105-22.903" stroke-width="1.2" stroke="#000" stroke-miterlimit="10" fill="none"/><path d="M231.938 199.066h6v11h-6zm0 0" fill="#fff"/><use xlink:href="#e" x="231.938" y="207.729" fill="#3cc"/><path d="M210.445 172.902l-21.386-8.757M206.242 177.06l-17.105-7.01" stroke-width="1.2" stroke="#000" stroke-miterlimit="10" fill="none"/></g></svg>