<svg xmlns="http://www.w3.org/2000/svg" xmlns:xlink="http://www.w3.org/1999/xlink" width="300pt" height="300pt" viewBox="0 0 300 300"><defs><symbol overflow="visible"><path d="M.453 1.594v-7.938h4.5v7.938zm.5-.5h3.5v-6.938h-3.5zm0 0"/></symbol><symbol overflow="visible" id="a"><path d="M4.813-6.344v.86c-.336-.157-.653-.27-.954-.344-.294-.082-.58-.125-.86-.125-.492 0-.867.094-1.125.28-.262.19-.39.454-.39.798 0 .293.085.512.265.656.176.15.504.267.984.36l.547.11c.658.125 1.142.352 1.454.672.32.312.485.734.485 1.265 0 .637-.216 1.122-.642 1.454-.43.325-1.055.485-1.875.485-.312 0-.648-.04-1-.11C1.36-.046 1-.147.625-.296v-.906c.352.2.703.35 1.047.453.35.105.695.156 1.03.156.5 0 .884-.097 1.157-.297.28-.196.42-.485.42-.86 0-.32-.1-.57-.296-.75-.2-.176-.523-.313-.968-.406l-.547-.11C1.81-3.148 1.33-3.36 1.03-3.64.74-3.923.595-4.313.595-4.813c0-.57.203-1.024.61-1.36.405-.344.968-.516 1.687-.516.313 0 .626.032.938.094.32.055.65.137.985.25zm0 0"/></symbol><symbol overflow="visible" id="b"><path d="M3.547-5.953c-.65 0-1.164.242-1.547.72-.375.48-.563 1.13-.563 1.952 0 .835.188 1.49.563 1.967.383.48.898.72 1.547.72.644 0 1.156-.24 1.53-.72.376-.476.564-1.132.564-1.968 0-.822-.187-1.474-.562-1.954-.375-.477-.887-.72-1.53-.72zm0-.734c.914 0 1.648.312 2.203.937.55.617.828 1.438.828 2.47 0 1.042-.277 1.87-.828 2.483-.555.617-1.29.922-2.203.922-.93 0-1.668-.305-2.22-.922C.774-1.41.5-2.237.5-3.28c0-1.033.273-1.853.828-2.47.55-.625 1.29-.938 2.22-.938zm0 0"/></symbol><symbol overflow="visible" id="c"><path d="M.89-6.563H2.08l2.906 5.485v-5.484h.86V0H4.656L1.75-5.484V0H.89zm0 0"/></symbol><symbol overflow="visible" id="d"><path d="M.89-6.563h.876v2.688H5v-2.688h.89V0H5v-3.125H1.766V0H.89zm0 0"/></symbol></defs><g><path fill="#fff" d="M0 0h300v300H0z"/><path d="M107.75 122.652l-4.723-10.79" stroke-width="1.2" stroke="#cc0" stroke-miterlimit="10" fill="none"/><path d="M103.027 111.863l-4.722-10.793" stroke-width="1.2" stroke="#f00" stroke-miterlimit="10" fill="none"/><path d="M102.676 124.875l-4.727-10.79" stroke-width="1.2" stroke="#cc0" stroke-miterlimit="10" fill="none"/><path d="M97.95 114.086l-4.723-10.793" stroke-width="1.2" stroke="#f00" stroke-miterlimit="10" fill="none"/><path d="M102.676 124.875l4.722 10.793" stroke-width="1.2" stroke="#cc0" stroke-miterlimit="10" fill="none"/><path d="M107.398 135.668l4.723 10.79" stroke-width="1.2" stroke="#f00" stroke-miterlimit="10" fill="none"/><path d="M107.75 122.652l4.727 10.79" stroke-width="1.2" stroke="#cc0" stroke-miterlimit="10" fill="none"/><path d="M112.477 133.44l4.722 10.794" stroke-width="1.2" stroke="#f00" stroke-miterlimit="10" fill="none"/><path d="M105.215 123.766l-10.793 4.722" stroke-width="1.2" stroke="#cc0" stroke-miterlimit="10" fill="none"/><path d="M94.422 128.488l-10.79 4.723" stroke-width="1.2" stroke="#00f" stroke-miterlimit="10" fill="none"/><path d="M105.215 123.766l10.79-4.727" stroke-width="1.2" stroke="#cc0" stroke-miterlimit="10" fill="none"/><path d="M116.004 119.04l10.79-4.724" stroke-width="1.2" stroke="#000" stroke-miterlimit="10" fill="none"/><path d="M102.215 118.266h6v11h-6zm0 0" fill="#fff"/><use xlink:href="#a" x="102.215" y="126.929" fill="#cc0"/><path d="M87.766 96.684h8v11h-8zm0 0" fill="#fff"/><use xlink:href="#b" x="87.766" y="105.347" fill="#f00"/><path d="M110.66 139.844h8v11h-8zm0 0" fill="#fff"/><use xlink:href="#b" x="110.66" y="148.507" fill="#f00"/><path d="M83.633 133.21l-1.305 11.708" stroke-width="1.2" stroke="#00f" stroke-miterlimit="10" fill="none"/><path d="M82.328 144.918l-1.305 11.707" stroke-width="1.2" stroke="#000" stroke-miterlimit="10" fill="none"/><path d="M76.633 127.71h14v11h-14zm0 0" fill="#fff"/><g fill="#00f"><use xlink:href="#c" x="76.633" y="136.374"/><use xlink:href="#d" x="83.61" y="136.374"/></g><path d="M81.023 156.625l-21.582 9.45M59.44 166.074l-1.303 11.707" stroke-width="1.2" stroke="#000" stroke-miterlimit="10" fill="none"/><path d="M58.137 177.78l-1.305 11.708M56.832 189.488L46.04 194.21" stroke-width="1.2" stroke="#f00" stroke-miterlimit="10" fill="none"/><path d="M46.04 194.21l-10.79 4.724" stroke-width="1.2" stroke="#000" stroke-miterlimit="10" fill="none"/><path d="M52.832 183.988h8v11h-8zm0 0" fill="#fff"/><use xlink:href="#b" x="52.832" y="192.651" fill="#f00"/><path d="M126.793 114.316l2.61-23.414M132.566 112.59l2.086-18.73M145.766 128.28l-18.973-13.964M129.402 90.902l21.582-9.45M150.984 81.453l18.973 13.97M149.598 87.316l15.175 11.172M169.957 95.422L180.75 90.7" stroke-width="1.2" stroke="#000" stroke-miterlimit="10" fill="none"/><path d="M180.75 90.7l10.79-4.727" stroke-width="1.2" stroke="#00f" stroke-miterlimit="10" fill="none"/><path d="M169.957 95.422l-2.61 23.414" stroke-width="1.2" stroke="#000" stroke-miterlimit="10" fill="none"/><path d="M191.54 85.973l9.487 6.984" stroke-width="1.2" stroke="#00f" stroke-miterlimit="10" fill="none"/><path d="M201.027 92.957l9.485 6.984" stroke-width="1.2" stroke="#000" stroke-miterlimit="10" fill="none"/><path d="M184.54 80.473h14v11h-14zm0 0" fill="#fff"/><g fill="#00f"><use xlink:href="#c" x="184.539" y="89.136"/><use xlink:href="#d" x="191.517" y="89.136"/></g><path d="M210.512 99.94l-1.305 11.708" stroke-width="1.2" stroke="#000" stroke-miterlimit="10" fill="none"/><path d="M209.207 111.648l-1.305 11.707" stroke-width="1.2" stroke="#00f" stroke-miterlimit="10" fill="none"/><path d="M215.762 102.895l-1.043 9.367" stroke-width="1.2" stroke="#000" stroke-miterlimit="10" fill="none"/><path d="M214.72 112.262l-1.048 9.363M232.094 90.492l-10.79 4.723" stroke-width="1.2" stroke="#00f" stroke-miterlimit="10" fill="none"/><path d="M221.305 95.215l-10.793 4.726" stroke-width="1.2" stroke="#000" stroke-miterlimit="10" fill="none"/><path d="M207.902 123.355l9.49 6.98" stroke-width="1.2" stroke="#00f" stroke-miterlimit="10" fill="none"/><path d="M217.39 130.336l9.485 6.984" stroke-width="1.2" stroke="#000" stroke-miterlimit="10" fill="none"/><path d="M204.902 117.855h7v11h-7zm0 0" fill="#fff"/><use xlink:href="#c" x="204.902" y="126.519" fill="#00f"/><path d="M226.875 137.32l21.582-9.45M226.813 131.297l17.265-7.56M226.875 137.32l-2.61 23.414M248.457 127.87l2.61-23.413M251.066 104.457l-9.484-6.98" stroke-width="1.2" stroke="#000" stroke-miterlimit="10" fill="none"/><path d="M241.582 97.477l-9.488-6.985" stroke-width="1.2" stroke="#00f" stroke-miterlimit="10" fill="none"/><path d="M245.883 107.527l-7.59-5.586" stroke-width="1.2" stroke="#000" stroke-miterlimit="10" fill="none"/><path d="M238.293 101.94l-7.59-5.588" stroke-width="1.2" stroke="#00f" stroke-miterlimit="10" fill="none"/><path d="M229.094 84.992h7v11h-7zm0 0" fill="#fff"/><use xlink:href="#c" x="229.094" y="93.655" fill="#00f"/><path d="M224.266 160.734l8.707 7.938" stroke-width="1.2" stroke="#000" stroke-miterlimit="10" fill="none"/><path d="M232.973 168.672l8.703 7.937" stroke-width="1.2" stroke="#00f" stroke-miterlimit="10" fill="none"/><path d="M203.79 172.387l20.476-11.653M208.582 176.04l16.38-9.32" stroke-width="1.2" stroke="#000" stroke-miterlimit="10" fill="none"/><path d="M241.676 176.61l11.535-2.38" stroke-width="1.2" stroke="#00f" stroke-miterlimit="10" fill="none"/><path d="M253.21 174.23l11.54-2.375" stroke-width="1.2" stroke="#000" stroke-miterlimit="10" fill="none"/><path d="M241.676 176.61l-4.86 10.73" stroke-width="1.2" stroke="#00f" stroke-miterlimit="10" fill="none"/><path d="M236.816 187.34l-4.855 10.73" stroke-width="1.2" stroke="#000" stroke-miterlimit="10" fill="none"/><path d="M238.676 171.11h7v11h-7zm0 0" fill="#fff"/><use xlink:href="#c" x="238.676" y="179.772" fill="#00f"/><path d="M231.96 198.07l-11.706-1.304" stroke-width="1.2" stroke="#000" stroke-miterlimit="10" fill="none"/><path d="M220.254 196.766l-11.707-1.305" stroke-width="1.2" stroke="#00f" stroke-miterlimit="10" fill="none"/><path d="M230.23 192.3l-9.363-1.046" stroke-width="1.2" stroke="#000" stroke-miterlimit="10" fill="none"/><path d="M220.867 191.254l-9.367-1.043" stroke-width="1.2" stroke="#00f" stroke-miterlimit="10" fill="none"/><path d="M231.96 198.07l11.65 20.477" stroke-width="1.2" stroke="#000" stroke-miterlimit="10" fill="none"/><path d="M208.547 195.46l-2.38-11.538" stroke-width="1.2" stroke="#00f" stroke-miterlimit="10" fill="none"/><path d="M206.168 183.922l-2.38-11.535" stroke-width="1.2" stroke="#000" stroke-miterlimit="10" fill="none"/><path d="M205.547 189.96h7v11h-7zm0 0" fill="#fff"/><use xlink:href="#c" x="205.547" y="198.624" fill="#00f"/><path d="M203.79 172.387l-21.462-9.72M167.348 118.836l-21.582 9.445M162.97 114.703l-17.267 7.56" stroke-width="1.2" stroke="#000" stroke-miterlimit="10" fill="none"/></g></svg>