<svg xmlns="http://www.w3.org/2000/svg" xmlns:xlink="http://www.w3.org/1999/xlink" width="300pt" height="300pt" viewBox="0 0 300 300"><defs><symbol overflow="visible"><path d="M.453 1.594v-7.938h4.5v7.938zm.5-.5h3.5v-6.938h-3.5zm0 0"/></symbol><symbol overflow="visible" id="a"><path d="M4.813-6.344v.86c-.336-.157-.653-.27-.954-.344-.294-.082-.58-.125-.86-.125-.492 0-.867.094-1.125.28-.262.19-.39.454-.39.798 0 .293.085.512.265.656.176.15.504.267.984.36l.547.11c.658.125 1.142.352 1.454.672.32.312.485.734.485 1.265 0 .637-.216 1.122-.642 1.454-.43.325-1.055.485-1.875.485-.312 0-.648-.04-1-.11C1.36-.046 1-.147.625-.296v-.906c.352.2.703.35 1.047.453.35.105.695.156 1.03.156.5 0 .884-.097 1.157-.297.28-.196.42-.485.42-.86 0-.32-.1-.57-.296-.75-.2-.176-.523-.313-.968-.406l-.547-.11C1.81-3.148 1.33-3.36 1.03-3.64.74-3.923.595-4.313.595-4.813c0-.57.203-1.024.61-1.36.405-.344.968-.516 1.687-.516.313 0 .626.032.938.094.32.055.65.137.985.25zm0 0"/></symbol><symbol overflow="visible" id="b"><path d="M.89-6.563h.876v2.688H5v-2.688h.89V0H5v-3.125H1.766V0H.89zm0 0"/></symbol><symbol overflow="visible" id="c"><path d="M3.547-5.953c-.65 0-1.164.242-1.547.72-.375.48-.563 1.13-.563 1.952 0 .835.188 1.49.563 1.967.383.48.898.72 1.547.72.644 0 1.156-.24 1.53-.72.376-.476.564-1.132.564-1.968 0-.822-.187-1.474-.562-1.954-.375-.477-.887-.72-1.53-.72zm0-.734c.914 0 1.648.312 2.203.937.55.617.828 1.438.828 2.47 0 1.042-.277 1.87-.828 2.483-.555.617-1.29.922-2.203.922-.93 0-1.668-.305-2.22-.922C.774-1.41.5-2.237.5-3.28c0-1.033.273-1.853.828-2.47.55-.625 1.29-.938 2.22-.938zm0 0"/></symbol><symbol overflow="visible" id="d"><path d="M.89-6.563H2.08l2.906 5.485v-5.484h.86V0H4.656L1.75-5.484V0H.89zm0 0"/></symbol><symbol overflow="visible" id="e"><path d="M.89-6.563h3.766v.75h-2.89v1.938h2.61v.734h-2.61V0H.89zm0 0"/></symbol></defs><g><path fill="#fff" d="M0 0h300v300H0z"/><path d="M103.484 165.11l-7.3-8.915" stroke-width="1.2" stroke="#cc0" stroke-miterlimit="10" fill="none"/><path d="M96.184 156.195l-7.3-8.918" stroke-width="1.2" stroke="#000" stroke-miterlimit="10" fill="none"/><path d="M103.484 165.11l11.37-1.864" stroke-width="1.2" stroke="#cc0" stroke-miterlimit="10" fill="none"/><path d="M114.855 163.246l11.372-1.863" stroke-width="1.2" stroke="#000" stroke-miterlimit="10" fill="none"/><path d="M100.484 159.61h6v11h-6zm0 0" fill="#fff"/><use xlink:href="#a" x="100.484" y="168.272" fill="#cc0"/><path d="M88.883 147.277l-22.746 3.73M66.137 151.008l-7.3-8.918" stroke-width="1.2" stroke="#000" stroke-miterlimit="10" fill="none"/><path d="M58.836 142.09l-7.3-8.914" stroke-width="1.2" stroke="#f00" stroke-miterlimit="10" fill="none"/><path d="M66.137 151.008l-8.14 21.558" stroke-width="1.2" stroke="#000" stroke-miterlimit="10" fill="none"/><path d="M36.535 127.676h15v11h-15zm0 0" fill="#fff"/><g fill="#f00"><use xlink:href="#b" x="36.535" y="136.339"/><use xlink:href="#c" x="43.55" y="136.339"/></g><path d="M57.996 172.566l-11.375 1.868" stroke-width="1.2" stroke="#000" stroke-miterlimit="10" fill="none"/><path d="M46.62 174.434l-11.37 1.863" stroke-width="1.2" stroke="#f00" stroke-miterlimit="10" fill="none"/><path d="M20.25 170.797h15v11h-15zm0 0" fill="#fff"/><g fill="#f00"><use xlink:href="#b" x="20.25" y="179.46"/><use xlink:href="#c" x="27.265" y="179.46"/></g><path d="M126.227 161.383l8.195 8.1" stroke-width="1.2" stroke="#000" stroke-miterlimit="10" fill="none"/><path d="M134.422 169.484l8.19 8.106M136.578 140.79l-5.176 10.296" stroke-width="1.2" stroke="#00f" stroke-miterlimit="10" fill="none"/><path d="M131.402 151.086l-5.175 10.297" stroke-width="1.2" stroke="#000" stroke-miterlimit="10" fill="none"/><path d="M140.39 145.285l-4.14 8.235" stroke-width="1.2" stroke="#00f" stroke-miterlimit="10" fill="none"/><path d="M136.25 153.52l-4.14 8.238" stroke-width="1.2" stroke="#000" stroke-miterlimit="10" fill="none"/><path d="M142.613 177.59l10.24-5.285" stroke-width="1.2" stroke="#00f" stroke-miterlimit="10" fill="none"/><path d="M152.852 172.305l10.238-5.29" stroke-width="1.2" stroke="#000" stroke-miterlimit="10" fill="none"/><path d="M135.613 172.09h14v11h-14zm0 0" fill="#fff"/><g fill="#00f"><use xlink:href="#d" x="135.613" y="180.753"/><use xlink:href="#b" x="142.591" y="180.753"/></g><path d="M163.09 167.016l-3.727-22.746M157.367 165.617l-2.984-18.195M163.09 167.016l20.594 10.35M159.363 144.27l-11.39-1.74" stroke-width="1.2" stroke="#000" stroke-miterlimit="10" fill="none"/><path d="M147.973 142.53l-11.395-1.74" stroke-width="1.2" stroke="#00f" stroke-miterlimit="10" fill="none"/><path d="M159.363 144.27l16.207-16.383" stroke-width="1.2" stroke="#000" stroke-miterlimit="10" fill="none"/><path d="M133.578 135.29h7v11h-7zm0 0" fill="#fff"/><use xlink:href="#d" x="133.578" y="143.952" fill="#00f"/><path d="M175.57 127.887l22.297 5.843M179.176 123.227l17.836 4.67M169.484 105.656l6.086 22.23M197.867 133.73l16.207-16.386M214.074 117.344l-3.043-11.114" stroke-width="1.2" stroke="#000" stroke-miterlimit="10" fill="none"/><path d="M211.03 106.23l-3.042-11.117" stroke-width="1.2" stroke="#00f" stroke-miterlimit="10" fill="none"/><path d="M208.234 116.555l-2.433-8.895" stroke-width="1.2" stroke="#000" stroke-miterlimit="10" fill="none"/><path d="M205.8 107.66l-2.433-8.89" stroke-width="1.2" stroke="#00f" stroke-miterlimit="10" fill="none"/><path d="M214.074 117.344l11.15 2.922" stroke-width="1.2" stroke="#000" stroke-miterlimit="10" fill="none"/><path d="M225.223 120.266l11.148 2.925M207.988 95.113l-11.144-2.922" stroke-width="1.2" stroke="#00f" stroke-miterlimit="10" fill="none"/><path d="M196.844 92.19l-11.15-2.92" stroke-width="1.2" stroke="#000" stroke-miterlimit="10" fill="none"/><path d="M204.988 89.613h7v11h-7zm0 0" fill="#fff"/><use xlink:href="#d" x="204.988" y="98.276" fill="#00f"/><path d="M185.695 89.27l-16.21 16.386M187.93 94.723l-12.97 13.11" stroke-width="1.2" stroke="#000" stroke-miterlimit="10" fill="none"/><path d="M236.37 123.19l3.044 11.115" stroke-width="1.2" stroke="#00f" stroke-miterlimit="10" fill="none"/><path d="M239.414 134.305l3.043 11.113" stroke-width="1.2" stroke="#000" stroke-miterlimit="10" fill="none"/><path d="M229.37 117.69h14v11h-14zm0 0" fill="#fff"/><g fill="#00f"><use xlink:href="#d" x="229.371" y="126.354"/><use xlink:href="#b" x="236.349" y="126.354"/></g><path d="M242.457 145.418l22.293 5.848M242.457 145.418l-16.21 16.387M183.684 177.367l1.332 23.012M189.23 179.355l1.067 18.407M202.945 164.71l-19.26 12.657M185.016 200.38l20.59 10.35M205.605 210.73l19.262-12.66M204.555 204.93l15.41-10.125M224.867 198.07l10.297 5.18" stroke-width="1.2" stroke="#000" stroke-miterlimit="10" fill="none"/><path d="M235.164 203.25l10.297 5.176" stroke-width="1.2" stroke="#3cc" stroke-miterlimit="10" fill="none"/><path d="M224.867 198.07l-1.328-23.007" stroke-width="1.2" stroke="#000" stroke-miterlimit="10" fill="none"/><path d="M242.46 202.926h6v11h-6zm0 0" fill="#fff"/><use xlink:href="#e" x="242.461" y="211.589" fill="#3cc"/><path d="M223.54 175.063l-20.595-10.352M219.043 178.87l-16.473-8.28" stroke-width="1.2" stroke="#000" stroke-miterlimit="10" fill="none"/></g></svg>