<svg xmlns="http://www.w3.org/2000/svg" xmlns:xlink="http://www.w3.org/1999/xlink" width="300pt" height="300pt" viewBox="0 0 300 300"><defs><symbol overflow="visible"><path d="M.453 1.594v-7.938h4.5v7.938zm.5-.5h3.5v-6.938h-3.5zm0 0"/></symbol><symbol overflow="visible" id="a"><path d="M3.547-5.953c-.65 0-1.164.242-1.547.72-.375.48-.563 1.13-.563 1.952 0 .835.188 1.49.563 1.967.383.48.898.72 1.547.72.644 0 1.156-.24 1.53-.72.376-.476.564-1.132.564-1.968 0-.822-.187-1.474-.562-1.954-.375-.477-.887-.72-1.53-.72zm0-.734c.914 0 1.648.312 2.203.937.55.617.828 1.438.828 2.47 0 1.042-.277 1.87-.828 2.483-.555.617-1.29.922-2.203.922-.93 0-1.668-.305-2.22-.922C.774-1.41.5-2.237.5-3.28c0-1.033.273-1.853.828-2.47.55-.625 1.29-.938 2.22-.938zm0 0"/></symbol><symbol overflow="visible" id="b"><path d="M.89-6.563h.876v2.688H5v-2.688h.89V0H5v-3.125H1.766V0H.89zm0 0"/></symbol><symbol overflow="visible" id="c"><path d="M.89-6.563H2.08l2.906 5.485v-5.484h.86V0H4.656L1.75-5.484V0H.89zm0 0"/></symbol></defs><g><path fill="#fff" d="M0 0h300v300H0z"/><path d="M53.258 158.06l-9.004-7.466" stroke-width="1.2" stroke="#f00" stroke-miterlimit="10" fill="none"/><path d="M44.254 150.594l-9.004-7.465" stroke-width="1.2" stroke="#000" stroke-miterlimit="10" fill="none"/><path d="M53.258 158.06l10.97-4.068" stroke-width="1.2" stroke="#f00" stroke-miterlimit="10" fill="none"/><path d="M64.227 153.992l10.964-4.066" stroke-width="1.2" stroke="#000" stroke-miterlimit="10" fill="none"/><path d="M49.258 152.56h8v11h-8zm0 0" fill="#fff"/><use xlink:href="#a" x="49.258" y="161.222" fill="#f00"/><path d="M75.19 149.926l3.927-23.06M81.012 148.543l3.14-18.445M93.203 164.86L75.19 149.925M79.117 126.867l21.938-8.133M101.055 118.734l18.007 14.93M99.34 124.465l14.406 11.945M119.063 133.664l-3.926 23.063M119.063 133.664l21.933-8.13M115.137 156.727l-21.934 8.132M111.027 152.38l-17.547 6.503M93.203 164.86l-1.965 11.527" stroke-width="1.2" stroke="#000" stroke-miterlimit="10" fill="none"/><path d="M91.238 176.387l-1.965 11.53" stroke-width="1.2" stroke="#f00" stroke-miterlimit="10" fill="none"/><path d="M82.273 182.418h15v11h-15zm0 0" fill="#fff"/><g fill="#f00"><use xlink:href="#b" x="82.273" y="191.081"/><use xlink:href="#a" x="89.288" y="191.081"/></g><path d="M140.996 125.535L150 133" stroke-width="1.2" stroke="#000" stroke-miterlimit="10" fill="none"/><path d="M150 133l9.004 7.465M159.004 140.465l10.97-4.063" stroke-width="1.2" stroke="#00f" stroke-miterlimit="10" fill="none"/><path d="M169.973 136.402l10.964-4.066" stroke-width="1.2" stroke="#000" stroke-miterlimit="10" fill="none"/><path d="M152.004 134.965h14v11h-14zm0 0" fill="#fff"/><g fill="#00f"><use xlink:href="#c" x="152.004" y="143.628"/><use xlink:href="#b" x="158.981" y="143.628"/></g><path d="M180.938 132.336l18.007 14.93M179.227 138.066l14.406 11.942M198.945 147.266l21.938-8.13M198.945 147.266l-3.925 23.062M220.883 139.137l18.008 14.93M224.81 116.074l-3.927 23.063M229.84 119.305l-3.14 18.45M238.89 154.066l21.934-8.132M239.172 148.09l17.547-6.504M238.89 154.066l-3.925 23.06M260.824 145.934l3.926-23.06M264.75 122.875l-18.008-14.934M259.438 125.617l-14.407-11.945M246.742 107.94l-21.933 8.134M233.207 179.246l9.004 7.465" stroke-width="1.2" stroke="#000" stroke-miterlimit="10" fill="none"/><path d="M242.21 186.71l9.005 7.466" stroke-width="1.2" stroke="#f00" stroke-miterlimit="10" fill="none"/><path d="M236.72 175.008l9.007 7.465" stroke-width="1.2" stroke="#000" stroke-miterlimit="10" fill="none"/><path d="M245.727 182.473l9.003 7.464" stroke-width="1.2" stroke="#f00" stroke-miterlimit="10" fill="none"/><path d="M234.965 177.125l-10.97 4.066" stroke-width="1.2" stroke="#000" stroke-miterlimit="10" fill="none"/><path d="M223.996 181.19l-10.965 4.068" stroke-width="1.2" stroke="#00f" stroke-miterlimit="10" fill="none"/><path d="M248.973 186.56h8v11h-8zm0 0" fill="#fff"/><use xlink:href="#a" x="248.973" y="195.222" fill="#f00"/><path d="M213.03 185.258l-9.007-7.465" stroke-width="1.2" stroke="#00f" stroke-miterlimit="10" fill="none"/><path d="M204.023 177.793l-9.003-7.465" stroke-width="1.2" stroke="#000" stroke-miterlimit="10" fill="none"/><path d="M206.03 179.758h14v11h-14zm0 0" fill="#fff"/><g fill="#00f"><use xlink:href="#c" x="206.031" y="188.421"/><use xlink:href="#b" x="213.009" y="188.421"/></g><path d="M194.066 167.746l-10.968 4.066" stroke-width="1.2" stroke="#000" stroke-miterlimit="10" fill="none"/><path d="M183.098 171.813l-10.97 4.062" stroke-width="1.2" stroke="#f00" stroke-miterlimit="10" fill="none"/><path d="M195.977 172.906l-10.965 4.067" stroke-width="1.2" stroke="#000" stroke-miterlimit="10" fill="none"/><path d="M185.012 176.973l-10.97 4.066" stroke-width="1.2" stroke="#f00" stroke-miterlimit="10" fill="none"/><path d="M165.086 172.957h8v11h-8zm0 0" fill="#fff"/><use xlink:href="#a" x="165.086" y="181.62" fill="#f00"/></g></svg>