<svg xmlns="http://www.w3.org/2000/svg" xmlns:xlink="http://www.w3.org/1999/xlink" width="300pt" height="300pt" viewBox="0 0 300 300"><defs><symbol overflow="visible"><path d="M.453 1.594v-7.938h4.5v7.938zm.5-.5h3.5v-6.938h-3.5zm0 0"/></symbol><symbol overflow="visible" id="a"><path d="M3.547-5.953c-.65 0-1.164.242-1.547.72-.375.48-.563 1.13-.563 1.952 0 .835.188 1.49.563 1.967.383.48.898.72 1.547.72.644 0 1.156-.24 1.53-.72.376-.476.564-1.132.564-1.968 0-.822-.187-1.474-.562-1.954-.375-.477-.887-.72-1.53-.72zm0-.734c.914 0 1.648.312 2.203.937.55.617.828 1.438.828 2.47 0 1.042-.277 1.87-.828 2.483-.555.617-1.29.922-2.203.922-.93 0-1.668-.305-2.22-.922C.774-1.41.5-2.237.5-3.28c0-1.033.273-1.853.828-2.47.55-.625 1.29-.938 2.22-.938zm0 0"/></symbol><symbol overflow="visible" id="b"><path d="M.89-6.563H2.08l2.906 5.485v-5.484h.86V0H4.656L1.75-5.484V0H.89zm0 0"/></symbol><symbol overflow="visible" id="c"><path d="M.89-6.563h.876v2.688H5v-2.688h.89V0H5v-3.125H1.766V0H.89zm0 0"/></symbol></defs><g><path fill="#fff" d="M0 0h300v300H0z"/><path d="M39.316 166.48l10.028 1.122" stroke-width="1.2" stroke="#f00" stroke-miterlimit="10" fill="none"/><path d="M49.344 167.602l10.03 1.117M35.25 146.715l2.035 9.883" stroke-width="1.2" stroke="#000" stroke-miterlimit="10" fill="none"/><path d="M37.285 156.598l2.03 9.882" stroke-width="1.2" stroke="#f00" stroke-miterlimit="10" fill="none"/><path d="M35.316 160.98h8v11h-8zm0 0" fill="#fff"/><use xlink:href="#a" x="35.316" y="169.644" fill="#f00"/><path d="M59.375 168.72l8.324-18.38M55.883 164.922l6.66-14.703M67.7 150.34l-14.907-13.602M67.7 150.34l19.77-4.07M52.793 136.738l-17.543 9.977M53.387 141.863l-14.035 7.98M87.47 146.27l13.405 15.085M92.355 144.625l10.727 12.066M93.828 127.117l-6.36 19.153M100.875 161.355l9.883-2.035" stroke-width="1.2" stroke="#000" stroke-miterlimit="10" fill="none"/><path d="M110.758 159.32l9.883-2.03M120.64 157.29l3.18-9.58" stroke-width="1.2" stroke="#00f" stroke-miterlimit="10" fill="none"/><path d="M123.82 147.71l3.18-9.573" stroke-width="1.2" stroke="#000" stroke-miterlimit="10" fill="none"/><path d="M116.77 153.875l2.543-7.66" stroke-width="1.2" stroke="#00f" stroke-miterlimit="10" fill="none"/><path d="M119.313 146.215l2.546-7.66" stroke-width="1.2" stroke="#000" stroke-miterlimit="10" fill="none"/><path d="M117.64 151.79h7v11h-7zm0 0" fill="#fff"/><use xlink:href="#b" x="117.641" y="160.452" fill="#00f"/><path d="M127 138.137l-13.406-15.086M127 138.137l19.766-4.07M113.594 123.05l-19.766 4.067M112.574 128.11l-15.812 3.253M93.828 127.117l-6.703-7.54" stroke-width="1.2" stroke="#000" stroke-miterlimit="10" fill="none"/><path d="M87.125 119.578l-6.703-7.543" stroke-width="1.2" stroke="#f00" stroke-miterlimit="10" fill="none"/><path d="M65.422 106.535h15v11h-15zm0 0" fill="#fff"/><g fill="#f00"><use xlink:href="#c" x="65.422" y="115.198"/><use xlink:href="#a" x="72.437" y="115.198"/></g><path d="M146.766 134.066l6.703 7.543" stroke-width="1.2" stroke="#000" stroke-miterlimit="10" fill="none"/><path d="M153.47 141.61l6.702 7.542M160.172 149.152l9.883-2.035" stroke-width="1.2" stroke="#00f" stroke-miterlimit="10" fill="none"/><path d="M170.055 147.117l9.882-2.03" stroke-width="1.2" stroke="#000" stroke-miterlimit="10" fill="none"/><path d="M153.172 143.652h14v11h-14zm0 0" fill="#fff"/><g fill="#00f"><use xlink:href="#b" x="153.172" y="152.315"/><use xlink:href="#c" x="160.149" y="152.315"/></g><path d="M179.938 145.086l13.406 15.082M177.73 149.746l10.723 12.07M193.344 160.168l19.765-4.066M193.344 160.168l-6.36 19.152M213.11 156.102l13.406 15.085M219.473 136.95L213.11 156.1M223.34 140.36l-5.086 15.324M226.516 171.188l19.765-4.07M227.535 166.13l15.813-3.255M226.516 171.188l-6.36 19.148M246.28 167.117l6.365-19.152M252.645 147.965l-13.407-15.082M247.754 149.613l-10.727-12.07M239.238 132.883l-19.765 4.066M239.238 132.883l6.36-19.153M245.598 113.73l19.152 6.36M245.598 113.73l-19.153-6.36M245.598 113.73l6.36-19.152M218.383 191.914l6.703 7.543" stroke-width="1.2" stroke="#000" stroke-miterlimit="10" fill="none"/><path d="M225.086 199.457L231.79 207" stroke-width="1.2" stroke="#f00" stroke-miterlimit="10" fill="none"/><path d="M221.93 188.762l6.703 7.54" stroke-width="1.2" stroke="#000" stroke-miterlimit="10" fill="none"/><path d="M228.633 196.3l6.703 7.544" stroke-width="1.2" stroke="#f00" stroke-miterlimit="10" fill="none"/><path d="M220.156 190.336l-9.883 2.035" stroke-width="1.2" stroke="#000" stroke-miterlimit="10" fill="none"/><path d="M210.273 192.37l-9.882 2.036" stroke-width="1.2" stroke="#00f" stroke-miterlimit="10" fill="none"/><path d="M229.563 199.922h8v11h-8zm0 0" fill="#fff"/><use xlink:href="#a" x="229.563" y="208.585" fill="#f00"/><path d="M200.39 194.406l-6.702-7.543" stroke-width="1.2" stroke="#00f" stroke-miterlimit="10" fill="none"/><path d="M193.688 186.863l-6.704-7.543" stroke-width="1.2" stroke="#000" stroke-miterlimit="10" fill="none"/><path d="M193.39 188.906h14v11h-14zm0 0" fill="#fff"/><g fill="#00f"><use xlink:href="#b" x="193.391" y="197.569"/><use xlink:href="#c" x="200.368" y="197.569"/></g><path d="M186.504 176.996l-9.883 2.03" stroke-width="1.2" stroke="#000" stroke-miterlimit="10" fill="none"/><path d="M176.62 179.027l-9.882 2.036" stroke-width="1.2" stroke="#f00" stroke-miterlimit="10" fill="none"/><path d="M187.46 181.645l-9.882 2.035" stroke-width="1.2" stroke="#000" stroke-miterlimit="10" fill="none"/><path d="M177.578 183.68l-9.883 2.035" stroke-width="1.2" stroke="#f00" stroke-miterlimit="10" fill="none"/><path d="M159.22 177.887h8v11h-8zm0 0" fill="#fff"/><use xlink:href="#a" x="159.219" y="186.55" fill="#f00"/></g></svg>