<svg xmlns="http://www.w3.org/2000/svg" xmlns:xlink="http://www.w3.org/1999/xlink" width="300pt" height="300pt" viewBox="0 0 300 300"><defs><symbol overflow="visible"><path d="M.453 1.594v-7.938h4.5v7.938zm.5-.5h3.5v-6.938h-3.5zm0 0"/></symbol><symbol overflow="visible" id="a"><path d="M.89-6.563h.876v2.688H5v-2.688h.89V0H5v-3.125H1.766V0H.89zm0 0"/></symbol><symbol overflow="visible" id="b"><path d="M3.547-5.953c-.65 0-1.164.242-1.547.72-.375.48-.563 1.13-.563 1.952 0 .835.188 1.49.563 1.967.383.48.898.72 1.547.72.644 0 1.156-.24 1.53-.72.376-.476.564-1.132.564-1.968 0-.822-.187-1.474-.562-1.954-.375-.477-.887-.72-1.53-.72zm0-.734c.914 0 1.648.312 2.203.937.55.617.828 1.438.828 2.47 0 1.042-.277 1.87-.828 2.483-.555.617-1.29.922-2.203.922-.93 0-1.668-.305-2.22-.922C.774-1.41.5-2.237.5-3.28c0-1.033.273-1.853.828-2.47.55-.625 1.29-.938 2.22-.938zm0 0"/></symbol><symbol overflow="visible" id="c"><path d="M.89-6.563H2.08l2.906 5.485v-5.484h.86V0H4.656L1.75-5.484V0H.89zm0 0"/></symbol></defs><g><path fill="#fff" d="M0 0h300v300H0z"/><path d="M86.172 112.215l6.45 7.347" stroke-width="1.2" stroke="#f00" stroke-miterlimit="10" fill="none"/><path d="M92.62 119.563l6.45 7.35" stroke-width="1.2" stroke="#000" stroke-miterlimit="10" fill="none"/><path d="M71.172 106.715h15v11h-15zm0 0" fill="#fff"/><g fill="#f00"><use xlink:href="#a" x="71.172" y="115.378"/><use xlink:href="#b" x="78.187" y="115.378"/></g><path d="M99.07 126.914l19.18-3.82M101.887 131.043l15.343-3.055M92.79 145.434l6.28-18.52M118.25 123.094l12.898 14.7M131.148 137.793l-3.14 9.262" stroke-width="1.2" stroke="#000" stroke-miterlimit="10" fill="none"/><path d="M128.008 147.055l-3.14 9.257" stroke-width="1.2" stroke="#00f" stroke-miterlimit="10" fill="none"/><path d="M126.164 138.168l-2.512 7.406" stroke-width="1.2" stroke="#000" stroke-miterlimit="10" fill="none"/><path d="M123.652 145.574l-2.51 7.41" stroke-width="1.2" stroke="#00f" stroke-miterlimit="10" fill="none"/><path d="M131.148 137.793l19.18-3.82" stroke-width="1.2" stroke="#000" stroke-miterlimit="10" fill="none"/><path d="M124.867 156.313l-9.59 1.91" stroke-width="1.2" stroke="#00f" stroke-miterlimit="10" fill="none"/><path d="M115.277 158.223l-9.59 1.91" stroke-width="1.2" stroke="#000" stroke-miterlimit="10" fill="none"/><path d="M121.867 150.813h7v11h-7zm0 0" fill="#fff"/><use xlink:href="#c" x="121.867" y="159.476" fill="#00f"/><path d="M105.688 160.133l-12.9-14.7M107.86 155.63l-10.32-11.76M92.79 145.434l-19.18 3.82M73.61 149.254l-12.9-14.7M68.86 150.82l-10.317-11.76M67.328 167.777l6.28-18.523M60.71 134.555l-19.18 3.82M41.53 138.375l-6.28 18.52M45.262 141.707l-5.028 14.816M35.25 156.895l12.898 14.703M48.148 171.598l19.18-3.82M49.168 166.703l15.344-3.058M150.328 133.973l6.45 7.35" stroke-width="1.2" stroke="#000" stroke-miterlimit="10" fill="none"/><path d="M156.777 141.324l6.45 7.348M163.227 148.672l9.593-1.91" stroke-width="1.2" stroke="#00f" stroke-miterlimit="10" fill="none"/><path d="M172.82 146.762l9.59-1.91" stroke-width="1.2" stroke="#000" stroke-miterlimit="10" fill="none"/><path d="M156.227 143.172h14v11h-14zm0 0" fill="#fff"/><g fill="#00f"><use xlink:href="#c" x="156.227" y="151.835"/><use xlink:href="#a" x="163.204" y="151.835"/></g><path d="M182.41 144.852l12.9 14.7M180.238 149.355l10.32 11.762M195.31 159.55l19.178-3.82M195.31 159.55l-6.283 18.52M214.488 155.73l12.9 14.7M220.77 137.21l-6.282 18.52M224.496 140.54l-5.023 14.815M227.387 170.43l19.18-3.82M228.406 165.535l15.344-3.055M227.387 170.43l-6.282 18.523M246.566 166.61l6.282-18.52M252.848 148.09l-12.9-14.7M248.098 149.656l-10.32-11.76M239.95 133.39l-19.18 3.82M239.95 133.39l6.28-18.523M246.23 114.867l18.52 6.28M246.23 114.867l-18.523-6.28M246.23 114.867l6.282-18.52M219.375 190.47l6.45 7.35" stroke-width="1.2" stroke="#000" stroke-miterlimit="10" fill="none"/><path d="M225.824 197.82l6.45 7.348" stroke-width="1.2" stroke="#f00" stroke-miterlimit="10" fill="none"/><path d="M222.836 187.434l6.45 7.35" stroke-width="1.2" stroke="#000" stroke-miterlimit="10" fill="none"/><path d="M229.285 194.785l6.45 7.348" stroke-width="1.2" stroke="#f00" stroke-miterlimit="10" fill="none"/><path d="M221.105 188.953l-9.59 1.91" stroke-width="1.2" stroke="#000" stroke-miterlimit="10" fill="none"/><path d="M211.516 190.863l-9.59 1.91" stroke-width="1.2" stroke="#00f" stroke-miterlimit="10" fill="none"/><path d="M230.004 198.152h8v11h-8zm0 0" fill="#fff"/><use xlink:href="#b" x="230.004" y="206.815" fill="#f00"/><path d="M201.926 192.773l-6.45-7.35" stroke-width="1.2" stroke="#00f" stroke-miterlimit="10" fill="none"/><path d="M195.477 185.422l-6.45-7.352" stroke-width="1.2" stroke="#000" stroke-miterlimit="10" fill="none"/><path d="M194.926 187.273h14v11h-14zm0 0" fill="#fff"/><g fill="#00f"><use xlink:href="#c" x="194.926" y="195.937"/><use xlink:href="#a" x="201.903" y="195.937"/></g><path d="M188.578 175.816l-9.59 1.91" stroke-width="1.2" stroke="#000" stroke-miterlimit="10" fill="none"/><path d="M178.988 177.727l-9.593 1.91" stroke-width="1.2" stroke="#f00" stroke-miterlimit="10" fill="none"/><path d="M189.477 180.328l-9.59 1.91" stroke-width="1.2" stroke="#000" stroke-miterlimit="10" fill="none"/><path d="M179.887 182.238l-9.59 1.91" stroke-width="1.2" stroke="#f00" stroke-miterlimit="10" fill="none"/><path d="M161.848 176.395h8v11h-8zm0 0" fill="#fff"/><use xlink:href="#b" x="161.848" y="185.058" fill="#f00"/></g></svg>