<svg xmlns="http://www.w3.org/2000/svg" xmlns:xlink="http://www.w3.org/1999/xlink" width="300pt" height="300pt" viewBox="0 0 300 300"><defs><symbol overflow="visible"><path d="M.453 1.594v-7.938h4.5v7.938zm.5-.5h3.5v-6.938h-3.5zm0 0"/></symbol><symbol overflow="visible" id="a"><path d="M1.766-3.14v2.406h1.421c.477 0 .833-.098 1.063-.297.227-.197.344-.5.344-.907 0-.407-.117-.708-.344-.907-.23-.195-.586-.297-1.063-.297zm0-2.688v1.97h1.312c.438 0 .758-.08.97-.236.218-.164.327-.414.327-.75 0-.332-.11-.578-.328-.734-.21-.164-.53-.25-.97-.25zM.89-6.562h2.266c.676 0 1.196.14 1.563.42.362.283.546.685.546 1.205 0 .398-.094.714-.282.953-.187.242-.464.39-.828.453.438.092.774.292 1.016.592.238.293.36.657.36 1.094 0 .594-.2 1.055-.595 1.375-.398.314-.964.47-1.703.47H.89zm0 0"/></symbol><symbol overflow="visible" id="b"><path d="M3.703-4.172c-.094-.05-.195-.086-.297-.11-.105-.02-.226-.03-.36-.03-.46 0-.812.152-1.062.453-.242.294-.36.715-.36 1.266V0H.813v-4.922h.813v.766c.176-.3.398-.524.672-.672.27-.145.598-.22.984-.22.064 0 .126.01.19.017.07.01.147.022.233.03zm0 0"/></symbol><symbol overflow="visible" id="c"><path d="M3.547-5.953c-.65 0-1.164.242-1.547.72-.375.48-.563 1.13-.563 1.952 0 .835.188 1.49.563 1.967.383.48.898.72 1.547.72.644 0 1.156-.24 1.53-.72.376-.476.564-1.132.564-1.968 0-.822-.187-1.474-.562-1.954-.375-.477-.887-.72-1.53-.72zm0-.734c.914 0 1.648.312 2.203.937.55.617.828 1.438.828 2.47 0 1.042-.277 1.87-.828 2.483-.555.617-1.29.922-2.203.922-.93 0-1.668-.305-2.22-.922C.774-1.41.5-2.237.5-3.28c0-1.033.273-1.853.828-2.47.55-.625 1.29-.938 2.22-.938zm0 0"/></symbol><symbol overflow="visible" id="d"><path d="M.89-6.563H2.08l2.906 5.485v-5.484h.86V0H4.656L1.75-5.484V0H.89zm0 0"/></symbol><symbol overflow="visible" id="e"><path d="M.89-6.563h.876v2.688H5v-2.688h.89V0H5v-3.125H1.766V0H.89zm0 0"/></symbol></defs><g><path fill="#fff" d="M0 0h300v300H0z"/><path d="M207.277 195.797l8.86-7.613" stroke-width="1.2" stroke="#7f4d1a" stroke-miterlimit="10" fill="none"/><path d="M216.137 188.184l8.855-7.614" stroke-width="1.2" stroke="#000" stroke-miterlimit="10" fill="none"/><path d="M196.277 190.297h11v11h-11zm0 0" fill="#fff"/><g fill="#7f4d1a"><use xlink:href="#a" x="196.277" y="198.96"/><use xlink:href="#b" x="202.677" y="198.96"/></g><path d="M224.992 180.57l-4.332-22.957M229.96 177.254l-3.468-18.363M247.035 188.293l-22.043-7.723M220.66 157.613l17.71-15.226M220.66 157.613l-22.047-7.722M238.37 142.387l22.048 7.722M238.758 148.344l17.637 6.183M238.37 142.387l-4.33-22.957M260.418 150.11l4.332 22.956M264.75 173.066l-17.715 15.227M259.395 170.422l-14.168 12.183M235.832 121.516l8.856-7.614" stroke-width="1.2" stroke="#000" stroke-miterlimit="10" fill="none"/><path d="M244.688 113.902l8.86-7.617" stroke-width="1.2" stroke="#f00" stroke-miterlimit="10" fill="none"/><path d="M232.25 117.348l8.855-7.614" stroke-width="1.2" stroke="#000" stroke-miterlimit="10" fill="none"/><path d="M241.105 109.734l8.856-7.617" stroke-width="1.2" stroke="#f00" stroke-miterlimit="10" fill="none"/><path d="M234.04 119.43l-11.02-3.86" stroke-width="1.2" stroke="#000" stroke-miterlimit="10" fill="none"/><path d="M223.02 115.57l-11.024-3.863" stroke-width="1.2" stroke="#00f" stroke-miterlimit="10" fill="none"/><path d="M247.754 98.703h8v11h-8zm0 0" fill="#fff"/><use xlink:href="#c" x="247.754" y="107.366" fill="#f00"/><path d="M211.996 111.707l-8.855 7.613" stroke-width="1.2" stroke="#00f" stroke-miterlimit="10" fill="none"/><path d="M203.14 119.32l-8.86 7.614" stroke-width="1.2" stroke="#000" stroke-miterlimit="10" fill="none"/><path d="M204.996 106.207h14v11h-14zm0 0" fill="#fff"/><g fill="#00f"><use xlink:href="#d" x="204.996" y="114.87"/><use xlink:href="#e" x="211.974" y="114.87"/></g><path d="M195.19 124.34l-11.022-3.86" stroke-width="1.2" stroke="#000" stroke-miterlimit="10" fill="none"/><path d="M184.168 120.48l-11.023-3.863" stroke-width="1.2" stroke="#f00" stroke-miterlimit="10" fill="none"/><path d="M193.375 129.527l-11.023-3.863" stroke-width="1.2" stroke="#000" stroke-miterlimit="10" fill="none"/><path d="M182.352 125.664l-11.024-3.86" stroke-width="1.2" stroke="#f00" stroke-miterlimit="10" fill="none"/><path d="M194.28 126.934l4.333 22.957" stroke-width="1.2" stroke="#000" stroke-miterlimit="10" fill="none"/><path d="M164.238 113.71h8v11h-8zm0 0" fill="#fff"/><use xlink:href="#c" x="164.238" y="122.374" fill="#f00"/><path d="M198.613 149.89l-17.71 15.227M193.262 147.246l-14.172 12.18M180.902 165.117l-11.023-3.863" stroke-width="1.2" stroke="#000" stroke-miterlimit="10" fill="none"/><path d="M169.88 161.254l-11.025-3.86M158.855 157.395L150 165.008" stroke-width="1.2" stroke="#00f" stroke-miterlimit="10" fill="none"/><path d="M150 165.008l-8.855 7.613" stroke-width="1.2" stroke="#000" stroke-miterlimit="10" fill="none"/><path d="M151.855 151.895h14v11h-14zm0 0" fill="#fff"/><g fill="#00f"><use xlink:href="#d" x="151.855" y="160.558"/><use xlink:href="#e" x="158.833" y="160.558"/></g><path d="M141.145 172.62l-22.047-7.725M119.098 164.895l-4.332-22.954M113.266 163.62l-3.47-18.362M101.387 180.125l17.71-15.23M114.766 141.94l-22.043-7.725M92.723 134.215l-2.168-11.477" stroke-width="1.2" stroke="#000" stroke-miterlimit="10" fill="none"/><path d="M90.555 122.738l-2.164-11.476" stroke-width="1.2" stroke="#f00" stroke-miterlimit="10" fill="none"/><path d="M92.723 134.215l-17.715 15.23M94.53 139.906L80.364 152.09" stroke-width="1.2" stroke="#000" stroke-miterlimit="10" fill="none"/><path d="M81.39 105.762h15v11h-15zm0 0" fill="#fff"/><g fill="#f00"><use xlink:href="#e" x="81.391" y="114.425"/><use xlink:href="#c" x="88.405" y="114.425"/></g><path d="M75.008 149.445l-11.024-3.863" stroke-width="1.2" stroke="#000" stroke-miterlimit="10" fill="none"/><path d="M63.984 145.582l-11.02-3.863" stroke-width="1.2" stroke="#f00" stroke-miterlimit="10" fill="none"/><path d="M75.008 149.445l4.332 22.953" stroke-width="1.2" stroke="#000" stroke-miterlimit="10" fill="none"/><path d="M52.965 141.72l-8.86 7.616" stroke-width="1.2" stroke="#f00" stroke-miterlimit="10" fill="none"/><path d="M44.105 149.336l-8.855 7.613" stroke-width="1.2" stroke="#000" stroke-miterlimit="10" fill="none"/><path d="M48.965 136.22h8v11h-8zm0 0" fill="#fff"/><use xlink:href="#c" x="48.965" y="144.882" fill="#f00"/><path d="M79.34 172.398l22.047 7.727M83.363 167.984l17.637 6.18" stroke-width="1.2" stroke="#000" stroke-miterlimit="10" fill="none"/></g></svg>