<svg xmlns="http://www.w3.org/2000/svg" xmlns:xlink="http://www.w3.org/1999/xlink" width="300pt" height="300pt" viewBox="0 0 300 300"><defs><symbol overflow="visible"><path d="M.453 1.594v-7.938h4.5v7.938zm.5-.5h3.5v-6.938h-3.5zm0 0"/></symbol><symbol overflow="visible" id="a"><path d="M5.797-6.063v.938c-.305-.27-.625-.473-.97-.61-.335-.144-.686-.218-1.06-.218-.75 0-1.33.23-1.736.687-.397.46-.592 1.12-.592 1.985 0 .866.195 1.526.593 1.983.408.46.986.688 1.736.688.375 0 .726-.066 1.062-.203.344-.132.664-.343.97-.625V-.5c-.314.21-.642.367-.986.47-.343.1-.714.155-1.11.155-.99 0-1.772-.3-2.343-.906C.784-1.396.5-2.228.5-3.28c0-1.052.285-1.88.86-2.486.57-.613 1.35-.92 2.343-.92.395-.002.766.053 1.11.155.35.104.68.26.984.468zm0 0"/></symbol><symbol overflow="visible" id="b"><path d="M.844-6.844h.812V0H.844zm0 0"/></symbol><symbol overflow="visible" id="c"><path d="M3.547-5.953c-.65 0-1.164.242-1.547.72-.375.48-.563 1.13-.563 1.952 0 .835.188 1.49.563 1.967.383.48.898.72 1.547.72.644 0 1.156-.24 1.53-.72.376-.476.564-1.132.564-1.968 0-.822-.187-1.474-.562-1.954-.375-.477-.887-.72-1.53-.72zm0-.734c.914 0 1.648.312 2.203.937.55.617.828 1.438.828 2.47 0 1.042-.277 1.87-.828 2.483-.555.617-1.29.922-2.203.922-.93 0-1.668-.305-2.22-.922C.774-1.41.5-2.237.5-3.28c0-1.033.273-1.853.828-2.47.55-.625 1.29-.938 2.22-.938zm0 0"/></symbol><symbol overflow="visible" id="d"><path d="M.89-6.563H2.08l2.906 5.485v-5.484h.86V0H4.656L1.75-5.484V0H.89zm0 0"/></symbol><symbol overflow="visible" id="e"><path d="M4.813-6.344v.86c-.336-.157-.653-.27-.954-.344-.294-.082-.58-.125-.86-.125-.492 0-.867.094-1.125.28-.262.19-.39.454-.39.798 0 .293.085.512.265.656.176.15.504.267.984.36l.547.11c.658.125 1.142.352 1.454.672.32.312.485.734.485 1.265 0 .637-.216 1.122-.642 1.454-.43.325-1.055.485-1.875.485-.312 0-.648-.04-1-.11C1.36-.046 1-.147.625-.296v-.906c.352.2.703.35 1.047.453.35.105.695.156 1.03.156.5 0 .884-.097 1.157-.297.28-.196.42-.485.42-.86 0-.32-.1-.57-.296-.75-.2-.176-.523-.313-.968-.406l-.547-.11C1.81-3.148 1.33-3.36 1.03-3.64.74-3.923.595-4.313.595-4.813c0-.57.203-1.024.61-1.36.405-.344.968-.516 1.687-.516.313 0 .626.032.938.094.32.055.65.137.985.25zm0 0"/></symbol></defs><g><path fill="#fff" d="M0 0h300v300H0z"/><path d="M264.75 173.422l-6.332-3.36" stroke-width="1.2" stroke="#0c0" stroke-miterlimit="10" fill="none"/><path d="M258.418 170.063l-6.332-3.36" stroke-width="1.2" stroke="#000" stroke-miterlimit="10" fill="none"/><path d="M259.75 167.922h10v11h-10zm0 0" fill="#fff"/><g fill="#0c0"><use xlink:href="#a" x="259.75" y="176.585"/><use xlink:href="#b" x="266.264" y="176.585"/></g><path d="M252.086 166.703l-12.15 7.61M249.078 164.605l-9.72 6.09M251.57 152.38l.516 14.323M239.938 174.313l-12.668-6.715M227.27 167.598l-.516-14.328M230.59 166.043l-.41-11.46M226.754 153.27l-6.332-3.356" stroke-width="1.2" stroke="#000" stroke-miterlimit="10" fill="none"/><path d="M220.422 149.914l-6.332-3.36" stroke-width="1.2" stroke="#f00" stroke-miterlimit="10" fill="none"/><path d="M226.754 153.27l12.152-7.61" stroke-width="1.2" stroke="#000" stroke-miterlimit="10" fill="none"/><path d="M214.09 146.555l-.258-7.164" stroke-width="1.2" stroke="#f00" stroke-miterlimit="10" fill="none"/><path d="M213.832 139.39l-.258-7.163" stroke-width="1.2" stroke="#000" stroke-miterlimit="10" fill="none"/><path d="M210.09 141.055h8v11h-8zm0 0" fill="#fff"/><use xlink:href="#c" x="210.09" y="149.718" fill="#f00"/><path d="M213.574 132.227l-12.664-6.715M200.91 125.512l-6.437 3.148" stroke-width="1.2" stroke="#000" stroke-miterlimit="10" fill="none"/><path d="M194.473 128.66l-6.442 3.15M198.898 111.316l1.008 7.098" stroke-width="1.2" stroke="#00f" stroke-miterlimit="10" fill="none"/><path d="M199.906 118.414l1.004 7.098" stroke-width="1.2" stroke="#000" stroke-miterlimit="10" fill="none"/><path d="M195.762 113.207l.804 5.68" stroke-width="1.2" stroke="#00f" stroke-miterlimit="10" fill="none"/><path d="M196.566 118.887l.8 5.675" stroke-width="1.2" stroke="#000" stroke-miterlimit="10" fill="none"/><path d="M188.03 131.81l-6.714 12.663" stroke-width="1.2" stroke="#00f" stroke-miterlimit="10" fill="none"/><path d="M178.063 121.508l4.984 5.148" stroke-width="1.2" stroke="#000" stroke-miterlimit="10" fill="none"/><path d="M183.047 126.656l4.984 5.153" stroke-width="1.2" stroke="#00f" stroke-miterlimit="10" fill="none"/><path d="M185.03 126.31h7v11h-7zm0 0" fill="#fff"/><use xlink:href="#d" x="185.031" y="134.972" fill="#00f"/><path d="M181.316 144.473l-7.062-1.24" stroke-width="1.2" stroke="#00f" stroke-miterlimit="10" fill="none"/><path d="M174.254 143.234l-7.06-1.234" stroke-width="1.2" stroke="#000" stroke-miterlimit="10" fill="none"/><path d="M180.484 140.902l-5.648-.988" stroke-width="1.2" stroke="#00f" stroke-miterlimit="10" fill="none"/><path d="M174.836 139.914l-5.65-.988" stroke-width="1.2" stroke="#000" stroke-miterlimit="10" fill="none"/><path d="M178.316 138.973h7v11h-7zm0 0" fill="#fff"/><use xlink:href="#d" x="178.316" y="147.636" fill="#00f"/><path d="M167.195 142l-1.007-7.098" stroke-width="1.2" stroke="#000" stroke-miterlimit="10" fill="none"/><path d="M166.188 134.902l-1.004-7.097" stroke-width="1.2" stroke="#cc0" stroke-miterlimit="10" fill="none"/><path d="M167.195 142l-5.152 4.984" stroke-width="1.2" stroke="#000" stroke-miterlimit="10" fill="none"/><path d="M162.043 146.984l-5.152 4.985M165.184 127.805l6.437-3.15" stroke-width="1.2" stroke="#cc0" stroke-miterlimit="10" fill="none"/><path d="M171.62 124.656l6.442-3.148" stroke-width="1.2" stroke="#000" stroke-miterlimit="10" fill="none"/><path d="M162.184 122.305h6v11h-6zm0 0" fill="#fff"/><use xlink:href="#e" x="162.184" y="130.968" fill="#cc0"/><path d="M178.063 121.508l3.36-6.332" stroke-width="1.2" stroke="#000" stroke-miterlimit="10" fill="none"/><path d="M181.422 115.176l3.355-6.332" stroke-width="1.2" stroke="#00f" stroke-miterlimit="10" fill="none"/><path d="M181.715 121.82l2.687-5.066" stroke-width="1.2" stroke="#000" stroke-miterlimit="10" fill="none"/><path d="M184.402 116.754l2.684-5.067M184.777 108.844l14.12 2.472" stroke-width="1.2" stroke="#00f" stroke-miterlimit="10" fill="none"/><path d="M181.777 103.344h7v11h-7zm0 0" fill="#fff"/><use xlink:href="#d" x="181.777" y="112.007" fill="#00f"/><path d="M195.898 105.816h7v11h-7zm0 0" fill="#fff"/><use xlink:href="#d" x="195.898" y="114.479" fill="#00f"/><path d="M156.89 151.97l-13.78-3.94" stroke-width="1.2" stroke="#cc0" stroke-miterlimit="10" fill="none"/><path d="M153.89 146.47h6v11h-6zm0 0" fill="#fff"/><use xlink:href="#e" x="153.891" y="155.132" fill="#cc0"/><path d="M143.11 148.03l-5.153 4.986" stroke-width="1.2" stroke="#cc0" stroke-miterlimit="10" fill="none"/><path d="M137.957 153.016L132.805 158" stroke-width="1.2" stroke="#000" stroke-miterlimit="10" fill="none"/><path d="M140.11 142.53h6v11h-6zm0 0" fill="#fff"/><use xlink:href="#e" x="140.109" y="151.194" fill="#cc0"/><path d="M132.805 158l1.007 7.098" stroke-width="1.2" stroke="#000" stroke-miterlimit="10" fill="none"/><path d="M133.813 165.098l1.003 7.097" stroke-width="1.2" stroke="#cc0" stroke-miterlimit="10" fill="none"/><path d="M132.805 158l-7.06-1.234" stroke-width="1.2" stroke="#000" stroke-miterlimit="10" fill="none"/><path d="M125.746 156.766l-7.062-1.24" stroke-width="1.2" stroke="#00f" stroke-miterlimit="10" fill="none"/><path d="M130.813 161.074l-5.65-.988" stroke-width="1.2" stroke="#000" stroke-miterlimit="10" fill="none"/><path d="M125.164 160.086l-5.648-.988" stroke-width="1.2" stroke="#00f" stroke-miterlimit="10" fill="none"/><path d="M134.816 172.195l-6.437 3.15" stroke-width="1.2" stroke="#cc0" stroke-miterlimit="10" fill="none"/><path d="M128.38 175.344l-6.442 3.148" stroke-width="1.2" stroke="#000" stroke-miterlimit="10" fill="none"/><path d="M131.816 166.695h6v11h-6zm0 0" fill="#fff"/><use xlink:href="#e" x="131.816" y="175.358" fill="#cc0"/><path d="M121.938 178.492l-4.985-5.148" stroke-width="1.2" stroke="#000" stroke-miterlimit="10" fill="none"/><path d="M116.953 173.344l-4.984-5.153M115.223 191.156l3.355-6.332" stroke-width="1.2" stroke="#00f" stroke-miterlimit="10" fill="none"/><path d="M118.578 184.824l3.36-6.332" stroke-width="1.2" stroke="#000" stroke-miterlimit="10" fill="none"/><path d="M112.914 188.313l2.684-5.067" stroke-width="1.2" stroke="#00f" stroke-miterlimit="10" fill="none"/><path d="M115.598 183.246l2.687-5.066" stroke-width="1.2" stroke="#000" stroke-miterlimit="10" fill="none"/><path d="M111.97 168.19l6.714-12.663M111.97 168.19l-6.443 3.15" stroke-width="1.2" stroke="#00f" stroke-miterlimit="10" fill="none"/><path d="M105.527 171.34l-6.437 3.148" stroke-width="1.2" stroke="#000" stroke-miterlimit="10" fill="none"/><path d="M108.97 162.69h7v11h-7zm0 0" fill="#fff"/><use xlink:href="#d" x="108.969" y="171.354" fill="#00f"/><path d="M115.684 150.027h7v11h-7zm0 0" fill="#fff"/><use xlink:href="#d" x="115.684" y="158.69" fill="#00f"/><path d="M99.09 174.488l1.004 7.098" stroke-width="1.2" stroke="#000" stroke-miterlimit="10" fill="none"/><path d="M100.094 181.586l1.008 7.098" stroke-width="1.2" stroke="#00f" stroke-miterlimit="10" fill="none"/><path d="M102.633 175.438l.8 5.675" stroke-width="1.2" stroke="#000" stroke-miterlimit="10" fill="none"/><path d="M103.434 181.113l.804 5.68" stroke-width="1.2" stroke="#00f" stroke-miterlimit="10" fill="none"/><path d="M99.09 174.488l-12.664-6.715" stroke-width="1.2" stroke="#000" stroke-miterlimit="10" fill="none"/><path d="M101.102 188.684l14.12 2.472" stroke-width="1.2" stroke="#00f" stroke-miterlimit="10" fill="none"/><path d="M98.102 183.184h7v11h-7zm0 0" fill="#fff"/><use xlink:href="#d" x="98.102" y="191.847" fill="#00f"/><path d="M112.223 185.656h7v11h-7zm0 0" fill="#fff"/><use xlink:href="#d" x="112.223" y="194.319" fill="#00f"/><path d="M86.426 167.773l-.258-7.164" stroke-width="1.2" stroke="#000" stroke-miterlimit="10" fill="none"/><path d="M86.168 160.61l-.258-7.165M85.91 153.445l-6.332-3.36" stroke-width="1.2" stroke="#f00" stroke-miterlimit="10" fill="none"/><path d="M79.578 150.086l-6.332-3.356" stroke-width="1.2" stroke="#000" stroke-miterlimit="10" fill="none"/><path d="M81.91 147.945h8v11h-8zm0 0" fill="#fff"/><use xlink:href="#c" x="81.91" y="156.608" fill="#f00"/><path d="M73.246 146.73l-.516-14.328M69.82 145.418l-.41-11.46M61.094 154.34l12.152-7.61M72.73 132.402l-12.668-6.714M60.063 125.688l-12.15 7.61M60.64 129.305l-9.718 6.09M47.914 133.297l-6.332-3.36" stroke-width="1.2" stroke="#000" stroke-miterlimit="10" fill="none"/><path d="M41.582 129.938l-6.332-3.36" stroke-width="1.2" stroke="#0c0" stroke-miterlimit="10" fill="none"/><path d="M47.914 133.297l.516 14.324" stroke-width="1.2" stroke="#000" stroke-miterlimit="10" fill="none"/><path d="M25.25 121.078h10v11h-10zm0 0" fill="#fff"/><g fill="#0c0"><use xlink:href="#a" x="25.25" y="129.741"/><use xlink:href="#b" x="31.764" y="129.741"/></g><path d="M48.43 147.62l12.664 6.72M51.277 145.313l10.133 5.375M238.906 145.66l12.664 6.72M238.59 149.313l10.133 5.375" stroke-width="1.2" stroke="#000" stroke-miterlimit="10" fill="none"/></g></svg>