<svg xmlns="http://www.w3.org/2000/svg" xmlns:xlink="http://www.w3.org/1999/xlink" width="300pt" height="300pt" viewBox="0 0 300 300"><defs><symbol overflow="visible"><path d="M.453 1.594v-7.938h4.5v7.938zm.5-.5h3.5v-6.938h-3.5zm0 0"/></symbol><symbol overflow="visible" id="a"><path d="M3.547-5.953c-.65 0-1.164.242-1.547.72-.375.48-.563 1.13-.563 1.952 0 .835.188 1.49.563 1.967.383.48.898.72 1.547.72.644 0 1.156-.24 1.53-.72.376-.476.564-1.132.564-1.968 0-.822-.187-1.474-.562-1.954-.375-.477-.887-.72-1.53-.72zm0-.734c.914 0 1.648.312 2.203.937.55.617.828 1.438.828 2.47 0 1.042-.277 1.87-.828 2.483-.555.617-1.29.922-2.203.922-.93 0-1.668-.305-2.22-.922C.774-1.41.5-2.237.5-3.28c0-1.033.273-1.853.828-2.47.55-.625 1.29-.938 2.22-.938zm0 0"/></symbol><symbol overflow="visible" id="b"><path d="M.89-6.563H2.08l2.906 5.485v-5.484h.86V0H4.656L1.75-5.484V0H.89zm0 0"/></symbol><symbol overflow="visible" id="c"><path d="M.89-6.563h.876v2.688H5v-2.688h.89V0H5v-3.125H1.766V0H.89zm0 0"/></symbol></defs><g><path fill="#fff" d="M0 0h300v300H0z"/><path d="M155.445 136.973l-3.785 11.863" stroke-width="1.2" stroke="#f00" stroke-miterlimit="10" fill="none"/><path d="M151.66 148.836l-3.785 11.863" stroke-width="1.2" stroke="#000" stroke-miterlimit="10" fill="none"/><path d="M161.027 138.754l-3.785 11.863" stroke-width="1.2" stroke="#f00" stroke-miterlimit="10" fill="none"/><path d="M157.242 150.617l-3.785 11.863" stroke-width="1.2" stroke="#000" stroke-miterlimit="10" fill="none"/><path d="M154.234 132.363h8v11h-8zm0 0" fill="#fff"/><use xlink:href="#a" x="154.234" y="141.026" fill="#f00"/><path d="M150.668 161.59l8.38 9.207" stroke-width="1.2" stroke="#000" stroke-miterlimit="10" fill="none"/><path d="M159.047 170.797l8.383 9.207" stroke-width="1.2" stroke="#00f" stroke-miterlimit="10" fill="none"/><path d="M150.668 161.59l-12.164 2.652" stroke-width="1.2" stroke="#000" stroke-miterlimit="10" fill="none"/><path d="M138.504 164.242l-12.168 2.656M167.43 180.004l12.164-2.652" stroke-width="1.2" stroke="#00f" stroke-miterlimit="10" fill="none"/><path d="M179.594 177.352l12.164-2.653" stroke-width="1.2" stroke="#000" stroke-miterlimit="10" fill="none"/><path d="M160.43 174.504h14v11h-14zm0 0" fill="#fff"/><g fill="#00f"><use xlink:href="#b" x="160.43" y="183.167"/><use xlink:href="#c" x="167.407" y="183.167"/></g><path d="M191.758 174.7l16.762 18.413M197.77 172.598l13.41 14.73M199.328 150.973l-7.57 23.726M208.52 193.113l24.332-5.304M232.852 187.81l7.566-23.728M228.027 183.652l6.055-18.976M240.418 164.082l-16.762-18.418M240.418 164.082l24.332-5.31M223.656 145.664l-24.328 5.31M222.473 151.922l-19.465 4.246" stroke-width="1.2" stroke="#000" stroke-miterlimit="10" fill="none"/><path d="M126.336 166.898l-8.38-9.21" stroke-width="1.2" stroke="#00f" stroke-miterlimit="10" fill="none"/><path d="M117.957 157.688l-8.383-9.208" stroke-width="1.2" stroke="#000" stroke-miterlimit="10" fill="none"/><path d="M119.336 161.398h14v11h-14zm0 0" fill="#fff"/><g fill="#00f"><use xlink:href="#b" x="119.336" y="170.062"/><use xlink:href="#c" x="126.313" y="170.062"/></g><path d="M109.574 148.48L97.2 149.848" stroke-width="1.2" stroke="#000" stroke-miterlimit="10" fill="none"/><path d="M97.2 149.848l-12.376 1.367" stroke-width="1.2" stroke="#00f" stroke-miterlimit="10" fill="none"/><path d="M114.62 124.094l-5.046 24.386M108.38 125.344l-4.036 19.51" stroke-width="1.2" stroke="#000" stroke-miterlimit="10" fill="none"/><path d="M84.824 151.215l-10.25-22.695M84.824 151.215l-6.168 10.816" stroke-width="1.2" stroke="#00f" stroke-miterlimit="10" fill="none"/><path d="M78.656 162.03l-6.168 10.818" stroke-width="1.2" stroke="#000" stroke-miterlimit="10" fill="none"/><path d="M81.824 145.715h7v11h-7zm0 0" fill="#fff"/><use xlink:href="#b" x="81.824" y="154.378" fill="#00f"/><path d="M74.574 128.52l9.207-8.38" stroke-width="1.2" stroke="#00f" stroke-miterlimit="10" fill="none"/><path d="M83.78 120.14l9.208-8.382" stroke-width="1.2" stroke="#000" stroke-miterlimit="10" fill="none"/><path d="M80.36 131.176l7.367-6.703" stroke-width="1.2" stroke="#00f" stroke-miterlimit="10" fill="none"/><path d="M87.727 124.473l7.367-6.703" stroke-width="1.2" stroke="#000" stroke-miterlimit="10" fill="none"/><path d="M71.574 123.02h7v11h-7zm0 0" fill="#fff"/><use xlink:href="#b" x="71.574" y="131.683" fill="#00f"/><path d="M92.988 111.758l21.633 12.336M92.988 111.758l-2.734-24.75M90.254 87.008l24.754-2.738M90.254 87.008l-24.75 2.734M90.254 87.008L87.52 62.254M72.488 172.848l-24.902.132M70.027 178.72l-19.922.108M85.055 194.348l-12.567-21.5M47.586 172.98L35.25 194.613M35.25 194.613l12.566 21.5M41.566 193.805l10.05 17.2M47.816 216.113l24.903-.133M47.816 216.113L35.48 237.746M72.72 215.98l12.335-21.632M68.863 210.914l9.867-17.305" stroke-width="1.2" stroke="#000" stroke-miterlimit="10" fill="none"/></g></svg>