<svg xmlns="http://www.w3.org/2000/svg" xmlns:xlink="http://www.w3.org/1999/xlink" width="300pt" height="300pt" viewBox="0 0 300 300"><defs><symbol overflow="visible"><path d="M.547 1.938V-7.75h5.5v9.688zm.625-.61h4.266v-8.47H1.171zm0 0"/></symbol><symbol overflow="visible" id="a"><path d="M7.078-7.406v1.156c-.367-.344-.758-.598-1.172-.766-.406-.164-.843-.25-1.312-.25-.918 0-1.62.282-2.11.844-.48.555-.718 1.36-.718 2.422 0 1.055.238 1.86.718 2.422.49.562 1.192.844 2.11.844.468 0 .906-.082 1.312-.25.414-.164.805-.422 1.172-.766v1.125c-.375.262-.777.46-1.203.594-.418.124-.867.186-1.344.186-1.21 0-2.163-.367-2.858-1.11C.972-1.703.625-2.718.625-4c0-1.29.348-2.305 1.047-3.047.695-.75 1.648-1.125 2.86-1.125.476 0 .93.07 1.36.203.424.126.82.314 1.186.564zm0 0"/></symbol><symbol overflow="visible" id="b"><path d="M1.03-8.36h1V0h-1zm0 0"/></symbol><symbol overflow="visible" id="c"><path d="M4.328-7.28c-.78 0-1.406.296-1.875.89-.46.585-.687 1.382-.687 2.39 0 1.012.226 1.813.687 2.406.47.586 1.094.875 1.875.875.79 0 1.414-.288 1.875-.874.457-.593.688-1.394.688-2.406 0-1.008-.23-1.805-.687-2.39-.46-.594-1.086-.89-1.875-.89zm0-.892c1.125 0 2.024.383 2.703 1.14C7.708-6.28 8.048-5.27 8.048-4c0 1.262-.34 2.273-1.016 3.03C6.353-.22 5.454.157 4.33.157S2.3-.22 1.625-.97c-.668-.75-1-1.757-1-3.03 0-1.27.332-2.28 1-3.03.676-.76 1.578-1.142 2.703-1.142zm0 0"/></symbol><symbol overflow="visible" id="d"><path d="M1.078-8.016h1.47l3.546 6.704v-6.704h1.062V0H5.688L2.124-6.703V0H1.078zm0 0"/></symbol><symbol overflow="visible" id="e"><path d="M1.078-8.016h4.61v.907H2.171v2.36h3.172v.922H2.172V0H1.078zm0 0"/></symbol></defs><g><path fill="#fff" d="M0 0h300v300H0z"/><path d="M198.738 190.547l9.692-10.137" stroke-width="1.2" stroke="#0c0" stroke-miterlimit="10" fill="none"/><path d="M208.43 180.41l9.69-10.137" stroke-width="1.2" stroke="#000" stroke-miterlimit="10" fill="none"/><path d="M187.738 184.047h11v13h-11zm0 0" fill="#fff"/><g fill="#0c0"><use xlink:href="#a" x="187.738" y="193.948"/><use xlink:href="#b" x="195.189" y="193.948"/></g><path d="M218.12 170.273l-7.866-26.92M223.668 165.73l-6.293-21.54M245.367 176.922l-27.246-6.65" stroke-width="1.2" stroke="#000" stroke-miterlimit="10" fill="none"/><path d="M183.008 136.703m2.746 1.203l.246-1.01m2.5 2.217l.492-2.023m2.254 3.23l.742-3.04m2.004 4.247l.988-4.05m1.758 5.257l1.24-5.062m1.506 6.27l1.485-6.08m1.26 7.286l1.73-7.09m1.02 8.297l1.977-8.1m.77 9.308l2.222-9.118m-.868 9.715l2.344-9.617" stroke="#000" stroke-miterlimit="10" fill="none"/><path d="M210.254 143.352l19.383-20.274M183.008 136.703l-9.692 10.133" stroke-width="1.2" stroke="#000" stroke-miterlimit="10" fill="none"/><path d="M173.316 146.836l-9.69 10.137" stroke-width="1.2" stroke="#f00" stroke-miterlimit="10" fill="none"/><path d="M183.008 136.703l-7.867-26.926" stroke-width="1.2" stroke="#000" stroke-miterlimit="10" fill="none"/><path d="M163.625 156.973L150 153.648" stroke-width="1.2" stroke="#f00" stroke-miterlimit="10" fill="none"/><path d="M150 153.648l-13.625-3.324" stroke-width="1.2" stroke="#000" stroke-miterlimit="10" fill="none"/><path d="M159.625 150.473h9v13h-9zm0 0" fill="#fff"/><use xlink:href="#c" x="159.625" y="160.374" fill="#f00"/><path d="M136.375 150.324l-19.383 20.274M129.668 147.793l-15.508 16.215M128.512 123.402l7.863 26.922M116.992 170.598l-27.246-6.65M89.746 163.95l-7.867-26.923M82.625 163.105l-6.293-21.535M70.363 184.22l19.383-20.27M81.88 137.027l-13.622-3.324" stroke-width="1.2" stroke="#000" stroke-miterlimit="10" fill="none"/><path d="M68.258 133.703l-13.625-3.328" stroke-width="1.2" stroke="#00f" stroke-miterlimit="10" fill="none"/><path d="M81.88 137.027l19.382-20.273" stroke-width="1.2" stroke="#000" stroke-miterlimit="10" fill="none"/><path d="M54.633 130.375l-9.692 10.137" stroke-width="1.2" stroke="#00f" stroke-miterlimit="10" fill="none"/><path d="M44.94 140.512l-9.69 10.136" stroke-width="1.2" stroke="#000" stroke-miterlimit="10" fill="none"/><path d="M57.465 136.965l-7.754 8.11" stroke-width="1.2" stroke="#00f" stroke-miterlimit="10" fill="none"/><path d="M49.71 145.074l-7.753 8.11" stroke-width="1.2" stroke="#000" stroke-miterlimit="10" fill="none"/><path d="M50.633 123.875h8v13h-8zm0 0" fill="#fff"/><use xlink:href="#d" x="50.633" y="133.776" fill="#00f"/><path d="M35.25 150.648l7.867 26.922M43.117 177.57l27.246 6.65M47.406 171.824l21.797 5.32M101.262 116.754l27.25 6.648M102.422 123.828l21.8 5.32M229.637 123.078l-3.934-13.46" stroke-width="1.2" stroke="#000" stroke-miterlimit="10" fill="none"/><path d="M225.703 109.617l-3.933-13.46" stroke-width="1.2" stroke="#0c0" stroke-miterlimit="10" fill="none"/><path d="M229.637 123.078l27.246 6.65M230.797 130.152l21.797 5.32" stroke-width="1.2" stroke="#000" stroke-miterlimit="10" fill="none"/><path d="M216.77 89.656h11v13h-11zm0 0" fill="#fff"/><g fill="#0c0"><use xlink:href="#a" x="216.77" y="99.558"/><use xlink:href="#b" x="224.221" y="99.558"/></g><path d="M256.883 129.727l7.867 26.92M264.75 156.648l-19.383 20.274M258.043 154.117l-15.508 16.22M245.367 176.922l3.934 13.46" stroke-width="1.2" stroke="#000" stroke-miterlimit="10" fill="none"/><path d="M249.3 190.383l3.934 13.46" stroke-width="1.2" stroke="#3cc" stroke-miterlimit="10" fill="none"/><path d="M250.234 197.344h7v13h-7zm0 0" fill="#fff"/><use xlink:href="#e" x="250.234" y="207.245" fill="#3cc"/></g></svg>