<svg xmlns="http://www.w3.org/2000/svg" xmlns:xlink="http://www.w3.org/1999/xlink" width="300pt" height="300pt" viewBox="0 0 300 300"><defs><symbol overflow="visible"><path d="M.453 1.594v-7.938h4.5v7.938zm.5-.5h3.5v-6.938h-3.5zm0 0"/></symbol><symbol overflow="visible" id="a"><path d="M5.797-6.063v.938c-.305-.27-.625-.473-.97-.61-.335-.144-.686-.218-1.06-.218-.75 0-1.33.23-1.736.687-.397.46-.592 1.12-.592 1.985 0 .866.195 1.526.593 1.983.408.46.986.688 1.736.688.375 0 .726-.066 1.062-.203.344-.132.664-.343.97-.625V-.5c-.314.21-.642.367-.986.47-.343.1-.714.155-1.11.155-.99 0-1.772-.3-2.343-.906C.784-1.396.5-2.228.5-3.28c0-1.052.285-1.88.86-2.486.57-.613 1.35-.92 2.343-.92.395-.002.766.053 1.11.155.35.104.68.26.984.468zm0 0"/></symbol><symbol overflow="visible" id="b"><path d="M.844-6.844h.812V0H.844zm0 0"/></symbol><symbol overflow="visible" id="c"><path d="M.89-6.563H2.08l2.906 5.485v-5.484h.86V0H4.656L1.75-5.484V0H.89zm0 0"/></symbol><symbol overflow="visible" id="d"><path d="M.89-6.563h.876v2.688H5v-2.688h.89V0H5v-3.125H1.766V0H.89zm0 0"/></symbol><symbol overflow="visible" id="e"><path d="M3.547-5.953c-.65 0-1.164.242-1.547.72-.375.48-.563 1.13-.563 1.952 0 .835.188 1.49.563 1.967.383.48.898.72 1.547.72.644 0 1.156-.24 1.53-.72.376-.476.564-1.132.564-1.968 0-.822-.187-1.474-.562-1.954-.375-.477-.887-.72-1.53-.72zm0-.734c.914 0 1.648.312 2.203.937.55.617.828 1.438.828 2.47 0 1.042-.277 1.87-.828 2.483-.555.617-1.29.922-2.203.922-.93 0-1.668-.305-2.22-.922C.774-1.41.5-2.237.5-3.28c0-1.033.273-1.853.828-2.47.55-.625 1.29-.938 2.22-.938zm0 0"/></symbol></defs><g><path fill="#fff" d="M0 0h300v300H0z"/><path d="M35.25 160.547l9.656-4.465" stroke-width="1.2" stroke="#0c0" stroke-miterlimit="10" fill="none"/><path d="M44.906 156.082l9.653-4.465" stroke-width="1.2" stroke="#000" stroke-miterlimit="10" fill="none"/><path d="M25.25 155.047h10v11h-10zm0 0" fill="#fff"/><g fill="#0c0"><use xlink:href="#a" x="25.25" y="163.71"/><use xlink:href="#b" x="31.764" y="163.71"/></g><path d="M54.56 151.617l1.92-21.187M59.738 149.95L61.273 133M71.95 163.875l-17.39-12.258M56.48 130.43l19.31-8.93M75.79 121.5l17.39 12.258M74.645 126.816l13.91 9.805M93.18 133.758l-1.922 21.187M93.18 133.758l19.308-8.93M91.258 154.945l-19.31 8.93M87.227 151.293l-15.45 7.144M112.488 124.828l2.063-10.437" stroke-width="1.2" stroke="#000" stroke-miterlimit="10" fill="none"/><path d="M114.55 114.39l2.063-10.433" stroke-width="1.2" stroke="#00f" stroke-miterlimit="10" fill="none"/><path d="M117.813 123.71l1.648-8.35" stroke-width="1.2" stroke="#000" stroke-miterlimit="10" fill="none"/><path d="M119.46 115.36l1.653-8.348" stroke-width="1.2" stroke="#00f" stroke-miterlimit="10" fill="none"/><path d="M131.063 135.2l-18.575-10.372" stroke-width="1.2" stroke="#000" stroke-miterlimit="10" fill="none"/><path d="M116.613 103.957l21.125-2.527" stroke-width="1.2" stroke="#00f" stroke-miterlimit="10" fill="none"/><path d="M113.613 98.457h7v11h-7zm0 0" fill="#fff"/><use xlink:href="#c" x="113.613" y="107.12" fill="#00f"/><path d="M137.738 101.43l4.465 9.652" stroke-width="1.2" stroke="#00f" stroke-miterlimit="10" fill="none"/><path d="M142.203 111.082l4.465 9.656" stroke-width="1.2" stroke="#000" stroke-miterlimit="10" fill="none"/><path d="M130.738 95.93h14v11h-14zm0 0" fill="#fff"/><g fill="#00f"><use xlink:href="#c" x="130.738" y="104.593"/><use xlink:href="#d" x="137.716" y="104.593"/></g><path d="M146.668 120.738l-15.606 14.46M141.707 118.512l-12.484 11.57M146.668 120.738l20.87 4.125M131.063 135.2l2.527 21.124M133.59 156.324l-8.516 6.375" stroke-width="1.2" stroke="#000" stroke-miterlimit="10" fill="none"/><path d="M125.074 162.7l-8.515 6.374" stroke-width="1.2" stroke="#00f" stroke-miterlimit="10" fill="none"/><path d="M134.887 161.605l-6.813 5.102" stroke-width="1.2" stroke="#000" stroke-miterlimit="10" fill="none"/><path d="M128.074 166.707l-6.812 5.098" stroke-width="1.2" stroke="#00f" stroke-miterlimit="10" fill="none"/><path d="M153.148 164.695l-19.558-8.37" stroke-width="1.2" stroke="#000" stroke-miterlimit="10" fill="none"/><path d="M116.56 169.074l1.26 10.563" stroke-width="1.2" stroke="#00f" stroke-miterlimit="10" fill="none"/><path d="M117.82 179.637l1.266 10.562" stroke-width="1.2" stroke="#000" stroke-miterlimit="10" fill="none"/><path d="M113.56 163.574h7v11h-7zm0 0" fill="#fff"/><use xlink:href="#c" x="113.559" y="172.237" fill="#00f"/><path d="M119.086 190.2l9.777 4.183" stroke-width="1.2" stroke="#000" stroke-miterlimit="10" fill="none"/><path d="M128.863 194.383l9.782 4.187" stroke-width="1.2" stroke="#00f" stroke-miterlimit="10" fill="none"/><path d="M123.012 186.434l7.824 3.347" stroke-width="1.2" stroke="#000" stroke-miterlimit="10" fill="none"/><path d="M130.836 189.78l7.82 3.353M138.645 198.57l8.515-6.375" stroke-width="1.2" stroke="#00f" stroke-miterlimit="10" fill="none"/><path d="M147.16 192.195l8.512-6.375" stroke-width="1.2" stroke="#000" stroke-miterlimit="10" fill="none"/><path d="M135.645 193.07h7v11h-7zm0 0" fill="#fff"/><use xlink:href="#c" x="135.645" y="201.733" fill="#00f"/><path d="M155.672 185.82l-2.524-21.125M150.45 184.305l-2.02-16.903M167.54 124.863L174.4 145M181.547 108.852l-14.008 16.01M174.402 145l20.87 4.125M195.273 149.125l7.004-8.008" stroke-width="1.2" stroke="#000" stroke-miterlimit="10" fill="none"/><path d="M202.277 141.117l7.004-8.004M209.28 133.113l-3.428-10.07" stroke-width="1.2" stroke="#00f" stroke-miterlimit="10" fill="none"/><path d="M205.852 123.043l-3.434-10.066" stroke-width="1.2" stroke="#000" stroke-miterlimit="10" fill="none"/><path d="M209.28 133.113l10.44 2.063" stroke-width="1.2" stroke="#00f" stroke-miterlimit="10" fill="none"/><path d="M219.72 135.176l10.432 2.062" stroke-width="1.2" stroke="#000" stroke-miterlimit="10" fill="none"/><path d="M206.28 127.613h7v11h-7zm0 0" fill="#fff"/><use xlink:href="#c" x="206.281" y="136.276" fill="#00f"/><path d="M202.418 112.977l-20.87-4.125M232.035 138.887l7.004-8.008" stroke-width="1.2" stroke="#000" stroke-miterlimit="10" fill="none"/><path d="M239.04 130.88l7.003-8.005" stroke-width="1.2" stroke="#f00" stroke-miterlimit="10" fill="none"/><path d="M228.27 135.59l7.003-8.008" stroke-width="1.2" stroke="#000" stroke-miterlimit="10" fill="none"/><path d="M235.273 127.582l7.004-8.004" stroke-width="1.2" stroke="#f00" stroke-miterlimit="10" fill="none"/><path d="M230.152 137.238l6.864 20.137" stroke-width="1.2" stroke="#000" stroke-miterlimit="10" fill="none"/><path d="M240.16 115.727h8v11h-8zm0 0" fill="#fff"/><use xlink:href="#e" x="240.16" y="124.39" fill="#f00"/><path d="M237.016 157.375l10.437 2.063" stroke-width="1.2" stroke="#000" stroke-miterlimit="10" fill="none"/><path d="M247.453 159.438l10.434 2.062M257.887 161.5l3.433 10.07" stroke-width="1.2" stroke="#f00" stroke-miterlimit="10" fill="none"/><path d="M261.32 171.57l3.43 10.067" stroke-width="1.2" stroke="#000" stroke-miterlimit="10" fill="none"/><path d="M253.887 156h8v11h-8zm0 0" fill="#fff"/><use xlink:href="#e" x="253.887" y="164.663" fill="#f00"/></g></svg>