<svg xmlns="http://www.w3.org/2000/svg" xmlns:xlink="http://www.w3.org/1999/xlink" width="300pt" height="300pt" viewBox="0 0 300 300"><defs><symbol overflow="visible"><path d="M.453 1.594v-7.938h4.5v7.938zm.5-.5h3.5v-6.938h-3.5zm0 0"/></symbol><symbol overflow="visible" id="a"><path d="M5.797-6.063v.938c-.305-.27-.625-.473-.97-.61-.335-.144-.686-.218-1.06-.218-.75 0-1.33.23-1.736.687-.397.46-.592 1.12-.592 1.985 0 .866.195 1.526.593 1.983.408.46.986.688 1.736.688.375 0 .726-.066 1.062-.203.344-.132.664-.343.97-.625V-.5c-.314.21-.642.367-.986.47-.343.1-.714.155-1.11.155-.99 0-1.772-.3-2.343-.906C.784-1.396.5-2.228.5-3.28c0-1.052.285-1.88.86-2.486.57-.613 1.35-.92 2.343-.92.395-.002.766.053 1.11.155.35.104.68.26.984.468zm0 0"/></symbol><symbol overflow="visible" id="b"><path d="M.844-6.844h.812V0H.844zm0 0"/></symbol><symbol overflow="visible" id="c"><path d="M.89-6.563H2.08l2.906 5.485v-5.484h.86V0H4.656L1.75-5.484V0H.89zm0 0"/></symbol><symbol overflow="visible" id="d"><path d="M.89-6.563h.876v2.688H5v-2.688h.89V0H5v-3.125H1.766V0H.89zm0 0"/></symbol><symbol overflow="visible" id="f"><path d="M3.547-5.953c-.65 0-1.164.242-1.547.72-.375.48-.563 1.13-.563 1.952 0 .835.188 1.49.563 1.967.383.48.898.72 1.547.72.644 0 1.156-.24 1.53-.72.376-.476.564-1.132.564-1.968 0-.822-.187-1.474-.562-1.954-.375-.477-.887-.72-1.53-.72zm0-.734c.914 0 1.648.312 2.203.937.55.617.828 1.438.828 2.47 0 1.042-.277 1.87-.828 2.483-.555.617-1.29.922-2.203.922-.93 0-1.668-.305-2.22-.922C.774-1.41.5-2.237.5-3.28c0-1.033.273-1.853.828-2.47.55-.625 1.29-.938 2.22-.938zm0 0"/></symbol><symbol overflow="visible"><path d="M.406 1.422V-5.64h4V1.42zM.844.97h3.11v-6.157H.843zm0 0"/></symbol><symbol overflow="visible" id="e"><path d="M3.688-5.016v2.172h2.17v.672H3.69V0H3.03v-2.172H.845v-.672H3.03v-2.172zm0 0"/></symbol></defs><g><path fill="#fff" d="M0 0h300v300H0z"/><path d="M35.25 157.703l10.09-4.308" stroke-width="1.2" stroke="#0c0" stroke-miterlimit="10" fill="none"/><path d="M45.34 153.395l10.094-4.305" stroke-width="1.2" stroke="#000" stroke-miterlimit="10" fill="none"/><path d="M25.25 152.203h10v11h-10zm0 0" fill="#fff"/><g fill="#0c0"><use xlink:href="#a" x="25.25" y="160.866"/><use xlink:href="#b" x="31.764" y="160.866"/></g><path d="M55.434 149.09l2.632-21.785M60.82 147.53l2.11-17.425M72.98 162.262L55.434 149.09M58.066 127.305l20.184-8.61M78.25 118.695l17.547 13.172M76.902 124.14l14.043 10.54M95.797 131.867l-2.633 21.785M95.797 131.867l20.183-8.613M93.164 153.652l-20.184 8.61M89.12 149.762l-16.147 6.89M115.98 123.254l2.45-10.695" stroke-width="1.2" stroke="#000" stroke-miterlimit="10" fill="none"/><path d="M118.43 112.56l2.445-10.697" stroke-width="1.2" stroke="#00f" stroke-miterlimit="10" fill="none"/><path d="M121.504 122.27l1.957-8.56" stroke-width="1.2" stroke="#000" stroke-miterlimit="10" fill="none"/><path d="M123.46 113.71l1.958-8.554" stroke-width="1.2" stroke="#00f" stroke-miterlimit="10" fill="none"/><path d="M134.813 134.52l-18.833-11.266" stroke-width="1.2" stroke="#000" stroke-miterlimit="10" fill="none"/><path d="M120.875 101.863l21.86-1.953" stroke-width="1.2" stroke="#00f" stroke-miterlimit="10" fill="none"/><path d="M117.875 96.363h7v11h-7zm0 0" fill="#fff"/><use xlink:href="#c" x="117.875" y="105.026" fill="#00f"/><path d="M142.734 99.91l4.305 10.094" stroke-width="1.2" stroke="#00f" stroke-miterlimit="10" fill="none"/><path d="M147.04 110.004l4.304 10.09" stroke-width="1.2" stroke="#000" stroke-miterlimit="10" fill="none"/><path d="M135.734 94.41h14v11h-14zm0 0" fill="#fff"/><g fill="#00f"><use xlink:href="#c" x="135.734" y="103.073"/><use xlink:href="#d" x="142.712" y="103.073"/></g><path d="M151.344 120.094l-16.53 14.426M146.297 117.645l-13.227 11.543M151.344 120.094l21.39 4.894M134.813 134.52l1.953 21.855M136.766 156.375l-17.953 12.62M137.938 161.863l-14.36 10.094M156.668 165.613l-19.902-9.238M118.813 168.996l1.953 21.856M120.766 190.852l9.953 4.62" stroke-width="1.2" stroke="#000" stroke-miterlimit="10" fill="none"/><path d="M130.72 195.473l9.952 4.617" stroke-width="1.2" stroke="#00f" stroke-miterlimit="10" fill="none"/><path d="M124.93 187.094l7.965 3.695" stroke-width="1.2" stroke="#000" stroke-miterlimit="10" fill="none"/><path d="M132.895 190.79l7.96 3.69M140.672 200.09l8.976-6.313" stroke-width="1.2" stroke="#00f" stroke-miterlimit="10" fill="none"/><path d="M149.648 193.777l8.973-6.308" stroke-width="1.2" stroke="#000" stroke-miterlimit="10" fill="none"/><path d="M137.672 194.59h7v11h-7zm0 0" fill="#fff"/><use xlink:href="#c" x="137.672" y="203.253" fill="#00f"/><path d="M158.62 187.47l-1.952-21.857M153.285 185.742l-1.562-17.484M172.734 124.988l6.457 20.973M187.668 108.914l-14.934 16.074M179.19 145.96l21.388 4.9M200.578 150.86l7.47-8.04" stroke-width="1.2" stroke="#000" stroke-miterlimit="10" fill="none"/><path d="M208.047 142.82l7.47-8.04M215.516 134.78l-3.227-10.483" stroke-width="1.2" stroke="#00f" stroke-miterlimit="10" fill="none"/><path d="M212.29 124.297l-3.23-10.488" stroke-width="1.2" stroke="#000" stroke-miterlimit="10" fill="none"/><path d="M215.516 134.78l10.695 2.45" stroke-width="1.2" stroke="#00f" stroke-miterlimit="10" fill="none"/><path d="M226.21 137.23l10.696 2.446" stroke-width="1.2" stroke="#000" stroke-miterlimit="10" fill="none"/><path d="M205.516 127.28h21v15h-21zm0 0" fill="#fff"/><g fill="#00f"><use xlink:href="#c" x="205.516" y="139.383"/><use xlink:href="#d" x="212.493" y="139.383"/></g><use xlink:href="#e" x="219.508" y="134.5" fill="#00f"/><path d="M209.06 113.81l-21.392-4.896M236.906 139.676l6.453 20.972M243.36 160.648l10.695 2.45" stroke-width="1.2" stroke="#000" stroke-miterlimit="10" fill="none"/><path d="M254.055 163.098l10.695 2.45" stroke-width="1.2" stroke="#f00" stroke-miterlimit="10" fill="none"/><path d="M257.75 160.047h15v11h-15zm0 0" fill="#fff"/><g fill="#f00"><use xlink:href="#f" x="257.75" y="168.71"/><use xlink:href="#d" x="265.092" y="168.71"/></g></g></svg>