<svg xmlns="http://www.w3.org/2000/svg" xmlns:xlink="http://www.w3.org/1999/xlink" width="300pt" height="300pt" viewBox="0 0 300 300"><defs><symbol overflow="visible"><path d="M.453 1.594v-7.938h4.5v7.938zm.5-.5h3.5v-6.938h-3.5zm0 0"/></symbol><symbol overflow="visible" id="a"><path d="M3.547-5.953c-.65 0-1.164.242-1.547.72-.375.48-.563 1.13-.563 1.952 0 .835.188 1.49.563 1.967.383.48.898.72 1.547.72.644 0 1.156-.24 1.53-.72.376-.476.564-1.132.564-1.968 0-.822-.187-1.474-.562-1.954-.375-.477-.887-.72-1.53-.72zm0-.734c.914 0 1.648.312 2.203.937.55.617.828 1.438.828 2.47 0 1.042-.277 1.87-.828 2.483-.555.617-1.29.922-2.203.922-.93 0-1.668-.305-2.22-.922C.774-1.41.5-2.237.5-3.28c0-1.033.273-1.853.828-2.47.55-.625 1.29-.938 2.22-.938zm0 0"/></symbol><symbol overflow="visible" id="b"><path d="M.89-6.563H2.08l2.906 5.485v-5.484h.86V0H4.656L1.75-5.484V0H.89zm0 0"/></symbol><symbol overflow="visible" id="c"><path d="M.89-6.563h.876v2.688H5v-2.688h.89V0H5v-3.125H1.766V0H.89zm0 0"/></symbol></defs><g><path fill="#fff" d="M0 0h300v300H0z"/><path d="M80.363 190.81l3.852-7.373" stroke-width="1.2" stroke="#f00" stroke-miterlimit="10" fill="none"/><path d="M84.215 183.438l3.855-7.375" stroke-width="1.2" stroke="#000" stroke-miterlimit="10" fill="none"/><path d="M76.895 188.996l3.85-7.37" stroke-width="1.2" stroke="#f00" stroke-miterlimit="10" fill="none"/><path d="M80.746 181.625l3.852-7.375" stroke-width="1.2" stroke="#000" stroke-miterlimit="10" fill="none"/><path d="M70.63 184.402h8v11h-8zm0 0" fill="#fff"/><use xlink:href="#a" x="70.629" y="193.065" fill="#f00"/><path d="M86.336 175.156l8.312-.347" stroke-width="1.2" stroke="#000" stroke-miterlimit="10" fill="none"/><path d="M94.648 174.81l8.313-.353" stroke-width="1.2" stroke="#00f" stroke-miterlimit="10" fill="none"/><path d="M86.336 175.156l-8.918-14.047" stroke-width="1.2" stroke="#000" stroke-miterlimit="10" fill="none"/><path d="M102.96 174.457l4.458 7.023" stroke-width="1.2" stroke="#00f" stroke-miterlimit="10" fill="none"/><path d="M107.418 181.48l4.457 7.024" stroke-width="1.2" stroke="#000" stroke-miterlimit="10" fill="none"/><path d="M95.96 168.957h14v11h-14zm0 0" fill="#fff"/><g fill="#00f"><use xlink:href="#b" x="95.961" y="177.62"/><use xlink:href="#c" x="102.938" y="177.62"/></g><path d="M111.875 188.504l16.625-.7M128.5 187.805l7.707-14.746M132.742 188.145l6.164-11.797M137.418 201.855l-8.918-14.05M136.207 173.06l16.625-.7M152.832 172.36l3.856-7.372" stroke-width="1.2" stroke="#000" stroke-miterlimit="10" fill="none"/><path d="M156.688 164.988l3.85-7.375" stroke-width="1.2" stroke="#00f" stroke-miterlimit="10" fill="none"/><path d="M152.832 172.36l8.918 14.046M150.418 175.863l7.137 11.24" stroke-width="1.2" stroke="#000" stroke-miterlimit="10" fill="none"/><path d="M160.54 157.613l-7.403-14.902" stroke-width="1.2" stroke="#00f" stroke-miterlimit="10" fill="none"/><path d="M177 155.18l-8.23 1.218" stroke-width="1.2" stroke="#000" stroke-miterlimit="10" fill="none"/><path d="M168.77 156.398l-8.23 1.215" stroke-width="1.2" stroke="#00f" stroke-miterlimit="10" fill="none"/><path d="M157.54 152.113h7v11h-7zm0 0" fill="#fff"/><use xlink:href="#b" x="157.539" y="160.776" fill="#00f"/><path d="M153.137 142.71l5.945-5.823" stroke-width="1.2" stroke="#00f" stroke-miterlimit="10" fill="none"/><path d="M159.082 136.887l5.94-5.82" stroke-width="1.2" stroke="#000" stroke-miterlimit="10" fill="none"/><path d="M157.066 144.344l4.754-4.66" stroke-width="1.2" stroke="#00f" stroke-miterlimit="10" fill="none"/><path d="M161.82 139.684l4.758-4.657" stroke-width="1.2" stroke="#000" stroke-miterlimit="10" fill="none"/><path d="M150.137 137.21h7v11h-7zm0 0" fill="#fff"/><use xlink:href="#b" x="150.137" y="145.874" fill="#00f"/><path d="M165.023 131.066l14.75 7.707M165.023 131.066l-2.43-16.46M179.773 138.773L177 155.18M175.633 139.762l-2.215 13.125M177 155.18l5.82 5.945" stroke-width="1.2" stroke="#000" stroke-miterlimit="10" fill="none"/><path d="M182.82 161.125l5.825 5.94M188.645 167.066l8.054-2.07" stroke-width="1.2" stroke="#00f" stroke-miterlimit="10" fill="none"/><path d="M196.7 164.996l8.058-2.07" stroke-width="1.2" stroke="#000" stroke-miterlimit="10" fill="none"/><path d="M181.645 161.566h14v11h-14zm0 0" fill="#fff"/><g fill="#00f"><use xlink:href="#b" x="181.645" y="170.229"/><use xlink:href="#c" x="188.622" y="170.229"/></g><path d="M206.645 163.453l2.234-8.016" stroke-width="1.2" stroke="#000" stroke-miterlimit="10" fill="none"/><path d="M208.88 155.438l2.237-8.012" stroke-width="1.2" stroke="#f00" stroke-miterlimit="10" fill="none"/><path d="M202.875 162.398l2.234-8.01" stroke-width="1.2" stroke="#000" stroke-miterlimit="10" fill="none"/><path d="M205.11 154.387l2.234-8.012" stroke-width="1.2" stroke="#f00" stroke-miterlimit="10" fill="none"/><path d="M204.758 162.926l5.824 5.945" stroke-width="1.2" stroke="#000" stroke-miterlimit="10" fill="none"/><path d="M210.582 168.87l5.82 5.942" stroke-width="1.2" stroke="#00f" stroke-miterlimit="10" fill="none"/><path d="M205.23 141.398h8v11h-8zm0 0" fill="#fff"/><use xlink:href="#a" x="205.23" y="150.062" fill="#f00"/><path d="M216.402 174.813l8.06-2.07" stroke-width="1.2" stroke="#00f" stroke-miterlimit="10" fill="none"/><path d="M224.46 172.742l8.06-2.07" stroke-width="1.2" stroke="#000" stroke-miterlimit="10" fill="none"/><path d="M209.402 169.313h14v11h-14zm0 0" fill="#fff"/><g fill="#00f"><use xlink:href="#b" x="209.402" y="177.976"/><use xlink:href="#c" x="216.38" y="177.976"/></g><path d="M232.52 170.672l11.64 11.887M236.48 169.12l9.313 9.51M236.992 154.645l-4.472 16.027M244.16 182.56l16.117-4.142M260.277 178.418l4.473-16.027M256.953 175.766l3.578-12.825M264.75 162.39l-11.645-11.886M253.105 150.504l-16.113 4.14M252.47 154.71l-12.892 3.313M162.594 114.605l16.457-2.433M162.594 114.605l-16.46 2.434M162.594 114.605l-2.434-16.46M161.75 186.406l-7.707 14.75M154.043 201.156l-16.625.7M152.215 197.313l-13.297.558M77.418 161.11l-8.313.347" stroke-width="1.2" stroke="#000" stroke-miterlimit="10" fill="none"/><path d="M69.105 161.457l-8.312.352M60.793 161.81l-4.46-7.025" stroke-width="1.2" stroke="#00f" stroke-miterlimit="10" fill="none"/><path d="M56.332 154.785l-4.457-7.023" stroke-width="1.2" stroke="#000" stroke-miterlimit="10" fill="none"/><path d="M53.793 156.31h14v11h-14zm0 0" fill="#fff"/><g fill="#00f"><use xlink:href="#b" x="53.793" y="164.972"/><use xlink:href="#c" x="60.771" y="164.972"/></g><path d="M53.61 148.668l3.85-7.375" stroke-width="1.2" stroke="#000" stroke-miterlimit="10" fill="none"/><path d="M57.46 141.293l3.856-7.37" stroke-width="1.2" stroke="#f00" stroke-miterlimit="10" fill="none"/><path d="M50.14 146.855l3.852-7.375" stroke-width="1.2" stroke="#000" stroke-miterlimit="10" fill="none"/><path d="M53.992 139.48l3.856-7.375" stroke-width="1.2" stroke="#f00" stroke-miterlimit="10" fill="none"/><path d="M51.875 147.762l-16.625.7" stroke-width="1.2" stroke="#000" stroke-miterlimit="10" fill="none"/><path d="M55.582 127.516h8v11h-8zm0 0" fill="#fff"/><use xlink:href="#a" x="55.582" y="136.179" fill="#f00"/></g></svg>