<svg xmlns="http://www.w3.org/2000/svg" xmlns:xlink="http://www.w3.org/1999/xlink" width="300pt" height="300pt" viewBox="0 0 300 300"><defs><symbol overflow="visible"><path d="M.453 1.594v-7.938h4.5v7.938zm.5-.5h3.5v-6.938h-3.5zm0 0"/></symbol><symbol overflow="visible" id="a"><path d="M5.797-6.063v.938c-.305-.27-.625-.473-.97-.61-.335-.144-.686-.218-1.06-.218-.75 0-1.33.23-1.736.687-.397.46-.592 1.12-.592 1.985 0 .866.195 1.526.593 1.983.408.46.986.688 1.736.688.375 0 .726-.066 1.062-.203.344-.132.664-.343.97-.625V-.5c-.314.21-.642.367-.986.47-.343.1-.714.155-1.11.155-.99 0-1.772-.3-2.343-.906C.784-1.396.5-2.228.5-3.28c0-1.052.285-1.88.86-2.486.57-.613 1.35-.92 2.343-.92.395-.002.766.053 1.11.155.35.104.68.26.984.468zm0 0"/></symbol><symbol overflow="visible" id="b"><path d="M.844-6.844h.812V0H.844zm0 0"/></symbol><symbol overflow="visible" id="c"><path d="M.89-6.563H2.08l2.906 5.485v-5.484h.86V0H4.656L1.75-5.484V0H.89zm0 0"/></symbol><symbol overflow="visible" id="d"><path d="M.89-6.563h.876v2.688H5v-2.688h.89V0H5v-3.125H1.766V0H.89zm0 0"/></symbol><symbol overflow="visible" id="f"><path d="M3.547-5.953c-.65 0-1.164.242-1.547.72-.375.48-.563 1.13-.563 1.952 0 .835.188 1.49.563 1.967.383.48.898.72 1.547.72.644 0 1.156-.24 1.53-.72.376-.476.564-1.132.564-1.968 0-.822-.187-1.474-.562-1.954-.375-.477-.887-.72-1.53-.72zm0-.734c.914 0 1.648.312 2.203.937.55.617.828 1.438.828 2.47 0 1.042-.277 1.87-.828 2.483-.555.617-1.29.922-2.203.922-.93 0-1.668-.305-2.22-.922C.774-1.41.5-2.237.5-3.28c0-1.033.273-1.853.828-2.47.55-.625 1.29-.938 2.22-.938zm0 0"/></symbol><symbol overflow="visible"><path d="M.406 1.422V-5.64h4V1.42zM.844.97h3.11v-6.157H.843zm0 0"/></symbol><symbol overflow="visible" id="e"><path d="M3.688-5.016v2.172h2.17v.672H3.69V0H3.03v-2.172H.845v-.672H3.03v-2.172zm0 0"/></symbol><symbol overflow="visible" id="g"><path d="M1.53-.672h2.767V0H.594v-.672c.29-.3.695-.71 1.22-1.234.518-.532.842-.867.967-1.016.26-.28.44-.52.533-.72.1-.194.156-.39.156-.577 0-.31-.11-.565-.33-.764-.218-.196-.5-.297-.843-.297-.25 0-.516.046-.797.14-.273.085-.563.214-.875.39v-.797c.32-.133.617-.234.89-.297.282-.062.536-.093.766-.093.603 0 1.083.152 1.44.453.362.304.546.703.546 1.203 0 .24-.047.468-.14.686-.095.22-.26.477-.485.766-.074.074-.288.293-.64.656-.344.356-.836.856-1.47 1.5zm0 0"/></symbol></defs><g><path fill="#fff" d="M0 0h300v300H0z"/><path d="M35.25 206.148l9.988-2.285" stroke-width="1.2" stroke="#0c0" stroke-miterlimit="10" fill="none"/><path d="M45.238 203.863l9.985-2.29" stroke-width="1.2" stroke="#000" stroke-miterlimit="10" fill="none"/><path d="M25.25 200.648h10v11h-10zm0 0" fill="#fff"/><g fill="#0c0"><use xlink:href="#a" x="25.25" y="209.312"/><use xlink:href="#b" x="31.764" y="209.312"/></g><path d="M55.223 201.574l6.027-19.582M60.434 201.035l4.82-15.668M69.168 216.586l-13.945-15.012M61.25 181.992l19.973-4.574M81.223 177.418l13.945 15.012M79.086 182.203l11.156 12.008M81.223 177.418l6.027-19.582M95.168 192.43l-6.023 19.582M89.145 212.012l-19.977 4.574M86.07 207.77l-15.98 3.66M87.25 157.836l9.984-2.285" stroke-width="1.2" stroke="#000" stroke-miterlimit="10" fill="none"/><path d="M97.234 155.55l9.99-2.288M107.223 153.262l3.01-9.79" stroke-width="1.2" stroke="#00f" stroke-miterlimit="10" fill="none"/><path d="M110.234 143.473l3.016-9.793" stroke-width="1.2" stroke="#000" stroke-miterlimit="10" fill="none"/><path d="M100.223 147.762h14v11h-14zm0 0" fill="#fff"/><g fill="#00f"><use xlink:href="#c" x="100.223" y="156.425"/><use xlink:href="#d" x="107.2" y="156.425"/></g><path d="M113.25 133.68l9.984-2.285" stroke-width="1.2" stroke="#000" stroke-miterlimit="10" fill="none"/><path d="M123.234 131.395l9.99-2.29" stroke-width="1.2" stroke="#00f" stroke-miterlimit="10" fill="none"/><path d="M114.168 128.523l7.992-1.828" stroke-width="1.2" stroke="#000" stroke-miterlimit="10" fill="none"/><path d="M122.16 126.695l7.988-1.832" stroke-width="1.2" stroke="#00f" stroke-miterlimit="10" fill="none"/><path d="M99.3 118.668l13.95 15.012" stroke-width="1.2" stroke="#000" stroke-miterlimit="10" fill="none"/><path d="M133.223 129.105l6.023-19.582" stroke-width="1.2" stroke="#00f" stroke-miterlimit="10" fill="none"/><path d="M123.223 121.605h21v15h-21zm0 0" fill="#fff"/><g fill="#00f"><use xlink:href="#c" x="123.223" y="133.707"/><use xlink:href="#d" x="130.2" y="133.707"/></g><use xlink:href="#e" x="137.215" y="128.824" fill="#00f"/><path d="M139.246 109.523l-6.973-7.503" stroke-width="1.2" stroke="#00f" stroke-miterlimit="10" fill="none"/><path d="M132.273 102.02l-6.972-7.508M157.832 100.898l-9.293 4.313" stroke-width="1.2" stroke="#000" stroke-miterlimit="10" fill="none"/><path d="M148.54 105.21l-9.294 4.313" stroke-width="1.2" stroke="#00f" stroke-miterlimit="10" fill="none"/><path d="M136.246 104.023h7v11h-7zm0 0" fill="#fff"/><use xlink:href="#c" x="136.246" y="112.687" fill="#00f"/><path d="M125.3 94.512l4.985-8.95" stroke-width="1.2" stroke="#000" stroke-miterlimit="10" fill="none"/><path d="M130.285 85.563l4.98-8.954" stroke-width="1.2" stroke="#00f" stroke-miterlimit="10" fill="none"/><path d="M130.512 95.066l3.984-7.16" stroke-width="1.2" stroke="#000" stroke-miterlimit="10" fill="none"/><path d="M134.496 87.906l3.988-7.16" stroke-width="1.2" stroke="#00f" stroke-miterlimit="10" fill="none"/><path d="M125.3 94.512l-19.972 4.574" stroke-width="1.2" stroke="#000" stroke-miterlimit="10" fill="none"/><path d="M135.266 76.61l10.054 1.972" stroke-width="1.2" stroke="#00f" stroke-miterlimit="10" fill="none"/><path d="M145.32 78.582l10.055 1.973" stroke-width="1.2" stroke="#000" stroke-miterlimit="10" fill="none"/><path d="M132.266 71.11h7v11h-7zm0 0" fill="#fff"/><use xlink:href="#c" x="132.266" y="79.772" fill="#00f"/><path d="M155.375 80.555l2.457 20.343M150.832 83.168l1.97 16.273M157.832 100.898l17.902 9.965M175.734 110.863l.32 20.49M180.59 112.836l.254 16.39M193.32 100.344l-17.586 10.52M176.055 131.352l17.902 9.964M193.957 141.316l17.586-10.52M193.242 136.13l14.067-8.42M211.543 130.797l-.32-20.488M211.543 130.797l17.902 9.965M211.223 110.31l-17.903-9.966M207.086 113.523l-14.324-7.972M230.684 142.832l8.79-5.262" stroke-width="1.2" stroke="#000" stroke-miterlimit="10" fill="none"/><path d="M239.473 137.57l8.793-5.26" stroke-width="1.2" stroke="#f00" stroke-miterlimit="10" fill="none"/><path d="M228.207 138.695l8.79-5.26" stroke-width="1.2" stroke="#000" stroke-miterlimit="10" fill="none"/><path d="M236.996 133.434l8.793-5.262" stroke-width="1.2" stroke="#f00" stroke-miterlimit="10" fill="none"/><path d="M229.445 140.762l.16 10.246" stroke-width="1.2" stroke="#000" stroke-miterlimit="10" fill="none"/><path d="M229.605 151.008l.16 10.242" stroke-width="1.2" stroke="#00f" stroke-miterlimit="10" fill="none"/><path d="M243.027 124.742h8v11h-8zm0 0" fill="#fff"/><use xlink:href="#f" x="243.027" y="133.405" fill="#f00"/><path d="M229.766 161.25l8.95 4.984" stroke-width="1.2" stroke="#00f" stroke-miterlimit="10" fill="none"/><path d="M238.715 166.234l8.953 4.98" stroke-width="1.2" stroke="#000" stroke-miterlimit="10" fill="none"/><path d="M222.766 155.75h14v11h-14zm0 0" fill="#fff"/><g fill="#00f"><use xlink:href="#c" x="222.766" y="164.413"/><use xlink:href="#d" x="229.743" y="164.413"/></g><path d="M247.988 191.703l3.293-20.543-7.23.113zm0 0"/><path d="M247.988 191.703l8.38 5.89" stroke-width="1.2" stroke="#000" stroke-miterlimit="10" fill="none"/><path d="M256.367 197.594l8.383 5.894" stroke-width="1.2" stroke="#00f" stroke-miterlimit="10" fill="none"/><path d="M231.602 204.004l16.386-12.3" stroke-width="1.2" stroke="#000" stroke-miterlimit="10" fill="none"/><path d="M264.75 203.488l-3.012 9.79" stroke-width="1.2" stroke="#00f" stroke-miterlimit="10" fill="none"/><path d="M261.738 213.277l-3.015 9.793" stroke-width="1.2" stroke="#000" stroke-miterlimit="10" fill="none"/><path d="M251.75 193.988h26v19h-26zm0 0" fill="#fff"/><g fill="#00f"><use xlink:href="#c" x="251.75" y="206.09"/><use xlink:href="#d" x="258.728" y="206.09"/></g><use xlink:href="#g" x="265.742" y="210.973" fill="#00f"/><use xlink:href="#e" x="270.692" y="201.207" fill="#00f"/><path d="M258.723 223.07l-20.485.32M238.238 223.39l-6.636-19.386M105.328 99.086L99.3 118.668M109.332 102.46l-4.82 15.67" stroke-width="1.2" stroke="#000" stroke-miterlimit="10" fill="none"/></g></svg>