<svg xmlns="http://www.w3.org/2000/svg" xmlns:xlink="http://www.w3.org/1999/xlink" width="300pt" height="300pt" viewBox="0 0 300 300"><defs><symbol overflow="visible"><path d="M.453 1.594v-7.938h4.5v7.938zm.5-.5h3.5v-6.938h-3.5zm0 0"/></symbol><symbol overflow="visible" id="a"><path d="M.89-6.563h3.766v.75h-2.89v1.938h2.61v.734h-2.61V0H.89zm0 0"/></symbol><symbol overflow="visible" id="b"><path d="M.89-6.563H2.08l2.906 5.485v-5.484h.86V0H4.656L1.75-5.484V0H.89zm0 0"/></symbol><symbol overflow="visible" id="c"><path d="M3.547-5.953c-.65 0-1.164.242-1.547.72-.375.48-.563 1.13-.563 1.952 0 .835.188 1.49.563 1.967.383.48.898.72 1.547.72.644 0 1.156-.24 1.53-.72.376-.476.564-1.132.564-1.968 0-.822-.187-1.474-.562-1.954-.375-.477-.887-.72-1.53-.72zm0-.734c.914 0 1.648.312 2.203.937.55.617.828 1.438.828 2.47 0 1.042-.277 1.87-.828 2.483-.555.617-1.29.922-2.203.922-.93 0-1.668-.305-2.22-.922C.774-1.41.5-2.237.5-3.28c0-1.033.273-1.853.828-2.47.55-.625 1.29-.938 2.22-.938zm0 0"/></symbol><symbol overflow="visible" id="d"><path d="M.89-6.563h.876v2.688H5v-2.688h.89V0H5v-3.125H1.766V0H.89zm0 0"/></symbol></defs><g><path fill="#fff" d="M0 0h300v300H0z"/><path d="M84.152 187.79l-.043-9.352" stroke-width="1.2" stroke="#3cc" stroke-miterlimit="10" fill="none"/><path d="M84.11 178.438l-.044-9.352" stroke-width="1.2" stroke="#000" stroke-miterlimit="10" fill="none"/><path d="M81.152 182.29h6v11h-6zm0 0" fill="#fff"/><use xlink:href="#a" x="81.152" y="190.952" fill="#3cc"/><path d="M84.066 169.086l-16.242-9.274M84.625 164.336l-12.996-7.418M100.22 159.66l-16.154 9.426M67.824 159.813l-.09-18.704M67.734 141.11l16.153-9.43M71.57 143.965l12.922-7.543M67.734 141.11l-16.242-9.278M83.887 131.68l16.242 9.273M100.13 140.953l.09 18.707M95.738 142.844l.07 14.965M100.22 159.66l16.24 9.274M116.46 168.934l.044 9.35" stroke-width="1.2" stroke="#000" stroke-miterlimit="10" fill="none"/><path d="M116.504 178.285l.047 9.352" stroke-width="1.2" stroke="#00f" stroke-miterlimit="10" fill="none"/><path d="M120.87 170.785l.036 7.48" stroke-width="1.2" stroke="#000" stroke-miterlimit="10" fill="none"/><path d="M120.906 178.266l.035 7.48" stroke-width="1.2" stroke="#00f" stroke-miterlimit="10" fill="none"/><path d="M132.617 159.504l-16.156 9.43" stroke-width="1.2" stroke="#000" stroke-miterlimit="10" fill="none"/><path d="M116.55 187.637l16.243 9.277" stroke-width="1.2" stroke="#00f" stroke-miterlimit="10" fill="none"/><path d="M113.55 182.137h7v11h-7zm0 0" fill="#fff"/><use xlink:href="#b" x="113.551" y="190.8" fill="#00f"/><path d="M132.793 196.914l8.074-4.715" stroke-width="1.2" stroke="#00f" stroke-miterlimit="10" fill="none"/><path d="M140.867 192.2l8.078-4.716" stroke-width="1.2" stroke="#000" stroke-miterlimit="10" fill="none"/><path d="M132.188 192.168l6.464-3.77" stroke-width="1.2" stroke="#00f" stroke-miterlimit="10" fill="none"/><path d="M138.652 188.398l6.46-3.773" stroke-width="1.2" stroke="#000" stroke-miterlimit="10" fill="none"/><path d="M129.793 191.414h7v11h-7zm0 0" fill="#fff"/><use xlink:href="#b" x="129.793" y="200.077" fill="#00f"/><path d="M148.945 187.484l-.086-18.703M148.86 168.78l16.152-9.428M132.617 159.504l16.242 9.277M132.06 164.254l12.99 7.422M165.012 159.352l-.09-18.704M160.602 157.504l-.07-14.965M164.922 140.648l16.156-9.43M164.922 140.648l-16.242-9.277M181.078 131.22l16.242 9.276M184.883 128.324l12.996 7.422M180.988 112.516l.09 18.703M197.32 140.496l16.153-9.43M213.473 131.066l-.043-9.35" stroke-width="1.2" stroke="#000" stroke-miterlimit="10" fill="none"/><path d="M213.43 121.715l-.047-9.352" stroke-width="1.2" stroke="#00f" stroke-miterlimit="10" fill="none"/><path d="M209.063 129.215l-.036-7.48" stroke-width="1.2" stroke="#000" stroke-miterlimit="10" fill="none"/><path d="M209.027 121.734l-.035-7.48" stroke-width="1.2" stroke="#00f" stroke-miterlimit="10" fill="none"/><path d="M213.473 131.066l16.242 9.274" stroke-width="1.2" stroke="#000" stroke-miterlimit="10" fill="none"/><path d="M213.383 112.363l-8.12-4.636" stroke-width="1.2" stroke="#00f" stroke-miterlimit="10" fill="none"/><path d="M205.262 107.727l-8.12-4.64" stroke-width="1.2" stroke="#000" stroke-miterlimit="10" fill="none"/><path d="M210.383 106.863h7v11h-7zm0 0" fill="#fff"/><use xlink:href="#b" x="210.383" y="115.526" fill="#00f"/><path d="M197.14 103.086l-16.152 9.43M197.746 107.832l-12.922 7.543M180.988 112.516l-16.242-9.278M230.824 142.242l8.078-4.715" stroke-width="1.2" stroke="#000" stroke-miterlimit="10" fill="none"/><path d="M238.902 137.527l8.075-4.714" stroke-width="1.2" stroke="#f00" stroke-miterlimit="10" fill="none"/><path d="M228.605 138.44l8.08-4.713" stroke-width="1.2" stroke="#000" stroke-miterlimit="10" fill="none"/><path d="M236.684 133.727l8.078-4.715" stroke-width="1.2" stroke="#f00" stroke-miterlimit="10" fill="none"/><path d="M229.715 140.34l.043 9.355" stroke-width="1.2" stroke="#000" stroke-miterlimit="10" fill="none"/><path d="M229.758 149.695l.047 9.352" stroke-width="1.2" stroke="#00f" stroke-miterlimit="10" fill="none"/><path d="M241.87 125.414h8v11h-8zm0 0" fill="#fff"/><use xlink:href="#c" x="241.871" y="134.077" fill="#f00"/><path d="M229.805 159.047l8.12 4.637" stroke-width="1.2" stroke="#00f" stroke-miterlimit="10" fill="none"/><path d="M237.926 163.684l8.12 4.636" stroke-width="1.2" stroke="#000" stroke-miterlimit="10" fill="none"/><path d="M222.805 153.547h14v11h-14zm0 0" fill="#fff"/><g fill="#00f"><use xlink:href="#b" x="222.805" y="162.21"/><use xlink:href="#d" x="229.782" y="162.21"/></g><path d="M246.047 168.32l18.703-.086M255.477 184.477l-9.43-16.157M264.75 168.234l-9.273 16.243M150.883 131.363l-.047-9.35" stroke-width="1.2" stroke="#000" stroke-miterlimit="10" fill="none"/><path d="M150.836 122.012l-.043-9.352" stroke-width="1.2" stroke="#f00" stroke-miterlimit="10" fill="none"/><path d="M146.48 131.383l-.042-9.352" stroke-width="1.2" stroke="#000" stroke-miterlimit="10" fill="none"/><path d="M146.438 122.03l-.047-9.35" stroke-width="1.2" stroke="#f00" stroke-miterlimit="10" fill="none"/><path d="M148.68 131.37l-8.075 4.716" stroke-width="1.2" stroke="#000" stroke-miterlimit="10" fill="none"/><path d="M140.605 136.086l-8.078 4.715" stroke-width="1.2" stroke="#00f" stroke-miterlimit="10" fill="none"/><path d="M144.594 107.168h8v11h-8zm0 0" fill="#fff"/><use xlink:href="#c" x="144.594" y="115.831" fill="#f00"/><path d="M132.527 140.8l.043 9.352" stroke-width="1.2" stroke="#00f" stroke-miterlimit="10" fill="none"/><path d="M132.57 150.152l.047 9.352" stroke-width="1.2" stroke="#000" stroke-miterlimit="10" fill="none"/><path d="M132.527 140.8l-8.12-4.636" stroke-width="1.2" stroke="#00f" stroke-miterlimit="10" fill="none"/><path d="M124.406 136.164l-8.12-4.637" stroke-width="1.2" stroke="#000" stroke-miterlimit="10" fill="none"/><path d="M129.527 135.3h7v11h-7zm0 0" fill="#fff"/><use xlink:href="#b" x="129.527" y="143.964" fill="#00f"/><path d="M51.492 131.832l-8.12-4.637" stroke-width="1.2" stroke="#000" stroke-miterlimit="10" fill="none"/><path d="M43.37 127.195l-8.12-4.636" stroke-width="1.2" stroke="#3cc" stroke-miterlimit="10" fill="none"/><path d="M51.492 131.832l4.637-8.12" stroke-width="1.2" stroke="#000" stroke-miterlimit="10" fill="none"/><path d="M56.13 123.71l4.64-8.12" stroke-width="1.2" stroke="#3cc" stroke-miterlimit="10" fill="none"/><path d="M51.492 131.832l-4.637 8.12" stroke-width="1.2" stroke="#000" stroke-miterlimit="10" fill="none"/><path d="M46.855 139.953l-4.636 8.12" stroke-width="1.2" stroke="#3cc" stroke-miterlimit="10" fill="none"/><path d="M29.25 117.06h6v11h-6zm0 0" fill="#fff"/><use xlink:href="#a" x="29.25" y="125.722" fill="#3cc"/><path d="M57.77 110.09h6v11h-6zm0 0" fill="#fff"/><use xlink:href="#a" x="57.77" y="118.753" fill="#3cc"/><path d="M36.22 142.574h6v11h-6zm0 0" fill="#fff"/><use xlink:href="#a" x="36.219" y="151.237" fill="#3cc"/></g></svg>