<svg xmlns="http://www.w3.org/2000/svg" xmlns:xlink="http://www.w3.org/1999/xlink" width="300pt" height="300pt" viewBox="0 0 300 300"><defs><symbol overflow="visible"><path d="M.453 1.594v-7.938h4.5v7.938zm.5-.5h3.5v-6.938h-3.5zm0 0"/></symbol><symbol overflow="visible" id="a"><path d="M4.813-6.344v.86c-.336-.157-.653-.27-.954-.344-.294-.082-.58-.125-.86-.125-.492 0-.867.094-1.125.28-.262.19-.39.454-.39.798 0 .293.085.512.265.656.176.15.504.267.984.36l.547.11c.658.125 1.142.352 1.454.672.32.312.485.734.485 1.265 0 .637-.216 1.122-.642 1.454-.43.325-1.055.485-1.875.485-.312 0-.648-.04-1-.11C1.36-.046 1-.147.625-.296v-.906c.352.2.703.35 1.047.453.35.105.695.156 1.03.156.5 0 .884-.097 1.157-.297.28-.196.42-.485.42-.86 0-.32-.1-.57-.296-.75-.2-.176-.523-.313-.968-.406l-.547-.11C1.81-3.148 1.33-3.36 1.03-3.64.74-3.923.595-4.313.595-4.813c0-.57.203-1.024.61-1.36.405-.344.968-.516 1.687-.516.313 0 .626.032.938.094.32.055.65.137.985.25zm0 0"/></symbol><symbol overflow="visible" id="b"><path d="M.89-6.563H2.08l2.906 5.485v-5.484h.86V0H4.656L1.75-5.484V0H.89zm0 0"/></symbol><symbol overflow="visible" id="c"><path d="M3.547-5.953c-.65 0-1.164.242-1.547.72-.375.48-.563 1.13-.563 1.952 0 .835.188 1.49.563 1.967.383.48.898.72 1.547.72.644 0 1.156-.24 1.53-.72.376-.476.564-1.132.564-1.968 0-.822-.187-1.474-.562-1.954-.375-.477-.887-.72-1.53-.72zm0-.734c.914 0 1.648.312 2.203.937.55.617.828 1.438.828 2.47 0 1.042-.277 1.87-.828 2.483-.555.617-1.29.922-2.203.922-.93 0-1.668-.305-2.22-.922C.774-1.41.5-2.237.5-3.28c0-1.033.273-1.853.828-2.47.55-.625 1.29-.938 2.22-.938zm0 0"/></symbol><symbol overflow="visible" id="e"><path d="M.89-6.563h.876v2.688H5v-2.688h.89V0H5v-3.125H1.766V0H.89zm0 0"/></symbol><symbol overflow="visible" id="f"><path d="M.89-6.563h3.766v.75h-2.89v1.938h2.61v.734h-2.61V0H.89zm0 0"/></symbol><symbol overflow="visible"><path d="M.406 1.422V-5.64h4V1.42zM.844.97h3.11v-6.157H.843zm0 0"/></symbol><symbol overflow="visible" id="d"><path d="M.39-2.516H2.5v.64H.39zm0 0"/></symbol></defs><g><path fill="#fff" d="M0 0h300v300H0z"/><path d="M127.97 200.445l-9.728-4.558" stroke-width="1.2" stroke="#cc0" stroke-miterlimit="10" fill="none"/><path d="M118.242 195.887l-9.722-4.56" stroke-width="1.2" stroke="#000" stroke-miterlimit="10" fill="none"/><path d="M127.97 200.445l8.807-6.144" stroke-width="1.2" stroke="#cc0" stroke-miterlimit="10" fill="none"/><path d="M136.777 194.3l8.81-6.14" stroke-width="1.2" stroke="#000" stroke-miterlimit="10" fill="none"/><path d="M124.97 194.945h6v11h-6zm0 0" fill="#fff"/><use xlink:href="#a" x="124.969" y="203.608" fill="#cc0"/><path d="M145.586 188.16l10.148 3.516" stroke-width="1.2" stroke="#000" stroke-miterlimit="10" fill="none"/><path d="M155.734 191.676l10.15 3.515" stroke-width="1.2" stroke="#00f" stroke-miterlimit="10" fill="none"/><path d="M149.273 184.086l8.118 2.816" stroke-width="1.2" stroke="#000" stroke-miterlimit="10" fill="none"/><path d="M157.39 186.902l8.118 2.813M146.004 166.684l-.207 10.738" stroke-width="1.2" stroke="#00f" stroke-miterlimit="10" fill="none"/><path d="M145.797 177.422l-.21 10.738" stroke-width="1.2" stroke="#000" stroke-miterlimit="10" fill="none"/><path d="M165.883 195.19l6.48-8.56" stroke-width="1.2" stroke="#00f" stroke-miterlimit="10" fill="none"/><path d="M172.363 186.63l6.48-8.567" stroke-width="1.2" stroke="#000" stroke-miterlimit="10" fill="none"/><path d="M162.883 189.69h7v11h-7zm0 0" fill="#fff"/><use xlink:href="#b" x="162.883" y="198.354" fill="#00f"/><path d="M178.844 178.063l-12.285-17.618M173.47 179.19l-9.83-14.092M178.844 178.063l21.476.417M166.56 160.445l-10.28 3.118" stroke-width="1.2" stroke="#000" stroke-miterlimit="10" fill="none"/><path d="M156.28 163.563l-10.276 3.12" stroke-width="1.2" stroke="#00f" stroke-miterlimit="10" fill="none"/><path d="M166.56 160.445l7.034-20.297" stroke-width="1.2" stroke="#000" stroke-miterlimit="10" fill="none"/><path d="M146.004 166.684l-8.563-6.48" stroke-width="1.2" stroke="#00f" stroke-miterlimit="10" fill="none"/><path d="M137.44 160.203l-8.565-6.48" stroke-width="1.2" stroke="#000" stroke-miterlimit="10" fill="none"/><path d="M143.004 161.184h7v11h-7zm0 0" fill="#fff"/><use xlink:href="#b" x="143.004" y="169.847" fill="#00f"/><path d="M128.875 153.723l-19.79 8.35M109.086 162.074l-17.13-12.96M91.957 149.113l-19.79 8.352M72.168 157.465l-17.13-12.96M57.547 144.816l1.332-10.656" stroke-width="1.2" stroke="#000" stroke-miterlimit="10" fill="none"/><path d="M58.88 134.16l1.327-10.656" stroke-width="1.2" stroke="#f00" stroke-miterlimit="10" fill="none"/><path d="M52.53 144.19l1.333-10.655" stroke-width="1.2" stroke="#000" stroke-miterlimit="10" fill="none"/><path d="M53.863 133.535l1.328-10.66" stroke-width="1.2" stroke="#f00" stroke-miterlimit="10" fill="none"/><path d="M55.04 144.504l-9.895 4.176" stroke-width="1.2" stroke="#000" stroke-miterlimit="10" fill="none"/><path d="M45.145 148.68l-9.895 4.18" stroke-width="1.2" stroke="#f00" stroke-miterlimit="10" fill="none"/><path d="M53.7 117.69h8v11h-8zm0 0" fill="#fff"/><use xlink:href="#c" x="53.699" y="126.354" fill="#f00"/><path d="M24.25 145.36h11v15h-11zm0 0" fill="#fff"/><use xlink:href="#d" x="24.25" y="152.578" fill="#f00"/><use xlink:href="#c" x="27.058" y="157.461" fill="#f00"/><path d="M173.594 140.148l21.094-4.058M174.75 134.777l16.875-3.242M159.535 123.906l14.06 16.242M194.688 136.09l7.035-20.293M201.723 115.797l-7.032-8.12" stroke-width="1.2" stroke="#000" stroke-miterlimit="10" fill="none"/><path d="M194.69 107.676l-7.03-8.12" stroke-width="1.2" stroke="#00f" stroke-miterlimit="10" fill="none"/><path d="M196.496 117.48l-5.625-6.496" stroke-width="1.2" stroke="#000" stroke-miterlimit="10" fill="none"/><path d="M190.87 110.984l-5.624-6.496" stroke-width="1.2" stroke="#00f" stroke-miterlimit="10" fill="none"/><path d="M201.723 115.797l10.547-2.03" stroke-width="1.2" stroke="#000" stroke-miterlimit="10" fill="none"/><path d="M212.27 113.766l10.546-2.028M187.66 99.555l-10.547 2.03" stroke-width="1.2" stroke="#00f" stroke-miterlimit="10" fill="none"/><path d="M177.113 101.586l-10.547 2.027" stroke-width="1.2" stroke="#000" stroke-miterlimit="10" fill="none"/><path d="M184.66 94.055h7v11h-7zm0 0" fill="#fff"/><use xlink:href="#b" x="184.66" y="102.718" fill="#00f"/><path d="M166.566 103.613l-7.03 20.293M170.64 107.297l-5.628 16.238" stroke-width="1.2" stroke="#000" stroke-miterlimit="10" fill="none"/><path d="M222.816 111.738l7.028 8.12" stroke-width="1.2" stroke="#00f" stroke-miterlimit="10" fill="none"/><path d="M229.844 119.86l7.03 8.12" stroke-width="1.2" stroke="#000" stroke-miterlimit="10" fill="none"/><path d="M215.816 106.238h14v11h-14zm0 0" fill="#fff"/><g fill="#00f"><use xlink:href="#b" x="215.816" y="114.901"/><use xlink:href="#e" x="222.794" y="114.901"/></g><path d="M234.488 127.152l-3.52 10.15" stroke-width="1.2" stroke="#000" stroke-miterlimit="10" fill="none"/><path d="M230.97 137.3l-3.517 10.15" stroke-width="1.2" stroke="#f00" stroke-miterlimit="10" fill="none"/><path d="M239.262 128.805l-3.516 10.148" stroke-width="1.2" stroke="#000" stroke-miterlimit="10" fill="none"/><path d="M235.746 138.953l-3.516 10.15" stroke-width="1.2" stroke="#f00" stroke-miterlimit="10" fill="none"/><path d="M236.875 127.98l21.094-4.058" stroke-width="1.2" stroke="#000" stroke-miterlimit="10" fill="none"/><path d="M221.84 142.773h8v11h-8zm0 0" fill="#fff"/><use xlink:href="#c" x="221.84" y="151.437" fill="#f00"/><path d="M200.32 178.48l10.38 18.81M205.785 177.922l8.3 15.047M211.422 160.094L200.32 178.48M210.7 197.29l21.472.417M232.172 197.707l11.1-18.39M228.957 193.258l8.88-14.71M243.273 179.316l10.74.21" stroke-width="1.2" stroke="#000" stroke-miterlimit="10" fill="none"/><path d="M254.012 179.527l10.738.207" stroke-width="1.2" stroke="#3cc" stroke-miterlimit="10" fill="none"/><path d="M243.273 179.316l-10.375-18.804" stroke-width="1.2" stroke="#000" stroke-miterlimit="10" fill="none"/><path d="M261.75 174.234h6v11h-6zm0 0" fill="#fff"/><use xlink:href="#f" x="261.75" y="182.897" fill="#3cc"/><path d="M232.898 160.512l-21.476-.418M230.652 165.523l-17.183-.335" stroke-width="1.2" stroke="#000" stroke-miterlimit="10" fill="none"/></g></svg>