<svg xmlns="http://www.w3.org/2000/svg" xmlns:xlink="http://www.w3.org/1999/xlink" width="300pt" height="300pt" viewBox="0 0 300 300"><defs><symbol overflow="visible"><path d="M.547 1.938V-7.75h5.5v9.688zm.625-.61h4.266v-8.47H1.171zm0 0"/></symbol><symbol overflow="visible" id="a"><path d="M5.89-7.75v1.047c-.417-.195-.808-.344-1.17-.438-.368-.094-.72-.14-1.064-.14-.586 0-1.04.116-1.36.343-.323.23-.483.554-.483.968 0 .357.1.626.312.814.22.18.625.324 1.22.437L4-4.593c.813.157 1.41.434 1.797.828.383.387.578.903.578 1.547 0 .783-.262 1.376-.78 1.783-.525.398-1.29.593-2.298.593-.375 0-.78-.047-1.22-.14C1.648-.066 1.208-.19.75-.36v-1.11c.445.25.88.44 1.297.564.426.125.844.187 1.25.187.625 0 1.1-.116 1.437-.358.332-.25.5-.598.5-1.047 0-.395-.12-.703-.36-.922-.24-.226-.636-.398-1.186-.515l-.657-.126c-.81-.156-1.4-.406-1.764-.75C.898-4.78.72-5.258.72-5.875c0-.707.25-1.266.75-1.672.5-.414 1.19-.625 2.077-.625.375 0 .754.04 1.14.11.395.074.797.18 1.204.312zm0 0"/></symbol><symbol overflow="visible" id="b"><path d="M1.078-8.016h1.47l3.546 6.704v-6.704h1.062V0H5.688L2.124-6.703V0H1.078zm0 0"/></symbol><symbol overflow="visible" id="c"><path d="M1.078-8.016h1.094v3.282H6.11v-3.282h1.077V0H6.11v-3.813H2.17V0H1.078zm0 0"/></symbol></defs><g><path fill="#fff" d="M0 0h300v300H0z"/><path d="M148.164 151.766l6.953-10.832" stroke-width="1.2" stroke="#cc0" stroke-miterlimit="10" fill="none"/><path d="M155.117 140.934l6.953-10.832M123.262 145.234l12.45 3.266" stroke-width="1.2" stroke="#000" stroke-miterlimit="10" fill="none"/><path d="M135.71 148.5l12.454 3.266" stroke-width="1.2" stroke="#cc0" stroke-miterlimit="10" fill="none"/><path d="M145.164 145.266h7v13h-7zm0 0" fill="#fff"/><use xlink:href="#a" x="145.164" y="155.167" fill="#cc0"/><path d="M162.07 130.102l-16.308-19.922M155.754 131.945l-13.047-15.937M162.07 130.102l25.703-1.485M145.762 110.18l-11.992 4.675" stroke-width="1.2" stroke="#000" stroke-miterlimit="10" fill="none"/><path d="M133.77 114.855l-11.993 4.676M121.777 119.53l.743 12.853" stroke-width="1.2" stroke="#00f" stroke-miterlimit="10" fill="none"/><path d="M122.52 132.383l.742 12.85" stroke-width="1.2" stroke="#000" stroke-miterlimit="10" fill="none"/><path d="M127.973 121.754l.593 10.28" stroke-width="1.2" stroke="#00f" stroke-miterlimit="10" fill="none"/><path d="M128.566 132.035l.594 10.28" stroke-width="1.2" stroke="#000" stroke-miterlimit="10" fill="none"/><path d="M117.777 113.03h8v13h-8zm0 0" fill="#fff"/><use xlink:href="#b" x="117.777" y="122.933" fill="#00f"/><path d="M123.262 145.234l-9.96 8.153" stroke-width="1.2" stroke="#000" stroke-miterlimit="10" fill="none"/><path d="M113.3 153.387l-9.96 8.156M103.34 161.543l-12.043-4.55" stroke-width="1.2" stroke="#00f" stroke-miterlimit="10" fill="none"/><path d="M91.297 156.992l-12.043-4.547" stroke-width="1.2" stroke="#000" stroke-miterlimit="10" fill="none"/><path d="M95.34 155.043h17v13h-17zm0 0" fill="#fff"/><g fill="#00f"><use xlink:href="#b" x="95.34" y="164.944"/><use xlink:href="#c" x="103.323" y="164.944"/></g><path d="M79.254 152.445L59.332 168.75M59.332 168.75l-24.082-9.098M187.773 128.617l7.07 10.758" stroke-width="1.2" stroke="#000" stroke-miterlimit="10" fill="none"/><path d="M194.844 139.375l7.066 10.758" stroke-width="1.2" stroke="#00f" stroke-miterlimit="10" fill="none"/><path d="M194.25 127.44l5.656 8.607" stroke-width="1.2" stroke="#000" stroke-miterlimit="10" fill="none"/><path d="M199.906 136.047l5.653 8.61" stroke-width="1.2" stroke="#00f" stroke-miterlimit="10" fill="none"/><path d="M199.34 105.613l-11.567 23.004" stroke-width="1.2" stroke="#000" stroke-miterlimit="10" fill="none"/><path d="M201.91 150.133l12.852-.742" stroke-width="1.2" stroke="#00f" stroke-miterlimit="10" fill="none"/><path d="M214.762 149.39l12.85-.742" stroke-width="1.2" stroke="#000" stroke-miterlimit="10" fill="none"/><path d="M197.91 143.633h8v13h-8zm0 0" fill="#fff"/><use xlink:href="#b" x="197.91" y="153.534" fill="#00f"/><path d="M227.613 148.648l5.782-11.5" stroke-width="1.2" stroke="#000" stroke-miterlimit="10" fill="none"/><path d="M233.395 137.148l5.785-11.5" stroke-width="1.2" stroke="#00f" stroke-miterlimit="10" fill="none"/><path d="M223.355 143.63l4.63-9.204" stroke-width="1.2" stroke="#000" stroke-miterlimit="10" fill="none"/><path d="M227.984 134.426l4.625-9.2" stroke-width="1.2" stroke="#00f" stroke-miterlimit="10" fill="none"/><path d="M227.613 148.648l14.137 21.52" stroke-width="1.2" stroke="#000" stroke-miterlimit="10" fill="none"/><path d="M239.18 125.648l-7.07-10.757" stroke-width="1.2" stroke="#00f" stroke-miterlimit="10" fill="none"/><path d="M232.11 114.89l-7.067-10.757" stroke-width="1.2" stroke="#000" stroke-miterlimit="10" fill="none"/><path d="M235.18 119.148h8v13h-8zm0 0" fill="#fff"/><use xlink:href="#b" x="235.18" y="129.05" fill="#00f"/><path d="M225.043 104.133l-25.703 1.48M222.82 110.328l-20.562 1.188M241.75 170.168l23 11.566M243.234 195.867l-1.484-25.7M264.75 181.734l-21.516 14.133" stroke-width="1.2" stroke="#000" stroke-miterlimit="10" fill="none"/></g></svg>