<svg xmlns="http://www.w3.org/2000/svg" xmlns:xlink="http://www.w3.org/1999/xlink" width="300pt" height="300pt" viewBox="0 0 300 300"><defs><symbol overflow="visible"><path d="M.453 1.594v-7.938h4.5v7.938zm.5-.5h3.5v-6.938h-3.5zm0 0"/></symbol><symbol overflow="visible" id="a"><path d="M4.813-6.344v.86c-.336-.157-.653-.27-.954-.344-.294-.082-.58-.125-.86-.125-.492 0-.867.094-1.125.28-.262.19-.39.454-.39.798 0 .293.085.512.265.656.176.15.504.267.984.36l.547.11c.658.125 1.142.352 1.454.672.32.312.485.734.485 1.265 0 .637-.216 1.122-.642 1.454-.43.325-1.055.485-1.875.485-.312 0-.648-.04-1-.11C1.36-.046 1-.147.625-.296v-.906c.352.2.703.35 1.047.453.35.105.695.156 1.03.156.5 0 .884-.097 1.157-.297.28-.196.42-.485.42-.86 0-.32-.1-.57-.296-.75-.2-.176-.523-.313-.968-.406l-.547-.11C1.81-3.148 1.33-3.36 1.03-3.64.74-3.923.595-4.313.595-4.813c0-.57.203-1.024.61-1.36.405-.344.968-.516 1.687-.516.313 0 .626.032.938.094.32.055.65.137.985.25zm0 0"/></symbol><symbol overflow="visible" id="b"><path d="M3.547-5.953c-.65 0-1.164.242-1.547.72-.375.48-.563 1.13-.563 1.952 0 .835.188 1.49.563 1.967.383.48.898.72 1.547.72.644 0 1.156-.24 1.53-.72.376-.476.564-1.132.564-1.968 0-.822-.187-1.474-.562-1.954-.375-.477-.887-.72-1.53-.72zm0-.734c.914 0 1.648.312 2.203.937.55.617.828 1.438.828 2.47 0 1.042-.277 1.87-.828 2.483-.555.617-1.29.922-2.203.922-.93 0-1.668-.305-2.22-.922C.774-1.41.5-2.237.5-3.28c0-1.033.273-1.853.828-2.47.55-.625 1.29-.938 2.22-.938zm0 0"/></symbol><symbol overflow="visible" id="c"><path d="M.89-6.563H2.08l2.906 5.485v-5.484h.86V0H4.656L1.75-5.484V0H.89zm0 0"/></symbol><symbol overflow="visible" id="d"><path d="M.89-6.563h.876v2.688H5v-2.688h.89V0H5v-3.125H1.766V0H.89zm0 0"/></symbol><symbol overflow="visible"><path d="M.406 1.422V-5.64h4V1.42zM.844.97h3.11v-6.157H.843zm0 0"/></symbol><symbol overflow="visible" id="e"><path d="M3.688-5.016v2.172h2.17v.672H3.69V0H3.03v-2.172H.845v-.672H3.03v-2.172zm0 0"/></symbol></defs><g><path fill="#fff" d="M0 0h300v300H0z"/><path d="M50.543 180.898l-8.145 4.243" stroke-width="1.2" stroke="#cc0" stroke-miterlimit="10" fill="none"/><path d="M42.398 185.14l-8.144 4.24" stroke-width="1.2" stroke="#f00" stroke-miterlimit="10" fill="none"/><path d="M52.54 184.734l-8.145 4.24" stroke-width="1.2" stroke="#cc0" stroke-miterlimit="10" fill="none"/><path d="M44.395 188.973l-8.15 4.238" stroke-width="1.2" stroke="#f00" stroke-miterlimit="10" fill="none"/><path d="M53.254 181.5l-5.586-7.285" stroke-width="1.2" stroke="#cc0" stroke-miterlimit="10" fill="none"/><path d="M47.668 174.215l-5.59-7.285" stroke-width="1.2" stroke="#f00" stroke-miterlimit="10" fill="none"/><path d="M49.828 184.133l-5.59-7.285" stroke-width="1.2" stroke="#cc0" stroke-miterlimit="10" fill="none"/><path d="M44.238 176.848l-5.59-7.29" stroke-width="1.2" stroke="#f00" stroke-miterlimit="10" fill="none"/><path d="M51.543 182.816l6.203-6.77" stroke-width="1.2" stroke="#cc0" stroke-miterlimit="10" fill="none"/><path d="M57.746 176.047l6.203-6.77M57.063 200.332l-2.762-8.758" stroke-width="1.2" stroke="#000" stroke-miterlimit="10" fill="none"/><path d="M54.3 191.574l-2.757-8.758" stroke-width="1.2" stroke="#cc0" stroke-miterlimit="10" fill="none"/><path d="M48.543 177.316h6v11h-6zm0 0" fill="#fff"/><use xlink:href="#a" x="48.543" y="185.979" fill="#cc0"/><path d="M27.25 185.793h8v11h-8zm0 0" fill="#fff"/><use xlink:href="#b" x="27.25" y="194.456" fill="#f00"/><path d="M32.363 162.746h8v11h-8zm0 0" fill="#fff"/><use xlink:href="#b" x="32.363" y="171.409" fill="#f00"/><path d="M63.95 169.277l17.93 3.98M81.88 173.258l2.76 8.758" stroke-width="1.2" stroke="#000" stroke-miterlimit="10" fill="none"/><path d="M84.64 182.016l2.758 8.757M87.398 190.773l-6.203 6.77" stroke-width="1.2" stroke="#00f" stroke-miterlimit="10" fill="none"/><path d="M81.195 197.543l-6.207 6.766" stroke-width="1.2" stroke="#000" stroke-miterlimit="10" fill="none"/><path d="M87.398 190.773l8.965 1.99" stroke-width="1.2" stroke="#00f" stroke-miterlimit="10" fill="none"/><path d="M96.363 192.762l8.965 1.988" stroke-width="1.2" stroke="#000" stroke-miterlimit="10" fill="none"/><path d="M77.398 183.273h21v15h-21zm0 0" fill="#fff"/><g fill="#00f"><use xlink:href="#c" x="77.398" y="195.375"/><use xlink:href="#d" x="84.376" y="195.375"/></g><use xlink:href="#e" x="91.391" y="190.492" fill="#00f"/><path d="M74.988 204.31l-17.925-3.978M105.328 194.75l12.41-13.54M117.738 181.21l17.93 3.98M120.465 177.39l14.344 3.184M112.22 163.695l5.518 17.516M135.668 185.19l12.406-13.538M148.074 171.652l-5.52-17.515M143.402 171.2l-4.414-14.012M142.555 154.137l6.207-6.77" stroke-width="1.2" stroke="#000" stroke-miterlimit="10" fill="none"/><path d="M148.762 147.367l6.203-6.77" stroke-width="1.2" stroke="#00f" stroke-miterlimit="10" fill="none"/><path d="M142.555 154.137l-17.926-3.98" stroke-width="1.2" stroke="#000" stroke-miterlimit="10" fill="none"/><path d="M154.965 140.598l-3.656-17.996" stroke-width="1.2" stroke="#00f" stroke-miterlimit="10" fill="none"/><path d="M173.21 142.68l-9.12-1.043" stroke-width="1.2" stroke="#000" stroke-miterlimit="10" fill="none"/><path d="M164.09 141.637l-9.125-1.04" stroke-width="1.2" stroke="#00f" stroke-miterlimit="10" fill="none"/><path d="M151.965 135.098h7v11h-7zm0 0" fill="#fff"/><use xlink:href="#c" x="151.965" y="143.761" fill="#00f"/><path d="M151.31 122.602l7.99-4.52" stroke-width="1.2" stroke="#00f" stroke-miterlimit="10" fill="none"/><path d="M159.3 118.082l7.993-4.523" stroke-width="1.2" stroke="#000" stroke-miterlimit="10" fill="none"/><path d="M155.03 125.457l6.396-3.617" stroke-width="1.2" stroke="#00f" stroke-miterlimit="10" fill="none"/><path d="M161.426 121.84l6.394-3.613" stroke-width="1.2" stroke="#000" stroke-miterlimit="10" fill="none"/><path d="M148.31 117.102h7v11h-7zm0 0" fill="#fff"/><use xlink:href="#c" x="148.309" y="125.765" fill="#00f"/><path d="M167.293 113.56l13.54 12.41M167.293 113.56l2.082-18.248M180.832 125.97l-7.62 16.71M176.137 125.848l-6.094 13.367M173.21 142.68l4.52 7.992" stroke-width="1.2" stroke="#000" stroke-miterlimit="10" fill="none"/><path d="M177.73 150.672l4.524 7.992M182.254 158.664l9.18.082" stroke-width="1.2" stroke="#00f" stroke-miterlimit="10" fill="none"/><path d="M191.434 158.746l9.183.082" stroke-width="1.2" stroke="#000" stroke-miterlimit="10" fill="none"/><path d="M175.254 153.164h14v11h-14zm0 0" fill="#fff"/><g fill="#00f"><use xlink:href="#c" x="175.254" y="161.827"/><use xlink:href="#d" x="182.231" y="161.827"/></g><path d="M202.477 159.926l4.664-7.91" stroke-width="1.2" stroke="#000" stroke-miterlimit="10" fill="none"/><path d="M207.14 152.016l4.66-7.914" stroke-width="1.2" stroke="#f00" stroke-miterlimit="10" fill="none"/><path d="M198.754 157.73l4.664-7.91" stroke-width="1.2" stroke="#000" stroke-miterlimit="10" fill="none"/><path d="M203.418 149.82l4.66-7.91" stroke-width="1.2" stroke="#f00" stroke-miterlimit="10" fill="none"/><path d="M200.617 158.828l4.52 7.992" stroke-width="1.2" stroke="#000" stroke-miterlimit="10" fill="none"/><path d="M205.137 166.82l4.52 7.993" stroke-width="1.2" stroke="#00f" stroke-miterlimit="10" fill="none"/><path d="M205.94 137.504h8v11h-8zm0 0" fill="#fff"/><use xlink:href="#b" x="205.941" y="146.167" fill="#f00"/><path d="M209.656 174.813l9.184.082" stroke-width="1.2" stroke="#00f" stroke-miterlimit="10" fill="none"/><path d="M218.84 174.895l9.183.082" stroke-width="1.2" stroke="#000" stroke-miterlimit="10" fill="none"/><path d="M202.656 169.313h14v11h-14zm0 0" fill="#fff"/><g fill="#00f"><use xlink:href="#c" x="202.656" y="177.976"/><use xlink:href="#d" x="209.634" y="177.976"/></g><path d="M228.023 174.977l9.04 15.984M232.688 174.45l7.23 12.788M237.344 159.156l-9.32 15.82M237.063 190.96l18.363.165M227.738 206.785l9.325-15.824M255.426 191.125l9.324-15.82M252.637 187.348l7.457-12.657M255.426 191.125l9.043 15.984M264.75 175.305l-9.04-15.99M255.71 159.316l-18.366-.16M253.836 163.62l-14.69-.128M264.47 207.11l-9.325 15.824M259.813 206.5l-7.46 12.656M255.145 222.934l-18.364-.164M236.78 222.77l-9.042-15.985M239.637 219.043l-7.23-12.79M169.375 95.313l18.246 2.082M169.375 95.313L151.13 93.23M169.375 95.313l2.082-18.247M124.63 150.156l-12.41 13.54M126.57 154.43l-9.925 10.832" stroke-width="1.2" stroke="#000" stroke-miterlimit="10" fill="none"/></g></svg>