<svg xmlns="http://www.w3.org/2000/svg" xmlns:xlink="http://www.w3.org/1999/xlink" width="300pt" height="300pt" viewBox="0 0 300 300"><defs><symbol overflow="visible"><path d="M.453 1.594v-7.938h4.5v7.938zm.5-.5h3.5v-6.938h-3.5zm0 0"/></symbol><symbol overflow="visible" id="a"><path d="M5.797-6.063v.938c-.305-.27-.625-.473-.97-.61-.335-.144-.686-.218-1.06-.218-.75 0-1.33.23-1.736.687-.397.46-.592 1.12-.592 1.985 0 .866.195 1.526.593 1.983.408.46.986.688 1.736.688.375 0 .726-.066 1.062-.203.344-.132.664-.343.97-.625V-.5c-.314.21-.642.367-.986.47-.343.1-.714.155-1.11.155-.99 0-1.772-.3-2.343-.906C.784-1.396.5-2.228.5-3.28c0-1.052.285-1.88.86-2.486.57-.613 1.35-.92 2.343-.92.395-.002.766.053 1.11.155.35.104.68.26.984.468zm0 0"/></symbol><symbol overflow="visible" id="b"><path d="M.844-6.844h.812V0H.844zm0 0"/></symbol><symbol overflow="visible" id="c"><path d="M.89-6.563H2.08l2.906 5.485v-5.484h.86V0H4.656L1.75-5.484V0H.89zm0 0"/></symbol><symbol overflow="visible" id="d"><path d="M.89-6.563h.876v2.688H5v-2.688h.89V0H5v-3.125H1.766V0H.89zm0 0"/></symbol><symbol overflow="visible" id="e"><path d="M3.547-5.953c-.65 0-1.164.242-1.547.72-.375.48-.563 1.13-.563 1.952 0 .835.188 1.49.563 1.967.383.48.898.72 1.547.72.644 0 1.156-.24 1.53-.72.376-.476.564-1.132.564-1.968 0-.822-.187-1.474-.562-1.954-.375-.477-.887-.72-1.53-.72zm0-.734c.914 0 1.648.312 2.203.937.55.617.828 1.438.828 2.47 0 1.042-.277 1.87-.828 2.483-.555.617-1.29.922-2.203.922-.93 0-1.668-.305-2.22-.922C.774-1.41.5-2.237.5-3.28c0-1.033.273-1.853.828-2.47.55-.625 1.29-.938 2.22-.938zm0 0"/></symbol><symbol overflow="visible" id="f"><path d="M.89-6.563h3.766v.75h-2.89v1.938h2.61v.734h-2.61V0H.89zm0 0"/></symbol><symbol overflow="visible"><path d="M.406 1.422V-5.64h4V1.42zM.844.97h3.11v-6.157H.843zm0 0"/></symbol><symbol overflow="visible" id="g"><path d="M1.53-.672h2.767V0H.594v-.672c.29-.3.695-.71 1.22-1.234.518-.532.842-.867.967-1.016.26-.28.44-.52.533-.72.1-.194.156-.39.156-.577 0-.31-.11-.565-.33-.764-.218-.196-.5-.297-.843-.297-.25 0-.516.046-.797.14-.273.085-.563.214-.875.39v-.797c.32-.133.617-.234.89-.297.282-.062.536-.093.766-.093.603 0 1.083.152 1.44.453.362.304.546.703.546 1.203 0 .24-.047.468-.14.686-.095.22-.26.477-.485.766-.074.074-.288.293-.64.656-.344.356-.836.856-1.47 1.5zm0 0"/></symbol></defs><g><path fill="#fff" d="M0 0h300v300H0z"/><path d="M227.098 200.71l1.11-10.226" stroke-width="1.2" stroke="#0c0" stroke-miterlimit="10" fill="none"/><path d="M228.207 190.484l1.11-10.23" stroke-width="1.2" stroke="#000" stroke-miterlimit="10" fill="none"/><path d="M222.098 195.21h10v11h-10zm0 0" fill="#fff"/><g fill="#0c0"><use xlink:href="#a" x="222.098" y="203.874"/><use xlink:href="#b" x="228.611" y="203.874"/></g><path d="M229.316 180.254l-16.61-12.15M230.512 175.133l-13.285-9.723M248.14 171.945l-18.824 8.31M212.707 168.105l-9.414 4.153" stroke-width="1.2" stroke="#000" stroke-miterlimit="10" fill="none"/><path d="M203.293 172.258l-9.414 4.152" stroke-width="1.2" stroke="#00f" stroke-miterlimit="10" fill="none"/><path d="M212.707 168.105l2.22-20.46" stroke-width="1.2" stroke="#000" stroke-miterlimit="10" fill="none"/><path d="M193.88 176.41l-8.306-6.074" stroke-width="1.2" stroke="#00f" stroke-miterlimit="10" fill="none"/><path d="M185.574 170.336l-8.3-6.074" stroke-width="1.2" stroke="#000" stroke-miterlimit="10" fill="none"/><path d="M186.88 170.91h14v11h-14zm0 0" fill="#fff"/><g fill="#00f"><use xlink:href="#c" x="186.879" y="179.573"/><use xlink:href="#d" x="193.856" y="179.573"/></g><path d="M179.68 164.52l1.11-10.227" stroke-width="1.2" stroke="#000" stroke-miterlimit="10" fill="none"/><path d="M180.79 154.293l1.108-10.23" stroke-width="1.2" stroke="#f00" stroke-miterlimit="10" fill="none"/><path d="M174.863 164l1.11-10.23" stroke-width="1.2" stroke="#000" stroke-miterlimit="10" fill="none"/><path d="M175.973 153.77l1.113-10.23" stroke-width="1.2" stroke="#f00" stroke-miterlimit="10" fill="none"/><path d="M177.273 164.262l-9.414 4.152" stroke-width="1.2" stroke="#000" stroke-miterlimit="10" fill="none"/><path d="M167.86 168.414l-9.415 4.152" stroke-width="1.2" stroke="#00f" stroke-miterlimit="10" fill="none"/><path d="M175.492 138.3h8v11h-8zm0 0" fill="#fff"/><use xlink:href="#e" x="175.492" y="146.964" fill="#f00"/><path d="M158.445 172.566l-8.304-6.074" stroke-width="1.2" stroke="#00f" stroke-miterlimit="10" fill="none"/><path d="M150.14 166.492l-8.304-6.074" stroke-width="1.2" stroke="#000" stroke-miterlimit="10" fill="none"/><path d="M151.445 167.066h14v11h-14zm0 0" fill="#fff"/><g fill="#00f"><use xlink:href="#c" x="151.445" y="175.729"/><use xlink:href="#d" x="158.423" y="175.729"/></g><path d="M141.836 160.418l-9.797 3.144" stroke-width="1.2" stroke="#000" stroke-miterlimit="10" fill="none"/><path d="M132.04 163.563l-9.794 3.148" stroke-width="1.2" stroke="#00f" stroke-miterlimit="10" fill="none"/><path d="M141.906 139.84l-.07 20.578M137.055 141.88L137 158.343" stroke-width="1.2" stroke="#000" stroke-miterlimit="10" fill="none"/><path d="M122.246 166.71l-12.043-16.687M122.246 166.71l-3.215 9.778" stroke-width="1.2" stroke="#00f" stroke-miterlimit="10" fill="none"/><path d="M119.03 176.488l-3.21 9.774" stroke-width="1.2" stroke="#000" stroke-miterlimit="10" fill="none"/><path d="M119.246 161.21h7v11h-7zm0 0" fill="#fff"/><use xlink:href="#c" x="119.246" y="169.874" fill="#00f"/><path d="M110.203 150.023l6.078-8.304" stroke-width="1.2" stroke="#00f" stroke-miterlimit="10" fill="none"/><path d="M116.28 141.72l6.075-8.306" stroke-width="1.2" stroke="#000" stroke-miterlimit="10" fill="none"/><path d="M115.328 151.223l4.86-6.645" stroke-width="1.2" stroke="#00f" stroke-miterlimit="10" fill="none"/><path d="M120.188 144.578l4.86-6.644" stroke-width="1.2" stroke="#000" stroke-miterlimit="10" fill="none"/><path d="M107.203 144.523h7v11h-7zm0 0" fill="#fff"/><use xlink:href="#c" x="107.203" y="153.187" fill="#00f"/><path d="M122.355 133.414l19.55 6.426M122.355 133.414l-6.293-19.59M116.063 113.824l13.82-15.25M113.855 109.047l11.055-12.2M95.945 109.477l20.118 4.347M129.883 98.574l-6.297-19.59M123.586 78.984l-20.113-4.347M120.555 83.28l-16.094-3.475M103.473 74.637l-13.82 15.25M89.652 89.887l6.293 19.59M94.89 90.363l5.036 15.676M95.945 109.477l-6.91 7.625" stroke-width="1.2" stroke="#000" stroke-miterlimit="10" fill="none"/><path d="M89.035 117.102l-6.91 7.625" stroke-width="1.2" stroke="#3cc" stroke-miterlimit="10" fill="none"/><path d="M76.125 119.227h6v11h-6zm0 0" fill="#fff"/><use xlink:href="#f" x="76.125" y="127.89" fill="#3cc"/><path d="M115.82 186.262l-20.14 4.21M114.797 191.422l-16.113 3.37M129.54 201.602l-13.72-15.34M95.68 190.473l-6.426 19.55M89.254 210.023l13.72 15.34M94.234 208.328l10.977 12.27M89.254 210.023l-20.14 4.21M102.973 225.363l20.144-4.215M123.117 221.148l6.422-19.546M119.16 217.684l5.137-15.64M69.113 214.234l-13.718-15.336M57.69 199.652l3.216-9.773" stroke-width="1.2" stroke="#000" stroke-miterlimit="10" fill="none"/><path d="M60.906 189.88l3.21-9.778" stroke-width="1.2" stroke="#f00" stroke-miterlimit="10" fill="none"/><path d="M53.094 198.14l3.21-9.773" stroke-width="1.2" stroke="#000" stroke-miterlimit="10" fill="none"/><path d="M56.305 188.367l3.21-9.777" stroke-width="1.2" stroke="#f00" stroke-miterlimit="10" fill="none"/><path d="M55.395 198.898l-10.075 2.106" stroke-width="1.2" stroke="#000" stroke-miterlimit="10" fill="none"/><path d="M45.32 201.004l-10.07 2.105" stroke-width="1.2" stroke="#00f" stroke-miterlimit="10" fill="none"/><path d="M57.816 173.848h8v11h-8zm0 0" fill="#fff"/><use xlink:href="#e" x="57.816" y="182.511" fill="#f00"/><path d="M16.25 195.11h19v16h-19zm0 0" fill="#fff"/><use xlink:href="#d" x="16.25" y="203.772" fill="#00f"/><use xlink:href="#g" x="23.265" y="208.655" fill="#00f"/><use xlink:href="#c" x="28.215" y="203.772" fill="#00f"/><path d="M214.926 147.645l18.828-8.31M218.762 151.246l15.062-6.648M233.754 139.336l16.605 12.152M250.36 151.488l-2.22 20.457M245.324 153.012l-1.773 16.367M248.14 171.945l8.305 6.078" stroke-width="1.2" stroke="#000" stroke-miterlimit="10" fill="none"/><path d="M256.445 178.023l8.305 6.075" stroke-width="1.2" stroke="#0c0" stroke-miterlimit="10" fill="none"/><path d="M259.75 178.598h10v11h-10zm0 0" fill="#fff"/><g fill="#0c0"><use xlink:href="#a" x="259.75" y="187.261"/><use xlink:href="#b" x="266.264" y="187.261"/></g></g></svg>