<svg xmlns="http://www.w3.org/2000/svg" xmlns:xlink="http://www.w3.org/1999/xlink" width="300pt" height="300pt" viewBox="0 0 300 300"><defs><symbol overflow="visible"><path d="M.797 2.828v-14.11h8V2.83zm.906-.89h6.203v-12.33H1.703zm0 0"/></symbol><symbol overflow="visible" id="a"><path d="M6.313-10.594c-1.15 0-2.06.43-2.735 1.28-.68.857-1.015 2.017-1.015 3.486 0 1.47.335 2.633 1.015 3.484.676.856 1.586 1.28 2.735 1.28 1.144.002 2.05-.424 2.718-1.28.665-.85 1-2.015 1-3.484 0-1.47-.335-2.63-1-3.484-.667-.852-1.573-1.282-2.717-1.282zm0-1.28c1.632 0 2.94.546 3.92 1.64.978 1.093 1.47 2.562 1.47 4.406 0 1.844-.492 3.32-1.47 4.422-.98 1.093-2.288 1.64-3.92 1.64-1.65 0-2.96-.546-3.938-1.64-.98-1.102-1.47-2.578-1.47-4.422 0-1.844.49-3.313 1.47-4.406.977-1.094 2.29-1.64 3.938-1.64zm0 0"/></symbol><symbol overflow="visible" id="b"><path d="M1.578-11.672h2.125l5.172 9.766v-9.766h1.53V0H8.282L3.11-9.766V0H1.577zm0 0"/></symbol><symbol overflow="visible"><path d="M.64 2.297v-11.47h6.5v11.47zm.735-.72h5.047V-8.436H1.375zm0 0"/></symbol><symbol overflow="visible" id="c"><path d="M.64-4.078h3.422v1.03H.643zm0 0"/></symbol></defs><g><path fill="#fff" d="M0 0h300v300H0z"/><path d="M96.852 252.543l-7.758-17.48" stroke-width="1.2" stroke="#f00" stroke-miterlimit="10" fill="none"/><path d="M89.094 235.063l-7.762-17.48" stroke-width="1.2" stroke="#000" stroke-miterlimit="10" fill="none"/><path d="M88.63 256.19l-7.763-17.475" stroke-width="1.2" stroke="#f00" stroke-miterlimit="10" fill="none"/><path d="M80.867 238.715l-7.762-17.48" stroke-width="1.2" stroke="#000" stroke-miterlimit="10" fill="none"/><path d="M86.738 244.867h13v19h-13zm0 0" fill="#fff"/><use xlink:href="#a" x="86.738" y="259.719" fill="#f00"/><path d="M77.22 219.41l9.577-16.555" stroke-width="1.2" stroke="#000" stroke-miterlimit="10" fill="none"/><path d="M86.797 202.855l9.578-16.554M39.813 211.418l18.703 3.996" stroke-width="1.2" stroke="#00f" stroke-miterlimit="10" fill="none"/><path d="M58.516 215.414l18.703 3.996" stroke-width="1.2" stroke="#000" stroke-miterlimit="10" fill="none"/><path d="M96.375 186.3l-12.78-14.222" stroke-width="1.2" stroke="#00f" stroke-miterlimit="10" fill="none"/><path d="M83.594 172.078l-12.78-14.226" stroke-width="1.2" stroke="#000" stroke-miterlimit="10" fill="none"/><path d="M96.375 186.3l19.023-1.976" stroke-width="1.2" stroke="#00f" stroke-miterlimit="10" fill="none"/><path d="M115.398 184.324l19.024-1.98" stroke-width="1.2" stroke="#000" stroke-miterlimit="10" fill="none"/><path d="M90.375 176.8h12v19h-12zm0 0" fill="#fff"/><use xlink:href="#b" x="90.375" y="191.652" fill="#00f"/><path d="M70.813 157.852l-17.48 7.76" stroke-width="1.2" stroke="#000" stroke-miterlimit="10" fill="none"/><path d="M53.332 165.613l-17.48 7.762" stroke-width="1.2" stroke="#00f" stroke-miterlimit="10" fill="none"/><path d="M70.97 167.63l-13.986 6.206" stroke-width="1.2" stroke="#000" stroke-miterlimit="10" fill="none"/><path d="M56.984 173.836L43 180.046" stroke-width="1.2" stroke="#00f" stroke-miterlimit="10" fill="none"/><path d="M70.813 157.852l7.988-37.407" stroke-width="1.2" stroke="#000" stroke-miterlimit="10" fill="none"/><path d="M35.852 173.375l3.96 38.043" stroke-width="1.2" stroke="#00f" stroke-miterlimit="10" fill="none"/><path d="M29.852 163.875h12v19h-12zm0 0" fill="#fff"/><use xlink:href="#b" x="29.852" y="178.727" fill="#00f"/><path d="M31.813 200.418h17v22h-17zm0 0" fill="#fff"/><use xlink:href="#b" x="31.813" y="217.677" fill="#00f"/><use xlink:href="#c" x="43.781" y="212.794" fill="#00f"/><path d="M78.8 120.445l36.39-11.785M79.668 110.703l29.113-9.426M50.402 94.82l28.4 25.625M115.19 108.66l7.994-37.402M123.184 71.258l-14.2-12.813" stroke-width="1.2" stroke="#000" stroke-miterlimit="10" fill="none"/><path d="M108.984 58.445L94.78 45.633" stroke-width="1.2" stroke="#00f" stroke-miterlimit="10" fill="none"/><path d="M114.313 75.375l-11.36-10.25" stroke-width="1.2" stroke="#000" stroke-miterlimit="10" fill="none"/><path d="M102.953 65.125L91.593 54.88M94.78 45.633l-18.19 5.89" stroke-width="1.2" stroke="#00f" stroke-miterlimit="10" fill="none"/><path d="M76.59 51.523l-18.195 5.89" stroke-width="1.2" stroke="#000" stroke-miterlimit="10" fill="none"/><path d="M88.78 36.133h12v19h-12zm0 0" fill="#fff"/><use xlink:href="#b" x="88.781" y="50.984" fill="#00f"/><path d="M58.395 57.414L50.402 94.82M66.395 63.035l-6.39 29.926M134.422 182.344l15.594-34.93M144.2 182.52l12.472-27.942M156.87 213.31l-22.448-30.966M150.016 147.414l38.043-3.957M188.06 143.457l22.452 30.965M197.59 141.27l17.96 24.773M203.652 108.527l-15.593 34.93M210.512 174.422l-15.594 34.93M210.512 174.422l38.043-3.957M194.918 209.352l-38.047 3.957M190.18 200.797l-30.434 3.164M248.555 170.465l15.593-34.93M241.895 163.3l12.476-27.94M264.148 135.535l-22.453-30.965M241.695 104.57l-38.043 3.957M238.824 113.918l-30.437 3.168" stroke-width="1.2" stroke="#000" stroke-miterlimit="10" fill="none"/></g></svg>