<svg xmlns="http://www.w3.org/2000/svg" xmlns:xlink="http://www.w3.org/1999/xlink" width="300pt" height="300pt" viewBox="0 0 300 300"><defs><symbol overflow="visible"><path d="M.453 1.594v-7.938h4.5v7.938zm.5-.5h3.5v-6.938h-3.5zm0 0"/></symbol><symbol overflow="visible" id="a"><path d="M3.547-5.953c-.65 0-1.164.242-1.547.72-.375.48-.563 1.13-.563 1.952 0 .835.188 1.49.563 1.967.383.48.898.72 1.547.72.644 0 1.156-.24 1.53-.72.376-.476.564-1.132.564-1.968 0-.822-.187-1.474-.562-1.954-.375-.477-.887-.72-1.53-.72zm0-.734c.914 0 1.648.312 2.203.937.55.617.828 1.438.828 2.47 0 1.042-.277 1.87-.828 2.483-.555.617-1.29.922-2.203.922-.93 0-1.668-.305-2.22-.922C.774-1.41.5-2.237.5-3.28c0-1.033.273-1.853.828-2.47.55-.625 1.29-.938 2.22-.938zm0 0"/></symbol><symbol overflow="visible" id="b"><path d="M.89-6.563H2.08l2.906 5.485v-5.484h.86V0H4.656L1.75-5.484V0H.89zm0 0"/></symbol><symbol overflow="visible" id="c"><path d="M.89-6.563h.876v2.688H5v-2.688h.89V0H5v-3.125H1.766V0H.89zm0 0"/></symbol></defs><g><path fill="#fff" d="M0 0h300v300H0z"/><path d="M106.676 221.332l4.906-9.687" stroke-width="1.2" stroke="#f00" stroke-miterlimit="10" fill="none"/><path d="M111.582 211.645l4.902-9.692M118.56 239.52l-5.943-9.094" stroke-width="1.2" stroke="#000" stroke-miterlimit="10" fill="none"/><path d="M112.617 230.426l-5.94-9.094" stroke-width="1.2" stroke="#f00" stroke-miterlimit="10" fill="none"/><path d="M102.676 215.832h8v11h-8zm0 0" fill="#fff"/><use xlink:href="#a" x="102.676" y="224.495" fill="#f00"/><path d="M116.484 201.953l21.688-1.2M138.172 200.754l11.883 18.184M150.055 218.938l10.847-.598" stroke-width="1.2" stroke="#000" stroke-miterlimit="10" fill="none"/><path d="M160.902 218.34l10.844-.602" stroke-width="1.2" stroke="#00f" stroke-miterlimit="10" fill="none"/><path d="M150.055 218.938l-9.805 19.382" stroke-width="1.2" stroke="#000" stroke-miterlimit="10" fill="none"/><path d="M171.746 217.738l4.902-9.69" stroke-width="1.2" stroke="#00f" stroke-miterlimit="10" fill="none"/><path d="M176.648 208.047l4.903-9.692" stroke-width="1.2" stroke="#000" stroke-miterlimit="10" fill="none"/><path d="M164.746 212.238h14v11h-14zm0 0" fill="#fff"/><g fill="#00f"><use xlink:href="#b" x="164.746" y="220.901"/><use xlink:href="#c" x="171.724" y="220.901"/></g><path d="M181.55 198.355l10.848-.597" stroke-width="1.2" stroke="#000" stroke-miterlimit="10" fill="none"/><path d="M192.398 197.758l10.844-.602" stroke-width="1.2" stroke="#00f" stroke-miterlimit="10" fill="none"/><path d="M183.44 193.133l8.677-.48" stroke-width="1.2" stroke="#000" stroke-miterlimit="10" fill="none"/><path d="M192.117 192.652l8.676-.476" stroke-width="1.2" stroke="#00f" stroke-miterlimit="10" fill="none"/><path d="M169.672 180.172l11.88 18.183" stroke-width="1.2" stroke="#000" stroke-miterlimit="10" fill="none"/><path d="M203.242 197.156l4.903-9.69" stroke-width="1.2" stroke="#00f" stroke-miterlimit="10" fill="none"/><path d="M208.145 187.465l4.906-9.692" stroke-width="1.2" stroke="#000" stroke-miterlimit="10" fill="none"/><path d="M200.242 191.656h7v11h-7zm0 0" fill="#fff"/><use xlink:href="#b" x="200.242" y="200.319" fill="#00f"/><path d="M213.05 177.773L201.17 159.59M207.582 178.754l-9.508-14.547M201.168 159.59l-21.69 1.2M179.477 160.79l-9.805 19.382M183.06 165.035l-7.85 15.508M179.477 160.79l-11.883-18.185M167.594 142.605l-10.848-.54" stroke-width="1.2" stroke="#000" stroke-miterlimit="10" fill="none"/><path d="M156.746 142.066l-10.848-.54" stroke-width="1.2" stroke="#00f" stroke-miterlimit="10" fill="none"/><path d="M165.68 137.39l-8.68-.43" stroke-width="1.2" stroke="#000" stroke-miterlimit="10" fill="none"/><path d="M157 136.96l-8.68-.43M175.32 122.305l-3.863 10.148" stroke-width="1.2" stroke="#00f" stroke-miterlimit="10" fill="none"/><path d="M171.457 132.453l-3.863 10.152" stroke-width="1.2" stroke="#000" stroke-miterlimit="10" fill="none"/><path d="M145.898 141.527l-5.68-20.964" stroke-width="1.2" stroke="#00f" stroke-miterlimit="10" fill="none"/><path d="M142.898 136.027h7v11h-7zm0 0" fill="#fff"/><use xlink:href="#b" x="142.898" y="144.69" fill="#00f"/><path d="M140.22 120.563l-10.154-3.864" stroke-width="1.2" stroke="#00f" stroke-miterlimit="10" fill="none"/><path d="M130.066 116.7l-10.152-3.864" stroke-width="1.2" stroke="#000" stroke-miterlimit="10" fill="none"/><path d="M140.22 120.563l9.09-5.942" stroke-width="1.2" stroke="#00f" stroke-miterlimit="10" fill="none"/><path d="M149.31 114.62l9.092-5.94" stroke-width="1.2" stroke="#000" stroke-miterlimit="10" fill="none"/><path d="M137.22 115.063h7v11h-7zm0 0" fill="#fff"/><use xlink:href="#b" x="137.219" y="123.726" fill="#00f"/><path d="M119.914 112.836l-3.457-21.445M103.074 126.555l16.84-13.72M116.457 91.39l-20.3-7.726M96.156 83.664l-8.422 6.86" stroke-width="1.2" stroke="#000" stroke-miterlimit="10" fill="none"/><path d="M87.734 90.523l-8.42 6.86M79.313 97.383l1.73 10.722" stroke-width="1.2" stroke="#00f" stroke-miterlimit="10" fill="none"/><path d="M81.043 108.105l1.727 10.723" stroke-width="1.2" stroke="#000" stroke-miterlimit="10" fill="none"/><path d="M79.313 97.383L69.16 93.52" stroke-width="1.2" stroke="#00f" stroke-miterlimit="10" fill="none"/><path d="M69.16 93.52l-10.148-3.868" stroke-width="1.2" stroke="#000" stroke-miterlimit="10" fill="none"/><path d="M76.313 91.883h7v11h-7zm0 0" fill="#fff"/><use xlink:href="#b" x="76.313" y="100.546" fill="#00f"/><path d="M82.77 118.828l20.304 7.727M59.012 89.652l-1.73-10.722" stroke-width="1.2" stroke="#000" stroke-miterlimit="10" fill="none"/><path d="M57.28 78.93l-1.73-10.723" stroke-width="1.2" stroke="#f00" stroke-miterlimit="10" fill="none"/><path d="M57.398 87.672l-8.42 6.86" stroke-width="1.2" stroke="#000" stroke-miterlimit="10" fill="none"/><path d="M48.977 94.53l-8.422 6.86" stroke-width="1.2" stroke="#f00" stroke-miterlimit="10" fill="none"/><path d="M60.625 91.637l-8.422 6.86" stroke-width="1.2" stroke="#000" stroke-miterlimit="10" fill="none"/><path d="M52.203 98.496l-8.422 6.86M55.55 68.207l-10.148-3.863" stroke-width="1.2" stroke="#f00" stroke-miterlimit="10" fill="none"/><path d="M45.402 64.344L35.25 60.48" stroke-width="1.2" stroke="#000" stroke-miterlimit="10" fill="none"/><path d="M51.55 62.707h8v11h-8zm0 0" fill="#fff"/><use xlink:href="#a" x="51.551" y="71.37" fill="#f00"/><path d="M34.168 97.87h8v11h-8zm0 0" fill="#fff"/><use xlink:href="#a" x="34.168" y="106.534" fill="#f00"/><path d="M160.953 108.81l.54-10.85" stroke-width="1.2" stroke="#000" stroke-miterlimit="10" fill="none"/><path d="M161.492 97.96l.54-10.85" stroke-width="1.2" stroke="#f00" stroke-miterlimit="10" fill="none"/><path d="M155.848 108.555l.54-10.848" stroke-width="1.2" stroke="#000" stroke-miterlimit="10" fill="none"/><path d="M156.387 97.707l.54-10.848" stroke-width="1.2" stroke="#f00" stroke-miterlimit="10" fill="none"/><path d="M158.402 108.68l8.46 6.812" stroke-width="1.2" stroke="#000" stroke-miterlimit="10" fill="none"/><path d="M166.863 115.492l8.457 6.813" stroke-width="1.2" stroke="#00f" stroke-miterlimit="10" fill="none"/><path d="M155.477 81.484h8v11h-8zm0 0" fill="#fff"/><use xlink:href="#a" x="155.477" y="90.147" fill="#f00"/><path d="M175.32 122.305l10.485-2.844" stroke-width="1.2" stroke="#00f" stroke-miterlimit="10" fill="none"/><path d="M185.805 119.46l10.484-2.84" stroke-width="1.2" stroke="#000" stroke-miterlimit="10" fill="none"/><path d="M172.32 116.805h7v11h-7zm0 0" fill="#fff"/><use xlink:href="#b" x="172.32" y="125.468" fill="#00f"/><path d="M196.29 116.62l5.562-20.995M201.785 115.832l4.45-16.8M211.69 131.938l-15.4-15.317M201.852 95.625l20.964-5.684M222.816 89.94l15.407 15.318M227.96 87.848l12.325 12.254M228.38 68.945l-5.564 20.996M238.223 105.258l-5.567 21M238.223 105.258l20.964-5.68M232.656 126.258l-20.965 5.68M229.227 121.89l-16.774 4.547M259.188 99.578l5.562-21M254.805 96.168l4.45-16.797M264.75 78.578l-15.402-15.316M249.348 63.262l-20.97 5.683M248.586 68.762l-16.774 4.547M140.25 238.32l-21.69 1.2" stroke-width="1.2" stroke="#000" stroke-miterlimit="10" fill="none"/></g></svg>