<svg xmlns="http://www.w3.org/2000/svg" xmlns:xlink="http://www.w3.org/1999/xlink" width="300pt" height="300pt" viewBox="0 0 300 300"><defs><symbol overflow="visible"><path d="M.453 1.594v-7.938h4.5v7.938zm.5-.5h3.5v-6.938h-3.5zm0 0"/></symbol><symbol overflow="visible" id="a"><path d="M3.547-5.953c-.65 0-1.164.242-1.547.72-.375.48-.563 1.13-.563 1.952 0 .835.188 1.49.563 1.967.383.48.898.72 1.547.72.644 0 1.156-.24 1.53-.72.376-.476.564-1.132.564-1.968 0-.822-.187-1.474-.562-1.954-.375-.477-.887-.72-1.53-.72zm0-.734c.914 0 1.648.312 2.203.937.55.617.828 1.438.828 2.47 0 1.042-.277 1.87-.828 2.483-.555.617-1.29.922-2.203.922-.93 0-1.668-.305-2.22-.922C.774-1.41.5-2.237.5-3.28c0-1.033.273-1.853.828-2.47.55-.625 1.29-.938 2.22-.938zm0 0"/></symbol><symbol overflow="visible" id="b"><path d="M.89-6.563H2.08l2.906 5.485v-5.484h.86V0H4.656L1.75-5.484V0H.89zm0 0"/></symbol><symbol overflow="visible" id="c"><path d="M.89-6.563h.876v2.688H5v-2.688h.89V0H5v-3.125H1.766V0H.89zm0 0"/></symbol></defs><g><path fill="#fff" d="M0 0h300v300H0z"/><path d="M230.234 201.223l6.336 7.863" stroke-width="1.2" stroke="#f00" stroke-miterlimit="10" fill="none"/><path d="M236.57 209.086l6.332 7.86" stroke-width="1.2" stroke="#000" stroke-miterlimit="10" fill="none"/><path d="M230.234 201.223l3.645-9.414" stroke-width="1.2" stroke="#f00" stroke-miterlimit="10" fill="none"/><path d="M233.88 191.81l3.64-9.415" stroke-width="1.2" stroke="#000" stroke-miterlimit="10" fill="none"/><path d="M226.234 195.723h8v11h-8zm0 0" fill="#fff"/><use xlink:href="#a" x="226.234" y="204.386" fill="#f00"/><path d="M237.52 182.395l-12.668-15.723M239.95 177.84l-10.134-12.578M257.47 179.285l-19.95 3.11M224.852 166.672l-19.95 3.11M232.133 147.84l-7.28 18.832M204.902 169.78l-12.668-15.72M207.336 165.227l-10.137-12.58M192.234 154.06l7.282-18.833M192.234 154.06l-19.95 3.108M199.516 135.227l19.95-3.11M202.242 139.61l15.96-2.49M219.465 132.117l12.668 15.723M232.133 147.84l9.976-1.555" stroke-width="1.2" stroke="#000" stroke-miterlimit="10" fill="none"/><path d="M242.11 146.285l9.972-1.555" stroke-width="1.2" stroke="#00f" stroke-miterlimit="10" fill="none"/><path d="M234.86 152.223l7.98-1.243" stroke-width="1.2" stroke="#000" stroke-miterlimit="10" fill="none"/><path d="M242.84 150.98l7.98-1.246M252.082 144.73l6.336 7.864" stroke-width="1.2" stroke="#00f" stroke-miterlimit="10" fill="none"/><path d="M258.418 152.594l6.332 7.86" stroke-width="1.2" stroke="#000" stroke-miterlimit="10" fill="none"/><path d="M249.082 139.23h7v11h-7zm0 0" fill="#fff"/><use xlink:href="#b" x="249.082" y="147.894" fill="#00f"/><path d="M264.75 160.453l-7.28 18.832M259.59 160.62l-5.824 15.067M172.285 157.168l-9.21 17.965M158.043 142.855l14.242 14.313M156.102 147.637l11.39 11.45M163.074 175.133l-9.97-1.602" stroke-width="1.2" stroke="#000" stroke-miterlimit="10" fill="none"/><path d="M153.105 173.53l-9.964-1.604" stroke-width="1.2" stroke="#00f" stroke-miterlimit="10" fill="none"/><path d="M161.836 170.12l-7.973-1.28" stroke-width="1.2" stroke="#000" stroke-miterlimit="10" fill="none"/><path d="M153.863 168.84l-7.976-1.285M143.14 171.926l-3.11-19.95" stroke-width="1.2" stroke="#00f" stroke-miterlimit="10" fill="none"/><path d="M140.14 166.426h7v11h-7zm0 0" fill="#fff"/><use xlink:href="#b" x="140.141" y="175.089" fill="#00f"/><path d="M140.03 151.977l-8.983-4.606" stroke-width="1.2" stroke="#00f" stroke-miterlimit="10" fill="none"/><path d="M131.047 147.37l-8.98-4.604" stroke-width="1.2" stroke="#000" stroke-miterlimit="10" fill="none"/><path d="M140.03 151.977l9.01-4.563" stroke-width="1.2" stroke="#00f" stroke-miterlimit="10" fill="none"/><path d="M149.04 147.414l9.003-4.56" stroke-width="1.2" stroke="#000" stroke-miterlimit="10" fill="none"/><path d="M137.03 146.477h7v11h-7zm0 0" fill="#fff"/><use xlink:href="#b" x="137.031" y="155.14" fill="#00f"/><path d="M122.066 142.766l-16.96 10.953M102.73 153.84l.504 10.082" stroke-width="1.2" stroke="#000" stroke-miterlimit="10" fill="none"/><path d="M103.234 163.922l.504 10.082" stroke-width="1.2" stroke="#f00" stroke-miterlimit="10" fill="none"/><path d="M107.477 153.602l.503 10.082" stroke-width="1.2" stroke="#000" stroke-miterlimit="10" fill="none"/><path d="M107.98 163.684l.504 10.082" stroke-width="1.2" stroke="#f00" stroke-miterlimit="10" fill="none"/><path d="M105.105 153.72l-8.984-4.607" stroke-width="1.2" stroke="#000" stroke-miterlimit="10" fill="none"/><path d="M96.12 149.113l-8.983-4.605" stroke-width="1.2" stroke="#00f" stroke-miterlimit="10" fill="none"/><path d="M102.11 168.383h8v11h-8zm0 0" fill="#fff"/><use xlink:href="#a" x="102.109" y="177.046" fill="#f00"/><path d="M87.137 144.508l-8.48 5.476" stroke-width="1.2" stroke="#00f" stroke-miterlimit="10" fill="none"/><path d="M78.656 149.984l-8.48 5.48" stroke-width="1.2" stroke="#000" stroke-miterlimit="10" fill="none"/><path d="M80.137 139.008h14v11h-14zm0 0" fill="#fff"/><g fill="#00f"><use xlink:href="#b" x="80.137" y="147.671"/><use xlink:href="#c" x="87.114" y="147.671"/></g><path d="M70.176 155.465l1.008 20.164M65.53 157.715l.81 16.133M52.21 146.254l17.966 9.21M71.184 175.63l-16.96 10.952M54.223 186.582l-17.965-9.21M54.594 181.434l-14.375-7.368M36.258 177.37l-1.008-20.163M35.25 157.207l16.96-10.953M39.523 160.102l13.567-8.762M158.043 142.855l3.207-19.933M161.25 122.922l9.434-3.594" stroke-width="1.2" stroke="#000" stroke-miterlimit="10" fill="none"/><path d="M170.684 119.328l9.433-3.598" stroke-width="1.2" stroke="#00f" stroke-miterlimit="10" fill="none"/><path d="M161.445 117.762l7.547-2.875" stroke-width="1.2" stroke="#000" stroke-miterlimit="10" fill="none"/><path d="M168.992 114.887l7.547-2.875" stroke-width="1.2" stroke="#00f" stroke-miterlimit="10" fill="none"/><path d="M145.594 110.176l15.656 12.746" stroke-width="1.2" stroke="#000" stroke-miterlimit="10" fill="none"/><path d="M180.117 115.73l1.606-9.964" stroke-width="1.2" stroke="#00f" stroke-miterlimit="10" fill="none"/><path d="M181.723 105.766l1.605-9.97" stroke-width="1.2" stroke="#000" stroke-miterlimit="10" fill="none"/><path d="M177.117 110.23h7v11h-7zm0 0" fill="#fff"/><use xlink:href="#b" x="177.117" y="118.894" fill="#00f"/><path d="M183.328 95.797l-15.66-12.742M178.762 98.207l-12.528-10.195M183.328 95.797l18.867-7.188M167.668 83.055L148.8 90.242M148.8 90.242l-3.206 19.934M153.172 92.988l-2.567 15.95" stroke-width="1.2" stroke="#000" stroke-miterlimit="10" fill="none"/></g></svg>