<svg xmlns="http://www.w3.org/2000/svg" xmlns:xlink="http://www.w3.org/1999/xlink" width="300pt" height="300pt" viewBox="0 0 300 300"><defs><symbol overflow="visible"><path d="M.547 1.938V-7.75h5.5v9.688zm.625-.61h4.266v-8.47H1.171zm0 0"/></symbol><symbol overflow="visible" id="a"><path d="M5.89-7.75v1.047c-.417-.195-.808-.344-1.17-.438-.368-.094-.72-.14-1.064-.14-.586 0-1.04.116-1.36.343-.323.23-.483.554-.483.968 0 .357.1.626.312.814.22.18.625.324 1.22.437L4-4.593c.813.157 1.41.434 1.797.828.383.387.578.903.578 1.547 0 .783-.262 1.376-.78 1.783-.525.398-1.29.593-2.298.593-.375 0-.78-.047-1.22-.14C1.648-.066 1.208-.19.75-.36v-1.11c.445.25.88.44 1.297.564.426.125.844.187 1.25.187.625 0 1.1-.116 1.437-.358.332-.25.5-.598.5-1.047 0-.395-.12-.703-.36-.922-.24-.226-.636-.398-1.186-.515l-.657-.126c-.81-.156-1.4-.406-1.764-.75C.898-4.78.72-5.258.72-5.875c0-.707.25-1.266.75-1.672.5-.414 1.19-.625 2.077-.625.375 0 .754.04 1.14.11.395.074.797.18 1.204.312zm0 0"/></symbol><symbol overflow="visible" id="b"><path d="M4.328-7.28c-.78 0-1.406.296-1.875.89-.46.585-.687 1.382-.687 2.39 0 1.012.226 1.813.687 2.406.47.586 1.094.875 1.875.875.79 0 1.414-.288 1.875-.874.457-.593.688-1.394.688-2.406 0-1.008-.23-1.805-.687-2.39-.46-.594-1.086-.89-1.875-.89zm0-.892c1.125 0 2.024.383 2.703 1.14C7.708-6.28 8.048-5.27 8.048-4c0 1.262-.34 2.273-1.016 3.03C6.353-.22 5.454.157 4.33.157S2.3-.22 1.625-.97c-.668-.75-1-1.757-1-3.03 0-1.27.332-2.28 1-3.03.676-.76 1.578-1.142 2.703-1.142zm0 0"/></symbol><symbol overflow="visible" id="c"><path d="M1.078-8.016h4.61v.907H2.171v2.36h3.172v.922H2.172V0H1.078zm0 0"/></symbol><symbol overflow="visible" id="d"><path d="M1.078-8.016h1.47l3.546 6.704v-6.704h1.062V0H5.688L2.124-6.703V0H1.078zm0 0"/></symbol><symbol overflow="visible" id="e"><path d="M1.078-8.016h1.094v3.282H6.11v-3.282h1.077V0H6.11v-3.813H2.17V0H1.078zm0 0"/></symbol><symbol overflow="visible"><path d="M.453 1.594v-7.938h4.5v7.938zm.5-.5h3.5v-6.938h-3.5zm0 0"/></symbol><symbol overflow="visible" id="f"><path d="M1.734-.75h3.094V0H.656v-.75c.344-.344.8-.805 1.375-1.39.583-.594.954-.973 1.11-1.14.282-.322.473-.595.58-.814.112-.226.17-.445.17-.656 0-.352-.12-.64-.36-.86-.24-.218-.557-.327-.952-.327-.28 0-.578.054-.89.156-.305.093-.633.24-.985.436v-.906c.352-.133.688-.238 1-.313.313-.082.598-.125.86-.125.675 0 1.218.172 1.624.516.407.344.61.797.61 1.36 0 .273-.055.53-.156.78-.105.243-.288.524-.546.845-.074.085-.31.328-.703.734-.398.406-.95.976-1.656 1.703zm0 0"/></symbol></defs><g><path fill="#fff" d="M0 0h300v300H0z"/><path d="M162.477 166.56l5.996-12.474" stroke-width="1.2" stroke="#cc0" stroke-miterlimit="10" fill="none"/><path d="M168.473 154.086l6-12.47M135.047 162.855l13.715 1.852" stroke-width="1.2" stroke="#000" stroke-miterlimit="10" fill="none"/><path d="M148.762 164.707l13.715 1.852" stroke-width="1.2" stroke="#cc0" stroke-miterlimit="10" fill="none"/><path d="M159.477 160.06h7v13h-7zm0 0" fill="#fff"/><use xlink:href="#a" x="159.477" y="169.96" fill="#cc0"/><path d="M174.473 141.617l27.23-4.957M174.473 141.617l-20.016-19.12M167.973 144.414L151.96 129.12M204.77 137.758l4.664-13.03" stroke-width="1.2" stroke="#000" stroke-miterlimit="10" fill="none"/><path d="M209.434 124.727l4.66-13.032" stroke-width="1.2" stroke="#f00" stroke-miterlimit="10" fill="none"/><path d="M198.637 135.563l4.664-13.032" stroke-width="1.2" stroke="#000" stroke-miterlimit="10" fill="none"/><path d="M203.3 122.53l4.66-13.026" stroke-width="1.2" stroke="#f00" stroke-miterlimit="10" fill="none"/><path d="M201.703 136.66l17.91 21.106" stroke-width="1.2" stroke="#000" stroke-miterlimit="10" fill="none"/><path d="M207.027 104.102h9v13h-9zm0 0" fill="#fff"/><use xlink:href="#b" x="207.027" y="114.003" fill="#f00"/><path d="M219.613 157.766l27.23-4.957M223.5 163.676l21.785-3.96M210.29 183.828l9.323-26.062M246.844 152.81l17.906 21.104M264.75 173.914l-9.324 26.063M257.688 174.328l-7.46 20.848M255.426 199.977l-27.23 4.957M228.195 204.934l-17.906-21.106M231.37 198.61l-14.327-16.887M210.29 183.828l-13.618 2.477" stroke-width="1.2" stroke="#000" stroke-miterlimit="10" fill="none"/><path d="M196.672 186.305l-13.617 2.476" stroke-width="1.2" stroke="#3cc" stroke-miterlimit="10" fill="none"/><path d="M176.055 182.28h7v13h-7zm0 0" fill="#fff"/><use xlink:href="#c" x="176.055" y="192.183" fill="#3cc"/><path d="M154.457 122.496l-12.184 6.567" stroke-width="1.2" stroke="#000" stroke-miterlimit="10" fill="none"/><path d="M142.273 129.063l-12.183 6.562" stroke-width="1.2" stroke="#00f" stroke-miterlimit="10" fill="none"/><path d="M154.457 122.496l1.852-13.715" stroke-width="1.2" stroke="#000" stroke-miterlimit="10" fill="none"/><path d="M156.31 108.78l1.85-13.714M130.09 135.625l2.476 13.617" stroke-width="1.2" stroke="#00f" stroke-miterlimit="10" fill="none"/><path d="M132.566 149.242l2.48 13.613" stroke-width="1.2" stroke="#000" stroke-miterlimit="10" fill="none"/><path d="M136.992 137.184l1.985 10.89" stroke-width="1.2" stroke="#00f" stroke-miterlimit="10" fill="none"/><path d="M138.977 148.074l1.98 10.895" stroke-width="1.2" stroke="#000" stroke-miterlimit="10" fill="none"/><path d="M126.09 129.125h8v13h-8zm0 0" fill="#fff"/><use xlink:href="#d" x="126.09" y="139.026" fill="#00f"/><path d="M135.047 162.855l-9.56 10.008" stroke-width="1.2" stroke="#000" stroke-miterlimit="10" fill="none"/><path d="M125.488 172.863l-9.558 10.008M115.93 182.87l-13.45-3.272" stroke-width="1.2" stroke="#00f" stroke-miterlimit="10" fill="none"/><path d="M102.48 179.598l-13.445-3.274" stroke-width="1.2" stroke="#000" stroke-miterlimit="10" fill="none"/><path d="M107.93 176.37h17v13h-17zm0 0" fill="#fff"/><g fill="#00f"><use xlink:href="#d" x="107.93" y="186.272"/><use xlink:href="#e" x="115.913" y="186.272"/></g><path d="M89.035 176.324l-7.773-26.566M82.008 175.496l-6.22-21.25M69.918 196.34l19.117-20.016M81.262 149.758l-26.895-6.547M54.367 143.21L35.25 163.228M57.164 149.71L41.87 165.724M35.25 163.227l3.887 13.28" stroke-width="1.2" stroke="#000" stroke-miterlimit="10" fill="none"/><path d="M39.137 176.508l3.886 13.28M43.023 189.79l13.45 3.273" stroke-width="1.2" stroke="#00f" stroke-miterlimit="10" fill="none"/><path d="M56.473 193.063l13.445 3.277" stroke-width="1.2" stroke="#000" stroke-miterlimit="10" fill="none"/><path d="M47.254 184.117l10.758 2.62" stroke-width="1.2" stroke="#00f" stroke-miterlimit="10" fill="none"/><path d="M58.012 186.738l10.758 2.617" stroke-width="1.2" stroke="#000" stroke-miterlimit="10" fill="none"/><path d="M39.023 183.29h8v13h-8zm0 0" fill="#fff"/><use xlink:href="#d" x="39.023" y="193.19" fill="#00f"/><path d="M147.16 86.566h22v17h-22zm0 0" fill="#fff"/><g fill="#00f"><use xlink:href="#d" x="147.16" y="96.468"/><use xlink:href="#e" x="155.144" y="96.468"/></g><use xlink:href="#f" x="163.168" y="101.351" fill="#00f"/></g></svg>