<svg xmlns="http://www.w3.org/2000/svg" xmlns:xlink="http://www.w3.org/1999/xlink" width="300pt" height="300pt" viewBox="0 0 300 300"><defs><symbol overflow="visible"><path d="M.453 1.594v-7.938h4.5v7.938zm.5-.5h3.5v-6.938h-3.5zm0 0"/></symbol><symbol overflow="visible" id="a"><path d="M3.547-5.953c-.65 0-1.164.242-1.547.72-.375.48-.563 1.13-.563 1.952 0 .835.188 1.49.563 1.967.383.48.898.72 1.547.72.644 0 1.156-.24 1.53-.72.376-.476.564-1.132.564-1.968 0-.822-.187-1.474-.562-1.954-.375-.477-.887-.72-1.53-.72zm0-.734c.914 0 1.648.312 2.203.937.55.617.828 1.438.828 2.47 0 1.042-.277 1.87-.828 2.483-.555.617-1.29.922-2.203.922-.93 0-1.668-.305-2.22-.922C.774-1.41.5-2.237.5-3.28c0-1.033.273-1.853.828-2.47.55-.625 1.29-.938 2.22-.938zm0 0"/></symbol><symbol overflow="visible" id="b"><path d="M.89-6.563H2.08l2.906 5.485v-5.484h.86V0H4.656L1.75-5.484V0H.89zm0 0"/></symbol><symbol overflow="visible" id="c"><path d="M.89-6.563h.876v2.688H5v-2.688h.89V0H5v-3.125H1.766V0H.89zm0 0"/></symbol></defs><g><path fill="#fff" d="M0 0h300v300H0z"/><path d="M224.082 204.773l5.055 8.797" stroke-width="1.2" stroke="#f00" stroke-miterlimit="10" fill="none"/><path d="M229.137 213.57l5.05 8.8" stroke-width="1.2" stroke="#000" stroke-miterlimit="10" fill="none"/><path d="M224.082 204.773l5.094-8.777" stroke-width="1.2" stroke="#f00" stroke-miterlimit="10" fill="none"/><path d="M229.176 195.996l5.094-8.773" stroke-width="1.2" stroke="#000" stroke-miterlimit="10" fill="none"/><path d="M220.082 199.273h8v11h-8zm0 0" fill="#fff"/><use xlink:href="#a" x="220.082" y="207.937" fill="#f00"/><path d="M234.27 187.223l-10.106-17.598M237.398 183.082l-8.082-14.078M254.563 187.27l-20.293-.047M224.164 169.625l-20.293-.047M234.352 152.07l-10.188 17.555M203.87 169.578l-10.104-17.598M207 165.438l-8.086-14.08M193.766 151.98l10.187-17.554M193.766 151.98l-20.293-.046M203.953 134.426l20.293.047M205.97 139.207l16.233.04M224.246 134.473l10.106 17.597M234.352 152.07l10.144.024" stroke-width="1.2" stroke="#000" stroke-miterlimit="10" fill="none"/><path d="M244.496 152.094l10.15.023" stroke-width="1.2" stroke="#00f" stroke-miterlimit="10" fill="none"/><path d="M236.367 156.852l8.117.02" stroke-width="1.2" stroke="#000" stroke-miterlimit="10" fill="none"/><path d="M244.484 156.87l8.12.02M254.645 152.117l5.05 8.8" stroke-width="1.2" stroke="#00f" stroke-miterlimit="10" fill="none"/><path d="M259.695 160.918l5.055 8.8" stroke-width="1.2" stroke="#000" stroke-miterlimit="10" fill="none"/><path d="M251.645 146.617h7v11h-7zm0 0" fill="#fff"/><use xlink:href="#b" x="251.645" y="155.28" fill="#00f"/><path d="M264.75 169.72l-10.188 17.55M259.602 169.074l-8.15 14.043M173.473 151.934l-11.97 16.386M168.418 150.754l-9.574 13.113M161.582 135.488l11.89 16.446M161.504 168.32l-9.64-3.156" stroke-width="1.2" stroke="#000" stroke-miterlimit="10" fill="none"/><path d="M151.863 165.164l-9.644-3.156M142.22 162.008l.046-20.293M142.22 162.008l-8.224 5.945" stroke-width="1.2" stroke="#00f" stroke-miterlimit="10" fill="none"/><path d="M133.996 167.953l-8.223 5.942" stroke-width="1.2" stroke="#000" stroke-miterlimit="10" fill="none"/><path d="M139.22 156.508h7v11h-7zm0 0" fill="#fff"/><use xlink:href="#b" x="139.219" y="165.171" fill="#00f"/><path d="M142.266 141.715l9.656-3.113" stroke-width="1.2" stroke="#00f" stroke-miterlimit="10" fill="none"/><path d="M151.922 138.602l9.66-3.114" stroke-width="1.2" stroke="#000" stroke-miterlimit="10" fill="none"/><path d="M145.664 145.637l7.723-2.492" stroke-width="1.2" stroke="#00f" stroke-miterlimit="10" fill="none"/><path d="M153.387 143.145l7.726-2.493" stroke-width="1.2" stroke="#000" stroke-miterlimit="10" fill="none"/><path d="M139.266 136.215h7v11h-7zm0 0" fill="#fff"/><use xlink:href="#b" x="139.266" y="144.878" fill="#00f"/><path d="M161.582 135.488l6.313-19.29M167.895 116.2l9.93-2.087" stroke-width="1.2" stroke="#000" stroke-miterlimit="10" fill="none"/><path d="M177.824 114.113l9.93-2.086" stroke-width="1.2" stroke="#00f" stroke-miterlimit="10" fill="none"/><path d="M168.898 111.11l7.946-1.67" stroke-width="1.2" stroke="#000" stroke-miterlimit="10" fill="none"/><path d="M176.844 109.44l7.945-1.667" stroke-width="1.2" stroke="#00f" stroke-miterlimit="10" fill="none"/><path d="M154.352 101.09l13.543 15.11" stroke-width="1.2" stroke="#000" stroke-miterlimit="10" fill="none"/><path d="M187.754 112.027l3.16-9.64" stroke-width="1.2" stroke="#00f" stroke-miterlimit="10" fill="none"/><path d="M190.914 102.387l3.156-9.645" stroke-width="1.2" stroke="#000" stroke-miterlimit="10" fill="none"/><path d="M184.754 106.527h7v11h-7zm0 0" fill="#fff"/><use xlink:href="#b" x="184.754" y="115.19" fill="#00f"/><path d="M194.07 92.742L180.527 77.63M189.16 94.418l-10.836-12.09M194.07 92.742l19.86-4.172M180.527 77.63l-19.86 4.175M160.668 81.805l-6.316 19.285M164.574 85.22l-5.054 15.425M125.773 173.895l-18.52-8.293M109.63 165.355l-1.036-10.093" stroke-width="1.2" stroke="#000" stroke-miterlimit="10" fill="none"/><path d="M108.594 155.262l-1.04-10.094" stroke-width="1.2" stroke="#f00" stroke-miterlimit="10" fill="none"/><path d="M104.88 165.844l-1.036-10.094" stroke-width="1.2" stroke="#000" stroke-miterlimit="10" fill="none"/><path d="M103.844 155.75l-1.04-10.094" stroke-width="1.2" stroke="#f00" stroke-miterlimit="10" fill="none"/><path d="M107.254 165.602l-8.223 5.94" stroke-width="1.2" stroke="#000" stroke-miterlimit="10" fill="none"/><path d="M99.03 171.543l-8.22 5.945" stroke-width="1.2" stroke="#00f" stroke-miterlimit="10" fill="none"/><path d="M101.18 139.914h8v11h-8zm0 0" fill="#fff"/><use xlink:href="#a" x="101.18" y="148.577" fill="#f00"/><path d="M90.81 177.488l-9.26-4.148" stroke-width="1.2" stroke="#00f" stroke-miterlimit="10" fill="none"/><path d="M81.55 173.34l-9.26-4.15" stroke-width="1.2" stroke="#000" stroke-miterlimit="10" fill="none"/><path d="M83.81 171.988h14v11h-14zm0 0" fill="#fff"/><g fill="#00f"><use xlink:href="#b" x="83.809" y="180.651"/><use xlink:href="#c" x="90.786" y="180.651"/></g><path d="M72.29 169.19l-2.075-20.182M67.332 167.664l-1.66-16.152M55.844 181.082l16.445-11.89M70.215 149.008l-18.52-8.297M51.695 140.71L35.25 152.6M52.848 145.77l-13.157 9.51M35.25 152.598l2.074 20.187M37.324 172.785l18.52 8.297M41.13 169.258l14.815 6.637" stroke-width="1.2" stroke="#000" stroke-miterlimit="10" fill="none"/></g></svg>