<svg xmlns="http://www.w3.org/2000/svg" xmlns:xlink="http://www.w3.org/1999/xlink" width="300pt" height="300pt" viewBox="0 0 300 300"><defs><symbol overflow="visible"><path d="M.453 1.594v-7.938h4.5v7.938zm.5-.5h3.5v-6.938h-3.5zm0 0"/></symbol><symbol overflow="visible" id="a"><path d="M3.547-5.953c-.65 0-1.164.242-1.547.72-.375.48-.563 1.13-.563 1.952 0 .835.188 1.49.563 1.967.383.48.898.72 1.547.72.644 0 1.156-.24 1.53-.72.376-.476.564-1.132.564-1.968 0-.822-.187-1.474-.562-1.954-.375-.477-.887-.72-1.53-.72zm0-.734c.914 0 1.648.312 2.203.937.55.617.828 1.438.828 2.47 0 1.042-.277 1.87-.828 2.483-.555.617-1.29.922-2.203.922-.93 0-1.668-.305-2.22-.922C.774-1.41.5-2.237.5-3.28c0-1.033.273-1.853.828-2.47.55-.625 1.29-.938 2.22-.938zm0 0"/></symbol><symbol overflow="visible" id="b"><path d="M.89-6.563H2.08l2.906 5.485v-5.484h.86V0H4.656L1.75-5.484V0H.89zm0 0"/></symbol><symbol overflow="visible" id="c"><path d="M.89-6.563h.876v2.688H5v-2.688h.89V0H5v-3.125H1.766V0H.89zm0 0"/></symbol><symbol overflow="visible"><path d="M.406 1.422V-5.64h4V1.42zM.844.97h3.11v-6.157H.843zm0 0"/></symbol><symbol overflow="visible" id="d"><path d="M3.688-5.016v2.172h2.17v.672H3.69V0H3.03v-2.172H.845v-.672H3.03v-2.172zm0 0"/></symbol></defs><g><path fill="#fff" d="M0 0h300v300H0z"/><path d="M105.69 170.69l-2.178-7.65" stroke-width="1.2" stroke="#f00" stroke-miterlimit="10" fill="none"/><path d="M103.512 163.04l-2.176-7.653" stroke-width="1.2" stroke="#000" stroke-miterlimit="10" fill="none"/><path d="M105.69 170.69l7.716 1.943" stroke-width="1.2" stroke="#f00" stroke-miterlimit="10" fill="none"/><path d="M113.406 172.633l7.72 1.937" stroke-width="1.2" stroke="#000" stroke-miterlimit="10" fill="none"/><path d="M101.69 165.19h8v11h-8zm0 0" fill="#fff"/><use xlink:href="#a" x="101.691" y="173.854" fill="#f00"/><path d="M101.336 155.387l-15.434-3.883M85.902 151.504L81.547 136.2M81.547 136.2l-7.715-1.942" stroke-width="1.2" stroke="#000" stroke-miterlimit="10" fill="none"/><path d="M73.832 134.258l-7.72-1.942M66.113 132.316l-2.175-7.652" stroke-width="1.2" stroke="#00f" stroke-miterlimit="10" fill="none"/><path d="M63.938 124.664l-2.176-7.652M55.04 143.742l5.538-5.71" stroke-width="1.2" stroke="#000" stroke-miterlimit="10" fill="none"/><path d="M60.578 138.03l5.535-5.714" stroke-width="1.2" stroke="#00f" stroke-miterlimit="10" fill="none"/><path d="M56.113 124.816h21v15h-21zm0 0" fill="#fff"/><g fill="#00f"><use xlink:href="#b" x="56.113" y="136.918"/><use xlink:href="#c" x="63.091" y="136.918"/></g><use xlink:href="#d" x="70.105" y="132.035" fill="#00f"/><path d="M61.762 117.012l-15.434-3.88M46.328 113.133L35.25 124.555M35.25 124.555l4.355 15.308M39.605 139.863l15.434 3.88M121.125 174.57l4.355 15.305M125.16 175.078l3.485 12.242M132.2 163.148l-11.075 11.422M125.48 189.875l15.43 3.883M140.91 193.758l11.078-11.426M139.332 190.008l8.86-9.137M151.988 182.332l7.72 1.94" stroke-width="1.2" stroke="#000" stroke-miterlimit="10" fill="none"/><path d="M159.707 184.273l7.715 1.942" stroke-width="1.2" stroke="#00f" stroke-miterlimit="10" fill="none"/><path d="M151.988 182.332l-4.355-15.305" stroke-width="1.2" stroke="#000" stroke-miterlimit="10" fill="none"/><path d="M167.422 186.215l5.54-5.715" stroke-width="1.2" stroke="#00f" stroke-miterlimit="10" fill="none"/><path d="M172.96 180.5l5.54-5.71" stroke-width="1.2" stroke="#000" stroke-miterlimit="10" fill="none"/><path d="M160.422 180.715h14v11h-14zm0 0" fill="#fff"/><g fill="#00f"><use xlink:href="#b" x="160.422" y="189.378"/><use xlink:href="#c" x="167.399" y="189.378"/></g><path d="M178.5 174.79l7.715 1.94" stroke-width="1.2" stroke="#000" stroke-miterlimit="10" fill="none"/><path d="M186.215 176.73l7.715 1.942" stroke-width="1.2" stroke="#00f" stroke-miterlimit="10" fill="none"/><path d="M180.953 171.547l6.176 1.55" stroke-width="1.2" stroke="#000" stroke-miterlimit="10" fill="none"/><path d="M187.13 173.098l6.17 1.554M174.145 159.484l2.175 7.653" stroke-width="1.2" stroke="#00f" stroke-miterlimit="10" fill="none"/><path d="M176.32 167.137l2.18 7.652" stroke-width="1.2" stroke="#000" stroke-miterlimit="10" fill="none"/><path d="M193.93 178.672l5.54-5.715" stroke-width="1.2" stroke="#00f" stroke-miterlimit="10" fill="none"/><path d="M199.47 172.957l5.538-5.71" stroke-width="1.2" stroke="#000" stroke-miterlimit="10" fill="none"/><path d="M190.93 173.172h7v11h-7zm0 0" fill="#fff"/><use xlink:href="#b" x="190.93" y="181.835" fill="#00f"/><path d="M205.008 167.246l7.72 1.94" stroke-width="1.2" stroke="#000" stroke-miterlimit="10" fill="none"/><path d="M212.727 169.188l7.714 1.937" stroke-width="1.2" stroke="#00f" stroke-miterlimit="10" fill="none"/><path d="M205.008 167.246l-4.356-15.305M200.973 166.738l-3.485-12.242" stroke-width="1.2" stroke="#000" stroke-miterlimit="10" fill="none"/><path d="M220.44 171.125l5.54-5.71" stroke-width="1.2" stroke="#00f" stroke-miterlimit="10" fill="none"/><path d="M225.98 165.414l5.54-5.71" stroke-width="1.2" stroke="#000" stroke-miterlimit="10" fill="none"/><path d="M213.44 165.625h14v11h-14zm0 0" fill="#fff"/><g fill="#00f"><use xlink:href="#b" x="213.441" y="174.288"/><use xlink:href="#c" x="220.419" y="174.288"/></g><path d="M231.52 159.703l-4.356-15.305M234.684 157.148l-3.485-12.246M246.95 163.582l-15.43-3.88M227.164 144.398l11.074-11.425M238.238 132.973l15.434 3.88M240.695 129.73l12.348 3.102M233.887 117.668l4.35 15.305M253.672 136.852l2.18 7.652" stroke-width="1.2" stroke="#000" stroke-miterlimit="10" fill="none"/><path d="M255.852 144.504l2.175 7.656" stroke-width="1.2" stroke="#00f" stroke-miterlimit="10" fill="none"/><path d="M253.672 136.852l11.078-11.422" stroke-width="1.2" stroke="#000" stroke-miterlimit="10" fill="none"/><path d="M258.027 152.16l-5.54 5.71" stroke-width="1.2" stroke="#00f" stroke-miterlimit="10" fill="none"/><path d="M252.488 157.87l-5.54 5.712" stroke-width="1.2" stroke="#000" stroke-miterlimit="10" fill="none"/><path d="M254.23 150.695l-4.43 4.57" stroke-width="1.2" stroke="#00f" stroke-miterlimit="10" fill="none"/><path d="M249.8 155.266l-4.43 4.57" stroke-width="1.2" stroke="#000" stroke-miterlimit="10" fill="none"/><path d="M255.027 146.66h7v11h-7zm0 0" fill="#fff"/><use xlink:href="#b" x="255.027" y="155.323" fill="#00f"/><path d="M264.75 125.43l-4.355-15.305M260.715 124.922l-3.485-12.242M260.395 110.125l-15.434-3.883M244.96 106.242l-11.073 11.426M246.543 109.992l-8.863 9.137M200.652 151.94l-15.433-3.88M185.22 148.06l-5.536 5.713" stroke-width="1.2" stroke="#000" stroke-miterlimit="10" fill="none"/><path d="M179.684 153.773l-5.54 5.71" stroke-width="1.2" stroke="#00f" stroke-miterlimit="10" fill="none"/><path d="M186.8 151.81l-4.43 4.57" stroke-width="1.2" stroke="#000" stroke-miterlimit="10" fill="none"/><path d="M182.37 156.38l-4.433 4.57" stroke-width="1.2" stroke="#00f" stroke-miterlimit="10" fill="none"/><path d="M171.145 153.984h7v11h-7zm0 0" fill="#fff"/><use xlink:href="#b" x="171.145" y="162.647" fill="#00f"/><path d="M147.633 167.027l-15.434-3.88M145.176 170.27l-12.344-3.102" stroke-width="1.2" stroke="#000" stroke-miterlimit="10" fill="none"/></g></svg>