<svg xmlns="http://www.w3.org/2000/svg" xmlns:xlink="http://www.w3.org/1999/xlink" width="300pt" height="300pt" viewBox="0 0 300 300"><defs><symbol overflow="visible"><path d="M.453 1.594v-7.938h4.5v7.938zm.5-.5h3.5v-6.938h-3.5zm0 0"/></symbol><symbol overflow="visible" id="a"><path d="M1.766-3.14v2.406h1.421c.477 0 .833-.098 1.063-.297.227-.197.344-.5.344-.907 0-.407-.117-.708-.344-.907-.23-.195-.586-.297-1.063-.297zm0-2.688v1.97h1.312c.438 0 .758-.08.97-.236.218-.164.327-.414.327-.75 0-.332-.11-.578-.328-.734-.21-.164-.53-.25-.97-.25zM.89-6.562h2.266c.676 0 1.196.14 1.563.42.362.283.546.685.546 1.205 0 .398-.094.714-.282.953-.187.242-.464.39-.828.453.438.092.774.292 1.016.592.238.293.36.657.36 1.094 0 .594-.2 1.055-.595 1.375-.398.314-.964.47-1.703.47H.89zm0 0"/></symbol><symbol overflow="visible" id="b"><path d="M3.703-4.172c-.094-.05-.195-.086-.297-.11-.105-.02-.226-.03-.36-.03-.46 0-.812.152-1.062.453-.242.294-.36.715-.36 1.266V0H.813v-4.922h.813v.766c.176-.3.398-.524.672-.672.27-.145.598-.22.984-.22.064 0 .126.01.19.017.07.01.147.022.233.03zm0 0"/></symbol><symbol overflow="visible" id="c"><path d="M3.547-5.953c-.65 0-1.164.242-1.547.72-.375.48-.563 1.13-.563 1.952 0 .835.188 1.49.563 1.967.383.48.898.72 1.547.72.644 0 1.156-.24 1.53-.72.376-.476.564-1.132.564-1.968 0-.822-.187-1.474-.562-1.954-.375-.477-.887-.72-1.53-.72zm0-.734c.914 0 1.648.312 2.203.937.55.617.828 1.438.828 2.47 0 1.042-.277 1.87-.828 2.483-.555.617-1.29.922-2.203.922-.93 0-1.668-.305-2.22-.922C.774-1.41.5-2.237.5-3.28c0-1.033.273-1.853.828-2.47.55-.625 1.29-.938 2.22-.938zm0 0"/></symbol><symbol overflow="visible" id="d"><path d="M.89-6.563H2.08l2.906 5.485v-5.484h.86V0H4.656L1.75-5.484V0H.89zm0 0"/></symbol><symbol overflow="visible" id="e"><path d="M.89-6.563h3.766v.75h-2.89v1.938h2.61v.734h-2.61V0H.89zm0 0"/></symbol></defs><g><path fill="#fff" d="M0 0h300v300H0z"/><path d="M147.7 181.523l-6.454-8.777" stroke-width="1.2" stroke="#7f4d1a" stroke-miterlimit="10" fill="none"/><path d="M141.246 172.746l-6.453-8.78" stroke-width="1.2" stroke="#000" stroke-miterlimit="10" fill="none"/><path d="M142.7 176.023h11v11h-11zm0 0" fill="#fff"/><g fill="#7f4d1a"><use xlink:href="#a" x="142.699" y="184.687"/><use xlink:href="#b" x="149.099" y="184.687"/></g><path d="M134.793 163.965l-21.66 2.398M134.793 163.965l8.754-19.957M130.973 159.91l7.004-15.965M110.785 165.332l-4.375 9.977" stroke-width="1.2" stroke="#000" stroke-miterlimit="10" fill="none"/><path d="M106.41 175.31l-4.38 9.98" stroke-width="1.2" stroke="#f00" stroke-miterlimit="10" fill="none"/><path d="M115.48 167.39l-4.375 9.98" stroke-width="1.2" stroke="#000" stroke-miterlimit="10" fill="none"/><path d="M111.105 177.37l-4.378 9.978" stroke-width="1.2" stroke="#f00" stroke-miterlimit="10" fill="none"/><path d="M113.133 166.363l-6.453-8.78" stroke-width="1.2" stroke="#000" stroke-miterlimit="10" fill="none"/><path d="M106.68 157.582l-6.453-8.78" stroke-width="1.2" stroke="#00f" stroke-miterlimit="10" fill="none"/><path d="M96.38 180.816h8v11h-8zm0 0" fill="#fff"/><use xlink:href="#c" x="96.379" y="189.479" fill="#f00"/><path d="M100.227 148.8l-10.83 1.2" stroke-width="1.2" stroke="#00f" stroke-miterlimit="10" fill="none"/><path d="M89.398 150l-10.828 1.2" stroke-width="1.2" stroke="#000" stroke-miterlimit="10" fill="none"/><path d="M100.227 148.8l4.378-9.976" stroke-width="1.2" stroke="#00f" stroke-miterlimit="10" fill="none"/><path d="M104.605 138.824l4.38-9.976" stroke-width="1.2" stroke="#000" stroke-miterlimit="10" fill="none"/><path d="M97.227 143.3h7v11h-7zm0 0" fill="#fff"/><use xlink:href="#d" x="97.227" y="151.964" fill="#00f"/><path d="M78.57 151.2l-12.906-17.563M73.148 152.48l-10.324-14.05M69.816 171.152L78.57 151.2M65.664 133.637l4.38-9.977" stroke-width="1.2" stroke="#000" stroke-miterlimit="10" fill="none"/><path d="M70.043 123.66l4.375-9.976" stroke-width="1.2" stroke="#3cc" stroke-miterlimit="10" fill="none"/><path d="M65.664 133.637l-21.66 2.398" stroke-width="1.2" stroke="#000" stroke-miterlimit="10" fill="none"/><path d="M71.418 108.184h6v11h-6zm0 0" fill="#fff"/><use xlink:href="#e" x="71.418" y="116.847" fill="#3cc"/><path d="M44.004 136.035l-8.754 19.957M47.824 140.09l-7.004 15.965M35.25 155.992l12.906 17.56M48.156 173.55l21.66-2.398M49.758 168.215l17.328-1.918M69.816 171.152l6.45 8.782" stroke-width="1.2" stroke="#000" stroke-miterlimit="10" fill="none"/><path d="M76.266 179.934l6.453 8.78" stroke-width="1.2" stroke="#3cc" stroke-miterlimit="10" fill="none"/><path d="M79.72 183.215h6v11h-6zm0 0" fill="#fff"/><use xlink:href="#e" x="79.719" y="191.878" fill="#3cc"/><path d="M108.984 128.848l21.657-2.4M111.71 133.703l17.33-1.918M108.984 128.848l-12.906-17.563M130.64 126.45l12.907 17.558M143.547 144.008l10.832-1.196" stroke-width="1.2" stroke="#000" stroke-miterlimit="10" fill="none"/><path d="M154.38 142.813l10.827-1.2M165.207 141.613l6.453 8.782" stroke-width="1.2" stroke="#f00" stroke-miterlimit="10" fill="none"/><path d="M171.66 150.395l6.453 8.777" stroke-width="1.2" stroke="#000" stroke-miterlimit="10" fill="none"/><path d="M161.207 136.113h8v11h-8zm0 0" fill="#fff"/><use xlink:href="#c" x="161.207" y="144.776" fill="#f00"/><path d="M178.113 159.172l21.66-2.395M199.773 156.777l12.903 17.56M205.195 155.496l10.325 14.047M208.527 136.82l-8.754 19.957M212.676 174.336l21.66-2.395M234.336 171.94l8.754-19.956M230.516 167.883l7.004-15.965M243.09 151.984l10.832-1.2" stroke-width="1.2" stroke="#000" stroke-miterlimit="10" fill="none"/><path d="M253.922 150.785l10.828-1.2" stroke-width="1.2" stroke="#3cc" stroke-miterlimit="10" fill="none"/><path d="M243.09 151.984l-12.906-17.558" stroke-width="1.2" stroke="#000" stroke-miterlimit="10" fill="none"/><path d="M261.75 144.086h6v11h-6zm0 0" fill="#fff"/><use xlink:href="#e" x="261.75" y="152.749" fill="#3cc"/><path d="M230.184 134.426l-21.657 2.394M228.582 139.762l-17.328 1.914M208.527 136.82l-6.453-8.78" stroke-width="1.2" stroke="#000" stroke-miterlimit="10" fill="none"/><path d="M202.074 128.04l-6.453-8.778" stroke-width="1.2" stroke="#3cc" stroke-miterlimit="10" fill="none"/><path d="M189.62 113.762h6v11h-6zm0 0" fill="#fff"/><use xlink:href="#e" x="189.621" y="122.425" fill="#3cc"/></g></svg>