<svg xmlns="http://www.w3.org/2000/svg" xmlns:xlink="http://www.w3.org/1999/xlink" width="300pt" height="300pt" viewBox="0 0 300 300"><defs><symbol overflow="visible"><path d="M.453 1.594v-7.938h4.5v7.938zm.5-.5h3.5v-6.938h-3.5zm0 0"/></symbol><symbol overflow="visible" id="a"><path d="M.89-6.563h3.766v.75h-2.89v1.938h2.61v.734h-2.61V0H.89zm0 0"/></symbol><symbol overflow="visible" id="b"><path d="M3.547-5.953c-.65 0-1.164.242-1.547.72-.375.48-.563 1.13-.563 1.952 0 .835.188 1.49.563 1.967.383.48.898.72 1.547.72.644 0 1.156-.24 1.53-.72.376-.476.564-1.132.564-1.968 0-.822-.187-1.474-.562-1.954-.375-.477-.887-.72-1.53-.72zm0-.734c.914 0 1.648.312 2.203.937.55.617.828 1.438.828 2.47 0 1.042-.277 1.87-.828 2.483-.555.617-1.29.922-2.203.922-.93 0-1.668-.305-2.22-.922C.774-1.41.5-2.237.5-3.28c0-1.033.273-1.853.828-2.47.55-.625 1.29-.938 2.22-.938zm0 0"/></symbol><symbol overflow="visible" id="c"><path d="M.89-6.563H2.08l2.906 5.485v-5.484h.86V0H4.656L1.75-5.484V0H.89zm0 0"/></symbol><symbol overflow="visible" id="d"><path d="M.89-6.563h.876v2.688H5v-2.688h.89V0H5v-3.125H1.766V0H.89zm0 0"/></symbol></defs><g><path fill="#fff" d="M0 0h300v300H0z"/><path d="M100.82 175.543l-7.297-6.29" stroke-width="1.2" stroke="#3cc" stroke-miterlimit="10" fill="none"/><path d="M93.523 169.254l-7.296-6.29" stroke-width="1.2" stroke="#000" stroke-miterlimit="10" fill="none"/><path d="M97.82 170.043h6v11h-6zm0 0" fill="#fff"/><use xlink:href="#a" x="97.82" y="178.706" fill="#3cc"/><path d="M86.227 162.965l-18.192 6.355M82.91 159.32l-14.55 5.086M89.816 144.04l-3.59 18.925M68.035 169.32l-14.597-12.578M53.438 156.742l-9.094 3.18" stroke-width="1.2" stroke="#000" stroke-miterlimit="10" fill="none"/><path d="M44.344 159.922l-9.094 3.176" stroke-width="1.2" stroke="#3cc" stroke-miterlimit="10" fill="none"/><path d="M53.438 156.742l3.593-18.926M58.254 155.695l2.87-15.14" stroke-width="1.2" stroke="#000" stroke-miterlimit="10" fill="none"/><path d="M29.25 157.598h6v11h-6zm0 0" fill="#fff"/><use xlink:href="#a" x="29.25" y="166.261" fill="#3cc"/><path d="M57.03 137.816l18.193-6.355M75.223 131.46l14.593 12.58M73.723 136.152l11.675 10.063M89.816 144.04l18.192-6.356M108.008 137.684l7.297 6.29" stroke-width="1.2" stroke="#000" stroke-miterlimit="10" fill="none"/><path d="M115.305 143.973l7.297 6.29M122.602 150.262l9.097-3.18" stroke-width="1.2" stroke="#f00" stroke-miterlimit="10" fill="none"/><path d="M131.7 147.082l9.093-3.176" stroke-width="1.2" stroke="#000" stroke-miterlimit="10" fill="none"/><path d="M118.602 144.762h8v11h-8zm0 0" fill="#fff"/><use xlink:href="#b" x="118.602" y="153.425" fill="#f00"/><path d="M140.793 143.906l7.297 6.29" stroke-width="1.2" stroke="#000" stroke-miterlimit="10" fill="none"/><path d="M148.09 150.195l7.3 6.29" stroke-width="1.2" stroke="#00f" stroke-miterlimit="10" fill="none"/><path d="M140.793 143.906l3.594-18.926M145.605 142.86l2.875-15.145" stroke-width="1.2" stroke="#000" stroke-miterlimit="10" fill="none"/><path d="M155.39 156.484l9.094-3.175" stroke-width="1.2" stroke="#00f" stroke-miterlimit="10" fill="none"/><path d="M164.484 153.31l9.094-3.18" stroke-width="1.2" stroke="#000" stroke-miterlimit="10" fill="none"/><path d="M155.715 151.566l7.273-2.54" stroke-width="1.2" stroke="#00f" stroke-miterlimit="10" fill="none"/><path d="M162.988 149.027l7.278-2.543" stroke-width="1.2" stroke="#000" stroke-miterlimit="10" fill="none"/><path d="M152.39 150.984h7v11h-7zm0 0" fill="#fff"/><use xlink:href="#c" x="152.391" y="159.647" fill="#00f"/><path d="M173.578 150.13l1.797-9.466" stroke-width="1.2" stroke="#000" stroke-miterlimit="10" fill="none"/><path d="M175.375 140.664l1.797-9.46M177.172 131.203l-7.3-6.29" stroke-width="1.2" stroke="#00f" stroke-miterlimit="10" fill="none"/><path d="M169.87 124.914l-7.296-6.29" stroke-width="1.2" stroke="#000" stroke-miterlimit="10" fill="none"/><path d="M177.172 131.203l9.094-3.18" stroke-width="1.2" stroke="#00f" stroke-miterlimit="10" fill="none"/><path d="M186.266 128.023l9.093-3.175" stroke-width="1.2" stroke="#000" stroke-miterlimit="10" fill="none"/><path d="M174.172 125.703h7v11h-7zm0 0" fill="#fff"/><use xlink:href="#c" x="174.172" y="134.366" fill="#00f"/><path d="M164.8 119.047l1.798-9.465" stroke-width="1.2" stroke="#000" stroke-miterlimit="10" fill="none"/><path d="M166.598 109.582l1.797-9.46" stroke-width="1.2" stroke="#f00" stroke-miterlimit="10" fill="none"/><path d="M160.348 118.203l1.797-9.465" stroke-width="1.2" stroke="#000" stroke-miterlimit="10" fill="none"/><path d="M162.145 108.738l1.796-9.465" stroke-width="1.2" stroke="#f00" stroke-miterlimit="10" fill="none"/><path d="M162.574 118.625l-18.187 6.355" stroke-width="1.2" stroke="#000" stroke-miterlimit="10" fill="none"/><path d="M162.168 94.195h8v11h-8zm0 0" fill="#fff"/><use xlink:href="#b" x="162.168" y="102.858" fill="#f00"/><path d="M144.387 124.98l-14.598-12.578M129.79 112.402l3.593-18.93M195.36 124.848l14.597 12.578M199.777 122.672l11.68 10.058M198.953 105.918l-3.594 18.93M209.957 137.426l18.188-6.356M228.145 131.07l3.593-18.93M224.05 128.332l2.876-15.14M228.145 131.07l14.597 12.578M231.738 112.14L217.14 99.567M217.14 99.566l-18.187 6.352M216.816 104.48l-14.55 5.082M198.953 105.918l-14.598-12.574M243.488 145.785l9.098-3.176" stroke-width="1.2" stroke="#000" stroke-miterlimit="10" fill="none"/><path d="M252.586 142.61l9.094-3.176" stroke-width="1.2" stroke="#f00" stroke-miterlimit="10" fill="none"/><path d="M241.996 141.508l9.094-3.176" stroke-width="1.2" stroke="#000" stroke-miterlimit="10" fill="none"/><path d="M251.09 138.332l9.094-3.18" stroke-width="1.2" stroke="#f00" stroke-miterlimit="10" fill="none"/><path d="M242.742 143.648l-1.797 9.465" stroke-width="1.2" stroke="#000" stroke-miterlimit="10" fill="none"/><path d="M240.945 153.113l-1.797 9.46" stroke-width="1.2" stroke="#00f" stroke-miterlimit="10" fill="none"/><path d="M256.934 131.793h8v11h-8zm0 0" fill="#fff"/><use xlink:href="#b" x="256.934" y="140.456" fill="#f00"/><path d="M239.148 162.574l7.3 6.29" stroke-width="1.2" stroke="#00f" stroke-miterlimit="10" fill="none"/><path d="M246.45 168.863l7.296 6.29" stroke-width="1.2" stroke="#000" stroke-miterlimit="10" fill="none"/><path d="M232.148 157.074h14v11h-14zm0 0" fill="#fff"/><g fill="#00f"><use xlink:href="#c" x="232.148" y="165.737"/><use xlink:href="#d" x="239.126" y="165.737"/></g><path d="M253.746 175.152l-3.594 18.93M250.152 194.082l7.3 6.285" stroke-width="1.2" stroke="#000" stroke-miterlimit="10" fill="none"/><path d="M257.453 200.367l7.297 6.29" stroke-width="1.2" stroke="#f00" stroke-miterlimit="10" fill="none"/><path d="M257.75 201.156h15v11h-15zm0 0" fill="#fff"/><g fill="#f00"><use xlink:href="#b" x="257.75" y="209.819"/><use xlink:href="#d" x="265.092" y="209.819"/></g></g></svg>