<svg xmlns="http://www.w3.org/2000/svg" xmlns:xlink="http://www.w3.org/1999/xlink" width="300pt" height="300pt" viewBox="0 0 300 300"><defs><symbol overflow="visible"><path d="M.453 1.594v-7.938h4.5v7.938zm.5-.5h3.5v-6.938h-3.5zm0 0"/></symbol><symbol overflow="visible" id="a"><path d="M.89-6.563h3.766v.75h-2.89v1.938h2.61v.734h-2.61V0H.89zm0 0"/></symbol><symbol overflow="visible" id="b"><path d="M3.547-5.953c-.65 0-1.164.242-1.547.72-.375.48-.563 1.13-.563 1.952 0 .835.188 1.49.563 1.967.383.48.898.72 1.547.72.644 0 1.156-.24 1.53-.72.376-.476.564-1.132.564-1.968 0-.822-.187-1.474-.562-1.954-.375-.477-.887-.72-1.53-.72zm0-.734c.914 0 1.648.312 2.203.937.55.617.828 1.438.828 2.47 0 1.042-.277 1.87-.828 2.483-.555.617-1.29.922-2.203.922-.93 0-1.668-.305-2.22-.922C.774-1.41.5-2.237.5-3.28c0-1.033.273-1.853.828-2.47.55-.625 1.29-.938 2.22-.938zm0 0"/></symbol><symbol overflow="visible" id="c"><path d="M.89-6.563H2.08l2.906 5.485v-5.484h.86V0H4.656L1.75-5.484V0H.89zm0 0"/></symbol><symbol overflow="visible" id="d"><path d="M.89-6.563h.876v2.688H5v-2.688h.89V0H5v-3.125H1.766V0H.89zm0 0"/></symbol></defs><g><path fill="#fff" d="M0 0h300v300H0z"/><path d="M50.816 179.184l2.793-9.325" stroke-width="1.2" stroke="#3cc" stroke-miterlimit="10" fill="none"/><path d="M53.61 169.86l2.788-9.33" stroke-width="1.2" stroke="#000" stroke-miterlimit="10" fill="none"/><path d="M47.816 173.684h6v11h-6zm0 0" fill="#fff"/><use xlink:href="#a" x="47.816" y="182.347" fill="#3cc"/><path d="M56.398 160.53l-13.363-14.155M58.39 155.973l-10.687-11.328M75.34 156.04l-18.942 4.49M43.035 146.375l5.578-18.652M48.613 127.723l-6.68-7.078" stroke-width="1.2" stroke="#000" stroke-miterlimit="10" fill="none"/><path d="M41.934 120.645l-6.684-7.08" stroke-width="1.2" stroke="#3cc" stroke-miterlimit="10" fill="none"/><path d="M48.613 127.723l18.942-4.493M51.566 131.73l15.153-3.593" stroke-width="1.2" stroke="#000" stroke-miterlimit="10" fill="none"/><path d="M29.25 108.066h6v11h-6zm0 0" fill="#fff"/><use xlink:href="#a" x="29.25" y="116.729" fill="#3cc"/><path d="M67.555 123.23l13.363 14.157M80.918 137.387L75.34 156.04M75.973 137.938l-4.465 14.92M75.34 156.04l6.683 7.077" stroke-width="1.2" stroke="#000" stroke-miterlimit="10" fill="none"/><path d="M82.023 163.117l6.68 7.078M88.703 170.195l9.473-2.246" stroke-width="1.2" stroke="#f00" stroke-miterlimit="10" fill="none"/><path d="M98.176 167.95l9.47-2.247" stroke-width="1.2" stroke="#000" stroke-miterlimit="10" fill="none"/><path d="M84.703 164.695h8v11h-8zm0 0" fill="#fff"/><use xlink:href="#b" x="84.703" y="173.358" fill="#f00"/><path d="M107.645 165.703l6.683 7.078" stroke-width="1.2" stroke="#000" stroke-miterlimit="10" fill="none"/><path d="M114.328 172.78l6.68 7.08" stroke-width="1.2" stroke="#00f" stroke-miterlimit="10" fill="none"/><path d="M112.313 163.973l5.347 5.664" stroke-width="1.2" stroke="#000" stroke-miterlimit="10" fill="none"/><path d="M117.66 169.637l5.344 5.664M113.227 147.05l-2.793 9.325" stroke-width="1.2" stroke="#00f" stroke-miterlimit="10" fill="none"/><path d="M110.434 156.375l-2.79 9.328" stroke-width="1.2" stroke="#000" stroke-miterlimit="10" fill="none"/><path d="M121.008 179.86l9.472-2.247" stroke-width="1.2" stroke="#00f" stroke-miterlimit="10" fill="none"/><path d="M130.48 177.613l9.473-2.25" stroke-width="1.2" stroke="#000" stroke-miterlimit="10" fill="none"/><path d="M118.008 174.36h7v11h-7zm0 0" fill="#fff"/><use xlink:href="#c" x="118.008" y="183.022" fill="#00f"/><path d="M139.953 175.363l8.008 5.535" stroke-width="1.2" stroke="#000" stroke-miterlimit="10" fill="none"/><path d="M147.96 180.898l8.005 5.536" stroke-width="1.2" stroke="#00f" stroke-miterlimit="10" fill="none"/><path d="M144.156 172.703l6.406 4.43" stroke-width="1.2" stroke="#000" stroke-miterlimit="10" fill="none"/><path d="M150.563 177.133l6.406 4.426" stroke-width="1.2" stroke="#00f" stroke-miterlimit="10" fill="none"/><path d="M145.53 156.715l-5.577 18.648" stroke-width="1.2" stroke="#000" stroke-miterlimit="10" fill="none"/><path d="M155.965 186.434l15.476-11.81" stroke-width="1.2" stroke="#00f" stroke-miterlimit="10" fill="none"/><path d="M152.965 180.934h7v11h-7zm0 0" fill="#fff"/><use xlink:href="#c" x="152.965" y="189.597" fill="#00f"/><path d="M171.44 174.625l-3.22-9.184" stroke-width="1.2" stroke="#00f" stroke-miterlimit="10" fill="none"/><path d="M168.22 165.44l-3.228-9.186" stroke-width="1.2" stroke="#000" stroke-miterlimit="10" fill="none"/><path d="M164.44 169.125h14v11h-14zm0 0" fill="#fff"/><g fill="#00f"><use xlink:href="#c" x="164.441" y="177.788"/><use xlink:href="#d" x="171.419" y="177.788"/></g><path d="M164.992 156.254l5.535-8.004" stroke-width="1.2" stroke="#000" stroke-miterlimit="10" fill="none"/><path d="M170.527 148.25l5.536-8.008" stroke-width="1.2" stroke="#00f" stroke-miterlimit="10" fill="none"/><path d="M164.992 156.254l-19.46.46M163.156 160.88l-15.57.366" stroke-width="1.2" stroke="#000" stroke-miterlimit="10" fill="none"/><path d="M176.063 140.242l9.703.79" stroke-width="1.2" stroke="#00f" stroke-miterlimit="10" fill="none"/><path d="M185.766 141.03l9.703.79" stroke-width="1.2" stroke="#000" stroke-miterlimit="10" fill="none"/><path d="M169.063 134.742h14v11h-14zm0 0" fill="#fff"/><g fill="#00f"><use xlink:href="#c" x="169.063" y="143.405"/><use xlink:href="#d" x="176.04" y="143.405"/></g><path d="M195.47 141.82l8.33 17.594M206.54 125.805l-11.07 16.015M203.8 159.414l19.407 1.578M223.207 160.992l5.535-8.008" stroke-width="1.2" stroke="#000" stroke-miterlimit="10" fill="none"/><path d="M228.742 152.984l5.535-8.004M234.277 144.98l-4.168-8.796" stroke-width="1.2" stroke="#00f" stroke-miterlimit="10" fill="none"/><path d="M230.11 136.184l-4.17-8.8" stroke-width="1.2" stroke="#000" stroke-miterlimit="10" fill="none"/><path d="M234.277 144.98l9.7.79" stroke-width="1.2" stroke="#00f" stroke-miterlimit="10" fill="none"/><path d="M243.977 145.77l9.703.79" stroke-width="1.2" stroke="#000" stroke-miterlimit="10" fill="none"/><path d="M231.277 139.48h7v11h-7zm0 0" fill="#fff"/><use xlink:href="#c" x="231.277" y="148.144" fill="#00f"/><path d="M225.94 127.383l-19.4-1.578M255.563 147.86l5.535-8.008" stroke-width="1.2" stroke="#000" stroke-miterlimit="10" fill="none"/><path d="M261.098 139.852l5.535-8.008" stroke-width="1.2" stroke="#f00" stroke-miterlimit="10" fill="none"/><path d="M251.797 145.254l5.535-8.004" stroke-width="1.2" stroke="#000" stroke-miterlimit="10" fill="none"/><path d="M257.332 137.25l5.535-8.008" stroke-width="1.2" stroke="#f00" stroke-miterlimit="10" fill="none"/><path d="M253.68 146.56l8.336 17.592" stroke-width="1.2" stroke="#000" stroke-miterlimit="10" fill="none"/><path d="M260.75 125.043h8v11h-8zm0 0" fill="#fff"/><use xlink:href="#b" x="260.75" y="133.706" fill="#f00"/><path d="M145.53 156.715l-13.362-14.16M132.168 142.555l-9.473 2.246" stroke-width="1.2" stroke="#000" stroke-miterlimit="10" fill="none"/><path d="M122.695 144.8l-9.468 2.25" stroke-width="1.2" stroke="#00f" stroke-miterlimit="10" fill="none"/><path d="M131.332 147.46l-7.578 1.798" stroke-width="1.2" stroke="#000" stroke-miterlimit="10" fill="none"/><path d="M123.754 149.258l-7.578 1.8" stroke-width="1.2" stroke="#00f" stroke-miterlimit="10" fill="none"/><path d="M110.227 141.55h7v11h-7zm0 0" fill="#fff"/><use xlink:href="#c" x="110.227" y="150.214" fill="#00f"/></g></svg>