<svg xmlns="http://www.w3.org/2000/svg" xmlns:xlink="http://www.w3.org/1999/xlink" width="300pt" height="300pt" viewBox="0 0 300 300"><defs><symbol overflow="visible"><path d="M.547 1.938V-7.75h5.5v9.688zm.625-.61h4.266v-8.47H1.171zm0 0"/></symbol><symbol overflow="visible" id="a"><path d="M4.328-7.28c-.78 0-1.406.296-1.875.89-.46.585-.687 1.382-.687 2.39 0 1.012.226 1.813.687 2.406.47.586 1.094.875 1.875.875.79 0 1.414-.288 1.875-.874.457-.593.688-1.394.688-2.406 0-1.008-.23-1.805-.687-2.39-.46-.594-1.086-.89-1.875-.89zm0-.892c1.125 0 2.024.383 2.703 1.14C7.708-6.28 8.048-5.27 8.048-4c0 1.262-.34 2.273-1.016 3.03C6.353-.22 5.454.157 4.33.157S2.3-.22 1.625-.97c-.668-.75-1-1.757-1-3.03 0-1.27.332-2.28 1-3.03.676-.76 1.578-1.142 2.703-1.142zm0 0"/></symbol><symbol overflow="visible" id="b"><path d="M1.078-8.016h1.094v3.282H6.11v-3.282h1.077V0H6.11v-3.813H2.17V0H1.078zm0 0"/></symbol><symbol overflow="visible" id="c"><path d="M1.078-8.016h1.47l3.546 6.704v-6.704h1.062V0H5.688L2.124-6.703V0H1.078zm0 0"/></symbol><symbol overflow="visible"><path d="M.453 1.594v-7.938h4.5v7.938zm.5-.5h3.5v-6.938h-3.5zm0 0"/></symbol><symbol overflow="visible" id="d"><path d="M4.14-5.64v2.452h2.454v.735H4.14V0h-.734v-2.453H.953v-.735h2.453V-5.64zm0 0"/></symbol><symbol overflow="visible" id="e"><path d="M1.734-.75h3.094V0H.656v-.75c.344-.344.8-.805 1.375-1.39.583-.594.954-.973 1.11-1.14.282-.322.473-.595.58-.814.112-.226.17-.445.17-.656 0-.352-.12-.64-.36-.86-.24-.218-.557-.327-.952-.327-.28 0-.578.054-.89.156-.305.093-.633.24-.985.436v-.906c.352-.133.688-.238 1-.313.313-.082.598-.125.86-.125.675 0 1.218.172 1.624.516.407.344.61.797.61 1.36 0 .273-.055.53-.156.78-.105.243-.288.524-.546.845-.074.085-.31.328-.703.734-.398.406-.95.976-1.656 1.703zm0 0"/></symbol></defs><g><path fill="#fff" d="M0 0h300v300H0z"/><path d="M150.91 233.367l-7.195-11.172" stroke-width="1.2" stroke="#f00" stroke-miterlimit="10" fill="none"/><path d="M143.715 222.195l-7.2-11.172" stroke-width="1.2" stroke="#000" stroke-miterlimit="10" fill="none"/><path d="M142.91 226.867h17v13h-17zm0 0" fill="#fff"/><g fill="#f00"><use xlink:href="#a" x="142.91" y="236.769"/><use xlink:href="#b" x="151.311" y="236.769"/></g><path d="M136.516 211.023l-26.543 1.297M133.56 204.91l-21.236 1.035M148.668 187.39l-12.152 23.633M109.973 212.32l-14.39-22.34M95.582 189.98l12.152-23.636M102.36 190.477l9.718-18.91M107.734 166.344l-7.195-11.168" stroke-width="1.2" stroke="#000" stroke-miterlimit="10" fill="none"/><path d="M100.54 155.176l-7.2-11.172" stroke-width="1.2" stroke="#00f" stroke-miterlimit="10" fill="none"/><path d="M107.734 166.344l26.543-1.293" stroke-width="1.2" stroke="#000" stroke-miterlimit="10" fill="none"/><path d="M93.34 144.004l-13.266-.742" stroke-width="1.2" stroke="#00f" stroke-miterlimit="10" fill="none"/><path d="M80.074 143.262l-13.265-.742M102.957 119.23l-4.81 12.387" stroke-width="1.2" stroke="#000" stroke-miterlimit="10" fill="none"/><path d="M98.148 131.617l-4.808 12.387" stroke-width="1.2" stroke="#00f" stroke-miterlimit="10" fill="none"/><path d="M89.34 137.504h8v13h-8zm0 0" fill="#fff"/><use xlink:href="#c" x="89.34" y="147.405" fill="#00f"/><path d="M66.81 142.52l-6.787-25.696" stroke-width="1.2" stroke="#000" stroke-miterlimit="10" fill="none"/><path d="M60.023 116.824m-2.566-1.554l-.375.972m-2.187-2.527l-.754 1.945m-1.812-3.5l-1.133 2.914m-1.433-4.47l-1.508 3.888m-1.06-5.44l-1.885 4.858m-.68-6.414l-2.263 5.832m-.3-7.387l-2.64 6.806m.073-8.36l-3.02 7.774m.465-9.32l-3.39 8.742" stroke="#000" stroke-miterlimit="10" fill="none"/><path d="M60.023 116.824l22.34-14.39" stroke-width="1.2" stroke="#000" stroke-miterlimit="10" fill="none"/><path d="M18.25 100.71h17v13h-17zm0 0" fill="#fff"/><g fill="#f00"><use xlink:href="#b" x="18.25" y="110.612"/><use xlink:href="#a" x="26.274" y="110.612"/></g><path d="M82.363 102.434l6.172-26.274-9.367-.523zm0 0"/><path d="M82.363 102.434l20.594 16.796" stroke-width="1.2" stroke="#000" stroke-miterlimit="10" fill="none"/><path d="M75.852 69.398h17v13h-17zm0 0" fill="#fff"/><g fill="#f00"><use xlink:href="#a" x="75.852" y="79.3"/><use xlink:href="#b" x="84.252" y="79.3"/></g><path d="M134.277 165.05l14.39 22.34M130.46 170.672l11.513 17.87M148.668 187.39l26.543-1.292M175.21 186.098l7.196 11.172" stroke-width="1.2" stroke="#000" stroke-miterlimit="10" fill="none"/><path d="M182.406 197.27l7.196 11.167" stroke-width="1.2" stroke="#00f" stroke-miterlimit="10" fill="none"/><path d="M181.906 184.945l5.758 8.938" stroke-width="1.2" stroke="#000" stroke-miterlimit="10" fill="none"/><path d="M187.664 193.883l5.758 8.933" stroke-width="1.2" stroke="#00f" stroke-miterlimit="10" fill="none"/><path d="M187.363 162.465l-12.152 23.633" stroke-width="1.2" stroke="#000" stroke-miterlimit="10" fill="none"/><path d="M189.602 208.438l13.273-.65" stroke-width="1.2" stroke="#00f" stroke-miterlimit="10" fill="none"/><path d="M202.875 207.79l13.27-.645" stroke-width="1.2" stroke="#000" stroke-miterlimit="10" fill="none"/><path d="M185.602 201.938h8v13h-8zm0 0" fill="#fff"/><use xlink:href="#c" x="185.602" y="211.839" fill="#00f"/><path d="M216.145 207.145l6.078-11.817" stroke-width="1.2" stroke="#000" stroke-miterlimit="10" fill="none"/><path d="M222.223 195.328l6.074-11.816" stroke-width="1.2" stroke="#00f" stroke-miterlimit="10" fill="none"/><path d="M211.8 201.922l4.86-9.453" stroke-width="1.2" stroke="#000" stroke-miterlimit="10" fill="none"/><path d="M216.66 192.47l4.86-9.454" stroke-width="1.2" stroke="#00f" stroke-miterlimit="10" fill="none"/><path d="M216.145 207.145l7.2 11.167" stroke-width="1.2" stroke="#000" stroke-miterlimit="10" fill="none"/><path d="M223.344 218.313l7.195 11.17M228.297 183.512l-7.195-11.172" stroke-width="1.2" stroke="#00f" stroke-miterlimit="10" fill="none"/><path d="M221.102 172.34l-7.196-11.168" stroke-width="1.2" stroke="#000" stroke-miterlimit="10" fill="none"/><path d="M224.297 177.012h8v13h-8zm0 0" fill="#fff"/><use xlink:href="#c" x="224.297" y="186.913" fill="#00f"/><path d="M213.906 161.172l6.074-11.82" stroke-width="1.2" stroke="#000" stroke-miterlimit="10" fill="none"/><path d="M219.98 149.352l6.075-11.817" stroke-width="1.2" stroke="#00f" stroke-miterlimit="10" fill="none"/><path d="M213.906 161.172l-26.543 1.293M211.555 167.543l-21.235 1.035" stroke-width="1.2" stroke="#000" stroke-miterlimit="10" fill="none"/><path d="M226.055 137.535l13.273-.644" stroke-width="1.2" stroke="#00f" stroke-miterlimit="10" fill="none"/><path d="M239.328 136.89l13.27-.648M211.664 115.195l7.195 11.172" stroke-width="1.2" stroke="#000" stroke-miterlimit="10" fill="none"/><path d="M218.86 126.367l7.195 11.168" stroke-width="1.2" stroke="#00f" stroke-miterlimit="10" fill="none"/><path d="M222.055 131.035h8v13h-8zm0 0" fill="#fff"/><use xlink:href="#c" x="222.055" y="140.937" fill="#00f"/><path d="M252.598 136.242l12.152-23.633M264.75 112.61l-7.195-11.172" stroke-width="1.2" stroke="#000" stroke-miterlimit="10" fill="none"/><path d="M257.555 101.438L250.36 90.27M250.36 90.27l-13.274.644" stroke-width="1.2" stroke="#00f" stroke-miterlimit="10" fill="none"/><path d="M237.086 90.914l-13.27.648" stroke-width="1.2" stroke="#000" stroke-miterlimit="10" fill="none"/><path d="M250.36 90.27l6.074-11.817" stroke-width="1.2" stroke="#00f" stroke-miterlimit="10" fill="none"/><path d="M256.434 78.453l6.074-11.82" stroke-width="1.2" stroke="#000" stroke-miterlimit="10" fill="none"/><path d="M238.36 82.27h24v16h-24zm0 0" fill="#fff"/><g fill="#00f"><use xlink:href="#c" x="238.359" y="95.402"/><use xlink:href="#b" x="246.343" y="95.402"/></g><use xlink:href="#d" x="254.367" y="90.52" fill="#00f"/><path d="M223.816 91.563l-12.152 23.632" stroke-width="1.2" stroke="#000" stroke-miterlimit="10" fill="none"/><path d="M219.54 220.984h22v17h-22zm0 0" fill="#fff"/><g fill="#00f"><use xlink:href="#c" x="219.539" y="230.886"/><use xlink:href="#b" x="227.522" y="230.886"/></g><use xlink:href="#e" x="235.547" y="235.769" fill="#00f"/></g></svg>