<svg xmlns="http://www.w3.org/2000/svg" xmlns:xlink="http://www.w3.org/1999/xlink" width="300pt" height="300pt" viewBox="0 0 300 300"><defs><symbol overflow="visible"><path d="M.453 1.594v-7.938h4.5v7.938zm.5-.5h3.5v-6.938h-3.5zm0 0"/></symbol><symbol overflow="visible" id="a"><path d="M.89-6.563h3.766v.75h-2.89v1.938h2.61v.734h-2.61V0H.89zm0 0"/></symbol><symbol overflow="visible" id="b"><path d="M.89-6.563H2.08l2.906 5.485v-5.484h.86V0H4.656L1.75-5.484V0H.89zm0 0"/></symbol><symbol overflow="visible" id="c"><path d="M3.547-5.953c-.65 0-1.164.242-1.547.72-.375.48-.563 1.13-.563 1.952 0 .835.188 1.49.563 1.967.383.48.898.72 1.547.72.644 0 1.156-.24 1.53-.72.376-.476.564-1.132.564-1.968 0-.822-.187-1.474-.562-1.954-.375-.477-.887-.72-1.53-.72zm0-.734c.914 0 1.648.312 2.203.937.55.617.828 1.438.828 2.47 0 1.042-.277 1.87-.828 2.483-.555.617-1.29.922-2.203.922-.93 0-1.668-.305-2.22-.922C.774-1.41.5-2.237.5-3.28c0-1.033.273-1.853.828-2.47.55-.625 1.29-.938 2.22-.938zm0 0"/></symbol><symbol overflow="visible" id="d"><path d="M.89-6.563h.876v2.688H5v-2.688h.89V0H5v-3.125H1.766V0H.89zm0 0"/></symbol><symbol overflow="visible"><path d="M.406 1.422V-5.64h4V1.42zM.844.97h3.11v-6.157H.843zm0 0"/></symbol><symbol overflow="visible" id="e"><path d="M1.53-.672h2.767V0H.594v-.672c.29-.3.695-.71 1.22-1.234.518-.532.842-.867.967-1.016.26-.28.44-.52.533-.72.1-.194.156-.39.156-.577 0-.31-.11-.565-.33-.764-.218-.196-.5-.297-.843-.297-.25 0-.516.046-.797.14-.273.085-.563.214-.875.39v-.797c.32-.133.617-.234.89-.297.282-.062.536-.093.766-.093.603 0 1.083.152 1.44.453.362.304.546.703.546 1.203 0 .24-.047.468-.14.686-.095.22-.26.477-.485.766-.074.074-.288.293-.64.656-.344.356-.836.856-1.47 1.5zm0 0"/></symbol><symbol overflow="visible" id="f"><path d="M3.688-5.016v2.172h2.17v.672H3.69V0H3.03v-2.172H.845v-.672H3.03v-2.172zm0 0"/></symbol></defs><g><path fill="#fff" d="M0 0h300v300H0z"/><path d="M119.578 225.04l-6.418-7.595" stroke-width="1.2" stroke="#3cc" stroke-miterlimit="10" fill="none"/><path d="M113.16 217.445l-6.422-7.597" stroke-width="1.2" stroke="#000" stroke-miterlimit="10" fill="none"/><path d="M116.578 219.54h6v11h-6zm0 0" fill="#fff"/><use xlink:href="#a" x="116.578" y="228.202" fill="#3cc"/><path d="M106.738 209.848l-19.574 3.52M103.953 205.594l-15.66 2.816M113.477 191.133l-6.74 18.715M87.164 213.367l-12.84-15.19M74.324 198.176l6.742-18.715M79.402 197.89l5.39-14.972M81.066 179.46l19.575-3.52M81.066 179.46l-12.84-15.19M100.64 175.94l12.837 15.193M98.352 180.48l10.27 12.153M68.227 164.27l-9.918.726" stroke-width="1.2" stroke="#000" stroke-miterlimit="10" fill="none"/><path d="M58.31 164.996l-9.92.727" stroke-width="1.2" stroke="#00f" stroke-miterlimit="10" fill="none"/><path d="M72.973 144.953l-4.746 19.317M67.953 145.77l-3.797 15.45" stroke-width="1.2" stroke="#000" stroke-miterlimit="10" fill="none"/><path d="M48.39 165.723l-3.757-9.207" stroke-width="1.2" stroke="#00f" stroke-miterlimit="10" fill="none"/><path d="M44.633 156.516l-3.758-9.207" stroke-width="1.2" stroke="#000" stroke-miterlimit="10" fill="none"/><path d="M51.973 162.113l-3.008-7.363" stroke-width="1.2" stroke="#00f" stroke-miterlimit="10" fill="none"/><path d="M48.965 154.75l-3.004-7.367" stroke-width="1.2" stroke="#000" stroke-miterlimit="10" fill="none"/><path d="M45.39 160.223h7v11h-7zm0 0" fill="#fff"/><use xlink:href="#b" x="45.391" y="168.886" fill="#00f"/><path d="M40.875 147.31l7.598-6.42" stroke-width="1.2" stroke="#000" stroke-miterlimit="10" fill="none"/><path d="M48.473 140.89l7.597-6.42M56.07 134.47l8.45 5.24" stroke-width="1.2" stroke="#00f" stroke-miterlimit="10" fill="none"/><path d="M64.52 139.71l8.453 5.243" stroke-width="1.2" stroke="#000" stroke-miterlimit="10" fill="none"/><path d="M56.07 134.47l-.73-9.92" stroke-width="1.2" stroke="#00f" stroke-miterlimit="10" fill="none"/><path d="M55.34 124.55l-.727-9.917" stroke-width="1.2" stroke="#000" stroke-miterlimit="10" fill="none"/><path d="M53.07 128.97h7v11h-7zm0 0" fill="#fff"/><use xlink:href="#b" x="53.07" y="137.632" fill="#00f"/><path d="M72.973 144.953l18.418-7.516M91.39 137.438l7.856 6.097" stroke-width="1.2" stroke="#000" stroke-miterlimit="10" fill="none"/><path d="M99.246 143.535l7.86 6.094" stroke-width="1.2" stroke="#00f" stroke-miterlimit="10" fill="none"/><path d="M95.828 134.96l6.29 4.876" stroke-width="1.2" stroke="#000" stroke-miterlimit="10" fill="none"/><path d="M102.117 139.836l6.285 4.88" stroke-width="1.2" stroke="#00f" stroke-miterlimit="10" fill="none"/><path d="M94.09 117.73l-2.7 19.707" stroke-width="1.2" stroke="#000" stroke-miterlimit="10" fill="none"/><path d="M107.105 149.63l9.207-3.755" stroke-width="1.2" stroke="#00f" stroke-miterlimit="10" fill="none"/><path d="M116.313 145.875l9.207-3.758" stroke-width="1.2" stroke="#000" stroke-miterlimit="10" fill="none"/><path d="M104.105 144.13h7v11h-7zm0 0" fill="#fff"/><use xlink:href="#b" x="104.105" y="152.792" fill="#00f"/><path d="M125.52 142.117l7.86 6.094" stroke-width="1.2" stroke="#000" stroke-miterlimit="10" fill="none"/><path d="M133.38 148.21l7.858 6.1" stroke-width="1.2" stroke="#f00" stroke-miterlimit="10" fill="none"/><path d="M125.52 142.117l1.35-9.855" stroke-width="1.2" stroke="#000" stroke-miterlimit="10" fill="none"/><path d="M126.87 132.262l1.353-9.852" stroke-width="1.2" stroke="#00f" stroke-miterlimit="10" fill="none"/><path d="M121.156 139.512l1.078-7.883" stroke-width="1.2" stroke="#000" stroke-miterlimit="10" fill="none"/><path d="M122.234 131.63l1.082-7.884" stroke-width="1.2" stroke="#00f" stroke-miterlimit="10" fill="none"/><path d="M141.238 154.31l9.207-3.76" stroke-width="1.2" stroke="#f00" stroke-miterlimit="10" fill="none"/><path d="M150.445 150.55l9.207-3.757" stroke-width="1.2" stroke="#000" stroke-miterlimit="10" fill="none"/><path d="M137.238 148.81h8v11h-8zm0 0" fill="#fff"/><use xlink:href="#c" x="137.238" y="157.472" fill="#f00"/><path d="M159.652 146.793l15.715 12.19M164.094 144.316l12.574 9.75M162.355 127.086l-2.703 19.707M175.367 158.984l18.418-7.51M193.785 151.473l2.7-19.707M189.418 148.863l2.16-15.76M196.484 131.766l-15.714-12.192M196.484 131.766l18.418-7.516M180.77 119.574l-18.415 7.512M180.695 124.656l-14.73 6.012M214.902 124.25l7.86 6.098" stroke-width="1.2" stroke="#000" stroke-miterlimit="10" fill="none"/><path d="M222.762 130.348l7.855 6.093" stroke-width="1.2" stroke="#f00" stroke-miterlimit="10" fill="none"/><path d="M217.22 124.566l1.35-9.85" stroke-width="1.2" stroke="#000" stroke-miterlimit="10" fill="none"/><path d="M218.57 114.715l1.352-9.852" stroke-width="1.2" stroke="#f00" stroke-miterlimit="10" fill="none"/><path d="M212.582 123.934l1.352-9.856" stroke-width="1.2" stroke="#000" stroke-miterlimit="10" fill="none"/><path d="M213.934 114.078l1.35-9.85M230.617 136.44l9.207-3.756" stroke-width="1.2" stroke="#f00" stroke-miterlimit="10" fill="none"/><path d="M239.824 132.684l9.21-3.758" stroke-width="1.2" stroke="#000" stroke-miterlimit="10" fill="none"/><path d="M226.617 130.94h8v11h-8zm0 0" fill="#fff"/><use xlink:href="#c" x="226.617" y="139.604" fill="#f00"/><path d="M249.035 128.926l15.715 12.195" stroke-width="1.2" stroke="#000" stroke-miterlimit="10" fill="none"/><path d="M213.602 99.043h8v11h-8zm0 0" fill="#fff"/><use xlink:href="#c" x="213.602" y="107.706" fill="#f00"/><path d="M128.223 122.41l-7.86-6.097" stroke-width="1.2" stroke="#00f" stroke-miterlimit="10" fill="none"/><path d="M120.363 116.313l-7.86-6.094" stroke-width="1.2" stroke="#000" stroke-miterlimit="10" fill="none"/><path d="M125.223 116.91h7v11h-7zm0 0" fill="#fff"/><use xlink:href="#b" x="125.223" y="125.573" fill="#00f"/><path d="M112.504 110.22l-18.414 7.51M112.434 115.3L97.7 121.314M54.613 114.633l16.45-11.18M36.707 105.977l17.906 8.656M71.063 103.453L69.61 83.617M69.61 83.617l-8.954-4.328" stroke-width="1.2" stroke="#000" stroke-miterlimit="10" fill="none"/><path d="M60.656 79.29l-8.953-4.33M51.703 74.96l-8.226 5.59" stroke-width="1.2" stroke="#00f" stroke-miterlimit="10" fill="none"/><path d="M43.477 80.55l-8.227 5.59" stroke-width="1.2" stroke="#000" stroke-miterlimit="10" fill="none"/><path d="M38.703 65.46h26v19h-26zm0 0" fill="#fff"/><g fill="#00f"><use xlink:href="#b" x="38.703" y="77.563"/><use xlink:href="#d" x="45.681" y="77.563"/></g><use xlink:href="#e" x="52.695" y="82.445" fill="#00f"/><use xlink:href="#f" x="57.646" y="72.68" fill="#00f"/><path d="M35.25 86.14l1.457 19.837" stroke-width="1.2" stroke="#000" stroke-miterlimit="10" fill="none"/></g></svg>