<svg xmlns="http://www.w3.org/2000/svg" xmlns:xlink="http://www.w3.org/1999/xlink" width="300pt" height="300pt" viewBox="0 0 300 300"><defs><symbol overflow="visible"><path d="M.453 1.594v-7.938h4.5v7.938zm.5-.5h3.5v-6.938h-3.5zm0 0"/></symbol><symbol overflow="visible" id="a"><path d="M3.547-5.953c-.65 0-1.164.242-1.547.72-.375.48-.563 1.13-.563 1.952 0 .835.188 1.49.563 1.967.383.48.898.72 1.547.72.644 0 1.156-.24 1.53-.72.376-.476.564-1.132.564-1.968 0-.822-.187-1.474-.562-1.954-.375-.477-.887-.72-1.53-.72zm0-.734c.914 0 1.648.312 2.203.937.55.617.828 1.438.828 2.47 0 1.042-.277 1.87-.828 2.483-.555.617-1.29.922-2.203.922-.93 0-1.668-.305-2.22-.922C.774-1.41.5-2.237.5-3.28c0-1.033.273-1.853.828-2.47.55-.625 1.29-.938 2.22-.938zm0 0"/></symbol><symbol overflow="visible" id="b"><path d="M.89-6.563H2.08l2.906 5.485v-5.484h.86V0H4.656L1.75-5.484V0H.89zm0 0"/></symbol><symbol overflow="visible" id="c"><path d="M.89-6.563h.876v2.688H5v-2.688h.89V0H5v-3.125H1.766V0H.89zm0 0"/></symbol><symbol overflow="visible"><path d="M.406 1.422V-5.64h4V1.42zM.844.97h3.11v-6.157H.843zm0 0"/></symbol><symbol overflow="visible" id="d"><path d="M3.688-5.016v2.172h2.17v.672H3.69V0H3.03v-2.172H.845v-.672H3.03v-2.172zm0 0"/></symbol></defs><g><path fill="#fff" d="M0 0h300v300H0z"/><path d="M196.965 197.77l.066-10.047" stroke-width="1.2" stroke="#f00" stroke-miterlimit="10" fill="none"/><path d="M197.03 187.723l.072-10.047" stroke-width="1.2" stroke="#000" stroke-miterlimit="10" fill="none"/><path d="M192.238 197.738l.067-10.047" stroke-width="1.2" stroke="#f00" stroke-miterlimit="10" fill="none"/><path d="M192.305 187.69l.066-10.045" stroke-width="1.2" stroke="#000" stroke-miterlimit="10" fill="none"/><path d="M190.602 192.254h8v11h-8zm0 0" fill="#fff"/><use xlink:href="#a" x="190.602" y="200.917" fill="#f00"/><path d="M194.738 177.66l-17.336-10.164M194.738 177.66l17.47-9.93M177.402 167.496l-1.964-19.996M172.5 165.957l-1.57-15.996M158.992 175.547l18.41-8.05M175.438 147.5l-9.813-2.156" stroke-width="1.2" stroke="#000" stroke-miterlimit="10" fill="none"/><path d="M165.625 145.344l-9.813-2.156M155.813 143.188l-9.93-17.47" stroke-width="1.2" stroke="#00f" stroke-miterlimit="10" fill="none"/><path d="M145.648 160.523l5.082-8.668" stroke-width="1.2" stroke="#000" stroke-miterlimit="10" fill="none"/><path d="M150.73 151.855l5.083-8.667" stroke-width="1.2" stroke="#00f" stroke-miterlimit="10" fill="none"/><path d="M152.813 137.688h7v11h-7zm0 0" fill="#fff"/><use xlink:href="#b" x="152.813" y="146.351" fill="#00f"/><path d="M145.883 125.72l-10.047-.068" stroke-width="1.2" stroke="#00f" stroke-miterlimit="10" fill="none"/><path d="M135.836 125.652l-10.047-.07" stroke-width="1.2" stroke="#000" stroke-miterlimit="10" fill="none"/><path d="M143.84 130.434l-8.035-.055" stroke-width="1.2" stroke="#00f" stroke-miterlimit="10" fill="none"/><path d="M135.805 130.38l-8.04-.056" stroke-width="1.2" stroke="#000" stroke-miterlimit="10" fill="none"/><path d="M142.883 120.22h7v11h-7zm0 0" fill="#fff"/><use xlink:href="#b" x="142.883" y="128.882" fill="#00f"/><path d="M125.79 125.582l-5.083 8.668" stroke-width="1.2" stroke="#000" stroke-miterlimit="10" fill="none"/><path d="M120.707 134.25l-5.082 8.668M115.625 142.918l4.965 8.734" stroke-width="1.2" stroke="#00f" stroke-miterlimit="10" fill="none"/><path d="M120.59 151.652l4.965 8.735" stroke-width="1.2" stroke="#000" stroke-miterlimit="10" fill="none"/><path d="M120.727 142.328l3.972 6.988" stroke-width="1.2" stroke="#00f" stroke-miterlimit="10" fill="none"/><path d="M124.7 149.316l3.972 6.99" stroke-width="1.2" stroke="#000" stroke-miterlimit="10" fill="none"/><path d="M105.625 135.418h21v15h-21zm0 0" fill="#fff"/><g fill="#00f"><use xlink:href="#b" x="105.625" y="147.52"/><use xlink:href="#c" x="112.603" y="147.52"/></g><use xlink:href="#d" x="119.617" y="142.637" fill="#00f"/><path d="M125.555 160.387l-5.082 8.668" stroke-width="1.2" stroke="#000" stroke-miterlimit="10" fill="none"/><path d="M120.473 169.055l-5.082 8.664" stroke-width="1.2" stroke="#00f" stroke-miterlimit="10" fill="none"/><path d="M125.555 160.387l20.093.136" stroke-width="1.2" stroke="#000" stroke-miterlimit="10" fill="none"/><path d="M115.39 177.72l-10.046-.068" stroke-width="1.2" stroke="#00f" stroke-miterlimit="10" fill="none"/><path d="M105.344 177.652l-10.047-.066" stroke-width="1.2" stroke="#000" stroke-miterlimit="10" fill="none"/><path d="M108.39 172.22h14v11h-14zm0 0" fill="#fff"/><g fill="#00f"><use xlink:href="#b" x="108.391" y="180.882"/><use xlink:href="#c" x="115.368" y="180.882"/></g><path d="M95.297 177.586l-9.93-17.473M90.19 178.172L82.25 164.2M85.133 194.918l10.164-17.332M85.367 160.113l-20.094-.133M65.273 159.98L55.11 177.313M68.336 164.105l-8.133 13.868M65.273 159.98l-9.93-17.472M55.11 177.313l9.93 17.468M65.04 194.78l20.093.138M67.078 190.066l16.074.11M85.133 194.918l9.93 17.47M55.36 140.145l-10.047-.067" stroke-width="1.2" stroke="#000" stroke-miterlimit="10" fill="none"/><path d="M45.313 140.078l-10.047-.066" stroke-width="1.2" stroke="#f00" stroke-miterlimit="10" fill="none"/><path d="M55.328 144.875l-10.047-.07" stroke-width="1.2" stroke="#000" stroke-miterlimit="10" fill="none"/><path d="M45.28 144.805l-10.046-.067" stroke-width="1.2" stroke="#f00" stroke-miterlimit="10" fill="none"/><path d="M55.344 142.508l5.082-8.664" stroke-width="1.2" stroke="#000" stroke-miterlimit="10" fill="none"/><path d="M60.426 133.844l5.082-8.668" stroke-width="1.2" stroke="#00f" stroke-miterlimit="10" fill="none"/><path d="M27.25 136.875h8v11h-8zm0 0" fill="#fff"/><use xlink:href="#a" x="27.25" y="145.538" fill="#f00"/><path d="M65.508 125.176l-4.965-8.735" stroke-width="1.2" stroke="#00f" stroke-miterlimit="10" fill="none"/><path d="M60.543 116.44l-4.965-8.733" stroke-width="1.2" stroke="#000" stroke-miterlimit="10" fill="none"/><path d="M58.508 119.676h14v11h-14zm0 0" fill="#fff"/><g fill="#00f"><use xlink:href="#b" x="58.508" y="128.339"/><use xlink:href="#c" x="65.485" y="128.339"/></g><path d="M55.578 107.707L38.246 97.543M55.715 87.613l-.137 20.094M38.246 97.543l17.47-9.93M145.648 160.523l13.344 15.024M150.516 158.883l10.675 12.02M158.992 175.547l-4.312 19.625M212.207 167.73l.066-10.046" stroke-width="1.2" stroke="#000" stroke-miterlimit="10" fill="none"/><path d="M212.273 157.684l.07-10.047" stroke-width="1.2" stroke="#00f" stroke-miterlimit="10" fill="none"/><path d="M216.95 165.754l.05-8.04" stroke-width="1.2" stroke="#000" stroke-miterlimit="10" fill="none"/><path d="M217 157.715l.055-8.035" stroke-width="1.2" stroke="#00f" stroke-miterlimit="10" fill="none"/><path d="M229.54 177.895l-17.333-10.165" stroke-width="1.2" stroke="#000" stroke-miterlimit="10" fill="none"/><path d="M212.344 147.637l8.734-4.965" stroke-width="1.2" stroke="#00f" stroke-miterlimit="10" fill="none"/><path d="M221.078 142.672l8.734-4.965" stroke-width="1.2" stroke="#000" stroke-miterlimit="10" fill="none"/><path d="M209.344 142.137h7v11h-7zm0 0" fill="#fff"/><use xlink:href="#b" x="209.344" y="150.8" fill="#00f"/><path d="M229.813 137.707l17.332 10.164M233.938 134.645l13.867 8.132M229.945 117.613l-.132 20.094M247.145 147.87l-.067 10.048" stroke-width="1.2" stroke="#000" stroke-miterlimit="10" fill="none"/><path d="M247.078 157.918l-.07 10.047" stroke-width="1.2" stroke="#00f" stroke-miterlimit="10" fill="none"/><path d="M247.145 147.87l17.468-9.93" stroke-width="1.2" stroke="#000" stroke-miterlimit="10" fill="none"/><path d="M247.008 167.965l-8.735 4.965" stroke-width="1.2" stroke="#00f" stroke-miterlimit="10" fill="none"/><path d="M238.273 172.93l-8.734 4.965" stroke-width="1.2" stroke="#000" stroke-miterlimit="10" fill="none"/><path d="M242.926 164.848l-6.988 3.972" stroke-width="1.2" stroke="#00f" stroke-miterlimit="10" fill="none"/><path d="M235.938 168.82l-6.99 3.973" stroke-width="1.2" stroke="#000" stroke-miterlimit="10" fill="none"/><path d="M244.008 162.465h7v11h-7zm0 0" fill="#fff"/><use xlink:href="#b" x="244.008" y="171.128" fill="#00f"/><path d="M264.613 137.94l.137-20.088M259.898 135.902l.11-16.074M264.75 117.852l-17.332-10.168M247.418 107.684l-17.473 9.93M248.004 112.79l-13.973 7.94" stroke-width="1.2" stroke="#000" stroke-miterlimit="10" fill="none"/></g></svg>