<svg xmlns="http://www.w3.org/2000/svg" xmlns:xlink="http://www.w3.org/1999/xlink" width="300pt" height="300pt" viewBox="0 0 300 300"><defs><symbol overflow="visible"><path d="M.453 1.594v-7.938h4.5v7.938zm.5-.5h3.5v-6.938h-3.5zm0 0"/></symbol><symbol overflow="visible" id="a"><path d="M3.547-5.953c-.65 0-1.164.242-1.547.72-.375.48-.563 1.13-.563 1.952 0 .835.188 1.49.563 1.967.383.48.898.72 1.547.72.644 0 1.156-.24 1.53-.72.376-.476.564-1.132.564-1.968 0-.822-.187-1.474-.562-1.954-.375-.477-.887-.72-1.53-.72zm0-.734c.914 0 1.648.312 2.203.937.55.617.828 1.438.828 2.47 0 1.042-.277 1.87-.828 2.483-.555.617-1.29.922-2.203.922-.93 0-1.668-.305-2.22-.922C.774-1.41.5-2.237.5-3.28c0-1.033.273-1.853.828-2.47.55-.625 1.29-.938 2.22-.938zm0 0"/></symbol><symbol overflow="visible" id="b"><path d="M.89-6.563H2.08l2.906 5.485v-5.484h.86V0H4.656L1.75-5.484V0H.89zm0 0"/></symbol><symbol overflow="visible" id="c"><path d="M.89-6.563h.876v2.688H5v-2.688h.89V0H5v-3.125H1.766V0H.89zm0 0"/></symbol><symbol overflow="visible"><path d="M.406 1.422V-5.64h4V1.42zM.844.97h3.11v-6.157H.843zm0 0"/></symbol><symbol overflow="visible" id="d"><path d="M3.688-5.016v2.172h2.17v.672H3.69V0H3.03v-2.172H.845v-.672H3.03v-2.172zm0 0"/></symbol></defs><g><path fill="#fff" d="M0 0h300v300H0z"/><path d="M107.293 109.102l.344 9.644" stroke-width="1.2" stroke="#f00" stroke-miterlimit="10" fill="none"/><path d="M107.637 118.746l.343 9.645" stroke-width="1.2" stroke="#000" stroke-miterlimit="10" fill="none"/><path d="M111.832 108.94l.344 9.646" stroke-width="1.2" stroke="#f00" stroke-miterlimit="10" fill="none"/><path d="M112.176 118.586l.344 9.644" stroke-width="1.2" stroke="#000" stroke-miterlimit="10" fill="none"/><path d="M105.563 103.52h8v11h-8zm0 0" fill="#fff"/><use xlink:href="#a" x="105.563" y="112.183" fill="#f00"/><path d="M110.25 128.313l17.05 9.046M110.25 128.313L93.887 138.55M127.3 137.36l2.7 19.113M132.066 138.637l2.16 15.29M144.64 128.887l-17.34 8.472M130 156.473l9.504 1.668" stroke-width="1.2" stroke="#000" stroke-miterlimit="10" fill="none"/><path d="M139.504 158.14l9.508 1.673M149.012 159.813l10.238 16.36" stroke-width="1.2" stroke="#00f" stroke-miterlimit="10" fill="none"/><path d="M158.06 142.762l-4.525 8.523" stroke-width="1.2" stroke="#000" stroke-miterlimit="10" fill="none"/><path d="M153.535 151.285l-4.523 8.528" stroke-width="1.2" stroke="#00f" stroke-miterlimit="10" fill="none"/><path d="M146.012 154.313h7v11h-7zm0 0" fill="#fff"/><use xlink:href="#b" x="146.012" y="162.976" fill="#00f"/><path d="M159.25 176.172l9.645-.344" stroke-width="1.2" stroke="#00f" stroke-miterlimit="10" fill="none"/><path d="M168.895 175.828l9.644-.344" stroke-width="1.2" stroke="#000" stroke-miterlimit="10" fill="none"/><path d="M161.02 171.566l7.714-.277" stroke-width="1.2" stroke="#00f" stroke-miterlimit="10" fill="none"/><path d="M168.734 171.29l7.715-.274" stroke-width="1.2" stroke="#000" stroke-miterlimit="10" fill="none"/><path d="M156.25 170.672h7v11h-7zm0 0" fill="#fff"/><use xlink:href="#b" x="156.25" y="179.335" fill="#00f"/><path d="M178.54 175.484l4.526-8.523" stroke-width="1.2" stroke="#000" stroke-miterlimit="10" fill="none"/><path d="M183.066 166.96l4.524-8.523M187.59 158.438l-5.12-8.184" stroke-width="1.2" stroke="#00f" stroke-miterlimit="10" fill="none"/><path d="M182.47 150.254l-5.118-8.18" stroke-width="1.2" stroke="#000" stroke-miterlimit="10" fill="none"/><path d="M182.715 159.21l-4.094-6.546" stroke-width="1.2" stroke="#00f" stroke-miterlimit="10" fill="none"/><path d="M178.62 152.664l-4.097-6.543" stroke-width="1.2" stroke="#000" stroke-miterlimit="10" fill="none"/><path d="M177.59 150.938h21v15h-21zm0 0" fill="#fff"/><g fill="#00f"><use xlink:href="#b" x="177.59" y="163.039"/><use xlink:href="#c" x="184.567" y="163.039"/></g><use xlink:href="#d" x="191.582" y="158.156" fill="#00f"/><path d="M177.352 142.074l4.523-8.523" stroke-width="1.2" stroke="#000" stroke-miterlimit="10" fill="none"/><path d="M181.875 133.55l4.523-8.527" stroke-width="1.2" stroke="#00f" stroke-miterlimit="10" fill="none"/><path d="M177.352 142.074l-19.293.688" stroke-width="1.2" stroke="#000" stroke-miterlimit="10" fill="none"/><path d="M186.398 125.023l9.645-.343" stroke-width="1.2" stroke="#00f" stroke-miterlimit="10" fill="none"/><path d="M196.043 124.68l9.644-.344" stroke-width="1.2" stroke="#000" stroke-miterlimit="10" fill="none"/><path d="M179.398 119.523h14v11h-14zm0 0" fill="#fff"/><g fill="#00f"><use xlink:href="#b" x="179.398" y="128.187"/><use xlink:href="#c" x="186.376" y="128.187"/></g><path d="M205.688 124.336L215.93 140.7M210.563 123.563l8.19 13.09M214.738 107.29l-9.05 17.046M215.93 140.7l19.29-.688M235.22 140.012l9.05-17.05M232.113 136.176l7.24-13.637M235.22 140.012l10.24 16.36M244.27 122.96l-10.243-16.358M234.027 106.602l-19.29.687M232.262 111.207l-15.434.55M214.738 107.29L204.5 90.925M245.54 158.64l9.648-.343" stroke-width="1.2" stroke="#000" stroke-miterlimit="10" fill="none"/><path d="M255.188 158.297l9.644-.344" stroke-width="1.2" stroke="#f00" stroke-miterlimit="10" fill="none"/><path d="M245.38 154.105l9.643-.347" stroke-width="1.2" stroke="#000" stroke-miterlimit="10" fill="none"/><path d="M255.023 153.758l9.645-.344" stroke-width="1.2" stroke="#f00" stroke-miterlimit="10" fill="none"/><path d="M245.46 156.37l-4.526 8.528" stroke-width="1.2" stroke="#000" stroke-miterlimit="10" fill="none"/><path d="M240.934 164.898l-4.524 8.524" stroke-width="1.2" stroke="#00f" stroke-miterlimit="10" fill="none"/><path d="M260.75 150.184h8v11h-8zm0 0" fill="#fff"/><use xlink:href="#a" x="260.75" y="158.847" fill="#f00"/><path d="M236.41 173.422l5.12 8.18" stroke-width="1.2" stroke="#00f" stroke-miterlimit="10" fill="none"/><path d="M241.53 181.602l5.122 8.183" stroke-width="1.2" stroke="#000" stroke-miterlimit="10" fill="none"/><path d="M229.41 167.922h14v11h-14zm0 0" fill="#fff"/><g fill="#00f"><use xlink:href="#b" x="229.41" y="176.585"/><use xlink:href="#c" x="236.388" y="176.585"/></g><path d="M246.652 189.785l17.047 9.047M247.34 209.074l-.688-19.29M263.7 198.832l-16.36 10.242M158.06 142.762l-13.42-13.875M153.453 144.53l-10.734-11.1M144.64 128.887l3.34-19.012M93.887 138.55l-.664 9.63" stroke-width="1.2" stroke="#000" stroke-miterlimit="10" fill="none"/><path d="M93.223 148.18l-.668 9.63" stroke-width="1.2" stroke="#00f" stroke-miterlimit="10" fill="none"/><path d="M75.984 131.332l17.903 7.22M76.078 136.27l14.32 5.773" stroke-width="1.2" stroke="#000" stroke-miterlimit="10" fill="none"/><path d="M92.555 157.81l-9.364 2.338" stroke-width="1.2" stroke="#00f" stroke-miterlimit="10" fill="none"/><path d="M83.19 160.148l-9.362 2.344" stroke-width="1.2" stroke="#000" stroke-miterlimit="10" fill="none"/><path d="M92.555 157.81l7.398 6.198" stroke-width="1.2" stroke="#00f" stroke-miterlimit="10" fill="none"/><path d="M99.953 164.008l7.4 6.195" stroke-width="1.2" stroke="#000" stroke-miterlimit="10" fill="none"/><path d="M89.555 152.31h7v11h-7zm0 0" fill="#fff"/><use xlink:href="#b" x="89.555" y="160.972" fill="#00f"/><path d="M73.828 162.492L63.59 146.13M68.957 163.266l-8.195-13.09M64.78 179.54l9.048-17.048M63.59 146.13l12.394-14.798M63.59 146.13l-19.29.686M44.3 146.816l-9.05 17.05M47.406 150.652l-7.238 13.637M35.25 163.867l10.242 16.36M45.492 180.227l19.29-.688M47.258 175.62l15.433-.55" stroke-width="1.2" stroke="#000" stroke-miterlimit="10" fill="none"/></g></svg>