<svg xmlns="http://www.w3.org/2000/svg" xmlns:xlink="http://www.w3.org/1999/xlink" width="300pt" height="300pt" viewBox="0 0 300 300"><defs><symbol overflow="visible"><path d="M.453 1.594v-7.938h4.5v7.938zm.5-.5h3.5v-6.938h-3.5zm0 0"/></symbol><symbol overflow="visible" id="a"><path d="M5.797-6.063v.938c-.305-.27-.625-.473-.97-.61-.335-.144-.686-.218-1.06-.218-.75 0-1.33.23-1.736.687-.397.46-.592 1.12-.592 1.985 0 .866.195 1.526.593 1.983.408.46.986.688 1.736.688.375 0 .726-.066 1.062-.203.344-.132.664-.343.97-.625V-.5c-.314.21-.642.367-.986.47-.343.1-.714.155-1.11.155-.99 0-1.772-.3-2.343-.906C.784-1.396.5-2.228.5-3.28c0-1.052.285-1.88.86-2.486.57-.613 1.35-.92 2.343-.92.395-.002.766.053 1.11.155.35.104.68.26.984.468zm0 0"/></symbol><symbol overflow="visible" id="b"><path d="M.844-6.844h.812V0H.844zm0 0"/></symbol><symbol overflow="visible" id="c"><path d="M.89-6.563H2.08l2.906 5.485v-5.484h.86V0H4.656L1.75-5.484V0H.89zm0 0"/></symbol><symbol overflow="visible" id="f"><path d="M3.547-5.953c-.65 0-1.164.242-1.547.72-.375.48-.563 1.13-.563 1.952 0 .835.188 1.49.563 1.967.383.48.898.72 1.547.72.644 0 1.156-.24 1.53-.72.376-.476.564-1.132.564-1.968 0-.822-.187-1.474-.562-1.954-.375-.477-.887-.72-1.53-.72zm0-.734c.914 0 1.648.312 2.203.937.55.617.828 1.438.828 2.47 0 1.042-.277 1.87-.828 2.483-.555.617-1.29.922-2.203.922-.93 0-1.668-.305-2.22-.922C.774-1.41.5-2.237.5-3.28c0-1.033.273-1.853.828-2.47.55-.625 1.29-.938 2.22-.938zm0 0"/></symbol><symbol overflow="visible" id="g"><path d="M.89-6.563h3.766v.75h-2.89v1.938h2.61v.734h-2.61V0H.89zm0 0"/></symbol><symbol overflow="visible"><path d="M.406 1.422V-5.64h4V1.42zM.844.97h3.11v-6.157H.843zm0 0"/></symbol><symbol overflow="visible" id="d"><path d="M3.688-5.016v2.172h2.17v.672H3.69V0H3.03v-2.172H.845v-.672H3.03v-2.172zm0 0"/></symbol><symbol overflow="visible" id="e"><path d="M.39-2.516H2.5v.64H.39zm0 0"/></symbol></defs><g><path fill="#fff" d="M0 0h300v300H0z"/><path d="M96.992 191.46l-10.066-6.58" stroke-width="1.2" stroke="#0c0" stroke-miterlimit="10" fill="none"/><path d="M86.926 184.88l-10.07-6.587" stroke-width="1.2" stroke="#000" stroke-miterlimit="10" fill="none"/><path d="M91.992 185.96h10v11h-10zm0 0" fill="#fff"/><g fill="#0c0"><use xlink:href="#a" x="91.992" y="194.624"/><use xlink:href="#b" x="98.506" y="194.624"/></g><path d="M76.855 178.293l-21.468 10.855M72.156 174.328l-17.176 8.684M78.19 154.273l-1.335 24.02M55.387 189.148L35.25 175.984M35.25 175.984l1.332-24.02M41.035 173.895l1.067-19.215M36.582 151.965l21.473-10.86M58.055 141.105l.664-12.007" stroke-width="1.2" stroke="#000" stroke-miterlimit="10" fill="none"/><path d="M58.72 129.098l.667-12.012" stroke-width="1.2" stroke="#0c0" stroke-miterlimit="10" fill="none"/><path d="M58.055 141.105l20.136 13.168M56.97 147.16l16.108 10.535" stroke-width="1.2" stroke="#000" stroke-miterlimit="10" fill="none"/><path d="M54.387 111.586h10v11h-10zm0 0" fill="#fff"/><g fill="#0c0"><use xlink:href="#a" x="54.387" y="120.249"/><use xlink:href="#b" x="60.9" y="120.249"/></g><path d="M78.19 154.273l21.47-10.855M99.66 143.418l.668-12.012" stroke-width="1.2" stroke="#000" stroke-miterlimit="10" fill="none"/><path d="M100.328 131.406l.664-12.01" stroke-width="1.2" stroke="#00f" stroke-miterlimit="10" fill="none"/><path d="M105.445 141.328l.532-9.61" stroke-width="1.2" stroke="#000" stroke-miterlimit="10" fill="none"/><path d="M105.977 131.72l.535-9.607" stroke-width="1.2" stroke="#00f" stroke-miterlimit="10" fill="none"/><path d="M119.797 156.582L99.66 143.418" stroke-width="1.2" stroke="#000" stroke-miterlimit="10" fill="none"/><path d="M100.992 119.395l-10.066-6.582" stroke-width="1.2" stroke="#00f" stroke-miterlimit="10" fill="none"/><path d="M90.926 112.813l-10.07-6.583" stroke-width="1.2" stroke="#f00" stroke-miterlimit="10" fill="none"/><path d="M100.992 119.395l10.735-5.426" stroke-width="1.2" stroke="#00f" stroke-miterlimit="10" fill="none"/><path d="M111.727 113.97l10.734-5.43" stroke-width="1.2" stroke="#000" stroke-miterlimit="10" fill="none"/><path d="M93.992 111.895h14v15h-14zm0 0" fill="#fff"/><use xlink:href="#c" x="93.992" y="123.996" fill="#00f"/><use xlink:href="#d" x="100.97" y="119.113" fill="#00f"/><path d="M69.855 98.73h11v15h-11zm0 0" fill="#fff"/><use xlink:href="#e" x="69.855" y="105.949" fill="#f00"/><use xlink:href="#f" x="72.663" y="110.832" fill="#f00"/><path d="M122.46 108.54l20.138 13.167M121.38 114.594l16.108 10.535M142.598 121.707l-1.332 24.02M141.266 145.727l-21.47 10.855M141.672 151.863l-17.176 8.688M161.402 158.895l-20.136-13.168M119.797 156.582l-.668 12.012" stroke-width="1.2" stroke="#000" stroke-miterlimit="10" fill="none"/><path d="M119.13 168.594l-.67 12.01M118.46 180.605l10.07 6.583" stroke-width="1.2" stroke="#00f" stroke-miterlimit="10" fill="none"/><path d="M128.53 187.188l10.068 6.582" stroke-width="1.2" stroke="#000" stroke-miterlimit="10" fill="none"/><path d="M123.574 177.184l8.055 5.265" stroke-width="1.2" stroke="#00f" stroke-miterlimit="10" fill="none"/><path d="M131.63 182.45l8.054 5.265" stroke-width="1.2" stroke="#000" stroke-miterlimit="10" fill="none"/><path d="M115.46 175.105h7v11h-7zm0 0" fill="#fff"/><use xlink:href="#c" x="115.461" y="183.769" fill="#00f"/><path d="M138.598 193.77l21.468-10.856M160.066 182.914l1.336-24.02M154.55 180.2l1.067-19.22M161.402 158.895l21.47-10.86M182.87 148.035l20.138 13.168M187.984 144.617l16.11 10.53M184.203 124.016l-1.332 24.02M203.008 161.203l21.47-10.855M224.477 150.348l1.335-24.024M218.957 147.63l1.07-19.216M224.477 150.348l20.136 13.164M225.813 126.324l-20.137-13.164M205.676 113.16l-21.473 10.856M206.082 119.297l-17.176 8.683M244.613 163.512l10.07 6.582" stroke-width="1.2" stroke="#000" stroke-miterlimit="10" fill="none"/><path d="M254.684 170.094l10.066 6.586" stroke-width="1.2" stroke="#3cc" stroke-miterlimit="10" fill="none"/><path d="M244.613 163.512l-6.582 10.07" stroke-width="1.2" stroke="#000" stroke-miterlimit="10" fill="none"/><path d="M238.03 173.582l-6.58 10.066" stroke-width="1.2" stroke="#3cc" stroke-miterlimit="10" fill="none"/><path d="M244.613 163.512l6.582-10.067" stroke-width="1.2" stroke="#000" stroke-miterlimit="10" fill="none"/><path d="M251.195 153.445l6.586-10.07" stroke-width="1.2" stroke="#3cc" stroke-miterlimit="10" fill="none"/><path d="M261.75 171.18h6v11h-6zm0 0" fill="#fff"/><use xlink:href="#g" x="261.75" y="179.843" fill="#3cc"/><path d="M225.45 178.148h6v11h-6zm0 0" fill="#fff"/><use xlink:href="#g" x="225.449" y="186.812" fill="#3cc"/><path d="M254.78 137.875h6v11h-6zm0 0" fill="#fff"/><use xlink:href="#g" x="254.781" y="146.538" fill="#3cc"/></g></svg>