<svg xmlns="http://www.w3.org/2000/svg" xmlns:xlink="http://www.w3.org/1999/xlink" width="300pt" height="300pt" viewBox="0 0 300 300"><defs><symbol overflow="visible"><path d="M.453 1.594v-7.938h4.5v7.938zm.5-.5h3.5v-6.938h-3.5zm0 0"/></symbol><symbol overflow="visible" id="a"><path d="M1.766-3.14v2.406h1.421c.477 0 .833-.098 1.063-.297.227-.197.344-.5.344-.907 0-.407-.117-.708-.344-.907-.23-.195-.586-.297-1.063-.297zm0-2.688v1.97h1.312c.438 0 .758-.08.97-.236.218-.164.327-.414.327-.75 0-.332-.11-.578-.328-.734-.21-.164-.53-.25-.97-.25zM.89-6.562h2.266c.676 0 1.196.14 1.563.42.362.283.546.685.546 1.205 0 .398-.094.714-.282.953-.187.242-.464.39-.828.453.438.092.774.292 1.016.592.238.293.36.657.36 1.094 0 .594-.2 1.055-.595 1.375-.398.314-.964.47-1.703.47H.89zm0 0"/></symbol><symbol overflow="visible" id="b"><path d="M3.703-4.172c-.094-.05-.195-.086-.297-.11-.105-.02-.226-.03-.36-.03-.46 0-.812.152-1.062.453-.242.294-.36.715-.36 1.266V0H.813v-4.922h.813v.766c.176-.3.398-.524.672-.672.27-.145.598-.22.984-.22.064 0 .126.01.19.017.07.01.147.022.233.03zm0 0"/></symbol><symbol overflow="visible" id="c"><path d="M.89-6.563H2.08l2.906 5.485v-5.484h.86V0H4.656L1.75-5.484V0H.89zm0 0"/></symbol><symbol overflow="visible" id="d"><path d="M.89-6.563h.876v2.688H5v-2.688h.89V0H5v-3.125H1.766V0H.89zm0 0"/></symbol><symbol overflow="visible" id="e"><path d="M3.547-5.953c-.65 0-1.164.242-1.547.72-.375.48-.563 1.13-.563 1.952 0 .835.188 1.49.563 1.967.383.48.898.72 1.547.72.644 0 1.156-.24 1.53-.72.376-.476.564-1.132.564-1.968 0-.822-.187-1.474-.562-1.954-.375-.477-.887-.72-1.53-.72zm0-.734c.914 0 1.648.312 2.203.937.55.617.828 1.438.828 2.47 0 1.042-.277 1.87-.828 2.483-.555.617-1.29.922-2.203.922-.93 0-1.668-.305-2.22-.922C.774-1.41.5-2.237.5-3.28c0-1.033.273-1.853.828-2.47.55-.625 1.29-.938 2.22-.938zm0 0"/></symbol><symbol overflow="visible"><path d="M.406 1.422V-5.64h4V1.42zM.844.97h3.11v-6.157H.843zm0 0"/></symbol><symbol overflow="visible" id="f"><path d="M1.53-.672h2.767V0H.594v-.672c.29-.3.695-.71 1.22-1.234.518-.532.842-.867.967-1.016.26-.28.44-.52.533-.72.1-.194.156-.39.156-.577 0-.31-.11-.565-.33-.764-.218-.196-.5-.297-.843-.297-.25 0-.516.046-.797.14-.273.085-.563.214-.875.39v-.797c.32-.133.617-.234.89-.297.282-.062.536-.093.766-.093.603 0 1.083.152 1.44.453.362.304.546.703.546 1.203 0 .24-.047.468-.14.686-.095.22-.26.477-.485.766-.074.074-.288.293-.64.656-.344.356-.836.856-1.47 1.5zm0 0"/></symbol></defs><g><path fill="#fff" d="M0 0h300v300H0z"/><path d="M133.738 210.293l-9.273-3.688" stroke-width="1.2" stroke="#7f4d1a" stroke-miterlimit="10" fill="none"/><path d="M124.465 206.605l-9.27-3.683" stroke-width="1.2" stroke="#000" stroke-miterlimit="10" fill="none"/><path d="M128.738 204.793h11v11h-11zm0 0" fill="#fff"/><g fill="#7f4d1a"><use xlink:href="#a" x="128.738" y="213.456"/><use xlink:href="#b" x="135.138" y="213.456"/></g><path d="M115.195 202.922l-15.656 12.37M110.72 200.477l-12.525 9.894M112.31 183.176l2.885 19.746M99.54 215.293l-9.27-3.684" stroke-width="1.2" stroke="#000" stroke-miterlimit="10" fill="none"/><path d="M90.27 211.61L81 207.92M81 207.922l-1.445-9.87" stroke-width="1.2" stroke="#00f" stroke-miterlimit="10" fill="none"/><path d="M79.555 198.05l-1.446-9.87" stroke-width="1.2" stroke="#000" stroke-miterlimit="10" fill="none"/><path d="M85.355 205.27l-1.156-7.9" stroke-width="1.2" stroke="#00f" stroke-miterlimit="10" fill="none"/><path d="M84.2 197.37l-1.157-7.897" stroke-width="1.2" stroke="#000" stroke-miterlimit="10" fill="none"/><path d="M78 202.422h7v11h-7zm0 0" fill="#fff"/><use xlink:href="#c" x="78" y="211.085" fill="#00f"/><path d="M78.11 188.18l7.828-6.188" stroke-width="1.2" stroke="#000" stroke-miterlimit="10" fill="none"/><path d="M85.938 181.992l7.828-6.187" stroke-width="1.2" stroke="#00f" stroke-miterlimit="10" fill="none"/><path d="M78.11 188.18l-9.27-3.688" stroke-width="1.2" stroke="#000" stroke-miterlimit="10" fill="none"/><path d="M68.84 184.492l-9.274-3.683M93.766 175.805l9.27 3.687" stroke-width="1.2" stroke="#00f" stroke-miterlimit="10" fill="none"/><path d="M103.035 179.492l9.274 3.684" stroke-width="1.2" stroke="#000" stroke-miterlimit="10" fill="none"/><path d="M93.887 180.906l7.414 2.95" stroke-width="1.2" stroke="#00f" stroke-miterlimit="10" fill="none"/><path d="M101.3 183.855l7.42 2.95" stroke-width="1.2" stroke="#000" stroke-miterlimit="10" fill="none"/><path d="M90.766 170.305h7v11h-7zm0 0" fill="#fff"/><use xlink:href="#c" x="90.766" y="178.968" fill="#00f"/><path d="M112.31 183.176l7.823-6.184" stroke-width="1.2" stroke="#000" stroke-miterlimit="10" fill="none"/><path d="M120.133 176.992l7.828-6.187M127.96 170.805l9.274 3.683" stroke-width="1.2" stroke="#00f" stroke-miterlimit="10" fill="none"/><path d="M137.234 174.488l9.27 3.688" stroke-width="1.2" stroke="#000" stroke-miterlimit="10" fill="none"/><path d="M120.96 165.305h14v11h-14zm0 0" fill="#fff"/><g fill="#00f"><use xlink:href="#c" x="120.961" y="173.968"/><use xlink:href="#d" x="127.938" y="173.968"/></g><path d="M146.504 178.176L162.16 165.8M162.16 165.8l18.543 7.372M180.703 173.172l7.824-6.184" stroke-width="1.2" stroke="#000" stroke-miterlimit="10" fill="none"/><path d="M188.527 166.988l7.828-6.187M196.355 160.8l9.274 3.688" stroke-width="1.2" stroke="#00f" stroke-miterlimit="10" fill="none"/><path d="M205.63 164.488l9.268 3.684" stroke-width="1.2" stroke="#000" stroke-miterlimit="10" fill="none"/><path d="M189.355 155.3h14v11h-14zm0 0" fill="#fff"/><g fill="#00f"><use xlink:href="#c" x="189.355" y="163.964"/><use xlink:href="#d" x="196.333" y="163.964"/></g><path d="M212.574 168.512l1.446 9.87" stroke-width="1.2" stroke="#000" stroke-miterlimit="10" fill="none"/><path d="M214.02 178.383l1.445 9.87" stroke-width="1.2" stroke="#f00" stroke-miterlimit="10" fill="none"/><path d="M217.223 167.832l1.44 9.87" stroke-width="1.2" stroke="#000" stroke-miterlimit="10" fill="none"/><path d="M218.664 177.703l1.445 9.87" stroke-width="1.2" stroke="#f00" stroke-miterlimit="10" fill="none"/><path d="M214.898 168.172l15.657-12.37" stroke-width="1.2" stroke="#000" stroke-miterlimit="10" fill="none"/><path d="M213.785 182.414h8v11h-8zm0 0" fill="#fff"/><use xlink:href="#e" x="213.785" y="191.077" fill="#f00"/><path d="M230.555 155.8l15.652-12.374M230.555 155.8l12.37 15.653M230.555 155.8l-12.375-15.655M245.34 145.61l9.273 3.683" stroke-width="1.2" stroke="#000" stroke-miterlimit="10" fill="none"/><path d="M254.613 149.293l9.27 3.687" stroke-width="1.2" stroke="#f00" stroke-miterlimit="10" fill="none"/><path d="M247.074 141.246l9.274 3.684" stroke-width="1.2" stroke="#000" stroke-miterlimit="10" fill="none"/><path d="M256.348 144.93l9.27 3.687" stroke-width="1.2" stroke="#f00" stroke-miterlimit="10" fill="none"/><path d="M246.207 143.426l-1.44-9.87" stroke-width="1.2" stroke="#000" stroke-miterlimit="10" fill="none"/><path d="M244.766 133.555l-1.446-9.87" stroke-width="1.2" stroke="#00f" stroke-miterlimit="10" fill="none"/><path d="M260.75 145.297h8v11h-8zm0 0" fill="#fff"/><use xlink:href="#e" x="260.75" y="153.96" fill="#f00"/><path d="M234.32 115.684h19v16h-19zm0 0" fill="#fff"/><use xlink:href="#d" x="234.32" y="124.347" fill="#00f"/><use xlink:href="#f" x="241.335" y="129.229" fill="#00f"/><use xlink:href="#c" x="246.285" y="124.347" fill="#00f"/><path d="M59.566 180.81l-1.44-9.873" stroke-width="1.2" stroke="#00f" stroke-miterlimit="10" fill="none"/><path d="M58.125 170.938l-1.445-9.875" stroke-width="1.2" stroke="#000" stroke-miterlimit="10" fill="none"/><path d="M52.566 175.31h14v11h-14zm0 0" fill="#fff"/><g fill="#00f"><use xlink:href="#c" x="52.566" y="183.972"/><use xlink:href="#d" x="59.544" y="183.972"/></g><path d="M56.68 161.063l15.656-12.372M55.336 156.145l12.523-9.9M38.137 153.69l18.543 7.373M72.336 148.69l-2.89-19.74M69.445 128.95l7.828-6.188" stroke-width="1.2" stroke="#000" stroke-miterlimit="10" fill="none"/><path d="M77.273 122.762l7.83-6.188" stroke-width="1.2" stroke="#00f" stroke-miterlimit="10" fill="none"/><path d="M69.445 128.95l-18.54-7.372M65.86 132.574l-14.837-5.898" stroke-width="1.2" stroke="#000" stroke-miterlimit="10" fill="none"/><path d="M85.102 116.574l9.27 3.688" stroke-width="1.2" stroke="#00f" stroke-miterlimit="10" fill="none"/><path d="M94.37 120.262l9.275 3.683" stroke-width="1.2" stroke="#000" stroke-miterlimit="10" fill="none"/><path d="M78.102 111.074h14v11h-14zm0 0" fill="#fff"/><g fill="#00f"><use xlink:href="#c" x="78.102" y="119.737"/><use xlink:href="#d" x="85.079" y="119.737"/></g><path d="M101.32 124.285l1.446 9.87" stroke-width="1.2" stroke="#000" stroke-miterlimit="10" fill="none"/><path d="M102.766 134.156l1.445 9.875" stroke-width="1.2" stroke="#f00" stroke-miterlimit="10" fill="none"/><path d="M105.97 123.605l1.44 9.872" stroke-width="1.2" stroke="#000" stroke-miterlimit="10" fill="none"/><path d="M107.41 133.477l1.445 9.875" stroke-width="1.2" stroke="#f00" stroke-miterlimit="10" fill="none"/><path d="M103.645 123.945l7.828-6.183" stroke-width="1.2" stroke="#000" stroke-miterlimit="10" fill="none"/><path d="M111.473 117.762l7.824-6.188" stroke-width="1.2" stroke="#00f" stroke-miterlimit="10" fill="none"/><path d="M102.53 138.19h8v11h-8zm0 0" fill="#fff"/><use xlink:href="#e" x="102.531" y="146.854" fill="#f00"/><path d="M119.297 111.574l-.402-9.97" stroke-width="1.2" stroke="#00f" stroke-miterlimit="10" fill="none"/><path d="M118.895 101.605l-.403-9.968M138.512 116.965l-9.61-2.695" stroke-width="1.2" stroke="#000" stroke-miterlimit="10" fill="none"/><path d="M128.902 114.27l-9.605-2.696" stroke-width="1.2" stroke="#00f" stroke-miterlimit="10" fill="none"/><path d="M116.297 106.074h7v11h-7zm0 0" fill="#fff"/><use xlink:href="#c" x="116.297" y="114.737" fill="#00f"/><path d="M118.492 91.637l18.71-6.93M137.203 84.707l12.37 15.652M149.574 100.36l-11.062 16.605M50.906 121.578l-15.656 12.37M35.25 133.95l2.887 19.74M40.184 135.246l2.312 15.793" stroke-width="1.2" stroke="#000" stroke-miterlimit="10" fill="none"/></g></svg>