<svg xmlns="http://www.w3.org/2000/svg" xmlns:xlink="http://www.w3.org/1999/xlink" width="300pt" height="300pt" viewBox="0 0 300 300"><defs><symbol overflow="visible"><path d="M.453 1.594v-7.938h4.5v7.938zm.5-.5h3.5v-6.938h-3.5zm0 0"/></symbol><symbol overflow="visible" id="a"><path d="M5.797-6.063v.938c-.305-.27-.625-.473-.97-.61-.335-.144-.686-.218-1.06-.218-.75 0-1.33.23-1.736.687-.397.46-.592 1.12-.592 1.985 0 .866.195 1.526.593 1.983.408.46.986.688 1.736.688.375 0 .726-.066 1.062-.203.344-.132.664-.343.97-.625V-.5c-.314.21-.642.367-.986.47-.343.1-.714.155-1.11.155-.99 0-1.772-.3-2.343-.906C.784-1.396.5-2.228.5-3.28c0-1.052.285-1.88.86-2.486.57-.613 1.35-.92 2.343-.92.395-.002.766.053 1.11.155.35.104.68.26.984.468zm0 0"/></symbol><symbol overflow="visible" id="b"><path d="M.844-6.844h.812V0H.844zm0 0"/></symbol><symbol overflow="visible" id="c"><path d="M.89-6.563H2.08l2.906 5.485v-5.484h.86V0H4.656L1.75-5.484V0H.89zm0 0"/></symbol><symbol overflow="visible" id="d"><path d="M.89-6.563h.876v2.688H5v-2.688h.89V0H5v-3.125H1.766V0H.89zm0 0"/></symbol><symbol overflow="visible" id="e"><path d="M3.547-5.953c-.65 0-1.164.242-1.547.72-.375.48-.563 1.13-.563 1.952 0 .835.188 1.49.563 1.967.383.48.898.72 1.547.72.644 0 1.156-.24 1.53-.72.376-.476.564-1.132.564-1.968 0-.822-.187-1.474-.562-1.954-.375-.477-.887-.72-1.53-.72zm0-.734c.914 0 1.648.312 2.203.937.55.617.828 1.438.828 2.47 0 1.042-.277 1.87-.828 2.483-.555.617-1.29.922-2.203.922-.93 0-1.668-.305-2.22-.922C.774-1.41.5-2.237.5-3.28c0-1.033.273-1.853.828-2.47.55-.625 1.29-.938 2.22-.938zm0 0"/></symbol><symbol overflow="visible" id="f"><path d="M4.813-6.344v.86c-.336-.157-.653-.27-.954-.344-.294-.082-.58-.125-.86-.125-.492 0-.867.094-1.125.28-.262.19-.39.454-.39.798 0 .293.085.512.265.656.176.15.504.267.984.36l.547.11c.658.125 1.142.352 1.454.672.32.312.485.734.485 1.265 0 .637-.216 1.122-.642 1.454-.43.325-1.055.485-1.875.485-.312 0-.648-.04-1-.11C1.36-.046 1-.147.625-.296v-.906c.352.2.703.35 1.047.453.35.105.695.156 1.03.156.5 0 .884-.097 1.157-.297.28-.196.42-.485.42-.86 0-.32-.1-.57-.296-.75-.2-.176-.523-.313-.968-.406l-.547-.11C1.81-3.148 1.33-3.36 1.03-3.64.74-3.923.595-4.313.595-4.813c0-.57.203-1.024.61-1.36.405-.344.968-.516 1.687-.516.313 0 .626.032.938.094.32.055.65.137.985.25zm0 0"/></symbol></defs><g><path fill="#fff" d="M0 0h300v300H0z"/><path d="M234.625 140.895l2.82-7.067" stroke-width="1.2" stroke="#0c0" stroke-miterlimit="10" fill="none"/><path d="M237.445 133.828l2.825-7.066" stroke-width="1.2" stroke="#000" stroke-miterlimit="10" fill="none"/><path d="M224.625 135.395h10v11h-10zm0 0" fill="#fff"/><g fill="#0c0"><use xlink:href="#a" x="224.625" y="144.058"/><use xlink:href="#b" x="231.139" y="144.058"/></g><path d="M240.27 126.762l-9.415-11.957M242.14 123.352l-7.53-9.567M255.332 124.586l-15.062 2.176M230.855 114.805l-7.53 1.09" stroke-width="1.2" stroke="#000" stroke-miterlimit="10" fill="none"/><path d="M223.324 115.895l-7.53 1.09" stroke-width="1.2" stroke="#00f" stroke-miterlimit="10" fill="none"/><path d="M230.855 114.805l5.645-14.133" stroke-width="1.2" stroke="#000" stroke-miterlimit="10" fill="none"/><path d="M215.793 116.984l-2.824 7.067" stroke-width="1.2" stroke="#00f" stroke-miterlimit="10" fill="none"/><path d="M212.97 124.05l-2.825 7.067" stroke-width="1.2" stroke="#000" stroke-miterlimit="10" fill="none"/><path d="M208.793 111.484h14v11h-14zm0 0" fill="#fff"/><g fill="#00f"><use xlink:href="#c" x="208.793" y="120.147"/><use xlink:href="#d" x="215.771" y="120.147"/></g><path d="M208.738 132.223l4.707 5.98" stroke-width="1.2" stroke="#000" stroke-miterlimit="10" fill="none"/><path d="M213.445 138.203l4.707 5.977" stroke-width="1.2" stroke="#f00" stroke-miterlimit="10" fill="none"/><path d="M211.55 130.008l4.708 5.98" stroke-width="1.2" stroke="#000" stroke-miterlimit="10" fill="none"/><path d="M216.258 135.988l4.71 5.977" stroke-width="1.2" stroke="#f00" stroke-miterlimit="10" fill="none"/><path d="M210.145 131.117l-7.532 1.086" stroke-width="1.2" stroke="#000" stroke-miterlimit="10" fill="none"/><path d="M202.613 132.203l-7.53 1.09" stroke-width="1.2" stroke="#00f" stroke-miterlimit="10" fill="none"/><path d="M215.563 137.574h8v11h-8zm0 0" fill="#fff"/><use xlink:href="#e" x="215.563" y="146.237" fill="#f00"/><path d="M195.082 133.293l-2.824 7.066" stroke-width="1.2" stroke="#00f" stroke-miterlimit="10" fill="none"/><path d="M192.258 140.36l-2.824 7.066" stroke-width="1.2" stroke="#000" stroke-miterlimit="10" fill="none"/><path d="M188.082 127.793h14v11h-14zm0 0" fill="#fff"/><g fill="#00f"><use xlink:href="#c" x="188.082" y="136.456"/><use xlink:href="#d" x="195.06" y="136.456"/></g><path d="M189.434 147.426l4.058 6.437" stroke-width="1.2" stroke="#000" stroke-miterlimit="10" fill="none"/><path d="M193.492 153.863l4.06 6.438" stroke-width="1.2" stroke="#cc0" stroke-miterlimit="10" fill="none"/><path d="M174.684 151.164l14.75-3.738M177.035 154.262l11.805-2.992" stroke-width="1.2" stroke="#000" stroke-miterlimit="10" fill="none"/><path d="M197.55 160.3l-4.87 5.848" stroke-width="1.2" stroke="#cc0" stroke-miterlimit="10" fill="none"/><path d="M192.68 166.148l-4.868 5.848" stroke-width="1.2" stroke="#000" stroke-miterlimit="10" fill="none"/><path d="M194.55 154.8h6v11h-6zm0 0" fill="#fff"/><use xlink:href="#f" x="194.551" y="163.464" fill="#cc0"/><path d="M187.813 171.996l-14.133-5.644M187.727 168.11l-11.305-4.52M187.813 171.996l3.738 14.754M173.68 166.352l1.004-15.188M174.684 151.164l-11.7-9.738M164.75 141.73l1.293-7.5" stroke-width="1.2" stroke="#000" stroke-miterlimit="10" fill="none"/><path d="M166.043 134.23l1.293-7.496" stroke-width="1.2" stroke="#f00" stroke-miterlimit="10" fill="none"/><path d="M161.223 141.12l1.29-7.495" stroke-width="1.2" stroke="#000" stroke-miterlimit="10" fill="none"/><path d="M162.512 133.625l1.293-7.5" stroke-width="1.2" stroke="#f00" stroke-miterlimit="10" fill="none"/><path d="M162.984 141.426l-7.14 2.633" stroke-width="1.2" stroke="#000" stroke-miterlimit="10" fill="none"/><path d="M155.844 144.06l-7.14 2.627" stroke-width="1.2" stroke="#00f" stroke-miterlimit="10" fill="none"/><path d="M161.57 120.93h8v11h-8zm0 0" fill="#fff"/><use xlink:href="#e" x="161.57" y="129.593" fill="#f00"/><path d="M148.703 146.688l-.726 7.574" stroke-width="1.2" stroke="#00f" stroke-miterlimit="10" fill="none"/><path d="M147.977 154.262l-.73 7.574M137.77 136.102l5.464 5.293" stroke-width="1.2" stroke="#000" stroke-miterlimit="10" fill="none"/><path d="M143.234 141.395l5.47 5.292" stroke-width="1.2" stroke="#00f" stroke-miterlimit="10" fill="none"/><path d="M145.703 141.188h7v11h-7zm0 0" fill="#fff"/><use xlink:href="#c" x="145.703" y="149.851" fill="#00f"/><path d="M147.246 161.836l-12.75 8.31M134.496 170.145l-14.445-4.793M118.762 164.11l-5.293 5.464" stroke-width="1.2" stroke="#000" stroke-miterlimit="10" fill="none"/><path d="M113.47 169.574l-5.29 5.47" stroke-width="1.2" stroke="#f00" stroke-miterlimit="10" fill="none"/><path d="M121.336 166.598l-5.293 5.468" stroke-width="1.2" stroke="#000" stroke-miterlimit="10" fill="none"/><path d="M116.043 172.066l-5.293 5.47" stroke-width="1.2" stroke="#f00" stroke-miterlimit="10" fill="none"/><path d="M120.05 165.352l-2.632-7.14" stroke-width="1.2" stroke="#000" stroke-miterlimit="10" fill="none"/><path d="M117.418 158.21l-2.63-7.14" stroke-width="1.2" stroke="#00f" stroke-miterlimit="10" fill="none"/><path d="M101.465 170.79h8v11h-8zm0 0" fill="#fff"/><use xlink:href="#e" x="101.465" y="179.452" fill="#f00"/><path d="M114.79 151.07l3.94-6.507" stroke-width="1.2" stroke="#00f" stroke-miterlimit="10" fill="none"/><path d="M118.73 144.563l3.942-6.508" stroke-width="1.2" stroke="#000" stroke-miterlimit="10" fill="none"/><path d="M114.79 151.07l-7.575-.726" stroke-width="1.2" stroke="#00f" stroke-miterlimit="10" fill="none"/><path d="M107.215 150.344l-7.578-.73" stroke-width="1.2" stroke="#000" stroke-miterlimit="10" fill="none"/><path d="M111.79 145.57h7v11h-7zm0 0" fill="#fff"/><use xlink:href="#c" x="111.789" y="154.233" fill="#00f"/><path d="M122.672 138.055l15.098-1.953M99.637 149.613l-6.313-13.847M93.324 135.766l-7.574-.727" stroke-width="1.2" stroke="#000" stroke-miterlimit="10" fill="none"/><path d="M85.75 135.04l-7.574-.73M78.176 134.31l-3.156-6.923" stroke-width="1.2" stroke="#f00" stroke-miterlimit="10" fill="none"/><path d="M75.02 127.387l-3.157-6.926" stroke-width="1.2" stroke="#000" stroke-miterlimit="10" fill="none"/><path d="M74.176 128.81h8v11h-8zm0 0" fill="#fff"/><use xlink:href="#e" x="74.176" y="137.472" fill="#f00"/><path d="M71.863 120.46l-15.152-1.456M56.71 119.004l-3.155-6.922" stroke-width="1.2" stroke="#000" stroke-miterlimit="10" fill="none"/><path d="M53.555 112.082l-3.157-6.926M50.398 105.156l-7.574-.726" stroke-width="1.2" stroke="#f00" stroke-miterlimit="10" fill="none"/><path d="M42.824 104.43l-7.574-.73" stroke-width="1.2" stroke="#000" stroke-miterlimit="10" fill="none"/><path d="M46.398 99.656h8v11h-8zm0 0" fill="#fff"/><use xlink:href="#e" x="46.398" y="108.319" fill="#f00"/><path d="M191.55 186.75l-14.753 3.738M191.55 186.75l14.755-3.738M191.55 186.75l3.74 14.754M236.5 100.672l15.063-2.176M238.52 104l12.05-1.742M251.563 98.496l9.417 11.957M260.98 110.453l-5.648 14.133M257.09 110.54l-4.516 11.304M255.332 124.586l4.71 5.98" stroke-width="1.2" stroke="#000" stroke-miterlimit="10" fill="none"/><path d="M260.043 130.566l4.707 5.977" stroke-width="1.2" stroke="#0c0" stroke-miterlimit="10" fill="none"/><path d="M259.75 131.043h10v11h-10zm0 0" fill="#fff"/><g fill="#0c0"><use xlink:href="#a" x="259.75" y="139.706"/><use xlink:href="#b" x="266.264" y="139.706"/></g></g></svg>