<svg xmlns="http://www.w3.org/2000/svg" xmlns:xlink="http://www.w3.org/1999/xlink" width="300pt" height="300pt" viewBox="0 0 300 300"><defs><symbol overflow="visible"><path d="M.594 2.125V-8.47h6V2.126zm.672-.672h4.671V-7.78h-4.67zm0 0"/></symbol><symbol overflow="visible" id="a"><path d="M7.734-8.078v1.25c-.406-.375-.836-.65-1.28-.828-.45-.188-.93-.282-1.438-.282-1 0-1.766.31-2.297.922-.533.618-.798 1.5-.798 2.657 0 1.15.266 2.028.797 2.64.53.618 1.296.923 2.296.923.507 0 .988-.094 1.437-.28.445-.19.875-.462 1.28-.83V-.67c-.417.28-.858.496-1.327.64-.46.134-.945.204-1.453.204-1.336 0-2.383-.406-3.14-1.22-.762-.81-1.14-1.913-1.14-3.31 0-1.408.378-2.517 1.14-3.33.757-.812 1.804-1.218 3.14-1.218.52 0 1.008.074 1.47.22.468.135.905.338 1.31.608zm0 0"/></symbol><symbol overflow="visible" id="b"><path d="M1.125-9.125h1.078V0H1.125zm0 0"/></symbol><symbol overflow="visible" id="c"><path d="M1.172-8.75h1.594l3.89 7.313V-8.75h1.14V0H6.204L2.328-7.313V0H1.172zm0 0"/></symbol><symbol overflow="visible" id="f"><path d="M4.734-7.953c-.867 0-1.554.324-2.062.97-.5.635-.75 1.51-.75 2.624 0 1.094.25 1.965.75 2.61.508.637 1.195.953 2.062.953.852 0 1.532-.316 2.032-.953.507-.645.765-1.516.765-2.61 0-1.113-.257-1.988-.764-2.624-.5-.645-1.18-.97-2.032-.97zm0-.953c1.22 0 2.192.414 2.922 1.234.74.824 1.11 1.93 1.11 3.313 0 1.376-.37 2.477-1.11 3.298C6.926-.24 5.953.17 4.734.17c-1.23 0-2.214-.41-2.953-1.234C1.04-1.882.673-2.984.673-4.36c0-1.382.367-2.488 1.11-3.312.738-.82 1.722-1.234 2.952-1.234zm0 0"/></symbol><symbol overflow="visible" id="g"><path d="M1.172-8.75H2.36v3.594h4.296V-8.75h1.188V0H6.656v-4.172H2.36V0H1.17zm0 0"/></symbol><symbol overflow="visible"><path d="M.5 1.766v-8.813h5v8.813zm.563-.547h3.875v-7.704H1.063zm0 0"/></symbol><symbol overflow="visible" id="d"><path d="M4.594-6.266v2.72h2.718v.827H4.595V0H3.78v-2.72H1.064v-.827H3.78v-2.72zm0 0"/></symbol><symbol overflow="visible" id="e"><path d="M.484-3.14h2.64v.796H.485zm0 0"/></symbol><symbol overflow="visible" id="h"><path d="M1.922-.828H5.36V0H.733v-.828c.375-.383.883-.906 1.532-1.563.644-.657 1.05-1.08 1.218-1.266.313-.352.532-.65.657-.89.126-.25.188-.493.188-.735 0-.384-.137-.697-.406-.94-.274-.25-.625-.374-1.063-.374-.313 0-.64.06-.985.172-.336.106-.7.266-1.094.484v-1c.396-.156.767-.273 1.11-.36.344-.08.66-.124.954-.124.75 0 1.347.188 1.797.563.458.376.688.883.688 1.516 0 .305-.058.59-.172.86-.117.26-.32.574-.61.937-.085.094-.343.37-.78.828-.438.45-1.055 1.08-1.844 1.892zm0 0"/></symbol></defs><g><path fill="#fff" d="M0 0h300v300H0z"/><path d="M65.793 233.887l-1.137-14.36" stroke-width="1.2" stroke="#0c0" stroke-miterlimit="10" fill="none"/><path d="M64.656 219.527l-1.133-14.36" stroke-width="1.2" stroke="#000" stroke-miterlimit="10" fill="none"/><path d="M59.793 226.887h12v14h-12zm0 0" fill="#fff"/><g fill="#0c0"><use xlink:href="#a" x="59.793" y="238.025"/><use xlink:href="#b" x="68.172" y="238.025"/></g><path d="M63.523 205.168L37.52 192.773M63.84 197.81l-20.805-9.915M87.258 188.844l-23.735 16.324M37.52 192.773l-2.27-28.714M35.25 164.06l23.734-16.326M41.465 168.012l18.988-13.063M58.984 147.734l26.004 12.395M84.988 160.13l11.867-8.165" stroke-width="1.2" stroke="#000" stroke-miterlimit="10" fill="none"/><path d="M96.855 151.965l11.868-8.16" stroke-width="1.2" stroke="#0c0" stroke-miterlimit="10" fill="none"/><path d="M84.988 160.13l2.27 28.714M78.46 163.53l1.813 22.978" stroke-width="1.2" stroke="#000" stroke-miterlimit="10" fill="none"/><path d="M102.723 136.805h12v14h-12zm0 0" fill="#fff"/><g fill="#0c0"><use xlink:href="#a" x="102.723" y="147.943"/><use xlink:href="#b" x="111.102" y="147.943"/></g><path d="M87.258 188.844l26.004 12.394M113.262 201.238l1.136 14.36" stroke-width="1.2" stroke="#000" stroke-miterlimit="10" fill="none"/><path d="M114.398 215.598l1.133 14.355" stroke-width="1.2" stroke="#00f" stroke-miterlimit="10" fill="none"/><path d="M120.246 203.574l.91 11.488" stroke-width="1.2" stroke="#000" stroke-miterlimit="10" fill="none"/><path d="M121.156 215.063l.906 11.484" stroke-width="1.2" stroke="#00f" stroke-miterlimit="10" fill="none"/><path d="M136.996 184.914l-23.734 16.324" stroke-width="1.2" stroke="#000" stroke-miterlimit="10" fill="none"/><path d="M115.53 229.953l-11.866 8.164" stroke-width="1.2" stroke="#00f" stroke-miterlimit="10" fill="none"/><path d="M103.664 238.117l-11.867 8.16" stroke-width="1.2" stroke="#f00" stroke-miterlimit="10" fill="none"/><path d="M115.53 229.953l13.005 6.2" stroke-width="1.2" stroke="#00f" stroke-miterlimit="10" fill="none"/><path d="M128.535 236.152l13 6.196" stroke-width="1.2" stroke="#000" stroke-miterlimit="10" fill="none"/><path d="M106.53 221.453h18v17h-18zm0 0" fill="#fff"/><use xlink:href="#c" x="106.531" y="235.618" fill="#00f"/><use xlink:href="#d" x="115.508" y="230.735" fill="#00f"/><path d="M77.797 237.777h14v17h-14zm0 0" fill="#fff"/><use xlink:href="#e" x="77.797" y="247.06" fill="#f00"/><use xlink:href="#f" x="81.405" y="251.942" fill="#f00"/><path d="M141.535 242.348l23.735-16.325M140.07 235.13l18.99-13.06M165.27 226.023l-2.266-28.714M163.004 197.31l-26.008-12.396M163.316 189.95l-20.8-9.915M186.738 180.984l-23.734 16.325M136.996 184.914l-1.133-14.36" stroke-width="1.2" stroke="#000" stroke-miterlimit="10" fill="none"/><path d="M135.863 170.555l-1.133-14.36M134.73 156.195l11.868-8.16" stroke-width="1.2" stroke="#00f" stroke-miterlimit="10" fill="none"/><path d="M146.598 148.035l11.867-8.164" stroke-width="1.2" stroke="#000" stroke-miterlimit="10" fill="none"/><path d="M140.94 160.148l9.498-6.527" stroke-width="1.2" stroke="#00f" stroke-miterlimit="10" fill="none"/><path d="M150.438 153.62l9.492-6.53" stroke-width="1.2" stroke="#000" stroke-miterlimit="10" fill="none"/><path d="M130.73 149.195h9v14h-9zm0 0" fill="#fff"/><use xlink:href="#c" x="130.73" y="160.334" fill="#00f"/><path d="M158.465 139.87l-1.137-14.354" stroke-width="1.2" stroke="#000" stroke-miterlimit="10" fill="none"/><path d="M157.328 125.516l-1.133-14.36" stroke-width="1.2" stroke="#00f" stroke-miterlimit="10" fill="none"/><path d="M158.465 139.87l26.004 12.396" stroke-width="1.2" stroke="#000" stroke-miterlimit="10" fill="none"/><path d="M156.195 111.156l11.868-8.164" stroke-width="1.2" stroke="#00f" stroke-miterlimit="10" fill="none"/><path d="M168.063 102.992l11.867-8.16M130.19 98.762l13 6.2" stroke-width="1.2" stroke="#000" stroke-miterlimit="10" fill="none"/><path d="M143.19 104.96l13.005 6.196" stroke-width="1.2" stroke="#00f" stroke-miterlimit="10" fill="none"/><path d="M152.195 104.156h9v14h-9zm0 0" fill="#fff"/><use xlink:href="#c" x="152.195" y="115.295" fill="#00f"/><path d="M179.93 94.832l-2.27-28.72M177.66 66.113l-13.004-6.195" stroke-width="1.2" stroke="#000" stroke-miterlimit="10" fill="none"/><path d="M164.656 59.918l-13-6.195M151.656 53.723l-11.867 8.16" stroke-width="1.2" stroke="#00f" stroke-miterlimit="10" fill="none"/><path d="M139.79 61.883l-11.868 8.164" stroke-width="1.2" stroke="#000" stroke-miterlimit="10" fill="none"/><path d="M135.656 42.723h33v22h-33zm0 0" fill="#fff"/><g fill="#00f"><use xlink:href="#c" x="135.656" y="56.888"/><use xlink:href="#g" x="144.633" y="56.888"/></g><use xlink:href="#h" x="153.656" y="61.771" fill="#00f"/><use xlink:href="#d" x="160.019" y="52.005" fill="#00f"/><path d="M127.922 70.047l2.27 28.715M184.47 152.266l2.268 28.718M177.938 155.672l1.816 22.973M186.738 180.984l26.004 12.39M212.742 193.375l2.27 28.72M219.727 195.715l1.812 22.972M236.477 177.05l-23.735 16.325M215.012 222.094l26.004 12.394M241.016 234.488l23.734-16.324M239.547 227.27l18.988-13.06M264.75 218.164l-2.27-28.72M262.48 189.445l-26.003-12.394M256.965 194.324l-20.805-9.914M236.477 177.05l-1.133-14.355" stroke-width="1.2" stroke="#000" stroke-miterlimit="10" fill="none"/><path d="M235.344 162.695l-1.137-14.36" stroke-width="1.2" stroke="#0c0" stroke-miterlimit="10" fill="none"/><path d="M228.207 141.336h12v14h-12zm0 0" fill="#fff"/><g fill="#0c0"><use xlink:href="#a" x="228.207" y="152.475"/><use xlink:href="#b" x="236.586" y="152.475"/></g></g></svg>