<svg xmlns="http://www.w3.org/2000/svg" xmlns:xlink="http://www.w3.org/1999/xlink" width="300pt" height="300pt" viewBox="0 0 300 300"><defs><symbol overflow="visible"><path d="M.453 1.594v-7.938h4.5v7.938zm.5-.5h3.5v-6.938h-3.5zm0 0"/></symbol><symbol overflow="visible" id="a"><path d="M4.813-6.344v.86c-.336-.157-.653-.27-.954-.344-.294-.082-.58-.125-.86-.125-.492 0-.867.094-1.125.28-.262.19-.39.454-.39.798 0 .293.085.512.265.656.176.15.504.267.984.36l.547.11c.658.125 1.142.352 1.454.672.32.312.485.734.485 1.265 0 .637-.216 1.122-.642 1.454-.43.325-1.055.485-1.875.485-.312 0-.648-.04-1-.11C1.36-.046 1-.147.625-.296v-.906c.352.2.703.35 1.047.453.35.105.695.156 1.03.156.5 0 .884-.097 1.157-.297.28-.196.42-.485.42-.86 0-.32-.1-.57-.296-.75-.2-.176-.523-.313-.968-.406l-.547-.11C1.81-3.148 1.33-3.36 1.03-3.64.74-3.923.595-4.313.595-4.813c0-.57.203-1.024.61-1.36.405-.344.968-.516 1.687-.516.313 0 .626.032.938.094.32.055.65.137.985.25zm0 0"/></symbol><symbol overflow="visible" id="b"><path d="M3.547-5.953c-.65 0-1.164.242-1.547.72-.375.48-.563 1.13-.563 1.952 0 .835.188 1.49.563 1.967.383.48.898.72 1.547.72.644 0 1.156-.24 1.53-.72.376-.476.564-1.132.564-1.968 0-.822-.187-1.474-.562-1.954-.375-.477-.887-.72-1.53-.72zm0-.734c.914 0 1.648.312 2.203.937.55.617.828 1.438.828 2.47 0 1.042-.277 1.87-.828 2.483-.555.617-1.29.922-2.203.922-.93 0-1.668-.305-2.22-.922C.774-1.41.5-2.237.5-3.28c0-1.033.273-1.853.828-2.47.55-.625 1.29-.938 2.22-.938zm0 0"/></symbol><symbol overflow="visible" id="c"><path d="M.89-6.563H2.08l2.906 5.485v-5.484h.86V0H4.656L1.75-5.484V0H.89zm0 0"/></symbol><symbol overflow="visible" id="d"><path d="M.89-6.563h.876v2.688H5v-2.688h.89V0H5v-3.125H1.766V0H.89zm0 0"/></symbol><symbol overflow="visible" id="g"><path d="M.89-6.563h3.766v.75h-2.89v1.938h2.61v.734h-2.61V0H.89zm0 0"/></symbol><symbol overflow="visible"><path d="M.406 1.422V-5.64h4V1.42zM.844.97h3.11v-6.157H.843zm0 0"/></symbol><symbol overflow="visible" id="e"><path d="M3.688-5.016v2.172h2.17v.672H3.69V0H3.03v-2.172H.845v-.672H3.03v-2.172zm0 0"/></symbol><symbol overflow="visible" id="f"><path d="M.39-2.516H2.5v.64H.39zm0 0"/></symbol></defs><g><path fill="#fff" d="M0 0h300v300H0z"/><path d="M51.52 154.53l6.785-7.276" stroke-width="1.2" stroke="#cc0" stroke-miterlimit="10" fill="none"/><path d="M58.305 147.254l6.785-7.277" stroke-width="1.2" stroke="#f00" stroke-miterlimit="10" fill="none"/><path d="M48.094 151.34l6.785-7.278" stroke-width="1.2" stroke="#cc0" stroke-miterlimit="10" fill="none"/><path d="M54.88 144.063l6.784-7.282" stroke-width="1.2" stroke="#f00" stroke-miterlimit="10" fill="none"/><path d="M48.094 151.34l-6.785 7.277" stroke-width="1.2" stroke="#cc0" stroke-miterlimit="10" fill="none"/><path d="M41.31 158.617l-6.783 7.28" stroke-width="1.2" stroke="#f00" stroke-miterlimit="10" fill="none"/><path d="M51.52 154.53l-6.786 7.282" stroke-width="1.2" stroke="#cc0" stroke-miterlimit="10" fill="none"/><path d="M44.734 161.813l-6.785 7.277" stroke-width="1.2" stroke="#f00" stroke-miterlimit="10" fill="none"/><path d="M49.81 152.938l7.276 6.785" stroke-width="1.2" stroke="#cc0" stroke-miterlimit="10" fill="none"/><path d="M57.086 159.723l7.277 6.78" stroke-width="1.2" stroke="#00f" stroke-miterlimit="10" fill="none"/><path d="M49.81 152.938l-7.283-6.786" stroke-width="1.2" stroke="#cc0" stroke-miterlimit="10" fill="none"/><path d="M42.527 146.152l-7.277-6.785" stroke-width="1.2" stroke="#000" stroke-miterlimit="10" fill="none"/><path d="M46.81 147.438h6v11h-6zm0 0" fill="#fff"/><use xlink:href="#a" x="46.809" y="156.101" fill="#cc0"/><path d="M59.375 132.88h8v11h-8zm0 0" fill="#fff"/><use xlink:href="#b" x="59.375" y="141.542" fill="#f00"/><path d="M28.238 161.992h8v11h-8zm0 0" fill="#fff"/><use xlink:href="#b" x="28.238" y="170.655" fill="#f00"/><path d="M64.363 166.504l9.516-2.91" stroke-width="1.2" stroke="#00f" stroke-miterlimit="10" fill="none"/><path d="M73.88 163.594l9.515-2.91" stroke-width="1.2" stroke="#000" stroke-miterlimit="10" fill="none"/><path d="M57.363 161.004h14v11h-14zm0 0" fill="#fff"/><g fill="#00f"><use xlink:href="#c" x="57.363" y="169.667"/><use xlink:href="#d" x="64.341" y="169.667"/></g><path d="M83.395 160.684l4.472-19.39M88.406 159.797l3.578-15.516M97.953 174.254l-14.558-13.57M87.867 141.293l19.03-5.824M106.898 135.47l4.473-19.392M106.898 135.47l14.555 13.57M105.16 140.25l11.645 10.855M121.453 149.04l-4.47 19.39M121.453 149.04l19.03-5.825M116.984 168.43l-19.03 5.824M113.71 164.535l-15.226 4.656M140.484 143.215l2.24-9.695" stroke-width="1.2" stroke="#000" stroke-miterlimit="10" fill="none"/><path d="M142.723 133.52l2.234-9.696" stroke-width="1.2" stroke="#00f" stroke-miterlimit="10" fill="none"/><path d="M145.496 142.328l1.79-7.758" stroke-width="1.2" stroke="#000" stroke-miterlimit="10" fill="none"/><path d="M147.285 134.57l1.79-7.754" stroke-width="1.2" stroke="#00f" stroke-miterlimit="10" fill="none"/><path d="M155.043 156.785l-14.56-13.57" stroke-width="1.2" stroke="#000" stroke-miterlimit="10" fill="none"/><path d="M144.957 123.824l-7.277-6.785" stroke-width="1.2" stroke="#00f" stroke-miterlimit="10" fill="none"/><path d="M137.68 117.04l-7.282-6.786" stroke-width="1.2" stroke="#f00" stroke-miterlimit="10" fill="none"/><path d="M144.957 123.824l9.516-2.91" stroke-width="1.2" stroke="#00f" stroke-miterlimit="10" fill="none"/><path d="M154.473 120.914l9.515-2.914" stroke-width="1.2" stroke="#000" stroke-miterlimit="10" fill="none"/><path d="M137.957 116.324h14v15h-14zm0 0" fill="#fff"/><use xlink:href="#c" x="137.957" y="128.426" fill="#00f"/><use xlink:href="#e" x="144.935" y="123.543" fill="#00f"/><path d="M119.398 102.754h11v15h-11zm0 0" fill="#fff"/><use xlink:href="#f" x="119.398" y="109.973" fill="#f00"/><use xlink:href="#b" x="122.206" y="114.855" fill="#f00"/><path d="M163.988 118l14.56 13.57M162.25 122.785l11.648 10.856M178.547 131.57l-4.473 19.39M174.074 150.96l-19.03 5.825M173.54 156.023l-15.224 4.657M188.63 164.53l-14.556-13.57M155.043 156.785l-2.238 9.695" stroke-width="1.2" stroke="#000" stroke-miterlimit="10" fill="none"/><path d="M152.805 166.48l-2.235 9.696M150.57 176.176l7.278 6.785" stroke-width="1.2" stroke="#00f" stroke-miterlimit="10" fill="none"/><path d="M157.848 182.96l7.28 6.786" stroke-width="1.2" stroke="#000" stroke-miterlimit="10" fill="none"/><path d="M155.22 174.11l5.823 5.425" stroke-width="1.2" stroke="#00f" stroke-miterlimit="10" fill="none"/><path d="M161.043 179.535l5.82 5.43" stroke-width="1.2" stroke="#000" stroke-miterlimit="10" fill="none"/><path d="M147.57 170.676h7v11h-7zm0 0" fill="#fff"/><use xlink:href="#c" x="147.57" y="179.339" fill="#00f"/><path d="M165.13 189.746l19.026-5.824M184.156 183.922l4.473-19.39M180.043 180.93l3.578-15.512M188.63 164.53l19.03-5.823M207.66 158.707l14.56 13.57M212.31 156.64l11.643 10.856M212.133 139.316l-4.473 19.39M222.22 172.277l19.026-5.82M241.246 166.457l4.473-19.394M237.133 163.465l3.578-15.516M245.72 147.063l9.514-2.91" stroke-width="1.2" stroke="#000" stroke-miterlimit="10" fill="none"/><path d="M255.234 144.152l9.516-2.91" stroke-width="1.2" stroke="#3cc" stroke-miterlimit="10" fill="none"/><path d="M245.72 147.063l-14.556-13.567" stroke-width="1.2" stroke="#000" stroke-miterlimit="10" fill="none"/><path d="M261.75 135.742h6v11h-6zm0 0" fill="#fff"/><use xlink:href="#g" x="261.75" y="144.405" fill="#3cc"/><path d="M231.164 133.496l-19.03 5.82M230.63 138.555l-15.224 4.656M212.133 139.316l-7.278-6.785" stroke-width="1.2" stroke="#000" stroke-miterlimit="10" fill="none"/><path d="M204.855 132.53l-7.28-6.784" stroke-width="1.2" stroke="#3cc" stroke-miterlimit="10" fill="none"/><path d="M191.574 120.246h6v11h-6zm0 0" fill="#fff"/><use xlink:href="#g" x="191.574" y="128.909" fill="#3cc"/></g></svg>