<svg xmlns="http://www.w3.org/2000/svg" xmlns:xlink="http://www.w3.org/1999/xlink" width="300pt" height="300pt" viewBox="0 0 300 300"><defs><symbol overflow="visible"><path d="M.453 1.594v-7.938h4.5v7.938zm.5-.5h3.5v-6.938h-3.5zm0 0"/></symbol><symbol overflow="visible" id="a"><path d="M.89-6.563h3.766v.75h-2.89v1.938h2.61v.734h-2.61V0H.89zm0 0"/></symbol><symbol overflow="visible" id="b"><path d="M.89-6.563H2.08l2.906 5.485v-5.484h.86V0H4.656L1.75-5.484V0H.89zm0 0"/></symbol><symbol overflow="visible" id="c"><path d="M3.547-5.953c-.65 0-1.164.242-1.547.72-.375.48-.563 1.13-.563 1.952 0 .835.188 1.49.563 1.967.383.48.898.72 1.547.72.644 0 1.156-.24 1.53-.72.376-.476.564-1.132.564-1.968 0-.822-.187-1.474-.562-1.954-.375-.477-.887-.72-1.53-.72zm0-.734c.914 0 1.648.312 2.203.937.55.617.828 1.438.828 2.47 0 1.042-.277 1.87-.828 2.483-.555.617-1.29.922-2.203.922-.93 0-1.668-.305-2.22-.922C.774-1.41.5-2.237.5-3.28c0-1.033.273-1.853.828-2.47.55-.625 1.29-.938 2.22-.938zm0 0"/></symbol><symbol overflow="visible" id="d"><path d="M.89-6.563h.876v2.688H5v-2.688h.89V0H5v-3.125H1.766V0H.89zm0 0"/></symbol></defs><g><path fill="#fff" d="M0 0h300v300H0z"/><path d="M62.633 193.418l-1.758-10.738" stroke-width="1.2" stroke="#3cc" stroke-miterlimit="10" fill="none"/><path d="M60.875 182.68l-1.758-10.74" stroke-width="1.2" stroke="#000" stroke-miterlimit="10" fill="none"/><path d="M59.633 187.918h6v11h-6zm0 0" fill="#fff"/><use xlink:href="#a" x="59.633" y="196.581" fill="#3cc"/><path d="M59.117 171.94l-20.35-7.69M58.895 166.383L42.61 160.23M75.957 158.164l-16.84 13.777M38.766 164.25l-3.516-21.473M35.25 142.777l16.84-13.78M40.176 145.36l13.472-11.024M52.09 128.996l20.355 7.69M72.445 136.688l8.418-6.887" stroke-width="1.2" stroke="#000" stroke-miterlimit="10" fill="none"/><path d="M80.863 129.8l8.422-6.89" stroke-width="1.2" stroke="#3cc" stroke-miterlimit="10" fill="none"/><path d="M72.445 136.688l3.512 21.476M67.742 139.664l2.813 17.18" stroke-width="1.2" stroke="#000" stroke-miterlimit="10" fill="none"/><path d="M86.285 117.41h6v11h-6zm0 0" fill="#fff"/><use xlink:href="#a" x="86.285" y="126.073" fill="#3cc"/><path d="M75.957 158.164l20.356 7.69M96.313 165.855l9.093-5.972" stroke-width="1.2" stroke="#000" stroke-miterlimit="10" fill="none"/><path d="M105.406 159.883l9.094-5.97M102.05 186.844l-2.87-10.492" stroke-width="1.2" stroke="#00f" stroke-miterlimit="10" fill="none"/><path d="M99.18 176.352l-2.868-10.497" stroke-width="1.2" stroke="#000" stroke-miterlimit="10" fill="none"/><path d="M106.414 183.395L104.12 175" stroke-width="1.2" stroke="#00f" stroke-miterlimit="10" fill="none"/><path d="M104.12 175l-2.296-8.395" stroke-width="1.2" stroke="#000" stroke-miterlimit="10" fill="none"/><path d="M114.5 153.914l8.488 6.8" stroke-width="1.2" stroke="#00f" stroke-miterlimit="10" fill="none"/><path d="M122.988 160.715l8.492 6.805M117.793 132.402l-1.648 10.754" stroke-width="1.2" stroke="#000" stroke-miterlimit="10" fill="none"/><path d="M116.145 143.156l-1.645 10.758" stroke-width="1.2" stroke="#00f" stroke-miterlimit="10" fill="none"/><path d="M111.5 148.414h7v11h-7zm0 0" fill="#fff"/><use xlink:href="#b" x="111.5" y="157.077" fill="#00f"/><path d="M131.48 167.52l-3.847 10.175" stroke-width="1.2" stroke="#000" stroke-miterlimit="10" fill="none"/><path d="M127.633 177.695l-3.848 10.176" stroke-width="1.2" stroke="#00f" stroke-miterlimit="10" fill="none"/><path d="M125.922 167.746l-3.078 8.14" stroke-width="1.2" stroke="#000" stroke-miterlimit="10" fill="none"/><path d="M122.844 175.887l-3.078 8.14" stroke-width="1.2" stroke="#00f" stroke-miterlimit="10" fill="none"/><path d="M131.48 167.52l20.274-7.903" stroke-width="1.2" stroke="#000" stroke-miterlimit="10" fill="none"/><path d="M123.785 187.87l-21.734-1.026" stroke-width="1.2" stroke="#00f" stroke-miterlimit="10" fill="none"/><path d="M120.785 182.37h7v11h-7zm0 0" fill="#fff"/><use xlink:href="#b" x="120.785" y="191.034" fill="#00f"/><path d="M99.05 181.344h7v11h-7zm0 0" fill="#fff"/><use xlink:href="#b" x="99.051" y="190.007" fill="#00f"/><path d="M151.754 159.617l3.293-21.508M147.023 156.69l2.633-17.206M155.047 138.11l-16.98-13.606M155.047 138.11l20.273-7.903M138.066 124.504l-20.273 7.898M137.898 130.063l-16.218 6.32M175.32 130.207l16.98 13.606M180.22 127.574l13.585 10.883M178.613 108.7l-3.293 21.507M192.3 143.813l20.274-7.9M212.574 135.914l3.293-21.512M207.844 132.984l2.636-17.203M212.574 135.914l16.98 13.606M215.867 114.402l-16.976-13.605M198.89 100.797l-20.277 7.902M198.72 106.355l-16.22 6.325M178.613 108.7l-16.98-13.61M230.484 151.902l10.137-3.95" stroke-width="1.2" stroke="#000" stroke-miterlimit="10" fill="none"/><path d="M240.62 147.953l10.138-3.95" stroke-width="1.2" stroke="#f00" stroke-miterlimit="10" fill="none"/><path d="M228.625 147.133l10.137-3.95" stroke-width="1.2" stroke="#000" stroke-miterlimit="10" fill="none"/><path d="M238.762 143.184l10.136-3.954" stroke-width="1.2" stroke="#f00" stroke-miterlimit="10" fill="none"/><path d="M229.555 149.52l-1.645 10.753" stroke-width="1.2" stroke="#000" stroke-miterlimit="10" fill="none"/><path d="M227.91 160.273l-1.648 10.754" stroke-width="1.2" stroke="#00f" stroke-miterlimit="10" fill="none"/><path d="M245.828 136.117h8v11h-8zm0 0" fill="#fff"/><use xlink:href="#c" x="245.828" y="144.78" fill="#f00"/><path d="M226.262 171.027l8.488 6.805" stroke-width="1.2" stroke="#00f" stroke-miterlimit="10" fill="none"/><path d="M234.75 177.832l8.492 6.8" stroke-width="1.2" stroke="#000" stroke-miterlimit="10" fill="none"/><path d="M219.262 165.527h14v11h-14zm0 0" fill="#fff"/><g fill="#00f"><use xlink:href="#b" x="219.262" y="174.19"/><use xlink:href="#d" x="226.239" y="174.19"/></g><path d="M243.242 184.633l21.508 3.297M251.145 204.91l-7.903-20.277M264.75 187.93l-13.605 16.98" stroke-width="1.2" stroke="#000" stroke-miterlimit="10" fill="none"/></g></svg>