<svg xmlns="http://www.w3.org/2000/svg" xmlns:xlink="http://www.w3.org/1999/xlink" width="300pt" height="300pt" viewBox="0 0 300 300"><defs><symbol overflow="visible"><path d="M.453 1.594v-7.938h4.5v7.938zm.5-.5h3.5v-6.938h-3.5zm0 0"/></symbol><symbol overflow="visible" id="a"><path d="M4.813-6.344v.86c-.336-.157-.653-.27-.954-.344-.294-.082-.58-.125-.86-.125-.492 0-.867.094-1.125.28-.262.19-.39.454-.39.798 0 .293.085.512.265.656.176.15.504.267.984.36l.547.11c.658.125 1.142.352 1.454.672.32.312.485.734.485 1.265 0 .637-.216 1.122-.642 1.454-.43.325-1.055.485-1.875.485-.312 0-.648-.04-1-.11C1.36-.046 1-.147.625-.296v-.906c.352.2.703.35 1.047.453.35.105.695.156 1.03.156.5 0 .884-.097 1.157-.297.28-.196.42-.485.42-.86 0-.32-.1-.57-.296-.75-.2-.176-.523-.313-.968-.406l-.547-.11C1.81-3.148 1.33-3.36 1.03-3.64.74-3.923.595-4.313.595-4.813c0-.57.203-1.024.61-1.36.405-.344.968-.516 1.687-.516.313 0 .626.032.938.094.32.055.65.137.985.25zm0 0"/></symbol><symbol overflow="visible" id="b"><path d="M3.547-5.953c-.65 0-1.164.242-1.547.72-.375.48-.563 1.13-.563 1.952 0 .835.188 1.49.563 1.967.383.48.898.72 1.547.72.644 0 1.156-.24 1.53-.72.376-.476.564-1.132.564-1.968 0-.822-.187-1.474-.562-1.954-.375-.477-.887-.72-1.53-.72zm0-.734c.914 0 1.648.312 2.203.937.55.617.828 1.438.828 2.47 0 1.042-.277 1.87-.828 2.483-.555.617-1.29.922-2.203.922-.93 0-1.668-.305-2.22-.922C.774-1.41.5-2.237.5-3.28c0-1.033.273-1.853.828-2.47.55-.625 1.29-.938 2.22-.938zm0 0"/></symbol><symbol overflow="visible" id="c"><path d="M.89-6.563h.876v2.688H5v-2.688h.89V0H5v-3.125H1.766V0H.89zm0 0"/></symbol><symbol overflow="visible" id="e"><path d="M.89-6.563H2.08l2.906 5.485v-5.484h.86V0H4.656L1.75-5.484V0H.89zm0 0"/></symbol><symbol overflow="visible"><path d="M.406 1.422V-5.64h4V1.42zM.844.97h3.11v-6.157H.843zm0 0"/></symbol><symbol overflow="visible" id="d"><path d="M1.53-.672h2.767V0H.594v-.672c.29-.3.695-.71 1.22-1.234.518-.532.842-.867.967-1.016.26-.28.44-.52.533-.72.1-.194.156-.39.156-.577 0-.31-.11-.565-.33-.764-.218-.196-.5-.297-.843-.297-.25 0-.516.046-.797.14-.273.085-.563.214-.875.39v-.797c.32-.133.617-.234.89-.297.282-.062.536-.093.766-.093.603 0 1.083.152 1.44.453.362.304.546.703.546 1.203 0 .24-.047.468-.14.686-.095.22-.26.477-.485.766-.074.074-.288.293-.64.656-.344.356-.836.856-1.47 1.5zm0 0"/></symbol><symbol overflow="visible" id="f"><path d="M3.688-5.016v2.172h2.17v.672H3.69V0H3.03v-2.172H.845v-.672H3.03v-2.172zm0 0"/></symbol><symbol overflow="visible" id="g"><path d="M.39-2.516H2.5v.64H.39zm0 0"/></symbol></defs><g><path fill="#fff" d="M0 0h300v300H0z"/><path d="M59.516 132.328l5.27-10.855" stroke-width="1.2" stroke="#cc0" stroke-miterlimit="10" fill="none"/><path d="M64.785 121.473l5.27-10.856" stroke-width="1.2" stroke="#f00" stroke-miterlimit="10" fill="none"/><path d="M54.406 129.848l5.27-10.856" stroke-width="1.2" stroke="#cc0" stroke-miterlimit="10" fill="none"/><path d="M59.676 118.992l5.27-10.855" stroke-width="1.2" stroke="#f00" stroke-miterlimit="10" fill="none"/><path d="M54.406 129.848l-5.27 10.86" stroke-width="1.2" stroke="#cc0" stroke-miterlimit="10" fill="none"/><path d="M49.137 140.707l-5.27 10.856" stroke-width="1.2" stroke="#f00" stroke-miterlimit="10" fill="none"/><path d="M59.516 132.328l-5.27 10.856" stroke-width="1.2" stroke="#cc0" stroke-miterlimit="10" fill="none"/><path d="M54.246 143.184l-5.27 10.855" stroke-width="1.2" stroke="#f00" stroke-miterlimit="10" fill="none"/><path d="M56.96 131.09l-10.855-5.27" stroke-width="1.2" stroke="#cc0" stroke-miterlimit="10" fill="none"/><path d="M46.105 125.82l-10.855-5.27" stroke-width="1.2" stroke="#00f" stroke-miterlimit="10" fill="none"/><path d="M56.96 131.09l10.856 5.27" stroke-width="1.2" stroke="#cc0" stroke-miterlimit="10" fill="none"/><path d="M67.816 136.36l10.856 5.27" stroke-width="1.2" stroke="#000" stroke-miterlimit="10" fill="none"/><path d="M53.96 125.59h6v11h-6zm0 0" fill="#fff"/><use xlink:href="#a" x="53.961" y="134.253" fill="#cc0"/><path d="M63.5 103.88h8v11h-8zm0 0" fill="#fff"/><use xlink:href="#b" x="63.5" y="112.542" fill="#f00"/><path d="M38.422 147.3h8v11h-8zm0 0" fill="#fff"/><use xlink:href="#b" x="38.422" y="155.964" fill="#f00"/><path d="M16.25 112.55h19v16h-19zm0 0" fill="#fff"/><use xlink:href="#c" x="16.25" y="121.214" fill="#00f"/><use xlink:href="#d" x="23.265" y="126.097" fill="#00f"/><use xlink:href="#e" x="28.215" y="121.214" fill="#00f"/><path d="M78.672 141.63l19.984-13.536M83.855 144.977l15.985-10.825M80.402 165.7l-1.73-24.07M98.656 128.094l21.71 10.54M120.367 138.633l1.727 24.074M114.875 141.45l1.383 19.257M122.094 162.707l10.855 5.27" stroke-width="1.2" stroke="#000" stroke-miterlimit="10" fill="none"/><path d="M132.95 167.977l10.855 5.27" stroke-width="1.2" stroke="#00f" stroke-miterlimit="10" fill="none"/><path d="M122.094 162.707l-19.98 13.53" stroke-width="1.2" stroke="#000" stroke-miterlimit="10" fill="none"/><path d="M143.805 173.246l19.984-13.535" stroke-width="1.2" stroke="#00f" stroke-miterlimit="10" fill="none"/><path d="M136.805 167.746h14v11h-14zm0 0" fill="#fff"/><g fill="#00f"><use xlink:href="#e" x="136.805" y="176.409"/><use xlink:href="#c" x="143.782" y="176.409"/></g><path d="M163.79 159.71l10.855 5.27" stroke-width="1.2" stroke="#00f" stroke-miterlimit="10" fill="none"/><path d="M174.645 164.98l10.855 5.27" stroke-width="1.2" stroke="#000" stroke-miterlimit="10" fill="none"/><path d="M163.48 165.875l8.684 4.215" stroke-width="1.2" stroke="#00f" stroke-miterlimit="10" fill="none"/><path d="M172.164 170.09l8.684 4.215" stroke-width="1.2" stroke="#000" stroke-miterlimit="10" fill="none"/><path d="M160.79 154.21h7v11h-7zm0 0" fill="#fff"/><use xlink:href="#e" x="160.789" y="162.874" fill="#00f"/><path d="M185.5 170.25l21.29-11.367M185.5 170.25l4.234 23.762M206.79 158.883l17.39 16.73M212.465 156.46l13.914 13.388M212.582 135.453l-5.793 23.43M224.18 175.613l-5.27 10.856" stroke-width="1.2" stroke="#000" stroke-miterlimit="10" fill="none"/><path d="M218.91 186.47l-5.27 10.854" stroke-width="1.2" stroke="#00f" stroke-miterlimit="10" fill="none"/><path d="M224.18 175.613l23.187-6.695" stroke-width="1.2" stroke="#000" stroke-miterlimit="10" fill="none"/><path d="M213.64 197.324l-11.952-1.656" stroke-width="1.2" stroke="#00f" stroke-miterlimit="10" fill="none"/><path d="M201.688 195.668l-11.954-1.656" stroke-width="1.2" stroke="#000" stroke-miterlimit="10" fill="none"/><path d="M206.64 191.824h14v11h-14zm0 0" fill="#fff"/><g fill="#00f"><use xlink:href="#e" x="206.641" y="200.487"/><use xlink:href="#c" x="213.618" y="200.487"/></g><path d="M187.688 192.043l-8.364 8.695" stroke-width="1.2" stroke="#000" stroke-miterlimit="10" fill="none"/><path d="M179.324 200.738l-8.367 8.696" stroke-width="1.2" stroke="#f00" stroke-miterlimit="10" fill="none"/><path d="M191.78 195.98l-8.366 8.696" stroke-width="1.2" stroke="#000" stroke-miterlimit="10" fill="none"/><path d="M183.414 204.676l-8.363 8.695" stroke-width="1.2" stroke="#f00" stroke-miterlimit="10" fill="none"/><path d="M165.004 205.902h8v11h-8zm0 0" fill="#fff"/><use xlink:href="#b" x="165.004" y="214.565" fill="#f00"/><path d="M247.367 168.918l5.793-23.43M242.434 165.21l4.636-18.74M253.16 145.488l-17.39-16.73M235.77 128.758l2.898-11.715" stroke-width="1.2" stroke="#000" stroke-miterlimit="10" fill="none"/><path d="M238.668 117.043l2.894-11.715" stroke-width="1.2" stroke="#00f" stroke-miterlimit="10" fill="none"/><path d="M235.77 128.758l-23.188 6.695M235.027 134.883l-18.55 5.355" stroke-width="1.2" stroke="#000" stroke-miterlimit="10" fill="none"/><path d="M243.53 103.285l-8.694-8.367" stroke-width="1.2" stroke="#00f" stroke-miterlimit="10" fill="none"/><path d="M234.836 94.918l-8.695-8.367" stroke-width="1.2" stroke="#f00" stroke-miterlimit="10" fill="none"/><path d="M239.594 107.375l-8.696-8.367" stroke-width="1.2" stroke="#00f" stroke-miterlimit="10" fill="none"/><path d="M230.898 99.008l-8.695-8.363" stroke-width="1.2" stroke="#f00" stroke-miterlimit="10" fill="none"/><path d="M241.563 105.328l11.593-3.348" stroke-width="1.2" stroke="#00f" stroke-miterlimit="10" fill="none"/><path d="M253.156 101.98l11.594-3.347" stroke-width="1.2" stroke="#f00" stroke-miterlimit="10" fill="none"/><path d="M234.563 97.828h14v15h-14zm0 0" fill="#fff"/><use xlink:href="#e" x="234.563" y="109.93" fill="#00f"/><use xlink:href="#f" x="241.54" y="105.047" fill="#00f"/><path d="M216.172 83.098h8v11h-8zm0 0" fill="#fff"/><use xlink:href="#b" x="216.172" y="91.761" fill="#f00"/><path d="M259.75 91.133h11v15h-11zm0 0" fill="#fff"/><use xlink:href="#b" x="259.75" y="103.234" fill="#f00"/><use xlink:href="#g" x="267.092" y="98.352" fill="#f00"/><path d="M212.582 135.453l-17.39-16.73M102.113 176.238l-21.71-10.54M102.422 170.078l-17.37-8.433" stroke-width="1.2" stroke="#000" stroke-miterlimit="10" fill="none"/></g></svg>