<svg xmlns="http://www.w3.org/2000/svg" xmlns:xlink="http://www.w3.org/1999/xlink" width="300pt" height="300pt" viewBox="0 0 300 300"><defs><symbol overflow="visible"><path d="M.453 1.594v-7.938h4.5v7.938zm.5-.5h3.5v-6.938h-3.5zm0 0"/></symbol><symbol overflow="visible" id="a"><path d="M3.547-5.953c-.65 0-1.164.242-1.547.72-.375.48-.563 1.13-.563 1.952 0 .835.188 1.49.563 1.967.383.48.898.72 1.547.72.644 0 1.156-.24 1.53-.72.376-.476.564-1.132.564-1.968 0-.822-.187-1.474-.562-1.954-.375-.477-.887-.72-1.53-.72zm0-.734c.914 0 1.648.312 2.203.937.55.617.828 1.438.828 2.47 0 1.042-.277 1.87-.828 2.483-.555.617-1.29.922-2.203.922-.93 0-1.668-.305-2.22-.922C.774-1.41.5-2.237.5-3.28c0-1.033.273-1.853.828-2.47.55-.625 1.29-.938 2.22-.938zm0 0"/></symbol><symbol overflow="visible" id="b"><path d="M.89-6.563H2.08l2.906 5.485v-5.484h.86V0H4.656L1.75-5.484V0H.89zm0 0"/></symbol><symbol overflow="visible" id="c"><path d="M.89-6.563h.876v2.688H5v-2.688h.89V0H5v-3.125H1.766V0H.89zm0 0"/></symbol></defs><g><path fill="#fff" d="M0 0h300v300H0z"/><path d="M36.402 124.852l9.52 4.828" stroke-width="1.2" stroke="#f00" stroke-miterlimit="10" fill="none"/><path d="M45.922 129.68l9.52 4.832" stroke-width="1.2" stroke="#00f" stroke-miterlimit="10" fill="none"/><path d="M36.402 124.852l-.574-10.66" stroke-width="1.2" stroke="#f00" stroke-miterlimit="10" fill="none"/><path d="M35.828 114.19l-.578-10.66" stroke-width="1.2" stroke="#000" stroke-miterlimit="10" fill="none"/><path d="M32.402 119.352h8v11h-8zm0 0" fill="#fff"/><use xlink:href="#a" x="32.402" y="128.015" fill="#f00"/><path d="M55.44 134.512l.576 10.656" stroke-width="1.2" stroke="#00f" stroke-miterlimit="10" fill="none"/><path d="M56.016 145.168l.578 10.66" stroke-width="1.2" stroke="#000" stroke-miterlimit="10" fill="none"/><path d="M48.44 129.012h14v11h-14zm0 0" fill="#fff"/><g fill="#00f"><use xlink:href="#b" x="48.441" y="137.675"/><use xlink:href="#c" x="55.419" y="137.675"/></g><path d="M55.223 153.723l-8.946 5.832" stroke-width="1.2" stroke="#000" stroke-miterlimit="10" fill="none"/><path d="M46.277 159.555l-8.94 5.828" stroke-width="1.2" stroke="#f00" stroke-miterlimit="10" fill="none"/><path d="M57.965 157.934l-8.942 5.828" stroke-width="1.2" stroke="#000" stroke-miterlimit="10" fill="none"/><path d="M49.023 163.762l-8.945 5.828" stroke-width="1.2" stroke="#f00" stroke-miterlimit="10" fill="none"/><path d="M56.594 155.828l19.04 9.66" stroke-width="1.2" stroke="#000" stroke-miterlimit="10" fill="none"/><path d="M30.707 161.984h8v11h-8zm0 0" fill="#fff"/><use xlink:href="#a" x="30.707" y="170.647" fill="#f00"/><path d="M75.633 165.488l17.883-11.656M80.164 168.53l14.31-9.323M76.785 186.81l-1.152-21.322M93.516 153.832l19.04 9.66M112.555 163.492l8.945-5.828" stroke-width="1.2" stroke="#000" stroke-miterlimit="10" fill="none"/><path d="M121.5 157.664l8.94-5.828" stroke-width="1.2" stroke="#00f" stroke-miterlimit="10" fill="none"/><path d="M112.555 163.492l1.152 21.32M107.656 165.895l.922 17.054" stroke-width="1.2" stroke="#000" stroke-miterlimit="10" fill="none"/><path d="M130.44 151.836l9.52 4.832" stroke-width="1.2" stroke="#00f" stroke-miterlimit="10" fill="none"/><path d="M139.96 156.668l9.52 4.828" stroke-width="1.2" stroke="#000" stroke-miterlimit="10" fill="none"/><path d="M123.44 146.336h14v11h-14zm0 0" fill="#fff"/><g fill="#00f"><use xlink:href="#b" x="123.441" y="154.999"/><use xlink:href="#c" x="130.419" y="154.999"/></g><path d="M149.48 161.496l.575 10.66" stroke-width="1.2" stroke="#000" stroke-miterlimit="10" fill="none"/><path d="M150.055 172.156l.578 10.66" stroke-width="1.2" stroke="#00f" stroke-miterlimit="10" fill="none"/><path d="M154.61 163.355l.46 8.528" stroke-width="1.2" stroke="#000" stroke-miterlimit="10" fill="none"/><path d="M155.07 171.883l.46 8.527" stroke-width="1.2" stroke="#00f" stroke-miterlimit="10" fill="none"/><path d="M167.363 149.84l-17.883 11.656" stroke-width="1.2" stroke="#000" stroke-miterlimit="10" fill="none"/><path d="M150.633 182.816l9.52 4.83" stroke-width="1.2" stroke="#00f" stroke-miterlimit="10" fill="none"/><path d="M160.152 187.645l9.52 4.832" stroke-width="1.2" stroke="#000" stroke-miterlimit="10" fill="none"/><path d="M147.633 177.316h7v11h-7zm0 0" fill="#fff"/><use xlink:href="#b" x="147.633" y="185.979" fill="#00f"/><path d="M169.672 192.477l8.94-5.83" stroke-width="1.2" stroke="#000" stroke-miterlimit="10" fill="none"/><path d="M178.613 186.648l8.942-5.832" stroke-width="1.2" stroke="#00f" stroke-miterlimit="10" fill="none"/><path d="M168.715 187.102l7.156-4.665" stroke-width="1.2" stroke="#000" stroke-miterlimit="10" fill="none"/><path d="M175.87 182.438l7.153-4.66M187.555 180.816l-.575-10.656" stroke-width="1.2" stroke="#00f" stroke-miterlimit="10" fill="none"/><path d="M186.98 170.16l-.578-10.66" stroke-width="1.2" stroke="#000" stroke-miterlimit="10" fill="none"/><path d="M184.555 175.316h7v11h-7zm0 0" fill="#fff"/><use xlink:href="#b" x="184.555" y="183.979" fill="#00f"/><path d="M186.402 159.5l7.536-7.56" stroke-width="1.2" stroke="#000" stroke-miterlimit="10" fill="none"/><path d="M193.938 151.94l7.535-7.56" stroke-width="1.2" stroke="#00f" stroke-miterlimit="10" fill="none"/><path d="M167.363 149.84l19.04 9.66M166.996 155.285l15.23 7.73" stroke-width="1.2" stroke="#000" stroke-miterlimit="10" fill="none"/><path d="M201.473 144.38l-9.723-19.01M201.473 144.38l10.547 1.65" stroke-width="1.2" stroke="#00f" stroke-miterlimit="10" fill="none"/><path d="M212.02 146.03l10.546 1.654" stroke-width="1.2" stroke="#000" stroke-miterlimit="10" fill="none"/><path d="M198.473 138.88h7v11h-7zm0 0" fill="#fff"/><use xlink:href="#b" x="198.473" y="147.542" fill="#00f"/><path d="M191.75 125.37l-10.54 1.69" stroke-width="1.2" stroke="#00f" stroke-miterlimit="10" fill="none"/><path d="M181.21 127.06l-10.538 1.686" stroke-width="1.2" stroke="#000" stroke-miterlimit="10" fill="none"/><path d="M190.438 130.672l-8.434 1.348" stroke-width="1.2" stroke="#00f" stroke-miterlimit="10" fill="none"/><path d="M182.004 132.02l-8.434 1.35" stroke-width="1.2" stroke="#000" stroke-miterlimit="10" fill="none"/><path d="M188.75 119.87h7v11h-7zm0 0" fill="#fff"/><use xlink:href="#b" x="188.75" y="128.534" fill="#00f"/><path d="M170.672 128.746l-3.31 21.094M222.566 147.684l7.684 19.918M228.02 147.867l6.148 15.934M235.973 131.07l-13.407 16.614M230.25 167.602l21.094 3.304M251.344 170.906l13.406-16.613M248.773 166.09L259.5 152.8M264.75 154.293l-7.684-19.918M257.066 134.375l-21.093-3.305M254.18 139.008l-16.875-2.645M113.707 184.813L95.824 196.47M113.707 184.813l19.04 9.66M95.824 196.47l-19.04-9.66M96.19 191.023l-15.23-7.73" stroke-width="1.2" stroke="#000" stroke-miterlimit="10" fill="none"/></g></svg>