<svg xmlns="http://www.w3.org/2000/svg" xmlns:xlink="http://www.w3.org/1999/xlink" width="300pt" height="300pt" viewBox="0 0 300 300"><defs><symbol overflow="visible"><path d="M.453 1.594v-7.938h4.5v7.938zm.5-.5h3.5v-6.938h-3.5zm0 0"/></symbol><symbol overflow="visible" id="a"><path d="M4.813-6.344v.86c-.336-.157-.653-.27-.954-.344-.294-.082-.58-.125-.86-.125-.492 0-.867.094-1.125.28-.262.19-.39.454-.39.798 0 .293.085.512.265.656.176.15.504.267.984.36l.547.11c.658.125 1.142.352 1.454.672.32.312.485.734.485 1.265 0 .637-.216 1.122-.642 1.454-.43.325-1.055.485-1.875.485-.312 0-.648-.04-1-.11C1.36-.046 1-.147.625-.296v-.906c.352.2.703.35 1.047.453.35.105.695.156 1.03.156.5 0 .884-.097 1.157-.297.28-.196.42-.485.42-.86 0-.32-.1-.57-.296-.75-.2-.176-.523-.313-.968-.406l-.547-.11C1.81-3.148 1.33-3.36 1.03-3.64.74-3.923.595-4.313.595-4.813c0-.57.203-1.024.61-1.36.405-.344.968-.516 1.687-.516.313 0 .626.032.938.094.32.055.65.137.985.25zm0 0"/></symbol><symbol overflow="visible" id="b"><path d="M.89-6.563H2.08l2.906 5.485v-5.484h.86V0H4.656L1.75-5.484V0H.89zm0 0"/></symbol><symbol overflow="visible" id="d"><path d="M3.547-5.953c-.65 0-1.164.242-1.547.72-.375.48-.563 1.13-.563 1.952 0 .835.188 1.49.563 1.967.383.48.898.72 1.547.72.644 0 1.156-.24 1.53-.72.376-.476.564-1.132.564-1.968 0-.822-.187-1.474-.562-1.954-.375-.477-.887-.72-1.53-.72zm0-.734c.914 0 1.648.312 2.203.937.55.617.828 1.438.828 2.47 0 1.042-.277 1.87-.828 2.483-.555.617-1.29.922-2.203.922-.93 0-1.668-.305-2.22-.922C.774-1.41.5-2.237.5-3.28c0-1.033.273-1.853.828-2.47.55-.625 1.29-.938 2.22-.938zm0 0"/></symbol><symbol overflow="visible" id="f"><path d="M.89-6.563h.876v2.688H5v-2.688h.89V0H5v-3.125H1.766V0H.89zm0 0"/></symbol><symbol overflow="visible"><path d="M.406 1.422V-5.64h4V1.42zM.844.97h3.11v-6.157H.843zm0 0"/></symbol><symbol overflow="visible" id="c"><path d="M3.688-5.016v2.172h2.17v.672H3.69V0H3.03v-2.172H.845v-.672H3.03v-2.172zm0 0"/></symbol><symbol overflow="visible" id="e"><path d="M.39-2.516H2.5v.64H.39zm0 0"/></symbol></defs><g><path fill="#fff" d="M0 0h300v300H0z"/><path d="M86.133 137.52l-8.192 6.082" stroke-width="1.2" stroke="#cc0" stroke-miterlimit="10" fill="none"/><path d="M77.94 143.602l-8.194 6.085M102.766 149.34l-8.317-5.91" stroke-width="1.2" stroke="#000" stroke-miterlimit="10" fill="none"/><path d="M94.45 143.43l-8.317-5.91" stroke-width="1.2" stroke="#cc0" stroke-miterlimit="10" fill="none"/><path d="M83.133 132.02h6v11h-6zm0 0" fill="#fff"/><use xlink:href="#a" x="83.133" y="140.683" fill="#cc0"/><path d="M69.746 149.688l-9.734-3.05" stroke-width="1.2" stroke="#000" stroke-miterlimit="10" fill="none"/><path d="M60.012 146.637l-9.74-3.055" stroke-width="1.2" stroke="#00f" stroke-miterlimit="10" fill="none"/><path d="M69.746 149.688l6.512 19.343M74.95 150.09l5.206 15.472" stroke-width="1.2" stroke="#000" stroke-miterlimit="10" fill="none"/><path d="M48.648 141.816l-7.51 6.907" stroke-width="1.2" stroke="#00f" stroke-miterlimit="10" fill="none"/><path d="M41.137 148.723l-7.512 6.906" stroke-width="1.2" stroke="#f00" stroke-miterlimit="10" fill="none"/><path d="M51.898 145.352l-7.51 6.906" stroke-width="1.2" stroke="#00f" stroke-miterlimit="10" fill="none"/><path d="M44.387 152.258l-7.512 6.906" stroke-width="1.2" stroke="#f00" stroke-miterlimit="10" fill="none"/><path d="M50.273 143.582l-2.226-9.957" stroke-width="1.2" stroke="#00f" stroke-miterlimit="10" fill="none"/><path d="M48.047 133.625l-2.227-9.957" stroke-width="1.2" stroke="#f00" stroke-miterlimit="10" fill="none"/><path d="M43.273 136.082h14v15h-14zm0 0" fill="#fff"/><use xlink:href="#b" x="43.273" y="148.184" fill="#00f"/><use xlink:href="#c" x="50.251" y="143.301" fill="#00f"/><path d="M27.25 151.898h8v11h-8zm0 0" fill="#fff"/><use xlink:href="#d" x="27.25" y="160.562" fill="#f00"/><path d="M40.82 116.168h11v15h-11zm0 0" fill="#fff"/><use xlink:href="#e" x="40.82" y="123.387" fill="#f00"/><use xlink:href="#d" x="43.628" y="128.27" fill="#f00"/><path d="M76.258 169.03l10.203-.108" stroke-width="1.2" stroke="#000" stroke-miterlimit="10" fill="none"/><path d="M86.46 168.922l10.204-.106M96.664 168.816l3.05-9.738" stroke-width="1.2" stroke="#00f" stroke-miterlimit="10" fill="none"/><path d="M99.715 159.078l3.05-9.738" stroke-width="1.2" stroke="#000" stroke-miterlimit="10" fill="none"/><path d="M92.69 165.434l2.443-7.793" stroke-width="1.2" stroke="#00f" stroke-miterlimit="10" fill="none"/><path d="M95.133 157.64l2.44-7.788" stroke-width="1.2" stroke="#000" stroke-miterlimit="10" fill="none"/><path d="M93.664 163.316h7v11h-7zm0 0" fill="#fff"/><use xlink:href="#b" x="93.664" y="171.979" fill="#00f"/><path d="M102.766 149.34l9.67-3.254" stroke-width="1.2" stroke="#000" stroke-miterlimit="10" fill="none"/><path d="M112.438 146.086l9.67-3.254M122.11 142.832l7.656 6.746" stroke-width="1.2" stroke="#00f" stroke-miterlimit="10" fill="none"/><path d="M129.766 149.578l7.652 6.75" stroke-width="1.2" stroke="#000" stroke-miterlimit="10" fill="none"/><path d="M115.11 137.332h14v11h-14zm0 0" fill="#fff"/><g fill="#00f"><use xlink:href="#b" x="115.109" y="145.995"/><use xlink:href="#f" x="122.087" y="145.995"/></g><path d="M135.066 155.852l-2.02 10.003" stroke-width="1.2" stroke="#000" stroke-miterlimit="10" fill="none"/><path d="M133.047 165.855l-2.016 10.004" stroke-width="1.2" stroke="#f00" stroke-miterlimit="10" fill="none"/><path d="M139.773 156.8l-2.015 10.005" stroke-width="1.2" stroke="#000" stroke-miterlimit="10" fill="none"/><path d="M137.758 166.805l-2.02 10.004" stroke-width="1.2" stroke="#f00" stroke-miterlimit="10" fill="none"/><path d="M137.418 156.328l9.672-3.258" stroke-width="1.2" stroke="#000" stroke-miterlimit="10" fill="none"/><path d="M147.09 153.07l9.672-3.254" stroke-width="1.2" stroke="#00f" stroke-miterlimit="10" fill="none"/><path d="M129.387 170.832h8v11h-8zm0 0" fill="#fff"/><use xlink:href="#d" x="129.387" y="179.495" fill="#f00"/><path d="M156.762 149.816l7.656 6.75" stroke-width="1.2" stroke="#00f" stroke-miterlimit="10" fill="none"/><path d="M164.418 156.566l7.652 6.746" stroke-width="1.2" stroke="#000" stroke-miterlimit="10" fill="none"/><path d="M149.762 144.316h14v11h-14zm0 0" fill="#fff"/><g fill="#00f"><use xlink:href="#b" x="149.762" y="152.979"/><use xlink:href="#f" x="156.739" y="152.979"/></g><path d="M172.07 163.313l19.344-6.508M191.414 156.805l15.31 13.496M196.12 154.55l12.247 10.798M195.445 136.797l-4.03 20.008M206.723 170.3l19.343-6.51M226.066 163.79l4.032-20.005M221.762 160.84l3.226-16.004M230.098 143.785l9.672-3.254" stroke-width="1.2" stroke="#000" stroke-miterlimit="10" fill="none"/><path d="M239.77 140.53l9.67-3.257" stroke-width="1.2" stroke="#f00" stroke-miterlimit="10" fill="none"/><path d="M230.098 143.785l-15.31-13.496" stroke-width="1.2" stroke="#000" stroke-miterlimit="10" fill="none"/><path d="M249.44 137.273l7.654 6.75" stroke-width="1.2" stroke="#f00" stroke-miterlimit="10" fill="none"/><path d="M257.094 144.023l7.656 6.747" stroke-width="1.2" stroke="#000" stroke-miterlimit="10" fill="none"/><path d="M245.44 131.773h8v11h-8zm0 0" fill="#fff"/><use xlink:href="#d" x="245.441" y="140.437" fill="#f00"/><path d="M214.79 130.29l-19.345 6.507M214.387 135.492l-15.473 5.207" stroke-width="1.2" stroke="#000" stroke-miterlimit="10" fill="none"/></g></svg>