<svg xmlns="http://www.w3.org/2000/svg" xmlns:xlink="http://www.w3.org/1999/xlink" width="300pt" height="300pt" viewBox="0 0 300 300"><defs><symbol overflow="visible"><path d="M.547 1.938V-7.75h5.5v9.688zm.625-.61h4.266v-8.47H1.171zm0 0"/></symbol><symbol overflow="visible" id="a"><path d="M7.078-7.406v1.156c-.367-.344-.758-.598-1.172-.766-.406-.164-.843-.25-1.312-.25-.918 0-1.62.282-2.11.844-.48.555-.718 1.36-.718 2.422 0 1.055.238 1.86.718 2.422.49.562 1.192.844 2.11.844.468 0 .906-.082 1.312-.25.414-.164.805-.422 1.172-.766v1.125c-.375.262-.777.46-1.203.594-.418.124-.867.186-1.344.186-1.21 0-2.163-.367-2.858-1.11C.972-1.703.625-2.718.625-4c0-1.29.348-2.305 1.047-3.047.695-.75 1.648-1.125 2.86-1.125.476 0 .93.07 1.36.203.424.126.82.314 1.186.564zm0 0"/></symbol><symbol overflow="visible" id="b"><path d="M1.03-8.36h1V0h-1zm0 0"/></symbol><symbol overflow="visible" id="c"><path d="M1.078-8.016h1.47l3.546 6.704v-6.704h1.062V0H5.688L2.124-6.703V0H1.078zm0 0"/></symbol><symbol overflow="visible" id="d"><path d="M1.078-8.016h1.094v3.282H6.11v-3.282h1.077V0H6.11v-3.813H2.17V0H1.078zm0 0"/></symbol><symbol overflow="visible" id="e"><path d="M1.078-8.016h4.61v.907H2.171v2.36h3.172v.922H2.172V0H1.078zm0 0"/></symbol></defs><g><path fill="#fff" d="M0 0h300v300H0z"/><path d="M112.508 234.348l-12.88-.618" stroke-width="1.2" stroke="#0c0" stroke-miterlimit="10" fill="none"/><path d="M99.63 233.73l-12.876-.62" stroke-width="1.2" stroke="#000" stroke-miterlimit="10" fill="none"/><path d="M107.508 227.848h11v13h-11zm0 0" fill="#fff"/><g fill="#0c0"><use xlink:href="#a" x="107.508" y="237.749"/><use xlink:href="#b" x="114.959" y="237.749"/></g><path d="M86.754 233.11L72.81 254.792M80.258 231.996l-11.156 17.348M74.95 210.19l11.804 22.92M72.81 254.793l-25.755-1.234M47.055 253.56L35.25 230.636M51.27 248.488l-9.446-18.336M35.25 230.637l13.945-21.684M49.195 208.953l-5.902-11.457" stroke-width="1.2" stroke="#000" stroke-miterlimit="10" fill="none"/><path d="M43.293 197.496l-5.902-11.46" stroke-width="1.2" stroke="#0c0" stroke-miterlimit="10" fill="none"/><path d="M49.195 208.953l25.754 1.238M51.48 215.137l20.602.988" stroke-width="1.2" stroke="#000" stroke-miterlimit="10" fill="none"/><path d="M26.39 179.535h11v13h-11zm0 0" fill="#fff"/><g fill="#0c0"><use xlink:href="#a" x="26.391" y="189.437"/><use xlink:href="#b" x="33.842" y="189.437"/></g><path d="M74.95 210.19l13.945-21.682M88.895 188.508l-4.672-12.016" stroke-width="1.2" stroke="#000" stroke-miterlimit="10" fill="none"/><path d="M84.223 176.492L79.55 164.48M114.637 187.043l-12.87.734" stroke-width="1.2" stroke="#00f" stroke-miterlimit="10" fill="none"/><path d="M101.766 187.777l-12.87.73" stroke-width="1.2" stroke="#000" stroke-miterlimit="10" fill="none"/><path d="M111.72 181.133l-10.298.586" stroke-width="1.2" stroke="#00f" stroke-miterlimit="10" fill="none"/><path d="M101.422 181.72l-10.297.585" stroke-width="1.2" stroke="#000" stroke-miterlimit="10" fill="none"/><path d="M79.55 164.48l9.98-8.156" stroke-width="1.2" stroke="#00f" stroke-miterlimit="10" fill="none"/><path d="M89.53 156.324l9.986-8.16" stroke-width="1.2" stroke="#000" stroke-miterlimit="10" fill="none"/><path d="M71.55 157.98h17v13h-17zm0 0" fill="#fff"/><g fill="#00f"><use xlink:href="#c" x="71.551" y="167.882"/><use xlink:href="#d" x="79.534" y="167.882"/></g><path d="M99.516 148.164l21.683 13.95M98.402 154.664l17.348 11.156M99.516 148.164l-1.46-25.738M121.2 162.113l-3.282 12.465" stroke-width="1.2" stroke="#000" stroke-miterlimit="10" fill="none"/><path d="M117.918 174.578l-3.28 12.465" stroke-width="1.2" stroke="#00f" stroke-miterlimit="10" fill="none"/><path d="M121.2 162.113l24.027-9.343" stroke-width="1.2" stroke="#000" stroke-miterlimit="10" fill="none"/><path d="M110.637 180.543h8v13h-8zm0 0" fill="#fff"/><use xlink:href="#c" x="110.637" y="190.444" fill="#00f"/><path d="M145.227 152.77l10.054 8.066" stroke-width="1.2" stroke="#000" stroke-miterlimit="10" fill="none"/><path d="M155.28 160.836l10.056 8.07" stroke-width="1.2" stroke="#00f" stroke-miterlimit="10" fill="none"/><path d="M151.035 149.648l8.043 6.457" stroke-width="1.2" stroke="#000" stroke-miterlimit="10" fill="none"/><path d="M159.078 156.105l8.043 6.454" stroke-width="1.2" stroke="#00f" stroke-miterlimit="10" fill="none"/><path d="M149.148 127.285l-3.92 25.485" stroke-width="1.2" stroke="#000" stroke-miterlimit="10" fill="none"/><path d="M165.336 168.906l12.012-4.676" stroke-width="1.2" stroke="#00f" stroke-miterlimit="10" fill="none"/><path d="M177.348 164.23l12.015-4.67" stroke-width="1.2" stroke="#000" stroke-miterlimit="10" fill="none"/><path d="M161.336 162.406h8v13h-8zm0 0" fill="#fff"/><use xlink:href="#c" x="161.336" y="172.308" fill="#00f"/><path d="M189.363 159.56l11.512 5.803" stroke-width="1.2" stroke="#000" stroke-miterlimit="10" fill="none"/><path d="M200.875 165.363l11.512 5.8" stroke-width="1.2" stroke="#00f" stroke-miterlimit="10" fill="none"/><path d="M193.285 134.078l-3.922 25.48M186.898 135.703l-3.14 20.387" stroke-width="1.2" stroke="#000" stroke-miterlimit="10" fill="none"/><path d="M212.387 171.164l9.074-9.156" stroke-width="1.2" stroke="#00f" stroke-miterlimit="10" fill="none"/><path d="M221.46 162.008l9.075-9.156" stroke-width="1.2" stroke="#000" stroke-miterlimit="10" fill="none"/><path d="M212.387 171.164l2.07 12.723" stroke-width="1.2" stroke="#00f" stroke-miterlimit="10" fill="none"/><path d="M214.457 183.887l2.074 12.722" stroke-width="1.2" stroke="#000" stroke-miterlimit="10" fill="none"/><path d="M208.387 164.664h8v13h-8zm0 0" fill="#fff"/><use xlink:href="#c" x="208.387" y="174.565" fill="#00f"/><path d="M230.535 152.852l-5.902-11.457" stroke-width="1.2" stroke="#000" stroke-miterlimit="10" fill="none"/><path d="M224.633 141.395l-5.903-11.46" stroke-width="1.2" stroke="#00f" stroke-miterlimit="10" fill="none"/><path d="M223.96 153.34l-4.718-9.168" stroke-width="1.2" stroke="#000" stroke-miterlimit="10" fill="none"/><path d="M219.242 144.172l-4.722-9.168M218.73 129.934l-12.722 2.07" stroke-width="1.2" stroke="#00f" stroke-miterlimit="10" fill="none"/><path d="M206.008 132.004l-12.723 2.074" stroke-width="1.2" stroke="#000" stroke-miterlimit="10" fill="none"/><path d="M214.73 123.434h8v13h-8zm0 0" fill="#fff"/><use xlink:href="#c" x="214.73" y="133.335" fill="#00f"/><path d="M193.285 134.078l-20.11-16.137M173.176 117.94l-24.028 9.345M172.973 124.527l-19.223 7.477M216.53 196.61l24.11 9.132M240.64 205.742l24.11 9.133M240.64 205.742l-9.132 24.11M240.64 205.742l9.133-24.11M98.055 122.426l21.558-14.137M96.883 115.938l17.25-11.31M75.03 110.82l23.025 11.606M119.613 108.29l-1.46-25.74M118.152 82.55L95.13 70.946M113.117 86.805L94.7 77.523M95.13 70.945l-.732-12.87" stroke-width="1.2" stroke="#000" stroke-miterlimit="10" fill="none"/><path d="M94.398 58.074l-.734-12.867" stroke-width="1.2" stroke="#3cc" stroke-miterlimit="10" fill="none"/><path d="M95.13 70.945L73.565 85.082" stroke-width="1.2" stroke="#000" stroke-miterlimit="10" fill="none"/><path d="M90.664 38.707h7v13h-7zm0 0" fill="#fff"/><use xlink:href="#e" x="90.664" y="48.608" fill="#3cc"/><path d="M73.566 85.082l1.465 25.738M79.77 87.313l1.17 20.59" stroke-width="1.2" stroke="#000" stroke-miterlimit="10" fill="none"/></g></svg>