<svg xmlns="http://www.w3.org/2000/svg" xmlns:xlink="http://www.w3.org/1999/xlink" width="300pt" height="300pt" viewBox="0 0 300 300"><defs><symbol overflow="visible"><path d="M.547 1.938V-7.75h5.5v9.688zm.625-.61h4.266v-8.47H1.171zm0 0"/></symbol><symbol overflow="visible" id="a"><path d="M1.078-8.016h4.61v.907H2.171v2.36h3.172v.922H2.172V0H1.078zm0 0"/></symbol><symbol overflow="visible" id="b"><path d="M1.078-8.016h1.47l3.546 6.704v-6.704h1.062V0H5.688L2.124-6.703V0H1.078zm0 0"/></symbol><symbol overflow="visible" id="c"><path d="M1.078-8.016h1.094v3.282H6.11v-3.282h1.077V0H6.11v-3.813H2.17V0H1.078zm0 0"/></symbol></defs><g><path fill="#fff" d="M0 0h300v300H0z"/><path d="M35.25 154.262l7.586 10.43" stroke-width="1.2" stroke="#3cc" stroke-miterlimit="10" fill="none"/><path d="M42.836 164.69l7.582 10.427" stroke-width="1.2" stroke="#000" stroke-miterlimit="10" fill="none"/><path d="M28.25 147.762h7v13h-7zm0 0" fill="#fff"/><use xlink:href="#a" x="28.25" y="157.663" fill="#3cc"/><path d="M50.418 175.117L39.94 198.684M54.918 179.94l-8.383 18.853M76.066 172.41l-25.648 2.707M39.94 198.684l15.173 20.855M55.113 219.54l-5.238 11.784" stroke-width="1.2" stroke="#000" stroke-miterlimit="10" fill="none"/><path d="M49.875 231.324l-5.238 11.78" stroke-width="1.2" stroke="#3cc" stroke-miterlimit="10" fill="none"/><path d="M55.113 219.54l25.645-2.708M57.04 213.234l20.52-2.168" stroke-width="1.2" stroke="#000" stroke-miterlimit="10" fill="none"/><path d="M37.637 236.605h7v13h-7zm0 0" fill="#fff"/><use xlink:href="#a" x="37.637" y="246.507" fill="#3cc"/><path d="M80.758 216.832l10.48-23.566M91.238 193.266L76.066 172.41M84.813 194.75l-12.137-16.688M76.066 172.41l10.477-23.566M86.543 148.844L80.09 137.68" stroke-width="1.2" stroke="#000" stroke-miterlimit="10" fill="none"/><path d="M80.09 137.68l-6.453-11.164" stroke-width="1.2" stroke="#00f" stroke-miterlimit="10" fill="none"/><path d="M111.77 143.47l-25.227 5.374M107.98 138.07l-20.18 4.3" stroke-width="1.2" stroke="#000" stroke-miterlimit="10" fill="none"/><path d="M73.637 126.516l8.625-9.586" stroke-width="1.2" stroke="#00f" stroke-miterlimit="10" fill="none"/><path d="M82.262 116.93l8.62-9.59" stroke-width="1.2" stroke="#000" stroke-miterlimit="10" fill="none"/><path d="M65.637 120.016h17v13h-17zm0 0" fill="#fff"/><g fill="#00f"><use xlink:href="#b" x="65.637" y="129.917"/><use xlink:href="#c" x="73.62" y="129.917"/></g><path d="M90.883 107.34l11.785 5.238" stroke-width="1.2" stroke="#000" stroke-miterlimit="10" fill="none"/><path d="M102.668 112.578l11.78 5.238" stroke-width="1.2" stroke="#00f" stroke-miterlimit="10" fill="none"/><path d="M90.777 113.934l9.426 4.19" stroke-width="1.2" stroke="#000" stroke-miterlimit="10" fill="none"/><path d="M100.203 118.125l9.426 4.19" stroke-width="1.2" stroke="#00f" stroke-miterlimit="10" fill="none"/><path d="M90.883 107.34l-5.375-25.223" stroke-width="1.2" stroke="#000" stroke-miterlimit="10" fill="none"/><path d="M114.45 117.816l-1.34 12.83" stroke-width="1.2" stroke="#00f" stroke-miterlimit="10" fill="none"/><path d="M113.11 130.645l-1.34 12.824" stroke-width="1.2" stroke="#000" stroke-miterlimit="10" fill="none"/><path d="M110.45 111.316h8v13h-8zm0 0" fill="#fff"/><use xlink:href="#b" x="110.449" y="121.218" fill="#00f"/><path d="M111.77 143.47l19.17 17.245M130.94 160.715l12.263-3.992" stroke-width="1.2" stroke="#000" stroke-miterlimit="10" fill="none"/><path d="M143.203 156.723l12.262-3.993" stroke-width="1.2" stroke="#00f" stroke-miterlimit="10" fill="none"/><path d="M135.273 165.688l9.81-3.196" stroke-width="1.2" stroke="#000" stroke-miterlimit="10" fill="none"/><path d="M145.082 162.492l9.81-3.19" stroke-width="1.2" stroke="#00f" stroke-miterlimit="10" fill="none"/><path d="M125.594 185.945l5.347-25.23" stroke-width="1.2" stroke="#000" stroke-miterlimit="10" fill="none"/><path d="M155.465 152.73l9.59 8.625" stroke-width="1.2" stroke="#00f" stroke-miterlimit="10" fill="none"/><path d="M165.055 161.355l9.586 8.625" stroke-width="1.2" stroke="#000" stroke-miterlimit="10" fill="none"/><path d="M151.465 146.23h8v13h-8zm0 0" fill="#fff"/><use xlink:href="#b" x="151.465" y="156.132" fill="#00f"/><path d="M174.64 169.98l12.825-1.355" stroke-width="1.2" stroke="#000" stroke-miterlimit="10" fill="none"/><path d="M187.465 168.625l12.824-1.355" stroke-width="1.2" stroke="#00f" stroke-miterlimit="10" fill="none"/><path d="M169.293 195.207l5.348-25.227M163.89 191.426l4.278-20.184" stroke-width="1.2" stroke="#000" stroke-miterlimit="10" fill="none"/><path d="M200.29 167.27l5.25 11.777" stroke-width="1.2" stroke="#00f" stroke-miterlimit="10" fill="none"/><path d="M205.54 179.047l5.25 11.777" stroke-width="1.2" stroke="#000" stroke-miterlimit="10" fill="none"/><path d="M200.29 167.27l6.44-11.172" stroke-width="1.2" stroke="#00f" stroke-miterlimit="10" fill="none"/><path d="M206.73 156.098l6.442-11.168" stroke-width="1.2" stroke="#000" stroke-miterlimit="10" fill="none"/><path d="M196.29 160.77h8v13h-8zm0 0" fill="#fff"/><use xlink:href="#b" x="196.289" y="170.671" fill="#00f"/><path d="M210.79 190.824l-9.58 8.633" stroke-width="1.2" stroke="#000" stroke-miterlimit="10" fill="none"/><path d="M201.21 199.457l-9.577 8.633" stroke-width="1.2" stroke="#00f" stroke-miterlimit="10" fill="none"/><path d="M204.813 188.043l-7.665 6.906" stroke-width="1.2" stroke="#000" stroke-miterlimit="10" fill="none"/><path d="M197.148 194.95l-7.664 6.905M191.633 208.09l-11.172-6.442" stroke-width="1.2" stroke="#00f" stroke-miterlimit="10" fill="none"/><path d="M180.46 201.648l-11.167-6.44" stroke-width="1.2" stroke="#000" stroke-miterlimit="10" fill="none"/><path d="M187.633 201.59h8v13h-8zm0 0" fill="#fff"/><use xlink:href="#b" x="187.633" y="211.491" fill="#00f"/><path d="M169.293 195.207l-24.523 7.984M144.77 203.19l-19.176-17.245M146.91 196.953l-15.34-13.797M213.172 144.93l25.79-.016M238.96 144.914l25.79-.012M238.96 144.914l-.015-25.79M238.96 144.914l.013 25.79M85.508 82.117l-5.375-25.222M85.508 82.117l25.222-5.375M85.508 82.117l-25.223 5.375" stroke-width="1.2" stroke="#000" stroke-miterlimit="10" fill="none"/></g></svg>