<svg xmlns="http://www.w3.org/2000/svg" xmlns:xlink="http://www.w3.org/1999/xlink" width="300pt" height="300pt" viewBox="0 0 300 300"><defs><symbol overflow="visible"><path d="M.453 1.594v-7.938h4.5v7.938zm.5-.5h3.5v-6.938h-3.5zm0 0"/></symbol><symbol overflow="visible" id="a"><path d="M4.813-6.344v.86c-.336-.157-.653-.27-.954-.344-.294-.082-.58-.125-.86-.125-.492 0-.867.094-1.125.28-.262.19-.39.454-.39.798 0 .293.085.512.265.656.176.15.504.267.984.36l.547.11c.658.125 1.142.352 1.454.672.32.312.485.734.485 1.265 0 .637-.216 1.122-.642 1.454-.43.325-1.055.485-1.875.485-.312 0-.648-.04-1-.11C1.36-.046 1-.147.625-.296v-.906c.352.2.703.35 1.047.453.35.105.695.156 1.03.156.5 0 .884-.097 1.157-.297.28-.196.42-.485.42-.86 0-.32-.1-.57-.296-.75-.2-.176-.523-.313-.968-.406l-.547-.11C1.81-3.148 1.33-3.36 1.03-3.64.74-3.923.595-4.313.595-4.813c0-.57.203-1.024.61-1.36.405-.344.968-.516 1.687-.516.313 0 .626.032.938.094.32.055.65.137.985.25zm0 0"/></symbol><symbol overflow="visible" id="b"><path d="M.89-6.563H2.08l2.906 5.485v-5.484h.86V0H4.656L1.75-5.484V0H.89zm0 0"/></symbol><symbol overflow="visible" id="c"><path d="M.89-6.563h.876v2.688H5v-2.688h.89V0H5v-3.125H1.766V0H.89zm0 0"/></symbol><symbol overflow="visible" id="d"><path d="M.89-6.563h3.766v.75h-2.89v1.938h2.61v.734h-2.61V0H.89zm0 0"/></symbol></defs><g><path fill="#fff" d="M0 0h300v300H0z"/><path d="M185.805 151.64l6.504 8.938" stroke-width="1.2" stroke="#cc0" stroke-miterlimit="10" fill="none"/><path d="M192.31 160.578l6.5 8.938" stroke-width="1.2" stroke="#000" stroke-miterlimit="10" fill="none"/><path d="M185.805 151.64l-10.99 1.16" stroke-width="1.2" stroke="#cc0" stroke-miterlimit="10" fill="none"/><path d="M174.816 152.8l-10.992 1.165" stroke-width="1.2" stroke="#000" stroke-miterlimit="10" fill="none"/><path d="M182.805 146.14h6v11h-6zm0 0" fill="#fff"/><use xlink:href="#a" x="182.805" y="154.804" fill="#cc0"/><path d="M198.81 169.516l21.98-2.32M220.79 167.195l13 17.875M226.293 165.922l10.402 14.3M229.77 146.996l-8.98 20.2M233.79 185.07l21.98-2.324M255.77 182.746l8.98-20.195M251.918 178.613l7.184-16.156M264.75 162.55l-13-17.874M251.75 144.676l-21.98 2.32M250.098 150.078l-17.586 1.86M163.824 153.965l-5.52 9.574" stroke-width="1.2" stroke="#000" stroke-miterlimit="10" fill="none"/><path d="M158.305 163.54l-5.52 9.573M149.027 137.547l7.4 8.207" stroke-width="1.2" stroke="#00f" stroke-miterlimit="10" fill="none"/><path d="M156.426 145.754l7.398 8.21" stroke-width="1.2" stroke="#000" stroke-miterlimit="10" fill="none"/><path d="M146.645 142.668l5.917 6.57" stroke-width="1.2" stroke="#00f" stroke-miterlimit="10" fill="none"/><path d="M152.563 149.238l5.917 6.567" stroke-width="1.2" stroke="#000" stroke-miterlimit="10" fill="none"/><path d="M152.785 173.113l-10.812-2.293" stroke-width="1.2" stroke="#00f" stroke-miterlimit="10" fill="none"/><path d="M141.973 170.82l-10.813-2.293" stroke-width="1.2" stroke="#000" stroke-miterlimit="10" fill="none"/><path d="M145.785 167.613h14v11h-14zm0 0" fill="#fff"/><g fill="#00f"><use xlink:href="#b" x="145.785" y="176.276"/><use xlink:href="#c" x="152.763" y="176.276"/></g><path d="M131.16 168.527l-2.32-21.98M136.102 165.78l-1.86-17.58M131.16 168.527l-16.418 14.797M128.84 146.547l10.094-4.5" stroke-width="1.2" stroke="#000" stroke-miterlimit="10" fill="none"/><path d="M138.934 142.047l10.093-4.5" stroke-width="1.2" stroke="#00f" stroke-miterlimit="10" fill="none"/><path d="M128.84 146.547l-19.15-11.043" stroke-width="1.2" stroke="#000" stroke-miterlimit="10" fill="none"/><path d="M146.027 132.047h7v11h-7zm0 0" fill="#fff"/><use xlink:href="#b" x="146.027" y="140.71" fill="#00f"/><path d="M109.69 135.504l-.01-22.102M104.488 133.297l-.008-17.684M90.555 146.566l19.136-11.062M109.68 113.402L90.53 102.36M90.53 102.36l-.003-11.05" stroke-width="1.2" stroke="#000" stroke-miterlimit="10" fill="none"/><path d="M90.527 91.31l-.007-11.052" stroke-width="1.2" stroke="#3cc" stroke-miterlimit="10" fill="none"/><path d="M90.53 102.36l-9.565 5.53" stroke-width="1.2" stroke="#000" stroke-miterlimit="10" fill="none"/><path d="M80.965 107.89l-9.57 5.532" stroke-width="1.2" stroke="#00f" stroke-miterlimit="10" fill="none"/><path d="M91.223 107.97l-7.657 4.425" stroke-width="1.2" stroke="#000" stroke-miterlimit="10" fill="none"/><path d="M83.566 112.395l-7.656 4.425" stroke-width="1.2" stroke="#00f" stroke-miterlimit="10" fill="none"/><path d="M87.52 74.758h6v11h-6zm0 0" fill="#fff"/><use xlink:href="#d" x="87.52" y="83.421" fill="#3cc"/><path d="M71.395 113.422l.007 11.05" stroke-width="1.2" stroke="#00f" stroke-miterlimit="10" fill="none"/><path d="M71.402 124.473l.004 11.054" stroke-width="1.2" stroke="#000" stroke-miterlimit="10" fill="none"/><path d="M68.395 107.922h7v11h-7zm0 0" fill="#fff"/><use xlink:href="#b" x="68.395" y="116.585" fill="#00f"/><path d="M71.406 135.527l19.15 11.04M75.922 132.125l15.316 8.832M114.742 183.324l-21.023-6.816M111.035 187.59l-16.82-5.453M119.352 204.945l-4.61-21.62M93.72 176.508L77.3 191.305M77.3 191.305l4.606 21.617M82.848 192.383l3.683 17.293M77.3 191.305l-21.027-6.817M81.906 212.922l21.028 6.82M102.934 219.742l16.418-14.797M101.094 214.398l13.133-11.835M56.273 184.488l-10.51-3.41" stroke-width="1.2" stroke="#000" stroke-miterlimit="10" fill="none"/><path d="M45.762 181.078l-10.512-3.41" stroke-width="1.2" stroke="#3cc" stroke-miterlimit="10" fill="none"/><path d="M56.273 184.488L52.867 195" stroke-width="1.2" stroke="#000" stroke-miterlimit="10" fill="none"/><path d="M52.867 195l-3.41 10.512" stroke-width="1.2" stroke="#3cc" stroke-miterlimit="10" fill="none"/><path d="M56.273 184.488l3.41-10.515" stroke-width="1.2" stroke="#000" stroke-miterlimit="10" fill="none"/><path d="M59.684 173.973l3.41-10.512" stroke-width="1.2" stroke="#3cc" stroke-miterlimit="10" fill="none"/><path d="M29.25 172.168h6v11h-6zm0 0" fill="#fff"/><use xlink:href="#d" x="29.25" y="180.831" fill="#3cc"/><path d="M43.457 200.012h6v11h-6zm0 0" fill="#fff"/><use xlink:href="#d" x="43.457" y="208.675" fill="#3cc"/><path d="M60.094 157.96h6v11h-6zm0 0" fill="#fff"/><use xlink:href="#d" x="60.094" y="166.624" fill="#3cc"/></g></svg>