<svg xmlns="http://www.w3.org/2000/svg" xmlns:xlink="http://www.w3.org/1999/xlink" width="300pt" height="300pt" viewBox="0 0 300 300"><defs><symbol overflow="visible"><path d="M.797 2.828v-14.11h8V2.83zm.906-.89h6.203v-12.33H1.703zm0 0"/></symbol><symbol overflow="visible" id="a"><path d="M6.313-10.594c-1.15 0-2.06.43-2.735 1.28-.68.857-1.015 2.017-1.015 3.486 0 1.47.335 2.633 1.015 3.484.676.856 1.586 1.28 2.735 1.28 1.144.002 2.05-.424 2.718-1.28.665-.85 1-2.015 1-3.484 0-1.47-.335-2.63-1-3.484-.667-.852-1.573-1.282-2.717-1.282zm0-1.28c1.632 0 2.94.546 3.92 1.64.978 1.093 1.47 2.562 1.47 4.406 0 1.844-.492 3.32-1.47 4.422-.98 1.093-2.288 1.64-3.92 1.64-1.65 0-2.96-.546-3.938-1.64-.98-1.102-1.47-2.578-1.47-4.422 0-1.844.49-3.313 1.47-4.406.977-1.094 2.29-1.64 3.938-1.64zm0 0"/></symbol><symbol overflow="visible" id="b"><path d="M1.578-11.672h1.578v4.78H8.89v-4.78h1.58V0H8.89v-5.563H3.157V0H1.578zm0 0"/></symbol><symbol overflow="visible" id="c"><path d="M1.578-11.672h2.125l5.172 9.766v-9.766h1.53V0H8.282L3.11-9.766V0H1.577zm0 0"/></symbol></defs><g><path fill="#fff" d="M0 0h300v300H0z"/><path d="M149.594 224.414L139.02 208.48" stroke-width="1.2" stroke="#f00" stroke-miterlimit="10" fill="none"/><path d="M139.02 208.48l-10.58-15.933" stroke-width="1.2" stroke="#000" stroke-miterlimit="10" fill="none"/><path d="M137.594 214.914h25v19h-25zm0 0" fill="#fff"/><g fill="#f00"><use xlink:href="#a" x="137.594" y="229.766"/><use xlink:href="#b" x="150.188" y="229.766"/></g><path d="M128.44 192.547l17.02-34.254M122.082 185.117l13.617-27.402M90.266 194.934l38.175-2.387M145.46 158.293l-21.155-31.867M183.637 155.906l-38.176 2.387M124.305 126.426l-38.176 2.386M119.926 117.68l-30.54 1.91M141.328 92.172l-17.023 34.254M86.13 128.813l-17.02 34.253M86.13 128.813L75.86 91.97M69.11 163.066l21.156 31.868M78.723 161.273l16.925 25.497M90.266 194.934l-8.512 17.13" stroke-width="1.2" stroke="#000" stroke-miterlimit="10" fill="none"/><path d="M81.754 212.063l-8.508 17.125" stroke-width="1.2" stroke="#f00" stroke-miterlimit="10" fill="none"/><path d="M48.246 219.688h25v19h-25zm0 0" fill="#fff"/><g fill="#f00"><use xlink:href="#b" x="48.246" y="234.539"/><use xlink:href="#a" x="60.277" y="234.539"/></g><path d="M77.43 87.75l-17.922-6.672" stroke-width="1.2" stroke="#000" stroke-miterlimit="10" fill="none"/><path d="M59.508 81.078l-17.926-6.676" stroke-width="1.2" stroke="#f00" stroke-miterlimit="10" fill="none"/><path d="M74.29 96.184l-17.923-6.672" stroke-width="1.2" stroke="#000" stroke-miterlimit="10" fill="none"/><path d="M56.367 89.512L38.44 82.836" stroke-width="1.2" stroke="#f00" stroke-miterlimit="10" fill="none"/><path d="M75.86 91.97l15.933-10.58" stroke-width="1.2" stroke="#000" stroke-miterlimit="10" fill="none"/><path d="M91.793 81.39l15.934-10.578" stroke-width="1.2" stroke="#00f" stroke-miterlimit="10" fill="none"/><path d="M27.012 69.12h13v19h-13zm0 0" fill="#fff"/><use xlink:href="#a" x="27.012" y="83.973" fill="#f00"/><path d="M107.727 70.813l16.8 10.68" stroke-width="1.2" stroke="#00f" stroke-miterlimit="10" fill="none"/><path d="M124.527 81.492l16.8 10.68" stroke-width="1.2" stroke="#000" stroke-miterlimit="10" fill="none"/><path d="M95.727 61.313h24v19h-24zm0 0" fill="#fff"/><g fill="#00f"><use xlink:href="#c" x="95.727" y="76.164"/><use xlink:href="#b" x="107.695" y="76.164"/></g><path d="M141.328 92.172l38.176-2.387M145.707 100.914l30.54-1.91M179.504 89.785l21.152 31.867M200.656 121.652l-17.02 34.254M207.016 129.082l-13.618 27.402M238.832 119.266l-38.176 2.386M183.637 155.906l21.156 31.867M204.793 187.773l38.172-2.386M208.047 178.55l30.54-1.91M242.965 185.387l17.023-34.254M259.988 151.133l-21.156-31.867M250.375 152.922L233.45 127.43M238.832 119.266l8.512-17.13" stroke-width="1.2" stroke="#000" stroke-miterlimit="10" fill="none"/><path d="M247.344 102.137l8.508-17.13" stroke-width="1.2" stroke="#f00" stroke-miterlimit="10" fill="none"/><path d="M243.852 75.508h25v19h-25zm0 0" fill="#fff"/><g fill="#f00"><use xlink:href="#a" x="243.852" y="90.359"/><use xlink:href="#b" x="256.445" y="90.359"/></g></g></svg>