<svg xmlns="http://www.w3.org/2000/svg" xmlns:xlink="http://www.w3.org/1999/xlink" width="300pt" height="300pt" viewBox="0 0 300 300"><defs><symbol overflow="visible"><path d="M.797 2.828v-14.11h8V2.83zm.906-.89h6.203v-12.33H1.703zm0 0"/></symbol><symbol overflow="visible" id="a"><path d="M6.313-10.594c-1.15 0-2.06.43-2.735 1.28-.68.857-1.015 2.017-1.015 3.486 0 1.47.335 2.633 1.015 3.484.676.856 1.586 1.28 2.735 1.28 1.144.002 2.05-.424 2.718-1.28.665-.85 1-2.015 1-3.484 0-1.47-.335-2.63-1-3.484-.667-.852-1.573-1.282-2.717-1.282zm0-1.28c1.632 0 2.94.546 3.92 1.64.978 1.093 1.47 2.562 1.47 4.406 0 1.844-.492 3.32-1.47 4.422-.98 1.093-2.288 1.64-3.92 1.64-1.65 0-2.96-.546-3.938-1.64-.98-1.102-1.47-2.578-1.47-4.422 0-1.844.49-3.313 1.47-4.406.977-1.094 2.29-1.64 3.938-1.64zm0 0"/></symbol><symbol overflow="visible" id="b"><path d="M1.578-11.672h2.125l5.172 9.766v-9.766h1.53V0H8.282L3.11-9.766V0H1.577zm0 0"/></symbol><symbol overflow="visible" id="c"><path d="M1.578-11.672h1.578v4.78H8.89v-4.78h1.58V0H8.89v-5.563H3.157V0H1.578zm0 0"/></symbol></defs><g><path fill="#fff" d="M0 0h300v300H0z"/><path d="M146.54 214.426l-8.72-17.02" stroke-width="1.2" stroke="#f00" stroke-miterlimit="10" fill="none"/><path d="M137.82 197.406l-8.718-17.023M119.55 241.53l13.497-13.55" stroke-width="1.2" stroke="#000" stroke-miterlimit="10" fill="none"/><path d="M133.047 227.98l13.492-13.554" stroke-width="1.2" stroke="#f00" stroke-miterlimit="10" fill="none"/><path d="M140.54 204.926h13v19h-13zm0 0" fill="#fff"/><use xlink:href="#a" x="140.539" y="219.777" fill="#f00"/><path d="M129.102 180.383l13.632-35.738M122.055 173.602l10.906-28.59M91.336 186.45l37.766-6.067M142.734 144.645l37.766-6.063M118.598 114.97l24.136 29.675M180.5 138.582l13.633-35.738M190.273 138.215l10.903-28.59M204.633 168.254L180.5 138.582M194.133 102.844l-24.137-29.676M194.133 102.844l37.765-6.067M169.996 73.168L132.23 79.23M167.648 82.66l-30.214 4.852M132.23 79.23l-16.062-10.378" stroke-width="1.2" stroke="#000" stroke-miterlimit="10" fill="none"/><path d="M116.168 68.852L100.105 58.47" stroke-width="1.2" stroke="#00f" stroke-miterlimit="10" fill="none"/><path d="M118.598 114.97l13.632-35.74" stroke-width="1.2" stroke="#000" stroke-miterlimit="10" fill="none"/><path d="M100.105 58.47L85.27 70.534" stroke-width="1.2" stroke="#00f" stroke-miterlimit="10" fill="none"/><path d="M85.27 70.535L70.434 82.602" stroke-width="1.2" stroke="#000" stroke-miterlimit="10" fill="none"/><path d="M88.105 48.97h24v19h-24zm0 0" fill="#fff"/><g fill="#00f"><use xlink:href="#b" x="88.105" y="63.82"/><use xlink:href="#c" x="100.074" y="63.82"/></g><path d="M71.586 78.254l-18.48-4.91" stroke-width="1.2" stroke="#000" stroke-miterlimit="10" fill="none"/><path d="M53.105 73.344l-18.484-4.91" stroke-width="1.2" stroke="#f00" stroke-miterlimit="10" fill="none"/><path d="M69.277 86.953l-18.484-4.91" stroke-width="1.2" stroke="#000" stroke-miterlimit="10" fill="none"/><path d="M50.793 82.043l-18.484-4.91" stroke-width="1.2" stroke="#f00" stroke-miterlimit="10" fill="none"/><path d="M70.434 82.602l10.398 38.433" stroke-width="1.2" stroke="#000" stroke-miterlimit="10" fill="none"/><path d="M20.465 63.28h13v19h-13zm0 0" fill="#fff"/><use xlink:href="#a" x="20.465" y="78.133" fill="#f00"/><path d="M80.832 121.035l37.766-6.066M86.035 129.316l30.215-4.85M80.832 121.035L67.2 156.773M67.2 156.773l24.136 29.676M76.598 154.063L95.906 177.8M91.336 186.45l-2.953 18.894" stroke-width="1.2" stroke="#000" stroke-miterlimit="10" fill="none"/><path d="M88.383 205.344l-2.95 18.894M85.434 224.238l17.058 8.65" stroke-width="1.2" stroke="#f00" stroke-miterlimit="10" fill="none"/><path d="M102.492 232.887l17.06 8.644" stroke-width="1.2" stroke="#000" stroke-miterlimit="10" fill="none"/><path d="M79.434 214.738h13v19h-13zm0 0" fill="#fff"/><use xlink:href="#a" x="79.434" y="229.59" fill="#f00"/><path d="M231.898 96.777l6.817-17.867" stroke-width="1.2" stroke="#000" stroke-miterlimit="10" fill="none"/><path d="M238.715 78.91l6.812-17.87" stroke-width="1.2" stroke="#f00" stroke-miterlimit="10" fill="none"/><path d="M231.898 96.777l24.133 29.676M227.328 105.426l19.31 23.738" stroke-width="1.2" stroke="#000" stroke-miterlimit="10" fill="none"/><path d="M233.527 51.54h25v19h-25zm0 0" fill="#fff"/><g fill="#f00"><use xlink:href="#a" x="233.527" y="66.391"/><use xlink:href="#c" x="246.121" y="66.391"/></g><path d="M256.03 126.453l-13.628 35.738M242.402 162.19l12.067 14.837" stroke-width="1.2" stroke="#000" stroke-miterlimit="10" fill="none"/><path d="M254.47 177.027l12.065 14.84" stroke-width="1.2" stroke="#f00" stroke-miterlimit="10" fill="none"/><path d="M242.402 162.19l-37.77 6.064M237.195 153.91l-30.21 4.852" stroke-width="1.2" stroke="#000" stroke-miterlimit="10" fill="none"/><path d="M254.535 182.367h25v19h-25zm0 0" fill="#fff"/><g fill="#f00"><use xlink:href="#a" x="254.535" y="197.219"/><use xlink:href="#c" x="267.129" y="197.219"/></g></g></svg>