<svg xmlns="http://www.w3.org/2000/svg" xmlns:xlink="http://www.w3.org/1999/xlink" width="300pt" height="300pt" viewBox="0 0 300 300"><defs><symbol overflow="visible"><path d="M.453 1.594v-7.938h4.5v7.938zm.5-.5h3.5v-6.938h-3.5zm0 0"/></symbol><symbol overflow="visible" id="a"><path d="M1.766-3.14v2.406h1.421c.477 0 .833-.098 1.063-.297.227-.197.344-.5.344-.907 0-.407-.117-.708-.344-.907-.23-.195-.586-.297-1.063-.297zm0-2.688v1.97h1.312c.438 0 .758-.08.97-.236.218-.164.327-.414.327-.75 0-.332-.11-.578-.328-.734-.21-.164-.53-.25-.97-.25zM.89-6.562h2.266c.676 0 1.196.14 1.563.42.362.283.546.685.546 1.205 0 .398-.094.714-.282.953-.187.242-.464.39-.828.453.438.092.774.292 1.016.592.238.293.36.657.36 1.094 0 .594-.2 1.055-.595 1.375-.398.314-.964.47-1.703.47H.89zm0 0"/></symbol><symbol overflow="visible" id="b"><path d="M3.703-4.172c-.094-.05-.195-.086-.297-.11-.105-.02-.226-.03-.36-.03-.46 0-.812.152-1.062.453-.242.294-.36.715-.36 1.266V0H.813v-4.922h.813v.766c.176-.3.398-.524.672-.672.27-.145.598-.22.984-.22.064 0 .126.01.19.017.07.01.147.022.233.03zm0 0"/></symbol><symbol overflow="visible" id="c"><path d="M3.547-5.953c-.65 0-1.164.242-1.547.72-.375.48-.563 1.13-.563 1.952 0 .835.188 1.49.563 1.967.383.48.898.72 1.547.72.644 0 1.156-.24 1.53-.72.376-.476.564-1.132.564-1.968 0-.822-.187-1.474-.562-1.954-.375-.477-.887-.72-1.53-.72zm0-.734c.914 0 1.648.312 2.203.937.55.617.828 1.438.828 2.47 0 1.042-.277 1.87-.828 2.483-.555.617-1.29.922-2.203.922-.93 0-1.668-.305-2.22-.922C.774-1.41.5-2.237.5-3.28c0-1.033.273-1.853.828-2.47.55-.625 1.29-.938 2.22-.938zm0 0"/></symbol><symbol overflow="visible" id="d"><path d="M.89-6.563H2.08l2.906 5.485v-5.484h.86V0H4.656L1.75-5.484V0H.89zm0 0"/></symbol><symbol overflow="visible" id="e"><path d="M.89-6.563h3.766v.75h-2.89v1.938h2.61v.734h-2.61V0H.89zm0 0"/></symbol></defs><g><path fill="#fff" d="M0 0h300v300H0z"/><path d="M157.53 180.332l-5.807-8.078" stroke-width="1.2" stroke="#7f4d1a" stroke-miterlimit="10" fill="none"/><path d="M151.723 172.254l-5.813-8.082" stroke-width="1.2" stroke="#000" stroke-miterlimit="10" fill="none"/><path d="M152.53 174.832h11v11h-11zm0 0" fill="#fff"/><g fill="#7f4d1a"><use xlink:href="#a" x="152.531" y="183.495"/><use xlink:href="#b" x="158.931" y="183.495"/></g><path d="M145.91 164.172l-19.808 1.988M145.91 164.172l8.18-18.145M142.457 160.434l6.547-14.52M123.97 165.195l-4.095 9.075" stroke-width="1.2" stroke="#000" stroke-miterlimit="10" fill="none"/><path d="M119.875 174.27l-4.09 9.074" stroke-width="1.2" stroke="#f00" stroke-miterlimit="10" fill="none"/><path d="M128.238 167.12l-4.093 9.075" stroke-width="1.2" stroke="#000" stroke-miterlimit="10" fill="none"/><path d="M124.145 176.195l-4.09 9.075" stroke-width="1.2" stroke="#f00" stroke-miterlimit="10" fill="none"/><path d="M126.102 166.16l-5.813-8.082" stroke-width="1.2" stroke="#000" stroke-miterlimit="10" fill="none"/><path d="M120.29 158.078L114.476 150" stroke-width="1.2" stroke="#00f" stroke-miterlimit="10" fill="none"/><path d="M109.918 178.805h8v11h-8zm0 0" fill="#fff"/><use xlink:href="#c" x="109.918" y="187.468" fill="#f00"/><path d="M114.477 150l4.093-9.074" stroke-width="1.2" stroke="#00f" stroke-miterlimit="10" fill="none"/><path d="M118.57 140.926l4.09-9.074" stroke-width="1.2" stroke="#000" stroke-miterlimit="10" fill="none"/><path d="M114.477 150l-9.903.992" stroke-width="1.2" stroke="#00f" stroke-miterlimit="10" fill="none"/><path d="M104.574 150.992l-9.902.996" stroke-width="1.2" stroke="#000" stroke-miterlimit="10" fill="none"/><path d="M111.477 144.5h7v11h-7zm0 0" fill="#fff"/><use xlink:href="#d" x="111.477" y="153.163" fill="#00f"/><path d="M122.66 131.852l19.81-1.985M125.11 136.316l15.843-1.59M122.66 131.852l-11.625-16.157M142.47 129.867l11.62 16.16M154.09 146.027l9.906-.996" stroke-width="1.2" stroke="#000" stroke-miterlimit="10" fill="none"/><path d="M163.996 145.03l9.902-.99M173.898 144.04l5.813 8.077" stroke-width="1.2" stroke="#f00" stroke-miterlimit="10" fill="none"/><path d="M179.71 152.117l5.813 8.082" stroke-width="1.2" stroke="#000" stroke-miterlimit="10" fill="none"/><path d="M169.898 138.54h8v11h-8zm0 0" fill="#fff"/><use xlink:href="#c" x="169.898" y="147.202" fill="#f00"/><path d="M185.523 160.2l19.805-1.99M205.328 158.21l11.625 16.16M210.293 157.094l9.3 12.926M213.512 140.066l-8.184 18.145M216.953 174.37l19.81-1.987M236.762 172.383l8.18-18.145M233.31 168.645l6.545-14.52M244.94 154.238l9.908-.996" stroke-width="1.2" stroke="#000" stroke-miterlimit="10" fill="none"/><path d="M254.848 153.242l9.902-.992" stroke-width="1.2" stroke="#3cc" stroke-miterlimit="10" fill="none"/><path d="M244.94 154.238l-11.62-16.16" stroke-width="1.2" stroke="#000" stroke-miterlimit="10" fill="none"/><path d="M261.75 146.75h6v11h-6zm0 0" fill="#fff"/><use xlink:href="#e" x="261.75" y="155.413" fill="#3cc"/><path d="M233.32 138.078l-19.808 1.988M231.805 142.938l-15.844 1.59M213.512 140.066l-5.813-8.082" stroke-width="1.2" stroke="#000" stroke-miterlimit="10" fill="none"/><path d="M207.7 131.984l-5.813-8.078" stroke-width="1.2" stroke="#3cc" stroke-miterlimit="10" fill="none"/><path d="M195.887 118.406h6v11h-6zm0 0" fill="#fff"/><use xlink:href="#e" x="195.887" y="127.069" fill="#3cc"/><path d="M94.672 151.988l-11.625-16.16M89.707 153.105l-9.3-12.925M86.488 170.133l8.184-18.145M83.047 135.828l-9.902.992" stroke-width="1.2" stroke="#000" stroke-miterlimit="10" fill="none"/><path d="M73.145 136.82l-9.907.993M63.238 137.813l-4.09 9.074" stroke-width="1.2" stroke="#00f" stroke-miterlimit="10" fill="none"/><path d="M59.148 146.887l-4.09 9.074" stroke-width="1.2" stroke="#000" stroke-miterlimit="10" fill="none"/><path d="M66.69 141.555l-3.272 7.257" stroke-width="1.2" stroke="#00f" stroke-miterlimit="10" fill="none"/><path d="M63.418 148.813l-3.273 7.257" stroke-width="1.2" stroke="#000" stroke-miterlimit="10" fill="none"/><path d="M60.238 132.313h7v11h-7zm0 0" fill="#fff"/><use xlink:href="#d" x="60.238" y="140.976" fill="#00f"/><path d="M55.06 155.96l5.807 8.083" stroke-width="1.2" stroke="#000" stroke-miterlimit="10" fill="none"/><path d="M60.867 164.043l5.813 8.078" stroke-width="1.2" stroke="#00f" stroke-miterlimit="10" fill="none"/><path d="M55.06 155.96l-19.81 1.99" stroke-width="1.2" stroke="#000" stroke-miterlimit="10" fill="none"/><path d="M66.68 172.12l9.906-.99" stroke-width="1.2" stroke="#00f" stroke-miterlimit="10" fill="none"/><path d="M76.586 171.13l9.902-.997" stroke-width="1.2" stroke="#000" stroke-miterlimit="10" fill="none"/><path d="M68.195 167.262l7.922-.793" stroke-width="1.2" stroke="#00f" stroke-miterlimit="10" fill="none"/><path d="M76.117 166.47l7.922-.798" stroke-width="1.2" stroke="#000" stroke-miterlimit="10" fill="none"/><path d="M63.68 166.62h7v11h-7zm0 0" fill="#fff"/><use xlink:href="#d" x="63.68" y="175.284" fill="#00f"/></g></svg>