<svg xmlns="http://www.w3.org/2000/svg" xmlns:xlink="http://www.w3.org/1999/xlink" width="300pt" height="300pt" viewBox="0 0 300 300"><defs><symbol overflow="visible"><path d="M.453 1.594v-7.938h4.5v7.938zm.5-.5h3.5v-6.938h-3.5zm0 0"/></symbol><symbol overflow="visible" id="a"><path d="M5.797-6.063v.938c-.305-.27-.625-.473-.97-.61-.335-.144-.686-.218-1.06-.218-.75 0-1.33.23-1.736.687-.397.46-.592 1.12-.592 1.985 0 .866.195 1.526.593 1.983.408.46.986.688 1.736.688.375 0 .726-.066 1.062-.203.344-.132.664-.343.97-.625V-.5c-.314.21-.642.367-.986.47-.343.1-.714.155-1.11.155-.99 0-1.772-.3-2.343-.906C.784-1.396.5-2.228.5-3.28c0-1.052.285-1.88.86-2.486.57-.613 1.35-.92 2.343-.92.395-.002.766.053 1.11.155.35.104.68.26.984.468zm0 0"/></symbol><symbol overflow="visible" id="b"><path d="M.844-6.844h.812V0H.844zm0 0"/></symbol><symbol overflow="visible" id="c"><path d="M.89-6.563H2.08l2.906 5.485v-5.484h.86V0H4.656L1.75-5.484V0H.89zm0 0"/></symbol><symbol overflow="visible" id="d"><path d="M.89-6.563h.876v2.688H5v-2.688h.89V0H5v-3.125H1.766V0H.89zm0 0"/></symbol><symbol overflow="visible" id="e"><path d="M3.547-5.953c-.65 0-1.164.242-1.547.72-.375.48-.563 1.13-.563 1.952 0 .835.188 1.49.563 1.967.383.48.898.72 1.547.72.644 0 1.156-.24 1.53-.72.376-.476.564-1.132.564-1.968 0-.822-.187-1.474-.562-1.954-.375-.477-.887-.72-1.53-.72zm0-.734c.914 0 1.648.312 2.203.937.55.617.828 1.438.828 2.47 0 1.042-.277 1.87-.828 2.483-.555.617-1.29.922-2.203.922-.93 0-1.668-.305-2.22-.922C.774-1.41.5-2.237.5-3.28c0-1.033.273-1.853.828-2.47.55-.625 1.29-.938 2.22-.938zm0 0"/></symbol><symbol overflow="visible"><path d="M.406 1.422V-5.64h4V1.42zM.844.97h3.11v-6.157H.843zm0 0"/></symbol><symbol overflow="visible" id="f"><path d="M3.688-5.016v2.172h2.17v.672H3.69V0H3.03v-2.172H.845v-.672H3.03v-2.172zm0 0"/></symbol></defs><g><path fill="#fff" d="M0 0h300v300H0z"/><path d="M101.668 204.87l-3.363-8.25" stroke-width="1.2" stroke="#0c0" stroke-miterlimit="10" fill="none"/><path d="M98.305 196.62l-3.364-8.25" stroke-width="1.2" stroke="#000" stroke-miterlimit="10" fill="none"/><path d="M96.668 199.37h10v11h-10zm0 0" fill="#fff"/><g fill="#0c0"><use xlink:href="#a" x="96.668" y="208.034"/><use xlink:href="#b" x="103.182" y="208.034"/></g><path d="M94.94 188.37l-17.655-2.42M93.746 183.977l-14.125-1.942M105.867 174.293L94.94 188.37M77.285 185.95l-6.726-16.5M70.56 169.45l10.92-14.08M74.96 170.613l8.743-11.265M70.56 169.45L52.9 167.026M81.48 155.37l17.657 2.423M99.137 157.793l5.46-7.04" stroke-width="1.2" stroke="#000" stroke-miterlimit="10" fill="none"/><path d="M104.598 150.754l5.465-7.04" stroke-width="1.2" stroke="#00f" stroke-miterlimit="10" fill="none"/><path d="M99.137 157.793l6.73 16.5M95.926 161.027l5.383 13.2" stroke-width="1.2" stroke="#000" stroke-miterlimit="10" fill="none"/><path d="M110.063 143.715l8.824 1.21" stroke-width="1.2" stroke="#00f" stroke-miterlimit="10" fill="none"/><path d="M118.887 144.926l8.828 1.21" stroke-width="1.2" stroke="#000" stroke-miterlimit="10" fill="none"/><path d="M103.063 138.215h14v11h-14zm0 0" fill="#fff"/><g fill="#00f"><use xlink:href="#c" x="103.063" y="146.878"/><use xlink:href="#d" x="110.04" y="146.878"/></g><path d="M125.773 146.93l3.364 8.25" stroke-width="1.2" stroke="#000" stroke-miterlimit="10" fill="none"/><path d="M129.137 155.18l3.367 8.25" stroke-width="1.2" stroke="#f00" stroke-miterlimit="10" fill="none"/><path d="M129.656 145.348l3.364 8.25" stroke-width="1.2" stroke="#000" stroke-miterlimit="10" fill="none"/><path d="M133.02 153.598l3.367 8.25" stroke-width="1.2" stroke="#f00" stroke-miterlimit="10" fill="none"/><path d="M127.715 146.137l10.926-14.075" stroke-width="1.2" stroke="#000" stroke-miterlimit="10" fill="none"/><path d="M130.445 157.137h8v11h-8zm0 0" fill="#fff"/><use xlink:href="#e" x="130.445" y="165.8" fill="#f00"/><path d="M140.582 131.27l-3.367-8.25" stroke-width="1.2" stroke="#000" stroke-miterlimit="10" fill="none"/><path d="M137.215 123.02l-3.363-8.25" stroke-width="1.2" stroke="#f00" stroke-miterlimit="10" fill="none"/><path d="M136.7 132.852l-3.368-8.25" stroke-width="1.2" stroke="#000" stroke-miterlimit="10" fill="none"/><path d="M133.332 124.602l-3.363-8.25" stroke-width="1.2" stroke="#f00" stroke-miterlimit="10" fill="none"/><path d="M138.64 132.063l17.653 2.42" stroke-width="1.2" stroke="#000" stroke-miterlimit="10" fill="none"/><path d="M123.91 110.063h8v11h-8zm0 0" fill="#fff"/><use xlink:href="#e" x="123.91" y="118.726" fill="#f00"/><path d="M156.293 134.484l10.926-14.078M163.023 150.984l-6.73-16.5M166.23 147.75l-5.382-13.2M167.22 120.406l17.65 2.422M160.488 103.906l6.73 16.5M165.043 103.973l5.383 13.2M184.87 122.828l10.927-14.078M182.652 118.852l8.74-11.266M184.87 122.828l6.732 16.5M195.797 108.75l-6.73-16.5M189.066 92.25l-17.652-2.422M186.73 96.164l-14.12-1.94M171.414 89.828l-10.926 14.078M191.602 139.328l8.828 1.21" stroke-width="1.2" stroke="#000" stroke-miterlimit="10" fill="none"/><path d="M200.43 140.54l8.824 1.21" stroke-width="1.2" stroke="#f00" stroke-miterlimit="10" fill="none"/><path d="M191.602 139.328l-10.926 14.078M187.195 138.164l-8.738 11.262" stroke-width="1.2" stroke="#000" stroke-miterlimit="10" fill="none"/><path d="M209.254 141.75l3.367 8.25" stroke-width="1.2" stroke="#f00" stroke-miterlimit="10" fill="none"/><path d="M212.62 150l3.364 8.25" stroke-width="1.2" stroke="#000" stroke-miterlimit="10" fill="none"/><path d="M205.254 136.25h8v11h-8zm0 0" fill="#fff"/><use xlink:href="#e" x="205.254" y="144.913" fill="#f00"/><path d="M215.984 158.25l17.653 2.422M233.637 160.672l3.367 8.25" stroke-width="1.2" stroke="#000" stroke-miterlimit="10" fill="none"/><path d="M237.004 168.922l3.363 8.25M240.367 177.172l-5.46 7.04" stroke-width="1.2" stroke="#00f" stroke-miterlimit="10" fill="none"/><path d="M234.906 184.21l-5.465 7.04M258.02 179.594l-8.825-1.21" stroke-width="1.2" stroke="#000" stroke-miterlimit="10" fill="none"/><path d="M249.195 178.383l-8.828-1.21" stroke-width="1.2" stroke="#00f" stroke-miterlimit="10" fill="none"/><path d="M230.367 169.672h21v15h-21zm0 0" fill="#fff"/><g fill="#00f"><use xlink:href="#c" x="230.367" y="181.773"/><use xlink:href="#d" x="237.345" y="181.773"/></g><use xlink:href="#f" x="244.359" y="176.891" fill="#00f"/><path d="M229.44 191.25l6.732 16.5M236.172 207.75l8.828 1.21" stroke-width="1.2" stroke="#000" stroke-miterlimit="10" fill="none"/><path d="M245 208.96l8.824 1.212M253.824 210.172l5.465-7.04" stroke-width="1.2" stroke="#f00" stroke-miterlimit="10" fill="none"/><path d="M259.29 203.133l5.46-7.04" stroke-width="1.2" stroke="#000" stroke-miterlimit="10" fill="none"/><path d="M249.824 204.672h8v11h-8zm0 0" fill="#fff"/><use xlink:href="#e" x="249.824" y="213.335" fill="#f00"/><path d="M264.75 196.094l-6.73-16.5M180.676 153.406l-17.653-2.422M105.867 174.293l8.824 1.21" stroke-width="1.2" stroke="#000" stroke-miterlimit="10" fill="none"/><path d="M114.69 175.504l8.83 1.21M123.52 176.715l3.363 8.25" stroke-width="1.2" stroke="#f00" stroke-miterlimit="10" fill="none"/><path d="M126.883 184.965l3.367 8.25" stroke-width="1.2" stroke="#000" stroke-miterlimit="10" fill="none"/><path d="M119.52 171.215h8v11h-8zm0 0" fill="#fff"/><use xlink:href="#e" x="119.52" y="179.878" fill="#f00"/><path d="M52.902 167.027l2.422-17.656M52.902 167.027L50.48 184.68M52.902 167.027l-17.652-2.422" stroke-width="1.2" stroke="#000" stroke-miterlimit="10" fill="none"/></g></svg>