<svg xmlns="http://www.w3.org/2000/svg" xmlns:xlink="http://www.w3.org/1999/xlink" width="300pt" height="300pt" viewBox="0 0 300 300"><defs><symbol overflow="visible"><path d="M.453 1.594v-7.938h4.5v7.938zm.5-.5h3.5v-6.938h-3.5zm0 0"/></symbol><symbol overflow="visible" id="a"><path d="M3.547-5.953c-.65 0-1.164.242-1.547.72-.375.48-.563 1.13-.563 1.952 0 .835.188 1.49.563 1.967.383.48.898.72 1.547.72.644 0 1.156-.24 1.53-.72.376-.476.564-1.132.564-1.968 0-.822-.187-1.474-.562-1.954-.375-.477-.887-.72-1.53-.72zm0-.734c.914 0 1.648.312 2.203.937.55.617.828 1.438.828 2.47 0 1.042-.277 1.87-.828 2.483-.555.617-1.29.922-2.203.922-.93 0-1.668-.305-2.22-.922C.774-1.41.5-2.237.5-3.28c0-1.033.273-1.853.828-2.47.55-.625 1.29-.938 2.22-.938zm0 0"/></symbol><symbol overflow="visible" id="b"><path d="M.89-6.563H2.08l2.906 5.485v-5.484h.86V0H4.656L1.75-5.484V0H.89zm0 0"/></symbol><symbol overflow="visible" id="c"><path d="M.89-6.563h.876v2.688H5v-2.688h.89V0H5v-3.125H1.766V0H.89zm0 0"/></symbol></defs><g><path fill="#fff" d="M0 0h300v300H0z"/><path d="M68.11 211.645l7.51-9.49" stroke-width="1.2" stroke="#f00" stroke-miterlimit="10" fill="none"/><path d="M75.62 202.156l7.51-9.484" stroke-width="1.2" stroke="#000" stroke-miterlimit="10" fill="none"/><path d="M63.645 208.113l7.51-9.488" stroke-width="1.2" stroke="#f00" stroke-miterlimit="10" fill="none"/><path d="M71.156 198.625l7.508-9.488" stroke-width="1.2" stroke="#000" stroke-miterlimit="10" fill="none"/><path d="M57.88 204.38h8v11h-8zm0 0" fill="#fff"/><use xlink:href="#a" x="57.879" y="213.042" fill="#f00"/><path d="M80.898 190.902l12.09.5" stroke-width="1.2" stroke="#000" stroke-miterlimit="10" fill="none"/><path d="M92.988 191.402l12.09.5" stroke-width="1.2" stroke="#00f" stroke-miterlimit="10" fill="none"/><path d="M74.375 167.598l6.523 23.304" stroke-width="1.2" stroke="#000" stroke-miterlimit="10" fill="none"/><path d="M105.078 191.902l4.21-11.347" stroke-width="1.2" stroke="#00f" stroke-miterlimit="10" fill="none"/><path d="M109.29 180.555l4.21-11.344" stroke-width="1.2" stroke="#000" stroke-miterlimit="10" fill="none"/><path d="M98.078 186.402h14v11h-14zm0 0" fill="#fff"/><g fill="#00f"><use xlink:href="#b" x="98.078" y="195.065"/><use xlink:href="#c" x="105.056" y="195.065"/></g><path d="M113.5 169.21l-18.977-15.02M115.137 163.246l-15.18-12.016M135.996 160.29l-22.496 8.92M94.523 154.19l3.52-23.94M94.523 154.19L74.375 167.6M98.043 130.25l22.496-8.926M102.395 134.648l17.996-7.136M120.54 121.324l18.976 15.02M139.516 136.344l-3.52 23.945M133.53 137.91l-2.815 19.156M139.516 136.344l22.496-8.922M162.012 127.422l18.976 15.02M167.44 124.46l15.185 12.017M165.53 103.477l-3.518 23.945M180.988 142.44l22.496-8.92M203.484 133.52l3.52-23.946M198.2 130.297l2.816-19.156M203.484 133.52l18.973 15.02M207.004 109.574l-18.977-15.02M188.027 94.555l-22.496 8.922M187.88 100.742l-18 7.137M165.53 103.477l-18.975-15.02M223.508 151.188l11.25-4.465" stroke-width="1.2" stroke="#000" stroke-miterlimit="10" fill="none"/><path d="M234.758 146.723l11.246-4.46" stroke-width="1.2" stroke="#f00" stroke-miterlimit="10" fill="none"/><path d="M221.41 145.895l11.246-4.465" stroke-width="1.2" stroke="#000" stroke-miterlimit="10" fill="none"/><path d="M232.656 141.43l11.25-4.46" stroke-width="1.2" stroke="#f00" stroke-miterlimit="10" fill="none"/><path d="M222.457 148.54L220.7 160.51" stroke-width="1.2" stroke="#000" stroke-miterlimit="10" fill="none"/><path d="M220.7 160.512l-1.762 11.972" stroke-width="1.2" stroke="#00f" stroke-miterlimit="10" fill="none"/><path d="M240.953 134.117h8v11h-8zm0 0" fill="#fff"/><use xlink:href="#a" x="240.953" y="142.78" fill="#f00"/><path d="M218.938 172.484l9.488 7.508" stroke-width="1.2" stroke="#00f" stroke-miterlimit="10" fill="none"/><path d="M228.426 179.992l9.488 7.512" stroke-width="1.2" stroke="#000" stroke-miterlimit="10" fill="none"/><path d="M211.938 166.984h14v11h-14zm0 0" fill="#fff"/><g fill="#00f"><use xlink:href="#b" x="211.938" y="175.647"/><use xlink:href="#c" x="218.915" y="175.647"/></g><path d="M237.914 187.504l2.797 24.04M261.953 184.707l-24.04 2.797M240.71 211.543l24.04-2.797M264.75 208.746l-2.797-24.04M74.375 167.598l-20.148 13.406M67.852 144.293l6.523 23.305M54.227 181.004l-18.977-15.02M35.25 165.984l8.422-22.69M43.672 143.293l24.18 1" stroke-width="1.2" stroke="#000" stroke-miterlimit="10" fill="none"/></g></svg>