<svg xmlns="http://www.w3.org/2000/svg" xmlns:xlink="http://www.w3.org/1999/xlink" width="300pt" height="300pt" viewBox="0 0 300 300"><defs><symbol overflow="visible"><path d="M.453 1.594v-7.938h4.5v7.938zm.5-.5h3.5v-6.938h-3.5zm0 0"/></symbol><symbol overflow="visible" id="a"><path d="M5.797-6.063v.938c-.305-.27-.625-.473-.97-.61-.335-.144-.686-.218-1.06-.218-.75 0-1.33.23-1.736.687-.397.46-.592 1.12-.592 1.985 0 .866.195 1.526.593 1.983.408.46.986.688 1.736.688.375 0 .726-.066 1.062-.203.344-.132.664-.343.97-.625V-.5c-.314.21-.642.367-.986.47-.343.1-.714.155-1.11.155-.99 0-1.772-.3-2.343-.906C.784-1.396.5-2.228.5-3.28c0-1.052.285-1.88.86-2.486.57-.613 1.35-.92 2.343-.92.395-.002.766.053 1.11.155.35.104.68.26.984.468zm0 0"/></symbol><symbol overflow="visible" id="b"><path d="M.844-6.844h.812V0H.844zm0 0"/></symbol><symbol overflow="visible" id="c"><path d="M.89-6.563H2.08l2.906 5.485v-5.484h.86V0H4.656L1.75-5.484V0H.89zm0 0"/></symbol><symbol overflow="visible" id="d"><path d="M.89-6.563h.876v2.688H5v-2.688h.89V0H5v-3.125H1.766V0H.89zm0 0"/></symbol><symbol overflow="visible" id="e"><path d="M3.547-5.953c-.65 0-1.164.242-1.547.72-.375.48-.563 1.13-.563 1.952 0 .835.188 1.49.563 1.967.383.48.898.72 1.547.72.644 0 1.156-.24 1.53-.72.376-.476.564-1.132.564-1.968 0-.822-.187-1.474-.562-1.954-.375-.477-.887-.72-1.53-.72zm0-.734c.914 0 1.648.312 2.203.937.55.617.828 1.438.828 2.47 0 1.042-.277 1.87-.828 2.483-.555.617-1.29.922-2.203.922-.93 0-1.668-.305-2.22-.922C.774-1.41.5-2.237.5-3.28c0-1.033.273-1.853.828-2.47.55-.625 1.29-.938 2.22-.938zm0 0"/></symbol></defs><g><path fill="#fff" d="M0 0h300v300H0z"/><path d="M153.293 85.086l9.227 8.22" stroke-width="1.2" stroke="#0c0" stroke-miterlimit="10" fill="none"/><path d="M162.52 93.305l9.226 8.215" stroke-width="1.2" stroke="#000" stroke-miterlimit="10" fill="none"/><path d="M143.293 79.586h10v11h-10zm0 0" fill="#fff"/><g fill="#0c0"><use xlink:href="#a" x="143.293" y="88.249"/><use xlink:href="#b" x="149.807" y="88.249"/></g><path d="M171.746 101.52l23.46-7.762M175.918 106.266l18.77-6.21M166.742 125.72l5.004-24.2M195.207 93.758l18.45 16.433M213.656 110.19l-5.004 24.2M207.465 111.434l-4.004 19.36M208.652 134.39l-23.457 7.762M208.652 134.39l18.453 16.434M185.195 142.152l-18.453-16.433M187.215 136.168l-14.762-13.148M166.742 125.72l-23.46 7.764M143.28 133.484l-5.003 24.196M137.09 134.727l-4.004 19.355M124.832 117.05l18.45 16.434M138.277 157.68l-23.457 7.765M114.82 165.445l-4.965 11.313" stroke-width="1.2" stroke="#000" stroke-miterlimit="10" fill="none"/><path d="M109.855 176.758l-4.964 11.312" stroke-width="1.2" stroke="#00f" stroke-miterlimit="10" fill="none"/><path d="M96.367 149.012l18.453 16.433M102.078 146.313l14.762 13.144" stroke-width="1.2" stroke="#000" stroke-miterlimit="10" fill="none"/><path d="M104.89 188.07L92.6 186.848" stroke-width="1.2" stroke="#00f" stroke-miterlimit="10" fill="none"/><path d="M92.598 186.848l-12.293-1.227" stroke-width="1.2" stroke="#000" stroke-miterlimit="10" fill="none"/><path d="M97.89 182.57h14v11h-14zm0 0" fill="#fff"/><g fill="#00f"><use xlink:href="#c" x="97.891" y="191.233"/><use xlink:href="#d" x="104.868" y="191.233"/></g><path d="M78.133 183.69l-8.22 9.224" stroke-width="1.2" stroke="#000" stroke-miterlimit="10" fill="none"/><path d="M69.914 192.914L61.7 202.14" stroke-width="1.2" stroke="#f00" stroke-miterlimit="10" fill="none"/><path d="M82.473 187.555l-8.215 9.226" stroke-width="1.2" stroke="#000" stroke-miterlimit="10" fill="none"/><path d="M74.258 196.78l-8.22 9.228" stroke-width="1.2" stroke="#f00" stroke-miterlimit="10" fill="none"/><path d="M80.305 185.62l-5.27-24.14" stroke-width="1.2" stroke="#000" stroke-miterlimit="10" fill="none"/><path d="M55.87 198.574h8v11h-8zm0 0" fill="#fff"/><use xlink:href="#e" x="55.871" y="207.237" fill="#f00"/><path d="M75.035 161.48l-21.332 12.473M75.035 161.48l21.332-12.468M69.766 137.34l5.27 24.14M53.703 173.953L35.25 157.52M35.25 157.52l9.926-22.63M45.176 134.89l24.59 2.45M96.367 149.012l5.004-24.2M101.37 124.813l23.462-7.762M105.543 129.555l18.77-6.21M228.02 153.582l11.726-3.883" stroke-width="1.2" stroke="#000" stroke-miterlimit="10" fill="none"/><path d="M239.746 149.7l11.73-3.88" stroke-width="1.2" stroke="#f00" stroke-miterlimit="10" fill="none"/><path d="M226.19 148.063l11.732-3.883" stroke-width="1.2" stroke="#000" stroke-miterlimit="10" fill="none"/><path d="M237.922 144.18l11.73-3.88" stroke-width="1.2" stroke="#f00" stroke-miterlimit="10" fill="none"/><path d="M227.105 150.824l-2.503 12.098" stroke-width="1.2" stroke="#000" stroke-miterlimit="10" fill="none"/><path d="M224.602 162.922l-2.5 12.098" stroke-width="1.2" stroke="#00f" stroke-miterlimit="10" fill="none"/><path d="M246.563 137.56h8v11h-8zm0 0" fill="#fff"/><use xlink:href="#e" x="246.563" y="146.222" fill="#f00"/><path d="M222.102 175.02l9.222 8.218" stroke-width="1.2" stroke="#00f" stroke-miterlimit="10" fill="none"/><path d="M231.324 183.238l9.227 8.215" stroke-width="1.2" stroke="#000" stroke-miterlimit="10" fill="none"/><path d="M215.102 169.52h14v11h-14zm0 0" fill="#fff"/><g fill="#00f"><use xlink:href="#c" x="215.102" y="178.183"/><use xlink:href="#d" x="222.079" y="178.183"/></g><path d="M240.55 191.453l24.2 5.008M248.316 214.914l-7.765-23.46M264.75 196.46l-16.434 18.454" stroke-width="1.2" stroke="#000" stroke-miterlimit="10" fill="none"/></g></svg>