<svg xmlns="http://www.w3.org/2000/svg" xmlns:xlink="http://www.w3.org/1999/xlink" width="300pt" height="300pt" viewBox="0 0 300 300"><defs><symbol overflow="visible"><path d="M.453 1.594v-7.938h4.5v7.938zm.5-.5h3.5v-6.938h-3.5zm0 0"/></symbol><symbol overflow="visible" id="a"><path d="M4.813-6.344v.86c-.336-.157-.653-.27-.954-.344-.294-.082-.58-.125-.86-.125-.492 0-.867.094-1.125.28-.262.19-.39.454-.39.798 0 .293.085.512.265.656.176.15.504.267.984.36l.547.11c.658.125 1.142.352 1.454.672.32.312.485.734.485 1.265 0 .637-.216 1.122-.642 1.454-.43.325-1.055.485-1.875.485-.312 0-.648-.04-1-.11C1.36-.046 1-.147.625-.296v-.906c.352.2.703.35 1.047.453.35.105.695.156 1.03.156.5 0 .884-.097 1.157-.297.28-.196.42-.485.42-.86 0-.32-.1-.57-.296-.75-.2-.176-.523-.313-.968-.406l-.547-.11C1.81-3.148 1.33-3.36 1.03-3.64.74-3.923.595-4.313.595-4.813c0-.57.203-1.024.61-1.36.405-.344.968-.516 1.687-.516.313 0 .626.032.938.094.32.055.65.137.985.25zm0 0"/></symbol><symbol overflow="visible" id="b"><path d="M.89-6.563H2.08l2.906 5.485v-5.484h.86V0H4.656L1.75-5.484V0H.89zm0 0"/></symbol><symbol overflow="visible" id="c"><path d="M.89-6.563h.876v2.688H5v-2.688h.89V0H5v-3.125H1.766V0H.89zm0 0"/></symbol><symbol overflow="visible" id="e"><path d="M3.547-5.953c-.65 0-1.164.242-1.547.72-.375.48-.563 1.13-.563 1.952 0 .835.188 1.49.563 1.967.383.48.898.72 1.547.72.644 0 1.156-.24 1.53-.72.376-.476.564-1.132.564-1.968 0-.822-.187-1.474-.562-1.954-.375-.477-.887-.72-1.53-.72zm0-.734c.914 0 1.648.312 2.203.937.55.617.828 1.438.828 2.47 0 1.042-.277 1.87-.828 2.483-.555.617-1.29.922-2.203.922-.93 0-1.668-.305-2.22-.922C.774-1.41.5-2.237.5-3.28c0-1.033.273-1.853.828-2.47.55-.625 1.29-.938 2.22-.938zm0 0"/></symbol><symbol overflow="visible"><path d="M.406 1.422V-5.64h4V1.42zM.844.97h3.11v-6.157H.843zm0 0"/></symbol><symbol overflow="visible" id="d"><path d="M3.688-5.016v2.172h2.17v.672H3.69V0H3.03v-2.172H.845v-.672H3.03v-2.172zm0 0"/></symbol></defs><g><path fill="#fff" d="M0 0h300v300H0z"/><path d="M52.816 149.695l3.512-9.21" stroke-width="1.2" stroke="#cc0" stroke-miterlimit="10" fill="none"/><path d="M56.328 140.484l3.512-9.21M52.512 169.406l.152-9.855" stroke-width="1.2" stroke="#000" stroke-miterlimit="10" fill="none"/><path d="M52.664 159.55l.152-9.855" stroke-width="1.2" stroke="#cc0" stroke-miterlimit="10" fill="none"/><path d="M49.816 144.195h6v11h-6zm0 0" fill="#fff"/><use xlink:href="#a" x="49.816" y="152.858" fill="#cc0"/><path d="M59.84 131.273l12.902-14.906M38.97 140.523l20.87-9.25M42.938 143.84l16.695-7.4M72.742 116.367l9.68 1.863" stroke-width="1.2" stroke="#000" stroke-miterlimit="10" fill="none"/><path d="M82.422 118.23l9.68 1.86" stroke-width="1.2" stroke="#00f" stroke-miterlimit="10" fill="none"/><path d="M75.555 112.184l7.742 1.488" stroke-width="1.2" stroke="#000" stroke-miterlimit="10" fill="none"/><path d="M83.297 113.672l7.742 1.488" stroke-width="1.2" stroke="#00f" stroke-miterlimit="10" fill="none"/><path d="M66.285 97.742l6.457 18.625" stroke-width="1.2" stroke="#000" stroke-miterlimit="10" fill="none"/><path d="M92.102 120.09l6.45-7.453" stroke-width="1.2" stroke="#00f" stroke-miterlimit="10" fill="none"/><path d="M98.55 112.637l6.454-7.453" stroke-width="1.2" stroke="#000" stroke-miterlimit="10" fill="none"/><path d="M89.102 114.59h7v11h-7zm0 0" fill="#fff"/><use xlink:href="#b" x="89.102" y="123.253" fill="#00f"/><path d="M105.004 105.184l-3.23-9.313" stroke-width="1.2" stroke="#000" stroke-miterlimit="10" fill="none"/><path d="M101.773 95.87l-3.226-9.31" stroke-width="1.2" stroke="#00f" stroke-miterlimit="10" fill="none"/><path d="M99.977 104.84l-2.586-7.45" stroke-width="1.2" stroke="#000" stroke-miterlimit="10" fill="none"/><path d="M97.39 97.39l-2.58-7.453" stroke-width="1.2" stroke="#00f" stroke-miterlimit="10" fill="none"/><path d="M105.004 105.184l11.89 1.093" stroke-width="1.2" stroke="#000" stroke-miterlimit="10" fill="none"/><path d="M116.895 106.277l11.894 1.09M98.547 86.56l-9.68-1.865" stroke-width="1.2" stroke="#00f" stroke-miterlimit="10" fill="none"/><path d="M88.867 84.695l-9.68-1.86" stroke-width="1.2" stroke="#000" stroke-miterlimit="10" fill="none"/><path d="M95.547 81.06h7v11h-7zm0 0" fill="#fff"/><use xlink:href="#b" x="95.547" y="89.722" fill="#00f"/><path d="M79.188 82.836L66.284 97.742M81.402 87.363L71.082 99.29" stroke-width="1.2" stroke="#000" stroke-miterlimit="10" fill="none"/><path d="M128.79 107.367l8.456 5.063" stroke-width="1.2" stroke="#00f" stroke-miterlimit="10" fill="none"/><path d="M137.246 112.43l8.46 5.058" stroke-width="1.2" stroke="#000" stroke-miterlimit="10" fill="none"/><path d="M121.79 101.867h14v11h-14zm0 0" fill="#fff"/><g fill="#00f"><use xlink:href="#b" x="121.789" y="110.53"/><use xlink:href="#c" x="128.767" y="110.53"/></g><path d="M145.707 117.488l12.44 15.293M150.55 116.09l9.95 12.234M162.93 107.89l-17.223 9.598M158.148 132.78l6.457 18.626M164.605 151.406l-.304 19.71M164.605 151.406l14.942-13.683M162.965 146.617l11.957-10.95M164.3 171.117l-3.51 9.21" stroke-width="1.2" stroke="#000" stroke-miterlimit="10" fill="none"/><path d="M160.79 180.328l-3.513 9.21M157.277 189.54l-6.45 7.452" stroke-width="1.2" stroke="#00f" stroke-miterlimit="10" fill="none"/><path d="M150.828 196.992l-6.453 7.453" stroke-width="1.2" stroke="#000" stroke-miterlimit="10" fill="none"/><path d="M157.277 189.54l8.46 5.058" stroke-width="1.2" stroke="#00f" stroke-miterlimit="10" fill="none"/><path d="M165.738 194.598l8.457 5.058" stroke-width="1.2" stroke="#000" stroke-miterlimit="10" fill="none"/><path d="M147.277 182.04h21v15h-21zm0 0" fill="#fff"/><g fill="#00f"><use xlink:href="#b" x="147.277" y="194.141"/><use xlink:href="#c" x="154.255" y="194.141"/></g><use xlink:href="#d" x="161.27" y="189.258" fill="#00f"/><path d="M144.375 204.445l-17.223 9.594M127.152 214.04l-19.465 3.124M124.473 209.77l-15.575 2.5M107.688 217.164l-19.36-3.723M88.328 213.44l-8.457-5.057" stroke-width="1.2" stroke="#000" stroke-miterlimit="10" fill="none"/><path d="M79.87 208.383l-8.46-5.06M71.41 203.324l-6.22-7.644" stroke-width="1.2" stroke="#f00" stroke-miterlimit="10" fill="none"/><path d="M65.19 195.68l-6.22-7.65" stroke-width="1.2" stroke="#000" stroke-miterlimit="10" fill="none"/><path d="M67.41 197.824h8v11h-8zm0 0" fill="#fff"/><use xlink:href="#e" x="67.41" y="206.487" fill="#f00"/><path d="M58.97 188.03l-6.458-18.624M52.512 169.406l-17.262-9.52M53.027 164.39l-13.812-7.617M35.25 159.887l3.72-19.364M179.547 137.723l8.46 5.058" stroke-width="1.2" stroke="#000" stroke-miterlimit="10" fill="none"/><path d="M188.008 142.78l8.46 5.06" stroke-width="1.2" stroke="#f00" stroke-miterlimit="10" fill="none"/><path d="M179.547 137.723l.3-19.715" stroke-width="1.2" stroke="#000" stroke-miterlimit="10" fill="none"/><path d="M196.47 147.84l8.608-4.797" stroke-width="1.2" stroke="#f00" stroke-miterlimit="10" fill="none"/><path d="M205.078 143.043l8.61-4.797" stroke-width="1.2" stroke="#000" stroke-miterlimit="10" fill="none"/><path d="M192.47 142.34h8v11h-8zm0 0" fill="#fff"/><use xlink:href="#e" x="192.469" y="151.003" fill="#f00"/><path d="M213.688 138.246l16.92 10.117M230.61 148.363l8.61-4.797" stroke-width="1.2" stroke="#000" stroke-miterlimit="10" fill="none"/><path d="M239.22 143.566l8.612-4.8M247.832 138.766l8.457 5.058" stroke-width="1.2" stroke="#f00" stroke-miterlimit="10" fill="none"/><path d="M256.29 143.824l8.46 5.06" stroke-width="1.2" stroke="#000" stroke-miterlimit="10" fill="none"/><path d="M243.832 133.266h8v11h-8zm0 0" fill="#fff"/><use xlink:href="#e" x="243.832" y="141.929" fill="#f00"/><path d="M179.848 118.008L162.93 107.89M175.777 120.98l-13.535-8.093" stroke-width="1.2" stroke="#000" stroke-miterlimit="10" fill="none"/></g></svg>