<svg xmlns="http://www.w3.org/2000/svg" xmlns:xlink="http://www.w3.org/1999/xlink" width="300pt" height="300pt" viewBox="0 0 300 300"><defs><symbol overflow="visible"><path d="M.453 1.594v-7.938h4.5v7.938zm.5-.5h3.5v-6.938h-3.5zm0 0"/></symbol><symbol overflow="visible" id="a"><path d="M3.547-5.953c-.65 0-1.164.242-1.547.72-.375.48-.563 1.13-.563 1.952 0 .835.188 1.49.563 1.967.383.48.898.72 1.547.72.644 0 1.156-.24 1.53-.72.376-.476.564-1.132.564-1.968 0-.822-.187-1.474-.562-1.954-.375-.477-.887-.72-1.53-.72zm0-.734c.914 0 1.648.312 2.203.937.55.617.828 1.438.828 2.47 0 1.042-.277 1.87-.828 2.483-.555.617-1.29.922-2.203.922-.93 0-1.668-.305-2.22-.922C.774-1.41.5-2.237.5-3.28c0-1.033.273-1.853.828-2.47.55-.625 1.29-.938 2.22-.938zm0 0"/></symbol><symbol overflow="visible" id="b"><path d="M.89-6.563H2.08l2.906 5.485v-5.484h.86V0H4.656L1.75-5.484V0H.89zm0 0"/></symbol><symbol overflow="visible" id="c"><path d="M.89-6.563h.876v2.688H5v-2.688h.89V0H5v-3.125H1.766V0H.89zm0 0"/></symbol><symbol overflow="visible"><path d="M.406 1.422V-5.64h4V1.42zM.844.97h3.11v-6.157H.843zm0 0"/></symbol><symbol overflow="visible" id="d"><path d="M3.688-5.016v2.172h2.17v.672H3.69V0H3.03v-2.172H.845v-.672H3.03v-2.172zm0 0"/></symbol></defs><g><path fill="#fff" d="M0 0h300v300H0z"/><path d="M162.578 169.395l-1.598-8.46" stroke-width="1.2" stroke="#f00" stroke-miterlimit="10" fill="none"/><path d="M160.98 160.934l-1.593-8.46" stroke-width="1.2" stroke="#000" stroke-miterlimit="10" fill="none"/><path d="M158.594 170.145l-1.594-8.46" stroke-width="1.2" stroke="#f00" stroke-miterlimit="10" fill="none"/><path d="M157 161.684l-1.594-8.46" stroke-width="1.2" stroke="#000" stroke-miterlimit="10" fill="none"/><path d="M156.586 164.27h8v11h-8zm0 0" fill="#fff"/><use xlink:href="#a" x="156.586" y="172.933" fill="#f00"/><path d="M157.398 152.848L149.273 150" stroke-width="1.2" stroke="#000" stroke-miterlimit="10" fill="none"/><path d="M149.273 150l-8.125-2.848" stroke-width="1.2" stroke="#00f" stroke-miterlimit="10" fill="none"/><path d="M170.453 141.63l-13.055 11.218" stroke-width="1.2" stroke="#000" stroke-miterlimit="10" fill="none"/><path d="M141.148 147.152l-1.593-8.46" stroke-width="1.2" stroke="#00f" stroke-miterlimit="10" fill="none"/><path d="M139.555 138.69l-1.594-8.46" stroke-width="1.2" stroke="#000" stroke-miterlimit="10" fill="none"/><path d="M141.148 147.152l-6.527 5.61" stroke-width="1.2" stroke="#00f" stroke-miterlimit="10" fill="none"/><path d="M134.62 152.762l-6.53 5.61" stroke-width="1.2" stroke="#000" stroke-miterlimit="10" fill="none"/><path d="M138.148 141.652h7v11h-7zm0 0" fill="#fff"/><use xlink:href="#b" x="138.148" y="150.315" fill="#00f"/><path d="M137.96 130.23l6.528-5.61" stroke-width="1.2" stroke="#000" stroke-miterlimit="10" fill="none"/><path d="M144.488 124.62l6.532-5.612" stroke-width="1.2" stroke="#00f" stroke-miterlimit="10" fill="none"/><path d="M141.906 132.184l5.223-4.493" stroke-width="1.2" stroke="#000" stroke-miterlimit="10" fill="none"/><path d="M147.13 127.69l5.222-4.487M151.02 119.008l8.12 2.85" stroke-width="1.2" stroke="#00f" stroke-miterlimit="10" fill="none"/><path d="M159.14 121.86l8.126 2.847" stroke-width="1.2" stroke="#000" stroke-miterlimit="10" fill="none"/><path d="M148.02 113.508h7v11h-7zm0 0" fill="#fff"/><use xlink:href="#b" x="148.02" y="122.171" fill="#00f"/><path d="M167.266 124.707l3.187 16.922M171.566 125.648l2.55 13.536M180.324 113.484l-13.058 11.223M170.453 141.63l16.25 5.694M186.703 147.324l13.06-11.222M185.367 143.13l10.446-8.978M199.762 136.102l8.12 2.85" stroke-width="1.2" stroke="#000" stroke-miterlimit="10" fill="none"/><path d="M207.883 138.953l8.125 2.848" stroke-width="1.2" stroke="#00f" stroke-miterlimit="10" fill="none"/><path d="M199.762 136.102l-3.192-16.918" stroke-width="1.2" stroke="#000" stroke-miterlimit="10" fill="none"/><path d="M216.008 141.8l1.594 8.462" stroke-width="1.2" stroke="#00f" stroke-miterlimit="10" fill="none"/><path d="M217.602 150.262l1.593 8.457M229.066 130.578l-6.53 5.613" stroke-width="1.2" stroke="#000" stroke-miterlimit="10" fill="none"/><path d="M222.535 136.19l-6.527 5.61" stroke-width="1.2" stroke="#00f" stroke-miterlimit="10" fill="none"/><path d="M213.008 136.3h7v11h-7zm0 0" fill="#fff"/><use xlink:href="#b" x="213.008" y="144.964" fill="#00f"/><path d="M219.195 158.72l16.25 5.698M235.445 164.418l6.528-5.61" stroke-width="1.2" stroke="#000" stroke-miterlimit="10" fill="none"/><path d="M241.973 158.81l6.53-5.615M248.504 153.195l-1.598-8.457" stroke-width="1.2" stroke="#00f" stroke-miterlimit="10" fill="none"/><path d="M246.906 144.738l-1.594-8.46" stroke-width="1.2" stroke="#000" stroke-miterlimit="10" fill="none"/><path d="M248.504 153.195l8.12 2.852" stroke-width="1.2" stroke="#00f" stroke-miterlimit="10" fill="none"/><path d="M256.625 156.047l8.125 2.848" stroke-width="1.2" stroke="#000" stroke-miterlimit="10" fill="none"/><path d="M238.504 145.695h21v15h-21zm0 0" fill="#fff"/><g fill="#00f"><use xlink:href="#b" x="238.504" y="157.797"/><use xlink:href="#c" x="245.481" y="157.797"/></g><use xlink:href="#d" x="252.496" y="152.914" fill="#00f"/><path d="M245.313 136.277l-16.247-5.7M196.57 119.184l-16.246-5.7M193.605 122.438l-12.996-4.56M128.09 158.37l-16.246-5.694M125.125 161.625l-12.996-4.56M131.28 175.293l-3.19-16.922M111.844 152.676l-13.06 11.222M98.785 163.898l3.188 16.918M103.086 164.84l2.55 13.535M98.785 163.898l-16.246-5.7M101.973 180.816l16.25 5.7M118.223 186.516l13.058-11.223M116.887 182.32l10.445-8.976M131.28 175.293l16.247 5.7M81.22 156.664l-6.532 5.61" stroke-width="1.2" stroke="#000" stroke-miterlimit="10" fill="none"/><path d="M74.688 162.273l-6.528 5.61" stroke-width="1.2" stroke="#f00" stroke-miterlimit="10" fill="none"/><path d="M83.86 159.734l-6.532 5.614" stroke-width="1.2" stroke="#000" stroke-miterlimit="10" fill="none"/><path d="M77.328 165.348l-6.527 5.61" stroke-width="1.2" stroke="#f00" stroke-miterlimit="10" fill="none"/><path d="M82.54 158.2l-1.6-8.462" stroke-width="1.2" stroke="#000" stroke-miterlimit="10" fill="none"/><path d="M80.94 149.738l-1.592-8.457" stroke-width="1.2" stroke="#00f" stroke-miterlimit="10" fill="none"/><path d="M61.48 163.922h8v11h-8zm0 0" fill="#fff"/><use xlink:href="#a" x="61.48" y="172.585" fill="#f00"/><path d="M79.348 141.28l-8.12-2.85" stroke-width="1.2" stroke="#00f" stroke-miterlimit="10" fill="none"/><path d="M71.227 138.43l-8.125-2.848" stroke-width="1.2" stroke="#000" stroke-miterlimit="10" fill="none"/><path d="M72.348 135.78h14v11h-14zm0 0" fill="#fff"/><g fill="#00f"><use xlink:href="#b" x="72.348" y="144.444"/><use xlink:href="#c" x="79.325" y="144.444"/></g><path d="M63.102 135.582l-14.16 9.797M58.16 119.09l4.942 16.492M48.94 145.38l-13.69-10.442M35.25 134.938l5.7-16.247M40.95 118.69l17.21.4" stroke-width="1.2" stroke="#000" stroke-miterlimit="10" fill="none"/></g></svg>