<svg xmlns="http://www.w3.org/2000/svg" xmlns:xlink="http://www.w3.org/1999/xlink" width="300pt" height="300pt" viewBox="0 0 300 300"><defs><symbol overflow="visible"><path d="M.547 1.938V-7.75h5.5v9.688zm.625-.61h4.266v-8.47H1.171zm0 0"/></symbol><symbol overflow="visible" id="a"><path d="M4.328-7.28c-.78 0-1.406.296-1.875.89-.46.585-.687 1.382-.687 2.39 0 1.012.226 1.813.687 2.406.47.586 1.094.875 1.875.875.79 0 1.414-.288 1.875-.874.457-.593.688-1.394.688-2.406 0-1.008-.23-1.805-.687-2.39-.46-.594-1.086-.89-1.875-.89zm0-.892c1.125 0 2.024.383 2.703 1.14C7.708-6.28 8.048-5.27 8.048-4c0 1.262-.34 2.273-1.016 3.03C6.353-.22 5.454.157 4.33.157S2.3-.22 1.625-.97c-.668-.75-1-1.757-1-3.03 0-1.27.332-2.28 1-3.03.676-.76 1.578-1.142 2.703-1.142zm0 0"/></symbol><symbol overflow="visible" id="b"><path d="M1.078-8.016h1.47l3.546 6.704v-6.704h1.062V0H5.688L2.124-6.703V0H1.078zm0 0"/></symbol><symbol overflow="visible" id="c"><path d="M1.078-8.016h1.094v3.282H6.11v-3.282h1.077V0H6.11v-3.813H2.17V0H1.078zm0 0"/></symbol><symbol overflow="visible"><path d="M.453 1.594v-7.938h4.5v7.938zm.5-.5h3.5v-6.938h-3.5zm0 0"/></symbol><symbol overflow="visible" id="d"><path d="M4.14-5.64v2.452h2.454v.735H4.14V0h-.734v-2.453H.953v-.735h2.453V-5.64zm0 0"/></symbol></defs><g><path fill="#fff" d="M0 0h300v300H0z"/><path d="M205.387 156.172l-28.535-3.324.585 9.968zm0 0"/><path d="M177.145 157.832l-6.344 12.645" stroke-width="1.2" stroke="#f00" stroke-miterlimit="10" fill="none"/><path d="M170.8 170.477l-6.343 12.644" stroke-width="1.2" stroke="#000" stroke-miterlimit="10" fill="none"/><path d="M173.145 151.332h9v13h-9zm0 0" fill="#fff"/><use xlink:href="#a" x="173.145" y="161.233" fill="#f00"/><path d="M205.387 156.172l15.558 23.633M205.387 156.172l12.687-25.29M220.945 179.805l14.125-.828" stroke-width="1.2" stroke="#000" stroke-miterlimit="10" fill="none"/><path d="M235.07 178.977l14.12-.832M249.19 178.145l7.78 11.816" stroke-width="1.2" stroke="#00f" stroke-miterlimit="10" fill="none"/><path d="M256.97 189.96l7.78 11.817" stroke-width="1.2" stroke="#000" stroke-miterlimit="10" fill="none"/><path d="M249.19 178.145l6.345-12.645" stroke-width="1.2" stroke="#00f" stroke-miterlimit="10" fill="none"/><path d="M255.535 165.5l6.34-12.645" stroke-width="1.2" stroke="#000" stroke-miterlimit="10" fill="none"/><path d="M237.19 170.145h24v16h-24zm0 0" fill="#fff"/><g fill="#00f"><use xlink:href="#b" x="237.191" y="183.277"/><use xlink:href="#c" x="245.175" y="183.277"/></g><use xlink:href="#d" x="253.199" y="178.395" fill="#00f"/><path d="M218.074 130.883l28.242-1.66M220.508 124.07l22.594-1.324M202.512 107.254l15.562 23.63M246.316 129.223l12.688-25.29M259.004 103.934l-15.563-23.63M251.887 105.23l-12.45-18.902M243.44 80.305L215.2 81.96M215.2 81.96l-12.688 25.294M219.88 87.477l-10.146 20.23M161.676 184.953l7.78 11.817" stroke-width="1.2" stroke="#000" stroke-miterlimit="10" fill="none"/><path d="M169.457 196.77l7.78 11.816" stroke-width="1.2" stroke="#f00" stroke-miterlimit="10" fill="none"/><path d="M167.238 181.293l7.778 11.816" stroke-width="1.2" stroke="#000" stroke-miterlimit="10" fill="none"/><path d="M175.016 193.11l7.78 11.812" stroke-width="1.2" stroke="#f00" stroke-miterlimit="10" fill="none"/><path d="M164.457 183.12l-14.12.833" stroke-width="1.2" stroke="#000" stroke-miterlimit="10" fill="none"/><path d="M150.336 183.953l-14.12.828" stroke-width="1.2" stroke="#00f" stroke-miterlimit="10" fill="none"/><path d="M176.016 200.254h9v13h-9zm0 0" fill="#fff"/><use xlink:href="#a" x="176.016" y="210.155" fill="#f00"/><path d="M136.215 184.78l-8.973-10.936" stroke-width="1.2" stroke="#00f" stroke-miterlimit="10" fill="none"/><path d="M127.242 173.844l-8.972-10.938M120.953 208.61l7.63-11.915" stroke-width="1.2" stroke="#000" stroke-miterlimit="10" fill="none"/><path d="M128.582 196.695l7.633-11.914" stroke-width="1.2" stroke="#00f" stroke-miterlimit="10" fill="none"/><path d="M132.215 178.28h8v13h-8zm0 0" fill="#fff"/><use xlink:href="#b" x="132.215" y="188.183" fill="#00f"/><path d="M118.27 162.906l-26.352 10.31M91.918 173.215l1.66 28.242M64.547 166.063l27.37 7.152M65.602 173.22l21.898 5.718M93.578 201.457l-13.172 5.152" stroke-width="1.2" stroke="#000" stroke-miterlimit="10" fill="none"/><path d="M80.406 206.61L67.23 211.76" stroke-width="1.2" stroke="#00f" stroke-miterlimit="10" fill="none"/><path d="M88.52 196.29l-10.54 4.12" stroke-width="1.2" stroke="#000" stroke-miterlimit="10" fill="none"/><path d="M77.98 200.41l-10.54 4.12" stroke-width="1.2" stroke="#00f" stroke-miterlimit="10" fill="none"/><path d="M93.578 201.457l27.375 7.152" stroke-width="1.2" stroke="#000" stroke-miterlimit="10" fill="none"/><path d="M67.23 211.762l-17.945-21.875" stroke-width="1.2" stroke="#00f" stroke-miterlimit="10" fill="none"/><path d="M63.23 205.262h8v13h-8zm0 0" fill="#fff"/><use xlink:href="#b" x="63.23" y="215.163" fill="#00f"/><path d="M49.285 189.887l7.63-11.91" stroke-width="1.2" stroke="#00f" stroke-miterlimit="10" fill="none"/><path d="M56.914 177.977l7.633-11.915" stroke-width="1.2" stroke="#000" stroke-miterlimit="10" fill="none"/><path d="M41.285 183.387h17v13h-17zm0 0" fill="#fff"/><g fill="#00f"><use xlink:href="#b" x="41.285" y="193.288"/><use xlink:href="#c" x="49.269" y="193.288"/></g><path d="M64.547 166.063l-5.156-13.176" stroke-width="1.2" stroke="#000" stroke-miterlimit="10" fill="none"/><path d="M59.39 152.887l-5.152-13.172M54.238 139.715l8.832-11.05" stroke-width="1.2" stroke="#00f" stroke-miterlimit="10" fill="none"/><path d="M63.07 128.664l8.836-11.05" stroke-width="1.2" stroke="#000" stroke-miterlimit="10" fill="none"/><path d="M46.238 133.215h17v13h-17zm0 0" fill="#fff"/><g fill="#00f"><use xlink:href="#b" x="46.238" y="143.116"/><use xlink:href="#c" x="54.222" y="143.116"/></g><path d="M71.406 120.906l13.985 2.125" stroke-width="1.2" stroke="#000" stroke-miterlimit="10" fill="none"/><path d="M85.39 123.03l13.99 2.122" stroke-width="1.2" stroke="#f00" stroke-miterlimit="10" fill="none"/><path d="M72.406 114.324l13.985 2.125" stroke-width="1.2" stroke="#000" stroke-miterlimit="10" fill="none"/><path d="M86.39 116.45l13.99 2.124" stroke-width="1.2" stroke="#f00" stroke-miterlimit="10" fill="none"/><path d="M71.906 117.613L61.598 91.266" stroke-width="1.2" stroke="#000" stroke-miterlimit="10" fill="none"/><path d="M95.88 115.363h9v13h-9zm0 0" fill="#fff"/><use xlink:href="#a" x="95.879" y="125.265" fill="#f00"/><path d="M61.598 91.266l26.35-10.31M61.598 91.266L35.25 101.57M61.598 91.266L51.293 64.914M120.953 208.61l-9.973 26.476M120.953 208.61l25.29 12.683" stroke-width="1.2" stroke="#000" stroke-miterlimit="10" fill="none"/></g></svg>