<svg xmlns="http://www.w3.org/2000/svg" xmlns:xlink="http://www.w3.org/1999/xlink" width="300pt" height="300pt" viewBox="0 0 300 300"><defs><symbol overflow="visible"><path d="M.453 1.594v-7.938h4.5v7.938zm.5-.5h3.5v-6.938h-3.5zm0 0"/></symbol><symbol overflow="visible" id="a"><path d="M3.547-5.953c-.65 0-1.164.242-1.547.72-.375.48-.563 1.13-.563 1.952 0 .835.188 1.49.563 1.967.383.48.898.72 1.547.72.644 0 1.156-.24 1.53-.72.376-.476.564-1.132.564-1.968 0-.822-.187-1.474-.562-1.954-.375-.477-.887-.72-1.53-.72zm0-.734c.914 0 1.648.312 2.203.937.55.617.828 1.438.828 2.47 0 1.042-.277 1.87-.828 2.483-.555.617-1.29.922-2.203.922-.93 0-1.668-.305-2.22-.922C.774-1.41.5-2.237.5-3.28c0-1.033.273-1.853.828-2.47.55-.625 1.29-.938 2.22-.938zm0 0"/></symbol><symbol overflow="visible" id="b"><path d="M.89-6.563H2.08l2.906 5.485v-5.484h.86V0H4.656L1.75-5.484V0H.89zm0 0"/></symbol><symbol overflow="visible" id="c"><path d="M.89-6.563h.876v2.688H5v-2.688h.89V0H5v-3.125H1.766V0H.89zm0 0"/></symbol></defs><g><path fill="#fff" d="M0 0h300v300H0z"/><path d="M201.41 140.863l6.63 5.81" stroke-width="1.2" stroke="#f00" stroke-miterlimit="10" fill="none"/><path d="M208.04 146.672l6.628 5.812" stroke-width="1.2" stroke="#000" stroke-miterlimit="10" fill="none"/><path d="M201.41 140.863l-8.347 2.836" stroke-width="1.2" stroke="#f00" stroke-miterlimit="10" fill="none"/><path d="M193.063 143.7l-8.348 2.84" stroke-width="1.2" stroke="#000" stroke-miterlimit="10" fill="none"/><path d="M197.41 135.363h8v11h-8zm0 0" fill="#fff"/><use xlink:href="#a" x="197.41" y="144.026" fill="#f00"/><path d="M214.668 152.484l16.695-5.675M231.363 146.81l6.63 5.807" stroke-width="1.2" stroke="#000" stroke-miterlimit="10" fill="none"/><path d="M237.992 152.617l6.633 5.813" stroke-width="1.2" stroke="#00f" stroke-miterlimit="10" fill="none"/><path d="M235.422 144.852l5.305 4.648" stroke-width="1.2" stroke="#000" stroke-miterlimit="10" fill="none"/><path d="M240.727 149.5l5.304 4.645" stroke-width="1.2" stroke="#00f" stroke-miterlimit="10" fill="none"/><path d="M234.797 129.516l-3.434 17.293" stroke-width="1.2" stroke="#000" stroke-miterlimit="10" fill="none"/><path d="M244.625 158.43l8.348-2.84" stroke-width="1.2" stroke="#00f" stroke-miterlimit="10" fill="none"/><path d="M252.973 155.59l8.343-2.836" stroke-width="1.2" stroke="#000" stroke-miterlimit="10" fill="none"/><path d="M241.625 152.93h7v11h-7zm0 0" fill="#fff"/><use xlink:href="#b" x="241.625" y="161.593" fill="#00f"/><path d="M261.316 152.754l3.434-17.293M257.59 150.22l2.746-13.837M264.75 135.46l-13.262-11.62M251.488 123.84l-16.69 5.676M251.156 128.336l-13.355 4.54M184.715 146.54l-13.262-11.622M180.656 148.496l-10.61-9.297M181.28 163.832l3.435-17.293M171.453 134.918l-16.69 5.676M154.762 140.594l-3.434 17.293M158.488 143.13l-2.746 13.835M151.328 157.887l13.262 11.62M151.328 157.887l-16.69 5.675M164.59 169.508l16.69-5.676M164.922 165.012l13.355-4.54M132.602 163.156l-1.72 8.65" stroke-width="1.2" stroke="#000" stroke-miterlimit="10" fill="none"/><path d="M130.883 171.805l-1.715 8.644" stroke-width="1.2" stroke="#f00" stroke-miterlimit="10" fill="none"/><path d="M136.672 163.965l-1.72 8.648" stroke-width="1.2" stroke="#000" stroke-miterlimit="10" fill="none"/><path d="M134.953 172.613l-1.715 8.645" stroke-width="1.2" stroke="#f00" stroke-miterlimit="10" fill="none"/><path d="M134.637 163.563l-6.633-5.813" stroke-width="1.2" stroke="#000" stroke-miterlimit="10" fill="none"/><path d="M128.004 157.75l-6.63-5.81" stroke-width="1.2" stroke="#00f" stroke-miterlimit="10" fill="none"/><path d="M127.203 175.355h8v11h-8zm0 0" fill="#fff"/><use xlink:href="#a" x="127.203" y="184.019" fill="#f00"/><path d="M121.375 151.94l-8.348 2.837" stroke-width="1.2" stroke="#00f" stroke-miterlimit="10" fill="none"/><path d="M113.027 154.777l-8.347 2.84" stroke-width="1.2" stroke="#000" stroke-miterlimit="10" fill="none"/><path d="M114.375 146.44h14v11h-14zm0 0" fill="#fff"/><g fill="#00f"><use xlink:href="#b" x="114.375" y="155.104"/><use xlink:href="#c" x="121.353" y="155.104"/></g><path d="M104.68 157.617l-13.258-11.62M100.62 159.574l-10.608-9.297M101.25 174.91l3.43-17.293M91.422 145.996l-16.695 5.672M74.727 151.668l-3.434 17.297M78.453 154.207l-2.746 13.836M74.727 151.668L61.465 140.05M71.293 168.965l13.262 11.617M84.555 180.582l16.695-5.672M84.89 176.09l13.352-4.54M101.25 174.91l13.258 11.617M61.465 140.05L52.867 142" stroke-width="1.2" stroke="#000" stroke-miterlimit="10" fill="none"/><path d="M52.867 142l-8.597 1.95" stroke-width="1.2" stroke="#00f" stroke-miterlimit="10" fill="none"/><path d="M63.07 122.492l-1.605 17.56M58.78 123.87l-1.284 14.048" stroke-width="1.2" stroke="#000" stroke-miterlimit="10" fill="none"/><path d="M44.27 143.95l-4.508-7.575" stroke-width="1.2" stroke="#00f" stroke-miterlimit="10" fill="none"/><path d="M39.762 136.375L35.25 128.8" stroke-width="1.2" stroke="#000" stroke-miterlimit="10" fill="none"/><path d="M46.934 140.313l-3.61-6.063" stroke-width="1.2" stroke="#00f" stroke-miterlimit="10" fill="none"/><path d="M43.324 134.25l-3.61-6.06" stroke-width="1.2" stroke="#000" stroke-miterlimit="10" fill="none"/><path d="M41.27 138.45h7v11h-7zm0 0" fill="#fff"/><use xlink:href="#b" x="41.27" y="147.112" fill="#00f"/><path d="M35.25 128.8l5.81-6.632" stroke-width="1.2" stroke="#000" stroke-miterlimit="10" fill="none"/><path d="M41.06 122.168l5.81-6.63M46.87 115.54l8.103 3.476" stroke-width="1.2" stroke="#00f" stroke-miterlimit="10" fill="none"/><path d="M54.973 119.016l8.097 3.476" stroke-width="1.2" stroke="#000" stroke-miterlimit="10" fill="none"/><path d="M39.87 110.04h14v11h-14zm0 0" fill="#fff"/><g fill="#00f"><use xlink:href="#b" x="39.871" y="118.702"/><use xlink:href="#c" x="46.849" y="118.702"/></g><path d="M63.07 122.492l15.153-9.02" stroke-width="1.2" stroke="#000" stroke-miterlimit="10" fill="none"/></g></svg>