<svg xmlns="http://www.w3.org/2000/svg" xmlns:xlink="http://www.w3.org/1999/xlink" width="300pt" height="300pt" viewBox="0 0 300 300"><defs><symbol overflow="visible"><path d="M.453 1.594v-7.938h4.5v7.938zm.5-.5h3.5v-6.938h-3.5zm0 0"/></symbol><symbol overflow="visible" id="a"><path d="M3.547-5.953c-.65 0-1.164.242-1.547.72-.375.48-.563 1.13-.563 1.952 0 .835.188 1.49.563 1.967.383.48.898.72 1.547.72.644 0 1.156-.24 1.53-.72.376-.476.564-1.132.564-1.968 0-.822-.187-1.474-.562-1.954-.375-.477-.887-.72-1.53-.72zm0-.734c.914 0 1.648.312 2.203.937.55.617.828 1.438.828 2.47 0 1.042-.277 1.87-.828 2.483-.555.617-1.29.922-2.203.922-.93 0-1.668-.305-2.22-.922C.774-1.41.5-2.237.5-3.28c0-1.033.273-1.853.828-2.47.55-.625 1.29-.938 2.22-.938zm0 0"/></symbol><symbol overflow="visible" id="b"><path d="M.89-6.563H2.08l2.906 5.485v-5.484h.86V0H4.656L1.75-5.484V0H.89zm0 0"/></symbol><symbol overflow="visible" id="c"><path d="M.89-6.563h.876v2.688H5v-2.688h.89V0H5v-3.125H1.766V0H.89zm0 0"/></symbol></defs><g><path fill="#fff" d="M0 0h300v300H0z"/><path d="M97.207 157.203l-6.89-5.293" stroke-width="1.2" stroke="#f00" stroke-miterlimit="10" fill="none"/><path d="M90.316 151.91l-6.894-5.293" stroke-width="1.2" stroke="#000" stroke-miterlimit="10" fill="none"/><path d="M97.207 157.203l8.027-3.324" stroke-width="1.2" stroke="#f00" stroke-miterlimit="10" fill="none"/><path d="M105.234 153.88l8.032-3.325" stroke-width="1.2" stroke="#000" stroke-miterlimit="10" fill="none"/><path d="M93.207 151.703h8v11h-8zm0 0" fill="#fff"/><use xlink:href="#a" x="93.207" y="160.366" fill="#f00"/><path d="M83.422 146.617l-16.06 6.65M67.363 153.266l-6.89-5.293" stroke-width="1.2" stroke="#000" stroke-miterlimit="10" fill="none"/><path d="M60.473 147.973l-6.895-5.29" stroke-width="1.2" stroke="#00f" stroke-miterlimit="10" fill="none"/><path d="M63.496 155.45l-5.516-4.23" stroke-width="1.2" stroke="#000" stroke-miterlimit="10" fill="none"/><path d="M57.98 151.22l-5.51-4.236" stroke-width="1.2" stroke="#00f" stroke-miterlimit="10" fill="none"/><path d="M65.094 170.496l2.27-17.23" stroke-width="1.2" stroke="#000" stroke-miterlimit="10" fill="none"/><path d="M53.578 142.684l-8.027 3.324" stroke-width="1.2" stroke="#00f" stroke-miterlimit="10" fill="none"/><path d="M45.55 146.008l-8.027 3.32" stroke-width="1.2" stroke="#000" stroke-miterlimit="10" fill="none"/><path d="M50.578 137.184h7v11h-7zm0 0" fill="#fff"/><use xlink:href="#b" x="50.578" y="145.847" fill="#00f"/><path d="M37.523 149.328l-2.273 17.23M41.348 151.586L39.53 165.37M35.25 166.56l13.785 10.58M49.035 177.14l16.06-6.644M49.078 172.7l12.844-5.317M113.266 150.555l13.785 10.582M117.133 148.37l11.027 8.466M115.54 133.324l-2.274 17.23M127.05 161.137l16.06-6.645M143.11 154.492l2.27-17.23M139.28 152.234l1.818-13.785M145.38 137.262l-13.786-10.582M145.38 137.262l16.058-6.65M131.594 126.68l-16.055 6.644M131.555 131.12l-12.848 5.317M163.465 130.883l1.137-8.617" stroke-width="1.2" stroke="#000" stroke-miterlimit="10" fill="none"/><path d="M164.602 122.266l1.136-8.614" stroke-width="1.2" stroke="#f00" stroke-miterlimit="10" fill="none"/><path d="M159.41 130.348l1.137-8.618" stroke-width="1.2" stroke="#000" stroke-miterlimit="10" fill="none"/><path d="M160.547 121.73l1.137-8.613" stroke-width="1.2" stroke="#f00" stroke-miterlimit="10" fill="none"/><path d="M161.438 130.613l6.89 5.293" stroke-width="1.2" stroke="#000" stroke-miterlimit="10" fill="none"/><path d="M168.328 135.906l6.895 5.29" stroke-width="1.2" stroke="#00f" stroke-miterlimit="10" fill="none"/><path d="M159.71 107.883h8v11h-8zm0 0" fill="#fff"/><use xlink:href="#a" x="159.711" y="116.546" fill="#f00"/><path d="M175.223 141.195l8.027-3.32" stroke-width="1.2" stroke="#00f" stroke-miterlimit="10" fill="none"/><path d="M183.25 137.875l8.03-3.324" stroke-width="1.2" stroke="#000" stroke-miterlimit="10" fill="none"/><path d="M168.223 135.695h14v11h-14zm0 0" fill="#fff"/><g fill="#00f"><use xlink:href="#b" x="168.223" y="144.358"/><use xlink:href="#c" x="175.2" y="144.358"/></g><path d="M191.28 134.55l13.786 10.583M195.148 132.363l11.028 8.47M193.55 117.32l-2.27 17.23M205.066 145.133l16.055-6.65M221.12 138.484l2.275-17.226M217.297 136.23l1.816-13.785M221.12 138.484l13.786 10.586M223.395 121.258l-13.786-10.582M209.61 110.676l-16.06 6.644M209.566 115.117l-12.843 5.317M193.55 117.32l-13.784-10.582M234.906 149.07l8.03-3.324" stroke-width="1.2" stroke="#000" stroke-miterlimit="10" fill="none"/><path d="M242.938 145.746l8.027-3.324" stroke-width="1.2" stroke="#00f" stroke-miterlimit="10" fill="none"/><path d="M238.078 152.184l6.422-2.66" stroke-width="1.2" stroke="#000" stroke-miterlimit="10" fill="none"/><path d="M244.5 149.523l6.422-2.66" stroke-width="1.2" stroke="#00f" stroke-miterlimit="10" fill="none"/><path d="M232.637 166.297l2.27-17.227" stroke-width="1.2" stroke="#000" stroke-miterlimit="10" fill="none"/><path d="M250.965 142.422l6.894 5.293" stroke-width="1.2" stroke="#00f" stroke-miterlimit="10" fill="none"/><path d="M257.86 147.715l6.89 5.29" stroke-width="1.2" stroke="#000" stroke-miterlimit="10" fill="none"/><path d="M247.965 136.922h7v11h-7zm0 0" fill="#fff"/><use xlink:href="#b" x="247.965" y="145.585" fill="#00f"/><path d="M264.75 153.004l-1.137 8.617" stroke-width="1.2" stroke="#000" stroke-miterlimit="10" fill="none"/><path d="M263.613 161.62l-1.136 8.614" stroke-width="1.2" stroke="#00f" stroke-miterlimit="10" fill="none"/><path d="M260.47 154.195l-.91 6.89" stroke-width="1.2" stroke="#000" stroke-miterlimit="10" fill="none"/><path d="M259.56 161.086l-.908 6.89M262.477 170.234l-8.028 3.325" stroke-width="1.2" stroke="#00f" stroke-miterlimit="10" fill="none"/><path d="M254.45 173.56l-8.028 3.323" stroke-width="1.2" stroke="#000" stroke-miterlimit="10" fill="none"/><path d="M259.477 164.734h7v11h-7zm0 0" fill="#fff"/><use xlink:href="#b" x="259.477" y="173.397" fill="#00f"/><path d="M246.422 176.883l-2.906 8.187" stroke-width="1.2" stroke="#000" stroke-miterlimit="10" fill="none"/><path d="M243.516 185.07l-2.903 8.192" stroke-width="1.2" stroke="#00f" stroke-miterlimit="10" fill="none"/><path d="M232.637 166.297l13.785 10.586M236.504 164.113l11.027 8.465" stroke-width="1.2" stroke="#000" stroke-miterlimit="10" fill="none"/><path d="M240.613 193.262l-8.683-.23" stroke-width="1.2" stroke="#00f" stroke-miterlimit="10" fill="none"/><path d="M231.93 193.03l-8.688-.225" stroke-width="1.2" stroke="#000" stroke-miterlimit="10" fill="none"/><path d="M238.984 189.13l-6.95-.185" stroke-width="1.2" stroke="#00f" stroke-miterlimit="10" fill="none"/><path d="M232.035 188.945l-6.95-.183" stroke-width="1.2" stroke="#000" stroke-miterlimit="10" fill="none"/><path d="M237.613 187.762h7v11h-7zm0 0" fill="#fff"/><use xlink:href="#b" x="237.613" y="196.425" fill="#00f"/><path d="M223.242 192.805l-2.465-8.332" stroke-width="1.2" stroke="#000" stroke-miterlimit="10" fill="none"/><path d="M220.777 184.473l-2.468-8.332M218.31 176.14l7.163-4.92" stroke-width="1.2" stroke="#00f" stroke-miterlimit="10" fill="none"/><path d="M225.473 171.22l7.164-4.923" stroke-width="1.2" stroke="#000" stroke-miterlimit="10" fill="none"/><path d="M211.31 170.64h14v11h-14zm0 0" fill="#fff"/><g fill="#00f"><use xlink:href="#b" x="211.309" y="179.304"/><use xlink:href="#c" x="218.286" y="179.304"/></g></g></svg>