<svg xmlns="http://www.w3.org/2000/svg" xmlns:xlink="http://www.w3.org/1999/xlink" width="300pt" height="300pt" viewBox="0 0 300 300"><defs><symbol overflow="visible"><path d="M.453 1.594v-7.938h4.5v7.938zm.5-.5h3.5v-6.938h-3.5zm0 0"/></symbol><symbol overflow="visible" id="a"><path d="M3.547-5.953c-.65 0-1.164.242-1.547.72-.375.48-.563 1.13-.563 1.952 0 .835.188 1.49.563 1.967.383.48.898.72 1.547.72.644 0 1.156-.24 1.53-.72.376-.476.564-1.132.564-1.968 0-.822-.187-1.474-.562-1.954-.375-.477-.887-.72-1.53-.72zm0-.734c.914 0 1.648.312 2.203.937.55.617.828 1.438.828 2.47 0 1.042-.277 1.87-.828 2.483-.555.617-1.29.922-2.203.922-.93 0-1.668-.305-2.22-.922C.774-1.41.5-2.237.5-3.28c0-1.033.273-1.853.828-2.47.55-.625 1.29-.938 2.22-.938zm0 0"/></symbol><symbol overflow="visible" id="b"><path d="M.89-6.563H2.08l2.906 5.485v-5.484h.86V0H4.656L1.75-5.484V0H.89zm0 0"/></symbol><symbol overflow="visible" id="c"><path d="M.89-6.563h.876v2.688H5v-2.688h.89V0H5v-3.125H1.766V0H.89zm0 0"/></symbol><symbol overflow="visible"><path d="M.406 1.422V-5.64h4V1.42zM.844.97h3.11v-6.157H.843zm0 0"/></symbol><symbol overflow="visible" id="d"><path d="M1.53-.672h2.767V0H.594v-.672c.29-.3.695-.71 1.22-1.234.518-.532.842-.867.967-1.016.26-.28.44-.52.533-.72.1-.194.156-.39.156-.577 0-.31-.11-.565-.33-.764-.218-.196-.5-.297-.843-.297-.25 0-.516.046-.797.14-.273.085-.563.214-.875.39v-.797c.32-.133.617-.234.89-.297.282-.062.536-.093.766-.093.603 0 1.083.152 1.44.453.362.304.546.703.546 1.203 0 .24-.047.468-.14.686-.095.22-.26.477-.485.766-.074.074-.288.293-.64.656-.344.356-.836.856-1.47 1.5zm0 0"/></symbol></defs><g><path fill="#fff" d="M0 0h300v300H0z"/><path d="M241.47 184.445l11.64 1.817" stroke-width="1.2" stroke="#f00" stroke-miterlimit="10" fill="none"/><path d="M253.11 186.262l11.64 1.816" stroke-width="1.2" stroke="#000" stroke-miterlimit="10" fill="none"/><path d="M241.47 184.445l-4.247-10.992" stroke-width="1.2" stroke="#f00" stroke-miterlimit="10" fill="none"/><path d="M237.223 173.453l-4.25-10.988" stroke-width="1.2" stroke="#000" stroke-miterlimit="10" fill="none"/><path d="M237.47 178.945h8v11h-8zm0 0" fill="#fff"/><use xlink:href="#a" x="237.469" y="187.608" fill="#f00"/><path d="M232.973 162.465l-23.282-3.633M231.5 156.625l-18.625-2.906M247.762 144.12l-14.79 18.345M209.69 158.832l-8.49-21.98M197.805 179.176l11.886-20.344M201.2 136.852l14.784-18.344M206.992 138.496l11.832-14.676M201.2 136.852l-22.48-7.063M215.984 118.508l23.282 3.633M239.266 122.14l8.496 21.98M234.945 126.336l6.797 17.586M181.46 129.39l-1.694-11.656" stroke-width="1.2" stroke="#000" stroke-miterlimit="10" fill="none"/><path d="M179.766 117.734l-1.696-11.66" stroke-width="1.2" stroke="#f00" stroke-miterlimit="10" fill="none"/><path d="M175.977 130.188l-1.696-11.657" stroke-width="1.2" stroke="#000" stroke-miterlimit="10" fill="none"/><path d="M174.28 118.53l-1.694-11.66" stroke-width="1.2" stroke="#f00" stroke-miterlimit="10" fill="none"/><path d="M178.72 129.79l-19.54 13.17" stroke-width="1.2" stroke="#000" stroke-miterlimit="10" fill="none"/><path d="M171.328 100.973h8v11h-8zm0 0" fill="#fff"/><use xlink:href="#a" x="171.328" y="109.636" fill="#f00"/><path d="M159.18 142.96l-1.883 23.49M153.465 144.867l-1.508 18.793M139.78 129.586l19.4 13.375M157.297 166.45l-21.28 10.113M157.297 166.45l17.19 16.116M136.016 176.563l-19.403-13.375M137.223 170.66l-15.52-10.7M116.613 163.188l-10.64 5.058" stroke-width="1.2" stroke="#000" stroke-miterlimit="10" fill="none"/><path d="M105.973 168.246l-10.64 5.055" stroke-width="1.2" stroke="#00f" stroke-miterlimit="10" fill="none"/><path d="M116.613 163.188l1.887-23.49" stroke-width="1.2" stroke="#000" stroke-miterlimit="10" fill="none"/><path d="M95.332 173.3l-9.7-6.687" stroke-width="1.2" stroke="#00f" stroke-miterlimit="10" fill="none"/><path d="M85.633 166.613l-9.7-6.687" stroke-width="1.2" stroke="#000" stroke-miterlimit="10" fill="none"/><path d="M88.332 167.8h14v11h-14zm0 0" fill="#fff"/><g fill="#00f"><use xlink:href="#b" x="88.332" y="176.464"/><use xlink:href="#c" x="95.31" y="176.464"/></g><path d="M75.934 159.926l1.882-23.488M70.594 157.133l1.508-18.79M54.648 170.04l21.286-10.114M77.816 136.438l-19.398-13.375M58.418 123.063l-21.285 10.113M58.668 129.082l-17.027 8.09M37.133 133.176l-1.883 23.488M35.25 156.664l19.398 13.375M40.336 153.438l15.52 10.7M54.648 170.04l-.94 11.745" stroke-width="1.2" stroke="#000" stroke-miterlimit="10" fill="none"/><path d="M53.707 181.785l-.94 11.742" stroke-width="1.2" stroke="#00f" stroke-miterlimit="10" fill="none"/><path d="M43.766 185.527h19v16h-19zm0 0" fill="#fff"/><use xlink:href="#c" x="43.766" y="194.19" fill="#00f"/><use xlink:href="#d" x="50.78" y="199.073" fill="#00f"/><use xlink:href="#b" x="55.73" y="194.19" fill="#00f"/><path d="M118.5 139.7l21.28-10.114M123.008 143.695l17.023-8.09M174.488 182.566l23.317-3.39" stroke-width="1.2" stroke="#000" stroke-miterlimit="10" fill="none"/></g></svg>