<svg xmlns="http://www.w3.org/2000/svg" xmlns:xlink="http://www.w3.org/1999/xlink" width="300pt" height="300pt" viewBox="0 0 300 300"><defs><symbol overflow="visible"><path d="M.453 1.594v-7.938h4.5v7.938zm.5-.5h3.5v-6.938h-3.5zm0 0"/></symbol><symbol overflow="visible" id="a"><path d="M5.797-6.063v.938c-.305-.27-.625-.473-.97-.61-.335-.144-.686-.218-1.06-.218-.75 0-1.33.23-1.736.687-.397.46-.592 1.12-.592 1.985 0 .866.195 1.526.593 1.983.408.46.986.688 1.736.688.375 0 .726-.066 1.062-.203.344-.132.664-.343.97-.625V-.5c-.314.21-.642.367-.986.47-.343.1-.714.155-1.11.155-.99 0-1.772-.3-2.343-.906C.784-1.396.5-2.228.5-3.28c0-1.052.285-1.88.86-2.486.57-.613 1.35-.92 2.343-.92.395-.002.766.053 1.11.155.35.104.68.26.984.468zm0 0"/></symbol><symbol overflow="visible" id="b"><path d="M.844-6.844h.812V0H.844zm0 0"/></symbol><symbol overflow="visible" id="c"><path d="M.89-6.563H2.08l2.906 5.485v-5.484h.86V0H4.656L1.75-5.484V0H.89zm0 0"/></symbol><symbol overflow="visible" id="d"><path d="M.89-6.563h.876v2.688H5v-2.688h.89V0H5v-3.125H1.766V0H.89zm0 0"/></symbol><symbol overflow="visible" id="g"><path d="M.89-6.563h3.766v.75h-2.89v1.938h2.61v.734h-2.61V0H.89zm0 0"/></symbol><symbol overflow="visible"><path d="M.406 1.422V-5.64h4V1.42zM.844.97h3.11v-6.157H.843zm0 0"/></symbol><symbol overflow="visible" id="e"><path d="M3.688-5.016v2.172h2.17v.672H3.69V0H3.03v-2.172H.845v-.672H3.03v-2.172zm0 0"/></symbol><symbol overflow="visible" id="f"><path d="M3.25-3.14c.375.074.664.242.875.5.22.25.328.562.328.937 0 .586-.2 1.03-.594 1.344-.4.313-.962.47-1.688.47-.25 0-.508-.028-.766-.08C1.156-.007.89-.077.61-.17v-.766c.218.125.456.227.718.297.258.062.53.093.813.093.5 0 .88-.098 1.14-.297.26-.195.392-.484.392-.86 0-.343-.125-.61-.375-.796-.242-.195-.574-.297-1-.297h-.672v-.64h.703c.383 0 .68-.08.89-.235.208-.156.313-.38.313-.672 0-.3-.108-.53-.327-.687-.21-.165-.512-.25-.906-.25-.22 0-.453.026-.703.077-.242.043-.512.117-.813.22v-.705c.302-.082.583-.144.845-.187.258-.04.508-.063.75-.063.594 0 1.063.137 1.406.407.353.272.533.64.533 1.108 0 .324-.094.594-.282.813-.178.22-.436.376-.78.47zm0 0"/></symbol></defs><g><path fill="#fff" d="M0 0h300v300H0z"/><path d="M63.43 216.297l5.535-11.332" stroke-width="1.2" stroke="#0c0" stroke-miterlimit="10" fill="none"/><path d="M68.965 204.965l5.54-11.332" stroke-width="1.2" stroke="#000" stroke-miterlimit="10" fill="none"/><path d="M53.43 210.797h10v11h-10zm0 0" fill="#fff"/><g fill="#0c0"><use xlink:href="#a" x="53.43" y="219.46"/><use xlink:href="#b" x="59.943" y="219.46"/></g><path d="M74.504 193.633l25.164-1.738M76.613 187.54l20.13-1.392M60.414 172.71l14.09 20.923M99.668 191.895l11.078-22.665M110.746 169.23l12.582-.87" stroke-width="1.2" stroke="#000" stroke-miterlimit="10" fill="none"/><path d="M123.328 168.36l12.582-.868" stroke-width="1.2" stroke="#00f" stroke-miterlimit="10" fill="none"/><path d="M110.746 169.23l-14.09-20.92M104.414 170.453L93.14 153.715" stroke-width="1.2" stroke="#000" stroke-miterlimit="10" fill="none"/><path d="M135.91 167.492l5.54-11.332" stroke-width="1.2" stroke="#00f" stroke-miterlimit="10" fill="none"/><path d="M141.45 156.16l5.538-11.332" stroke-width="1.2" stroke="#000" stroke-miterlimit="10" fill="none"/><path d="M128.91 161.992h14v11h-14zm0 0" fill="#fff"/><g fill="#00f"><use xlink:href="#c" x="128.91" y="170.655"/><use xlink:href="#d" x="135.888" y="170.655"/></g><path d="M146.988 144.828l-7.047-10.465" stroke-width="1.2" stroke="#000" stroke-miterlimit="10" fill="none"/><path d="M139.94 134.363l-7.042-10.46" stroke-width="1.2" stroke="#00f" stroke-miterlimit="10" fill="none"/><path d="M146.988 144.828l25.164-1.742M149.094 138.73l20.133-1.39" stroke-width="1.2" stroke="#000" stroke-miterlimit="10" fill="none"/><path d="M132.898 123.902l-24.976-3.53" stroke-width="1.2" stroke="#00f" stroke-miterlimit="10" fill="none"/><path d="M143.973 101.238l-5.54 11.332" stroke-width="1.2" stroke="#000" stroke-miterlimit="10" fill="none"/><path d="M138.434 112.57l-5.536 11.332" stroke-width="1.2" stroke="#00f" stroke-miterlimit="10" fill="none"/><path d="M129.898 118.402h7v11h-7zm0 0" fill="#fff"/><use xlink:href="#c" x="129.898" y="127.065" fill="#00f"/><path d="M107.922 120.37l-2.184-12.42" stroke-width="1.2" stroke="#00f" stroke-miterlimit="10" fill="none"/><path d="M105.738 107.95l-2.18-12.423" stroke-width="1.2" stroke="#000" stroke-miterlimit="10" fill="none"/><path d="M113.328 116.863l-1.742-9.937" stroke-width="1.2" stroke="#00f" stroke-miterlimit="10" fill="none"/><path d="M111.586 106.926l-1.746-9.942" stroke-width="1.2" stroke="#000" stroke-miterlimit="10" fill="none"/><path d="M104.922 114.87h7v11h-7zm0 0" fill="#fff"/><use xlink:href="#c" x="104.922" y="123.534" fill="#00f"/><path d="M103.56 95.527l22.28-11.824M125.84 83.703l18.133 17.535M123.527 89.723l14.508 14.03M143.973 101.238l12.582-.867" stroke-width="1.2" stroke="#000" stroke-miterlimit="10" fill="none"/><path d="M156.555 100.37l12.582-.87M169.137 99.5l7.047 10.46" stroke-width="1.2" stroke="#00f" stroke-miterlimit="10" fill="none"/><path d="M176.184 109.96l7.043 10.462" stroke-width="1.2" stroke="#000" stroke-miterlimit="10" fill="none"/><path d="M165.625 104.906l5.633 8.37" stroke-width="1.2" stroke="#00f" stroke-miterlimit="10" fill="none"/><path d="M171.258 113.277l5.637 8.368" stroke-width="1.2" stroke="#000" stroke-miterlimit="10" fill="none"/><path d="M159.137 92h21v15h-21zm0 0" fill="#fff"/><g fill="#00f"><use xlink:href="#c" x="159.137" y="104.102"/><use xlink:href="#d" x="166.114" y="104.102"/></g><use xlink:href="#e" x="173.129" y="99.219" fill="#00f"/><path d="M183.227 120.422l12.582-.867" stroke-width="1.2" stroke="#000" stroke-miterlimit="10" fill="none"/><path d="M195.81 119.555l12.58-.87" stroke-width="1.2" stroke="#00f" stroke-miterlimit="10" fill="none"/><path d="M183.227 120.422l-11.075 22.664" stroke-width="1.2" stroke="#000" stroke-miterlimit="10" fill="none"/><path d="M208.39 118.684l7.048 10.46" stroke-width="1.2" stroke="#00f" stroke-miterlimit="10" fill="none"/><path d="M215.438 129.145l7.042 10.46" stroke-width="1.2" stroke="#000" stroke-miterlimit="10" fill="none"/><path d="M201.39 113.184h14v11h-14zm0 0" fill="#fff"/><g fill="#00f"><use xlink:href="#c" x="201.391" y="121.847"/><use xlink:href="#d" x="208.368" y="121.847"/></g><path d="M222.48 139.605l-11.074 22.665M247.648 137.867l-25.168 1.738M211.406 162.27l14.09 20.925M225.496 183.195l25.164-1.742M250.66 181.453l7.047 10.465" stroke-width="1.2" stroke="#000" stroke-miterlimit="10" fill="none"/><path d="M257.707 191.918l7.043 10.46" stroke-width="1.2" stroke="#00f" stroke-miterlimit="10" fill="none"/><path d="M250.66 181.453l11.078-22.664" stroke-width="1.2" stroke="#000" stroke-miterlimit="10" fill="none"/><path d="M251.75 192.88h26v19h-26zm0 0" fill="#fff"/><g fill="#00f"><use xlink:href="#c" x="251.75" y="204.98"/><use xlink:href="#d" x="258.728" y="204.98"/></g><use xlink:href="#f" x="265.742" y="209.863" fill="#00f"/><use xlink:href="#e" x="270.692" y="200.098" fill="#00f"/><path d="M261.738 158.79l-14.09-20.923M172.152 143.086l14.09 20.926M186.242 164.012l-11.078 22.664M175.164 186.676l14.09 20.922M96.656 148.31l-25.164 1.737M71.492 150.047L60.414 172.71M75.715 154.918l-8.86 18.133M60.414 172.71l-12.582.872" stroke-width="1.2" stroke="#000" stroke-miterlimit="10" fill="none"/><path d="M47.832 173.582l-12.582.867" stroke-width="1.2" stroke="#3cc" stroke-miterlimit="10" fill="none"/><path d="M29.25 168.95h6v11h-6zm0 0" fill="#fff"/><use xlink:href="#g" x="29.25" y="177.612" fill="#3cc"/></g></svg>