<svg xmlns="http://www.w3.org/2000/svg" xmlns:xlink="http://www.w3.org/1999/xlink" width="300pt" height="300pt" viewBox="0 0 300 300"><defs><symbol overflow="visible"><path d="M.453 1.594v-7.938h4.5v7.938zm.5-.5h3.5v-6.938h-3.5zm0 0"/></symbol><symbol overflow="visible" id="a"><path d="M5.797-6.063v.938c-.305-.27-.625-.473-.97-.61-.335-.144-.686-.218-1.06-.218-.75 0-1.33.23-1.736.687-.397.46-.592 1.12-.592 1.985 0 .866.195 1.526.593 1.983.408.46.986.688 1.736.688.375 0 .726-.066 1.062-.203.344-.132.664-.343.97-.625V-.5c-.314.21-.642.367-.986.47-.343.1-.714.155-1.11.155-.99 0-1.772-.3-2.343-.906C.784-1.396.5-2.228.5-3.28c0-1.052.285-1.88.86-2.486.57-.613 1.35-.92 2.343-.92.395-.002.766.053 1.11.155.35.104.68.26.984.468zm0 0"/></symbol><symbol overflow="visible" id="b"><path d="M.844-6.844h.812V0H.844zm0 0"/></symbol><symbol overflow="visible" id="c"><path d="M.89-6.563H2.08l2.906 5.485v-5.484h.86V0H4.656L1.75-5.484V0H.89zm0 0"/></symbol><symbol overflow="visible" id="d"><path d="M.89-6.563h.876v2.688H5v-2.688h.89V0H5v-3.125H1.766V0H.89zm0 0"/></symbol><symbol overflow="visible" id="g"><path d="M.89-6.563h3.766v.75h-2.89v1.938h2.61v.734h-2.61V0H.89zm0 0"/></symbol><symbol overflow="visible"><path d="M.406 1.422V-5.64h4V1.42zM.844.97h3.11v-6.157H.843zm0 0"/></symbol><symbol overflow="visible" id="e"><path d="M3.688-5.016v2.172h2.17v.672H3.69V0H3.03v-2.172H.845v-.672H3.03v-2.172zm0 0"/></symbol><symbol overflow="visible" id="f"><path d="M3.25-3.14c.375.074.664.242.875.5.22.25.328.562.328.937 0 .586-.2 1.03-.594 1.344-.4.313-.962.47-1.688.47-.25 0-.508-.028-.766-.08C1.156-.007.89-.077.61-.17v-.766c.218.125.456.227.718.297.258.062.53.093.813.093.5 0 .88-.098 1.14-.297.26-.195.392-.484.392-.86 0-.343-.125-.61-.375-.796-.242-.195-.574-.297-1-.297h-.672v-.64h.703c.383 0 .68-.08.89-.235.208-.156.313-.38.313-.672 0-.3-.108-.53-.327-.687-.21-.165-.512-.25-.906-.25-.22 0-.453.026-.703.077-.242.043-.512.117-.813.22v-.705c.302-.082.583-.144.845-.187.258-.04.508-.063.75-.063.594 0 1.063.137 1.406.407.353.272.533.64.533 1.108 0 .324-.094.594-.282.813-.178.22-.436.376-.78.47zm0 0"/></symbol></defs><g><path fill="#fff" d="M0 0h300v300H0z"/><path d="M62.57 215.78l5.805-11.237" stroke-width="1.2" stroke="#0c0" stroke-miterlimit="10" fill="none"/><path d="M68.375 204.543l5.81-11.238" stroke-width="1.2" stroke="#000" stroke-miterlimit="10" fill="none"/><path d="M52.57 210.28h10v11h-10zm0 0" fill="#fff"/><g fill="#0c0"><use xlink:href="#a" x="52.57" y="218.944"/><use xlink:href="#b" x="59.084" y="218.944"/></g><path d="M74.184 193.305l25.27-1.184M76.434 187.238l20.214-.945M60.523 172.008l13.66 21.297M99.453 192.12l11.613-22.475M111.066 169.645l12.637-.594" stroke-width="1.2" stroke="#000" stroke-miterlimit="10" fill="none"/><path d="M123.703 169.05l12.637-.59" stroke-width="1.2" stroke="#00f" stroke-miterlimit="10" fill="none"/><path d="M111.066 169.645l-13.66-21.297M104.69 170.727L93.763 153.69" stroke-width="1.2" stroke="#000" stroke-miterlimit="10" fill="none"/><path d="M136.34 168.46l5.805-11.237" stroke-width="1.2" stroke="#00f" stroke-miterlimit="10" fill="none"/><path d="M142.145 157.223l5.808-11.24" stroke-width="1.2" stroke="#000" stroke-miterlimit="10" fill="none"/><path d="M129.34 162.96h14v11h-14zm0 0" fill="#fff"/><g fill="#00f"><use xlink:href="#c" x="129.34" y="171.624"/><use xlink:href="#d" x="136.317" y="171.624"/></g><path d="M147.953 145.984l-6.832-10.648" stroke-width="1.2" stroke="#000" stroke-miterlimit="10" fill="none"/><path d="M141.12 135.336l-6.827-10.65" stroke-width="1.2" stroke="#00f" stroke-miterlimit="10" fill="none"/><path d="M147.953 145.984l25.274-1.183M150.203 139.918l20.215-.945" stroke-width="1.2" stroke="#000" stroke-miterlimit="10" fill="none"/><path d="M134.293 124.688l-24.97-4.098" stroke-width="1.2" stroke="#00f" stroke-miterlimit="10" fill="none"/><path d="M145.906 102.21l-5.808 11.24" stroke-width="1.2" stroke="#000" stroke-miterlimit="10" fill="none"/><path d="M140.098 113.45l-5.805 11.237" stroke-width="1.2" stroke="#00f" stroke-miterlimit="10" fill="none"/><path d="M131.293 119.188h7v11h-7zm0 0" fill="#fff"/><use xlink:href="#c" x="131.293" y="127.851" fill="#00f"/><path d="M109.324 120.59l-1.906-12.504" stroke-width="1.2" stroke="#00f" stroke-miterlimit="10" fill="none"/><path d="M107.418 108.086l-1.91-12.508" stroke-width="1.2" stroke="#000" stroke-miterlimit="10" fill="none"/><path d="M114.828 117.19L113.3 107.19" stroke-width="1.2" stroke="#00f" stroke-miterlimit="10" fill="none"/><path d="M113.3 107.188l-1.527-10.008" stroke-width="1.2" stroke="#000" stroke-miterlimit="10" fill="none"/><path d="M106.324 115.09h7v11h-7zm0 0" fill="#fff"/><use xlink:href="#c" x="106.324" y="123.753" fill="#00f"/><path d="M105.508 95.578l22.605-11.36M128.113 84.22l17.793 17.99M125.66 90.203l14.23 14.395M145.906 102.21l12.633-.593" stroke-width="1.2" stroke="#000" stroke-miterlimit="10" fill="none"/><path d="M158.54 101.617l12.636-.59M171.176 101.027l6.832 10.65" stroke-width="1.2" stroke="#00f" stroke-miterlimit="10" fill="none"/><path d="M178.008 111.676l6.828 10.648" stroke-width="1.2" stroke="#000" stroke-miterlimit="10" fill="none"/><path d="M167.53 106.37l5.466 8.52" stroke-width="1.2" stroke="#00f" stroke-miterlimit="10" fill="none"/><path d="M172.996 114.89l5.465 8.516" stroke-width="1.2" stroke="#000" stroke-miterlimit="10" fill="none"/><path d="M161.176 93.527h21v15h-21zm0 0" fill="#fff"/><g fill="#00f"><use xlink:href="#c" x="161.176" y="105.629"/><use xlink:href="#d" x="168.153" y="105.629"/></g><use xlink:href="#e" x="175.168" y="100.746" fill="#00f"/><path d="M184.836 122.324l12.637-.594" stroke-width="1.2" stroke="#000" stroke-miterlimit="10" fill="none"/><path d="M197.473 121.73l12.636-.59" stroke-width="1.2" stroke="#00f" stroke-miterlimit="10" fill="none"/><path d="M184.836 122.324l-11.61 22.477" stroke-width="1.2" stroke="#000" stroke-miterlimit="10" fill="none"/><path d="M210.11 121.14l6.83 10.65" stroke-width="1.2" stroke="#00f" stroke-miterlimit="10" fill="none"/><path d="M216.94 131.79l6.83 10.648" stroke-width="1.2" stroke="#000" stroke-miterlimit="10" fill="none"/><path d="M203.11 115.64h14v11h-14zm0 0" fill="#fff"/><g fill="#00f"><use xlink:href="#c" x="203.109" y="124.304"/><use xlink:href="#d" x="210.087" y="124.304"/></g><path d="M223.77 142.438l-11.614 22.476M249.043 141.254l-25.273 1.184M212.156 164.914l13.66 21.293M225.816 186.207l25.274-1.18M251.09 185.027l6.832 10.65" stroke-width="1.2" stroke="#000" stroke-miterlimit="10" fill="none"/><path d="M257.922 195.676l6.828 10.644" stroke-width="1.2" stroke="#00f" stroke-miterlimit="10" fill="none"/><path d="M251.09 185.027l11.613-22.48" stroke-width="1.2" stroke="#000" stroke-miterlimit="10" fill="none"/><path d="M251.75 196.82h26v19h-26zm0 0" fill="#fff"/><g fill="#00f"><use xlink:href="#c" x="251.75" y="208.922"/><use xlink:href="#d" x="258.728" y="208.922"/></g><use xlink:href="#f" x="265.742" y="213.805" fill="#00f"/><use xlink:href="#e" x="270.692" y="204.039" fill="#00f"/><path d="M262.703 162.547l-13.66-21.293M173.227 144.8l13.66 21.298M186.887 166.098l-11.614 22.476M97.406 148.348l-25.27 1.183M72.137 149.53L60.523 172.01M76.262 154.508l-9.29 17.984M60.523 172.008l-12.636.59" stroke-width="1.2" stroke="#000" stroke-miterlimit="10" fill="none"/><path d="M47.887 172.598l-12.637.593" stroke-width="1.2" stroke="#3cc" stroke-miterlimit="10" fill="none"/><path d="M29.25 167.69h6v11h-6zm0 0" fill="#fff"/><use xlink:href="#g" x="29.25" y="176.354" fill="#3cc"/></g></svg>