<svg xmlns="http://www.w3.org/2000/svg" xmlns:xlink="http://www.w3.org/1999/xlink" width="300pt" height="300pt" viewBox="0 0 300 300"><defs><symbol overflow="visible"><path d="M.547 1.938V-7.75h5.5v9.688zm.625-.61h4.266v-8.47H1.171zm0 0"/></symbol><symbol overflow="visible" id="a"><path d="M1.078-8.016h4.61v.907H2.171v2.36h3.172v.922H2.172V0H1.078zm0 0"/></symbol><symbol overflow="visible" id="b"><path d="M1.078-8.016h1.47l3.546 6.704v-6.704h1.062V0H5.688L2.124-6.703V0H1.078zm0 0"/></symbol><symbol overflow="visible" id="c"><path d="M1.078-8.016h1.094v3.282H6.11v-3.282h1.077V0H6.11v-3.813H2.17V0H1.078zm0 0"/></symbol><symbol overflow="visible" id="d"><path d="M4.328-7.28c-.78 0-1.406.296-1.875.89-.46.585-.687 1.382-.687 2.39 0 1.012.226 1.813.687 2.406.47.586 1.094.875 1.875.875.79 0 1.414-.288 1.875-.874.457-.593.688-1.394.688-2.406 0-1.008-.23-1.805-.687-2.39-.46-.594-1.086-.89-1.875-.89zm0-.892c1.125 0 2.024.383 2.703 1.14C7.708-6.28 8.048-5.27 8.048-4c0 1.262-.34 2.273-1.016 3.03C6.353-.22 5.454.157 4.33.157S2.3-.22 1.625-.97c-.668-.75-1-1.757-1-3.03 0-1.27.332-2.28 1-3.03.676-.76 1.578-1.142 2.703-1.142zm0 0"/></symbol></defs><g><path fill="#fff" d="M0 0h300v300H0z"/><path d="M49.758 247.96l2.898-13.394" stroke-width="1.2" stroke="#3cc" stroke-miterlimit="10" fill="none"/><path d="M52.656 234.566l2.9-13.398" stroke-width="1.2" stroke="#000" stroke-miterlimit="10" fill="none"/><path d="M46.758 241.46h7v13h-7zm0 0" fill="#fff"/><use xlink:href="#a" x="46.758" y="251.362" fill="#3cc"/><path d="M55.555 221.168L35.25 202.754M57.86 214.55l-16.247-14.734M81.656 212.793l-26.1 8.375M35.25 202.754l5.797-26.793M41.047 175.96l26.098-8.374M45.625 181.266l20.883-6.703M67.145 167.586l2.898-13.4" stroke-width="1.2" stroke="#000" stroke-miterlimit="10" fill="none"/><path d="M70.043 154.188l2.898-13.395" stroke-width="1.2" stroke="#00f" stroke-miterlimit="10" fill="none"/><path d="M67.145 167.586L87.45 186" stroke-width="1.2" stroke="#000" stroke-miterlimit="10" fill="none"/><path d="M72.94 140.793l13.052-4.188" stroke-width="1.2" stroke="#00f" stroke-miterlimit="10" fill="none"/><path d="M85.992 136.605l13.05-4.19" stroke-width="1.2" stroke="#000" stroke-miterlimit="10" fill="none"/><path d="M64.94 134.293h17v13h-17zm0 0" fill="#fff"/><g fill="#00f"><use xlink:href="#b" x="64.941" y="144.194"/><use xlink:href="#c" x="72.925" y="144.194"/></g><path d="M96.875 134.805l10.152 9.207" stroke-width="1.2" stroke="#000" stroke-miterlimit="10" fill="none"/><path d="M107.027 144.012l10.153 9.207" stroke-width="1.2" stroke="#f00" stroke-miterlimit="10" fill="none"/><path d="M101.207 130.027l10.152 9.207" stroke-width="1.2" stroke="#000" stroke-miterlimit="10" fill="none"/><path d="M111.36 139.234l10.152 9.207" stroke-width="1.2" stroke="#f00" stroke-miterlimit="10" fill="none"/><path d="M99.043 132.414l5.793-26.79" stroke-width="1.2" stroke="#000" stroke-miterlimit="10" fill="none"/><path d="M115.348 144.332h9v13h-9zm0 0" fill="#fff"/><use xlink:href="#d" x="115.348" y="154.233" fill="#f00"/><path d="M104.836 105.625l26.102-8.38M105.477 98.645l20.878-6.704M84.53 87.207l20.306 18.418M130.938 97.246l5.792-26.793M136.73 70.453L116.426 52.04M130.367 73.39l-16.242-14.734M116.426 52.04l-26.098 8.378M90.328 60.418l-5.797 26.79M96.05 64.457l-4.636 21.438M87.45 186l-5.794 26.793M80.566 187.316L75.93 208.75M81.656 212.793L91.81 222" stroke-width="1.2" stroke="#000" stroke-miterlimit="10" fill="none"/><path d="M91.81 222l10.15 9.207M101.96 231.207l13.052-4.187" stroke-width="1.2" stroke="#00f" stroke-miterlimit="10" fill="none"/><path d="M115.012 227.02l13.05-4.192" stroke-width="1.2" stroke="#000" stroke-miterlimit="10" fill="none"/><path d="M93.96 224.707h17v13h-17zm0 0" fill="#fff"/><g fill="#00f"><use xlink:href="#b" x="93.961" y="234.608"/><use xlink:href="#c" x="101.944" y="234.608"/></g><path d="M128.063 222.828l5.792-26.79M134.945 221.516l4.637-21.434M148.367 241.246l-20.304-18.418M133.855 196.04l26.102-8.38M159.957 187.66l.867-13.68" stroke-width="1.2" stroke="#000" stroke-miterlimit="10" fill="none"/><path d="M160.824 173.98l.87-13.675" stroke-width="1.2" stroke="#f00" stroke-miterlimit="10" fill="none"/><path d="M180.262 206.074l-20.305-18.414M173.898 209.012l-16.246-14.73" stroke-width="1.2" stroke="#000" stroke-miterlimit="10" fill="none"/><path d="M161.695 160.305l11.235-7.852" stroke-width="1.2" stroke="#f00" stroke-miterlimit="10" fill="none"/><path d="M172.93 152.453l11.234-7.848" stroke-width="1.2" stroke="#000" stroke-miterlimit="10" fill="none"/><path d="M157.695 153.805h9v13h-9zm0 0" fill="#fff"/><use xlink:href="#d" x="157.695" y="163.706" fill="#f00"/><path d="M184.164 144.605l26.285 7.782M210.45 152.387l10.304 25.402M217.457 152.504l8.242 20.32M227.297 130.762l-16.848 21.625M220.754 177.79l27.148 3.776M220.754 177.79l-13.434 23.894M247.902 181.566l16.848-21.625M244.5 175.438l13.477-17.297M264.75 159.94l-10.305-25.4M254.445 134.54l-27.148-3.778M250.844 140.55l-21.723-3.023M204.676 203.527l7.847 11.24" stroke-width="1.2" stroke="#000" stroke-miterlimit="10" fill="none"/><path d="M212.523 214.766L220.375 226" stroke-width="1.2" stroke="#f00" stroke-miterlimit="10" fill="none"/><path d="M209.96 199.836l7.852 11.234" stroke-width="1.2" stroke="#000" stroke-miterlimit="10" fill="none"/><path d="M217.813 211.07l7.847 11.235" stroke-width="1.2" stroke="#f00" stroke-miterlimit="10" fill="none"/><path d="M207.32 201.684l-27.058 4.39" stroke-width="1.2" stroke="#000" stroke-miterlimit="10" fill="none"/><path d="M219.016 217.652h9v13h-9zm0 0" fill="#fff"/><use xlink:href="#d" x="219.016" y="227.554" fill="#f00"/><path d="M180.262 206.074l-5.797 26.793M174.465 232.867l-26.098 8.38M169.887 227.563l-20.883 6.703" stroke-width="1.2" stroke="#000" stroke-miterlimit="10" fill="none"/></g></svg>