<svg xmlns="http://www.w3.org/2000/svg" xmlns:xlink="http://www.w3.org/1999/xlink" width="300pt" height="300pt" viewBox="0 0 300 300"><defs><symbol overflow="visible"><path d="M.453 1.594v-7.938h4.5v7.938zm.5-.5h3.5v-6.938h-3.5zm0 0"/></symbol><symbol overflow="visible" id="a"><path d="M3.547-5.953c-.65 0-1.164.242-1.547.72-.375.48-.563 1.13-.563 1.952 0 .835.188 1.49.563 1.967.383.48.898.72 1.547.72.644 0 1.156-.24 1.53-.72.376-.476.564-1.132.564-1.968 0-.822-.187-1.474-.562-1.954-.375-.477-.887-.72-1.53-.72zm0-.734c.914 0 1.648.312 2.203.937.55.617.828 1.438.828 2.47 0 1.042-.277 1.87-.828 2.483-.555.617-1.29.922-2.203.922-.93 0-1.668-.305-2.22-.922C.774-1.41.5-2.237.5-3.28c0-1.033.273-1.853.828-2.47.55-.625 1.29-.938 2.22-.938zm0 0"/></symbol><symbol overflow="visible" id="b"><path d="M.89-6.563H2.08l2.906 5.485v-5.484h.86V0H4.656L1.75-5.484V0H.89zm0 0"/></symbol><symbol overflow="visible" id="c"><path d="M.89-6.563h.876v2.688H5v-2.688h.89V0H5v-3.125H1.766V0H.89zm0 0"/></symbol></defs><g><path fill="#fff" d="M0 0h300v300H0z"/><path d="M264.75 158.027l-1.063 9.078" stroke-width="1.2" stroke="#f00" stroke-miterlimit="10" fill="none"/><path d="M263.688 167.105l-1.06 9.08" stroke-width="1.2" stroke="#000" stroke-miterlimit="10" fill="none"/><path d="M264.75 158.027l-7.332-5.457" stroke-width="1.2" stroke="#f00" stroke-miterlimit="10" fill="none"/><path d="M257.418 152.57l-7.328-5.457" stroke-width="1.2" stroke="#000" stroke-miterlimit="10" fill="none"/><path d="M260.75 152.527h8v11h-8zm0 0" fill="#fff"/><use xlink:href="#a" x="260.75" y="161.19" fill="#f00"/><path d="M250.09 147.113l-16.785 7.24M246.707 143.887l-13.426 5.793M252.21 128.957l-2.12 18.156M233.305 154.352l-14.66-10.915M218.645 143.438l2.12-18.157M223.13 142.12l1.694-14.522M218.645 143.438l-16.786 7.238M220.766 125.28l16.785-7.237M237.55 118.043l14.66 10.914M236.45 122.582l11.726 8.734M199.727 150.426l-1.063 9.078" stroke-width="1.2" stroke="#000" stroke-miterlimit="10" fill="none"/><path d="M198.664 159.504l-1.062 9.078" stroke-width="1.2" stroke="#f00" stroke-miterlimit="10" fill="none"/><path d="M203.996 150.926l-1.062 9.078" stroke-width="1.2" stroke="#000" stroke-miterlimit="10" fill="none"/><path d="M202.934 160.004l-1.06 9.074" stroke-width="1.2" stroke="#f00" stroke-miterlimit="10" fill="none"/><path d="M201.86 150.676l-7.33-5.457" stroke-width="1.2" stroke="#000" stroke-miterlimit="10" fill="none"/><path d="M194.53 145.22l-7.33-5.458" stroke-width="1.2" stroke="#00f" stroke-miterlimit="10" fill="none"/><path d="M195.738 163.332h8v11h-8zm0 0" fill="#fff"/><use xlink:href="#a" x="195.738" y="171.995" fill="#f00"/><path d="M187.2 139.762l-8.39 3.617" stroke-width="1.2" stroke="#00f" stroke-miterlimit="10" fill="none"/><path d="M178.81 143.38l-8.396 3.62" stroke-width="1.2" stroke="#000" stroke-miterlimit="10" fill="none"/><path d="M180.2 134.262h14v11h-14zm0 0" fill="#fff"/><g fill="#00f"><use xlink:href="#b" x="180.199" y="142.925"/><use xlink:href="#c" x="187.177" y="142.925"/></g><path d="M170.414 147l-14.66-10.914M166.383 149.36l-11.73-8.735M168.293 165.152l2.12-18.152M155.754 136.086l-16.78 7.238M138.973 143.324l-7.332-5.457" stroke-width="1.2" stroke="#000" stroke-miterlimit="10" fill="none"/><path d="M131.64 137.867l-7.33-5.46" stroke-width="1.2" stroke="#00f" stroke-miterlimit="10" fill="none"/><path d="M138.973 143.324l-2.125 18.153M143.03 145.637l-1.698 14.523" stroke-width="1.2" stroke="#000" stroke-miterlimit="10" fill="none"/><path d="M124.31 132.406l-8.392 3.62" stroke-width="1.2" stroke="#00f" stroke-miterlimit="10" fill="none"/><path d="M115.918 136.027l-8.39 3.62" stroke-width="1.2" stroke="#000" stroke-miterlimit="10" fill="none"/><path d="M117.31 126.906h14v11h-14zm0 0" fill="#fff"/><g fill="#00f"><use xlink:href="#b" x="117.309" y="135.569"/><use xlink:href="#c" x="124.286" y="135.569"/></g><path d="M107.527 139.648L92.863 128.73M103.492 142.004l-11.73-8.73M105.402 157.8l2.125-18.152M92.863 128.73l-16.78 7.243M76.082 135.973l-2.12 18.152M71.598 137.29l-1.7 14.523M63.21 122.992l12.872 12.98M73.96 154.125l14.66 10.918M73.96 154.125l-15.52 9.66M88.62 165.043l16.782-7.242M88.594 160.367l13.43-5.79M56.305 164.02l.984 9.085" stroke-width="1.2" stroke="#000" stroke-miterlimit="10" fill="none"/><path d="M57.29 173.105l.983 9.086" stroke-width="1.2" stroke="#f00" stroke-miterlimit="10" fill="none"/><path d="M60.578 163.555l.988 9.086" stroke-width="1.2" stroke="#000" stroke-miterlimit="10" fill="none"/><path d="M61.566 172.64l.985 9.087" stroke-width="1.2" stroke="#f00" stroke-miterlimit="10" fill="none"/><path d="M58.44 163.785l-17.225-6.11" stroke-width="1.2" stroke="#000" stroke-miterlimit="10" fill="none"/><path d="M56.414 176.457h8v11h-8zm0 0" fill="#fff"/><use xlink:href="#a" x="56.414" y="185.12" fill="#f00"/><path d="M41.215 157.676l-5.965-17.278M35.25 140.398l9.79-15.433M45.04 124.965l18.17-1.973M136.848 161.477l14.664 10.918M151.512 172.395l16.78-7.243M151.484 167.72l13.426-5.79" stroke-width="1.2" stroke="#000" stroke-miterlimit="10" fill="none"/></g></svg>