<svg xmlns="http://www.w3.org/2000/svg" xmlns:xlink="http://www.w3.org/1999/xlink" width="300pt" height="300pt" viewBox="0 0 300 300"><defs><symbol overflow="visible"><path d="M.547 1.938V-7.75h5.5v9.688zm.625-.61h4.266v-8.47H1.171zm0 0"/></symbol><symbol overflow="visible" id="a"><path d="M5.89-7.75v1.047c-.417-.195-.808-.344-1.17-.438-.368-.094-.72-.14-1.064-.14-.586 0-1.04.116-1.36.343-.323.23-.483.554-.483.968 0 .357.1.626.312.814.22.18.625.324 1.22.437L4-4.593c.813.157 1.41.434 1.797.828.383.387.578.903.578 1.547 0 .783-.262 1.376-.78 1.783-.525.398-1.29.593-2.298.593-.375 0-.78-.047-1.22-.14C1.648-.066 1.208-.19.75-.36v-1.11c.445.25.88.44 1.297.564.426.125.844.187 1.25.187.625 0 1.1-.116 1.437-.358.332-.25.5-.598.5-1.047 0-.395-.12-.703-.36-.922-.24-.226-.636-.398-1.186-.515l-.657-.126c-.81-.156-1.4-.406-1.764-.75C.898-4.78.72-5.258.72-5.875c0-.707.25-1.266.75-1.672.5-.414 1.19-.625 2.077-.625.375 0 .754.04 1.14.11.395.074.797.18 1.204.312zm0 0"/></symbol><symbol overflow="visible" id="b"><path d="M1.078-8.016h1.47l3.546 6.704v-6.704h1.062V0H5.688L2.124-6.703V0H1.078zm0 0"/></symbol><symbol overflow="visible" id="c"><path d="M1.078-8.016h1.094v3.282H6.11v-3.282h1.077V0H6.11v-3.813H2.17V0H1.078zm0 0"/></symbol><symbol overflow="visible" id="d"><path d="M4.328-7.28c-.78 0-1.406.296-1.875.89-.46.585-.687 1.382-.687 2.39 0 1.012.226 1.813.687 2.406.47.586 1.094.875 1.875.875.79 0 1.414-.288 1.875-.874.457-.593.688-1.394.688-2.406 0-1.008-.23-1.805-.687-2.39-.46-.594-1.086-.89-1.875-.89zm0-.892c1.125 0 2.024.383 2.703 1.14C7.708-6.28 8.048-5.27 8.048-4c0 1.262-.34 2.273-1.016 3.03C6.353-.22 5.454.157 4.33.157S2.3-.22 1.625-.97c-.668-.75-1-1.757-1-3.03 0-1.27.332-2.28 1-3.03.676-.76 1.578-1.142 2.703-1.142zm0 0"/></symbol><symbol overflow="visible" id="e"><path d="M1.078-8.016h4.61v.907H2.171v2.36h3.172v.922H2.172V0H1.078zm0 0"/></symbol></defs><g><path fill="#fff" d="M0 0h300v300H0z"/><path d="M100.363 186.035l-10.84-7.207" stroke-width="1.2" stroke="#cc0" stroke-miterlimit="10" fill="none"/><path d="M89.523 178.828L78.68 171.62M120.77 169.867l-10.204 8.086" stroke-width="1.2" stroke="#000" stroke-miterlimit="10" fill="none"/><path d="M110.566 177.953l-10.203 8.082" stroke-width="1.2" stroke="#cc0" stroke-miterlimit="10" fill="none"/><path d="M97.363 179.535h7v13h-7zm0 0" fill="#fff"/><use xlink:href="#a" x="97.363" y="189.437" fill="#cc0"/><path d="M78.68 171.62l7.007-25.073M73.48 167.465l5.606-20.06M53.46 178.09l25.22-6.47M85.688 146.547l-18.21-18.606M85.688 146.547l26.015-1.082M67.477 127.94l-25.22 6.47M42.258 134.41l-7.008 25.074M35.25 159.484l18.21 18.606M111.703 145.465l14.41-21.684M111.703 145.465l9.067 24.402M106.867 150.04l7.254 19.523M126.113 123.78l7.207-10.84" stroke-width="1.2" stroke="#000" stroke-miterlimit="10" fill="none"/><path d="M133.32 112.94l7.207-10.838" stroke-width="1.2" stroke="#00f" stroke-miterlimit="10" fill="none"/><path d="M132.656 125.004l5.766-8.672" stroke-width="1.2" stroke="#000" stroke-miterlimit="10" fill="none"/><path d="M138.422 116.332l5.766-8.672" stroke-width="1.2" stroke="#00f" stroke-miterlimit="10" fill="none"/><path d="M122.453 118.223l5.766-8.672" stroke-width="1.2" stroke="#000" stroke-miterlimit="10" fill="none"/><path d="M128.22 109.55l5.764-8.67" stroke-width="1.2" stroke="#00f" stroke-miterlimit="10" fill="none"/><path d="M136.527 95.602h8v13h-8zm0 0" fill="#fff"/><use xlink:href="#b" x="136.527" y="105.503" fill="#00f"/><path d="M120.77 169.867l12.54 3.504" stroke-width="1.2" stroke="#000" stroke-miterlimit="10" fill="none"/><path d="M133.31 173.37l12.534 3.505M145.844 176.875l9.304-9.105" stroke-width="1.2" stroke="#00f" stroke-miterlimit="10" fill="none"/><path d="M155.148 167.77l9.305-9.106" stroke-width="1.2" stroke="#000" stroke-miterlimit="10" fill="none"/><path d="M137.844 170.375h17v13h-17zm0 0" fill="#fff"/><g fill="#00f"><use xlink:href="#b" x="137.844" y="180.276"/><use xlink:href="#c" x="145.827" y="180.276"/></g><path d="M167.418 157.902l-3.234-12.61" stroke-width="1.2" stroke="#000" stroke-miterlimit="10" fill="none"/><path d="M164.184 145.293l-3.235-12.61" stroke-width="1.2" stroke="#f00" stroke-miterlimit="10" fill="none"/><path d="M161.484 159.426l-3.234-12.61" stroke-width="1.2" stroke="#000" stroke-miterlimit="10" fill="none"/><path d="M158.25 146.816l-3.234-12.61" stroke-width="1.2" stroke="#f00" stroke-miterlimit="10" fill="none"/><path d="M164.453 158.664l25.074 7.008" stroke-width="1.2" stroke="#000" stroke-miterlimit="10" fill="none"/><path d="M153.984 126.945h9v13h-9zm0 0" fill="#fff"/><use xlink:href="#d" x="153.984" y="136.847" fill="#f00"/><path d="M189.527 165.672l18.606-18.21M195.996 190.89l-6.47-25.218M201.28 186.848l-5.175-20.176M208.133 147.46l25.074 7.01M201.664 122.242l6.47 25.22M208.246 123.242l5.172 20.176M233.207 154.47l18.606-18.212M230.78 148.27l14.888-14.57M233.207 154.47l6.47 25.218M251.813 136.258l-6.47-25.22M245.344 111.04l-25.074-7.01M241.188 116.238l-20.06-5.605M220.27 104.03l-18.606 18.212M239.676 179.688l12.535 3.503" stroke-width="1.2" stroke="#000" stroke-miterlimit="10" fill="none"/><path d="M252.21 183.19l12.54 3.505" stroke-width="1.2" stroke="#3cc" stroke-miterlimit="10" fill="none"/><path d="M239.676 179.688l-18.606 18.21M233.53 177.133L218.646 191.7" stroke-width="1.2" stroke="#000" stroke-miterlimit="10" fill="none"/><path d="M261.75 180.195h7v13h-7zm0 0" fill="#fff"/><use xlink:href="#e" x="261.75" y="190.097" fill="#3cc"/><path d="M221.07 197.898l-25.074-7.007" stroke-width="1.2" stroke="#000" stroke-miterlimit="10" fill="none"/></g></svg>