<svg xmlns="http://www.w3.org/2000/svg" xmlns:xlink="http://www.w3.org/1999/xlink" width="300pt" height="300pt" viewBox="0 0 300 300"><defs><symbol overflow="visible"><path d="M.547 1.938V-7.75h5.5v9.688zm.625-.61h4.266v-8.47H1.171zm0 0"/></symbol><symbol overflow="visible" id="a"><path d="M7.078-7.406v1.156c-.367-.344-.758-.598-1.172-.766-.406-.164-.843-.25-1.312-.25-.918 0-1.62.282-2.11.844-.48.555-.718 1.36-.718 2.422 0 1.055.238 1.86.718 2.422.49.562 1.192.844 2.11.844.468 0 .906-.082 1.312-.25.414-.164.805-.422 1.172-.766v1.125c-.375.262-.777.46-1.203.594-.418.124-.867.186-1.344.186-1.21 0-2.163-.367-2.858-1.11C.972-1.703.625-2.718.625-4c0-1.29.348-2.305 1.047-3.047.695-.75 1.648-1.125 2.86-1.125.476 0 .93.07 1.36.203.424.126.82.314 1.186.564zm0 0"/></symbol><symbol overflow="visible" id="b"><path d="M1.03-8.36h1V0h-1zm0 0"/></symbol><symbol overflow="visible" id="c"><path d="M1.078-8.016h1.47l3.546 6.704v-6.704h1.062V0H5.688L2.124-6.703V0H1.078zm0 0"/></symbol><symbol overflow="visible" id="d"><path d="M1.078-8.016h1.094v3.282H6.11v-3.282h1.077V0H6.11v-3.813H2.17V0H1.078zm0 0"/></symbol><symbol overflow="visible" id="e"><path d="M4.328-7.28c-.78 0-1.406.296-1.875.89-.46.585-.687 1.382-.687 2.39 0 1.012.226 1.813.687 2.406.47.586 1.094.875 1.875.875.79 0 1.414-.288 1.875-.874.457-.593.688-1.394.688-2.406 0-1.008-.23-1.805-.687-2.39-.46-.594-1.086-.89-1.875-.89zm0-.892c1.125 0 2.024.383 2.703 1.14C7.708-6.28 8.048-5.27 8.048-4c0 1.262-.34 2.273-1.016 3.03C6.353-.22 5.454.157 4.33.157S2.3-.22 1.625-.97c-.668-.75-1-1.757-1-3.03 0-1.27.332-2.28 1-3.03.676-.76 1.578-1.142 2.703-1.142zm0 0"/></symbol><symbol overflow="visible" id="f"><path d="M1.078-8.016h4.61v.907H2.171v2.36h3.172v.922H2.172V0H1.078zm0 0"/></symbol></defs><g><path fill="#fff" d="M0 0h300v300H0z"/><path d="M93.934 179.895l-8.297-9.934" stroke-width="1.2" stroke="#0c0" stroke-miterlimit="10" fill="none"/><path d="M85.637 169.96l-8.297-9.933" stroke-width="1.2" stroke="#000" stroke-miterlimit="10" fill="none"/><path d="M88.934 173.395h11v13h-11zm0 0" fill="#fff"/><g fill="#0c0"><use xlink:href="#a" x="88.934" y="183.296"/><use xlink:href="#b" x="96.385" y="183.296"/></g><path d="M77.34 160.027l-25.5 4.438M73.746 154.473l-20.398 3.547M86.25 135.727l-8.91 24.3M51.84 164.465l-16.59-19.867M35.25 144.598l8.91-24.3M41.86 144.266l7.124-19.442M44.16 120.297l25.5-4.438M69.66 115.86l16.59 19.867M66.645 121.75l13.273 15.895M86.25 135.727l12.75-2.22" stroke-width="1.2" stroke="#000" stroke-miterlimit="10" fill="none"/><path d="M99 133.508l12.75-2.22M111.75 131.29l8.297 9.933" stroke-width="1.2" stroke="#00f" stroke-miterlimit="10" fill="none"/><path d="M120.047 141.223l8.293 9.933" stroke-width="1.2" stroke="#000" stroke-miterlimit="10" fill="none"/><path d="M103.75 124.79h17v13h-17zm0 0" fill="#fff"/><g fill="#00f"><use xlink:href="#c" x="103.75" y="134.69"/><use xlink:href="#d" x="111.733" y="134.69"/></g><path d="M125.484 150.11l-4.457 12.148" stroke-width="1.2" stroke="#000" stroke-miterlimit="10" fill="none"/><path d="M121.027 162.258l-4.453 12.152" stroke-width="1.2" stroke="#f00" stroke-miterlimit="10" fill="none"/><path d="M131.2 152.203l-4.454 12.152" stroke-width="1.2" stroke="#000" stroke-miterlimit="10" fill="none"/><path d="M126.746 164.355l-4.453 12.153" stroke-width="1.2" stroke="#f00" stroke-miterlimit="10" fill="none"/><path d="M128.34 151.156l12.75-2.22" stroke-width="1.2" stroke="#000" stroke-miterlimit="10" fill="none"/><path d="M141.09 148.938l12.75-2.215" stroke-width="1.2" stroke="#00f" stroke-miterlimit="10" fill="none"/><path d="M110.434 168.957h9v13h-9zm0 0" fill="#fff"/><use xlink:href="#e" x="110.434" y="178.858" fill="#f00"/><path d="M153.84 146.723l8.297 9.93" stroke-width="1.2" stroke="#00f" stroke-miterlimit="10" fill="none"/><path d="M162.137 156.652l8.297 9.934" stroke-width="1.2" stroke="#000" stroke-miterlimit="10" fill="none"/><path d="M153.84 146.723l4.457-12.153" stroke-width="1.2" stroke="#00f" stroke-miterlimit="10" fill="none"/><path d="M158.297 134.57l4.453-12.152" stroke-width="1.2" stroke="#000" stroke-miterlimit="10" fill="none"/><path d="M149.84 140.223h8v13h-8zm0 0" fill="#fff"/><use xlink:href="#c" x="149.84" y="150.124" fill="#00f"/><path d="M170.434 166.586l-8.91 24.3M175.262 171.113l-7.13 19.442M195.934 162.152l-25.5 4.434M161.523 190.887l16.594 19.867M178.117 210.754l25.5-4.438M179.62 204.31l20.403-3.548M203.617 206.316l8.293 9.934" stroke-width="1.2" stroke="#000" stroke-miterlimit="10" fill="none"/><path d="M211.91 216.25l8.297 9.934" stroke-width="1.2" stroke="#3cc" stroke-miterlimit="10" fill="none"/><path d="M203.617 206.316l8.906-24.3" stroke-width="1.2" stroke="#000" stroke-miterlimit="10" fill="none"/><path d="M217.207 219.684h7v13h-7zm0 0" fill="#fff"/><use xlink:href="#f" x="217.207" y="229.585" fill="#3cc"/><path d="M212.523 182.016l-16.59-19.864M206.19 183.934l-13.272-15.89M162.75 122.418l12.75-2.215" stroke-width="1.2" stroke="#000" stroke-miterlimit="10" fill="none"/><path d="M175.5 120.203l12.75-2.22" stroke-width="1.2" stroke="#00f" stroke-miterlimit="10" fill="none"/><path d="M164.258 115.977l10.2-1.774" stroke-width="1.2" stroke="#000" stroke-miterlimit="10" fill="none"/><path d="M174.457 114.203l10.2-1.777" stroke-width="1.2" stroke="#00f" stroke-miterlimit="10" fill="none"/><path d="M146.16 102.555l16.59 19.863" stroke-width="1.2" stroke="#000" stroke-miterlimit="10" fill="none"/><path d="M188.25 117.984l4.453-12.152" stroke-width="1.2" stroke="#00f" stroke-miterlimit="10" fill="none"/><path d="M192.703 105.832l4.457-12.148" stroke-width="1.2" stroke="#000" stroke-miterlimit="10" fill="none"/><path d="M184.25 111.484h8v13h-8zm0 0" fill="#fff"/><use xlink:href="#c" x="184.25" y="121.386" fill="#00f"/><path d="M197.16 93.684l-8.297-9.934" stroke-width="1.2" stroke="#000" stroke-miterlimit="10" fill="none"/><path d="M188.863 83.75l-8.297-9.934" stroke-width="1.2" stroke="#00f" stroke-miterlimit="10" fill="none"/><path d="M190.824 95.598l-6.637-7.946" stroke-width="1.2" stroke="#000" stroke-miterlimit="10" fill="none"/><path d="M184.188 87.652l-6.637-7.945" stroke-width="1.2" stroke="#00f" stroke-miterlimit="10" fill="none"/><path d="M197.16 93.684l12.75-2.22" stroke-width="1.2" stroke="#000" stroke-miterlimit="10" fill="none"/><path d="M209.91 91.465l12.75-2.22M180.566 73.816l-12.75 2.22" stroke-width="1.2" stroke="#00f" stroke-miterlimit="10" fill="none"/><path d="M167.816 76.035l-12.75 2.215" stroke-width="1.2" stroke="#000" stroke-miterlimit="10" fill="none"/><path d="M176.566 67.316h8v13h-8zm0 0" fill="#fff"/><use xlink:href="#c" x="176.566" y="77.218" fill="#00f"/><path d="M155.066 78.25l-8.906 24.305M159.895 82.777l-7.13 19.442" stroke-width="1.2" stroke="#000" stroke-miterlimit="10" fill="none"/><path d="M239.25 109.113l-13.086-22.797-7.012 5.86zm0 0"/><path d="M214.66 82.746h17v13h-17zm0 0" fill="#fff"/><g fill="#00f"><use xlink:href="#c" x="214.66" y="92.647"/><use xlink:href="#d" x="222.644" y="92.647"/></g><path d="M239.25 109.113l-8.91 24.3M239.25 109.113l25.5-4.437M230.34 133.414l8.297 9.934" stroke-width="1.2" stroke="#000" stroke-miterlimit="10" fill="none"/><path d="M238.637 143.348l8.297 9.93M246.934 153.277l-4.454 12.153" stroke-width="1.2" stroke="#f00" stroke-miterlimit="10" fill="none"/><path d="M242.48 165.43l-4.457 12.152" stroke-width="1.2" stroke="#000" stroke-miterlimit="10" fill="none"/><path d="M242.934 146.777h9v13h-9zm0 0" fill="#fff"/><use xlink:href="#e" x="242.934" y="156.679" fill="#f00"/></g></svg>