<svg xmlns="http://www.w3.org/2000/svg" xmlns:xlink="http://www.w3.org/1999/xlink" width="300pt" height="300pt" viewBox="0 0 300 300"><defs><symbol overflow="visible"><path d="M.453 1.594v-7.938h4.5v7.938zm.5-.5h3.5v-6.938h-3.5zm0 0"/></symbol><symbol overflow="visible" id="a"><path d="M5.797-6.063v.938c-.305-.27-.625-.473-.97-.61-.335-.144-.686-.218-1.06-.218-.75 0-1.33.23-1.736.687-.397.46-.592 1.12-.592 1.985 0 .866.195 1.526.593 1.983.408.46.986.688 1.736.688.375 0 .726-.066 1.062-.203.344-.132.664-.343.97-.625V-.5c-.314.21-.642.367-.986.47-.343.1-.714.155-1.11.155-.99 0-1.772-.3-2.343-.906C.784-1.396.5-2.228.5-3.28c0-1.052.285-1.88.86-2.486.57-.613 1.35-.92 2.343-.92.395-.002.766.053 1.11.155.35.104.68.26.984.468zm0 0"/></symbol><symbol overflow="visible" id="b"><path d="M.844-6.844h.812V0H.844zm0 0"/></symbol><symbol overflow="visible" id="c"><path d="M.89-6.563H2.08l2.906 5.485v-5.484h.86V0H4.656L1.75-5.484V0H.89zm0 0"/></symbol><symbol overflow="visible" id="d"><path d="M.89-6.563h.876v2.688H5v-2.688h.89V0H5v-3.125H1.766V0H.89zm0 0"/></symbol><symbol overflow="visible" id="e"><path d="M3.547-5.953c-.65 0-1.164.242-1.547.72-.375.48-.563 1.13-.563 1.952 0 .835.188 1.49.563 1.967.383.48.898.72 1.547.72.644 0 1.156-.24 1.53-.72.376-.476.564-1.132.564-1.968 0-.822-.187-1.474-.562-1.954-.375-.477-.887-.72-1.53-.72zm0-.734c.914 0 1.648.312 2.203.937.55.617.828 1.438.828 2.47 0 1.042-.277 1.87-.828 2.483-.555.617-1.29.922-2.203.922-.93 0-1.668-.305-2.22-.922C.774-1.41.5-2.237.5-3.28c0-1.033.273-1.853.828-2.47.55-.625 1.29-.938 2.22-.938zm0 0"/></symbol><symbol overflow="visible" id="f"><path d="M.89-6.563h3.766v.75h-2.89v1.938h2.61v.734h-2.61V0H.89zm0 0"/></symbol></defs><g><path fill="#fff" d="M0 0h300v300H0z"/><path d="M75.984 156.883l-4.968-9.18" stroke-width="1.2" stroke="#0c0" stroke-miterlimit="10" fill="none"/><path d="M71.016 147.703l-4.97-9.176" stroke-width="1.2" stroke="#000" stroke-miterlimit="10" fill="none"/><path d="M70.984 151.383h10v11h-10zm0 0" fill="#fff"/><g fill="#0c0"><use xlink:href="#a" x="70.984" y="160.046"/><use xlink:href="#b" x="77.498" y="160.046"/></g><path d="M66.047 138.527l-20.863-.574M64.098 133.56l-16.692-.458M76.977 120.746l-10.93 17.78M45.184 137.953l-9.934-18.355M35.25 119.598l10.93-17.782M40.527 120.39l8.743-14.226M46.18 101.816l20.863.575M67.043 102.39l9.934 18.356M63.72 106.563l7.944 14.683M76.977 120.746l10.433.285" stroke-width="1.2" stroke="#000" stroke-miterlimit="10" fill="none"/><path d="M87.41 121.03l10.43.29M97.84 121.32l4.97 9.176" stroke-width="1.2" stroke="#00f" stroke-miterlimit="10" fill="none"/><path d="M102.81 130.496l4.967 9.18" stroke-width="1.2" stroke="#000" stroke-miterlimit="10" fill="none"/><path d="M90.84 115.82h14v11h-14zm0 0" fill="#fff"/><g fill="#00f"><use xlink:href="#c" x="90.84" y="124.483"/><use xlink:href="#d" x="97.817" y="124.483"/></g><path d="M105.684 138.387l-5.465 8.89" stroke-width="1.2" stroke="#000" stroke-miterlimit="10" fill="none"/><path d="M100.22 147.277l-5.466 8.89" stroke-width="1.2" stroke="#f00" stroke-miterlimit="10" fill="none"/><path d="M109.867 140.96l-5.465 8.892" stroke-width="1.2" stroke="#000" stroke-miterlimit="10" fill="none"/><path d="M104.402 149.852l-5.465 8.89" stroke-width="1.2" stroke="#f00" stroke-miterlimit="10" fill="none"/><path d="M107.777 139.676l10.43.285" stroke-width="1.2" stroke="#000" stroke-miterlimit="10" fill="none"/><path d="M118.207 139.96l10.434.29" stroke-width="1.2" stroke="#00f" stroke-miterlimit="10" fill="none"/><path d="M88.848 151.957h8v11h-8zm0 0" fill="#fff"/><use xlink:href="#e" x="88.848" y="160.62" fill="#f00"/><path d="M128.64 140.25l4.965 9.176" stroke-width="1.2" stroke="#00f" stroke-miterlimit="10" fill="none"/><path d="M133.605 149.426l4.97 9.18" stroke-width="1.2" stroke="#000" stroke-miterlimit="10" fill="none"/><path d="M128.64 140.25l5.465-8.895" stroke-width="1.2" stroke="#00f" stroke-miterlimit="10" fill="none"/><path d="M134.105 131.355l5.46-8.89" stroke-width="1.2" stroke="#000" stroke-miterlimit="10" fill="none"/><path d="M125.64 134.75h7v11h-7zm0 0" fill="#fff"/><use xlink:href="#c" x="125.641" y="143.413" fill="#00f"/><path d="M138.574 158.605l-10.93 17.782M141.664 162.953l-8.742 14.227M159.438 159.18l-20.864-.575M127.645 176.387l9.933 18.355M137.578 194.742l20.863.574M139.8 189.89l16.692.458M158.44 195.316l4.97 9.176" stroke-width="1.2" stroke="#000" stroke-miterlimit="10" fill="none"/><path d="M163.41 204.492l4.97 9.18" stroke-width="1.2" stroke="#3cc" stroke-miterlimit="10" fill="none"/><path d="M158.44 195.316l10.93-17.78" stroke-width="1.2" stroke="#000" stroke-miterlimit="10" fill="none"/><path d="M165.38 208.172h6v11h-6zm0 0" fill="#fff"/><use xlink:href="#f" x="165.379" y="216.835" fill="#3cc"/><path d="M169.37 177.535l-9.933-18.355M164.06 178.035l-7.947-14.683M139.566 122.465l10.434.29" stroke-width="1.2" stroke="#000" stroke-miterlimit="10" fill="none"/><path d="M150 122.754l10.434.285" stroke-width="1.2" stroke="#00f" stroke-miterlimit="10" fill="none"/><path d="M141.79 117.613l8.347.23" stroke-width="1.2" stroke="#000" stroke-miterlimit="10" fill="none"/><path d="M150.137 117.844l8.343.23" stroke-width="1.2" stroke="#00f" stroke-miterlimit="10" fill="none"/><path d="M129.633 104.11l9.933 18.355" stroke-width="1.2" stroke="#000" stroke-miterlimit="10" fill="none"/><path d="M160.434 123.04l5.46-8.892" stroke-width="1.2" stroke="#00f" stroke-miterlimit="10" fill="none"/><path d="M165.895 114.148l5.464-8.89" stroke-width="1.2" stroke="#000" stroke-miterlimit="10" fill="none"/><path d="M157.434 117.54h7v11h-7zm0 0" fill="#fff"/><use xlink:href="#c" x="157.434" y="126.202" fill="#00f"/><path d="M171.36 105.258l-4.965-9.176" stroke-width="1.2" stroke="#000" stroke-miterlimit="10" fill="none"/><path d="M166.395 96.082l-4.97-9.18" stroke-width="1.2" stroke="#00f" stroke-miterlimit="10" fill="none"/><path d="M166.047 105.762l-3.973-7.344" stroke-width="1.2" stroke="#000" stroke-miterlimit="10" fill="none"/><path d="M162.074 98.418l-3.972-7.34" stroke-width="1.2" stroke="#00f" stroke-miterlimit="10" fill="none"/><path d="M171.36 105.258l10.433.29" stroke-width="1.2" stroke="#000" stroke-miterlimit="10" fill="none"/><path d="M181.793 105.547l10.43.285M161.426 86.902l-10.43-.285" stroke-width="1.2" stroke="#00f" stroke-miterlimit="10" fill="none"/><path d="M150.996 86.617l-10.434-.29" stroke-width="1.2" stroke="#000" stroke-miterlimit="10" fill="none"/><path d="M158.426 81.402h7v11h-7zm0 0" fill="#fff"/><use xlink:href="#c" x="158.426" y="90.065" fill="#00f"/><path d="M140.563 86.328l-10.93 17.78M143.652 90.68l-8.742 14.226" stroke-width="1.2" stroke="#000" stroke-miterlimit="10" fill="none"/><path d="M202.16 124.188m-.95-2.844l-.917.496m-.03-3.344l-1.833.992m.886-3.84l-2.75 1.493m1.8-4.335l-3.667 1.984m2.722-4.833l-4.586 2.48m3.637-5.328l-5.504 2.98m4.553-5.824l-6.418 3.472m6.36-3.656l-6.48 3.504" stroke="#000" stroke-miterlimit="10" fill="none"/><path d="M185.223 100.332h14v11h-14zm0 0" fill="#fff"/><g fill="#00f"><use xlink:href="#c" x="185.223" y="108.995"/><use xlink:href="#d" x="192.2" y="108.995"/></g><path d="M202.16 124.188l-10.93 17.78M202.16 124.188l20.863.574M223.023 124.762l10.93-17.782M228.3 125.56l8.743-14.228M232.957 143.117l-9.934-18.355M233.953 106.98l20.863.575M254.816 107.555l9.934 18.355M251.488 111.73l7.95 14.684M264.75 125.91l-10.93 17.78M253.82 143.69l-20.863-.573M251.87 138.727l-16.69-.46" stroke-width="1.2" stroke="#000" stroke-miterlimit="10" fill="none"/></g></svg>