<svg xmlns="http://www.w3.org/2000/svg" xmlns:xlink="http://www.w3.org/1999/xlink" width="300pt" height="300pt" viewBox="0 0 300 300"><defs><symbol overflow="visible"><path d="M.594 2.125V-8.47h6V2.126zm.672-.672h4.671V-7.78h-4.67zm0 0"/></symbol><symbol overflow="visible" id="a"><path d="M6.422-8.47v1.158c-.45-.208-.875-.364-1.28-.47-.4-.113-.78-.17-1.142-.17-.648 0-1.148.124-1.5.374-.344.25-.516.61-.516 1.078 0 .387.114.68.344.875.227.2.672.355 1.328.47L4.36-5c.882.168 1.535.465 1.952.89.426.42.64.98.64 1.688 0 .856-.288 1.5-.858 1.938-.563.437-1.4.656-2.5.656-.406 0-.844-.047-1.313-.14C1.814-.064 1.33-.204.83-.392v-1.22c.477.274.945.477 1.406.61.47.137.922.203 1.36.203.676 0 1.195-.13 1.562-.39.375-.27.563-.65.563-1.14 0-.427-.138-.76-.407-1-.262-.25-.696-.43-1.297-.548l-.72-.14c-.886-.176-1.526-.454-1.92-.83-.388-.374-.58-.893-.58-1.56 0-.782.27-1.392.813-1.83.538-.445 1.288-.67 2.25-.67.413 0 .83.038 1.25.108.425.074.863.184 1.312.328zm0 0"/></symbol><symbol overflow="visible" id="b"><path d="M1.172-8.75h1.594l3.89 7.313V-8.75h1.14V0H6.204L2.328-7.313V0H1.172zm0 0"/></symbol><symbol overflow="visible" id="c"><path d="M1.172-8.75H2.36v3.594h4.296V-8.75h1.188V0H6.656v-4.172H2.36V0H1.17zm0 0"/></symbol><symbol overflow="visible" id="d"><path d="M4.734-7.953c-.867 0-1.554.324-2.062.97-.5.635-.75 1.51-.75 2.624 0 1.094.25 1.965.75 2.61.508.637 1.195.953 2.062.953.852 0 1.532-.316 2.032-.953.507-.645.765-1.516.765-2.61 0-1.113-.257-1.988-.764-2.624-.5-.645-1.18-.97-2.032-.97zm0-.953c1.22 0 2.192.414 2.922 1.234.74.824 1.11 1.93 1.11 3.313 0 1.376-.37 2.477-1.11 3.298C6.926-.24 5.953.17 4.734.17c-1.23 0-2.214-.41-2.953-1.234C1.04-1.882.673-2.984.673-4.36c0-1.382.367-2.488 1.11-3.312.738-.82 1.722-1.234 2.952-1.234zm0 0"/></symbol><symbol overflow="visible" id="e"><path d="M1.172-8.75h5.03v1H2.36v2.578h3.468v1h-3.47V0H1.173zm0 0"/></symbol></defs><g><path fill="#fff" d="M0 0h300v300H0z"/><path d="M181.004 106.945l14.426 1.86" stroke-width="1.2" stroke="#cc0" stroke-miterlimit="10" fill="none"/><path d="M195.43 108.805l14.425 1.86M168.555 133.234l6.222-13.144" stroke-width="1.2" stroke="#000" stroke-miterlimit="10" fill="none"/><path d="M174.777 120.09l6.227-13.145" stroke-width="1.2" stroke="#cc0" stroke-miterlimit="10" fill="none"/><path d="M177.004 99.945h8v14h-8zm0 0" fill="#fff"/><use xlink:href="#a" x="177.004" y="111.084" fill="#cc0"/><path d="M209.855 110.664l5.38 28.586M217.12 112.258l4.302 22.867M231.926 91.71l-22.07 18.954M215.234 139.25l27.45 9.637M215.234 139.25l-25.527 13.95M242.684 148.887l22.066-18.953M264.75 129.934l-5.38-28.586M259.37 101.348l-27.444-9.637M189.707 153.2l-3.72 28.85M189.707 153.2l-21.152-19.966M192.29 146.227l-16.923-15.973M185.988 182.05l-1.86 14.427" stroke-width="1.2" stroke="#000" stroke-miterlimit="10" fill="none"/><path d="M184.13 196.477l-1.86 14.425" stroke-width="1.2" stroke="#00f" stroke-miterlimit="10" fill="none"/><path d="M178.828 184.063l-1.484 11.54" stroke-width="1.2" stroke="#000" stroke-miterlimit="10" fill="none"/><path d="M177.344 195.602l-1.49 11.54" stroke-width="1.2" stroke="#00f" stroke-miterlimit="10" fill="none"/><path d="M192.406 185.813l-1.488 11.54" stroke-width="1.2" stroke="#000" stroke-miterlimit="10" fill="none"/><path d="M190.918 197.352l-1.484 11.54" stroke-width="1.2" stroke="#00f" stroke-miterlimit="10" fill="none"/><path d="M178.27 203.902h9v14h-9zm0 0" fill="#fff"/><use xlink:href="#b" x="178.27" y="215.041" fill="#00f"/><path d="M168.555 133.234l-14.297 2.688" stroke-width="1.2" stroke="#000" stroke-miterlimit="10" fill="none"/><path d="M154.258 135.922l-14.293 2.69M139.965 138.613l-9.477-11.035" stroke-width="1.2" stroke="#00f" stroke-miterlimit="10" fill="none"/><path d="M130.488 127.578l-9.476-11.03" stroke-width="1.2" stroke="#000" stroke-miterlimit="10" fill="none"/><path d="M130.965 131.613h18v14h-18zm0 0" fill="#fff"/><g fill="#00f"><use xlink:href="#b" x="130.965" y="142.752"/><use xlink:href="#c" x="139.941" y="142.752"/></g><path d="M124.242 117.68l4.817-13.727" stroke-width="1.2" stroke="#000" stroke-miterlimit="10" fill="none"/><path d="M129.06 103.953l4.82-13.723" stroke-width="1.2" stroke="#f00" stroke-miterlimit="10" fill="none"/><path d="M117.785 115.41l4.817-13.722" stroke-width="1.2" stroke="#000" stroke-miterlimit="10" fill="none"/><path d="M122.602 101.688l4.816-13.723" stroke-width="1.2" stroke="#f00" stroke-miterlimit="10" fill="none"/><path d="M121.012 116.547l-28.586 5.38" stroke-width="1.2" stroke="#000" stroke-miterlimit="10" fill="none"/><path d="M125.648 82.098h10v14h-10zm0 0" fill="#fff"/><use xlink:href="#d" x="125.648" y="93.236" fill="#f00"/><path d="M92.426 121.926l-18.953-22.07M85.336 124.176l-15.16-17.653M82.79 149.37l9.636-27.444M73.473 99.855l-28.586 5.38M44.887 105.234l-9.637 27.45M50.38 110.246l-7.708 21.957M35.25 132.684l18.953 22.066M54.203 154.75l28.586-5.38M55.797 147.484l22.867-4.3M82.79 149.37l9.476 11.036" stroke-width="1.2" stroke="#000" stroke-miterlimit="10" fill="none"/><path d="M92.266 160.406l9.476 11.03" stroke-width="1.2" stroke="#3cc" stroke-miterlimit="10" fill="none"/><path d="M98.742 164.438h7v14h-7zm0 0" fill="#fff"/><use xlink:href="#e" x="98.742" y="175.576" fill="#3cc"/></g></svg>