<svg xmlns="http://www.w3.org/2000/svg" xmlns:xlink="http://www.w3.org/1999/xlink" width="300pt" height="300pt" viewBox="0 0 300 300"><defs><symbol overflow="visible"><path d="M.453 1.594v-7.938h4.5v7.938zm.5-.5h3.5v-6.938h-3.5zm0 0"/></symbol><symbol overflow="visible" id="a"><path d="M.89-6.563h3.766v.75h-2.89v1.938h2.61v.734h-2.61V0H.89zm0 0"/></symbol><symbol overflow="visible" id="b"><path d="M.89-6.563H2.08l2.906 5.485v-5.484h.86V0H4.656L1.75-5.484V0H.89zm0 0"/></symbol><symbol overflow="visible" id="c"><path d="M.89-6.563h.876v2.688H5v-2.688h.89V0H5v-3.125H1.766V0H.89zm0 0"/></symbol><symbol overflow="visible" id="d"><path d="M3.547-5.953c-.65 0-1.164.242-1.547.72-.375.48-.563 1.13-.563 1.952 0 .835.188 1.49.563 1.967.383.48.898.72 1.547.72.644 0 1.156-.24 1.53-.72.376-.476.564-1.132.564-1.968 0-.822-.187-1.474-.562-1.954-.375-.477-.887-.72-1.53-.72zm0-.734c.914 0 1.648.312 2.203.937.55.617.828 1.438.828 2.47 0 1.042-.277 1.87-.828 2.483-.555.617-1.29.922-2.203.922-.93 0-1.668-.305-2.22-.922C.774-1.41.5-2.237.5-3.28c0-1.033.273-1.853.828-2.47.55-.625 1.29-.938 2.22-.938zm0 0"/></symbol><symbol overflow="visible"><path d="M.406 1.422V-5.64h4V1.42zM.844.97h3.11v-6.157H.843zm0 0"/></symbol><symbol overflow="visible" id="e"><path d="M3.688-5.016v2.172h2.17v.672H3.69V0H3.03v-2.172H.845v-.672H3.03v-2.172zm0 0"/></symbol></defs><g><path fill="#fff" d="M0 0h300v300H0z"/><path d="M84.754 122.47l4.086 4.76" stroke-width="1.2" stroke="#3cc" stroke-miterlimit="10" fill="none"/><path d="M88.84 127.23l4.086 4.762" stroke-width="1.2" stroke="#000" stroke-miterlimit="10" fill="none"/><path d="M78.754 116.97h6v11h-6zm0 0" fill="#fff"/><use xlink:href="#a" x="78.754" y="125.632" fill="#3cc"/><path d="M92.926 131.992l12.336-2.312M94.703 134.664l9.87-1.85M88.762 143.836l4.164-11.844M105.262 129.68l8.175 9.527M113.438 139.207l-4.165 11.84M110.234 139.41l-3.332 9.473M109.273 151.047l4.086 4.762" stroke-width="1.2" stroke="#000" stroke-miterlimit="10" fill="none"/><path d="M113.36 155.81l4.085 4.764" stroke-width="1.2" stroke="#00f" stroke-miterlimit="10" fill="none"/><path d="M109.273 151.047l-12.34 2.316" stroke-width="1.2" stroke="#000" stroke-miterlimit="10" fill="none"/><path d="M117.445 160.574l6.168-1.156" stroke-width="1.2" stroke="#00f" stroke-miterlimit="10" fill="none"/><path d="M123.613 159.418l6.168-1.16" stroke-width="1.2" stroke="#000" stroke-miterlimit="10" fill="none"/><path d="M110.445 155.074h14v11h-14zm0 0" fill="#fff"/><g fill="#00f"><use xlink:href="#b" x="110.445" y="163.737"/><use xlink:href="#c" x="117.423" y="163.737"/></g><path d="M129.78 158.258l8.177 9.527M132.844 157.29l6.535 7.62M133.945 146.418l-4.164 11.84M137.957 167.785l12.336-2.316M150.293 165.47l4.164-11.84M153.496 165.266l3.332-9.473M156.957 176.11l-6.664-10.64M154.457 153.63l-8.172-9.528M154.457 153.63l11.856-4.13M146.285 144.102l-12.34 2.316M145.594 147.234l-9.867 1.856M167.777 149.668l.715-6.234" stroke-width="1.2" stroke="#000" stroke-miterlimit="10" fill="none"/><path d="M168.492 143.434l.71-6.24" stroke-width="1.2" stroke="#f00" stroke-miterlimit="10" fill="none"/><path d="M164.844 149.332l.71-6.234" stroke-width="1.2" stroke="#000" stroke-miterlimit="10" fill="none"/><path d="M165.555 143.098l.715-6.235" stroke-width="1.2" stroke="#f00" stroke-miterlimit="10" fill="none"/><path d="M166.313 149.5l10.617 6.695" stroke-width="1.2" stroke="#000" stroke-miterlimit="10" fill="none"/><path d="M163.734 131.527h8v11h-8zm0 0" fill="#fff"/><use xlink:href="#d" x="163.734" y="140.19" fill="#f00"/><path d="M176.93 156.195l10.11-7.437M179.69 157.828l8.09-5.95M178.316 168.672l-1.386-12.477M187.04 148.758l11.5 5.035M198.54 153.793l5.054-3.72" stroke-width="1.2" stroke="#000" stroke-miterlimit="10" fill="none"/><path d="M203.594 150.074l5.054-3.72" stroke-width="1.2" stroke="#f00" stroke-miterlimit="10" fill="none"/><path d="M198.54 153.793l1.386 12.477M195.742 155.367l1.11 9.98" stroke-width="1.2" stroke="#000" stroke-miterlimit="10" fill="none"/><path d="M208.648 146.355l5.75 2.516" stroke-width="1.2" stroke="#f00" stroke-miterlimit="10" fill="none"/><path d="M214.398 148.87l5.75 2.52" stroke-width="1.2" stroke="#000" stroke-miterlimit="10" fill="none"/><path d="M204.648 140.855h8v11h-8zm0 0" fill="#fff"/><use xlink:href="#d" x="204.648" y="149.519" fill="#f00"/><path d="M220.148 151.39l10.11-7.437M230.258 143.953l5.75 2.52" stroke-width="1.2" stroke="#000" stroke-miterlimit="10" fill="none"/><path d="M236.008 146.473l5.746 2.515M241.754 148.988l.695 6.24" stroke-width="1.2" stroke="#00f" stroke-miterlimit="10" fill="none"/><path d="M242.45 155.227l.69 6.238M251.867 141.55l-5.058 3.72" stroke-width="1.2" stroke="#000" stroke-miterlimit="10" fill="none"/><path d="M246.81 145.27l-5.056 3.718" stroke-width="1.2" stroke="#00f" stroke-miterlimit="10" fill="none"/><path d="M231.754 141.488h21v15h-21zm0 0" fill="#fff"/><g fill="#00f"><use xlink:href="#b" x="231.754" y="153.59"/><use xlink:href="#c" x="238.731" y="153.59"/></g><use xlink:href="#e" x="245.746" y="148.707" fill="#00f"/><path d="M243.14 161.465l11.5 5.04M254.64 166.504l5.055-3.723" stroke-width="1.2" stroke="#000" stroke-miterlimit="10" fill="none"/><path d="M259.695 162.78l5.055-3.718M264.75 159.063l-.69-6.24" stroke-width="1.2" stroke="#f00" stroke-miterlimit="10" fill="none"/><path d="M264.06 152.824l-.697-6.238" stroke-width="1.2" stroke="#000" stroke-miterlimit="10" fill="none"/><path d="M260.75 153.563h8v11h-8zm0 0" fill="#fff"/><use xlink:href="#d" x="260.75" y="162.226" fill="#f00"/><path d="M263.363 146.586l-11.496-5.035M199.926 166.27l-10.113 7.437M189.813 173.707l-11.497-5.035M189.848 170.5l-9.196-4.03M178.316 168.672l-8.89 8.86M169.426 177.53l-12.47-1.42M96.934 153.363l-8.172-9.527M98.36 150.488l-6.54-7.625M88.762 143.836l-6.168 1.156" stroke-width="1.2" stroke="#000" stroke-miterlimit="10" fill="none"/><path d="M82.594 144.992l-6.168 1.16M76.426 146.152l-2.082 5.918" stroke-width="1.2" stroke="#00f" stroke-miterlimit="10" fill="none"/><path d="M74.344 152.07l-2.082 5.922" stroke-width="1.2" stroke="#000" stroke-miterlimit="10" fill="none"/><path d="M69.426 140.652h14v11h-14zm0 0" fill="#fff"/><g fill="#00f"><use xlink:href="#b" x="69.426" y="149.315"/><use xlink:href="#c" x="76.403" y="149.315"/></g><path d="M71.14 158.953l4.087 4.766" stroke-width="1.2" stroke="#000" stroke-miterlimit="10" fill="none"/><path d="M75.227 163.72l4.085 4.76" stroke-width="1.2" stroke="#f00" stroke-miterlimit="10" fill="none"/><path d="M73.383 157.03l4.086 4.763" stroke-width="1.2" stroke="#000" stroke-miterlimit="10" fill="none"/><path d="M77.47 161.793l4.085 4.766" stroke-width="1.2" stroke="#f00" stroke-miterlimit="10" fill="none"/><path d="M72.262 157.992l-12.336 2.317" stroke-width="1.2" stroke="#000" stroke-miterlimit="10" fill="none"/><path d="M76.434 162.02h8v11h-8zm0 0" fill="#fff"/><use xlink:href="#d" x="76.434" y="170.683" fill="#f00"/><path d="M59.926 160.31l-8.176-9.53M56.867 161.277l-6.54-7.62M55.762 172.148l4.164-11.84M51.75 150.78L39.414 153.1M39.414 153.098l-4.164 11.84M41.785 155.258l-3.332 9.476M35.25 164.938l8.172 9.527M43.422 174.465l12.34-2.317M44.113 171.328l9.867-1.85" stroke-width="1.2" stroke="#000" stroke-miterlimit="10" fill="none"/></g></svg>