<svg xmlns="http://www.w3.org/2000/svg" xmlns:xlink="http://www.w3.org/1999/xlink" width="300pt" height="300pt" viewBox="0 0 300 300"><defs><symbol overflow="visible"><path d="M.453 1.594v-7.938h4.5v7.938zm.5-.5h3.5v-6.938h-3.5zm0 0"/></symbol><symbol overflow="visible" id="a"><path d="M.89-6.563h3.766v.75h-2.89v1.938h2.61v.734h-2.61V0H.89zm0 0"/></symbol><symbol overflow="visible" id="b"><path d="M.89-6.563H2.08l2.906 5.485v-5.484h.86V0H4.656L1.75-5.484V0H.89zm0 0"/></symbol><symbol overflow="visible" id="c"><path d="M.89-6.563h.876v2.688H5v-2.688h.89V0H5v-3.125H1.766V0H.89zm0 0"/></symbol><symbol overflow="visible" id="d"><path d="M3.547-5.953c-.65 0-1.164.242-1.547.72-.375.48-.563 1.13-.563 1.952 0 .835.188 1.49.563 1.967.383.48.898.72 1.547.72.644 0 1.156-.24 1.53-.72.376-.476.564-1.132.564-1.968 0-.822-.187-1.474-.562-1.954-.375-.477-.887-.72-1.53-.72zm0-.734c.914 0 1.648.312 2.203.937.55.617.828 1.438.828 2.47 0 1.042-.277 1.87-.828 2.483-.555.617-1.29.922-2.203.922-.93 0-1.668-.305-2.22-.922C.774-1.41.5-2.237.5-3.28c0-1.033.273-1.853.828-2.47.55-.625 1.29-.938 2.22-.938zm0 0"/></symbol><symbol overflow="visible"><path d="M.406 1.422V-5.64h4V1.42zM.844.97h3.11v-6.157H.843zm0 0"/></symbol><symbol overflow="visible" id="e"><path d="M3.688-5.016v2.172h2.17v.672H3.69V0H3.03v-2.172H.845v-.672H3.03v-2.172zm0 0"/></symbol></defs><g><path fill="#fff" d="M0 0h300v300H0z"/><path d="M80.898 122.184l4.2 4.832" stroke-width="1.2" stroke="#3cc" stroke-miterlimit="10" fill="none"/><path d="M85.098 127.016l4.2 4.836" stroke-width="1.2" stroke="#000" stroke-miterlimit="10" fill="none"/><path d="M74.898 116.684h6v11h-6zm0 0" fill="#fff"/><use xlink:href="#a" x="74.898" y="125.347" fill="#3cc"/><path d="M89.297 131.852l12.57-2.442M91.13 134.563l10.058-1.954M85.125 143.957l4.172-12.105M101.867 129.41l8.4 9.664M110.266 139.074l-4.172 12.11M107 139.305l-3.336 9.683M106.094 151.184l4.2 4.832" stroke-width="1.2" stroke="#000" stroke-miterlimit="10" fill="none"/><path d="M110.293 156.016l4.2 4.832" stroke-width="1.2" stroke="#00f" stroke-miterlimit="10" fill="none"/><path d="M106.094 151.184l-12.57 2.437" stroke-width="1.2" stroke="#000" stroke-miterlimit="10" fill="none"/><path d="M114.492 160.848l6.285-1.22" stroke-width="1.2" stroke="#00f" stroke-miterlimit="10" fill="none"/><path d="M120.777 159.63l6.285-1.224" stroke-width="1.2" stroke="#000" stroke-miterlimit="10" fill="none"/><path d="M107.492 155.348h14v11h-14zm0 0" fill="#fff"/><g fill="#00f"><use xlink:href="#b" x="107.492" y="164.011"/><use xlink:href="#c" x="114.47" y="164.011"/></g><path d="M127.063 158.406l8.402 9.668M130.18 157.398l6.718 7.73M131.234 146.3l-4.172 12.106M135.465 168.074l12.57-2.44M148.035 165.633l4.168-12.106M151.3 165.402l3.337-9.683M154.898 176.44l-6.863-10.807M152.203 153.527l-8.398-9.668M152.203 153.527l12.067-4.29M143.805 143.86l-12.57 2.44M143.125 147.063l-10.06 1.953M165.77 149.402l.687-6.367" stroke-width="1.2" stroke="#000" stroke-miterlimit="10" fill="none"/><path d="M166.457 143.035l.684-6.363" stroke-width="1.2" stroke="#f00" stroke-miterlimit="10" fill="none"/><path d="M162.773 149.078l.688-6.367" stroke-width="1.2" stroke="#000" stroke-miterlimit="10" fill="none"/><path d="M163.46 142.71l.688-6.362" stroke-width="1.2" stroke="#f00" stroke-miterlimit="10" fill="none"/><path d="M164.27 149.238L175.145 156" stroke-width="1.2" stroke="#000" stroke-miterlimit="10" fill="none"/><path d="M161.645 131.008h8v11h-8zm0 0" fill="#fff"/><use xlink:href="#d" x="161.645" y="139.671" fill="#f00"/><path d="M175.145 156l10.27-7.652M177.973 157.652l8.214-6.125M176.64 168.72L175.146 156M185.414 148.348l11.758 5.066M197.172 153.414l5.137-3.828" stroke-width="1.2" stroke="#000" stroke-miterlimit="10" fill="none"/><path d="M202.31 149.586l5.13-3.824" stroke-width="1.2" stroke="#f00" stroke-miterlimit="10" fill="none"/><path d="M197.172 153.414l1.496 12.715M194.332 155.035l1.195 10.176" stroke-width="1.2" stroke="#000" stroke-miterlimit="10" fill="none"/><path d="M207.44 145.762l5.88 2.53" stroke-width="1.2" stroke="#f00" stroke-miterlimit="10" fill="none"/><path d="M213.32 148.293l5.88 2.53" stroke-width="1.2" stroke="#000" stroke-miterlimit="10" fill="none"/><path d="M203.44 140.262h8v11h-8zm0 0" fill="#fff"/><use xlink:href="#d" x="203.441" y="148.925" fill="#f00"/><path d="M219.2 150.824l10.27-7.652M229.47 143.172l5.878 2.53" stroke-width="1.2" stroke="#000" stroke-miterlimit="10" fill="none"/><path d="M235.348 145.703l5.88 2.535M241.227 148.238l.75 6.356" stroke-width="1.2" stroke="#00f" stroke-miterlimit="10" fill="none"/><path d="M241.977 154.594l.746 6.36M251.496 140.586l-5.133 3.824" stroke-width="1.2" stroke="#000" stroke-miterlimit="10" fill="none"/><path d="M246.363 144.41l-5.136 3.828" stroke-width="1.2" stroke="#00f" stroke-miterlimit="10" fill="none"/><path d="M231.227 140.738h21v15h-21zm0 0" fill="#fff"/><g fill="#00f"><use xlink:href="#b" x="231.227" y="152.84"/><use xlink:href="#c" x="238.204" y="152.84"/></g><use xlink:href="#e" x="245.219" y="147.957" fill="#00f"/><path d="M242.723 160.953l11.76 5.067M254.484 166.02l5.133-3.83" stroke-width="1.2" stroke="#000" stroke-miterlimit="10" fill="none"/><path d="M259.617 162.19l5.133-3.823M264.75 158.367l-.746-6.36" stroke-width="1.2" stroke="#f00" stroke-miterlimit="10" fill="none"/><path d="M264.004 152.008l-.75-6.36" stroke-width="1.2" stroke="#000" stroke-miterlimit="10" fill="none"/><path d="M260.75 152.867h8v11h-8zm0 0" fill="#fff"/><use xlink:href="#d" x="260.75" y="161.53" fill="#f00"/><path d="M263.254 145.648l-11.758-5.062M198.668 166.13l-10.266 7.655M188.402 173.785l-11.76-5.066M188.418 170.508l-9.41-4.05M176.64 168.72l-9.01 9.096M167.63 177.816l-12.732-1.375M93.523 153.62l-8.398-9.663M94.96 150.68l-6.718-7.735M85.125 143.957l-6.285 1.22" stroke-width="1.2" stroke="#000" stroke-miterlimit="10" fill="none"/><path d="M78.84 145.176l-6.285 1.222M72.555 146.398l-2.086 6.05" stroke-width="1.2" stroke="#00f" stroke-miterlimit="10" fill="none"/><path d="M70.47 152.45l-2.087 6.054" stroke-width="1.2" stroke="#000" stroke-miterlimit="10" fill="none"/><path d="M65.555 140.898h14v11h-14zm0 0" fill="#fff"/><g fill="#00f"><use xlink:href="#b" x="65.555" y="149.562"/><use xlink:href="#c" x="72.532" y="149.562"/></g><path d="M67.246 159.492l4.2 4.832" stroke-width="1.2" stroke="#000" stroke-miterlimit="10" fill="none"/><path d="M71.445 164.324l4.2 4.832" stroke-width="1.2" stroke="#f00" stroke-miterlimit="10" fill="none"/><path d="M69.523 157.516l4.2 4.832" stroke-width="1.2" stroke="#000" stroke-miterlimit="10" fill="none"/><path d="M73.723 162.348l4.2 4.832" stroke-width="1.2" stroke="#f00" stroke-miterlimit="10" fill="none"/><path d="M68.383 158.504l-12.57 2.44" stroke-width="1.2" stroke="#000" stroke-miterlimit="10" fill="none"/><path d="M72.78 162.668h8v11h-8zm0 0" fill="#fff"/><use xlink:href="#d" x="72.781" y="171.331" fill="#f00"/><path d="M55.813 160.945l-5.415 11.602M46.45 152.207l9.362 8.738M45.332 155.285l7.492 6.988M50.398 172.547l-12.707-1.563M49.496 169.402l-10.168-1.254M37.69 170.984l-1.22-6.285" stroke-width="1.2" stroke="#000" stroke-miterlimit="10" fill="none"/><path d="M36.47 164.7l-1.22-6.286M35.25 158.414l5.602-3.1" stroke-width="1.2" stroke="#f00" stroke-miterlimit="10" fill="none"/><path d="M40.852 155.313l5.597-3.106" stroke-width="1.2" stroke="#000" stroke-miterlimit="10" fill="none"/><path d="M31.25 152.914h8v11h-8zm0 0" fill="#fff"/><use xlink:href="#d" x="31.25" y="161.577" fill="#f00"/></g></svg>