<svg xmlns="http://www.w3.org/2000/svg" xmlns:xlink="http://www.w3.org/1999/xlink" width="300pt" height="300pt" viewBox="0 0 300 300"><defs><symbol overflow="visible"><path d="M.453 1.594v-7.938h4.5v7.938zm.5-.5h3.5v-6.938h-3.5zm0 0"/></symbol><symbol overflow="visible" id="a"><path d="M3.547-5.953c-.65 0-1.164.242-1.547.72-.375.48-.563 1.13-.563 1.952 0 .835.188 1.49.563 1.967.383.48.898.72 1.547.72.644 0 1.156-.24 1.53-.72.376-.476.564-1.132.564-1.968 0-.822-.187-1.474-.562-1.954-.375-.477-.887-.72-1.53-.72zm0-.734c.914 0 1.648.312 2.203.937.55.617.828 1.438.828 2.47 0 1.042-.277 1.87-.828 2.483-.555.617-1.29.922-2.203.922-.93 0-1.668-.305-2.22-.922C.774-1.41.5-2.237.5-3.28c0-1.033.273-1.853.828-2.47.55-.625 1.29-.938 2.22-.938zm0 0"/></symbol><symbol overflow="visible" id="b"><path d="M.89-6.563H2.08l2.906 5.485v-5.484h.86V0H4.656L1.75-5.484V0H.89zm0 0"/></symbol><symbol overflow="visible" id="c"><path d="M.89-6.563h.876v2.688H5v-2.688h.89V0H5v-3.125H1.766V0H.89zm0 0"/></symbol><symbol overflow="visible"><path d="M.406 1.422V-5.64h4V1.42zM.844.97h3.11v-6.157H.843zm0 0"/></symbol><symbol overflow="visible" id="d"><path d="M3.688-5.016v2.172h2.17v.672H3.69V0H3.03v-2.172H.845v-.672H3.03v-2.172zm0 0"/></symbol></defs><g><path fill="#fff" d="M0 0h300v300H0z"/><path d="M58.164 224.81l-11.457 4.542" stroke-width="1.2" stroke="#f00" stroke-miterlimit="10" fill="none"/><path d="M46.707 229.352l-11.457 4.546" stroke-width="1.2" stroke="#000" stroke-miterlimit="10" fill="none"/><path d="M58.164 224.81l1.793-12.197" stroke-width="1.2" stroke="#f00" stroke-miterlimit="10" fill="none"/><path d="M59.957 212.613l1.79-12.19" stroke-width="1.2" stroke="#000" stroke-miterlimit="10" fill="none"/><path d="M54.164 219.31h8v11h-8zm0 0" fill="#fff"/><use xlink:href="#a" x="54.164" y="227.972" fill="#f00"/><path d="M61.746 200.422l-19.324-15.3M63.414 194.344l-15.46-12.24M84.66 191.332l-22.914 9.09M42.422 185.12l3.586-24.386M46.008 160.734l22.91-9.086M50.438 165.22l18.328-7.27M68.918 151.648l19.328 15.297" stroke-width="1.2" stroke="#000" stroke-miterlimit="10" fill="none"/><path d="M72.504 127.262m-.945 2.847l1.03.148m-1.977 2.695l2.063.305m-3.008 2.543l3.094.458m-4.04 2.39l4.126.606m-5.07 2.242l5.156.758m-6.102 2.09l6.188.91m-7.133 1.937l7.218 1.06m-8.164 1.79l8.25 1.21m-8.573-.234l8.606 1.265" stroke="#000" stroke-miterlimit="10" fill="none"/><path d="M88.246 166.945l-3.586 24.387M82.148 168.543L79.28 188.05M72.504 127.262l-17.62-17.235M94.34 115.828l-21.836 11.434M54.883 110.027l5.472-11.043" stroke-width="1.2" stroke="#000" stroke-miterlimit="10" fill="none"/><path d="M60.355 98.984l5.473-11.043M65.828 87.94l12.195 1.794" stroke-width="1.2" stroke="#00f" stroke-miterlimit="10" fill="none"/><path d="M78.023 89.734l12.192 1.793" stroke-width="1.2" stroke="#000" stroke-miterlimit="10" fill="none"/><path d="M65.828 87.94l-5.715-10.917" stroke-width="1.2" stroke="#00f" stroke-miterlimit="10" fill="none"/><path d="M60.113 77.023l-5.718-10.92" stroke-width="1.2" stroke="#000" stroke-miterlimit="10" fill="none"/><path d="M55.828 80.44h21v15h-21zm0 0" fill="#fff"/><g fill="#00f"><use xlink:href="#b" x="55.828" y="92.543"/><use xlink:href="#c" x="62.806" y="92.543"/></g><use xlink:href="#d" x="69.82" y="87.66" fill="#00f"/><path d="M90.215 91.527l4.125 24.3" stroke-width="1.2" stroke="#000" stroke-miterlimit="10" fill="none"/><path d="M94.34 115.828l20.156 14.844 3.863-7.797zm0 0"/><path d="M116.426 126.773l.78 12.3" stroke-width="1.2" stroke="#000" stroke-miterlimit="10" fill="none"/><path d="M117.207 139.074l.78 12.297" stroke-width="1.2" stroke="#00f" stroke-miterlimit="10" fill="none"/><path d="M116.426 126.773l10.26-6.828" stroke-width="1.2" stroke="#000" stroke-miterlimit="10" fill="none"/><path d="M126.688 119.945l10.26-6.824" stroke-width="1.2" stroke="#00f" stroke-miterlimit="10" fill="none"/><path d="M121.69 130.234l8.212-5.46" stroke-width="1.2" stroke="#000" stroke-miterlimit="10" fill="none"/><path d="M129.902 124.773l8.207-5.46M117.988 151.37l11.043 5.474" stroke-width="1.2" stroke="#00f" stroke-miterlimit="10" fill="none"/><path d="M129.03 156.844l11.044 5.476" stroke-width="1.2" stroke="#000" stroke-miterlimit="10" fill="none"/><path d="M110.988 145.87h14v11h-14zm0 0" fill="#fff"/><g fill="#00f"><use xlink:href="#b" x="110.988" y="154.534"/><use xlink:href="#c" x="117.966" y="154.534"/></g><path d="M137.18 162.504l.785 12.297" stroke-width="1.2" stroke="#000" stroke-miterlimit="10" fill="none"/><path d="M137.965 174.8l.78 12.302" stroke-width="1.2" stroke="#f00" stroke-miterlimit="10" fill="none"/><path d="M142.97 162.133l.78 12.3" stroke-width="1.2" stroke="#000" stroke-miterlimit="10" fill="none"/><path d="M143.75 174.434l.78 12.3" stroke-width="1.2" stroke="#f00" stroke-miterlimit="10" fill="none"/><path d="M140.074 162.32l20.524-13.656" stroke-width="1.2" stroke="#000" stroke-miterlimit="10" fill="none"/><path d="M137.64 181.418h8v11h-8zm0 0" fill="#fff"/><use xlink:href="#a" x="137.641" y="190.081" fill="#f00"/><path d="M160.598 148.664l22.086 10.945M165.383 144.563l17.668 8.757M159.035 124.066l1.563 24.598M182.684 159.61l20.523-13.653M203.207 145.957l-1.566-24.598M197.262 143.863l-1.25-19.68M203.207 145.957l22.082 10.945M201.64 121.36l-22.08-10.95M179.56 110.41l-20.525 13.656M180.72 116.605l-16.42 10.922M159.035 124.066l-11.043-5.472" stroke-width="1.2" stroke="#000" stroke-miterlimit="10" fill="none"/><path d="M147.992 118.594l-11.043-5.473" stroke-width="1.2" stroke="#00f" stroke-miterlimit="10" fill="none"/><path d="M133.95 107.62h7v11h-7zm0 0" fill="#fff"/><use xlink:href="#b" x="133.949" y="116.284" fill="#00f"/><path d="M225.29 156.902l21.84-11.433M229.418 181.203l-4.13-24.3M234.723 177.805l-3.3-19.442M247.13 145.47l8.808 8.616" stroke-width="1.2" stroke="#000" stroke-miterlimit="10" fill="none"/><path d="M255.938 154.086l8.812 8.617" stroke-width="1.2" stroke="#00f" stroke-miterlimit="10" fill="none"/><path d="M244.836 151.34l7.047 6.894" stroke-width="1.2" stroke="#000" stroke-miterlimit="10" fill="none"/><path d="M251.883 158.234l7.05 6.895M264.75 162.703l-10.945 22.086" stroke-width="1.2" stroke="#00f" stroke-miterlimit="10" fill="none"/><path d="M261.75 157.203h7v11h-7zm0 0" fill="#fff"/><use xlink:href="#b" x="261.75" y="165.866" fill="#00f"/><path d="M253.805 184.79l-12.196-1.794" stroke-width="1.2" stroke="#00f" stroke-miterlimit="10" fill="none"/><path d="M241.61 182.996l-12.192-1.793" stroke-width="1.2" stroke="#000" stroke-miterlimit="10" fill="none"/><path d="M246.805 179.29h14v11h-14zm0 0" fill="#fff"/><g fill="#00f"><use xlink:href="#b" x="246.805" y="187.952"/><use xlink:href="#c" x="253.782" y="187.952"/></g></g></svg>