<svg xmlns="http://www.w3.org/2000/svg" xmlns:xlink="http://www.w3.org/1999/xlink" width="300pt" height="300pt" viewBox="0 0 300 300"><defs><symbol overflow="visible"><path d="M.453 1.594v-7.938h4.5v7.938zm.5-.5h3.5v-6.938h-3.5zm0 0"/></symbol><symbol overflow="visible" id="a"><path d="M4.813-6.344v.86c-.336-.157-.653-.27-.954-.344-.294-.082-.58-.125-.86-.125-.492 0-.867.094-1.125.28-.262.19-.39.454-.39.798 0 .293.085.512.265.656.176.15.504.267.984.36l.547.11c.658.125 1.142.352 1.454.672.32.312.485.734.485 1.265 0 .637-.216 1.122-.642 1.454-.43.325-1.055.485-1.875.485-.312 0-.648-.04-1-.11C1.36-.046 1-.147.625-.296v-.906c.352.2.703.35 1.047.453.35.105.695.156 1.03.156.5 0 .884-.097 1.157-.297.28-.196.42-.485.42-.86 0-.32-.1-.57-.296-.75-.2-.176-.523-.313-.968-.406l-.547-.11C1.81-3.148 1.33-3.36 1.03-3.64.74-3.923.595-4.313.595-4.813c0-.57.203-1.024.61-1.36.405-.344.968-.516 1.687-.516.313 0 .626.032.938.094.32.055.65.137.985.25zm0 0"/></symbol><symbol overflow="visible" id="b"><path d="M.89-6.563H2.08l2.906 5.485v-5.484h.86V0H4.656L1.75-5.484V0H.89zm0 0"/></symbol><symbol overflow="visible" id="c"><path d="M.89-6.563h.876v2.688H5v-2.688h.89V0H5v-3.125H1.766V0H.89zm0 0"/></symbol><symbol overflow="visible" id="e"><path d="M3.547-5.953c-.65 0-1.164.242-1.547.72-.375.48-.563 1.13-.563 1.952 0 .835.188 1.49.563 1.967.383.48.898.72 1.547.72.644 0 1.156-.24 1.53-.72.376-.476.564-1.132.564-1.968 0-.822-.187-1.474-.562-1.954-.375-.477-.887-.72-1.53-.72zm0-.734c.914 0 1.648.312 2.203.937.55.617.828 1.438.828 2.47 0 1.042-.277 1.87-.828 2.483-.555.617-1.29.922-2.203.922-.93 0-1.668-.305-2.22-.922C.774-1.41.5-2.237.5-3.28c0-1.033.273-1.853.828-2.47.55-.625 1.29-.938 2.22-.938zm0 0"/></symbol><symbol overflow="visible"><path d="M.406 1.422V-5.64h4V1.42zM.844.97h3.11v-6.157H.843zm0 0"/></symbol><symbol overflow="visible" id="d"><path d="M3.688-5.016v2.172h2.17v.672H3.69V0H3.03v-2.172H.845v-.672H3.03v-2.172zm0 0"/></symbol><symbol overflow="visible" id="f"><path d="M1.53-.672h2.767V0H.594v-.672c.29-.3.695-.71 1.22-1.234.518-.532.842-.867.967-1.016.26-.28.44-.52.533-.72.1-.194.156-.39.156-.577 0-.31-.11-.565-.33-.764-.218-.196-.5-.297-.843-.297-.25 0-.516.046-.797.14-.273.085-.563.214-.875.39v-.797c.32-.133.617-.234.89-.297.282-.062.536-.093.766-.093.603 0 1.083.152 1.44.453.362.304.546.703.546 1.203 0 .24-.047.468-.14.686-.095.22-.26.477-.485.766-.074.074-.288.293-.64.656-.344.356-.836.856-1.47 1.5zm0 0"/></symbol></defs><g><path fill="#fff" d="M0 0h300v300H0z"/><path d="M226.352 219.72l7.69-6.59" stroke-width="1.2" stroke="#cc0" stroke-miterlimit="10" fill="none"/><path d="M234.043 213.13l7.687-6.59M209.066 209.164l8.645 5.277" stroke-width="1.2" stroke="#000" stroke-miterlimit="10" fill="none"/><path d="M217.71 214.44l8.642 5.28" stroke-width="1.2" stroke="#cc0" stroke-miterlimit="10" fill="none"/><path d="M223.352 214.22h6v11h-6zm0 0" fill="#fff"/><use xlink:href="#a" x="223.352" y="222.882" fill="#cc0"/><path d="M241.73 206.54l-7.78-18.7M236.555 206.5l-6.227-14.96M233.95 187.84l-10.095.812" stroke-width="1.2" stroke="#000" stroke-miterlimit="10" fill="none"/><path d="M223.855 188.652l-10.093.81" stroke-width="1.2" stroke="#00f" stroke-miterlimit="10" fill="none"/><path d="M233.95 187.84l10.554-17.285" stroke-width="1.2" stroke="#000" stroke-miterlimit="10" fill="none"/><path d="M213.762 189.46l-2.348 9.852" stroke-width="1.2" stroke="#00f" stroke-miterlimit="10" fill="none"/><path d="M211.414 199.313l-2.348 9.85" stroke-width="1.2" stroke="#000" stroke-miterlimit="10" fill="none"/><path d="M217.926 192.54l-1.875 7.878" stroke-width="1.2" stroke="#00f" stroke-miterlimit="10" fill="none"/><path d="M216.05 200.418l-1.878 7.88" stroke-width="1.2" stroke="#000" stroke-miterlimit="10" fill="none"/><path d="M210.762 183.96h7v11h-7zm0 0" fill="#fff"/><use xlink:href="#b" x="210.762" y="192.624" fill="#00f"/><path d="M209.066 209.164l-18.7 7.78M190.367 216.945l-2.61 20.086M185.383 218.34l-2.09 16.066M174.28 204.645l16.087 12.3M187.758 237.03l-9.348 3.892" stroke-width="1.2" stroke="#000" stroke-miterlimit="10" fill="none"/><path d="M178.41 240.922l-9.35 3.89M169.06 244.813l-8.044-6.153" stroke-width="1.2" stroke="#00f" stroke-miterlimit="10" fill="none"/><path d="M161.016 238.66l-8.043-6.148" stroke-width="1.2" stroke="#000" stroke-miterlimit="10" fill="none"/><path d="M170.344 239.797l-6.434-4.922" stroke-width="1.2" stroke="#00f" stroke-miterlimit="10" fill="none"/><path d="M163.91 234.875l-6.433-4.922" stroke-width="1.2" stroke="#000" stroke-miterlimit="10" fill="none"/><path d="M159.06 237.313h21v15h-21zm0 0" fill="#fff"/><g fill="#00f"><use xlink:href="#b" x="159.059" y="249.414"/><use xlink:href="#c" x="166.036" y="249.414"/></g><use xlink:href="#d" x="173.051" y="244.531" fill="#00f"/><path d="M152.973 232.512l-9.957 1.86" stroke-width="1.2" stroke="#000" stroke-miterlimit="10" fill="none"/><path d="M143.016 234.37l-9.953 1.864" stroke-width="1.2" stroke="#00f" stroke-miterlimit="10" fill="none"/><path d="M155.582 212.426l-2.61 20.086" stroke-width="1.2" stroke="#000" stroke-miterlimit="10" fill="none"/><path d="M133.063 236.234l-4.848-8.89" stroke-width="1.2" stroke="#00f" stroke-miterlimit="10" fill="none"/><path d="M128.215 227.344l-4.844-8.89" stroke-width="1.2" stroke="#000" stroke-miterlimit="10" fill="none"/><path d="M136.277 232.176l-3.875-7.113" stroke-width="1.2" stroke="#00f" stroke-miterlimit="10" fill="none"/><path d="M132.402 225.063l-3.88-7.114" stroke-width="1.2" stroke="#000" stroke-miterlimit="10" fill="none"/><path d="M130.063 230.734h7v11h-7zm0 0" fill="#fff"/><use xlink:href="#b" x="130.063" y="239.397" fill="#00f"/><path d="M123.37 218.453l6.958-7.36" stroke-width="1.2" stroke="#000" stroke-miterlimit="10" fill="none"/><path d="M130.328 211.094l6.957-7.356" stroke-width="1.2" stroke="#00f" stroke-miterlimit="10" fill="none"/><path d="M123.37 218.453l-20.085-2.61" stroke-width="1.2" stroke="#000" stroke-miterlimit="10" fill="none"/><path d="M137.285 203.738l9.15 4.344" stroke-width="1.2" stroke="#00f" stroke-miterlimit="10" fill="none"/><path d="M146.434 208.082l9.148 4.344" stroke-width="1.2" stroke="#000" stroke-miterlimit="10" fill="none"/><path d="M130.285 198.238h14v11h-14zm0 0" fill="#fff"/><g fill="#00f"><use xlink:href="#b" x="130.285" y="206.901"/><use xlink:href="#c" x="137.263" y="206.901"/></g><path d="M155.582 212.426l18.7-7.78M159.28 216.047l14.962-6.227M174.28 204.645l1.306-10.043" stroke-width="1.2" stroke="#000" stroke-miterlimit="10" fill="none"/><path d="M175.586 194.602l1.305-10.043M176.89 184.56l-8.046-6.154" stroke-width="1.2" stroke="#00f" stroke-miterlimit="10" fill="none"/><path d="M168.844 178.406l-8.043-6.148" stroke-width="1.2" stroke="#000" stroke-miterlimit="10" fill="none"/><path d="M169.89 179.06h14v11h-14zm0 0" fill="#fff"/><g fill="#00f"><use xlink:href="#b" x="169.891" y="187.722"/><use xlink:href="#c" x="176.868" y="187.722"/></g><path d="M160.8 172.258l2.61-20.086M163.41 152.172l-16.09-12.3M147.32 139.87l1.305-10.042" stroke-width="1.2" stroke="#000" stroke-miterlimit="10" fill="none"/><path d="M148.625 129.828l1.31-10.043M149.934 119.785l-8.047-6.152" stroke-width="1.2" stroke="#00f" stroke-miterlimit="10" fill="none"/><path d="M141.887 113.633l-8.043-6.15" stroke-width="1.2" stroke="#000" stroke-miterlimit="10" fill="none"/><path d="M142.934 114.285h14v11h-14zm0 0" fill="#fff"/><g fill="#00f"><use xlink:href="#b" x="142.934" y="122.948"/><use xlink:href="#c" x="149.911" y="122.948"/></g><path d="M132.926 105.285l-9.348 3.89" stroke-width="1.2" stroke="#000" stroke-miterlimit="10" fill="none"/><path d="M123.578 109.176l-9.348 3.89" stroke-width="1.2" stroke="#f00" stroke-miterlimit="10" fill="none"/><path d="M134.758 109.684l-9.348 3.89" stroke-width="1.2" stroke="#000" stroke-miterlimit="10" fill="none"/><path d="M125.41 113.574l-9.35 3.89" stroke-width="1.2" stroke="#f00" stroke-miterlimit="10" fill="none"/><path d="M133.844 107.484l2.61-20.086" stroke-width="1.2" stroke="#000" stroke-miterlimit="10" fill="none"/><path d="M107.145 109.766h8v11h-8zm0 0" fill="#fff"/><use xlink:href="#e" x="107.145" y="118.429" fill="#f00"/><path d="M136.453 87.398l-14.715-13.914M154.234 77.707l-17.78 9.69M121.738 73.484l8.688-18.296M130.426 55.188l20.086 2.61M150.512 57.797l3.722 19.91M103.285 215.844l-7.78-18.7M98.105 215.805l-6.222-14.96M90.984 231.93l12.3-16.086M95.504 197.145l-20.086-2.61M75.418 194.535l-12.3 16.086M77.973 199.035l-9.84 12.87M63.117 210.62l-10.043-1.304" stroke-width="1.2" stroke="#000" stroke-miterlimit="10" fill="none"/><path d="M53.074 209.316l-10.043-1.304" stroke-width="1.2" stroke="#f00" stroke-miterlimit="10" fill="none"/><path d="M63.117 210.62l7.78 18.7" stroke-width="1.2" stroke="#000" stroke-miterlimit="10" fill="none"/><path d="M43.03 208.012l-3.89-9.348" stroke-width="1.2" stroke="#f00" stroke-miterlimit="10" fill="none"/><path d="M39.14 198.664l-3.89-9.35" stroke-width="1.2" stroke="#000" stroke-miterlimit="10" fill="none"/><path d="M39.03 202.512h8v11h-8zm0 0" fill="#fff"/><use xlink:href="#e" x="39.031" y="211.175" fill="#f00"/><path d="M70.898 229.32l20.086 2.61M73.52 224.855l16.07 2.09M246.594 169.414l-4.848-8.894" stroke-width="1.2" stroke="#000" stroke-miterlimit="10" fill="none"/><path d="M241.746 160.52l-4.844-8.89" stroke-width="1.2" stroke="#f00" stroke-miterlimit="10" fill="none"/><path d="M242.41 171.695l-4.847-8.894" stroke-width="1.2" stroke="#000" stroke-miterlimit="10" fill="none"/><path d="M237.563 162.8l-4.844-8.89" stroke-width="1.2" stroke="#f00" stroke-miterlimit="10" fill="none"/><path d="M244.504 170.555l10.12.246" stroke-width="1.2" stroke="#000" stroke-miterlimit="10" fill="none"/><path d="M254.625 170.8l10.125.25" stroke-width="1.2" stroke="#00f" stroke-miterlimit="10" fill="none"/><path d="M226.81 147.27h8v11h-8zm0 0" fill="#fff"/><use xlink:href="#e" x="226.809" y="155.933" fill="#f00"/><path d="M255.75 163.05h19v16h-19zm0 0" fill="#fff"/><g fill="#00f"><use xlink:href="#b" x="255.75" y="171.714"/><use xlink:href="#c" x="262.728" y="171.714"/></g><use xlink:href="#f" x="269.742" y="176.597" fill="#00f"/></g></svg>