<svg xmlns="http://www.w3.org/2000/svg" xmlns:xlink="http://www.w3.org/1999/xlink" width="300pt" height="300pt" viewBox="0 0 300 300"><defs><symbol overflow="visible"><path d="M.453 1.594v-7.938h4.5v7.938zm.5-.5h3.5v-6.938h-3.5zm0 0"/></symbol><symbol overflow="visible" id="a"><path d="M1.766-3.14v2.406h1.421c.477 0 .833-.098 1.063-.297.227-.197.344-.5.344-.907 0-.407-.117-.708-.344-.907-.23-.195-.586-.297-1.063-.297zm0-2.688v1.97h1.312c.438 0 .758-.08.97-.236.218-.164.327-.414.327-.75 0-.332-.11-.578-.328-.734-.21-.164-.53-.25-.97-.25zM.89-6.562h2.266c.676 0 1.196.14 1.563.42.362.283.546.685.546 1.205 0 .398-.094.714-.282.953-.187.242-.464.39-.828.453.438.092.774.292 1.016.592.238.293.36.657.36 1.094 0 .594-.2 1.055-.595 1.375-.398.314-.964.47-1.703.47H.89zm0 0"/></symbol><symbol overflow="visible" id="b"><path d="M3.703-4.172c-.094-.05-.195-.086-.297-.11-.105-.02-.226-.03-.36-.03-.46 0-.812.152-1.062.453-.242.294-.36.715-.36 1.266V0H.813v-4.922h.813v.766c.176-.3.398-.524.672-.672.27-.145.598-.22.984-.22.064 0 .126.01.19.017.07.01.147.022.233.03zm0 0"/></symbol><symbol overflow="visible" id="c"><path d="M.89-6.563H2.08l2.906 5.485v-5.484h.86V0H4.656L1.75-5.484V0H.89zm0 0"/></symbol><symbol overflow="visible" id="d"><path d="M.89-6.563h.876v2.688H5v-2.688h.89V0H5v-3.125H1.766V0H.89zm0 0"/></symbol><symbol overflow="visible" id="e"><path d="M3.547-5.953c-.65 0-1.164.242-1.547.72-.375.48-.563 1.13-.563 1.952 0 .835.188 1.49.563 1.967.383.48.898.72 1.547.72.644 0 1.156-.24 1.53-.72.376-.476.564-1.132.564-1.968 0-.822-.187-1.474-.562-1.954-.375-.477-.887-.72-1.53-.72zm0-.734c.914 0 1.648.312 2.203.937.55.617.828 1.438.828 2.47 0 1.042-.277 1.87-.828 2.483-.555.617-1.29.922-2.203.922-.93 0-1.668-.305-2.22-.922C.774-1.41.5-2.237.5-3.28c0-1.033.273-1.853.828-2.47.55-.625 1.29-.938 2.22-.938zm0 0"/></symbol></defs><g><path fill="#fff" d="M0 0h300v300H0z"/><path d="M157.14 199.3l-8.98-2.136" stroke-width="1.2" stroke="#7f4d1a" stroke-miterlimit="10" fill="none"/><path d="M148.16 197.164l-8.984-2.137" stroke-width="1.2" stroke="#000" stroke-miterlimit="10" fill="none"/><path d="M152.14 193.8h11v11h-11zm0 0" fill="#fff"/><g fill="#7f4d1a"><use xlink:href="#a" x="152.141" y="202.464"/><use xlink:href="#b" x="158.54" y="202.464"/></g><path d="M139.176 195.027l-12.684 13.418M134.75 193.383l-10.148 10.738M133.895 177.332l5.28 17.695M126.492 208.445l-8.98-2.136" stroke-width="1.2" stroke="#000" stroke-miterlimit="10" fill="none"/><path d="M117.512 206.31l-8.985-2.138M108.527 204.172l-2.64-8.844" stroke-width="1.2" stroke="#00f" stroke-miterlimit="10" fill="none"/><path d="M105.887 195.328l-2.64-8.848" stroke-width="1.2" stroke="#000" stroke-miterlimit="10" fill="none"/><path d="M112.164 201.16l-2.113-7.078" stroke-width="1.2" stroke="#00f" stroke-miterlimit="10" fill="none"/><path d="M110.05 194.082l-2.112-7.078" stroke-width="1.2" stroke="#000" stroke-miterlimit="10" fill="none"/><path d="M105.527 198.672h7v11h-7zm0 0" fill="#fff"/><use xlink:href="#c" x="105.527" y="207.335" fill="#00f"/><path d="M103.246 186.48l-8.34-3.96" stroke-width="1.2" stroke="#000" stroke-miterlimit="10" fill="none"/><path d="M94.906 182.52l-8.344-3.958" stroke-width="1.2" stroke="#00f" stroke-miterlimit="10" fill="none"/><path d="M115.93 173.06l-12.684 13.42" stroke-width="1.2" stroke="#000" stroke-miterlimit="10" fill="none"/><path d="M86.563 178.563l1.187-9.157" stroke-width="1.2" stroke="#00f" stroke-miterlimit="10" fill="none"/><path d="M87.75 169.406l1.184-9.156" stroke-width="1.2" stroke="#000" stroke-miterlimit="10" fill="none"/><path d="M91.11 177.29l.95-7.325" stroke-width="1.2" stroke="#00f" stroke-miterlimit="10" fill="none"/><path d="M92.06 169.965l.948-7.324" stroke-width="1.2" stroke="#000" stroke-miterlimit="10" fill="none"/><path d="M83.563 173.063h7v11h-7zm0 0" fill="#fff"/><use xlink:href="#c" x="83.563" y="181.726" fill="#00f"/><path d="M88.934 160.25l9.078-1.7" stroke-width="1.2" stroke="#000" stroke-miterlimit="10" fill="none"/><path d="M98.012 158.55l9.074-1.702" stroke-width="1.2" stroke="#00f" stroke-miterlimit="10" fill="none"/><path d="M88.934 160.25l-13.418-12.684" stroke-width="1.2" stroke="#000" stroke-miterlimit="10" fill="none"/><path d="M107.086 156.848l4.422 8.105" stroke-width="1.2" stroke="#00f" stroke-miterlimit="10" fill="none"/><path d="M111.508 164.953l4.422 8.106" stroke-width="1.2" stroke="#000" stroke-miterlimit="10" fill="none"/><path d="M100.086 151.348h14v11h-14zm0 0" fill="#fff"/><g fill="#00f"><use xlink:href="#c" x="100.086" y="160.011"/><use xlink:href="#d" x="107.063" y="160.011"/></g><path d="M115.93 173.06l17.965 4.272M116.723 177.71l14.37 3.42M133.895 177.332l6.34-6.71" stroke-width="1.2" stroke="#000" stroke-miterlimit="10" fill="none"/><path d="M140.234 170.62l6.344-6.71M146.578 163.91l8.98 2.137" stroke-width="1.2" stroke="#f00" stroke-miterlimit="10" fill="none"/><path d="M155.56 166.047l8.983 2.137" stroke-width="1.2" stroke="#000" stroke-miterlimit="10" fill="none"/><path d="M142.578 158.41h8v11h-8zm0 0" fill="#fff"/><use xlink:href="#e" x="142.578" y="167.073" fill="#f00"/><path d="M164.543 168.184l12.684-13.422M177.227 154.762l17.964 4.273M195.19 159.035l6.34-6.71" stroke-width="1.2" stroke="#000" stroke-miterlimit="10" fill="none"/><path d="M201.53 152.324l6.345-6.71M207.875 145.613l8.98 2.137" stroke-width="1.2" stroke="#00f" stroke-miterlimit="10" fill="none"/><path d="M216.855 147.75l8.985 2.137" stroke-width="1.2" stroke="#000" stroke-miterlimit="10" fill="none"/><path d="M200.875 140.113h14v11h-14zm0 0" fill="#fff"/><g fill="#00f"><use xlink:href="#c" x="200.875" y="148.776"/><use xlink:href="#d" x="207.853" y="148.776"/></g><path d="M223.758 150.508l2.64 8.847" stroke-width="1.2" stroke="#000" stroke-miterlimit="10" fill="none"/><path d="M226.398 159.355l2.64 8.848" stroke-width="1.2" stroke="#f00" stroke-miterlimit="10" fill="none"/><path d="M227.922 149.266l2.64 8.847" stroke-width="1.2" stroke="#000" stroke-miterlimit="10" fill="none"/><path d="M230.563 158.113l2.64 8.848" stroke-width="1.2" stroke="#f00" stroke-miterlimit="10" fill="none"/><path d="M225.84 149.887l12.683-13.422" stroke-width="1.2" stroke="#000" stroke-miterlimit="10" fill="none"/><path d="M227.12 162.082h8v11h-8zm0 0" fill="#fff"/><use xlink:href="#e" x="227.121" y="170.745" fill="#f00"/><path d="M238.523 136.465l-3.406-18.15M256.836 138.84l-18.313-2.375M235.117 118.316l16.21-8.843M251.328 109.473l13.422 12.683M264.75 122.156l-7.914 16.684M75.516 147.566l4.273-17.964M71.715 144.766l3.418-14.37M57.82 152.848l17.696-5.282M79.79 129.602l-13.423-12.684M66.367 116.918l-17.695 5.28M65.84 121.61l-14.156 4.226M48.672 122.2l-6.71-6.34" stroke-width="1.2" stroke="#000" stroke-miterlimit="10" fill="none"/><path d="M41.96 115.86l-6.71-6.34" stroke-width="1.2" stroke="#f00" stroke-miterlimit="10" fill="none"/><path d="M48.672 122.2l-4.274 17.964" stroke-width="1.2" stroke="#000" stroke-miterlimit="10" fill="none"/><path d="M35.25 109.52l2.137-8.985" stroke-width="1.2" stroke="#f00" stroke-miterlimit="10" fill="none"/><path d="M37.387 100.535l2.136-8.98" stroke-width="1.2" stroke="#000" stroke-miterlimit="10" fill="none"/><path d="M31.25 104.02h8v11h-8zm0 0" fill="#fff"/><use xlink:href="#e" x="31.25" y="112.683" fill="#f00"/><path d="M44.398 140.164l13.422 12.684M48.723 138.277l10.738 10.145" stroke-width="1.2" stroke="#000" stroke-miterlimit="10" fill="none"/></g></svg>