<svg xmlns="http://www.w3.org/2000/svg" xmlns:xlink="http://www.w3.org/1999/xlink" width="300pt" height="300pt" viewBox="0 0 300 300"><defs><symbol overflow="visible"><path d="M.453 1.594v-7.938h4.5v7.938zm.5-.5h3.5v-6.938h-3.5zm0 0"/></symbol><symbol overflow="visible" id="a"><path d="M.89-6.563H2.08l2.906 5.485v-5.484h.86V0H4.656L1.75-5.484V0H.89zm0 0"/></symbol><symbol overflow="visible" id="b"><path d="M.89-6.563h.876v2.688H5v-2.688h.89V0H5v-3.125H1.766V0H.89zm0 0"/></symbol><symbol overflow="visible" id="c"><path d="M3.547-5.953c-.65 0-1.164.242-1.547.72-.375.48-.563 1.13-.563 1.952 0 .835.188 1.49.563 1.967.383.48.898.72 1.547.72.644 0 1.156-.24 1.53-.72.376-.476.564-1.132.564-1.968 0-.822-.187-1.474-.562-1.954-.375-.477-.887-.72-1.53-.72zm0-.734c.914 0 1.648.312 2.203.937.55.617.828 1.438.828 2.47 0 1.042-.277 1.87-.828 2.483-.555.617-1.29.922-2.203.922-.93 0-1.668-.305-2.22-.922C.774-1.41.5-2.237.5-3.28c0-1.033.273-1.853.828-2.47.55-.625 1.29-.938 2.22-.938zm0 0"/></symbol><symbol overflow="visible" id="d"><path d="M4.813-6.344v.86c-.336-.157-.653-.27-.954-.344-.294-.082-.58-.125-.86-.125-.492 0-.867.094-1.125.28-.262.19-.39.454-.39.798 0 .293.085.512.265.656.176.15.504.267.984.36l.547.11c.658.125 1.142.352 1.454.672.32.312.485.734.485 1.265 0 .637-.216 1.122-.642 1.454-.43.325-1.055.485-1.875.485-.312 0-.648-.04-1-.11C1.36-.046 1-.147.625-.296v-.906c.352.2.703.35 1.047.453.35.105.695.156 1.03.156.5 0 .884-.097 1.157-.297.28-.196.42-.485.42-.86 0-.32-.1-.57-.296-.75-.2-.176-.523-.313-.968-.406l-.547-.11C1.81-3.148 1.33-3.36 1.03-3.64.74-3.923.595-4.313.595-4.813c0-.57.203-1.024.61-1.36.405-.344.968-.516 1.687-.516.313 0 .626.032.938.094.32.055.65.137.985.25zm0 0"/></symbol></defs><g><path fill="#fff" d="M0 0h300v300H0z"/><path d="M35.25 177.176l8.945-17.313M44.195 159.863l19.47-.91M63.664 158.953l8.95-17.316M72.613 141.637l-4.375-8.707" stroke-width="1.2" stroke="#000" stroke-miterlimit="10" fill="none"/><path d="M68.238 132.93l-4.375-8.707" stroke-width="1.2" stroke="#00f" stroke-miterlimit="10" fill="none"/><path d="M75.836 137.84l-3.5-6.97" stroke-width="1.2" stroke="#000" stroke-miterlimit="10" fill="none"/><path d="M72.336 130.87l-3.5-6.964" stroke-width="1.2" stroke="#00f" stroke-miterlimit="10" fill="none"/><path d="M91.88 138.7l-19.267 2.937" stroke-width="1.2" stroke="#000" stroke-miterlimit="10" fill="none"/><path d="M63.863 124.223l13.86-13.703" stroke-width="1.2" stroke="#00f" stroke-miterlimit="10" fill="none"/><path d="M60.863 118.723h7v11h-7zm0 0" fill="#fff"/><use xlink:href="#a" x="60.863" y="127.386" fill="#00f"/><path d="M77.723 110.52l8.656 4.472" stroke-width="1.2" stroke="#00f" stroke-miterlimit="10" fill="none"/><path d="M86.38 114.992l8.66 4.477" stroke-width="1.2" stroke="#000" stroke-miterlimit="10" fill="none"/><path d="M77.723 110.52l-1.47-9.633" stroke-width="1.2" stroke="#00f" stroke-miterlimit="10" fill="none"/><path d="M76.254 100.887l-1.47-9.633" stroke-width="1.2" stroke="#000" stroke-miterlimit="10" fill="none"/><path d="M74.723 105.02h7v11h-7zm0 0" fill="#fff"/><use xlink:href="#a" x="74.723" y="113.683" fill="#00f"/><path d="M95.04 119.47l-3.16 19.23M99.246 122.133L96.72 137.52M113.273 112.586L95.04 119.47M91.88 138.7l7.538 6.175" stroke-width="1.2" stroke="#000" stroke-miterlimit="10" fill="none"/><path d="M99.418 144.875l7.54 6.176M106.957 151.05l9.117-3.44" stroke-width="1.2" stroke="#00f" stroke-miterlimit="10" fill="none"/><path d="M116.074 147.61l9.117-3.438" stroke-width="1.2" stroke="#000" stroke-miterlimit="10" fill="none"/><path d="M99.957 145.55h14v11h-14zm0 0" fill="#fff"/><g fill="#00f"><use xlink:href="#a" x="99.957" y="154.214"/><use xlink:href="#b" x="106.935" y="154.214"/></g><path d="M125.19 144.172l1.58-9.617" stroke-width="1.2" stroke="#000" stroke-miterlimit="10" fill="none"/><path d="M126.77 134.555l1.578-9.618" stroke-width="1.2" stroke="#00f" stroke-miterlimit="10" fill="none"/><path d="M120.98 141.504l1.262-7.69" stroke-width="1.2" stroke="#000" stroke-miterlimit="10" fill="none"/><path d="M122.242 133.813l1.266-7.696" stroke-width="1.2" stroke="#00f" stroke-miterlimit="10" fill="none"/><path d="M125.19 144.172l15.076 12.35" stroke-width="1.2" stroke="#000" stroke-miterlimit="10" fill="none"/><path d="M128.348 124.938l-7.536-6.176" stroke-width="1.2" stroke="#00f" stroke-miterlimit="10" fill="none"/><path d="M120.813 118.762l-7.54-6.176" stroke-width="1.2" stroke="#000" stroke-miterlimit="10" fill="none"/><path d="M125.348 119.438h7v11h-7zm0 0" fill="#fff"/><use xlink:href="#a" x="125.348" y="128.101" fill="#00f"/><path d="M115.535 112.957l1.578-9.613" stroke-width="1.2" stroke="#000" stroke-miterlimit="10" fill="none"/><path d="M117.113 103.344l1.582-9.617" stroke-width="1.2" stroke="#f00" stroke-miterlimit="10" fill="none"/><path d="M111.012 112.215l1.578-9.617" stroke-width="1.2" stroke="#000" stroke-miterlimit="10" fill="none"/><path d="M112.59 102.598l1.578-9.614" stroke-width="1.2" stroke="#f00" stroke-miterlimit="10" fill="none"/><path d="M112.43 87.855h8v11h-8zm0 0" fill="#fff"/><use xlink:href="#c" x="112.43" y="96.519" fill="#f00"/><path d="M140.266 156.523l-3.16 19.23M144.477 159.188l-2.528 15.386M158.5 149.64l-18.234 6.883M137.105 175.754l15.08 12.35M137.105 175.754l-9.117 3.44" stroke-width="1.2" stroke="#000" stroke-miterlimit="10" fill="none"/><path d="M127.988 179.195l-9.117 3.438" stroke-width="1.2" stroke="#f00" stroke-miterlimit="10" fill="none"/><path d="M152.184 188.105l18.234-6.878M152.387 183.125l14.59-5.504M170.418 181.227l3.16-19.235M173.578 161.992l-15.078-12.35M169.164 164.305l-12.062-9.883M173.578 161.992l9.117-3.44" stroke-width="1.2" stroke="#000" stroke-miterlimit="10" fill="none"/><path d="M182.695 158.55l9.118-3.437M189.668 155.922l3.437 9.117" stroke-width="1.2" stroke="#cc0" stroke-miterlimit="10" fill="none"/><path d="M193.105 165.04l3.442 9.116" stroke-width="1.2" stroke="#f00" stroke-miterlimit="10" fill="none"/><path d="M193.957 154.305l3.44 9.117" stroke-width="1.2" stroke="#cc0" stroke-miterlimit="10" fill="none"/><path d="M197.398 163.422l3.438 9.117" stroke-width="1.2" stroke="#f00" stroke-miterlimit="10" fill="none"/><path d="M193.957 154.305l-3.44-9.12" stroke-width="1.2" stroke="#cc0" stroke-miterlimit="10" fill="none"/><path d="M190.516 145.184l-3.442-9.118" stroke-width="1.2" stroke="#f00" stroke-miterlimit="10" fill="none"/><path d="M189.668 155.922l-3.44-9.117" stroke-width="1.2" stroke="#cc0" stroke-miterlimit="10" fill="none"/><path d="M186.227 146.805l-3.442-9.118" stroke-width="1.2" stroke="#f00" stroke-miterlimit="10" fill="none"/><path d="M191.813 155.113l9.117-3.44" stroke-width="1.2" stroke="#cc0" stroke-miterlimit="10" fill="none"/><path d="M200.93 151.672l9.117-3.442" stroke-width="1.2" stroke="#00f" stroke-miterlimit="10" fill="none"/><path d="M188.813 149.613h6v11h-6zm0 0" fill="#fff"/><use xlink:href="#d" x="188.813" y="158.276" fill="#cc0"/><path d="M194.69 167.848h8v11h-8zm0 0" fill="#fff"/><use xlink:href="#c" x="194.691" y="176.511" fill="#f00"/><path d="M176.93 131.38h8v11h-8zm0 0" fill="#fff"/><use xlink:href="#c" x="176.93" y="140.042" fill="#f00"/><path d="M210.047 148.23l7.535 6.176" stroke-width="1.2" stroke="#00f" stroke-miterlimit="10" fill="none"/><path d="M217.582 154.406l7.54 6.176M213.203 129l-1.578 9.617" stroke-width="1.2" stroke="#000" stroke-miterlimit="10" fill="none"/><path d="M211.625 138.617l-1.578 9.613" stroke-width="1.2" stroke="#00f" stroke-miterlimit="10" fill="none"/><path d="M207.047 142.73h7v11h-7zm0 0" fill="#fff"/><use xlink:href="#a" x="207.047" y="151.394" fill="#00f"/><path d="M225.12 160.582l18.235-6.88M243.355 153.703l1.583-9.617" stroke-width="1.2" stroke="#000" stroke-miterlimit="10" fill="none"/><path d="M244.938 144.086l1.578-9.613M246.516 134.473l-7.54-6.176" stroke-width="1.2" stroke="#00f" stroke-miterlimit="10" fill="none"/><path d="M238.977 128.297l-7.54-6.176" stroke-width="1.2" stroke="#000" stroke-miterlimit="10" fill="none"/><path d="M246.516 134.473l9.117-3.442" stroke-width="1.2" stroke="#00f" stroke-miterlimit="10" fill="none"/><path d="M255.633 131.03l9.117-3.44" stroke-width="1.2" stroke="#000" stroke-miterlimit="10" fill="none"/><path d="M243.516 128.973h7v11h-7zm0 0" fill="#fff"/><use xlink:href="#a" x="243.516" y="137.636" fill="#00f"/><path d="M231.438 122.12L213.202 129" stroke-width="1.2" stroke="#000" stroke-miterlimit="10" fill="none"/><path d="M118.87 182.633l-1.577 9.617" stroke-width="1.2" stroke="#f00" stroke-miterlimit="10" fill="none"/><path d="M117.293 192.25l-1.578 9.617" stroke-width="1.2" stroke="#000" stroke-miterlimit="10" fill="none"/><path d="M114.87 177.133h8v11h-8zm0 0" fill="#fff"/><use xlink:href="#c" x="114.871" y="185.796" fill="#f00"/><path d="M115.715 201.867l-18.235 6.88" stroke-width="1.2" stroke="#000" stroke-miterlimit="10" fill="none"/></g></svg>