<svg xmlns="http://www.w3.org/2000/svg" xmlns:xlink="http://www.w3.org/1999/xlink" width="300pt" height="300pt" viewBox="0 0 300 300"><defs><symbol overflow="visible"><path d="M.797 2.828v-14.11h8V2.83zm.906-.89h6.203v-12.33H1.703zm0 0"/></symbol><symbol overflow="visible" id="a"><path d="M6.313-10.594c-1.15 0-2.06.43-2.735 1.28-.68.857-1.015 2.017-1.015 3.486 0 1.47.335 2.633 1.015 3.484.676.856 1.586 1.28 2.735 1.28 1.144.002 2.05-.424 2.718-1.28.665-.85 1-2.015 1-3.484 0-1.47-.335-2.63-1-3.484-.667-.852-1.573-1.282-2.717-1.282zm0-1.28c1.632 0 2.94.546 3.92 1.64.978 1.093 1.47 2.562 1.47 4.406 0 1.844-.492 3.32-1.47 4.422-.98 1.093-2.288 1.64-3.92 1.64-1.65 0-2.96-.546-3.938-1.64-.98-1.102-1.47-2.578-1.47-4.422 0-1.844.49-3.313 1.47-4.406.977-1.094 2.29-1.64 3.938-1.64zm0 0"/></symbol><symbol overflow="visible" id="b"><path d="M1.578-11.672h1.578v4.78H8.89v-4.78h1.58V0H8.89v-5.563H3.157V0H1.578zm0 0"/></symbol></defs><g><path fill="#fff" d="M0 0h300v300H0z"/><path d="M189.027 177.086l35.118-15.152M188.973 167.31l28.097-12.123M158.344 154.246l30.683 22.84M224.145 161.934l4.44-37.993M230.367 128.074l17.56-7.574" stroke-width="1.2" stroke="#000" stroke-miterlimit="10" fill="none"/><path d="M247.926 120.5l17.562-7.578" stroke-width="1.2" stroke="#f00" stroke-miterlimit="10" fill="none"/><path d="M226.8 119.813l17.563-7.58" stroke-width="1.2" stroke="#000" stroke-miterlimit="10" fill="none"/><path d="M244.363 112.234l17.56-7.574" stroke-width="1.2" stroke="#f00" stroke-miterlimit="10" fill="none"/><path d="M228.586 123.94l-15.344-11.417" stroke-width="1.2" stroke="#000" stroke-miterlimit="10" fill="none"/><path d="M213.242 112.523l-15.34-11.42" stroke-width="1.2" stroke="#f00" stroke-miterlimit="10" fill="none"/><path d="M257.703 99.29h13v19h-13zm0 0" fill="#fff"/><use xlink:href="#a" x="257.703" y="114.141" fill="#f00"/><path d="M197.902 101.102l-17.562 7.578" stroke-width="1.2" stroke="#f00" stroke-miterlimit="10" fill="none"/><path d="M180.34 108.68l-17.56 7.578" stroke-width="1.2" stroke="#000" stroke-miterlimit="10" fill="none"/><path d="M191.902 91.602h13v19h-13zm0 0" fill="#fff"/><use xlink:href="#a" x="191.902" y="106.453" fill="#f00"/><path d="M162.78 116.258L132.1 93.418M154.34 121.19l-24.547-18.268M158.344 154.246l4.437-37.988M132.098 93.418l-35.12 15.152M96.977 108.57l-4.438 37.993M87.594 111.324l-3.55 30.395" stroke-width="1.2" stroke="#000" stroke-miterlimit="10" fill="none"/><path d="M62.215 92.61l17.383 7.98" stroke-width="1.2" stroke="#f00" stroke-miterlimit="10" fill="none"/><path d="M79.598 100.59l17.38 7.98M92.54 146.563l-37.505 7.52M92.54 146.563l30.683 22.835M55.035 154.082l-18.738-33.348M61.008 146.336L46.016 119.66M36.297 120.734l12.957-14.062" stroke-width="1.2" stroke="#000" stroke-miterlimit="10" fill="none"/><path d="M49.254 106.672l12.96-14.063" stroke-width="1.2" stroke="#f00" stroke-miterlimit="10" fill="none"/><path d="M56.215 83.11h13v19h-13zm0 0" fill="#fff"/><use xlink:href="#a" x="56.215" y="97.961" fill="#f00"/><path d="M123.223 169.398l35.12-15.152M123.168 159.62l28.098-12.12M123.223 169.398l-2.22 18.997" stroke-width="1.2" stroke="#000" stroke-miterlimit="10" fill="none"/><path d="M121.004 188.395l-2.22 18.996" stroke-width="1.2" stroke="#f00" stroke-miterlimit="10" fill="none"/><path d="M106.785 197.89h25v19h-25zm0 0" fill="#fff"/><g fill="#f00"><use xlink:href="#b" x="106.785" y="212.742"/><use xlink:href="#a" x="118.816" y="212.742"/></g></g></svg>