<svg xmlns="http://www.w3.org/2000/svg" xmlns:xlink="http://www.w3.org/1999/xlink" width="300pt" height="300pt" viewBox="0 0 300 300"><defs><symbol overflow="visible"><path d="M.453 1.594v-7.938h4.5v7.938zm.5-.5h3.5v-6.938h-3.5zm0 0"/></symbol><symbol overflow="visible" id="a"><path d="M3.547-5.953c-.65 0-1.164.242-1.547.72-.375.48-.563 1.13-.563 1.952 0 .835.188 1.49.563 1.967.383.48.898.72 1.547.72.644 0 1.156-.24 1.53-.72.376-.476.564-1.132.564-1.968 0-.822-.187-1.474-.562-1.954-.375-.477-.887-.72-1.53-.72zm0-.734c.914 0 1.648.312 2.203.937.55.617.828 1.438.828 2.47 0 1.042-.277 1.87-.828 2.483-.555.617-1.29.922-2.203.922-.93 0-1.668-.305-2.22-.922C.774-1.41.5-2.237.5-3.28c0-1.033.273-1.853.828-2.47.55-.625 1.29-.938 2.22-.938zm0 0"/></symbol><symbol overflow="visible" id="b"><path d="M.89-6.563H2.08l2.906 5.485v-5.484h.86V0H4.656L1.75-5.484V0H.89zm0 0"/></symbol><symbol overflow="visible" id="c"><path d="M.89-6.563h.876v2.688H5v-2.688h.89V0H5v-3.125H1.766V0H.89zm0 0"/></symbol></defs><g><path fill="#fff" d="M0 0h300v300H0z"/><path d="M35.25 171.938l8.91 4.937" stroke-width="1.2" stroke="#000" stroke-miterlimit="10" fill="none"/><path d="M44.16 176.875l8.91 4.934M53.07 181.81l8.73-5.25" stroke-width="1.2" stroke="#f00" stroke-miterlimit="10" fill="none"/><path d="M61.8 176.56l8.73-5.248" stroke-width="1.2" stroke="#000" stroke-miterlimit="10" fill="none"/><path d="M49.07 176.31h8v11h-8zm0 0" fill="#fff"/><use xlink:href="#a" x="49.07" y="184.972" fill="#f00"/><path d="M70.53 171.313l-.362-20.372M75.285 169.188l-.29-16.293M88.352 181.18l-17.82-9.868M70.168 150.94l17.457-10.495M70.168 150.94l-8.91-4.932" stroke-width="1.2" stroke="#000" stroke-miterlimit="10" fill="none"/><path d="M61.258 146.008l-8.91-4.938" stroke-width="1.2" stroke="#f00" stroke-miterlimit="10" fill="none"/><path d="M87.625 140.445l17.82 9.868M87.086 145.625l14.258 7.895M105.445 150.313l.364 20.37M105.445 150.313l17.46-10.497M105.81 170.684L88.35 181.18M101.594 167.625l-13.97 8.398M122.906 139.816l17.82 9.87M140.727 149.688l8.73-5.25" stroke-width="1.2" stroke="#000" stroke-miterlimit="10" fill="none"/><path d="M149.457 144.438l8.727-5.25M158.184 139.188l8.914 4.933" stroke-width="1.2" stroke="#00f" stroke-miterlimit="10" fill="none"/><path d="M167.098 144.12l8.91 4.94" stroke-width="1.2" stroke="#000" stroke-miterlimit="10" fill="none"/><path d="M151.184 133.688h14v11h-14zm0 0" fill="#fff"/><g fill="#00f"><use xlink:href="#b" x="151.184" y="142.351"/><use xlink:href="#c" x="158.161" y="142.351"/></g><path d="M193.465 138.56m-2.8 1.077l.538.89m-3.34.184l1.075 1.786m-3.875-.71l1.613 2.683m-4.414-1.607l2.152 3.575m-4.953-2.5l2.688 4.468m-5.488-3.394l3.227 5.363m-5.735-4.398l3.707 6.16" stroke="#000" stroke-miterlimit="10" fill="none"/><path d="M193.465 138.56l17.82 9.87M193.465 138.56l-.18-10.185" stroke-width="1.2" stroke="#000" stroke-miterlimit="10" fill="none"/><path d="M193.285 128.375l-.183-10.184" stroke-width="1.2" stroke="#f00" stroke-miterlimit="10" fill="none"/><path d="M211.285 148.43l.363 20.367M216.113 150.383l.293 16.293M228.746 137.93l-17.46 10.5M211.648 168.797l17.82 9.87M229.47 178.668l17.46-10.496M228.746 173.512l13.965-8.4M246.93 168.172l-.364-20.37M246.93 168.172l8.91 4.933" stroke-width="1.2" stroke="#000" stroke-miterlimit="10" fill="none"/><path d="M255.84 173.105l8.91 4.934" stroke-width="1.2" stroke="#f00" stroke-miterlimit="10" fill="none"/><path d="M246.566 147.8l-17.82-9.87M242.46 151.008l-14.257-7.9" stroke-width="1.2" stroke="#000" stroke-miterlimit="10" fill="none"/><path d="M257.75 172.54h15v11h-15zm0 0" fill="#fff"/><g fill="#f00"><use xlink:href="#a" x="257.75" y="181.202"/><use xlink:href="#c" x="265.092" y="181.202"/></g><path d="M186.102 112.69h15v11h-15zm0 0" fill="#fff"/><g fill="#f00"><use xlink:href="#a" x="186.102" y="121.354"/><use xlink:href="#c" x="193.443" y="121.354"/></g><path d="M52.348 141.07l-.184-10.183" stroke-width="1.2" stroke="#f00" stroke-miterlimit="10" fill="none"/><path d="M52.164 130.887l-.18-10.184" stroke-width="1.2" stroke="#000" stroke-miterlimit="10" fill="none"/><path d="M48.348 135.57h8v11h-8zm0 0" fill="#fff"/><use xlink:href="#a" x="48.348" y="144.233" fill="#f00"/></g></svg>