<svg xmlns="http://www.w3.org/2000/svg" xmlns:xlink="http://www.w3.org/1999/xlink" width="300pt" height="300pt" viewBox="0 0 300 300"><defs><symbol overflow="visible"><path d="M.547 1.938V-7.75h5.5v9.688zm.625-.61h4.266v-8.47H1.171zm0 0"/></symbol><symbol overflow="visible" id="a"><path d="M1.078-8.016h1.47l3.546 6.704v-6.704h1.062V0H5.688L2.124-6.703V0H1.078zm0 0"/></symbol><symbol overflow="visible" id="c"><path d="M4.328-7.28c-.78 0-1.406.296-1.875.89-.46.585-.687 1.382-.687 2.39 0 1.012.226 1.813.687 2.406.47.586 1.094.875 1.875.875.79 0 1.414-.288 1.875-.874.457-.593.688-1.394.688-2.406 0-1.008-.23-1.805-.687-2.39-.46-.594-1.086-.89-1.875-.89zm0-.892c1.125 0 2.024.383 2.703 1.14C7.708-6.28 8.048-5.27 8.048-4c0 1.262-.34 2.273-1.016 3.03C6.353-.22 5.454.157 4.33.157S2.3-.22 1.625-.97c-.668-.75-1-1.757-1-3.03 0-1.27.332-2.28 1-3.03.676-.76 1.578-1.142 2.703-1.142zm0 0"/></symbol><symbol overflow="visible"><path d="M.453 1.594v-7.938h4.5v7.938zm.5-.5h3.5v-6.938h-3.5zm0 0"/></symbol><symbol overflow="visible" id="b"><path d="M4.14-5.64v2.452h2.454v.735H4.14V0h-.734v-2.453H.953v-.735h2.453V-5.64zm0 0"/></symbol><symbol overflow="visible" id="d"><path d="M.438-2.828h2.374v.72H.438zm0 0"/></symbol></defs><g><path fill="#fff" d="M0 0h300v300H0z"/><path d="M35.25 151.406l26.977-.234M62.227 151.172l13.285-23.48M69.078 151.95l10.63-18.786M75.918 174.414l-13.69-23.242M75.512 127.69l26.976-.233M102.488 127.457l13.692 23.246M98.387 133.004l10.953 18.594M116.18 150.703l-13.285 23.477M116.18 150.703l26.976-.234M102.895 174.18l-26.977.234M100.14 167.855l-21.58.188M143.156 150.47l13.285-23.482M150.008 151.246l10.63-18.78M143.156 150.47l13.688 23.245M156.44 126.988l26.978-.234M183.418 126.754L197.105 150M190.254 125.86l10.953 18.593M196.703 103.277l-13.285 23.477M197.105 150l26.977-.234M224.082 149.766l13.285-23.48M219.887 144.293l10.63-18.785M224.082 149.766l6.848 11.62" stroke-width="1.2" stroke="#000" stroke-miterlimit="10" fill="none"/><path d="M230.93 161.387l6.843 11.625" stroke-width="1.2" stroke="#00f" stroke-miterlimit="10" fill="none"/><path d="M237.367 126.285l-13.69-23.242M223.676 103.043l-26.973.234M221.035 109.414l-21.582.188" stroke-width="1.2" stroke="#000" stroke-miterlimit="10" fill="none"/><path d="M237.8 176.184l13.49-.118" stroke-width="1.2" stroke="#00f" stroke-miterlimit="10" fill="none"/><path d="M251.29 176.066l13.487-.117" stroke-width="1.2" stroke="#f00" stroke-miterlimit="10" fill="none"/><path d="M237.746 169.836l13.488-.117" stroke-width="1.2" stroke="#00f" stroke-miterlimit="10" fill="none"/><path d="M251.234 169.72l13.49-.118" stroke-width="1.2" stroke="#f00" stroke-miterlimit="10" fill="none"/><path d="M237.773 173.012l-6.64 11.738" stroke-width="1.2" stroke="#00f" stroke-miterlimit="10" fill="none"/><path d="M231.133 184.75l-6.645 11.738" stroke-width="1.2" stroke="#f00" stroke-miterlimit="10" fill="none"/><path d="M229.773 165.012h16v16h-16zm0 0" fill="#fff"/><use xlink:href="#a" x="229.773" y="178.145" fill="#00f"/><use xlink:href="#b" x="237.757" y="173.262" fill="#00f"/><path d="M260.75 166.277h9v13h-9zm0 0" fill="#fff"/><use xlink:href="#c" x="260.75" y="176.179" fill="#f00"/><path d="M212.488 188.488h12v16h-12zm0 0" fill="#fff"/><use xlink:href="#d" x="212.488" y="196.738" fill="#f00"/><use xlink:href="#c" x="215.696" y="201.621" fill="#f00"/><path d="M156.844 173.715l6.847 11.62" stroke-width="1.2" stroke="#000" stroke-miterlimit="10" fill="none"/><path d="M163.69 185.336l6.845 11.62" stroke-width="1.2" stroke="#00f" stroke-miterlimit="10" fill="none"/><path d="M152.746 179.258l5.477 9.3" stroke-width="1.2" stroke="#000" stroke-miterlimit="10" fill="none"/><path d="M158.223 188.56l5.476 9.295" stroke-width="1.2" stroke="#00f" stroke-miterlimit="10" fill="none"/><path d="M163.684 172.816l5.476 9.297" stroke-width="1.2" stroke="#000" stroke-miterlimit="10" fill="none"/><path d="M169.16 182.113l5.477 9.3" stroke-width="1.2" stroke="#00f" stroke-miterlimit="10" fill="none"/><path d="M166.535 190.457h8v13h-8zm0 0" fill="#fff"/><use xlink:href="#a" x="166.535" y="200.358" fill="#00f"/></g></svg>