<svg xmlns="http://www.w3.org/2000/svg" xmlns:xlink="http://www.w3.org/1999/xlink" width="300pt" height="300pt" viewBox="0 0 300 300"><defs><symbol overflow="visible"><path d="M.453 1.594v-7.938h4.5v7.938zm.5-.5h3.5v-6.938h-3.5zm0 0"/></symbol><symbol overflow="visible" id="a"><path d="M.89-6.563H2.08l2.906 5.485v-5.484h.86V0H4.656L1.75-5.484V0H.89zm0 0"/></symbol><symbol overflow="visible" id="b"><path d="M3.547-5.953c-.65 0-1.164.242-1.547.72-.375.48-.563 1.13-.563 1.952 0 .835.188 1.49.563 1.967.383.48.898.72 1.547.72.644 0 1.156-.24 1.53-.72.376-.476.564-1.132.564-1.968 0-.822-.187-1.474-.562-1.954-.375-.477-.887-.72-1.53-.72zm0-.734c.914 0 1.648.312 2.203.937.55.617.828 1.438.828 2.47 0 1.042-.277 1.87-.828 2.483-.555.617-1.29.922-2.203.922-.93 0-1.668-.305-2.22-.922C.774-1.41.5-2.237.5-3.28c0-1.033.273-1.853.828-2.47.55-.625 1.29-.938 2.22-.938zm0 0"/></symbol><symbol overflow="visible" id="c"><path d="M.89-6.563h3.766v.75h-2.89v1.938h2.61v.734h-2.61V0H.89zm0 0"/></symbol></defs><g><path fill="#fff" d="M0 0h300v300H0z"/><path d="M65.652 159.152l15.2-8.992" stroke-width="1.2" stroke="#000" stroke-miterlimit="10" fill="none"/><path d="M96.238 158.828l-13.855-11.383-3.06 5.43zm0 0"/><path d="M96.238 158.828l.188 17.66M111.44 149.84l-15.202 8.988M96.426 176.488l15.386 8.672M96.426 176.488l-15.203 8.992M111.813 185.16l15.2-8.992M111.813 185.16l.183 17.66M127.012 176.168l15.386 8.668M126.828 158.508l.184 17.66M142.398 184.836l15.204-8.988" stroke-width="1.2" stroke="#000" stroke-miterlimit="10" fill="none"/><path d="M157.414 158.188m-.488 2.96l1.043-.01m-1.536 2.967l2.086-.02m-2.575 2.98l3.125-.034m-3.617 2.997l4.172-.047m-4.66 3.004l5.21-.054m-5.69 2.95l6.234-.067" stroke="#000" stroke-miterlimit="10" fill="none"/><path d="M157.414 158.188l-15.387-8.668M172.617 149.195l-15.203 8.993" stroke-width="1.2" stroke="#000" stroke-miterlimit="10" fill="none"/><path d="M142.027 149.52m-2.808 1.054l.53.895m-3.34.16l1.063 1.792m-3.87-.738l1.592 2.69m-4.398-1.636l2.12 3.59m-4.93-2.535l2.654 4.488m-5.398-3.456l3.172 5.367" stroke="#000" stroke-miterlimit="10" fill="none"/><path d="M141.844 131.86l.183 17.66M126.828 158.508l-15.387-8.668M123.25 161.262l-12.31-6.934M111.44 149.84l-.186-17.66M111.254 132.18l7.6-4.496" stroke-width="1.2" stroke="#000" stroke-miterlimit="10" fill="none"/><path d="M118.855 127.684l7.602-4.496M126.457 123.188l7.69 4.335" stroke-width="1.2" stroke="#00f" stroke-miterlimit="10" fill="none"/><path d="M134.148 127.523l7.696 4.336" stroke-width="1.2" stroke="#000" stroke-miterlimit="10" fill="none"/><path d="M126.457 123.188l-.094-8.83" stroke-width="1.2" stroke="#00f" stroke-miterlimit="10" fill="none"/><path d="M126.363 114.36l-.093-8.833" stroke-width="1.2" stroke="#000" stroke-miterlimit="10" fill="none"/><path d="M123.457 117.688h7v11h-7zm0 0" fill="#fff"/><use xlink:href="#a" x="123.457" y="126.351" fill="#00f"/><path d="M141.844 131.86l15.2-8.993" stroke-width="1.2" stroke="#000" stroke-miterlimit="10" fill="none"/><path d="M141.844 131.86l-8.223-5.497-1.655 6.008zm0 0"/><path d="M157.043 122.867l7.695 4.336" stroke-width="1.2" stroke="#000" stroke-miterlimit="10" fill="none"/><path d="M164.738 127.203l7.692 4.332M172.43 131.535l.093 8.832" stroke-width="1.2" stroke="#f00" stroke-miterlimit="10" fill="none"/><path d="M172.523 140.367l.094 8.828" stroke-width="1.2" stroke="#000" stroke-miterlimit="10" fill="none"/><path d="M168.43 126.035h8v11h-8zm0 0" fill="#fff"/><use xlink:href="#b" x="168.43" y="134.698" fill="#f00"/><path d="M172.617 149.195l7.692 4.336" stroke-width="1.2" stroke="#000" stroke-miterlimit="10" fill="none"/><path d="M180.31 153.53l7.694 4.337M188.004 157.867l7.598-4.496" stroke-width="1.2" stroke="#f00" stroke-miterlimit="10" fill="none"/><path d="M195.602 153.37l7.6-4.495" stroke-width="1.2" stroke="#000" stroke-miterlimit="10" fill="none"/><path d="M184.004 152.367h8v11h-8zm0 0" fill="#fff"/><use xlink:href="#b" x="184.004" y="161.03" fill="#f00"/><path d="M203.203 148.875l15.387 8.668M218.59 157.543l.187 17.66M222.766 159.266l.148 14.13M233.793 148.555l-15.203 8.988M218.777 175.203l15.387 8.668M218.777 175.203l-15.203 8.992M234.164 183.87l15.2-8.987M233.566 179.398l12.16-7.195M249.363 174.883l-.183-17.66M249.363 174.883l7.696 4.336" stroke-width="1.2" stroke="#000" stroke-miterlimit="10" fill="none"/><path d="M257.06 179.22l7.69 4.33" stroke-width="1.2" stroke="#3cc" stroke-miterlimit="10" fill="none"/><path d="M249.18 157.223l-15.387-8.668M245.598 159.977l-12.31-6.938" stroke-width="1.2" stroke="#000" stroke-miterlimit="10" fill="none"/><path d="M261.75 178.05h6v11h-6zm0 0" fill="#fff"/><use xlink:href="#c" x="261.75" y="186.714" fill="#3cc"/><path d="M203.574 184.195l-7.6 4.496" stroke-width="1.2" stroke="#000" stroke-miterlimit="10" fill="none"/><path d="M195.973 188.69l-7.598 4.494" stroke-width="1.2" stroke="#3cc" stroke-miterlimit="10" fill="none"/><path d="M203.574 184.195l4.496 7.602" stroke-width="1.2" stroke="#000" stroke-miterlimit="10" fill="none"/><path d="M208.07 191.797l4.496 7.598" stroke-width="1.2" stroke="#3cc" stroke-miterlimit="10" fill="none"/><path d="M203.574 184.195l-4.496-7.6" stroke-width="1.2" stroke="#000" stroke-miterlimit="10" fill="none"/><path d="M199.078 176.594l-4.492-7.602" stroke-width="1.2" stroke="#3cc" stroke-miterlimit="10" fill="none"/><path d="M182.375 187.684h6v11h-6zm0 0" fill="#fff"/><use xlink:href="#c" x="182.375" y="196.347" fill="#3cc"/><path d="M209.566 193.895h6v11h-6zm0 0" fill="#fff"/><use xlink:href="#c" x="209.566" y="202.558" fill="#3cc"/><path d="M188.586 163.492h6v11h-6zm0 0" fill="#fff"/><use xlink:href="#c" x="188.586" y="172.155" fill="#3cc"/><path d="M127.328 107.316l7.602-4.496" stroke-width="1.2" stroke="#000" stroke-miterlimit="10" fill="none"/><path d="M134.93 102.82l7.597-4.492" stroke-width="1.2" stroke="#f00" stroke-miterlimit="10" fill="none"/><path d="M125.21 103.742l7.603-4.496" stroke-width="1.2" stroke="#000" stroke-miterlimit="10" fill="none"/><path d="M132.813 99.246l7.6-4.496" stroke-width="1.2" stroke="#f00" stroke-miterlimit="10" fill="none"/><path d="M126.27 105.527l-7.692-4.332" stroke-width="1.2" stroke="#000" stroke-miterlimit="10" fill="none"/><path d="M118.578 101.195l-7.695-4.336" stroke-width="1.2" stroke="#f00" stroke-miterlimit="10" fill="none"/><path d="M137.473 91.04h8v11h-8zm0 0" fill="#fff"/><use xlink:href="#b" x="137.473" y="99.702" fill="#f00"/><path d="M110.883 96.86l-.09-8.83" stroke-width="1.2" stroke="#f00" stroke-miterlimit="10" fill="none"/><path d="M110.793 88.03l-.094-8.83" stroke-width="1.2" stroke="#000" stroke-miterlimit="10" fill="none"/><path d="M106.883 91.36h8v11h-8zm0 0" fill="#fff"/><use xlink:href="#b" x="106.883" y="100.022" fill="#f00"/><path d="M110.7 79.2l-17.66.187M110.7 79.2l17.66-.184M110.7 79.2l-.188-17.66M111.996 202.82l-7.598 4.493" stroke-width="1.2" stroke="#000" stroke-miterlimit="10" fill="none"/><path d="M104.398 207.313l-7.6 4.496M96.797 211.81l.094 8.83" stroke-width="1.2" stroke="#f00" stroke-miterlimit="10" fill="none"/><path d="M96.89 220.64l.09 8.83" stroke-width="1.2" stroke="#000" stroke-miterlimit="10" fill="none"/><path d="M92.797 206.31h8v11h-8zm0 0" fill="#fff"/><use xlink:href="#b" x="92.797" y="214.972" fill="#f00"/><path d="M95.96 231.277l7.696 4.336" stroke-width="1.2" stroke="#000" stroke-miterlimit="10" fill="none"/><path d="M103.656 235.613l7.692 4.336" stroke-width="1.2" stroke="#f00" stroke-miterlimit="10" fill="none"/><path d="M98 227.66l7.695 4.332" stroke-width="1.2" stroke="#000" stroke-miterlimit="10" fill="none"/><path d="M105.695 231.992l7.692 4.336" stroke-width="1.2" stroke="#f00" stroke-miterlimit="10" fill="none"/><path d="M96.98 229.47l-15.2 8.99" stroke-width="1.2" stroke="#000" stroke-miterlimit="10" fill="none"/><path d="M108.367 232.637h8v11h-8zm0 0" fill="#fff"/><use xlink:href="#b" x="108.367" y="241.3" fill="#f00"/><path d="M81.223 185.48l-7.692-4.335" stroke-width="1.2" stroke="#000" stroke-miterlimit="10" fill="none"/><path d="M73.53 181.145l-7.694-4.333M65.836 176.813l-7.598 4.492" stroke-width="1.2" stroke="#f00" stroke-miterlimit="10" fill="none"/><path d="M58.238 181.305l-7.6 4.496" stroke-width="1.2" stroke="#000" stroke-miterlimit="10" fill="none"/><path d="M61.836 171.313h8v11h-8zm0 0" fill="#fff"/><use xlink:href="#b" x="61.836" y="179.976" fill="#f00"/><path d="M48.56 185.824l.092 8.828" stroke-width="1.2" stroke="#000" stroke-miterlimit="10" fill="none"/><path d="M48.652 194.652l.094 8.832" stroke-width="1.2" stroke="#f00" stroke-miterlimit="10" fill="none"/><path d="M52.715 185.78l.094 8.83" stroke-width="1.2" stroke="#000" stroke-miterlimit="10" fill="none"/><path d="M52.81 194.61l.088 8.83" stroke-width="1.2" stroke="#f00" stroke-miterlimit="10" fill="none"/><path d="M50.637 185.8l-15.387-8.667" stroke-width="1.2" stroke="#000" stroke-miterlimit="10" fill="none"/><path d="M46.82 197.96h8v11h-8zm0 0" fill="#fff"/><use xlink:href="#b" x="46.82" y="206.624" fill="#f00"/></g></svg>