<svg xmlns="http://www.w3.org/2000/svg" xmlns:xlink="http://www.w3.org/1999/xlink" width="300pt" height="300pt" viewBox="0 0 300 300"><defs><symbol overflow="visible"><path d="M.797 2.828v-14.11h8V2.83zm.906-.89h6.203v-12.33H1.703zm0 0"/></symbol><symbol overflow="visible" id="a"><path d="M1.578-11.672h2.125l5.172 9.766v-9.766h1.53V0H8.282L3.11-9.766V0H1.577zm0 0"/></symbol><symbol overflow="visible" id="b"><path d="M6.313-10.594c-1.15 0-2.06.43-2.735 1.28-.68.857-1.015 2.017-1.015 3.486 0 1.47.335 2.633 1.015 3.484.676.856 1.586 1.28 2.735 1.28 1.144.002 2.05-.424 2.718-1.28.665-.85 1-2.015 1-3.484 0-1.47-.335-2.63-1-3.484-.667-.852-1.573-1.282-2.717-1.282zm0-1.28c1.632 0 2.94.546 3.92 1.64.978 1.093 1.47 2.562 1.47 4.406 0 1.844-.492 3.32-1.47 4.422-.98 1.093-2.288 1.64-3.92 1.64-1.65 0-2.96-.546-3.938-1.64-.98-1.102-1.47-2.578-1.47-4.422 0-1.844.49-3.313 1.47-4.406.977-1.094 2.29-1.64 3.938-1.64zm0 0"/></symbol><symbol overflow="visible" id="c"><path d="M1.578-11.672h1.578v4.78H8.89v-4.78h1.58V0H8.89v-5.563H3.157V0H1.578zm0 0"/></symbol></defs><g><path fill="#fff" d="M0 0h300v300H0z"/><path d="M68.97 140.238m-2.94.617l.392.97m-3.324-.352l.777 1.933m-3.715-1.316l1.168 2.902m-4.1-2.285l1.553 3.87m-4.49-3.253l1.94 4.836m-4.875-4.22l2.33 5.806m-5.267-5.187l2.72 6.772m-5.658-6.156l3.11 7.742m-6.043-7.125l3.496 8.707m-6.434-8.09l3.886 9.676m-6.82-9.06l4.273 10.646m-7.212-10.027l4.664 11.61m-7.445-11.025l5.03 12.528" stroke="#000" stroke-miterlimit="10" fill="none"/><path d="M68.97 140.238l9.33-37.093" stroke-width="1.2" stroke="#000" stroke-miterlimit="10" fill="none"/><path d="M101.363 160.574l-16.195-10.168" stroke-width="1.2" stroke="#00f" stroke-miterlimit="10" fill="none"/><path d="M85.168 150.406l-16.2-10.168M78.3 103.145l38.16-2.59M82.727 111.863l30.527-2.07M116.46 100.555l14.255 35.496M130.715 136.05l-14.676 12.262" stroke-width="1.2" stroke="#000" stroke-miterlimit="10" fill="none"/><path d="M116.04 148.313l-14.677 12.26" stroke-width="1.2" stroke="#00f" stroke-miterlimit="10" fill="none"/><path d="M130.715 136.05l15.72 35.516 11.21-7.523zm0 0"/><path d="M130.715 136.05l33.812-17.886" stroke-width="1.2" stroke="#000" stroke-miterlimit="10" fill="none"/><path d="M101.363 160.574l1.293 19.082" stroke-width="1.2" stroke="#00f" stroke-miterlimit="10" fill="none"/><path d="M102.656 179.656l1.297 19.082" stroke-width="1.2" stroke="#000" stroke-miterlimit="10" fill="none"/><path d="M95.363 151.074h12v19h-12zm0 0" fill="#fff"/><use xlink:href="#a" x="95.363" y="165.926" fill="#00f"/><path d="M101.973 202.777l17.172 8.422" stroke-width="1.2" stroke="#000" stroke-miterlimit="10" fill="none"/><path d="M119.145 211.2l17.17 8.417" stroke-width="1.2" stroke="#f00" stroke-miterlimit="10" fill="none"/><path d="M105.934 194.695l17.17 8.422" stroke-width="1.2" stroke="#000" stroke-miterlimit="10" fill="none"/><path d="M123.105 203.117l17.172 8.418" stroke-width="1.2" stroke="#f00" stroke-miterlimit="10" fill="none"/><path d="M103.953 198.738l-31.758 21.32" stroke-width="1.2" stroke="#000" stroke-miterlimit="10" fill="none"/><path d="M132.297 206.078h13v19h-13zm0 0" fill="#fff"/><use xlink:href="#b" x="132.297" y="220.93" fill="#f00"/><path d="M152.04 167.805l38.163-2.586M190.203 165.22l16.84-34.345M199.965 165.746l13.472-27.476M211.523 196.973l-21.32-31.754M207.043 130.875l38.16-2.59M245.203 128.285l21.324 31.754M239.863 136.477l17.06 25.406M266.527 160.04l-16.84 34.343M249.688 194.383l-38.165 2.59M245.262 185.664l-30.532 2.07M163.13 122.44l10.73 3.513" stroke-width="1.2" stroke="#000" stroke-miterlimit="10" fill="none"/><path d="M173.86 125.953l10.734 3.512" stroke-width="1.2" stroke="#f00" stroke-miterlimit="10" fill="none"/><path d="M165.926 113.887l10.734 3.51" stroke-width="1.2" stroke="#000" stroke-miterlimit="10" fill="none"/><path d="M176.66 117.398l10.73 3.512" stroke-width="1.2" stroke="#f00" stroke-miterlimit="10" fill="none"/><path d="M164.527 118.164l.707-19.113" stroke-width="1.2" stroke="#000" stroke-miterlimit="10" fill="none"/><path d="M165.234 99.05l.707-19.11" stroke-width="1.2" stroke="#f00" stroke-miterlimit="10" fill="none"/><path d="M179.992 115.688h13v19h-13zm0 0" fill="#fff"/><use xlink:href="#b" x="179.992" y="130.539" fill="#f00"/><path d="M153.94 70.44h25v19h-25zm0 0" fill="#fff"/><g fill="#f00"><use xlink:href="#b" x="153.941" y="85.293"/><use xlink:href="#c" x="166.535" y="85.293"/></g></g></svg>