<svg xmlns="http://www.w3.org/2000/svg" xmlns:xlink="http://www.w3.org/1999/xlink" width="300pt" height="300pt" viewBox="0 0 300 300"><defs><symbol overflow="visible"><path d="M.64 2.297v-11.47h6.5v11.47zm.735-.72h5.047V-8.436H1.375zm0 0"/></symbol><symbol overflow="visible" id="a"><path d="M1.28-9.484H3l4.203 7.937v-7.937h1.25V0H6.72L2.515-7.922V0H1.28zm0 0"/></symbol><symbol overflow="visible" id="b"><path d="M5.125-8.61c-.938 0-1.684.352-2.234 1.047-.542.688-.812 1.633-.812 2.83 0 1.198.27 2.147.813 2.842.55.687 1.297 1.03 2.235 1.03.926 0 1.66-.343 2.203-1.03.55-.696.828-1.645.828-2.844 0-1.196-.277-2.14-.828-2.829-.543-.695-1.277-1.046-2.203-1.046zm0-1.046c1.32 0 2.38.45 3.172 1.344.8.898 1.203 2.09 1.203 3.578 0 1.5-.402 2.7-1.203 3.593C7.504-.255 6.445.186 5.125.186c-1.336 0-2.402-.44-3.203-1.328C1.13-2.036.734-3.235.734-4.735c0-1.49.395-2.68 1.188-3.579.8-.894 1.867-1.343 3.203-1.343zm0 0"/></symbol></defs><g><path fill="#fff" d="M0 0h300v300H0z"/><path d="M133.27 230.367l30.433-13.824M163.703 216.543l3.246-33.273M166.95 183.27l30.437-13.825M166.742 174.727l24.348-11.06M139.758 163.824l27.19 19.446M197.387 169.445l27.19 19.446M200.633 136.176l-3.246 33.27M224.578 188.89l30.438-13.824M224.367 180.348l24.352-11.06M255.016 175.066l3.242-33.27M258.258 141.797l-27.192-19.45M250.965 146.25l-21.754-15.56M231.066 122.348l-30.433 13.828M231.066 122.348l3.246-33.27M200.633 136.176l-13.598-9.723" stroke-width="1.2" stroke="#000" stroke-miterlimit="10" fill="none"/><path d="M187.035 126.453l-13.594-9.723" stroke-width="1.2" stroke="#00f" stroke-miterlimit="10" fill="none"/><path d="M193.336 140.63l-10.875-7.782" stroke-width="1.2" stroke="#000" stroke-miterlimit="10" fill="none"/><path d="M182.46 132.848l-10.874-7.778M173.44 116.73l-15.217 6.91" stroke-width="1.2" stroke="#00f" stroke-miterlimit="10" fill="none"/><path d="M158.223 123.64l-15.22 6.915" stroke-width="1.2" stroke="#000" stroke-miterlimit="10" fill="none"/><path d="M168.44 108.73h10v16h-10zm0 0" fill="#fff"/><use xlink:href="#a" x="168.441" y="121.106" fill="#00f"/><path d="M143.004 130.555l-3.246 33.27M134.852 133.117l-2.598 26.617M112.363 117.188l30.64 13.367M139.758 163.824l-32.645 7.196M107.113 171.02l-8.465-14.41" stroke-width="1.2" stroke="#000" stroke-miterlimit="10" fill="none"/><path d="M98.648 156.61l-8.464-14.415M90.184 142.195l11.09-12.504" stroke-width="1.2" stroke="#00f" stroke-miterlimit="10" fill="none"/><path d="M101.273 129.69l11.09-12.502M57.434 135.492l16.375 3.352" stroke-width="1.2" stroke="#000" stroke-miterlimit="10" fill="none"/><path d="M73.81 138.844l16.374 3.35" stroke-width="1.2" stroke="#00f" stroke-miterlimit="10" fill="none"/><path d="M85.184 134.195h10v16h-10zm0 0" fill="#fff"/><use xlink:href="#a" x="85.184" y="146.571" fill="#00f"/><path d="M112.363 117.188l-10.566-31.715M103.844 116.5L95.39 91.13M101.797 85.473l-32.75-6.707M69.047 78.766l-22.184 25.01M72.71 86.484l-17.745 20.008M46.863 103.777l10.57 31.715M54.488 132.88l-11.09 12.507" stroke-width="1.2" stroke="#000" stroke-miterlimit="10" fill="none"/><path d="M43.398 145.387l-11.09 12.504" stroke-width="1.2" stroke="#f00" stroke-miterlimit="10" fill="none"/><path d="M60.375 138.102l-11.09 12.503" stroke-width="1.2" stroke="#000" stroke-miterlimit="10" fill="none"/><path d="M49.285 150.605L38.19 163.11" stroke-width="1.2" stroke="#f00" stroke-miterlimit="10" fill="none"/><path d="M24.25 152.5h11v16h-11zm0 0" fill="#fff"/><use xlink:href="#b" x="24.25" y="164.876" fill="#f00"/><path d="M234.313 89.078l30.437-13.824M234.313 89.078L207.12 69.633" stroke-width="1.2" stroke="#000" stroke-miterlimit="10" fill="none"/></g></svg>