<svg xmlns="http://www.w3.org/2000/svg" xmlns:xlink="http://www.w3.org/1999/xlink" width="300pt" height="300pt" viewBox="0 0 300 300"><defs><symbol overflow="visible"><path d="M.453 1.594v-7.938h4.5v7.938zm.5-.5h3.5v-6.938h-3.5zm0 0"/></symbol><symbol overflow="visible" id="a"><path d="M3.547-5.953c-.65 0-1.164.242-1.547.72-.375.48-.563 1.13-.563 1.952 0 .835.188 1.49.563 1.967.383.48.898.72 1.547.72.644 0 1.156-.24 1.53-.72.376-.476.564-1.132.564-1.968 0-.822-.187-1.474-.562-1.954-.375-.477-.887-.72-1.53-.72zm0-.734c.914 0 1.648.312 2.203.937.55.617.828 1.438.828 2.47 0 1.042-.277 1.87-.828 2.483-.555.617-1.29.922-2.203.922-.93 0-1.668-.305-2.22-.922C.774-1.41.5-2.237.5-3.28c0-1.033.273-1.853.828-2.47.55-.625 1.29-.938 2.22-.938zm0 0"/></symbol><symbol overflow="visible" id="b"><path d="M.89-6.563H2.08l2.906 5.485v-5.484h.86V0H4.656L1.75-5.484V0H.89zm0 0"/></symbol><symbol overflow="visible" id="c"><path d="M.89-6.563h.876v2.688H5v-2.688h.89V0H5v-3.125H1.766V0H.89zm0 0"/></symbol><symbol overflow="visible" id="d"><path d="M.89-6.563h3.766v.75h-2.89v1.938h2.61v.734h-2.61V0H.89zm0 0"/></symbol></defs><g><path fill="#fff" d="M0 0h300v300H0z"/><path d="M157.848 176.566l-7.207 17.914 6.567 1.387zm0 0"/><path d="M157.848 176.566l18.074-5.902M157.848 176.566l-14.15-12.7M175.922 170.664l3.926-18.605M180.695 169.727l3.137-14.883M179.848 152.06l18.074-5.904M179.848 152.06l-7.075-6.353" stroke-width="1.2" stroke="#000" stroke-miterlimit="10" fill="none"/><path d="M172.773 145.707l-7.074-6.348" stroke-width="1.2" stroke="#3cc" stroke-miterlimit="10" fill="none"/><path d="M197.922 146.156l3.926-18.605M197.922 146.156l7.074 6.348" stroke-width="1.2" stroke="#000" stroke-miterlimit="10" fill="none"/><path d="M204.996 152.504l7.078 6.35" stroke-width="1.2" stroke="#00f" stroke-miterlimit="10" fill="none"/><path d="M201.848 127.55l18.074-5.905M202.266 122.707l14.46-4.723M187.695 114.848l14.153 12.703M219.922 121.645l3.926-18.606M223.848 103.04l-14.153-12.7M219.44 105.102l-11.32-10.165M209.695 90.34l-18.074 5.902M209.695 90.34l3.926-18.606M191.62 96.242l-3.925 18.606M195.605 99.027l-3.136 14.883M215.113 70.07l-7.074-6.35" stroke-width="1.2" stroke="#000" stroke-miterlimit="10" fill="none"/><path d="M208.04 63.72l-7.075-6.353" stroke-width="1.2" stroke="#f00" stroke-miterlimit="10" fill="none"/><path d="M212.125 73.398l-7.074-6.35" stroke-width="1.2" stroke="#000" stroke-miterlimit="10" fill="none"/><path d="M205.05 67.047l-7.073-6.348" stroke-width="1.2" stroke="#f00" stroke-miterlimit="10" fill="none"/><path d="M213.62 71.734l9.036-2.953" stroke-width="1.2" stroke="#000" stroke-miterlimit="10" fill="none"/><path d="M222.656 68.78l9.04-2.948" stroke-width="1.2" stroke="#f00" stroke-miterlimit="10" fill="none"/><path d="M191.47 53.53h8v11h-8zm0 0" fill="#fff"/><use xlink:href="#a" x="191.469" y="62.194" fill="#f00"/><path d="M231.695 65.832l1.96-9.305" stroke-width="1.2" stroke="#f00" stroke-miterlimit="10" fill="none"/><path d="M233.656 56.527l1.965-9.3" stroke-width="1.2" stroke="#000" stroke-miterlimit="10" fill="none"/><path d="M227.695 60.332h8v11h-8zm0 0" fill="#fff"/><use xlink:href="#a" x="227.695" y="68.995" fill="#f00"/><path d="M212.074 158.855l-1.965 9.305" stroke-width="1.2" stroke="#00f" stroke-miterlimit="10" fill="none"/><path d="M210.11 168.16l-1.962 9.3" stroke-width="1.2" stroke="#000" stroke-miterlimit="10" fill="none"/><path d="M205.074 153.355h14v11h-14zm0 0" fill="#fff"/><g fill="#00f"><use xlink:href="#b" x="205.074" y="162.019"/><use xlink:href="#c" x="212.052" y="162.019"/></g><path d="M207.453 175.336l-9.035 2.95" stroke-width="1.2" stroke="#000" stroke-miterlimit="10" fill="none"/><path d="M198.418 178.285l-9.04 2.953" stroke-width="1.2" stroke="#f00" stroke-miterlimit="10" fill="none"/><path d="M208.844 179.586l-9.04 2.953" stroke-width="1.2" stroke="#000" stroke-miterlimit="10" fill="none"/><path d="M199.805 182.54l-9.035 2.952" stroke-width="1.2" stroke="#f00" stroke-miterlimit="10" fill="none"/><path d="M208.148 177.46l7.075 6.352" stroke-width="1.2" stroke="#000" stroke-miterlimit="10" fill="none"/><path d="M215.223 183.813l7.078 6.35" stroke-width="1.2" stroke="#f00" stroke-miterlimit="10" fill="none"/><path d="M182.074 177.863h8v11h-8zm0 0" fill="#fff"/><use xlink:href="#a" x="182.074" y="186.526" fill="#f00"/><path d="M222.3 190.164l-1.964 9.3" stroke-width="1.2" stroke="#f00" stroke-miterlimit="10" fill="none"/><path d="M220.336 199.465l-1.96 9.3" stroke-width="1.2" stroke="#000" stroke-miterlimit="10" fill="none"/><path d="M218.3 184.664h8v11h-8zm0 0" fill="#fff"/><use xlink:href="#a" x="218.301" y="193.327" fill="#f00"/><path d="M218.375 208.766l14.148 12.703M232.523 221.47l-3.92 18.604M236.512 224.254l-3.14 14.883M250.602 215.566l-18.08 5.903M228.602 240.074l14.148 12.7M242.75 252.773l18.074-5.902M243.168 247.934l14.46-4.727M260.824 246.87l3.926-18.604M264.75 228.266l-14.148-12.7M260.348 230.324l-11.32-10.16" stroke-width="1.2" stroke="#000" stroke-miterlimit="10" fill="none"/><path d="M159.7 133.86h6v11h-6zm0 0" fill="#fff"/><use xlink:href="#d" x="159.699" y="142.522" fill="#3cc"/><path d="M145.887 164.328l1.96-9.3" stroke-width="1.2" stroke="#000" stroke-miterlimit="10" fill="none"/><path d="M147.848 155.027l1.964-9.304" stroke-width="1.2" stroke="#f00" stroke-miterlimit="10" fill="none"/><path d="M141.508 163.406l1.965-9.304" stroke-width="1.2" stroke="#000" stroke-miterlimit="10" fill="none"/><path d="M143.473 154.102l1.96-9.3" stroke-width="1.2" stroke="#f00" stroke-miterlimit="10" fill="none"/><path d="M143.7 163.867l-9.04 2.953" stroke-width="1.2" stroke="#000" stroke-miterlimit="10" fill="none"/><path d="M134.66 166.82l-9.035 2.95" stroke-width="1.2" stroke="#00f" stroke-miterlimit="10" fill="none"/><path d="M143.62 139.762h8v11h-8zm0 0" fill="#fff"/><use xlink:href="#a" x="143.621" y="148.425" fill="#f00"/><path d="M125.625 169.77l-7.078-6.348" stroke-width="1.2" stroke="#00f" stroke-miterlimit="10" fill="none"/><path d="M118.547 163.422l-7.074-6.352" stroke-width="1.2" stroke="#000" stroke-miterlimit="10" fill="none"/><path d="M118.625 164.27h14v11h-14zm0 0" fill="#fff"/><g fill="#00f"><use xlink:href="#b" x="118.625" y="172.933"/><use xlink:href="#c" x="125.603" y="172.933"/></g><path d="M111.473 157.07l-18.075 5.903M93.398 162.973l-14.148-12.7M88.996 165.03l-11.32-10.16M89.473 181.578l3.925-18.605M79.25 150.273l-18.078 5.903M61.172 156.176L57.25 174.78M65.16 158.96l-3.14 14.884M61.172 156.176l-7.074-6.352" stroke-width="1.2" stroke="#000" stroke-miterlimit="10" fill="none"/><path d="M54.098 149.824l-7.075-6.347" stroke-width="1.2" stroke="#f00" stroke-miterlimit="10" fill="none"/><path d="M57.25 174.78l14.148 12.704M57.25 174.78l-9.04 2.954" stroke-width="1.2" stroke="#000" stroke-miterlimit="10" fill="none"/><path d="M48.21 177.734l-9.034 2.95" stroke-width="1.2" stroke="#f00" stroke-miterlimit="10" fill="none"/><path d="M71.398 187.484l18.075-5.906M71.816 182.64l14.46-4.722" stroke-width="1.2" stroke="#000" stroke-miterlimit="10" fill="none"/><path d="M39.176 180.684l-1.965 9.304" stroke-width="1.2" stroke="#f00" stroke-miterlimit="10" fill="none"/><path d="M37.21 189.988l-1.96 9.3" stroke-width="1.2" stroke="#000" stroke-miterlimit="10" fill="none"/><path d="M35.176 175.184h8v11h-8zm0 0" fill="#fff"/><use xlink:href="#a" x="35.176" y="183.847" fill="#f00"/><path d="M47.023 143.477l1.96-9.305" stroke-width="1.2" stroke="#f00" stroke-miterlimit="10" fill="none"/><path d="M48.984 134.172l1.965-9.3" stroke-width="1.2" stroke="#000" stroke-miterlimit="10" fill="none"/><path d="M43.023 137.977h8v11h-8zm0 0" fill="#fff"/><use xlink:href="#a" x="43.023" y="146.64" fill="#f00"/></g></svg>