<svg xmlns="http://www.w3.org/2000/svg" xmlns:xlink="http://www.w3.org/1999/xlink" width="300pt" height="300pt" viewBox="0 0 300 300"><defs><symbol overflow="visible"><path d="M.453 1.594v-7.938h4.5v7.938zm.5-.5h3.5v-6.938h-3.5zm0 0"/></symbol><symbol overflow="visible" id="a"><path d="M3.547-5.953c-.65 0-1.164.242-1.547.72-.375.48-.563 1.13-.563 1.952 0 .835.188 1.49.563 1.967.383.48.898.72 1.547.72.644 0 1.156-.24 1.53-.72.376-.476.564-1.132.564-1.968 0-.822-.187-1.474-.562-1.954-.375-.477-.887-.72-1.53-.72zm0-.734c.914 0 1.648.312 2.203.937.55.617.828 1.438.828 2.47 0 1.042-.277 1.87-.828 2.483-.555.617-1.29.922-2.203.922-.93 0-1.668-.305-2.22-.922C.774-1.41.5-2.237.5-3.28c0-1.033.273-1.853.828-2.47.55-.625 1.29-.938 2.22-.938zm0 0"/></symbol><symbol overflow="visible" id="b"><path d="M.89-6.563H2.08l2.906 5.485v-5.484h.86V0H4.656L1.75-5.484V0H.89zm0 0"/></symbol><symbol overflow="visible" id="c"><path d="M.89-6.563h.876v2.688H5v-2.688h.89V0H5v-3.125H1.766V0H.89zm0 0"/></symbol></defs><g><path fill="#fff" d="M0 0h300v300H0z"/><path d="M168.465 116.473L155.367 99.36l-5.066 5.52zm0 0"/><path d="M168.465 116.473l-4.617 20.715M168.465 116.473l20.246-6.36M163.848 137.188l15.632 14.355M162.035 142.305l12.504 11.48M179.48 151.543l-4.617 20.715M174.863 172.258l15.633 14.355M174.863 172.258l-10.125 3.18" stroke-width="1.2" stroke="#000" stroke-miterlimit="10" fill="none"/><path d="M164.738 175.438l-10.12 3.18" stroke-width="1.2" stroke="#00f" stroke-miterlimit="10" fill="none"/><path d="M190.496 186.613l-4.617 20.715M194.906 189.773l-3.69 16.57M210.742 180.254l-20.246 6.36M185.88 207.328l15.632 14.356M201.512 221.684l20.246-6.36M202.04 216.285l16.198-5.09M221.758 215.324l4.617-20.715M221.758 215.324l15.633 14.356M226.375 194.61l-15.633-14.356M221.434 196.852l-12.504-11.485M238.137 232.063l10.125-3.18" stroke-width="1.2" stroke="#000" stroke-miterlimit="10" fill="none"/><path d="M248.262 228.883l10.125-3.18" stroke-width="1.2" stroke="#f00" stroke-miterlimit="10" fill="none"/><path d="M236.64 227.297l10.126-3.18" stroke-width="1.2" stroke="#000" stroke-miterlimit="10" fill="none"/><path d="M246.766 224.117l10.125-3.18" stroke-width="1.2" stroke="#f00" stroke-miterlimit="10" fill="none"/><path d="M237.39 229.68l-2.308 10.36" stroke-width="1.2" stroke="#000" stroke-miterlimit="10" fill="none"/><path d="M235.082 240.04l-2.31 10.355" stroke-width="1.2" stroke="#f00" stroke-miterlimit="10" fill="none"/><path d="M253.637 217.82h8v11h-8zm0 0" fill="#fff"/><use xlink:href="#a" x="253.637" y="226.483" fill="#f00"/><path d="M232.773 250.395l7.817 7.18" stroke-width="1.2" stroke="#f00" stroke-miterlimit="10" fill="none"/><path d="M240.59 257.574l7.816 7.176" stroke-width="1.2" stroke="#000" stroke-miterlimit="10" fill="none"/><path d="M228.773 244.895h8v11h-8zm0 0" fill="#fff"/><use xlink:href="#a" x="228.773" y="253.558" fill="#f00"/><path d="M154.617 178.617l-7.816-7.176" stroke-width="1.2" stroke="#00f" stroke-miterlimit="10" fill="none"/><path d="M146.8 171.44l-7.816-7.174" stroke-width="1.2" stroke="#000" stroke-miterlimit="10" fill="none"/><path d="M147.617 173.117h14v11h-14zm0 0" fill="#fff"/><g fill="#00f"><use xlink:href="#b" x="147.617" y="181.78"/><use xlink:href="#c" x="154.595" y="181.78"/></g><path d="M141.422 164.81l2.308-10.36" stroke-width="1.2" stroke="#000" stroke-miterlimit="10" fill="none"/><path d="M143.73 154.45l2.31-10.356" stroke-width="1.2" stroke="#f00" stroke-miterlimit="10" fill="none"/><path d="M136.547 163.723l2.308-10.36" stroke-width="1.2" stroke="#000" stroke-miterlimit="10" fill="none"/><path d="M138.855 153.363l2.31-10.355" stroke-width="1.2" stroke="#f00" stroke-miterlimit="10" fill="none"/><path d="M138.984 164.266l-10.125 3.18" stroke-width="1.2" stroke="#000" stroke-miterlimit="10" fill="none"/><path d="M128.86 167.445l-10.122 3.18" stroke-width="1.2" stroke="#f00" stroke-miterlimit="10" fill="none"/><path d="M139.602 138.05h8v11h-8zm0 0" fill="#fff"/><use xlink:href="#a" x="139.602" y="146.714" fill="#f00"/><path d="M118.738 170.625l-7.816-7.18" stroke-width="1.2" stroke="#f00" stroke-miterlimit="10" fill="none"/><path d="M110.922 163.445l-7.817-7.175" stroke-width="1.2" stroke="#000" stroke-miterlimit="10" fill="none"/><path d="M114.738 165.125h8v11h-8zm0 0" fill="#fff"/><use xlink:href="#a" x="114.738" y="173.788" fill="#f00"/><path d="M103.105 156.27l-20.25 6.36M82.855 162.63l-15.628-14.357M77.918 164.87L65.41 153.388M78.242 183.344l4.613-20.715M67.227 148.273l-20.25 6.36M46.977 154.633l-4.614 20.715M51.39 157.79l-3.69 16.573M42.363 175.348l15.63 14.355M57.992 189.703l20.25-6.36M58.523 184.305l16.196-5.09M187.023 111.953l7.817 7.18" stroke-width="1.2" stroke="#000" stroke-miterlimit="10" fill="none"/><path d="M194.84 119.133l7.816 7.176" stroke-width="1.2" stroke="#f00" stroke-miterlimit="10" fill="none"/><path d="M190.402 108.277l7.817 7.176" stroke-width="1.2" stroke="#000" stroke-miterlimit="10" fill="none"/><path d="M198.22 115.453l7.81 7.176" stroke-width="1.2" stroke="#f00" stroke-miterlimit="10" fill="none"/><path d="M188.71 110.113l2.31-10.355" stroke-width="1.2" stroke="#000" stroke-miterlimit="10" fill="none"/><path d="M191.02 99.758l2.308-10.36" stroke-width="1.2" stroke="#00f" stroke-miterlimit="10" fill="none"/><path d="M200.344 118.97h8v11h-8zm0 0" fill="#fff"/><use xlink:href="#a" x="200.344" y="127.632" fill="#f00"/><path d="M193.328 89.398l10.125-3.18" stroke-width="1.2" stroke="#00f" stroke-miterlimit="10" fill="none"/><path d="M203.453 86.22l10.12-3.18" stroke-width="1.2" stroke="#000" stroke-miterlimit="10" fill="none"/><path d="M186.328 83.898h14v11h-14zm0 0" fill="#fff"/><g fill="#00f"><use xlink:href="#b" x="186.328" y="92.562"/><use xlink:href="#c" x="193.306" y="92.562"/></g><path d="M213.574 83.04l4.617-20.716M218.19 62.324l10.126-3.18" stroke-width="1.2" stroke="#000" stroke-miterlimit="10" fill="none"/><path d="M228.316 59.145l10.125-3.18M238.44 55.965l2.306-10.356" stroke-width="1.2" stroke="#f00" stroke-miterlimit="10" fill="none"/><path d="M240.746 45.61l2.31-10.36" stroke-width="1.2" stroke="#000" stroke-miterlimit="10" fill="none"/><path d="M234.44 50.465h8v11h-8zm0 0" fill="#fff"/><use xlink:href="#a" x="234.441" y="59.128" fill="#f00"/></g></svg>