<svg xmlns="http://www.w3.org/2000/svg" xmlns:xlink="http://www.w3.org/1999/xlink" width="300pt" height="300pt" viewBox="0 0 300 300"><defs><symbol overflow="visible"><path d="M.453 1.594v-7.938h4.5v7.938zm.5-.5h3.5v-6.938h-3.5zm0 0"/></symbol><symbol overflow="visible" id="a"><path d="M.89-6.563H2.08l2.906 5.485v-5.484h.86V0H4.656L1.75-5.484V0H.89zm0 0"/></symbol><symbol overflow="visible" id="b"><path d="M3.547-5.953c-.65 0-1.164.242-1.547.72-.375.48-.563 1.13-.563 1.952 0 .835.188 1.49.563 1.967.383.48.898.72 1.547.72.644 0 1.156-.24 1.53-.72.376-.476.564-1.132.564-1.968 0-.822-.187-1.474-.562-1.954-.375-.477-.887-.72-1.53-.72zm0-.734c.914 0 1.648.312 2.203.937.55.617.828 1.438.828 2.47 0 1.042-.277 1.87-.828 2.483-.555.617-1.29.922-2.203.922-.93 0-1.668-.305-2.22-.922C.774-1.41.5-2.237.5-3.28c0-1.033.273-1.853.828-2.47.55-.625 1.29-.938 2.22-.938zm0 0"/></symbol><symbol overflow="visible" id="c"><path d="M.89-6.563h3.766v.75h-2.89v1.938h2.61v.734h-2.61V0H.89zm0 0"/></symbol><symbol overflow="visible" id="d"><path d="M.89-6.563h.876v2.688H5v-2.688h.89V0H5v-3.125H1.766V0H.89zm0 0"/></symbol></defs><g><path fill="#fff" d="M0 0h300v300H0z"/><path d="M68.863 177.332l-19.648-7.36-1.332 7.173zm0 0"/><path d="M68.863 177.332l6.89 19.477M82.285 161.625l-13.422 15.707M75.754 196.81l20.312 3.772M75.754 196.81l-13.426 15.706M96.066 200.582l13.422-15.707M96.066 200.582l6.89 19.477M109.488 184.875l20.313 3.773M102.602 165.398l6.886 19.477M129.8 188.648l13.427-15.707" stroke-width="1.2" stroke="#000" stroke-miterlimit="10" fill="none"/><path d="M136.336 153.465m.496 2.957l.98-.348m-.488 3.31l1.965-.696m-1.474 3.652l2.95-1.043m-2.453 4.004l3.93-1.39m-3.438 4.352l4.914-1.742m-4.423 4.7l5.898-2.087m-5.406 5.023l6.874-2.43" stroke="#000" stroke-miterlimit="10" fill="none"/><path d="M136.336 153.465l-20.313-3.774M149.762 137.758l-13.426 15.707" stroke-width="1.2" stroke="#000" stroke-miterlimit="10" fill="none"/><path d="M116.023 149.69m-2.316 1.908l.793.68m-3.11 1.23l1.587 1.35m-3.903.556l2.38 2.03m-4.692-.124l3.168 2.71m-5.485-.803l3.96 3.386m-6.276-1.48l4.753 4.066m-7.055-2.173l5.543 4.74" stroke="#000" stroke-miterlimit="10" fill="none"/><path d="M109.133 130.215l6.89 19.476M102.602 165.398l-20.317-3.773M99.68 169.8l-16.25-3.02M82.285 161.625l-6.887-19.477M75.398 142.148l6.71-7.855" stroke-width="1.2" stroke="#000" stroke-miterlimit="10" fill="none"/><path d="M82.11 134.293l6.71-7.852M88.82 126.44l10.157 1.888" stroke-width="1.2" stroke="#00f" stroke-miterlimit="10" fill="none"/><path d="M98.977 128.328l10.156 1.887" stroke-width="1.2" stroke="#000" stroke-miterlimit="10" fill="none"/><path d="M88.82 126.44l-3.445-9.737" stroke-width="1.2" stroke="#00f" stroke-miterlimit="10" fill="none"/><path d="M85.375 116.703l-3.445-9.738" stroke-width="1.2" stroke="#000" stroke-miterlimit="10" fill="none"/><path d="M85.82 120.94h7v11h-7zm0 0" fill="#fff"/><use xlink:href="#a" x="85.82" y="129.604" fill="#00f"/><path d="M109.133 130.215l13.426-15.707" stroke-width="1.2" stroke="#000" stroke-miterlimit="10" fill="none"/><path d="M109.133 130.215l-11.18-2.973.442 7.278zm0 0"/><path d="M122.56 114.508l10.155 1.887" stroke-width="1.2" stroke="#000" stroke-miterlimit="10" fill="none"/><path d="M132.715 116.395l10.156 1.886M142.87 118.28l3.446 9.74" stroke-width="1.2" stroke="#f00" stroke-miterlimit="10" fill="none"/><path d="M146.316 128.02l3.446 9.738" stroke-width="1.2" stroke="#000" stroke-miterlimit="10" fill="none"/><path d="M138.87 112.78h8v11h-8zm0 0" fill="#fff"/><use xlink:href="#b" x="138.871" y="121.444" fill="#f00"/><path d="M149.762 137.758l10.156 1.887" stroke-width="1.2" stroke="#000" stroke-miterlimit="10" fill="none"/><path d="M159.918 139.645l10.156 1.886M170.074 141.53l6.71-7.85" stroke-width="1.2" stroke="#f00" stroke-miterlimit="10" fill="none"/><path d="M176.785 133.68l6.71-7.856" stroke-width="1.2" stroke="#000" stroke-miterlimit="10" fill="none"/><path d="M166.074 136.03h8v11h-8zm0 0" fill="#fff"/><use xlink:href="#b" x="166.074" y="144.694" fill="#f00"/><path d="M183.496 125.824l20.313 3.774M203.81 129.598l6.89 19.476M209.082 129.926l5.512 15.582M217.234 113.89L203.81 129.6M210.7 149.074l20.312 3.774M210.7 149.074l-13.423 15.707M231.012 152.848l13.425-15.703M228.66 148.12l10.738-12.565M244.438 137.145l-6.89-19.48M244.438 137.145l10.156 1.882" stroke-width="1.2" stroke="#000" stroke-miterlimit="10" fill="none"/><path d="M254.594 139.027l10.156 1.887" stroke-width="1.2" stroke="#3cc" stroke-miterlimit="10" fill="none"/><path d="M237.547 117.664l-20.313-3.773M234.63 122.066l-16.25-3.015" stroke-width="1.2" stroke="#000" stroke-miterlimit="10" fill="none"/><path d="M261.75 135.414h6v11h-6zm0 0" fill="#fff"/><use xlink:href="#c" x="261.75" y="144.077" fill="#3cc"/><path d="M197.277 164.78l-6.71 7.853" stroke-width="1.2" stroke="#000" stroke-miterlimit="10" fill="none"/><path d="M190.566 172.633l-6.714 7.855" stroke-width="1.2" stroke="#3cc" stroke-miterlimit="10" fill="none"/><path d="M197.277 164.78l7.852 6.712" stroke-width="1.2" stroke="#000" stroke-miterlimit="10" fill="none"/><path d="M205.13 171.492l7.85 6.715" stroke-width="1.2" stroke="#3cc" stroke-miterlimit="10" fill="none"/><path d="M197.277 164.78l-7.855-6.71" stroke-width="1.2" stroke="#000" stroke-miterlimit="10" fill="none"/><path d="M189.422 158.07l-7.852-6.71" stroke-width="1.2" stroke="#3cc" stroke-miterlimit="10" fill="none"/><path d="M177.852 174.988h6v11h-6zm0 0" fill="#fff"/><use xlink:href="#c" x="177.852" y="183.651" fill="#3cc"/><path d="M209.98 172.707h6v11h-6zm0 0" fill="#fff"/><use xlink:href="#c" x="209.98" y="181.37" fill="#3cc"/><path d="M175.57 145.86h6v11h-6zm0 0" fill="#fff"/><use xlink:href="#c" x="175.57" y="154.522" fill="#3cc"/><path d="M83.777 108.543l6.715-7.852" stroke-width="1.2" stroke="#000" stroke-miterlimit="10" fill="none"/><path d="M90.492 100.69l6.71-7.854" stroke-width="1.2" stroke="#f00" stroke-miterlimit="10" fill="none"/><path d="M80.082 105.383l6.715-7.852" stroke-width="1.2" stroke="#000" stroke-miterlimit="10" fill="none"/><path d="M86.797 97.53l6.71-7.85" stroke-width="1.2" stroke="#f00" stroke-miterlimit="10" fill="none"/><path d="M81.93 106.965l-10.157-1.887" stroke-width="1.2" stroke="#000" stroke-miterlimit="10" fill="none"/><path d="M71.773 105.078l-10.156-1.887" stroke-width="1.2" stroke="#f00" stroke-miterlimit="10" fill="none"/><path d="M91.355 85.758h8v11h-8zm0 0" fill="#fff"/><use xlink:href="#b" x="91.355" y="94.421" fill="#f00"/><path d="M61.617 103.19l-3.445-9.737" stroke-width="1.2" stroke="#f00" stroke-miterlimit="10" fill="none"/><path d="M58.172 93.453l-3.445-9.738" stroke-width="1.2" stroke="#000" stroke-miterlimit="10" fill="none"/><path d="M57.617 97.69h8v11h-8zm0 0" fill="#fff"/><use xlink:href="#b" x="57.617" y="106.354" fill="#f00"/><path d="M54.727 83.715L35.25 90.602M54.727 83.715l19.48-6.89M54.727 83.715l-6.887-19.48M102.957 220.06l-6.715 7.85" stroke-width="1.2" stroke="#000" stroke-miterlimit="10" fill="none"/><path d="M96.242 227.91l-6.71 7.856" stroke-width="1.2" stroke="#f00" stroke-miterlimit="10" fill="none"/><path d="M74.53 230.266h15v11h-15zm0 0" fill="#fff"/><g fill="#f00"><use xlink:href="#d" x="74.531" y="238.929"/><use xlink:href="#b" x="81.546" y="238.929"/></g><path d="M62.328 212.516l3.445 9.738" stroke-width="1.2" stroke="#000" stroke-miterlimit="10" fill="none"/><path d="M65.773 222.254l3.446 9.738" stroke-width="1.2" stroke="#f00" stroke-miterlimit="10" fill="none"/><path d="M62.22 226.492h15v11h-15zm0 0" fill="#fff"/><g fill="#f00"><use xlink:href="#b" x="62.219" y="235.155"/><use xlink:href="#d" x="69.561" y="235.155"/></g></g></svg>