<svg xmlns="http://www.w3.org/2000/svg" xmlns:xlink="http://www.w3.org/1999/xlink" width="300pt" height="300pt" viewBox="0 0 300 300"><defs><symbol overflow="visible"><path d="M.453 1.594v-7.938h4.5v7.938zm.5-.5h3.5v-6.938h-3.5zm0 0"/></symbol><symbol overflow="visible" id="a"><path d="M.89-6.563H2.08l2.906 5.485v-5.484h.86V0H4.656L1.75-5.484V0H.89zm0 0"/></symbol><symbol overflow="visible" id="b"><path d="M.89-6.563h.876v2.688H5v-2.688h.89V0H5v-3.125H1.766V0H.89zm0 0"/></symbol><symbol overflow="visible" id="c"><path d="M3.547-5.953c-.65 0-1.164.242-1.547.72-.375.48-.563 1.13-.563 1.952 0 .835.188 1.49.563 1.967.383.48.898.72 1.547.72.644 0 1.156-.24 1.53-.72.376-.476.564-1.132.564-1.968 0-.822-.187-1.474-.562-1.954-.375-.477-.887-.72-1.53-.72zm0-.734c.914 0 1.648.312 2.203.937.55.617.828 1.438.828 2.47 0 1.042-.277 1.87-.828 2.483-.555.617-1.29.922-2.203.922-.93 0-1.668-.305-2.22-.922C.774-1.41.5-2.237.5-3.28c0-1.033.273-1.853.828-2.47.55-.625 1.29-.938 2.22-.938zm0 0"/></symbol></defs><g><path fill="#fff" d="M0 0h300v300H0z"/><path d="M107.37 121.45m-1.093 2.792l1.02.207m-2.117 2.585l2.043.414m-3.14 2.378l3.065.62m-4.164 2.17l4.09.827m-5.187 1.965l5.11 1.035m-6.07 1.41l6.003 1.215" stroke="#000" stroke-miterlimit="10" fill="none"/><path d="M107.37 121.45l-2.58-17.165M107.37 121.45l17.357.437M91.215 115.105l16.156 6.344" stroke-width="1.2" stroke="#000" stroke-miterlimit="10" fill="none"/><path d="M91.215 115.105m2.637-1.433l-.65-.817m3.286-.617l-1.3-1.633m3.933.2l-1.948-2.45m4.586 1.016l-2.602-3.26m5.24 1.828l-3.25-4.08m5.553 2.822l-3.82-4.79" stroke="#000" stroke-miterlimit="10" fill="none"/><path d="M91.215 115.105l-17.164 2.582" stroke-width="1.2" stroke="#000" stroke-miterlimit="10" fill="none"/><path d="M74.05 117.688m-1.433-2.637l-.812.653m-.62-3.285l-1.63 1.3m.195-3.937l-2.445 1.95m1.01-4.582l-3.26 2.598m1.828-5.234l-4.078 3.25m2.824-5.555l-4.79 3.816" stroke="#000" stroke-miterlimit="10" fill="none"/><path d="M74.05 117.688l-3.17 8.078" stroke-width="1.2" stroke="#000" stroke-miterlimit="10" fill="none"/><path d="M70.88 125.766l-3.173 8.078" stroke-width="1.2" stroke="#00f" stroke-miterlimit="10" fill="none"/><path d="M63.234 104.113L46.07 106.7M60.91 100.336l-13.734 2.062M69.578 87.957l-6.344 16.156M46.07 106.7L35.25 93.124M35.25 93.125l6.344-16.156M39.688 93l5.074-12.922M41.594 76.97l17.164-2.583M58.758 74.387l10.82 13.57M56.648 78.29l8.657 10.858" stroke-width="1.2" stroke="#000" stroke-miterlimit="10" fill="none"/><path d="M67.707 133.844l5.41 6.785" stroke-width="1.2" stroke="#00f" stroke-miterlimit="10" fill="none"/><path d="M73.117 140.63l5.41 6.788" stroke-width="1.2" stroke="#000" stroke-miterlimit="10" fill="none"/><path d="M60.707 128.344h14v11h-14zm0 0" fill="#fff"/><g fill="#00f"><use xlink:href="#a" x="60.707" y="137.007"/><use xlink:href="#b" x="67.685" y="137.007"/></g><path d="M78.828 149.438l8.582-1.293" stroke-width="1.2" stroke="#000" stroke-miterlimit="10" fill="none"/><path d="M87.41 148.145l8.582-1.29" stroke-width="1.2" stroke="#f00" stroke-miterlimit="10" fill="none"/><path d="M78.223 145.398l8.582-1.293" stroke-width="1.2" stroke="#000" stroke-miterlimit="10" fill="none"/><path d="M86.805 144.105l8.582-1.29" stroke-width="1.2" stroke="#f00" stroke-miterlimit="10" fill="none"/><path d="M78.527 147.418l-3.175 8.078" stroke-width="1.2" stroke="#000" stroke-miterlimit="10" fill="none"/><path d="M75.352 155.496l-3.172 8.078" stroke-width="1.2" stroke="#f00" stroke-miterlimit="10" fill="none"/><path d="M91.69 139.336h8v11h-8zm0 0" fill="#fff"/><use xlink:href="#c" x="91.691" y="147.999" fill="#f00"/><path d="M72.18 163.574l5.41 6.785" stroke-width="1.2" stroke="#f00" stroke-miterlimit="10" fill="none"/><path d="M77.59 170.36l5.41 6.788" stroke-width="1.2" stroke="#000" stroke-miterlimit="10" fill="none"/><path d="M68.18 158.074h8v11h-8zm0 0" fill="#fff"/><use xlink:href="#c" x="68.18" y="166.737" fill="#f00"/><path d="M83 177.148L76.656 193.3M76.656 193.3l10.817 13.575M74.543 197.207l8.656 10.856M59.488 195.887l17.168-2.586M87.473 206.875L81.13 223.03M81.13 223.03l-17.165 2.583M78.805 219.25l-13.73 2.066M63.965 225.613l-10.82-13.57M53.145 212.043l6.343-16.156M57.582 211.918l5.074-12.922M122.93 122.863l4.148 7.62" stroke-width="1.2" stroke="#000" stroke-miterlimit="10" fill="none"/><path d="M127.078 130.484l4.152 7.625" stroke-width="1.2" stroke="#f00" stroke-miterlimit="10" fill="none"/><path d="M126.52 120.91l4.148 7.625" stroke-width="1.2" stroke="#000" stroke-miterlimit="10" fill="none"/><path d="M130.668 128.535l4.148 7.62" stroke-width="1.2" stroke="#f00" stroke-miterlimit="10" fill="none"/><path d="M124.727 121.887l4.523-7.403" stroke-width="1.2" stroke="#000" stroke-miterlimit="10" fill="none"/><path d="M129.25 114.484l4.527-7.406" stroke-width="1.2" stroke="#00f" stroke-miterlimit="10" fill="none"/><path d="M129.023 131.633h8v11h-8zm0 0" fill="#fff"/><use xlink:href="#c" x="129.023" y="140.296" fill="#f00"/><path d="M133.777 107.078l-3.328-8.016" stroke-width="1.2" stroke="#00f" stroke-miterlimit="10" fill="none"/><path d="M130.45 99.063l-3.33-8.016M151.082 105.7l-8.652.687" stroke-width="1.2" stroke="#000" stroke-miterlimit="10" fill="none"/><path d="M142.43 106.387l-8.653.69" stroke-width="1.2" stroke="#00f" stroke-miterlimit="10" fill="none"/><path d="M130.777 101.578h7v11h-7zm0 0" fill="#fff"/><use xlink:href="#a" x="130.777" y="110.241" fill="#00f"/><path d="M127.12 91.047l13.19-11.285M140.31 79.762l14.807 9.054M155.117 88.816l-4.035 16.883" stroke-width="1.2" stroke="#000" stroke-miterlimit="10" fill="none"/><path d="M151.082 105.7l8.957 15.18 4.655-3.985zm0 0"/><path d="M160.44 118.207l-2.885 8.184" stroke-width="1.2" stroke="#000" stroke-miterlimit="10" fill="none"/><path d="M157.555 126.39l-2.89 8.184" stroke-width="1.2" stroke="#f00" stroke-miterlimit="10" fill="none"/><path d="M164.293 119.566l-2.887 8.184" stroke-width="1.2" stroke="#000" stroke-miterlimit="10" fill="none"/><path d="M161.406 127.75l-2.89 8.184" stroke-width="1.2" stroke="#f00" stroke-miterlimit="10" fill="none"/><path d="M162.367 118.887l8.53-1.59" stroke-width="1.2" stroke="#000" stroke-miterlimit="10" fill="none"/><path d="M170.898 117.297l8.532-1.59" stroke-width="1.2" stroke="#00f" stroke-miterlimit="10" fill="none"/><path d="M148.59 129.754h8v11h-8zm0 0" fill="#fff"/><use xlink:href="#c" x="148.59" y="138.417" fill="#f00"/><path d="M179.43 115.707l5.644 6.594" stroke-width="1.2" stroke="#00f" stroke-miterlimit="10" fill="none"/><path d="M185.074 122.3l5.645 6.595" stroke-width="1.2" stroke="#000" stroke-miterlimit="10" fill="none"/><path d="M172.43 110.207h14v11h-14zm0 0" fill="#fff"/><g fill="#00f"><use xlink:href="#a" x="172.43" y="118.87"/><use xlink:href="#b" x="179.407" y="118.87"/></g><path d="M190.72 128.895l17.06-3.18M209.707 126.395l2.89-8.188" stroke-width="1.2" stroke="#000" stroke-miterlimit="10" fill="none"/><path d="M212.598 118.207l2.886-8.184" stroke-width="1.2" stroke="#f00" stroke-miterlimit="10" fill="none"/><path d="M205.855 125.035l2.89-8.187" stroke-width="1.2" stroke="#000" stroke-miterlimit="10" fill="none"/><path d="M208.746 116.848l2.887-8.184" stroke-width="1.2" stroke="#f00" stroke-miterlimit="10" fill="none"/><path d="M207.78 125.715l5.646 6.594" stroke-width="1.2" stroke="#000" stroke-miterlimit="10" fill="none"/><path d="M213.426 132.31l5.64 6.592" stroke-width="1.2" stroke="#00f" stroke-miterlimit="10" fill="none"/><path d="M209.56 103.844h8v11h-8zm0 0" fill="#fff"/><use xlink:href="#c" x="209.559" y="112.507" fill="#f00"/><path d="M236.133 135.72m-3 .03l.19 1.023m-3.19-.996l.38 2.05m-3.38-2.022l.57 3.078m-3.57-3.047l.762 4.1m-3.762-4.073l.953 5.125m-3.578-5.097l1.12 6.02" stroke="#000" stroke-miterlimit="10" fill="none"/><path d="M212.066 133.402h14v11h-14zm0 0" fill="#fff"/><g fill="#00f"><use xlink:href="#a" x="212.066" y="142.065"/><use xlink:href="#b" x="219.044" y="142.065"/></g><path d="M236.133 135.72l11.285 13.186M236.133 135.72l5.777-16.368" stroke-width="1.2" stroke="#000" stroke-miterlimit="10" fill="none"/><path d="M247.418 148.906m2.613 1.477l.345-.985m2.266 2.46l.696-1.967m1.918 3.442l1.043-2.95m1.57 4.427l1.387-3.935m1.226 5.406l1.735-4.913m.55 6.207l2.04-5.777" stroke="#000" stroke-miterlimit="10" fill="none"/><path d="M250.598 165.973l-3.18-17.067M263.785 154.684l-13.187 11.29" stroke-width="1.2" stroke="#000" stroke-miterlimit="10" fill="none"/><path d="M250.598 165.973m1.054 2.808l.895-.53m.156 3.34l1.797-1.063m-.742 3.87l2.69-1.588m-1.64 4.397l3.594-2.12m-2.54 4.93l4.49-2.65m-3.567 5.11l5.274-3.118" stroke="#000" stroke-miterlimit="10" fill="none"/><path d="M250.598 165.973l-16.254 6.093M235.645 170.488l-6.704-5.51" stroke-width="1.2" stroke="#000" stroke-miterlimit="10" fill="none"/><path d="M228.94 164.977l-6.702-5.516" stroke-width="1.2" stroke="#f00" stroke-miterlimit="10" fill="none"/><path d="M233.047 173.645l-6.7-5.516" stroke-width="1.2" stroke="#000" stroke-miterlimit="10" fill="none"/><path d="M226.348 168.13l-6.703-5.513" stroke-width="1.2" stroke="#f00" stroke-miterlimit="10" fill="none"/><path d="M234.344 172.066l-1.422 8.563" stroke-width="1.2" stroke="#000" stroke-miterlimit="10" fill="none"/><path d="M232.922 180.63l-1.426 8.558" stroke-width="1.2" stroke="#00f" stroke-miterlimit="10" fill="none"/><path d="M212.94 155.54h8v11h-8zm0 0" fill="#fff"/><use xlink:href="#c" x="212.941" y="164.202" fill="#f00"/><path d="M231.496 189.188l-8.125 3.046" stroke-width="1.2" stroke="#00f" stroke-miterlimit="10" fill="none"/><path d="M223.37 192.234l-8.124 3.05" stroke-width="1.2" stroke="#000" stroke-miterlimit="10" fill="none"/><path d="M231.496 189.188l6.703 5.515" stroke-width="1.2" stroke="#00f" stroke-miterlimit="10" fill="none"/><path d="M238.2 194.703l6.702 5.512" stroke-width="1.2" stroke="#000" stroke-miterlimit="10" fill="none"/><path d="M228.496 183.688h7v11h-7zm0 0" fill="#fff"/><use xlink:href="#a" x="228.496" y="192.351" fill="#00f"/><path d="M241.91 119.352l17.063-3.18M242.867 115.02l13.653-2.543M230.62 106.164l11.29 13.188M258.973 116.172l5.777-16.367M264.75 99.805l-11.285-13.188M260.52 101.14l-9.032-10.55M253.465 86.617l-17.067 3.18M236.398 89.797l-5.777 16.367M239.672 92.793l-4.62 13.094" stroke-width="1.2" stroke="#000" stroke-miterlimit="10" fill="none"/></g></svg>