<svg xmlns="http://www.w3.org/2000/svg" xmlns:xlink="http://www.w3.org/1999/xlink" width="300pt" height="300pt" viewBox="0 0 300 300"><defs><symbol overflow="visible"><path d="M.547 1.938V-7.75h5.5v9.688zm.625-.61h4.266v-8.47H1.171zm0 0"/></symbol><symbol overflow="visible" id="a"><path d="M4.328-7.28c-.78 0-1.406.296-1.875.89-.46.585-.687 1.382-.687 2.39 0 1.012.226 1.813.687 2.406.47.586 1.094.875 1.875.875.79 0 1.414-.288 1.875-.874.457-.593.688-1.394.688-2.406 0-1.008-.23-1.805-.687-2.39-.46-.594-1.086-.89-1.875-.89zm0-.892c1.125 0 2.024.383 2.703 1.14C7.708-6.28 8.048-5.27 8.048-4c0 1.262-.34 2.273-1.016 3.03C6.353-.22 5.454.157 4.33.157S2.3-.22 1.625-.97c-.668-.75-1-1.757-1-3.03 0-1.27.332-2.28 1-3.03.676-.76 1.578-1.142 2.703-1.142zm0 0"/></symbol><symbol overflow="visible" id="b"><path d="M1.078-8.016h1.094v3.282H6.11v-3.282h1.077V0H6.11v-3.813H2.17V0H1.078zm0 0"/></symbol></defs><g><path fill="#fff" d="M0 0h300v300H0z"/><path d="M150 264.75h26.5M152.648 258.516h21.204M136.75 241.8L150 264.75M176.5 264.75l13.25-22.95M189.75 241.8l-13.25-22.948M183.027 242.62l-10.6-18.358M176.5 218.852H150" stroke-width="1.2" stroke="#000" stroke-miterlimit="10" fill="none"/><path d="M189.75 195.898l-6.625 11.477" stroke-width="1.2" stroke="#f00" stroke-miterlimit="10" fill="none"/><path d="M183.125 207.375l-6.625 11.477M150 218.852l-13.25 22.95M154.074 224.262l-10.597 18.36M150 218.852l-13.25-22.954M136.75 195.898l13.25-22.95M143.477 196.723l10.597-18.36M136.75 195.898H123.5" stroke-width="1.2" stroke="#000" stroke-miterlimit="10" fill="none"/><path d="M123.5 195.898h-13.25" stroke-width="1.2" stroke="#f00" stroke-miterlimit="10" fill="none"/><path d="M150 172.95h26.5M150 172.95L136.75 150M178.988 174.828l5.235-6.945" stroke-width="1.2" stroke="#000" stroke-miterlimit="10" fill="none"/><path d="M184.223 167.883l5.23-6.942" stroke-width="1.2" stroke="#f00" stroke-miterlimit="10" fill="none"/><path d="M174.012 171.074l5.23-6.94" stroke-width="1.2" stroke="#000" stroke-miterlimit="10" fill="none"/><path d="M179.242 164.133l5.23-6.946" stroke-width="1.2" stroke="#f00" stroke-miterlimit="10" fill="none"/><path d="M176.5 172.95l6.625 11.476" stroke-width="1.2" stroke="#000" stroke-miterlimit="10" fill="none"/><path d="M183.125 184.426l6.625 11.472" stroke-width="1.2" stroke="#f00" stroke-miterlimit="10" fill="none"/><path d="M182.965 152.566h9v13h-9zm0 0" fill="#fff"/><use xlink:href="#a" x="182.965" y="162.468" fill="#f00"/><path d="M185.75 189.398h9v13h-9zm0 0" fill="#fff"/><use xlink:href="#a" x="185.75" y="199.3" fill="#f00"/><path d="M136.75 150L150 127.05M150 127.05l-13.25-22.948M154.074 121.637l-10.597-18.36M176.5 127.05H150M136.75 104.102L150 81.148M136.75 104.102H123.5" stroke-width="1.2" stroke="#000" stroke-miterlimit="10" fill="none"/><path d="M123.5 104.102h-13.25" stroke-width="1.2" stroke="#f00" stroke-miterlimit="10" fill="none"/><path d="M150 81.148l-13.25-22.95M154.074 75.738l-10.597-18.36M176.5 81.148H150M136.75 58.2L150 35.25M150 35.25h26.5M152.648 41.484h21.204M176.5 35.25l13.25 22.95M189.75 58.2L176.5 81.147M183.027 57.38l-10.6 18.358M176.5 81.148l6.625 11.477" stroke-width="1.2" stroke="#000" stroke-miterlimit="10" fill="none"/><path d="M183.125 92.625l6.625 11.477M189.75 104.102l-6.625 11.472" stroke-width="1.2" stroke="#f00" stroke-miterlimit="10" fill="none"/><path d="M183.125 115.574L176.5 127.05" stroke-width="1.2" stroke="#000" stroke-miterlimit="10" fill="none"/><path d="M185.75 97.602h9v13h-9zm0 0" fill="#fff"/><use xlink:href="#a" x="185.75" y="107.503" fill="#f00"/><path d="M174.012 128.926l5.23 6.94" stroke-width="1.2" stroke="#000" stroke-miterlimit="10" fill="none"/><path d="M179.242 135.867l5.23 6.946" stroke-width="1.2" stroke="#f00" stroke-miterlimit="10" fill="none"/><path d="M178.988 125.172l5.235 6.945" stroke-width="1.2" stroke="#000" stroke-miterlimit="10" fill="none"/><path d="M184.223 132.117l5.23 6.942" stroke-width="1.2" stroke="#f00" stroke-miterlimit="10" fill="none"/><path d="M182.965 134.434h9v13h-9zm0 0" fill="#fff"/><use xlink:href="#a" x="182.965" y="144.335" fill="#f00"/><path d="M93.25 97.602h17v13h-17zm0 0" fill="#fff"/><g fill="#f00"><use xlink:href="#b" x="93.25" y="107.503"/><use xlink:href="#a" x="101.274" y="107.503"/></g><path d="M93.25 189.398h17v13h-17zm0 0" fill="#fff"/><g fill="#f00"><use xlink:href="#b" x="93.25" y="199.3"/><use xlink:href="#a" x="101.274" y="199.3"/></g></g></svg>