<svg xmlns="http://www.w3.org/2000/svg" xmlns:xlink="http://www.w3.org/1999/xlink" width="300pt" height="300pt" viewBox="0 0 300 300"><defs><symbol overflow="visible"><path d="M.453 1.594v-7.938h4.5v7.938zm.5-.5h3.5v-6.938h-3.5zm0 0"/></symbol><symbol overflow="visible" id="a"><path d="M.89-6.563H2.08l2.906 5.485v-5.484h.86V0H4.656L1.75-5.484V0H.89zm0 0"/></symbol><symbol overflow="visible" id="b"><path d="M4.813-6.344v.86c-.336-.157-.653-.27-.954-.344-.294-.082-.58-.125-.86-.125-.492 0-.867.094-1.125.28-.262.19-.39.454-.39.798 0 .293.085.512.265.656.176.15.504.267.984.36l.547.11c.658.125 1.142.352 1.454.672.32.312.485.734.485 1.265 0 .637-.216 1.122-.642 1.454-.43.325-1.055.485-1.875.485-.312 0-.648-.04-1-.11C1.36-.046 1-.147.625-.296v-.906c.352.2.703.35 1.047.453.35.105.695.156 1.03.156.5 0 .884-.097 1.157-.297.28-.196.42-.485.42-.86 0-.32-.1-.57-.296-.75-.2-.176-.523-.313-.968-.406l-.547-.11C1.81-3.148 1.33-3.36 1.03-3.64.74-3.923.595-4.313.595-4.813c0-.57.203-1.024.61-1.36.405-.344.968-.516 1.687-.516.313 0 .626.032.938.094.32.055.65.137.985.25zm0 0"/></symbol><symbol overflow="visible" id="c"><path d="M.89-6.563h3.766v.75h-2.89v1.938h2.61v.734h-2.61V0H.89zm0 0"/></symbol></defs><g><path fill="#fff" d="M0 0h300v300H0z"/><path d="M35.25 173.215l12.063 3.574" stroke-width="1.2" stroke="#000" stroke-miterlimit="10" fill="none"/><path d="M47.313 176.79l12.062 3.57M59.375 180.36l9.125-8.66" stroke-width="1.2" stroke="#00f" stroke-miterlimit="10" fill="none"/><path d="M68.5 171.7l9.125-8.66M65.25 204.824l-2.938-12.23" stroke-width="1.2" stroke="#000" stroke-miterlimit="10" fill="none"/><path d="M62.313 192.594l-2.938-12.235" stroke-width="1.2" stroke="#00f" stroke-miterlimit="10" fill="none"/><path d="M56.375 174.86h7v11h-7zm0 0" fill="#fff"/><use xlink:href="#a" x="56.375" y="183.522" fill="#00f"/><path d="M77.625 163.04l24.125 7.144M101.75 170.184l2.938 12.23" stroke-width="1.2" stroke="#000" stroke-miterlimit="10" fill="none"/><path d="M104.688 182.414l2.937 12.234M107.625 194.648l-9.125 8.66" stroke-width="1.2" stroke="#00f" stroke-miterlimit="10" fill="none"/><path d="M98.5 203.31l-9.125 8.66" stroke-width="1.2" stroke="#000" stroke-miterlimit="10" fill="none"/><path d="M107.625 194.648l12.063 3.57" stroke-width="1.2" stroke="#00f" stroke-miterlimit="10" fill="none"/><path d="M119.688 198.22l12.062 3.573" stroke-width="1.2" stroke="#000" stroke-miterlimit="10" fill="none"/><path d="M104.625 189.148h7v11h-7zm0 0" fill="#fff"/><use xlink:href="#a" x="104.625" y="197.812" fill="#00f"/><path d="M89.375 211.97l-24.125-7.146M131.75 201.793l18.25-17.32M150 184.473l24.125 7.144M174.125 191.617l9.125-8.66" stroke-width="1.2" stroke="#000" stroke-miterlimit="10" fill="none"/><path d="M183.25 182.957l9.125-8.66M192.375 174.297l12.063 3.57" stroke-width="1.2" stroke="#00f" stroke-miterlimit="10" fill="none"/><path d="M204.438 177.867l12.062 3.57M186.5 149.828l2.938 12.234" stroke-width="1.2" stroke="#000" stroke-miterlimit="10" fill="none"/><path d="M189.438 162.063l2.937 12.234" stroke-width="1.2" stroke="#00f" stroke-miterlimit="10" fill="none"/><path d="M189.375 168.797h7v11h-7zm0 0" fill="#fff"/><use xlink:href="#a" x="189.375" y="177.46" fill="#00f"/><path d="M216.5 181.438l5.875 24.468M222.844 182.504l4.7 19.57M234.75 164.117l-18.25 17.32M222.375 205.906l24.125 7.14M246.5 213.047l18.25-17.32M244.25 207.023l14.598-13.86M264.75 195.727l-5.875-24.465M258.875 171.262l-24.125-7.145M254.78 176.227l-19.3-5.72M234.75 164.117l-2.938-12.23" stroke-width="1.2" stroke="#000" stroke-miterlimit="10" fill="none"/><path d="M231.813 151.887l-2.938-12.235M228.875 139.652l-12.063-3.57" stroke-width="1.2" stroke="#cc0" stroke-miterlimit="10" fill="none"/><path d="M216.813 136.082l-12.063-3.574" stroke-width="1.2" stroke="#000" stroke-miterlimit="10" fill="none"/><path d="M225.875 134.152h6v11h-6zm0 0" fill="#fff"/><use xlink:href="#b" x="225.875" y="142.815" fill="#cc0"/><path d="M204.75 132.508l-18.25 17.32M198.848 129.945l-14.598 13.86M198.875 108.043l5.875 24.465M186.5 149.828l-24.125-7.14M162.375 142.688l-5.875-24.465M167.543 138.855l-4.7-19.57M156.5 118.223l18.25-17.325M156.5 118.223l-24.125-7.145M174.75 100.898l24.125 7.145M175.48 107.29l19.3 5.718M132.375 111.078l-12.063-3.574" stroke-width="1.2" stroke="#000" stroke-miterlimit="10" fill="none"/><path d="M120.313 107.504l-12.063-3.57" stroke-width="1.2" stroke="#3cc" stroke-miterlimit="10" fill="none"/><path d="M132.375 111.078l3.57-12.062" stroke-width="1.2" stroke="#000" stroke-miterlimit="10" fill="none"/><path d="M135.945 99.016l3.575-12.063" stroke-width="1.2" stroke="#3cc" stroke-miterlimit="10" fill="none"/><path d="M132.375 111.078L128.8 123.14" stroke-width="1.2" stroke="#000" stroke-miterlimit="10" fill="none"/><path d="M128.8 123.14l-3.57 12.063" stroke-width="1.2" stroke="#3cc" stroke-miterlimit="10" fill="none"/><path d="M102.25 98.434h6v11h-6zm0 0" fill="#fff"/><use xlink:href="#c" x="102.25" y="107.097" fill="#3cc"/><path d="M136.52 81.453h6v11h-6zm0 0" fill="#fff"/><use xlink:href="#c" x="136.52" y="90.116" fill="#3cc"/><path d="M122.23 129.703h6v11h-6zm0 0" fill="#fff"/><use xlink:href="#c" x="122.23" y="138.366" fill="#3cc"/></g></svg>