<svg xmlns="http://www.w3.org/2000/svg" xmlns:xlink="http://www.w3.org/1999/xlink" width="300pt" height="300pt" viewBox="0 0 300 300"><defs><symbol overflow="visible"><path d="M.797 2.828v-14.11h8V2.83zm.906-.89h6.203v-12.33H1.703zm0 0"/></symbol><symbol overflow="visible" id="a"><path d="M10.313-10.766v1.657c-.532-.488-1.102-.85-1.704-1.093-.606-.25-1.247-.375-1.922-.375-1.336 0-2.356.406-3.063 1.22-.71.81-1.063 1.99-1.063 3.53 0 1.543.352 2.72 1.063 3.53.707.814 1.727 1.22 3.063 1.22.675 0 1.316-.117 1.92-.36.603-.25 1.173-.617 1.704-1.11v1.642c-.554.375-1.14.664-1.765.86-.617.187-1.266.28-1.953.28-1.762 0-3.153-.54-4.172-1.625C1.41-2.474.906-3.954.906-5.83c0-1.875.504-3.348 1.516-4.422 1.02-1.082 2.41-1.625 4.172-1.625.695 0 1.35.094 1.968.28.626.18 1.208.454 1.75.83zm0 0"/></symbol><symbol overflow="visible" id="b"><path d="M1.516-12.156h1.437V0H1.516zm0 0"/></symbol><symbol overflow="visible" id="c"><path d="M1.578-11.672h2.125l5.172 9.766v-9.766h1.53V0H8.282L3.11-9.766V0H1.577zm0 0"/></symbol><symbol overflow="visible" id="d"><path d="M1.578-11.672h1.578v4.78H8.89v-4.78h1.58V0H8.89v-5.563H3.157V0H1.578zm0 0"/></symbol><symbol overflow="visible" id="e"><path d="M6.313-10.594c-1.15 0-2.06.43-2.735 1.28-.68.857-1.015 2.017-1.015 3.486 0 1.47.335 2.633 1.015 3.484.676.856 1.586 1.28 2.735 1.28 1.144.002 2.05-.424 2.718-1.28.665-.85 1-2.015 1-3.484 0-1.47-.335-2.63-1-3.484-.667-.852-1.573-1.282-2.717-1.282zm0-1.28c1.632 0 2.94.546 3.92 1.64.978 1.093 1.47 2.562 1.47 4.406 0 1.844-.492 3.32-1.47 4.422-.98 1.093-2.288 1.64-3.92 1.64-1.65 0-2.96-.546-3.938-1.64-.98-1.102-1.47-2.578-1.47-4.422 0-1.844.49-3.313 1.47-4.406.977-1.094 2.29-1.64 3.938-1.64zm0 0"/></symbol></defs><g><path fill="#fff" d="M0 0h300v300H0z"/><path d="M198.313 210.44l4.265-38.006M202.578 172.434l-30.785-22.704M204.84 162.918l-24.63-18.16M237.63 157.12l-35.052 15.314M171.793 149.73l4.266-38.01M171.793 149.73l-17.527 7.657" stroke-width="1.2" stroke="#000" stroke-miterlimit="10" fill="none"/><path d="M154.266 157.387l-17.528 7.656" stroke-width="1.2" stroke="#00f" stroke-miterlimit="10" fill="none"/><path d="M176.06 111.72l35.05-15.31M183.164 118.438l28.043-12.25M211.11 96.41l30.785 22.7M241.895 119.11l-4.266 38.01M232.523 121.906l-3.41 30.41M237.63 157.12l15.393 11.35" stroke-width="1.2" stroke="#000" stroke-miterlimit="10" fill="none"/><path d="M253.023 168.47l15.39 11.35" stroke-width="1.2" stroke="#0c0" stroke-miterlimit="10" fill="none"/><path d="M260.414 170.32h16v19h-16zm0 0" fill="#fff"/><g fill="#0c0"><use xlink:href="#a" x="260.414" y="185.172"/><use xlink:href="#b" x="271.586" y="185.172"/></g><path d="M136.738 165.043l-15.39-11.348" stroke-width="1.2" stroke="#00f" stroke-miterlimit="10" fill="none"/><path d="M121.348 153.695l-15.395-11.35" stroke-width="1.2" stroke="#000" stroke-miterlimit="10" fill="none"/><path d="M124.738 155.543h24v19h-24zm0 0" fill="#fff"/><g fill="#00f"><use xlink:href="#c" x="124.738" y="170.395"/><use xlink:href="#d" x="136.707" y="170.395"/></g><path d="M105.953 142.344l4.266-38.012M97.438 137.54l3.41-30.41M70.902 157.656l35.05-15.312M110.22 104.332l-30.786-22.7M79.434 81.633l-35.05 15.312M79.53 91.41L51.49 103.66M44.383 96.945l-4.266 38.012M40.117 134.957l30.785 22.7M48.535 129.98l24.63 18.16M70.902 157.656l-4.265 38.012M63.965 199.29l15.394 11.35" stroke-width="1.2" stroke="#000" stroke-miterlimit="10" fill="none"/><path d="M79.36 210.64l15.394 11.348" stroke-width="1.2" stroke="#f00" stroke-miterlimit="10" fill="none"/><path d="M69.31 192.047l15.39 11.348" stroke-width="1.2" stroke="#000" stroke-miterlimit="10" fill="none"/><path d="M84.7 203.395l15.394 11.35" stroke-width="1.2" stroke="#f00" stroke-miterlimit="10" fill="none"/><path d="M66.637 195.668l-17.528 7.656" stroke-width="1.2" stroke="#000" stroke-miterlimit="10" fill="none"/><path d="M49.11 203.324l-17.524 7.656" stroke-width="1.2" stroke="#f00" stroke-miterlimit="10" fill="none"/><path d="M91.422 208.867h13v19h-13zm0 0" fill="#fff"/><use xlink:href="#e" x="91.422" y="223.719" fill="#f00"/><path d="M6.586 201.48h25v19h-25zm0 0" fill="#fff"/><g fill="#f00"><use xlink:href="#d" x="6.586" y="216.332"/><use xlink:href="#e" x="18.617" y="216.332"/></g></g></svg>