<svg xmlns="http://www.w3.org/2000/svg" xmlns:xlink="http://www.w3.org/1999/xlink" width="300pt" height="300pt" viewBox="0 0 300 300"><defs><symbol overflow="visible"><path d="M.453 1.594v-7.938h4.5v7.938zm.5-.5h3.5v-6.938h-3.5zm0 0"/></symbol><symbol overflow="visible" id="a"><path d="M.89-6.563h3.766v.75h-2.89v1.938h2.61v.734h-2.61V0H.89zm0 0"/></symbol><symbol overflow="visible" id="b"><path d="M.89-6.563H2.08l2.906 5.485v-5.484h.86V0H4.656L1.75-5.484V0H.89zm0 0"/></symbol><symbol overflow="visible" id="c"><path d="M.89-6.563h.876v2.688H5v-2.688h.89V0H5v-3.125H1.766V0H.89zm0 0"/></symbol></defs><g><path fill="#fff" d="M0 0h300v300H0z"/><path d="M60.04 128.398l-3.876 8.52" stroke-width="1.2" stroke="#3cc" stroke-miterlimit="10" fill="none"/><path d="M56.164 136.918l-3.875 8.516" stroke-width="1.2" stroke="#000" stroke-miterlimit="10" fill="none"/><path d="M57.04 122.898h6v11h-6zm0 0" fill="#fff"/><use xlink:href="#a" x="57.039" y="131.562" fill="#3cc"/><path d="M52.29 145.434l-3.88 8.52" stroke-width="1.2" stroke="#000" stroke-miterlimit="10" fill="none"/><path d="M48.41 153.953l-3.875 8.52" stroke-width="1.2" stroke="#3cc" stroke-miterlimit="10" fill="none"/><path d="M52.29 145.434l-8.52-3.875" stroke-width="1.2" stroke="#000" stroke-miterlimit="10" fill="none"/><path d="M43.77 141.56l-8.52-3.876" stroke-width="1.2" stroke="#3cc" stroke-miterlimit="10" fill="none"/><path d="M52.29 145.434l17.034 7.754" stroke-width="1.2" stroke="#000" stroke-miterlimit="10" fill="none"/><path d="M38.535 156.973h6v11h-6zm0 0" fill="#fff"/><use xlink:href="#a" x="38.535" y="165.636" fill="#3cc"/><path d="M29.25 132.184h6v11h-6zm0 0" fill="#fff"/><use xlink:href="#a" x="29.25" y="140.847" fill="#3cc"/><path d="M69.324 153.188l15.235-10.88M73.406 155.684l12.188-8.704M71.13 171.82l-1.806-18.632M84.56 142.31l17.034 7.752M101.594 150.063l7.617-5.442" stroke-width="1.2" stroke="#000" stroke-miterlimit="10" fill="none"/><path d="M109.21 144.62l7.618-5.436" stroke-width="1.2" stroke="#00f" stroke-miterlimit="10" fill="none"/><path d="M101.594 150.063l1.804 18.628M97.39 152.352l1.446 14.902" stroke-width="1.2" stroke="#000" stroke-miterlimit="10" fill="none"/><path d="M116.828 139.184l8.52 3.875" stroke-width="1.2" stroke="#00f" stroke-miterlimit="10" fill="none"/><path d="M125.348 143.06l8.515 3.877" stroke-width="1.2" stroke="#000" stroke-miterlimit="10" fill="none"/><path d="M109.828 133.684h14v11h-14zm0 0" fill="#fff"/><g fill="#00f"><use xlink:href="#b" x="109.828" y="142.347"/><use xlink:href="#c" x="116.806" y="142.347"/></g><path d="M133.863 146.938l.903 9.312" stroke-width="1.2" stroke="#000" stroke-miterlimit="10" fill="none"/><path d="M134.766 156.25l.902 9.316" stroke-width="1.2" stroke="#00f" stroke-miterlimit="10" fill="none"/><path d="M138.43 148.375l.722 7.453" stroke-width="1.2" stroke="#000" stroke-miterlimit="10" fill="none"/><path d="M139.152 155.828l.72 7.453" stroke-width="1.2" stroke="#00f" stroke-miterlimit="10" fill="none"/><path d="M149.098 136.06l-15.235 10.877" stroke-width="1.2" stroke="#000" stroke-miterlimit="10" fill="none"/><path d="M135.668 165.566l8.52 3.88" stroke-width="1.2" stroke="#00f" stroke-miterlimit="10" fill="none"/><path d="M144.188 169.445l8.52 3.875" stroke-width="1.2" stroke="#000" stroke-miterlimit="10" fill="none"/><path d="M132.668 160.066h7v11h-7zm0 0" fill="#fff"/><use xlink:href="#b" x="132.668" y="168.729" fill="#00f"/><path d="M152.707 173.32l15.234-10.88M151.672 168.648l12.183-8.703M167.94 162.44l-1.803-18.63M166.137 143.81l-17.04-7.75M166.254 139.027l-13.63-6.203M181.367 132.934l-15.23 10.875M149.098 136.06l-1.805-18.634M147.293 117.426l15.234-10.88M151.375 119.922l12.188-8.703M162.527 106.547l17.036 7.754M179.563 114.3l15.234-10.878M179.563 114.3l1.804 18.634M175.36 116.59l1.445 14.902M181.367 132.934l8.52 3.875" stroke-width="1.2" stroke="#000" stroke-miterlimit="10" fill="none"/><path d="M189.887 136.81l8.52 3.874M198.406 140.684l.903 9.316" stroke-width="1.2" stroke="#00f" stroke-miterlimit="10" fill="none"/><path d="M199.31 150l.9 9.316" stroke-width="1.2" stroke="#000" stroke-miterlimit="10" fill="none"/><path d="M191.406 135.184h14v11h-14zm0 0" fill="#fff"/><g fill="#00f"><use xlink:href="#b" x="191.406" y="143.847"/><use xlink:href="#c" x="198.384" y="143.847"/></g><path d="M200.21 159.316l-7.616 5.438" stroke-width="1.2" stroke="#000" stroke-miterlimit="10" fill="none"/><path d="M192.594 164.754l-7.617 5.44" stroke-width="1.2" stroke="#00f" stroke-miterlimit="10" fill="none"/><path d="M201.246 163.988l-6.094 4.352" stroke-width="1.2" stroke="#000" stroke-miterlimit="10" fill="none"/><path d="M195.152 168.34l-6.093 4.35" stroke-width="1.2" stroke="#00f" stroke-miterlimit="10" fill="none"/><path d="M217.246 167.066l-17.035-7.75" stroke-width="1.2" stroke="#000" stroke-miterlimit="10" fill="none"/><path d="M184.977 170.195l.902 9.313" stroke-width="1.2" stroke="#00f" stroke-miterlimit="10" fill="none"/><path d="M185.88 179.508l.9 9.316" stroke-width="1.2" stroke="#000" stroke-miterlimit="10" fill="none"/><path d="M181.977 164.695h7v11h-7zm0 0" fill="#fff"/><use xlink:href="#b" x="181.977" y="173.358" fill="#00f"/><path d="M186.78 188.824l17.04 7.754M190.31 185.59l13.63 6.203M203.82 196.578l15.23-10.88M219.05 185.7l-1.804-18.634M214.488 184.262l-1.445-14.907M217.246 167.066l15.234-10.875M232.48 156.19l8.52 3.876" stroke-width="1.2" stroke="#000" stroke-miterlimit="10" fill="none"/><path d="M241 160.066l8.516 3.875" stroke-width="1.2" stroke="#00f" stroke-miterlimit="10" fill="none"/><path d="M236.008 152.957l6.816 3.102" stroke-width="1.2" stroke="#000" stroke-miterlimit="10" fill="none"/><path d="M242.824 156.06l6.813 3.1" stroke-width="1.2" stroke="#00f" stroke-miterlimit="10" fill="none"/><path d="M230.676 137.56l1.804 18.63" stroke-width="1.2" stroke="#000" stroke-miterlimit="10" fill="none"/><path d="M249.516 163.94l7.617-5.436" stroke-width="1.2" stroke="#00f" stroke-miterlimit="10" fill="none"/><path d="M257.133 158.504l7.617-5.44" stroke-width="1.2" stroke="#000" stroke-miterlimit="10" fill="none"/><path d="M246.516 158.44h7v11h-7zm0 0" fill="#fff"/><use xlink:href="#b" x="246.516" y="167.104" fill="#00f"/><path d="M264.75 153.063l-.902-9.313" stroke-width="1.2" stroke="#000" stroke-miterlimit="10" fill="none"/><path d="M263.848 143.75l-.903-9.316" stroke-width="1.2" stroke="#00f" stroke-miterlimit="10" fill="none"/><path d="M260.188 151.625l-.723-7.453" stroke-width="1.2" stroke="#000" stroke-miterlimit="10" fill="none"/><path d="M259.465 144.172l-.723-7.453M262.945 134.434l-8.52-3.88" stroke-width="1.2" stroke="#00f" stroke-miterlimit="10" fill="none"/><path d="M254.426 130.555l-8.52-3.875" stroke-width="1.2" stroke="#000" stroke-miterlimit="10" fill="none"/><path d="M259.945 128.934h7v11h-7zm0 0" fill="#fff"/><use xlink:href="#b" x="259.945" y="137.597" fill="#00f"/><path d="M245.906 126.68l-15.23 10.88M246.945 131.352l-12.187 8.703M103.398 168.69l-15.23 10.88M88.168 179.57l-17.04-7.75M88.29 174.79l-13.634-6.204" stroke-width="1.2" stroke="#000" stroke-miterlimit="10" fill="none"/></g></svg>