<svg xmlns="http://www.w3.org/2000/svg" xmlns:xlink="http://www.w3.org/1999/xlink" width="300pt" height="300pt" viewBox="0 0 300 300"><defs><symbol overflow="visible"><path d="M.797 2.828v-14.11h8V2.83zm.906-.89h6.203v-12.33H1.703zm0 0"/></symbol><symbol overflow="visible" id="a"><path d="M6.313-10.594c-1.15 0-2.06.43-2.735 1.28-.68.857-1.015 2.017-1.015 3.486 0 1.47.335 2.633 1.015 3.484.676.856 1.586 1.28 2.735 1.28 1.144.002 2.05-.424 2.718-1.28.665-.85 1-2.015 1-3.484 0-1.47-.335-2.63-1-3.484-.667-.852-1.573-1.282-2.717-1.282zm0-1.28c1.632 0 2.94.546 3.92 1.64.978 1.093 1.47 2.562 1.47 4.406 0 1.844-.492 3.32-1.47 4.422-.98 1.093-2.288 1.64-3.92 1.64-1.65 0-2.96-.546-3.938-1.64-.98-1.102-1.47-2.578-1.47-4.422 0-1.844.49-3.313 1.47-4.406.977-1.094 2.29-1.64 3.938-1.64zm0 0"/></symbol><symbol overflow="visible" id="b"><path d="M1.578-11.672h1.578v4.78H8.89v-4.78h1.58V0H8.89v-5.563H3.157V0H1.578zm0 0"/></symbol></defs><g><path fill="#fff" d="M0 0h300v300H0z"/><path d="M30.906 152.367l6.348-37.72M40.418 150.09l5.078-30.176M60.398 176.723l-29.492-24.356M37.254 114.648l35.844-13.363M73.098 101.285l29.492 24.356M70.313 110.66l23.593 19.485M102.59 125.64l-6.352 37.723M138.43 112.28l-35.84 13.36M96.238 163.363l-35.84 13.36M89.512 156.266L60.84 166.953M96.238 163.363l29.492 24.356M121.293 186.973l-3.172 18.86" stroke-width="1.2" stroke="#000" stroke-miterlimit="10" fill="none"/><path d="M118.12 205.832l-3.175 18.86" stroke-width="1.2" stroke="#f00" stroke-miterlimit="10" fill="none"/><path d="M130.168 188.465l-3.172 18.86" stroke-width="1.2" stroke="#000" stroke-miterlimit="10" fill="none"/><path d="M126.996 207.324l-3.176 18.863" stroke-width="1.2" stroke="#f00" stroke-miterlimit="10" fill="none"/><path d="M125.73 187.72l35.84-13.36" stroke-width="1.2" stroke="#000" stroke-miterlimit="10" fill="none"/><path d="M113.383 215.938h13v19h-13zm0 0" fill="#fff"/><use xlink:href="#a" x="113.383" y="230.789" fill="#f00"/><path d="M161.57 174.36l6.352-37.723M171.082 172.078l5.078-30.176M191.063 198.715L161.57 174.36M167.922 136.637L138.43 112.28M167.922 136.637l35.84-13.36M142.867 113.027l3.172-18.86" stroke-width="1.2" stroke="#000" stroke-miterlimit="10" fill="none"/><path d="M146.04 94.168l3.175-18.86" stroke-width="1.2" stroke="#f00" stroke-miterlimit="10" fill="none"/><path d="M133.992 111.535l3.172-18.86" stroke-width="1.2" stroke="#000" stroke-miterlimit="10" fill="none"/><path d="M137.164 92.676l3.176-18.864" stroke-width="1.2" stroke="#f00" stroke-miterlimit="10" fill="none"/><path d="M138.777 65.063h13v19h-13zm0 0" fill="#fff"/><use xlink:href="#a" x="138.777" y="79.914" fill="#f00"/><path d="M203.762 123.277l29.492 24.356M200.977 132.652l23.593 19.485M203.762 123.277l3.172-18.86" stroke-width="1.2" stroke="#000" stroke-miterlimit="10" fill="none"/><path d="M206.934 104.418l3.175-18.863" stroke-width="1.2" stroke="#f00" stroke-miterlimit="10" fill="none"/><path d="M233.254 147.633l-6.352 37.72M233.254 147.633l17.918-6.68" stroke-width="1.2" stroke="#000" stroke-miterlimit="10" fill="none"/><path d="M251.172 140.953l17.922-6.683" stroke-width="1.2" stroke="#f00" stroke-miterlimit="10" fill="none"/><path d="M226.902 185.352l-35.84 13.363M220.176 178.258l-28.672 10.687" stroke-width="1.2" stroke="#000" stroke-miterlimit="10" fill="none"/><path d="M257.094 124.77h25v19h-25zm0 0" fill="#fff"/><g fill="#f00"><use xlink:href="#a" x="257.094" y="139.621"/><use xlink:href="#b" x="269.688" y="139.621"/></g><path d="M198.11 76.055h25v19h-25zm0 0" fill="#fff"/><g fill="#f00"><use xlink:href="#a" x="198.109" y="90.906"/><use xlink:href="#b" x="210.703" y="90.906"/></g></g></svg>