<svg xmlns="http://www.w3.org/2000/svg" xmlns:xlink="http://www.w3.org/1999/xlink" width="300pt" height="300pt" viewBox="0 0 300 300"><defs><symbol overflow="visible"><path d="M.453 1.594v-7.938h4.5v7.938zm.5-.5h3.5v-6.938h-3.5zm0 0"/></symbol><symbol overflow="visible" id="a"><path d="M3.547-5.953c-.65 0-1.164.242-1.547.72-.375.48-.563 1.13-.563 1.952 0 .835.188 1.49.563 1.967.383.48.898.72 1.547.72.644 0 1.156-.24 1.53-.72.376-.476.564-1.132.564-1.968 0-.822-.187-1.474-.562-1.954-.375-.477-.887-.72-1.53-.72zm0-.734c.914 0 1.648.312 2.203.937.55.617.828 1.438.828 2.47 0 1.042-.277 1.87-.828 2.483-.555.617-1.29.922-2.203.922-.93 0-1.668-.305-2.22-.922C.774-1.41.5-2.237.5-3.28c0-1.033.273-1.853.828-2.47.55-.625 1.29-.938 2.22-.938zm0 0"/></symbol><symbol overflow="visible" id="b"><path d="M.89-6.563h.876v2.688H5v-2.688h.89V0H5v-3.125H1.766V0H.89zm0 0"/></symbol></defs><g><path fill="#fff" d="M0 0h300v300H0z"/><path d="M264.75 147.355l-11.07 6.133M253.68 153.488l-10.848-6.523M242.832 146.965l-11.07 6.13M231.762 153.094l-10.848-6.52M220.914 146.574l-11.07 6.13M209.844 152.703L199 146.18M199 146.18l-11.074 6.132M187.926 152.313l-10.844-6.524M177.082 145.79l-11.07 6.128M166.012 151.918l-10.848-6.52M155.164 145.398l-11.07 6.13M144.094 151.527l-10.848-6.523M133.246 145.004l-11.07 6.133M120.688 151.11l-.114 6.327" stroke-width="1.2" stroke="#000" stroke-miterlimit="10" fill="none"/><path d="M120.574 157.438l-.113 6.324" stroke-width="1.2" stroke="#f00" stroke-miterlimit="10" fill="none"/><path d="M123.664 151.164l-.113 6.324" stroke-width="1.2" stroke="#000" stroke-miterlimit="10" fill="none"/><path d="M123.55 157.488l-.112 6.328" stroke-width="1.2" stroke="#f00" stroke-miterlimit="10" fill="none"/><path d="M122.176 151.137l-5.422-3.262" stroke-width="1.2" stroke="#000" stroke-miterlimit="10" fill="none"/><path d="M116.754 147.875l-5.422-3.262" stroke-width="1.2" stroke="#f00" stroke-miterlimit="10" fill="none"/><path d="M117.95 158.29h8v11h-8zm0 0" fill="#fff"/><use xlink:href="#a" x="117.949" y="166.952" fill="#f00"/><path d="M100.258 150.742m2.84-.972l-.508-.915m3.344-.062l-1.012-1.824m3.848.85l-1.516-2.738m4.35 1.762l-2.018-3.65m2.828 3.372l-2.164-3.906" stroke="#000" stroke-miterlimit="10" fill="none"/><path d="M107.332 139.113h8v11h-8zm0 0" fill="#fff"/><use xlink:href="#a" x="107.332" y="147.776" fill="#f00"/><path d="M100.258 150.742l-10.844-6.52M100.03 163.398l.228-12.656M89.414 144.223l-11.07 6.13" stroke-width="1.2" stroke="#000" stroke-miterlimit="10" fill="none"/><path d="M89.414 144.223m.574-2.946l-1.043-.02m1.618-2.925l-2.086-.04m2.66-2.905l-3.13-.055m3.704-2.89l-4.17-.075m4.33-.762l-4.464-.078" stroke="#000" stroke-miterlimit="10" fill="none"/><path d="M78.344 150.352l-.227 12.656" stroke-width="1.2" stroke="#000" stroke-miterlimit="10" fill="none"/><path d="M78.344 150.352m.79-2.895l-1.036-.094m1.828-2.797l-2.074-.195m2.867-2.698l-3.115-.29m3.907-2.605l-4.153-.386m4.378-.433l-4.45-.414" stroke="#000" stroke-miterlimit="10" fill="none"/><path d="M68.59 142.285l9.754 8.067" stroke-width="1.2" stroke="#000" stroke-miterlimit="10" fill="none"/><path d="M78.117 163.008m-2.66 1.387l.633.824m-3.293.56l1.27 1.654m-3.93-.266l1.906 2.48m-4.566-1.093l2.54 3.304m-3.298-2.91l2.72 3.538" stroke="#000" stroke-miterlimit="10" fill="none"/><path d="M78.117 163.008l10.844 6.52M68.082 170.72l-12.285-3.036M67.566 167.523l-9.828-2.43M55.797 167.684l-5.29-11.5M55.797 167.684l-8.067 9.75M50.508 156.184l5.695-11.3M56.203 144.883l12.387-2.598" stroke-width="1.2" stroke="#000" stroke-miterlimit="10" fill="none"/><path d="M56.203 144.883l-12.71-1.895.12 4.47zm0 0"/><path d="M49.906 133.902l6.297 10.98" stroke-width="1.2" stroke="#000" stroke-miterlimit="10" fill="none"/><path d="M68.59 142.285l3.578-12.344-4.438-.475zm0 0"/><path d="M69.95 129.703l-11.548-5.18M67.574 131.902l-9.234-4.144M58.402 124.523l-8.496 9.38M58.402 124.523l-2.593-12.386M50.066 132.422l-6.29-.68" stroke-width="1.2" stroke="#000" stroke-miterlimit="10" fill="none"/><path d="M43.777 131.742l-6.293-.68" stroke-width="1.2" stroke="#f00" stroke-miterlimit="10" fill="none"/><path d="M49.746 135.383l-6.29-.68" stroke-width="1.2" stroke="#000" stroke-miterlimit="10" fill="none"/><path d="M43.457 134.703l-6.293-.68" stroke-width="1.2" stroke="#f00" stroke-miterlimit="10" fill="none"/><path d="M29.324 127.043h8v11h-8zm0 0" fill="#fff"/><use xlink:href="#a" x="29.324" y="135.706" fill="#f00"/><path d="M28.55 139.723h15v11h-15zm0 0" fill="#fff"/><g fill="#f00"><use xlink:href="#b" x="28.551" y="148.386"/><use xlink:href="#a" x="35.565" y="148.386"/></g><path d="M47.73 177.434l-6.242-1.055" stroke-width="1.2" stroke="#000" stroke-miterlimit="10" fill="none"/><path d="M41.488 176.38l-6.238-1.056" stroke-width="1.2" stroke="#f00" stroke-miterlimit="10" fill="none"/><path d="M20.25 169.824h15v11h-15zm0 0" fill="#fff"/><g fill="#f00"><use xlink:href="#b" x="20.25" y="178.487"/><use xlink:href="#a" x="27.265" y="178.487"/></g><path d="M88.96 169.527l11.07-6.13" stroke-width="1.2" stroke="#000" stroke-miterlimit="10" fill="none"/><path d="M88.96 169.527m2.263 1.973l.54-.895m1.725 2.864l1.075-1.79m1.187 3.757l1.613-2.68m.65 4.65l2.15-3.575m-1.507 4.133l2.3-3.828" stroke="#000" stroke-miterlimit="10" fill="none"/><path d="M100.03 163.398l-.225 12.653" stroke-width="1.2" stroke="#000" stroke-miterlimit="10" fill="none"/><path d="M100.03 163.398l12.618 2.457.08-4.464zm0 0"/><path d="M99.805 176.05l12.425 2.423M99.805 176.05l-4.54 11.813" stroke-width="1.2" stroke="#000" stroke-miterlimit="10" fill="none"/><path d="M112.688 163.625l3.066 5.535" stroke-width="1.2" stroke="#f00" stroke-miterlimit="10" fill="none"/><path d="M115.754 169.16l3.062 5.535" stroke-width="1.2" stroke="#000" stroke-miterlimit="10" fill="none"/><path d="M108.688 158.125h8v11h-8zm0 0" fill="#fff"/><use xlink:href="#a" x="108.688" y="166.788" fill="#f00"/><path d="M117.543 173.93l-3.262 5.422" stroke-width="1.2" stroke="#000" stroke-miterlimit="10" fill="none"/><path d="M114.28 179.352l-3.26 5.42" stroke-width="1.2" stroke="#f00" stroke-miterlimit="10" fill="none"/><path d="M120.094 175.465l-3.262 5.422" stroke-width="1.2" stroke="#000" stroke-miterlimit="10" fill="none"/><path d="M116.832 180.887l-3.262 5.422" stroke-width="1.2" stroke="#f00" stroke-miterlimit="10" fill="none"/><path d="M118.816 174.695l12.657.227" stroke-width="1.2" stroke="#000" stroke-miterlimit="10" fill="none"/><path d="M104.293 180.043h8v11h-8zm0 0" fill="#fff"/><use xlink:href="#a" x="104.293" y="188.706" fill="#f00"/><path d="M72.512 132.25h15v11h-15zm0 0" fill="#fff"/><g fill="#f00"><use xlink:href="#a" x="72.512" y="140.913"/><use xlink:href="#b" x="79.854" y="140.913"/></g></g></svg>