<svg xmlns="http://www.w3.org/2000/svg" xmlns:xlink="http://www.w3.org/1999/xlink" width="300pt" height="300pt" viewBox="0 0 300 300"><defs><symbol overflow="visible"><path d="M.453 1.594v-7.938h4.5v7.938zm.5-.5h3.5v-6.938h-3.5zm0 0"/></symbol><symbol overflow="visible" id="a"><path d="M3.547-5.953c-.65 0-1.164.242-1.547.72-.375.48-.563 1.13-.563 1.952 0 .835.188 1.49.563 1.967.383.48.898.72 1.547.72.644 0 1.156-.24 1.53-.72.376-.476.564-1.132.564-1.968 0-.822-.187-1.474-.562-1.954-.375-.477-.887-.72-1.53-.72zm0-.734c.914 0 1.648.312 2.203.937.55.617.828 1.438.828 2.47 0 1.042-.277 1.87-.828 2.483-.555.617-1.29.922-2.203.922-.93 0-1.668-.305-2.22-.922C.774-1.41.5-2.237.5-3.28c0-1.033.273-1.853.828-2.47.55-.625 1.29-.938 2.22-.938zm0 0"/></symbol><symbol overflow="visible" id="b"><path d="M.89-6.563H2.08l2.906 5.485v-5.484h.86V0H4.656L1.75-5.484V0H.89zm0 0"/></symbol><symbol overflow="visible" id="c"><path d="M.89-6.563h.876v2.688H5v-2.688h.89V0H5v-3.125H1.766V0H.89zm0 0"/></symbol></defs><g><path fill="#fff" d="M0 0h300v300H0z"/><path d="M35.25 157.152l18.574-4.187M53.824 152.965l12.914 13.988M58.406 151.324l10.332 11.192M59.48 134.785l-5.656 18.18M66.738 166.953l18.575-4.187M66.738 166.953l-2.828 9.09" stroke-width="1.2" stroke="#000" stroke-miterlimit="10" fill="none"/><path d="M63.91 176.043l-2.832 9.09" stroke-width="1.2" stroke="#f00" stroke-miterlimit="10" fill="none"/><path d="M85.313 162.766l5.656-18.18M81.602 159.617l4.523-14.547M85.313 162.766l12.914 13.988M90.97 144.586l18.573-4.19M78.055 130.594l12.914 13.992M109.543 140.395l5.66-18.18M115.203 122.215l-12.918-13.988M102.285 108.227L93 110.32" stroke-width="1.2" stroke="#000" stroke-miterlimit="10" fill="none"/><path d="M93 110.32l-9.285 2.094" stroke-width="1.2" stroke="#f00" stroke-miterlimit="10" fill="none"/><path d="M102.285 108.227l-4.25-18.864-6.2 2.598zm0 0"/><path d="M102.285 108.227l16.024-10.29" stroke-width="1.2" stroke="#000" stroke-miterlimit="10" fill="none"/><path d="M83.715 112.414l-2.832 9.09" stroke-width="1.2" stroke="#f00" stroke-miterlimit="10" fill="none"/><path d="M80.883 121.504l-2.828 9.09" stroke-width="1.2" stroke="#000" stroke-miterlimit="10" fill="none"/><path d="M79.715 106.914h8v11h-8zm0 0" fill="#fff"/><use xlink:href="#a" x="79.715" y="115.577" fill="#f00"/><path d="M78.055 130.594l-18.575 4.19M77.184 135.383l-14.86 3.35M59.48 134.785l-12.914-13.992M118.31 97.938l8.46 4.363" stroke-width="1.2" stroke="#000" stroke-miterlimit="10" fill="none"/><path d="M126.77 102.3l8.457 4.364M135.227 106.664l.453 9.512" stroke-width="1.2" stroke="#00f" stroke-miterlimit="10" fill="none"/><path d="M135.68 116.176l.45 9.508M151.25 96.375l-8.012 5.145" stroke-width="1.2" stroke="#000" stroke-miterlimit="10" fill="none"/><path d="M143.238 101.52l-8.01 5.144" stroke-width="1.2" stroke="#00f" stroke-miterlimit="10" fill="none"/><path d="M132.227 101.164h7v11h-7zm0 0" fill="#fff"/><use xlink:href="#b" x="132.227" y="109.827" fill="#00f"/><path d="M136.13 125.684l16.92 8.73M153.05 134.414l8.01-5.144" stroke-width="1.2" stroke="#000" stroke-miterlimit="10" fill="none"/><path d="M161.06 129.27l8.01-5.145M169.07 124.125l-.45-9.508" stroke-width="1.2" stroke="#00f" stroke-miterlimit="10" fill="none"/><path d="M168.62 114.617l-.452-9.512" stroke-width="1.2" stroke="#000" stroke-miterlimit="10" fill="none"/><path d="M169.07 124.125l8.46 4.363" stroke-width="1.2" stroke="#00f" stroke-miterlimit="10" fill="none"/><path d="M177.53 128.488l8.462 4.367" stroke-width="1.2" stroke="#000" stroke-miterlimit="10" fill="none"/><path d="M166.07 118.625h7v11h-7zm0 0" fill="#fff"/><use xlink:href="#b" x="166.07" y="127.288" fill="#00f"/><path d="M168.168 105.105l-16.918-8.73M185.992 132.855l.45 9.508" stroke-width="1.2" stroke="#000" stroke-miterlimit="10" fill="none"/><path d="M186.44 142.363l.45 9.508" stroke-width="1.2" stroke="#00f" stroke-miterlimit="10" fill="none"/><path d="M190.555 134.543l.363 7.61" stroke-width="1.2" stroke="#000" stroke-miterlimit="10" fill="none"/><path d="M190.918 142.152l.36 7.606" stroke-width="1.2" stroke="#00f" stroke-miterlimit="10" fill="none"/><path d="M202.012 122.566l-16.02 10.29" stroke-width="1.2" stroke="#000" stroke-miterlimit="10" fill="none"/><path d="M186.89 151.87l8.462 4.368" stroke-width="1.2" stroke="#00f" stroke-miterlimit="10" fill="none"/><path d="M195.352 156.238l8.46 4.364" stroke-width="1.2" stroke="#000" stroke-miterlimit="10" fill="none"/><path d="M183.89 146.37h7v11h-7zm0 0" fill="#fff"/><use xlink:href="#b" x="183.891" y="155.034" fill="#00f"/><path d="M203.813 160.602l8.01-5.145" stroke-width="1.2" stroke="#000" stroke-miterlimit="10" fill="none"/><path d="M211.824 155.457l8.008-5.144" stroke-width="1.2" stroke="#00f" stroke-miterlimit="10" fill="none"/><path d="M202.992 155.805l6.41-4.118" stroke-width="1.2" stroke="#000" stroke-miterlimit="10" fill="none"/><path d="M209.402 151.688l6.407-4.118" stroke-width="1.2" stroke="#00f" stroke-miterlimit="10" fill="none"/><path d="M203.813 160.602l.45 9.507" stroke-width="1.2" stroke="#000" stroke-miterlimit="10" fill="none"/><path d="M204.262 170.11l.453 9.51M219.832 150.313l-.45-9.508" stroke-width="1.2" stroke="#00f" stroke-miterlimit="10" fill="none"/><path d="M219.383 140.805l-.45-9.512" stroke-width="1.2" stroke="#000" stroke-miterlimit="10" fill="none"/><path d="M216.832 144.813h7v11h-7zm0 0" fill="#fff"/><use xlink:href="#b" x="216.832" y="153.476" fill="#00f"/><path d="M218.934 131.293l-16.922-8.727M215.188 134.402l-13.54-6.984M218.934 131.293l8.007-5.145" stroke-width="1.2" stroke="#000" stroke-miterlimit="10" fill="none"/><path d="M226.94 126.148l8.013-5.144M234.953 121.004l.547-9.504" stroke-width="1.2" stroke="#00f" stroke-miterlimit="10" fill="none"/><path d="M235.5 111.5l.543-9.504M252.695 127.918l-8.87-3.457" stroke-width="1.2" stroke="#000" stroke-miterlimit="10" fill="none"/><path d="M243.824 124.46l-8.87-3.456" stroke-width="1.2" stroke="#00f" stroke-miterlimit="10" fill="none"/><path d="M231.953 115.504h7v11h-7zm0 0" fill="#fff"/><use xlink:href="#b" x="231.953" y="124.167" fill="#00f"/><path d="M236.043 101.996l18.418-4.836M254.46 97.16l10.29 16.02M264.75 113.18l-12.055 14.738" stroke-width="1.2" stroke="#000" stroke-miterlimit="10" fill="none"/><path d="M204.715 179.62l7.957 5.228" stroke-width="1.2" stroke="#00f" stroke-miterlimit="10" fill="none"/><path d="M212.672 184.848l7.957 5.222M189.855 191.527l7.43-5.953" stroke-width="1.2" stroke="#000" stroke-miterlimit="10" fill="none"/><path d="M197.285 185.574l7.43-5.953" stroke-width="1.2" stroke="#00f" stroke-miterlimit="10" fill="none"/><path d="M201.715 174.12h7v11h-7zm0 0" fill="#fff"/><use xlink:href="#b" x="201.715" y="182.784" fill="#00f"/><path d="M220.63 190.07l-5.02 18.368M215.61 208.438l-19.02.898M196.59 209.336l-6.735-17.81" stroke-width="1.2" stroke="#000" stroke-miterlimit="10" fill="none"/><path d="M46.078 179.633h15v11h-15zm0 0" fill="#fff"/><g fill="#f00"><use xlink:href="#c" x="46.078" y="188.296"/><use xlink:href="#a" x="53.093" y="188.296"/></g></g></svg>