<svg xmlns="http://www.w3.org/2000/svg" xmlns:xlink="http://www.w3.org/1999/xlink" width="300pt" height="300pt" viewBox="0 0 300 300"><defs><symbol overflow="visible"><path d="M.453 1.594v-7.938h4.5v7.938zm.5-.5h3.5v-6.938h-3.5zm0 0"/></symbol><symbol overflow="visible" id="a"><path d="M3.547-5.953c-.65 0-1.164.242-1.547.72-.375.48-.563 1.13-.563 1.952 0 .835.188 1.49.563 1.967.383.48.898.72 1.547.72.644 0 1.156-.24 1.53-.72.376-.476.564-1.132.564-1.968 0-.822-.187-1.474-.562-1.954-.375-.477-.887-.72-1.53-.72zm0-.734c.914 0 1.648.312 2.203.937.55.617.828 1.438.828 2.47 0 1.042-.277 1.87-.828 2.483-.555.617-1.29.922-2.203.922-.93 0-1.668-.305-2.22-.922C.774-1.41.5-2.237.5-3.28c0-1.033.273-1.853.828-2.47.55-.625 1.29-.938 2.22-.938zm0 0"/></symbol><symbol overflow="visible" id="b"><path d="M.89-6.563H2.08l2.906 5.485v-5.484h.86V0H4.656L1.75-5.484V0H.89zm0 0"/></symbol><symbol overflow="visible" id="c"><path d="M.89-6.563h.876v2.688H5v-2.688h.89V0H5v-3.125H1.766V0H.89zm0 0"/></symbol><symbol overflow="visible" id="e"><path d="M4.813-6.344v.86c-.336-.157-.653-.27-.954-.344-.294-.082-.58-.125-.86-.125-.492 0-.867.094-1.125.28-.262.19-.39.454-.39.798 0 .293.085.512.265.656.176.15.504.267.984.36l.547.11c.658.125 1.142.352 1.454.672.32.312.485.734.485 1.265 0 .637-.216 1.122-.642 1.454-.43.325-1.055.485-1.875.485-.312 0-.648-.04-1-.11C1.36-.046 1-.147.625-.296v-.906c.352.2.703.35 1.047.453.35.105.695.156 1.03.156.5 0 .884-.097 1.157-.297.28-.196.42-.485.42-.86 0-.32-.1-.57-.296-.75-.2-.176-.523-.313-.968-.406l-.547-.11C1.81-3.148 1.33-3.36 1.03-3.64.74-3.923.595-4.313.595-4.813c0-.57.203-1.024.61-1.36.405-.344.968-.516 1.687-.516.313 0 .626.032.938.094.32.055.65.137.985.25zm0 0"/></symbol><symbol overflow="visible"><path d="M.406 1.422V-5.64h4V1.42zM.844.97h3.11v-6.157H.843zm0 0"/></symbol><symbol overflow="visible" id="d"><path d="M1.53-.672h2.767V0H.594v-.672c.29-.3.695-.71 1.22-1.234.518-.532.842-.867.967-1.016.26-.28.44-.52.533-.72.1-.194.156-.39.156-.577 0-.31-.11-.565-.33-.764-.218-.196-.5-.297-.843-.297-.25 0-.516.046-.797.14-.273.085-.563.214-.875.39v-.797c.32-.133.617-.234.89-.297.282-.062.536-.093.766-.093.603 0 1.083.152 1.44.453.362.304.546.703.546 1.203 0 .24-.047.468-.14.686-.095.22-.26.477-.485.766-.074.074-.288.293-.64.656-.344.356-.836.856-1.47 1.5zm0 0"/></symbol></defs><g><path fill="#fff" d="M0 0h300v300H0z"/><path d="M35.25 171.793l6.605 5.62" stroke-width="1.2" stroke="#000" stroke-miterlimit="10" fill="none"/><path d="M41.855 177.414l6.606 5.625M48.46 183.04l8.173-2.91" stroke-width="1.2" stroke="#f00" stroke-miterlimit="10" fill="none"/><path d="M56.633 180.13l8.172-2.91" stroke-width="1.2" stroke="#000" stroke-miterlimit="10" fill="none"/><path d="M44.46 177.54h8v11h-8zm0 0" fill="#fff"/><use xlink:href="#a" x="44.461" y="186.202" fill="#f00"/><path d="M64.805 177.22l3.132-17.064M69.133 176.25l2.508-13.652M78.02 188.465L64.805 177.22M67.938 160.156l16.343-5.82M67.938 160.156l-6.606-5.625" stroke-width="1.2" stroke="#000" stroke-miterlimit="10" fill="none"/><path d="M61.332 154.53l-6.605-5.62" stroke-width="1.2" stroke="#f00" stroke-miterlimit="10" fill="none"/><path d="M84.28 154.336l13.212 11.242M82.957 158.566l10.57 8.996M97.492 165.578l-3.13 17.067" stroke-width="1.2" stroke="#000" stroke-miterlimit="10" fill="none"/><path d="M113.84 159.762l-8.172 2.91" stroke-width="1.2" stroke="#00f" stroke-miterlimit="10" fill="none"/><path d="M105.668 162.672l-8.176 2.906M94.363 182.645l-16.343 5.82M91.36 179.38l-13.08 4.655M94.363 182.645l13.21 11.242M107.574 193.887l8.172-2.907" stroke-width="1.2" stroke="#000" stroke-miterlimit="10" fill="none"/><path d="M115.746 190.98l8.172-2.91" stroke-width="1.2" stroke="#00f" stroke-miterlimit="10" fill="none"/><path d="M107.84 189.46l6.535-2.327" stroke-width="1.2" stroke="#000" stroke-miterlimit="10" fill="none"/><path d="M114.375 187.133l6.54-2.328" stroke-width="1.2" stroke="#00f" stroke-miterlimit="10" fill="none"/><path d="M107.574 193.887l-1.566 8.535" stroke-width="1.2" stroke="#000" stroke-miterlimit="10" fill="none"/><path d="M106.008 202.422l-1.567 8.53M123.918 188.07l1.566-8.535" stroke-width="1.2" stroke="#00f" stroke-miterlimit="10" fill="none"/><path d="M125.484 179.535l1.567-8.53" stroke-width="1.2" stroke="#000" stroke-miterlimit="10" fill="none"/><path d="M120.918 182.57h7v11h-7zm0 0" fill="#fff"/><use xlink:href="#b" x="120.918" y="191.233" fill="#00f"/><path d="M127.05 171.004l-6.605-5.62" stroke-width="1.2" stroke="#000" stroke-miterlimit="10" fill="none"/><path d="M120.445 165.383l-6.605-5.62" stroke-width="1.2" stroke="#00f" stroke-miterlimit="10" fill="none"/><path d="M123.082 172.988l-5.285-4.496" stroke-width="1.2" stroke="#000" stroke-miterlimit="10" fill="none"/><path d="M117.797 168.492l-5.285-4.5" stroke-width="1.2" stroke="#00f" stroke-miterlimit="10" fill="none"/><path d="M127.05 171.004l8.173-2.91" stroke-width="1.2" stroke="#000" stroke-miterlimit="10" fill="none"/><path d="M135.223 168.094l8.172-2.906" stroke-width="1.2" stroke="#00f" stroke-miterlimit="10" fill="none"/><path d="M110.84 154.262h7v11h-7zm0 0" fill="#fff"/><use xlink:href="#b" x="110.84" y="162.925" fill="#00f"/><path d="M143.395 165.188l6.605 5.62" stroke-width="1.2" stroke="#00f" stroke-miterlimit="10" fill="none"/><path d="M150 170.81l6.605 5.62M146.527 148.12l-1.566 8.532" stroke-width="1.2" stroke="#000" stroke-miterlimit="10" fill="none"/><path d="M144.96 156.652l-1.565 8.536" stroke-width="1.2" stroke="#00f" stroke-miterlimit="10" fill="none"/><path d="M140.395 159.688h7v11h-7zm0 0" fill="#fff"/><use xlink:href="#b" x="140.395" y="168.351" fill="#00f"/><path d="M156.605 176.43l16.344-5.82M172.95 170.61l1.566-8.532" stroke-width="1.2" stroke="#000" stroke-miterlimit="10" fill="none"/><path d="M174.516 162.078l1.566-8.53M176.082 153.547l-6.605-5.62" stroke-width="1.2" stroke="#00f" stroke-miterlimit="10" fill="none"/><path d="M169.477 147.926l-6.606-5.625" stroke-width="1.2" stroke="#000" stroke-miterlimit="10" fill="none"/><path d="M176.082 153.547l8.172-2.91" stroke-width="1.2" stroke="#00f" stroke-miterlimit="10" fill="none"/><path d="M184.254 150.637l8.172-2.91" stroke-width="1.2" stroke="#000" stroke-miterlimit="10" fill="none"/><path d="M173.082 148.047h7v11h-7zm0 0" fill="#fff"/><use xlink:href="#b" x="173.082" y="156.71" fill="#00f"/><path d="M162.87 142.3l-16.343 5.82M194.434 148.098l1.566-8.536" stroke-width="1.2" stroke="#000" stroke-miterlimit="10" fill="none"/><path d="M196 139.563l1.566-8.532" stroke-width="1.2" stroke="#f00" stroke-miterlimit="10" fill="none"/><path d="M190.418 147.36l1.566-8.532" stroke-width="1.2" stroke="#000" stroke-miterlimit="10" fill="none"/><path d="M191.984 138.828l1.567-8.535" stroke-width="1.2" stroke="#f00" stroke-miterlimit="10" fill="none"/><path d="M205.637 158.973m-1.91-2.313l-.676.793m-1.238-3.105l-1.35 1.59m-.56-3.903l-2.027 2.383m.117-4.695l-2.703 3.18m.788-5.49l-3.38 3.97m1.712-5.988l-3.97 4.664" stroke="#000" stroke-miterlimit="10" fill="none"/><path d="M191.56 125.164h8v11h-8zm0 0" fill="#fff"/><use xlink:href="#a" x="191.559" y="133.827" fill="#f00"/><path d="M205.637 158.973l-3.13 17.062" stroke-width="1.2" stroke="#000" stroke-miterlimit="10" fill="none"/><path d="M221.98 153.152l-8.17 2.91" stroke-width="1.2" stroke="#f00" stroke-miterlimit="10" fill="none"/><path d="M213.81 156.063l-8.173 2.91M202.508 176.035l6.605 5.625" stroke-width="1.2" stroke="#000" stroke-miterlimit="10" fill="none"/><path d="M209.113 181.66l6.606 5.62M215.72 187.28l8.17-2.91" stroke-width="1.2" stroke="#f00" stroke-miterlimit="10" fill="none"/><path d="M223.89 184.37l8.173-2.91" stroke-width="1.2" stroke="#000" stroke-miterlimit="10" fill="none"/><path d="M211.72 181.78h8v11h-8zm0 0" fill="#fff"/><use xlink:href="#a" x="211.719" y="190.444" fill="#f00"/><path d="M232.063 181.46l13.21 11.247M236.027 179.477l10.57 8.996M235.195 164.398l-3.132 17.063M245.273 192.707l16.344-5.82M261.617 186.887l3.133-17.063M257.914 184.44l2.508-13.647M264.75 169.824l-13.21-11.246M251.54 158.578l-16.345 5.82M251.273 163.004L238.2 167.66M235.195 164.398l-6.605-5.625" stroke-width="1.2" stroke="#000" stroke-miterlimit="10" fill="none"/><path d="M228.59 158.773l-6.61-5.62" stroke-width="1.2" stroke="#f00" stroke-miterlimit="10" fill="none"/><path d="M217.98 147.652h8v11h-8zm0 0" fill="#fff"/><use xlink:href="#a" x="217.98" y="156.315" fill="#f00"/><path d="M95.44 202.953h19v16h-19zm0 0" fill="#fff"/><use xlink:href="#c" x="95.441" y="211.616" fill="#00f"/><use xlink:href="#d" x="102.456" y="216.499" fill="#00f"/><use xlink:href="#b" x="107.406" y="211.616" fill="#00f"/><path d="M54.727 148.91l1.566-8.53" stroke-width="1.2" stroke="#f00" stroke-miterlimit="10" fill="none"/><path d="M56.293 140.38l1.566-8.532" stroke-width="1.2" stroke="#000" stroke-miterlimit="10" fill="none"/><path d="M50.727 143.41h8v11h-8zm0 0" fill="#fff"/><use xlink:href="#a" x="50.727" y="152.073" fill="#f00"/><path d="M134.754 112.746l7.512-4.336" stroke-width="1.2" stroke="#000" stroke-miterlimit="10" fill="none"/><path d="M142.266 108.41l7.51-4.34M148.012 105.094l4.336 7.51" stroke-width="1.2" stroke="#cc0" stroke-miterlimit="10" fill="none"/><path d="M152.348 112.605l4.34 7.512" stroke-width="1.2" stroke="#f00" stroke-miterlimit="10" fill="none"/><path d="M151.547 103.05l4.336 7.513" stroke-width="1.2" stroke="#cc0" stroke-miterlimit="10" fill="none"/><path d="M155.883 110.563l4.34 7.515" stroke-width="1.2" stroke="#f00" stroke-miterlimit="10" fill="none"/><path d="M151.547 103.05l-4.336-7.51" stroke-width="1.2" stroke="#cc0" stroke-miterlimit="10" fill="none"/><path d="M147.21 95.54l-4.34-7.513" stroke-width="1.2" stroke="#f00" stroke-miterlimit="10" fill="none"/><path d="M148.012 105.094l-4.336-7.512" stroke-width="1.2" stroke="#cc0" stroke-miterlimit="10" fill="none"/><path d="M143.676 97.582l-4.34-7.516" stroke-width="1.2" stroke="#f00" stroke-miterlimit="10" fill="none"/><path d="M149.777 104.07l7.516-4.336" stroke-width="1.2" stroke="#cc0" stroke-miterlimit="10" fill="none"/><path d="M157.293 99.734l7.512-4.336" stroke-width="1.2" stroke="#f00" stroke-miterlimit="10" fill="none"/><path d="M146.777 98.57h6v11h-6zm0 0" fill="#fff"/><use xlink:href="#e" x="146.777" y="107.233" fill="#cc0"/><path d="M154.453 113.598h8v11h-8zm0 0" fill="#fff"/><use xlink:href="#a" x="154.453" y="122.261" fill="#f00"/><path d="M133.105 83.547h8v11h-8zm0 0" fill="#fff"/><use xlink:href="#a" x="133.105" y="92.21" fill="#f00"/><path d="M157.805 89.898h15v11h-15zm0 0" fill="#fff"/><g fill="#f00"><use xlink:href="#a" x="157.805" y="98.562"/><use xlink:href="#c" x="165.146" y="98.562"/></g></g></svg>