<svg xmlns="http://www.w3.org/2000/svg" xmlns:xlink="http://www.w3.org/1999/xlink" width="300pt" height="300pt" viewBox="0 0 300 300"><defs><symbol overflow="visible"><path d="M.453 1.594v-7.938h4.5v7.938zm.5-.5h3.5v-6.938h-3.5zm0 0"/></symbol><symbol overflow="visible" id="a"><path d="M.89-6.563H2.08l2.906 5.485v-5.484h.86V0H4.656L1.75-5.484V0H.89zm0 0"/></symbol><symbol overflow="visible" id="b"><path d="M.89-6.563h.876v2.688H5v-2.688h.89V0H5v-3.125H1.766V0H.89zm0 0"/></symbol><symbol overflow="visible" id="c"><path d="M3.547-5.953c-.65 0-1.164.242-1.547.72-.375.48-.563 1.13-.563 1.952 0 .835.188 1.49.563 1.967.383.48.898.72 1.547.72.644 0 1.156-.24 1.53-.72.376-.476.564-1.132.564-1.968 0-.822-.187-1.474-.562-1.954-.375-.477-.887-.72-1.53-.72zm0-.734c.914 0 1.648.312 2.203.937.55.617.828 1.438.828 2.47 0 1.042-.277 1.87-.828 2.483-.555.617-1.29.922-2.203.922-.93 0-1.668-.305-2.22-.922C.774-1.41.5-2.237.5-3.28c0-1.033.273-1.853.828-2.47.55-.625 1.29-.938 2.22-.938zm0 0"/></symbol></defs><g><path fill="#fff" d="M0 0h300v300H0z"/><path d="M184.102 106.54l9.054 16.792M193.156 123.332l-8.26 17.19M196.375 126.996l-6.61 13.754M212.063 125.875l-18.907-2.543M184.895 140.523l6.898 6.586" stroke-width="1.2" stroke="#000" stroke-miterlimit="10" fill="none"/><path d="M191.793 147.11l6.898 6.585" stroke-width="1.2" stroke="#00f" stroke-miterlimit="10" fill="none"/><path d="M184.895 140.523l-18.77 3.422" stroke-width="1.2" stroke="#000" stroke-miterlimit="10" fill="none"/><path d="M198.69 153.695l16.794-9.05M198.69 153.695l-1.268 9.453" stroke-width="1.2" stroke="#00f" stroke-miterlimit="10" fill="none"/><path d="M197.422 163.148l-1.274 9.454" stroke-width="1.2" stroke="#000" stroke-miterlimit="10" fill="none"/><path d="M195.69 148.195h7v11h-7zm0 0" fill="#fff"/><use xlink:href="#a" x="195.691" y="156.858" fill="#00f"/><path d="M215.484 144.645l-1.71-9.387" stroke-width="1.2" stroke="#00f" stroke-miterlimit="10" fill="none"/><path d="M213.773 135.258l-1.71-9.383" stroke-width="1.2" stroke="#000" stroke-miterlimit="10" fill="none"/><path d="M208.484 139.145h14v11h-14zm0 0" fill="#fff"/><g fill="#00f"><use xlink:href="#a" x="208.484" y="147.808"/><use xlink:href="#b" x="215.462" y="147.808"/></g><path d="M212.063 125.875l13.17-13.797M216.625 127.594l10.54-11.04M225.234 112.078l18.536 4.508M219.87 93.77l5.364 18.308M243.77 116.586l13.17-13.8M241.84 112.105l10.54-11.04M256.94 102.785l-5.362-18.308M253.203 86.027l6.586-6.898" stroke-width="1.2" stroke="#000" stroke-miterlimit="10" fill="none"/><path d="M259.79 79.13l6.585-6.9" stroke-width="1.2" stroke="#f00" stroke-miterlimit="10" fill="none"/><path d="M249.953 82.93l6.586-6.903" stroke-width="1.2" stroke="#000" stroke-miterlimit="10" fill="none"/><path d="M256.54 76.027l6.585-6.898" stroke-width="1.2" stroke="#f00" stroke-miterlimit="10" fill="none"/><path d="M251.578 84.477l-18.535-4.504" stroke-width="1.2" stroke="#000" stroke-miterlimit="10" fill="none"/><path d="M260.75 65.18h8v11h-8zm0 0" fill="#fff"/><use xlink:href="#c" x="260.75" y="73.843" fill="#f00"/><path d="M233.043 79.973L219.87 93.77M234.973 84.45l-10.54 11.038M196.148 172.602l-17.648 7.25M196.09 177.48l-14.117 5.797M211.246 184.262l-15.098-11.66M178.5 179.852l-2.543 18.906M175.957 198.758l15.102 11.656M180.21 196.37l12.08 9.325M191.06 210.414l17.643-7.246M191.06 210.414l-1.275 9.453" stroke-width="1.2" stroke="#000" stroke-miterlimit="10" fill="none"/><path d="M189.785 219.867l-1.273 9.453" stroke-width="1.2" stroke="#f00" stroke-miterlimit="10" fill="none"/><path d="M208.703 203.168l2.543-18.906M204.508 200.676l2.04-15.125" stroke-width="1.2" stroke="#000" stroke-miterlimit="10" fill="none"/><path d="M181.512 223.82h15v11h-15zm0 0" fill="#fff"/><g fill="#f00"><use xlink:href="#b" x="181.512" y="232.483"/><use xlink:href="#c" x="188.526" y="232.483"/></g><path d="M166.125 143.945l-12.344-14.54M161.47 145.398l-9.876-11.632M159.707 161.91l6.418-17.965M153.78 129.406l-18.768 3.418M135.012 132.824l-6.418 17.965M138.598 136.133l-5.137 14.37M128.594 150.79l12.344 14.542M128.594 150.79l-9.387 1.71" stroke-width="1.2" stroke="#000" stroke-miterlimit="10" fill="none"/><path d="M119.207 152.5l-9.383 1.71" stroke-width="1.2" stroke="#f00" stroke-miterlimit="10" fill="none"/><path d="M140.938 165.332l18.77-3.422M142.012 160.574l15.01-2.738" stroke-width="1.2" stroke="#000" stroke-miterlimit="10" fill="none"/><path d="M109.824 154.21l-6.172-7.27" stroke-width="1.2" stroke="#f00" stroke-miterlimit="10" fill="none"/><path d="M103.652 146.94l-6.175-7.272" stroke-width="1.2" stroke="#000" stroke-miterlimit="10" fill="none"/><path d="M105.824 148.71h8v11h-8zm0 0" fill="#fff"/><use xlink:href="#c" x="105.824" y="157.374" fill="#f00"/><path d="M97.477 139.668L78.71 143.09M78.71 143.09l-6.17-7.27" stroke-width="1.2" stroke="#000" stroke-miterlimit="10" fill="none"/><path d="M72.54 135.82l-6.177-7.273M66.363 128.547l3.21-8.98" stroke-width="1.2" stroke="#00f" stroke-miterlimit="10" fill="none"/><path d="M69.574 119.566l3.21-8.98M47.598 131.97l9.382-1.712" stroke-width="1.2" stroke="#000" stroke-miterlimit="10" fill="none"/><path d="M56.98 130.258l9.383-1.71" stroke-width="1.2" stroke="#00f" stroke-miterlimit="10" fill="none"/><path d="M63.363 123.047h7v11h-7zm0 0" fill="#fff"/><use xlink:href="#a" x="63.363" y="131.71" fill="#00f"/><path d="M72.785 110.586L60.438 96.043M60.438 96.043l-18.766 3.422M41.672 99.465L35.25 117.43M35.25 117.43l12.348 14.54" stroke-width="1.2" stroke="#000" stroke-miterlimit="10" fill="none"/></g></svg>