<svg xmlns="http://www.w3.org/2000/svg" xmlns:xlink="http://www.w3.org/1999/xlink" width="300pt" height="300pt" viewBox="0 0 300 300"><defs><symbol overflow="visible"><path d="M.453 1.594v-7.938h4.5v7.938zm.5-.5h3.5v-6.938h-3.5zm0 0"/></symbol><symbol overflow="visible" id="a"><path d="M.89-6.563h3.766v.75h-2.89v1.938h2.61v.734h-2.61V0H.89zm0 0"/></symbol><symbol overflow="visible" id="b"><path d="M.89-6.563H2.08l2.906 5.485v-5.484h.86V0H4.656L1.75-5.484V0H.89zm0 0"/></symbol><symbol overflow="visible" id="c"><path d="M.89-6.563h.876v2.688H5v-2.688h.89V0H5v-3.125H1.766V0H.89zm0 0"/></symbol><symbol overflow="visible" id="d"><path d="M3.547-5.953c-.65 0-1.164.242-1.547.72-.375.48-.563 1.13-.563 1.952 0 .835.188 1.49.563 1.967.383.48.898.72 1.547.72.644 0 1.156-.24 1.53-.72.376-.476.564-1.132.564-1.968 0-.822-.187-1.474-.562-1.954-.375-.477-.887-.72-1.53-.72zm0-.734c.914 0 1.648.312 2.203.937.55.617.828 1.438.828 2.47 0 1.042-.277 1.87-.828 2.483-.555.617-1.29.922-2.203.922-.93 0-1.668-.305-2.22-.922C.774-1.41.5-2.237.5-3.28c0-1.033.273-1.853.828-2.47.55-.625 1.29-.938 2.22-.938zm0 0"/></symbol></defs><g><path fill="#fff" d="M0 0h300v300H0z"/><path d="M170.164 172.758m-1.63 2.52l.962.406m-2.59 2.113l1.918.812m-3.55 1.706l2.882 1.215m-4.51 1.306l3.842 1.62m-5.472.896l4.8 2.03m-6.43.49l5.762 2.433m-6.976-.56l6.48 2.735" stroke="#000" stroke-miterlimit="10" fill="none"/><path d="M170.164 172.758l19.77-2.465M170.164 172.758l-6.012-7.946" stroke-width="1.2" stroke="#000" stroke-miterlimit="10" fill="none"/><path d="M164.152 164.813l-6.007-7.942" stroke-width="1.2" stroke="#00f" stroke-miterlimit="10" fill="none"/><path d="M189.934 170.293l7.754-18.352M197.688 151.94l19.77-2.463M199.082 147.043l15.816-1.973M185.668 136.05l12.02 15.89M217.457 149.477l7.75-18.356M225.207 131.12l-12.02-15.89M220.266 132.36l-9.614-12.712M225.207 131.12l19.773-2.464M213.188 115.23l-19.77 2.465M193.418 117.695l-7.75 18.356M196.96 121.355l-6.198 14.684M244.98 128.656l9.883-1.23" stroke-width="1.2" stroke="#000" stroke-miterlimit="10" fill="none"/><path d="M254.863 127.426l9.887-1.235" stroke-width="1.2" stroke="#3cc" stroke-miterlimit="10" fill="none"/><path d="M244.98 128.656l1.23 9.887" stroke-width="1.2" stroke="#000" stroke-miterlimit="10" fill="none"/><path d="M246.21 138.543l1.235 9.887" stroke-width="1.2" stroke="#3cc" stroke-miterlimit="10" fill="none"/><path d="M244.98 128.656l-1.234-9.883" stroke-width="1.2" stroke="#000" stroke-miterlimit="10" fill="none"/><path d="M243.746 118.773l-1.23-9.886" stroke-width="1.2" stroke="#3cc" stroke-miterlimit="10" fill="none"/><path d="M261.75 120.69h6v11h-6zm0 0" fill="#fff"/><use xlink:href="#a" x="261.75" y="129.354" fill="#3cc"/><path d="M244.445 142.93h6v11h-6zm0 0" fill="#fff"/><use xlink:href="#a" x="244.445" y="151.593" fill="#3cc"/><path d="M239.516 103.387h6v11h-6zm0 0" fill="#fff"/><use xlink:href="#a" x="239.516" y="112.05" fill="#3cc"/><path d="M158.145 156.87l-9.887 1.232" stroke-width="1.2" stroke="#00f" stroke-miterlimit="10" fill="none"/><path d="M148.258 158.102l-9.883 1.23" stroke-width="1.2" stroke="#000" stroke-miterlimit="10" fill="none"/><path d="M151.145 151.37h14v11h-14zm0 0" fill="#fff"/><g fill="#00f"><use xlink:href="#b" x="151.145" y="160.034"/><use xlink:href="#c" x="158.122" y="160.034"/></g><path d="M138.375 159.332l-12.023-15.887M126.352 143.445l-9.883 1.23" stroke-width="1.2" stroke="#000" stroke-miterlimit="10" fill="none"/><path d="M116.47 144.676l-9.888 1.23M106.582 145.906l-6.008-7.94" stroke-width="1.2" stroke="#f00" stroke-miterlimit="10" fill="none"/><path d="M100.574 137.965l-6.01-7.945" stroke-width="1.2" stroke="#000" stroke-miterlimit="10" fill="none"/><path d="M102.582 140.406h8v11h-8zm0 0" fill="#fff"/><use xlink:href="#d" x="102.582" y="149.069" fill="#f00"/><path d="M96.723 130.93l3.875-9.176" stroke-width="1.2" stroke="#000" stroke-miterlimit="10" fill="none"/><path d="M100.598 121.754l3.875-9.18" stroke-width="1.2" stroke="#f00" stroke-miterlimit="10" fill="none"/><path d="M92.402 129.105l3.875-9.175" stroke-width="1.2" stroke="#000" stroke-miterlimit="10" fill="none"/><path d="M96.277 119.93l3.88-9.18" stroke-width="1.2" stroke="#f00" stroke-miterlimit="10" fill="none"/><path d="M94.563 130.02l-19.77 2.46" stroke-width="1.2" stroke="#000" stroke-miterlimit="10" fill="none"/><path d="M98.313 106.164h8v11h-8zm0 0" fill="#fff"/><use xlink:href="#d" x="98.313" y="114.827" fill="#f00"/><path d="M74.793 132.48l-12.02-15.886M69.852 133.723l-9.618-12.715M67.04 150.836l7.753-18.356M62.773 116.594L43 119.06M43 119.06l-7.75 18.35M46.543 122.715l-6.2 14.683M35.25 137.41l12.02 15.89M47.27 153.3l19.77-2.464M48.668 148.402l15.816-1.972" stroke-width="1.2" stroke="#000" stroke-miterlimit="10" fill="none"/></g></svg>