<svg xmlns="http://www.w3.org/2000/svg" xmlns:xlink="http://www.w3.org/1999/xlink" width="300pt" height="300pt" viewBox="0 0 300 300"><defs><symbol overflow="visible"><path d="M.547 1.938V-7.75h5.5v9.688zm.625-.61h4.266v-8.47H1.171zm0 0"/></symbol><symbol overflow="visible" id="a"><path d="M1.078-8.016h1.47l3.546 6.704v-6.704h1.062V0H5.688L2.124-6.703V0H1.078zm0 0"/></symbol><symbol overflow="visible" id="b"><path d="M4.328-7.28c-.78 0-1.406.296-1.875.89-.46.585-.687 1.382-.687 2.39 0 1.012.226 1.813.687 2.406.47.586 1.094.875 1.875.875.79 0 1.414-.288 1.875-.874.457-.593.688-1.394.688-2.406 0-1.008-.23-1.805-.687-2.39-.46-.594-1.086-.89-1.875-.89zm0-.892c1.125 0 2.024.383 2.703 1.14C7.708-6.28 8.048-5.27 8.048-4c0 1.262-.34 2.273-1.016 3.03C6.353-.22 5.454.157 4.33.157S2.3-.22 1.625-.97c-.668-.75-1-1.757-1-3.03 0-1.27.332-2.28 1-3.03.676-.76 1.578-1.142 2.703-1.142zm0 0"/></symbol><symbol overflow="visible" id="c"><path d="M1.078-8.016h1.094v3.282H6.11v-3.282h1.077V0H6.11v-3.813H2.17V0H1.078zm0 0"/></symbol><symbol overflow="visible"><path d="M.453 1.594v-7.938h4.5v7.938zm.5-.5h3.5v-6.938h-3.5zm0 0"/></symbol><symbol overflow="visible" id="d"><path d="M1.734-.75h3.094V0H.656v-.75c.344-.344.8-.805 1.375-1.39.583-.594.954-.973 1.11-1.14.282-.322.473-.595.58-.814.112-.226.17-.445.17-.656 0-.352-.12-.64-.36-.86-.24-.218-.557-.327-.952-.327-.28 0-.578.054-.89.156-.305.093-.633.24-.985.436v-.906c.352-.133.688-.238 1-.313.313-.082.598-.125.86-.125.675 0 1.218.172 1.624.516.407.344.61.797.61 1.36 0 .273-.055.53-.156.78-.105.243-.288.524-.546.845-.074.085-.31.328-.703.734-.398.406-.95.976-1.656 1.703zm0 0"/></symbol></defs><g><path fill="#fff" d="M0 0h300v300H0z"/><path d="M160.535 214.137l-8.1-10.34" stroke-width="1.2" stroke="#000" stroke-miterlimit="10" fill="none"/><path d="M152.434 203.797l-8.102-10.336M144.332 193.46l-13 1.85" stroke-width="1.2" stroke="#00f" stroke-miterlimit="10" fill="none"/><path d="M131.332 195.31l-13.004 1.846M154.137 169.094l-4.903 12.183" stroke-width="1.2" stroke="#000" stroke-miterlimit="10" fill="none"/><path d="M149.234 181.277l-4.902 12.184" stroke-width="1.2" stroke="#00f" stroke-miterlimit="10" fill="none"/><path d="M140.332 186.96h8v13h-8zm0 0" fill="#fff"/><use xlink:href="#a" x="140.332" y="196.862" fill="#00f"/><path d="M118.328 197.156l-16.203-20.676M102.125 176.48l9.805-24.367M97.37 171.738l7.845-19.496M76.12 180.172l26.005-3.692M111.93 152.113l-16.203-20.675" stroke-width="1.2" stroke="#000" stroke-miterlimit="10" fill="none"/><path d="M137.934 148.418m-2.996-.102l.144 1.036m-3.144-1.137l.292 2.066m-3.29-2.163l.44 3.098m-3.44-3.2l.587 4.13m-3.582-4.23l.73 5.163m-3.73-5.266l.88 6.196m-3.88-6.293l1.028 7.226m-4.024-7.327l1.17 8.258m-3.843-8.347l1.305 9.176" stroke="#000" stroke-miterlimit="10" fill="none"/><path d="M95.727 131.438l-26.004 3.695M93.996 137.926L73.19 140.88M69.723 135.133L59.918 159.5M59.918 159.5l16.203 20.672M56.676 165.38l12.96 16.538" stroke-width="1.2" stroke="#000" stroke-miterlimit="10" fill="none"/><path d="M35.25 168.52l12.336-4.512" stroke-width="1.2" stroke="#f00" stroke-miterlimit="10" fill="none"/><path d="M47.586 164.008l12.332-4.508M76.12 180.172l-7.327 10.902" stroke-width="1.2" stroke="#000" stroke-miterlimit="10" fill="none"/><path d="M68.793 191.074l-7.328 10.9M61.465 201.973l-12.63-3.602" stroke-width="1.2" stroke="#f00" stroke-miterlimit="10" fill="none"/><path d="M48.836 198.37l-12.63-3.6" stroke-width="1.2" stroke="#000" stroke-miterlimit="10" fill="none"/><path d="M57.465 195.473h9v13h-9zm0 0" fill="#fff"/><use xlink:href="#b" x="57.465" y="205.374" fill="#f00"/><path d="M36.207 194.77l-.48-13.125" stroke-width="1.2" stroke="#000" stroke-miterlimit="10" fill="none"/><path d="M35.727 181.645l-.477-13.125" stroke-width="1.2" stroke="#f00" stroke-miterlimit="10" fill="none"/><path d="M31.25 162.02h9v13h-9zm0 0" fill="#fff"/><use xlink:href="#b" x="31.25" y="171.921" fill="#f00"/><path d="M137.934 148.418l16.203 20.676M147.738 124.05l-9.804 24.368" stroke-width="1.2" stroke="#000" stroke-miterlimit="10" fill="none"/><path d="M154.137 169.094m3 .1l-.15-1.034m3.146 1.133l-.293-2.063m3.293 2.165l-.442-3.098m3.44 3.2l-.587-4.13m3.586 4.23l-.735-5.163m3.73 5.26l-.88-6.19m3.88 6.293l-1.027-7.227m4.027 7.328l-1.176-8.257m3.843 8.348l-1.3-9.18" stroke="#000" stroke-miterlimit="10" fill="none"/><path d="M180.14 165.398l16.204 20.676M186.63 163.656l12.96 16.54M189.945 141.03L180.14 165.4M196.344 186.074l26.004-3.695M222.348 182.38l9.804-24.368M229.063 182.25l7.843-19.496" stroke-width="1.2" stroke="#000" stroke-miterlimit="10" fill="none"/><path d="M242.496 199.234l-10.074-8.425" stroke-width="1.2" stroke="#f00" stroke-miterlimit="10" fill="none"/><path d="M232.422 190.81l-10.074-8.43M232.152 158.012l-16.2-20.676M232.152 158.012l13.102.898" stroke-width="1.2" stroke="#000" stroke-miterlimit="10" fill="none"/><path d="M245.254 158.91l13.105.895" stroke-width="1.2" stroke="#f00" stroke-miterlimit="10" fill="none"/><path d="M215.953 137.336l-26.008 3.695M214.22 143.824l-20.806 2.957M189.945 141.03l-16.2-20.675M173.746 120.355l-26.008 3.696" stroke-width="1.2" stroke="#000" stroke-miterlimit="10" fill="none"/><path d="M147.738 124.05l-12.55-23.534-7.297 5.718zm0 0"/><path d="M114.54 96.875h17v13h-17zm0 0" fill="#fff"/><g fill="#f00"><use xlink:href="#c" x="114.539" y="106.776"/><use xlink:href="#b" x="122.563" y="106.776"/></g><path d="M258.36 159.805l3.195 12.738" stroke-width="1.2" stroke="#f00" stroke-miterlimit="10" fill="none"/><path d="M261.555 172.543l3.195 12.738" stroke-width="1.2" stroke="#000" stroke-miterlimit="10" fill="none"/><path d="M254.36 153.305h9v13h-9zm0 0" fill="#fff"/><use xlink:href="#b" x="254.359" y="163.206" fill="#f00"/><path d="M264.75 185.28l-11.13 6.978" stroke-width="1.2" stroke="#000" stroke-miterlimit="10" fill="none"/><path d="M253.62 192.258l-11.124 6.976" stroke-width="1.2" stroke="#f00" stroke-miterlimit="10" fill="none"/><path d="M238.496 192.734h9v13h-9zm0 0" fill="#fff"/><use xlink:href="#b" x="238.496" y="202.636" fill="#f00"/><path d="M135.895 77.363h23v17h-23zm0 0" fill="#fff"/><g fill="#f00"><use xlink:href="#b" x="135.895" y="87.265"/><use xlink:href="#c" x="144.295" y="87.265"/></g><use xlink:href="#d" x="152.319" y="92.147" fill="#f00"/></g></svg>