<svg xmlns="http://www.w3.org/2000/svg" xmlns:xlink="http://www.w3.org/1999/xlink" width="300pt" height="300pt" viewBox="0 0 300 300"><defs><symbol overflow="visible"><path d="M.547 1.938V-7.75h5.5v9.688zm.625-.61h4.266v-8.47H1.171zm0 0"/></symbol><symbol overflow="visible" id="a"><path d="M4.328-7.28c-.78 0-1.406.296-1.875.89-.46.585-.687 1.382-.687 2.39 0 1.012.226 1.813.687 2.406.47.586 1.094.875 1.875.875.79 0 1.414-.288 1.875-.874.457-.593.688-1.394.688-2.406 0-1.008-.23-1.805-.687-2.39-.46-.594-1.086-.89-1.875-.89zm0-.892c1.125 0 2.024.383 2.703 1.14C7.708-6.28 8.048-5.27 8.048-4c0 1.262-.34 2.273-1.016 3.03C6.353-.22 5.454.157 4.33.157S2.3-.22 1.625-.97c-.668-.75-1-1.757-1-3.03 0-1.27.332-2.28 1-3.03.676-.76 1.578-1.142 2.703-1.142zm0 0"/></symbol><symbol overflow="visible" id="b"><path d="M1.078-8.016h1.094v3.282H6.11v-3.282h1.077V0H6.11v-3.813H2.17V0H1.078zm0 0"/></symbol><symbol overflow="visible" id="c"><path d="M1.078-8.016h1.47l3.546 6.704v-6.704h1.062V0H5.688L2.124-6.703V0H1.078zm0 0"/></symbol></defs><g><path fill="#fff" d="M0 0h300v300H0z"/><path d="M111.855 192.61l19.07-18.473M133.684 172.664l-3.32-6.223" stroke-width="1.2" stroke="#000" stroke-miterlimit="10" fill="none"/><path d="M130.363 166.44l-3.324-6.225" stroke-width="1.2" stroke="#f00" stroke-miterlimit="10" fill="none"/><path d="M128.172 175.605l-3.32-6.222" stroke-width="1.2" stroke="#000" stroke-miterlimit="10" fill="none"/><path d="M124.852 169.383l-3.325-6.227" stroke-width="1.2" stroke="#f00" stroke-miterlimit="10" fill="none"/><path d="M130.926 174.137l12.77 3.64" stroke-width="1.2" stroke="#000" stroke-miterlimit="10" fill="none"/><path d="M143.695 177.777l12.766 3.637" stroke-width="1.2" stroke="#f00" stroke-miterlimit="10" fill="none"/><path d="M115.285 155.188h9v13h-9zm0 0" fill="#fff"/><use xlink:href="#a" x="115.285" y="165.089" fill="#f00"/><path d="M175.535 162.94l-22.332 15.11 6.52 6.73zm0 0"/><path d="M152.46 174.914h9v13h-9zm0 0" fill="#fff"/><use xlink:href="#a" x="152.461" y="184.815" fill="#f00"/><path d="M175.535 162.94l-6.46-25.752M201.07 170.223l-25.535-7.282M169.074 137.188l19.07-18.473" stroke-width="1.2" stroke="#000" stroke-miterlimit="10" fill="none"/><path d="M169.074 137.188L144.82 125.4l-2.566 9.012zm0 0"/><path d="M188.145 118.715l25.535 7.277" stroke-width="1.2" stroke="#000" stroke-miterlimit="10" fill="none"/><path d="M188.145 118.715l-1.918-26.895-9.09 2.282zm0 0"/><path d="M213.68 125.992l19.074-18.472M213.68 125.992l6.46 25.754" stroke-width="1.2" stroke="#000" stroke-miterlimit="10" fill="none"/><path d="M213.68 125.992l14.765 7.06 1.45-9.26zm0 0"/><path d="M232.754 107.52l-6.465-25.754" stroke-width="1.2" stroke="#000" stroke-miterlimit="10" fill="none"/><path d="M232.754 107.52m2.695 1.312l.284-1.004m2.414 2.313l.57-2.003m2.13 3.316l.855-3.008m1.84 4.32l1.144-4.01m1.555 5.323l1.43-5.016m1.27 6.325l1.714-6.016m.985 7.33l2-7.02m.696 8.332l2.29-8.024m.378 9.317l2.566-9.012" stroke="#000" stroke-miterlimit="10" fill="none"/><path d="M226.29 81.766l-25.536-7.282M200.754 74.484l-19.07 18.477M181.684 92.96l-24.243 10.837M181.684 92.96L166.8 70.97" stroke-width="1.2" stroke="#000" stroke-miterlimit="10" fill="none"/><path d="M250.29 108.3h17v13h-17zm0 0" fill="#fff"/><g fill="#f00"><use xlink:href="#a" x="250.289" y="118.202"/><use xlink:href="#b" x="258.689" y="118.202"/></g><path d="M220.14 151.746l-19.07 18.477" stroke-width="1.2" stroke="#000" stroke-miterlimit="10" fill="none"/><path d="M220.14 151.746l15.337-5.715-5.653-7.475zm0 0"/><path d="M245.676 159.027l-25.535-7.28M201.07 170.223l3.23 12.875" stroke-width="1.2" stroke="#000" stroke-miterlimit="10" fill="none"/><path d="M204.3 183.098l3.23 12.88" stroke-width="1.2" stroke="#f00" stroke-miterlimit="10" fill="none"/><path d="M201.07 170.223l-22.332 15.105 6.52 6.734zm0 0"/><path d="M207.53 195.977l12.77 3.64" stroke-width="1.2" stroke="#f00" stroke-miterlimit="10" fill="none"/><path d="M220.3 199.617l12.766 3.637" stroke-width="1.2" stroke="#000" stroke-miterlimit="10" fill="none"/><path d="M203.53 189.477h9v13h-9zm0 0" fill="#fff"/><use xlink:href="#a" x="203.531" y="199.378" fill="#f00"/><path d="M233.066 203.254l19.075-18.473" stroke-width="1.2" stroke="#000" stroke-miterlimit="10" fill="none"/><path d="M233.066 203.254l18.758 19.37 5.496-7.59zm0 0"/><path d="M233.066 203.254l-11.6 23.887M252.14 184.78l-6.464-25.753M247.852 161.27l9.535-9.235" stroke-width="1.2" stroke="#000" stroke-miterlimit="10" fill="none"/><path d="M257.387 152.035l9.535-9.238" stroke-width="1.2" stroke="#f00" stroke-miterlimit="10" fill="none"/><path d="M243.504 156.785l9.535-9.238" stroke-width="1.2" stroke="#000" stroke-miterlimit="10" fill="none"/><path d="M253.04 147.547l9.538-9.238" stroke-width="1.2" stroke="#f00" stroke-miterlimit="10" fill="none"/><path d="M260.75 134.055h9v13h-9zm0 0" fill="#fff"/><use xlink:href="#a" x="260.75" y="143.956" fill="#f00"/><path d="M221.242 224.023l-26.484 1.89M221.688 230.254l-26.485 1.894" stroke-width="1.2" stroke="#000" stroke-miterlimit="10" fill="none"/><path d="M224.648 135.793h17v13h-17zm0 0" fill="#fff"/><g fill="#f00"><use xlink:href="#a" x="224.648" y="145.694"/><use xlink:href="#b" x="233.049" y="145.694"/></g><path d="M143.54 129.906l-9.54 9.24" stroke-width="1.2" stroke="#f00" stroke-miterlimit="10" fill="none"/><path d="M134 139.145l-9.535 9.238" stroke-width="1.2" stroke="#000" stroke-miterlimit="10" fill="none"/><path d="M139.54 123.406h9v13h-9zm0 0" fill="#fff"/><use xlink:href="#a" x="139.539" y="133.308" fill="#f00"/><path d="M121.34 148.387l.02 13.277" stroke-width="1.2" stroke="#000" stroke-miterlimit="10" fill="none"/><path d="M121.36 161.664l.02 13.274" stroke-width="1.2" stroke="#f00" stroke-miterlimit="10" fill="none"/><path d="M127.59 148.375l.02 13.277" stroke-width="1.2" stroke="#000" stroke-miterlimit="10" fill="none"/><path d="M127.61 161.652l.02 13.278" stroke-width="1.2" stroke="#f00" stroke-miterlimit="10" fill="none"/><path d="M124.465 148.383l-25.535-7.28" stroke-width="1.2" stroke="#000" stroke-miterlimit="10" fill="none"/><path d="M120.504 168.434h9v13h-9zm0 0" fill="#fff"/><use xlink:href="#a" x="120.504" y="178.335" fill="#f00"/><path d="M98.93 141.102l-19.07 18.472M79.86 159.574l-12.77-3.64" stroke-width="1.2" stroke="#000" stroke-miterlimit="10" fill="none"/><path d="M67.09 155.934l-12.766-3.637M54.324 152.297l-9.54 9.234" stroke-width="1.2" stroke="#00f" stroke-miterlimit="10" fill="none"/><path d="M44.785 161.53l-9.535 9.24" stroke-width="1.2" stroke="#000" stroke-miterlimit="10" fill="none"/><path d="M54.324 152.297l-3.234-12.88" stroke-width="1.2" stroke="#00f" stroke-miterlimit="10" fill="none"/><path d="M51.09 139.418l-3.23-12.875" stroke-width="1.2" stroke="#000" stroke-miterlimit="10" fill="none"/><path d="M50.324 145.797h8v13h-8zm0 0" fill="#fff"/><use xlink:href="#c" x="50.324" y="155.698" fill="#00f"/></g></svg>