<svg xmlns="http://www.w3.org/2000/svg" xmlns:xlink="http://www.w3.org/1999/xlink" width="300pt" height="300pt" viewBox="0 0 300 300"><defs><symbol overflow="visible"><path d="M.594 2.125V-8.47h6V2.126zm.672-.672h4.671V-7.78h-4.67zm0 0"/></symbol><symbol overflow="visible" id="a"><path d="M1.172-8.75h1.594l3.89 7.313V-8.75h1.14V0H6.204L2.328-7.313V0H1.172zm0 0"/></symbol><symbol overflow="visible" id="b"><path d="M4.734-7.953c-.867 0-1.554.324-2.062.97-.5.635-.75 1.51-.75 2.624 0 1.094.25 1.965.75 2.61.508.637 1.195.953 2.062.953.852 0 1.532-.316 2.032-.953.507-.645.765-1.516.765-2.61 0-1.113-.257-1.988-.764-2.624-.5-.645-1.18-.97-2.032-.97zm0-.953c1.22 0 2.192.414 2.922 1.234.74.824 1.11 1.93 1.11 3.313 0 1.376-.37 2.477-1.11 3.298C6.926-.24 5.953.17 4.734.17c-1.23 0-2.214-.41-2.953-1.234C1.04-1.882.673-2.984.673-4.36c0-1.382.367-2.488 1.11-3.312.738-.82 1.722-1.234 2.952-1.234zm0 0"/></symbol><symbol overflow="visible" id="c"><path d="M1.172-8.75H2.36v3.594h4.296V-8.75h1.188V0H6.656v-4.172H2.36V0H1.17zm0 0"/></symbol></defs><g><path fill="#fff" d="M0 0h300v300H0z"/><path d="M226.273 72.777L206.81 94.992M206.81 94.992l4.752 13.98" stroke-width="1.2" stroke="#000" stroke-miterlimit="10" fill="none"/><path d="M211.563 108.973l4.753 13.98M216.316 122.953l14.485 2.875" stroke-width="1.2" stroke="#00f" stroke-miterlimit="10" fill="none"/><path d="M230.8 125.828l14.485 2.875" stroke-width="1.2" stroke="#000" stroke-miterlimit="10" fill="none"/><path d="M216.316 122.953l-9.734 11.11" stroke-width="1.2" stroke="#00f" stroke-miterlimit="10" fill="none"/><path d="M206.582 134.063l-9.73 11.105" stroke-width="1.2" stroke="#000" stroke-miterlimit="10" fill="none"/><path d="M212.316 115.953h9v14h-9zm0 0" fill="#fff"/><use xlink:href="#a" x="212.316" y="127.092" fill="#00f"/><path d="M245.285 128.703l19.465-22.215" stroke-width="1.2" stroke="#000" stroke-miterlimit="10" fill="none"/><path d="M206.355 173.133m-.457-2.965l-.984.336m.527-3.3l-1.97.67m1.514-3.636l-2.96 1.008m2.503-3.973l-3.95 1.344m3.493-4.308l-4.937 1.674m4.48-4.64l-5.922 2.01m5.466-4.975l-6.91 2.347m6.453-5.313l-7.9 2.684m7.442-5.65l-8.887 3.02m8.43-5.976l-9.87 3.356" stroke="#000" stroke-miterlimit="10" fill="none"/><path d="M206.355 173.133l28.973 5.75" stroke-width="1.2" stroke="#000" stroke-miterlimit="10" fill="none"/><path d="M186.89 195.348l9.735-11.11" stroke-width="1.2" stroke="#00f" stroke-miterlimit="10" fill="none"/><path d="M196.625 184.238l9.73-11.105M235.328 178.883l9.504 27.965M244.832 206.848l-19.465 22.214M225.367 229.063l-28.97-5.75M196.398 223.313l-4.753-13.985" stroke-width="1.2" stroke="#000" stroke-miterlimit="10" fill="none"/><path d="M191.645 209.328l-4.754-13.98M186.89 195.348l-14.484-2.875" stroke-width="1.2" stroke="#00f" stroke-miterlimit="10" fill="none"/><path d="M172.406 192.473l-14.484-2.875" stroke-width="1.2" stroke="#000" stroke-miterlimit="10" fill="none"/><path d="M182.89 188.348h9v14h-9zm0 0" fill="#fff"/><use xlink:href="#a" x="182.891" y="199.486" fill="#00f"/><path d="M157.922 189.598l-9.508-27.965M151.03 163.922l9.732-11.106" stroke-width="1.2" stroke="#000" stroke-miterlimit="10" fill="none"/><path d="M160.762 152.816l9.73-11.105" stroke-width="1.2" stroke="#f00" stroke-miterlimit="10" fill="none"/><path d="M145.8 159.344l9.735-11.106" stroke-width="1.2" stroke="#000" stroke-miterlimit="10" fill="none"/><path d="M155.535 148.238l9.73-11.11" stroke-width="1.2" stroke="#f00" stroke-miterlimit="10" fill="none"/><path d="M148.414 161.633l-14.484-2.875" stroke-width="1.2" stroke="#000" stroke-miterlimit="10" fill="none"/><path d="M133.93 158.758l-14.485-2.875" stroke-width="1.2" stroke="#00f" stroke-miterlimit="10" fill="none"/><path d="M162.88 132.418h10v14h-10zm0 0" fill="#fff"/><use xlink:href="#b" x="162.879" y="143.557" fill="#f00"/><path d="M119.445 155.883l-3.695-14.297" stroke-width="1.2" stroke="#00f" stroke-miterlimit="10" fill="none"/><path d="M115.75 141.586l-3.695-14.297M101.695 179.492l8.875-11.804" stroke-width="1.2" stroke="#000" stroke-miterlimit="10" fill="none"/><path d="M110.57 167.688l8.875-11.805" stroke-width="1.2" stroke="#00f" stroke-miterlimit="10" fill="none"/><path d="M115.445 148.883h9v14h-9zm0 0" fill="#fff"/><use xlink:href="#a" x="115.445" y="160.021" fill="#00f"/><path d="M112.055 127.29l23.922-17.33M110.37 119.926l19.138-13.86M85.09 115.234l26.965 12.055M135.977 109.96l-3.047-29.374M132.93 80.586L105.965 68.53M127.398 85.723l-21.57-9.64M105.965 68.53L82.047 85.86M82.047 85.86l3.043 29.374M89.262 88.078l2.437 23.504M85.09 115.234l-26.235 13.57M60.945 126.027l-11.804-8.875" stroke-width="1.2" stroke="#000" stroke-miterlimit="10" fill="none"/><path d="M49.14 117.152l-11.8-8.875" stroke-width="1.2" stroke="#f00" stroke-miterlimit="10" fill="none"/><path d="M56.77 131.582l-11.805-8.875" stroke-width="1.2" stroke="#000" stroke-miterlimit="10" fill="none"/><path d="M44.965 122.707l-11.805-8.875" stroke-width="1.2" stroke="#f00" stroke-miterlimit="10" fill="none"/><path d="M58.855 128.805L55.98 143.29" stroke-width="1.2" stroke="#000" stroke-miterlimit="10" fill="none"/><path d="M55.98 143.29l-2.875 14.483" stroke-width="1.2" stroke="#00f" stroke-miterlimit="10" fill="none"/><path d="M25.25 104.055h10v14h-10zm0 0" fill="#fff"/><use xlink:href="#b" x="25.25" y="115.193" fill="#f00"/><path d="M53.105 157.773l9.536 11.282" stroke-width="1.2" stroke="#00f" stroke-miterlimit="10" fill="none"/><path d="M62.64 169.055l9.532 11.277" stroke-width="1.2" stroke="#000" stroke-miterlimit="10" fill="none"/><path d="M44.105 150.773h18v14h-18zm0 0" fill="#fff"/><g fill="#00f"><use xlink:href="#a" x="44.105" y="161.912"/><use xlink:href="#c" x="53.082" y="161.912"/></g><path d="M72.172 180.332l29.523-.84M75.324 187.195l23.617-.672M58.14 206.32l14.032-25.988M101.695 179.492l7.746 12.574" stroke-width="1.2" stroke="#000" stroke-miterlimit="10" fill="none"/><path d="M109.44 192.066l7.748 12.57M117.188 204.637l-7.02 12.996" stroke-width="1.2" stroke="#00f" stroke-miterlimit="10" fill="none"/><path d="M110.168 217.633l-7.016 12.992" stroke-width="1.2" stroke="#000" stroke-miterlimit="10" fill="none"/><path d="M109.668 203.934l-5.613 10.398" stroke-width="1.2" stroke="#00f" stroke-miterlimit="10" fill="none"/><path d="M104.055 214.332l-5.614 10.395" stroke-width="1.2" stroke="#000" stroke-miterlimit="10" fill="none"/><path d="M113.188 197.637h9v14h-9zm0 0" fill="#fff"/><use xlink:href="#a" x="113.188" y="208.775" fill="#00f"/><path d="M103.152 230.625l-29.523.844M73.63 231.47l-15.49-25.15M77.996 225.31l-12.39-20.12" stroke-width="1.2" stroke="#000" stroke-miterlimit="10" fill="none"/></g></svg>