<svg xmlns="http://www.w3.org/2000/svg" xmlns:xlink="http://www.w3.org/1999/xlink" width="300pt" height="300pt" viewBox="0 0 300 300"><defs><symbol overflow="visible"><path d="M.453 1.594v-7.938h4.5v7.938zm.5-.5h3.5v-6.938h-3.5zm0 0"/></symbol><symbol overflow="visible" id="a"><path d="M.89-6.563H2.08l2.906 5.485v-5.484h.86V0H4.656L1.75-5.484V0H.89zm0 0"/></symbol><symbol overflow="visible" id="b"><path d="M3.547-5.953c-.65 0-1.164.242-1.547.72-.375.48-.563 1.13-.563 1.952 0 .835.188 1.49.563 1.967.383.48.898.72 1.547.72.644 0 1.156-.24 1.53-.72.376-.476.564-1.132.564-1.968 0-.822-.187-1.474-.562-1.954-.375-.477-.887-.72-1.53-.72zm0-.734c.914 0 1.648.312 2.203.937.55.617.828 1.438.828 2.47 0 1.042-.277 1.87-.828 2.483-.555.617-1.29.922-2.203.922-.93 0-1.668-.305-2.22-.922C.774-1.41.5-2.237.5-3.28c0-1.033.273-1.853.828-2.47.55-.625 1.29-.938 2.22-.938zm0 0"/></symbol><symbol overflow="visible" id="c"><path d="M.89-6.563h.876v2.688H5v-2.688h.89V0H5v-3.125H1.766V0H.89zm0 0"/></symbol></defs><g><path fill="#fff" d="M0 0h300v300H0z"/><path d="M90.922 139.305m-.02-3l-1.023.187m1.003-3.187l-2.05.375m2.03-3.375l-3.074.562m3.054-3.562l-4.102.75m4.086-3.75l-5.13.937m5.11-3.937l-6.156 1.125m6.145-2.696l-6.692 1.223" stroke="#000" stroke-miterlimit="10" fill="none"/><path d="M90.922 139.305l14.465-12.74M94.723 158.2l-3.8-18.895M71.777 137.082l19.145 2.223M105.387 126.566l18.26 6.157" stroke-width="1.2" stroke="#000" stroke-miterlimit="10" fill="none"/><path d="M127.45 151.617m-.07-3l-1.025.207m.95-3.207l-2.043.414m1.972-3.41l-3.066.618m2.996-3.617l-4.09.82m4.016-3.82l-5.11 1.028m5.04-4.027l-6.133 1.235m6.097-2.804l-6.67 1.345" stroke="#000" stroke-miterlimit="10" fill="none"/><path d="M127.45 151.617l-14.466 12.738M145.71 157.773l-18.26-6.156M112.984 164.355l-18.26-6.156" stroke-width="1.2" stroke="#000" stroke-miterlimit="10" fill="none"/><path d="M112.984 164.355m.075 3l1.018-.207m-.95 3.207l2.044-.414m-1.973 3.412l3.066-.614m-2.993 3.614l4.086-.82m-4.016 3.82l5.11-1.028m-5.04 4.028l6.133-1.235m-6.094 2.805l6.668-1.344M94.723 158.2m-2.832.995l.512.907m-3.34.085l1.024 1.82m-3.856-.823l1.536 2.726m-4.364-1.73l2.043 3.632m-4.875-2.64l2.56 4.543m-5.388-3.547l3.067 5.453m-4.552-4.933l3.336 5.93" stroke="#000" stroke-miterlimit="10" fill="none"/><path d="M77.926 167.652l-14.18-13.05M63.746 154.602l8.03-17.52" stroke-width="1.2" stroke="#000" stroke-miterlimit="10" fill="none"/><path d="M71.777 137.082l-17.175-9.38-2.176 6.446zm0 0"/><path d="M71.777 137.082l.946-9.594" stroke-width="1.2" stroke="#000" stroke-miterlimit="10" fill="none"/><path d="M72.723 127.488l.945-9.59" stroke-width="1.2" stroke="#f00" stroke-miterlimit="10" fill="none"/><path d="M53.512 130.926l-9.13-3.078" stroke-width="1.2" stroke="#000" stroke-miterlimit="10" fill="none"/><path d="M44.383 127.848l-9.133-3.078" stroke-width="1.2" stroke="#00f" stroke-miterlimit="10" fill="none"/><path d="M53.137 126.012l-7.305-2.46" stroke-width="1.2" stroke="#000" stroke-miterlimit="10" fill="none"/><path d="M45.832 123.55l-7.31-2.464" stroke-width="1.2" stroke="#00f" stroke-miterlimit="10" fill="none"/><path d="M50.238 134.605l-7.304-2.46" stroke-width="1.2" stroke="#000" stroke-miterlimit="10" fill="none"/><path d="M42.934 132.145l-7.305-2.465" stroke-width="1.2" stroke="#00f" stroke-miterlimit="10" fill="none"/><path d="M28.25 119.27h7v11h-7zm0 0" fill="#fff"/><use xlink:href="#a" x="28.25" y="127.933" fill="#00f"/><path d="M66.668 112.398h15v11h-15zm0 0" fill="#fff"/><g fill="#f00"><use xlink:href="#b" x="66.668" y="121.062"/><use xlink:href="#c" x="74.01" y="121.062"/></g><path d="M116.785 183.25l18.266 6.156M135.05 189.406l14.462-12.738M149.512 176.668l18.265 6.156M152.79 172.988l14.608 4.922M145.71 157.773l3.802 18.895M167.777 182.824l14.46-12.738M182.238 170.086l9.133 3.078" stroke-width="1.2" stroke="#000" stroke-miterlimit="10" fill="none"/><path d="M191.37 173.164l9.134 3.078" stroke-width="1.2" stroke="#00f" stroke-miterlimit="10" fill="none"/><path d="M185.516 166.402l7.304 2.465" stroke-width="1.2" stroke="#000" stroke-miterlimit="10" fill="none"/><path d="M192.82 168.867l7.305 2.46" stroke-width="1.2" stroke="#00f" stroke-miterlimit="10" fill="none"/><path d="M178.438 151.19l3.8 18.896" stroke-width="1.2" stroke="#000" stroke-miterlimit="10" fill="none"/><path d="M200.504 176.242l7.23-6.37" stroke-width="1.2" stroke="#00f" stroke-miterlimit="10" fill="none"/><path d="M207.734 169.87l7.23-6.366" stroke-width="1.2" stroke="#000" stroke-miterlimit="10" fill="none"/><path d="M197.504 170.742h7v11h-7zm0 0" fill="#fff"/><use xlink:href="#a" x="197.504" y="179.405" fill="#00f"/><path d="M214.965 163.504l9.574 1.11" stroke-width="1.2" stroke="#000" stroke-miterlimit="10" fill="none"/><path d="M224.54 164.613l9.57 1.114" stroke-width="1.2" stroke="#00f" stroke-miterlimit="10" fill="none"/><path d="M217.406 159.223l7.656.886" stroke-width="1.2" stroke="#000" stroke-miterlimit="10" fill="none"/><path d="M225.063 160.11l7.656.89M211.168 144.61l1.898 9.445" stroke-width="1.2" stroke="#00f" stroke-miterlimit="10" fill="none"/><path d="M213.066 154.055l1.9 9.45" stroke-width="1.2" stroke="#000" stroke-miterlimit="10" fill="none"/><path d="M234.11 165.727l4.015-8.758" stroke-width="1.2" stroke="#00f" stroke-miterlimit="10" fill="none"/><path d="M238.125 156.97l4.016-8.763" stroke-width="1.2" stroke="#000" stroke-miterlimit="10" fill="none"/><path d="M231.11 160.227h7v11h-7zm0 0" fill="#fff"/><use xlink:href="#a" x="231.109" y="168.89" fill="#00f"/><path d="M242.14 148.207l18.395-5.754M242.63 143.305l14.714-4.606M227.96 135.156l14.18 13.05M260.535 142.453l4.215-18.808M264.75 123.645l-14.18-13.05M260.262 125.676l-11.344-10.442M250.57 110.594l-18.394 5.754M232.176 116.348l-4.215 18.808M236.18 119.22l-3.37 15.046M227.96 135.156l-8.398 4.727" stroke-width="1.2" stroke="#000" stroke-miterlimit="10" fill="none"/><path d="M219.563 139.883l-8.395 4.726M211.168 144.61l-9.133-3.08" stroke-width="1.2" stroke="#00f" stroke-miterlimit="10" fill="none"/><path d="M202.035 141.53l-9.133-3.077" stroke-width="1.2" stroke="#000" stroke-miterlimit="10" fill="none"/><path d="M208.168 139.11h7v11h-7zm0 0" fill="#fff"/><use xlink:href="#a" x="208.168" y="147.772" fill="#00f"/><path d="M192.902 138.453l-14.464 12.738M194.453 143.13l-11.57 10.19M178.438 151.19l-18.262-6.155M160.176 145.035l-14.465 12.738" stroke-width="1.2" stroke="#000" stroke-miterlimit="10" fill="none"/><path d="M145.71 157.773m-.07-3l-1.023.207m.953-3.207l-2.047.415m1.977-3.41l-3.07.617m2.996-3.618l-4.09.82m4.02-3.82l-5.11 1.028m5.04-4.028l-6.134 1.235m6.094-2.805l-6.668 1.344" stroke="#000" stroke-miterlimit="10" fill="none"/></g></svg>