<svg xmlns="http://www.w3.org/2000/svg" xmlns:xlink="http://www.w3.org/1999/xlink" width="300pt" height="300pt" viewBox="0 0 300 300"><defs><symbol overflow="visible"><path d="M.547 1.938V-7.75h5.5v9.688zm.625-.61h4.266v-8.47H1.171zm0 0"/></symbol><symbol overflow="visible" id="a"><path d="M1.078-8.016h1.47l3.546 6.704v-6.704h1.062V0H5.688L2.124-6.703V0H1.078zm0 0"/></symbol><symbol overflow="visible" id="b"><path d="M1.078-8.016h1.094v3.282H6.11v-3.282h1.077V0H6.11v-3.813H2.17V0H1.078zm0 0"/></symbol></defs><g><path fill="#fff" d="M0 0h300v300H0z"/><path d="M171.62 215.62l-9.382-24.757M162.238 190.863l-13.066-2.125" stroke-width="1.2" stroke="#000" stroke-miterlimit="10" fill="none"/><path d="M149.172 188.738l-13.067-2.125" stroke-width="1.2" stroke="#00f" stroke-miterlimit="10" fill="none"/><path d="M160.625 184.29l-10.453-1.7" stroke-width="1.2" stroke="#000" stroke-miterlimit="10" fill="none"/><path d="M150.172 182.59l-10.453-1.703M178.988 170.36l-8.375 10.253" stroke-width="1.2" stroke="#00f" stroke-miterlimit="10" fill="none"/><path d="M170.613 180.613l-8.375 10.25" stroke-width="1.2" stroke="#000" stroke-miterlimit="10" fill="none"/><path d="M136.105 186.613l-4.69-12.38" stroke-width="1.2" stroke="#00f" stroke-miterlimit="10" fill="none"/><path d="M131.414 174.234l-4.69-12.38" stroke-width="1.2" stroke="#000" stroke-miterlimit="10" fill="none"/><path d="M132.105 180.113h8v13h-8zm0 0" fill="#fff"/><use xlink:href="#a" x="132.105" y="190.015" fill="#00f"/><path d="M126.723 161.855l16.75-20.503M123.574 155.863l13.4-16.402" stroke-width="1.2" stroke="#000" stroke-miterlimit="10" fill="none"/><path d="M102.047 152.262l12.34 4.797" stroke-width="1.2" stroke="#00f" stroke-miterlimit="10" fill="none"/><path d="M114.387 157.06l12.336 4.795M143.473 141.352l26.132 4.25M143.473 141.352l-7.164-11.133" stroke-width="1.2" stroke="#000" stroke-miterlimit="10" fill="none"/><path d="M136.31 130.22l-7.162-11.134" stroke-width="1.2" stroke="#00f" stroke-miterlimit="10" fill="none"/><path d="M169.605 145.602l4.692 12.378" stroke-width="1.2" stroke="#000" stroke-miterlimit="10" fill="none"/><path d="M174.297 157.98l4.69 12.38" stroke-width="1.2" stroke="#00f" stroke-miterlimit="10" fill="none"/><path d="M164.72 150.285l3.753 9.903" stroke-width="1.2" stroke="#000" stroke-miterlimit="10" fill="none"/><path d="M168.473 160.188l3.75 9.906" stroke-width="1.2" stroke="#00f" stroke-miterlimit="10" fill="none"/><path d="M169.605 145.602l8.375-10.25" stroke-width="1.2" stroke="#000" stroke-miterlimit="10" fill="none"/><path d="M177.98 135.352l8.375-10.254" stroke-width="1.2" stroke="#00f" stroke-miterlimit="10" fill="none"/><path d="M174.988 163.86h8v13h-8zm0 0" fill="#fff"/><use xlink:href="#a" x="174.988" y="173.761" fill="#00f"/><path d="M186.355 125.098l13.063 2.125" stroke-width="1.2" stroke="#00f" stroke-miterlimit="10" fill="none"/><path d="M199.418 127.223l13.066 2.13" stroke-width="1.2" stroke="#000" stroke-miterlimit="10" fill="none"/><path d="M178.355 118.598h17v13h-17zm0 0" fill="#fff"/><g fill="#00f"><use xlink:href="#a" x="178.355" y="128.499"/><use xlink:href="#b" x="186.339" y="128.499"/></g><path d="M212.484 129.352l9.383 24.757M229.234 108.848l-16.75 20.504M221.867 154.11L248 158.36M248 158.36l16.75-20.505M264.75 137.855l-9.383-24.757M255.367 113.098l-26.133-4.25" stroke-width="1.2" stroke="#000" stroke-miterlimit="10" fill="none"/><path d="M129.148 119.086l-12.8 3.37" stroke-width="1.2" stroke="#00f" stroke-miterlimit="10" fill="none"/><path d="M116.348 122.457l-12.805 3.37" stroke-width="1.2" stroke="#000" stroke-miterlimit="10" fill="none"/><path d="M128.176 125.78l-10.242 2.7" stroke-width="1.2" stroke="#00f" stroke-miterlimit="10" fill="none"/><path d="M117.934 128.48l-10.243 2.696" stroke-width="1.2" stroke="#000" stroke-miterlimit="10" fill="none"/><path d="M125.148 112.586h8v13h-8zm0 0" fill="#fff"/><use xlink:href="#a" x="125.148" y="122.487" fill="#00f"/><path d="M103.543 125.828l-.746 13.215" stroke-width="1.2" stroke="#000" stroke-miterlimit="10" fill="none"/><path d="M102.797 139.043l-.75 13.22" stroke-width="1.2" stroke="#00f" stroke-miterlimit="10" fill="none"/><path d="M103.543 125.828l-20.504-16.75" stroke-width="1.2" stroke="#000" stroke-miterlimit="10" fill="none"/><path d="M102.047 152.262l-11.133 7.164" stroke-width="1.2" stroke="#00f" stroke-miterlimit="10" fill="none"/><path d="M90.914 159.426l-11.133 7.16" stroke-width="1.2" stroke="#000" stroke-miterlimit="10" fill="none"/><path d="M98.047 145.762h8v13h-8zm0 0" fill="#fff"/><use xlink:href="#a" x="98.047" y="155.663" fill="#00f"/><path d="M79.78 166.586l1.275 26.445M81.055 193.03l-11.133 7.165" stroke-width="1.2" stroke="#000" stroke-miterlimit="10" fill="none"/><path d="M69.922 200.195l-11.133 7.16M58.79 207.355l.636 13.223" stroke-width="1.2" stroke="#00f" stroke-miterlimit="10" fill="none"/><path d="M59.426 220.578l.636 13.223" stroke-width="1.2" stroke="#000" stroke-miterlimit="10" fill="none"/><path d="M58.79 207.355l-11.77-6.058" stroke-width="1.2" stroke="#00f" stroke-miterlimit="10" fill="none"/><path d="M47.02 201.297l-11.77-6.06" stroke-width="1.2" stroke="#000" stroke-miterlimit="10" fill="none"/><path d="M54.79 200.855h8v13h-8zm0 0" fill="#fff"/><use xlink:href="#a" x="54.789" y="210.757" fill="#00f"/><path d="M83.04 109.078l4.253-26.133M77.316 105.465L80.72 84.56M58.28 118.46l24.76-9.382M87.293 82.945L66.79 66.2M66.79 66.2L42.03 75.58M66.52 72.96l-19.805 7.51M42.03 75.582l-4.253 26.13M37.777 101.71l20.504 16.75M43.77 98.563l16.402 13.398" stroke-width="1.2" stroke="#000" stroke-miterlimit="10" fill="none"/></g></svg>