<svg xmlns="http://www.w3.org/2000/svg" xmlns:xlink="http://www.w3.org/1999/xlink" width="300pt" height="300pt" viewBox="0 0 300 300"><defs><symbol overflow="visible"><path d="M.453 1.594v-7.938h4.5v7.938zm.5-.5h3.5v-6.938h-3.5zm0 0"/></symbol><symbol overflow="visible" id="a"><path d="M.89-6.563H2.08l2.906 5.485v-5.484h.86V0H4.656L1.75-5.484V0H.89zm0 0"/></symbol><symbol overflow="visible" id="b"><path d="M.89-6.563h.876v2.688H5v-2.688h.89V0H5v-3.125H1.766V0H.89zm0 0"/></symbol></defs><g><path fill="#fff" d="M0 0h300v300H0z"/><path d="M35.25 137.96l21.688-10.612M56.938 127.348l20.035 13.476M76.973 140.824l21.687-10.61M98.66 130.215l10.02 6.738" stroke-width="1.2" stroke="#000" stroke-miterlimit="10" fill="none"/><path d="M108.68 136.953l10.015 6.738M118.695 143.69l10.844-5.303" stroke-width="1.2" stroke="#00f" stroke-miterlimit="10" fill="none"/><path d="M129.54 138.387l10.847-5.31" stroke-width="1.2" stroke="#000" stroke-miterlimit="10" fill="none"/><path d="M111.695 138.19h14v11h-14zm0 0" fill="#fff"/><g fill="#00f"><use xlink:href="#a" x="111.695" y="146.854"/><use xlink:href="#b" x="118.673" y="146.854"/></g><path d="M140.387 133.078l.824-12.043" stroke-width="1.2" stroke="#000" stroke-miterlimit="10" fill="none"/><path d="M141.21 121.035l.83-12.047" stroke-width="1.2" stroke="#00f" stroke-miterlimit="10" fill="none"/><path d="M146.22 131.06l.66-9.634" stroke-width="1.2" stroke="#000" stroke-miterlimit="10" fill="none"/><path d="M146.88 121.426l.663-9.637" stroke-width="1.2" stroke="#00f" stroke-miterlimit="10" fill="none"/><path d="M160.418 146.555l-20.03-13.477" stroke-width="1.2" stroke="#000" stroke-miterlimit="10" fill="none"/><path d="M142.04 108.988l10.843-5.304" stroke-width="1.2" stroke="#00f" stroke-miterlimit="10" fill="none"/><path d="M152.883 103.684l10.844-5.305" stroke-width="1.2" stroke="#000" stroke-miterlimit="10" fill="none"/><path d="M139.04 103.488h7v11h-7zm0 0" fill="#fff"/><use xlink:href="#a" x="139.039" y="112.151" fill="#00f"/><path d="M163.727 98.38l10.02 6.737" stroke-width="1.2" stroke="#000" stroke-miterlimit="10" fill="none"/><path d="M173.746 105.117l10.016 6.738" stroke-width="1.2" stroke="#00f" stroke-miterlimit="10" fill="none"/><path d="M162.56 104.44l8.014 5.392" stroke-width="1.2" stroke="#000" stroke-miterlimit="10" fill="none"/><path d="M170.574 109.832l8.016 5.39" stroke-width="1.2" stroke="#00f" stroke-miterlimit="10" fill="none"/><path d="M163.727 98.38l1.656-24.09" stroke-width="1.2" stroke="#000" stroke-miterlimit="10" fill="none"/><path d="M183.762 111.855l-.828 12.043" stroke-width="1.2" stroke="#00f" stroke-miterlimit="10" fill="none"/><path d="M182.934 123.898l-.825 12.047" stroke-width="1.2" stroke="#000" stroke-miterlimit="10" fill="none"/><path d="M180.762 106.355h7v11h-7zm0 0" fill="#fff"/><use xlink:href="#a" x="180.762" y="115.019" fill="#00f"/><path d="M182.11 135.945l-21.692 10.61M182.438 142.11l-17.352 8.488" stroke-width="1.2" stroke="#000" stroke-miterlimit="10" fill="none"/><path d="M198.902 153.293l-8.398-8.676" stroke-width="1.2" stroke="#00f" stroke-miterlimit="10" fill="none"/><path d="M190.504 144.617l-8.395-8.672M160.418 146.555l1.695 11.953" stroke-width="1.2" stroke="#000" stroke-miterlimit="10" fill="none"/><path d="M162.113 158.508l1.696 11.953M163.81 170.46l11.893 2.083" stroke-width="1.2" stroke="#00f" stroke-miterlimit="10" fill="none"/><path d="M175.703 172.543l11.89 2.082" stroke-width="1.2" stroke="#000" stroke-miterlimit="10" fill="none"/><path d="M167.168 165.28l9.512 1.67" stroke-width="1.2" stroke="#00f" stroke-miterlimit="10" fill="none"/><path d="M176.68 166.95l9.515 1.663" stroke-width="1.2" stroke="#000" stroke-miterlimit="10" fill="none"/><path d="M160.81 164.96h7v11h-7zm0 0" fill="#fff"/><use xlink:href="#a" x="160.809" y="173.624" fill="#00f"/><path d="M187.594 174.625l5.652-10.664" stroke-width="1.2" stroke="#000" stroke-miterlimit="10" fill="none"/><path d="M193.246 163.96l5.656-10.667" stroke-width="1.2" stroke="#00f" stroke-miterlimit="10" fill="none"/><path d="M187.594 174.625l10.613 21.69" stroke-width="1.2" stroke="#000" stroke-miterlimit="10" fill="none"/><path d="M198.902 153.293l11.953-1.695" stroke-width="1.2" stroke="#00f" stroke-miterlimit="10" fill="none"/><path d="M210.855 151.598l11.954-1.696" stroke-width="1.2" stroke="#000" stroke-miterlimit="10" fill="none"/><path d="M195.902 147.793h7v11h-7zm0 0" fill="#fff"/><use xlink:href="#a" x="195.902" y="156.456" fill="#00f"/><path d="M222.81 149.902l9.018-22.398M231.828 127.504l23.906-3.39M216.938 108.496l14.89 19.008M255.734 124.113l9.016-22.398M264.75 101.715l-7.445-9.504" stroke-width="1.2" stroke="#000" stroke-miterlimit="10" fill="none"/><path d="M257.305 92.21l-7.446-9.503M249.86 82.707l-11.954 1.695" stroke-width="1.2" stroke="#00f" stroke-miterlimit="10" fill="none"/><path d="M237.906 84.402l-11.953 1.696" stroke-width="1.2" stroke="#000" stroke-miterlimit="10" fill="none"/><path d="M249.86 82.707l4.51-11.2" stroke-width="1.2" stroke="#00f" stroke-miterlimit="10" fill="none"/><path d="M254.37 71.508l4.51-11.2" stroke-width="1.2" stroke="#000" stroke-miterlimit="10" fill="none"/><path d="M246.86 77.207h7v11h-7zm0 0" fill="#fff"/><use xlink:href="#a" x="246.859" y="85.87" fill="#00f"/><path d="M225.953 86.098l-9.016 22.398M198.207 196.316l-13.48 20.032M201.57 201.488l-10.78 16.028M222.293 197.97l-24.086-1.654M184.727 216.348l10.613 21.69M195.34 238.04l24.09 1.65M198.137 232.535l19.273 1.324M219.43 239.69l13.476-20.034M232.906 219.656l-10.613-21.687M226.742 219.984l-8.492-17.35" stroke-width="1.2" stroke="#000" stroke-miterlimit="10" fill="none"/></g></svg>