<svg xmlns="http://www.w3.org/2000/svg" xmlns:xlink="http://www.w3.org/1999/xlink" width="300pt" height="300pt" viewBox="0 0 300 300"><defs><symbol overflow="visible"><path d="M.594 2.125V-8.47h6V2.126zm.672-.672h4.671V-7.78h-4.67zm0 0"/></symbol><symbol overflow="visible" id="a"><path d="M4.734-7.953c-.867 0-1.554.324-2.062.97-.5.635-.75 1.51-.75 2.624 0 1.094.25 1.965.75 2.61.508.637 1.195.953 2.062.953.852 0 1.532-.316 2.032-.953.507-.645.765-1.516.765-2.61 0-1.113-.257-1.988-.764-2.624-.5-.645-1.18-.97-2.032-.97zm0-.953c1.22 0 2.192.414 2.922 1.234.74.824 1.11 1.93 1.11 3.313 0 1.376-.37 2.477-1.11 3.298C6.926-.24 5.953.17 4.734.17c-1.23 0-2.214-.41-2.953-1.234C1.04-1.882.673-2.984.673-4.36c0-1.382.367-2.488 1.11-3.312.738-.82 1.722-1.234 2.952-1.234zm0 0"/></symbol><symbol overflow="visible" id="b"><path d="M1.172-8.75H2.36v3.594h4.296V-8.75h1.188V0H6.656v-4.172H2.36V0H1.17zm0 0"/></symbol></defs><g><path fill="#fff" d="M0 0h300v300H0z"/><path d="M84.09 218.07l7.09-13.492" stroke-width="1.2" stroke="#000" stroke-miterlimit="10" fill="none"/><path d="M91.18 204.578l7.09-13.492M98.27 191.086L90.13 178.2" stroke-width="1.2" stroke="#f00" stroke-miterlimit="10" fill="none"/><path d="M90.13 178.2l-8.138-12.887" stroke-width="1.2" stroke="#000" stroke-miterlimit="10" fill="none"/><path d="M93.27 184.086h10v14h-10zm0 0" fill="#fff"/><use xlink:href="#a" x="93.27" y="195.225" fill="#f00"/><path d="M81.992 165.313l-30.46 1.21M78.66 158.266l-24.367.972M96.168 138.328l-14.176 26.984M51.53 166.523l-16.28-25.77M35.25 140.754l14.18-26.988M43.016 141.39L54.36 119.8M49.43 113.766l30.46-1.21M79.89 112.555l16.278 25.773M75.453 118.96l13.024 20.622M96.168 138.328l30.46-1.215M126.63 137.113l14.18-26.984M134.398 137.75l11.344-21.586" stroke-width="1.2" stroke="#000" stroke-miterlimit="10" fill="none"/><path d="M142.91 162.887L134.77 150" stroke-width="1.2" stroke="#f00" stroke-miterlimit="10" fill="none"/><path d="M134.77 150l-8.14-12.887M140.81 110.13l30.46-1.216M174.445 110.582l7.09-13.492" stroke-width="1.2" stroke="#000" stroke-miterlimit="10" fill="none"/><path d="M181.535 97.09l7.09-13.492" stroke-width="1.2" stroke="#f00" stroke-miterlimit="10" fill="none"/><path d="M168.094 107.246l7.09-13.492" stroke-width="1.2" stroke="#000" stroke-miterlimit="10" fill="none"/><path d="M175.184 93.754l7.09-13.492" stroke-width="1.2" stroke="#f00" stroke-miterlimit="10" fill="none"/><path d="M171.27 108.914l16.28 25.773" stroke-width="1.2" stroke="#000" stroke-miterlimit="10" fill="none"/><path d="M180.45 74.93h10v14h-10zm0 0" fill="#fff"/><use xlink:href="#a" x="180.449" y="86.068" fill="#f00"/><path d="M187.55 134.688l-14.18 26.984M192.48 140.723l-11.343 21.59M218.008 133.477l-30.457 1.21M173.37 161.672l-15.23.61" stroke-width="1.2" stroke="#000" stroke-miterlimit="10" fill="none"/><path d="M158.14 162.28l-15.23.607" stroke-width="1.2" stroke="#f00" stroke-miterlimit="10" fill="none"/><path d="M173.37 161.672l16.282 25.773" stroke-width="1.2" stroke="#000" stroke-miterlimit="10" fill="none"/><path d="M137.91 155.887h10v14h-10zm0 0" fill="#fff"/><use xlink:href="#a" x="137.91" y="167.025" fill="#f00"/><path d="M189.652 187.445l30.457-1.21M192.41 180.156l24.367-.97M220.11 186.234l14.18-26.988M234.29 159.246l-16.282-25.77M226.598 160.5l-13.024-20.617M234.29 159.246l15.23-.605" stroke-width="1.2" stroke="#000" stroke-miterlimit="10" fill="none"/><path d="M249.52 158.64l15.23-.605" stroke-width="1.2" stroke="#f00" stroke-miterlimit="10" fill="none"/><path d="M255.75 151.035h19v14h-19zm0 0" fill="#fff"/><g fill="#f00"><use xlink:href="#a" x="255.75" y="162.174"/><use xlink:href="#b" x="265.195" y="162.174"/></g></g></svg>