<svg xmlns="http://www.w3.org/2000/svg" xmlns:xlink="http://www.w3.org/1999/xlink" width="300pt" height="300pt" viewBox="0 0 300 300"><defs><symbol overflow="visible"><path d="M.64 2.297v-11.47h6.5v11.47zm.735-.72h5.047V-8.436H1.375zm0 0"/></symbol><symbol overflow="visible" id="a"><path d="M5.125-8.61c-.938 0-1.684.352-2.234 1.047-.542.688-.812 1.633-.812 2.83 0 1.198.27 2.147.813 2.842.55.687 1.297 1.03 2.235 1.03.926 0 1.66-.343 2.203-1.03.55-.696.828-1.645.828-2.844 0-1.196-.277-2.14-.828-2.829-.543-.695-1.277-1.046-2.203-1.046zm0-1.046c1.32 0 2.38.45 3.172 1.344.8.898 1.203 2.09 1.203 3.578 0 1.5-.402 2.7-1.203 3.593C7.504-.255 6.445.186 5.125.186c-1.336 0-2.402-.44-3.203-1.328C1.13-2.036.734-3.235.734-4.735c0-1.49.395-2.68 1.188-3.579.8-.894 1.867-1.343 3.203-1.343zm0 0"/></symbol><symbol overflow="visible" id="b"><path d="M1.28-9.484h1.282v3.89H7.22v-3.89H8.5V0H7.22v-4.516H2.562V0H1.28zm0 0"/></symbol></defs><g><path fill="#fff" d="M0 0h300v300H0z"/><path d="M35.25 133.973l10.203-31.653M43.72 133.207l8.163-25.32M57.56 158.637l-22.31-24.664M45.453 102.32l32.516-6.992M77.97 95.328l22.307 24.664M74.395 103.047l17.85 19.73M100.277 119.992l-10.203 31.653" stroke-width="1.2" stroke="#000" stroke-miterlimit="10" fill="none"/><path d="M132.793 113.004l-16.258 3.496" stroke-width="1.2" stroke="#f00" stroke-miterlimit="10" fill="none"/><path d="M116.535 116.5l-16.258 3.492M90.074 151.645l-32.515 6.992M85.18 144.695l-26.012 5.59M90.074 151.645l22.31 24.664M108.66 175.11l-5.1 15.824" stroke-width="1.2" stroke="#000" stroke-miterlimit="10" fill="none"/><path d="M103.56 190.934l-5.103 15.828" stroke-width="1.2" stroke="#f00" stroke-miterlimit="10" fill="none"/><path d="M116.105 177.512l-5.1 15.824" stroke-width="1.2" stroke="#000" stroke-miterlimit="10" fill="none"/><path d="M111.004 193.336l-5.102 15.828" stroke-width="1.2" stroke="#f00" stroke-miterlimit="10" fill="none"/><path d="M112.383 176.31l32.515-6.99" stroke-width="1.2" stroke="#000" stroke-miterlimit="10" fill="none"/><path d="M91.18 199.96h11v16h-11zm0 0" fill="#fff"/><use xlink:href="#a" x="91.18" y="212.337" fill="#f00"/><path d="M144.898 169.32l10.204-31.652M138.47 163.754l8.163-25.32M144.898 169.32l11.153 12.332" stroke-width="1.2" stroke="#000" stroke-miterlimit="10" fill="none"/><path d="M156.05 181.652l11.157 12.332" stroke-width="1.2" stroke="#f00" stroke-miterlimit="10" fill="none"/><path d="M155.102 137.668l-11.153-12.332" stroke-width="1.2" stroke="#000" stroke-miterlimit="10" fill="none"/><path d="M143.95 125.336l-11.157-12.332" stroke-width="1.2" stroke="#f00" stroke-miterlimit="10" fill="none"/><path d="M155.102 137.668l32.515-6.988" stroke-width="1.2" stroke="#000" stroke-miterlimit="10" fill="none"/><path d="M127.793 105.004h11v16h-11zm0 0" fill="#fff"/><use xlink:href="#a" x="127.793" y="117.38" fill="#f00"/><path d="M187.617 130.68l22.31 24.664M195.652 127.895L213.5 147.63M197.82 99.027l-10.203 31.653M209.926 155.344l32.515-6.99M242.44 148.355l10.205-31.652M236.012 142.79l8.164-25.325M242.44 148.355l11.154 12.333" stroke-width="1.2" stroke="#000" stroke-miterlimit="10" fill="none"/><path d="M253.594 160.688l11.156 12.332" stroke-width="1.2" stroke="#f00" stroke-miterlimit="10" fill="none"/><path d="M252.645 116.703l-22.31-24.664M230.336 92.04l-32.516 6.987M228.727 100.387l-26.008 5.59" stroke-width="1.2" stroke="#000" stroke-miterlimit="10" fill="none"/><path d="M254.75 165.02h21v16h-21zm0 0" fill="#fff"/><g fill="#f00"><use xlink:href="#a" x="254.75" y="177.396"/><use xlink:href="#b" x="265.24" y="177.396"/></g><path d="M157.207 185.984h21v16h-21zm0 0" fill="#fff"/><g fill="#f00"><use xlink:href="#a" x="157.207" y="198.36"/><use xlink:href="#b" x="167.697" y="198.36"/></g></g></svg>