<svg xmlns="http://www.w3.org/2000/svg" xmlns:xlink="http://www.w3.org/1999/xlink" width="300pt" height="300pt" viewBox="0 0 300 300"><defs><symbol overflow="visible"><path d="M.453 1.594v-7.938h4.5v7.938zm.5-.5h3.5v-6.938h-3.5zm0 0"/></symbol><symbol overflow="visible" id="a"><path d="M3.547-5.953c-.65 0-1.164.242-1.547.72-.375.48-.563 1.13-.563 1.952 0 .835.188 1.49.563 1.967.383.48.898.72 1.547.72.644 0 1.156-.24 1.53-.72.376-.476.564-1.132.564-1.968 0-.822-.187-1.474-.562-1.954-.375-.477-.887-.72-1.53-.72zm0-.734c.914 0 1.648.312 2.203.937.55.617.828 1.438.828 2.47 0 1.042-.277 1.87-.828 2.483-.555.617-1.29.922-2.203.922-.93 0-1.668-.305-2.22-.922C.774-1.41.5-2.237.5-3.28c0-1.033.273-1.853.828-2.47.55-.625 1.29-.938 2.22-.938zm0 0"/></symbol><symbol overflow="visible" id="b"><path d="M.89-6.563h.876v2.688H5v-2.688h.89V0H5v-3.125H1.766V0H.89zm0 0"/></symbol></defs><g><path fill="#fff" d="M0 0h300v300H0z"/><path d="M99.324 200.484l-9.457-20.617M89.867 179.867l-22.582-2.12M88.11 174.34l-18.067-1.695M102.996 161.37l-13.13 18.497M67.285 177.746l-9.453-20.62M57.832 157.125l13.13-18.496M63.496 158.367L74 143.57M57.832 157.125l-11.29-1.06" stroke-width="1.2" stroke="#000" stroke-miterlimit="10" fill="none"/><path d="M46.543 156.066l-11.293-1.062" stroke-width="1.2" stroke="#f00" stroke-miterlimit="10" fill="none"/><path d="M70.96 138.63l22.583 2.12M70.96 138.63L61.51 118.01M93.543 140.75l9.453 20.62M89.637 145.04l7.562 16.49M93.543 140.75l6.566-9.246" stroke-width="1.2" stroke="#000" stroke-miterlimit="10" fill="none"/><path d="M100.11 131.504l6.562-9.25" stroke-width="1.2" stroke="#f00" stroke-miterlimit="10" fill="none"/><path d="M102.996 161.37l22.586 2.122M123.156 164.602l4.727 10.312" stroke-width="1.2" stroke="#000" stroke-miterlimit="10" fill="none"/><path d="M127.883 174.914l4.726 10.31" stroke-width="1.2" stroke="#f00" stroke-miterlimit="10" fill="none"/><path d="M128.004 162.38l4.73 10.308" stroke-width="1.2" stroke="#000" stroke-miterlimit="10" fill="none"/><path d="M132.734 172.688l4.727 10.308" stroke-width="1.2" stroke="#f00" stroke-miterlimit="10" fill="none"/><path d="M125.582 163.492l6.563-9.25" stroke-width="1.2" stroke="#000" stroke-miterlimit="10" fill="none"/><path d="M132.145 154.242l6.562-9.246" stroke-width="1.2" stroke="#f00" stroke-miterlimit="10" fill="none"/><path d="M131.035 178.61h8v11h-8zm0 0" fill="#fff"/><use xlink:href="#a" x="131.035" y="187.272" fill="#f00"/><path d="M138.707 144.996l11.293 1.06" stroke-width="1.2" stroke="#f00" stroke-miterlimit="10" fill="none"/><path d="M150 146.055l11.293 1.062" stroke-width="1.2" stroke="#000" stroke-miterlimit="10" fill="none"/><path d="M134.707 139.496h8v11h-8zm0 0" fill="#fff"/><use xlink:href="#a" x="134.707" y="148.159" fill="#f00"/><path d="M161.293 147.117l9.453 20.617M167.09 146.953l7.562 16.496M174.418 128.62l-13.125 18.497M170.746 167.734l22.582 2.12M170.746 167.734l-13.13 18.496M193.328 169.855l13.13-18.496M190.29 164.918l10.503-14.797M193.328 169.855l4.727 10.31" stroke-width="1.2" stroke="#000" stroke-miterlimit="10" fill="none"/><path d="M198.055 180.164l4.726 10.31" stroke-width="1.2" stroke="#f00" stroke-miterlimit="10" fill="none"/><path d="M206.457 151.36l-9.453-20.618M206.457 151.36l22.582 2.12M197.004 130.742l-22.586-2.12M194.246 135.844l-18.066-1.7M197.004 130.742l13.13-18.496M226.613 154.594l4.727 10.308" stroke-width="1.2" stroke="#000" stroke-miterlimit="10" fill="none"/><path d="M231.34 164.902l4.726 10.31" stroke-width="1.2" stroke="#f00" stroke-miterlimit="10" fill="none"/><path d="M231.465 152.367l4.726 10.31" stroke-width="1.2" stroke="#000" stroke-miterlimit="10" fill="none"/><path d="M236.19 162.676l4.728 10.308" stroke-width="1.2" stroke="#f00" stroke-miterlimit="10" fill="none"/><path d="M229.04 153.48l6.562-9.246" stroke-width="1.2" stroke="#000" stroke-miterlimit="10" fill="none"/><path d="M235.602 144.234l6.566-9.25" stroke-width="1.2" stroke="#f00" stroke-miterlimit="10" fill="none"/><path d="M234.492 168.598h8v11h-8zm0 0" fill="#fff"/><use xlink:href="#a" x="234.492" y="177.261" fill="#f00"/><path d="M242.168 134.984l11.29 1.063" stroke-width="1.2" stroke="#f00" stroke-miterlimit="10" fill="none"/><path d="M253.457 136.047l11.293 1.058" stroke-width="1.2" stroke="#000" stroke-miterlimit="10" fill="none"/><path d="M238.168 129.484h8v11h-8zm0 0" fill="#fff"/><use xlink:href="#a" x="238.168" y="138.147" fill="#f00"/><path d="M195.78 184.973h15v11h-15zm0 0" fill="#fff"/><g fill="#f00"><use xlink:href="#a" x="195.781" y="193.636"/><use xlink:href="#b" x="203.123" y="193.636"/></g><path d="M99.672 116.754h15v11h-15zm0 0" fill="#fff"/><g fill="#f00"><use xlink:href="#a" x="99.672" y="125.417"/><use xlink:href="#b" x="107.014" y="125.417"/></g><path d="M63.684 119.56l6.562-9.25" stroke-width="1.2" stroke="#000" stroke-miterlimit="10" fill="none"/><path d="M70.246 110.31l6.567-9.248" stroke-width="1.2" stroke="#f00" stroke-miterlimit="10" fill="none"/><path d="M59.332 116.47l6.563-9.25" stroke-width="1.2" stroke="#000" stroke-miterlimit="10" fill="none"/><path d="M65.895 107.22l6.566-9.247" stroke-width="1.2" stroke="#f00" stroke-miterlimit="10" fill="none"/><path d="M70.637 94.016h8v11h-8zm0 0" fill="#fff"/><use xlink:href="#a" x="70.637" y="102.679" fill="#f00"/><path d="M20.25 149.504h15v11h-15zm0 0" fill="#fff"/><g fill="#f00"><use xlink:href="#b" x="20.25" y="158.167"/><use xlink:href="#a" x="27.265" y="158.167"/></g></g></svg>