<svg xmlns="http://www.w3.org/2000/svg" xmlns:xlink="http://www.w3.org/1999/xlink" width="300pt" height="300pt" viewBox="0 0 300 300"><defs><symbol overflow="visible"><path d="M.797 2.828v-14.11h8V2.83zm.906-.89h6.203v-12.33H1.703zm0 0"/></symbol><symbol overflow="visible" id="a"><path d="M10.313-10.766v1.657c-.532-.488-1.102-.85-1.704-1.093-.606-.25-1.247-.375-1.922-.375-1.336 0-2.356.406-3.063 1.22-.71.81-1.063 1.99-1.063 3.53 0 1.543.352 2.72 1.063 3.53.707.814 1.727 1.22 3.063 1.22.675 0 1.316-.117 1.92-.36.603-.25 1.173-.617 1.704-1.11v1.642c-.554.375-1.14.664-1.765.86-.617.187-1.266.28-1.953.28-1.762 0-3.153-.54-4.172-1.625C1.41-2.474.906-3.954.906-5.83c0-1.875.504-3.348 1.516-4.422 1.02-1.082 2.41-1.625 4.172-1.625.695 0 1.35.094 1.968.28.626.18 1.208.454 1.75.83zm0 0"/></symbol><symbol overflow="visible" id="b"><path d="M1.516-12.156h1.437V0H1.516zm0 0"/></symbol><symbol overflow="visible" id="c"><path d="M8.563-11.28v1.53c-.594-.28-1.157-.488-1.688-.625-.53-.145-1.047-.22-1.547-.22-.855 0-1.516.17-1.984.5-.47.337-.703.81-.703 1.423 0 .512.157.902.47 1.172.312.262.898.47 1.765.625l.953.203c1.176.22 2.04.617 2.594 1.188.562.562.844 1.32.844 2.265 0 1.126-.383 1.986-1.14 2.58-.75.585-1.86.874-3.33.874-.554 0-1.14-.07-1.765-.203-.616-.124-1.257-.303-1.92-.546V-2.14c.632.355 1.257.624 1.874.812.614.18 1.22.266 1.813.266.906 0 1.6-.176 2.094-.532.49-.35.735-.86.735-1.515 0-.57-.18-1.02-.53-1.343-.357-.32-.935-.563-1.736-.72l-.954-.186c-1.18-.238-2.03-.61-2.562-1.11-.524-.5-.782-1.19-.782-2.077 0-1.03.36-1.844 1.08-2.437.725-.594 1.733-.89 3.014-.89.54 0 1.094.054 1.657.155.57.095 1.156.243 1.75.44zm0 0"/></symbol><symbol overflow="visible" id="d"><path d="M1.578-11.672h1.578v4.78H8.89v-4.78h1.58V0H8.89v-5.563H3.157V0H1.578zm0 0"/></symbol><symbol overflow="visible" id="e"><path d="M6.313-10.594c-1.15 0-2.06.43-2.735 1.28-.68.857-1.015 2.017-1.015 3.486 0 1.47.335 2.633 1.015 3.484.676.856 1.586 1.28 2.735 1.28 1.144.002 2.05-.424 2.718-1.28.665-.85 1-2.015 1-3.484 0-1.47-.335-2.63-1-3.484-.667-.852-1.573-1.282-2.717-1.282zm0-1.28c1.632 0 2.94.546 3.92 1.64.978 1.093 1.47 2.562 1.47 4.406 0 1.844-.492 3.32-1.47 4.422-.98 1.093-2.288 1.64-3.92 1.64-1.65 0-2.96-.546-3.938-1.64-.98-1.102-1.47-2.578-1.47-4.422 0-1.844.49-3.313 1.47-4.406.977-1.094 2.29-1.64 3.938-1.64zm0 0"/></symbol></defs><g><path fill="#fff" d="M0 0h300v300H0z"/><path d="M32.145 166.426l3.046-38.13M41.418 163.328l2.44-30.5M63.64 188.13l-31.495-21.704M35.19 128.297l34.544-16.426M69.734 111.87l31.496 21.704M67.777 121.453l25.2 17.363M69.734 111.87l1.524-19.06" stroke-width="1.2" stroke="#000" stroke-miterlimit="10" fill="none"/><path d="M71.258 92.81l1.527-19.068" stroke-width="1.2" stroke="#f00" stroke-miterlimit="10" fill="none"/><path d="M101.23 133.574l-3.046 38.13M101.23 133.574l17.274-8.21" stroke-width="1.2" stroke="#000" stroke-miterlimit="10" fill="none"/><path d="M118.504 125.363l17.273-8.21" stroke-width="1.2" stroke="#cc0" stroke-miterlimit="10" fill="none"/><path d="M98.184 171.703L63.64 188.13M90.863 165.22L63.23 178.36M63.64 188.13l-1.523 19.06" stroke-width="1.2" stroke="#000" stroke-miterlimit="10" fill="none"/><path d="M62.117 207.19l-1.523 19.068" stroke-width="1.2" stroke="#0c0" stroke-miterlimit="10" fill="none"/><path d="M52.594 216.758h16v19h-16zm0 0" fill="#fff"/><g fill="#0c0"><use xlink:href="#a" x="52.594" y="231.609"/><use xlink:href="#b" x="63.766" y="231.609"/></g><path d="M135.777 117.152l15.746 10.852" stroke-width="1.2" stroke="#cc0" stroke-miterlimit="10" fill="none"/><path d="M151.523 128.004l15.75 10.85" stroke-width="1.2" stroke="#000" stroke-miterlimit="10" fill="none"/><path d="M130.777 107.652h11v19h-11zm0 0" fill="#fff"/><use xlink:href="#c" x="130.777" y="122.504" fill="#cc0"/><path d="M167.273 138.855l-3.05 38.13M175.938 143.383l-2.438 30.504M201.816 122.43l-34.543 16.425M164.223 176.984l31.496 21.703M164.223 176.984l-17.27 8.21" stroke-width="1.2" stroke="#000" stroke-miterlimit="10" fill="none"/><path d="M146.953 185.195l-17.273 8.21" stroke-width="1.2" stroke="#f00" stroke-miterlimit="10" fill="none"/><path d="M195.72 198.688l34.546-16.426M195.31 188.914l27.635-13.137M230.266 182.262l3.047-38.13M233.313 144.133l-31.497-21.703M225.055 149.375l-25.196-17.363M233.313 144.133l17.273-8.21" stroke-width="1.2" stroke="#000" stroke-miterlimit="10" fill="none"/><path d="M250.586 135.922l17.27-8.215" stroke-width="1.2" stroke="#0c0" stroke-miterlimit="10" fill="none"/><path d="M259.855 118.207h16v19h-16zm0 0" fill="#fff"/><g fill="#0c0"><use xlink:href="#a" x="259.855" y="133.059"/><use xlink:href="#b" x="271.027" y="133.059"/></g><path d="M104.68 183.906h25v19h-25zm0 0" fill="#fff"/><g fill="#f00"><use xlink:href="#d" x="104.68" y="198.758"/><use xlink:href="#e" x="116.711" y="198.758"/></g><path d="M60.785 64.242h25v19h-25zm0 0" fill="#fff"/><g fill="#f00"><use xlink:href="#e" x="60.785" y="79.094"/><use xlink:href="#d" x="73.379" y="79.094"/></g></g></svg>