<svg xmlns="http://www.w3.org/2000/svg" xmlns:xlink="http://www.w3.org/1999/xlink" width="300pt" height="300pt" viewBox="0 0 300 300"><defs><symbol overflow="visible"><path d="M.64 2.297v-11.47h6.5v11.47zm.735-.72h5.047V-8.436H1.375zm0 0"/></symbol><symbol overflow="visible" id="a"><path d="M1.28-9.484H3l4.203 7.937v-7.937h1.25V0H6.72L2.515-7.922V0H1.28zm0 0"/></symbol><symbol overflow="visible" id="b"><path d="M1.28-9.484h1.282v3.89H7.22v-3.89H8.5V0H7.22v-4.516H2.562V0H1.28zm0 0"/></symbol><symbol overflow="visible" id="d"><path d="M5.125-8.61c-.938 0-1.684.352-2.234 1.047-.542.688-.812 1.633-.812 2.83 0 1.198.27 2.147.813 2.842.55.687 1.297 1.03 2.235 1.03.926 0 1.66-.343 2.203-1.03.55-.696.828-1.645.828-2.844 0-1.196-.277-2.14-.828-2.829-.543-.695-1.277-1.046-2.203-1.046zm0-1.046c1.32 0 2.38.45 3.172 1.344.8.898 1.203 2.09 1.203 3.578 0 1.5-.402 2.7-1.203 3.593C7.504-.255 6.445.186 5.125.186c-1.336 0-2.402-.44-3.203-1.328C1.13-2.036.734-3.235.734-4.735c0-1.49.395-2.68 1.188-3.579.8-.894 1.867-1.343 3.203-1.343zm0 0"/></symbol><symbol overflow="visible"><path d="M.547 1.938V-7.75h5.5v9.688zm.625-.61h4.266v-8.47H1.171zm0 0"/></symbol><symbol overflow="visible" id="c"><path d="M2.11-.906h3.78V0H.814v-.906c.406-.426.96-1 1.67-1.72.72-.718 1.165-1.18 1.345-1.39.344-.394.582-.726.72-1 .143-.27.218-.535.218-.796 0-.426-.153-.77-.454-1.032-.292-.27-.683-.406-1.17-.406-.337 0-.697.063-1.08.188-.374.117-.777.292-1.203.53v-1.093c.437-.176.843-.313 1.218-.406.383-.095.735-.142 1.047-.142.832 0 1.492.21 1.984.625.5.418.75.977.75 1.672 0 .336-.063.648-.188.938-.125.292-.352.64-.672 1.046-.094.105-.383.406-.86.906L2.11-.906zm0 0"/></symbol></defs><g><path fill="#fff" d="M0 0h300v300H0z"/><path d="M236.063 166.563l-28.688 16.562M229.297 161.47l-22.95 13.25M236.063 133.438v33.125M207.375 183.125l-28.688-16.563M178.688 166.563v-33.125M186.48 163.25v-26.5M178.688 166.563l-14.344 8.28" stroke-width="1.2" stroke="#000" stroke-miterlimit="10" fill="none"/><path d="M164.344 174.844L150 183.124" stroke-width="1.2" stroke="#f00" stroke-miterlimit="10" fill="none"/><path d="M178.688 133.438l28.687-16.563M207.375 116.875l28.688 16.563M206.348 125.28l22.95 13.25M236.063 133.438l14.343-8.282" stroke-width="1.2" stroke="#000" stroke-miterlimit="10" fill="none"/><path d="M250.406 125.156l14.344-8.28" stroke-width="1.2" stroke="#00f" stroke-miterlimit="10" fill="none"/><path d="M250.75 106.875h28v20h-28zm0 0" fill="#fff"/><g fill="#00f"><use xlink:href="#a" x="250.75" y="119.251"/><use xlink:href="#b" x="260.72" y="119.251"/></g><use xlink:href="#c" x="270.742" y="124.134" fill="#00f"/><path d="M150 183.125l-14.344-8.28" stroke-width="1.2" stroke="#f00" stroke-miterlimit="10" fill="none"/><path d="M135.656 174.844l-14.344-8.28" stroke-width="1.2" stroke="#000" stroke-miterlimit="10" fill="none"/><path d="M145 175.125h11v16h-11zm0 0" fill="#fff"/><use xlink:href="#d" x="145" y="187.501" fill="#f00"/><path d="M121.313 166.563v-33.125M113.52 163.25v-26.5M92.625 183.125l28.688-16.563M121.313 133.438l-28.688-16.563M92.625 116.875l-28.688 16.563M93.652 125.28l-22.95 13.25M63.938 133.438v33.125M63.938 133.438l-14.344-8.282" stroke-width="1.2" stroke="#000" stroke-miterlimit="10" fill="none"/><path d="M49.594 125.156l-14.344-8.28" stroke-width="1.2" stroke="#00f" stroke-miterlimit="10" fill="none"/><path d="M63.938 166.563l28.687 16.562M70.703 161.47l22.95 13.25" stroke-width="1.2" stroke="#000" stroke-miterlimit="10" fill="none"/><path d="M7.25 106.875h28v20h-28zm0 0" fill="#fff"/><use xlink:href="#b" x="7.25" y="119.251" fill="#00f"/><use xlink:href="#c" x="17.272" y="124.134" fill="#00f"/><use xlink:href="#a" x="24.341" y="119.251" fill="#00f"/></g></svg>