<svg xmlns="http://www.w3.org/2000/svg" xmlns:xlink="http://www.w3.org/1999/xlink" width="300pt" height="300pt" viewBox="0 0 300 300"><defs><symbol overflow="visible"><path d="M.453 1.594v-7.938h4.5v7.938zm.5-.5h3.5v-6.938h-3.5zm0 0"/></symbol><symbol overflow="visible" id="a"><path d="M.89-6.563H2.08l2.906 5.485v-5.484h.86V0H4.656L1.75-5.484V0H.89zm0 0"/></symbol><symbol overflow="visible" id="b"><path d="M3.547-5.953c-.65 0-1.164.242-1.547.72-.375.48-.563 1.13-.563 1.952 0 .835.188 1.49.563 1.967.383.48.898.72 1.547.72.644 0 1.156-.24 1.53-.72.376-.476.564-1.132.564-1.968 0-.822-.187-1.474-.562-1.954-.375-.477-.887-.72-1.53-.72zm0-.734c.914 0 1.648.312 2.203.937.55.617.828 1.438.828 2.47 0 1.042-.277 1.87-.828 2.483-.555.617-1.29.922-2.203.922-.93 0-1.668-.305-2.22-.922C.774-1.41.5-2.237.5-3.28c0-1.033.273-1.853.828-2.47.55-.625 1.29-.938 2.22-.938zm0 0"/></symbol><symbol overflow="visible" id="c"><path d="M.89-6.563h.876v2.688H5v-2.688h.89V0H5v-3.125H1.766V0H.89zm0 0"/></symbol><symbol overflow="visible" id="d"><path d="M4.813-6.344v.86c-.336-.157-.653-.27-.954-.344-.294-.082-.58-.125-.86-.125-.492 0-.867.094-1.125.28-.262.19-.39.454-.39.798 0 .293.085.512.265.656.176.15.504.267.984.36l.547.11c.658.125 1.142.352 1.454.672.32.312.485.734.485 1.265 0 .637-.216 1.122-.642 1.454-.43.325-1.055.485-1.875.485-.312 0-.648-.04-1-.11C1.36-.046 1-.147.625-.296v-.906c.352.2.703.35 1.047.453.35.105.695.156 1.03.156.5 0 .884-.097 1.157-.297.28-.196.42-.485.42-.86 0-.32-.1-.57-.296-.75-.2-.176-.523-.313-.968-.406l-.547-.11C1.81-3.148 1.33-3.36 1.03-3.64.74-3.923.595-4.313.595-4.813c0-.57.203-1.024.61-1.36.405-.344.968-.516 1.687-.516.313 0 .626.032.938.094.32.055.65.137.985.25zm0 0"/></symbol><symbol overflow="visible" id="e"><path d="M5.797-6.063v.938c-.305-.27-.625-.473-.97-.61-.335-.144-.686-.218-1.06-.218-.75 0-1.33.23-1.736.687-.397.46-.592 1.12-.592 1.985 0 .866.195 1.526.593 1.983.408.46.986.688 1.736.688.375 0 .726-.066 1.062-.203.344-.132.664-.343.97-.625V-.5c-.314.21-.642.367-.986.47-.343.1-.714.155-1.11.155-.99 0-1.772-.3-2.343-.906C.784-1.396.5-2.228.5-3.28c0-1.052.285-1.88.86-2.486.57-.613 1.35-.92 2.343-.92.395-.002.766.053 1.11.155.35.104.68.26.984.468zm0 0"/></symbol><symbol overflow="visible" id="f"><path d="M.844-6.844h.812V0H.844zm0 0"/></symbol></defs><g><path fill="#fff" d="M0 0h300v300H0z"/><path d="M178.37 174.29l-15.124-10.802M179.398 169.652l-12.097-8.644M195.29 166.594l-16.92 7.695M163.246 163.488l-8.46 3.848" stroke-width="1.2" stroke="#000" stroke-miterlimit="10" fill="none"/><path d="M154.785 167.336l-8.457 3.85" stroke-width="1.2" stroke="#00f" stroke-miterlimit="10" fill="none"/><path d="M163.246 163.488l1.793-18.5" stroke-width="1.2" stroke="#000" stroke-miterlimit="10" fill="none"/><path d="M146.328 171.188l-1.86 9.105" stroke-width="1.2" stroke="#00f" stroke-miterlimit="10" fill="none"/><path d="M144.47 180.293l-1.86 9.105M130.156 162.023l8.086 4.582" stroke-width="1.2" stroke="#000" stroke-miterlimit="10" fill="none"/><path d="M138.242 166.605l8.086 4.583" stroke-width="1.2" stroke="#00f" stroke-miterlimit="10" fill="none"/><path d="M143.328 165.688h7v11h-7zm0 0" fill="#fff"/><use xlink:href="#a" x="143.328" y="174.351" fill="#00f"/><path d="M140.996 190.87l6.277 6.857" stroke-width="1.2" stroke="#000" stroke-miterlimit="10" fill="none"/><path d="M147.273 197.727l6.274 6.855" stroke-width="1.2" stroke="#f00" stroke-miterlimit="10" fill="none"/><path d="M144.223 187.922l6.277 6.855" stroke-width="1.2" stroke="#000" stroke-miterlimit="10" fill="none"/><path d="M150.5 194.777l6.273 6.856" stroke-width="1.2" stroke="#f00" stroke-miterlimit="10" fill="none"/><path d="M142.61 189.398l-9.235 1.043" stroke-width="1.2" stroke="#000" stroke-miterlimit="10" fill="none"/><path d="M133.375 190.44l-9.234 1.048" stroke-width="1.2" stroke="#f00" stroke-miterlimit="10" fill="none"/><path d="M151.16 197.61h8v11h-8zm0 0" fill="#fff"/><use xlink:href="#b" x="151.16" y="206.272" fill="#f00"/><path d="M124.14 191.488l-3.847-8.457" stroke-width="1.2" stroke="#f00" stroke-miterlimit="10" fill="none"/><path d="M120.293 183.03l-3.848-8.46" stroke-width="1.2" stroke="#000" stroke-miterlimit="10" fill="none"/><path d="M120.14 185.988h8v11h-8zm0 0" fill="#fff"/><use xlink:href="#b" x="120.141" y="194.651" fill="#f00"/><path d="M116.445 174.57l-17.554-6.93-1.312 6.43zm0 0"/><path d="M116.445 174.57l13.71-12.547M98.234 170.855l-2.945-8.816" stroke-width="1.2" stroke="#000" stroke-miterlimit="10" fill="none"/><path d="M95.29 162.04l-2.942-8.813M92.348 153.227l-9.106-1.86" stroke-width="1.2" stroke="#00f" stroke-miterlimit="10" fill="none"/><path d="M83.242 151.367l-9.105-1.86" stroke-width="1.2" stroke="#000" stroke-miterlimit="10" fill="none"/><path d="M85.348 147.727h14v11h-14zm0 0" fill="#fff"/><g fill="#00f"><use xlink:href="#a" x="85.348" y="156.39"/><use xlink:href="#c" x="92.325" y="156.39"/></g><path d="M72.5 148.06l-6.164 6.956" stroke-width="1.2" stroke="#000" stroke-miterlimit="10" fill="none"/><path d="M66.336 155.016l-6.16 6.957" stroke-width="1.2" stroke="#f00" stroke-miterlimit="10" fill="none"/><path d="M75.773 150.96l-6.164 6.958" stroke-width="1.2" stroke="#000" stroke-miterlimit="10" fill="none"/><path d="M69.61 157.918l-6.16 6.953" stroke-width="1.2" stroke="#f00" stroke-miterlimit="10" fill="none"/><path d="M74.137 149.508l-5.887-17.63" stroke-width="1.2" stroke="#000" stroke-miterlimit="10" fill="none"/><path d="M53.813 157.922h8v11h-8zm0 0" fill="#fff"/><use xlink:href="#b" x="53.813" y="166.585" fill="#f00"/><path d="M68.25 131.88l-8.863-2.798" stroke-width="1.2" stroke="#000" stroke-miterlimit="10" fill="none"/><path d="M59.387 129.082l-8.86-2.8" stroke-width="1.2" stroke="#cc0" stroke-miterlimit="10" fill="none"/><path d="M79.05 116.754l-10.8 15.125M74.414 115.727l-8.644 12.097" stroke-width="1.2" stroke="#000" stroke-miterlimit="10" fill="none"/><path d="M50.527 126.28l-.078-9.292" stroke-width="1.2" stroke="#cc0" stroke-miterlimit="10" fill="none"/><path d="M50.45 116.988l-.075-9.293" stroke-width="1.2" stroke="#000" stroke-miterlimit="10" fill="none"/><path d="M47.527 120.78h6v11h-6zm0 0" fill="#fff"/><use xlink:href="#d" x="47.527" y="129.444" fill="#cc0"/><path d="M50.375 107.695l-7.563-5.402" stroke-width="1.2" stroke="#000" stroke-miterlimit="10" fill="none"/><path d="M42.813 102.293L35.25 96.89" stroke-width="1.2" stroke="#0c0" stroke-miterlimit="10" fill="none"/><path d="M50.375 107.695l17.63-5.886M53.523 111.254l14.102-4.71" stroke-width="1.2" stroke="#000" stroke-miterlimit="10" fill="none"/><path d="M25.25 91.39h10v11h-10zm0 0" fill="#fff"/><g fill="#0c0"><use xlink:href="#e" x="25.25" y="100.054"/><use xlink:href="#f" x="31.764" y="100.054"/></g><path d="M68.004 101.81l11.047 14.944M165.04 144.988l16.913-7.7M168.54 148.2l13.534-6.157M181.953 137.29l.9-9.25" stroke-width="1.2" stroke="#000" stroke-miterlimit="10" fill="none"/><path d="M182.852 128.04l.894-9.25" stroke-width="1.2" stroke="#0c0" stroke-miterlimit="10" fill="none"/><path d="M181.953 137.29l15.125 10.804" stroke-width="1.2" stroke="#000" stroke-miterlimit="10" fill="none"/><path d="M178.746 113.29h10v11h-10zm0 0" fill="#fff"/><g fill="#0c0"><use xlink:href="#e" x="178.746" y="121.952"/><use xlink:href="#f" x="185.26" y="121.952"/></g><path d="M197.078 148.094l8.46-3.848" stroke-width="1.2" stroke="#000" stroke-miterlimit="10" fill="none"/><path d="M205.54 144.246l8.456-3.85" stroke-width="1.2" stroke="#cc0" stroke-miterlimit="10" fill="none"/><path d="M197.078 148.094l-1.79 18.5M192.547 149.52l-1.434 14.8" stroke-width="1.2" stroke="#000" stroke-miterlimit="10" fill="none"/><path d="M212.008 141.3l3.847 8.462" stroke-width="1.2" stroke="#cc0" stroke-miterlimit="10" fill="none"/><path d="M215.855 149.762l3.848 8.457" stroke-width="1.2" stroke="#f00" stroke-miterlimit="10" fill="none"/><path d="M215.988 139.488l3.848 8.46" stroke-width="1.2" stroke="#cc0" stroke-miterlimit="10" fill="none"/><path d="M219.836 147.95l3.848 8.456" stroke-width="1.2" stroke="#f00" stroke-miterlimit="10" fill="none"/><path d="M215.988 139.488l-3.847-8.457" stroke-width="1.2" stroke="#cc0" stroke-miterlimit="10" fill="none"/><path d="M212.14 131.03l-3.85-8.456" stroke-width="1.2" stroke="#f00" stroke-miterlimit="10" fill="none"/><path d="M212.008 141.3l-3.848-8.456" stroke-width="1.2" stroke="#cc0" stroke-miterlimit="10" fill="none"/><path d="M208.16 132.844l-3.85-8.46" stroke-width="1.2" stroke="#f00" stroke-miterlimit="10" fill="none"/><path d="M213.996 140.395l8.46-3.848" stroke-width="1.2" stroke="#cc0" stroke-miterlimit="10" fill="none"/><path d="M222.457 136.547l8.457-3.848" stroke-width="1.2" stroke="#00f" stroke-miterlimit="10" fill="none"/><path d="M210.996 134.895h6v11h-6zm0 0" fill="#fff"/><use xlink:href="#d" x="210.996" y="143.558" fill="#cc0"/><path d="M217.695 151.813h8v11h-8zm0 0" fill="#fff"/><use xlink:href="#b" x="217.695" y="160.476" fill="#f00"/><path d="M198.3 117.977h8v11h-8zm0 0" fill="#fff"/><use xlink:href="#b" x="198.301" y="126.64" fill="#f00"/><path d="M230.914 132.7l7.563 5.398" stroke-width="1.2" stroke="#00f" stroke-miterlimit="10" fill="none"/><path d="M238.477 138.098l7.562 5.402" stroke-width="1.2" stroke="#000" stroke-miterlimit="10" fill="none"/><path d="M230.914 132.7l.9-9.25" stroke-width="1.2" stroke="#00f" stroke-miterlimit="10" fill="none"/><path d="M231.813 123.45l.894-9.25" stroke-width="1.2" stroke="#000" stroke-miterlimit="10" fill="none"/><path d="M227.914 127.2h7v11h-7zm0 0" fill="#fff"/><use xlink:href="#a" x="227.914" y="135.862" fill="#00f"/><path d="M246.04 143.5l16.917-7.7M262.957 135.8l.898-9.245" stroke-width="1.2" stroke="#000" stroke-miterlimit="10" fill="none"/><path d="M263.855 126.555l.895-9.25M264.75 117.305l-7.563-5.403" stroke-width="1.2" stroke="#f00" stroke-miterlimit="10" fill="none"/><path d="M257.188 111.902l-7.563-5.402" stroke-width="1.2" stroke="#000" stroke-miterlimit="10" fill="none"/><path d="M260.75 111.805h8v11h-8zm0 0" fill="#fff"/><use xlink:href="#b" x="260.75" y="120.468" fill="#f00"/><path d="M232.707 114.2l16.918-7.7" stroke-width="1.2" stroke="#000" stroke-miterlimit="10" fill="none"/></g></svg>