<svg xmlns="http://www.w3.org/2000/svg" xmlns:xlink="http://www.w3.org/1999/xlink" width="300pt" height="300pt" viewBox="0 0 300 300"><defs><symbol overflow="visible"><path d="M.453 1.594v-7.938h4.5v7.938zm.5-.5h3.5v-6.938h-3.5zm0 0"/></symbol><symbol overflow="visible" id="a"><path d="M.89-6.563h.876V0H.89zm0 0"/></symbol><symbol overflow="visible" id="b"><path d="M3.547-5.953c-.65 0-1.164.242-1.547.72-.375.48-.563 1.13-.563 1.952 0 .835.188 1.49.563 1.967.383.48.898.72 1.547.72.644 0 1.156-.24 1.53-.72.376-.476.564-1.132.564-1.968 0-.822-.187-1.474-.562-1.954-.375-.477-.887-.72-1.53-.72zm0-.734c.914 0 1.648.312 2.203.937.55.617.828 1.438.828 2.47 0 1.042-.277 1.87-.828 2.483-.555.617-1.29.922-2.203.922-.93 0-1.668-.305-2.22-.922C.774-1.41.5-2.237.5-3.28c0-1.033.273-1.853.828-2.47.55-.625 1.29-.938 2.22-.938zm0 0"/></symbol><symbol overflow="visible" id="c"><path d="M.89-6.563h.876v2.688H5v-2.688h.89V0H5v-3.125H1.766V0H.89zm0 0"/></symbol><symbol overflow="visible" id="d"><path d="M.89-6.563H2.08l2.906 5.485v-5.484h.86V0H4.656L1.75-5.484V0H.89zm0 0"/></symbol><symbol overflow="visible"><path d="M.406 1.422V-5.64h4V1.42zM.844.97h3.11v-6.157H.843zm0 0"/></symbol><symbol overflow="visible" id="e"><path d="M1.53-.672h2.767V0H.594v-.672c.29-.3.695-.71 1.22-1.234.518-.532.842-.867.967-1.016.26-.28.44-.52.533-.72.1-.194.156-.39.156-.577 0-.31-.11-.565-.33-.764-.218-.196-.5-.297-.843-.297-.25 0-.516.046-.797.14-.273.085-.563.214-.875.39v-.797c.32-.133.617-.234.89-.297.282-.062.536-.093.766-.093.603 0 1.083.152 1.44.453.362.304.546.703.546 1.203 0 .24-.047.468-.14.686-.095.22-.26.477-.485.766-.074.074-.288.293-.64.656-.344.356-.836.856-1.47 1.5zm0 0"/></symbol></defs><g><path fill="#fff" d="M0 0h300v300H0z"/><path d="M137.723 171.14l-19.87-13.273M138.86 165.14l-15.895-10.62M159.156 160.57l-21.433 10.57M117.852 157.867l1.562-23.844M117.852 157.867l-21.43 10.57M119.414 134.023l21.43-10.57M124.043 138.008l17.144-8.457M140.844 123.453l19.87 13.274M140.844 123.453l1.562-23.848M160.715 136.727l-1.56 23.843M154.95 138.742l-1.25 19.078M160.715 136.727l10.715-5.286" stroke-width="1.2" stroke="#000" stroke-miterlimit="10" fill="none"/><path d="M171.43 131.44l10.718-5.284" stroke-width="1.2" stroke="#f00" stroke-miterlimit="10" fill="none"/><path d="M159.156 160.57l19.87 13.274" stroke-width="1.2" stroke="#000" stroke-miterlimit="10" fill="none"/><path d="M178.027 168.344h3v11h-3zm0 0" fill="#fff"/><use xlink:href="#a" x="178.027" y="177.007"/><path d="M182.148 126.156l9.934 6.637" stroke-width="1.2" stroke="#f00" stroke-miterlimit="10" fill="none"/><path d="M192.082 132.793l9.934 6.637" stroke-width="1.2" stroke="#000" stroke-miterlimit="10" fill="none"/><path d="M178.148 120.656h8v11h-8zm0 0" fill="#fff"/><use xlink:href="#b" x="178.148" y="129.319" fill="#f00"/><path d="M202.016 139.43l-1.56 23.843M207.473 142.18l-1.25 19.078M223.45 128.86l-21.434 10.57M200.457 163.273l19.87 13.274M220.328 176.547l21.43-10.57M219.984 170.45l17.145-8.458M220.328 176.547l-1.562 23.848M241.758 165.977l1.562-23.844M241.758 165.977l9.937 6.636" stroke-width="1.2" stroke="#000" stroke-miterlimit="10" fill="none"/><path d="M251.695 172.613l9.934 6.637" stroke-width="1.2" stroke="#f00" stroke-miterlimit="10" fill="none"/><path d="M243.32 142.133l-19.87-13.274M238.207 145.48l-15.894-10.62M243.32 142.133l21.43-10.57" stroke-width="1.2" stroke="#000" stroke-miterlimit="10" fill="none"/><path d="M263.75 126.063h3v11h-3zm0 0" fill="#fff"/><use xlink:href="#a" x="263.75" y="134.726"/><path d="M254.63 173.75h15v11h-15zm0 0" fill="#fff"/><g fill="#f00"><use xlink:href="#b" x="254.629" y="182.413"/><use xlink:href="#c" x="261.971" y="182.413"/></g><path d="M217.766 194.895h3v11h-3zm0 0" fill="#fff"/><use xlink:href="#a" x="217.766" y="203.558"/><path d="M141.406 94.105h3v11h-3zm0 0" fill="#fff"/><use xlink:href="#a" x="141.406" y="102.769"/><path d="M96.422 168.438l-19.87-13.274M76.55 155.164l-21.43 10.57M76.55 155.164l.782-11.922" stroke-width="1.2" stroke="#000" stroke-miterlimit="10" fill="none"/><path d="M77.332 143.242l.78-11.922" stroke-width="1.2" stroke="#00f" stroke-miterlimit="10" fill="none"/><path d="M52.316 165.55l-.78 11.927" stroke-width="1.2" stroke="#000" stroke-miterlimit="10" fill="none"/><path d="M51.535 177.477l-.78 11.92" stroke-width="1.2" stroke="#f00" stroke-miterlimit="10" fill="none"/><path d="M57.926 165.918l-.78 11.926" stroke-width="1.2" stroke="#000" stroke-miterlimit="10" fill="none"/><path d="M57.145 177.844l-.782 11.922" stroke-width="1.2" stroke="#f00" stroke-miterlimit="10" fill="none"/><path d="M55.12 165.734l-9.936-6.636" stroke-width="1.2" stroke="#000" stroke-miterlimit="10" fill="none"/><path d="M45.184 159.098l-9.934-6.637" stroke-width="1.2" stroke="#f00" stroke-miterlimit="10" fill="none"/><path d="M49.56 184.082h8v11h-8zm0 0" fill="#fff"/><use xlink:href="#b" x="49.559" y="192.745" fill="#f00"/><path d="M20.25 146.96h15v11h-15zm0 0" fill="#fff"/><g fill="#f00"><use xlink:href="#c" x="20.25" y="155.624"/><use xlink:href="#b" x="27.265" y="155.624"/></g><path d="M69.113 123.32h19v16h-19zm0 0" fill="#fff"/><g fill="#00f"><use xlink:href="#d" x="69.113" y="131.983"/><use xlink:href="#c" x="76.091" y="131.983"/></g><use xlink:href="#e" x="83.105" y="136.866" fill="#00f"/></g></svg>