<svg xmlns="http://www.w3.org/2000/svg" xmlns:xlink="http://www.w3.org/1999/xlink" width="300pt" height="300pt" viewBox="0 0 300 300"><defs><symbol overflow="visible"><path d="M.594 2.125V-8.47h6V2.126zm.672-.672h4.671V-7.78h-4.67zm0 0"/></symbol><symbol overflow="visible" id="a"><path d="M6.422-8.47v1.158c-.45-.208-.875-.364-1.28-.47-.4-.113-.78-.17-1.142-.17-.648 0-1.148.124-1.5.374-.344.25-.516.61-.516 1.078 0 .387.114.68.344.875.227.2.672.355 1.328.47L4.36-5c.882.168 1.535.465 1.952.89.426.42.64.98.64 1.688 0 .856-.288 1.5-.858 1.938-.563.437-1.4.656-2.5.656-.406 0-.844-.047-1.313-.14C1.814-.064 1.33-.204.83-.392v-1.22c.477.274.945.477 1.406.61.47.137.922.203 1.36.203.676 0 1.195-.13 1.562-.39.375-.27.563-.65.563-1.14 0-.427-.138-.76-.407-1-.262-.25-.696-.43-1.297-.548l-.72-.14c-.886-.176-1.526-.454-1.92-.83-.388-.374-.58-.893-.58-1.56 0-.782.27-1.392.813-1.83.538-.445 1.288-.67 2.25-.67.413 0 .83.038 1.25.108.425.074.863.184 1.312.328zm0 0"/></symbol><symbol overflow="visible" id="b"><path d="M1.172-8.75h1.594l3.89 7.313V-8.75h1.14V0H6.204L2.328-7.313V0H1.172zm0 0"/></symbol><symbol overflow="visible" id="c"><path d="M1.172-8.75H2.36v3.594h4.296V-8.75h1.188V0H6.656v-4.172H2.36V0H1.17zm0 0"/></symbol><symbol overflow="visible"><path d="M.5 1.766v-8.813h5v8.813zm.563-.547h3.875v-7.704H1.063zm0 0"/></symbol><symbol overflow="visible" id="d"><path d="M1.922-.828H5.36V0H.733v-.828c.375-.383.883-.906 1.532-1.563.644-.657 1.05-1.08 1.218-1.266.313-.352.532-.65.657-.89.126-.25.188-.493.188-.735 0-.384-.137-.697-.406-.94-.274-.25-.625-.374-1.063-.374-.313 0-.64.06-.985.172-.336.106-.7.266-1.094.484v-1c.396-.156.767-.273 1.11-.36.344-.08.66-.124.954-.124.75 0 1.347.188 1.797.563.458.376.688.883.688 1.516 0 .305-.058.59-.172.86-.117.26-.32.574-.61.937-.085.094-.343.37-.78.828-.438.45-1.055 1.08-1.844 1.892zm0 0"/></symbol></defs><g><path fill="#fff" d="M0 0h300v300H0z"/><path d="M264.75 150.91l-2.523 29.37M257.586 153.254l-2.016 23.496M240.578 134.043l24.172 16.867M262.227 180.28l-26.696 12.497M235.53 192.777l-24.17-16.867M237.086 185.402l-19.34-13.492M211.36 175.91l2.523-29.367M211.36 175.91l-26.692 12.5M213.883 146.543l26.695-12.5M219.496 151.574l21.356-10M184.668 188.41l-24.172-16.87M160.496 171.54l-13.348 6.25" stroke-width="1.2" stroke="#000" stroke-miterlimit="10" fill="none"/><path d="M147.148 177.79l-13.347 6.25M133.8 184.04l-12.085-8.435" stroke-width="1.2" stroke="#cc0" stroke-miterlimit="10" fill="none"/><path d="M121.715 175.605l-12.086-8.433" stroke-width="1.2" stroke="#000" stroke-miterlimit="10" fill="none"/><path d="M129.8 177.04h8v14h-8zm0 0" fill="#fff"/><use xlink:href="#a" x="129.801" y="188.178" fill="#cc0"/><path d="M109.63 167.172l1.26-14.684" stroke-width="1.2" stroke="#000" stroke-miterlimit="10" fill="none"/><path d="M110.89 152.488l1.262-14.683" stroke-width="1.2" stroke="#00f" stroke-miterlimit="10" fill="none"/><path d="M102.973 163.64l1.007-11.745" stroke-width="1.2" stroke="#000" stroke-miterlimit="10" fill="none"/><path d="M103.98 151.895l1.008-11.747" stroke-width="1.2" stroke="#00f" stroke-miterlimit="10" fill="none"/><path d="M82.934 179.672l26.695-12.5" stroke-width="1.2" stroke="#000" stroke-miterlimit="10" fill="none"/><path d="M112.152 137.805l-12.086-8.434" stroke-width="1.2" stroke="#00f" stroke-miterlimit="10" fill="none"/><path d="M100.066 129.37l-12.086-8.436" stroke-width="1.2" stroke="#000" stroke-miterlimit="10" fill="none"/><path d="M108.152 130.805h9v14h-9zm0 0" fill="#fff"/><use xlink:href="#b" x="108.152" y="141.943" fill="#00f"/><path d="M87.98 120.934l-13.347 6.25" stroke-width="1.2" stroke="#000" stroke-miterlimit="10" fill="none"/><path d="M74.633 127.184l-13.348 6.25" stroke-width="1.2" stroke="#00f" stroke-miterlimit="10" fill="none"/><path d="M88.25 128.465l-10.676 5" stroke-width="1.2" stroke="#000" stroke-miterlimit="10" fill="none"/><path d="M77.574 133.465l-10.68 5" stroke-width="1.2" stroke="#00f" stroke-miterlimit="10" fill="none"/><path d="M87.98 120.934l1.262-14.684" stroke-width="1.2" stroke="#000" stroke-miterlimit="10" fill="none"/><path d="M89.242 106.25l1.262-14.684M61.285 133.434l-1.262 14.683" stroke-width="1.2" stroke="#00f" stroke-miterlimit="10" fill="none"/><path d="M60.023 148.117l-1.26 14.684" stroke-width="1.2" stroke="#000" stroke-miterlimit="10" fill="none"/><path d="M57.285 126.434h9v14h-9zm0 0" fill="#fff"/><use xlink:href="#b" x="57.285" y="137.572" fill="#00f"/><path d="M58.762 162.8l24.172 16.872M57.21 170.176l19.337 13.496" stroke-width="1.2" stroke="#000" stroke-miterlimit="10" fill="none"/><path d="M35.25 180.578l11.758-8.887" stroke-width="1.2" stroke="#00f" stroke-miterlimit="10" fill="none"/><path d="M47.008 171.69l11.754-8.89M82.934 179.672l-4.286 14.098" stroke-width="1.2" stroke="#000" stroke-miterlimit="10" fill="none"/><path d="M78.648 193.77l-4.29 14.1M74.36 207.87l-14.735.282" stroke-width="1.2" stroke="#00f" stroke-miterlimit="10" fill="none"/><path d="M59.625 208.152l-14.734.282" stroke-width="1.2" stroke="#000" stroke-miterlimit="10" fill="none"/><path d="M65.36 200.87h18v14h-18zm0 0" fill="#fff"/><g fill="#00f"><use xlink:href="#b" x="65.359" y="212.01"/><use xlink:href="#c" x="74.336" y="212.01"/></g><path d="M44.89 208.434l-4.82-13.93" stroke-width="1.2" stroke="#000" stroke-miterlimit="10" fill="none"/><path d="M40.07 194.504l-4.82-13.926" stroke-width="1.2" stroke="#00f" stroke-miterlimit="10" fill="none"/><path d="M50.48 203.38l-3.855-11.142" stroke-width="1.2" stroke="#000" stroke-miterlimit="10" fill="none"/><path d="M46.625 192.238l-3.855-11.144" stroke-width="1.2" stroke="#00f" stroke-miterlimit="10" fill="none"/><path d="M31.25 173.578h9v14h-9zm0 0" fill="#fff"/><use xlink:href="#b" x="31.25" y="184.717" fill="#00f"/><path d="M78.504 82.066h25v19h-25zm0 0" fill="#fff"/><g fill="#00f"><use xlink:href="#b" x="78.504" y="93.205"/><use xlink:href="#c" x="87.48" y="93.205"/></g><use xlink:href="#d" x="96.504" y="98.088" fill="#00f"/></g></svg>