<svg xmlns="http://www.w3.org/2000/svg" xmlns:xlink="http://www.w3.org/1999/xlink" width="300pt" height="300pt" viewBox="0 0 300 300"><defs><symbol overflow="visible"><path d="M.453 1.594v-7.938h4.5v7.938zm.5-.5h3.5v-6.938h-3.5zm0 0"/></symbol><symbol overflow="visible" id="a"><path d="M.89-6.563H2.08l2.906 5.485v-5.484h.86V0H4.656L1.75-5.484V0H.89zm0 0"/></symbol><symbol overflow="visible" id="b"><path d="M3.547-5.953c-.65 0-1.164.242-1.547.72-.375.48-.563 1.13-.563 1.952 0 .835.188 1.49.563 1.967.383.48.898.72 1.547.72.644 0 1.156-.24 1.53-.72.376-.476.564-1.132.564-1.968 0-.822-.187-1.474-.562-1.954-.375-.477-.887-.72-1.53-.72zm0-.734c.914 0 1.648.312 2.203.937.55.617.828 1.438.828 2.47 0 1.042-.277 1.87-.828 2.483-.555.617-1.29.922-2.203.922-.93 0-1.668-.305-2.22-.922C.774-1.41.5-2.237.5-3.28c0-1.033.273-1.853.828-2.47.55-.625 1.29-.938 2.22-.938zm0 0"/></symbol></defs><g><path fill="#fff" d="M0 0h300v300H0z"/><path d="M203.348 181.633l-24.016-7.723M179.332 173.91l-18.69 16.938M173.48 171.207l-14.957 13.547" stroke-width="1.2" stroke="#000" stroke-miterlimit="10" fill="none"/><path d="M174.016 149.254l2.656 12.328" stroke-width="1.2" stroke="#00f" stroke-miterlimit="10" fill="none"/><path d="M176.672 161.582l2.66 12.328M160.64 190.848l-24.015-7.723M160.64 190.848l5.317 24.656M136.625 183.125l-2.66-12.328" stroke-width="1.2" stroke="#000" stroke-miterlimit="10" fill="none"/><path d="M133.965 170.797l-2.66-12.328" stroke-width="1.2" stroke="#00f" stroke-miterlimit="10" fill="none"/><path d="M136.625 183.125l-18.695 16.938" stroke-width="1.2" stroke="#000" stroke-miterlimit="10" fill="none"/><path d="M131.305 158.47l9.347-8.47" stroke-width="1.2" stroke="#00f" stroke-miterlimit="10" fill="none"/><path d="M140.652 150l9.348-8.47M107.293 150.746l12.004 3.86" stroke-width="1.2" stroke="#000" stroke-miterlimit="10" fill="none"/><path d="M119.297 154.605l12.008 3.864" stroke-width="1.2" stroke="#00f" stroke-miterlimit="10" fill="none"/><path d="M128.305 152.97h7v11h-7zm0 0" fill="#fff"/><use xlink:href="#a" x="128.305" y="161.632" fill="#00f"/><path d="M150 141.53l-5.32-24.655M143.668 140.316l-4.258-19.722M150 141.53l12.008 3.865" stroke-width="1.2" stroke="#000" stroke-miterlimit="10" fill="none"/><path d="M162.008 145.395l12.008 3.86" stroke-width="1.2" stroke="#00f" stroke-miterlimit="10" fill="none"/><path d="M144.68 116.875l-24.012-7.723M144.68 116.875l18.695-16.938M120.668 109.152l-18.695 16.938M122.78 115.246l-14.952 13.547M120.668 109.152l-5.32-24.656M101.973 126.09l5.32 24.656M101.973 126.09l-24.016-7.723M105.3 148.547l-9.347 8.47" stroke-width="1.2" stroke="#000" stroke-miterlimit="10" fill="none"/><path d="M95.953 157.016l-9.348 8.464" stroke-width="1.2" stroke="#f00" stroke-miterlimit="10" fill="none"/><path d="M109.285 152.945l-9.347 8.47" stroke-width="1.2" stroke="#000" stroke-miterlimit="10" fill="none"/><path d="M99.938 161.414l-9.348 8.465" stroke-width="1.2" stroke="#f00" stroke-miterlimit="10" fill="none"/><path d="M80.598 162.18h8v11h-8zm0 0" fill="#fff"/><use xlink:href="#b" x="80.598" y="170.843" fill="#f00"/><path d="M80.86 117.738L78.2 105.41" stroke-width="1.2" stroke="#000" stroke-miterlimit="10" fill="none"/><path d="M78.2 105.41l-2.66-12.328" stroke-width="1.2" stroke="#f00" stroke-miterlimit="10" fill="none"/><path d="M75.06 118.992l-2.662-12.328" stroke-width="1.2" stroke="#000" stroke-miterlimit="10" fill="none"/><path d="M72.398 106.664l-2.66-12.332" stroke-width="1.2" stroke="#f00" stroke-miterlimit="10" fill="none"/><path d="M77.957 118.367l-9.348 8.465" stroke-width="1.2" stroke="#000" stroke-miterlimit="10" fill="none"/><path d="M68.61 126.832l-9.344 8.47" stroke-width="1.2" stroke="#f00" stroke-miterlimit="10" fill="none"/><path d="M68.64 88.207h8v11h-8zm0 0" fill="#fff"/><use xlink:href="#b" x="68.641" y="96.87" fill="#f00"/><path d="M59.266 135.3l-12.008-3.86" stroke-width="1.2" stroke="#f00" stroke-miterlimit="10" fill="none"/><path d="M47.258 131.44L35.25 127.58" stroke-width="1.2" stroke="#000" stroke-miterlimit="10" fill="none"/><path d="M55.266 129.8h8v11h-8zm0 0" fill="#fff"/><use xlink:href="#b" x="55.266" y="138.464" fill="#f00"/><path d="M116.254 81.668l-12.004-3.86" stroke-width="1.2" stroke="#000" stroke-miterlimit="10" fill="none"/><path d="M104.25 77.81l-12.008-3.86" stroke-width="1.2" stroke="#f00" stroke-miterlimit="10" fill="none"/><path d="M114.438 87.32l-12.004-3.863" stroke-width="1.2" stroke="#000" stroke-miterlimit="10" fill="none"/><path d="M102.434 83.457l-12.008-3.86" stroke-width="1.2" stroke="#f00" stroke-miterlimit="10" fill="none"/><path d="M115.348 84.496l9.347-8.47" stroke-width="1.2" stroke="#000" stroke-miterlimit="10" fill="none"/><path d="M124.695 76.027l9.348-8.468" stroke-width="1.2" stroke="#f00" stroke-miterlimit="10" fill="none"/><path d="M83.332 71.273h8v11h-8zm0 0" fill="#fff"/><use xlink:href="#b" x="83.332" y="79.937" fill="#f00"/><path d="M134.043 67.56l-2.66-12.33" stroke-width="1.2" stroke="#f00" stroke-miterlimit="10" fill="none"/><path d="M131.383 55.23l-2.66-12.328" stroke-width="1.2" stroke="#000" stroke-miterlimit="10" fill="none"/><path d="M130.043 62.06h8v11h-8zm0 0" fill="#fff"/><use xlink:href="#b" x="130.043" y="70.722" fill="#f00"/><path d="M166.277 99.313l-2.66-12.33" stroke-width="1.2" stroke="#000" stroke-miterlimit="10" fill="none"/><path d="M163.617 86.984l-2.66-12.328" stroke-width="1.2" stroke="#f00" stroke-miterlimit="10" fill="none"/><path d="M160.473 100.566l-2.657-12.332" stroke-width="1.2" stroke="#000" stroke-miterlimit="10" fill="none"/><path d="M157.816 88.234l-2.66-12.328" stroke-width="1.2" stroke="#f00" stroke-miterlimit="10" fill="none"/><path d="M163.375 99.938l12.008 3.863" stroke-width="1.2" stroke="#000" stroke-miterlimit="10" fill="none"/><path d="M175.383 103.8l12.008 3.86" stroke-width="1.2" stroke="#f00" stroke-miterlimit="10" fill="none"/><path d="M154.055 69.78h8v11h-8zm0 0" fill="#fff"/><use xlink:href="#b" x="154.055" y="78.444" fill="#f00"/><path d="M187.39 107.66l9.344-8.47" stroke-width="1.2" stroke="#f00" stroke-miterlimit="10" fill="none"/><path d="M196.734 99.19l9.348-8.463" stroke-width="1.2" stroke="#000" stroke-miterlimit="10" fill="none"/><path d="M183.39 102.16h8v11h-8zm0 0" fill="#fff"/><use xlink:href="#b" x="183.391" y="110.823" fill="#f00"/><path d="M174.016 149.254l9.343-8.47" stroke-width="1.2" stroke="#00f" stroke-miterlimit="10" fill="none"/><path d="M183.36 140.785l9.347-8.465" stroke-width="1.2" stroke="#000" stroke-miterlimit="10" fill="none"/><path d="M171.016 143.754h7v11h-7zm0 0" fill="#fff"/><use xlink:href="#a" x="171.016" y="152.417" fill="#00f"/><path d="M192.707 132.32l24.016 7.72M216.723 140.04l5.32 24.66M223.055 141.254l4.257 19.726M235.418 123.105l-18.695 16.934M222.043 164.7l24.012 7.722M246.055 172.422l18.695-16.938M243.94 166.328l14.955-13.547M264.75 155.484l-5.32-24.656M259.43 130.828l-24.012-7.723M255.21 135.707l-19.21-6.18M117.93 200.063l-24.012-7.723M113.71 204.938l-19.21-6.176M123.25 224.72l-5.32-24.657M93.918 192.34l-18.695 16.933M75.223 209.273l5.32 24.66M81.555 210.488l4.257 19.727M80.543 233.934l24.012 7.718M104.555 241.652l18.695-16.933M102.44 235.563l14.955-13.55M165.05 218.332l12.005 3.86" stroke-width="1.2" stroke="#000" stroke-miterlimit="10" fill="none"/><path d="M177.055 222.19l12.007 3.86" stroke-width="1.2" stroke="#f00" stroke-miterlimit="10" fill="none"/><path d="M166.867 212.68l12.008 3.863" stroke-width="1.2" stroke="#000" stroke-miterlimit="10" fill="none"/><path d="M178.875 216.543l12.004 3.86" stroke-width="1.2" stroke="#f00" stroke-miterlimit="10" fill="none"/><path d="M165.957 215.504l-9.348 8.47" stroke-width="1.2" stroke="#000" stroke-miterlimit="10" fill="none"/><path d="M156.61 223.973l-9.348 8.468" stroke-width="1.2" stroke="#f00" stroke-miterlimit="10" fill="none"/><path d="M185.973 217.727h8v11h-8zm0 0" fill="#fff"/><use xlink:href="#b" x="185.973" y="226.39" fill="#f00"/><path d="M147.262 232.44l2.66 12.33" stroke-width="1.2" stroke="#f00" stroke-miterlimit="10" fill="none"/><path d="M149.922 244.77l2.66 12.328" stroke-width="1.2" stroke="#000" stroke-miterlimit="10" fill="none"/><path d="M143.262 226.94h8v11h-8zm0 0" fill="#fff"/><use xlink:href="#b" x="143.262" y="235.604" fill="#f00"/></g></svg>