<svg xmlns="http://www.w3.org/2000/svg" xmlns:xlink="http://www.w3.org/1999/xlink" width="300pt" height="300pt" viewBox="0 0 300 300"><defs><symbol overflow="visible"><path d="M.453 1.594v-7.938h4.5v7.938zm.5-.5h3.5v-6.938h-3.5zm0 0"/></symbol><symbol overflow="visible" id="a"><path d="M.89-6.563H2.08l2.906 5.485v-5.484h.86V0H4.656L1.75-5.484V0H.89zm0 0"/></symbol><symbol overflow="visible" id="b"><path d="M3.547-5.953c-.65 0-1.164.242-1.547.72-.375.48-.563 1.13-.563 1.952 0 .835.188 1.49.563 1.967.383.48.898.72 1.547.72.644 0 1.156-.24 1.53-.72.376-.476.564-1.132.564-1.968 0-.822-.187-1.474-.562-1.954-.375-.477-.887-.72-1.53-.72zm0-.734c.914 0 1.648.312 2.203.937.55.617.828 1.438.828 2.47 0 1.042-.277 1.87-.828 2.483-.555.617-1.29.922-2.203.922-.93 0-1.668-.305-2.22-.922C.774-1.41.5-2.237.5-3.28c0-1.033.273-1.853.828-2.47.55-.625 1.29-.938 2.22-.938zm0 0"/></symbol></defs><g><path fill="#fff" d="M0 0h300v300H0z"/><path d="M235.762 107.773l-3.196 18.58M232.566 126.352l-17.687 6.527M232.332 131.168l-14.148 5.22M247.063 138.406l-14.497-12.054M214.88 132.88l-3.192 18.577M211.688 151.457l14.496 12.06M210.3 156.074l11.595 9.645" stroke-width="1.2" stroke="#000" stroke-miterlimit="10" fill="none"/><path d="M193.223 155.273l9.234-1.906" stroke-width="1.2" stroke="#00f" stroke-miterlimit="10" fill="none"/><path d="M202.457 153.367l9.23-1.91M226.184 163.516l-.39 18.847M226.184 163.516l8.843-3.266" stroke-width="1.2" stroke="#000" stroke-miterlimit="10" fill="none"/><path d="M235.027 160.25l8.844-3.262" stroke-width="1.2" stroke="#00f" stroke-miterlimit="10" fill="none"/><path d="M225.793 182.363l-14.977 11.45M210.816 193.813l-18.29-4.575M192.527 189.238l-7.832-17.148M184.695 172.09l4.266-8.406" stroke-width="1.2" stroke="#000" stroke-miterlimit="10" fill="none"/><path d="M188.96 163.684l4.263-8.41M193.223 155.273l-5.723-7.488" stroke-width="1.2" stroke="#00f" stroke-miterlimit="10" fill="none"/><path d="M187.5 147.785l-5.727-7.488" stroke-width="1.2" stroke="#000" stroke-miterlimit="10" fill="none"/><path d="M190.223 149.773h7v11h-7zm0 0" fill="#fff"/><use xlink:href="#a" x="190.223" y="158.437" fill="#00f"/><path d="M163.078 142.723l19.125.87-.855-6.597zm0 0"/><path d="M163.078 142.723l-11.45-14.98M163.078 142.723l-3.62 8.703" stroke-width="1.2" stroke="#000" stroke-miterlimit="10" fill="none"/><path d="M159.457 151.426l-3.625 8.7M155.832 160.125l-9.348 1.215" stroke-width="1.2" stroke="#f00" stroke-miterlimit="10" fill="none"/><path d="M146.484 161.34l-9.347 1.21" stroke-width="1.2" stroke="#00f" stroke-miterlimit="10" fill="none"/><path d="M151.832 154.625h8v11h-8zm0 0" fill="#fff"/><use xlink:href="#b" x="151.832" y="163.288" fill="#f00"/><path d="M137.137 162.55l-3.625 8.704" stroke-width="1.2" stroke="#00f" stroke-miterlimit="10" fill="none"/><path d="M133.512 171.254l-3.625 8.703" stroke-width="1.2" stroke="#000" stroke-miterlimit="10" fill="none"/><path d="M132.316 162.586l-2.898 6.965" stroke-width="1.2" stroke="#00f" stroke-miterlimit="10" fill="none"/><path d="M129.418 169.55l-2.902 6.962" stroke-width="1.2" stroke="#000" stroke-miterlimit="10" fill="none"/><path d="M134.137 157.05h7v11h-7zm0 0" fill="#fff"/><use xlink:href="#a" x="134.137" y="165.714" fill="#00f"/><path d="M129.887 179.957l11.45 14.977M129.887 179.957l-18.696 2.426M111.19 182.383l-11.448-14.977M99.742 167.406l-9.347 1.21" stroke-width="1.2" stroke="#000" stroke-miterlimit="10" fill="none"/><path d="M90.395 168.617l-9.348 1.215M81.047 169.832l-3.625 8.7" stroke-width="1.2" stroke="#00f" stroke-miterlimit="10" fill="none"/><path d="M77.422 178.53l-3.62 8.704M69.598 154.852l5.722 7.488" stroke-width="1.2" stroke="#000" stroke-miterlimit="10" fill="none"/><path d="M75.32 162.34l5.727 7.492" stroke-width="1.2" stroke="#00f" stroke-miterlimit="10" fill="none"/><path d="M78.047 164.332h7v11h-7zm0 0" fill="#fff"/><use xlink:href="#a" x="78.047" y="172.995" fill="#00f"/><path d="M73.8 187.234l-18.698 2.426M55.102 189.66l-11.45-14.976M43.652 174.684l7.25-17.407M50.902 157.277l18.696-2.425M52.2 152.637l14.956-1.942" stroke-width="1.2" stroke="#000" stroke-miterlimit="10" fill="none"/><path d="M39.453 142.3l5.723 7.49" stroke-width="1.2" stroke="#00f" stroke-miterlimit="10" fill="none"/><path d="M45.176 149.79l5.726 7.487M69.598 154.852l7.246-17.403M76.844 137.45l-11.45-14.98M72.176 138.645l-9.16-11.985M65.395 122.47L46.7 124.894M65.395 122.47l7.25-17.404M46.7 124.895l-3.626 8.703" stroke-width="1.2" stroke="#000" stroke-miterlimit="10" fill="none"/><path d="M43.074 133.598l-3.62 8.703" stroke-width="1.2" stroke="#00f" stroke-miterlimit="10" fill="none"/><path d="M50.07 128.34l-2.898 6.96" stroke-width="1.2" stroke="#000" stroke-miterlimit="10" fill="none"/><path d="M47.172 135.3l-2.9 6.966" stroke-width="1.2" stroke="#00f" stroke-miterlimit="10" fill="none"/><path d="M46.7 124.895l-11.45-14.977" stroke-width="1.2" stroke="#000" stroke-miterlimit="10" fill="none"/><path d="M36.453 136.8h7v11h-7zm0 0" fill="#fff"/><use xlink:href="#a" x="36.453" y="145.464" fill="#00f"/><path d="M243.87 156.988l1.595-9.29" stroke-width="1.2" stroke="#00f" stroke-miterlimit="10" fill="none"/><path d="M245.465 147.7l1.597-9.294" stroke-width="1.2" stroke="#000" stroke-miterlimit="10" fill="none"/><path d="M239.816 154.38l1.278-7.435" stroke-width="1.2" stroke="#00f" stroke-miterlimit="10" fill="none"/><path d="M241.094 146.945l1.277-7.43" stroke-width="1.2" stroke="#000" stroke-miterlimit="10" fill="none"/><path d="M240.87 151.488h7v11h-7zm0 0" fill="#fff"/><use xlink:href="#a" x="240.871" y="160.151" fill="#00f"/><path d="M247.063 138.406l17.687-6.523" stroke-width="1.2" stroke="#000" stroke-miterlimit="10" fill="none"/></g></svg>