<svg xmlns="http://www.w3.org/2000/svg" xmlns:xlink="http://www.w3.org/1999/xlink" width="300pt" height="300pt" viewBox="0 0 300 300"><defs><symbol overflow="visible"><path d="M.453 1.594v-7.938h4.5v7.938zm.5-.5h3.5v-6.938h-3.5zm0 0"/></symbol><symbol overflow="visible" id="a"><path d="M3.547-5.953c-.65 0-1.164.242-1.547.72-.375.48-.563 1.13-.563 1.952 0 .835.188 1.49.563 1.967.383.48.898.72 1.547.72.644 0 1.156-.24 1.53-.72.376-.476.564-1.132.564-1.968 0-.822-.187-1.474-.562-1.954-.375-.477-.887-.72-1.53-.72zm0-.734c.914 0 1.648.312 2.203.937.55.617.828 1.438.828 2.47 0 1.042-.277 1.87-.828 2.483-.555.617-1.29.922-2.203.922-.93 0-1.668-.305-2.22-.922C.774-1.41.5-2.237.5-3.28c0-1.033.273-1.853.828-2.47.55-.625 1.29-.938 2.22-.938zm0 0"/></symbol><symbol overflow="visible" id="b"><path d="M.89-6.563H2.08l2.906 5.485v-5.484h.86V0H4.656L1.75-5.484V0H.89zm0 0"/></symbol><symbol overflow="visible" id="c"><path d="M.89-6.563h.876v2.688H5v-2.688h.89V0H5v-3.125H1.766V0H.89zm0 0"/></symbol><symbol overflow="visible" id="e"><path d="M4.813-6.344v.86c-.336-.157-.653-.27-.954-.344-.294-.082-.58-.125-.86-.125-.492 0-.867.094-1.125.28-.262.19-.39.454-.39.798 0 .293.085.512.265.656.176.15.504.267.984.36l.547.11c.658.125 1.142.352 1.454.672.32.312.485.734.485 1.265 0 .637-.216 1.122-.642 1.454-.43.325-1.055.485-1.875.485-.312 0-.648-.04-1-.11C1.36-.046 1-.147.625-.296v-.906c.352.2.703.35 1.047.453.35.105.695.156 1.03.156.5 0 .884-.097 1.157-.297.28-.196.42-.485.42-.86 0-.32-.1-.57-.296-.75-.2-.176-.523-.313-.968-.406l-.547-.11C1.81-3.148 1.33-3.36 1.03-3.64.74-3.923.595-4.313.595-4.813c0-.57.203-1.024.61-1.36.405-.344.968-.516 1.687-.516.313 0 .626.032.938.094.32.055.65.137.985.25zm0 0"/></symbol><symbol overflow="visible"><path d="M.406 1.422V-5.64h4V1.42zM.844.97h3.11v-6.157H.843zm0 0"/></symbol><symbol overflow="visible" id="d"><path d="M1.53-.672h2.767V0H.594v-.672c.29-.3.695-.71 1.22-1.234.518-.532.842-.867.967-1.016.26-.28.44-.52.533-.72.1-.194.156-.39.156-.577 0-.31-.11-.565-.33-.764-.218-.196-.5-.297-.843-.297-.25 0-.516.046-.797.14-.273.085-.563.214-.875.39v-.797c.32-.133.617-.234.89-.297.282-.062.536-.093.766-.093.603 0 1.083.152 1.44.453.362.304.546.703.546 1.203 0 .24-.047.468-.14.686-.095.22-.26.477-.485.766-.074.074-.288.293-.64.656-.344.356-.836.856-1.47 1.5zm0 0"/></symbol><symbol overflow="visible" id="f"><path d="M.39-2.516H2.5v.64H.39zm0 0"/></symbol></defs><g><path fill="#fff" d="M0 0h300v300H0z"/><path d="M114.27 178.652l5.726-1.257" stroke-width="1.2" stroke="#000" stroke-miterlimit="10" fill="none"/><path d="M119.996 177.395l5.73-1.258M125.727 176.137l1.77-5.59" stroke-width="1.2" stroke="#f00" stroke-miterlimit="10" fill="none"/><path d="M127.496 170.547l1.774-5.59" stroke-width="1.2" stroke="#000" stroke-miterlimit="10" fill="none"/><path d="M121.727 170.637h8v11h-8zm0 0" fill="#fff"/><use xlink:href="#a" x="121.727" y="179.3" fill="#f00"/><path d="M129.27 164.957l-7.907-8.66M130.52 162.23l-6.33-6.93M140.727 162.438l-11.457 2.52M121.363 156.297l3.547-11.18M121.363 156.297l-5.726 1.258" stroke-width="1.2" stroke="#000" stroke-miterlimit="10" fill="none"/><path d="M115.637 157.555l-5.727 1.257" stroke-width="1.2" stroke="#00f" stroke-miterlimit="10" fill="none"/><path d="M124.91 145.117l11.453-2.52M126.648 147.56l9.165-2.013M136.363 142.598l7.91 8.66M144.273 151.258l-3.546 11.18M141.29 151.543l-2.84 8.94M144.273 151.258l11.454-2.516M155.727 148.742l7.91 8.66M158.555 147.746l6.328 6.93M159.273 137.563l-3.546 11.18M163.637 157.402l11.453-2.52M175.09 154.883l3.547-11.18M172.816 152.93l2.836-8.942M175.09 154.883l3.953 4.332" stroke-width="1.2" stroke="#000" stroke-miterlimit="10" fill="none"/><path d="M179.043 159.215l3.957 4.328" stroke-width="1.2" stroke="#f00" stroke-miterlimit="10" fill="none"/><path d="M178.637 143.703l-7.907-8.66M178.637 143.703l5.726-1.258" stroke-width="1.2" stroke="#000" stroke-miterlimit="10" fill="none"/><path d="M184.363 142.445l5.727-1.257" stroke-width="1.2" stroke="#00f" stroke-miterlimit="10" fill="none"/><path d="M170.73 135.043l-11.457 2.52M170.176 137.992l-9.164 2.012" stroke-width="1.2" stroke="#000" stroke-miterlimit="10" fill="none"/><path d="M190.09 141.188l7.91 8.66" stroke-width="1.2" stroke="#00f" stroke-miterlimit="10" fill="none"/><path d="M183.09 135.688h14v11h-14zm0 0" fill="#fff"/><g fill="#00f"><use xlink:href="#b" x="183.09" y="144.351"/><use xlink:href="#c" x="190.067" y="144.351"/></g><path d="M198 149.848l5.727-1.258" stroke-width="1.2" stroke="#00f" stroke-miterlimit="10" fill="none"/><path d="M203.727 148.59l5.726-1.262" stroke-width="1.2" stroke="#000" stroke-miterlimit="10" fill="none"/><path d="M199.738 152.29l4.582-1.005" stroke-width="1.2" stroke="#00f" stroke-miterlimit="10" fill="none"/><path d="M204.32 151.285l4.582-1.008" stroke-width="1.2" stroke="#000" stroke-miterlimit="10" fill="none"/><path d="M195 144.348h7v11h-7zm0 0" fill="#fff"/><use xlink:href="#b" x="195" y="153.011" fill="#00f"/><path d="M209.453 147.328l7.91 8.66M209.453 147.328l3.547-11.18M216.047 155.574l-1.774 5.59" stroke-width="1.2" stroke="#000" stroke-miterlimit="10" fill="none"/><path d="M214.273 161.164l-1.773 5.59" stroke-width="1.2" stroke="#f00" stroke-miterlimit="10" fill="none"/><path d="M218.68 156.406l-1.774 5.59" stroke-width="1.2" stroke="#000" stroke-miterlimit="10" fill="none"/><path d="M216.906 161.996l-1.773 5.59" stroke-width="1.2" stroke="#f00" stroke-miterlimit="10" fill="none"/><path d="M217.363 155.988l11.453-2.515" stroke-width="1.2" stroke="#000" stroke-miterlimit="10" fill="none"/><path d="M205.816 161.668h8v11h-8zm0 0" fill="#fff"/><use xlink:href="#a" x="205.816" y="170.331" fill="#f00"/><path d="M228.816 153.473l3.547-11.18M231.805 153.188l2.836-8.942M236.727 162.133l-7.91-8.66M232.363 142.293l11.457-2.52M232.363 142.293l-7.906-8.66M243.82 139.773l7.907 8.66M242.57 142.5l6.328 6.93M243.82 139.773l1.774-5.59" stroke-width="1.2" stroke="#000" stroke-miterlimit="10" fill="none"/><path d="M245.594 134.184l1.773-5.59" stroke-width="1.2" stroke="#cc0" stroke-miterlimit="10" fill="none"/><path d="M251.727 148.434l-3.547 11.18M248.18 159.613l-11.453 2.52M246.44 157.172l-9.163 2.016M248.18 159.613l3.957 4.332" stroke-width="1.2" stroke="#000" stroke-miterlimit="10" fill="none"/><path d="M252.137 163.945l3.953 4.332" stroke-width="1.2" stroke="#cc0" stroke-miterlimit="10" fill="none"/><path d="M236.727 162.133l-1.774 5.59" stroke-width="1.2" stroke="#000" stroke-miterlimit="10" fill="none"/><path d="M234.953 167.723l-1.773 5.59" stroke-width="1.2" stroke="#00f" stroke-miterlimit="10" fill="none"/><path d="M214.18 165.313h19v16h-19zm0 0" fill="#fff"/><use xlink:href="#c" x="214.18" y="173.976" fill="#00f"/><use xlink:href="#d" x="221.194" y="178.858" fill="#00f"/><use xlink:href="#b" x="226.145" y="173.976" fill="#00f"/><path d="M257.02 169.293l4.332-3.953" stroke-width="1.2" stroke="#cc0" stroke-miterlimit="10" fill="none"/><path d="M261.352 165.34l4.328-3.953" stroke-width="1.2" stroke="#f00" stroke-miterlimit="10" fill="none"/><path d="M255.16 167.258l4.328-3.957" stroke-width="1.2" stroke="#cc0" stroke-miterlimit="10" fill="none"/><path d="M259.488 163.3l4.332-3.952" stroke-width="1.2" stroke="#f00" stroke-miterlimit="10" fill="none"/><path d="M255.16 167.258l-4.332 3.953" stroke-width="1.2" stroke="#cc0" stroke-miterlimit="10" fill="none"/><path d="M250.828 171.21l-4.332 3.954" stroke-width="1.2" stroke="#f00" stroke-miterlimit="10" fill="none"/><path d="M257.02 169.293l-4.332 3.957" stroke-width="1.2" stroke="#cc0" stroke-miterlimit="10" fill="none"/><path d="M252.688 173.25l-4.33 3.953" stroke-width="1.2" stroke="#f00" stroke-miterlimit="10" fill="none"/><path d="M256.09 168.277l3.953 4.328" stroke-width="1.2" stroke="#cc0" stroke-miterlimit="10" fill="none"/><path d="M260.043 172.605l3.953 4.333" stroke-width="1.2" stroke="#f00" stroke-miterlimit="10" fill="none"/><path d="M253.09 162.777h6v11h-6zm0 0" fill="#fff"/><use xlink:href="#e" x="253.09" y="171.44" fill="#cc0"/><path d="M260.75 154.867h8v11h-8zm0 0" fill="#fff"/><use xlink:href="#a" x="260.75" y="163.53" fill="#f00"/><path d="M239.43 170.684h8v11h-8zm0 0" fill="#fff"/><use xlink:href="#a" x="239.43" y="179.347" fill="#f00"/><path d="M258.996 169.438h11v15h-11zm0 0" fill="#fff"/><use xlink:href="#a" x="258.996" y="181.539" fill="#f00"/><use xlink:href="#f" x="266.338" y="176.656" fill="#f00"/><path d="M246.95 129.91l5.59 1.774" stroke-width="1.2" stroke="#cc0" stroke-miterlimit="10" fill="none"/><path d="M252.54 131.684l5.59 1.773" stroke-width="1.2" stroke="#f00" stroke-miterlimit="10" fill="none"/><path d="M247.78 127.28l5.59 1.775" stroke-width="1.2" stroke="#cc0" stroke-miterlimit="10" fill="none"/><path d="M253.37 129.055l5.59 1.773" stroke-width="1.2" stroke="#f00" stroke-miterlimit="10" fill="none"/><path d="M247.78 127.28l-5.59-1.772" stroke-width="1.2" stroke="#cc0" stroke-miterlimit="10" fill="none"/><path d="M242.19 125.508l-5.585-1.774" stroke-width="1.2" stroke="#f00" stroke-miterlimit="10" fill="none"/><path d="M246.95 129.91l-5.59-1.773" stroke-width="1.2" stroke="#cc0" stroke-miterlimit="10" fill="none"/><path d="M241.36 128.137l-5.59-1.774" stroke-width="1.2" stroke="#f00" stroke-miterlimit="10" fill="none"/><path d="M247.367 128.594l1.774-5.59" stroke-width="1.2" stroke="#cc0" stroke-miterlimit="10" fill="none"/><path d="M249.14 123.004l1.77-5.59" stroke-width="1.2" stroke="#f00" stroke-miterlimit="10" fill="none"/><path d="M244.367 123.094h6v11h-6zm0 0" fill="#fff"/><use xlink:href="#e" x="244.367" y="131.757" fill="#cc0"/><path d="M254.543 126.64h8v11h-8zm0 0" fill="#fff"/><use xlink:href="#a" x="254.543" y="135.304" fill="#f00"/><path d="M228.188 119.547h8v11h-8zm0 0" fill="#fff"/><use xlink:href="#a" x="228.188" y="128.21" fill="#f00"/><path d="M245.91 109.914h11v15h-11zm0 0" fill="#fff"/><use xlink:href="#a" x="245.91" y="122.016" fill="#f00"/><use xlink:href="#f" x="253.252" y="117.133" fill="#f00"/><path d="M224.457 133.633L213 136.148M223.902 136.578l-9.164 2.016" stroke-width="1.2" stroke="#000" stroke-miterlimit="10" fill="none"/><path d="M183 163.543l-1.773 5.59" stroke-width="1.2" stroke="#f00" stroke-miterlimit="10" fill="none"/><path d="M181.227 169.133l-1.774 5.59" stroke-width="1.2" stroke="#000" stroke-miterlimit="10" fill="none"/><path d="M179 158.043h8v11h-8zm0 0" fill="#fff"/><use xlink:href="#a" x="179" y="166.706" fill="#f00"/><path d="M109.91 158.813l-7.91-8.66" stroke-width="1.2" stroke="#00f" stroke-miterlimit="10" fill="none"/><path d="M102.91 153.313h14v11h-14zm0 0" fill="#fff"/><g fill="#00f"><use xlink:href="#b" x="102.91" y="161.976"/><use xlink:href="#c" x="109.888" y="161.976"/></g><path d="M102 150.152l-5.727 1.258" stroke-width="1.2" stroke="#00f" stroke-miterlimit="10" fill="none"/><path d="M96.273 151.41l-5.726 1.262" stroke-width="1.2" stroke="#000" stroke-miterlimit="10" fill="none"/><path d="M100.262 147.71l-4.582 1.005" stroke-width="1.2" stroke="#00f" stroke-miterlimit="10" fill="none"/><path d="M95.68 148.715l-4.582 1.008" stroke-width="1.2" stroke="#000" stroke-miterlimit="10" fill="none"/><path d="M99 144.652h7v11h-7zm0 0" fill="#fff"/><use xlink:href="#b" x="99" y="153.315" fill="#00f"/><path d="M90.547 152.672l-7.91-8.66M90.547 152.672L87 163.852M83.953 144.426l1.774-5.59" stroke-width="1.2" stroke="#000" stroke-miterlimit="10" fill="none"/><path d="M85.727 138.836l1.773-5.59" stroke-width="1.2" stroke="#f00" stroke-miterlimit="10" fill="none"/><path d="M81.32 143.594l1.774-5.59" stroke-width="1.2" stroke="#000" stroke-miterlimit="10" fill="none"/><path d="M83.094 138.004l1.773-5.59" stroke-width="1.2" stroke="#f00" stroke-miterlimit="10" fill="none"/><path d="M82.637 144.012l-11.453 2.515" stroke-width="1.2" stroke="#000" stroke-miterlimit="10" fill="none"/><path d="M82.184 127.332h8v11h-8zm0 0" fill="#fff"/><use xlink:href="#a" x="82.184" y="135.995" fill="#f00"/><path d="M71.184 146.527l-3.547 11.18M68.195 146.813l-2.836 8.94M63.273 137.867l7.91 8.66M67.637 157.707l-11.457 2.52M67.637 157.707l7.906 8.66M56.18 160.227l-7.907-8.66M57.43 157.5l-6.328-6.93M56.18 160.227l-1.774 5.59" stroke-width="1.2" stroke="#000" stroke-miterlimit="10" fill="none"/><path d="M54.406 165.816l-1.773 5.59" stroke-width="1.2" stroke="#cc0" stroke-miterlimit="10" fill="none"/><path d="M48.273 151.566l3.547-11.18M51.82 140.387l11.453-2.52M53.56 142.828l9.163-2.016M51.82 140.387l-3.957-4.332" stroke-width="1.2" stroke="#000" stroke-miterlimit="10" fill="none"/><path d="M47.863 136.055l-3.953-4.332" stroke-width="1.2" stroke="#cc0" stroke-miterlimit="10" fill="none"/><path d="M63.273 137.867l1.774-5.59" stroke-width="1.2" stroke="#000" stroke-miterlimit="10" fill="none"/><path d="M65.047 132.277l1.773-5.59" stroke-width="1.2" stroke="#00f" stroke-miterlimit="10" fill="none"/><path d="M57.82 118.688h19v16h-19zm0 0" fill="#fff"/><g fill="#00f"><use xlink:href="#b" x="57.82" y="127.351"/><use xlink:href="#c" x="64.798" y="127.351"/></g><use xlink:href="#d" x="71.813" y="132.233" fill="#00f"/><path d="M44.84 132.742l4.332-3.953" stroke-width="1.2" stroke="#cc0" stroke-miterlimit="10" fill="none"/><path d="M49.172 128.79l4.332-3.954" stroke-width="1.2" stroke="#f00" stroke-miterlimit="10" fill="none"/><path d="M42.98 130.707l4.333-3.957" stroke-width="1.2" stroke="#cc0" stroke-miterlimit="10" fill="none"/><path d="M47.313 126.75l4.328-3.953" stroke-width="1.2" stroke="#f00" stroke-miterlimit="10" fill="none"/><path d="M42.98 130.707l-4.332 3.953" stroke-width="1.2" stroke="#cc0" stroke-miterlimit="10" fill="none"/><path d="M38.648 134.66l-4.328 3.953" stroke-width="1.2" stroke="#f00" stroke-miterlimit="10" fill="none"/><path d="M44.84 132.742l-4.328 3.957" stroke-width="1.2" stroke="#cc0" stroke-miterlimit="10" fill="none"/><path d="M40.512 136.7l-4.332 3.952" stroke-width="1.2" stroke="#f00" stroke-miterlimit="10" fill="none"/><path d="M43.91 131.723l-3.953-4.328" stroke-width="1.2" stroke="#cc0" stroke-miterlimit="10" fill="none"/><path d="M39.957 127.395l-3.953-4.332" stroke-width="1.2" stroke="#f00" stroke-miterlimit="10" fill="none"/><path d="M40.91 126.223h6v11h-6zm0 0" fill="#fff"/><use xlink:href="#e" x="40.91" y="134.886" fill="#cc0"/><path d="M48.57 118.316h8v11h-8zm0 0" fill="#fff"/><use xlink:href="#a" x="48.57" y="126.979" fill="#f00"/><path d="M27.25 134.133h8v11h-8zm0 0" fill="#fff"/><use xlink:href="#a" x="27.25" y="142.796" fill="#f00"/><path d="M25.004 115.563h11v15h-11zm0 0" fill="#fff"/><use xlink:href="#f" x="25.004" y="122.781" fill="#f00"/><use xlink:href="#a" x="27.812" y="127.664" fill="#f00"/><path d="M53.05 170.09l-5.59-1.774" stroke-width="1.2" stroke="#cc0" stroke-miterlimit="10" fill="none"/><path d="M47.46 168.316l-5.59-1.773" stroke-width="1.2" stroke="#f00" stroke-miterlimit="10" fill="none"/><path d="M52.22 172.72l-5.59-1.775" stroke-width="1.2" stroke="#cc0" stroke-miterlimit="10" fill="none"/><path d="M46.63 170.945l-5.59-1.773" stroke-width="1.2" stroke="#f00" stroke-miterlimit="10" fill="none"/><path d="M52.22 172.72l5.59 1.772" stroke-width="1.2" stroke="#cc0" stroke-miterlimit="10" fill="none"/><path d="M57.81 174.492l5.585 1.774" stroke-width="1.2" stroke="#f00" stroke-miterlimit="10" fill="none"/><path d="M53.05 170.09l5.59 1.773" stroke-width="1.2" stroke="#cc0" stroke-miterlimit="10" fill="none"/><path d="M58.64 171.863l5.59 1.774" stroke-width="1.2" stroke="#f00" stroke-miterlimit="10" fill="none"/><path d="M52.633 171.406l-1.774 5.59" stroke-width="1.2" stroke="#cc0" stroke-miterlimit="10" fill="none"/><path d="M50.86 176.996l-1.77 5.59" stroke-width="1.2" stroke="#f00" stroke-miterlimit="10" fill="none"/><path d="M49.633 165.906h6v11h-6zm0 0" fill="#fff"/><use xlink:href="#e" x="49.633" y="174.569" fill="#cc0"/><path d="M33.457 162.36h8v11h-8zm0 0" fill="#fff"/><use xlink:href="#a" x="33.457" y="171.022" fill="#f00"/><path d="M59.813 169.453h8v11h-8zm0 0" fill="#fff"/><use xlink:href="#a" x="59.813" y="178.116" fill="#f00"/><path d="M38.09 175.086h11v15h-11zm0 0" fill="#fff"/><use xlink:href="#f" x="38.09" y="182.305" fill="#f00"/><use xlink:href="#a" x="40.897" y="187.188" fill="#f00"/><path d="M75.543 166.367L87 163.852M76.098 163.422l9.164-2.016" stroke-width="1.2" stroke="#000" stroke-miterlimit="10" fill="none"/></g></svg>